<?xml version="1.0" encoding="UTF-8" standalone="no"?>
<svg
   xmlns:dc="http://purl.org/dc/elements/1.1/"
   xmlns:cc="http://creativecommons.org/ns#"
   xmlns:rdf="http://www.w3.org/1999/02/22-rdf-syntax-ns#"
   xmlns:svg="http://www.w3.org/2000/svg"
   xmlns="http://www.w3.org/2000/svg"
   xmlns:sodipodi="http://sodipodi.sourceforge.net/DTD/sodipodi-0.dtd"
   xmlns:inkscape="http://www.inkscape.org/namespaces/inkscape"
   version="1.0"
   width="468pt"
   height="638pt"
   viewBox="0 0 468 638"
   preserveAspectRatio="xMidYMid meet"
   id="svg3018"
   inkscape:version="0.48.0 r9654"
   sodipodi:docname="foo.svg">
  <defs
     id="defs3114" />
  <sodipodi:namedview
     pagecolor="#ffffff"
     bordercolor="#666666"
     borderopacity="1"
     objecttolerance="10"
     gridtolerance="10"
     guidetolerance="10"
     inkscape:pageopacity="0"
     inkscape:pageshadow="2"
     inkscape:window-width="1280"
     inkscape:window-height="750"
     id="namedview3112"
     showgrid="false"
     inkscape:zoom="0.71"
     inkscape:cx="206.23272"
     inkscape:cy="405.4594"
     inkscape:window-x="0"
     inkscape:window-y="25"
     inkscape:window-maximized="1"
     inkscape:current-layer="svg3018" />
  <metadata
     id="metadata3020">
Created by potrace 1.8, written by Peter Selinger 2001-2007
<rdf:RDF>
  <cc:Work
     rdf:about="">
    <dc:format>image/svg+xml</dc:format>
    <dc:type
       rdf:resource="http://purl.org/dc/dcmitype/StillImage" />
    <dc:title></dc:title>
  </cc:Work>
</rdf:RDF>
</metadata>
  <path
     style="fill:#000000;stroke:none"
     inkscape:connector-curvature="0"
     id="path3024"
     d="m 391.16224,40.691767 c 0,0.611191 1.3097,6.897727 2.96864,13.97008 6.19922,26.368526 9.86637,54.832563 8.90593,68.453393 -0.87313,12.48576 -2.70671,17.63722 -11.438,31.17074 -5.76266,8.90593 -6.72311,12.13651 -5.67535,18.68498 1.04776,6.63579 2.18283,9.86637 6.89773,20.1693 5.32609,11.43801 19.12154,35.18714 26.28121,44.9662 14.84321,20.51856 29.42448,42.87068 33.44088,51.34004 2.96864,6.11191 3.57983,8.46936 3.92908,14.0574 0.26194,4.97684 0,7.4216 -0.96044,9.34249 -2.7067,5.23878 -9.60443,10.47756 -27.76553,21.30437 -19.4708,11.61263 -24.44764,22.70138 -17.54992,39.37816 1.48432,3.57984 2.96865,8.20742 3.3179,10.30294 0.61119,3.57983 0.43656,3.75446 -3.92909,8.03279 -5.84997,5.67535 -12.04919,8.64399 -16.76409,8.0328 -3.92909,-0.52388 -4.7149,0.96044 -1.3097,2.44476 3.75446,1.74626 11.26338,17.20066 11.26338,23.22526 0,2.0082 -0.43657,4.19102 -1.04776,4.88953 -0.52388,0.6985 -4.36565,3.23058 -8.46936,5.50072 -9.34249,5.23878 -14.66858,10.91412 -15.97828,16.76409 -0.96044,4.80222 -0.96044,5.15147 3.05596,17.81186 4.97684,15.71634 3.57983,25.67002 -5.67535,41.6483 -5.93728,10.12831 -12.22382,16.1529 -21.39168,20.60586 -16.7641,8.12011 -33.61551,11.08876 -71.68398,12.66039 -23.13794,0.96044 -34.48863,1.92089 -39.6401,3.57983 -7.77085,2.35745 -16.67678,6.28654 -16.67678,7.42161 0,0.61119 0.52388,1.04775 1.13507,0.78581 0.52388,-0.17462 4.88953,-1.74626 9.69174,-3.49251 10.39025,-3.84178 15.89097,-4.54028 45.05351,-5.67535 27.85285,-1.13507 42.69606,-2.79402 54.74525,-6.19922 22.87601,-6.46116 32.65506,-14.14471 42.34681,-33.5282 7.68354,-15.19246 8.55667,-24.62226 3.75445,-39.6401 -1.65894,-5.15146 -3.05595,-10.47756 -3.05595,-11.78725 0,-6.46116 6.46116,-14.0574 16.50216,-19.29618 3.4052,-1.83357 7.07235,-4.36565 8.03279,-5.58803 2.88133,-3.57983 1.83358,-9.69174 -3.49252,-20.1693 l -4.27833,-8.64399 3.14326,-1.04775 c 4.27834,-1.39701 9.60443,-5.06416 13.53352,-9.42981 3.92908,-4.36565 4.10371,-7.24698 0.96044,-15.54171 -4.27833,-11.17607 -4.88953,-14.23202 -3.75446,-19.03424 0.52388,-2.44476 1.48432,-5.32609 2.09551,-6.54847 2.09552,-3.92908 8.90593,-9.95368 17.02604,-14.84321 21.12975,-12.7477 26.10659,-16.7641 29.07523,-23.4872 1.39701,-3.14327 1.57163,-4.88953 1.13507,-10.04099 -1.13507,-11.35069 -7.33429,-22.1775 -38.15578,-65.74669 -8.46936,-12.13651 -24.27302,-39.55279 -28.37673,-49.33185 -2.88133,-7.07235 -4.0164,-15.4544 -2.79401,-21.21706 0.52387,-2.44476 3.84177,-9.86636 7.33429,-16.67678 6.28653,-12.04919 6.46116,-12.48576 7.50892,-21.74094 1.13507,-10.47756 0.26194,-22.96331 -2.88133,-43.656495 -2.09552,-13.708141 -8.55668,-43.307248 -9.60443,-44.52963 -0.52388,-0.436565 -0.78582,-0.349252 -0.78582,0.349252 z" />
  <path
     style="fill:#000000;stroke:none"
     inkscape:connector-curvature="0"
     id="path3026"
     d="m 378.06529,49.423067 c 0,0.436565 0.96044,5.849971 2.18282,11.961881 6.11191,31.607306 5.3261,61.293722 -2.27013,84.344362 -2.61939,8.03279 -7.50892,17.98647 -9.69175,19.64542 -0.61119,0.43657 -4.10371,1.57163 -7.68354,2.44476 -6.63579,1.65895 -8.99324,2.70671 -13.35889,6.28654 -1.39701,1.13507 -3.23058,2.0082 -4.10371,2.0082 -2.09551,0 -5.23878,4.0164 -5.23878,6.81041 0,3.40521 4.7149,7.07236 17.54991,13.44621 10.7395,5.4134 12.39845,6.54847 18.7723,13.09695 3.84177,4.01639 9.4298,8.90592 12.39844,10.82681 2.96865,2.0082 8.0328,6.11191 11.35069,9.16786 l 5.93729,5.58803 -1.83358,2.70671 c -4.80221,6.98504 -8.20742,10.47756 -15.19246,15.19246 -8.7313,5.76266 -11.87456,9.08055 -15.71634,16.32753 -2.61939,4.88953 -5.06415,8.12011 -15.36709,20.34393 -6.19922,7.33429 -10.04099,16.85141 -10.73949,26.36853 l -0.43657,6.81041 -2.88133,0 c -5.32609,0 -52.82436,-4.36565 -66.27057,-6.11191 -16.1529,-2.0082 -21.82824,-2.44476 -42.78337,-3.05596 -22.52675,-0.6985 -22.09018,-0.61119 -22.78869,-5.32609 -0.26194,-2.09551 -0.34925,-12.92232 -0.0873,-24.09839 0.34925,-19.4708 0.52388,-20.78049 3.23058,-30.82149 4.54028,-16.93872 4.54028,-16.93872 3.31789,-19.47079 -1.30969,-2.79402 -3.4052,-3.3179 -6.81041,-1.92089 -5.50072,2.27014 -9.69174,12.04919 -10.30293,24.01107 -0.34926,7.68355 0.17462,11.69995 3.66714,28.02748 0.78582,3.40521 2.09551,11.61263 3.05596,18.24842 0.96044,6.63578 2.27014,12.57307 2.88133,13.18426 1.65894,1.57163 10.47756,4.62759 19.03423,6.54847 11.438,2.53208 14.84321,3.57984 14.84321,4.36565 0,0.43657 -0.26194,0.78582 -0.6985,0.78582 -1.22239,0 -3.66715,5.50072 -5.41341,12.22382 -0.87313,3.57983 -3.49252,9.69174 -5.67534,13.53351 -2.18283,3.84178 -4.54028,8.64399 -5.3261,10.65219 -1.74626,4.36565 -1.04775,9.25518 1.39701,11.00144 1.65895,1.13507 1.65895,1.30969 -0.87313,3.66715 -2.96864,2.88132 -4.80222,7.85816 -6.19922,16.8514 -0.52388,3.49252 -2.53208,10.56488 -4.45297,15.71634 -4.19102,11.08875 -4.97684,15.80366 -2.96864,17.89917 1.83357,1.83357 3.3179,1.22238 5.32609,-2.27014 2.09552,-3.49252 9.08056,-11.08875 10.30294,-11.08875 1.48432,0 0.0873,5.50072 -3.3179,12.83501 -3.49252,7.68354 -3.66714,10.12831 -0.6985,10.56487 3.23058,0.43657 8.38205,-5.23878 15.89097,-17.98647 3.92908,-6.72311 8.38204,-13.53352 9.69174,-15.10515 l 2.53208,-2.96865 0.0873,3.84178 c 0,2.7067 -1.13507,6.19922 -3.84177,12.22382 -3.40521,7.4216 -6.63579,18.8596 -6.63579,23.39988 0,0.87313 0.43656,3.05596 0.96044,4.88953 1.39701,5.06415 4.0164,4.19102 7.33429,-2.44477 4.54028,-8.81861 11.69995,-18.94692 13.35889,-18.59766 2.18283,0.43656 1.74626,7.4216 -1.13507,16.41484 -3.14326,10.12831 -3.49252,12.48576 -1.92088,13.88277 2.09551,1.65894 6.0246,-0.78582 9.16786,-5.76266 2.79402,-4.36565 7.77086,-15.27978 12.0492,-26.45584 l 2.53208,-6.54848 0.43656,22.26482 c 0.43657,21.91556 0.43657,22.26481 2.27014,22.52675 2.79401,0.43657 4.88953,-3.14326 8.64398,-14.66858 4.71491,-14.66858 9.25518,-26.8924 10.56488,-28.63866 1.65894,-2.18283 1.57163,14.66858 -0.0873,28.46403 -0.96044,7.94549 -1.04775,11.17607 -0.34925,12.48576 0.69851,1.48432 0.43657,2.96864 -1.57163,7.59623 -2.27014,5.3261 -2.44476,6.7231 -2.44476,16.32754 0.0873,8.81861 0.34925,11.17606 1.92088,14.58127 2.44476,5.4134 6.89773,11.96188 9.77906,14.40664 9.95368,8.55667 -37.45728,-10.91412 -61.03179,-24.97152 -7.15967,-4.36565 -31.51999,-16.67678 -32.82969,-16.67678 -2.27014,0 -46.18858,-22.35213 -53.52287,-27.24166 -9.95368,-6.7231 -26.71777,-20.43124 -30.47223,-24.8842 -1.74626,-2.09551 -4.36565,-5.15147 -5.67535,-6.63579 -3.57983,-4.0164 -8.29473,-11.96188 -10.82681,-18.33573 -3.3179,-8.38205 -4.62759,-18.42304 -4.62759,-36.23489 l 0,-15.89097 c -9.4e-4,-0.34551 -0.0473,-5.84069 -0.34925,-10.65219 -0.34925,-5.4134 -0.96044,-12.39844 -1.39701,-15.54171 -0.43657,-3.14327 -1.04776,-7.24698 -1.22238,-9.16787 -0.43657,-3.84177 -3.14327,-17.81185 -5.23878,-26.54315 -1.3097,-5.4134 -1.22238,-5.58803 0.61119,-7.15966 2.7067,-2.18283 19.38349,-9.08056 26.10659,-10.65219 2.09551,-0.52388 2.44476,-0.17463 4.88952,4.88953 4.71491,9.77905 12.66039,17.98648 23.83645,24.53495 5.3261,3.14327 2.18283,-0.61119 -4.10371,-4.88953 -7.85817,-5.4134 -14.58127,-12.74769 -17.98648,-19.73273 -3.05595,-6.19923 -2.88133,-6.54848 2.88133,-7.50892 1.92089,-0.26194 3.40521,-0.96044 3.40521,-1.39701 0,-0.52388 -0.26194,-0.87313 -0.61119,-0.87313 -2.44477,0.0873 -13.27158,3.14327 -19.90736,5.67534 -23.4872,8.90593 -33.440884,14.93053 -38.417725,23.57451 -2.794016,4.62759 -6.024597,7.68355 -7.945483,7.24698 -5.500719,-1.04775 -6.723101,-12.57307 -2.182825,-22.09019 1.484321,-3.23058 3.49252,-6.89772 4.452963,-8.38204 1.047756,-1.39701 1.484321,-2.53208 1.047756,-2.53208 -2.270138,0 -7.508918,9.25518 -9.342491,16.41484 -1.135069,4.45297 -1.222382,6.37385 -0.436565,10.041 2.270138,10.65218 9.429804,11.17606 15.279775,1.04776 3.667146,-6.19923 13.184265,-14.14471 14.930525,-12.39845 1.30969,1.30969 5.76266,21.479 7.68354,35.09982 2.0082,14.14471 2.35745,20.16931 2.61939,46.71246 0.34925,27.06703 1.04776,31.34537 7.15967,43.04531 3.84177,7.33429 14.05739,20.43124 20.78049,26.54315 5.32609,4.88953 19.73274,15.62903 27.85285,20.69318 8.0328,5.06416 36.32221,19.29617 54.04675,27.06703 8.55667,3.75446 19.55811,9.16787 24.44764,11.96188 29.07522,16.58947 58.15045,28.90061 72.90635,30.9088 9.42981,1.22239 22.26482,-4.97684 25.67002,-12.48575 2.79402,-6.28654 2.88133,-11.43801 0.78582,-30.29762 -2.53208,-22.78869 -2.27014,-26.10658 2.96864,-35.71101 3.14327,-5.76266 4.0164,-8.29474 3.92909,-10.82681 -0.17463,-2.44477 0.34925,-4.10371 2.0082,-6.37385 3.05595,-3.92909 6.11191,-11.87457 5.50072,-13.97008 -0.6112,-1.74626 0.78581,-2.35745 1.74626,-0.78582 0.26193,0.52388 1.65894,0.87313 3.05595,0.87313 4.45296,0 5.67534,-3.66715 5.67534,-17.02604 0,-8.1201 -0.34925,-11.96188 -1.30969,-13.53351 -0.6985,-1.3097 -1.13507,-4.19102 -1.04776,-7.07235 0.0873,-2.70671 -0.34925,-7.42161 -1.13507,-10.47756 -2.79401,-12.13651 -0.87313,-21.21706 6.0246,-28.2021 l 3.23058,-3.14327 -2.44476,-0.96044 c -1.3097,-0.52388 -6.19922,-1.74626 -10.7395,-2.61939 -4.54028,-0.96045 -8.46936,-2.09552 -8.81861,-2.61939 -0.43657,-0.69851 -0.69851,-0.61119 -0.96045,0.0873 -0.26194,0.78582 -1.397,0.87313 -4.01639,0.43656 l -3.66715,-0.61119 0,-4.88952 c 0,-11.78726 4.80221,-21.74094 17.02604,-35.18714 2.35745,-2.61939 5.76265,-7.24698 7.4216,-10.30294 5.23878,-9.34249 7.50892,-11.96188 14.14471,-16.24022 8.20742,-5.4134 11.96188,-8.99323 17.89916,-16.93872 5.58803,-7.50892 5.67535,-6.98504 -2.27014,-16.06559 -7.4216,-8.46936 -19.99467,-25.67002 -22.70138,-31.08343 -0.96044,-1.83357 -2.79401,-6.98504 -4.01639,-11.438 -1.3097,-4.54028 -2.79402,-9.16787 -3.49253,-10.39025 -1.04775,-2.09551 -0.87313,-2.79401 2.6194,-9.25518 5.06415,-9.34249 8.55667,-20.1693 10.91412,-34.48863 1.74626,-10.47756 1.92089,-13.70814 1.48432,-29.249855 -0.26194,-9.60443 -0.96044,-19.994677 -1.39701,-23.137945 -2.18282,-13.09695 -4.80221,-25.32077 -5.50072,-25.32077 -0.34925,0 -0.6985,0.349252 -0.6985,0.785817 z M 367.84967,170.87545 c 1.57163,1.30969 3.05595,4.36565 5.32609,11.61263 3.05596,9.86637 6.11191,15.4544 13.53352,25.05883 2.0082,2.61939 5.23878,6.81041 7.07235,9.25518 1.83357,2.44476 4.97684,6.28653 6.89773,8.55667 7.59623,8.81861 6.54847,9.86637 -2.18283,2.18283 -3.31789,-2.96865 -8.38205,-6.98504 -11.26338,-8.90593 -2.88132,-1.92089 -8.55667,-6.98504 -12.66038,-11.08875 -6.89773,-7.07235 -8.29474,-8.0328 -19.4708,-13.53352 -14.58127,-7.15966 -17.72454,-10.39024 -13.97008,-14.58127 0.78582,-0.87313 2.09551,-1.57163 2.88133,-1.57163 0.78582,0 3.05596,-1.3097 5.15147,-2.79402 3.23058,-2.53207 11.00144,-5.50072 15.01783,-5.84997 0.78582,0 2.44477,0.69851 3.66715,1.65895 z m -153.40894,62.95267 c 1.13507,1.83358 0.52388,5.84997 -3.05596,20.16931 -3.31789,13.4462 -3.49252,15.01783 -3.57983,28.20209 0,7.59624 -0.17463,13.97008 -0.34925,14.14471 -0.0873,0.17463 -1.04776,-3.92908 -2.18283,-9.16786 -1.04775,-5.15147 -2.53207,-12.13651 -3.23058,-15.45441 -1.83357,-8.38204 -1.22238,-22.61406 1.39701,-29.42448 2.61939,-6.98504 8.90593,-11.78725 11.00144,-8.46936 z m 47.0617,82.86004 c 4.36565,0.43656 12.7477,1.39701 18.7723,2.09551 13.97008,1.74626 55.18182,5.50072 67.66758,6.19922 9.51711,0.52388 18.68498,2.0082 23.39988,3.84178 l 2.35745,0.96044 -3.40521,4.45296 c -5.32609,7.07236 -6.63578,15.01784 -4.0164,25.67002 1.39701,5.76266 1.74626,11.78726 0.6112,10.39025 -0.43657,-0.43656 -2.79402,-5.32609 -5.41341,-10.82681 -6.63579,-14.31933 -12.92232,-25.14614 -15.4544,-26.80509 -2.09551,-1.39701 -2.27014,-1.39701 -3.49252,0.26194 -0.78582,1.04775 -1.04776,2.7067 -0.69851,4.45296 0.43657,2.44476 0.26194,2.88133 -1.22238,2.88133 -1.30969,0 -2.09551,-1.3097 -3.57983,-5.93728 -2.53208,-7.77086 -3.92908,-9.77906 -6.63579,-9.77906 -2.61939,0 -4.7149,4.19102 -4.7149,9.60443 0,4.45296 -1.13507,4.45296 -2.44476,0.0873 -2.09552,-6.7231 -6.46117,-7.24698 -9.34249,-1.13507 -1.39701,2.96865 -2.09552,3.66715 -3.49253,3.3179 -0.96044,-0.26194 -2.61939,-0.52388 -3.66714,-0.52388 -1.57164,0 -2.0082,-0.52388 -2.0082,-2.09551 0,-5.23878 -2.96864,-6.54848 -5.93728,-2.70671 -1.39701,1.83358 -2.18283,2.09552 -4.54028,1.65895 -1.83357,-0.43656 -3.05596,-1.30969 -3.57983,-2.7067 -1.13507,-3.05596 -3.3179,-3.49252 -5.15147,-1.13507 -1.30969,1.65895 -1.92089,1.83357 -5.32609,1.30969 -5.93729,-0.87313 -6.54848,-1.22238 -7.59623,-3.49252 -1.13507,-2.53207 -3.3179,-2.79401 -5.50072,-0.78581 -2.09552,1.92088 -4.10371,1.04775 -4.45297,-1.92089 -0.34925,-3.23058 -1.83357,-3.49252 -4.45296,-0.6985 -1.74626,1.83357 -2.7067,2.18282 -4.45296,1.74626 -1.83358,-0.43657 -2.27014,-1.04776 -2.27014,-3.23058 0,-3.92909 -2.35745,-4.36565 -5.23878,-0.96045 -2.61939,3.14327 -2.53208,3.14327 -17.02604,-0.34925 -2.88132,-0.6985 -6.19922,-1.48432 -7.33429,-1.74626 -2.7067,-0.52388 -7.94548,-2.79401 -7.94548,-3.31789 0,-0.61119 38.76697,0.34925 47.58558,1.22238 z m -12.04919,13.00964 c -0.26194,4.7149 -0.17463,8.99324 0.17463,9.60443 1.13507,1.83357 3.23058,0.0873 5.15146,-4.10371 1.04776,-2.27014 2.70671,-6.11191 3.75446,-8.46937 l 1.92089,-4.36565 0.78582,6.98504 c 0.96044,8.29474 0.43656,15.97828 -1.65895,24.70958 l -1.48432,6.37385 -2.61939,-0.52388 -2.7067,-0.52387 2.88132,1.48432 c 2.53208,1.30969 2.79402,1.74626 2.79402,5.67534 0,3.66715 -0.43657,4.80222 -3.14327,7.77086 -2.53207,2.7067 -3.75446,3.49252 -6.11191,3.49252 -4.27833,0 -7.24698,-1.39701 -8.90592,-4.36565 -1.48433,-2.61939 -3.40521,-3.66715 -2.53208,-1.39701 0.6985,1.74626 -3.3179,2.53208 -6.19922,1.22238 -1.22239,-0.61119 -2.70671,-2.0082 -3.3179,-3.05595 -0.52388,-1.13507 -1.22238,-1.74626 -1.48432,-1.39701 -1.65895,1.57163 -0.26194,-3.49252 2.27014,-8.46936 3.66714,-7.15967 5.93728,-8.0328 13.70814,-4.88953 2.88133,1.22238 5.23878,2.0082 5.23878,1.83357 0,-1.13506 -8.0328,-4.19102 -11.08875,-4.27833 -2.09551,-0.0873 -3.75446,-0.26194 -3.75446,-0.43657 0,-0.17462 0.78582,-1.57163 1.65895,-3.05595 0.96044,-1.48432 2.53207,-5.84997 3.49252,-9.69175 1.83357,-6.89772 8.64398,-18.77229 10.7395,-18.77229 0.61119,0 0.78581,2.7067 0.43656,8.64399 z m 6.37385,-1.48432 c 0,1.65894 -3.75446,9.4298 -4.54028,9.4298 -0.6985,0 -0.26194,-7.33429 0.61119,-10.21562 0.34926,-1.13507 3.92909,-0.43657 3.92909,0.78582 z m 15.54171,0.26193 c 0.69851,1.39701 0.78582,4.97685 0.43657,10.21563 -0.52388,8.7313 0.78582,14.1447 3.75446,15.27977 1.83357,0.6985 1.92088,0.43657 6.89773,-12.66038 2.27013,-6.11191 4.45296,-11.43801 4.88952,-11.87457 1.83358,-2.0082 2.27014,3.92908 1.13507,16.06559 -0.61119,6.98504 -1.13507,14.66858 -1.22238,17.20066 l 0,4.54028 -3.05595,-1.3097 c -1.65895,-0.61119 -4.10372,-1.13507 -5.41341,-1.13507 -2.35745,0.17463 -2.35745,0.17463 -0.26194,0.52388 1.22238,0.17463 3.66715,0.96044 5.50072,1.74626 l 3.23058,1.39701 0,6.0246 c 0,6.46116 -2.27014,13.09695 -4.80221,14.1447 -0.69851,0.26194 -3.05596,-0.43656 -5.23879,-1.65895 -3.66714,-1.92088 -4.19102,-2.00819 -6.98503,-0.78581 -4.10372,1.65894 -5.15147,1.57163 -8.20743,-1.04776 -1.48432,-1.22238 -4.10371,-2.61939 -5.76265,-3.05595 -3.84178,-1.04776 -4.0164,-3.23058 -0.52388,-6.19923 2.88133,-2.35745 4.45296,-5.67534 4.45296,-9.4298 0,-3.40521 3.23058,-4.36565 7.50892,-2.35745 1.65895,0.78582 2.96864,1.13507 2.96864,0.6985 0,-1.04775 -4.88953,-2.7067 -7.94548,-2.7067 -2.18283,0 -2.53208,-0.34925 -2.53208,-2.44476 0,-1.3097 0.61119,-4.45297 1.30969,-7.07236 0.69851,-2.61939 1.48433,-7.50892 1.74626,-10.91412 0.6112,-7.15967 1.74626,-10.65219 4.19103,-13.4462 2.27014,-2.44477 2.7067,-2.44477 3.92908,0.26193 z m 61.81761,0.96045 c 2.27014,5.32609 9.95368,30.64686 9.95368,32.65506 0,0.6985 0.78582,2.79402 1.65895,4.7149 3.49252,7.42161 3.49252,7.33429 -2.79402,6.89773 -4.45296,-0.34925 -6.37385,-0.0873 -9.77905,1.39701 -2.27014,0.96044 -4.27834,1.83357 -4.45297,1.83357 -0.78582,0 -0.26194,-46.3632 0.52388,-48.3714 1.22238,-3.23058 3.31789,-2.79402 4.88953,0.87313 z m -68.62802,0.34925 c 0,0.43656 -0.34925,0.87313 -0.87313,0.87313 -0.43657,0 -0.87313,-0.43657 -0.87313,-0.87313 0,-0.52388 0.43656,-0.87313 0.87313,-0.87313 0.52388,0 0.87313,0.34925 0.87313,0.87313 z m 39.20354,20.51855 c 0.61119,10.041 1.30969,18.59767 1.57163,19.12155 0.34925,0.43657 -0.0873,0.61119 -0.96044,0.26194 -3.3179,-1.30969 -8.0328,-1.57163 -10.47756,-0.6985 -1.39701,0.61119 -2.70671,0.87313 -2.88133,0.61119 -0.87313,-0.78582 1.83357,-14.49396 4.7149,-24.53496 3.05596,-10.65218 5.15147,-15.19246 6.37385,-13.88276 0.34925,0.43656 1.13507,8.99324 1.65895,19.12154 z m 17.02603,-17.28797 c 1.65895,3.31789 3.84177,21.91556 4.10371,35.6237 0.0873,4.80222 -0.0873,6.0246 -1.04775,5.76266 -5.76266,-1.57163 -9.77906,-2.0082 -11.52532,-1.13507 -1.83357,0.96045 -1.74626,1.04776 0.69851,0.87313 6.1119,-0.26194 8.46936,0.26194 10.47755,2.27014 1.83358,1.83358 2.0082,2.53208 1.57164,7.50892 -0.69851,7.59623 -2.88133,13.4462 -5.23878,13.79545 -0.96044,0.17463 -4.10371,-1.397 -7.33429,-3.57983 -4.97684,-3.40521 -5.58804,-4.10371 -5.3261,-6.37385 0.87313,-8.90592 1.3097,-11.438 2.27014,-12.48576 0.78582,-1.04775 0.69851,-1.13507 -0.26194,-0.61119 -0.96044,0.61119 -1.04775,0 -0.43656,-3.05595 0.34925,-2.09552 0.52388,-7.15967 0.43656,-11.26338 -0.17462,-9.08055 0.96045,-15.10515 4.0164,-22.1775 3.66715,-8.38205 5.32609,-9.51712 7.59623,-5.15147 z m -37.28265,-0.26194 c 0.61119,0.52388 -6.54847,18.33573 -7.4216,18.68498 -1.57164,0.52388 -2.88133,-5.58803 -2.70671,-12.92232 l 0.17463,-7.15967 4.80221,0.52388 c 2.70671,0.34925 5.06416,0.69851 5.15147,0.87313 z m 13.09695,2.61939 c 0.0873,0.0873 -0.78582,3.49252 -2.0082,7.50892 -1.13507,4.10371 -2.88133,10.91412 -3.84177,15.27977 -1.39701,6.72311 -1.65895,7.3343 -1.65895,4.0164 -0.0873,-4.27833 1.48432,-22.876 2.18283,-26.10658 0.34925,-1.74626 0.78581,-2.0082 2.79401,-1.48432 1.3097,0.34925 2.44477,0.6985 2.53208,0.78581 z m 50.64154,0.69851 c 1.74626,1.92088 10.65219,19.12154 16.50216,31.95655 l 2.88133,6.37385 -2.35745,0.87313 c -1.3097,0.43657 -2.70671,0.87313 -3.05596,1.04776 -0.34925,0.0873 -3.40521,-5.93729 -6.63579,-13.35889 -3.23058,-7.42161 -6.89772,-15.71634 -8.12011,-18.33573 -2.88132,-6.0246 -3.57983,-8.46936 -2.88132,-9.60443 0.78581,-1.30969 1.65894,-1.04776 3.66714,1.04776 z m -37.54459,2.27013 c 0.87313,0.52388 0.78582,1.65895 -0.34925,4.97684 -0.96044,3.05596 -1.39701,7.42161 -1.39701,14.58128 0,5.67534 -0.26194,10.30293 -0.61119,10.30293 -0.43657,0 -0.96044,-3.84177 -1.22238,-8.55667 -0.34925,-4.62759 -0.78582,-11.52532 -1.04776,-15.27978 -0.43656,-6.63579 -0.43656,-6.7231 1.57164,-6.7231 1.13506,0 2.44476,0.34925 3.05595,0.6985 z m 15.71634,6.46117 c -0.17463,1.13506 -0.34925,0.26193 -0.34925,-1.92089 0,-2.18283 0.17462,-3.05596 0.34925,-2.0082 0.17463,1.13507 0.17463,2.88133 0,3.92909 z m 17.37529,-2.09552 c 1.57163,1.04776 5.50072,8.81862 9.86637,19.82006 l 4.19102,10.47755 -2.7067,0.26194 c -1.48432,0.17463 -3.14327,0.69851 -3.66715,1.13507 -0.61119,0.52388 -2.53207,-4.27833 -5.93728,-14.93052 -5.15147,-16.24022 -5.50072,-19.29617 -1.74626,-16.7641 z m -40.77517,27.32897 c 3.4052,1.22238 4.45296,3.57984 4.45296,9.86637 0,3.92909 -0.43657,5.15147 -3.66715,9.51712 -2.00819,2.79401 -4.62758,5.23878 -5.76265,5.58803 -2.44477,0.61119 -5.50072,-2.0082 -7.85817,-6.7231 -1.48432,-3.14327 -1.57164,-3.75446 -0.34926,-10.04099 1.22239,-6.19923 1.57164,-6.89773 4.0164,-7.94549 3.3179,-1.39701 5.58803,-1.48432 9.16787,-0.26194 z m 44.61694,6.0246 c 1.48432,0.78582 1.74626,1.83357 1.74626,6.7231 0,11.96188 -3.14327,21.21706 -7.24698,21.21706 -0.6985,0 -3.14327,-2.27014 -5.50072,-5.06415 -2.27014,-2.70671 -4.97684,-5.67535 -5.93728,-6.46117 -1.48432,-1.13507 -1.83357,-2.7067 -2.09551,-7.94548 l -0.34926,-6.54847 4.62759,-1.83358 c 4.97684,-1.92088 11.17607,-2.0082 14.7559,-0.0873 z m 10.65219,-0.26194 c 0.78581,0.87313 1.83357,2.96864 2.35745,4.7149 1.04775,3.3179 1.57163,15.71634 0.6985,18.68498 -0.26194,0.96045 -0.52388,2.27014 -0.52388,2.96865 -0.0873,1.65894 -5.50072,0.6985 -8.64398,-1.57164 -2.44477,-1.65894 -2.44477,-1.83357 -1.83358,-7.68354 0.43657,-3.23058 0.69851,-8.29474 0.69851,-11.26338 0.0873,-2.88133 0.52387,-5.67534 1.13507,-6.28653 1.48432,-1.48433 4.62758,-1.3097 6.11191,0.43656 z m -119.00762,1.65895 c 2.35745,0.87313 3.31789,1.74626 2.96864,2.61939 -0.34925,0.96044 0.61119,1.22238 4.80221,1.22238 4.80222,0 5.41341,0.26194 7.50892,2.7067 3.49252,4.10371 2.88133,8.99324 -1.92088,15.97828 -2.18283,3.14327 -2.53208,3.3179 -5.76266,2.88133 -2.27014,-0.34925 -3.05596,-0.17463 -2.18283,0.34925 0.61119,0.43657 1.92089,0.78582 2.79402,0.78582 0.78582,0 1.48432,0.17463 1.48432,0.26194 0,0.6985 -14.23202,23.92376 -16.41484,26.80509 -4.10372,5.50072 -8.0328,7.77086 -8.0328,4.80221 0,-0.78581 1.39701,-4.10371 3.14327,-7.50891 1.65894,-3.40521 3.31789,-8.12011 3.57983,-10.47756 0.43657,-3.92909 0.34925,-4.27834 -1.39701,-4.27834 -2.35745,0 -8.03279,5.15147 -11.17606,10.12831 -5.32609,8.38205 -5.50072,0.6985 -0.43657,-13.27158 1.92089,-5.23878 3.75446,-10.56487 4.0164,-11.96188 0.69851,-2.88133 2.7067,-3.05595 7.77086,-0.52388 3.49252,1.83358 8.46936,3.57984 8.46936,2.96864 0,-0.52387 -13.35889,-6.54847 -14.58127,-6.54847 -1.83357,0 -0.87313,-5.15147 2.18282,-11.35069 1.83358,-3.75446 2.79402,-4.80221 4.27834,-4.62759 0.96044,0.0873 2.35745,-0.34925 2.88133,-1.04776 1.39701,-1.65894 1.83357,-1.65894 6.0246,0.0873 z m 130.70756,2.53208 c 1.30969,4.36564 1.48432,18.07379 0.34925,22.35212 -1.3097,4.7149 -3.14327,5.93729 -5.41341,3.57984 -1.74626,-1.65895 -1.83357,-2.70671 -1.83357,-15.01784 0,-14.05739 0.34925,-15.10515 4.19102,-14.66858 1.13507,0.17462 2.0082,1.397 2.70671,3.75446 z m -110.18901,5.76265 c -0.52388,0.96045 -2.09551,0.17463 -2.09551,-0.96044 0,-0.43657 0.61119,-0.61119 1.30969,-0.34925 0.69851,0.34925 1.04776,0.87313 0.78582,1.30969 z m 5.15147,3.14327 c 0.87313,0.26194 3.23058,0 5.41341,-0.61119 3.49251,-0.96044 4.19102,-0.87313 7.85816,0.87313 3.14327,1.48432 4.45297,1.74626 5.93729,1.04776 2.44476,-1.04776 6.54847,1.13506 7.33429,4.01639 1.39701,5.58804 -3.66714,18.68499 -7.4216,19.20886 -1.13507,0.17463 -4.0164,-0.26194 -6.54848,-0.96044 -2.53208,-0.6985 -6.81041,-1.74626 -9.69174,-2.27014 -11.43801,-2.09551 -15.10515,-5.84997 -11.87457,-12.31113 0.87313,-1.65895 1.83357,-4.45296 2.18283,-6.11191 0.6985,-3.40521 2.00819,-4.62759 3.92908,-3.84177 0.6985,0.34925 2.0082,0.78581 2.88133,0.96044 z m 43.56919,5.50072 c 2.00819,3.84177 2.00819,12.13651 0,17.4626 -1.39701,3.66715 -1.74626,3.92908 -4.97684,4.19102 -4.62759,0.43657 -8.12011,-0.34925 -11.52532,-2.44476 l -2.79402,-1.65895 2.09551,-5.76266 c 1.22239,-3.14326 2.18283,-6.46116 2.18283,-7.4216 0,-1.39701 0.61119,-1.74626 2.88133,-1.74626 2.18282,0 3.66715,-0.78582 5.84997,-3.05595 1.65895,-1.65895 3.31789,-2.96865 3.84177,-2.79402 0.43657,0.17462 1.48432,1.65895 2.44477,3.23058 z m 21.82825,6.63579 c 0.78581,4.88953 -0.34926,12.1365 -2.35746,16.1529 -1.397,2.70671 -1.48432,2.70671 -7.07235,2.35745 -6.89772,-0.43656 -10.47756,-2.7067 -10.30293,-6.46116 0.34925,-6.46116 1.92088,-12.66038 3.40521,-13.79545 1.30969,-0.96045 2.00819,-0.96045 4.19102,0.26194 2.44476,1.397 2.53208,1.397 5.23878,-1.83358 2.53208,-2.88132 2.96864,-3.14326 4.54027,-2.09551 1.13507,0.78582 1.92089,2.61939 2.35746,5.41341 z m -16.93873,-4.19103 c 0.52388,1.57164 -1.30969,1.22239 -1.92088,-0.34925 -0.34925,-0.87313 -0.0873,-1.22238 0.52388,-1.04775 0.52387,0.17462 1.22238,0.87313 1.397,1.397 z m 25.4954,8.38205 c 0,0.78582 3.75446,0.34925 6.37385,-0.78582 1.22238,-0.52387 1.48432,-0.0873 1.48432,2.70671 0,1.92088 -0.87313,6.28653 -1.83357,9.69174 -1.83358,6.0246 -2.09552,6.37385 -4.88953,6.89773 -3.23058,0.61119 -7.24698,-0.69851 -9.51712,-3.23058 -1.30969,-1.48432 -1.30969,-1.83358 0.0873,-5.3261 1.04775,-2.53207 1.48432,-6.11191 1.48432,-11.17606 l 0,-7.42161 3.4052,3.92909 c 1.83358,2.18282 3.40521,4.27834 3.40521,4.7149 z m 12.83501,-2.53208 c 1.04776,0.69851 3.40521,1.65895 5.23878,2.0082 2.79402,0.52388 3.40521,1.04776 3.57983,3.05596 0.34926,2.7067 -3.14326,10.91412 -6.46116,15.19246 -2.27014,2.96864 -5.06415,3.66715 -8.20742,2.0082 -1.48432,-0.78582 -1.48432,-1.13507 0.61119,-7.59623 1.48432,-4.62759 2.0082,-8.29474 1.83357,-11.438 -0.26193,-4.88953 0.26194,-5.41341 3.40521,-3.23059 z m -88.36076,7.50892 c 2.88133,0.87313 6.28654,1.65895 7.50892,1.65895 1.3097,0 4.0164,0.61119 6.0246,1.30969 2.0082,0.69851 4.7149,1.3097 5.84997,1.3097 1.48432,0 2.0082,0.34925 1.74626,1.04776 -0.34925,0.61119 -1.92089,4.62758 -3.66715,8.99324 -6.7231,16.76409 -10.56487,24.44763 -13.79545,27.85284 -5.15147,5.50072 -5.76266,3.49252 -2.44476,-8.38205 4.0164,-14.66858 3.4052,-22.43944 -1.57164,-19.29617 -2.18282,1.39701 -10.39024,13.27158 -13.00963,18.85961 -1.22239,2.7067 -2.70671,4.88953 -3.23058,4.7149 -0.43657,-0.17463 -1.22239,-1.74626 -1.65895,-3.49252 -1.22238,-4.7149 1.30969,-16.06559 5.4134,-24.62227 1.92089,-3.92908 3.75446,-8.46936 4.10372,-9.95368 0.43656,-2.18282 0.96044,-2.7067 2.00819,-2.27013 0.87313,0.34925 3.84178,1.397 6.7231,2.27013 z m 28.46404,4.88953 c 1.65895,0.78582 5.41341,1.65895 8.46936,1.83357 3.66715,0.26194 5.41341,0.69851 5.15147,1.39701 -3.23058,7.68355 -6.37385,16.15291 -9.34249,25.40808 -4.27834,13.44621 -5.93728,17.02604 -7.50892,17.02604 -1.04775,0 -1.22238,-3.66715 -1.22238,-20.86781 0,-17.72454 0.43657,-26.28121 1.3097,-26.28121 0.0873,0 1.48432,0.6985 3.14326,1.48432 z m 28.98792,5.32609 c 3.23058,0.26194 4.97684,0.78582 4.80221,1.39701 -0.17462,0.52388 -2.35745,7.24698 -4.88952,14.93052 -4.71491,14.40665 -8.55668,23.31258 -10.39025,23.83645 -2.09551,0.61119 -2.96864,-3.14326 -2.0082,-8.38204 0.52388,-2.70671 1.22238,-11.69995 1.48432,-19.90737 l 0.52388,-14.93052 2.7067,1.39701 c 1.48432,0.6985 4.97684,1.48432 7.77086,1.65894 z m 17.28797,4.54028 c 4.27834,0 4.36565,1.04776 0.52388,6.63579 -1.48432,2.35745 -3.75446,6.46116 -4.97684,9.08055 -12.92232,28.28941 -18.24842,34.75057 -19.4708,23.92376 -0.34925,-3.31789 0.0873,-5.50072 2.09551,-10.56487 1.3097,-3.40521 4.10371,-11.35069 6.11191,-17.4626 2.0082,-6.11191 4.19103,-12.22382 4.80222,-13.53352 l 1.22238,-2.35745 3.14327,2.09552 c 2.09551,1.397 4.45296,2.18282 6.54847,2.18282 z m 11.00144,1.74626 c 1.83357,0 1.92089,0.0873 0.52388,3.23058 -2.61939,6.46116 -19.38349,27.67822 -20.78049,26.36853 -0.43657,-0.52388 6.98503,-16.24022 12.31113,-25.93196 2.0082,-3.66715 2.88133,-4.54028 4.27834,-4.10372 0.96044,0.17463 2.61939,0.43657 3.66714,0.43657 z m 0.87313,10.30293 c -3.66714,5.93729 -5.84997,12.92233 -5.84997,18.42305 0,2.18282 0.78582,10.47756 1.74626,18.42304 2.18283,18.24842 2.18283,23.92376 0.0873,28.37672 -2.35745,4.97685 -6.98504,9.69175 -11.52531,11.69995 -10.65219,4.88953 -20.69318,-0.43657 -27.59091,-14.66859 -2.27014,-4.54027 -2.44477,-5.58803 -2.44477,-16.24022 0,-10.65218 0.17463,-11.61262 2.35746,-15.80365 3.31789,-6.28653 5.93728,-7.07235 5.93728,-1.92088 0,8.55667 6.28654,7.68354 11.438,-1.57164 1.48432,-2.61939 3.14327,-4.7149 3.75446,-4.7149 2.61939,0 20.51856,-21.12975 23.57451,-27.85285 0.78582,-1.83357 1.04776,-1.92088 1.22238,-0.61119 0.17463,0.87313 -1.04775,3.75446 -2.7067,6.46116 z"
     sodipodi:nodetypes="ccccccsscccccccccccscccccccccsccsscscccccccscccccccscccccccccccccccccccsccccsccscccccccccsccccccscccscccccccccssccccsscccccccccscsccccccccccccscccccsccscccscccccccccccccccccccccccscsscccssccccccccccscccscccccccccccccscscccccccscsccscsscscccccccccccccsccccccscssssccccscccsccsssssccccccccccsccsccccccccccccccccscccccscccccscccccssccsccsccccccccccscccccccssccccccccccccccscccsccccsscscssccccssccccccccscccsccccccccscccccccccccssccccccccccccsccsccsccccsccccccccccccsssscccccccccccsscccsssscccccccccsccccsccsssccccscsccccscscscccc" />
  <path
     style="fill:#000000;stroke:none"
     inkscape:connector-curvature="0"
     id="path3028"
     d="m 181.52373,165.8113 c -4.62759,1.22238 -6.63579,3.84177 -8.46936,11.17606 -1.92089,7.68354 -3.66715,11.26338 -7.07236,14.7559 -4.01639,4.10371 -11.96188,5.67534 -15.62902,3.05595 -5.15147,-3.57983 -5.84998,-12.13651 -1.57164,-19.55811 2.7067,-4.7149 2.88133,-7.50892 0.52388,-8.7313 -4.0164,-2.18283 -11.26338,4.45296 -18.07379,16.58947 -2.35745,4.10371 -6.98504,11.52532 -15.36709,24.62227 -2.7067,4.27833 -4.80221,7.68354 -4.62759,7.68354 0.87313,0 9.86637,-13.09695 18.42304,-26.63047 9.42981,-15.10514 13.27158,-19.90736 16.85141,-20.95512 3.23058,-0.96044 3.3179,1.74626 0.26194,7.59624 -4.10371,8.03279 -3.4052,15.71634 1.74626,20.51855 1.74626,1.57163 3.05596,1.83357 7.50892,1.74626 4.45296,-0.17463 6.0246,-0.61119 9.16787,-2.79402 4.10371,-2.96864 8.29473,-10.21562 9.08055,-15.89096 1.22238,-8.55668 4.7149,-11.61263 13.35889,-11.61263 5.93728,0 7.15966,-1.22238 2.09551,-2.09551 -3.92909,-0.61119 -4.10371,-0.61119 -8.20742,0.52388 z" />
  <path
     style="fill:#000000;stroke:none"
     inkscape:connector-curvature="0"
     id="path3030"
     d="m 306.81788,184.93284 c -0.26194,0.52388 -1.48432,4.36565 -2.7067,8.55668 -2.61939,9.34249 -3.57983,23.31257 -2.09551,32.13118 2.79401,16.50216 13.97008,28.63866 23.66182,25.67002 1.92089,-0.52388 4.80222,-2.44476 6.46116,-4.10371 3.75446,-3.92908 7.33429,-13.4462 4.97684,-13.4462 -0.43656,0 -0.96044,1.48432 -1.30969,3.31789 -0.96045,6.54848 -7.94548,13.27158 -13.70814,13.27158 -3.40521,0 -9.16787,-4.10371 -12.13651,-8.64399 -4.97684,-7.85817 -6.37385,-12.57307 -6.81041,-24.01107 -0.43657,-11.52532 0.61119,-19.55811 3.75445,-28.28941 1.04776,-2.96865 1.65895,-5.41341 1.22239,-5.41341 -0.34926,0 -0.96045,0.43656 -1.3097,0.96044 z" />
  <path
     style="fill:#000000;stroke:none"
     inkscape:connector-curvature="0"
     id="path3032"
     d="m 278.61578,198.02979 c -2.88133,4.62759 -3.14327,9.69175 -1.30969,22.1775 2.44476,16.58947 2.09551,37.80653 -0.96045,58.93628 -3.31789,22.70138 -3.57983,26.1939 -1.83357,29.59911 2.44477,4.62759 6.89773,5.23878 12.13651,1.65894 1.30969,-0.96044 6.28653,-6.54847 11.00144,-12.31113 13.4462,-16.58947 14.84321,-17.89916 28.28941,-26.80509 6.89773,-4.45296 8.90592,-7.24698 2.61939,-3.40521 -13.18426,7.85817 -19.82005,13.79546 -30.9088,27.5036 -4.62759,5.76266 -9.69175,11.61263 -11.26338,12.83501 -5.76266,4.88953 -11.35069,2.44476 -11.35069,-5.06415 0,-2.0082 0.96044,-10.56488 2.18282,-18.85961 1.22239,-8.38205 2.61939,-22.26482 3.14327,-30.90881 0.87313,-13.70814 0.78582,-17.02603 -0.52388,-25.75733 -2.53207,-16.7641 -2.61939,-22.70138 -0.52387,-27.5036 2.18282,-4.97684 1.74626,-6.19922 -0.69851,-2.09551 z" />
  <path
     style="fill:#000000;stroke:none"
     inkscape:connector-curvature="0"
     id="path3048"
     d="m 114.2054,232.60574 c -0.87313,0.17463 -1.57163,0.78582 -1.57163,1.22238 0,0.96045 3.40521,0.17463 4.80222,-1.04775 0.78581,-0.78582 -0.52388,-0.87313 -3.23059,-0.17463 z" />
  <path
     style="fill:#000000;stroke:none"
     inkscape:connector-curvature="0"
     id="path3050"
     d="m 119.61881,232.69305 c 0,1.04776 4.45296,2.96865 5.15147,2.35745 0.61119,-0.6985 -2.44477,-3.05595 -4.0164,-3.05595 -0.61119,0 -1.13507,0.34925 -1.13507,0.6985 z" />
  <path
     style="fill:#000000;stroke:none"
     inkscape:connector-curvature="0"
     id="path3052"
     d="m 107.22036,235.57438 c -1.57163,0.87313 -2.18282,2.53208 -0.87313,2.53208 0.34926,0 1.57164,-0.78582 2.79402,-1.74626 2.35745,-1.83357 0.87313,-2.44476 -1.92089,-0.78582 z" />
  <path
     style="fill:#000000;stroke:none"
     inkscape:connector-curvature="0"
     id="path3054"
     d="m 126.77848,236.97139 c 2.09551,4.27834 2.79401,5.50072 3.49252,5.50072 1.30969,0 0.6985,-2.27014 -1.04776,-4.19102 -1.74626,-1.92089 -3.05595,-2.53208 -2.44476,-1.3097 z" />
  <path
     style="fill:#000000;stroke:none"
     inkscape:connector-curvature="0"
     id="path3056"
     d="m 100.84651,240.72585 c -0.873125,0.96044 -1.30969,2.0082 -1.047751,2.35745 0.698501,0.61119 4.103711,-2.18282 4.103711,-3.40521 0,-1.22238 -1.39701,-0.78581 -3.05596,1.04776 z" />
  <path
     style="fill:#000000;stroke:none"
     inkscape:connector-curvature="0"
     id="path3058"
     d="m 96.655491,246.05194 c -1.484321,0.87313 -2.095512,3.40521 -0.785817,3.40521 0.698504,0 3.055955,-3.49252 2.61939,-3.92909 -0.174626,-0.17462 -0.960443,0.0873 -1.833573,0.52388 z" />
  <path
     style="fill:#000000;stroke:none"
     inkscape:connector-curvature="0"
     id="path3060"
     d="m 130.9695,245.87732 c 0,1.57163 1.83357,5.58803 2.27014,5.06415 0.78581,-0.6985 -0.52388,-5.84997 -1.48432,-5.84997 -0.43657,0 -0.78582,0.34925 -0.78582,0.78582 z" />
  <path
     style="fill:#000000;stroke:none"
     inkscape:connector-curvature="0"
     id="path3062"
     d="m 93.075658,252.60042 c -0.785817,2.0082 -0.611191,4.54027 0.261939,5.06415 0.436565,0.26194 0.960443,-0.87313 1.135069,-2.61939 0.349252,-3.23058 -0.523878,-4.80221 -1.397008,-2.44476 z" />
  <path
     style="fill:#000000;stroke:none"
     inkscape:connector-curvature="0"
     id="path3070"
     d="m 133.58889,254.87056 c 0,1.57163 1.57163,2.96864 2.44476,2.09551 0.26194,-0.34925 -0.17462,-1.22238 -0.96044,-2.0082 -1.39701,-1.39701 -1.48432,-1.39701 -1.48432,-0.0873 z" />
  <path
     style="fill:#000000;stroke:none"
     inkscape:connector-curvature="0"
     id="path3072"
     d="m 95.17117,261.06978 c 0,1.57163 2.357451,4.62759 3.055955,4.0164 0.611191,-0.69851 -1.309695,-5.15147 -2.357451,-5.15147 -0.349252,0 -0.698504,0.52388 -0.698504,1.13507 z" />
  <path
     style="fill:#000000;stroke:none"
     inkscape:connector-curvature="0"
     id="path3074"
     d="m 99.274881,266.5705 c -0.611191,0.6985 1.222379,4.7149 2.095509,4.7149 0.34926,0 0.87313,-0.26194 1.04776,-0.6985 0.52388,-0.78582 -2.532078,-4.62759 -3.143269,-4.0164 z" />
  <path
     style="fill:#000000;stroke:none"
     inkscape:connector-curvature="0"
     id="path3090"
     d="m 419.71359,321.49037 c -7.4216,2.79402 -15.54171,7.77086 -19.90736,12.39845 -5.76266,6.0246 -4.88953,7.15967 1.13507,1.39701 5.15146,-4.80222 17.89916,-11.61263 21.74093,-11.61263 2.79402,0 4.27834,2.09551 2.61939,3.75446 -0.52388,0.52388 -0.96044,1.48432 -0.96044,2.0082 0,1.39701 4.80221,-0.0873 7.24698,-2.09551 1.83357,-1.65895 2.0082,-5.93729 0.0873,-6.63579 -2.27014,-0.87313 -8.46936,-0.43657 -11.96188,0.78581 z" />
</svg>
