<?xml version="1.0" encoding="UTF-8" standalone="no"?>
<!-- Created with Inkscape (http://www.inkscape.org/) -->

<svg
   xmlns:dc="http://purl.org/dc/elements/1.1/"
   xmlns:cc="http://creativecommons.org/ns#"
   xmlns:rdf="http://www.w3.org/1999/02/22-rdf-syntax-ns#"
   xmlns:svg="http://www.w3.org/2000/svg"
   xmlns="http://www.w3.org/2000/svg"
   version="1.1"
   width="1603.4204"
   height="2166.8533"
   id="svg2997">
  <metadata
     id="metadata3003">
    <rdf:RDF>
      <cc:Work
         rdf:about="">
        <dc:format>image/svg+xml</dc:format>
        <dc:type
           rdf:resource="http://purl.org/dc/dcmitype/StillImage" />
        <dc:title></dc:title>
      </cc:Work>
    </rdf:RDF>
  </metadata>
  <defs
     id="defs3001" />
  <path
     d="m 1261.7175,2164.4852 c 1.2994,-1.3831 5.5403,-4.0563 9.4243,-5.9404 19.1767,-9.3026 35.8898,-16.6079 43.5618,-19.0408 4.675,-1.4825 14.575,-5.0976 22,-8.0336 7.425,-2.936 19.4972,-6.9489 26.8271,-8.9176 11.0208,-2.96 16.2125,-5.0763 30,-12.2291 9.1701,-4.7573 20.2729,-10.7563 24.6729,-13.3312 4.4,-2.5749 12.275,-7.1822 17.5,-10.2386 5.225,-3.0563 12.65,-7.2589 16.5,-9.3391 11.2271,-6.066 17.4006,-10.6286 27.1447,-20.0619 7.1229,-6.8956 10.5898,-11.2848 15.6808,-19.8529 7.0976,-11.9449 8.536,-15.7571 6.755,-17.903 -0.877,-1.0568 -0.6822,-2.1585 0.8376,-4.737 1.0892,-1.848 2.6409,-5.835 3.4483,-8.86 0.8074,-3.025 2.2077,-7.525 3.1118,-10 3.004,-8.223 3.6407,-13.3067 4.7596,-38 1.8717,-41.3099 1.5319,-50.1722 -2.5311,-66 -3.5144,-13.6905 -12.7191,-35.6115 -20.1124,-47.8973 -1.8544,-3.0815 -4.8218,-8.5277 -6.5943,-12.1027 -1.7725,-3.575 -4.7096,-8.975 -6.527,-12 -8.6283,-14.3618 -13.7221,-31.3415 -14.8499,-49.5 -0.577,-9.291 1.9095,-40.4651 3.8685,-48.5 2.2772,-9.3402 7.7008,-22.038 14.7423,-34.5153 5.244,-9.2921 20.1422,-30.6077 23.3791,-33.4498 1.9255,-1.6906 7.8628,-5.2815 13.194,-7.9796 8.2667,-4.184 10.3505,-5.7629 14.1615,-10.7306 6.4886,-8.458 8.3479,-14.5846 6.9953,-23.0513 -2.0452,-12.8024 -7.9087,-25.1701 -18.1182,-38.216 -4.0401,-5.1624 -9.3984,-12.1248 -11.9074,-15.4718 -6.7511,-9.0061 -13.3166,-14.3096 -23.9382,-19.3365 -18.4193,-8.7174 -29.2052,-11.854 -45,-13.0861 -7.7167,-0.6019 -8.286,-0.785 -6.1777,-1.9869 1.6134,-0.9197 4.666,-1.1736 10,-0.8315 10.8533,0.696 20.941,2.2224 22.4185,3.3922 0.6926,0.5483 4.4092,2.0128 8.2592,3.2544 3.85,1.2416 8.575,3.0568 10.5,4.0338 1.925,0.9769 5.298,2.5695 7.4956,3.5391 4.7243,2.0843 14.2015,10.8733 19.3261,17.9227 2.0044,2.7572 6.352,8.306 9.6614,12.3304 10.0634,12.2383 16.4748,24.0399 19.5879,36.0561 3.9594,15.283 2.5115,23.3145 -6.2075,34.4313 -3.6487,4.6521 -6.0434,6.4248 -14.6182,10.8207 -11.5612,5.927 -13.4123,7.7755 -25.4104,25.3747 -10.1853,14.9402 -19.2102,32.2462 -22.1634,42.5 -3.0959,10.7491 -5.19,36.4535 -4.3491,53.3823 0.9624,19.3759 3.828,29.5156 12.892,45.6177 13.5235,24.0244 28.1748,53.9947 31.776,65 6.7905,20.7518 7.4583,30.7823 5.2926,79.5 -0.9146,20.5747 -1.4926,26.2391 -3.2652,32 -1.1846,3.85 -3.6508,12.6612 -5.4805,19.5804 -3.5241,13.3266 -4.4254,15.4778 -12.1174,28.9196 -3.7153,6.4926 -7.3065,10.8542 -15.2061,18.4684 -11.3915,10.9799 -15.3179,13.9131 -25.7138,19.2088 -3.85,1.9613 -11.05,5.9386 -16,8.8386 -4.95,2.9 -13.95,8.1624 -20,11.6941 -17.767,10.3718 -43.7145,22.6025 -53.82,25.3689 -5.049,1.3822 -14.805,4.5818 -21.68,7.1103 -6.875,2.5285 -19.25,6.9499 -27.5,9.8253 -8.25,2.8754 -20.4,7.8094 -27,10.9645 -6.6,3.1551 -14.25,6.6196 -17,7.6988 -2.75,1.0793 -6.9692,3.0559 -9.376,4.3923 -5.5203,3.0655 -6.0559,3.0509 -3.1101,-0.085 z m 146.0962,-184.8807 c -2.8323,-1.5698 -5.0253,-5.2017 -5.0747,-8.4042 -0.047,-3.086 2.4448,-7.7228 5.1814,-9.6396 3.8696,-2.7104 5.0911,-1.7147 1.8601,1.5162 -3.9521,3.9521 -4.1987,8.8922 -0.6224,12.4686 8.5626,8.5626 13.2328,-6.5417 7.2536,-23.4594 -3.3824,-9.5699 -4.7532,-10.4492 -6.7081,-4.3025 -1.2526,3.9385 -1.9496,4.7682 -4.2257,5.0305 -2.1784,0.251 -3.1315,-0.3515 -4.7463,-3 -1.1113,-1.8228 -1.9968,-4.2141 -1.9678,-5.3141 0.1067,-4.0489 2.4641,-8.8026 4.7856,-9.6501 1.9375,-0.7073 2.8784,-0.29 5.4057,2.3969 l 3.0599,3.2532 -0.6565,-5.6824 c -0.6006,-5.1991 -0.4769,-5.7393 1.4558,-6.3527 3.8073,-1.2084 5.3743,1.7212 5.5202,10.3206 0.072,4.243 0.8335,9.6101 1.6923,11.9269 4.2907,11.5746 3.9575,22.5347 -0.8425,27.7139 -2.6857,2.8979 -7.3887,3.3852 -11.3706,1.1782 z m -2.2317,-39.1396 c -1.1951,-2.8682 -1.2486,-2.8882 -1.6398,-0.6132 -0.2224,1.2935 -0.091,3.5435 0.2918,5 0.6612,2.5153 0.7436,2.5461 1.6398,0.6132 0.6315,-1.362 0.535,-3.0159 -0.2918,-5 z m -29.893,26.7537 c -0.01,-0.9452 -0.7342,-3.7436 -1.6138,-6.2186 -0.8797,-2.475 -1.787,-6.075 -2.0164,-8 -0.2294,-1.925 -1.2903,-7.325 -2.3575,-12 -1.0671,-4.675 -2.4174,-11.5719 -3.0004,-15.3265 -0.5831,-3.7545 -1.71,-9.6045 -2.5044,-13 -4.1048,-17.5453 -6.6754,-28.87 -7.9841,-35.1735 -0.7994,-3.85 -1.6878,-8.125 -1.9742,-9.5 -0.2865,-1.375 -0.958,-4.75 -1.4922,-7.5 -0.5343,-2.75 -1.1673,-5.9 -1.4068,-7 -0.8965,-4.1173 -7.931,-38.2497 -9.1713,-44.5 -1.2664,-6.3817 -2.7937,-13.5532 -7.9865,-37.5 -2.3042,-10.6263 -4.3449,-20.451 -11.4476,-55.1156 -1.0273,-5.0136 -2.08,-10.4136 -2.3395,-12 -1.1781,-7.2039 -2.012,-10.9978 -2.7222,-12.3844 -0.7396,-1.4442 -1.561,-5.6288 -2.5479,-12.9795 -0.2569,-1.9137 -0.8854,-5.0637 -1.3967,-7 -0.5112,-1.9363 -1.1268,-4.6455 -1.368,-6.0205 -0.2411,-1.375 -0.9238,-4.3 -1.517,-6.5 -0.5933,-2.2 -2.4521,-10.975 -4.1308,-19.5 -1.6786,-8.525 -3.7058,-18.2 -4.5048,-21.5 -0.799,-3.3 -1.7094,-7.8 -2.0231,-10 -0.3138,-2.2 -1.4045,-7.6 -2.4238,-12 -1.0192,-4.4 -2.1256,-9.575 -2.4586,-11.5 -0.333,-1.925 -0.7946,-4.4 -1.0257,-5.5 -0.2311,-1.1 -1.1609,-5.825 -2.0662,-10.5 -1.4606,-7.5425 -6.1441,-28.3932 -8.5357,-38 -1.5555,-6.2482 -6.1594,-29.4063 -6.5387,-32.8907 -0.2031,-1.8648 -0.8049,-4.7898 -1.3375,-6.5 -0.5325,-1.7101 -1.2452,-5.328 -1.5837,-8.0398 -0.3385,-2.7119 -0.9166,-5.4119 -1.2847,-6 -0.7727,-1.2346 -0.6384,-0.6742 -2.6531,-11.0695 -1.3397,-6.9124 -3.8909,-18.6928 -5.0892,-23.5 -1.969,-7.8989 -6.7021,-29.2451 -7.0954,-32 -0.2748,-1.925 -0.7416,-4.175 -1.0373,-5 -0.5269,-1.47 -4.7851,-20.6041 -6.3425,-28.5 -0.434,-2.2 -1.3183,-6.475 -1.9652,-9.5 -0.6468,-3.025 -1.3868,-6.625 -1.6444,-8 -0.2576,-1.375 -1.0974,-4.525 -1.8664,-7 -0.7689,-2.475 -1.3946,-5.625 -1.3904,-7 0,-1.375 -1.1797,-7.675 -2.6309,-14 -1.4511,-6.325 -2.8214,-12.8018 -3.0452,-14.3929 -0.2237,-1.591 -1.1167,-5.3351 -1.9845,-8.3201 -0.8678,-2.985 -2.4285,-10.0082 -3.4682,-15.6071 -1.0398,-5.599 -2.8119,-14.2299 -3.9381,-19.1799 -2.8386,-12.4765 -3.9603,-17.5868 -4.4996,-20.5 -1.1117,-6.0049 -7.5747,-35.9108 -8.6445,-40 -0.6475,-2.475 -1.9738,-8.55 -2.9474,-13.5 -0.9735,-4.95 -2.9145,-14.175 -4.3133,-20.5 -4.5663,-20.6477 -8.2759,-38.021 -9.6087,-45 -2.46,-12.8814 -3.3627,-17.1415 -5.0856,-24 -1.8328,-7.2961 -7.5891,-34.4735 -8.578,-40.5 -0.2708,-1.65 -0.739,-3.675 -1.0405,-4.5 -0.3014,-0.825 -1.4315,-6 -2.5112,-11.5 -1.0797,-5.5 -2.3436,-11.8 -2.8087,-14 -3.6039,-17.0483 -5.2888,-25.4965 -5.6838,-28.5 -0.2532,-1.925 -0.8571,-4.625 -1.3421,-6 -0.7999,-2.2678 -2.9913,-12.0336 -9.0594,-40.3723 -1.1627,-5.4297 -2.2791,-10.6047 -2.4809,-11.5 -0.2018,-0.8952 -2.185,-10.6277 -4.4071,-21.6277 -2.2221,-11 -5.4096,-26.3 -7.0833,-34 -5.7579,-26.48871 -6.2278,-29.01102 -6.1099,-32.79356 0.065,-2.08646 -0.5188,-4.78646 -1.2973,-6 -0.7786,-1.21354 -2.1877,-6.14394 -3.1314,-10.95644 -1.1376,-5.80149 -2.1681,-8.75 -3.0579,-8.75 -0.7382,0 -4.1642,0.88622 -7.6132,1.96937 -3.4491,1.08316 -13.5822,4.01493 -22.5182,6.51506 -27.1281,7.59 -75.4556,22.24201 -80.5028,24.407 -2.6125,1.12062 -4.75,1.77673 -4.75,1.45802 0,-0.31871 -1.1092,0.14728 -2.4648,1.03554 -1.3557,0.88826 -3.8888,1.61501 -5.6292,1.61501 -1.7404,0 -11.0938,2.29781 -20.78524,5.10624 -9.69143,2.80843 -18.52079,5.34607 -19.62079,5.6392 -1.1,0.29313 -8.075,2.28002 -15.5,4.41532 -7.425,2.1353 -40.05,11.48229 -72.5,20.77109 -32.45,9.28875 -73.175,21.03065 -90.5,26.09305 -17.325,5.0624 -33.075,9.6417 -35,10.1762 -1.925,0.5345 -15.2,4.4846 -29.5,8.778 -14.3,4.2934 -32.525,9.6952 -40.5,12.0041 -7.975,2.3088 -19.45,5.6964 -25.5,7.5278 -6.05,1.8315 -17.3,5.1291 -25,7.3281 -7.7,2.199 -20.975,6.0223 -29.5,8.4962 -8.525,2.4739 -33.275,9.5131 -55,15.6427 -21.725,6.1296 -47.375,13.4122 -57,16.1836 -9.625,2.7714 -21.55,6.178 -26.5,7.5702 -9.9982,2.8121 -60.93048,17.6564 -86.5,25.2106 -33.45768,9.8846 -114.51019,32.9875 -161.5,46.0332 -54.2402,15.0587 -112.51187,31.8072 -113.35985,32.582 -0.19791,0.1808 1.76724,1.8168 4.36701,3.6356 2.59977,1.8187 5.41737,3.8006 6.26134,4.4042 0.9091,0.6501 1.13055,1.347 0.54336,1.7099 -1.35001,0.8343 -8.11483,-2.8439 -11.95572,-6.5007 l -3.14386,-2.9932 -3.85614,3.4503 c -3.226254,2.8868 -4.836211,3.5396 -9.856138,3.9969 -4.996107,0.4552 -8.967877,1.7664 -16.854939,5.5643 -0.470216,0.2265 -0.538292,-0.5859 -0.151279,-1.8053 0.583903,-1.8397 0.389025,-2.1203 -1.145062,-1.6484 -2.086941,0.6419 -19.953835,5.8298 -50.703157,14.7223 -11.4699414,3.317 -21.06259196,5.8228 -21.31700257,5.5684 -0.2544106,-0.2544 1.03008617,-0.9347 2.85443727,-1.5118 4.7875435,-1.5145 53.6056053,-16.1423 71.8170023,-21.5192 9.781029,-2.8879 15.868966,-5.1998 16.5,-6.2659 1.488501,-2.5148 4.372452,-5.365 5.428571,-5.365 0.510715,0 1.603572,0.675 2.428572,1.5 1.714745,1.7147 4.087915,1.8885 8.243635,0.6036 1.59457,-0.4931 5.37422,-1.5997 8.39922,-2.4593 3.025,-0.8596 13.825,-3.998 24,-6.9742 10.175,-2.9763 25.025,-7.2479 33,-9.4925 7.975,-2.2445 25.75,-7.2876 39.5,-11.2067 13.75,-3.9192 28.825,-8.1721 33.5,-9.4509 11.3467,-3.1039 63.43355,-17.9836 73.5,-20.9968 4.4,-1.3171 19.025,-5.6111 32.5,-9.5423 38.04316,-11.0986 85.66736,-25.1131 111,-32.6642 4.675,-1.3935 21.775,-6.3104 38,-10.9264 16.225,-4.616 31.75,-9.0418 34.5,-9.8351 2.75,-0.7933 18.725,-5.3093 35.5,-10.0356 16.775,-4.7262 35.675,-10.1559 42,-12.0658 6.325,-1.9099 24.775,-7.3402 41,-12.0674 39.72196,-11.573 53.7615,-15.707 71.5,-21.0534 27.34584,-8.2421 37.82262,-11.3595 56.5,-16.812 10.175,-2.9703 22.55,-6.5855 27.5,-8.0337 19.96978,-5.8426 75.32079,-21.76038 80,-23.00629 17.9338,-4.77516 64.70098,-18.18491 68,-19.49792 1.1,-0.4378 6.05,-1.90385 11,-3.25788 32.36763,-8.8539 39.56793,-11.38562 43.61213,-15.33465 3.4403,-3.35941 4.1816,-3.68825 5.8978,-2.61644 2.9043,1.81373 6.9,1.50594 15.1263,-1.16514 4.0501,-1.31506 12.3138,-3.75677 18.3638,-5.42601 6.05,-1.66924 17.3,-4.88297 25,-7.14161 7.7,-2.25865 19.4,-5.64646 26,-7.52847 32.3461,-9.22359 31.9854,-9.0984 32.3008,-11.21113 0.2669,-1.78872 -6.4253,-36.30129 -11.7899,-60.80176 -3.2734,-14.94992 -10.6822,-50.29039 -12.9977,-62 -1.1964,-6.05 -2.808,-13.925 -3.5814,-17.5 -0.7735,-3.575 -3.4685,-16.625 -5.9889,-29 -2.5205,-12.375 -5.9204,-28.8 -7.5554,-36.5 -1.635,-7.7 -3.4648,-16.475 -4.0662,-19.5 -0.6014,-3.025 -1.6559,-6.10767 -2.3435,-6.85038 -0.6875,-0.74272 -4.1138,-1.92822 -7.6139,-2.63447 -3.5001,-0.70624 -10.1889,-2.95506 -14.8639,-4.99738 -4.675,-2.04232 -12.1,-5.22365 -16.5,-7.06962 -4.4,-1.84596 -11.1242,-4.95197 -14.9427,-6.90222 -3.8184,-1.95026 -7.4184,-3.54702 -8,-3.54836 -1.6232,-0.004 -18.5702,-8.69924 -20.686,-10.61402 -2.0972,-1.89794 -2.4448,-6.39875 -0.7491,-9.69929 1.4263,-2.77625 5.9781,-7.68426 7.1266,-7.68426 2.1031,0 16.6404,-7.73989 20.5874,-10.96115 2.385,-1.94637 5.2482,-5.33885 6.3629,-7.53885 1.1146,-2.2 2.8848,-4.93854 3.9337,-6.08564 2.0509,-2.24298 6.4262,-12.09823 13.4832,-30.37094 2.4336,-6.30112 5.1206,-12.51873 5.9712,-13.81692 1.185,-1.80842 1.277,-2.6852 0.3936,-3.74962 -0.6341,-0.7641 -0.8679,-1.85053 -0.5195,-2.41429 1.2447,-2.01396 -2.8178,-18.77249 -15.39,-63.48602 -3.3858,-12.0421 -3.4559,-12.39384 -2.1957,-11.02657 0.4816,0.5225 2.3817,5.45 4.2226,10.95 2.2065,6.59248 3.4678,9.21367 3.7015,7.69237 0.195,-1.2692 0.862,-2.13847 1.4823,-1.93171 1.1458,0.38195 1.7871,2.6402 5.6762,19.98889 1.9424,8.66498 2.3524,9.58274 3.6851,8.25 2.2739,-2.27393 3.0397,-1.94351 9.2714,4.00045 3.1713,3.025 6.3534,5.5 7.0711,5.5 1.6842,0 0.8294,-18.16338 -1.0472,-22.25423 -1.4631,-3.18945 -0.5943,-4.64408 1.8594,-3.11283 4.0294,2.51465 6.8625,21.18383 3.9007,25.70411 -2.108,3.2173 -5.9706,4.09084 -9.6577,2.18417 -3.9243,-2.02937 -4.041,-1.98668 -4.041,1.47878 0,2.53333 -0.3889,3 -2.5,3 -1.9775,0 -2.5,0.50545 -2.5,2.41821 0,3.71949 1.0303,5.58179 3.0879,5.58179 1.9229,0 3.6431,4.00813 2.5083,5.84435 -0.3256,0.5269 1.2886,4.03998 3.5872,7.80683 2.2986,3.76685 8.3783,15.17382 13.5104,25.34882 12.7407,25.25994 13.0655,25.77598 33.9712,53.97046 7.5603,10.19614 41.5461,46.52749 52.653,56.28677 4.5945,4.03707 9.9899,7.37255 18.058,11.16352 12.8877,6.05559 26.8466,12.0413 30.624,13.13191 1.375,0.39699 7.45,3.12545 13.5,6.06324 12.2775,5.96176 20.9224,12.74971 40.7136,31.96831 11.58,11.245 13.2854,13.92681 10.3863,16.33289 -2.9192,2.42273 -17.325,-2.88752 -36.7222,-13.53651 C 1243.189,679.87127 1237.5574,677 1237.0665,677 c -0.4909,0 -2.6859,-0.9668 -4.8777,-2.14844 -2.1919,-1.18164 -6.9319,-3.36868 -10.5334,-4.86008 -3.6015,-1.4914 -8.5515,-3.98864 -11,-5.54943 -2.4485,-1.56078 -6.7018,-3.96008 -9.4518,-5.33178 -2.75,-1.37169 -7.9463,-4.37127 -11.5474,-6.66573 -3.6011,-2.29445 -8.7597,-5.15031 -11.4635,-6.34633 -2.7038,-1.19603 -5.6075,-2.79351 -6.4526,-3.54997 -0.8451,-0.75645 -4.6865,-3.03129 -8.5365,-5.0552 -3.85,-2.02391 -9.475,-4.98211 -12.5,-6.57377 -3.025,-1.59167 -6.3674,-2.89964 -7.4276,-2.9066 -2.46,-0.0162 -18.9366,-8.3623 -23.5568,-11.93263 -3.5414,-2.73658 -14.448,-9.08004 -15.6117,-9.08004 -0.8818,0 0.241,5.44126 3.5684,17.29395 1.5758,5.61333 5.35,19.20605 8.3871,30.20605 23.0014,83.30781 42.0722,151.31578 45.9887,164 l 2.1614,7 3.9953,-0.0757 c 3.5011,-0.0663 8.892,-1.41104 27.4952,-6.85839 2.475,-0.72473 9.9,-2.73575 16.5,-4.46894 6.6,-1.7332 12.9,-3.54092 14,-4.01716 2.2442,-0.97164 15.1568,-4.51426 20.4672,-5.61527 1.9069,-0.39537 4.1569,-1.05639 5,-1.46894 2.1894,-1.07138 7.2807,-2.56945 17.0328,-5.01175 4.675,-1.1708 11.65,-3.16009 15.5,-4.42064 3.85,-1.26056 10.15,-3.06628 14,-4.01272 3.85,-0.94644 7.675,-2.04114 8.5,-2.43266 2.4346,-1.15539 21.5351,-6.63338 30.5,-8.74735 1.65,-0.38908 3.225,-0.77899 3.5,-0.86648 0.275,-0.0875 2.3,-0.49571 4.5,-0.90718 2.2,-0.41146 5.125,-1.14004 6.5,-1.61906 3.5915,-1.2512 10.3641,-1.93867 9.3541,-0.94951 -0.4697,0.46007 -8.7291,3.1403 -18.3541,5.95607 -9.625,2.81578 -18.85,5.54126 -20.5,6.05663 -6.7668,2.11359 -45.9304,13.38274 -74.5,21.43704 -16.775,4.72918 -35,9.91976 -40.5,11.53462 -5.5,1.61486 -14.725,4.27789 -20.5,5.91785 -18.4423,5.23716 -19.4791,5.64132 -19.792,7.71466 -0.1607,1.06433 1.9566,10.01709 4.705,19.89501 7.8363,28.16426 18.3223,65.28137 24.0021,84.95987 2.8574,9.9 7.0052,24.3 9.2172,32 2.2121,7.7 5.5368,18.95 7.3884,25 1.8515,6.05 7.9089,26.975 13.4607,46.5 5.5519,19.525 11.404,39.775 13.0048,45 1.6008,5.225 8.0927,27.5 14.4265,49.5 6.3338,22 13.8107,47.875 16.6154,57.5 2.8046,9.625 6.6061,22.9 8.4477,29.5 6.5657,23.5298 7.6371,26.828 9.4724,29.1612 1.0221,1.2994 1.6335,3.2224 1.3587,4.2733 -0.442,1.6901 12.7919,50.586 23.8352,88.0655 2.1878,7.425 4.6055,15.75 5.3728,18.5 0.7672,2.75 4.5855,16.475 8.4852,30.5 3.8996,14.025 7.9335,28.2 8.9643,31.5 1.0307,3.3 3.9697,13.65 6.531,23 5.705,20.826 9.2019,33.35 18.8468,67.5 9.9152,35.1069 20.5498,74.5749 22.7686,84.5 1.8905,8.457 2.4611,16.5505 1.054,14.95 -1.2347,-1.4043 -8.8281,-26.3845 -14.1681,-46.6094 -3.9291,-14.8807 -5.5327,-20.6645 -13.8184,-49.8406 -3.8268,-13.475 -9.531,-33.725 -12.6761,-45 -3.145,-11.275 -9.962,-35.575 -15.149,-54 -5.187,-18.425 -10.3754,-36.875 -11.5298,-41 -1.1544,-4.125 -3.799,-13.35 -5.8768,-20.5 -2.0778,-7.15 -5.8943,-20.65 -8.4811,-30 -5.0529,-18.2638 -15.6768,-55.7118 -18.205,-64.1706 -1.0043,-3.36 -2.1941,-5.3403 -3.3979,-5.6551 -2.5678,-0.6715 -3.5702,-3.6988 -1.5914,-4.8062 1.9638,-1.099 1.0093,-4.8857 -14.461,-57.3681 -3.2751,-11.1109 -30.4121,-105.2601 -35.741,-124 -2.6587,-9.35 -10.5544,-36.8 -17.5459,-61 -13.8256,-47.855 -15.434,-53.5111 -30.4276,-107 -19.1318,-68.25231 -19.8268,-70.5 -21.7984,-70.5 -2.6858,0 -15.7257,4.10782 -17.0419,5.36853 -0.9911,0.94931 -0.8409,3.31088 0.7377,11.59515 1.0902,5.72168 2.3732,10.65804 2.851,10.96969 0.4778,0.31165 1.1014,3.49163 1.3857,7.06663 0.2844,3.575 2.1308,13.925 4.1031,23 4.1676,19.17591 11.5787,54.2743 25.6549,121.5 5.5278,26.4 11.1917,53.175 12.5864,59.5 3.6106,16.374 4.9022,22.3788 8.819,41 7.7135,36.6719 30.855,144.7527 31.7605,148.3354 l 0.9694,3.8353 5.1884,-0.5516 5.1885,-0.5516 -4.4953,1.2629 c -2.7505,0.7728 -4.6215,1.9186 -4.8206,2.9521 -0.1789,0.9289 1.3161,9.0079 3.3223,17.9533 5.2268,23.306 7.2127,32.4397 10.4942,48.2642 1.5967,7.7 4.9711,23.45 7.4987,35 2.5276,11.55 9.9926,46.2 16.5889,77 6.5964,30.8 13.7526,63.875 15.9027,73.5 2.1501,9.625 7.1112,33.025 11.0246,52 3.9135,18.975 10.8896,52.275 15.5026,74 4.6129,21.725 9.8173,46.475 11.5654,55 1.748,8.525 7.6481,36.65 13.1114,62.5 5.4632,25.85 12.5778,59.825 15.8102,75.5 3.2323,15.675 7.7372,37.275 10.0107,48 5.2765,24.891 11.5851,56.1911 12.4962,62 0.3881,2.475 1.2769,5.175 1.9751,6 1.8184,2.1489 2.4335,7.8165 0.9117,8.4005 -0.684,0.2624 -1.0172,1.3426 -0.7406,2.4004 0.309,1.1816 -0.1066,2.1572 -1.0776,2.5298 -1.0607,0.407 -1.5854,0.041 -1.5952,-1.1121 z M 1151.138,831.01875 c 3.8105,-1.08969 7.3284,-2.38152 7.8176,-2.87073 1.0812,-1.08121 -1.3782,-10.98147 -12.5817,-50.64802 -4.6603,-16.5 -11.0377,-39.225 -14.172,-50.5 -3.1343,-11.275 -8.52,-30.625 -11.9684,-43 -3.4483,-12.375 -8.79,-31.725 -11.8705,-43 -9.1123,-33.35187 -10.0887,-36.26613 -12.5137,-37.34818 -1.1907,-0.5313 -2.4095,-0.72132 -2.7086,-0.42226 -0.299,0.29905 1.5203,10.60724 4.043,22.90709 2.5226,12.29984 6.3799,31.13835 8.5716,41.86335 2.1917,10.725 4.2434,20.32329 4.5593,21.32953 0.3158,1.00625 1.3813,6.18125 2.3678,11.5 2.0338,10.96588 7.7649,39.03258 11.4699,56.17047 1.3673,6.325 5.2563,25 8.6421,41.5 3.3859,16.5 6.5394,31.0125 7.0079,32.25 1.0438,2.75724 2.5122,2.79206 11.3357,0.26875 z m 117.6899,-148.7563 c -4.2154,-4.99922 -11.4081,-11.51522 -21.0872,-19.10338 -5.7711,-4.52437 -21.9908,-13.17724 -28.0385,-14.95789 -4.9815,-1.46675 -17.4777,-6.943 -32.0906,-14.06315 -12.3284,-6.00707 -12.8843,-6.42321 -26.5661,-19.88675 -24.96,-24.56199 -42.3844,-44.44759 -52.8105,-60.2699 -2.7114,-4.11476 -6.8652,-9.88513 -9.2306,-12.82305 -2.3654,-2.93792 -4.3008,-5.70141 -4.3008,-6.14109 0,-0.43969 -2.475,-4.98783 -5.5,-10.10698 -3.025,-5.11916 -5.5,-9.81004 -5.5,-10.42419 0,-1.47507 -8.8667,-18.58682 -10.5705,-20.39988 -1.0861,-1.15581 -1.0751,-0.33461 0.06,4.5 2.089,8.89594 17.9157,66.74942 23.0926,84.41381 l 4.5426,15.5 8.1875,4.41926 c 4.5032,2.43059 10.4376,6.07349 13.1876,8.09532 6.1113,4.49309 18.0213,10.52094 23.758,12.0243 2.3331,0.61141 7.167,2.82082 10.742,4.9098 13.2247,7.72761 15.6164,9.06313 20.8989,11.66998 2.9694,1.46536 8.8194,4.77281 13,7.34989 10.9377,6.74237 35.3528,19.05467 48.438,24.42677 2.1102,0.86637 7.9602,3.90662 13,6.7561 8.6608,4.89687 19.7367,9.89234 20.5216,9.25566 0.1972,-0.15995 -1.4832,-2.47504 -3.7342,-5.14463 z M 1095.1601,593.75 c -2.379,-9.20323 -14.3163,-50.02959 -14.3784,-49.17489 -0.2361,3.25081 9.0165,48.15092 10.3758,50.35028 0.3653,0.59103 1.5461,1.07461 2.6242,1.07461 1.5383,0 1.8349,-0.48414 1.3784,-2.25 z m -10.4565,-1.08855 c 0,-1.2862 -2.4436,-14.2237 -5.4301,-28.75 -11.7118,-56.9646 -15.8116,-76.42823 -16.1829,-76.82812 -0.7074,-0.76163 -1.4141,0.56777 -5.3318,10.02867 -8.8738,21.42971 -12.0143,27.78237 -17.49,35.37877 -5.6792,7.8789 -14.197,15.47955 -17.4156,15.54044 -0.9073,0.0172 -3.4496,1.13986 -5.6496,2.49488 -2.2,1.35501 -4.646,2.46597 -5.4355,2.46879 -2.2587,0.008 -6.0645,4.12767 -6.0645,6.56456 0,1.83241 2.0967,3.24353 12.25,8.24442 19.3498,9.53054 56.374,25.65904 60.75,26.46394 5.3224,0.97897 6,0.79755 6,-1.60635 z m 307.4522,1360.24615 c -4.9551,-9.5822 -10.0999,-32.415 -8.4383,-37.4498 1.4081,-4.2665 5.3621,-6.0967 8.595,-3.9784 5.755,3.7708 7.647,11.2233 4.9278,19.41 -0.9334,2.8103 -2.5586,5.713 -3.6116,6.4505 -1.8732,1.3121 -1.8607,1.499 0.5802,8.6757 1.3721,4.0341 2.4947,7.9309 2.4947,8.6596 0,2.4795 -2.943,1.3357 -4.5478,-1.7676 z m 2.6323,-25.3944 c 0.9025,-4.033 0.8917,-6.0552 -0.048,-8.9013 -1.3009,-3.9419 -5.1935,-7.2512 -7.1251,-6.0574 -1.7597,1.0876 -0.5806,16.2515 1.59,20.4491 1.6274,3.1469 1.8375,3.2528 3.0807,1.5528 0.7337,-1.0035 1.8596,-4.173 2.502,-7.0432 z m 53.9103,-515.8183 c -0.2721,-0.2538 -2.9698,-0.7514 -5.9948,-1.1058 -3.025,-0.3544 -10,-1.3653 -15.5,-2.2464 -5.5,-0.8811 -11.3125,-1.6562 -12.9167,-1.7224 -3.88,-0.16 -4.7312,-2.6203 -0.9066,-2.6203 1.5639,0 10.7139,1.119 20.3333,2.4866 9.6195,1.3676 20.5961,2.4926 24.3925,2.5 7.4108,0.014 28.1601,-4.5842 36.1634,-8.0148 7.8731,-3.3748 18.2232,-10.0075 20.7562,-13.3013 1.341,-1.7438 3.5952,-4.4075 5.0092,-5.9193 1.414,-1.5118 4.0155,-4.8868 5.781,-7.5 1.7656,-2.6132 5.1001,-7.0012 7.4101,-9.7512 5.6344,-6.7076 9.8342,-15.3556 12.0419,-24.796 3.8179,-16.3261 -1.5054,-32.6592 -17.494,-53.6756 -7.7752,-10.2203 -16.915,-18.0473 -30.4271,-26.0567 -7.2354,-4.2889 -16.5716,-14.8661 -21.0284,-23.8235 -5.6932,-11.4424 -9.095,-31.4851 -8.9358,-52.6482 0.1112,-14.7848 1.8043,-20.1446 10.2658,-32.4988 7.4142,-10.825 14.8325,-18.1744 27.0386,-26.7873 9.0929,-6.4162 16.181,-12.3168 26.0166,-21.6576 2.475,-2.3505 5.851,-4.9661 7.5021,-5.8125 3.735,-1.9144 16.5838,-15.8644 24.795,-26.9198 6.8385,-9.2072 6.3657,-8.5983 14.0925,-18.1467 6.2247,-7.6921 10.2529,-17.1476 13.069,-30.6773 0.973,-4.675 2.8218,-11.875 4.1084,-16 5.9756,-19.1584 6.1263,-37.3944 0.4422,-53.5 -1.1647,-3.3 -2.7267,-8.1348 -3.4713,-10.7441 -1.3366,-4.684 -1.8976,-5.9999 -8.8491,-20.7559 -3.8574,-8.18833 -16.4785,-25.58028 -24.3105,-33.5 -9.8,-9.90991 -45.0925,-44.32345 -54.8783,-53.51162 -28.9403,-27.173 -58.4659,-55.84524 -88.5,-85.94231 -18.425,-18.46362 -37.325,-36.74051 -42,-40.61532 -12.1129,-10.03959 -38.0122,-30.21742 -44.8356,-34.93075 -3.1848,-2.2 -8.6872,-6.50906 -12.2275,-9.57569 -3.5403,-3.06663 -10.4755,-8.46663 -15.4115,-12 -12.8079,-9.16835 -33.3306,-30.66953 -51.5069,-53.96274 -1.9148,-2.45386 -6.1898,-6.93271 -9.5,-9.95299 -19.2566,-17.57012 -32.0804,-31.09738 -38.876,-41.00858 -8.3277,-12.1459 -12.2103,-19.77924 -19.7559,-38.84104 -4.2198,-10.66018 -9.123,-29.61862 -11.3617,-43.93073 -2.8303,-18.09421 -6.4488,-35.29236 -9.8496,-46.81399 -1.9342,-6.55283 -4.0557,-14.83924 -4.7143,-18.41424 -0.6587,-3.575 -1.9994,-9.425 -2.9794,-13 -0.98,-3.575 -2.5361,-10.775 -3.458,-16 -2.0094,-11.38776 -7.1133,-33.43319 -10.9972,-47.5 -2.236,-8.09822 -4.0703,-14.91784 -7.5443,-28.0485 -1.6077,-6.07668 -4.0023,-14.40168 -5.3213,-18.5 -1.3189,-4.09833 -3.1999,-10.3765 -4.18,-13.9515 -0.9801,-3.575 -2.7752,-9.875 -3.9892,-14 -1.214,-4.125 -2.7324,-9.75 -3.3742,-12.5 -0.6418,-2.75 -1.7859,-7.25 -2.5424,-10 -0.7564,-2.75 -1.9229,-7.475 -2.5922,-10.5 -3.588,-16.21794 -15.2575,-53.41755 -20.9387,-66.74778 -1.6989,-3.98627 -4.6294,-12.60011 -6.5123,-19.14185 -6.2423,-21.68723 -8.1785,-25.7792 -25.2308,-53.32186 -2.8594,-4.61853 -7.6133,-13.7762 -10.5641,-20.35038 -5.7644,-12.8425 -9.6439,-19.36018 -17.3489,-29.14631 -2.6884,-3.414506 -7.138,-9.427044 -9.888,-13.361198 -2.75,-3.934155 -5.6174,-8.002972 -6.372,-9.041816 C 1009.6084,0.204825 1009.6824,0 1011.5135,0 c 1.4437,0 3.8926,2.599305 8.2435,8.75 3.4043,4.8125 7.038,9.875 8.0749,11.25 9.2974,12.329 13.2291,18.7885 20.4161,33.5426 4.5661,9.37342 10.5216,20.39842 13.2346,24.5 12.3414,18.65809 14.8757,24.30556 23.2755,51.86722 1.7449,5.7254 4.4388,13.23212 5.9865,16.6816 5.1565,11.49273 16.7291,48.50563 21.858,69.90858 3.4827,14.53333 11.7891,44.44194 17.0801,61.5 2.1325,6.875 5.0068,16.775 6.3875,22 1.3806,5.225 4.7212,17.825 7.4234,28 4.7088,17.73042 5.6897,22.00826 10.2035,44.5 4.2565,21.20962 7.8158,35.69451 11.9178,48.5 1.1452,3.575 3.904,17.07386 6.1307,29.99747 4.7339,27.47486 7.5693,39.21979 13.1377,54.42032 10.6677,29.12002 21.6044,44.54672 50.5979,71.37057 6.2027,5.73851 16.0801,16.34621 21.9499,23.57265 16.7512,20.62281 32.4318,36.65937 44.7725,45.7889 12.5176,9.26036 17.5031,13.12434 20.8762,16.17988 1.7181,1.55638 5.1488,4.22243 7.6238,5.92456 2.475,1.70213 7.875,5.85638 12,9.23167 4.125,3.37528 10.425,8.34018 14,11.03311 20.6814,15.57859 37.0765,30.67392 63.5163,58.48087 5.491,5.775 15.3837,15.64757 21.9837,21.93905 6.6,6.29147 21.2291,20.46647 32.5092,31.5 11.2801,11.03352 25.2144,24.33595 30.9652,29.56095 19.1238,17.37535 63.5844,62.38726 69.4451,70.3062 9.1981,12.42828 19.3162,31.9775 21.5797,41.6938 0.4484,1.925 1.9666,7.5359 3.3736,12.4686 3.5655,12.4995 4.2205,22.7278 2.2479,35.1026 -0.883,5.5392 -2.4856,12.6295 -3.5614,15.7563 -1.0757,3.1268 -2.9203,10.2947 -4.0989,15.9288 -2.7779,13.2785 -6.8451,22.9516 -12.7486,30.3197 -2.6105,3.2582 -8.5603,10.874 -13.2219,16.924 -11.3795,14.7689 -24.4891,29.1903 -28.3439,31.1803 -1.7303,0.8932 -8.2166,6.2571 -14.414,11.9199 -6.1974,5.6627 -15.0964,12.8698 -19.7756,16.0156 -10.357,6.9631 -19.6984,16.3682 -26.2247,26.4034 -8.4434,12.9832 -9.9057,19.86 -8.2889,38.9808 1.9211,22.7182 4.4822,33.3518 10.7219,44.5158 3.9959,7.1494 13.8565,17.1186 20.7393,20.9677 16.4956,9.2248 28.4056,21.4476 38.9678,39.9913 5.9827,10.5037 7.1981,13.9464 8.7761,24.8606 1.0943,7.5687 1.0293,9.4856 -0.5551,16.3686 -2.1101,9.1664 -8.1737,21.1586 -13.549,26.796 -2.0976,2.2 -5.0573,6.025 -6.577,8.5 -1.5198,2.475 -5.8118,7.8961 -9.5379,12.0469 -13.5844,15.1329 -34.3905,23.6974 -59.9341,24.6709 -6.3278,0.2412 -11.7278,0.2309 -12,-0.023 z M 1176.2629,1287.75 c 1.51,-4.8951 3.6712,-7.8704 7.4493,-10.2554 3.6915,-2.3304 6.9914,-3.2372 6.9914,-1.9213 0,0.3154 -2.8125,3.686 -6.25,7.4903 -6.4199,7.105 -9.4762,8.8537 -8.1907,4.6864 z m 128.0056,-14 c -3.152,-10.5826 -5.5894,-24.5496 -5.5781,-31.9648 0.012,-7.6838 0.2498,-8.8415 2.0132,-9.7852 2.9462,-1.5768 5.5936,0.2548 8.3631,5.7859 4.1621,8.3125 8.6342,25.3825 8.6361,32.9641 0,5.4645 -3.1162,4.2307 -6.3169,-2.5 -2.2079,-4.6428 -2.3443,-5.2954 -0.7083,-3.3892 2.2843,2.6617 2.5466,1.554 0.9734,-4.1108 -1.0802,-3.8897 -2.5915,-4.841 -3.5836,-2.2557 -0.3153,0.8218 -1.0415,1.2049 -1.6136,0.8513 -0.6804,-0.4205 -0.8155,0.3596 -0.3904,2.2558 0.3574,1.5942 0.9356,5.2611 1.2849,8.1486 0.5435,4.4925 0.394,5.25 -1.0362,5.25 -0.9192,0 -1.8388,-0.5625 -2.0436,-1.25 z m 5.4243,-21 c -0.042,-4.7943 -5.5133,-17.1622 -7.1463,-16.1529 -1.4559,0.8998 -0.1511,12.2236 1.746,15.1529 1.5465,2.3879 5.4185,3.1049 5.4003,1 z m -52.2392,7.5877 c 0.6875,-0.2774 1.8125,-0.2774 2.5,0 0.6875,0.2774 0.125,0.5044 -1.25,0.5044 -1.375,0 -1.9375,-0.227 -1.25,-0.5044 z m 5.5208,-0.9419 c 0.3323,-0.3323 1.1948,-0.3678 1.9167,-0.079 0.7977,0.3192 0.5608,0.5562 -0.6042,0.6042 -1.0541,0.043 -1.6448,-0.193 -1.3125,-0.5253 z m 4.4792,-1.0581 c 0.6875,-0.2774 1.8125,-0.2774 2.5,0 0.6875,0.2774 0.125,0.5044 -1.25,0.5044 -1.375,0 -1.9375,-0.227 -1.25,-0.5044 z M 75.804676,1226.9603 c -2.419393,-1.0977 -4.145434,-2.2493 -3.835646,-2.5591 0.309787,-0.3098 1.545602,-0.037 2.746255,0.6051 1.200654,0.6425 5.626695,1.7491 9.835647,2.4591 l 7.65264,1.2908 -6,0.1 c -4.038577,0.067 -7.438016,-0.5525 -10.398896,-1.8958 z m 32.898894,-0.3852 c 0,-0.2337 2.5875,-1.8048 5.75,-3.4913 l 5.75,-3.0664 -3.73531,3.4913 c -2.05443,1.9202 -4.64193,3.4913 -5.75,3.4913 -1.10808,0 -2.01469,-0.1912 -2.01469,-0.4249 z m -52.788865,-12.7488 c -2.02107,-4.8964 -4.953405,-18.8676 -4.074064,-19.411 1.136285,-0.7023 2.698178,3.4607 4.496389,11.9843 1.627933,7.7164 1.394162,11.8274 -0.422325,7.4267 z M 129.1407,1202 c 0.38051,-1.925 0.94669,-4.9625 1.25819,-6.75 0.92449,-5.3051 2.61364,-3.8172 2.07153,1.8247 -0.29098,3.0283 -1.20014,5.7502 -2.25458,6.75 -1.67622,1.5893 -1.73144,1.4955 -1.07514,-1.8247 z m -75.953794,-23.027 c -1.988598,-3.2176 4.366093,-20.5236 6.684777,-18.2049 0.713502,0.7135 0.03084,3.7844 -2.197108,9.8835 -3.710333,10.1572 -3.543865,9.8485 -4.487669,8.3214 z m 76.183334,-4.6397 c -0.36667,-0.3666 -0.66667,-2.5071 -0.66667,-4.7566 0,-2.2494 -0.42951,-5.5875 -0.95448,-7.418 -1.4191,-4.9481 1.35949,-2.2835 3.52115,3.3767 2.15144,5.6335 0.86986,11.5678 -1.9,8.7979 z m -20.90575,-51.0485 c -8.36481,-1.269 -6.94805,-14.2195 1.9629,-17.9428 2.97736,-1.244 4.40412,-1.3206 7.47228,-0.4014 7.58621,2.2729 8.44474,10.8181 1.66042,16.5267 -2.91433,2.4522 -4.83637,2.7671 -11.0956,1.8175 z m 7.58176,-4.3951 c 4.97434,-2.2664 5.48123,-8.918 0.77341,-10.1491 -2.29178,-0.5993 -5.99979,1.0864 -7.42977,3.3777 -0.75306,1.2067 -0.44272,2.4151 1.21993,4.75 2.55618,3.5899 2.24666,3.4748 5.43643,2.0214 z m -21.576727,-0.727 c -5.774423,-6.3916 -9.164571,-14.5939 -9.219036,-22.3049 -0.03654,-5.1727 0.374547,-7.1085 1.858073,-8.75 4.252541,-4.7053 13.16116,-0.9824 15.6428,6.537 1.73344,5.2524 0.7471,13.7888 -2.02674,17.5406 -1.871617,2.5315 -2.092435,3.4706 -1.165156,4.9555 1.573796,2.52 1.437286,5.8591 -0.23953,5.8591 -0.761,0 -2.943685,-1.7268 -4.850411,-3.8373 z m 3.245009,-11.4127 c 4.092498,-6.7122 1.22062,-18.75 -4.473209,-18.75 -3.690555,0 -5.895878,3.9208 -5.043402,8.9666 0.374693,2.2177 1.268316,4.37 1.98583,4.7828 0.717513,0.4129 2.005039,2.4381 2.861168,4.5006 0.85613,2.0625 1.811176,3.75 2.122325,3.75 0.311149,0 1.457428,-1.4625 2.547288,-3.25 z M 1313.2271,1088.1902 c -0.2879,-0.288 -0.5235,-1.1389 -0.5235,-1.8911 0,-1.614 5.183,-1.2501 5.7339,0.4026 0.3623,1.0868 -4.2846,2.4142 -5.2104,1.4885 z M 964.33843,868.92742 c -1.44917,-1.13992 -2.63486,-2.71492 -2.63486,-3.5 0,-1.98864 0.52708,-1.80943 3.54016,1.20365 2.36188,2.36188 3.15943,2.57285 7.79545,2.06205 2.84042,-0.31296 6.73939,-0.88145 8.66439,-1.26331 5.23386,-1.03823 2.48055,1.06091 -3.19282,2.43423 -6.95619,1.68384 -11.19727,1.40355 -14.17232,-0.93662 z M 926.20357,851.6516 c -7.45081,-3.2398 -9.3307,-4.46357 -11.17093,-7.27213 -1.41869,-2.16519 -1.45744,-2.6821 -0.25667,-3.42421 0.99486,-0.61487 1.75924,-0.21888 2.57762,1.33534 1.08931,2.06874 2.69491,3.22672 12.84998,9.26755 4.96186,2.9516 2.69492,3.00456 -4,0.0935 z m 91.43223,-5.62972 c -0.8622,-0.50451 -3.2841,-4.57491 -5.382,-9.04533 -3.4581,-7.36904 -3.7638,-8.68457 -3.2738,-14.0878 0.3897,-4.29828 1.2622,-6.90612 3.1296,-9.35439 2.7967,-3.66664 5.4368,-4.5502 10.0041,-3.34807 9.1568,2.41006 11.7897,13.37107 6.5343,27.20223 -3.0411,8.00345 -6.9078,11.03485 -11.0122,8.63336 z m 5.9973,-4.65941 c 4.1433,-5.26729 6.3545,-17.85498 4.1536,-23.64402 -1.2863,-3.38309 -7.5898,-6.26424 -10.6523,-4.86886 -3.1736,1.44597 -5.5038,5.27598 -6.1525,10.11231 -0.5849,4.36072 0.4897,5.24045 2.4896,2.0381 0.687,-1.1 2.2237,-2 3.4149,-2 l 2.1658,0 -2.1743,2.31445 c -4.1817,4.45119 -1.5922,14.61286 3.75,14.71596 1.3144,0.0254 1.282,0.20141 -0.1953,1.06146 -0.9741,0.56708 -1.51,1.45339 -1.191,1.96959 0.9627,1.55767 2.2092,1.07544 4.3915,-1.69899 z m 16.5986,3.02274 c -1.4199,-1.41985 -1.6403,-2.7733 -1.1421,-7.01227 0.6385,-5.43267 -0.4994,-7.76858 -2.2623,-4.64397 -0.8274,1.46662 -1.2247,1.54397 -2.3114,0.45005 -1.0841,-1.09131 -0.9018,-1.65638 1.0485,-3.25 4.957,-4.05041 7.6824,-1.43255 6.6995,6.43497 -0.5551,4.44259 -0.3902,5.48731 0.9471,6.00049 1.9261,0.7391 6.2462,-1.32978 8.8999,-4.2621 2.888,-3.19115 4.0205,-2.51186 1.5639,0.93804 -4.1056,5.76583 -10.4855,8.30239 -13.4431,5.34479 z M 1353.2487,825.75 c -1.0373,-1.7875 -3.8344,-5.75301 -6.2156,-8.81224 -4.6906,-6.02618 -5.317,-9.12744 -2.8191,-13.95778 1.7981,-3.47719 4.3394,-5.00447 8.1739,-4.9123 l 2.8157,0.0677 -2.3966,1.15055 c -3.4249,1.64423 -6.1794,8.19752 -4.94,11.75292 0.5305,1.52185 1.7657,3.49201 2.7448,4.37813 1.6128,1.45954 2.1243,1.46741 5.4361,0.0837 4.3369,-1.8121 4.7212,-0.92535 0.9144,2.11009 l -2.7413,2.18584 2.2413,3.98787 c 2.7049,4.81282 2.7402,5.21557 0.4569,5.21557 -0.9814,0 -2.6331,-1.4625 -3.6705,-3.25 z m -456.22323,0.91817 c -3.03215,-1.62848 -15.06441,-11.89899 -15.71983,-13.41817 -0.31295,-0.72537 0.18202,-1.24708 1.17931,-1.24305 1.57279,0.006 17.78596,14.75905 17.03999,15.50502 -0.17841,0.17841 -1.30317,-0.2013 -2.49947,-0.8438 z M 1375.7036,826 c 0,-0.55 -0.9747,-1.97468 -2.166,-3.16595 -1.1912,-1.19128 -2.2808,-3.32878 -2.4212,-4.75 -0.1404,-1.42123 -1.1927,-5.93453 -2.3385,-10.02957 -1.2637,-4.51648 -1.7224,-7.80639 -1.1659,-8.36286 1.4933,-1.49334 2.7862,0.0116 3.4673,4.03622 0.8771,5.18207 4.2484,12.27544 5.8254,12.25685 3.6295,-0.0428 3.8422,-1.50703 1.3033,-8.97161 -2.9551,-8.68858 -2.8683,-8.01308 -1.0301,-8.01308 1.7874,0 3.5651,3.30788 7.3359,13.65029 2.656,7.28485 3.0475,10.34971 1.3221,10.34971 -0.3856,0 -1.5165,-1.38044 -2.5132,-3.06766 -1.7643,-2.98667 -1.8648,-3.01997 -3.8078,-1.26161 -1.4963,1.35419 -1.8632,2.62208 -1.4663,5.06766 0.3918,2.41466 0.1561,3.26161 -0.9079,3.26161 -0.7904,0 -1.4371,-0.45 -1.4371,-1 z M 864.37948,779.25 c -3.25885,-5.2021 -6.03593,-12.86942 -5.32875,-14.71229 0.84625,-2.2053 2.65284,-1.89764 2.65284,0.45177 0,2.15827 4.70909,14.72735 6.27943,16.76052 0.64036,0.82909 0.59172,1.25 -0.14444,1.25 -0.61045,0 -2.16703,-1.6875 -3.45908,-3.75 z m -14.75143,-43.841 c -3.40184,-4.09896 -7.92448,-12.05143 -7.92448,-13.93415 0,-1.15092 0.66069,-2.9661 1.4682,-4.03372 1.37429,-1.81698 1.47023,-1.69669 1.5,1.8808 0.0182,2.19187 1.07176,5.60388 2.47015,8 2.46412,4.22221 4.80888,9.67807 4.15934,9.67807 -0.19404,0 -0.94699,-0.71595 -1.67321,-1.591 z M 469.70357,728 c 0,-0.55 0.45,-1 1,-1 0.55,0 1,0.45 1,1 0,0.55 -0.45,1 -1,1 -0.55,0 -1,-0.45 -1,-1 z m 368.59167,-37.85167 c -0.2895,-0.46842 -0.99764,-5.84919 -1.57365,-11.95728 -1.13223,-12.00625 -0.37328,-18.32709 2.53113,-21.08033 1.58458,-1.50211 1.64787,-1.40843 0.93868,1.38928 -0.41826,1.65 -0.67714,9.6375 -0.57529,17.75 0.17393,13.85335 -0.029,15.98861 -1.32087,13.89833 z m 4.3261,-60.23166 c -1.34575,-6.81898 0.88323,-18.25257 4.26625,-21.88381 2.6117,-2.80333 3.36133,-1.99194 1.50058,1.62421 -0.80458,1.56361 -2.23517,6.66793 -3.1791,11.34293 -1.5148,7.50238 -2.31957,10.27543 -2.58773,8.91667 z M 852.72093,581.75 c 0.10015,-7.20936 6.38543,-26.21829 9.35733,-28.29989 3.22111,-2.25615 3.97788,-1.71379 1.68175,1.20526 -1.90957,2.42763 -5.00924,11.45077 -8.10534,23.59463 -1.10082,4.31774 -2.97617,6.55508 -2.93374,3.5 z M 869.32657,523 c 1.74752,-12.07238 9.63406,-33.11719 12.87703,-34.36164 1.59615,-0.6125 2.10571,0.86924 0.61562,1.79017 -1.01055,0.62455 -6.95805,16.66171 -10.03966,27.07147 -2.66043,8.98702 -4.34649,11.67261 -3.45299,5.5 z m 22.377,-57.21968 c 0,-3.97253 9.67946,-21.70664 11.87244,-21.75196 0.97192,-0.0201 1.07704,0.33644 0.36022,1.22164 -0.55673,0.6875 -3.53683,5.74698 -6.62245,11.2433 -3.08561,5.49631 -5.61021,9.67547 -5.61021,9.28702 z m 26,-47.1223 c 0,-2.03182 6.50069,-9.88505 12.2004,-14.73884 6.36445,-5.41986 5.65051,-3.95251 -1.70961,3.51378 -2.20507,2.23687 -5.46757,5.85707 -7.25,8.04488 -1.78244,2.18782 -3.24079,3.6189 -3.24079,3.18018 z"
     id="path3078"
     style="fill:#000000" />
</svg>
