<?xml version="1.0" encoding="UTF-8" standalone="no"?>
<!-- Created with Inkscape (http://www.inkscape.org/) -->

<svg
   xmlns:dc="http://purl.org/dc/elements/1.1/"
   xmlns:cc="http://creativecommons.org/ns#"
   xmlns:rdf="http://www.w3.org/1999/02/22-rdf-syntax-ns#"
   xmlns:svg="http://www.w3.org/2000/svg"
   xmlns="http://www.w3.org/2000/svg"
   version="1.1"
   width="1653.947"
   height="1703.9557"
   id="svg2997">
  <metadata
     id="metadata3003">
    <rdf:RDF>
      <cc:Work
         rdf:about="">
        <dc:format>image/svg+xml</dc:format>
        <dc:type
           rdf:resource="http://purl.org/dc/dcmitype/StillImage" />
        <dc:title></dc:title>
      </cc:Work>
    </rdf:RDF>
  </metadata>
  <defs
     id="defs3001" />
  <path
     d="m 1213.0235,1701.6437 c 4.125,-1.237 11.0197,-4.4015 15.3215,-7.0323 4.3019,-2.6308 11.0405,-5.9078 14.9747,-7.2824 8.85,-3.0919 9.2264,-3.2944 16.9317,-9.1076 3.4497,-2.6026 9.4221,-6.0302 13.2721,-7.6169 3.85,-1.5867 9.7024,-4.6029 13.0053,-6.7027 3.3029,-2.0998 7.9314,-4.4974 10.2855,-5.328 2.3541,-0.8306 5.1861,-2.1446 6.2933,-2.9201 4.5198,-3.1659 14.2948,-15.6512 18.0943,-23.1115 2.2291,-4.3767 5.9803,-10.9017 8.336,-14.5 13.2314,-20.2099 24.4301,-40.235 28.8242,-51.5422 4.7882,-12.3216 13.4884,-48.6517 15.0871,-63 4.3136,-38.7166 5.3702,-77.4258 3.1389,-115 -0.8818,-14.85 -1.8127,-27.9511 -2.0687,-29.1136 -0.2561,-1.1625 -0.7399,-5.6625 -1.0752,-10 -0.7221,-9.3422 2.4095,-32.4407 5.3463,-39.4322 1.029,-2.4498 2.4484,-7.1542 3.1543,-10.4542 2.293,-10.7202 13.1899,-32.3786 20.125,-40 1.5014,-1.65 3.4252,-4.35 4.2751,-6 2.1417,-4.1578 18.3384,-20.6289 23.4718,-23.8695 4.6238,-2.9188 12.1972,-6.1447 19.2068,-8.181 2.475,-0.7189 8.0426,-2.7712 12.3725,-4.5605 7.8407,-3.2402 7.8991,-3.2477 14.5,-1.8803 3.6451,0.7551 9.6567,1.3247 13.3591,1.2657 5.9046,-0.094 7.5016,-0.5694 13,-3.8693 8.3954,-5.0387 11.8484,-7.9834 14.4192,-12.2966 3.3977,-5.7005 6.2191,-16.7096 7.2034,-28.1073 1.3164,-15.242 -0.1696,-20.0572 -13.537,-43.8651 -10.737,-19.1231 -11.7562,-20.471 -27.2232,-36.0065 -12.9526,-13.01 -14.2087,-13.9978 -20.2027,-15.8875 -3.5152,-1.1082 -7.2913,-2.0409 -8.3913,-2.0725 -1.1,-0.032 -7.175,-0.2075 -13.5,-0.3908 -11.7791,-0.3414 -17.1033,0.6599 -24.5,4.6077 -1.65,0.8807 -4.5589,1.604 -6.4643,1.6073 -3.2281,0.01 -3.3511,-0.107 -1.8039,-1.6542 0.9132,-0.9132 3.1472,-2.2198 4.9643,-2.9036 1.8171,-0.6837 6.2289,-2.4764 9.8039,-3.9838 6.452,-2.7204 6.6196,-2.7359 22.7031,-2.1045 22.4361,0.8807 23.0368,1.1747 42.2637,20.6846 9.9489,10.0954 16.3225,17.4899 19.2109,22.2876 2.3772,3.9489 4.494,7.6299 4.7038,8.18 0.2098,0.55 2.7973,5.1376 5.75,10.1945 2.9527,5.0569 5.3685,9.7943 5.3685,10.5275 0,0.7332 0.6151,2.2207 1.367,3.3056 5.7954,8.3625 6.094,34.1471 0.5666,48.9205 -2.6879,7.1839 -7.3568,11.9591 -19.1491,19.5852 -11.4748,7.4206 -19.248,9.2226 -28.5383,6.6159 -7.6439,-2.1447 -8.6272,-2.0834 -15.7462,0.9819 -3.3,1.4209 -8.925,3.6034 -12.5,4.8501 -14.6867,5.1214 -18.0932,7.2135 -27.393,16.823 -4.8947,5.0577 -10.0711,11.0033 -11.5032,13.2123 -1.4321,2.209 -3.9538,5.764 -5.6038,7.8999 -7.0422,9.1163 -14.9207,24.8814 -18.0325,36.0837 -1.2222,4.4 -3.1655,10.925 -4.3185,14.5 -4.3221,13.4016 -4.957,29.3419 -2.1509,54 2.9139,25.6044 3.2262,98.9831 0.5405,126.9877 -3.5481,36.9974 -13.1036,71.1811 -25.769,92.1854 -2.7615,4.5798 -6.8316,11.4769 -9.0444,15.3269 -2.2129,3.85 -6.1294,10.15 -8.7033,14 -2.5738,3.85 -6.8394,11.1206 -9.4789,16.1568 -2.8089,5.3594 -7.7527,12.5406 -11.9211,17.3162 -7.6117,8.7205 -12.6383,11.9414 -37.3993,23.965 -5.6525,2.7448 -13.4135,7.4445 -17.2465,10.4436 -4.661,3.647 -9.2061,6.1838 -13.7227,7.6594 -3.7144,1.2135 -10.594,4.4007 -15.288,7.0827 -8.5044,4.859 -8.5665,4.8761 -17.5,4.8227 l -8.9654,-0.054 7.5,-2.2491 z m 17.172,-76.0136 c -0.6455,-3.5035 -1.634,-15.541 -2.1967,-26.75 -0.5626,-11.2091 -1.2075,-20.9021 -1.4332,-21.5401 -0.2256,-0.638 -0.4941,-4.913 -0.5965,-9.5 -0.1419,-6.3592 -0.6659,-9.1344 -2.2059,-11.6847 -1.8758,-3.1061 -1.9106,-3.5736 -0.4889,-6.555 1.2689,-2.6609 1.3888,-5.2549 0.7005,-15.1553 -0.4568,-6.5698 -1.0953,-15.995 -1.419,-20.945 -1.0976,-16.7856 -1.4596,-21.9751 -2.6372,-37.8097 -0.8333,-11.2045 -0.8649,-16.1205 -0.1085,-16.8769 0.6361,-0.6361 0.7428,-1.9251 0.2641,-3.1904 -0.4418,-1.1676 -1.1361,-5.048 -1.5428,-8.623 -0.4068,-3.575 -0.8699,-7.625 -1.0291,-9 -0.1592,-1.375 -0.6102,-8.35 -1.0022,-15.5 -0.392,-7.15 -0.836,-13.675 -0.9867,-14.5 -0.1506,-0.825 -0.5658,-8.25 -0.9225,-16.5 -0.3568,-8.25 -0.843,-16.575 -1.0804,-18.5 -0.2374,-1.925 -0.6909,-8.9 -1.0078,-15.5 -0.3169,-6.6 -0.9924,-17.175 -1.501,-23.5 -0.5087,-6.325 -1.1746,-16.225 -1.4797,-22 -0.3052,-5.775 -1.1934,-19.275 -1.9739,-30 -0.7806,-10.725 -1.6885,-24.45 -2.0176,-30.5 -0.3292,-6.05 -1.0031,-16.175 -1.4976,-22.5 -0.4945,-6.325 -1.1597,-15.55 -1.478,-20.5 -0.3184,-4.95 -0.7767,-11.925 -1.0183,-15.5 -0.2417,-3.575 -0.7151,-11.45 -1.0521,-17.5 -0.3369,-6.05 -0.7644,-12.8 -0.9499,-15 -0.1855,-2.2 -0.6553,-10.75 -1.0439,-19 -0.3886,-8.25 -0.882,-15.9 -1.0964,-17 -0.2144,-1.1 -0.8249,-9.875 -1.3567,-19.5 -0.5318,-9.625 -1.1969,-20.425 -1.4779,-24 -0.2811,-3.575 -0.7398,-9.425 -1.0193,-13 -0.2795,-3.575 -1.184,-16.85 -2.0099,-29.5 -1.9867,-30.427 -2.3976,-36.5284 -3.536,-52.5 -1.1331,-15.89773 -2.7352,-40.62175 -3.4991,-54 -0.4864,-8.5173 -1.3435,-22.45916 -3.0431,-49.5 -0.3111,-4.95 -0.7378,-10.575 -0.9483,-12.5 -0.2104,-1.925 -0.6434,-8 -0.9623,-13.5 -1.4132,-24.37452 -2.7688,-45.96232 -5.4945,-87.5 -1.6061,-24.475 -3.4025,-53.05 -3.992,-63.5 -0.5895,-10.45 -1.2728,-21.925 -1.5186,-25.5 -1.0304,-14.98727 -3.456,-53.52894 -6.5137,-103.5 -5.6799,-92.82243 -6.7439,-107.67756 -7.7792,-108.60429 -0.6938,-0.62103 -6.5051,-0.15288 -25.7202,2.07194 -4.95,0.57314 -18.9,2.17221 -31,3.55349 -35.7048,4.07588 -45.8999,5.59304 -47.5787,7.08027 -1.8909,1.67513 -4.5431,1.81951 -5.4832,0.29847 -0.641,-1.03726 -2.432,-0.96544 -15.4381,0.61907 -1.925,0.23452 -9.8,1.10616 -17.5,1.93698 -21.1499,2.28203 -78.24432,8.57588 -82.37015,9.08014 -1.99639,0.244 -13.9798,1.56296 -26.6298,2.93102 -21.57147,2.3329 -31.23556,3.35764 -66,6.99837 -7.7,0.80638 -17.375,1.93029 -21.5,2.49756 -4.125,0.56728 -18.3,2.18056 -31.5,3.58507 -13.2,1.40451 -25.35,2.74438 -27,2.9775 -1.65,0.23311 -8.85,1.09348 -16,1.91193 -7.15,0.81844 -22.45,2.6382 -34,4.04391 -19.16666,2.33269 -140.32955,15.92518 -196,21.98797 -18.95094,2.06386 -80.13605,8.92991 -120,13.46613 -11.64409,1.32501 -70.63647,7.91963 -76.5,8.55175 -2.475,0.26682 -16.65,1.82008 -31.5,3.45168 -14.85,1.6316 -31.5,3.43709 -37,4.01219 -5.5,0.5751 -19.45,2.16136 -31,3.52502 -11.55,1.36366 -34.05,3.88459 -50,5.60207 -15.95,1.71747 -29.42581,3.52579 -29.94625,4.01847 -0.58415,0.553 -0.20148,1.44391 1,2.32812 1.77989,1.3099 1.80085,1.48871 0.24518,2.09196 -1.07225,0.41579 -2.98001,-0.31586 -5.16083,-1.97925 -3.37288,-2.57263 -3.55466,-2.59924 -7.23856,-1.06001 -2.76711,1.15617 -5.33438,1.40288 -9.58916,0.92151 -4.18925,-0.47396 -5.81038,-0.32586 -5.81038,0.53081 0,0.6535 -0.45498,0.90699 -1.01107,0.56331 -1.09019,-0.67378 -6.32468,4.0713 -7.188569,6.51646 -0.289606,0.81971 -0.868949,1.17209 -1.28743,0.78308 -0.41848,-0.38902 0.179737,-2.30152 1.32937,-4.25 1.149639,-1.94849 1.862689,-3.5427 1.584559,-3.5427 -0.88298,0 -19.319004,1.98446 -37.426865,4.02864 -9.625,1.08656 -23.8,2.67121 -31.5,3.52146 -7.7,0.85025 -17.970076,2.01673 -22.8223917,2.59218 -4.8523156,0.57545 -9.05987657,0.80878 -9.35013547,0.51853 -1.28995922,-1.28996 1.04173017,-2.45091 5.90406717,-2.93963 2.8976532,-0.29125 14.94346,-1.65328 26.76846,-3.02674 11.825,-1.37346 24.875,-2.78573 29,-3.1384 4.125,-0.35266 14.925,-1.51329 24,-2.57918 9.075,-1.06589 18.433465,-2.14923 20.796585,-2.40742 2.36312,-0.25819 5.64714,-1.14318 7.29784,-1.96665 1.98601,-0.99076 4.59186,-1.31998 7.70342,-0.97323 2.58619,0.2882 10.32716,-0.20607 17.20216,-1.09838 6.875,-0.89231 16.1,-2.02097 20.5,-2.50814 4.4,-0.48716 18.575,-2.04704 31.5,-3.46639 12.925,-1.41936 29.125,-3.24621 36,-4.05968 6.875,-0.81347 19.025,-2.17319 27,-3.0216 7.975,-0.84841 19.9,-2.20094 26.5,-3.00562 6.6,-0.80469 28.2,-3.26507 48,-5.46753 19.8,-2.20245 49.95,-5.58508 67,-7.51695 33.20116,-3.76189 48.80375,-5.50272 71,-7.92169 7.7,-0.83916 21.875,-2.43771 31.5,-3.55234 20.74319,-2.40218 84.24651,-9.56964 102,-11.51248 51.93599,-5.68358 69.98106,-7.70934 80,-8.98091 18.35915,-2.33008 34.77139,-4.20987 78.5,-8.99106 22.55,-2.46557 48.425,-5.3866 57.5,-6.49118 9.075,-1.10458 23.025,-2.70612 31,-3.55899 7.975,-0.85286 16.075,-1.75106 18,-1.99599 1.925,-0.24494 10.03321,-1.11867 18.01824,-1.94164 7.98504,-0.82296 15.86004,-1.74056 17.5,-2.03912 1.63997,-0.29856 9.28176,-1.20423 16.98176,-2.01261 33.27799,-3.49365 42.45926,-4.49161 50,-5.43478 4.4,-0.55034 16.53059,-1.95164 26.95687,-3.11401 10.42618,-1.16236 20.74558,-2.41876 22.93188,-2.79199 l 3.9752,-0.67861 -4.182,-1.88581 C 1013.3028,473.82219 1011.4828,471 1014.2507,471 c 2.7794,0 17.2979,3.46575 17.6061,4.20281 0.7188,1.71891 8.8509,0.80564 11.2346,-1.26168 1.5783,-1.36886 3.0539,-1.83352 4.403,-1.38648 4.9427,1.63786 10.6461,1.41388 36.0291,-1.41484 14.85,-1.65492 34.2,-3.74113 43,-4.63602 18.497,-1.88102 28.0087,-3.58207 27.9794,-5.00379 -0.2162,-10.48026 -4.2862,-81.3496 -5.9727,-104 -0.2867,-3.85 -1.2031,-19.15 -2.0365,-34 -3.3257,-59.25886 -4.5164,-76.94546 -5.2272,-77.63882 -0.4087,-0.39865 -3.668,-1.45326 -7.243,-2.34359 -7.8189,-1.94724 -15.8995,-3.99558 -22,-5.57674 -19.7333,-5.11459 -36.0758,-11.92882 -55.8741,-23.29745 -14.1528,-8.12685 -22.3996,-11.75002 -34.3146,-15.07577 -6.754,-1.88521 -8.8113,-3.67657 -8.8113,-7.6723 0,-10.47034 14.8704,-24.77875 33.23,-31.97413 2.8985,-1.13597 6.395,-3.10367 7.77,-4.37267 1.375,-1.269 4.4174,-3.49526 6.7608,-4.94725 2.3434,-1.45199 6.7255,-4.87207 9.738,-7.60018 11.4307,-10.35169 22.0996,-13.85817 44.7527,-14.70858 11.5788,-0.43467 16.0544,-0.95623 16.8948,-1.96876 0.8746,-1.05388 -0.063,-7.41969 -3.9901,-27.100598 -7.6293,-38.231442 -8.7208,-45.058577 -7.413,-46.366331 1.3023,-1.302338 1.4287,-0.84465 6.7094,24.302586 6.2626,29.822703 6.5895,30.347443 6.1301,9.840583 -0.372,-16.605993 -0.3459,-16.91251 0.5108,-6 2.0488,26.09664 3.9682,43.46168 4.9078,44.40133 0.5493,0.54927 0.9987,2.90956 0.9987,5.24509 0,4.8802 2.4119,9.36758 16.3145,30.35358 4.9188,7.425 10.2505,15.68309 11.8482,18.35131 1.5977,2.66822 7.4291,10.6584 12.9587,17.75596 5.5296,7.09756 14.7717,19.94956 20.5379,28.56001 16.1923,24.17943 21.2181,29.21176 40.3407,40.39373 6.6157,3.86852 13.2953,8.23676 27.5,17.98397 2.2,1.50963 10.5763,6.1057 18.614,10.21347 22.1457,11.31785 41.8282,24.82021 53.2742,36.54648 13.091,13.41154 -0.114,12.26643 -32.3882,-2.80864 -8.525,-3.98197 -17.2853,-7.87465 -19.4672,-8.6504 -2.182,-0.77575 -5.782,-2.46349 -8,-3.75053 -2.2181,-1.28703 -5.1578,-2.68321 -6.5328,-3.10262 -1.375,-0.41941 -6.0981,-2.50186 -10.4957,-4.62765 -4.3977,-2.1258 -8.7229,-3.86509 -9.6116,-3.86509 -1.4956,0 -10.5571,-3.93363 -25.5154,-11.07636 -3.3675,-1.608 -6.3523,-2.92364 -6.6329,-2.92364 -0.2805,0 -7.2003,-4.10037 -15.3772,-9.11194 C 1191.0605,270.87948 1170.6899,260 1168.2801,260 c -2.3376,0 -1.4199,5.83823 7.5454,48 4.3857,20.625 12.3512,58.2 17.7011,83.5 5.3498,25.3 10.7016,50.275 11.8928,55.5 l 2.1657,9.5 5.4692,0.0548 c 3.0081,0.0301 9.2942,-0.51329 13.9692,-1.20762 4.675,-0.69433 10.7842,-1.28149 13.5759,-1.3048 2.7918,-0.0233 9.8353,-0.71047 15.6523,-1.52703 5.817,-0.81656 12.9828,-1.69416 15.9241,-1.95022 2.9412,-0.25607 8.395,-0.77537 12.1195,-1.15401 6.0262,-0.61263 6.7026,-0.508 6.143,0.95023 -0.3458,0.90126 -1.5931,1.66153 -2.7718,1.68948 -2.762,0.0655 -8.5054,0.70826 -22.143,2.47811 -6.05,0.78515 -17.75,2.09653 -26,2.91417 -24.432,2.42142 -30.5,3.52013 -30.5,5.52257 0,0.9474 2.0356,11.5802 4.5235,23.62844 2.488,12.04824 6.0523,29.33089 7.9207,38.40589 1.8684,9.075 4.1017,19.425 4.963,23 1.3554,5.62636 6.0165,27.58909 12.6274,59.5 2.1153,10.21014 3.9265,18.65993 13.8809,64.75603 3.8905,18.01581 9.131,42.99081 11.6456,55.5 2.5146,12.50918 5.4054,26.11897 6.4241,30.24397 1.0187,4.125 3.4762,16.05 5.461,26.5 1.9849,10.45 4.2756,21.475 5.0904,24.5 6.3346,23.51803 7.6922,29.16549 8.1736,34 0.3474,3.48788 1.2768,6.30268 2.5406,7.69408 1.5326,1.68739 1.8444,2.98487 1.3504,5.61836 -0.4189,2.23298 0.4327,8.42761 2.4479,17.80592 1.6997,7.9099 3.4887,16.63164 3.9757,19.38164 0.487,2.75 2.5076,12.65 4.4901,22 1.9826,9.35 5.4149,25.55 7.6274,36 5.5726,26.32074 5.002,23.66412 12.3485,57.49999 3.6422,16.775 7.7082,36.125 9.0356,43 2.235,11.5759 6.3884,31.4419 9.8264,47 3.142,14.2188 5.0801,30.6144 3.7183,31.4561 -0.7786,0.4812 -1.9815,-1.3384 -2.6153,-3.9561 -0.1332,-0.55 -1.1728,-4.825 -2.3103,-9.5 -1.1375,-4.675 -4.7648,-21.325 -8.0607,-37 -3.2959,-15.675 -11.1529,-52.575 -17.46,-81.99999 -6.3071,-29.425 -12.6044,-59.125 -13.994,-66 -1.3896,-6.875 -4.3476,-21.05 -6.5734,-31.5 -10.1561,-47.68342 -9.7641,-46.47255 -15.0574,-46.50751 -2.6295,-0.0174 -3.1269,-0.26422 -2,-0.99249 0.825,-0.53316 2.5125,-0.97627 3.75,-0.98469 2.5264,-0.0172 2.8683,-2.0601 1.3415,-8.01531 -0.4936,-1.925 -1.1719,-4.72675 -1.5075,-6.22611 -0.5535,-2.47317 -0.9878,-2.70513 -4.6802,-2.5 l -4.0701,0.22611 0.3331,6.98245 c 0.2951,6.18483 0.1184,7.02424 -1.547,7.34839 -1.0341,0.20127 -2.227,-0.19521 -2.6508,-0.88107 -1.5045,-2.43422 -3.2251,-17.16719 -2.7167,-23.26194 0.6806,-8.15939 2.2898,-11.39278 6.4117,-12.8833 3.9776,-1.43832 4.3258,2.08542 -3.3406,-33.80453 -2.9959,-14.025 -7.9098,-37.425 -10.9197,-52 -3.0099,-14.575 -9.5152,-45.4 -14.4563,-68.5 -4.941,-23.1 -10.5493,-49.425 -12.4627,-58.5 -1.9135,-9.075 -6.4399,-30.45 -10.0587,-47.5 -3.6189,-17.05 -8.3147,-39.325 -10.4351,-49.5 -5.2207,-25.05128 -6.9051,-32.8171 -8.0917,-37.30529 l -1.0061,-3.80528 -7.1965,0.61914 c -14.361,1.23551 -33.2369,3.74261 -34.9466,4.64161 -2.1571,1.13423 -2.2198,-2.54276 0.7164,41.96437 1.3565,20.562 3.377,52.46045 4.49,70.88545 3.2826,54.34348 3.1657,53 4.6134,53 2.2402,0 2.8257,2.2376 0.9453,3.6126 -1.6237,1.18729 -1.7275,2.50003 -1.1147,14.0983 0.3716,7.034 1.1035,18.4141 1.6265,25.2891 0.5229,6.875 1.6257,23.3 2.4507,36.5 0.825,13.2 2.8457,44.7 4.4904,70 1.6447,25.3 3.2399,50.5 3.545,56 0.305,5.5 0.8066,12.1375 1.1146,14.75 l 0.5601,4.75 4.6561,0.1681 4.6562,0.16811 -4,0.39872 c -2.2,0.2193 -4.3513,0.74241 -4.7806,1.16248 -0.6943,0.67933 6.8426,119.94233 11.7924,186.60258 0.5666,7.6307 2.9099,42.8796 4.4873,67.5 1.6933,26.4303 4.9289,76.4161 6.5053,100.5 1.4002,21.3898 3.9749,61.7125 6.513,102 0.5891,9.35 2.2003,33.875 3.5806,54.5 2.3851,35.6394 3.7856,57.6967 4.7937,75.5 0.2492,4.4 1.3607,20.375 2.4701,35.5 1.1095,15.125 2.2994,32.45 2.6444,38.5 0.3449,6.05 1.2753,15.8754 2.0674,21.8342 0.7922,5.9589 1.2015,11.2208 0.9095,11.6931 -0.2919,0.4724 0.128,10.897 0.9331,23.1658 2.5575,38.9733 2.7385,54.8069 0.6266,54.8069 -0.3834,0 -1.2253,-2.8665 -1.8708,-6.3699 z M 1278.9244,826.25 c -2.5585,-5.99242 -3.6909,-7.1971 -4.9272,-5.24164 -1.0831,1.71318 -1.301,8.33099 -0.307,9.32497 0.3666,0.36667 2.1506,0.66667 3.9644,0.66667 l 3.2978,0 -2.028,-4.75 z m -97.4009,-365.82182 c 10.8325,-1.11099 20.5,-2.83091 20.5,-3.64709 0,-1.45964 -18.7069,-90.70834 -23.6394,-112.78109 -1.4134,-6.325 -2.9964,-13.97328 -3.5177,-16.99617 -0.5213,-3.0229 -1.8321,-9.46601 -2.9129,-14.31804 -1.0808,-4.85202 -3.7752,-17.67875 -5.9877,-28.50383 -2.2125,-10.82508 -4.5284,-22.10239 -5.1464,-25.06069 -1.0655,-5.10022 -1.3612,-5.47799 -5.7098,-7.29557 -2.5224,-1.05426 -5.3675,-2.34633 -6.3225,-2.87127 -0.9551,-0.52494 -1.9676,-0.95443 -2.25,-0.95443 -1.0499,0 -0.4535,19.35389 1.4638,47.5 1.0865,15.95 2.4133,36.65 2.9486,46 2.6945,47.06997 7.1582,116.27819 7.6348,118.37461 0.5321,2.34039 0.6653,2.36518 9.2395,1.72049 4.7848,-0.35976 10.9497,-0.88488 13.6997,-1.16692 z m 154.4462,-129.01096 c -7.4134,-7.70722 -32.6077,-24.62247 -47.9462,-32.19062 -5.775,-2.84943 -14.775,-8.09207 -20,-11.6503 -5.225,-3.55822 -13.7029,-9.08103 -18.8399,-12.2729 -32.184,-19.99778 -33.6086,-21.337 -51.4203,-48.33819 C 1191.4267,217.35934 1182.684,205 1178.3352,199.5 c -4.3488,-5.5 -13.1438,-17.90819 -19.5445,-27.57375 -6.4006,-9.66557 -12.3781,-18.18837 -13.2832,-18.93957 -1.9915,-1.65275 -2.218,-3.14723 4.6998,31.01332 13.8786,68.53396 13.8942,68.58533 21.7133,71.1013 1.9816,0.63764 4.0529,1.49413 4.6029,1.9033 0.55,0.40918 4.5447,2.64128 8.8771,4.96022 4.3324,2.31895 14.341,8.21777 22.2414,13.10851 12.3895,7.66979 44.9012,23.92667 47.8503,23.92667 0.5495,0 4.8314,1.76666 9.5152,3.92591 19.0725,8.79252 30.9078,14.07409 31.5381,14.07409 0.3668,0 6.8119,2.98451 14.3224,6.63224 12.035,5.8452 24.8148,11.07408 27.6017,11.29333 0.5204,0.0409 -0.6046,-1.53782 -2.5,-3.50835 z M 1157.6374,244.25 c -0.2864,-0.9625 -1.2594,-5.8 -2.1622,-10.75 -1.3969,-7.65921 -12.3778,-61.25865 -14.0065,-68.368 -1.2938,-5.64709 -1.4965,-0.22899 -0.5432,14.51299 0.5639,8.72026 1.555,25.08001 2.2024,36.35501 0.6474,11.275 1.5459,21.49479 1.9966,22.71065 0.4508,1.21586 2.9749,3.33241 5.6093,4.70344 5.7588,2.99715 7.6137,3.22175 6.9036,0.83591 z M 1141.2542,231 c -0.1482,-4.125 -0.711,-14.925 -1.2507,-24 -1.6167,-27.18122 -1.916,-32.84493 -2.5369,-48 -0.6756,-16.48768 -1.8805,-25.02466 -3.6946,-26.17661 -2.0453,-1.29873 -23.5378,-0.91596 -33.6261,0.59886 -11.3454,1.70357 -19.0716,5.3403 -28.1311,13.24135 -3.4919,3.04536 -7.9559,6.56311 -9.9201,7.81722 -1.9641,1.25412 -5.2894,3.65922 -7.3895,5.34467 -2.1,1.68546 -5.475,3.59435 -7.5,4.24198 -14.5359,4.64896 -30.1817,17.26266 -30.1817,24.33261 0,2.91816 0.5241,3.8196 2.9503,5.07424 1.6227,0.83912 3.6459,1.52568 4.4961,1.52568 4.952,0 24.0628,8.44926 39.0536,17.26638 4.95,2.91143 11.925,6.57544 15.5,8.14225 3.575,1.5668 8.3,3.63802 10.5,4.60269 2.2,0.96467 8.05,2.96339 13,4.4416 4.95,1.47821 11.7,3.55611 15,4.61757 3.3,1.06146 6.9608,1.92983 8.1352,1.92972 1.1743,-1.2e-4 3.6493,0.66818 5.5,1.48511 1.8506,0.81693 4.9398,1.37943 6.8648,1.25 l 3.5,-0.23532 -0.2693,-7.5 z m 138.7234,1349.7182 c -7.0811,-5.5801 -6.2069,-12.4855 1.7959,-14.1864 1.7875,-0.3799 3.25,-0.9512 3.25,-1.2695 0,-0.3184 -1.7787,-4.4451 -3.9526,-9.1706 -4.0339,-8.7685 -5.7378,-15.7251 -4.3323,-17.6877 0.4317,-0.6028 1.988,-1.3903 3.4584,-1.7499 2.0267,-0.4956 3.4095,-0.034 5.716,1.9063 4.1385,3.4824 5.0895,8.6241 2.2944,12.4047 l -2.0697,2.7994 2.9632,7.8678 c 3.3006,8.7635 3.2397,13.4235 -0.2329,17.8383 -2.1645,2.7517 -6.2535,3.3256 -8.8904,1.2476 z m 6.0459,-6.7182 c 0,-3.2928 -0.3432,-4 -1.941,-4 -2.8492,0 -3.3412,1.5535 -1.5742,4.9706 2.1556,4.1685 3.5152,3.7931 3.5152,-0.9706 z m -22.5455,-17.4545 c -2.7791,-2.7792 -3.1733,-5.3325 -0.9545,-6.1839 0.825,-0.3166 1.5,-1.5973 1.5,-2.8461 0,-2.7715 1.7219,-4.3099 5.7188,-5.1093 2.4332,-0.4866 3.3477,-0.1493 4.6547,1.7166 3.1566,4.5067 1.0178,13.0039 -3.5835,14.2364 -3.7589,1.007 -4.763,0.7587 -7.3355,-1.8137 z m -11.9312,-1.8696 c -2.8075,-4.2848 -6.6362,-17.1193 -6.8307,-22.898 -0.1657,-4.9221 0.1569,-6.0659 2.3074,-8.1815 1.375,-1.3526 4.1626,-2.7606 6.1946,-3.1288 8.2916,-1.5023 11.635,8.6498 6.2944,19.1129 -2.2976,4.5014 -2.4118,5.3123 -1.3438,9.5413 0.6419,2.542 0.886,5.3545 0.5424,6.25 -0.941,2.4522 -5.3844,2.0206 -7.1643,-0.6959 z m 5.1972,-23.367 c 0.4969,-5.4536 -1.3367,-9.0539 -4.0759,-8.0028 -2.1324,0.8183 -2.1366,5.4238 -0.01,10.739 2.0063,5.0143 3.4688,4.0349 4.0858,-2.7362 z M 628.02355,1224.5833 c 0,-1.6805 0.54853,-2.5833 1.56955,-2.5833 1.04234,0 1.46221,0.7295 1.25,2.1717 -0.47108,3.2015 -2.81955,3.5443 -2.81955,0.4116 z m 741.27075,-18.1875 c 0.3323,-0.3323 1.1948,-0.3678 1.9167,-0.079 0.7977,0.3192 0.5608,0.5562 -0.6042,0.6042 -1.0541,0.043 -1.6448,-0.193 -1.3125,-0.5253 z m 41.2292,-146.89 c -3.4299,-1.8203 -5.5,-4.2183 -5.5,-6.3712 0,-1.0676 0.7225,-0.8039 2.5787,0.9411 2.2906,2.1534 3.4359,2.4137 10.25,2.3294 4.2192,-0.052 11.2713,-0.6131 15.6713,-1.2465 4.4,-0.6334 11.825,-1.5676 16.5,-2.076 11.8885,-1.2928 23.3189,-6.708 41.5,-19.6605 9.38,-6.6825 21.684,-20.1051 29.8354,-32.548 5.7678,-8.8045 11.146,-27.82081 11.157,-39.44949 0.01,-7.48193 -0.3002,-8.69452 -4.1812,-16.5 -2.3038,-4.63354 -7.5654,-12.69961 -11.6925,-17.92461 -13.2423,-16.76529 -13.9919,-17.81325 -19.1169,-26.72753 -9.408,-16.3639 -10.9407,-23.00555 -10.0476,-43.54071 1.3051,-30.00932 3.8659,-47.22245 9.3651,-62.95115 7.7109,-22.05431 20.1477,-37.24549 41.3783,-50.54213 3.2831,-2.05617 8.5192,-5.56681 11.6358,-7.80145 3.1166,-2.23463 8.1416,-5.27688 11.1666,-6.76057 8.1429,-3.99389 22.7208,-14.91219 35.567,-26.6384 9.5332,-8.702 15.4299,-13.34757 22.2584,-17.5358 10.9654,-6.72548 18.7909,-21.02047 25.7306,-47.00226 1.3222,-4.95 2.4129,-10.40592 2.424,-12.12427 0.011,-1.71835 0.6489,-4.90686 1.4176,-7.08558 1.6474,-4.66924 1.4701,-27.82361 -0.2942,-38.42188 -2.0068,-12.0551 -7.7946,-25.21045 -16.6537,-37.85341 -6.0107,-8.57791 -8.8628,-11.49564 -10.3428,-10.58096 -0.5604,0.34641 -1.803,-0.62201 -2.7612,-2.15203 -0.9582,-1.53003 -3.8532,-5.06489 -6.4335,-7.85524 -4.648,-5.02649 -8.9122,-12.07084 -8.9122,-14.72268 0,-2.43274 -6.8394,-10.25045 -14.7901,-16.90577 -28.0946,-23.51715 -46.0452,-36.59654 -64.1525,-46.74344 -5.1934,-2.91027 -13.0684,-7.61167 -17.5,-10.44755 -4.4316,-2.83589 -11.2074,-7.09568 -15.0574,-9.46621 -40.2722,-24.7965 -47.4446,-30.00273 -58.3948,-42.38719 -11.1815,-12.64618 -36.7184,-36.62478 -47.1296,-44.25379 -10.7178,-7.85375 -28.0697,-21.2893 -30.9756,-23.98447 -1.925,-1.7854 -8.9519,-7.46928 -15.6154,-12.63086 -20.7066,-16.03958 -45.6747,-38.23118 -75.7153,-67.29576 -24.9484,-24.13779 -47.7348,-48.80449 -50.8897,-55.08891 -1.1044,-2.2 -3.0273,-5.36122 -4.273,-7.02493 -3.2089,-4.28552 -10.9502,-21.6534 -13.4497,-30.17503 -2.9964,-10.21601 -3.7697,-22.09099 -1.7922,-27.52311 0.8563,-2.35231 2.1177,-6.75193 2.8031,-9.77693 1.576,-6.955112 5.8804,-16.604309 9.1449,-20.5 1.3827,-1.65 3.4276,-4.8 4.5442,-7 1.1167,-2.2 3.0278,-4.9 4.247,-6 1.2192,-1.1 3.7129,-4.968255 5.5415,-8.596121 1.8286,-3.627867 4.5086,-8.003067 5.9556,-9.722666 5.3428,-6.34963 15.3284,-30.838248 18.729,-45.931213 1.0057,-4.46349753 1.5265,-5.25 3.4764,-5.25 1.2615,0 2.2936,0.58282795 2.2936,1.2951732 0,2.7432459 -5.2234,21.2223048 -6.9622,24.6307398 -1.0059,1.971642 -3.4193,7.529155 -5.3633,12.35003 -1.9439,4.820875 -5.0862,10.893464 -6.9828,13.494642 -1.8967,2.601178 -4.804,7.429415 -6.4607,10.729415 -1.6568,3.3 -4.0094,6.9 -5.2281,8 -1.2186,1.1 -3.1277,3.8 -4.2424,6 -1.1146,2.2 -3.307,5.627446 -4.8719,7.616547 -3.8127,4.846236 -6.45,11.240591 -9.9607,24.150133 -3.4664,12.74685 -3.6244,17.72973 -0.8799,27.75342 3.8404,14.02652 6.697,20.62459 14.7115,33.9799 7.3272,12.2101 14.2236,20.01107 43.7602,49.5 32.2023,32.1504 66.4413,63.21666 85.4803,77.55934 4.675,3.52182 11.2,8.71208 14.5,11.53391 3.3,2.82183 12.75,10.20503 21,16.40711 18.0123,13.54107 23.5253,18.0867 33.9215,27.96941 8.326,7.9148 23.6821,23.65186 29.9325,30.67508 2.0288,2.27967 6.8481,6.32967 10.7096,9 14.4599,9.99938 24.9205,16.94056 29.6044,19.6442 2.6576,1.53398 7.4036,4.45898 10.5467,6.5 10.2803,6.6756 25.1201,15.77996 33.7853,20.7275 7.6919,4.39185 26.9896,17.13971 34.4534,22.75965 12.8833,9.70051 36.8021,29.33634 43.5159,35.7238 3.8451,3.65817 10.0307,11.53687 10.0307,12.77627 0,0.58865 1.2375,2.52662 2.75,4.30659 1.5125,1.77997 4.55,5.85505 6.75,9.05572 2.2,3.20068 7.4221,10.66636 11.6047,16.59042 12.6291,17.88736 15.2234,24.91339 17.0037,46.04974 1.7446,20.71414 0.6639,39.32056 -3.0042,51.72126 -3.0917,10.45224 -8.226,25.20187 -9.6078,27.60107 -5.91,10.26132 -11.0115,16.82017 -14.6917,18.88852 -2.2903,1.28726 -5.7709,3.78068 -7.7345,5.54093 -1.9636,1.76025 -7.8452,6.07558 -13.0702,9.58963 -5.225,3.51405 -13.5809,9.76208 -18.5686,13.88452 -11.7908,9.74535 -17.4657,13.81887 -24.386,17.50481 -3.1076,1.65521 -7.4266,4.40782 -9.5978,6.11692 -2.1712,1.7091 -5.7938,4.04268 -8.0504,5.18573 -7.0307,3.56149 -24.2935,17.68766 -28.4931,23.31607 -15.9459,21.37076 -20.5951,37.54873 -22.9695,79.92716 -1.3346,23.82096 -0.7573,30.4988 3.5545,41.11001 2.5088,6.17437 10.117,18.96135 13.3406,22.42148 1.053,1.1302 2.9845,3.65217 4.2924,5.60438 1.3078,1.95221 4.8529,6.49199 7.8779,10.08841 11.1247,13.2261 16,24.07837 16,35.61533 0,8.63733 -4.2252,26.62725 -8.0189,34.14254 -6.061,12.00679 -21.5752,29.88009 -34.4956,39.74109 -5.1015,3.8935 -19.5955,13.3316 -21.333,13.8915 -0.9089,0.2929 -4.8025,2.0659 -8.6525,3.9401 -5.4702,2.6628 -9.0762,3.6292 -16.5,4.4217 -5.225,0.5577 -12.425,1.4716 -16,2.0308 -12.875,2.0139 -19.3017,2.1405 -22.5,0.4431 z m -213.75,-202.16808 c 0.6875,-0.27741 1.8125,-0.27741 2.5,0 0.6875,0.27741 0.125,0.50439 -1.25,0.50439 -1.375,0 -1.9375,-0.22698 -1.25,-0.50439 z m 21.5,-1.06619 c 2.0625,-0.21574 5.4375,-0.21574 7.5,0 2.0625,0.21575 0.375,0.39226 -3.75,0.39226 -4.125,0 -5.8125,-0.17651 -3.75,-0.39226 z m 27.75,-1.13016 c 0.825,-0.48207 7.8,-1.12037 15.5,-1.41844 7.7918,-0.30162 12.2262,-0.19489 10,0.24069 -6.1878,1.21069 -27.2187,2.18203 -25.5,1.17775 z M 1039.0235,691 c 0,-0.55 0.7016,-1 1.559,-1 0.8575,0 1.2809,0.45 0.941,1 -0.3399,0.55 -1.0415,1 -1.559,1 -0.5176,0 -0.941,-0.45 -0.941,-1 z m 279.6905,-13.45238 c -0.7988,-0.79881 -1.6563,-1.24848 -1.9055,-0.99928 -0.571,0.57104 -5.785,-5.218 -5.785,-6.42305 0,-1.83911 3.702,-1.83205 4.852,0.009 1.2852,2.05795 4.148,2.54022 4.148,0.69878 0,-0.64166 0.3375,-0.82668 0.75,-0.41113 0.4125,0.41554 0.75,1.95304 0.75,3.41666 0,1.55087 0.5065,2.56184 1.214,2.42314 0.7016,-0.13754 0.973,0.39009 0.643,1.25 -0.7255,1.89076 -2.7956,1.90656 -4.6665,0.0356 z m 3.3095,-2.9886 c 0,-0.24254 0.45,-0.7191 1,-1.05902 0.55,-0.33992 1,-0.14148 1,0.44098 0,0.58246 -0.45,1.05902 -1,1.05902 -0.55,0 -1,-0.19844 -1,-0.44098 z m -28.608,-2.13826 c 0.4993,-1.30103 0.078,-1.46332 -2.3899,-0.92122 -2.6251,0.57656 -2.9035,0.43164 -2.249,-1.17076 1.5455,-3.78414 3.7895,-6.32878 5.5811,-6.32878 1.0192,0 2.0884,-0.9 2.3761,-2 0.2876,-1.1 0.9955,-2 1.573,-2 0.5775,0 0.7679,0.28216 0.423,0.62702 -0.3448,0.34485 0,2.13503 0.7732,3.97816 0.8323,1.99197 1.019,3.58672 0.4603,3.932 -0.5169,0.31947 -0.9467,1.5668 -0.9551,2.77184 -0.01,1.20504 -0.3459,1.74098 -0.75,1.19098 -1.192,-1.6225 -3.2347,-1.6225 -3.2347,0 0,0.825 -0.4981,1.5 -1.107,1.5 -0.6088,0 -0.8343,-0.71066 -0.501,-1.57924 z M 1291.0235,662 c 0,-0.55 0.45,-1 1,-1 0.55,0 1,0.45 1,1 0,0.55 -0.45,1 -1,1 -0.55,0 -1,-0.45 -1,-1 z m 167.5255,-3.41667 c 0.8514,-1.14583 1.799,-2.83272 2.1058,-3.74864 0.3067,-0.91591 1.6932,-1.95031 3.0812,-2.29866 2.8885,-0.72497 4.4052,0.0978 1.9306,1.04742 -0.9037,0.34679 -1.6431,1.28394 -1.6431,2.08256 0,0.79861 0.45,1.17391 1,0.83399 0.55,-0.33992 1,0.0835 1,0.94098 0,1.8744 -2.0842,2.03757 -3.9472,0.30902 -1.1013,-1.0219 -1.2311,-0.92118 -0.7114,0.55194 0.3779,1.07114 0.2348,1.55416 -0.3529,1.19098 -0.5437,-0.33602 -0.9885,-0.2094 -0.9885,0.2814 0,0.49079 -0.6801,0.89235 -1.5113,0.89235 -1.3367,0 -1.3324,-0.24078 0.037,-2.08334 z m -3.5255,-3.02431 c 0,-1.05548 1.9191,-1.49891 2.4899,-0.57533 0.3455,0.55897 -0.073,1.01631 -0.9309,1.01631 -0.8574,0 -1.559,-0.19844 -1.559,-0.44098 z m 15.5966,-11.40279 c -0.3461,-0.55992 -0.1419,-1.31919 0.4536,-1.68727 1.5375,-0.95021 2.5295,0.35135 1.246,1.63484 -0.7182,0.71818 -1.2775,0.73543 -1.6996,0.0524 z M 108.52355,640.79218 c -2.23239,-1.28027 -4.5586,-4.06692 -3.92437,-4.70114 0.22666,-0.22666 1.28508,0.37792 2.35204,1.34351 1.06697,0.96558 3.65723,2.36807 5.75613,3.11664 3.74024,1.33394 3.75649,1.36129 0.8162,1.37451 -1.65,0.007 -3.9,-0.50267 -5,-1.13352 z m 15.91982,-2.92191 c -0.42521,-0.68801 -0.15504,-0.94257 0.69098,-0.65106 0.76406,0.26327 3.7517,-0.84631 6.6392,-2.46573 6.29407,-3.52995 6.83815,-2.91648 1.09996,1.24025 -4.33676,3.14153 -7.24784,3.78954 -8.43014,1.87654 z M 97.173977,630.66013 C 94.123739,627.4133 91.764905,619 93.90483,619 c 0.484707,0 1.371761,1.94786 1.971231,4.32857 0.59947,2.38071 2.035553,5.53071 3.191295,7 2.587784,3.28983 1.126224,3.54577 -1.893379,0.33156 z m 45.849573,-2.70979 c 0,-1.64338 3.08637,-7.1973 3.6734,-6.61027 0.7857,0.78569 -1.68309,7.65993 -2.75095,7.65993 -0.50735,0 -0.92245,-0.47235 -0.92245,-1.04966 z m 834,-5.89132 c 0,-0.58246 0.45,-1.05902 1,-1.05902 0.55,0 1,0.19844 1,0.44098 0,0.24254 -0.45,0.7191 -1,1.05902 -0.55,0.33992 -1,0.14148 -1,-0.44098 z M 90.219714,611.5 c -0.047,-5.3396 1.758894,-11.65169 3.499564,-12.23191 0.689554,-0.22985 0.607316,1.14198 -0.236173,3.93963 C 92.77134,605.56847 91.755803,609.525 91.226357,612 l -0.96263,4.5 -0.04401,-5 z m 59.487166,1.85 c -1.07782,-1.07783 -0.81254,-9.54789 0.27794,-8.87394 1.40818,0.87031 2.4474,7.51527 1.34737,8.6153 -0.51809,0.51809 -1.24947,0.63447 -1.62531,0.25864 z M 142.25351,590 c -1.40279,-2.8353 -1.6123,-4 -0.71951,-4 1.50486,0 4.48955,4.29787 4.48955,6.46482 0,2.76044 -1.75127,1.61548 -3.77004,-2.46482 z m -21.94175,-25.52086 c -3.85373,-1.62038 -4.84886,-4.49429 -2.87672,-8.30798 2.35262,-4.54946 8.79224,-5.81349 11.93352,-2.34242 2.02499,2.23758 2.06555,3.47665 0.22999,7.02623 -2.03503,3.93531 -5.41227,5.25328 -9.28679,3.62417 z m 5.9061,-5.00627 c 1.341,-2.94317 -0.058,-5.12287 -2.64977,-4.12833 -2.23622,0.85811 -2.99351,3.40956 -1.53397,5.16819 1.76248,2.12367 2.86748,1.84903 4.18374,-1.03986 z M 105.51129,558.25 c -2.49783,-3.1625 -5.72704,-8.153 -7.176017,-11.09001 -3.070227,-6.2232 -2.522702,-9.62625 1.951477,-12.12906 2.43802,-1.3638 3.02641,-1.36717 5.38964,-0.0309 6.35999,3.59614 8.74178,12.69641 4.86969,18.60596 -1.58653,2.42135 -1.54781,2.67212 0.91022,5.89476 3.08811,4.04872 3.14638,4.49928 0.58187,4.49928 -1.22376,0 -3.72755,-2.20577 -6.52688,-5.75 z m 2.53701,-8.8151 c 1.50951,-3.97032 1.16826,-6.91981 -1.14014,-9.85447 -2.87424,-3.65399 -6.27799,-3.18502 -6.67418,0.91957 -0.282491,2.92656 4.21877,11.5 6.03776,11.5 0.44072,0 1.24017,-1.15429 1.77656,-2.5651 z m 884.8122,-85.41111 c -3.63493,-1.09785 -12.83695,-6.17 -12.83695,-7.07573 0,-1.83327 3.61143,-1.81206 6.89338,0.0405 1.98364,1.1197 5.58031,2.97846 7.9926,4.13057 3.26195,1.55792 4.03078,2.3197 3,2.9725 -1.5847,1.00359 -1.49765,1.00476 -5.04903,-0.0678 z m 70.3185,-7.55323 c -1.0943,-1.39119 -2.2915,-4.31619 -2.6605,-6.5 -0.702,-4.15517 -1.345,-4.72052 -3.2278,-2.83778 -0.623,0.62303 -1.838,0.86216 -2.7,0.53139 -2.7302,-1.04767 -1.7001,-3.71071 2.0398,-5.27333 3.258,-1.36128 3.7802,-1.35038 5.3968,0.11261 0.9844,0.89085 2.28,3.56647 2.8791,5.94582 1.0169,4.03831 3.2242,6.22061 5.1119,5.05394 0.4479,-0.2768 2.2111,-2.97826 3.9183,-6.00324 3.6166,-6.40833 5.1046,-7.04013 4.1214,-1.74997 -2.0423,10.98815 -10.1011,16.79466 -14.879,10.72056 z m -24.9909,-2.16713 c -4.3251,-2.12139 -9.694,-10.12825 -12.2011,-18.19597 l -1.9865,-6.39253 2.5266,-4.31136 c 3.1422,-5.36169 5.9787,-7.40357 10.2846,-7.40357 11.8985,0 20.1129,16.909 14.3311,29.5 -3.284,7.15154 -7.6115,9.42419 -12.9547,6.80343 z m 7.8464,-6.55343 c 2.5778,-4.22794 2.6995,-13.82727 0.2374,-18.73609 -2.7765,-5.53602 -10.179,-7.94044 -13.677,-4.44248 -2.201,2.20107 -2.0054,10.91461 0.3577,15.92857 2.2109,4.69093 7.5421,10.5 9.6363,10.5 0.8052,0 2.3557,-1.4625 3.4456,-3.25 z m 245.989,2.47689 c 0,-1.08035 4.7212,-2.15827 12,-2.73976 2.475,-0.19772 4.5,-0.41405 4.5,-0.48072 0,-0.0667 2.025,-0.30238 4.5,-0.52382 2.475,-0.22143 6.975,-0.63794 10,-0.92557 16.0626,-1.52733 18.4555,-1.62325 16.9748,-0.68042 -0.8388,0.53414 -3.5388,1.21729 -6,1.51813 -2.4611,0.30083 -9.4248,1.19762 -15.4748,1.99286 -17.9899,2.36467 -26.5,2.95534 -26.5,1.8393 z m 50.7231,-5.35499 c 0.7538,-0.93183 3.2389,-1.604 6.4764,-1.75173 2.8894,-0.13184 4.9528,0.0609 4.5854,0.42825 -0.3674,0.36738 -2.6821,0.79474 -5.1438,0.94969 -2.4617,0.15495 -5.0755,0.64264 -5.8085,1.08377 -1.0727,0.6456 -1.094,0.50712 -0.1095,-0.70998 z m 13.0769,-2.0719 c 0.9333,-0.93333 1.4667,-0.93333 2.4,0 0.9333,0.93333 0.6667,1.2 -1.2,1.2 -1.8667,0 -2.1333,-0.26667 -1.2,-1.2 z m -393.96731,-0.83385 c -1.71929,-1.00334 -8.83264,-10.20016 -8.83264,-11.41968 0,-0.37706 0.98969,-0.54177 2.19932,-0.36602 1.94395,0.28245 10.65096,10.04901 10.76015,12.06955 0.056,1.0364 -2.12109,0.88666 -4.12683,-0.28385 z m 400.43811,0.42968 c 0.3323,-0.33229 1.1948,-0.36781 1.9167,-0.0789 0.7977,0.31922 0.5608,0.55618 -0.6042,0.60416 -1.0541,0.0434 -1.6448,-0.19293 -1.3125,-0.52522 z m -6.2836,-14.42116 c -4.0156,-7.95495 -6.3178,-16.97898 -5.1265,-20.09492 1.2768,-3.33968 4.2264,-5.74717 7.9549,-6.49287 4.2803,-0.85606 4.0593,0.89499 -0.3125,2.47584 -4.9694,1.79694 -6.28,7.90313 -1.7334,8.07569 0.9517,0.0361 4.2053,0.43228 7.2303,0.88036 l 5.5,0.81469 -3,1.2895 c -2.172,0.93359 -4.035,1.02252 -6.75,0.3222 -2.0625,-0.53201 -3.75,-0.68205 -3.75,-0.33342 0,0.34863 1.35,4.13978 3,8.42476 3.3806,8.77923 3.6482,10.6635 1.5144,10.6635 -0.8171,0 -2.8543,-2.7114 -4.5272,-6.02533 z m 56.2848,1.81314 c 0.1755,-1.4917 0.6361,-3.0292 1.0235,-3.41666 1.0917,-1.09172 0.8005,2.94047 -0.3343,4.62885 -0.7778,1.15715 -0.9353,0.88009 -0.6892,-1.21219 z m -32.2086,-7.34801 c -2.2507,-6.01539 -3.9999,-12.84671 -4.039,-15.77313 -0.049,-3.65402 2.4647,-0.88929 4.0079,4.40869 1.4124,4.84898 1.8394,5.38773 4.0239,5.07686 1.3441,-0.19128 2.619,-0.51652 2.8332,-0.72275 0.2142,-0.20624 -0.3821,-3.12466 -1.3251,-6.48539 -1.6541,-5.89542 -1.5225,-9.6543 0.2988,-8.52871 0.4824,0.29817 1.8905,3.2517 3.129,6.56338 1.2384,3.31169 2.8095,6.02125 3.4912,6.02125 0.7781,0 1.064,0.91747 0.7681,2.46526 -0.2592,1.35589 0.023,3.88258 0.6267,5.61487 0.6039,1.73228 0.8337,3.57723 0.5106,4.09988 -0.7223,1.16877 -4.3887,-1.98572 -4.3887,-3.77598 0,-1.88155 -1.7833,-2.67522 -4.4866,-1.99674 -2.151,0.53985 -2.286,0.89888 -1.4432,3.83754 1.2316,4.29445 1.1834,4.75517 -0.4984,4.75517 -0.8168,0 -2.3185,-2.3799 -3.5084,-5.5602 z M 936.46974,408.25 c -3.51737,-3.61366 -7.44619,-10.05608 -7.44619,-12.21016 0,-0.57191 0.9,-1.03984 2,-1.03984 1.1,0 2,0.37633 2,0.8363 0,0.45996 2.01537,3.94746 4.4786,7.75 2.46323,3.80253 4.48823,7.2512 4.5,7.6637 0.0484,1.69459 -2.09328,0.53327 -5.53241,-3 z m -19.15902,-31.5 c -2.44145,-2.66474 -6.28717,-10.06798 -6.28717,-12.10317 0,-0.78807 0.62896,-1.67421 1.3977,-1.9692 1.20725,-0.46327 4.77319,5.99122 8.32709,15.07237 0.78928,2.01682 -1.20516,1.43664 -3.43762,-1 z m 77.22291,-33.73369 c -0.34546,-0.55897 0.0734,-1.01631 0.9309,-1.01631 1.75653,0 2.01516,0.60006 0.62812,1.45729 -0.512,0.31644 -1.21356,0.11799 -1.55902,-0.44098 z m -92.29209,-5.64733 c -2.75331,-5.4795 -4.87166,-19.87643 -3.21783,-21.86918 0.6846,-0.82489 1.56185,-1.4998 1.94943,-1.4998 0.38759,0 1.26889,4.31225 1.95844,9.58278 0.68955,5.27053 1.72324,10.92963 2.29708,12.57577 1.7212,4.93741 -0.63472,5.89207 -2.98712,1.21043 z m 96.29209,1.64733 c -0.34546,-0.55897 0.0734,-1.01631 0.9309,-1.01631 1.75647,0 2.01507,0.60006 0.62807,1.45729 -0.51195,0.31644 -1.21351,0.11799 -1.55897,-0.44098 z m 1.96997,-34.99594 c 0.2275,-3.08806 1.5199,-3.67226 1.5199,-0.68704 0,1.46667 -0.3748,2.66667 -0.8329,2.66667 -0.4581,0 -0.7672,-0.89083 -0.687,-1.97963 z M 895.92172,292.25 c -1.83141,-5.46392 -1.78497,-17.08292 0.0729,-18.23167 0.80907,-0.50027 1.54064,-0.82155 1.62571,-0.71396 0.0851,0.1076 0.47353,5.25813 0.86324,11.44563 0.74316,11.79894 -0.19767,14.55331 -2.56182,7.5 z m -2.20356,-32.88872 c -1.07107,-1.07107 -0.82176,-18.27934 0.36114,-24.92762 1.49805,-8.41949 1.88707,-9.43366 3.61863,-9.43366 0.93103,0 1.32061,0.57068 0.98558,1.44375 -0.30471,0.79406 -1.0977,8.10656 -1.7622,16.25 -1.19341,14.62537 -1.84658,18.0241 -3.20315,16.66753 z m 45.64298,-36.79863 c 0.30335,-0.79054 0.014,-1.62137 -0.64302,-1.84629 -0.65701,-0.22492 -0.52474,-0.36044 0.29395,-0.30117 1.75902,0.12736 2.7021,3.58481 0.97782,3.58481 -0.64918,0 -0.93211,-0.64681 -0.62875,-1.43735 z M 954.52355,222 c 0.33992,-0.55 1.06803,-1 1.61803,-1 0.55,0 0.72189,0.45 0.38197,1 -0.33992,0.55 -1.06803,1 -1.61803,1 -0.55,0 -0.72189,-0.45 -0.38197,-1 z m -24.25,-3.24675 c -3.31673,-1.06398 -4.05129,-2.13999 -2.22953,-3.2659 0.56126,-0.34688 2.39579,0.52656 4.07673,1.94098 3.30133,2.77789 3.10997,2.91514 -1.8472,1.32492 z M 894.9988,212.4349 c -1.27574,-3.35544 -1.18964,-6.35457 0.44311,-15.4349 2.08463,-11.59344 3.49478,-16 5.12018,-16 1.78584,0 1.78537,0.0647 -0.0545,7.5 -0.81657,3.3 -1.77734,10.6125 -2.13505,16.25 -0.65477,10.31933 -1.57512,12.41573 -3.37378,7.6849 z m 5.43731,-45.92725 c -0.71694,-2.85654 0.84727,-16.28854 2.65666,-22.81293 0.58042,-2.0929 1.7217,-4.06099 2.53618,-4.37354 2.10178,-0.80653 2.72701,0.18919 1.52688,2.43166 -0.56637,1.05827 -1.98112,7.5001 -3.14388,14.31517 -1.16277,6.81508 -2.28893,12.56586 -2.50259,12.77952 -0.21366,0.21366 -0.69662,-0.83929 -1.07325,-2.33988 z M 908.03393,128.25 c 0.0359,-2.59191 7.25774,-24.13215 8.76995,-26.15759 3.32497,-4.453441 4.47516,-3.533648 1.93895,1.55056 -1.33258,2.67137 -3.92871,9.46953 -5.76918,15.10703 -1.84048,5.6375 -3.70717,10.25 -4.14821,10.25 -0.44104,0 -0.79722,-0.3375 -0.79151,-0.75 z m 244.03057,-17.17346 c -0.5662,-1.0579 -1.7544,-6.50056 -2.6404,-12.094797 -1.255,-7.923298 -1.3448,-10.426657 -0.4067,-11.32654 0.9221,-0.884494 1.9427,-0.230247 4.3552,2.791878 6.1864,7.749615 9.5034,11.033779 10.321,10.218779 1.594,-1.589064 1.6026,-22.248644 0.012,-27.676297 -1.7371,-5.925556 -0.2465,-6.465634 2.5667,-0.930012 1.3555,2.667152 1.7488,5.958494 1.75,14.643396 9e-4,6.161621 -0.5033,12.310981 -1.1203,13.665243 -2.0917,4.5908 -5.9534,3.98012 -11.205,-1.771922 -2.0758,-2.273638 -2.6543,-2.564899 -2.1776,-1.096268 1.3252,4.08291 1.8296,15.5 0.6847,15.5 -0.6104,0 -1.5731,-0.86556 -2.1392,-1.92346 z M 921.42164,90.75 c 1.05582,-5.294713 7.7996,-18.760344 10.43274,-20.831573 3.64874,-2.870097 4.9206,-2.312187 1.90485,0.835575 -2.65549,2.771734 -8.99066,15.429438 -10.26637,20.512239 -0.98806,3.93677 -2.86587,3.468737 -2.07122,-0.516241 z M 1132.1814,63 c 0,-1.375 0.227,-1.9375 0.5044,-1.25 0.2774,0.6875 0.2774,1.8125 0,2.5 -0.2774,0.6875 -0.5044,0.125 -0.5044,-1.25 z M 941.02355,61.840211 c 0,-2.634867 6.33546,-11.296185 8.5,-11.620504 1.83673,-0.275202 1.86258,-0.189337 0.31666,1.051815 -0.92584,0.743314 -3.28834,3.788543 -5.25,6.767175 -1.96166,2.978633 -3.56666,4.689314 -3.56666,3.801514 z M 959.76008,41.5 c 1.13737,-1.65 3.298,-4.125 4.80142,-5.5 2.2424,-2.050862 2.54419,-2.140689 1.67984,-0.5 -0.5795,1.1 -2.74013,3.575 -4.80141,5.5 -3.63733,3.396858 -3.68684,3.411593 -1.67985,0.5 z m 74.82772,-5.793128 c 0.3755,-0.986221 0.9347,-1.541221 1.2426,-1.233333 0.3079,0.307887 6e-4,1.114794 -0.6828,1.793128 -0.9876,0.980267 -1.1025,0.865403 -0.5598,-0.559795 z m 92.1842,-13.919871 c -0.2738,-0.713641 0.1207,-1.875401 0.8768,-2.581691 1.1271,-1.052831 1.3747,-1.006848 1.3747,0.255263 0,0.846685 0,1.876927 0,2.289427 0,1.341675 -1.7399,1.370268 -2.2515,0.037 z"
     id="path3007"
     style="fill:#000000" />
</svg>
