<?xml version="1.0" encoding="UTF-8" standalone="no"?>
<!-- Created with Inkscape (http://www.inkscape.org/) -->

<svg
   xmlns:dc="http://purl.org/dc/elements/1.1/"
   xmlns:cc="http://creativecommons.org/ns#"
   xmlns:rdf="http://www.w3.org/1999/02/22-rdf-syntax-ns#"
   xmlns:svg="http://www.w3.org/2000/svg"
   xmlns="http://www.w3.org/2000/svg"
   version="1.1"
   width="1834.8367"
   height="1860.8687"
   id="svg2987">
  <metadata
     id="metadata2993">
    <rdf:RDF>
      <cc:Work
         rdf:about="">
        <dc:format>image/svg+xml</dc:format>
        <dc:type
           rdf:resource="http://purl.org/dc/dcmitype/StillImage" />
        <dc:title></dc:title>
      </cc:Work>
    </rdf:RDF>
  </metadata>
  <defs
     id="defs2991" />
  <path
     d="m 1174.2952,1860.0147 c -18.8965,-0.7002 -43.2711,-3.6146 -43.2711,-5.1738 0,-1.1746 9.3852,-0.9482 28.6225,0.6904 9.4174,0.8021 26.2924,1.7456 37.5,2.0966 l 20.3775,0.6381 18,-3.6163 c 20.1862,-4.0556 30.2834,-6.5315 42,-10.2986 5.344,-1.7183 11.486,-2.7896 18.5,-3.227 7.7266,-0.4818 11.6886,-1.2293 15,-2.8301 2.475,-1.1964 7.78,-2.8639 11.7889,-3.7054 4.0089,-0.8415 8.528,-2.1708 10.0425,-2.954 1.5144,-0.7832 5.5623,-1.9333 8.9953,-2.5558 3.433,-0.6225 8.2887,-2.0092 10.7904,-3.0816 2.5018,-1.0724 5.2309,-1.9498 6.0647,-1.9498 0.8338,0 2.9339,-0.647 4.6671,-1.4377 1.7331,-0.7907 6.8665,-2.1165 11.4075,-2.9462 7.9375,-1.4503 24.1042,-7.1682 28.605,-10.1172 1.1899,-0.7797 6.7968,-3.444 12.4596,-5.9206 5.6629,-2.4767 11.9635,-5.8236 14.0014,-7.4377 2.038,-1.614 7.5241,-4.749 12.1915,-6.9667 4.8187,-2.2895 10.6469,-6.0419 13.4861,-8.6828 2.75,-2.5579 6.6143,-6.0773 8.5872,-7.8209 5.4043,-4.776 21.0383,-28.878 19.6395,-30.2769 -0.5841,-0.5841 -29.2757,-4.3469 -41.2267,-5.4068 -5.5,-0.4878 -15.85,-1.5965 -23,-2.4637 -7.15,-0.8673 -16.825,-1.9957 -21.5,-2.5077 -4.675,-0.512 -14.575,-1.6236 -22,-2.4703 -7.425,-0.8467 -21.825,-2.4289 -32,-3.5161 -10.175,-1.0872 -20.525,-2.2277 -23,-2.5345 -2.475,-0.3068 -6.525,-0.7801 -9,-1.0519 -2.475,-0.2718 -9.7514,-1.1999 -16.1697,-2.0625 -6.4184,-0.8625 -15.6192,-1.6384 -20.4462,-1.724 l -8.7765,-0.1558 -0.8092,3.5 c -0.7626,3.2985 -4.1127,29.0254 -12.3708,95 -1.962,15.675 -3.9891,28.9307 -4.5046,29.4571 -0.5943,0.6069 -1.5012,0.3932 -2.4783,-0.5838 -1.3856,-1.3857 -1.3882,-2.7931 -0.025,-13.9572 0.8337,-6.8288 2.2089,-18.7161 3.056,-26.4161 1.5503,-14.0936 6.6197,-58.0027 8.9474,-77.5 0.6895,-5.775 0.9742,-10.8297 0.6326,-11.2327 -0.3415,-0.4029 -4.2062,-1.1288 -8.5883,-1.6129 -6.3038,-0.6966 -8.5628,-0.5794 -10.8193,0.5611 -2.6064,1.3173 -3.0381,1.2667 -5.0113,-0.5871 -1.1875,-1.1156 -3.9541,-2.2783 -6.1479,-2.5838 -7.771,-1.0819 -53.0853,-6.4692 -59.4888,-7.0724 -3.575,-0.3368 -12.8,-1.4783 -20.5,-2.5367 -7.7,-1.0584 -22.0957,-2.8394 -31.9905,-3.9578 -9.8948,-1.1184 -29.0198,-3.3612 -42.5,-4.984 -13.4802,-1.6228 -30.5845,-3.6576 -38.0095,-4.5217 -7.425,-0.8642 -18.45,-2.1913 -24.5,-2.9492 -6.05,-0.758 -15.72495,-1.8949 -21.49995,-2.5266 -5.775,-0.6316 -15.45,-1.8027 -21.5,-2.6024 -13.85067,-1.8308 -16.3808,-2.1208 -25,-2.8655 -3.85,-0.3327 -15.775,-1.7004 -26.5,-3.0393 -10.725,-1.339 -31.2,-3.809 -45.5,-5.4889 -34.2427,-4.0227 -72.04958,-8.5617 -92.5,-11.1054 -9.075,-1.1288 -24.15,-2.917 -33.5,-3.9738 -22.14363,-2.5028 -89.48773,-10.414 -105.5,-12.3935 -6.875,-0.8499 -18.125,-2.206 -25,-3.0135 -22.23036,-2.611 -71.27486,-8.4791 -79.5,-9.5121 -4.4,-0.5526 -17.9,-2.131 -30,-3.5075 -12.1,-1.3765 -26.95,-3.1429 -33,-3.9253 -47.93677,-6.1998 -73.88314,-8.9196 -74.26156,-7.7843 -0.55273,1.6582 -3.23844,1.5446 -3.23844,-0.137 0,-0.9751 -2.99876,-1.7007 -10.75,-2.6014 -5.9125,-0.687 -26.95,-3.2617 -46.75,-5.7215 -19.8,-2.4599 -42.075,-4.8429 -49.5,-5.2957 -10.26123,-0.6257 -16.13228,-1.5708 -24.47199,-3.9398 -10.13021,-2.8775 -15.7771,-3.4879 -27.02801,-2.9215 -2.00264,0.1008 -21.94607,-2.1668 -58.5,-6.6516 -49.91508,-6.1241 -58.76482,-6.9563 -60.31273,-5.6716 -1.85721,1.5413 -2.98916,9.6142 -6.19133,44.1554 -0.84131,9.075 -1.96723,19.65 -2.50205,23.5 -1.71734,12.3626 -4.04003,32.3588 -4.68019,40.2919 -0.84736,10.501 -1.48016,12.4579 -4.16073,12.867 -2.729802,0.4166 -2.872723,2.9434 2.29976,-40.6589 2.7095,-22.8401 5.52489,-49.3449 6.58576,-62 0.57633,-6.875 1.3003,-14.1672 1.60882,-16.2048 0.49763,-3.2866 0.29521,-3.7662 -1.79318,-4.2486 -2.85566,-0.6596 -21.009755,-3.0925 -37.35413,-5.0058 -6.6,-0.7727 -17.625,-2.1072 -24.5,-2.9658 -6.875,-0.8585 -16.55,-2.0423 -21.5,-2.6307 -25.22506072,-2.9984 -25.50010014,-3.0643 -25.50010014,-6.1128 0,-3.2083 -1.70332066,-3.2127 23.50000014,0.061 8.25,1.0715 19.725,2.4565 25.5,3.0779 5.775,0.6213 17.025,1.9805 25,3.0203 21.009901,2.7393 36.98694,4.3561 37.5439,3.7991 0.49237,-0.4923 2.042,-12.6634 4.93868,-38.7894 3.40026,-30.6678 5.51473,-48.7636 6.48511,-55.5 0.5546,-3.85 2.14494,-16.45 3.53411,-28 1.38916,-11.55 3.18051,-26.175 3.98077,-32.5 1.78423,-14.102 5.01827,-43.5108 6.48815,-59 0.60022,-6.325 1.50566,-14.65 2.01208,-18.5 0.50642,-3.85 1.16668,-9.25 1.46723,-12 1.7665,-16.1633 8.80706,-73.4869 10.00994,-81.5 0.78434,-5.225 2.13606,-16.25 3.00382,-24.5 0.86776,-8.25 2.24252,-19.95 3.05504,-26 0.81251,-6.05 2.39755,-19.775 3.52231,-30.5 1.82944,-17.4443 3.05229,-28.2871 8.51489,-75.5 0.82726,-7.15 2.62148,-22.225 3.98714,-33.5 1.36566,-11.275 3.39374,-28.15 4.50682,-37.5 1.11309,-9.35 2.89451,-24.20003 3.9587,-33.00003 2.43002,-20.09422 4.1019,-34.75073 8.55529,-75 1.94736,-17.6 3.94891,-35.15 4.44791,-39 0.49899,-3.85 1.15952,-9.475 1.46785,-12.5 1.03844,-10.18818 3.57924,-31.44367 4.64791,-38.88282 0.81781,-5.69299 0.78017,-7.55612 -0.16446,-8.13993 -0.67377,-0.41641 -6.22862,-1.47607 -12.34411,-2.3548 -13.90322,-1.99773 -57.16419,-8.34263 -68.94288,-10.11156 -4.85309,-0.72883 -9.09059,-1.59195 -9.41667,-1.91802 -1.8261,-1.82611 2.69819,-1.76855 19.52485,0.24842 10.29359,1.23386 21.80959,2.51968 25.5911,2.85737 l 6.87548,0.61398 -1.51094,-2.40632 c -1.74113,-2.77293 -10.03963,-26.10288 -11.79871,-33.17023 -1.37961,-5.5428 -0.76472,-9.66771 2.14231,-14.37139 1.69454,-2.74182 2.7029,-3.3647 5.44705,-3.3647 5.65859,0 9.58046,6.85354 11.03187,19.27838 0.48221,4.12797 1.2025,6.06069 2.52187,6.76679 1.51815,0.81249 2.118,0.46409 3.37026,-1.95751 3.70096,-7.15686 13.37833,-4.14541 15.13236,4.70897 l 0.65305,3.29663 3.54663,-3.54663 c 6.59105,-6.59106 7.52171,-3.1021 1.41067,5.28851 -4.61598,6.33786 -10.38373,8.34248 -16.43895,5.71349 -1.23616,-0.5367 -1.92039,-0.21817 -2.35776,1.09762 -0.33891,1.01956 -1.73957,4.24439 -3.11257,7.16628 -1.37301,2.92189 -2.27328,5.53562 -2.0006,5.8083 0.65276,0.65277 15.32503,2.97904 24.36598,3.86319 8.51573,0.8328 7.69307,2.17446 9.80083,-15.98402 0.82994,-7.15 1.95421,-16.15 2.49838,-20 0.54417,-3.85 1.44936,-11.275 2.01154,-16.5 0.56217,-5.225 2.16601,-19.175 3.56409,-31 2.43589,-20.60294 3.91508,-32.64989 8.47219,-69 1.13771,-9.075 2.53791,-20.55 3.11157,-25.5 0.57365,-4.95 1.6591,-13.95 2.41211,-20 0.753,-6.05 1.65194,-14.15 1.99763,-18 0.3457,-3.85 1.51502,-14.15719 2.59849,-22.90486 1.08348,-8.74768 1.61215,-16.23371 1.17483,-16.63562 -0.43733,-0.40191 -23.05549,-3.51463 -50.26259,-6.91714 -27.2071,-3.40251 -50.1571,-6.63308 -51,-7.17904 -2.0703,-1.34097 0.50595,-1.08954 57.46745,5.60867 35.98059,4.23102 43.53195,4.89866 44.46053,3.9309 0.47648,-0.4966 1.8465,-9.45291 3.04448,-19.90291 1.19797,-10.45 2.5387,-22.15 2.9794,-26 1.17862,-10.29661 4.85904,-39.92489 5.96256,-48 0.96112,-7.03307 1.68333,-13.15132 2.53791,-21.5 0.40858,-3.99153 1.27087,-11.03037 4.4714,-36.5 0.48379,-3.85 2.73971,-22.75 5.01315,-42 2.27343,-19.25 6.81416,-56.5587 10.09049,-82.90822 3.27634,-26.34952 5.73532,-48.12988 5.4644,-48.40079 -0.27091,-0.27092 -8.48721,-1.51502 -18.25845,-2.76468 -32.33458,-4.13533 -78.99921,-10.75275 -102.51587,-14.53758 -8.33729,-1.34183 -11.07143,-3.62152 -3,-2.50138 4.96972,0.6897 45.45067,5.41747 94.75,11.06586 15.95,1.82745 29.27166,3.1622 29.60369,2.96612 0.66895,-0.39506 1.70145,-7.82446 5.40883,-38.91933 1.37708,-11.55 3.63867,-30.45 5.02574,-42 1.38708,-11.55 3.42077,-28.65 4.51931,-38.000001 1.09854,-9.35 2.65035,-21.95 3.44848,-28 0.79812,-6.05 2.83609,-22.925 4.52881,-37.5 3.90491,-33.62276 3.28863,-31.00000013 7.28414,-31.00000013 l 3.2809,0 -1.81025,15.25000013 c -2.55822,21.55099 -8.36681,69.644188 -11.26253,93.250001 -12.66228,103.22256 -13.17211,108.5 -10.48185,108.5 0.4572,0 7.94656,0.8801 16.64301,1.95577 16.80735,2.07892 48.81801,5.79738 56.31172,6.54134 2.475,0.24571 10.125,1.12942 17,1.96379 6.875,0.83438 22.175,2.66029 34,4.05758 11.825,1.3973 37.925,4.54438 58,6.99353 20.075,2.44914 46.4,5.61179 58.5,7.0281 33.747,3.95012 45.33138,5.33156 53.5,6.37988 7.0351,0.90286 7.77125,0.81119 11.87595,-1.47874 6.39651,-3.56848 9.50244,-3.2026 4.87405,0.57417 -1.81091,1.4777 -1.95727,1.93631 -0.75,2.35004 2.07944,0.71261 18.98077,2.84238 64.5,8.12777 21.45,2.49064 49.8,5.85781 63,7.48261 27.40313,3.37307 75.17067,9.15328 153,18.51408 29.7,3.57212 57.375,6.95093 61.5,7.50847 4.125,0.55754 16.95,2.1461 28.5,3.53014 11.55,1.38403 26.4,3.17598 33,3.98209 31.96475,3.90413 71.35965,8.63645 83.49995,10.03045 7.425,0.85257 16.425,1.96384 20,2.46947 3.575,0.50564 10.55,1.38434 15.5,1.95267 12.72,1.46042 95.9241,11.67581 114.5,14.05775 17.6089,2.25793 20.3755,2.39561 19.4945,0.97009 -1.3519,-2.18744 0.9604,-5.16057 9.2784,-11.92969 7.874,-6.40792 12.2271,-8.59615 12.2271,-6.14643 0,0.50322 -2.3625,2.79098 -5.25,5.08393 -8.3317,6.61619 -14.957,13.20274 -14.0676,13.98542 0.9982,0.87848 7.5975,1.78178 54.8176,7.50337 20.35,2.46578 44.2,5.42599 53,6.57824 47.2038,6.18076 61.4437,7.89518 65.7309,7.91369 4.0904,0.0177 4.803,-0.28426 5.2626,-2.22958 0.2924,-1.2375 3.2226,-24.075 6.5116,-50.75 8.3046,-67.35332 15.9295,-124.00024 17.6331,-131 2.9376,-12.07057 -2.0672,39.52216 -9.1185,94 -0.8187,6.325 -2.1585,17.125 -2.9775,24 -2.7152,22.79482 -6.5467,54.44789 -7.0238,58.02513 -0.3185,2.38803 0.1518,4.54787 1.458,6.69574 2.0729,3.4086 2.4478,3.52833 16.5236,5.27731 59.8646,7.43844 61.4936,7.60782 61.5179,6.39642 0.019,-0.97226 2.2225,-14.99195 3.9905,-25.3946 2.2888,-13.46777 5.9669,-25.79468 10.3116,-34.55926 4.722,-9.52554 13.1603,-20.22971 19.267,-24.44074 4.6557,-3.21044 14.6487,-12.97151 20.4131,-19.93932 2.475,-2.99163 6.5249,-7.78036 8.9999,-10.64163 5.5934,-6.46633 16.701,-27.36775 15.0774,-28.37124 -0.8233,-0.50882 -0.6859,-2.57622 0.5066,-7.62299 1.3717,-5.80526 1.5496,-10.88582 1.0999,-31.42482 -0.295,-13.475 -1.0374,-29.45 -1.6498,-35.5 -4.3473,-42.95167 -6.6064,-63.040289 -8.0404,-71.500001 -0.9253,-5.459058 -2.5331,-20.526554 -3.5212,-33 -0.5099,-6.437181 -3.412,-38.453142 -3.6077,-39.8004216 -0.331,-2.27918393 0.4172,-3.19997853 2.6,-3.19997853 3.0295,0 4.5352,2.57887493 4.5352,7.76759193 0,4.7294102 0.633,5.4991772 3.3337,4.0538262 1.5304,-0.819044 2.1702,-0.809864 2.4518,0.03518 0.2097,0.628869 1.0187,1.143398 1.7978,1.143398 1.7014,0 1.7903,1.629749 0.3193,5.84959 -0.6036,1.73142 -1.5109,2.892477 -2.0163,2.580125 -0.5054,-0.312351 -0.66,-0.986817 -0.3436,-1.498813 0.3164,-0.511992 -0.3512,-0.930898 -1.4837,-0.930898 -1.8587,0 -2.6762,1.946683 -2.1895,5.213706 0.059,0.392539 0.3222,5.792539 0.5862,12 0.5902,13.883167 1.1591,19.572099 3.6785,36.786294 3.5112,23.990892 6.8166,50.998341 7.8211,63.904221 0.5392,6.92768 1.3324,16.87078 1.7625,22.09578 0.4302,5.225 0.7822,20.1072 0.7822,33.07156 l 0,23.57156 -7.4025,14.66682 c -4.0713,8.06675 -9.2463,16.86597 -11.5,19.55382 -2.2536,2.68786 -6.7975,8.18628 -10.0975,12.21872 -7.0655,8.63368 -13.3982,14.89992 -19.1608,18.95959 -15.0607,10.61017 -25.5449,33.20055 -29.6828,63.95793 -2.2551,16.76261 -2.5029,19.63119 -1.7942,20.76911 0.8162,1.31031 6.9835,2.87206 14.6378,3.70671 7.358,0.80235 23.4532,3.49026 25.5,4.25853 0.825,0.30966 2.5125,0.46391 3.75,0.34277 1.4714,-0.14403 2.25,0.32301 2.25,1.34959 0,1.36159 -1.4924,1.50682 -11.25,1.09472 -6.1875,-0.26132 -12.2515,-0.68258 -13.4755,-0.93614 -6.1685,-1.27781 -21.0411,-1.77196 -21.6908,-0.72068 -0.6984,1.13 1.4324,13.06917 6.0923,34.13539 1.4978,6.77156 4.4982,16.02286 7.2971,22.5 4.5249,10.47129 15.1297,29.2786 17.2757,30.6382 0.5541,0.351 0.7389,1.07268 0.4107,1.60371 -0.3282,0.53104 0.7967,3.16278 2.4999,5.84833 1.7031,2.68554 4.5555,7.81386 6.3387,11.39628 4.6091,9.25989 13.4563,25.24084 14.9548,27.01348 0.6975,0.825 2.8426,4.425 4.7671,8 13.6662,25.38776 19.0723,35.06261 19.8663,35.55336 0.5026,0.31057 0.9137,1.21926 0.9137,2.0193 0,0.80004 3.0375,6.42985 6.75,12.51068 13.3671,21.89445 16.081,26.5239 19.5899,33.41666 10.8219,21.25846 19.3081,35.83034 28.5928,49.09749 6.4779,9.25652 28.8893,38.8628 36.6398,48.40251 2.4577,3.025 7.1839,8.99324 10.5026,13.26276 3.3188,4.26951 7.0221,8.40112 8.2296,9.18134 1.2235,0.79066 8.3923,2.10367 16.1953,2.96631 7.7,0.85125 21.875,2.46824 31.5,3.59331 9.625,1.12507 22.225,2.49922 28,3.05366 14.8009,1.42099 43.1625,4.89107 45.25,5.5364 1.7952,0.55497 2.4189,3.87479 0.9039,4.81114 -0.4654,0.28762 -10.7029,-0.5895 -22.75,-1.94914 -67.2487,-7.58976 -84.7104,-9.45578 -88.484,-9.45578 l -4.1762,0 2.5909,3.25 c 1.425,1.7875 4.4842,6.38253 6.7983,10.21117 2.314,3.82864 7.8804,10.80364 12.3698,15.5 4.4894,4.69636 9.5355,10.56383 11.2135,13.03883 1.6781,2.475 4.0467,5.39648 5.2638,6.49218 6.24,5.61807 19.4872,29.11816 27.3441,48.50782 7.5902,18.73134 9.6888,29.1943 9.9005,49.35988 0.2938,27.98973 -1.3214,39.08593 -7.6939,52.85491 -2.6869,5.80543 -5.1948,9.08948 -12.3469,16.16792 -4.9364,4.88549 -10.4847,9.81107 -12.3295,10.94575 -3.9798,2.44775 -17.4339,13.46757 -20.5321,16.81708 -4.0234,4.34992 -9.7751,9.47344 -16.6356,14.81889 -3.7474,2.91979 -6.4474,5.66262 -6,6.09518 0.8941,0.86451 26.2787,4.64464 35.8134,5.33314 3.3,0.23829 7.575,0.88468 9.5,1.43642 1.925,0.55174 10.417,1.80256 18.8711,2.77956 15.2654,1.7642 18.1289,2.7199 18.1289,6.0506 0,1.1867 -0.8155,1.393 -3.75,0.9484 -2.0625,-0.3124 -20.4,-2.3818 -40.75,-4.5986 -20.35,-2.2169 -40.0162,-4.47074 -43.7027,-5.0086 -7.2498,-1.05776 -5.1114,-1.60541 -27.2973,6.991 -2.75,1.0656 -7.25,2.4279 -10,3.0274 -10.2011,2.2238 -30.1738,9.2707 -35.5,12.5253 -3.025,1.8485 -8.0433,4.7164 -11.1517,6.3731 -9.5233,5.0757 -18.7964,12.0817 -29.1687,22.0372 -11.6865,11.217 -17.8637,19.5073 -21.8803,29.3652 -5.976,14.667 -6.9733,26.0626 -4.2603,48.6803 4.4385,37.0018 4.9355,52.1988 2.3547,72 -2.86,21.9438 -11.0184,40.8711 -20.8483,48.3674 -5.0878,3.88 -23.9724,14.8225 -30.7954,17.8441 -2.3375,1.0351 -4.25,2.3323 -4.25,2.8826 0,0.5503 2.0899,2.8917 4.6441,5.2032 10.5852,9.5791 13.3776,12.9079 16.7004,19.9092 4.4615,9.4005 5.3553,14.0578 6.1973,32.2935 0.7918,17.1467 0.1458,20.8231 -5.0999,29.0233 -4.4943,7.0258 -13.8954,17.5712 -18.9419,21.2476 -9.5878,6.9847 -13.3769,12.494 -19.0716,27.7291 -7.5761,20.2688 -9.2318,28.2255 -10.3968,49.9641 -1.2268,22.8917 1.5851,48.3682 8.006,72.5359 9.0245,33.9674 13.6036,57.5408 15.1512,78 1.2521,16.5525 1.2899,18.1939 0.9219,40 -0.1731,10.2607 -0.8776,20.1111 -1.703,23.8121 -0.7742,3.4716 -1.4077,7.707 -1.4077,9.4121 0,1.705 -0.6652,5.3896 -1.4783,8.1879 -0.813,2.7983 -3.0599,10.9782 -4.9931,18.1775 -1.9331,7.1992 -5.5459,17.7337 -8.0284,23.4099 -2.4825,5.6762 -4.3206,10.5134 -4.0848,10.7493 0.9107,0.9107 8.7362,2.2267 25.0846,4.2186 9.35,1.1393 22.175,2.7339 28.5,3.5437 6.325,0.8097 13.75,1.716 16.5,2.014 7.8889,0.8547 35.661,4.4012 39.25,5.0122 1.7875,0.3043 3.25,0.9829 3.25,1.508 0,1.2407 -4.7347,1.2127 -12.3847,-0.073 -3.3634,-0.5654 -16.2403,-2.1358 -28.6153,-3.4899 -12.375,-1.3541 -27.45,-3.1097 -33.5,-3.9013 -6.05,-0.7917 -17.75,-2.1741 -26,-3.0721 -14.1343,-1.5386 -15.0577,-1.5335 -16,0.087 -0.55,0.9457 -2.9481,4.6861 -5.3292,8.312 -2.381,3.6259 -5.8384,9.0768 -7.6831,12.1133 -4.8289,7.9485 -21.0512,22.232 -30.8427,27.1565 -4.3203,2.1728 -10.4464,5.7195 -13.6136,7.8814 -3.1672,2.1619 -9.3075,5.5446 -13.645,7.517 -4.3375,1.9724 -10.1191,4.704 -12.848,6.0702 -7.7797,3.895 -27.105,10.0282 -37.5384,11.9135 -5.225,0.9441 -12.7256,2.7795 -16.668,4.0786 -3.9424,1.2991 -8.1184,2.362 -9.2801,2.362 -1.1617,0 -4.6861,1.0743 -7.832,2.3874 -3.146,1.3131 -7.7449,2.7189 -10.2199,3.124 -2.475,0.4052 -8.0182,2.0309 -12.3182,3.6127 -5.9522,2.1895 -9.5574,2.8759 -15.105,2.8759 -5.6533,0 -11.4106,1.1303 -25.6818,5.0418 -10.1173,2.773 -26.8537,6.598 -37.1921,8.5 -20.4522,3.7627 -22.82,3.8562 -61.4318,2.4255 z m 317.6974,-132.498 c 2.766,-5.792 6.6508,-16.0295 8.6329,-22.75 1.9821,-6.7206 4.2635,-14.4693 5.0697,-17.2193 3.9735,-13.5542 5.519,-36.5779 4.229,-63 -1.5457,-31.6585 -4.482,-51.2499 -11.959,-79.7928 -4.7585,-18.165 -6.2863,-24.5976 -8.3622,-35.2072 -2.1991,-11.2388 -4.5537,-37.1847 -4.0565,-44.6974 0.2295,-3.4664 0.6611,-10.1276 0.9591,-14.8026 1.1269,-17.6764 4.1023,-29.6655 12.1834,-49.0923 4.9789,-11.9692 9.6753,-18.1954 18.8351,-24.97 3.8074,-2.816 6.693,-5.8994 7.8965,-8.4377 1.0431,-2.2 4.1001,-6.5744 6.7934,-9.7209 2.6932,-3.1465 5.8439,-7.862 7.0015,-10.4788 1.9588,-4.4282 2.0604,-5.88 1.4661,-20.9474 -1.0231,-25.9419 -4.7378,-34.9644 -19.9127,-48.3646 -8.6205,-7.6124 -9.0965,-8.1572 -10.1544,-11.6222 -0.5318,-1.742 -0.1408,-2.2596 2.1291,-2.8181 6.061,-1.4914 35.8962,-16.8532 39.6111,-20.3955 8.1482,-7.7692 14.3521,-22.3079 17.5605,-41.1525 1.9282,-11.3252 1.6501,-51.0773 -0.4127,-59 -0.6254,-2.4019 -2.4262,-28.7942 -2.5246,-37 -0.2063,-17.1984 8.5953,-37.4984 22.6256,-52.1835 7.4322,-7.7792 20.113,-18.8029 26.4206,-22.968 16.3062,-10.7675 31.9448,-19.0872 40,-21.2796 3.575,-0.9731 8.3,-2.3913 10.5,-3.1517 2.2,-0.7603 6.4367,-1.8427 9.4149,-2.4052 2.9782,-0.5625 7.9282,-2.2163 11,-3.675 5.2593,-2.49749 5.4393,-2.69928 3.0851,-3.45962 -3.2256,-1.04181 -110.5268,-14.48096 -146.5,-18.34869 -7.15,-0.76875 -21.1,-2.51957 -31,-3.89071 -9.9,-1.37114 -27.8165,-3.68505 -39.8144,-5.14202 l -21.8144,-2.64903 -2.4649,2.65964 c -1.9477,2.10163 -3.2455,2.60503 -6.1856,2.39934 -2.1956,-0.15361 -5.5661,0.60635 -8.2228,1.854 -2.4761,1.16286 -9.6761,3.51753 -16,5.23258 -15.7418,4.26923 -28.8771,11.76834 -36.5172,20.84809 -5.0758,6.03222 -7.8291,2.10482 -2.9807,-4.25172 1.6951,-2.22239 2.5,-4.55408 2.5,-7.24215 0,-2.18046 0.6607,-4.83799 1.4682,-5.90561 1.3581,-1.79563 1.4706,-1.58509 1.5,2.80887 0.017,2.6125 0.2108,4.75 0.4296,4.75 0.2188,0 3.4813,-1.87394 7.25,-4.16432 9.7229,-5.90892 15.9165,-8.45822 27.5323,-11.33227 14.2554,-3.52715 14.4595,-4.22745 1.6326,-5.60254 -10.3739,-1.11212 -12.8127,-1.67267 -12.8127,-2.94492 0,-0.55327 1.4313,-1.2922 3.1806,-1.64207 3.0125,-0.60251 3.0606,-0.68052 0.9089,-1.47649 -1.2495,-0.4622 -5.4933,-1.09793 -9.4306,-1.41272 -3.9374,-0.3148 -8.4388,-0.73156 -10.0032,-0.92614 -4.032,-0.5015 -2.2945,0.79601 2.6703,1.99417 5.7576,1.38946 4.3463,3.05418 -2.3618,2.78594 -5.0566,-0.2022 -5.6818,0.0142 -7.2234,2.5 l -1.6876,2.72136 -0.027,-2.78138 c -0.015,-1.56507 -0.7014,-3.04035 -1.5698,-3.37356 -1.3649,-0.52376 -1.3463,-0.80966 0.1606,-2.47475 0.937,-1.03541 1.4397,-2.14655 1.1171,-2.46918 -0.8335,-0.83348 -16.6671,-2.10113 -16.1686,-1.29447 0.2266,0.36664 1.992,0.96302 3.9231,1.32529 2.2692,0.42572 3.511,1.22194 3.511,2.25129 0,1.37463 -1.0191,1.50028 -7.4452,0.91796 -6.5453,-0.59312 -7.5582,-0.45871 -8.381,1.11207 -0.5147,0.9827 -1.6688,7.63673 -2.5646,14.78673 -0.8958,7.15 -2.066,16.15 -2.6004,20 -0.5345,3.85003 -2.1085,16.45003 -3.4978,28.00003 -1.3894,11.55 -3.398,27.3 -4.4637,35 -1.0656,7.7 -2.2174,16.925 -2.5595,20.5 -0.3421,3.575 -1.7443,15.275 -3.1162,26 -1.3718,10.725 -3.1348,24.9 -3.9176,31.5 -0.7829,6.6 -4.1282,33.6 -7.4341,60 -3.3059,26.4 -6.0128,49.6313 -6.0153,51.625 0,3.2516 0.3133,3.6886 3.0813,4.2422 3.9195,0.7839 3.3569,3.0241 -0.8645,3.4425 -1.8874,0.1872 -3.3176,0.979 -3.6121,2 -1.035,3.5883 -2.6278,17.0293 -2.863,24.1599 l -0.2463,7.4696 3,0.5402 c 4.3797,0.7887 3.9153,3.4444 -0.669,3.8261 l -3.669,0.3056 -1.0638,6.6944 c -0.585,3.682 -1.9907,14.5695 -3.1237,24.1945 -1.1329,9.625 -3.1919,26.5 -4.5755,37.5 -4.9899,39.6718 -5.5178,44.1554 -6.4101,54.4467 -0.4982,5.7457 -1.8018,16.7707 -2.8968,24.5 -1.0951,7.7293 -2.6948,19.9033 -3.555,27.0533 -0.8601,7.15 -2.0059,16.6 -2.5462,21 -0.5403,4.4 -1.1646,9.8 -1.3873,12 -0.2226,2.2 -1.5562,12.775 -2.9634,23.5 -1.4072,10.725 -3.0681,23.55 -3.691,28.5 -0.6228,4.95 -1.5261,11.475 -2.0073,14.5 -1.1078,6.9637 -4.6845,36.4184 -5.4644,45 -0.3249,3.575 -1.0032,8.975 -1.5072,12 -0.504,3.025 -1.8341,14.725 -2.9557,26 -1.7414,17.5063 -2.9256,28.6665 -5.4667,51.5224 -0.246,2.2123 -0.1249,4.544 0.2691,5.1815 0.78,1.262 47.6436,7.7171 49.8576,6.8675 0.729,-0.2798 1.3276,-1.3103 1.3304,-2.29 0,-1.4509 0.4215,-1.2889 2.25,0.873 2.1642,2.5588 3.1453,2.7645 27.245,5.7139 43.8104,5.3615 43.7413,5.3555 44.6506,3.9223 0.4503,-0.7098 0.8257,-2.0084 0.8341,-2.8856 0.01,-0.8773 0.9153,-2.4095 2.0153,-3.405 1.9724,-1.785 2,-1.7466 2,2.786 0,2.5278 0.3707,4.8251 0.8238,5.1051 0.831,0.5136 4.9738,1.1056 28.6762,4.0977 42.1631,5.3227 50.4551,6.2919 54.7197,6.396 l 4.7197,0.1152 5.0291,-10.5307 z m -94.7564,-23.7997 c 0.039,-4.3122 0.513,-6.0072 2.0658,-7.3834 2.0006,-1.773 2.0112,-1.7425 1.4247,4.1222 -0.3249,3.2496 -1.2545,6.5721 -2.0658,7.3834 -1.3,1.2999 -1.469,0.8109 -1.4247,-4.1222 z m -76.6817,3.3795 c -0.7738,-1.252 0.3453,-11.8638 1.4724,-13.962 1.4748,-2.7453 2.1446,2.6638 1.0579,8.5425 -1.154,6.2426 -1.5274,7.0423 -2.5303,5.4195 z m 113.5254,-12.9933 c -4.3957,-4.3957 -5.5726,-8.326 -4.8244,-16.112 0.4664,-4.8541 0.4245,-4.9438 -2.3068,-4.9438 -1.5299,0 -3.4571,-0.6753 -4.2825,-1.5007 -0.8254,-0.8254 -2.545,-1.3879 -3.8214,-1.25 -1.8816,0.2033 -2.7507,-0.6493 -4.5931,-4.506 -7.0924,-14.8461 -6.4211,-33.7433 1.1988,-33.7433 4.8852,0 9.0543,6.73 10.1981,16.4622 0.7489,6.3718 1.9833,6.7195 3.9142,1.1028 2.1641,-6.2949 4.7644,-7.053 9.5438,-2.7826 2.3839,2.13 3.2366,3.869 3.6364,7.4162 0.4463,3.9591 0.2135,4.8267 -1.5983,5.9582 -2.8019,1.7498 -2.676,3.2493 0.4444,5.2939 2.0806,1.3632 2.449,2.2089 1.9507,4.4777 -0.5576,2.539 0.5935,6.4197 3.6913,12.4439 0.5295,1.0298 1.2058,4.2274 1.5029,7.1058 0.4828,4.6777 0.2909,5.408 -1.8074,6.8776 -4.1279,2.8914 -8.4247,2.1221 -12.8467,-2.2999 z m 8.3735,-5.3058 c -1.4116,-4.5024 -4.9599,-11.111 -6.1793,-11.5088 -2.4966,-0.8146 -1.4747,7.3383 1.3389,10.6821 3.125,3.7138 5.8939,4.1868 4.8404,0.8267 z m -23.529,-40 c -0.1276,-5.4403 -1.1279,-8.9925 -2.6779,-9.5092 -1.5681,-0.5227 -1.6475,6.2412 -0.1246,10.61 1.5499,4.446 2.92,3.9079 2.8025,-1.1008 z m -18.5663,26.5766 c 0.3853,-4.1263 0.2221,-7.1566 -0.4277,-7.9395 -1.5129,-1.8229 -0.7056,-6.498 1.3437,-7.7811 3.596,-2.2516 7.5546,3.5146 4.7407,6.9052 -0.6396,0.7707 -0.8918,1.8398 -0.5605,2.3759 0.3313,0.5361 0.1451,1.2574 -0.4139,1.6028 -0.559,0.3455 -1.0163,1.6594 -1.0163,2.9199 0,3.2725 -2.0072,8.5902 -3.2424,8.5902 -0.6868,0 -0.8325,-2.2954 -0.4236,-6.6734 z m -75.3036,-5.4516 c -0.04,-6.0037 0.9566,-10.875 2.2238,-10.875 0.64,0 0.7489,2.2562 0.3001,6.2225 -0.9153,8.0903 -2.4823,10.9789 -2.5239,4.6525 z m 4.5125,-37.3855 c 0.3421,-3.2942 1.0923,-6.4395 1.6672,-6.9895 1.3873,-1.3272 0.1084,10.5815 -1.2861,11.976 -0.6706,0.6706 -0.7969,-0.9818 -0.3811,-4.9865 z m 5.5977,-42.4895 c 0,-1.375 0.3867,-3.4 0.8594,-4.5 0.7834,-1.823 0.8594,-1.7788 0.8594,0.5 0,1.375 -0.3867,3.4 -0.8594,4.5 -0.7834,1.823 -0.8594,1.7788 -0.8594,-0.5 z m 3.917,-33.0833 c 0.079,-6.0313 1.344,-12.6537 2.1673,-11.3437 0.6747,1.0735 -0.8473,14.3827 -1.7477,15.2831 -0.2624,0.2625 -0.4513,-1.5103 -0.4196,-3.9394 z m 29.2803,-22.87 c -2.5424,-1.0785 -3.6559,-3.9317 -2.8255,-7.24 0.3544,-1.412 -0.5384,-5.5727 -2.2175,-10.3351 -4.3694,-12.3923 -2.5102,-21.3868 4.7501,-22.9815 6.2059,-1.363 10.6062,4.5433 9.5147,12.7711 -0.6361,4.7957 -0.5429,5.0413 3.1104,8.1994 3.295,2.8483 3.7458,3.7667 3.6033,7.3403 -0.1685,4.2268 -2.1305,9.0057 -4.5071,10.9781 -1.9203,1.5937 -8.8483,2.3622 -11.4284,1.2677 z m 8.8334,-6.7017 c 1.0733,-0.9714 1.8287,-3.0288 1.8287,-4.9809 0,-2.7129 -0.4604,-3.4415 -2.4978,-3.9529 -4.1419,-1.0396 -5.552,0.067 -4.844,3.8007 0.7,3.6915 2.0905,6.7881 3.0482,6.7881 0.3499,0 1.4591,-0.7447 2.4649,-1.655 z m -4.568,-22.4048 c 0.6496,-4.1433 -1.3164,-7.3713 -3.8883,-6.3843 -2.4517,0.9408 -3.1815,4.9435 -1.764,9.6748 1.2028,4.0148 1.2299,4.0328 3.1631,2.0996 1.0725,-1.0724 2.1926,-3.498 2.4892,-5.3901 z m -29.2023,11.2972 c 0.7414,-10.2081 1.8257,-14.6949 2.8845,-11.9359 0.7105,1.8515 -1.7213,19.4949 -2.8285,20.5223 -0.4009,0.3719 -0.4261,-3.492 -0.056,-8.5864 z m -1.366,-20.1719 c -1.4567,-2.722 0.3366,-7.0655 2.9172,-7.0655 2.6034,0 5.4118,4.2778 4.5633,6.951 -0.8726,2.7496 -6.028,2.8285 -7.4805,0.1145 z m 68.994,-149.0264 c -0.8091,-0.5117 -1.2561,-1.1454 -0.9933,-1.4081 0.8352,-0.8352 14.8305,-1.0981 15.6349,-0.2937 1.4191,1.4191 -2.116,2.6321 -7.6706,2.6321 -3.025,0 -6.162,-0.4187 -6.971,-0.9303 z m 6.6722,-7.6712 c -0.3856,-0.3857 -0.7012,-1.9651 -0.7012,-3.5098 0,-2.5292 -0.2321,-2.7203 -2.3335,-1.9214 -4.6262,1.7589 -5.0947,-0.3584 -1.2064,-5.4523 2.007,-2.6294 3.9058,-6.0641 4.2195,-7.6326 0.3137,-1.5685 1.134,-2.8518 1.823,-2.8518 2.6729,0 3.239,2.5893 2.6211,11.9894 -0.489,7.4404 -0.9581,9.5532 -2.1725,9.7846 -0.8518,0.1623 -1.8643,-0.02 -2.25,-0.4061 z m -24.0451,-32.4238 c -1.3594,-1.0692 -3.4388,-1.9441 -4.621,-1.9441 -1.1822,0 -4.1431,-0.502 -6.5799,-1.1156 -6.3598,-1.6014 -4.485,-3.2508 2.9306,-2.5781 3.3628,0.3051 7.007,0.2056 8.0982,-0.221 3.5347,-1.3819 5.516,-0.1519 5.516,3.4243 0,4.0821 -2.0576,5.0195 -5.3439,2.4345 z m -34.5766,-5.8257 c -4.7084,-0.8512 -5.2812,-3.1184 -0.7878,-3.1184 5.5083,0 9.7083,1.1356 9.7083,2.625 0,1.4504 -2.7772,1.6039 -8.9205,0.4934 z m -25.8295,-3.3389 c -3.2538,-1.5693 -2.764,-2.7795 1.125,-2.7795 5.4307,0 9.625,1.1439 9.625,2.625 0,1.6814 -7.3645,1.7872 -10.75,0.1545 z m 16.75,-35.3177 c -2.475,-0.735 -6.75,-1.7021 -9.5,-2.1491 -8.4418,-1.3721 -4.8547,-2.8428 6,-2.46 10.5909,0.3736 12.6486,1.1028 10.9061,3.8653 -1.4063,2.2294 -2.1517,2.3043 -7.4061,0.7438 z m 0.7478,-14.8568 c -0.7972,-0.7972 -2.4918,-1.1854 -3.9542,-0.9059 -3.8475,0.7355 -4.2952,-1.3638 -1.0734,-5.0332 1.5813,-1.801 3.4707,-4.7126 4.1987,-6.4702 1.3615,-3.287 2.54,-3.8242 4.9885,-2.2741 1.4064,0.8904 1.7379,10.3529 0.5019,14.3284 -0.6547,2.1058 -2.751,2.2654 -4.6615,0.355 z m 167.526,-2.4358 c -0.7426,-0.4589 -0.8427,-1.2487 -0.2748,-2.1676 0.7508,-1.2147 1.0016,-1.1637 1.5707,0.3196 0.8106,2.1123 0.303,2.8362 -1.2959,1.848 z m -170.6937,-17.5056 c -3.7442,-1.1297 -6.2092,-3.731 -3.4134,-3.6021 4.9375,0.2275 15.2448,2.6731 15.5865,3.6981 0.5339,1.6016 -6.7365,1.5443 -12.1731,-0.096 z m 49.7882,-154.8176 c -0.4776,-0.7403 -1.7964,-5.6179 -2.9307,-10.8392 l -2.0625,-9.4932 -3.7072,-0.6026 c -4.2781,-0.6953 -4.8575,0.3647 -4.4218,8.089 0.2201,3.9012 -0.01,4.5 -1.7227,4.5 -3.112,0 -4.5693,-8.1835 -2.9078,-16.3287 1.5733,-7.7132 4.0789,-12.2334 7.7693,-14.0163 2.5164,-1.2158 3.01,-1.1326 5.1366,0.8652 1.294,1.2157 2.9161,4.4084 3.6047,7.095 0.6885,2.6867 1.6656,4.8848 2.1713,4.8848 0.5056,0 0.6363,1.1276 0.2904,2.5058 -0.3459,1.3782 0.107,6.823 1.0064,12.0995 1.4519,8.5177 1.4674,9.7615 0.1388,11.0902 -1.238,1.238 -1.6464,1.2639 -2.3648,0.1505 z m -6.7988,-31.4251 c -0.5412,-2.1563 -3.5488,-3.5588 -3.5832,-1.6709 -0.01,0.4125 -0.2838,1.758 -0.614,2.99 -0.4646,1.7336 -0.066,2.4406 1.7637,3.1269 2.6921,1.0098 3.4536,-0.3814 2.4335,-4.446 z m -22.9917,24.0331 c -0.7337,-2.9234 -0.069,-4.454 1.9359,-4.454 0.8372,0 1.6409,-1.5006 2.0084,-3.75 1.3087,-8.0098 1.6848,-9.8752 2.7217,-13.5 0.59,-2.0625 1.4081,-3.75 1.818,-3.75 0.9973,0 1.6495,9.9311 0.6735,10.2556 -0.4206,0.1398 -1.045,3.402 -1.3875,7.2493 -0.7522,8.4487 -1.6831,10.4951 -4.7746,10.4951 -1.6908,0 -2.5369,-0.7191 -2.9954,-2.546 z m 8.7825,-41.204 c 0.2723,-0.9625 0.7823,-4.0215 1.1334,-6.7978 0.3511,-2.7763 1.0518,-5.7013 1.557,-6.5 1.342,-2.1213 1.2158,7.9849 -0.1485,11.8986 -1.1336,3.2519 -3.4224,4.5118 -2.5419,1.3992 z m -115.9044,684.5 c 0.4971,-2.2637 2.7322,-19.2054 6.5635,-49.75 1.1383,-9.075 2.2495,-17.175 2.4694,-18 0.2199,-0.825 0.6411,-3.75 0.9359,-6.5 0.9498,-8.8578 5.4227,-47.4818 7.5854,-65.5 4.1646,-34.6973 6.9904,-58.6759 8.0136,-68 1.8365,-16.736 3.2389,-27.8358 4.8643,-38.5 1.1793,-7.7373 3.7721,-29.5356 5.1375,-43.1918 0.4844,-4.8445 2.2497,-19.3832 3.9229,-32.3082 1.6732,-12.925 3.7356,-29.35 4.5832,-36.5 0.8475,-7.15 2.6758,-21.775 4.0629,-32.5 1.3871,-10.725 2.9499,-23.325 3.4728,-28 0.8857,-7.9191 1.8114,-15.478 8.388,-68.5 1.3644,-11 4.7657,-38 7.5584,-60 2.7927,-22 6.6281,-52.6 8.5231,-68 1.895,-15.4 5.8703,-47.35 8.834,-71 2.9637,-23.65003 5.2198,-43.18539 5.0136,-43.41195 -0.2062,-0.22655 -4.2475,-0.98449 -8.9806,-1.6843 -4.7332,-0.6998 -8.871,-1.53765 -9.1952,-1.86189 -0.3243,-0.32423 0.059,-1.23049 0.8509,-2.01391 1.1912,-1.17792 2.8027,-1.24096 9.3124,-0.36435 6.1188,0.82399 8.0425,0.78394 8.6381,-0.17983 0.9256,-1.49763 1.8238,-9.17655 1.6303,-13.93831 -0.1687,-4.1525 0.357,-4.0004 -24.1697,-6.99372 -19.4075,-2.36855 -40.2812,-5.10174 -65.4706,-8.57268 -18.3822,-2.53295 -62.3159,-8.05878 -70,-8.80434 -2.475,-0.24015 -15.3,-1.8323 -28.5,-3.53812 -13.2,-1.70582 -29.625,-3.78018 -36.5,-4.60968 -6.875,-0.82951 -25.325,-3.06414 -41,-4.96586 -15.675,-1.90171 -42,-5.07655 -58.5,-7.0552 -42.60952,-5.10965 -99.54089,-12.08956 -123.30687,-15.1177 -11.1688,-1.42307 -21.9688,-2.38114 -24,-2.12905 -3.98175,0.49419 -21.7935,4.91675 -29.30474,7.27621 -6.90512,2.16906 -16.50647,6.75861 -15.11168,7.22354 0.67284,0.22428 1.22334,1.04528 1.22334,1.82444 0,1.85433 4.78102,1.8497 11.41211,-0.011 14.62881,-4.10497 38.84083,-5.27484 62.89667,-3.03902 18.67646,1.73584 28.89388,3.82472 52.69122,10.77237 8.525,2.48888 19.14049,4.99397 23.58998,5.56686 7.39888,0.95265 33.41487,8.06917 37.72387,10.31914 1.2292,0.64182 2.2938,0.5489 3.3025,-0.28823 1.1788,-0.9783 3.5066,-0.98179 11.1861,-0.0168 14.0125,1.76083 16.1975,2.21539 16.1975,3.3697 0,0.99771 -1.4937,0.9362 -19.5,-0.80292 -4.4221,-0.4271 -5.5651,-0.30104 -4.3462,0.47937 1.9346,1.23872 26.2147,9.48096 33.9983,11.54121 13.0965,3.46659 34.5904,15.24011 47.1679,25.83687 3.3371,2.81157 5.161,9.04508 3.1378,10.72419 -1.0035,0.83284 -1.6088,0.55129 -2.5349,-1.17908 -1.6418,-3.06781 -3.6659,-4.73108 -15.9229,-13.08424 -9.774,-6.66107 -29.9867,-16.77175 -33.529,-16.77175 -2.4072,0 -31.3887,-9.98625 -36.7047,-12.64745 -8.1744,-4.09213 -25.9005,-9.31947 -35.26625,-10.39987 -4.95,-0.57101 -9.9,-1.46955 -11,-1.99675 -1.1,-0.5272 -4.19606,-1.60654 -6.88013,-2.39854 -3.95563,-1.16719 -5.12172,-1.1984 -6.15538,-0.16474 -1.03366,1.03366 -3.14023,1.02936 -11.11987,-0.0227 -5.41454,-0.71388 -10.40712,-1.31416 -11.09462,-1.33395 -0.6875,-0.0198 -1.25,-0.53283 -1.25,-1.14007 0,-0.76834 2.50875,-0.90796 8.25,-0.45914 9.6792,0.75668 9.05918,0.0879 -4.07472,-4.39532 -14.64669,-4.99957 -39.47274,-8.38141 -62.17528,-8.4696 -19.95466,-0.0775 -23.11001,0.38574 -20.88537,3.06627 1.20582,1.45291 0.94191,1.55431 -2.63737,1.0134 -6.17008,-0.93245 -11.60467,-1.0386 -15.97726,-0.31207 -2.2,0.36555 -9.1343,0.87051 -15.40956,1.12214 -8.92208,0.35777 -11.14715,0.19381 -10.20592,-0.75204 0.662,-0.66526 2.6463,-1.73782 4.40956,-2.38348 l 3.20592,-1.17392 -4,-0.0407 c -2.2,-0.0223 -5.125,0.60247 -6.5,1.38849 -1.375,0.78602 -2.99027,1.44508 -3.58948,1.46456 -1.41525,0.046 -3.41052,-4.36689 -3.41052,-7.543 0,-3.3505 2.4115,-4.05343 6.44814,-1.87956 3.17126,1.70784 3.68246,1.71383 10.19526,0.11948 3.77113,-0.92318 11.3566,-3.44067 16.8566,-5.59443 5.5,-2.15375 11.95613,-4.48634 14.34696,-5.18354 3.49763,-1.01995 3.97008,-1.40705 2.41802,-1.98119 -4.24758,-1.57128 -50.1637,-7.05961 -61.51498,-7.35286 l -7.75,-0.2002 0,3.76635 c 0,7.02141 -3.29038,6.04408 -4.53931,-1.3483 -0.4724,-2.7961 -1.19747,-3.88523 -2.79912,-4.20458 -6.13971,-1.22416 -8.38442,-1.35205 -9.6797,-0.55152 -1.6651,1.02908 -1.52092,1.20604 2.75364,3.3798 3.90407,1.98535 5.18546,5.85501 3.15895,9.5397 -2.91738,5.30449 -15.88071,9.20063 -18.82176,5.65689 -1.94132,-2.33915 -1.83029,-6.95586 0.1773,-7.37174 1.03585,-0.21457 1.75,0.23588 1.75,1.10383 0,0.80648 0.71759,1.7417 1.59464,2.07825 2.08532,0.80022 10.69761,-3.02119 10.19655,-4.52436 -0.2127,-0.6381 -3.06523,-2.1082 -6.33896,-3.26688 -5.3046,-1.87748 -5.9878,-2.43311 -6.27918,-5.1067 -0.17982,-1.65 -0.62982,-3.30507 -1,-3.67793 -0.89641,-0.90292 -9.77806,-2.0432 -111.67305,-14.33729 -11.55,-1.39356 -37.65,-4.55532 -58,-7.02615 -20.35,-2.47082 -44.65,-5.38964 -54,-6.48627 -9.35,-1.09662 -18.5094,-2.19334 -20.35421,-2.43715 -2.97189,-0.39276 -3.48131,-0.10658 -4.46924,2.51075 -1.44155,3.81911 -2.41809,3.7355 -3.45646,-0.29596 l -0.8371,-3.25 -33.4415,-4.19377 c -18.39282,-2.30653 -50.76649,-6.2609 -71.94149,-8.78745 -35.20535,-4.20062 -71.57065,-8.73104 -80.08807,-9.97745 -1.87656,-0.27461 -12.63693,-1.641 -23.91193,-3.03642 -11.275,-1.39543 -28.6,-3.63377 -38.5,-4.9741 -34.87591,-4.72174 -53.27563,-6.83085 -54.7284,-6.27337 -0.94314,0.36192 -1.87445,3.18856 -2.60385,7.90302 -1.20581,7.79374 -7.02679,54.93403 -9.67354,78.33958 -0.87073,7.7 -2.21981,18.275 -2.99797,23.5 -0.77815,5.225 -2.77317,21.875 -4.43338,37 -1.66022,15.125 -3.46617,31.325 -4.01324,36 -0.54707,4.67503 -1.92957,16.82503 -3.07223,27.00003 -2.10991,18.788 -5.68616,49.9226 -8.44252,73.5 -0.83588,7.15 -2.1586,17.725 -2.93938,23.5 -0.78078,5.775 -1.69375,12.975 -2.02881,16 -0.33506,3.025 -1.48968,12.7 -2.56583,21.5 -1.07614,8.8 -2.61424,22.075 -3.41799,29.5 -2.07829,19.1992 -8.3604,73.0979 -9.55743,82 -1.15726,8.6064 -6.7998,55.8088 -8.00913,67 -0.44575,4.125 -0.62128,7.8115 -0.39007,8.1922 0.23121,0.3807 2.5474,0.9912 5.14708,1.3566 5.43541,0.7639 7.65925,2.7744 6.16239,5.5713 -0.84936,1.5871 -1.80005,1.7589 -6.82589,1.2336 l -5.83909,-0.6103 -0.5868,3.3783 c -0.32274,1.8581 -1.29361,10.1283 -2.15748,18.3783 -1.64962,15.754 -2.22493,20.7058 -5.51864,47.5 -1.11555,9.075 -2.1907,18.3 -2.38921,20.5 -0.60689,6.7259 -2.59613,22.6601 -3.62039,29 -1.64313,10.1705 -10.04975,84.6633 -10.73756,95.1477 l -0.46891,7.1476 2.85414,0.5927 c 1.56977,0.3259 8.47913,1.2883 15.35413,2.1386 6.875,0.8502 14.075,1.7483 16,1.9957 1.925,0.2473 9.575,1.1657 17,2.0409 7.425,0.8751 14.4,1.7157 15.5,1.8679 1.1,0.1522 4.7,0.5967 8,0.9877 3.3,0.391 7.35,0.8801 9,1.0868 1.65,0.2067 7.725,0.8761 13.5,1.4875 5.775,0.6114 11.85,1.2849 13.5,1.4966 1.65,0.2118 5.57131,0.6685 8.71402,1.0151 6.4248,0.7085 5.99523,1.2304 7.31183,-8.8826 0.7537,-5.7894 1.37437,-7.6222 2.58114,-7.6222 0.49115,0 0.89301,4.0035 0.89301,8.8967 l 0,8.8967 8.25,1.0735 c 15.84346,2.0616 26.0297,3.2419 35.60435,4.1257 5.30511,0.4897 14.82065,1.5823 21.14565,2.428 6.325,0.8457 13.525,1.7168 16,1.9358 5.59061,0.4948 29.07897,3.3757 38.48918,4.7208 3.85595,0.5512 11.48568,1.432 16.95495,1.9574 11.00664,1.0573 11.51378,0.8499 11.54056,-4.7195 0.0199,-4.1488 1.73782,-8.6046 3.01344,-7.8163 0.55103,0.3406 1.00187,3.7427 1.00187,7.5602 0,5.9415 0.25201,6.9419 1.75,6.9472 0.9625,0 8.5,0.8609 16.75,1.9055 8.25,1.0446 19.95,2.4213 26,3.0593 6.05,0.638 13.475,1.5763 16.5,2.0852 3.025,0.5088 11.575,1.6032 19,2.4319 15.54337,1.7349 20.27315,2.2931 55,6.4917 14.025,1.6956 39,4.6572 55.5,6.5812 38.03298,4.4348 37.06756,4.3231 43,4.9752 2.75,0.3023 8.6,0.9963 13,1.5422 8.8886,1.1029 11.0259,1.3569 24,2.8522 4.95,0.5704 18.225,2.1454 29.5,3.4998 35.60492,4.277 87.60568,10.54 113,13.6097 13.475,1.6289 30.125,3.6321 37,4.4517 6.875,0.8195 21.95,2.6162 33.5,3.9927 11.55,1.3764 26.4,3.2091 33,4.0726 33.73838,4.4144 34.75678,4.5364 74.5,8.9303 21.96665,2.4285 30.88545,3.4755 59.99995,7.0433 15.675,1.9209 33.9,4.1537 40.5,4.9618 10.9592,1.3418 54.0642,6.5659 95.5,11.5742 9.075,1.0969 23.5973,2.8783 32.2718,3.9587 12.4832,1.5548 16.1725,1.7141 17.694,0.7639 1.5669,-0.9786 2.2731,-0.8831 3.8195,0.5164 1.6415,1.4855 5.5099,2.2539 17.9456,3.5646 0.6771,0.071 1.4533,-0.8828 1.725,-2.1203 z M 399.47032,1571.8913 c 1.1041,-8.9441 1.65303,-10.8439 3.13329,-10.8439 1.04462,0 1.38923,1.257 1.30223,4.75 -0.18171,7.295 -1.17403,10.6826 -3.24615,11.0817 -1.676,0.3227 -1.78731,-0.144 -1.18937,-4.9878 z m -150.93218,-20.9732 c 0.83401,-7.1956 0.81822,-7.1 1.96016,-11.8707 0.81549,-3.4068 0.85656,-3.432 1.54309,-0.9453 1.02015,3.695 -1.207,18.1889 -2.87944,18.7388 -1.10405,0.3631 -1.22227,-0.7593 -0.62381,-5.9228 z m 155.63381,-8.7794 c -1.01403,-0.6267 -1.16826,-2.3867 -0.64075,-7.3125 0.77823,-7.267 1.6816,-9.3983 3.50578,-8.2709 0.87167,0.5387 1.09004,2.8103 0.7402,7.6997 -0.52293,7.3087 -1.40715,9.2422 -3.60523,7.8837 z m -151.14021,-22.3413 c 0.0182,-5.4097 2.00461,-18.9284 3.01411,-20.5132 0.83065,-1.3041 0.9638,0.7545 0.53445,8.2632 -0.61931,10.8308 -1.29565,14.5 -2.67278,14.5 -0.48585,0 -0.87995,-1.0125 -0.87578,-2.25 z m 153.99113,-11 c -7e-4,-2.3375 0.51749,-7.9625 1.15154,-12.5 0.97006,-6.9421 1.44586,-8.25 3.00128,-8.25 2.14382,0 2.22031,1.1091 0.82765,12 -1.39188,10.8847 -1.97093,13 -3.55865,13 -1.00436,0 -1.42091,-1.2451 -1.42182,-4.25 z m -148.30411,-29.3887 c -1.0211,-1.0211 -0.84662,-6.5541 0.38825,-12.3121 1.67893,-7.8286 3.09872,-6.182 2.32882,2.7008 -0.69028,7.9641 -1.5,10.8283 -2.71707,9.6113 z m 153.20407,-9.038 c -0.27355,-2.2229 0.31031,-8.4109 1.28069,-13.5733 0.85802,-4.5646 1.46632,-5.75 2.95074,-5.75 2.24985,0 2.39005,3.2075 0.56769,12.9874 -0.88968,4.7745 -1.66944,6.576 -2.95332,6.8233 -0.95947,0.1848 -1.79007,-0.034 -1.8458,-0.4874 z M 262.6736,1438.5763 c -0.5368,-1.3989 0.39305,-11.2271 1.94226,-20.5289 0.9565,-5.743 1.49647,-7.0635 2.60753,-6.3769 1.09354,0.6759 0.37441,17.5226 -1.03737,24.3021 -0.77873,3.7396 -2.56766,5.0657 -3.51242,2.6037 z m 154.00443,-12.7104 c 0.78926,-7.8222 1.84762,-10.8185 3.82137,-10.8185 1.18774,0 1.4986,1.1604 1.40644,5.25 -0.18816,8.3489 -1.08461,11.2058 -3.62995,11.5685 -2.16717,0.3087 -2.21594,0.1256 -1.59786,-6 z m -26.26092,-0.87 c -1.97105,-1.971 -2.1682,-1.9845 -5.02842,-0.3429 -9.22115,5.2922 -14.51315,-6.9413 -9.66115,-22.3336 1.96363,-6.2293 7.20404,-12.6304 9.91062,-12.1056 2.53258,0.4911 2.93962,2.8336 0.49238,2.8336 -3.94898,0 -7.28809,8.8207 -7.23882,19.1224 0.0474,9.908 3.41906,12.9283 5.9178,5.3011 1.31813,-4.0235 3.84464,-6.7702 5.36382,-5.8313 0.47001,0.2905 1.28438,-0.6024 1.80972,-1.9841 2.1219,-5.581 11.45845,-7.4356 14.96851,-2.9732 4.19003,5.3267 1.84447,15.3651 -3.5902,15.3651 -1.52827,0 -3.33703,1.0013 -4.51588,2.5 -2.38657,3.034 -5.66823,3.2087 -8.42838,0.4485 z m 7.60704,-2.3415 c 0,-0.2162 -0.675,-0.652 -1.5,-0.9686 -0.825,-0.3166 -1.5,-0.1398 -1.5,0.393 0,0.5327 0.675,0.9686 1.5,0.9686 0.825,0 1.5,-0.1769 1.5,-0.393 z m 5,-8.9159 c 0,-0.7198 -0.64471,-2.1823 -1.43268,-3.25 -1.12336,-1.522 -1.69767,-1.6798 -2.66008,-0.731 -0.96733,0.9537 -0.71674,1.6352 1.18268,3.2167 2.89534,2.4107 2.91008,2.4146 2.91008,0.7643 z m 17.34123,-14.2442 c -0.32779,-0.8543 -0.0887,-4.0793 0.53137,-7.1667 0.62005,-3.0875 0.96611,-5.7748 0.76903,-5.9719 -0.19709,-0.1971 -3.23458,-0.8537 -6.74998,-1.4592 -3.51541,-0.6055 -6.95415,-1.5494 -7.64165,-2.0975 -2.65593,-2.1173 -1.09289,-2.9495 5,-2.6619 8.1785,0.386 11.60342,-0.6575 12.38549,-3.7735 1.03236,-4.1133 2.65726,-0.9616 1.98347,3.8471 -0.33421,2.3852 -0.58935,5.8994 -0.56699,7.8094 0.0644,5.4993 -2.06393,13.0273 -3.6831,13.0273 -0.7874,0 -1.69984,-0.6989 -2.02764,-1.5531 z m -149.6579,-13.0969 c -1.00681,-1.0068 -0.84662,-5.8641 0.48107,-14.5869 0.93449,-6.1395 1.5739,-7.8627 3.09701,-8.3461 3.13979,-0.9965 17.54456,0.6443 18.78576,2.1398 2.31002,2.7834 -0.0931,3.2318 -7.29492,1.3612 -11.98609,-3.1133 -11.37251,-3.5316 -12.01861,8.1938 -0.52189,9.471 -1.43891,12.8496 -3.05031,11.2382 z m 112.81667,-5.4715 c -2.2,-0.4903 -5.70449,-1.175 -7.78776,-1.5217 -3.84801,-0.6403 -4.58052,-2.5595 -1.22511,-3.2098 1.00177,-0.1942 5.13387,-0.043 9.18246,0.3367 6.87531,0.6443 10.33041,2.1787 10.33041,4.5877 0,1.1203 -5.02154,1.0281 -10.5,-0.1929 z m -34.90332,-3.9352 c -5.38712,-0.9024 -9.01238,-3.4495 -6.83013,-4.7987 1.67804,-1.0375 14.09076,0.4921 15.85146,1.9533 0.76009,0.6309 1.38199,1.7669 1.38199,2.5245 0,1.5336 -2.67247,1.616 -10.40332,0.3209 z m -28.79428,-3.8924 c -3.76906,-0.7329 -6.8024,-2.5939 -6.8024,-4.1733 0,-1.3311 9.42803,-1.0496 10.8,0.3224 1.31281,1.3128 1.65445,4.8697 0.45,4.685 -0.4125,-0.063 -2.41392,-0.4386 -4.4476,-0.8341 z m -67.8024,-9.4655 c -1.925,-0.6944 -3.65323,-2.0503 -3.84052,-3.0132 -0.30789,-1.583 0.31493,-1.6843 6.5,-1.0574 6.66493,0.6756 11.34052,2.5343 11.34052,4.5083 0,1.38 -9.81082,1.0733 -14,-0.4377 z m -21.5,-1.0538 c -0.55,-0.1707 -3.5875,-0.8425 -6.75,-1.4927 -4.76941,-0.9807 -5.75,-1.5357 -5.75,-3.2542 0,-1.9631 0.37242,-2.0373 7.09534,-1.4125 8.21196,0.7633 10.90466,1.9147 10.90466,4.663 0,1.8515 -2.3217,2.4832 -5.5,1.4964 z m -37,-5.2568 c -4.75038,-1.4413 -6.45036,-2.6651 -6.48469,-4.6684 -0.0185,-1.0786 12.79362,-0.01 16.42283,1.3701 1.58493,0.6026 2.56186,1.7461 2.56186,2.9987 0,1.6916 -0.61711,2.0077 -3.75,1.9207 -2.0625,-0.057 -6,-0.7868 -8.75,-1.6211 z m -27,-2.634 c -2.90703,-0.8699 -4.08731,-1.8041 -4.31955,-3.4189 -0.28823,-2.0041 0.10379,-2.2204 4,-2.2066 5.3736,0.019 7.09033,1.0556 6.65704,4.0195 -0.42085,2.8787 -1.32177,3.107 -6.33749,1.606 z m 108.16667,-5.3075 c -1.29645,-1.2964 -0.50066,-9.9463 1.73222,-18.8284 1.90889,-7.5932 2.3696,-8.5635 2.95632,-6.2258 0.62593,2.4939 -0.517,15.9392 -1.95265,22.9709 -0.55417,2.7142 -1.43458,3.3847 -2.73589,2.0833 z m 5.53082,-46.9759 c -1.20951,-2.2743 1.37832,-19.2665 3.21371,-21.1019 1.5192,-1.5192 1.69957,1.4204 0.66863,10.8969 -1.16415,10.7011 -2.18766,13.3915 -3.88234,10.205 z m 6.8426,-50.8091 c -1.06874,-1.2877 -1.08126,-3.0011 -0.0681,-9.3132 0.68287,-4.2543 1.89242,-8.8601 2.6879,-10.2351 1.30735,-2.2598 1.39199,-1.5045 0.88094,7.8607 -0.63434,11.6244 -1.40841,14.2087 -3.50074,11.6876 z m 5.62658,-44.215 c -1.20021,-1.2002 -0.69985,-7.2099 0.94191,-11.3131 2.2846,-5.7097 3.71342,-5.1105 2.93234,1.2298 -1.27955,10.3866 -1.9156,12.042 -3.87425,10.0833 z m 5.02982,-36.6818 c -0.89191,-2.3243 2.41668,-23.495 4.3605,-27.9016 1.1813,-2.678 0.55206,8.1316 -1.22244,21.0001 -1.08408,7.8617 -1.99816,9.872 -3.13806,6.9015 z m 7.70097,-59.0581 c -0.76039,-1.9816 1.53768,-13.7515 2.56142,-13.1188 0.73012,0.4512 -0.55451,13.4544 -1.41414,14.314 -0.27372,0.2737 -0.78999,-0.2641 -1.14728,-1.1952 z m 6.0393,-48.9046 c -0.80369,-2.0863 0.12398,-11.3363 1.72386,-17.1888 1.71262,-6.2649 2.58461,-1.7807 1.52342,7.8343 -1.01342,9.1822 -2.10371,12.323 -3.24728,9.3545 z m 6.12683,-52.4884 c -0.31415,-0.9899 -0.40377,-3.1274 -0.19915,-4.75 0.20461,-1.6227 0.71659,-5.65043 1.13772,-8.95043 1.6732,-13.11133 4.7255,-14.00154 3.42874,-1 -1.22476,12.27973 -1.97285,16.50003 -2.92479,16.50003 -0.47923,0 -1.12837,-0.8098 -1.44252,-1.7996 z m 992.43636,-36.76243 c -0.825,-0.1815 -4.7911,-0.84978 -8.8135,-1.48507 -6.8573,-1.08301 -7.2153,-1.26361 -5.7387,-2.89524 1.4627,-1.61628 2.3038,-1.64033 11.8135,-0.33783 5.6313,0.7713 10.627,1.78564 11.1016,2.25411 2.2795,2.25015 -2.6856,3.71304 -8.3629,2.46403 z m -37.5,-4.74127 c -4.4,-0.54665 -8.1766,-1.14117 -8.3925,-1.32116 -0.2159,-0.17998 0.2146,-1.05875 0.9566,-1.95283 1.0669,-1.28554 2.4041,-1.49133 6.3925,-0.98381 10.0208,1.27516 16.5434,2.95522 16.5434,4.26115 0,1.49669 -3.4321,1.49595 -15.5,-0.003 z m -35.7921,-3.96199 c -5.0052,-0.63098 -7.6494,-1.38509 -7.3932,-2.10852 0.7612,-2.14938 22.6853,0.21327 22.6853,2.44468 0,1.10498 -4.6756,1.0022 -15.2921,-0.33616 z m -912.28016,-3.06962 c -1.69777,-4.40741 2.14032,-28.43044 4.21136,-26.3594 0.77633,0.77632 -1.63775,24.77796 -2.68489,26.69428 -0.69622,1.2741 -0.92611,1.22366 -1.52647,-0.33488 z m 879.21666,-1.29388 c -5.9706,-0.687 -11.1156,-1.50907 -11.4333,-1.82683 -0.3178,-0.31776 -0.089,-1.06647 0.5083,-1.66381 0.7812,-0.78121 3.8839,-0.78169 11.0537,-0.002 10.3891,1.13021 13.2269,1.79984 13.2269,3.1211 0,1.53269 -2.627,1.60572 -13.3556,0.37124 z m -38.1087,-5.02725 c -10.1299,-1.46324 -11.3816,-1.83139 -10.2102,-3.00287 1.6698,-1.66974 25.7841,1.4404 26.4306,3.40888 0.5196,1.58204 -3.0815,1.4919 -16.2204,-0.40601 z m -42.5357,-5.47111 c -9.1234,-1.23556 -11.1669,-1.79387 -10.5021,-2.86944 0.3188,-0.51586 1.7997,-0.74746 3.2909,-0.51466 1.4911,0.2328 6.5362,0.9578 11.2112,1.61112 10.7974,1.5089 14.3541,2.79559 7.5,2.71329 -2.75,-0.033 -7.925,-0.45617 -11.5,-0.94031 z m -41,-5.06266 c -7.1481,-0.88799 -10.1054,-2.03815 -8.7431,-3.40042 0.8069,-0.80695 22.5301,2.35914 24.6374,3.59084 2.0477,1.19688 -5.4499,1.10706 -15.8943,-0.19042 z M 919.77415,924.78664 c -7.42564,-0.93684 -10.73974,-2.74748 -5,-2.73172 4.5643,0.0125 15.68484,2.04383 16.7,3.05045 1.11679,1.10739 -0.81299,1.05482 -11.7,-0.31873 z m -37.18214,-4.88124 c -7.0214,-0.90043 -8.39391,-1.36531 -7.29003,-2.4692 0.70775,-0.70775 17.25044,1.48454 20.22217,2.6799 2.68241,1.079 -3.68413,0.97526 -12.93214,-0.2107 z M 330.2315,911.07886 c -0.96558,-2.61022 1.55341,-21.32619 2.94308,-21.8669 0.47412,-0.18448 0.56821,-0.85948 0.2091,-1.5 -0.48441,-0.864 -0.32402,-0.86063 0.62141,0.0131 1.02302,0.94538 1.04106,3.4107 0.0915,12.5 -1.22338,11.71003 -2.36373,14.91235 -3.86507,10.85384 z m 4.95477,-44.14351 c -0.90644,-1.45144 -1.11356,-3.71903 -0.6622,-7.25 0.73992,-5.78845 4.34336,-17.42309 5.64545,-18.22782 1.10672,-0.684 1.04021,5.15568 -0.16618,14.58984 -1.73942,13.60251 -2.31266,14.89819 -4.81707,10.88798 z M 1712.3238,989.43098 c 4.8423,-2.44572 13.4988,-9.05906 20.2003,-15.43262 8.2126,-7.81072 18.1787,-16.06719 23.537,-19.49951 10.0581,-6.44273 20.4905,-17.51776 21.9459,-23.29769 0.6124,-2.43242 1.9255,-6.0496 2.9177,-8.03818 4.5526,-9.12352 7.0518,-27.50975 6.6081,-48.61561 -0.2101,-9.99213 -0.9133,-18.28526 -1.8727,-22.08604 -2.0573,-8.14995 -8.1431,-26.23895 -10.0729,-29.93982 -0.8529,-1.63578 -1.5536,-3.29482 -1.5569,-3.68676 0,-0.39193 -2.7618,-5.79193 -6.1298,-12 -7.1512,-13.18131 -21.5123,-33.12387 -31.1254,-43.2222 -3.7119,-3.89931 -8.6619,-9.85292 -11,-13.23024 -6.1902,-8.9418 -17.9854,-24.3317 -18.666,-24.35475 -0.3217,-0.0109 -3.51,-0.43617 -7.085,-0.94506 -3.575,-0.50889 -12.8,-1.65343 -20.5,-2.54342 -25.719,-2.97268 -81.9086,-9.55091 -89.5,-10.47794 -4.125,-0.50373 -22.575,-2.73969 -41,-4.96881 -32.9233,-3.98316 -38.4936,-4.72913 -56.5,-7.56637 -4.95,-0.77996 -15.075,-1.87627 -22.5,-2.43623 -7.425,-0.55997 -15.1521,-1.30171 -17.1713,-1.64831 l -3.6713,-0.6302 0.885,3.86808 c 1.071,4.68063 0.2243,15.58521 -1.2824,16.5164 -0.5964,0.36859 -1.7185,0.036 -2.4936,-0.73908 -1.1469,-1.14689 -4.1767,-1.81931 -7.2664,-1.61265 -0.275,0.0184 -0.5944,-1.27831 -0.7097,-2.88158 -0.1225,-1.7025 0.2934,-2.94139 1,-2.97841 0.6653,-0.0349 0.2218,-0.46124 -0.9855,-0.94752 -1.9435,-0.78274 -2.0867,-1.26286 -1.2482,-4.18661 0.521,-1.81636 1.0036,-3.52748 1.0726,-3.80248 0.069,-0.275 0.3487,-1.08191 0.6217,-1.79313 0.2729,-0.71122 0.2462,-1.54307 -0.059,-1.84856 -0.7474,-0.74747 -36.0968,-5.30412 -41.3826,-5.33434 -2.305,-0.0132 -4.4643,0.41823 -4.7983,0.95871 -0.6731,1.08911 -2.8469,17.39749 -7.5333,56.51732 -1.7131,14.3 -6.4564,53 -10.5408,86 -10.0122,80.89501 -11.4321,93.01509 -11.7038,99.89711 l -0.2328,5.89711 7.5,2.33394 c 4.125,1.28367 8.7059,2.34247 10.1798,2.35289 3.2921,0.0233 27.4685,5.41945 34.3202,7.66028 2.75,0.89937 7.1359,2.70478 9.7465,4.012 3.4236,1.71439 8.9975,2.9441 20,4.41245 8.3894,1.11961 16.0893,1.81734 17.1108,1.5505 1.0215,-0.26685 2.9115,-0.0844 4.1999,0.40548 2.4682,0.93839 4.0373,1.17918 22.4428,3.44396 6.325,0.77828 23.65,3.01659 38.5,4.974 14.85,1.95742 31.05,4.02913 36,4.6038 4.95,0.57467 14.175,1.70656 20.5,2.51532 6.325,0.80875 17.575,2.16544 25,3.01486 7.425,0.84941 18.9,2.19989 25.5,3.00107 6.6,0.80117 17.85,2.13006 25,2.95309 7.15,0.82302 19.3,2.33382 27,3.35734 18.0197,2.39525 22.8656,2.48537 26.7997,0.49841 z m -254.5246,-36.90766 c -4.9051,-2.72451 -5.9872,-7.11936 -3.1993,-12.99437 1.4389,-3.03234 1.4357,-3.53432 -0.036,-5.78115 -1.5279,-2.33185 -1.4829,-2.61415 0.8615,-5.40031 2.866,-3.40607 9.7821,-6.82762 12.0453,-5.95913 2.2534,0.86472 1.9999,4.65901 -0.3113,4.65901 -1.0259,0 -3.0736,0.95057 -4.5506,2.11238 l -2.6855,2.11238 6.0506,6.30106 c 3.346,3.48451 6.0506,7.20883 6.0506,8.33186 0,5.53894 -8.7982,9.63241 -14.2249,6.61827 z m 8.2073,-5.44393 c 1.238,-0.78275 1.0009,-1.43998 -1.4371,-3.98469 -3.7178,-3.88061 -5.5453,-3.91258 -5.5453,-0.097 0,4.05568 3.6496,6.18911 6.9824,4.08171 z m 39.8813,-2.16836 c -1.9994,-1.99932 -2.102,-2.85191 -1.6002,-13.29242 0.7814,-16.25878 3.6683,-21.92106 9.1302,-17.90789 5.2148,3.83157 10.8351,18.88983 9.0957,24.36991 -0.7938,2.50124 -4.0998,2.56452 -4.7467,0.0909 -0.3391,-1.29694 -1.6417,-2.01027 -4.2204,-2.31132 -5.027,-0.58687 -5.4998,0.82805 -2.9864,8.93719 0.9247,2.98339 -1.7377,3.04816 -4.6722,0.11366 z m 11.1363,-12.19699 c 0,-2.07545 -1.1836,-2.75921 -2.658,-1.53555 -1.9384,1.60871 -1.6493,2.86888 0.658,2.86888 1.1,0 2,-0.6 2,-1.33333 z m -2.8777,-9.86517 c -1.184,-3.20054 -3.1223,-3.43944 -3.1223,-0.38483 0,1.90256 0.5186,2.58333 1.9678,2.58333 1.6069,0 1.8186,-0.40314 1.1545,-2.1985 z m -37.4917,19.68628 c -2.3441,-2.34418 -3.0958,-12.68751 -1.1898,-16.37327 0.8858,-1.71298 2.2216,-3.11451 2.9685,-3.11451 1.2117,0 4.7361,3.52876 9.8309,9.84322 3.3589,4.16297 4.7598,2.80918 4.7598,-4.59982 0,-3.71613 -0.4351,-8.27361 -0.9668,-10.12773 -1.0538,-3.67422 0.079,-7.11567 2.3415,-7.11567 2.3076,0 3.8157,5.2635 4.2976,15 0.3895,7.86982 0.1577,10.10059 -1.351,13 -2.3361,4.48937 -5.6124,4.97579 -10.2856,1.52705 l -3.4643,-2.55661 -1.2555,2.39621 c -1.6153,3.08277 -3.879,3.92737 -5.6853,2.12113 z m -12.6306,-224.48778 c -1.09,-0.70439 -1.1422,-0.97356 -0.191,-0.98469 0.7975,-0.009 1.0027,-0.50377 0.525,-1.26531 -0.4313,-0.6875 -0.6462,-2.08669 -0.4777,-3.10931 0.1777,-1.07777 -0.127,-1.59142 -0.7247,-1.22199 -0.5672,0.35052 -1.5038,-0.2457 -2.0814,-1.32495 -1.2851,-2.4011 -1.3701,-4.40951 -0.155,-3.65851 0.4924,0.3043 1.1622,-0.14251 1.4886,-0.99292 0.3397,-0.8854 0.1708,-1.28509 -0.3953,-0.93524 -0.5437,0.33602 -0.9885,0.23667 -0.9885,-0.22079 0,-0.45746 1.8,-0.83174 4,-0.83174 2.3791,0 4,0.47237 4,1.16573 0,0.64116 0.675,1.42476 1.5,1.74135 0.825,0.31658 1.5,1.26472 1.5,2.10699 0,0.84226 0.4785,1.53138 1.0634,1.53138 0.5973,0 0.926,1.42444 0.75,3.25 -0.1724,1.7875 -0.5384,3.03319 -0.8134,2.76819 -0.275,-0.265 -1.6126,0.2975 -2.9725,1.25 -2.8145,1.97133 -3.9047,2.10369 -6.0275,0.73181 z m 12,0.55902 c 0,-0.24254 0.45,-0.7191 1,-1.05902 0.55,-0.33992 1,-0.14148 1,0.44098 0,0.58246 -0.45,1.05902 -1,1.05902 -0.55,0 -1,-0.19844 -1,-0.44098 z m -47.5396,246.78834 c -1.0135,-0.74105 -3.6692,-1.30142 -5.9015,-1.24527 l -4.0589,0.10209 3.5,0.98181 c 1.925,0.54 4.175,1.3409 5,1.77979 2.3229,1.23576 3.5317,-0.10383 1.4604,-1.61842 z m -46.2104,-15.00964 c -0.6875,-0.27741 -1.8125,-0.27741 -2.5,0 -0.6875,0.27741 -0.125,0.50439 1.25,0.50439 1.375,0 1.9375,-0.22698 1.25,-0.50439 z m -8.8,-1.20124 c -1.2841,-1.16721 -7.3111,-3.13648 -9.5992,-3.13648 -3.6289,0 -1.9643,2.8674 1.8992,3.27153 7.2537,0.75876 8.6563,0.73416 7.7,-0.13505 z m -18.6507,-3.7318 c 0.2376,-1.66364 -0.6127,-2.4436 -4.1271,-3.78578 -2.4345,-0.92974 -7.2942,-2.14685 -10.7993,-2.70467 -3.5051,-0.55782 -8.95,-1.67635 -12.0998,-2.48562 -3.1498,-0.80927 -10.3498,-1.90389 -16,-2.43248 -10.0374,-0.93903 -21.6076,-2.55072 -40.7731,-5.67957 -9.7453,-1.59096 -21.1213,-2.56161 -50,-4.26619 -21.2,-1.25135 -33.2887,-3.17033 -44.5,-7.06403 -12.4828,-4.3353 -35.9031,-10.19043 -55.5,-13.87519 -24.0669,-4.52523 -28.4532,-5.09523 -39.2737,-5.1036 -10.0262,-0.008 -28.5507,-1.92227 -43.8696,-4.53396 -4.7539,-0.81048 -13.2114,-1.47359 -18.7945,-1.47359 -5.5832,0 -13.1687,-0.68126 -16.8567,-1.5139 -3.68797,-0.83265 -9.63045,-2.16118 -13.20545,-2.95229 -8.35022,-1.84782 -25.44051,-2.05993 -55.5,-0.68882 -25.68245,1.17146 -32.26825,1.77571 -34.5198,3.16725 -1.22334,0.75606 -1.2166,0.94578 0.0478,1.34547 2.83345,0.89567 66.53554,9.16188 89.56398,11.62214 4.4506,0.47549 11.65057,1.35479 15.99997,1.95401 4.3494,0.59922 21.183,2.68017 37.408,4.62435 38.9103,4.66246 41.021,4.91819 65.5,7.93598 11.55,1.42389 26.4,3.24414 33,4.045 6.6,0.80085 16.725,2.12289 22.5,2.93785 5.775,0.81497 17.25,2.19002 25.5,3.05567 8.25,0.86566 16.125,1.77561 17.5,2.02212 1.375,0.24652 6.775,0.91498 12,1.48549 5.225,0.5705 10.175,1.27729 11,1.57065 1.4785,0.52571 29.9075,3.8741 45.5,5.35901 4.4,0.41902 14.3,1.68289 22,2.8086 7.7,1.12571 18.275,2.57654 23.5,3.22405 5.225,0.64752 14,1.77479 19.5,2.50503 12.8603,1.70749 14.9191,1.55907 15.2993,-1.10298 z m 1.561,-11.15468 c 0.2723,-0.9625 0.7545,-4 1.0716,-6.75 1.3842,-12.00494 14.8932,-121.11799 17.5806,-142 4.692,-36.45905 11.9875,-95.03879 11.9875,-96.25533 0,-0.61044 -0.7875,-1.35068 -1.75,-1.64496 -0.9625,-0.29429 -28.75,-3.72885 -61.75,-7.63236 -39.9326,-4.72355 -61.6229,-6.89227 -64.8523,-6.48431 -3.3771,0.42662 -5.5063,0.18438 -7.0038,-0.7968 -1.9391,-1.27056 -10.1514,-2.68224 -24.1439,-4.15028 -6.3812,-0.6695 -38.9145,-4.59374 -70.8854,-8.55036 l -24.8855,-3.07975 -2.4617,2.29708 -2.4618,2.29707 0.3472,-2.49652 c 0.3427,-2.46424 0.2114,-2.51176 -10.1528,-3.67491 -5.775,-0.64812 -16.125,-1.89778 -23,-2.77702 -6.875,-0.87925 -24.2,-2.93955 -38.5,-4.57845 -14.3,-1.6389 -31.4,-3.63147 -38,-4.42793 -21.4855,-2.59279 -45.3511,-5.41496 -80.99995,-9.57846 -19.25,-2.24824 -40.4,-4.73614 -47,-5.52867 -6.6,-0.79252 -17.85,-2.11614 -25,-2.94139 -7.15,-0.82524 -18.4,-2.16055 -25,-2.96735 -13.8236,-1.68984 -19.16799,-1.87552 -19.89982,-0.69139 -2.51112,4.06307 -16.26622,75.64257 -17.51055,91.12229 -1.31875,16.40555 0.36931,56.61263 2.88202,68.64523 1.97396,9.45272 1.97398,9.50326 0.005,13.17703 -1.08714,2.02836 -1.97661,4.67779 -1.97661,5.88763 0,3.14124 -1.83636,7.54908 -2.87707,6.90588 -0.48445,-0.2994 -0.64214,-2.66192 -0.35042,-5.25003 0.4435,-3.93477 0.0186,-5.69844 -2.59353,-10.7658 -1.71816,-3.33308 -4.88283,-10.33514 -7.03261,-15.56014 -3.80588,-9.2501 -5.08124,-12.9841 -16.56537,-48.5 -3.02334,-9.35 -6.88838,-21.05 -8.58898,-26 -3.91772,-11.40345 -6.63353,-24.23549 -7.83081,-37 -0.91584,-9.76403 -0.0728,-39.12811 1.33943,-46.65306 0.82599,-4.40131 0.25424,-4.68553 -10.56188,-5.25035 -4.09132,-0.21364 -8.29133,-0.73339 -9.33337,-1.155 -1.27191,-0.51461 -2.27821,-0.24194 -3.06176,0.82963 -1.58776,2.1714 -6.11653,3.22887 -7.08904,1.6553 -0.52315,-0.84647 -0.3514,-0.98078 0.54541,-0.42652 0.82809,0.51179 1.06663,0.41682 0.64927,-0.25848 -0.36286,-0.58712 -2.56989,-1.37489 -4.90451,-1.7506 -2.33462,-0.37572 -5.15512,-1.25832 -6.26778,-1.96134 -1.11266,-0.70303 -5.16266,-1.52516 -9,-1.82695 -3.83734,-0.30179 -9.00975,-1.00018 -11.49424,-1.55199 -4.45468,-0.98937 -10.76204,-1.76459 -70.98274,-8.7243 -56.4718,-6.52645 -43.76645,-5.0225 -172,-20.35982 -27.775,-3.32201 -53.875,-6.49992 -58,-7.06203 -7.43835,-1.0136 -44.41195,-4.96713 -46.68261,-4.99169 -0.65044,-0.007 -1.48713,0.94666 -1.85933,2.11933 -0.50813,1.60098 -0.88027,1.80276 -1.49384,0.80998 -0.48585,-0.78612 -2.87289,-1.36876 -5.88785,-1.43714 -3.63226,-0.0824 -5.44371,-0.62508 -6.38553,-1.91309 -1.10416,-1.51003 -6.99198,-2.49801 -36.75282,-6.16714 -50.16794,-6.18506 -57.81723,-6.94619 -58.89813,-5.86053 -0.94554,0.94971 -2.561,13.40061 -8.03594,61.93579 -1.67514,14.85 -3.6893,31.725 -4.47593,37.5 -0.78663,5.775 -2.14989,16.8 -3.02948,24.5 -0.87959,7.7 -2.02659,17.0112 -2.5489,20.69155 -0.5223,3.68036 -0.94964,8.2667 -0.94964,10.19188 0,3.32142 0.24277,3.56869 4.75,4.83793 3.63363,1.02324 4.8251,1.85949 5.06955,3.55813 0.29674,2.06202 -0.0703,2.22051 -5.14301,2.22051 -3.97144,0 -5.62221,0.41602 -6.0474,1.52405 -0.32165,0.83823 -1.49902,9.05073 -2.61636,18.25 -1.11734,9.19927 -2.68977,22.12595 -3.49428,28.72595 -1.28649,10.55398 -2.75377,23.82579 -3.95469,35.77092 -0.21913,2.17969 0.15063,4.30066 0.87626,5.0263 0.72954,0.72954 9.3823,2.22069 20.65765,3.56 10.67125,1.26754 20.60182,2.49294 22.06793,2.7231 1.46611,0.23017 8.44111,1.09289 15.5,1.91716 7.05889,0.82427 22.28435,2.64536 33.83435,4.04687 61.65996,7.48202 85.09401,10.29653 112,13.45159 35.86409,4.20552 51.214,6.04533 62.5,7.49115 6.325,0.81028 16.82724,2.15716 23.33831,2.99307 14.56628,1.87007 13.40324,1.9095 14.16169,-0.48016 0.80718,-2.54321 2.53539,-2.58066 3.19216,-0.0692 0.64334,2.46013 1.05867,2.60012 11.82914,3.98724 15.78244,2.03261 57.44968,7.14514 73.9787,9.07711 8.8,1.02858 27.925,3.2632 42.5,4.96582 14.575,1.70262 31.9,3.74067 38.5,4.52901 6.6,0.78833 17.85,2.12404 25,2.96823 7.15,0.84419 24.025,2.88575 37.5,4.53681 35.9842,4.40904 37.5447,4.4535 41.63955,1.18621 1.84821,-1.47469 3.3604,-3.2172 3.36042,-3.87224 5e-5,-2.15118 2.08961,-2.53792 4.06304,-0.75199 1.85905,1.68241 1.93699,1.66624 1.93699,-0.40204 0,-3.41236 3.18527,-2.56626 6.08501,1.61636 1.42175,2.05076 2.87013,4.51615 3.21861,5.47865 0.34849,0.9625 1.34929,1.75 2.22401,1.75 0.94532,0 1.30168,-0.46716 0.87859,-1.15174 -0.3915,-0.63346 -0.82513,-2.54596 -0.96363,-4.25 -0.13849,-1.70404 -0.57828,-6.09766 -0.97731,-9.7636 -0.6822,-6.26746 -0.57509,-6.81576 1.79436,-9.18521 2.98477,-2.98477 5.82762,-2.62527 8.76448,1.10835 2.63321,3.34758 2.49045,6.88782 -0.51708,12.82272 -2.32204,4.58219 -2.39187,5.13286 -1.01846,8.03172 0.81098,1.71173 2.06372,3.60124 2.78386,4.1989 1.90513,1.58112 8.77532,2.94695 25.98461,5.1659 8.38362,1.08098 20.77183,2.68644 27.52935,3.5677 l 12.2864,1.60229 6.7136,-2.56322 c 9.79447,-3.73949 15.00208,-4.42529 42.7136,-5.62501 32.30431,-1.39856 48.53982,-1.25661 56,0.4896 14.32441,3.35295 22.65571,4.5516 31.63631,4.5516 5.2748,0 11.9038,0.43868 14.731,0.97485 9.698,1.8392 30.6459,4.04105 48.1326,5.05928 9.625,0.56045 19.525,1.40204 22,1.8702 2.475,0.46816 11.025,2.03892 19,3.49058 7.975,1.45166 19,3.76011 24.5,5.12989 5.5,1.36978 10.5722,2.48706 11.2715,2.48285 0.6994,-0.004 5.2461,1.54542 10.1038,3.44361 12.4202,4.8533 25.9745,7.35127 46.1889,8.51231 27.4048,1.57403 44.0527,2.95333 48.9358,4.05435 4.8577,1.09532 21.0469,3.39605 35.5,5.04508 4.95,0.56478 12.375,1.4425 16.5,1.9505 8.6715,1.06791 32.003,5.65619 32.7964,6.44961 1.197,1.19692 4.1004,0.42516 4.5639,-1.21311 z M 793.40855,859.86033 c -1.67689,-2.71327 0.62218,-13.54496 2.61373,-12.31412 1.56532,0.96743 1.23293,11.06451 -0.4091,12.42727 -1.08597,0.90128 -1.59378,0.87521 -2.20463,-0.11315 z m 3.05236,-24.12419 c -0.71119,-1.84617 0.0667,-11.23114 1.16896,-14.10369 0.33454,-0.87179 1.07058,-1.58508 1.63564,-1.58508 1.31646,0 0.46363,12.91994 -1.0283,15.57825 -1.02626,1.82856 -1.11239,1.83392 -1.7763,0.11052 z M 517.05456,822.42237 c -0.041,-5.56257 0.99546,-10.375 2.23449,-10.375 1.25842,0 0.33493,10.13608 -1.15714,12.70057 -0.85284,1.46581 -1.05258,1.03465 -1.07735,-2.32557 z m -175.51991,-8.3634 c -1.66349,-1.83813 -1.66818,-2.38104 -0.0883,-10.22176 1.78403,-8.85394 2.85581,-10.91183 4.71482,-9.05282 0.84937,0.84937 0.81606,3.56205 -0.13164,10.72235 -0.69777,5.27192 -1.59929,9.78965 -2.00338,10.03939 -0.40409,0.24974 -1.52526,-0.41948 -2.4915,-1.48716 z m 366.69398,-3.7616 c -7.6603,-10.90528 -9.067,-25.50964 -3.07177,-31.89127 4.39377,-4.67695 9.65422,-1.75294 11.87242,6.59926 1.4897,5.60915 0.60236,11.32901 -2.60715,16.80602 -1.37429,2.3452 -2.20868,4.73327 -1.8542,5.30683 0.83932,1.35805 -0.31305,5.92916 -1.49474,5.92916 -0.50207,0 -1.78212,-1.2375 -2.84456,-2.75 z m 5.74886,-19.75 c 0.0547,-3.77022 -2.98627,-10 -4.88139,-10 -2.23147,0 -3.19413,5.40046 -2.00335,11.23867 1.31638,6.45401 3.85269,8.46236 5.6363,4.46304 0.66269,-1.48594 1.22449,-4.05171 1.24844,-5.70171 z m 22.24598,13.81077 c -0.51485,-0.99593 -1.50601,-3.61077 -2.20258,-5.81077 -1.73137,-5.46827 -5.91484,-12.5 -7.43677,-12.5 -0.6875,0 -1.9886,-0.81614 -2.89133,-1.81365 -1.2661,-1.39903 -1.37011,-2.08488 -0.45499,-3 1.44632,-1.44632 4.44237,-1.55193 5.28635,-0.18635 0.89669,1.45087 4.47104,1.22921 9.87606,-0.61247 2.60278,-0.88686 4.95701,-1.3878 5.23161,-1.1132 0.2746,0.2746 -1.55655,1.78771 -4.06922,3.36247 -5.07586,3.18118 -5.04929,2.96422 -1.57562,12.8632 2.21341,6.30763 2.32702,9.5834 0.35487,10.23244 -0.65026,0.214 -1.60353,-0.42575 -2.11838,-1.42167 z m 415.13213,-8.66176 c -0.7851,-4.74194 -0.7041,-5.95254 0.4274,-6.38674 2.1586,-0.82831 4.1274,1.85014 4.4015,5.98773 0.1366,2.0625 0.6064,3.75 1.044,3.75 0.4376,0 0.7956,0.65688 0.7956,1.45974 0,0.98725 -0.9225,1.39186 -2.8499,1.25 -2.6602,-0.19579 -2.9143,-0.599 -3.8186,-6.06073 z m -395.46169,2.60099 c -0.59441,-1.5125 -1.91318,-5.12455 -2.9306,-8.02678 -1.01743,-2.90223 -2.54496,-5.97187 -3.39451,-6.82143 -2.45577,-2.45577 -2.35526,-7.79333 0.20059,-10.65179 2.09327,-2.34111 2.47192,-2.23441 4.45825,1.25632 2.25902,3.96995 3.41387,3.77502 4.48073,-0.75632 0.64612,-2.74432 1.46782,-3.83446 3.06399,-4.06492 1.69223,-0.24433 2.31889,0.31601 2.79587,2.5 0.33813,1.54821 1.75931,6.99714 3.15819,12.10874 1.39888,5.11161 2.28254,9.5547 1.9637,9.87354 -1.42273,1.42273 -3.96565,-1.08026 -6.31828,-6.21908 -1.40412,-3.067 -2.76768,-5.36163 -3.03013,-5.09917 -0.26245,0.26245 0.091,3.85855 0.78541,7.99133 1.03186,6.14097 1.02407,7.80155 -0.0426,9.08685 -1.95867,2.36006 -3.98065,1.90145 -5.19058,-1.17729 z M 521.26383,784.12509 c 0.144,-2.44631 0.81885,-4.60595 1.51032,-4.83333 1.7963,-0.5907 1.60005,4.92345 -0.26032,7.31448 -1.40525,1.80608 -1.49221,1.63346 -1.25,-2.48115 z m -174.86428,-8.27932 c -0.97432,-1.57649 -0.55787,-8.18826 0.72893,-11.57281 0.55964,-1.47196 1.25962,-4.48738 1.55552,-6.70094 0.73634,-5.50847 2.06246,-6.52178 2.87397,-2.19606 0.64557,3.44118 -0.89903,18.83527 -2.08191,20.74922 -0.79067,1.27934 -2.19179,1.15209 -3.07651,-0.27941 z m 179.06818,-33.5484 c 1.00216,-12.55464 1.70252,-16.36958 2.92646,-15.94055 1.43639,0.50351 1.20931,13.82528 -0.33331,19.55413 -1.87632,6.96814 -3.28151,5.01 -2.59315,-3.61358 z m 509.82717,5.14583 c 0.3323,-0.33229 1.1948,-0.36781 1.9167,-0.0789 0.7977,0.31922 0.5608,0.55618 -0.6042,0.60416 -1.0541,0.0434 -1.6448,-0.19293 -1.3125,-0.52522 z m -685.0665,-5.64583 c -0.62354,-1.2375 -1.26208,-3.59671 -1.41898,-5.24269 -0.26186,-2.74714 -0.67089,-3.04745 -4.98499,-3.65991 -5.97775,-0.84866 -6.80028,-1.39392 -6.80028,-4.50791 l 0,-2.54247 6.98667,0.70164 c 6.92414,0.69537 6.9958,0.67765 8.00616,-1.97979 0.56071,-1.47479 1.57921,-2.49757 2.26332,-2.27285 1.79036,0.5881 2.11986,7.19631 0.74813,15.00398 -1.2409,7.06298 -2.78108,8.50688 -4.80003,4.5 z m 836.2957,-11.75 c 1.1,-0.47269 1.5624,-0.89106 1.0275,-0.92971 -0.5349,-0.0387 0.057,-0.79119 1.3147,-1.67229 2.7224,-1.90688 3.597,-1.35729 2.6398,1.65877 -0.4896,1.5426 -0.9313,1.83434 -1.4663,0.9686 -0.5445,-0.88101 -0.9633,-0.91918 -1.4497,-0.13213 -0.3762,0.60872 -1.445,1.07513 -2.375,1.03647 -1.3785,-0.0573 -1.3214,-0.2291 0.309,-0.92971 z m -871.31419,-1.05493 c -2.51526,-1.00877 -2.10398,-2.94849 0.62326,-2.93949 2.99828,0.01 9.19098,2.05914 9.19098,3.04142 0,1.20187 -6.73787,1.13189 -9.81424,-0.10193 z m -17.18576,-1.82671 c -2.62721,-0.46416 -3.5,-1.1171 -3.5,-2.61836 0,-1.59878 0.62279,-1.97359 3.10452,-1.86837 3.19516,0.13546 8.39548,2.91256 8.39548,4.48338 0,0.96437 -2.55443,0.96544 -8,0.003 z m -23.5,-2.7733 c -1.1,-0.23261 -3.0125,-0.63898 -4.25,-0.90305 -1.59971,-0.34135 -2.25,-1.19715 -2.25,-2.96106 0,-2.2023 0.42319,-2.48095 3.76787,-2.48095 3.75808,0 11.23213,4.01649 11.23213,6.03605 0,0.95501 -4.64638,1.12393 -8.5,0.30901 z m -29.14912,-3.52407 c -3.78282,-0.69162 -5.28364,-1.45587 -5.65612,-2.88021 -0.67144,-2.56761 0.89681,-3.39495 5.76853,-3.0432 6.42233,0.46371 10.46522,3.2787 8.35706,5.81888 -1.18446,1.42719 -1.23192,1.42778 -8.46947,0.10453 z m 85.95677,-11.69997 c -1.72847,-2.76772 -2.97108,-10.62389 -4.8801,-30.85349 -0.59139,-6.26679 -0.45621,-7.3193 1.01243,-7.88287 3.62828,-1.3923 8.05248,2.96513 16.09601,15.85312 3.08726,4.94666 5.62588,14.04704 5.27629,18.91433 -0.30194,4.20397 -1.63387,5.41122 -2.95136,2.67511 -0.3515,-0.72997 -1.13282,-3.99854 -1.73628,-7.26349 -1.49662,-8.09738 -2.36906,-8.68557 -6.69211,-4.51178 -3.35062,3.23493 -3.55161,3.78273 -3.25194,8.86287 0.33497,5.67853 -0.86045,7.42871 -2.87294,4.2062 z m 6.1453,-18.28154 c 1.40088,-0.63828 2.54705,-1.66486 2.54705,-2.28128 0,-1.89427 -6.92876,-12.31688 -8.61928,-12.9656 -1.33291,-0.51148 -1.50785,0.002 -1.07304,3.14814 0.80487,5.82404 2.94345,13.25926 3.81374,13.25926 0.43146,0 1.93065,-0.52223 3.33153,-1.16052 z m 15.788,16.91052 c -0.60336,-1.2375 -1.38713,-4.00329 -1.74172,-6.1462 -0.35459,-2.14291 -1.28856,-4.87883 -2.07548,-6.07982 -1.65406,-2.52443 -1.10311,-3.5144 1.56726,-2.81608 1.90966,0.49939 5.00899,5.84183 5.00899,8.63421 0,2.74753 1.6716,2.67841 5.69409,-0.23547 4.28981,-3.10752 8.30591,-4.74494 8.30591,-3.38644 0,1.18608 -9.01742,9.80214 -11.68426,11.16421 -3.09227,1.57935 -3.83233,1.41392 -5.07479,-1.13441 z m 176.75777,-1.5 c -0.003,-5.60728 2.33797,-19.25 3.30256,-19.25 1.01961,0 0.31027,15.28023 -0.91684,19.75 -0.86053,3.13451 -2.38418,2.81518 -2.38572,-0.5 z m 8.11627,-55.25 c -0.0464,-1.925 0.35185,-4.175 0.88501,-5 0.76214,-1.17932 0.95134,-0.96553 0.88501,1 -0.0464,1.375 -0.44466,3.625 -0.88501,5 -0.7336,2.29068 -0.8077,2.20695 -0.88501,-1 z m 4.90887,-38.55 c 0.0252,-4.18 1.40199,-11.20918 2.3887,-12.19589 1.3091,-1.3091 1.44853,0.66167 0.51379,7.26209 -1.12904,7.97251 -2.93943,11.04989 -2.90249,4.9338 z m -223.95278,0.79845 c -1.8859,-0.96165 -4.32075,-2.96517 -5.41077,-4.45227 -1.65315,-2.25537 -1.76644,-2.96337 -0.68307,-4.26876 1.14475,-1.37934 1.69943,-1.09688 4.67686,2.38158 1.85794,2.17058 4.94998,4.46529 6.87119,5.09935 1.92122,0.63406 3.23743,1.56657 2.9249,2.07224 -0.89466,1.4476 -4.63714,1.07593 -8.37911,-0.83214 z m 19.92892,0.80808 c 0,-1.37768 13.15979,-11.0638 14.96594,-11.01552 2.62636,0.0702 -11.48993,11.94167 -14.21594,11.95525 -0.4125,0.002 -0.75,-0.42082 -0.75,-0.93973 z m -0.96752,-4.99584 c -0.74069,-1.38399 -0.70732,-2.14361 0.11652,-2.65278 1.29064,-0.79766 4.08383,2.40634 3.25995,3.73941 -0.87547,1.41653 -2.27846,0.96501 -3.37647,-1.08663 z m -31.97964,-11.49702 c -1.53675,-1.85167 1.44003,-13.15509 3.69201,-14.01925 1.28375,-0.49263 1.39011,0.0738 0.69225,3.68677 -0.45349,2.34784 -0.82794,5.95631 -0.83209,8.01881 -0.008,3.91857 -1.44394,4.85393 -3.55217,2.31367 z m 50.39154,-3.84803 c -0.34602,-0.90169 -0.25005,-4.46346 0.21325,-7.91503 0.61235,-4.56193 1.28721,-6.36093 2.47141,-6.58813 1.01651,-0.19502 1.83753,0.55228 2.18355,1.98749 0.786,3.26013 -0.78831,10.70432 -2.65948,12.57549 -1.4395,1.4395 -1.63543,1.43419 -2.20873,-0.0598 z m -3.38121,-20.59182 c -2.08718,-4.09121 -1.86996,-5.12382 1.07782,-5.12382 2.06755,0 5.27926,5.46248 4.46275,7.59026 -0.99267,2.58686 -3.54139,1.45227 -5.54057,-2.46644 z m -39.06317,0.96674 c 0,-1.84952 7.42646,-9.09056 9.32334,-9.09056 0.85724,0 1.83674,0.45 2.17666,1 0.33992,0.55 -0.17899,1 -1.15313,1 -0.97414,0 -3.7007,1.89369 -6.05902,4.20821 -2.35832,2.31451 -4.28785,3.61157 -4.28785,2.88235 z m 483.95416,299.82379 c -0.61391,-1.1471 -1.31533,-1.88651 -1.55872,-1.64312 -0.6999,0.69989 0.71897,3.72877 1.74673,3.72877 0.51083,0 0.42629,-0.93781 -0.18801,-2.08565 z m 16.54584,-13.24768 c 0,-2.60655 -1.9609,-2.44297 -2.33415,0.19471 -0.22908,1.61892 0.0853,2.22156 1,1.91667 0.73378,-0.24459 1.33415,-1.19472 1.33415,-2.11138 z M 167.62618,790.45741 c 1.78354,-4.26861 1.78184,-7.84656 -0.004,-9.32904 -1.11852,-0.92829 -1.82699,-0.56759 -3.5,1.78193 -2.22386,3.12253 -2.76301,6.13707 -1.09803,6.13707 0.55,0 1,1.37656 1,3.05902 0,3.78134 1.6484,3.02672 3.60203,-1.64898 z m -8.01063,-15.51103 c 2.42392,-2.67841 2.66491,-13.89986 0.39513,-18.39901 -2.31739,-4.5935 -5.88578,-4.13004 -7.69936,1 -0.77775,2.2 -1.19688,5.35 -0.9314,7 0.60742,3.7752 4.47149,12.5 5.53604,12.5 0.43902,0 1.65383,-0.94545 2.69959,-2.10099 z m 634.55781,-31.64846 c -0.2213,-15.61393 0.0918,-28.07288 0.84828,-33.75055 1.71817,-12.89615 9.53483,-53.89439 12.96478,-68 1.60487,-6.6 3.21728,-14.2826 3.58312,-17.07244 l 0.66516,-5.07244 -18.35527,-2.18973 c -23.44968,-2.79747 -26.76234,-2.9338 -27.86672,-1.14688 -1.52423,2.46625 -2.32571,13.8596 -2.39046,33.98149 -0.0747,23.2128 1.94024,35.49502 8.85816,53.9954 2.36608,6.32753 5.30416,15.1046 6.52905,19.5046 1.2249,4.4 3.24645,11.15 4.49233,15 1.24588,3.85 3.05509,9.7 4.02048,13 1.67108,5.71231 6.04908,16.49938 6.69685,16.50055 0.16777,3.1e-4 0.14717,-11.13719 -0.0458,-24.75 z m 905.31404,-27.00055 c -2.4122,-3.75451 -13.8364,-18.53307 -19.519,-25.25 -5.9718,-7.05875 -26.8508,-35.83284 -34.4668,-47.5 -3.2313,-4.95 -8.1766,-13.275 -10.9897,-18.5 -9.7884,-18.18103 -12.7924,-23.57225 -19.7802,-35.5 -3.8666,-6.6 -9.1568,-15.375 -11.7561,-19.5 -5.1799,-8.22029 -12.6774,-21.72374 -22.7645,-41 -3.5976,-6.875 -8.8713,-16.346 -11.7194,-21.04666 -2.8481,-4.70066 -7.5813,-13.02566 -10.5182,-18.5 -2.9369,-5.47434 -6.1596,-10.54663 -7.1614,-11.27176 -1.0018,-0.72513 -1.5728,-1.72076 -1.2689,-2.21251 0.6704,-1.08472 -2.948,-8.40709 -10.115,-20.46907 -10.2307,-17.21809 -19.5601,-41.32399 -17.7842,-45.95191 0.3181,-0.82891 -0.3099,-3.42883 -1.3956,-5.7776 -1.0857,-2.34877 -2.9983,-9.89549 -4.2503,-16.77049 -1.252,-6.875 -2.5861,-12.85524 -2.9646,-13.28942 -1.2229,-1.40265 -78.3699,-10.68345 -79.4906,-9.56274 -1.1438,1.14381 -2.5188,11.65791 -2.5188,19.26029 0,12.1316 7.0292,34.23312 15.5363,48.84986 2.6383,4.5331 7.6018,13.75876 11.0299,20.50145 3.4282,6.7427 7.9657,14.53257 10.0834,17.31084 4.9295,6.46715 15.5741,15.23205 31.3504,25.81442 14.42,9.67257 19.3508,13.37994 23.4022,17.59551 6.3919,6.65106 23.8567,27.95 29.1256,35.51979 2.1055,3.025 5.9874,8.0396 8.6263,11.14356 6.3392,7.45622 14.0888,20.33284 17.3093,28.76063 3.0499,7.98156 4.3315,16.48651 2.6416,17.53089 -2.0922,1.29308 -7.9605,-3.46347 -14.4884,-11.74357 -10.6221,-13.47343 -19.5205,-22.90768 -30.6166,-32.46048 -9.6842,-8.33727 -26.2379,-24.7678 -43.5551,-43.23103 -3.8689,-4.125 -9.8925,-9.75 -13.3857,-12.5 -3.4931,-2.75 -10.3614,-8.6 -15.2628,-13 -11.0658,-9.9338 -15.064,-13.08213 -25.7964,-20.31293 -8.4203,-5.67307 -15.875,-9.6454 -16.6488,-8.87158 -0.8701,0.87004 -4.547,28.91142 -9.8587,75.18451 -0.7577,6.6 -2.7339,23.025 -4.3917,36.5 -1.6578,13.475 -4.1654,33.95 -5.5723,45.5 -1.407,11.55 -3.4676,27.975 -4.5792,36.5 -1.1115,8.525 -1.8923,17.525 -1.7351,20 l 0.2858,4.5 9,1.1725 c 28.0895,3.65944 37.6958,4.53171 38.7123,3.51515 0.7429,-0.74289 1.6921,-0.64116 3.1929,0.34221 1.1747,0.76965 6.6265,1.88277 12.1153,2.47361 20.1386,2.16782 36.21,4.10629 45.4795,5.48556 5.225,0.77746 15.35,2.11918 22.5,2.98159 7.15,0.86242 20.2,2.45317 29,3.53501 8.8,1.08184 23.65,2.87257 33,3.97939 9.35,1.10682 19.025,2.26364 21.5,2.57072 2.475,0.30708 6.525,0.72795 9,0.93529 2.475,0.20733 12.15,1.34225 21.5,2.52204 28.0401,3.53814 55.8152,6.78983 58.865,6.89146 l 2.865,0.0955 -1.7667,-2.75 z m -92.2341,-13.4375 c 0.2177,-0.65313 0.9305,-1.36573 1.584,-1.58356 0.7307,-0.24358 0.9542,0.21359 0.5805,1.1875 -0.6975,1.81771 -2.7645,2.19592 -2.1645,0.39606 z m 6.5898,-2.16123 c -0.693,-0.74179 -2.0607,-1.13931 -3.0395,-0.88336 -0.9787,0.25594 -1.7795,-0.0371 -1.7795,-0.65128 0,-0.61415 -0.4766,-1.11663 -1.059,-1.11663 -0.5825,0 -0.8001,0.41891 -0.4837,0.9309 0.3164,0.512 0.18,1.17523 -0.3032,1.47386 -0.4832,0.29863 -0.8011,-0.45778 -0.7064,-1.6809 0.095,-1.22312 -0.4353,-2.95417 -1.1777,-3.84677 -1.1652,-1.40077 -1.0672,-1.69686 0.7157,-2.16311 1.8246,-0.47714 1.9863,-1.03658 1.3856,-4.79332 -0.572,-3.57723 -0.4365,-4.15967 0.8525,-3.66504 0.8428,0.32345 2.0267,0.0939 2.6307,-0.51014 1.7632,-1.76317 4.903,1.85942 5.6999,6.57637 0.385,2.27905 1.3584,4.62515 2.1631,5.21355 1.2749,0.93224 1.2586,1.23956 -0.1272,2.38966 -0.8747,0.72591 -1.5903,1.93973 -1.5903,2.69738 0,1.75562 -1.5548,1.76971 -3.181,0.0288 z m 6.7665,-18.2891 c -0.7899,-2.05836 0.9917,-4.19284 2.3472,-2.81217 0.5784,0.58916 0.4334,1.62586 -0.3818,2.72939 -1.2228,1.65547 -1.3597,1.66123 -1.9654,0.0828 z m -233.0284,-1.45452 c 0.3713,-0.60079 1.533,-7.91329 2.5815,-16.25 1.0485,-8.33671 3.889,-30.68265 6.3121,-49.65765 2.4231,-18.975 5.8077,-45.975 7.5214,-60 1.7137,-14.025 3.8189,-31.125 4.6783,-38 0.8594,-6.875 1.7181,-14.075 1.9083,-16 0.1902,-1.925 0.7977,-6.65 1.3502,-10.5 0.5524,-3.85 1.5615,-11.87696 2.2424,-17.83768 l 1.2381,-10.83769 -5.8515,-5.13266 c -3.2183,-2.82296 -8.9136,-7.39601 -12.6562,-10.16232 -3.7427,-2.76631 -10.9606,-8.6006 -16.0399,-12.96509 -8.5015,-7.30507 -13.8018,-10.40827 -17.9694,-10.52067 -0.8951,-0.0241 -2.2269,-0.76606 -2.9594,-1.64871 -1.1503,-1.38608 -0.8603,-1.99929 2.1276,-4.49874 1.9027,-1.59165 5.4121,-4.01026 7.7987,-5.37469 11.7723,-6.73022 27.3023,-23.11324 33.6722,-35.52175 0.9883,-1.925 3.5808,-5.91548 5.7612,-8.86773 4.64,-6.28252 4.4019,-6.63235 -5.1685,-7.59435 -3.6323,-0.36512 -10.8792,-1.28492 -16.1042,-2.044 -22.9564,-3.33508 -88.9188,-11.74799 -106,-13.51934 -7.6354,-0.7918 -91.3368,-11.10755 -105,-12.94069 -17.2383,-2.3128 -93.7831,-11.74393 -178.49995,-21.99308 -13.75,-1.66349 -28.375,-3.46856 -32.5,-4.01126 -4.125,-0.54269 -13.8,-1.7083 -21.5,-2.59023 -7.7,-0.88193 -22.55,-2.68552 -33,-4.00797 -10.45,-1.32245 -30.025,-3.75877 -43.5,-5.41403 -13.475,-1.65526 -42.725,-5.248 -65,-7.98387 -35.95697,-4.41633 -127.05017,-15.40433 -162.5,-19.60135 -7.15,-0.84651 -17.95,-2.17222 -24,-2.94602 -15.79427,-2.02011 -30.5,-2.9181 -30.5,-1.86247 0,0.4937 3.25135,2.46785 7.22523,4.38701 5.59135,2.70031 7.4225,4.12095 8.09763,6.28229 1.80031,5.76345 -2.26278,12.12274 -10.37048,16.23122 -9.05377,4.58789 -17.03625,4.20885 -21.97035,-1.04326 -1.98462,-2.11253 -2.15011,-2.81656 -1.16849,-4.97098 1.45277,-3.18849 2.79669,-3.199 3.59254,-0.0281 1.36,5.41868 10.14847,7.04978 17.60915,3.26819 5.70195,-2.89014 8.74423,-7.78776 7.09119,-11.41577 -0.63503,-1.39374 -2.04376,-2.76659 -3.13051,-3.05078 -1.08675,-0.28417 -1.97591,-0.87191 -1.97591,-1.30606 0,-0.43415 -2.1002,-1.50497 -4.66711,-2.37961 -5.40199,-1.84064 -8.33289,-4.17662 -8.33289,-6.64146 0,-2.18826 0.89245,-2.03243 -40,-6.9845 -49.00541,-5.93455 -84.84885,-10.33878 -126,-15.48213 -99.55917,-12.44357 -131.15261,-15.85169 -132.16542,-14.25722 -0.44283,0.69715 -1.00508,2.61755 -1.24943,4.26755 -0.24436,1.65 -0.92822,6.15 -1.51969,10 -0.59148,3.85 -1.97214,14.65 -3.06814,24 -1.09599,9.35 -2.6623,22.175 -3.48068,28.5 -0.81837,6.325 -2.86151,22.525 -4.54031,36 -1.67879,13.475 -3.7088,29.225 -4.51112,35 -0.80231,5.775 -2.37221,18.6 -3.48865,28.5 -1.11645,9.9 -3.15412,27 -4.52816,38 -1.37405,11 -3.17687,25.625 -4.00628,32.5 -0.8294,6.875 -1.94658,15.65 -2.48261,19.5 -1.11538,8.01113 -6.52919,52.92612 -7.49141,62.15149 -0.75911,7.2781 -2.48344,6.4719 19.0319,8.89833 7.7,0.86838 19.4,2.22531 26,3.01539 35.81167,4.28701 48.42205,5.45133 52.77957,4.87315 2.67448,-0.35486 5.31709,-0.20147 6,0.34826 1.75681,1.41421 5.1308,1.99375 24.72043,4.24614 44.25079,5.08791 61.7175,7.11481 77.5,8.99338 28.02836,3.33619 50.21081,5.90343 64.5,7.46477 7.425,0.81131 24.975,2.85611 39,4.544 47.38323,5.70251 57.43125,6.87366 85,9.90721 15.125,1.6643 33.125,3.70949 40,4.54488 6.875,0.83538 20.15,2.42118 29.5,3.524 9.35,1.10281 18.575,2.24044 20.5,2.52807 5.85866,0.87536 36.24473,3.54953 36.5754,3.21887 0.17021,-0.17022 1.23428,-4.57289 2.3646,-9.78371 2.54465,-11.73095 8.64881,-24.01402 14.39646,-28.96923 14.9662,-12.90278 19.55798,-15.06535 27.89978,-13.13983 9.71156,2.2417 20.62806,11.38722 22.76216,19.06948 1.98568,7.14796 1.19149,16.96801 -2.10801,26.06535 -4.13759,11.40808 -4.49124,13.55545 -2.36676,14.3707 1.55233,0.59568 19.12202,2.77431 69.97637,8.677 9.9,1.1491 28.8,3.39754 42,4.99652 13.2,1.59899 28.05,3.36743 33,3.92988 4.95,0.56244 12.825,1.46553 17.5,2.00687 4.675,0.54134 10.975,1.24169 13.99995,1.55634 3.025,0.31465 11.125,1.22294 18,2.01842 6.875,0.79549 14.525,1.67131 17,1.94628 34.1641,3.79561 54.3838,6.12015 79,9.08217 16.225,1.95232 32.875,3.94736 37,4.43342 4.125,0.48606 18.75,2.22935 32.5,3.87398 13.75,1.64463 31.525,3.69674 39.5,4.56024 7.975,0.86351 15.9625,1.81049 17.75,2.10441 4.4219,0.7271 4.2435,-1.22217 -0.4745,-5.18326 -3.1775,-2.66775 -3.5339,-3.35668 -2.4269,-4.69056 1.6541,-1.99308 3.2663,-1.38844 10.5891,3.9715 3.2658,2.39035 7.0618,4.34609 8.4356,4.34609 1.3738,0 3.4867,0.92903 4.6954,2.06451 1.4761,1.38671 4.452,2.36804 9.0644,2.98903 13.6336,1.83557 39.3205,4.96383 61.8669,7.53443 21.7739,2.48253 52.1896,6.05033 53.691,6.29803 0.38,0.0627 0.9948,-0.37756 1.3661,-0.97835 z m -99.8071,-21.98775 c -2.3764,-1.38411 -2.2728,-7.0418 0.2505,-13.68063 2.4923,-6.55721 2.5382,-9.88061 0.1541,-11.15653 -2.6077,-1.39562 -5.7232,1.03765 -6.5699,5.13138 -0.6476,3.13095 -0.7481,3.19436 -2.1322,1.34475 -0.7989,-1.06762 -1.4567,-2.86762 -1.4619,-4 -0.01,-1.37713 -1.0142,-0.30674 -3.0439,3.23257 -3.0636,5.34216 -6.627,7.76219 -9.9,6.72338 -0.929,-0.29486 -2.9566,-3.18786 -4.5056,-6.42888 -2.522,-5.27651 -2.7662,-6.67616 -2.3358,-13.38365 0.5808,-9.04928 4.0476,-16.04697 8.5042,-17.16551 2.3191,-0.58207 3.2691,-0.13664 5.952,2.79088 3.7116,4.05014 5.3251,9.03549 5.3329,16.4781 l 0.01,5.30577 2.2781,-2.64845 c 1.6808,-1.95401 3.2874,-2.67706 6.1274,-2.75757 7.519,-0.21313 9.7445,7.49813 5.4232,18.79059 -1.8381,4.80311 -1.9532,5.81424 -0.75,6.58721 2.1114,1.35648 6.662,0.13849 13.6713,-3.65919 4.3855,-2.3761 6.25,-2.97097 6.25,-1.99409 0,3.28139 -13.6652,11.57384 -19,11.52979 -1.375,-0.0113 -3.2875,-0.47931 -4.25,-1.03992 z m -16.8809,-19.48066 c 2.8933,-3.67819 4.5049,-12.33664 3.1989,-17.18652 -1.3738,-5.10222 -5.4966,-9.09848 -7.8629,-7.62169 -4.5584,2.84482 -5.8952,16.13579 -2.3265,23.13097 2.4895,4.8798 4.1567,5.27983 6.9905,1.67724 z m -48.0344,3.85543 c -16.0092,-13.05198 -22.1208,-20.30916 -17.0847,-20.28695 2.1066,0.009 22.25,18.58305 22.25,20.51616 0,2.5665 -1.8361,2.48502 -5.1653,-0.22921 z m -32.2158,-40.58483 c -4.014,-4.01406 -4.6412,-23.24504 -0.7335,-22.49404 1.276,0.24524 1.8245,2.42524 2.6157,10.39489 0.5506,5.54652 1.5592,10.75705 2.2413,11.57895 1.2212,1.47148 0.7665,2.81036 -0.9545,2.81036 -0.4834,0 -1.9094,-1.03057 -3.169,-2.29016 z M 547.10537,575.92237 c -0.1,-5.69466 0.87356,-10.875 2.04378,-10.875 1.36961,0 0.9378,9.16585 -0.58889,12.5 l -1.37367,3 -0.0812,-4.625 z m 642.20753,-15.67536 c -2.333,-1.48262 -4.3403,-8.31677 -4.3995,-14.97855 -0.078,-8.76572 0.8199,-12.22109 3.1754,-12.22109 1.6733,0 1.8446,0.92141 1.8125,9.75 -0.019,5.3625 0.4502,11.32203 1.0437,13.2434 1.6029,5.189 1.2689,6.04983 -1.6321,4.20624 z m -638.58721,-8.83143 c -0.36582,-0.36582 -0.47424,-1.61082 -0.24095,-2.76667 0.2333,-1.15585 0.6955,-3.78904 1.02711,-5.85154 0.9942,-6.1836 2.87687,-4.57127 2.20975,1.89245 -0.57232,5.54524 -1.68299,8.03868 -2.99591,6.72576 z m -212.37424,-6.08405 c -5.1465,-9.36583 -9.05225,-25.96414 -7.90689,-33.60195 0.71769,-4.78592 4.62543,-10.68221 7.07959,-10.68221 3.39596,0 7.81934,8.52944 9.98307,19.25 0.49378,2.44652 0.99435,2.75 4.53598,2.75 5.06889,0 7.98095,2.7085 7.98095,7.42308 0,6.96748 -9.89816,12.5359 -14.35714,8.07692 -2.42237,-2.42236 -2.77292,-1.81896 -2.44934,4.21605 0.38511,7.18257 -1.7201,8.29358 -4.86622,2.56811 z m 17.47734,-13.41204 c 0.2464,-2.12555 -0.20197,-2.75503 -2.34566,-3.29306 -2.99419,-0.75149 -5.45898,0.77313 -5.45898,3.37672 0,2.50209 1.05759,3.1753 4.46406,2.84161 2.44008,-0.23902 3.09573,-0.81316 3.34058,-2.92527 z m -12.86385,-9.87212 c -0.0461,-7.26097 -4.5147,-16.99941 -7.07444,-15.4174 -1.41328,0.87345 -0.98783,4.07169 0.73145,5.49857 1.12428,0.93307 1.43705,2.31667 1.05537,4.6687 -0.68852,4.24283 2.93777,13.51072 4.38875,11.21655 0.5101,-0.80653 0.91459,-3.49142 0.89887,-5.96642 z m 212.10936,-10.5 c -0.0434,-6.17125 1.09491,-11.6204 2.33681,-11.18631 1.44807,0.50617 0.88393,7.8456 -0.92227,11.99856 l -1.38641,3.18775 -0.0281,-4 z m 630.8674,1.34607 c -1.9379,-3.62112 -1.3919,-14.70156 1.0396,-21.09607 1.2531,-3.29523 2.7962,-5.75 3.6146,-5.75 1.7956,0 1.7713,2.78418 -0.092,10.5 -0.7968,3.3 -1.4558,8.8125 -1.4644,12.25 -0.016,6.4419 -1.0857,7.85608 -3.098,4.09607 z M 560.4559,469.85033 c 0.84223,-6.34903 2.4976,-9.82308 2.52684,-5.30296 0.0318,4.91173 -1.14883,10.5 -2.21826,10.5 -0.6244,0 -0.73992,-1.94546 -0.30858,-5.19704 z m 634.586,-12.25618 c -1.8089,-4.75774 4.6587,-23.54678 8.1053,-23.54678 2.5356,0 2.3759,1.58816 -1.0228,10.17444 -1.5948,4.02906 -3.2093,9.23806 -3.5879,11.57556 -0.7728,4.77264 -2.1031,5.45663 -3.4946,1.79678 z M 563.34573,434.5066 c 0.69942,-7.48994 1.51422,-9.50403 2.86696,-7.08681 1.11551,1.99331 -0.98744,13.62758 -2.46325,13.62758 -0.64485,0 -0.79195,-2.38323 -0.40371,-6.54077 z m -12.87245,-19.46234 c -8.11185,-1.9712 -10.0812,-2.91242 -16.94913,-8.10055 -6.55998,-4.9555 -11.99045,-11.57369 -15.31205,-18.66103 -2.29332,-4.89329 -2.68795,-7.05663 -2.68795,-14.73531 0,-8.75223 0.13375,-9.27008 4.8584,-18.81009 5.40207,-10.90786 11.17251,-17.77013 22.78606,-27.09744 9.33233,-7.49516 14.5554,-13.85651 15.37884,-18.73038 0.79734,-4.71939 0.2502,-5.60705 -4.89667,-7.94425 -5.52549,-2.50914 -15.08663,-2.54459 -19.14282,-0.071 -9.3733,5.71616 -20.54644,22.74922 -34.86675,53.15315 -4.25624,9.03656 -7.8576,15.30124 -11.49736,20 -1.49114,1.925 -5.26876,7.55 -8.3947,12.5 -6.33064,10.02471 -13.08405,16.61268 -14.15879,13.81195 -0.38812,-1.01143 0.30527,-2.62685 1.8134,-4.22477 1.34299,-1.42295 4.13529,-5.51218 6.20512,-9.08718 2.06982,-3.575 6.11487,-9.94833 8.98901,-14.16295 2.87413,-4.21462 9.53449,-16.48208 14.80081,-27.26102 10.7545,-22.012 19.44032,-35.46848 27.57247,-42.71655 7.11554,-6.34197 10.97191,-7.39472 21.91392,-5.98225 12.96198,1.67322 18.1653,5.83892 16.74565,13.40631 -0.9771,5.20835 -5.58973,10.77242 -17.47977,21.08527 -12.70774,11.02208 -16.92056,16.24479 -21.23182,26.32149 -2.84888,6.65869 -3.34408,8.98875 -3.35999,15.8097 -0.0164,7.00976 0.38254,8.82211 3.22258,14.64175 3.4821,7.13529 11.80952,15.77826 19.52366,20.26346 2.32031,1.34909 8.01975,3.16718 12.66541,4.04019 7.12104,1.33819 10.49523,1.41647 21.5,0.4988 17.07273,-1.42367 20.59273,-2.26795 29.55334,-7.08845 10.87311,-5.84935 15.53675,-10.09414 22.14201,-20.15341 8.23937,-12.54786 11.06238,-23.96625 7.8454,-31.73273 -1.27022,-3.06658 -7.70404,-5.9696 -13.23017,-5.9696 -1.58756,0 -5.06178,-0.93579 -7.72049,-2.07953 -7.19223,-3.09402 -7.27584,-6.33356 -0.42967,-16.64775 6.09492,-9.18239 22.63634,-18.17061 47.30419,-25.70398 4.6262,-1.41281 9.03793,-2.56874 9.80383,-2.56874 0.76591,0 6.20584,-1.63569 12.08873,-3.63488 8.84878,-3.00707 12.50968,-3.71328 21.19617,-4.08884 12.96298,-0.56046 28.43627,1.63673 37.77174,5.36354 7.31993,2.92219 7.70348,3.1539 36.05832,21.78348 10.63153,6.98509 22.63881,14.20801 26.68284,16.05094 8.47513,3.86223 21.46317,6.87755 36.4871,8.47089 21.54757,2.28518 40.21592,4.98913 63.5,9.19741 7.05851,1.27573 16.37476,2.07329 26,2.22585 14.41096,0.22841 15.01211,0.32065 15.3083,2.34879 0.20059,1.37356 -0.35846,2.32266 -1.60027,2.71679 -3.7921,1.20357 -34.64763,-1.31312 -46.70803,-3.80968 -18.52304,-3.83435 -22.0131,-4.41776 -36.5,-6.10151 -7.425,-0.86297 -16.2,-1.9926 -19.5,-2.51028 -3.3,-0.51769 -8.475,-1.23297 -11.5,-1.58952 -17.52945,-2.06615 -29.83306,-7.31664 -52.35841,-22.34361 -31.3154,-20.89094 -37.93333,-24.12454 -54.2977,-26.5305 -14.06409,-2.06775 -26.18275,-1.04588 -39.01482,3.28983 -4.85599,1.64075 -10.40407,3.28157 -12.32907,3.64627 -11.29073,2.13909 -30.20675,9.10122 -40.36881,14.85794 -9.41955,5.33609 -11.38634,6.91649 -14.75,11.85222 -2.13466,3.13232 -3.88119,6.38327 -3.88119,7.22432 0,2.11945 5.13988,4.57122 9.70034,4.62715 2.08981,0.0256 6.24721,1.05484 9.23866,2.28712 6.93162,2.85538 10.07255,8.04077 10.03904,16.57356 -0.0273,6.96506 -2.073,11.61854 -10.77428,24.50952 -7.51215,11.12927 -12.90385,15.69608 -26.54271,22.48186 -7.11635,3.54062 -9.76119,4.2607 -20.66105,5.62514 -15.27644,1.9123 -27.2217,1.7401 -36.55087,-0.52691 z m 657.57572,-3.46694 c -1.6841,-2.0291 -0.5324,-5.95556 3.8218,-13.02995 2.4536,-3.98634 4.4414,-6.10724 5.9231,-6.31955 1.2266,-0.17575 2.2227,0.0492 2.2135,0.5 -0.01,0.45075 -2.0341,4.17403 -4.5,8.27394 -2.4658,4.09991 -4.4833,8.23586 -4.4833,9.19098 0,2.40657 -1.5344,3.12063 -2.9751,1.38458 z m -641.02485,-4.9891 c 0,-4.41771 2.39311,-16.54085 3.26516,-16.54085 1.02198,0 0.40214,11.00436 -0.88715,15.75 -0.68012,2.5034 -2.37801,3.06806 -2.37801,0.79085 z m 4.41747,-32.4406 c 0.29096,-2.96068 -0.0896,-5.1964 -1.16347,-6.83535 -1.36445,-2.08241 -1.38982,-2.56293 -0.17493,-3.31377 0.78151,-0.483 1.42093,-1.40221 1.42093,-2.04268 0,-2.0621 3.80424,-3.79412 6.25,-2.84555 3.11313,1.20741 2.90317,5.00775 -0.5,9.05035 -1.5125,1.79669 -3.54086,4.86871 -4.50746,6.82673 l -1.75746,3.56002 0.43239,-4.39975 z m 650.58248,-0.36572 c 0,-4.8043 11.1829,-20.73453 14.5555,-20.73453 2.457,0 1.6535,1.87213 -4.434,10.33128 -3.2332,4.4928 -6.3991,9.18122 -7.0352,10.41872 -1.4889,2.89622 -3.0863,2.88821 -3.0863,-0.0155 z m -61,-10.17551 c 0,-1.75653 0.6001,-2.01516 1.4573,-0.62812 0.3164,0.512 0.118,1.21356 -0.441,1.55902 -0.559,0.34546 -1.0163,-0.0734 -1.0163,-0.9309 z M 601.52415,342.04737 c -0.33992,-0.55 -0.14148,-1 0.44098,-1 0.58246,0 1.05902,0.45 1.05902,1 0,0.55 -0.19844,1 -0.44098,1 -0.24254,0 -0.7191,-0.45 -1.05902,-1 z m 215.16057,265.5 c 5.51458,-12.98801 7.3392,-18.7838 7.33385,-23.29549 -0.01,-8.09455 -1.76002,-12.24967 -7.34711,-17.44032 -9.09638,-8.45093 -15.2736,-9.83162 -22.43358,-5.01419 -9.42434,6.34096 -15.24058,12.35324 -18.81299,19.44711 -3.61217,7.1728 -7.40074,19.91106 -7.40074,24.8834 0,3.24699 -0.12661,3.20913 18,5.38255 6.875,0.82433 13.85,1.67475 15.5,1.88982 1.65,0.21507 5.16293,0.33616 7.80651,0.26908 l 4.80652,-0.12196 2.54754,-6 z m 756.80198,-15.98216 c -1.7667,-6.78281 -7.4746,-18.06419 -12.4034,-24.51473 -1.8925,-2.47671 -9.0468,-11.92811 -15.8987,-21.00311 -22.2125,-29.41976 -24.5567,-31.8261 -42.4136,-43.53731 -16.5948,-10.88345 -17.2767,-11.37801 -25.7227,-18.65463 -10.0232,-8.63546 -15.8217,-16.44813 -22.4149,-30.20101 -2.9286,-6.10888 -7.5716,-15.02097 -10.3177,-19.80464 -2.7461,-4.78368 -7.1358,-14.79618 -9.7549,-22.25 -4.2946,-12.22221 -6.5367,-16.33556 -6.5367,-11.99225 0,0.85809 -1.3251,11.54559 -2.9447,23.75 -1.6197,12.20441 -3.22,25.11484 -3.5564,28.68984 l -0.6115,6.5 3.5423,2.25 c 1.9482,1.2375 3.8547,2.25 4.2366,2.25 2.8149,0 27.2695,18.17229 34.3337,25.51348 2.475,2.57204 7.2,6.52524 10.5,8.78489 3.3,2.25964 11.175,9.47084 17.5,16.02489 23.8554,24.71929 42.883,43.43476 50.0672,49.24594 4.088,3.30678 13.2414,12.63536 20.3409,20.73018 7.0994,8.09481 13.0578,14.568 13.241,14.38487 0.1831,-0.18313 -0.3508,-2.95802 -1.1865,-6.16641 z M 1416.4733,452.79737 c 0.7683,-3.54813 2.5967,-17.31033 8.589,-64.64843 1.629,-12.86913 2.9618,-23.78163 2.9618,-24.25 0,-1.33632 -3.8162,-0.99795 -6.9352,0.6149 -3.4935,1.80656 -10.3767,9.50584 -13.8871,15.53353 -9.3845,16.11395 -19.2111,25.92688 -36.4277,36.37692 -3.1234,1.89583 -3.5938,3.61139 -1,3.64733 2.0028,0.0278 6.8449,3.59408 17.9598,13.22795 9.6962,8.40424 26.5419,21.70478 27.5211,21.72941 0.4021,0.0101 0.9503,-0.99411 1.2183,-2.23161 z M 1232.7556,1762.2369 c -3.9924,-2.2517 -4.9861,-3.422 -6.1048,-7.1895 -1.1013,-3.7089 -1.7573,-4.5 -3.7315,-4.5 -2.142,0 -2.4271,0.4937 -2.6967,4.6703 -0.2938,4.5503 -2.1841,7.5747 -4.0237,6.4378 -0.502,-0.3103 -1.2217,-4.2865 -1.5995,-8.8361 -0.3777,-4.5496 -1.381,-10.8062 -2.2296,-13.9036 -1.1877,-4.3355 -1.2819,-6.1191 -0.4091,-7.75 1.4692,-2.7451 2.4881,-2.6765 3.825,0.2578 0.8409,1.8454 1.6558,2.2667 3.6481,1.8858 2.888,-0.5521 4.6657,2.0626 2.7231,4.0052 -1.6496,1.6496 -1.3857,4.6985 0.4681,5.4099 1.9274,0.7396 3.3629,-1.2562 3.3838,-4.7046 0.023,-3.7088 2.8247,-7.3755 4.5454,-5.9476 0.7424,0.6162 1.4893,2.0856 1.6599,3.2653 0.2368,1.6386 1.0182,2.1526 3.31,2.1774 2.4838,0.027 3.329,0.7064 4.9121,3.9492 1.6722,3.4257 1.758,4.4289 0.6835,8 -2.0006,6.649 -1.8759,8.0435 0.7523,8.4156 1.3932,0.1972 3.2817,-0.5449 4.6445,-1.8252 2.7452,-2.5791 3.8731,-1.3542 2.4671,2.6792 -1.1472,3.2907 -5.5971,6.3438 -9.1138,6.2531 -1.2901,-0.033 -4.4915,-1.2708 -7.1142,-2.75 z m 545.9352,-693.8562 c -1.578,-1.5779 -0.5948,-5.1193 1.5833,-5.703 3.5324,-0.9466 4.0935,-0.7491 2.6867,0.9459 -1.0841,1.3063 -1.0623,1.7305 0.1276,2.4772 1.7109,1.0737 4.7677,0.2966 7.1857,-1.8267 2.3895,-2.0982 2.2095,-7.3728 -0.3631,-10.6434 -2.9543,-3.7557 -5.2699,-2.998 -5.8869,1.9264 -0.8092,6.4583 -2.4867,3.6146 -2.6602,-4.5097 -0.088,-4.125 -0.7372,-8.9308 -1.4426,-10.6795 -1.6511,-4.0935 -0.1967,-7.5576 4.3324,-10.3191 4.4459,-2.7106 9.2262,-2.6164 11.2137,0.2211 2.5584,3.6527 1.7305,7.4051 -3.3953,15.3884 -1.2109,1.8859 -1.046,2.4985 1.5483,5.7499 2.5747,3.2269 3.4192,3.6391 7.4537,3.6392 5.5275,0 6.95,1.2569 6.95,6.141 0,2.0575 0.4098,3.9942 0.9107,4.3038 1.3855,0.8563 5.3493,0.9121 7.5893,0.1068 1.6628,-0.5978 1.582,-0.3515 -0.4793,1.4607 -2.2544,1.9819 -3.1617,2.118 -10,1.4998 -4.1364,-0.374 -8.4243,-1.2562 -9.5286,-1.9605 -1.6861,-1.0752 -2.5653,-0.9816 -5.4844,0.584 -3.373,1.8089 -10.9905,2.5482 -12.341,1.1977 z m 23.5166,-9.55 c -0.7175,-0.7175 -1.1833,-0.7766 -1.1833,-0.15 0,1.3348 1.1826,2.5174 1.85,1.85 0.2842,-0.2841 -0.016,-1.0491 -0.6667,-1.7 z m -11.5831,-16.2959 c 2.192,-3.3454 3.3208,-8.8773 2.2147,-10.8538 -1.2389,-2.2136 -5.1166,-2.0627 -7.2384,0.2818 -1.632,1.8034 -1.6343,2.0667 -0.04,4.5 1.0189,1.5549 1.2493,2.5846 0.5785,2.5846 -0.6358,0 -1.115,1.7342 -1.115,4.0352 0,3.7253 0.1536,3.953 2,2.9648 1.1,-0.5887 2.7201,-2.1694 3.6002,-3.5126 z m 40.101,22.8805 c -0.3856,-0.3857 -0.7012,-1.5262 -0.7012,-2.5346 0,-2.2216 -1.3119,-2.3673 -3,-0.3333 -0.6847,0.825 -2.0661,1.5 -3.0697,1.5 -1.663,0 -1.8522,-1.2193 -2.1335,-13.75 -0.1698,-7.5625 -0.531,-14.425 -0.8027,-15.25 -0.3508,-1.0651 0.2308,-1.5 2.0059,-1.5 2.626,0 2.6084,-0.041 4.7183,11 0.7377,3.8605 0.775,3.7824 1.0705,-2.2402 0.2509,-5.1142 0.6814,-6.4411 2.3858,-7.3533 3.3558,-1.7959 3.8446,0.4029 3.5748,16.0809 -0.2093,12.155 -0.4988,14.5353 -1.7982,14.7846 -0.8518,0.1634 -1.8643,-0.018 -2.25,-0.4041 z m -2.0453,-10.6369 c -0.2739,-0.6771 -0.4813,0.119 -0.461,1.769 0.02,1.65 0.2445,2.2039 0.4981,1.231 0.2535,-0.973 0.2369,-2.323 -0.037,-3 z m -39.2178,-329.83114 c -0.7114,-1.15109 0.4241,-32.84319 1.2237,-34.15259 0.2527,-0.41399 1.3099,-0.29762 2.3492,0.25861 1.4514,0.77677 1.9592,2.34288 2.1894,6.7527 0.2246,4.30362 0.6752,5.74139 1.7996,5.74139 1.0452,0 1.7005,-1.51613 2.1613,-5 1.4571,-11.01716 2.2114,-12.97597 5.128,-13.31642 1.4909,-0.17403 2.7107,-0.0352 2.7107,0.30844 0,0.34368 -0.4879,3.76932 -1.0842,7.61254 -0.8391,5.40831 -0.8035,7.32586 0.1576,8.48394 0.9406,1.13333 0.961,1.77706 0.084,2.65388 -0.6908,0.69086 -1.1576,4.50422 -1.1576,9.45762 0,8.08771 -0.061,8.3 -2.393,8.3 -2.8808,0 -3.607,-1.61528 -3.607,-8.02277 0,-4.95716 -1.5201,-7.33524 -3.1036,-4.85535 -0.484,0.75797 -0.8277,4.36804 -0.7638,8.02239 0.064,3.65435 -0.1914,7.14185 -0.5673,7.75 -0.8817,1.42665 -4.2466,1.43034 -5.1272,0.006 z m -19.2381,-1.09989 c -0.66,-0.66 -1.2006,-3.4725 -1.2014,-6.25 -7e-4,-2.7775 -0.6751,-8.875 -1.4986,-13.55 -0.8235,-4.675 -1.4979,-9.0874 -1.4986,-9.80532 -8e-4,-0.71793 2.4541,-2.42948 5.4552,-3.80345 4.1175,-1.88505 6.3263,-2.33499 9,-1.83339 4.5868,0.86049 4.5875,2.42051 10e-4,2.24809 -4.4292,-0.16652 -8.8451,2.94889 -9.274,6.54297 -0.1741,1.4581 0.1147,2.6511 0.6416,2.6511 0.5269,0 1.2403,1.125 1.5854,2.5 0.5062,2.01663 1.2522,2.50296 3.8585,2.51531 1.777,0.008 3.9059,0.45153 4.7309,0.98469 1.2181,0.78721 1.086,0.97225 -0.7029,0.98469 -1.2117,0.008 -3.4067,0.56376 -4.8779,1.2341 -2.641,1.20329 -2.6682,1.31774 -2.1417,9 0.4713,6.87504 0.3348,7.78121 -1.1721,7.78121 -0.938,0 -2.2454,-0.54 -2.9054,-1.2 z M 1561.6484,469.68648 c -0.6037,-2.40521 0.04,-5.63911 1.1224,-5.63911 1.0304,0 3.19,3.51962 3.2215,5.25 0.017,0.9625 -0.1564,1.75 -0.3864,1.75 -0.23,0 -1.0745,0.25184 -1.8766,0.55964 -0.9635,0.36972 -1.6697,-0.28206 -2.0809,-1.92053 z M 1446.2087,350.56022 c -0.7235,-1.64294 -1.5778,-6.70544 -1.8985,-11.25 -0.7274,-10.30671 0.4699,-10.73859 7.4063,-2.67152 2.6442,3.07523 6.0317,6.22985 7.5278,7.01028 2.5614,1.33607 2.822,1.26369 4.462,-1.23941 2.5184,-3.84344 2.992,-14.15768 0.8412,-18.31687 -1.2629,-2.44226 -1.3529,-3.16118 -0.3565,-2.84681 2.97,0.937 4.9746,7.05144 4.5433,13.85784 -0.5434,8.57501 -2.345,12.34292 -6.1078,12.77359 -2.3773,0.2721 -3.9027,-0.67932 -8.6993,-5.42586 l -5.8165,-5.75582 -0.2933,8.42587 c -0.2758,7.92442 -0.3716,8.24809 -1.6087,5.43871 z m -164.1846,-46.54423 c 0,-0.53274 0.675,-0.96862 1.5,-0.96862 0.825,0 1.5,0.17686 1.5,0.39301 0,0.21616 -0.675,0.65203 -1.5,0.96862 -0.825,0.31658 -1.5,0.13972 -1.5,-0.39301 z m 8.5838,-12.83307 c -0.9989,-1.61629 6.1862,-7.22331 17.4496,-13.6171 6.3066,-3.58003 12.0025,-6.51123 12.6576,-6.5138 3.7255,-0.0146 1.1338,2.44355 -7.9456,7.53591 -5.635,3.1605 -12.8127,7.4715 -15.9505,9.58 -3.1379,2.1085 -5.9329,3.46524 -6.2111,3.01499 z m -210.7022,-28.38555 c -0.065,-1.2375 -0.048,-2.63807 0.037,-3.11237 0.086,-0.4743 -0.6091,-1.42173 -1.544,-2.10539 -1.8863,-1.37927 -1.2369,-4.71593 0.8352,-4.29152 1.9592,0.40129 3.9305,5.84215 3.246,8.95882 -0.7368,3.35467 -2.4082,3.71202 -2.5746,0.55046 z m 261.6184,-1.3201 c 11.0383,-9.19184 23.5,-15.78325 23.5,-12.4299 0,0.55 -0.3798,1 -0.8439,1 -0.4641,0 -5.7094,3.15 -11.6561,7 -10.7335,6.94904 -17.108,9.51615 -11,4.4299 z M 1274.2083,62.435482 c -1.5069,-1.654353 -1.2301,-5.551925 0.433,-6.098848 1.2959,-0.426164 2.7818,5.728216 1.6453,6.814629 -0.4194,0.400892 -1.3546,0.07879 -2.0783,-0.715781 z m -8.1842,-1.388113 c 0,-0.55 0.1984,-1 0.441,-1 0.2425,0 0.7191,0.45 1.059,1 0.3399,0.55 0.1415,1 -0.441,1 -0.5824,0 -1.059,-0.45 -1.059,-1 z m 4.4461,-9.087132 c -0.3695,-0.597923 -0.2723,-1.486691 0.2161,-1.975041 0.5172,-0.517211 1.4028,-0.06334 2.1213,1.087132 1.0152,1.625625 0.977,1.975041 -0.216,1.975041 -0.7972,0 -1.7518,-0.48921 -2.1214,-1.087132 z m 41.2831,-21.517035 c -0.4011,-0.401041 -0.7292,-1.419166 -0.7292,-2.2625 0,-1.125593 0.2958,-1.2375 1.1125,-0.420833 0.6119,0.611875 0.94,1.63 0.7292,2.2625 -0.2109,0.6325 -0.7115,0.821875 -1.1125,0.420833 z m 4.7708,-2.395833 c -0.3399,-0.55 -0.1415,-1 0.441,-1 0.5824,0 1.059,0.45 1.059,1 0,0.55 -0.1984,1 -0.441,1 -0.2425,0 -0.7191,-0.45 -1.059,-1 z m -6.5893,-11.076356 c -1.1113,-0.70347 -0.9862,-0.921404 0.5893,-1.026752 1.1,-0.07355 2.3375,-0.08044 2.75,-0.01531 0.4125,0.06513 0.75,-0.331582 0.75,-0.881582 0,-0.55 0.4875,-1 1.0833,-1 1.7542,0 0.4914,2.24325 -1.7241,3.062829 -1.1208,0.414608 -2.6726,0.351975 -3.4485,-0.139185 z"
     id="path3090"
     style="fill:#000000" />
</svg>
