<?xml version="1.0" encoding="UTF-8" standalone="no"?>
<!-- Created with Inkscape (http://www.inkscape.org/) -->

<svg
   xmlns:dc="http://purl.org/dc/elements/1.1/"
   xmlns:cc="http://creativecommons.org/ns#"
   xmlns:rdf="http://www.w3.org/1999/02/22-rdf-syntax-ns#"
   xmlns:svg="http://www.w3.org/2000/svg"
   xmlns="http://www.w3.org/2000/svg"
   version="1.1"
   width="1658.2538"
   height="1704"
   id="svg2">
  <metadata
     id="metadata8">
    <rdf:RDF>
      <cc:Work
         rdf:about="">
        <dc:format>image/svg+xml</dc:format>
        <dc:type
           rdf:resource="http://purl.org/dc/dcmitype/StillImage" />
        <dc:title></dc:title>
      </cc:Work>
    </rdf:RDF>
  </metadata>
  <defs
     id="defs6" />
  <path
     d="m 1323.8155,1700.75 c 2.5711,-3.8914 14.4807,-28.0365 19.36,-39.25 8.8895,-20.4298 21.3855,-63.8335 18.832,-65.4116 -0.7142,-0.4414 -0.8537,-3.0286 -0.4113,-7.6282 1.0379,-10.7906 0.8525,-23.7429 -0.5436,-37.9602 -0.9279,-9.4497 -1.0027,-15.398 -0.2738,-21.7807 1.0263,-8.9866 0.1757,-24.8963 -1.8031,-33.7239 -1.4643,-6.5327 -1.5414,-37.5953 -0.1266,-50.9954 1.1411,-10.8069 6.313,-36.4929 9.5425,-47.3923 2.9052,-9.8049 12.3139,-24.1918 22.6327,-34.6077 25.8716,-26.1153 43.0838,-33.784 88.8402,-39.5817 14.9821,-1.8983 18.0505,-3.0808 23.141,-8.9183 8.0139,-9.1897 11.806,-19.9769 11.8416,-33.6846 0.034,-12.8985 -3.1332,-23.1684 -11.7087,-37.972 l -4.4353,-7.6566 -6.6693,-0.5674 c -8.6823,-0.7386 -19.0455,-1.4166 -32.6693,-2.1374 -6.05,-0.3201 -20.9,-1.2314 -33,-2.0252 -12.1,-0.7938 -25.375,-1.6628 -29.5,-1.9311 -4.125,-0.2682 -16.275,-0.9568 -27,-1.5302 -10.725,-0.5733 -26.475,-1.471 -35,-1.9948 -8.525,-0.5239 -19.775,-1.1918 -25,-1.4842 -5.225,-0.2925 -16.7,-0.9806 -25.5,-1.5291 -8.8,-0.5485 -32.875,-1.8935 -53.5,-2.9889 -20.625,-1.0955 -47.4,-2.646 -59.5,-3.4458 -12.1,-0.7997 -27.4507,-1.7371 -34.1126,-2.0829 -14.2253,-0.7385 -13.993,-0.9383 -11.8994,10.2303 0.701,3.7399 1.5749,10.8499 1.942,15.7999 0.6312,8.5129 2.3947,23.3894 4.6231,39 0.5496,3.85 1.6891,12.85 2.5322,20 0.8432,7.15 1.9299,16.15 2.415,20 3.0243,24.0013 5.1501,45.9837 4.3716,45.2052 -2.0159,-2.0159 -11.8682,-71.9466 -19.4237,-137.8677 -0.6721,-5.8644 -1.5168,-11.1395 -1.8771,-11.7224 -1.1382,-1.8416 -15.2029,-2.9286 -72.5711,-5.6085 -6.05,-0.2827 -26.525,-1.4327 -45.5,-2.5557 -18.97503,-1.1229 -43.27503,-2.4576 -54.00003,-2.9659 -10.725,-0.5083 -25.575,-1.3748 -33,-1.9256 -14.89594,-1.1051 -35.40941,-2.3757 -74,-4.5837 -14.025,-0.8024 -35.85,-2.1205 -48.5,-2.929 -12.65,-0.8084 -36.85363,-2.2393 -53.78584,-3.1797 l -30.78583,-1.7097 -1.52087,2.1714 c -1.97485,2.8195 -3.56561,2.7404 -6.63576,-0.3297 -2.37904,-2.3791 -3.24447,-2.5332 -17.74372,-3.1608 l -15.24269,-0.6598 0.45845,4.9108 c 0.25215,2.7009 1.66171,13.4608 3.13236,23.9108 1.47065,10.45 3.80859,27.325 5.19543,37.5 1.38683,10.175 3.39445,24.35 4.46138,31.5 1.84119,12.3388 9.15175,66.1642 12.49542,92 0.85417,6.6 1.97946,14.925 2.50065,18.5 0.52119,3.575 1.17137,9.875 1.44484,14 0.39235,5.9182 0.28228,6.8673 -0.52187,4.5 -0.56049,-1.65 -1.26833,-5.025 -1.57297,-7.5 -0.30464,-2.475 -1.16723,-6.975 -1.91687,-10 -0.74964,-3.025 -1.60296,-8.2 -1.89626,-11.5 -0.56321,-6.3366 -4.50589,-34.5024 -7.06906,-50.5 -0.83716,-5.225 -1.75099,-11.075 -2.03072,-13 -0.44638,-3.0718 -3.57548,-23.1409 -4.91137,-31.5 -0.26369,-1.65 -0.75337,-5.25 -1.08818,-8 -0.33481,-2.75 -1.52558,-11.3 -2.64616,-19 -1.12058,-7.7 -2.45391,-17.375 -2.96296,-21.5 -0.50904,-4.125 -1.08673,-8.625 -1.28375,-10 -0.19702,-1.375 -0.8901,-6.55 -1.54019,-11.5 -0.65009,-4.95 -1.40722,-10.125 -1.68252,-11.5 -0.27529,-1.375 -0.66249,-4.075 -0.86044,-6 -0.45016,-4.3778 -2.3342,-15.1811 -2.71028,-15.5412 -0.66871,-0.6401 -8.19308,-1.3448 -20.28022,-1.8992 -7.15,-0.328 -16.375,-0.8922 -20.5,-1.2539 -4.125,-0.3617 -7.81743,-0.5851 -8.20539,-0.4965 -0.61647,0.1408 -26.52459,-1.4905 -75.79461,-4.7721 -7.975,-0.5312 -23.95,-1.4418 -35.5,-2.0234 -11.55,-0.5817 -27.3,-1.4831 -35,-2.0031 -7.7,-0.52 -21.425,-1.4031 -30.5,-1.9624 -9.075,-0.5593 -19.65,-1.2452 -23.5,-1.5243 -7.38983,-0.5357 -17.56932,-1.0997 -36.5,-2.0222 -6.325,-0.3082 -18.475,-1.0226 -27,-1.5875 -8.525,-0.5649 -19.1,-1.1915 -23.5,-1.3925 -4.4,-0.2009 -17.225,-0.8383 -28.5,-1.4163 -29.69418,-1.5224 -31.99676,-1.476 -32.01531,0.6446 -0.008,0.9625 -0.43746,2.4176 -0.95341,3.2336 -0.74032,1.1709 -1.267,0.6965 -2.49811,-2.25 -1.37854,-3.2993 -1.96559,-3.7336 -5.04659,-3.7336 -3.41744,0 -3.48658,0.082 -3.48658,4.1164 0,2.264 1.56851,15.8765 3.48558,30.25 4.23067,31.7201 4.83398,37.3507 3.55022,33.1336 -0.5023,-1.65 -3.00256,-17.175 -5.55614,-34.5 -3.50159,-23.7568 -5.03852,-31.8073 -6.2524,-32.75 -0.88524,-0.6875 -3.21101,-1.2617 -5.16839,-1.2761 -1.95738,-0.014 -10.53387,-0.4579 -19.05887,-0.9857 -8.525,-0.5278 -24.725,-1.4499 -36,-2.049 -30.43691,-1.6174 -35.91821,-2.9641 -9.5,-2.3341 12.1,0.2886 23.8,0.6797 26,0.8691 2.2,0.1895 11.425,0.6666 20.5,1.0602 9.075,0.3936 16.79128,0.8824 17.14729,1.0862 0.35602,0.2037 2.06593,0.087 3.79982,-0.26 2.77076,-0.5542 3.08657,-0.9472 2.60794,-3.2456 -0.29951,-1.4382 -0.98135,-6.215 -1.51519,-10.615 -0.53384,-4.4 -1.8952,-14.075 -3.02524,-21.5 -1.82199,-11.9715 -2.63029,-18.17 -4.5616,-34.9809 -0.32158,-2.7992 -0.16352,-4.1127 0.42116,-3.5 0.51476,0.5395 2.3469,11.1059 4.0714,23.4809 3.75108,26.9176 6.86996,45.6721 8.10713,48.75 1.07869,2.6836 6.94729,3.3171 6.94729,0.75 0,-2.0597 2.54081,-1.8805 5.79049,0.4084 2.80188,1.9734 8.89238,2.6094 34.70951,3.6243 6.05,0.2378 12.8,0.6576 15,0.9327 4.66704,0.5838 17.42102,1.2286 40.5,2.0477 9.075,0.3221 18.075,0.7716 20,0.999 1.925,0.2275 14.075,0.8812 27,1.4529 12.925,0.5717 29.575,1.485 37,2.0297 12.4825,0.9156 36.2616,2.419 55.5,3.5088 4.4,0.2493 14.975,0.7093 23.5,1.0222 8.525,0.313 17.975,0.7734 21,1.0232 3.025,0.2498 17.2,1.1403 31.5,1.9789 14.3,0.8385 30.725,1.9431 36.5,2.4545 9.81267,0.869 42.1671,2.4819 50,2.4925 l 3.5,0 -0.30287,-5.9898 c -0.16657,-3.2944 -0.51289,-7.1148 -0.76959,-8.4898 -0.2567,-1.375 -0.91144,-5.875 -1.45498,-10 -0.54354,-4.125 -1.2174,-8.85 -1.49747,-10.5 -0.28007,-1.65 -1.34993,-8.4 -2.37746,-15 -1.87346,-12.0335 -2.36162,-15.5764 -4.06467,-29.5 -0.50454,-4.125 -1.60268,-11.55 -2.4403,-16.5 -1.52397,-9.006 -1.94704,-12.3408 -3.10814,-24.5 -0.34139,-3.575 -0.85648,-7.175 -1.14466,-8 -0.54755,-1.5675 -4.00395,-25.8507 -4.91064,-34.5 -0.28828,-2.75 -1.65114,-12.425 -3.02857,-21.5 -1.37743,-9.075 -2.9604,-19.875 -3.5177,-24 -0.5573,-4.125 -1.22822,-9.075 -1.49092,-11 -0.2627,-1.925 -1.10556,-9.125 -1.87303,-16 -2.22966,-19.97344 -2.0561,-19.69341 -12.77453,-20.61068 -3.43446,-0.29391 -11.19447,-1.20127 -17.24447,-2.01636 -6.05,-0.81508 -15.95,-1.68275 -22,-1.92816 -25.41106,-1.03075 -53.0577,-2.54625 -71,-3.89199 -8.5976,-0.64485 -27.86403,-1.57699 -44.36172,-2.14629 -6.79894,-0.23462 -12.66292,-0.61273 -13.03106,-0.84025 -0.36814,-0.22753 -7.18036,-0.6843 -15.13828,-1.01505 -7.95792,-0.32596 -17.16894,-0.85971 -20.46894,-1.18132 -3.3,-0.3216 -10.5,-0.73008 -16,-0.90773 -28.56108,-0.92252 -43.44745,-1.54069 -47.5,-1.97247 -5.6331,-0.60019 -15.65804,-1.19346 -33,-1.95291 -17.5986,-0.77069 -35.81029,-1.88936 -49.5,-3.04058 -1.65,-0.13875 -7.88182,-0.55384 -13.84848,-0.92241 -5.96667,-0.36858 -13.61667,-0.98488 -17,-1.36957 -3.38334,-0.38469 -8.85152,-0.47443 -12.15152,-0.19943 -6.95682,0.57973 -6.62087,-0.85421 -3.85048,16.4355 0.8756,5.46452 1.3627,12.21452 1.08244,15 -0.28026,2.78547 0.065,8.2145 0.76712,12.0645 0.70217,3.85 1.3299,5.875 1.39496,4.5 l 0.11828,-2.5 1.44687,2.77378 c 1.50895,2.89278 3.34614,15.72972 2.08267,14.55222 -0.39776,-0.37071 -1.34073,-3.07071 -2.0955,-6 l -1.3723,-5.326 0.53391,6 c 0.29365,3.3 2.73809,22.2 5.43209,42 5.78477,42.5162 6.56451,48.3427 8.49803,63.5 0.80683,6.325 1.73097,13.075 2.05363,15 0.32266,1.925 0.32776,3.2437 0.0113,2.9305 -0.59174,-0.5857 -3.49967,-16.7686 -6.18687,-34.4305 -0.83681,-5.5 -2.89436,-19 -4.57233,-30 -1.67798,-11 -3.39941,-22.7 -3.8254,-26 -0.98917,-7.66276 -7.51175,-52.88279 -9.5199,-66 -3.21766,-21.0178 -3.69373,-23.41708 -4.83422,-24.36361 -0.64557,-0.53578 -3.83452,-1.34815 -7.08654,-1.80527 -8.19079,-1.15133 -8.582,-3.2465 -0.58501,-3.13311 3.36732,0.0477 6.51413,-0.31478 6.99292,-0.8056 1.28871,-1.3211 -2.51938,-26.06894 -4.2827,-27.83226 -0.80411,-0.80411 -1.76163,-3.0591 -2.12783,-5.01108 C 203.07346,860.59708 202.39933,859 201.9416,859 c -2.13517,0 -2.78155,2.82187 -2.03973,8.90474 0.78918,6.47119 0.46642,9.09526 -1.11871,9.09526 -2.77147,0 -5.77551,-14.49306 -7.49126,-36.14175 -0.6693,-8.44484 -0.63181,-8.65861 1.64508,-9.38126 1.92109,-0.60974 2.90627,-0.0584 5.61386,3.14175 l 3.28388,3.88126 0.0149,-3.59907 c 0.015,-3.6205 -3.69992,-32.2302 -6.47949,-49.90093 -1.31716,-8.37366 -2.44208,-16.83055 -4.05706,-30.5 -0.44258,-3.74609 -0.69057,-5.40574 -1.94247,-13 -0.272,-1.65 -1.63531,-10.875 -3.02958,-20.5 -1.39427,-9.625 -3.39478,-22.9 -4.44558,-29.5 -2.31613,-14.5475 -2.83148,-17.98243 -4.05089,-27 -0.52061,-3.85 -1.42002,-9.7 -1.99868,-13 -0.57866,-3.3 -1.6874,-11.175 -2.46388,-17.5 -0.77647,-6.325 -2.3304,-17.575 -3.45319,-25 -1.12278,-7.425 -2.92885,-19.35 -4.0135,-26.5 -1.08464,-7.15 -2.16879,-14.575 -2.40923,-16.5 -0.24044,-1.925 -1.19792,-8.16717 -2.12775,-13.8715 -0.92982,-5.70432 -2.05617,-14.47932 -2.50299,-19.5 -1.05694,-11.87612 -3.15129,-20.16332 -5.05885,-20.01752 -1.76193,0.13467 -32.8483,7.0728 -38.45198,8.58205 -2.2,0.59253 -5.35,1.45492 -7,1.91643 -1.65,0.4615 -13.124995,3.30531 -25.499995,6.31957 -33.961015,8.2721 -48.914813,11.99466 -66.380467,16.52458 -8.7342577,2.26533 -16.11116538,3.88809 -16.39312881,3.60613 -0.28196342,-0.28197 0.11424686,-0.703 0.88046727,-0.93563 3.70183654,-1.12392 28.09941854,-7.61622 33.39309854,-8.88605 3.3,-0.79159 14.1,-3.55457 24,-6.13994 9.9,-2.58537 31.95,-8.29518 48.999995,-12.68847 38.71131,-9.97478 37.1145,-9.55731 42.5,-11.11123 l 4.5,-1.29842 -0.11567,-5.5 c -0.0636,-3.025 -0.66176,-9.1 -1.32921,-13.5 -1.41099,-9.30166 -7.84693,-54.96831 -9.09018,-64.5 -0.4663,-3.575 -1.07316,-7.85 -1.34858,-9.5 -0.27541,-1.65 -0.76027,-5.025 -1.07746,-7.5 -0.31719,-2.475 -1.06114,-7.55105 -1.65323,-11.28012 -1.1102,-6.99215 -0.61957,-10.85378 1.15369,-9.08052 0.53559,0.53559 2.06566,8.59834 3.40015,17.91722 3.93722,27.49391 8.43242,58.4616 9.49961,65.44342 0.54645,3.575 1.48404,10.1 2.08352,14.5 2.10219,15.42942 3.23702,20.66241 4.5938,21.18306 1.5144,0.58113 94.39034,-22.37947 95.73258,-23.66681 0.46697,-0.44786 1.2371,-4.27473 1.71141,-8.50416 0.89855,-8.01235 3.09389,-14.91644 7.56253,-23.78329 7.54158,-14.96428 14.42737,-21.46566 23.75441,-22.4283 6.22587,-0.64257 8.93262,0.51999 11.6724,5.01332 3.08339,5.05687 2.45514,8.13017 -3.90313,19.09347 -6.34569,10.94163 -8.14664,15.31212 -8.14664,19.77002 0,2.85755 0.0351,2.8741 4.74275,2.23566 4.16688,-0.5651 22.29042,-4.90797 30.75725,-7.37024 1.65,-0.47985 7.95,-2.20737 14,-3.83894 6.05,-1.63157 14.6,-3.94099 19,-5.13205 4.4,-1.19105 15.65,-4.19919 25,-6.68475 19.62619,-5.21734 22.50658,-6.21132 22.48225,-7.75831 -0.026,-1.64963 -9.16119,-15.17705 -14.94378,-22.12868 -6.34391,-7.62642 -15.62381,-20.76688 -18.11693,-25.65379 -4.20599,-8.24443 -1.31428,-20.22304 6.12684,-25.37974 4.40646,-3.05368 15.47797,-6.39346 21.34009,-6.43735 8.06258,-0.0604 23.58548,5.45763 35.16924,12.50179 6.01826,3.65975 13.19229,7.80095 15.94229,9.20266 2.75,1.40172 8.15,4.66972 12,7.26223 15.55527,10.4746 25.15693,13.74422 41,13.96161 4.4,0.0604 12.05,0.55583 17,1.10103 17.98745,1.98113 22.99786,2.16378 27.31703,0.99579 3.94551,-1.06695 4.27419,-1.3992 3.81935,-3.86082 -0.27371,-1.48138 -1.05897,-7.08091 -1.74502,-12.44341 -0.68605,-5.3625 -1.56231,-9.75 -1.94724,-9.75 -0.38493,0 -2.31537,0.675 -4.28988,1.5 -6.77203,2.82954 -14.41606,1.68208 -16.65424,-2.5 -0.82713,-1.5455 -0.61516,-2.38484 1.01356,-4.01356 2.44088,-2.44088 3.98644,-1.81902 3.98644,1.60396 0,3.29897 1.96327,3.86962 6.61962,1.92407 5.87755,-2.4558 8.38287,-5.28269 8.36507,-9.43878 -0.0212,-4.94158 -0.57271,-5.51906 -8.17962,-8.56421 -6.56083,-2.62639 -11.80507,-6.38547 -11.80507,-8.46189 0,-1.2703 8.21602,-6.5607 12.87173,-8.28827 l 3.37174,-1.25114 -0.61,-6.00509 C 542.16245,336.20229 540.3524,322.25 538.47562,308.5 c -1.87679,-13.75 -3.22457,-25.195 -2.99508,-25.43333 1.36421,-1.41676 2.70842,3.51989 5.30538,19.48412 1.60593,9.87207 3.86762,23.57421 5.02598,30.44921 1.15837,6.875 2.13862,13.175 2.17835,14 0.0397,0.825 0.52637,4.65 1.08141,8.5 1.51979,10.54177 3.94888,13.81205 5.22131,7.02944 0.80892,-4.31193 4.75658,-9.1405 7.97609,-9.75595 1.33459,-0.25512 3.81452,0.11975 5.51097,0.83305 2.50307,1.05246 3.08444,1.88083 3.08444,4.39485 0,3.4198 -2.01329,7.93482 -4.43406,9.94389 -3.98637,3.30839 0.15896,6.05538 5.61066,3.71802 1.82787,-0.78368 4.72098,-2.81844 6.42913,-4.52169 2.96363,-2.95513 4.39427,-3.16836 4.39427,-0.65494 0,0.63433 -1.58224,3.00182 -3.51609,5.26109 -5.90936,6.90376 -14.10917,7.96278 -20.43577,2.6393 l -3.01073,-2.53337 -1.70323,3.57171 c -1.60911,3.37434 -1.60282,4.31908 0.11381,17.09604 0.99938,7.43838 2.09491,13.68591 2.43453,13.8834 0.33961,0.19749 12.99248,-2.75903 28.11748,-6.57004 15.125,-3.81101 31.325,-7.8038 36,-8.87286 11.34836,-2.59511 36.9147,-9.27927 45,-11.76497 3.575,-1.09907 8.3,-2.30351 10.5,-2.67652 2.2,-0.37301 19.525,-4.53326 38.5,-9.245 18.975,-4.71174 35.175,-8.53651 36,-8.49951 0.825,0.037 2.4,-0.30108 3.5,-0.75132 2.93654,-1.20194 16.02199,-4.77824 23.5,-6.42263 6.86093,-1.50869 15.8667,-3.71611 25,-6.12777 3.025,-0.79876 10.675,-2.63472 17,-4.0799 6.325,-1.44518 31.525,-7.56864 56,-13.60767 24.475,-6.03904 45.4,-11.15381 46.5,-11.36617 1.1,-0.21235 4.475,-1.06823 7.5,-1.90194 5.69875,-1.57062 21.36896,-5.49864 24,-6.01603 0.825,-0.16223 9.44815,-2.36667 19.16256,-4.89874 C 982.74144,301.0717 991.01589,299 991.41471,299 c 0.87995,0 0.39319,-4.38257 -4.05401,-36.5 -7.34754,-53.06359 -13.49623,-98.17515 -13.49623,-99.01882 0,-0.48465 0.47319,-0.40799 1.05153,0.17035 0.57835,0.57835 1.70659,5.28085 2.5072,10.45 5.00309,32.30251 8.06404,52.60631 13.47751,89.39847 4.68419,31.8357 4.84658,32.69046 6.06731,31.936 0.51745,-0.3198 2.82501,-3.13623 5.12798,-6.25873 5.1761,-7.01825 5.627,-7.40298 19.7685,-16.86685 6.325,-4.23285 14.0431,-10.22096 17.1513,-13.3069 6.1394,-6.0953 8.7381,-7.43938 22.3487,-11.5592 4.95,-1.49832 10.6782,-3.56564 12.7293,-4.59405 10.561,-5.2951 32.3216,-9.6088 41.2022,-8.16768 1.9234,0.31213 3.6022,0.0719 4.0004,-0.57238 0.3774,-0.61061 1.6721,-1.07468 2.8771,-1.03126 1.2051,0.0434 1.6285,0.30592 0.941,0.58333 -0.6875,0.27741 -1.25,1.37972 -1.25,2.44957 0,2.83205 5.0837,12.43747 10.4022,19.65467 5.1279,6.95844 3.7754,6.6617 16.0978,3.53197 3.3,-0.83816 7.575,-1.88686 9.5,-2.33044 1.925,-0.44357 7.325,-1.85535 12,-3.13728 l 8.5,-2.33077 0.1523,-8.86532 c 0.1851,-10.7712 0.9079,-13.56861 9.0401,-34.98938 7.1022,-18.70777 7.2187,-18.92458 16.1105,-29.98632 7.2386,-9.00513 11.329,-17.4567 20.3669,-42.08205 4.8148,-13.1189 4.895,-13.50222 5.7668,-27.57693 0.734,-11.850225 0.6362,-13.72668 -0.8002,-15.354909 -1.3472,-1.527112 -1.6601,-4.531325 -1.7707,-17 -0.1255,-14.154504 -2.4384,-40.058137 -4.3882,-49.145091 -0.4721,-2.2 -1.5513,-8.327615 -2.3982,-13.616922 -0.847,-5.2893067 -1.8219,-10.3518067 -2.1666,-11.2499997 C 1217.8247,0.45377804 1218.213,0 1219.6746,0 c 2.2065,0 3.2846,3.5658029 5.2341,17.311385 0.5399,3.806722 1.1694,7.225282 1.3991,7.5968 0.2296,0.371518 1.5877,9.881661 3.018,21.133651 1.8179,14.300684 2.4053,22.454973 1.9518,27.09254 -0.5392,5.514033 -0.3764,6.786782 0.964,7.536882 1.4491,0.810959 1.5246,3.130342 0.7444,22.865622 l -0.8683,21.96312 -6.631,17.40431 c -8.812,23.12834 -12.3576,30.17259 -19.6318,39.00322 -7.4512,9.0455 -7.6574,9.43917 -14.5646,27.80559 -6.8453,18.20208 -8.4258,24.09487 -8.4258,31.41519 0,7.3722 0.6453,8.98372 3.3543,8.37641 1.1801,-0.26458 12.4957,-3.0081 25.1457,-6.0967 12.65,-3.0886 23.675,-5.75654 24.5,-5.92877 0.825,-0.17223 3.6972,-0.8158 6.3827,-1.43017 2.6855,-0.61436 5.1124,-0.88733 5.3931,-0.60659 0.6486,0.64863 -1.1194,1.30384 -6.7758,2.51104 -2.475,0.52822 -8.775,2.12803 -14,3.55514 -5.225,1.42711 -13.775,3.74462 -19,5.15004 -19.3304,5.19947 -23,6.43534 -23,7.7461 0,2.59432 5.9434,15.67098 9.6879,21.31551 2.0967,3.16045 9.6621,11.65467 16.8121,18.87605 7.15,7.22137 16.6,17.01752 21,21.76923 4.4,4.7517 10.7,10.40536 14,12.56368 3.3,2.15833 10.725,8.35021 16.5,13.75975 5.775,5.40954 12.2517,11.13939 14.3927,12.73299 2.141,1.5936 7.541,6.31499 12,10.49196 4.459,4.17698 10.1323,9.13795 12.6073,11.02439 7.9042,6.02453 43.7186,40.46959 62.6578,60.26206 8.1576,8.5251 11.6532,11.53296 13,11.1861 1.1915,-0.30685 3.4317,0.97021 6.3422,3.61546 2.475,2.24944 6.975,5.96301 10,8.25239 3.025,2.28937 8.0114,6.4312 11.0809,9.20406 8.3717,7.56265 20.4163,16.94772 40.4191,31.49432 9.9,7.19955 22.275,16.43793 27.5,20.52974 5.225,4.09181 11.1699,8.69467 13.2109,10.22858 2.0409,1.53391 9.3687,7.23745 16.284,12.67454 6.9153,5.4371 14.9204,11.3247 17.7892,13.08358 31.0989,19.06709 45.4077,29.56615 66.606,48.87208 13.3195,12.1305 23.3821,24.01335 30.7294,36.28817 1.1657,1.94752 3.782,5.34919 5.8141,7.55928 4.5195,4.91544 4.5633,5.02843 10.646,27.44186 5.472,20.16325 5.6933,22.85125 3.4882,42.36941 -2.3087,20.43386 -6.5273,37.64879 -10.5888,43.20951 -1.0884,1.49023 -1.979,2.98975 -1.979,3.33227 0,1.43258 -9.8778,14.335 -14.514,18.95822 -2.7577,2.75 -6.778,7.62809 -8.9339,10.84021 -4.1591,6.19654 -7.6864,9.48183 -19.2348,17.91479 -3.9504,2.88475 -11.7046,8.62 -17.2314,12.745 -5.5269,4.125 -14.6697,10.5554 -20.3174,14.28977 -9.5809,6.33512 -17.3715,12.00332 -26.4033,19.21023 -7.6182,6.07896 -28.117,27.15334 -31.1587,32.03368 -2.3683,3.79976 -4.4919,10.41839 -8.6631,27 -3.0392,12.08148 -6.0369,25.79082 -6.6616,30.46521 -1.6345,12.23021 -0.6168,29.89623 2.1892,38.00111 2.6987,7.79504 3.8928,9.83692 9.941,17 2.5542,3.025 6.232,7.975 8.173,11 1.9409,3.025 7.359,10.3769 12.0401,16.3375 9.3775,11.9407 18.3899,28.5748 19.3748,35.7598 0.9644,7.0367 -2.0624,17.0558 -8.4298,27.9027 -3.0672,5.225 -7.3977,13.1134 -9.6234,17.5299 -5.5067,10.927 -13.1277,21.9844 -17.4603,25.3335 -4.547,3.5148 -12.6679,7.6799 -16.6746,8.5522 -1.6986,0.3697 -4.7102,2.2021 -6.6926,4.0719 -4.9063,4.6279 -19.3412,11.5125 -24.1379,11.5125 -2.1827,0 -4.9687,0.8517 -6.6109,2.021 -5.7023,4.0605 -10.8151,5.1849 -20.3395,4.4731 -7.5522,-0.5645 -9.8161,-1.1834 -15.2465,-4.1683 -10.1383,-5.5727 -9.2134,-7.5933 1.2789,-2.794 7.1817,3.285 14.4578,4.8071 20.297,4.246 4.5802,-0.4401 5.8227,-0.9357 15.1221,-6.032 2.5203,-1.3812 7.5208,-3.5038 11.1121,-4.7169 3.5913,-1.2131 9.6156,-4.1909 13.3873,-6.6173 3.7718,-2.4264 7.6179,-4.4116 8.5471,-4.4116 0.9292,0 5.3061,-1.9125 9.7265,-4.25 6.9622,-3.6816 8.7917,-5.253 13.6797,-11.75 3.1034,-4.125 7.6265,-11.325 10.0513,-16 2.4248,-4.675 6.4471,-11.875 8.9385,-16 6.7391,-11.1581 7.6761,-13.7361 8.1781,-22.5 0.4433,-7.74 0.3266,-8.2684 -3.5896,-16.2566 -4.4974,-9.1737 -9.4345,-16.799 -18.6101,-28.7434 -3.3801,-4.4 -7.2243,-9.8 -8.5426,-12 -1.3184,-2.2 -5.3768,-7.825 -9.0186,-12.5 -5.4895,-7.04678 -7.1499,-10.12419 -9.7121,-18 -2.9124,-8.95215 -3.0621,-10.16318 -2.5968,-21 0.7428,-17.29887 2.1838,-25.4948 8.8786,-50.5 6.4808,-24.20582 6.9129,-24.96397 23.966,-42.0464 7.7122,-7.72553 17.6222,-16.78439 22.0222,-20.13081 10.1454,-7.71607 27.7648,-19.89122 31.8221,-21.98936 3.3591,-1.73706 13.1657,-9.07156 21.1779,-15.83929 2.75,-2.32286 6.9638,-5.44735 9.3641,-6.94332 6.7476,-4.2055 12.8328,-10.27763 16.2031,-16.16832 1.6882,-2.95065 4.0512,-6.04095 5.2511,-6.86735 2.27,-1.56331 6.6101,-7.29623 14.173,-18.72112 4.9574,-7.48886 9.7603,-20.70723 11.3708,-31.29403 2.7232,-17.90143 3.1379,-22.02932 3.1379,-31.2334 0,-8.51243 -0.6134,-12.14835 -4.5224,-26.80737 -4.4539,-16.70201 -4.6385,-17.13365 -12.1722,-28.45923 -13.1375,-19.74973 -18.0834,-25.64809 -32.6587,-38.94776 -21.1043,-19.25727 -30.657,-26.4481 -58.5219,-44.05224 -10.8997,-6.88605 -16.5761,-10.94346 -28.3467,-20.26174 -4.003,-3.16896 -11.5531,-9.14963 -16.7781,-13.29038 -5.225,-4.14076 -20.3,-15.67439 -33.5,-25.63029 -24.0308,-18.12489 -31.698,-24.22865 -46.893,-37.33089 -8.7521,-7.54674 -14.607,-11.97371 -14.607,-11.04454 0,0.31809 1.4991,2.71124 3.3312,5.3181 5.1277,7.29573 6.0311,9.23974 4.2937,9.23974 -0.795,0 -4.4765,-3.7125 -8.1811,-8.25 -3.7047,-4.5375 -9.9492,-11.4 -13.8768,-15.25 -3.9276,-3.85 -12.0745,-12.14855 -18.1041,-18.44122 -14.2198,-14.84021 -46.2748,-45.48904 -53.9629,-51.59573 -3.3,-2.6212 -9.15,-7.76953 -13,-11.44073 -3.85,-3.6712 -9.4714,-8.66558 -12.4919,-11.09861 -3.0206,-2.43304 -9.7468,-8.40896 -14.9471,-13.27983 -5.2003,-4.87087 -11.5809,-10.28775 -14.1792,-12.03751 -5.5247,-3.72055 -14.6564,-12.42048 -35.3818,-33.70865 -17.1711,-17.63742 -18.9435,-20.00529 -24.9405,-33.32111 -2.4113,-5.35402 -4.5609,-9.91137 -4.777,-10.12745 -0.4391,-0.43913 -32.7281,7.79834 -37.0325,9.44764 -1.5125,0.57953 -2.75,1.44099 -2.75,1.91434 0,0.47335 1.5003,2.84699 3.3339,5.27475 7.0203,9.29476 21.9839,31.60792 24.4111,36.4008 2.7552,5.44068 6.1053,10.30829 10.3328,15.01331 1.4825,1.65 5.2577,7.17694 8.3893,12.28209 3.1315,5.10515 7.5343,11.40515 9.7838,14 2.2496,2.59485 7.1536,8.86223 10.8979,13.92752 6.5249,8.8269 13.7925,15.65733 20.1666,18.95348 2.8883,1.49359 8.3498,3.83233 25.2294,10.8037 14.2021,5.86555 30.4605,14.88334 50.6984,28.12006 10.8587,7.10223 21.7866,14.19592 24.2841,15.76375 3.0965,1.94381 5.3254,4.39855 7.0068,7.71675 1.3563,2.67639 2.4659,5.10612 2.4659,5.39941 0,1.39171 -4.4706,0.28493 -7.3167,-1.81141 -1.7508,-1.28956 -6.1083,-3.38855 -9.6833,-4.66444 -7.259,-2.59066 -13.2997,-5.7749 -20,-10.54248 -2.475,-1.7611 -6.975,-4.43193 -10,-5.93518 -3.025,-1.50325 -9.325,-4.90453 -14,-7.55838 -8.1718,-4.63888 -12.6768,-6.34172 -23.5,-8.88285 -4.8958,-1.14946 -20.5436,-8.55153 -25.4982,-12.06177 -2.4101,-1.70749 -5.6295,-2.9375 -33.0018,-12.60861 -6.875,-2.42906 -14.75,-5.5896 -17.5,-7.02342 -5.4463,-2.83963 -19.489,-8.44271 -29,-11.57108 -13.0849,-4.3039 -25.3455,-9.22267 -32.1867,-12.91284 -7.1818,-3.87386 -16.3695,-9.69257 -17.3133,-10.96473 -0.275,-0.37068 -4.4109,-3.2175 -9.1909,-6.32627 -11.137,-7.24315 -24.9674,-14.06979 -32.4439,-16.01422 -9.1949,-2.39133 -26.2538,-8.47719 -33.0764,-11.80018 -3.9939,-1.94528 -7.0359,-2.81821 -8.5216,-2.44533 -1.2707,0.31893 -4.1007,-0.0269 -6.2888,-0.76843 -2.1881,-0.74157 -5.4409,-1.6601 -7.2284,-2.04118 l -3.25003,-0.69287 0,4.51706 c 0,2.48439 1.13434,12.75764 2.52083,22.82946 4.6252,33.6004 8.6417,61.22526 10.1504,69.81239 0.8214,4.675 1.7062,10.75 1.9663,13.5 0.2601,2.75 1.1433,9.275 1.9626,14.5 0.8194,5.225 2.3528,15.8 3.4074,23.5 1.0547,7.7 3.3052,23.45 5.0011,35 1.6958,11.55 4.6398,32.66228 6.542,46.91617 1.9023,14.2539 4.3375,31.1289 5.4117,37.5 1.0741,6.37111 3.327,21.70883 5.0065,34.08383 1.6795,12.375 3.4943,24.975 4.0328,28 0.5386,3.025 1.4593,9.775 2.0462,15 2.5036,22.28995 2.9102,25.7906 3.4318,29.54537 1.7075,12.28952 2.5035,20.80485 1.9927,21.31567 -0.8258,0.82578 -2.5078,-2.06895 -2.2434,-3.86104 0.1216,-0.825 -0.1127,-2.03193 -0.5209,-2.68206 -0.4081,-0.65014 -0.9156,-3.80014 -1.1278,-7 -0.2121,-3.19987 -0.6327,-6.49294 -0.9346,-7.31794 -0.3019,-0.825 -0.805,-3.3 -1.1181,-5.5 -0.313,-2.2 -1.2187,-8.275 -2.0127,-13.5 -0.794,-5.225 -2.3876,-16.25 -3.5413,-24.5 -1.1537,-8.25 -2.5112,-17.025 -3.0167,-19.5 -0.5056,-2.475 -1.8589,-11.68111 -3.0075,-20.45802 -1.1486,-8.7769 -2.2281,-16.2019 -2.3989,-16.5 -0.1708,-0.29809 -0.6368,-3.46698 -1.0356,-7.04198 -0.3989,-3.575 -1.1018,-9.2 -1.5621,-12.5 -0.4603,-3.3 -1.5236,-11.4 -2.3628,-18 -0.8392,-6.6 -2.0279,-14.925 -2.6415,-18.5 -0.6135,-3.575 -1.2976,-8.3 -1.5201,-10.5 -0.2225,-2.2 -0.5971,-5.35 -0.8326,-7 -0.2354,-1.65 -0.8987,-6.375 -1.4738,-10.5 -0.5752,-4.125 -1.934,-13.35 -3.0196,-20.5 -1.0856,-7.15 -2.227,-15.475 -2.5363,-18.5 -0.9813,-9.59449 -5.6002,-39.37671 -6.6025,-42.571 -0.5299,-1.68905 -0.9635,-4.66866 -0.9635,-6.62137 0,-1.95271 -1.0921,-11.37076 -2.4268,-20.929 -1.3347,-9.55825 -2.6762,-19.62863 -2.9811,-22.37863 -0.3048,-2.75 -1.2461,-9.5 -2.09176,-15 -0.84561,-5.5 -2.43061,-16.75 -3.52224,-25 -2.57484,-19.45957 -2.58547,-19.5 -5.12393,-19.5 -1.5519,0 -63.41771,15.3757 -86.3542,21.46187 -4.11772,1.09263 -143.70049,35.89447 -160.5,40.01708 -9.625,2.36198 -25.6,6.3927 -35.5,8.95716 -9.9,2.56446 -21.825,5.49745 -26.5,6.51774 -4.675,1.0203 -10.975,2.57606 -14,3.45725 -3.025,0.88119 -13.15,3.60547 -22.5,6.05397 -9.35,2.4485 -23.75,6.2727 -32,8.49823 -14.91915,4.02461 -14.95957,4.04326 -7.5,3.46148 6.35467,-0.49561 23.3855,-3.34676 35.86432,-6.00409 3.17155,-0.67537 3.30097,-0.59806 2.25878,1.3493 -1.13445,2.11974 -6.7591,3.74003 -21.1231,6.08493 -3.575,0.58361 -10.55,1.7272 -15.5,2.54132 -4.95,0.81411 -13.275,1.78907 -18.5,2.16659 -10.91251,0.78846 -28.77105,3.80822 -30.04289,5.08006 -0.4818,0.4818 0.63285,12.09697 2.52956,26.35923 7.00634,52.684 20.12817,145.55268 21.14275,149.63606 0.2922,1.176 2.46363,3.5259 4.82542,5.222 2.36178,1.69611 6.38781,6.14801 8.94673,9.89312 4.99127,7.30497 11.59843,23.37993 11.59843,28.21852 0,1.62423 0.8946,5.3442 1.98801,8.26658 2.55393,6.826 5.91479,28.62877 6.97699,45.2616 1.5032,23.53851 0.0502,56.18285 -3.60521,81 -1.99906,13.57179 -2.10368,21.94985 -0.44329,35.5 1.45877,11.90476 10.60115,78.36014 12.03753,87.5 0.51861,3.3 1.69293,11.30718 2.6096,17.79372 0.91667,6.48655 2.27588,12.40293 3.02047,13.14752 1.41254,1.41255 25.91632,3.39167 27.11775,2.19025 0.33777,-0.33778 1.10554,-0.22368 1.70614,0.25354 0.60061,0.47723 6.71701,1.16841 13.59201,1.53597 6.875,0.36756 17.675,1.08318 24,1.59028 6.325,0.50709 18.25,1.38196 26.5,1.94415 25.07397,1.70863 29.96352,2.19375 30.87697,3.0635 0.48234,0.45926 2.02302,0.39929 3.42373,-0.13326 1.40071,-0.53255 3.70607,-0.7492 5.12302,-0.48145 2.41866,0.45704 9.28227,0.84225 37.82628,2.12299 6.4625,0.28996 14.675,0.74804 18.25,1.01795 3.575,0.26992 10.1,0.70888 14.5,0.97549 4.4,0.2666 13.4,0.92323 20,1.45918 17.50587,1.42156 25.0895,1.8739 43.5,2.59466 9.075,0.35528 16.77026,0.80636 17.10057,1.0024 0.33031,0.19604 6.18031,0.60296 13,0.90426 6.81969,0.30131 15.99943,0.7545 20.39943,1.00709 4.4,0.25259 12.5,0.70473 18,1.00476 10.89928,0.59455 26.2448,1.61325 31,2.05789 1.65,0.15429 5.58833,0.38584 8.75183,0.51456 3.2516,0.1323 6.2241,0.80306 6.8383,1.54309 1.9528,2.35297 -3.6618,2.74323 -21.50366,1.49466 -9.39756,-0.65764 -20.68647,-1.3845 -25.08647,-1.61524 -11.16593,-0.58557 -26.06654,-1.52195 -32,-2.01095 -2.75,-0.22664 -11.3,-0.65999 -19,-0.963 -7.7,-0.30301 -15.125,-0.77646 -16.5,-1.0521 -2.35572,-0.47224 -7.9922,-0.81505 -31.26054,-1.90127 -5.3683,-0.2506 -10.12244,-0.6793 -10.56476,-0.95267 -0.44232,-0.27337 -4.82508,-0.57953 -9.73946,-0.68036 -10.05019,-0.2062 -48.97045,-2.29764 -72.43524,-3.89242 -8.525,-0.5794 -18.65,-1.26677 -22.5,-1.52749 -11.85789,-0.80303 -20.90648,-1.60118 -23,-2.02878 -1.1,-0.22467 -8.975,-0.72058 -17.5,-1.10202 -17.47046,-0.7817 -17.42258,-0.77888 -32.5,-1.91304 -17.74793,-1.33504 -17.81589,-1.32942 -18.55226,1.53614 l -0.64242,2.5 -0.40266,-2.49904 c -0.36013,-2.23507 -1.0364,-2.5801 -6.40266,-3.26657 -3.3,-0.42215 -9.375,-0.64758 -13.5,-0.50097 l -7.5,0.26658 0.27725,7 c 0.15248,3.85 1.17531,13.075 2.27295,20.5 1.92689,13.03443 6.38549,45.23667 9.55095,68.9817 0.84184,6.3149 2.06348,11.8206 2.71474,12.2347 0.65126,0.4141 3.88411,0.7993 7.18411,0.8559 3.3,0.057 8.25,0.4658 11,0.9094 3.21353,0.5184 0.80179,0.6133 -6.75,0.2657 -11.06524,-0.5094 -11.74879,-0.4304 -11.72919,1.3558 0.0114,1.0433 0.92631,7.9718 2.03304,15.3968 2.93794,19.7104 6.66904,45.9693 9.44894,66.5 4.94834,36.5454 8.43329,58.8361 9.34034,59.7431 0.5125,0.5125 7.74328,1.4024 16.06842,1.9776 13.97635,0.9655 15.28741,0.9092 17.10396,-0.7347 1.67865,-1.5192 1.8765,-2.6027 1.34824,-7.3832 -0.79061,-7.1547 0.85722,-5.7651 2.55053,2.1508 1.7493,8.1777 0.794,7.8597 27.58572,9.1825 6.6,0.3259 14.925,0.8244 18.5,1.1077 3.575,0.2833 10.325,0.7148 15,0.9588 10.50606,0.5485 20.78854,1.2529 37,2.5347 6.875,0.5436 20.825,1.4202 31,1.9481 10.175,0.5278 25.925,1.4045 35,1.9482 9.075,0.5436 22.35,1.2862 29.5,1.65 7.15,0.3639 14.575,0.7619 16.5,0.8846 4.53586,0.2891 23.75676,1.3645 36.5,2.0421 5.5,0.2924 12.7,0.7433 16,1.002 3.3,0.2587 9.825,0.6796 14.5,0.9353 4.675,0.2558 11.875,0.7065 16,1.0017 4.12503,0.2951 13.12503,0.7796 20.00003,1.0765 6.875,0.2968 14.975,0.7188 18,0.9375 12.7,0.9186 24.7218,1.5961 45,2.5362 11.825,0.5482 25.4375,1.2807 30.25,1.6276 l 8.75,0.6309 0,-3.8805 c 0,-3.0723 -3.7605,-31.4778 -6.4708,-48.8775 -0.257,-1.65 -1.1699,-8.175 -2.0287,-14.5 -0.8588,-6.325 -2.1894,-15.775 -2.9568,-21 -0.7674,-5.225 -1.9054,-13.55 -2.5288,-18.5 -0.6234,-4.95 -1.9963,-14.85 -3.0509,-22 -4.1885,-28.3987 -6.9682,-47.8365 -9.3667,-65.5 -8.0394,-59.20625 -7.9432,-58.65773 -10.4207,-59.44373 -0.9221,-0.29255 -8.8766,-1.00446 -17.6766,-1.58203 -15.9822,-1.04894 -21.0673,-1.39924 -35.8601,-2.4703 -8.265,-0.59841 -14.6399,-2.59407 -14.6399,-4.58297 0,-0.83305 1.3997,-0.99062 4.75,-0.53474 2.6125,0.35548 8.575,0.89926 13.25,1.20839 4.675,0.30913 9.0824,0.7453 9.7941,0.96927 0.7118,0.22396 7.0118,0.63049 14,0.90339 6.9883,0.2729 15.7538,0.7391 19.479,1.036 5.3902,0.4296 6.8882,0.23995 7.3367,-0.92881 0.5756,-1.49996 -0.9735,-15.11482 -4.5597,-40.07447 -3.3085,-23.02693 -9.874,-70.60085 -10.5574,-76.5 -0.3505,-3.025 -0.8067,-6.625 -1.0138,-8 -0.2071,-1.375 -1.0611,-7.675 -1.8978,-14 -3.0251,-22.87011 -4.6166,-34.55692 -5.1067,-37.5 -1.836,-11.02564 -3.3509,-24.11648 -3.8288,-33.08552 -0.1783,-3.34703 -0.6723,-6.64874 -1.0978,-7.33713 -0.4254,-0.68839 -0.2895,-1.73568 0.3022,-2.32732 1.9356,-1.93561 3.7044,6.86167 4.6747,23.24997 0.081,1.375 0.4095,3.175 0.7291,4 0.3196,0.825 1.0879,5.55 1.7075,10.5 0.6195,4.95 2.2481,18 3.619,29 1.371,11 2.6752,21.125 2.8984,22.5 0.7205,4.44 2.225,15.65956 3.0841,23 0.2897,2.475 1.2095,8.325 2.0441,13 0.8345,4.675 1.6554,9.85 1.8242,11.5 0.2917,2.85117 2.1345,16.57129 3.0892,23 0.2451,1.65 1.3568,9.75 2.4706,18 1.1138,8.25 2.2725,16.8 2.575,19 0.3024,2.2 0.9436,5.575 1.425,7.5 0.4813,1.925 1.1828,6.09345 1.559,9.26322 0.3761,3.16976 0.9688,5.93572 1.317,6.14656 0.3482,0.21084 4.2331,0.66502 8.6331,1.00927 4.4,0.34426 10.25,0.83201 13,1.08389 2.75,0.25188 10.4,0.71018 17,1.01845 6.6,0.30827 13.8,0.76399 16,1.01272 7.3615,0.8323 14.9208,1.42087 25,1.94651 5.5,0.28683 12.925,0.78656 16.5,1.11051 11.0445,1.00081 14.8439,1.28184 25.3467,1.87485 9.1403,0.51608 18.7753,1.23274 28.6533,2.13128 1.925,0.1751 7.325,0.53882 12,0.80826 4.675,0.26944 11.066,0.78838 14.2023,1.15321 4.8153,0.56013 6.2419,0.32986 9.1706,-1.48017 3.3689,-2.08208 3.5063,-2.08989 4.7977,-0.27265 1.7984,2.53079 5.4886,3.32609 17.5094,3.77358 5.599,0.20844 12.0115,0.79049 14.25,1.29344 2.5519,0.57338 4.07,0.55912 4.07,-0.0382 0,-0.524 0.3519,-0.73522 0.7821,-0.46938 0.4301,0.26584 11.3106,1.2156 24.1789,2.11059 12.8683,0.89498 23.662,1.79109 23.986,1.99134 0.324,0.20025 6.431,0.63358 13.5711,0.96296 7.14,0.32938 15.0069,0.80592 17.4819,1.05898 2.475,0.25305 7.875,0.6841 12,0.95787 14.8402,0.98492 23.6277,1.71252 31,2.56677 6.0363,0.69944 4.5726,0.79151 -7.5,0.47174 -18.4802,-0.48948 -74.3587,-3.23281 -80.5,-3.95211 -3.8907,-0.45571 -18.3513,-1.32152 -68,-4.07144 -5.775,-0.31986 -16.125,-0.99906 -23,-1.50934 -6.875,-0.51027 -17.9675,-1.22553 -24.65,-1.58947 l -12.1499,-0.66171 -0.9813,5.39926 -0.9812,5.39925 -0.1188,-5.55168 -0.1188,-5.55168 -19.25,-1.23929 c -10.5875,-0.68161 -31.4,-2.1055 -46.25,-3.16421 -45.7862,-3.26423 -63.7653,-4.1278 -64.7816,-3.11155 -0.9171,0.9171 1.6135,24.5961 3.2188,30.11841 0.3997,1.375 0.8363,5.2 0.9701,8.5 0.1339,3.3 0.8712,9.00356 1.6385,12.67456 1.2354,5.9113 2.3463,14.1386 3.8921,28.8254 0.2605,2.475 1.3731,9.225 2.4725,15 1.9615,10.3042 4.45,26.6125 5.5694,36.5 0.3114,2.75 1.2134,8.825 2.0044,13.5 0.7911,4.675 1.7196,12.1 2.0635,16.5 0.3439,4.4 1.0035,9.35 1.4659,11 0.4623,1.65 1.0771,5.025 1.3661,7.5 0.289,2.475 1.2577,9.45 2.1525,15.5 0.8949,6.05 1.8269,13.025 2.0713,15.5 0.2444,2.475 1.0878,8.775 1.8743,14 0.7864,5.225 1.6929,11.3 2.0144,13.5 0.3215,2.2 0.8416,5.7095 1.1559,7.7988 0.8159,5.4255 3.2886,6.6502 14.4482,7.1562 30.1362,1.3664 38.591,1.8113 40.224,2.1168 1.0011,0.1872 13.1511,0.8262 27,1.42 13.8488,0.5938 27.1085,1.2919 29.4658,1.5514 2.3574,0.2595 10.0074,0.6882 17,0.9526 6.9927,0.2645 16.0889,0.7229 20.2139,1.0188 15.327,1.0992 22.0308,1.4749 44,2.4652 12.375,0.5579 24.75,1.2383 27.5,1.5119 2.75,0.2737 9.95,0.7218 16,0.9958 6.05,0.274 14.375,0.7163 18.5,0.9829 4.125,0.2666 13.125,0.7349 20,1.0407 6.875,0.3058 14.525,0.7538 17,0.9955 2.475,0.2417 8.55,0.6899 13.5,0.9959 4.95,0.3061 11.025,0.7562 13.5,1.0002 4.0429,0.3986 8.7768,0.7089 31,2.0323 3.575,0.2129 9.875,0.644 14,0.958 4.125,0.3141 8.0515,0.1994 8.7255,-0.2549 1.8436,-1.2424 -7.8259,-16.296 -13.8555,-21.5706 -8.4029,-7.3507 -29.9847,-19.2313 -46.5448,-25.6225 -5.1402,-1.9839 -21.9475,-1.7852 -27.8252,0.3289 -2.75,0.9891 -7.475,2.0152 -10.5,2.2802 -5.1181,0.4483 -5.3652,0.3728 -3.5589,-1.0862 1.0677,-0.8623 2.8677,-1.5723 4,-1.5777 1.1324,-0.01 4.4787,-1.1362 7.4363,-2.513 11.7484,-5.469 30.3132,-3.5065 46.6226,4.9285 2.75,1.4223 5.3076,2.5878 5.6836,2.5901 0.3759,0 3.0759,1.4338 6,3.1811 19.1915,11.4681 22.2251,14.2388 31.8425,29.0816 7.5889,11.7122 6.7283,11.3592 29.9739,12.2937 9.075,0.3648 16.8025,0.8447 17.1722,1.0665 0.3697,0.2217 8.2447,0.6209 17.5,0.887 9.2553,0.2661 18.6278,0.7293 20.8278,1.0294 4.5463,0.6201 9.7406,0.9683 27.5,1.8433 6.875,0.3387 15.2,0.8572 18.5,1.1521 3.3,0.295 9.1857,0.7206 13.0793,0.9458 9.7878,0.5662 17.6378,1.6268 19.4207,2.6239 0.9977,0.5581 0.077,0.8492 -2.75,0.8694 -3.073,0.022 -4.25,0.4405 -4.25,1.5113 0,1.1807 -0.9158,1.3553 -4.5183,0.8615 -5.6723,-0.7774 -8.4817,1.3238 -8.4817,6.344 0,4.5581 1.9949,5.0982 8.6467,2.3412 2.9996,-1.2433 5.7687,-1.9392 6.1535,-1.5465 1.0234,1.0442 -5.3929,6.1104 -9.1095,7.1929 -3.4258,0.9978 -3.7543,2.3561 -2.1949,9.076 0.5914,2.5486 0.433,3.25 -0.7339,3.25 -1.5182,0 -3.7008,-5.8221 -5.7804,-15.4195 -1.0757,-4.9644 -0.5685,-10.0641 1.2222,-12.2893 1.3983,-1.7375 -0.7468,-2.0171 -24.7037,-3.2201 -11.55,-0.5799 -35.85,-1.9384 -54,-3.0188 -18.15,-1.0804 -37.5,-2.0368 -43,-2.1252 -11.3391,-0.1824 -11.8261,0.2646 -6.9484,6.3775 2.7763,3.4795 3.3455,5.0268 7.9809,21.6954 2.9514,10.6129 3.1136,20.7468 0.506,31.6228 -3.8623,16.1093 -15.1736,29.3772 -25.045,29.3772 -1.6242,0 -4.6496,0.6368 -6.7233,1.4151 -2.0736,0.7783 -6.9202,1.6552 -10.7702,1.9487 -12.8403,0.9787 -34.7065,6.7146 -44.6491,11.7123 -10.5254,5.2905 -17.7584,10.5417 -27.2594,19.7901 -14.6541,14.2647 -23.0319,26.0424 -28.0173,39.3872 -2.957,7.9155 -8.0579,33.0446 -9.489,46.7466 -1.3742,13.1585 -1.4042,40.5565 -0.053,48.5 2.1527,12.656 2.818,25.7846 1.7873,35.2698 -0.7469,6.8732 -0.6976,12.7857 0.18,21.5972 2.1644,21.7321 2.2791,25.9735 1.018,37.633 -3.3308,30.7939 -14.4886,66.1454 -32.1148,101.75 -6.7495,13.6339 -7.1852,14.25 -10.0768,14.25 l -3.0223,0 2.1474,-3.25 z M 623.48991,913.23865 c -0.32066,-4.26874 -1.69862,-15.40624 -3.06213,-24.75 -3.14284,-21.53695 -3.46925,-23.699 -4.67845,-30.98865 -1.06737,-6.43464 -2.53996,-16.90308 -3.51674,-25 -0.33174,-2.75 -0.76567,-5.27898 -0.96429,-5.61995 -0.19861,-0.34097 -0.62479,-3.71597 -0.94706,-7.5 -0.62659,-7.35734 -1.88515,-11.51735 -9.64491,-31.88005 -7.13284,-18.71757 -7.95603,-21.08048 -14.2836,-41 -3.1448,-9.9 -7.74669,-24.075 -10.22643,-31.5 -3.94641,-11.81662 -6.45099,-20.90981 -15.14888,-55 -5.82057,-22.81293 -6.81637,-31.5683 -5.16422,-45.4056 1.18913,-9.95936 3.98103,-20.09243 6.66426,-24.18754 1.88531,-2.87736 7.39754,-4.77431 11.35047,-3.9061 1.6481,0.36198 2.99653,0.2849 2.99651,-0.1713 -5e-5,-1.29314 -4.78471,-37.31637 -6.95047,-52.32946 -1.07112,-7.425 -3.32589,-23.4 -5.0106,-35.5 -1.6847,-12.1 -3.48574,-24.7 -4.0023,-28 -2.36697,-15.12109 -4.27454,-25.5954 -4.6018,-25.26814 -1.33094,1.33095 -7.63643,38.74661 -8.45961,50.19788 -0.55074,7.66136 -1.22046,14.14886 -1.48827,14.41667 -1.14153,1.14153 -1.84667,-1.2097 -1.68415,-5.61561 l 0.17451,-4.7308 -1.85631,3.5 c -1.02098,1.925 -3.29861,7.55 -5.06142,12.5 -6.37183,17.89226 -12.72997,31.33575 -20.33696,43 -6.973,10.69212 -8.66589,12.67496 -16.22259,19.00118 -3.85,3.22309 -8.91451,7.69136 -11.25447,9.92949 -10.29436,9.84636 -51.14958,31.99861 -53.91484,29.23335 -1.25223,-1.25223 2.88188,-4.38315 12.16931,-9.21628 17.10659,-8.90219 32.9795,-18.8813 40.47567,-25.44659 4.13838,-3.62447 9.24096,-7.88309 11.33905,-9.4636 4.58045,-3.45049 17.25286,-22.15561 22.06239,-32.56519 1.90097,-4.11441 5.11052,-11.97886 7.13233,-17.47656 2.02181,-5.49769 4.94626,-13.3708 6.49877,-17.4958 6.65531,-17.68298 12.93216,-48.50666 13.03279,-64 0.0339,-5.225 0.39945,-12.5375 0.81225,-16.25 0.41281,-3.7125 0.3897,-6.75 -0.0513,-6.75 -0.44104,0 -0.80405,0.3375 -0.80668,0.75 -0.003,0.4125 -1.54764,2.42981 -3.43336,4.48291 -1.88572,2.05311 -6.16228,7.72422 -9.50346,12.60247 -3.34119,4.87826 -6.97117,9.68069 -8.06664,10.67208 -3.86051,3.49371 -1.93554,-0.58821 4.75824,-10.08989 3.7125,-5.26981 7.2,-10.33846 7.75,-11.26365 0.55,-0.9252 2.06383,-3.38699 3.36407,-5.47065 1.30023,-2.08366 2.18005,-3.97248 1.95515,-4.19738 -0.40345,-0.40345 -3.24656,0.22145 -31.81922,6.99371 -42.53103,10.08066 -58.32207,13.98549 -76.31598,18.87154 -10.89878,2.95945 -20.29379,5.85863 -20.87779,6.44263 -0.74908,0.74908 -0.28516,3.21837 1.57519,8.38402 1.45035,4.02722 3.24508,10.92221 3.98829,15.32221 1.93101,11.43204 0.87317,18.30563 -4.36743,28.37872 -4.49908,8.64781 -8.47547,13.27426 -15.46133,17.98896 -17.16659,11.58559 -27.4793,14.17633 -53.54095,13.45045 -14.55703,-0.40545 -18.20746,-0.87626 -31,-3.99821 -7.975,-1.94626 -15.23808,-3.92882 -16.14018,-4.4057 -2.2266,-1.17704 -11.22117,-12.73303 -13.64388,-17.52932 -2.33397,-4.62058 -4.80615,-13.05234 -5.75694,-19.6349 -0.37735,-2.6125 -1.06304,-4.75 -1.52375,-4.75 -1.4865,0 -12.34646,2.95761 -15.307,4.16872 l -2.87176,1.17478 0.68375,22.57825 c 0.72103,23.80945 -0.28969,41.3382 -2.94521,51.07825 -0.82474,3.025 -3.30306,15.4 -5.50739,27.5 -3.86426,21.21174 -7.13448,33.85469 -9.06556,35.04815 -1.32071,0.81625 -1.13797,-1.68481 0.45247,-6.19259 0.75601,-2.14275 1.68961,-6.36182 2.07469,-9.37573 1.17128,-9.16746 6.62017,-42.28312 7.07964,-43.02656 1.3347,-2.15966 3.47107,-22.69618 3.47107,-33.36714 0,-10.33999 -1.74031,-42.68405 -2.32635,-43.23559 -0.70522,-0.6637 -95.15736,22.79983 -96.27353,23.91601 -0.64965,0.64965 1.52551,18.18539 5.73488,46.23345 1.65084,11 5.20284,35.075 7.89332,53.5 2.69049,18.425 5.78769,39.575 6.88267,47 1.09499,7.425 2.92635,20.475 4.0697,29 3.64206,27.15571 4.03944,29.99195 8.05638,57.5 2.16852,14.85 5.50432,38.25 7.41289,52 3.9968,28.79422 6.12285,42.78665 7.64638,50.3239 0.88475,4.37705 1.37203,5.19995 2.7399,4.62699 6.57142,-2.7526 7.0084,-2.82472 8.68501,-1.43325 1.34376,1.11522 1.55112,2.37914 1.03216,6.29124 -0.49023,3.69554 -0.24626,5.51095 0.99525,7.40573 1.44308,2.20242 2.15376,2.44209 5.79801,1.95534 l 4.15333,-0.55476 -4.17332,1.94681 c -7.43847,3.46996 -11.94521,-0.27302 -11.08669,-9.20781 0.54459,-5.6677 -0.61204,-6.17095 -4.08414,-1.77701 -2.31084,2.92436 -2.32781,3.11895 -1.19409,13.69467 C 212.19697,882.5586 213.86606,891 215.0236,891 c 0.46248,0 0.85298,-0.3375 0.86777,-0.75 0.0148,-0.4125 1.39323,-2.325 3.06319,-4.25 l 3.0363,-3.5 -2.68897,4.23925 c -2.40272,3.78797 -2.55877,4.55357 -1.46594,7.19191 1.73059,4.17799 -0.0281,3.93832 40.52852,5.52309 8.8,0.34386 20.725,1.04022 26.5,1.54746 5.775,0.50725 15.9,1.17681 22.5,1.48793 6.6,0.31112 15.6,0.78619 20,1.05571 19.45085,1.19146 43.40527,2.55221 60.5,3.43677 10.175,0.5265 20.975,1.19985 24,1.49633 5.47218,0.53634 16.81337,1.24922 64.5,4.05435 13.75,0.80883 28.7125,1.74824 33.25,2.08756 l 8.25,0.61696 0.16004,-3.36866 0.16003,-3.36866 0.40333,3.25 c 0.22182,1.7875 0.48731,3.26773 0.58996,3.28939 0.10265,0.0217 3.33664,0.25774 7.18664,0.52461 3.85,0.26687 13.3,0.92274 21,1.4575 7.7,0.53475 24.575,1.4407 37.5,2.01323 12.925,0.57253 23.95,1.2134 24.5,1.42417 0.55,0.21076 4.0844,0.41873 7.85423,0.46215 l 6.85423,0.0789 -0.58302,-7.76135 z M 520.13683,880 c 0,-2.475 0.19502,-3.4875 0.43337,-2.25 0.23836,1.2375 0.23836,3.2625 0,4.5 -0.23835,1.2375 -0.43337,0.225 -0.43337,-2.25 z M 230.84166,869.75 c 1.71539,-2.6125 3.33811,-4.75 3.60603,-4.75 0.78423,0 -1.27358,3.25869 -4.10463,6.5 -2.2224,2.54445 -2.14669,2.27871 0.4986,-1.75 z m 19.53409,-28.12688 C 251.32106,840.18041 252.28357,839 252.51466,839 c 0.72338,0 -1.6049,3.85397 -2.75929,4.56743 -0.6041,0.37335 -0.32492,-0.50159 0.62038,-1.94431 z M 523.20728,834.5 c 0.004,-4.4 0.17944,-6.07561 0.39069,-3.72357 0.21124,2.35204 0.20827,5.95204 -0.007,8 -0.21487,2.04796 -0.38771,0.12357 -0.38408,-4.27643 z m 0.97726,-15.5 c 0,-3.575 0.1815,-5.0375 0.40333,-3.25 0.22182,1.7875 0.22182,4.7125 0,6.5 -0.22183,1.7875 -0.40333,0.325 -0.40333,-3.25 z m 34.43799,2.75 c -0.80958,-1.2375 -2.47671,-5.00787 -3.70473,-8.37859 l -2.23278,-6.1286 -3.02448,1.50881 c -2.71937,1.3566 -2.97246,1.87398 -2.50881,5.12859 0.28362,1.99089 0.8317,4.4035 1.21796,5.36136 1.23034,3.05105 -2.50389,3.47656 -4.9128,0.55981 -5.81086,-7.03591 -5.28715,-5.88823 -7.64095,-16.74493 -1.13815,-5.24965 -0.5549,-7.66314 2.2094,-9.14254 3.55469,-1.90242 6.63846,-0.31571 7.96018,4.0958 1.36321,4.54998 1.20471,4.49228 6.8597,2.49708 4.58963,-1.61931 6.49655,-1.19299 5.56163,1.24338 -0.53446,1.39277 1.39629,8.32869 3.41912,12.28265 1.7964,3.51135 2.2601,8.21207 0.89539,9.07679 -2.00625,1.27122 -2.48068,1.11385 -4.09883,-1.35961 z m -293.0646,-1.82688 c 0.9936,-1.69229 2.44556,-3.60479 3.22658,-4.25 0.78103,-0.64522 0.15873,0.73938 -1.38288,3.07688 -3.23702,4.90819 -4.51358,5.72045 -1.8437,1.17312 z m 303.03026,-3.67591 c -0.89666,-0.9908 -2.81219,-4.48925 -4.25673,-7.77433 -1.44453,-3.28509 -3.09363,-6.94247 -3.66466,-8.12753 C 559.50038,797.92468 560.26947,796 562.40316,796 c 0.78137,0 2.33895,-1.8 3.46131,-4 1.12236,-2.2 2.50385,-4 3.06998,-4 2.58151,0 6.63943,3.14175 8.59175,6.65196 2.28121,4.10154 5.9436,20.07605 4.8528,21.16684 -1.10965,1.10966 -4.09149,-3.74548 -7.03096,-11.44806 -2.82941,-7.41419 -4.5794,-8.92872 -6.3956,-5.53512 -0.73446,1.37235 -0.35382,3.0759 1.5082,6.75 3.78618,7.47083 2.39721,15.37951 -1.87245,10.66159 z m -43.64477,-7.66388 c -0.0434,-1.05416 0.19293,-1.64479 0.52522,-1.3125 0.33229,0.33229 0.36781,1.1948 0.0789,1.91667 -0.31922,0.79773 -0.55618,0.56078 -0.60416,-0.60417 z M 283.86447,793.33902 c 0,-0.36354 2.53837,-4.07604 5.64082,-8.25 9.57439,-12.88115 9.94515,-12.19549 0.62777,1.16098 -5.11148,7.32732 -6.26859,8.63587 -6.26859,7.08902 z M 526.10416,788 c -0.023,-3.575 0.30024,-8.975 0.71841,-12 l 0.7603,-5.5 0.0419,6.5 c 0.023,3.575 -0.30024,8.975 -0.71841,12 l -0.7603,5.5 -0.0419,-6.5 z M 305.86447,762.61403 c 0,-0.85887 8.41984,-13.22111 10.29407,-15.11403 1.63965,-1.656 -2.17724,4.62964 -6.36815,10.48704 -2.15926,3.01788 -3.92592,5.10002 -3.92592,4.62699 z m 223,-17.88835 c 0,-3.6342 0.46628,-6.89583 1.03619,-7.24805 0.7005,-0.43293 0.81818,1.57274 0.36327,6.19099 -0.87668,8.89993 -1.39946,9.2948 -1.39946,1.05706 z m 1.07895,-10.14235 c -0.0434,-1.05416 0.19293,-1.64479 0.52522,-1.3125 0.33229,0.33229 0.36781,1.1948 0.0789,1.91667 -0.31922,0.79773 -0.55618,0.56078 -0.60416,-0.60417 z m -203.67703,-2.12201 c 4.16584,-6.48627 7.13674,-10.41967 7.88534,-10.43997 1.00025,-0.0271 -6.84987,11.59104 -8.53241,12.62796 -0.69017,0.42533 -0.39899,-0.55926 0.64707,-2.18799 z m 204.61339,-17.04465 c 0.008,-2.15417 0.44558,-4.59167 0.97146,-5.41667 0.64234,-1.00771 0.7628,0.14098 0.36704,3.5 -0.73115,6.20558 -1.35878,7.10432 -1.3385,1.91667 z m -187.01531,-7.93786 c 0,-0.9534 12.07992,-18.41017 13.23267,-19.12261 0.54661,-0.33782 -0.62231,1.91223 -2.59761,5.00013 -1.97531,3.08789 -4.70804,7.38312 -6.07274,9.54495 -2.36444,3.74552 -4.56232,5.95072 -4.56232,4.57753 z m -20.4632,-5.7823 c -2.16946,-3.31101 -5.39157,-13.10603 -6.09827,-18.53837 -1.11087,-8.53917 3.17843,-13.39849 7.00477,-7.93563 1.99135,2.84305 2.0198,11.36591 0.0505,15.1418 -1.97434,3.78562 -1.87732,5.53675 0.50616,9.13569 1.09275,1.65 1.98979,3.3375 1.99341,3.75 0.0138,1.56583 -2.00815,0.65713 -3.45661,-1.55349 z m 0.4632,-18.82254 c 0,-3.51019 -1.64889,-7.87397 -2.97525,-7.87397 -1.13313,0 -1.41749,9.81295 -0.36392,12.55851 0.61683,1.60745 0.74997,1.60017 2,-0.10934 0.73654,-1.00729 1.33917,-3.06613 1.33917,-4.5752 z M 533.7105,681.75 c -0.20237,-0.6875 -0.10116,-3.95 0.2249,-7.25 l 0.59285,-6 0.16811,7.25 c 0.15917,6.86427 -0.15989,8.80602 -0.98586,6 z m -171.46214,-1.30803 c 0.8443,-2.20019 9.55244,-14.28459 10.88878,-15.11049 1.28557,-0.79453 -2.19047,5.06002 -7.07641,11.91852 -3.42035,4.8012 -4.90778,6.04659 -3.81237,3.19197 z m -30.31131,-4.07683 C 328.19385,671.60644 329.63241,662 334.08822,662 l 2.15337,0 -2.30096,2.14367 c -1.90785,1.77744 -2.20767,2.83922 -1.75489,6.21491 0.69366,5.17163 3.24749,7.34166 5.85887,4.9784 1.00092,-0.90583 1.81986,-1.19696 1.81986,-0.64696 0,1.2921 -3.3303,4.30998 -4.75616,4.30998 -0.60427,0 -2.03134,-1.18569 -3.17126,-2.63486 z m 14.97279,-6.30142 c -4.09389,-5.74934 -8.3863,-16.12279 -7.17334,-17.33575 0.62039,-0.62039 1.12797,-2.58368 1.12797,-4.36287 0,-1.7792 0.52797,-4.5017 1.17327,-6.05 1.10816,-2.65887 1.21432,-2.44301 1.91299,3.8896 0.99426,9.01192 1.54959,9.63906 4.98238,5.62663 3.39504,-3.96831 3.63763,-2.58884 0.95467,5.4287 -1.75385,5.24107 -1.79668,6.13086 -0.47541,9.87573 0.79865,2.26363 1.4521,4.50912 1.4521,4.98997 0,1.78846 -1.92908,0.78261 -3.95463,-2.06201 z m 35.95463,-18.71021 c 0,-0.88976 6.12627,-10.01324 9.89834,-14.74101 5.04776,-6.32668 3.55123,-3.10848 -3.00763,6.4677 -5.79389,8.45931 -6.89071,9.77621 -6.89071,8.27331 z M 536.16413,645 c 0,-3.025 0.18747,-4.2625 0.41659,-2.75 0.22913,1.5125 0.22913,3.9875 0,5.5 -0.22912,1.5125 -0.41659,0.275 -0.41659,-2.75 z M 404.86447,619.15628 c 0,-1.20276 7.36319,-12.00668 11.011,-16.15628 l 3.07675,-3.5 -2.68576,4.5 c -3.20321,5.36699 -10.54455,16 -11.04688,16 -0.19531,0 -0.35511,-0.37967 -0.35511,-0.84372 z M 537.8951,610 c 0,-1.925 0.43621,-4.175 0.96937,-5 0.7269,-1.1248 0.96937,-0.62454 0.96937,2 0,1.925 -0.43621,4.175 -0.96937,5 -0.7269,1.1248 -0.96937,0.62454 -0.96937,-2 z M 429.86447,583.13018 c 0,-1.73753 9.31365,-15.1607 14.31422,-20.63018 2.28437,-2.49857 -3.07849,6.70376 -7.57602,13 -6.11967,8.5671 -6.7382,9.26751 -6.7382,7.63018 z m 110.07412,-5.82116 c 0.0408,-2.09496 0.43445,-5.83402 0.87484,-8.30902 0.74066,-4.16253 0.81009,-3.92322 0.92587,3.19098 0.0688,4.23004 -0.32483,7.9691 -0.87483,8.30902 -0.60402,0.3733 -0.97065,-0.89028 -0.92588,-3.19098 z M 454.90827,547 c -0.044,-1.7595 15.83919,-23.45035 16.60834,-22.6812 0.62736,0.62737 -9.27567,15.75112 -13.54204,20.6812 -1.84993,2.13772 -3.04341,2.91616 -3.0663,2 z m 88.14148,-10.5 c -0.0246,-4.4 0.34203,-8.9 0.81472,-10 1.14556,-2.66587 1.19139,8.51747 0.0574,14 -0.70784,3.4221 -0.83383,2.8442 -0.87209,-4 z m -65.18528,-22.44867 c 0,-1.32565 15.16014,-21.22452 15.73337,-20.65129 0.39303,0.39303 -8.6319,14.06674 -13.10139,19.84996 -1.48773,1.92503 -2.63198,2.2734 -2.63198,0.80133 z M 505.21999,475.5159 C 506.24862,472.83534 519.00156,456 520.00349,456 c 1.22275,0 0.96446,0.44328 -6.84658,11.75 -3.5146,5.0875 -6.86634,9.25 -7.4483,9.25 -0.58197,0 -0.80184,-0.66784 -0.48862,-1.4841 z M 200.86447,853.40391 c 0,-2.85527 -3.01148,-12.04241 -4.58836,-13.99773 -1.40926,-1.74747 -1.48538,-1.37803 -0.91424,4.43708 0.34266,3.48879 1.03478,7.42629 1.53806,8.75 1.0224,2.68913 3.96454,3.29072 3.96454,0.81065 z M 603.48962,775.25 c -0.30939,-2.6125 -1.05578,-9.025 -1.65864,-14.25 -0.60286,-5.225 -1.73678,-13.775 -2.51983,-19 -0.78305,-5.225 -3.00643,-20.975 -4.94085,-35 -1.93442,-14.025 -3.71895,-26.625 -3.96562,-28 -0.24667,-1.375 -1.1606,-8.125 -2.03096,-15 -0.87035,-6.875 -2.01117,-13.85 -2.53514,-15.5 -0.52398,-1.65 -1.139,-6.15 -1.36671,-10 -0.2277,-3.85 -1.09146,-11.05 -1.91945,-16 -3.44288,-20.58268 -3.86271,-23.1407 -4.29157,-26.14853 -0.54609,-3.82991 -6.46369,-7.37042 -8.91652,-5.33476 -4.02555,3.34092 -7.48472,19.85675 -7.47193,35.67484 0.008,9.78692 3.59874,30.95595 5.93108,34.96555 0.5896,1.0136 1.90974,6.5679 2.93364,12.3429 1.76451,9.95212 6.97613,28.95998 11.24148,41 1.07164,3.025 3.48692,10.9 5.36728,17.5 5.89864,20.70409 15.02859,47.5 16.18428,47.5 0.28709,0 0.26885,-2.1375 -0.0405,-4.75 z m 6.25671,-34.26959 c 1.36786,-20.20897 1.40588,-40.77257 0.1109,-59.98041 -2.30679,-34.21565 -12.04052,-69.08075 -21.89827,-78.43709 l -3.09449,-2.93709 0.005,3.93709 c 0.003,2.1654 0.94178,10.01209 2.08723,17.43709 1.14545,7.425 2.20398,15.3 2.35229,17.5 0.14831,2.2 0.56151,5.35 0.91821,7 0.3567,1.65 1.75369,11.325 3.10442,21.5 1.35073,10.175 3.13945,23.225 3.97494,29 0.83549,5.775 1.97388,13.65 2.52975,17.5 0.55587,3.85 1.92042,13.3 3.03234,21 2.6609,18.4268 4.00998,24.90112 4.97116,23.85691 0.43383,-0.4713 1.29193,-8.29073 1.90691,-17.3765 z M 375.05458,527.03501 c 9.56363,-2.11488 11.65986,-3.03761 21.79435,-9.59358 12.26758,-7.93586 20.00745,-20.38584 20.78976,-33.44143 0.40893,-6.82446 0.0669,-8.62589 -3.7976,-20 -2.33586,-6.875 -4.74867,-13.04254 -5.36182,-13.70564 -0.86404,-0.93444 -3.70156,-0.52439 -12.6148,1.82295 -6.325,1.66572 -22.525,5.66441 -36,8.88598 -35.0059,8.36911 -63.26574,15.66308 -67.43564,17.40537 -1.97586,0.82557 -3.8791,2.24795 -4.22941,3.16085 -0.9278,2.41781 2.12792,15.42592 5.0755,21.60623 1.39661,2.92834 4.9131,7.9458 7.81442,11.1499 5.19328,5.73525 5.46133,5.88127 17.27513,9.41049 12.03267,3.5946 15.21036,3.96053 44,5.06687 2.2,0.0845 7.91055,-0.71105 12.69011,-1.76799 z m -98.81785,-47.91132 c 5.13531,-1.28403 5.51925,-1.78029 7.25094,-9.37205 0.96606,-4.23522 3.01218,-8.83534 5.85542,-13.16425 10.33884,-15.74118 11.15151,-18.2453 7.4488,-22.95253 -3.9815,-5.06165 -12.00447,-3.04081 -18.261,4.59962 -7.70321,9.40711 -13.96159,24.27277 -15.20231,36.11034 l -0.71741,6.84482 4.87665,-0.54887 c 2.68216,-0.30187 6.61917,-0.98456 8.74891,-1.51708 z m 144.62774,-38.05436 c 4.125,-1.04497 22.125,-5.55734 40,-10.02748 54.17161,-13.54712 64.46175,-16.23826 65.39464,-17.10241 0.49661,-0.46002 -0.39322,-1.11298 -2,-1.46761 -1.59205,-0.35138 -3.42525,-0.79993 -4.07378,-0.99678 -0.64852,-0.19684 -7.84852,-0.64343 -16,-0.99241 -8.15147,-0.34899 -17.29586,-1.05238 -20.32086,-1.56309 -6.30089,-1.06379 -19.28873,-7.00078 -26.54989,-12.13647 C 450.73112,392.12672 439.55264,386 437.64034,386 c -0.84256,0 -2.14931,-0.89151 -2.9039,-1.98114 -2.20445,-3.18325 -17.72141,-11.91556 -25.22157,-14.19366 -8.18315,-2.48556 -19.36292,-2.11202 -25.40024,0.84867 -6.74275,3.30663 -10.33777,11.57332 -8.3092,19.10685 1.27656,4.74081 10.604,19.35223 18.55904,29.07273 3.3,4.03236 8.10682,10.73193 10.68183,14.88791 4.19016,6.7628 6.27882,9.2281 7.81817,9.22797 0.275,-2e-5 3.875,-0.85502 8,-1.9 z m 907.53623,-0.0108 c -0.3201,-0.51782 -3.3841,-2.62995 -6.809,-4.69364 -3.425,-2.06368 -14.3272,-9.21811 -24.2272,-15.89871 -17.6421,-11.90503 -42.4634,-25.14089 -59.9955,-31.99236 -9.3045,-3.63618 -16.3188,-7.67796 -21.9941,-12.67357 -7.2372,-6.37043 -29.3595,-35.76886 -34.5097,-45.86008 -1.5606,-3.05791 -3.6177,-6.20738 -4.5714,-6.99882 -2.5178,-2.08964 -8.8203,-10.82726 -11.2621,-15.61371 -2.9401,-5.76306 -22.7497,-35.24117 -25.9246,-38.57764 -1.4392,-1.5125 -3.2375,-2.75 -3.9961,-2.75 -2.2746,0 -98.0478,24.09003 -111.2465,27.98208 -3.575,1.05419 -8.4125,2.40683 -10.75,3.00586 -2.3375,0.59903 -4.25,1.41948 -4.25,1.82322 0,0.40374 2.5875,1.32365 5.75,2.04425 3.1625,0.7206 7.325,2.225 9.25,3.3431 5.5174,3.20468 32.216,12.80149 35.6142,12.80149 3.9303,0 38.179,19.9993 45.3858,26.50273 1.375,1.24081 4.1989,2.79897 6.2754,3.46258 2.0765,0.66361 5.0459,2.27562 6.5988,3.58226 3.1112,2.61796 15.0127,7.6528 28.0851,11.88124 4.6526,1.50494 9.6801,3.36757 11.1722,4.13918 1.4921,0.77161 4.8854,2.12037 7.5407,2.99724 2.6553,0.87687 7.3028,2.84394 10.3278,4.37126 3.025,1.52732 10,4.45179 15.5,6.49882 5.5,2.04702 14.275,5.3074 19.5,7.24528 9.4266,3.49621 12.1587,4.7506 29.5,13.54455 5.0946,2.58351 12.2662,5.2687 16.5269,6.18799 4.1397,0.8932 11.3397,3.56194 16,5.93053 13.4899,6.85634 28.0779,14.99101 33.1864,18.5057 2.5923,1.78353 7.5438,4.5262 11.0034,6.09484 5.4223,2.45859 7.5932,3.16228 12.0923,3.91962 0.445,0.0749 0.5472,-0.28748 0.2272,-0.80529 z M 545.51592,360.25 c -0.26583,-0.9625 -0.77554,-3.89959 -1.13269,-6.52687 l -0.64936,-4.77687 -4.9347,2.6858 c -6.17525,3.36099 -6.34909,5.45882 -0.6847,8.26265 5.30761,2.62722 8.06549,2.75961 7.40145,0.35529 z m 473.16118,-68.40601 c 18.4465,-4.88698 29.452,-7.64835 45.1874,-11.3379 6.325,-1.48306 18.925,-4.61761 28,-6.96567 9.075,-2.34807 20.55,-5.23344 25.5,-6.41193 13.7407,-3.27138 16.5,-4.13877 16.5,-5.1868 0,-0.53037 -1.789,-3.5852 -3.9756,-6.78852 -2.1865,-3.20331 -5.3764,-8.81773 -7.0885,-12.47648 -2.5575,-5.46518 -3.4095,-6.4974 -4.7744,-5.78437 -0.9138,0.47736 -6.6115,1.19413 -12.6615,1.59283 -11.2282,0.73994 -23.3527,3.86367 -32,8.24438 -2.2,1.11452 -5.575,2.35827 -7.5,2.76391 -1.925,0.40563 -3.95,1.08677 -4.5,1.51365 -0.55,0.42688 -3.7,1.31613 -7,1.97611 -7.0435,1.40864 -9.1331,2.61787 -16.5,9.54804 -4.7258,4.44566 -10.5204,8.69039 -27.5221,20.16099 -3.6362,2.45322 -10.47793,10.39381 -10.47793,12.16076 0,1.76936 1.95853,1.45611 18.81263,-3.009 z m 185.8605,1200.68631 c -0.8083,-0.8084 -1.7965,-4.2857 -2.196,-7.7274 -0.3994,-3.4417 -1.2572,-7.8428 -1.9061,-9.7803 -1.5724,-4.6944 -0.488,-11.9116 2.0117,-13.3892 3.9674,-2.3453 7.5279,-2.5228 9.5733,-0.4774 1.0705,1.0705 1.7401,2.7108 1.4881,3.6452 -1.6609,6.1577 -1.5711,6.7742 1.3935,9.5723 1.6325,1.5408 3.2347,3.8633 3.5604,5.1609 2.0056,7.9911 -8.8232,18.0975 -13.9249,12.9959 z m 7.2917,-7.4646 c 1.4831,-2.7712 1.2805,-5.1371 -0.6198,-7.237 -3.1788,-3.5125 -4.1846,-1.2768 -2.72,6.0463 0.7153,3.5764 1.8471,3.98 3.3398,1.1907 z m -3.9801,-21.3747 c 0.01,-0.445 -0.4347,-0.5309 -0.9847,-0.191 -0.55,0.3399 -0.9931,1.379 -0.9847,2.309 0.013,1.4573 0.1493,1.4837 0.9847,0.191 0.5332,-0.825 0.9763,-1.8641 0.9847,-2.309 z m -23.3386,13.559 c -2.3968,-4.6902 0.2972,-8.983 4.9107,-7.8251 3.0953,0.7769 3.2583,4.2692 0.3706,7.9402 -2.6186,3.329 -3.5315,3.3091 -5.2813,-0.1151 z m 4.3692,-30 c -0.01,-2.3375 0.4347,-4.25 0.9847,-4.25 1.276,0 1.276,5.0255 0,7 -0.7099,1.0985 -0.9735,0.3625 -0.9847,-2.75 z m -490.46228,-16.8946 c -0.36646,-1.4601 -0.19106,-3.1174 0.39159,-3.7 0.74048,-0.7405 1.05536,0.049 1.05536,2.6446 0,4.3551 -0.52303,4.7365 -1.44695,1.0554 z m -1.4741,-10.7721 c -0.0434,-1.0541 0.19293,-1.6448 0.52522,-1.3125 0.33229,0.3323 0.36781,1.1948 0.0789,1.9167 -0.31922,0.7977 -0.55618,0.5608 -0.60416,-0.6042 z m 493.92108,-6.0243 c 0,-0.2425 0.45,-0.7191 1,-1.059 0.55,-0.3399 1,-0.1415 1,0.441 0,0.5824 -0.45,1.059 -1,1.059 -0.55,0 -1,-0.1984 -1,-0.441 z m 3.0304,-35.1694 c -0.048,-6.4245 1.1393,-13.4027 2.1711,-12.7651 0.5436,0.336 0.6472,3.3655 0.247,7.227 -0.8339,8.0484 -2.3734,11.5742 -2.4181,5.5381 z m 107.975,-1.6996 c -4.0172,-2.0028 -4.734,-5.8005 -2.2514,-11.9282 3.1673,-7.8179 3.2034,-9.2144 0.246,-9.5208 -4.3277,-0.4485 -5.5,1.1452 -5.5,7.4773 0,5.5126 -0.1235,5.796 -2.6536,6.0888 -2.2342,0.2586 -2.8201,-0.2156 -3.7069,-3 -2.9526,-9.2706 -2.1559,-23.4826 1.6851,-30.0571 1.2851,-2.1998 2.3328,-2.75 5.236,-2.75 5.8523,0 7.3651,2.5096 6.5834,10.921 -0.5943,6.3935 -0.4847,6.9948 1.3819,7.5872 1.1151,0.3539 2.6893,1.6537 3.4983,2.8885 1.3139,2.0051 1.2489,3.0919 -0.6081,10.1741 -1.6395,6.2528 -1.8331,8.3241 -0.9155,9.7971 1.5995,2.5676 -0.01,3.8124 -2.9952,2.3221 z m -5.4524,-35.7212 c 0.558,-3.2776 0.5039,-3.3618 -0.9813,-1.5277 -0.8644,1.0677 -1.5717,3.0702 -1.5717,4.45 0,3.5175 1.8093,1.4464 2.553,-2.9223 z m -18.9573,25.7812 c -0.2722,-1.7875 -0.7609,-8.5375 -1.0861,-15 l -0.5912,-11.75 2.4338,0 c 3.1359,0 3.4233,0.8898 4.6923,14.5263 1.1437,12.2899 0.5193,15.4737 -3.0344,15.4737 -1.3974,0 -2.0541,-0.884 -2.4144,-3.25 z M 1196.1369,1343 c 0,-2.475 0.195,-3.4875 0.4333,-2.25 0.2384,1.2375 0.2384,3.2625 0,4.5 -0.2383,1.2375 -0.4333,0.225 -0.4333,-2.25 z m 56.7276,-1.8776 c 0,-2.7204 2.5557,-4.4507 5.487,-3.715 4.5239,1.1354 2.3824,5.5926 -2.687,5.5926 -2.0725,0 -2.8,-0.4879 -2.8,-1.8776 z m 2.4876,-22.6097 c 0.589,-14.0352 1.2275,-16.7659 3.3283,-14.2345 1.559,1.8784 -0.1217,20.1045 -2.2796,24.7218 -1.5769,3.3741 -1.6146,2.997 -1.0487,-10.4873 z m -57.3693,-11.7627 c -0.067,-3.2455 0.3173,-5.75 0.8817,-5.75 1.1343,0 1.1343,4.0424 0,8.5 -0.6283,2.469 -0.7843,1.9823 -0.8817,-2.75 z m 60.8898,-19.75 c -0.6821,-2.5744 -1.0196,-9.8182 -0.5454,-11.7073 0.9616,-3.8313 2.5433,-1.5768 2.467,3.5163 -0.058,3.8975 -1.4676,9.9045 -1.9216,8.191 z m -58.9057,-12.95 c -0.064,-2.7659 0.2509,-4.0905 0.8311,-3.5 0.5462,0.5559 0.5887,2.4018 0.1023,4.45 l -0.8311,3.5 -0.1023,-4.45 z m 404.679,-3.8 c -4.251,-4.8668 -5.0578,-21.0771 -1.2581,-25.2758 2.3497,-2.5963 4.994,-2.5014 6.92,0.2483 2.2283,3.1813 1.9309,6.4632 -1.0457,11.5424 -2.2719,3.8767 -2.5167,5.126 -1.928,9.8379 0.7047,5.6403 -0.051,6.6661 -2.6882,3.6472 z m 2.8058,-16.7427 c 1.0234,-1.562 1.3983,-3.4289 1.004,-5 -1.1421,-4.5506 -3.6093,-2.4788 -5.0523,4.2427 -0.5526,2.5734 -0.3738,3.25 0.8586,3.25 0.856,0 2.2914,-1.1217 3.1897,-2.4927 z m 8.084,13.2415 c -5.8296,-4.2627 -2.4847,-16.9109 5.2627,-19.9001 4.9844,-1.9231 11.0723,3.2233 11.0624,9.3516 -0.01,3.6678 -3.6106,8.6777 -6.7153,9.3333 -1.5295,0.3229 -3.5624,1.01 -4.5174,1.5268 -2.2799,1.2337 -3.043,1.187 -5.0924,-0.3116 z m 9.8057,-4.9202 c 4.6283,-2.1088 4.7523,-8.4729 0.2076,-10.6511 -2.3997,-1.1501 -3.1341,-1.1129 -5.2378,0.2655 -3.2938,2.1581 -3.4194,7.7623 -0.2242,10.0003 2.6509,1.8567 2.1117,1.8172 5.2544,0.3853 z m -363.7269,-9.4057 c -1.6004,-1.6137 -0.3297,-19.4229 1.3859,-19.4229 1.0019,0 1.0259,9.5095 0.04,15.8396 -0.3718,2.3867 -1.0134,3.9992 -1.4259,3.5833 z M 262.02236,1245 c 0,-1.375 0.22698,-1.9375 0.50439,-1.25 0.27741,0.6875 0.27741,1.8125 0,2.5 -0.27741,0.6875 -0.50439,0.125 -0.50439,-1.25 z m 940.74384,-5 c -0.2469,-1.375 -0.1798,-4.075 0.149,-6 0.5815,-3.4044 0.6182,-3.4291 1.3427,-0.9065 0.4097,1.4265 0.3426,4.1265 -0.149,6 -0.8358,3.1848 -0.9231,3.2438 -1.3427,0.9065 z m 60.4145,-38.7234 c 0.2889,-8.9669 0.8905,-11.4038 2.4338,-9.8594 1.2279,1.2287 0.349,12.3866 -1.2494,15.8615 -1.417,3.0807 -1.4687,2.8187 -1.1844,-6.0021 z m -58.2459,-3.4676 c -0.074,-6.0159 0.6082,-7.3149 2.9774,-5.6669 1.1036,0.7676 1.1522,1.1319 0.2023,1.5174 -0.6875,0.2789 -1.2816,1.7072 -1.3203,3.1738 -0.039,1.4667 -0.457,3.5667 -0.9297,4.6667 -0.6197,1.4422 -0.879,0.4128 -0.9297,-3.691 z m -675.7995,2.5868 c 0.33229,-0.3323 1.1948,-0.3678 1.91667,-0.079 0.79773,0.3192 0.56078,0.5562 -0.60417,0.6042 -1.05416,0.043 -1.64479,-0.193 -1.3125,-0.5253 z m 736.8289,-35.6458 c 0.1191,-7.4669 1.1159,-11.8282 2.2749,-9.953 1.0152,1.6427 -0.3256,16.203 -1.4921,16.203 -0.4854,0 -0.8376,-2.8125 -0.7828,-6.25 z m -549.84973,3.7545 c -2.59466,-1.8657 -2.85803,-5.1433 -1.11195,-13.8377 1.57286,-7.8319 3.33244,-7.3958 2.35338,0.5832 -1.3551,11.0436 -1.74886,10.2175 5.00857,10.5074 12.39326,0.5317 13.77846,2.5909 2.5,3.7164 -5.14994,0.5139 -6.96733,0.3126 -8.75,-0.9693 z m 20.25,-7.5045 c -1.40688,-5.7409 -2.07265,-7 -3.70134,-7 -1.1449,0 -2.20739,0.847 -2.50891,2 -0.6284,2.403 -2.55754,2.5872 -4.35932,0.4162 -2.98299,-3.5943 3.94629,-7.1588 14.26055,-7.3357 6.25046,-0.1073 7.01137,1.5879 1.35239,3.0129 -2.49885,0.6292 -4.53803,1.2031 -4.5315,1.2753 0.007,0.072 0.67619,2.6063 1.48813,5.6313 1.69731,6.3236 1.87804,9 0.60772,9 -0.49076,0 -1.66423,-3.15 -2.60772,-7 z m 471.64543,-8 c -0.055,-3.5461 0.2225,-4.9671 0.7799,-4 0.4754,0.825 0.5135,3.3 0.085,5.5 -0.7742,3.9708 -0.7805,3.9599 -0.8645,-1.5 z m -511.49391,-7.3417 c -0.44086,-2.6629 -0.5647,-5.0785 -0.2752,-5.3679 0.83661,-0.8367 1.81428,4.1867 1.42829,7.3388 -0.28584,2.3342 -0.50136,1.9659 -1.15309,-1.9709 z m -439.5438,-7.3781 C 255.02668,1130.8184 254.60758,1127 255.73413,1127 c 1.14332,0 1.59964,1.401 3.01888,9.2686 1.03595,5.7429 -0.38843,7.3518 -1.78082,2.0116 z m 1010.92271,-11.6135 c -0.022,-5.0437 0.297,-6.7185 1.2196,-6.395 1.4154,0.4965 1.1988,9.1513 -0.2927,11.6978 -0.5921,1.0108 -0.9068,-0.7897 -0.9269,-5.3028 z m -57.899,-9.6167 c -0.099,-4.858 0.1522,-6.1664 1.0177,-5.3009 0.8378,0.8378 0.8734,2.5854 0.1314,6.45 l -1.0178,5.3009 -0.1313,-6.45 z m -518.66058,0.6042 c -0.37356,-2.4911 -0.47329,-5.1198 -0.22163,-5.8417 0.25165,-0.7219 0.79472,1.0788 1.20681,4.0015 0.41209,2.9227 0.51182,5.5515 0.22163,5.8417 -0.29019,0.2902 -0.83326,-1.5105 -1.20681,-4.0015 z m 21.68804,-21.7045 c 0.30205,-10.9985 0.70681,-14.2531 1.86349,-14.9837 0.81269,-0.5134 1.92762,-0.7939 2.47762,-0.6232 3.1767,0.9857 12.34464,20.4815 10.80384,22.9746 -0.33845,0.5476 -1.90248,-1.5498 -3.47563,-4.6609 -1.57315,-3.1111 -3.4954,-5.6565 -4.27166,-5.6565 -3.05305,0 -5.55655,5.0168 -5.55655,11.1349 0,3.6419 -0.42207,5.8651 -1.11348,5.8651 -0.78345,0 -0.99912,-4.1644 -0.72763,-14.0503 z m 5.78425,-4.8934 c 1.16835,-0.7392 1.22004,-1.4028 0.27144,-3.4847 -1.65758,-3.638 -3.21458,-3.1883 -3.21458,0.9284 0,3.6411 0.51778,4.0908 2.94314,2.5563 z m 15.85008,3.6937 c -2.27553,-3.5634 -4.79322,-10.5576 -4.79322,-13.3157 0,-3.5899 4.3444,-7.6434 7.76912,-7.2489 2.90778,0.335 2.96687,0.6149 2.07152,9.8146 -0.29193,2.9995 -0.0164,3.546 1.92671,3.8218 1.24705,0.177 3.87762,-0.2096 5.84572,-0.8591 3.14058,-1.0365 3.51465,-1.5041 3.05763,-3.8218 -0.77566,-3.9338 1.22605,-18.3081 2.90917,-20.8909 3.24216,-4.9752 6.5667,-1.6211 10.46955,10.5628 1.89312,5.9099 2.68772,9.8501 2.10414,10.4336 -0.58358,0.5836 -1.3902,-0.4334 -2.13595,-2.6931 -1.28901,-3.9057 -2.76404,-4.0815 -7.76761,-0.9261 -2.4317,1.5335 -2.73164,2.954 -1.38465,6.5577 0.47594,1.2733 0.55029,3.1946 0.16522,4.2695 -0.6861,1.9152 -0.73613,1.9123 -2.49575,-0.1427 -1.78141,-2.0806 -1.82818,-2.0824 -5.91521,-0.2264 -2.26579,1.0289 -5.18089,1.8807 -6.47802,1.8927 -2.01308,0.019 -2.26653,0.3881 -1.73095,2.522 0.81259,3.2376 -1.60301,3.4045 -3.61742,0.25 z m 1.6811,-13.7003 c 1.88828,-3.6516 1.89427,-4.0497 0.0609,-4.0497 -1.81764,0 -3.87988,3.6593 -3.14357,5.5781 0.79257,2.0654 1.37309,1.7776 3.08271,-1.5284 z m 23.85797,-6.6237 c 1.32686,-0.5092 1.32552,-1.074 -0.0118,-4.9989 -1.48567,-4.3601 -2.91567,-6.1652 -4.01404,-5.0669 -0.8311,0.8311 -2.20134,9.0008 -1.65728,9.8811 0.55446,0.8972 3.571,0.9952 5.68313,0.1847 z m -511.848,16.5025 c -0.60568,-2.7577 -0.098,-4.9292 0.89889,-3.8452 1.02463,1.1142 1.6754,6.9167 0.77573,6.9167 -0.55,0 -1.30358,-1.3822 -1.67462,-3.0715 z M 1212.0965,1088 c 0,-1.925 0.2058,-2.7125 0.4573,-1.75 0.2516,0.9625 0.2516,2.5375 0,3.5 -0.2515,0.9625 -0.4573,0.175 -0.4573,-1.75 z m -526.76118,-5.3458 c -0.37356,-2.4911 -0.47329,-5.1198 -0.22163,-5.8417 0.25165,-0.7219 0.79472,1.0788 1.20681,4.0015 0.41209,2.9227 0.51182,5.5515 0.22163,5.8417 -0.29019,0.2902 -0.83326,-1.5105 -1.20681,-4.0015 z m 675.73748,2.0271 c -2.4369,-1.2561 -3.8008,-4.6948 -2.8475,-7.1791 0.7249,-1.8891 2.6392,-1.9711 2.6392,-0.113 0,0.7641 0.8201,2.402 1.8223,3.6397 1.6778,2.072 2.0475,2.1403 4.6601,0.8608 4.014,-1.9657 6.8882,-6.1467 6.0472,-8.7966 -0.439,-1.383 -3.4563,-3.5423 -8.4783,-6.0673 -4.2882,-2.1561 -8.0646,-4.618 -8.3919,-5.471 -1.5854,-4.1315 10.7692,-6.5707 14.4809,-2.8589 1.9127,1.9126 1.8805,1.9337 -2.8529,1.8693 -6.5871,-0.09 -6.2133,1.7965 1.1394,5.7489 3.2597,1.7522 6.7826,4.3531 7.8286,5.7797 1.7339,2.3647 1.7746,2.8948 0.4613,6 -0.7924,1.8734 -2.3845,4.2469 -3.5381,5.2745 -2.5092,2.235 -9.7581,2.9688 -12.9703,1.313 z m -33.2083,-2.2372 c -0.825,-0.1781 -4.5375,-0.6118 -8.25,-0.9636 -3.7125,-0.3518 -6.75,-1.1189 -6.75,-1.7047 0,-0.7066 2.1919,-0.8603 6.5131,-0.4568 l 6.5131,0.6082 -0.2089,-2.7422 c -0.2587,-3.395 0.7799,-5.1897 2.9917,-5.1697 3.5921,0.033 4.4841,1.5448 3.7599,6.3741 -0.6649,4.4335 -1.0856,4.8069 -4.5689,4.0547 z m 69.0373,-2.9044 c -1.8984,-2.0207 -2.2129,-3.1935 -1.7608,-6.5646 0.6487,-4.8364 -1.1836,-6.2742 -4.3472,-3.4111 -1.644,1.4877 -1.8824,2.566 -1.351,6.1098 1.4372,9.5837 -6.4591,4.9472 -9.9423,-5.838 -3.7652,-11.6582 -0.3013,-20.8358 7.864,-20.8358 1.4473,0 3.4546,0.4405 4.4606,0.9789 2.4585,1.3158 4.1999,6.6487 3.4596,10.595 -0.5639,3.0055 -0.3647,3.2893 3.1139,4.4374 3.7127,1.2253 3.7158,1.231 3.1614,5.9122 -0.7195,6.0749 0.1724,7.4841 4.1796,6.6039 2.4471,-0.5374 3.1249,-0.3514 3.1249,0.858 0,4.0362 -8.486,4.855 -11.9627,1.1543 z m -7.602,-22.232 c 0.048,-3.5523 -0.3316,-4.8303 -1.507,-5.0679 -3.0962,-0.626 -5.6674,10.9488 -2.6783,12.057 2.3216,0.8607 4.1194,-2.1414 4.1853,-6.9891 z m -101.4353,21.7692 c -3.1614,-0.596 -3.2836,-0.7345 -1.2631,-1.4316 2.4251,-0.8367 10.838,0.082 13.2631,1.4487 1.7732,0.9991 -6.6736,0.987 -12,-0.017 z m -45.75,-2.8091 c -2.3375,-0.2105 -4.25,-0.8736 -4.25,-1.4735 0,-1.2477 13.5209,-0.4414 18.5,1.1032 2.4984,0.775 1.9131,0.9158 -3.5,0.8418 -3.575,-0.049 -8.4125,-0.261 -10.75,-0.4715 z m -50.2399,-3.1602 c -1.8095,-0.5036 -2.1294,-0.9158 -1.1707,-1.5083 1.6409,-1.0142 13.932,0.2218 14.7091,1.4792 0.6545,1.0589 -9.7579,1.0814 -13.5384,0.029 z m -38.4453,-3.0028 c -0.8997,-1.4558 2.2906,-2.1491 6.7647,-1.4701 7.3551,1.1161 7.5988,2.3025 0.4795,2.3349 -3.68,0.017 -6.9399,-0.3724 -7.2442,-0.8648 z m -27.8882,-0.8719 c -1.1361,-0.2541 -1.6073,-0.9711 -1.25,-1.9022 0.3154,-0.8218 0.5734,-1.6983 0.5734,-1.9477 0,-0.2493 0.7875,-0.04 1.75,0.4657 0.9625,0.5055 3.6601,1.2355 5.9948,1.6222 2.3346,0.3867 4.4639,1.0577 4.7317,1.4911 0.4969,0.8039 -8.4939,1.0103 -11.7999,0.2709 z m -44.1035,-3.1283 c -1.4792,-0.5795 -1.5954,-0.8796 -0.5,-1.2919 1.7127,-0.6445 11.6139,0.541 12.5791,1.5062 0.9218,0.9217 -9.6582,0.734 -12.0791,-0.2143 z m -822.58217,-5.3921 C 253.4587,1048.5123 254.79986,1032 261.18752,1032 c 5.57085,0 6.46479,7.5411 1.7127,14.448 l -2.96424,4.3084 1.96424,6.8686 c 1.08034,3.7778 1.96425,6.9826 1.96425,7.1218 0,0.1393 -0.7003,0.2532 -1.55623,0.2532 -0.87143,0 -2.3908,-1.8867 -3.45281,-4.2875 z m 3.44663,-19.2222 c 1.77813,-3.7471 1.32479,-7.4903 -0.90715,-7.4903 -2.26164,0 -4.69206,9.505 -2.89096,11.3061 1.00004,1.0001 1.98001,0.015 3.79811,-3.8158 z m 787.67974,22.6426 c -2.1675,-0.6074 -2.2339,-0.7913 -0.7349,-2.0353 1.3377,-1.1102 2.7195,-1.1524 7.3411,-0.2243 8.1604,1.6389 9.0219,3.1492 1.7265,3.027 -3.2725,-0.055 -7.0222,-0.4001 -8.3327,-0.7674 z m 222.001,-7.9419 c -0.075,-4.6459 0.2461,-7.0838 0.8817,-6.691 1.1369,0.7026 1.1369,6.5322 0,11 -0.5727,2.2506 -0.7929,1.1743 -0.8817,-4.309 z m -263.1183,4.847 c -2.1716,-0.6625 -2.268,-0.8613 -0.7338,-1.5136 2.0897,-0.8884 11.6067,0.1519 13.7424,1.5021 1.8268,1.1549 -9.2285,1.1647 -13.0086,0.012 z m 205.1993,-6.538 c -0.028,-3.3 0.3093,-8.025 0.7497,-10.5 l 0.8007,-4.5 0.051,6 c 0.028,3.3 -0.3093,8.025 -0.7497,10.5 l -0.8007,4.5 -0.051,-6 z m -972.07786,1.4186 C 240.30473,1051.0959 239.45325,1043 240.62723,1043 c 1.19405,0 1.83141,2.3514 2.77834,10.25 0.76257,6.3607 0.22181,7.3773 -1.41963,2.6686 z m 29.01585,0.067 c -2.80593,-4.614 -3.63788,-14.1283 -1.60921,-18.4034 1.93418,-4.076 4.25796,-5.2245 6.34598,-3.1365 1.35867,1.3587 1.34217,2.072 -0.15634,6.758 -1.0231,3.1993 -1.31619,5.5981 -0.75282,6.1614 0.56337,0.5634 2.98836,0.3485 6.2288,-0.552 l 5.30627,-1.4746 0.757,-6.9192 c 0.95043,-8.6871 1.23324,-9.4191 3.63904,-9.4191 2.05772,0 6.10396,4.3508 6.10396,6.5634 0,0.7116 0.75229,2.046 1.67176,2.9655 1.67154,1.6715 2.68809,12.8124 1.07824,11.8169 -0.4125,-0.2551 -0.75689,-1.2248 -0.76531,-2.1548 -0.008,-0.9301 -0.46757,-2.366 -1.02032,-3.191 -0.85642,-1.2782 -1.30357,-1.1437 -3.0246,0.9101 -1.5649,1.8674 -2.28837,2.1413 -3.21332,1.2164 -0.92495,-0.925 -1.43806,-0.468 -2.27897,2.0295 -1.34384,3.9912 -3.1956,4.7741 -3.62534,1.5328 l -0.32214,-2.4298 -5.25,2.0044 c -4.61043,1.7603 -5.25,2.3464 -5.25,4.8115 0,4.0847 -1.69007,4.4831 -3.86268,0.9105 z M 295.82931,1039.5 c 0.0347,-1.2535 -3.94256,-7.8556 -4.43549,-7.3627 -0.38379,0.3838 -0.88457,8.4587 -0.66105,10.6594 0.15531,1.5291 5.0506,-1.6374 5.09654,-3.2967 z m 673.78516,18.8107 c -2.56695,-0.6708 -2.13374,-2.3107 0.61043,-2.3107 4.62956,0 11.63957,1.2864 11.63957,2.1359 0,0.879 -9.06058,1.0083 -12.25,0.1748 z m -38.75,-3.5235 c 0,-1.0435 1.159,-0.9722 2.98739,0.1838 1.16897,0.7391 1.0084,0.9044 -0.75,0.7719 -1.23056,-0.093 -2.23739,-0.5227 -2.23739,-0.9557 z m -4.72917,-0.3914 c 0.33229,-0.3323 1.1948,-0.3678 1.91667,-0.079 0.79773,0.3192 0.56078,0.5562 -0.60417,0.6042 -1.05416,0.043 -1.64479,-0.193 -1.3125,-0.5253 z M 878.36447,1052 c 0.7184,-1.1624 6.87044,-1.1624 10.5,0 1.81034,0.5798 0.62164,0.8281 -4.30902,0.9003 -4.30799,0.063 -6.582,-0.2676 -6.19098,-0.9003 z m -39.99247,-1.7481 c -8.5187,-0.3191 -12.61906,-1.5062 -9.42475,-2.7287 1.60109,-0.6127 19.65544,1.8817 20.62307,2.8493 0.34511,0.3451 -0.01,0.535 -0.78918,0.4219 -0.77917,-0.1131 -5.46328,-0.3572 -10.40914,-0.5425 z m -63.85528,-4.3006 c -8.87089,-1.4886 -6.21264,-2.0371 7.43726,-1.5346 17.11384,0.63 23.21007,2.4813 7.91049,2.4023 -5.775,-0.03 -12.68149,-0.4203 -15.34775,-0.8677 z m -38.42016,-3.6658 c 1.50265,-0.2282 4.20265,-0.2328 6,-0.01 1.79735,0.2225 0.56791,0.4092 -2.73209,0.4148 -3.3,0.01 -4.77056,-0.1765 -3.26791,-0.4046 z m -40.98209,-3.0018 c 1.5125,-0.2291 3.9875,-0.2291 5.5,0 1.5125,0.2292 0.275,0.4166 -2.75,0.4166 -3.025,0 -4.2625,-0.1874 -2.75,-0.4166 z m -20.17105,-17.7004 c -0.0434,-1.0541 0.19293,-1.6448 0.52522,-1.3125 0.33229,0.3323 0.36781,1.1948 0.0789,1.9167 -0.31922,0.7977 -0.55618,0.5608 -0.60416,-0.6042 z m 540.99998,-2 c -0.043,-1.0541 0.193,-1.6448 0.5253,-1.3125 0.3323,0.3323 0.3678,1.1948 0.079,1.9167 -0.3192,0.7977 -0.5562,0.5608 -0.6042,-0.6042 z M 673.86447,1016.5 c 0,-1.375 0.3876,-2.5 0.86133,-2.5 0.47373,0 0.64627,1.125 0.38342,2.5 -0.26285,1.375 -0.65044,2.5 -0.86133,2.5 -0.21088,0 -0.38342,-1.125 -0.38342,-2.5 z m 601.09973,-2.25 c -0.055,-2.3375 0.3503,-4.25 0.9003,-4.25 1.1525,0 1.1525,2.4013 0,6 -0.6802,2.1238 -0.8156,1.8604 -0.9003,-1.75 z m -58.1081,-7.0453 0.4916,-8.7047 0.3033,7.9051 c 0.1667,4.3479 -0.054,8.265 -0.4916,8.7048 -0.4372,0.4398 -0.5737,-3.1175 -0.3033,-7.9052 z m -984.29478,-5.0682 c -1.72379,-8.95145 -1.61536,-12.24072 0.30128,-9.13953 1.07432,1.73829 2.32893,12.64303 1.84726,16.05593 -0.18997,1.3459 -1.15681,-1.7665 -2.14854,-6.9164 z m 1288.46758,-5.43841 c -1.4632,-1.76311 -2.9793,-9.0837 -3.2713,-15.7965 -0.3991,-9.1716 4.794,-15.40523 11.1524,-13.38716 1.873,0.59448 2.1172,1.23623 1.6879,4.43684 -0.2761,2.058 -1.7618,5.64564 -3.3017,7.97253 -3.3778,5.10428 -2.5657,6.03782 5.2728,6.06089 4.2594,0.0125 5.6684,-0.44851 7.7584,-2.53853 2.9036,-2.90358 5.6831,-2.36999 3.0146,0.57871 -0.909,1.00448 -1.4849,2.6473 -1.2796,3.65073 0.5041,2.46431 4.6149,1.95968 11.1938,-1.3741 3.3318,-1.68834 4.6259,-2.0276 3.7615,-0.98613 -1.6833,2.0283 -10.9823,6.68463 -13.3495,6.68463 -0.9921,0 -2.7037,-0.9 -3.8037,-2 -1.619,-1.61905 -3.3333,-2 -9,-2 l -7,0 0,4.44098 c 0,4.71993 -1.0915,6.35862 -2.8356,4.25711 z m 5.8154,-20.16535 c 2.8716,-4.64645 2.6816,-7.53274 -0.496,-7.53274 -3.1327,0 -6.0953,5.42763 -5.1085,9.35918 0.8182,3.25981 2.8753,2.5894 5.6045,-1.82644 z m 37.6434,11.92774 c -0.3428,-0.89323 -0.6253,-2.82475 -0.6278,-4.29227 0,-1.46751 -1.0264,-5.17622 -2.2752,-8.24156 l -2.2706,-5.57335 -5.8721,1.33361 c -3.2296,0.73349 -6.4315,2.09869 -7.1152,3.03378 -1.0923,1.4938 -1.5903,1.53682 -4.1028,0.35441 l -2.8595,-1.34576 3,-1.24779 c 1.65,-0.68628 6.2361,-1.78659 10.1913,-2.44513 6.6067,-1.09998 7.2165,-1.40635 7.5,-3.76798 0.1698,-1.41386 1.4948,-3.45213 2.9445,-4.5295 3.0362,-2.2565 11.8642,-3.64718 11.8642,-1.86899 0,0.62153 -1.2375,1.13173 -2.75,1.13379 -4.1425,0.006 -9.25,3.50208 -9.25,6.33234 0,3.43794 2.0422,8.75589 3.1092,8.09646 0.5028,-0.3108 1.1903,0.81473 1.5275,2.50118 0.6197,3.09838 1.7302,3.89973 2.8633,2.06628 0.3399,-0.55 1.379,-0.98171 2.309,-0.95936 1.2466,0.03 0.8627,0.7526 -1.4611,2.75 -1.7337,1.49015 -3.3087,3.79911 -3.5,5.13103 -0.4158,2.8941 -2.3504,3.81729 -3.2247,1.53881 z m -287.3735,-12.38111 c 0.1729,-4.43575 0.682,-6.5633 1.6467,-6.88212 1.1347,-0.37503 1.2639,0.53691 0.6894,4.86768 -1.0987,8.28255 -2.6321,9.60476 -2.3361,2.01444 z M 1540.8645,979 c 0,-0.55 1.2405,-1 2.7566,-1 1.5161,0 4.2161,-0.41859 6,-0.93019 3.8492,-1.10395 4.3287,0.11465 0.6963,1.76967 -3.1224,1.4227 -9.4529,1.53019 -9.4529,0.16052 z m -284.3742,-24.5327 c -0.3442,-0.89698 -0.6258,-4.42907 -0.6258,-7.84909 0,-3.50305 -0.524,-6.74219 -1.2,-7.41821 -0.9333,-0.93333 -0.9333,-1.2 0,-1.2 0.66,0 1.2,-1.15073 1.2,-2.55718 0,-4.7771 2.1878,-11.27061 4.5426,-13.48288 3.2199,-3.02489 6.5725,-2.03878 8.7756,2.58118 2.2336,4.68394 4.0908,22.25298 2.7305,25.83084 -1.8334,4.82217 -3.0487,2.86755 -3.0487,-4.90334 0,-8.49231 -0.8986,-9.58171 -6.1194,-7.41915 l -3.0836,1.27724 0.3515,8.06707 c 0.2974,6.82525 0.1015,8.11613 -1.2727,8.38574 -0.8933,0.17527 -1.9058,-0.41523 -2.25,-1.31222 z m 8.3122,-19.59554 c 3.0476,-1.06239 3.1979,-1.33959 2.5753,-4.75 -0.3637,-1.99197 -1.3846,-4.74298 -2.2686,-6.11336 l -1.6074,-2.4916 -1.7924,3.9916 c -1.8675,4.15877 -2.4676,10.4916 -0.9941,10.4916 0.4679,0 2.3072,-0.50771 4.0872,-1.12824 z m -601.85908,17.71157 c -0.0434,-1.05416 0.19293,-1.64479 0.52522,-1.3125 0.33229,0.33229 0.36781,1.1948 0.0789,1.91667 -0.31922,0.79773 -0.55618,0.56078 -0.60416,-0.60417 z M 182.61447,898.20435 c -2.44624,-0.21206 -3.75,-0.8256 -3.75,-1.76472 0,-1.57325 4.58945,-1.8987 11.25,-0.79778 4.39783,0.72691 5.03783,2.261 0.89411,2.14318 -1.57074,-0.0447 -3.25824,0.10456 -3.75,0.3316 -0.49176,0.22704 -2.58161,0.26651 -4.64411,0.0877 z M 167.36447,896 c -0.33992,-0.55 -0.14148,-1 0.44098,-1 0.58246,0 1.05902,0.45 1.05902,1 0,0.55 -0.19844,1 -0.44098,1 -0.24254,0 -0.7191,-0.45 -1.05902,-1 z m 3.5,0 c -1.2819,-0.82843 -1.24555,-0.9716 0.25,-0.98469 0.9625,-0.008 1.75,0.43469 1.75,0.98469 0,1.21961 -0.11279,1.21961 -2,0 z m 3,0 c 0,-0.55 0.675,-1 1.5,-1 0.825,0 1.5,0.45 1.5,1 0,0.55 -0.675,1 -1.5,1 -0.825,0 -1.5,-0.45 -1.5,-1 z m -15.18535,-0.86428 c 1.21735,-0.77196 6.18535,-0.38574 6.18535,0.48086 0,0.21088 -1.6875,0.37653 -3.75,0.36811 -2.39037,-0.01 -3.27335,-0.31757 -2.43535,-0.84897 z M 1022.8846,771.47583 c 0.6957,-0.83829 1.4708,-1.31823 1.7225,-1.06653 0.6935,0.6935 -0.7155,2.5907 -1.9241,2.5907 -0.6631,0 -0.5872,-0.57378 0.2016,-1.52417 z M 1302.6023,759.244 c -0.9693,-0.21745 -1.5349,-0.7633 -1.257,-1.21301 0.278,-0.4497 -0.6165,-1.09922 -1.9877,-1.44337 -1.3712,-0.34415 -2.4931,-1.29215 -2.4931,-2.10667 0,-0.81452 -0.675,-1.48095 -1.5,-1.48095 -2.5132,0 -1.6705,-2.73425 1,-3.24475 1.5919,-0.30432 2.5,-0.0223 2.5,0.77643 0,1.77513 3.0032,2.71052 4.5585,1.41978 1.0219,-0.8481 1.374,-0.36377 1.6232,2.23275 0.2051,2.13687 0.7961,3.21579 1.6621,3.03454 0.739,-0.15469 1.1646,0.25599 0.9457,0.91263 -0.4364,1.30947 -2.3227,1.72489 -5.0517,1.11262 z m 3.2622,-3.68498 c 0,-0.24254 0.45,-0.7191 1,-1.05902 0.55,-0.33992 1,-0.14148 1,0.44098 0,0.58246 -0.45,1.05902 -1,1.05902 -0.55,0 -1,-0.19844 -1,-0.44098 z m -28.695,-1.88826 c 0.6046,-1.59575 0.3106,-1.74525 -2.3029,-1.17122 -2.6664,0.58565 -2.9138,0.44544 -2.249,-1.27488 1.1524,-2.98228 5.6008,-8.20545 6.9969,-8.21559 0.6875,-0.005 1.2846,-0.57157 1.3269,-1.25907 0.042,-0.6875 0.6436,0.55 1.3364,2.75 0.6928,2.2 0.944,4.675 0.5583,5.5 -0.3857,0.825 -0.6122,1.95 -0.5031,2.5 0.109,0.55 0.011,0.6625 -0.2185,0.25 -0.6725,-1.21057 -1.9842,-0.87187 -3.8726,1 -1.6818,1.66707 -1.7326,1.66332 -1.0724,-0.0792 z M 1440.9805,742.25 c -0.064,-1.2375 0.8004,-3.16641 1.9205,-4.28647 1.12,-1.12007 1.8003,-2.41861 1.5116,-2.88566 -0.2886,-0.46704 0.7075,-1.08589 2.2136,-1.37522 3.1768,-0.61027 4.3028,0.0214 2.2736,1.27551 -1.174,0.72557 -1.1869,1.13419 -0.079,2.46979 1.8178,2.19037 0.4242,3.2711 -2.1473,1.66518 -1.8403,-1.14932 -2.0213,-1.10737 -1.4659,0.33979 0.3714,0.968 0.2246,1.39822 -0.3551,1.04 -0.5432,-0.33602 -0.988,-0.10784 -0.988,0.50708 0,0.61492 -0.4159,0.86097 -0.9243,0.54677 -0.5084,-0.31419 -1.1312,0.22175 -1.384,1.19099 -0.3498,1.34105 -0.4874,1.22448 -0.5757,-0.48776 z m -2.0598,-5.81766 c 0.6437,-0.77568 1.5694,-1.16372 2.0571,-0.86231 1.3201,0.81588 1.101,1.14067 -1.1705,1.73466 -1.6808,0.43956 -1.843,0.27999 -0.8866,-0.87235 z M 1054.744,727.5 c -0.3412,-0.55 -0.4936,-1.7875 -0.3385,-2.75 0.1551,-0.9625 -0.11,-1.75 -0.5892,-1.75 -0.4792,0 -0.7769,-1.34911 -0.6615,-2.99801 0.1153,-1.64891 0.5997,-2.99891 1.0763,-3 0.4766,-10e-4 0.6545,1.10731 0.3953,2.46312 -0.2592,1.35582 -0.047,2.60647 0.4712,2.77925 0.5183,0.17277 0.7904,1.65096 0.6046,3.28488 -0.1857,1.63392 -0.6169,2.52076 -0.9582,1.97076 z m 399.308,-2.5625 c 0.2406,-0.72187 1.0281,-1.50937 1.75,-1.75 0.75,-0.25 1.125,0.125 0.875,0.875 -0.2406,0.72187 -1.0281,1.50937 -1.75,1.75 -0.75,0.25 -1.125,-0.125 -0.875,-0.875 z M 1052.1442,712.25 c -1.5181,-3.45466 -2.3793,-12.25 -1.1995,-12.25 0.8491,0 1.1507,0.97093 2.3299,7.5 0.2979,1.65 0.8301,4.0125 1.1825,5.25 0.9064,3.18322 -0.8623,2.80084 -2.3129,-0.5 z m -91.27973,-9.19098 c 0,-0.58246 0.45,-1.05902 1,-1.05902 0.55,0 1,0.19844 1,0.44098 0,0.24254 -0.45,0.7191 -1,1.05902 -0.55,0.33992 -1,0.14148 -1,-0.44098 z M 1395.8951,510.5 c 0,-1.1 0.4362,-2.675 0.9694,-3.5 0.8027,-1.2421 0.9694,-1.15614 0.9694,0.5 0,1.1 -0.4362,2.675 -0.9694,3.5 -0.8027,1.2421 -0.9694,1.15614 -0.9694,-0.5 z M 978.1353,423.39583 c 0.33229,-0.33229 1.1948,-0.36781 1.91667,-0.0789 0.79773,0.31922 0.56078,0.55618 -0.60417,0.60416 -1.05416,0.0434 -1.64479,-0.19293 -1.3125,-0.52522 z m 3.72917,-3.33681 c 0,-0.58246 0.45,-1.05902 1,-1.05902 0.55,0 1,0.19844 1,0.44098 0,0.24254 -0.45,0.7191 -1,1.05902 -0.55,0.33992 -1,0.14148 -1,-0.44098 z m 7,-10.05902 c 0.825,-0.53316 1.95,-0.96937 2.5,-0.96937 0.55,0 0.325,0.43621 -0.5,0.96937 -0.825,0.53316 -1.95,0.96937 -2.5,0.96937 -0.55,0 -0.325,-0.43621 0.5,-0.96937 z m -5.30061,-24.95848 c 0.75878,-2.90158 2.38092,-3.64997 1.96204,-0.9052 -0.18954,1.24194 -0.83049,2.42003 -1.42433,2.61798 -0.64666,0.21555 -0.86233,-0.47143 -0.53771,-1.71278 z M 109.31902,357.54545 c -2.90624,-2.90623 -3.00153,-4.12109 -0.76675,-9.77521 4.3956,-11.12115 9.35876,-16.16406 14.05996,-14.28591 1.39901,0.55891 1.05213,0.93343 -1.72074,1.85785 -6.3841,2.12833 -12.70127,18.1935 -8.51895,21.66452 2.4049,1.99589 9.94452,0.6482 14.09829,-2.52003 l 3.61913,-2.76044 -1.67131,2.55073 c -3.82302,5.83467 -14.67617,7.69195 -19.09963,3.26849 z m 33.32203,-7.58692 c -2.5042,-1.49396 -10.77658,-11.89544 -10.77658,-13.5502 0,-2.95032 2.7114,-1.18979 7.02375,4.56056 4.58535,6.11436 6.68007,7.72729 8.13976,6.2676 1.1179,-1.1179 2.56061,-9.87945 3.34222,-20.29721 0.71365,-9.51209 1.66256,-12.17099 3.63842,-10.19513 0.96692,0.96692 0.97296,3.66865 0.0285,12.7295 -1.49737,14.3649 -3.71829,20.92749 -7.19811,21.2697 -1.36099,0.13384 -3.25006,-0.21933 -4.19794,-0.78482 z m 21.86121,-13.19732 c -2.68841,-6.15178 -3.33922,-18.48079 -1.21216,-22.96324 2.99498,-6.31145 8.83857,-7.37677 12.21313,-2.22654 2.22296,3.39266 1.07086,8.34572 -3.26139,14.02128 -3.16271,4.14337 -3.50519,5.18375 -3.20898,9.74804 0.43937,6.77011 -1.87555,7.49589 -4.5306,1.42046 z m 7.2041,-15.69368 c 2.67948,-4.76748 2.70161,-6.2657 0.12698,-8.5957 -1.80689,-1.63522 -2.19699,-1.67228 -3.53354,-0.33573 -3.03437,3.03437 -3.10587,14.44218 -0.0832,13.28229 0.73244,-0.28106 2.30285,-2.23895 3.48981,-4.35086 z M 922.36447,304 c 0.33992,-0.55 1.04148,-1 1.55902,-1 0.51754,0 0.94098,0.45 0.94098,1 0,0.55 -0.70156,1 -1.55902,1 -0.85746,0 -1.2809,-0.45 -0.94098,-1 z m 15.5,-1 c 0,-0.55 0.70156,-1 1.55902,-1 0.85746,0 1.2809,0.45 0.94098,1 -0.33992,0.55 -1.04148,1 -1.55902,1 -0.51754,0 -0.94098,-0.45 -0.94098,-1 z m -16.72917,-1.60417 c 0.33229,-0.33229 1.1948,-0.36781 1.91667,-0.0789 0.79773,0.31922 0.56078,0.55618 -0.60417,0.60416 -1.05416,0.0434 -1.64479,-0.19293 -1.3125,-0.52522 z m -7.61759,-1.79794 c -3.35928,-1.04129 -3.64696,-1.35822 -2.27007,-2.50093 1.3332,-1.10646 2.05491,-0.90613 4.67348,1.29726 3.4026,2.86309 3.22956,2.94975 -2.40341,1.20367 z m 29.36503,-7.06376 c -0.72584,-1.35623 -1.81438,-2.18408 -2.41898,-1.83968 -0.60461,0.34441 -0.80842,0.30068 -0.45291,-0.0972 0.3555,-0.39785 -0.882,-4.2502 -2.75,-8.56077 -3.69596,-8.5287 -4.26366,-14.02504 -2.00658,-19.42701 2.72446,-6.52054 8.67175,-9.65012 11.6102,-6.1095 1.03925,1.25222 0.89853,1.5 -0.85188,1.5 -3.35153,0 -6.81864,8.48025 -5.54379,13.55964 0.47155,1.87882 1.07509,2.37659 2.26905,1.87141 6.53244,-2.76395 8.12245,-0.7487 2.87662,3.64596 l -3.25,2.72266 3.25,6.6191 c 3.87391,7.88978 3.94796,8.58123 0.91898,8.58123 -1.45436,0 -2.82734,-0.92737 -3.65071,-2.46587 z m 30.66635,-3.18285 c -0.31292,-0.31292 0.58437,-2.31173 1.99399,-4.44181 1.40962,-2.13008 2.77849,-5.7936 3.04195,-8.14117 0.43534,-3.87915 0.10715,-4.69038 -3.59972,-8.89784 -5.65527,-6.41895 -6.55639,-9.15035 -4.46962,-13.5479 2.03904,-4.29694 5.22152,-5.99622 8.22229,-4.39026 2.73473,1.46359 2.96719,5.4693 0.26767,4.61251 -2.44705,-0.77667 -4.52099,1.80577 -3.78981,4.71902 0.31609,1.25939 2.15835,4.13995 4.09393,6.40123 6.0547,7.07356 6.53126,10.8706 2.27066,18.09177 -1.9155,3.24654 -6.90423,6.72157 -8.03134,5.59445 z M 954.49385,274.25 c -0.84225,-2.6125 -1.8285,-6.4375 -2.19166,-8.5 -0.63776,-3.622 -0.56146,-3.75 2.23538,-3.75 2.15695,0 3.34779,-0.76535 4.66783,-3 1.79088,-3.03172 4.75064,-3.86177 7.51797,-2.10837 0.74739,0.47355 1.54856,3.05416 1.78038,5.73469 0.23181,2.68052 0.59349,6.58728 0.80372,8.68167 0.36267,3.61303 0.24592,3.79222 -2.28038,3.5 -2.0384,-0.23579 -2.92446,-1.11812 -3.77952,-3.76362 -0.6143,-1.9006 -1.69161,-3.64721 -2.39403,-3.88135 -0.99221,-0.33073 -1.12237,0.94212 -0.58344,5.70564 0.68339,6.04038 0.65705,6.13134 -1.77561,6.13134 -2.06422,0 -2.72049,-0.77919 -4.00064,-4.75 z M 517.52501,255.25975 c -0.84709,-1.37062 -4.66054,-16.46562 -4.66054,-18.44809 0,-0.99641 0.62391,-1.81166 1.38646,-1.81166 0.87742,0 1.63524,-1.65905 2.06408,-4.51874 0.37999,-2.53398 1.7219,-5.71838 3.05515,-7.25 2.27523,-2.61374 2.49836,-2.66537 5.18592,-1.19984 4.40383,2.40141 4.32628,7.25502 -0.22395,14.01664 -3.44651,5.12149 -3.61526,5.75544 -3.29995,12.39752 0.27925,5.88273 0.0678,7.05311 -1.32447,7.33259 -0.91122,0.18291 -1.89344,-0.0504 -2.1827,-0.51842 z m 7.13679,-27.20757 c -0.52852,-4.53657 -3.25898,-3.09075 -3.61541,1.91442 l -0.31808,4.4666 2.11541,-1.91442 c 1.33548,-1.20859 2.00579,-2.8554 1.81808,-4.4666 z m 14.20428,7.45206 c -0.55088,-1.44894 -1.00161,-4.43473 -1.00161,-6.63508 0,-2.20035 -0.49646,-4.92829 -1.10325,-6.06208 -1.45069,-2.71065 0.27566,-3.81564 4.81136,-3.0796 2.73359,0.44361 4.24862,-0.0755 7.92438,-2.71524 4.167,-2.99252 4.67764,-3.13068 6.14555,-1.66277 1.06527,1.06527 1.83169,4.36964 2.29058,9.87573 0.3793,4.55114 1.03487,9.33837 1.45682,10.63829 0.71064,2.1893 0.60547,2.27694 -1.427,1.18919 -2.88214,-1.54247 -4.09844,-4.97278 -4.09844,-11.55876 0,-2.95674 -0.3455,-5.58941 -0.76777,-5.85039 -0.42227,-0.26098 -2.55977,0.60749 -4.75,1.92992 l -3.98223,2.40444 0,6.76105 c 0,6.24868 -0.17039,6.78526 -2.24839,7.0804 -1.66171,0.23601 -2.50974,-0.36807 -3.25,-2.3151 z m 417.88231,-89.62032 c -1.71699,-1.71699 -2.03165,-2.99001 -1.66843,-6.75 0.2462,-2.54865 1.29211,-6.43392 2.32424,-8.63392 2.30044,-4.90341 12.07365,-14.72111 14.23924,-14.30405 0.86834,0.16723 1.38581,0.75405 1.14992,1.30405 -0.23589,0.55 -0.76677,0.88737 -1.17973,0.74972 -1.39336,-0.46445 -8.24867,7.45803 -10.70582,12.37241 -6.21537,12.43091 0.3861,18.7817 11.24355,10.81659 6.76037,-4.95945 8.70482,-8.57374 8.70937,-16.18872 0.003,-4.94419 0.32369,-6.25 1.53512,-6.25 0.84227,0 1.77756,0.7875 2.07844,1.75 0.30088,0.9625 1.23522,3.02646 2.0763,4.58658 0.92129,1.70889 1.2976,3.99483 0.94656,5.75 -0.99703,4.98517 1.80367,3.38407 3.21263,-1.83658 0.70506,-2.6125 1.92568,-7 2.71249,-9.75 0.7868,-2.75 1.7124,-6.45241 2.05689,-8.22757 0.34449,-1.77517 1.24711,-3.74277 2.00582,-4.37245 1.13015,-0.93793 1.37949,-0.47974 1.37949,2.53495 0,11.59995 -4.81391,27.32475 -9.06089,29.59766 -1.70612,0.91308 -2.47934,0.6006 -4.88427,-1.97388 C 983.34782,135.37642 981.8538,134 981.59926,134 c -0.25453,0 -1.76149,1.879 -3.34879,4.17555 -5.95938,8.6222 -16.72783,12.48262 -21.50208,7.70837 z m 45.11611,-9.8323 c 0,-6.03319 4.4591,-20.81017 7.1028,-23.53774 1.5044,-1.55217 2.3043,-1.7508 3.6611,-0.90912 2.7744,1.7211 5.9789,8.45605 6.7303,14.14524 0.7713,5.83892 -0.6258,7.17976 -2.3444,2.25 -1.1658,-3.34442 -1.8213,-3.54268 -5.8527,-1.77035 -3.6317,1.59655 -3.8534,1.96716 -5.3255,8.90425 -1.5985,7.53244 -3.9716,8.08079 -3.9716,0.91772 z m 108.0487,-33.49289 c -0.9375,-1.12968 -0.7566,-1.64469 0.8867,-2.52417 1.7624,-0.943186 2.0646,-0.815651 2.0646,0.87124 0,2.60233 -1.4769,3.42948 -2.9513,1.65293 z m 41.9513,-39.499713 c 0,-0.517541 0.4448,-1.215913 0.9885,-1.551938 0.5669,-0.350339 0.7346,0.05106 0.3931,0.940983 -0.6648,1.732417 -1.3816,2.049387 -1.3816,0.610955 z m 266,-2.952028 c 0,-0.608844 1.125,-1.106989 2.5,-1.106989 1.5556,0 2.5,-0.566667 2.5,-1.5 0,-0.825 0.45,-1.5 1,-1.5 0.55,0 1,0.9 1,2 0,1.304908 -0.6667,2 -1.9182,2 -1.055,0 -2.63,0.273145 -3.5,0.606989 -0.87,0.333844 -1.5818,0.108844 -1.5818,-0.5 z M 1153.0312,57 c 0.1833,-0.55 0.6708,-1 1.0833,-1 0.4125,0 1.4516,0 2.309,0 0.8575,0 1.2809,0.45 0.941,1 -0.3399,0.55 -1.529,1 -2.6424,1 -1.1133,0 -1.8743,-0.45 -1.6909,-1 z"
     id="path3049"
     style="fill:#000000" />
</svg>
