<?xml version="1.0" encoding="UTF-8" standalone="no"?>
<!-- Created with Inkscape (http://www.inkscape.org/) -->

<svg
   xmlns:dc="http://purl.org/dc/elements/1.1/"
   xmlns:cc="http://creativecommons.org/ns#"
   xmlns:rdf="http://www.w3.org/1999/02/22-rdf-syntax-ns#"
   xmlns:svg="http://www.w3.org/2000/svg"
   xmlns="http://www.w3.org/2000/svg"
   version="1.1"
   width="1531.7517"
   height="1658.9686"
   id="svg2997">
  <metadata
     id="metadata3003">
    <rdf:RDF>
      <cc:Work
         rdf:about="">
        <dc:format>image/svg+xml</dc:format>
        <dc:type
           rdf:resource="http://purl.org/dc/dcmitype/StillImage" />
        <dc:title></dc:title>
      </cc:Work>
    </rdf:RDF>
  </metadata>
  <defs
     id="defs3001" />
  <path
     d="m 1138.4859,1658.0666 c -0.9208,-1.4899 4.3922,-5.9109 11.4626,-9.5382 3.575,-1.834 10.1785,-6.2442 14.6745,-9.8002 9.9434,-7.8648 13.7228,-10.2476 19.4352,-12.2534 2.9219,-1.026 6.8325,-3.9542 11.6923,-8.7551 6.6129,-6.5329 8.6573,-9.3665 14.9439,-20.7136 2.6035,-4.6992 14.2541,-31.6597 14.2541,-32.9852 0,-0.5782 1.6001,-4.9805 3.5559,-9.783 11.4377,-28.0865 13.7983,-41.194 13.8186,-76.7318 0.015,-25.6431 -0.2514,-27.6743 -8.3152,-63.5 -2.7201,-12.0846 -4.8521,-22.7759 -5.5836,-28 -1.3503,-9.642 -6.4765,-34.0412 -10.1396,-48.2605 -2.4686,-9.5831 -2.5828,-11.0975 -2.0865,-27.6885 0.3386,-11.3234 1.1234,-20.0348 2.2115,-24.551 4.1797,-17.3474 8.9989,-33.6263 12.0759,-40.7909 3.8572,-8.9815 11.0747,-19.5721 15.1538,-22.2361 3.9364,-2.5707 15.3092,-14.0166 15.3092,-15.4075 0,-0.6332 1.9749,-3.2694 4.3888,-5.8583 6.3389,-6.7988 10.3068,-14.0511 10.8389,-19.8107 0.5073,-5.4914 -0.6909,-15.3534 -2.4174,-19.8965 -3.0499,-8.0256 -16.8985,-34.5907 -20.3759,-39.0862 -2.1639,-2.7973 -5.2064,-6.7101 -6.7612,-8.695 -1.7084,-2.1811 -2.6974,-4.5208 -2.5,-5.9138 0.3153,-2.2237 0.6117,-2.2926 8.4064,-1.9539 9.8358,0.4274 15.5883,-1.6553 25.4204,-9.2034 16.3186,-12.5278 19.1154,-16.8454 23.5913,-36.42 3.2217,-14.0892 4.0938,-29.1169 2.5527,-43.9851 -0.6125,-5.9084 -1.3622,-16.59259 -1.666,-23.74259 -0.3038,-7.15 -1.0634,-16.375 -1.6879,-20.5 -0.6244,-4.125 -1.1467,-15.375 -1.1604,-25 -0.039,-27.60341 3.1694,-38.70746 15.2157,-52.65292 7.2991,-8.44984 17.0116,-15.15522 28.119,-19.41309 4.6554,-1.78459 15.6804,-6.89317 24.5,-11.35241 19.4647,-9.84148 27.1624,-13.36198 39.4742,-18.05326 5.1912,-1.97807 9.9162,-3.98175 10.5,-4.45264 0.5838,-0.47088 5.1114,-2.51198 10.0614,-4.53577 4.95,-2.0238 11.925,-5.42353 15.5,-7.55497 3.575,-2.13143 7.6794,-4.31678 9.121,-4.85632 3.2292,-1.20868 19.7734,-15.15884 29.879,-25.19418 4.125,-4.09633 10.8947,-10.59485 15.0438,-14.44116 13.1095,-12.15268 19.1962,-20.89325 25.065,-35.99328 2.9718,-7.64638 3.1147,-8.68513 3.2328,-23.5 0.098,-12.34027 -0.2452,-16.72312 -1.685,-21.5 -0.9947,-3.3 -2.4046,-8.7 -3.1332,-12 -1.4298,-6.47646 -5.0165,-17.05741 -8.438,-24.89259 -4.9973,-11.44345 -33.2594,-56.98653 -43.842,-70.64928 -6.0254,-7.77911 -23.5391,-27.08189 -26.8926,-29.63969 -1.961,-1.49575 -5.1266,-4.76679 -7.0346,-7.26899 -1.9081,-2.5022 -5.4374,-6.63081 -7.8429,-9.17469 -4.1165,-4.35324 -9.2967,-11.30217 -25.2523,-33.87476 -3.6934,-5.225 -12.637,-16.42076 -19.8748,-24.87947 -7.2378,-8.45871 -14.6641,-18.02121 -16.5029,-21.24999 -1.8388,-3.22879 -5.5704,-9.35803 -8.2924,-13.62053 -2.722,-4.26251 -6.8166,-12.03892 -9.0991,-17.28091 -2.2826,-5.242 -5.3365,-11.4103 -6.7866,-13.70734 -1.45,-2.29704 -5.0268,-9.03314 -7.9484,-14.9691 -12.7747,-25.95485 -22.3862,-42.14666 -42.0225,-70.79266 -5.818,-8.48731 -16.48,-30.4695 -20.6251,-42.52302 -2.1707,-6.31234 -5.8102,-16.65198 -8.0876,-22.97698 -2.2775,-6.325 -4.9408,-14.45526 -5.9185,-18.06725 -0.9776,-3.61199 -2.5177,-7.69695 -3.4224,-9.07767 -0.9047,-1.38073 -2.097,-4.95047 -2.6497,-7.93275 -0.5526,-2.98228 -1.276,-6.54733 -1.6075,-7.92233 -2.6615,-11.03911 -3.4833,-18.44196 -3.0528,-27.5 0.421,-8.85696 2.8339,-20.84108 5.5697,-27.662 1.44,-3.59008 5.8898,-18.90916 6.6339,-22.838 0.3647,-1.925 2.4491,-7.16092 4.6323,-11.63537 4.5252,-9.27488 11.4208,-16.38005 30.3334,-31.25551 l 11,-8.65191 5.8494,-11.478604 c 13.9312,-27.337865 16.9275,-37.999291 17.1375,-60.978605 0.2758,-30.1734295 0.1551,-28.99999986 2.9843,-28.99999986 l 2.4711,0 -0.4404,19.20379886 c -0.2423,10.562089 -0.7086,21.249589 -1.0363,23.75 -1.9036,14.524924 -6.5552,28.282352 -15.7858,46.687769 -6.2624,12.486721 -8.7051,15.071801 -27.3822,28.977621 -15.3978,11.46421 -22.2255,21.00997 -26.2691,36.7267 -1.0123,3.93476 -3.7954,13.67911 -6.1846,21.65411 -4.2318,14.12584 -4.3437,14.86126 -4.3345,28.5 0.013,19.96262 2.4114,30.21684 13.4474,57.5 2.1135,5.225 6.5331,17.375 9.8213,27 3.2883,9.625 8.1669,21.95528 10.8413,27.40063 4.8116,9.79645 4.8723,9.86747 5.7663,6.75 0.497,-1.73285 1.3373,-3.15063 1.8674,-3.15063 0.8888,0 0.7858,0.83675 -0.8023,6.52187 -0.4002,1.43289 1.5166,5.07422 6.58,12.5 3.9295,5.76297 7.8927,11.77705 8.8069,13.36461 0.9143,1.58756 4.3363,6.97937 7.6044,11.9818 6.4063,9.80585 12.0224,19.96479 21.9093,39.63172 3.4561,6.875 8.1104,16.1 10.3428,20.5 2.2324,4.4 5.3207,10.7 6.8627,14 5.4889,11.7461 20.4082,34.08029 31.396,47 10.4576,12.29613 23.0691,29.01004 32.823,43.5 5.87,8.72019 16.8126,21.62632 27.1992,32.07981 19.5122,19.63782 34.2396,38.12501 45.841,57.54373 1.6024,2.68205 5.9596,9.82646 9.6827,15.87646 15.0503,24.45648 19.7025,34.72318 24.4695,54 2.3396,9.46074 3.0214,11.04465 4.8726,11.31911 2.1304,0.31585 2.1487,0.51067 1.7836,19 -0.3356,16.99722 -0.6067,19.38453 -3.0088,26.48806 -1.452,4.29394 -3.7594,10.01622 -5.1275,12.71617 -2.7933,5.51216 -18.0861,24.97666 -19.6237,24.97666 -0.5468,0 -6.9856,5.9625 -14.3084,13.25 -17.975,17.88852 -28.1002,26.43204 -37.3235,31.49304 -16.4265,9.0136 -45.8916,22.73365 -53.2326,24.78715 -1.375,0.38462 -4.075,1.52672 -6,2.53798 -1.925,1.01126 -7.9468,3.90672 -13.3817,6.43435 -5.435,2.52763 -13.31,6.56992 -17.5,8.98287 -4.1901,2.41294 -11.2183,5.80356 -15.6183,7.5347 -15.3725,6.04818 -21.3389,10.02116 -28.7935,19.17332 -10.9149,13.40058 -14.0239,23.69499 -14.1361,46.80659 -0.039,7.975 0.693,21.25 1.626,29.5 2.3636,20.90006 4.8354,52.52289 4.8181,61.63949 -0.021,11.2828 -4.5247,33.272 -8.7776,42.8605 -1.1451,2.5817 -4.9247,7.3463 -8.8664,11.1769 -15.4118,14.9775 -22.0107,18.8823 -33.1437,19.6122 -4.0002,0.2623 -7.5303,0.8929 -7.8445,1.4014 -0.3143,0.5085 1.8735,4.1612 4.8618,8.117 11.1702,14.7871 22.8892,37.3992 24.777,47.8078 1.6869,9.3011 0.5017,18.2269 -3.2378,24.3847 -4.3133,7.1026 -15.0633,19.4972 -26.116,30.1112 -8.3432,8.0122 -10.0347,10.2439 -14.0225,18.5 -10.8137,22.3885 -17.197,55.547 -15.5834,80.949 0.4346,6.8419 1.4891,14.7117 2.3433,17.4884 1.9024,6.184 6.9615,30.366 11.6009,55.4514 1.1698,6.325 3.2133,16.225 4.5412,22 1.3279,5.775 2.895,13.425 3.4824,17 0.5875,3.575 1.4935,7.85 2.0133,9.5 1.998,6.3409 3.039,19.7605 3.0255,39 -0.021,29.3631 -3.2791,48.4784 -11.3634,66.6631 -1.3847,3.1147 -4.8446,11.8897 -7.6886,19.5 -2.844,7.6103 -8.5244,20.6502 -12.6232,28.9776 -7.0531,14.3297 -7.9047,15.5751 -15.8991,23.25 -4.6457,4.4601 -9.0198,8.1137 -9.7202,8.1191 -3.0696,0.024 -11.952,5.3102 -20.1232,11.9769 -4.8674,3.9712 -12.0631,8.8084 -15.9906,10.7494 -3.9274,1.941 -8.5375,4.5944 -10.2447,5.8965 -3.2436,2.4741 -5.8913,3.0238 -6.8776,1.4279 z m -11.4585,-74.4772 c -0.043,-1.0541 0.193,-1.6448 0.5253,-1.3125 0.3323,0.3323 0.3678,1.1948 0.079,1.9167 -0.3192,0.7977 -0.5562,0.5608 -0.6042,-0.6042 z m -0.079,-3.5833 c 0,-0.55 0.45,-1 1,-1 0.55,0 1,0.45 1,1 0,0.55 -0.45,1 -1,1 -0.55,0 -1,-0.45 -1,-1 z m 0.622,-11.2398 c 0.1334,-5.0931 0.501,-18.7102 0.8171,-30.2602 0.4808,-17.5717 0.3286,-21.4676 -0.9323,-23.8643 -1.8816,-3.5768 -1.9314,-6.5356 -0.1215,-7.2301 1.0956,-0.4204 1.5171,-5.1704 2.0157,-22.7186 0.3467,-12.2028 0.8483,-29.612 1.1146,-38.687 0.2664,-9.075 0.7072,-27.3 0.9796,-40.5 0.2724,-13.2 0.7192,-30.3 0.9928,-38 0.2736,-7.7 0.735,-27.05 1.0254,-43 0.2904,-15.95 0.7331,-33.725 0.9837,-39.5 0.2506,-5.775 0.7024,-22.2 1.004,-36.5 0.965,-45.7494 2.4486,-107.4886 2.9917,-124.5 0.2898,-9.075 1.2034,-41.925 2.0302,-73 0.8268,-31.075 1.947,-70.44999 2.4893,-87.49999 0.5422,-17.05 0.9863,-35.8375 0.9868,-41.75 l 9e-4,-10.75 -7.5136,0 c -4.1324,0 -8.3478,0.52102 -9.3675,1.15782 -3.5012,2.18654 -5.1189,0.40846 -5.1189,-5.62644 0,-3.27988 -0.4378,-5.53138 -1.0755,-5.53138 -0.6526,0 -0.9642,1.81023 -0.7925,4.60372 0.2465,4.00692 -0.034,4.77336 -2.1619,5.91227 -1.3447,0.7197 -2.8412,1.06366 -3.3255,0.76436 -2.4171,-1.49383 -7.647,-1.98238 -8.6237,-0.80557 -1.4239,1.71574 -2.6422,9.55224 -3.9683,25.52522 -0.9436,11.36587 -5.8829,67.55259 -7.5602,85.99999 -0.275,3.025 -2.746,32.05 -5.4911,64.5 -7.205,85.1714 -7.9489,93.8545 -9.0383,105.5 -0.5402,5.775 -1.8699,21.3485 -2.9547,34.6077 -2.424,29.627 -4.5099,49.7178 -6.9969,67.3923 -1.0448,7.425 -2.2016,16.0875 -2.5707,19.25 -0.3691,3.1625 -1.1309,5.75 -1.6929,5.75 -1.1709,0 -0.4926,-11.9855 1.8677,-33 1.9192,-17.0865 2.538,-23.6385 6.2812,-66.5 1.6811,-19.25 3.5264,-39.95 4.1006,-46 0.5742,-6.05 2.1603,-24.5 3.5248,-41 1.3645,-16.5 3.617,-43.05 5.0057,-59 1.3886,-15.95 3.6001,-41.375 4.9145,-56.5 1.3143,-15.125 3.8518,-44.27104 5.6388,-64.76899 2.9621,-33.97625 3.1082,-37.37776 1.6532,-38.5 -2.7186,-2.09688 -2.6394,-6.26105 0.1329,-6.98602 2.4158,-0.63176 2.3863,-0.40147 6.6419,-51.74498 1.9375,-23.375 4.8475,-57.575 6.4668,-76 1.6192,-18.425 4.0862,-47 5.4821,-63.5 1.396,-16.5 3.2203,-37.65 4.0541,-47 1.6392,-18.38145 6.19,-70.5403 9.5028,-108.91641 1.6146,-18.70297 1.7977,-24.0814 0.84,-24.67327 -0.6735,-0.41627 -3.9539,-1.04507 -7.2898,-1.39734 -3.3358,-0.35226 -11.0151,-1.24793 -17.0651,-1.99036 -32.4793,-3.98576 -42.5,-4.78459 -42.5,-3.38806 0,0.50135 -1.0125,0.2816 -2.25,-0.48833 -1.2375,-0.76994 -6.3,-1.89807 -11.25,-2.50697 -23.1992,-2.85371 -52.8987,-6.28223 -61.49999,-7.09957 -5.225,-0.4965 -20.075,-2.28336 -33,-3.97078 -12.925,-1.68743 -35.2,-4.42024 -49.5,-6.07292 -14.3,-1.65267 -35.45,-4.14171 -47,-5.5312 -11.55,-1.38949 -27.075,-3.19322 -34.5,-4.00829 -7.425,-0.81507 -21.15,-2.39255 -30.5,-3.5055 -9.35,-1.11295 -24.65,-2.9015 -34,-3.97456 -9.35,-1.07305 -22.625,-2.63644 -29.5,-3.47419 -6.875,-0.83775 -20.15,-2.41947 -29.5,-3.51493 -9.35,-1.09545 -26.225,-3.12125 -37.5,-4.50176 -40.53297,-4.96286 -44.68818,-5.46332 -58,-6.98563 -19.03045,-2.17627 -27.24032,-3.16074 -45.5,-5.45605 -8.8,-1.10619 -27.7,-3.373 -42,-5.03737 -14.3,-1.66436 -31.4,-3.69742 -38,-4.51791 -6.6,-0.82049 -19.875,-2.39702 -29.5,-3.5034 -9.625,-1.10638 -24.925,-2.90261 -34,-3.99162 -19.57429,-2.34894 -32.41932,-3.86935 -72.5,-8.58153 -16.5,-1.93986 -39,-4.61318 -50,-5.94071 -19.28989,-2.32799 -71.88277,-8.57859 -105,-12.47912 -8.8,-1.03646 -23.875,-2.83373 -33.5,-3.99395 -57.029028,-6.87436 -76.891795,-8.90861 -81.596696,-8.35676 -3.577286,0.4196 -6.11128,0.13242 -8.5,-0.9633 -1.871816,-0.85861 -6.039515,-1.8704 -9.261553,-2.24841 -5.614177,-0.65866 -5.830789,-0.60077 -5.199114,1.38946 0.515209,1.62328 0.01896,2.4078 -2.272634,3.59283 -1.612473,0.83384 -4.110371,2.91676 -5.550885,4.62872 l -2.619116,3.11264 0,-3.04339 c 0,-2.14483 1.033377,-4.07677 3.5,-6.54339 1.925,-1.925 3.5,-3.67451 3.5,-3.88779 0,-0.21329 -10.852379,-1.67798 -24.116398,-3.25488 -16.9262877,-2.01229 -24.2675989,-3.2611 -24.62353924,-4.18867 -0.27892706,-0.72687 -0.27797409,-1.55075 0.002118,-1.83084 0.28009179,-0.2801 6.74818424,0.19707 14.37353824,1.06037 7.625355,0.8633 20.164281,2.24418 27.864281,3.06863 7.7,0.82444 15.493483,1.77257 17.318851,2.10696 2.666389,0.48844 3.611352,0.19036 4.806704,-1.51624 1.905913,-2.72107 2.777624,-2.67259 5.583976,0.31056 2.626588,2.79206 2.891222,2.83578 45.790467,7.56523 28.29461,3.11935 34.13956,3.78936 78.5,8.99846 14.3,1.6792 35.675,4.18465 47.5,5.56767 18.5299,2.1672 31.01837,3.67174 70.5,8.4934 3.85,0.47018 9.25,1.11698 12,1.43734 2.75,0.32035 8.6,1.03488 13,1.58783 4.4,0.55295 12.05,1.43043 17,1.94995 4.95,0.51952 11.025,1.37214 13.5,1.89471 2.475,0.52256 9,1.23744 14.5,1.58862 5.5,0.35117 17.425,1.4895 26.5,2.52961 9.075,1.04012 20.55,2.35573 25.5,2.92359 4.95,0.56785 11.25,1.28369 14,1.59075 2.75,0.30707 7.7,0.94791 11,1.42411 3.3,0.4762 9.375,1.15955 13.5,1.51857 4.125,0.35902 8.625,0.80387 10,0.98856 1.375,0.18469 6.325,0.81801 11,1.40738 4.675,0.58936 12.1,1.52867 16.5,2.08734 4.4,0.55867 14.075,1.66676 21.5,2.46243 7.425,0.79567 25.875,3.00953 41,4.91969 37.1829,4.69588 58.60919,7.24593 76.5,9.10464 8.25,0.85711 18.15,1.99058 22,2.51882 3.85,0.52824 11.725,1.44509 17.5,2.03744 5.775,0.59236 11.625,1.24693 13,1.45461 1.375,0.20768 5.65,0.67258 9.5,1.03311 7.44306,0.697 9.78421,1.0075 18.5,2.45361 3.025,0.5019 10.675,1.40115 17,1.99833 15.3441,1.44873 19.03564,1.8781 22,2.55889 1.375,0.31577 7.225,0.99175 13,1.50216 5.775,0.51042 11.85,1.154 13.5,1.43019 6.37913,1.06778 10.53189,1.55364 26,3.0419 8.8,0.8467 18.475,1.95055 21.5,2.453 3.025,0.50246 8.425,1.25281 12,1.66744 3.575,0.41463 6.725,0.80906 7,0.87651 0.275,0.0675 4.325,0.46917 9,0.8927 4.675,0.42354 12.775,1.37152 18,2.10664 5.225,0.73512 13.325,1.63162 18,1.99223 4.675,0.3606 11.2,1.05522 14.5,1.5436 3.3,0.48837 11.85,1.60411 19,2.47942 7.15,0.87531 15.475,1.98461 18.5,2.46511 3.025,0.4805 7.70724,0.90649 10.40499,0.94664 4.69023,0.0698 4.83252,-0.007 3.25,-1.75574 -0.91025,-1.00581 -1.65499,-2.59978 -1.65499,-3.54215 0,-1.48471 0.59208,-1.36643 4.43575,0.8861 3.47156,2.03447 5.19192,2.45767 7.91453,1.9469 2.99301,-0.56149 3.71044,-0.29907 5.13778,1.87933 1.94716,2.97174 2.8132,3.1908 20.51193,5.18844 7.425,0.83805 21.375,2.42323 31,3.52263 9.625,1.0994 19.75,2.16195 22.5,2.36121 2.75,0.19927 16.6631,1.9877 30.918,3.97429 14.255,1.9866 29.1554,3.61199 33.1121,3.61199 l 7.194,0 0.654,-7.25 c 1.0043,-11.13414 5.4092,-62.45083 7.661,-89.25 1.1091,-13.2 3.5703,-40.74965 5.4693,-61.22145 1.8989,-20.4718 3.7294,-42.0718 4.0676,-48 l 0.615,-10.77855 -3.3455,-2.2255 c -1.84,-1.22403 -5.4437,-4.37403 -8.0081,-7 -27.0346,-27.68368 -26.8157,-27.49258 -39.0915,-34.12662 -6.4647,-3.49364 -11.998,-6.74684 -12.2962,-7.22932 -1.307,-2.1148 1.996,-4.9065 8.785,-7.42503 3.9959,-1.48237 7.9403,-3.09015 8.7653,-3.57284 0.825,-0.48269 3.6407,-1.8441 6.2571,-3.02535 3.8026,-1.71681 5.6764,-3.5306 9.339,-9.03982 2.52,-3.79065 5.8899,-9.47136 7.4887,-12.62381 1.5988,-3.15244 5.2846,-8.65671 8.1907,-12.23171 4.1804,-5.14268 6.7959,-7.25897 12.5251,-10.13459 11.0298,-5.53611 11.7661,-6.57055 13.0737,-18.36541 0.6097,-5.5 1.6051,-26.2 2.212,-46 0.6068,-19.8 1.428,-37.10195 1.8248,-38.44878 0.3968,-1.346829 0.6114,4.27817 0.477,12.5 l -0.2444,14.94878 1.5896,-12.5 c 0.8742,-6.875 1.7826,-11.92796 2.0185,-11.2288 0.236,0.69916 -0.2825,9.92416 -1.1522,20.5 -0.8696,10.57584 -2.0798,25.3038 -2.6892,32.7288 -0.8794,10.71448 -0.8426,29.4259 0.085,43 0.056,0.825 -0.3426,3.75 -0.8866,6.5 -0.5441,2.75 -1.016,13.88442 -1.0488,24.74315 l -0.06,19.74315 7.5353,17.25685 c 11.0855,25.38699 14.7249,32.37993 21.4718,41.25685 10.7068,14.08706 19.3207,22.80876 28.6341,28.99244 4.8723,3.23505 11.5588,8.2253 14.8588,11.08945 6.707,5.82113 27.3245,26.19918 35,34.5935 9.8298,10.75033 11.1965,12.39523 14.8104,17.82461 2.0135,3.025 6.8131,10.225 10.6657,16 7.6638,11.48774 13.5291,24.85088 12.5754,28.65074 -1.0139,4.03994 -4.8895,3.04762 -9.2517,-2.36885 -6.7712,-8.40766 -17.5355,-19.27821 -29.7998,-30.09387 -12.3008,-10.84792 -18.8263,-17.31966 -27.7048,-27.47665 -4.254,-4.8665 -15.3198,-15.22602 -29.387,-27.51125 -1.7004,-1.48507 -5.2065,-3.785 -7.7912,-5.11096 -2.7559,-1.41379 -8.1938,-6.13245 -13.1486,-11.4096 -10.9397,-11.65145 -28.2008,-24.28045 -30.3072,-22.17411 -0.8013,0.8013 -1.648,25.53759 -3.0805,89.99455 -0.6111,27.5 -1.3162,53.15 -1.5668,57 -0.2507,3.85 -0.5095,19.54832 -0.5751,34.88515 -0.093,21.62698 0.1667,28.06202 1.1557,28.67327 0.7014,0.43346 4.0045,1.09409 7.3404,1.46805 3.3358,0.37397 7.4151,0.85309 9.0651,1.06471 1.65,0.21162 12.225,1.52381 23.5,2.91597 51.105,6.31008 62.1934,7.60141 82,9.54945 5.775,0.568 15.675,1.93568 22,3.03931 22.2155,3.8763 30.5534,4.70381 32.5661,3.2321 0.9992,-0.73062 1.9218,-2.04454 2.0503,-2.91983 0.2908,-1.98195 0.2959,-1.98584 3.6336,-2.78656 2.6768,-0.64216 3.9952,0.79262 1.5,1.63243 -0.9525,0.32059 -0.8931,0.85505 0.25,2.24595 1.1431,1.3909 1.2025,1.92536 0.25,2.24595 -0.6875,0.2314 -1.25,0.75822 -1.25,1.17072 0,0.4125 0.5625,0.76715 1.25,0.78812 2.6878,0.082 20.3032,4.56544 21.1871,5.39255 0.5423,0.50747 -0.9321,0.68909 -3.5,0.43113 -2.4404,-0.24516 -7.3621,-0.70008 -10.9371,-1.01095 -3.575,-0.31087 -10.1,-0.99467 -14.5,-1.51956 -4.4,-0.52489 -10.7,-1.22033 -14,-1.54541 -5.9011,-0.58133 -11.1291,-1.28028 -25,-3.34234 -3.85,-0.57235 -12.175,-1.48938 -18.5,-2.03785 -6.325,-0.54847 -25.45,-2.59558 -42.5,-4.54913 -53.8394,-6.1688 -58.8249,-6.65851 -61.346,-6.02575 -1.3553,0.34018 -2.7421,0.16893 -3.0817,-0.38054 -0.3396,-0.54947 -3.5323,-1.13807 -7.0949,-1.30799 l -6.4774,-0.30895 -0.6541,14 c -0.629,13.46323 -2.1979,68.32647 -3.36,117.5 -1.9063,80.66654 -4.499,188.46845 -4.9424,205.5 -0.2863,11 -0.77,31.25 -1.0749,45 -0.3048,13.75 -1.186,45.475 -1.9582,70.5 -1.568,50.81689 -2.118,71.22069 -3.5041,129.99999 -1.6012,67.9029 -2.012,83.9124 -2.5405,99 -0.2793,7.975 -0.9527,37 -1.4963,64.5 -0.5437,27.5 -1.6427,75.65 -2.4422,107 -0.7995,31.35 -1.7224,70.275 -2.0509,86.5 -0.3285,16.225 -1.2637,37.825 -2.0782,48 -0.8146,10.175 -1.9159,25.456 -2.4475,33.9578 -1.062,16.9883 -2.7141,22.5235 -2.3287,7.8024 z m 16.7737,-664.01019 c 0.2967,-2.8875 0.7934,-17.625 1.1036,-32.75 0.3103,-15.125 0.9923,-42.35 1.5156,-60.5 0.5234,-18.15 1.6222,-58.2 2.4419,-89 0.8197,-30.8 1.7257,-63.65 2.0132,-73 1.2742,-41.43049 2.7864,-110.57586 2.4259,-110.92548 -0.2177,-0.21117 -2.1959,-0.6493 -4.3959,-0.97361 -2.2,-0.32432 -5.575,-0.82197 -7.5,-1.1059 -4.6345,-0.68357 -6.065,0.42762 -6.5794,5.11087 -0.7686,6.99776 -4.2678,47.67992 -9.9252,115.39412 -3.0558,36.575 -7.1111,84.5 -9.0117,106.5 -3.2527,37.65063 -7.7453,93.17402 -8.9814,111 -0.3051,4.4 -1.0544,13.56042 -1.6652,20.35649 -1.1762,13.08769 -0.9358,14.08984 3.3895,14.1282 1.567,0.0139 1.6698,-0.97809 1.1125,-10.73469 -0.9707,-16.9928 1.59,-25.25 7.8306,-25.25 5.3375,0 8.5524,8.75409 9.732,26.5 l 0.5983,9 3.5,0.61836 c 1.925,0.3401 5.3801,0.6776 7.678,0.75 l 4.1781,0.13164 0.5396,-5.25 z m 9.9657,-375.5 c 0.2729,-0.9625 0.7586,-11.875 1.0795,-24.25 0.6229,-24.02554 0.8219,-31.20995 3.0743,-111 2.1661,-76.73167 2.18,-75.01868 -0.6254,-77.29033 -2.3083,-1.86917 -2.3376,-1.86485 -3.0597,0.45156 -0.401,1.28632 -1.8842,16.25203 -3.2962,33.25712 -1.4119,17.0051 -3.6678,43.5551 -5.0132,59 -1.3453,15.44491 -3.5979,41.35665 -5.0057,57.58165 -1.4078,16.225 -2.9844,34.225 -3.5036,40 -0.5192,5.775 -0.9592,13.2795 -0.9777,16.67668 -0.039,7.12556 -0.1761,7.02809 10.1489,7.20732 5.5694,0.0967 6.7653,-0.17553 7.1788,-1.634 z m 146.0148,-98.5 c -0.9213,-1.7875 -4.4351,-7.525 -7.8083,-12.75 -3.3732,-5.225 -7.4255,-11.75 -9.005,-14.5 -1.7476,-3.04269 -12.3043,-14.40279 -26.9674,-29.01973 -21.7099,-21.64164 -25.0361,-24.55784 -33.5955,-29.45491 -7.1971,-4.11761 -11.8083,-7.76207 -19.0222,-15.03401 -14.241,-14.35569 -21.3609,-24.88255 -29.4897,-43.60102 -2.6012,-5.98968 -5.6784,-12.69033 -6.8384,-14.89033 l -2.109,-4 -0.6618,6 c -0.364,3.3 -0.7107,13.5038 -0.7704,22.67511 l -0.1085,16.6751 7.5094,4.55906 c 10.402,6.3152 16.1324,11.02302 25.6284,21.05488 4.4946,4.74818 10.2397,9.81961 12.7671,11.26985 2.5273,1.45023 6.2411,4.01586 8.2528,5.70139 2.0117,1.68554 6.668,5.53961 10.3472,8.56461 3.6793,3.025 10.3583,9.2983 14.8423,13.94067 15.5486,16.09765 26.2571,26.59915 35.1825,34.50242 4.9336,4.36871 11.8953,10.98608 15.4703,14.70528 3.575,3.7192 6.8491,6.78231 7.2757,6.80691 0.4266,0.0246 0.022,-1.41778 -0.8995,-3.20528 z m -138.5271,-158.25 c 0.066,-7.7 -0.2872,-14.64387 -0.7852,-15.43081 -1.2008,-1.89759 -1.6414,1.01446 -3.5452,23.43081 -2.0724,24.40238 -2.0299,26.02738 0.7313,27.96761 l 2.25,1.58102 0.6144,-11.77432 c 0.3379,-6.47587 0.6685,-18.07431 0.7347,-25.77431 z m -8.4008,29.25 c 2.0276,-12.22754 4.6282,-51.26681 3.9802,-59.75 -0.963,-12.60661 -0.8246,-20.40576 0.4883,-27.50773 1.5701,-8.49334 1.5703,-8.49237 -2.0011,-7.4681 -8.747,2.50862 -16.5356,10.3951 -23.1843,23.47583 -1.3978,2.75 -4.7216,7.925 -7.3864,11.5 -4.4018,5.9054 -5.7906,6.97298 -15.1821,11.67042 -5.6854,2.84373 -10.5765,5.40989 -10.8692,5.70259 -0.2927,0.29269 1.6118,1.791 4.2321,3.32958 11.2332,6.59558 16.4933,10.69289 24.9742,19.45327 11.8526,12.24316 22.826,22.81155 23.7047,22.82964 0.3876,0.008 0.9472,-1.448 1.2436,-3.2355 z m 7.1977,1243.79769 c -5.4262,-5.0288 -1.219,-16.4124 6.104,-16.5159 1.8749,-0.026 2.25,-0.585 2.25,-3.3503 0,-3.8392 -2.7376,-13.6988 -3.7887,-13.6453 -0.3912,0.02 -1.6113,1.9325 -2.7113,4.25 -2.4138,5.0857 -5.5218,5.9814 -9.0979,2.6219 -2.4012,-2.2559 -2.4021,-2.2559 -2.4021,-0.1414 0,3.2422 -1.7489,3.6072 -4.2667,0.8905 -2.8633,-3.0895 -8.7333,-20.3891 -8.7333,-25.7379 0,-7.3722 4.4941,-12.7651 9.575,-11.4898 3.3097,0.8307 5.425,5.4689 5.425,11.8958 0,5.2437 0.1015,5.445 3.041,6.0329 1.6726,0.3345 4.2601,1.9437 5.75,3.576 l 2.709,2.9678 -0.3465,-4.951 c -0.3095,-4.4213 -0.1295,-4.951 1.6819,-4.951 3.5115,0 6.0674,4.9913 6.6758,13.0369 0.3029,4.006 0.9758,9.1241 1.4953,11.3734 4.0284,17.4417 -4.317,32.5187 -13.3605,24.1374 z m 7.354,-9.8613 c 0,-0.5122 -0.675,-0.3711 -1.5,0.3136 -0.825,0.6847 -1.4857,1.9773 -1.4682,2.8724 0.027,1.3674 0.2666,1.3172 1.5,-0.3135 0.8075,-1.0677 1.4682,-2.3603 1.4682,-2.8725 z m -20,-46.5 c 0,-3.0357 -0.1849,-3.2778 -1.6042,-2.0999 -2.5251,2.0957 -3.6377,5.9172 -2.2199,7.6254 1.0613,1.2788 1.3873,1.2384 2.5215,-0.3127 0.7164,-0.9798 1.3026,-3.3256 1.3026,-5.2128 z m 19.165,-134.6663 c 0.1842,-1.5762 0.8975,-3.0506 1.585,-3.2763 1.8158,-0.5963 1.5479,3.2641 -0.335,4.8268 -1.392,1.1552 -1.5443,0.9663 -1.25,-1.5505 z m -102.0071,-31.5201 c 0,-1.375 0.227,-1.9375 0.5044,-1.25 0.2774,0.6875 0.2774,1.8125 0,2.5 -0.2774,0.6875 -0.5044,0.125 -0.5044,-1.25 z m 182.4424,-219.8378 c -0.3178,-0.5141 0.3171,-1.1689 1.4109,-1.4549 2.3564,-0.6162 2.4785,-0.3586 0.5778,1.2188 -0.8326,0.691 -1.6478,0.7878 -1.9887,0.2361 z m 119.3997,-495.87005 c -3.8508,-0.9139 -9,-13.52777 -9,-22.0472 0,-4.63375 0.4142,-5.813 2.9231,-8.32186 2.9033,-2.9033 7.3543,-3.90129 8.5769,-1.92308 0.3399,0.55 -0.297,1 -1.4153,1 -2.2283,0 -5.0847,4.50313 -5.0847,8.01608 0,3.35264 1.8785,5.98259 4.2852,5.99923 1.2181,0.008 2.8898,0.45153 3.7148,0.98469 1.1158,0.72105 0.5394,0.9733 -2.25,0.98469 -2.0625,0.008 -3.75,0.45197 -3.75,0.98567 0,0.53371 1.125,3.42987 2.5,6.43593 3.2964,7.20671 3.1977,8.76341 -0.5,7.88585 z m 17.2267,-0.51903 c -1.5005,-1.80796 -5.2267,-16.44489 -5.2267,-20.531 0,-2.90924 0.3056,-3.33661 2.1891,-3.06166 1.6913,0.24687 2.4687,1.41911 3.418,5.1542 1.8129,7.13251 2.7187,7.05215 1.8974,-0.16834 -0.7092,-6.23634 -0.6844,-6.32856 1.6168,-6 2.0255,0.2892 2.6326,1.46697 4.5539,8.83369 1.2193,4.675 2.2412,10.42833 2.2709,12.78518 0.049,3.92239 -0.1086,4.1982 -1.866,3.25768 -1.056,-0.56513 -2.4409,-2.60596 -3.0776,-4.53518 -1.5445,-4.68004 -2.5025,-4.43158 -2.5025,0.64906 0,4.30719 -1.4085,5.86333 -3.2733,3.61637 z M 918.37941,586.89431 c -0.72254,-1.1691 1.6277,-3.20178 2.54014,-2.19692 0.29093,0.32039 -0.0363,0.78436 -0.72727,1.03103 -0.69093,0.24668 -1.00187,0.86008 -0.69098,1.3631 0.31088,0.50302 0.34024,0.91459 0.0652,0.91459 -0.275,0 -0.80921,-0.50031 -1.18713,-1.1118 z m 280.30209,-13.60609 c -1.6271,-0.24595 -2.4966,-0.85556 -2.1108,-1.4799 0.3765,-0.60912 0.068,-0.86555 -0.7241,-0.60158 -1.5062,0.50207 -3.8981,-1.41801 -3.8981,-3.1292 0,-0.58929 -0.6,-1.07143 -1.3333,-1.07143 -2.3047,0 -1.4474,-2.80876 1,-3.27661 1.4413,-0.27554 2.3333,0.0335 2.3333,0.80829 0,0.68989 0.675,1.51336 1.5,1.82995 0.825,0.31658 1.5,0.13972 1.5,-0.39301 0,-0.53274 0.675,-0.96862 1.5,-0.96862 1.3693,0 1.9536,1.69229 1.6008,4.63622 -0.075,0.62492 0.5468,1.39829 1.3815,1.71861 1.5141,0.58102 2.1905,2.77958 0.7677,2.49534 -0.4125,-0.0824 -1.9951,-0.33804 -3.517,-0.56806 z m 2.267,-3.72309 c 0,-0.24254 0.45,-0.7191 1,-1.05902 0.55,-0.33992 1,-0.14148 1,0.44098 0,0.58246 -0.45,1.05902 -1,1.05902 -0.55,0 -1,-0.19844 -1,-0.44098 z m -32.4925,-2.40005 c -0.2981,-0.77686 -0.088,-1.95933 0.4666,-2.62773 0.5547,-0.66839 0.7107,-1.51313 0.3466,-1.87719 -0.874,-0.874 3.6521,-5.65405 5.3536,-5.65405 0.7291,0 1.3257,-0.47656 1.3257,-1.05902 0,-0.58246 0.4573,-0.77636 1.0163,-0.4309 0.559,0.34546 0.7579,1.04623 0.4421,1.55726 -0.3159,0.51104 0.114,1.91177 0.9552,3.11276 1.7539,2.50402 0.5677,4.8199 -2.4687,4.8199 -0.9955,0 -2.0652,0.80357 -2.3769,1.78571 -0.6735,2.12197 -4.2872,2.38851 -5.0605,0.37326 z m -6.3496,-6.15897 c 0,-1.375 0.227,-1.9375 0.5044,-1.25 0.2774,0.6875 0.2774,1.8125 0,2.5 -0.2774,0.6875 -0.5044,0.125 -0.5044,-1.25 z m 170.8421,-10.0346 c 0,-1.43302 2.1181,-2.24728 3.1532,-1.21218 0.6386,0.6386 0.2607,1.16679 -1.0871,1.51925 -1.1364,0.29716 -2.0661,0.15898 -2.0661,-0.30707 z m 16,-12.4654 c 0,-0.825 0.6609,-1.5 1.4686,-1.5 0.8946,0 1.2437,0.58629 0.893,1.5 -0.3166,0.825 -0.9774,1.5 -1.4686,1.5 -0.4911,0 -0.893,-0.675 -0.893,-1.5 z m -300,-8.5 c 0,-0.55 0.4234,-1 0.941,-1 0.5175,0 1.2191,0.45 1.559,1 0.3399,0.55 -0.083,1 -0.941,1 -0.8574,0 -1.559,-0.45 -1.559,-1 z M 855.94851,517.12414 c 0,-0.55 0.45,-1.27811 1,-1.61803 0.55,-0.33992 1,-0.16803 1,0.38197 0,0.55 -0.45,1.27811 -1,1.61803 -0.55,0.33992 -1,0.16803 -1,-0.38197 z m 159.90139,-20.17308 c -1.4292,-0.55588 -3.2152,-2.16274 -3.9688,-3.5708 -1.2253,-2.2895 -1.1264,-2.98348 0.9352,-6.56558 l 2.3053,-4.00549 -3.3366,0.70387 c -1.8351,0.38712 -4.4615,1.73006 -5.8365,2.98429 -6.6888,6.10136 -14.72679,7.12674 -18.29028,2.33325 -4.86586,-6.54539 -2.02349,-23.91814 5.00231,-30.57449 4.11151,-3.89531 9.54067,-4.41223 13.51417,-1.28671 3.7181,2.92464 7.0585,11.39182 6.2897,15.94265 l -0.626,3.70531 3.4318,-0.40064 c 2.6718,-0.31191 3.7703,0.0826 4.9603,1.78155 1.389,1.98313 1.3474,2.59136 -0.4558,6.66788 -2.9143,6.58825 -2.234,7.33996 6.6424,7.33996 4.2219,0 7.5314,0.42814 7.5314,0.97432 0,3.05548 -13.0758,5.92417 -18.0986,3.97063 z M 998.46239,486.4325 c 8.44911,-4.00936 11.61001,-15.63698 6.18521,-22.75255 -3.3292,-4.36686 -6.34675,-4.74225 -9.67155,-1.20316 -1.94637,2.07182 -2.11225,2.72232 -1.02754,4.02932 1.08171,1.30338 0.9447,1.92997 -0.83662,3.82609 -3.06111,3.2584 -3.54674,14.18704 -0.72225,16.25364 2.38206,1.74289 2.05958,1.75103 6.07275,-0.15334 z m -48.67388,0.73361 c -3.212,-3.212 -5.84,-6.60936 -5.84,-7.54969 0,-2.35002 1.32101,-1.36611 8.91458,6.63969 8.18641,8.63083 5.45475,9.43933 -3.07458,0.91 z M 71.615179,458.33944 c -1.574826,-1.57482 -0.399154,-3.1015 3.338301,-4.33497 5.093336,-1.68095 5.971488,-0.80781 2.460292,2.44626 -2.75937,2.55729 -4.547563,3.13974 -5.798593,1.88871 z M 52.03317,456.25456 c -1.878437,-0.96165 -3.799425,-2.82309 -4.268861,-4.13655 -0.674609,-1.88751 -0.585001,-2.16525 0.427486,-1.32496 0.704553,0.58473 3.868381,2.03121 7.030729,3.21439 5.628961,2.10607 6.774308,4.00021 2.416971,3.99712 -1.205041,-8.6e-4 -3.727887,-0.78836 -5.606325,-1.75 z m 873.11395,-2.50914 c -1.22796,-1.47961 -6.19861,-14.84668 -6.19861,-16.66931 0,-2.94885 2.0677,0.63982 4.93609,8.567 3.07066,8.4862 3.41498,10.69586 1.26252,8.10231 z M 38.064132,444.90793 c -1.313782,-3.76872 -1.503628,-13.25966 -0.249729,-12.4847 0.476239,0.29433 0.648365,1.67306 0.3825,3.06384 -0.265865,1.39078 0.03975,4.60626 0.679137,7.14551 1.357858,5.39254 0.80999,6.92793 -0.811908,2.27535 z m 45.665415,0.0297 c -0.601291,-1.69901 1.84806,-6.93152 3.244645,-6.93152 1.621414,0 1.094019,3.63061 -0.88185,6.07071 -1.430216,1.76624 -1.972431,1.96377 -2.362795,0.86078 z m 0.932193,-20.23642 c -0.921071,-2.4003 -1.980124,-10.6951 -1.365512,-10.6951 1.093826,0 3.66601,10.38627 2.789302,11.26298 -0.495271,0.49527 -1.109882,0.25012 -1.42379,-0.56791 z m 832.87583,-22.66294 c -2.64026,-9.4098 -3.24918,-17.03216 -1.36063,-17.03216 0.97433,0 1.71103,1.32747 2.08113,3.75 0.3151,2.0625 1.02854,6.35457 1.58542,9.53792 0.55688,3.18336 0.66129,6.73738 0.23202,7.89782 -0.63565,1.7183 -1.10667,0.94743 -2.53794,-4.15358 z M 64.715821,380.75611 c -2.410362,-3.9875 -5.144064,-9.17161 -6.074893,-11.52024 -3.362719,-8.48467 -1.51581,-15.66209 4.80161,-18.6599 9.152966,-4.34337 17.51356,5.38939 13.560669,15.78628 -0.846674,2.22692 -0.623754,2.59844 2.136519,3.56067 3.972791,1.38493 5.737295,3.77747 5.776983,7.83319 0.03121,3.1896 -2.788072,7.25 -5.033938,7.25 -1.971356,0 -4.934259,-2.05855 -4.934259,-3.42819 0,-0.74681 -0.675,-1.61685 -1.5,-1.93344 -0.825,-0.31658 -1.5,-1.75222 -1.5,-3.19032 0,-1.65268 -0.459913,-2.45772 -1.25,-2.18801 -1.372465,0.46851 -1.502271,5.37226 -0.277679,10.48996 1.293909,5.40738 -0.983782,3.8104 -5.705012,-4 z m 2.166019,-11.75 c 2.336496,0 9.066672,-7.38303 9.066672,-9.94618 0,-5.16607 -10.240674,-6.90406 -14.657197,-2.48753 -2.844996,2.84499 -2.774956,5.61341 0.306296,12.10667 1.362872,2.87204 1.829894,3.22251 2.558723,1.92017 0.490357,-0.87622 1.716835,-1.59313 2.725506,-1.59313 z m 852.16805,-18 c -0.0876,-4.96671 1.71119,-16.99491 3.02842,-20.25 1.3453,-3.32443 2.88331,-3.59566 2.83531,-0.5 -0.0663,4.27364 -2.73704,17.26126 -4.26703,20.75 l -1.53493,3.5 -0.0618,-3.5 z m 10.4351,-55.25 c 0.8391,-5.63305 6.12678,-21.77385 7.88194,-24.05984 2.89994,-3.777 2.55673,0.58326 -0.94677,12.02782 -4.44145,14.50852 -5.1493,16.28202 -6.49851,16.28202 -0.69115,0 -0.84569,-1.50409 -0.43666,-4.25 z m 16.9702,-54.88169 c 1.21199,-4.00579 6.6076,-16.12363 9.29187,-20.86831 3.39734,-6.0051 4.27137,-7.07482 5.27416,-6.45506 0.98904,0.61126 -12.68489,28.77802 -14.23542,29.32337 -0.66204,0.23286 -0.78363,-0.5027 -0.33061,-2 z m -69.50668,-6.80929 c 0,-0.58246 0.45,-1.05902 1,-1.05902 0.55,0 1,0.19844 1,0.44098 0,0.24254 -0.45,0.7191 -1,1.05902 -0.55,0.33992 -1,0.14148 -1,-0.44098 z m -546,-34.05902 c 0,-0.55 0.19844,-1 0.44098,-1 0.24254,0 0.7191,0.45 1.05902,1 0.33992,0.55 0.14148,1 -0.44098,1 -0.58246,0 -1.05902,-0.45 -1.05902,-1 z m 548,-0.94098 c 0,-1.06754 0.38499,-2.17893 0.85554,-2.46974 0.47055,-0.29082 0.64309,0.58263 0.38343,1.94098 -0.56402,2.95046 -1.23897,3.23851 -1.23897,0.52876 z m 89,0.47834 c 0,-3.09647 16.36647,-24.5887 20.35006,-26.72342 1.41772,-0.75973 -7.48701,11.73341 -20.03077,28.10273 -0.17561,0.22916 -0.31929,-0.39153 -0.31929,-1.37931 z m -89.72917,-6.14153 c 0.33229,-0.33229 1.1948,-0.36781 1.91667,-0.0789 0.79773,0.31922 0.56078,0.55618 -0.60417,0.60416 -1.05416,0.0434 -1.64479,-0.19293 -1.3125,-0.52522 z m 295.91236,-2.5889 c -1.5592,-5.10753 -2.3314,-13.49995 -1.6007,-17.39517 0.6051,-3.22524 0.9219,-3.49485 3.7787,-3.21606 2.6598,0.25957 3.8547,1.42821 8.1285,7.94953 6.5874,10.05176 8.6198,12.28528 9.6714,10.6284 1.1175,-1.76093 1.0483,-23.55663 -0.087,-27.51675 -0.9723,-3.39004 -0.2334,-4.63912 2.1934,-3.70787 2.5433,0.97596 3.9837,8.48321 3.8975,20.31407 -0.092,12.65349 -1.3124,16.13692 -5.6529,16.13692 -2.918,0 -8.5513,-4.71863 -11.7234,-9.81993 l -2.2887,-3.68007 -0.5,6.5 c -0.4389,5.70568 -0.7632,6.53751 -2.6537,6.80693 -1.6808,0.23954 -2.3752,-0.41904 -3.1631,-3 z m -166.1832,-36.43755 c 0,-1.4021 12.5566,-13.70406 17.2272,-16.87777 2.0167,-1.37039 4.7031,-2.48884 5.9697,-2.48545 2.1248,0.006 2.0744,0.12542 -0.6503,1.54625 -3.8552,2.01029 -10.7437,7.51617 -17.2966,13.82489 -2.8875,2.77991 -5.25,4.57634 -5.25,3.99208 z m 41.3891,-33.19002 c 1.0446,-1.69012 11.6293,-9.64041 15.4538,-11.60746 6.2453,-3.21214 4.1845,-0.92632 -4.5936,5.09517 -10.7446,7.3705 -11.7709,7.98589 -10.8602,6.51229 z m -253.38909,-7.67936 c 0,-0.825 0.867,-1.5 1.92668,-1.5 1.05967,0 2.07217,-0.72739 2.25,-1.61643 0.28068,-1.40323 0.65306,-1.34167 2.82332,0.46673 l 2.5,2.08316 -2.69098,0.0333 c -1.48004,0.0183 -2.9691,0.48327 -3.30902,1.03327 -0.95485,1.54499 -3.5,1.18139 -3.5,-0.5 z M 1096.1581,92.624283 c 1.4903,-1.349029 5.0903,-3.19185 8,-4.095157 2.9097,-0.903308 5.8529,-1.878022 6.5404,-2.16603 0.6875,-0.288008 1.25,-0.0986 1.25,0.420899 0,0.519503 -2.3625,1.865586 -5.25,2.991295 -2.8875,1.125709 -7.05,2.779126 -9.25,3.674258 l -4,1.627514 2.7096,-2.452779 z M 584.67403,88.3983 c -0.33429,-0.334296 -0.0718,-1.518091 0.58334,-2.630654 0.93323,-1.584846 0.91913,-2.121308 -0.0651,-2.477599 -1.36093,-0.492659 -0.72153,-2.283936 0.81526,-2.283936 0.51754,0 0.94098,1.8 0.94098,4 0,3.703644 -0.78791,4.878752 -2.27448,3.392189 z"
     id="path3007"
     style="fill:#000000" />
</svg>
