<?xml version="1.0" encoding="UTF-8" standalone="no"?>
<!-- Created with Inkscape (http://www.inkscape.org/) -->

<svg
   xmlns:dc="http://purl.org/dc/elements/1.1/"
   xmlns:cc="http://creativecommons.org/ns#"
   xmlns:rdf="http://www.w3.org/1999/02/22-rdf-syntax-ns#"
   xmlns:svg="http://www.w3.org/2000/svg"
   xmlns="http://www.w3.org/2000/svg"
   version="1.1"
   width="1559.7609"
   height="1660.0276"
   id="svg2997">
  <metadata
     id="metadata3003">
    <rdf:RDF>
      <cc:Work
         rdf:about="">
        <dc:format>image/svg+xml</dc:format>
        <dc:type
           rdf:resource="http://purl.org/dc/dcmitype/StillImage" />
        <dc:title></dc:title>
      </cc:Work>
    </rdf:RDF>
  </metadata>
  <defs
     id="defs3001" />
  <path
     d="m 833.63013,1659.2106 c -0.26835,-0.4342 1.6176,-1.873 4.19098,-3.1973 2.57339,-1.3244 5.80389,-3.1276 7.17889,-4.0072 2.73863,-1.7519 12.91812,-5.307 20,-6.9848 8.35238,-1.9788 36.77775,-11.0498 51.5,-16.4345 5.5,-2.0117 14.482,-4.7984 19.96,-6.1928 8.9923,-2.289 12.0575,-3.3867 22.04,-7.8927 1.65,-0.7448 9.075,-3.3807 16.5,-5.8575 32.4464,-10.8233 43.8506,-14.9692 53.8481,-19.5763 21.45,-9.8847 47.3587,-16.2859 59.1519,-14.6146 1.925,0.2728 6.875,0.7454 11,1.0502 4.125,0.3049 14.6481,1.4717 23.3846,2.5931 14.9861,1.9235 29.6623,2.1778 35.4594,0.6145 1.2893,-0.3476 6.9143,-0.8982 12.5,-1.2234 18.3982,-1.0713 44.584,-5.6145 52.3071,-9.0753 1.7332,-0.7766 3.6215,-1.412 4.1965,-1.412 3.8654,0 23.2936,-13.9928 31.0131,-22.3367 1.4435,-1.5602 6.0028,-5.2765 10.1319,-8.2583 4.1291,-2.9819 9.3074,-6.7892 11.5074,-8.4607 2.2,-1.6715 5.575,-4.2163 7.5,-5.6551 5.138,-3.8403 22.5645,-21.6765 29.6097,-30.3058 6.7009,-8.2076 16.7624,-23.2017 18.3225,-27.3052 1.932,-5.0815 7.0862,-35.3601 8.0473,-47.2736 1.4035,-17.3995 -1.4195,-55.743 -5.4779,-74.4046 -1.433,-6.589 -7.1663,-22.6659 -11.8973,-33.3613 -11.4897,-25.975 -14.3214,-61.4538 -6.5556,-82.1387 1.0324,-2.75 3.2761,-9.275 4.9859,-14.5 6.2269,-19.0286 15.5101,-34.0799 34.5248,-55.9768 6.0804,-7.002 12.3397,-15.5814 13.3792,-18.3383 3.068,-8.137 -0.1749,-18.8895 -7.1925,-23.8478 -1.7853,-1.2615 -4.2064,-3.2034 -5.38,-4.3153 -6.9738,-6.6072 -14.9842,-13.2876 -18.0127,-15.0218 -1.9209,-1.1 -4.2304,-3.2208 -5.1321,-4.7129 -1.5578,-2.5777 -1.5321,-2.8271 0.5145,-5 1.1848,-1.2579 3.6414,-3.0135 5.4592,-3.9014 11.1246,-5.4338 14.5304,-6.8857 16.1522,-6.8857 3.2349,0 17.357,-7.6412 24.2919,-13.1439 8.3862,-6.6543 19.996,-18.3862 22.0517,-22.2836 1.4114,-2.6759 1.3992,-3.0335 -0.1427,-4.161 -1.427,-1.0434 -1.5814,-2.303 -1.0024,-8.1785 0.6128,-6.219 0.2034,-8.8683 -3.9163,-25.3391 -2.5304,-10.11664 -5.4864,-23.5689 -6.5689,-29.8939 -1.0825,-6.325 -2.6344,-15.1 -3.4487,-19.5 -1.406,-7.59736 -1.9231,-10.14755 -5.1707,-25.5 -0.7562,-3.575 -1.6161,-9.875 -1.9108,-14 -0.2946,-4.125 -0.7519,-10.425 -1.0161,-14 -0.8304,-11.23651 1.9044,-30.11178 6.2545,-43.1679 4.7295,-14.1946 8.9164,-21.5519 16.4951,-28.98568 8.2628,-8.10482 15.6383,-10.55274 33.7362,-11.19709 7.626,-0.27151 16.3282,-1.20026 20,-2.13449 3.575,-0.90962 9.2,-2.32922 12.5,-3.15468 7.8729,-1.96931 20.0367,-6.86615 23.3596,-9.404 25.6145,-19.5628 34.1105,-28.09863 47.1178,-47.33848 4.6296,-6.84784 10.5193,-21.77405 12.0886,-30.63571 0.8383,-4.73378 1.3341,-15.93007 1.3498,-30.48197 0.021,-19.70949 -0.2749,-24.36275 -2.0698,-32.52533 -2.441,-11.1007 -10.9089,-28.88367 -15.94,-33.47467 -0.6027,-0.55 -2.1537,-2.575 -3.4467,-4.5 -7.2593,-10.80787 -16.222,-20.81509 -25.5255,-28.5 -9.4514,-7.80718 -42.3049,-41.70586 -46.2533,-47.72481 -0.9295,-1.41691 -4.7253,-5.76569 -8.4352,-9.66394 -3.7099,-3.89826 -6.7453,-7.48458 -6.7453,-7.96961 0,-1.449 -12.9129,-20.43217 -15.8144,-23.24852 -2.7753,-2.69397 -3.9015,-3.96742 -13.1856,-14.91041 -3.025,-3.56549 -5.8107,-6.62376 -6.1903,-6.79616 -0.3797,-0.17239 -4.6475,-6.69739 -9.484,-14.5 -4.8365,-7.8026 -9.7009,-15.13935 -10.8097,-16.30389 -1.1088,-1.16454 -8.766,-9.05291 -17.016,-17.5297 -8.25,-8.4768 -15.7348,-16.35513 -16.633,-17.50741 -1.8706,-2.3999 -12.2116,-23.58726 -13.3466,-27.34555 -0.4153,-1.375 -1.8813,-4.975 -3.2578,-8 -1.3765,-3.025 -3.992,-9.01126 -5.8123,-13.3028 -1.8203,-4.29153 -4.6912,-9.95593 -6.3799,-12.58754 -1.6887,-2.63162 -3.0704,-5.207 -3.0704,-5.72307 0,-1.32825 -8.7206,-15.18122 -11.173,-17.74866 -1.1232,-1.17586 -3.165,-3.93793 -4.5373,-6.13793 -1.3723,-2.2 -4.3587,-6.7 -6.6364,-10 -7.7625,-11.24624 -19.2886,-34.38388 -23.6623,-47.5 -10.1814,-30.53214 -11.2765,-38.24321 -6.8169,-48 3.4657,-7.58238 9.7828,-16.32972 15.3003,-21.18636 2.545,-2.24022 6.478,-6.82724 8.74,-10.19338 2.262,-3.36614 5.5349,-7.7214 7.2732,-9.67835 5.0055,-5.63529 11.3785,-18.07502 15.4904,-30.23656 5.0491,-14.93327 9.5238,-26.79717 11.8511,-31.42128 2.7265,-5.41713 7.905,-26.904656 9.588,-39.78407 C 1343.3615,55.966435 1346,22.065952 1346,6.7670664 1346,0.60932683 1346.1848,0 1348.0522,0 c 1.9466,0 2.0248,0.42440036 1.5216,8.25 -0.2919,4.5375 -0.7784,12.975 -1.0813,18.75 -0.7811,14.891315 -4.2992,49.611791 -6.0642,59.847584 -1.9765,11.462472 -5.9435,26.304936 -8.5617,32.033366 -2.3427,5.12573 -5.897,14.57655 -12.2847,32.66408 -4.7811,13.53853 -12.271,28.20472 -17.0851,33.45497 -1.7651,1.925 -4.8889,6.08165 -6.9417,9.23699 -2.0527,3.15535 -5.8974,7.68364 -8.5437,10.06288 -10.2476,9.21343 -17.7324,23.37656 -16.4554,31.13782 0.3676,2.23427 3.1288,11.93731 6.1361,21.56231 4.2867,13.72008 7.287,21.03357 13.8905,33.85948 4.6325,8.99772 9.6971,17.99772 11.2547,20 1.5576,2.00229 4.9315,6.79052 7.4977,10.64052 2.5661,3.85 6.7149,9.925 9.2196,13.5 5.8184,8.30495 17.0629,29.60869 22.4322,42.5 2.2908,5.5 5.4255,12.7 6.9661,16 9.3482,20.02487 8.8163,19.2684 25.6662,36.5 19.1471,19.58083 18.9535,19.34859 28.3484,34 4.0558,6.325 9.2098,13.55189 11.4533,16.05976 11.2958,12.62663 20.4093,24.03838 25.4676,31.88988 3.0864,4.79071 6.7864,10.47438 8.2223,12.63037 7.0406,10.5716 46.6154,52.20661 61.9705,65.19661 11.3149,9.57206 13.7747,12.49589 30.1725,35.86432 4.3021,6.1309 8.9735,15.19806 11.9043,23.10631 1.1726,3.16401 2.7204,6.60982 3.4395,7.65736 0.8537,1.24372 0.995,2.48826 0.4072,3.58666 -0.5709,1.06667 -0.3677,3.84546 0.5554,7.59539 3.558,14.45316 2.6332,55.14938 -1.5596,68.6346 -4.4185,14.2113 -16.5664,33.34959 -28.3998,44.74219 -22.969,22.11344 -34.0938,29.44554 -51.6007,34.00892 -4.675,1.21859 -11.65,3.07475 -15.5,4.12479 -4.4019,1.20058 -10.3404,1.92014 -16,1.93873 -26.2988,0.0864 -38.6224,6.40643 -47.3544,24.28548 -8.8846,18.19148 -11.8517,37.99137 -9.7674,65.17863 0.7109,9.27267 1.083,11.2509 7.0533,37.5 1.9391,8.525 4.2415,19.55 5.1165,24.5 1.8308,10.35637 10.9552,45.9196 12.6261,49.2113 1.7898,3.526 0.3694,15.2924 -2.5279,20.941 -6.1768,12.0424 -32.3638,31.9257 -48.2575,36.6411 -2.8112,0.834 -5.9612,1.9938 -7,2.5773 -1.0388,0.5835 -4.237,2.0256 -7.1072,3.2047 -6.8527,2.8151 -8.1196,4.3411 -5.7645,6.9434 0.9861,1.0896 2.2233,1.9812 2.7492,1.9812 0.8676,0 8.224,5.7433 13.2338,10.3319 1.1,1.0075 4.7271,4.0543 8.0603,6.7706 3.3331,2.7164 7.8081,7.2308 9.9444,10.0321 4.912,6.4411 5.8941,13.9577 2.7402,20.9728 -2.0117,4.4746 -3.4577,6.4206 -18.023,24.2559 -16.4445,20.1364 -22.6622,31.057 -30.3442,53.296 -8.3908,24.2909 -9.5819,35.9722 -5.8469,57.3407 2.5519,14.5994 4.5351,21.8471 8.2091,30 11.0062,24.4239 14.8344,41.2311 17.287,75.8961 2.0643,29.1751 1.3083,39.6902 -5.0675,70.4859 -2.4301,11.7378 -2.5478,12.0047 -9.7038,22 -19.8698,27.7535 -32.9793,42.6466 -45.8698,52.1105 -11.9152,8.7478 -22.2042,16.9818 -32.3096,25.8565 -11.2796,9.906 -20.457,15.683 -30.4727,19.1823 -24.237,8.4679 -79.7117,13.3129 -104.6035,9.1357 -7.7646,-1.303 -13.0977,-1.9616 -33.3901,-4.1237 -12.5933,-1.3418 -35.72,4.7435 -60.6099,15.9483 -7.7,3.4663 -16.9985,7.2221 -20.6634,8.3461 -3.6648,1.124 -10.4148,3.5947 -15,5.4903 -4.5851,1.8956 -11.6706,4.4376 -15.7455,5.649 -4.0749,1.2113 -11.4396,3.9761 -16.366,6.144 -4.9264,2.1679 -14.46,5.4922 -21.1858,7.3873 -6.7257,1.8952 -18.34075,5.6948 -25.81113,8.4437 -7.47039,2.7489 -16.65279,5.8549 -20.40535,6.9022 -3.75255,1.0473 -13.57282,3.7827 -21.82282,6.0787 -8.43042,2.3462 -18.4081,5.9029 -22.78156,8.1208 -7.29326,3.6987 -12.96763,4.9702 -14.08831,3.1569 z m 404.82437,-215.6651 c -4.3825,-4.3826 -2.0068,-14.8593 4.4524,-19.6348 1.7012,-1.2577 3.0931,-3.0927 3.0931,-4.0777 0,-2.1726 -4.6831,-16.3539 -6.5495,-19.833 l -1.3411,-2.5 -0.6869,3.2859 c -1.2228,5.8498 -7.0942,8.0319 -11.2339,4.1751 -1.7106,-1.5936 -2.1886,-1.7105 -2.1886,-0.5351 0,2.0962 -3.0856,3.4945 -5.6074,2.5409 -2.5356,-0.9588 -4.6819,-6.0936 -6.378,-15.2586 -2.0002,-10.8089 0.2037,-18.7932 5.5586,-20.1372 4.9098,-1.2323 7.2329,1.8204 8.8879,11.679 0.5575,3.3207 0.9596,3.75 3.5128,3.75 1.5858,0 3.5616,0.6784 4.3908,1.5075 1.3433,1.3434 1.5416,1.1528 1.8214,-1.75 0.2776,-2.881 0.6971,-3.2943 3.6292,-3.5757 5.9504,-0.5712 9.4825,4.8126 6.4857,9.8858 -1.6625,2.8144 -1.6189,3.189 1.4755,12.6663 6.5297,19.9987 6.456,19.5802 4.6671,26.4838 -1.9738,7.617 -3.8718,11.4059 -6.3882,12.7527 -2.9931,1.6018 -4.9388,1.2371 -7.6009,-1.4249 z m 7.5994,-9.1732 c 0.4941,-2.1298 0.8942,-4.7723 0.889,-5.8723 -0.01,-1.879 -0.1285,-1.8571 -1.9762,0.3608 -1.327,1.5929 -1.9667,3.8536 -1.9667,6.95 0,5.4256 1.6406,4.6528 3.0539,-1.4385 z m -25.647,-53.3021 c -0.8267,-5.7095 -1.5374,-6.9852 -2.5091,-4.5038 -1.1655,2.9762 -1.0266,8.0569 0.2999,10.9682 l 1.1977,2.6287 0.8366,-2.2615 c 0.4601,-1.2438 0.5388,-4.3181 0.1749,-6.8316 z m -24.9447,21.8687 c -0.3606,-0.5836 -0.3902,-16.2211 -0.066,-34.75 0.3245,-18.5289 0.8221,-52.1389 1.1058,-74.6889 0.2837,-22.55 0.7324,-51.125 0.9971,-63.5 0.2648,-12.375 0.7144,-41.85 0.9992,-65.5 0.5523,-45.8596 1.1995,-87.8667 2.0031,-130 0.2727,-14.3 0.7267,-43.55 1.0088,-65 0.2821,-21.45 0.7297,-50.7 0.9946,-65 0.2649,-14.3 0.7122,-46.475 0.994,-71.5 0.2818,-25.025 0.7283,-56.975 0.9922,-71 0.2639,-14.025 0.7161,-45.3 1.005,-69.5 0.6291,-52.70655 1.3409,-94.92947 2.118,-125.63317 0.315,-12.44824 0.1821,-22.87465 -0.2955,-23.16981 -0.4776,-0.29515 -9.4072,-0.81953 -19.8436,-1.16529 -10.4363,-0.34576 -21.9002,-0.80923 -25.4752,-1.02993 -11.4169,-0.70483 -28.2484,-0.68064 -36.6188,0.0526 -6.2563,0.54808 -9.1237,0.35228 -12.5,-0.85354 -3.2869,-1.17393 -10.3283,-1.71111 -28.1916,-2.15069 -13.0957,-0.32226 -27.0457,-0.79867 -31,-1.0587 -3.9543,-0.26003 -19.1146,-0.93143 -33.6896,-1.49201 -14.575,-0.56057 -31.9,-1.23064 -38.5,-1.48903 -6.6,-0.25839 -19.2,-0.73927 -28,-1.06862 -8.8,-0.32935 -24.775,-0.98477 -35.5,-1.45648 -10.725,-0.47172 -28.5,-1.11194 -39.5,-1.42272 -11,-0.31078 -23.26279,-0.7942 -27.25064,-1.07427 -3.98786,-0.28006 -21.53786,-0.95308 -39,-1.49559 -17.46215,-0.54252 -40.74936,-1.41583 -51.74936,-1.9407 -11,-0.52486 -27.65,-1.21012 -37,-1.52278 -9.35,-0.31266 -21.05,-0.7754 -26,-1.02831 -4.95,-0.25291 -15.3,-0.70522 -23,-1.00514 -7.7,-0.29992 -18.05,-0.76094 -23,-1.02449 -4.95,-0.26355 -22.95,-0.92472 -40,-1.46927 -17.05,-0.54455 -34.6,-1.21722 -39,-1.49483 -4.4,-0.2776 -13.85,-0.7337 -21,-1.01354 -44.41582,-1.73839 -52.5,-2.3153 -52.5,-3.74658 0,-0.91836 41.41436,-0.47082 70.5,0.76184 3.85,0.16316 14.2,0.57509 23,0.91539 8.8,0.3403 18.7,0.83218 22,1.09306 3.3,0.26088 21.975,0.93294 41.5,1.49346 19.525,0.56052 44.5,1.44986 55.5,1.9763 11,0.52645 27.875,1.20698 37.5,1.51229 9.625,0.30531 19.975,0.75912 23,1.00846 3.025,0.24935 12.925,0.6984 22,0.99789 9.075,0.2995 21.9,0.75701 28.5,1.0167 28.87891,1.13628 37.91177,1.47706 52.5,1.98063 8.525,0.29428 20.225,0.74357 26,0.99842 5.775,0.25486 18.6,0.70249 28.5,0.99475 18.1624,0.53616 25.38,0.79785 69,2.50177 60.9487,2.38082 60.438,2.37305 63.0793,0.95944 2.0864,-1.11661 3.5043,-1.12815 8.221,-0.067 8.2566,1.85764 20.1847,2.97778 32.1997,3.02379 l 10.5,0.0402 1.5911,-3.22729 c 1.2484,-2.53209 2.2177,-3.22729 4.5,-3.22729 2.4254,0 3.0696,0.54606 3.8756,3.28535 0.5997,2.03793 1.7388,3.44572 3,3.70773 2.5778,0.5355 81.6587,3.71489 82.0738,3.29972 0.1695,-0.16948 0.5878,-17.85469 0.9296,-39.30047 0.3418,-21.44578 0.8022,-43.04233 1.0232,-47.99233 0.2209,-4.95 0.7175,-31.12708 1.1034,-58.17129 l 0.7016,-49.17129 -4.3436,-1.16962 c -5.292,-1.42499 -18.3323,-7.78012 -24.1708,-11.77956 -2.3561,-1.614 -6.0839,-3.86547 -8.2839,-5.00326 -2.2,-1.13779 -11.2,-6.77295 -20,-12.52256 -25.5813,-16.71391 -26.6259,-17.36026 -34.4408,-21.30942 -4.0924,-2.06806 -10.1674,-4.50415 -13.5,-5.41355 -4.464,-1.21814 -6.1339,-2.15444 -6.3428,-3.55645 -0.7592,-5.09409 15.6323,-24.1406 22.9603,-26.67944 7.8581,-2.72248 27.2075,-6.88783 34.3233,-7.38882 8.9406,-0.62945 16.7998,-2.78078 22.5,-6.15899 2.475,-1.4668 5.85,-3.25516 7.5,-3.97413 1.65,-0.71898 4.35,-2.57628 6,-4.12735 3.9172,-3.68228 12.3355,-9.34926 16.3722,-11.02134 l 3.1947,-1.3233 -0.5165,-42.61481 c -0.3076,-25.37994 -0.1607,-41.1993 0.3631,-39.11482 0.4837,1.925 1.1243,7.93572 1.4235,13.35715 0.2992,5.42143 0.7957,10.10893 1.1035,10.41667 0.3077,0.30773 0.5595,-3.31393 0.5595,-8.04814 0,-7.91789 0.964,-11.09504 2.8071,-9.25192 0.3707,0.37072 0.5462,13.35328 0.3899,28.85014 -0.1968,19.52408 0.032,27.7155 0.7442,26.6761 0.5655,-0.825 1.0351,-2.26094 1.0435,-3.19098 0.024,-2.62694 2.0279,-3.23598 3.5408,-1.07601 5.5409,7.91062 9.7981,12.43683 10.4925,11.1555 0.4139,-0.76368 1.076,-8.02601 1.4713,-16.13851 0.6727,-13.80763 1.5737,-17.79245 2.8264,-12.5 0.293,1.2375 0.1775,8.1 -0.2565,15.25 -1.1896,19.59774 -3.7574,22.77405 -10.724,13.26552 l -3.8352,-5.23448 -0.5,8.90506 c -0.329,5.85908 -0.9276,9.04625 -1.75,9.31782 -0.9041,0.29854 -1.2827,-1.33972 -1.3683,-5.92059 -0.065,-3.48333 -0.4232,-7.68333 -0.7958,-9.33333 -0.6023,-2.66737 -0.7545,-2.39017 -1.3729,2.5 -1.0595,8.37728 -0.8588,13.7653 0.537,14.41667 1,0.46666 1,0.7 0,1.16666 -2.1069,0.98321 -1.4324,10.08389 1.6952,22.87316 4.8471,19.82036 7.9519,33.6582 9.0969,40.54351 2.8912,17.38652 5.4314,22.30282 23.5938,45.66289 10.7982,13.88849 51.8761,52.09399 58.8987,54.78015 1.356,0.51867 2.4654,1.27543 2.4654,1.68167 0,0.93063 7.5901,8.05815 15.7598,14.79927 7.9288,6.54239 17.523,19.0622 17.0642,22.26762 -0.2556,1.78526 -0.8834,2.24666 -2.7703,2.03598 -2.5064,-0.27985 -6.18,-2.94772 -19.5641,-14.20781 -4.2364,-3.56413 -10.3068,-8.28913 -13.4898,-10.5 -3.183,-2.21087 -10.3065,-7.28227 -15.8299,-11.26977 -5.5235,-3.9875 -10.3101,-7.25 -10.6369,-7.25 -1.3238,0 -14.4759,-8.5092 -21.033,-13.60801 -3.85,-2.99375 -11.275,-7.49604 -16.5,-10.0051 -5.225,-2.50906 -10.85,-5.28118 -12.5,-6.16026 -15.1216,-8.05649 -16.8723,-8.24642 -16.018,-1.73783 0.2174,1.65616 0.6702,20.5612 1.0062,42.0112 0.8554,54.61039 3.2105,140.53207 3.8701,141.19161 0.4877,0.48776 11.2718,1.24956 25.1417,1.77604 8.25,0.31316 19.5,0.78711 25,1.05322 5.5,0.26612 22.825,0.95412 38.5,1.5289 41.9304,1.53754 61.6147,2.5941 62.8783,3.375 0.6169,0.38129 1.1217,1.1832 1.1217,1.78202 0,1.02264 -35.1188,0.57033 -55.5,-0.71482 -15.1172,-0.95323 -76.4437,-2.99197 -90,-2.99197 l -7,0 0.1531,11.5 c 0.3536,26.56035 1.4619,78.88876 2.3722,112 0.5368,19.525 1.6429,64.525 2.4581,100 0.8151,35.475 1.7082,71.475 1.9845,80 0.8379,25.85156 1.4963,50.26409 2.0363,75.5 0.2824,13.2 0.7372,32.1 1.0106,42 0.5494,19.89634 1.1332,46.64418 2.0079,91.99998 0.3183,16.5 0.755,33.15 0.9706,37 0.2155,3.85 0.7107,21.2895 1.1004,38.7543 0.6674,29.9162 0.6026,31.8713 -1.119,33.7737 -3.86,4.2652 -4.2385,0.6813 -4.9673,-47.028 -0.7157,-46.8493 -2.3096,-124.04001 -2.9735,-143.99998 -0.2836,-8.525 -0.7565,-29.675 -1.051,-47 -0.2944,-17.325 -0.7928,-34.0875 -1.1073,-37.25 -0.5174,-5.20103 -0.7956,-5.75 -2.9148,-5.75 -1.2885,0 -2.6209,-0.45 -2.9608,-1 -0.3622,-0.5861 0.6901,-1 2.5425,-1 l 3.1606,0 -0.6132,-31.25 c -0.3373,-17.1875 -0.826,-36.2 -1.0861,-42.25 -0.2601,-6.05 -0.7158,-25.4 -1.0128,-43 -0.2969,-17.6 -0.7421,-36.725 -0.9892,-42.5 -0.2472,-5.775 -0.713,-24.9 -1.0352,-42.5 -0.3222,-17.6 -0.7543,-35.6 -0.9602,-40 -0.2058,-4.4 -0.6528,-27.35 -0.9932,-51 -0.3405,-23.65 -0.8288,-44.0125 -1.0851,-45.25 -0.325,-1.56846 -1.1833,-2.25 -2.8336,-2.25 -3.7399,0 -3.364,-9.87401 -5.1775,136 -0.3248,26.125 -0.7301,50.2 -0.9007,53.5 -0.1707,3.3 -0.6381,38.26476 -1.0387,77.69947 l -0.7284,71.69948 2.8754,0.63799 c 4.8174,1.0689 5.0254,1.30191 1.2354,1.38411 l -3.64,0.0789 -0.5975,20.25 c -0.3286,11.1375 -0.8326,38.7 -1.1199,61.25 -0.2873,22.55 -0.7388,54.05003 -1.0032,70.00003 -0.8036,48.4715 -1.4586,98.3933 -2.0007,152.5 -0.2838,28.325 -0.7466,60.95 -1.0284,72.5 -0.2818,11.55 -0.7361,46.425 -1.0095,77.5 -0.497,56.4746 -0.7806,62.8564 -2.855,64.2347 -1.5927,1.0582 -3.3859,0.9302 -4.1436,-0.2958 z m 23.0224,-906.12842 c -0.3305,-23.20423 -0.7748,-42.47095 -0.9873,-42.81493 -0.2126,-0.34397 -0.4844,-8.47119 -0.6041,-18.06048 -0.413,-33.10847 -1.5248,-22.29232 -2.2079,21.47901 -0.3769,24.15274 -0.6853,52.39024 -0.6853,62.75 l 0,18.83592 2.5427,0 2.5427,0 -0.6008,-42.18952 z m 122.3275,-75.45251 c -1.8216,-2.55312 -6.436,-7.39062 -10.254,-10.75 -3.8181,-3.35938 -9.2181,-8.17382 -12,-10.69876 -2.782,-2.52493 -9.3581,-7.98776 -14.6137,-12.13961 -5.2557,-4.15186 -17.4057,-14.98152 -27,-24.0659 -15.7118,-14.87659 -20.9018,-20.75601 -34.5516,-39.14111 -8.5937,-11.575 -11.8421,-19.34853 -14.8609,-35.56259 -0.8704,-4.675 -2.4904,-12.325 -3.6001,-17 -1.1096,-4.675 -2.8282,-12.08728 -3.8191,-16.47173 l -1.8017,-7.97173 -0.6287,8.47173 c -0.3458,4.65945 -0.4553,11.62173 -0.2433,15.47173 0.212,3.85 0.6958,21.175 1.0752,38.5 0.3794,17.325 1.0773,32.22698 1.551,33.11551 0.4737,0.88853 3.2403,2.79244 6.148,4.23091 2.9077,1.43848 6.8618,3.47863 8.7868,4.53369 1.925,1.05505 7.882,4.0382 13.2377,6.62921 5.3557,2.59102 13.7414,7.74234 18.6348,11.44739 4.8934,3.70505 10.9788,8.04299 13.5231,9.63987 12.8187,8.04534 21.352,13.783 23.6044,15.8712 1.375,1.27476 5.1733,4.00972 8.4406,6.07766 3.2674,2.06795 9.5674,6.95371 14,10.85723 13.5366,11.92074 15.5904,13.59733 16.6563,13.59733 0.5651,0 -0.4631,-2.08891 -2.2848,-4.64203 z M 1212.0042,337.75 c 0,-0.6875 0.3004,-24.0875 0.6625,-52 l 0.6583,-50.75 -2.1625,0 c -1.64,0 -2.1625,-0.60405 -2.1625,-2.5 0,-1.375 -0.4262,-2.5 -0.947,-2.5 -0.5209,0 -4.0084,2.32224 -7.75,5.16053 -9.6197,7.29718 -22.5392,14.53088 -29.1576,16.3254 -3.105,0.84189 -9.4704,1.91716 -14.1454,2.38947 -9.3858,0.94824 -30.3812,5.41065 -35.3348,7.51012 -3.2047,1.35826 -12.8148,10.82522 -16.0965,15.85676 -2.3817,3.65158 -1.5227,5.36438 3.1015,6.18409 4.3861,0.77752 19.9202,8.4294 25.7768,12.69732 2.1709,1.58197 4.2675,2.87631 4.6592,2.87631 0.3917,0 7.4285,4.45282 15.6373,9.89515 8.2088,5.44233 16.7218,10.81177 18.9178,11.93208 2.196,1.12032 6.6581,3.80392 9.9157,5.96356 7.1992,4.77268 13.287,7.92879 19.923,10.32877 5.9351,2.14648 8.4985,2.33651 8.5042,0.63044 z m 172.6612,264 c -3.2235,-4.3 -5.6654,-13.14331 -5.6654,-20.51754 0,-5.10592 0.3777,-6.33743 2.6364,-8.5961 4.2085,-4.20854 11.4969,-2.79869 11.2959,2.18507 -0.051,1.26051 -0.3379,1.11819 -1.1528,-0.57143 -1.543,-3.19939 -6.2096,-3.04946 -8.3841,0.26937 -1.8923,2.88794 -1.4217,8.2654 1.054,12.04376 1.4905,2.27476 1.6758,2.30398 5.6714,0.89423 6.5175,-2.29949 7.8641,-1.614 2.3792,1.21114 -2.75,1.41645 -5.1391,2.69713 -5.3092,2.84595 -0.17,0.14882 0.4227,2.78803 1.3172,5.86492 2.3508,8.08668 0.5115,10.17875 -3.8426,4.37063 z M 130.573,599.53906 c -2.47411,-1.9495 -1.42106,-3.0633 1.44567,-1.52907 1.42425,0.76224 4.68845,0.96423 9.33565,0.57771 4.89244,-0.40691 6.4576,-0.29603 4.96357,0.35165 -4.32561,1.87521 -13.67424,2.23129 -15.74489,0.59971 z M 1408.3883,596.5 c -0.6114,-1.1 -1.394,-3.18373 -1.739,-4.63051 -0.3479,-1.45849 -1.5234,-2.86481 -2.6384,-3.15638 -2.4706,-0.64608 -2.6696,-2.7138 -0.2609,-2.71129 1.464,0.002 1.75,-0.93804 1.75,-5.75 0,-6.27959 1.8338,-8.90662 2.2699,-3.25182 0.4662,6.04354 1.1996,7.99998 2.9992,8.00052 1.4703,4.5e-4 1.7309,-1.0157 1.7309,-6.75 0,-3.71278 0.45,-6.91507 1,-7.11619 0.8626,-0.31543 3.1928,12.30729 3.3903,18.36567 0.061,1.87858 -0.042,1.86044 -1.7036,-0.29878 -2.8327,-3.68123 -5.0322,-1.99224 -5.3875,4.13689 -0.255,4.3992 -0.4635,4.86638 -1.4109,3.16189 z M 107.29088,591.25 C 104.25546,588.61396 100,581.96624 100,579.86045 c 0,-2.88169 1.77292,-2.20163 3.62253,1.38955 0.92064,1.7875 2.66581,4.6 3.87815,6.25 3.13845,4.27144 3.7441,5.5 2.71135,5.5 -0.49831,0 -1.81282,-0.7875 -2.92115,-1.75 z m 59.79245,-4.55109 c 0.22917,-0.1656 3.22917,-2.9341 6.66667,-6.15222 3.4375,-3.21812 6.25,-5.3813 6.25,-4.80706 0,2.0714 -9.18812,11.26037 -11.25934,11.26037 -1.14069,0 -1.88649,-0.13549 -1.65733,-0.30109 z M 1265,570.95616 c 0,-0.57411 -0.5625,-0.97079 -1.25,-0.88151 -2.7863,0.36181 -3.75,-0.17134 -3.75,-2.07465 0,-1.1 -0.3937,-2 -0.875,-2 -0.4812,0 -0.875,-1.19153 -0.875,-2.64784 l 0,-2.64785 1.4806,2.44019 c 0.8144,1.3421 2.7831,3.1877 4.375,4.10133 2.7543,1.58074 4.0188,4.75417 1.8944,4.75417 -0.55,0 -1,-0.46973 -1,-1.04384 z M 186.27966,566 c 0.33113,-1.375 1.45668,-5.40499 2.50121,-8.95554 1.7323,-5.88842 1.96111,-6.20861 2.60458,-3.64485 0.82905,3.30319 -1.69744,11.78759 -4.10145,13.77343 -1.41703,1.17054 -1.53542,1.03226 -1.00434,-1.17304 z m 65.79929,0.58333 c -0.0434,-1.05416 0.19293,-1.64479 0.52522,-1.3125 0.33229,0.33229 0.36781,1.1948 0.0789,1.91667 -0.31922,0.79773 -0.55618,0.56078 -0.60416,-0.60417 z M 1238,567 c 0,-0.55 0.4658,-1 1.0352,-1 0.7123,0 0.7134,-0.60115 0,-1.92756 -1.151,-2.15063 -0.3504,-5.38303 1.1098,-4.48061 0.5165,0.31919 1.526,0.0932 2.2434,-0.50221 0.9703,-0.80524 1.7526,-0.58727 3.0542,0.8509 2.1015,2.32219 1.2933,4.05948 -1.8886,4.05948 -1.4833,0 -2.5136,0.72365 -2.8473,2 -0.5308,2.02942 -2.7103,2.8336 -2.7103,1 z M 95.39187,554.5788 C 93.77802,550.3732 97.85726,534 100.51889,534 c 0.97214,0 0.9399,0.89189 -0.1462,4.0443 -0.76635,2.22437 -1.81156,6.99721 -2.32267,10.60631 -1.01133,7.14131 -1.64788,8.56093 -2.65815,5.92819 z M 184.6498,532.24238 C 183.58651,530.52195 182.83773,524 183.7035,524 c 0.94216,0 4.2965,6.27221 4.2965,8.03393 0,1.13973 -2.67189,1.30598 -3.3502,0.20845 z M 107,515.1885 c 0,-1.57975 6.80931,-5.92196 10.5,-6.69571 2.31402,-0.48513 1.97103,-0.14187 -1.5,1.5012 -2.475,1.17158 -5.5125,3.08066 -6.75,4.24239 -1.2375,1.16174 -2.25,1.59019 -2.25,0.95212 z m 362,-1.29077 c -7.425,-0.34861 -23.4,-0.93033 -35.5,-1.29271 -12.1,-0.36239 -26.05,-0.86298 -31,-1.11243 -10.24239,-0.51615 -28.34067,-1.24953 -49.5,-2.00585 -15.54434,-0.55562 -82.7506,-3.11474 -105,-3.99826 -7.425,-0.29484 -16.65,-0.7458 -20.5,-1.00212 -3.85,-0.25633 -16.675,-0.72937 -28.5,-1.05121 -11.825,-0.32185 -22.29761,-0.80995 -23.27247,-1.08468 -0.97486,-0.27473 -3.10121,-0.20767 -4.72522,0.14902 l -2.95275,0.64853 2.16836,2.93286 c 1.48876,2.01365 1.84528,3.25592 1.13755,3.96365 -0.70773,0.70773 -2.413,-0.39544 -5.44095,-3.51985 l -4.41015,-4.55066 -11.96535,0.45853 c -7.07928,0.27129 -12.44836,0.0577 -13.1482,-0.52316 -0.65057,-0.53993 -11.69215,-1.41384 -24.53684,-1.94203 C 99.00929,499.43916 79.5,498.56776 68.5,498.0309 57.5,497.49403 38.15,496.76138 25.5,496.40278 4.050931,495.79474 0,495.22588 0,492.82193 c 0,-1.11137 19.950011,-0.92538 24.420086,0.22767 3.853243,0.99393 17.404994,1.68155 58.079914,2.94699 17.6,0.54756 34.475,1.2218 37.5,1.49832 3.025,0.27651 10.09913,0.5488 15.72029,0.60507 8.13586,0.0814 10.54683,-0.22425 11.82142,-1.49884 2.27166,-2.27165 6.16594,-2.01592 7.50873,0.4931 0.72504,1.35476 1.78096,1.92161 2.99041,1.60533 1.02829,-0.2689 5.19878,-0.11557 9.26776,0.34075 4.06898,0.45632 16.57662,1.09404 27.79477,1.41717 11.21814,0.32312 30.29662,1.00911 42.39662,1.52441 12.1,0.51531 29.65,1.19415 39,1.50855 9.35,0.3144 24.2,0.9951 33,1.51268 27.84116,1.6375 40.42729,2.15594 62,2.55387 11.55,0.21306 28.425,0.79432 37.5,1.2917 9.075,0.49738 18.3,0.91434 20.5,0.92657 2.2,0.0122 8.5,0.31974 14,0.68334 5.5,0.36361 16.69508,0.86903 24.87796,1.12317 8.18288,0.25413 15.54669,0.8363 16.36401,1.2937 2.58304,1.44554 -1.32337,1.69921 -15.74197,1.02225 z M 490.5,514 c -2.21661,-0.56403 -2.47774,-0.82604 -1,-1.00335 5.24182,-0.62896 7.85945,-0.38979 8.24503,0.75335 0.46767,1.38646 -2.39113,1.48511 -7.24503,0.25 z m 622.8059,-2.49833 c -1.1766,-0.82407 -2.9292,-3.63657 -3.8947,-6.25 -0.9656,-2.61342 -2.2245,-5.36397 -2.7977,-6.11233 -0.5731,-0.74837 -1.0288,-3.67337 -1.0127,-6.5 0.052,-9.15168 6.4968,-17.63186 13.3992,-17.63186 3.1401,0 8.4073,3.15836 10.4394,6.25974 5.5977,8.54318 0.2618,26.45272 -9.0391,30.33889 -4.159,1.73775 -4.4709,1.73316 -7.0944,-0.10444 z m 10.7361,-6.28219 c 2.817,-3.58123 5.2782,-12.69929 4.5195,-16.74352 -0.9386,-5.00293 -5.7578,-8.65702 -10.916,-8.27676 -3.3634,0.24795 -4.4813,0.89777 -6.3629,3.69868 -2.845,4.23512 -3.0853,9.10212 -0.4493,9.10212 2.7231,0 3.2211,0.97876 1.7117,3.36462 -1.3984,2.21049 -0.6963,5.80579 1.3849,7.09207 0.5886,0.36374 1.0701,1.50179 1.0701,2.529 0,3.69078 5.9315,3.18814 9.042,-0.76621 z M 1026.9834,508.25 C 1023.3422,504.7837 1012,487.15437 1012,484.96112 1012,484.4325 1012.3888,484 1012.864,484 c 0.9099,0 3.6416,3.88022 9.1519,13 1.8278,3.025 5.0737,7.6375 7.2132,10.25 4.6425,5.66897 3.291,6.2708 -2.2457,1 z m 111.3644,0.21391 c -0.3242,-0.84485 -0.3865,-3.98426 -0.1383,-6.97646 0.4384,-5.28621 0.3851,-5.42381 -1.8792,-4.85551 -1.2817,0.32168 -2.3303,0.14678 -2.3303,-0.38867 0,-1.64322 4.0624,-6.24327 5.5136,-6.24327 2.1828,0 2.7092,1.73272 2.6065,8.57956 -0.1121,7.47075 0.3992,7.73752 6.9341,3.61761 2.4452,-1.54156 5.0083,-3.14312 5.6958,-3.55902 2.3118,-1.39851 1.2763,1.26235 -1.8984,4.87814 -5.1976,5.91965 -13.0968,8.61428 -14.5038,4.94762 z M 151.11843,484.47616 c -1.14351,-1.93811 -2.76296,-3.78626 -3.59877,-4.10699 C 146.68385,480.04844 146,479.02417 146,478.09301 146,477.16186 145.58958,475.9725 145.08796,475.45 142.86526,473.13479 138,461.96827 138,459.18206 c 0,-3.82777 3.45227,-7.92325 7.67879,-9.10945 2.47224,-0.69385 4.0872,-0.44271 7.26575,1.12991 8.22093,4.0674 10.75181,10.68181 6.97826,18.2376 -1.25252,2.50794 -2.5393,4.55988 -2.85951,4.55988 -0.32021,0 -1.14849,0.90678 -1.84063,2.01507 -1.03063,1.6503 -0.98366,2.54643 0.25945,4.95034 3.57831,6.91969 -0.44332,10.15525 -4.36368,3.51075 z m 5.32559,-15.6744 c 1.72187,-3.15607 1.80135,-4.03942 0.69553,-7.73032 -2.1526,-7.18473 -11.85219,-10.99099 -14.30275,-5.61261 -1.47252,3.23185 1.75748,11.51546 5.15395,13.21771 1.29114,0.64709 2.75794,1.90992 3.25957,2.80627 1.28808,2.30167 2.94068,1.44857 5.1937,-2.68105 z m 7.80598,17.15776 c -2.56194,-1.01916 -3.06058,-4.71124 -0.75574,-5.59569 2.1726,-0.83371 0.6915,-2.55756 -1.57842,-1.83712 -2.33817,0.74211 -2.63427,-1.68557 -0.42883,-3.51593 3.05063,-2.5318 11.51299,2.2013 11.51299,6.43936 0,3.79322 -4.59608,6.16184 -8.75,4.50938 z m 836.7435,-29.97159 C 997.2351,448.96521 994.3443,434.85871 997,436.5 c 0.55,0.33992 1,1.44049 1,2.44572 0,1.00523 1.0895,5.58918 2.4211,10.18657 2.4714,8.53265 2.6565,10.74977 0.5724,6.85564 z M 987.9968,400.75 c 0,-1.7875 -0.7186,-7.3 -1.593,-12.25 -1.665,-9.42588 -1.3333,-17.85759 0.8667,-22.03435 1.0156,-1.92812 1.2697,1.13375 1.4603,17.60007 0.127,10.96386 0.014,19.93428 -0.25,19.93428 -0.2644,0 -0.4822,-1.4625 -0.484,-3.25 z M 988.7637,342 c -1.1728,-3.9818 -0.8872,-10.48545 0.8254,-18.79216 0.874,-4.23931 1.774,-7.89534 2,-8.12451 1.4635,-1.48398 1.4778,2.24893 0.045,11.63929 -0.9046,5.92756 -1.7547,12.35238 -1.8892,14.27738 -0.2248,3.21709 -0.3041,3.29792 -0.9809,1 z m 11.2918,-52.68983 c 0.4267,-2.6456 1.9077,-8.69088 3.2911,-13.43398 1.3835,-4.74309 2.8225,-10.26056 3.1978,-12.26104 0.8469,-4.51473 2.4556,-5.73484 2.4556,-1.8625 0,4.82406 -6.9846,29.35984 -8.9835,31.55752 -0.4052,0.44559 -0.3877,-1.35441 0.039,-4 z M 1023.5712,234.5 c 3.0518,-5.55095 10.6851,-16.77008 13.7778,-20.25 2.0821,-2.34283 3.651,-2.91262 3.651,-1.32598 0,1.39307 -11.7044,17.51773 -16.2183,22.34324 l -3.9594,4.23274 2.7489,-5 z M 399.66667,204.33333 C 399.3,203.96667 399,203.20167 399,202.63333 c 0,-0.6266 0.46577,-0.56756 1.18333,0.15 0.65084,0.65084 0.95084,1.41584 0.66667,1.7 -0.28417,0.28417 -0.81667,0.21667 -1.18333,-0.15 z M 1060,190.76245 c 0,-1.79502 3.7537,-5.75461 15.2492,-16.08563 9.7027,-8.71988 13.4301,-9.63012 5.4116,-1.32153 -8.3782,8.68123 -20.6608,19.02962 -20.6608,17.40716 z m 38.3313,-38.57605 c 0.9027,-0.99748 5.9225,-3.7552 11.155,-6.12827 5.2325,-2.37308 9.5137,-4.9054 9.5137,-5.62739 0,-1.83708 1.2855,-2.43034 3.8265,-1.76587 2.1203,0.55447 3.1277,3.33513 1.2082,3.33513 -0.5309,0 -3.0991,1.35323 -5.7071,3.00718 -4.1113,2.60733 -18.9874,8.99282 -20.9503,8.99282 -0.378,0 0.051,-0.81612 0.954,-1.8136 z M 868.2117,111.56528 c -1.09323,-2.39937 -1.04579,-2.44681 1.35358,-1.35358 2.43059,1.10745 2.82061,2.82634 0.79453,3.5017 -0.55835,0.18611 -1.525,-0.78054 -2.14811,-2.14812 z"
     id="path3286"
     style="fill:#000000" />
</svg>
