<?xml version="1.0" encoding="UTF-8" standalone="no"?>
<!-- Created with Inkscape (http://www.inkscape.org/) -->

<svg
   xmlns:dc="http://purl.org/dc/elements/1.1/"
   xmlns:cc="http://creativecommons.org/ns#"
   xmlns:rdf="http://www.w3.org/1999/02/22-rdf-syntax-ns#"
   xmlns:svg="http://www.w3.org/2000/svg"
   xmlns="http://www.w3.org/2000/svg"
   version="1.1"
   width="1543.1985"
   height="1707.9537"
   id="svg3007">
  <metadata
     id="metadata3013">
    <rdf:RDF>
      <cc:Work
         rdf:about="">
        <dc:format>image/svg+xml</dc:format>
        <dc:type
           rdf:resource="http://purl.org/dc/dcmitype/StillImage" />
        <dc:title></dc:title>
      </cc:Work>
    </rdf:RDF>
  </metadata>
  <defs
     id="defs3011" />
  <path
     d="m 575.54342,1705.8541 c 3.28161,-2.7562 9.51522,-5.5079 14.5,-6.4006 8.72149,-1.562 21.9427,-6.4275 41.26553,-15.186 5.08106,-2.3031 12.84869,-5.2897 29.73447,-11.4327 11.91966,-4.3364 29.39619,-7.1409 50,-8.0236 9.9,-0.4242 19.125,-1.0869 20.5,-1.4726 1.375,-0.3858 9.475,-0.8012 18,-0.9231 14.19488,-0.2029 16.37402,-0.4879 25.88004,-3.3846 6.74511,-2.0554 12.49448,-3.163 16.41809,-3.163 7.62212,0 16.83235,-1.5475 27.70187,-4.6544 7.31468,-2.0908 10.57248,-2.426 23.3618,-2.4034 8.47821,0.015 19.21647,-0.6358 25,-1.5151 6.40158,-0.9732 12.53389,-1.3003 16.6382,-0.8875 3.575,0.3596 10.55,0.6194 15.5,0.5773 8.51251,-0.072 12.90333,-0.4904 32.05356,-3.0525 4.42945,-0.5926 14.10445,-1.0726 21.5,-1.0667 7.39554,0.01 16.37144,-0.01 19.94644,-0.029 15.7438,-0.096 32.88378,0.8983 34.99678,2.0292 3.0573,1.6362 9.2102,0.5507 14.5213,-2.5618 2.8651,-1.679 6.844,-2.8047 12.1234,-3.4296 4.3222,-0.5117 9.4305,-1.3976 11.3519,-1.9686 1.9214,-0.5711 4.6214,-1.049 6,-1.062 1.3786,-0.013 5.2066,-1.1794 8.5066,-2.5918 3.3,-1.4124 8.2205,-3.0121 10.9344,-3.555 2.7139,-0.5429 6.8149,-2.281 9.1134,-3.8624 2.2985,-1.5814 8.403,-4.8516 13.5656,-7.2671 5.1626,-2.4155 10.7905,-5.5768 12.5063,-7.0252 1.7159,-1.4483 6.7784,-4.2822 11.25,-6.2974 4.4717,-2.0153 8.1303,-4.0496 8.1303,-4.5207 0,-0.4712 0.6269,-0.8567 1.393,-0.8567 0.7662,0 1.6448,-0.6562 1.9526,-1.4583 0.3078,-0.8021 3.1685,-3.1305 6.357,-5.1743 11.4106,-7.3137 13.5338,-8.8142 17.1182,-12.0974 1.9985,-1.8305 6.2756,-4.2916 9.5047,-5.4689 5.1927,-1.8934 13.6745,-8.1815 13.6745,-10.1379 0,-0.3963 2.3144,-3.7028 5.1432,-7.3477 2.8287,-3.6449 5.9596,-8.8608 6.9574,-11.5908 0.9979,-2.73 3.6058,-7.9474 5.7954,-11.5942 4.9297,-8.2106 12.6034,-26.848 14.6014,-35.463 0.8225,-3.5465 3.0287,-10.4351 4.9027,-15.3079 3.0504,-7.9315 3.4093,-9.9072 3.4255,-18.8596 0.013,-7.2803 0.5808,-11.7924 2.0872,-16.5905 6.3408,-20.1973 4.2839,-44.0275 -6.768,-78.4095 -1.5912,-4.95 -4.1108,-14.2532 -5.5991,-20.6738 -1.6554,-7.1412 -3.2574,-11.8853 -4.1259,-12.2186 -1.5917,-0.6108 -1.961,-3.6076 -0.4446,-3.6076 0.6235,0 0.6088,-0.9639 -0.041,-2.6724 -0.5588,-1.4699 -0.7606,-3.3382 -0.4484,-4.1518 0.3122,-0.8136 -0.096,-3.7735 -0.9065,-6.5775 -2.5587,-8.8492 -4.577,-20.0136 -4.0862,-22.6031 1.628,-8.589 1.8304,-8.9546 11.0052,-19.8782 3.6555,-4.3523 4.6199,-5.1089 7.3214,-5.7443 1.4741,-0.3467 3.8051,-1.6104 5.1801,-2.8083 5.3609,-4.6703 10.2766,-7.802 13.7534,-8.762 1.9971,-0.5514 4.7822,-2.2227 6.1889,-3.7139 2.7739,-2.9405 4.9136,-4.0107 9.5577,-4.7804 1.65,-0.2735 4.8,-1.3011 7,-2.2835 2.2,-0.9825 5.125,-2.1236 6.5,-2.5359 10.7195,-3.2139 20.2456,-10.6899 29.5991,-23.229 l 5.4009,-7.2404 0,-8.4604 c 0,-10.412 -1.407,-17.2832 -5.1043,-24.9269 -3.6348,-7.5147 -6.6462,-11.4233 -15.7595,-20.4548 -8.3325,-8.2578 -10.0922,-9.1772 -17.5648,-9.1772 -2.9141,0 -7.6744,-0.4506 -10.5785,-1.0013 -2.904,-0.5508 -7.8029,-1.2485 -10.8865,-1.5505 -10.9684,-1.0744 -42.8017,-4.4872 -55.1064,-5.908 -6.875,-0.7938 -18.125,-1.9439 -25,-2.5557 -6.875,-0.6119 -13.85,-1.2823 -15.5,-1.4899 -13.7534,-1.7302 -23.3508,-2.7615 -74.5,-8.006 -13.475,-1.3816 -27.65,-2.9315 -31.5,-3.4442 -3.85,-0.5127 -10.15,-1.203 -14,-1.5339 -6.238,-0.5362 -24.14118,-2.4219 -52.49998,-5.5297 -5.225,-0.5726 -11.525,-1.2618 -14,-1.5315 -2.475,-0.2697 -8.14435,-0.7633 -12.59855,-1.0968 l -8.09854,-0.6065 -0.6328,3.877 c -0.34804,2.1323 -1.13893,9.727 -1.75754,16.877 -1.13168,13.0801 -1.75916,15.3309 -3.90444,14.005 -0.7604,-0.4699 -0.96637,-2.3359 -0.59198,-5.3628 0.31579,-2.5532 0.8183,-8.6922 1.1167,-13.6422 0.29839,-4.95 0.77409,-10.1818 1.05712,-11.6263 0.91046,-4.6466 -1.06341,-5.3829 -19.2304,-7.1729 -9.27276,-0.9137 -18.43457,-1.8804 -20.35957,-2.1483 -1.925,-0.2678 -8.225,-0.9365 -14,-1.4858 -5.775,-0.5494 -19.05,-1.9277 -29.5,-3.063 -10.45,-1.1353 -26.2,-2.7443 -35,-3.5756 -8.8,-0.8312 -25.45,-2.5737 -37,-3.8721 -11.55,-1.2984 -21.675,-2.3861 -22.5,-2.4172 -0.825,-0.031 -8.925,-0.9743 -18,-2.0959 -16.57745,-2.0489 -20.01563,-2.4294 -32,-3.5422 -3.575,-0.3319 -10.55,-1.0419 -15.5,-1.5778 -4.95,-0.5358 -19.8,-2.1112 -33,-3.5008 -13.2,-1.3896 -32.325,-3.4169 -42.5,-4.5052 -36.72588,-3.9281 -43.05631,-4.3628 -45.08423,-3.0964 -2.92403,1.8261 -6.03465,1.4409 -6.62602,-0.8205 -0.28766,-1.1 -1.03303,-1.9963 -1.65638,-1.9917 -1.47457,0.011 -33.46039,-3.4605 -60.13337,-6.5261 -26.94199,-3.0966 -39.08684,-3.9723 -39.73287,-2.865 -0.2833,0.4855 -0.81796,4.9328 -1.18813,9.8828 -0.91895,12.2884 -2.41146,26.6658 -2.80948,27.0638 -0.18009,0.1801 -0.95473,-0.06 -1.72141,-0.5341 -1.17465,-0.7259 -1.20762,-2.802 -0.20959,-13.1956 0.6514,-6.7838 1.17922,-15.0965 1.17293,-18.4728 -0.0114,-6.1357 -0.0131,-6.139 -3.26145,-6.7255 -7.18503,-1.2973 -27.00617,-3.612 -39.65639,-4.6311 -7.37352,-0.594 -13.67352,-1.237 -14,-1.429 -0.32649,-0.192 -3.74361,-0.6461 -7.59361,-1.0092 -3.85,-0.3631 -12.85,-1.3002 -20,-2.0823 -7.15,-0.7821 -26.275,-2.8149 -42.5,-4.5174 -59.6931,-6.2633 -88.90892,-9.4072 -97.5,-10.4921 -16.49805,-2.0834 -76.75268,-8.4715 -79.92126,-8.4732 -1.60669,-8e-4 -3.69943,0.7027 -4.65052,1.5635 -1.57719,1.4273 -1.89259,1.3896 -3.5865,-0.4286 -2.03835,-2.1879 -7.44055,-3.2428 -26.34172,-5.1439 -6.325,-0.6362 -13.975,-1.5435 -16.999999,-2.0162 -3.025,-0.4728 -7.97118,-0.9983 -10.99151,-1.1679 l -5.4915,-0.3084 -0.68437,4.5 c -0.37641,2.475 -0.71773,7.0875 -0.7585,10.25 -0.0433,3.3624 -0.51734,5.75 -1.14151,5.75 -0.58706,0 -0.84398,-0.7875 -0.57093,-1.75 0.27305,-0.9625 0.64087,-5.5599 0.81738,-10.2165 l 0.32094,-8.4666 -4.3881,-0.7549 c -6.162952,-1.0602 -6.550222,-2.026 -0.65666,-1.6375 l 4.93965,0.3255 0.69856,-4 c 0.38421,-2.2 1.2298,-12.1 1.87909,-22.00002 0.64929,-9.9 1.33224,-19.8 1.51767,-22 0.18543,-2.2 0.63095,-9.625 0.99003,-16.5 0.35909,-6.875 1.08228,-17.9 1.60709,-24.5 0.84155,-10.58324 3.28046,-44.08422 4.44087,-61 0.22638,-3.3 0.63936,-8.475 0.91774,-11.5 0.27838,-3.025 0.7705,-10 1.0936,-15.5 0.3231,-5.5 1.00888,-12.44515 1.52396,-15.43366 0.51507,-2.98851 0.94339,-7.48851 0.95181,-10 0.008,-2.51149 0.45153,-5.24134 0.98469,-6.06634 0.74118,-1.1469 0.97298,-0.77227 0.98469,1.59147 0.0161,3.25682 -2.63093,43.35861 -3.42641,51.90853 -0.25586,2.75 -0.73281,9.5 -1.0599,15 -0.32708,5.5 -1.02629,14.95 -1.5538,21 -0.5275,6.05 -1.64285,19.55 -2.47854,30 -3.68702,46.1047 -4.5694,56.93818 -5.86434,72.00002 -0.75658,8.8 -1.04457,16.3594 -0.63999,16.7987 0.40459,0.4392 5.19122,1.241 10.63695,1.7818 5.44574,0.5407 12.376339,1.403 15.401339,1.9162 8.08074,1.3709 31.06049,3.2761 31.70772,2.6289 0.30631,-0.3063 0.51142,-3.1599 0.4558,-6.3413 -0.0925,-5.2913 0.024,-5.6189 1.36767,-3.8432 0.80785,1.0677 1.46881,2.6002 1.46881,3.4056 0,0.8055 1.10685,2.9157 2.45967,4.6893 2.71501,3.5596 3.35524,3.721 21.54033,5.4304 20.86123,1.961 60.74738,6.1113 72,7.4918 6.325,0.776 16.9,1.9108 23.5,2.5219 6.6,0.611 20.775,2.019 31.5,3.1288 10.725,1.1098 30.075,3.0915 43,4.4036 12.925,1.3122 30.025,3.0843 38,3.9379 7.975,0.8537 16.975,1.7912 20,2.0833 3.025,0.292 8.875,0.9609 13,1.4863 10.67574,1.3597 24.27584,2.7963 33,3.4859 4.125,0.326 8.40374,0.7769 9.50831,1.0018 3.85113,0.7844 4.38698,-0.6945 5.45038,-15.0432 1.09078,-14.718 2.13973,-28.0168 2.59205,-32.8624 0.14878,-1.5938 0.57643,-8.1151 0.95034,-14.4918 0.3739,-6.37672 0.92023,-11.983 1.21406,-12.45843 0.29383,-0.47543 0.49455,-2.8416 0.44605,-5.25815 -0.0485,-2.41656 0.31506,-4.39374 0.80792,-4.39374 1.1538,0 2.33857,3.69314 1.57903,4.92211 -0.31953,0.51701 -0.77845,5.13353 -1.01983,10.25895 -0.24137,5.12546 -0.89326,16.51896 -1.44864,25.31896 -0.55537,8.8 -1.31376,22.1746 -1.6853,29.7213 l -0.67553,13.7213 2.40731,0.9153 c 1.32401,0.5034 7.34978,1.4374 13.39058,2.0756 6.0408,0.6382 13.00827,1.3778 15.48327,1.6436 2.475,0.2658 13.275,1.3613 24,2.4346 26.6711,2.6689 56.76644,5.8707 61,6.4896 1.925,0.2815 7.775,0.9453 13,1.4751 12.93901,1.3122 35.72232,3.842 40,4.4414 1.925,0.2698 8.675,0.9847 15,1.5887 6.325,0.604 17.125,1.7934 24,2.643 6.875,0.8496 14.975,1.7216 18,1.9376 3.025,0.2161 9.1,0.8446 13.5,1.3966 4.4,0.552 10.475,1.2362 13.5,1.5204 3.025,0.2841 7.525,0.7964 10,1.1383 18.4431,2.5479 24.92019,2.7398 27.06172,0.8017 1.88309,-1.7041 2.05192,-1.686 4.34393,0.4673 2.01677,1.8946 4.52231,2.4777 16.23952,3.7791 7.62016,0.8464 14.97983,1.5269 16.35483,1.5122 1.375,-0.015 4.525,0.3517 7,0.8143 2.475,0.4627 8.325,1.1214 13,1.4638 4.675,0.3424 12.55,1.0444 17.5,1.5599 4.95,0.5156 11.475,1.1717 14.5,1.4581 10.40338,0.9849 54.5202,5.4656 69.49879,7.0585 8.24933,0.8774 16.91011,1.3086 19.24618,0.9582 5.02359,-0.7533 4.90567,-0.4136 5.73406,-16.5155 0.3254,-6.325 1.02302,-16.45 1.55027,-22.5 1.38239,-15.8625 6.75331,-89.06727 6.71322,-91.50002 -0.0136,-0.825 0.46725,-6.225 1.06856,-12 0.60131,-5.775 1.35675,-14.325 1.67876,-19 0.32201,-4.675 2.15768,-30.51335 4.07926,-57.41856 1.92159,-26.9052 3.14214,-49.25401 2.71234,-49.66401 -0.42979,-0.41 -5.05644,-1.25935 -10.28144,-1.88744 -24.55667,-2.95194 -76.04009,-8.66431 -100,-11.09556 -5.775,-0.586 -12.975,-1.48047 -16,-1.98771 -3.025,-0.50725 -10.225,-1.36174 -16,-1.89888 -13.65198,-1.26979 -53.91602,-5.55132 -70.5,-7.4967 -7.15,-0.83874 -23.8,-2.66943 -37,-4.06822 -13.2,-1.39878 -30.075,-3.23511 -37.5,-4.08074 -7.425,-0.84562 -18,-1.96115 -23.5,-2.47897 -5.5,-0.51782 -11.125,-1.15417 -12.5,-1.41412 -1.375,-0.25994 -7.45,-0.94183 -13.5,-1.51529 -6.05,-0.57346 -12.575,-1.24682 -14.5,-1.49636 -17.06399,-2.21194 -45.1415,-5.38811 -62.25,-7.0418 l -7.7498,-0.74871 -0.13164,3.39673 -0.13164,3.39674 -0.61836,-3.5 -0.61836,-3.5 -14.5,-1.70677 c -7.975,-0.93872 -19.05318,-2.01566 -24.61817,-2.3932 l -10.11816,-0.68644 -0.61423,6.39321 c -0.33782,3.51626 -0.85114,9.3182 -1.14071,12.8932 -0.28957,3.575 -1.18817,14.6 -1.9969,24.5 -0.80873,9.9 -2.17466,27.675 -3.0354,39.5 -0.86074,11.825 -2.03134,25.775 -2.60134,31 -0.91779,8.41322 -1.23762,20.9708 -0.55157,21.65685 0.13784,0.13784 3.15894,0.69301 6.71355,1.2337 l 6.46293,0.98307 -7,-0.18681 -7,-0.18681 -0.69926,8 c -0.94203,10.7776 -1.9562,28.33185 -1.84185,31.88086 0.11627,3.60871 -0.80529,6.61914 -2.02628,6.61914 -1.19895,0 -1.19573,-11.49826 0.007,-23.28941 1.04347,-10.23399 1.40036,-15.29948 3.57277,-50.71059 1.31865,-21.49446 5.3113,-79.32727 7.0843,-102.61473 l 0.61782,-8.11474 -2.85701,-0.75316 c -1.57136,-0.41425 -5.78201,-0.89596 -9.35701,-1.07048 -3.575,-0.17451 -7.175,-0.53616 -8,-0.80365 -0.825,-0.2675 -4.425,-0.7744 -8,-1.12646 -3.575,-0.35205 -7.85,-0.83996 -9.5,-1.08424 -4.10686,-0.60801 -34.95479,-4.03868 -58,-6.45032 -10.45,-1.09357 -20.35,-2.19488 -22,-2.44736 -1.65,-0.25247 -5.925,-0.7149 -9.5,-1.02763 -3.575,-0.31272 -8.3,-0.77619 -10.5,-1.02992 -2.2,-0.25373 -15.25,-1.61162 -29,-3.01753 -13.75,-1.4059 -36.475,-3.8674 -50.5,-5.46999 -41.65732,-4.76004 -77.42482,-8.88628 -95,-10.95946 -9.075,-1.0705 -19.2,-2.22923 -22.5,-2.57497 -3.3,-0.34574 -6.97387,-0.77783 -8.16415,-0.9602 -8.2851,-1.26934 -20.33633,-1.63922 -20.33633,-0.62414 0,0.62094 -1.07252,1.12898 -2.38337,1.12898 -2.59081,0 -3.47793,1.898 -3.73916,8 -0.101,2.35941 -0.29106,2.76676 -0.5832,1.25 -0.72731,-3.77611 -2.13671,-2.51617 -2.79655,2.5 -1.28094,9.73786 -1.43393,9.16526 -1.80149,-6.74238 l -0.19623,-8.49238 -13.499999,-1.72133 c -11.34923,-1.44709 -26.432503,-3.18654 -63.75,-7.35183 -2.8875,-0.3223 -5.25,-1.071 -5.25,-1.66378 0,-1.18039 13.638775,-0.51951 24.428038,1.18369 3.339579,0.52718 13.046962,1.67008 21.571962,2.53978 8.525,0.86969 16.85,1.76218 18.5,1.98331 14.33345,1.92093 13.41178,1.97362 16.45358,-0.94061 6.822659,-6.53652 5.625349,-35.13714 -1.60893,-38.4333 -2.51141,-1.14427 -2.53615,-1.24208 -0.79946,-3.1611 0.98568,-1.08917 3.17874,-2.33692 4.873479,-2.77279 2.60323,-0.66954 3.1261,-1.32663 3.36987,-4.23489 0.15869,-1.89331 0.55851,-4.11739 0.88847,-4.94239 0.32996,-0.825 0.51498,-2.85 0.41115,-4.5 -0.10383,-1.65 0.46578,-3.89069 1.2658,-4.97932 1.28825,-1.753 1.39484,-0.24237 0.93214,13.2111 -0.28735,8.35473 -0.23895,16.31993 0.10754,17.70045 0.84631,3.37199 3.94493,4.99212 6.71372,3.51031 1.40426,-0.75154 2.44084,-0.79434 3.1069,-0.12828 1.50022,1.50022 -3.26907,4.21925 -7.84401,4.47196 -3.76508,0.20797 -3.89056,0.33606 -4.61777,4.71378 -0.99616,5.99672 -0.89039,16.26209 0.17856,17.33104 0.47477,0.47477 2.62776,-0.74452 4.83372,-2.73748 4.97095,-4.49096 7.72957,-4.75782 3.5514,-0.34356 -1.69189,1.7875 -3.59828,4.26675 -4.23641,5.50945 -1.01703,1.98058 -0.87161,2.36919 1.17823,3.14853 1.28616,0.489 5.24177,1.18735 8.79024,1.5519 3.54848,0.36455 7.12678,0.85461 7.95178,1.08901 0.825,0.23441 4.81493,0.64521 8.86651,0.9129 4.05157,0.26769 7.93204,0.95606 8.62325,1.52971 0.69121,0.57365 1.9241,0.78692 2.73977,0.47392 0.81566,-0.313 8.1852,0.14779 16.37675,1.02397 48.26728,5.16279 76.91327,8.48036 103.39372,11.97434 1.375,0.18142 5.425,0.62758 9,0.99146 9.52029,0.96902 13.74229,1.47419 21,2.51272 3.575,0.51156 10.1,1.21803 14.5,1.56994 8.79307,0.70325 10.91376,0.93904 20.5,2.27923 3.575,0.4998 11.19836,0.99693 16.94079,1.10473 5.74244,0.10779 10.70195,0.35739 11.02113,0.55466 1.03127,0.63736 21.4598,3.28144 30.53808,3.95257 3.85,0.28462 7.9,0.70227 9,0.92811 1.9178,0.39375 6.05902,0.79645 22.5,2.18793 4.125,0.34912 9.3,1.01292 11.5,1.47511 2.2,0.46218 8.10023,1.12911 13.11162,1.48205 l 9.11162,0.64171 0.83638,-5.32197 0.83637,-5.32198 0.55201,5.46417 c 0.51878,5.1353 0.73707,5.5017 3.62706,6.08792 1.69128,0.34306 5.29128,0.58419 8,0.53583 l 4.92494,-0.0879 0.87241,-11.06639 0.87242,-11.06639 -2.62242,-2.82963 c -2.88053,-3.10815 -2.98216,-3.4217 -1.74283,-5.37698 0.71789,-1.13262 -3.83906,-12.85696 -11.91698,-30.66061 -4.23585,-9.33579 -12.28134,-33.62701 -15.07004,-45.5 -2.85769,-12.16676 -3.67525,-25.84917 -2.15361,-36.04223 0.69443,-4.65177 1.42744,-9.58277 1.62892,-10.95777 0.80767,-5.51202 4.8945,-20.74877 6.617,-24.66987 4.68353,-10.6616 18.22715,-25.82253 24.12088,-27.00128 3.1063,-0.62126 3.11757,-0.64615 4.8638,-10.74166 1.42461,-8.23613 2.03045,-8.13898 2.03045,0.3256 l 0,7.24612 3.25,-0.68481 c 1.7875,-0.37664 3.55606,-0.9749 3.93014,-1.32945 0.7221,-0.68442 1.61873,-11.36087 4.79912,-57.14465 1.08887,-15.675 2.25438,-32.2125 2.59002,-36.75 0.33564,-4.5375 0.3623,-8.25 0.0592,-8.25 -0.87038,0 -3.57382,9.86925 -4.65673,17 -1.40409,9.24563 -1.88109,11 -2.99083,11 -0.53952,0 -1.00595,-1.2375 -1.03651,-2.75 l -0.0556,-2.75 -2.19445,2.91211 c -15.57324,20.66626 -42.80015,49.18043 -50.3889,52.77122 -9.37381,4.43544 -7.60955,1.49719 9.41698,-15.68333 20.7011,-20.88832 32.85427,-35.69287 37.72304,-45.95282 4.00061,-8.4305 8.75045,-25.56373 10.5478,-38.04718 0.63351,-4.4 1.86834,-10.7 2.74407,-14 0.91474,-3.44698 1.68735,-10.89329 1.81576,-17.5 0.12293,-6.325 0.98136,-15.0572 1.90761,-19.40488 1.44384,-6.77713 2.36824,-31.09941 1.22542,-32.24224 -0.16986,-0.16985 -2.30625,1.46849 -4.74753,3.64076 -2.44128,2.17228 -5.32569,3.96237 -6.4098,3.97798 -1.49697,0.0216 -0.47463,-1.48152 4.25,-6.24853 3.42169,-3.45229 6.22119,-6.54981 6.22119,-6.88336 0,-2.32329 -10.59536,-1.21237 -53,5.55703 -15.675,2.50232 -31.425,4.9755 -35,5.49594 -3.575,0.52044 -21.575,3.26886 -40,6.1076 -18.425,2.83874 -37.775,5.80553 -43,6.59287 -5.225,0.78734 -10.69475,1.91285 -12.155,2.50115 -2.59106,1.04386 -12.48907,11.45633 -18.39421,19.35027 -5.83823,7.80449 -15.73783,15.8955 -26.37372,21.55541 -5.05644,2.69079 -7.05463,4.42413 -8.64261,7.49705 -1.7082,3.30557 -3.61118,4.81369 -11,8.71752 -4.91395,2.59625 -11.40946,5.21172 -14.43446,5.81214 -3.025,0.60042 -8.56698,1.80805 -12.31552,2.68361 -6.18686,1.4451 -7.40506,1.44879 -13.20715,0.04 -8.33654,-2.02412 -15.13199,-6.52419 -19.47733,-12.89826 -3.13345,-4.59638 -3.49896,-5.8262 -3.49005,-11.74308 0.008,-5.56165 0.60587,-7.86043 3.77024,-14.50545 2.06817,-4.34303 3.61791,-8.03881 3.44388,-8.21284 -0.71055,-0.71055 -56.11048,8.11201 -57.90589,9.22163 -1.67092,1.03269 -7.84344,15.01073 -9.79808,22.18832 -2.03248,7.46347 -2.65375,12.08554 -3.58615,26.67998 -0.35069,5.48936 -0.76857,10.66436 -0.92861,11.5 -0.16004,0.83563 -0.61769,5.01332 -1.017,9.28376 -0.39931,4.27044 -1.14844,8.0255 -1.66472,8.34458 -0.57184,0.35342 -0.70192,-2.09486 -0.33285,-6.26443 0.33322,-3.76452 0.78878,-9.54458 1.01235,-12.84458 0.59931,-8.84592 1.62943,-21.60471 1.99828,-24.75 0.45729,-3.89949 -1.10109,-3.40618 -3.15905,1 -2.86974,6.14426 -8.05614,14.09881 -14.22215,21.81299 -0.46731,0.58464 -1.41676,2.15964 -2.10989,3.5 -0.69313,1.34035 -2.10083,3.36264 -3.12823,4.49396 -1.02739,1.13132 -2.658659,3.67281 -3.625029,5.64775 -1.89508,3.87289 -10.92809,13.87843 -14.84858,16.44723 -1.92686,1.26253 -2.40211,1.30514 -2.37667,0.21308 0.0427,-1.83182 1.84499,-3.99627 5.4682,-6.56694 1.73923,-1.23399 3.79364,-4.16035 4.88847,-6.96329 1.03866,-2.65913 2.38866,-5.28478 3,-5.83478 0.61134,-0.55 2.19134,-3.025 3.51111,-5.5 1.31977,-2.475 4.413439,-7.57001 6.874819,-11.32223 4.3384,-6.61364 11.53404,-19.52983 14.86224,-26.67777 5.484,-11.77791 6.53953,-14.56753 7.03126,-18.58262 l 0.54621,-4.46002 -5.85705,0.47314 -5.85706,0.47313 5.5,-1.11489 c 3.025,-0.61319 5.81219,-1.58961 6.19375,-2.16982 0.72084,-1.09611 1.33546,-6.80725 2.38041,-22.11892 1.02643,-15.04034 1.67362,-11.02975 0.88563,5.48825 -0.94251,19.75732 -0.0371,19.27468 11.23392,-5.98825 2.08574,-4.675 4.57777,-9.36683 5.53784,-10.42629 0.96007,-1.05945 1.98852,-2.69174 2.28546,-3.6273 0.56583,-1.78277 9.57709,-8.9278 14.25526,-11.303 3.55002,-1.80237 21.22727,-5.64336 25.97244,-5.64336 4.53292,0 11.68371,2.5425 15.94507,5.66936 1.78371,1.30883 4.56341,5.1308 6.30598,8.67046 4.0847,8.2972 4.26122,14.71713 0.58549,21.29373 -1.43574,2.56882 -2.43107,4.84996 -2.21184,5.06919 0.21923,0.21923 5.7383,-0.32629 12.26459,-1.21228 13.81447,-1.87539 11.68506,-1.54592 35.366,-5.47196 54.6011,-9.05227 49.76662,-7.96252 55.28626,-12.46217 2.73671,-2.23098 7.50436,-5.99601 10.59479,-8.36672 3.09042,-2.37072 6.41159,-4.95822 7.38038,-5.75 0.96879,-0.79179 1.95457,-1.43961 2.19062,-1.43961 0.23606,0 3.94341,-2.38983 8.23857,-5.31073 12.38725,-8.4239 19.29527,-12.33045 26.78213,-15.14554 9.06492,-3.40846 25.43915,-7.54373 29.8705,-7.54373 1.91445,0 6.89596,-0.65343 11.07002,-1.45206 6.58879,-1.26064 9.20387,-1.2661 19.83797,-0.0414 12.03421,1.38592 21.31602,3.66987 27.24876,6.70502 7.43706,3.80475 27.33146,9.62374 35.18,10.28992 12.98769,1.1024 15.32,-1.12433 15.32,-14.62645 l 0,-5.875 -4.34501,0 c -3.01361,0 -4.87707,-0.58791 -6.08136,-1.91864 -1.65501,-1.82877 -1.63507,-2.01992 0.42574,-4.08073 2.02313,-2.02313 2.24333,-2.05097 3.42627,-0.43321 1.19533,1.63471 1.43224,1.62961 4.34941,-0.0936 2.55993,-1.51219 3.19973,-2.65503 3.75773,-6.71217 0.36988,-2.68933 0.51382,-4.98972 0.31986,-5.11199 -9.13882,-5.76108 -11.90404,-8.00625 -12.427,-10.08989 -0.33766,-1.34535 -0.29105,-2.96852 0.10359,-3.60705 0.98298,-1.59049 8.47776,-4.90383 11.15338,-4.93075 2.81375,-0.0283 3.06506,-1.06651 3.87836,-16.02196 1.17637,-21.63178 2.33496,-16.51496 1.85103,8.1749 -0.32683,16.67478 -0.13708,23.87698 0.64176,24.35832 0.60983,0.3769 2.61437,-0.96356 4.46928,-2.98865 2.91263,-3.17985 3.8728,-3.63001 7.16312,-3.35832 2.99991,0.24771 4.07486,0.89078 5.10726,3.05532 1.13461,2.37881 1.04375,3.33811 -0.68667,7.25 -1.09686,2.47964 -1.77125,4.50843 -1.49864,4.50843 0.60683,0 8.68945,-4.30426 9.38909,-5 1.27551,-1.26841 4.0028,-0.95957 4.0028,0.45328 0,3.19504 -6.92394,9.33665 -12.50507,11.09213 -5.22443,1.64329 -5.55564,1.63356 -9.41637,-0.27658 l -4.00148,-1.97978 -2.02689,2.15752 c -3.38141,3.59935 -5.37424,19.21091 -3.01501,23.61917 1.27426,2.38098 4.66487,2.45742 18.46482,0.41629 23.30651,-3.44722 37.97928,-5.48104 39.4391,-5.46672 3.32114,0.0326 -1.3222,1.8499 -6.39128,2.50142 -8.88239,1.14166 -33.90782,5.50993 -34.40306,6.00518 -0.45106,0.45106 7.81839,0.72304 24.85524,0.81748 14.64008,0.0812 38.57494,-1.51931 43.65391,-2.91902 6.46532,-1.78178 7.34609,-1.77531 7.34609,0.0539 0,0.81088 -1.4625,2.24 -3.25,3.17582 -3.7595,1.96825 -27.72489,3.55829 -51.73173,3.43226 -16.32809,-0.0857 -35.77759,1.47297 -37.63713,3.01624 -1.33752,1.11005 -1.54087,2.92157 -3.86179,34.40136 -1.76723,23.96992 -2.20306,29.27223 -3.49334,42.5 -1.07826,11.05408 -1.56969,16.73288 -2.98557,34.5 -0.56979,7.15 -1.50053,18.4 -2.06832,25 -1.58998,18.48214 -3.80907,48.69353 -4.55498,62.01302 l -0.67274,12.01301 5.63692,2.33638 c 7.58655,3.14444 11.08987,7.53523 12.66258,15.87024 1.6953,8.98474 0.66532,19.74667 -3.08817,32.26735 -6.08613,20.30175 -5.65103,17.99544 -9.05546,48 -1.67009,14.71908 -5.14655,33.81309 -8.55735,47 -0.78241,3.025 -2.09496,8.97679 -2.91676,13.22621 -0.82181,4.24941 -2.37889,10.49553 -3.46018,13.88027 -1.08129,3.38474 -1.96598,7.6013 -1.96598,9.37015 0,1.76885 -0.64896,4.52273 -1.44214,6.11973 -1.83838,3.70146 -3.25699,22.85352 -1.76125,23.77794 1.10676,0.68401 11.14241,2.09297 22.2471,3.12338 3.55096,0.3295 7.53189,0.82672 8.84651,1.10495 2.0975,0.44391 15.92378,1.92499 26.10978,2.79689 11.02451,0.94368 19.24777,1.79737 25,2.59534 14.33304,1.98835 15.72501,2.14845 34.5,3.9683 16.33351,1.58319 29.79919,3.02519 33,3.53387 1.65,0.26223 5.475,0.70466 8.5,0.98318 6.87244,0.63277 20.23381,2.0023 39,3.99747 7.975,0.84788 21.025,2.22294 29,3.0557 7.975,0.83276 28.675,3.05683 46,4.94239 17.325,1.88556 34.425,3.68933 38,4.00839 3.575,0.31905 7.4,0.74205 8.5,0.93998 1.1,0.19793 5.375,0.65279 9.5,1.0108 4.125,0.358 12.45,1.30633 18.5,2.10739 6.05,0.80106 31.475,3.70174 56.5,6.44596 25.025,2.74422 50.078,5.50587 55.67333,6.13701 5.59533,0.63113 10.82665,0.89682 11.62515,0.59041 1.08255,-0.41542 1.62597,-3.31148 2.13657,-11.38641 0.37663,-5.95612 0.87288,-12.6293 1.10278,-14.8293 0.22991,-2.2 0.88582,-10.075 1.45759,-17.5 0.57176,-7.425 1.25159,-15.75 1.51073,-18.5 0.4238,-4.49753 2.06572,-24.99055 3.04459,-38 0.20692,-2.75 1.06496,-15.35 1.90677,-28 0.84181,-12.65 1.97387,-28.175 2.5157,-34.5 0.54183,-6.325 1.4518,-17.8 2.02216,-25.5 7.94663,-107.28304 12.29593,-165.30724 13.52963,-180.5 6.7444,-83.05909 8.9394,-110.31224 11.5171,-142.99596 l 2.9572,-37.49596 -2.2496,-1.759 c -1.5465,-1.20915 -3.3438,-1.60724 -5.7497,-1.27352 -1.925,0.26702 -16.775,2.56457 -33,5.10567 -16.225,2.54109 -33.55,5.22738 -38.5,5.96952 -28.0962,4.21238 -35.9128,5.44291 -37.37534,5.8838 -0.89356,0.26938 -7.02466,1.1786 -13.62466,2.0205 -6.6,0.8419 -16.275,2.20759 -21.5,3.03486 -5.225,0.82728 -15.575,2.39848 -23,3.49155 -7.425,1.09307 -17.775,2.6535 -23,3.46762 -5.225,0.81413 -16.925,2.62422 -26,4.02243 -9.075,1.39821 -25.05,3.88953 -35.5,5.53627 -10.45,1.64673 -25.075,3.88018 -32.5,4.9632 -7.425,1.08302 -28.125,4.23189 -46,6.99748 -17.875,2.7656 -41.5,6.3733 -52.5,8.01712 -11,1.64382 -22.67377,3.43327 -25.9417,3.97656 -5.38131,0.89462 -7.6159,0.76213 -6.47015,-0.38362 0.23181,-0.23182 2.44431,-0.66697 4.91667,-0.96702 8.21432,-0.99688 31.28544,-4.66981 47.49518,-7.56124 8.8,-1.56971 22.525,-3.82906 30.5,-5.02078 7.975,-1.19172 19.9,-3.03003 26.5,-4.08513 18.61224,-2.97543 61.59978,-9.64449 87,-13.49713 12.65,-1.91872 29.75,-4.58445 38,-5.92385 8.25,-1.33941 24.675,-3.81075 36.5,-5.49188 11.825,-1.68113 26.9,-3.95497 33.5,-5.05299 13.70285,-2.27968 113.0766,-17.97849 113.8042,-17.97849 0.2635,0 0.7581,-1.11201 1.0992,-2.47114 0.3411,-1.35912 1.476,-2.92916 2.5221,-3.48896 1.5172,-0.81203 2.0326,-2.58713 2.5489,-8.77887 0.3559,-4.26857 0.8108,-9.03203 1.0109,-10.58547 0.2422,-1.88121 -0.277,-3.37304 -1.5549,-4.46722 -1.0553,-0.90353 -2.4468,-3.23253 -3.0924,-5.17556 l -1.1737,-3.53278 -1.2111,2.943 c -0.6661,1.61865 -0.9813,4.65615 -0.7005,6.75 0.4498,3.3532 0.2626,3.807 -1.5701,3.807 -2.7182,0 -6.3713,-4.97963 -9.1002,-12.40477 -1.7589,-4.78593 -1.97,-6.47896 -1.1138,-8.93507 1.4041,-4.02771 3.8954,-6.66016 6.303,-6.66016 1.5812,0 1.8219,0.43633 1.2408,2.25 -2.4043,7.50382 -1.2703,13.02247 2.4745,12.04317 2.5332,-0.66244 2.5325,-1.75499 0,-5.31621 l -2.0164,-2.83177 2.0164,-0.63998 c 1.109,-0.35199 2.893,-0.36176 3.9644,-0.0217 1.4686,0.46611 2.3209,-0.10273 3.463,-2.31143 0.8333,-1.61134 2.1368,-3.16831 2.8968,-3.45994 0.9328,-0.35797 1.583,-3.07756 2.0013,-8.37118 0.34068,-4.31252 2.40838,-29.21595 4.59488,-55.34095 2.1864,-26.125 4.3153,-52 4.7309,-57.5 0.4155,-5.5 0.9246,-9.21806 1.1312,-8.26235 0.2067,0.95571 -0.7869,17.38071 -2.2079,36.5 -2.2982,30.9201 -5.522,79.96985 -5.5484,84.41719 -0.01,1.34369 0.7141,1.55775 3.8404,1.13843 3.0814,-0.4133 3.988,-0.15718 4.5406,1.28269 0.4405,1.14791 0.1327,2.11118 -0.8502,2.66127 -0.8473,0.47418 -1.5406,1.89645 -1.5406,3.16059 0,1.71994 1.022,2.75931 4.0608,4.12958 4.7462,2.14027 6.369,4.61797 5.4463,8.31574 -0.9785,3.92171 -3.4359,6.15686 -6.7691,6.15686 -2.4274,0 -2.8201,-0.31096 -2.2099,-1.75 0.4081,-0.9625 1.318,-3.325 2.022,-5.25 1.2617,-3.45011 1.2348,-3.51673 -1.8851,-4.67392 -5.8322,-2.16319 -6.0158,-1.98551 -5.3472,5.17392 0.4962,5.31349 0.34,6.5 -0.8554,6.5 -0.8043,0 -1.4968,0.7875 -1.5389,1.75 -0.042,0.9625 -0.2728,2.65 -0.5127,3.75 -0.871,3.99395 -2.11848,16.06144 -1.91238,18.5 0.1893,2.24038 0.6204,2.48246 4.15068,2.33109 5.8981,-0.25288 14.0199,-3.4548 21.8538,-8.61557 8.7714,-5.77848 17.6704,-13.36695 19.9119,-16.9797 1.9226,-3.09878 7.424,-9.86505 13.8104,-16.98582 3.6207,-4.037 4.8134,-4.75 7.9461,-4.75 2.0272,0 4.2805,0.58768 5.0073,1.30595 0.7268,0.71828 2.0521,1.58235 2.9451,1.92017 0.8931,0.33781 1.9164,2.17423 2.2741,4.08092 0.8639,4.60473 5.3586,15.5678 7.4974,18.28683 0.9386,1.19332 2.2883,3.93204 2.9992,6.08605 0.7109,2.15401 2.0614,4.93581 3.0013,6.18179 1.6722,2.21689 1.9004,2.24145 10.6565,1.14687 4.9213,-0.6152 11.1978,-1.54712 13.9478,-2.07092 2.75,-0.52381 8.15,-1.38115 12,-1.9052 10.5985,-1.44264 33.3549,-4.96815 36.3505,-5.63159 6.0918,-1.3491 5.9263,-1.16112 5.4385,-6.17829 -0.2525,-2.59742 -0.8673,-6.07258 -1.3662,-7.72258 -1.6063,-5.31232 -4.9503,-24.78852 -5.4943,-32 -0.2904,-3.85 -0.7179,-8.69132 -0.95,-10.7585 -0.5318,-4.73617 -1.3584,-43.97385 -1.9661,-93.33755 -0.5346,-43.419376 -1.1831,-63.008953 -2.5127,-75.90395 -0.5104,-4.95 -1.1792,-14.097443 -1.4863,-20.327651 -0.5025,-10.19506667 -0.3924,-11.29489064 1.1014,-10.99999963 1.1646,0.22989562 1.7288,1.52105803 1.8912,4.32765083 0.8057,13.9252918 1.6426,23.7715558 2.4649,28.9999998 0.5191,3.3 1.2258,13.416722 1.5705,22.481604 0.3448,9.064883 0.9124,16.939883 1.2614,17.5 0.349,0.560118 0.722,22.393396 0.829,48.518396 0.3211,78.46576 1.2024,93.46442 6.9337,118 1.349,5.775 2.6822,11.5125 2.9626,12.75 0.2805,1.2375 1.2487,2.25 2.1515,2.25 2.0775,0 39.049,-4.867 42.0704,-5.53824 1.2375,-0.27493 2.25,-0.0922 2.25,0.40596 0,0.4982 -3.0375,1.43439 -6.75,2.08042 -3.7125,0.64603 -8.775,1.57107 -11.25,2.05566 -2.475,0.48458 -9.225,1.62038 -15,2.524 -5.775,0.90361 -10.9164,2.04344 -11.4254,2.53294 -1.2774,1.22858 1.0511,21.5683 3.5419,30.93926 2.6055,9.80242 17.15,39.45229 30.9896,63.17447 2.1416,3.67096 3.8939,7.01891 3.8939,7.43989 0,0.42098 1.7421,3.71746 3.8714,7.32553 2.1293,3.60806 7.5819,12.86011 12.1168,20.56011 4.535,7.7 13.0877,20.75 19.006,29 9.568,13.33751 20.0058,29.38191 20.0058,30.75173 0,1.32991 21.8863,32.96016 26.4527,38.22955 2.8686,3.3103 9.7427,12.54372 15.2758,20.51872 5.5331,7.975 12.2453,16.98893 14.9159,20.03095 2.6706,3.04202 6.411,7.54202 8.3121,10 1.9011,2.45798 7.5261,8.75316 12.5,13.9893 4.9739,5.23614 10.8243,11.76114 13.0008,14.5 2.1765,2.73886 7.1265,8.36569 11,12.50406 6.1466,6.56696 10.7341,11.73507 30.1354,33.9496 2.149,2.46066 7.3331,8.08566 11.5201,12.5 12.686,13.37469 15.3213,16.63116 16.9272,20.91649 1.201,3.20494 1.9955,4.04597 3.6094,3.82056 1.9968,-0.2789 6.1135,4.22288 5.5595,6.07955 -0.3542,1.18704 1.7124,4.7315 5.3885,9.24158 3.5909,4.40566 5.3277,8.23779 5.9629,13.15674 0.4293,3.32433 6.121,18.42523 7.2765,19.30583 0.3648,0.27794 0.7924,2.53034 0.9504,5.00534 0.158,2.475 0.9095,7.425 1.6701,11 0.7605,3.575 2.1868,12.20809 3.1695,19.18465 1.5692,11.14078 1.6425,14.36614 0.6023,26.5 -0.6514,7.59844 -1.8466,15.94831 -2.6559,18.55526 -0.8093,2.60695 -1.7108,6.77534 -2.0034,9.2631 -0.5156,4.38342 -1.093,5.71715 -5.9704,13.79072 -2.8088,4.64949 -8.6469,10.79495 -9.6601,10.16875 -0.4091,-0.25284 -3.119,2.28202 -6.022,5.633 -2.903,3.35099 -8.5687,8.5261 -12.5903,11.50025 -4.0217,2.97415 -7.8737,6.30681 -8.5601,7.40591 -0.6864,1.0991 -1.7772,1.99836 -2.4241,1.99836 -0.6469,0 -1.3261,0.41901 -1.5095,0.93114 -0.5571,1.54695 -13.865,10.06885 -15.727,10.06885 -2.8577,0 -9.4102,3.61927 -12.5786,6.94769 -1.633,1.71544 -4.8872,4.24311 -7.2316,5.61703 -2.3445,1.37391 -4.7343,3.37943 -5.3109,4.4567 -0.5765,1.07727 -1.3723,1.90986 -1.7684,1.85021 -1.7851,-0.26888 -3.0075,0.28162 -5.2365,2.35824 -1.464,1.36395 -3.9236,2.33233 -6.3337,2.49372 -2.1671,0.14512 -5.1562,1.05418 -6.6425,2.02013 -3.1403,2.04105 -9.4928,9.1042 -8.8059,9.79107 0.6589,0.65896 18.9799,3.07806 33.7985,4.46275 38.2908,3.57801 114.5156,12.45795 121,14.0961 2.475,0.62526 5.175,1.10889 6,1.07473 3.2221,-0.13339 8,0.96883 8,1.84556 0,0.50781 -0.6389,0.67815 -1.4197,0.37852 -0.7808,-0.29963 -4.7183,-0.66565 -8.75,-0.81337 -6.6528,-0.24376 -35.2656,-3.03981 -56.8303,-5.55347 -4.675,-0.54493 -11.65,-1.24541 -15.5,-1.55661 -3.85,-0.3112 -10.15,-0.98375 -14,-1.49456 -3.85,-0.51081 -15.775,-1.8308 -26.5,-2.9333 -55.2419,-5.67874 -50.0194,-5.33355 -52.1072,-3.44414 -2.6666,2.41327 -7.3377,12.87485 -8.6633,19.403 -2.4259,11.94598 -5.8812,66.81132 -4.7233,75 1.167,8.25369 4.4261,19.6266 6.9028,24.0882 4.9097,8.8444 11.6143,29.1599 13.5398,41.0262 2.4178,14.901 1.01,24.6817 -5.5426,38.5069 -2.5531,5.3868 -4.4954,7.9442 -7.9745,10.5 -2.5296,1.8583 -7.0303,5.2912 -10.0014,7.6287 -2.9711,2.3375 -5.5738,4.25 -5.7838,4.25 -0.2099,0 -3.4021,2.0254 -7.0937,4.5009 -3.6917,2.4756 -7.6888,4.6812 -8.8825,4.9015 -1.1936,0.2203 -5.5453,1.0888 -9.6703,1.9301 -10.7508,2.1927 -29.8344,1.3895 -41.944,-1.7654 -9.1092,-2.3732 -12.2441,-4.1399 -14.2941,-8.0559 -0.9874,-1.8861 -0.935,-1.9131 0.8426,-0.4337 3.6049,3 19.6578,6.694 32.3955,7.4547 4.675,0.2792 9.6593,0.7422 11.0763,1.029 1.4169,0.2868 3.8919,0.011 5.5,-0.6119 1.608,-0.6233 5.4409,-1.4977 8.5175,-1.9432 5.3031,-0.7679 13.4989,-5.5232 33.6216,-19.5077 1.2185,-0.8468 4.9431,-7.1752 8.2769,-14.0631 l 6.0615,-12.5236 -0.5846,-7.7058 c -0.4593,-6.0556 -1.0211,-8.0782 -2.6233,-9.4443 -1.7659,-1.5057 -2.0762,-3.1115 -2.3188,-12 -0.3056,-11.1995 -1.5653,-16.6686 -6.9366,-30.1151 -4.977,-12.45948 -8.8156,-30.14167 -8.0054,-36.8761 0.3487,-2.89872 0.7596,-8.8704 0.9129,-13.2704 0.3707,-10.63632 2.259,-31.64635 3.4602,-38.5 0.5301,-3.025 1.4873,-8.65 2.127,-12.5 0.6397,-3.85 2.5017,-10.51802 4.1378,-14.81782 1.6361,-4.29981 2.7598,-8.03275 2.4971,-8.29544 -0.2627,-0.26269 -10.3197,-1.56905 -22.3489,-2.90304 -12.0291,-1.33398 -27.4962,-3.11094 -34.3712,-3.9488 -23.7329,-2.89232 -30.5145,-3.69946 -34.5,-4.10615 -2.2,-0.22449 -5.575,-0.62805 -7.5,-0.89679 -1.925,-0.26874 -12.05,-1.41198 -22.5,-2.54054 -10.45,-1.12855 -20.35,-2.28052 -22,-2.55992 -1.65,-0.27941 -8.175,-0.93329 -14.5,-1.45308 -6.325,-0.51978 -13.525,-1.22374 -16,-1.56434 -10.726,-1.47609 -28.0181,-3.39585 -30.678,-3.40588 -1.8922,-0.007 -2.2685,0.71537 -2.8669,5.50502 -0.9979,7.98665 -2.7107,8.14558 -2.2955,0.21298 l 0.3404,-6.50359 -12.5,-1.61918 c -6.875,-0.89055 -19.7,-2.2842 -28.5,-3.097 -12.7917,-1.18149 -77.8923,-8.36058 -90.99998,-10.03519 -1.65,-0.2108 -7.725,-0.83218 -13.5,-1.38085 -5.775,-0.54866 -12.59225,-1.29842 -15.14945,-1.66612 -3.93912,-0.56642 -4.79668,-0.38254 -5.61315,1.20359 -0.97112,1.88657 -1.97419,10.54003 -2.82509,24.37214 -0.25375,4.125 -0.90769,13.35 -1.45318,20.5 -0.5455,7.15 -1.27184,16.867 -1.6141,21.59334 l -0.62228,8.59334 7.12078,0.59698 c 8.01651,0.67208 11.83552,2.04865 8.56409,3.08697 -1.05499,0.33484 -3.04079,0.38917 -4.41289,0.12074 -1.3721,-0.26843 -4.35163,-0.74325 -6.62116,-1.05515 -4.03961,-0.55516 -4.13841,-0.49733 -4.69542,2.74834 -0.64106,3.73546 -1.40776,12.47378 -2.13342,24.31544 -0.26963,4.4 -0.78647,12.80108 -1.14853,18.66908 l -0.6583,10.66907 4.63105,0.69447 c 5.93555,0.89009 5.99926,2.46738 0.0997,2.46738 -2.71977,0 -4.7103,0.49974 -4.97891,1.25 -0.24613,0.6875 -0.92099,7.775 -1.49968,15.75 -7.73133,106.5459 -8.09971,112.2903 -7.25508,113.1349 0.44132,0.4414 2.59401,1.0603 4.78373,1.3755 2.18973,0.3152 6.23132,0.9733 8.98132,1.4625 2.75,0.4892 8.375,1.1643 12.5,1.5002 4.125,0.336 14.02497,1.4583 21.99997,2.494 7.975,1.0357 17.64998,2.1702 21.49998,2.521 11.1863,1.0195 14.4858,1.369 23.5,2.4896 13.1635,1.6365 14.914,1.8175 24,2.4813 8.1816,0.5978 11.0009,0.9302 17.5,2.0635 3.1335,0.5464 11.143,1.3305 20.5,2.0068 3.025,0.2187 6.85,0.6094 8.5,0.8684 2.8964,0.4546 18.2422,2.2399 27.5,3.1993 2.475,0.2564 7.65,0.8601 11.5,1.3414 3.85,0.4813 7.9,0.87 9,0.8638 1.1,-0.01 2.9,0.204 4,0.467 1.1,0.2631 4.7,0.7936 8,1.1789 3.3,0.3853 7.35,0.8706 9,1.0785 1.65,0.2079 6.5687,0.655 10.9305,0.9936 11.0216,0.8557 31.4602,3.2942 32.3812,3.8634 0.4196,0.2594 4.5143,0.737 9.0994,1.0614 4.585,0.3245 8.6416,0.7786 9.0147,1.0091 0.373,0.2306 3.8048,0.6618 7.6262,0.9583 25.7924,2.001 25.218,2.0752 16.948,-2.1881 -2.2,-1.1341 -6.1375,-2.6468 -8.75,-3.3615 -4.8734,-1.3332 -5.9196,-2.4767 -3.2154,-3.5145 2.522,-0.9677 10.3481,1.6613 20.9654,7.043 11.9602,6.0624 13.0009,6.4006 21.9917,7.1463 3.8546,0.3197 8.4282,0.7703 10.1636,1.0013 1.7354,0.2311 7.3374,0.8939 12.449,1.4729 5.1115,0.5791 9.5416,1.3168 9.8447,1.6395 0.6551,0.6976 -16.5213,-0.3947 -26.449,-1.6819 -3.85,-0.4992 -8.5177,-0.9215 -10.3726,-0.9385 l -3.3726,-0.031 9.3951,9.7884 c 7.8214,8.1488 9.9777,11.122 12.8726,17.75 3.4464,7.8903 3.4775,8.092 3.4775,22.5257 l 0,14.5642 -3.9864,5.7877 c -5.6759,8.2408 -15.9971,17.5976 -23.5593,21.3581 -3.568,1.7743 -7.1548,3.2303 -7.9708,3.2357 -0.8159,0.01 -3.8907,1.1303 -6.8328,2.5 -2.9421,1.3696 -6.5493,2.4902 -8.0159,2.4902 -1.4666,0 -5.6925,1.7683 -9.391,3.9295 -3.6984,2.1613 -7.7413,4.2341 -8.9841,4.6063 -1.2428,0.3722 -4.2847,2.6074 -6.7597,4.9671 -2.475,2.3597 -6.3994,5.2393 -8.7209,6.3992 -2.3215,1.1599 -7.1303,5.0039 -10.6861,8.5424 -6.2977,6.2666 -8.573,10.574 -8.5874,16.2563 -0.01,3.7967 2.1177,12.2992 3.0773,12.2992 0.5044,0 0.9833,-2.8125 1.0641,-6.25 l 0.147,-6.25 0.7445,6 c 0.4094,3.3 0.7933,9.6846 0.853,14.1879 0.1164,8.784 2.0046,18.5267 4.9405,25.4925 1.0014,2.3758 2.6209,7.2446 3.5989,10.8196 0.9781,3.575 3.2606,9.727 5.0722,13.6712 1.8117,3.9441 4.7913,13.1691 6.6213,20.5 3.1393,12.5748 3.3155,14.213 3.1149,28.9588 -0.1877,13.8045 -0.6141,17.3668 -3.6508,30.5 -1.891,8.1785 -3.7406,17.795 -4.1102,21.37 -0.3696,3.575 -2.156,11.225 -3.9698,17 -1.8137,5.775 -3.5983,12.075 -3.9656,14 -1.4341,7.5148 -8.8589,25.5768 -14.3666,34.9489 -2.4076,4.097 -5.3955,9.722 -6.6398,12.5 -2.2029,4.9182 -9.3978,14.5835 -15.5098,20.835 -1.6647,1.7027 -3.0267,3.4108 -3.0267,3.7958 0,0.385 -1.9847,1.633 -4.4105,2.7732 -2.5139,1.1817 -6.4914,4.4951 -9.25,7.7056 -2.792,3.2495 -6.9549,6.7066 -9.8395,8.1715 -2.75,1.3965 -6.9296,3.8619 -9.2881,5.4788 -2.3585,1.6168 -7.6016,4.4497 -11.6514,6.2953 -4.0499,1.8456 -10.752,5.4126 -14.8937,7.9268 -4.1417,2.5141 -12.1735,6.9497 -17.8485,9.8568 -5.6751,2.9071 -13.4683,7.1514 -17.3183,9.4317 -3.85,2.2804 -8.8,4.4606 -11,4.845 -2.2,0.3844 -4.769,1.0955 -5.7088,1.5804 -2.1217,1.0945 -15.1143,3.4924 -23.7912,4.3909 -3.575,0.3702 -8.8474,1.4867 -11.7165,2.4812 -4.2005,1.456 -8.8753,1.8498 -24,2.0219 -10.35288,0.1178 -20.13848,-0.2307 -21.80238,-0.7764 -1.6604,-0.5446 -4.8104,-0.8539 -7,-0.6872 -2.1896,0.1667 -14.10607,0.7457 -26.48107,1.2868 -12.375,0.5411 -24.3,1.5007 -26.5,2.1323 -2.37737,0.6825 -13.841,1.2585 -28.25942,1.4198 -13.34268,0.1493 -24.55518,0.5672 -24.91667,0.9287 -0.36148,0.3614 1.55526,0.6959 4.25942,0.7432 4.39147,0.077 4.60759,0.1784 2.02323,0.9518 -1.59139,0.4763 -7.34713,1.111 -12.79052,1.4106 -8.1411,0.448 -10.34192,0.2531 -12.40425,-1.0982 -3.42405,-2.2435 -21.91014,-1.304 -32.30709,1.6419 -4.06742,1.1525 -12.32523,2.5557 -18.3507,3.1183 -6.02546,0.5626 -14.39758,1.9483 -18.6047,3.0793 -14.82191,3.9847 -19.75044,4.7689 -30.1493,4.797 -5.775,0.016 -13.2,0.4628 -16.5,0.9936 -3.3,0.5309 -12.525,1.1645 -20.5,1.408 -16.11912,0.4922 -37.48675,4.0876 -49.5,8.3291 -13.77664,4.8642 -25.70353,9.3983 -31.30532,11.901 -22.31145,9.9681 -44.25178,17.2722 -54.19468,18.0419 l -5.5,0.4257 2.5,-2.0998 z M 1342.5434,876.34535 c 4.6353,-4.65058 7.6475,-6.81637 10.5,-7.54966 4.7293,-1.21577 16.1775,-6.59695 17.0549,-8.01664 0.3373,-0.54571 2.2629,-2.03971 4.2792,-3.31999 2.0162,-1.28027 5.3188,-3.84954 7.3391,-5.70948 2.2016,-2.02697 7.1354,-4.69052 12.3158,-6.64881 8.7131,-3.29372 18.5876,-9.63899 20.468,-13.15261 0.5597,-1.04574 4.1501,-4.17974 7.9787,-6.96444 3.8287,-2.7847 8.4469,-7.04825 10.2627,-9.47455 1.8159,-2.4263 4.8766,-5.47566 6.8016,-6.77637 4.1543,-2.80704 6.9207,-5.85853 6.9667,-7.68474 0.018,-0.72591 1.2996,-3.20091 2.8473,-5.5 2.5305,-3.75903 4.4234,-10.16467 7.1457,-24.18018 0.4273,-2.2 0.8536,-10.75 0.9475,-19 0.2779,-24.43465 -3.5821,-47.43624 -11.4953,-68.5 -1.9629,-5.225 -4.2134,-11.525 -5.001,-14 -1.3495,-4.24088 -5.3101,-9.56488 -18.1609,-24.41288 -0.6875,-0.79434 -1.25,-1.90089 -1.25,-2.45899 0,-0.5581 -0.8452,-1.60673 -1.8783,-2.3303 -1.033,-0.72357 -3.997,-3.91664 -6.5867,-7.0957 -2.5896,-3.17906 -6.2422,-7.45006 -8.1169,-9.49112 -1.8747,-2.04106 -3.4107,-4.04252 -3.4133,-4.4477 0,-0.40519 -2.7512,-3.55519 -6.1079,-7 -3.3568,-3.44482 -9.5443,-10.07807 -13.75,-14.74057 -4.2058,-4.66249 -10.8148,-11.86249 -14.6866,-16 -3.8718,-4.1375 -9.2718,-10.22095 -12,-13.51876 -2.7282,-3.29781 -8.1103,-9.30142 -11.9603,-13.34135 -3.85,-4.03993 -7.4093,-8.09172 -7.9096,-9.00398 -0.5002,-0.91226 -5.1513,-6.55901 -10.3358,-12.54834 -5.1844,-5.98933 -12.0009,-14.77774 -15.1477,-19.5298 -7.7783,-11.74622 -9.7164,-14.4493 -16.186,-22.57405 -4.6013,-5.77862 -14.1531,-19.48855 -18.4002,-26.41035 -0.5387,-0.87786 -2.6872,-4.29611 -4.7745,-7.59611 -2.0874,-3.3 -3.6717,-6.36915 -3.5207,-6.82034 0.151,-0.45119 -0.513,-1.26105 -1.4755,-1.79969 -0.9625,-0.53864 -1.75,-1.59132 -1.75,-2.33929 0,-1.18267 -16.9367,-25.28868 -25.0689,-35.68065 -1.5667,-2.00198 -3.8505,-5.60198 -5.0751,-8 -1.2247,-2.39802 -3.9045,-6.86583 -5.9553,-9.92847 -4.9622,-7.41074 -9.9007,-16.62049 -9.9007,-18.46389 0,-0.81798 -0.9322,-2.27034 -2.0716,-3.22746 -1.1393,-0.95711 -4.1077,-5.79021 -6.5963,-10.74021 -2.4887,-4.95 -4.8647,-9.45 -5.28,-10 -0.4153,-0.55 -2.9223,-5.05 -5.5713,-10 -2.6489,-4.95 -5.6626,-10.35 -6.6972,-12 l -1.881,-3 0.7019,4 c 0.3861,2.2 1.983,7.79691 3.5487,12.43759 3.1097,9.2169 3.2729,9.92283 1.9676,8.51241 -0.9184,-0.99236 -3.6852,-8.95 -3.1119,-8.95 0.181,0 -0.2461,-1.07464 -0.949,-2.38808 -1.1429,-2.13559 -5.5699,-17.29763 -6.6341,-22.72142 -0.2277,-1.16022 -1.3877,-4.31022 -2.5779,-7 -4.9036,-11.08203 -8.7407,-24.4508 -9.9023,-34.5009 -1.8286,-15.81964 -1.3709,-15.22942 -11.2116,-14.46051 -4.5287,0.35386 -8.9227,0.85105 -9.7645,1.10486 -0.8417,0.25381 -6.2417,1.10404 -12,1.88941 -5.7582,0.78537 -14.2945,2.10011 -18.9695,2.92165 -4.675,0.82154 -10.525,1.76597 -13,2.09874 -11.6571,1.56733 -13.2019,1.91876 -13.6579,3.10715 -0.2684,0.6994 4.2698,11.01204 10.085,22.91698 5.8151,11.90494 10.5729,21.86847 10.5729,22.14119 0,0.49623 9.0561,14.05404 13.4281,20.10311 13.0941,18.11692 31.3843,37.4757 57.9439,61.32919 15.7267,14.12433 26.1181,26.49163 38.1957,45.45863 5.5058,8.64648 7.2648,13.792 5.4586,15.96827 -1.9503,2.35003 -4.178,1.84211 -8.2254,-1.87543 -4.634,-4.25635 -15.4283,-12.59284 -16.3055,-12.59284 -0.361,0 -3.089,-1.61459 -6.062,-3.58798 -2.973,-1.97339 -5.9743,-3.35892 -6.6695,-3.07895 -0.9962,0.40121 -0.9991,0.52576 -0.014,0.58798 0.6875,0.0434 1.25,0.53499 1.25,1.09237 0,1.58873 -6.2666,-1.40854 -12.3666,-5.91485 -6.0322,-4.45624 -7.1167,-5.68182 -5.7665,-6.51629 0.949,-0.5865 -23.9652,-25.58228 -25.4987,-25.58228 -0.4909,0 -3.8668,-2.8125 -7.502,-6.25 -8.716,-8.24175 -17.6482,-15.85428 -21.3661,-18.2094 -1.65,-1.04519 -5.6109,-4.0694 -8.8019,-6.72047 -3.1911,-2.65107 -6.1161,-4.82732 -6.5,-4.8361 -0.384,-0.009 -2.2384,-1.37345 -4.1209,-3.03259 -5.3983,-4.7576 -14.6861,-10.03876 -16.4586,-9.35858 -1.0867,0.41702 -1.8878,-0.1707 -2.5281,-1.85482 -0.9498,-2.49814 -3.56,-4.21964 -5.8405,-3.85192 -0.6875,0.11085 -1.25,-0.39615 -1.25,-1.12668 0,-1.97554 -5.6873,-4.99346 -8.0169,-4.25408 -1.3208,0.41921 -2.1965,0.1022 -2.5964,-0.93997 -0.3319,-0.86489 -3.1422,-2.29203 -6.2451,-3.17143 -7.765,-2.20071 -13.0002,-5.40483 -18.242,-11.16479 -2.4492,-2.69122 -6.4465,-6.33718 -8.8829,-8.10214 -8.0243,-5.81274 -17.2471,-13.52324 -24.3736,-20.37703 -3.8603,-3.7125 -7.55908,-6.75 -8.21958,-6.75 -2.0001,0 -2.134,1.31022 -8.4319,82.5 -1.6639,21.45 -4.5824,58.35 -6.4856,82 -5.2555,65.3084 -8.776,112.65913 -12.0072,161.5 -0.78231,11.825 -2.09948,30.275 -2.92703,41 -0.82755,10.725 -2.20106,29.85 -3.05223,42.5 -0.85117,12.65 -1.75786,24.35 -2.01486,26 -0.257,1.65 -0.92207,10.2 -1.47794,19 -0.55586,8.8 -2.42263,33.24415 -4.14836,54.32034 -1.80365,22.02766 -2.7637,38.68856 -2.25804,39.1864 0.80848,0.79599 10.55557,2.23444 22.87966,3.37653 2.75,0.25485 16.25,1.82267 29.99998,3.48404 13.75,1.66137 30.625,3.49879 37.5,4.08314 6.875,0.58435 15.425,1.51227 19,2.06205 3.575,0.54977 15.275,1.91057 26,3.024 22.3794,2.32333 40.7336,4.429 56.5,6.48189 6.05,0.78775 16.4,1.91458 23,2.50408 6.6,0.58949 12.675,1.25627 13.5,1.48172 0.825,0.22544 8.7,1.10097 17.5,1.9456 19.4484,1.86669 40.7543,4.29517 70.5,8.03576 5.4436,0.68454 12.9733,1.49715 19,2.05048 3.025,0.27773 9.1,0.92524 13.5,1.43891 4.4,0.51366 11.15,1.22981 15,1.59143 3.85,0.36163 7.1029,0.74755 7.2287,0.8576 0.1258,0.11006 2.1508,0.28443 4.5,0.38749 4.0197,0.17635 4.6542,-0.19676 10.7713,-6.33399 z m -166,-82.36275 c 0,-0.57857 -0.675,-0.79293 -1.5,-0.47635 -0.825,0.31659 -1.5,0.12625 -1.5,-0.42297 0,-0.54922 -1.125,-1.28094 -2.5,-1.62604 -1.375,-0.34511 -2.5,-1.29389 -2.5,-2.10841 0,-0.81452 -0.675,-1.48095 -1.5,-1.48095 -0.825,0 -1.5,-0.675 -1.5,-1.5 0,-0.825 0.45,-1.5 1,-1.5 0.55,0 1,-0.72314 1,-1.60699 0,-1.05452 0.5438,-1.39831 1.5818,-1 0.87,0.33385 1.77,0.60699 2,0.60699 0.23,0 0.4182,0.87344 0.4182,1.94098 0,2.23339 2.1875,3.9965 2.7743,2.23607 0.5807,-1.74215 3.2257,-1.42895 3.2257,0.38197 0,0.85746 0.482,1.26114 1.071,0.89708 0.6994,-0.43221 0.9597,0.475 0.75,2.61397 -0.2863,2.92177 -2.821,5.65739 -2.821,3.04465 z m 9,-1.17374 c 0,-0.58246 -0.45,-0.7809 -1,-0.44098 -0.55,0.33992 -1,0.14148 -1,-0.44098 0,-1.52935 1.5544,-1.30086 3,0.44098 0.8601,1.03636 0.898,1.5 0.1224,1.5 -0.6173,0 -1.1224,-0.47656 -1.1224,-1.05902 z m -38,-3.95629 c -1.2413,-0.81487 -1.2666,-1.13522 -0.1468,-1.85752 0.9689,-0.62488 1.0783,-1.40607 0.3852,-2.75 -1.2992,-2.51916 -0.5024,-4.37717 1.8772,-4.37717 1.102,0 2.307,-0.96808 2.773,-2.228 0.797,-2.15451 0.8798,-2.1206 2.5079,1.02786 1.1515,2.22682 1.4778,4.35326 1.0323,6.728 -0.6433,3.42926 -2.4288,4.87903 -2.4288,1.97214 0,-0.825 -0.675,-1.5 -1.5,-1.5 -0.8333,0 -1.5,0.88889 -1.5,2 0,2.21389 -0.7517,2.46061 -3,0.98469 z m 2,-26.42567 c 0,-0.24254 0.45,-0.7191 1,-1.05902 0.55,-0.33992 1,-0.14148 1,0.44098 0,0.58246 -0.45,1.05902 -1,1.05902 -0.55,0 -1,-0.19844 -1,-0.44098 z m -107,-9.52764 c 0,-0.53273 0.675,-0.70959 1.5,-0.39301 0.825,0.31659 1.5,0.75246 1.5,0.96862 0,0.21615 -0.675,0.39301 -1.5,0.39301 -0.825,0 -1.5,-0.43588 -1.5,-0.96862 z m -17,-2.53138 c 0,-0.91667 0.5625,-1.47917 1.25,-1.25 1.4157,0.47189 1.2601,2.07998 -0.25,2.58333 -0.55,0.18334 -1,-0.41666 -1,-1.33333 z m 14,0.10699 c 0,-0.21616 0.6984,-0.661 1.5519,-0.98855 0.89,-0.34149 1.2914,-0.17385 0.941,0.39301 -0.5872,0.95021 -2.4929,1.40545 -2.4929,0.59554 z m 0.6003,-4.44474 c -0.3178,-0.51418 0.3171,-1.1689 1.4109,-1.45494 2.3564,-0.6162 2.4785,-0.35863 0.5778,1.2188 -0.8326,0.691 -1.6478,0.78779 -1.9887,0.23614 z m 174.3997,-364.16225 c 0,-1.1 0.2092,-2 0.4648,-2 0.2557,0 0.9465,0.9 1.5352,2 0.8543,1.5963 0.7605,2 -0.4648,2 -0.8685,0 -1.5352,-0.86852 -1.5352,-2 z m -8.5411,-10.06653 c -0.3626,-0.58659 -0.4447,-1.281 -0.1826,-1.54313 0.2622,-0.26213 0.7431,0.21781 1.0688,1.06653 0.6762,1.76211 0.1,2.07206 -0.8862,0.4766 z m -6.2308,-12.13087 c -1.1,-1.81643 -2.2717,-4.4276 -2.6038,-5.8026 -0.3725,-1.54249 0,-1.15949 0.9777,1 0.8698,1.925 2.2874,4.29026 3.1503,5.25613 0.8628,0.96587 1.3229,2.00204 1.0223,2.3026 -0.3006,0.30056 -1.4465,-0.9397 -2.5465,-2.75613 z m -718.77364,348.1974 c 1.39473,-18.975 3.64697,-49.575 5.00498,-68 1.358,-18.425 2.77934,-38.83978 3.15854,-45.36617 l 0.68944,-11.86617 -2.4037,0.72029 c -1.32203,0.39617 -3.42891,1.36715 -4.68195,2.15774 -1.25303,0.79058 -2.68904,1.18354 -3.19113,0.87323 -1.26545,-0.78209 -10.82728,7.83168 -14.86441,13.39061 -6.56493,9.03957 -8.82745,15.04951 -13.77498,36.59047 -2.33802,10.17945 -2.32445,26.06765 0.0319,37.3345 1.59721,7.6371 11.68897,38.6109 13.01069,39.93262 0.31141,0.31142 0.56621,-0.38223 0.56621,-1.54144 0,-1.1592 0.45,-2.38576 1,-2.72568 0.58656,-0.36252 1.02101,0.75004 1.05082,2.69098 0.13088,8.52297 1.15517,13.35479 4.51722,21.30902 5.30829,12.5588 5.60711,13.06506 6.49277,11 0.47177,-1.1 1.9989,-17.525 3.39363,-36.5 z m -13.77519,-18.25 c 0.32176,-2.8875 0.92626,-7.05 1.34332,-9.25 0.75006,-3.95653 0.75937,-3.94023 0.85686,1.5 0.11921,6.65235 -0.83936,13 -1.96316,13 -0.45212,0 -0.55878,-2.3625 -0.23702,-5.25 z m 3.78616,-34.25 c 0.38452,-2.75 1.11642,-5.43182 1.62645,-5.9596 0.57134,-0.59121 0.68194,0.94439 0.28811,4 -0.35157,2.72778 -1.08348,5.4096 -1.62645,5.9596 -0.65022,0.65863 -0.74857,-0.70686 -0.28811,-4 z m 3.21862,-26.20224 c -0.60411,-0.97747 2.05399,-21.36911 2.89516,-22.21029 0.23145,-0.23144 0.42081,4.06819 0.42081,9.55473 0,6.78648 -0.43073,10.56461 -1.34736,11.81816 -0.78793,1.07757 -1.6053,1.42526 -1.96861,0.8374 z m 15.70662,58.65083 c 0.88111,-5.19672 2.28707,-16.31266 3.12435,-24.70207 1.15462,-11.56913 2.39566,-18.09075 5.13799,-27 9.03813,-29.36288 8.54155,-27.0779 7.93309,-36.50377 -0.82459,-12.77402 -3.478,-17.74275 -9.47503,-17.74275 -2.92658,0 -3.47638,4.1831 -5.58594,42.5 -0.81757,14.85 -1.70951,30.15 -1.98208,34 -2.98456,42.1556 -2.74109,50.61449 0.84762,29.44859 z M 231.09024,451.90098 c 8.6803,-1.90696 20.81976,-7.36002 23.45595,-10.53644 0.68317,-0.82316 1.80861,-1.49666 2.50099,-1.49666 0.69237,0 2.43321,-1.53965 3.86853,-3.42145 1.43531,-1.88179 4.97622,-4.78225 7.86869,-6.44545 9.36678,-5.38603 21.6185,-16.92579 30.96262,-29.16335 5.42385,-7.10337 5.58782,-7.48483 3.34291,-7.77721 -1.29838,-0.1691 -9.94001,0.87808 -19.2036,2.32706 -16.85102,2.63578 -22.65008,3.52457 -48.84291,7.48585 -19.31745,2.92148 -26.56742,4.70926 -29.22603,7.20689 -1.25068,1.17496 -2.27397,2.51679 -2.27397,2.98185 0,0.46505 -1.05114,2.52411 -2.33587,4.57568 -3.23066,5.15903 -5.66413,12.78846 -5.66413,17.75823 0,3.00999 0.79471,5.25796 2.8536,8.07186 7.61495,10.4074 15.01626,12.31655 32.69322,8.43314 z m 988.45316,-4.58276 c 0,-1.16164 -3.3912,-7.1534 -6.6235,-11.70265 -1.8571,-2.61378 -3.3765,-4.98264 -3.3765,-5.26413 0,-0.93468 -9.1797,-11.88222 -15.918,-18.98356 -7.0022,-7.37947 -14.4922,-14.39942 -25.0735,-23.5 -3.5172,-3.025 -9.3454,-8.23847 -12.9517,-11.58548 -3.6062,-3.34702 -7.4773,-6.72202 -8.6024,-7.5 -4.8176,-3.33126 -19.6542,-20.56253 -24.6619,-28.64232 -2.9902,-4.82471 -7.9309,-14.1722 -10.9793,-20.7722 -3.0484,-6.6 -7.5126,-16.275 -9.9205,-21.5 -2.4078,-5.225 -6.2425,-13.1 -8.5215,-17.5 -5.2442,-10.12525 -0.9356,-10.00437 -52.8712,-1.48341 -3.3,0.54142 -7.35,1.20363 -9,1.47157 -24.7034,4.01149 -28.8318,5.01456 -28.2196,6.85648 0.5306,1.59636 11.4867,10.5181 17.3701,14.14471 2.6672,1.64414 8.8995,7.18215 13.8495,12.3067 13.0988,13.56073 26.958,23.20395 33.3485,23.20395 0.9255,0 3.2507,0.88773 5.1671,1.97273 1.9164,1.085 4.9469,2.71128 6.7344,3.61394 1.7875,0.90267 3.25,1.98146 3.25,2.39731 0,0.41585 4.1625,3.37052 9.25,6.56593 5.0875,3.19542 10.825,7.10638 12.75,8.69104 6.3256,5.2072 14.1379,11.21577 17.8894,13.75905 5.0434,3.41902 13.0848,9.95447 16.1106,13.09355 1.375,1.42644 5.425,5.00527 9,7.95295 3.575,2.94767 11.225,9.93684 17,15.53148 10.1574,9.84015 25.7465,22.42202 27.7812,22.42202 0.5469,0 3.284,1.575 6.0825,3.5 2.7984,1.925 5.4364,3.50107 5.8622,3.50238 0.4258,0.001 3.4223,1.80131 6.6591,4 5.3183,3.61268 8.615,4.93212 8.615,3.44796 z M 154.36553,414.36401 c 5.67716,-0.80697 10.63205,-1.65878 11.01086,-1.8929 0.37881,-0.23412 6.08386,-1.17065 12.67789,-2.08117 20.49635,-2.8302 20.36447,-2.77995 25.48914,-9.71337 7.59748,-10.27901 8.62156,-14.70985 5.0279,-21.754 -2.45311,-4.80849 -6.07071,-7.71617 -11.40845,-9.16964 -5.02206,-1.36751 -21.61529,1.17321 -28.37673,4.34497 -9.60463,4.5055 -18.13923,15.92239 -24.37009,32.60033 -1.57596,4.21831 -2.86701,8.00715 -2.869,8.41965 -0.005,1.0009 0.8111,0.95291 12.81848,-0.75387 z m 191.67789,-30.51498 c 6.6,-1.0569 30,-4.64704 52,-7.97809 66.00726,-9.99423 89.5975,-13.76723 90.26756,-14.43728 0.33709,-0.33709 -10.48858,-4.09901 -17.31336,-6.0164 -2.7752,-0.77968 -7.5002,-2.39644 -10.5,-3.59282 -16.30563,-6.50296 -32.89805,-8.27587 -51.21674,-5.47255 -12.2707,1.87779 -32.64417,6.36148 -34.23746,7.5348 -0.55,0.40503 -2.125,1.05988 -3.5,1.45522 -6.85129,1.96991 -42.93069,24.43784 -47.55292,29.61291 l -1.94708,2.17995 6,-0.68204 c 3.3,-0.37513 11.4,-1.54679 18,-2.6037 z m 163.86971,-73.23115 c 1.20502,-4.49649 0.73599,-6.75 -1.40489,-6.75 -2.30286,0 -6.96482,2.76426 -6.96482,4.12971 0,0.86964 5.84752,4.85896 7.13337,4.86655 0.34835,0.002 0.90471,-1.00876 1.23634,-2.24626 z m 518.63027,-32.78796 c 11.825,-1.67072 28.25,-4.143 36.5,-5.49395 8.25,-1.35095 15.9,-2.46582 17,-2.47749 1.1,-0.0117 2.6747,-0.44772 3.4993,-0.96899 1.3022,-0.82323 1.2107,-1.51111 -0.6968,-5.23469 -4.758,-9.28778 -8.506,-18.35288 -10.0983,-24.4239 -1.7506,-6.6746 -2.392,-7.31809 -4.8471,-4.86302 -2.1677,2.16776 -3.6417,1.90021 -2.3923,-0.43426 1.3441,-2.51137 1.3051,-3.06574 -0.2152,-3.06574 -2.4261,0 -12.4424,11.05204 -17.1767,18.95284 -0.8293,1.38396 -0.7238,1.38893 0.9999,0.0472 1.0599,-0.825 3.3816,-2.9625 5.1594,-4.75 1.7779,-1.7875 3.6719,-3.25 4.2089,-3.25 0.5371,0 -2.9665,4.00351 -7.7857,8.8967 -9.3736,9.51754 -22.4164,18.18895 -36.1459,24.03137 -7.0404,2.99598 -12.3508,6.07207 -10.482,6.07178 0.5349,-8e-5 10.6475,-1.3671 22.4725,-3.03781 z m 213.75,1297.37568 c 0.6875,-0.2774 1.8125,-0.2774 2.5,0 0.6875,0.2774 0.125,0.5044 -1.25,0.5044 -1.375,0 -1.9375,-0.227 -1.25,-0.5044 z m -89.75,-76.2787 c 0,-0.5824 0.45,-1.059 1,-1.059 0.55,0 1,0.1984 1,0.441 0,0.2425 -0.45,0.7191 -1,1.059 -0.55,0.3399 -1,0.1415 -1,-0.441 z m -70.1795,-147.0847 c -2.7169,-2.7168 -2.9595,-3.4568 -2.3778,-7.25 0.3564,-2.3233 0.607,-6.578 0.557,-9.4548 -0.1095,-6.3006 1.0783,-8.8213 4.5696,-9.6975 3.0131,-0.7563 5.4307,0.8016 5.4307,3.4996 0,1.0046 1.5275,2.9917 3.3945,4.4157 4.8829,3.7244 6.1614,7.3624 4.4618,12.6964 -1.4991,4.7047 -6.4338,8.8163 -10.5811,8.8163 -1.3702,0 -3.748,-1.3189 -5.4547,-3.0257 z m 9.9295,-4.9493 c 1.2375,-1.8264 2.25,-4.1044 2.25,-5.0621 0,-2.5021 -3.0742,-5.7772 -6.0907,-6.4887 l -2.5908,-0.6111 0.2161,6.9623 c 0.3179,10.2412 1.9017,11.5662 6.2154,5.1996 z m -29.8196,-29.6088 c -0.95,-1.1448 -1.025,-2.0457 -0.2703,-3.25 2.5295,-4.0364 8.604,-1.3967 6.3741,2.7699 -1.3142,2.4556 -4.2712,2.6882 -6.1038,0.4801 z m 2.7895,-23.6218 c 0.5719,-8.5766 1.5132,-11.0959 3.0635,-8.199 1.2527,2.3405 -0.6986,14.5464 -2.4166,15.117 -0.804,0.2671 -0.992,-1.7431 -0.6469,-6.918 z m 139.8742,2.4556 c 0.3477,-1.5125 1.7127,-5 3.0334,-7.75 1.3207,-2.75 2.102,-4.1 1.7364,-3 -0.3657,1.1 -1.375,4.5875 -2.243,7.75 -1.5642,5.6996 -3.7417,8.2849 -2.5268,3 z m -284.59408,-8.75 c 0,-2.6583 0.29799,-4.5353 0.6622,-4.1711 0.76192,0.7619 0.64989,7.6923 -0.13707,8.4793 -0.28882,0.2888 -0.52513,-1.6499 -0.52513,-4.3082 z m 148.01528,-24.6667 c 0.02,-5.5525 1.1414,-7.5543 2.9871,-5.3304 0.973,1.1724 1.0826,2.5618 0.4117,5.2213 -1.3535,5.366 -3.4176,5.4323 -3.3988,0.1091 z m 73.3001,-0.8403 c -3.4423,-1.3869 -4.6318,-4.644 -3.917,-10.7255 0.5657,-4.813 0.3885,-5.6194 -1.5853,-7.2178 -2.165,-1.753 -2.2718,-1.7363 -4.1482,0.6492 -1.5311,1.9464 -1.809,3.4364 -1.3555,7.2658 0.386,3.2593 0.1341,5.4141 -0.7791,6.663 -1.307,1.7874 -1.4191,1.783 -3.5464,-0.141 -5.6253,-5.0875 -8.5158,-16.6237 -5.5851,-22.291 1.7236,-3.3332 6.126,-6.1957 9.5285,-6.1957 2.9459,0 5.398,4.2423 4.5868,7.9357 -0.6373,2.9016 -0.5076,3.0417 3.3928,3.6654 5.8751,0.9395 6.7182,2.3873 5.3071,9.1148 -1.3268,6.3254 -0.8875,7.7221 2.1489,6.8316 6.4742,-1.8988 7.3007,-1.1202 3.1826,2.998 -2.615,2.6149 -3.7625,2.8446 -7.2301,1.4475 z m -29.2766,-7.9478 c -1.0443,-0.6606 -1.631,-3.7231 -2.0565,-10.7347 -0.3275,-5.3958 -0.4784,-9.977 -0.3354,-10.1806 0.143,-0.2035 1.3521,-0.096 2.687,0.2391 3.0345,0.7616 3.6352,2.9624 3.6524,13.381 0.014,8.4312 -0.5382,9.4516 -3.9475,7.2952 z m -28.7016,-19.609 c -0.3301,-0.86 -0.087,-2.6896 0.5398,-4.0656 0.8801,-1.9316 1.7628,-2.4299 3.8729,-2.1862 3.3328,0.3849 4.1323,3.1833 1.6828,5.89 -2.1034,2.3242 -5.2704,2.5122 -6.0955,0.3618 z m -11.3219,-6.9637 c 0.018,-6.007 1.0787,-8.2691 2.866,-6.1155 1.3477,1.6238 0.6161,5.981 -1.5305,9.1155 -1.2172,1.7774 -1.3493,1.4806 -1.3355,-3 z m 10.9725,-17.2184 c 0.2817,-3.1648 0.9622,-5.7541 1.5122,-5.7541 1.4006,0 1.7696,3.6801 0.7599,7.577 -1.4371,5.5459 -2.8288,4.4294 -2.2721,-1.8229 z m -6.2504,-12.9878 c -0.2204,-0.4215 -0.4906,-2.4538 -0.6004,-4.5163 -0.1484,-2.7877 0.1933,-3.75 1.3317,-3.75 1.116,0 1.5313,1.0687 1.5313,3.941 0,3.6281 -1.3137,6.1395 -2.2626,4.3253 z m 9.7463,-14.6559 c 0.284,-2.6892 0.5163,-6.2318 0.5163,-7.8724 0,-2.5381 0.2237,-2.7972 1.5,-1.738 2.002,1.6615 1.7795,5.6188 -0.5904,10.5 l -1.9421,4 0.5162,-4.8896 z m 319.7957,1.5835 c -3.9319,-2.4983 -5.938,-21.0859 -2.908,-26.9451 2.3528,-4.5499 7.0403,-5.6942 10.2357,-2.4988 1.1909,1.1908 3.3169,1.75 6.6535,1.75 4.2746,0 5.2777,0.4188 7.8214,3.2658 3.6338,4.0668 3.8481,8.9665 0.668,15.2712 -2.4624,4.882 -5.7395,6.6844 -10.1436,5.5791 -2.8137,-0.7062 -3.644,-2.1309 -5.7499,-9.8661 -0.7112,-2.6125 -1.5903,-4.75 -1.9535,-4.75 -1.5426,0 -2.9717,5.6891 -2.0428,8.1323 0.8981,2.3621 1.48,6.8546 1.2458,9.6177 -0.1189,1.4016 -1.9795,1.6175 -3.8266,0.4439 z m 17.5351,-8.6852 c 4.6995,-5.9745 2.9894,-15.9674 -2.6217,-15.3196 -2.6466,0.3056 -2.6884,0.4225 -2.4338,6.8109 0.4555,11.4297 1.4462,13.0971 5.0555,8.5087 z m -13.8145,-17.7832 c 0,-2.0163 -2.5216,0.1182 -2.7794,2.3528 -0.2706,2.3452 -0.2311,2.3604 1.25,0.4806 0.8412,-1.0677 1.5294,-2.3427 1.5294,-2.8334 z m 28.6414,16.0857 c -0.8167,-1.2712 -2.234,-4.9227 -3.1496,-8.1146 -2.3261,-8.1087 -1.3402,-14.8049 2.6772,-18.1854 3.6332,-3.0571 6.1636,-3.1786 8.9143,-0.4279 2.5995,2.5995 1.7267,3.6881 -1.5507,1.9341 -1.8958,-1.0145 -2.7906,-1.0482 -3.878,-0.1457 -2.0716,1.7192 -2.8079,6.8451 -1.6181,11.2637 1.0268,3.8133 2.2528,4.8235 3.4679,2.8575 0.3423,-0.5539 1.9439,-1.6905 3.559,-2.5257 4.1492,-2.1456 3.9146,0.07 -0.537,5.0739 -2.5443,2.8599 -3.4138,4.7039 -3.25,6.8929 0.2858,3.8202 -2.5282,4.6563 -4.635,1.3772 z m -100.6414,-12.8112 c 0,-1.1737 0.7686,-1.1737 3.5,0 1.7723,0.7616 1.6868,0.8674 -0.75,0.9297 -1.5125,0.039 -2.75,-0.3797 -2.75,-0.9297 z m -9.5829,-0.8659 c 0.4979,-0.8056 5.5829,-0.3661 5.5829,0.4825 0,0.2109 -1.3766,0.3834 -3.059,0.3834 -1.6825,0 -2.8182,-0.3897 -2.5239,-0.8659 z m -247.6261,-8.8612 c 0.4794,-6.4581 0.7607,-7.1212 2.348,-5.5339 0.7522,0.7522 0.8268,2.6228 0.2334,5.8511 -1.283,6.9787 -3.1063,6.7547 -2.5814,-0.3172 z m 10.209,-3.7729 c 0,-1.4907 0.4306,-2.3519 1,-2 0.55,0.3399 1,1.2399 1,2 0,0.7601 -0.45,1.6601 -1,2 -0.5694,0.3519 -1,-0.5093 -1,-2 z m -6.0691,-23.5 c -0.3575,-2.7378 0.1736,-14.3601 0.6948,-15.2033 0.2819,-0.4561 0.9829,-0.5386 1.5579,-0.1832 0.6637,0.4102 0.8001,2.8138 0.3735,6.5842 -0.7052,6.2332 -2.2747,11.494 -2.6262,8.8023 z m 8.7889,-3.6444 c -0.8104,-1.3113 0.4212,-10.3556 1.4103,-10.3556 1.1229,0 1.1062,8.0787 -0.02,9.8568 -0.4728,0.7462 -1.0983,0.9707 -1.3899,0.4988 z m -5.5298,-34.8556 c 0.1804,-2.9098 0.728,-4.791 1.31,-4.5 1.2763,0.6381 0.857,7.0462 -0.5524,8.4424 -0.7558,0.7487 -0.9771,-0.4027 -0.7576,-3.9424 z m 13.0808,-1.1042 c 0.3323,-0.3323 1.1948,-0.3678 1.9167,-0.079 0.7977,0.3192 0.5608,0.5562 -0.6042,0.6042 -1.0541,0.043 -1.6448,-0.193 -1.3125,-0.5253 z m -2.2708,-14.2778 c 0,-0.55 0.45,-1.2781 1,-1.618 0.55,-0.3399 1,-0.168 1,0.382 0,0.55 -0.45,1.2781 -1,1.618 -0.55,0.3399 -1,0.168 -1,-0.382 z m -536.4132,-5.868 c -0.35217,-2.6125 -0.89282,-6.4375 -1.20144,-8.5 -0.31923,-2.1334 -0.14455,-3.75 0.4052,-3.75 0.53149,0 1.47104,3.3934 2.0879,7.5408 1.35117,9.0847 1.36047,9.4592 0.2351,9.4592 -0.48755,0 -1.17459,-2.1375 -1.52676,-4.75 z m 528.7921,-12.0831 c 0.8862,-10.5715 2.8485,-12.9924 2.321,-2.8637 -0.2337,4.4878 -0.9437,8.3117 -1.6711,9 -1.0162,0.9616 -1.1439,-0.2443 -0.6499,-6.1363 z M 78.701311,1050.8679 c 0,-1.375 0.22698,-1.9375 0.50439,-1.25 0.27741,0.6875 0.27741,1.8125 0,2.5 -0.27741,0.6875 -0.50439,0.125 -0.50439,-1.25 z m 1023.944189,-1.95 c -0.077,-3.3692 0.1789,-4.169 1.0549,-3.293 0.8447,0.8447 0.8722,2.0459 0.1021,4.45 l -1.0549,3.293 -0.1021,-4.45 z m -553.85208,0.3103 c -2.34324,-0.9878 -1.22212,-17.8651 1.13281,-17.0533 0.68765,0.237 1.11719,3.2318 1.11719,7.789 l 0,7.404 5.5,-0.237 c 3.77909,-0.1628 4.87421,0.032 3.5,0.6225 -2.78533,1.1969 -9.74495,2.1092 -11.25,1.4748 z m 16.84783,-3.5095 c -0.60381,-1.7321 -1.09783,-4.1626 -1.09783,-5.401 0,-1.926 -0.50676,-2.2375 -3.50176,-2.1526 -4.36662,0.1238 -7.10838,-2.0634 -3.70295,-2.9539 1.47068,-0.3846 2.10563,-1.1595 1.81681,-2.2173 -1.20803,-4.4242 -1.65055,-11.126 -0.73465,-11.126 0.55,0 1.2904,2.1375 1.64534,4.75 1.31359,9.6688 2.01372,10.0393 9.67768,5.1214 6.32727,-4.0602 7.16703,-3.1259 1.42179,1.5819 l -4.48736,3.6771 1.42173,4.6848 c 1.78895,5.8949 1.79635,7.1848 0.0412,7.1848 -0.7712,0 -1.8962,-1.4172 -2.5,-3.1492 z m 975.17295,2.545 c 0.3323,-0.3323 1.1948,-0.3678 1.9167,-0.079 0.7977,0.3192 0.5608,0.5562 -0.6042,0.6042 -1.0541,0.043 -1.6448,-0.193 -1.3125,-0.5253 z m -435.2005,-26.2048 c -0.044,-3.3007 0.308,-5.0752 0.9297,-4.691 1.1977,0.7402 1.1977,5.2127 0,8 -0.6295,1.465 -0.8782,0.5799 -0.9297,-3.309 z m -9.0399,-8.816 c -0.042,-5.6877 1.0206,-10.4615 2.1704,-9.7509 1.0631,0.6571 0.099,9.9607 -1.282,12.3759 -0.5834,1.0199 -0.8677,0.1798 -0.8884,-2.625 z m 129.8212,-4.3695 c -2.1888,-2.1888 -2.9043,-3.6871 -2.522,-5.2807 1.9983,-8.32822 1.9634,-9.72482 -0.2431,-9.72482 -2.8249,0 -4.4181,4.26148 -3.6119,9.66132 1.1962,8.0115 -3.2284,6.2372 -8.7467,-3.5076 l -3.0275,-5.34637 -1.2177,2.8959 c -0.6697,1.59275 -2.6619,4.11127 -4.4272,5.59667 -7.2997,6.1423 -16.5507,4.2381 -11.2447,-2.3146 l 1.8949,-2.34007 -0.4664,3.17737 c -0.6568,4.4756 1.7561,4.182 6.7607,-0.8226 5.6371,-5.63712 5.3783,-8.01705 -1.2048,-11.07908 -10.8773,-5.05945 -14.1189,-10.66892 -7.4392,-12.8734 4.0171,-1.32578 7.9977,-0.12371 9.6184,2.90459 1.4026,2.62079 -0.1193,2.65023 -2.4744,0.0479 -2.1418,-2.36668 -3.4426,-2.49369 -6.0456,-0.59032 -1.9009,1.38999 -1.9001,1.44043 0.059,3.61032 1.0927,1.21035 4.9444,3.69145 8.5593,5.51355 l 6.5726,3.31291 -0.2502,-4.43251 c -0.3507,-6.21014 3.1495,-10.41398 8.6707,-10.41398 4.6419,0 6.7076,2.45693 7.1648,8.52161 0.2758,3.65831 0.5542,4.00315 3.4602,4.28619 4.9969,0.4867 5.736,2.13043 4.3236,9.61595 -0.6685,3.54307 -0.9187,6.92207 -0.5559,7.50907 0.9546,1.5446 3.7492,1.3105 6.3837,-0.5348 3.2337,-2.265 4.0364,-0.8028 1.1048,2.0127 -4.1232,3.9598 -7.5468,4.1434 -11.0954,0.5948 z m -7.9219,-24.56439 c 0.039,-1.13238 -0.6047,-2.93238 -1.4297,-4 -1.4848,-1.92151 -1.5152,-1.92151 -3,0 -2.2828,2.95416 -1.9097,7.06805 0.75,8.27017 2.4409,1.10323 3.5398,-0.17198 3.6797,-4.27017 z m -55.4169,23.57959 c -0.9463,-1.5312 1.3629,-5.0207 3.3224,-5.0207 2.7576,0 4.2381,1.9945 3.0828,4.1532 -1.0417,1.9465 -5.3756,2.5335 -6.4052,0.8675 z m -20.0128,-1.5994 c -0.55,-0.1416 -2.6875,-0.5398 -4.75,-0.8847 -2.0625,-0.345 -3.75,-1.0568 -3.75,-1.5819 0,-2.1864 19.1385,-0.1576 20.5845,2.182 0.527,0.8527 -9.0068,1.0772 -12.0845,0.2846 z m -1005.01587,-3.447 c -0.34866,-0.5641 -0.8823,-3.60167 -1.18588,-6.75003 -0.73847,-7.65857 1.27451,-5.8314 2.23172,2.02571 0.66819,5.48482 0.34011,6.96682 -1.04584,4.72432 z m 432.91166,-5.9001 c 0.77322,-5.82882 -0.57595,-7.3303 -3.01564,-3.35609 -0.93926,1.53003 -2.38709,3.89768 -3.21741,5.26144 -2.38018,3.90935 -2.45113,0.82616 -0.11724,-5.09496 1.16733,-2.96154 2.15394,-5.60961 2.19246,-5.88461 0.25539,-1.82312 6.10099,-13.59144 7.03922,-14.17129 0.63567,-0.39287 1.75408,-0.21774 2.48536,0.38916 1.51571,1.25793 0.94666,10.3089 -1.2546,19.95501 -1.45164,6.36124 -2.1438,7.82714 -3.69577,7.82714 -0.70339,0 -0.84601,-1.6871 -0.41638,-4.9258 z m 527.60421,4.2597 c -6.3163,-0.9949 -7.4411,-1.44313 -5.9478,-2.36999 0.7963,-0.49425 2.5728,-0.72913 3.9478,-0.52195 1.375,0.20719 4.6462,0.67138 7.2694,1.03154 2.6231,0.36015 4.509,1.076 4.1909,1.5907 -0.5706,0.9232 -4.5844,1.0377 -9.4603,0.2697 z m -544.34026,-6.66811 c -0.45357,-3.20881 -0.58446,-6.07441 -0.29086,-6.368 0.90414,-0.90414 1.78819,4.17958 1.44293,8.29751 -0.30542,3.6426 -0.38274,3.51308 -1.15207,-1.92951 z m 37.01374,2.67432 c -0.89891,-0.89892 -0.83318,-6.56215 0.0919,-7.91307 0.40408,-0.59012 1.44708,-1.33467 2.31778,-1.65457 0.8707,-0.31989 2.38576,-3.13351 3.3668,-6.25249 2.59762,-8.2585 7.49517,-9.63324 7.5348,-2.11501 0.015,2.84442 0.0571,2.86714 2.02144,1.08946 3.29956,-2.98606 3.45126,-0.91194 0.38232,5.22733 -1.73635,3.4735 -3.6444,5.91834 -4.78371,6.12952 -1.60434,0.29737 -1.80628,-0.0936 -1.31558,-2.5471 0.31882,-1.59411 0.21366,-3.49062 -0.23369,-4.21445 -0.54473,-0.88138 -1.44945,0.59218 -2.73923,4.46152 -1.80599,5.41798 -5.12363,9.30801 -6.64278,7.78886 z m 464.32652,-1.07146 c -1.925,-0.2262 -3.95,-0.87637 -4.5,-1.44484 -0.6865,-0.7095 1.038,-0.8773 5.5,-0.53517 6.7922,0.52081 10.9019,1.27992 11.802,2.17998 0.5792,0.57927 -7.2052,0.45767 -12.802,-0.19997 z m -476.14454,-1.74656 c -0.26284,-0.26285 -0.14509,-3.59255 0.26166,-7.39935 0.85128,-7.96711 3.60672,-14.10181 7.19692,-16.02323 5.08107,-2.7193 6.23781,1.77958 2.15989,8.40047 -3.11069,5.05051 -3.2692,8.5 -0.39058,8.5 3.13685,0 1.77352,2.33247 -2.11407,3.6169 -1.85929,0.6143 -3.55049,1.6268 -3.75823,2.25 -0.37967,1.13902 -2.46467,1.54613 -3.35559,0.65521 z m 530.11324,-1.88461 c -0.8474,-0.84345 0.195,-11.6375 1.1238,-11.6375 0.4991,0 0.8759,1.9125 0.8372,4.25 -0.071,4.321 -1.1103,8.23434 -1.961,7.3875 z m -96.8255,-1.52781 c -2.0685,-1.31066 0.1888,-2.1933 3.7749,-1.47607 1.7179,0.34359 3.3657,1.01658 3.6617,1.49554 0.6954,1.12521 -5.6563,1.10857 -7.4366,-0.0195 z m -36.64318,-3.82276 c -1.1,-0.26458 -2.45,-0.94284 -3,-1.50723 -0.6826,-0.7005 1.6542,-0.85593 7.3632,-0.48974 10.3534,0.66409 13.6654,2.76631 4.0868,2.59404 -3.5475,-0.0638 -7.35,-0.33248 -8.45,-0.59707 z m 123.93198,-5.53693 c 0.2306,-1.2375 0.4528,-3.75 0.4937,-5.58333 0.049,-2.214 0.4941,-3.18473 1.3243,-2.89079 1.9299,0.68325 0.7476,10.72412 -1.2628,10.72412 -0.536,0 -0.7859,-1.0125 -0.5552,-2.25 z m -189.60425,-1.65263 c -3.11975,-0.33472 -6.04475,-1.0003 -6.5,-1.47906 -1.25576,-1.32063 14.59942,-0.0912 15.9255,1.23492 1.27074,1.27074 0.36216,1.29427 -9.4255,0.24414 z m -35.82773,-3.98547 c -2.28269,-0.40751 -3.06422,-0.90459 -2.24706,-1.4292 1.49602,-0.96042 10.03852,0.17087 10.81837,1.43269 0.60011,0.97099 -3.12114,0.96947 -8.57131,-0.003 z m -41.76483,-4.81958 c -1.24566,-0.23942 -2.0066,-0.85314 -1.69098,-1.36381 0.8855,-1.43278 5.84872,-1.09856 8.01468,0.53969 1.84206,1.39326 1.78801,1.46287 -1.05887,1.36381 -1.65,-0.0574 -4.01917,-0.30026 -5.26483,-0.53969 z m -699.57878,-3.04232 c -0.25391,-0.4125 -0.75675,-3 -1.11743,-5.75 -0.60871,-4.64108 -0.54391,-4.86066 0.90263,-3.05887 0.85713,1.06762 1.55841,3.65512 1.55841,5.75 0,3.70024 -0.39513,4.5998 -1.34361,3.05887 z m 416.46517,-6.79085 c -0.61686,-4.14746 -1.09304,-8.53496 -1.05817,-9.75 0.0605,-2.11017 0.0989,-2.11955 0.85627,-0.20915 0.88304,2.22738 2.40471,17.5 1.7436,17.5 -0.23107,0 -0.92484,-3.39338 -1.5417,-7.54085 z m 237.62844,4.81238 c -2.0625,-0.21574 -3.75,-0.88005 -3.75,-1.47623 0,-1.40135 14.82668,-0.36862 16.33294,1.13764 1.08123,1.08123 -4.14015,1.22173 -12.58294,0.33859 z m -45.73992,-5.26883 c -3.6444,-0.8608 -0.80549,-2.22746 3.22291,-1.55153 1.79686,0.3015 4.55972,0.75354 6.1397,1.00454 1.57999,0.25099 3.128,0.71164 3.44003,1.02367 0.70291,0.70292 -9.40132,0.32671 -12.80264,-0.47668 z m 371.0896,-3.69368 c -0.055,-2.30504 0.3503,-4.4691 0.9003,-4.80902 1.1655,-0.72033 1.1655,2.86064 0,6.5 -0.6838,2.13521 -0.8152,1.88847 -0.9003,-1.69098 z m -416.34968,-1.03749 c -2.0625,-0.21574 -3.75,-0.8776 -3.75,-1.47078 0,-1.46638 15.17399,0.0399 16.80197,1.66789 0.56575,0.56574 -6.82639,0.45411 -13.05197,-0.19711 z m 407.95838,-10.46913 c 0.4831,-8.53674 0.9769,-10.51712 2.294,-9.2 1.0169,1.01688 -0.6331,14.30682 -1.9492,15.7 -0.4169,0.44132 -0.572,-2.48368 -0.3448,-6.5 z m -452.70838,5.46627 c -4.49711,-0.52843 -6.47127,-2.29595 -2.45,-2.19355 1.6225,0.0413 6.55,0.66248 10.95,1.38037 l 8,1.30526 -6.5,-0.0404 c -3.575,-0.0222 -8.075,-0.22548 -10,-0.45167 z m 480.99998,-2.64623 c 0,-2.47536 -3.1567,-4.07475 -8.6644,-4.3899 -2.9742,-0.17018 -6.6289,-0.80666 -8.1216,-1.41441 l -2.714,-1.10498 3.3574,-1.03205 c 2.3409,-0.71955 4.9146,-0.70175 8.5,0.0588 4.2007,0.89103 5.346,0.83159 6.2528,-0.32452 2.3709,-3.02236 6.3549,-0.55083 4.3126,2.67532 -0.4907,0.77513 -0.8991,2.64682 -0.9075,4.15932 -0.01,1.5125 -0.4653,2.75 -1.0153,2.75 -0.55,0 -1,-0.6199 -1,-1.37756 z M 608.04342,946.1411 c -1.65,-0.23491 -3.45,-0.87333 -4,-1.41872 -1.06327,-1.05434 8.99878,-0.30246 15.5,1.15822 3.005,0.67516 2.65142,0.77939 -2.5,0.737 -3.3,-0.0272 -7.35,-0.24159 -9,-0.4765 z m 550.10698,-0.85501 c -0.3339,-0.86998 -0.607,-2.93711 -0.607,-4.59362 0,-2.84974 -0.5316,-3.33714 -4.5,-4.12584 -0.55,-0.10931 -1.225,1.37625 -1.5,3.30125 -0.419,2.93333 -0.9048,3.5 -3,3.5 -2.405,0 -2.5317,-0.32288 -3.3358,-8.5 -0.7008,-7.12703 -0.5393,-9.38634 1,-13.98732 1.4482,-4.32868 2.4276,-5.69304 4.6386,-6.4616 6.4877,-2.25522 10.2078,5.2429 12.5022,25.19892 l 0.8335,7.25 -2.7123,0 c -1.5507,0 -2.9722,-0.6774 -3.3192,-1.58179 z m -3.4771,-14.48774 c 1.5986,-0.85556 1.8731,-1.70585 1.3718,-4.25 -0.8685,-4.40717 -2.5946,-8.68047 -3.5064,-8.68047 -1.6643,0 -2.6771,9.0596 -1.3883,12.41821 0.7192,1.87423 0.9228,1.90382 3.5229,0.51226 z m -588.62988,10.32929 c -2.75,-0.20886 -5.45,-0.8305 -6,-1.38142 -1.01046,-1.01216 5.46797,-0.48431 14,1.14069 l 4,0.76184 -3.5,-0.0707 c -1.925,-0.0389 -5.75,-0.24157 -8.5,-0.45043 z m 518.19388,-1.89924 c -1.3242,-1.32414 0.5564,-2.36052 4.2833,-2.36052 4.375,0 7.0228,0.79439 7.0228,2.10699 0,1.00948 -10.3188,1.24087 -11.3061,0.25353 z m -564.45554,-4.0476 c 0.95609,-0.25029 2.75609,-0.25937 4,-0.0202 1.24391,0.23919 0.46166,0.44398 -1.73834,0.45508 -2.2,0.0111 -3.21775,-0.18461 -2.26166,-0.4349 z m 525.26164,0.0321 c -1.1,-0.23261 -3.0309,-0.6436 -4.2909,-0.91331 -3.506,-0.75048 -1.5806,-2.43175 2.7848,-2.43175 4.7215,0 9.3517,1.63179 8.5073,2.99813 -0.6212,1.0051 -3.2685,1.13629 -7.0012,0.34693 z m 10,-0.34502 c -1.4824,-0.63701 -0.706,-0.87366 3,-0.9144 3.5782,-0.0393 4.5735,0.22067 3.5,0.9144 -1.7967,1.1611 -3.798,1.1611 -6.5,0 z m -543.76901,-0.65594 c 0.67703,-0.27392 2.02703,-0.29059 3,-0.0371 0.97297,0.25354 0.41903,0.47766 -1.23097,0.49804 -1.65,0.0204 -2.44606,-0.18706 -1.76903,-0.46099 z m -383.03346,-2.02753 c -0.27652,-0.44909 -0.83229,-3.0181 -1.23503,-5.70892 -0.50969,-3.40527 -0.40487,-4.69004 0.34485,-4.22669 0.59241,0.36613 1.38233,2.701 1.75536,5.18858 0.64293,4.28734 0.23383,6.53193 -0.86518,4.74703 z m 356.03346,-0.97247 c 0.67703,-0.27392 2.02703,-0.29059 3,-0.0371 0.97297,0.25354 0.41903,0.47766 -1.23097,0.49804 -1.65,0.0204 -2.44606,-0.18706 -1.76903,-0.46099 z m 516.76901,-0.999 c -1.09998,-0.23261 -3.01248,-0.63898 -4.24998,-0.90305 -1.2375,-0.26406 -2.25,-0.92154 -2.25,-1.46106 0,-1.3643 8.44248,-1.22827 13.25488,0.21356 3.2343,0.96902 3.6337,1.33329 2.116,1.92971 -2.0321,0.79854 -5.7065,0.89001 -8.8709,0.22084 z m 114.669,-5.13455 c 0.061,-3.43108 0.487,-5.15295 1.2125,-4.90088 1.2359,0.42939 0.9392,6.31057 -0.4384,8.69037 -0.5642,0.97482 -0.8353,-0.35196 -0.7741,-3.78949 z m -570.93698,-1.21051 c 0,-1.925 0.2058,-2.7125 0.45733,-1.75 0.25152,0.9625 0.25152,2.5375 0,3.5 -0.25153,0.9625 -0.45733,0.175 -0.45733,-1.75 z M 905.321,918.99957 c -1.89437,-0.43956 -2.47774,-1.02321 -1.91798,-1.91891 0.6471,-1.03545 2.20642,-1.05568 7.97242,-0.10345 3.94239,0.65108 7.16798,1.56782 7.16798,2.03722 0,0.96138 -9.0589,0.9512 -13.22242,-0.0149 z m -37.02758,-3.84794 c -1.5125,-0.22913 -2.75,-0.88913 -2.75,-1.46667 0,-1.44521 12.64483,-0.57225 14.19722,0.98014 0.93704,0.93704 0.10915,1.16968 -3.74722,1.05295 -2.7225,-0.0824 -6.1875,-0.3373 -7.7,-0.56642 z m -45,-4.97308 c -0.9625,-0.25152 -1.75,-0.93959 -1.75,-1.52903 0,-1.28184 12.17316,-0.45657 16,1.0847 1.99591,0.80386 0.98774,0.99628 -5,0.95427 -4.125,-0.0289 -8.2875,-0.25841 -9.25,-0.50994 z m 285.33558,-5.31067 c 0.03,-1.925 0.4417,-4.4 0.9144,-5.5 0.6752,-1.57133 0.8712,-1.14267 0.9144,2 0.03,2.2 -0.3812,4.675 -0.9144,5.5 -0.7235,1.11961 -0.9554,0.61242 -0.9144,-2 z m -324.83558,0.18175 c -1.2375,-0.17647 -2.25,-0.71379 -2.25,-1.19404 0,-1.07179 12.91882,-0.0828 15,1.14832 1.40817,0.833 -7.01729,0.86321 -12.75,0.0457 z m -659.58988,-1.92267 c -1.16408,-1.88352 -1.96523,-11.56568 -0.90267,-10.90898 0.58035,0.35867 1.36853,2.93044 1.75151,5.71504 0.66611,4.84321 0.30395,7.0592 -0.84884,5.19394 z m 15.77808,-2.73679 c -1.07864,-5.74968 -0.84987,-18.55791 0.50197,-28.10363 1.96274,-13.85946 11.0464,-14.23531 9.79232,-0.40517 -0.5115,5.64099 -4.5507,13.98651 -6.7694,13.98651 -0.61104,0 -0.95368,3.19954 -0.86503,8.07757 0.16124,8.87196 -1.4652,12.81276 -2.65986,6.44472 z m 5.1941,-21.30511 c 2.45739,-3.93492 3.34768,-13.51675 1.44105,-15.50956 -1.35014,-1.41117 -3.13291,1.96 -4.27002,8.07446 -1.47422,7.92724 0.0386,11.90321 2.82897,7.4351 z m 598.37778,21.89043 c -1.77842,-0.49499 -2.11937,-0.92203 -1.19316,-1.49446 1.59384,-0.98505 6.18308,0.0584 6.18308,1.4059 0,1.09361 -1.29631,1.11662 -4.98992,0.0886 z m 6.48992,-0.10761 c -0.33992,-0.55 -0.16803,-1 0.38197,-1 0.55,0 1.27811,0.45 1.61803,1 0.33992,0.55 0.16803,1 -0.38197,1 -0.55,0 -1.27811,-0.45 -1.61803,-1 z m 368.51528,-4.19098 c 0.017,-3.70516 1.3766,-6.60191 2.3552,-5.01849 0.782,1.26519 -0.3356,7.06988 -1.4997,7.7893 -0.4789,0.29601 -0.8639,-0.95085 -0.8555,-2.77081 z m -966.5554,1.12606 c -0.36383,-0.58868 -0.34974,-5.20239 0.0313,-10.2527 0.82083,-10.87923 3.18921,-15.66419 7.75882,-15.67555 2.48224,-0.006 2.75,0.33708 2.75,3.52529 0,1.94266 -0.675,5.14762 -1.5,7.12212 -0.825,1.97451 -1.5,4.48681 -1.5,5.58289 0,1.88831 0.12934,1.90814 2.46482,0.37788 5.21977,-3.42013 6.21736,-0.98882 1.42942,3.48378 -1.70816,1.59567 -3.95816,2.90121 -5,2.90121 -1.04183,0 -1.89424,0.43417 -1.89424,0.96482 0,1.58061 -3.76984,3.2166 -4.54012,1.97026 z m 13.54012,-1.87606 c 0,-0.51754 0.47776,-1.23626 1.06168,-1.59714 1.39521,-0.86229 2.59639,-3.99051 5.9371,-15.46188 3.00759,-10.3275 5.46772,-12.91748 6.65084,-7.00189 0.53588,2.6794 0.97232,3.06261 2.92877,2.57157 3.66704,-0.92037 3.62069,0.84503 -0.1173,4.46803 -2.65851,2.57673 -3.46464,4.17871 -3.4764,6.90846 -0.0186,4.31111 -1.27413,6.54048 -3.25534,5.78021 -0.89863,-0.34483 -2.31369,0.5727 -3.63087,2.35428 -2.02393,2.73751 -6.09848,4.0593 -6.09848,1.97836 z m 533.69385,0.3015 c -1.09315,-1.09316 0.32081,-2.36124 2.61517,-2.34534 1.20504,0.008 4.21598,0.65325 6.69098,1.4331 l 4.5,1.41793 -6.58333,0.0669 c -3.62084,0.0368 -6.8711,-0.22087 -7.22282,-0.57258 z m -158.53381,-2.52873 c -0.088,-1.46752 -0.45127,-3.49252 -0.80722,-4.5 -0.49621,-1.40448 -0.36258,-1.56986 0.57284,-0.70895 0.68497,0.63041 1.03898,2.60393 0.80722,4.5 -0.33557,2.74527 -0.44275,2.87791 -0.57284,0.70895 z m 123.08373,-1.49615 c -0.69093,-0.27855 -1.0426,-0.85212 -0.78149,-1.2746 0.46065,-0.74535 11.50918,0.57709 12.4185,1.48641 0.61654,0.61654 -10.06459,0.42213 -11.63701,-0.21181 z m 793.59911,-1.86775 c -0.9302,-1.6535 4.6201,-22.27025 6.783,-25.19558 3.0648,-4.14517 8.6575,-6.55594 11.8425,-5.10477 1.77,0.8065 2.5316,1.94073 2.5316,3.77047 0,3.64583 -2.1903,6.39743 -7.63,9.58531 -3.5871,2.10221 -4.3194,2.92551 -3.1726,3.56725 0.8199,0.45886 3.1716,0.56152 5.2261,0.22814 2.8178,-0.45727 3.9778,-1.24636 4.7225,-3.21244 2.102,-5.54921 8.402,-9.26466 10.354,-6.10627 0.3399,0.55 1.7165,1 3.059,1 1.3426,0 2.441,0.40598 2.441,0.90217 0,1.37109 -5.3546,2.94386 -8.1823,2.40331 -2.0483,-0.39155 -2.7298,0.0682 -3.7491,2.52889 -1.895,4.57488 -1.092,6.61367 2.7503,6.98352 4.2811,0.41207 3.6529,2.57277 -0.8759,3.01262 -2.6594,0.25829 -3.8442,-0.21548 -5.4229,-2.16841 -1.8955,-2.34474 -2.4416,-2.46424 -8.8525,-1.93698 l -6.8324,0.56193 -2.2239,5.07436 c -1.2232,2.7909 -2.469,4.63881 -2.7684,4.10648 z m 13.0583,-20.91678 c 1.541,-0.79689 3.5593,-2.60499 4.4852,-4.01801 1.432,-2.18561 1.4677,-2.65187 0.2387,-3.12346 -3.2867,-1.26123 -10.0054,4.27597 -8.9066,7.34036 0.5643,1.57401 0.7735,1.56406 4.1827,-0.19889 z m -843.15118,18.72042 c -2.0625,-0.21574 -3.75,-0.8151 -3.75,-1.3319 0,-1.17525 0.84807,-1.12975 9.5,0.5097 6.17837,1.17073 6.47181,1.31985 2.5,1.27044 -2.475,-0.0308 -6.1875,-0.23249 -8.25,-0.44824 z m 871.51978,-5.38693 c 0.7222,-6.73568 5.9243,-18.31047 9.1915,-20.45118 2.0307,-1.33055 3.0678,-1.41391 5.9123,-0.47515 3.4013,1.12256 4.6264,2.66157 4.6264,5.81208 0,1.28547 -0.4077,1.16914 -2.039,-0.58179 -3.2522,-3.49084 -6.8291,-2.33547 -9.0007,2.90731 -1.1743,2.83488 -1.1153,3.3176 0.554,4.53822 1.0274,0.75125 3.1054,1.36591 4.6178,1.36591 3.1616,0 4.7772,1.81525 2.746,3.08529 -0.7579,0.47392 -3.7303,1.35338 -6.6052,1.95435 -4.0677,0.85029 -5.5095,1.67162 -6.5,3.70267 -0.7001,1.4355 -1.9046,2.8163 -2.6767,3.06845 -1.1336,0.37022 -1.2927,-0.57776 -0.8264,-4.92616 z m -905.76978,1.37516 c -2.75,-0.20886 -5.45,-0.84831 -6,-1.42099 -1.26077,-1.31277 11.54782,-0.0641 12.95,1.26247 0.58491,0.55336 0.39276,0.82949 -0.5,0.71851 -0.7975,-0.0991 -3.7,-0.35113 -6.45,-0.55999 z m 519.21898,-12.50976 c 0.2911,-3.4375 0.9235,-6.6775 1.4052,-7.2 1.0434,-1.13179 1.1008,0.93242 0.2278,8.2 -0.8894,7.40495 -2.2731,6.55764 -1.633,-1 z m -599.96898,2.54427 c 1.2375,-0.23836 3.2625,-0.23836 4.5,0 1.2375,0.23835 0.225,0.43337 -2.25,0.43337 -2.475,0 -3.4875,-0.19502 -2.25,-0.43337 z m -393.5589,-8.37618 c -1.43119,-7.90864 -1.4315,-7.91809 -0.26306,-7.91809 1.04913,0 2.48583,9.73703 1.8618,12.61804 -0.2242,1.03508 -0.94363,-1.0799 -1.59874,-4.69995 z m 367.0589,5.39258 c 0.9625,-0.25152 2.5375,-0.25152 3.5,0 0.9625,0.25153 0.175,0.45733 -1.75,0.45733 -1.925,0 -2.7125,-0.2058 -1.75,-0.45733 z m 51.82895,-0.72734 c -0.0434,-1.05416 0.19293,-1.64479 0.52522,-1.3125 0.33229,0.33229 0.36781,1.1948 0.0789,1.91667 -0.31922,0.79773 -0.55618,0.56078 -0.60416,-0.60417 z m -63.07895,-0.52046 c 0,-0.51911 1.67273,-0.67901 3.75,-0.35846 5.19253,0.80127 5.3515,1.29559 0.41667,1.29559 -2.29167,0 -4.16667,-0.42171 -4.16667,-0.93713 z m 62.19495,-6.56287 c -0.0204,-1.65 0.18706,-2.44606 0.46099,-1.76903 0.27392,0.67703 0.29059,2.02703 0.0371,3 -0.25354,0.97297 -0.47766,0.41903 -0.49804,-1.23097 z m 950.00503,0.3 c -2.0933,-2.09329 -1.3193,-2.80038 3.05,-2.78635 6.4083,0.0206 9.049,0.92116 7.6486,2.60849 -1.4091,1.69792 -9.0515,1.82497 -10.6986,0.17786 z m 3.8,-19.24098 c 0,-0.24254 0.45,-0.7191 1,-1.05902 0.55,-0.33992 1,-0.14148 1,0.44098 0,0.58246 -0.45,1.05902 -1,1.05902 -0.55,0 -1,-0.19844 -1,-0.44098 z M 114.18469,832.36788 c -0.43164,-2.75 -1.04313,-6.07962 -1.35888,-7.39915 -0.37991,-1.58773 -0.20608,-2.17172 0.51399,-1.72669 1.27433,0.78758 2.55115,8.24425 2.00672,11.71928 -0.2526,1.61227 -0.63607,0.75629 -1.16183,-2.59344 z m 418.59073,0.5 c 0,-1.925 0.2058,-2.7125 0.45733,-1.75 0.25152,0.9625 0.25152,2.5375 0,3.5 -0.25153,0.9625 -0.45733,0.175 -0.45733,-1.75 z m -319.96117,-4.60417 c 0.33229,-0.33229 1.19479,-0.36781 1.91667,-0.0789 0.79773,0.31922 0.56078,0.55618 -0.60417,0.60416 -1.05416,0.0434 -1.64479,-0.19293 -1.3125,-0.52522 z m 318.92412,-2.89583 c -0.0204,-1.65 0.18706,-2.44606 0.46099,-1.76903 0.27392,0.67703 0.29059,2.02703 0.0371,3 -0.25354,0.97297 -0.47766,0.41903 -0.49804,-1.23097 z m -435.025799,-15.5 c -0.0157,-2.475 0.32321,-5.4 0.75317,-6.5 1.57457,-4.02831 2.1728,1.75863 0.6755,6.53436 l -1.40008,4.46564 -0.02859,-4.5 z m 0.83085,-10.44098 c 0,-0.85746 0.45,-1.55902 1,-1.55902 0.55,0 1,0.42344 1,0.94098 0,0.51754 -0.45,1.2191 -1,1.55902 -0.55,0.33992 -1,-0.0835 -1,-0.94098 z m 11.146549,-5.50165 c -1.3924,-8.4313 -1.42698,-10.1408 -0.16137,-7.97698 1.00724,1.72209 2.599,14.91961 1.79947,14.91961 -0.27035,0 -1.0075,-3.12418 -1.6381,-6.94263 z m -9.782909,-8.11072 c 0,-1.62066 0.36818,-2.94665 0.81818,-2.94665 0.449999,0 0.818179,1.09844 0.818179,2.44098 0,1.34254 -0.36818,2.66853 -0.818179,2.94665 -0.45,0.27812 -0.81818,-0.82033 -0.81818,-2.44098 z m 0.5186,-4.48671 c -0.27241,-0.52797 -0.20935,-2.53494 0.14013,-4.45994 0.42148,-2.32158 0.859759,-2.99496 1.301719,-2 0.74408,1.67511 -0.66147,7.97241 -1.441849,6.45994 z M 410.97595,755.32553 c -6.46467,-9.05942 -8.43253,-13.19436 -8.43253,-17.71875 0,-9.78855 7.8109,-14.31764 13.34655,-7.7389 1.38838,1.65 2.83521,3 3.21519,3 0.37997,0 3.22152,-1.27904 6.31456,-2.84232 3.09303,-1.56327 7.69887,-3.12112 10.23519,-3.46188 3.93699,-0.52895 4.91077,-0.29605 6.65761,1.59231 2.79345,3.01977 9.2309,14.20334 9.2309,16.03653 0,2.00302 -4.05493,0.95954 -5.8067,-1.49427 -1.69498,-2.37424 -2.8323,-2.31885 -3.48305,0.16963 -0.53226,2.03536 -2.35216,2.56083 -4.27614,1.23469 -0.58624,-0.40408 -2.7675,-3.32219 -4.84724,-6.48469 -3.67025,-5.58106 -5.94199,-7.06832 -6.87363,-4.5 -0.57253,1.5783 1.5881,6.96008 4.35334,10.8435 2.33451,3.27853 1.97951,5.92986 -0.7852,5.86417 -1.92262,-0.0457 -5.88912,-5.54662 -6.89807,-9.56657 -0.87596,-3.49011 -2.67908,-2.44318 -3.62387,2.10409 -0.86614,4.16879 -2.35031,6.50512 -4.13188,6.50427 -0.73906,-3.5e-4 -1.13657,-2.71467 -1.15372,-7.87782 -0.0272,-8.18004 -1.18995,-11.12164 -4.39628,-11.12164 -2.64294,0 -4.07838,2.09963 -4.06782,5.95 0.008,2.76381 1.55553,5.76463 6.98964,13.55 3.83895,5.5 6.83478,10.45 6.6574,11 -0.9358,2.9016 -3.81542,1.13608 -8.22425,-5.04235 z m 49.05031,-2.20765 c 0.965,-9.09951 2.11071,-10.81034 2.76349,-4.12661 0.48329,4.94823 -1.09112,10.87661 -2.88851,10.87661 -0.32495,0 -0.26869,-3.0375 0.12502,-6.75 z M 77.840561,723.66339 c -1.926,-2.43836 -3.19339,-21.49456 -1.99915,-30.05862 1.32122,-9.47466 5.22104,-12.9392 8.55523,-7.60032 2.66557,4.26827 6.98815,18.69188 7.64168,25.4988 0.65336,6.80516 0.0462,9.04906 -2.04265,7.54865 -1.61921,-1.1631 -5.0272,-5.57161 -3.7137,-4.80398 0.84445,0.49352 1.04378,0.21631 0.62646,-0.87123 -0.33665,-0.87729 -0.85259,-1.35456 -1.14654,-1.06061 -0.29395,0.29394 -1.13836,0.0332 -1.87646,-0.57932 -1.0997,-0.91267 -1.34201,0.082 -1.34201,5.50868 0,3.64234 -0.1882,6.62244 -0.41821,6.62244 -0.23002,0 -1.05792,0.24548 -1.83979,0.54551 -0.78186,0.30003 -1.88205,-0.0375 -2.44486,-0.75 z m 6.18281,-23.8916 c -1.71304,-8.20888 -3.48442,-9.92283 -3.4663,-3.35391 0.0185,6.72007 0.87912,9.45 2.97902,9.45 1.62593,0 1.6629,-0.4625 0.48728,-6.09609 z m 44.520049,23.21478 c 0,-0.48472 1.575,-2.08262 3.5,-3.55089 4.18713,-3.19369 4.64659,-2.04048 0.69528,1.74511 -2.89611,2.77465 -4.19528,3.33386 -4.19528,1.80578 z m 9,-8.61869 c 0.68469,-0.825 1.46989,-1.5 1.74489,-1.5 0.275,0 -0.0602,0.675 -0.74489,1.5 -0.68469,0.825 -1.46989,1.5 -1.74489,1.5 -0.275,0 0.0602,-0.675 0.74489,-1.5 z m 14.56291,-14.59138 c 1.6154,-1.70025 4.28709,-4.04517 5.93709,-5.21093 2.7841,-1.96701 2.8958,-1.97843 1.55216,-0.15862 -3.25509,4.40865 -7.53462,8.46093 -8.93542,8.46093 -1.00936,0 -0.54225,-0.9985 1.44617,-3.09138 z M 1456.23,689.14338 c -0.5623,-5.37941 -3.3295,-13.24112 -7.3126,-20.7755 l -1.586,-3 2.5611,3 c 4.4552,5.21857 9.6129,22.32548 7.676,25.45947 -0.3994,0.64617 -1.0017,-1.46162 -1.3385,-4.68397 z M 174.54342,679.02639 c 0,-0.92526 12.47027,-13.15851 13.41345,-13.15851 1.61338,0 0.0651,2.44922 -5.02116,7.943 -5.04199,5.44595 -8.39229,7.52804 -8.39229,5.21551 z m -67.27395,-11.40851 c 0.55058,-6.68388 0.86809,-7.66872 1.76923,-5.48772 0.86434,2.09197 -0.27076,10.73772 -1.40976,10.73772 -0.43556,0 -0.59732,-2.3625 -0.35947,-5.25 z m 0.80145,-12 c 0.18089,-2.3375 0.62311,-8.92765 0.98271,-14.64479 0.3596,-5.71713 0.83819,-12.24213 1.06352,-14.5 0.22533,-2.25786 0.64083,-7.93021 0.92334,-12.60521 0.28251,-4.675 0.72266,-9.85 0.9781,-11.5 0.25545,-1.65 0.72519,-7.91632 1.04387,-13.92515 0.31868,-6.00883 0.74367,-11.19091 0.94442,-11.51572 0.20074,-0.32482 0.658,-4.8585 1.01613,-10.07485 0.35813,-5.21635 0.8607,-10.76464 1.11682,-12.32952 0.25612,-1.56488 0.66244,-6.06488 0.90292,-10 0.79368,-12.98703 1.49543,-18.77644 2.50445,-20.66182 1.26603,-2.36561 1.26884,-3.27946 0.008,-2.50002 -0.56686,0.35034 -0.7345,-0.0511 -0.39301,-0.94098 0.32755,-0.85357 1.04849,-1.55194 1.60209,-1.55194 0.63455,0 0.74214,1.75551 0.2911,4.75 -0.39351,2.6125 -0.85471,9.925 -1.0249,16.25 -0.1702,6.325 -0.52833,12.175 -0.79586,13 -0.26753,0.825 -1.21892,12.075 -2.1142,25 -1.56925,22.65482 -2.12709,29.50147 -3.01464,37 -0.22785,1.925 -0.69358,8.675 -1.03495,15 -0.34137,6.325 -1.08233,14.82553 -1.64658,18.89007 -0.56424,4.06453 -1.08895,8.22703 -1.166,9.25 -0.0771,1.02296 -0.67466,1.85993 -1.32801,1.85993 -0.78245,0 -1.07564,-1.45058 -0.85899,-4.25 z m 94.07461,-2.58479 c -0.2856,-0.46211 1.22099,-2.53953 3.34798,-4.61648 4.73831,-4.62683 7.49843,-4.42364 3.55591,0.26177 -3.09213,3.67479 -6.13709,5.59543 -6.90389,4.35471 z m 27.39789,-26.96904 c 0,-1.39151 6.59724,-7.2656 7.33333,-6.5295 0.38601,0.38601 -0.74435,2.19392 -2.51191,4.01758 -3.14591,3.24575 -4.82142,4.11868 -4.82142,2.51192 z m -9.55738,-18.28901 c -1.1637,-1.8829 1.66337,-20.19084 3.8461,-24.90716 3.46115,-7.47865 5.84656,-10.18286 8.414,-9.53848 1.92235,0.48248 2.63333,-0.20218 4.87901,-4.69837 2.88391,-5.77403 8.04958,-11.76315 10.14582,-11.76315 2.74082,0 2.30323,2.95252 -1.14996,7.75911 -3.20174,4.45659 -6.57759,11.05872 -6.57759,12.86376 0,0.37791 0.89062,-0.11889 1.97915,-1.104 1.81061,-1.63858 2.03295,-1.65091 2.61091,-0.14478 0.38413,1.00102 -0.41158,3.01419 -2.03005,5.13612 -2.69498,3.5333 -3.33645,3.84749 -7.22712,3.53978 -1.69515,-0.13407 -2.9474,1.2239 -5.75,6.23541 -1.97059,3.52374 -3.5854,7.26355 -3.58847,8.3107 -0.0185,6.31942 -3.53201,11.57914 -5.5518,8.31106 z m 32.57421,-4.15716 c 0.0265,-1.96921 12.58828,-13.47823 13.60327,-12.46323 0.69476,0.69476 -11.43644,13.71323 -12.77861,13.71323 -0.46282,0 -0.83392,-0.5625 -0.82466,-1.25 z m 23.56005,-22.6256 c -0.49473,-0.8005 8.60435,-10.1244 9.88028,-10.1244 1.33757,0 0.29395,2.21388 -2.5943,5.50342 -3.57663,4.07354 -6.4845,5.9178 -7.28598,4.62098 z m -24.57452,-5.62155 c -0.99565,-1.19969 -0.88404,-3.78299 0.5617,-13.00155 1.14563,-7.3049 2.21981,-11.41257 2.9427,-11.25285 0.62615,0.13835 2.60869,-1.21674 4.40565,-3.01132 7.08754,-7.07819 10.68639,-5.80735 5.1597,1.82202 -4.04162,5.5793 -4.0634,7.73995 -0.0721,7.15416 4.28775,-0.62931 3.72767,0.99122 -2,5.78669 -2.75,2.30243 -5.00251,4.70683 -5.00558,5.34312 -0.003,0.63628 -0.47422,2.84438 -1.047,4.90688 -1.09592,3.94622 -2.86921,4.75409 -4.94506,2.25285 z m 47.99764,-17.29044 c 0,-0.77809 7.25114,-7.93929 11.89551,-11.74795 2.39525,-1.96425 2.39539,-1.96423 1.30608,0.11501 -3.13992,5.99339 -13.20159,14.8595 -13.20159,11.63294 z m 184,-15.17156 c 0,-5.16288 2.20876,-18.04085 3.09427,-18.04085 0.87789,0 0.39502,13.37083 -0.65907,18.25 -0.79034,3.6583 -2.4352,3.51703 -2.4352,-0.20915 z m -157.4004,-9.87969 c -0.48605,-0.78644 0.53063,-1.85427 9.1504,-9.61081 4.67498,-4.20681 4.00607,-1.32591 -0.93735,4.03708 -4.57783,4.96635 -7.40334,6.88387 -8.21305,5.57373 z M 120.31299,509.11788 c 0.40522,-6.47179 2.23043,-9.80646 2.23043,-4.075 0,4.50404 -1.03994,9.825 -1.92023,9.825 -0.36862,0 -0.50821,-2.5875 -0.3102,-5.75 z m 232.23043,-1.88252 c 0,-0.65513 11.37557,-11.30186 15.76267,-14.75275 2.47679,-1.94825 2.48619,-1.94824 1.44256,0.002 -2.13902,3.99659 -13.47169,15.38327 -15.31051,15.38327 -1.0421,0 -1.89472,-0.28463 -1.89472,-0.63252 z m -230.92105,-7.78415 c -0.0434,-1.05416 0.19292,-1.64479 0.52522,-1.3125 0.33229,0.33229 0.36781,1.19479 0.0789,1.91667 -0.31922,0.79773 -0.55618,0.56078 -0.60416,-0.60417 z m 258.92161,-18.33333 c 3e-4,-0.4125 2.98439,-3.41833 6.63131,-6.67963 7.09135,-6.3415 7.12235,-4.39143 0.0502,3.15406 -3.62549,3.86812 -6.68291,5.48141 -6.68146,3.52557 z m 20.99944,-19.64702 c 0,-1.25962 11.39532,-12.01814 14.94667,-14.1114 2.59448,-1.52926 -2.53669,4.83056 -8.27903,10.26143 -5.92795,5.60641 -6.66764,6.03351 -6.66764,3.84997 z M 0.29342052,438.2056 c 0.6875,-0.27741 1.81249998,-0.27741 2.49999998,0 0.6875,0.27741 0.125,0.50439 -1.25,0.50439 -1.37499998,0 -1.93749998,-0.22698 -1.24999998,-0.50439 z m 6.52083298,-0.94189 c 0.332292,-0.33229 1.194792,-0.36781 1.916667,-0.0789 0.797733,0.31922 0.560776,0.55618 -0.604167,0.60416 -1.054166,0.0434 -1.644791,-0.19293 -1.3125,-0.52522 z M 426.54342,436.98834 c 0,-0.81167 6.86401,-6.79549 9.75172,-8.50124 2.03979,-1.20489 -2.78348,6.28962 -5.08555,7.90205 -2.3522,1.64754 -4.66617,1.94468 -4.66617,0.59919 z M 19.793421,435.17855 c 0.9625,-0.25152 2.5375,-0.25152 3.5,0 0.9625,0.25153 0.175,0.45733 -1.75,0.45733 -1.925,0 -2.7125,-0.2058 -1.75,-0.45733 z m 6.480968,-0.96661 c 0.677033,-0.27392 2.027033,-0.29059 3,-0.0371 0.972968,0.25354 0.419032,0.47766 -1.230968,0.49804 -1.65,0.0204 -2.446064,-0.18706 -1.769032,-0.46099 z m 6,-1 c 0.677033,-0.27392 2.027033,-0.29059 3,-0.0371 0.972968,0.25354 0.419032,0.47766 -1.230968,0.49804 -1.65,0.0204 -2.446064,-0.18706 -1.769032,-0.46099 z m 6.519032,-1.03339 c 0.9625,-0.25152 2.5375,-0.25152 3.5,0 0.9625,0.25153 0.175,0.45733 -1.75,0.45733 -1.925,0 -2.7125,-0.2058 -1.75,-0.45733 z m 6.480968,-0.96661 c 0.677033,-0.27392 2.027033,-0.29059 3,-0.0371 0.972968,0.25354 0.419032,0.47766 -1.230968,0.49804 -1.65,0.0204 -2.446064,-0.18706 -1.769032,-0.46099 z m 7.539865,-0.94823 c 0.332292,-0.33229 1.194792,-0.36781 1.916667,-0.0789 0.797733,0.31922 0.560776,0.55618 -0.604167,0.60416 -1.054166,0.0434 -1.644791,-0.19293 -1.3125,-0.52522 z m 6.479167,-1.05811 c 0.6875,-0.27741 1.8125,-0.27741 2.5,0 0.6875,0.27741 0.125,0.50439 -1.25,0.50439 -1.375,0 -1.9375,-0.22698 -1.25,-0.50439 z m 6,-1 c 0.6875,-0.27741 1.8125,-0.27741 2.5,0 0.6875,0.27741 0.125,0.50439 -1.25,0.50439 -1.375,0 -1.9375,-0.22698 -1.25,-0.50439 z m 34.749999,-5.33772 c 1.65,-0.41985 4.35,-0.76486 6,-0.76669 2.52234,-0.003 2.36313,0.12842 -1,0.82406 -5.065559,1.04778 -9.158589,1.00081 -5,-0.0574 z m 10.75,-1.68933 c 0.9625,-0.25152 2.5375,-0.25152 3.5,0 0.9625,0.25153 0.175,0.45733 -1.75,0.45733 -1.925,0 -2.7125,-0.2058 -1.75,-0.45733 z m 196.20888,-0.3772 c -0.36253,-0.58659 -0.41903,-1.30665 -0.12555,-1.60014 0.71632,-0.71631 2.66667,0.54583 2.66667,1.72569 0,1.27797 -1.72641,1.19267 -2.54112,-0.12555 z m 548.10541,-7.2266 c 0.37553,-0.98622 0.93469,-1.54122 1.24258,-1.23333 0.30789,0.30789 6.4e-4,1.11479 -0.68278,1.79313 -0.98762,0.98026 -1.10248,0.8654 -0.5598,-0.5598 z m -395.09017,-8.68072 c 3.25133,-3.28562 6.1107,-5.77466 6.35416,-5.53121 0.72723,0.72724 -2.90606,5.81083 -6.22829,8.71442 -5.91241,5.16738 -6.00758,2.76052 -0.12587,-3.18321 z m 11.52588,-10.8537 c 0,-0.8066 9.56815,-10.18975 13.43675,-13.17696 3.74511,-2.89184 -2.66009,7.02834 -6.86675,10.63503 -3.75802,3.22203 -6.57,4.30999 -6.57,2.54193 z M 131.06783,383.11788 c 0.18544,-0.9625 0.86144,-9.85 1.50223,-19.75 0.64079,-9.9 1.55649,-19.125 2.03489,-20.5 0.8427,-2.42206 0.69306,2.50536 -0.51626,17 -0.25238,3.025 -0.74531,9.8875 -1.0954,15.25 -0.35008,5.3625 -1.00239,9.75 -1.44957,9.75 -0.44719,0 -0.66134,-0.7875 -0.47589,-1.75 z m 3.67054,-46.75 c -0.0204,-1.65 0.18706,-2.44606 0.46099,-1.76903 0.27392,0.67703 0.29059,2.02703 0.0371,3 -0.25354,0.97297 -0.47766,0.41903 -0.49804,-1.23097 z m 642.33803,-3.43622 c -1.77802,-3.43831 -1.67234,-3.54003 1.95896,-1.8855 1.42232,0.64805 2.456,1.84826 2.29705,2.66713 -0.52704,2.71528 -2.64923,2.32553 -4.25601,-0.78163 z M 134.54342,330.4269 c 0,-0.85746 0.45,-1.55902 1,-1.55902 0.55,0 1,0.42344 1,0.94098 0,0.51754 -0.45,1.2191 -1,1.55902 -0.55,0.33992 -1,-0.0835 -1,-0.94098 z m 1.40285,-14.30902 c 0.37261,-6.4625 0.88959,-13.325 1.14885,-15.25 0.25927,-1.925 0.5457,-5.8625 0.63652,-8.75 0.0908,-2.8875 0.47295,-5.25 0.84917,-5.25 0.37623,0 0.57467,1.4625 0.44099,3.25 -0.13368,1.7875 -0.81036,11.0125 -1.50372,20.5 -0.69337,9.4875 -1.4831,17.25 -1.75497,17.25 -0.27186,0 -0.18944,-5.2875 0.18316,-11.75 z m 2.6761,-32.66667 c -0.0434,-1.05416 0.19292,-1.64479 0.52522,-1.3125 0.33229,0.33229 0.36781,1.19479 0.0789,1.91667 -0.31922,0.79773 -0.55618,0.56078 -0.60416,-0.60417 z m 0.28251,-7.55382 c 0.48881,-5.42659 1.24208,-5.9883 1.33433,-0.995 0.0405,2.19445 -0.32605,4.23698 -0.81465,4.53895 -0.48859,0.30197 -0.72245,-1.29281 -0.51968,-3.54395 z M 1469.5434,275.4269 c 0,-0.24254 0.45,-0.7191 1,-1.05902 0.55,-0.33992 1,-0.14148 1,0.44098 0,0.58246 -0.45,1.05902 -1,1.05902 -0.55,0 -1,-0.19844 -1,-0.44098 z M 139.70131,267.86788 c 0,-1.375 0.22698,-1.9375 0.50439,-1.25 0.27741,0.6875 0.27741,1.8125 0,2.5 -0.27741,0.6875 -0.50439,0.125 -0.50439,-1.25 z m 374.30014,-12.65355 c 0.94718,-9.5613 3.54197,-44.32355 3.54197,-47.45157 0,-1.59218 0.3825,-2.89488 0.85,-2.89488 0.4675,0 0.71025,1.6875 0.53945,3.75 -0.1708,2.0625 -0.78645,12.075 -1.3681,22.25 -1.2891,22.55066 -1.96963,28.85 -3.19879,29.60967 -0.57468,0.35517 -0.71722,-1.70292 -0.36453,-5.26322 z M 150.09293,230.94798 c -0.35033,-0.56684 -0.64498,-4.67479 -0.65476,-9.12877 -0.0178,-8.0813 0.95916,-10.95133 3.72769,-10.95133 0.75766,0 1.37756,-0.41796 1.37756,-0.9288 0,-2.09338 6.82355,-8.0712 9.21309,-8.0712 3.10211,0 5.78691,2.87086 5.78691,6.18795 0,2.28137 -5.90526,10.29009 -9.87566,13.39337 -0.7609,0.59473 -2.33766,3.06973 -3.5039,5.5 -2.06248,4.2979 -4.77986,6.08778 -6.07093,3.99878 z m -34.97808,-1.65153 c -3.69219,-3.69219 0.15602,-16.49711 6.58305,-21.9051 3.40813,-2.86775 6.84552,-3.32795 6.84552,-0.91648 0,0.98585 -0.55511,1.39397 -1.43618,1.05588 -2.40584,-0.92321 -6.09712,2.90579 -8.96768,9.30225 -3.3918,7.55793 -3.19899,11.40752 0.59328,11.84546 2.04047,0.23563 3.66923,-0.66923 6.75,-3.75 2.23332,-2.23332 4.06058,-4.70629 4.06058,-5.49548 0,-0.7892 0.48496,-2.7017 1.07768,-4.25 l 1.07768,-2.8151 1.92232,2.36078 c 1.05728,1.29844 1.92232,3.43594 1.92232,4.75 0,3.5307 1.11729,2.94689 4.85463,-2.5367 3.53683,-5.18937 7.84446,-9.70832 8.56628,-8.98651 0.96768,0.96769 -8.61112,18.99096 -10.88491,20.4808 -3.41585,2.23815 -5.86071,1.44749 -7.07251,-2.28722 -0.98265,-3.02849 -1.10105,-3.09115 -2.27847,-1.20581 -1.63754,2.62213 -7.12514,5.91622 -9.86359,5.92092 -1.19822,0.002 -2.88572,-0.7034 -3.75,-1.56769 z m 404.09153,-40.0692 c 0.2997,-6.67735 0.89959,-13.65235 1.33311,-15.5 0.98134,-4.18255 0.0925,14.47968 -1.05454,22.14063 -0.55536,3.70926 -0.64606,1.54714 -0.27857,-6.64063 z m 27.67078,-36.19439 c -1.78185,-1.17413 -2.2869,-5.46534 -1.16679,-9.91372 1.23488,-4.90415 1.25367,-4.8566 -2.26843,-5.74059 -2.23157,-0.56009 -2.7789,-0.21368 -3.88622,2.45964 -2.65831,6.41771 -7.03988,10.00615 -8.27804,6.77957 -0.26384,-0.68756 1.03802,-5.0213 2.89301,-9.63053 1.855,-4.60923 3.37273,-9.25468 3.37273,-10.32321 0,-1.26653 0.57184,-1.83024 1.64282,-1.61946 1.782,0.35071 2.82094,1.80693 4.33303,6.07332 1.04469,2.94763 4.5933,3.78085 6.78177,1.59238 1.44332,-1.44332 4.25098,0.57001 4.22556,3.03006 -0.0317,3.06648 -6.62366,17.96847 -7.64944,17.29254 z m -39.66707,-3.83165 c -2.65901,-2.659 5.15145,-22.64351 10.27571,-26.2923 2.26063,-1.60971 3.06775,-1.72041 5.11218,-0.70115 4.59823,2.29247 3.87057,7.04918 -2.08964,13.66012 -2.23138,2.475 -5.16891,6.6375 -6.52783,9.25 -2.30502,4.43132 -4.87341,5.98035 -6.77042,4.08333 z m 769.99821,-29.50687 c -0.7368,-2.81755 0.1605,-4.21624 1.8209,-2.83825 1.3181,1.09393 0.9383,5.01179 -0.4858,5.01179 -0.4217,0 -1.0225,-0.97809 -1.3351,-2.17354 z M 1031.2542,83.173248 c -0.2616,-0.442952 -0.8055,-2.380368 -1.2087,-4.305368 -1.345,-6.421915 -3.6066,-7.461266 -8.4475,-3.882228 -2.9048,2.147628 -5.0546,1.889118 -5.0546,-0.607819 0,-2.548994 20.8271,-19.509953 23.9571,-19.509953 0.5482,0 1.6986,1.071017 2.5563,2.380038 1.4148,2.159317 1.4108,2.785303 -0.043,6.75 -0.8814,2.403479 -1.8628,5.269962 -2.1808,6.369962 -0.318,1.1 -1.0757,2.623721 -1.6837,3.386046 -0.6081,0.762326 -1.8379,3.237326 -2.733,5.5 -1.5175,3.8362 -4.0674,5.772328 -5.1618,3.919322 z m 5.2892,-16.805368 c 0,-0.825 -0.1699,-1.5 -0.3776,-1.5 -0.2076,0 -0.9377,0.675 -1.6224,1.5 -1.0196,1.228508 -0.9512,1.5 0.3776,1.5 0.8923,0 1.6224,-0.675 1.6224,-1.5 z m -35.6743,7.75 c -0.94618,-1.5125 -1.77658,-2.85756 -1.84538,-2.989023 -0.069,-0.131463 -2.4685,0.751072 -5.3328,1.961189 -5.135,2.169481 -5.2559,2.174244 -8.6601,0.341001 -6.7239,-3.621101 -4.9503,-13.184385 3.1637,-17.0586 6.6793,-3.18915 8.8258,-0.625472 2.7645,3.301809 -5.7074,3.698063 -7.8568,11.193624 -3.2097,11.193624 4.4002,0 8.9333,-3.277004 11.9657,-8.650076 1.66058,-2.942458 3.59628,-5.349924 4.30138,-5.349924 2.3941,0 3.8061,2.892963 3.2087,6.574302 l -0.5773,3.557374 6.4844,-6.065838 c 6.6681,-6.237713 8.3699,-7.025506 10.259,-4.749224 0.8442,1.017244 -1.0421,3.518405 -8.2962,11 -5.164,5.325862 -10.0902,9.683386 -10.9472,9.683386 -0.8571,0 -2.3325,-1.2375 -3.2787,-2.75 z M 956.19408,36.399905 c -0.30982,-0.807386 -0.13297,-1.733944 0.39301,-2.059017 0.52598,-0.325073 0.95633,0.335516 0.95633,1.467975 0,2.414565 -0.55611,2.658155 -1.34934,0.591042 z"
     id="path3265"
     style="fill:#000000" />
</svg>
