<?xml version="1.0" encoding="UTF-8" standalone="no"?>
<!-- Created with Inkscape (http://www.inkscape.org/) -->

<svg
   xmlns:dc="http://purl.org/dc/elements/1.1/"
   xmlns:cc="http://creativecommons.org/ns#"
   xmlns:rdf="http://www.w3.org/1999/02/22-rdf-syntax-ns#"
   xmlns:svg="http://www.w3.org/2000/svg"
   xmlns="http://www.w3.org/2000/svg"
   version="1.1"
   width="1562.113"
   height="1712.0234"
   id="svg3027">
  <metadata
     id="metadata3033">
    <rdf:RDF>
      <cc:Work
         rdf:about="">
        <dc:format>image/svg+xml</dc:format>
        <dc:type
           rdf:resource="http://purl.org/dc/dcmitype/StillImage" />
        <dc:title></dc:title>
      </cc:Work>
    </rdf:RDF>
  </metadata>
  <defs
     id="defs3031" />
  <path
     d="m 593.56474,1704.8199 c 14.8505,-15.3268 22.37981,-22.5718 31.01628,-29.8452 11.90674,-10.0274 16.76212,-13.2558 27.20395,-18.0882 13.92631,-6.4449 18.15375,-8.7393 28.25941,-15.3377 5.225,-3.4115 11.3,-7.2407 13.5,-8.5093 2.2,-1.2685 7.27264,-4.525 11.27254,-7.2367 11.28928,-7.6533 22.22409,-12.2489 40.74451,-17.1236 9.3506,-2.4611 18.79701,-4.7811 20.99202,-5.1556 2.19501,-0.3744 7.81593,-1.9783 12.49093,-3.5643 4.675,-1.5859 10.525,-3.0901 13,-3.3426 2.475,-0.2524 7.875,-0.9924 12,-1.6443 4.125,-0.652 11.19438,-1.7652 15.70974,-2.4739 4.51536,-0.7086 9.63167,-1.9978 11.36958,-2.8648 1.73791,-0.867 8.16852,-2.2579 14.29026,-3.0909 12.26275,-1.6686 27.08849,-3.995 38.63042,-6.0616 4.125,-0.7386 9.975,-1.6282 13,-1.9769 3.025,-0.3487 7.075,-1.0611 9,-1.5831 1.925,-0.522 17.225,-1.1615 34,-1.4212 33.45487,-0.5178 43.79989,-1.0698 47.67752,-2.5441 1.40825,-0.5354 7.79441,-1.8299 14.1915,-2.8765 6.397,-1.0467 12.7846,-2.3445 14.1945,-2.8839 1.4099,-0.5394 9.2849,-1.0196 17.5,-1.0671 8.2151,-0.048 24.4832,-0.5662 36.1514,-1.1528 14.9286,-0.7505 22.9095,-0.7533 26.9337,-0.01 7.2781,1.3455 25.7886,1.3703 30.358,0.041 1.9214,-0.559 8.5675,-1.9172 14.7692,-3.0183 6.2017,-1.101 14.3017,-3.1421 18,-4.5358 3.6983,-1.3936 10.5629,-3.6145 15.2546,-4.9351 7.2576,-2.043 45.4588,-20.2378 49.6165,-23.6318 0.6308,-0.515 6.7058,-3.7564 13.5,-7.2031 21.5673,-10.9413 22.5451,-11.5908 30.2907,-20.1225 13.1488,-14.4832 22.1428,-29.4652 35.2228,-58.6741 11.3833,-25.4198 16.1571,-37.7431 21.6401,-55.8628 3.7523,-12.4004 4.0863,-14.4367 4.1004,-25 0.032,-24.3312 -3.2105,-48.7982 -7.8617,-59.3155 -1.323,-2.9915 -4.5322,-14.1568 -7.1316,-24.8118 -4.415,-18.0972 -4.7553,-20.4406 -5.169,-35.5922 -0.9184,-33.6352 3.145,-43.9459 23.4644,-59.5403 8.7052,-6.6809 11.8971,-8.0134 20.297,-8.4734 11.3866,-0.6236 18.2522,-4.3264 33.5,-18.0678 4.4482,-4.0087 9.8394,-10.9473 11.7193,-15.0829 1.6893,-3.7164 1.9353,-6.0005 1.6152,-15 -0.3326,-9.3532 -0.745,-11.3894 -3.4664,-17.1161 -4.1937,-8.8251 -9.9596,-15.0037 -20.7707,-22.2578 -5.0036,-3.3573 -10.2904,-7.3727 -11.7486,-8.9232 -1.4582,-1.5504 -3.1183,-2.819 -3.6892,-2.819 -0.5709,0 -3.1177,-1.8 -5.6596,-4 -2.5419,-2.2 -4.9364,-4 -5.321,-4 -0.3847,0 -1.9168,-1.1288 -3.4046,-2.5084 -4.2176,-3.9107 -1.344,-7.7371 2.9756,-3.9623 5.9954,5.2393 11.5058,9.4707 12.3332,9.4707 0.5288,0 2.8639,1.7294 5.1891,3.8431 2.3253,2.1138 7.6027,6.1031 11.7277,8.8652 9.9413,6.6567 17.4234,14.437 20.9834,21.8195 3.8851,8.0569 4.9631,13.2343 4.9914,23.9722 0.034,12.9119 -2.5644,18.0074 -15.9524,31.2835 -12.8785,12.7709 -24.1097,19.4476 -31.4623,18.7036 -11.3251,-1.146 -31.3095,12.4605 -38.9404,26.5129 -3.9821,7.3329 -4.9212,14.9175 -4.3603,35.2138 0.4983,18.0341 0.5763,18.5599 5.6526,38.1341 2.831,10.9164 5.987,21.4939 7.0133,23.5056 2.5484,4.9954 3.7369,9.8253 5.4497,22.1465 1.8583,13.3686 4.0876,40.1315 3.8316,46 -0.3187,7.3099 -2.2358,14.2028 -3.7847,13.6084 -0.9371,-0.3596 -1.85,1.2226 -2.993,5.1871 -3.3515,11.6248 -10.436,31.0425 -15.3983,42.2045 -15.4847,34.8306 -20.4257,44.4352 -30.3519,59 -5.7602,8.4518 -18.032,21.0451 -23.0212,23.6242 -5.2422,2.7099 -22.7566,14.4597 -26.4036,17.7132 -2.5044,2.2343 -4.2614,1.5815 -2.2539,-0.8374 2.5129,-3.0278 0.058,-2.6455 -5.182,0.8069 -2.9249,1.9272 -12.968,7.4238 -22.318,12.2145 -18.5545,9.507 -46.3927,19.5427 -59.8029,21.559 -3.9584,0.5952 -9.5774,1.7577 -12.4867,2.5834 -4.3058,1.2219 -10.9079,1.4403 -35.5,1.1741 -36.6727,-0.397 -73.2206,0.7991 -80.7104,2.6415 -3.025,0.7441 -7.975,1.6615 -11,2.0388 -3.025,0.3772 -9.10002,1.5885 -13.50002,2.6917 -6.98789,1.752 -12.681,2.087 -45,2.6479 -20.35,0.3532 -37.46271,0.9446 -38.02824,1.3142 -0.56553,0.3695 -4.84053,1.1768 -9.5,1.7939 -4.65947,0.6171 -11.84676,1.7538 -15.97176,2.5261 -10.17427,1.9049 -25.63222,4.258 -36.40408,5.5415 -4.89725,0.5836 -12.09725,2.2056 -16,3.6046 -3.90276,1.3989 -10.92092,2.9061 -15.59592,3.3492 -14.58917,1.3827 -27.45504,3.7221 -40.5,7.364 -4.95,1.3819 -16.425,4.3915 -25.5,6.6878 -23.83372,6.0311 -29.41841,8.9311 -69.66838,36.1779 -5.45742,3.6943 -14.47647,8.6937 -20.04235,11.1096 -5.56587,2.416 -13.05597,6.3684 -16.64466,8.7831 -9.95596,6.6989 -28.40186,22.9644 -39.14716,34.5196 -8.30756,8.934 -10.08118,10.371 -12.80028,10.371 l -3.15645,0 6.97964,-7.2035 z m 593.09146,-254.9895 c -0.5356,-5.2025 -0.8178,-22.0907 -2.0353,-121.807 -0.3325,-27.225 -0.8115,-58.5 -1.0646,-69.5 -0.253,-11 -0.697,-38.675 -0.9866,-61.5 -0.2896,-22.825 -0.747,-50.5 -1.0164,-61.5 -0.2694,-11 -0.7228,-38 -1.0076,-60 -0.2847,-22 -0.7347,-52.825 -1,-68.5 -0.2652,-15.67497 -0.7171,-44.92497 -1.0042,-64.99997 -0.2871,-20.075 -0.7372,-49.55 -1.0002,-65.5 -0.263,-15.95 -0.716,-46.55 -1.0065,-68 -0.2906,-21.45 -0.7378,-53.4 -0.9938,-71 -0.2561,-17.6 -0.7122,-50.225 -1.0136,-72.5 -0.3014,-22.275 -0.9772,-69.75 -1.5018,-105.5 -0.5245,-35.75 -0.9973,-73.26887 -1.0507,-83.37527 -0.053,-10.1064 -0.3525,-19.95056 -0.665,-21.87591 l -0.568,-3.50063 -9.3894,0.68922 c -5.1641,0.37907 -19.3835,1.77554 -31.5987,3.10327 -12.2152,1.32772 -39.7594,4.23466 -61.2094,6.45986 -25.8226,2.67881 -39.8968,4.54481 -41.6543,5.52264 -2.8408,1.58058 -6.0658,1.92336 -7.2216,0.76756 -0.8882,-0.88814 -4.4709,-0.66547 -28.12412,1.74795 -102.58421,10.46705 -136.9092,13.99382 -141,14.48726 -2.2,0.26537 -26.95,2.74151 -55,5.50254 -28.05,2.76102 -52.575,5.21423 -54.5,5.45156 -6.01136,0.74113 -12.84818,1.45262 -33.5,3.48625 -11,1.0832 -28.775,2.87325 -39.5,3.97789 -10.725,1.10465 -22.2,2.26536 -25.5,2.57937 -3.3,0.31401 -11.85,1.213 -19,1.99776 -7.15,0.78476 -30.775,3.23852 -52.5,5.45279 -21.725,2.21427 -41.75,4.26745 -44.5,4.56261 -2.75,0.29517 -32.225,3.21364 -65.5,6.48548 -33.275,3.27185 -64.775,6.40118 -70,6.95408 -5.225,0.5529 -15.8,1.67717 -23.5,2.49838 -7.7,0.82121 -20.975,2.15433 -29.5,2.96248 -15.29642,1.45008 -38.60724,3.7757 -116,11.57287 -21.725,2.18875 -55.7,5.55132 -75.5,7.47238 -41.68226,4.04415 -53.834541,5.35094 -57.999999,6.23698 -2.911246,0.61925 -2.870179,0.66158 1.388096,1.43081 4.958751,0.89576 5.587235,1.2717 4.653023,2.78329 -1.026638,1.66113 -7.828397,1.25404 -10.517507,-0.62948 -4.258681,-2.9829 -33.023612,-1.85111 -33.023612,1.29935 0,0.80269 -0.7875,1.73222 -1.75,2.06563 -0.9625,0.33342 -3.222849,2.23179 -5.022999,4.21862 l -3.272998,3.61241 2.997051,-5.25 2.997052,-5.25 -3.224053,0.007 c -1.773229,0.003 -11.999053,0.89457 -22.724053,1.98027 -23.0086205,2.32919 -21.00000027,2.21829 -21.00000027,1.15947 0,-0.4693 3.26249997,-1.14149 7.24999997,-1.49377 3.9875003,-0.35228 13.5500003,-1.31858 21.2500003,-2.14735 7.7,-0.82876 18.88857,-1.96978 24.863489,-2.5356 9.149872,-0.86648 11.135772,-1.36501 12.589627,-3.16045 1.360801,-1.68052 3.082839,-2.2109 8.136275,-2.50594 3.757656,-0.21939 7.325391,0.11558 8.621989,0.8095 2.294015,1.22772 11.708038,0.65777 43.288619,-2.62078 12.47765,-1.29537 19.14911,-1.96805 45,-4.53729 5.225,-0.5193 11.525,-1.15609 14,-1.41508 2.475,-0.259 15.75,-1.60656 29.5,-2.99457 13.75,-1.38802 31.3,-3.19487 39,-4.01523 7.7,-0.82036 16.475,-1.74355 19.5,-2.05154 3.025,-0.30798 13.15,-1.41464 22.5,-2.45924 9.35,-1.0446 19.925,-2.17238 23.5,-2.50619 3.575,-0.33381 9.875,-1.01897 14,-1.52259 4.125,-0.50363 10.65,-1.17994 14.5,-1.50292 3.85,-0.32298 13.3,-1.26024 21,-2.08279 7.7,-0.82256 15.8,-1.68751 18,-1.92212 2.2,-0.23461 8.05,-0.88441 13,-1.444 8.47794,-0.95842 62.16263,-6.47724 93,-9.56046 7.7,-0.76987 23,-2.34726 34,-3.50531 11,-1.15805 23.825,-2.49888 28.5,-2.97963 4.675,-0.48074 24.025,-2.48954 43,-4.464 18.975,-1.97445 41.025,-4.24761 49,-5.05147 7.975,-0.80386 23.05,-2.36242 33.5,-3.46347 10.45,-1.10104 41.275,-4.26109 68.5,-7.02232 27.225,-2.76124 64.35,-6.58372 82.5,-8.49441 35.82356,-3.77122 33.92989,-3.57575 63,-6.50311 21.87664,-2.20297 46.99386,-4.82536 52.5,-5.48131 1.925,-0.22933 6.2,-0.67132 9.5,-0.98219 18.46329,-1.73934 52.72412,-5.52249 54.00002,-5.96278 1.8446,-0.63655 -6.3936,-3.56833 -10.0269,-3.56833 -2.13946,0 -3.34132,-0.40424 -2.97312,-1 1.17029,-1.89357 9.04352,-1.05952 14.08052,1.49161 3.1562,1.59854 5.0539,2.09138 5.2945,1.375 0.7096,-2.11288 4.1282,-4.86661 6.0416,-4.86661 1.0541,0 2.7416,1.11977 3.75,2.48837 l 1.8334,2.48837 24.5,-2.50954 c 26.6675,-2.73156 57.4404,-5.99254 93.7892,-9.93878 12.8091,-1.39063 23.5624,-2.52842 23.8962,-2.52842 0.9129,0 -1.2636,-172.6529 -2.215,-175.70934 -0.207,-0.66514 -2.5351,-2.35983 -5.1734,-3.76597 -2.6384,-1.40614 -6.822,-4.09209 -9.297,-5.96877 -2.475,-1.87668 -9.4827,-6.84249 -15.5726,-11.03514 -17.3294,-11.93043 -41.006,-31.04403 -43.1627,-34.84416 -1.8283,-3.22164 -1.5198,-8.74597 0.6909,-12.37156 1.5548,-2.54999 3.2911,-3.60978 8.6016,-5.25 3.6594,-1.13028 7.2911,-2.05506 8.0705,-2.05506 0.7793,0 3.3194,-1.7206 5.6446,-3.82355 2.3253,-2.10296 7.7266,-5.81546 12.0031,-8.25 9.1191,-5.19143 30.7246,-25.39952 30.7246,-28.73744 0,-1.11221 1.1705,-2.87486 2.6012,-3.917 l 2.6011,-1.89481 -1.0653,-10.9386 c -1.1468,-11.77489 -1.5241,-16.35345 -3.1261,-37.938599 -0.5715,-7.7 -1.3035,-16.25 -1.6268,-19 -0.4069,-3.461986 -0.2664,-4.692397 0.457,-4 0.5746,0.55 1.7734,7.75 2.664,16 2.4776,22.951469 3.2164,25.258389 3.5227,10.999999 l 0.2578,-11.999999 0.7441,10.999999 c 0.6403,9.46644 1.9497,43.83742 1.9651,51.58524 0,1.69318 1.4924,4.10859 4.3152,7 3.164,3.24097 5.458,7.20649 8.6278,14.91476 13.5202,32.87836 26.4539,59.67127 32.8975,68.14903 2.5656,3.37558 6.0898,8.14682 7.8317,10.60275 6.4147,9.04458 21.7674,25.34789 40.5505,43.06115 31.3475,29.56221 42.5994,43.04176 52.1667,62.49501 4.3984,8.9432 5.6478,12.42828 5.1569,14.38432 -0.63,2.51018 -0.8134,2.56419 -6.6406,1.95513 -7.2085,-0.75344 -7.7333,-1.0111 -20.4005,-10.01682 -5.5,-3.91021 -13.6,-9.46396 -18,-12.34169 -4.4,-2.87772 -9.8,-6.54117 -12,-8.14101 -2.2,-1.59983 -5.35,-3.61252 -7,-4.47265 -3.6188,-1.88642 -15.7773,-13.6329 -27.873,-26.92836 -10.1256,-11.12992 -24.5565,-23.21118 -32.627,-27.31469 -3.025,-1.53807 -7.1398,-4.06453 -9.1439,-5.61433 -6.3753,-4.93005 -6.6089,-4.29402 -4.8408,13.18216 1.0334,10.21329 5.3717,55.814 9.4662,99.5 4.9672,52.99689 4.3307,48.50191 6.8667,48.48929 1.1835,-0.006 8.4518,-0.68152 16.1518,-1.50141 29.2238,-3.11171 43.5928,-4.61915 62,-6.50434 10.45,-1.07025 25.2942,-2.61908 32.9872,-3.44184 12.1048,-1.29462 14.1789,-1.30419 15.4119,-0.0712 1.233,1.23303 1.1002,1.55239 -0.9872,2.37305 -1.3265,0.52155 -14.5619,2.15751 -29.4119,3.63546 -48.7375,4.85061 -92.9588,9.51195 -95.25,10.04025 -2.7439,0.63268 -2.7732,1.4179 -0.774,20.72562 0.8119,7.84029 2.4167,24.53099 3.5664,37.09043 1.1496,12.55945 2.5078,25.38445 3.0181,28.5 0.5104,3.11556 0.9305,8.33417 0.9337,11.59693 0,3.26275 0.449,9.78775 0.9907,14.5 1.2707,11.05279 5.6504,53.35637 6.9954,67.56772 0.5726,6.05 1.9155,19.775 2.9842,30.5 2.2293,22.372 1.8491,18.37134 7.0322,74 2.178,23.375 4.1839,44.75 4.4576,47.5 1.2631,12.6888 3.6675,37.49256 5.0892,52.5 0.8598,9.075 1.7933,18.75 2.0746,21.5 0.2813,2.75 1.2426,6.43076 2.1361,8.17948 1.2709,2.48721 1.4047,3.90245 0.6144,6.5 -1.047,3.4411 -0.6579,10.0707 2.1315,36.32052 0.8182,7.7 1.9622,18.95 2.5422,25 0.58,6.05 1.2168,12.35 1.4151,14 0.5625,4.6812 2.4131,25.62708 3.5782,40.5 0.5816,7.425 1.4584,16.87501 1.9485,21.00001 1.2524,10.5427 1.9773,18.4699 3.0125,32.9419 0.4941,6.907 1.1591,14.3581 1.4779,16.5581 0.3188,2.2 1.2444,11.65 2.057,21 0.8125,9.35 1.6999,19.25 1.972,22 5.1069,51.6129 5.9334,71.2702 2.8677,68.2045 -0.7548,-0.7548 -2.5717,-15.7721 -5.3482,-44.2045 -1.1279,-11.55 -2.4654,-25.05 -2.9724,-30 -0.5069,-4.95 -1.2058,-12.6 -1.553,-17 -0.3472,-4.4 -1.5001,-16.775 -2.5621,-27.5 -1.8527,-18.7118 -2.278,-23.1951 -3.4624,-36.5 -0.7081,-7.9549 -2.2874,-23.85688 -3.4759,-35.00001 -0.528,-4.95 -1.1836,-11.475 -1.4569,-14.5 -4.4789,-49.57082 -8.1403,-86.04418 -9.1604,-91.25 -0.4009,-2.04593 -1.1272,-2.75 -2.8369,-2.75 -1.264,0 -2.8583,-0.675 -3.543,-1.5 -1.0605,-1.27782 -0.7911,-1.5 1.8185,-1.5 1.6849,0 3.33,-0.43127 3.6558,-0.95838 0.3258,-0.52711 0.1415,-4.68961 -0.4095,-9.25 -0.5511,-4.56039 -1.4716,-14.14162 -2.0456,-21.29162 -0.574,-7.15 -1.2667,-15.025 -1.5393,-17.5 -0.2725,-2.475 -1.8431,-19.125 -3.4901,-37 -1.647,-17.875 -3.671,-39.475 -4.4976,-48 -6.3884,-65.88025 -10.7589,-111.71193 -12.9688,-136 -1.4262,-15.675 -3.473,-37.5 -4.5483,-48.5 -1.0754,-11 -3.1062,-32.15 -4.513,-47 -1.4068,-14.85 -3.1008,-32.175 -3.7645,-38.5 l -1.2067,-11.5 -6.2718,0.34353 c -3.4495,0.18894 -7.4974,0.67247 -8.9954,1.07451 l -2.7237,0.73099 0.011,24.92549 c 0.014,32.18433 1.4063,128.68773 1.9966,138.42548 0.2501,4.125 0.6935,30 0.9854,57.5 0.2919,27.5 0.7448,57.65 1.0065,67 0.2617,9.35 0.7421,38.375 1.0675,64.5 0.6246,50.14167 0.885,58.3047 1.9135,59.96875 0.3505,0.56719 3.3108,1.03125 6.5783,1.03125 3.2676,0 5.941,0.40186 5.941,0.89301 0,1.40515 -2.7389,2.10699 -8.2226,2.10699 l -5.0589,0 0.6522,46.25 c 0.3588,25.4375 0.8673,53.675 1.13,62.75 0.467,16.12888 0.8853,37.62291 2.0727,106.50001 0.3224,18.7 0.9649,50.425 1.4278,70.5 0.4629,20.075 0.8847,47.975 0.9373,62 0.053,14.025 0.3038,31.575 0.5583,39 0.8696,25.3766 2.7029,169.4697 2.3527,184.9178 -0.2407,10.6169 -0.7141,15.539 -1.5204,15.807 -0.7553,0.251 -1.3649,-1.4946 -1.7173,-4.9178 z m 5.0621,-1006.14755 c 0.5282,-0.52823 -1.4541,-24.49183 -5.6385,-68.15942 -2.0846,-21.75522 -5.7126,-60.70483 -6.4735,-69.5 -0.2617,-3.025 -0.9694,-11.31804 -1.5725,-18.42897 -0.8561,-10.09265 -1.4688,-13.2118 -2.793,-14.2182 -4.5251,-3.43903 -4.5326,-3.37834 -3.8525,31.39717 0.3522,18.0125 0.8809,53.225 1.1748,78.25 0.2938,25.025 0.7928,49.2731 1.1088,53.88466 l 0.5745,8.38465 8.4587,-0.52772 c 4.6523,-0.29025 8.7083,-0.77722 9.0132,-1.08217 z m 121.6438,-79.40942 c -7.3708,-16.08123 -16.8711,-27.98149 -41.3105,-51.7465 -31.2727,-30.40976 -40.6504,-40.43078 -52.4082,-56.0035 -7.7401,-10.25141 -12.8266,-18.16573 -16.0673,-25 -2.608,-5.5 -5.775,-12.025 -7.0378,-14.5 -3.5944,-7.04506 -15.0061,-32.8247 -17.6265,-39.81934 -1.3021,-3.47564 -3.6269,-7.75064 -5.1662,-9.5 l -2.7989,-3.18066 0.5426,6.5 c 0.2985,3.575 1.218,13.7 2.0434,22.5 0.8253,8.8 2.6293,28.375 4.0088,43.5 1.3794,15.125 2.7525,28.96351 3.0512,30.75224 0.5934,3.55286 6.0712,8.186 17.7796,15.03802 13.461,7.87763 21.9727,15.63637 45.2883,41.28207 7.6941,8.463 16.4356,15.09378 33.6603,25.53287 2.627,1.59214 10.727,7.01349 18,12.04743 7.2729,5.03395 14.3485,9.36017 15.7235,9.61382 6.1419,1.13302 6.1046,1.24577 2.3177,-7.01645 z m -137.3177,-98.66148 c 0,-2.96888 -5.0493,-56.16333 -5.4664,-57.58852 -0.2414,-0.825 -0.2009,11.55 0.09,27.5 0.4579,25.101 0.7461,29.16806 2.1438,30.25 2.1162,1.63819 3.2325,1.58243 3.2325,-0.16148 z m -7.4563,-46.33852 c -0.6953,-50.35711 -1.112,-58.14713 -3.1528,-58.93025 -1.6732,-0.64204 -7.6268,4.17152 -18.2693,14.77095 -5.1444,5.12357 -10.2218,8.99179 -15.6216,11.90148 -4.4,2.37093 -9.7797,5.82716 -11.9548,7.68052 -2.1751,1.85335 -5.7751,3.86373 -8,4.46752 -11.7315,3.18371 -13.5447,4.00954 -14.1567,6.44784 -0.3658,1.45768 0.016,3.37986 0.9555,4.81426 2.6838,4.09594 17.2804,16.41576 29.9911,25.31316 3.7594,2.63149 10.5094,7.49 15,10.79669 4.4907,3.3067 10.073,7.3567 12.4051,9 2.3321,1.64331 5.6611,4.00033 7.3979,5.23783 6.3463,4.52202 6.0702,6.64112 5.4056,-41.5 z m 56.9563,1201.77557 c -3.4328,-1.346 -7.4237,-6.1022 -8.087,-9.6377 -1.4074,-7.502 2.7125,-15.3879 8.0393,-15.3879 3.2625,0 3.3062,1.5928 0.066,2.4061 -3.0126,0.7561 -5.5182,5.2687 -5.5182,9.9385 0,3.763 4.9093,10.1657 7.234,9.4345 2.1189,-0.6665 4.7628,-7.0299 4.7644,-11.467 0,-4.8784 -2.1023,-14.5777 -5.5565,-25.6137 -3.1845,-10.1741 -3.2734,-16.2997 -0.2505,-17.2591 1.6558,-0.5256 2.7556,-0.04 4.5,1.9883 2.7745,3.2256 3.0408,8.5243 0.6332,12.6 -1.5914,2.694 -1.5621,3.203 0.5847,10.1543 3.1534,10.2111 3.8135,23.2125 1.408,27.7339 -2.2669,4.2609 -5.1597,6.1518 -7.8173,5.1098 z m 4.5,-48.3935 c 0,-1.2374 -0.6607,-3.1233 -1.4682,-4.191 -1.3913,-1.8394 -1.4699,-1.7751 -1.5,1.2271 -0.039,3.9225 0.8871,6.5 2.073,5.767 0.4924,-0.3043 0.8952,-1.5657 0.8952,-2.8031 z m -25.4034,9.1179 c -1.9764,-3.0679 -3.979,-17.7562 -3.3077,-24.2605 0.9579,-9.2811 5.7437,-13.4218 9.2781,-8.0276 3.6349,5.5476 2.3305,16.5848 -2.7186,23.0038 -1.7232,2.1906 -1.8644,3.0495 -0.9385,5.7058 2.0312,5.8266 0.5806,8.0706 -2.3133,3.5785 z m 5.3905,-24.5657 c 0.013,-3.4525 -1.4731,-7.1843 -2.8618,-7.1843 -2.4915,0 -4.5951,17.1958 -2.3753,19.4172 1.128,1.1289 5.2224,-8.4348 5.2371,-12.2329 z m 3.0416,24.3503 c -1.3426,-1.6177 -0.5401,-9.1213 1.2068,-11.2846 1.5109,-1.871 4.5564,-1.5073 5.7293,0.6843 3.4706,6.4849 -2.6229,15.7974 -6.9361,10.6003 z m 3.6336,-6.7846 c -0.2774,-0.6875 -0.5044,-0.125 -0.5044,1.25 0,1.375 0.227,1.9375 0.5044,1.25 0.2774,-0.6875 0.2774,-1.8125 0,-2.5 z m 47.9451,-182.1781 c -1.1359,-4.5259 -2.5842,-21.4687 -1.9717,-23.0651 1.1184,-2.9142 2.8562,-0.9071 3.5267,4.0732 1.6089,11.9504 0.3959,26.765 -1.555,18.9919 z m 120.8926,-151.6293 c -2.2,-0.455 -8.5536,-0.8533 -14.119,-0.885 -17.0415,-0.097 -36.381,-4.5511 -36.381,-8.3789 0,-0.7886 0.675,-1.994 1.5,-2.6787 1.2094,-1.0037 1.5014,-0.979 1.5072,0.1276 0.015,2.8284 10.4716,4.982 29.2968,6.0338 10.0078,0.5592 21.1604,1.2356 24.7836,1.5033 5.9378,0.4387 7.1428,0.1862 12.2177,-2.5593 18.1467,-9.8178 28.172,-21.2457 34.3058,-39.10537 4.2605,-12.40546 -0.1597,-43.50445 -9.0611,-63.74974 -5.3365,-12.13741 -6.7127,-20.12909 -7.0177,-40.75026 -0.1465,-9.9 0.09,-22.41251 0.5253,-27.80558 1.4955,-18.52645 10.4794,-42.26729 21.6859,-57.30745 4.6497,-6.24033 8.741,-10.16437 17.7246,-17 6.4238,-4.88783 14.0749,-10.46197 17.0024,-12.38697 19.2873,-12.68207 23.2316,-15.6453 35.383,-26.582 3.1056,-2.7951 6.7234,-5.80758 8.0396,-6.6944 2.593,-1.74708 20.7891,-19.51337 25.5095,-24.90702 1.5965,-1.82412 4.2965,-7.14158 6,-11.81658 l 3.0974,-8.5 -0.025,-29 c -0.024,-27.46708 -0.1696,-29.74003 -2.761,-43 -4.3603,-22.31142 -10.2194,-40.47368 -13.545,-41.98713 -1.912,-0.87011 -2.8283,-3.66675 -2.2514,-6.87116 0.4554,-2.52955 -19.6082,-23.83961 -32.9177,-34.96278 -14.573,-12.1791 -23.4937,-20.52806 -43.4646,-40.67893 -21.4265,-21.61968 -27.9728,-28.8565 -33.4691,-37 -12.6226,-18.70175 -18.1352,-27.13937 -20.9068,-32 -3.6628,-6.42353 -19.975,-27.51393 -32.2019,-41.63457 -4.6982,-5.42598 -10.7732,-12.73892 -13.5,-16.25095 -15.2387,-19.62768 -17.8278,-23.05103 -20.8851,-27.61448 -3.3014,-4.92783 -21.2929,-26.80604 -27.439,-33.36672 -1.7347,-1.8517 -3.4441,-4.52248 -3.7986,-5.93509 -0.3545,-1.4126 -1.8311,-3.72816 -3.2812,-5.14569 -4.0066,-3.91657 -15.3153,-25.30073 -19.3302,-36.5525 -4.1746,-11.69931 -11.3787,-35.40292 -13.3727,-44 -0.7654,-3.3 -2.773,-11.175 -4.4614,-17.5 -6.4159,-24.03449 -8.6971,-35.42551 -10.4137,-52 -0.2563,-2.475 -0.9263,-8.775 -1.4887,-14 -1.9578,-18.18663 -3.5925,-76.6518 -3.1876,-113.999999 0.1104,-10.175 -0.033,-19.7375 -0.3189,-21.25 -0.4277,-2.26372578 -0.1625,-2.74999996 1.4999,-2.74999996 2.494,0 2.3499,-2.61826794 2.6154,47.49999996 0.1136,21.45 0.3005,40.575 0.4151,42.5 0.1147,1.925 0.6019,11.824999 1.0827,21.999999 1.8226,38.57588 5.3832,62.05263 14.4841,95.5 13.9892,51.41297 22.1644,73.3675 32.9548,88.5 1.7648,2.475 3.9622,5.97929 4.8831,7.7873 0.9209,1.80802 6.0416,8.11048 11.3794,14.00548 11.729,12.95343 16.1077,18.27171 20.9902,25.49436 3.4849,5.15511 11.2572,15.38435 23.463,30.88029 2.8885,3.66708 8.6268,10.58889 12.7518,15.38179 11.9865,13.92728 25.9136,31.57259 28.77,36.45078 8.6585,14.78735 26.5944,40.72626 34.1548,49.3948 11.0891,12.71434 44.6781,45.70984 56.5752,55.57548 18.141,15.04341 43.1407,41.00247 52.5688,54.58624 3.406,4.90718 3.4326,5.03161 3.62,16.94348 0.1039,6.6 0.6971,14.25 1.3184,17 4.2542,18.83274 5.4987,64.69249 2.1302,78.5 -1.7773,7.285 -1.7768,7.50916 0.016,7.81955 1.0154,0.17575 1.8462,0.59219 1.8462,0.92541 0,0.33322 -1.6809,4.01442 -3.7354,8.18045 -4.5965,9.32077 -11.3164,16.489 -14.8284,15.81764 -1.9397,-0.3708 -3.9605,1.02937 -10.316,7.14791 -4.3471,4.18497 -11.2149,10.41349 -15.262,13.84114 -4.047,3.42766 -9.7255,8.25609 -12.6189,10.72985 -2.8934,2.47376 -6.7184,5.24824 -8.5,6.1655 -1.7816,0.91727 -5.04,3.1389 -7.2408,4.93697 -2.2008,1.79806 -5.8008,4.31914 -8,5.60239 -3.6424,2.12541 -10.3534,7.03434 -23.9985,17.55422 -6.5497,5.04963 -13.5491,14.49938 -19.5193,26.3527 -9.2716,18.40801 -12.7079,38.30451 -11.6001,67.16594 0.7493,19.51955 2.1984,27.35614 7.6137,41.17393 5.6245,14.35168 10.0626,33.05547 10.7266,45.20614 0.4721,8.63801 0.2265,11.20037 -1.677,17.5 -5.9848,19.80683 -18.1502,34.38783 -37.364,44.78293 -6.056,3.2764 -11.5279,3.8295 -20.1799,2.0399 z M 1264.5093,873.96659 c -0.3593,-0.58125 -0.4106,-2.04375 -0.114,-3.25 0.2965,-1.20624 0,-4.89316 -0.6668,-8.19316 -1.1526,-5.73426 -1.3327,-5.99093 -4.0665,-5.79511 -3.82,0.27361 -6.6176,2.97547 -6.6176,6.39108 0,4.33012 -1.875,4.44646 -3.6424,0.226 -1.9215,-4.58874 -1.4509,-19.26351 0.7666,-23.90387 5.3257,-11.14437 16.7136,9.02837 16.8407,29.8319 0.033,5.3481 -0.9524,7.19728 -2.5,4.69316 z m -3.5949,-20.51335 c 0.8964,-0.81526 -1.1186,-7.50301 -3.1842,-10.56806 -3.7801,-5.60938 -5.2444,-4.50568 -4.8269,3.63825 0.1974,3.85 0.5777,7.36385 0.8452,7.80855 0.4284,0.71224 6.194,0.005 7.1659,-0.87874 z m -56.4289,12.10199 c -1.7694,-1.33835 -1.3442,-1.47101 4.8089,-1.5 3.7125,-0.0175 6.75,0.37006 6.75,0.86121 0,2.39843 -8.6038,2.87392 -11.5589,0.63879 z m 80.8089,-124.19408 c -0.6875,-0.27741 -1.25,-1.19699 -1.25,-2.0435 0,-1.21155 -0.3003,-1.28989 -1.411,-0.36811 -0.9811,0.81431 -1.6114,0.84664 -2.0691,0.10614 -0.3619,-0.58568 -1.077,-0.80598 -1.589,-0.48954 -0.512,0.31643 -0.9309,-0.35123 -0.9309,-1.48369 0,-1.13246 -0.3876,-2.05902 -0.8613,-2.05902 -0.4738,0 -0.6292,-1.2143 -0.3455,-2.69846 0.5016,-2.62413 0.5384,-2.63738 1.3361,-0.48117 0.4511,1.2195 2.3582,3.12474 4.2381,4.23388 1.8798,1.10913 3.6491,2.90066 3.9316,3.98118 0.2826,1.08051 0.4434,1.92904 0.3574,1.88562 -0.086,-0.0434 -0.7189,-0.30592 -1.4064,-0.58333 z m -28.25,-5.33772 c 0,-0.55 0.45,-1 1,-1 0.55,0 1,0.45 1,1 0,0.55 -0.45,1 -1,1 -0.55,0 -1,-0.45 -1,-1 z m -0.021,-4.03966 c -1.0335,-1.93111 0.599,-4.05956 2.5419,-3.31402 0.7024,0.26951 1.5907,-0.0176 1.9742,-0.63799 0.4744,-0.76764 1.1355,-0.54982 2.0693,0.68183 2.211,2.91616 1.6681,4.06391 -2.1322,4.50758 -2.5985,0.30336 -3.8086,-0.0329 -4.4532,-1.2374 z M 59.461048,652.46047 c -1.695834,-0.83898 -3.083334,-2.18053 -3.083334,-2.98122 0,-1.7832 0.480122,-1.77741 3.666667,0.0442 1.375,0.78602 3.9625,1.44508 5.75,1.46456 1.7875,0.0195 3.25,0.48542 3.25,1.03542 0,0.55 -0.863196,1 -1.918213,1 -1.055016,0 -2.517516,0.21655 -3.25,0.48122 -0.732483,0.26467 -2.719287,-0.20521 -4.41512,-1.04418 z m 32.583333,-8.96049 c 0,-0.97143 6.298639,-8.51124 6.74079,-8.06909 0.799252,0.79925 -2.798726,6.55318 -4.75114,7.59808 -1.094308,0.58565 -1.98965,0.79761 -1.98965,0.47101 z M 39.327412,635.7976 c -1.469601,-1.86884 -4.655968,-10.73457 -4.068992,-11.32154 0.276531,-0.27653 1.705213,2.26978 3.17485,5.65848 2.588544,5.96868 2.953841,8.28229 0.894142,5.66306 z m 66.716968,-15.41931 c 0,-1.15342 5.47802,-9.35123 6.25,-9.35307 1.39373,-0.003 0.75439,3.47875 -1.23904,6.74821 -1.71006,2.8047 -5.01096,4.52061 -5.01096,2.60486 z M 32.612759,601.18313 c 0.254304,-4.03716 1.159096,-8.53716 2.010649,-10 0.851554,-1.46283 1.326247,-1.91777 1.054873,-1.01097 -0.271373,0.9068 -0.969772,4.2818 -1.551998,7.5 -0.582225,3.2182 -1.264985,6.97627 -1.517243,8.35127 -0.252258,1.375 -0.250584,-0.80313 0.0037,-4.8403 z m 78.431621,-8.08638 c 0,-5.31549 1.17287,-6.48735 3.02647,-3.02387 1.56311,2.92071 0.8325,7.36537 -1.27647,7.76532 -1.48032,0.28073 -1.75,-0.44995 -1.75,-4.74145 z m -9.21268,-20.89937 c -4.361591,-3.14131 -4.693872,-4.17395 -1.34308,-4.17395 2.99439,0 8.1604,4.21266 7.15699,5.83621 -0.97779,1.5821 -1.52741,1.42496 -5.81391,-1.66226 z M 89.193379,539.70296 c -0.892104,-1.07492 -0.54963,-1.64491 1.608818,-2.67761 l 2.742184,-1.31198 -3.08729,-0.68539 c -6.525857,-1.44877 -6.893598,-4.00455 -0.576199,-4.00455 3.956782,0 8.163489,2.26824 8.163489,4.40172 0,3.1898 -6.961578,6.55443 -8.851002,4.27781 z m -10.962665,-3.12009 c -4.389017,-4.99881 -10.186333,-15.28155 -10.186333,-18.06756 0,-6.2863 9.975076,-9.95868 14.811439,-5.45292 2.440013,2.27321 3.004137,8.5686 1.088561,12.14789 -1.462564,2.73283 -1.400028,8.50573 0.111876,10.32746 1.455137,1.75333 0.616431,4.48569 -1.376899,4.48569 -0.785286,0 -2.787176,-1.54825 -4.448644,-3.44056 z m 2.717429,-14.70891 c 3.197281,-5.66934 -2.12892,-10.8987 -7.509651,-7.37311 -1.316761,0.86278 -2.394111,1.90813 -2.394111,2.32301 0,1.4293 6.435212,8.22117 7.466676,7.8805 0.568328,-0.1877 1.665017,-1.46139 2.437086,-2.8304 z M 1345.9558,487.93484 c -3.2573,-3.25733 -10.1933,-18.44773 -9.4675,-20.73459 0.8741,-2.75413 10.0988,-11.17682 12.2411,-11.17682 1.2929,0 0.8221,0.78189 -1.7445,2.89751 -1.9333,1.59362 -4.3403,4.42976 -5.3489,6.30253 -1.7998,3.34204 -1.7941,3.48268 0.3077,7.6025 1.1777,2.3086 2.4002,4.19746 2.7167,4.19746 0.3164,0 1.8822,-0.93064 3.4796,-2.06809 3.5508,-2.52836 3.7515,-1.41979 0.4402,2.43053 l -2.4617,2.86243 1.9629,3.84773 c 3.1143,6.10451 2.0544,8.01876 -2.1256,3.83881 z m 19.2837,-3.6334 c -0.4979,-0.97791 -2.1529,-5.37801 -3.6779,-9.77801 -1.5249,-4.4 -3.186,-8.7968 -3.6912,-9.77067 -0.5052,-0.97386 -0.6326,-2.23321 -0.2832,-2.79856 0.9956,-1.61099 3.501,1.0056 5.5583,5.80507 1.7084,3.98558 2.8252,5.00451 4.0943,3.73545 0.2908,-0.29079 -0.077,-3.10329 -0.8177,-6.25 -1.7508,-7.43927 -1.7146,-8.43315 0.2927,-8.04461 3.1124,0.60242 9.3745,24.82332 6.4179,24.82332 -0.6547,0 -1.8484,-1.575 -2.6527,-3.5 -2.1946,-5.25224 -3.8243,-4.48784 -3.0398,1.42578 0.6772,5.10487 -0.5659,7.56319 -2.2007,4.35223 z M 969.92782,439.27025 c -9.28305,-6.19273 -18.76139,-15.24682 -15.96126,-15.24682 1.23818,0 23.25615,18.92039 22.07782,18.97181 -0.275,0.012 -3.02745,-1.66424 -6.11656,-3.72499 z m 50.51658,0.35318 c -2.3303,-2.33035 -3.4,-4.32832 -3.4,-6.35078 0,-1.62292 -0.5087,-4.4099 -1.1303,-6.19327 -1.3411,-3.84691 -0.04,-9.29806 3.2025,-13.42055 2.374,-3.01805 6.4109,-3.4712 10.7828,-1.2104 3.6681,1.89688 5.145,5.46368 5.145,12.42571 0,6.95678 -3.6783,15.22604 -7.5593,16.99435 -3.3966,1.54761 -3.1785,1.61717 -7.0407,-2.24506 z m 7.4445,-4.35 c 2.6195,-5.21086 3.3754,-10.31598 2.2616,-15.27317 -1.1933,-5.31099 -2.2874,-6.39912 -5.5988,-5.56802 -1.762,0.44224 -3.1263,1.82837 -4.105,4.1708 -1.5568,3.72603 -1.1953,5.42039 1.1567,5.42039 1.6984,0 1.9127,1.59043 0.3449,2.5594 -0.6531,0.40363 -0.8402,1.94318 -0.4629,3.80902 0.3482,1.72237 0.7835,4.25658 0.9671,5.63158 0.4204,3.14668 0.3191,3 2.0716,3 0.8138,0 2.328,-1.6875 3.3648,-3.75 z m 14.7204,5.17202 c -2.9087,-2.90863 -3.7889,-5.6196 -3.1408,-9.67267 0.5046,-3.15539 0.2667,-4.25687 -1.1435,-5.29532 -1.6533,-1.21744 -1.6596,-1.35809 -0.089,-1.96718 4.1676,-1.61619 5.2855,-0.28446 5.8084,6.91965 0.612,8.43135 2.0834,9.8779 7.4461,7.32058 2.9534,-1.40834 3.5539,-1.45356 3.5539,-0.26761 0,3.86539 -9.3134,6.08423 -12.4351,2.96255 z M 934.65738,398.15743 c -3.08715,-6.03533 -5.613,-11.68449 -5.613,-12.55367 0,-2.8386 1.93809,-1.66243 3.57517,2.16967 4.8096,11.25836 8.40044,20.60773 8.04961,20.95856 -0.21933,0.21933 -2.92463,-4.53923 -6.01178,-10.57456 z m -516.113,-25.134 c -0.33992,-0.55 -0.14148,-1 0.44098,-1 0.58246,0 1.05902,0.45 1.05902,1 0,0.55 -0.19844,1 -0.44098,1 -0.24254,0 -0.7191,-0.45 -1.05902,-1 z m 503.45401,-9.61131 c -1.51043,-3.95952 -1.79582,-24.57138 -0.34718,-25.07507 0.75793,-0.26353 1.2762,3.96068 1.64414,13.40077 0.29552,7.58209 0.37254,13.96052 0.17115,14.1743 -0.20139,0.21378 -0.86204,-0.91122 -1.46811,-2.5 z m -0.43209,-54.38151 c 0.49403,-11.82491 1.38248,-16.43611 2.87854,-14.94006 0.75428,0.75428 -1.39249,23.75642 -2.44026,26.14689 -0.69999,1.59699 -0.83209,-1.78075 -0.43828,-11.20683 z m -34.56776,-28.09283 c -0.61391,-1.1471 -0.94009,-2.26175 -0.72485,-2.477 0.75758,-0.75757 4.79694,2.71116 4.2284,3.63107 -0.94044,1.52167 -2.31361,1.06935 -3.50355,-1.15407 z m 43.04584,-13.61946 c 0,-3.24223 4.82415,-21.37807 6.09339,-22.90742 2.69312,-3.24501 2.43685,-0.66725 -1.11038,11.16923 -3.79858,12.67516 -4.98301,15.46526 -4.98301,11.73819 z m 13.48894,-48.63779 c 0.28577,-1.0136 0.78749,-3.0386 1.11492,-4.5 1.20312,-5.36984 7.56741,-23.72478 8.98288,-25.9071 1.84943,-2.85139 3.92397,-3.07278 2.41754,-0.258 -0.58635,1.0956 -2.62494,6.47047 -4.5302,11.94416 -3.06669,8.81036 -9.33298,23.5015 -7.98514,18.72094 z m 20.5511,-55.19079 c -0.0597,-1.54089 13.72035,-28.65527 15.43411,-30.36903 3.17959,-3.17959 1.9334,-0.0692 -5.16949,12.90272 -10.04988,18.35395 -10.21909,18.64189 -10.26462,17.46631 z m 209.60398,-17.95156 c -0.3134,-0.81689 -0.8714,-5.47839 -1.2398,-10.35889 -0.9526,-12.61976 1.7967,-13.37748 10.15,-2.79735 2.2299,2.82425 4.7585,5.27061 5.6192,5.43637 1.9937,0.38395 3.3121,-4.72948 4.837,-18.75985 1.2014,-11.05479 1.5637,-12.41626 3.0587,-11.49232 2.5573,1.58047 -0.5418,29.11214 -3.6655,32.56379 -2.7779,3.06954 -6.2797,2.3605 -10.4036,-2.1065 -2.031,-2.2 -3.8957,-4 -4.1438,-4 -0.248,0 -0.2647,2.925 -0.037,6.5 0.3808,5.98089 0.2534,6.5 -1.5956,6.5 -1.1052,0 -2.266,-0.66836 -2.5795,-1.48525 z M 985.74943,116.52343 c 1.45807,-4.49443 12.93596,-19.436482 15.66747,-20.396098 0.6201,-0.217855 0.4051,0.457145 -0.4777,1.5 -2.74087,3.237448 -13.32988,17.001338 -14.61671,18.999128 -1.17514,1.8244 -1.19707,1.82046 -0.57306,-0.10303 z m 36.32447,-40.908084 c 3.244,-4.532541 11.643,-12.355173 12.3292,-11.483187 0.1694,0.2152 -3.3162,3.977976 -7.7458,8.361725 -7.1069,7.033373 -7.6458,7.400361 -4.5834,3.121462 z"
     id="path3223"
     style="fill:#000000" />
</svg>
