<?xml version="1.0" encoding="UTF-8" standalone="no"?>
<!-- Created with Inkscape (http://www.inkscape.org/) -->

<svg
   xmlns:dc="http://purl.org/dc/elements/1.1/"
   xmlns:cc="http://creativecommons.org/ns#"
   xmlns:rdf="http://www.w3.org/1999/02/22-rdf-syntax-ns#"
   xmlns:svg="http://www.w3.org/2000/svg"
   xmlns="http://www.w3.org/2000/svg"
   version="1.1"
   width="1625.0005"
   height="1816"
   id="svg3037">
  <metadata
     id="metadata3043">
    <rdf:RDF>
      <cc:Work
         rdf:about="">
        <dc:format>image/svg+xml</dc:format>
        <dc:type
           rdf:resource="http://purl.org/dc/dcmitype/StillImage" />
        <dc:title></dc:title>
      </cc:Work>
    </rdf:RDF>
  </metadata>
  <defs
     id="defs3041" />
  <path
     d="m 508.00051,1815.197 c 0,-0.4416 1.39911,-2.7055 3.10912,-5.0307 3.46943,-4.7177 7.80534,-7.4552 9.82813,-6.2051 1.53113,0.9463 1.08817,1.8452 -3.83817,7.7888 -2.60389,3.1416 -4.2498,4.25 -6.31084,4.25 -1.53353,0 -2.78824,-0.3613 -2.78824,-0.803 z m 16.03716,-4.5993 c -1.30668,-3.4368 -1.30982,-4.5977 -0.0124,-4.5977 1.58064,0 3.2434,5.1318 2.04957,6.3257 -0.66667,0.6666 -1.34572,0.091 -2.03716,-1.728 z M 523.00051,1800.5 c 0,-0.825 0.45,-1.5 1,-1.5 0.55,0 1,0.675 1,1.5 0,0.825 -0.45,1.5 -1,1.5 -0.55,0 -1,-0.675 -1,-1.5 z m 11.03327,-13.25 c -0.0183,-1.2375 0.41673,-2.25 0.96673,-2.25 0.55,0 1,-0.3786 1,-0.8413 0,-0.7662 9.75809,-16.2988 11.72197,-18.6587 0.4577,-0.55 1.91537,-2.575 3.23927,-4.5 1.32389,-1.925 3.89921,-5.1888 5.72292,-7.2529 1.82371,-2.0641 3.31584,-4.6034 3.31584,-5.643 0,-1.8894 2.11192,-3.355 5.06903,-3.5177 0.86297,-0.047 5.13797,-2.5542 9.5,-5.5705 4.36204,-3.0162 9.28097,-6.1975 10.93097,-7.0695 6.95456,-3.6753 11.45878,-6.5138 19.22987,-12.1182 13.11229,-9.4566 27.75654,-15.2815 43.77013,-17.4103 1.65,-0.2194 5.05534,-0.8308 7.56741,-1.3587 2.51208,-0.5279 8.81208,-1.2433 14,-1.5898 5.18793,-0.3465 11.68259,-1.4591 14.43259,-2.4723 6.40765,-2.361 14.9087,-3.2131 30.34754,-3.042 11.92559,0.1321 25.28395,-1.6209 31.1509,-4.088 1.37414,-0.5778 10.37414,-1.439 20,-1.9137 9.62586,-0.4746 21.32364,-1.5566 25.99508,-2.4043 5.63774,-1.023 14.3999,-1.5268 26.06003,-1.4984 9.83588,0.024 19.74048,-0.4616 22.50648,-1.1036 7.56485,-1.7556 67.14312,-0.282 84.93997,2.101 3.85,0.5155 17.575,1.6193 30.5,2.4528 12.925,0.8335 27.325,1.9583 32,2.4997 4.675,0.5413 18.29229,0.9876 30.26079,0.9918 13.8025,0 25.1397,0.5286 31,1.4322 5.0815,0.7835 16.2142,1.6849 24.7392,2.0032 8.525,0.3183 19.0243,1.1461 23.3317,1.8397 6.1471,0.9897 10.8794,1.0135 22,0.1105 15.7872,-1.282 18.6735,-1.7178 30.1683,-4.555 13.2181,-3.2626 22.6874,-6.6331 28.5117,-10.1487 3.0315,-1.8298 7.7565,-4.1624 10.5,-5.1835 6.6032,-2.4577 25.7901,-12.5704 36.4515,-19.2122 13.9942,-8.7181 36.0319,-28.6213 42.3838,-38.2786 3.7543,-5.7078 8.7231,-14.0039 13.1768,-22 2.2975,-4.125 5.3809,-9.5891 6.8521,-12.1424 4.2072,-7.302 9.5503,-21.7382 10.6806,-28.8576 0.5677,-3.575 1.4441,-8.075 1.9477,-10 0.9946,-3.8022 2.5196,-16.5411 3.5912,-30 0.3722,-4.675 0.503,-20.2 0.2907,-34.5 -0.7687,-51.7622 -0.08,-59.2548 7.6797,-83.5 6.1013,-19.0648 22.8664,-52.5636 34.3486,-68.6327 9.9735,-13.9578 27.5223,-28.8887 37.4741,-31.8838 4.3139,-1.2983 13.6115,-7.2062 13.6115,-8.6491 0,-0.4293 2.0616,-4.1211 4.5813,-8.2041 5.7351,-9.2932 6.2729,-12.9534 3.4072,-23.1888 -2.9075,-10.3845 -6.2243,-16.7781 -15.0136,-28.9415 -14.3163,-19.8118 -14.5099,-19.9145 -41.4965,-22.0048 -28.6405,-2.2184 -54.4291,-4.3374 -65.9784,-5.4212 -5.5,-0.5161 -19.225,-1.646 -30.5,-2.5107 -20.0168,-1.5353 -37.3263,-2.9653 -73.1731,-6.045 -9.7202,-0.8351 -20.5826,-1.5183 -24.1387,-1.5183 l -6.4656,0 -0.5657,3.25 c -0.6886,3.9561 -4.1044,40.8371 -5.6266,60.75 -0.6096,7.975 -1.5435,18.325 -2.0754,23 -0.5319,4.675 -1.1965,12.1 -1.4769,16.5 -1.3774,21.6163 -6.0141,75.0331 -7.5085,86.5 -1.1984,9.1959 -4.9487,43.0264 -4.9607,44.75 0,0.6875 -0.6838,1.25 -1.5088,1.25 -1.3542,0 -2.1619,-3.4279 -1.5317,-6.5 0.4629,-2.2565 1.0341,-9.5981 1.517,-19.5 0.2816,-5.775 1.1548,-15 1.9404,-20.5 1.1586,-8.1111 3.164,-27.3991 3.5871,-34.5 0.049,-0.825 0.2236,-3.975 0.3877,-7 0.164,-3.025 0.6088,-8.2 0.9882,-11.5 1.333,-11.5921 1.624,-15.0993 2.1987,-26.5 0.3189,-6.325 0.8266,-12.175 1.1282,-13 0.4557,-1.2464 1.0825,-9.0877 1.4788,-18.5 0.046,-1.1 0.5065,-6.5 1.0225,-12 0.5161,-5.5 1.0914,-12.025 1.2784,-14.5 0.9432,-12.4787 1.559,-19.8797 1.9553,-23.5 0.2409,-2.2 0.6801,-6.25 0.976,-9 0.296,-2.75 0.6209,-8.3527 0.7222,-12.4504 0.222,-8.9851 1.4611,-8.3612 -19.8893,-10.0144 -8.1177,-0.6286 -25.3345,-2.0451 -38.2595,-3.1477 -12.925,-1.1026 -28.9,-2.394 -35.5,-2.8697 -22.1423,-1.596 -61.91889,-4.98 -70.49999,-5.9979 -4.675,-0.5545 -18.4,-1.6887 -30.5,-2.5203 -12.1,-0.8316 -23.35,-1.7222 -25,-1.979 -3.26632,-0.5084 -36.69774,-3.2945 -78.5,-6.542 -14.575,-1.1322 -39.55,-3.1387 -55.5,-4.4587 -47.57373,-3.9373 -47.37046,-3.9272 -50.05549,-2.4902 -2.05063,1.0975 -2.69679,1.0553 -4.18479,-0.2728 -1.15615,-1.032 -4.67516,-1.7818 -10.25972,-2.186 -9.16549,-0.6635 -19.68477,-1.5829 -24.5,-2.1414 -11.03371,-1.2796 -30.88841,-2.5465 -35.49921,-2.2651 l -5.4992,0.3356 -1.1355,10.5 c -0.62452,5.775 -1.40931,15 -1.74399,20.5 -1.11436,18.3134 -2.58701,34.9435 -3.54213,40 -0.51944,2.75 -1.20246,9.5 -1.51781,15 -0.67424,11.7591 -2.1625,26.2538 -3.63947,35.4459 -0.5792,3.6048 -1.22614,14.9913 -1.43764,25.3035 -0.2115,10.3122 -0.89264,23.3622 -1.51364,29 -0.62101,5.6378 -1.31539,12.5006 -1.54308,15.2506 -0.58261,7.0366 -0.88749,8.3592 -2.23845,9.7101 -0.91984,0.9199 -1.18988,0.5771 -1.18988,-1.5101 0,-1.485 0.41812,-2.7 0.92915,-2.7 0.52149,0 0.68004,-2.0841 0.36136,-4.75 -0.6237,-5.2176 -0.61503,-6.9667 0.093,-18.75 0.26438,-4.4 0.76373,-14.975 1.10967,-23.5 0.34594,-8.525 1.72611,-28.325 3.06705,-44 4.57861,-53.5219 6.21932,-73.5905 8.02699,-98.1835 l 0.63827,-8.6836 -3.36274,-0.5622 c -1.84951,-0.3093 -12.36274,-1.246 -23.36274,-2.0816 -11,-0.8357 -21.35,-1.7085 -23,-1.9395 -3.90575,-0.5471 -43.39767,-3.7202 -63,-5.0621 -9.95899,-0.6817 -26.77033,-2.0158 -49.5,-3.928 -9.625,-0.8098 -21.325,-1.7552 -26,-2.1009 -4.675,-0.3458 -10.075,-0.7757 -12,-0.9555 -7.83636,-0.7319 -35.75866,-3.596 -39.31742,-4.0329 -2.09958,-0.2578 -7.49958,-0.6903 -12,-0.961 -4.50042,-0.2707 -10.65758,-0.7068 -13.68258,-0.9692 -3.025,-0.2623 -9.325,-0.7277 -14,-1.0342 -15.86784,-1.0403 -22.48968,-1.5574 -27.27957,-2.1301 -3.07857,-0.3681 -5.30288,-0.1372 -6.25,0.6488 -0.93679,0.7775 -1.47043,0.8353 -1.47043,0.1592 0,-1.1112 -5.86085,-2.251 -13.81297,-2.6862 -2.57787,-0.1411 -9.63703,-0.7271 -15.68703,-1.3021 -6.05,-0.5751 -16.85,-1.6004 -24,-2.2785 -7.15,-0.6781 -14.575,-1.1345 -16.5,-1.0141 -1.925,0.1203 -14.86742,-0.5687 -28.76093,-1.5311 -15.72881,-1.0895 -25.60272,-1.3955 -26.16671,-0.8108 -1.13469,1.1764 -3.42144,21.5203 -6.06302,53.9391 -2.36401,29.0124 -5.77847,65.5068 -6.58223,70.3522 -1.02154,6.1581 -1.22946,2.7495 -0.38748,-6.3522 0.45792,-4.95 1.11004,-13.1868 1.44915,-18.3039 0.3391,-5.1172 0.79279,-10.7422 1.00818,-12.5 0.2154,-1.7579 0.86909,-9.7211 1.45266,-17.6961 0.58357,-7.975 1.2752,-15.85 1.53695,-17.5 0.26176,-1.65 0.70692,-6.15 0.98926,-10 0.28234,-3.85 0.74376,-9.25 1.02538,-12 0.28162,-2.75 0.73771,-10.9198 1.01353,-18.155 l 0.5015,-13.1551 -4.75812,-0.5611 c -2.61697,-0.3085 -8.35812,-0.813 -12.75812,-1.1209 -30.69654,-2.1481 -75.21678,-6.0838 -80.25,-7.0943 -1.2375,-0.2484 -2.25,-0.955 -2.25,-1.5702 0,-0.7863 2.45007,-0.9271 8.25,-0.4741 4.5375,0.3543 17.7,1.3191 29.25,2.1439 34.57883,2.4693 43.25063,3.2146 44.19573,3.7988 1.46947,0.9081 12.4393,1.611 15.52192,0.9945 1.56936,-0.3139 3.27703,-1.3623 3.79482,-2.3298 0.51779,-0.9675 1.42001,-8.9684 2.00492,-17.7797 0.58492,-8.8114 1.24114,-16.9432 1.45828,-18.0707 0.21714,-1.1275 0.65871,-6.2297 0.98126,-11.3381 0.32255,-5.1085 0.78062,-11.5382 1.01792,-14.2882 0.23731,-2.75 0.70228,-8.6 1.03327,-13 0.74876,-9.9536 2.73918,-21.6207 3.27103,-19.1736 0.35769,1.6459 -2.22059,35.6817 -4.86127,64.1736 -0.56072,6.05 -1.2843,15.3373 -1.60795,20.6384 -0.54157,8.8703 -0.4379,9.6813 1.30081,10.177 3.48821,0.9943 10.8664,2.0593 13.38926,1.9326 1.375,-0.069 6.1,0.2789 10.5,0.7731 4.4,0.4943 11.6,1.136 16,1.426 4.4,0.29 13.4,0.9692 20,1.5093 6.6,0.5401 18.3,1.4834 26,2.0961 7.7,0.6127 18.275,1.4647 23.5,1.8933 5.225,0.4287 10.04311,0.5755 10.70691,0.3263 0.75934,-0.285 0.99111,-1.532 0.625,-3.3626 -0.79528,-3.9764 0.32712,-3.6613 2.10364,0.5905 1.04944,2.5117 2.11217,3.521 3.76342,3.5743 1.26557,0.041 3.20103,0.2197 4.30103,0.3974 1.1,0.1777 8.3,0.8289 16,1.4471 7.7,0.6182 32.9,2.7174 56,4.6647 23.1,1.9474 47.175,3.9468 53.5,4.4431 6.325,0.4964 22.975,1.8353 37,2.9754 14.025,1.1401 34.05,2.7307 44.5,3.5347 10.45,0.8039 29.8,2.3467 43,3.4282 54.16707,4.4384 55.58281,4.5192 56.38745,3.2172 0.41766,-0.6758 1.30672,-8.0807 1.97569,-16.4554 2.86725,-35.8941 6.22985,-78.6498 7.64657,-97.2267 2.01261,-26.3904 2.22605,-29.0143 4.02674,-49.5 0.84603,-9.625 1.95628,-22.9 2.46722,-29.5 0.96363,-12.44763 4.59955,-58.03261 8.016,-100.5 1.08405,-13.475 2.26053,-29.49376 2.6144,-35.59725 l 0.6434,-11.09726 -3.26374,-0.65274 C 675.21919,803.29374 671.32783,803 668.36677,803 l -5.38373,0 0.64642,5.5 c 0.41907,3.56567 0.27944,5.5 -0.39703,5.5 -0.89962,0 -4.05408,-4.27621 -7.79576,-10.56797 -0.71022,-1.19426 -1.66484,-1.55826 -2.87192,-1.09506 -1.83682,0.70486 -1.83503,1.75164 0.0156,9.12516 0.6286,2.50455 0.47267,2.67217 -2.20167,2.36666 -1.59619,-0.18234 -3.35246,0.27562 -3.94297,1.02816 -0.81052,1.03292 -1.59259,-0.45953 -3.27508,-6.25 C 641.94498,804.42313 640.59008,801 640.14974,801 c -0.44033,0 -1.78233,1.045 -2.98222,2.32222 l -2.18162,2.32223 2.00731,5.83432 c 2.51468,7.30905 2.50327,7.7322 -0.19788,7.34078 -1.8747,-0.27166 -4.84461,-5.39311 -7.24191,-12.48827 -0.0314,-0.0928 -1.2208,-0.46081 -2.6432,-0.81781 -2.34198,-0.5878 -2.74621,-0.2301 -4.28069,3.78788 -1.16707,3.05591 -1.4889,5.72275 -1.03395,8.56781 0.55818,3.49066 0.39505,4.13084 -1.0526,4.13084 -4.62748,0 -10.37507,-11.31465 -10.5001,-20.67041 l -0.0424,-3.1704 -6.75,-0.6131 c -3.7125,-0.3372 -11.025,-1.03738 -16.25,-1.55595 -5.225,-0.51857 -19.4,-1.64573 -31.5,-2.50479 -12.1,-0.85906 -31.675,-2.42558 -43.5,-3.48115 -11.825,-1.05556 -30.725,-2.61706 -42,-3.46999 -11.275,-0.85294 -30.85,-2.44247 -43.5,-3.53231 -12.65,-1.08984 -37.175,-3.11734 -54.5,-4.50556 -17.325,-1.38822 -39.375,-3.19598 -49,-4.01725 -72.52454,-6.18823 -77.34974,-6.52935 -78.34063,-5.53846 -0.51733,0.51733 -0.005,4.90097 1.22631,10.50183 2.41122,10.96385 2.39683,10.85017 1.28711,10.16433 -0.45496,-0.28118 -1.65208,-3.23562 -2.66026,-6.56542 -1.00818,-3.32979 -1.94762,-5.93879 -2.08764,-5.79777 -0.65714,0.66184 -4.77383,45.53119 -9.38187,102.2564 -1.11697,13.75 -2.48514,29.5 -3.04037,35 -1.2323,12.20677 -4.68,51.6697 -5.5914,64 -0.36588,4.95 -1.25602,10.45267 -1.97809,12.22816 -0.76725,1.88658 -0.92927,3.46522 -0.38987,3.7986 1.13827,0.70349 0.065,15.57834 -1.22462,16.97324 -0.57017,0.6167 -0.82954,-2.5346 -0.67667,-8.2217 0.13633,-5.07198 -0.0305,-9.50017 -0.37081,-9.84044 -0.34027,-0.34027 0.003,-2.38201 0.76385,-4.53719 1.4136,-4.00656 2.97715,-17.34839 3.91427,-33.40067 0.28898,-4.95 0.73442,-12.15 0.98987,-16 0.25544,-3.85 0.97191,-14.86336 1.59214,-24.47414 0.62024,-9.61078 1.29254,-17.74086 1.494,-18.06684 0.20147,-0.32598 0.63543,-3.71261 0.96435,-7.52585 0.32893,-3.81325 0.79455,-8.05817 1.03473,-9.43317 0.24018,-1.375 0.48935,-5.2 0.55372,-8.5 0.0644,-3.3 0.53729,-7.39968 1.05094,-9.11041 0.51365,-1.71073 1.10674,-7.33573 1.31798,-12.5 0.44573,-10.89708 1.44096,-25.07046 2.06369,-29.38959 0.23789,-1.65 0.70153,-7.05 1.0303,-12 0.32877,-4.95 0.76867,-11.025 0.97755,-13.5 1.27851,-15.14918 1.66314,-27.01013 0.87818,-27.08124 -0.49322,-0.0447 -2.02176,-0.21141 -3.39676,-0.3705 -12.55558,-1.45269 -56.12867,-5.29636 -109,-9.61511 -26.198115,-2.13997 -32.464485,-2.80964 -31.852185,-3.40396 0.1937,-0.18801 11.602185,0.503 25.352185,1.53559 99.62604,7.48163 115.23055,8.3591 117.58924,6.61223 1.90525,-1.41105 2.95859,-5.18623 3.60686,-12.92701 0.45841,-5.47379 0.36919,-5.75569 -1.85728,-5.86848 -1.28635,-0.0652 -2.94648,-0.0351 -3.68917,0.0669 -0.74455,0.1022 -1.04778,-0.30421 -0.67591,-0.90592 0.37095,-0.6002 0.31729,-2.5428 -0.11925,-4.31688 l -0.7937,-3.2256 -0.5304,4.5 c -0.49338,4.18599 -0.75077,4.52139 -3.68852,4.80651 -2.85288,0.27688 -3.22766,-0.0131 -3.87741,-3 -0.39559,-1.81858 -1.15982,-4.43151 -1.69827,-5.80651 -0.53845,-1.375 -1.14695,-4.075 -1.35222,-6 -0.20528,-1.925 -0.57418,-4.625 -0.81979,-6 -1.90947,-10.68998 -1.87102,-12.72316 0.28128,-14.87546 2.68698,-2.68698 5.54513,-2.70395 8.2004,-0.0487 2.44794,2.44794 7.50162,13.36053 9.06782,19.58045 1.54759,6.14604 2.99935,6.50052 2.81525,0.68742 -0.0844,-2.66405 0.30083,-6.64373 0.85598,-8.84373 0.55516,-2.2 1.27421,-7.7361 1.59789,-12.30245 0.32368,-4.56634 0.80777,-10.41634 1.07574,-13 1.37313,-13.23889 2.38207,-23.8585 2.39394,-25.19755 0.007,-0.825 0.2396,-3.3 0.51618,-5.5 0.27659,-2.2 0.77288,-8.275 1.10289,-13.5 0.33,-5.225 1.24428,-16.475 2.03172,-25 0.78745,-8.525 1.69052,-18.84741 2.00683,-22.9387 0.31631,-4.09128 0.78152,-7.77268 1.0338,-8.18087 0.25228,-0.4082 0.66327,-4.71079 0.91331,-9.5613 0.69275,-13.43857 1.6857,-25.74106 2.13887,-26.50003 0.2236,-0.3745 -0.0231,-0.94646 -0.54831,-1.27103 -0.52517,-0.32458 -1.37046,0.15251 -1.87842,1.06019 -0.50796,0.90769 -1.42694,1.47965 -2.04217,1.27104 -0.72674,-0.24643 -0.23736,-2.27958 1.39701,-5.80392 3.00362,-6.47697 3.99316,-10.63043 5.37848,-22.57538 1.84949,-15.94733 3.29198,-24.5 4.13216,-24.5 0.45118,0 0.66678,0.79735 0.4791,1.7719 -0.18768,0.97454 -0.66089,7.38704 -1.05157,14.25 l -0.71032,12.4781 5.68271,-9 c 3.12549,-4.95 6.68758,-10.125 7.91574,-11.5 1.22817,-1.375 3.45783,-4.17431 4.95481,-6.22069 3.24466,-4.43549 27.36593,-28.6301 44.80019,-44.93641 9.33926,-8.73504 14.12533,-14.14537 19.09322,-21.5836 9.40033,-14.07477 14.56382,-24.75459 15.66036,-32.39082 1.2682,-8.83172 4.04016,-15.27668 11.54354,-26.83936 7.53664,-11.61395 14.88295,-19.3181 20.04545,-21.02188 7.60546,-2.51003 19.70454,1.31608 23.48017,7.42517 2.99398,4.84437 2.35446,8.78069 -3.50248,21.55806 -9.05788,19.76051 -10.24251,27.01399 -6.42858,39.36208 3.56243,11.53379 11.32045,19.46348 22.02357,22.5109 8.89654,2.53305 25.90323,1.39164 42.52184,-2.85388 15.62998,-3.99295 22.9718,-7.63647 29.26681,-14.52421 4.29233,-4.6965 5.22866,-6.48888 6.64788,-12.72589 0.90854,-3.99271 1.99434,-14.45947 2.41288,-23.25947 0.81797,-17.19806 1.71901,-20.41082 7.57225,-27 1.46571,-1.65 4.24436,-4.88946 6.17477,-7.1988 4.20214,-5.02698 9.03366,-7.50949 20.36893,-10.46584 7.31102,-1.90679 11.45622,-2.24142 29.9839,-2.42051 24.37941,-0.23565 55.77595,-1.88021 61,-3.1952 l 3.5,-0.88102 -4,-0.62949 c -2.2,-0.34622 -15.025,-0.88285 -28.5,-1.1925 -13.475,-0.30965 -27.425,-0.78763 -31,-1.06219 -5.77068,-0.44317 -38.80572,-1.41437 -100.5,-2.95461 -11,-0.27462 -25.4,-0.72244 -32,-0.99515 -27.82614,-1.14975 -122.58358,-3.73999 -141.46517,-3.86701 L 279.57017,337.5 l -0.66029,4 c -0.36316,2.2 -0.95017,7.76976 -1.30446,12.37725 -0.35429,4.60748 -0.80839,8.65748 -1.0091,9 -0.20072,0.34251 -0.65585,6.69775 -1.0114,14.12275 -0.35555,7.425 -1.05913,17.775 -1.56351,23 -0.50439,5.225 -1.15638,12.425 -1.44887,16 -1.9674,24.0468 -3.81856,42.0301 -4.65399,45.21192 -0.53604,2.04155 -1.14312,8.56655 -1.34906,14.5 -0.57381,16.53207 -1.69791,28.68165 -2.75606,29.78808 -0.91163,0.95324 -0.84746,-1.14252 0.65835,-21.5 0.26444,-3.575 0.73999,-12.125 1.05679,-19 0.3168,-6.875 0.98724,-14.075 1.48987,-16 0.82996,-3.17867 2.38202,-20.62286 3.55892,-40 0.25053,-4.125 0.69169,-9.75 0.98034,-12.5 1.24815,-11.89104 2.57845,-27.62494 3.00153,-35.5 0.25115,-4.675 0.91881,-11.61188 1.48368,-15.41529 0.72863,-4.9061 0.71211,-7.23044 -0.0569,-8 -0.67654,-0.67705 -9.80324,-1.32921 -24.28471,-1.73529 -12.76042,-0.35783 -35.80079,-1.12668 -51.20079,-1.70858 -48.04141,-1.81526 -75.53295,-2.63852 -88.5,-2.65023 -14.171615,-0.0128 -82.883035,-2.27502 -90.500005,-2.97957 -2.75,-0.25437 -8.7125,-0.47342 -13.25,-0.48677 C 3.713005,328.01087 2.7801472e-4,327.6625 1.4719859e-8,327.25 -2.7798528e-4,326.8375 3.937222,326.6041 8.75,326.73133 c 4.812778,0.12723 26.525505,0.73067 48.250505,1.34097 21.725,0.61031 46.025005,1.26004 54.000005,1.44384 13.32663,0.30716 34.02999,0.82509 80,2.00133 9.625,0.24628 26.95,0.68698 38.5,0.97933 11.55,0.29236 26.72878,0.79048 33.73063,1.10695 14.5117,0.65589 13.98567,0.96089 15.27023,-8.85375 0.89263,-6.82014 2.06169,-5.86368 1.65498,1.35402 -0.18928,3.35922 0.0357,6.45962 0.5,6.88979 0.81852,0.75837 15.9229,1.43067 56.34416,2.50789 10.725,0.28582 26.25,0.73449 34.5,0.99704 8.25,0.26255 28.725,0.73027 45.5,1.03937 16.775,0.3091 39.05,0.98082 49.5,1.4927 10.45,0.51188 30.925,1.18354 45.5,1.49257 14.575,0.30904 34.6,0.95571 44.5,1.43704 9.9,0.48133 18.675,0.87927 19.5,0.8843 11.97777,0.0731 76.88395,1.52742 93.5,2.09506 12.1,0.41336 28.075,0.70851 35.5,0.65589 l 13.5,-0.0957 0.68337,-5.5 c 0.97124,-7.8168 1.16741,-27.63828 0.32881,-33.22257 -0.56526,-3.76405 -0.31612,-5.38778 1.2275,-8 1.37119,-2.32042 2.27081,-6.80868 3.08089,-15.37071 0.6293,-6.6513 1.84605,-13.6263 2.70389,-15.5 l 1.55971,-3.40672 -0.56329,5.5 c -0.30981,3.025 -0.83808,9.87012 -1.17393,15.21137 l -0.61062,9.71137 2.88183,1.14545 c 5.47014,2.17423 5.87993,2.61024 6.17912,6.57444 0.21963,2.91021 -0.368,4.91928 -2.25,7.69257 -3.13636,4.62168 -3.16886,5.47069 -0.23759,6.20639 2.24938,0.56456 6.29674,-0.57499 13.94031,-3.92492 3.17887,-1.3932 3.75,-1.42339 3.75,-0.19818 0,2.10031 -5.37522,5.59772 -10.80437,7.0299 -4.78447,1.26212 -5.64598,1.27052 -10.94493,0.10667 -3.89645,-0.8558 -4.12638,-0.18113 -4.91093,14.4098 l -0.63036,11.72346 4.78486,0.65584 c 7.59491,1.041 17.22358,0.77144 29.04589,-0.81315 6.02791,-0.80794 19.28484,-1.94732 29.45984,-2.53195 10.175,-0.58462 24.125,-1.55683 31,-2.16045 18.45146,-1.62004 22.5,-1.60672 22.5,0.074 0,0.77695 -1.125,1.5258 -2.5,1.66411 -1.375,0.13831 -10.50614,0.96315 -20.29142,1.83298 -20.47754,1.82029 -24.75775,2.3061 -25.32623,2.87459 -0.2251,0.2251 10.73428,0.77106 24.35418,1.21323 13.61991,0.44218 26.78847,0.91503 29.26347,1.0508 2.475,0.13576 14.175,0.52516 26,0.86533 11.825,0.34017 26.45,0.83084 32.5,1.09037 6.05,0.25953 20,0.71613 31,1.01467 11,0.29853 24.95,0.74627 31,0.99495 6.05,0.24869 23.6,0.70183 38.99999,1.00698 26.4199,0.52351 74.4955,1.8882 104.5,2.96639 7.425,0.2668 25.2,0.72466 39.5,1.01745 14.3,0.29278 34.337,0.80381 44.5266,1.13561 16.0039,0.52113 18.7016,0.39234 19.8122,-0.94584 1.3466,-1.62254 3.9484,-27.24044 2.8755,-28.31327 -0.3295,-0.32955 -1.932,0.34992 -3.5611,1.50992 -3.092,2.20172 -7.1532,2.8314 -7.1532,1.10909 0,-0.55 0.3902,-1 0.8671,-1 1.2375,0 6.1329,-7.64305 6.1329,-9.57511 0,-0.88989 -1.8,-3.6629 -4,-6.16223 -4.4998,-5.11206 -5.3059,-9.49338 -2.0657,-11.22748 3.0016,-1.60641 6.5822,-1.22692 8.5087,0.90181 2.0826,2.30126 1.1784,4.39501 -1.5272,3.5363 -2.833,-0.89917 -2.4048,1.51864 0.9854,5.56448 l 2.9012,3.46223 0.5728,-3.5 c 0.3151,-1.925 1.7148,-15.65 3.1105,-30.5 1.3958,-14.85 2.9685,-31.275 3.4951,-36.5 0.5266,-5.225 1.2321,-12.5375 1.5679,-16.25 0.3358,-3.7125 1.0247,-6.75 1.5309,-6.75 1.1485,0 1.1359,2.564 -0.084,17 -0.5343,6.325 -1.8807,23.425 -2.992,38 -1.1113,14.575 -2.499,32.125 -3.0838,39 -2.6932,31.65985 -2.543,33.11509 2.5798,25 1.3888,-2.2 2.8764,-4 3.3058,-4 0.4294,0 3.3588,-2.17982 6.5098,-4.84405 3.1509,-2.66423 11.329,-7.68192 18.1735,-11.15042 6.8445,-3.4685 12.5719,-6.57618 12.7277,-6.90595 0.4956,-1.04935 7.6112,-6.09958 8.594,-6.09958 0.5194,0 1.554,-0.7346 2.2991,-1.63244 0.7452,-0.89784 4.2145,-2.99842 7.7096,-4.66796 7.1422,-3.41163 8.1236,-3.01581 8.1826,3.3004 0.052,5.53281 2.4937,15.41422 7.3902,29.9034 2.4913,7.37187 5.0183,15.75734 5.6155,18.63438 0.9784,4.71258 1.391,5.29199 4.1641,5.8466 1.693,0.33859 4.7953,0.61562 6.8941,0.61562 2.0988,0 4.0749,0.41891 4.3913,0.9309 0.7232,1.1702 -1.3303,2.54435 -3.9573,2.64806 -1.1,0.0434 -3.467,0.15592 -5.26,0.25 l -3.2601,0.17104 4.6279,9.25 c 12.2916,24.56816 19.8702,36.69524 35.4649,56.75 2.7799,3.575 8.185,10.55 12.0112,15.5 3.8263,4.95 8.3408,10.35 10.0322,12 1.6915,1.65 3.6843,4.1707 4.4286,5.60156 0.7442,1.43085 2.9801,4.03008 4.9687,5.77606 4.4924,3.94442 18.0369,19.45686 24.53,28.09424 6.258,8.3246 14.9566,24.43987 14.9566,27.70905 0,1.84077 0.41,2.37575 1.5,1.95746 0.825,-0.31658 1.5,-0.18787 1.5,0.28603 0,0.47389 -0.675,1.12064 -1.5,1.43723 -0.825,0.31658 -1.5,0.13972 -1.5,-0.39301 0,-0.53274 -0.8639,-0.96862 -1.9198,-0.96862 -1.2166,0 -3.7251,-2.47233 -6.8486,-6.75 -7.1345,-9.77043 -11.6181,-14.9193 -16.6146,-19.07964 -2.4244,-2.0187 -6.1958,-5.92036 -8.3808,-8.67036 -7.0983,-8.93375 -21.6334,-23.15329 -25.8819,-25.31996 -2.2801,-1.16283 -4.7551,-2.70796 -5.5,-3.43362 -2.0302,-1.97789 -11.8558,-7.28865 -15.9712,-8.63257 -1.9894,-0.64962 -6.9557,-1.55555 -11.0362,-2.01317 -7.7777,-0.87222 -18.5093,-5.36153 -26.0347,-10.89098 -16.2443,-11.93581 -39.5817,-33.10716 -47.6304,-43.2097 -6.0766,-7.62711 -32.2066,-33 -33.9847,-33 -1.3882,0 -1.8258,3.20653 -4.64,34 -1.3823,15.125 -2.9842,32.45 -3.5598,38.5 -0.5756,6.05 -2.1418,24.725 -3.4805,41.5 -2.1827,27.35211 -12.6574,153.47792 -13.9938,168.5 -0.2936,3.3 -1.6449,18.825 -3.0029,34.5 -1.358,15.675 -2.7218,31.34912 -3.0308,34.83138 -0.3089,3.48226 -0.1864,6.09945 0.2723,5.81599 0.4586,-0.28347 1.4326,-0.14541 2.1643,0.30681 1.5355,0.94899 0.5914,3.04582 -1.3714,3.04582 -1.5248,0 -2.0509,3.1042 -3.5589,21 -0.5794,6.875 -1.9431,23.075 -3.0306,36 -1.0874,12.925 -2.502,29.61072 -3.1435,37.07937 -0.6416,7.46866 -0.8958,14.28453 -0.5651,15.14638 0.3753,0.97801 2.4134,1.80709 5.4225,2.20576 4.3241,0.57291 34.5947,3.23556 38.3211,3.37079 7.0959,0.2575 31.8198,2.39282 33,2.85008 0.825,0.31965 5.325,0.741 10,0.93633 4.675,0.19533 12.775,0.82781 18,1.40552 5.225,0.57771 15.125,1.22989 22,1.44929 6.875,0.2194 17.9,0.87279 24.5,1.45197 6.6,0.57918 23.475,1.96816 37.5,3.08663 14.025,1.11846 31.6681,2.70504 39.2068,3.52572 7.5387,0.82069 16.0887,1.49881 19,1.50694 2.9113,0.008 7.9932,0.63932 11.2932,1.40265 3.3,0.76333 7.8111,1.62926 10.0247,1.92429 2.2135,0.29504 5.2803,1.01384 6.8151,1.59735 1.5347,0.58351 4.4486,1.09646 6.4753,1.13988 2.0267,0.0434 3.1423,0.29928 2.4791,0.56858 -0.6631,0.26931 -10.3381,-0.41575 -21.5,-1.52235 -11.1618,-1.1066 -24.1192,-2.28241 -28.7942,-2.61292 -8.7716,-0.62013 -11.5034,-0.83749 -31,-2.46665 -6.325,-0.52852 -15.325,-1.22904 -20,-1.5567 -10.8733,-0.76209 -38.7321,-3.45982 -42,-4.06712 -1.375,-0.25552 -9.637,-0.68879 -18.3599,-0.96282 -8.723,-0.27403 -18.848,-0.93049 -22.5,-1.4588 -9.4423,-1.36592 -18.1401,-1.27436 -18.1401,0.19096 0,0.71857 -0.4959,0.56762 -1.25,-0.3805 -1.3083,-1.64492 -6.5603,-2.36459 -25.3495,-3.47359 -10.0129,-0.59099 -10.105,-0.5757 -10.7363,1.78343 -0.3503,1.30874 -0.643,3.84203 -0.6505,5.62953 -0.01,1.7875 -0.3512,3.25082 -0.7637,3.25182 -0.4125,10e-4 -0.6012,-2.62648 -0.4193,-5.83885 l 0.3307,-5.84067 -16.3307,-1.28326 c -21.9129,-1.72192 -25.7872,-1.80604 -26.7506,-0.58087 -1.2039,1.53088 -1.9258,6.49937 -3.0574,21.04183 -1.7014,21.86626 -3.7906,46.32582 -4.527,53 -0.3924,3.55681 -0.69,7.26374 -1.9664,24.5 -0.7805,10.53873 -1.9076,17.54892 -2.9319,18.23469 -0.7571,0.50683 -0.7097,0.73943 0.1526,0.75 0.6875,0.008 1.25,0.46531 1.25,1.01531 0,0.55 -0.6638,1 -1.4752,1 -1.2415,0 -1.4124,-1.94034 -1.0789,-12.25 0.218,-6.7375 0.6651,-15.625 0.9937,-19.75 1.1943,-14.99439 1.7653,-22.59079 2.0294,-27 0.1482,-2.475 0.5702,-7.875 0.9377,-12 1.3279,-14.90439 1.6506,-18.69201 2.5984,-30.5 1.5536,-19.35446 1.5573,-19.32207 -2.2551,-19.91396 -4.3914,-0.68179 -20.2423,-2.13234 -55.75,-5.10182 -9.625,-0.80493 -22.675,-1.91803 -29,-2.47355 -13.1231,-1.15261 -57.9927,-4.80998 -65.5,-5.33899 -18.67479,-1.31593 -63.54498,-4.92361 -70.99999,-5.70858 -4.95,-0.52121 -11.7,-1.1743 -15,-1.45131 -20.81519,-1.74729 -31.37353,-2.68635 -34,-3.02395 -1.65,-0.21209 -13.35,-1.08543 -26,-1.94077 -12.65,-0.85533 -27.05,-2.01004 -32,-2.56603 -4.95,-0.55598 -26.325,-2.37324 -47.5,-4.03834 -36.62004,-2.87963 -60.02893,-4.80736 -84.5,-6.95859 -16.79474,-1.47641 -21.2661,-1.31991 -21.88179,0.76589 -0.28412,0.9625 -1.22579,10.525 -2.09261,21.25 -0.86682,10.725 -2.23304,26.475 -3.03603,35 -1.45295,15.42524 -2.8209,33.21208 -4.05688,52.75 l -0.64843,10.25 3.4683,0 c 1.90756,0 5.48658,0.27664 7.95338,0.61475 l 4.48507,0.61475 1.67229,-4.17946 c 1.4434,-3.6074 2.03529,-4.13638 4.32442,-3.86475 2.16684,0.25712 2.94127,1.17094 4.23221,4.99399 0.86904,2.57361 1.91757,5.01111 2.33007,5.41667 0.4125,0.40556 0.75,2.23738 0.75,4.07072 0,3.98128 -1.80402,4.35999 -5.49239,1.15299 -2.96067,-2.57426 -3.13227,-3.50977 -0.75761,-4.13033 1.33919,-0.34997 1.23086,-0.48456 -0.46146,-0.57333 -2.21714,-0.1163 -3.56007,2.82831 -4.47202,9.80567 -0.17409,1.33192 -0.87902,2.60692 -1.56652,2.83334 -0.91955,0.30283 -1.25,-1.42494 -1.25,-6.53575 l 0,-6.94741 -4.63957,-0.63593 C 683.80917,928.28617 680.45714,928 678.91197,928 c -2.79568,0 -2.8026,0.0163 -1.41714,3.33216 0.76575,1.83269 1.64498,5.77019 1.95386,8.75 l 0.56159,5.41784 -2.10905,-5.8125 c -1.15998,-3.19687 -2.29169,-5.62987 -2.5149,-5.40665 -0.22322,0.22322 -0.66258,5.31384 -0.97635,11.3125 -0.31377,5.99866 -0.75066,11.48356 -0.97088,12.18866 -0.22021,0.70511 0.82852,1.80443 2.33051,2.44293 l 2.7309,1.16091 -2.66416,0.36521 c -3.02378,0.41452 -3.26746,1.5207 -4.35048,19.74894 -0.32678,5.5 -1.0637,13.72584 -1.6376,18.27965 -1.18735,9.42155 -0.62623,10.86335 4.47671,11.50255 3.00983,0.377 2.97822,0.4061 -0.60585,0.5578 -2.07977,0.088 -3.98464,0.7225 -4.23307,1.41 -0.61833,1.7112 -2.30501,19.3396 -3.46838,36.25 -0.52973,7.7 -1.65175,22.325 -2.49337,32.5 -3.15937,38.1959 -4.60307,62.3207 -3.77879,63.145 1.08736,1.0874 62.49058,6.5159 75.75499,6.6974 1.65,0.023 6.375,0.4951 10.5,1.0501 6.51246,0.8762 20.87192,2.1098 71.5,6.1422 6.05,0.4819 17.3,1.3533 25,1.9364 7.7,0.5832 18.95,1.5066 25,2.052 6.05,0.5455 22.25,1.9189 36,3.052 13.75,1.133 29.725,2.481 35.5,2.9955 5.775,0.5145 16.575,1.3558 24,1.8697 7.425,0.5139 21.6,1.6354 31.5,2.4923 26.05849,2.2555 51.94289,4.4161 59.99999,5.0085 9.5911,0.7051 41.6108,3.3415 55,4.5285 6.05,0.5364 16.0147,1.2675 22.1438,1.6246 l 11.1438,0.6493 0.5527,-2.8717 c 0.9203,-4.7821 1.6191,-10.5295 2.1122,-17.3718 0.2576,-3.575 0.7277,-10.1 1.0448,-14.5 0.6234,-8.6535 1.3669,-15.8249 1.9699,-19 0.2089,-1.1 0.4126,-2.225 0.4527,-2.5 0.04,-0.275 0.2968,-6.125 0.5706,-13 0.2737,-6.875 0.695,-14.3 0.9362,-16.5 0.2412,-2.2 0.7199,-7.825 1.0637,-12.5 0.3438,-4.675 0.8246,-10.525 1.0684,-13 1.2833,-13.0257 1.633,-17.0217 1.9692,-22.5 0.2025,-3.3 0.5869,-8.25 0.8541,-11 0.5424,-5.5811 1.7915,-19.4528 1.8909,-21 0.035,-0.55 0.8884,-1.8662 1.8957,-2.925 1.4642,-1.5391 1.8313,-1.6197 1.8313,-0.4018 0,2.488 -2.8673,41.1143 -5.4803,73.8268 -1.34,16.775 -2.9209,37.025 -3.5131,45 -0.5923,7.975 -1.4915,18.775 -1.9982,24 -1.8919,19.5057 -2.0292,24.7379 -0.6786,25.8587 1.2965,1.0761 12.2342,2.3109 36.1702,4.0836 7.15,0.5295 24.25,1.8683 38,2.9751 13.75,1.1068 34.45,2.718 46,3.5805 11.55,0.8624 23.7,1.9828 27,2.4897 3.3,0.5069 10.725,1.1785 16.5,1.4926 5.775,0.3141 15.225,0.99 21,1.5019 5.775,0.5119 13.425,0.936 17,0.9425 5.8144,0.011 6.3031,-0.1373 4.633,-1.4022 -4.759,-3.6043 -8.7131,-7.782 -8.3622,-8.8349 0.2125,-0.6375 2.3293,-1.4907 4.7041,-1.8961 5.8673,-1.0016 15.4932,-4.4085 20.445,-7.2361 2.2441,-1.2814 6.4152,-3.0826 9.2691,-4.0027 12.3047,-3.9668 22.225,-14.5375 32.8956,-35.0526 2.0026,-3.85 5.4385,-9.6531 7.6354,-12.8958 10.557,-15.5821 12.9309,-27.5651 7.6478,-38.6042 -4.7739,-9.975 -8.6558,-19.3676 -11.9858,-29 -3.0229,-8.7441 -3.2799,-10.4548 -3.2297,-21.5 0.054,-11.8526 0.1232,-12.2045 5.643,-28.6523 3.0736,-9.1588 7.9275,-21.30875 10.7864,-26.99999 6.0607,-12.0649 11.2712,-24.00554 13.9799,-32.0371 5.4024,-16.01834 17.1976,-29.53698 34.2991,-39.31061 5.2429,-2.99633 11.6944,-7.34888 12.6393,-8.52713 0.989,-1.23328 23.4559,-12.27279 36.6877,-18.0272 2.3033,-1.00166 6.6017,-3.76171 9.5521,-6.13344 2.9504,-2.37173 8.0145,-6.33723 11.2534,-8.81223 12.3952,-9.47146 17.6666,-15.3126 27.9765,-31 22.0981,-33.6241 20.6058,-30.22772 21.0899,-48 0.2172,-7.975 0.6192,-15.43476 0.8934,-16.57724 0.2741,-1.14248 0.033,-4.74248 -0.5361,-8 -0.5689,-3.25752 -1.2778,-7.72276 -1.5752,-9.92276 -0.6503,-4.81083 -6.4249,-24.31391 -10.0396,-33.90785 -1.4407,-3.82374 -6.9455,-13.46053 -12.3298,-21.5847 -5.3498,-8.07226 -12.5389,-20.03873 -15.9756,-26.59215 -3.4367,-6.55341 -8.3056,-15.7403 -10.8198,-20.4153 -4.9692,-9.23975 -19.2557,-31.78606 -24.7125,-39 -1.8721,-2.475 -7.5563,-10.35 -12.6314,-17.5 -14.0698,-19.82194 -19.6686,-26.46872 -38.7487,-46.0011 -18.0532,-18.48112 -22.1733,-23.09463 -35.275,-39.4989 -6.1384,-7.68573 -18.8093,-26.98738 -18.8093,-28.65228 0,-0.21821 -1.8,-3.24684 -4,-6.73029 -2.2,-3.48346 -4,-7.24233 -4,-8.35305 0,-1.11072 -0.6631,-2.56981 -1.4735,-3.24242 -0.8105,-0.67261 -1.7689,-2.79691 -2.1298,-4.72066 -0.3609,-1.92376 -1.8353,-4.73372 -3.2764,-6.24436 -7.8703,-8.24976 -16.6667,-21.79075 -23.0984,-35.55694 -6.3348,-13.55905 -19.0515,-52.11619 -27.16,-82.3495 -8.6119,-32.11006 -12.8419,-79.64602 -8.6449,-97.1505 0.8571,-3.575 1.8636,-8.75 2.2366,-11.5 1.1153,-8.22333 6.2902,-24.49398 10.3365,-32.5 2.0849,-4.125 6.966,-13.35 10.847,-20.5 6.2955,-11.59841 13.7845,-27.14322 22.4022,-46.5 4.3312,-9.72875 5.2768,-16.3947 4.5308,-31.940347 -0.603,-12.565192 -2.8664,-27.255321 -7.636,-49.559653 -2.2152,-10.358805 -3.6913,-19.0462 -4.9276,-29 -0.8123,-6.540602 -2.3855,-14.7104172 -3.6106,-18.75 -0.3274,-1.07957088 -3e-4,-1.75 0.8539,-1.75 1.5578,0 4.0242,9.5955984 5.7832,22.5 1.8029,13.226021 3.6106,23.630286 5.2994,30.5 3.3038,13.439231 5.6667,27.91475 6.6111,40.5 0.5365,7.15 1.2806,15.5875 1.6537,18.75 0.4362,3.6985 0.3128,5.75 -0.346,5.75 -0.5633,0 -1.34,2.10674 -1.7262,4.68164 -0.7966,5.3125 -7.5143,23.31418 -11.5004,30.81836 -1.4607,2.75 -3.7111,7.7 -5.0007,11 -1.2897,3.3 -2.8749,6.675 -3.5227,7.5 -0.947,1.20595 -6.6003,11.47422 -11.5135,20.91238 -11.5551,22.19664 -17.3562,46.3054 -17.3459,72.08762 0,7.975 0.5616,18.55 1.2408,23.5 3.2142,23.42213 5.3395,36.33857 6.5818,40 0.7465,2.2 1.6622,5.7912 2.035,7.98045 0.3727,2.18925 2.4737,9.61425 4.6688,16.5 2.1951,6.88575 5.5125,17.69455 7.372,24.01955 9.7988,33.32971 22.293,59.80971 34.752,73.65294 1.9043,2.11588 6.3419,9.69706 9.8613,16.84706 11.4196,23.1999 18.3145,33.72377 40.6172,61.99488 2.6011,3.29718 12.6043,13.87218 22.2293,23.5 20.0134,20.01926 24.8708,25.86159 43.2381,52.00512 3.6709,5.225 8.4596,11.75 10.6416,14.5 6.5454,8.24921 20.6737,32.02469 32.4713,54.64363 3.6271,6.954 10.3716,18.204 14.9879,25 10.677,15.71836 11.7226,17.84041 17.6495,35.82121 6.5683,19.92666 8.157,28.67075 8.0718,44.42693 -0.039,7.21346 0.3695,13.42109 0.9276,14.09351 0.6729,0.81078 0.5159,2.82293 -0.4825,6.18493 -1.5101,5.08515 -8.8941,21.01616 -12.6672,27.32979 -1.1504,1.925 -3.6814,6.2 -5.6245,9.5 -13.0267,22.12395 -18.8689,29.06149 -36.5486,43.40097 -12.9236,10.48195 -14.698,11.5734 -31.665,19.47817 -6.325,2.94676 -14.0299,6.54737 -17.122,8.00137 -3.0921,1.454 -7.6622,4.20142 -10.1557,6.10539 -2.4936,1.90397 -6.5414,4.71104 -8.9952,6.23793 -10.3504,6.44062 -18.9507,13.71595 -22.6153,19.13116 -4.4799,6.6199 -9.1118,15.14513 -9.1118,16.77078 0,1.70224 -7.0043,18.13754 -14.0101,32.87423 -12.9342,27.207 -18.9735,49.3882 -16.9435,62.23 1.1295,7.1454 6.0513,21.1933 11.4811,32.77 7.4992,15.9889 7.5965,16.389 5.9299,24.3824 -1.7008,8.1569 -4.1293,14.1148 -8.7005,21.3448 -1.8336,2.9 -4.8043,8.3834 -6.6015,12.1853 -10.8322,22.9141 -22.9577,36.3372 -36.6554,40.5779 -2.2,0.6811 -6.0639,2.5365 -8.5864,4.1232 -2.5225,1.5867 -8.2663,4.0432 -12.7638,5.4588 -4.4976,1.4156 -7.9164,2.9962 -7.5974,3.5123 1.6496,2.6691 12.0398,8.0715 16.3118,8.4813 20.4881,1.9654 39.5895,3.6522 56.1358,4.957 10.725,0.8458 21.3,1.7359 23.5,1.9781 2.2,0.2422 9.85,0.9008 17,1.4635 7.15,0.5627 19.75,1.7321 28,2.5987 8.25,0.8665 17.925,1.7842 21.5,2.0393 3.575,0.2551 8.525,0.9123 11,1.4606 2.475,0.5482 8.0544,1.1852 12.3987,1.4155 4.3443,0.2303 8.3611,0.8811 8.9262,1.4462 1.0911,1.0911 -5.9334,1.3066 -7.797,0.2393 -0.5347,-0.3063 -2.5597,-0.4435 -4.5,-0.3049 -4.7762,0.341 -60.4533,-3.6408 -104.5279,-7.4754 -33.8468,-2.9448 -49.5635,-3.9627 -50.6658,-3.2814 -0.7187,0.4441 -0.061,2.0238 1.8903,4.5394 7.2385,9.3323 14.2978,19.2735 17.2969,24.3581 4.7325,8.0235 9.1394,21.4488 9.1884,27.9914 0.023,3.0297 0.4771,5.7864 1.01,6.1259 2.5153,1.6027 -9.5028,18.5431 -16.9262,23.8589 -3.0294,2.1693 -7.8812,4.6341 -10.7817,5.4773 -9.7784,2.8427 -23.8374,15.459 -33.7583,30.2943 -13.239,19.797 -29.2624,53.0649 -34.5592,71.7522 -5.6575,19.9597 -6.421,27.455 -6.2648,61.5 0.1464,31.9052 -1.1509,58.4584 -3.4868,71.3665 -0.8095,4.4734 -2.1345,11.7996 -2.9445,16.2804 -1.3544,7.4933 -5.8022,21.3595 -8.7674,27.3327 -1.7473,3.52 -13.4234,22.6671 -17.0692,27.991 -1.6837,2.4589 -2.9786,5.4708 -2.8774,6.6933 0.1171,1.4158 -0.8085,2.9298 -2.5502,4.1711 -1.5038,1.0716 -6.1091,6.0261 -10.2341,11.0099 -4.125,4.9838 -7.95,9.103 -8.5,9.1538 -0.55,0.051 -5.0199,3.8969 -9.9331,8.5468 -4.9132,4.65 -9.321,8.4545 -9.7951,8.4545 -0.4742,0 -4.1043,2.1644 -8.067,4.8099 -3.9626,2.6454 -9.6798,6.0726 -12.7048,7.616 -3.025,1.5433 -8.2,4.2748 -11.5,6.0699 -3.3,1.7951 -8.25,4.081 -11,5.0798 -2.75,0.9988 -6.575,2.8199 -8.5,4.0468 -5.2449,3.343 -21.1021,9.2283 -32.4485,12.0431 -12.3953,3.075 -38.5365,5.4064 -47.0515,4.1963 -3.3,-0.469 -15.225,-1.2762 -26.5,-1.7939 -11.275,-0.5176 -22.975,-1.4025 -26,-1.9663 -3.025,-0.5639 -18.2516,-1.2611 -33.8368,-1.5493 -15.5853,-0.2882 -31.11029,-0.9686 -34.49999,-1.5119 -3.3898,-0.5434 -15.1632,-1.473 -26.1632,-2.0658 -11,-0.5928 -22.7,-1.5083 -26,-2.0344 -11.65202,-1.8577 -70.82631,-3.2741 -88.5,-2.1184 -9.075,0.5934 -21.90872,1.0595 -28.51938,1.0356 -6.84863,-0.025 -16.09794,0.6637 -21.5,1.6004 -5.21434,0.9041 -15.10562,1.8793 -21.98062,2.1671 -13.4424,0.5626 -17.3214,1.0813 -32,4.2792 -7.4111,1.6145 -13.0816,2.0725 -25.78855,2.0828 -11.35987,0.01 -19.98356,0.6098 -28.5,1.985 -6.7163,1.0846 -18.06145,2.9021 -25.21145,4.0391 -22.88275,3.6386 -34.73653,7.9533 -49,17.8356 -3.85,2.6675 -14.76616,9.4625 -24.25813,15.1001 -9.49197,5.6376 -18.49197,11.6145 -20,13.2821 -1.50803,1.6676 -3.49043,3.8344 -4.40535,4.8151 -2.31045,2.4766 -13.12984,16.8142 -15.43644,20.4561 -1.04505,1.65 -2.87379,4.125 -4.06388,5.5 -1.19009,1.375 -3.08762,3.625 -4.21673,5 l -2.05293,2.5 -0.0333,-2.25 z M 698.50051,927 c -0.33992,-0.55 -0.81648,-1 -1.05902,-1 -0.24254,0 -0.44098,0.45 -0.44098,1 0,0.55 0.47656,1 1.05902,1 0.58246,0 0.7809,-0.45 0.44098,-1 z m 473.95309,-94.75 c 1.0176,-12.64321 1.5538,-18.54208 2.0223,-22.25 0.6849,-5.41939 1.7828,-17.32939 1.7516,-19 -0.015,-0.825 0.3563,-5.775 0.8262,-11 1.0273,-11.4249 3.6056,-41.74589 5.017,-59 0.5624,-6.875 1.6608,-18.575 2.441,-26 0.7802,-7.425 1.6414,-17.1 1.9138,-21.5 0.2724,-4.4 0.7315,-10.475 1.0203,-13.5 0.2887,-3.025 0.99,-10.9 1.5585,-17.5 1.062,-12.33015 1.7829,-20.25298 2.6387,-29 0.7834,-8.00604 1.1222,-12.0994 2.3175,-28 0.6202,-8.25 1.3164,-16.575 1.5472,-18.5 1.1512,-9.60191 1.4826,-13.2471 1.9998,-22 0.6623,-11.21011 1.4009,-20.94582 2.0103,-26.5 0.2414,-2.2 1.147,-13.12448 2.0126,-24.27662 0.8655,-11.15214 2.4898,-28.47714 3.6096,-38.5 1.1197,-10.02286 2.0734,-19.57338 2.1194,-21.22338 0.091,-3.26182 3.1353,-37.20154 4.7094,-52.5 1.4933,-14.51279 1.392,-15.91619 -1.2183,-16.88196 -1.2375,-0.45785 -20.925,-1.34989 -43.75,-1.98231 -75.1886,-2.08329 -108.4305,-3.13658 -161,-5.1014 -14.02499,-0.52419 -38.32499,-1.20694 -53.99999,-1.51723 -15.675,-0.31028 -31.65,-0.76951 -35.5,-1.02049 -3.85,-0.25099 -20.725,-0.7047 -37.5,-1.00825 -16.775,-0.30354 -32.3,-0.74404 -34.5,-0.97886 -6.70001,-0.71517 -67.35926,-1.98356 -95.5,-1.99692 l -26.5,-0.0126 0.29866,8.87235 c 0.39029,11.59471 -1.38233,33.35769 -3.25269,39.9342 -1.45091,5.10166 -3.65765,27.63151 -9.51986,97.19345 -6.22797,73.90205 -6.28553,75.01064 -4.44193,85.55083 2.63807,15.08233 1.38556,35.28266 -3.7481,60.44917 -5.76991,28.2855 -5.65217,27.26246 -10.87564,94.5 -4.73478,60.94686 -4.74297,61.15208 -2.47789,62.0916 1.86003,0.77151 8.91869,1.44002 57.01745,5.39995 44.28507,3.64596 54.57004,4.47287 62,4.98478 4.4,0.30315 9.575,0.75376 11.5,1.00134 1.925,0.24759 6.96619,0.71313 11.20265,1.03454 4.23646,0.32142 8.73646,0.79817 10,1.05945 1.26354,0.26128 7.24735,0.70068 13.29735,0.97644 6.05,0.27576 12.35,0.67721 14,0.8921 1.65,0.21489 6.825,0.67299 11.5,1.01799 4.675,0.345 10.075,0.82168 12,1.05928 3.38954,0.41837 8.58384,0.79586 27.5,1.99856 4.95,0.31473 13.275,0.97602 18.5,1.46954 5.225,0.49353 12.65,1.14954 16.5,1.4578 3.85,0.30827 15.1,1.24736 25,2.08688 28.73839,2.437 52.57509,4.3882 72.99999,5.97555 10.45,0.81214 23.5,1.93259 29,2.48989 5.5,0.55729 19,1.68751 30,2.51159 11,0.82408 22.7,1.7591 26,2.07782 13.9183,1.34425 24.3543,2.14475 29.6647,2.27547 l 5.6647,0.13943 0.6237,-7.75 z M 902.00051,804.05902 c 0,-0.58246 0.45,-1.05902 1,-1.05902 0.55,0 1,0.19844 1,0.44098 0,0.24254 -0.45,0.7191 -1,1.05902 -0.55,0.33992 -1,0.14148 -1,-0.44098 z m 154.29219,-18.5756 c -0.9471,-1.0262 -0.9124,-1.55377 0.161,-2.44457 1.631,-1.35361 2.5471,-0.19884 1.6717,2.10716 -0.511,1.34597 -0.8451,1.40747 -1.8327,0.33741 z m -62.27689,-70.1744 c 0.01,-0.44496 0.4515,-1.48402 0.9847,-2.30902 0.8354,-1.29269 0.9715,-1.26629 0.9847,0.19098 0.01,0.93004 -0.4347,1.9691 -0.9847,2.30902 -0.55,0.33992 -0.9931,0.25398 -0.9847,-0.19098 z m 16.34699,-279.00463 c 1.0651,-1.06512 3.7233,-1.25185 3.0834,-0.21661 -0.31,0.50172 -1.2872,0.91222 -2.1714,0.91222 -0.8842,0 -1.2946,-0.31302 -0.912,-0.69561 z M 1015.0005,432 c 0,-0.55 0.45,-1 1,-1 0.55,0 1,0.45 1,1 0,0.55 -0.45,1 -1,1 -0.55,0 -1,-0.45 -1,-1 z m 4,-8.45516 c 0,-0.77161 2.9763,-1.39226 3.3987,-0.70875 0.2545,0.41181 -0.4061,0.81419 -1.468,0.89418 -1.0619,0.08 -1.9307,-0.003 -1.9307,-0.18543 z m 8.5,-5.54484 c -0.3399,-0.55 -0.1415,-1 0.441,-1 0.5824,0 1.059,0.45 1.059,1 0,0.55 -0.1984,1 -0.441,1 -0.2425,0 -0.7191,-0.45 -1.059,-1 z m -10.7419,-20.51478 c 0.2644,-1.38313 0.9534,-2.80695 1.5312,-3.16404 0.6613,-0.40869 0.8023,-0.002 0.3806,1.09656 -0.3684,0.96021 -0.6699,2.38403 -0.6699,3.16405 0,0.78001 -0.3876,1.41821 -0.8613,1.41821 -0.4738,0 -0.645,-1.13165 -0.3806,-2.51478 z m 0.2419,-5.4262 c 0,-0.58246 0.45,-1.05902 1,-1.05902 0.55,0 1,0.19844 1,0.44098 0,0.24254 -0.45,0.7191 -1,1.05902 -0.55,0.33992 -1,0.14148 -1,-0.44098 z M 627.18801,800.31689 c -0.72187,-0.28887 -1.58438,-0.25335 -1.91667,0.0789 -0.33229,0.33229 0.25834,0.56864 1.3125,0.52522 1.16495,-0.048 1.4019,-0.28494 0.60417,-0.60416 z m 52.8125,-1.57122 c 0,-0.13989 -1.18004,-3.40239 -2.62231,-7.25 -1.44227,-3.84762 -4.41599,-12.39567 -6.60826,-18.99567 -2.19227,-6.6 -4.80274,-14.25 -5.80104,-17 -7.30418,-20.12078 -14.86208,-46.80376 -19.96896,-70.5 -0.41486,-1.925 -1.24357,-5.525 -1.84158,-8 -3.41636,-14.13956 -5.93834,-56.87481 -4.27851,-72.5 1.51969,-14.30595 8.2536,-33.0984 14.06043,-39.23872 2.84656,-3.01005 16.36305,-12.07203 20.72389,-13.89411 6.10454,-2.55064 14.61347,0.0818 21.86241,6.76362 4.28704,3.95166 4.40321,3.99213 4.90384,1.70838 0.28203,-1.28654 0.73215,-5.26417 1.00028,-8.83917 0.96468,-12.86245 8.54387,-104.61173 9.04553,-109.5 0.42839,-4.1743 -0.36427,-2.60548 -4.79995,9.5 -2.92219,7.975 -6.55923,16.975 -8.08229,20 -1.52307,3.025 -3.3507,7.18361 -4.06141,9.24136 -0.7107,2.05776 -4.79403,9.93276 -9.07406,17.5 -17.40825,30.77842 -27.38182,43.35852 -41.79411,52.71675 -8.21519,5.33431 -20.10753,11.64036 -24.56612,13.02648 -1.32123,0.41075 -4.677,2.08807 -7.45728,3.72738 -11.57023,6.82205 -21.14213,9.04412 -46.1405,10.71128 -7.15,0.47684 -17.05,1.77644 -22,2.88801 -4.95,1.11157 -13.05046,2.4649 -18.00103,3.00739 -10.94995,1.19993 -18.11926,4.23994 -24.99897,10.60035 -4.84963,4.48356 -21.12688,16.47538 -27.36442,20.15998 -1.69072,0.99874 -3.42539,1.4578 -3.85481,1.02013 -1.01468,-1.03415 6.85947,-8.15075 16.66098,-15.05806 4.26537,-3.00589 9.37092,-7.437 11.34567,-9.84693 4.82701,-5.89072 13.8127,-9.15898 30.71258,-11.17072 6.875,-0.81839 14.975,-2.16561 18,-2.99382 3.025,-0.82821 8.65,-1.52596 12.5,-1.55054 9.60173,-0.0613 31.81461,-3.38535 38.5,-5.76132 3.025,-1.07507 7.794,-3.31179 10.59778,-4.9705 2.80377,-1.6587 6.17877,-3.35188 7.5,-3.76263 4.53341,-1.40938 16.14948,-7.63522 24.47103,-13.1157 13.18139,-8.68111 23.1659,-21.28675 39.89552,-50.36889 4.27126,-7.425 8.16412,-13.9275 8.6508,-14.45 0.48668,-0.5225 0.88487,-1.65226 0.88487,-2.51057 0,-0.85831 1.95775,-5.60581 4.35056,-10.55 C 697.667,458.5053 700.1763,450.92875 708.07923,422 c 6.00562,-21.98363 6.1887,-23.02722 7.9775,-45.47315 1.00695,-12.63523 1.67305,-23.13091 1.48023,-23.32373 -0.19282,-0.19283 -1.72006,0.35759 -3.39386,1.22314 -4.03572,2.08696 -4.46591,1.99807 -3.76896,-0.77879 l 0.59045,-2.35254 -15.08711,-0.70254 c -18.14692,-0.84503 -43.00731,-0.0119 -59.87697,2.00672 -2.475,0.29615 -9.675,0.70718 -16,0.91339 -6.325,0.20621 -22.3,0.84094 -35.5,1.4105 -13.2,0.56957 -24.70678,0.8152 -25.57062,0.54584 -1.77834,-0.55452 -16.1442,2.83307 -22.07111,5.20454 -2.59896,1.0399 -6.1195,4.13054 -10.47568,9.19645 -10.30042,11.97865 -10.63328,12.91144 -11.46554,32.13017 -0.393,9.075 -1.23917,18.82418 -1.88039,21.66484 -1.25793,5.57272 -5.7292,12.5898 -10.53666,16.53593 -10.03822,8.23971 -31.73675,14.30001 -56.32052,15.73004 -17.66787,1.02774 -25.70389,-0.4966 -33.33477,-6.32321 -6.04304,-4.61421 -9.45871,-9.34396 -12.40969,-17.18402 -4.83657,-12.84958 -3.25223,-22.7717 6.82089,-42.71656 2.72026,-5.38613 5.17646,-11.51171 5.45822,-13.61239 0.86349,-6.43781 -3.26349,-10.60893 -12.21413,-12.34476 -6.12965,-1.18875 -12.80924,4.94619 -23.68109,21.75013 -7.21026,11.14445 -9.33959,16.26584 -10.31448,24.80805 -0.72649,6.36573 -5.68296,16.93436 -13.89619,29.6307 -4.91093,7.59153 -21.12893,24.47268 -32.60824,33.94159 -11.18632,9.22724 -31.76354,31.12988 -40.51029,43.11966 -12.39418,16.98957 -17.11152,26.48541 -18.38083,37 -1.55489,12.88019 -2.99153,27.58966 -3.56487,36.5 -0.28312,4.4 -1.18243,16.1 -1.99846,26 -0.81603,9.9 -1.95935,23.85 -2.54071,31 -0.58137,7.15 -1.92688,22.45 -2.99002,34 -1.06314,11.55 -2.0639,24.825 -2.22391,29.5 l -0.29091,8.5 4.17212,0.30369 c 4.99542,0.36362 6.05648,1.48124 7.84572,8.26394 1.44029,5.45989 4.76252,9.92199 7.40647,9.94768 1.38247,0.0134 1.39175,0.13418 0.0757,0.98469 -4.76162,3.0772 -12.36781,-0.83735 -13.99855,-7.20439 -1.95122,-7.61836 -1.9067,-7.57467 -4.57475,-4.48985 -1.61123,1.86291 -2.43326,4.04719 -2.44622,6.5 -0.0107,2.03183 -0.67029,8.58397 -1.46567,14.5603 -1.26062,9.47216 -1.2609,11.22427 -0.002,13.65844 1.85374,3.58474 1.09069,3.47685 52.98733,7.49144 10.45,0.80838 27.325,2.14531 37.5,2.97095 10.175,0.82565 27.275,2.16862 38,2.9844 10.725,0.81578 24.45,1.92612 30.5,2.46741 6.05,0.5413 20.675,1.69762 32.5,2.5696 11.825,0.87198 23.3,1.77735 25.5,2.01194 2.2,0.23459 14.125,1.11506 26.5,1.95661 12.375,0.84155 26.55,1.96547 31.5,2.49761 4.95,0.53213 12.6,1.22156 17,1.53206 4.4,0.3105 12.725,0.99729 18.5,1.52619 12.67352,1.16072 46.86908,3.73783 60,4.52183 5.225,0.31197 14.675,0.91627 21,1.34289 l 11.5,0.77567 2.64448,-3.04514 c 2.39943,-2.76296 2.8873,-2.93451 5.26473,-1.85128 1.44114,0.65663 3.12527,2.30227 3.74252,3.65699 0.61726,1.35473 2.07313,2.65007 3.23528,2.87855 2.34204,0.46048 17.61284,0.83628 17.61284,0.43345 z m -427,-45.58446 c 0,-0.96159 8.08418,-8.04737 11,-9.64149 2.14614,-1.17333 -4.96146,6.26626 -8.25,8.63535 -1.5125,1.08961 -2.75,1.54238 -2.75,1.00614 z m 23,-19.91436 c 0,-0.55521 1.63552,-2.25694 3.63449,-3.78163 1.99897,-1.52469 3.43687,-2.1793 3.19533,-1.45469 -0.58127,1.74381 -6.82982,6.53448 -6.82982,5.23632 z m 20.58382,-18.33947 c 1.04159,-1.15095 2.79884,-2.55927 3.90499,-3.12961 1.43572,-0.74027 1.17079,-0.1415 -0.9259,2.09262 -3.22352,3.43481 -6.03463,4.41333 -2.97909,1.03699 z m 25.8888,-22.45219 c 2.73494,-2.45036 5.43494,-4.43502 6,-4.41038 0.56506,0.0247 -1.2103,2.04965 -3.94524,4.5 -2.73494,2.45036 -5.43494,4.43502 -6,4.41038 -0.56506,-0.0247 1.2103,-2.04965 3.94524,-4.5 z m 21.62171,-18.0972 c 0.57555,-1.52662 12.90567,-11.61424 12.90567,-10.55849 0,0.99074 -7.16744,7.60888 -10.86234,10.02987 -1.34695,0.88256 -2.26645,1.12044 -2.04333,0.52862 z m 20.90567,-18.81489 c 0,-0.90952 14.07349,-11.80295 14.58617,-11.29026 C 380.21531,644.88147 367.30231,656 365.9436,656 c -0.5187,0 -0.94309,-0.2056 -0.94309,-0.4569 z m 20,-17.46208 c 0,-1.14284 11.13022,-10.07782 12.5,-10.0346 1.11152,0.0351 -10.55936,10.89079 -11.75,10.92932 -0.4125,0.0133 -0.75,-0.38928 -0.75,-0.89472 z m 22,-18.89029 c 0,-0.82588 9.2813,-9.09676 12,-10.69361 2.30725,-1.35518 -0.51748,2.03661 -6,7.2045 -4.42696,4.1729 -6,5.08765 -6,3.48911 z M 384.68737,614.75 c -0.74759,-1.2375 -2.21656,-3.6 -3.26438,-5.25 -1.04782,-1.65 -1.95508,-3.675 -2.01613,-4.5 -0.061,-0.825 -0.42739,-2.4955 -0.81408,-3.71223 -0.88949,-2.79881 0.92419,-6.28777 3.2686,-6.28777 0.98478,0 2.83094,1.10749 4.10258,2.46109 2.19919,2.34093 2.25474,2.75251 1.13773,8.43016 -0.64589,3.28298 -0.8841,7.12549 -0.52935,8.53891 0.79563,3.17005 -0.074,3.31761 -1.88497,0.31984 z m -0.68686,-14.86803 c 0,-1.1 -0.45,-1.72189 -1,-1.38197 -0.55,0.33992 -1,1.51803 -1,2.61803 0,1.1 0.45,1.72189 1,1.38197 0.55,-0.33992 1,-1.51803 1,-2.61803 z m 10.46528,5.16651 c -4.65236,-1.88579 -7.03132,-8.23264 -5.38186,-14.35828 1.25514,-4.66124 5.14193,-8.92469 7.36019,-8.07346 1.31602,0.505 1.19017,1.02977 -0.81977,3.41845 -3.2201,3.82687 -4.0673,8.9677 -2.2103,13.41213 1.63114,3.90385 1.84479,4.01998 4.64185,2.52304 3.89575,-2.08494 6.41521,-9.64309 4.65694,-13.97036 -1.26554,-3.11461 -0.92992,-14.03289 0.48372,-15.73622 0.57686,-0.69508 1.65909,-1.26378 2.40496,-1.26378 1.07219,0 1.12493,0.50739 0.2519,2.42347 -1.01553,2.22885 -0.44747,9.57653 0.74037,9.57653 0.27646,0 1.57476,-1.2375 2.88512,-2.75 1.81807,-2.09854 2.66264,-2.47447 3.56513,-1.58691 0.90837,0.89335 0.59996,2.43588 -1.32977,6.65097 -2.50426,5.47002 -2.50626,5.49802 -0.6131,8.61107 2.25611,3.70987 2.30749,4.07487 0.57365,4.07487 -0.72912,0 -2.36954,-1.11113 -3.64536,-2.46918 -2.64898,-2.81971 -4.02895,-2.48366 -4.02895,0.98114 0,3.64104 -1.94662,7.14269 -4.65732,8.37777 -1.34023,0.61065 -2.52811,1.08175 -2.63973,1.04688 -0.11162,-0.0349 -1.11857,-0.43452 -2.23767,-0.88813 z M 427.00107,601.25 c 7e-4,-0.95133 11.21743,-10.93185 16.49944,-14.68102 2.3945,-1.69961 0.30858,0.82741 -5.19694,6.29591 -8.35671,8.30053 -11.30406,10.48711 -11.3025,8.38511 z m 26.16611,-23.09687 c 0.56303,-1.43046 15.2689,-14.13898 16.33333,-14.11494 1.3586,0.0307 -14.17287,14.96181 -15.56339,14.96181 -0.6068,0 -0.95328,-0.38109 -0.76994,-0.84687 z m 30.83333,-26.60161 c 0,-1.5591 13.72142,-13.16343 14.56614,-12.31872 0.60593,0.60594 -12.45412,12.7672 -13.71076,12.7672 -0.47046,0 -0.85538,-0.20182 -0.85538,-0.44848 z m 29,-24.76043 c 0,-1.23978 14.00632,-12.79109 15.5096,-12.79109 0.67949,0 -8.78828,8.85817 -13.05465,12.2141 -1.78051,1.40055 -2.45495,1.55906 -2.45495,0.57699 z m 25,-21.60688 c 0,-0.92457 14.33516,-13.18421 15.41626,-13.18421 1.88283,0 -0.21996,2.45721 -6.12616,7.15872 -8.07303,6.42636 -9.2901,7.21575 -9.2901,6.02549 z m 24.65985,-21.49668 c 1.34409,-2.33105 15.54168,-13.82045 16.22222,-13.12784 0.81942,0.83395 -10.13633,11.00331 -14.01505,13.00908 -2.54676,1.31698 -2.90932,1.33649 -2.20717,0.11876 z m 34.84015,-30.23806 c 7.59161,-7.16699 14.16749,-12.3234 11.52592,-9.03794 -3.46591,4.31074 -15.30629,15.11161 -16.84645,15.36744 -0.92371,0.15343 1.47053,-2.69484 5.32053,-6.3295 z m 32.5,-28.26869 c 0,-1.03152 11.85325,-11.63631 17,-15.20947 l 3.5,-2.42989 -1.60542,2.47929 c -1.5457,2.38704 -13.54286,12.89652 -17.14458,15.01859 -0.9625,0.56709 -1.75,0.63075 -1.75,0.14148 z m 33.70226,-29.61324 c 0.92893,-1.65989 13.09598,-11.59078 14.11397,-11.51999 0.96127,0.0669 -13.03572,12.95245 -14.0696,12.95245 -0.46531,0 -0.48527,-0.6446 -0.0444,-1.43246 z m 26.29774,-22.44516 c 0,-0.5214 3.0375,-3.66893 6.75,-6.99453 6.43474,-5.76413 6.68412,-6.15351 5.33934,-8.33719 -1.25919,-2.04472 -1.24489,-2.15371 0.13322,-1.01514 1.27258,1.05139 1.65102,0.99632 2.15359,-0.31338 0.90685,-2.3632 2.80807,-0.64606 2.07269,1.87202 -1.03584,3.54694 -16.44884,17.40389 -16.44884,14.78822 z M 678.53064,722 c 0.90323,-6.325 2.29336,-14.875 3.08919,-19 0.79584,-4.125 2.1266,-11.325 2.95726,-16 0.83066,-4.675 3.04491,-14.1732 4.92056,-21.1071 3.08282,-11.39657 3.70399,-16.13165 6.46914,-49.31325 l 3.05887,-36.70614 -2.44842,-7.04043 c -3.10898,-8.93986 -6.77054,-14.22263 -11.371,-16.4057 -6.34941,-3.01299 -9.19191,-2.26611 -20.17943,5.30226 -6.54129,4.50573 -9.723,9.0697 -13.78262,19.77036 -4.92566,12.98345 -5.6553,18.16646 -5.70138,40.5 -0.0771,37.37029 4.70209,65.85852 17.27934,103 0.27937,0.825 1.72316,6 3.20842,11.5 1.48527,5.5 3.99861,13.54924 5.58521,17.88719 l 2.88473,7.8872 1.19395,-14.3872 C 676.35114,739.97424 677.62742,728.325 678.53064,722 z m 5.94279,28.85418 c 1.51716,-14.62476 1.59384,-16.28038 0.71119,-15.35418 -1.05277,1.1047 -2.75903,20.3887 -1.71248,19.35418 0.35934,-0.3552 0.80992,-2.1552 1.00129,-4 z M 1365.0005,466.23213 c 0,-1.05221 -4.5666,-7.78967 -8.9687,-13.23213 -2.0018,-2.475 -5.3956,-7.2 -7.5417,-10.5 -2.146,-3.3 -7.5499,-10.95 -12.0086,-17 -11.3613,-15.41616 -16.1896,-23.7382 -30.6245,-52.78491 -1.5812,-3.18171 -3.4333,-5.95884 -4.1157,-6.17142 -3.1911,-0.99403 -76.7408,-1.50392 -76.7408,-0.53201 0,0.56896 5.7385,6.7616 12.7521,13.76141 7.0137,6.99981 14.97,15.75692 17.6806,19.46024 4.6891,6.40623 34.2704,34.07751 44.5067,41.63291 7.7622,5.72932 17.8722,10.05156 25.0606,10.7139 10.4119,0.95936 23.5021,5.93232 33.502,12.72742 3.9089,2.65621 6.498,3.42305 6.498,1.92459 z m -65.75,-104.1488 c 2.2424,-0.10678 2.3186,-4.65997 0.1939,-11.58333 -5.3668,-17.48713 -8.5778,-29.22768 -9.1094,-33.30703 -0.7463,-5.7267 -1.9231,-8.19297 -3.9091,-8.19297 -0.8274,0 -5.874,2.86124 -11.2148,6.35831 -5.3409,3.49707 -14.8856,8.85611 -21.2106,11.90899 -13.2441,6.39251 -23.2863,13.98687 -28.8056,21.7842 -4.6801,6.61176 -5.4385,8.51447 -3.885,9.74627 1.5524,1.23089 14.3201,2.01512 45.6906,2.80645 14.025,0.35378 25.6123,0.73737 25.7496,0.85242 0.1372,0.11505 1.2622,0.0969 2.5,-0.0404 1.2377,-0.13727 3.0379,-0.28708 4.0004,-0.33292 z M 1188.7756,1435.4816 c -4.4386,-2.4746 -4.959,-4.4451 -3.7554,-14.2209 1.3566,-11.0182 3.4531,-15.6429 7.2908,-16.083 4.6088,-0.5284 5.9716,1.4237 5.4334,7.783 -0.4026,4.7568 -0.1351,5.9386 1.8936,8.366 6.501,7.7785 -2.1288,19.024 -10.8624,14.1549 z m 7.6445,-4.597 c 3.5219,-2.7704 3.0706,-5.8899 -1.1577,-8.0023 -1.781,-0.8897 -3.9594,-2.2163 -4.841,-2.9479 -1.4476,-1.2014 -1.5324,-0.8511 -0.8756,3.6177 0.8767,5.9646 2.0916,9.4479 3.2951,9.4479 0.4894,0 2.1001,-0.9519 3.5792,-2.1154 z m -1.4196,-19.7737 c 0,-2.7449 -1.1581,-3.2778 -3.1688,-1.4581 -1.1442,1.0355 -1.8193,3.0059 -1.7996,5.2522 l 0.032,3.595 2.4684,-2.8058 c 1.3576,-1.5431 2.4684,-3.6056 2.4684,-4.5833 z m -71.5,21.8891 c -0.3399,-0.55 -0.1415,-1 0.441,-1 0.5824,0 1.059,0.45 1.059,1 0,0.55 -0.1984,1 -0.441,1 -0.2425,0 -0.7191,-0.45 -1.059,-1 z m 49.102,-28.8873 c -1.365,-1.5083 -1.3931,-2.0161 -0.2022,-3.6448 1.1754,-1.6075 1.6259,-1.6914 2.992,-0.5577 1.983,1.6457 2.0966,4.6884 0.2022,5.4154 -0.7734,0.2967 -2.1198,-0.2491 -2.992,-1.2129 z m 2.398,-20.5537 c 0,-1.3425 0.45,-2.7191 1,-3.059 0.5834,-0.3606 1,0.6563 1,2.441 0,1.6824 -0.45,3.059 -1,3.059 -0.55,0 -1,-1.0984 -1,-2.441 z m 2,-29 c 0,-0.2425 0.45,-0.7191 1,-1.059 0.55,-0.3399 1,-0.1415 1,0.441 0,0.5824 -0.45,1.059 -1,1.059 -0.55,0 -1,-0.1984 -1,-0.441 z m 81.2,-7.759 c -1.4207,-1.4207 -1.5177,-6.7235 -0.225,-12.3 1.2068,-5.2058 -0.9034,-9.1439 -4.0091,-7.4817 -1.6138,0.8637 -1.9659,2.1097 -1.9659,6.9579 0,6.8152 -1.421,8.4507 -4.286,4.9329 -1.7528,-2.1522 -1.9035,-3.4757 -1.4131,-12.4091 0.302,-5.5 1.2846,-12.092 2.1836,-14.6489 2.8771,-8.1825 7.6274,-10.191 10.4036,-4.3988 1.1656,2.4321 1.1937,3.9822 0.1657,9.154 -1.1771,5.9221 -1.1256,6.3775 1.055,9.3269 2.195,2.969 2.241,3.4011 1.0815,10.1626 -0.666,3.884 -0.9547,7.4763 -0.6416,7.983 0.9523,1.5408 3.7352,1.0207 8.2013,-1.5329 5.246,-2.9994 5.5221,-1.7401 0.5222,2.3813 -3.9259,3.236 -8.8723,4.0727 -11.0722,1.8728 z m -2.8086,-29.8202 c 1.6404,-4.0997 2.0854,-8.1697 1.0108,-9.2442 -1.4066,-1.4067 -3.4127,0.7799 -4.9432,5.3879 -1.3011,3.9172 -1.3905,5.2541 -0.4289,6.4127 1.8636,2.2456 2.6165,1.8042 4.3613,-2.5564 z m -16.7039,22.3744 c -0.859,-0.8591 -0.9084,-19.9997 -0.062,-24.2292 0.3438,-1.7187 1.1313,-3.1252 1.75,-3.1255 0.7881,-3e-4 1.067,4.1112 0.9312,13.7313 -0.1777,12.5901 -0.7378,15.5042 -2.6187,13.6234 z m -57.6086,-16.7709 c -0.043,-1.0541 0.193,-1.6448 0.5253,-1.3125 0.3323,0.3323 0.3678,1.1948 0.079,1.9167 -0.3192,0.7977 -0.5562,0.5608 -0.6042,-0.6042 z m 38.9922,-6.4504 c -0.6744,-1.2601 -0.6325,-3.9419 0.1289,-8.25 1.407,-7.9612 2.8,-9.784 2.8,-3.6639 0,2.5404 0.7689,5.9586 1.7087,7.5961 1.4356,2.5014 1.4959,3.2335 0.3775,4.581 -1.7711,2.134 -3.7888,2.0281 -5.0151,-0.2632 z m 3.0286,-33.3239 c -0.055,-2.03 0.3503,-3.9691 0.9003,-4.309 1.1567,-0.7149 1.1567,1.8881 0,5.5 -0.7192,2.2456 -0.8108,2.1244 -0.9003,-1.191 z m 385.2293,-20.24 c -1.556,-4.1511 -3.1362,-7.5522 -3.5116,-7.5582 -0.3754,-0.01 -0.969,0.8916 -1.3191,1.9946 -1.1279,3.5538 -5.5708,7.9946 -7.9983,7.9946 -3.7537,0 -7.5,-5.3079 -7.5,-10.6264 0,-4.9456 2.0497,-9.795 4.5448,-10.7524 0.8903,-0.3417 3.3122,-0.6212 5.382,-0.6212 3.7542,0 7.0732,2.2935 7.0732,4.8878 0,0.6766 0.45,0.9521 1,0.6122 0.55,-0.3399 1,-1.7344 1,-3.0989 0,-3.2391 3.4655,-9.982 5.5392,-10.7778 3.0034,-1.1525 6.4608,-0.6833 6.4608,0.8767 0,0.8458 -0.8946,1.5 -2.051,1.5 -1.3952,0 -2.5144,1.1089 -3.5,3.4679 -1.6248,3.8886 -1.9651,12.5321 -0.4934,12.5321 0.5256,0 2.6134,-1.125 4.6395,-2.5 3.5965,-2.4406 7.4049,-3.3102 7.4049,-1.6907 0,0.4451 -2.5024,2.9697 -5.5609,5.6101 -5.5348,4.7784 -5.5594,4.8249 -5.25,9.909 0.2512,4.1277 -0.01,5.1732 -1.3601,5.4479 -1.2672,0.2578 -2.3548,-1.4841 -4.5,-7.2073 z m -10.0142,-6.1029 c 2.1878,-4.5879 2.1887,-9.0589 0,-9.8981 -1.81,-0.6945 -4.969,1.8775 -5.4435,4.432 -0.3517,1.8934 2.0323,9 3.0191,9 0.4055,0 1.4956,-1.5903 2.4225,-3.5339 z m -21.8658,9.066 c -1.8837,-4.5083 -1.8455,-13.5897 0.088,-21.0147 1.8121,-6.957 3.0524,-8.7202 5.85,-8.3157 5.3852,0.7788 5.6528,10.6382 0.4645,17.1181 -2.3967,2.9933 -2.9125,4.3998 -2.3839,6.5 1.92,7.6283 1.8507,9.1802 -0.4097,9.1802 -1.5201,0 -2.59,-1.028 -3.6094,-3.4679 z m 5.4654,-21.0321 c -0.055,-2 -0.055,-2 -0.9144,0 -0.4727,1.1 -0.8842,2.675 -0.9144,3.5 -0.049,1.3333 0.053,1.3333 0.9144,0 0.5332,-0.825 0.9446,-2.4 0.9144,-3.5 z m -396.9144,18 c 0,-0.825 0.4359,-1.5 0.9686,-1.5 0.5328,0 0.7096,0.675 0.393,1.5 -0.3166,0.825 -0.7524,1.5 -0.9686,1.5 -0.2161,0 -0.393,-0.675 -0.393,-1.5 z m 40.17,-2.5 c -0.016,-1.925 0.3573,-4.4 0.83,-5.5 0.7297,-1.6982 0.855,-1.5473 0.83,1 -0.016,1.65 -0.3896,4.125 -0.83,5.5 -0.7278,2.2727 -0.8033,2.1818 -0.83,-1 z m -38.938,-3 c 0,-1.925 0.2058,-2.7125 0.4573,-1.75 0.2516,0.9625 0.2516,2.5375 0,3.5 -0.2515,0.9625 -0.4573,0.175 -0.4573,-1.75 z m 0.9016,-20.5 c 0.057,-1.65 0.4465,-4.35 0.8664,-6 0.6962,-2.736 0.7724,-2.604 0.8664,1.5 0.057,2.475 -0.3332,5.175 -0.8664,6 -0.7371,1.1406 -0.9447,0.7813 -0.8664,-1.5 z m 39.8664,-2.7743 c 0,-2.5342 0.4848,-4.9073 1.0773,-5.2735 0.7483,-0.4624 0.8618,0.8174 0.3719,4.191 -0.927,6.3821 -1.4492,6.7722 -1.4492,1.0825 z m 344.75,-10.388 c 0.6875,-0.2774 1.8125,-0.2774 2.5,0 0.6875,0.2774 0.125,0.5044 -1.25,0.5044 -1.375,0 -1.9375,-0.227 -1.25,-0.5044 z m -13.75,-0.7307 c 0,-0.2162 0.6984,-0.661 1.5519,-0.9886 0.89,-0.3415 1.2914,-0.1738 0.941,0.3931 -0.5872,0.9502 -2.4929,1.4054 -2.4929,0.5955 z m -5.269,-1.2629 c 0.677,-0.274 2.027,-0.2906 3,-0.037 0.9729,0.2536 0.419,0.4777 -1.231,0.4981 -1.65,0.02 -2.4461,-0.1871 -1.769,-0.461 z m -323.6127,-10.5351 c -0.065,-2.58 0.3317,-4.9691 0.8817,-5.309 1.1388,-0.7038 1.1388,2.5246 0,7 -0.6852,2.6927 -0.7755,2.5195 -0.8817,-1.691 z m -38.7212,-3.8304 c 0.2498,-1.3632 0.4877,-3.0411 0.5286,-3.7286 0.041,-0.6875 0.5731,-1.25 1.1827,-1.25 0.7072,0 0.8625,0.9955 0.4292,2.75 -0.8972,3.6328 -2.7518,5.5638 -2.1405,2.2286 z M 1232.0005,1169 c 0,-2.9333 0.3192,-5.0142 0.7093,-4.6241 0.7145,0.7145 0.4613,8.7655 -0.3001,9.5408 -0.2251,0.2291 -0.4092,-1.9834 -0.4092,-4.9167 z m -38.34,-3.75 c 0.8458,-6.4615 1.34,-6.6152 1.34,-0.4167 0,2.8417 -0.4414,5.1667 -0.9809,5.1667 -0.5907,0 -0.7336,-1.8892 -0.3591,-4.75 z m 39.4189,-10.6667 c -0.043,-1.0541 0.193,-1.6448 0.5253,-1.3125 0.3323,0.3323 0.3678,1.1948 0.079,1.9167 -0.3192,0.7977 -0.5562,0.5608 -0.6042,-0.6042 z M 729.78775,1137.75 c -1.37008,-5.0875 -2.14337,-9.4795 -1.71843,-9.76 0.42494,-0.2805 1.08208,-1.743 1.46031,-3.25 1.04697,-4.1715 2.74202,-3.3343 2.04509,1.01 -0.33087,2.0625 -0.2257,5.1 0.23372,6.75 0.7486,2.6886 1.38807,3.0882 6.16127,3.8498 5.75462,0.9181 5.29376,2.6066 -0.7192,2.6349 -3.12245,0.015 -3.25,0.1723 -3.25,4.0153 0,6.5409 -1.56152,4.5949 -4.21276,-5.25 z m 466.21275,-0.024 c 0,-2.5342 0.4848,-4.9073 1.0773,-5.2735 0.7483,-0.4624 0.8618,0.8174 0.3719,4.191 -0.927,6.3821 -1.4492,6.7722 -1.4492,1.0825 z m -449.45416,2.0243 c -0.21527,-0.6875 -0.77497,-3.0265 -1.24379,-5.1978 -0.78517,-3.6365 -1.1195,-3.952 -4.23892,-4 -1.86259,-0.029 -3.5514,-0.5401 -3.75292,-1.1365 -0.47328,-1.4006 12.87572,-3.9597 15.34649,-2.9421 1.90607,0.7851 1.66341,0.952 -2.81228,1.9343 -2.59388,0.5693 -2.64294,0.7224 -2.11111,6.5875 0.48896,5.3924 -0.16627,8.016 -1.18747,4.7546 z M 1235.2729,1132 c 0,-2.475 0.195,-3.4875 0.4333,-2.25 0.2384,1.2375 0.2384,3.2625 0,4.5 -0.2383,1.2375 -0.4333,0.225 -0.4333,-2.25 z m -37.2724,-23.2743 c 0,-1.9842 0.4787,-3.9035 1.0638,-4.2651 0.7243,-0.4477 0.8415,0.5705 0.3673,3.191 -0.9241,5.1066 -1.4311,5.4871 -1.4311,1.0741 z m -476.85268,-4.9595 c -2.59463,-8.7541 -2.73875,-10.5019 -0.72835,-8.8335 1.3639,1.132 4.25855,14.7231 3.33288,15.6488 -0.24798,0.248 -1.42002,-2.8189 -2.60453,-6.8153 z m 515.93158,3.8171 c -0.043,-1.0541 0.193,-1.6448 0.5253,-1.3125 0.3323,0.3323 0.3678,1.1948 0.079,1.9167 -0.3192,0.7977 -0.5562,0.5608 -0.6042,-0.6042 z m 0.5595,-4.0833 c 0.3166,-0.825 0.7524,-1.5 0.9686,-1.5 0.2161,0 0.393,0.675 0.393,1.5 0,0.825 -0.4359,1.5 -0.9686,1.5 -0.5328,0 -0.7096,-0.675 -0.393,-1.5 z m -906.44733,-7.6861 c -2.78395,-8.7255 -3.57261,-12.5535 -2.33089,-11.3139 1.10406,1.1022 5.36644,16.6067 4.73812,17.235 -0.21599,0.216 -1.29925,-2.4485 -2.40723,-5.9211 z m 868.94183,-14.4097 c -0.056,-5.722 0.355,-8.6541 1.401,-10 1.3286,-1.7096 1.4134,-1.0866 0.8293,6.0958 -0.9323,11.4637 -2.1361,13.571 -2.2303,3.9042 z M 1240.1169,1075 c -0.04,-3.2188 0.2084,-4.0486 0.8716,-2.9146 0.5467,0.9348 0.5695,2.7812 0.055,4.5 -0.8047,2.6908 -0.8759,2.569 -0.9271,-1.5854 z m 104.5274,-3.4991 c -2.0651,-2.065 -2.0623,-3.4332 0.023,-11.5724 2.1831,-8.5197 1.5683,-10.22 -3.404,-9.4143 -3.5349,0.5728 -3.6454,0.5151 -1.822,-0.9522 2.7846,-2.2407 7.2555,-1.9974 8.5742,0.4666 0.811,1.5153 0.6934,3.5599 -0.4648,8.0808 -0.8528,3.3287 -1.5505,7.125 -1.5505,8.4362 0,2.7437 2.9958,4.7507 5.6776,3.8036 1.2728,-0.4495 1.5209,-0.319 0.8224,0.4329 -1.9201,2.0668 -6.1237,2.4514 -7.8562,0.7188 z M 712.47779,1068.75 c -2.42433,-6.5886 -3.19329,-10.75 -1.9864,-10.75 1.57719,0 2.14191,1.3685 3.04222,7.3722 0.6418,4.2798 0.0145,6.2866 -1.05582,3.3778 z m 572.52271,-2.25 c 0,-2.485 3.0885,-6.5 5,-6.5 1.5379,0 1.1855,4.2902 -0.5567,6.7775 -2.107,3.0082 -4.4433,2.8623 -4.4433,-0.2775 z m 20.5714,0.9286 c -0.8643,-0.8643 -1.5409,-2.5518 -1.5037,-3.75 l 0.068,-2.1786 1.0948,2.2717 c 1.2807,2.6575 4.5934,3.7136 8.9285,2.8466 2.6618,-0.5324 2.9144,-0.4113 1.8408,0.8823 -1.6472,1.9847 -8.4181,1.9379 -10.4281,-0.072 z m 24.4066,-6.1244 c -1.6379,-2.5827 -2.978,-5.1085 -2.978,-5.613 0,-0.5045 -1.4625,1.2435 -3.25,3.8845 -1.7875,2.6409 -3.912,5.0124 -4.721,5.27 -0.8305,0.2644 -0.2862,-0.9398 1.2503,-2.7658 5.9262,-7.0428 4.5267,-10.8322 -6.0538,-16.3921 -8.9673,-4.7122 -10.1178,-6.0439 -7.6135,-8.813 3.7311,-4.1256 13.388,-7.6419 13.388,-4.8748 0,0.55 -1.3563,1 -3.014,1 -2.6647,0 -9.941,3.6579 -9.9736,5.0139 -0.01,0.2827 1.7876,1.6264 3.9876,2.9861 2.2,1.3597 4,2.8425 4,3.2951 0,0.4526 0.4336,0.555 0.9635,0.2274 0.53,-0.3275 1.8355,0.2765 2.9013,1.3423 1.0658,1.0658 2.7697,2.1986 3.7865,2.5174 1.6918,0.5304 1.8548,-0.1191 1.9205,-7.6513 0.094,-10.8014 2.773,-16.3907 8.9879,-18.7536 5.4223,-2.0616 9.3342,3.1267 8.0986,10.741 -0.7346,4.527 -5.4954,14.0542 -7.8455,15.7002 -1.6876,1.1821 -1.6779,1.5595 0.2089,8.1573 1.0881,3.8048 1.9783,7.4818 1.9783,8.171 0,2.8084 -3.2281,0.963 -6.022,-3.4426 z m 4.1992,-16.0542 c 2.4484,-2.8811 5.8228,-11.8812 5.8228,-15.5304 0,-4.7061 -3.0516,-7.4727 -6.5064,-5.8987 -3.2967,1.5022 -6.1394,6.3316 -6.9642,11.8316 -0.8332,5.556 0.1927,11.0254 1.7718,9.4463 1.5397,-1.5397 2.6988,-1.3674 2.6988,0.4012 0,2.0029 1.3531,1.8965 3.1772,-0.25 z m -55.1772,17.25 c 0,-0.8667 0.5955,-1.2087 1.5,-0.8616 0.825,0.3166 1.5,0.7043 1.5,0.8616 0,0.1573 -0.675,0.545 -1.5,0.8616 -0.9045,0.3471 -1.5,0.01 -1.5,-0.8616 z m -956.92104,-0.9167 c -0.0434,-1.0541 0.19293,-1.6448 0.52522,-1.3125 0.33229,0.3323 0.36781,1.1948 0.0789,1.9167 -0.31922,0.7977 -0.55618,0.5608 -0.60416,-0.6042 z m 938.92104,-0.296 c 0,-0.8416 1.4275,-1.2873 4.1224,-1.2873 3.5586,0 3.9515,0.206 2.8725,1.5062 -1.4892,1.7943 -6.9949,1.622 -6.9949,-0.2189 z m -15.6549,-0.8304 c -0.3257,-0.8487 -0.3609,-1.7744 -0.078,-2.057 0.8669,-0.867 7.0717,1.1157 7.4985,2.396 0.6299,1.8898 -6.6933,1.5552 -7.4202,-0.339 z m -53.6784,-4.1236 c -1.4225,-1.4224 -0.5436,-2.3333 2.2515,-2.3333 3.7238,0 6.2275,0.9552 5.517,2.1048 -0.6407,1.0367 -6.7798,1.2173 -7.7685,0.2285 z m -19.2393,-2.4508 c -0.9854,-1.5943 -0.1084,-1.8673 3.9059,-1.2158 2.0506,0.3327 3.5378,0.7955 3.305,1.0284 -0.975,0.975 -6.6333,1.122 -7.2109,0.1874 z M 1141.0005,1051 c 0,-0.55 0.6484,-1 1.441,-1 0.7925,0 1.7191,0.45 2.059,1 0.3399,0.55 -0.3085,1 -1.441,1 -1.1324,0 -2.059,-0.45 -2.059,-1 z m 62.0997,-3.25 c -0.055,-2.0625 0.3503,-3.75 0.9003,-3.75 1.1448,0 1.1448,1.4255 0,5 -0.7145,2.2311 -0.8114,2.0967 -0.9003,-1.25 z m 38.9706,-1.5 c -0.039,-2.8875 0.3797,-5.25 0.9297,-5.25 1.2033,0 1.2033,5.6998 0,8.5 -0.6312,1.4688 -0.8781,0.6057 -0.9297,-3.25 z m -124.5703,2.75 c -0.3733,-0.6039 0.9896,-1 3.441,-1 2.2324,0 4.059,0.45 4.059,1 0,0.55 -1.5484,1 -3.441,1 -1.8925,0 -3.7191,-0.45 -4.059,-1 z m -25.5,-2 c -0.9013,-0.5825 -1.0246,-0.9755 -0.309,-0.9847 0.655,-0.01 1.4691,0.4347 1.809,0.9847 0.7673,1.2415 0.4211,1.2415 -1.5,0 z m -24.25,-1.6623 c 0.6875,-0.2774 1.8125,-0.2774 2.5,0 0.6875,0.2774 0.125,0.5044 -1.25,0.5044 -1.375,0 -1.9375,-0.227 -1.25,-0.5044 z m -24.75,-1.3377 c -1.2068,-0.7799 -1.0486,-0.9724 0.809,-0.9847 1.2876,-0.01 2.0356,0.4271 1.691,0.9847 -0.7432,1.2025 -0.6393,1.2025 -2.5,0 z m -338.98364,-4.1491 c -0.6133,-2.393 -1.31272,-4.9368 -1.55427,-5.6528 -0.24154,-0.7161 -0.0497,-1.0613 0.42638,-0.767 1.03606,0.6403 3.40768,9.6061 2.72229,10.2915 -0.26361,0.2636 -0.98109,-1.4786 -1.5944,-3.8717 z M 1013.0005,1041 c 0,-1.1573 3.3863,-1.1573 7,0 2.0376,0.6526 1.6215,0.8191 -2.25,0.9003 -2.6125,0.055 -4.75,-0.3503 -4.75,-0.9003 z m -25.49999,-2 c -0.3606,-0.5834 0.6563,-1 2.441,-1 1.6824,0 3.059,0.45 3.059,1 0,0.55 -1.0984,1 -2.441,1 -1.3425,0 -2.7191,-0.45 -3.059,-1 z m -672.81648,-3.3823 c -0.37594,-0.9797 -0.655,-2.532 -0.62013,-3.4495 0.042,-1.1049 0.38931,-0.8529 1.02856,0.7461 0.53084,1.3279 0.8099,2.8801 0.62013,3.4495 -0.18977,0.5693 -0.65262,0.2335 -1.02856,-0.7461 z m 617.31648,-1.543 c 0.825,-0.4754 3.3,-0.5135 5.5,-0.085 3.97082,0.7742 3.95988,0.7805 -1.5,0.8645 -3.54607,0.055 -4.96711,-0.2225 -4,-0.7799 z m -29,-2.0747 c -1.86416,-1.2047 7.23829,-1.2047 11,0 1.87597,0.6008 1.00232,0.8217 -3.5,0.885 -3.3,0.046 -6.675,-0.3518 -7.5,-0.885 z m -26,-2 c -2.93079,-0.6169 -3.09342,-0.7739 -1,-0.9653 4.37265,-0.3997 10.44865,0.1206 12,1.0275 1.83331,1.0718 -5.81807,1.0285 -11,-0.062 z m -26.5,-1.81 c -2.75,-0.1705 -5.4275,-0.733 -5.95,-1.25 -1.16524,-1.153 11.81992,-1.1026 15.45,0.06 3.69944,1.1848 -0.69861,1.7357 -9.5,1.19 z M 1244.1584,1026 c 0,-1.375 0.227,-1.9375 0.5044,-1.25 0.2774,0.6875 0.2774,1.8125 0,2.5 -0.2774,0.6875 -0.5044,0.125 -0.5044,-1.25 z m -424.15789,-1 c -1.14555,-0.7403 -0.79109,-0.9564 1.5,-0.9144 1.65,0.03 3.9,0.4417 5,0.9144 1.63419,0.7022 1.35984,0.8695 -1.5,0.9144 -1.925,0.03 -4.175,-0.3812 -5,-0.9144 z m 385.01529,-3.25 c 0.01,-1.7875 0.4515,-3.925 0.9847,-4.75 0.7011,-1.0849 0.9736,-0.1855 0.9847,3.25 0.01,2.6125 -0.4347,4.75 -0.9847,4.75 -0.55,0 -0.9931,-1.4625 -0.9847,-3.25 z m -419.44218,0.3546 c -1.75057,-0.6858 -1.77044,-0.8149 -0.21712,-1.411 2.25123,-0.8638 13.64401,0.3459 13.64401,1.4489 0,1.0445 -10.74109,1.0142 -13.42689,-0.038 z M 754.00051,1019 c 0,-0.55 2.025,-1 4.5,-1 2.475,0 4.5,0.45 4.5,1 0,0.55 -2.025,1 -4.5,1 -2.475,0 -4.5,-0.45 -4.5,-1 z m -28.26224,-1.6917 c -0.96924,-0.2528 -1.5108,-0.8665 -1.20347,-1.3638 0.66616,-1.0778 12.55204,-0.066 13.91571,1.1843 0.96987,0.8894 -9.42774,1.0363 -12.71224,0.1795 z m -31.73776,-3.1917 c 0,-1.6514 3.9272,-1.918 9.2212,-0.626 l 5.2788,1.2882 -7.25,0.1106 c -3.9875,0.061 -7.25,-0.2869 -7.25,-0.7728 z m 465.14839,-1.8666 c 0.013,-0.9625 -0.2835,-2.7291 -0.6594,-3.9258 -0.5486,-1.7466 -0.3191,-2.1149 1.1638,-1.8671 1.0159,0.1697 1.6703,0.9238 1.454,1.6757 -0.2162,0.752 -0.3338,2.3797 -0.2612,3.6172 0.073,1.2375 -0.285,2.25 -0.7947,2.25 -0.5096,0 -0.9158,-0.7875 -0.9025,-1.75 z m 139.6016,1.1756 c -0.4125,-0.4174 -0.75,-2.4951 -0.75,-4.617 0,-3.2213 -0.4234,-4.0191 -2.5651,-4.8334 -3.8385,-1.4594 -4.1622,-1.2883 -5.1049,2.6979 -1.0179,4.304 -2.8696,5.3912 -3.6117,2.1205 -0.9977,-4.3973 -0.09,-19.275 1.3595,-22.2936 3.3496,-6.97368 8.7965,-2.65965 11.0478,8.75 0.6241,3.1625 1.5742,5.75 2.1115,5.75 0.5563,0 0.6462,0.7535 0.2089,1.75 -0.4224,0.9625 -1.033,3.929 -1.357,6.5923 -0.3239,2.6632 -0.9265,4.5007 -1.339,4.0833 z m -2.0448,-17.99257 C 1296.143,989.98083 1293.9025,985 1292.0126,985 c -0.5179,0 -1.4431,0.93688 -2.056,2.08196 -0.8984,1.67867 -0.7787,2.32725 0.6176,3.34829 1.0386,0.75941 1.4209,1.76955 0.955,2.52336 -0.4273,0.69136 -0.9666,2.67213 -1.1984,4.40171 -0.4017,2.99798 -0.2494,3.15688 3.2651,3.40518 l 3.6866,0.2605 -0.5768,-5.58797 z m -990.13376,10.99557 c -0.36782,-1.4655 -0.44377,-2.8896 -0.16877,-3.1646 0.275,-0.275 0.80095,0.6991 1.16877,2.1646 0.36782,1.4655 0.44376,2.8895 0.16876,3.1645 -0.275,0.275 -0.80094,-0.699 -1.16876,-2.1645 z m 388.03556,-4.0104 c -0.8925,-2.3258 -0.73876,-4.61767 0.26801,-3.99545 0.48125,0.29742 0.875,1.67395 0.875,3.05905 0,2.9137 -0.29235,3.1532 -1.14301,0.9364 z m 551.4633,-9.50153 c 0.039,-3.52917 0.4826,-7.31667 0.9867,-8.41667 0.5916,-1.29113 0.7008,0.83548 0.3081,6 -0.7478,9.8347 -1.3892,11.0317 -1.2948,2.41667 z m -85.3237,3.49657 c -0.3719,-0.37192 -0.2579,-1.45787 0.2534,-2.41324 0.5113,-0.95537 0.7242,-2.02495 0.4731,-2.37685 -0.251,-0.3519 0,-0.26235 0.5657,0.199 0.6108,0.50126 0.6925,1.72987 0.2031,3.05305 -0.4505,1.21783 -1.1234,1.90995 -1.4953,1.53804 z M 1208.0005,989.5 c 0,-0.825 0.4359,-1.5 0.9686,-1.5 0.5328,0 0.7096,0.675 0.393,1.5 -0.3166,0.825 -0.7524,1.5 -0.9686,1.5 -0.2161,0 -0.393,-0.675 -0.393,-1.5 z m -47,-2 c 0,-0.825 0.6,-1.5 1.3333,-1.5 0.7334,0 1.3334,0.675 1.3334,1.5 0,0.825 -0.6,1.5 -1.3334,1.5 -0.7333,0 -1.3333,-0.675 -1.3333,-1.5 z m -832.34375,-6.98662 c -0.81764,-0.81764 -2.25438,-3.79814 -3.19276,-6.62334 -1.41069,-4.24717 -1.50501,-5.80806 -0.54467,-9.01338 0.93015,-3.10457 1.6401,-3.87666 3.56463,-3.87666 3.65711,0 5.51656,3.53237 5.51656,10.47971 l 0,6.0347 4.56131,-0.36277 4.5613,-0.36278 -0.3113,-5.14443 c -0.27444,-4.53518 -0.0701,-5.17896 1.72531,-5.43602 1.17235,-0.16785 3.04986,0.78697 4.42431,2.25 1.31323,1.39788 3.16165,2.54159 4.1076,2.54159 1.2042,0 1.67666,0.74579 1.57568,2.48731 -0.11081,1.91118 -0.56068,2.3553 -1.9422,1.91739 -2.6299,-0.83364 -4.94431,1.49377 -4.24724,4.2711 0.72743,2.89834 -0.7896,2.98937 -3.56504,0.21393 -1.77113,-1.77113 -2.50189,-1.93184 -4.54705,-1 -1.34023,0.61065 -3.51405,1.11027 -4.83072,1.11027 -1.31666,0 -2.67204,0.45 -3.01196,1 -0.86718,1.40312 -2.11156,1.24558 -3.84376,-0.48662 z m 938.84375,0.20621 c -1.1,-0.67077 -3.5389,-1.67389 -5.4199,-2.22914 -1.8809,-0.55525 -3.6283,-1.63504 -3.8831,-2.39953 -0.3642,-1.09258 0.421,-1.27137 3.6696,-0.83563 2.2732,0.30489 4.3847,0.14718 4.6922,-0.35047 0.9636,-1.55918 4.0547,-0.98938 5.9412,1.09518 1.7466,1.93001 1.7466,2.06999 0,4 -2.096,2.31603 -2.3274,2.34934 -5,0.71959 z m -950.77557,-1.4716 c -0.94843,-1.04801 -1.72442,-2.2846 -1.72442,-2.74799 0,-0.46339 -0.75971,-1.68199 -1.68824,-2.70801 -0.92854,-1.02602 -1.81693,-2.63645 -1.97421,-3.57874 -0.15727,-0.94229 -0.56605,-3.12407 -0.9084,-4.84841 -1.22951,-6.19291 3.2457,-9.59158 7.06813,-5.36785 2.00764,2.21843 2.2394,6.75799 0.50999,9.98942 -0.84129,1.57197 -0.83828,2.9956 0.0118,5.57127 1.47641,4.47357 0.90032,6.11569 -1.29462,3.69031 z m -1.55705,-17.48062 c -0.88983,-0.88983 -1.15128,-0.34713 -1.09969,2.28263 0.0636,3.23999 0.13462,3.31105 1.16737,1.16737 0.81311,-1.68776 0.79547,-2.58685 -0.0677,-3.45 z m -16.44691,15.90084 c -1.11427,-2.83307 -0.93262,-4.28037 0.37332,-2.97443 0.60158,0.60158 0.92578,1.92908 0.72046,2.95 -0.36008,1.79033 -0.3989,1.79119 -1.09378,0.0244 z m 932.27953,-1.4036 c -4.9175,-0.63832 -7,-1.31772 -7,-2.28366 0,-1.425 7.0931,-1.13568 9.8673,0.40247 2.6834,1.48775 1.2659,2.41771 -2.8673,1.88119 z M 1163.2892,974 c 0.2426,-0.825 0.076,-2.2125 -0.3698,-3.08333 -0.5574,-1.0883 -0.3588,-1.58334 0.6351,-1.58334 1.688,0 1.8788,2.51134 0.3546,4.66667 -0.943,1.33333 -1.0119,1.33333 -0.6199,0 z m 22.2113,-2.49705 c -0.55,-0.18654 -2.6875,-0.62141 -4.75,-0.96637 -2.0625,-0.34496 -3.75,-1.05682 -3.75,-1.58189 0,-1.28287 3.9014,-1.21126 13.4836,0.24748 6.0284,0.91773 7.3754,1.38476 5.5,1.90693 -2.6285,0.73188 -8.803,0.96385 -10.4836,0.39385 z M 1248.2527,968.5 c -0.011,-2.2 0.1846,-3.21775 0.4349,-2.26166 0.2503,0.95609 0.2594,2.75609 0.02,4 -0.2392,1.24391 -0.444,0.46166 -0.4551,-1.73834 z m 0.9057,-6.5 c 0,-1.375 0.227,-1.9375 0.5044,-1.25 0.2774,0.6875 0.2774,1.8125 0,2.5 -0.2774,0.6875 -0.5044,0.125 -0.5044,-1.25 z m -163.9597,0.46843 c 0.9109,-0.91086 7.8337,-1.15402 11.6543,-0.40935 2.8147,0.54859 1.8399,0.73718 -4.2692,0.82592 -4.3541,0.0633 -7.6774,-0.12421 -7.3851,-0.41657 z m -36.9112,-3.56923 c 1.1969,-0.69658 3.5083,-0.72576 7,-0.0884 l 5.213,0.95159 -7,0.0884 c -5.2939,0.0668 -6.5645,-0.16508 -5.213,-0.9516 z m -41.537,-2.70957 c -2.0625,-0.1707 -3.75,-0.76901 -3.75,-1.32959 0,-1.16836 12.569,-0.14306 15,1.2236 1.4549,0.81794 -2.2285,0.85265 -11.25,0.10599 z M 966.00051,952 c -2.07256,-0.66375 -1.7306,-0.81506 2,-0.88501 3.24834,-0.0609 4.08278,0.18526 3,0.88501 -1.68944,1.0918 -1.59086,1.0918 -5,0 z m -41.5,-3.10809 -4,-0.6081 4.5,-0.24322 c 6.22915,-0.33668 11.36852,-0.003 12.19388,0.79144 0.86713,0.83475 -7.34205,0.87348 -12.69388,0.0599 z m -635.36982,-7.28918 c -0.67113,-2.66531 -1.00455,-5.06169 -0.74093,-5.32531 0.66593,-0.66593 2.81595,7.60697 2.34452,9.02127 -0.21084,0.63252 -0.93245,-1.03066 -1.60359,-3.69596 z m 592.98769,3.49128 c -2.52856,-1.60145 2.29683,-2.23195 8.91935,-1.16542 3.4252,0.55161 6.46804,1.24334 6.76187,1.53717 0.91324,0.91324 -14.21873,0.55451 -15.68122,-0.37175 z M 1251.3286,935.5 c 0,-3.85 0.1727,-5.54754 0.3936,-3.7723 0.2209,1.77523 0.2246,4.92523 0.01,7 -0.2165,2.07476 -0.3972,0.6223 -0.4017,-3.2277 z m -449.32809,2.6119 c -5.72728,-1.02244 -1.65321,-2.38409 4.86849,-1.62716 7.74676,0.8991 10.23518,2.52194 3.63151,2.36831 -2.75,-0.064 -6.575,-0.3975 -8.5,-0.74115 z m -43,-2.80611 c -7.29912,-0.43031 -10.50056,-1.21041 -9.39464,-2.28919 0.91659,-0.89411 26.07695,1.33238 27.14685,2.40228 0.5718,0.57179 -6.94745,0.52389 -17.75221,-0.11309 z m -48.86417,-1.64212 c -1.82897,-2.20378 -4.24299,-9.91729 -4.30727,-13.76303 -0.0867,-5.18881 1.66367,-7.90064 5.09963,-7.90064 3.40327,0 4.06644,1.35191 4.08712,8.33179 0.0194,6.55143 0.89142,7.98071 4.34085,7.11496 2.08309,-0.52283 2.54489,-0.35246 2.11081,0.77873 -0.42951,1.11927 0.98673,1.696 6.23869,2.54055 l 6.79434,1.09257 -10.15936,-0.32992 c -9.29312,-0.30179 -10.20173,-0.16787 -10.65638,1.5707 -0.58161,2.22408 -1.98562,2.44735 -3.54843,0.56429 z m 15.79678,-6.24487 c -1.06207,-1.27972 -1.0717,-1.96643 -0.0505,-3.60161 0.69397,-1.11122 1.72157,-4.78718 2.28354,-8.1688 0.56198,-3.38161 1.17018,-6.82339 1.35156,-7.64839 0.18138,-0.825 0.36422,-2.0625 0.4063,-2.75 0.10113,-1.65221 3.5373,-1.60463 4.92563,0.0682 1.42566,1.71782 3.54505,11.62096 2.67354,12.49247 -0.36997,0.36997 -1.12524,-0.13604 -1.67839,-1.12445 -1.54966,-2.7691 -3.62625,-0.3524 -4.4214,5.14555 -0.981,6.78292 -2.88756,8.72309 -5.49026,5.58703 z M 1253.1999,909 c 0,-1.925 0.3602,-4.625 0.8006,-6 0.7245,-2.26238 0.8006,-2.16733 0.8006,1 0,1.925 -0.3602,4.625 -0.8006,6 -0.7245,2.26238 -0.8006,2.16733 -0.8006,-1 z M 663.62487,885.63947 c -0.33871,-1.34952 -0.89089,-3.17047 -1.22708,-4.04657 -0.33619,-0.87609 -0.1335,-1.5929 0.45042,-1.5929 0.58392,0 1.36108,1.59598 1.72703,3.54663 0.76247,4.06434 -0.022,5.79182 -0.95037,2.09284 z M 1217.1999,883.5 c 0,-2.2 0.3602,-5.125 0.8006,-6.5 0.6841,-2.13604 0.8006,-1.91767 0.8006,1.5 0,2.2 -0.3602,5.125 -0.8006,6.5 -0.6841,2.13604 -0.8006,1.91767 -0.8006,-1.5 z m 37.8795,-0.91667 c -0.043,-1.05416 0.193,-1.64479 0.5253,-1.3125 0.3323,0.33229 0.3678,1.1948 0.079,1.91667 -0.3192,0.79773 -0.5562,0.56078 -0.6042,-0.60417 z M 271.00051,875.5 c -0.70179,-2.50654 -1.04665,-4.78669 -0.76635,-5.06698 0.2803,-0.2803 1.03765,1.58734 1.68302,4.15031 1.52781,6.06749 0.74472,6.85058 -0.91667,0.91667 z m 985.07889,1.08333 c -0.043,-1.05416 0.193,-1.64479 0.5253,-1.3125 0.3323,0.33229 0.3678,1.1948 0.079,1.91667 -0.3192,0.79773 -0.5562,0.56078 -0.6042,-0.60417 z m 214.1594,-11.27041 c 0.9561,-0.25029 2.7561,-0.25937 4,-0.0202 1.244,0.23919 0.4617,0.44398 -1.7383,0.45508 -2.2,0.0111 -3.2177,-0.18461 -2.2617,-0.4349 z M 652.73288,843.96747 c -1.58662,-6.32741 -2.0615,-9.65559 -1.28587,-9.01187 1.455,1.20754 3.41462,7.40344 4.48689,14.18656 1.32305,8.36955 -0.57357,5.30352 -3.20102,-5.17469 z m 795.63032,5.96918 c 0.3369,-1.68485 1.2932,-4.03498 2.125,-5.22251 1.5025,-2.14517 1.5123,-2.14573 1.5123,-0.0859 0,3.06785 -2.0418,8.37173 -3.2228,8.37173 -0.6127,0 -0.78,-1.23611 -0.4145,-3.06335 z M 261.59667,843.61262 c -2.21182,-5.79156 -3.2603,-12.14111 -1.86213,-11.277 1.15139,0.7116 4.79135,14.47234 4.02966,15.23402 -0.26122,0.26122 -1.23661,-1.51944 -2.16753,-3.95702 z m -6.97428,-24.99703 c -2.2067,-4.65026 -3.0452,-9.23593 -1.82655,-9.9891 0.86512,-0.53467 4.53608,12.35656 3.74729,13.15927 -0.15444,0.15716 -1.01878,-1.26941 -1.92074,-3.17017 z M 1336.2357,771.29232 c -1.2457,-0.23942 -2.0363,-0.80513 -1.7569,-1.25714 0.2793,-0.45201 -0.614,-1.10341 -1.9852,-1.44756 -1.3712,-0.34415 -2.4931,-1.29215 -2.4931,-2.10667 0,-0.81452 -0.675,-1.48095 -1.5,-1.48095 -2.5132,0 -1.6705,-2.73425 1,-3.24475 1.5919,-0.30432 2.5,-0.0223 2.5,0.77643 0,1.81085 3.0165,2.69955 4.6267,1.36313 1.1136,-0.92413 1.3733,-0.56027 1.3733,1.92373 0,1.68488 0.5265,3.3888 1.1699,3.78649 0.7821,0.48333 0.9623,0.18197 0.5437,-0.90896 -0.3444,-0.89761 -0.1959,-1.89799 0.3301,-2.22306 0.5288,-0.32683 0.9563,0.77641 0.9563,2.46797 0,3.08671 -0.2632,3.21658 -4.7648,2.35134 z m -26.6134,-5.83544 c -0.476,-1.24057 -1.0057,-1.32178 -2.7016,-0.41418 -1.9245,1.02997 -2.047,0.92415 -1.3965,-1.20687 0.6589,-2.15897 2.051,-4.19036 5.2263,-7.62613 1.0212,-1.10497 1.2565,-1.11067 1.2854,-0.0311 0.02,0.72679 0.6142,0.27846 1.3215,-0.99629 1.2683,-2.28594 1.3012,-2.26538 2.401,1.5 0.6133,2.09975 0.8746,5.01118 0.5807,6.46985 -0.4793,2.37873 -0.8268,2.56825 -3.3711,1.83855 -2.2469,-0.64441 -2.7241,-0.52009 -2.2951,0.59787 0.2978,0.7763 0.3166,1.41145 0.042,1.41145 -0.275,0 -0.7665,-0.69441 -1.0922,-1.54312 z m -1.6218,-9.89786 c 0,-0.24254 0.45,-0.7191 1,-1.05902 0.55,-0.33992 1,-0.14148 1,0.44098 0,0.58246 -0.45,1.05902 -1,1.05902 -0.55,0 -1,-0.19844 -1,-0.44098 z m 166.0703,-1.70203 c -0.042,-1.57756 0.5921,-2.89719 1.5728,-3.27354 0.9037,-0.34679 1.3752,-0.89851 1.0476,-1.22604 -0.831,-0.83102 1.4695,-2.95608 4.1059,-3.79287 2.3224,-0.73709 3.1319,0.8355 0.9534,1.85213 -1,0.46666 -1,0.7 0,1.16666 0.6875,0.32084 1.25,1.22084 1.25,2 0,1.69047 -2.5871,1.89375 -3.5835,0.28157 -0.453,-0.73296 -1.1699,-0.29012 -2.0236,1.25 -0.7271,1.31181 -1.3696,1.9351 -1.4277,1.3851 -0.058,-0.55 -0.4925,-0.1 -0.9652,1 -0.7723,1.7973 -0.8666,1.73213 -0.9297,-0.64301 z m -2.0141,-5.42465 c 0.6437,-0.77568 1.5694,-1.16372 2.0571,-0.86231 1.3201,0.81588 1.101,1.14067 -1.1705,1.73466 -1.6808,0.43956 -1.843,0.27999 -0.8866,-0.87235 z m 15.1313,-11.49484 c 0.2406,-0.72187 1.0281,-1.50937 1.75,-1.75 0.75,-0.25 1.125,0.125 0.875,0.875 -0.2406,0.72187 -1.0281,1.50937 -1.75,1.75 -0.75,0.25 -1.125,-0.125 -0.875,-0.875 z m -58.9767,-213.11418 c 0.6008,-1.82782 1.246,-3.91434 1.4337,-4.6367 0.1878,-0.72236 0.7677,-1.04992 1.2887,-0.7279 1.174,0.72557 -0.5229,5.95586 -2.4516,7.55655 -1.1383,0.94467 -1.1829,0.58295 -0.2708,-2.19195 z M 1322.0005,365 c 0,-0.55 1.0125,-0.99311 2.25,-0.98469 1.8194,0.0124 1.963,0.20082 0.75,0.98469 -1.9388,1.25292 -3,1.25292 -3,0 z M 1178.53,345.75 c -2.0495,-2.9113 -7.5295,-19.97563 -7.5295,-23.44623 0,-4.13433 3.8778,-11.18923 7.0528,-12.83105 3.6804,-1.90322 6.9472,-1.8904 6.9472,0.0273 0,0.825 -0.8673,1.5 -1.9274,1.5 -4.1574,0 -8.2775,8.88008 -6.0507,13.041 1.1506,2.14984 2.9692,2.27076 7.2281,0.48061 2.7581,-1.15934 2.1325,1.59823 -0.9136,4.02714 l -2.6636,2.12389 1.2334,7.64615 c 1.1889,7.36945 0.9719,9.68121 -0.9085,9.68121 -0.4864,0 -1.5971,-1.0125 -2.4682,-2.25 z m 18.2634,-17.70994 c -1.1471,-1.83694 -1.3396,-1.85527 -3.067,-0.29204 -1.3901,1.2581 -2.2559,1.40745 -3.5235,0.60784 -1.7366,-1.09539 -5.1913,-9.49432 -5.1984,-12.63808 -0.01,-2.61794 3.9839,-3.8483 6.764,-2.08587 1.8006,1.14148 2.3476,1.173 2.6541,0.15294 1.3006,-4.32874 1.6864,-4.78485 4.0465,-4.78485 l 2.5314,0 0,10.5 c 0,8.64015 -0.2642,10.5 -1.4915,10.5 -0.8204,0 -2.0424,-0.88197 -2.7156,-1.95994 z m -501.93211,-6.9573 -2.36078,-1.91723 2,-2.68822 c 2.62665,-3.5305 3.92846,-3.59905 4.31642,-0.22731 0.39071,3.39561 1.41024,3.44164 5.59153,0.25241 3.88546,-2.96358 7.15428,-8.59487 6.29259,-10.8404 -0.3375,-0.87952 -3.59222,-3.05142 -7.23271,-4.82645 -7.49361,-3.65374 -10.08831,-7.07336 -8.51231,-11.21856 0.52181,-1.37247 1.8407,-2.97276 2.93087,-3.5562 2.90808,-1.55636 8.67634,-1.2926 10.13367,0.46337 1.93866,2.33594 0.26677,3.04539 -2.10932,0.89505 -2.0731,-1.87612 -2.12727,-1.87004 -4.00613,0.45025 -2.0075,2.47916 -2.43507,5.74571 -1.04003,7.94566 0.45868,0.72332 3.71429,2.78407 7.23469,4.57943 7.17963,3.66152 9.27018,6.49396 7.7548,10.50683 -1.43498,3.79999 -5.78673,8.08814 -10.35407,10.20275 -5.11944,2.37022 -7.70072,2.36503 -10.63922,-0.0214 z m -415.16127,-5.42344 c -0.28296,-0.73738 -0.11299,-1.97488 0.3777,-2.75 0.6493,-1.02567 0.89633,-0.66071 0.90748,1.34068 0.0166,2.98623 -0.47372,3.52394 -1.28518,1.40932 z m 675.76251,0.40214 c 0.31902,-0.5162 -0.21692,-1.40251 -1.19099,-1.96959 -1.61363,-0.93942 -1.58057,-1.03376 0.37198,-1.06146 1.17866,-0.0167 2.41616,0.68139 2.75,1.55138 0.86096,2.24362 0.79223,2.41821 -0.95203,2.41821 -0.85746,0 -1.29799,-0.42234 -0.97896,-0.93854 z M 971.00051,315 c 0,-0.55 0.45,-1 1,-1 0.55,0 1,0.45 1,1 0,0.55 -0.45,1 -1,1 -0.55,0 -1,-0.45 -1,-1 z m -24.85501,-3.36648 c -3.04826,-1.1033 -3.2013,-1.3419 -1.67379,-2.60962 1.05817,-0.8782 1.93094,-1.02704 2.35502,-0.40163 0.37058,0.54651 1.78641,1.75507 3.14629,2.68569 2.86054,1.95759 1.09619,2.10766 -3.82752,0.32556 z m -665.38783,-2.84039 c -0.26945,-0.71122 0.0985,-7.81813 0.81775,-15.79313 0.71922,-7.975 1.84761,-21.25 2.50754,-29.5 0.65994,-8.25 1.57267,-15.675 2.02831,-16.5 1.23308,-2.23269 1.11147,0.62358 -1.12829,26.5 -3.44887,39.84568 -3.22115,37.94359 -4.22531,35.29313 z M 697.66552,239.75 c -1.92959,-3.9875 -3.70162,-8.825 -3.93785,-10.75 -0.23623,-1.925 -1.02125,-5.56811 -1.7445,-8.0958 -1.89588,-6.62598 -1.08439,-7.9042 5.01807,-7.9042 6.29362,0 10.98278,1.89495 13.92889,5.62882 1.83367,2.32397 2.17032,3.72882 1.7664,7.37118 -0.42211,3.80639 -1.20782,5.12488 -5.09752,8.55411 -4.08989,3.60571 -4.5985,4.51818 -4.5985,8.25 0,2.30774 -0.411,4.19589 -0.91333,4.19589 -0.50233,0 -2.49208,-3.2625 -4.42166,-7.25 z m 10.68112,-14.02882 c 1.70266,-3.48516 1.72267,-3.96723 0.25756,-6.20327 -2.60719,-3.97907 -12.72916,-4.87493 -13.43203,-1.18881 -0.19183,1.006 0.18719,3.12303 0.84226,4.7045 1.02613,2.47731 1.59219,2.79518 4.08856,2.2959 2.62399,-0.52479 2.89752,-0.32477 2.89752,2.11882 0,3.9451 3.05756,2.95731 5.34613,-1.72714 z M 286.01582,242.75 c -0.008,-1.5125 0.43469,-2.75 0.98469,-2.75 1.26441,0 1.26441,2.04347 0,4 -0.75538,1.16887 -0.97275,0.89294 -0.98469,-1.25 z m 434.59327,-11.77024 c -0.88472,-2.21113 -1.60858,-5.29398 -1.60858,-6.85077 0,-1.5568 -0.50203,-4.27066 -1.11562,-6.03081 -1.42876,-4.09856 -0.6595,-4.78024 3.63995,-3.22554 3.11394,1.12601 3.89879,1.01752 7.57142,-1.04661 l 4.09736,-2.30285 2.24957,2.61529 c 1.41975,1.65055 2.47939,4.55569 2.87257,7.87555 0.62508,5.27777 2.82861,8.98598 5.33974,8.98598 0.73975,0 1.34501,0.45 1.34501,1 0,1.31548 -2.61864,1.27446 -5.15076,-0.0807 -2.27857,-1.21946 -5.79399,-8.25921 -5.82728,-11.66932 -0.0264,-2.70537 -1.38052,-2.77377 -6.0201,-0.30408 l -3.49815,1.86208 0.33921,6.596 c 0.27329,5.31435 0.0512,6.596 -1.14328,6.596 -0.81536,0 -2.20634,-1.80911 -3.09106,-4.02024 z M 1263.7152,215.25 c -0.2631,-2.6125 -1.0468,-10.6 -1.7416,-17.75 -0.6948,-7.15 -1.6393,-13.41884 -2.0989,-13.93076 -0.4767,-0.53091 -2.1486,1.96474 -3.8918,5.80937 -3.5763,7.88724 -4.7418,12.62139 -3.1074,12.62139 2.0481,0 1.1668,2.02382 -1.3883,3.188 -1.8857,0.85918 -2.9553,2.64619 -4.2835,7.15642 -2.1536,7.31279 -3.9134,8.32008 -4.8041,2.74984 -0.6763,-4.22895 -2.5852,-6.71532 -4.3285,-5.63787 -0.5594,0.34571 -1.7554,2.18445 -2.6578,4.08609 -2.7332,5.75983 -7.1436,3.77515 -8.9833,-4.04248 -1.1266,-4.78739 -1.4623,-4.86706 -5.2945,-1.25651 -8.7492,8.24313 -13.1939,9.69759 -17.2476,5.64394 -2.6737,-2.67369 -2.0796,-7.48747 1.6125,-13.06664 3.9236,-5.92898 12.0582,-9.9629 13.9425,-6.91405 0.3082,0.49871 -0.3663,0.66443 -1.4988,0.36826 -2.6474,-0.69231 -6.8605,3.2662 -9.8526,9.25716 -4.3572,8.72456 -0.9244,11.39113 7.3212,5.68696 5.6771,-3.9273 9.4364,-9.59735 10.2051,-15.39189 0.5046,-3.804 1.0197,-4.84739 2.2678,-4.59404 1.3525,0.27454 1.5704,1.62261 1.3409,8.2973 -0.1507,4.38323 0.1196,9.31951 0.6007,10.96951 l 0.8746,3 1.4826,-3.5 c 0.8155,-1.925 2.4849,-7.325 3.71,-12 3.3031,-12.60562 5.1571,-18 6.1865,-18 1.351,0 1.123,5.76112 -0.5802,14.66203 -1.8861,9.85643 -1.9348,9.33797 0.8774,9.33797 3.055,0 3.5098,-0.66307 8.1173,-11.8343 3.6731,-8.90558 6.7882,-14.1657 8.3891,-14.1657 2.2216,0 4.9683,4.33274 5.5118,8.69441 1.1198,8.98836 1.6519,35.30559 0.7137,35.30559 -0.5041,0 -1.1317,-2.1375 -1.3948,-4.75 z M 323.89283,202.5 c -1.74022,-3.72988 -2.43081,-7.26702 -2.71858,-13.92448 -0.42876,-9.91935 0.79763,-15.53929 4.0528,-18.57195 l 2.14756,-2.00075 2.39842,2.24859 c 2.00863,1.88315 2.29897,2.87296 1.78646,6.09036 C 330.84804,180.80812 327.4062,188 325.98019,188 c -1.2996,0 -1.24244,8.5136 0.0894,13.30961 1.66433,5.99352 0.38952,6.69069 -2.17672,1.19039 z m 4.04184,-27.5 c 0.004,-1.33333 -0.0893,-1.33333 -0.84361,0 -0.46674,0.825 -1.14683,2.625 -1.5113,4 l -0.66268,2.5 1.50628,-2.5 c 0.82845,-1.375 1.50854,-3.175 1.51131,-4 z m -47.47961,28.54545 c -4.37028,-4.37027 -3.1611,-11.54386 3.11719,-18.49317 3.43953,-3.80716 8.42826,-5.61381 8.42826,-3.05228 0,0.55 -0.64224,1 -1.4272,1 -4.12702,0 -12.0065,15.56757 -9.44293,18.65649 1.44996,1.74709 3.0675,1.69509 7.0862,-0.2278 4.64481,-2.22248 8.35585,-7.95691 8.69037,-13.42869 0.15131,-2.475 0.44242,-4.67065 0.6469,-4.87923 0.49809,-0.50807 1.94469,3.14304 4.02585,10.16099 2.79284,9.41783 4.4783,8.83624 6.41277,-2.21285 2.49837,-14.26985 3.19104,-17.07384 4.08173,-16.52336 1.21449,0.75059 1.16502,7.34812 -0.11588,15.45445 -1.51632,9.59615 -2.81147,13 -4.94647,13 -2.00357,0 -6.49188,-4.78798 -7.5175,-8.01942 -0.5658,-1.78268 -1.0924,-1.41931 -4.3191,2.9803 C 291.83769,202.51165 287.0119,206 284.05393,206 c -0.62938,0 -2.24887,-1.10455 -3.59887,-2.45455 z m 862.79544,-88.20773 c -1.8414,-0.74303 -1.5199,-3.0339 0.5,-3.56199 1.2746,-0.33323 1.7892,0.17843 1.8942,1.88337 0.1462,2.37332 -0.1529,2.58302 -2.3942,1.67862 z m 35.0833,-33.742379 c 0,-0.772563 0.5974,-1.17541 1.3276,-0.895215 0.7302,0.280194 1.0786,0.91229 0.7743,1.404659 -0.8463,1.369438 -2.1019,1.065129 -2.1019,-0.509444 z M 562.00051,79 c 0,-0.55 0.19844,-1 0.44098,-1 0.24254,0 0.7191,0.45 1.05902,1 0.33992,0.55 0.14148,1 -0.44098,1 -0.58246,0 -1.05902,-0.45 -1.05902,-1 z m 621.99999,-3.881966 c 0,-0.55 0.45,-1.278115 1,-1.618034 0.55,-0.339919 1,-0.168034 1,0.381966 0,0.55 -0.45,1.278115 -1,1.618034 -0.55,0.339919 -1,0.168034 -1,-0.381966 z m 267,-3.218034 c 0,-0.495 1.125,-0.9 2.5,-0.9 1.5556,0 2.5,-0.566667 2.5,-1.5 0,-0.825 0.3938,-1.5 0.875,-1.5 0.4813,0 0.875,1.08 0.875,2.4 0,2.059259 -0.4792,2.4 -3.375,2.4 -1.8562,0 -3.375,-0.405 -3.375,-0.9 z m -263.8909,-2.268591 c -1.4473,-1.743874 -0.1026,-2.863438 1.9303,-1.607067 1.0372,0.64103 1.1386,1.197702 0.3599,1.976399 -0.7787,0.778696 -1.4238,0.67467 -2.2902,-0.369332 z m 49.8909,-31.02442 c 0,-0.216156 0.6984,-0.661002 1.5519,-0.988546 0.89,-0.341496 1.2914,-0.173849 0.941,0.393011 -0.5872,0.950204 -2.4929,1.405448 -2.4929,0.595535 z m -6.6667,-7.063 c 0,-0.800807 0.3824,-1.219712 0.8497,-0.930902 0.4673,0.28881 0.5907,0.944015 0.2743,1.456011 -0.8086,1.308382 -1.124,1.161058 -1.124,-0.525109 z M 941.00051,3.559017 c 0,-0.8574594 0.45,-1.559017 1,-1.559017 0.55,0 1,0.4234424 1,0.940983 0,0.5175407 -0.45,1.2190983 -1,1.559017 -0.55,0.3399187 -1,-0.083524 -1,-0.940983 z"
     id="path3202"
     style="fill:#000000" />
</svg>
