<?xml version="1.0" encoding="UTF-8" standalone="no"?>
<!-- Created with Inkscape (http://www.inkscape.org/) -->

<svg
   xmlns:dc="http://purl.org/dc/elements/1.1/"
   xmlns:cc="http://creativecommons.org/ns#"
   xmlns:rdf="http://www.w3.org/1999/02/22-rdf-syntax-ns#"
   xmlns:svg="http://www.w3.org/2000/svg"
   xmlns="http://www.w3.org/2000/svg"
   version="1.1"
   width="1574.0015"
   height="1815.9657"
   id="svg3057">
  <metadata
     id="metadata3063">
    <rdf:RDF>
      <cc:Work
         rdf:about="">
        <dc:format>image/svg+xml</dc:format>
        <dc:type
           rdf:resource="http://purl.org/dc/dcmitype/StillImage" />
        <dc:title></dc:title>
      </cc:Work>
    </rdf:RDF>
  </metadata>
  <defs
     id="defs3061" />
  <path
     d="m 477.62668,1811.2155 c 3.83998,-5.6858 10.11307,-13.8949 14.79808,-19.3651 1.8755,-2.1898 6.6005,-8.1878 10.5,-13.3288 15.02048,-19.8026 18.12344,-23.1811 37.70787,-41.0561 3.61559,-3.3 7.65568,-6.8866 8.97797,-7.9701 10.65676,-8.7327 12.9335,-10.5299 13.33992,-10.5299 0.2552,0 2.41725,-1.3182 4.80457,-2.9294 11.11222,-7.4996 28.17317,-14.4235 39.53411,-16.0442 3.69907,-0.5278 8.97558,-1.6475 11.72558,-2.4883 2.75,-0.8409 8.825,-1.7701 13.5,-2.065 4.675,-0.2949 9.85,-0.7406 11.5,-0.9905 1.65,-0.2499 7.95,-0.8943 14,-1.432 6.05,-0.5377 13.53208,-1.6489 16.62685,-2.4694 8.55795,-2.2687 12.08219,-2.5168 43.37315,-3.0544 15.95,-0.2741 31.7,-0.9384 35,-1.4764 31.39194,-5.1174 79.522,-7.9588 98.06213,-5.7893 7.42459,0.8689 12.4387,0.8258 22.26052,-0.1912 6.97254,-0.722 20.10235,-1.6785 29.17735,-2.1256 20.53491,-1.0117 78.6678,0.6075 93.5,2.6044 6.05002,0.8144 13.47502,1.6951 16.50002,1.957 3.025,0.2619 6.85,0.8459 8.5,1.2977 1.65,0.4519 16.6544,0.6937 33.343,0.5373 33.7348,-0.316 35.6595,-0.5944 64.157,-9.277 6.875,-2.0947 17.225,-4.8215 23,-6.0595 11.0679,-2.3726 25.3311,-8.2813 40.9598,-16.968 4.6971,-2.6107 10.6839,-5.3221 13.3039,-6.0253 3.772,-1.0123 5.7496,-2.4173 9.5,-6.7492 2.605,-3.0089 5.5429,-6.734 6.5287,-8.2781 0.9858,-1.544 4.1411,-4.5807 7.0118,-6.748 2.8707,-2.1674 6.5516,-5.9196 8.1797,-8.3382 1.6281,-2.4186 3.8728,-5.5547 4.9882,-6.9691 1.1153,-1.4145 3.1529,-4.0899 4.5279,-5.9454 1.375,-1.8554 3.6597,-4.7481 5.077,-6.4282 8.9047,-10.5552 12.1794,-17.6193 22.7423,-49.0588 12.2105,-36.3436 12.2191,-36.4175 10.7759,-92.4959 -0.658,-25.5696 -0.5923,-27.0091 1.8722,-41 1.4048,-7.975 4.1379,-19.675 6.0736,-26 1.9356,-6.325 4.1655,-13.8258 4.9552,-16.6684 3.1805,-11.4482 23.6929,-50.2956 30.9192,-58.5564 4.5592,-5.2118 17.448,-16.1205 21.587,-18.2706 1.3763,-0.7149 3.4013,-2.2983 4.5,-3.5186 1.0987,-1.2203 4.0226,-3.5791 6.4976,-5.2417 9.3954,-6.3114 20.0708,-18.4459 23.7898,-27.0414 1.6521,-3.8183 1.5492,-18.9687 -0.1561,-22.985 -2.3504,-5.5358 -8.2753,-13.7467 -14.6783,-20.3419 -5.442,-5.6053 -20.6081,-17.7955 -28.1346,-22.6141 -1.4736,-0.9434 -4.3154,-3.4 -6.3152,-5.4592 l -3.6361,-3.7439 6.8152,-3.2673 c 3.7484,-1.797 7.2753,-3.2728 7.8375,-3.2794 0.5621,-0.01 2.7284,-1.4186 4.8138,-3.1376 2.0855,-1.719 7.0701,-5.2655 11.0769,-7.8812 9.8243,-6.4134 26.4952,-23.4831 32.6513,-33.4323 2.7017,-4.3665 8.369,-14.8724 12.594,-23.3464 l 7.6818,-15.4072 0.08,-8.6537 c 0.076,-8.2148 -0.1202,-9.0341 -3.8666,-16.1537 -14.8867,-28.2903 -18.2437,-40.3168 -14.0534,-50.3458 0.825,-1.9745 1.5,-4.8999 1.5,-6.501 0,-3.8733 5.787,-22.21964 10.9307,-34.65317 12.0976,-29.24294 24.9621,-50.22273 38.278,-62.42476 12.0432,-11.03581 15.3705,-13.08611 47.2808,-29.13495 8.7943,-4.42293 16.8943,-8.86328 18,-9.86744 1.1058,-1.00415 4.0355,-3.07564 6.5105,-4.60331 2.475,-1.52766 9.45,-7.72267 15.5,-13.76669 6.05,-6.04401 12.7602,-12.27847 14.9116,-13.85433 4.5607,-3.3407 9.3591,-9.89643 13.4302,-18.34852 1.5895,-3.3 5.428,-11.24033 8.5301,-17.64518 6.7377,-13.91133 7.6382,-18.0895 7.5954,-35.24131 -0.036,-14.2993 -0.7674,-20.93796 -3.9708,-36.02768 -2.7285,-12.85259 -10.7038,-29.44778 -34.6703,-72.1422 -2.1786,-3.88101 -6.5694,-10.58332 -9.7573,-14.89404 -3.1879,-4.31071 -10.0704,-14.5953 -15.2945,-22.85463 -10.2329,-16.17856 -16.3734,-24.81648 -28.2148,-39.69063 -4.1578,-5.22262 -8.876,-11.29762 -10.4848,-13.5 -2.8523,-3.90452 -5.0799,-6.54487 -20.5748,-24.38802 -6.8752,-7.91714 -10.9903,-13.31408 -30.2064,-39.61631 -3.6165,-4.95 -8.958,-13.05 -11.8702,-18 -2.9121,-4.95 -8.3099,-13.5 -11.9951,-19 -3.6852,-5.5 -9.3097,-14.725 -12.4988,-20.5 -3.1892,-5.775 -7.4446,-12.975 -9.4565,-16 -7.5635,-11.3719 -22.4461,-36.80003 -26.17,-44.71353 -2.246,-4.773 -5.7426,-15.4546 -8.3473,-25.5 -2.4653,-9.50756 -5.3342,-19.98647 -6.3753,-23.28647 -7.5186,-23.83025 -11.114,-37.81223 -15.6855,-61 -2.1584,-10.94748 -2.8366,-29.15773 -1.4899,-40 1.4098,-11.34941 7.4968,-30.53744 15.5443,-49 0.7193,-1.65 2.4654,-5.925 3.8803,-9.5 1.415,-3.575 5.3275,-12.8 8.6945,-20.5 3.3671,-7.7 7.4098,-17.71033 8.9839,-22.24517 1.574,-4.53484 3.9758,-10.38484 5.3372,-13 1.3613,-2.61516 4.8009,-9.70483 7.6435,-15.75483 4.4114,-9.38896 5.1931,-11.951973 5.3376,-17.499997 0.3099,-11.905204 -2.521,-38.220251 -4.958,-46.087491 -0.7816,-2.52312 -2.3078,-9.49812 -3.3917,-15.5 -1.0838,-6.00188 -2.8543,-14.962509 -3.9344,-19.912509 -1.0801,-4.9500001 -1.9814,-9.7875001 -2.003,-10.7500001 -0.057,-2.56122957 2.835,-2.13953044 3.4294,0.5 1.4597,6.4816123 4.8953,23.4529801 6.5286,32.2500001 1.0211,5.5 2.2819,11.125 2.8016,12.5 0.5198,1.375 1.5244,5.875 2.2325,10 0.7081,4.125 1.6076,7.95 1.9988,8.5 1.1554,1.624197 2.1951,32.127682 1.1646,34.165891 -0.5101,1.008756 -2.7581,5.884106 -4.9957,10.834106 -2.2376,4.95 -5.4964,12.15 -7.2417,16 -1.7454,3.85 -4.4466,10.6 -6.0028,15 -1.5561,4.4 -5.3812,14.075 -8.5001,21.5 -3.119,7.425 -7.4612,17.775 -9.6494,23 -6.8842,16.43775 -15.4295,41.04189 -17.3655,50 -2.3569,10.90564 -1.8628,34.28503 1.0144,48 4.5382,21.6323 6.6544,30.50535 9.5994,40.25 1.6207,5.3625 4.3488,14.3625 6.0624,20 1.7137,5.6375 4.3876,15.45792 5.9421,21.82316 5.0938,20.85832 9.2195,29.44965 29.5565,61.54879 5.6179,8.86708 11.2112,18.09208 12.4294,20.5 2.8357,5.60484 8.871,15.45498 18.1211,29.57531 4.0344,6.15849 9.8969,15.15849 13.0278,20 11.7225,18.12711 30.7953,43.24452 44.2067,58.21682 16.9655,18.94001 46.9984,59.16548 53.0779,71.09148 0.9797,1.92194 5.8637,9.11944 10.8533,15.99444 8.5446,11.7734 12.0477,17.41044 20.5077,33 1.9401,3.575 4.8144,8.75 6.3874,11.5 1.573,2.75 6.4494,12.2 10.8364,21 8.2213,16.49138 8.0855,16.04852 12.1085,39.5 0.7415,4.32202 1.2957,15.76276 1.3081,27 0.024,21.71038 0.3884,20.0488 -8.2099,37.41839 -2.9726,6.00511 -6.1979,12.98011 -7.1673,15.5 -1.9637,5.10455 -10.7251,18.08161 -12.2077,18.08161 -0.5235,0 -7.1262,6.21538 -14.6727,13.81196 -7.5466,7.59658 -15.521,14.87911 -17.721,16.1834 -2.2,1.30429 -5.4329,3.5992 -7.1843,5.0998 -1.7514,1.5006 -4.2264,3.05781 -5.5,3.46048 -1.2736,0.40267 -3.6657,1.75735 -5.3157,3.01039 -1.65,1.25304 -4.35,2.61028 -6,3.01609 -1.65,0.40581 -4.6786,1.79085 -6.7301,3.07786 -2.0516,1.28701 -3.9795,2.34002 -4.2843,2.34002 -0.3047,0 -5.6916,2.94987 -11.9707,6.55526 -23.7799,13.65411 -35.3942,25.58093 -48.1489,49.44474 -11.5095,21.53388 -27.366,65.84707 -27.366,76.47817 0,6.176 3.2092,15.1371 11.4304,31.9175 4.6089,9.4073 8.6473,18.9043 8.9742,21.1043 0.3269,2.2 0.8721,5.0125 1.2115,6.25 0.4977,1.8144 0.211,2.25 -1.4804,2.25 -1.4743,0 -2.2782,0.8172 -2.7054,2.75 -1.661,7.515 -4.2993,14.1068 -11.5359,28.8214 -6.2197,12.6469 -9.2345,17.5543 -14.1491,23.031 -3.4349,3.8278 -7.3728,8.2957 -8.7509,9.9286 -6.5151,7.7201 -26.9331,22.8754 -37.2444,27.6447 -3.7125,1.7171 -6.75,3.4551 -6.75,3.8622 0,0.407 3.7125,3.5079 8.25,6.8907 23.1579,17.2651 29.9435,23.6972 38.0538,36.0714 5.9936,9.1446 7.4898,22.1803 3.6974,32.2125 -4.0767,10.784 -17.2392,24.1546 -40.6854,41.3283 -9.3574,6.8541 -19.796,18.5696 -23.4376,26.3045 -1.7231,3.6601 -4.2459,8.1465 -5.6061,9.9698 -4.289,5.749 -14.8027,29.2397 -18.2094,40.6849 -1.8008,6.05 -3.8937,12.8 -4.6509,15 -0.7571,2.2 -2.5899,10.075 -4.0728,17.5 -2.5042,12.5391 -2.6888,15.2082 -2.5944,37.5 0.056,13.2 0.4268,24.8329 0.8243,25.8509 0.3974,1.018 0.2924,2.143 -0.2332,2.5 -0.9809,0.6661 -1.2118,4.3354 -1.2052,19.1491 0.01,11.5886 -2.5048,25.9716 -7.2421,41.5 -11.4294,37.4639 -15.5624,47.7269 -22.9782,57.0588 -2.1597,2.7176 -7.4105,9.6552 -11.6684,15.4168 -4.258,5.7615 -9.2771,11.8365 -11.1535,13.5 -1.8765,1.6634 -5.7015,5.4632 -8.5,8.4439 -13.4865,14.3643 -16.3242,16.7817 -20.3302,17.3191 -2.273,0.3048 -7.3441,2.6817 -12.1576,5.6984 -13.8935,8.7072 -28.2471,14.8765 -42.1005,18.0948 -6.875,1.5972 -17.675,4.56 -24,6.5839 -22.0311,7.0498 -25.1819,7.4749 -61.5,8.298 -18.15,0.4113 -34.125,0.3811 -35.5,-0.067 -4.8972,-1.5967 -28.71172,-4.1583 -41.65202,-4.4803 -7.2336,-0.18 -22.9836,-0.7823 -35,-1.3384 -24.3259,-1.1259 -38.90629,-0.7471 -63.42175,1.6478 -14.09697,1.3771 -19.70096,1.4514 -37.5,0.4974 -23.54999,-1.2623 -41.01041,-0.3005 -78.92625,4.3477 -16.18237,1.9838 -27.42351,2.688 -49,3.0696 -15.4,0.2724 -30.475,0.9714 -33.5,1.5534 -3.025,0.582 -7.75,1.4558 -10.5,1.9417 -8.09454,1.4304 -33.26685,3.9146 -39.66548,3.9146 -3.24879,0 -9.60311,0.8709 -14.12071,1.9354 -4.51759,1.0645 -12.45628,2.8693 -17.64151,4.0105 -11.98603,2.6382 -26.55216,9.7274 -38.53469,18.7545 -17.66615,13.3089 -41.57638,36.8926 -52.51676,51.7996 -2.4219,3.3 -7.36828,9.6 -10.99194,14 -3.62367,4.4 -9.63701,11.9375 -13.36298,16.75 -5.83994,7.5429 -7.18748,8.75 -9.76825,8.75 l -2.99376,0 3.20798,-4.75 z m 640.41352,-191.2089 c -0.326,-0.5274 0.5398,-9.6399 1.924,-20.25 1.3842,-10.6101 2.9605,-23.7911 3.5029,-29.2911 0.5425,-5.5 1.4177,-12.925 1.9449,-16.5 0.5272,-3.575 1.2342,-11 1.5711,-16.5 0.3369,-5.5 0.8073,-11.35 1.0455,-13 0.2382,-1.65 0.6843,-5.25 0.9915,-8 0.3071,-2.75 0.9482,-7.475 1.4245,-10.5 0.4764,-3.025 0.9202,-7.75 0.9863,-10.5 0.066,-2.75 0.3384,-6.125 0.6051,-7.5 0.7241,-3.7335 2.2964,-18.8776 4.5163,-43.5 1.0909,-12.1 2.1941,-23.35 2.4515,-25 0.2575,-1.65 0.7272,-6.15 1.0437,-10 0.3166,-3.85 0.787,-7.7258 1.0453,-8.6129 0.2584,-0.887 0.6823,-4.712 0.9422,-8.5 0.2598,-3.7879 0.7021,-8.4621 0.9827,-10.3871 0.2807,-1.925 1.1653,-10.925 1.9658,-20 0.8005,-9.075 1.9294,-20.775 2.5087,-26 0.5793,-5.225 1.9569,-18.275 3.0613,-29 1.1044,-10.725 2.4449,-23.325 2.9788,-28 0.5339,-4.675 1.2208,-12.0667 1.5264,-16.4261 0.3057,-4.3593 0.7986,-8.3191 1.0955,-8.7994 0.2969,-0.4804 0.943,-7.0387 1.4358,-14.574 0.4928,-7.5353 1.3559,-16.8505 1.918,-20.7005 1.1211,-7.6792 3.2973,-27.7249 5.5367,-51 0.7938,-8.25 1.6761,-17.025 1.9607,-19.5 0.5685,-4.9436 5.2347,-51.2179 6.0502,-60 0.6117,-6.5868 3.0882,-28.1754 4.5885,-40 0.5932,-4.675 1.2654,-10.75 1.4939,-13.5 0.2284,-2.75 0.8506,-9.5 1.3827,-15 0.5321,-5.5 1.6708,-17.65 2.5306,-26.99997 0.8597,-9.35 1.7833,-18.8 2.0522,-21 0.269,-2.2 1.1163,-10.075 1.8829,-17.5 4.6676,-45.2108 6.7637,-64.97149 8.1056,-76.41515 1.7184,-14.65452 4.0413,-37.81551 5.4288,-54.12838 0.5166,-6.07394 1.1584,-12.59894 1.4262,-14.5 1.476,-10.4757 7.1118,-62.07201 10.5358,-96.45647 1.6431,-16.5 3.7432,-37.09177 4.6669,-45.75949 0.9237,-8.66772 1.4518,-15.98717 1.1735,-16.26545 -1.038,-1.03801 -43.1862,-2.55939 -83.5463,-3.01568 -18.2808,-0.20667 -34.9308,-0.80985 -37,-1.34039 -2.0691,-0.53054 -12.9871,-1.23901 -24.2621,-1.57437 -11.275,-0.33537 -30.85,-1.04156 -43.5,-1.56931 -22.4698,-0.93742 -33.96262,-1.37092 -65.50002,-2.47064 -17.4146,-0.60724 -37.12748,-1.34572 -53.5,-2.00419 -6.05,-0.24332 -24.5,-0.89764 -41,-1.45403 -16.5,-0.5564 -34.95,-1.25093 -41,-1.5434 -13.16152,-0.63627 -28.21323,-1.22789 -50.5,-1.98494 -9.075,-0.30827 -20.775,-0.77045 -26,-1.02708 -5.225,-0.25663 -17.15,-0.714 -26.5,-1.01639 -30.42202,-0.98386 -41.90368,-1.45557 -47.5,-1.95147 -9.35643,-0.82908 -23.5949,-1.46164 -46.5,-2.06584 -12.1,-0.31917 -22.675,-0.75152 -23.5,-0.96077 -0.825,-0.20926 -10.95,-0.64974 -22.5,-0.97885 -18.71659,-0.53331 -31.52663,-0.96641 -90.5,-3.05974 -8.525,-0.30261 -22.7,-0.93232 -31.5,-1.39937 -8.8,-0.46704 -22.075,-0.90573 -29.5,-0.97486 -7.425,-0.0691 -15.75,-0.33679 -18.5,-0.59479 -4.40011,-0.41282 -21.89689,-1.15413 -70.5,-2.98698 -7.425,-0.28 -24.525,-0.93613 -38,-1.45806 -13.475,-0.52193 -34.4,-1.20689 -46.5,-1.52214 -12.1,-0.31524 -25.825,-0.7752 -30.5,-1.02214 -4.675,-0.24694 -14.575,-0.69443 -22,-0.99444 -7.425,-0.3 -22.95,-0.9728 -34.5,-1.4951 -17.66933,-0.79902 -38.81127,-1.29204 -45.75,-1.06688 -0.9625,0.0312 -1.6375,0.59256 -1.5,1.2474 0.43975,2.09426 -3.2022,2.03514 -6.83968,-0.11102 -3.80893,-2.24733 -6.92572,-2.6727 -7.91032,-1.07959 -0.75969,1.22921 -5.1807,1.32566 -5.92017,0.12916 -0.93086,-1.50615 -6.464282,-2.12331 -9.330262,-1.04063 -1.51226,0.57129 -3.98707,2.21927 -5.49957,3.66218 -3.47106,3.31135 -3.63056,1.77783 -0.18874,-1.81465 l 2.56126,-2.67338 -13.81126,-0.64924 C 14.238585,603.49581 0.89356103,602.71274 0.06477803,601.89867 -1.266594,600.59093 17.863361,600.74774 63.125848,602.41559 c 38.191792,1.4073 41.377912,1.4113 44.651662,0.056 0.96951,-0.40137 2.31965,-0.26758 3.00032,0.29733 0.70464,0.5848 13.07955,1.49051 28.73726,2.10326 29.6707,1.16112 46.17081,1.89832 57.99969,2.59133 4.125,0.24167 18.525,0.6843 32,0.98362 13.475,0.29932 29.9,0.78106 36.5,1.07054 6.6,0.28947 31.8,1.19546 56,2.01331 93.06547,3.1452 128.78247,4.42995 150.5,5.41354 12.375,0.56046 41.625,1.69866 65,2.52932 23.375,0.83067 47.45,1.72002 53.5,1.97634 6.05,0.25632 17.525,0.71814 25.5,1.02628 7.975,0.30814 17.875,0.76095 22,1.00625 4.125,0.2453 15.6,0.69358 25.5,0.99618 9.9,0.30259 22.95,0.76229 29,1.02155 9.70745,0.41599 31.87022,1.19626 85.5,3.01013 8.525,0.28833 26.3,0.95662 39.5,1.48508 31.72026,1.26991 47.47804,1.84142 68,2.46623 28.82452,0.8776 48.79529,1.62483 53.5,2.00177 2.475,0.19829 15.075,0.62786 28,0.9546 12.925,0.32674 26.875,0.79453 31,1.03955 4.12502,0.24501 15.60002,0.70895 25.50002,1.03098 9.9,0.32202 21.15,0.76129 25,0.97614 3.85,0.21484 17.9806,0.70932 31.4014,1.09884 21.0213,0.61011 24.5536,0.50184 25.5,-0.78165 1.249,-1.69377 4.9139,-3.81654 6.5892,-3.81654 0.6172,0 2.3343,1.31371 3.8158,2.91935 l 2.6936,2.91935 16,0.62757 c 8.8,0.34516 19.825,0.80882 24.5,1.03036 4.675,0.22153 20.0499,0.71702 34.1665,1.10107 l 25.6666,0.69829 0.5602,-4.39799 c 1.2249,-9.61472 2.7304,-23.52992 5.128,-47.398 1.3812,-13.75 3.3946,-32.875 4.4742,-42.5 1.0797,-9.625 3.3269,-30.55 4.9939,-46.5 1.6671,-15.95 3.9395,-37.325 5.05,-47.5 3.9334,-36.04087 4.6234,-44.50016 3.7704,-46.22466 -0.8656,-1.75005 -10.0481,-9.50368 -21.1838,-17.88742 -15.1584,-11.41228 -34.7049,-35.58641 -33.257,-41.13053 1.2202,-4.67215 4.6898,-8.75351 9.5242,-11.20326 2.7309,-1.38385 5.2526,-2.98109 5.6039,-3.5494 0.3512,-0.56832 2.3268,-1.89458 4.3902,-2.94725 2.0634,-1.05267 5.5936,-3.40874 7.8448,-5.23571 16.904,-13.71841 22.7038,-18.8224 27.2252,-23.95897 2.8463,-3.23362 6.8894,-6.86592 8.9846,-8.07178 3.548,-2.04197 3.8832,-2.64201 4.8829,-8.74174 1.8052,-11.01492 2.1301,-16.33035 3.1504,-51.54928 1.1743,-40.5357 1.9335,-53.5 3.1327,-53.5 0.4906,0 0.9438,7.3125 1.0071,16.25 0.081,11.38838 0.3625,15.05329 0.9424,12.25 0.455,-2.2 0.8602,-5.575 0.9003,-7.5 0.09,-4.32323 1.5233,-6.91904 3.0031,-5.43923 0.7157,0.71577 0.7416,4.32899 0.082,11.49164 -0.529,5.74617 -1.6582,18.32259 -2.5095,27.94759 -1.418,16.03289 -2.8486,31.09012 -4.1079,43.23651 -0.3335,3.21741 0.024,5.7321 1.1142,7.84069 1.1095,2.1455 1.4039,4.29597 0.9533,6.96319 -0.3903,2.30973 0.015,6.99062 1.0084,11.65931 3.8288,17.98768 6.5485,30.13434 7.9037,35.3003 2.0957,7.98807 12.2966,31.57296 16.4922,38.13044 8.342,13.0379 28.4769,38.39951 49.119,61.86956 9.6784,11.00429 18.9314,23.01532 31.0898,40.35645 3.504,4.99766 13.8154,24.45494 15.7873,29.79007 0.7053,1.90813 0.6179,3.13924 -0.3131,4.41248 -1.8068,2.47093 -4.0191,1.30709 -7.1498,-3.76123 -7.1476,-11.57159 -11.3557,-16.40682 -29.4238,-33.8083 -21.6367,-20.83842 -26.9954,-25.53953 -30.2794,-26.56362 -1.2251,-0.38205 -4.0275,-1.90474 -6.2275,-3.38376 -7.1529,-4.80875 -14.8979,-9.68337 -19.8293,-12.48031 -6.7257,-3.8146 -32.8558,-14.70997 -33.5688,-13.99702 -0.616,0.61604 -1.4656,22.86845 -2.4983,65.43524 -0.3402,14.025 -0.8358,32.475 -1.1012,41 -0.2654,8.525 -0.7144,26.975 -0.9978,41 -0.2833,14.025 -0.8011,36.61304 -1.1506,50.19564 l -0.6354,24.69564 2.3907,0.48463 c 1.3149,0.26655 15.2048,0.99016 30.8665,1.60802 27.5788,1.088 32.822,1.80924 33.7422,4.6415 0.2011,0.61899 -0.7782,1.34408 -2.1762,1.61133 -1.398,0.26724 -2.5447,0.2108 -2.5482,-0.12543 -0.01,-0.78695 -21.6293,-1.57028 -43.9774,-1.59331 l -17.4838,-0.018 -0.6602,5 c -0.3631,2.75 -0.9335,14.99863 -1.2676,27.21918 -0.5335,19.51282 -0.4246,22.149 0.8939,21.64301 1.8851,-0.72336 1.9578,0.55182 0.1156,2.02757 -1.4865,1.19081 -2.1668,12.00268 -3.1529,50.11024 -0.2847,11 -0.9618,35.3 -1.5048,54 -0.5429,18.7 -1.2505,46.6 -1.5724,62 -0.3218,15.4 -0.7136,29.8 -0.8705,32 -0.6391,8.96006 -0.7706,57.27496 -0.1585,58.26531 0.3626,0.58677 0.2188,2.22536 -0.3195,3.6413 -1.0226,2.68953 -2.3201,42.5996 -4.0506,124.5934 -1.3825,65.5055 -2.567,92.5855 -4.2612,97.4266 -1.0883,3.11 -1.5173,3.5536 -2.0624,2.1332 -0.6941,-1.8088 -0.146,-56.8217 0.7876,-79.0598 0.2771,-6.6 0.7422,-23.475 1.0336,-37.5 0.2913,-14.025 1.054,-43.4004 1.6949,-65.2787 0.8902,-30.39077 0.8888,-40.05514 -0.01,-40.95001 -0.6442,-0.64421 -1.1713,-1.93022 -1.1713,-2.85779 0,-1.27223 -1.4124,-1.92847 -5.75,-2.67164 l -5.75,-0.98516 6.6416,-0.12835 c 6.2392,-0.12058 6.6804,-0.28289 7.2817,-2.67885 0.3521,-1.40276 0.8357,-13.66526 1.0746,-27.25 0.239,-13.58473 0.6716,-34.37451 0.9614,-46.19951 0.2898,-11.825 0.7705,-32.3 1.0683,-45.5 0.2978,-13.2 0.9692,-36.15 1.4921,-51 0.5228,-14.85 1.4041,-47.925 1.9584,-73.5 0.5544,-25.575 1.2345,-50.1 1.5115,-54.5 0.2769,-4.4 0.1676,-8.50492 -0.243,-9.12204 -1.163,-1.74786 -19.3898,-2.72959 -21.5046,-1.15827 -1.9112,1.42008 -3.2546,11.40028 -8.7201,64.78031 -5.4981,53.69793 -7.9697,77.34565 -9.5112,91 -1.8024,15.9642 -7.1061,66.78676 -11.9956,114.94652 -2.6885,26.48159 -3.2176,34.61929 -2.2881,35.19375 0.6649,0.41098 4.1484,1.05121 7.741,1.42274 13.1069,1.35544 14.7176,2.36341 2.8818,1.80339 l -11.6503,-0.55123 -0.6024,2.84241 c -0.3313,1.56333 -1.0606,7.34242 -1.6207,12.84242 -0.56,5.5 -1.8969,18.55 -2.9709,29.00001 -1.074,10.45 -3.0842,30.25 -4.4673,44 -1.383,13.75 -2.7387,26.35 -3.0126,28 -0.274,1.65 -1.4227,12.9 -2.5527,25 -1.1301,12.1 -2.5028,26.275 -3.0505,31.5 -0.5477,5.225 -1.6708,16.475 -2.4958,25 -1.5958,16.4896 -2.4488,24.8542 -4.8953,48 -1.5857,15.002 -4.7328,45.0461 -6.5469,62.5 -0.5717,5.5 -1.4839,14.5 -2.0271,20 -0.5433,5.5 -1.645,15.625 -2.4483,22.5 -1.4115,12.0802 -2.9468,26.9886 -6.0243,58.5 -0.8058,8.25 -2.1331,21.3 -2.9497,29 -5.03,47.4297 -10.33,99.3994 -12.0339,118 -0.7557,8.25 -2.7409,27.15 -4.4115,42 -6.6281,58.9179 -7.2077,62.5 -10.1134,62.5 -1.022,0 -2.1249,-0.4315 -2.4508,-0.9589 z m 130.4746,-978.30368 c 0,-1.79444 0.4343,-16.98194 0.9651,-33.75 0.5308,-16.76807 1.4334,-48.71239 2.0057,-70.98739 0.5724,-22.275 1.2455,-44.325 1.4959,-49 0.2505,-4.675 0.7632,-22.28674 1.1394,-39.1372 l 0.684,-30.6372 -2.2722,-1.21605 c -2.9385,-1.57259 -3.6015,-0.53322 -4.3783,6.86288 -0.3251,3.09517 -1.9642,18.67757 -3.6425,34.62757 -1.6783,15.95 -3.9517,37.775 -5.052,48.5 -1.1003,10.725 -2.8775,27.6 -3.9494,37.5 -1.0719,9.9 -2.414,22.70449 -2.9824,28.45442 -0.5684,5.74993 -2.379,23.06118 -4.0234,38.46946 -1.6444,15.40827 -2.9899,29.00829 -2.9899,30.22226 0,2.79185 1.2405,3.09497 13.25,3.23786 l 9.75,0.116 0,-3.26261 z m 115.3513,-158.98739 c -6.0043,-9.78848 -19.3913,-27.33086 -31.326,-41.04969 -16.2392,-18.66676 -19.0524,-22.20887 -39.869,-50.20031 -9.586,-12.89002 -19.6208,-35.03578 -23.7139,-52.3345 -1.388,-5.86602 -3.2867,-13.8155 -4.2194,-17.6655 l -1.6957,-7 -0.6492,6.5 c -1.0479,10.49138 -3.2621,90.55703 -2.5552,92.39904 0.62,1.61565 11.3842,7.12477 26.1771,13.3974 3.85,1.63252 9.508,4.48366 12.5732,6.33589 3.0653,1.85222 7.0604,4.26767 8.878,5.36767 1.8176,1.1 5.3951,3.3998 7.9501,5.11068 2.555,1.71087 5.6797,3.43895 6.9439,3.84017 3.2493,1.03132 12.5217,8.64444 20.1548,16.54819 6.828,7.07014 20.8171,20.00096 21.6378,20.00096 0.2641,0 0.1352,-0.5625 -0.2865,-1.25 z m -107.9856,-101.25 c 0.5824,-29.65614 0.062,-29.16433 -3.4233,3.23255 -2.2226,20.6617 -2.2343,21.28742 -0.4368,23.27362 1.0159,1.1226 2.1807,1.69295 2.5885,1.26746 0.4077,-0.4255 0.9799,-12.92363 1.2716,-27.77363 z m -9.488,9.25 c 0.6428,-5.6375 2.9507,-26.675 5.1286,-46.75 2.178,-20.075 4.1497,-38.18741 4.3816,-40.24981 0.232,-2.06239 0.068,-3.96832 -0.364,-4.23539 -0.9377,-0.57956 -7.7961,4.71497 -9.784,7.55301 -0.7712,1.10113 -6.2032,6.01266 -12.0711,10.91452 -5.8678,4.90186 -12.2438,10.23571 -14.1688,11.85299 -1.925,1.61728 -5.3,3.97973 -7.5,5.24988 -2.2,1.27015 -5.3901,3.34374 -7.089,4.60798 -1.699,1.26424 -4.4494,2.77286 -6.1122,3.3525 -3.8506,1.34234 -5.6247,4.96699 -4.2284,8.63941 2.9297,7.70571 20.8185,27.93776 31.9296,36.11207 3.025,2.22545 7.975,6.07579 11,8.55631 3.025,2.48053 5.997,4.54075 6.6045,4.57829 0.6683,0.0413 1.5661,-3.9802 2.2732,-10.18176 z M 1032.5148,1584.9655 c 0,-0.55 0.1984,-1 0.441,-1 0.2425,0 0.7191,0.45 1.059,1 0.3399,0.55 0.1415,1 -0.441,1 -0.5824,0 -1.059,-0.45 -1.059,-1 z m 134.5967,-23.1654 c -3.2918,-4.6998 -0.6115,-11.5696 6.0334,-15.4637 3.933,-2.3049 4.3622,-2.9263 4.293,-6.2159 -0.042,-2.0103 -0.63,-5.455 -1.3062,-7.655 -1.3854,-4.5072 -0.2408,-11.5 1.8823,-11.5 3.6282,0 5.8547,8.8465 3.0159,11.9833 -2.5383,2.8048 -1.33,10.6335 1.7886,11.5888 1.208,0.37 2.8319,1.1801 3.6088,1.8003 1.1342,0.9054 0.7489,1.2261 -1.9557,1.6276 -2.991,0.444 -3.5683,1.0601 -5.154,5.5 -3.4524,9.6671 -8.7426,13.2794 -12.2061,8.3346 z m 5.3488,-2.8054 c 1.4633,-0.7832 5.0545,-7.5679 5.0545,-9.5494 0,-1.2723 -2.2679,-0.1835 -5.4652,2.6238 -5.1255,4.5002 -4.8158,9.7227 0.4107,6.9256 z m 8.0545,-30.9702 c 0,-0.5175 -0.45,-1.2191 -1,-1.559 -0.55,-0.3399 -1,0.083 -1,0.941 0,0.8574 0.45,1.559 1,1.559 0.55,0 1,-0.4234 1,-0.941 z m -17.8674,12.6887 c -1.8379,-3.4342 -1.0884,-13.7546 1.0986,-15.1272 2.6453,-1.6603 4.975,1.3551 5.4507,7.0548 0.6575,7.879 -3.7472,13.3082 -6.5493,8.0724 z m 4.4207,-9.3912 c -0.3449,-1.3742 -1.173,-2.3189 -1.8402,-2.0992 -1.7167,0.5651 -2.1036,4.5672 -0.615,6.3609 1.1103,1.3379 1.355,1.3235 2.167,-0.1274 0.5035,-0.8996 0.6332,-2.76 0.2882,-4.1343 z m -14.9566,8.3935 c -5.6073,-8.7043 -6.0194,-31.8478 -0.6187,-34.7382 5.0809,-2.7193 9.0377,0.5607 9,7.4607 -0.025,4.6135 -3.0068,11.8846 -5.4295,13.2404 -1.3932,0.7797 -1.4868,1.5891 -0.6194,5.3528 2.1101,9.1555 0.8922,13.6901 -2.3324,8.6843 z m -0.036,-11.7829 c -1.5155,-7.2683 -1.3345,-9.7722 0.5014,-6.9381 2.1927,3.3847 7.9735,-8.2263 5.9645,-11.98 -1.2424,-2.3215 -3.8279,-2.6457 -6.3561,-0.797 -3.548,2.5943 -3.7812,16.7507 -0.4407,26.748 1.8365,5.4961 2.0403,1.1653 0.3309,-7.0329 z m 200.4209,-227.9787 c -1.9329,-1.1946 -0.9386,-1.9034 1.4524,-1.0354 1.0635,0.3861 1.492,0.9749 0.9523,1.3085 -0.5398,0.3336 -1.6219,0.2107 -2.4047,-0.2731 z m -80.3513,-302.23837 c -0.3317,-1.2375 -0.6091,-3.4875 -0.6166,-5 -0.012,-2.38585 -0.4109,-2.75 -3.0137,-2.75 -2.7412,0 -3,0.29138 -3,3.37756 0,4.07274 -2.3724,6.50648 -4.8338,4.95889 -2.4264,-1.52553 -3.9097,-24.34086 -1.6642,-25.5975 0.8239,-0.46108 1.498,-2.07597 1.498,-3.58864 0,-1.51267 0.54,-3.29031 1.2,-3.95031 1.9994,-1.99936 6.5284,-1.42445 8.2719,1.05 2.1291,3.02181 5.9982,15.55818 7.587,24.58285 1.1011,6.25438 1.0814,7.46549 -0.1339,8.23469 -2.4685,1.56223 -4.6698,1.01443 -5.2947,-1.31754 z m -3.7133,-20.50143 c -1.0608,-3.2144 -1.3313,-3.44857 -2.0015,-1.73265 -1.3297,3.40441 -0.9872,6.71064 0.8345,8.05634 1.5017,1.10931 1.7957,1.01607 2.0718,-0.65711 0.177,-1.07242 -0.2301,-3.62238 -0.9048,-5.66658 z M 867.78561,803.36136 c 0.33229,-0.33229 1.1948,-0.36781 1.91667,-0.0789 0.79773,0.31922 0.56078,0.55618 -0.60417,0.60416 -1.05416,0.0434 -1.64479,-0.19293 -1.3125,-0.52522 z m 151.31209,-16.26162 c -0.4307,-0.697 -0.5131,-1.53733 -0.183,-1.86741 0.8949,-0.89496 1.8707,0.4213 1.3874,1.87145 -0.3388,1.01617 -0.5743,1.01538 -1.2044,-0.004 z m 3.4255,-2.10788 c -1.188,-0.75105 -1.2389,-1.19583 -0.25,-2.18469 0.9657,-0.96572 1.5083,-0.97497 2.4416,-0.0416 0.9333,0.93333 0.9202,1.2 -0.059,1.2 -0.6925,0 -0.9809,0.45 -0.641,1 0.7629,1.23434 0.4284,1.24025 -1.4916,0.0263 z M 1302.75,771.25785 c -1.2718,-0.24443 -1.9781,-0.89933 -1.6108,-1.49355 0.3741,-0.60533 0.063,-0.86132 -0.7263,-0.59814 -1.5062,0.50207 -3.8981,-1.41801 -3.8981,-3.1292 0,-0.58929 -0.675,-1.07143 -1.5,-1.07143 -2.5132,0 -1.6705,-2.73425 1,-3.24475 1.6987,-0.32473 2.5,-0.0315 2.5,0.91481 0,1.97725 2.7509,2.78154 4.5127,1.31937 1.2605,-1.04606 1.4873,-0.77441 1.4873,1.78114 0,1.81225 0.6238,3.25483 1.5634,3.61538 1.4648,0.56209 1.1323,2.77442 -0.3724,2.47787 -0.3801,-0.0749 -1.7102,-0.33207 -2.9558,-0.5715 z m -27.2352,-5.79232 c 0,-1.80819 -1.1668,-1.93321 -2.8,-0.3 -0.9333,0.93333 -1.2,0.70894 -1.2,-1.00979 0,-1.21538 0.8769,-2.96065 1.9488,-3.87838 1.0718,-0.91772 1.6773,-2.10785 1.3455,-2.64472 -0.3318,-0.53687 -0.1128,-0.673 0.4866,-0.30251 0.5995,0.3705 2.1986,-0.43503 3.5536,-1.79005 l 2.4637,-2.46368 0.7692,3.69457 c 0.4231,2.03201 0.6299,4.14456 0.4595,4.69456 -0.1703,0.55 -0.2792,1.71876 -0.242,2.59725 0.049,1.16235 -0.5929,1.47096 -2.3586,1.13342 -1.3967,-0.267 -2.4263,0.01 -2.4263,0.65275 0,0.61412 -0.45,1.11658 -1,1.11658 -0.55,0 -1,-0.675 -1,-1.5 z m 165,-12.89301 c 0,-0.76616 0.6792,-1.65364 1.5093,-1.97218 0.8301,-0.31854 1.4518,-0.92918 1.3816,-1.35698 -0.3036,-1.84906 0.1955,-2.94778 1.3591,-2.99205 0.6875,-0.0262 2.0375,-0.37431 3,-0.77366 0.9841,-0.4083 1.75,-0.28842 1.75,0.2739 0,0.55 -0.675,1.25902 -1.5,1.57561 -0.825,0.31658 -1.5,1.06628 -1.5,1.666 0,0.59972 0.4028,0.84143 0.8952,0.53713 0.4924,-0.3043 1.1533,0.11914 1.4686,0.94098 0.67,1.74593 -1.4456,2.01245 -3.0712,0.3869 -0.8098,-0.80981 -1.4104,-0.54111 -2.2351,1 -1.2793,2.39034 -3.0575,2.8058 -3.0575,0.71435 z m -2.7711,-3.79381 c 0.4983,-1.49484 2.7711,-2.31789 2.7711,-1.0035 0,0.53699 -0.7126,1.24979 -1.5836,1.58401 -0.9739,0.37373 -1.431,0.15024 -1.1875,-0.58051 z m 15.7711,-12.31318 c 0,-0.825 0.7301,-1.5 1.6224,-1.5 1.3288,0 1.3972,0.27149 0.3776,1.5 -0.6847,0.825 -1.4148,1.5 -1.6224,1.5 -0.2077,0 -0.3776,-0.675 -0.3776,-1.5 z M 960.53488,714.44136 c 0.6957,-0.83829 1.4708,-1.31823 1.7225,-1.06653 0.6935,0.6935 -0.7155,2.5907 -1.9241,2.5907 -0.6631,0 -0.5872,-0.57378 0.2016,-1.52417 z M 103.37556,672.05161 c -2.95031,-2.39186 -1.81579,-3.86841 1.29706,-1.68808 1.25794,0.8811 3.06049,1.602 4.00565,1.602 0.94516,0 1.99659,0.45 2.33651,1 1.12084,1.81357 -5.209,1.05629 -7.63922,-0.91392 z M 89.213678,669.054 c -3.9068,-4.32436 -6.13673,-7.98397 -5.34645,-8.77425 0.94033,-0.94033 2.61783,0.75175 6.68966,6.7478 4.59621,6.76821 3.8956,7.82519 -1.34321,2.02645 z m 31.301102,0.7949 c 0,-0.61415 0.87089,-0.88889 1.93531,-0.61054 1.06442,0.27835 2.97692,-0.20056 4.25,-1.06424 l 2.31469,-1.57035 -1.90499,2.18088 c -1.98119,2.26812 -6.59501,3.01266 -6.59501,1.06425 z M 77.599328,656.77821 c -1.75521,-5.03497 -2.48622,-13.4464 -1.23576,-14.21923 1.14488,-0.70757 1.59292,0.72124 2.63605,8.40655 0.33594,2.475 0.86306,5.5125 1.17138,6.75 0.86207,3.46002 -1.31542,2.66637 -2.57167,-0.93732 z m 57.948722,0.9052 c -0.0532,-1.25011 2.80926,-7.71788 3.4157,-7.71788 1.30486,0 0.38859,3.97342 -1.4157,6.13922 -1.0817,1.29843 -1.9817,2.00883 -2,1.57866 z M 1352.1333,642.21553 c -2.9421,-7.76829 -5.6185,-17.68866 -5.6185,-20.82524 0,-5.12747 7.5247,-9.96297 11.7118,-7.52623 1.5188,0.88385 1.3218,1.04523 -1.3068,1.07106 -3.9005,0.0383 -6.405,2.74611 -6.405,6.92489 0,5.19821 1.5478,7.10337 5.7852,7.12083 2.0431,0.008 4.3898,0.47705 5.2148,1.0414 1.1462,0.78408 0.6745,0.99242 -2,0.88337 -7.0669,-0.28815 -7.2432,0.13326 -4,9.55992 2.3703,6.88948 2.4816,8.5 0.5874,8.5 -0.8247,0 -2.4763,-2.80883 -3.9689,-6.75 z m 24.9676,1.88924 c -0.8475,-1.37124 -4.608,-21.45065 -4.1105,-21.94814 1.4179,-1.41791 3.474,1.2902 4.088,5.38423 0.7323,4.88349 3.2766,8.42467 6.053,8.42467 1.198,0 1.4522,-0.58263 0.9816,-2.25 -3.0457,-10.79029 -3.0798,-16.22454 -0.086,-13.74018 0.8185,0.67929 1.4882,1.91406 1.4882,2.74394 0,0.82987 1.3843,5.5405 3.0762,10.46806 3.2617,9.49954 3.1346,11.86833 -0.4174,7.77818 -1.4767,-1.7005 -3.2084,-2.50309 -5.4149,-2.50967 -2.8601,-0.009 -3.2439,0.30982 -3.2439,2.69099 0,2.78101 -1.4359,4.54046 -2.4139,2.95792 z M 139.2101,636.71553 c -0.3115,-1.7875 -0.85341,-4.825 -1.20424,-6.75 l -0.63788,-3.5 2.0734,2.36078 c 1.42437,1.6218 2.0734,3.73473 2.0734,6.75 0,5.12311 -1.4827,5.85602 -2.30468,1.13922 z m -61.695322,-7.02749 c 0,-5.16012 3.30627,-10.65619 6.44113,-10.7072 0.51762,-0.008 0.20038,0.54719 -0.70497,1.23469 -2.14867,1.63163 -3.73616,6.01451 -3.73616,10.3151 0,1.88919 -0.45,3.4349 -1,3.4349 -0.55,0 -1,-1.92487 -1,-4.27749 z m 994.441922,-2.01413 c -4.9546,-3.41437 -7.324,-6.15956 -6.2466,-7.23704 0.5721,-0.57203 14.8047,9.14628 14.8047,10.10889 0,1.43852 -4.4894,-0.068 -8.5581,-2.87185 z m -937.79327,-6.12185 c -2.02396,-3.08897 -2.04947,-3.58653 -0.18383,-3.58653 1.92957,0 4.0309,3.90428 2.77647,5.15871 -0.59198,0.59198 -1.55875,0.006 -2.59264,-1.57218 z m 975.59227,-2.83653 c -2.8554,-3.04825 -4.065,-6.56167 -4.816,-13.98884 -0.5521,-5.46087 -0.3585,-6.60791 1.5144,-8.97398 5.7894,-7.31383 19.6718,-3.00408 21.4868,6.67052 0.7407,3.94815 0.8407,4.01716 3.455,2.38448 1.0197,-0.6368 2.6485,-0.85292 3.6197,-0.48026 1.4623,0.56114 1.6601,1.44733 1.1515,5.15782 -0.5243,3.82553 -0.3611,4.47508 1.1168,4.44482 0.952,-0.0195 2.8559,-0.67854 4.2309,-1.46456 3.2075,-1.83356 4,-1.84071 4,-0.0361 0,1.95602 -6.8657,6.53605 -9.7979,6.53605 -4.2029,0 -6.2021,-1.78418 -6.2021,-5.53518 0,-4.38919 -2.3367,-4.64812 -4.4835,-0.49682 -3.9387,7.61673 -11.0392,10.30436 -15.2756,5.782 z m 9.4461,-5.5 c 4.2175,-7.69513 3.7444,-13.82113 -1.2427,-16.09344 -5.4256,-2.47204 -8.238,2.79792 -6.3024,11.80961 1.9558,9.10596 4.2029,10.38182 7.5451,4.28383 z m -64.3096,-6.45867 c -6.9105,-7.3489 -11.4996,-14.06917 -10.3746,-15.19268 0.7996,-0.79854 2.0517,-0.006 4.5839,2.90135 7.8237,8.98279 12.9886,19.94576 5.7907,12.29133 z M 98.827368,583.68778 c -4.10591,-4.28123 -9.46294,-14.4884 -10.7791,-20.5383 -0.99316,-4.56518 0.9484,-8.71021 4.97492,-10.62092 3.84788,-1.82594 6.78054,-1.08207 10.174982,2.58087 5.26227,5.67853 5.73355,13.37402 1.23497,20.16564 l -3.08164,4.65242 2.06964,2.90654 c 1.67426,2.35127 1.81995,3.11376 0.76261,3.99127 -0.99594,0.82655 -2.2708,0.0798 -5.356382,-3.13752 z m 3.698372,-10.97225 c 2.41057,-3.95363 2.52265,-7.82323 0.35868,-12.38348 -1.88588,-3.97419 -4.886442,-6.36652 -7.985162,-6.36652 -3.68397,0 -4.63915,6.59415 -1.78164,12.29966 2.34686,4.68593 5.78293,9.68565 6.66186,9.69351 0.420582,0.004 1.656402,-1.45567 2.746262,-3.24317 z m 8.86451,13.78418 c -4.81471,-2.69044 -4.39452,-8.86384 0.69019,-10.14001 4.97988,-1.24988 12.43434,1.79951 12.43434,5.0865 0,1.94912 -4.40816,5.45571 -7.54807,6.00433 -1.67554,0.29275 -4.08675,-0.11837 -5.57646,-0.95082 z m 8.68384,-2.63014 c 0.8256,-1.33586 -1.26242,-3.45043 -4.30931,-4.3641 -1.77095,-0.53106 -2.25,-0.27713 -2.25,1.19267 0,3.52768 4.88069,5.88749 6.55931,3.17143 z m 914.65571,-13.35743 c -3.6552,-8.5003 -4.1016,-11.864 -1.5083,-11.36458 1.6193,0.31185 5.6233,10.13764 6.4596,15.85195 0.7285,4.97797 -1.909,2.58755 -4.9513,-4.48737 z m -5.3934,-31.08534 c -0.3732,-0.57131 -1.8655,-5.63537 -3.3163,-11.25348 -2.6935,-10.43001 -2.6118,-14.56754 0.2763,-14.01132 1.2141,0.23381 1.9369,2.52575 2.935,9.30687 1.3245,8.99879 1.3831,17.91483 0.105,15.95793 z m 365.5312,-15.79306 c 0.356,-1.00748 0.6472,-2.46998 0.6472,-3.25 0,-0.78001 0.4803,-1.41821 1.0674,-1.41821 1.2268,0 0.2729,3.95394 -1.327,5.5 -0.7058,0.68212 -0.829,0.41771 -0.3876,-0.83179 z m -371.7458,-39.25 c -0.994,-2.59039 -0.7009,-6.88665 0.9625,-14.10616 1.846,-8.01196 2.4009,-8.78542 4.9599,-6.91419 1.8858,1.37891 1.8875,1.57182 0.09,10.25374 -1.8955,9.15287 -3.0722,12.3484 -4.5471,12.3484 -0.4718,0 -1.131,-0.7118 -1.4648,-1.58179 z m 4.82,-45.853 c -0.7942,-3.16435 0.068,-11.81742 1.621,-16.27303 0.7117,-2.04161 1.898,-3.23987 3.5133,-3.54864 1.3413,-0.25641 2.4387,-0.0842 2.4387,0.38263 0,2.09048 -5.1584,20.43228 -5.9764,21.25025 -0.5505,0.55049 -1.1843,-0.1685 -1.5966,-1.81121 z m -46.42702,-6.50619 c 0,-0.58246 0.45,-1.05902 1,-1.05902 0.55,0 1,0.19844 1,0.44098 0,0.24254 -0.45,0.7191 -1,1.05902 -0.55,0.33992 -1,0.14148 -1,-0.44098 z m 1.7639,-34.60406 c 0.2612,-1.36648 0.8062,-2.68925 1.211,-2.93948 0.4049,-0.25022 0.5225,0.66308 0.2612,2.02956 -0.2612,1.36648 -0.8062,2.68925 -1.211,2.93948 -0.4049,0.25022 -0.5225,-0.66308 -0.2612,-2.02956 z m -547.2639,0.54504 c -0.33992,-0.55 -0.14148,-1 0.44098,-1 0.58246,0 1.05902,0.45 1.05902,1 0,0.55 -0.19844,1 -0.44098,1 -0.24254,0 -0.7191,-0.45 -1.05902,-1 z m 605.50122,-4.49852 c -1.5156,-1.8262 0.1876,-7.54496 5.9834,-20.08993 3.3967,-7.35196 4.2092,-8.41155 6.4508,-8.41155 1.4105,0 2.5646,0.40687 2.5646,0.90415 0,0.49728 -3.0967,7.24509 -6.8816,14.99514 -5.7384,11.75017 -7.0868,13.84367 -8.1172,12.60219 z m 17.9988,-44.75874 c 0,-2.57838 4.7707,-15.18896 9.2425,-24.43117 2.9775,-6.15384 5.0907,-8.19954 6.3557,-6.15273 0.6,0.97081 -10.953,25.57749 -14.2324,30.31367 -1.1803,1.70466 -1.3658,1.74135 -1.3658,0.27023 z M 922.15315,315.46553 c 0.37975,-0.98961 -0.0562,-1.52686 -1.28138,-1.57895 -1.11041,-0.0472 -1.34092,-0.28623 -0.57337,-0.59454 1.56129,-0.62712 4.41048,1.55042 3.64635,2.7868 -0.922,1.49183 -2.40465,0.98428 -1.7916,-0.61331 z m 15.36163,-0.5 c 0,-0.55 0.45,-1 1,-1 0.55,0 1,0.45 1,1 0,0.55 -0.45,1 -1,1 -0.55,0 -1,-0.45 -1,-1 z m -24.75,-3.24675 c -3.42715,-1.0994 -4.18192,-2.45841 -1.86017,-3.34935 0.76441,-0.29333 2.54396,0.62079 3.95455,2.03139 2.79636,2.79636 2.70109,2.85631 -2.09438,1.31796 z m 163.78752,-5.56062 c -0.033,-2.05539 4.5314,-9.41615 11.7771,-18.99051 2.5526,-3.3729 5.9501,-5.77071 6.8714,-4.84945 0.6201,0.62012 -10.254,16.53363 -15.1338,22.14733 -3.1593,3.63435 -3.4805,3.78908 -3.5147,1.69263 z m 191.9791,-31.64904 c -2.2295,-5.86404 -0.6824,-17.54359 2.3239,-17.54359 0.7646,0 2.9132,2.33462 4.7748,5.18803 5.7576,8.82515 6.8488,7.47178 6.871,-8.52136 0.01,-7.37633 0.3236,-9.73004 1.254,-9.41992 1.9726,0.65754 2.9258,9.3054 1.8674,16.94268 -1.4201,10.24732 -5.6323,13.77297 -9.929,8.31057 -2.6635,-3.3861 -3.1787,-3.16284 -3.1787,1.37756 0,2.20751 -0.6389,4.40779 -1.4834,5.10869 -1.2307,1.02134 -1.6567,0.77552 -2.5,-1.44266 z m -162.9774,-8.14355 c -0.022,-1.15498 1.2473,-3.85498 2.8196,-6 3.2431,-4.42441 15.5338,-16.40799 16.8046,-16.38473 3.3318,0.061 1.5869,2.76665 -8.3742,12.98469 -8.5152,8.73493 -11.2202,10.99508 -11.25,9.40004 z m 36.9608,-30.93522 c 0,-3.79169 15.525,-17.96805 18.4488,-16.84611 1.4243,0.54658 0.9973,1.37254 -2.6238,5.07572 -4.4619,4.56291 -14.0052,12.30557 -15.1674,12.30557 -0.3617,0 -0.6576,-0.24083 -0.6576,-0.53518 z m -33.6452,-120.98259 c -0.3725,-0.97066 -0.055,-2.05846 0.7495,-2.56784 2.1292,-1.34819 2.5759,-1.11021 2.3999,1.2785 -0.2001,2.71686 -2.2756,3.56652 -3.1494,1.28934 z m 35.6452,-32.92321 c 0,-1.756526 0.6001,-2.015159 1.4573,-0.628115 0.3164,0.511996 0.118,1.213553 -0.441,1.559017 -0.559,0.345463 -1.0163,-0.07344 -1.0163,-0.930902 z M 528.51478,78.965533 c 0,-0.55 0.45,-1 1,-1 0.55,0 1,0.45 1,1 0,0.55 -0.45,1 -1,1 -0.55,0 -1,-0.45 -1,-1 z m 622.00002,-3.881966 c 0,-0.55 0.45,-1.278115 1,-1.618034 0.55,-0.339919 1,-0.168034 1,0.381966 0,0.55 -0.45,1.278115 -1,1.618034 -0.55,0.339919 -1,0.168034 -1,-0.381966 z m 267,-3.235051 c 0,-0.892186 1.445,-1.258257 3.7658,-0.953995 0.6962,0.09127 1.1462,-0.361659 1,-1.006518 -0.1462,-0.644858 0.2998,-1.379738 0.991,-1.633066 0.8339,-0.305622 1.1382,0.316618 0.9043,1.849346 -0.2758,1.807238 -1.039,2.344466 -3.5068,2.468579 -1.7349,0.08725 -3.1543,-0.238706 -3.1543,-0.724346 z m -265,-2.716316 c 0,-1.408995 1.1264,-2.055396 2.5978,-1.490777 2.0869,0.800835 1.6951,2.32411 -0.5978,2.32411 -1.1,0 -2,-0.375 -2,-0.833333 z m 51,-30.559678 c 0,-0.216156 0.6984,-0.661002 1.5519,-0.988546 0.89,-0.341496 1.2914,-0.173849 0.941,0.393011 -0.5872,0.950204 -2.4929,1.405448 -2.4929,0.595535 z m -6.5,-7.606989 c -0.3399,-0.55 -0.1415,-1 0.441,-1 0.5824,0 1.059,0.45 1.059,1 0,0.55 -0.1984,1 -0.441,1 -0.2425,0 -0.7191,-0.45 -1.059,-1 z"
     id="path3160"
     style="fill:#000000" />
</svg>
