<?xml version="1.0" encoding="UTF-8" standalone="no"?>
<!-- Created with Inkscape (http://www.inkscape.org/) -->

<svg
   xmlns:dc="http://purl.org/dc/elements/1.1/"
   xmlns:cc="http://creativecommons.org/ns#"
   xmlns:rdf="http://www.w3.org/1999/02/22-rdf-syntax-ns#"
   xmlns:svg="http://www.w3.org/2000/svg"
   xmlns="http://www.w3.org/2000/svg"
   version="1.1"
   width="1773.8307"
   height="1874.2109"
   id="svg2987">
  <metadata
     id="metadata2993">
    <rdf:RDF>
      <cc:Work
         rdf:about="">
        <dc:format>image/svg+xml</dc:format>
        <dc:type
           rdf:resource="http://purl.org/dc/dcmitype/StillImage" />
        <dc:title></dc:title>
      </cc:Work>
    </rdf:RDF>
  </metadata>
  <defs
     id="defs2991" />
  <path
     d="m 330.19747,1872.5 c -0.0204,-1.65 0.18706,-2.4461 0.46099,-1.769 0.27392,0.677 0.29059,2.027 0.0371,3 -0.25354,0.9729 -0.47766,0.419 -0.49804,-1.231 z m -0.92259,-13.5 c 0,-2.475 0.19502,-3.4875 0.43337,-2.25 0.23836,1.2375 0.23836,3.2625 0,4.5 -0.23835,1.2375 -0.43337,0.225 -0.43337,-2.25 z m -0.98635,-12.5 c 0.008,-2.75 0.20172,-3.7563 0.43157,-2.2363 0.22986,1.5201 0.22371,3.7701 -0.0136,5 -0.23736,1.23 -0.42542,-0.014 -0.41792,-2.7637 z m -1,-11 c 0.008,-2.75 0.20172,-3.7563 0.43157,-2.2363 0.22986,1.5201 0.22371,3.7701 -0.0136,5 -0.23736,1.23 -0.42542,-0.014 -0.41792,-2.7637 z m -1.18771,-9.5 c -0.0735,-1.375 -1.02289,-12.625 -2.10967,-25 -1.08679,-12.375 -2.92494,-34.2 -4.08477,-48.5 -1.15984,-14.3 -2.2865,-26.1863 -2.5037,-26.414 -0.5516,-0.5784 -5.74382,-0.3221 -30.40016,1.5003 -33.67719,2.4892 -39.81612,2.8391 -50.48396,2.8776 -8.33822,0.03 -10.0347,-0.2254 -10.29177,-1.55 -0.26337,-1.3572 2.04405,-1.7614 15.98396,-2.7998 8.96047,-0.6676 18.54177,-1.4068 21.29177,-1.6429 5.11833,-0.4393 16.81714,-1.1123 35.59987,-2.0477 5.82992,-0.2904 11.90492,-0.6984 13.5,-0.9068 1.59507,-0.2084 3.30196,-0.4099 3.79308,-0.4478 0.91372,-0.071 0.36132,-11.9706 -1.4422,-31.0689 -1.83892,-19.4733 -5.86995,-66.2933 -8.43744,-98 -1.40291,-17.325 -3.43865,-42.075 -4.52385,-55 -1.0852,-12.925 -3.32755,-40.15 -4.98299,-60.5 -3.73407,-45.9023 -3.68159,-45.4916 -5.81774,-45.5318 -1.53296,-0.029 -1.5227,-0.1577 0.11124,-1.3968 1.73191,-1.3133 1.72386,-2.2479 -0.21295,-24.7182 -1.10711,-12.8443 -2.92688,-35.0532 -4.04395,-49.3532 -1.11707,-14.3 -2.24584,-28.475 -2.50837,-31.5 -0.26254,-3.025 -0.95881,-11.575 -1.54727,-19 -1.29461,-16.3349 -3.79242,-47.2418 -4.48535,-55.5 -0.2769,-3.3 -0.74742,-9.15 -1.04561,-13 -0.29819,-3.85 -1.40648,-16.675 -2.46287,-28.5 -1.05639,-11.825 -2.39622,-27.35 -2.9774,-34.5 -0.58118,-7.15 -1.27776,-15.25 -1.54797,-18 -0.27021,-2.75 -1.39734,-16.7 -2.50473,-31 -1.10738,-14.3 -2.20106,-27.575 -2.43038,-29.5 -0.22932,-1.925 -0.69251,-7.325 -1.02932,-12 -1.07837,-14.9682 -3.47253,-41.3897 -4.06632,-44.875 l -0.57499,-3.3749 -9.68125,0.6747 c -5.32468,0.3711 -14.85624,1.1014 -21.18124,1.6229 -14.27284,1.1768 -49.77367,3.7848 -60.5,4.4444 -4.4,0.2706 -11.825,0.7199 -16.5,0.9984 -4.675,0.2786 -9.4,0.6766 -10.5,0.8845 -6.11201,1.1553 -17.17237,1.5503 -18.5,0.6607 -1.83124,-1.227 -2.3957,-1.1249 8.5,-1.5372 12.21744,-0.4622 19.5256,-1.1707 24.13459,-2.3397 4.76972,-1.2097 15.00144,-2.5433 18.36541,-2.3936 1.375,0.061 3.175,-0.1574 4,-0.4857 0.825,-0.3282 4.875,-0.7087 9,-0.8454 4.125,-0.1368 8.175,-0.5191 9,-0.8498 0.825,-0.3306 4.425,-0.7773 8,-0.9926 3.575,-0.2154 6.5,-0.4512 6.5,-0.5241 0,-0.073 2.7,-0.3041 6,-0.5139 6.04693,-0.3845 11.60298,-1.3233 12.36997,-2.0903 0.22827,-0.2283 -0.15672,-1.104 -0.85553,-1.946 -1.01338,-1.221 -1.02461,-2.4094 -0.0555,-5.8709 1.17977,-4.2137 1.08213,-4.6046 -3.35746,-13.4444 -6.68692,-13.31443 -7.51956,-24.14216 -2.01738,-26.23409 5.38759,-2.04835 11.44466,3.77539 12.38805,11.91083 0.47814,4.12326 0.83913,4.64076 3.8355,5.49766 7.51893,2.1502 7.57173,11.59 0.1312,23.4569 l -3.97708,6.343 9.7691,-0.6504 c 15.45461,-1.029 14.77731,-0.8511 14.7066,-3.8634 -0.29318,-12.49 -0.54657,-14.759 -1.6875,-15.1105 -0.6875,-0.2118 -2.55903,-0.6742 -4.15894,-1.0275 -1.59992,-0.3534 -4.41242,-2.146 -6.25,-3.9835 -2.6646,-2.6646 -3.34106,-4.1439 -3.34106,-7.30624 0,-6.98968 5.26181,-11.36809 10.43584,-8.68377 1.41029,0.73167 2.56416,1.0994 2.56416,0.81719 0,-3.02312 -3.20755,-37.24002 -3.59459,-38.34569 -0.28444,-0.81257 -0.69123,-6.43757 -0.90398,-12.5 -0.21274,-6.06242 -0.6479,-13.94759 -0.96701,-17.52259 -0.31911,-3.575 -1.03275,-12.125 -1.58587,-19 -0.97046,-12.06242 -2.20593,-26.34583 -3.46575,-40.06799 l -0.603,-6.56798 -2.9399,0.43148 c -1.61695,0.23732 -2.9399,0.0863 -2.9399,-0.33552 0,-0.42185 1.1493,-3.19643 2.55401,-6.16573 l 2.554,-5.39873 -1.09413,-15.19776 c -2.4961,-34.67177 -2.39647,-34.07842 -6.66842,-39.71329 l -3.84546,-5.07233 -6.62714,0.53949 c -3.64493,0.29672 -7.88766,1.19345 -9.4283,1.99275 -1.54064,0.79929 -3.05842,1.34256 -3.37286,1.20728 -0.31443,-0.13529 -1.78992,-0.85298 -3.27885,-1.59487 -2.74288,-1.3667 -20.58467,-0.30956 -75.92148,4.49841 -16.08174,1.39727 -27.64756,1.85459 -26.78804,1.05922 0.22917,-0.21207 5.36667,-0.68958 11.41667,-1.06115 6.05,-0.37156 11.675,-0.84794 12.5,-1.05862 0.825,-0.21068 8.475,-0.87147 17,-1.46842 8.525,-0.59695 19.55,-1.50149 24.5,-2.01008 4.95,-0.5086 12.6,-1.18257 17,-1.49772 17.13871,-1.22756 18.38247,-1.5109 20.20953,-4.60386 2.31631,-3.9212 4.17706,-4.36933 7.02903,-1.69285 2.16836,2.03493 3.42466,2.27827 11.76209,2.27827 5.13394,0 9.61084,-0.27679 9.94866,-0.6151 0.54699,-0.54777 -0.22175,-13.85041 -2.07373,-35.8849 -0.3467,-4.125 -0.74291,-9.31831 -0.88046,-11.5407 -0.13755,-2.22238 -0.53577,-7.17238 -0.88493,-11 -0.34916,-3.82761 -0.84335,-9.4343 -1.09819,-12.4593 -0.25485,-3.025 -0.7181,-8.425 -1.02943,-12 -1.0888,-12.50231 -1.80844,-24.55907 -1.89515,-31.75071 -0.0481,-3.98789 -0.41122,-7.25039 -0.80697,-7.25 -0.39575,3.9e-4 -0.71229,-1.46179 -0.70343,-3.24929 0.009,-1.7875 -0.16795,-4.4875 -0.39293,-6 -0.22499,-1.5125 -0.11737,-2.75 0.23914,-2.75 0.35651,0 0.6482,-0.86696 0.6482,-1.92658 0,-1.05962 -0.35357,-1.70806 -0.78572,-1.44098 -0.43214,0.26707 -0.85749,-1.22846 -0.94522,-3.32342 -0.28036,-6.69477 -1.55247,-24.64661 -2.25407,-31.80902 -0.26937,-2.75 -0.73179,-8.375 -1.0276,-12.5 -0.29581,-4.125 -0.81898,-10.65 -1.1626,-14.5 -0.34362,-3.85 -0.74468,-9.925 -0.89123,-13.5 -0.14656,-3.575 -0.54275,-8.75 -0.88041,-11.5 -0.33767,-2.75 -0.84743,-8.825 -1.13279,-13.5 -0.28537,-4.675 -0.71729,-9.96966 -0.95983,-11.7659 -0.24253,-1.79625 -0.68314,-7.87125 -0.97913,-13.5 -0.29599,-5.62876 -0.7726,-12.4841 -1.05913,-15.2341 -0.50365,-4.83378 -0.7348,-8.39508 -2.077,-32 -0.34402,-6.05 -0.82951,-11.33661 -1.07888,-11.74801 -0.24937,-0.41141 -0.67871,-5.13641 -0.95409,-10.5 -0.27538,-5.3636 -0.94462,-15.37699 -1.48719,-22.25199 -0.54258,-6.875 -1.13293,-14.97633 -1.31189,-18.00296 -0.41174,-6.96343 -2.32916,-19.07488 -3.14974,-19.89547 -0.64932,-0.64931 -9.67301,-0.20441 -29.43491,1.45125 -9.625,0.80639 -26.5,2.13586 -37.5,2.95439 -18.30292,1.36195 -56.004419,4.21165 -85.999999,6.50038 -6.6,0.50359 -16.725,1.13973 -22.5,1.41363 -21.498629,1.01968 16.517615,-2.44213 92.499999,-8.42317 13.75,-1.08234 36.25,-2.87202 50,-3.97705 13.75,-1.10504 26.43036,-2.01182 28.17857,-2.01508 3.41811,-0.006 6.75668,-2.49266 5.68201,-4.2315 -0.36179,-0.58539 -0.73931,-3.4725 -0.83894,-6.4158 -0.0996,-2.9433 -0.44163,-5.61194 -0.76,-5.93031 -0.31837,-0.31837 -0.20139,-1.89498 0.25995,-3.50358 0.5432,-1.89404 0.47279,-2.92473 -0.1998,-2.92473 -0.6085,0 -0.77876,-1.03529 -0.41115,-2.5 0.34511,-1.375 0.22769,-2.5 -0.26093,-2.5 -0.48862,0 -0.88662,-3.0375 -0.88445,-6.75 0.002,-3.7125 -0.33721,-7.55691 -0.75419,-8.54313 -0.41698,-0.98622 -0.49339,-2.05789 -0.16979,-2.38148 0.32359,-0.3236 0.13835,-1.42919 -0.41165,-2.45687 -0.67717,-1.26536 -0.66581,-1.86852 0.0352,-1.86852 0.56935,0 1.03518,-0.92656 1.03518,-2.05902 0,-1.13246 -0.36031,-1.83633 -0.8007,-1.56415 -0.44038,0.27217 -0.77788,-5.32592 -0.75,-12.44021 0.0279,-7.11428 -0.23233,-12.93541 -0.57826,-12.93584 -1.01526,-0.001 -0.82557,-15.91085 0.19725,-16.54298 0.51244,-0.31671 0.95882,0.46322 0.99196,1.73318 0.0331,1.26996 0.2436,4.55902 0.46771,7.30902 0.22411,2.75 0.66053,8.15 0.96983,12 0.30929,3.85 0.73091,8.35 0.93692,10 0.55805,4.46962 1.4281,15.72789 2.08658,27 1.08475,18.56889 2.10621,30.04823 3.0595,34.38296 0.52334,2.37973 0.53806,2.38202 10.87197,1.68979 5.69135,-0.38124 11.63026,-0.84248 13.19758,-1.02498 1.56731,-0.18249 7.79966,-0.63783 13.84966,-1.01186 6.05,-0.37402 12.2375,-0.87903 13.75,-1.12224 1.5125,-0.24321 2.75,-0.0734 2.75,0.37728 0,0.74946 -15.87598,2.28721 -40,3.8744 -14.86284,0.97787 -14.34072,0.5129 -13.58937,12.10179 0.9821,15.14807 1.87558,26.11521 3.52211,43.23286 0.55549,5.775 1.25372,13.2 1.55161,16.5 0.51553,5.71099 2.86575,36.904 4.0686,54 0.30957,4.4 0.74991,10.025 0.97851,12.5 0.22861,2.475 0.89787,10.35 1.48725,17.5 0.58938,7.15 1.26819,15.25 1.50846,18 0.24026,2.75 0.90189,11.975 1.47028,20.5 0.56839,8.525 1.24229,17.075 1.49755,19 0.25526,1.925 0.71638,7.1 1.02471,11.5 0.30832,4.4 0.98315,13.175 1.49961,19.5 0.51647,6.325 1.20369,15.775 1.52716,21 0.32348,5.225 0.73512,10.85123 0.91475,12.50272 0.58906,5.41548 1.52923,15.87563 2.02209,22.49728 0.26609,3.575 0.72226,8.975 1.01372,12 0.29145,3.025 1.91262,22.375 3.60259,43 1.71198,20.89357 3.55646,38.08352 4.16514,38.81769 0.77208,0.93124 2.72642,1.16122 6.66385,0.78418 3.06426,-0.29342 12.32138,-1.00238 20.57138,-1.57545 8.25,-0.57307 16.575,-1.2617 18.5,-1.53027 1.925,-0.26858 15.65,-1.39245 30.5,-2.49749 14.85,-1.10504 28.8,-2.22021 31,-2.47815 4.35935,-0.51111 12.04461,-1.11612 26,-2.04683 4.95,-0.33012 12.375,-0.99551 16.5,-1.47863 4.125,-0.48312 11.55,-1.13891 16.5,-1.4573 4.95,-0.3184 11.025,-0.80181 13.5,-1.07425 2.475,-0.27244 13.05,-1.16911 23.5,-1.99259 10.45,-0.82349 29.8,-2.38253 43,-3.46453 25.37324,-2.07986 28.70139,-2.34863 87,-7.02598 20.35,-1.63269 39.7,-3.19626 43,-3.47458 3.3,-0.27833 11.625,-0.95594 18.5,-1.50582 6.875,-0.54988 15.2,-1.2182 18.5,-1.48517 3.3,-0.26697 17.475,-1.40357 31.5,-2.52577 14.025,-1.1222 26.48102,-2.45483 27.68004,-2.9614 1.93677,-0.81825 2.18247,-1.69033 2.20183,-7.81511 0.0231,-7.31571 1.54075,-12.2071 6.97101,-22.46784 3.12077,-5.89685 11.10754,-16.34731 14.01886,-18.34326 2.52362,-1.73015 11.77536,-3.64823 14.0756,-2.91816 8.85244,2.80965 14.0497,16.45557 14.19358,37.26671 l 0.0709,10.25 3.14411,-0.006 c 1.72925,-0.003 14.3941,-0.91043 28.1441,-2.01594 13.75,-1.1055 39.4,-3.13819 57,-4.51708 17.6,-1.37888 41.9,-3.36713 54,-4.41833 12.1,-1.0512 28.3,-2.4045 36,-3.00734 43.90807,-3.43759 101.61657,-8.08456 105.49997,-8.49539 7.5194,-0.79548 15.0738,-1.43381 24,-2.02795 4.675,-0.31118 10.975,-0.77687 14,-1.03487 11.0207,-0.93996 41.6676,-3.47168 48,-3.96525 3.575,-0.27864 11.675,-0.95397 18,-1.50073 6.325,-0.54675 12.2734,-0.99794 13.2186,-1.00265 1.0432,-0.005 1.5119,-0.54738 1.1925,-1.37951 -0.794,-2.06925 2.4515,-2.82949 6.4483,-1.51044 3.1181,1.02908 3.6821,0.95118 4.5974,-0.63507 1.8984,-3.29006 4.5157,-5.48345 6.5432,-5.48345 1.5466,0 2,0.66667 2,2.94098 0,1.61754 0.4707,3.23192 1.0461,3.5875 0.5753,0.35558 6.5378,0.17516 13.25,-0.40093 6.7121,-0.57609 15.7759,-1.30988 20.1417,-1.63066 4.3659,-0.32077 12.4659,-0.98722 18,-1.481 5.5342,-0.49378 13.8872,-1.17541 18.5622,-1.51474 4.675,-0.33933 10.525,-0.79772 13,-1.01864 2.475,-0.22091 11.475,-0.90535 20,-1.52097 8.525,-0.61562 17.075,-1.24469 19,-1.39792 1.925,-0.15324 4.4825,0.0847 5.6834,0.5288 1.2008,0.44407 2.3258,0.44599 2.5,0.004 0.5338,-1.35411 12.9865,-2.10581 12.5352,-0.75668 -0.2134,0.63801 -2.1499,1.29831 -4.3033,1.46734 -9.1628,0.71925 -12.1077,1.0106 -15.4153,1.52513 -4.3523,0.67704 -22.966,2.53298 -25,2.49271 -1.3685,-0.0271 -35.0047,2.85562 -59.5,5.09932 -5.5,0.50379 -14.191,1.19001 -19.3134,1.52494 -15.9006,1.03967 -20.4307,1.62573 -23.9578,3.09942 -2.5602,1.06975 -3.917,1.1532 -5.4459,0.33498 -1.2587,-0.67363 -4.5651,-0.84908 -8.6595,-0.4595 -16.0566,1.52776 -71.9233,6.03236 -100.1234,8.07307 -11.825,0.85571 -23.975,1.78376 -27,2.06232 -3.025,0.27856 -14.275,1.17048 -25,1.98205 -10.725,0.81156 -27.15,2.12332 -36.5,2.915 -20.94293,1.77329 -26.08036,2.19185 -50,4.07361 -10.45,0.8221 -21.475,1.70705 -24.5,1.96656 -3.025,0.2595 -11.35,0.94456 -18.5,1.52236 -7.15,0.57779 -17.95,1.4765 -24,1.99713 -6.05,0.52063 -22.925,1.88139 -37.5,3.02392 -51.02565,3.99987 -60.29906,4.85871 -61.09894,5.65859 -1.34539,1.34539 -2.75919,13.6226 -4.35302,37.80106 -0.83388,12.65 -2.04268,28.30541 -2.68622,34.7898 -1.1009,11.09266 -1.01789,17.96911 0.69666,57.7102 0.59602,13.81493 3.096,34.14756 4.60609,37.46184 2.04924,4.4976 -1.59704,10.24301 -5.11916,8.06622 -1.33966,-0.82795 -14.85219,-27.71867 -17.06313,-33.9566 -0.98862,-2.7893 -3.57019,-9.34646 -5.73683,-14.57146 -4.27548,-10.31066 -8.69176,-24.84262 -9.72483,-32 -0.35724,-2.475 -2.03068,-9.675 -3.71877,-16 -5.84296,-21.89261 -5.9086,-22.39387 -6.48196,-49.5 -0.30248,-14.3 -0.65865,-26.12296 -0.7915,-26.27324 -0.20915,-0.2366 -12.91348,0.59691 -34.02839,2.23257 -3.3,0.25563 -9.6,0.70957 -14,1.00874 -6.4061,0.43559 -83.50604,6.60474 -112.5,9.0017 -3.575,0.29554 -15.05,1.224 -25.5,2.06324 -10.45,0.83924 -30.025,2.41278 -43.5,3.49677 -13.475,1.08399 -53.75,4.22697 -89.5,6.9844 -35.75,2.75743 -72.875,5.65959 -82.5,6.44925 -9.625,0.78966 -21.325,1.69932 -26,2.02145 -4.675,0.32214 -10.075,0.77894 -12,1.01512 -1.925,0.23618 -7.325,0.68064 -12,0.98769 -21.74528,1.42822 -22.83414,1.83177 -21.17321,7.84717 0.52716,1.9092 0.71864,6.45902 0.42552,10.1107 l -0.53295,6.63943 2.65711,-1.21066 c 2.29851,-1.04727 2.8516,-0.95179 4.09821,0.7075 1.87227,2.49208 3.98776,11.77069 3.16971,13.90248 -0.38641,1.00698 -1.49117,1.5305 -2.81893,1.33583 -1.7431,-0.25557 -2.42435,-1.39378 -3.37779,-5.64346 -0.65687,-2.92783 -1.64354,-5.77255 -2.19259,-6.3216 -1.01624,-1.01624 -0.79218,6.58367 0.59391,20.14492 0.61345,6.00186 0.83629,6.47602 2.90769,6.18714 2.78211,-0.388 2.95989,1.9815 0.59256,7.89804 -1.96114,4.90136 -1.59825,17.36089 1.59939,54.91482 1.10053,12.925 2.24631,26.875 2.54617,31 0.29985,4.125 0.80537,10.0875 1.12338,13.25 l 0.57819,5.75 3.90182,0 c 4.97102,0 5.52669,2.71661 0.65181,3.18664 l -3.25,0.31336 0,7.5 c 0,8.36357 1.18045,24.84077 2.54327,35.5 0.49224,3.85 0.90887,7.42165 0.92585,7.93705 0.017,0.5154 1.43432,-0.3846 3.14964,-2 l 3.11876,-2.93705 -0.7188,2.49995 c -0.39534,1.375 -1.76653,4.075 -3.04708,6 -2.04023,3.067 -2.26807,4.366 -1.84154,10.5 0.85194,12.2519 0.58946,11.845 7.16995,11.1131 4.82661,-0.5368 17.52303,-0.7394 24.69995,-0.3941 1.1,0.053 3.575,-0.2637 5.5,-0.7037 1.925,-0.44 5.525,-0.8882 8,-0.996 2.475,-0.1078 4.725,-0.2766 5,-0.3752 0.275,-0.099 4.1,-0.3937 8.5,-0.6556 14.31988,-0.8524 20.95408,-1.4076 23.5,-1.967 6.65489,-1.4618 29.13661,-2.7802 62.75,-3.6798 2.8875,-0.077 5.25,-0.5499 5.25,-1.0501 0,-0.5003 0.43944,-0.638 0.97654,-0.3061 0.5371,0.3319 5.5996,-0.062 11.25,-0.8754 10.45604,-1.5053 13.57059,-1.7995 38.27346,-3.6159 13.4027,-0.9855 19.3711,-1.4603 31.5,-2.5062 3.025,-0.2608 9.325,-0.7395 14,-1.0637 4.675,-0.3242 11.18576,-0.8898 14.46835,-1.2569 l 5.96834,-0.6674 -0.25565,-5 c -0.18703,-3.65781 0.0187,-4.59731 0.76634,-3.49995 0.5621,0.82495 1.02889,3.02025 1.03731,4.87845 l 0.0153,3.3785 12.25,-0.7494 c 6.7375,-0.4121 15.625,-0.9051 19.75,-1.0954 4.125,-0.1904 9.975,-0.5603 13,-0.822 15.03016,-1.3004 18.29705,-1.1739 18.57485,0.7188 0.15103,1.0291 -0.2378,1.6231 -0.90503,1.3827 -0.6434,-0.2318 -1.91007,-0.042 -2.81481,0.4224 -1.08438,0.5563 -2.06332,0.3398 -2.87245,-0.6351 -1.59337,-1.9199 -3.08385,-1.9065 -2.34419,0.021 0.46079,1.2008 -0.39326,1.5153 -4.28138,1.5765 -2.67135,0.042 -5.75699,0.2544 -6.85699,0.4719 -1.1,0.2174 -7.625,0.8838 -14.5,1.4808 -6.875,0.597 -13.625,1.2303 -15,1.4074 -1.375,0.1772 -7.225,0.6219 -13,0.9883 -5.775,0.3663 -12.525,0.8543 -15,1.0844 -16.72753,1.555 -27.49445,2.4865 -34,2.9416 -4.125,0.2885 -16.275,1.1788 -27,1.9785 -10.725,0.7998 -25.8,1.7324 -33.5,2.0726 -7.7,0.3401 -15.8,0.7878 -18,0.9949 -2.2,0.2071 -7.26377,0.6214 -11.25281,0.9208 -3.98905,0.2993 -8.48905,0.7786 -10,1.0652 -1.51096,0.2865 -6.51833,0.7548 -11.12751,1.0405 -4.60918,0.2858 -8.73237,0.7372 -9.16265,1.0032 -0.43029,0.266 -6.55914,0.7078 -13.61968,0.982 -7.06054,0.2743 -14.86235,0.7372 -17.33735,1.0289 -2.475,0.2916 -8.55,0.7356 -13.5,0.9865 -4.95,0.251 -9,0.5121 -9,0.5803 0,0.3248 -36.98678,3.8958 -40.35056,3.8958 -4.16402,0 -5.14604,3.4882 -4.08217,14.5 0.53137,5.5 1.20559,13.375 1.49827,17.5 0.29268,4.125 0.98404,12.9 1.53635,19.5 1.1305,13.5093 1.44,17.3882 6.35096,79.5954 1.93633,24.5275 3.74829,47.2526 4.02657,50.5 0.27829,3.2475 0.97637,11.7545 1.55129,18.9046 1.52317,18.9429 3.8168,46.0816 4.47931,53 0.316,3.3 1.91086,23.55 3.54412,45 4.82144,63.3212 5.99256,78.5273 6.73887,87.5 l 0.70699,8.5 10,-0.2988 c 11.94222,-0.3568 11.36894,1.3239 -0.81407,2.3866 -5.31976,0.464 -8.02713,1.1378 -8.39188,2.0882 -0.29617,0.7718 -0.0272,7.7979 0.59762,15.6136 1.13735,14.226 8.74732,107.3527 9.61885,117.7103 0.25453,3.025 0.92306,11.575 1.48562,19 0.56256,7.425 2.36701,29.925 4.00989,50 1.64288,20.075 3.83718,47.2261 4.87624,60.3357 1.03905,13.1097 2.32282,24.2694 2.85281,24.7995 0.61817,0.6181 4.87148,0.5583 11.86427,-0.1667 12.14638,-1.2594 18.88052,-1.7105 37.90065,-2.5391 7.15,-0.3114 15.25,-0.9722 18,-1.4683 2.75,-0.4962 6.68424,-0.7245 8.74276,-0.5074 2.6614,0.2806 3.99574,-0.057 4.61833,-1.1699 0.48155,-0.8605 1.39215,-1.2453 2.02354,-0.8551 0.6314,0.3903 0.8593,1.1766 0.50645,1.7475 -0.40164,0.6499 0.0901,0.8059 1.31509,0.4171 2.36802,-0.7516 7.70761,-1.308 20.29383,-2.1147 5.225,-0.3348 10.86759,-0.9671 12.53908,-1.4049 1.6715,-0.4378 6.30324,-0.6453 10.29275,-0.4612 3.98952,0.1842 7.01427,-0.053 6.72168,-0.5259 -0.29259,-0.4734 0.0257,-0.8407 0.70725,-0.8162 0.68158,0.025 2.71854,-0.026 4.52657,-0.1129 l 3.28733,-0.1575 -0.49255,-9.75 c -0.3587,-7.1003 -0.24862,-8.6629 0.40504,-5.75 0.49367,2.2 0.92352,6.3359 0.95522,9.191 0.0317,2.855 0.39513,5.3978 0.80763,5.6506 0.4125,0.2529 4.8,0.061 9.75,-0.4263 19.05495,-1.876 32.4998,-2.4696 32.51531,-1.4356 0.008,0.5611 0.38057,0.4447 0.82698,-0.2588 0.44642,-0.7035 2.12703,-1.2143 3.73469,-1.1352 1.60766,0.079 4.49802,-0.1085 6.42302,-0.4169 1.925,-0.3084 7.325,-0.8291 12,-1.1571 4.675,-0.328 10.975,-0.7936 14,-1.0346 31.37843,-2.4999 44.4298,-3.5489 49.5,-3.9786 3.3,-0.2797 18.375,-1.4026 33.5,-2.4953 15.125,-1.0927 35.825,-2.6674 46,-3.4992 37.31211,-3.0504 45.46791,-3.6838 77.5,-6.0184 11.55,-0.8418 37.875,-2.8563 58.5,-4.4767 43.4824,-3.4162 46.32726,-3.6281 67.06093,-4.9949 8.55851,-0.5642 18.00851,-1.3327 21,-1.708 2.99149,-0.3751 9.03907,-0.7736 13.43907,-0.8855 4.4,-0.1119 8.675,-0.4395 9.5,-0.7279 0.825,-0.2884 18.15,-1.6938 38.5,-3.1233 20.35,-1.4294 42.85001,-3.0469 50.00001,-3.5944 37.4414,-2.8672 52.758,-4.0211 60,-4.5201 4.4,-0.3032 15.425,-1.1977 24.5,-1.9877 9.075,-0.7901 24.15,-1.8969 33.5,-2.4597 9.35,-0.5628 18.575,-1.2288 20.5,-1.48 1.925,-0.2513 7.1,-0.7073 11.5,-1.0135 4.4,-0.3061 22.625,-1.6944 40.5,-3.0851 17.875,-1.3907 41.725,-3.1748 53,-3.9648 11.275,-0.7899 22.75,-1.6714 25.5,-1.9587 2.75,-0.2873 17.375,-1.4151 32.5,-2.5062 48.4296,-3.4935 56.4774,-4.1188 57.6054,-4.4757 0.7151,-0.2262 1.0085,-3.1163 0.8309,-8.1865 l -0.2744,-7.8369 1.0746,7.7603 1.0746,7.7603 8.5944,-0.4837 c 35.3875,-1.9917 50.8009,-3.2435 52.4522,-4.2601 0.7753,-0.4772 0.4412,-10.5291 -0.8401,-25.2768 -0.2628,-3.025 -0.7264,-8.65 -1.0303,-12.5 -0.304,-3.85 -0.752,-8.35 -0.9957,-10 -0.2437,-1.65 -0.6943,-7.5 -1.0014,-13 -0.307,-5.5 -0.9679,-13.825 -1.4686,-18.5 -0.5008,-4.675 -1.173,-12.55 -1.494,-17.5 -0.3209,-4.95 -0.7961,-11.025 -1.0559,-13.5 -0.2599,-2.475 -0.7035,-8.325 -0.986,-13 -0.2824,-4.675 -0.7289,-9.625 -0.9922,-11 -0.2633,-1.375 -0.6944,-7.5463 -0.958,-13.7139 -0.2636,-6.1677 -0.6975,-12.2427 -0.9642,-13.5 -0.2666,-1.2574 -0.7545,-6.5611 -1.0841,-11.7861 -0.3295,-5.225 -1.015,-13.6078 -1.5231,-18.6284 -0.5082,-5.0207 -1.1706,-12.8957 -1.472,-17.5 -0.3014,-4.6044 -0.7642,-11.5216 -1.0284,-15.3716 -0.2642,-3.85 -0.6951,-11.05 -0.9575,-16 -0.2623,-4.95 -0.5107,-9 -0.5519,-9 -0.041,0 -0.2935,-3.15 -0.5607,-7 -0.7747,-11.1647 -1.1882,-15.6942 -1.8713,-20.5 -1.4958,-10.5244 -2.4206,-22.5491 -2.9484,-38.3366 -0.3096,-9.2601 -0.7564,-17.1496 -0.9929,-17.5323 -0.2365,-0.3827 -0.7142,-4.7026 -1.0617,-9.5998 -0.3474,-4.8973 -0.8241,-9.2155 -1.0593,-9.5961 -0.2353,-0.3806 -0.6857,-5.8092 -1.0009,-12.0636 -0.3153,-6.2544 -0.9859,-14.2966 -1.4902,-17.8716 -1.0679,-7.569 -1.6636,-13.4197 -2.4948,-24.5 -0.9947,-13.2607 -1.4766,-15.8676 -3.3237,-17.9786 -2.3236,-2.6555 -4.3252,-7.4296 -3.6041,-8.5963 1.5913,-2.5749 -1.2626,-0.3447 -5.287,4.1314 -6.5577,7.2937 -7.7785,5.0043 -1.9904,-3.7325 2.4865,-3.7532 5.2202,-8.5115 6.075,-10.574 0.8547,-2.0625 2.252,-3.75 3.1051,-3.75 1.6708,0 1.9201,-2.1359 0.9405,-8.0566 l -0.5884,-3.5566 -5.8641,0.4241 c -6.2006,0.4486 -10.937,-0.2858 -10.937,-1.6956 0,-0.4656 3.1434,-1.0715 6.9854,-1.3464 8.3115,-0.5947 10.2419,-1.837 9.5677,-6.1574 -0.267,-1.7113 -0.743,-7.1615 -1.0577,-12.1115 -0.3147,-4.95 -0.7722,-10.8 -1.0165,-13 -0.5841,-5.2582 -1.5599,-18.2649 -2.0176,-26.8943 -0.2012,-3.7918 -0.6365,-8.1268 -0.9674,-9.6333 -0.3308,-1.5064 -0.7771,-10.554 -0.9916,-20.1057 -0.2146,-9.5517 -0.6369,-19.3917 -0.9387,-21.8667 -0.3017,-2.475 -0.7436,-7.7887 -0.9819,-11.8082 -0.2384,-4.0195 -0.9386,-7.917 -1.5561,-8.661 -0.7865,-0.9476 -0.8038,-1.5498 -0.058,-2.0109 0.5856,-0.3619 0.8308,-1.0367 0.5448,-1.4995 -0.286,-0.4627 -0.5921,-2.6815 -0.6802,-4.9309 -0.088,-2.2492 -0.4615,-4.0895 -0.8297,-4.0895 -0.3681,0 -0.7375,-1.4625 -0.8207,-3.25 -0.3785,-8.1297 -1.3581,-19.966 -2.2967,-27.74995 -0.5636,-4.675 -1.1059,-10.00228 -1.2051,-11.8384 l -0.1802,-3.33841 -10,0.57528 c -11.3096,0.65061 -9.9357,-0.82699 2,-2.15095 l 7,-0.77647 -0.2021,-6.48552 c -0.3826,-12.281 -1.459,-25.62824 -2.1581,-26.75925 -0.8187,-1.32484 -16.2753,-0.25688 -127.1398,8.78458 -32.6449,2.66233 -47.6698,3.82129 -58.5,4.51243 -4.95,0.3159 -13.95,0.98289 -20,1.4822 -6.05,0.49932 -14.6,1.16936 -19,1.48897 -4.4,0.31962 -10.25,0.78852 -13,1.04201 -5.1109,0.4711 -30.1791,2.47147 -57,4.54844 -10.6104,0.82166 -17.1614,1.86841 -22.386,3.57693 -4.0624,1.32845 -11.5857,2.81268 -16.7186,3.2983 -5.1329,0.48562 -9.7879,1.16441 -10.3445,1.50843 -0.5567,0.34401 -5.6333,1.26414 -11.2815,2.04473 -16.6057,2.29495 -29.1416,4.55212 -30.243,5.44547 -3.0534,2.47667 -16.58923,5.03451 -34.52641,6.5244 -24.89637,2.06794 -27.06152,2.32608 -34.9522,4.16712 -3.60129,0.84025 -10.5978,1.88756 -15.5478,2.32734 -9.14359,0.81232 -18.97083,3.12992 -23.5,5.54192 -8.03512,4.2793 -16.18001,7.3935 -20.96546,8.0162 -4.94709,0.6437 -8.98177,2.5733 -14.46154,6.9163 -1.05985,0.84 -1.73485,1.6839 -1.5,1.8754 0.23485,0.1915 5.03927,-0.077 10.67649,-0.5969 5.63723,-0.5197 11.03723,-0.6415 12,-0.2705 3.60539,1.389 -1.29998,2.4071 -15.0304,3.1193 l -13.69235,0.7102 -1.97964,3.3553 c -3.66957,6.2194 -9.851,2.7442 -6.53268,-3.6727 1.3811,-2.6708 1.96993,-2.9784 4.78035,-2.4971 2.63373,0.451 4.18589,-0.1643 8.70523,-3.4511 8.14158,-5.9211 11.89705,-7.7044 17.95757,-8.5276 3.09269,-0.42 9.5075,-2.6722 14.80378,-5.1974 10.48922,-5.0012 21.26966,-8.29895 27.12931,-8.29895 2.15379,0 8.34699,-0.93453 13.76266,-2.07674 10.19567,-2.15034 17.6721,-3.03852 44.84668,-5.32763 12.76926,-1.07566 17.84926,-1.96854 25.15831,-4.42195 9.7173,-3.26176 21.7775,-5.7592 34.7387,-7.19372 8.7474,-0.96814 13.1832,-3.13366 4.9889,-2.4355 -2.6872,0.22895 -14.3359,1.10036 -25.8859,1.93646 -11.55,0.83609 -26.40001,1.96688 -33.00001,2.51285 -6.6,0.54598 -24.15,1.91293 -39,3.03767 -54.75548,4.14719 -51.84508,3.82242 -53.66029,5.98789 -2.01804,2.40745 -3.17296,2.48898 -4.94871,0.34934 -1.15504,-1.39175 -2.75064,-1.53315 -10.86454,-0.9628 -8.67065,0.60949 -9.69538,0.9002 -11.60213,3.29149 -2.06176,2.58569 -3.09443,2.69456 -7.67433,0.8091 -1.47638,-0.60779 -1.75,-0.15646 -1.75,2.88655 0,2.98681 -0.35771,3.60699 -2.08045,3.60699 -1.49864,0 -2.51984,-1.11861 -3.65169,-4 -0.86418,-2.2 -2.21064,-4 -2.99213,-4 -1.06296,0 -0.8988,0.66373 0.65169,2.63486 2.6024,3.30841 2.62106,6.36969 0.0693,11.37149 -2.2173,4.3463 -4.54702,5.9936 -8.47644,5.9936 -3.59772,0 -7.5666,-4.1069 -6.80039,-7.0369 l 0.59031,-2.2574 1.9283,2.6472 c 2.19258,3.0099 6.73101,3.5937 8.7766,1.1289 0.69299,-0.835 1.3106,-3.1851 1.37244,-5.2225 0.10988,-3.61965 -0.0246,-3.75975 -5.88755,-6.13286 l -6,-2.42859 -23,1.70657 c -12.65,0.93861 -24.8,1.88378 -27,2.10038 -2.2,0.21659 -8.275,0.66435 -13.5,0.99502 -5.225,0.33067 -11.3,0.7901 -13.5,1.02095 -6.37086,0.66851 -28.14874,2.38307 -38.3786,3.02143 -5.15822,0.322 -10.55822,0.7299 -12,0.9065 -6.39968,0.7839 -48.87471,2.7971 -48.02354,2.2762 0.22117,-0.1354 1.49094,-1.1413 2.82171,-2.2355 2.12663,-1.74851 2.3423,-1.77748 1.78138,-0.2393 -0.78051,2.1403 0.17813,2.2876 1.68881,0.2595 0.75834,-1.0181 3.64588,-1.64734 9.11024,-1.98522 4.4,-0.27206 8.9,-0.67024 10,-0.88484 2.79329,-0.54495 13.6758,-1.59989 22,-2.13267 10.68005,-0.68355 35.32505,-2.46452 41.5,-2.999 10.63013,-0.92009 17.58897,-1.45253 27,-2.06585 5.225,-0.34052 9.79554,-0.91676 10.15675,-1.28054 0.36121,-0.36379 0.90671,-2.46143 1.21223,-4.66143 0.30552,-2.2 0.60411,-4.225 0.66354,-4.5 0.2884,-1.33452 1.83562,3.85475 1.89719,6.36306 l 0.0703,2.86306 11.25,-0.64391 c 17.20947,-0.98502 29.3327,-2.20627 30.77986,-3.10067 0.48164,-0.29767 1.86497,-2.30136 3.07406,-4.45266 3.67672,-6.54184 10.86744,-7.87787 11.71563,-2.17675 0.35891,2.41242 -0.91444,2.73007 -3.77718,0.94226 -1.58998,-0.99296 -2.29313,-0.87743 -3.98643,0.65499 -3.48703,3.15571 -2.60965,4.55062 2.86227,4.55062 6.78441,0 7.80254,-0.54258 7.31038,-3.89585 -0.68994,-4.70086 2.55491,-4.95789 6.29845,-0.4989 2.59196,3.08731 3.54263,3.59408 5.71805,3.04808 l 2.60923,-0.65487 -3.11017,-6.0305 c -2.91781,-5.65752 -3.00584,-6.13485 -1.42319,-7.71749 1.58264,-1.58264 1.80906,-1.5649 3.66083,0.28688 1.08562,1.08562 2.82304,4.44633 3.86093,7.46825 l 1.88707,5.4944 7.74139,-0.18962 c 4.25776,-0.10428 7.98476,-0.43299 8.28222,-0.73045 0.29747,-0.29746 -0.92912,-4.26214 -2.72574,-8.81039 -4.16657,-10.5479 -4.70272,-14.09032 -2.61486,-17.2768 2.10283,-3.20932 5.57642,-3.21413 9.38077,-0.013 5.24376,4.41234 6.19848,10.27368 3.6502,22.40973 l -0.71171,3.38947 10.88397,-0.65997 c 14.63667,-0.88752 59.78301,-4.30669 81.38397,-6.16363 9.625,-0.82742 20.42501,-1.72985 24.00001,-2.00539 3.575,-0.27554 9.2,-0.72111 12.5,-0.99015 3.3,-0.26904 15.45,-1.15425 27,-1.96714 43.5839,-3.06744 50.5539,-3.92385 65,-7.98658 7.15,-2.01082 16.4515,-5.20625 20.6699,-7.10096 4.2185,-1.89471 10.7435,-4.13058 14.5,-4.9686 10.8811,-2.42738 25.0231,-5.95808 35.8301,-8.94537 5.5,-1.52032 12.0925,-3.34067 14.65,-4.04522 2.5575,-0.70455 9.9825,-1.78236 16.5,-2.39513 12.9644,-1.21889 20.0002,-2.03747 43.35,-5.04357 8.525,-1.09752 22.025,-2.46893 30,-3.04758 7.975,-0.57865 18.325,-1.71397 23,-2.52294 8.2935,-1.43513 11.9363,-2.19482 30.5455,-6.37034 4.975,-1.11629 12.625,-2.5186 17,-3.11624 4.375,-0.59764 12.2295,-2.16015 17.4545,-3.47225 5.225,-1.31211 10.85,-2.5189 12.5,-2.68177 l 3,-0.29612 -0.076,-7.5 c -0.08,-7.86774 -1.3971,-29.16691 -2.0012,-32.36641 -0.1938,-1.02652 -0.6184,-5.97652 -0.9435,-11 -0.3251,-5.02347 -0.7671,-9.80859 -0.9822,-10.63359 -0.2151,-0.825 -0.6624,-6 -0.9942,-11.5 -0.3317,-5.5 -1.0264,-14.275 -1.5439,-19.5 -0.5175,-5.225 -1.1882,-15.575 -1.4905,-23 -0.3024,-7.425 -1.0313,-17.775 -1.6198,-23 -0.5885,-5.225 -1.2379,-12.425 -1.443,-16 -0.2052,-3.575 -0.6255,-8.975 -0.934,-12 -0.3085,-3.025 -0.7416,-8.425 -0.9623,-12 -0.2207,-3.575 -0.483,-6.5 -0.5828,-6.5 -0.3862,0 -0.8185,-4.42225 -1.4661,-15 -0.3704,-6.05 -1.0375,-11.38954 -1.4824,-11.86564 -0.445,-0.4761 -2.5344,-0.98575 -4.6433,-1.13256 -5.4316,-0.3781 -5.5141,-0.402 -4.8882,-1.41479 0.3104,-0.50214 2.3619,-1.21669 4.559,-1.5879 3.7696,-0.63686 4.0037,-0.88132 4.1523,-4.33701 0.087,-2.01415 0.097,-4.3371 0.023,-5.1621 -0.074,-0.825 -0.3679,-5.325 -0.6529,-10 -0.6471,-10.61627 -1.6016,-22.56181 -2.1175,-26.5 -0.2162,-1.65 -0.8896,-9.525 -1.4965,-17.5 -0.6069,-7.975 -1.2403,-15.85 -1.4075,-17.5 -0.1672,-1.65 -0.5897,-6.6 -0.939,-11 -0.3493,-4.4 -1.4904,-18.35 -2.5357,-31 -1.7278,-20.90821 -2.5824,-33.01317 -3.5297,-50 -0.299,-5.3613 -0.6649,-9.97433 -2.0229,-25.5 -0.2165,-2.475 -0.6459,-8.325 -0.9543,-13 -0.9069,-13.74937 -1.5636,-18.40096 -2.8393,-20.11073 -0.661,-0.8859 -3.673,-2.85611 -6.6934,-4.37825 -3.0204,-1.52213 -6.6166,-3.55218 -7.9916,-4.51123 -1.375,-0.95904 -5.2,-3.20423 -8.5,-4.98931 -3.3,-1.78509 -8.7,-4.70859 -12,-6.49668 -7.0007,-3.79331 -24.9657,-15.8898 -31.6006,-21.27779 -2.5303,-2.0548 -8.0074,-6.54851 -12.1714,-9.98601 -4.1639,-3.4375 -7.8842,-6.25 -8.2674,-6.25 -0.3831,0 -2.2019,-1.2375 -4.0418,-2.75 -1.8399,-1.5125 -4.7671,-3.84249 -6.5048,-5.17776 -3.998,-3.07197 -7.0575,-8.04474 -6.3401,-10.30492 0.5947,-1.87398 2.9218,-4.50998 13.2716,-15.03356 4.7738,-4.854 9.1016,-8.03342 15.3133,-11.25 4.7624,-2.46607 9.3475,-4.48376 10.1892,-4.48376 2.3384,0 10.7437,-7.65 14.5381,-13.23165 5.3953,-7.93673 21.0407,-24.14902 24.4945,-25.38195 1.7156,-0.61248 3.7333,-2.35592 4.4836,-3.87432 0.9395,-1.90145 1.6009,-2.37755 2.125,-1.52964 0.8493,1.37428 1.4118,0.72329 3.0122,-3.48624 l 1.0615,-2.79194 -12.7814,0.68686 c -17.4347,0.93692 -24.7232,1.53276 -31.7815,2.59816 -3.3,0.49811 -9.375,1.1388 -13.5,1.42375 -19.0646,1.31697 -49.5276,3.64763 -59.5,4.55222 -6.05,0.54879 -17.3,1.47485 -25,2.05791 -7.7,0.58306 -15.1293,1.50116 -16.5096,2.04024 -1.5184,0.59297 -4.9932,4.72411 -8.7969,10.45836 -3.458,5.21303 -6.7162,9.47824 -7.2404,9.47824 -2.2109,0 -0.6088,-4.16444 4.5496,-11.82656 4.2757,-6.35078 5.1119,-8.17148 3.75,-8.16466 -4.9666,0.0249 -125.2886,9.03108 -139.7527,10.46061 -2.75,0.27179 -20.975,1.62348 -40.50001,3.00376 -19.525,1.38028 -37.525,2.73923 -40,3.0199 -2.475,0.28067 -11.475,0.97955 -20,1.55307 -8.525,0.57352 -29.9,2.15319 -47.5,3.51039 -17.6,1.35719 -41.45,3.14162 -53,3.9654 -11.55,0.82377 -22.8,1.7258 -25,2.0045 -3.83802,0.48621 -16.96787,1.48224 -92,6.97913 -18.7,1.36997 -42.775,3.1636 -53.5,3.98586 -10.725,0.82225 -31.875,2.41136 -47,3.53136 -15.125,1.11999 -38.525,2.91332 -52,3.98517 -45.85325,3.64734 -50.50259,4.00784 -77.5,6.00912 -14.85,1.10082 -32.175,2.42692 -38.5,2.9469 -18.00938,1.48054 -36.62201,2.87604 -75.5,5.66066 -75.15224,5.38276 -83.67309,5.90434 -84.1391,5.15032 -0.26341,-0.42621 0.11012,-0.77159 0.83008,-0.76751 0.71996,0.004 17.73402,-1.32772 37.80902,-2.95957 20.075,-1.63184 52.025,-4.12329 71,-5.53656 18.975,-1.41327 36.525,-2.76984 39,-3.01462 2.475,-0.24477 10.8,-0.92077 18.5,-1.50222 7.7,-0.58144 25.025,-1.9392 38.5,-3.01723 24.64913,-1.97198 98.67348,-7.6002 112.87265,-8.58192 4.19504,-0.29005 23.82735,-1.81845 43.62735,-3.39644 19.8,-1.578 40.05,-3.14479 45,-3.48175 4.95,-0.33697 11.025,-0.80248 13.5,-1.03448 10.45365,-0.97988 31.94698,-2.66614 70,-5.49185 22.275,-1.65408 41.85,-3.21072 43.5,-3.45921 1.65,-0.24849 8.4,-0.71479 15,-1.03623 10.69681,-0.52096 23.94604,-1.49985 40.5,-2.99227 3.025,-0.27271 14.95,-1.17192 26.5,-1.99824 11.55,-0.82632 23.025,-1.71723 25.5,-1.97982 2.475,-0.26258 7.875,-0.70607 12,-0.98553 22.63385,-1.53342 51.19921,-3.596 56,-4.04351 3.025,-0.28197 8.87501,-0.73242 13.00001,-1.00099 4.125,-0.26857 12.45,-0.92302 18.5,-1.45433 6.05,-0.53131 14.6,-1.21539 19,-1.52018 4.4,-0.30479 10.25,-0.76145 13,-1.0148 2.75,-0.25335 8.375,-0.68203 12.5,-0.95261 14.299,-0.93794 25.5076,-1.79959 27.0477,-2.07926 0.8512,-0.15458 6.9262,-0.57522 13.5,-0.93476 6.5738,-0.35953 16.2273,-1.03203 21.4523,-1.49443 5.225,-0.46241 10.175,-0.85665 11,-0.8761 0.825,-0.0195 7.575,-0.49945 15,-1.06665 7.425,-0.5672 14.216,-1.04716 15.0911,-1.06657 0.8751,-0.0194 2.8081,-2.27143 4.2956,-5.00448 1.4875,-2.73306 3.164,-5.25312 3.7255,-5.60014 1.9474,-1.2036 2.1916,0.56827 0.6271,4.55109 -0.9738,2.47913 -1.2008,4.23301 -0.5962,4.6067 0.537,0.33188 4.887,0.332 9.6666,2.7e-4 16.1648,-1.12195 25.6797,-1.84216 28.1903,-2.13382 1.375,-0.15974 7,-0.57006 12.5,-0.91183 5.5,-0.34177 11.35,-0.81071 13,-1.04209 5.3471,-0.74982 13.7649,-1.42002 25,-1.9904 6.05,-0.30715 14.6,-1.00209 19,-1.54432 4.4,-0.54223 11.15,-1.1714 15,-1.39816 22.9228,-1.35013 29.3117,-1.93188 32.9469,-3.00004 l 4.0531,-1.19093 -0.2193,-10.93857 c -0.1211,-6.01595 -0.6789,-16.33831 -1.24,-22.93831 -0.5611,-6.6 -1.2536,-15.15 -1.539,-19 -0.7523,-10.15063 -2.2503,-27.6864 -3.9298,-46 -2.4173,-26.35985 -2.6451,-30.33696 -1.7688,-30.87853 0.4608,-0.28479 1.3765,5.19637 2.0348,12.18036 0.6584,6.98399 1.8547,19.67317 2.6584,28.19817 0.8038,8.525 2.3814,26.3 3.5058,39.5 1.1244,13.2 2.511,29.38655 3.0812,35.9701 0.5702,6.58356 1.5644,12.60584 2.2092,13.38285 1.199,1.4447 1.029,1.44699 30.7071,-0.41538 4.125,-0.25885 8.4704,-0.6862 9.6564,-0.94966 1.186,-0.26345 5.911,-0.70943 10.5,-0.99106 4.589,-0.28163 10.5936,-0.73955 13.3436,-1.01761 2.75,-0.27806 8.6337,-0.73466 13.0749,-1.01466 4.4412,-0.28 10.0662,-0.84797 12.5,-1.26214 l 4.4251,-0.75304 0.6702,-10.06701 c 0.3686,-5.53686 1.2186,-12.72548 1.8888,-15.9747 2.0488,-9.9313 2.6015,-27.61181 1.7635,-56.40769 -0.9105,-31.28334 -2.1349,-42.93336 -8.355,-79.5 -2.4325,-14.3 -4.903,-31.175 -5.4901,-37.5 -2.2568,-24.316121 -2.145,-23.600094 -9.5207,-61 -1.3558,-6.875 -2.8161,-16.8875 -3.2451,-22.25 -0.7184,-8.98155428 -0.6393,-9.75 1.0043,-9.75 1.4292,0 1.788,0.84546703 1.8039,4.25 0.027,5.851771 1.5614,16.044207 4.553,30.25 3.5235,16.731044 4.334,19.497805 5.7173,19.515313 0.9173,0.01161 0.9253,0.196344 0.033,0.763765 -0.8939,0.568546 -0.819,2.668121 0.3114,8.734688 0.8185,4.392428 1.6577,10.911234 1.8648,14.486234 0.9341,16.120922 1.9692,24.35539 6.5364,52 6.9884,42.29883 7.0836,43.12649 7.9348,69 1.0603,32.23188 0.4925,60.43594 -1.3202,65.57377 -1.9787,5.60813 -3.0067,25.90055 -1.3775,27.19226 0.6749,0.53515 3.4771,0.83828 6.2271,0.67363 2.75,-0.16465 9.3875,-0.58333 14.75,-0.9304 6.603,-0.42736 9.75,-0.28861 9.75,0.42985 0,0.58349 -0.7167,1.06089 -1.5927,1.06089 -3.0175,0 -25.9116,2.11464 -28.314,2.61525 l -2.4067,0.5015 0.7833,22.69163 c 0.4307,12.48039 0.7736,24.71662 0.7618,27.19162 -0.012,2.475 -0.083,11.10353 -0.1578,19.17451 -0.1788,19.23436 1.3112,28.95787 6.6391,43.32549 2.6888,7.25089 12.1104,21.93155 20.2159,31.5 5.4084,6.38463 12.9589,16.16785 18.4963,23.96561 2.1347,3.00609 8.1998,10.57525 13.478,16.82035 5.2783,6.24511 12.8963,15.26058 16.929,20.03439 4.0328,4.77381 9.8652,11.82965 12.961,15.67965 3.0958,3.85 8.7963,10.63495 12.6677,15.07766 18.193,20.87735 32.101,38.9748 37.0932,48.26664 2.1703,4.03937 7.9526,12.36437 12.8497,18.5 4.8971,6.13564 10.9455,14.3057 13.4409,18.1557 10.033,15.47956 30.212,41.46322 34.0994,43.9083 0.7942,0.49957 3.3774,2.69035 5.7403,4.8684 l 4.2962,3.9601 7.2597,-0.6136 c 3.9928,-0.33749 12.8831,-0.88276 19.7562,-1.21173 6.8731,-0.32897 12.7267,-0.7404 13.008,-0.91428 0.2814,-0.17388 8.158,-0.615 17.5035,-0.98026 9.3456,-0.36526 17.716,-0.86616 18.6008,-1.1131 0.8849,-0.24694 2.1461,0.19833 2.8027,0.98949 1.63,1.96404 0.1283,2.29873 -13.9115,3.10051 -6.325,0.36121 -13.3,0.82909 -15.5,1.03974 -2.2,0.21064 -11.65,0.90841 -21,1.5506 -9.35,0.64218 -17.9,1.27853 -19,1.4141 -1.1,0.13556 -2.7875,0.30391 -3.75,0.37411 -0.9625,0.0702 -1.75,0.509 -1.75,0.97512 0,0.46613 2.8501,4.62863 6.3335,9.25 3.4835,4.62138 7.5593,10.34707 9.0576,12.72378 1.4982,2.3767 5.0606,6.90876 7.9164,10.07124 11.8378,13.1088 20.3511,23.45687 22.8642,27.79179 4.5963,7.92853 7.139,17.56663 11.7911,44.69522 3.6724,21.41477 2.2557,32.48623 -5.6958,44.51529 -1.9614,2.96715 -5.1097,8.36715 -6.9962,12 -3.7926,7.30353 -6.3859,10.47772 -10.2194,12.50835 -1.4033,0.74334 -6.1874,3.3484 -10.6313,5.78901 -4.444,2.44061 -10.6392,5.47618 -13.7671,6.74571 -3.1279,1.26952 -5.9018,2.6556 -6.1642,3.08017 -0.4993,0.808 -25.0706,12.98194 -26.2021,12.98194 -1.9008,0 -21.4883,8.70832 -25.7837,11.46309 -5.699,3.65492 -13.2506,12.08778 -18.7787,20.97021 -3.7851,6.08172 -8.4964,19.12795 -7.3291,20.29523 0.3422,0.34225 20.0808,-0.82705 43.8635,-2.59844 23.7827,-1.7714 46.6163,-3.43639 50.7413,-3.69997 26.9941,-1.72494 66.351,-4.53765 70.877,-5.06537 4.3207,-0.50377 5.2871,-0.35561 4.9193,0.75416 -0.3294,0.9939 -3.3788,1.576 -10.877,2.07635 -5.7306,0.38239 -15.8193,1.16752 -22.4193,1.74474 -6.6,0.57722 -26.175,2.18448 -43.5,3.57169 -17.325,1.38721 -39.375,3.18101 -49,3.98623 -9.625,0.80521 -23.575,1.96745 -31,2.58275 -7.8201,0.64803 -13.8336,1.6027 -14.2928,2.26903 -1.334,1.93553 0.2972,12.70048 2.8937,19.0972 1.3514,3.3292 4.876,10.1031 7.8325,15.0531 9.447,15.81693 32.7828,36.6319 56.051,49.9962 8.0249,4.6092 14.7444,12.1962 17.7898,20.0866 5.3559,13.8766 6.3181,35.0233 2.0439,44.9172 -2.9649,6.8631 -8.8177,14.7436 -15.968,21.5 -20.38,19.2572 -24.27,21.8621 -37.3241,24.9938 -8.7364,2.0958 -30.2448,0.1136 -26.16,-2.411 0.6175,-0.3816 4.7584,-0.1623 9.2021,0.4875 4.4436,0.6497 10.1374,0.8992 12.6529,0.5545 10.3716,-1.4216 24.0723,-10.5215 40.8864,-27.1565 8.707,-8.6142 13.6822,-18.1854 15.3179,-29.4683 0.9784,-6.7486 0.8396,-8.5852 -1.3851,-18.332 -4.3835,-19.204 -8.0141,-24.2205 -26.0402,-35.9798 -17.1019,-11.1564 -20.3723,-13.7937 -34.3845,-27.72825 -13.2587,-13.18524 -13.7792,-13.86654 -19.8641,-26 -6.456,-12.87379 -8.185,-18.30865 -8.227,-25.86101 l -0.024,-4.40106 -9.75,0.62497 c -8.9153,0.57147 -21.2123,1.52593 -79.75,6.19005 -11,0.87644 -22.9022,1.90709 -26.4494,2.29032 l -6.4494,0.69678 -1.5506,7 c -1.7575,7.93424 -2.5304,9.5 -4.6891,9.5 -1.1196,0 -1.3816,-0.72492 -0.9939,-2.75 0.2896,-1.5125 0.8176,-5.1125 1.1733,-8 0.6345,-5.15021 0.5975,-5.25 -1.9471,-5.25 -2.4123,0 -2.6015,0.33234 -2.7034,4.75 l -0.1095,4.75 -0.8619,-4.3881 c -0.474,-2.41345 -0.9872,-4.49704 -1.1404,-4.63021 -0.1532,-0.13316 -5.2286,0.12872 -11.2786,0.58197 -6.05,0.45324 -14.825,1.08837 -19.5,1.41139 -4.675,0.32303 -9.9625,0.84837 -11.75,1.16743 -3.774,0.67363 -3.7546,0.52316 -2.2345,17.35752 0.5214,5.775 1.1963,14.325 1.4998,19 0.3035,4.675 0.9849,13.9 1.5143,20.5 0.5294,6.6 1.6363,20.775 2.4598,31.5 0.8234,10.725 1.9444,24 2.491,29.5 1.0799,10.8659 3.4223,36.9314 5.0326,56 0.5573,6.6 1.4491,16.725 1.9818,22.5 0.5326,5.775 1.2451,14.041 1.5833,18.3688 0.5206,6.6625 0.9128,7.9468 2.5583,8.3771 1.8302,0.4786 1.8453,0.6169 0.2589,2.3698 -1.706,1.8851 -1.6347,8.3512 0.2551,23.1343 l 0.6073,4.75 6.6211,-0.014 c 8.3463,-0.017 10.8078,-0.6799 11.4351,-3.0788 0.5766,-2.2049 3.9142,-2.5425 5.5577,-0.5622 0.6141,0.7399 1.3991,2.758 1.7444,4.4846 0.8373,4.1866 -1.6829,5.2361 -5.6071,2.3348 -2.4788,-1.8326 -3.7294,-2.0261 -9.6778,-1.4972 -10.1101,0.899 -10.3076,1.0839 -9.7118,9.0864 2.4318,32.6613 4.3221,54.5208 4.7518,54.9505 0.2838,0.2838 3.5789,0.5143 7.3225,0.5121 7.0411,0 6.4681,0.4355 -3.1936,2.4496 l -4,0.8339 0.3321,8.5 c 0.1827,4.675 0.9605,15.25 1.7285,23.5 2.0394,21.9072 4.1898,48.0568 5.9618,72.5 0.8573,11.825 1.7614,23.3 2.009,25.5 0.2477,2.2 1.3688,15.25 2.4915,29 1.1226,13.75 2.2603,27.475 2.5281,30.5 0.2679,3.025 0.9066,10.9 1.4194,17.5 0.5127,6.6 1.847,23.25 2.9649,37 1.118,13.75 2.7033,34 3.5229,45 3.1122,41.7684 5.6374,72.0635 6.1474,73.75 0.3856,1.2752 1.5823,1.75 4.4109,1.75 4.6286,0 7.1686,-2.8023 11.788,-13.0053 1.6173,-3.5721 4.067,-8.9697 5.4438,-11.9947 1.3769,-3.025 3.078,-7.3 3.7803,-9.5 0.7023,-2.2 2.8325,-7.6 4.7338,-12 5.0119,-11.5984 8.8999,-23.4047 9.7471,-29.5982 0.4065,-2.971 1.1384,-6.4576 1.6266,-7.748 2.7466,-7.2605 7.1019,-32.969 7.9035,-46.6538 1.0506,-17.9336 2.3634,-30.4975 4.5375,-43.425 2.0247,-12.0392 6.5839,-22.0505 17.7451,-38.9655 4.5762,-6.9352 10.0882,-15.9659 12.249,-20.0681 4.4261,-8.4027 16.0718,-21.4122 23.9288,-26.731 10.4779,-7.093 16.1713,-11.5659 21.1312,-16.6012 2.8222,-2.8651 7.4812,-7.4592 10.3533,-10.2092 6.197,-5.9335 8.7517,-11.0938 10.5876,-21.3861 2.6796,-15.0222 1.4041,-29.3481 -4.0101,-45.0391 -2.8983,-8.3997 -3.1811,-11.0748 -1.1708,-11.0748 1.5907,0 8.0593,17.4096 9.6182,25.8865 2.3762,12.921 0.5077,33.273 -3.8336,41.7575 -3.2206,6.2941 -22.6005,25.0152 -34.5345,33.3605 -12.0149,8.4018 -22.2505,18.4892 -26.8847,26.4955 -6.4377,11.122 -14.6914,24.5084 -18.9884,30.7964 -10.7393,15.7154 -14.3409,31.6571 -16.7642,74.2036 -0.7901,13.8726 -3.6164,31.1281 -7.4104,45.2441 -0.7752,2.8842 -1.2012,6.0404 -0.9467,7.0137 1.0383,3.9704 -22.016,65.1644 -28.2394,74.957 -0.7741,1.2182 -1.4075,2.4557 -1.4075,2.75 0,0.9217 11.8392,0.5317 29.5,-0.9716 14.2063,-1.2093 105.7432,-7.824 139.75,-10.0987 6.6519,-0.4449 9.75,-0.3129 9.75,0.4154 0,1.3428 -3.246,1.727 -31,3.669 -12.375,0.8659 -30.825,2.2339 -41,3.0401 -35.9192,2.846 -56.6653,4.4516 -71.5,5.5338 -8.25,0.6018 -16.35,1.2437 -18,1.4265 -1.65,0.1827 -7.0353,0.661 -11.9673,1.0628 l -8.9673,0.7307 -5.0327,4.8104 -5.0327,4.8105 0.2521,9.3031 c 0.1387,5.1168 1.1268,19.4282 2.1958,31.8032 1.0689,12.375 2.4382,29.475 3.0427,38 0.6045,8.525 1.5289,20.1907 2.0542,25.9237 1.4657,15.9951 1.2649,25.7435 -0.5448,26.4379 -0.825,0.3166 -1.558,0.027 -1.6289,-0.643 -0.071,-0.6702 -0.2836,-2.5686 -0.4725,-4.2186 -0.189,-1.65 -0.3183,-4.35 -0.2874,-6 0.031,-1.65 0.099,-5.025 0.1517,-7.5 0.113,-5.3274 -0.7843,-17.4581 -2.3672,-32 -0.6286,-5.775 -1.1998,-12.4125 -1.2693,-14.75 -0.07,-2.3375 -0.5539,-4.25 -1.0764,-4.25 -0.5225,0 -0.4545,-0.4955 0.1512,-1.1012 0.7254,-0.7254 0.802,-2.1441 0.2246,-4.1574 -0.482,-1.6809 -1.3542,-8.7229 -1.938,-15.6488 -0.5839,-6.9259 -1.2466,-13.2676 -1.4727,-14.0926 -0.2261,-0.825 -0.7063,-4.2 -1.0671,-7.5 -0.6028,-5.5132 -0.9903,-8.6903 -1.3204,-10.8256 -0.2269,-1.4683 -14.2453,11.6483 -18.8887,17.6737 -2.4949,3.2374 -7.0138,7.4457 -10.1228,9.4268 -3.0889,1.9683 -9.1134,6.744 -13.3878,10.6125 -4.2744,3.8686 -11.378,9.5265 -15.7858,12.5732 -4.4077,3.0467 -11.9156,8.2394 -16.6841,11.5394 -4.7685,3.3 -11.6149,8.716 -15.2142,12.0355 -5.2479,4.8401 -10.3076,7.9419 -25.5442,15.6599 -30.2604,15.3281 -46.4721,22.2123 -60.5,25.6909 -12.2322,3.0333 -16.1321,3.64 -42.3731,6.5918 -13.6999,1.541 -19.0561,2.8395 -21.8769,5.3033 -1.1314,0.9882 -1.75,1.1151 -1.75,0.3589 0,-3.5726 10.8434,-6.4622 42,-11.1924 29.4135,-4.4655 39.6073,-8.0504 80.1148,-28.1744 18.7112,-9.2957 24.3807,-12.5795 27.3029,-15.8141 3.4253,-3.7914 11.4589,-9.8872 31.8898,-24.1977 4.5059,-3.1561 11.5919,-8.8428 15.7467,-12.6372 4.1548,-3.7943 10.1173,-8.5384 13.25,-10.5424 3.1327,-2.004 5.6958,-4.0114 5.6958,-4.4609 0,-0.4496 5.5672,-6.6898 12.3715,-13.8671 12.4661,-13.1495 14.257,-16.1348 12.8673,-21.449 -0.6206,-2.3732 0.025,-2.3972 -48.7388,1.8091 -4.4,0.3795 -8.3306,1.1841 -8.7347,1.7879 -0.5146,0.769 -0.7393,0.7375 -0.75,-0.105 -0.011,-0.8328 -1.4767,-1.059 -4.7653,-0.7352 -2.6125,0.2572 -17.125,1.3722 -32.25,2.4777 -15.125,1.1056 -34.925,2.6553 -44,3.4438 -9.075,0.7885 -23.25,1.9152 -31.5,2.5038 -27.3067,1.9481 -27.048,1.9078 -29.3708,4.5793 -2.5992,2.9893 -4.4548,3.0738 -7.0207,0.3196 l -1.9693,-2.1139 -20.3196,1.6301 c -11.1758,0.8965 -22.3446,1.8218 -24.8196,2.0561 -2.475,0.2344 -8.325,0.7073 -13,1.051 -4.675,0.3437 -10.75,0.8108 -13.5,1.038 -2.75,0.2273 -11.75,0.8784 -20,1.447 -8.25,0.5686 -17.25,1.2409 -20,1.494 -6.974,0.6419 -28.6044,2.3594 -37,2.938 -7.4093,0.5105 -19.6862,1.4263 -28,2.0886 -2.75,0.219 -11.75,0.8777 -20,1.4636 -15.8375,1.1248 -31.5091,2.3439 -50.5,3.9283 -6.325,0.5277 -15.775,1.2327 -21,1.5666 -5.225,0.334 -14.86152,1.0693 -21.41449,1.634 -6.55298,0.5647 -12.96548,0.763 -14.25,0.4406 -1.43936,-0.3613 -2.33551,-0.1423 -2.33551,0.5708 0,0.8347 -2.11336,0.9655 -7.58771,0.4694 -4.25982,-0.386 -8.09748,-0.2855 -8.75,0.2291 -0.63926,0.5042 -9.03729,1.4541 -18.66229,2.111 -9.625,0.6568 -19.075,1.3685 -21,1.5816 -1.925,0.213 -8.225,0.6828 -14,1.044 -10.68322,0.668 -12.88845,0.8408 -23.5,1.8407 -5.69457,0.5366 -9.25553,0.8055 -28,2.1148 -4.4,0.3073 -13.175,0.9791 -19.5,1.4928 -16.29993,1.324 -36.22349,2.8537 -45,3.4549 -4.125,0.2827 -13.125,0.9595 -20,1.5041 -6.875,0.5446 -15.875,1.2289 -20,1.5208 -4.125,0.2918 -10.2,0.7434 -13.5,1.0036 -3.3,0.2602 -11.4,0.7536 -18,1.0965 -6.6,0.343 -12.23514,0.7655 -12.52254,0.9391 -0.2874,0.1736 -5.4624,0.6346 -11.5,1.0245 -6.0376,0.3899 -12.55246,0.8375 -14.47746,0.9947 -1.925,0.1572 -10.25,0.7858 -18.5,1.397 -8.25,0.6112 -15.675,1.3031 -16.5,1.5376 -0.825,0.2346 -7.125,0.678 -14,0.9855 -6.875,0.3075 -17.675,1.0505 -24,1.651 -6.325,0.6005 -14.2,1.2205 -17.5,1.3777 -8.33248,0.397 -35.15397,2.4519 -40,3.0646 -5.27485,0.6669 -12.40588,1.3056 -21,1.8809 -8.18983,0.5483 -43.29588,3.2791 -52,4.045 -9.82478,0.8645 -28.40653,2.3895 -37.5,3.0776 -4.675,0.3538 -10.3,0.7966 -12.5,0.984 -2.2,0.1875 -13.675,1.0966 -25.5,2.0202 -11.825,0.9237 -21.65938,1.8221 -21.85417,1.9964 -0.79877,0.7149 -0.0438,13.1319 3.36408,55.327 1.9716,24.4118 3.39063,45.1118 3.15341,46 -0.25292,0.947 -0.48662,0.581 -0.56502,-0.885 z M 232.277,1026.3922 c 0.71019,-0.7102 -1.39818,-4.3922 -2.51503,-4.3922 -0.4177,0 -0.75945,0.825 -0.75945,1.8333 0,2.6796 1.77035,4.063 3.27448,2.5589 z m 8.31801,-12.0623 c 1.76536,-6.0727 1.23668,-8.932 -1.83157,-9.9058 -1.57461,-0.4997 -2.61065,-0.053 -3.93799,1.6989 -0.99067,1.3073 -2.57008,3.1742 -3.5098,4.1486 -1.61445,1.674 -1.55747,2.0797 1.03427,7.3642 2.68138,5.4672 2.78717,5.5524 4.72095,3.8023 1.08797,-0.9846 2.67383,-4.1833 3.52414,-7.1082 z m -8.62845,-16.12956 c 0.0589,-7.03958 -4.33672,-13.14577 -8.35353,-11.60437 -3.53759,1.3575 -3.13487,7.16625 1.1276,16.26413 l 2.51126,5.36 2.33935,-2.86 c 1.62545,-1.9873 2.35033,-4.1722 2.37532,-7.15976 z m 22.83576,1.72194 c 0.39101,-3.36197 -2.71414,-7.27612 -5.05856,-6.37648 -1.22393,0.46967 -1.74124,1.77525 -1.74124,4.39452 0,4.47068 0.63116,5.24408 3.96258,4.85558 1.88594,-0.2199 2.61439,-0.9577 2.83722,-2.87362 z M 871.24934,967.6272 c 0.0662,-4.38064 -2.18899,-9.0073 -4.89705,-10.04648 -4.14111,-1.58909 -3.95069,3.10809 0.49341,12.17112 2.91669,5.94812 4.29163,5.28475 4.40364,-2.12464 z m 263.52036,-5.13604 c 8.7856,-0.75125 16.3061,-1.34489 25.2328,-1.99175 7.8343,-0.5677 48.1922,-3.87063 61,-4.9923 3.025,-0.26492 11.8,-0.95341 19.5,-1.52998 7.7,-0.57656 19.175,-1.45403 25.5,-1.94993 6.325,-0.49589 16.45,-1.16617 22.5,-1.48951 6.05,-0.32333 12.8,-0.81149 15,-1.08478 5.234,-0.6502 24.9083,-2.1638 50.9014,-3.91599 14.0091,-0.94435 21.1499,-1.81087 21.6547,-2.62777 0.4143,-0.67034 0.573,-2.83663 0.3525,-4.81398 -0.2204,-1.97734 -0.6214,-6.52017 -0.8911,-10.09517 -0.6969,-9.23704 -1.3232,-13.87663 -2.027,-15.0154 -0.7899,-1.27811 -9.7823,-0.26964 -19.4905,2.18579 -4.125,1.04331 -9.975,2.14938 -13,2.45795 -3.025,0.30856 -8.425,1.19452 -12,1.96879 -3.575,0.77428 -11.9,2.57985 -18.5,4.01238 -6.6,1.43253 -14.025,3.0047 -16.5,3.4937 -5.1482,1.01717 -19.9046,2.45667 -34.5,3.36553 -5.5,0.34248 -12.925,1.04003 -16.5,1.55011 -16.7558,2.39068 -30.4633,4.06997 -41,5.02286 -16.0299,1.44967 -22.0032,2.49071 -33.5,5.83844 -18.5121,5.39052 -31.9571,8.89543 -39,10.16676 -3.85,0.69497 -10.375,2.82575 -14.5,4.73506 -4.125,1.90931 -9.075,4.09653 -11,4.86048 -3.151,1.2505 -2.054,1.33467 11,0.84407 7.975,-0.29973 16.8702,-0.74763 19.7672,-0.99536 z m 275.2328,-21.15299 c 5.225,-0.31538 13.1,-0.85798 17.5,-1.20579 l 8,-0.63238 5.5,-10.3173 c 5.2819,-9.90817 11.3862,-18.12979 12.5769,-16.93915 0.3121,0.31214 -1.2847,3.28097 -3.5485,6.59741 -4.1078,6.01805 -8.8162,17.7046 -7.6163,18.90449 0.603,0.60299 24.4044,-0.72836 48.0879,-2.68984 6.05,-0.50106 18.2,-1.41785 27,-2.03731 16.0936,-1.13287 18.2942,-1.29372 35.2636,-2.57755 8.9463,-0.67684 9.2833,-0.79057 9.8387,-3.3208 4.0882,-18.62246 15.7543,-35.52287 30.7026,-44.47822 3.1928,-1.91272 10.1678,-5.15631 15.5,-7.208 10.6521,-4.09855 62.7176,-29.24548 67.2848,-32.49762 1.5733,-1.12024 4.9676,-5.90245 7.543,-10.62713 2.5755,-4.72468 6.1361,-11.00408 7.9126,-13.95422 3.9639,-6.58273 5.9558,-16.26741 5.0812,-24.70444 -1.0077,-9.71955 -6.5486,-39.45492 -8.7861,-47.15032 -1.1195,-3.85 -2.993,-8.56744 -4.1636,-10.48319 -2.4613,-4.02836 -14.6762,-18.98673 -22.0894,-27.05073 -2.7981,-3.04365 -9.0243,-11.14365 -13.836,-18 -13.3672,-19.04707 -11.3035,-17.27528 -19.8608,-17.05117 -12.1826,0.31907 -26.4128,1.32869 -37.3906,2.65284 -3.1008,0.37402 -14.5965,1.35465 -23.1268,1.9728 -2.6803,0.19423 -10.0482,0.81777 -16.3732,1.38565 -6.325,0.56788 -17.35,1.51026 -24.5,2.09418 -7.15,0.58392 -15.475,1.26944 -18.5,1.52338 -13.4757,1.13124 -30.2955,2.38679 -39.5,2.94855 -5.5,0.33567 -13.15,1.01178 -17,1.50247 -3.85,0.49068 -12.625,1.16808 -19.5,1.50532 -14.4903,0.71082 -24.35,1.36293 -28.25,1.86843 -1.7192,0.22284 -2.75,-0.11055 -2.75,-0.88947 0,-1.44737 4.3347,-2.50828 6.0123,-1.47149 0.6278,0.38803 2.7944,0.13808 4.8146,-0.55545 2.0202,-0.69353 6.3731,-1.25864 9.6731,-1.25579 3.3,0.003 6.675,-0.22834 7.5,-0.51375 0.825,-0.28541 4.875,-0.76447 9,-1.06456 4.125,-0.3001 20.55,-1.7003 36.5,-3.11154 15.95,-1.41125 35.075,-2.96971 42.5,-3.46325 13.1006,-0.87079 21.4073,-1.54786 56,-4.56449 9.075,-0.79138 19.65,-1.68078 23.5,-1.97645 15.2602,-1.17193 19.2816,-1.5796 26.3276,-2.66888 l 7.3275,-1.13283 -2.6084,-2.60029 c -2.1763,-2.16952 -2.76,-2.3566 -3.5232,-1.12925 -0.5031,0.80907 -1.0889,1.25907 -1.3017,1 -0.2128,-0.25907 -3.0093,-4.52104 -6.2146,-9.47104 -3.2052,-4.95 -8.8348,-13.05 -12.5102,-18 -3.6754,-4.95 -9.5152,-13.275 -12.9773,-18.5 -3.4622,-5.225 -8.8312,-12.65 -11.9311,-16.5 -8.0602,-10.01033 -10.1875,-13.00877 -15.6084,-22 -7.2478,-12.02127 -19.6135,-28.01325 -37.949,-49.07761 -3.8672,-4.44268 -11.9781,-14.11768 -18.0243,-21.5 -6.0463,-7.38231 -15.0997,-18.211 -20.1188,-24.06375 -5.0192,-5.85275 -13.7752,-16.87775 -19.458,-24.5 C 1462.2499,454.73639 1454.8327,445.125 1451.45,441 c -3.3826,-4.125 -7.4547,-9.4769 -9.0489,-11.89311 -1.5942,-2.41621 -4.1289,-6.24121 -5.6326,-8.5 -4.2303,-6.35472 -8.7563,-19.05194 -10.9099,-30.60689 -1.6718,-8.96945 -1.9214,-14.21705 -1.7122,-36 0.3966,-41.29403 -0.087,-57.04104 -1.7727,-57.68782 -2.3196,-0.89009 -78.774,4.72889 -88.8712,6.53154 l -4,0.71412 0.3104,8.97108 c 0.1707,4.93409 0.9804,16.321 1.7994,25.30425 1.5742,17.26831 3.3047,23.28469 8.5329,29.66683 1.3517,1.65 3.9026,5.29741 5.6689,8.10535 1.7662,2.80795 4.1645,5.95795 5.3295,7 1.1651,1.04206 3.1248,3.46965 4.3549,5.39465 3.7242,5.82795 16.8809,20.67104 23.6415,26.67175 7.4491,6.61191 9.321,8.55775 13.353,13.88044 1.6448,2.17129 7.546,8.67281 13.1138,14.44781 5.5679,5.775 12.6025,13.425 15.6325,17 3.0301,3.575 7.0289,7.95028 8.8862,9.72284 14.3148,13.66133 26.7907,30.79572 32.5778,44.74233 1.8337,4.41916 4.2262,9.6711 5.3166,11.67098 2.2189,4.06946 2.5067,6.42191 0.9068,7.41071 -0.5951,0.36779 -5.5024,-3.83655 -10.9821,-9.409 -5.4485,-5.54064 -11.6019,-10.91906 -13.6742,-11.95205 -7.6031,-3.78986 -19.95,-10.60877 -26.7679,-14.78333 -9.1452,-5.5995 -52.7384,-26.79176 -59.0765,-28.71923 -2.7079,-0.8235 -7.0938,-2.47468 -9.7464,-3.66929 -6.1601,-2.77427 -7.5934,-2.24067 -7.1734,2.67061 0.1794,2.09849 0.5958,7.41543 0.9253,11.81543 0.3294,4.4 1.9332,24.2 3.564,44 1.6308,19.8 3.2224,39.6 3.5369,44 0.3144,4.4 1.2281,15.875 2.0304,25.5 0.8023,9.625 1.649,20.65 1.8815,24.5 0.4335,7.1786 2.223,29.46193 3.0115,37.5 0.2428,2.475 0.9867,11.40085 1.6531,19.83521 1.3926,17.62572 1.3882,17.61931 11.3926,16.64774 3.5347,-0.34328 5.6067,-0.121 6.0849,0.65278 0.4327,0.70018 0.294,0.90686 -0.344,0.51255 -0.588,-0.36341 -1.22,-0.21235 -1.4045,0.33568 -0.1845,0.54804 -3.1882,1.29416 -6.675,1.65806 -4.11,0.42894 -6.5337,1.16728 -6.8914,2.09936 -0.4773,1.24382 2.7494,42.02559 5.7567,72.75862 0.5382,5.5 1.4275,16.075 1.9762,23.5 0.5488,7.425 1.4501,19.125 2.0029,26 0.5528,6.875 1.9039,24.2 3.0025,38.5 1.0986,14.3 2.4313,30.725 2.9614,36.5 0.5302,5.775 0.9791,11.12661 0.9976,11.89246 0.04,1.66703 8.7198,1.01602 17.8616,-1.33972 3.1197,-0.8039 12.6471,-1.72052 21.1721,-2.03692 8.525,-0.31641 18.4727,-0.69268 22.1059,-0.83614 4.166,-0.1645 7.5695,-0.89222 9.2148,-1.97026 3.3904,-2.22143 3.9889,-2.15651 2.6793,0.29058 -0.9712,1.81467 -0.7605,2 2.2737,2 1.8392,0 4.2175,-0.66069 5.2852,-1.4682 2.8438,-2.15096 4.3218,-1.85524 5.0406,1.00849 0.4338,1.72848 0.071,3.16657 -1.136,4.5 -2.2719,2.51051 -5.4635,2.57662 -5.4635,0.11318 0,-1.72067 -0.869,-1.81805 -12.75,-1.42863 -7.0125,0.22985 -14.0547,0.83579 -15.6492,1.34653 -1.5946,0.51075 -8.7626,0.92863 -15.929,0.92863 -7.1664,0 -14.4118,0.44245 -16.1008,0.98323 -1.6891,0.54077 -6.3075,1.47704 -10.2632,2.0806 -5.3096,0.81013 -7.2751,1.528 -7.509,2.74253 -0.3462,1.79772 0.5064,13.9871 1.6848,24.08644 l 0.7459,6.3928 10.1353,-0.68701 c 5.5743,-0.37786 14.4102,-0.94505 19.6352,-1.26042 z m 66.7906,-50.3937 c -2.9128,-2.91279 -3.0317,-3.35229 -2.5456,-9.40823 0.39,-4.85845 0.1532,-6.70943 -1.0066,-7.86928 -1.3554,-1.35542 -1.232,-2.00211 1.1614,-6.08619 3.2778,-5.59315 10.6002,-9.94506 10.6002,-6.30001 0,0.70442 -1.3022,1.77229 -2.8938,2.37304 -3.2835,1.23939 -6.5908,5.64085 -5.7957,7.71301 0.2917,0.76024 2.6477,1.69976 5.2355,2.08782 5.3456,0.80162 9.4661,4.1873 9.432,7.74992 -0.033,3.44796 -3.5348,10.48791 -5.8272,11.71477 -3.228,1.72757 -5.0999,1.28538 -8.3602,-1.97485 z m 8.4698,-1.69447 c 2.266,-2.52515 3.1364,-8.38769 1.5454,-10.40904 -0.7182,-0.91247 -3.1913,-1.95997 -5.4959,-2.32777 -4.1353,-0.65999 -4.1983,-0.62507 -4.8163,2.66944 -0.6935,3.69645 0.4669,7.63506 2.9941,10.16219 2.1229,2.12296 3.8074,2.09529 5.7727,-0.0948 z m 29.2202,-6.28146 c -1.3567,-2.19508 -2.4588,-20.33575 -1.4607,-24.04235 1.6772,-6.22873 6.7301,-6.77217 10.4668,-1.12571 2.8263,4.27087 8.4633,19.50204 8.4936,22.94952 0.041,4.64869 -2.6553,2.03665 -4.8131,-4.66307 l -2.2265,-6.91306 -4.0607,1.66306 -4.0607,1.66307 0.575,5.75 c 0.458,4.58007 0.285,5.75 -0.8506,5.75 -0.7841,0 -1.7125,-0.46416 -2.0631,-1.03146 z m 7.4562,-16.39234 c 0.9277,-1.11782 0.7308,-2.30736 -0.9159,-5.53532 -1.1537,-2.26133 -2.5303,-3.84407 -3.0592,-3.51718 -0.529,0.32688 -0.9617,2.81778 -0.9617,5.53532 0,4.1669 0.2941,4.94098 1.8776,4.94098 1.0326,0 2.4093,-0.64071 3.0592,-1.4238 z m -27.5059,13.31198 c -0.4138,-0.66957 -0.9673,-4.56581 -1.2299,-8.65831 -0.3634,-5.66159 -0.1456,-7.65115 0.9107,-8.32008 2.104,-1.33238 2.1877,-1.2764 6.2714,4.19362 5.2049,6.9717 6.1272,5.73444 6.0783,-8.1536 -0.029,-8.3943 0.268,-10.94981 1.2748,-10.94981 2.287,0 3.4629,5.23518 3.0323,13.5 -0.6827,13.10409 -4.4425,17.55331 -10.0741,11.92163 l -2.5784,-2.57837 -0.308,4.7502 c -0.3026,4.66737 -1.8951,6.6926 -3.3771,4.29472 z m -16.9783,-68.48291 c -0.576,-0.24026 -0.8561,-2.07492 -0.6223,-4.07701 0.3657,-3.13303 0.1827,-3.54721 -1.314,-2.97288 -1.2825,0.49213 -1.5867,0.27057 -1.159,-0.84404 0.319,-0.83124 0.1441,-1.51134 -0.3887,-1.51134 -0.5327,0 -0.9617,-0.7875 -0.9533,-1.75 0.012,-1.34088 0.2131,-1.43801 0.8613,-0.41547 0.6457,1.01875 0.9719,0.85263 1.3785,-0.70205 0.2929,-1.12012 0.018,-2.24193 -0.6113,-2.49291 -0.6291,-0.25098 0.6222,-0.20094 2.7806,0.1112 4.155,0.60086 7.5756,2.84565 7.5756,4.97147 0,0.70277 0.45,1.27776 1,1.27776 0.55,0 1,1.35 1,3 0,2.06061 -0.4921,3 -1.5714,3 -0.8643,0 -2.2465,0.675 -3.0715,1.5 -1.4877,1.48773 -2.8882,1.74623 -4.9045,0.90527 z m -17.638,-3.40263 c -0.2713,-0.76329 -4.1316,-1.94793 -7.3146,-2.24469 -1.4613,-0.13624 -1.6646,-5.75077 -0.2097,-5.79339 0.6653,-0.0195 0.1364,-0.63035 -1.1754,-1.35748 -1.3118,-0.72713 -1.9481,-1.59213 -1.414,-1.92223 0.5341,-0.33009 0.8955,-1.62692 0.803,-2.88184 -0.2357,-3.19939 2.0892,-5.13867 6.4909,-5.41438 3.5204,-0.2205 3.8601,0.0144 5.2914,3.65812 1.8075,4.60135 1.2349,15.53931 -0.8554,16.34145 -0.7159,0.27469 -1.4432,0.10119 -1.6162,-0.38556 z m 160.4146,-12.19014 c 0.2177,-0.65313 0.9305,-1.36573 1.584,-1.58356 0.7307,-0.24358 0.9542,0.21359 0.5805,1.1875 -0.6975,1.81771 -2.7645,2.19592 -2.1645,0.39606 z m 5.8824,-3.50623 c -0.5779,-0.99345 -1.0645,-1.24377 -1.0812,-0.55627 -0.036,1.47207 -3.0304,1.71911 -3.0304,0.25 0,-0.55 -0.4766,-1 -1.059,-1 -0.5825,0 -0.7379,0.51953 -0.3455,1.15451 0.4563,0.73827 0.2727,0.88207 -0.5092,0.39885 -0.6724,-0.41561 -0.9937,-1.35224 -0.7139,-2.0814 0.2798,-0.72915 -0.1791,-1.89657 -1.0198,-2.59425 -1.3464,-1.11745 -1.2814,-1.35989 0.5455,-2.03571 1.8402,-0.68073 2.0005,-1.30675 1.4225,-5.5546 -0.5747,-4.22467 -0.4711,-4.63902 0.8814,-3.52507 1.2493,1.02895 1.7686,0.97806 2.8087,-0.27523 1.1467,-1.38163 1.4537,-1.37675 3.0282,0.0481 0.9637,0.87211 2.0657,3.67674 2.449,6.23251 0.3832,2.55578 1.4428,5.26532 2.3545,6.02121 1.5396,1.27647 1.5374,1.33686 -0.03,0.848 -1.1691,-0.36462 -1.7836,0.12393 -2,1.59004 -0.4101,2.77925 -2.3779,3.35316 -3.7007,1.0793 z m 7.4739,-16.9441 c -0.7899,-2.05836 0.9917,-4.19284 2.3472,-2.81217 0.5784,0.58916 0.4334,1.62586 -0.3818,2.72939 -1.2228,1.65547 -1.3597,1.66123 -1.9654,0.0828 z M 1377.5025,692 c -0.3399,-0.55 -0.1415,-1 0.441,-1 0.5824,0 1.059,0.45 1.059,1 0,0.55 -0.1984,1 -0.441,1 -0.2425,0 -0.7191,-0.45 -1.059,-1 z M 758.00321,886.94301 c -2.10967,-32.18784 -2.79534,-47.79094 -2.39248,-54.44301 0.99436,-16.4189 4.65421,-66.1831 6.02221,-81.88612 l 0.5999,-6.88611 -11.36516,0.71588 c -13.96884,0.87989 -24.81127,2.16928 -25.69869,3.05609 -1.21161,1.2108 -1.42174,42.19858 -0.25251,49.25266 0.61514,3.71118 2.92175,14.1726 5.12579,23.2476 2.20404,9.075 4.97383,20.55 6.15507,25.5 3.52861,14.78658 20.65983,57.97868 22.33255,56.30596 0.23097,-0.23097 -0.006,-6.9193 -0.52668,-14.86295 z m -9.07802,-145.98227 c 7.38247,-0.58088 13.73073,-1.24653 14.10725,-1.47923 1.3716,-0.8477 1.82261,-10.44458 0.93283,-19.84934 -1.0555,-11.15642 -4.19814,-20.01284 -8.13609,-22.92872 -2.40162,-1.77828 -3.16394,-1.85927 -7.5,-0.79679 -6.37618,1.56239 -12.55085,8.22307 -18.43225,19.88308 -3.95864,7.84809 -4.42897,9.53919 -4.75169,17.08467 -0.41026,9.59221 0.12011,10.3958 6.35728,9.63219 2.2,-0.26934 10.0402,-0.96498 17.42267,-1.54586 z M 1457.9238,514.25 c -1.2599,-3.55499 -7.0532,-13.08644 -13.6082,-22.38899 -2.8527,-4.04855 -11.8527,-14.42431 -20,-23.05724 -8.1472,-8.63292 -19.3131,-20.49958 -24.8131,-26.37035 -5.5,-5.87077 -16.525,-17.27307 -24.5,-25.33845 -7.975,-8.06538 -16.525,-17.54295 -19,-21.06127 -2.475,-3.51831 -6.1187,-8.22771 -8.0972,-10.46532 -1.9785,-2.23761 -5.1665,-6.54338 -7.0845,-9.56838 -1.918,-3.025 -4.3081,-6.175 -5.3113,-7 -1.7457,-1.43547 -1.7958,-1.17735 -1.1659,6 0.3621,4.125 1.3498,17.175 2.195,29 3.0208,42.26482 4.0471,51.22203 6.0354,52.67597 0.9959,0.72822 2.4147,1.32403 3.1529,1.32403 0.7381,0 3.4646,1.06062 6.0588,2.35694 2.5943,1.29632 5.9582,2.65588 7.4755,3.02125 2.5024,0.60256 15.6055,6.72513 44.7413,20.90584 5.775,2.81076 12.975,6.78306 16,8.82734 3.025,2.04428 8.65,5.37453 12.5,7.40056 13.3733,7.03758 18.0209,9.84912 21.7529,13.15935 2.0641,1.83079 3.9532,3.32872 4.198,3.32872 0.2448,0 0.01,-1.2375 -0.5296,-2.75 z m -121.4337,-73.90766 c -0.3104,-6.96171 -0.7293,-12.9244 -0.9308,-13.25042 -0.2015,-0.32602 -0.6481,-3.96757 -0.9926,-8.09234 -0.3444,-4.12477 -1.0594,-12.44958 -1.5888,-18.49958 -0.5295,-6.05 -1.4508,-17.3 -2.0474,-25 -0.5966,-7.7 -1.5367,-15.8 -2.0891,-18 -4.3673,-17.39293 -4.8314,-20.56703 -4.9615,-33.93279 l -0.1357,-13.93279 -2.1144,2.93279 c -3.4633,4.80378 -7.7901,8.41336 -13.7154,11.44193 -5.9945,3.06393 -13.5829,10.67103 -19.8483,19.89714 -5.0019,7.36565 -11.7919,13.52417 -16.6477,15.09955 -9.3558,3.03529 -17.7253,8.24619 -25.9928,16.18328 -4.6327,4.44759 -8.4231,8.84032 -8.4231,9.76162 0,2.17528 3.6577,5.48558 13.3831,12.11196 4.3357,2.95413 9.9607,7.2111 12.5,9.45994 2.5393,2.24884 6.1919,5.15915 8.1169,6.46737 1.925,1.30821 5.075,3.68097 7,5.27278 5.9281,4.90203 23.5439,15.84869 37,22.99223 3.025,1.6059 6.175,3.52161 7,4.25713 1.8545,1.65341 12.8626,7.48786 14.1276,7.48786 0.547,0 0.694,-5.16792 0.36,-12.65766 z M 400.69097,1705.1449 c -0.75467,-5.9097 -0.46303,-8.2528 0.86228,-6.9275 0.3029,0.3029 0.4154,3.4154 0.25,6.9167 l -0.30073,6.3659 -0.81155,-6.3551 z m 832.85043,-11.3929 c -0.866,-1.2364 -2.3009,-4.8364 -3.1885,-8 -1.7284,-6.1599 -2.0254,-6.4414 -4.7182,-4.4723 -1.6575,1.212 -1.6402,1.5358 0.3272,6.1255 1.5873,3.703 1.8081,5.17 0.9364,6.2203 -0.6274,0.756 -1.5322,1.3745 -2.0106,1.3745 -0.4785,0 -2.9061,-4.3573 -5.3947,-9.6828 -4.7775,-10.2236 -4.7994,-13.0601 -0.077,-9.9659 4.0634,2.6625 6.4958,2.11 8.1509,-1.8513 2.5897,-6.1979 3.8748,-4.7132 7.3577,8.5 1.2322,4.675 2.6539,9.2814 3.1592,10.2364 1.4076,2.6604 1.1073,3.7636 -1.0246,3.7636 -1.0688,0 -2.6518,-1.0116 -3.5178,-2.248 z m 9.4519,-3.1397 c -4.2595,-1.3968 -7.3241,-6.4155 -7.3241,-11.9944 0,-6.1448 1.6912,-8.6179 5.8932,-8.6179 2.8841,0 3.6728,0.4771 4.5457,2.75 0.5808,1.5125 0.7549,4.325 0.3869,6.25 -1.2648,6.6146 -1.1225,7.4816 1.2837,7.823 1.545,0.2192 3.1423,-0.6641 4.9727,-2.75 3.1354,-3.5733 4.2511,-3.8569 4.2511,-1.0807 0,2.2826 -5.0951,7.2116 -8.3937,8.12 -1.2229,0.3368 -3.7499,0.1118 -5.6155,-0.5 z m 303.0092,-3.6437 c 0,-0.5327 0.675,-0.9686 1.5,-0.9686 0.825,0 1.5,0.1769 1.5,0.393 0,0.2162 -0.675,0.652 -1.5,0.9686 -0.825,0.3166 -1.5,0.1398 -1.5,-0.393 z M 398.95642,1678.5 c -0.0588,-1.1 -0.25741,-2.7857 -0.44134,-3.746 -0.18394,-0.9603 0.0866,-2.0063 0.60128,-2.3244 0.51464,-0.318 0.85312,-0.2073 0.75218,0.2461 -0.10095,0.4534 0.15056,1.5845 0.5589,2.5136 0.40834,0.9291 0.26847,2.5041 -0.31083,3.5 -0.99241,1.7061 -1.05945,1.6951 -1.16019,-0.1893 z m 180.0461,-2.8185 c 0,-1.8669 1.63099,-3.0876 2.41989,-1.8111 0.30695,0.4966 -0.11196,1.4591 -0.9309,2.1387 -1.21067,1.0048 -1.48899,0.9436 -1.48899,-0.3276 z m -119.25,-10.2561 c -0.4125,-0.4173 -0.73632,-3.4962 -0.71959,-6.8421 0.0231,-4.6297 0.27453,-5.6641 1.05211,-4.329 1.14696,1.9694 0.83782,12.355 -0.33252,11.1711 z m -63.16188,-17.1478 c -0.35753,-1.1264 -0.82491,-4.7841 -1.03863,-8.1282 -0.21371,-3.344 -0.70056,-6.5848 -1.0819,-7.2018 -0.38133,-0.617 -0.22392,-1.5913 0.34979,-2.165 0.72416,-0.7241 1.27999,0.1434 1.81776,2.8371 0.42605,2.1342 0.82153,4.1053 0.87884,4.3803 1.27851,6.1349 1.47587,9.1957 0.68415,10.6105 -0.87641,1.566 -1.01653,1.537 -1.61001,-0.3329 z m 484.07855,-6.9443 c -0.36667,-0.3666 -0.66667,-1.1316 -0.66667,-1.7 0,-0.6266 0.46577,-0.5675 1.18333,0.15 0.65084,0.6509 0.95084,1.4159 0.66667,1.7 -0.28417,0.2842 -0.81667,0.2167 -1.18333,-0.15 z m -424.66667,-13.5991 c 0,-1.8878 -0.2136,-6.9878 -0.47467,-11.3333 l -0.47468,-7.9009 1.40292,5.4112 c 1.96208,7.5679 2.37439,16.2771 0.79643,16.823 -0.84121,0.291 -1.25,-0.6901 -1.25,-3 z M 1366.6428,1613.25 c -1.134,-6.0135 -1.6816,-16.7213 -0.7799,-15.25 0.5056,0.825 1.1809,5.2125 1.5006,9.75 0.5806,8.2399 0.259,10.6948 -0.7207,5.5 z m -973.50782,-4.0189 c -0.11454,-3.1521 -0.44653,-6.5186 -0.73775,-7.4811 -0.29122,-0.9625 -0.0992,-1.75 0.42661,-1.75 0.86505,0 1.59443,2.6078 2.82422,10.0977 0.23926,1.4571 -0.17308,3.0952 -0.93915,3.731 -1.124,0.9328 -1.40252,0.1192 -1.57393,-4.5976 z M 1364.3124,1582.5 c -0.01,-3.3 0.1765,-4.7706 0.4046,-3.2679 0.2282,1.5026 0.2328,4.2026 0.01,6 -0.2225,1.7973 -0.4092,0.5679 -0.4148,-2.7321 z m 5.3568,4.8333 c -0.3667,-0.3666 -0.6667,-2.9166 -0.6667,-5.6666 0,-2.75 0.1752,-4.8125 0.3894,-4.5834 0.3763,0.4027 1.445,10.9167 1.1097,10.9167 -0.091,0 -0.4658,-0.3 -0.8324,-0.6667 z m 27.3333,-1.5775 c -3.4107,-1.8212 -4.578,-3.0654 -4.8223,-5.1398 -0.3931,-3.3387 1.0277,-5.17 5.9656,-7.6891 5.775,-2.9462 6.6414,-2.3148 2.5596,1.8653 -5.1086,5.2317 -4.7783,8.0419 1.1153,9.4876 6.0106,1.4744 10.2366,-2.9038 8.716,-9.0298 -0.5691,-2.2929 -11.2817,-20.9056 -13.5609,-23.5615 -1.0678,-1.2444 -6.9731,5.1486 -6.3223,6.8444 0.8804,2.2943 -2.2882,1.7674 -4.7081,-0.7829 -4.3177,-4.5503 -5.2461,-11.2606 -1.9684,-14.2269 1.5132,-1.3695 2.9013,-1.6387 5.9424,-1.1524 l 3.9678,0.6345 0.3077,-4.2526 c 0.256,-3.5396 0.6859,-4.3063 2.5641,-4.573 3.7141,-0.5274 8.2435,4.7989 8.2435,9.6938 0,2.7111 -0.542,4.3305 -1.6586,4.9554 -1.4732,0.8244 -1.2272,1.6961 2.2012,7.7997 8.0153,14.2698 9.4574,17.6095 9.4574,21.9016 0,6.0498 -2.3936,8.6151 -8.5636,9.1781 -3.8832,0.3543 -5.8965,-0.062 -9.4364,-1.9524 z m -7.4116,-38.5007 c -1.0924,-1.0924 -1.8415,0.6448 -1.0572,2.4518 0.7437,1.7133 0.7976,1.7118 1.212,-0.035 0.2385,-1.0055 0.1688,-2.093 -0.1548,-2.4166 z m -937.58838,28.8845 c 0,-1.5733 -0.28333,-5.0608 -0.62963,-7.75 -0.42022,-3.2634 -0.29663,-4.557 0.3716,-3.8896 1.35727,1.3556 2.46358,14.5 1.2204,14.5 -0.5293,0 -0.96237,-1.2872 -0.96237,-2.8604 z m -62.45416,-9.9829 c -0.5035,-3.5438 -0.38928,-5.6515 0.33915,-6.2584 0.60409,-0.5032 0.91822,-0.6523 0.69807,-0.3314 -0.22015,0.321 -0.0267,1.8862 0.4299,3.4783 0.45659,1.592 0.48409,4.1457 0.0611,5.6747 -0.68814,2.4876 -0.84892,2.218 -1.52823,-2.5632 z m 972.24794,-5.9343 c -0.3883,-2.9026 -1.4008,-5.9723 -2.25,-6.8214 -1.8105,-1.8106 -1.9105,-2.8474 -0.5241,-5.4378 0.7854,-1.4676 1.7043,-1.7684 4,-1.3093 2.1477,0.4296 2.9846,0.212 2.9956,-0.7789 0.012,-1.0831 0.2211,-1.0566 0.9847,0.125 0.5332,0.825 0.9763,3.2426 0.9847,5.3724 0.013,3.1627 -0.2353,3.6645 -1.352,2.7377 -2.0714,-1.7191 -3.4517,0.5997 -3.8187,6.4153 l -0.314,4.9746 -0.7062,-5.2776 z m 12.3172,-5.8084 c -4.7562,-6.0466 -6.8114,-21.8892 -3.496,-26.9492 1.7885,-2.7296 5.0086,-3.1918 7.8356,-1.1246 1.6258,1.1888 1.7509,2.2342 1.1075,9.25 -0.672,7.3263 -0.7052,9.8755 -0.2333,17.8823 0.2346,3.9801 -2.4433,4.4636 -5.2138,0.9415 z M 386.67411,1530 c -1.15434,-7.119 -1.53978,-15.2679 -0.68077,-14.3924 1.25093,1.2748 2.76362,13.7579 1.93961,16.0062 -0.54242,1.4799 -0.81355,1.1324 -1.25884,-1.6138 z m 61.72088,-3.5608 c 0.21773,-3.0585 0.60451,-5.7695 0.85951,-6.0245 0.6693,-0.6693 1.79023,9.708 1.15896,10.7294 -1.47103,2.3802 -2.37316,0.2774 -2.01847,-4.7049 z m -64.31352,-33.8559 c -0.0434,-1.0541 0.19293,-1.6448 0.52522,-1.3125 0.33229,0.3323 0.36781,1.1948 0.0789,1.9167 -0.31922,0.7977 -0.55618,0.5608 -0.60416,-0.6042 z m 60.54605,-10.7083 c -0.34375,-1.7187 -0.58632,-5.4312 -0.53905,-8.25 0.0762,-4.5458 0.18462,-4.795 0.95904,-2.2048 1.17492,3.9297 1.83587,13.5798 0.93011,13.5798 -0.3988,0 -1.00635,-1.4062 -1.3501,-3.125 z m 930.05708,-9.625 c -0.2398,-0.4125 -0.76,-3.8612 -1.1562,-7.6638 -0.3961,-3.8027 -1.3466,-8.9777 -2.1122,-11.5 -0.7656,-2.5224 -1.3969,-6.0047 -1.4029,-7.7384 -0.01,-2.6279 0.5031,-3.3313 3.079,-4.2292 2.4188,-0.8432 3.7217,-0.7503 6,0.4278 2.8517,1.4747 3.4032,2.7654 3.0413,7.1181 -0.1161,1.3957 0.895,2.9299 2.8465,4.3195 4.7734,3.399 5.4832,5.521 3.5445,10.5973 -2.0201,5.2894 -6.6408,9.4187 -10.5398,9.4187 -1.5754,0 -3.0604,-0.3375 -3.3002,-0.75 z m 9.3355,-8.7864 c 1.6681,-3.4458 1.8796,-4.7872 1.0108,-6.4106 -1.2506,-2.3368 -1.854,-2.45 -5.5557,-1.0426 -2.5508,0.9698 -2.6291,1.2207 -1.9508,6.25 0.3887,2.8818 0.8947,5.5574 1.1245,5.9459 0.9178,1.5522 3.3736,-0.6163 5.3712,-4.7427 z m -6.6246,-13.0454 c 0.3339,-0.87 0.607,-2.703 0.607,-4.0733 0,-1.8356 -0.4608,-2.4022 -1.75,-2.1521 -1.626,0.3154 -1.8574,1.4238 -1.3689,6.5572 0.1681,1.7672 1.7886,1.5531 2.5119,-0.3318 z m -961.79949,9.0324 c -0.85215,-0.8521 -1.9539,-2.2722 -2.44834,-3.1557 -0.80422,-1.4371 -1.21804,-1.3792 -3.92643,0.5494 -6.57753,4.6836 -14.32694,1.4262 -15.84388,-6.6598 -0.80745,-4.3041 0.77365,-15.2562 2.95094,-20.4409 1.96083,-4.6692 6.39768,-6.8423 8.3945,-4.1115 0.70384,0.9626 1.27972,2.3533 1.27972,3.0904 0,1.9173 -3.04312,2.8258 -4.04351,1.2071 -1.37945,-2.232 -3.16156,3.6658 -3.64723,12.0704 -0.36476,6.3123 -0.10917,8.0147 1.61398,10.75 1.19133,1.8911 2.879,3.25 4.03638,3.25 2.52633,0 5.2526,-5.0081 5.98804,-11 0.48737,-3.9707 0.84725,-4.5062 3.05946,-4.5526 1.37892,-0.029 3.77125,-1.3167 5.31629,-2.8617 2.30634,-2.3064 3.37903,-2.6999 5.99288,-2.1985 5.75585,1.104 9.94738,8.1174 8.05955,13.4854 -1.03206,2.9346 -5.21421,4.8297 -8.00883,3.6291 -1.02685,-0.4412 -2.73169,-0.9685 -3.78853,-1.1718 -1.05683,-0.2034 -2.52963,-0.8744 -3.27289,-1.4912 -1.07479,-0.892 -1.22517,-0.7345 -0.73475,0.7699 1.82794,5.607 2.8058,7.3914 4.05048,7.3914 1.88308,0 1.74337,1.6461 -0.20311,2.393 -2.36431,0.9073 -3.12332,0.759 -4.82472,-0.9424 z m 11.97228,-14.2006 c -0.8538,-3.6064 -4.55442,-6.8722 -5.71469,-5.0433 -1.40153,2.2092 -0.93643,3.7933 1.11374,3.7933 1.08065,0 2.44648,0.9 3.03518,2 1.52741,2.854 2.32818,2.4704 1.56577,-0.75 z M 1358.2345,1443 c 0,-1.925 0.2058,-2.7125 0.4573,-1.75 0.2516,0.9625 0.2516,2.5375 0,3.5 -0.2515,0.9625 -0.4573,0.175 -0.4573,-1.75 z m -916.53246,0.25 c -0.87981,-1.5767 -0.75217,-13.0994 0.15129,-13.6578 0.56668,-0.3502 0.94919,2.4346 0.94919,6.9106 0,7.2069 -0.19089,8.3773 -1.10048,6.7472 z m 912.21616,-10.1171 c -1.8517,-1.4995 -2.0051,-2.0973 -1.0136,-3.9499 2.1482,-4.0141 8.0156,-1.6498 6.6425,2.6766 -0.8917,2.8093 -3.1117,3.3115 -5.6289,1.2733 z m -1024.41568,-6.1903 c 5.62705,-1.1639 9.7386,-1.1377 9,0.057 -0.33992,0.55 -3.40398,0.9483 -6.80902,0.885 -5.93794,-0.1103 -6.02749,-0.1488 -2.19098,-0.9424 z m 25,-2 c 5.82359,-1.2045 12.39713,-1.1686 10.5,0.057 -0.825,0.5332 -4.425,0.9245 -8,0.8697 -6.09588,-0.093 -6.25131,-0.1511 -2.5,-0.9271 z m 23.45224,-0.076 c -0.13138,-1.0084 -0.0898,-16.5688 0.0478,-17.8666 0.0874,-0.825 0.80021,1.425 1.58393,5 0.78372,3.575 1.31044,7.4 1.1705,8.5 -0.23301,1.8315 0.23001,1.9707 5.49555,1.6524 3.71857,-0.2248 5.75,0.04 5.75,0.75 0,0.6408 -1.97678,1.1033 -4.75,1.1113 -2.6125,0.01 -5.7625,0.2849 -7,0.6166 -1.2375,0.3316 -2.27149,0.438 -2.29776,0.2363 z m 25.13109,-3.2319 c 0.22917,-0.2009 3.94459,-0.6734 8.25649,-1.0498 5.38101,-0.4699 7.63632,-0.3553 7.19098,0.3653 -0.36109,0.5842 -4.02263,1.0498 -8.25648,1.0498 -4.18421,0 -7.42015,-0.1644 -7.19099,-0.3653 z m 36.64998,-0.7241 c -0.97168,-0.5658 -3.33418,-0.7795 -5.25,-0.4751 -1.91582,0.3045 -3.48331,0.168 -3.48331,-0.3033 0,-1.2407 11.15772,-2.3745 12.28402,-1.2482 0.95325,0.9533 0.17808,3.1415 -1.09304,3.0856 -0.38004,-0.017 -1.48599,-0.4933 -2.45767,-1.059 z m -65.19178,-47.7797 c -0.73893,-2.3282 -0.35188,-8.1317 0.50693,-7.601 0.64436,0.3983 1.05492,9.4701 0.42857,9.4701 -0.18824,0 -0.60921,-0.8411 -0.9355,-1.8691 z m 1156.73225,-34.9617 c -0.7426,-0.4589 -0.8427,-1.2487 -0.2748,-2.1676 0.7508,-1.2147 1.0016,-1.1637 1.5707,0.3196 0.8106,2.1123 0.303,2.8362 -1.2959,1.848 z M 371.86596,1333.5 c -0.343,-0.55 -0.91743,-5.5 -1.2765,-11 -0.70674,-10.8253 0.57195,-11.4397 2.08103,-1 0.87442,6.0492 0.3512,13.8532 -0.80453,12 z m 1172.07324,-22.0762 c -1.7368,-2.0928 0.4952,-3.644 4.1438,-2.8798 1.4193,0.2972 4.7342,0.058 7.3666,-0.5321 2.6324,-0.59 5.6107,-0.8109 6.6185,-0.4911 3.5076,1.1133 0.7819,3.3004 -5.4699,4.3892 -8.472,1.4753 -11.1153,1.3738 -12.659,-0.4862 z m 11.2633,-10.6238 c -0.66,-0.66 -1.2,-2.7692 -1.2,-4.6871 l 0,-3.4871 -2.8047,2.6871 c -2.421,2.3195 -6.1953,3.6637 -6.1953,2.2065 0,-0.2643 1.5124,-2.8518 3.3609,-5.75 1.8486,-2.8982 4.3327,-7.1819 5.5204,-9.5194 1.1876,-2.3375 2.7949,-4.25 3.5716,-4.25 1.4894,0 3.031,3.4081 2.171,4.7996 -0.2779,0.4496 -0.5882,3.7161 -0.6896,7.2589 -0.2147,7.5045 -0.9056,11.9415 -1.8593,11.9415 -0.3712,0 -1.215,-0.54 -1.875,-1.2 z m -277.2,-6.8 c -0.825,-0.5332 -1.05,-0.9694 -0.5,-0.9694 0.55,0 1.675,0.4362 2.5,0.9694 0.825,0.5332 1.05,0.9694 0.5,0.9694 -0.55,0 -1.675,-0.4362 -2.5,-0.9694 z m -910.44152,-19.0417 c -0.36888,-1.3979 -0.53295,-5.2229 -0.36458,-8.5 l 0.30612,-5.9583 1.0208,6.728 c 1.06618,7.0272 0.35648,12.7281 -0.96234,7.7303 z m 1065.52482,-8.3661 c 0.9391,-0.9189 12.9167,-1.4121 12.9167,-0.5317 0,0.5167 -3,0.9395 -6.6667,0.9395 -3.6666,0 -6.4791,-0.1835 -6.25,-0.4078 z m 28.4703,-1.4555 c -1.8105,-0.7447 -1.7756,-0.8464 0.5,-1.455 3.7537,-1.0041 13.7398,-0.792 11.9464,0.2537 -2.2877,1.3338 -10.2549,2.1028 -12.4464,1.2013 z m 98.2644,-3.6367 c -1.0624,-2.3319 -1.6493,-2.5069 -8.7285,-2.6021 -8.2437,-0.1109 -7.3073,-0.676 4.7408,-2.8613 6.8469,-1.2419 9.1697,-0.4809 9.1697,3.0041 0,5.1432 -3.2552,6.6881 -5.182,2.4593 z m -68.318,0.4426 c 5.8236,-1.2045 12.3971,-1.1686 10.5,0.057 -0.825,0.5332 -4.425,0.9245 -8,0.8697 -6.0959,-0.093 -6.2513,-0.1511 -2.5,-0.9271 z m 24.7149,-1.4909 c 0.8632,-0.8631 14.7851,-2.1509 14.7851,-1.3676 0,0.3861 -0.7118,0.9751 -1.5818,1.3089 -1.9701,0.756 -13.9538,0.8093 -13.2033,0.059 z M 363.00252,1218.441 c 0,-0.8575 0.45,-1.2809 1,-0.941 0.55,0.3399 1,1.0415 1,1.559 0,0.5176 -0.45,0.941 -1,0.941 -0.55,0 -1,-0.7016 -1,-1.559 z m -1.66667,-39.941 c 0,-0.825 0.375,-1.5 0.83334,-1.5 0.45833,0 0.83333,0.675 0.83333,1.5 0,0.825 -0.375,1.5 -0.83333,1.5 -0.45834,0 -0.83334,-0.675 -0.83334,-1.5 z m -5.50902,-54.292 c -1.40059,-0.2725 -1.65915,-1.5557 -1.57487,-7.8162 0.0555,-4.1196 0.42103,-7.6881 0.81239,-7.93 1.84064,-1.1376 3.01012,2.8034 2.73385,9.2127 -0.2496,5.7905 -0.55682,6.8087 -1.97137,6.5335 z m -5.00128,-46.958 c -0.56811,-8.8284 -0.53055,-11.3127 0.17766,-11.7504 1.12212,-0.6935 1.78439,1.4786 2.57118,8.4329 0.59073,5.2214 0.45927,6.0675 -0.9427,6.0675 -1.06771,0 -1.69016,-0.9477 -1.80614,-2.75 z M 0.00792853,1053.6649 c 0.272025,-0.27 2.96959197,-0.7541 5.99459197,-1.0757 3.025,-0.3216 7.7500005,-0.8217 10.5000005,-1.1113 2.75,-0.2897 6.35,-0.7032 8,-0.919 1.65,-0.2158 7.725,-0.7023 13.5,-1.0812 5.775,-0.3788 11.85,-0.8204 13.5,-0.9812 1.65,-0.1609 6.6,-0.5665 11,-0.9013 10.169853,-0.774 20.01562,-1.645 24.5,-2.1673 14.522309,-1.6916 34.104629,-2.242 33.673099,-0.9465 -0.18661,0.5602 -2.3269,1.0634 -4.7562,1.1182 -2.42929,0.055 -7.7919,0.4068 -11.9169,0.7823 -32.103954,2.9217 -40.39894,3.6268 -54.499999,4.6328 -8.8,0.6278 -17.125,1.3267 -18.5,1.5531 -4.020874,0.6621 -31.53760147,1.6361 -30.99459247,1.0971 z M 847.41523,1034.0572 c -7.72513,-1.8468 -6.33795,-4.0894 1.85297,-2.9957 6.05016,0.808 8.41311,0.6951 22.84009,-1.0904 8.08856,-1.0011 14.85286,-1.0841 28.5,-0.3496 18.74367,1.0088 47.09524,0.1718 58.39423,-1.7238 3.575,-0.5998 9.2,-1.5103 12.5,-2.0234 3.3,-0.513 9.6,-1.629 14,-2.48 4.4,-0.8509 11.6,-2.1386 15.99998,-2.8615 4.4,-0.7229 12.275,-2.9089 17.5,-4.8577 l 9.5,-3.5433 -9.5,-0.1448 c -12.5054,-0.1907 -8.7598,-1.485 8.4933,-2.935 8.8015,-0.7397 13.1031,-0.7629 13.3334,-0.072 0.187,0.561 1.2873,1.02 2.4451,1.02 2.3486,0 25.9313,-6.0434 35.2282,-9.0277 9.4286,-3.02665 34.6538,-8.57914 50,-11.0059 21.3765,-3.38035 40.9089,-1.79757 56.921,4.61252 3.6355,1.45542 7.5031,2.41268 8.5945,2.12726 1.1894,-0.31102 1.9845,-0.0234 1.9845,0.71792 0,1.7918 7.3319,6.7851 18.639,12.6937 5.4235,2.8342 12.336,6.741 15.361,8.6817 3.025,1.9408 7.984,4.9174 11.0201,6.6146 9.7237,5.4359 9.6022,5.3378 8.2763,6.6772 -1.5322,1.5479 -8.2161,-0.8693 -16.7964,-6.0744 -3.3,-2.0018 -10.95,-6.2681 -17,-9.4806 -6.05,-3.2125 -12.2088,-6.6826 -13.6863,-7.7113 -1.4774,-1.0288 -5.8525,-3.4352 -9.7223,-5.3477 -6.6931,-3.3079 -7.5855,-3.48392 -18.3137,-3.61308 l -11.2777,-0.13578 6.75,-0.98116 c 3.7125,-0.53964 6.75,-1.33179 6.75,-1.76033 0,-1.26871 -17.78,-4.17074 -27.5,-4.48851 -9.8635,-0.32245 -32.8475,3.11701 -53.5,8.00606 -12.5476,2.9704 -15.695,4.4778 -9.45,4.5259 7.4896,0.058 1.2177,1.7067 -8.7035,2.2884 -5.3849,0.3157 -13.7865,1.6778 -19,3.0802 -5.1406,1.3828 -13.6215,3.2368 -18.8465,4.1199 -5.225,0.8831 -14.45,3.1419 -20.5,5.0195 -6.05,1.8777 -14.15,3.8981 -18,4.4899 -3.84998,0.5918 -9.24998,1.692 -11.99998,2.445 -2.75,0.7529 -7.95897,1.5968 -11.5755,1.8752 -3.61652,0.2785 -9.46652,1.2753 -13,2.2151 -3.53347,0.9399 -10.6995,1.7974 -15.9245,1.9056 -5.225,0.1082 -12.32718,0.5567 -15.78263,0.9966 -3.64566,0.4642 -15.60781,0.2749 -28.5,-0.4509 -19.59478,-1.1032 -23.57012,-1.0599 -33.67721,0.3671 -12.13623,1.7135 -17.60208,1.8766 -22.62745,0.6752 z m -497.71038,-1.7239 c 0.28141,-0.7333 0.64036,-1.3333 0.79767,-1.3333 0.15731,0 0.51626,0.6 0.79767,1.3333 0.28141,0.7334 -0.0775,1.3334 -0.79767,1.3334 -0.72013,0 -1.07908,-0.6 -0.79767,-1.3334 z m 554.29767,-13.2958 c 1.925,-0.4995 8,-1.2116 13.5,-1.5825 7.98556,-0.5385 9.76016,-0.4225 8.8094,0.5759 -0.7891,0.8287 -5.34173,1.3623 -13.5,1.5825 -8.72246,0.2354 -11.28951,0.068 -8.8094,-0.5759 z m 52.5,-4.0773 c 2.2,-0.4454 9.625,-1.0611 16.5,-1.3681 l 12.5,-0.5582 -6.5,1.4214 c -3.575,0.7818 -11,1.3974 -16.5,1.368 -7.8285,-0.042 -9.1314,-0.2292 -6,-0.8631 z m -358.81819,-9.347 c -0.37333,-0.9729 0.0425,-1.2366 1.39301,-0.8834 2.21416,0.579 2.6106,2.2702 0.53217,2.2702 -0.76616,0 -1.63249,-0.6241 -1.92518,-1.3868 z m 8.31819,-0.5542 c 0,-0.5824 0.45,-1.059 1,-1.059 0.55,0 1,0.1984 1,0.441 0,0.2425 -0.45,0.7191 -1,1.059 -0.55,0.3399 -1,0.1415 -1,-0.441 z m 8.69385,0.3015 c -1.13344,-1.1334 0.35596,-2.3605 2.86517,-2.3605 1.50309,0 2.44098,0.5763 2.44098,1.5 0,1.4967 -4.01826,2.1484 -5.30615,0.8605 z m 498.30613,-1.4221 c -2.4704,-0.3964 -0.5582,-0.7892 6.5,-1.3354 5.5,-0.4255 13.2718,-1.1006 17.2706,-1.5001 4.9761,-0.4971 7.1591,-0.3919 6.9173,0.3335 -0.6393,1.9177 -22.9786,3.739 -30.6879,2.502 z m 103,-7.6786 c 0,-0.53175 5.0889,-1.48274 11.3086,-2.11331 11.9185,-1.20833 22.3867,-1.50846 21.4945,-0.61627 -1.7411,1.74115 -32.8031,4.32585 -32.8031,2.72958 z m -729.27092,-0.98952 c -2.07401,-0.21643 -3.50996,-0.81578 -3.19098,-1.33189 0.86721,-1.40319 4.69878,-1.07381 6.90305,0.59341 1.06762,0.80751 1.51762,1.39255 1,1.3001 -0.51762,-0.0925 -2.63805,-0.34519 -4.71207,-0.56162 z m 790.48542,-4.26024 c 1.4929,-0.44994 7.1179,-1.10414 12.5,-1.4538 5.382,-0.34966 12.0355,-0.88867 14.7855,-1.19781 3.458,-0.38873 4.6916,-0.24024 4,0.48145 -1.3655,1.42497 -16.1854,3.17899 -25.9738,3.07417 -5.8099,-0.0622 -7.2767,-0.31184 -5.3117,-0.90401 z m 167.9285,-0.33772 c -1.733,-2.08818 -3.4908,-19.59995 -2.7045,-26.94287 1.4386,-13.43296 8.3034,-15.77148 13.0375,-4.44125 3.3908,8.11541 5.8429,25.7118 3.583,25.7118 -1.5387,0 -2.3134,-1.981 -2.6306,-6.72696 -0.1647,-2.46253 -0.4706,-4.64853 -0.6798,-4.85779 -0.2093,-0.20926 -1.8229,0.16397 -3.5858,0.82941 -2.55,0.96249 -3.6276,0.94619 -5.2703,-0.0797 -2.0337,-1.27007 -2.0542,-1.18636 -1.3465,5.52274 0.3952,3.74679 1.0918,7.80892 1.548,9.02695 0.9595,2.56144 -0.3551,3.88059 -1.951,1.95772 z m 8.9006,-20.22488 C 1456.3294,967.69631 1451.8345,955 1448.5773,955 c -1.9142,0 -3.5748,5.31263 -3.5748,11.43673 l 0,5.13828 3.924,0.15648 c 2.3635,0.0942 4.3995,-0.41642 5.1196,-1.28405 z m -129.5436,17.00792 c 2.6397,-1.14443 16.5205,-2.01644 16.1901,-1.01709 -0.2036,0.6156 -3.8889,1.14344 -8.7706,1.25618 -4.6307,0.10695 -7.9695,-6.4e-4 -7.4195,-0.23909 z m 104.7347,-5.68013 c -1.2519,-1.51752 -0.3971,-14.99362 0.9003,-14.19182 0.4757,0.29404 0.865,1.85807 0.865,3.47561 0,1.94754 0.5067,2.94098 1.5,2.94098 2.1733,0 1.9162,5.31336 -0.3566,7.37024 -1.4837,1.3427 -2.068,1.42405 -2.9087,0.40499 z M 766.96475,964.95 c -0.0208,-0.7975 -0.27636,-3.09204 -0.56796,-5.09898 -0.29161,-2.00693 -0.0785,-3.92814 0.47359,-4.26935 1.47351,-0.91068 2.66587,8.2846 1.25696,9.69351 -0.83309,0.83309 -1.13462,0.74876 -1.16259,-0.32518 z M 344.8433,959.49238 c -0.36256,-0.55418 -0.96671,-2.64675 -1.34255,-4.65014 -0.37584,-2.00339 -1.81973,-4.6306 -3.20865,-5.83825 -2.07761,-1.80646 -3.27142,-2.08384 -6.73383,-1.56462 -2.31469,0.34711 -5.07415,0.29847 -6.13213,-0.10809 -1.75538,-0.67455 -1.70496,-0.80011 0.57638,-1.43556 1.375,-0.383 4.23524,-0.74122 6.35608,-0.79604 2.84889,-0.0736 4.36972,-0.75267 5.82258,-2.59968 1.87254,-2.38054 5.26053,-3.35374 6.09228,-1.75 0.67381,1.29921 -0.73794,19.80044 -1.43016,18.74238 z m -74.82987,-9.43868 c 2.37406,-1.39133 15.98909,-2.48971 15.98909,-1.2899 0,1.65795 -2.71734,2.23809 -10.33179,2.20579 -4.64431,-0.0197 -6.63622,-0.34218 -5.6573,-0.91589 z m 30.48909,-1.97506 c 3.29587,-1.30944 14.5,-2.27139 14.5,-1.24493 0,1.39327 -3.77784,2.14497 -10.5,2.08925 -4.01865,-0.0333 -5.33955,-0.31213 -4,-0.84432 z m 464.13592,-11.71821 c -0.34975,-2.55177 -0.62161,-6.03927 -0.60412,-7.75 0.0302,-2.95135 0.1069,-3.01115 1.5,-1.1693 1.58931,2.10125 2.09981,13.55887 0.60412,13.55887 -0.47524,0 -1.15024,-2.08781 -1.5,-4.63957 z M 324.11196,932.412 c -2.67434,-3.39987 -2.74566,-5.29775 -0.10944,-2.912 1.37524,1.24458 2,1.40477 2,0.5128 0,-2.35771 -4.04268,-14.92114 -4.98968,-15.50642 -1.3789,-0.85221 -4.71288,1.54538 -5.9624,4.28779 -0.68774,1.50942 -1.64316,2.19139 -2.57116,1.83528 -1.75139,-0.67206 -1.78682,-0.28609 -0.42418,4.62055 1.15847,4.17144 3.11427,4.79674 6.25548,2 1.94154,-1.72863 1.94525,-1.71031 0.30306,1.5 -1.96458,3.84058 -4.9099,4.25986 -7.02462,1 -3.19311,-4.92222 -6.07066,-37.75 -3.30901,-37.75 2.46686,0 5.66056,3.10335 9.83251,9.55436 l 4.21136,6.51194 2.64404,-2.53315 C 326.42214,904.13992 328.17514,903 328.86347,903 c 1.79132,0 4.79345,7.55955 5.55983,14 1.06412,8.94257 2.36881,12 5.12072,12 1.63591,0 3.18395,-1.17371 4.92245,-3.73213 3.05799,-4.50025 3.28741,-3.66099 0.49532,1.81196 -1.1224,2.20009 -3.16804,4.5138 -4.54586,5.14158 -2.17482,0.99091 -2.83537,0.81118 -5.00964,-1.36309 -1.89152,-1.89153 -2.74429,-4.19987 -3.48422,-9.43141 C 330.68361,912.67065 329.17045,907 328.07238,907 c -1.13859,0 -2.30261,4.81439 -1.48418,6.13863 0.62449,1.01045 1.29824,7.60118 1.71429,16.7694 0.24051,5.30011 -1.27757,6.2072 -4.19053,2.50397 z m -4.94434,-23.40648 C 318.58636,906.30351 314.25466,899.55655 311.45981,897 l -2.73304,-2.5 0.5703,10.5 c 0.7892,14.53017 0.93736,14.76809 6.02725,9.6782 2.29194,-2.29194 4.02142,-4.84465 3.8433,-5.67268 z m 463.51809,-8.65566 c -7.48003,-7.48003 -9.98737,-17.83657 -5.36874,-22.17555 6.73836,-6.33036 15.3203,3.58408 11.34269,13.10384 -1.17272,2.80672 -1.15851,3.58719 0.0999,5.4824 1.67003,2.51521 0.94607,7.23945 -1.1094,7.23945 -0.72285,0 -2.95684,-1.64256 -4.96442,-3.65014 z m 1.53197,-14.21251 c 0.0924,-3.2506 -1.84192,-6.48606 -3.32847,-5.56732 -1.47675,0.91268 -0.99452,5.65334 0.77385,7.60736 2.02773,2.24063 2.44232,1.90955 2.55462,-2.04004 z m 380.05502,2.36682 c -0.566,-3.30229 -0.7087,-6.35642 -0.3169,-6.78695 1.6134,-1.7731 4.0512,0.78639 5.5018,5.77646 2.0317,6.98857 2.0117,7.09666 -1.3054,7.05256 -2.6962,-0.0358 -2.9059,-0.36242 -3.8795,-6.04207 z m -365.85255,0.0953 c -2.39956,-4.58309 -2.62664,-5.64267 -1.50015,-7 1.9019,-2.29165 2.99387,-1.98627 4.11412,1.15057 0.54016,1.5125 1.69322,4.0108 2.56237,5.55178 0.86915,1.54097 1.33019,3.45347 1.02454,4.25 -1.09202,2.84575 -3.41775,1.36337 -6.20088,-3.95235 z m 11.76495,-4.19715 c -2.37458,-3.07455 -4.55069,-6.19798 -4.83579,-6.94095 -0.73647,-1.91921 8.39143,-7.4188 12.35232,-7.44233 2.45471,-0.0146 3.76609,0.73724 5.63578,3.231 4.75765,6.3457 8.1436,14.78019 5.91511,14.73469 -1.68438,-0.0344 -3.11919,-1.74538 -5.61751,-6.69878 -2.93605,-5.82132 -5.26338,-7.63161 -7.90831,-6.15143 -2.11459,1.18339 -2.18329,3.46159 -0.21802,7.22983 1.81789,3.48564 1.95053,7.63708 0.24384,7.63188 -0.6875,-0.002 -3.19284,-2.51936 -5.56742,-5.59391 z m -19.18258,-3.21119 c 0,-2.76585 9.19719,-8.29912 10.44326,-6.28294 0.79374,1.2843 -6.14897,7.09181 -8.47806,7.09181 -1.08086,0 -1.9652,-0.36399 -1.9652,-0.80887 z M 209.21865,872.18 c -0.70613,-0.46194 -1.0868,-1.47892 -0.84593,-2.25995 1.55604,-5.04563 1.37887,-4.90348 4.67818,-3.75334 2.64696,0.92274 3.83967,0.74429 7.60965,-1.13853 2.45889,-1.22803 4.76332,-1.94016 5.12097,-1.58252 1.20136,1.20137 -1.45586,4.02703 -5.88494,6.258 -5.45136,2.74589 -9.00583,3.57022 -10.67793,2.47634 z m -23.4764,-7.17096 c -3.66199,-4.27822 -5.46309,-9.68568 -3.78501,-11.36376 0.63962,-0.63962 1.17758,-0.31418 1.5497,0.9375 1.53999,5.17999 5.34251,10.90895 7.59334,11.4403 2.97346,0.70194 3.13913,2.37179 0.27583,2.78027 -1.46822,0.20946 -3.21206,-0.96498 -5.63386,-3.79431 z m -11.6186,-22.85236 c -1.37626,-2.49733 -0.73158,-16.42087 0.96718,-20.88895 1.17896,-3.10091 4.40219,-3.11741 3.46376,-0.0177 -0.37466,1.2375 -1.1091,6.3 -1.63209,11.25 -1.32213,12.51361 -1.28845,12.39742 -2.79885,9.65668 z M 1199.5025,823 c 1.1,-0.47269 1.5624,-0.89106 1.0275,-0.92971 -0.5349,-0.0387 0.057,-0.79119 1.3147,-1.67229 2.7224,-1.90688 3.597,-1.35729 2.6398,1.65877 -0.4896,1.5426 -0.9313,1.83434 -1.4663,0.9686 -0.5445,-0.88101 -0.9633,-0.91918 -1.4497,-0.13213 -0.3762,0.60872 -1.445,1.07513 -2.375,1.03647 -1.3785,-0.0573 -1.3214,-0.2291 0.309,-0.92971 z M 180.06736,806.75 c -0.96264,-2.48754 0.3667,-5.27236 4.81461,-10.08606 3.41063,-3.69111 5.40749,-4.72267 7.10781,-3.67181 1.06486,0.65812 0.082,2.37251 -4.30944,7.51671 -3.12892,3.66528 -5.43488,7.07522 -5.12436,7.57765 0.31051,0.50243 0.0735,0.91351 -0.52667,0.91351 -0.60018,0 -1.48306,-1.0125 -1.96195,-2.25 z M 88.240861,795.31292 c 0.95609,-0.25029 2.75609,-0.25937 4,-0.0202 1.24391,0.23919 0.46166,0.44398 -1.73834,0.45508 -2.2,0.0111 -3.21775,-0.18461 -2.26166,-0.4349 z m 8.99375,-1.02745 c 1.50265,-0.22817 4.202649,-0.23276 5.999999,-0.0102 1.79735,0.22256 0.56791,0.40925 -2.73209,0.41486 -3.299999,0.006 -4.770559,-0.17648 -3.267909,-0.40466 z m 124.618829,-20.1881 c -1.61826,-1.27292 -3.34287,-1.72598 -5.21082,-1.3689 -2.37827,0.45463 -3.50656,-0.22736 -7.61389,-4.60221 -2.65203,-2.82477 -6.26474,-8.12763 -8.02824,-11.78414 -2.8539,-5.91737 -3.16381,-7.40145 -2.81919,-13.50037 0.30189,-5.34263 0.86059,-7.32557 2.5361,-9.00107 4.20733,-4.20734 11.19411,-1.96376 16.03512,5.14915 2.68474,3.94471 3.02384,13.11851 0.72116,19.51017 -0.79257,2.2 -1.44782,4.5625 -1.4561,5.25 -0.0232,1.92281 1.77688,1.48089 2.43677,-0.59824 0.65007,-2.04819 4.53732,-4.15176 7.67215,-4.15176 2.85076,0 7.87602,5.32212 7.87602,8.34129 0,3.84948 -0.99244,5.60344 -4.07152,7.1957 -3.72307,1.92527 -5.1713,1.84645 -8.07756,-0.43962 z m -9.45115,-24.05334 c 1.05958,-7.98746 -3.95066,-16.3215 -7.86108,-13.07614 -2.00859,1.66698 -1.82852,12.45313 0.21131,12.65711 0.6875,0.0688 1.71114,0.18125 2.27475,0.25 0.56361,0.0688 1.45248,1.25 1.97525,2.625 1.46709,3.85873 2.67815,2.98387 3.39977,-2.45597 z m 927.60021,2.51499 c 0,-0.24254 0.45,-0.7191 1,-1.05902 0.55,-0.33992 1,-0.14148 1,0.44098 0,0.58246 -0.45,1.05902 -1,1.05902 -0.55,0 -1,-0.19844 -1,-0.44098 z m 197.5917,-58.2497 c 1.7459,-1.27669 3.4083,-0.9165 3.4083,0.7385 0,0.51138 -1.15,0.8346 -2.5557,0.71826 -2.2968,-0.19009 -2.3832,-0.33761 -0.8526,-1.45676 z m 4.6791,0.0865 c 0.3323,-0.33229 1.1948,-0.36781 1.9167,-0.0789 0.7977,0.31922 0.5608,0.55618 -0.6042,0.60416 -1.0541,0.0434 -1.6448,-0.19293 -1.3125,-0.52522 z m -184.2708,-4.02712 c -0.825,-0.80554 -5.8875,-4.6507 -11.25,-8.54478 -5.3625,-3.89408 -9.75,-7.42436 -9.75,-7.84505 0,-0.42069 0.7273,-1.04397 1.6161,-1.38506 3.0531,-1.17158 21.8717,12.9466 22.6444,16.98831 0.5171,2.70505 -0.9366,3.05573 -3.2605,0.78658 z m 47.6924,-1.81916 c -1.8013,-1.80128 -3.0174,-9.40626 -2.0931,-13.08897 0.659,-2.62596 0.5596,-2.71773 -2.2046,-2.03398 -1.5921,0.39383 -4.0197,1.75398 -5.3947,3.02255 -6.3327,5.84255 -12.3239,6.22386 -16.8471,1.07224 -3.7609,-4.28341 -4.8478,-9.46657 -3.2469,-15.48259 2.1556,-8.10018 5.8796,-11.80038 12.8059,-12.72405 6.4227,-0.85651 12.2881,5.69837 12.2881,13.7326 0,2.89827 0.1947,3.0688 2.8407,2.48766 4.1184,-0.90456 5.0309,0.88365 5.3656,10.51484 0.2916,8.38948 0.3134,8.45243 3.0401,8.76623 2.7757,0.31945 4.204,-0.93556 15.7246,-13.81607 l 3.1305,-3.5 -2.4466,5 c -6.0707,12.40656 -18.1575,20.85455 -22.9625,16.04954 z m -12.377,-14.75807 c 2.5033,-3.36795 3.3179,-12.25347 1.4476,-15.79147 -1.6322,-3.08765 -6.1015,-5.34472 -8.8537,-4.47123 -2.3994,0.76157 -5.9093,8.2476 -5.9093,12.6038 0,3.55558 2.3304,8.36893 4.75,9.81108 2.8042,1.6714 6.3938,0.76948 8.5654,-2.15218 z m -816.92237,13.62674 c 0.33385,-0.86998 0.60699,-2.04272 0.60699,-2.60608 0,-0.56336 3.49479,-4.46406 7.76619,-8.66821 4.89121,-4.8142 9.48738,-10.60546 12.41565,-15.64392 6.72196,-11.56602 14.80979,-34.13029 14.82661,-41.36483 0.005,-1.99935 1.12965,-10.11496 2.5,-18.0347 1.37035,-7.91973 2.49155,-18.07459 2.49155,-22.56634 0,-4.49174 0.42794,-10.61196 0.95097,-13.60047 0.52303,-2.98851 1.45092,-12.15236 2.06197,-20.3641 0.61105,-8.21174 1.71439,-16.37454 2.45186,-18.13956 1.88027,-4.50011 8.05912,-11.06669 13.30726,-14.14231 6.36142,-3.72803 17.16246,-4.38207 23.01973,-1.39391 9.45187,4.82198 9.62009,11.53215 0.74424,29.68666 -7.22257,14.77293 -8.53862,18.99115 -8.52626,27.32849 0.01,6.47869 2.56951,13.95383 6.19539,18.09107 3.0992,3.53627 12.61209,10.66028 19.40163,14.52946 8.99557,5.12634 17.16726,6.29762 27.32502,3.91658 12.02137,-2.81788 18.14088,-7.97812 29.3604,-24.758 10.02305,-14.99045 12.70463,-23.07534 15.15372,-45.68804 1.53009,-14.12747 5.23776,-20.37188 14.63656,-24.65076 5.65957,-2.57657 20.69209,-6.99196 26.93584,-7.91167 2.46492,-0.36308 9.45301,-2.14015 15.5291,-3.94904 8.6422,-2.57283 13.75859,-3.44068 23.5,-3.98608 6.84891,-0.38346 19.87757,-1.78576 28.95257,-3.11622 15.8484,-2.3235 22.58376,-3.16072 44.5,-5.53144 13.92529,-1.50633 26.65086,-4.53651 35.662,-8.49173 4.2141,-1.84968 7.93231,-3.36306 8.26269,-3.36306 1.16517,0 33.15217,-11.82005 38.94974,-14.39297 6.8017,-3.01854 7.62557,-3.1397 7.62557,-1.12143 0,2.65138 -11.6904,7.80505 -39.5,17.41345 -6.05,2.09031 -12.81475,4.72743 -15.03277,5.86026 -8.74304,4.46541 -29.49462,8.71181 -50.35756,10.30468 -6.38532,0.48751 -13.40967,1.29484 -15.60967,1.79406 -5.21227,1.18276 -27.55228,3.78422 -44,5.12373 -8.53692,0.69525 -15.74651,1.92176 -21,3.57257 -4.4,1.38261 -11.75634,3.18344 -16.34741,4.00185 -4.59108,0.81841 -13.05323,3.01395 -18.80478,4.87899 -15.49746,5.02531 -17.4344,7.56984 -19.84104,26.06481 -2.68395,20.62605 -5.61985,30.54394 -11.36349,38.38751 -2.66319,3.63687 -6.66266,9.31249 -8.88772,12.61249 -10.22874,15.17032 -26.09376,23.1439 -43.39478,21.80975 -7.35001,-0.5668 -8.7347,-1.0411 -16.10075,-5.51503 -4.43253,-2.6922 -9.87285,-6.44737 -12.08959,-8.34481 C 458.45622,593.55246 456.34981,592 455.99204,592 c -1.21339,0 -6.61636,-8.47685 -8.30724,-13.03343 -2.05523,-5.53845 -2.21337,-17.21968 -0.30584,-22.59084 0.75704,-2.13165 3.85547,-9.05073 6.8854,-15.37573 3.02993,-6.325 6.00495,-13.075 6.61115,-15 2.40352,-7.63242 -1.97713,-13.01238 -11.21945,-13.77883 -6.77783,-0.56207 -11.23315,0.87117 -16.36619,5.26486 -5.93925,5.08378 -7.92286,10.76672 -8.73105,25.01397 -0.37439,6.6 -1.32591,16.05 -2.11449,21 -0.78857,4.95 -1.45128,12.375 -1.47268,16.5 -0.0214,4.125 -0.70101,11.1 -1.51026,15.5 -0.80924,4.4 -1.95037,11.375 -2.53583,15.5 -1.73166,12.20074 -3.5414,19.13552 -7.83308,30.01573 -6.63046,16.80948 -18.69808,35.01732 -25.69119,38.76332 -1.31327,0.70349 -3.29939,3.06599 -4.41359,5.25 -1.97218,3.86579 -3.80816,5.55798 -2.59217,2.38916 z M 1742.0498,662.62434 c -0.4968,-1.30661 -1.403,-4.23161 -2.0138,-6.5 -0.8073,-2.998 -1.6301,-4.12434 -3.013,-4.12434 -2.7093,0 -3.6366,-2.07636 -1.5942,-3.56975 2.1333,-1.5599 1.063,-3.99932 -3.4038,-7.75783 -1.6624,-1.39881 -3.0225,-2.96347 -3.0225,-3.47702 0,-1.0631 5.6908,-2.16808 11.25,-2.18439 5.0752,-0.0149 4.7289,1.31236 -0.7228,2.77048 l -4.4729,1.1963 2.1209,3.59462 c 1.9109,3.23866 2.4394,3.53487 5.3375,2.99119 2.3756,-0.44568 3.8402,-0.0841 5.6019,1.38321 l 2.3854,1.98665 -3.7814,0.0333 c -4.4209,0.0389 -5.3389,1.50714 -3.9025,6.24203 1.709,5.6332 2.1906,9.79124 1.1341,9.79124 -0.5498,0 -1.4062,-1.06904 -1.9029,-2.37566 z m 18.5297,1.29288 c -0.7566,-2.19503 -4.577,-24.1091 -4.577,-26.25422 0,-1.58252 0.2558,-1.69559 1.5,-0.663 0.825,0.68469 1.5,2.27798 1.5,3.54066 0,3.33625 1.0138,5.45934 2.607,5.45934 0.7661,0 1.393,0.675 1.393,1.5 0,0.83296 0.8887,1.5 1.9985,1.5 1.8465,0 1.9852,-0.61013 1.823,-8.02302 -0.1103,-5.04271 0.2617,-8.46022 1.0015,-9.2 0.9027,-0.90264 1.177,0.0934 1.177,4.27339 0,5.57334 1.8391,15.90198 3.9941,22.43185 1.9317,5.85308 0.2683,5.33262 -2.5364,-0.79361 -2.4809,-5.41899 -2.683,-5.59464 -5.7644,-5.00864 -1.7563,0.33402 -3.349,0.73589 -3.5393,0.89305 -0.1904,0.15716 0.1193,2.45502 0.6882,5.10636 0.6177,2.8792 0.6696,5.19001 0.1288,5.73784 -0.5469,0.55402 -1.0989,0.35604 -1.394,-0.5 z M 1117.1645,651.25 c -1.6755,-2.6125 -4.2538,-7.3886 -5.7295,-10.61355 -2.1944,-4.79557 -2.4326,-6.02222 -1.3078,-6.73469 0.7564,-0.47912 1.8253,-0.85376 2.3753,-0.83252 1.6627,0.0642 10.6789,19.30088 9.944,21.21609 -1.019,2.65537 -1.9901,2.09729 -5.282,-3.03533 z M 499.60951,622.41821 c -0.76126,-1.98381 -0.8028,-7.94735 -0.0501,-7.19466 0.60355,0.60355 1.51911,8.77645 0.98318,8.77645 -0.17935,0 -0.59923,-0.7118 -0.93307,-1.58179 z m 603.90499,-16.81365 c -4.9271,-6.45974 -9.4086,-24.31439 -6.5468,-26.08308 1.9648,-1.21426 2.9923,0.67979 5.0558,9.31955 1.0735,4.49448 3.0829,10.40394 4.4654,13.13213 1.3825,2.72819 2.5136,5.42531 2.5136,5.9936 0,2.18177 -3.0106,0.88594 -5.488,-2.3622 z M 497.23452,594 c 0,-1.925 0.2058,-2.7125 0.45733,-1.75 0.25152,0.9625 0.25152,2.5375 0,3.5 -0.25153,0.9625 -0.45733,0.175 -0.45733,-1.75 z m -2.49778,-24.60929 c -0.45854,-3.05942 -1.56185,-5.82973 -2.75,-6.90499 -2.02314,-1.83091 -2.58364,-4.01489 -1.23422,-4.80911 0.4125,-0.24278 2.19587,-0.75144 3.96304,-1.13035 2.88124,-0.61779 3.28074,-0.41924 3.86852,1.9227 0.43332,1.72647 0.12885,3.19355 -0.89833,4.32858 -0.8546,0.94432 -1.69544,3.96368 -1.86852,6.7097 l -0.31471,4.99276 -0.76578,-5.10929 z M 1564.5025,568 c 0.9955,-1.1 1.9231,-2 2.0614,-2 0.1382,0 0.016,0.9 -0.2717,2 -0.2876,1.1 -1.2152,2 -2.0613,2 -1.294,0 -1.2508,-0.31777 0.2716,-2 z m 10.4801,-5.03724 c -0.7494,-1.40021 -0.716,-2.58763 0.1164,-4.14298 1.1275,-2.10691 1.2128,-2.11729 2.5351,-0.30887 0.7526,1.02924 1.3684,2.6372 1.3684,3.57323 0,2.55318 -2.7966,3.16443 -4.0199,0.87862 z m -482.8185,-8.84174 c -0.7797,-0.4942 -1.7458,-4.21789 -2.3143,-8.91983 -1.241,-10.265 -0.8466,-15.70119 1.1389,-15.70119 1.6008,0 2.3249,3.78577 3.3946,17.75 0.5905,7.70784 0.3374,8.4915 -2.2192,6.87102 z M 488.00252,531.20544 c -3.37539,-2.28131 -4.78626,-4.18267 -5.53216,-7.45544 -0.97187,-4.26428 0.33772,-8.34038 3.08128,-9.59042 2.37389,-1.08162 2.45088,-0.99377 2.45088,2.79676 0,8.50122 3.81756,12.54821 8.42103,8.92712 2.76878,-2.17793 6.57897,-8.73651 6.57897,-11.32457 0,-0.84477 -1.22242,-1.79144 -2.75,-2.12965 -9.04947,-2.0036 -13.25,-4.79914 -13.25,-8.81816 0,-1.27105 1.37083,-4.20338 3.04629,-6.51628 2.83166,-3.90899 3.33697,-4.18377 7.17227,-3.90004 3.87165,0.28642 6.85206,2.80524 3.31932,2.80524 -2.23001,0 -6.53788,4.48235 -6.53788,6.80267 0,1.28889 1.35718,2.44768 4.25,3.62874 7.84566,3.20317 9.21925,4.11809 10.14819,6.75952 1.48436,4.22077 -3.4318,13.24025 -9.21623,16.90863 -5.18595,3.28883 -7.59899,3.52748 -11.18196,1.10588 z m 607.58278,-25.33461 c -1.4949,-2.53067 -1.834,-5.11335 -1.7727,-13.50311 0.08,-10.90066 0.4056,-12.36772 2.7489,-12.36772 1.1884,0 1.441,2.54172 1.441,14.5 0,7.975 -0.128,14.5 -0.2844,14.5 -0.1564,0 -1.1162,-1.40813 -2.1328,-3.12917 z m 0.6099,-45.55509 c -2.0877,-3.82333 -1.1654,-14.34039 1.8253,-20.81574 0.5081,-1.1 1.7383,-4.42934 2.7338,-7.39853 1.0708,-3.19405 2.7895,-6.04894 4.2088,-6.99131 2.2795,-1.51351 2.3681,-1.49367 1.7812,0.39853 -3.1761,10.23973 -6.074,20.95505 -6.8939,25.49131 -0.5468,3.025 -1.3245,6.85 -1.7284,8.5 -0.7199,2.94142 -0.7575,2.95735 -1.9268,0.81574 z m 77.8073,-3.75672 c 0,-1.75653 0.6001,-2.01516 1.4573,-0.62812 0.3164,0.512 0.118,1.21356 -0.441,1.55902 -0.559,0.34546 -1.0163,-0.0734 -1.0163,-0.9309 z M 614.50252,435 c -0.33992,-0.55 -0.14148,-1 0.44098,-1 0.58246,0 1.05902,0.45 1.05902,1 0,0.55 -0.19844,1 -0.44098,1 -0.24254,0 -0.7191,-0.45 -1.05902,-1 z M 16.733489,402.34406 c 0.677033,-0.27392 2.027033,-0.29059 3,-0.0371 0.972968,0.25354 0.419032,0.47766 -1.230968,0.49804 -1.65,0.0204 -2.446064,-0.18706 -1.769032,-0.46099 z M 1114.0591,393.03499 c -1.7508,-1.08205 -1.6352,-1.32909 7.7338,-16.53499 4.9043,-7.9596 7.3902,-11.08832 8.9936,-11.31955 1.2188,-0.17575 2.216,0.16175 2.216,0.75 0,0.58825 -0.3461,1.06955 -0.7692,1.06955 -0.423,0 -2.2999,2.8125 -4.1709,6.25 -1.8709,3.4375 -5.2373,8.94647 -7.4808,12.24216 -2.2435,3.29568 -4.3042,6.5417 -4.5793,7.21337 -0.3238,0.79041 -1.0093,0.90663 -1.9432,0.32946 z m -21.175,-37.20166 c -0.065,-1.28333 -0.057,-2.69494 0.018,-3.1369 0.075,-0.44197 -0.5668,-1.5067 -1.4262,-2.36607 -1.6875,-1.68754 -1.4294,-3.9873 0.4018,-3.58036 0.6188,0.1375 1.1426,-0.3125 1.1641,-1 0.022,-0.6875 0.7175,0.31397 1.5466,2.2255 0.8291,1.91152 1.3739,4.80186 1.2108,6.42298 -0.3612,3.59067 -2.7459,4.76451 -2.9149,1.43485 z m -975.38158,-42.54687 -3,-1.61631 3,-0.95983 c 12.0507,-3.85556 15.95632,-22.7417 4.6933,-22.69501 -6.27963,0.026 -6.64306,0.71205 -4.76103,8.98671 0.90694,3.98753 1.43889,7.46016 1.1821,7.71695 -1.15399,1.15398 -5.63115,-11.25165 -8.74058,-24.21897 -0.65942,-2.75 -2.25079,-5.99101 -3.53637,-7.20225 -3.17168,-2.98827 -2.94449,-4.89068 1.06258,-8.89775 4.05225,-4.05225 8.85972,-4.55675 12.92796,-1.35667 3.69425,2.9059 4.28839,7.59777 1.93745,15.29984 l -1.94917,6.38581 5.59188,2.56925 c 3.47929,1.5986 6.24969,3.68588 7.33307,5.52489 0.96236,1.63359 2.97521,3.26362 4.5,3.64417 3.96129,0.98864 6.25881,3.42193 6.25881,6.62868 0,4.75532 3.57223,4.94035 6.04856,0.3133 1.11858,-2.09008 1.4682,-2.23726 2.20158,-0.92679 1.17083,2.09217 0.0502,5.28644 -2.29503,6.54154 -2.25505,1.20687 -7.53258,-0.70162 -12.57448,-4.54727 l -3.22702,-2.46137 -2.00676,3.24231 c -2.53848,4.10141 -7.05141,8.34979 -9.64685,9.08135 -1.1,0.31005 -3.35,-0.16362 -5,-1.05258 z M 116.37201,279.25 c 6.00723,-11.6267 2.71095,-20.39579 -5.17303,-13.76185 -3.6887,3.10383 -4.63871,6.2048 -2.28656,7.46363 0.95124,0.50909 2.33267,2.7532 3.06987,4.98691 1.57694,4.77818 2.46189,5.04254 4.38972,1.31131 z m 40.68033,15 C 150.53422,288.23846 141.07029,264 145.2412,264 c 0.98584,0 2.27479,2.37689 3.7108,6.8429 1.21016,3.76359 3.5861,9.26936 5.27987,12.23504 2.65768,4.65343 3.18579,5.1202 3.85483,3.4071 0.42639,-1.09177 0.80688,-3.87539 0.84553,-6.18582 0.0387,-2.31043 0.486,-6.36043 0.99409,-9 0.50809,-2.63957 1.47492,-9.74922 2.14851,-15.79922 1.26936,-11.40092 3.88654,-19.16667 6.45947,-19.16667 1.82698,0 1.82454,0.82958 -0.0338,11.52334 -0.82612,4.75383 -2.16863,17.33668 -2.98336,27.96189 -0.81473,10.62521 -1.74037,19.73771 -2.05698,20.25 -1.02394,1.65676 -3.35781,0.9944 -6.40781,-1.81856 z m 1180.48336,-7.70813 c -2.3517,-13.06114 -1.5524,-13.97493 6.5925,-7.53676 8.921,7.05167 12.0914,6.39842 13.467,-2.77484 1.359,-9.06216 -1.2348,-24.18752 -3.8687,-22.55972 -0.5409,0.33431 -0.7845,0.0108 -0.5412,-0.71885 0.9036,-2.71102 2.7845,-1.96382 5.3712,2.13385 2.5166,3.98658 2.6411,4.7706 2.2851,14.3879 -0.4123,11.13886 -1.8507,14.82007 -6.4784,16.5795 -2.4014,0.91303 -4.1515,0.38048 -12.6818,-3.85894 -0.4516,-0.22444 -0.506,2.79009 -0.1208,6.69896 0.5896,5.98291 0.4613,7.10703 -0.8108,7.10703 -1.1216,0 -1.9501,-2.43792 -3.2141,-9.45813 z m -155.5332,-2.15166 c 0,-1.31474 10.5202,-12.06822 14.8118,-15.14021 6.3013,-4.51058 8.784,-4.11612 3.1882,0.50654 -5.7816,4.77609 -10.4969,9.54598 -12.5808,12.72641 -1.4384,2.19525 -5.4192,3.59628 -5.4192,1.90726 z m 105.25,-128.88604 c -1.472,-1.67185 -1.594,-4.41179 -0.2885,-6.47614 0.7782,-1.23058 1.0337,-1.14859 1.5577,0.5 0.3447,1.08458 0.9727,2.64697 1.3956,3.47197 0.819,1.59804 0.3607,4.02523 -0.7481,3.96196 -0.3667,-0.0209 -1.2292,-0.67692 -1.9167,-1.45779 z M 1278.5025,154 c -0.3399,-0.55 0.083,-1 0.941,-1 0.8574,0 1.559,0.45 1.559,1 0,0.55 -0.4234,1 -0.941,1 -0.5175,0 -1.2191,-0.45 -1.559,-1 z m 6.25,-8.11187 C 1282.9551,144.87388 1282.3103,142 1283.8801,142 c 1.271,0 3.3714,2.76389 2.9669,3.9042 -0.2217,0.62531 -0.9681,0.61958 -2.0945,-0.0161 z m -8.75,-4.32911 c 0,-0.85746 0.45,-1.55902 1,-1.55902 0.55,0 1,0.42344 1,0.94098 0,0.51754 -0.45,1.2191 -1,1.55902 -0.55,0.33992 -1,-0.0835 -1,-0.94098 z m 48.5312,-18.85215 c -0.428,-0.98622 -0.4977,-2.07372 -0.1547,-2.41666 1.0155,-1.0155 1.834,0.41094 1.3667,2.38152 -0.4144,1.74695 -0.4683,1.74851 -1.212,0.0351 z m 3.9449,-2.78223 c -0.9178,-2.89156 0.3979,-3.81748 2.1057,-1.48194 1.8027,2.4654 1.7983,3.5573 -0.014,3.5573 -0.7879,0 -1.729,-0.93391 -2.0913,-2.07536 z m 274.0285,-7.91012 C 1602.1554,110.90653 1601.448,110 1600.9351,110 c -1.3752,0 -1.1356,-3.76565 0.2693,-4.23398 2.0857,-0.69522 4.5209,2.23315 4.023,4.83771 -0.6165,3.22538 -1.9284,3.90574 -2.7203,1.41079 z m -279.0046,-1.47841 c -2.5933,-1.18743 -2.7046,-1.38468 -0.8214,-1.45489 1.1982,-0.0447 2.857,-0.75967 3.6862,-1.58889 1.9445,-1.94445 3.091,-0.21243 1.6463,2.487 -0.5948,1.11137 -1.1781,2.00037 -1.2963,1.97557 -0.1181,-0.0248 -1.5648,-0.66326 -3.2148,-1.41879 z m 60.5,-34.977093 c 0,-0.242541 0.45,-0.719098 1,-1.059017 0.55,-0.339919 1,-0.141476 1,0.440983 0,0.582459 -0.45,1.059017 -1,1.059017 -0.55,0 -1,-0.198442 -1,-0.440983 z m -8.607,-6.140804 c 0.3339,-0.869984 0.607,-1.796541 0.607,-2.059017 0,-0.262477 0.4303,-0.211261 0.9563,0.113812 1.161,0.717514 0.2288,3.526992 -1.1703,3.526992 -0.55,0 -0.7268,-0.711804 -0.393,-1.581787 z m 43.1107,-15.338152 c 0.6226,-1.072325 0.3966,-1.255765 -0.9232,-0.74932 -1.1621,0.445952 -1.6081,0.251623 -1.3312,-0.580061 0.6195,-1.860664 3.6342,-2.162953 3.3663,-0.337545 -0.1234,0.840937 -0.6095,1.879501 -1.0803,2.307921 -0.4718,0.42932 -0.4859,0.141615 -0.032,-0.640995 z M 666.08147,1.5833333 c -0.0434,-1.05416663 0.19293,-1.64479163 0.52522,-1.31249997 0.33229,0.33229167 0.36781,1.19479167 0.0789,1.91666667 -0.31922,0.7977327 -0.55618,0.5607763 -0.60416,-0.6041667 z"
     id="path3059"
     style="fill:#000000" />
</svg>
