<?xml version="1.0" encoding="UTF-8" standalone="no"?>
<!-- Created with Inkscape (http://www.inkscape.org/) -->

<svg
   xmlns:dc="http://purl.org/dc/elements/1.1/"
   xmlns:cc="http://creativecommons.org/ns#"
   xmlns:rdf="http://www.w3.org/1999/02/22-rdf-syntax-ns#"
   xmlns:svg="http://www.w3.org/2000/svg"
   xmlns="http://www.w3.org/2000/svg"
   version="1.1"
   width="1637.9294"
   height="2100.8684"
   id="svg3087">
  <metadata
     id="metadata3093">
    <rdf:RDF>
      <cc:Work
         rdf:about="">
        <dc:format>image/svg+xml</dc:format>
        <dc:type
           rdf:resource="http://purl.org/dc/dcmitype/StillImage" />
        <dc:title></dc:title>
      </cc:Work>
    </rdf:RDF>
  </metadata>
  <defs
     id="defs3091" />
  <path
     d="m 1127,2100.109 c 0,-1.9739 5.2194,-3.3689 21.1838,-5.6618 19.5853,-2.813 57.0353,-11.3181 66.8162,-15.1743 3.575,-1.4095 11.45,-5.3659 17.5,-8.7918 6.05,-3.426 14.825,-7.9459 19.5,-10.0443 8.168,-3.6661 13.9399,-7.1931 28,-17.11 3.575,-2.5215 8.525,-5.6387 11,-6.9271 2.475,-1.2883 7.2,-4.7706 10.5,-7.7383 3.3,-2.9678 9.1827,-7.4917 13.0726,-10.0533 9.0705,-5.973 26.5276,-21.956 47.5593,-43.5434 22.9587,-23.5654 23.8622,-24.7299 31.7119,-40.8754 1.2891,-2.6514 3.7381,-7.5208 5.4422,-10.8208 1.7041,-3.3 3.65,-8.7 4.3241,-12 0.6741,-3.3 2.3507,-8.7 3.7257,-12 1.375,-3.3 3.6788,-11.175 5.1195,-17.5 1.4407,-6.325 3.9554,-17.35 5.5881,-24.5 1.6328,-7.15 3.6686,-19.3 4.5241,-27 0.8555,-7.7 2.6329,-20.3 3.9497,-28 1.3168,-7.7 2.9044,-18.05 3.5278,-23 3.7149,-29.4937 9.3375,-44.0562 21.8605,-56.6182 4.177,-4.19 11.6445,-12.5071 16.5945,-18.4824 4.95,-5.9753 10.3091,-11.9971 11.9091,-13.3818 1.6,-1.3847 5.4654,-4.7676 8.5899,-7.5176 9.9419,-8.7505 20.9235,-17.7739 23.7573,-19.5209 4.7465,-2.9263 11.088,-9.3588 12.3026,-12.4791 0.6422,-1.65 1.2958,-8.85 1.4524,-16 0.2952,-13.4719 -0.8558,-23.2498 -4.5199,-38.3967 -1.1172,-4.6183 -1.8167,-8.6114 -1.5544,-8.8736 4.2107,-4.2107 11.6618,25.4236 11.4877,45.6887 -0.1378,16.0347 -1.52,20.5034 -8.2486,26.668 -2.9498,2.7025 -7.1211,5.9518 -9.2697,7.2207 -2.1485,1.2689 -5.7898,3.9689 -8.0918,6 -2.302,2.0311 -7.8695,6.8429 -12.3723,10.6929 -12.8882,11.0199 -15.1303,13.3419 -26.42,27.3617 -3.2605,4.049 -8.8065,10.124 -12.3245,13.5 -11.9131,11.4323 -16.6024,22.6028 -19.7346,47.0098 -1.9108,14.8896 -5.2292,38.2199 -6.4899,45.6285 -0.5147,3.025 -1.4154,11.125 -2.0015,18 -0.5861,6.875 -2.1607,17 -3.4992,22.5 -1.3385,5.5 -3.3764,14.7229 -4.5287,20.4954 -1.1522,5.7724 -3.6067,14.5474 -5.4544,19.5 -1.8477,4.9525 -3.8911,11.2546 -4.541,14.0046 -1.2996,5.4995 -8.2132,21.5019 -11.0559,25.59 -0.9905,1.4245 -2.7324,5.0796 -3.8709,8.1224 -1.6831,4.4986 -4.5428,8.1257 -15.3034,19.41 -33.0232,34.6304 -50.7984,51.5602 -59.1546,56.3411 -2.9254,1.6738 -8.0755,5.5029 -11.4446,8.5091 -3.3692,3.0063 -10.3882,7.9745 -15.5978,11.0405 -5.2097,3.066 -10.7206,6.6045 -12.2467,7.8632 -6.2701,5.1717 -15.7183,10.8776 -23.3218,14.0844 -4.4425,1.8736 -13.8054,6.5798 -20.8064,10.4582 -19.8181,10.9788 -18.8509,10.6626 -64.7771,21.1771 -7.2233,1.6537 -37.8637,5.904 -42.562,5.904 -0.994,0 -1.8073,-0.3418 -1.8073,-0.7595 z m 173.9178,-180.4905 c -0.045,-1.2375 -0.2401,-3.375 -0.4329,-4.75 -0.6228,-4.4398 -2.4454,-47.8402 -3.0027,-71.5 -0.298,-12.65 -0.7375,-26.825 -0.9768,-31.5 -0.2393,-4.675 -0.685,-17.725 -0.9905,-29 -0.3055,-11.275 -0.9951,-32.875 -1.5324,-48 -1.6638,-46.8332 -3.9143,-119.5872 -5.4906,-177.5 -0.2994,-11 -1.1972,-40.25 -1.9951,-65 -0.7979,-24.75 -1.6909,-53.775 -1.9845,-64.5 -0.2936,-10.725 -0.7487,-24.9 -1.0114,-31.5 -0.2627,-6.6 -0.7116,-20.325 -0.9976,-30.5 -0.286,-10.175 -0.7495,-23.9 -1.0301,-30.5 -0.2805,-6.6 -0.9477,-26.4 -1.4826,-44 -0.5349,-17.6 -1.2079,-38.75 -1.4956,-47 -0.5941,-17.0406 -2.2509,-70.3542 -2.9988,-96.5 -0.2754,-9.625 -0.7199,-23.35 -0.9879,-30.5 -0.468,-12.4862 -0.8909,-26.8941 -2.3683,-80.6857 -0.3729,-13.5771 -0.9681,-24.9758 -1.3228,-25.3304 -0.3546,-0.3547 -5.5211,-0.1733 -11.481,0.4029 -5.9599,0.5763 -14.2112,1.316 -18.3362,1.6439 -4.125,0.3279 -10.875,1.0064 -15,1.5078 -4.125,0.5014 -18.3,1.824 -31.5,2.939 -13.2,1.1151 -28.05,2.4599 -33,2.9885 -4.95,0.5287 -12.15,1.2295 -16,1.5573 -3.85,0.3279 -10.15,1.0662 -14,1.6407 -3.85,0.5746 -10.375,1.1799 -14.5,1.3452 -7.2382,0.29 -40.8388,3.0757 -48,3.9794 -1.925,0.243 -12.05,1.1374 -22.5,1.9877 -10.45,0.8503 -20.575,1.7562 -22.5,2.0131 -1.925,0.2569 -6.425,0.7062 -10,0.9985 -3.575,0.2923 -15.95,1.4149 -27.5,2.4947 -11.55,1.0798 -28.2,2.4532 -37,3.0519 -8.8,0.5986 -18.93868,1.4952 -22.53039,1.9922 -8.2651,1.1439 -19.66071,0.6822 -21.2018,-0.8589 -0.90597,-0.906 -0.60999,-1.1772 1.27636,-1.1696 4.57925,0.018 19.72887,-1.4925 24.85765,-2.4789 1.53136,-0.2945 10.71951,-1.2845 18.09818,-1.95 1.925,-0.1736 5.075,-0.5769 7,-0.8963 1.925,-0.3194 7.325,-0.8648 12,-1.212 4.675,-0.3472 10.075,-0.7686 12,-0.9364 1.925,-0.1679 7.1,-0.5944 11.5,-0.9479 4.4,-0.3534 8.931,-0.8409 10.069,-1.0833 1.1379,-0.2423 6.7629,-0.6905 12.5,-0.9959 5.737,-0.3054 11.556,-0.7549 12.931,-0.9988 1.375,-0.244 5.2,-0.7003 8.5,-1.014 3.3,-0.3137 10.05,-0.9751 15,-1.4698 4.95,-0.4947 14.4996,-1.1738 21.2213,-1.5091 6.7217,-0.3353 13.2467,-0.8106 14.5,-1.0562 2.5831,-0.5063 10.2132,-1.3148 19.7787,-2.0958 4.5826,-0.3741 7.5483,-1.242 10.0538,-2.9422 4.0404,-2.7419 5.6751,-2.9325 8.2714,-0.9645 1.0039,0.7609 3.2539,1.2244 5,1.03 2.8853,-0.3213 10.6356,-0.899 27.1748,-2.0258 7.4518,-0.5076 13.5629,-1.1253 29.5,-2.9816 6.875,-0.8008 15.425,-1.6753 19,-1.9433 6.8033,-0.5101 19.7228,-1.6097 24,-2.0427 1.375,-0.1392 6.1,-0.5446 10.5,-0.901 4.4,-0.3563 9.125,-0.8607 10.5,-1.1209 1.375,-0.2601 6.053,-0.7093 10.3955,-0.9982 4.3425,-0.289 8.3306,-0.7943 8.8625,-1.123 0.8937,-0.5524 0.4718,-30.23859 -0.758,-53.34065 -0.2489,-4.675 -0.7178,-22.225 -1.0419,-39 -0.3242,-16.775 -0.7545,-33.2 -0.9562,-36.5 -0.2017,-3.3 -0.9028,-26.925 -1.558,-52.5 -0.6553,-25.575 -1.491,-48.06402 -1.8573,-49.97559 -0.6007,-3.13488 -1.4463,-3.87291 -8.6263,-7.52877 -4.3782,-2.22925 -12.0103,-6.24222 -16.9603,-8.91771 -4.95,-2.67548 -11.2116,-5.96186 -13.9147,-7.30306 -2.7031,-1.34119 -6.5281,-3.74172 -8.5,-5.33449 -1.9719,-1.59278 -6.4646,-5.25073 -9.9838,-8.12879 -12.1343,-9.92369 -24.4115,-18.626 -30.8228,-21.84767 -6.9088,-3.47166 -8.2787,-5.42927 -8.2787,-11.83018 0,-4.55308 6.6282,-15.35536 10.7669,-17.54746 1.5032,-0.79616 3.9587,-3.01489 5.4568,-4.93049 1.498,-1.91561 5.2273,-4.70786 8.2874,-6.20501 3.06,-1.49715 5.9866,-3.51231 6.5035,-4.47812 0.7943,-1.48402 10.2826,-7.69307 13.4854,-8.82462 4.1329,-1.46017 9.1886,-4.78767 12.3943,-8.15762 2.0878,-2.19473 4.687,-3.99042 5.776,-3.99042 2.1096,0 5.4101,-4.2294 14.8271,-19 7.459,-11.69957 9.6615,-14.88638 12.1272,-17.54736 l 2.1247,-2.29283 -4.3051,-30.3299 c -7.6925,-54.19525 -10.4075,-74.22027 -10.8912,-80.32991 -0.3981,-5.02794 -0.2396,-4.62291 0.9781,2.5 0.7992,4.675 2.6059,16.15 4.0149,25.5 4.0432,26.82986 9.4492,59.90451 9.9703,61 0.2617,0.55 0.2091,-10.475 -0.1167,-24.5 -0.3258,-14.025 -0.3643,-25.275 -0.085,-25 0.2788,0.275 0.7639,8.15 1.0779,17.5 1.388,41.32657 1.8913,49.83606 3.7553,63.5 4.161,30.50222 7.8759,52.81123 9.4024,56.46477 2.18,5.21732 19.296,30.3854 28.2469,41.53523 4.4758,5.57528 43.6225,43.82414 52.5883,51.38213 5.3809,4.53599 23.6913,25.96094 29.5854,34.61787 3.3575,4.93122 7.8248,13.05474 18.8557,34.28804 3.2862,6.32547 3.4133,6.90119 1.866,8.44857 -2.708,2.70792 -6.4123,0.54287 -13.9107,-8.13014 -6.3518,-7.3463 -14.9488,-14.60647 -17.2965,-14.60647 -0.5616,0 -2.588,-1.04602 -4.5032,-2.32448 -1.9151,-1.27846 -5.2821,-3.0505 -7.4821,-3.93785 -2.2,-0.88736 -7.825,-3.26334 -12.5,-5.27996 -4.675,-2.01662 -10.75,-4.5535 -13.5,-5.63751 -2.75,-1.08401 -7.0718,-3.29175 -9.604,-4.90609 -2.5321,-1.61435 -6.8537,-3.60327 -9.6033,-4.41984 -2.7497,-0.81657 -6.7529,-2.6747 -8.8961,-4.12919 -2.1431,-1.45448 -6.2151,-3.44228 -9.0489,-4.41732 -2.8337,-0.97504 -6.0962,-2.278 -7.25,-2.89546 -1.7666,-0.94548 -2.0965,-0.84092 -2.0902,0.66252 0,0.98185 2.4983,18.21018 5.5426,38.28518 3.0444,20.075 6.8364,45.275 8.4266,56 2.8573,19.27014 3.9675,26.61905 8.0069,53 1.1369,7.425 3.6561,24.075 5.5982,37 4.7768,31.79015 3.9383,29.32845 9.9574,29.23255 4.408,-0.07 10.0081,-0.44726 25.4608,-1.71426 2.475,-0.20293 9,-0.8451 14.5,-1.42705 5.5,-0.58195 13.6,-1.3044 18,-1.60545 10.2965,-0.7045 17.9811,-1.36921 23,-1.9895 5.1139,-0.63201 26.1186,-1.74436 29.8222,-1.5793 1.5523,0.0692 2.6084,-0.22134 2.3469,-0.6456 -0.2614,-0.42427 2.2936,-0.89289 5.6778,-1.04138 3.3842,-0.1485 8.8531,-0.50022 12.1531,-0.78161 3.3,-0.28139 9.6284,-0.64383 14.063,-0.80543 4.4347,-0.1616 8.5972,-0.62394 9.25,-1.02741 0.6529,-0.40348 1.187,-0.2412 1.187,0.36061 0,0.70807 0.6176,0.78606 1.75,0.22101 0.9625,-0.48025 5.4622,-0.83358 9.9993,-0.78518 4.5372,0.0484 8.2497,-0.17076 8.25,-0.48703 4e-4,-0.31626 1.4632,-0.62075 3.2507,-0.67663 3.0066,-0.094 12.535,-0.63685 27.25,-1.55246 5.9163,-0.36814 24.0544,-1.92617 26,-2.23336 0.55,-0.0868 2.4625,-0.22643 4.25,-0.31021 4.0528,-0.18993 4.2316,-2.14382 0.4862,-5.31342 -1.5201,-1.28639 -3.8485,-3.91389 -5.1744,-5.83889 -1.3258,-1.925 -5.3696,-6.437 -8.9862,-10.02668 -3.6166,-3.58967 -9.0506,-9.59313 -12.0756,-13.34102 -3.025,-3.7479 -8.2999,-9.94508 -11.7219,-13.77153 -3.4221,-3.82644 -7.0066,-8.28548 -7.9656,-9.90897 -0.9591,-1.62349 -2.0546,-2.9518 -2.4346,-2.9518 -0.38,0 -4.3597,-4.1625 -8.8438,-9.25 -12.4261,-14.09804 -16.3578,-18.6759 -31.5341,-36.71595 -3.3,-3.92272 -7.2375,-8.54118 -8.75,-10.26324 -1.5125,-1.72207 -2.75,-3.50466 -2.75,-3.96132 0,-0.45667 -3.6535,-4.53812 -8.1188,-9.0699 C 1446.7748,844.3959 1438,833.83473 1438,832.49378 c 0,-2.00502 -13.5608,-22.61088 -16.5468,-25.14301 -0.66,-0.55973 -2.0445,-2.39121 -3.0766,-4.06996 -1.7735,-2.88454 -6.1163,-8.03937 -18.0554,-21.43118 -2.8484,-3.19494 -6.437,-7.76023 -7.9747,-10.14508 -1.5378,-2.38486 -4.756,-6.56259 -7.1518,-9.28386 -2.3957,-2.72128 -5.276,-6.77128 -6.4006,-9 -1.1246,-2.22873 -4.2383,-6.3878 -6.9194,-9.24238 -2.6811,-2.85458 -4.8747,-5.74895 -4.8747,-6.43195 0,-0.68299 -1.7796,-5.58158 -3.9546,-10.88575 -4.177,-10.18626 -7.3389,-25.73732 -8.5587,-42.09356 -0.6656,-8.9247 0.5995,-18.72958 4.5675,-35.3986 1.1957,-5.02313 2.2874,-15.20246 2.9338,-27.35577 0.5662,-10.64568 1.7433,-22.57068 2.6158,-26.5 0.8725,-3.92933 1.8264,-9.53239 2.1198,-12.45126 0.5139,-5.11183 -0.9177,-24.24363 -2.7456,-36.69297 -0.4845,-3.3 -1.1418,-15 -1.4605,-26 -0.9587,-33.08469 -1.4741,-36.78981 -11.9639,-86.01666 -2.4632,-11.55917 -5.1531,-26.63417 -5.9776,-33.5 -0.8245,-6.86584 -3.1111,-23.28334 -5.0813,-36.48334 -3.6368,-24.36651 -4.4529,-30.24061 -6.9698,-50.16935 -1.4793,-11.71281 -3.8968,-24.51829 -5.3782,-28.48826 -0.4808,-1.28831 -1.187,-4.59239 -1.5694,-7.34239 -1.0165,-7.3097 -6.1972,-28.1444 -10.5678,-42.5 -2.0932,-6.875 -6.0731,-19.925 -8.8444,-29 -2.7712,-9.075 -7.1258,-23.42329 -9.6768,-31.88509 -4.4243,-14.67555 -14.6318,-37.65721 -21.5926,-48.61491 -4.5479,-7.15925 -12.6133,-27.732456 -22.3459,-56.999996 -5.3044,-15.951221 -14.0764,-39.648031 -16.4533,-44.447339 -3.3021,-6.667354 -8.3299,-14.546798 -12.3423,-19.342693 -2.2041,-2.6345175 -3.6909,-5.1066402 -3.3039,-5.49360596 1.2597,-1.25967154 11.1703,11.75639296 17.3478,22.78363796 1.6946,3.025 4.8735,10.45 7.0642,16.5 2.1907,6.05 4.9538,13.475 6.1402,16.5 1.1865,3.025 3.5079,9.55 5.1587,14.5 9.5679,28.688682 16.9259,47.164916 22.9094,57.526426 7.7314,13.3883 17.155,34.79903 21.7751,49.47357 16.4133,52.13294 25.4083,83.17657 27.6714,95.5 0.8586,4.675 2.6329,13.675 3.9431,20 2.7307,13.18338 3.9073,20.48101 6.1157,37.93341 0.8653,6.83837 2.6581,19.21337 3.984,27.5 2.4508,15.3182 5.079,33.23916 7.7823,53.06659 0.8249,6.05 3.3166,19.325 5.5371,29.5 9.0988,41.69244 10.0697,49.01134 10.214,77 0.053,10.175 0.7234,22.70501 1.4908,27.84447 2.9101,19.48846 3.9101,35.78361 2.5728,41.92524 -3.1406,14.42293 -4.1917,22.80735 -4.6271,36.90902 -0.4274,13.84406 -1.8672,27.4402 -3.1206,29.46817 -1.1816,1.91183 -3.3757,19.0274 -3.3917,26.45726 -0.019,8.80621 3.0994,31.24378 5.3399,38.42252 3.0678,9.82927 8.894,21.61653 12.5909,25.47332 2.1088,2.2 4.5672,5.45769 5.4631,7.23931 0.8959,1.78162 3.6252,5.48706 6.0652,8.23431 2.4399,2.74725 4.9785,6.01456 5.6412,7.26069 1.6047,3.01725 18.9285,24.02958 22.4795,27.26569 2.2389,2.04038 18.1972,24.17364 20.9093,29 5.353,9.52602 9.4545,15.03743 17.1164,23 4.2339,4.4 9.6863,10.6371 12.1165,13.86022 2.4303,3.22312 6.9706,8.66789 10.0896,12.09949 6.7768,7.45603 18.5642,21.28198 22.4901,26.37965 1.5505,2.01335 7.1755,8.47927 12.5,14.36871 13.152,14.54756 18.2715,20.45254 23.2848,26.85722 2.3397,2.98909 4.8064,5.77103 5.4815,6.18208 0.6752,0.41106 2.4414,2.66614 3.9251,5.01131 1.4837,2.34516 4.4764,5.602 6.6506,7.23743 2.1742,1.63542 5.6956,5.23033 7.8254,7.98869 6.2663,8.11557 12.6688,14.5152 14.5216,14.5152 1.2159,0 1.5751,0.57352 1.2169,1.94318 -0.3103,1.18649 0.2824,2.64678 1.5219,3.75 1.1165,0.99375 7.1311,7.73932 13.3659,14.99017 9.7715,11.3639 14.7151,18.0901 31.4695,42.8167 5.3482,7.8929 13.6113,28.1435 15.4395,37.838 1.8593,9.8595 1.8803,29.1369 0.041,37.662 -1.6049,7.438 -9.682,24.888 -15.273,32.996 -3.2714,4.744 -5.106,6.1806 -13.4091,10.5 -5.2905,2.7522 -12.9405,7.3707 -17,10.2633 -11.541,8.2236 -16.9413,11.6308 -22.8808,14.4361 -12.2336,5.778 -20.757,9.706 -25.5,11.7518 -17.1953,7.4166 -31.8222,17.9141 -35.7936,25.6884 -4.8615,9.5169 -4.1699,24.709 1.9968,43.8644 4.6851,14.5533 14.098,30.2391 23.4577,39.0905 5.7621,5.4491 26.6514,19.5437 39.3731,26.5662 9.2687,5.1163 14.8983,10.3531 17.3976,16.1838 5.3611,12.5069 6.9275,34.8504 3.1419,44.8184 -1.1819,3.1124 -2.8438,6.2355 -3.6929,6.9402 -0.8491,0.7047 -2.8456,3.8601 -4.4367,7.012 -2.8192,5.5849 -4.187,7.3667 -11.6323,15.1539 -8.5675,8.9609 -22.6122,16.7414 -33.7453,18.6942 -6.4028,1.1231 -27.3967,1.4268 -29.9845,0.4338 -4.1808,-1.6043 -0.5675,-2.3633 9.6682,-2.0308 18.968,0.6163 30.0952,-2.5298 42.8578,-12.1174 7.3746,-5.5399 12.7209,-11.0027 15.8985,-16.2448 12.3338,-20.3473 13.0166,-22.5011 11.8888,-37.5 -1.7508,-23.2859 -5.2325,-29.7492 -20.7384,-38.4975 -12.3407,-6.9625 -32.4094,-20.6346 -38.8686,-26.4799 -11.4773,-10.3864 -20.8178,-28.1244 -25.8992,-49.1841 -2.239,-9.279 -2.5518,-12.4212 -2.1744,-21.8385 0.3738,-9.3252 0.8327,-11.7613 3.0145,-16 4.927,-9.5721 16.2711,-17.4759 42.771,-29.7999 19.0199,-8.8453 25.8251,-12.2951 30,-15.208 2.475,-1.7268 7.6322,-5.3565 11.4604,-8.0659 3.8282,-2.7094 11.2532,-7.1924 16.5,-9.9621 8.8874,-4.6916 9.853,-5.5121 14.1229,-12 5.7793,-8.7814 13.3685,-26.1399 14.8128,-33.8809 2.4978,-13.3876 0.3261,-35.6428 -4.6432,-47.5832 -8.1338,-19.5441 -34.1432,-55.8375 -55.3183,-77.19118 l -6.6352,-6.69112 -24.3997,2.36236 c -13.4198,1.29929 -30.4747,2.87189 -37.8997,3.49466 -27.0289,2.26704 -36.5697,3.11472 -40,3.55393 -4.4741,0.57284 -35.1738,3.26507 -45,3.9463 -4.125,0.28597 -9.75,0.75467 -12.5,1.04156 -2.75,0.28688 -7.25,0.70416 -10,0.92728 -2.75,0.22313 -9.725,0.86771 -15.5,1.43231 -5.775,0.5646 -14.1,1.288 -18.5,1.6076 -4.4,0.3196 -9.8,0.7817 -12,1.027 -9.0356,1.0072 -14.3537,1.5227 -20.8998,2.026 -3.7949,0.2917 -7.2824,0.7669 -7.75,1.0559 -1.4381,0.8888 -1.0038,5.068 3.5831,34.4803 2.4384,15.6349 6.0499,39.2271 8.0257,52.4271 1.9759,13.2 4.2502,28.275 5.0541,33.5 0.804,5.225 3.9376,25.925 6.9638,46 3.0261,20.075 5.9494,38.975 6.4962,42 0.5468,3.025 1.6638,10.225 2.4822,16 2.1211,14.9687 8.4612,56.0992 9.0377,58.6305 0.2668,1.1718 1.39,2.3672 2.4961,2.6564 2.3999,0.6276 2.6156,3.3875 0.4515,5.7788 -1.4161,1.5647 -1.3198,3.3642 1.0477,19.5787 1.4339,9.8206 3.4791,23.0306 4.5449,29.3556 3.0506,18.1038 21.7067,142.6777 25.9084,173 3.012,21.7366 4.2226,35.4977 3.4082,38.7424 -0.8938,3.5612 -2.0598,2.659 -3.2213,-2.4924 -1.0677,-4.7355 -4.9351,-28.013 -7.0195,-42.25 -0.6039,-4.125 -2.2021,-14.7 -3.5514,-23.5 -1.3494,-8.8 -2.6675,-17.575 -2.9291,-19.5 -0.2617,-1.925 -1.4237,-9.8 -2.5822,-17.5 -1.1586,-7.7 -2.7678,-18.5 -3.576,-24 -0.8083,-5.5 -1.913,-12.7 -2.4549,-16 -3.8873,-23.6719 -7.0451,-44.489 -8.0396,-53 -0.6427,-5.5 -1.315,-10.2377 -1.4941,-10.5282 -0.1791,-0.2906 -0.8359,-4.3406 -1.4597,-9 -1.0665,-7.9674 -1.5102,-10.9387 -2.5346,-16.9718 -0.2334,-1.375 -0.6906,-4.75 -1.0159,-7.5 -0.5485,-4.6356 -4.2002,-29.0962 -6.4195,-43 -0.5267,-3.3 -1.448,-9.15 -2.0474,-13 -0.5994,-3.85 -1.7315,-10.825 -2.5159,-15.5 -0.7844,-4.675 -2.5959,-17.05 -4.0255,-27.5 -1.4296,-10.45 -3.2128,-22.825 -3.9627,-27.5 -0.7499,-4.675 -1.6066,-10.3 -1.9037,-12.5 -0.2972,-2.2 -1.1971,-8.05 -1.9997,-13 -0.8027,-4.95 -1.6826,-10.575 -1.9552,-12.5 -0.2727,-1.925 -1.206,-8.45 -2.0739,-14.5 -0.8679,-6.05 -2.2851,-15.95 -3.1492,-22 -1.7981,-12.5886 -5.5228,-37.2291 -8.3896,-55.5 -2.1434,-13.6605 -2.838,-18.4256 -3.5713,-24.5 -0.2656,-2.2 -0.9093,-6.475 -1.4305,-9.5 -0.5212,-3.025 -1.4758,-8.587 -2.1215,-12.3601 l -1.1739,-6.86 -9.116,0.6587 c -13.0779,0.9451 -31.5699,3.182 -32.2945,3.9065 -0.3401,0.3401 -0.165,14.9141 0.3891,32.3866 0.554,17.4726 1.2977,43.2433 1.6526,57.2683 0.3549,14.025 1.0768,36.75 1.6043,50.5 0.5275,13.75 1.2171,32.875 1.5325,42.5 0.3153,9.625 1.2117,35.275 1.9918,57 0.7802,21.725 1.6705,48.275 1.9785,59 0.308,10.725 0.7811,25.575 1.0514,33 0.2702,7.425 0.9301,26.55 1.4664,42.5 1.2917,38.4181 1.9393,56.5918 2.5124,70.5 0.2606,6.325 0.7187,21.175 1.0179,33 0.2992,11.825 0.7549,26.225 1.0128,32 0.2579,5.775 0.9156,25.575 1.4615,44 0.546,18.425 1.2154,39.575 1.4876,47 0.2722,7.425 0.7307,21.6 1.0188,31.5 1.163,39.9618 2.4973,80.5846 2.9727,90.5 0.2768,5.775 0.7776,20.4 1.1128,32.5 1.4033,50.6575 3.3384,94.2321 4.3318,97.5425 0.6591,2.1965 0.7309,4.7004 0.189,6.5901 -0.4807,1.6762 -0.6352,13.9195 -0.3432,27.2075 0.3913,17.8071 0.2294,24.1599 -0.6157,24.1599 -0.6306,0 -1.1835,-1.0125 -1.2287,-2.25 z M 1292,1003.4374 c 1.925,-0.1856 7.1,-0.6744 11.5,-1.0862 10.1752,-0.9525 10.3262,-0.9756 11.0368,-1.6862 0.3271,-0.3271 -0.3515,-6.82765 -1.508,-14.44565 -1.1565,-7.61799 -2.75,-18.5759 -3.5411,-24.3509 -2.6454,-19.31118 -12.664,-87.97522 -15.4661,-106 -0.4703,-3.025 -1.5919,-10.45 -2.4924,-16.5 -0.9005,-6.05 -1.8207,-12.125 -2.0448,-13.5 -0.2241,-1.375 -1.108,-7.9 -1.9642,-14.5 -2.7065,-20.86386 -4.7256,-30.64654 -6.4507,-31.25369 -0.8632,-0.30384 -4.1906,-2.14325 -7.3942,-4.08759 -7.3502,-4.46108 -7.8408,-3.85809 -7.1933,8.84128 0.2665,5.225 0.722,19.85 1.0123,32.5 0.2903,12.65 0.7596,28.85 1.0429,36 0.5367,13.54735 1.7311,52.04347 3.4905,112.5 0.5682,19.525 1.2861,36.32335 1.5953,37.32955 0.5834,1.8983 1.0979,1.905 18.377,0.2394 z m 93.0174,-185.26842 c -2.8681,-5.39029 -6.3911,-11.37553 -7.8288,-13.30053 -9.0185,-12.07504 -22.884,-27.41003 -35.7349,-39.52197 -20.5586,-19.37645 -41.3867,-40.11344 -45.6778,-45.47803 -3.6157,-4.52022 -5.7997,-7.53329 -15.5564,-21.46172 -2.9042,-4.14605 -5.5359,-7.53828 -5.8482,-7.53828 -0.6823,0 0.2565,9.19139 2.196,21.5 0.78,4.95 3.2314,20.925 5.4476,35.5 2.2161,14.575 4.2437,27.175 4.5057,28 0.6741,2.12256 6.3135,5.7463 12.4112,7.97506 2.8593,1.04512 7.4109,3.31979 10.1148,5.05481 2.7038,1.73503 6.9685,3.77233 9.4772,4.52733 2.5087,0.755 7.1385,2.96349 10.2884,4.90776 3.15,1.94427 6.06,3.53504 6.4667,3.53504 0.5997,0 11.6575,4.47361 22.2211,8.98989 8.7953,3.7603 23.8108,11.60843 27.5,14.37342 2.475,1.85496 4.6648,3.2298 4.8661,3.05521 0.2014,-0.1746 -1.9805,-4.72769 -4.8487,-10.11799 z M 1282,773.54612 c 0,-0.17727 -1.1426,-7.93977 -2.5391,-17.25 -1.3964,-9.31022 -3.1991,-21.87767 -4.0059,-27.92767 -4.2561,-31.91627 -6.8667,-47.43319 -8.7155,-51.80374 -1.2422,-2.93668 -2.3909,-4.44486 -2.9554,-3.88038 -0.9323,0.93227 1.719,89.7808 2.7565,92.37282 0.964,2.40866 15.4594,10.36827 15.4594,8.48897 z m -18.3318,-26.92767 c -0.3502,-10.0375 -0.9107,-31.075 -1.2456,-46.75 -0.6227,-29.13952 -1.0784,-34.38758 -3.8214,-44 -1.0035,-3.51659 -1.5982,-9.82744 -1.649,-17.5 -0.1275,-19.233 -0.7638,-19.80171 -8.6234,-7.70787 -11.3782,17.50789 -15.0373,22.10524 -18.1765,22.83743 -1.4588,0.34023 -4.4523,2.34124 -6.6523,4.44668 -2.2,2.10544 -6.25,4.81917 -9,6.03052 -6.5025,2.86429 -12.5183,6.79783 -14.9017,9.74379 -1.0459,1.29281 -3.8633,3.19144 -6.261,4.21918 -4.1851,1.79395 -9.7425,6.41845 -19.0104,15.81911 -3.3738,3.42209 -4.3269,5.1292 -4.3269,7.75 0,4.24219 2.0839,6.33904 10.1523,10.21542 3.4912,1.67734 9.4977,5.58245 13.3477,8.67803 3.85,3.09557 7.9,6.1041 9,6.68561 1.1,0.58151 4.3034,3.13288 7.1187,5.6697 6.9393,6.25292 13.709,11.10062 19.8015,14.17956 10.5161,5.3145 29.154,15.26061 31.0523,16.57113 1.0849,0.74894 2.391,1.36171 2.9025,1.36171 0.5625,0 0.6784,-7.20987 0.2932,-18.25 z m 0.9941,-92 c -0.2774,-0.6875 -0.5044,-0.125 -0.5044,1.25 0,1.375 0.227,1.9375 0.5044,1.25 0.2774,-0.6875 0.2774,-1.8125 0,-2.5 z m 67.942,1256.00005 c -1.5199,-2.3719 -1.8964,-4.8038 -1.715,-11.0769 0.1372,-4.7417 4.5534,-9.6731 8.6626,-9.6731 2.6742,0 2.6979,-0.059 2.0322,-5.0779 -0.3705,-2.7928 -1.8284,-8.0803 -3.2398,-11.75 -2.5929,-6.7413 -5.3829,-19.0397 -4.6331,-20.4221 0.2238,-0.4125 1.2119,-0.75 2.1959,-0.75 2.5369,0 5.4919,6.9068 4.6314,10.8249 -0.4599,2.0938 0.1853,5.631 2.0718,11.358 4.5184,13.7165 3.8571,30.8587 -1.43,37.0671 -2.1459,2.5199 -6.8153,2.2476 -8.576,-0.5 z m 8.0996,-7.0191 c 1.9368,-6.4741 1.7071,-11.7309 -0.5128,-11.7309 -4.0136,0 -5.6154,2.4748 -5.6542,8.736 -0.023,3.6944 0.4969,6.5954 1.3707,7.65 1.8178,2.1937 3.1277,0.9224 4.7963,-4.6551 z m -18.2494,-32.1854 c -2.7997,-2.7998 -3.1045,-5.3039 -0.9863,-8.1044 0.8075,-1.0676 1.4825,-2.72 1.5,-3.672 0.019,-1.0282 1.1165,-2.0032 2.7032,-2.4015 3.9155,-0.9827 7.3286,3.2631 7.3286,9.1167 0,7.3754 -5.5619,10.0448 -10.5455,5.0612 z m 6.115,-8.1246 c -0.6549,-2.6093 -2.5695,-3.344 -2.5695,-0.986 0,0.7892 0.5208,2.7017 1.1574,4.25 0.9468,2.3028 1.2358,2.4822 1.5885,0.986 0.2372,-1.006 0.1578,-2.9185 -0.1764,-4.25 z m -14.3424,8.3291 c -1.9018,-2.3357 -5.1335,-14.6375 -5.8118,-22.1232 -0.6449,-7.1167 -0.5578,-7.5753 1.909,-10.042 3.0821,-3.0822 3.7519,-3.1534 6.7579,-0.7193 3.0582,2.4764 3.0135,9.7168 -0.1048,16.9653 -1.8659,4.3376 -2.061,5.6903 -1.1187,7.7584 1.3451,2.9521 1.5261,9.4108 0.2637,9.4108 -0.4826,0 -1.3355,-0.5625 -1.8953,-1.25 z m 1.7278,-26.0314 c 0.032,-3.4172 -0.3952,-4.9503 -1.498,-5.3735 -0.8487,-0.3257 -1.8612,-0.2721 -2.25,0.119 -0.9218,0.9274 -0.7143,11.8135 0.2706,14.1939 0.6676,1.6136 0.9276,1.4701 2.0972,-1.158 0.7343,-1.65 1.3554,-5.1516 1.3802,-7.7814 z m 64.048,-541.2109 c -1.3201,-3.4722 -1.2836,-30.9569 0.048,-35.7499 1.431,-5.1525 5.2957,-6.2194 8.6027,-2.3747 3.8785,4.509 6.7718,15.8052 6.8118,26.5947 0.031,8.2449 -0.1926,9.5228 -1.7149,9.8234 -1.471,0.2904 -1.7524,-0.4236 -1.7653,-4.4779 -0.02,-6.3693 -0.8987,-7.6867 -4.271,-6.4045 -2.4247,0.9218 -2.6425,1.5026 -2.917,7.7784 -0.2414,5.5185 -0.6222,6.8442 -2.0438,7.1152 -1.1383,0.2171 -2.0965,-0.5861 -2.75,-2.3047 z m 9.3864,-16.8031 c 1.6711,-1.2219 1.6799,-1.6488 0.1559,-7.5302 -1.8202,-7.0245 -3.5214,-11.1744 -4.5807,-11.1744 -1.1229,0 -1.9645,5.6226 -1.9645,13.125 0,6.5149 0.1209,6.875 2.3089,6.875 1.2698,0 3.106,-0.5829 4.0804,-1.2954 z m -99.6393,7.572 c 1.7875,-0.2218 4.7125,-0.2218 6.5,0 1.7875,0.2218 0.325,0.4033 -3.25,0.4033 -3.575,0 -5.0375,-0.1815 -3.25,-0.4033 z m 22,0.061 c 0.6875,-0.2774 1.8125,-0.2774 2.5,0 0.6875,0.2774 0.125,0.5044 -1.25,0.5044 -1.375,0 -1.9375,-0.227 -1.25,-0.5044 z m 26.9777,-1.0594 c 1.7752,-0.2209 4.9252,-0.2246 7,-0.01 2.0748,0.2165 0.6223,0.3972 -3.2277,0.4017 -3.85,0 -5.5475,-0.1727 -3.7723,-0.3936 z M 1629,1253.8685 c 0,-0.55 0.45,-1 1,-1 0.55,0 1,0.45 1,1 0,0.55 -0.45,1 -1,1 -0.55,0 -1,-0.45 -1,-1 z M 141.64782,1195.1077 c -0.34159,-0.5527 1.0356,-1.265 3.12036,-1.6138 2.0525,-0.3434 4.85682,-0.9086 6.23182,-1.2559 2.3266,-0.5878 2.38816,-0.5132 0.88758,1.0761 -1.85201,1.9616 -9.32678,3.2708 -10.23976,1.7936 z m -22.31123,-5.2994 c -4.16444,-2.6678 -6.44773,-6.1691 -5.2312,-8.0217 0.76853,-1.1704 1.13459,-1.0687 2.09549,0.5819 0.64036,1.1 2.65713,3.4546 4.4817,5.2323 4.88737,4.7621 4.25657,5.7966 -1.34599,2.2075 z M 165.5,1185.8685 c -0.33992,-0.55 -0.22633,-1 0.25242,-1 0.47875,0 1.74865,-0.7875 2.822,-1.75 1.07335,-0.9625 2.80274,-2.425 3.84309,-3.25 1.83893,-1.4583 1.84524,-1.4104 0.22667,1.7204 -2.15977,4.1776 -5.84344,6.3842 -7.14418,4.2796 z m 13.07889,-12.8723 c -0.76319,-1.2349 3.04743,-10.1277 4.33977,-10.1277 0.47778,0 0.40658,1.9125 -0.1582,4.25 -1.1542,4.777 -3.13825,7.5658 -4.18157,5.8777 z m -73.00693,-9.8008 c -1.46387,-3.8147 -1.84157,-13.2971 -0.58973,-14.8055 2.40276,-2.8951 3.01777,-1.485 3.01777,6.9196 0,8.0471 -1.05336,11.4683 -2.42804,7.8859 z m 79.98704,-13.4097 c -0.62172,-1.7394 -0.17072,-7.6388 0.64643,-8.456 0.3278,-0.3278 0.91253,1.2775 1.29939,3.5673 0.43395,2.5686 0.29302,4.5737 -0.36794,5.2346 -0.76175,0.7618 -1.21769,0.6618 -1.57788,-0.3459 z m -75.05271,-18.0489 c 2.06449,-6.8271 5.39574,-11.2996 7.12685,-9.5685 0.80322,0.8032 -4.96693,10.9781 -6.51905,11.4955 -0.97178,0.3239 -1.13346,-0.1887 -0.6078,-1.927 z m 66.73854,-5.1183 c -0.55003,-0.6875 -1.27872,-2.259 -1.61931,-3.4922 -0.34059,-1.2332 -0.87599,-3.1457 -1.18977,-4.25 -0.84708,-2.9811 1.2995,-2.4314 2.89823,0.7422 2.95333,5.8626 2.8914,10.7255 -0.0891,7 z M 0,1123.0122 c 0,-1.6015 2.0063057,-1.9719 18.75,-3.4613 10.3125,-0.9174 24.825,-2.3139 32.25,-3.1033 7.425,-0.7895 17.325,-1.7181 22,-2.0636 4.675,-0.3455 9.175,-0.8035 10,-1.0179 0.825,-0.2143 10.05,-1.1187 20.5,-2.0099 10.45,-0.8911 20.125,-1.8202 21.5,-2.0646 1.375,-0.2444 5.2,-0.7264 8.5,-1.071 3.3,-0.3447 6.56127,-1.069 7.24726,-1.6096 0.68599,-0.5405 8.78599,-1.1102 18,-1.2659 9.21401,-0.1557 23.50274,-1.0148 31.75274,-1.9092 13.33494,-1.4455 48.77516,-4.5544 69.5,-6.0966 4.125,-0.307 8.625,-0.764 10,-1.0156 1.375,-0.2516 9.925,-1.1267 19,-1.9447 9.075,-0.818 60.825,-5.5522 115,-10.5205 54.175,-4.9683 106.825,-9.6943 117,-10.5024 10.175,-0.808 20.525,-1.6855 23,-1.95 21.50768,-2.2985 34.48909,-3.4946 92.5,-8.5231 49.63537,-4.3025 65.99688,-5.8109 81.5,-7.5139 4.1737,-0.4584 11.96466,-1.1197 29.5,-2.5038 13.10085,-1.034 42.16248,-3.617 50.5,-4.4884 2.475,-0.2587 9.225,-0.7274 15,-1.0416 5.775,-0.3142 12.64225,-0.7221 15.26056,-0.9065 2.61831,-0.1843 5.00812,0.065 5.31069,0.555 0.31806,0.5146 1.29181,0.4932 2.30835,-0.051 2.33891,-1.2517 8.27774,-1.0364 7.83754,0.2842 -0.51789,1.5537 -5.71363,2.7455 -5.73245,1.3149 -0.01,-0.737 -0.28463,-0.7969 -0.75,-0.1635 -0.88354,1.2026 -2.32423,1.5687 -8.23469,2.0927 -2.475,0.2195 -13.5,1.2775 -24.5,2.3512 -11,1.0736 -22.475,2.1889 -25.5,2.4784 -6.274,0.6004 -39.73022,3.4634 -48,4.1077 -3.025,0.2357 -7.075,0.6491 -9,0.9187 -1.925,0.2696 -7.1,0.7551 -11.5,1.0788 -4.4,0.3238 -9.35,0.7473 -11,0.9412 -1.65,0.1938 -6.825,0.6484 -11.5,1.0101 -4.675,0.3618 -10.75,0.8694 -13.5,1.1281 -7.45303,0.7011 -14.13395,1.2608 -22.5,1.8849 -4.125,0.3078 -8.625,0.749 -10,0.9805 -1.375,0.2316 -6.1,0.6863 -10.5,1.0105 -4.4,0.3243 -12.275,1.0034 -17.5,1.5092 -5.225,0.5059 -13.55,1.1917 -18.5,1.5242 -14.66656,0.985 -20.82177,1.4994 -24,2.0057 -3.32361,0.5295 -24.10195,2.3583 -35,3.0806 -3.85,0.2552 -10.6,0.886 -15,1.4019 -4.4,0.5159 -11.825,1.1826 -16.5,1.4817 -8.48045,0.5425 -15.37592,1.1827 -22,2.0425 -3.0389,0.3945 -16.87307,1.6208 -33.5,2.9697 -2.75,0.2231 -6.575,0.6228 -8.5,0.8881 -1.925,0.2653 -7.325,0.7452 -12,1.0664 -7.73048,0.5312 -14.29489,1.1527 -22.5,2.1303 -1.65,0.1965 -9.74369,0.8599 -17.98599,1.474 -8.24229,0.6141 -15.28101,1.2989 -15.6416,1.5218 -0.71859,0.4441 -25.79437,2.5562 -35.37241,2.9794 -3.3,0.1458 -7.125,0.5143 -8.5,0.8189 -1.375,0.3045 -10.825,1.2512 -21,2.1037 -10.175,0.8525 -23.675,1.9933 -30,2.5351 -6.325,0.5418 -22.3,1.8897 -35.5,2.9952 -13.2,1.1056 -26.7,2.2774 -30,2.6041 -3.3,0.3267 -8.025,0.7553 -10.5,0.9525 -2.475,0.1971 -6.75,0.5841 -9.5,0.8599 -2.75,0.2758 -9.42244,0.7839 -14.82764,1.129 -5.40519,0.3451 -11.25222,1.036 -12.99339,1.5354 -1.74117,0.4993 -5.55358,0.9079 -8.47203,0.9079 -2.91844,0 -6.68012,0.7105 -8.35929,1.5788 -2.47161,1.2781 -3.58823,1.3571 -5.86334,0.4147 -2.35849,-0.9769 -3.58473,-0.8215 -7.62741,0.9668 -4.36233,1.9296 -4.92714,1.9803 -5.98256,0.537 -0.89503,-1.2241 -2.29188,-1.4711 -6.0199,-1.0648 -7.69613,0.8389 -13.6622,1.4032 -32.35444,3.0602 -9.625,0.8533 -27.175,2.4229 -39,3.4881 -11.825,1.0652 -27.575,2.4272 -35,3.0265 -7.425,0.5994 -14.0625,1.2788 -14.75,1.5098 -0.69151026,0.2324 -1.25,-0.3812 -1.25,-1.3734 z m 1424.1491,-6.8103 c -0.743,-0.8058 -1.1446,-1.6712 -0.8925,-1.9234 0.2521,-0.2521 1.0366,0.2384 1.7434,1.09 1.6692,2.0112 0.9157,2.7491 -0.8509,0.8334 z m -4.4545,0.028 c -0.382,-0.3821 -0.6946,-1.5462 -0.6946,-2.587 0,-1.0408 -0.45,-1.6142 -1,-1.2743 -0.55,0.3399 -1,0.168 -1,-0.382 0,-1.957 1.7591,-2.0417 3.4563,-0.1663 1.1825,1.3066 1.4425,2.4067 0.8282,3.5043 -0.4924,0.88 -1.2079,1.2873 -1.5899,0.9053 z M 1398,1113.9275 c 0,-0.5824 0.45,-1.059 1,-1.059 0.55,0 1,0.1984 1,0.441 0,0.2425 -0.45,0.7191 -1,1.059 -0.55,0.3399 -1,0.1415 -1,-0.441 z m -0.2962,-4.3884 c -0.2853,-0.7436 -0.1173,-1.9862 0.3734,-2.7613 0.4907,-0.7751 0.8991,-1.0494 0.9075,-0.6096 0.01,0.4398 0.7655,0.3798 1.6824,-0.1333 1.196,-0.6693 2.2351,-0.4037 3.6772,0.9398 2.4219,2.2562 1.8232,3.0409 -2.7006,3.5394 -2.2362,0.2464 -3.6007,-0.091 -3.9399,-0.975 z M 143.9193,1097.6185 c -3.65786,-3.8127 -10.65962,-15.2504 -12.48917,-20.4017 -2.12715,-5.9891 -1.40232,-11.0395 2.19855,-15.3189 5.5713,-6.6211 16.3264,-1.8565 17.62253,7.8068 0.53501,3.9889 -1.01794,13.2109 -3.1008,18.4138 -0.6055,1.5125 -0.94362,2.75 -0.75139,2.75 0.19224,0 2.26607,-0.6762 4.60852,-1.5027 7.04047,-2.484 15.01793,0.6964 13.5273,5.3929 -0.91539,2.8842 -6.52756,4.4819 -11.20562,3.1903 -3.0633,-0.8459 -3.92717,-0.7634 -4.60009,0.439 -1.18274,2.1135 -3.31491,1.8311 -5.80983,-0.7695 z m 15.2682,-4.4331 c -0.72188,-0.2889 -1.58438,-0.2534 -1.91667,0.079 -0.33229,0.3323 0.25834,0.5687 1.3125,0.5253 1.16495,-0.048 1.4019,-0.285 0.60417,-0.6042 z m -12.69678,-18.2494 c 0.87188,-6.3394 -1.29255,-11.7287 -5.09354,-12.6827 -5.1632,-1.2958 -7.87389,5.0807 -5.29935,12.466 0.66465,1.9066 1.78503,3.1492 2.83948,3.1492 0.95791,0 2.30345,1.233 2.99009,2.74 1.17169,2.5716 1.33013,2.6283 2.57732,0.9227 0.73088,-0.9996 1.62459,-3.9674 1.986,-6.5952 z M 845,1047.4755 c 0,-0.2162 0.69837,-0.661 1.55194,-0.9886 0.88992,-0.3415 1.29132,-0.1738 0.94098,0.3931 -0.58726,0.9502 -2.49292,1.4054 -2.49292,0.5955 z m 27.84117,-2.7052 c -0.66834,-0.413 -0.21301,-0.9664 1.15155,-1.3995 1.40378,-0.4455 2.54204,-0.2551 3.01107,0.5038 0.57621,0.9324 0.86122,0.8989 1.20814,-0.1419 0.32115,-0.9635 2.24501,-1.3398 6.57327,-1.286 3.58094,0.045 5.87838,-0.3135 5.5386,-0.8633 -0.34486,-0.558 1.29885,-0.7519 4.04778,-0.4776 2.54563,0.254 4.62842,0.08 4.62842,-0.3877 0,-1.2851 4.43225,-1.0173 5.8,0.3504 1.97722,1.9772 1.41082,2.4676 -3.05,2.6404 -2.3375,0.091 -6.5,0.4388 -9.25,0.7738 -7.43747,0.906 -18.39875,1.0664 -19.65883,0.2876 z m 637.14783,-14.1518 c -1.0898,-1.7875 -1.9832,-3.7124 -1.9853,-4.2775 0,-0.5651 -0.7809,-2.1371 -1.7308,-3.4932 -2.0261,-2.8928 -2.3464,-3.9731 -2.9589,-9.9793 -0.411,-4.0308 -0.089,-4.9302 3.0854,-8.626 3.4493,-4.0156 7.0974,-5.99726 8.0885,-4.39369 0.2694,0.43599 -1.0988,2.52699 -3.0404,4.64669 -3.6608,3.9967 -4.8928,6.9088 -4.249,10.0439 0.3002,1.4622 1.2206,1.7911 4.5885,1.6398 4.8833,-0.2195 5.2755,0.7084 1.5411,3.6459 l -2.672,2.1017 2.172,5.2402 c 2.5811,6.2274 2.6276,6.7015 0.6572,6.7015 -0.8331,0 -2.4064,-1.4625 -3.4963,-3.25 z m 18.3098,-2.566 c -1.114,-0.6892 -5.2988,-16.6919 -5.2988,-20.263 0,-2.5209 2.6364,-2.4689 4,0.079 1.5693,2.9323 2.6926,2.4522 3.4274,-1.4649 0.7799,-4.1569 2.4327,-5.4469 4.0845,-3.1879 0.6647,0.9091 2.1715,1.6528 3.3483,1.6528 2.5008,0 2.6987,1.21 0.7009,4.2852 -1.2807,1.9713 -1.2104,2.7401 0.6393,6.9921 1.1431,2.6276 1.8115,5.0441 1.4855,5.3701 -1.2377,1.2377 -5.3747,-0.6973 -6.6715,-3.1204 -0.7438,-1.3899 -1.9737,-2.527 -2.733,-2.527 -1.0929,0 -1.2423,1.2237 -0.7166,5.8702 0.6512,5.7554 -0.043,7.6891 -2.266,6.3138 z M 1126,1014.9755 c 0,-1.3725 2.86,-2.1729 9.9877,-2.7952 7.1487,-0.6242 7.3334,0.5501 0.3963,2.5196 -4.8812,1.3858 -10.384,1.5319 -10.384,0.2756 z m -28.894,-4.1836 c -1.8667,-1.138 -5.0167,-3.6074 -7,-5.4876 -1.9833,-1.8801 -4.1685,-3.4224 -4.856,-3.4271 -1.9354,-0.014 -1.4745,-3.81823 0.5969,-4.9268 1.4892,-0.79699 3.3174,0.0721 9.4397,4.4873 7.2396,5.221 9.5907,8.2022 8.2189,10.4219 -0.9338,1.511 -2.6352,1.2271 -6.3995,-1.0677 z m 41.3485,-14.378 c -1.35,-1.35 -2.4545,-3.55185 -2.4545,-4.89301 0,-1.34115 -0.675,-2.69748 -1.5,-3.01407 -2.4817,-0.95232 -1.7082,-2.57144 2.0949,-4.38501 3.4537,-1.64695 3.6501,-1.63881 5,0.2073 0.7728,1.05688 1.4051,3.42471 1.4051,5.26185 0,5.55787 3.456,5.34126 9.6973,-0.60779 3.0612,-2.91785 3.9155,-0.84239 1.3572,3.29706 -2.171,3.51275 -7.3064,6.58822 -11.0011,6.58822 -1.1794,0 -3.2489,-1.10455 -4.5989,-2.45455 z m -21.4132,-1.81916 c -3.5704,-1.80675 -8.103,-8.76762 -8.7241,-13.39772 -1.4296,-10.65867 11.3688,-17.62843 17.6672,-9.62124 5.0109,6.37027 4.7299,17.33635 -0.5647,22.04267 -2.8622,2.5442 -4.8275,2.77321 -8.3784,0.97629 z m 6.7218,-10.9411 c 0.355,-4.32827 0.04,-5.7831 -1.7374,-8.03519 -2.6761,-3.38998 -4.5015,-3.47973 -6.5698,-0.32302 -2.0621,3.14713 -0.667,8.69948 3.2,12.73576 3.4145,3.56398 4.5346,2.60394 5.1072,-4.37755 z m -59.6009,-5.18564 c -4.3999,-4.53766 -6.9638,-7.95309 -6.6276,-8.82904 0.4141,-1.07931 1.3865,-0.63795 3.977,1.80516 4.8366,4.56153 11.4884,12.36944 11.4884,13.48515 0,2.06126 -1.9718,0.61972 -8.8378,-6.46127 z m -18.4858,-31.84955 c -3.5314,-4.7319 -4.503,-6.90734 -6.0531,-13.55175 -1.5336,-6.57402 -0.6074,-10.3698 1.6345,-6.69825 2.7598,4.51971 8.5203,23.5 7.1323,23.5 -0.1586,0 -1.3798,-1.4625 -2.7137,-3.25 z m -11.8976,-39.69542 c -0.888,-1.03705 -1.3515,-2.14858 -1.03,-2.47006 0.3215,-0.32149 0.087,-0.58452 -0.52,-0.58452 -0.6075,0 -1.1058,-0.7875 -1.1073,-1.75 0,-2.0169 -1.7857,-10.24622 -3.2478,-14.99417 -0.5494,-1.78429 -0.7192,-3.69679 -0.3773,-4.25 1.052,-1.70225 3.5036,-1.1126 3.5036,0.84269 0,1.01669 1.1262,6.94045 2.5028,13.16392 1.3765,6.22346 2.3649,11.45316 2.1966,11.62154 -0.1684,0.16838 -1.0327,-0.54235 -1.9206,-1.5794 z m -9.4244,-54.68067 c -0.6242,-1.99435 -1.0718,-8.72866 -0.9947,-14.96513 0.1148,-9.28014 0.4537,-11.65232 1.8665,-13.06438 0.9494,-0.94894 1.9041,-1.52714 2.1216,-1.28488 0.2175,0.24227 -0.026,6.06548 -0.5405,12.94048 -0.5147,6.875 -0.7825,14.1875 -0.5952,16.25 0.4318,4.75252 -0.3917,4.80745 -1.8577,0.12391 z m 1.2149,-52.37391 c -1.3152,-5.47355 -0.8345,-18.42959 0.8317,-22.41734 0.864,-2.06778 2.198,-3.58266 3.155,-3.58266 1.2018,0 1.4489,0.48152 0.8983,1.75 -0.7825,1.80257 -1.8325,8.53006 -3.2386,20.75 -0.7565,6.57464 -0.8566,6.78732 -1.6464,3.5 z m 7.8001,-52.11046 c 0.3465,-3.51425 0.6905,-7.06454 0.7643,-7.88954 0.3625,-4.04906 7.4342,-19.85748 10.1769,-22.75 4.8651,-5.1308 6.1761,-3.9524 2.2249,2 -3.6532,5.5037 -9.9485,22.22377 -11.1152,29.52216 -1.1278,7.05469 -2.764,6.35051 -2.0509,-0.88262 z m 28.6369,-64.63954 c 1.3532,-6.87777 4.2448,-12.12777 11.3581,-20.62178 4.8191,-5.75449 4.4796,-1.94308 -0.4757,5.341 -2.7947,4.10806 -6.3944,10.07056 -7.9994,13.25 -1.6049,3.17943 -3.0762,5.78078 -3.2694,5.78078 -0.1933,0 -0.019,-1.6875 0.3864,-3.75 z M 1088,636.6662 c 0,-4.32128 6.7441,-15.54185 13.2544,-22.05214 5.0618,-5.06181 6.898,-3.78162 2.2898,1.59645 -1.9594,2.28687 -6.2585,8.17447 -9.5534,13.08357 -3.295,4.90909 -5.9908,8.22654 -5.9908,7.37212 z m 182.0084,-31.78203 c -1.6186,-3.02449 -2.3182,-12.56833 -1.0895,-14.86414 2.1032,-3.92991 4.4582,-3.48879 9.7787,1.83168 2.7592,2.75921 5.7671,5.01674 6.6843,5.01674 2.2944,0 3.6181,-4.02453 3.6181,-11 0,-3.22839 -0.4389,-7.0241 -0.9752,-8.4349 -0.7417,-1.95067 -0.6591,-2.5651 0.345,-2.5651 6.5891,0 7.3567,18.92358 0.9712,23.94638 -3.5004,2.75347 -4.267,2.63802 -10.373,-1.56215 l -5.2564,-3.61576 0.6617,4.98829 c 0.364,2.74356 0.3807,5.72065 0.037,6.61576 -0.8552,2.22867 -3.1165,2.04539 -4.4021,-0.3568 z m -147.0137,-11.08701 c 0.6909,-1.33579 2.3383,-3.87887 3.6608,-5.6513 4.5131,-6.04869 16.3445,-12.46499 16.3445,-8.86385 0,0.79842 -0.9211,1.74402 -2.047,2.10135 -1.1258,0.35732 -4.7848,2.97515 -8.1311,5.81739 -3.3464,2.84223 -7.2091,6.03562 -8.5839,7.09641 l -2.4996,1.9287 1.2563,-2.4287 z"
     id="path3097"
     style="fill:#000000" />
</svg>
