<?xml version="1.0" encoding="UTF-8" standalone="no"?>
<!-- Created with Inkscape (http://www.inkscape.org/) -->

<svg
   xmlns:dc="http://purl.org/dc/elements/1.1/"
   xmlns:cc="http://creativecommons.org/ns#"
   xmlns:rdf="http://www.w3.org/1999/02/22-rdf-syntax-ns#"
   xmlns:svg="http://www.w3.org/2000/svg"
   xmlns="http://www.w3.org/2000/svg"
   version="1.1"
   width="1408.1604"
   height="1624"
   id="svg2">
  <metadata
     id="metadata8">
    <rdf:RDF>
      <cc:Work
         rdf:about="">
        <dc:format>image/svg+xml</dc:format>
        <dc:type
           rdf:resource="http://purl.org/dc/dcmitype/StillImage" />
        <dc:title></dc:title>
      </cc:Work>
    </rdf:RDF>
  </metadata>
  <defs
     id="defs6" />
  <path
     d="m 1031.0843,1620.75 c 18.9675,-15.2842 23.6232,-19.9331 34.5724,-34.5221 7.0646,-9.4131 17.5316,-29.4981 25.5461,-49.0205 8.7381,-21.2848 10.006,-25.9198 10.0941,-36.9003 0.043,-5.3932 0.4257,-10.256 0.8498,-10.8064 2.8928,-3.7536 4.0471,-16.3848 4.4319,-48.5007 0.3016,-25.1701 1.8688,-37.2547 7.2305,-55.7571 2.9547,-10.1958 4.0004,-12.2911 10.2646,-20.5673 2.6828,-3.5445 6.3241,-8.5467 8.0918,-11.1159 5.3737,-7.8104 14.9321,-17.3505 20.6767,-20.6373 2.9907,-1.7111 11.0868,-5.0798 17.9914,-7.4859 14.9006,-5.1927 25.7095,-11.7475 35.373,-21.451 1.925,-1.933 4.9727,-4.5584 6.7726,-5.8342 4.3771,-3.1026 6.6086,-7.8668 8.7108,-18.5975 1.895,-9.6732 1.5902,-17.9983 -0.9907,-27.0538 -7.8116,-27.409 -9.7519,-31.6556 -13.7981,-30.2 -0.657,0.2364 -1.9213,0.057 -2.8095,-0.398 -0.8882,-0.4553 -13.9382,-2.8851 -29,-5.3996 -15.0618,-2.5144 -32.3351,-5.4187 -38.3851,-6.454 -6.05,-1.0352 -14.375,-2.3787 -18.5,-2.9856 -4.125,-0.6068 -29.1,-4.6658 -55.5,-9.0198 -26.4,-4.3541 -52.725,-8.6262 -58.5,-9.4937 -5.77499,-0.8674 -13.87499,-2.2268 -17.99999,-3.0209 -4.125,-0.7941 -11.4286,-1.9285 -16.2303,-2.5209 -4.8017,-0.5924 -11.5517,-1.7204 -15,-2.5066 -3.4483,-0.7862 -15.9447,-3.0256 -27.7697,-4.9763 -11.825,-1.9508 -25.1,-4.1986 -29.5,-4.9952 -4.4,-0.7966 -23.3,-3.9837 -42,-7.0825 -31.6229,-5.2402 -40.5,-7.3358 -40.5,-9.5608 0,-1.4274 -2.159,-1.6813 43,5.0573 7.425,1.108 15.75,2.4125 18.5,2.899 24.3079,4.3001 52.3748,9.0105 70,11.7479 4.95,0.7688 11.7,2.0632 15,2.8764 3.3,0.8133 10.2238,1.9523 15.3863,2.5312 5.1624,0.5789 9.6695,1.2276 10.0156,1.4415 0.3462,0.2139 3.9974,0.8645 8.1138,1.4458 4.1163,0.5813 11.75929,1.7335 16.98429,2.5605 5.225,0.827 14,2.1955 19.5,3.0411 5.5,0.8456 13.375,2.1878 17.5,2.9826 7.8923,1.5207 10.1814,1.8971 21.5,3.5351 3.85,0.5571 10.375,1.6409 14.5,2.4085 4.125,0.7675 13.575,2.3702 21,3.5615 7.425,1.1914 18.225,3.0607 24,4.1541 5.775,1.0934 15.45,2.5863 21.5,3.3176 6.05,0.7313 17.8505,2.73 26.2234,4.4417 8.3729,1.7116 16.6979,3.1146 18.5,3.1177 1.8021,0 5.0063,0.4858 7.1204,1.0729 2.114,0.587 4.047,0.864 4.2955,0.6156 0.8439,-0.844 -5.795,-11.1748 -9.9764,-15.5243 -2.2896,-2.3816 -5.5129,-5.0361 -7.1629,-5.8989 -1.65,-0.8628 -3.5665,-2.371 -4.2588,-3.3515 -1.9813,-2.8058 -11.4753,-7.807 -15.8062,-8.3263 -2.8557,-0.3424 -4.4835,-1.2424 -5.935,-3.2814 -1.1,-1.5453 -3.5487,-4.3236 -5.4415,-6.1741 -3.2787,-3.2054 -3.3725,-3.4892 -1.9824,-6.0011 0.8149,-1.4725 4.3531,-4.1818 8.0139,-6.1365 10.3718,-5.5381 18.7107,-12.9557 30.945,-27.5262 11.0408,-13.1492 13.1877,-16.0714 18.8088,-25.6012 8.1159,-13.7596 12.0418,-25.4471 12.1211,-36.0851 0.037,-4.9223 -3.0111,-14.5004 -5.9782,-18.7875 -0.9516,-1.375 -2.9768,-4.975 -4.5003,-8 -1.5236,-3.025 -3.7884,-6.85 -5.033,-8.5 -1.2446,-1.65 -3.5767,-5.729 -5.1824,-9.0643 -1.6057,-3.3354 -4.3944,-8.2081 -6.197,-10.8282 -1.8027,-2.6201 -4.3831,-7.5411 -5.7343,-10.9357 -1.3512,-3.3945 -3.0607,-7.5218 -3.7989,-9.1718 -3.492,-7.80522 -4.7042,-23.12802 -3.6677,-46.3649 0.2643,-5.92499 0.011,-8.58859 -0.8678,-9.1318 -1.2812,-0.79187 -13.7499,-3.02151 -20.1141,-3.5968 -1.9848,-0.17942 -14.2602,-2.14428 -27.2785,-4.36636 C 1125.801,931.81806 1114.0933,930 1112.8022,930 c -2.1606,0 -2.4872,0.71931 -4.1025,9.03568 -0.9653,4.96962 -1.9712,8.8196 -2.2353,8.5555 -0.2641,-0.2641 0.07,-4.35513 0.7422,-9.09118 0.6723,-4.73605 0.9464,-8.88695 0.6091,-9.22421 -0.3372,-0.33727 -5.4498,-1.41033 -11.3611,-2.38458 -5.9114,-0.97425 -14.573,-2.47219 -19.248,-3.32877 -6.0629,-1.11086 -8.6064,-1.23896 -8.8711,-0.44677 -0.2716,0.81296 -0.5555,0.81218 -1.0592,-0.003 -0.7212,-1.16683 -11.0238,-3.23711 -37.8967,-7.61518 -12.9453,-2.10901 -16.5094,-2.38793 -18.2959,-1.4318 -1.8602,0.99556 -2.4362,0.89015 -3.564,-0.65233 -1.1972,-1.63716 -1.7014,-1.69672 -4.5792,-0.54082 -6.18499,2.48429 -6.51119,2.45863 -8.11259,-0.63803 -1.1684,-2.25947 -2.4275,-3.09362 -5.3257,-3.52831 -2.0876,-0.3131 -12.7956,-2.13442 -23.7956,-4.04737 -41.3978,-7.1993 -74.1182,-12.82052 -77.5,-13.31417 -1.925,-0.28099 -4.7477,-0.98233 -6.2727,-1.55853 -1.5249,-0.5762 -4.6749,-1.1127 -7,-1.19222 -2.325,-0.0795 -18.4923,-2.59316 -35.9274,-5.58587 -17.435,-2.9927 -32.0207,-5.12063 -32.4126,-4.72872 -0.3919,0.3919 -3.066,21.75186 -5.9423,47.46657 -2.8764,25.71471 -5.9811,52.54814 -6.8995,59.62984 -0.9184,7.0817 -1.5773,14.0567 -1.4642,15.49997 0.1132,1.4433 -0.04,3.2992 -0.3402,4.1242 -0.3002,0.825 -1.2576,8.925 -2.1274,18 -0.8698,9.075 -2.50173,24.6 -3.62642,34.5 -1.12469,9.9 -2.47192,22.275 -2.99383,27.5 -0.52191,5.225 -1.82325,17.15 -2.89186,26.5 -3.16712,27.7112 -3.46478,32.9595 -1.93845,34.1793 0.73527,0.5876 3.58686,1.4096 6.33686,1.8266 16.6256,2.521 28.5,5.6939 28.5,7.6154 0,1.2038 -0.8702,1.1406 -14,-1.0156 -17.78864,-2.9214 -21.73854,-3.3378 -22.34567,-2.3554 -0.60965,0.9864 -2.83386,18.5565 -5.15853,40.7497 -2.82511,26.9708 -4.50218,42.0594 -5.44625,49 -0.52368,3.85 -1.22765,9.925 -1.56437,13.5 -0.33672,3.575 -1.2507,11.675 -2.03106,18 -0.78035,6.325 -1.64731,15.55 -1.92656,20.5 -0.5346,9.4764 -1.87137,23.6222 -3.49648,37 -0.53451,4.4 -1.44524,12.725 -2.02386,18.5 -0.57862,5.775 -1.70268,15.9 -2.49792,22.5 -0.79523,6.6 -2.82682,24.375 -4.51463,39.5 -1.68782,15.125 -3.96093,33.8 -5.05137,41.5 -1.09044,7.7 -2.001,14.7972 -2.02348,15.7716 -0.0225,0.9744 -0.46363,1.5103 -0.98034,1.191 -1.27396,-0.7874 -1.19517,0.8817 0.1029,2.1798 0.72318,0.7232 0.58638,1.4208 -0.44671,2.2782 -1.30589,1.0838 -1.43096,0.088 -1.01656,-8.0924 0.25989,-5.1305 0.68722,-11.3532 0.94963,-13.8282 0.26241,-2.475 0.93271,-9.225 1.48956,-15 0.55686,-5.775 1.43712,-13.875 1.95613,-18 0.51902,-4.125 1.23894,-11.1 1.59984,-15.5 0.36089,-4.4 1.03849,-8.7283 1.50577,-9.6185 0.46727,-0.8902 0.5904,-1.8777 0.27361,-2.1945 -0.31679,-0.3168 -0.0754,-4.3135 0.53652,-8.8815 0.61187,-4.568 1.32356,-10.5555 1.58153,-13.3055 0.25797,-2.75 0.65729,-6.35 0.88738,-8 0.47894,-3.4344 1.63413,-14.5293 2.16252,-20.7697 0.19701,-2.3267 0.57301,-5.8053 0.83556,-7.7303 0.26256,-1.925 0.79081,-6.425 1.17389,-10 0.38309,-3.575 0.96878,-6.95 1.30153,-7.5 0.33276,-0.55 0.65629,-2.575 0.71896,-4.5 0.27231,-8.3645 1.56923,-27.629 1.95233,-29 0.23054,-0.825 0.68549,-5.8557 1.011,-11.1793 0.32552,-5.3236 1.03387,-12.9736 1.57412,-17 1.54963,-11.5491 2.78482,-22.6877 3.4178,-30.8207 0.32104,-4.125 0.76552,-8.4 0.98772,-9.5 1.34218,-6.6444 5.61444,-46.9811 5.79246,-54.6898 l 0.21303,-9.2243 -22.5,-3.7398 c -12.375,-2.0569 -26.775,-4.246 -32,-4.8646 -5.225,-0.6187 -11.75,-1.7473 -14.5,-2.5081 -2.75,-0.7608 -11.3,-2.3221 -19,-3.4696 -12.55023,-1.8704 -23.96332,-3.8283 -40.5,-6.9478 -8.57007,-1.6166 -29.76087,-5.0669 -37.5,-6.1057 -3.85,-0.5167 -10.375,-1.6068 -14.5,-2.4223 -23.54053,-4.6539 -43.84543,-7.6705 -47.91709,-7.1188 -3.22514,0.437 -4.87442,0.1846 -6.11182,-0.9353 -0.9321,-0.8435 -4.34441,-1.9875 -7.58291,-2.5422 -3.2385,-0.5547 -9.71318,-1.6823 -14.38818,-2.5057 -4.675,-0.8234 -13.40469,-2.1711 -19.39931,-2.9948 -5.99463,-0.8237 -11.23355,-1.7042 -11.64207,-1.9567 -0.40851,-0.2524 -2.25382,-0.6543 -4.10068,-0.8929 -3.1101,-0.4019 -18.19113,-3.043 -43.85794,-7.6806 -5.775,-1.0435 -15,-2.5674 -20.5,-3.3865 -5.5,-0.8191 -12.7,-1.9423 -16,-2.496 -3.3,-0.5538 -7.86002,-1.0094 -10.13337,-1.0126 -3.44327,0 -4.23424,0.3699 -4.73755,2.2442 -0.33229,1.2375 -2.04568,15.075 -3.80751,30.75 -1.76184,15.675 -3.47625,28.6196 -3.80981,28.7658 -0.33356,0.1462 -0.42343,1.8337 -0.19971,3.75 0.22372,1.9163 -0.0123,3.4842 -0.52444,3.4842 -0.51216,0 -0.83011,2.25 -0.70655,5 0.12355,2.75 -0.1335,5 -0.57122,5 -1.21711,0 -1.7782,-2.1793 -1.4161,-5.5 0.17993,-1.65 1.26659,-14.25 2.41481,-28 1.14822,-13.75 2.30566,-25.6375 2.57209,-26.4166 0.26643,-0.7791 0.74943,-5.7938 1.07333,-11.1438 l 0.58891,-9.7273 -2.87144,-0.5623 c -1.57929,-0.3092 -10.74644,-1.9376 -20.37144,-3.6186 -9.625,-1.681 -21.1,-3.7215 -25.5,-4.5344 -4.4,-0.8129 -11.375,-1.9553 -15.5,-2.5385 -4.125,-0.5833 -10.875,-1.6864 -15,-2.4513 -4.125,-0.7649 -16.5,-2.8047 -27.5,-4.5328 -11,-1.7282 -31.7,-5.1332 -46,-7.5667 -14.3,-2.4336 -31.625,-5.3383 -38.5,-6.455 -13.39442,-2.1757 -27.14515,-4.5019 -49.5,-8.374 -16.88491,-2.9245 -46.238654,-7.6633 -48.965244,-7.9047 -1.5769,-0.1396 -2.1697,0.764 -3,4.5729 -1.3173,6.0431 -3.13472,5.7348 -2.71674,-0.4608 0.36166,-5.3608 1.73723,-4.6169 -13.31802,-7.2016 -4.95,-0.8499 -13.95,-2.4121 -20,-3.4716 -6.05,-1.0596 -15.5,-2.6683 -21,-3.5751 -13.27969,-2.1893 -16.09073,-2.927 -15.52955,-4.0752 0.25874,-0.5294 0.93374,-0.8831 1.5,-0.7859 0.56625,0.097 7.32955,1.1225 15.02955,2.2786 7.7,1.1561 18.05,2.7847 23,3.6192 25.1624,4.2421 30.13296,4.8284 30.86695,3.6408 0.57231,-0.926 2.28118,-14.3892 3.20056,-25.2153 0.25689,-3.025 0.65761,-7.075 0.89049,-9 0.23289,-1.925 0.629,-5.83428 0.88025,-8.68728 0.25125,-2.85301 0.74816,-7.35301 1.10424,-10 0.35608,-2.647 0.82755,-7.28772 1.0477,-10.31272 0.44568,-6.12362 0.92622,-11.07418 3.05768,-31.5 0.80351,-7.7 1.65994,-15.125 1.90319,-16.5 0.24325,-1.375 0.71611,-6.1 1.0508,-10.5 0.69035,-9.07576 1.23117,-11.5 2.565534,-11.5 1.18789,0 1.18589,5.40031 -0.006,15.52623 -0.516114,4.38558 -1.203514,10.67377 -1.527544,13.97377 -0.32403,3.3 -0.7971,7.125 -1.05126,8.5 -0.25416,1.375 -0.90197,7.225 -1.43958,13 -1.27509,13.69712 -4.62623,45.8017 -6.63146,63.5307 -2.23536,19.7635 -2.27151,19.6132 5.08823,21.1559 3.3,0.6916 12.075004,2.1822 19.500004,3.3124 7.425,1.1301 15.75,2.4737 18.5,2.9859 2.75,0.5121 9.5,1.6366 15,2.4988 5.5,0.8623 10.74963,1.7995 11.66584,2.0827 0.91622,0.2832 1.95969,0.04 2.31883,-0.5416 0.43902,-0.7103 1.53157,-0.5628 3.33416,0.4502 2.34323,1.3168 26.59318,5.7742 54.68117,10.0508 4.95,0.7537 11.7,1.8296 15,2.3908 9.99992,1.7008 41.82693,6.8116 62.5,10.0363 10.725,1.673 21.975,3.5043 25,4.0695 15.48749,2.8941 52.84149,8.9683 55.17804,8.9726 2.4881,0 2.72092,-0.3674 3.28245,-5.245 1.39845,-12.1473 7.75475,-73.045 8.58497,-82.25 0.49606,-5.5 1.35781,-13.6 1.915,-18 0.5572,-4.4 1.94055,-17.675 3.07413,-29.5 2.10601,-21.9691 10.0574,-99.47049 12.05512,-117.5 0.60941,-5.5 0.95103,-11.575 0.75915,-13.5 -0.39613,-3.97426 0.26993,-3.75634 -24.34886,-7.96635 -6.6,-1.12866 -15.825,-2.7383 -20.5,-3.57698 -4.675,-0.83869 -16.6,-2.86714 -26.5,-4.50767 -9.9,-1.64053 -22.5,-3.87123 -28,-4.9571 -8.64147,-1.70609 -37.38737,-6.60893 -53,-9.03956 -9.31486,-1.45017 -47.88539,-8.06403 -70.5,-12.08895 -39.28866,-6.99254 -56.17632,-9.78743 -60.9035,-10.07944 l -4.59628,-0.28395 0.0324,5.5 c 0.0178,3.025 0.33573,8.2 0.70648,11.5 l 0.67408,6 -1.52472,-6.5 c -0.8386,-3.575 -1.7935,-7.175 -2.122,-8 -0.81964,-2.0585 -3.53077,17.43293 -5.8419,42 -0.28458,3.025 -0.91584,8.65 -1.40281,12.5 -0.48696,3.85 -1.65138,15.325 -2.5876,25.5 -3.00239,32.63046 -4.85486,46.30698 -6.33925,46.80178 -1.067184,0.35572 -1.227924,-0.48923 -0.746534,-3.92422 1.057254,-7.54407 3.287524,-28.63876 4.163264,-39.37756 0.63817,-7.82561 2.2685,-24.66992 3.48437,-36 1.87005,-17.42614 2.15723,-20.07642 3.08812,-28.5 2.41031,-21.81078 2.38346,-23.69849 -0.38875,-27.33304 -2.41793,-3.17007 -3.23957,-3.47497 -16.737324,-6.21088 -7.80702,-1.58244 -13.74865,-3.0258 -13.20363,-3.20748 0.54502,-0.18167 7.87333,0.83446 16.28515,2.25806 13.039104,2.20671 15.498664,2.38391 16.680844,1.20174 0.96164,-0.96165 1.40956,-4.1177 1.46144,-10.29752 0.074,-8.80811 -1.36735,-22.92995 -2.45087,-24.01346 -0.3077,-0.3077 -1.4654,-0.0746 -2.57266,0.51797 -1.10726,0.59259 -2.69792,0.81469 -3.5348,0.49355 -1.30658,-0.50138 -1.43763,0.41763 -0.9274,6.50358 0.7534,8.98661 -0.77719,9.33976 -3.62969,0.83748 -2.923014,-8.71245 -3.318704,-9.22042 -6.045644,-7.761 -2.08265,1.11459 -2.18671,1.6352 -1.53789,7.69376 0.62602,5.84571 0.52119,6.46408 -1.04389,6.15776 -3.23714,-0.63359 -7.78146,-19.24651 -7.23714,-29.64233 0.25845,-4.93591 0.58282,-5.73877 2.42477,-6.00154 2.75707,-0.39333 7.74222,5.38377 12.252694,14.19915 1.85851,3.63231 3.45858,6.6042 3.55572,6.6042 0.0971,0 1.70147,-1.125 3.56518,-2.5 3.49869,-2.58125 7.41027,-3.26322 8.51008,-1.48369 0.34546,0.55897 1.00021,0.78635 1.45498,0.50528 0.84028,-0.51931 2.47044,-11.54386 3.51261,-23.75523 0.31607,-3.70351 1.01507,-7.75351 1.55332,-9 1.0024,-2.32136 0.84833,2.51492 -0.78792,24.73364 -0.40504,5.5 -0.73793,13.375 -0.73975,17.5 -0.004,7.93905 0.29274,8.31914 4.99668,6.41079 1.91246,-0.77587 1.92964,-0.70509 0.39249,1.61713 -0.88413,1.33568 -2.90227,3.14613 -4.48477,4.02323 -2.22465,1.233 -3.04735,2.59101 -3.62712,5.98716 -0.92147,5.39777 0.27797,6.88857 3.10277,3.8565 1.97686,-2.12191 2.11516,-2.14392 2.09439,-0.33337 -0.0122,1.06621 -0.90222,3.06356 -1.97776,4.43856 -2.57191,3.28799 -2.49997,4.85465 0.25,5.44453 6.82972,1.46502 22.24197,4.18096 56.75,10.00044 38.30044,6.45905 81.51218,13.88702 102.5,17.61946 6.05,1.07592 12.6434,2.16016 14.652,2.40941 3.76257,0.46692 27.81307,4.34171 59.30195,9.55418 9.87467,1.63459 18.48849,2.97198 19.14182,2.97198 0.65333,0 1.66692,-2.1375 2.25241,-4.75 l 1.06455,-4.75 -0.50434,4.66133 c -0.27739,2.56373 -0.10387,4.90884 0.3856,5.21135 2.14615,1.32639 29.86275,5.30391 30.75336,4.41331 0.33562,-0.33563 1.68575,-10.43728 3.00027,-22.44811 1.31452,-12.01083 3.08043,-27.46288 3.92425,-34.33788 2.0643,-16.819 1.95707,-19.97242 -0.87289,-25.66784 -4.37976,-8.81449 -17.95646,-48.10295 -20.50309,-59.33216 -3.31013,-14.59582 -6.73499,-65.35644 -5.81075,-86.12242 0.9059,-20.35387 6.33079,-38.7515 13.99358,-47.45688 10.16074,-11.54321 16.93462,-13.1768 29.00581,-6.99504 3.67913,1.88411 6.90878,3.07058 7.177,2.63659 0.26822,-0.43399 1.20004,-7.93804 2.07071,-16.67566 1.37279,-13.7766 4.88659,-47.16361 10.03891,-95.38659 2.00214,-18.73893 6.39701,-62.10112 7.12003,-70.25 0.55822,-6.29162 0.4625,-6.75 -1.40958,-6.75 -1.49879,0 -2.71807,1.58604 -4.80475,6.25 -4.93709,11.03496 -16.3018,29.43388 -22.73812,36.81191 -0.7494,0.85905 -6.63802,8.60478 -13.08582,17.21273 -6.4478,8.60795 -12.12717,15.90044 -12.62083,16.20553 -0.49366,0.3051 -4.17079,4.93437 -8.17141,10.28728 -4.00063,5.3529 -10.94354,13.55755 -15.4287,18.23255 -4.48516,4.675 -14.40469,15.44851 -22.0434,23.94114 -7.63871,8.49262 -21.31357,22.26436 -30.38857,30.60387 -9.075,8.3395 -20.55,18.87756 -25.5,23.41792 -9.82159,9.00878 -20.42801,16.54688 -24.75,17.5901 -2.71199,0.65461 -3.42109,-0.0841 -1.98469,-2.06751 0.40408,-0.55797 3.88238,-3.70797 7.72955,-7 3.84718,-3.29204 9.02218,-7.84504 11.5,-10.11778 2.47783,-2.27275 8.29355,-7.37602 12.92384,-11.34061 4.63028,-3.96459 13.18028,-11.86307 19,-17.55216 5.81971,-5.6891 11.82657,-11.3121 13.34857,-12.49556 1.522,-1.18346 7.372,-7.40047 13,-13.81558 5.628,-6.4151 14.52316,-16.16383 19.76702,-21.66383 5.24386,-5.5 11.74504,-12.925 14.44706,-16.5 2.70203,-3.575 8.38158,-10.775 12.62123,-16 4.23964,-5.225 9.21347,-11.59727 11.05293,-14.16061 1.83947,-2.56333 8.24887,-11.10103 14.24311,-18.97266 10.9288,-14.35169 13.08687,-18.2079 25.38882,-45.36673 4.93263,-10.88969 7.97093,-20.07497 6.9711,-21.07479 -0.28459,-0.28459 -2.02256,1.41581 -3.86215,3.77868 -3.43045,4.40623 -4.8561,5.75397 -6.11501,5.7808 -1.37787,0.0294 0.57613,-3.5269 5.23467,-9.52704 4.63952,-5.97563 6.98395,-9.67463 6.98395,-11.01914 0,-0.38113 -2.1375,-0.44845 -4.75,-0.1496 -7.0438,0.80577 -64.47569,10.84395 -86.25,15.07513 -15.49905,3.01178 -45.80127,8.58459 -50.5,9.28734 -17.33072,2.59202 -78.48947,14.2522 -80.43337,15.33497 -1.31829,0.73429 -4.84636,9.77835 -5.00048,12.81851 -0.10765,2.12349 -4.10771,10.37045 -7.25498,14.95769 -3.3551,4.89013 -17.62792,16.71122 -24.002,19.87903 -11.66322,5.79641 -26.15769,4.93666 -37.03773,-2.19692 -7.03503,-4.61257 -6.83623,-5.00163 -9.22576,18.05534 -0.855,8.25 -2.89649,27.375 -4.53664,42.5 -1.64015,15.125 -3.65391,34.025 -4.47502,42 -0.82111,7.975 -2.18597,20.125 -3.03301,27 -0.84705,6.875 -1.99031,16.89702 -2.54057,22.27114 -1.09332,10.67787 -2.70388,19.04144 -2.83631,14.72886 -0.07,-2.27854 1.14689,-18.06875 2.35045,-30.5 0.26625,-2.75 0.71872,-7.475 1.0055,-10.5 0.74635,-7.87263 4.46357,-43.75155 5.02482,-48.5 1.05426,-8.91944 3.42113,-31.43669 3.99431,-38 0.33623,-3.85 1.24235,-12.4 2.01362,-19 0.77126,-6.6 1.53389,-15.27848 1.69473,-19.28552 l 0.29243,-7.28551 -4.5,-2.33056 c -2.475,-1.28181 -6.91861,-3.39403 -9.87468,-4.69382 -2.95608,-1.2998 -7.00608,-3.88054 -9,-5.73499 -5.99253,-5.57335 -7.15033,-6.07066 -12.12532,-5.20818 -2.475,0.42908 -11.475,1.98406 -20.000004,3.45552 -21.4941,3.71 -34.16274,6.34097 -35.07431,7.2841 -0.42473,0.43943 -2.66375,6.42396 -4.97561,13.29896 -5.87069,17.45826 -17.7468,39 -21.50097,39 -2.15614,0 -1.78095,-1.73949 1.53894,-7.135 5.69869,-9.26155 17.01195,-37.15782 17.01195,-41.94811 0,-2.89459 0.59142,-2.95344 -34.5,3.43264 -10.45,1.90173 -19.22429002,3.23928 -19.49843002,2.97232 -1.49642998,-1.45725 4.94107002,-3.29878 23.65359002,-6.76642 11.46466,-2.12453 23.31984,-4.39146 26.34484,-5.03763 l 5.5,-1.17485 2.75465,-9.92147 c 4.96265,-17.87403 6.83637,-27.75401 7.3814,-38.92148 0.9334,-19.12503 5.33247,-27.60103 18.2569,-35.17687 7.96169,-4.66686 19.085944,-1.9696 28.861314,6.99791 7.47201,6.8545 8.43916,10.20238 9.29403,32.17212 0.70028,17.99681 2.29036,28.24549 4.76645,30.72158 1.10722,1.10722 15.19651,-0.63275 23.41352,-2.89148 5.20973,-1.43208 5.7713,-1.85743 6.20369,-4.69894 0.55183,-3.62638 1.57727,-12.95982 5.06757,-46.12432 1.38919,-13.2 2.9527,-27.825 3.47445,-32.5 0.52175,-4.675 1.64635,-15.475 2.4991,-24 0.85276,-8.525 1.97043,-18.875 2.48373,-23 l 0.93327,-7.5 -0.48281,9.5 c -0.26554,5.225 -0.68479,11.75 -0.93167,14.5 -0.24687,2.75 -0.92191,10.4 -1.50008,17 -0.57817,6.6 -1.28286,14.23564 -1.56597,16.96809 -3.80907,36.76289 -7.46056,76.81423 -7.04138,77.23341 0.22609,0.22609 8.44825,-1.01761 18.27146,-2.76377 9.82321,-1.74615 19.88538,-3.52632 22.36038,-3.95592 2.475,-0.42961 7.2,-1.28379 10.5,-1.89819 3.3,-0.6144 7.575,-1.36422 9.5,-1.66627 1.925,-0.30204 5.12254,-0.96937 7.10564,-1.48293 l 3.60563,-0.93376 0.55864,-7.38651 c 1.46536,-19.37543 19.81998,-46.12498 39.47575,-57.53095 8.6909,-5.04321 10.11574,-5.47491 28.39831,-8.60431 8.85575,-1.51582 10.44953,-1.52213 19.5,-0.0772 12.30186,1.96396 23.05235,4.91962 29.15946,8.01689 12.89712,6.54087 31.3141,12.97389 40.69657,14.21522 4.35022,0.57555 20.81285,3.36756 29.35696,4.97884 4.04633,0.76308 9.22133,1.38023 11.5,1.37145 2.27867,-0.009 8.44671,0.72989 13.70676,1.64148 10.37426,1.79791 18.3643,1.30742 19.32114,-1.18608 0.30911,-0.80552 0.86034,-4.37637 1.22495,-7.93522 0.88532,-8.64124 -0.0273,-9.78476 -6.30172,-7.89643 -5.51125,1.65864 -16.9086,1.84761 -17.8674,0.29625 -0.37254,-0.60278 0.0582,-1.83148 0.95715,-2.73045 1.23854,-1.23854 2.05451,-1.37769 3.36833,-0.57439 2.51013,1.53474 9.60204,0.88708 13.13429,-1.19947 4.02922,-2.38012 5.61337,-6.7422 3.2925,-9.0662 -0.93113,-0.93244 -6.19296,-3.84543 -11.69296,-6.47337 -10.69688,-5.11103 -13.45848,-7.04559 -15.49815,-10.85676 -1.1945,-2.23193 -1.00978,-2.65753 2.45231,-5.65027 6.70111,-5.79265 19.95038,-8.9485 25.99879,-6.19266 3.16116,1.44032 3.40581,3.35719 0.29705,2.32747 -1.2375,-0.40991 -4.36657,-0.95441 -6.9535,-1.21001 -5.42926,-0.53644 -13.04067,2.63884 -15.56667,6.494 -1.34659,2.05516 -1.31754,2.47362 0.29543,4.25593 2.23345,2.46793 7.96737,5.6908 16.77541,9.42897 10.30449,4.37326 10.14105,4.6825 13.49047,-25.5258 1.48987,-13.43709 2.8358,-23.30608 2.99095,-21.93108 0.15515,1.375 -0.5972,11.71235 -1.67188,22.97189 -1.07469,11.25954 -1.73757,20.82204 -1.47308,21.25 0.2645,0.42796 1.54669,0.77811 2.84931,0.77811 2.67623,0 6.51356,4.23261 6.51356,7.18452 0,2.71674 -2.63062,7.45976 -4.5448,8.1943 -0.89033,0.34165 -2.48197,0.62118 -3.53699,0.62118 -2.17678,0 -2.61168,2.90653 -0.71821,4.8 2.10393,2.10393 5.92054,1.30101 10.93288,-2.3 7.46264,-5.36137 9.31124,-4.35329 3.7118,2.02412 -3.91204,4.45557 -9.66655,7.47588 -14.24357,7.47588 -3.35469,0 -3.50253,0.15981 -4.15154,4.48772 -1.00893,6.728 -0.2415,7.87691 4.81818,7.21328 6.29516,-0.82567 21.33959,-3.52588 28.73225,-5.15692 3.575,-0.78875 9.65,-1.94807 13.5,-2.57626 3.85,-0.62819 12.175,-2.18466 18.5,-3.45882 6.325,-1.27416 13.525,-2.54779 16,-2.83029 2.475,-0.2825 8.1,-1.20299 12.5,-2.04554 4.4,-0.84255 13.4,-2.49877 20,-3.68049 6.6,-1.18173 18.75,-3.42975 27,-4.99562 8.25,-1.56587 21.525,-3.98572 29.5,-5.37745 7.975,-1.39173 19.45,-3.416 25.5,-4.49838 6.05,-1.08238 14.825,-2.65124 19.5,-3.48637 4.675,-0.83512 20.65,-3.80382 35.5,-6.59711 14.85,-2.79328 39.6,-7.32821 55,-10.07763 15.4,-2.74941 32.725,-5.8522 38.5,-6.89509 5.775,-1.04288 18.15,-3.277 27.5,-4.9647 17.9231,-3.23517 33.2406,-6.46446 33.9193,-7.151 0.2226,-0.22513 1.144,-6.48433 2.0476,-13.90933 3.0789,-25.30086 4.6054,-37.49701 5.0064,-40 0.2203,-1.375 1.0766,-6.55 1.9029,-11.5 0.8263,-4.95 1.8186,-11.925 2.2051,-15.5 0.3865,-3.575 1.0603,-7.4 1.4973,-8.5 1.7006,-4.28033 0.8173,8.77182 -2.5038,37 -4.4418,37.75336 -5.092,45.5 -3.8187,45.5 0.5578,0 2.3646,-0.56778 4.015,-1.26172 3.0007,-1.26167 4.3569,-2.44659 18.0357,-15.75741 4.0187,-3.91062 10.0937,-8.72836 13.5,-10.7061 3.4062,-1.97773 7.6378,-4.84418 9.4035,-6.36988 1.7656,-1.52571 5.3656,-3.99647 8,-5.4906 15.4965,-8.78919 26.7569,-17.51924 29.7897,-23.09564 1.1,-2.02258 2.5365,-3.85053 3.1922,-4.06211 1.6294,-0.52574 5.2695,11.66315 10.2265,34.24346 3.5406,16.12808 4.3101,18.65058 5.8727,19.25018 1.9256,0.73892 52.89619,-7.82106 55.25639,-9.27973 1.3073,-0.80792 5.5157,-15.61213 6.9563,-24.47045 3.1106,-19.12735 2.2165,-58.17529 -1.683,-73.5 -1.4226,-5.590893 -3.4669,-21.159269 -5.2524,-40 -0.417,-4.4 -0.8497,-14.525 -0.9615,-22.5 -0.1118,-7.975 -0.4251,-16.8625 -0.6964,-19.75 l -0.4931,-5.25 3.3488,0 3.3489,0 0.1054,24.454919 c 0.058,13.450205 0.3803,24.899693 0.7163,25.443306 0.5459,0.883212 1.5091,12.462381 3.1696,38.101775 0.3028,4.675 1.2482,12.1 2.1009,16.5 0.9256,4.77605 1.7283,15.85837 1.9918,27.5 0.4274,18.87786 -0.4722,28.95881 -4.3944,49.24635 l -0.5309,2.74636 4.8629,-0.56353 c 2.6747,-0.30994 6.888,-0.97884 9.363,-1.48646 2.475,-0.50761 6.075,-1.18873 8,-1.5136 1.925,-0.32486 8.0935,-1.3833 13.7078,-2.35208 7.0807,-1.22181 10.5271,-1.44214 11.25,-0.71923 0.7229,0.72292 1.0422,0.67457 1.0422,-0.15781 0,-0.66 1.26,-1.2 2.8,-1.2 1.54,0 3.2275,-0.40596 3.75,-0.90214 0.5225,-0.49618 2.75,-1.14415 4.95,-1.43995 2.2,-0.29579 6.7,-1.01208 10,-1.59176 28.5517,-5.01535 27.8526,-4.93704 29.9785,-3.35798 1.9519,1.44984 1.9279,1.48568 -0.6982,1.04114 -1.4959,-0.25322 -2.4818,-0.0754 -2.191,0.39515 0.2908,0.47055 -1.1024,0.85554 -3.096,0.85554 -1.9936,0 -4.4451,0.43904 -5.4478,0.97564 -1.0026,0.5366 -3.3355,1.06624 -5.1842,1.17699 -1.8487,0.11074 -3.8113,0.49009 -4.3613,0.84299 -0.55,0.35291 -2.125,0.71262 -3.5,0.79937 -1.375,0.0867 -6.775,1.09349 -12,2.2372 -5.225,1.14372 -12.2,2.52192 -15.5,3.06268 -14.2739,2.33903 -48.0455,9.12669 -49.6309,9.97521 -0.9535,0.51029 -2.0493,1.94077 -2.435,3.17886 -0.3858,1.23808 -3.5294,8.11865 -6.9857,15.29016 -7.9359,16.46576 -9.4484,22.26504 -9.4484,36.22629 0,9.65969 0.4107,12.31437 3.423,22.12563 2.1113,6.8767 4.9852,13.62266 7.5,17.60444 2.2423,3.55054 4.077,6.71343 4.077,7.02866 0,0.31523 2.9182,4.71376 6.4848,9.77451 17.9488,25.4678 28.6087,39.45959 34.3147,45.04024 3.4647,3.38862 8.1321,9.04954 10.372,12.57982 2.2399,3.53028 6.6051,9.64116 9.7005,13.57972 3.0954,3.93857 8.6813,11.62516 12.4132,17.08131 3.7318,5.45615 8.2318,12.0157 10,14.57677 7.9126,11.46099 16.8224,22.09288 26.2667,31.34351 5.6151,5.5 12.3836,13.15 15.041,17 2.6575,3.85 6.4893,9.025 8.5153,11.5 2.0259,2.475 8.0148,13.14475 13.3087,23.71056 7.1987,14.3678 9.9979,19.06749 11.1041,18.64301 1.041,-0.39948 1.479,0.11324 1.479,1.73148 0,2.40778 8.4451,16.25935 13.0564,21.41495 1.4758,1.65 5.0798,6.6 8.0088,11 6.9035,10.37055 14.8293,19.55157 27.8857,32.30194 11.1639,10.90233 25.7041,22.52933 27.0973,21.66828 0.4574,-0.28269 2.0962,1.15705 3.6417,3.19942 1.5456,2.04237 5.341,6.43971 8.4343,9.77188 3.0933,3.33216 6.404,7.59172 7.357,9.46568 0.953,1.87397 3.6249,5.47397 5.9374,8 2.3126,2.52604 6.4013,7.6303 9.0859,11.3428 2.6847,3.7125 5.0561,6.75 5.2699,6.75 1.3089,0 -11.4001,-18.21458 -18.8389,-27 -2.5613,-3.025 -5.4332,-7.01471 -6.3819,-8.86603 -0.9487,-1.85131 -2.5864,-3.59129 -3.6393,-3.86663 -1.9349,-0.506 -2.7007,-2.26734 -0.9857,-2.26734 1.1739,0 3.3515,2.17261 6.8365,6.8209 1.5042,2.00627 6.8691,8.70036 11.922,14.87575 12.2644,14.98871 16.4761,21.35549 24.3574,36.82011 8.0659,15.82691 11.4005,25.29754 10.5339,29.91703 -0.3425,1.82568 -0.1272,4.61245 0.4785,6.19281 1.5424,4.02437 3.6679,18.9128 4.4996,31.51802 0.6213,9.41733 0.4438,11.49267 -1.5402,18 -1.2334,4.04546 -2.8133,9.38038 -3.5109,11.85538 -1.805,6.40421 -8.9147,23.10088 -11.7739,27.65043 -1.3306,2.11726 -3.2024,5.64957 -4.1595,7.84957 -0.9571,2.2 -2.2506,4.9 -2.8744,6 -0.6239,1.1 -2.5766,4.77259 -4.3394,8.16131 -5.0973,9.79874 -18.4533,30.22646 -23.2546,35.56756 -6.1423,6.83283 -29.0331,25.20098 -35.3524,28.3677 -2.8882,1.44728 -5.9262,3.18102 -6.7512,3.85274 -0.825,0.67171 -3.075,1.83276 -5,2.58009 -3.8487,1.49416 -10.4884,5.81811 -17.1722,11.18297 -2.3803,1.9106 -6.8028,5.09166 -9.8278,7.069 -13.6202,8.90311 -20.3397,19.85503 -21.4577,34.9734 l -0.6474,8.75477 2.8025,1.17707 c 1.5415,0.64739 3.4776,1.27643 4.3026,1.39786 0.825,0.12143 4.425,0.91743 8,1.76888 3.575,0.85144 8.75,1.84225 11.5,2.20178 2.75,0.35953 5.45,0.99892 6,1.42086 0.55,0.42194 1.8646,0.62845 2.9214,0.45892 1.0567,-0.16954 2.8567,0.37733 4,1.21526 2.0033,1.46835 1.97,1.50243 -0.9214,0.94135 C 1225.7918,948.2497 1198.1584,944 1196.3481,944 c -1.5228,0 -2.1222,0.9261 -2.6601,4.10986 -1.1536,6.8282 -0.8094,32.99278 0.5183,39.39499 1.488,7.17548 8.6158,23.62245 12.9975,29.99115 1.7296,2.5139 4.0791,6.6932 5.2211,9.2873 1.142,2.5942 3.3601,6.2817 4.9291,8.1945 1.5689,1.9129 2.8526,3.9643 2.8526,4.5589 0,0.5945 1.6173,3.7545 3.5941,7.0221 1.9767,3.2677 4.2686,7.7412 5.093,9.9412 0.8244,2.2 1.9116,4.9 2.4161,6 3.8834,8.4686 -0.4499,29.7866 -9.3506,46 -8.7331,15.9083 -29.9255,41.3299 -40.1921,48.2129 -2.2333,1.4973 -5.8682,4.337 -8.0775,6.3105 -2.2094,1.9736 -5.4719,4.4477 -7.25,5.498 -1.7782,1.0504 -3.233,2.1503 -3.233,2.4442 10e-5,1.1314 6.8307,5.8253 14.3001,9.8269 12.7196,6.8142 24.8751,17.4076 29.9201,26.075 1.8031,3.0979 3.45,6.0825 3.6596,6.6325 1.0085,2.6459 3.889,4.5928 9.614,6.4979 3.4438,1.1461 6.654,1.9915 7.1338,1.8789 0.4798,-0.1127 2.1722,0.1584 3.7609,0.6023 1.5887,0.444 3.6137,0.8852 4.5,0.9805 3.2676,0.3513 7.1115,1.7831 7.1115,2.6488 0,1.2708 -3.7618,1.1116 -15.7311,-0.6657 -5.7682,-0.8565 -10.6567,-1.3883 -10.8632,-1.1817 -0.2066,0.2065 1.4567,6.8698 3.6962,14.8073 5.2996,18.7835 6.0191,29.1178 3.0426,43.7022 -1.1528,5.6488 -2.6098,11.2738 -3.2378,12.5 -1.1712,2.2869 -13.933,14.8685 -20.5194,20.2295 -5.7724,4.6985 -16.585,11.453 -19.8873,12.4234 -8.9237,2.6224 -22.553,8.4694 -27.1963,11.6673 -7.3065,5.0323 -15.2586,13.829 -25.4216,28.1221 -9.5975,13.4977 -10.932,17.0455 -14.9669,39.7872 -1.6794,9.4662 -2.2066,17.1731 -2.4968,36.5 -0.3344,22.2754 -1.4864,35.9892 -4.4102,52.5 -0.487,2.75 -1.3922,8.15 -2.0115,12 -1.2709,7.9001 -5.0686,19.6394 -8.6733,26.8102 -1.33,2.6456 -3.6941,8.271 -5.2538,12.501 -4.9221,13.3496 -13.7883,30.0009 -21.3072,40.0165 -12.0349,16.0311 -33.3396,36.1723 -38.2621,36.1723 -2.5918,0 -2.5587,-0.078 1.3774,-3.25 z m -258.43369,-478 c 0.26515,-1.2375 0.72447,-4.275 1.02071,-6.75 0.29623,-2.475 0.79577,-5.625 1.11008,-7 0.3143,-1.375 0.77408,-6.55 1.02171,-11.5 0.24763,-4.95 0.71065,-10.125 1.02894,-11.5 0.31828,-1.375 0.74002,-4.3 0.93719,-6.5 0.57139,-6.3754 0.95948,-8.9291 1.51974,-10 0.28775,-0.55 0.43923,-3.7 0.33665,-7 -0.10259,-3.3 0.15011,-6.45 0.56155,-7 0.41145,-0.55 0.83569,-4.1234 0.94277,-7.941 0.10708,-3.8175 0.37517,-7.233 0.59577,-7.5899 0.2206,-0.357 0.91271,-4.8835 1.53802,-10.059 0.62532,-5.1756 1.51754,-9.8752 1.9827,-10.4436 0.46517,-0.5685 0.50826,-1.5797 0.0958,-2.2471 -0.4125,-0.6675 -0.37979,-4.4774 0.0727,-8.4665 0.45248,-3.9891 1.29508,-11.5279 1.87244,-16.7529 0.57736,-5.225 1.52263,-12.875 2.10063,-17 0.578,-4.125 1.1247,-9.3 1.2148,-11.5 0.09,-2.2 0.462,-4.47762 0.8263,-5.06137 0.6103,-0.97795 2.5619,-18.86365 3.2121,-29.43863 0.5815,-9.4558 2.2658,-28.52342 3.03,-34.30081 0.2037,-1.54045 0.6551,-6.04045 1.003,-10 0.3479,-3.95956 1.0639,-11.67275 1.5912,-17.14044 0.5273,-5.46768 0.6173,-10.23397 0.2,-10.59175 -1.1462,-0.98268 -8.9445,-2.47982 -41.25876,-7.92104 -16.225,-2.73203 -38.725,-6.57285 -50,-8.53514 -28.19787,-4.90754 -76.90284,-13.11531 -92,-15.50386 -6.875,-1.0877 -18.8,-3.10455 -26.5,-4.48189 -7.7,-1.37734 -16.025,-2.74248 -18.5,-3.03365 -2.475,-0.29116 -15.75,-2.53301 -29.5,-4.98188 C 520.70173,828.59049 493.19861,824 491.72315,824 c -0.2841,0 -0.56305,1.4625 -0.61989,3.25 l -0.10335,3.25 -0.99599,-3.75 c -0.54779,-2.0625 -1.40404,-3.75 -1.90278,-3.75 -0.49873,0 -16.80248,-2.7 -36.23055,-6 -19.42806,-3.3 -36.08644,-6 -37.01862,-6 -2.34377,0 -3.40947,3.37858 -4.22118,13.38248 l -0.69502,8.56582 7.38542,3.61571 7.38542,3.6157 -7.27251,-0.45794 c -4.3956,-0.27679 -7.5233,-0.0521 -7.9065,0.56787 -0.34869,0.5642 -1.20295,6.91734 -1.89834,14.11809 -0.6954,7.20075 -1.99259,19.84227 -2.88266,28.09227 -3.00089,27.81512 -3.615,35.82499 -2.80852,36.63147 0.44169,0.44169 2.5953,1.26092 4.7858,1.8205 l 3.98273,1.01742 -4.73622,-0.46368 c -5.86231,-0.57392 -4.86801,-4.51576 -8.82707,34.99429 -0.55112,5.5 -1.4081,13.375 -1.9044,17.5 -0.4963,4.125 -1.40005,12.675 -2.00834,19 -0.60828,6.325 -2.68646,26.9666 -4.61816,45.8703 -1.93171,18.9036 -3.37576,35.986 -3.209,37.9607 0.35688,4.2263 -1.6529,3.6173 26.82984,8.1308 10.71034,1.6972 25.32335,4.1778 32.47335,5.5125 7.15,1.3347 17.275,3.1601 22.5,4.0566 5.225,0.8964 14.225,2.557 20,3.69 5.775,1.1331 11.175,2.0395 12,2.0143 1.56874,-0.048 11.6952,1.3846 16,2.2636 6.35286,1.2972 14.79017,2.4868 17.68664,2.4936 2.84272,0.01 3.22046,-0.3321 3.5,-3.1396 l 0.31336,-3.1472 2.50518,3.8972 c 2.40253,3.7375 2.87373,3.9701 11.5,5.6776 18.24469,3.6111 75.01905,13.1467 87.91121,14.7651 3.80402,0.4775 7.62902,1.1543 8.5,1.504 1.79037,0.7187 10.19056,2.1325 37.58361,6.3256 10.45,1.5996 20.15428,3.3643 21.56507,3.9216 1.41078,0.5572 5.23578,1.3031 8.5,1.6575 3.26421,0.3543 7.95993,0.8601 10.43493,1.124 2.475,0.2638 7.425,1.1043 11,1.8677 3.575,0.7634 11.9,2.1505 18.5,3.0824 6.6,0.9319 12.45,1.8337 13,2.0041 2.84173,0.8802 4.50172,0.2817 4.944,-1.7824 z m -239.41966,-58.1328 -1.11746,-5.3827 -4.12034,-0.057 c -2.95359,-0.041 -4.79328,-0.7298 -6.49685,-2.4334 -2.17311,-2.1731 -2.3514,-3.0741 -2.0831,-10.5275 0.25011,-6.9482 0.51476,-8.014 1.79341,-7.2226 1.04473,0.6466 1.65176,3.2923 2,8.7171 l 0.5,7.7888 6.75,-0.219 c 6.2725,-0.2036 8.90999,0.9529 5.31742,2.3315 -1.1039,0.4236 -1.31606,1.9077 -0.92474,6.4686 0.27932,3.2554 0.28088,5.9189 0.003,5.9189 -0.2774,0 -1.00722,-2.4222 -1.62182,-5.3828 z m 10.29664,-11.3672 c -2.44735,-6.9498 -3.14683,-7.8612 -6.93203,-9.0324 -3.27622,-1.0137 -4.06583,-0.9654 -5.0116,0.3065 -0.88863,1.1951 -1.48241,-0.3424 -2.84858,-7.376 -1.88929,-9.7268 -1.72743,-14.7979 0.31384,-9.833 0.63656,1.5483 1.18902,4.6983 1.22768,7 0.0806,4.8013 1.27185,8.5584 2.22469,7.0166 0.58117,-0.9403 11.32869,0.4904 16.96954,2.259 2.21574,0.6948 1.27385,2.4093 -1.32354,2.4093 -1.63375,0 -1.94098,0.7123 -1.94098,4.5 0,4.4974 -1.51578,6.0533 -2.67902,2.75 z m -21.60096,-57.75 c -0.42898,-2.2 -1.15606,-5.9125 -1.61572,-8.25 -0.45966,-2.3375 -0.46424,-4.25 -0.0102,-4.25 1.41518,0 3.07394,7.2856 2.73213,12 l -0.32626,4.5 -0.77998,-4 z m -6.72002,-38.36901 c 0,-0.47796 -0.6881,-4.81486 -1.52911,-9.63756 -1.56277,-8.9616 -1.44369,-11.17963 0.41388,-7.70874 1.19465,2.23223 2.7381,18.21531 1.75901,18.21531 -0.35408,0 -0.64378,-0.39105 -0.64378,-0.86901 z m 210.05822,-1.22115 c -6.87214,-1.34762 -7.17566,-1.96522 -0.64604,-1.31455 6.54096,0.65181 12.2025,2.317 7.58782,2.23176 -1.375,-0.0254 -4.4988,-0.43814 -6.94178,-0.91721 z m -30.32725,-5.56578 c 0.67703,-0.27392 2.02703,-0.29059 3,-0.0371 0.97297,0.25354 0.41903,0.47766 -1.23097,0.49804 -1.65,0.0204 -2.44606,-0.18706 -1.76903,-0.46099 z m -4.46014,-0.94823 c 0.33229,-0.33229 1.1948,-0.36781 1.91667,-0.0789 0.79773,0.31922 0.56078,0.55618 -0.60417,0.60416 -1.05416,0.0434 -1.64479,-0.19293 -1.3125,-0.52522 z m -37,-6 c 0.33229,-0.33229 1.1948,-0.36781 1.91667,-0.0789 0.79773,0.31922 0.56078,0.55618 -0.60417,0.60416 -1.05416,0.0434 -1.64479,-0.19293 -1.3125,-0.52522 z m -11.48149,-1.54718 c -0.85021,-0.53942 -0.35273,-0.82324 1.46066,-0.83334 1.5125,-0.008 2.75,0.35969 2.75,0.81802 0,1.06787 -2.5371,1.0771 -4.21066,0.0153 z m -40.51851,-7.45282 c 0.33229,-0.33229 1.1948,-0.36781 1.91667,-0.0789 0.79773,0.31922 0.56078,0.55618 -0.60417,0.60416 -1.05416,0.0434 -1.64479,-0.19293 -1.3125,-0.52522 z m -33.21261,-4.48599 c -6.87214,-1.34762 -7.17566,-1.96522 -0.64604,-1.31455 6.54096,0.65181 12.2025,2.317 7.58782,2.23176 -1.375,-0.0254 -4.4988,-0.43814 -6.94178,-0.91721 z m -39.03288,-6.56595 c -9.3608,-1.44233 -10.83515,-1.86741 -9.85976,-2.8428 0.71106,-0.71106 18.14218,2.55951 19.28442,3.61831 0.5225,0.48433 0.7475,0.83645 0.5,0.78248 -0.2475,-0.054 -4.71359,-0.75506 -9.92466,-1.55799 z m 11.24549,1.05194 c 0.33229,-0.33229 1.1948,-0.36781 1.91667,-0.0789 0.79773,0.31922 0.56078,0.55618 -0.60417,0.60416 -1.05416,0.0434 -1.64479,-0.19293 -1.3125,-0.52522 z m -52.99179,-8.42592 c -10.51278,-1.86782 -12.27904,-2.44067 -12.27904,-3.98242 0,-0.49196 1.2375,-0.272 2.75,0.4888 1.5125,0.76081 6.575,1.92924 11.25,2.59654 8.62913,1.23169 14.79501,2.85051 10.5,2.75673 -1.1,-0.024 -6.59943,-0.86086 -12.22096,-1.85965 z m 20.40839,-4.34206 c -1.1635,-3.03205 -1.90825,-11.11481 -0.93318,-10.12785 0.54337,0.55 1.24976,3.3625 1.56974,6.25 0.57859,5.22121 0.36897,6.49821 -0.63656,3.87785 z m -61.4166,-3.23202 c 0.33229,-0.33229 1.1948,-0.36781 1.91667,-0.0789 0.79773,0.31922 0.56078,0.55618 -0.60417,0.60416 -1.05416,0.0434 -1.64479,-0.19293 -1.3125,-0.52522 z m -5,-1 c 0.33229,-0.33229 1.1948,-0.36781 1.91667,-0.0789 0.79773,0.31922 0.56078,0.55618 -0.60417,0.60416 -1.05416,0.0434 -1.64479,-0.19293 -1.3125,-0.52522 z m 79.09898,-0.87451 c -1.23879,-3.22824 0.23505,-21.55475 1.8645,-23.18421 2.02346,-2.02345 5.15906,-0.41088 7.31761,3.7633 1.18615,2.29375 1.88712,2.78011 2.85236,1.97903 0.70386,-0.58415 1.57583,-0.76599 1.93773,-0.4041 0.36189,0.3619 0.65799,-0.66688 0.65799,-2.28617 0,-3.62205 2.49898,-7.38917 4.90172,-7.38917 2.21067,0 5.16846,3.13794 5.31441,5.6381 0.0598,1.02405 -0.23433,3.80626 -0.65358,6.18271 l -0.76227,4.3208 3.34986,-0.3208 3.34986,-0.32081 0.63449,-7.09839 C 552.19714,897.82463 552.87466,896 555.57473,896 c 2.72945,0 6.3749,6.846 7.32099,13.74849 l 0.62561,4.56427 -3.57936,-0.58085 c -2.58299,-0.41916 -3.73151,-0.18433 -4.12597,0.84362 -0.30064,0.78346 -1.57324,1.43878 -2.82801,1.45627 -1.25476,0.0175 -3.15489,0.6925 -4.22251,1.5 -1.06762,0.80751 -2.94262,1.4682 -4.16667,1.4682 -1.22404,0 -2.40252,0.53096 -2.61884,1.17991 -0.79813,2.39439 -3.69825,-0.20366 -4.88596,-4.37704 -0.6735,-2.36658 -1.55701,-4.68868 -1.96334,-5.16023 -1.37026,-1.59019 -3.07669,3.47116 -2.74914,8.15407 0.25471,3.64149 -0.0234,4.71778 -1.28443,4.97172 -1.01932,0.20526 -2.07794,-0.80676 -2.88694,-2.75985 -1.71556,-4.14174 -3.3938,-3.30696 -4.00355,1.99142 -0.51561,4.48032 -2.51716,6.42184 -3.63019,3.52132 z M 527.1913,912.25 c -0.008,-0.4125 -0.45153,-1.425 -0.98469,-2.25 -0.78387,-1.21296 -0.9723,-1.06944 -0.98469,0.75 -0.008,1.2375 0.43469,2.25 0.98469,2.25 0.55,0 0.99311,-0.3375 0.98469,-0.75 z m 34.01531,-1.19098 c 0,-1.35726 -1.76453,-2.24903 -2.40372,-1.21481 -0.59765,0.96702 0.26831,2.15579 1.57039,2.15579 0.45833,0 0.83333,-0.42344 0.83333,-0.94098 z m -19.65066,-5.52699 c 0.30982,-0.80739 0.13297,-1.73395 -0.39301,-2.05902 -0.52598,-0.32508 -0.95633,0.33551 -0.95633,1.46797 0,2.41457 0.55611,2.65816 1.34934,0.59105 z M 558.1913,905.25 c -0.008,-0.4125 -0.45153,-1.425 -0.98469,-2.25 -0.78387,-1.21296 -0.9723,-1.06944 -0.98469,0.75 -0.008,1.2375 0.43469,2.25 0.98469,2.25 0.55,0 0.99311,-0.3375 0.98469,-0.75 z m -55.75045,-5.33689 c -2.18001,-10.19911 -2.55119,-13.48254 -1.40299,-12.41057 1.15775,1.08089 3.57556,14.77703 2.94341,16.67349 -0.21087,0.6326 -0.90406,-1.28572 -1.54042,-4.26292 z m 279.87766,2.0059 c -2.41345,-0.47403 -4.66345,-1.16235 -5,-1.5296 -0.95813,-1.04555 8.27201,0.59702 9.3381,1.66178 0.5225,0.52184 0.7475,0.89951 0.5,0.83924 -0.2475,-0.0603 -2.42464,-0.4974 -4.8381,-0.97142 z m -30,-5 c -6.4301,-1.26294 -6.50891,-2.26334 -0.1119,-1.42046 5.62723,0.74145 10.52484,2.52077 6.5,2.36148 -1.1,-0.0435 -3.97464,-0.467 -6.3881,-0.94102 z m -35.3619,-6.22431 c -2.6125,-0.56644 -4.75,-1.37792 -4.75,-1.80328 0,-1.37235 2.36891,-2.28469 2.77432,-1.06847 0.21579,0.64738 1.36735,1.18319 2.55901,1.1907 3.23758,0.0204 6.66667,1.1021 6.66667,2.10298 0,1.02337 -0.79848,0.9769 -7.25,-0.42193 z m -37.5,-6.4181 c -1.7875,-0.22182 -3.25,-0.82481 -3.25,-1.33996 0,-1.39892 4.15186,-1.06478 7,0.56336 2.51963,1.44035 2.17448,1.51183 -3.75,0.7766 z m -37.13948,-5.88147 c -4.06421,-0.73741 -7.66421,-1.63433 -8,-1.99314 -0.55724,-0.59546 8.47944,0.22139 13.35442,1.20713 1.11928,0.22633 3.37139,0.65569 5.00468,0.95415 1.63329,0.29845 3.17079,0.74381 3.41667,0.98968 0.80265,0.80266 -6.22701,0.21183 -13.77577,-1.15782 z M 599.70661,871 l -3,-0.76337 3.5,-0.0186 c 1.925,-0.0102 4.625,0.34166 6,0.78201 2.42617,0.77699 2.4114,0.80009 -0.5,0.78201 -1.65,-0.0103 -4.35,-0.36216 -6,-0.78201 z m -42.84775,-7.0487 c -2.66626,-0.44741 -5.14126,-1.11158 -5.5,-1.47593 -0.69901,-0.70994 6.14284,0.15553 11.86397,1.50075 4.68293,1.10112 0.2427,1.08379 -6.36397,-0.0248 z m -35.65225,-6.2658 c -3.025,-0.5923 -4.6,-1.21072 -3.5,-1.37427 1.1,-0.16356 4.475,0.32475 7.5,1.08512 6.50775,1.6358 3.85647,1.82746 -4,0.28915 z M 494.93,855.82319 c -0.39862,-1.47224 -1.51195,-2.88254 -2.47407,-3.134 -0.96213,-0.25145 -0.39932,-0.46453 1.25068,-0.47351 1.65,-0.009 4.125,0.34397 5.5,0.78432 l 2.5,0.80064 -2.68045,0.0997 c -1.97201,0.0733 -2.77176,0.69435 -3.02593,2.34968 -0.32572,2.12128 -0.38695,2.09686 -1.07023,-0.42681 z m -7.97339,-4.48547 c 0.6875,-0.27741 1.8125,-0.27741 2.5,0 0.6875,0.27741 0.125,0.50439 -1.25,0.50439 -1.375,0 -1.9375,-0.22698 -1.25,-0.50439 z m -6.47917,-0.94189 c 0.33229,-0.33229 1.1948,-0.36781 1.91667,-0.0789 0.79773,0.31922 0.56078,0.55618 -0.60417,0.60416 -1.05416,0.0434 -1.64479,-0.19293 -1.3125,-0.52522 z m -26.52083,-4.12493 c -4.2625,-0.81323 -7.75,-1.88187 -7.75,-2.37475 0,-0.49288 0.5625,-0.87961 1.25,-0.85939 1.55673,0.0458 13.04913,2.50364 17.75,3.79617 l 3.5,0.96235 -3.5,-0.0229 c -1.925,-0.0126 -6.9875,-0.68826 -11.25,-1.50149 z M 1187.9778,936.75 c 1.203,-14.38189 6.6137,-28.28673 13.6733,-35.13863 2.3298,-2.26126 7.7954,-6.55672 12.1457,-9.54547 4.3504,-2.98876 8.5044,-6.02626 9.2312,-6.75 0.7268,-0.72375 1.6268,-1.31696 2,-1.31825 0.3732,-10e-4 2.2536,-1.35972 4.1786,-3.01875 1.925,-1.65902 6.65,-4.59443 10.5,-6.52313 14.4184,-7.22305 30.994,-19.09172 43.7933,-31.35741 6.1754,-5.91793 18.8246,-23.9064 25.2067,-35.8464 1.1,-2.05795 5.5189,-9.99448 9.8197,-17.63674 4.3009,-7.64226 8.6876,-16.09665 9.7482,-18.78753 1.0607,-2.69088 2.5712,-5.89042 3.3567,-7.1101 5.1522,-7.99998 6.1029,-30.2726 2.421,-56.71759 -2.1258,-15.26834 -15.0215,-47.21434 -24.8936,-61.66813 -1.8152,-2.65753 -5.1015,-7.53187 -7.303,-10.83187 -2.2014,-3.3 -5.6534,-8.025 -7.671,-10.5 -2.0176,-2.475 -4.6993,-6.22734 -5.9594,-8.33853 -1.6979,-2.84458 -2.5132,-3.49193 -3.1486,-2.5 -0.6491,1.0133 -1.5141,0.48812 -3.5601,-2.16147 -4.0132,-5.19722 -11.0542,-11.64598 -17.7168,-16.22654 -12.3873,-8.51643 -40.2438,-36.88922 -47.3949,-48.27346 -4.2584,-6.77922 -22.4469,-31.5 -23.1763,-31.5 -0.3787,0 -0.704,-0.5625 -0.7229,-1.25 -0.019,-0.6875 -1.5609,-3.95 -3.4268,-7.25 -1.8658,-3.3 -6.0503,-11.625 -9.2988,-18.5 -3.2485,-6.875 -7.4098,-14.75 -9.2473,-17.5 -11.0043,-16.4694 -16.0233,-22.89279 -23.7728,-30.42529 -9.1084,-8.8533 -25.0715,-28.07054 -32.4579,-39.07471 -4.2564,-6.34122 -9.6679,-13.7634 -21.1437,-29 -3.1069,-4.125 -6.2379,-8.61546 -6.9579,-9.9788 -0.72,-1.36335 -4.5006,-5.86335 -8.4014,-10 -3.9008,-4.13666 -9.6714,-10.8962 -12.8234,-15.0212 -13.3158,-17.42581 -15.0376,-19.75913 -18.4486,-25 -1.9688,-3.025 -5.5508,-8.2 -7.96,-11.5 -10.9941,-15.05914 -13.479,-19.58272 -18.1135,-32.9745 -2.8792,-8.31985 -3.5554,-11.89709 -3.9745,-21.02639 -0.6513,-14.18703 1.5683,-22.83687 10.3492,-40.3317 3.4969,-6.96707 6.3626,-13.27869 6.3682,-14.02582 0.01,-0.95702 -0.7417,-1.1697 -2.5343,-0.71978 -1.3994,0.35124 -7.8119,1.53232 -14.25,2.62462 -17.43949,2.95883 -32.56259,6.13402 -33.80639,7.09785 -1.7497,1.35585 0.3466,11.28847 9.9943,47.35572 5.2086,19.47193 17.17359,51.31191 23.77689,63.27231 6.8621,12.42923 22.3472,35.69659 25.2007,37.86575 1.3472,1.02407 6.5875,6.963 11.6451,13.19762 5.0575,6.23463 13.2894,15.23463 18.293,20 22.1924,21.13586 43.6468,43.42043 48.9392,50.83283 3.1616,4.42801 7.9725,12.05156 10.6909,16.94121 5.0246,9.03805 12.5211,29.74825 11.619,32.09928 -1.0567,2.75367 -3.3449,0.96748 -9.5555,-7.459 -9.3547,-12.69247 -21.503,-25.27319 -36.0027,-37.28423 -7.9151,-6.55661 -14.4297,-12.616 -21.3259,-19.83579 -5.3273,-5.57736 -23.2645,-21.18403 -27.1828,-23.65104 -1.6452,-1.03585 -4.8155,-3.47987 -7.0451,-5.43115 -6.5198,-5.70589 -9.5501,-8.26453 -16.4462,-13.88615 -3.575,-2.91432 -14.1772,-12.80541 -23.5605,-21.9802 C 974.13161,326.27823 961.19181,314.04879 950.66591,305 c -17.7546,-15.26304 -33.9694,-32.32144 -45.4593,-47.82438 -11.7983,-15.91899 -27.5317,-33.04392 -29.0052,-31.57046 -1.0916,1.09166 -2.6602,13.66143 -7.0374,56.39484 -1.1912,11.63008 -1.3959,13.51508 -2.8768,26.5 -0.5645,4.95 -1.4889,13.95 -2.0541,20 -3.2739,35.04543 -5.529,57.32912 -9.513,94 -2.4499,22.55 -5.6151,52.025 -7.0339,65.5 -1.4187,13.475 -2.7532,25.175 -2.9657,26 -0.2124,0.825 -0.6621,4.875 -0.9993,9 -0.3373,4.125 -1.0062,10.875 -1.4865,15 -0.4802,4.125 -0.8668,8.175 -0.859,9 0.01,0.825 -0.2606,3.525 -0.5964,6 -0.7266,5.35573 -9.329,85.10595 -16.1261,149.5 -0.8127,7.7 -1.7022,15.8 -1.9766,18 -0.9052,7.25741 -3.6026,32.92382 -3.8886,37 -0.1543,2.2 -0.6251,6.5875 -1.0462,9.75 -0.8197,6.15586 -0.3622,6.71796 3.3511,4.11707 1.8602,-1.30293 2.4929,-1.37154 3.1308,-0.33948 0.4396,0.7114 0.2796,2.12566 -0.3556,3.1428 -0.6352,1.01714 -1.3064,1.39491 -1.4915,0.83948 -0.1852,-0.55543 -0.7757,-1.00987 -1.3124,-1.00987 -0.5366,0 -0.657,0.51563 -0.2675,1.14584 0.4934,0.79822 -0.048,0.95605 -1.7844,0.52025 l -2.4926,-0.6256 -1.2422,13.22975 c -0.6833,7.27637 -1.4283,14.80476 -1.6555,16.72976 -3.3071,28.01187 -5.4935,50.52315 -5.682,58.50248 l -0.2334,9.88064 3.5,0.78938 c 1.925,0.43416 7.325,1.4456 12,2.24765 8.1163,1.39243 29.3809,5.12924 46.5,8.17142 4.4,0.7819 11.825,2.05369 16.5,2.8262 4.675,0.7725 15.025,2.5584 23,3.96867 7.975,1.41027 15.85,2.79624 17.5,3.07993 1.65,0.28369 5.475,0.95739 8.5,1.49712 3.025,0.53972 10,1.70782 15.5,2.59576 5.5,0.88795 11.35,2.00105 13,2.47357 1.65,0.47251 5.475,1.10551 8.5,1.40666 3.025,0.30116 8.65,1.21766 12.5,2.03668 9.3683,1.99292 9.5,1.97415 9.5,-1.35404 0,-4.67555 2.7679,-10.08338 5.7392,-11.21307 4.03569,-1.53438 6.61639,-0.4004 9.08509,3.99219 2.0712,3.68506 2.4731,3.92476 5.702,3.40079 4.2682,-0.69265 4.4483,0.14265 0.4737,2.19797 -2.0894,1.08045 -3,2.29176 -3,3.9905 0,2.97629 1.6251,3.85931 10,5.43365 3.575,0.67204 7.625,1.47909 9,1.79345 3.8061,0.87015 6.1237,1.25106 10.5,1.72568 2.2,0.2386 6.7,0.91903 10,1.51207 3.3,0.59303 7.125,1.26225 8.5,1.48714 1.375,0.22489 2.725,0.49562 3,0.60162 0.275,0.106 0.8291,0.14223 1.2314,0.0805 0.4022,-0.0617 5.5772,0.82751 11.5,1.97607 5.9227,1.14857 12.0306,2.2525 13.573,2.45318 1.5425,0.20068 5.3675,0.88006 8.5,1.50972 3.1326,0.62967 6.8834,1.09458 8.3352,1.03315 1.4518,-0.0614 6.4018,0.76726 11,1.84152 4.5982,1.07427 10.1784,2.21028 12.4004,2.52446 6.7308,0.95169 8.4415,1.38158 11.4294,2.8721 2.0416,1.01851 3.1748,1.12096 3.9396,0.35619 0.7648,-0.76478 2.4424,-0.73452 5.8323,0.1052 2.6173,0.64833 6.6812,1.46852 9.0309,1.82264 2.3497,0.35411 4.5041,1.01914 4.7876,1.47783 0.2834,0.45869 2.186,0.61645 4.2278,0.35058 2.0418,-0.26587 5.0624,-0.0639 6.7124,0.44871 4.5741,1.4212 12.1477,1.33111 12.2712,-0.14598 z M 824.20661,760.22943 c 0,-0.5585 0.675,-1.27447 1.5,-1.59106 0.825,-0.31658 1.5,-0.41982 1.5,-0.22943 0,0.19039 -0.675,0.90637 -1.5,1.59106 -0.8646,0.71755 -1.5,0.81474 -1.5,0.22943 z m 277.24379,-0.89379 c -0.691,-0.27855 -0.9589,-0.98755 -0.5955,-1.57556 0.3819,-0.61797 0.1907,-0.77862 -0.4531,-0.38071 -1.3922,0.86044 -5.1952,-1.42338 -5.1952,-3.11992 0,-0.6927 -0.45,-1.25945 -1,-1.25945 -1.775,0 -1.0608,-2.75083 0.8435,-3.24882 1.1088,-0.28995 2.3078,0.26138 3.0085,1.38337 1.2474,1.99744 4.148,2.56136 4.148,0.80643 0,-0.58246 0.4892,-0.75667 1.0871,-0.38714 0.5979,0.36953 0.8583,1.54681 0.5787,2.61617 -0.4151,1.58742 -0.2476,1.72778 0.9129,0.7647 1.1768,-0.97668 1.4213,-0.64246 1.4213,1.94285 0,3.11418 -1.3712,3.82281 -4.7562,2.45808 z m -26.691,-5.25023 c -0.3109,-0.50302 0,-1.1425 0.691,-1.42105 0.7809,-0.31483 0.6164,-0.53634 -0.4348,-0.58541 -0.93,-0.0434 -1.9691,0.37105 -2.309,0.92105 -1.2014,1.94395 -2.6379,1.01 -1.9227,-1.25 1.1121,-3.51348 3.7573,-6.68406 5.6053,-6.71858 0.9254,-0.0173 1.9807,-0.97053 2.345,-2.11833 0.6615,-2.08431 0.6641,-2.08441 2.0725,-0.0737 1.4586,2.08247 1.8609,5.1939 1.1198,8.66058 -0.2957,1.3831 -1.0896,1.9035 -2.5738,1.68714 -1.1803,-0.17207 -2.1461,0.16543 -2.1461,0.75 0,1.30208 -1.6715,1.40335 -2.4472,0.14827 z m -1.5528,-10.52639 c 0,-0.24254 0.45,-0.7191 1,-1.05902 0.55,-0.33992 1,-0.14148 1,0.44098 0,0.58246 -0.45,1.05902 -1,1.05902 -0.55,0 -1,-0.19844 -1,-0.44098 z m 166.3333,-3.22569 c 0,-0.73333 0.6,-1.33333 1.3334,-1.33333 0.7333,0 1.3402,-0.5625 1.3486,-1.25 0.027,-2.23913 1.4485,-3.57925 4.4947,-4.23885 2.9063,-0.62928 2.934,-0.60028 0.99,1.03547 -1.3944,1.17332 -1.6215,1.82477 -0.75,2.15147 0.6875,0.25772 1.25,1.15486 1.25,1.99365 0,1.13094 -0.6518,1.36149 -2.522,0.8921 -1.6752,-0.42045 -2.6969,-0.17706 -3.043,0.72493 -0.6717,1.75053 -3.1017,1.76977 -3.1017,0.0246 z M 1115.7066,737 c 0.3399,-0.55 1.0415,-1 1.559,-1 0.5176,0 0.941,0.45 0.941,1 0,0.55 -0.7016,1 -1.559,1 -0.8575,0 -1.2809,-0.45 -0.941,-1 z m 121.5961,-0.61584 c 0.8856,-1.06698 1.501,-1.13347 2.5366,-0.27405 1.7409,1.44486 1.802,1.3647 -1.1699,1.53638 -2.0745,0.11983 -2.3231,-0.10986 -1.3667,-1.26233 z m 15.0914,-11.44666 c 0.2406,-0.72187 1.0281,-1.50937 1.75,-1.75 0.75,-0.25 1.125,0.125 0.875,0.875 -0.2406,0.72187 -1.0281,1.50937 -1.75,1.75 -0.75,0.25 -1.125,-0.125 -0.875,-0.875 z m -69.1875,-205.8619 c 0,-0.47389 0.675,-1.12064 1.5,-1.43723 0.825,-0.31658 1.5,-0.18787 1.5,0.28603 0,0.47389 -0.675,1.12064 -1.5,1.43723 -0.825,0.31658 -1.5,0.18787 -1.5,-0.28603 z M 803.01071,862.75 c 0.6381,-5.0875 1.4111,-12.175 1.7179,-15.75 0.3069,-3.575 1.2064,-12.125 1.9989,-19 0.7926,-6.875 2.8022,-25.325 4.4657,-41 2.6826,-25.27622 3.6076,-33.81894 5.5225,-51 1.3144,-11.79283 3.6547,-33.95456 5.0161,-47.5 0.8291,-8.25 1.7062,-16.575 1.9492,-18.5 0.2429,-1.925 1.129,-10.025 1.9692,-18 0.8402,-7.975 1.9901,-18.775 2.5553,-24 0.5652,-5.225 1.4846,-14.225 2.043,-20 0.5585,-5.775 1.2041,-11.175 1.4348,-12 0.2306,-0.825 0.687,-4.875 1.0141,-9 0.3271,-4.125 1.2223,-12.9 1.9893,-19.5 1.6652,-14.32923 2.2262,-19.27027 3.4633,-30.5 1.3269,-12.04421 4.9853,-44.92417 6.1196,-55 0.5264,-4.675 1.5908,-14.8 2.3654,-22.5 2.1704,-21.57415 4.425,-42.70238 6.0825,-57 0.8289,-7.15 3.7676,-34.375 6.5304,-60.5 2.7629,-26.125 5.9257,-55.375 7.0284,-65 2.119,-18.49574 5.9273,-53.98261 5.9292,-55.25 0,-1.31432 -4.3571,-0.82429 -19.6151,2.20507 -13.7704,2.73402 -18.8347,3.66657 -40.8838,7.5285 -4.4,0.77067 -15.65,2.80906 -25,4.52976 -9.35,1.72071 -23.075,4.19775 -30.5,5.50455 -7.425,1.30681 -17.1,3.04784 -21.5,3.86897 -4.4,0.82114 -15.425,2.86667 -24.5,4.54563 -9.075,1.67896 -17.85,3.30317 -19.5,3.60936 -1.65,0.30619 -19.2,3.43118 -39,6.94442 -19.8,3.51323 -40.95,7.31788 -47,8.45477 -6.05,1.13689 -29.675,5.43624 -52.5,9.55411 -39.37958,7.1045 -46.47839,8.48878 -53.5,10.43255 -1.75691,0.48636 7.27886,0.74842 21.80644,0.63243 17.84601,-0.14249 25.26206,0.13509 26.43022,0.98927 3.57466,2.61386 -2.36295,3.70245 -22.1688,4.06439 -39.87547,0.72871 -55.90025,1.32017 -56.62472,2.08997 -1.78246,1.89398 -3.95752,14.45222 -6.3758,36.81232 -1.42665,13.19116 -3.02829,27.13393 -3.55919,30.98393 -0.53091,3.85 -1.6666,14.65 -2.52376,24 -0.85716,9.35 -2.69189,27.575 -4.07717,40.5 -1.38529,12.925 -2.88706,27.55 -3.33726,32.5 -0.45021,4.95 -2.09283,21.94007 -3.65027,37.75571 l -2.83172,28.75572 2.63295,5.24428 c 5.20518,10.36764 7.11695,22.70367 5.57818,35.99418 -1.67306,14.45038 -5.08325,32.38053 -7.27491,38.25011 -1.2322,3.3 -3.85624,11.85 -5.8312,19 -7.98187,28.89692 -10.51707,44.34157 -13.20882,80.46911 -0.83879,11.25801 -1.95212,22.05801 -2.47405,24 C 420.69479,732.9111 419.8005,739 419.2294,744.5 c -0.5711,5.5 -1.46979,13.6 -1.9971,18 -2.25184,18.78986 -4.22293,41.54362 -3.71375,42.87052 0.64728,1.68677 4.77451,2.63567 29.06904,6.68329 9.96546,1.66031 21.71902,3.67446 26.11902,4.47589 4.4,0.80144 25.55,4.40704 47,8.01245 46.57126,7.8279 71.91614,12.12858 76,12.89617 1.65,0.31013 30.225,5.08349 63.5,10.60748 33.275,5.52398 64.1,10.70491 68.5,11.51318 4.4,0.80827 12.05,2.10527 17,2.88221 11.8625,1.86192 44.79453,7.38379 50.5,8.46758 2.475,0.47014 5.8824,0.90799 7.572,0.97301 l 3.072,0.11822 1.1601,-9.25 z M 785.20661,838 c 0,-0.55 0.45,-1 1,-1 0.55,0 1,0.45 1,1 0,0.55 -0.45,1 -1,1 -0.55,0 -1,-0.45 -1,-1 z m -26,-134.94098 c 0,-0.58246 0.45,-1.05902 1,-1.05902 0.55,0 1,0.19844 1,0.44098 0,0.24254 -0.45,0.7191 -1,1.05902 -0.55,0.33992 -1,0.14148 -1,-0.44098 z m 16.32504,-278.71739 c 0.27956,-0.27956 0.88329,-0.50906 1.34163,-0.51 0.45833,-9.4e-4 1.50833,-0.50423 2.33333,-1.11844 1.23877,-0.92225 1.28407,-0.87437 0.26012,0.27492 -0.68193,0.7654 -1.96066,1.49743 -2.84163,1.62673 -0.88096,0.1293 -1.37302,0.006 -1.09345,-0.27321 z M 780.20661,420 c 0,-0.55 0.70156,-1 1.55902,-1 0.85746,0 1.2809,0.45 0.94098,1 -0.33992,0.55 -1.04148,1 -1.55902,1 -0.51754,0 -0.94098,-0.45 -0.94098,-1 z m 5.60301,-9.16667 C 786.09288,410.375 786.74809,410 787.26563,410 c 0.51754,0 0.94098,0.375 0.94098,0.83333 0,0.45834 -0.65521,0.83334 -1.45601,0.83334 -0.80081,0 -1.22425,-0.375 -0.94098,-0.83334 z m -3.85251,-25.30847 c 0.68125,-3.56375 2.48004,-4.39409 2.07619,-0.95839 -0.17968,1.52861 -0.8302,2.94433 -1.44559,3.14605 -0.70718,0.23179 -0.93923,-0.5732 -0.6306,-2.18766 z m -61.28848,-81.4634 c 0.31902,-0.5162 -0.21692,-1.40251 -1.19099,-1.96959 -1.61363,-0.93942 -1.58057,-1.03376 0.37198,-1.06146 1.17866,-0.0167 2.41616,0.68139 2.75,1.55138 0.86096,2.24362 0.79223,2.41821 -0.95203,2.41821 -0.85746,0 -1.29799,-0.42234 -0.97896,-0.93854 z M 736.70661,303 c 0.33992,-0.55 1.06803,-1 1.61803,-1 0.55,0 0.72189,0.45 0.38197,1 -0.33992,0.55 -1.06803,1 -1.61803,1 -0.55,0 -0.72189,-0.45 -0.38197,-1 z m -24.75,-3.29942 c -2.88757,-1.14102 -3.43545,-2.15891 -1.72953,-3.21323 0.56126,-0.34688 2.39579,0.52656 4.07673,1.94098 3.18199,2.67747 2.3501,3.12838 -2.3472,1.27225 z M 95.111286,717.08007 c 1.1595,-0.73408 0.92296,-1.82229 -1.3552,-6.23468 -3.49042,-6.76031 -4.31165,-7.62873 -5.14948,-5.44539 -0.36606,0.95394 -0.15581,2.24419 0.46722,2.86722 0.62303,0.62303 1.13278,2.76778 1.13278,4.76611 0,4.90728 1.53933,6.17734 4.90468,4.04674 z M 419.17094,695.5 c 0.63777,-7.7 2.02828,-19.85 3.09001,-27 1.06174,-7.15 2.63807,-20.2 3.50296,-29 0.86489,-8.8 2.21823,-21.4 3.00743,-28 0.7892,-6.6 2.10998,-18.975 2.93506,-27.5 0.82509,-8.525 2.41824,-23.76942 3.54035,-33.8765 1.12211,-10.10707 1.90312,-18.51357 1.73559,-18.68111 -0.16754,-0.16754 -2.97158,-1.91057 -6.23121,-3.87342 -6.24851,-3.76265 -7.49734,-3.55804 -7.52921,1.23362 -0.0237,3.57133 -3.26322,16.85659 -3.75967,15.41863 -0.24282,-0.70334 0.29733,-5.61318 1.20033,-10.91076 1.87578,-11.00445 1.57033,-11.69424 -4.8394,-10.92876 -4.42734,0.52874 -11.51767,6.66351 -14.58372,12.6183 -3.00695,5.83999 -6.72441,18.98222 -8.06163,28.5 -2.78153,19.7979 1.16913,96.5 4.97039,96.5 0.439,0 1.33798,-2.74375 1.99773,-6.09722 1.60028,-8.13404 2.3509,-6.97304 1.09758,1.69767 -1.94863,13.48106 -1.61563,15.43634 6.62492,38.89955 1.93166,5.5 4.69985,12.925 6.15154,16.5 l 2.63942,6.5 0.67598,-4 c 0.37178,-2.2 1.19779,-10.3 1.83555,-18 z m -12.26075,-80.25 c 1.66401,-8.81305 2.89575,-11.27774 1.87408,-3.75 -1.21146,8.92604 -1.78641,11.5 -2.56881,11.5 -0.42272,0 -0.11009,-3.4875 0.69473,-7.75 z m 6.45628,-37.71556 c 0.47139,-3.00606 1.2911,-7.16856 1.82158,-9.25 0.83651,-3.28227 0.89471,-2.98829 0.43865,2.21556 -0.73513,8.38806 -1.51804,12.5 -2.37999,12.5 -0.40553,0 -0.35164,-2.4595 0.11976,-5.46556 z m 20.84014,39.98945 c 0,-0.74694 0.9537,-3.53289 2.11934,-6.19098 6.58101,-15.00723 10.78125,-55.983 7.00451,-68.33291 -1.16345,-3.80446 -1.50164,-4.19087 -2.18803,-2.5 -0.85803,2.11371 -3.47004,26.33518 -8.21513,76.17985 -0.16649,1.74892 0.0532,2.95987 0.4883,2.69099 0.43506,-0.26888 0.79101,-1.10001 0.79101,-1.84695 z M 1129.755,456.88292 c -2.5356,-5.02767 -5.5113,-10.32061 -6.6126,-11.76207 -1.1014,-1.44147 -4.6354,-6.22085 -7.8535,-10.62085 -5.5244,-7.55338 -23.2008,-25.88617 -47.7277,-49.5 -5.9983,-5.775 -14.0445,-14.55 -17.8803,-19.5 -3.8359,-4.95 -8.794,-10.8 -11.018,-13 -12.3005,-12.16757 -32.9198,-49.80524 -42.83369,-78.18705 -5.1771,-14.82116 -12.8343,-43.64192 -17.1842,-64.6793 l -1.6266,-7.86635 -5.1559,0.6565 c -4.4749,0.56979 -57.677,9.84983 -63.1559,11.01628 -1.1,0.23419 -6.95,1.40579 -13,2.60357 -16.1573,3.1988 -15.7925,2.66315 -8.0117,11.76482 6.9782,8.16286 16.2117,19.49373 28.8797,35.43978 9.7534,12.27718 20.6996,23.30522 41.632,41.94309 9.075,8.08023 25.5,23.7627 36.5,34.84992 21.08849,21.2557 44.79559,42.34751 55.49999,49.37743 5.7594,3.78238 19.7894,16.20403 31.5,27.8889 6.05,6.03673 13.25,12.74065 16,14.89759 6.0674,4.75897 27.3747,25.61665 32.3396,31.65719 1.972,2.39931 3.7505,3.86724 3.9523,3.26208 0.2017,-0.60517 -1.7079,-5.21385 -4.2435,-10.24153 z M 200.24914,379.81043 c 2.14681,-1.27074 7.49936,-5.23543 11.89456,-8.81043 6.24309,-5.07805 8.74614,-7.92195 11.44191,-13 3.32751,-6.26807 7.25807,-18.69627 6.23611,-19.71822 -1.3026,-1.3026 -68.35719,11.0311 -70.24455,12.92045 -0.76878,0.76958 -1.57283,5.23403 -1.97557,10.9693 l -0.67916,9.67153 5.54211,3.54525 c 9.49558,6.07425 14.97121,7.63742 25.06168,7.15458 6.90766,-0.33055 9.6658,-0.9229 12.72291,-2.73246 z m -45.85377,-15.39256 c 0.94553,-5.32267 0.98245,-13.41561 0.0612,-13.42777 -1.97433,-0.026 -21.85309,4.42277 -22.5821,5.05382 -1.42859,1.23661 1.61378,4.83555 5.81205,6.87529 6.29137,3.05669 13.92127,5.93414 15.01644,5.66311 0.54801,-0.13562 1.30958,-2.00962 1.69237,-4.16445 z m -69.688764,-3.97608 c 33.639454,-6.21291 37.015034,-6.99633 36.612244,-8.49706 -2.69296,-10.03344 -3.1657,-13.96222 -3.1496,-26.17514 0.0256,-19.46009 -2.44783,-30.24708 -8.11763,-35.40141 C 106.01539,286.69889 97.919536,283 93.924726,283 c -7.55819,0 -14.90625,5.78159 -19.06413,15 -1.50632,3.33967 -2.2139,7.75431 -2.74413,17.12085 -0.78807,13.92148 -1.92206,20.64486 -5.37686,31.87915 -1.26853,4.125 -2.62195,9.4125 -3.00761,11.75 l -0.70119,4.25 3.8379,0.0137 c 2.11085,0.008 10.1379,-1.14982 17.8379,-2.57194 z M 248.76372,329.94361 c 18.80108,-3.53309 38.59824,-7.0558 47.44289,-8.44198 15.10535,-2.3674 52.85543,-9.20155 74.5,-13.48724 5.5,-1.08902 11.24136,-2.18366 12.75858,-2.43254 1.51721,-0.24889 3.54221,-0.69727 4.5,-0.99642 0.95778,-0.29914 11.62233,-2.35257 23.699,-4.56316 12.07667,-2.21059 22.82362,-4.29413 23.88213,-4.63009 2.94502,-0.93471 0.0173,-2.36202 -4.83971,-2.35939 -5.53178,0.003 -27.74571,-2.92112 -34.89457,-4.59332 -3.24201,-0.75834 -6.33514,-1.10652 -6.87362,-0.77372 -1.97351,1.21969 -20.58391,-4.06873 -33.23181,-9.44331 -18.53853,-7.87774 -24.6481,-9.86173 -36.33949,-11.80069 -9.66545,-1.60297 -10.94044,-1.60742 -19.55754,-0.0682 -5.06992,0.90557 -10.5214,1.6465 -12.11439,1.6465 -1.59299,0 -7.14639,2.06752 -12.34088,4.5945 -13.04766,6.34731 -24.22587,17.43234 -32.5605,32.28905 -5.51687,9.83395 -5.85281,10.82637 -6.34715,18.75 -0.31022,4.97248 -0.13737,8.36645 0.4261,8.36645 0.52144,0 5.87237,-0.92537 11.89096,-2.05639 z m 648.59349,-118.921 c 6.2422,-1.08756 17.6494,-3.10982 25.3494,-4.49391 7.7,-1.38408 15.35,-2.75704 17,-3.05101 1.65,-0.29397 7.275,-1.38279 12.5,-2.41958 5.225,-1.0368 12.7625,-2.41468 16.75,-3.06195 3.9875,-0.64728 7.239,-1.4737 7.2256,-1.83651 -0.014,-0.36281 -0.4962,-2.68465 -1.0727,-5.15965 -0.5765,-2.475 -2.5588,-12.6 -4.405,-22.5 -3.7675,-20.20231 -5.0927,-24.75451 -6.54,-22.46612 -0.51,0.80637 -0.9342,2.47862 -0.9426,3.71612 -0.01,1.2375 -0.4142,2.25 -0.9016,2.25 -0.4875,0 -3.3,2.28606 -6.25,5.08014 -2.9501,2.79407 -7.3887,6.18264 -9.8637,7.53015 -7.9241,4.31427 -14.38,8.52335 -19,12.3876 -2.475,2.07011 -6.975,5.21395 -10,6.98629 -3.025,1.77234 -8.4609,5.98845 -12.0799,9.36913 -9.6553,9.01968 -19.9145,17.64669 -20.9852,17.64669 -0.5142,0 -0.9349,0.45 -0.9349,1 0,1.36829 1.1389,1.28962 14.1506,-0.97739 z M 737.83512,1479.4743 c -0.31116,-0.8109 -0.10331,-1.4743 0.46189,-1.4743 0.5652,0 0.7527,-0.4448 0.41668,-0.9885 -0.35034,-0.5669 0.0511,-0.7346 0.94098,-0.3931 1.9104,0.7331 1.93138,1.145 0.14907,2.9273 -1.20383,1.2039 -1.48314,1.1937 -1.96862,-0.071 z m 265.28818,-59.5576 c -2.4504,-2.4504 -1.9437,-3.5367 0.9319,-1.9977 3.0417,1.6278 12.3443,1.3346 14.9212,-0.4703 2.8218,-1.9765 4.3844,-4.8833 3.6516,-6.793 -0.6475,-1.6874 -6.8559,-6.024 -10.0964,-7.0526 -1.8042,-0.5726 -2.2558,-0.1945 -2.8163,2.3575 -1.0024,4.5635 -3.5087,3.9238 -3.5087,-0.8955 0,-2.1642 -0.4635,-5.154 -1.03,-6.644 -0.7135,-1.8766 -0.7019,-3.7034 0.038,-5.9442 1.5574,-4.7188 4.3414,-6.7923 9.2529,-6.8914 3.6998,-0.075 4.2812,0.2089 4.5673,2.2274 0.1803,1.2722 -0.4749,4.5452 -1.456,7.2735 l -1.7838,4.9606 5.206,4.554 c 5.7536,5.0331 6.4517,7.5457 3.2332,11.6373 -4.5124,5.7366 -16.8948,7.8941 -21.1105,3.6784 z m 12.5462,-29.6667 c 0.4917,-1.6467 0.261,-2.25 -0.8603,-2.25 -1.8428,0 -3.6026,3.0073 -3.6026,6.1565 0,2.2729 0.013,2.275 1.8955,0.3157 1.0425,-1.0847 2.1978,-2.9847 2.5674,-4.2222 z m -29.26289,-0.45 c -1.7725,-1.7725 -1.4627,-3.5891 0.8207,-4.8111 2.5212,-1.3493 3.6076,-0.7137 4.2154,2.4661 0.2613,1.3664 0.1211,2.2658 -0.3115,1.9984 -0.4325,-0.2673 -1.0691,-0.029 -1.4145,0.5303 -0.8281,1.3399 -1.8428,1.2836 -3.3101,-0.1837 z m 2.8,-14.6584 c 0,-3.4254 2.2998,-15.7597 3.0935,-16.5916 1.2511,-1.3111 1.1543,2.8316 -0.2345,10.0332 -1.0505,5.448 -2.859,9.5965 -2.859,6.5584 z m 95.22649,-38.1806 c -2.7875,-1.1205 -4.1947,-4.5952 -3.2205,-7.9518 0.4005,-1.38 2.138,-5.6089 3.8611,-9.3975 1.7231,-3.7886 3.1329,-7.0398 3.1329,-7.225 0,-0.1852 -1.4103,-0.055 -3.1339,0.2901 -2.4247,0.4849 -3.0284,0.3095 -2.6675,-0.775 0.4872,-1.4643 5.3927,-2.8337 7.5514,-2.108 1.908,0.6414 1.509,3.5736 -1.3507,9.9277 -3.7744,8.3865 -4.4856,11.2488 -3.3309,13.4062 1.129,2.1096 5.7327,2.5158 9.2473,0.8158 2.0548,-0.9938 2.0444,-0.9345 -0.1765,1 -1.2984,1.1311 -2.9491,2.0565 -3.6682,2.0565 -0.7191,0 -1.9067,0.1969 -2.6392,0.4375 -0.7325,0.2406 -2.3549,0.026 -3.6053,-0.4765 z m -12.8415,-12.5633 c -0.8687,-3.461 0.2889,-15.3441 2.2264,-22.8545 2.7537,-10.6747 7.1608,-16.3851 11.5664,-14.9868 1.8083,0.574 2.0005,1.2797 1.615,5.9287 -0.3395,4.094 -1.4864,6.9599 -5.1152,12.7821 -4.0022,6.4211 -4.6776,8.2528 -4.6776,12.6846 0,5.7099 -1.2973,9.0482 -3.5161,9.0482 -0.7952,0 -1.7397,-1.171 -2.0989,-2.6023 z m 10.5127,-25.8829 c 2.2182,-4.205 2.8135,-9.5148 1.0668,-9.5148 -1.9277,0 -5.5554,10.3288 -5.0752,14.45 0.1639,1.4062 1.5885,-0.3479 4.0084,-4.9352 z m -19.361,19.3285 c 0.4092,-2.3888 1.2433,-8.3559 1.8536,-13.2603 0.67,-5.3833 1.6051,-9.0819 2.3597,-9.3333 1.5429,-0.5139 1.5217,3.6414 -0.086,16.7394 -0.9713,7.9154 -1.4718,9.5478 -3.0181,9.8433 -1.6624,0.3176 -1.7769,-0.094 -1.1096,-3.9891 z m -20.1441,-16.2625 c -0.2995,-0.7806 0.1396,-2.4681 0.9758,-3.75 0.8362,-1.2819 2.2604,-7.0558 3.1649,-12.8308 0.9044,-5.775 2.047,-10.92 2.5389,-11.4333 2.0948,-2.1859 2.126,1.0331 0.095,9.8723 -2.5703,11.1897 -2.6432,12.561 -0.6677,12.561 1.8021,0 1.8511,0.4644 0.3503,3.3157 -1.9722,3.7469 -5.4244,4.9577 -6.4577,2.2651 z M 1004.888,1285.5 c 0.3006,-3.3 0.9453,-6.4275 1.4326,-6.95 1.2315,-1.3205 0.9697,1.9187 -0.6426,7.95 l -1.3366,5 0.5466,-6 z m 147.3186,2.5 c -1.2068,-0.7799 -1.0486,-0.9724 0.809,-0.9847 1.2876,-0.01 2.0356,0.4271 1.691,0.9847 -0.7432,1.2025 -0.6393,1.2025 -2.5,0 z m 147.4316,-33.464 c -2.1813,-3.3292 -4.439,-11.779 -4.4096,-16.5039 0.028,-4.4934 3.2011,-11.5459 5.8272,-12.9514 8.7579,-4.6871 10.5868,4.3322 2.7605,13.6134 l -2.6934,3.1941 1.6077,6.2043 c 1.413,5.4532 1.4301,6.382 0.1406,7.6715 -1.2895,1.2894 -1.6809,1.1407 -3.233,-1.228 z m 4.5957,-20.8815 c 2.3771,-4.4809 2.1822,-7.6545 -0.4702,-7.6545 -1.9691,0 -4.5571,5.0829 -4.5571,8.9503 0,4.4257 2.3076,3.8309 5.0273,-1.2958 z m -250.9461,16.7205 c -0.1176,-4.5255 1.0198,-9.4306 2.0406,-8.7998 1.2946,0.8002 0.9868,5.4907 -0.5857,8.9248 l -1.3737,3 -0.081,-3.125 z m 264.5435,-1.2372 c -2.5288,-2.7943 -3.5858,-7.6421 -2.9311,-13.4438 1.0332,-9.1553 4.7203,-13.694 11.1246,-13.694 12.9907,0 15.1775,16.2637 3.483,25.9033 -4.3549,3.5896 -9.0919,4.0905 -11.6765,1.2345 z m 13.369,-6.2878 c 4.7455,-6.551 3.932,-13.2857 -1.9737,-16.3396 -6.5614,-3.3931 -10.02,-1.0229 -10.02,6.8667 0,4.0105 0.5835,6.0252 2.4955,8.6168 4.573,6.1984 5.5636,6.2877 9.4982,0.8561 z m -319.423,2.0019 c 0.3012,-3.1064 0.9659,-6.9314 1.4771,-8.5 0.7051,-2.1638 0.7971,-1.4891 0.3815,2.7962 -0.3012,3.1064 -0.9659,6.9314 -1.4771,8.5 -0.7051,2.1638 -0.7971,1.4891 -0.3815,-2.7962 z m 337.5979,-1.6019 c -5.1016,-9.9 -6.1236,-24.6602 -2.257,-32.5977 2.1828,-4.481 6.8789,-8.6394 9.767,-8.6486 1.7454,-0.01 4.3261,2.8928 4.2896,4.8177 -0.029,1.5371 -0.1438,1.5311 -1.3602,-0.071 -2.7888,-3.6737 -7.0612,-1.5142 -9.3975,4.75 -1.5872,4.2555 -2.3224,10.2059 -1.6112,13.0396 0.7278,2.9 1.9837,2.4302 10.1761,-3.8062 2.9015,-2.2087 5.5654,-3.7259 5.9198,-3.3715 0.796,0.796 -8.1863,9.243 -11.9452,11.2333 -3.2381,1.7146 -3.1612,1.1825 -1.1635,8.0543 1.5748,5.4173 1.3922,8.3505 -0.5199,8.3505 -0.5479,0 -1.402,-0.7875 -1.898,-1.75 z m -290.8383,-21.75 c 0.3101,-1.65 0.8548,-5.362 1.2105,-8.2489 0.6934,-5.6292 2.467,-8.2091 2.4473,-3.5601 -0.014,3.1909 -2.5125,13.1839 -3.5417,14.1624 -0.374,0.3556 -0.4263,-0.7034 -0.1161,-2.3534 z m -40.1603,-14 c 0.016,-1.1 0.3896,-3.125 0.83,-4.5 l 0.8006,-2.5 0.029,2.5 c 0.016,1.375 -0.3573,3.4 -0.83,4.5 -0.8594,2 -0.8594,2 -0.83,0 z m -646.61694,-25.1446 c -0.36646,-1.4601 -0.19106,-3.1174 0.39159,-3.7 0.74048,-0.7405 1.05536,0.049 1.05536,2.6446 0,4.3551 -0.52303,4.7365 -1.44695,1.0554 z m 694.05704,-5.1054 c 0.8583,-3.6419 2.3899,-5.2643 2.3899,-2.5318 0,2.809 -0.9954,5.2818 -2.126,5.2818 -0.5017,0 -0.6204,-1.2375 -0.2639,-2.75 z m -693.41916,-6.7088 c 0.0732,-1.9477 0.51022,-3.5412 0.9711,-3.5412 1.17111,0 1.05304,5.749 -0.13313,6.4821 -0.56643,0.3501 -0.91562,-0.8754 -0.83797,-2.9409 z M 1026.3645,1160 c 0,-1.375 0.227,-1.9375 0.5044,-1.25 0.2774,0.6875 0.2774,1.8125 0,2.5 -0.2774,0.6875 -0.5044,0.125 -0.5044,-1.25 z m 1.0121,-5 c -0.016,-1.375 0.3573,-3.4 0.83,-4.5 0.8594,-2 0.8594,-2 0.83,0 -0.016,1.1 -0.3896,3.125 -0.83,4.5 l -0.8006,2.5 -0.029,-2.5 z m 44.1978,-11.875 c 0.3477,-1.8562 0.6322,-4.2453 0.6322,-5.309 0,-1.141 0.4469,-1.6578 1.0898,-1.2605 1.2748,0.7879 0.3116,7.4162 -1.2999,8.9445 -0.7339,0.6961 -0.8622,-0.026 -0.4221,-2.375 z M 1033.3645,1121 c 0,-1.375 0.227,-1.9375 0.5044,-1.25 0.2774,0.6875 0.2774,1.8125 0,2.5 -0.2774,0.6875 -0.5044,0.125 -0.5044,-1.25 z m 0.921,-6.4167 c -0.043,-1.0541 0.193,-1.6448 0.5253,-1.3125 0.3323,0.3323 0.3678,1.1948 0.079,1.9167 -0.3192,0.7977 -0.5562,0.5608 -0.6042,-0.6042 z m 42.8294,0.9996 c -0.6744,-0.6834 1.5986,-18.4232 2.4725,-19.297 1.2963,-1.2964 1.6285,2.6748 0.5685,6.7965 -0.6249,2.4297 -1.4316,6.3712 -1.7927,8.7589 -0.3611,2.3878 -0.9229,4.0715 -1.2483,3.7416 z M 79.706606,1088 c -0.33992,-0.55 -0.14148,-1 0.44098,-1 0.58246,0 1.05902,0.45 1.05902,1 0,0.55 -0.19844,1 -0.44098,1 -0.24254,0 -0.7191,-0.45 -1.05902,-1 z m -0.0416,-3.0674 c -0.49466,-0.8004 -0.35708,-0.988 0.38713,-0.5281 0.73678,0.4554 1.19648,-0.1219 1.27051,-1.5955 0.0933,-1.8568 0.20957,-1.9455 0.59378,-0.4528 0.59841,2.3249 -1.1619,4.3393 -2.25142,2.5764 z m 1.32195,-5.4856 c -1.0622,-1.0622 0.86314,-22.2521 2.22156,-24.45 1.67062,-2.7031 1.73965,-0.4935 0.3723,11.9165 -1.37981,12.523 -1.58978,13.5376 -2.59386,12.5335 z M 1040.3645,1078 c 0,-1.375 0.227,-1.9375 0.5044,-1.25 0.2774,0.6875 0.2774,1.8125 0,2.5 -0.2774,0.6875 -0.5044,0.125 -0.5044,-1.25 z m 1,-5 c 0,-1.375 0.227,-1.9375 0.5044,-1.25 0.2774,0.6875 0.2774,1.8125 0,2.5 -0.2774,0.6875 -0.5044,0.125 -0.5044,-1.25 z m 44.0741,-8 c 0,-1.925 0.2058,-2.7125 0.4573,-1.75 0.2516,0.9625 0.2516,2.5375 0,3.5 -0.2515,0.9625 -0.4573,0.175 -0.4573,-1.75 z m 0.8137,-7 c -0.016,-3.6484 1.7895,-8.0425 2.0541,-5 0.2222,2.5545 -0.2581,5.4329 -1.168,7 -0.6156,1.0602 -0.8754,0.4739 -0.8861,-2 z m -39.8698,-13.5 c -0.033,-1.1 0.3117,-3.8 0.7667,-6 0.6957,-3.3631 0.8269,-3.5223 0.8241,-1 0,3.5028 -1.4974,10.0752 -1.5908,7 z m 54.5868,-2.0249 c -3.6946,-2.0592 -4.3119,-5.3715 -2.5215,-13.5306 0.8284,-3.7751 1.263,-7.107 0.9658,-7.4042 -1.3857,-1.3856 -4.2762,-0.2862 -5.5278,2.1025 -0.929,1.7731 -1.627,2.2507 -2.121,1.4514 -1.347,-2.1795 -3.5582,0.9085 -3.5582,4.9692 0,2.1002 -0.454,4.0992 -1.0089,4.4421 -1.976,1.2212 -4.825,-0.6347 -6.5891,-4.2923 -2.498,-5.1789 -2.5695,-20.3848 -0.1174,-24.9336 3.2644,-6.05535 9.0969,-7.0519 13.7923,-2.3565 2.5181,2.518 2.9231,3.6808 2.9231,8.3916 0,4.9916 0.2169,5.5229 2.4874,6.0928 1.368,0.3433 3.1406,1.6296 3.9391,2.8584 1.2701,1.9546 1.2665,3.1099 -0.029,9.2341 -2.1429,10.131 -0.4929,13.0075 6.0372,10.5248 2.7429,-1.0429 3.4364,0.01 1.2198,1.8468 -2.3153,1.9216 -7.013,2.2082 -9.892,0.6035 z m -8.2189,-31.6746 c 0.6472,-2.9468 -1.5813,-7.8005 -3.5816,-7.8005 -1.7223,0 -4.9546,6.3646 -4.9585,9.7636 0,1.7949 0.5588,4.1821 1.2463,5.3047 1.2187,1.9901 1.3177,1.9608 3.9554,-1.1724 1.488,-1.7675 2.9903,-4.5104 3.3384,-6.0954 z m -34.5684,22.6699 c -0.9815,-1.1827 -1.0083,-2.1027 -0.1182,-4.0564 1.2692,-2.7855 3.1428,-2.401 3.1428,0.645 0,3.3541 6.3009,1.5809 10.3736,-2.9194 2.5937,-2.866 1.6515,-4.3611 -4.0059,-6.3563 -6.0374,-2.1293 -10.5937,-6.2009 -10.175,-9.0925 0.4424,-3.055 6.6141,-6.952 9.7823,-6.1769 2.8233,0.6907 5.724,3.1205 4.8129,4.0316 -0.3262,0.3262 -1.5385,0 -2.694,-0.7189 -2.3014,-1.4373 -4.5975,-0.5606 -6.522,2.4902 -1.648,2.6127 0.2942,4.8257 7.1819,8.1832 7.9804,3.8901 8.7535,4.6836 7.2677,7.4598 -3.1486,5.8833 -15.9383,10.2552 -19.0461,6.5106 z m -9.8965,-0.8871 c -0.043,-1.0541 0.193,-1.6448 0.5253,-1.3125 0.3323,0.3323 0.3678,1.1948 0.079,1.9167 -0.3192,0.7977 -0.5562,0.5608 -0.6042,-0.6042 z m -15.7174,-2.0835 c -0.8469,-2.2071 0.8903,-3.7424 3.7732,-3.3345 1.5871,0.2246 2.3653,0.9927 2.3653,2.3347 0,2.6129 -5.1948,3.4589 -6.1385,0.9998 z m -871.29388,-1.822 c -0.54358,-1.4297 -1.28708,-4.9796 -1.6522,-7.8886 -0.52007,-4.1436 -0.39938,-5.0408 0.55721,-4.1424 1.11985,1.0518 3.21322,13.3455 2.42509,14.2419 -0.18796,0.2138 -0.78651,-0.7811 -1.3301,-2.2109 z m 853.18238,-2.9889 c -2.8875,-0.4628 -5.25,-1.2571 -5.25,-1.7652 0,-0.508 0.3377,-0.9237 0.7504,-0.9237 1.5244,0 14.4646,2.8817 14.9013,3.3184 0.6485,0.6485 -4.2943,0.3494 -10.4017,-0.6295 z m -30.59779,-5.7376 c -2.6662,-0.4474 -5.1412,-1.1271 -5.5,-1.5105 -0.8151,-0.8711 8.3586,0.417 11.2299,1.5769 2.5713,1.0387 0.7284,1.0173 -5.7299,-0.066 z M 948.70661,1014 c -0.7378,-1.1938 1.2218,-1.1938 4,0 1.7858,0.7674 1.7118,0.867 -0.691,0.9297 -1.48,0.039 -2.9691,-0.3797 -3.309,-0.9297 z m -33,-4.8105 c -3.5921,-0.4112 -5.8866,-2.1895 -2.825,-2.1895 3.2958,0 8.325,1.1831 8.325,1.9583 0,0.7504 -0.705,0.7801 -5.5,0.2312 z m 136.57889,-0.6062 c -0.043,-1.0541 0.193,-1.6448 0.5253,-1.3125 0.3323,0.3323 0.3678,1.1948 0.079,1.9167 -0.3192,0.7977 -0.5562,0.5608 -0.6042,-0.6042 z m 1.079,-5.5833 c 0,-1.375 0.227,-1.9375 0.5044,-1.25 0.2774,0.6875 0.2774,1.8125 0,2.5 -0.2774,0.6875 -0.5044,0.125 -0.5044,-1.25 z m -171.41889,0.041 c -2.0686,-0.4011 -4.0936,-1.087 -4.5,-1.5241 -1.0516,-1.131 8.0624,0.3875 9.211,1.5347 1.067,1.0656 0.8358,1.0651 -4.711,-0.011 z m -31.4197,-5.41269 c -3.3994,-0.62035 -6.5494,-1.51629 -7,-1.99098 -1.1098,-1.16911 9.1856,0.27651 13.6295,1.91379 4.2934,1.58181 1.7761,1.61112 -6.6295,0.0772 z M 155.81125,995.89313 C 154.85778,992.89085 154.5209,989 155.21444,989 c 0.82264,0 2.17654,7.14896 1.48489,7.84062 -0.24511,0.2451 -0.64474,-0.18127 -0.88808,-0.94749 z m 944.47425,-16.3098 c -0.043,-1.05416 0.193,-1.64479 0.5253,-1.3125 0.3323,0.33229 0.3678,1.1948 0.079,1.91667 -0.3192,0.79773 -0.5562,0.56078 -0.6042,-0.60417 z m 251.5546,0.6102 c -0.813,-1.2932 -2.724,-11.30018 -2.7105,-14.19353 0.019,-4.15846 1.89,-12.01753 3.6827,-15.47195 2.5334,-4.88182 4.7594,-6.41537 7.1443,-4.92209 3.0558,1.91336 2.6311,6.39738 -1.2092,12.76519 -1.9475,3.22914 -3.5408,6.26664 -3.5408,6.75 0,0.48337 3.0822,0.87885 6.8493,0.87885 l 6.8493,0 1.8335,-4.44606 c 1.0084,-2.44533 2.1976,-4.22097 2.6428,-3.94587 0.4451,0.27509 1.6003,0.0395 2.5672,-0.52354 1.633,-0.95099 1.6361,-1.02587 0.043,-1.05412 -0.9432,-0.0167 -2.21,-0.95568 -2.8153,-2.08656 -1.0643,-1.98872 -0.8869,-2.04666 5.4086,-1.76658 5.7149,0.25425 6.3488,0.4746 5.1957,1.80615 -0.7223,0.83412 -1.1259,2.02983 -0.8969,2.65714 0.4733,1.29629 -4.2692,5.35944 -6.2555,5.35944 -1.6599,0 -4.4218,3.88666 -4.4218,6.22251 0,2.2247 3.6569,2.3655 8.5321,0.32852 4.7444,-1.98233 4.8166,0.45231 0.1,3.36741 -4.7329,2.92508 -8.1248,2.68662 -10.6654,-0.7498 l -2.0934,-2.83136 -6.4918,1.21995 c -3.5706,0.67098 -6.7231,1.45111 -7.0056,1.73361 -0.2825,0.28251 -0.8303,2.69515 -1.2173,5.36141 -0.4533,3.12277 -0.996,4.38287 -1.525,3.54128 z m 4.854,-25.17366 c 2.6216,-4.1529 3.1263,-6.01987 1.6275,-6.01987 -1.2103,0 -3.8821,4.22388 -4.6782,7.39584 -0.9313,3.7105 0.1466,3.22432 3.0507,-1.37597 z m -255.7625,17.85121 c 0.9023,-6.95453 2.3724,-9.28383 1.9326,-3.06222 -0.2064,2.91988 -0.8533,5.78687 -1.4375,6.37109 -0.7497,0.74963 -0.8954,-0.22412 -0.4951,-3.30887 z m 293.8982,-2.4106 c -0.3428,-0.89323 -0.6232,-2.98973 -0.6232,-4.6589 0,-2.50876 -0.3355,-2.94711 -1.9354,-2.52872 -2.4866,0.65025 -3.5855,-2.01889 -1.7158,-4.16748 0.7683,-0.88296 1.6238,-3.74263 1.9012,-6.35483 0.7005,-6.59823 1.9453,-7.75055 8.3724,-7.75055 6.9859,0 7.3848,2.27705 0.6276,3.5824 -4.1679,0.80514 -4.7888,1.25463 -5.0664,3.6676 -0.3681,3.19929 -0.2642,3.22835 4.4706,1.25 1.9745,-0.825 4.4351,-1.5 5.4679,-1.5 2.3697,0 2.4694,2.67408 0.1279,3.43073 -0.9625,0.31103 -3.0821,1.63446 -4.7103,2.94096 -2.4158,1.93852 -3.0596,3.3498 -3.5,7.67273 -0.5389,5.28977 -2.2383,7.48635 -3.4165,4.41606 z M 1059.3645,969 c 0,-1.375 0.227,-1.9375 0.5044,-1.25 0.2774,0.6875 0.2774,1.8125 0,2.5 -0.2774,0.6875 -0.5044,0.125 -0.5044,-1.25 z m 1.037,-6.5 c -0.02,-1.65 0.1871,-2.44606 0.461,-1.76903 0.274,0.67703 0.2906,2.02703 0.037,3 -0.2536,0.97297 -0.4777,0.41903 -0.4981,-1.23097 z m 239.8051,-1.5 -2.5,-0.80064 2.5,-0.0294 c 1.375,-0.0162 3.4,0.35734 4.5,0.83003 2,0.85943 2,0.85943 0,0.83003 -1.1,-0.0162 -3.125,-0.38968 -4.5,-0.83003 z M 149.25919,956.25 c -1.28795,-4.63769 -1.36233,-6.98741 -0.18044,-5.7 0.94578,1.03022 2.44859,9.45 1.68668,9.45 -0.25565,0 -0.93345,-1.6875 -1.50624,-3.75 z m 1140.94741,2.73095 c 0,-0.60496 1.1175,-0.75097 2.75,-0.35933 3.926,0.94185 4.0579,1.37838 0.4167,1.37838 -1.7417,0 -3.1667,-0.45857 -3.1667,-1.01905 z m -228.9211,-1.39762 c -0.043,-1.05416 0.193,-1.64479 0.5253,-1.3125 0.3323,0.33229 0.3678,1.1948 0.079,1.91667 -0.3192,0.79773 -0.5562,0.56078 -0.6042,-0.60417 z m 218.9211,0.43932 c -1.925,-0.42705 -6.9616,-1.36679 -11.1923,-2.08833 -4.2308,-0.72153 -7.4875,-1.64341 -7.2371,-2.04863 0.4877,-0.78912 5.2643,-0.39224 8.7836,0.72981 1.1802,0.37628 3.5906,0.63109 5.3565,0.56625 1.7659,-0.0648 3.48,0.31774 3.809,0.85018 0.3291,0.53244 2.0343,0.97496 3.7893,0.98338 1.7551,0.008 3.866,0.45153 4.691,0.98469 1.8469,1.19356 -2.6643,1.20633 -8,0.0226 z m -31.9101,-5.59095 c -4.0756,-0.74356 -7.9006,-1.87627 -8.5,-2.51714 -0.8217,-0.87852 -0.3518,-0.99103 1.9101,-0.45727 1.65,0.38937 4.0125,0.78327 5.25,0.87533 1.2375,0.0921 2.25,0.50488 2.25,0.91738 0,0.4125 1.4625,0.75689 3.25,0.76531 1.7875,0.008 3.925,0.45153 4.75,0.98469 1.9827,1.28133 0.8224,1.20733 -8.9101,-0.5683 z M 1001.8659,941.53959 C 999.27861,939.58195 1000.5326,936 1003.8054,936 c 2.7899,0 4.2076,2.4981 2.7389,4.8264 -1.3604,2.15661 -2.5342,2.33555 -4.6784,0.71319 z m -20.40929,-6.20187 c -0.6875,-0.27741 -1.25,-0.88709 -1.25,-1.35483 0,-0.99236 4.6527,-0.29479 6.9331,1.03945 1.1903,0.6965 0.8459,0.90518 -1.4331,0.8683 -1.65,-0.0267 -3.5625,-0.27551 -4.25,-0.55292 z m -18.25,-3.06285 c -6.6042,-0.83016 -9,-1.44269 -9,-2.30105 0,-0.91482 6.8891,-0.33895 11.9618,0.99989 2.9996,0.79171 0.7717,1.77046 -2.9618,1.30116 z M 1066.4015,927.5 c -0.02,-1.65 0.1871,-2.44606 0.461,-1.76903 0.274,0.67703 0.2906,2.02703 0.037,3 -0.2536,0.97297 -0.4777,0.41903 -0.4981,-1.23097 z m -923.02314,-4.57629 c -1.43112,-6.19996 -1.55206,-11.17677 -0.21617,-8.89622 0.96926,1.65468 2.59606,13.97251 1.84533,13.97251 -0.25158,0 -0.9847,-2.28433 -1.62916,-5.07629 z m 780.99245,3.56694 c -4.0346,-0.73086 -7.6346,-1.65168 -8,-2.04626 -1.2025,-1.29884 14.3121,0.33408 17.8624,1.88003 l 3.4734,1.51243 -3,-0.009 c -1.65,-0.005 -6.3011,-0.60666 -10.3358,-1.33753 z M 158.80568,920.75 c -1.72328,-2.67952 -6.59907,-19.21832 -6.59907,-22.38419 0,-2.05649 4.15298,-6.36581 6.13486,-6.36581 0.47583,0 1.76514,0.9 2.86514,2 2.42719,2.42719 2.5801,6.97527 0.3897,11.5912 -1.57115,3.31095 -1.55842,4.03548 0.24889,14.1588 0.68327,3.82719 -0.88868,4.34435 -3.03952,1 z m 0.37593,-19.68964 c 1.53306,-3.70115 0.64331,-5.46164 -2.03569,-4.02788 -1.24963,0.66878 -1.93931,2.09227 -1.93931,4.0027 0,3.88056 2.37183,3.89558 3.975,0.0252 z m 732.1035,19.69128 c -4.6208,-0.61032 -6.885,-1.28023 -6,-1.77523 1.6264,-0.90961 11.9413,0.71071 13.3715,2.10045 0.5225,0.50773 0.7475,0.86281 0.5,0.78907 -0.2475,-0.0737 -3.7897,-0.57517 -7.8715,-1.11429 z M 166.08652,910.25 c -1.55993,-3.61621 -1.90003,-5.89314 -1.42483,-9.53915 C 165.6395,893.20857 166.78612,891 169.7033,891 c 3.86736,0 5.19878,3.76169 3.57453,10.09919 -0.70749,2.76046 -1.01584,5.28952 -0.68523,5.62014 0.33061,0.33061 2.31096,0.0888 4.40077,-0.5373 l 3.79966,-1.1384 1.19934,-8.22865 c 0.65963,-4.52575 1.82751,-8.85682 2.59528,-9.62459 1.9779,-1.97791 5.34216,-0.62635 7.15183,2.87318 0.83102,1.607 2.06358,2.81261 2.73903,2.67913 0.67546,-0.13349 1.04359,0.4323 0.81808,1.2573 -0.22552,0.825 -0.61274,2.96667 -0.86049,4.75927 -0.47181,3.41371 -2.22949,5.55527 -2.22949,2.71641 0,-0.90329 -0.5625,-1.4468 -1.25,-1.2078 -0.6875,0.23899 -1.21545,1.3905 -1.17322,2.5589 0.0608,1.68355 -0.36639,2.01314 -2.05887,1.58836 -1.79394,-0.45025 -2.28623,0.0615 -3.07678,3.19847 -1.07264,4.25633 -2.96635,5.45764 -3.91108,2.48106 -0.63724,-2.00777 -0.65655,-2.00722 -5.08486,0.14422 -2.44485,1.1878 -4.44519,2.74497 -4.44519,3.46038 0,3.11743 -3.22443,0.94522 -5.12009,-3.44927 z m 23.45366,-17.82311 C 189.23903,891.6421 188.64326,891 188.21625,891 c -0.96261,0 -1.99473,3.68158 -1.24289,4.43342 0.98065,0.98065 3.13053,-1.53753 2.56682,-3.00653 z m 660.16643,21.09233 -6,-1.26279 4.5,-0.0322 c 2.475,-0.0177 6.75,0.54613 9.5,1.25299 4.6178,1.18697 4.7325,1.28596 1.5,1.29501 -1.925,0.005 -6.2,-0.55846 -9.5,-1.25299 z m -30,-5.51922 c -1.8317,-0.78709 -1.7896,-0.86406 0.5,-0.9144 1.375,-0.0302 3.175,0.38124 4,0.9144 1.238,0.80009 1.1507,0.95977 -0.5,0.9144 -1.1,-0.0302 -2.9,-0.44171 -4,-0.9144 z m -682.452,-20.67069 c -2.3089,-11.94548 -2.23944,-11.03397 -0.69057,-9.06217 1.35922,1.73034 3.22699,13.48178 2.29148,14.41728 -0.2608,0.26081 -0.98121,-2.149 -1.60091,-5.35511 z m -6.94965,-40.54876 c -0.64563,-3.4543 -1.43,-7.57435 -1.74305,-9.15566 -0.34828,-1.75933 -0.18813,-2.63961 0.41267,-2.26829 1.06382,0.65747 3.80497,16.40379 2.99637,17.21239 -0.27066,0.27066 -1.02035,-2.33414 -1.66599,-5.78844 z m -7.0194,-41.19722 c -0.0434,-1.05416 0.19293,-1.64479 0.52522,-1.3125 0.33229,0.33229 0.36781,1.1948 0.0789,1.91667 -0.31922,0.79773 -0.55618,0.56078 -0.60416,-0.60417 z M 381.4246,764 c 0.0103,-1.375 0.36216,-3.85 0.78201,-5.5 l 0.76337,-3 0.0186,3 c 0.0102,1.65 -0.34166,4.125 -0.78201,5.5 l -0.80064,2.5 0.0186,-2.5 z m 1.97696,-11.5 c -0.0204,-1.65 0.18706,-2.44606 0.46099,-1.76903 0.27392,0.67703 0.29059,2.02703 0.0371,3 -0.25354,0.97297 -0.47766,0.41903 -0.49804,-1.23097 z M 74.956606,750.33772 c 0.6875,-0.27741 1.8125,-0.27741 2.5,0 0.6875,0.27741 0.125,0.50439 -1.25,0.50439 -1.375,0 -1.9375,-0.22698 -1.25,-0.50439 z m -6.47917,-0.94189 c 0.33229,-0.33229 1.19479,-0.36781 1.91667,-0.0789 0.79773,0.31922 0.56078,0.55618 -0.60417,0.60416 -1.05416,0.0434 -1.64479,-0.19293 -1.3125,-0.52522 z m -4.52083,-1.05811 c 0.6875,-0.27741 1.8125,-0.27741 2.5,0 0.6875,0.27741 0.125,0.50439 -1.25,0.50439 -1.375,0 -1.9375,-0.22698 -1.25,-0.50439 z m 285.210944,-8.66926 c -3.61173,-1.79975 -9.96094,-14.6507 -9.96094,-20.16117 0,-6.08236 4.01025,-10.95524 8.3084,-10.09561 1.6369,0.32738 3.57283,1.38118 4.30208,2.34178 1.83063,2.41138 1.7177,9.71122 -0.20784,13.43481 -1.31271,2.53851 -1.38072,3.5543 -0.38167,5.70034 3.58549,7.70191 2.76808,11.18572 -2.06003,8.77985 z m -1.06787,-20.24335 c 0.56579,-2.04915 0.62645,-4.50322 0.14211,-5.75 -0.78409,-2.01841 -0.96306,-1.89966 -2.48416,1.64829 -1.5867,3.70095 -1.34362,7.6766 0.46936,7.6766 0.48709,0 1.3298,-1.6087 1.87269,-3.57489 z M 130.28521,737 c 0.004,-0.825 1.83782,-3.525 4.07589,-6 3.553,-3.92914 3.83623,-4.08577 2.23268,-1.23465 -2.78048,4.94371 -6.31642,8.99872 -6.30857,7.23465 z m 239.13837,-0.25 c -0.56536,-0.6875 -1.77498,-3.82918 -2.68803,-6.98152 -1.89367,-6.53787 -2.64853,-7.31003 -5.60141,-5.72969 -2.20508,1.18012 -6.92753,0.54759 -6.92753,-0.92788 0,-0.46804 2.025,-1.41795 4.5,-2.11091 2.53053,-0.7085 4.5,-1.85953 4.5,-2.62996 0,-0.80407 1.05992,-1.37004 2.56574,-1.37004 1.41116,0 3.4747,-0.48646 4.58565,-1.08102 2.99248,-1.60153 3.31013,-0.46224 0.81287,2.9155 l -2.21186,2.99169 2.1238,6.99215 c 1.16809,3.84569 2.1238,7.4848 2.1238,8.08692 0,1.48916 -2.51567,1.38593 -3.78303,-0.15524 z m 15.57962,-5.5 c -2.13021,-2.46326 -3.79659,-7.88067 -3.79659,-12.34269 0,-3.15534 -0.50516,-4.09264 -3,-5.56638 -3.71982,-2.19735 -3.778,-3.11799 -0.25,-3.95619 1.5125,-0.35935 3.53897,-1.339 4.50327,-2.177 0.9643,-0.838 3.42008,-1.79457 5.45728,-2.12571 2.83854,-0.46139 3.86595,-1.18387 4.39705,-3.09205 0.6775,-2.43415 0.69527,-2.42488 0.79272,0.41353 0.0548,1.59693 1.14516,5.19693 2.42296,8 2.57925,5.65799 5.19087,15.41567 4.35081,16.25573 -0.98558,0.98558 -2.67553,-0.7425 -4.86729,-4.97709 -2.10062,-4.05851 -2.18548,-4.10824 -2.87045,-1.68215 -0.38821,1.375 -0.47558,4.18506 -0.19415,6.24458 0.8155,5.96794 -3.45301,9.04408 -6.94561,5.00542 z m 4.35326,-21.50015 c -0.88551,-0.88551 -1.54507,-0.7832 -2.75575,0.42747 -1.45548,1.45548 -1.43496,1.83069 0.23989,4.38683 l 1.83149,2.79521 0.92425,-3.22269 c 0.64182,-2.23786 0.56851,-3.57843 -0.23988,-4.38682 z m -234.16227,-7.13778 c 4.57615,-6.61964 10.87047,-13.75994 8.42058,-9.55234 -2.39898,4.12017 -12.0035,16.89523 -12.71801,16.91634 -0.44541,0.0132 1.48843,-3.30064 4.29743,-7.364 z M 165.20661,689.5 c 0.68469,-0.825 1.40067,-1.5 1.59106,-1.5 0.19039,0 0.0871,0.675 -0.22943,1.5 -0.31659,0.825 -1.03256,1.5 -1.59106,1.5 -0.58531,0 -0.48812,-0.63541 0.22943,-1.5 z m -41.61915,-19.13214 c 0.3142,-3.77732 0.79175,-10.91786 1.06122,-15.86786 0.26946,-4.95 0.68632,-10.575 0.92635,-12.5 0.24003,-1.925 0.76543,-7.55 1.16755,-12.5 0.40212,-4.95 1.09077,-9.675 1.53033,-10.5 1.87425,-3.51773 2.039,2.52208 0.46907,17.19618 -0.90052,8.4171 -1.84961,17.32882 -2.10911,19.80382 -0.25949,2.475 -0.74479,6.075 -1.07844,8 -0.33364,1.925 -0.56406,5.39562 -0.51204,7.7125 0.052,2.31687 -0.38259,4.50741 -0.9658,4.86786 -0.72808,0.44997 -0.88137,-1.49698 -0.48913,-6.2125 z m 61.71954,-7.07238 c 0.72815,-1.21249 1.53915,-1.98927 1.80223,-1.72619 0.26308,0.26308 -0.33267,1.25511 -1.3239,2.20452 -1.72194,1.64929 -1.74325,1.62798 -0.47833,-0.47833 z m 16.94025,-22.70461 C 202.20226,639.58437 209.98008,629 210.76469,629 c 0.2713,0 -0.16052,1.2375 -0.95961,2.75 -1.80141,3.40967 -7.5025,10.07859 -7.55783,8.84087 z M 128.96583,615.79313 C 128.6975,615.08191 129.05106,610 129.75151,604.5 c 0.70045,-5.5 1.50728,-13.15 1.79296,-17 0.28567,-3.85 0.75095,-7.675 1.03394,-8.5 0.28299,-0.825 0.7324,-4.65 0.99869,-8.5 0.81122,-11.72864 1.85624,-18.5 2.85509,-18.5 0.53084,0 0.70325,1.65505 0.39064,3.75 -0.30777,2.0625 -0.80225,7.35 -1.09886,11.75 -1.52006,22.54954 -4.5225,47.83847 -5.83552,49.15149 -0.23912,0.23912 -0.6543,-0.14714 -0.92262,-0.85836 z M 229.82314,602.75 c 3.47955,-5.92111 11.15799,-16.11754 16.69777,-22.17348 2.50547,-2.73891 2.6793,-2.80217 1.58407,-0.57652 -1.90123,3.86356 -17.10023,24 -18.11522,24 -0.49565,0 -0.57063,-0.5625 -0.16662,-1.25 z m -12.58238,-8.71585 c -4.88607,-4.88607 -9.79167,-19.16778 -8.43736,-24.56378 0.74334,-2.96168 3.325,-3.97715 5.24076,-2.06139 1.91254,1.91254 3.3055,12.08456 2.09196,15.27642 -0.74026,1.94703 -0.44512,3.09744 1.4446,5.63078 3.99695,5.35829 4.95366,7.68382 3.16107,7.68382 -0.84435,0 -2.41981,-0.88463 -3.50103,-1.96585 z M 212.91234,572.75 c -0.23835,-1.2375 -0.43337,-0.225 -0.43337,2.25 0,2.475 0.19502,3.4875 0.43337,2.25 0.23836,-1.2375 0.23836,-3.2625 0,-4.5 z m 9.69427,-0.15 c -2.98334,-2.98334 -3.4,-4.02892 -3.4,-8.53212 0,-5.564 2.19112,-12.06788 4.0656,-12.06788 0.74891,0 0.91994,0.80691 0.47691,2.25 -0.37991,1.2375 -0.94647,4.45853 -1.25903,7.15785 -1.09767,9.47993 5.53327,15.71477 9.19084,8.64181 2.27577,-4.40086 1.86714,-9.4266 -1.22432,-15.05804 -2.20767,-4.02151 -2.48366,-5.17948 -1.39945,-5.87169 1.11857,-0.71414 1.13424,-1.82882 0.0912,-6.48948 -0.98889,-4.41885 -1.00187,-6.48653 -0.0604,-9.62884 1.7658,-5.89371 3.11863,-4.87466 3.11863,2.34917 0,6.09225 1.47866,12.65657 2.84783,12.64253 0.35869,-0.004 2.36605,-3.15368 4.46078,-7 3.3813,-6.20868 5.69139,-8.68965 5.69139,-6.11237 0,0.91586 -3.73066,11.00055 -6.35117,17.16841 -1.38983,3.27123 -1.35393,3.89344 0.45815,7.94087 2.82089,6.30066 2.18507,7.97214 -1.76675,4.64451 -2.73566,-2.30355 -3.09144,-2.39936 -2.65065,-0.71377 0.87896,3.36114 -1.63401,8.99895 -4.72321,10.59643 -3.78955,1.95965 -3.65531,1.99367 -7.56637,-1.91739 z m 36.58217,-9.07409 c 3.43629,-4.99447 11.01783,-13.97545 11.01783,-13.05155 0,1.87547 -11.70393,17.52564 -13.10649,17.52564 -0.54427,0 0.39562,-2.01334 2.08866,-4.47409 z M 427.67775,492.5 c 0.37113,-2.75 1.27868,-7.475 2.01678,-10.5 1.21703,-4.98786 1.34991,-5.16791 1.42703,-1.93366 0.1153,4.83488 -1.83855,15.20031 -3.09768,16.43366 -0.69346,0.67925 -0.80448,-0.60373 -0.34613,-4 z m -109.47114,-4.58657 c 0,-2.73073 17.86188,-25.85637 17.95736,-23.24927 C 336.20499,465.78402 319.46986,489 318.6216,489 c -0.22825,0 -0.41499,-0.48896 -0.41499,-1.08657 z M 434.62628,452.5 c 0.8544,-6.53827 2.40754,-13.90628 4.11051,-19.5 1.20212,-3.94857 1.31638,-4.07111 0.93244,-1 -1.37372,10.98848 -3.7852,23.63422 -4.67203,24.5 -0.69772,0.68117 -0.81598,-0.59414 -0.37092,-4 z m -84.37903,-7.26987 c -0.0633,-1.97766 4.35698,-8.36835 8.45926,-12.23013 l 3.71796,-3.5 -3.05725,5 c -3.81879,6.24548 -9.06592,12.419 -9.11997,10.73013 z m 91.95936,-37.39822 c 0,-3.02091 2.32611,-14.43815 3.11349,-15.28191 1.19496,-1.28053 1.13013,1.08956 -0.26004,9.50737 -0.6306,3.81845 -1.5306,6.94263 -2,6.94263 -0.4694,0 -0.85345,-0.52564 -0.85345,-1.16809 z m -64,-0.37395 c 0,-0.96389 6.47559,-9.37869 7.24834,-9.41896 0.41158,-0.0214 -0.86813,2.211 -2.84381,4.961 -3.37709,4.70066 -4.40453,5.74057 -4.40453,4.45796 z M 235.70661,387 c -0.33992,-0.55 -0.14148,-1 0.44098,-1 0.58246,0 1.05902,0.45 1.05902,1 0,0.55 -0.19844,1 -0.44098,1 -0.24254,0 -0.7191,-0.45 -1.05902,-1 z m 164.52316,-9.75 c 0.0253,-0.8181 9.52116,-13.59874 14.72684,-19.82101 4.60633,-5.50588 4.03231,-2.86789 -0.90482,4.15822 -9.89363,14.07979 -13.9138,18.63535 -13.82202,15.66279 z m 48.97481,-10.5 c -0.005,-3.26183 3.34861,-19.36688 4.21711,-20.25 1.25295,-1.27402 0.1577,12.48603 -1.41283,17.75 -1.07004,3.58648 -2.80001,5.12874 -2.80428,2.5 z m -18.97573,-28.5 c -0.0122,-1.2375 0.42776,-2.25 0.97776,-2.25 0.55,0 1,-0.60526 1,-1.34501 0,-0.73976 0.90132,-2.1607 2.00294,-3.15765 1.97277,-1.78533 1.98737,-1.76884 0.96996,1.09502 -0.56814,1.5992 -1.90945,4.03264 -2.9807,5.40764 -1.94744,2.49963 -1.94773,2.49967 -1.96996,0.25 z M 815.28181,195.13133 c -2.7914,-4.87777 -5.0752,-9.62323 -5.0752,-10.54546 0,-2.75545 4.5921,-6.58587 7.8955,-6.58587 1.6426,0 3.2646,0.45 3.6045,1 0.3453,0.55872 -0.4229,1 -1.741,1 -2.5968,0 -4.759,1.68105 -4.759,3.7 0,0.715 0.9266,1.3 2.059,1.3 1.1325,0 1.8001,0.41891 1.4837,0.9309 -1.0996,1.77921 1.2661,2.04695 4.8511,0.54904 4.4343,-1.85278 4.5491,-1.04799 0.4533,3.17782 l -3.1529,3.25297 1.7266,4.52094 c 0.9496,2.48652 1.4418,4.98161 1.0938,5.54464 -1.5235,2.4652 -3.6939,0.44774 -8.4394,-7.84498 z M 473.45879,197.5 c -0.0111,-2.2 0.18461,-3.21775 0.4349,-2.26166 0.25029,0.95609 0.25937,2.75609 0.0202,4 -0.23919,1.24391 -0.44398,0.46166 -0.45508,-1.73834 z m 362.99762,-0.75 c -0.5472,-0.6875 -1.9237,-3.38 -3.0588,-5.98334 -1.1351,-2.60333 -3.2867,-6.33659 -4.7813,-8.29612 -3.1328,-4.10736 -2.2594,-6.53083 1.6078,-4.46116 1.8565,0.99355 2.6741,0.87204 4.8574,-0.7219 1.4438,-1.0541 3.4497,-3.57501 4.4575,-5.60201 2.6168,-5.26324 4.6676,-4.84649 4.6676,0.94851 0,2.54869 0.5221,6.37659 1.1602,8.50645 0.6381,2.12985 0.8659,4.1668 0.5062,4.52655 -0.999,0.99892 -4.4095,-2.50726 -5.0948,-5.23762 -0.5354,-2.13315 -0.8456,-2.2752 -2.5899,-1.18585 -2.4958,1.55863 -2.4947,3.95219 0,11.21727 1.8873,5.48546 1.9082,7.53922 0.077,7.53922 -0.4502,0 -1.2663,-0.5625 -1.8136,-1.25 z m 17.7502,-6.75 c 0,-0.55 0.718,-1 1.5956,-1 3.626,0 12.8791,-9.85866 11.0087,-11.72908 -0.3432,-0.34313 -3.432,-2.00696 -6.8641,-3.6974 -6.5676,-3.23479 -8.2657,-6.03044 -5.6081,-9.23274 1.7773,-2.14151 5.7496,-3.51312 8.055,-2.78139 2.4914,0.79075 1.8349,2.73639 -0.9937,2.94478 -5.4891,0.40439 -3.8793,3.71264 3.5229,7.23986 8.1539,3.88538 8.318,6.35209 0.9152,13.75487 -4.2752,4.27522 -6.1841,5.5011 -8.5663,5.5011 -1.6859,0 -3.0652,-0.45 -3.0652,-1 z m -708.5,-2.13675 c -4.19947,-2.50357 -4.61506,-6.51287 -1.38694,-13.38039 3.33815,-7.10161 10.333,-11.8062 12.45315,-8.37573 0.4566,0.73879 0.003,0.8909 -1.3635,0.45721 -4.14022,-1.31406 -11.74897,13.67793 -9.28163,18.28819 0.88376,1.65133 2.08048,2.14747 5.17985,2.14747 4.58278,0 7.1593,-1.11301 11.27868,-4.87219 2.56611,-2.34172 2.75685,-2.39042 1.75203,-0.44735 -2.82973,5.47202 -13.74699,9.09484 -18.63164,6.18279 z m 26.72326,-3.53444 C 168.93619,182.92421 165.0976,169.5 168.18965,169.5 c 0.91741,0 1.70493,1.33489 2.06485,3.5 0.31999,1.925 1.16349,4.57329 1.87445,5.8851 1.71677,3.16769 2.39936,1.95421 5.14008,-9.13773 1.1995,-4.85446 3.01118,-9.82103 4.02597,-11.03683 2.44107,-2.92459 2.43028,-1.49335 -0.0753,9.98669 -3.23586,14.8262 -4.62932,17.30427 -8.78985,15.63158 z m 18.32155,-5.24215 c -2.13199,-4.12282 -2.16567,-15.71979 -0.0576,-19.84214 2.18837,-4.27942 5.0107,-5.79433 8.1393,-4.36884 1.68287,0.76677 2.37351,1.90364 2.37351,3.9071 0,3.12034 -5.28884,12.21722 -7.10298,12.21722 -1.11354,0 -0.96285,1.90521 0.66306,8.38334 0.9343,3.72258 -2.05089,3.50201 -4.01527,-0.29668 z M 197.75197,159.75 c 0.38934,-1.59458 0.2572,-2.75 -0.31451,-2.75 -1.5688,0 -2.94295,2.22049 -3.71309,6 l -0.71318,3.5 2.03466,-2 c 1.11906,-1.1 2.33682,-3.2375 2.70612,-4.75 z m 267.29065,11.11639 c -3.24367,-1.18803 -4.19936,-3.31171 -2.62489,-5.83284 0.98444,-1.57634 0.64386,-2.74774 -2.0666,-7.10797 -1.78491,-2.87132 -3.01174,-5.82921 -2.72629,-6.57308 0.75905,-1.97807 6.07576,-1.6513 10.58817,0.65077 6.01129,3.06673 7.38408,7.04891 4.60066,13.3456 -0.76611,1.73312 -1.65199,3.93863 -1.96861,4.90113 -0.63768,1.93848 -1.84313,2.06653 -5.80244,0.61639 z m 5.39948,-10.48389 c 1.07195,-2.35268 0.91238,-2.85856 -1.5772,-5 -2.86687,-2.46598 -6.65829,-3.20184 -6.65829,-1.29228 0,1.40695 5.25896,8.86041 6.27144,8.88843 0.42429,0.0117 1.30811,-1.15653 1.96405,-2.59615 z m 675.2129,7.53405 c -0.2646,-0.42809 -0.1362,-0.95609 0.2853,-1.17333 1.3852,-0.71398 4.7562,-0.26242 5.2663,0.70545 0.5969,1.13246 -4.8568,1.59209 -5.5516,0.46788 z m -661.32445,-1.68496 c -0.52053,-0.97262 -1.2325,-3.56012 -1.58214,-5.75 -0.34965,-2.18987 -1.61307,-5.88562 -2.80759,-8.21276 -1.60169,-3.12037 -1.87814,-4.5249 -1.05304,-5.35 0.82511,-0.82511 1.67014,-0.56752 3.21883,0.98117 1.155,1.155 2.79735,2.1 3.64966,2.1 2.43481,0 6.6815,-2.53868 9.88743,-5.91072 5.36247,-5.64033 6.5999,-4.14525 5.81899,7.03055 -0.40571,5.80626 -0.15255,8.38133 1.06367,10.81931 1.06421,2.13326 1.19663,3.06632 0.39735,2.79989 -2.12028,-0.70676 -4.77159,-6.40347 -5.38304,-11.56624 l -0.59458,-5.02025 -5.36974,3.56531 c -2.95336,1.96092 -5.359,3.8391 -5.34588,4.17373 0.0131,0.33463 0.44923,2.40842 0.96913,4.60842 1.44266,6.10478 -0.54461,10.07483 -2.86905,5.73159 z m 342.06466,-51.27055 c -3.9222,-3.65403 -2.5735,-9.66867 4.1394,-18.46104 4.1018,-5.372357 7.7551,-8.420473 10.1445,-8.464037 1.8779,-0.03424 1.869,0.03652 -0.1852,1.475392 -1.1868,0.831246 -4.4593,4.95243 -7.2723,9.158187 -4.3886,6.561508 -5.072,8.227588 -4.8148,11.738648 0.3649,4.9808 2.926,5.85358 7.2337,2.46514 3.0825,-2.42468 7.5408,-11.05266 7.5563,-14.62333 0.01,-1.552394 0.6079,-2.25 1.9389,-2.25 1.5407,0 2.1666,1.143887 3.1086,5.68163 1.0128,4.87844 1.333,5.40856 2.2654,3.75 0.5972,-1.0624 2.104,-5.939756 3.3483,-10.838577 2.3882,-9.401789 3.6313,-11.710315 5.3699,-9.971774 1.1717,1.17174 -3.0975,20.691651 -5.5722,25.477091 -2.4634,4.76375 -6.4911,3.56692 -7.9816,-2.37176 l -0.6932,-2.7622 -2.7828,4.38802 c -1.5306,2.41341 -3.8299,5.12142 -5.1097,6.01779 -3.1937,2.23695 -8.0525,2.05103 -10.6932,-0.40918 z m 42.7339,-3.05894 -3.3242,-4.19707 -0.9004,2.70131 c -0.5745,1.72335 -1.4973,2.58834 -2.5492,2.38929 -3.3977,-0.643 -2.4246,-10.63428 2.0484,-21.032175 4.6702,-10.856249 10.0972,-2.368054 11.0033,17.210085 0.3798,8.20596 -1.4296,9.05003 -6.2779,2.92856 z m 2.3455,-4.6521 c -0.4981,-3.2705 -1.5999,-4.14005 -2.7952,-2.20602 -0.5917,0.95741 2.2998,6.56198 2.9886,5.79278 0.1658,-0.18522 0.079,-1.79926 -0.1934,-3.58676 z m -1.268,-9.690983 c 0,-3.498679 -1.8283,-4.140694 -3.0019,-1.054092 -1.3194,3.470353 -1.3123,3.495075 1.0019,3.495075 1.4538,0 2,-0.666667 2,-2.440983 z m 35.2765,5.420943 c 0.1499,-1.99037 1.2143,-2.62604 2.0595,-1.22996 0.2498,0.4125 -0.145,1.30348 -0.8773,1.97996 -1.0759,0.99396 -1.3028,0.85005 -1.1822,-0.75 z M 895.20661,100.5 c 0,-0.825 0.45,-1.5 1,-1.5 0.55,0 1,0.675 1,1.5 0,0.825 -0.45,1.5 -1,1.5 -0.55,0 -1,-0.675 -1,-1.5 z m 47.6141,-30.063142 C 942.45651,69.487581 942.93741,69 944.23801,69 c 2.2755,0 2.6374,1.529382 0.5514,2.329869 -0.7795,0.299115 -1.6654,-0.10274 -1.9687,-0.893011 z m 0.3859,-11.236996 c 1.925,-0.988367 3.6921,-1.658018 3.927,-1.488114 0.8582,0.620851 -3.4847,3.225518 -5.427,3.254895 -1.418,0.02145 -0.9814,-0.492719 1.5,-1.766781 z m 272.45029,0.703757 c -1.4587,-0.570695 -1.005,-0.780766 1.7997,-0.833334 2.2291,-0.04178 3.6486,-0.52654 3.5,-1.195285 -0.1375,-0.61875 0.3125,-1.33125 1,-1.583333 0.7816,-0.28659 1.25,0.447222 1.25,1.958333 0,1.980105 -0.5058,2.416667 -2.7997,2.416667 -1.5399,0 -3.6774,-0.343372 -4.75,-0.763048 z M 1001.2066,27.570368 c 0,-0.275 0.9,-0.981666 2,-1.570368 1.1,-0.588702 2,-0.845368 2,-0.570368 0,0.275 -0.9,0.981666 -2,1.570368 -1.1,0.588702 -2,0.845368 -2,0.570368 z M 994.43581,20.8125 c 0.2177,-0.653125 0.9305,-1.365727 1.584,-1.58356 0.7307,-0.243583 0.9542,0.213586 0.5805,1.1875 -0.6975,1.817714 -2.7645,2.195921 -2.1645,0.39606 z M 685.20661,17 c 0,-0.55 0.45,-1 1,-1 0.55,0 1,0.45 1,1 0,0.55 -0.45,1 -1,1 -0.55,0 -1,-0.45 -1,-1 z"
     id="path3142"
     style="fill:#000000" />
</svg>
