<?xml version="1.0" encoding="UTF-8" standalone="no"?>
<!-- Created with Inkscape (http://www.inkscape.org/) -->

<svg
   xmlns:dc="http://purl.org/dc/elements/1.1/"
   xmlns:cc="http://creativecommons.org/ns#"
   xmlns:rdf="http://www.w3.org/1999/02/22-rdf-syntax-ns#"
   xmlns:svg="http://www.w3.org/2000/svg"
   xmlns="http://www.w3.org/2000/svg"
   version="1.1"
   width="1540.0013"
   height="1623.9369"
   id="svg2997">
  <metadata
     id="metadata3003">
    <rdf:RDF>
      <cc:Work
         rdf:about="">
        <dc:format>image/svg+xml</dc:format>
        <dc:type
           rdf:resource="http://purl.org/dc/dcmitype/StillImage" />
        <dc:title></dc:title>
      </cc:Work>
    </rdf:RDF>
  </metadata>
  <defs
     id="defs3001" />
  <path
     d="m 1207.649,1618.5159 c 6.732,-5.326 12.0255,-10.7921 36.2323,-37.414 20.9141,-23.0007 22.7198,-25.7137 35.458,-53.2757 4.123,-8.9211 9.347,-25.6102 11.0774,-35.3893 3.4597,-19.5519 7.5905,-50.541 8.0647,-60.5 1.283,-26.9477 1.551,-31.0387 2.5553,-39 2.8623,-22.6904 9.8489,-41.9581 18.9266,-52.1951 2.5872,-2.9177 6.0798,-7.2168 7.7613,-9.5535 6.5777,-9.1411 16.6885,-16.4018 38.2728,-27.4843 6.323,-3.2466 12.173,-6.5134 13,-7.2597 0.8271,-0.7463 4.1214,-2.7325 7.3207,-4.4139 5.2543,-2.7614 22.5684,-17.2155 26.9314,-22.4828 2.6526,-3.2023 5.7517,-14.1451 5.7517,-20.3088 0,-8.6253 -12.4569,-38.6707 -22.4155,-54.0653 -6.1442,-9.4979 -10.7672,-13.9849 -26.5165,-25.7366 -2.9477,-2.1994 -8.1737,-7.9444 -12.4989,-13.7399 -3.8408,-5.1465 -3.0124,-7.2163 5.469,-13.6647 12.9387,-9.8373 36.8612,-35.6321 44.3524,-47.8235 1.7102,-2.7834 4.6034,-7.1473 6.4292,-9.6977 1.8258,-2.5504 4.5613,-7.6605 6.0787,-11.3557 9.0795,-22.1092 6.9033,-34.3792 -11.8332,-66.7185 -11.035,-19.04672 -13.1877,-23.24012 -14.8866,-29.00004 -1.3244,-4.49004 -4.8142,-20.88161 -6.3871,-30 -1.5748,-9.12975 -1.3465,-34.04417 0.3665,-40 2.2483,-7.81668 9.1006,-18.54282 16.8387,-26.35804 6.4453,-6.50958 10.3275,-9.46218 26.4829,-20.14196 12.4526,-8.23192 27.4299,-19.04081 30.7151,-22.16653 1.3488,-1.28341 8.6521,-8.16337 16.2295,-15.28879 7.5774,-7.12543 15.2844,-15.22543 17.1268,-18 1.8423,-2.77458 4.6645,-6.88865 6.2714,-9.1424 4.6243,-6.48573 17.1909,-28.15507 20.2841,-34.97699 2.4894,-5.49025 9.5741,-31.53423 11.3254,-41.63356 0.3537,-2.03955 0.8341,-9.10569 1.0675,-15.70254 0.2451,-6.92706 0.9374,-12.81578 1.6388,-13.93882 0.9737,-1.55916 0.8787,-3.20361 -0.4793,-8.29746 -0.9316,-3.4941 -2.1184,-9.72791 -2.6374,-13.85291 -1.3727,-10.90941 -3.2798,-16.37967 -10.9739,-31.47708 -11.8737,-23.29873 -19.3516,-33.14818 -36.0803,-47.52292 -5.4406,-4.675 -15.4214,-13.61978 -22.1796,-19.87729 -6.7582,-6.2575 -15.1808,-13.4575 -18.7168,-16 -11.0511,-7.94605 -20.9443,-18.72237 -31.794,-34.63195 -5.6227,-8.24492 -11.4331,-16.73905 -12.912,-18.87584 l -2.6888,-3.88508 -8.0881,0.63848 c -9.8921,0.78089 -42.2141,3.85069 -69.1101,6.56377 -10.9878,1.10837 -29.6529,2.9352 -41.4779,4.05962 -43.9458,4.17872 -53.702,5.1285 -62,6.03584 -4.675,0.51118 -11.65,1.21267 -15.5,1.55885 -3.85,0.34619 -8.575,0.93892 -10.5,1.31719 l -3.5,0.68776 -0.1051,14.45432 c -0.058,7.94988 0.4672,25.25433 1.1668,38.45433 0.6996,13.2 2.2077,46.95 3.3514,75 1.1436,28.05 2.5218,59.325 3.0626,69.5 0.5408,10.175 1.4619,29.3 2.047,42.5 0.5851,13.2 1.4867,32.325 2.0035,42.5 0.5168,10.175 1.2119,25.025 1.5446,33 1.3956,33.44522 2.0038,39.5043 4.2766,42.59975 1.1712,1.59514 2.5846,5.32417 3.141,8.28674 1.2999,6.92165 1.307,18.07658 0.012,18.23851 -0.55,0.0688 -1.5625,0.18125 -2.25,0.25 -1.987,0.1987 -2.0786,4.50779 -0.24,11.29997 1.3495,4.98541 1.4706,6.94188 0.5868,9.47722 -1.1166,3.20303 -0.9494,8.93275 1.9214,65.84781 2.6833,53.19714 4.0556,88.49774 3.8486,99.00004 -0.3808,19.3232 -2.18,21.3723 -3.8137,4.3434 -0.5194,-5.4139 -1.1994,-15.6934 -1.5111,-22.8434 -0.3117,-7.15 -0.7836,-17.05 -1.0487,-22 -0.6497,-12.1304 -1.3348,-26.4308 -1.988,-41.5 -0.2981,-6.87504 -0.7476,-15.65004 -0.9989,-19.50004 -0.2513,-3.85 -0.7418,-14.425 -1.0901,-23.5 -0.3483,-9.075 -1.0571,-21.675 -1.5751,-28 -0.5181,-6.325 -0.9642,-13.1875 -0.9915,-15.25 -0.042,-3.1503 -0.3934,-3.75245 -2.1996,-3.76531 -1.1826,-0.008 -2.8251,-0.45153 -3.6501,-0.98469 -1.1139,-0.71987 -0.5225,-0.97332 2.2977,-0.98469 l 3.7977,-0.0153 -0.2977,-6.25 c -0.2675,-5.61543 -0.5264,-6.28247 -2.5499,-6.56984 -1.2387,-0.17591 -2.759,-1.26675 -3.3783,-2.42408 -1.5414,-2.88 -0.4796,-13.01637 2.1888,-20.8952 1.981,-5.8493 2.1035,-7.64769 1.5231,-22.36088 -0.3471,-8.8 -0.8488,-19.6 -1.1148,-24 -0.266,-4.4 -1.1473,-25.1 -1.9585,-46 -1.6991,-43.77503 -2.3422,-59.20623 -3.0215,-72.5 -0.267,-5.225 -0.9311,-20.3 -1.4758,-33.5 -0.5446,-13.2 -1.2295,-28.725 -1.5218,-34.5 -0.2924,-5.775 -0.9647,-21.525 -1.494,-35 -0.5294,-13.475 -1.2051,-29 -1.5016,-34.5 -0.9029,-16.74843 -2.4934,-51.72612 -2.4934,-54.83559 0,-2.85543 -0.1024,-2.91402 -4.1441,-2.37191 -2.2793,0.30572 -4.5475,1.15247 -5.0405,1.88167 -0.5084,0.75202 -0.6595,13.44398 -0.3491,29.32583 0.3009,15.4 0.9893,63.1 1.5296,106 2.2541,178.97231 3.2269,249.19613 3.4978,252.5 0.1579,1.925 0.3364,4.04103 0.3967,4.70228 0.069,0.76048 2.4063,1.31338 6.3596,1.50462 l 6.25,0.30233 -6,0.88067 c -3.3,0.48437 -6.3055,1.35706 -6.6789,1.93932 -0.3734,0.58225 -0.5082,7.60887 -0.2997,15.61471 0.2086,8.00584 0.6348,38.18107 0.9472,67.05607 0.3123,28.87503 0.7769,58.35003 1.0324,65.50003 0.2555,7.15 0.7021,35.05 0.9925,62 0.2905,26.95 0.743,55.525 1.0057,63.5 0.2626,7.975 0.7195,42.625 1.0153,77 0.2957,34.375 0.7419,69.475 0.9913,78 0.2495,8.525 0.734,44.075 1.0766,79 0.3427,34.925 0.7711,72.5 0.9521,83.5 0.3736,22.7118 0,26.7492 -2.4052,26.2888 -1.9814,-0.3786 -2.4883,-11.6225 -3.4396,-76.2888 -0.3479,-23.65 -0.8708,-50.425 -1.162,-59.5 -0.2911,-9.075 -0.7545,-40.575 -1.0297,-70 -0.2751,-29.425 -0.7208,-63.175 -0.9903,-75 -0.2696,-11.825 -0.7237,-42.425 -1.0092,-68 -0.2855,-25.575 -0.7351,-55.5 -0.9993,-66.5 -0.2641,-11 -0.7101,-45.2 -0.9911,-76 -0.2811,-30.8 -0.733,-69.95003 -1.0044,-87.00003 -0.2714,-17.05 -0.7241,-50.35 -1.006,-74 -0.2819,-23.65 -0.742,-56.95 -1.0223,-74 -0.2803,-17.05 -0.9448,-77.8 -1.4765,-135 -0.976,-104.9913 -1.7928,-152.35745 -2.6513,-153.74651 -0.2575,-0.4168 -2.1287,-0.53136 -4.158,-0.25458 -2.0293,0.27678 -24.8396,2.51453 -50.6896,4.97277 -25.85,2.45824 -50.375,4.91863 -54.5,5.46751 -12.7786,1.70038 -23.9964,2.96225 -37,4.16208 -6.875,0.63435 -13.332,1.73213 -14.349,2.43952 -1.3727,0.95491 -2.6108,1.02058 -4.80696,0.25497 -2.8369,-0.98893 -16.3076,-0.021 -45.344,3.25808 -4.95,0.55901 -29.925,3.02542 -55.5,5.48091 -25.575,2.45549 -50.55,4.90333 -55.5,5.43963 -4.95,0.5363 -14.4,1.46483 -21,2.06339 -6.6,0.59855 -23.025,2.19987 -36.5,3.55847 -13.475,1.35861 -29.45,2.91086 -35.5,3.44944 -6.05,0.53858 -21.8,2.07803 -35,3.42099 -13.2,1.34296 -38.175,3.81924 -55.5,5.50285 -17.325,1.68361 -35.55,3.51343 -40.5,4.06627 -4.95,0.55284 -20.7,2.13575 -35,3.51756 -14.3,1.38182 -28.025,2.7297 -30.5,2.9953 -2.475,0.26559 -16.2,1.60194 -30.5,2.96965 -14.3,1.36772 -35.225,3.38033 -46.5,4.47247 -11.275,1.09213 -32.425,3.12768 -47,4.52344 -14.575,1.39576 -42.25,4.08987 -61.5,5.98691 -63.02206,6.21066 -106.62309,10.44688 -129,12.53347 -25.2262,2.35228 -35.25391,3.75821 -36.05547,5.05516 -0.78633,1.27165 -4.44493,1.1423 -4.44493,-0.15715 0,-0.59573 -0.84441,-0.79938 -1.91095,-0.46087 -1.05102,0.33358 -4.94558,0.80711 -8.65457,1.05228 -7.12682,0.47111 -10.43448,2.25609 -10.43448,5.63097 0,1.01475 -0.50008,1.84501 -1.11129,1.84501 -0.72963,0 -0.88452,-1.20879 -0.451,-3.51965 l 0.66029,-3.51966 -3.799,0.53164 c -2.08945,0.2924 -11.449,1.19724 -20.799,2.01075 -30.17174,2.62517 -131.100361,12.30851 -147.2707875,14.12953 -3.151068,0.35485 -5.49403299,0.385 -5.20658799,0.067 0.611946,-0.677 35.08433749,-4.39056 118.97737549,-12.81689 46.60545,-4.68112 60.8976,-6.43062 62.23124,-7.61772 1.36262,-1.21289 2.03819,-1.28627 3.17282,-0.34461 0.99163,0.82297 3.35916,0.97945 7.58527,0.50132 4.91614,-0.5562 6.45309,-1.16729 7.69219,-3.05839 1.8903,-2.88497 4.60563,-3.04289 6.44651,-0.37493 1.28852,1.86743 1.91936,1.92859 10.37197,1.00556 4.95,-0.54055 16.2,-1.65019 25,-2.46586 20.6335,-1.91253 30.40268,-2.8948 105,-10.55751 11,-1.12993 26.70721,-2.71032 34.90491,-3.51197 21.15639,-2.06887 42.77369,-4.22968 59.59509,-5.95696 11.82206,-1.21394 71.08977,-7.06701 91.5,-9.03623 2.75,-0.26532 16.025,-1.5987 29.5,-2.96305 30.22107,-3.05991 41.65151,-4.20521 54.5,-5.46072 5.5,-0.53744 20.575,-2.10453 33.5,-3.48243 22.9805,-2.44988 55.89993,-5.76173 95,-9.55743 22.70921,-2.20454 64.20775,-6.36139 85,-8.51433 7.975,-0.82578 41.95,-4.20818 75.5,-7.51645 65.34212,-6.44321 88.7745,-8.94117 89.3792,-9.52806 0.2086,-0.20243 -0.6914,-0.80976 -2,-1.34961 -1.3085,-0.53985 -4.6292,-1.99632 -7.3792,-3.23661 l -5,-2.25507 3.17955,-0.35893 c 1.79365,-0.20247 5.36655,0.58188 8.19675,1.79942 4.9945,2.14855 6.7487,2.47203 19.12366,3.52645 5.8574,0.49908 6.8361,0.3039 9.8992,-1.97415 1.8696,-1.3904 3.7505,-2.31093 4.1798,-2.04563 1.7502,1.0817 19.0853,-2.52962 21.9565,-4.57406 3.6075,-2.56878 3.9172,-1.21841 0.4645,2.02525 -4.8401,4.54699 -5.1354,4.53059 25,1.38815 52.7673,-5.50242 63.5945,-6.61358 76.7719,-7.87881 8.1245,-0.78008 15.2737,-1.72851 15.8871,-2.10762 1.1093,-0.68557 0.8418,-58.15468 -0.8021,-172.35604 -0.6277,-43.60177 -0.6804,-44.48811 -2.7484,-46.21673 -1.1597,-0.96932 -2.4996,-1.77738 -2.9777,-1.79568 -1.4187,-0.0543 -12.608,-7.05332 -20.147,-12.60212 -8.2239,-6.05299 -11.4305,-9.30112 -23.131,-23.43115 -4.7821,-5.775 -10.425,-12.525 -12.5399,-15 -5.4325,-6.35754 -13.1371,-17.3763 -17.4806,-25 -2.0368,-3.575 -5.4567,-9.30711 -7.5999,-12.73803 -3.2429,-5.19166 -3.7832,-6.7852 -3.221,-9.5 0.6305,-3.04399 4.5559,-7.59445 9.5979,-11.12598 4.3475,-3.04508 11.4129,-9.24304 15.3519,-13.46696 3.9034,-4.18578 16.3398,-11.16904 19.8909,-11.16904 2.4735,0 9.358,-6.67051 13.896,-13.46398 5.6887,-8.51635 14.1736,-16.28259 21.3554,-19.5468 7.6261,-3.46616 7.5484,-3.17129 7.7463,-29.403674 0.1023,-13.562823 0.5038,-20.033012 1.2587,-20.28618 0.7595,-0.254663 1.3327,4.442285 1.8204,14.91445 2.0167,43.312834 4.6211,66.615644 9.6994,86.786184 10.5512,41.90827 13.0691,50.40407 19.8177,66.86836 8.2767,20.19201 9.6416,22.97836 15.6292,31.90619 2.4784,3.69542 7.0324,11.67041 10.1202,17.7222 3.0877,6.05179 7.7416,14.15325 10.342,18.00325 8.7429,12.94428 31.3154,37.56317 44.0408,48.03335 6.7662,5.56718 26.5335,26.77315 34.6096,37.12872 8.7096,11.16782 14.4635,20.49406 19.416,31.47054 4.4007,9.75347 5.9857,14.536 8.332,25.13935 1.0238,4.62704 -2.0289,4.68767 -5.7426,0.11407 -9.4844,-11.68017 -59.6061,-62.91012 -68.0616,-69.56637 -4.617,-3.63453 -17.0149,-14.83822 -37.2696,-33.6797 -3.9259,-3.65198 -11.9575,-10.91496 -17.8479,-16.13996 -5.8905,-5.225 -15.2303,-13.6625 -20.7552,-18.75 -5.5249,-5.0875 -10.4309,-9.25 -10.9021,-9.25 -0.4712,0 -0.8537,3.7125 -0.85,8.25 0.01,12.39039 7.2967,172.09925 8.5772,188 l 0.6242,7.75 5.1459,-0.006 c 2.8302,-0.003 14.1459,-0.92258 25.1459,-2.04245 11,-1.11986 24.95,-2.45665 31,-2.97063 6.05,-0.51399 17.525,-1.63704 25.5,-2.49568 7.975,-0.85863 19.45,-1.99602 25.5,-2.52752 6.05,-0.53151 21.125,-2.06189 33.5,-3.40084 12.375,-1.33895 26.55,-2.70143 31.5,-3.02773 11.3195,-0.74617 26.4712,-2.53282 28.6839,-3.38232 1.4363,-0.55146 0.872,-1.96484 -3.8383,-9.61405 -3.0372,-4.93216 -6.7448,-10.55716 -8.2392,-12.5 -1.4944,-1.94285 -4.2536,-6.00745 -6.1316,-9.03245 -15.2009,-24.48543 -25.0201,-38.41179 -35.6692,-50.58876 -6.8986,-7.88837 -8.779,-10.25334 -25.8056,-32.45687 -4.95,-6.45503 -13.05,-16.96933 -18,-23.3651 -28.0246,-36.20989 -38.0337,-52.08454 -59.4309,-94.25828 -11.9796,-23.6116 -13.8912,-30.2738 -12.1244,-42.25433 1.2928,-8.76639 7.085,-27.89706 11.2258,-37.07666 1.6126,-3.575 3.3814,-8.50442 3.9308,-10.95426 1.3384,-5.96894 3.6256,-33.1281 4.2988,-51.04574 1.8157,-48.323546 1.831,-53.57408 0.2073,-71.000004 -3.1355,-33.651262 -4.4137,-41.6710982 -6.5653,-41.1935758 -1.1379,0.2525413 -1.1535,0.032736 -0.089,-1.25 0.9557,-1.151808 0.9812,-1.5567542 0.098,-1.5567542 -0.7891,0 -0.6853,-0.508553 0.3061,-1.5 4.039,-4.038993 5.1172,-0.61784225 7.5634,24 0.5465,5.5 1.5618,15.175 2.2561,21.5 1.457,13.27163 1.6141,29.137376 0.6092,61.500004 -1.4062,45.28885 -3.4468,62.68601 -8.7152,74.30447 -5.8162,12.82654 -11.0706,32.30545 -11.0706,41.04065 0,9.9011 1.6042,14.72755 11.3522,34.15488 20.5011,40.85776 35.754,64.67467 65.5434,102.34383 6.5922,8.33589 16.725,21.23117 22.5175,28.65617 5.7925,7.425 14.1501,17.775 18.5725,23 8.5823,10.1398 9.3342,11.21929 36.4147,52.2803 l 17.6622,26.7803 4.7187,-0.51696 c 2.5954,-0.28432 12.3688,-1.21363 21.7188,-2.06513 9.35,-0.85151 21.05,-1.95946 26,-2.46213 4.95,-0.50266 13.05,-1.19716 18,-1.54333 4.95,-0.34618 10.35,-0.79763 12,-1.00324 4.9681,-0.61908 20.6306,-2.36204 26.5,-2.94898 3.025,-0.30251 10,-0.79028 15.5,-1.08396 5.5,-0.29367 11.6875,-0.6866 13.75,-0.87319 2.0625,-0.18658 3.75,0.0603 3.75,0.54854 0,0.48828 -0.7875,0.95632 -1.75,1.04009 -0.9625,0.0838 -2.2,0.2245 -2.75,0.31272 -0.55,0.0882 -4.15,0.55005 -8,1.02628 -3.85,0.47623 -7.225,0.92965 -7.5,1.0076 -0.275,0.0779 -4.1,0.48421 -8.5,0.90281 -4.4,0.41859 -9.575,0.94831 -11.5,1.17715 -1.925,0.22884 -10.25,1.10554 -18.5,1.94822 -77.404,7.9063 -78.5,8.04325 -78.5,9.80914 0,1.48158 6.8446,12.39686 16.4242,26.19234 7.6402,11.00238 12.2459,15.7085 27.0167,27.60555 5.4675,4.40375 16.9425,14.4565 25.5,22.33944 8.5575,7.88295 17.8091,16.10279 20.5591,18.26633 10.4446,8.21722 21.5393,23.53235 32.3942,44.71699 7.6552,14.93999 9.8743,21.25769 11.0797,31.54312 0.419,3.575 1.4964,9.26568 2.3943,12.64597 1.7084,6.4313 1.5242,18.59617 -0.4338,28.65325 -0.5139,2.63957 -0.9344,6.71207 -0.9344,9.05 0,2.33793 -0.433,4.68377 -0.9622,5.21299 -0.5292,0.52921 -2.3306,7.03171 -4.0031,14.45 -4.9368,21.89757 -7.2131,27.38551 -20.5264,49.48779 -10.4546,17.35647 -17.3456,26.55153 -26.0492,34.75879 -4.2235,3.98267 -11.0927,10.528 -15.2649,14.54519 -6.6354,6.38885 -13.3066,11.55723 -27.3499,21.18876 -2.0107,1.37899 -6.9607,4.78525 -11,7.56947 -4.0394,2.78422 -10.0979,6.92212 -13.4634,9.19534 -15.2297,10.28686 -26.4921,27.4628 -28.3544,43.24245 -1.122,9.50749 -0.1012,24.10522 2.4826,35.5 0.873,3.85 2.2399,10.29816 3.0374,14.32925 1.834,9.26914 6.318,20.51824 11.1304,27.92273 2.0546,3.16141 4.5948,7.32306 5.6447,9.24806 1.0499,1.925 3.419,5.975 5.2646,9 4.9186,8.0616 11.5494,26.4096 12.1549,33.6339 1.0133,12.09 -5.5472,31.7344 -14.6498,43.8661 -2.0633,2.75 -4.6155,6.4258 -5.6714,8.1685 -1.056,1.7427 -4.1699,5.7418 -6.9199,8.8869 -2.75,3.1452 -7.3625,8.4136 -10.25,11.7077 -2.8875,3.2941 -5.25,6.3592 -5.25,6.8115 0,1.1444 -21.0043,19.9095 -23.695,21.1689 -4.3926,2.0561 -3.6531,5.4833 2.4362,11.29 1.5173,1.447 8.5313,7.6201 15.5866,13.7181 17.673,15.275 23.8537,24.6704 35.2555,53.5925 7.6877,19.5008 8.2109,24.1886 4.0402,36.1997 -2.2248,6.4073 -3.475,8.3003 -8.8869,13.4562 -8.6754,8.2651 -15.6491,14.1795 -19.3879,16.4428 -1.754,1.0619 -3.0843,2.6665 -3,3.6188 0.1006,1.1377 -1.0215,2.0843 -3.3487,2.8247 -3.9642,1.2614 -21.0072,9.8469 -31.5,15.8683 -11.5973,6.6553 -17.0619,11.4451 -25.789,22.6044 -12.0985,15.4704 -12.5061,16.1534 -16.3421,27.3859 -5.1387,15.0466 -7.3599,30.6751 -7.4271,52.2551 -0.062,19.7653 -1.5001,32.2927 -8.613,75 -2.7464,16.4898 -12.8678,42.3354 -23.6924,60.5 -5.103,8.5633 -17.7132,24.3661 -30.3172,37.9932 -21.1713,22.8896 -25.2482,27.0768 -29.5779,30.3782 -3.43,2.6155 -5.762,3.6286 -8.3522,3.6286 l -3.5936,0 6.8523,-5.421 z M 1178.683,512.32442 c 1.9487,-0.52265 2.1433,-1.1352 1.8221,-5.73634 -0.1978,-2.83317 -0.6328,-13.47622 -0.9666,-23.65122 -0.3338,-10.175 -0.8181,-22.55 -1.0762,-27.5 -0.5057,-9.69805 -2.0211,-46.11306 -2.9962,-72 -0.3315,-8.8 -1.2462,-30.4 -2.0328,-48 -0.7865,-17.6 -1.4305,-32.3375 -1.4311,-32.75 -5e-4,-0.4125 -0.676,-0.75 -1.501,-0.75 -1.6845,0 -1.5718,-4.62079 -1.5,61.49394 0.024,21.99667 0.2487,46.52167 0.4997,54.5 0.2509,7.97833 0.717,32.25337 1.0357,53.94453 0.3187,21.69116 0.8052,39.80366 1.0811,40.25 0.5833,0.94386 3.936,1.03833 7.0653,0.19909 z m 148.5656,-77.05963 c -4.9958,-11.58795 -9.7283,-19.97449 -17.0556,-30.2251 -8.202,-11.47418 -25.8944,-30.81007 -36.6945,-40.10325 -10.0913,-8.68328 -18.9166,-17.76515 -31.5876,-32.50604 -10.7559,-12.51296 -17.0581,-21.94669 -24.0721,-36.03329 -3.0233,-6.07187 -7.8153,-14.65402 -10.649,-19.07146 -10.5842,-16.49985 -20.5093,-42.09545 -28.6516,-73.88879 -2.3946,-9.35 -5.31,-19.25 -6.4787,-22 l -2.125,-5 0.513,17 c 0.7734,25.62611 2.8858,72.42115 4.1868,92.74407 0.5395,8.42907 0.9775,10.20896 3.2453,13.18894 1.4419,1.89468 11.0226,11.23485 21.2905,20.75593 41.1402,38.14789 61.5803,56.79238 66.5384,60.6932 5.8444,4.59807 22.2857,20.95675 47.6706,47.43079 9.3941,9.79712 17.2219,17.38776 17.3951,16.86809 0.1732,-0.51966 -1.4133,-4.95355 -3.5256,-9.85309 z M 1171.5177,279.68686 c -0.308,-7.8375 -0.7694,-17.4 -1.0253,-21.25 -0.2559,-3.85 -0.7563,-16 -1.1119,-27 -0.3556,-11 -0.8452,-20.22137 -1.0882,-20.49193 -0.8148,-0.9076 0.1986,80.476 1.0179,81.74193 2.2437,3.46662 2.7398,0.54464 2.2075,-13 z m -8.0474,-69.5 c -0.3856,-43.3125 -1.0109,-79.08938 -1.3893,-79.50418 -1.1775,-1.29053 -11.0331,4.13035 -16.0627,8.83499 -2.6376,2.46713 -6.8851,7.60007 -9.439,11.40654 -5.4839,8.17364 -10.1315,12.26443 -15.8844,13.98148 -5.9607,1.77908 -12.4039,5.6655 -18.1937,10.97411 -2.75,2.52146 -8.928,7.50331 -13.7289,11.07077 -4.8009,3.56746 -8.9939,7.2741 -9.3176,8.23698 -0.3254,0.96763 0.2702,2.9804 1.3317,4.5 1.0562,1.51212 3.1089,5.14337 4.5615,8.06944 3.8638,7.78287 14.3271,22.64537 24.9614,35.45618 5.1242,6.17303 11.716,14.29143 14.6484,18.04089 2.9584,3.78269 8.7173,9.33004 12.9376,12.46247 7.2668,5.39358 23.683,15.21324 25.4411,15.21805 0.4594,0.001 0.5196,-35.43522 0.1339,-78.74772 z m 55.5717,1321.13094 c -6.4423,-5.4209 -8.1012,-13.615 -3.4906,-17.2417 1.4026,-1.1033 3.0253,-2.1644 3.606,-2.3579 0.6446,-0.2149 0.172,-2.2324 -1.2132,-5.1792 l -2.2691,-4.8273 -1.3068,2.494 c -1.7916,3.4195 -4.0432,4.0551 -6.3156,1.7827 -1.136,-1.136 -2.7049,-1.6934 -3.8924,-1.3829 -2.8308,0.7403 -4.8366,-2.8309 -6.1198,-10.8955 -1.7367,-10.9155 0.6067,-20.1442 5.4221,-21.3528 6.2399,-1.5661 6.7383,3.6272 1.9508,20.3279 -0.5928,2.0676 -0.3944,2.1982 2.4691,1.6255 1.894,-0.3788 3.7023,-0.1342 4.6162,0.6242 1.2815,1.0636 1.5025,0.7928 1.5025,-1.8403 0,-2.0776 0.663,-3.442 2.0272,-4.1722 1.6967,-0.908 2.5117,-0.6003 5,1.8879 3.2475,3.2476 4.0122,8.4895 1.7636,12.09 -0.9826,1.5734 -0.866,2.6483 0.6223,5.7365 2.8866,5.9895 5.5869,14.3616 5.5869,17.3219 0,3.0238 -3.4129,7.9783 -5.4959,7.9783 -0.7428,0 -2.7513,-1.1786 -4.4633,-2.6191 z m 5.9592,-4.913 c 0,-1.9427 -0.652,-5.0927 -1.449,-7 -1.1165,-2.6723 -2.0342,-3.4679 -4,-3.4679 -2.2293,0 -2.551,0.4244 -2.551,3.3651 0,1.9396 0.9386,4.5873 2.2155,6.25 4.207,5.478 5.7845,5.7106 5.7845,0.8528 z m -19.6648,-47.4679 c 0.123,-3.3573 -0.2066,-4.5 -1.2978,-4.5 -2.1134,0 -3.4004,5.5938 -2.5664,11.155 l 0.7194,4.7975 1.49,-3.4763 c 0.8195,-1.9119 1.5642,-5.5012 1.6548,-7.9762 z m 143.646,-191.0116 c -1.9329,-1.1946 -0.9386,-1.9034 1.4524,-1.0354 1.0635,0.3861 1.492,0.9749 0.9523,1.3085 -0.5398,0.3336 -1.6219,0.2107 -2.4047,-0.2731 z M 195.50124,679.93686 c -0.38055,-0.61574 1.30328,-1 4.38197,-1 2.75,0 5.27811,0.45 5.61803,1 0.38055,0.61574 -1.30328,1 -4.38197,1 -2.75,0 -5.27811,-0.45 -5.61803,-1 z m -11.17531,-2.6115 c -3.56176,-1.75655 -6.94936,-5.09716 -6.06532,-5.9812 0.31924,-0.31924 2.90689,1.25852 5.75033,3.50613 5.45853,4.31472 5.55317,5.05837 0.31499,2.47507 z m 30.67531,0.18474 c 0,-0.45036 5.95049,-3.57324 6.80863,-3.57324 0.27574,0 -0.31314,0.9 -1.30863,2 -1.55238,1.71536 -5.5,2.84455 -5.5,1.57324 z m 11.03596,-9.32324 c 0.0198,-0.4125 1.14255,-2.1 2.49504,-3.75 2.74939,-3.35418 3.51615,-1.44002 0.9123,2.27749 -1.50656,2.15091 -3.48078,3.00409 -3.40734,1.47251 z m -52.44736,-5.32707 c -2.85457,-3.39246 -3.92862,-6.52939 -3.42148,-9.99289 0.53768,-3.67209 2.48243,-3.38772 2.07147,0.3029 -0.23188,2.08239 0.51611,4.98945 2.0628,8.01706 1.33462,2.6125 2.3028,4.75 2.15149,4.75 -0.1513,0 -1.44023,-1.38468 -2.86428,-3.07707 z m 58.4114,-12.36391 c 0,-3.04195 1.41657,-5.47578 2.53571,-4.35664 0.7311,0.73109 -0.7792,7.79762 -1.66655,7.79762 -0.47804,0 -0.86916,-1.54844 -0.86916,-3.44098 z m -62.5362,-8.84722 c -0.59861,-2.38504 2.55074,-10.98472 4.45344,-12.16065 1.47709,-0.91289 1.38985,-0.40428 -0.94806,5.52704 -1.11695,2.83373 -1.76163,6.00039 -1.43261,7.03702 0.32901,1.03664 0.12645,1.88479 -0.45013,1.88479 -0.57658,0 -1.30677,-1.02969 -1.62264,-2.2882 z m 63.7362,-6.9118 c -0.66,-0.66 -1.2,-2.775 -1.2,-4.7 0,-4.37794 1.58034,-3.0368 2.53347,2.15 0.74035,4.02882 0.53604,4.41951 -1.33347,2.55 z m -10.1963,-16.29606 c -1.2897,-1.37283 -2.10755,-2.73342 -1.81744,-3.02354 0.90184,-0.90183 3.23405,0.4956 5.11042,3.0621 2.47126,3.38017 -0.10964,3.34995 -3.29298,-0.0386 z m -16.33703,-2.17061 c -1.52911,-1.5291 -0.4654,-2.44017 2.50632,-2.14669 4.13783,0.40865 5.0584,2.81336 1.07701,2.81336 -1.60417,0 -3.21667,-0.3 -3.58333,-0.66667 z m -12.71628,-30.08333 c -8.95625,-12.38633 -10.1814,-16.28741 -6.93124,-22.07028 2.28744,-4.06995 6.49351,-7.17972 9.71083,-7.17972 2.41372,0 5.91848,3.68045 6.76865,7.10797 0.79698,3.21308 -1.65363,9.39905 -5.18339,13.08422 -2.54835,2.66056 -2.55948,2.74012 -0.94695,6.77024 3.28169,8.20175 1.64876,9.29466 -3.4179,2.28757 z m 3.90789,-13.79696 c 3.02793,-3.84939 3.68157,-8.19903 1.58094,-10.5202 -2.41762,-2.67144 -5.08556,-2.41749 -8.03481,0.7648 -1.96891,2.12449 -2.43681,3.55863 -2.20225,6.75 0.23094,3.14216 0.67397,3.99025 1.97243,3.77584 0.92103,-0.15209 1.96009,0.18541 2.30902,0.75 1.01029,1.63468 2.22491,1.21253 4.37467,-1.52044 z m 6.08872,15.49515 c -3.23233,-3.1597 -3.32121,-5.78021 -0.3035,-8.94819 1.74891,-1.836 9.6181,-1.8577 11.81723,-0.0326 3.49697,2.90222 0.53978,8.57318 -5.70414,10.93872 -2.41276,0.91409 -3.11295,0.67811 -5.80959,-1.95793 z m 7.853,-3.14819 c 2.07737,-2.07737 1.35205,-3.8 -1.6,-3.8 -4.62132,0 -7.0313,3.50817 -2.95,4.29427 1.2375,0.23835 2.4975,0.49465 2.8,0.56955 0.3025,0.0749 1.09,-0.40382 1.75,-1.06382 z m 753.2,-73.40786 c -2.475,-1.97365 -6.1051,-4.41139 -8.0669,-5.41721 -1.96179,-1.00581 -4.15439,-2.53664 -4.87244,-3.40184 -1.1155,-1.34409 -1.00606,-1.57309 0.7518,-1.57309 3.65931,0 6.70557,1.70681 12.50318,7.0055 5.24825,4.7966 6.81124,7.00908 4.93436,6.98479 -0.4125,-0.005 -2.775,-1.62451 -5.25,-3.59815 z m 34.299,2.10476 c -3.1291,-2.19171 -4.1878,-6.83904 -3.8747,-17.00825 0.2972,-9.65045 1.8402,-14.15962 5.79246,-16.92795 7.3152,-5.12377 16.8994,2.87336 15.2368,12.71379 l -0.6793,4.02064 3.0742,-0.61483 c 2.0998,-0.41995 3.5618,-0.12713 4.6128,0.92387 1.9254,1.92541 1.9331,3.5162 0.039,8.05007 -0.825,1.97451 -1.5,3.98505 -1.5,4.46788 0,1.53611 2.6415,0.94768 5.3659,-1.1953 1.4496,-1.14025 3.4228,-1.90561 4.3849,-1.70081 1.4195,0.30218 0.9703,1.16423 -2.3832,4.57318 -4.6568,4.734 -8.1568,5.41161 -11.3676,2.20081 -2.3338,-2.33384 -2.5089,-5.48572 -0.5,-9 1.975,-3.45489 1.8553,-4 -0.8787,-4 -1.6879,0 -2.7313,0.85145 -3.5931,2.93196 -1.7258,4.16632 -5.6965,9.31234 -8.3032,10.76082 -2.8531,1.58537 -2.8845,1.58424 -5.42596,-0.19588 z m 6.50236,-8.2469 c 3.4417,-5.43152 6.1986,-13.03412 6.1986,-17.09382 0,-5.10326 -4.2268,-8.08647 -7.8559,-5.54456 -2.6787,1.87622 -4.94436,8.98812 -3.3662,10.56631 0.6135,0.61344 0.8535,2.41528 0.5343,4.01118 -0.4353,2.1765 -0.01,3.50873 1.7285,5.35417 l 2.3079,2.45672 -2.6743,0 c -2.73896,0 -3.13056,0.64744 -2.0673,3.41821 0.9667,2.51911 1.9836,1.89884 5.1944,-3.16821 z m 385.234,6.12244 c -0.019,-1.72015 0.6396,-3.68775 1.4646,-4.37244 1.2432,-1.03179 1.4939,-0.92437 1.4646,0.62756 -0.02,1.02984 -0.6786,2.99744 -1.4646,4.37244 l -1.4291,2.5 -0.035,-3.12756 z M 939.21244,482.18686 c -2.02402,-2.89146 -6.56634,-13.76269 -7.76603,-18.58661 -0.63577,-2.55637 -0.47594,-2.80335 1.61788,-2.5 1.94493,0.28179 2.87921,1.88386 5.73634,9.83661 4.15378,11.56192 4.74332,14 3.38528,14 -0.57666,0 -1.91473,-1.2375 -2.97347,-2.75 z m 554.15726,-10.02633 c -2.084,-1.33278 -7.4701,-18.57096 -8.0374,-25.72367 -0.4899,-6.17603 -0.2981,-7.3237 1.6294,-9.75 2.7622,-3.47695 7.2424,-3.72616 9.4828,-0.52749 0.8562,1.22237 1.5567,2.6725 1.5567,3.2225 0,0.55 -0.7005,-1.3e-4 -1.5567,-1.2225 -1.831,-2.61414 -4.6548,-2.87746 -6.537,-0.60957 -1.6097,1.93955 -1.6677,12.02562 -0.078,13.61501 0.6146,0.61468 3.8842,1.02058 7.3874,0.9171 7.2823,-0.21513 6.3312,1.31703 -1.485,2.39203 -3.6443,0.50122 -4.7276,1.02776 -4.3169,2.09818 1.3592,3.54206 3.6645,13.70113 3.3902,14.94012 -0.167,0.75458 -0.8129,1.0463 -1.4352,0.64829 z m 28.6891,-10.36089 c -1.1276,-1.84953 -2.0518,-3.89872 -2.0539,-4.55376 -0.01,-1.74604 -1.7409,-2.5272 -4.0126,-1.80618 -1.5527,0.49279 -1.9911,1.51621 -1.9911,4.64788 0,6.24476 -2.2474,4.23211 -4.1684,-3.73298 -0.9176,-3.80476 -1.7051,-7.70524 -1.75,-8.66774 -0.132,-2.83003 1.9958,-2.00518 3.2245,1.25 0.8717,2.3093 1.7518,3 3.8226,3 l 2.6903,0 -1.3976,-5.25 c -1.7398,-6.53532 -1.7399,-6.75 0,-6.75 0.8285,0 2.1329,2.18638 3.1324,5.25 0.9419,2.8875 2.0276,5.7 2.4125,6.25 1.1396,1.62845 3.4103,12.45851 2.7504,13.11839 -0.3339,0.33394 -1.5297,-0.90608 -2.6573,-2.75561 z m -597.48259,-28.7178 c -1.97577,-3.82072 -6.81765,-25.07018 -6.12422,-26.87723 0.79104,-2.06143 3.2646,-1.44767 3.95864,0.98225 2.45107,8.58143 5.45352,26.17255 4.69765,27.52321 -0.72042,1.28733 -1.1758,0.9945 -2.53207,-1.62823 z M 913.66163,392.1193 c -3.6924,-4.09052 -3.44766,-28.75666 0.33158,-33.41805 1.00973,-1.24541 2.0105,-2.03939 2.22395,-1.76439 0.21344,0.275 0.13967,8.76209 -0.16392,18.8602 -0.53868,17.91705 -0.5964,18.31101 -2.39161,16.32224 z m 0.71794,-57.81117 c -0.36287,-1.44581 0.20999,-9.09938 1.27302,-17.00793 1.27823,-9.50952 1.59682,-14.71517 0.94072,-15.37127 -0.65609,-0.65609 -0.50101,-0.99669 0.45793,-1.00572 0.7975,-0.008 2.53357,-0.30358 3.85793,-0.65794 2.15951,-0.5778 2.34097,-0.39585 1.75892,1.76366 -0.35696,1.32436 -1.83878,9.72043 -3.29292,18.65793 -1.45414,8.9375 -3.02458,16.25 -3.48986,16.25 -0.46528,0 -1.14286,-1.18293 -1.50574,-2.62873 z m 19.62167,-31.37127 c 0,-0.55 0.45,-1 1,-1 0.55,0 1,0.45 1,1 0,0.55 -0.45,1 -1,1 -0.55,0 -1,-0.45 -1,-1 z m -24.75,-3.24675 c -3.42715,-1.0994 -4.18192,-2.45841 -1.86017,-3.34935 0.76441,-0.29333 2.54396,0.62079 3.95455,2.03139 2.79636,2.79636 2.70109,2.85631 -2.09438,1.31796 z m 13.86527,-12.53786 c -1.42974,-2.6715 -0.3419,-9.87826 3.57979,-23.71539 3.11084,-10.97616 3.6704,-12.1008 6.37219,-12.80733 1.66376,-0.43509 2.01432,-0.18858 1.59995,1.12508 -3.42466,10.85731 -8.68255,29.82221 -8.73749,31.51561 -0.0386,1.19165 -0.41798,3.0566 -0.84295,4.14434 -0.7497,1.91888 -0.80832,1.91108 -1.97149,-0.26231 z m 16.24421,-50.06199 c 0.89796,-5.61555 3.17238,-12.38479 6.7025,-19.9483 1.61591,-3.4622 2.93802,-6.5046 2.93802,-6.7609 0,-0.2563 0.93019,-2.44489 2.06708,-4.86353 1.41128,-3.00236 2.87639,-4.60065 4.618,-5.03777 3.46288,-0.86912 3.7785,-0.23554 1.28472,2.57893 -2.06741,2.33328 -9.97611,19.75281 -14.14656,31.15889 -2.62487,7.17897 -4.38591,8.6395 -3.46376,2.87268 z m 21.65971,-47.44964 c -0.0418,-6.09162 14.31217,-31.02074 20.26042,-35.18705 3.90859,-2.73767 5.20079,-1.79746 2.38228,1.73329 -6.00627,7.52396 -13.18708,18.47473 -17.74725,27.06467 -3.8456,7.24391 -4.88031,8.59431 -4.89545,6.38909 z m 30.98081,-49.39365 c 0,-1.72077 8.90816,-15.2096 12.57856,-19.04648 2.9654,-3.09993 4.8699,-4.26363 6.9778,-4.26363 l 2.8993,0 -3.6725,3.02715 c -2.0198,1.66494 -6.8575,7.06494 -10.7504,12 -6.72206,8.52174 -8.03276,9.87321 -8.03276,8.28296 z m 188.18726,-26.58442 c -1.7242,-2.07757 -3.3425,-10.03345 -3.0047,-14.772089 l 0.3174,-4.453605 6.25,6.433944 6.25,6.43394 -0.062,-6.93394 c -0.034,-3.813671 -0.4149,-10.308944 -0.8467,-14.433944 -0.4317,-4.125 -0.6648,-7.651544 -0.518,-7.836764 0.1468,-0.18522 0.9788,0.749731 1.8489,2.077669 1.8625,2.84261 3.201,10.092802 3.9587,21.443239 0.4713,7.05942 0.2858,8.50241 -1.3494,10.5 l -1.8958,2.31586 -4.4904,-4.38222 -4.4905,-4.38223 0.5369,4.00258 c 0.5578,4.15845 -0.7002,6.16145 -2.5044,3.98756 z m -159.1873,-8.45756 c 0,-3.85641 22.3329,-27.775772 25.3178,-27.116322 1.1066,0.244463 -0.8292,2.88033 -6.4979,8.848188 -4.4407,4.675 -10.4918,11.054093 -13.4469,14.175764 -3.1787,3.35783 -5.373,5.02912 -5.373,4.09237 z m 81.6953,-2.21098 c 0.2959,-1.13143 0.9355,-2.05715 1.4213,-2.05715 1.3489,0 1.0529,1.61443 -0.5379,2.93471 -1.1663,0.9679 -1.3248,0.81041 -0.8834,-0.87756 z m -10.0286,-1.72382 c -0.9557,-0.95569 -0.8221,-2.333334 0.2263,-2.333334 0.4912,0 1.152,0.675 1.4686,1.500004 0.5849,1.52428 -0.4803,2.04799 -1.6949,0.83333 z m 47.0908,-31.152531 c -0.3139,-1.200589 0.193,-1.680803 1.7742,-1.680803 1.2822,0 2.0243,0.493413 1.7637,1.172681 -0.753,1.962288 -3.0706,2.295142 -3.5379,0.508122 z m 0.7425,-11.049489 c 1.65,-1.021986 3.1921,-1.689967 3.427,-1.484403 0.6918,0.605572 -3.2924,3.287101 -4.927,3.316021 -0.825,0.0146 -0.15,-0.809632 1.5,-1.831618 z m 60.2333,-33.255402 c 0.6784,-0.683418 1.4853,-0.990671 1.7932,-0.682784 0.3078,0.307887 -0.2472,0.867048 -1.2334,1.242579 -1.4252,0.542685 -1.54,0.427821 -0.5598,-0.559795 z m -9.0973,-4.655842 c -0.3377,-0.546401 0.056,-1.549545 0.875,-2.229208 1.6259,-1.349379 1.9655,-0.291135 0.5987,1.865901 -0.5222,0.824151 -1.1007,0.966771 -1.4737,0.363307 z"
     id="path3100"
     style="fill:#000000" />
</svg>
