<?xml version="1.0" encoding="UTF-8" standalone="no"?>
<!-- Created with Inkscape (http://www.inkscape.org/) -->

<svg
   xmlns:dc="http://purl.org/dc/elements/1.1/"
   xmlns:cc="http://creativecommons.org/ns#"
   xmlns:rdf="http://www.w3.org/1999/02/22-rdf-syntax-ns#"
   xmlns:svg="http://www.w3.org/2000/svg"
   xmlns="http://www.w3.org/2000/svg"
   version="1.1"
   width="1536.5193"
   height="1667.1808"
   id="svg3007">
  <metadata
     id="metadata3013">
    <rdf:RDF>
      <cc:Work
         rdf:about="">
        <dc:format>image/svg+xml</dc:format>
        <dc:type
           rdf:resource="http://purl.org/dc/dcmitype/StillImage" />
        <dc:title></dc:title>
      </cc:Work>
    </rdf:RDF>
  </metadata>
  <defs
     id="defs3011" />
  <path
     d="m 708.13469,1666.72 c 0,-0.6045 8.4542,-21.761 23.98561,-60.0237 6.6976,-16.5 17.33952,-42.825 23.64872,-58.5 6.30919,-15.675 12.07867,-29.85 12.82106,-31.5 0.74239,-1.65 5.18689,-12.45 9.87667,-24 4.68978,-11.55 9.90707,-24.375 11.59398,-28.5 3.5048,-8.5703 3.44678,-8.3485 1.93961,-7.417 -0.80392,0.4969 -0.94742,-0.287 -0.49263,-2.691 0.35294,-1.8656 0.75789,-4.067 0.89987,-4.892 0.14199,-0.825 1.48539,-3.8929 2.98534,-6.8176 1.49996,-2.9248 2.9459,-6.5238 3.2132,-7.9979 0.26731,-1.4741 1.09744,-3.1312 1.84474,-3.6824 0.74729,-0.5511 1.36579,-1.6771 1.37443,-2.5021 0.009,-0.825 0.96113,-3.525 2.11665,-6 1.92742,-4.1284 4.9304,-12.0899 5.46919,-14.5 0.12296,-0.55 0.46267,-1.225 0.75492,-1.5 0.75168,-0.7073 6.96864,-15.0801 6.96864,-16.1106 0,-0.4687 1.76728,-4.5731 3.92729,-9.1208 2.16001,-4.5477 4.64788,-10.4597 5.5286,-13.1378 0.88071,-2.678 2.06989,-5.7447 2.64262,-6.8149 0.57273,-1.0701 1.19294,-2.704 1.37826,-3.6308 0.49335,-2.4674 4.70343,-14.0649 7.32753,-20.1851 0.58955,-1.375 3.1066,-7.9 5.59346,-14.5 7.28733,-19.3402 22.99417,-59.1925 27.47021,-69.699 4.61275,-10.8274 4.90475,-12.4423 2.38203,-13.1735 -0.9625,-0.2789 -12.325,-3.6531 -25.25,-7.4981 -12.925,-3.845 -30.475,-9.0176 -39,-11.4947 -30.18002,-8.7695 -42.90628,-12.5609 -79.5,-23.6846 -20.35,-6.186 -42.625,-12.9319 -49.5,-14.9909 -14.95346,-4.4783 -44.38992,-13.4436 -62.86884,-19.1477 -7.35286,-2.2696 -14.98467,-4.0659 -16.95958,-3.9916 -2.23539,0.084 -4.3609,-0.5593 -5.63116,-1.7044 -1.12223,-1.0117 -2.94042,-2.0705 -4.04042,-2.3528 -8.76252,-2.2493 -51.31751,-16.2265 -52.5,-17.2437 -1.36312,-1.1726 -34.25793,-11.6238 -46.93838,-14.9131 l -5.2409,-1.3594 -1.88317,3.0966 -1.88316,3.0966 0.56894,-3.506 0.56893,-3.5059 -6.84613,-2.1402 c -10.33668,-3.2314 -26.11089,-7.9525 -32.84613,-9.8307 -3.3,-0.9202 -11.175,-3.246 -17.5,-5.1684 -6.325,-1.9224 -13.97614,-4.0925 -17.00252,-4.8225 -3.02639,-0.73 -6.85139,-1.8553 -8.5,-2.5006 -1.64862,-0.6454 -6.59748,-2.2202 -10.99748,-3.4997 -4.4,-1.2794 -14.975,-4.4066 -23.5,-6.9491 -8.525,-2.5426 -20.9,-6.1956 -27.5,-8.1178 -41.50908,-12.0893 -68.53765,-20.2131 -71,-21.3399 -3.64543,-1.6684 -12.35249,-3.2405 -14.38104,-2.5967 -1.37297,0.4358 -2.31024,0.049 -2.99892,-1.2379 -0.60544,-1.1313 -3.49787,-2.5762 -7.31091,-3.6522 -3.47002,-0.9791 -7.88413,-2.3758 -9.80913,-3.1037 -1.925,-0.7278 -4.85,-1.6078 -6.5,-1.9554 -1.65,-0.3476 -8.625,-2.3777 -15.5,-4.5113 -31.65587,-9.8241 -45.6102,-14.0017 -46.76986,-14.0017 -0.6915,0 -2.03867,-0.4298 -2.99371,-0.955 -3.04158,-1.6729 -23.44836,-8.045 -25.76415,-8.045 -3.00906,0 -3.85637,1.2209 -8.02685,11.5658 -1.97387,4.8961 -4.00637,9.4052 -4.51666,10.02 -0.5103,0.6149 -2.00841,4.0971 -3.32913,7.7384 -1.32071,3.6412 -3.12093,7.3399 -4.00047,8.2195 -0.87954,0.8795 -1.59917,2.692 -1.59917,4.0277 0,1.3357 -0.4077,2.4286 -0.906,2.4286 -0.4983,0 -1.58459,1.9125 -2.41398,4.25 -0.82939,2.3375 -6.0985,15.275 -11.709126,28.75 -5.61063,13.475 -13.01916,31.475 -16.4634,40 -3.44425,8.525 -9.24244,22.675 -12.88488,31.4444 -3.64243,8.7694 -6.62261,16.3631 -6.62261,16.8749 0,0.5119 -1.09863,3.4619 -2.44139,6.5557 -3.85783,8.8885 -20.026921,48.7565 -23.573504,58.125 -1.769798,4.675 -3.615454,9.2814 -4.10146,10.2364 -0.486005,0.9551 -0.883646,2.7196 -0.883646,3.9213 0,1.2016 -0.618263,2.8953 -1.373919,3.7636 -1.544614,1.7748 -6.907037,14.3294 -16.051018,37.5787 -8.4040443,21.368 -12.3393863,30.0152 -13.78877426,30.2984 -1.314831,0.2569 -1.258426,-0.5771 0.40580496,-6 1.063092,-3.4641 2.579772,-7.4928 3.3704,-8.9527 0.790628,-1.4599 1.452775,-3.2599 1.471437,-4 0.01866,-0.7401 0.903394,-3.1457 1.966069,-5.3457 1.062675,-2.2 1.9474063,-4.5804 1.9660693,-5.2898 0.01866,-0.7094 0.947925,-3.0815 2.065029,-5.2712 1.117103,-2.1897 3.983559,-9.2592 6.3699,-15.7101 2.386341,-6.4509 5.747348,-14.7777 7.468902,-18.5039 1.721555,-3.7263 3.1301,-7.3488 3.1301,-8.05 0,-0.7013 0.411381,-1.7025 0.914179,-2.225 1.100095,-1.1432 8.085821,-18.3741 8.085821,-19.9443 0,-0.6081 0.533895,-1.6396 1.186433,-2.2921 0.652538,-0.6526 1.320051,-2.062 1.48336,-3.1321 0.27386,-1.7945 5.179537,-14.9401 7.307447,-19.5815 5.4872,-11.9688 7.24298,-16.0202 7.53555,-17.3879 0.18967,-0.8867 1.44189,-3.8621 2.78273,-6.6121 1.34084,-2.75 2.75116,-6.125 3.13404,-7.5 0.38288,-1.375 1.16523,-3.625 1.73857,-5 2.87067,-6.8846 4.1268,-9.7431 5.41866,-12.331 0.77726,-1.5571 1.41321,-3.3607 1.41321,-4.008 0,-0.6473 1.125,-3.2902 2.5,-5.8732 1.375,-2.5829 2.5,-5.3918 2.5,-6.242 0,-0.8502 0.47656,-1.5458 1.05902,-1.5458 0.58246,0 0.82187,-0.3837 0.53203,-0.8527 -0.28984,-0.469 0.11929,-1.7065 0.90918,-2.75 0.78989,-1.0435 1.45047,-2.7488 1.46797,-3.7896 0.0175,-1.0408 1.55079,-5.5408 3.40734,-10 1.85655,-4.4592 4.99353,-12.4564 6.97106,-17.7714 1.97753,-5.315 4.47464,-11.39 5.54913,-13.5 3.08887,-6.0656 7.104266,-16.1298 7.104266,-17.8062 0,-0.8415 0.46973,-1.5301 1.04384,-1.5301 0.57411,0 0.93275,-0.5625 0.79697,-1.25 -0.13577,-0.6875 0.7813,-3.5 2.03794,-6.25 1.25664,-2.75 2.42903,-5.675 2.60531,-6.5 0.35033,-1.6396 5.64974,-15.1226 8.45046,-21.5 0.96616,-2.2 2.79971,-6.7 4.07456,-10 1.27485,-3.3 2.68153,-6.4807 3.12595,-7.0682 0.44442,-0.5875 0.93335,-2.5906 1.0865,-4.4514 0.2735,-3.3229 0.1844,-3.4046 -4.99686,-4.5799 -2.90143,-0.6582 -6.79444,-1.9175 -8.65113,-2.7986 -1.85669,-0.881 -4.03871,-1.6019 -4.84894,-1.6019 -0.81023,0 -3.44222,-0.695 -5.84887,-1.5445 -2.406646,-0.8495 -5.947976,-1.7947 -7.869626,-2.1005 -1.92164,-0.3057 -4.71179,-1.1857 -6.20034,-1.9554 -1.48854,-0.7698 -3.48949,-1.3996 -4.44655,-1.3996 -3.79426,0 -34.97139,-10.50756 -37.20517,-12.53918 -2.524521,-2.29605 0.33702,-2.22521 8.34596,0.20662 22.77631,6.91577 62.708236,18.74416 67.749416,20.06826 4.15557,1.0915 6.1099,1.211 7.04974,0.431 0.71517,-0.5936 2.79052,-4.8114 4.6119,-9.37292 1.82137,-4.56157 4.61149,-11.12647 6.20026,-14.58866 1.58877,-3.4622 2.88868,-6.54419 2.88868,-6.84887 0,-0.30468 0.62224,-1.97198 1.38275,-3.7051 4.11191,-9.37053 8.69943,-21.07739 11.03149,-28.15113 1.45059,-4.4 3.03698,-8.71923 3.52532,-9.59828 1.35175,-2.43328 8.23738,-18.77628 14.49412,-34.40172 3.08323,-7.7 6.03952,-14.9 6.56952,-16 0.53001,-1.1 2.5134,-6.11538 4.40753,-11.1453 1.89414,-5.02991 4.32247,-11.10491 5.39629,-13.5 1.07383,-2.39508 3.60736,-8.6297 5.63008,-13.8547 2.02272,-5.225 4.4106,-11.22168 5.30641,-13.32595 2.0172,-4.73845 2.31871,-4.51041 -12.24351,-9.26017 -14.69776,-4.79397 -16.11321,-5.00097 -16.77929,-2.45389 -0.79797,3.05145 -3.27249,2.46487 -5.49539,-1.30268 -1.72251,-2.91943 -3.09621,-3.67953 -10.84878,-6.00287 -13.60639,-4.07766 -18.78739,-5.85308 -19.82654,-6.79413 -0.5225,-0.47317 -1.8725,-0.86021 -3,-0.86008 -1.99827,2.2e-4 -18.05732,-4.32299 -22.05,-5.93602 -1.1,-0.4444 -6.05,-1.97504 -10.999996,-3.40144 -13.22974,-3.81228 -28.98727,-8.58429 -37.34412,-11.30928 -4.03927,-1.31712 -8.31427,-2.57704 -9.5,-2.79982 -1.18573,-0.22278 -2.26838,-0.49474 -2.40588,-0.60436 -0.1375,-0.10962 -0.6625,-0.25556 -1.16667,-0.32431 -0.50416,-0.0688 -1.25416,-0.4625 -1.66666,-0.875 -0.4125,-0.4125 -1.553829,-0.75 -2.536284,-0.75 -2.605131,0 -6.905183,-2.15086 -6.290012,-3.14623 0.290213,-0.46957 0.0511,-0.85377 -0.531357,-0.85377 -0.582459,0 -1.059017,0.43588 -1.059017,0.96862 0,0.53273 -0.654954,0.71728 -1.455453,0.4101 -1.107195,-0.42487 -1.179682,-0.85372 -0.302944,-1.79227 1.515678,-1.62254 5.758397,-0.77334 5.758397,1.15257 0,1.19538 0.296102,1.26013 1.436078,0.31403 1.06596,-0.88467 1.968009,-0.90716 3.5,-0.0873 1.135152,0.60752 2.063922,0.794 2.063922,0.41441 0,-0.3796 0.82402,0.0556 1.83115,0.96699 1.00713,0.91145 2.09915,1.38918 2.4267,1.06163 0.556,-0.55601 12.51472,2.6 31.24215,8.24506 4.4,1.3263 10.925,3.29279 14.5,4.36998 3.574996,1.07718 14.149996,4.23674 23.499996,7.02124 25.20336,7.50574 33.68022,10.04359 36.85772,11.03465 2.78958,0.87006 2.84639,0.81417 2.38281,-2.34422 -0.2612,-1.77954 -1.87899,-8.41053 -3.59508,-14.73553 -4.23789,-15.61961 -7.33794,-31.32074 -6.95864,-35.24413 0.45751,-4.73234 3.18251,-4.74836 7.6351,-0.0449 5.33082,5.6312 16.23205,22.44008 18.99509,29.289 3.5919,8.90346 6.26518,17.33473 5.97464,18.8434 -0.66363,3.44597 -3.14907,1.51222 -4.93988,-3.8434 -2.42744,-7.2595 -4.99589,-13 -5.81654,-13 -1.11728,0 -5.82427,5.3364 -7.40165,8.39139 -1.35969,2.63336 -1.31366,3.34732 0.51577,8 2.62399,6.67345 4.04231,8.12236 9.42648,9.62984 2.46164,0.68921 4.71567,1.64139 5.00896,2.11594 0.29329,0.47456 1.42089,0.86283 2.50578,0.86283 1.08489,0 4.54584,0.84442 7.69099,1.8765 10.13012,3.32417 10.79086,3.35418 14.02032,0.63676 2.87008,-2.41501 8.03239,-13.01233 6.89353,-14.1512 -0.31134,-0.31133 -1.59529,0.15484 -2.85324,1.03594 -3.06022,2.14346 -8.09611,2.0267 -10.91141,-0.25299 -2.05154,-1.66124 -2.36622,-3.04524 -3.01263,-13.25 -0.397,-6.26726 -1.20485,-12.63251 -1.79522,-14.14501 -1.34735,-3.45186 -4.02657,-3.54589 -7.1229,-0.25 -1.29175,1.375 -2.94519,2.5 -3.67431,2.5 -2.30887,0 -1.44068,-2.49622 2.04232,-5.87207 2.80334,-2.71711 4.00357,-3.21104 7.15891,-2.94616 5.45755,0.45814 7.4584,4.7432 8.18503,17.52927 0.65229,11.47789 1.35323,13.28896 5.14324,13.28896 5.3392,0 13.75642,-9.60885 16.64374,-19 0.42274,-1.375 2.01929,-5.2 3.54789,-8.5 1.52859,-3.3 3.47851,-8.025 4.33317,-10.5 2.98395,-8.6413 4.52287,-12.62155 11.59913,-30 3.91917,-9.625 10.49807,-26.05 14.61978,-36.5 4.12171,-10.45 7.88044,-19.9 8.35272,-21 5.36303,-12.491 11.04501,-28.0664 10.63168,-29.14351 -0.2926,-0.76244 0.12255,-1.35642 0.94808,-1.35642 0.80774,0 1.46862,-0.4377 1.46862,-0.97266 0,-0.53497 1.08662,-3.34747 2.41472,-6.25 1.32809,-2.90254 4.08245,-9.77734 6.1208,-15.27734 5.31274,-14.3352 18.10609,-47.14989 21.11171,-54.15113 0.74402,-1.73312 1.35277,-3.47685 1.35277,-3.87495 0,-0.39811 1.17524,-3.4801 2.61164,-6.84887 1.4364,-3.36878 2.98232,-7.02505 3.43538,-8.12505 0.45306,-1.1 1.79181,-4.25 2.97501,-7 1.1832,-2.75 3.43543,-8.375 5.00495,-12.5 1.56953,-4.125 6.72554,-16.95 11.45779,-28.5 10.99627,-26.83852 22.23621,-55.54011 23.10344,-58.99542 2.12043,-8.44847 -11.57003,9.79414 -16.88205,22.49542 -8.68146,20.75776 -15.45218,39.04407 -16.10639,43.5 -0.1615,1.1 -1.26252,4.11281 -2.4467,6.69514 -1.18419,2.58232 -2.16738,5.28232 -2.18487,6 -0.0175,0.71767 -0.6925,2.17837 -1.5,3.24599 -0.80751,1.06762 -1.47008,2.64262 -1.47239,3.5 -0.002,0.85738 -1.05999,3.63969 -2.35042,6.18291 -2.52297,4.97232 -3.59472,7.927 -4.30778,11.87596 -0.24828,1.375 -1.11086,3.16897 -1.91684,3.98661 -1.28997,1.30862 -1.38601,1.06917 -0.80224,-2 0.36475,-1.91764 1.04979,-4.24453 1.52232,-5.17087 1.08963,-2.13608 1.08429,-2.81574 -0.0221,-2.81574 -0.4847,0 -1.41527,2.12066 -2.06792,4.71258 -2.14311,8.51104 -6.72385,17.13221 -17.91429,33.71556 -6.57274,9.74026 -7.93084,11.17752 -9.28362,9.82474 -0.69139,-0.69139 0.0519,-2.48388 2.31429,-5.58068 9.47514,-12.97001 17.98797,-29.7707 22.66006,-44.72129 2.14001,-6.848 5.97935,-17.33258 8.53185,-23.29906 2.55251,-5.96648 4.64092,-11.6183 4.64092,-12.55961 0,-9.52877 16.29028,-51.28035 23.2906,-59.69323 3.81007,-4.57887 5.04769,-7.34874 3.50252,-7.83886 -1.70731,-0.54155 -15.61225,-2.32209 -23.79312,-3.04673 -3.575,-0.31666 -8.075,-0.78174 -10,-1.03352 -6.0128,-0.78641 -18.82081,-2.06187 -30,-2.98749 -3.575,-0.296 -14.375,-1.40191 -24,-2.45758 -9.625,-1.05567 -20.875,-2.19051 -25,-2.52186 -4.125,-0.33136 -8.625,-0.79913 -10,-1.03949 -2.71546,-0.47468 -19.01107,-2.06091 -31,-3.01756 -4.125,-0.32915 -7.9275,-1.01639 -8.45,-1.52719 -1.33707,-1.30713 3.04043,-1.18002 18.10488,0.52572 7.06482,0.79994 15.99512,1.71929 19.84512,2.043 3.85,0.3237 11.05,1.02352 16,1.55513 4.95,0.53162 18.225,1.91141 29.5,3.06619 11.275,1.15478 23.875,2.44757 28,2.87286 4.125,0.42528 18.14424,1.76941 31.15386,2.98695 l 23.65386,2.2137 4.13365,-4.13365 c 4.73908,-4.73908 9.78319,-8.04946 12.27345,-8.05489 2.23587,-0.005 2.29463,-0.1258 13.25005,-27.26982 14.24336,-35.29047 30.63065,-75.56623 37.32445,-91.73392 10.14431,-24.50184 20.77652,-49.96265 25.68186,-61.5 2.57228,-6.05 7.11882,-17.19224 10.10343,-24.76054 2.9846,-7.5683 7.50547,-18.5933 10.04638,-24.5 2.5409,-5.9067 8.80646,-21.08946 13.92346,-33.73946 16.57975,-40.98763 32.9886,-81.440443 43.40236,-107.000003 22.88093,-56.1590144 22.21876,-54.66776684 23.64243,-53.24408895 0.6822,0.68219225 -2.31168,9.43150675 -3.9676,11.59497095 -0.56869,0.742985 -1.12185,1.949606 -1.22925,2.681381 -0.10741,0.731775 -1.8474,5.073878 -3.86667,9.649118 -2.0193,4.575241 -5.47793,13.043619 -7.68589,18.818619 -2.20795,5.775 -4.36653,10.95 -4.79684,11.5 -0.43031,0.55 -1.36072,2.8 -2.06759,5 -0.70686,2.2 -2.73074,7.15 -4.49752,11 -1.76678,3.85 -3.55071,8.125 -3.96428,9.5 -0.41357,1.375 -1.66301,4.525 -2.77653,7 -1.11352,2.475 -3.123,7.638086 -4.46551,11.473525 -1.3425,3.835438 -3.30282,8.757468 -4.35626,10.937828 -1.05344,2.18037 -1.91534,4.33677 -1.91534,4.79201 0,0.45524 -3.375,8.64483 -7.5,18.19911 -4.125,9.55427 -7.5,17.86038 -7.5,18.45803 0,0.59765 -1.59355,4.36103 -3.54123,8.36307 -1.94767,4.00203 -3.49104,7.27643 -3.4297,7.27643 0.17119,0 -1.95828,5.74899 -2.96325,8 -0.4911,1.1 -2.33104,5.6 -4.08876,10 -1.75771,4.4 -4.21316,10.25 -5.45656,13 -1.24339,2.75 -3.4847,8.15 -4.98068,12 -1.49599,3.85 -3.52074,8.8 -4.49945,11 -1.55226,3.48928 -3.21828,7.94944 -3.54856,9.5 -0.0586,0.275 -1.03513,2.525 -2.17011,5 -3.27757,7.14723 -7.05046,16.28051 -7.84874,19 -0.40363,1.375 -1.52348,4.3 -2.48856,6.5 -3.34195,7.61831 -7.07141,17.00223 -6.95505,17.5 0.0643,0.275 -1.21316,3.2 -2.83878,6.5 -1.62561,3.3 -4.14257,9.375 -5.59323,13.5 -2.85214,8.11018 -3.29179,9.20767 -6.40948,16 -4.23396,9.22428 -8.1777,18.84964 -8.45899,20.64561 -0.15975,1.01992 -1.26266,3.87939 -2.45092,6.35439 -1.18825,2.475 -3.122,6.975 -4.29722,10 -1.17521,3.025 -2.70946,6.85 -3.40943,8.5 -0.69997,1.65 -2.29113,5.7 -3.5359,9 -3.67178,9.73418 -4.48245,11.5 -5.27951,11.5 -0.41574,0 -0.75589,0.84401 -0.75589,1.87557 0,1.9272 -4.67894,13.22932 -5.84734,14.12443 -0.35896,0.275 -0.73689,1.175 -0.83983,2 -0.10295,0.825 -2.01545,6.60841 -4.25,12.85203 -4.58723,12.81727 -4.59038,12.83069 -2.62974,11.2035 1.14041,-0.94646 1.8675,-0.75494 3.5602,0.93776 1.16992,1.16992 4.02547,3.33753 6.34567,4.81691 4.1209,2.62755 11.66104,9.9285 11.66104,11.29115 0,0.37657 0.69716,0.9522 1.54925,1.27918 1.29113,0.49545 28.95263,3.59865 45.45075,5.09888 2.475,0.22506 7.875,0.71156 12,1.08112 4.125,0.36955 8.175,0.79254 9,0.93998 5.08859,0.90941 28.56922,1.87389 40,1.64302 10.04669,-0.20291 15.1627,-0.78377 20,-2.27073 10.12106,-3.11117 18.23328,-3.42705 26.73162,-1.04089 6.51597,1.82955 8.23396,1.92517 17.36044,0.96623 9.56633,-1.00515 10.63638,-0.92247 19.26838,1.48874 5.02676,1.40414 12.24228,3.0622 16.03448,3.68458 3.79221,0.62237 14.24102,3.58409 23.21959,6.58159 15.99184,5.33889 23.69638,6.92374 45.88549,9.4388 41.1992,4.6698 55.04331,6.00419 62.31272,6.00617 l 7.31271,0.002 2.97416,-6.55936 c 4.13993,-9.13043 4.51234,-11.64212 1.95744,-13.20189 -1.76933,-1.08018 -2.60363,-0.90947 -5.81147,1.18913 -5.07489,3.32004 -8.57714,4.08245 -10.13433,2.20614 -1.33278,-1.6059 -1.67654,-1.31979 7.38877,-6.14963 3.24648,-1.72967 4.06049,-2.74906 4.32108,-5.41131 0.28087,-2.8694 -0.3766,-3.92949 -5.25,-8.46496 -4.90691,-4.56667 -5.57108,-5.64575 -5.57108,-9.0513 0,-3.22605 0.67941,-4.51282 4.10162,-7.76829 2.96718,-2.82261 4.80623,-3.81698 6.64914,-3.59517 3.35369,0.40365 4.74144,2.77091 3.75293,6.40184 -0.7875,2.89257 -0.79349,2.89458 -1.42484,0.47892 -0.92566,-3.54176 -2.44704,-3.5521 -5.95866,-0.0405 -4.6042,4.6042 -4.23705,7.91727 1.3882,12.52674 l 4.50839,3.69428 4.15906,-2.75233 c 2.28748,-1.51379 5.16813,-2.75234 6.40145,-2.75234 1.51706,0 2.82483,-1.08151 4.043,-3.34351 4.22125,-7.83839 2.84658,3.93923 -1.60472,13.74859 -3.23958,7.13907 -2.90679,7.84492 3.69872,7.84492 5.329,0 5.60212,0.11216 4.05076,1.66352 -1.00053,1.00053 -3.90385,1.8493 -7.28482,2.12968 l -5.6213,0.46616 -2.92946,6.04753 c -4.80243,9.91404 -4.89334,9.81417 8.82053,9.68948 6.4625,-0.0588 13.01287,-0.082 14.55637,-0.0516 1.79387,0.0353 3.7927,1.13512 5.54021,3.04839 3.245,3.55283 3.44212,3.58483 49.65342,8.05933 56.0791,5.42996 61.97456,6.02184 64.5,6.4755 2.60989,0.46883 9.31867,1.0667 22,1.9606 4.125,0.29077 13.35,1.17432 20.5,1.96344 7.15,0.78913 15.7,1.66356 19,1.94318 3.3,0.27962 19.5,1.9006 36,3.60219 28.22541,2.91078 34.24371,3.50671 60.50001,5.99065 26.4351,2.50085 43.7859,4.19299 47,4.58369 4.4672,0.54302 48.3315,4.42826 49.995,4.42826 0.8599,0 0.9418,-0.38998 0.2623,-1.25 -2.5725,-3.25617 -7.9433,-24.46399 -6.5486,-25.8587 0.5208,-0.52084 3.7935,-1.4054 7.2726,-1.96569 8.807,-1.41832 10.1534,0.43302 1.5575,2.14161 l -6.6138,1.31461 0.6428,3.05909 c 0.9214,4.38441 1.5971,4.75981 6.523,3.62433 2.4251,-0.559 5.4217,-1.02736 6.6592,-1.0408 4.0344,-0.0438 2.3691,1.7475 -2.7709,2.98056 -6.5683,1.5757 -7.6295,3.52081 -5.4693,10.02462 0.8998,2.70899 1.3657,5.36281 1.0353,5.89737 -0.7548,1.2214 4.0448,2.14025 12.4548,2.38434 l 6.4998,0.18866 4.8121,-12 c 4.5936,-11.45515 4.7412,-12.12052 3.2501,-14.65429 -0.859,-1.45986 -1.5619,-4.04736 -1.5619,-5.75 0,-3.14445 -0.5895,-3.5742 -3.4154,-2.48982 -1.3104,0.50289 -1.4735,1.73982 -0.959,7.27568 0.5012,5.39289 0.3171,6.92108 -0.9616,7.98236 -1.3682,1.13545 -1.6608,0.92957 -2.1683,-1.52568 -0.3226,-1.56104 -1.0162,-4.46546 -1.5412,-6.45427 -0.525,-1.98881 -0.9545,-4.48888 -0.9545,-5.55572 0,-1.06684 -1.125,-3.46455 -2.5,-5.32826 -2.8917,-3.91954 -3.0598,-4.84796 -1.0192,-5.63099 0.8979,-0.34458 2.5072,0.65168 4.0888,2.53139 3.1204,3.70834 7.7073,4.23034 9.6625,1.0996 0.6869,-1.1 1.8599,-2 2.6066,-2 1.0672,0 1.2115,1.25975 0.6743,5.88831 -0.4448,3.83175 -0.3081,6.12028 0.3912,6.55247 1.3131,0.81156 6.0958,-9.59319 6.0958,-13.26146 0,-1.4145 1.1779,-4.27148 2.6175,-6.34883 2.5159,-3.63046 10.3977,-22.26373 29.3266,-69.33049 31.6644,-78.73356 34.0559,-84.43623 34.0559,-81.20778 0,0.67488 -23.2822,59.76136 -31.0137,78.70778 -5.7753,14.15283 -24.645,62.17752 -25.3947,64.63158 -0.4396,1.43898 -0.1541,2.32231 0.8786,2.71861 0.8414,0.32287 1.5298,1.53149 1.5298,2.68581 0,1.61265 -0.4436,1.95799 -1.915,1.49098 -1.3108,-0.41604 -2.4151,0.10615 -3.5,1.65512 -2.4783,3.53823 -1.9943,4.31385 4.4182,7.0807 3.3017,1.42463 6.2974,3.35706 6.6571,4.29428 0.3596,0.93723 -0.1375,3.17362 -1.1048,4.96975 -2.0964,3.89283 -9.2563,11.10575 -10.1434,10.21861 -0.3435,-0.34353 1.2232,-3.25884 3.4817,-6.47847 2.2584,-3.21962 4.1062,-6.38097 4.1062,-7.02523 0,-1.51322 -2.5597,-2.80882 -7.2052,-3.64703 -3.3508,-0.60459 -3.8431,-0.40196 -5.1462,2.11838 -2.0459,3.95698 -12.2487,30.22855 -13.0517,33.60712 -0.9506,3.99972 0.6676,2.84298 9.9807,-7.13466 8.3659,-8.96288 20.1386,-18.97086 25.5577,-21.72659 9.9731,-5.07156 23.4941,-17.79037 32.365,-30.44471 5.1508,-7.3478 23.7092,-28.17395 28.0699,-31.50001 1.919,-1.46365 4.0118,-2.48692 4.6507,-2.27394 1.2033,0.40112 1.3132,25.28283 0.1623,36.7597 -0.7247,7.22768 1.7864,22.22871 5.6079,33.5 1.6783,4.95 4.2346,13.5 5.6807,19 4.1573,15.81107 14.1574,35.16859 26.8135,51.90323 5.7831,7.64678 10.5147,14.2417 10.5147,14.65539 0,0.74335 1.2449,2.35153 11.9967,15.49795 3.0232,3.6965 6.3982,8.16621 7.5,9.9327 1.1018,1.76648 3.6967,5.41654 5.7664,8.11125 3.816,4.9683 15.1031,19.98423 30.9776,41.21149 14.999,20.05647 19.1337,32.19806 10.9596,32.18302 -3.4821,-0.006 -6.9124,-2.97089 -12.4887,-10.79267 -9.0246,-12.65853 -39.2367,-45.11301 -52.6233,-56.52895 -4.6264,-3.94538 -11.0889,-9.64841 -14.361,-12.67341 -3.272,-3.025 -6.6868,-5.9087 -7.5882,-6.40822 -0.9015,-0.49952 -3.1013,-2.17298 -4.8884,-3.7188 -5.1612,-4.46441 -12.9349,-9.11361 -24.2789,-14.52034 -5.7905,-2.75987 -12.8211,-7.00574 -15.6235,-9.43529 -23.0138,-19.95145 -27.6264,-23.5018 -40.5596,-31.21935 -7.9105,-4.72036 -12.1455,-6.41492 -25.3914,-10.15994 -8.7435,-2.47207 -17.3897,-4.61694 -19.2137,-4.76637 -3.1533,-0.25833 -3.4283,-10e-4 -5.5921,5.22831 -1.2517,3.025 -3.2641,7.525 -4.472,10 -3.2936,6.74868 -8.106,18.34295 -16.6027,40 -4.2078,10.725 -8.932,22.65 -10.4984,26.5 -1.5663,3.85 -3.8206,9.925 -5.0094,13.5 -1.1888,3.575 -3.2123,8.975 -4.4967,12 -1.2844,3.025 -4.4581,10.675 -7.0527,17 -2.5945,6.325 -6.6212,16 -8.948,21.5 -2.3269,5.5 -9.2765,23.5 -15.4436,40 -6.1671,16.5 -12.5303,33.31787 -14.1405,37.37304 -1.6101,4.05517 -2.9275,7.98753 -2.9275,8.73857 0,0.75104 -0.6787,2.15817 -1.5082,3.12696 -0.8295,0.96879 -1.5389,2.21143 -1.5765,2.76143 -0.038,0.55 -0.9169,2.575 -1.954,4.5 -1.6758,3.11048 -6.4811,14.87201 -14.3595,35.14692 -1.4206,3.6558 -2.7342,7.4808 -2.9192,8.5 -0.185,1.01919 -1.2898,3.87808 -2.4552,6.35308 -1.1654,2.475 -2.8799,7.0875 -3.81,10.25 -0.9302,3.1625 -2.0295,5.75 -2.443,5.75 -0.4135,0 -1.0484,1.58072 -1.4108,3.51272 -0.3625,1.932 -2.2125,6.83009 -4.1113,10.88466 -1.8988,4.05456 -3.4523,7.76727 -3.4523,8.25047 0,0.86941 -10.5663,27.59929 -19.3113,48.85215 -2.4894,6.05 -6.1377,14.93099 -8.1074,19.73553 -1.9697,4.80454 -3.5813,10.09204 -3.5813,11.75 0,1.71542 -0.8923,3.90679 -2.0707,5.08513 -1.1388,1.13886 -3.78961,6.42636 -5.89051,11.75 -4.8243,12.22443 -15.4262,39.32308 -21.0012,53.67933 -2.3495,6.05 -5.0661,12.8 -6.0371,15 -5.369,12.1651 -8.0005,18.4055 -8.0005,18.9725 0,0.3505 -0.856,2.525 -1.9023,4.8324 -1.831,4.038 -2.4575,6.7275 -2.2129,9.5004 0.1361,1.5423 9.1514,5.8394 14.031,6.6878 1.8788,0.3266 3.9038,0.8991 4.5,1.2723 0.5963,0.3731 1.6818,0.7689 2.4123,0.8795 0.7304,0.1106 2.0804,0.5287 3,0.9291 2.3585,1.0271 3.2174,1.2654 7.1424,1.982 4.3187,0.7884 39.69101,11.6544 63.02951,19.3618 9.625,3.1787 20.3125,6.6077 23.75,7.62 3.4375,1.0124 6.25,2.2321 6.25,2.7105 0,0.4783 0.4186,0.611 0.9302,0.2949 0.9133,-0.5645 11.7257,2.3128 23.5698,6.2722 3.3,1.1032 10.95,3.4075 17,5.1207 6.05,1.7132 13.025,3.8224 15.5,4.6872 7.463,2.6076 16.1744,4.4561 18.108,3.8424 1.048,-0.3326 3.0036,0.2941 4.6066,1.4762 2.4183,1.7834 15.3339,6.0581 18.3041,6.0581 15.2607,1.6595 10.3274,4.4904 17.6467,3.6679 0.2814,-0.2814 2.6226,0.7331 5.2028,2.2544 5.6905,3.3552 16.952,7.1056 54.6318,18.1939 6.05,1.7804 11.45,3.6446 12,4.1427 2.4868,2.2521 -15.3002,-1.6488 -31.5,-6.9084 -4.125,-1.3393 -8.175,-2.571 -9,-2.7372 -3.2227,-0.6491 -7.8084,-1.9446 -14.9723,-4.2297 -10.6681,-1.3151 -11.5422,-2.8316 -12.8457,0.1164 -0.611,1.3819 -1.5988,2.5 -2.1606,2.5 -0.5618,0 -1.0231,1.6875 -1.0251,3.75 0,3.4101 -3.0697,10.25 -4.5951,10.25 -1.1397,-19.4047 18.0253,-17.2061 -14.31,-26.297 -6.8679,-2.3617 -21.0423,-6.964 -31.0912,-10.3302 -15.1853,-5.0615 -19.6384,-6.4422 -22,-6.8214 -1.375,-0.2208 -3.85,-0.9351 -5.5,-1.5873 -1.65,-0.6523 -5.3934,-1.7591 -8.3186,-2.4597 -5.2392,-1.2547 -5.3325,-1.2372 -6.25,1.176 -0.5123,1.3474 -0.9314,2.8412 -0.9314,3.3196 0,1.6171 -2.0522,6.2811 -2.5464,5.7869 -0.2697,-0.2697 0.357,-3.213 1.3926,-6.5407 l 1.8831,-6.0503 -2.748,-0.5496 c -1.5114,-0.3023 -3.8689,-0.831 -5.2389,-1.1748 -2.2427,-0.5629 -2.5599,-0.258 -3.182,3.0584 -0.8471,4.5152 -2.4614,8.9024 -3.0567,8.3071 -0.2423,-0.2422 0.4122,-3.2565 1.4543,-6.6983 1.3743,-4.5389 1.5716,-6.3568 0.7184,-6.6178 -0.647,-0.1978 -5.2264,-1.5638 -10.1764,-3.0355 -4.95,-1.4717 -9.675,-2.9316 -10.5,-3.2442 -0.825,-0.3127 -1.725,-0.6462 -2,-0.7412 -0.275,-0.095 -1.175,-0.4266 -2,-0.7369 -0.825,-0.3103 -4.65,-1.4956 -8.5,-2.634 -3.85,-1.1384 -13.75,-4.1674 -22,-6.731 -8.25,-2.5637 -19.95,-6.1258 -26,-7.9157 -6.05,-1.79 -16.17501,-4.9136 -22.50001,-6.9414 -6.325,-2.0278 -13.75,-4.2724 -16.5,-4.9882 -2.75,-0.7157 -7.3574,-2.083 -10.2386,-3.0384 -2.8812,-0.9554 -5.9306,-1.4716 -6.7764,-1.147 -1.8854,0.7235 -5.7435,9.4054 -4.8337,10.8774 0.3876,0.6271 0.1835,0.7712 -0.4968,0.3507 -0.635,-0.3924 -1.1545,-0.2503 -1.1545,0.3158 0,0.5662 -1.125,3.4889 -2.5,6.495 -1.375,3.006 -2.5,5.7243 -2.5,6.0405 0,0.3163 -0.84826,2.4826 -1.88502,4.8141 -1.03677,2.3315 -2.87948,6.9391 -4.09492,10.2391 -1.21544,3.3 -3.47472,8.925 -5.02062,12.5 -3.43254,7.938 -13.48303,33.5542 -14.5169,37 -0.78526,2.6172 -9.69442,24.6327 -16.66227,41.1743 -2.86729,6.8069 -3.88548,10.4297 -3.43532,12.2233 0.47426,1.8896 0.29422,2.4165 -0.69586,2.0366 -0.94691,-0.3634 -2.98781,3.8661 -7.01236,14.532 -3.1222,8.2745 -5.67673,16.1476 -5.67673,17.4958 0,2.2646 0.97117,2.7558 12.75,6.4482 7.0125,2.1983 16.575,5.1307 21.25,6.5165 4.675,1.3859 14.575,4.376 22,6.6447 7.425,2.2688 16.2,4.9352 19.5,5.9254 3.3,0.9902 20.4,6.1728 38,11.5168 75.78921,23.0124 131.25481,39.6829 163.00001,48.9905 12.65,3.7089 27.275,7.9963 32.5,9.5276 27.7475,8.1316 38.4513,11.3242 58.5,17.4485 25.1968,7.6969 63.3289,19.2163 68.5,20.6934 13.3478,3.8126 60.7192,18.1115 63.7613,19.2461 2.0563,0.767 7.5637,2.6068 12.2387,4.0885 4.675,1.4817 8.9275,3.0985 9.45,3.5929 0.5225,0.4944 1.6903,0.8989 2.595,0.8989 0.9048,0 2.4595,0.9 3.455,2 1.7571,1.9416 1.7466,2 -0.3576,2 -1.8624,0 -13,-3.1775 -38.6424,-11.0244 -10.6932,-3.2722 -36.8135,-11.0531 -44,-13.1069 -3.85,-1.1003 -20.95,-6.1889 -38,-11.308 -17.05,-5.1191 -34.6,-10.3273 -39,-11.5739 -4.4,-1.2465 -15.2,-4.4169 -24,-7.0454 -8.8,-2.6284 -23.2,-6.8916 -32,-9.4738 -8.8,-2.5821 -20.275,-5.9684 -25.5,-7.5251 -5.225,-1.5567 -24.125,-7.1597 -42,-12.4512 -17.875,-5.2915 -35.875,-10.6747 -40,-11.9627 -4.125,-1.288 -13.8,-4.2265 -21.5,-6.53 -12.8786,-3.8528 -19.7758,-5.9837 -40.5,-12.5124 -4.125,-1.2995 -12.9,-3.9238 -19.5,-5.8318 -6.6,-1.9079 -26.62501,-7.8311 -44.50001,-13.1625 -17.875,-5.3315 -37.675,-11.185 -44,-13.0078 -6.325,-1.8229 -16.81364,-4.9275 -23.30808,-6.8992 -6.49445,-1.9717 -12.22591,-3.5849 -12.73658,-3.5849 -1.17756,0 -3.11328,4.4649 -8.45411,19.5 -2.34447,6.6 -8.62961,23.025 -13.96697,36.5 -5.33735,13.475 -11.66648,29.675 -14.06473,36 -2.39824,6.325 -6.68284,17.125 -9.52132,24 -2.83848,6.875 -5.94995,14.75 -6.91438,17.5 -1.60158,4.5668 -22.4278,55.9143 -28.35257,69.9039 -1.37522,3.2472 -3.1812,6.6991 -4.01331,7.6709 -0.8321,0.9719 -2.02819,2.7298 -2.65798,3.9066 -1.81368,3.3889 -22.83011,55.5365 -26.53596,65.8431 -1.84399,5.1284 -3.77046,9.8534 -4.28104,10.5 -0.51059,0.6465 -1.72004,3.6505 -2.68769,6.6755 -1.81031,5.6593 -7.87537,21.9461 -9.49596,25.5 -2.7602,6.053 -15.41051,37.1653 -27.13417,66.7342 -10.42473,26.2927 -13.76118,33.7376 -15.12515,33.75 -0.9625,0.01 -1.75,-0.1985 -1.75,-0.4605 z m 174.2604,-442.0237 c 2.12113,-4.95 6.69293,-15.975 10.15958,-24.5 6.68159,-16.431 14.93361,-36.3974 17.22215,-41.6702 0.75676,-1.7436 1.65312,-4.5561 1.9919,-6.25 0.33878,-1.6939 1.00972,-3.0798 1.49097,-3.0798 0.48125,0 0.875,-0.5905 0.875,-1.3122 0,-0.7217 0.9,-3.1749 2,-5.4517 1.1,-2.2767 2,-4.8362 2,-5.6878 0,-0.8516 0.375,-1.5483 0.83333,-1.5483 0.45834,0 0.84024,-0.5625 0.84869,-1.25 0.008,-0.6875 1.47619,-4.85 3.26166,-9.25 4.5361,-11.1785 5.23075,-13 4.95764,-13 -0.1316,0 0.38332,-1.125 1.14426,-2.5 0.76095,-1.375 1.43618,-2.725 1.50052,-3 1.11633,-4.7719 3.75712,-11.4073 6.36781,-16 0.46897,-0.825 1.77933,-3.975 2.91192,-7 1.13259,-3.025 3.60671,-9.55 5.49807,-14.5 5.4722,-14.3219 5.6188,-12.9153 -1.55827,-14.9515 -3.44609,-0.9776 -6.94063,-2.0246 -7.76563,-2.3267 -0.825,-0.302 -1.725,-0.6123 -2,-0.6895 -6.42564,-1.8052 -18.62739,-5.9073 -19,-6.3877 -0.275,-0.3545 -1.4,-0.7652 -2.5,-0.9126 -5.07773,-0.6804 -7.50571,-1.2762 -14.5,-3.558 -4.125,-1.3457 -9.075,-2.7624 -11,-3.1482 -1.925,-0.3857 -5.975,-1.5221 -9,-2.5253 -3.025,-1.0031 -8.2,-2.5585 -11.5,-3.4563 -3.3,-0.8978 -9.375,-2.7052 -13.5,-4.0163 -4.125,-1.3111 -11.55,-3.5642 -16.5,-5.0067 -4.95,-1.4426 -10.8,-3.2498 -13,-4.016 -2.2,-0.7662 -6.475,-2.0486 -9.5,-2.8498 -5.91319,-1.5662 -25.41938,-7.3411 -44,-13.0265 -28.78431,-8.80749 -46.26553,-14.10579 -54.5,-16.5181 -18.41437,-5.39454 -28.08748,-8.38481 -29,-8.96486 -0.55,-0.3496 -3.925,-1.36819 -7.5,-2.26352 -5.68943,-1.42487 -32.33904,-9.60445 -62,-19.02971 -5.225,-1.66033 -12.65,-3.84468 -16.5,-4.85411 -12.06843,-3.16422 -27.92723,-7.96085 -29.71605,-8.98788 -0.94384,-0.54189 -4.13357,-1.26938 -7.0883,-1.61665 l -5.37225,-0.6314 -7.6617,18.50785 c -4.21393,10.17932 -7.6617,18.77991 -7.6617,19.11241 0,0.3325 -1.97131,4.99487 -4.38068,10.36082 -2.40937,5.36595 -6.73612,16.05625 -9.615,23.75625 -12.18544,32.5918 -25.83215,65.8152 -25.96428,63.2108 -0.0661,-1.3026 8.97729,-25.0527 10.36111,-27.2108 0.70536,-1.1 1.61094,-3.35 2.01239,-5 0.40146,-1.65 4.07264,-11.4231 8.15819,-21.718 4.08555,-10.2949 7.42827,-19.0265 7.42827,-19.4035 0,-0.377 1.06426,-2.97892 2.36503,-5.78199 1.30077,-2.80307 4.9315,-11.62149 8.06829,-19.59649 3.13679,-7.975 6.78879,-17.2 8.11557,-20.5 4.23632,-10.53674 5.49437,-14.78834 4.91554,-16.61208 -0.39057,-1.23056 -3.70748,-2.75963 -10.76447,-4.96231 -5.60998,-1.75104 -14.92496,-4.67421 -20.69996,-6.49595 -5.775,-1.82174 -15.35918,-4.7082 -21.29819,-6.41435 -5.939,-1.70615 -11.789,-3.49696 -13,-3.97957 -1.21099,-0.48261 -5.35181,-1.78925 -9.20181,-2.90364 -3.85,-1.11439 -10.375,-3.00589 -14.5,-4.20333 -11.29901,-3.27996 -28.88203,-8.92987 -34.38335,-11.0483 -2.68585,-1.03426 -5.50543,-1.88047 -6.26575,-1.88047 -2.89731,0 -9.34338,-2.53801 -9.85904,-3.8818 -0.75243,-1.96081 0.19731,-2.62105 1.82598,-1.26938 0.7514,0.62361 1.66227,0.83773 2.02417,0.47584 0.36189,-0.3619 0.69352,0.20451 0.73694,1.25867 0.0434,1.05417 0.29309,1.39266 0.55482,0.7522 0.52249,-1.27853 5.58014,-0.23282 7.80516,1.61378 0.6848,0.56834 1.52714,0.75129 1.87187,0.40656 0.34473,-0.34473 1.82123,0.15585 3.28112,1.1124 1.45988,0.95655 2.34736,1.24251 1.97219,0.63546 -0.88797,-1.43677 -0.19018,-1.39185 3.71801,0.23935 2.57399,1.07433 7.37022,2.33831 11.71788,3.08809 0.275,0.0474 2.525,0.83006 5,1.73919 2.475,0.90913 7.875,2.62597 12,3.8152 4.125,1.18922 13.125,3.88996 20,6.00163 6.875,2.11167 15.875,4.83992 20,6.06278 4.125,1.22287 12.9,3.91239 19.5,5.97673 20.5372,6.42359 24.41412,7.28947 26.15797,5.84219 1.27643,-1.05934 1.82677,-0.87771 3.31378,1.09366 1.71322,2.27127 1.82313,2.28894 2.80297,0.4507 0.97304,-1.82546 5.59235,-13.50278 14.40436,-36.41325 2.22122,-5.775 5.08772,-12.975 6.36998,-16 5.38199,-12.69664 5.386,-12.53918 -0.82914,-32.53859 -7.19874,-23.16448 -7.33512,-23.69691 -9.85214,-38.46141 -2.44024,-14.31412 -2.90789,-39.13646 -0.94201,-50 0.64694,-3.575 2.03707,-11.675 3.08919,-18 1.96427,-11.80861 5.33349,-22.44107 10.83199,-34.18316 1.72125,-3.67573 4.02826,-8.96323 5.1267,-11.75 l 1.99717,-5.06684 -5.48541,0 c -3.01698,0 -5.48541,-0.1882 -5.48541,-0.41821 0,-0.23002 -0.30147,-1.20384 -0.66994,-2.16405 -0.47021,-1.22534 -0.30523,-1.52043 0.55336,-0.98979 0.67281,0.41582 3.94005,0.44073 7.26053,0.0553 l 6.03724,-0.70069 2.79195,-6.22273 c 3.96351,-8.83393 8.12754,-13.21532 14.30248,-15.04908 9.66889,-2.87135 18.02101,-1.54376 26.93968,4.28213 4.61523,3.01478 6.91578,2.38779 16.50697,-4.4988 12.1729,-8.74029 18.50895,-15.45762 21.20054,-22.4763 1.33255,-3.4748 3.33857,-8.34282 4.45782,-10.81782 1.11925,-2.475 2.09285,-4.725 2.16355,-5 0.0707,-0.275 0.48068,-1.4 0.91107,-2.5 0.43038,-1.1 2.14059,-5.499 3.80046,-9.77555 1.65987,-4.27655 3.472,-8.05617 4.02696,-8.39915 1.3911,-0.85975 0.21352,3.50955 -2.68201,9.95133 -1.29132,2.87285 -3.31214,7.84752 -4.4907,11.05482 -1.17856,3.2073 -2.75624,7.0323 -3.50596,8.5 -0.74972,1.4677 -1.6632,4.24355 -2.02996,6.16855 l -0.66683,3.5 5.08504,-5.36179 c 2.79678,-2.94898 6.8528,-7.9649 9.01338,-11.1465 6.85695,-10.0973 18.40232,-34.03669 22.42181,-46.49171 4.11211,-12.74204 9.34837,-27.07751 12.60169,-34.5 5.85865,-13.3666 14.27481,-47.08116 12.47843,-49.98776 -1.10129,-1.78193 -2.4857,-1.09631 -4.51852,2.23776 -2.346,3.84772 -2.50212,2.26719 -0.514,-5.2035 0.79821,-2.99942 1.3459,-5.55889 1.21709,-5.68771 -0.12882,-0.12881 -5.37778,2.64723 -11.66435,6.16899 -6.28658,3.52176 -11.62873,6.2046 -11.87146,5.96187 -0.90651,-0.90651 2.55625,-3.91719 11.15653,-9.70001 4.87059,-3.27498 8.69097,-6.11915 8.48974,-6.32038 -0.20123,-0.20123 -3.72664,0.10656 -7.83423,0.68398 -10.47457,1.47245 -17.16854,0.68659 -32.96836,-3.8704 -3.025,-0.87248 -7.75,-1.70317 -10.5,-1.846 -5.88567,-0.30567 -9.70143,-1.07879 -14.5,-2.93785 -1.925,-0.74578 -6.7625,-2.06315 -10.75,-2.92748 -3.9875,-0.86433 -10.2875,-2.24537 -14,-3.06897 -3.7125,-0.82361 -15.075,-2.39219 -25.25,-3.48574 -10.175,-1.09355 -25.025,-2.69878 -33,-3.56718 -7.975,-0.8684 -20.125,-2.01236 -27,-2.54214 -6.875,-0.52977 -18.37475,-1.57741 -25.555,-2.32808 -11.12761,-1.16336 -14.34996,-1.1575 -21.82633,0.0397 -4.82424,0.77251 -9.17203,1.15693 -9.66176,0.85426 -1.07605,-0.66504 -17.25038,2.16784 -21.45691,3.75809 -3.31057,1.25155 -16.5,12.40136 -16.5,13.94845 0,1.15548 4.60777,5.70026 7.92847,7.82009 7.57961,4.83857 11.10567,9.75756 12.54444,17.5 1.13525,6.10906 0.66299,16.35024 -0.86718,18.80539 -0.75229,1.20704 -1.66934,3.48964 -2.0379,5.07246 -0.36856,1.58282 -3.02785,5.40782 -5.90954,8.5 -2.88168,3.09218 -8.44089,9.45192 -12.3538,14.13276 -6.44974,7.71552 -7.66045,8.68509 -12.95944,10.37828 -3.21478,1.02722 -8.43434,2.70995 -11.59903,3.73939 -6.9885,2.2733 -8.28834,2.30232 -13.87029,0.30967 -2.40665,-0.85912 -8.42573,-2.00164 -13.37573,-2.53892 -8.51319,-0.92404 -15.21512,-2.5633 -22,-5.38111 -1.65,-0.68526 -4.3871,-1.04211 -6.08244,-0.79301 -2.70174,0.39697 -3.57543,-0.14474 -7.07393,-4.386 -7.13831,-8.65384 -11.30399,-16.72851 -13.89062,-26.92529 -2.99752,-11.8166 -3.0788,-18.12656 -0.3703,-28.74701 4.34896,-17.05293 11.0465,-30.09814 20.83174,-40.57527 4.90499,-5.25181 6.87046,-8.63976 5.69447,-9.81576 -0.31554,-0.31553 -3.87081,-0.78529 -7.90061,-1.04391 -5.36043,-0.34401 -7.71359,-0.10271 -8.76761,0.89906 -0.79239,0.7531 -3.08995,2.6005 -5.1057,4.10533 -2.59894,1.94021 -4.16033,4.22733 -5.36785,7.86285 -0.93657,2.81973 -2.32204,6.3135 -3.07884,7.76393 -0.75679,1.45044 -1.37876,3.01915 -1.38215,3.48603 -0.008,1.10884 -2.44948,6.70984 -6.08912,13.96933 -1.60437,3.20001 -2.91704,6.84064 -2.91704,8.09028 0,1.24964 -1.30194,4.93145 -2.8932,8.1818 -1.59126,3.25034 -3.55682,7.48472 -4.36792,9.40972 -4.39919,10.44069 -8.89199,21.68481 -9.19008,23 -0.18699,0.825 -1.0302,3.075 -1.87378,5 -0.84359,1.925 -3.19285,7.775 -5.22057,13 -2.02773,5.225 -4.7595,11.87584 -6.07061,14.77964 -1.31111,2.90379 -2.38384,5.7422 -2.38384,6.30755 0,0.56536 -1.05328,2.91452 -2.34062,5.22037 -1.28734,2.30584 -2.40753,4.64244 -2.48932,5.19244 -0.0818,0.55 -0.68344,2.35 -1.337,4 -1.2405,3.13181 -1.52574,4.16966 -1.71771,6.25 -0.0634,0.6875 -0.79035,1.25 -1.61535,1.25 -0.825,0 -1.5,0.70156 -1.5,1.55902 0,0.98106 0.46339,1.28062 1.25,0.80804 0.84936,-0.51028 0.81011,-0.20868 -0.12244,0.94098 -0.75485,0.93063 -1.03725,1.69201 -0.62756,1.69201 0.40969,0 0.27712,0.56362 -0.29459,1.2525 -0.57171,0.68887 -2.01192,3.72637 -3.20046,6.75 -1.18853,3.02362 -2.77926,6.8475 -3.53494,8.4975 -0.75568,1.65 -2.76421,6.54611 -4.46339,10.88025 -1.69918,4.33414 -4.42079,10.72787 -6.04802,14.2083 -1.62723,3.48043 -2.9586,6.82337 -2.9586,7.42877 0,0.60539 -0.45,0.8226 -1,0.48268 -0.57647,-0.35628 -1,0.57765 -1,2.2051 0,1.55272 -0.92922,5.29178 -2.06493,8.30902 -1.13571,3.01723 -3.18199,8.82747 -4.54729,12.91164 -1.3653,4.08417 -3.10414,8.58417 -3.86409,10 -1.43768,2.67848 -6.12624,14.48011 -11.55063,29.07424 -3.12754,8.41453 -21.06106,54.18071 -23.1192,59 -5.29688,12.40299 -20.79073,52.23151 -21.35733,54.90119 l -0.72185,3.40119 3.86266,-2.30531 c 2.12446,-1.26793 6.25578,-3.85534 9.18071,-5.74981 6.69772,-4.33812 8.08132,-3.5155 1.591,0.94592 -2.64585,1.81875 -6.39763,4.72544 -8.33729,6.45931 l -3.52666,3.1525 4.97745,2.24383 c 6.50233,2.93125 7.84366,3.42279 14.97745,5.4887 3.3,0.95566 6.4914,2.12176 7.09201,2.59135 0.6006,0.46958 1.37723,0.56856 1.72583,0.21995 0.34861,-0.3486 1.3197,-0.0646 2.15799,0.63112 0.8383,0.69572 1.52417,0.92975 1.52417,0.52006 0,-0.40969 0.5625,-0.28006 1.25,0.28807 0.6875,0.56813 3.05,1.3569 5.25,1.75283 2.2,0.39594 4.4955,1.1107 5.10111,1.58837 0.60561,0.47767 2.29311,0.96714 3.75,1.08772 1.45689,0.12057 2.64889,0.5435 2.64889,0.93984 0,0.39635 2.1375,1.03072 4.75,1.40972 2.6125,0.379 5.65,1.17717 6.75,1.77372 1.1,0.59655 2.3375,0.98903 2.75,0.87218 0.4125,-0.11685 0.75,0.51069 0.75,1.39454 0,1.12768 -0.52196,1.40038 -1.75,0.91428 -0.9625,-0.38098 -2.875,-0.8673 -4.25,-1.0807 -3.06486,-0.47567 -9.71305,-2.82028 -10.648,-3.75523 -0.37693,-0.37694 -1.96033,-0.68534 -3.51867,-0.68534 -1.55833,0 -2.83333,-0.525 -2.83333,-1.16667 0,-0.64166 -0.27127,-0.89539 -0.60282,-0.56384 -0.33156,0.33155 -1.79406,0.14159 -3.25,-0.42213 -1.45595,-0.56373 -3.32218,-1.18187 -4.14718,-1.37365 -0.825,-0.19178 -4.65,-1.21656 -8.5,-2.27729 -21.7553,-5.99388 -27.72364,-7.37049 -28.49793,-6.57307 -0.46841,0.4824 -0.45501,2.90038 0.0298,5.37665 2.08733,10.66141 0.0955,15.59466 -2.11975,5.25 -0.67722,-3.1625 -1.56122,-6.3953 -1.96444,-7.184 -1.42557,-2.78842 -5.4903,6.67019 -39.72252,92.434 -19.60483,49.11703 -30.22516,77.25398 -30.22516,80.07688 0,1.2678 0.52803,2.6314 1.17339,3.0303 1.30722,0.8079 15.53452,5.2833 74.32661,23.3807 18.30534,5.6348 31.54414,9.4591 36.25,10.4717 2.93942,0.6325 3.24834,0.4767 3.23264,-1.6301 -0.01,-1.2812 -0.68455,-5.4793 -1.5,-9.3291 -3.55902,-16.8024 -0.75648,-16.2334 3.39988,0.6903 1.5592,6.3487 3.1092,11.9869 3.44444,12.5293 0.33524,0.5424 3.21131,1.784 6.39128,2.759 3.17997,0.975 9.60676,3.0102 14.28176,4.5227 4.675,1.5124 13.9,4.4197 20.5,6.4607 6.6,2.0409 13.8,4.3049 16,5.0311 4.23428,1.3977 20.06751,6.2525 37.5,11.4983 5.775,1.7379 11.625,3.5295 13,3.9813 5.35214,1.759 14.5,4.3577 14.5,4.1191 0,-0.1382 2.475,0.6412 5.5,1.7318 3.025,1.0907 10.45,3.4148 16.5,5.1646 6.05,1.7499 15.95,4.7313 22,6.6255 11.48787,3.5966 12.31863,3.8472 24.5,7.3923 4.125,1.2004 12.45,3.6862 18.5,5.5239 16.53799,5.0234 18.39711,5.2355 20.66574,2.3576 l 1.88234,-2.3879 -0.27404,2.9829 c -0.25819,2.8103 0.0152,3.0548 4.72596,4.2252 2.75,0.6833 5.9,1.6718 7,2.1966 1.1,0.5248 5.15,1.8458 9,2.9354 29.94758,8.4761 42.50468,12.1503 65.5,19.1655 15.97444,4.8733 21.12373,6.204 21.71594,5.6118 0.3122,-0.3122 -0.18846,-4.5163 -1.11258,-9.3425 -0.92413,-4.8262 -1.93534,-10.1249 -2.24715,-11.7749 -0.766,-4.0535 1.03502,-2.149 2.60054,2.75 0.65909,2.0625 1.54511,3.75 1.96893,3.75 0.42381,0 1.58226,-1.8 2.57432,-4 1.16031,-2.5731 2.46302,-4 3.65187,-4 2.29101,0 2.33213,1.8688 0.17481,7.9429 -2.05135,5.7757 -1.4731,7.5295 2.83737,8.6053 l 3.33595,0.8326 -4.25,0.3671 c -3.94472,0.3407 -4.25,0.5766 -4.25,3.2839 0,2.1828 0.69202,3.262 2.75,4.2884 4.3753,2.1821 33.38068,11.4902 48.75,15.6442 4.4,1.1893 13.4,3.8955 20,6.0139 6.6,2.1184 23.025,7.095 36.5,11.0591 13.475,3.9641 30.46332,8.9613 37.75181,11.1048 7.2885,2.1436 17.4135,5.0475 22.5,6.4533 5.08651,1.4057 11.38569,3.1561 13.99819,3.8897 4.05085,1.1375 4.75,1.1263 4.75,-0.076 0,-1.9516 1.64786,-1.7616 3.85385,0.4443 3.58814,3.5882 7.37987,4.9344 42.64615,15.1407 6.05,1.7509 17.075,5.1385 24.5,7.528 18.72474,6.0259 18.50583,6.0731 23.2604,-5.0225 z m -270.2604,-85.8834 c 0,-5.7438 -0.22544,-6.4541 -2.25,-7.0899 -1.97071,-0.6188 -1.75349,-0.8245 1.75,-1.6575 4.90848,-1.167 13.09882,-0.7493 10,0.5099 -1.1,0.447 -2.5625,0.9805 -3.25,1.1854 -0.78144,0.233 -1.25,2.2281 -1.25,5.3223 0,6.2363 -0.71878,8.1132 -3.10699,8.1132 -1.65964,0 -1.89301,-0.7869 -1.89301,-6.3834 z m -122.43571,-30.9097 c 0.37553,-0.9862 0.93469,-1.5412 1.24258,-1.2334 0.30789,0.3079 6.4e-4,1.1148 -0.68278,1.7932 -0.98762,0.9802 -1.10248,0.8654 -0.5598,-0.5598 z m 98.8922,-1.7773 c -0.86757,-1.4038 -3.46514,-13.86 -3.42608,-16.4292 0.0516,-3.3962 1.60914,0.306 2.94476,6.9996 0.65846,3.3 1.60843,6.7814 2.11102,7.7364 0.5026,0.9551 0.91381,1.9676 0.91381,2.25 0,0.9397 -1.8719,0.5299 -2.54351,-0.5568 z m -91.42586,-16.9296 c 0,-0.825 0.43621,-2.175 0.96937,-3 0.86167,-1.3333 0.96937,-1.3333 0.96937,0 0,0.825 -0.43621,2.175 -0.96937,3 -0.86167,1.3333 -0.96937,1.3333 -0.96937,0 z m 3,-7.5 c 0,-0.55 0.43621,-1.675 0.96937,-2.5 0.53316,-0.825 0.96937,-1.05 0.96937,-0.5 0,0.55 -0.43621,1.675 -0.96937,2.5 -0.53316,0.825 -0.96937,1.05 -0.96937,0.5 z m 81.09379,-10.1488 c -1.69975,-6.1481 -3.02588,-13.7831 -2.4875,-14.3215 0.94711,-0.9471 2.29031,2.5794 3.44635,9.0483 1.37766,7.7089 0.71782,11.3377 -0.95885,5.2732 z m -5.88928,-30.4618 c -1.58098,-3.8229 -3.61163,-14.8462 -2.87126,-15.5866 1.0991,-1.0991 1.64061,0.2027 3.20471,7.7042 1.67258,8.0217 1.49177,12.2958 -0.33345,7.8824 z m -5.73986,-27.1394 c -0.92754,-2.6235 -2.44744,-10.3489 -2.47083,-12.559 -0.0354,-3.34417 1.7595,-1.72711 2.88732,2.6012 1.96439,7.539 2.34678,11.2078 1.16814,11.2078 -0.62848,0 -1.34156,-0.5625 -1.58463,-1.25 z M 240.31794,992.585 c -2.23041,-9.23116 -2.27202,-11.87745 -0.15345,-9.75888 1.07303,1.07303 3.9243,13.4222 3.95284,17.1202 0.0379,4.91598 -1.59951,1.74348 -3.79939,-7.36132 z m 324.00911,-8.0989 c -1.55767,-2.82161 -4.56677,-17.2487 -3.76487,-18.0506 1.27485,-1.27486 2.58142,1.58999 4.1215,9.03699 1.81673,8.78479 1.66293,12.67191 -0.35663,9.01361 z m -330.1638,-21.23641 c -0.87778,-1.64014 -4.02785,-15.9528 -4.02839,-18.30337 -9e-5,-0.4125 0.62141,-0.75 1.38112,-0.75 1.59206,0 3.35528,6.18622 4.27716,15.00634 0.64829,6.20253 0.1654,7.40156 -1.62989,4.04703 z m 323.34299,-9.54362 c -1.26352,-4.00836 -1.44317,-5.83813 -0.65098,-6.63032 1.40708,-1.40708 2.79763,1.11341 3.73386,6.76794 1.05233,6.35575 -1.06583,6.26119 -3.08288,-0.13762 z m -330.14751,-22.743 c -1.97437,-4.64489 -5.98435,-25.79685 -5.00527,-26.40196 0.50286,-0.31078 1.11032,-0.36903 1.34991,-0.12944 1.03056,1.03056 5.53023,24.0138 5.19079,26.51334 l -0.37362,2.75131 z m 180.96481,-39.4805 c -1.27113,-0.24276 -2.53769,-1.03175 -2.81458,-1.75331 -0.28148,-0.73352 -1.35673,-1.08878 -2.43885,-0.8058 -1.06448,0.27837 -1.93542,0.0178 -1.93542,-0.57912 0,-0.59689 -0.67865,-0.82483 -1.5081,-0.50654 -0.82946,0.31829 -3.07946,-0.16694 -5,-1.0783 -3.91874,-1.85956 -4.6832,-3.1592 -1.2419,-2.11131 1.2375,0.37682 3.47838,0.86946 4.97973,1.09474 1.50135,0.22529 4.42635,1.17957 6.5,2.12064 3.77644,1.71383 4.68992,2.00236 7.02027,2.2174 0.6875,0.0634 1.25,0.56535 1.25,1.11535 0,1.02056 -0.73669,1.06439 -4.81115,0.28625 z m -191.00043,-6.37341 c -1.61679,-4.40345 -4.51559,-19.91901 -3.84651,-20.58808 1.18061,-1.18062 1.77061,0.34247 4.19178,10.82105 1.45973,6.31758 2.02867,10.69183 1.46408,11.25642 -0.5646,0.5646 -1.26771,-0.0142 -1.80935,-1.48939 z m 167.741,-1.49789 c -1.15523,-1.39196 -0.96636,-1.54423 1.55043,-1.25 1.57625,0.18428 3.05062,0.89755 3.27636,1.58505 0.59625,1.81583 -3.26411,1.54787 -4.82679,-0.33505 z m -4.92942,-1.43168 c -0.825,-0.52396 -1.05,-0.96643 -0.5,-0.98327 0.55,-0.0168 0.325,-0.46684 -0.5,-1 -0.825,-0.53316 -1.05,-0.96937 -0.5,-0.96937 1.73488,0 3.75896,1.69379 3.37188,2.82167 -0.24502,0.71395 -0.88358,0.75863 -1.87188,0.13097 z m -9.53333,-2.84994 c -1.10793,-1.10793 -0.30106,-1.8429 1.78333,-1.62442 3.54017,0.37108 3.75,0.44332 3.75,1.29109 0,0.84502 -4.73633,1.13034 -5.53333,0.33333 z m -5.39333,-1.86221 c -1.33467,-0.25109 -3.39559,-1.09139 -4.57983,-1.86733 -1.18424,-0.77594 -2.4162,-1.14777 -2.73769,-0.82628 -0.32149,0.32149 -1.61961,0.0306 -2.88471,-0.64649 -1.2651,-0.67706 -3.65998,-1.27602 -5.32195,-1.33102 -2.12411,-0.0703 -3.13023,-0.66321 -3.38689,-1.99591 -0.28806,-1.4958 0.0256,-1.74076 1.48631,-1.16071 1.01828,0.40435 2.79884,0.91701 3.95679,1.13924 1.15796,0.22222 3.92977,1.04773 6.15959,1.83445 2.22982,0.78673 4.3009,1.18374 4.6024,0.88224 0.30149,-0.3015 1.9517,0.63282 3.66713,2.07626 1.71543,1.44344 2.74693,2.56315 2.29224,2.48825 -0.4547,-0.0749 -1.91873,-0.34162 -3.25339,-0.5927 z m -22.72583,-6.32361 c -0.57887,-0.57887 -2.13137,-1.19319 -3.45,-1.36515 -1.31863,-0.17196 -3.6643,-0.82334 -5.21261,-1.44751 -1.5483,-0.62417 -3.2358,-1.13485 -3.75,-1.13485 -0.51419,0 -0.94179,-0.5625 -0.95021,-1.25 -0.0119,-0.97314 -0.19575,-0.96564 -0.82995,0.0339 -1.14157,1.79912 -4.15474,0.40228 -4.15474,-1.92604 0,-1.54283 0.35771,-1.73676 1.78978,-0.97034 0.98438,0.52683 5.31858,1.86186 9.63155,2.96674 7.37955,1.89046 11.95922,4.12485 8.52867,4.16108 -1.23319,0.013 -1.22571,0.16026 0.05,0.98469 0.825,0.53316 1.0275,0.97627 0.45,0.98469 -0.5775,0.008 -1.52362,-0.45831 -2.10249,-1.03718 z m -22.90136,-7.03464 c -1.03052,-1.66742 1.28721,-3.57951 2.66672,-2.2 1.15392,1.15392 0.43172,3.28713 -1.11287,3.28713 -0.48508,0 -1.18431,-0.48921 -1.55385,-1.08713 z m -6.1167,-2.49672 c -0.40718,-1.06109 -0.83577,-1.21494 -1.29856,-0.46613 -0.37994,0.61475 -1.43973,0.83032 -2.3551,0.47906 -0.91536,-0.35126 -1.37236,-1.11103 -1.01554,-1.68837 0.35682,-0.57735 0.18602,-0.76373 -0.37957,-0.41418 -1.30027,0.80361 -11.28068,-1.51634 -11.28068,-2.6222 0,-0.4523 -0.45,-0.54425 -1,-0.20433 -0.55,0.33992 -1.5625,0.26587 -2.25,-0.16455 -0.6875,-0.43042 -1.7,-0.81945 -2.25,-0.86451 -3.13826,-0.25709 -10.61073,-2.89943 -11.61226,-4.10621 -1.97169,-2.37574 -0.0804,-2.82341 4.88497,-1.15624 2.60001,0.87298 10.12729,3.25311 16.72729,5.28916 14.99656,4.62634 16.5,5.21687 16.5,6.48091 0,1.65129 -4.00619,1.16888 -4.67055,-0.56241 z m -66.32945,-59.93563 c 0,-0.46213 17.43633,-12.1682 23.5,-15.77698 l 3,-1.78544 -3.17205,2.609 c -3.77478,3.10473 -23.32795,15.63849 -23.32795,14.95342 z m 46.01254,-30.21798 c 0.0147,-0.89176 28.65768,-19.84153 31.53632,-20.86392 3.14045,-1.11538 0.82418,0.6439 -11.54886,8.77172 -16.44077,10.79991 -20.00164,12.95419 -19.98746,12.0922 z m 47.98746,-32.52255 c 0,-0.77366 0.5625,-1.41385 1.25,-1.42263 0.6875,-0.009 6.84252,-3.68379 13.67783,-8.16667 12.02363,-7.8856 14.12281,-8.99313 14.02708,-7.40069 -0.0516,0.85924 -25.61713,17.58281 -27.62887,18.07332 -0.72932,0.17783 -1.32604,-0.30967 -1.32604,-1.08333 z m 45,-28.58748 c 0,-1.73501 39.62108,-26.86477 40.68273,-25.80311 0.30389,0.30389 -4.7879,4.00795 -11.3151,8.23125 -6.5272,4.22329 -15.51777,10.09536 -19.97905,13.04903 -8.27287,5.47722 -9.38858,6.01469 -9.38858,4.52283 z m 62.00915,-39.90251 c 0.0135,-1.10676 22.24628,-15.3279 22.91601,-14.65817 0.69089,0.69088 -2.69217,3.21524 -13.61364,10.15817 -8.46968,5.3843 -9.31817,5.79475 -9.30237,4.5 z m 41.20137,-26.38156 c 0.57764,-1.73292 20.11076,-14.36296 19.58847,-12.66583 -0.2196,0.71356 -3.97671,3.68161 -8.34913,6.59566 -10.71499,7.14111 -11.78982,7.72161 -11.23934,6.07017 z m 37.2545,-25.15012 c 4.74069,-3.54681 18.84853,-12.30332 21.03498,-13.05607 3.26228,-1.12315 -1.76342,2.54478 -12.77259,9.32188 -9.87092,6.0764 -13.71535,7.81389 -8.26239,3.73419 z m 162.57231,-16.21832 c -0.0519,-1.45259 3.38967,-10.26755 4.37426,-11.20403 0.46028,-0.43778 0.50305,0.32903 0.095,1.70403 -1.04277,3.51422 -4.42625,10.70618 -4.46931,9.5 z m 14.89202,-10 c -0.3129,-2.0759 0.30861,-6.0644 1.20764,-7.75 1.46781,-2.75201 2.97958,-2.07822 2.2437,1 -0.80257,3.35717 -3.24325,8.13056 -3.45134,6.75 z m -128.92935,-5.28378 c 0,-1.01371 5.39602,-4.82288 10.75,-7.58868 5.52397,-2.8536 3.56344,-0.34182 -3.01101,3.85764 -7.5846,4.84468 -7.73899,4.91912 -7.73899,3.73104 z m 122,-6.71622 c 0,-0.825 0.40122,-1.5 0.89159,-1.5 0.49038,0 1.18728,-1.1781 1.54867,-2.618 0.36139,-1.4399 0.88654,-2.38854 1.16699,-2.10808 0.5905,0.59049 -2.23214,7.72608 -3.05622,7.72608 -0.30307,0 -0.55103,-0.675 -0.55103,-1.5 z m -105.81709,-4.1039 c 2.23,-2.51249 7.81709,-5.76551 7.81709,-4.55141 0,0.52677 -1.6875,2.00757 -3.75,3.29067 -5.14748,3.2023 -6.03436,3.47722 -4.06709,1.26074 z m 113.75517,-15.2804 c 1.36702,-2.5543 1.97212,-2.7096 1.63606,-0.41991 -0.13689,0.93269 -0.81577,1.88475 -1.50862,2.1157 -0.98039,0.3268 -1.00865,-0.0492 -0.12744,-1.69579 z m -85.93808,-3.04193 c 0,-1.20812 24.03989,-17.36721 24.76237,-16.64473 0.90031,0.9003 -1.09821,2.73591 -8.0813,7.42255 -10.63308,7.13629 -16.68107,10.47994 -16.68107,9.22218 z M 707.15,557.50534 c 0.008,-0.44496 0.45153,-1.48402 0.98469,-2.30902 0.8354,-1.29269 0.97149,-1.26629 0.98469,0.19098 0.008,0.93004 -0.43469,1.9691 -0.98469,2.30902 -0.55,0.33992 -0.99311,0.25398 -0.98469,-0.19098 z m 6.99027,0 c 0.003,-0.44496 0.42426,-2.38402 0.93598,-4.30902 0.51172,-1.925 1.42656,-5.4125 2.03297,-7.75 1.0651,-4.10563 3.02547,-5.861 3.02547,-2.7091 0,2.39392 -4.059,14.37753 -5.08453,15.01134 -0.50351,0.31119 -0.91296,0.20174 -0.90989,-0.24322 z m -47.00558,-31.10479 c 0,-1.38488 18.25762,-13.20423 20.39687,-13.20423 1.70439,0 -1.00578,2.27471 -8.91908,7.48603 -9.3488,6.15666 -11.47779,7.21732 -11.47779,5.7182 z m 56.73872,-0.448 c -0.23765,-0.69093 0.40379,-3.73123 1.42542,-6.75623 2.9385,-8.70076 3.01416,-8.81795 3.87383,-6 1.33078,4.36223 1.02089,6.96917 -1.03797,8.73203 -1.1,0.94185 -2,2.26089 -2,2.93119 0,1.74348 -1.74708,2.58794 -2.26128,1.09301 z m 229.51298,522.49375 c 1.1766,-2.6125 2.2491,-5.2 2.3833,-5.75 0.2905,-1.1902 12.1528,-31.1185 13.4762,-34 0.5052,-1.1 2.2198,-5.6 3.8102,-9.99998 2.8404,-7.85813 16.8951,-43.11403 19.5338,-49 3.1816,-7.09692 8.88871,-21.42485 10.55561,-26.5 1.6817,-5.12012 7.0419,-18.61118 17.4818,-44 2.3747,-5.775 6.431,-15.9 9.0141,-22.5 2.5831,-6.6 5.598,-14.25 6.6997,-17 1.1017,-2.75 2.6586,-6.8 3.4597,-9 2.4161,-6.63515 22.4732,-56.73455 23.3908,-58.42647 0.4693,-0.86544 4.3108,-10.57353 8.5364,-21.57353 4.2257,-11 8.7014,-22.475 9.946,-25.5 1.2447,-3.025 3.2856,-8.2 4.5354,-11.5 1.2499,-3.3 3.2585,-8.25 4.4636,-11 1.2051,-2.75 3.4353,-8.375 4.956,-12.5 2.4145,-6.54933 7.993,-20.53294 10.5717,-26.5 0.4753,-1.1 2.4857,-6.05 4.4675,-11 1.9818,-4.95 4.4827,-10.92917 5.5574,-13.28705 1.0748,-2.35788 3.0905,-7.30788 4.4794,-11 1.3889,-3.69212 4.0302,-10.31295 5.8695,-14.71295 1.8394,-4.4 4.7929,-11.6 6.5635,-16 1.7706,-4.4 4.0692,-9.88781 5.108,-12.19514 1.0388,-2.30732 1.8887,-4.48931 1.8887,-4.84887 0,-0.35955 0.6286,-2.07174 1.3969,-3.80486 4.5632,-10.29357 21.8953,-54.69221 21.5035,-55.08409 -0.6663,-0.6663 -36.6702,-4.59453 -73.9004,-8.06294 -2.475,-0.23058 -7.2,-0.66903 -10.5,-0.97434 -3.3,-0.30531 -12.3,-1.21257 -20,-2.01613 -7.7,-0.80357 -17.15,-1.70725 -21,-2.00819 -3.85,-0.30094 -9.925,-0.96539 -13.5,-1.47655 -7.2194,-1.03226 -14.2484,-1.77425 -24,-2.53346 -7.45581,-0.58047 -26.81681,-2.42271 -32.00001,-3.04486 -1.925,-0.23106 -6.425,-0.67589 -10,-0.98851 -3.575,-0.31262 -10.325,-1.00285 -15,-1.53383 -4.675,-0.53099 -13.45,-1.42443 -19.5,-1.98543 -19.96283,-1.8511 -30.95897,-2.94249 -34,-3.37456 -6.00235,-0.85282 -14.13362,-1.72749 -20,-2.15137 -3.3,-0.23844 -10.275,-0.89649 -15.5,-1.46232 -15.83785,-1.71514 -27.67588,-2.86396 -45.5,-4.41554 -9.35,-0.81392 -18.8,-1.70588 -21,-1.98215 -4.46369,-0.56052 -11.31527,-1.18323 -22.5,-2.04493 -4.125,-0.3178 -9.75,-0.79779 -12.5,-1.06666 -2.75,-0.26886 -5.45192,-0.14154 -6.00426,0.28294 -2.45066,1.88336 -5.16238,14.33538 -8.00791,36.77179 -0.89055,7.0217 -4.3159,16.86695 -6.43652,18.5 -1.05102,0.80937 -5.10721,12.15258 -4.12955,11.54835 1.41532,-0.87471 0.0145,3.25964 -1.54216,4.55157 -1.13926,0.94551 -1.16605,1.45969 -0.14193,2.72472 0.96746,1.19504 0.97348,1.3858 0.0258,0.81662 -1.57058,-0.94327 -6.76193,10.22572 -10.81962,23.278 -2.14029,6.88462 -2.59799,9.52936 -1.70091,9.82839 0.94025,0.31341 0.88927,1.06289 -0.21791,3.20395 -0.7949,1.53716 -1.14536,3.09473 -0.77882,3.46128 0.36655,0.36655 -0.23433,0.90201 -1.33528,1.18991 -2.37213,0.62033 -9.91856,14.76683 -8.82298,16.53952 0.45101,0.72974 0.28603,0.89784 -0.4405,0.44882 -0.67225,-0.41547 -1.44734,0.046 -1.83993,1.09549 -0.3731,0.99736 -2.57267,5.03313 -4.88793,8.96839 -2.31526,3.93526 -3.85455,7.53526 -3.42064,8 0.96921,1.03809 -1.31233,10.06417 -3.96631,15.69127 l -1.95908,4.15372 0.49155,-5.5 c 0.63746,-7.13254 0.82933,-8.19939 1.7985,-10 0.44405,-0.825 -1.03111,0.50869 -3.27812,2.96376 -2.24702,2.45508 -4.08549,4.80135 -4.08549,5.21395 0,0.41261 -1.64095,1.86524 -3.64656,3.22809 -3.69572,2.51131 -7.7958,8.94872 -10.93511,17.16888 -1.16657,3.05462 -2.05406,4.18959 -2.73982,3.50383 -0.92869,-0.92869 -0.32058,-4.18732 2.04019,-10.9326 0.31683,-0.90525 -1.17776,-0.0302 -3.32132,1.94454 -2.14356,1.97475 -7.16049,5.97458 -11.14874,8.88851 -5.76394,4.21131 -7.44527,6.03884 -8.19674,8.90954 -0.51997,1.98633 -2.53277,10.1365 -4.47291,18.1115 -5.74266,23.60547 -10.39057,39.71402 -15.29248,53 -2.53655,6.875 -7.44848,20.15 -10.9154,29.5 -3.46692,9.35 -6.31871,18.0693 -6.3373,19.37621 -0.0186,1.30692 -0.97843,6.3998 -2.13297,11.31751 -1.15455,4.9177 -1.89954,9.14091 -1.65555,9.3849 0.49358,0.49358 9.4289,-21.0967 18.2423,-44.07862 3.16381,-8.25 6.82117,-17.2903 8.12745,-20.08956 1.30628,-2.79925 3.4567,-7.97425 4.77869,-11.5 1.322,-3.52574 3.32902,-8.66044 4.46005,-11.41044 1.13103,-2.75 4.84324,-12.2 8.24936,-21 3.40611,-8.8 6.52382,-16.675 6.92823,-17.5 1.22594,-2.50094 2.6797,-6.15041 5.44299,-13.66394 1.44909,-3.94017 3.21892,-7.38812 3.93293,-7.66211 1.5108,-0.57975 0.05,4.26473 -3.84924,12.76566 -1.27663,2.78321 -2.56481,5.96039 -2.86262,7.06039 -0.6678,2.46657 -7.35754,20.25687 -8.64876,23 -0.51779,1.1 -2.11025,5.15 -3.5388,9 -1.42855,3.85 -3.44787,9.25 -4.48737,12 -2.58593,6.84108 -15.85647,39.52731 -17.05191,42 -0.5318,1.1 -1.83787,4.475 -2.90236,7.5 -2.03779,5.79085 -6.17345,16.54803 -13.07148,34 -8.65943,21.90827 -11.87349,32.18554 -12.57286,40.20298 -0.68419,7.84344 -0.71122,7.90381 -4.51907,10.09383 -2.10692,1.21175 -4.24442,3.10319 -4.75,4.20319 -1.21909,2.65239 -5.21455,12.79234 -9.65379,24.5 -1.98118,5.225 -5.88484,15.21732 -8.67479,22.20516 -2.78995,6.98783 -4.81492,13.37675 -4.49993,14.19759 0.31498,0.82083 2.37687,1.97824 4.58197,2.57201 2.2051,0.59378 4.27983,1.51736 4.61051,2.05241 0.33069,0.53506 1.61527,0.97283 2.85464,0.97283 1.23937,0 6.24019,1.34762 11.11293,2.99471 4.87275,1.6471 8.9921,2.86217 9.1541,2.70016 0.16201,-0.16201 1.42896,-2.85963 2.81544,-5.99471 1.38648,-3.13509 2.73462,-5.70016 2.99586,-5.70016 0.26125,0 0.20635,2.87675 -0.12198,6.39278 -0.5487,5.87587 -0.41912,6.48797 1.60252,7.56992 1.20972,0.64742 2.96752,1.32504 3.90621,1.50582 0.9387,0.18077 5.19397,1.49931 9.45616,2.93008 4.26219,1.43077 8.38282,2.6014 9.15696,2.6014 0.77413,0 2.09858,0.69107 2.94323,1.53571 0.84464,0.84465 1.66428,1.49634 1.82143,1.44821 0.15714,-0.0481 2.31071,0.25406 4.78571,0.67153 2.475,0.41747 4.8375,0.66578 5.25,0.5518 0.4125,-0.11399 0.75,0.14632 0.75,0.57846 0,0.43215 0.7875,0.85315 1.75,0.93556 3.71567,0.31816 7.81674,1.59777 9.33115,2.91148 0.86963,0.75439 1.86596,1.0868 2.21406,0.7387 0.34811,-0.3481 3.01159,0.26363 5.91885,1.35941 2.90727,1.09577 8.21094,2.75484 11.78594,3.68681 12.56543,3.27571 16.52749,4.38816 19.5,5.47513 6.30619,2.30601 28.39812,8.99746 31.83225,9.64171 1.97807,0.37109 4.09543,1.27588 4.70523,2.01066 0.60981,0.73477 1.69282,1.11182 2.40669,0.83788 0.71388,-0.27394 1.99481,0.19879 2.84653,1.05051 0.86949,0.86949 1.69667,1.10433 1.88627,0.53552 0.21531,-0.64593 1.9658,-0.49127 4.83036,0.42679 2.47097,0.79191 7.08017,2.21341 10.24267,3.15888 3.1625,0.94547 5.75,2.13399 5.75,2.64116 0,0.50717 0.41628,0.66485 0.92506,0.3504 0.50879,-0.31444 1.97129,-0.15261 3.25,0.35963 4.45209,1.78347 6.32864,2.41092 6.906,2.30913 0.31959,-0.0563 7.74459,2.14121 16.5,4.88341 8.75542,2.7423 17.01241,5.2154 18.34887,5.4959 1.33646,0.2805 2.79727,0.737 3.24624,1.0145 0.44897,0.2775 1.6055,0.6768 2.57007,0.8875 3.00731,0.6567 19.44192,5.2373 26.25376,7.3174 3.575,1.0917 13.53607,4.0414 22.13572,6.5549 8.59965,2.5135 16.69965,4.9905 18,5.5045 1.30035,0.5139 6.18928,2.0545 10.86428,3.4234 10.42633,3.0531 33.61258,10.1061 53,16.122 7.975,2.4747 14.6378,4.5179 14.8062,4.5404 0.1685,0.023 1.2689,-2.0965 2.4455,-4.709 z M 603.16649,920.12446 c -0.0412,-3.32999 2.88697,-11.92814 4.0622,-11.92814 1.93635,0 0.0963,9.04286 -2.55293,12.54619 -1.42739,1.88759 -1.47854,1.86664 -1.50927,-0.61805 z m 6.85305,-22.11912 c -0.42587,-4.84103 2.87101,-15.80902 4.75204,-15.80902 1.96321,0 1.69126,4.04792 -0.70163,10.44348 -2.05814,5.50088 -3.83182,7.85045 -4.05041,5.36554 z m 2.44318,-28.43114 c -0.94494,-1.44216 -1.90879,-5.25869 -2.14188,-8.48117 -0.40798,-5.64027 -0.2879,-5.99496 3.21585,-9.49871 3.23216,-3.23216 4.00122,-3.55293 6.86883,-2.86497 3.65326,0.87645 4.26545,0.88524 18.72917,0.26891 6.49822,-0.2769 11.64337,-1.01936 13.5,-1.9481 4.04074,-2.02128 6.13112,-1.35078 7.43315,2.38423 0.97754,2.80418 0.66579,10.89677 -0.5676,14.7339 -0.94689,2.94583 -2.33442,-1.28303 -2.35024,-7.16295 -0.008,-3.13004 -0.4526,-5.96125 -0.98706,-6.29156 -0.9838,-0.60802 -5.91253,2.07892 -7.26294,3.95944 -0.40408,0.56271 -0.74158,2.90904 -0.75,5.21408 -0.008,2.30504 -0.53358,4.51129 -1.16701,4.90278 -1.75872,1.08694 -3.8483,-2.53702 -3.8483,-6.67411 0,-2.06231 -0.79109,-4.67503 -1.78846,-5.90673 l -1.78845,-2.20865 -3.46155,1.94053 c -3.38665,1.89854 -3.46154,2.07915 -3.46154,8.34786 0,5.02875 -0.32274,6.40734 -1.5,6.40734 -1.13858,0 -1.57107,-1.48051 -1.79498,-6.14462 -0.25744,-5.36256 -0.5252,-6.08441 -2.10377,-5.67161 -3.17915,0.83137 -9.26364,9.10808 -9.83675,13.3809 -0.61908,4.61557 -2.45302,5.10344 -4.93647,1.31321 z m 6.69203,-13.90205 c 0.69572,-0.83829 0.98669,-1.80241 0.64661,-2.1425 -0.72629,-0.72629 -3.66667,1.51036 -3.66667,2.78911 0,1.37745 1.62985,1.02849 3.02006,-0.64661 z m 6.99359,-12.22583 c 0.0213,-4.282 1.08687,-7.25 2.60298,-7.25 1.66603,0 1.77365,2.58199 0.28554,6.85078 -1.35326,3.88197 -2.90687,4.0967 -2.88852,0.39922 z m 8.3844,-26.65509 c -0.75029,-1.95523 5.40623,-22.59491 6.73975,-22.59491 1.9696,0 1.71527,2.74637 -1.08655,11.73265 -3.62651,11.63134 -4.6232,13.54641 -5.6532,10.86226 z m 15.23268,-51.75272 c 1.08647,-6.89867 3.92262,-14.34219 5.4647,-14.34219 1.85069,0 1.35394,4.08728 -1.44117,11.85799 -2.66798,7.41729 -5.03013,8.87572 -4.02353,2.4842 z m 12.36927,-37.91288 c 0,-4.42258 4.29565,-17.92931 5.7022,-17.92931 1.75272,0 1.0261,5.07153 -1.90144,13.27125 -2.22364,6.22819 -3.80076,8.16104 -3.80076,4.65806 z m 12,-38.21815 c 0,-1.28283 4.21815,-16.2016 4.97329,-17.58958 0.41247,-0.75813 0.9935,-0.98313 1.29118,-0.5 0.62369,1.01225 -4.0037,16.40353 -5.36012,17.82842 -0.49739,0.5225 -0.90435,0.64002 -0.90435,0.26116 z m -84.13474,158.03884 c 1.18473,-5.6375 2.81088,-12.95 3.61367,-16.25 1.61991,-6.65887 3.61474,-15.91807 6.03238,-28 0.88045,-4.4 5.62874,-20.19305 10.55174,-35.09566 4.923,-14.90261 11.02792,-35.15261 13.56649,-45 2.53858,-9.84739 5.937,-23.02309 7.55205,-29.27934 1.61505,-6.25625 2.67939,-12.04491 2.36519,-12.86369 -0.85955,-2.23995 -10.3486,-0.74325 -17.88153,2.82045 -3.39089,1.60416 -7.1089,2.91702 -8.26224,2.91745 -1.15334,4.3e-4 -3.0896,0.86167 -4.30279,1.91387 -1.21318,1.05219 -3.04354,2.51469 -4.06745,3.25 -1.02392,0.7353 -4.33239,6.28692 -7.35216,12.33692 -9.84746,19.72901 -11.78491,24.99506 -14.71654,40 -1.18203,6.05 -2.80867,14.375 -3.61475,18.5 -2.10682,10.78129 -2.16963,36.08739 -0.12046,48.52687 1.84173,11.1802 10.13312,41.59239 12.46566,45.72313 1.19959,2.12437 2.21295,-0.18383 4.17074,-9.5 z m -423.96674,-56.6343 4.39853,-3.85307 -3.34917,-5.88131 c -4.16844,-7.32004 -11.19642,-17.3192 -12.19788,-17.35472 -1.26131,-0.0447 -0.85676,3.52339 1.72794,15.24038 3.04387,13.79853 3.5852,15.73722 4.38869,15.7174 0.34835,-0.009 2.61271,-1.7495 5.03189,-3.86868 z m 451.83133,-111.5739 c 2.78333,-1.39799 5.75346,-2.5418 6.60028,-2.5418 0.84682,0 2.71207,-0.44575 4.14501,-0.99055 2.25073,-0.85572 2.45507,-1.27134 1.50128,-3.05351 -1.9094,-3.56775 -7.01176,-5.94814 -12.75854,-5.9522 -7.20082,-0.005 -12.25154,2.17074 -12.05305,5.19242 0.0832,1.26711 -0.32515,3.96099 -0.90752,5.9864 -0.58237,2.02541 -0.76601,3.98087 -0.40808,4.34547 1.19249,1.21475 8.75656,-0.41257 13.88062,-2.98623 z m 766.22496,-7.14728 c -1.9289,-4.49997 -13.5863,-21.42207 -20.9383,-30.39452 -2.0281,-2.475 -7.4339,-9.9 -12.013,-16.5 -4.5791,-6.6 -9.5172,-13.35 -10.9736,-15 -1.4564,-1.65 -3.847,-4.8 -5.3126,-7 -1.4655,-2.2 -5.3482,-7.15 -8.6282,-11 -3.28,-3.85 -8.4633,-10.64502 -11.5183,-15.10004 -3.0551,-4.45502 -7.263,-10.08002 -9.351,-12.5 -6.7792,-7.85716 -17.2198,-23.1856 -17.2198,-25.28147 0,-0.31903 -1.7364,-4.3012 -3.8586,-8.84927 -2.1222,-4.54807 -4.8601,-11.86922 -6.0843,-16.26922 -1.2241,-4.4 -3.2786,-11.375 -4.5655,-15.5 -6.6741,-21.39232 -7.5519,-27.82236 -6.8937,-50.5 l 0.5224,-18 -9.1677,9.5 c -5.0422,5.225 -11.5331,12.65 -14.4242,16.5 -8.906,11.85989 -24.7089,26.44968 -33.6242,31.04312 -4.0192,2.07081 -16.4074,11.8732 -23.2131,18.36781 -5.8703,5.60202 -9.3187,10.86145 -7.9916,12.18857 0.8789,0.87892 6.5946,1.72516 33.8005,5.00441 21.1808,2.55303 25.843,3.39458 26.2881,4.74522 0.3666,1.1123 -2.0773,1.22258 -13.9217,0.62825 -14.3016,-0.71763 -14.3551,-0.71222 -11.8664,1.1992 3.5256,2.70775 15.965,10.32342 16.8623,10.32342 0.4108,0 2.3994,1.51362 4.4191,3.36359 2.0197,1.84998 5.1451,4.50411 6.9454,5.89806 1.8002,1.39396 4.1992,3.4173 5.331,4.49631 1.1318,1.07902 4.194,3.59239 6.8048,5.58528 2.6108,1.99288 5.4362,4.31274 6.2787,5.15522 3.5459,3.54587 8.4865,6.6612 18.8587,11.89156 16.6927,8.41757 36.1433,24.17252 63,51.0299 9.35,9.35025 17.3709,16.89472 17.8243,16.76549 0.4534,-0.12923 0.5426,0.22093 0.1982,0.77814 -0.3443,0.5572 1.3594,3.15585 3.7861,5.77478 10.6338,11.47623 13.6571,15.10343 17.0963,20.51167 4.3944,6.91028 6.2823,7.51895 3.5499,1.14452 z m -946.59822,-113.58855 10.86786,-3.19404 5.5776,-7.05596 c 3.06768,-3.88079 7.42991,-9.14507 9.69384,-11.69842 4.68921,-5.28867 9.50411,-18.10101 9.50411,-25.29023 0,-6.7335 -1.82809,-14.69268 -4.15447,-18.08781 -3.31843,-4.84293 -6.89693,-6.43244 -13.05751,-5.79993 -6.64886,0.68264 -8.45609,-1.00403 -9.36537,-8.74059 -0.63995,-5.44497 -0.61662,-5.50694 4.01172,-10.65477 2.56048,-2.84787 5.64771,-5.47449 6.86052,-5.83694 1.21281,-0.36245 5.56029,-2.27398 9.66106,-4.24785 l 7.45594,-3.58884 -2.95594,-1.19179 c -1.62577,-0.65548 -9.48095,-1.9229 -17.45595,-2.81648 -33.04514,-3.70266 -52.11782,-5.60232 -56.24739,-5.60232 -4.01179,0 -4.52128,0.29169 -6.02788,3.45105 -0.90513,1.89808 -2.78461,4.1973 -4.17662,5.10939 -1.39202,0.91208 -2.24027,2.12863 -1.88502,2.70345 0.35877,0.58049 0.1685,0.75006 -0.42796,0.38143 -0.59064,-0.36504 -1.78517,0.0476 -2.65451,0.91692 -0.86934,0.86934 -1.58062,1.23862 -1.58062,0.82063 0,-1.56013 -4.44781,4.0811 -4.74305,6.01569 -0.1691,1.10804 -0.63359,2.25916 -1.0322,2.55803 -0.39861,0.29888 -0.73056,0.99341 -0.73765,1.54341 -0.007,0.55 -1.00846,3.57461 -2.22525,6.72136 -1.21679,3.14675 -2.41734,6.85183 -2.66789,8.23351 -0.25054,1.38167 -0.71433,2.93087 -1.03062,3.44265 -1.71242,2.77075 -3.37967,16.81303 -3.15854,26.60248 0.24839,10.99622 0.85218,15.24314 2.64281,18.58896 0.52381,0.97876 0.95239,2.70914 0.95239,3.8453 0,1.13616 0.41968,2.06574 0.93261,2.06574 0.51294,0 1.21684,0.89552 1.56423,1.99004 0.86079,2.71212 7.23269,9.67969 10.95718,11.98151 5.65303,3.4937 13.76972,5.45343 27.04598,6.5301 1.65,0.13381 5.25,0.93545 8,1.78141 6.99793,2.15271 7.67817,2.10211 19.85659,-1.47709 z M 309.09925,536.83201 c -0.051,-1.63579 -2.88796,3.57061 -2.92296,5.36431 -0.0161,0.825 0.64295,0.21106 1.46456,-1.36431 0.82161,-1.57537 1.47789,-3.37537 1.4584,-4 z M 715.49512,479.5604 c 8.36214,-1.14616 4.97661,-2.66372 -8.86043,-3.97166 -3.3,-0.31193 -8.25,-0.88889 -11,-1.28214 -2.75,-0.39324 -6.125,-0.42624 -7.5,-0.0733 -2.32858,0.59767 -2.22573,0.72203 1.5,1.81366 12.68188,3.71578 18.55893,4.51425 25.86043,3.51347 z m -30.86043,-5.36408 c -0.33992,-0.55 -1.15398,-0.99311 -1.80902,-0.98469 -0.71561,0.009 -0.59227,0.40223 0.30902,0.98469 1.92112,1.24153 2.2673,1.24153 1.5,0 z m -92.5,-15.4958 c -3.025,-0.70998 -7.975,-2.08128 -11,-3.04735 -3.98754,-1.27347 -7.97493,-1.67281 -14.5,-1.45219 -4.95,0.16736 -11.14865,0.31363 -13.77478,0.32504 -8.27989,0.036 -3.73142,1.31889 10.77478,3.03911 14.59768,1.73107 20.61007,2.21796 29,2.34847 l 5,0.0778 -5.5,-1.29086 z m 156,-8.5042 c 0,-0.55 -0.70156,-1 -1.55902,-1 -0.85746,0 -1.2809,0.45 -0.94098,1 0.33992,0.55 1.04148,1 1.55902,1 0.51754,0 0.94098,-0.45 0.94098,-1 z M 381.42134,437.18447 c -0.28936,-1.10652 -1.88259,-3.15326 -3.54051,-4.54831 l -3.0144,-2.53645 -2.29364,2.15476 c -3.93304,3.6949 -1.5171,6.90172 5.21828,6.92654 3.67549,0.0135 4.09551,-0.21746 3.63027,-1.99654 z M 1074.1347,1666.6713 c 0,-0.2888 3.0854,-4.6763 6.8565,-9.75 13.0167,-17.5132 23.7972,-41.2377 29.6385,-65.225 2.0089,-8.25 4.7444,-19.4055 6.0788,-24.7901 1.9029,-7.6783 2.4262,-12.4301 2.4262,-22.0298 0,-14.2885 -2.1828,-33.4312 -4.8667,-42.6801 -4.3338,-14.9347 -9.6518,-29.9742 -13.093,-37.0273 -3.4557,-7.0829 -5.4208,-14.2313 -6.4527,-23.4727 -0.8338,-7.4682 6.0771,-18.2433 13.2124,-20.5999 7.2578,-2.397 18.8792,-0.6007 39.7851,6.1493 11.2594,3.6355 20.5026,4.0947 33.403,1.6596 11.4102,-2.1539 13.7927,-3.9806 18.5321,-14.209 7.3403,-15.8419 7.1348,-40.2775 -0.48,-57.0716 -3.1617,-6.9731 -3.3068,-9.4284 -0.5569,-9.4284 3.6808,0 8.7437,13.261 10.511,27.5306 1.2411,10.021 0.018,27.3475 -2.4167,34.2495 -2.6294,7.4524 -6.4588,13.8799 -10.3805,17.4229 -3.2308,2.9188 -5.3126,3.826 -11.3277,4.9365 -10.2986,1.9013 -28.2376,1.5917 -33.3694,-0.5758 -6.7347,-2.8446 -30.6932,-8.5637 -35.875,-8.5637 -6.4506,0 -10.5669,2.6399 -14.0259,8.9952 -2.6722,4.9098 -2.7188,5.2685 -1.7317,13.3381 1.0258,8.3865 3.2351,15.2876 6.9372,21.67 1.1156,1.9232 4.3065,10.294 7.0911,18.6019 5.7378,17.1191 9.5433,37.5053 10.6234,56.9091 0.6041,10.8539 0.4105,13.1189 -2.0504,23.9857 -1.4946,6.6 -2.94,13.35 -3.2119,15 -0.272,1.65 -1.9792,8.625 -3.7937,15.5 -5.034,19.0731 -16.6702,43.7535 -28.869,61.2313 -5.5245,7.9151 -6.3979,8.733 -9.3441,8.75 -1.7875,0.01 -3.25,-0.2176 -3.25,-0.5063 z m -81.79701,-171.6701 c -3.711,-0.9978 -4.7081,-2.6563 -3.7918,-6.3071 0.8032,-3.2001 2.196,-3.1991 2.9994,0 1.9418,7.7367 14.61481,-4.4113 14.89441,-14.2773 0.071,-2.505 -0.5481,-4.0012 -2.214,-5.3501 -4.42451,-3.5827 -5.18521,-2.6397 -4.99671,6.1941 0.1808,8.4692 -0.8462,11.2141 -3.402,9.0929 -0.8941,-0.7421 -1.6175,-4.3243 -2.0209,-10.0081 -0.3456,-4.8688 -1.1244,-11.1653 -1.7307,-13.9922 -0.8052,-3.7545 -0.8031,-6.0461 0.01,-8.5025 2.3244,-7.0429 9.96301,-10.7456 13.94761,-6.761 2.6695,2.6695 2.6513,5.2455 -0.083,11.8437 l -2.1876,5.2781 3.2222,3.3245 c 4.7888,4.9407 5.6528,9.2474 3.1806,15.8548 -2.1236,5.676 -7.7597,12.0439 -12.02751,13.5893 -1.4696,0.5321 -3.8589,0.5399 -5.797,0.019 z m 9.35321,-44.582 c -0.8346,-0.8346 -2.55561,0.9285 -2.52441,2.5861 0.028,1.4847 0.2097,1.4559 1.48971,-0.236 0.8018,-1.0598 1.2674,-2.1174 1.0347,-2.3501 z m -23.30621,23.1027 c -3.0763,-2.1459 -2.8786,-5.1361 0.4224,-6.3912 3.5548,-1.3515 5.3276,-0.532 5.3276,2.4628 0,1.9157 -2.3464,5.8367 -3.3214,5.5503 -0.098,-0.029 -1.1911,-0.7587 -2.4286,-1.6219 z m 5.2778,-14.238 c -0.3338,-1.0518 0.3502,-4.5393 1.5201,-7.75 1.1698,-3.2107 2.3699,-6.6435 2.6669,-7.6285 1.0404,-3.4514 2.7858,-1.015 2.6221,3.6604 -0.1047,2.9918 -1.1036,6.263 -2.7921,9.1443 -1.446,2.4674 -2.8048,4.4862 -3.0196,4.4862 -0.2147,0 -0.6636,-0.8606 -0.9974,-1.9124 z m 8.4722,-30.536 c 0,-1.4821 4.8163,-17.3771 5.7234,-18.8887 0.2763,-0.4605 0.9221,-0.4174 1.4351,0.096 1.10791,1.1079 -4.7579,20.2415 -6.2055,20.2415 -0.5241,0 -0.953,-0.6518 -0.953,-1.4484 z m 494.55531,-3.2997 c -0.3602,-1.6401 -0.6932,-9.1111 -0.7399,-16.6021 -0.1047,-16.7833 0.064,-17.0938 8.9157,-16.3833 6.1701,0.4953 9.2668,1.8668 9.271,4.1059 0,0.7582 -2.1773,1.0156 -6.6502,0.7856 l -6.6523,-0.342 0.6059,5.1158 c 0.3333,2.8137 0.8513,5.513 1.1513,5.9983 0.3,0.4854 2.7944,1.1918 5.5432,1.5699 2.7488,0.3781 5.262,1.1149 5.585,1.6375 1.1022,1.7835 -1.8236,3.8625 -5.4574,3.8778 -4.8221,0.02 -5.7044,0.7635 -6.441,5.4249 -0.3424,2.1671 -1.4897,4.8073 -2.5494,5.8671 -1.9025,1.9024 -1.9352,1.8891 -2.5819,-1.0554 z m -48.8945,-2.6934 c -0.3634,-0.9471 -0.6601,-6.7478 -0.6592,-12.8903 0,-12.5252 1.6695,-17.9083 5.7271,-18.485 3.4119,-0.4849 7.2713,3.9402 7.2713,8.3371 0,4.7533 -1.21,6.816 -5.4742,9.332 -3.2626,1.925 -3.5258,2.4417 -3.5258,6.9228 0,5.4489 -2.1642,9.8454 -3.3392,6.7834 z m 7.19,-18.6563 c 4.9799,-1.7361 3.4987,-6.4925 -2.6008,-8.3513 -2.0964,-0.6389 -2.25,-0.3852 -2.25,3.715 0,3.6646 0.5477,5.7341 1.5174,5.7341 0.1013,0 1.6013,-0.494 3.3334,-1.0978 z m 9.3992,18.0427 c -3.4081,-2.2454 -3.9037,-4.0953 -2.2574,-8.4253 0.6143,-1.6158 1.6271,-2.4981 2.6577,-2.3151 1.0902,0.1934 1.9237,-0.6449 2.4138,-2.4277 0.9233,-3.3587 4.3789,-7.8703 7.2699,-9.4914 5.9717,-3.3486 12.666,0.8531 12.666,7.9498 0,8.6616 -6.3775,15.7577 -14.7922,16.4587 -3.5941,0.2994 -5.4766,-0.1143 -7.9578,-1.749 z m 11.4349,-4.0115 c 9.0671,-3.4354 9.9787,-13.9334 1.21,-13.9334 -3.8463,0 -8.9731,4.9849 -8.1934,7.9665 0.402,1.5373 0.1593,1.9173 -0.9519,1.4909 -2.1212,-0.814 -2.9686,2.1808 -1.1357,4.0137 1.7895,1.7894 5.1202,1.9592 9.071,0.4623 z m -465.4863,-16.9334 c 0.2711,-0.825 1.7583,-5.6625 3.3048,-10.75 1.5465,-5.0875 3.1909,-9.25 3.6542,-9.25 0.4633,0 0.8424,0.3405 0.8424,0.7566 0,2.0297 -5.9519,18.583 -7.0438,19.59 -0.9632,0.8884 -1.13731,0.8087 -0.7576,-0.3466 z m 70.3541,-17.9418 c -1.9104,-2.111 -1.4416,-3.7584 2.9837,-10.4852 l 1.9256,-2.9271 -2.231,0.5834 c -1.7392,0.4549 -2.231,0.1578 -2.231,-1.3477 0,-2.5108 4.3889,-4.279 7.0655,-2.8466 2.6112,1.3975 2.4335,3.9 -0.5655,7.965 -4.2846,5.8075 -3.1082,7.9843 4.3318,8.0153 5.2067,0.022 7.2118,1.526 3.1239,2.3436 -6.4675,1.2935 -12.5526,0.7439 -14.403,-1.3007 z m -8.0216,-15.3082 c 0.8402,-10.3694 3.0161,-18.2502 5.7392,-20.7872 2.9234,-2.7235 8.1774,-2.5894 10.173,0.2597 2.3014,3.2857 1.9001,4.6327 -3.5089,11.7775 -2.7064,3.575 -5.7095,8.075 -6.6736,10 -1.5663,3.1273 -4.876,7 -5.9825,7 -0.2287,0 -0.1149,-3.7125 0.2528,-8.25 z m 10.3416,-9.846 c 5.6607,-5.2737 4.2645,-12.3519 -2.0416,-10.3504 -1.5986,0.5074 -1.86,1.5051 -1.7095,6.5227 0.098,3.258 0.4756,5.9237 0.8395,5.9237 0.364,0 1.6742,-0.9432 2.9116,-2.096 z m -20.4703,11.846 c 0.2712,-1.7875 0.7599,-5.275 1.0859,-7.75 0.8537,-6.4809 2.4495,-12 3.4696,-12 0.4984,0 0.5184,1.4112 0.046,3.25 -1.6521,6.4315 -2.2442,16.75 -0.961,16.75 0.917,0 0.9068,0.3557 -0.043,1.5 -2.2716,2.7371 -4.1404,1.8281 -3.5976,-1.75 z m -40.4024,-5.4121 c 0,-1.8999 3.4818,-11.3379 4.1826,-11.3379 1.39,0 0.9028,4.753 -0.8678,8.4661 -1.4918,3.1282 -3.3148,4.7076 -3.3148,2.8718 z m 17,-2.8027 c 0,-1.4571 2.9005,-3.5352 4.9343,-3.5352 1.8059,0 1.1773,2.8699 -0.8686,3.9648 -2.6875,1.4383 -4.0657,1.2927 -4.0657,-0.4296 z m -1.3812,-5.2852 c 0.6944,-2.9066 2.3831,-5.5815 3.0823,-4.8823 0.5344,0.5344 -2.4129,7.6323 -3.1691,7.6323 -0.3136,0 -0.2745,-1.2375 0.087,-2.75 z m 3.8619,-13 c 0.382,-0.9625 1.5674,-4.5435 2.6341,-7.9578 1.0667,-3.4142 2.4537,-6.5255 3.0823,-6.914 0.7369,-0.4554 0.9334,-0.1605 0.5532,0.8302 -0.3243,0.8451 -1.5448,4.7439 -2.7123,8.664 -1.1675,3.9202 -2.6018,7.1276 -3.1873,7.1276 -0.6119,0 -0.7693,-0.7442 -0.37,-1.75 z m -9.8991,-10 c 0.3408,-1.5125 1.335,-5.1233 2.2092,-8.0241 1.403,-4.6547 1.7633,-5.1004 3.0686,-3.7951 1.3053,1.3053 1.1523,2.2476 -1.3027,8.0241 -2.8211,6.6376 -5.1076,8.8206 -3.9751,3.7951 z m 19.7465,-20.75 c 0.3041,-1.1 1.047,-3.9125 1.6509,-6.25 0.604,-2.3375 1.5065,-4.25 2.0056,-4.25 1.0766,0 -1.7103,10.0538 -3.1878,11.5 -0.6909,0.6763 -0.8426,0.3527 -0.4687,-1 z m 254.1719,-3.6256 c -1.65,-0.5246 -10.65,-2.0878 -20,-3.4738 -14.0926,-2.0891 -18.3656,-3.1362 -24.9852,-6.1226 -6.8577,-3.0938 -9.1232,-3.624 -16.0461,-3.7552 -4.4336,-0.084 -8.6028,-0.4876 -9.2649,-0.8968 -1.5347,-0.9485 -1.5535,-3.2919 -0.034,-4.231 0.7938,-0.4906 0.9582,-0.1713 0.5115,0.9929 -0.3642,0.949 -0.2475,1.462 0.261,1.1477 0.5057,-0.3125 1.1964,-0.12 1.535,0.4279 0.3652,0.5908 2.9411,0.753 6.3306,0.3988 5.7759,-0.6037 6.9133,-0.3138 24.4677,6.2367 2.0767,0.7749 10.6384,2.2799 19.026,3.3445 8.3877,1.0646 16.5054,2.4129 18.0394,2.9961 1.534,0.5832 5.6761,1.0604 9.2046,1.0604 5.4037,0 7.7297,-0.6243 14.747,-3.9583 10.6973,-5.0822 13.208,-7.1228 16.3201,-13.2643 5.5793,-11.0102 7.5909,-33.2224 3.9647,-43.7774 -4.4391,-12.9208 -10.205,-22.8691 -18.7762,-32.3956 -3.5156,-3.9074 -7.5522,-8.6794 -8.9704,-10.6044 -3.6916,-5.0112 -6.8309,-14.2536 -6.8309,-20.1112 0,-9.1825 7.5678,-27.4185 15.516,-37.3888 1.7538,-2.2 3.9238,-5.4277 4.8221,-7.1726 1.5289,-2.97 3.4106,-5.355 13.98,-17.7195 5.586,-6.5346 20.7127,-18.1505 28.316,-21.744 8.0717,-3.8148 23.8793,-8.4336 33.8659,-9.8951 4.4,-0.644 11.375,-2.2203 15.5,-3.503 4.125,-1.2827 11.55,-3.2791 16.5,-4.4365 21.6235,-5.0557 41.5843,-13.2927 56.848,-23.4589 12.7262,-8.4761 29.9338,-25.8819 33.6625,-34.0501 8.5493,-18.7284 10.2355,-38.41389 5.0493,-58.9488 -1.6171,-6.40303 -3.8125,-13.08854 -4.8787,-14.85668 -1.0662,-1.76814 -2.5038,-5.0148 -3.1947,-7.2148 -3.8891,-12.38373 -9.8645,-24.77122 -17.3229,-35.91181 -7.0175,-10.48204 -17.6088,-29.86777 -20.8093,-38.08819 -1.7131,-4.4 -3.2234,-10.25753 -3.3563,-13.01673 -0.1329,-2.7592 -1.1874,-7.2592 -2.3434,-10 -3.7596,-8.91404 -12.8535,-38.61492 -16.6404,-54.34844 -3.8212,-15.87548 -13.0729,-43.74321 -18.3041,-55.13483 -1.6417,-3.575 -3.3244,-7.625 -3.7393,-9 -0.4149,-1.375 -3.4243,-7.9 -6.6875,-14.5 -3.2631,-6.6 -7.2358,-15.48145 -8.828,-19.73655 -3.7966,-10.14617 -9.8589,-19.1873 -20.653,-30.80158 -5.9686,-6.42224 -10.9782,-13.1716 -15.5617,-20.96648 -3.7178,-6.32247 -7.9928,-12.84539 -9.5,-14.49539 -3.4102,-3.73307 -10.9931,-14.65998 -11.9001,-17.14776 -0.3714,-1.01873 -2.6249,-4.44477 -5.0078,-7.61341 -2.3829,-3.16864 -4.3326,-6.17161 -4.3326,-6.67327 0,-0.50166 -1.0125,-2.1877 -2.25,-3.74674 -2.5618,-3.22741 -4.4598,-6.13612 -5.4283,-8.31882 -0.3661,-0.825 -2.3211,-3.975 -4.3445,-7 -6.9267,-10.35557 -12.7583,-22.96166 -16.8849,-36.5 -1.6764,-5.5 -4.0017,-12.7 -5.1673,-16 -6.6001,-18.68573 -10.3353,-46.4342 -9.3553,-69.5 0.5499,-12.94202 0.8989,-15.89704 2.8938,-24.49878 0.7716,-3.3272 2.3714,-15.45439 3.5551,-26.94933 1.1837,-11.49493 3.0461,-24.30908 4.1386,-28.47588 1.0925,-4.16681 2.615,-14.5323 3.3834,-23.03443 1.3717,-15.17839 2.6894,-22.21517 6.5365,-34.90774 1.0613,-3.50139 2.5701,-11.82639 3.3529,-18.5 1.6374,-13.95996 5.099,-31.74137 7.0328,-36.12707 3.3506,-7.59833 6.0424,-19.34761 7.1038,-31.00677 0.3505,-3.85 1.1375,-9.025 1.7489,-11.5 1.9708,-7.97854 0.9673,-33.69827 -2.2824,-58.5 -1.1757,-8.97246 -3.8949,-29.11715 -5.062,-37.5 -0.9008,-6.46997 -2.3576,-23.09119 -3.9442,-45.000003 -0.458,-6.325 -1.0741,-13.3 -1.3692,-15.5 -0.295,-2.2 -0.8061,-6.854715 -1.1357,-10.343812 -0.3297,-3.489097 -1.2618,-10.014097 -2.0715,-14.5 -0.8096,-4.485903 -2.1545,-13.496266 -2.9886,-20.023027 -0.8341,-6.526762 -1.9543,-12.6846781 -2.4892,-13.6842586 -1.4858,-2.7764324 -1.1735,-3.94890204 1.0522,-3.94890204 1.2524,0 2.3961,0.97681254 2.9983,2.56087794 2.5998,6.837757 8.8245,55.0521657 11.0307,85.4391217 2.2682,31.240203 2.9211,38.164983 4.8084,51.000003 1.0918,7.425 2.4845,17.775 3.0948,23 1.09,9.33121 3.0838,42.05712 2.7417,45 -0.096,0.825 0.1726,4.24723 0.5967,7.60495 0.5112,4.04705 0.2463,10.10802 -0.7856,17.98035 -1.68,12.81564 -2.2225,15.22287 -6.1095,27.11006 -3.986,12.18992 -7.1666,26.96388 -7.9236,36.80464 -0.3808,4.95 -2.1811,15.075 -4.0008,22.5 -1.8196,7.425 -3.7799,17.1 -4.3561,21.5 -0.5762,4.4 -1.5517,11.825 -2.1678,16.5 -0.6161,4.675 -1.9451,12.1 -2.9533,16.5 -1.0083,4.4 -2.1286,11.6 -2.4896,16 -1.3364,16.28551 -3.457,32.23639 -5.3843,40.5 -4.5009,19.29864 -3.6128,52.83654 2.039,77 5.9644,25.49962 15.6607,52.76303 22.2282,62.5 1.8549,2.75 6.184,9.5 9.6203,15 3.4363,5.5 7.0496,10.9 8.0296,12 0.98,1.1 3.9857,5.6 6.6795,10 2.6937,4.4 8.301,12.5675 12.4606,18.14999 4.1596,5.5825 9.8421,13.9075 12.6276,18.5 2.7856,4.59251 7.8382,11.05001 11.2281,14.35001 3.3898,3.3 7.9991,8.475 10.2429,11.5 2.2438,3.025 4.3363,5.725 4.6501,6 0.9068,0.79469 7.7967,15.24188 8.5843,18 0.3926,1.375 4.0063,9.27288 8.0304,17.55085 4.0241,8.27797 7.6393,16.33686 8.0338,17.90865 0.3945,1.57179 3.0586,8.0742 5.9203,14.44979 5.8009,12.92372 7.5936,18.42449 13.5546,41.59071 2.2644,8.8 5.2371,20.05 6.606,25 1.3689,4.95 3.1018,11.25 3.8509,14 2.5171,9.24121 18.4855,48.67119 20.4515,50.5 0.2956,0.275 0.6854,1.35578 0.8662,2.40172 0.4804,2.77952 8.201,20.67572 10.1806,23.59828 0.9313,1.375 2.4939,4.63111 3.4724,7.23581 2.5724,6.84715 4.4147,8.0244 3.7826,2.41712 -0.3009,-2.67024 -0.058,-4.66256 0.6203,-5.08163 0.699,-0.43196 1.1154,0.18303 1.1154,1.64718 0,1.28508 0.6196,3.22414 1.3768,4.30901 1.7313,2.48032 7.9168,17.65012 9.3671,22.97251 0.5995,2.2 1.3782,6.475 1.7305,9.5 0.9299,7.98444 3.4067,20.38716 5.7913,29 3.1578,11.40571 2.7885,24.32265 -1.1246,39.32888 -4.4815,17.186 -7.6843,22.0512 -25.0716,38.0859 -7.0514,6.5028 -12.5368,10.339 -24.5029,17.136 -13.5088,7.6732 -23.5367,11.5505 -45.4551,17.5755 -10.2363,2.8138 -21.5365,5.9336 -25.1115,6.9328 -3.575,0.9992 -10.1,2.2761 -14.5,2.8374 -16.2901,2.0784 -31.9492,8.3253 -43,17.1541 -9.2601,7.3982 -22.2135,21.6566 -27.2929,30.0425 -1.1969,1.9762 -3.5629,5.3379 -5.2576,7.4705 -4.3393,5.4603 -11.642,20.7215 -13.6314,28.487 -1.6716,6.525 -1.6678,6.5838 0.9858,15.0949 2.4111,7.7333 3.3543,9.2949 9.9357,16.4495 13.9364,15.1503 19.9089,24.8567 24.2463,39.405 3.2667,10.9571 1.3884,30.0481 -4.0973,41.6439 -3.7848,8.0005 -10.4223,12.9564 -24.5379,18.3214 -5.7234,2.1754 -15.0561,2.5923 -20.3507,0.9091 z m 225.6221,-378.54938 c -1.1789,-2.02721 -1.4635,-1.37835 -0.4986,1.13634 0.343,0.8937 0.8342,1.41426 1.0917,1.15679 0.2575,-0.25747 -0.01,-1.28938 -0.5931,-2.29313 z m -489.7225,369.21908 c 1.1553,-4.6031 2.5492,-7.5441 3.5756,-7.5441 1.5079,0 1.2472,3.6693 -0.5009,7.0497 -1.8688,3.6139 -3.9413,3.9471 -3.0747,0.4944 z m 18.6004,-16.1949 c 0,-2.0081 2.2006,-7.3492 3.028,-7.3492 1.0226,0 -0.6052,5.9772 -2.0105,7.3825 -0.69,0.69 -1.0175,0.6793 -1.0175,-0.033 z m -7,-19.2 c 0,-4.155 1.9743,-9.1492 3.6169,-9.1492 1.5662,0 1.1384,2.893 -1.294,8.75 -1.662,4.002 -2.3229,4.1155 -2.3229,0.3992 z m 13.4481,-2.5274 c 0.79,-4.4364 7.1669,-23.5951 8.1589,-24.5128 1.1467,-1.0608 -0.6761,7.0525 -3.7949,16.891 -3.2463,10.2411 -5.5456,14.2568 -4.364,7.6218 z m -628.44811,-2.264 c 0,-0.5365 0.69982,-1.849 1.55517,-2.9167 1.46637,-1.8303 1.48719,-1.7984 0.36454,0.5589 -1.45781,3.061 -1.91971,3.6283 -1.91971,2.3578 z m 3.03063,-6.8578 c 0,-0.55 0.43621,-1.675 0.96937,-2.5 0.53316,-0.825 0.96937,-1.05 0.96937,-0.5 0,0.55 -0.43621,1.675 -0.96937,2.5 -0.53316,0.825 -0.96937,1.05 -0.96937,0.5 z m 2,-5 c 0,-0.55 0.43621,-1.675 0.96937,-2.5 0.53316,-0.825 0.96937,-1.05 0.96937,-0.5 0,0.55 -0.43621,1.675 -0.96937,2.5 -0.53316,0.825 -0.96937,1.05 -0.96937,0.5 z m 4.54258,-10.5 c 0.3678,-1.375 1.08577,-3.175 1.5955,-4 0.64411,-1.0425 0.72283,-0.7375 0.25808,1 -0.3678,1.375 -1.08577,3.175 -1.5955,4 -0.64411,1.0425 -0.72283,0.7375 -0.25808,-1 z m 615.5126,-4 c -0.083,-3.7528 2.4235,-11.3364 3.9111,-11.8323 1.6875,-0.5625 0.893,3.6467 -1.8559,9.8323 -1.6363,3.6823 -2.0098,4.0457 -2.0552,2 z m -612.01494,-5.5 c 0,-0.55 0.64311,-2.125 1.42913,-3.5 0.78602,-1.375 1.42913,-2.05 1.42913,-1.5 0,0.55 -0.64311,2.125 -1.42913,3.5 -0.78602,1.375 -1.42913,2.05 -1.42913,1.5 z m 2.95976,-7 c 0,-0.55 0.43621,-1.675 0.96937,-2.5 0.53316,-0.825 0.96937,-1.05 0.96937,-0.5 0,0.55 -0.43621,1.675 -0.96937,2.5 -0.53316,0.825 -0.96937,1.05 -0.96937,0.5 z m 625.21318,-0.5477 c 0.296,-0.8512 1.5309,-5.1262 2.7442,-9.5 2.2518,-8.117 4.012,-11.5513 4.012,-7.8275 0,2.7744 -4.7598,16.5578 -6.16,17.838 -0.8136,0.7439 -0.9822,0.5995 -0.5962,-0.5105 z m -621.65571,-7.9523 c 0.36365,-1.375 1.29653,-3.625 2.07307,-5 l 1.4119,-2.5 -0.66117,2.5 c -0.36365,1.375 -1.29653,3.625 -2.07307,5 l -1.4119,2.5 z m 614.98331,-10.0312 c 1.093,-6.2263 3.4332,-13.8536 4.4417,-14.4769 1.6724,-1.0336 1.0982,4.1298 -1.1366,10.2206 -2.5829,7.0396 -4.1474,9.0543 -3.3051,4.2563 z m 176.4286,-0.6769 c -3.0164,-1.549 -3.4781,-2.2598 -3.3417,-5.1442 0.098,-2.0807 1.1387,-4.3701 2.75,-6.052 1.4254,-1.4878 2.5917,-3.018 2.5917,-3.4004 0,-1.0536 -3.7975,-0.8319 -4.473,0.261 -1.0269,1.6615 -3.7222,-0.1018 -3.2012,-2.0942 0.5125,-1.9596 -0.1357,-2.256 -2.744,-1.2551 -1.0047,0.3855 -1.5818,1.8233 -1.5818,3.941 0,6.1537 -3.444,5.3158 -4.3075,-1.048 -2.4216,-17.8447 -1.6678,-23.5044 3.589,-26.9488 4.4218,-2.8973 10.1414,1.0472 11.7825,8.1257 0.7299,3.1486 0.4764,4.6615 -1.4371,8.5754 l -2.3234,4.7523 3.7318,1.0049 c 6.8618,1.8477 7.2835,4.4034 1.8419,11.1624 -3.3877,4.2079 -1.9887,5.8281 5.0324,5.8281 3.2848,0 6.269,0.4799 6.6315,1.0665 0.938,1.5177 0.5912,1.6668 -5.5411,2.3816 -4.2632,0.497 -6.2871,0.237 -9,-1.1562 z m -4.0726,-25.9268 c 2.461,-3.1286 2.6319,-6.3828 0.5469,-10.4148 -1.8748,-3.6254 -4.7616,-3.8098 -6.3138,-0.4032 -1.737,3.8124 -1.4139,6.1534 0.9341,6.7674 1.758,0.4597 1.9862,1.0409 1.4205,3.6166 -0.8366,3.8092 0.6124,3.9935 3.4123,0.434 z m -53.6826,20.3849 c -2.2215,-2.7767 -2.327,-5.7757 -0.3598,-10.2229 1.1014,-2.4899 2.526,-4.5271 3.1658,-4.5271 0.7156,0 0.886,0.6734 0.4427,1.75 -1.7388,4.2236 -1.6492,5.3034 0.5905,7.117 2.2427,1.8159 2.2612,1.9571 0.5926,4.5039 -1.9119,2.9179 -2.9438,3.239 -4.4318,1.3791 z m -726.73714,-1.75 c 1.13612,-3.7564 6.73049,-16.0952 7.12063,-15.705 0.38175,0.3817 -6.44094,16.874 -7.31634,17.6855 -0.30823,0.2857 -0.22016,-0.6055 0.19571,-1.9805 z m 748.24234,-5.0228 c -2.1722,-1.3363 -2.2776,-5.2945 -0.1871,-7.0294 1.3691,-1.1363 1.4799,-0.9667 0.8939,1.3683 -0.4919,1.9599 -0.2419,2.8291 0.9447,3.2845 2.107,0.8085 7.7739,-0.2771 10.0203,-1.9198 1.6344,-1.1951 1.419,-1.704 -2.8263,-6.6775 -5.9816,-7.0077 -5.9649,-9.1789 0.1003,-13.0253 6.6728,-4.2318 10.3264,-3.774 8.7795,1.1 -0.6116,1.9267 -0.7363,1.9474 -1.9272,0.3187 -1.204,-1.6466 -1.4576,-1.6341 -4.6607,0.2299 -4.9506,2.8809 -4.9309,5.9486 0.07,10.8316 4.7086,4.5979 5.1834,7.7484 1.5284,10.1432 -3.1092,2.0372 -10.3831,2.823 -12.7356,1.3758 z m -122.3811,-5.7272 c 1.7664,-6.1378 7.0223,-22.8215 7.2981,-23.1667 1.9224,-2.4054 -1.8653,12.7375 -5.5445,22.1667 -1.1766,3.0156 -2.5609,3.805 -1.7536,1 z m -618.36891,-6.5728 c 0,-1.2477 5.24847,-13.7621 5.61713,-13.3934 0.20347,0.2035 -0.74549,3.2162 -2.1088,6.695 -2.33467,5.9573 -3.50833,8.1982 -3.50833,6.6984 z m 610.00001,-5.9991 c 0,-3.1808 2.9789,-11.6781 4.094,-11.6781 1.2912,0 1.1612,0.856 -1.1858,7.8058 -2.2474,6.6548 -2.9082,7.5347 -2.9082,3.8723 z m 114,-0.4839 c 0,-0.4432 0.9571,-3.6399 2.1268,-7.1038 1.3189,-3.9052 2.4169,-5.8287 2.8902,-5.063 0.8892,1.4388 -2.7639,12.9726 -4.1088,12.9726 -0.4995,0 -0.9082,-0.3626 -0.9082,-0.8058 z m -92.4357,-29.908 c 0.8197,-2.6324 1.7612,-6.0331 2.0922,-7.557 0.5309,-2.4442 2.3435,-4.9142 2.3435,-3.1935 0,1.7676 -4.3075,14.5363 -5.0609,15.0019 -0.4759,0.2941 -0.1945,-1.619 0.6252,-4.2514 z m -12.5675,2.4638 c 0,-1.3039 4.1018,-15.9391 4.675,-16.6667 0.1805,-0.2291 0.5821,-0.1627 0.8924,0.1476 0.5624,0.5624 -4.4557,17.7691 -5.1821,17.7691 -0.2101,0 -0.3835,-0.5625 -0.3853,-1.25 z m 210.4626,-11 c 0.3083,-3.4375 0.8275,-8.8564 1.1537,-12.0421 l 0.593,-5.792 -4.853,0.631 c -2.6692,0.3471 -5.512,1.266 -6.3174,2.0421 -1.2706,1.2244 -0.9809,1.411 2.191,1.411 2.0104,0 3.9232,0.4336 4.2508,0.9635 0.8741,1.4145 -2.7414,4.6409 -6.8761,6.136 -4.412,1.5954 -4.5486,2.4611 -0.5155,3.2677 3.5758,0.7151 3.4615,2.4517 -0.3008,4.5733 -2.2681,1.2789 -2.848,1.2483 -5.1699,-0.273 -3.8914,-2.5498 -3.5898,-9.2216 0.7761,-17.1675 3.0439,-5.5399 3.5894,-6.0245 7.1126,-6.3199 2.5785,-0.2162 4.6556,0.2982 6.4059,1.5864 2.5776,1.8971 2.6024,1.8945 5.0902,-0.5333 3.6652,-3.5769 8.6544,-5.4647 12.3536,-4.6744 7.2743,1.554 7.8727,5.4412 0.8375,5.4412 -6.0656,0 -7.9589,1.4349 -8.769,6.6461 -0.6212,3.9964 -0.5351,4.1702 2.3832,4.8111 3.033,0.6662 4.9469,3.2154 3.4775,4.6317 -0.4305,0.415 -2.3207,1.1463 -4.2005,1.625 -3.4272,0.873 -3.9419,1.438 -5.954,6.5361 -0.597,1.5125 -1.7928,2.75 -2.6574,2.75 -1.3215,0 -1.4827,-0.9962 -1.0115,-6.25 z m -40.9448,3.2736 c -0.3912,-0.6329 -0.4215,-5.2846 -0.067,-10.3372 0.9836,-14.0345 4.1334,-18.6374 12.777,-18.6717 3.1181,-0.012 3.9722,0.4645 5.2466,2.9291 1.8117,3.5034 0.9788,6.405 -2.8648,9.9805 -3.3327,3.1002 -3.2771,4.1473 0.3939,7.4181 2.7021,2.4076 4.0423,5.6576 2.333,5.6576 -0.3668,0 -3.5323,-1.575 -7.0344,-3.5 -3.5021,-1.925 -6.5184,-3.5 -6.703,-3.5 -0.1845,0 -0.5682,2.0641 -0.8525,4.587 -0.5552,4.9253 -2.02,7.392 -3.2285,5.4366 z m 14.8824,-21.3417 c 1.6388,-2.673 -1.6495,-4.9166 -5.2177,-3.56 -4.2201,1.6045 -5.1793,2.8956 -5.1793,6.9713 l 0,3.8484 4.647,-2.7303 c 2.5558,-1.5017 5.1433,-3.5399 5.75,-4.5294 z m -785.83272,19.025 c 0.37553,-0.9862 0.93469,-1.5412 1.24258,-1.2334 0.30789,0.3079 6.4e-4,1.1148 -0.68278,1.7932 -0.98762,0.9802 -1.10248,0.8654 -0.5598,-0.5598 z M 759.80393,423.35313 c 0.29158,-1.115 1.35399,-2.77285 2.36091,-3.68409 1.7211,-1.55758 1.799,-1.53539 1.30061,0.37047 -0.29158,1.115 -1.35399,2.77285 -2.36091,3.68409 -1.7211,1.55758 -1.799,1.53539 -1.30061,-0.37047 z m -584.39841,-2.76098 c 0.33229,-0.33229 1.19479,-0.36781 1.91667,-0.0789 0.79773,0.31922 0.56078,0.55618 -0.60417,0.60416 -1.05416,0.0434 -1.64479,-0.19293 -1.3125,-0.52522 z m -19.52083,-1.11208 c -4.52133,-0.68493 -3.10668,-2.13967 1.5,-1.54252 6.12086,0.79342 9.28875,2.15765 4.75,2.04555 -1.925,-0.0475 -4.7375,-0.27391 -6.25,-0.50303 z m -26.25,-2.84419 c -1.1,-0.15844 -7.9625,-0.82832 -15.25,-1.48862 -7.2875,-0.66031 -13.25,-1.63015 -13.25,-2.1552 0,-0.52506 1.2375,-0.71342 2.75,-0.41858 1.5125,0.29483 6.8,0.80848 11.75,1.14145 11.4664,0.77128 22.49842,2.14648 23.25019,2.89825 0.57321,0.5732 -5.32768,0.58769 -9.25019,0.0227 z m -33.499996,-3.43956 -3.5,-0.73672 3.75,-0.13164 c 2.0625,-0.0724 3.749996,0.31836 3.749996,0.86836 0,0.55 -0.1125,0.94076 -0.249996,0.86836 -0.1375,-0.0724 -1.825,-0.46317 -3.75,-0.86836 z m -14.61303,-1.7203 c 0.71783,-0.71783 7.73764,-0.45983 8.5297,0.31349 0.22916,0.22375 -1.75834,0.40681 -4.41667,0.40681 -2.65833,0 -4.5092,-0.32414 -4.11303,-0.7203 z m -4.63697,-0.94198 c 0.6875,-0.27741 1.8125,-0.27741 2.5,0 0.6875,0.27741 0.125,0.50439 -1.25,0.50439 -1.375,0 -1.9375,-0.22698 -1.25,-0.50439 z m 688.864646,-1.83772 c 0.83718,-3.77093 3.36243,-8.85626 4.05425,-8.16444 0.93411,0.93412 -0.69619,6.10421 -2.73218,8.66444 l -1.9881,2.5 z m -421.61465,-9.94098 c 0,-0.85746 0.45,-1.55902 1,-1.55902 0.55,0 1,0.42344 1,0.94098 0,0.51754 -0.45,1.2191 -1,1.55902 -0.55,0.33992 -1,-0.0835 -1,-0.94098 z m 42,-0.059 c 0,-0.825 0.45,-1.5 1,-1.5 0.55,0 1,0.675 1,1.5 0,0.825 -0.45,1.5 -1,1.5 -0.55,0 -1,-0.675 -1,-1.5 z m 384,-0.40706 c 0,-0.5638 0.62958,-2.50285 1.39906,-4.30901 0.76948,-1.80616 2.18782,-5.19643 3.15187,-7.53393 0.96405,-2.3375 2.13448,-4.25 2.60094,-4.25 1.07346,0 1.06906,0.0678 -0.2497,3.85078 -0.6038,1.73207 -1.40556,3.14922 -1.78168,3.14922 -0.37612,0 -1.28327,2.03006 -2.01587,4.51125 -1.23541,4.18403 -3.10462,6.94255 -3.10462,4.58167 z m 9.55694,-22.09296 c 0.35417,-1.925 1.26847,-4.15366 2.03179,-4.95258 1.19077,-1.2463 1.26043,-1.00826 0.49051,1.67627 -0.49353,1.72087 -1.40784,3.94953 -2.03178,4.95258 -0.92654,1.4895 -1.01644,1.18229 -0.49052,-1.67627 z m 3.69393,-10.75 c 0.65318,-1.7875 1.53895,-3.25 1.96837,-3.25 1.34244,0 0.85916,1.68441 -1.1876,4.13922 l -1.96837,2.36078 z m 3.79105,-9 c 0.0621,-1.11164 3.86718,-7.88184 3.91616,-6.96788 0.0662,1.23509 -2.79563,7.71788 -3.40705,7.71788 -0.30307,0 -0.53217,-0.3375 -0.50911,-0.75 z m 12.18481,-32 c 0.84519,-0.9625 1.87114,-2.84405 2.27989,-4.18122 0.95802,-3.134 4.48475,-8.93488 4.48964,-7.38469 0.009,2.78389 -5.3553,13.31591 -6.78196,13.31591 -1.36096,0 -1.35963,-0.1875 0.0124,-1.75 z m 7.77327,-15.69098 c 0,-0.79254 0.40803,-1.69316 0.90674,-2.00138 0.49871,-0.30822 0.67122,0.34022 0.38337,1.44098 -0.61061,2.33499 -1.29011,2.63015 -1.29011,0.5604 z m 3.46624,-9.05902 c 0.39178,-1.1 0.89509,-2.95262 1.11847,-4.11693 0.61224,-3.19115 3.25592,-9.16654 4.35646,-9.84671 0.53432,-0.33023 0.77412,-1.1485 0.5329,-1.81839 -0.24122,-0.66988 0.44342,-2.34297 1.52144,-3.71797 2.66668,-3.40134 2.50268,-0.97006 -0.3583,5.31193 -1.29953,2.85344 -2.95464,6.76307 -3.67801,8.68807 -0.72338,1.925 -1.9655,4.4 -2.76026,5.5 -1.44503,2 -1.44503,2 -0.7327,0 z m 451.98917,-21.82188 c -0.6066,-2.41657 11.3328,-28.31116 13.7393,-29.79847 1.9069,-1.17853 3.7285,2.83449 3.7699,8.30525 0.019,2.5767 0.5581,5.9517 1.1969,7.5 0.6388,1.54831 1.0336,3.2651 0.8774,3.8151 -0.1563,0.55 -0.5665,3.475 -0.9115,6.5 -0.744,6.52196 -2.4994,7.2696 -2.9349,1.25 -0.3056,-4.22346 -0.3319,-4.25 -4.2201,-4.25 -3.5137,0 -4.1452,0.40615 -6.1925,3.98282 -2.7541,4.81119 -4.5636,5.72718 -5.3245,2.6953 z m -38.1564,-1.18122 c -2.6142,-1.83107 -4.6754,-7.64226 -3.8063,-10.7312 1.456,-5.17455 4.9856,-10.81536 8.5699,-13.69578 4.5098,-3.62417 5.4954,-3.76423 6.9792,-0.99178 1.313,2.45327 0.6074,4.92186 -1.4068,4.92186 -1.7628,0 -7.4275,6.32393 -8.7275,9.74317 -2.5454,6.69512 2.704,8.12737 12.3006,3.35609 l 5.7081,-2.83798 -1.3557,2.62172 c -1.8201,3.51967 -4.3918,5.73073 -8.815,7.57886 -4.6178,1.92947 -6.7306,1.9373 -9.4465,0.035 z m 24.9423,-0.86658 c -1.1644,-2.55568 -1.9403,-7.51395 -2.7197,-17.38032 -0.3699,-4.68266 -0.1712,-6.25 0.7924,-6.25 2.3624,0 3.686,2.36103 3.686,6.575 0,5.08143 0.9984,10.425 1.9477,10.425 0.7803,0 4.028,-6.28651 6.5869,-12.75 2.1677,-5.47531 4.4654,-5.64973 4.4654,-0.33898 0,5.40482 -3.7411,14.67203 -7.5558,18.71679 -3.7497,3.97587 -5.723,4.25051 -7.2029,1.00251 z m -429.24131,-0.43032 c 0,-1.21 0.34015,-2.2 0.75589,-2.2 0.879,0 2.17866,-3.12676 4.78006,-11.5 2.08037,-6.69616 6.65791,-18.78213 9.55927,-25.2391 1.04763,-2.33151 1.90388,-4.58151 1.90278,-5 -10e-4,-0.4185 1.76961,-5.0359 3.9349,-10.2609 2.1653,-5.225 5.26405,-12.875 6.88612,-17 1.62207,-4.125 4.0866,-9.975 5.47674,-13 1.39015,-3.025 4.36388,-10.33276 6.6083,-16.23947 2.24442,-5.9067 4.98418,-12.42504 6.08835,-14.48519 1.10418,-2.06015 2.00759,-4.31489 2.00759,-5.01053 0,-0.69565 0.375,-1.26481 0.83333,-1.26481 0.45834,0 0.83858,-0.5625 0.84499,-1.25 0.0211,-2.26407 8.60938,-24.17353 10.93262,-27.89014 1.2515,-2.00208 2.0447,-3.87088 1.76268,-4.1529 -0.28201,-0.28202 0.3756,-2.69396 1.46138,-5.35986 1.08577,-2.66591 2.2479,-5.5221 2.5825,-6.3471 0.3346,-0.825 1.66432,-3.36371 2.95493,-5.64158 1.2906,-2.27787 3.14679,-6.813058 4.12485,-10.078197 1.73233,-5.783144 4.03419,-10.082087 4.9227,-9.193581 0.24235,0.242353 -2.72952,8.309503 -6.60417,17.926998 -7.9457,19.72251 -9.24767,23.01953 -13.81581,34.98636 -1.7846,4.675 -4.03289,10.525 -4.99619,13 -2.88839,7.42116 -22.53108,55.68154 -27.4735,67.5 -2.53007,6.05 -6.62959,16.175 -9.11004,22.5 -5.81716,14.83339 -14.54652,35.22986 -15.60002,36.45 -0.46632,0.54008 -0.82025,7.2e-4 -0.82025,-1.25 z m 11.29326,-133.13535 c -0.87815,-2.23556 -2.20338,-4.06465 -2.94495,-4.06465 -1.52517,0 -1.58936,-0.20827 -0.74353,-2.41247 0.33264,-0.86682 1.00764,-1.32707 1.5,-1.02277 0.50439,0.31172 0.89522,-3.8557 0.89522,-9.54558 0,-10.99946 2.00529,-17.25131 5.93325,-18.49799 2.18047,-0.69206 6.9433,1.42021 9.12218,4.0456 1.3012,1.56785 1.45299,1.51558 1.97101,-0.67881 0.7131,-3.02072 3.12115,-3.49261 6.50582,-1.27489 1.45797,0.9553 3.80103,1.85954 5.2068,2.00942 3.23156,0.34454 4.44201,1.55473 4.528,4.52702 0.0885,3.05901 -2.11119,17.78924 -2.83023,18.95268 -0.93114,1.50662 -2.26772,1.00598 -2.93606,-1.09977 -0.5949,-1.87438 -0.78457,-1.81862 -3.07568,0.90421 -1.66161,1.97472 -3.0674,2.73814 -4.40026,2.38959 -2.16786,-0.56691 -2.60094,-1.60035 -3.58141,-8.54624 -0.36878,-2.6125 -1.04651,-4.75 -1.50607,-4.75 -1.94661,0 -5.74361,6.83435 -6.38911,11.5 -1.09308,7.90067 -1.64876,9.48343 -3.71832,10.59102 -1.69724,0.90834 -2.13983,0.52961 -3.53666,-3.02637 z M 339.52252,108.85349 c -3.50731,-3.01685 -3.45416,-7.92731 0.15761,-14.563325 2.79417,-5.133821 11.99141,-15.093848 13.93788,-15.093848 2.45736,0 2.04821,1.116233 -2.00419,5.467841 -4.94684,5.312069 -10.47913,15.271787 -10.47913,18.865432 0,4.80828 6.01221,6.95284 12.82953,4.57631 4.50382,-1.57004 6.27451,-0.54552 2.47013,1.42922 -4.93943,2.56391 -13.54176,2.21719 -16.91183,-0.68163 z m 47.93315,0.59283 c -0.33894,-0.9625 -1.24249,-3.30974 -2.00788,-5.21608 -1.40798,-3.50685 -0.98373,-15.031545 0.71909,-19.533923 2.50008,-6.610405 10.15059,-8.92237 13.3528,-4.035183 2.91653,4.45118 1.93767,8.113788 -3.91981,14.66686 -2.88532,3.227961 -3.19058,4.124944 -2.74604,8.068936 0.37364,3.31487 0.0749,4.86246 -1.18093,6.11832 -2.15146,2.15146 -3.44277,2.13035 -4.21723,-0.0689 z m 7.13792,-22.490097 c 0.7493,-1.782051 1.10587,-3.6551 0.79239,-4.162331 -0.79214,-1.281713 -4.25129,3.20422 -4.25129,5.513209 0,2.974694 1.96239,2.208281 3.4589,-1.350878 z m -26.47683,15.990097 c -2.66113,-5.890058 -4.53612,-14.595952 -3.39031,-15.741759 1.63266,-1.632665 3.44795,0.522416 4.69439,5.573114 0.66762,2.705253 1.66385,4.883955 2.21385,4.84156 0.55,-0.04239 1.69517,-1.958996 2.54483,-4.259115 1.82139,-4.930709 4.53619,-8.012911 5.83172,-6.620946 1.14553,1.230807 -1.98654,14.449876 -4.23776,17.885676 -2.58016,3.93781 -5.39839,3.31999 -7.65672,-1.67853 z m 987.95674,-4.750003 c -0.05,-0.275 -0.2316,-1.2125 -0.4024,-2.083333 -0.1708,-0.870834 0.3137,-1.583334 1.0765,-1.583334 0.7629,0 1.3802,0.2625 1.3718,0.583334 -0.021,0.81457 -1.9334,3.696084 -2.0459,3.083333 z m -457.93881,-16.5 c 0,-0.825 0.45,-1.5 1,-1.5 0.55,0 1,0.675 1,1.5 0,0.825 -0.45,1.5 -1,1.5 -0.55,0 -1,-0.675 -1,-1.5 z"
     id="path3079"
     style="fill:#000000" />
</svg>
