<?xml version="1.0" encoding="UTF-8" standalone="no"?>
<!-- Created with Inkscape (http://www.inkscape.org/) -->

<svg
   xmlns:dc="http://purl.org/dc/elements/1.1/"
   xmlns:cc="http://creativecommons.org/ns#"
   xmlns:rdf="http://www.w3.org/1999/02/22-rdf-syntax-ns#"
   xmlns:svg="http://www.w3.org/2000/svg"
   xmlns="http://www.w3.org/2000/svg"
   version="1.1"
   width="1565.6573"
   height="1671.9019"
   id="svg3027">
  <metadata
     id="metadata3033">
    <rdf:RDF>
      <cc:Work
         rdf:about="">
        <dc:format>image/svg+xml</dc:format>
        <dc:type
           rdf:resource="http://purl.org/dc/dcmitype/StillImage" />
        <dc:title></dc:title>
      </cc:Work>
    </rdf:RDF>
  </metadata>
  <defs
     id="defs3031" />
  <path
     d="m 557,1671.6169 c 0,-0.5331 4.5709,-8.3701 12.42422,-21.3017 8.60812,-14.1746 20.69679,-27.9856 32.22405,-36.8152 1.43607,-1.1 6.71519,-5.5959 11.73138,-9.9909 5.01619,-4.395 9.57035,-8.345 10.12035,-8.7777 6.49846,-5.1129 13.7596,-10.4639 16.98371,-12.516 5.65277,-3.5979 33.95818,-13.8478 40.51629,-14.6716 12.99803,-1.6329 32.12744,-4.7708 40,-6.5614 11.75982,-2.6747 50.5191,-4.6852 60.03334,-3.114 8.59655,1.4197 49.85885,1.4859 57.08017,0.092 7.1371,-1.3781 27.37309,-1.308 42.88649,0.1486 11.55289,1.0847 13.29557,1.0116 23,-0.9648 7.84522,-1.5977 13.68463,-2.1 23.09562,-1.9866 6.92759,0.083 13.11352,-0.1684 13.74651,-0.5596 2.48136,-1.5336 31.87666,-3.2551 39.79599,-2.3306 5.05145,0.5897 11.43663,0.5459 17.86188,-0.1225 9.0989,-0.9465 10.9973,-1.5356 21.067,-6.5375 16.4226,-8.1575 24.9023,-13.2748 30.7209,-18.5393 2.8667,-2.5937 7.9121,-6.6872 11.2121,-9.0968 3.3,-2.4095 8.25,-6.5942 11,-9.2993 2.75,-2.7051 8.2584,-7.3746 12.2408,-10.3766 7.016,-5.2888 12.2962,-11.7153 22.4262,-27.295 16.7831,-25.812 16.6776,-25.5956 21.7078,-44.5223 0.588,-2.2122 2.8846,-6.9372 5.1036,-10.5 9.8447,-15.8062 13.0735,-23.8722 18.6047,-46.4777 3.5798,-14.6303 4.5012,-39.2776 1.9812,-53 -3.7326,-20.3267 -7.4125,-29.7237 -18.0444,-46.0787 -5.5567,-8.5478 -6.964,-12.0065 -7.9978,-19.6551 -0.5424,-4.0134 -0.1708,-5.7164 2.4426,-11.1921 1.8766,-3.9323 4.7081,-7.8501 7.2388,-10.0163 5.6241,-4.814 7.0609,-4.7952 36.1471,0.4746 2.6678,0.4834 6.4192,1.3966 8.3365,2.0294 2.3644,0.7803 8.1603,0.9512 18.0136,0.5312 16.0777,-0.6854 16.5555,-0.8564 25.0648,-8.9718 5.7796,-5.5121 7.5914,-9.3662 10.1852,-21.6663 1.965,-9.319 2.1077,-11.7273 1.2858,-21.712 -0.8309,-10.0929 -1.3019,-11.9509 -4.6506,-18.3434 -4.1638,-7.9485 -2.7601,-9.003 1.7637,-1.3249 4.4852,7.6126 5.7175,12.0873 6.3528,23.0693 0.64,11.0613 -1.4411,25.2511 -4.8188,32.8561 -2.2259,5.0119 -9.0829,12.479 -14.5627,15.8583 -3.779,2.3305 -5.5022,2.6382 -18,3.2135 -7.6015,0.35 -13.9725,0.7786 -14.1578,0.9525 -0.1854,0.174 -2.6604,-0.3754 -5.5,-1.2207 -2.8397,-0.8454 -7.4131,-1.8973 -10.1631,-2.3376 -2.75,-0.4403 -9.5,-1.536 -15,-2.4347 -5.5,-0.8988 -11.4493,-1.3681 -13.2206,-1.0429 -4.635,0.8509 -8.68,4.6908 -11.2608,10.6899 -2.0294,4.7175 -2.1453,5.8414 -1.1942,11.5809 0.5793,3.496 2.2159,8.2428 3.6369,10.5486 1.4209,2.3057 4.8573,7.7922 7.6364,12.1922 6.7069,10.6189 9.2573,16.3622 12.4182,27.9651 5.8542,21.4887 6.5516,44.711 1.9913,66.3096 -4.7276,22.391 -8.1084,31.2745 -18.7338,49.2253 -2.8402,4.7984 -5.3574,10.922 -6.9881,17 -3.2058,11.9491 -6.4351,19.5075 -10.5596,24.715 -1.7741,2.2401 -3.2257,4.3548 -3.2257,4.6994 0,1.139 -16.1798,24.9926 -20.304,29.9337 -2.2255,2.6664 -5.8801,5.9997 -8.1212,7.4072 -2.2412,1.4076 -7.2248,5.5616 -11.0748,9.2311 -3.85,3.6695 -9.9217,8.8841 -13.4927,11.588 -3.571,2.7038 -8.7097,6.885 -11.4193,9.2916 -6.6312,5.8894 -12.7898,9.7242 -28.6865,17.8625 -13.1449,6.7295 -13.6217,6.8844 -24.9015,8.0919 -7.54622,0.8078 -14.0639,0.9365 -18.95737,0.3743 -7.89392,-0.9069 -21.27275,-0.082 -37.04263,2.2844 -5.98919,0.8986 -12.84359,1.2115 -18.54753,0.8467 -7.1687,-0.4586 -11.22683,-0.1192 -19.54196,1.6342 -9.57496,2.0191 -11.71734,2.1307 -24.45246,1.2739 -15.72715,-1.0581 -25.56084,-0.9708 -63.45805,0.5632 -22.66537,0.9175 -27.87468,0.8507 -36,-0.4616 -6.62546,-1.07 -12.07196,-1.3209 -18,-0.8292 -4.675,0.3878 -14.575,1.0209 -22,1.4068 -7.425,0.3859 -22.05,2.1125 -32.5,3.8368 -10.45,1.7243 -23.5,3.8079 -29,4.6301 -10.02003,1.4981 -24.15892,6.3902 -36.55866,12.6496 -6.61243,3.338 -16.63907,11.1041 -33.44134,25.9019 -22.59057,19.8957 -28.25611,26.4893 -41.07545,47.8041 -6.4359,10.701 -7.36239,11.7927 -10.25,12.0778 -1.746,0.1723 -3.17455,0.084 -3.17455,-0.1965 z m -228.26879,-75.5367 c -0.43497,-1.6634 -0.30483,-2.0538 0.43724,-1.3118 0.5811,0.5812 0.85979,1.6469 0.61931,2.3683 -0.24965,0.749 -0.70294,0.2957 -1.05655,-1.0565 z m 697.31659,-70.5226 c -0.9949,-1.1988 -0.8998,-3.1403 0.479,-9.7767 0.9462,-4.5545 1.8457,-9.1809 1.9988,-10.2809 0.2339,-1.6805 1.4998,-7.2268 4.1083,-18 0.2664,-1.1 0.7219,-3.3149 1.0123,-4.9219 0.2904,-1.607 2.5269,-12.857 4.97,-25 2.443,-12.143 4.6242,-23.2031 4.847,-24.5781 0.2228,-1.375 1.5734,-7.9 3.0014,-14.5 1.4279,-6.6 3.9138,-18.75 5.5241,-27 2.9591,-15.1596 4.4113,-22.2088 9.9913,-48.5 1.6927,-7.975 4.4314,-21.25 6.0861,-29.5 1.6547,-8.25 3.6645,-17.3114 4.4661,-20.1364 0.8017,-2.825 1.7022,-7.1 2.0011,-9.5 0.2989,-2.4 1.6285,-8.8636 2.9547,-14.3636 1.3262,-5.5 2.9122,-12.925 3.5244,-16.5 0.6122,-3.575 1.5058,-8.075 1.9857,-10 0.48,-1.925 1.8502,-8.45 3.045,-14.5 1.1949,-6.05 2.7758,-13.025 3.5133,-15.5 0.7374,-2.475 1.5849,-6.8724 1.8833,-9.7719 0.2984,-2.8996 0.977,-7.1746 1.5079,-9.5 3.0346,-13.2907 5.2954,-23.474 5.6008,-25.2281 2.4849,-14.2682 3.8298,-21.1532 6.4462,-33 3.9302,-17.7961 8.5899,-40.1556 11.0451,-53 1.0514,-5.5 2.5905,-12.25 3.4204,-15 0.8299,-2.75 1.7425,-6.958 2.0279,-9.3512 0.2855,-2.3932 0.739,-4.7071 1.0078,-5.1421 0.2689,-0.4349 0.6983,-2.3019 0.9543,-4.1488 0.5738,-4.1397 7.251,-35.9394 8.6449,-41.1707 0.5587,-2.0971 1.2012,-5.0221 1.4277,-6.5 0.647,-4.22137 3.349,-16.92109 5.4653,-25.6872 1.8551,-7.6841 4.3569,-20.14194 5.5227,-27.5 0.305,-1.925 0.9596,-4.85 1.4546,-6.5 0.4951,-1.65 2.0696,-8.85 3.4989,-16 2.4721,-12.36629 5.4522,-26.67721 7.6007,-36.5 0.5413,-2.475 1.1964,-5.85 1.4559,-7.5 0.2594,-1.65 0.8846,-4.575 1.3893,-6.5 0.5048,-1.925 1.6512,-7.1 2.5475,-11.5 0.8964,-4.4 2.2759,-10.925 3.0656,-14.5 1.9979,-9.0445 7.2969,-34.87139 7.8992,-38.5 0.5997,-3.61293 5.0175,-23.09396 7.5969,-33.5 1.0225,-4.125 2.1161,-9.3 2.4302,-11.5 0.3142,-2.2 1.5032,-8.275 2.6422,-13.5 3.0422,-13.95487 6.4869,-30.08437 8.9697,-42 1.2034,-5.775 3.2211,-15 4.4838,-20.5 1.2627,-5.5 2.5401,-11.575 2.8386,-13.5 0.2985,-1.925 1.4011,-7.1 2.4502,-11.5 1.0491,-4.4 2.7002,-11.825 3.6689,-16.5 0.9688,-4.675 2.5627,-11.875 3.5422,-16 0.9794,-4.125 2.0781,-9.525 2.4417,-12 0.3635,-2.475 2.1729,-10.8 4.0207,-18.5 1.8479,-7.7 3.6655,-16.25 4.0391,-19 0.641,-4.7185 2.6971,-15.03621 5.8421,-29.3166 1.3561,-6.15751 1.3373,-6.33697 -0.7488,-7.12577 -1.1769,-0.44505 -9.7899,-1.31685 -19.1399,-1.93733 -9.35,-0.62049 -25.55,-1.80895 -36,-2.64103 -10.45,-0.83208 -21.475,-1.49258 -24.5,-1.46778 -3.025,0.0248 -9.1,-0.38426 -13.5,-0.90902 -4.4,-0.52476 -14.525,-1.45622 -22.5,-2.06991 -7.975,-0.61369 -19.5325,-1.57397 -25.6834,-2.13395 -6.1509,-0.55998 -16.7259,-1.17671 -23.5,-1.3705 -6.7741,-0.19379 -13.2166,-0.62009 -14.3166,-0.94733 -1.1,-0.32724 -19.775,-1.95669 -41.5,-3.62102 -92.07522,-7.05375 -104.00876,-7.98868 -114,-8.93135 -5.775,-0.54487 -17.25,-1.46542 -25.5,-2.04566 -15.71299,-1.10514 -20.06003,-1.42685 -40.5,-2.99724 -6.875,-0.5282 -25.1,-1.85126 -40.5,-2.94014 -25.97206,-1.83638 -72.04367,-5.36073 -86,-6.57876 -3.3,-0.288 -20.4,-1.63114 -38,-2.98475 -30.47441,-2.34377 -41.7031,-3.23362 -69,-5.4681 -6.6,-0.54026 -19.425,-1.45335 -28.5,-2.02909 -9.075,-0.57573 -18.75,-1.26339 -21.5,-1.52812 -4.59696,-0.44253 -25.13334,-2.07967 -56.5,-4.50414 -13.11452,-1.01368 -14.89761,-1.14502 -80.5,-5.92938 -22.55,-1.64457 -48.875,-3.68052 -58.5,-4.52434 -9.625,-0.84382 -26.5,-2.1771 -37.5,-2.96285 -11,-0.78574 -38,-2.81581 -60,-4.51126 -68.14821,-5.25191 -90.57862,-6.92091 -102.5,-7.62682 -11.3908,-0.67449 -11.48338,-0.66224 -9.75,1.28938 0.9625,1.08369 1.75,2.49741 1.75,3.1416 0,1.42931 -2.23144,1.53982 -3.59331,0.17795 -2.04774,-2.04774 -13.20815,-5.80523 -14.22432,-4.78906 -0.95576,0.95576 -5.4187,0.033 -10.68237,-2.20875 -1.1,-0.46847 -5.6,-1.10721 -10,-1.41941 -4.4,-0.3122 -15.875,-1.23111 -25.5,-2.04201 -9.625,-0.81091 -30.6625,-2.48215 -46.75,-3.71387 C 6.3025043,452.07664 0,451.3001 0,450.22966 c 0,-0.83143 0.68362151,-1.16075 1.75,-0.84302 0.9625,0.28678 7.6,0.80983 14.75,1.16233 7.15,0.35251 34.124365,2.14198 59.943034,3.97662 46.559276,3.30842 46.965196,3.31991 49.654366,1.40505 3.56644,-2.53952 5.52792,-2.4356 8.20035,0.43449 2.36997,2.54527 0.9548,2.33851 31.70225,4.63167 7.425,0.55376 18.45,1.45096 24.5,1.99379 6.05,0.54283 17.975,1.43387 26.5,1.98009 14.41236,0.92344 34.3216,2.35584 48.5,3.48941 3.3,0.26383 19.725,1.39706 36.5,2.51828 16.775,1.12122 34.775,2.46585 40,2.98806 5.225,0.52221 15.8,1.41066 23.5,1.97433 16.98789,1.24358 40.31643,2.90681 50.5,3.60044 4.125,0.28096 10.425,0.71996 14,0.97554 3.575,0.25558 9.875,0.70422 14,0.99697 17.99701,1.27724 47.99228,3.51656 53.5,3.99409 10.60648,0.91959 31.61018,2.52909 46,3.52495 7.7,0.53288 15.8,1.16718 18,1.40956 2.2,0.24237 8.05,0.70303 13,1.02369 10.42873,0.67555 23.14389,1.64734 66,5.04421 17.05,1.35142 34.6,2.7115 39,3.0224 4.4,0.3109 15.65,1.1934 25,1.96111 20.15589,1.65495 37.63531,2.98147 65.5,4.97081 40.07854,2.86132 51.53775,3.72013 54.5,4.08453 8.28852,1.0196 13.95459,1.4803 24,1.95144 6.05,0.28375 15.725,0.94119 21.5,1.46097 5.775,0.51979 14.20779,1.21603 18.73954,1.5472 4.53175,0.33118 9.25675,0.80413 10.5,1.05101 4.00816,0.79591 17.06357,1.60195 24.26046,1.49783 3.85,-0.0557 10.6,0.37356 15,0.9539 19.96741,2.6336 24.29768,3.03947 48.5,4.54592 5.225,0.32523 10.175,0.75688 11,0.95923 0.825,0.20236 5.4423,0.66835 10.2608,1.03554 7.8053,0.59482 8.6934,0.49207 8.143,-0.94224 -0.7247,-1.88856 0.4039,-2.02375 4.2811,-0.51282 1.5483,0.60338 6.1901,1.49538 10.3151,1.98224 4.125,0.48686 9.439,1.16798 11.8088,1.51361 3.4447,0.50237 4.5675,0.2748 5.5981,-1.13471 0.8688,-1.1881 2.7244,-1.79492 5.6897,-1.86065 3.6386,-0.0806 4.5695,0.28725 5.3772,2.12498 1.5662,3.56366 9.6659,4.13525 23.2891,1.6435 2.6586,-0.48626 3.1542,-0.31359 2.6761,0.93236 -0.7531,1.96258 6.1371,3.41897 20.061,4.24033 13.7507,0.81114 47.6803,3.2625 61,4.40716 6.05,0.51992 15.5,1.211 21,1.53573 5.5,0.32474 16.075,1.02028 23.5,1.54564 21.8792,1.54809 19.4319,2.4188 21.8596,-7.77723 4.6396,-19.48492 9.5256,-42.32748 12.1388,-56.75 0.4983,-2.75 2.3098,-11.525 4.0256,-19.5 1.7157,-7.975 5.5502,-26.2 8.521,-40.5 2.9708,-14.3 6.7635,-32.25846 8.4282,-39.9077 1.6647,-7.64923 3.0268,-14.94276 3.0268,-16.20784 0,-1.70001 -1.2393,-3.00167 -4.75,-4.98884 -2.6125,-1.47878 -8.35,-4.73489 -12.75,-7.2358 -4.4,-2.50091 -10.2972,-6.59747 -13.105,-9.10347 -9.9159,-8.85033 -15.6789,-11.40514 -30.6976,-13.60876 -5.0767,-0.74488 -5.5908,-2.7231 -2.3275,-8.95592 3.768,-7.19668 9.0921,-12.01184 23.4602,-21.21739 19.2302,-12.32064 25.7133,-17.68801 31.2176,-25.84493 2.7061,-4.01032 5.3886,-7.58099 5.9612,-7.93482 0.5725,-0.35384 2.5861,-3.71169 4.4747,-7.4619 4.9636,-9.85639 11.1873,-18.35558 20.5275,-28.03263 7.2503,-7.51179 8.3641,-9.16601 9.5799,-14.22858 0.8538,-3.55526 1.0544,-6.59031 0.5287,-8 -0.4659,-1.24928 -1.1655,-4.43895 -1.5547,-7.08816 -0.7811,-5.31744 0.7992,-9.0293 4.3199,-10.14674 1.4684,-0.46603 2.0899,-1.87834 2.5639,-5.82584 1.595,-13.28289 7.0947,-43.71068 7.9006,-43.71068 0.4953,0 0.6432,1.2869 0.3286,2.85979 -1.1222,5.61105 -1.717,13.66528 -0.8646,11.70659 2.1151,-4.8598 1.7291,1.38799 -1.127,18.24198 -3.1535,18.60888 -3.0934,21.69164 0.4226,21.69164 0.9853,0 1.7835,-2.62505 2.7368,-9 1.4384,-9.61944 2.389,-11.73087 4.8554,-10.78442 1.3002,0.49893 1.4766,2.09528 1.0766,9.742 -0.6998,13.37925 -3.6412,18.16483 -9.748,15.85976 -3.5995,-1.35865 -3.9308,-0.9489 -4.737,5.85862 -0.3403,2.87299 -1.2176,6.37121 -1.9496,7.77382 -0.732,1.40262 -1.3337,5.11116 -1.337,8.2412 0,3.13004 -0.4562,5.9691 -1.0062,6.30902 -3.09,1.90972 2.1223,64.39596 6.9483,83.29734 3.9156,15.3362 16.6744,38.35708 28.0772,50.66014 4.9193,5.30771 15.9231,18.80549 24.4915,30.04252 3.7744,4.95 9.5897,12.52853 12.9228,16.84118 3.3331,4.31265 7.1951,9.48765 8.5823,11.5 1.3872,2.01235 7.4129,10.18382 13.3906,18.15882 11.1664,14.89752 14.1954,20.41054 19.1331,34.82335 2.943,8.59054 2.7643,11.27762 -0.7965,11.97947 -1.4833,0.29237 -8.696,-8.33329 -25.1063,-30.02456 -3.7713,-4.98499 -9.889,-12.26191 -13.5949,-16.17094 -9.1539,-9.65576 -16.361,-17.60626 -18.6478,-20.57134 -2.1983,-2.85038 -6.9049,-7.57258 -14.177,-14.22398 -5.6245,-5.14437 -12.1333,-9.61337 -25.8877,-17.77457 -3.2096,-1.90442 -8.5356,-5.31827 -11.8356,-7.58634 -3.3,-2.26807 -10.3918,-6.46546 -15.7595,-9.32755 l -9.7595,-5.20378 -0.9484,2.49441 c -1.2365,3.2524 -7.8707,42.45881 -13.9744,82.58583 -1.1294,7.425 -2.713,17.55 -3.5191,22.5 -0.8061,4.95 -2.151,13.5 -2.9887,19 -0.8377,5.5 -3.141,19.82577 -5.1184,31.83504 -1.9774,12.00928 -3.3296,22.10065 -3.005,22.42529 0.6366,0.63663 23.4626,2.49419 51.573,4.19696 29.961,1.81487 39.5402,2.90252 38.115,4.32768 -1.584,1.58401 -18.8129,1.13758 -52.115,-1.35039 -7.425,-0.55471 -19.0786,-1.10442 -25.8969,-1.22157 l -12.3969,-0.21301 -1.356,6.5 c -1.3205,6.33024 -1.8768,12.47799 -1.312,14.5 0.1536,0.55 0.017,1.675 -0.3035,2.5 -2.3008,5.92166 -5.1538,22.23414 -16.1785,92.5 -5.7474,36.6315 -13.3545,84.43332 -16.63,104.5 -2.5451,15.59248 -6.946,42.88729 -12.012,74.5 -0.6169,3.85 -1.9565,11.275 -2.9769,16.5 -2.0503,10.4995 -2.5405,13.36968 -3.4158,20 -0.3267,2.475 -1.2228,8.1 -1.9913,12.5 -2.1648,12.39397 -3.7203,26.07173 -3.3948,29.84997 0.1623,1.88446 -0.2466,4.07911 -0.9088,4.87699 -0.6622,0.79788 -2.3717,8.83572 -3.7988,17.86186 -1.4272,9.02615 -3.2492,20.46118 -4.049,25.41118 -1.2743,7.88792 -2.0593,12.81142 -4.942,31 -0.3487,2.2 -1.5209,8.95 -2.605,15 -1.0841,6.05 -2.5833,15.725 -3.3316,21.5 -1.3238,10.2156 -7.7894,48.8822 -11.0362,66 -0.8867,4.675 -1.8266,9.85 -2.0887,11.5 -2.2421,14.1175 -2.9578,17.2571 -5.6494,24.7821 -1.2946,3.6193 -2.2351,2.5912 -1.908,-2.0857 0.3521,-5.0361 3.0366,-24.6624 4.1303,-30.1964 0.4891,-2.475 1.4075,-8.55 2.0407,-13.5 0.6333,-4.95 1.7894,-12.6 2.569,-17 0.7796,-4.4 2.7721,-16.775 4.4277,-27.5 1.6556,-10.725 3.6686,-22.875 4.4733,-27 0.8047,-4.125 1.9536,-11.1 2.5531,-15.5 1.1784,-8.64746 9.3117,-59.46805 10.9724,-68.5602 1.9848,-10.86646 0.8764,-14.41764 -4.8582,-15.56455 -2.5561,-0.51123 -2.9382,-0.8969 -2.0038,-2.02279 0.7667,-0.92378 2.2214,-1.19098 4.3302,-0.79537 4.0333,0.75665 5.6933,-1.1014 6.6006,-7.38809 0.3706,-2.56795 2.5354,-15.919 4.8106,-29.669 2.2752,-13.75 5.5143,-33.55 7.198,-44 3.7743,-23.42586 7.7711,-47.64917 12.2924,-74.5 1.8985,-11.275 4.4228,-26.8 5.6094,-34.5 2.5372,-16.46334 5.3332,-33.8751 11.4818,-71.5 5.9818,-36.60473 10.0283,-61.70126 12.4959,-77.5 1.1167,-7.15 2.7118,-16.52709 3.5445,-20.83797 0.8328,-4.31088 1.5142,-9.14838 1.5142,-10.75 0,-2.82777 -0.1447,-2.91203 -5,-2.91203 -2.75,0 -5,0.1247 -5,0.27711 0,0.15241 -1.8182,8.58991 -4.0404,18.75 -7.1975,32.90702 -8.9601,41.18424 -12.5584,58.97289 -1.9469,9.625 -4.4003,21.325 -5.4519,26 -1.0516,4.675 -4.4351,20.425 -7.5188,35 -3.0837,14.575 -8.7376,41.125 -12.5643,59 -3.8267,17.875 -7.6418,36.1 -8.4781,40.5 -0.8363,4.4 -2.6591,12.5 -4.0507,18 -1.3916,5.5 -2.7281,11.125 -2.97,12.5 -1.3136,7.46679 -21.8945,107.30749 -25.8703,125.5 -1.4423,6.6 -5.9495,28.2 -10.0159,48 -4.0664,19.8 -8.7445,42.3 -10.3958,50 -6.7351,31.4053 -13.417,63.1962 -17.5504,83.5 -2.4072,11.825 -6.6882,32.525 -9.5132,46 -2.825,13.475 -7.7873,37.55 -11.0274,53.5 -3.2401,15.95 -7.7434,37.775 -10.0074,48.5 -10.9554,51.8977 -13.2582,62.9278 -17.0152,81.5 -2.2252,11 -4.8963,23.6 -5.9358,28 -1.0395,4.4 -2.1294,9.575 -2.422,11.5 -0.2926,1.925 -1.6474,8.675 -3.0106,15 -3.1035,14.3987 -5.6576,29.0783 -6.1204,35.1757 -0.1951,2.5717 -0.9965,5.9467 -1.7808,7.5 -0.7843,1.5534 -2.1552,6.4243 -3.0465,10.8243 -1.8834,9.2977 -9.1707,43.8196 -11.3834,53.9266 -0.834,3.8096 -2.2964,8.2091 -3.2497,9.7767 -1.4952,2.4586 -1.9039,2.6447 -2.9748,1.3543 z M 1246.4767,540.75 c 0.2831,-1.2375 2.3222,-13.275 4.5313,-26.75 2.2091,-13.475 4.9037,-29.45 5.988,-35.5 1.0843,-6.05 3.7784,-22.7 5.9869,-37 2.2084,-14.3 5.8157,-37.16667 8.0162,-50.81482 2.2005,-13.64815 3.9724,-25.79815 3.9375,-27 l -0.063,-2.18518 -0.8657,2.1456 c -0.935,2.31711 -5.2785,22.12316 -13.0164,59.3544 -2.6863,12.925 -6.0611,28.9 -7.4995,35.5 -1.4385,6.6 -4.6009,21.675 -7.0276,33.5 -2.4267,11.825 -5.7175,27.72282 -7.313,35.32849 l -2.9009,13.82849 2.125,0.85812 c 4.164,1.68158 7.5483,1.1531 8.1016,-1.2651 z m 140.884,-106.5 c -3.7054,-5.3625 -7.8899,-11.15669 -9.2989,-12.87598 -1.409,-1.71929 -4.8118,-6.36173 -7.5618,-10.31655 -2.75,-3.95481 -6.7186,-9.24894 -8.8191,-11.76473 -2.1006,-2.51578 -4.553,-5.74833 -5.4498,-7.18345 -2.9695,-4.75189 -19.4873,-25.51657 -24.7466,-31.10929 -10.186,-10.83173 -21.6111,-30.77177 -26.549,-46.33568 -2.0175,-6.35886 -5.2998,-26.47535 -6.4717,-39.66432 -1.0865,-12.22657 -1.1897,-13.05919 -1.6788,-13.54829 -0.5035,-0.50351 -2.839,11.91547 -5.2747,28.04829 -0.8304,5.5 -3.3099,21.06232 -5.5101,34.58294 -2.2001,13.52062 -4.0002,26.12959 -4.0002,28.01994 0,3.16945 0.5254,3.75786 6.75,7.55882 3.7125,2.267 8.775,5.13041 11.25,6.36314 2.475,1.23272 6.075,3.47922 8,4.99224 3.7836,2.97386 8.8355,6.1333 21.8383,13.65774 4.586,2.65385 10.5907,6.62518 13.3437,8.82518 2.753,2.2 6.8758,5.38513 9.1618,7.07806 2.2859,1.69293 5.6702,5.06793 7.5206,7.5 3.4012,4.47032 32.9932,35.92194 33.798,35.92194 0.2394,0 -2.5963,-4.3875 -6.3017,-9.75 z m -115.975,-84.81286 c 0.3299,-0.85957 1.3099,-4.57207 2.1779,-8.25 1.5794,-6.69241 1.9477,-8.44271 6.8795,-32.68714 3.7647,-18.50702 8.6587,-38.5 9.4242,-38.5 0.3586,0 0.6966,-2.5875 0.751,-5.75 0.054,-3.1625 1.0343,-9.575 2.1776,-14.25 1.1432,-4.675 2.3348,-11.4067 2.6479,-14.95934 l 0.5693,-6.45934 -4.0801,3.95934 c -4.6649,4.52696 -13.5759,16.87734 -16.9443,23.48459 -3.2055,6.28766 -11.5524,17.33448 -17.6561,23.36734 -8.0334,7.94017 -12.8451,11.69872 -21.9006,17.10741 -14.4243,8.61527 -22.2629,14.35736 -24.9071,18.24548 -2.3661,3.47923 -2.4283,3.84617 -0.848,5.00452 0.9379,0.6875 3.7569,1.25988 6.2642,1.27196 2.5074,0.0121 6.3925,0.85476 8.6336,1.87263 5.3161,2.41449 15.2561,9.22402 18.4253,12.6225 1.375,1.47449 4.525,3.79894 7,5.16546 2.475,1.36652 7.65,4.23275 11.5,6.3694 7.8256,4.34298 9.0236,4.63203 9.8857,2.38519 z M 1076.357,1485.0084 c -7.5483,-3.0461 -6.8863,-16.7838 0.9056,-18.7922 3.9962,-1.03 4.4609,-3.2155 2.2795,-10.7195 -1.6705,-5.7461 -2.9708,-6.872 -4.0414,-3.499 -0.7542,2.3764 -4.6463,3.5798 -7.113,2.1994 -1.1694,-0.6544 -2.32,-0.6318 -3.4399,0.068 -2.9912,1.868 -4.7743,0.04 -6.7902,-6.9609 -3.7134,-12.8964 -3.839,-26.1154 -0.2877,-30.2984 2.5146,-2.962 6.3519,-3.4561 9.1628,-1.18 2.0392,1.6512 2.3865,2.7664 2.2768,7.3115 -0.071,2.9497 -1.0699,8.021 -2.2194,11.2697 -2.3818,6.7309 -2.6482,8.7266 -0.8401,6.2938 0.6875,-0.9251 2.825,-1.8493 4.75,-2.0539 2.2409,-0.2381 3.6163,-0.9609 3.8233,-2.0092 0.3832,-1.9405 4.6915,-2.2263 5.8377,-0.3873 0.4285,0.6875 1.0731,3.5 1.4325,6.25 0.3594,2.75 1.6267,8.6 2.8161,13 3.8806,14.3549 2.373,26.6833 -3.5955,29.4027 -1.3245,0.6035 -2.4995,1.0688 -2.6112,1.0339 -0.1116,-0.035 -1.1673,-0.4525 -2.3459,-0.9282 z m 4.6886,-10.1778 c 0.8135,-3.0212 0.8031,-4.3774 -0.04,-5.2078 -2.4094,-2.3728 -5.0576,4.4719 -3.4007,8.7897 0.904,2.3557 2.2073,0.999 3.4408,-3.5819 z M 1064.9288,1422.5 c 0.022,-1.65 -0.4025,-3.675 -0.9441,-4.5 -0.8753,-1.3333 -1.0926,-1.3333 -1.9555,0 -1.4961,2.3115 -2.3103,9.4435 -1.4996,13.1347 l 0.729,3.3192 1.8148,-4.477 c 0.9982,-2.4623 1.8331,-5.8269 1.8554,-7.4769 z M 1336,1402.559 c 0,-0.2425 0.45,-0.7191 1,-1.059 0.55,-0.3399 1,-0.1415 1,0.441 0,0.5824 -0.45,1.059 -1,1.059 -0.55,0 -1,-0.1984 -1,-0.441 z m -24,-293.9181 c -1.925,-0.7427 -5.75,-1.6492 -8.5,-2.0143 -2.75,-0.3651 -8.375,-2.1875 -12.5,-4.0497 -12.874,-5.8118 -22.1789,-8.9421 -29.9789,-10.0853 -5.053,-0.7406 -6.0211,-1.1658 -6.0211,-2.6445 0,-2.8363 23.2631,3.5332 35,9.5832 2.475,1.2758 6.975,2.648 10,3.0495 3.025,0.4014 7.9594,1.5827 10.9653,2.6251 3.6412,1.2625 8.1472,1.8869 13.5,1.8707 9.3377,-0.028 13.2131,-0.8115 24.8442,-5.0202 13.0682,-4.7286 18.4018,-11.147 22.1414,-26.6446 2.0069,-8.3173 1.744,-10.3065 -3.0241,-22.8758 -3.314,-8.7363 -8.4269,-17.2478 -17.9823,-29.935 -15.4941,-20.5725 -18.5623,-31.2238 -15.0053,-52.09128 2.5505,-14.96249 11.5371,-31.8298 25.839,-48.49814 3.7064,-4.31966 12.9111,-11.07034 18.4715,-13.54689 2.8873,-1.28599 6.9373,-3.39079 9,-4.67734 2.0626,-1.28654 7.8003,-3.617 12.7503,-5.17878 7.9838,-2.51897 10.7079,-2.8683 24.1256,-3.09372 13.9422,-0.23422 15.5178,-0.45284 20.1381,-2.79412 2.7569,-1.39701 7.7064,-2.97385 10.9989,-3.50409 3.2925,-0.53025 9.2346,-2.59988 13.2047,-4.59918 3.9701,-1.9993 10.8891,-4.71017 15.3755,-6.02416 9.9948,-2.92726 29.2833,-12.79398 36.4732,-18.65719 9.1021,-7.42267 22.0332,-20.41038 26.8955,-27.0131 9.9526,-13.51527 15.009,-30.55537 13.8939,-46.82201 -1.1985,-17.48166 -4.7052,-34.97939 -9.1186,-45.5 -0.9229,-2.2 -6.7499,-14.12739 -12.9488,-26.5053 -6.199,-12.37792 -13.3847,-28.35292 -15.9684,-35.5 -2.5837,-7.14709 -7.7783,-19.99157 -11.5436,-28.5433 -3.7652,-8.55173 -7.7392,-18.22673 -8.8309,-21.5 -1.0918,-3.27327 -2.9776,-8.2014 -4.1906,-10.9514 -1.2131,-2.75 -4.2315,-10.85 -6.7076,-18 -4.4201,-12.76341 -6.5743,-19.49075 -14.2491,-44.5 -6.4572,-21.04145 -12.8273,-37.96248 -18.738,-49.77409 -9.2508,-18.48646 -41.104,-66.17008 -53.1896,-79.62389 -7.5774,-8.43524 -16.5323,-21.96026 -24.5651,-37.10202 -3.2096,-6.05 -7.2775,-13.025 -9.0397,-15.5 -4.1095,-5.77164 -18.0698,-34.56714 -18.9404,-39.06777 -0.3652,-1.88773 -1.3213,-6.35723 -2.1248,-9.93223 -2.5129,-11.18146 -6.182,-44.95356 -6.8986,-63.5 -0.7153,-18.50917 1.3185,-41.05333 7.017,-77.78342 4.7433,-30.57265 6.2584,-39.32336 7.9158,-45.71658 0.7842,-3.025 2.6205,-11.35 4.0808,-18.5 1.4602,-7.15 5.0474,-22.9 7.9715,-35 2.9241,-12.1 6.0227,-25.635653 6.8857,-30.079229 2.197,-11.311333 3.6925,-31.334783 2.9428,-39.401629 C 1381.5784,5.5542441 1382.5029,0 1384.6986,0 c 1.4453,0 1.5459,2.0987911 0.9947,20.75 -0.6736,22.793071 -1.9315,32.271856 -7.2657,54.75 -6.2836,26.47877 -8.1735,34.77913 -10.3601,45.5 -1.1778,5.775 -3.019,14.325 -4.0915,19 -3.9804,17.35095 -10.6995,63.10041 -13.1446,89.5 -1.43,15.44029 -1.3361,36.85188 0.2259,51.5 4.6763,43.85181 6.5927,52.42766 16.0607,71.86996 3.9186,8.04652 8.5535,16.65504 10.3,19.13004 1.7465,2.475 5.7275,9.29478 8.8467,15.15506 8.0156,15.05949 17.3794,29.12544 25.1237,37.73973 13.8717,15.42994 46.0329,64.31585 56.9762,86.60521 3.2466,6.61262 12.14,31.99415 18.2202,52 7.802,25.67094 17.9739,53.85078 27.6136,76.5 7.8682,18.48712 12.4584,29.84251 16.2228,40.1331 1.9382,5.29821 7.3073,17.22321 11.9314,26.5 19.4305,38.98107 21.4018,43.87445 20.3854,50.60381 -0.2711,1.7947 0.1665,7.76309 0.9724,13.26309 3.2995,22.51817 2.5537,33.16964 -3.3802,48.2732 -5.1845,13.19608 -18.3664,29.05663 -36.342,43.7268 -7.2443,5.91221 -30.1937,17.8969 -37.4151,19.53897 -2.7902,0.63446 -9.103,3.18227 -14.0284,5.66179 -5.8074,2.92356 -11.1195,4.81471 -15.1123,5.38016 -3.3863,0.47956 -8.4158,2.04385 -11.1765,3.47619 -4.6614,2.41838 -6.1164,2.62723 -20.3878,2.92638 -13.982,0.29308 -16.1391,0.5896 -23.9162,3.28768 -14.3919,4.99286 -31.4623,14.8007 -38.107,21.89434 -5.2676,5.62361 -15.5225,22.03074 -19.5849,31.33449 -8.9219,20.43299 -7.4661,42.99142 3.6626,56.7536 15.9731,19.753 22.4368,30.0726 26.7155,42.6524 2.7567,8.1052 2.9738,14.4136 0.7898,22.9497 -4.0708,15.9103 -9.4068,21.6053 -25.4804,27.1942 -9.2444,3.2144 -11.8294,3.6793 -22.4475,4.0371 -8.5331,0.2875 -13.0112,0.014 -15.5,-0.9461 z m -89.3502,-154.39852 c -0.4298,-0.69544 -0.8735,-3.06875 -2.242,-11.99238 -0.8896,-5.80051 -3.1773,-3.91564 -3.9447,3.25 -0.6457,6.02944 -0.8723,6.5 -3.1306,6.5 -3.9083,0 -5.5589,-5.4283 -5.6252,-18.5 -0.046,-9.02244 0.3141,-11.82917 2.0013,-15.61218 2.684,-6.01792 6.6104,-7.38087 9.9794,-3.4641 1.2204,1.41876 2.7067,4.26633 3.303,6.32793 1.7916,6.19463 5.1294,30.29377 4.4794,32.34169 -0.5919,1.86471 -3.8921,2.65137 -4.8206,1.14904 z M 1219,931.54922 C 1219,927.52972 1216.9046,919 1215.9171,919 c -1.0719,0 -1.1407,2.4934 -0.2691,9.75 0.4146,3.45219 1.0965,5.25 1.9913,5.25 0.7775,0 1.3607,-1.05048 1.3607,-2.45078 z m -59.7973,-11.4028 c -1.0382,-0.65855 -0.9925,-1.07599 0.2287,-2.08952 1.2145,-1.00788 2.5512,-1.02065 6.5451,-0.0625 2.7604,0.66221 4.7684,1.60939 4.4622,2.10483 -0.695,1.12455 -9.4795,1.16147 -11.236,0.0472 z m 118.3567,-336.03919 c 0.2607,-0.26063 -0.8786,-1.04256 -2.5317,-1.73762 -2.2263,-0.93608 -2.8347,-1.70893 -2.3467,-2.98072 0.4281,-1.11549 0.2732,-1.47864 -0.442,-1.03662 -1.4346,0.88665 -2.7487,-1.24257 -1.5232,-2.46808 0.5887,-0.58873 2.0096,-0.10143 3.7918,1.30043 1.9356,1.52259 2.98,1.85267 3.2546,1.02868 0.7034,-2.11012 2.4963,-1.3098 1.9286,0.86091 -0.3378,1.29205 0.1903,2.80689 1.4006,4.0172 1.924,1.92397 1.9139,1.94076 -1.0314,1.71634 -1.636,-0.12466 -2.7612,-0.43989 -2.5006,-0.70052 z m -28.9375,-4.65013 c -0.361,-0.94083 -0.1599,-2.30885 0.4469,-3.04004 0.6069,-0.7312 0.8323,-1.76807 0.501,-2.30416 -0.3313,-0.53609 -0.1873,-1.23125 0.32,-1.5448 0.5073,-0.31355 0.6872,-1.46964 0.3997,-2.5691 -0.2875,-1.09945 -0.034,-1.999 0.5625,-1.999 0.5969,0 0.8358,0.64994 0.531,1.4443 -0.3791,0.98789 0.083,1.3963 1.4621,1.29241 1.109,-0.0835 1.8698,-0.39597 1.6906,-0.6943 -0.1792,-0.29832 0.2615,-1.08486 0.9794,-1.74786 1.2398,-1.14513 1.8438,-0.5977 2.9849,2.70545 0.095,0.275 0.5369,1.33292 0.9821,2.35092 0.8879,2.03054 -0.7318,3.60751 -3.7321,3.63377 -1.0782,0.009 -1.75,0.78305 -1.75,2.01531 0,2.1668 -1.4639,2.67641 -2.566,0.89324 -0.491,-0.79451 -0.8916,-0.77086 -1.4198,0.0838 -0.5214,0.84354 -0.9272,0.69197 -1.3923,-0.51998 z m 153.2805,-1.6394 c -4.5402,-8.48354 -7.1955,-26.36958 -4.9326,-33.22629 0.6463,-1.95808 2.3281,-4.46717 3.7375,-5.57577 C 1403.4097,536.88986 1407,536.3104 1407,538 c 0,0.55 -0.6634,1 -1.4743,1 -1.7951,0 -4.1079,4.25628 -5.0544,9.30122 -0.8541,4.55295 1.0967,10.07854 3.2645,9.24666 0.7975,-0.30602 2.6457,-0.81998 4.1071,-1.14211 2.5217,-0.55586 2.4659,-0.41549 -1.0948,2.75426 l -3.7518,3.33997 1.5588,5.84854 c 1.702,6.38604 1.6104,10.77889 -0.2374,11.38511 -0.6503,0.21333 -1.7371,-0.64884 -2.4153,-1.91595 z m 27.1085,-8.28904 c -0.5472,-1.43928 -1.2723,-3.72202 -1.6113,-5.07276 -0.339,-1.35075 -1.0658,-2.4559 -1.615,-2.4559 -0.5492,0 -0.7484,0.65192 -0.4427,1.44872 0.8488,2.21181 -2.2214,7.55128 -4.3419,7.55128 -1.0602,0 -2.4941,-1.28399 -3.3501,-3 -0.8231,-1.65 -1.1124,-3 -0.6427,-3 0.4696,0 0.6146,-3.4875 0.3221,-7.75 -0.2924,-4.2625 -0.5986,-8.86096 -0.6805,-10.21879 -0.1017,-1.68737 0.4463,-2.58894 1.7314,-2.84839 2.2545,-0.45518 3.5836,1.3682 3.6045,4.94474 0.01,1.44515 0.7458,3.23379 1.6386,3.97474 1.4803,1.22856 1.5904,0.60095 1.25,-7.12755 -0.3494,-7.93251 -0.2453,-8.47475 1.6267,-8.47475 1.5253,0 2.2013,0.9494 2.8482,4 0.4665,2.2 1.254,4.78139 1.75,5.73643 0.496,0.95504 0.9018,3.09254 0.9018,4.75 0,2.38243 0.4342,3.01357 2.0733,3.01357 1.4537,0 1.959,0.52298 1.6906,1.75 -0.2105,0.9625 -0.9656,1.62178 -1.6781,1.46506 -0.9874,-0.21717 -1.211,1.32279 -0.9406,6.47573 0.3046,5.80419 0.1076,6.80976 -1.3923,7.1077 -1.1423,0.2269 -2.0915,-0.55884 -2.742,-2.26983 z m -12.932,-0.94533 c -0.043,-1.05416 0.193,-1.64479 0.5253,-1.3125 0.3323,0.33229 0.3678,1.1948 0.079,1.91667 -0.3192,0.79773 -0.5562,0.56078 -0.6042,-0.60417 z m -2.088,-6.07232 c 0.6796,-0.81894 1.6828,-1.21269 2.2292,-0.875 0.6034,0.37296 0.4608,0.95147 -0.3633,1.47368 -2.1571,1.36676 -3.2153,1.02722 -1.8659,-0.59868 z m -69.8541,-10.40527 c -1.1508,-0.72914 -1.1508,-0.93501 0,-1.32193 0.7498,-0.25207 2.1887,-0.24411 3.1977,0.0177 1.4273,0.37031 1.5383,0.6638 0.5,1.32193 -1.6645,1.05514 -2.0069,1.0535 -3.6977,-0.0177 z M 1129.469,541.94978 c -0.9503,-1.53748 0.3513,-2.52947 1.6348,-1.24598 0.7182,0.71818 0.7354,1.27752 0.052,1.69964 -0.5599,0.34605 -1.3192,0.1419 -1.6872,-0.45366 z M 100,531.04794 c -3.575,-0.36746 -7.4,-1.22826 -8.5,-1.91289 -2.794876,-1.7395 13.77064,-0.47536 17.97316,1.37157 l 3.02684,1.33023 -3,-0.0604 c -1.65,-0.0332 -5.925,-0.36105 -9.5,-0.72851 z m 27,-2.95614 c 0,-0.4995 2.5875,-1.80095 5.75,-2.89209 3.1625,-1.09115 6.65,-2.34172 7.75,-2.77904 1.83927,-0.73123 1.87945,-0.6468 0.5,1.05058 -2.90579,3.57549 -14,7.23702 -14,4.62055 z M 78.526674,523.68105 C 77.036296,521.40645 75.294478,513.95971 75.560533,511 c 0.07416,-0.825 0.20338,-2.2875 0.287153,-3.25 C 75.931459,506.7875 76.675,506 77.5,506 c 0.825,0 1.519352,0.1125 1.543005,0.25 0.02365,0.1375 0.842275,4.6375 1.819161,10 1.409644,7.73807 1.508703,9.75 0.480049,9.75 -0.71286,0 -1.979854,-1.04353 -2.815541,-2.31895 z M 997.95454,516.0393 c -3.05,-1.57548 -8.13067,-3.61605 -11.29037,-4.5346 -5.77701,-1.67942 -11.77539,-5.72184 -10.45479,-7.04567 0.39016,-0.39112 2.86516,0.41283 5.5,1.78655 2.63484,1.37372 6.23124,2.81139 7.99199,3.19482 3.01792,0.6572 15.29863,7.91213 15.29863,9.03779 0,0.95349 -1.4493,0.45178 -7.04546,-2.43889 z M 153.71103,515.25 c -0.22386,-0.4125 1.32459,-3.18936 3.44098,-6.17079 3.80021,-5.35349 3.84799,-5.38238 3.84799,-2.32673 0,4.3576 -5.84056,11.16655 -7.28897,8.49752 z m 921.30867,-4.48512 c -3.6459,-1.91723 -4.9691,-5.34404 -4.3227,-11.19425 l 0.5603,-5.07063 -3.6447,4.17776 c -3.9207,4.49405 -9.2418,6.8831 -13.1474,5.90287 -4.1379,-1.03857 -9.3443,-6.41799 -10.5519,-10.90268 -2.491,-9.25079 -0.5207,-21.74572 4.2312,-26.83261 2.6377,-2.82374 3.3213,-3.05504 7.7664,-2.62792 8.5775,0.82418 15.0227,8.07825 16.0094,18.01827 0.4894,4.93114 0.969,6.03633 3.0797,7.0973 2.3248,1.16859 2.5026,1.77914 2.5377,8.71183 0.021,4.10035 0.1333,8.01768 0.25,8.70518 0.3637,2.14162 2.8787,1.3877 7.734,-2.3184 5.064,-3.86549 6.0572,-3.87417 5.096,-0.0446 -1.3077,5.21013 -10.5962,9.00811 -15.598,6.37784 z m -14.7456,-12.52905 c 3.2163,-3.35716 5.7259,-10.10731 5.7259,-15.40139 0,-5.10829 -3.2869,-11.43019 -7.1709,-13.79218 -3.642,-2.21484 -5.1391,-1.85216 -6.7253,1.62934 -0.9834,2.15834 -0.8867,2.76667 0.6145,3.8644 1.6854,1.2324 1.6557,1.43695 -0.5496,3.78443 -1.9222,2.04604 -2.3263,3.54649 -2.3023,8.54859 0.029,6.01629 0.9755,9.00864 3.9171,12.38098 2.1004,2.40798 3.4076,2.20373 6.4906,-1.01417 z m -95.94892,-6.15308 C 954.05034,481.80792 950.02384,474 955,474 c 1.1,0 2,0.65749 2,1.46109 0,0.80359 1.99263,3.90749 4.42806,6.89754 7.24119,8.89023 11.76949,15.54871 11.3764,16.728 -0.20287,0.60861 -4.01855,-2.54314 -8.47928,-7.00388 z m -886.658513,2.25058 c -1.245803,-1.2458 -0.672732,-4.85129 1.406359,-8.84814 C 81.54274,480.73741 84.500838,478 87.161675,478 c 1.8178,0 1.786346,0.20489 -0.498926,3.25 -1.341468,1.7875 -3.62195,5.6125 -5.067737,8.5 -2.765698,5.5236 -2.868331,5.64335 -3.928345,4.58333 z M 1330.1281,493.38528 c -2.1538,-1.51592 -2.2139,-1.75779 -0.6536,-2.63096 2.0674,-1.15698 3.8732,0.27229 3.3693,2.6668 -0.3166,1.50448 -0.5312,1.50165 -2.7157,-0.0358 z M 159.66667,492.33333 c -0.99059,-0.99058 -0.80751,-9.12825 0.21964,-9.76307 1.07729,-0.6658 2.0815,2.76744 2.10004,7.17974 0.013,3.08668 -0.8525,4.05051 -2.31968,2.58333 z m -5.43771,-18.00262 c -1.6077,-0.64686 -4.5853,-6.3077 -3.75473,-7.13827 0.974,-0.974 3.43587,1.00315 5.6749,4.55756 2.02351,3.21228 1.47657,3.94737 -1.92017,2.58071 z M 93,469.51578 c 0,-0.81633 1.260102,-2.89453 2.800226,-4.61822 2.176741,-2.4362 3.679665,-3.16334 6.750004,-3.26578 2.90281,-0.0969 3.94977,0.26582 3.94977,1.36822 0,0.9574 -0.99197,1.51677 -2.74229,1.54636 -1.68724,0.0285 -4.013949,1.2789 -6.047604,3.25 C 94.049028,471.34481 93,471.72776 93,469.51578 z M 944.91302,454.25 C 942.19089,448.33592 938,437.44014 938,436.27703 c 0,-0.22543 1.2375,-0.26748 2.75,-0.0935 2.48898,0.28639 3.0523,1.17067 5.93496,9.31642 5.25876,14.86011 3.9699,21.22466 -1.77194,8.75 z m -820.2444,-17.44283 c -4.25616,-5.58482 -8.66698,-15.96692 -8.66783,-20.40218 -9.6e-4,-4.99111 2.26048,-7.36209 7.72045,-8.09443 5.01646,-0.67284 9.75083,3.01516 11.31166,8.81161 1.15559,4.29155 0.69283,6.95916 -1.88703,10.87783 -0.91362,1.38776 -1.64587,4.50204 -1.64587,7 0,3.84655 -0.31301,4.5446 -2.1555,4.80717 -1.47827,0.21066 -2.94739,-0.73192 -4.67588,-3 z m 4.58719,-15.07459 c 1.598,-4.79402 -4.04325,-13.10163 -6.46212,-9.51645 -1.24361,1.84325 -0.23329,7.31074 1.889,10.22262 2.18863,3.00288 3.39907,2.81597 4.57312,-0.70617 z M 139,439.31457 c -5.76915,-2.18893 -7.91143,-8.63735 -3.4349,-10.33932 6.69105,-2.54393 14.4349,-0.0985 14.4349,4.5584 0,3.64287 -6.97454,7.30825 -11,5.78092 z M 144,433.5 c 0,-0.83333 -0.88889,-1.5 -2,-1.5 -1.99224,0 -2.60112,1.06554 -1.33333,2.33333 C 141.8846,435.55126 144,435.02241 144,433.5 z m 793.56071,-16.25 c -1.15183,-5.29503 -1.48985,-24.78484 -0.49413,-28.48994 0.73669,-2.74122 1.67557,-3.90822 3.51583,-4.3701 3.38654,-0.84997 3.74608,-0.23545 2.49606,4.26627 -0.58702,2.11407 -1.06983,9.16085 -1.07289,15.65951 -0.005,11.0744 -0.87561,15.68426 -2.96131,15.68426 -0.48695,0 -1.15455,-1.2375 -1.48356,-2.75 z m 7.89254,-52.32565 c -0.36564,-0.59161 -0.36747,-3.62911 -0.004,-6.75 0.81334,-6.98512 8.93842,-24.78094 11.63643,-25.48648 2.80708,-0.73407 2.84868,1.31042 0.14877,7.31213 -3.63983,8.0911 -6.97698,16.92282 -8.21843,21.75 -1.08063,4.20184 -2.27175,5.26313 -3.56268,3.17435 z M 960.24515,313.75 c 0.34861,-4.19833 2.07008,-10.10972 5.2441,-18.00785 3.91404,-9.73959 5.14385,-11.86294 7.16451,-12.3701 3.06186,-0.76848 3.78535,-0.0845 2.41247,2.28057 -1.78871,3.08151 -9.84027,24.52695 -11.11216,29.59738 -0.76698,3.05765 -1.73241,4.75 -2.7097,4.75 -1.25101,0 -1.42686,-1.09993 -0.99922,-6.25 z M 982,271.95034 c 0,-2.91569 9.69795,-17.22934 20.5582,-30.34275 3.9304,-4.74586 5.7533,-6.17623 8.1762,-6.41545 l 3.1182,-0.30786 -4.1763,4.33551 c -2.297,2.38453 -9.0118,10.96057 -14.92187,19.05786 C 984.94857,271.71252 982,274.87337 982,271.95034 z m 42.3333,-48.40635 c 0,-0.80081 0.375,-1.22425 0.8334,-0.94098 0.4583,0.28326 0.8333,-0.15772 0.8333,-0.97997 0,-2.31843 18.9875,-21.14916 23.7102,-23.51445 6.7562,-3.38376 6.8281,-2.47012 0.237,3.01499 -3.3861,2.81796 -10.335,9.34296 -15.442,14.5 -5.107,5.15703 -9.4849,9.37642 -9.7286,9.37642 -0.2438,0 -0.4433,-0.65521 -0.4433,-1.45601 z M 1073,179.56309 c 0,-2.87115 14.4333,-17.59177 19.6979,-20.08996 4.1611,-1.97458 5.6653,-1.11562 2.2418,1.28017 -3.3761,2.3626 -9.3839,7.61631 -16.1897,14.15759 -3.1625,3.03958 -5.75,5.13307 -5.75,4.6522 z m 61.4337,-39.42063 C 1138.2418,135.79826 1157.0785,127 1162.571,127 c 2.9618,0 0.4155,1.59973 -5.571,3.50002 -8.6324,2.74019 -15.1184,5.61258 -20,8.85725 -3.5729,2.37484 -4.1016,2.5366 -2.5663,0.78519 z M 880.78669,124 c -0.48797,-3.32473 -0.11474,-3.56475 2.48068,-1.59525 1.05187,0.79819 1.51461,1.99983 1.14301,2.96819 -1.02047,2.65931 -3.15031,1.85236 -3.62369,-1.37294 z"
     id="path3037"
     style="fill:#000000" />
</svg>
