<?xml version="1.0" encoding="UTF-8" standalone="no"?>
<!-- Created with Inkscape (http://www.inkscape.org/) -->

<svg
   xmlns:dc="http://purl.org/dc/elements/1.1/"
   xmlns:cc="http://creativecommons.org/ns#"
   xmlns:rdf="http://www.w3.org/1999/02/22-rdf-syntax-ns#"
   xmlns:svg="http://www.w3.org/2000/svg"
   xmlns="http://www.w3.org/2000/svg"
   version="1.1"
   width="1579.1152"
   height="1675.8716"
   id="svg2987">
  <metadata
     id="metadata2993">
    <rdf:RDF>
      <cc:Work
         rdf:about="">
        <dc:format>image/svg+xml</dc:format>
        <dc:type
           rdf:resource="http://purl.org/dc/dcmitype/StillImage" />
        <dc:title></dc:title>
      </cc:Work>
    </rdf:RDF>
  </metadata>
  <defs
     id="defs2991" />
  <path
     d="m 1219.3466,1675.3377 c -2.1276,-0.8585 -1.4789,-2.0051 6,-10.6053 8.059,-9.2673 11.1881,-13.1005 16.1081,-19.7324 4.7455,-6.3967 19.1026,-28.8809 22.8119,-35.7249 1.7215,-3.1763 7.7288,-13.4251 13.3496,-22.7751 5.6208,-9.35 11.3581,-20.15 12.7496,-24 1.3914,-3.85 4.0973,-10.6 6.0131,-15 1.9157,-4.4 4.0478,-9.8 4.7378,-12 0.6901,-2.2 2.5245,-6.5382 4.0765,-9.6405 4.1321,-8.26 6.3437,-26.5964 5.5917,-46.3595 -0.314,-8.25 -1.2174,-17.25 -2.0077,-20 -1.5389,-5.3551 -4.2382,-20.4994 -5.258,-29.5 -0.3427,-3.025 -1.4826,-9.8509 -2.533,-15.1688 -2.6485,-13.4088 -2.823,-14.8319 -3.4137,-27.8312 -0.6303,-13.8708 1.6251,-27.5681 7.8,-47.3702 5.8052,-18.6165 18.8069,-43.2171 27.8307,-52.6587 0.7734,-0.8091 2.6682,-3.0007 4.2107,-4.8703 1.5426,-1.8696 6.1187,-5.9602 10.1692,-9.0904 16.2528,-12.5598 24.1398,-22.1418 32.5213,-39.5104 5.9544,-12.339 7.1596,-18.4991 7.0784,-36.1795 -0.074,-16.0185 -0.5632,-19.4428 -4.7637,-33.3205 -4.4694,-14.766 -9.3519,-22.2765 -17.9757,-27.651 -1.5242,-0.9499 -1.5848,-1.2291 -0.3468,-1.5984 6.1843,-1.8446 8.456,-3.0274 13.1585,-6.8516 2.9378,-2.3891 9.3915,-8.8565 14.3415,-14.3721 7.9363,-8.8431 9.9093,-11.8602 16.6937,-25.5276 11.1122,-22.3862 13.0087,-29.0453 12.9287,-45.3959 l -0.064,-13.1034 -5.9842,-18.2282 c -6.5677,-20.00549 -10.1937,-34.46771 -12.479,-49.7718 -3.1002,-20.76125 -0.027,-57.79751 6.2222,-75 3.2766,-9.01894 14.5002,-32.08108 16.9116,-34.75 0.8696,-0.9625 1.3314,-1.75 1.0262,-1.75 -0.3053,0 0.8625,-1.47136 2.595,-3.2697 1.7325,-1.79833 4.3146,-4.61083 5.7381,-6.25 1.4234,-1.63916 3.8984,-4.13523 5.5,-5.54682 1.6015,-1.41158 6.7287,-6.81158 11.3936,-12 17.7146,-19.7024 28.616,-29.47887 45.6948,-40.97957 7.4497,-5.01655 16.1625,-10.99591 19.3618,-13.28746 3.1993,-2.29155 7.7188,-5.29145 10.0433,-6.66645 5.1698,-3.05796 19.7598,-17.34315 26.0442,-25.5 2.5425,-3.3 6.0863,-8.925 7.8751,-12.5 1.7888,-3.575 4.0882,-7.68434 5.1097,-9.13186 2.8481,-4.03575 5.8829,-21.69648 5.8864,-34.25488 0.01,-23.09359 -5.3688,-43.11837 -17.2097,-64.11326 -12.3399,-21.87966 -16.7338,-28.15994 -26.9798,-38.56281 -7.0358,-7.14358 -12.3706,-13.74661 -16.8075,-20.80304 -3.575,-5.68573 -8.3825,-13.15319 -10.6833,-16.59436 -2.3009,-3.44117 -6.1826,-9.63822 -8.6261,-13.77123 -2.4435,-4.133 -7.5687,-11.7342 -11.3893,-16.89156 -12.552,-16.94356 -16.2611,-22.26759 -50.2225,-72.0891 -5.7316,-8.40835 -11.8309,-17.3129 -13.554,-19.7879 -12.185,-17.50188 -16.7043,-24.35586 -20.0635,-30.4282 -4.4282,-8.00451 -15.0941,-22.53597 -25.0461,-34.12322 -3.8034,-4.42828 -10.9652,-12.95081 -15.9152,-18.93896 -12.6294,-15.2781 -30.154,-33.11915 -42.5,-43.26745 -17.9648,-14.76688 -36.2341,-30.77318 -42.6812,-37.3942 -3.3996,-3.49138 -9.0246,-9.27297 -12.5,-12.84797 -6.2701,-6.44992 -10.7772,-14.16443 -14.2173,-24.33484 -2.1354,-6.31316 -3.6081,-20.86848 -2.9747,-29.4 0.7731,-10.41193 4.5742,-29.9037 6.5524,-33.60004 0.5999,-1.12079 2.1121,-5.21645 3.3606,-9.10146 2.957,-9.20175 6.8277,-19.43992 8.7685,-23.19292 4.0064,-7.74754 17.4713,-49.649363 19.1382,-59.556883 0.3411,-2.027378 0.6309,-9.677378 0.6441,-17 0.03,-16.564387 1.4018,-36.1062839 2.883,-41.063857 0.8992,-3.00967364 1.6047,-3.75 3.5734,-3.75 2.7703,0 2.9631,1.0761576 1.404,7.8369906 -0.5501,2.3853444 -1.396,15.8853444 -1.8798,30.0000004 -0.7484,21.834638 -1.1989,26.672018 -3.0198,32.426778 -1.1772,3.720073 -2.976,10.020073 -3.9974,14 -1.9113,7.446953 -11.0769,32.946131 -13.5877,37.801421 -2.3564,4.55675 -13.3698,35.92446 -15.4833,44.09836 -3.7984,14.69096 -4.3269,32.18639 -1.4148,46.83645 1.466,7.37462 8.5701,19.07414 16.0371,26.4108 16.4475,16.16039 27.5346,25.77321 55.1811,47.84359 11.5626,9.23048 25.7873,23.80246 43.0652,44.11684 22.5569,26.52108 32.9602,39.92488 39.2953,50.62877 3.4179,5.775 11.6748,18.375 18.3487,28 6.6739,9.625 15.3501,22.225 19.2806,28 17.6638,25.95339 29.6492,43.28726 36.6464,53 13.6461,18.94219 18.017,25.32962 22.5774,32.99389 11.0786,18.61888 30.4467,47.40813 32.6327,48.50611 3.367,1.69119 12.6621,12.82537 17.8948,21.43559 2.7349,4.50004 6.0531,9.84296 7.3738,11.87315 4.2002,6.45666 12.857,23.42545 15.9494,31.26383 6.6198,16.77877 9.069,45.41602 5.5869,65.32337 -1.8541,10.59944 -8.6823,24.30702 -18.4828,37.10406 -10.3379,13.49868 -16.3541,19.09372 -28.8643,26.84386 -2.5248,1.56413 -5.4905,3.64453 -6.5905,4.62312 -1.1,0.97859 -9.425,6.76298 -18.5,12.85421 -16.6243,11.15837 -35.0888,26.8605 -40.7797,34.67881 -1.6013,2.2 -8.39,9.46638 -15.0859,16.14751 -16.6362,16.5996 -21.3597,22.81951 -28.2783,37.23749 -7.6805,16.00563 -10.2336,25.1081 -12.3735,44.115 -3.6336,32.27434 -0.085,55.09297 15.4522,99.3676 4.7393,13.5049 5.6849,20.7105 4.3204,32.9212 -0.638,5.7098 -2.4938,14.4405 -4.1662,19.5999 -3.7331,11.5173 -15.9699,35.0687 -21.3607,41.1113 -9.5336,10.6866 -20.5734,21.4047 -25.0046,24.276 l -4.7805,3.0976 4.3757,4.5632 c 5.95,6.205 7.8243,9.7185 12.0892,22.663 4.1304,12.5361 5.3442,22.3969 4.9675,40.3539 -0.209,9.9593 -0.6639,12.7384 -3.31,20.2193 -2.9571,8.3601 -9.8078,21.2908 -15.9468,30.0996 -3.8547,5.5311 -11.7168,12.9442 -21.5282,20.2986 -23.6855,17.7544 -41.156,50.6391 -46.9791,88.4288 -2.6372,17.1143 -2.1562,25.6173 3.3654,59.5 1.1652,7.15 3.496,19.975 5.1796,28.5 3.9825,20.1654 4.7152,36.6693 2.4195,54.5 -1.2102,9.4002 -2.4646,14.7999 -4.5299,19.5 -1.571,3.575 -3.8712,9.2 -5.1117,12.5 -1.2404,3.3 -2.826,6.675 -3.5234,7.5 -1.7051,2.017 -5.0603,9.8695 -8.1182,19 -1.3816,4.125 -6.7943,14.925 -12.0282,24 -25.9049,44.9154 -34.6137,58.227 -48.74,74.5 -11.8149,13.6104 -12.6761,14.2897 -16.2746,12.8377 z m -68.4234,-76.0123 c -2.5812,-0.6826 -5.1027,-5.2835 -5.0685,-9.2483 0.048,-5.5432 1.8402,-8.9179 5.7192,-10.7677 4.0572,-1.9347 4.0231,-1.7802 1.9571,-8.887 -1.4831,-5.1018 -3.4325,-8.0697 -3.436,-5.2314 0,1.4351 -7.4271,8.809 -8.8705,8.809 -0.4938,0 -1.6804,-1.1943 -2.6369,-2.6541 -1.5221,-2.323 -1.8545,-2.4477 -2.6647,-1 -0.5091,0.9098 -2.0192,1.6541 -3.3557,1.6541 -3.0589,0 -5.7995,-5.0561 -8.5322,-15.7409 -4.1385,-16.1814 -1.2414,-27.2591 7.1291,-27.2591 2.9673,0 5.2779,2.148 6.9,6.4146 1.4887,3.9155 -0.2739,12.2843 -3.6285,17.2275 -2.3123,3.4073 -2.4361,4.0904 -1.3804,7.6141 1.3856,4.6246 2.8987,4.4444 5.3256,-0.6342 1.6883,-3.5331 2.0093,-3.7172 5.9766,-3.4278 3.2873,0.2398 4.4553,0.8357 5.4098,2.76 1.1136,2.2448 1.2435,1.9462 1.5234,-3.5 l 0.306,-5.9542 3.4559,-0.3287 c 2.4273,-0.2309 3.841,0.198 4.75,1.4411 1.5035,2.0562 1.7227,11.13 0.3557,14.7255 -0.6676,1.756 -0.3825,4.7319 0.9882,10.3151 3.9116,15.9322 1.6134,24.6587 -6.3816,24.231 -1.1925,-0.064 -2.9212,-0.3152 -3.8416,-0.5586 z m 5.5664,-4.9072 c 0.9503,-2.4763 0.7108,-11.236 -0.3246,-11.8759 -1.2782,-0.79 -4.0684,3.4039 -4.0684,6.1151 0,2.9416 1.7192,7.3426 2.8683,7.3426 0.5047,0 1.1909,-0.7118 1.5247,-1.5818 z m -24.9187,-48.3685 c 1.9743,-3.8178 1.9989,-11.4121 0.042,-13.0359 -1.2307,-1.0214 -1.6567,-0.7756 -2.5,1.4426 -1.6857,4.4338 -1.2517,14.5436 0.6244,14.5436 0.1692,0 0.9942,-1.3277 1.8333,-2.9503 z m -27.3094,44.0733 c -1.0737,-0.6806 -1.2189,-4.7409 -0.7411,-20.7346 0.3267,-10.9386 0.7945,-22.1384 1.0395,-24.8884 0.2449,-2.75 0.6833,-12.425 0.9741,-21.5 0.2908,-9.075 0.7697,-20.55 1.0642,-25.5 0.6405,-10.763 1.0167,-19.4268 2.9745,-68.5 0.8229,-20.625 1.7298,-40.2 2.0154,-43.5 0.8441,-9.7519 1.7851,-30.0891 2.0128,-43.5 0.2285,-13.4581 2.2125,-58.9849 2.9633,-68 0.252,-3.025 0.7204,-13.375 1.0409,-23 0.3205,-9.625 0.7674,-19.75 0.9931,-22.5 0.4936,-6.013 1.2813,-26.8131 2.045,-54 0.309,-11 0.7372,-20.675 0.9516,-21.5 0.2144,-0.825 0.6539,-9.825 0.9767,-20 0.3228,-10.175 0.778,-22.1 1.0116,-26.5 0.7959,-14.9944 1.5619,-31.9791 2.0521,-45.5 0.5593,-15.429 1.1668,-29.6664 1.9414,-45.5 0.2959,-6.05 0.7619,-19.48507 1.0354,-29.85572 0.2735,-10.37065 0.6792,-19.15016 0.9016,-19.51002 0.2224,-0.35986 0.69,-10.32479 1.039,-22.14428 0.349,-11.81949 0.8185,-25.31498 1.0432,-29.98998 0.3947,-8.21335 0.992,-21.49123 2.0016,-44.5 0.2655,-6.05 0.7178,-16.175 1.0052,-22.5 1.03,-22.67082 2.5028,-56.91574 3.4621,-80.5 0.537,-13.2 1.2211,-29.625 1.5205,-36.5 0.2993,-6.875 0.9883,-22.85 1.5312,-35.5 0.5429,-12.65 1.2125,-27.725 1.4881,-33.5 0.2756,-5.775 0.7328,-16.35 1.016,-23.5 0.2833,-7.15 0.952,-22.225 1.4861,-33.5 0.5341,-11.275 1.2117,-26.35 1.5057,-33.5 0.2941,-7.15 0.9524,-21.325 1.463,-31.5 0.5105,-10.175 1.2043,-25.29203 1.5416,-33.59339 l 0.6133,-15.09339 -10.8168,-0.52901 c -16.7821,-0.82075 -120.3001,0.0841 -131.6347,1.15057 -6.3013,0.59289 -10.54027,0.59792 -11.24467,0.0133 -0.62184,-0.51608 -8.51215,-0.95245 -17.53404,-0.9697 -9.02188,-0.0173 -200.62116,-0.25499 -425.77617,-0.52829 l -409.37275,-0.49691 0.68677,2.2734 c 1.8416,6.09621 -0.28634,7.71951 -3.40404,2.59676 -1.67413,-2.7508 -2.66991,-3.34832 -5.77991,-3.46824 -2.06653,-0.0797 -4.98854,-0.46844 -6.49336,-0.86391 -6.39634,-1.68096 -13.40592,2.05059 -15.98348,8.50879 l -0.99779,2.5 -1.05742,-2.27973 c -0.85984,-1.85375 -0.63623,-2.84942 1.19671,-5.32861 1.23977,-1.67688 2.09487,-3.20814 1.90022,-3.40279 -0.19465,-0.19465 -25.621937,-0.49678 -56.505079,-0.67139 -49.6492521,-0.2807 -58.9032219,-0.63799 -57.23379262,-2.20975 0.22916667,-0.21576 29.37159662,-0.66996 64.76095462,-1.00934 54.695597,-0.52452 64.663427,-0.84058 66.472507,-2.10771 2.75182,-1.92744 6.35085,-1.90698 7.44173,0.0423 0.76871,1.37361 44.34803,1.52805 419.19998,1.4856 348.29217,-0.0394 418.52622,-0.27164 419.44179,-1.38668 1.5893,-1.93554 5.83682,-4.6319 7.29654,-4.6319 0.68849,0 1.94992,1.35 2.80317,3 l 1.55136,3 80.39487,0 80.3949,0 0.5241,-2.75 c 0.2883,-1.5125 0.8012,-11.3 1.1398,-21.75 0.3386,-10.45 0.8052,-22.6 1.037,-27 0.2317,-4.4 1.0963,-21.95 1.9212,-39 0.825,-17.05 1.7209,-35.05 1.9911,-40 0.2701,-4.95 0.7279,-13.725 1.0173,-19.5 0.2894,-5.775 1.2396,-24 2.1115,-40.5 0.872,-16.5 1.435,-31.48894 1.2511,-33.30876 -0.3026,-2.99634 -0.9007,-3.54938 -6.3342,-5.85722 -3.3,-1.40166 -8.925,-3.56765 -12.5,-4.81331 -6.2499,-2.17769 -27.9025,-13.33528 -31,-15.9743 -0.825,-0.70289 -8.25,-4.73859 -16.5,-8.96824 l -15,-7.69026 -16.8622,-16.83232 c -12.8364,-12.81375 -16.6563,-17.19353 -16,-18.34529 0.9001,-1.57948 9.4859,-9.35601 17.8973,-16.2103 2.6997,-2.2 7.8463,-6.75365 11.4368,-10.11923 17.0043,-15.93922 25.3568,-21.01786 40.3634,-24.54247 10.4869,-2.46307 18.308,-5.73806 34.8385,-14.5883 6.4205,-3.4375 12.5659,-6.25 13.6564,-6.25 1.5009,0 1.8534,-0.49385 1.451,-2.03288 -0.3156,-1.20659 0.2305,-2.87914 1.3436,-4.11489 1.7657,-1.9604 1.86,-4.01741 1.6142,-35.217117 -0.2341,-29.719463 -0.1053,-32.935017 1.25,-31.193983 0.831,1.067621 1.5179,3.092621 1.5263,4.5 0.011,1.829846 0.2619,2.1696 0.8809,1.192537 0.6562,-1.035689 1.3179,-1.103546 2.7347,-0.280409 1.028,0.597258 1.3066,1.099609 0.6191,1.116333 -1.3478,0.03279 -1.7538,9.261314 -0.6503,14.779017 0.5904,2.952064 0.6454,2.975854 3.5383,1.532683 3.8904,-1.940831 5.212,-1.277589 8.2839,4.157349 1.4179,2.508748 3.7483,6.631145 5.1786,9.160882 1.4629,2.587469 2.9788,4.221163 3.4654,3.7346 1.0176,-1.017623 4.5249,-22.456965 5.4941,-33.584122 0.3712,-4.2625 1.0605,-7.75 1.5318,-7.75 2.0183,0 3.9069,6.187096 3.8768,12.70034 -0.04,8.707902 -3.1745,26.863275 -5.3706,31.110135 -1.9516,3.773961 -5.8121,5.680492 -8.543,4.218978 -0.9977,-0.533958 -3.2031,-2.671522 -4.901,-4.750143 l -3.0869,-3.77931 -0.034,9.127555 c -0.035,9.57374 -1.0131,11.908195 -4.6916,11.199769 -2.0838,-0.401291 -3.0808,-3.509618 -3.3125,-10.327324 -0.2907,-8.550293 -1.6774,-9.895593 -2.5004,-2.425714 -0.9338,8.474889 -0.2775,17.014384 1.8387,23.925714 0.9263,3.025 2.5826,9.775 3.6807,15 1.0981,5.225 3.3216,14.9 4.941,21.5 1.6194,6.6 4.5647,18.75 6.545,27 6.7161,27.97984 20.0477,53.4184 36.4229,69.5 8.0864,7.94153 15.6198,16.36052 22.8174,25.5 3.4651,4.4 12.9724,14.75 21.1273,23 8.1549,8.25 19.0506,19.87524 24.2126,25.83387 32.6313,37.6673 35.6369,41.25191 39.6255,47.25958 2.068,3.11475 4.9889,7.51794 6.491,9.78487 1.5021,2.26692 2.7396,4.9233 2.75,5.90306 0.044,4.15519 -3.0576,2.63817 -11.1523,-5.45462 -7.7024,-7.70054 -23.3265,-19.83153 -40.3288,-31.3125 -3.85,-2.59974 -10.9959,-8.16648 -15.8797,-12.37053 -19.7172,-16.97278 -25.1452,-21.36528 -29.5321,-23.89848 -2.5235,-1.45719 -6.1632,-3.86503 -8.0882,-5.35076 -1.925,-1.48572 -8.9,-5.49547 -15.5,-8.91056 -6.6,-3.41508 -13.3941,-7.25427 -15.098,-8.53152 -1.7039,-1.27725 -5.3039,-3.54223 -8,-5.03328 -2.6961,-1.49106 -6.5971,-4.03918 -8.6689,-5.6625 -2.1267,-1.66632 -5.5013,-3.18411 -7.75,-3.48572 l -3.9831,-0.53425 0,9.88167 c 0,5.43492 0.4486,20.45667 0.993,33.38167 0.5443,12.925 1.6681,42.4 2.4973,65.5 3.0024,83.64725 3.6502,99.07637 4.3455,103.5 l 0.7073,4.5 105.2268,0.25459 c 57.8748,0.14002 105.2269,0.62648 105.2269,1.08102 0,2.88179 -6.3372,3.0962 -106.9427,3.61824 -59.2224,0.30731 -102.8257,0.91452 -103.3504,1.43925 -0.5436,0.54355 -0.4689,11.87902 0.1861,28.25728 1.0456,26.14597 2.8531,74.80909 5.1015,137.34962 4.8266,134.2545 7.9227,204.47669 9.1134,206.70167 0.5055,0.94451 0.6385,4.1048 0.2955,7.02286 -0.5507,4.68592 1.1954,70.7527 2.0705,78.33905 0.8345,7.23404 2.8276,77.20844 2.2426,78.73284 -1.047,2.7283 -3.2204,1.9733 -4.4513,-1.5464 -0.6252,-1.7875 -1.6141,-15.175 -2.1976,-29.75002 -2.5984,-64.90693 -3.0738,-77.6174 -3.5721,-95.5 -0.4356,-15.63011 -1.9738,-35.45185 -2.8013,-36.0961 -0.1068,-0.0832 -3.3442,-0.59698 -7.1942,-1.14179 l -7,-0.99055 7.8431,-0.13578 7.8432,-0.13578 -0.6186,-14.25 c -0.3402,-7.8375 -0.8358,-19.425 -1.1014,-25.75 -0.2655,-6.325 -0.7024,-16.675 -0.9707,-23 -0.2683,-6.325 -0.7181,-19.825 -0.9996,-30 -0.2815,-10.175 -0.9624,-29.975 -1.513,-44 -2.3037,-58.68165 -2.9676,-76.37846 -3.47,-92.5 -0.2913,-9.35 -0.7414,-22.85 -1.0001,-30 -0.2587,-7.15 -0.7235,-21.325 -1.0329,-31.5 -0.3093,-10.175 -0.7487,-20.975 -0.9764,-24 -0.2278,-3.025 -0.6917,-16.3 -1.031,-29.5 -0.3394,-13.2 -0.8398,-24.7875 -1.1122,-25.75 -0.4387,-1.55052 -1.9642,-1.75 -13.3825,-1.75 l -12.8873,0 -0.5533,3.25 c -0.3044,1.7875 -1.0114,13.6 -1.5712,26.25 -0.5598,12.65 -1.4503,32.675 -1.9789,44.5 -0.5286,11.825 -1.4011,32.3 -1.9389,45.5 -0.5379,13.2 -1.4675,34.8 -2.066,48 -4.1564,91.68158 -4.0593,88.56403 -2.788,89.52461 0.3819,0.28854 0.2495,3.21354 -0.2942,6.5 -1.2364,7.47284 -3.4353,47.94924 -4.4126,81.22539 l -0.7417,25.25 3.3771,0.0997 c 1.8574,0.0548 4.5021,0.45997 5.8771,0.90032 1.9153,0.6134 1.171,0.82395 -3.1826,0.90032 -4.5075,0.0791 -5.783,0.46156 -6.168,1.84968 -0.267,0.9625 -0.7639,8.95 -1.1042,17.75 -0.3403,8.8 -1.2769,30.85 -2.0813,49 -0.8045,18.15 -1.9124,44.025 -2.4622,57.5 -0.5498,13.475 -1.4507,34.85 -2.002,47.5 -0.5513,12.65 -1.6642,39.2 -2.4732,59 -0.8089,19.8 -1.7179,41.175 -2.0201,47.5 -0.3021,6.325 -1.2132,29.5 -2.0246,51.5 -0.8115,22 -1.9218,49.675 -2.4674,61.5 -1.7216,37.3136 -2.9632,65.6955 -4.0028,91.5 -0.554,13.75 -1.4695,34.9 -2.0345,47 -1.1072,23.7103 -5.5859,128.7457 -6.5026,152.5 -0.9786,25.3567 -2.5264,43.4126 -3.7905,44.2164 -1.5005,0.9542 -1.8825,0.9441 -3.5191,-0.093 z m 78.5142,-1106.72913 c 0.4531,-1.18072 -0.3716,-30.25602 -2.2236,-78.39387 -0.5004,-13.00538 -1.581,-44.87487 -3.5435,-104.5 -0.7696,-23.38303 -1.5315,-35.40748 -2.2954,-36.22768 -0.6288,-0.67522 -2.5649,-1.51198 -4.3023,-1.85946 -3.1022,-0.62044 -3.1689,-0.55352 -3.7133,3.72768 -0.4613,3.62754 -2.3224,41.83195 -5.1324,105.35946 -0.292,6.6 -1.1772,25.5 -1.9672,42 -2.7206,56.82557 -2.9752,69.58394 -1.4085,70.60353 0.7739,0.50366 6.5034,0.8602 12.7321,0.79232 8.6141,-0.0939 11.4517,-0.45341 11.8541,-1.50198 z m 134.3209,-134.96482 c 0,-0.64341 -6.9668,-8.93851 -14.5587,-17.33455 -2.7823,-3.07698 -9.3073,-10.53904 -14.5,-16.58237 -5.1927,-6.04333 -15.1062,-16.61833 -22.0299,-23.5 -6.9238,-6.88167 -15.7463,-16.33713 -19.6055,-21.01213 -3.8593,-4.675 -11.6725,-13.225 -17.3626,-19 -18.7532,-19.03282 -23.8148,-26.38122 -35.1292,-51 -1.8958,-4.125 -4.4593,-11.325 -5.6968,-16 -1.2374,-4.675 -3.1971,-11.875 -4.3548,-16 -1.1578,-4.125 -2.0507,-8.67824 -1.9844,-10.11831 0.122,-2.64663 -3.9231,-15.39806 -5.2928,-16.6848 -0.7673,-0.72078 -0.4202,12.26722 2.0776,77.74054 1.5989,41.91118 1.4821,41.25464 7.5763,42.59315 2.6962,0.59218 9.0997,4.4819 24.1147,14.64806 3.1647,2.14268 7.6647,4.79905 10,5.90305 15.1502,7.16197 32.2106,17.89931 42.2461,26.58847 15.5549,13.4681 27.7061,23.39274 33,26.95318 19.4263,13.06524 21.5,14.30038 21.5,12.80571 z m -142,-97.34637 c 0,-7.9942 -1.9069,-64.85939 -2.4817,-74.00482 -0.6258,-9.95773 -1.4903,-11.8629 -1.5858,-3.49453 -0.037,3.25417 -0.2323,7.26667 -0.4338,8.91667 -0.5967,4.88584 -2.6162,46.83588 -2.5346,52.64733 0.041,2.94397 -0.2127,7.6816 -0.5645,10.52806 -0.5771,4.66861 -0.3876,5.42751 1.9349,7.75 4.0807,4.08068 5.6655,3.42534 5.6655,-2.34271 z M 1161.5411,248.75 c 0.2654,-1.2375 1.1874,-16.65 2.0488,-34.25 2.0204,-41.27704 3.4146,-68.39555 4.4471,-86.5 0.4548,-7.975 0.7313,-14.61051 0.6144,-14.74558 -0.117,-0.13507 -6.0271,2.92281 -13.1337,6.79529 -19.6805,10.72413 -28.5104,14.62977 -38.6539,17.09719 -14.9742,3.64251 -22.0297,7.78778 -39.7481,23.3531 -3.1304,2.75 -8.0868,6.8 -11.0142,9 -7.9396,5.96662 -13.0059,10.59226 -12.9969,11.86636 0.012,1.65203 27.6962,28.72538 32.992,32.26369 2.475,1.65363 7.425,4.4971 11,6.31882 8.7015,4.43402 16.6359,8.82146 21.5,11.88869 5.7732,3.64049 22.1625,11.5734 28,13.55288 2.75,0.93251 6.575,2.55728 8.5,3.6106 4.5956,2.5146 5.8619,2.46527 6.4445,-0.25104 z m 10.2178,-85 c -0.2774,-0.6875 -0.5044,-0.125 -0.5044,1.25 0,1.375 0.227,1.9375 0.5044,1.25 0.2774,-0.6875 0.2774,-1.8125 0,-2.5 z m 44.0465,712.62552 c -2.1985,-2.19858 -0.023,-21.00713 3.4251,-29.61027 1.5596,-3.89118 7.3775,-5.47246 10.8661,-2.95337 3.9423,2.84668 6.7686,9.47295 7.4581,17.48598 0.7975,9.26806 -0.2544,13.20214 -3.53,13.20214 -2.3105,0 -2.4112,-0.25796 -2.0795,-5.32606 l 0.3486,-5.32606 -4.8486,0.69291 c -2.6667,0.38111 -5.1591,0.97783 -5.5386,1.32606 -0.3795,0.34823 -0.8295,2.88315 -1,5.63315 -0.2572,4.1479 -0.6579,5.04979 -2.3512,5.29218 -1.1226,0.1607 -2.3601,-0.0268 -2.75,-0.41666 z m 13.7094,-15.98251 c 2.0237,-0.77657 2.0137,-4.27304 -0.027,-9.37277 -2.7284,-6.81896 -5.6851,-4.4522 -7.0712,5.66024 -0.5865,4.27905 -0.5634,4.31952 2.4621,4.31952 1.6798,0 3.7659,-0.27314 4.6359,-0.60699 z M 1157.5966,862 c -0.7189,-1.16319 6.2432,-1.18331 14.5,-0.0419 5.0403,0.69676 4.69,0.77207 -4.191,0.9011 -5.5421,0.0805 -9.9556,-0.28732 -10.309,-0.8592 z m 118.75,-63.81046 c -1.8769,-0.89542 -3.25,-2.30594 -3.25,-3.33862 0,-1.07928 -0.5286,-1.58532 -1.3333,-1.2765 -0.7561,0.29014 -1.3334,-0.15637 -1.3334,-1.03139 0,-1.9693 3.0395,-2.00368 4.6587,-0.0527 0.7827,0.9431 2.1128,1.27049 3.6224,0.8916 2.2941,-0.57577 3.5231,1.07223 1.3419,1.7993 -0.574,0.19134 -0.1065,1.35384 1.039,2.58333 1.8834,2.02162 1.9115,2.22301 0.2937,2.10545 -0.984,-0.0715 -3.2515,-0.82771 -5.039,-1.68047 z M 1252.0966,795 c 0,-0.55 -0.9551,-1 -2.1224,-1 -1.5564,0 -1.8599,-0.33338 -1.1379,-1.25 0.5415,-0.6875 1.2801,-2.4875 1.6415,-4 0.4343,-1.81822 1.3081,-2.75 2.5788,-2.75 1.0571,0 2.2001,-0.45 2.54,-1 1.0047,-1.62561 1.923,-1.1503 3.2344,1.67413 1.395,3.00438 0,5.82072 -2.4266,4.89048 -0.8279,-0.31767 -1.7459,0.45735 -2.3151,1.95449 -0.9598,2.52452 -1.9927,3.29213 -1.9927,1.4809 z m 165.6836,-13.38221 c -0.3962,-1.03245 0.1,-2.08997 1.3443,-2.86731 1.0847,-0.67737 1.9721,-1.75018 1.9721,-2.38404 0,-1.35553 3.0121,-2.71187 3.8931,-1.75307 0.3338,0.36324 0.044,0.86133 -0.6431,1.10687 -0.6875,0.24553 -1.25,1.11048 -1.25,1.92211 0,0.81163 -0.4286,1.21077 -0.9525,0.887 -0.5239,-0.32378 -1.5789,0.60671 -2.3444,2.06775 -1.1405,2.17682 -1.5052,2.3611 -2.0195,1.02069 z m 5.3164,-1.05877 c 0,-0.24254 0.45,-0.7191 1,-1.05902 0.55,-0.33992 1,-0.14148 1,0.44098 0,0.58246 -0.45,1.05902 -1,1.05902 -0.55,0 -1,-0.19844 -1,-0.44098 z m -9,-3 c 0,-0.24254 0.45,-0.7191 1,-1.05902 0.55,-0.33992 1,-0.14148 1,0.44098 0,0.58246 -0.45,1.05902 -1,1.05902 -0.55,0 -1,-0.19844 -1,-0.44098 z m 16,-11.5 c 0,-0.51754 0.4448,-1.21592 0.9885,-1.55194 0.5669,-0.35034 0.7346,0.0511 0.3931,0.94098 -0.6648,1.73242 -1.3816,2.04939 -1.3816,0.61096 z M 131.34657,537.39876 C 128.53306,536.12609 130.41394,535 135.35317,535 c 2.89113,0 6.71613,-0.41859 8.5,-0.93019 3.33538,-0.95658 3.8461,-0.56929 2.35416,1.78522 -0.88842,1.40206 -12.50601,2.60889 -14.86076,1.54373 z m -14.66111,-6.47549 c -1.49312,-1.77447 -2.58889,-4.31402 -2.58889,-6 0,-3.96183 1.3236,-3.68272 2.87448,0.60614 0.70193,1.94118 2.47524,4.64118 3.94067,6 2.55506,2.36919 2.57614,2.47059 0.51353,2.47059 -1.18299,0 -3.31589,-1.38453 -4.73979,-3.07673 z M 151.79893,526.25 c -0.22863,-0.4125 0.52837,-2.775 1.68221,-5.25 l 2.09789,-4.5 0.31868,3.20379 c 0.45769,4.6012 -2.53114,9.37468 -4.09878,6.54621 z m -40.61449,-7.64412 c -2.65063,-3.19382 -2.07071,-15.92206 0.60359,-13.24776 0.97528,0.97529 2.08698,14.64188 1.19104,14.64188 -0.35069,0 -1.15827,-0.62736 -1.79463,-1.39412 z m 41.35293,-14.15208 c -0.78123,-5.2096 0.082,-6.82688 2.14096,-4.0111 1.90083,2.59954 1.88656,8.5573 -0.0205,8.5573 -0.94068,0 -1.67472,-1.57375 -2.12047,-4.5462 z m 772.92959,-25.05811 c -3.77871,-1.98237 -8.31824,-4.34487 -10.08782,-5.25 -3.62334,-1.8533 -4.06172,-2.90947 -1.59977,-3.85421 2.22527,-0.85392 13.36193,5.12772 17.50472,9.40199 4.1155,4.24612 2.70681,4.174 -5.81713,-0.29778 z M 1381.5691,471.75 c -1.3395,-2.8875 -2.9692,-7.62925 -3.6215,-10.53722 -1.0782,-4.80686 -1.0027,-5.53369 0.8304,-8 2.1432,-2.88334 6.8105,-4.12087 8.6404,-2.29096 0.7709,0.77091 0.2232,1.07818 -1.9218,1.07818 -3.8781,0 -5.4,1.60648 -5.4,5.7 0,2.29673 0.4656,3.3 1.5314,3.3 0.8422,0 1.7904,0.675 2.107,1.5 0.4003,1.04335 2.1413,1.5317 5.7186,1.60412 l 5.143,0.10411 -4.8326,1.47735 -4.8327,1.47735 0.6765,4.91853 c 0.9093,6.61125 -0.8863,6.46388 -4.0387,-0.33146 z M 128.09517,468.1926 c -8.56001,-8.88087 -11.38335,-18.60362 -6.68415,-23.01829 3.05372,-2.86881 7.23958,-2.75184 11.25996,0.31465 4.79656,3.65851 6.00974,8.23626 3.88113,14.64489 -1.57769,4.75 -1.58348,5.37466 -0.079,8.52967 2.08771,4.37798 2.09786,4.33648 -1.06043,4.33648 -1.89702,0 -4.0423,-1.40938 -7.31756,-4.8074 z m 3.83419,-13.57464 C 132.41163,452.13078 129.38072,448 127.07352,448 c -2.90061,0 -2.70486,5.24936 0.27305,7.32229 2.67525,1.86224 4.12844,1.6389 4.58279,-0.70433 z M 1399.6505,471.75 c -0.2109,-0.6875 -0.6177,-2.825 -0.9042,-4.75 -0.2864,-1.925 -0.831,-4.9625 -1.2102,-6.75 -0.5365,-2.52866 -0.3566,-3.25 0.8105,-3.25 0.8667,0 1.7533,1.26667 2.1,3 0.4425,2.21269 1.162,3 2.7416,3 1.7525,0 2.0201,-0.40889 1.4729,-2.25 -0.3678,-1.2375 -0.9295,-3.9375 -1.2483,-6 -0.8903,-5.76076 1.3146,-4.59687 3.3153,1.75 0.9536,3.025 2.0286,5.5 2.389,5.5 0.3604,0 0.7318,2.025 0.8254,4.5 0.1864,4.92708 -1.3283,5.99156 -2.8459,2 -1.1173,-2.9386 -4,-3.35788 -4,-0.58179 0,4.11952 -2.504,6.90374 -3.4461,3.83179 z M 143.29657,469.8 c -0.66,-0.66 -1.2,-2.01611 -1.2,-3.01357 0,-0.99746 -0.54634,-2.6884 -1.2141,-3.75765 C 139.00574,460.02366 143.21513,456 148.2357,456 c 4.24979,0 5.86087,1.86907 5.86087,6.7994 0,6.04455 -7.13264,10.66796 -10.8,7.0006 z m 5.78469,-7.05 c 0.008,-0.4125 -0.43469,-0.75 -0.98469,-0.75 -0.55,0 -0.99311,1.0125 -0.98469,2.25 0.0124,1.81944 0.20082,1.96296 0.98469,0.75 0.53316,-0.825 0.97627,-1.8375 0.98469,-2.25 z m 848.36519,-1.30921 c -2.2173,-2.2173 -2.47455,-3.12378 -1.92551,-6.78501 0.56346,-3.7574 0.409,-4.24272 -1.39349,-4.3785 -1.18139,-0.089 -2.49616,0.76007 -3.15122,2.03501 -1.9787,3.85116 -6.18664,7.68771 -8.43189,7.68771 -3.241,0 -6.77147,-3.24376 -9.72368,-8.93402 -3.24488,-6.25435 -3.20449,-14.29593 0.1042,-20.7499 3.92518,-7.65648 10.33896,-9.57056 16.02823,-4.78335 3.86073,3.24859 5.49001,8.27499 4.91803,15.17233 l -0.45452,5.48093 2.82029,-0.56405 c 3.70925,-0.74185 5.18391,1.76071 3.82651,6.49373 -2.21638,7.72804 -0.12174,9.57615 6.1497,5.42591 2.2369,-1.48027 4.2819,-2.47651 4.5445,-2.21387 1.4062,1.40611 -6.5689,8.67229 -9.5183,8.67229 -0.6785,0 -2.38528,-1.15164 -3.79285,-2.55921 z m -11.5734,-8.45506 c 3.37756,-4.98528 5.51799,-13.28333 4.69018,-18.18304 C 989.80658,430.32409 986.2704,426 983.36453,426 c -2.70495,0 -6.48694,2.98697 -5.85782,4.62644 0.29948,0.78041 -0.3453,2.30872 -1.43282,3.39624 -4.19827,4.19827 -1.90961,13.71568 3.98805,16.58434 3.77655,1.83695 3.61085,3.99339 -0.21537,2.80276 -0.9625,-0.2995 -1.75,-0.0866 -1.75,0.47314 0,1.24678 3.12642,3.16275 4.5,2.75775 0.55,-0.16217 2.02442,-1.80689 3.27648,-3.65494 z m -88.46393,4.76022 c -7.41972,-6.07308 -10.90909,-10.55187 -9.3929,-12.05629 0.92895,-0.92173 2.4278,0.16163 6.65519,4.81034 4.58365,5.04046 9.19924,11.51061 8.20084,11.49595 -0.15162,-0.002 -2.61003,-1.91472 -5.46313,-4.25 z m -25.35906,-37.7617 c -5.90915,-10.72356 -6.95473,-13.27783 -5.93713,-14.50396 1.03186,-1.24331 2.2649,0.52829 7.493,10.76575 6.82769,13.36969 8.16509,16.75396 6.62089,16.75396 -0.55248,0 -4.23203,-5.85709 -8.17676,-13.01575 z M 960.29152,425.5 c -0.0204,-1.65 0.18706,-2.44606 0.46099,-1.76903 0.27392,0.67703 0.29059,2.02703 0.0371,3 -0.25354,0.97297 -0.47766,0.41903 -0.49804,-1.23097 z M 856.66407,379.49961 c -3.67009,-4.81174 -5.5675,-9.70581 -5.5675,-14.3605 0,-6.06594 2.63992,-6.23829 3.21915,-0.21017 0.25231,2.62582 1.38956,6.75351 2.52723,9.17264 2.30136,4.89359 3.6244,8.89842 2.9397,8.89842 -0.24679,0 -1.65015,-1.57518 -3.11858,-3.50039 z m -10.28123,-41.53169 c -2.95047,-8.6205 -4.71122,-18.94297 -3.44686,-20.20733 1.49147,-1.49147 2.67104,1.63077 4.62396,12.23941 2.35736,12.80563 1.79095,16.63976 -1.1771,7.96792 z m 34.71373,1.07022 c 0,-2.82897 0.18528,-3.00935 2.06033,-2.00585 2.40312,1.28611 2.20061,4.29378 -0.32181,4.77955 -1.35031,0.26005 -1.73852,-0.35932 -1.73852,-2.7737 z m -44.36084,-47.53608 c -0.35154,-0.9161 -0.63916,-8.09873 -0.63916,-15.9614 0,-11.65488 0.2846,-14.53197 1.54061,-15.57436 1.3774,-1.14315 1.52694,0.41535 1.41153,14.71167 -0.12364,15.31775 -0.85359,20.6272 -2.31298,16.82409 z m 0.60146,-50.70631 c -0.93002,-3.51023 -0.98789,-6.55604 -0.228,-12 2.53131,-18.13444 4.28912,-23.8165 7.97878,-25.79115 1.95366,-1.04556 1.95412,-1.02636 0.0528,2.22036 -2.25294,3.84712 -5.03841,18.5422 -5.92822,31.27504 l -0.62896,9 -1.24638,-4.70425 z m 13.81703,-56.37908 c 0.0317,-1.60417 0.88057,-6.06667 1.88638,-9.91667 1.19205,-4.5629 1.47553,-7.22219 0.81424,-7.6382 -0.55798,-0.351 -0.70075,-1.14585 -0.31729,-1.76631 0.38347,-0.62046 1.04682,-0.91205 1.47412,-0.64796 0.42729,0.26408 1.8587,-1.83277 3.1809,-4.65968 1.3222,-2.8269 2.99864,-5.73563 3.72543,-6.46384 2.44055,-2.44533 3.12846,-1.35371 1.21371,1.92599 -1.04358,1.7875 -4.0072,9.55 -6.58583,17.25 -2.57862,7.7 -4.85961,14.1875 -5.06886,14.41667 -0.20925,0.22916 -0.35451,-0.89584 -0.3228,-2.5 z M 875.63157,132 c 1.77737,-6.75438 12.09818,-25.7126 16.74022,-30.75 2.42214,-2.628432 4.74983,-3.08677 2.53927,-0.5 -2.12485,2.48647 -9.874,15.26732 -15.30932,25.25 -2.54542,4.675 -4.332,7.375 -3.97017,6 z m 22.59282,-43 c 3.43299,-7.177481 24.18151,-32.024006 25.57693,-30.628584 0.36231,0.362312 -3.71446,5.427465 -23.48871,29.183377 -2.16362,2.599268 -2.87603,3.092312 -2.08822,1.445207 z m 35.43543,-41.304219 c 0.74648,-1.945295 17.06626,-16.855183 21.27899,-19.440658 5.70922,-3.503917 7.09169,-2.643929 1.5792,0.982372 -2.70679,1.780621 -8.79239,6.955621 -13.52355,11.5 -8.48782,8.152731 -10.31592,9.515441 -9.33464,6.958286 z M 985.88309,6.7572285 c 1.82197,-2.1953406 11.05463,-6.93676008 12.80833,-6.57770071 0.86088,0.17625972 -1.93409,2.04798371 -6.21104,4.15938671 -4.27696,2.111403 -7.24574,3.1996443 -6.59729,2.418314 z"
     id="path3090"
     style="fill:#000000" />
</svg>
