<?xml version="1.0" encoding="UTF-8" standalone="no"?>
<!-- Created with Inkscape (http://www.inkscape.org/) -->

<svg
   xmlns:dc="http://purl.org/dc/elements/1.1/"
   xmlns:cc="http://creativecommons.org/ns#"
   xmlns:rdf="http://www.w3.org/1999/02/22-rdf-syntax-ns#"
   xmlns:svg="http://www.w3.org/2000/svg"
   xmlns="http://www.w3.org/2000/svg"
   version="1.1"
   width="1637.1154"
   height="2066.7471"
   id="svg3087">
  <metadata
     id="metadata3093">
    <rdf:RDF>
      <cc:Work
         rdf:about="">
        <dc:format>image/svg+xml</dc:format>
        <dc:type
           rdf:resource="http://purl.org/dc/dcmitype/StillImage" />
        <dc:title></dc:title>
      </cc:Work>
    </rdf:RDF>
  </metadata>
  <defs
     id="defs3091" />
  <path
     d="m 1286.517,2065.5727 c 0,-0.5742 3.825,-5.0801 8.5,-10.0131 4.675,-4.933 8.5,-9.4011 8.5,-9.9291 0,-0.528 3.505,-4.6846 7.7888,-9.2369 4.2839,-4.5523 9.2988,-10.9769 11.1443,-14.2769 1.8454,-3.3 5.3227,-8.9318 7.7272,-12.5151 2.4045,-3.5833 5.9574,-10.7833 7.8953,-16 1.938,-5.2167 5.2865,-12.4099 7.4412,-15.9849 6.9469,-11.5261 13.196,-26.2124 16.1693,-38 2.8124,-11.1496 3.6765,-18.4904 5.7679,-49 1.1074,-16.1538 -0.025,-37.2835 -2.4756,-46.1756 -1.9849,-7.204 -6.1977,-25.5344 -8.1183,-35.3244 -1.9202,-9.7879 -1.1973,-33.8886 1.2748,-42.5 0.8684,-3.025 2.2551,-7.975 3.0815,-11 1.9879,-7.2767 12.6444,-30.0722 17.2967,-37 8.5076,-12.6686 18.8466,-28.6721 20.0275,-31 0.6975,-1.375 3.524,-5.875 6.2811,-10 2.7571,-4.125 6.1196,-9.525 7.4723,-12 1.3527,-2.475 4.3333,-6.975 6.6236,-10 5.9889,-7.9101 9.998,-14.3401 8.4425,-13.5405 -0.7371,0.3789 0.01,-0.3159 1.6599,-1.544 4.4828,-3.3365 15.5047,-15.0244 17.1277,-18.1626 0.7813,-1.5109 1.8374,-6.0337 2.3467,-10.0507 0.5093,-4.017 1.3699,-9.2795 1.9125,-11.6944 0.5426,-2.4148 0.7197,-5.767 0.3935,-7.4492 -0.7616,-3.9284 -5.3853,-12.0746 -9.3984,-16.5586 -1.7229,-1.925 -4.2693,-5.3 -5.6589,-7.5 -1.3895,-2.2 -5.4956,-8.4225 -9.1247,-13.8278 -9.7868,-14.5767 -10.0874,-15.0658 -10.0931,-16.4222 0,-0.6875 0.8947,-1.25 1.9947,-1.25 1.1,0 2,0.3825 2,0.85 0,0.4674 1.4625,2.7781 3.25,5.1348 1.7875,2.3567 4.375,5.9777 5.75,8.0466 1.375,2.0688 4.6888,7.0515 7.364,11.0724 2.6751,4.021 6.8753,9.7801 9.3338,12.7981 2.4584,3.018 5.839,8.1996 7.5125,11.5146 3.3036,6.5445 3.3082,6.6902 0.8498,26.7185 -1.4761,12.0252 -3.4057,15.3909 -15.6893,27.365 -2.8211,2.75 -6.6277,7.25 -8.4592,10 -1.8314,2.75 -4.8402,6.9855 -6.6861,9.4122 -1.8459,2.4267 -4.4636,6.5975 -5.817,9.2683 -1.3534,2.6709 -5.2615,9.1111 -8.6846,14.3116 -11.1665,16.9643 -14.1558,21.6036 -18.9189,29.3612 -2.5823,4.2057 -6.1425,9.6367 -7.9115,12.0689 -1.7691,2.4322 -4.0358,6.5784 -5.0372,9.2138 -1.0014,2.6354 -3.4214,7.9326 -5.3778,11.7715 -1.9564,3.8389 -4.1885,10.0427 -4.9602,13.7862 -0.7718,3.7435 -1.8366,8.6063 -2.3664,10.8063 -0.5298,2.2 -1.2127,9.4844 -1.5175,16.1875 -0.6656,14.6351 0.6191,24.1634 6.3782,47.3076 5.1086,20.5298 6.7804,39.3792 5.0172,56.5695 -0.6241,6.0856 -1.0858,13.0606 -1.0258,15.5 0.149,6.0626 -0.5845,17.7871 -1.341,21.4354 -0.3421,1.65 -0.8144,4.125 -1.0495,5.5 -0.2351,1.375 -1.1855,4.7063 -2.112,7.4029 -0.9266,2.6966 -1.5124,6.3777 -1.302,8.1803 0.2105,1.8026 -0.055,3.1964 -0.5906,3.0972 -0.9789,-0.1815 -5.3463,7.9495 -5.9725,11.1192 -0.6284,3.1807 -2.0006,5.6975 -3.8205,7.0071 -0.9988,0.7187 -1.8159,1.7789 -1.8159,2.3561 0,0.5772 -1.421,2.8435 -3.1578,5.0364 -1.8583,2.3464 -4.7226,8.5263 -6.9605,15.0182 -2.0915,6.0671 -4.5008,11.9877 -5.354,13.1569 -3.6163,4.9556 -6.4825,9.5327 -9.9548,15.8967 -2.0318,3.7241 -6.0295,9.5073 -8.8836,12.8515 -2.8541,3.3443 -7.5014,9.0535 -10.3272,12.6871 -9.0869,11.6841 -24.3621,23.0621 -24.3621,18.1464 z M 1226.1837,1752.95 c -1.4866,-1.4865 -0.4136,-2.0796 4.7208,-2.6095 6.2296,-0.643 11.6125,-3.099 11.6125,-5.2984 0,-0.8377 -1.9125,-2.3823 -4.25,-3.4324 l -4.25,-1.9092 -1.03,4.1348 c -1.1295,4.5342 -2.6996,5.6656 -5.0992,3.6742 -3.3491,-2.7796 0.9661,-14.7598 6.9644,-19.3349 3.4269,-2.6138 9.0005,-3.4417 10.192,-1.5139 0.7169,1.16 -1.7313,5.4138 -4.8312,8.3939 l -2.0157,1.9379 2.3771,1.5621 c 1.3074,0.8591 3.462,2.4885 4.788,3.6207 4.7604,4.0648 0.3495,7.9992 -11.6446,10.3866 -6.2348,1.241 -6.6594,1.2629 -7.5341,0.3881 z m -11.6667,-27.3201 c -2.3071,-1.4708 0.07,-4.4504 3.8508,-4.8266 2.5177,-0.2505 3.1492,0.06 3.1492,1.55 0,3.6383 -3.7091,5.3744 -7,3.2766 z m 4.0856,-16.0132 c -0.03,-1.375 0.3812,-3.175 0.9144,-4 0.8001,-1.238 0.9598,-1.1507 0.9144,0.5 -0.03,1.1 -0.4417,2.9 -0.9144,4 -0.7871,1.8317 -0.8641,1.7896 -0.9144,-0.5 z m 86.9144,-23.2875 c -3.8009,-1.9127 -3.8204,-6.4051 -0.049,-11.1514 3.5128,-4.4204 3.8742,-6.5611 1.1075,-6.5611 -1.0675,0 -2.2191,-0.45 -2.559,-1 -0.3668,-0.5934 0.7957,-1 2.8592,-1 7.7001,0 8.4091,2.1607 3.1408,9.5708 -1.925,2.7075 -3.5,5.4709 -3.5,6.1408 0,2.1752 3.8805,3.369 9.2489,2.8454 l 5.2511,-0.5121 -4,1.4007 c -5.0801,1.7789 -8.3447,1.8547 -11.5,0.2669 z m -81.885,-3.2125 c 0.046,-1.1 0.4446,-3.125 0.885,-4.5 0.7846,-2.4499 0.8023,-2.4398 0.885,0.5 0.046,1.65 -0.3518,3.675 -0.885,4.5 -0.7986,1.2357 -0.9545,1.1476 -0.885,-0.5 z m 54.3385,0.2395 c -0.4952,-1.2906 -0.1312,-3.9816 2.5422,-18.7942 1.7131,-9.4917 3.0472,-13.0837 4.7386,-12.758 1.9697,0.3794 1.9378,-0.552 0.3527,10.3127 -2.4747,16.9622 -5.7634,26.1127 -7.6335,21.2395 z m 11.873,-0.331 c -1.1309,-2.9471 0.5654,-18.8623 2.5884,-24.286 3.1757,-8.5138 6.7555,-12.0431 12.2637,-12.0907 5.2116,-0.045 7.194,2.2366 6.3779,7.3405 -0.7833,4.8984 -6.5708,12.3179 -11.0771,14.2008 -2.9945,1.2512 -3.2643,1.7947 -4.4073,8.8798 -1.0345,6.413 -1.5118,7.5471 -3.1762,7.5471 -1.0773,0 -2.2335,-0.7162 -2.5694,-1.5915 z m 12.5299,-22.7193 c 3.1224,-3.6251 4.1436,-5.6585 4.1436,-8.25 0,-6.7331 -6.4584,-2.4119 -9.43,6.3095 -3.0303,8.8934 -1.2614,9.5428 5.2864,1.9405 z m -52.4502,-2.8409 c -0.7445,-1.2046 2.115,-3.8483 4.1625,-3.8483 1.6918,0 3.7239,2.7175 2.9584,3.9562 -0.8719,1.4107 -6.2325,1.3294 -7.1209,-0.1079 z m -634.1906,-9.1291 c -0.73758,-3.6727 -0.75859,-7.4868 -0.0676,-12.2739 0.55139,-3.8199 0.9923,-7.8453 0.9798,-8.9453 -0.12707,-11.1839 0.0362,-24.9642 0.3012,-25.4246 0.18216,-0.3165 0.64016,-9.3504 1.01779,-20.0754 0.37763,-10.725 0.85894,-21.975 1.06959,-25 0.21065,-3.025 0.663,-15.2245 1.00523,-27.11 0.34223,-11.8855 0.78541,-23.3605 0.98484,-25.5 0.19944,-2.1395 0.68807,-17.0059 1.08585,-33.0364 l 0.72324,-29.1463 -5.40775,-1.0592 c -7.89531,-1.5465 -19.73051,-3.6446 -43.40775,-7.6952 -11.55,-1.9759 -24.375,-4.1989 -28.5,-4.9401 -4.125,-0.7412 -10.425,-1.8664 -14,-2.5005 -3.575,-0.6341 -8.75,-1.5982 -11.5,-2.1425 -2.75,-0.5443 -7.8125,-1.4623 -11.25,-2.04 -3.4375,-0.5777 -6.25,-1.4593 -6.25,-1.9591 0,-0.4999 -1.07591,-0.6388 -2.39091,-0.3087 -1.31499,0.33 -2.6794,0.1332 -3.03202,-0.4373 -0.35262,-0.5705 -1.25261,-0.8027 -2,-0.5159 -0.74738,0.2868 -3.77047,0.017 -6.71797,-0.5998 -2.94751,-0.6167 -7.6091,-1.5215 -10.3591,-2.0107 -2.75,-0.4891 -7.7,-1.4053 -11,-2.036 -3.3,-0.6306 -6.85924,-1.1277 -7.90943,-1.1046 -1.05018,0.023 -2.85018,-0.481 -4,-1.1203 -1.14981,-0.6393 -2.40353,-1.0749 -2.78603,-0.968 -1.15573,0.3228 -20.18521,-2.6798 -39.80454,-6.2806 -10.175,-1.8675 -21.2,-3.8462 -24.5,-4.3971 -20.9733,-3.5012 -67.61958,-11.7861 -99,-17.5835 -4.4,-0.8129 -11.15,-1.9472 -15,-2.5208 -3.85,-0.5735 -11.22445,-1.7482 -16.38766,-2.6104 -7.67931,-1.2823 -9.81821,-1.3372 -11.75361,-0.3014 -2.0591,1.102 -2.6608,0.9892 -4.63917,-0.8693 -1.57459,-1.4793 -4.87721,-2.5706 -10.74638,-3.5509 -4.66025,-0.7784 -18.02093,-3.1341 -29.6904,-5.2348 -11.66947,-2.1007 -21.49658,-3.5401 -21.83802,-3.1987 -0.49347,0.4935 -1.23611,13.6483 -1.41627,25.0871 -0.0157,0.995 -0.45803,1.5436 -0.98303,1.2191 -0.54001,-0.3337 -0.88644,-6.2066 -0.79773,-13.5234 0.0863,-7.1134 -0.12476,-13.2151 -0.4689,-13.5592 -0.77204,-0.772 -19.41089,-4.4376 -22.58785,-4.4422 -1.27346,0 -2.03373,-0.4487 -1.69521,-0.9965 0.61805,-1 6.71728,-0.7612 9.50423,0.3722 2.23101,0.9072 14.38305,2.4578 15.25,1.9459 0.4125,-0.2436 0.75,-3.3046 0.75,-6.8021 0,-6.6427 0.68972,-9.8326 1.95668,-9.0496 0.41092,0.254 0.53594,3.7525 0.27782,7.7744 -0.34902,5.4386 -0.11886,7.5899 0.8981,8.3944 0.75207,0.595 8.3424,2.2911 16.8674,3.7692 8.525,1.478 19.0926,3.3751 23.48356,4.2158 12.66266,2.4244 21.09907,2.903 21.73976,1.2334 0.29615,-0.7717 -0.30996,-4.744 -1.34691,-8.8273 -1.1354,-4.4709 -1.52266,-7.7869 -0.97354,-8.336 1.41695,-1.4169 2.87464,2.2142 3.6539,9.1019 0.42984,3.7993 1.17033,6.201 1.91188,6.201 0.66568,0 1.69876,1.072 2.29574,2.3822 1.31873,2.8943 4.43527,3.6566 35.23561,8.6181 3.025,0.4873 10.45,1.7897 16.5,2.8942 6.05,1.1045 20.9,3.6045 33,5.5556 25.41874,4.0988 48.03282,8.057 54.5,9.5394 5.9179,1.3565 26.05879,4.8361 38,6.5651 5.225,0.7565 11.3,1.797 13.5,2.3121 9.70092,2.2717 14.26432,3.2177 18,3.7315 2.2,0.3027 6.7,1.1572 10,1.8991 3.3,0.7419 8.025,1.6058 10.5,1.9199 2.475,0.3141 9.225,1.4826 15,2.5966 5.775,1.114 12.075,2.1945 14,2.4011 1.925,0.2065 6.2,0.8591 9.5,1.4501 14.6568,2.6249 24.43485,4.3048 30,5.1541 13.79069,2.1045 37.56654,6.3004 51,9.0004 2.75,0.5527 9.83522,1.5861 15.74494,2.2963 9.57696,1.1511 10.79146,1.1226 11.17293,-0.2622 0.68995,-2.5045 2.105,-32.9121 3.05062,-65.5536 0.6841,-23.6145 4.53608,-123.4313 5.03606,-130.5 0.13616,-1.925 0.57171,-16.1 0.96791,-31.5 0.39619,-15.4 1.03629,-32.0282 1.42245,-36.9515 0.61677,-7.8635 0.48351,-9.1701 -1.0964,-10.75 -0.98918,-0.9892 -2.25005,-1.7985 -2.80193,-1.7985 -1.2836,0 -38.95899,-6.4733 -49.49658,-8.5044 -4.4,-0.848 -8.9,-1.7131 -10,-1.9222 -20.31318,-3.8628 -22.5677,-4.2551 -29.5,-5.1343 -2.475,-0.3139 -7.2,-1.1765 -10.5,-1.9168 -3.3,-0.7404 -8.7,-1.6435 -12,-2.0068 -3.3,-0.3633 -9.15,-1.5012 -13,-2.5285 -5.84926,-1.5609 -20.06528,-4.538 -30.5,-6.3874 -1.375,-0.2436 -6.55,-1.1861 -11.5,-2.0943 -4.95,-0.9081 -10.92283,-1.9031 -13.27296,-2.2109 -4.58853,-0.601 -6.85361,-2.303 -3.03606,-2.2813 1.26996,0.01 6.58402,0.9438 11.80902,2.0813 11.51647,2.5071 11.07689,2.4284 18.5,3.3129 3.3,0.3933 8.025,1.1359 10.5,1.6504 3.91196,0.8131 19.48199,3.5462 48.5,8.5134 18.78065,3.2148 37.77689,6.7291 48.5,8.9725 6.325,1.3233 12.85,2.6185 14.5,2.8783 1.65,0.2598 8.74728,1.3962 15.77173,2.5252 14.81394,2.3812 18.72502,2.5487 18.73647,0.8029 0.005,-0.6875 0.42039,-5.075 0.92417,-9.75 0.50377,-4.675 1.21589,-20.8764 1.58249,-36.0031 0.56798,-23.4366 0.43978,-28.0941 -0.86709,-31.5 -3.0118,-7.8493 -9.13513,-32.2482 -13.55145,-53.9969 -4.88816,-24.07232 -10.4801,-49.89133 -13.1735,-60.82465 -7.77568,-31.56374 -7.32086,-72.56744 1.01133,-91.17537 0.98511,-2.2 2.36476,-5.8 3.0659,-8 5.05968,-15.8761 18.94799,-32.71407 29.35289,-35.58701 3.35063,-0.92515 3.37691,-0.979 3.98824,-8.17214 0.73187,-8.61149 1.35566,-22.56003 2.694,-60.24085 0.54698,-15.4 1.25944,-33.85 1.58326,-41 1.21675,-26.86646 1.91743,-59.08865 1.33732,-61.5 -0.51266,-2.13095 -0.92283,-1.54871 -2.7786,3.94417 -1.19744,3.5443 -2.17716,7.05241 -2.17716,7.79581 0,0.7434 -2.88043,7.29352 -6.40096,14.55583 -3.52054,7.2623 -6.72076,14.32919 -7.11162,15.70419 -0.39086,1.375 -1.98597,5.4447 -3.54468,9.04378 -1.55872,3.59907 -3.61019,10.494 -4.55882,15.32206 -1.39448,7.09724 -2.03292,8.6977 -3.33388,8.3575 -1.94323,-0.50817 -3.21717,0.76058 -5.90979,5.88573 -1.12431,2.14001 -4.97477,7.94093 -8.55658,12.89093 -3.58181,4.95 -7.74148,11.25 -9.24372,14 -2.49734,4.57165 -7.47994,11.22163 -14.24372,19.01028 -4.02553,4.63549 -8.7435,7.62017 -19.09623,12.08067 -11.49507,4.95267 -16.76647,6.765 -19.75,6.79011 -5.92947,0.0499 -0.92027,-3.20678 19.75216,-12.8417 10.68702,-4.98096 20.68113,-14.72463 28.15376,-27.44828 2.77506,-4.72509 5.86359,-9.49108 6.86341,-10.59108 3.59671,-3.95713 15.31532,-24.20291 19.67979,-34 7.16213,-16.07713 9.49231,-23.39796 9.35943,-29.405 -0.10799,-4.88245 4.19591,-21.095 5.60004,-21.095 0.27189,0 0.41634,1.6875 0.32099,3.75 -0.0954,2.0625 -0.12976,4.33906 -0.0765,5.05902 0.14395,1.94477 2.07064,0.37693 3.26411,-2.65616 1.94643,-4.94668 7.62861,-27.61343 8.81224,-35.15286 0.64759,-4.125 2.00194,-11.775 3.00967,-17 1.00773,-5.225 2.11461,-12.65 2.45974,-16.5 0.34513,-3.85 1.04191,-10.6 1.54841,-15 2.13004,-18.50382 2.11076,-20.32144 -0.23875,-22.51033 -2.01674,-1.87888 -2.08555,-2.37735 -1.00131,-7.2536 0.64034,-2.87984 1.4728,-6.2998 1.84992,-7.59992 0.59635,-2.05594 0.41574,-2.27819 -1.38652,-1.70617 -1.39054,0.44134 -2.37337,0.1195 -2.98779,-0.97841 -0.81816,-1.46197 -1.91691,-1.51625 -10.32421,-0.50996 -5.17474,0.61937 -23.13362,1.55661 -39.90862,2.08275 -16.775,0.52614 -32.75,1.41087 -35.5,1.96606 -2.75,0.55519 -11.60849,2.09204 -19.68554,3.41522 -23.57555,3.86213 -36.01604,10.38465 -51.56694,27.03639 -10.30724,11.0369 -15.36709,21.63419 -26.62817,55.76977 -5.13264,15.55851 -10.73248,31.2132 -12.44409,34.7882 -10.2595,21.4288 -18.19838,33.48982 -24.32199,36.9508 -2.0057,1.1336 -6.69048,3.20675 -10.41062,4.60701 -3.72014,1.40026 -9.4601,3.88365 -12.75547,5.51865 -6.94605,3.4463 -21.72276,6.92354 -29.42191,6.92354 -12.44878,0 -32.22465,-9.89708 -41.9612,-21 -1.6881,-1.925 -4.6971,-6.46237 -6.68667,-10.08305 -6.4244,-11.6913 -4.79795,-21.60727 7.64893,-46.63306 6.92069,-13.9148 7.04517,-14.30084 5.87281,-18.21382 -3.6838,-12.29543 -18.72929,-8.0178 -29.31618,8.33497 -2.10263,3.24777 -3.82296,6.78567 -3.82296,7.86201 0,1.07634 -2.01793,6.96907 -4.48429,13.09496 -2.51025,6.23492 -5.85081,17.30095 -7.58854,25.13799 -3.65923,16.5029 -9.25549,35.92419 -12.4012,43.0372 -1.23111,2.78376 -2.80792,6.8392 -3.50402,9.01209 -3.83938,11.98477 -22.15534,50.42025 -26.40756,55.41546 -0.7188,0.84439 -3.71361,5.81025 -6.65513,11.03525 -6.31511,11.21744 -5.81882,10.47377 -6.52102,9.77157 -0.58734,-0.58734 6.45869,-14.59086 14.22515,-28.27157 12.70363,-22.37757 30.29228,-71.76867 36.25693,-101.81389 2.32105,-11.69165 4.03103,-17.39669 7.54907,-25.18611 1.24201,-2.75 3.02906,-7.66314 3.97121,-10.9181 3.34846,-11.56829 11.30561,-21.18494 20.34691,-24.59035 10.62199,-4.00078 17.07181,-2.10796 21.34255,6.26338 2.60758,5.11129 2.07083,9.12552 -2.46201,18.4128 -6.2359,12.77663 -7.48449,15.82688 -9.57702,23.39606 -1.15006,4.16008 -2.09103,9.8257 -2.09103,12.59027 0,10.94041 11.0195,25.56347 24.5,32.51193 7.91161,4.078 16.66822,6.83401 21.71352,6.83401 5.5256,0 19.78502,-4.0106 26.78648,-7.53396 3.575,-1.79906 9.97199,-4.70043 14.21554,-6.44749 8.78978,-3.61876 12.36039,-6.10138 13.36794,-9.29464 0.38594,-1.22315 2.2469,-4.02391 4.13547,-6.22391 7.36679,-8.58158 17.45336,-32.35615 26.36553,-62.14499 4.26484,-14.25519 6.34968,-19.4061 14.24502,-35.19457 5.2665,-10.53153 10.25575,-16.3703 23.97366,-28.05569 6.36242,-5.41972 21.25994,-12.34413 31.19684,-14.50038 4.4,-0.95477 10.25,-2.34506 13,-3.08954 2.75,-0.74447 7.025,-1.65294 9.5,-2.01883 2.475,-0.36588 6.975,-1.27949 10,-2.03023 3.025,-0.75075 13.24514,-1.90874 22.71141,-2.57331 9.46628,-0.66457 16.99492,-1.55861 16.73031,-1.98675 -0.2646,-0.42815 -1.25974,-0.75783 -2.21141,-0.73263 -0.95167,0.0252 -13.88031,-1.11597 -28.73031,-2.53593 -14.85,-1.41997 -49.05,-4.40098 -76,-6.62448 -26.95,-2.2235 -59.8,-4.94999 -73,-6.05886 -35.00739,-2.94083 -56.12139,-4.66289 -91.5,-7.46273 -17.325,-1.3711 -45.225,-3.60194 -62,-4.95744 -25.53135,-2.06305 -35.74269,-2.82153 -53,-3.93671 -1.09128,-0.0705 -1.78595,1.6742 -2.54941,6.40307 -0.74256,4.59939 -1.2266,5.84323 -1.65537,4.25388 -0.33327,-1.23536 -0.37211,-3.98952 -0.0863,-6.12035 0.2942,-2.19348 0.0662,-4.15446 -0.52547,-4.52015 -0.57481,-0.35525 -14.68874,-1.76806 -31.36428,-3.13958 -16.67551,-1.37151 -43.81914,-3.64822 -60.31914,-5.05936 -16.5,-1.41113 -33.276752,-2.8227 -37.281672,-3.1368 -4.00492,-0.31411 -7.45731,-0.8553 -7.67199,-1.20265 -0.66991,-1.08394 22.95793,0.37472 95.785022,5.91327 21.90725,1.66606 40.18563,2.81026 40.61861,2.54266 0.43298,-0.2676 1.18144,-3.75902 1.66324,-7.75873 l 0.87601,-7.27219 0.29678,7.71245 0.29678,7.71245 3.20861,0.52199 c 1.76473,0.28709 11.75861,1.21576 22.20861,2.0637 10.45,0.84795 21.25,1.73341 24,1.9677 2.75,0.23429 11.525,0.90321 19.5,1.48648 7.975,0.58327 20.35,1.5016 27.5,2.04071 7.15,0.53912 22.45,1.66539 34,2.50282 11.55,0.83743 25.05,1.94553 30,2.46245 11.90869,1.24359 18.93633,1.81494 37.5,3.04874 8.525,0.5666 16.85,1.24112 18.5,1.49894 1.65,0.25781 10.2,0.92361 19,1.47955 8.8,0.55595 21.175,1.45937 27.5,2.0076 20.72521,1.79642 46.33796,3.88213 55,4.47879 16.78912,1.15646 34.67772,2.5657 44.5,3.50565 5.5,0.52632 14.275,1.20341 19.5,1.50463 5.225,0.30121 17.825,1.25982 28,2.13023 19.25601,1.64724 28.40685,1.40244 30.61467,-0.81897 1.85873,-1.87018 3.03675,-21.7202 1.46347,-24.65991 l -1.19226,-2.22776 -3.01967,2.54088 c -3.10162,2.60984 -4.53279,2.98979 -7.28442,1.93389 -2.43906,-0.93595 -1.87309,-3.2818 0.96356,-3.99375 3.04333,-0.76383 7.45465,-6.87525 7.45465,-10.32764 0,-2.63235 -4.20085,-9.48426 -7.5,-12.23308 -3.1974,-2.66405 -0.89998,-3.335 2.44131,-0.71297 1.66418,1.30594 4.37887,3.41758 6.03264,4.69254 l 3.00686,2.31811 0.92824,-2.31811 c 0.51053,-1.27496 1.24224,-3.21811 1.62602,-4.31811 0.62452,-1.79001 0.80492,-1.68502 1.71826,1 0.56126,1.65 1.11578,3.11941 1.23226,3.26535 0.11648,0.14594 1.64346,-0.33663 3.39329,-1.07238 7.4988,-3.15301 13.13107,1.40134 9.65478,7.80703 -0.89543,1.65 -3.85682,4.51839 -6.58086,6.3742 -2.72404,1.85581 -4.9528,3.73565 -4.9528,4.17742 0,0.44177 1.22158,1.76412 2.71463,2.93855 2.10297,1.65419 3.8492,2.07511 7.75,1.86807 3.86172,-0.20497 5.03537,0.0718 5.03537,1.18725 0,2.1528 -9.07263,4.16652 -13.39492,2.97308 -1.87956,-0.51897 -3.79712,-0.7089 -4.26123,-0.42206 -0.96267,0.59496 -1.15737,14.42289 -0.23686,16.8217 0.81447,2.12248 3.42053,2.00566 18.80112,-0.84282 34.38219,-6.36758 65.59189,-9.50722 65.59189,-6.59844 0,2.34788 -5.51013,4.22788 -16.16871,5.5166 -24.44122,2.95515 -49.34197,7.40635 -48.11742,8.60135 0.75163,0.73349 11.81029,1.79195 41.28613,3.95162 7.425,0.54402 18.45,1.43447 24.5,1.97878 13.54226,1.21837 31.8891,2.64134 44.5,3.4514 5.225,0.33562 10.85,0.81736 12.5,1.07053 1.65,0.25317 12.675,1.13576 24.5,1.96131 11.825,0.82555 26.5625,1.94885 32.75,2.49623 6.1875,0.54738 16.3125,1.44132 22.5,1.98654 6.1875,0.54522 18.675,1.44345 27.75,1.99607 9.075,0.55262 23.925,1.65941 33,2.45952 9.075,0.80012 22.575,1.92269 30,2.49461 7.425,0.57192 26.77496,2.16465 42.99996,3.53941 30.6656,2.59831 34.8875,2.90384 56.5865,4.09505 12.1881,0.66909 13.1354,0.59117 13.7977,-1.13492 0.3912,-1.01934 0.9819,-6.90336 1.3127,-13.0756 0.5969,-11.13914 0.5813,-11.24615 -2.1131,-14.44821 -1.9697,-2.34089 -2.6699,-4.21245 -2.5522,-6.8216 0.2798,-6.20284 0.1791,-6.51542 -1.6181,-5.02384 -1.5868,1.31693 -1.5611,3.41195 0.1434,11.6782 1.0691,5.18529 -1.8299,4.07221 -4.5567,-1.74949 -1.2879,-2.74973 -3.1648,-5.74447 -4.1709,-6.65499 -2.4275,-2.19683 -2.3234,-4.34552 0.2105,-4.34552 3.2254,0 9.3708,-3.56474 12.7185,-7.37747 3.502,-3.98863 3.6011,-4.63238 5.3192,-34.58322 1.6501,-28.7657 3.1355,-26.02277 2.5361,4.68309 -0.2816,14.42231 -0.1685,26.43465 0.2512,26.69407 0.4198,0.25943 2.5344,-1.81143 4.6992,-4.60191 4.0136,-5.17357 9.4703,-10.66676 12.045,-12.12554 1.8888,-1.07016 5.391,0.0893 5.391,1.78475 0,0.85913 -0.7373,1.14617 -2.0575,0.80094 -1.5397,-0.40264 -3.2075,0.69045 -6.6274,4.34362 -12.577,13.43502 -12.2875,19.36766 1.18,24.18596 2.7473,0.98291 5.1251,2.46199 5.2839,3.28685 0.3685,1.91354 -3.9499,7.45039 -9.1649,11.75083 -5.1248,4.22597 -5.9704,2.40174 -1.2889,-2.7802 6.5449,-7.24443 6.5436,-7.70277 -0.031,-10.61046 -3.1756,-1.4044 -6.7909,-3.50891 -8.0339,-4.6767 -1.2431,-1.16778 -2.267,-1.9323 -2.2755,-1.69892 -0.01,0.23337 -0.3026,9.31181 -0.6537,20.17431 l -0.6384,19.75 3.5048,0 c 1.9277,0 5.6207,-1.125 8.2067,-2.5 2.586,-1.375 5.6004,-2.5 6.6986,-2.5 2.8837,0 6.9507,-2.34783 10.3974,-6.00231 1.65,-1.74947 4.8,-4.09464 7,-5.21149 2.2,-1.11684 6.925,-4.17572 10.5,-6.79751 11.1254,-8.15895 23.4722,-13.83513 35.1471,-16.158 5.6941,-1.13293 12.4174,-3.10389 14.9407,-4.37992 9.7183,-4.91456 21.7457,-15.99095 25.0903,-23.10634 1.6184,-3.44295 2.5513,-4.38696 3.9688,-4.01627 1.1917,0.31164 1.8531,-0.0471 1.8531,-1.00511 0,-3.03626 2.4039,-0.55056 4.0957,4.23506 6.8232,19.30104 9.2357,26.95401 10.9991,34.89148 3.4392,15.481 14.5837,51.7855 16.0811,52.38582 0.4601,0.18448 0.6178,0.68935 0.3505,1.12195 -0.6208,1.00442 4.5045,16.22292 7.3264,21.75423 1.9562,3.83443 8.9325,12.43691 28.2121,34.78841 11.288,13.08647 40.3527,40.56723 62.4007,59 13.1242,10.97221 24.8118,23.52814 40.8511,43.88635 6.7379,8.5522 25.4546,46.2464 23.7848,47.90089 -1.3393,1.32706 -4.3368,-1.58466 -13.2645,-12.88496 -14.5121,-18.36879 -17.2854,-21.58282 -19.7013,-22.83212 -1.4614,-0.75573 -4.7366,-3.55568 -7.2782,-6.22211 -6.8748,-7.2126 -11.996,-11.84887 -15.3575,-13.90326 -1.65,-1.00841 -5.25,-3.70692 -8,-5.99668 -2.75,-2.28976 -7.475,-5.80945 -10.5,-7.82154 -8.0997,-5.38753 -12.794,-9.00845 -19.5,-15.04118 -14.6986,-13.22287 -17.4836,-15.33532 -25.5,-19.34226 -4.675,-2.33676 -11.425,-4.92172 -15,-5.74434 -3.575,-0.82263 -8.7045,-2.00515 -11.399,-2.62784 -7.2392,-1.67296 -14.7552,-4.9402 -28.6607,-12.45893 -6.8422,-3.69957 -16.7439,-8.93061 -22.0039,-11.62452 -5.26,-2.69391 -12.7546,-7.46066 -16.6547,-10.59276 -3.9001,-3.13211 -9.7878,-7.80788 -13.0839,-10.3906 -3.2961,-2.58273 -7.2765,-6.58798 -8.8453,-8.90057 -2.0144,-2.96932 -5.4968,-5.76346 -11.8525,-9.51008 -4.95,-2.91796 -13.3857,-8.36271 -18.746,-12.09944 -11.7156,-8.16706 -20.5031,-12.75366 -27.285,-14.24133 -2.767,-0.60697 -8.5699,-2.89214 -12.8952,-5.07815 -4.3253,-2.18601 -8.4041,-3.97457 -9.064,-3.97457 -0.6599,0 -1.9965,-0.88026 -2.9701,-1.95614 -2.941,-3.24975 -4.275,-0.5286 -4.9207,10.03741 -1.1135,18.22209 -1.9936,38.37968 -3.1401,71.91873 -0.3102,9.075 -0.8127,21.9 -1.1167,28.5 -0.7663,16.63835 -1.1513,27.79092 -1.7606,51 -0.2888,11 -0.7591,24.725 -1.045,30.5 -0.286,5.775 -0.7687,18.6 -1.0726,28.5 -0.7461,24.30127 -2.3511,66.82796 -2.9627,78.5 -0.2738,5.225 -0.7486,16.475 -1.0552,25 -0.3065,8.525 -0.7727,17.975 -1.0358,21 -0.2632,3.025 -0.6513,12.7 -0.8626,21.5 -0.5009,20.8664 -1.4975,45.6985 -2.087,52.00002 -0.2572,2.75 -0.7363,16.7 -1.0646,31 -0.3283,14.3 -1.036,31.4 -1.5727,38 -1.1955,14.7016 -1.2846,16.9361 -0.8774,22 0.1769,2.2 0.028,9.625 -0.33,16.5 -0.6218,11.9278 -0.8715,18.6481 -2.1369,57.5 -0.3046,9.35 -0.7523,18.35 -0.995,20 -0.2427,1.65 -0.7171,12.0705 -1.0541,23.1568 -0.5768,18.9688 -0.5049,20.1886 1.2186,20.698 1.6588,0.4902 20.3645,4.0462 51.3314,9.7583 6.325,1.1667 18.025,3.3857 26,4.9312 7.975,1.5454 16.75,3.1018 19.5,3.4585 2.75,0.3567 7.7,1.2526 11,1.9909 3.3,0.7382 9.15,1.8428 13,2.4545 7.1106,1.1298 18.8864,3.2639 53,9.6049 10.45,1.9425 25.3,4.6209 33,5.952 7.7,1.3312 17.6,3.1339 22,4.0061 9.0954,1.8029 24.4627,4.5177 42,7.4195 18.2136,3.0137 47.8726,9.2894 49,10.3682 0.6385,0.6109 -0.6268,0.6923 -3.5,0.2252 -2.475,-0.4024 -7.2,-1.1178 -10.5,-1.5898 -16.5486,-2.3669 -21.0794,-3.1985 -21.95,-4.0285 -0.5225,-0.4982 -2.9975,-0.9083 -5.5,-0.9114 -2.5025,0 -6.35,-0.5143 -8.55,-1.1361 -2.2,-0.6218 -5.35,-1.2338 -7,-1.3601 -1.65,-0.1262 -4.35,-0.564 -6,-0.9728 -5.5357,-1.3716 -5.929,-1.2014 -6.8762,2.9746 -0.499,2.2 -1.5066,6.25 -2.2391,9 -1.3044,4.8968 -1.3199,4.809 -0.7521,-4.25 0.3188,-5.0875 0.4195,-9.2738 0.2236,-9.303 -0.1959,-0.029 -3.9562,-0.6504 -8.3562,-1.3807 -4.4,-0.7302 -8.1535,-1.1904 -8.3412,-1.0225 -0.1876,0.1679 -1.1887,3.3767 -2.2246,7.1307 -1.5623,5.662 -1.7933,6.0584 -1.3553,2.3255 0.2905,-2.475 0.7461,-5.6523 1.0125,-7.0607 0.695,-3.6742 -1.8146,-4.7427 -15.0914,-6.4253 -2.2,-0.2788 -6.475,-0.9471 -9.5,-1.4852 -8.1423,-1.4481 -37.5919,-6.8136 -44.5,-8.1075 -3.3,-0.6181 -6.9427,-1.2994 -8.095,-1.514 -1.1522,-0.2146 -3.4022,-0.5599 -5,-0.7673 -1.5977,-0.2074 -3.58,-0.6172 -4.405,-0.9108 -3.1387,-1.1169 -10.7117,-2.6441 -16,-3.2265 -3.025,-0.3332 -9.775,-1.5169 -15,-2.6304 -5.225,-1.1135 -15.575,-3.0898 -23,-4.3919 -7.425,-1.302 -15.525,-2.848 -18,-3.4354 -7.0869,-1.6821 -8.2189,-1.8938 -13,-2.4313 -2.475,-0.2783 -11.25,-1.673 -19.5,-3.0995 -8.25,-1.4264 -19.1384,-3.236 -24.1965,-4.0214 -5.0581,-0.7853 -10.326,-1.7113 -11.7065,-2.0578 -3.2678,-0.8202 -3.3327,-0.4654 -4.1264,22.565 -0.3506,10.175 -0.8235,20.975 -1.0507,24 -2.5485,33.9237 -3.713,72.9419 -2.2303,74.7284 0.5804,0.6994 2.3502,1.2716 3.9328,1.2716 1.5827,0 2.8776,0.3596 2.8776,0.7992 0,0.4396 -1.5353,0.62 -3.4118,0.4009 -5.0292,-0.5871 -5.7703,1.5802 -5.5109,16.1151 0.1197,6.7017 -0.092,16.9098 -0.4699,22.6848 -0.378,5.775 -0.8629,15.9 -1.0774,22.5 -0.2145,6.6 -0.613,12.675 -0.8855,13.5 -0.2725,0.825 -0.7681,8.25 -1.1014,16.5 -0.3334,8.25 -0.7865,17.25 -1.0069,20 -0.2205,2.75 -0.4314,5.5891 -0.4686,6.309 -0.037,0.72 -0.5611,1.0041 -1.1642,0.6313 -1.1918,-0.7366 -0.5768,-37.8672 1.1005,-66.4403 0.5005,-8.525 1.2146,-23.8418 1.5869,-34.0374 l 0.677,-18.5375 -2.3839,-1.1039 -2.3839,-1.1039 2.6153,-1.0327 2.6153,-1.0327 0.6536,-21.8259 c 0.3595,-12.0043 0.8648,-26.326 1.1229,-31.826 2.2609,-48.1747 2.6897,-64.7032 1.7045,-65.6884 -0.9387,-0.9387 -9.3114,-2.7148 -32.2116,-6.833 -6.2867,-1.1306 -22.3592,-4.2329 -28.5,-5.5011 -1.65,-0.3408 -8.39996,-1.453 -14.99996,-2.4716 -14.4578,-2.2314 -31.4948,-5.2122 -87.5,-15.3091 -16.775,-3.0243 -32.525,-5.7667 -35,-6.0943 -2.475,-0.3277 -7.65,-1.2339 -11.5,-2.0139 -3.85,-0.78 -11.725,-2.1885 -17.5,-3.1301 -5.775,-0.9416 -12.975,-2.3121 -16,-3.0455 -3.025,-0.7335 -10,-2.0482 -15.5,-2.9217 -5.5,-0.8735 -11.65427,-2.0247 -13.67615,-2.5584 -2.02188,-0.5336 -11.69688,-2.3128 -21.5,-3.9537 -16.16885,-2.7064 -32.73862,-5.6753 -53.32385,-9.5543 -4.125,-0.7773 -9.1875,-1.6984 -11.25,-2.0469 -2.0625,-0.3485 -3.75,-1.0349 -3.75,-1.5254 0,-0.4904 1.0125,-0.719 2.25,-0.5078 1.2375,0.2111 6.075,0.9109 10.75,1.555 4.675,0.6441 11.65,1.9059 15.5,2.804 3.85,0.8981 9.25,1.8191 12,2.0467 2.75,0.2276 7.475,1.028 10.5,1.7788 3.025,0.7507 7.975,1.6736 11,2.0509 3.025,0.3773 5.95,0.9831 6.5,1.3463 0.55,0.3632 3.25,0.77 6,0.9039 2.75,0.134 7.7,0.8787 11,1.6549 7.14644,1.681 15.66668,3.331 20.5,3.9699 1.925,0.2545 5.01835,0.9158 6.87411,1.4696 1.85576,0.5537 5.90576,1.2973 9,1.6523 3.09424,0.355 5.90468,0.8107 6.24541,1.0126 0.34074,0.2019 3.04074,0.6267 6,0.9439 2.95927,0.3173 8.53048,1.21 12.38048,1.9838 8.11979,1.632 26.88795,4.9425 37,6.5264 3.85,0.603 11.95,1.9798 18,3.0596 6.05,1.0797 15.1581,2.623 20.2401,3.4295 5.0821,0.8064 14.9821,2.5508 22,3.8764 7.018,1.3255 17.0349,3.1118 22.2599,3.9694 14.7948,2.4283 54.36606,9.4249 65.99996,11.6695 19.7317,3.8069 29.1891,5.1627 30.0404,4.3065 0.8084,-0.813 2.3158,-25.8755 3.4498,-57.3547 0.2873,-7.975 0.7152,-19.45 0.951,-25.5 0.2358,-6.05 0.7012,-19.1 1.0342,-29 0.7571,-22.5088 2.4084,-59.7343 3.0608,-69 0.6433,-9.1365 3.2367,-67.3712 3.9412,-88.50002 0.3026,-9.075 0.7642,-21.45 1.0258,-27.5 0.2617,-6.05 0.7087,-20 0.9936,-31 1.0177,-39.30261 2.4501,-80.48647 3.9648,-114 0.2486,-5.5 0.7316,-16.525 1.0734,-24.5 0.3418,-7.975 0.7849,-17.875 0.9845,-22 0.1997,-4.125 0.8475,-20.1 1.4395,-35.5 0.592,-15.4 1.5361,-38.575 2.0978,-51.5 1.9403,-44.63782 2.3451,-74.63359 1.0184,-75.45355 -1.1511,-0.71142 -16.6884,-2.24642 -45.5752,-4.50259 -7.15,-0.55845 -24.025,-1.92664 -37.5,-3.04043 -13.47496,-1.11379 -30.34996,-2.46717 -37.49996,-3.0075 -7.15,-0.54034 -17.95,-1.43624 -24,-1.99089 -6.05,-0.55466 -22.7,-1.91401 -37,-3.02078 -37.13297,-2.87397 -72.31139,-5.68028 -100,-7.97737 -13.2,-1.09509 -29.625,-2.42394 -36.5,-2.953 -6.875,-0.52906 -20.6,-1.64793 -30.5,-2.48637 -17.3374,-1.46833 -47.4998,-3.76919 -67.66907,-5.16197 l -9.66907,-0.66769 -0.53931,4.38107 c -0.29662,2.40959 -0.76761,13.15607 -1.04665,23.88107 -0.27905,10.725 -0.96178,27.15 -1.5172,36.5 -0.55541,9.35 -1.69474,36.125 -2.53185,59.5 -0.83711,23.375 -1.96355,53.75 -2.50321,67.5 -2.27109,57.86483 -2.52364,65.55649 -2.52364,76.85913 l 0,11.85912 6.21288,2.25155 c 9.3628,3.39306 11.09574,4.92389 15.12457,13.36055 4.7289,9.90266 4.82949,15.84252 0.42714,25.22178 -7.53915,16.06226 -10.39062,23.24856 -12.70667,32.02346 -2.43241,9.21573 -5.87551,29.71432 -5.40551,32.18182 1.38304,7.26095 -8.03812,106.88371 -11.12603,117.65061 -1.24794,4.3513 -1.81268,12.5691 -2.9957,43.592 -0.54532,14.3 -1.25133,32.7858 -1.56891,41.0796 -0.45927,11.9937 -0.30074,15.3092 0.7747,16.2017 0.74368,0.6172 4.0322,1.7883 7.30783,2.6025 l 5.9557,1.4804 -7.25,-0.5613 c -6.90573,-0.5347 -7.25,-0.4602 -7.25,1.5679 0,1.1711 0.35786,2.1292 0.79525,2.1292 0.43739,0 5.04989,0.8986 10.25,1.9969 5.20011,1.0984 13.95475,2.6667 19.45475,3.4851 5.5,0.8185 12.33942,2.1385 15.19871,2.9332 5.06601,1.4082 11.53233,2.721 14.05129,2.8528 0.6875,0.036 1.25,0.4491 1.25,0.9182 0,0.4691 -1.2375,0.6022 -2.75,0.2958 -1.5125,-0.3064 -6.28214,-0.7953 -10.59919,-1.0864 l -7.8492,-0.5293 0.65272,4.3168 c 0.359,2.3743 0.87998,5.5116 1.15774,6.9717 0.52364,2.7527 -1.12754,4.7297 -2.66562,3.1917 -0.4836,-0.4837 -1.52374,-3.9538 -2.31141,-7.7115 -0.78768,-3.7576 -1.90719,-7.3072 -2.48782,-7.8878 -1.15445,-1.1544 -33.19652,-7.0312 -33.99313,-6.2346 -0.64603,0.646 -2.10503,29.9025 -3.61491,72.4874 -0.26326,7.425 -0.7679,21.2412 -1.12142,30.7027 l -0.64277,17.2027 2.8625,0.6511 c 7.71644,1.7552 8.70315,2.2853 3.26059,1.7519 -5.26085,-0.5155 -5.64054,-0.4046 -6.23634,1.8213 -0.34894,1.3037 -0.67002,7.5453 -0.71351,13.8703 -0.0435,6.325 -0.65071,23.875 -1.34938,39 -0.69866,15.125 -0.93913,28.1513 -0.53437,28.9474 0.40477,0.796 0.36089,2.4338 -0.0975,3.6395 -0.70372,1.8509 -2.96697,49.9141 -2.96697,63.0075 0,3.9265 0.19934,4.2207 3.25,4.7981 1.7875,0.3384 4.375,0.833 5.75,1.0993 1.375,0.2662 5.875,1.1378 10,1.9368 4.125,0.7991 10.875,1.9573 15,2.5739 7.85708,1.1745 24.26865,4.0397 37,6.4596 12.58471,2.392 22.92164,3.7044 23.98776,3.0455 0.55673,-0.3441 1.06011,-2.2866 1.11862,-4.3166 l 0.10638,-3.691 1.08666,2.75 c 0.63367,1.6036 1.85024,2.75 2.91837,2.75 1.01428,0 2.23967,1.073 2.74588,2.4044 0.7354,1.9343 2.24602,2.7289 7.72525,4.0636 7.94058,1.9342 17.5767,3.7817 28.81108,5.5239 4.4,0.6823 8.675,1.3694 9.5,1.5268 0.825,0.1574 3.975,0.5904 7,0.9621 7.05996,0.8676 20.96312,3.3784 21.89433,3.9539 0.39414,0.2436 2.49166,0.6684 4.66115,0.9439 7.12745,0.9054 11.92048,1.7095 13.44452,2.2555 0.825,0.2955 2.85,0.7113 4.5,0.924 1.65,0.2127 5.025,0.8151 7.5,1.3387 4.57289,0.9673 13.26199,2.5176 20.49238,3.6561 2.19582,0.3458 4.42309,0.8949 4.94951,1.2202 0.52641,0.3253 1.87984,0.675 3.00761,0.777 1.12778,0.102 3.6255,0.4764 5.5505,0.8321 1.925,0.3556 5.3,0.8094 7.5,1.0083 2.2,0.1989 6.88356,1.1232 10.40791,2.0539 3.52434,0.9307 8.47434,1.8455 11,2.0329 2.52568,0.1874 5.26708,0.554 6.09208,0.8146 0.825,0.2607 4.65,0.9903 8.5,1.6214 8.5781,1.4061 15.3263,2.6216 22.3263,4.0215 2.9294,0.5859 6.6154,1.0652 8.191,1.0652 1.5756,0 3.1251,0.4214 3.4434,0.9364 0.3183,0.515 1.3573,0.9159 2.309,0.8909 1.6837,-0.044 9.187,1.423 14.2303,2.7826 1.375,0.3706 4.8625,0.8767 7.75,1.1246 3.4998,0.3004 5.25,0.8977 5.25,1.7918 0,1.4379 0.1923,1.4525 -13.5,-1.0253 -4.4,-0.7962 -12.725,-2.1369 -18.5,-2.9792 -11.0038,-1.6049 -18.6725,-2.9347 -41,-7.1093 -7.42499,-1.3883 -16.87499,-3.1524 -20.99999,-3.9202 -4.125,-0.7679 -11.55,-1.9294 -16.5,-2.5811 -4.95,-0.6517 -10.64163,-1.7622 -12.64807,-2.4677 -2.00644,-0.7056 -6.05644,-1.5769 -9,-1.9363 -2.94356,-0.3594 -10.90078,-1.7455 -17.6827,-3.0803 -6.78193,-1.3348 -14.01275,-2.4269 -16.0685,-2.4269 -2.05575,0 -5.9569,-0.6366 -8.66923,-1.4146 -2.71232,-0.7781 -8.3065,-1.9567 -12.4315,-2.6191 -4.125,-0.6625 -8.4,-1.3918 -9.5,-1.6208 -1.1,-0.229 -3.125,-0.5843 -4.5,-0.7895 -1.375,-0.2053 -7.45,-1.1085 -13.5,-2.007 -6.05,-0.8985 -14.825,-2.5128 -19.5,-3.5873 -11.60897,-2.6681 -13.21969,-2.8525 -15.33319,-1.7546 -1.30972,0.6804 -2.31773,0.5138 -3.53006,-0.5833 -0.98528,-0.8917 -7.97466,-2.6507 -16.66682,-4.1945 -8.23346,-1.4623 -16.76993,-3.0127 -18.96993,-3.4453 -12.07991,-2.3754 -19.77222,-4.0338 -20.34886,-4.3872 -0.35813,-0.2194 -3.80114,-0.6911 -7.65114,-1.0482 -3.85,-0.357 -12.54012,-1.5739 -19.31139,-2.7042 -6.77126,-1.1302 -12.4975,-1.8688 -12.72498,-1.6414 -0.86102,0.8611 -1.36379,7.9226 -1.94348,27.297 -0.32913,11 -1.23162,34.175 -2.00554,51.5 -0.77392,17.325 -1.67328,39.6 -1.99859,49.5 -0.32531,9.9 -0.79416,19.8 -1.04188,22 -0.43666,3.8779 -1.63567,24.6724 -1.91465,33.2057 -0.0756,2.3131 -0.45354,4.5217 -0.83982,4.908 -0.38627,0.3862 -0.20597,1.3003 0.40067,2.0313 0.66142,0.797 0.80369,2.4352 0.35537,4.092 -0.4112,1.5197 -0.79895,5.5381 -0.86167,8.9299 -0.14742,7.9721 -1.05384,8.7477 -2.39848,2.0523 z m 20.19217,-602.9692 c 0.49042,-3.1983 2.02499,-25.1254 3.06184,-43.75 1.14694,-20.60216 2.2754,-52.80426 3.06627,-87.50002 0.28835,-12.65 0.72175,-26.15 0.96312,-30 2.09315,-33.38734 2.66211,-49.89204 1.76509,-51.20229 -1.54243,-2.25297 -9.62442,4.25613 -15.49349,12.47821 -6.63964,9.3016 -6.68923,9.39515 -11.27589,21.27468 -6.63218,17.17747 -8.45176,27.42547 -8.47624,47.73881 -0.0226,18.72542 1.31583,31.73266 4.54912,44.21059 2.60365,10.04806 4.57941,19.37095 6.88758,32.5 1.39145,7.9147 5.48265,28.33232 7.61429,38.00002 1.9176,8.6969 5.28407,19.5 6.07662,19.5 0.41984,0 0.98759,-1.4625 1.26169,-3.25 z m 15.11277,-146.50002 c -0.25175,-0.6875 -0.0886,-1.25 0.36246,-1.25 0.45111,0 1.63051,-3.0375 2.6209,-6.75 1.03454,-3.87804 4.48078,-11.43023 8.09973,-17.75 9.61068,-16.78312 10.23389,-22.66537 3.67845,-34.7194 -2.58933,-4.76122 -4.15088,-5.71391 -11.89854,-7.25925 l -3.1165,-0.62162 -0.6366,7.80014 c -1.20881,14.81136 -2.70461,64.68575 -2.03156,67.73838 l 0.67505,3.06175 1.35217,-4.5 c 0.74369,-2.475 1.14618,-5.0625 0.89444,-5.75 z M 1392.5,762.58785 c -8.2039,-13.9138 -29.2533,-37.71337 -45.8974,-51.89413 -23.8205,-20.29491 -50.854,-46.22596 -61.8844,-59.36077 -3.3331,-3.96895 -9.8044,-11.6352 -14.3807,-17.03612 -13.355,-15.76154 -14.5339,-17.59819 -18.8968,-29.43931 -3.2987,-8.95263 -4.5864,-11.34791 -6.2861,-11.69239 -5.1127,-1.03618 -9.792,-1.53313 -19.6376,-2.08553 -8.4513,-0.47417 -59.9095,-4.25547 -109.5063,-8.04684 -7.1948,-0.55 -8.1909,-0.40817 -9.8264,1.39904 -1.7849,1.97236 -1.7318,2.06279 2.7615,4.696 5.3999,3.16455 13.8241,6.48888 16.4436,6.48888 2.6772,0 14.9522,5.71091 19.6276,9.13168 9.1919,6.72535 16.0844,10.84363 17.3482,10.36563 2.0743,-0.78453 12.968,5.45638 16.0493,9.19452 1.5112,1.83329 5.6379,5.36856 9.1706,7.85614 7.7736,5.47384 15.1241,12.33199 14.4268,13.46031 -0.9374,1.51666 9.8162,9.88953 17.4529,13.58902 4.1537,2.01222 10.4772,5.34243 14.0522,7.40048 19.1754,11.03884 28.9474,15.2332 44.0718,18.91674 14.6122,3.55876 26.4333,9.16493 34.972,16.58548 13.0159,11.31145 16.7935,14.32832 23.7278,18.94933 3.9994,2.66519 10.2994,7.37773 14,10.47232 3.7006,3.0946 8.3034,6.71201 10.2284,8.03869 5.3125,3.66132 12.6792,9.9935 29.3598,25.23695 2.8271,2.58352 5.2724,4.3243 5.4341,3.86841 0.1616,-0.45589 -1.1033,-3.19843 -2.8109,-6.09453 z M 1244.8175,588.51503 c 0.7318,-1.1696 0.03,-4.54148 -2.6016,-12.5 -3.9449,-11.93027 -10.6989,-37.40922 -10.6989,-40.36075 0,-2.48673 -6.8012,-25.78005 -8.4412,-28.91005 l -1.2996,-2.48042 -1.1648,2.17643 c -0.6406,1.19704 -0.9239,2.17644 -0.6296,2.17644 0.2944,0 -0.1562,0.7875 -1.0013,1.75 -0.8451,0.9625 -2.6851,3.2125 -4.0889,5 -1.5709,2.00026 -3.445,3.25 -4.8737,3.25 -1.2767,0 -4.6346,1.82852 -7.4619,4.06338 -6.1726,4.87918 -18.4438,10.93662 -22.1555,10.93662 -6.761,0 -23.1965,6.91112 -27.3835,11.51475 -1.1,1.20945 -3.1163,2.55167 -4.4807,2.98272 -1.3643,0.43105 -3.6143,1.56159 -5,2.51233 -1.3856,0.95073 -5.6693,3.77892 -9.5193,6.28487 -7.1942,4.68269 -20.3626,15.70842 -21.7747,18.23171 -0.5636,1.00717 -0.1316,1.55304 1.4905,1.88301 3.3532,0.68213 10.5794,1.63324 16.2842,2.14333 29.0723,2.59945 40.187,3.64093 53,4.96627 8.25,0.85335 16.35,1.73512 18,1.95949 1.65,0.22436 6.15,0.6684 10,0.98675 3.85,0.31835 9.925,1.02586 13.5,1.57225 14.1716,2.16594 18.8784,2.13368 20.3005,-0.13913 z m -14.2008,1057.41067 c -0.055,-1.755 0.3503,-3.4691 0.9003,-3.809 1.15,-0.7107 1.15,0.9092 0,4.5 -0.7646,2.3875 -0.8051,2.3564 -0.9003,-0.691 z m 22.5014,-1.8953 c 0.9956,-7.3735 1.4526,-8.76 2.5313,-7.6813 0.6955,0.6955 0.624,2.4175 -0.224,5.3946 -1.6679,5.8558 -2.9625,7.1388 -2.3073,2.2867 z m -15.4977,-33.1145 c -0.057,-1.7604 0.3174,-5.3604 0.8316,-8 0.5143,-2.6396 1.2097,-6.4867 1.5454,-8.5492 0.6385,-3.9236 2.5196,-5.2189 2.5196,-1.7349 0,1.1083 -0.66,4.5958 -1.4667,7.75 -0.8067,3.1542 -1.8852,7.5349 -2.3967,9.7349 -0.9047,3.8918 -0.9327,3.9134 -1.0332,0.7992 z m 280.1494,-3.5492 c -4.0074,-5.049 -4.8863,-20.846 -1.5195,-27.3114 2.2486,-4.3181 7.9637,-8.8718 12.5361,-9.9887 3.222,-0.787 8.3196,1.0366 9.1823,3.2848 1.1154,2.9068 -0.6572,2.915 -4.7128,0.022 -1.4562,-1.039 -2.4081,-0.9103 -5.5,0.7436 -5.1144,2.7358 -8.8019,9.6853 -7.8452,14.7852 l 0.694,3.6993 6.0427,-3.0503 c 3.4385,-1.7358 7.1905,-2.9176 8.7061,-2.7423 2.3709,0.2743 1.9389,0.72 -3.9326,4.0581 -3.6279,2.0625 -7.6229,3.75 -8.8778,3.75 -2.4278,0 -2.4535,0.6457 -0.4277,10.75 0.5617,2.8016 0.3753,3.25 -1.351,3.25 -1.1014,0 -2.449,-0.5625 -2.9946,-1.25 z m -256.642,-7.25 c 0.3045,-2.75 0.9667,-5.4275 1.4715,-5.95 1.3414,-1.3886 1.0124,2.2376 -0.6306,6.95 l -1.3946,4 0.5537,-5 z m 210.3211,2.3728 c -0.6262,-1.17 -1.3748,-5.5747 -1.6636,-9.7882 -0.446,-6.5075 -0.2041,-8.2901 1.6066,-11.8394 2.2986,-4.5056 4.6271,-6.2452 8.3594,-6.2452 6.8319,0 6.4678,8.8965 -0.6884,16.8175 -3.2917,3.6435 -3.4983,4.2509 -2.9087,8.5523 0.581,4.2389 0.4571,4.6302 -1.4661,4.6302 -1.1554,0 -2.613,-0.9573 -3.2392,-2.1272 z m 5.9978,-18.2414 c 0.6971,-1.3027 1.0881,-3.2152 0.8686,-4.25 -0.3288,-1.5506 -0.6978,-1.3186 -2.0986,1.3189 -0.9348,1.7602 -1.6997,3.6727 -1.6997,4.25 0,1.8531 1.6232,1.1223 2.9297,-1.3189 z m 9.147,15.7797 c -2.7438,-2.3088 -3.0767,-3.1796 -3.0767,-8.0489 0,-5.423 0.028,-5.4723 4.0816,-7.2874 6.2937,-2.8178 14.5565,-0.1579 17.1428,5.5184 3.9002,8.56 -10.4294,16.3124 -18.1477,9.8179 z m 12.4614,-5.7017 c 1.2012,-5.2484 -4.6961,-10.4086 -8.0557,-7.049 -2.0259,2.026 -1.8598,3.6228 0.5322,5.1167 1.4769,0.9223 1.8522,1.9056 1.4059,3.6837 -0.3348,1.334 -0.3145,2.9018 0.045,3.4838 1.0323,1.6703 5.3423,-2.0456 6.0723,-5.2352 z m -255.5077,-17.2845 c -0.017,-1.1413 0.8857,-7.1627 2.0054,-13.3809 1.1197,-6.2182 1.8297,-11.5118 1.5778,-11.7637 -0.4561,-0.4562 -6.8594,-2.0535 -11.6136,-2.8971 -1.375,-0.244 -5.425,-1.0784 -9,-1.8543 -3.575,-0.7759 -13.25,-2.3958 -21.5,-3.5999 -8.25,-1.204 -20.4,-3.2974 -27,-4.6519 -6.6,-1.3545 -13.575,-2.6661 -15.5,-2.9147 -7.2717,-0.9388 -46.791,-7.4585 -53.5,-8.8261 -36.9009,-7.5218 -51.5012,-9.8987 -52.8229,-8.5994 -0.4526,0.4449 -0.9535,2.4545 -1.1131,4.4658 -0.5404,6.8107 -2.2395,5.6563 -2.779,-1.8882 l -0.285,-3.9855 -6,-1.199 c -3.3,-0.6595 -11.4,-2.1535 -18,-3.3199 -30.33766,-5.3619 -35.38876,-6.3069 -41.18766,-7.7058 -10.2565,-2.4742 -10.9118,-4.015 -1.3584,-3.194 4.4599,0.3833 8.6572,1.1039 9.3275,1.6013 0.6702,0.4974 2.3436,0.801 3.7186,0.6746 1.375,-0.1263 4.29816,0.2323 6.49606,0.7969 6.3925,1.6421 7.6644,1.8911 14.1037,2.7614 3.3549,0.4534 6.9549,1.2746 8,1.8248 3.7153,1.956 22.2886,3.5358 24.6212,2.0941 0.6334,-0.3914 1.2637,-6.5615 1.559,-15.2603 0.406,-11.959 0.762,-14.6031 1.9663,-14.6031 1.0445,0 1.2995,0.6813 0.8803,2.3515 -0.3246,1.2934 -0.2892,2.6526 0.079,3.0204 1.0165,1.0165 1.0807,4.6281 0.082,4.6281 -0.483,0 -0.5828,1.575 -0.2216,3.5 0.4402,2.3466 0.2788,3.5 -0.4899,3.5 -0.7954,0 -0.8506,0.5529 -0.1803,1.8053 0.5314,0.9929 0.7116,3.703 0.4005,6.0224 -0.4208,3.1375 -0.136,4.692 1.1127,6.0717 1.6477,1.8208 9.7597,3.6164 14.341,3.1745 1.2375,-0.1194 2.25,0.2328 2.25,0.7826 0,0.5498 2.5875,1.2896 5.75,1.644 3.1625,0.3545 6.425,0.9048 7.25,1.223 2.7947,1.078 6.9172,1.8339 14.5,2.659 2.2,0.2394 4.675,0.68 5.5,0.9791 1.6144,0.5853 6.1043,1.3968 12.5,2.2593 2.2,0.2966 5.125,0.9232 6.5,1.3923 2.3551,0.8035 4.8394,1.1306 19.5,2.5676 3.3,0.3234 6.675,0.8342 7.5,1.1351 0.825,0.3009 2.85,0.7144 4.5,0.9189 1.65,0.2045 6.825,1.3238 11.5,2.4873 4.675,1.1635 10.075,2.2235 12,2.3556 1.925,0.132 6.875,0.7743 11,1.4273 4.125,0.6529 10.425,1.6076 14,2.1216 3.575,0.5139 13.25,2.1133 21.5,3.5543 8.25,1.441 18.6918,3.2105 23.204,3.9321 4.5122,0.7217 8.5969,1.5549 9.077,1.8516 0.4801,0.2967 7.3632,1.4718 15.2959,2.6112 15.259,2.1918 24.6681,4.0395 36.9231,7.2506 4.125,1.0809 8.5113,2.1074 9.7473,2.2811 7.4001,1.04 11.3062,1.7763 15.7527,2.9694 2.75,0.7379 7.4212,1.6172 10.3805,1.954 2.9592,0.3368 5.7993,0.8712 6.3113,1.1876 1.1449,0.7077 5.7116,1.4519 10.6212,1.7311 2.0279,0.1153 4.5384,0.6999 5.579,1.2992 1.0407,0.5993 2.7305,0.8704 3.7554,0.6024 1.0248,-0.268 2.5161,0.055 3.3141,0.7169 0.798,0.6622 1.8895,0.933 2.4256,0.6017 0.5361,-0.3313 1.2407,-0.172 1.5659,0.3542 1.1091,1.7945 -21.0432,-0.6571 -22.9231,-2.537 -0.9154,-0.9154 -1.4908,-1.0042 -1.7362,-0.2681 -0.3018,0.9055 -51.7588,-7.7295 -83.7937,-14.0614 -2.475,-0.4892 -7.875,-1.4113 -12,-2.0492 -4.125,-0.6379 -8.2629,-1.3732 -9.1953,-1.634 -1.3155,-0.3681 -1.8309,0.377 -2.3003,3.3257 -2.649,16.6378 -5.3892,27.513 -5.474,21.7249 z m 22.2806,-2.0497 c 0.2888,-1.0313 0.8185,-4.4556 1.1771,-7.6094 0.7019,-6.1747 2.5119,-8.8894 2.5119,-3.7676 0,4.1037 -1.9852,11.8746 -3.2301,12.644 -0.5702,0.3524 -0.7632,-0.1806 -0.4589,-1.267 z m -214.6875,-0.9139 c -0.9649,-2.5147 -0.6803,-3.1635 0.4986,-1.1363 0.5837,1.0038 0.8506,2.0357 0.5931,2.2931 -0.2575,0.2575 -0.7487,-0.2631 -1.0917,-1.1568 z m 0.2881,-14.6523 c -0.237,-14.2243 0.3682,-26.4525 1.3998,-28.2805 1.1225,-1.9893 1.1514,-1.984 1.4934,0.2765 0.1918,1.2678 -0.059,2.8428 -0.558,3.5 -0.4987,0.6573 -0.7183,3.895 -0.4878,7.195 0.2304,3.3 0.3723,7.125 0.3153,8.5 -0.057,1.375 -0.1234,4.8522 -0.1476,7.7272 -0.059,6.9631 -1.9007,7.952 -2.0151,1.0818 z m -1018.911562,-3.809 c 0,-0.55 0.19844,-1 0.44098,-1 0.24254,0 0.7191,0.45 1.05902,1 0.33992,0.55 0.14148,1 -0.44098,1 -0.58246,0 -1.05902,-0.45 -1.05902,-1 z m 1240.181262,-17 c 0.01,-1.375 0.3314,-3.625 0.7144,-5 0.6016,-2.1599 0.7901,-2.256 1.3856,-0.7067 0.379,0.9863 0.057,3.2363 -0.7145,5 -1.3042,2.9795 -1.4024,3.0296 -1.3855,0.7067 z m 144.3203,-4.3561 c -1.0992,-0.8142 -1.7742,-1.7008 -1.5,-1.9703 0.807,-0.7932 12.0807,-4.7726 17.4984,-6.1765 14.2105,-3.6826 16.8779,-4.6442 20.9062,-7.5371 4.4907,-3.225 16.38,-16.6182 20.9148,-23.5605 1.8124,-2.7746 3.3017,-7.7939 5.1625,-17.3995 1.4384,-7.425 3.043,-15.6596 3.5659,-18.2992 1.4189,-7.1633 1.149,-20.7214 -0.5592,-28.0869 -1.9689,-8.4896 -6.9963,-22.6807 -10.4912,-29.6139 -4.5517,-9.0297 -7.7073,-19.703 -10.0522,-34 -1.8302,-11.1591 -2.0878,-15.4074 -1.4859,-24.5 0.4006,-6.05 0.9029,-19.775 1.1163,-30.5 0.2529,-12.7133 0.9397,-22.0229 1.9734,-26.749 1.4113,-6.453 6.7627,-18.1362 16.402,-35.8088 3.7106,-6.803 22.7238,-25.7676 32.5474,-32.4642 2.75,-1.8746 7.7583,-5.9717 11.1296,-9.1047 3.3712,-3.1329 8.0616,-6.9158 10.423,-8.4065 2.3614,-1.4907 6.3531,-4.6207 8.8704,-6.9557 2.5174,-2.3349 6.7781,-5.406 9.4684,-6.8246 6.1629,-3.2498 14.0538,-8.7927 21.4017,-15.0335 3.1388,-2.6658 7.2819,-5.6805 9.2069,-6.6994 3.9828,-2.1079 18.3731,-17.439 22.0144,-23.4536 1.332,-2.2 3.8605,-5.897 5.6189,-8.2156 1.7585,-2.3186 4.156,-6.778 5.3277,-9.9098 1.1718,-3.1318 3.6233,-8.2412 5.4477,-11.3542 1.8245,-3.1129 3.8891,-7.4285 4.588,-9.5902 0.6989,-2.1616 1.9512,-5.2723 2.7829,-6.9127 1.4987,-2.9559 5.4202,-23.3853 4.7095,-24.5351 -0.2033,-0.3289 -1.0827,-7.997 -1.9543,-17.0402 -2.3915,-24.8142 -2.7015,-26.4384 -5.0469,-26.4404 -1.4766,0 -2.5023,-1.3515 -3.9879,-5.2489 -1.237,-3.2453 -2.4769,-5.0694 -3.25,-4.7814 -0.8402,0.313 -1.25,-0.6069 -1.25,-2.8058 0,-4.3505 -6.7535,-18.04262 -11.6729,-23.66572 -2.1653,-2.475 -5.0154,-6.075 -6.3337,-8 -1.3182,-1.925 -4.0805,-5.525 -6.1383,-8 -2.0578,-2.475 -5.4545,-7.03447 -7.5483,-10.13215 -2.0937,-3.09769 -6.5068,-9.25906 -9.8068,-13.69194 -3.3,-4.43287 -8.475,-11.54794 -11.5,-15.81126 -3.025,-4.26331 -8.5927,-10.92694 -12.3726,-14.80807 -9.8148,-10.07761 -22.8421,-25.10432 -28.3773,-32.73257 -2.6125,-3.60049 -11.9501,-15.40266 -20.7501,-26.22704 -31.9581,-39.30991 -44.0375,-54.61094 -50.9959,-64.59697 -3.4443,-4.94289 -10.4365,-13.95561 -23.2746,-30 -2.4205,-3.025 -13.4748,-14.97143 -24.5652,-26.54762 -11.0904,-11.57619 -25.7893,-27.31194 -32.6643,-34.96834 -20.0576,-22.33734 -37.0784,-40.40364 -40.0768,-42.53875 l -2.781,-1.98025 3.0365,6.07657 c 1.67,3.34211 2.8237,6.28935 2.5636,6.54941 -0.6666,0.66665 -13.3444,-13.64154 -20.0168,-22.59102 -8.2915,-11.12125 -16.9304,-22.05292 -20.4737,-25.9074 -3.7811,-4.11327 -8.7464,-13.92635 -10.1665,-20.0926 -2.5855,-11.22618 -0.5382,-25.73376 5.0802,-36 1.6555,-3.025 4.7094,-8.65 6.7865,-12.5 2.077,-3.85 5.9257,-10.825 8.5527,-15.5 11.2162,-19.96028 18.7055,-36.67264 22.8989,-51.09903 1.9448,-6.6907 2.0393,-7.85435 0.7906,-9.73494 -1.2401,-1.86769 -1.155,-3.55055 0.6772,-13.40097 1.1525,-6.19578 2.8091,-20.04006 3.6814,-30.76506 2.3031,-28.31605 2.422,-29.39475 4.6314,-42 4.3302,-24.70565 4.3527,-25.13375 4.3014,-82 -0.044,-49.21122 -0.242,-56.13154 -1.7444,-61.07349 -3.2098,-10.55795 -4.8956,-20.46259 -5.7742,-33.92651 -1.1635,-17.82711 -4.2533,-36.64299 -8.36,-50.90901 -3.1938,-11.0947 -4.2547,-16.42906 -6.5812,-33.09099 -0.9409,-6.7385 -2.6643,-16.66579 -7.4648,-42.999996 -2.8364,-15.559546 -5.473,-27.456032 -6.9813,-31.5 -0.8206,-2.2 -1.5117,-5.273102 -1.5358,-6.829115 -0.1304,-8.403894 -11.3075,-46.4796886 -14.1619,-48.2438206 -0.4851,-0.299804 -0.872,-1.3060403 -0.8598,-2.23608105 0.039,-2.99049685 3.6589,2.70473305 6.8697,10.80901665 3.2234,8.13623 4.6418,13.153648 8.0572,28.5 1.224,5.5 3.3191,14.275 4.6557,19.5 3.9015,15.250952 7.2114,30.112185 7.9066,35.5 0.3549,2.75 1.715,10.399996 3.0225,16.999996 1.3075,6.6 2.8664,16.05 3.4643,21 0.9885,8.18379 4.5411,24.27703 8.4988,38.5 2.3788,8.54868 5.3476,27.24533 6.5103,41 1.3124,15.52527 2.5219,22.88189 5.7546,35 l 2.5342,9.5 -0.275,41 c -0.4081,60.8121 -0.6913,73.43328 -1.7845,79.5 -4.0891,22.69352 -6.652,45.57416 -7.7849,69.5 -0.3126,6.6 -0.9712,14.025 -1.4636,16.5 -0.4925,2.475 -1.1627,6.525 -1.4895,9 l -0.5942,4.5 2.0984,-4.47227 c 1.9764,-4.21224 3.5167,-5.97708 5.2472,-6.01242 1.4743,-0.0301 0.6904,2.89449 -3.3825,12.61841 -2.2729,5.42646 -4.6979,11.89128 -5.3888,14.36628 -3.5833,12.83485 -12.4794,32.3599 -23.2144,50.95039 -7.6396,13.2299 -16.8431,31.75655 -18.1568,36.54961 -1.5715,5.73346 -1.3612,17.10552 0.4445,24.0399 1.8328,7.0383 5.0214,12.76175 10.7644,19.32141 2.301,2.62818 6.8198,8.17968 10.0418,12.33667 4.1499,5.35409 6.361,7.42671 7.5822,7.10737 1.1099,-0.29026 3.6544,1.44479 7.1447,4.87192 7.9851,7.84037 35.2181,36.73932 54.0183,57.32273 9.0423,9.9 20.9307,22.50984 26.4186,28.02186 21.9969,22.09353 39.2129,42.36004 59.1119,69.58579 3.3736,4.61579 15.3064,19.64235 26.5172,33.39235 19.3169,23.69196 25.1644,31.05109 39.4444,49.64076 3.3525,4.36432 12.0979,14.33055 19.4343,22.14718 7.3363,7.81663 15.8434,17.68028 18.9045,21.91922 3.0611,4.23894 9.6157,13.3826 14.5657,20.31924 4.95,6.93664 11.0294,15.16842 13.5099,18.29284 2.4804,3.12442 5.7181,7.48076 7.1949,9.68076 1.4768,2.2 4.3294,5.78732 6.3393,7.97183 2.0098,2.18451 5.1973,7.03607 7.0833,10.78117 1.8861,3.74522 4.5004,7.74082 5.8097,8.87922 4.9252,4.2825 7.2904,12.1211 9.917,32.8678 1.3579,10.725 2.7544,22.2977 3.1033,25.717 0.7704,7.5497 -1.7478,25.8 -4.3703,31.6732 -1.0093,2.2604 -2.4131,5.9098 -3.1195,8.1098 -0.7063,2.2 -2.7837,6.7295 -4.6164,10.0656 -1.8326,3.3361 -4.2361,8.6933 -5.341,11.9049 -1.105,3.2115 -3.2468,7.4561 -4.7596,9.4324 -1.5128,1.9762 -4.3605,6.069 -6.3281,9.0951 -1.9676,3.0261 -4.404,6.177 -5.4143,7.002 -1.0102,0.825 -4.0851,4.2 -6.8331,7.5 -2.748,3.3 -7.2159,7.4642 -9.9286,9.2537 -2.7128,1.7895 -6.578,4.7885 -8.5894,6.6644 -3.895,3.6327 -13.5668,10.3683 -21.4485,14.9372 -2.6353,1.5277 -7.0171,4.7542 -9.7373,7.1702 -2.7202,2.4159 -7.5391,6.2741 -10.7086,8.5736 -3.1695,2.2996 -7.1127,5.6235 -8.7627,7.3866 -1.65,1.763 -6.375,5.6909 -10.5,8.7287 -9.7033,7.1459 -27.93,25.2712 -30.5,30.3305 -1.1,2.1655 -4.3789,8.3058 -7.2864,13.6453 -9.2726,17.0286 -9.3579,17.4389 -10.2551,49.3098 -0.4335,15.4 -1.0915,29.3809 -1.4621,31.0686 -0.8777,3.9971 2.9777,31.5246 5.5375,39.5375 1.0939,3.4243 3.9703,10.3538 6.3919,15.3988 2.4216,5.0451 5.848,13.6329 7.6141,19.084 2.7423,8.464 3.2818,11.8136 3.695,22.9411 0.4348,11.7077 0.1571,14.7496 -2.7359,29.9753 -1.7709,9.3199 -3.6135,17.9808 -4.0947,19.2465 -0.9818,2.5821 -1.1039,2.7451 -7.4192,9.8998 -2.501,2.8334 -5.9109,6.8676 -7.5776,8.9648 -4.6229,5.8172 -12.4472,12.0901 -16.6425,13.3428 -2.0708,0.6182 -6.24,1.8384 -9.265,2.7114 -3.025,0.873 -8.2,2.6495 -11.5,3.948 -8.4391,3.3204 -11.6273,3.7816 -13.9984,2.0253 z m -162.4019,-17.7272 c 0.055,-1.3292 0.477,-3.5417 0.9381,-4.9167 0.6642,-1.9803 0.7782,-1.6126 0.5485,1.7685 -0.3038,4.4712 -1.6596,7.3424 -1.4866,3.1482 z m -515.52364,-16.5902 c 0.50976,-6.8994 0.4424,-7.186 -1.76279,-7.5 -2.80766,-0.3998 -3.57823,-3.319 -1.12465,-4.2605 3.01312,-1.1562 13.93514,-1.8773 16.9551,-1.1193 2.73849,0.6873 2.77545,0.7737 0.91398,2.1348 -1.06695,0.7802 -3.62177,1.4185 -5.67736,1.4185 -4.55947,0 -6.61702,1.8893 -7.3862,6.7821 -1.31108,8.34 -2.45875,9.8624 -1.91808,2.5444 z m -27.92235,3.2134 c -0.35952,-0.9369 -0.65367,-2.5879 -0.65367,-3.6688 0,-2.056 7.50552,-16.4475 9.08777,-17.4253 1.96241,-1.2129 0.73294,2.2397 -3.08777,8.6709 -5.99717,10.0947 -5.57822,10.8833 5.78179,10.8833 9.18176,0 6.81158,2.1339 -3.07489,2.7684 -6.32081,0.4057 -7.49486,0.2266 -8.05323,-1.2285 z m 417.34629,-9.5399 c 0,-0.55 0.45,-1 1,-1 0.55,0 1,0.45 1,1 0,0.55 -0.45,1 -1,1 -0.55,0 -1,-0.45 -1,-1 z m 130.5997,-4.5 c 0.357,-2.75 1.0724,-5.675 1.5898,-6.5 0.6264,-0.9988 0.755,0.1114 0.3848,3.3223 -0.3057,2.6523 -1.0211,5.5773 -1.5898,6.5 -0.7524,1.2209 -0.8572,0.3162 -0.3848,-3.3223 z m 25.5627,-15.5 c -0.041,-1.375 0.5341,-5.2 1.2788,-8.5 1.0758,-4.7679 1.3552,-5.2813 1.3603,-2.5 0.01,4.1746 -2.5267,14.7383 -2.6391,11 z M 1264.5959,1463.2 c -0.043,-1.0541 0.193,-1.6448 0.5253,-1.3125 0.3323,0.3323 0.3678,1.1948 0.079,1.9167 -0.3192,0.7977 -0.5562,0.5608 -0.6042,-0.6042 z m 1.1196,-5.5833 c 0,-4.7891 1.3094,-9.0021 2.1738,-7 0.3562,0.825 0.013,3.525 -0.7635,6 l -1.4111,4.5 8e-4,-3.5 z m 3.9076,-20 c -0.1302,-1.9911 2.6928,-19.3123 3.4831,-21.3719 0.3412,-0.8891 0.9644,-1.404 1.385,-1.1441 0.4205,0.2599 -0.094,4.4198 -1.1425,9.2443 -2.3455,10.7881 -3.5966,15.2448 -3.7256,13.2717 z m 22.0512,-1.5 c -0.023,-1.1 0.3303,-3.8 0.7853,-6 l 0.8274,-4 0.015,3.5 c 0.01,1.925 -0.3449,4.625 -0.7853,6 -0.6475,2.0219 -0.8087,2.1175 -0.8427,0.5 z m -571.66198,-8.75 c -1.82519,-5.1624 -3.28208,-16.8701 -1.93117,-15.5192 0.67574,0.6757 3.33026,16.7692 2.76597,16.7692 -0.21607,0 -0.59173,-0.5625 -0.8348,-1.25 z m 662.43688,-22.1716 c -4.5523,-1.515 -5.7096,-3.7309 -4.0753,-7.803 2.467,-6.1465 2.4713,-6.5912 0.067,-6.9434 -1.2468,-0.1826 -2.4615,-0.9227 -2.6994,-1.6446 -0.7502,-2.2766 7.7939,-1.0704 9.3745,1.3234 1.1415,1.7288 1.0253,2.6065 -0.8286,6.2569 -2.7779,5.4699 -1.7381,6.5656 6.23,6.5656 3.9806,0 5.7282,0.3385 5.0822,0.9845 -1.6434,1.6434 -9.6836,2.4142 -13.15,1.2606 z m -1207.15744,-1.8284 c -0.2416,-0.6875 -0.1096,-2.375 0.29333,-3.75 0.63739,-2.1751 0.74554,-2.0127 0.83227,1.25 0.10121,3.8076 -0.32975,4.7647 -1.1256,2.5 z m 1121.54184,-1.7005 c -1.0491,-2.7987 -0.9073,-3.5638 1.25,-6.7428 1.9596,-2.8877 2.4334,-3.1855 2.4334,-1.5296 0,1.1309 0.4367,2.2062 0.9705,2.3896 0.5338,0.1833 1.0963,1.4568 1.25,2.8301 0.2143,1.9138 -0.2315,2.5702 -1.909,2.8115 -1.2037,0.1731 -2.3287,1.0085 -2.5,1.8564 -0.1853,0.9171 -0.7909,0.2628 -1.4949,-1.6152 z m 38.9334,-0.039 c -1.9355,-1.1802 -3.25,-2.7964 -3.25,-3.9963 0,-2.6559 0.9789,-2.543 3.4624,0.3991 2.6074,3.0888 5.6515,3.9546 7.9626,2.2647 2.738,-2.0021 1.4788,-4.3423 -7.3991,-13.751 l -7.952,-8.4275 2.9239,-2.7009 c 5.4628,-5.0462 16.2102,-6.3553 16.8218,-2.0491 0.3572,2.5154 -1.2869,3.0807 -2.1812,0.75 -0.3166,-0.825 -1.3477,-1.5 -2.2913,-1.5 -2.6923,0 -10.3471,4.0379 -10.3471,5.4581 0,0.7038 2.7009,3.9106 6.002,7.1261 6.0598,5.9027 10.2585,12.5734 9.3705,14.8874 -0.6148,1.6023 -4.8085,3.5295 -7.6696,3.5247 -1.2116,0 -3.6654,-0.8955 -5.4529,-1.9853 z m 25.2138,-2.4258 c -2.3417,-3.574 -3.2849,-17.7973 -1.6303,-24.5852 1.5331,-6.2897 3.4027,-8.6338 7.919,-9.929 9.6339,-2.763 12.6263,14.589 3.6912,21.4041 -1.8206,1.3887 -4.0278,2.5249 -4.9048,2.5249 -1.3642,0 -1.4984,0.9391 -0.9287,6.5 0.5729,5.5918 0.4403,6.5 -0.9491,6.5 -0.8882,0 -2.327,-1.0867 -3.1973,-2.4148 z m 6.2369,-15.8352 c 4.1702,-4.5784 5.6359,-11.1053 3.3125,-14.75 -2.5231,-3.9578 -6.8548,3.6699 -6.9568,12.25 -0.063,5.3042 0.6467,5.7911 3.6443,2.5 z m -89.7007,15.7464 c -8.425,-1.4592 -14.0637,-3.3222 -10.3892,-3.4325 2.2822,-0.069 22.6203,3.8962 23.3059,4.5433 0.769,0.7258 -5.352,0.1995 -12.9167,-1.1108 z m -36.8881,-6.5769 c -2.4134,-0.474 -4.6259,-1.0997 -4.9167,-1.3904 -0.9358,-0.9358 5.1549,-0.3751 10.3048,0.9486 3.8522,0.9902 4.3113,1.2873 2,1.2944 -1.65,0.01 -4.9746,-0.3786 -7.3881,-0.8526 z m 37.2953,-2.419 c 1.3261,-8.0503 2.8134,-14.6127 3.2197,-14.2065 0.6955,0.6956 -1.5907,13.8458 -2.7171,15.6288 -0.7504,1.1878 -0.8747,0.8363 -0.5026,-1.4223 z m -564.71024,-1.8931 c -0.4092,-1.0412 -0.5084,-2.1287 -0.22046,-2.4167 0.91206,-0.9121 1.71456,0.5826 1.33239,2.4815 -0.35024,1.7404 -0.40373,1.7372 -1.11193,-0.065 z m 484.30304,-3.6069 c -2.4308,-0.7785 -2.417,-0.8006 0.5,-0.8006 1.65,0 4.125,0.3602 5.5,0.8006 2.4308,0.7785 2.417,0.8006 -0.5,0.8006 -1.65,0 -4.125,-0.3602 -5.5,-0.8006 z m -46.4863,-8.0685 c -6.9834,-1.167 -9.8322,-1.9463 -9.2487,-2.5298 0.6547,-0.6547 13.7914,1.5907 15.735,2.6895 1.8942,1.0708 0.7015,1.0415 -6.4863,-0.1597 z m -45.2429,-8.5357 c 0.3323,-0.3323 1.1948,-0.3678 1.9167,-0.079 0.7977,0.3192 0.5608,0.5562 -0.6042,0.6042 -1.0541,0.043 -1.6448,-0.193 -1.3125,-0.5253 z m -380.27076,-1.4324 c 0,-0.6351 0.84352,-2.3491 1.87449,-3.809 1.03098,-1.4599 3.46329,-5.8044 5.40514,-9.6544 1.94185,-3.85 4.97793,-8.984 6.74685,-11.4089 2.55903,-3.5079 3.38976,-4.0987 4.06555,-2.8911 0.47459,0.848 0.43819,2.9512 -0.0825,4.7668 -0.51251,1.787 -0.75998,5.9819 -0.54994,9.3219 0.24361,3.874 0.054,5.5548 -0.52354,4.6421 -0.49798,-0.787 -0.91232,-2.2541 -0.92074,-3.2603 -0.0129,-1.5386 -0.53195,-1.7187 -3.26531,-1.1331 -3.90738,0.8371 -2.86112,-0.2089 -7.16853,7.1665 -3.63792,6.229 -5.58147,8.4087 -5.58147,6.2595 z m 374.27076,0.4324 c 0.3323,-0.3323 1.1948,-0.3678 1.9167,-0.079 0.7977,0.3192 0.5608,0.5562 -0.6042,0.6042 -1.0541,0.043 -1.6448,-0.193 -1.3125,-0.5253 z m 184.3095,-8.3683 c 0.3131,-3.5599 0.972,-7.1599 1.4641,-8 1.4288,-2.4391 1.1026,2.5947 -0.5813,8.9725 l -1.4522,5.5 0.5694,-6.4725 z m 20.5897,3.4725 c 0.016,-1.65 0.3896,-4.125 0.83,-5.5 0.7278,-2.2727 0.8033,-2.1818 0.83,1 0.016,1.925 -0.3573,4.4 -0.83,5.5 -0.7297,1.6982 -0.855,1.5473 -0.83,-1 z m -530.46576,-3.1291 c -0.66609,-0.6661 4.63639,-10.9687 9.06902,-17.6209 3.45392,-5.1834 6.22678,-5.0721 6.22678,0.25 0,2.2 0.45,4 1,4 1.65292,0 1.12901,2.4451 -0.8953,4.1783 -1.04242,0.8926 -2.20697,3.4676 -2.5879,5.7223 -0.38093,2.2547 -1.10304,4.0994 -1.6047,4.0994 -0.50165,0 -0.91561,-0.3375 -0.9199,-0.75 -0.004,-0.4125 -1.21487,-1.3105 -2.69017,-1.9957 -2.33575,-1.0847 -2.95812,-0.9866 -4.81639,0.7592 -1.17371,1.1026 -2.42536,1.7135 -2.78144,1.3574 z m -68.10802,-10.2478 c -1.80389,-7.9311 -2.07918,-11.585 -0.68735,-9.1231 1.05325,1.863 3.35703,15.0675 2.737,15.6875 -0.2494,0.2494 -1.17174,-2.7046 -2.04965,-6.5644 z m 47.77592,5.4042 c -1.30667,-3.4051 0.22955,-12.5075 2.46192,-14.5873 1.19129,-1.1098 2.16598,-2.4342 2.16598,-2.9429 0,-0.5088 1.65853,-2.052 3.68562,-3.4294 2.75903,-1.8749 4.01607,-2.2302 5,-1.4136 2.02816,1.6832 1.58145,4.1473 -1.61452,8.906 -1.61089,2.3985 -2.68095,4.7622 -2.37792,5.2525 0.30304,0.4903 2.08918,1.5342 3.96921,2.3197 4.25895,1.7795 3.46551,3.3677 -1.68245,3.3677 -2.68585,0 -4.5166,-0.6597 -5.87382,-2.1165 l -1.97179,-2.1164 -0.68053,3.6275 c -0.7687,4.0975 -2.16629,5.5182 -3.0817,3.1327 z m 257.45396,-2.2512 c -2.0206,-0.2133 -4.2132,-1.0376 -4.8724,-1.8319 -1.6053,-1.9343 -0.2082,-1.8952 6.1084,0.1709 4.6736,1.5287 6.4324,2.5859 3.6879,2.2168 -0.6875,-0.092 -2.9032,-0.3426 -4.9239,-0.5558 z m -41.75436,-7.364 c -2.4356,-0.4778 -4.9106,-1.3743 -5.5,-1.9922 -1.4147,-1.4831 8.711,-0.2196 12.9283,1.6132 l 3,1.3038 -3,-0.028 c -1.65,-0.015 -4.9927,-0.419 -7.4283,-0.8968 z m -40.5717,-6.9896 c -5.5,-1.034 -10.9,-2.3091 -12,-2.8336 -2,-0.9535 -2,-0.9535 0,-1.021 3.0822,-0.104 25.873,3.7555 28.589,4.8414 4.2075,1.6822 -5.4471,1.1079 -16.589,-0.9868 z m 562.38056,-6.6725 c -0.5185,-7.5989 0.5184,-14.1572 2.96,-18.7219 5.1938,-9.71 14.0899,-12.017 14.1441,-3.6679 0.01,1.4863 -1.6509,4.0029 -4.4847,6.7966 -2.475,2.44 -4.5,4.623 -4.5,4.8512 0,0.4248 5.028,1.8256 10.6532,2.968 2.9131,0.5916 3.239,0.3806 4.2791,-2.7707 1.3965,-4.2316 5.0193,-7.7452 8.1774,-7.931 5.6197,-0.3307 13.8903,0.2895 13.8903,1.0416 0,0.4487 -1.7622,1.8062 -3.9161,3.0168 -3.3115,1.8612 -4.3143,2.0195 -6.4959,1.0254 -2.1631,-0.9855 -2.9036,-0.8824 -4.5839,0.6382 -4.4987,4.0713 -1.6005,6.8639 6.9959,6.7411 l 4.5,-0.064 -2.8058,2.4134 c -3.2732,2.8155 -9.073,3.2373 -12.4068,0.9021 -1.4942,-1.0465 -5.2305,-1.5967 -12.1507,-1.7893 l -9.9931,-0.2781 -0.6171,3.2893 c -0.6497,3.4628 -3.4344,4.6386 -3.6459,1.5394 z m 10.501,-20.8019 c 0.3415,-0.89 0.1738,-1.2914 -0.3931,-0.941 -0.5437,0.336 -0.9885,1.0344 -0.9885,1.5519 0,1.4384 0.7168,1.1215 1.3816,-0.6109 z m 51.6438,20.1188 c -1.3283,-3.4938 -1.3118,-16.9955 0.027,-21.8153 0.7059,-2.5417 1.9823,-4.2351 3.9648,-5.2603 1.6081,-0.8316 3.3561,-2.3198 3.8845,-3.307 0.5284,-0.9873 2.4989,-2.6235 4.3789,-3.6359 4.3442,-2.3395 8.4434,-1.4975 9.2986,1.91 0.8378,3.3381 -0.407,5.159 -2.0193,2.954 -2.1147,-2.892 -6.0604,-1.0751 -8.4686,3.8995 -2.3697,4.8952 -2.6763,7.6937 -0.841,7.6762 0.6875,-0.01 3.725,-0.6762 6.75,-1.4881 6.3387,-1.7014 11,-1.9282 11,-0.5352 0,1.3146 -2.3575,2.4787 -12.3218,6.0842 l -8.5094,3.0791 -1.1643,4.8533 c -0.6404,2.6693 -2.0169,5.6248 -3.059,6.5679 -1.8085,1.6367 -1.9413,1.592 -2.9201,-0.9824 z m -1376.02536,0.5555 c 0,-0.4826 0.7875,-1.4951 1.75,-2.25 1.54837,-1.2143 1.60698,-1.189 0.50868,0.2196 -0.68273,0.8756 -0.94523,1.8881 -0.58334,2.25 0.3619,0.3619 0.13299,0.658 -0.50867,0.658 -0.64167,0 -1.16667,-0.3949 -1.16667,-0.8776 z m 57.24838,-3.6224 c -0.68047,-2.2 -1.23974,-5.1089 -1.2428,-6.4643 -0.005,-2.2333 0.14074,-2.318 1.55547,-0.9032 1.09737,1.0974 1.46652,3.0174 1.24281,6.4643 l -0.31825,4.9032 -1.23723,-4 z m 650.25162,2.3282 c -2.75,-0.5215 -5.45,-1.4291 -6,-2.0171 -1.32371,-1.4149 7.38512,-0.4176 13.5,1.5461 l 4.5,1.4451 -3.5,-0.013 c -1.925,-0.01 -5.75,-0.4396 -8.5,-0.9611 z m 426.10366,-3.3282 c 0.7277,-6.4463 1.3169,-8.5 2.4387,-8.5 1.0559,0 0.2208,4.9693 -1.6804,10 l -1.3227,3.5 0.5644,-5 z m -20.5033,0.082 c -0.1674,-3.198 2.0649,-15.0159 3.0318,-16.0506 0.9364,-1.0021 0.6466,1.0879 -1.6597,11.9687 -0.6994,3.3 -1.3169,5.1369 -1.3721,4.0819 z m -443.10036,-3.6453 c -11.46913,-2.1516 -16,-3.2664 -16,-3.9368 0,-0.7073 3.62349,-0.2582 17,2.1071 7.52598,1.3308 11.17525,2.8764 6.5,2.753 -1.65,-0.043 -5.025,-0.459 -7.5,-0.9233 z m -52.68072,-9.3088 c -6.69796,-1.2223 -8.54606,-2.2199 -5.95461,-3.2143 1.50714,-0.5784 19.63533,3.2977 19.63533,4.1983 0,0.6979 -7.36849,0.1679 -13.68072,-0.984 z m -95.86473,-5.0824 c -0.38252,-2.5509 -0.47049,-4.8629 -0.19549,-5.1379 0.275,-0.275 0.81297,1.587 1.19549,4.1379 0.38251,2.5508 0.47048,4.8628 0.19548,5.1378 -0.275,0.275 -0.81297,-1.587 -1.19548,-4.1378 z m -519.90181,-8.1377 c 0.29425,-5.4493 0.6812,-12.7362 0.85989,-16.1932 0.17869,-3.457 0.58022,-6.5408 0.89229,-6.8529 0.31207,-0.312 0.18575,-1.5711 -0.2807,-2.798 -0.94128,-2.4758 0.24378,-5.5571 1.41093,-3.6686 1.54309,2.4967 -1.04694,37.05 -2.91739,38.9205 -0.275,0.275 -0.25926,-3.9585 0.035,-9.4078 z m 1352.19722,5.834 c -5.3305,-3.305 -2.3172,-7.1257 4.5225,-5.7342 5.0052,1.0182 9.7275,2.8112 9.7275,3.6933 0,0.4395 -2.25,0.7991 -5,0.7991 -3.7778,0 -5,0.3667 -5,1.5 0,1.9094 -0.8357,1.8586 -4.25,-0.2582 z m -131.75,-10.2806 c -1.1572,-0.7778 -0.8801,-0.9353 1.2122,-0.6892 1.4917,0.1755 3.0292,0.6361 3.4167,1.0235 1.0917,1.0917 -2.9405,0.8005 -4.6289,-0.3343 z m -6.5,-0.9612 c -0.3505,-0.5672 0.4896,-1 1.941,-1 1.4074,0 2.559,0.45 2.559,1 0,0.55 -0.8734,1 -1.941,1 -1.0675,0 -2.2191,-0.45 -2.559,-1 z m -719.74637,-3.9717 c -6.65386,-0.6783 -8.70223,-1.413 -7.44502,-2.6702 0.78309,-0.7831 12.81497,1.5853 14.14143,2.7837 0.5225,0.472 0.7475,0.7943 0.5,0.7162 -0.2475,-0.078 -3.48588,-0.4514 -7.19641,-0.8297 z m -446.04658,-6.7257 c -2.07959,-8.7684 -2.12522,-10.439 -0.21623,-7.9176 1.6168,2.1355 2.88068,9.0999 2.3063,12.7084 -0.25479,1.6007 -0.9547,0 -2.09007,-4.7908 z m 420.02396,1.0415 c 0.67703,-0.274 2.02703,-0.2906 3,-0.037 0.97297,0.2536 0.41903,0.4777 -1.23097,0.4981 -1.65,0.02 -2.44606,-0.1871 -1.76903,-0.461 z m 45.82459,-10.8997 c -0.37649,-2.0068 -0.48453,-3.8488 -0.24008,-4.0932 0.24444,-0.2445 0.75248,1.1975 1.12896,3.2044 0.37649,2.0068 0.48453,3.8488 0.24008,4.0932 -0.24444,0.2445 -0.75248,-1.1975 -1.12896,-3.2044 z m -512.04293,-8.5764 c -0.32159,-1.3024 -0.38318,-5.068 -0.13686,-8.368 0.24632,-3.3 0.48753,-6.5625 0.53604,-7.25 0.0485,-0.6875 0.47959,-1.25 0.95796,-1.25 0.91057,0 0.6805,17.7831 -0.242,18.7056 -0.29174,0.2917 -0.79355,-0.5352 -1.11514,-1.8376 z m 1093.16473,0.9776 c -2.2294,-1.2553 -1.6724,-5.8087 1.9228,-15.7209 4.0958,-11.292 7.513,-11.9901 10.4816,-2.1412 1.0319,3.4234 2.3899,5.6986 3.8765,6.4942 l 2.2882,1.2246 -2.2531,0.5892 c -1.474,0.3854 -2.0556,1.104 -1.6819,2.0778 0.3142,0.8188 0.8835,3.1534 1.2653,5.1881 0.9823,5.2364 -1.359,4.1612 -3.4878,-1.6016 -1.4427,-3.9055 -2.013,-4.4558 -4.6175,-4.4558 -2.6592,0 -3.1292,0.4925 -4.4715,4.686 -1.3073,4.0841 -1.7341,4.5541 -3.3226,3.6596 z m 9.3226,-13.7638 c 0,-1.9529 -1.2516,-4.0443 -2.1048,-3.517 -1.4848,0.9176 -1.0052,4.4352 0.6048,4.4352 0.825,0 1.5,-0.4132 1.5,-0.9182 z m -27.9636,12.462 c -1.4846,-1.7888 -0.5435,-3.5438 1.9002,-3.5438 2.2038,0 4.4833,2.5116 3.5905,3.9562 -0.9366,1.5154 -4.0872,1.2788 -5.4907,-0.4124 z m -24.9123,-4.0599 c -7.3953,-1.3391 -10.4736,-2.7736 -7.9413,-3.7005 1.6721,-0.6121 19.1445,2.7275 21.5284,4.1148 2.567,1.4938 -4.1866,1.2879 -13.5871,-0.4143 z m -1008.55977,-6.1908 c -0.54268,-1.4252 -0.42782,-1.54 0.5598,-0.5598 0.68342,0.6784 0.99067,1.4853 0.68278,1.7932 -0.30789,0.3078 -0.86705,-0.2472 -1.24258,-1.2334 z m 12.25882,-0.011 c -0.89343,-1.0796 -1.28774,-4.4009 -1.21418,-10.2274 0.19069,-15.1056 5.68688,-22.8048 12.08361,-16.9272 1.69307,1.5557 2.72964,1.9593 3.01124,1.1725 0.23619,-0.6599 1.36591,-2.3904 2.5105,-3.8455 1.70698,-2.1701 2.62694,-2.5365 5.11778,-2.0383 7.31985,1.464 8.55582,6.4882 3.08563,12.543 -1.97027,2.1809 -3.32534,4.381 -3.01125,4.8892 0.31408,0.5082 2.60112,1.5234 5.08231,2.256 6.30612,1.862 6.13827,4.3082 -0.23875,3.4795 -2.6125,-0.3396 -6.23267,-0.6086 -8.04483,-0.5978 -2.59297,0.015 -3.64748,-0.5949 -4.95027,-2.8649 l -1.65544,-2.8844 -3.54458,4.6315 c -3.77042,4.9266 -3.7383,4.8569 -3.92988,8.5245 -0.15543,2.9756 -2.53723,4.0217 -4.30189,1.8893 z m 7.14626,-22.7823 c 0,-0.55 -0.43621,-0.325 -0.96937,0.5 -0.53316,0.825 -0.96937,1.95 -0.96937,2.5 0,0.55 0.43621,0.325 0.96937,-0.5 0.53316,-0.825 0.96937,-1.95 0.96937,-2.5 z m 14.20189,-0.155 c 2.19702,-1.9883 2.39441,-4.345 0.36392,-4.345 -1.45709,0 -3.53518,2.9005 -3.53518,4.9343 0,1.5177 1.06086,1.3206 3.17126,-0.5893 z m 19.40942,20.7442 c -1.63133,-1.8027 -1.89136,-1.8179 -4.59043,-0.2688 -1.57362,0.9031 -3.20793,1.2953 -3.63179,0.8714 -1.13158,-1.1316 8.35748,-19.6918 10.06758,-19.6918 1.4079,0 1.78666,0.7818 2.97008,6.1305 0.35319,1.5964 1.45959,2.86 2.81427,3.2143 l 2.23227,0.5837 -2.59251,2.7858 c -1.42589,1.5321 -2.88406,4.0232 -3.24039,5.5357 -0.76432,3.2443 -1.67985,3.435 -4.02908,0.8392 z m 916.91928,1.1759 c -2.2,-0.2193 -4.45,-0.8755 -5,-1.4583 -1.3652,-1.4464 7.3629,-0.3439 8.8211,1.1143 0.5934,0.5934 0.8764,1.0033 0.6289,0.9108 -0.2475,-0.092 -2.25,-0.3475 -4.45,-0.5668 z m -970.75379,-2.7649 c -1.49848,-4.6861 -2.01521,-9.7843 -0.92331,-9.1095 1.29959,0.8032 2.53267,6.6211 1.96255,9.2596 -0.37307,1.7266 -0.44232,1.7166 -1.03924,-0.1501 z m 916.25379,-7.3816 c -1.925,-0.3401 -3.275,-1.061 -3,-1.602 0.5739,-1.1289 2.2671,-0.9345 8.2448,0.9467 3.7998,1.1958 3.9341,1.3357 1.2552,1.3064 -1.65,-0.018 -4.575,-0.311 -6.5,-0.6511 z m -955.88165,-2.6684 c 0.13721,-3.4211 1.54248,-9.4267 1.86027,-7.95 0.50409,2.3424 -0.21212,9.0767 -1.05821,9.95 -0.56658,0.5848 -0.87489,-0.184 -0.80206,-2 z m 505.04173,-4.575 c -0.088,-0.8937 -0.415,-3.1437 -0.72661,-5 -0.4638,-2.7628 -0.36191,-3.0537 0.56175,-1.6034 0.62058,0.9743 0.94755,3.2243 0.72661,5 -0.22094,1.7756 -0.47373,2.4972 -0.56175,1.6034 z m 407.11072,-1.4792 c 0.3323,-0.3323 1.1948,-0.3678 1.9167,-0.079 0.7977,0.3192 0.5608,0.5562 -0.6042,0.6042 -1.0541,0.043 -1.6448,-0.193 -1.3125,-0.5253 z m -10.2708,-1.0619 c -5.7106,-0.8995 -7.2619,-1.472 -6.3794,-2.3545 0.5465,-0.5465 3.899,-0.1689 8.3946,0.9454 5.3728,1.3318 6.4972,1.8479 3.9848,1.8291 -1.925,-0.014 -4.625,-0.2035 -6,-0.42 z m -900.99996,-7.3339 c 0,-2.75 0.33854,-5 0.75232,-5 0.41377,0 0.83274,2.25 0.93103,5 0.0983,2.75 -0.24026,5 -0.75232,5 -0.51207,0 -0.93103,-2.25 -0.93103,-5 z m 848.79106,-2.4489 c -6.6232,-1.1211 -10.0393,-2.5511 -6.0943,-2.5511 2.6736,0 12.5134,1.8769 13.1436,2.5071 1.1108,1.1108 -0.6806,1.122 -7.0493,0.044 z M 183.51704,1210.95 c 0,-4.7666 0.29902,-8.3676 0.66449,-8.0021 0.92601,0.926 1.00676,16.6685 0.0855,16.6687 -0.4125,0 -0.75,-3.8999 -0.75,-8.6666 z m 30.71152,-0.02 c -1.94281,-8.6947 -2.11497,-10.6812 -0.85841,-9.9046 1.00082,0.6186 3.5731,14.8122 2.99738,16.5393 -0.21615,0.6485 -1.17869,-2.3372 -2.13897,-6.6347 z m 771.35748,5.0701 c -9.1531,-1.5335 -10.2811,-1.9815 -7.5897,-3.0143 1.7668,-0.678 15.6942,2.1195 18.5207,3.7201 2.1228,1.2022 -0.5875,1.0272 -10.931,-0.7058 z m -304.44817,-11.6796 c -0.47449,-3.1877 -0.58328,-6.0752 -0.24177,-6.4167 1.28346,-1.2835 1.71799,0.6649 1.416,6.349 l -0.31152,5.8634 -0.86271,-5.7957 z m 264.37917,4.2235 c -2.475,-0.4695 -6.0618,-1.1342 -7.9707,-1.4772 -2.5933,-0.4659 -3.0869,-0.8384 -1.9523,-1.4733 1.2552,-0.7025 16.2777,1.8531 20.423,3.4742 1.8578,0.7266 -5.9658,0.3363 -10.5,-0.5237 z m -761.25,-7.5043 c -0.4125,-0.416 -0.75,-1.6713 -0.75,-2.7897 0,-1.4717 0.30207,-1.7312 1.09378,-0.9395 0.60158,0.6016 0.93908,1.8569 0.75,2.7897 -0.18908,0.9328 -0.68128,1.3556 -1.09378,0.9395 z m 720.25,-0.071 c -10.34051,-1.5531 -25,-4.7677 -25,-5.4821 0,-0.4785 0.82156,-0.87 1.8257,-0.87 1.6722,0 20.8572,3.9046 29.1743,5.9377 l 3.5,0.8556 -3.5,-0.033 c -1.925,-0.018 -4.625,-0.2018 -6,-0.4084 z m -60,-10.9015 c -0.825,-0.1746 -3.20001,-0.5951 -5.27779,-0.9345 -2.07778,-0.3395 -3.53863,-1.0041 -3.24632,-1.4771 0.48591,-0.7862 12.31531,1.4189 13.39301,2.4966 0.49387,0.4938 -2.3696,0.4439 -4.8689,-0.085 z m -660.14522,-3.4505 c -0.61696,-3.4957 -0.36128,-4.8398 0.71575,-3.7628 0.31379,0.3138 0.4201,2.0763 0.23625,3.9167 l -0.33428,3.3461 -0.61772,-3.5 z m 612.25712,-5.081 c -2.41345,-0.474 -4.62595,-1.0997 -4.91666,-1.3904 -1.00187,-1.0019 4.31661,-0.4867 9.30476,0.9013 5.52792,1.5382 2.60941,1.8635 -4.3881,0.4891 z m -611.91695,-2.419 c -0.0204,-1.65 0.18706,-2.4461 0.46099,-1.769 0.27392,0.677 0.29059,2.027 0.0371,3 -0.25354,0.9729 -0.47766,0.419 -0.49804,-1.231 z m 22.34457,-10.626 c -1.64043,-7.2125 -1.42045,-10.3212 0.39287,-5.5518 1.20521,3.1699 2.53759,12.6778 1.77659,12.6778 -0.30177,0 -1.27802,-3.2067 -2.16946,-7.126 z m 550.46048,5.9135 c -6.87707,-1.2189 -9.5373,-3.3176 -3,-2.3666 2.475,0.36 6.975,1.2628 10,2.0062 4.71701,1.1593 5.00173,1.3506 2,1.3435 -1.925,0 -5.975,-0.4469 -9,-0.9831 z m -36.26104,-6.7469 c -3.60597,-0.6993 -5.53952,-1.6802 -4.65563,-2.362 0.22917,-0.1767 3.56667,0.4481 7.41667,1.3884 6.93284,1.6934 4.81012,2.4419 -2.76104,0.9736 z m -40.91532,-7.4257 c -3.672,-0.6132 -7.047,-1.5038 -7.5,-1.9791 -0.92676,-0.9725 4.39843,-0.2153 12.67636,1.8024 6.63845,1.6181 3.99578,1.7083 -5.17636,0.1767 z m -680.2674487,-2.524 c -0.721771,-1.1678 4.042497,-3.0909 7.657527,-3.0909 1.71579,0 2.8638997,0.2557 2.5513597,0.5682 -1.1728497,1.1729 -9.7354397,3.2888 -10.2088867,2.5227 z m 185.6016987,-3.0909 c 0,-1.375 0.22698,-1.9375 0.50439,-1.25 0.27741,0.6875 0.27741,1.8125 0,2.5 -0.27741,0.6875 -0.50439,0.125 -0.50439,-1.25 z m -173.887062,-0.6042 c 0.3323,-0.3323 1.1948,-0.3678 1.91667,-0.079 0.79773,0.3192 0.56078,0.5562 -0.60417,0.6042 -1.05416,0.043 -1.64479,-0.193 -1.3125,-0.5253 z m 174.482592,-9.1295 c -0.71243,-1.4188 -0.26165,-3.7663 0.72324,-3.7663 1.28499,0 1.7572,3.2374 0.57847,3.9659 -0.50431,0.3117 -1.09008,0.2219 -1.30171,-0.1996 z m 15.71963,-5.9141 c -0.36075,-2.1187 -1.06226,-5.4272 -1.5589,-7.3522 -1.17396,-4.5503 -1.18891,-9.1062 -0.023,-7 1.08673,1.9631 3.43414,17.008 2.75904,17.6831 -0.28669,0.2867 -0.81642,-1.2122 -1.17717,-3.3309 z m 346.15051,0.6478 c -0.74051,-1.7263 1.68867,-10.9914 2.48857,-9.4917 0.29094,0.5454 -0.005,3.2417 -0.65807,5.9917 -0.73869,3.1114 -1.43009,4.4334 -1.8305,3.5 z m -361.62356,-8.941 c 0,-0.5175 0.45,-1.2191 1,-1.559 0.55,-0.3399 1,0.083 1,0.941 0,0.8574 -0.45,1.559 -1,1.559 -0.55,0 -1,-0.4234 -1,-0.941 z m 244,-8.1119 c -5.775,-1.0255 -13.425,-2.3776 -17,-3.0047 -3.575,-0.6271 -9.875,-1.7749 -14,-2.5507 -4.125,-0.7757 -11.325,-2.0522 -16,-2.8365 -4.675,-0.7843 -12.1,-2.1459 -16.5,-3.0257 -4.4,-0.8798 -11.825,-2.2933 -16.5,-3.1411 -4.675,-0.8479 -10.3,-1.938 -12.5,-2.4226 -7.05758,-1.5544 -20.3367,-4.0035 -24.73357,-4.5615 -5.3234,-0.6756 -26.81817,-4.4318 -45.26643,-7.9103 -7.7,-1.4518 -17.825,-3.2519 -22.5,-4.0001 -4.675,-0.7482 -10.975,-1.8826 -14,-2.5209 -22.65644,-4.7805 -36.11988,-6.5144 -38.92526,-5.013 -1.65376,0.8851 -2.03691,2.2795 -2.28117,8.3019 -0.17857,4.4028 -0.68529,7.0422 -1.29357,6.7381 -0.57151,-0.2858 -0.87118,-3.5848 -0.69936,-7.6994 0.44271,-10.6011 0.5174,-10.5545 -23.80064,-14.8543 -5.225,-0.9239 -10.85,-2.0755 -12.5,-2.5591 -4.60023,-1.3482 3.74311,-0.3244 17,2.0861 6.05,1.1 12.64348,2.0061 14.65217,2.0134 3.22226,0.012 3.78781,-0.3693 4.80434,-3.2367 1.10781,-3.1249 1.20829,-3.1746 2.61054,-1.2915 1.3978,1.8772 1.7278,1.6915 7.94566,-4.4711 3.56801,-3.5363 6.48729,-5.9352 6.48729,-5.331 0,0.6043 -0.68886,1.6704 -1.5308,2.3692 -0.84194,0.6987 -3.35045,3.4438 -5.57446,6.1001 -4.90603,5.8597 -4.66567,8.3547 0.882,9.1557 2.04779,0.2956 10.02326,1.7428 17.72326,3.2159 7.7,1.4731 17.825,3.2991 22.5,4.0576 13.44001,2.1807 41.22142,7.0633 56.5,9.93 14.50571,2.7216 33.31543,6.0665 42,7.4689 2.75,0.4441 14.225,2.476 25.5,4.5153 11.275,2.0394 26.35,4.7554 33.5,6.0356 24.27668,4.3466 44.9967,8.668 45.95,9.5832 1.24908,1.1992 0.17189,1.1005 -12.45,-1.1408 z m -57.5,-6.9471 c -0.33992,-0.55 -0.14148,-1 0.44098,-1 0.58246,0 1.05902,0.45 1.05902,1 0,0.55 -0.19844,1 -0.44098,1 -0.24254,0 -0.7191,-0.45 -1.05902,-1 z m -185.73341,-0.6835 c -0.81116,-1.5272 0.4474,-16.3165 1.38853,-16.3165 0.54699,0 0.72478,3.3816 0.42745,8.1299 -0.49561,7.9147 -0.92714,9.8601 -1.81598,8.1866 z m 366.3913,-5.3165 c 0,-1.375 0.22698,-1.9375 0.50439,-1.25 0.27741,0.6875 0.27741,1.8125 0,2.5 -0.27741,0.6875 -0.50439,0.125 -0.50439,-1.25 z m -357.70658,-4.6478 c -0.37272,-2.1187 -1.2693,-6.7721 -1.99242,-10.3409 -1.22925,-6.0668 -1.077,-10.091 0.1974,-5.2176 0.31734,1.2135 0.96037,2.2063 1.42896,2.2063 0.46859,0 0.5943,0.6715 0.27936,1.4922 -0.31495,0.8208 -0.0535,4.4734 0.58103,8.117 0.63451,3.6437 0.93533,6.8432 0.66849,7.11 -0.26684,0.2668 -0.79011,-1.2483 -1.16282,-3.367 z m 362.97207,-27.6022 c 0.6644,-4.1586 2.58826,-7.683 2.56561,-4.7 -0.028,3.6905 -1.34883,8.95 -2.24764,8.95 -0.61274,0 -0.73529,-1.6379 -0.31797,-4.25 z m -26.56328,-3 c -0.66565,-1.2375 -1.41108,-5.682 -1.65653,-9.8766 -0.7238,-12.3699 3.13096,-20.8734 9.46223,-20.8734 2.67343,0 5.3342,3.4869 5.3342,6.9904 0,3.7792 -4.61021,9.9816 -7.90979,10.6416 -2.68199,0.5364 -2.7567,0.714 -1.98217,4.7127 1.29978,6.7105 1.08769,10.6553 -0.57286,10.6553 -0.80565,0 -2.00943,-1.0125 -2.67508,-2.25 z m 5.1399,-18.309 c 0,-0.2426 -0.45,-0.441 -1,-0.441 -0.55,0 -1,0.4766 -1,1.059 0,0.5825 0.45,0.7809 1,0.441 0.55,-0.3399 1,-0.8165 1,-1.059 z m 2.81336,-6.1992 c 0.17235,-1.783 -0.0681,-3.2418 -0.53439,-3.2418 -1.23667,0 -4.34646,5.5992 -3.55138,6.3943 1.60365,1.6036 3.78902,-0.083 4.08577,-3.1525 z m 51.55388,17.0276 c -0.89095,-5.5829 -0.88696,-7.6178 0.0261,-13.328 l 0.67523,-4.2227 -4.67388,0.6407 c -2.57063,0.3523 -6.17917,0.6406 -8.01897,0.6406 l -3.3451,0 0.61269,5.8619 c 0.72422,6.9289 -0.8441,8.9867 -2.97048,3.8976 -1.68607,-4.0353 -3.1377,-14.7652 -1.99483,-14.7449 0.45208,0.01 2.69742,0.668 4.98964,1.4667 3.59849,1.2538 4.89594,1.2616 9.5,0.057 2.93278,-0.7674 6.04772,-1.6729 6.92211,-2.0122 0.87438,-0.3393 2.14922,0.057 2.83298,0.881 0.99579,1.1999 0.92817,3.0214 -0.33978,9.1525 -0.87065,4.21 -1.58299,9.3798 -1.58299,11.4885 0,5.6125 -1.74897,5.7595 -2.63276,0.2215 z m -450.36724,2.6782 c -1.07477,-0.7321 -0.36606,-0.8319 2.5,-0.352 4.96072,0.8306 5.75916,1.4093 1.91667,1.3891 -1.60417,-0.01 -3.59167,-0.4751 -4.41667,-1.0371 z m 47,-3.4476 c 0,-1.375 0.45,-2.5 1,-2.5 0.55,0 1,1.125 1,2.5 0,1.375 -0.45,2.5 -1,2.5 -0.55,0 -1,-1.125 -1,-2.5 z m 368.91979,-3.211 c -1.26709,-3.3327 -0.39904,-7.289 1.59926,-7.289 1.11047,0 1.48095,1.2508 1.48095,5 0,5.4685 -1.45912,6.5528 -3.08021,2.289 z m -367.58646,-4.289 c 0,-1.65 0.375,-3 0.83334,-3 0.45833,0 0.83333,1.35 0.83333,3 0,1.65 -0.375,3 -0.83333,3 -0.45834,0 -0.83334,-1.35 -0.83334,-3 z m -14.57972,-0.6216 c -0.28773,-0.4831 -1.75393,-4.0284 -3.25822,-7.8784 -3.77063,-9.6503 -4.53025,-10.3234 -8.47805,-7.5123 -2.68133,1.9092 -3.11387,2.7936 -2.88909,5.9067 0.29683,4.1111 -0.56952,6.1056 -2.65208,6.1056 -2.24879,0 -3.46819,-3.3429 -5.96948,-16.3651 -2.2109,-11.5103 -2.26302,-12.6324 -0.89091,-19.1802 2.82592,-13.4855 5.79558,-12.6988 13.88422,3.678 3.3,6.6814 6.74505,13.5473 7.65568,15.2576 0.91062,1.7103 1.96455,5.5446 2.34207,8.5207 0.37752,2.976 1.15791,6.166 1.73421,7.0888 0.70676,1.1317 0.72183,2.2604 0.0463,3.4674 -0.55083,0.9843 -1.23692,1.3943 -1.52466,0.9112 z m -12.68787,-21.4136 c 2.57481,-1.378 2.4396,-3.9411 -0.43105,-8.1712 -1.30092,-1.917 -2.79155,-4.7642 -3.3125,-6.327 -1.66169,-4.9851 -2.98935,-3.9241 -2.20891,1.7652 1.99834,14.5674 2.10371,14.7928 5.95246,12.733 z m 26.93426,15.0038 c 0,-1.8201 -0.52038,-2.9686 -1.34501,-2.9686 -1.8607,0 -4.36983,-2.9816 -5.154,-6.1245 -0.36015,-1.4435 -1.74521,-3.1214 -3.07791,-3.7286 -2.98193,-1.3587 -3.08283,-2.7234 -0.31102,-4.2069 2.06539,-1.1053 4.63009,-0.9363 8.1315,0.5359 1.28425,0.54 1.98102,0.1129 2.64497,-1.6214 0.74901,-1.9564 1.02694,-1.2854 1.64396,3.9694 0.72891,6.2076 0.7906,6.3112 3.35504,5.6321 6.91429,-1.8309 8.14057,0.4746 1.9279,3.6246 -4.68442,2.3752 -6.02972,3.7752 -5.36807,5.5866 0.2345,0.642 -0.22023,1.4154 -1.0105,1.7187 -1.05029,0.403 -1.43686,-0.2473 -1.43686,-2.4173 z m 359.72457,-0.5774 c -1.71451,-1.7145 -0.39061,-2.3849 4.52543,-2.2915 2.8875,0.055 6.375,0.4599 7.75,0.9003 2.00593,0.6424 1.51186,0.823 -2.5,0.914 -2.75,0.062 -5.91144,0.3582 -7.02543,0.6576 -1.11398,0.2993 -2.35148,0.2182 -2.75,-0.1804 z m 15.91642,-3.0991 c -0.46893,-1.3822 -0.18289,-3.2519 0.76496,-5 1.21825,-2.2467 1.49868,-2.4014 1.4357,-0.7921 -0.043,1.1 -0.38728,3.35 -0.76496,5 -0.64455,2.816 -0.73262,2.8646 -1.4357,0.7921 z m -348.60741,0.2079 c 0.006,-0.55 2.24123,-3.475 4.96642,-6.5 2.72519,-3.025 4.94556,-5.05 4.93415,-4.5 -0.0114,0.55 -2.24629,3.475 -4.96641,6.5 -2.72012,3.025 -4.94049,5.05 -4.93416,4.5 z m 12.46642,-14.5 c 0.99549,-1.1 2.03498,-2 2.30998,-2 0.275,0 -0.31449,0.9 -1.30998,2 -0.99549,1.1 -2.03498,2 -2.30998,2 -0.275,0 0.31449,-0.9 1.30998,-2 z m 21.35186,-24.5 c 6.21991,-7.7019 12.35149,-14.22492 11.28004,-12.00002 -0.52974,1.1 -4.19298,5.37502 -8.14055,9.50002 -4.75351,4.9672 -5.81375,5.8115 -3.13949,2.5 z m -58.67811,-4.3068 c 0.098,-4.4795 0.53251,-8.71792 0.96561,-9.41872 0.43311,-0.7008 0.62433,2.6929 0.42495,7.54152 -0.45986,11.1827 -1.62861,12.7605 -1.39056,1.8772 z m 0.93561,-15.19322 c 0.0448,-4.15357 0.12489,-4.29119 1.04036,-1.78768 0.66789,1.82645 0.65204,3.2962 -0.0485,4.5 -0.82803,1.42278 -1.03046,0.86928 -0.99182,-2.71232 z m -0.0787,-7.5 c 0,-1.65 0.43621,-3.675 0.96937,-4.5 0.74375,-1.15087 0.96937,-0.80174 0.96937,1.5 0,1.65 -0.43621,3.675 -0.96937,4.5 -0.74375,1.15087 -0.96937,0.80174 -0.96937,-1.5 z m 86.78128,-6.25 c 2.75539,-3.1625 6.69752,-7.325 8.76029,-9.25 2.06277,-1.925 0.21304,0.6625 -4.11051,5.75 -4.32355,5.0875 -8.26568,9.25 -8.76029,9.25 -0.49461,0 1.35512,-2.5875 4.11051,-5.75 z m 297.77845,2.12487 c -0.34299,-0.89381 0.12577,-4.38131 1.0417,-7.75 1.90269,-6.99787 3.94501,-10.12127 3.02411,-4.62487 -0.32253,1.925 -0.88508,5.8625 -1.25012,8.75 -0.6709,5.30686 -1.67447,6.59884 -2.81569,3.62487 z m -384.5201,-5.62487 c 0.0387,-0.6875 0.45702,-2.15 0.92971,-3.25 0.72021,-1.67602 0.87082,-1.47353 0.92971,1.25 0.0387,1.7875 -0.37971,3.25 -0.92971,3.25 -0.55,0 -0.96837,-0.5625 -0.92971,-1.25 z m 1.37994,-23.75962 c 1.23485,-38.204 1.75634,-46.99038 2.78901,-46.99038 1.5691,0 -1.28422,63.20312 -2.93401,64.99038 -0.24896,0.26971 -0.18371,-7.83029 0.145,-18 z m 98.76949,12.85047 c 0.5618,-1.68542 12.97787,-15.35891 15.28028,-16.82779 1.58048,-1.00831 1.47657,-0.67154 -0.49539,1.6055 -5.53827,6.39509 -15.13658,16.27736 -14.78489,15.22229 z m 28.78028,-32.58776 c 0,-1.24665 12.3131,-14.98608 15.44119,-17.22988 2.29003,-1.64264 -8.88977,12.17068 -12.89783,15.93605 -1.39885,1.31415 -2.54336,1.89638 -2.54336,1.29383 z m 266.07895,-2.66976 c -0.0434,-1.05416 0.19293,-1.64479 0.52522,-1.3125 0.33229,0.33229 0.36781,1.1948 0.0789,1.91667 -0.31922,0.79773 -0.55618,0.56078 -0.60416,-0.60417 z M 196.39862,899.53335 c -0.0651,-0.77917 -0.0758,-1.72208 -0.0238,-2.09535 0.0521,-0.37328 0.296,-8.69828 0.5421,-18.5 0.60306,-24.01859 1.71903,-53.3639 2.12283,-55.82132 0.18075,-1.1 0.36208,-4.38906 0.40295,-7.30902 0.0409,-2.91996 0.46569,-5.06713 0.94405,-4.77149 0.92429,0.57124 0.69469,15.84775 -0.47463,31.58051 -0.92272,12.41472 -1.28408,21.00507 -1.71433,40.75333 -0.19476,8.93934 -0.65261,16.55184 -1.01745,16.91667 -0.36483,0.36483 -0.71662,0.0258 -0.78175,-0.75333 z m 396.11842,-3.03517 c 0,-3.73854 2.81802,-14.39681 3.59979,-13.61505 0.69164,0.69165 -1.74565,15.08284 -2.74085,16.18355 -0.49584,0.5484 -0.85894,-0.53738 -0.85894,-2.5685 z m -240.8882,-2.6315 c 4.34069,-5.59909 8.06498,-9.67932 10.08658,-11.05057 2.22162,-1.50692 2.24683,-1.49407 0.72546,0.36969 -7.99063,9.78893 -10.37158,12.43088 -11.20282,12.43088 -0.53125,0 -0.3554,-0.7875 0.39078,-1.75 z m 246.35065,-25.62245 c -0.79111,-1.92277 2.09303,-16.23479 3.43928,-17.06682 0.64288,-0.39732 -1.38301,15.29377 -2.31615,17.93927 -0.194,0.55 -0.69941,0.1574 -1.12313,-0.87245 z m -221.57457,-3.37755 c 0.52704,-0.9625 3.10775,-3.775 5.73491,-6.25 5.11431,-4.81809 4.92383,-4.23648 -1.06435,3.25 -3.73141,4.66504 -6.58646,6.4989 -4.67056,3 z m -30.01544,-17.91319 c -0.92991,-1.12691 -1.30454,-3.94828 -1.16186,-8.75 0.17149,-5.77129 0.78266,-8.14298 3.29243,-12.77648 1.69502,-3.12932 4.39298,-7.09323 5.99547,-8.8087 2.50372,-2.68025 3.2102,-2.96032 5.02175,-1.9908 1.72761,0.92459 1.98754,1.70232 1.44005,4.3087 -1.08108,5.14653 -6.39005,15.57252 -8.50633,16.70512 -1.60334,0.85807 -1.95395,2.11604 -1.95395,7.01053 0,6.30268 -1.33136,7.69019 -4.12756,4.30163 z m 256.68035,-8.17047 c -0.75404,-2.37579 1.85548,-13.9328 2.80065,-12.40348 0.64864,1.04952 -1.10084,14.23714 -1.88871,14.23714 -0.18147,0 -0.59185,-0.82515 -0.91194,-1.83366 z m -203.55279,-0.08 c 0,-0.69424 2.52414,-3.81018 5.6092,-6.92431 l 5.60919,-5.66206 -3.24547,4.70371 c -3.8807,5.62436 -7.97292,9.67025 -7.97292,7.88266 z m -33.8,-19.28637 c -2.11396,-2.11396 -1.29462,-6.18619 2.32657,-11.56335 2.62361,-3.89584 4.14476,-5.23665 5.94098,-5.23665 3.54982,0 4.1317,1.92315 1.31941,4.36078 -2.93318,2.54241 -6.04114,7.37667 -5.59772,8.70693 0.17339,0.52017 1.98817,0.0491 4.03285,-1.04675 l 3.71759,-1.99252 -1.00915,2.65429 c -0.55504,1.45985 -1.77897,3.23914 -2.71984,3.95397 -2.16413,1.6442 -6.44258,1.73141 -8.01069,0.1633 z m 57.45804,-8.55808 c 1.92526,-3.51859 11.26437,-13.05358 9.54179,-9.74192 -0.57218,1.1 -3.35426,4.475 -6.18242,7.5 -4.09266,4.37753 -4.77827,4.83507 -3.35937,2.24192 z m -39.59857,0.79483 c -1.79462,-1.10913 -0.83166,-17.17111 1.49589,-24.95127 2.06894,-6.91573 6.49593,-11.66358 9.41745,-10.10003 2.39021,1.2792 2.87635,5.55438 0.52918,4.65369 -1.69424,-0.65015 -3.91326,2.35 -4.90846,6.6363 -0.60897,2.62284 -0.49181,2.73849 2.13103,2.10357 1.52649,-0.36952 3.78794,-1.04483 5.02544,-1.50069 3.84961,-1.41806 2.57789,0.94414 -3.75,6.96555 -5.63666,5.36366 -6,5.98803 -6,10.31033 0,4.87189 -1.63253,7.30898 -3.94053,5.88255 z m 225.95584,-8.72773 c -0.008,-1.20504 0.43469,-2.4691 0.98469,-2.80902 1.27319,-0.78687 1.27319,1.52988 0,3.5 -0.78809,1.21948 -0.97224,1.09025 -0.98469,-0.69098 z m -409.01531,-9.08334 c 0,-2.2592 0.49848,-4.41573 1.10774,-4.79227 0.76908,-0.47531 0.96063,0.58894 0.62656,3.4811 -0.64635,5.59554 -1.7343,6.41806 -1.7343,1.31117 z m 0.46848,-18.97568 c 0.31176,-6.4625 0.83947,-15.125 1.17269,-19.25 0.33322,-4.125 0.53604,-10.27715 0.45071,-13.67144 -0.0853,-3.39429 0.2587,-6.4272 0.76451,-6.7398 0.54972,-0.33975 0.79033,5.76288 0.59817,15.17143 -0.1768,8.6569 -0.38868,19.73764 -0.47084,24.62388 -0.15661,9.31401 -0.58067,11.61593 -2.13989,11.61593 -0.5683,0 -0.71725,-4.66284 -0.37535,-11.75 z m 247.33732,7 c 1.63562,-2.0625 4.00954,-4.65 5.27539,-5.75 1.26585,-1.1 0.30885,0.5875 -2.12665,3.75 -2.43551,3.1625 -4.80944,5.75 -5.2754,5.75 -0.46596,0 0.49104,-1.6875 2.12666,-3.75 z m 164.55376,-7 c 0.27189,-0.9625 0.79137,-3.66014 1.1544,-5.99476 0.36304,-2.33462 1.13161,-4.53619 1.70795,-4.89239 0.7102,-0.43893 0.82493,0.92893 0.35603,4.24476 -0.92677,6.55351 -1.52116,8.39239 -2.71272,8.39239 -0.55,0 -0.77754,-0.7875 -0.50566,-1.75 z M 470.04774,756.49641 c 2.76024,-4.707 15.14782,-18.53454 15.91612,-17.76624 0.53103,0.53103 -14.26511,18.28607 -15.63884,18.76624 -0.67221,0.23497 -0.77792,-0.14626 -0.27728,-1 z m -266.3479,-31.37973 c -0.0371,-4.4 0.30478,-9.8 0.75983,-12 0.72484,-3.50431 0.83244,-3.07058 0.86825,3.5 0.0225,4.125 -0.31945,9.525 -0.75984,12 -0.72008,4.04687 -0.80751,3.69443 -0.86824,-3.5 z m 297.8172,-5.32 c 0,-1.73303 14.45728,-17.814 17.46558,-19.42712 1.45149,-0.77833 1.21304,-0.1646 -0.91169,2.34656 -1.5825,1.87031 -5.60698,6.66306 -8.9433,10.65056 -5.66656,6.77257 -7.61059,8.41503 -7.61059,6.43 z m -296.80505,-13.68 c -0.0204,-1.65 0.18706,-2.44606 0.46099,-1.76903 0.27392,0.67703 0.29059,2.02703 0.0371,3 -0.25354,0.97297 -0.47766,0.41903 -0.49804,-1.23097 z M 530.51704,685.7708 c 0,-1.29573 20.12227,-23.36518 20.74024,-22.74722 0.59321,0.59321 -3.88658,6.37909 -13.04099,16.8431 -5.49294,6.27874 -7.69925,7.97064 -7.69925,5.90412 z m -324.84211,-4.15412 c 0,-1.375 0.22698,-1.9375 0.50439,-1.25 0.27741,0.6875 0.27741,1.8125 0,2.5 -0.27741,0.6875 -0.50439,0.125 -0.50439,-1.25 z m 0.0387,-10.00345 c -0.12007,-1.57579 0.23658,-3.14621 0.79256,-3.48983 0.59537,-0.36795 1.01088,0.60837 1.01088,2.37525 0,3.90465 -1.5193,4.84363 -1.80344,1.11458 z m 0.8583,-7.49655 c -0.24423,-2.7301 0.0168,-19.64699 0.41654,-27 0.17942,-3.3 0.60803,-12.975 0.95248,-21.5 0.34444,-8.525 0.83215,-17.525 1.08381,-20 0.25165,-2.475 0.70554,-12.375 1.00863,-22 0.59859,-19.00882 1.3359,-30.18558 2.03757,-30.88725 0.24534,-0.24535 0.44608,1.56134 0.44608,4.01486 0,6.34346 -1.98789,60.09052 -2.51033,67.87239 -0.24,3.575 -0.71269,14.375 -1.0504,24 -0.55509,15.82031 -1.93251,30.55124 -2.38438,25.5 z m 355.94511,-14.40325 c 0,-1.29147 8.69812,-10.69898 9.3272,-10.0879 0.60487,0.58757 -7.45031,10.86092 -8.5772,10.93911 -0.4125,0.0286 -0.75,-0.35442 -0.75,-0.85121 z m 76.01386,-8.58005 c -1.51916,-1.83047 -0.18358,-10.01287 2.94079,-18.0167 l 1.9518,-5 -0.006,4.5 c -0.006,4.68042 -2.23285,18.66556 -3.112,19.54471 -0.27699,0.27699 -1.07563,-0.18561 -1.77476,-1.02801 z M 588.51704,619.5497 c 0,-1.42346 9.87283,-12.60444 12.87312,-14.57882 3.18046,-2.09293 2.26394,-0.63151 -5.26537,8.3958 -5.83877,7.00043 -7.60775,8.43813 -7.60775,6.18302 z m 58,-27.3109 c 0,-3.72021 2.33198,-10.09122 4.09178,-11.17884 0.77364,-0.47814 0.94537,0.19933 0.55303,2.18161 -0.31298,1.58131 -0.8622,5.01261 -1.22048,7.62511 -0.78002,5.68775 -3.42433,6.74732 -3.42433,1.37212 z m -31.95519,-1.66917 c -0.0478,-1.64961 7.58147,-9.66001 8.41064,-8.83083 0.2707,0.27069 -1.50088,2.71645 -3.93683,5.43502 -2.62029,2.92431 -4.4473,4.31108 -4.47381,3.39581 z m 17.64902,-20.59246 c -0.62418,-0.62417 8.7125,-11.53247 10.43699,-12.19382 1.99335,-0.76446 0.5901,1.99259 -3.68576,7.24166 -4.47581,5.49453 -5.47554,6.22785 -6.75123,4.95216 z m 432.45523,-11.85762 c -3.539,-7.40884 -6.61,-20.53032 -5.676,-24.2517 1.4083,-5.61099 9.8121,-12.36781 13.6895,-11.00658 0.7692,0.27005 -0.1693,1.10972 -2.2093,1.97649 -4.8591,2.06462 -8.9547,7.14791 -8.9477,11.10565 0.01,3.91835 1.7457,10.40151 2.9971,11.17496 0.5108,0.31567 2.7877,-0.37446 5.0599,-1.53363 2.2722,-1.15917 4.3342,-1.90463 4.5822,-1.65658 0.2481,0.24805 -1.569,2.19195 -4.0379,4.31976 l -4.4889,3.86876 1.938,5.45302 c 2.8083,7.90197 0.7876,8.2842 -2.9069,0.54985 z m -853.11865,-26.5862 c 0.022,-5.37309 0.30269,-6.94978 1.0186,-5.72222 0.93911,1.61028 0.50479,11.58508 -0.55037,12.64024 -0.27425,0.27426 -0.48496,-2.83886 -0.46823,-6.91802 z m 433.96959,-47.80121 c 0,-0.89777 3.00488,-2.44391 3.59765,-1.85114 0.17127,0.17126 -0.56814,0.86067 -1.64313,1.53201 -1.07499,0.67134 -1.95452,0.81495 -1.95452,0.31913 z m 463.09776,-35.26468 c -0.6038,-1.73208 -1.0978,-3.98208 -1.0978,-5 0,-2.40095 -1.24,-2.34809 -3.5,0.14922 -0.9955,1.1 -2.1902,2 -2.655,2 -1.6637,0 -0.8027,-3.89807 1.4739,-6.67327 1.2754,-1.5547 4.6816,-6.27806 7.5693,-10.49634 2.8878,-4.21829 5.8614,-7.90404 6.608,-8.19056 2.9127,-1.1177 3.3063,1.79328 1.3102,9.69043 -1.0886,4.30665 -1.7871,8.02234 -1.5524,8.25709 0.2348,0.23475 2.4111,0.6758 4.8364,0.98012 5.8711,0.73667 7.1571,1.22299 6.414,2.42547 -0.3424,0.55388 -2.9584,1.01395 -5.8134,1.02237 -6.3223,0.0186 -7.0715,0.47343 -8.6236,5.23469 -1.4918,4.57617 -3.4992,4.81884 -4.9696,0.60078 z m 2.5571,-10.39391 c 0.9,-2.34537 -0.072,-2.62076 -1.4512,-0.41139 -0.7726,1.23707 -0.8389,1.95452 -0.1808,1.95452 0.5719,0 1.3063,-0.69441 1.632,-1.54313 z m -868.91125,9.67071 c -0.76841,-2.9384 0.74203,-9.65079 4.21084,-18.71299 4.67212,-12.20581 11.03639,-17.61629 16.5061,-14.03239 3.55484,2.32921 4.22425,7.34283 1.57902,11.82615 -2.29733,3.8937 -10.20142,10.54318 -13.52355,11.37699 -1.48125,0.37177 -2.49272,1.99802 -3.54792,5.7044 -1.54802,5.43738 -4.28116,7.44511 -5.22449,3.83784 z m 14.79369,-19.71936 c 4.40246,-4.52979 6.01906,-9.40822 3.11769,-9.40822 -1.49176,0 -5.50075,3.98117 -4.05998,4.0318 0.49775,0.0175 0.18664,0.58 -0.69133,1.25 -1.45595,1.11108 -4.90368,6.85429 -4.90368,8.16854 0,1.62568 2.57812,0.0316 6.5373,-4.04212 z m -35.15076,18.05896 c -4.11139,-6.27478 2.96698,-26.51366 7.63894,-21.8417 0.77404,0.77404 0.51251,2.04408 -0.92201,4.47752 -1.10139,1.86835 -2.28492,5.422 -2.63006,7.897 l -0.62753,4.5 2.82706,-3.18294 c 1.55488,-1.75061 5.0143,-6.13811 7.6876,-9.75 4.59625,-6.21 7.63946,-8.27207 7.63946,-5.1765 0,1.70666 -11.23675,19.07072 -14.79295,22.85944 -3.20128,3.41059 -4.6969,3.45821 -6.82051,0.21718 z m 461.6342,-3.90434 c -0.86445,-2.61929 -0.84228,-5.4033 0.0916,-11.5037 0.67762,-4.42647 0.95051,-8.32964 0.60643,-8.67373 -0.34409,-0.34408 -1.7721,-0.33785 -3.17336,0.0138 -2.09914,0.52685 -2.84053,1.69252 -4.21052,6.6201 -1.20773,4.34396 -2.13331,5.98065 -3.38219,5.98065 -2.30202,0 -2.91053,-2.84348 -1.83758,-8.58673 0.48756,-2.60977 0.74975,-4.88176 0.58264,-5.04886 -0.16711,-0.16711 -2.87611,1.32865 -6.02,3.32391 -5.41698,3.43786 -5.82495,3.98586 -7.79436,10.46971 -3.20824,10.56245 -7.23509,8.58275 -4.38959,-2.15803 0.80139,-3.025 1.47388,-5.725 1.49441,-6 0.0205,-0.275 0.66905,-2.3 1.44114,-4.5 0.77209,-2.2 1.92216,-6.025 2.55571,-8.5 1.58587,-6.19525 2.89513,-7.63501 7.67769,-8.44302 3.89591,-0.65821 4.28162,-0.49648 6.85148,2.87277 1.92889,2.52891 3.50522,3.57025 5.40447,3.57025 1.47472,0 3.21748,0.53617 3.87279,1.19148 0.65531,0.65531 2.65781,1.21781 4.45,1.25 3.03545,0.0545 3.27987,0.31704 3.57046,3.83499 0.17543,2.12378 -0.60212,6.21953 -1.77671,9.35892 -1.14877,3.07035 -2.36721,8.2474 -2.70765,11.50456 -0.73812,7.062 -1.75757,8.11723 -3.30684,3.42289 z m -14.02074,-30.18087 c 0,-0.825 -0.45,-1.22189 -1,-0.88197 -0.55,0.33992 -1,1.29303 -1,2.11803 0,0.825 0.45,1.22189 1,0.88197 0.55,-0.33992 1,-1.29303 1,-2.11803 z m -468,30.61803 c -2.40609,-2.40609 -2.44081,-3.00737 -0.44932,-7.78212 1.71578,-4.11371 7.14404,-10.21788 9.08647,-10.21788 2.6384,0 2.46366,2.30393 -0.40474,5.33641 -3.59597,3.80166 -5.23241,6.80936 -5.23241,9.6169 0,1.77317 0.41105,1.98274 2.75,1.40203 1.5125,-0.37552 4.19805,-1.28409 5.96788,-2.01905 4.17143,-1.73227 4.81631,-1.68487 3.22146,0.2368 -1.7691,2.13163 -8.38739,5.42691 -10.8995,5.42691 -1.12191,0 -2.93984,-0.9 -4.03984,-2 z M 1089.8711,432.802 c -1.5691,-1.01956 -3.3541,-4.7772 -3.3541,-7.06056 0,-3.25178 -1.6557,-3.3701 -6.2128,-0.44399 -6.0103,3.85922 -12.0613,3.86452 -15.3738,0.0135 -2.9574,-3.43821 -3.1902,-8.99607 -0.5449,-13.00814 4.3676,-6.62425 16.3621,-11.45353 22.5497,-9.07911 2.9242,1.12213 1.6048,1.8923 -3.4158,1.99381 -11.4328,0.23117 -23.3082,13.19257 -17.1737,18.74421 3.9548,3.57901 10.7792,1.53668 16.9279,-5.06595 2.3486,-2.52206 4.5644,-4.29137 4.924,-3.93182 0.7401,0.74017 1.1146,3.43719 1.2361,8.90276 0.051,2.28374 0.5721,3.75346 1.3333,3.75884 0.6875,0.005 5.0869,-4.04513 9.7765,-9 4.6895,-4.95486 8.852,-9.00884 9.25,-9.00884 1.78,0 0.2924,4.6703 -2.7765,8.71666 -1.5982,2.10728 -13.5287,13.71536 -14.8706,14.46866 -0.6713,0.37693 -1.6953,0.37693 -2.2753,0 z M 663.51704,402.61668 c 0,-0.55 0.19844,-1 0.44098,-1 0.24254,0 0.7191,0.45 1.05902,1 0.33992,0.55 0.14148,1 -0.44098,1 -0.58246,0 -1.05902,-0.45 -1.05902,-1 z"
     id="path3097"
     style="fill:#000000" />
</svg>
