<?xml version="1.0" encoding="UTF-8" standalone="no"?>
<!-- Created with Inkscape (http://www.inkscape.org/) -->

<svg
   xmlns:dc="http://purl.org/dc/elements/1.1/"
   xmlns:cc="http://creativecommons.org/ns#"
   xmlns:rdf="http://www.w3.org/1999/02/22-rdf-syntax-ns#"
   xmlns:svg="http://www.w3.org/2000/svg"
   xmlns="http://www.w3.org/2000/svg"
   version="1.1"
   width="1325.8688"
   height="1400.5437"
   id="svg3017">
  <metadata
     id="metadata3023">
    <rdf:RDF>
      <cc:Work
         rdf:about="">
        <dc:format>image/svg+xml</dc:format>
        <dc:type
           rdf:resource="http://purl.org/dc/dcmitype/StillImage" />
        <dc:title></dc:title>
      </cc:Work>
    </rdf:RDF>
  </metadata>
  <defs
     id="defs3021" />
  <path
     d="m 939.4847,1400.1543 c -4.245,-0.4629 -6,-1.0745 -6,-2.0907 0,-2.3844 6.0003,-3.2041 16.4966,-2.2536 14.3084,1.2957 48.2502,-1.8641 58.3361,-5.4308 2.292,-0.8105 9.2211,-2.5678 15.3981,-3.905 12.2372,-2.6492 13.7532,-3.223 26.0933,-9.8769 4.5782,-2.4687 10.4282,-5.2778 13,-6.2426 2.5717,-0.9648 6.9259,-3.4265 9.6759,-5.4704 2.75,-2.044 7.8899,-4.685 11.4221,-5.8689 9.2631,-3.1048 20.7067,-9.673 23.2638,-13.3524 1.209,-1.7397 7.3992,-8.5902 13.7561,-15.2234 6.3569,-6.6333 12.233,-12.9608 13.058,-14.0613 0.825,-1.1004 3.1932,-3.2684 5.2626,-4.8178 3.9581,-2.9635 13.0011,-17.5204 17.121,-27.5605 9.9582,-24.2677 12.2357,-38.1657 11.9652,-73.015 -0.1363,-17.5621 -1.4327,-28.9978 -5.3829,-47.485 -1.0576,-4.95 -2.8486,-14.85 -3.9799,-22 -2.7639,-17.4678 -4.8039,-23.7955 -10.4694,-32.4746 -2.6313,-4.0308 -5.8814,-10.073 -7.2226,-13.4271 -2.2223,-5.5577 -2.3967,-7.1177 -1.9679,-17.5983 0.3727,-9.1073 1.0279,-13.0605 3.1491,-19 5.3784,-15.0598 9.4129,-22.0602 17.1456,-29.75 4.0098,-3.9875 7.7591,-7.25 8.332,-7.25 1.8768,0 9.1832,-7.3101 13.1609,-13.1674 2.1436,-3.1566 5.4027,-6.8874 7.2423,-8.2906 5.8462,-4.45903 18.7372,-21.73297 21.2937,-28.53341 2.7793,-7.39334 2.8335,-8.97564 0.7828,-22.88024 -2.5645,-17.3888 -6.9846,-23.43919 -26.9847,-36.93749 -11.6791,-7.88238 -16.9859,-12.51122 -16.0604,-14.00871 0.4688,-0.75853 3.845,-1.19349 9.4216,-1.21382 10.8098,-0.0394 27.0504,-2.31012 33.7675,-4.72127 2.7921,-1.00223 7.6789,-3.60532 10.8596,-5.78465 3.1807,-2.17932 7.4828,-5.0874 9.5602,-6.4624 9.1674,-6.06767 15.2068,-14.47225 20.0533,-27.90655 2.4345,-6.74847 2.4684,-11.70883 0.122,-17.88385 -1.5772,-4.15105 -19.2631,-28.98415 -27.8222,-39.06583 -9.0635,-10.67579 -11.0865,-38.94588 -4.3109,-60.24163 6.7187,-21.1168 18.2955,-39.39476 30.9615,-48.88353 2.475,-1.85415 5.4,-4.18477 6.5,-5.17916 1.1,-0.99438 6.8999,-5.05781 12.8887,-9.02984 9.3835,-6.22355 11.5261,-8.17638 15.5,-14.12688 4.5335,-6.78854 11.3535,-18.33428 16.6474,-28.18273 1.4782,-2.75 3.8014,-6.48372 5.1626,-8.29714 9.5596,-12.73509 16.2514,-40.07395 14.2466,-58.20286 -1.5146,-13.6964 -4.5505,-29.69227 -7.8765,-41.5 -3.7682,-13.3779 -10.9451,-31.51532 -12.7436,-32.20545 -0.7225,-0.27726 -1.0743,-0.89157 -0.7816,-1.36513 1.0069,-1.62914 -2.7293,-12.07146 -5.4557,-15.24822 -1.5016,-1.74966 -3.4137,-4.19109 -4.2492,-5.42541 -1.4717,-2.17454 -25.6303,-27.84603 -38.8387,-41.271 -3.575,-3.63361 -9.3117,-8.65058 -12.7482,-11.1488 -16.4868,-11.98526 -39.3403,-35.97741 -49.7518,-52.23063 -5.2806,-8.24351 -8.605,-12.58598 -16.54,-21.60536 -3.629,-4.125 -9.2671,-11.50072 -12.5291,-16.39049 -9.0153,-13.51398 -13.4673,-19.81128 -18.7237,-26.48438 -5.9501,-7.55371 -10.9344,-16.28248 -13.2104,-23.13464 -0.956,-2.87825 -3.4608,-8.96182 -5.5662,-13.51905 -8.1476,-17.63546 -11.0722,-30.20658 -14.4174,-61.97144 -0.3475,-3.3 -1.2543,-9.6 -2.0152,-14 -2.4517,-14.17836 -2.6926,-21.50715 -1.1337,-34.5 3.1686,-26.41058 3.9282,-38.82001 3.3123,-54.10869 -0.341,-8.465223 -0.8425,-16.966314 -1.1144,-18.891314 -0.2719,-1.925 -0.9903,-8.45 -1.5965,-14.5 -0.6061,-6.05 -2.2089,-16.625 -3.5616,-23.5 -1.3527,-6.875 -2.8868,-17.9 -3.4091,-24.5 -1.2322,-15.57075066 -1.2341,-15.5000002618777 0.4112,-15.5000002618777 1.43,0 1.8584,2.1973864618777 3.1193,16.0000002618777 0.3266,3.575 1.7043,12.704428 3.0615,20.287618 3.1196,17.430786 7.4171,56.384922 7.3998,67.074726 -0.013,7.79821 -1.5378,27.82879 -4.0268,52.88538 -1.0514,10.58535 -0.9587,13.10844 0.9377,25.5 1.1576,7.56375 3.0464,21.38327 4.1975,30.71004 2.5822,20.92221 4.6607,29.22221 10.528,42.0407 2.5178,5.50085 5.7083,13.15154 7.0899,17.00154 2.9938,8.34244 8.7191,18.42963 14.2651,25.13323 2.2145,2.67672 8.0555,10.84039 12.9801,18.14148 4.9245,7.30109 11.7859,16.66457 15.2477,20.80774 8.9701,10.73588 12.1921,14.92174 18.0252,23.41755 13.2029,19.22979 34.1466,41.31265 50.2658,53 8.5971,6.23338 11.4884,8.95472 23.4358,22.05789 5.7381,6.29316 13.4408,14.36711 17.1172,17.94211 7.417,7.21233 18.0529,20.2316 21.6129,26.45587 1.3993,2.44655 2.3178,5.70549 2.3251,8.2497 0.01,2.59274 1.7721,8.72872 4.6016,16 4.3934,11.29015 9.6505,28.44392 10.6635,34.79443 0.2631,1.65 1.4837,8.4 2.7123,15 3.0887,16.59297 2.4557,31.61552 -1.9537,46.36458 -3.5393,11.83859 -6.1962,17.20047 -16.1715,32.63542 -3.91,6.05 -8.5111,13.53852 -10.2246,16.64116 -4.1692,7.54882 -11.9513,18.98083 -14.2556,20.94159 -1.023,0.87051 -6.585,4.6053 -12.36,8.29954 -22.775,14.56904 -33.3767,26.21248 -40.7714,44.77779 -7.6588,19.22846 -9.7852,31.39276 -8.2746,47.33575 1.3348,14.08772 3.5395,19.10696 13.8468,31.52419 21.0456,25.35377 24.6458,31.41775 24.6262,41.47998 -0.012,6.34181 -0.4747,7.94027 -4.9174,17 -3.6928,7.53034 -6.3526,11.42006 -10.7702,15.75 -3.2266,3.1625 -6.4319,5.75 -7.1229,5.75 -0.6911,0 -3.025,1.48874 -5.1865,3.3083 -11.5054,9.68536 -23.4223,13.7019 -45.93,15.4805 -4.95,0.39116 -9,1.1612 -9,1.7112 0,0.55 5.175,4.44768 11.5,8.6615 12.7337,8.4834 21.5809,17.23857 25.4865,25.2214 1.8174,3.71467 2.7815,7.93474 3.4747,15.20944 0.5276,5.53756 1.397,11.21963 1.932,12.62683 0.8292,2.18094 0.7194,2.49229 -0.744,2.10959 -1.3642,-0.35674 -2.1774,0.98094 -3.9589,6.5126 -1.5821,4.9121 -4.024,9.27215 -8.2947,14.8101 -9.5182,12.34249 -28.1474,32.06453 -41.3294,43.75393 -5.3472,4.7417 -7.428,7.5003 -10.5601,14 -6.1329,12.7273 -9.0081,24.0601 -8.9953,35.4565 0.015,13.455 1.5666,18.0772 10.6196,31.6381 3.4475,5.1643 5.8447,13.0561 8.8091,29 1.8173,9.7749 3.5331,18.0912 5.9829,29 4.4683,19.8967 6.0294,41.8168 4.5935,64.5 -1.1472,18.1227 -3.0447,28.0648 -7.6342,40 -5.1643,13.4299 -6.718,16.7425 -12.195,26 -5.4624,9.233 -10.8282,15.4363 -29.7627,34.4081 -4.4418,4.4505 -9.6093,10.2694 -11.4833,12.9307 -3.9698,5.6376 -10.6263,9.8523 -22.9407,14.5255 -4.675,1.7741 -12.1,5.3604 -16.5,7.9696 -4.4,2.6092 -9.575,5.3738 -11.5,6.1436 -1.925,0.7697 -8.7322,3.9572 -15.1272,7.0833 -7.1252,3.4831 -14.6754,6.3453 -19.5,7.3923 -4.33,0.9397 -11.9228,2.7713 -16.8728,4.0701 -4.95,1.2989 -13.7396,3.046 -19.5323,3.8824 -11.8378,1.7092 -42.3293,2.7452 -51.4677,1.7487 z m 106.0278,-102.342 c -0.3224,-1.8217 -1.0236,-15.2373 -1.5583,-29.8123 -1.1517,-31.3954 -1.0534,-25.8558 -1.0729,-60.5 -0.01,-15.4 -0.1923,-32.95 -0.4081,-39 -0.2158,-6.05 -0.646,-33.725 -0.9558,-61.5 -0.3099,-27.775 -0.7773,-59.725 -1.0388,-71 -1.2826,-55.31843 -1.5598,-68.74434 -2.0026,-96.99999 -0.9445,-60.27618 -1.4901,-92.93016 -1.9798,-118.5 -0.2738,-14.3 -0.7309,-40.85 -1.0157,-59 -0.2848,-18.15 -0.7312,-39.3 -0.9921,-47 -0.2608,-7.7 -0.7102,-31.775 -0.9985,-53.5 -0.2884,-21.725 -0.7409,-49.85 -1.0056,-62.5 -0.788,-37.64986 -1.4501,-71.90669 -2.0969,-108.5 -0.3354,-18.975 -0.7619,-34.66115 -0.9477,-34.8581 -0.1858,-0.19696 -7.9017,0.15888 -17.1464,0.79075 -9.2447,0.63186 -24.2336,1.5687 -33.3086,2.08185 -9.075,0.51315 -19.425,1.16422 -23,1.44681 -3.575,0.28259 -14.6,0.96919 -24.5,1.52578 -9.9,0.55658 -19.87841,1.25964 -22.17424,1.56235 -4.31575,0.56904 -8.71423,0.82251 -33.32576,1.92041 -7.975,0.35576 -15.625,0.8401 -17,1.0763 -2.14344,0.36822 -15.4885,1.3587 -39.5,2.93172 -3.3,0.21619 -11.4,0.66972 -18,1.00785 -6.6,0.33813 -13.125,0.79617 -14.5,1.01787 -1.375,0.22171 -7.675,0.66566 -14,0.98657 -12.31757,0.62495 -61.91023,3.59836 -99.5,5.96569 -12.65,0.79667 -28.175,1.72262 -34.5,2.05765 -6.325,0.33504 -14.425,0.78966 -18,1.01026 -3.575,0.2206 -14.6,0.8639 -24.5,1.42956 -9.9,0.56567 -20.925,1.24677 -24.5,1.51358 -3.575,0.2668 -12.125,0.74383 -19,1.06006 -6.875,0.31623 -13.93694,0.77051 -15.69319,1.00953 -1.75625,0.23901 -14.80625,1.10899 -29,1.93329 -14.19375,0.8243 -36.38181,2.17149 -49.30681,2.99375 -12.925,0.82226 -34.525,2.16916 -48,2.99312 -13.475,0.82396 -27.875,1.72962 -32,2.01258 -4.125,0.28295 -18.75,1.19284 -32.5,2.02197 -13.75,0.82913 -27.925,1.74354 -31.5,2.03201 -6.76962,0.54626 -40.29586,2.46835 -86.5,4.95912 -14.85,0.80053 -30.15,1.70296 -34,2.0054 -7.29639,0.57317 -37.49491,2.51677 -72.37408,4.65803 l -20.37408,1.25079 -3.36977,3.55172 c -1.85338,1.95345 -3.86513,5.03753 -4.47057,6.85352 -0.60543,1.81598 -1.6207,3.13073 -2.25614,2.92167 -2.18167,-0.71777 -1.81281,-4.88715 0.77881,-8.80335 l 2.59421,-3.92011 -4.99378,0 c -2.74657,0 -11.64046,0.43599 -19.76418,0.96888 -8.12373,0.53288 -23.09542,1.44145 -33.27042,2.01905 -10.175,0.57761 -22.6625,1.32012 -27.7500002,1.65005 -5.0875,0.32992 -9.24310902,0.20884 -9.234687021159,-0.26906 C 0.04720278,514.69121 2.6061668,514.20406 22.4847,513.08854 c 11.55,-0.64815 29.55,-1.81121 40,-2.58458 10.45,-0.77337 26.42273,-1.91452 35.49495,-2.53589 9.07223,-0.62136 17.06271,-1.60095 17.75664,-2.17686 0.75632,-0.62769 3.23109,-0.78585 6.17848,-0.39486 4.54347,0.60271 37.33759,-0.91652 72.06993,-3.33873 7.975,-0.55617 21.025,-1.27974 29,-1.60793 14.46263,-0.59517 16.60611,-0.74511 27,-1.88869 3.025,-0.33282 13.825,-1.03464 24,-1.5596 21.29062,-1.09844 47.00273,-2.7363 55,-3.5035 3.025,-0.2902 13.15,-0.96698 22.5,-1.50397 9.35,-0.53699 23.525,-1.42707 31.5,-1.97795 16.69936,-1.15354 41.58568,-2.68388 57.5,-3.53587 6.05,-0.32389 12.125,-0.77203 13.5,-0.99587 1.375,-0.22384 8.35,-0.68084 15.5,-1.01558 7.15,-0.33473 14.8,-0.81615 17,-1.06983 2.2,-0.25367 11.89559,-0.64838 21.54577,-0.87712 9.65017,-0.22875 18.75713,-0.87646 20.23769,-1.43937 1.48056,-0.56291 4.60997,-0.86605 6.95424,-0.67365 2.34426,0.19241 6.9623,-0.002 10.2623,-0.4321 3.3,-0.43006 14.25318,-1.04931 24.34039,-1.3761 10.08721,-0.3268 18.63721,-0.77535 19,-0.9968 0.36279,-0.22144 5.38461,-0.68393 11.15961,-1.02775 18.64393,-1.10999 57.29959,-3.54435 64.5,-4.06193 3.85,-0.27674 14.65,-0.96127 24,-1.52117 9.35,-0.5599 20.375,-1.24502 24.5,-1.52249 4.125,-0.27747 20.325,-1.37073 36,-2.42946 15.675,-1.05874 33.225,-2.1902 39,-2.51437 5.775,-0.32416 13.425,-0.8017 17,-1.0612 3.575,-0.25949 17.075,-1.14601 30,-1.97004 12.925,-0.82403 26.2,-1.70878 29.5,-1.96611 3.3,-0.25733 10.6125,-0.76463 16.25,-1.12734 5.6375,-0.3627 10.25,-1.05149 10.25,-1.53064 0,-0.47915 1.26399,-0.87118 2.80887,-0.87118 1.54488,0 3.68238,-0.66069 4.75,-1.4682 2.49796,-1.88936 5.915,-1.89979 12.0322,-0.0367 4.36031,1.32798 8.0941,1.32497 33.40893,-0.0269 15.675,-0.8371 30.975,-1.71503 34,-1.95097 6.3614,-0.49617 19.0152,-1.26484 34,-2.06536 11.0113,-0.58826 15.7229,-1.16248 17.2421,-2.10141 0.5268,-0.3256 0.6777,-8.41755 0.3582,-19.20652 -0.3038,-10.25413 -0.8387,-40.69387 -1.1888,-67.64387 -0.35,-26.95 -0.7537,-51.7 -0.897,-55 -0.1433,-3.3 -0.3345,-12.75 -0.425,-21 l -0.1645,-15 -5.6814,-3.29483 c -3.1248,-1.81216 -7.4955,-3.70899 -9.7126,-4.21519 -4.5357,-1.03557 -14.9932,-6.22618 -18.031,-8.94975 -3.9856,-3.57331 -10.7607,-7.18581 -17.2161,-9.17968 -3.6256,-1.11984 -8.2393,-3.12618 -10.2526,-4.45853 -5.4367,-3.59787 -16.0313,-18.6736 -16.0313,-22.81205 0,-0.83015 1.9125,-3.215 4.25,-5.29966 2.3375,-2.08467 6.5,-6.26312 9.25,-9.28544 9.7719,-10.73959 23.9678,-24.19418 27.954,-26.49431 4.1128,-2.37316 14.902,-4.51056 22.7683,-4.51056 6.8571,0 6.9631,-0.86194 4.1973,-34.12706 -1.293,-15.55121 -2.1169,-28.50895 -1.8309,-28.79497 1.2959,-1.29593 2.1683,3.17265 3.8425,19.68375 0.9894,9.75605 2.3657,21.78828 3.0587,26.73828 1.2014,8.58201 1.2657,7.64153 1.385,-20.25 0.069,-16.0875 0.4955,-29.25 0.9481,-29.25 0.4527,0 1.296,14.2875 1.8739,31.75 l 1.0509,31.75 3.1992,8.87701 c 1.7595,4.88236 4.2603,11.18236 5.5573,14 1.297,2.81764 4.1518,10.57029 6.3441,17.22811 7.9532,24.15316 20.3002,44.25212 34.5626,56.26236 4.6273,3.89665 9.9154,8.48805 11.7512,10.20311 1.8358,1.71506 5.6971,4.88761 8.5807,7.05012 8.5387,6.40357 27.585,29.68643 32.9923,40.33107 1.4104,2.77652 4.5232,10.36758 6.9173,16.86901 2.3941,6.50144 4.8376,12.72637 5.4299,13.83319 0.8432,1.57546 0.7004,2.42857 -0.6577,3.92921 -0.9541,1.05424 -2.1011,1.91681 -2.549,1.91681 -0.4478,0 -2.3911,-2.3625 -4.3184,-5.25 -8.2193,-12.3144 -11.9385,-16.9651 -20.2922,-25.37462 -4.8613,-4.89386 -11.5222,-10.6572 -14.8019,-12.80744 -3.2798,-2.15023 -7.5856,-5.29515 -9.5685,-6.98872 -10.1598,-8.67756 -29.7612,-22.57929 -31.8365,-22.57929 -0.5665,0 -6.2318,-2.52961 -12.5895,-5.62136 -6.3576,-3.09175 -11.8176,-5.3631 -12.1332,-5.04744 -0.3157,0.31566 -0.05,6.33277 0.5899,13.37136 0.6401,7.03859 1.7992,19.99744 2.5757,28.79744 4.3386,49.16559 5.9618,66.83972 10.1255,110.25 l 1.7504,18.25 6.5615,-0.0148 c 3.6088,-0.008 13.0865,-0.4658 21.0615,-1.01699 20.1805,-1.39476 56.2611,-3.72966 70,-4.52993 6.325,-0.36843 11.725,-0.79771 12,-0.95396 0.275,-0.15625 7.8125,-0.60873 16.75,-1.0055 14.4312,-0.64065 16.25,-0.545 16.25,0.8546 0,1.83754 -2.602,2.36605 -15.5,3.14839 -4.95,0.30024 -10.35,0.72692 -12,0.94817 -1.65,0.22124 -7.05,0.68079 -12,1.0212 -4.95,0.34042 -10.35,0.79918 -12,1.01948 -10.2086,1.36298 -26.0132,2.72405 -47,4.04758 -47.3938,2.98887 -43.639,2.18048 -42.9224,9.24116 0.2647,2.60735 1.3585,14.41563 2.4308,26.24063 1.0722,11.825 2.4161,26.225 2.9864,32 2.2988,23.27961 9.162,95.50241 10.5006,110.5 6.2144,69.62453 7.404,79.61252 9.7951,82.23952 1.954,2.14673 1.9652,2.32045 0.2708,4.19272 -1.6093,1.77828 -1.6688,2.87619 -0.6639,12.26047 1.3687,12.78197 3.6851,37.43202 8.0165,85.30729 0.5474,6.05 2.8156,30.48633 5.0406,54.30295 4.912,52.57847 5.0406,57.4905 1.3678,52.24675 -1.4978,-2.13829 -2.7362,-10.60687 -4.2774,-29.24977 -0.9312,-11.26392 -2.3496,-26.75963 -9.5012,-103.79993 -3.502,-37.72406 -6.6883,-69.45205 -7.0084,-69.78609 -0.3202,-0.33413 -6.9687,-1.07277 -10.4077,-1.15629 -1.9935,-0.0484 -2.1736,-0.29726 -1.1276,-1.55762 0.7952,-0.95816 3.0068,-1.5 6.1224,-1.5 4.8385,0 4.8775,-0.026 4.8666,-3.25 -0.01,-1.7875 -1.5846,-20.35 -3.5077,-41.25 -1.9232,-20.9 -3.9422,-43.175 -4.4867,-49.5 -0.8398,-9.75407 -3.6543,-40.42626 -5.5056,-60 -0.2862,-3.025 -2.0828,-22.6 -3.9925,-43.5 -1.9098,-20.9 -3.9944,-43.0625 -4.6325,-49.25 l -1.1602,-11.25 -3.2269,0 c -1.7748,0 -4.6806,0.29073 -6.4573,0.64607 l -3.2303,0.64608 0.6465,27.60392 c 0.6361,27.15837 1.886,94.39822 3.1621,170.10393 0.3569,21.175 0.9309,43 1.2755,48.5 l 0.6266,10 4.2314,0.56476 c 7.1639,0.95614 7.1639,2.91434 0,3.87048 l -4.2314,0.56473 0,11 c 0,16.80572 1.4896,101.56388 2.0035,114 0.25,6.05 0.7148,30.35 1.033,54 0.3181,23.65 0.7565,47.05 0.9741,52 0.2176,4.95 0.6455,24.75 0.9509,44 0.5985,37.72689 1.0565,61.73069 2.5283,132.49999 1.7706,85.1341 2.1852,110.4703 2.3478,143.4814 0.149,30.268 0.023,33.0087 -1.5306,33.3124 -1.2339,0.2412 -1.8519,-0.5673 -2.2792,-2.9815 z m 0.03,-858.56229 c -0.3733,-4.8125 -1.0777,-12.575 -1.5654,-17.25 -0.4876,-4.675 -1.3917,-14.575 -2.0091,-22 -3.2313,-38.86361 -10.0578,-110.34769 -10.592,-110.91667 -0.2152,-0.22916 -0.3969,3.14584 -0.4037,7.5 -0.026,16.39105 2.0742,127.42164 2.632,139.16667 l 0.5818,12.25 6.0176,0 6.0176,0 -0.6788,-8.75 z m 81.3644,-112.40309 c -3.0493,-5.97793 -10.8309,-17.2126 -16.6108,-23.98168 -5.2192,-6.11232 -11.8394,-12.16124 -29.4028,-26.86523 -14.886,-12.46259 -17.3927,-15.08585 -24.2201,-25.34611 -7.6286,-11.46452 -14.0871,-24.916 -17.8388,-37.15389 -3.6492,-11.90345 -7.7289,-21.5 -9.1401,-21.5 -1.4796,0 -0.1835,32.52098 2.2119,55.5 2.4088,23.10724 -0.2105,19.78096 25.0929,31.86625 3.0328,1.44856 5.9578,2.63964 6.5,2.64683 1.3184,0.0175 14.8547,8.89943 20.4856,13.44185 6.7273,5.4269 12.7594,9.92368 20,14.90965 3.575,2.46179 10.55,8.28596 15.5,12.94262 4.95,4.65665 9.1439,8.33614 9.3198,8.17663 0.1758,-0.15951 -0.6781,-2.24613 -1.8976,-4.63692 z m -100.3093,-83.09691 c -0.6972,-19.98803 -4.2662,-64.38003 -5.312,-66.07213 -1.0704,-1.73189 -22.7983,-0.003 -27.5769,2.1937 -4.4345,2.03889 -21.0113,16.62537 -23.9209,21.04871 -0.9333,1.41885 -4.9635,5.5735 -8.9561,9.23256 l -7.2592,6.65284 3.6532,5.50215 c 7.832,11.79572 11.381,14.57126 23.259,18.18994 5.9412,1.81 11.2931,4.74914 16.899,9.28055 4.0535,3.27655 13.5404,7.93209 17.7872,8.72879 1.9595,0.36761 4.8567,1.49599 6.4383,2.50753 5.7625,3.68567 5.7239,3.8194 4.9884,-17.26464 z m 74.0422,1041.11679 c -2.7687,-1.6094 -5.6083,-8.7485 -5.6331,-14.1623 -0.024,-5.3485 2.6621,-9.0851 7.3842,-10.2703 3.196,-0.8022 2.9014,-2.4085 -2.6127,-14.2465 -6.8861,-14.7835 -7.9262,-17.9228 -6.1624,-18.5996 3.4669,-1.3304 6.2608,-0.4753 9.1321,2.795 3.0662,3.4922 4.7926,9.2904 3.747,12.5849 -0.3283,1.0343 1.0373,6.7521 3.0346,12.7063 3.1475,9.383 3.5831,11.8063 3.2684,18.1837 -0.3247,6.5826 -0.656,7.6101 -3.1438,9.75 -2.9764,2.5602 -6.0396,2.9879 -9.0143,1.2588 z m 6.7146,-5.1168 c 1.6123,-6.0163 -0.2686,-17.75 -2.8453,-17.75 -5.5597,0 -6.1027,12.3885 -0.7998,18.2482 2.1006,2.3212 2.9195,2.2093 3.6451,-0.4982 z m -24.5862,-27.5 c -5.6015,-6.4216 -3.7685,-13.4118 3.8938,-14.8492 7.188,-1.3485 10.1122,6.7969 4.3817,12.2055 -1.6175,1.5266 -2.7159,3.1398 -2.4409,3.5847 1.0024,1.622 -4.3523,0.7583 -5.8346,-0.941 z m 6.2012,-7.8776 c 0.016,-2.2792 -2.2386,-4.7852 -3.3267,-3.6971 -1.0955,1.0956 -0.7377,5.845 0.5364,7.1191 1.4571,1.4571 2.7667,-0.1491 2.7903,-3.422 z m -16.7412,4.3776 c -1.7331,-2.1633 -4.902,-9.0444 -6.7104,-14.5712 -3.5888,-10.9682 -1.4865,-20.2412 4.7586,-20.9897 2.0594,-0.2468 2.9358,0.3501 4.2528,2.8969 1.8796,3.6349 2.0926,11.8341 0.4645,17.8806 -0.8448,3.1373 -0.7487,4.7206 0.4623,7.619 2.1383,5.1177 2.0016,8.4144 -0.3489,8.4144 -1.0326,0 -2.3282,-0.5625 -2.8789,-1.25 z m -1.2193,-28.66 c -1.5951,-5.9237 -3.4321,-4.2173 -2.6474,2.4593 0.3414,2.9043 0.9398,6.1063 1.3298,7.1156 1.3675,3.5386 2.5449,-5.0172 1.3176,-9.5749 z m 39.5429,-504.83999 c 0.696,-7.46039 0.01,-8.44513 -4.8298,-6.93037 -2.7247,0.85282 -3.7373,1.72661 -3.7373,3.22506 0,4.65038 -5.5212,6.21118 -6.611,1.86888 -1.686,-6.71725 2.3542,-26.29571 6.0612,-29.37221 0.756,-0.62746 2.6229,-1.23096 4.1487,-1.3411 2.2809,-0.16466 3.18,0.51079 5.0577,3.79974 3.0474,5.33774 5.3434,15.8073 5.3434,24.36562 0,8.56526 -0.5561,10.13438 -3.5917,10.13438 -2.2901,0 -2.3579,-0.21181 -1.8412,-5.75 z m -0.7044,-11.82868 c 0.618,-0.53397 -2.0501,-10.76141 -3.6112,-13.84273 -1.8205,-3.5932 -2.5555,-2.57209 -4.3284,6.01371 -1.6881,8.17448 -1.0293,9.69852 3.8138,8.8228 2.0697,-0.37423 3.9263,-0.82143 4.1258,-0.99378 z M 102.4847,578.83792 c -3.16097,-1.74054 -8.5,-7.10098 -8.5,-8.53408 0,-2.098 1.00773,-1.57028 6.10345,3.19617 2.64598,2.475 5.73015,4.5 6.85371,4.5 1.12356,0 2.04284,0.45 2.04284,1 0,1.32351 -3.98238,1.2242 -6.5,-0.16209 z m 22.5,-2.77755 c 1.375,-0.42225 4.075,-1.73189 6,-2.9103 5.17976,-3.17088 7.12269,-2.62042 3,0.84994 -2.64551,2.22691 -4.47656,2.93178 -7.5,2.88715 -3.40552,-0.0503 -3.62845,-0.17315 -1.5,-0.82679 z M 88.70929,560.24818 c -2.96334,-3.27445 -3.89808,-7.48389 -3.20374,-14.4274 0.44176,-4.41765 1.15668,-6.86678 2.11139,-7.23314 0.79391,-0.30465 1.6196,0.001 1.83486,0.67923 0.39371,1.24045 1.36164,22.73314 1.02379,22.73314 -0.0995,0 -0.89434,-0.78832 -1.7663,-1.75183 z m 59.58914,-4.13995 c 2.32787,-5.20861 3.70646,-5.69871 3.65447,-1.2992 -0.0381,3.22037 -2.08439,6.19098 -4.26471,6.19098 -1.35153,0 -1.26461,-0.69679 0.61024,-4.89178 z m 3.26993,-16.97285 c -0.2939,-0.47555 -0.84388,-3.51305 -1.22217,-6.75 -0.61322,-5.24722 -0.51951,-5.74655 0.86426,-4.60513 1.74083,1.43596 4.14854,9.80513 3.24255,11.27106 -0.73185,1.18415 -2.17869,1.22632 -2.88464,0.0841 z M 140.5556,517.34794 c -1.43005,-2.55864 -2.40244,-4.84973 -2.16086,-5.09131 1.19071,-1.1907 4.46751,1.18077 6.41194,4.64042 2.65973,4.73236 2.67887,5.10296 0.26351,5.10296 -1.23904,0 -2.83185,-1.64132 -4.51459,-4.65207 z M 124.20662,491.8864 c -1.22206,-0.45207 -2.22192,-1.31677 -2.22192,-1.92155 0,-0.61708 -0.81648,-0.84048 -1.86062,-0.50908 -2.7025,0.85774 -5.44944,-1.97769 -9.54886,-9.85646 -3.72323,-7.15577 -4.47415,-12.05202 -2.44082,-15.91504 1.51158,-2.87176 2.79086,-3.65043 6.02772,-3.66895 5.74416,-0.0328 9.30093,9.68247 6.45955,17.64428 -0.81645,2.28778 -1.23672,4.40733 -0.93393,4.71012 0.30279,0.30279 1.89814,-0.14635 3.54523,-0.99809 4.13556,-2.13859 9.48033,-1.06138 10.97143,2.21122 2.15366,4.72678 -4.5703,10.3113 -9.99778,8.30355 z m 5.21203,-7.99326 c -0.75426,-1.22042 -4.43395,0.83387 -4.43395,2.47539 0,0.71398 0.33086,1.62901 0.73525,2.0334 0.94351,0.9435 4.43667,-3.31473 3.6987,-4.50879 z M 115.54853,466.3983 c -0.33106,-1.31906 -0.99522,-2.39829 -1.47589,-2.39829 -1.71418,0 -1.84904,2.65855 -0.30702,6.05237 1.45901,3.21111 1.59455,3.28629 1.97566,1.09592 0.22505,-1.29344 0.13831,-3.43094 -0.19275,-4.75 z m 745.26561,-16.89268 c -8.52425,-3.72884 -12.82944,-6.2861 -12.82944,-7.62062 0,-1.90527 4.01337,-0.69091 12.07661,3.65412 14.23899,7.67296 14.69288,10.06444 0.75283,3.9665 z m 57.24729,-5.0945 c -2.10468,-1.77097 -3.07673,-3.48548 -3.07673,-5.42676 0,-2.17888 -0.72532,-3.1997 -3.12351,-4.39608 -2.98511,-1.48917 -3.25436,-1.4481 -6.07672,0.92676 -5.05309,4.2519 -8.96616,2.76936 -13.73512,-5.20381 -5.60171,-9.36544 -3.89906,-18.08212 3.99394,-20.44692 4.76168,-1.42663 8.81322,0.006 12.53949,4.43463 2.24935,2.6732 2.51808,3.78606 2.22976,9.23378 l -0.32784,6.19426 2.67945,-0.93671 c 1.47369,-0.5152 3.94869,-0.79127 5.5,-0.61349 2.71627,0.31128 2.8226,0.53261 2.87613,5.9865 0.0786,8.01032 1.34092,9.20464 8.90432,8.42474 l 6.0401,-0.62282 -2.8058,2.5174 c -3.9948,3.5843 -11.31264,3.5508 -15.61747,-0.0715 z m -14.79234,-14.3154 c 2.65052,-4.48698 2.2721,-11.63013 -0.7777,-14.67993 -2.09823,-2.09823 -2.82829,-2.31403 -4.60736,-1.3619 -1.37575,0.73628 -1.77295,1.4725 -1.13734,2.10811 0.53719,0.53719 0.75799,2.91714 0.49067,5.28878 -0.54453,4.83109 1.26412,11.54923 3.10928,11.54923 0.66377,0 1.97887,-1.30693 2.92245,-2.90429 z m -73.85722,-1.89074 c -4.40715,-5.09118 -6.52636,-8.73633 -8.25842,-14.20497 -0.88214,-2.78516 -0.8594,-3.17571 0.11135,-1.91223 0.67095,0.87327 1.75111,1.77327 2.40037,2 1.57141,0.54875 11.31953,15.5704 11.31953,17.44316 0,2.40165 -1.27182,1.64261 -5.57283,-3.32596 z m 341.27373,2.09782 c -0.2654,-0.44154 -1.9113,-5.44894 -3.6577,-11.12756 -3.0143,-9.80142 -3.0919,-10.45194 -1.5314,-12.83353 1.5965,-2.43668 7.1111,-5.42523 9.7061,-5.26013 0.7051,0.0449 -0.1459,0.7071 -1.8913,1.47162 -1.7454,0.76453 -3.8517,2.35843 -4.6807,3.54201 -1.3814,1.97225 -1.2835,2.56072 1.1734,7.0466 l 2.6807,4.89463 5.5,-0.47529 c 3.025,-0.26142 4.6,-0.24029 3.5,0.0469 -8.3997,2.19333 -8.2796,2.08145 -8.1346,7.57772 0.081,3.08137 -0.3248,5.26805 -1.0238,5.5133 -0.6371,0.22356 -1.3754,0.0452 -1.6407,-0.39631 z m 26.3053,-4.78661 c -0.5534,-1.45551 -1.0062,-3.51708 -1.0062,-4.58128 0,-1.26823 -0.6891,-1.9349 -2,-1.9349 -1.6667,0 -2,0.66667 -2,4 0,2.75235 -0.4345,4 -1.393,4 -1.8871,0 -2.3793,-1.58908 -3.7125,-11.98479 -1.6957,-13.22244 0.767,-16.97469 3.0207,-4.6024 1.2345,6.77675 1.4038,7.06251 3.6692,6.19319 1.4357,-0.55094 1.5738,-1.62277 0.9825,-7.62353 -0.5672,-5.75639 -0.4328,-6.98247 0.7656,-6.98247 1.7425,0 2.2831,1.25402 3.2124,7.45074 0.5145,3.43128 1.2572,4.91041 2.7409,5.45928 1.837,0.67956 1.8663,0.81765 0.3004,1.41854 -1.3919,0.53412 -1.6804,1.69062 -1.4595,5.85158 0.308,5.80403 -1.4626,7.6969 -3.1205,3.33604 z m -94.5383,-20.56804 c -0.3686,-0.59647 -1.2768,-0.85173 -2.0181,-0.56724 -0.8342,0.32011 -1.1506,0.003 -0.8301,-0.83217 0.2848,-0.74219 -0.076,-1.32338 -0.801,-1.29154 -4.0643,0.17839 -5.0388,-0.3076 -4.5286,-2.25857 0.2879,-1.10076 0.1464,-1.76842 -0.3143,-1.48369 -1.2418,0.76752 -2.3543,-1.53648 -1.2668,-2.62389 0.5795,-0.57959 1.8263,-0.16134 3.2817,1.10092 1.5012,1.30196 3.0616,1.80884 4.3295,1.40642 1.5366,-0.4877 1.8436,-0.26754 1.3652,0.97906 -0.3673,0.95724 0.2091,2.378 1.424,3.50986 1.2001,1.11806 1.6266,2.15785 1.035,2.52347 -0.5534,0.34202 -1.3078,0.13384 -1.6765,-0.46263 z m -31.7722,-5.29884 c -0.3346,-0.87189 -0.2361,-1.8153 0.2188,-2.09647 0.455,-0.28116 1.0877,-1.81379 1.4061,-3.40584 0.7894,-3.94717 5.3516,-5.02436 8.007,-1.89057 1.7008,2.0072 1.7114,2.24187 0.1528,3.38155 -0.9211,0.67356 -2.3061,0.98243 -3.0776,0.68636 -1.2685,-0.48677 -1.9589,1.37576 -1.49,4.01942 0.082,0.46406 -0.4269,0.63946 -1.1315,0.38977 -0.7047,-0.24969 -1.1982,-1.52938 -1.0966,-2.84375 0.1697,-2.1965 0.081,-2.15788 -1.098,0.47751 -0.992,2.21744 -1.4206,2.508 -1.891,1.28202 z M 811.19547,389.8231 c -4.36017,-11.15391 -5.78575,-27.00474 -2.54072,-28.24997 2.26346,-0.86857 2.93396,0.5345 3.20102,6.69832 0.12459,2.87571 0.87957,8.06898 1.67773,11.54061 2.79285,12.14763 1.18628,19.0267 -2.33803,10.01104 z m 424.78923,-7.26407 c 0,-0.24254 0.45,-0.7191 1,-1.05902 0.55,-0.33992 1,-0.14148 1,0.44098 0,0.58246 -0.45,1.05902 -1,1.05902 -0.55,0 -1,-0.19844 -1,-0.44098 z M 803.07682,344.33167 c -1.34829,-2.92936 -1.5958,-15.28952 -0.4638,-23.16119 0.61817,-4.29862 2.62752,-6.31463 4.46366,-4.47849 1.09554,1.09554 -0.41182,24.385 -1.82127,28.13968 l -0.87527,2.33165 -1.30332,-2.83165 z m -0.0111,-45.18027 c -1.7516,-3.2729 -1.16482,-8.05492 2.22728,-18.15139 2.66028,-7.91824 3.56633,-9.55321 5.4417,-9.81955 1.43287,-0.2035 2.25,0.1995 2.25,1.10968 0,1.73803 -7.60304,27.64624 -8.32493,28.36813 -0.28217,0.28217 -0.99949,-0.39592 -1.59405,-1.50687 z m 13.91898,-57.9029 c 0,-3.91259 3.04217,-14.52073 5.52001,-19.24849 2.08151,-3.97153 5.3669,-6.98063 6.95586,-6.37089 1.2041,0.46206 0.99798,1.46893 -1.1701,5.71587 -1.44741,2.83526 -4.07907,9.18693 -5.84814,14.11483 -3.55782,9.9106 -5.45763,11.92565 -5.45763,5.78868 z m 20.3877,-49.49849 c 0.77208,-5.10068 6.71126,-17.62459 9.59617,-20.23541 1.35984,-1.23063 2.4005,-1.53022 3.05206,-0.87866 1.14465,1.14465 -10.54714,25.36407 -12.24436,25.36407 -0.66623,0 -0.81315,-1.54612 -0.40387,-4.25 z m 198.2296,-22.93966 c -1.6265,-13.39475 -1.5902,-14.83749 0.4248,-16.85247 2.0807,-2.08064 3.9579,-2.56765 3.9579,-1.02678 0,1.41332 12.8212,14.58106 13.5184,13.88382 0.3346,-0.33454 0.5887,-5.37976 0.5647,-11.21158 -0.041,-9.96001 0.078,-10.60333 1.9614,-10.60333 2.831,0 3.9555,3.72832 3.9555,13.11476 0,8.69593 -1.5992,13.30586 -4.989,14.38176 -3.1752,1.00775 -5.639,-0.26696 -9.923,-5.13394 l -3.9833,-4.52526 -0.3024,5.83134 c -0.2653,5.1179 -0.569,5.86931 -2.482,6.14168 -1.8871,0.26868 -2.2499,-0.26822 -2.703,-4 z M 864.9847,140.9871 c 0,-4.5612 15.63581,-24.98709 19.12736,-24.98709 2.57142,0 2.34739,1.21298 -0.75276,4.07569 -1.44397,1.33337 -5.74924,6.57896 -9.56726,11.65686 -7.10646,9.45147 -8.80734,11.23871 -8.80734,9.25454 z m 31.42486,-41.528916 c 1.05867,-1.626998 2.48483,-3.408178 3.16923,-3.958178 0.6844,-0.55 4.42829,-3.636575 8.31976,-6.859055 4.87645,-4.03814 7.59963,-5.657883 8.76221,-5.211756 1.94119,0.744903 -0.45092,2.954975 -14.10216,13.028989 -6.79869,5.017136 -7.76988,5.490966 -6.14904,3 z M 233.65137,32.333339 c -0.36667,-0.366666 -0.66667,-1.131666 -0.66667,-1.7 0,-0.626604 0.46577,-0.567562 1.18333,0.15 0.65084,0.650834 0.95084,1.415834 0.66667,1.7 -0.28417,0.284167 -0.81667,0.216667 -1.18333,-0.15 z m 547.49122,-1.333333 c 0,-1.375 0.22698,-1.9375 0.50439,-1.25 0.27741,0.6875 0.27741,1.8125 0,2.5 -0.27741,0.6875 -0.50439,0.125 -0.50439,-1.25 z"
     id="path3027"
     style="fill:#000000" />
</svg>
