<?xml version="1.0" encoding="UTF-8" standalone="no"?>
<!-- Created with Inkscape (http://www.inkscape.org/) -->

<svg
   xmlns:dc="http://purl.org/dc/elements/1.1/"
   xmlns:cc="http://creativecommons.org/ns#"
   xmlns:rdf="http://www.w3.org/1999/02/22-rdf-syntax-ns#"
   xmlns:svg="http://www.w3.org/2000/svg"
   xmlns="http://www.w3.org/2000/svg"
   version="1.1"
   width="1455.0758"
   height="1402.7592"
   id="svg2997">
  <metadata
     id="metadata3003">
    <rdf:RDF>
      <cc:Work
         rdf:about="">
        <dc:format>image/svg+xml</dc:format>
        <dc:type
           rdf:resource="http://purl.org/dc/dcmitype/StillImage" />
        <dc:title></dc:title>
      </cc:Work>
    </rdf:RDF>
  </metadata>
  <defs
     id="defs3001" />
  <path
     d="m 1006.7957,1401.1427 c -1.6808,-1.8572 -1.5841,-1.9529 3.0676,-3.0335 2.6418,-0.6137 7.9532,-1.5549 11.8032,-2.0915 3.85,-0.5366 8.572,-1.4351 10.4934,-1.9967 1.9214,-0.5615 5.2964,-1.0275 7.5,-1.0356 2.2036,-0.01 5.9913,-0.7056 8.417,-1.5503 4.0848,-1.4224 19.8183,-4.3694 31.5896,-5.9169 15.6514,-2.0577 25.2246,-4.8028 37.5,-10.7528 14.4994,-7.0281 24.6017,-10.7563 29.2312,-10.7874 1.7978,-0.012 5.0688,-0.8424 7.2688,-1.8453 4.8698,-2.2198 15.1266,-8.7195 16.0065,-10.1433 0.3514,-0.5686 3.1937,-2.9208 6.3162,-5.2271 3.1225,-2.3064 7.3964,-5.9469 9.4976,-8.09 2.1012,-2.1431 5.9262,-5.4981 8.5,-7.4555 15.2906,-11.6286 26.1028,-23.7681 31.6451,-35.53 6.1424,-13.0353 15.2995,-39.0084 17.5175,-49.6868 2.6866,-12.9341 2.9526,-29.8496 0.6605,-42 -1.973,-10.4588 -2.6742,-13 -3.5872,-13 -1.0942,0 -3.0052,-11.7286 -4.0324,-24.7483 -0.5099,-6.4634 -1.4586,-14.4517 -2.1083,-17.7517 -0.6497,-3.3 -1.2562,-6.9 -1.3477,-8 -0.092,-1.1 -0.6545,-2.9 -1.251,-4 -0.5965,-1.1 -1.4101,-4.025 -1.8079,-6.5 -0.3978,-2.475 -1.6967,-5.85 -2.8865,-7.5 -1.1897,-1.65 -2.8095,-4.35 -3.5996,-6 -0.7901,-1.65 -2.0882,-3.7875 -2.8847,-4.75 -0.7964,-0.9625 -1.1669,-1.75 -0.8232,-1.75 0.3436,0 -0.4133,-1.5297 -1.682,-3.3993 -1.2688,-1.8696 -2.857,-4.9071 -3.5294,-6.75 -0.6724,-1.8429 -2.1064,-5.0334 -3.1867,-7.09 -2.9446,-5.6058 -3.339,-16.1784 -0.8895,-23.846 1.085,-3.3964 1.9727,-6.9401 1.9727,-7.875 0,-2.4486 8.7245,-19.7861 10.4397,-20.746 0.7945,-0.4446 4.2424,-4.8551 7.662,-9.801 6.4596,-9.3428 11.7538,-15.1202 16.5787,-18.0921 10.4662,-6.4467 18.3196,-12.0447 18.3196,-13.05849 0,-0.65376 1.1475,-2.55239 2.55,-4.21917 3.3392,-3.96835 9.3196,-15.43659 11.0152,-21.12294 1.6765,-5.62241 2.0525,-20.59685 0.6076,-24.19621 -1.2721,-3.16878 -6.6561,-4.68585 -10.0962,-2.8448 -2.4243,1.29745 -18.0766,-0.49843 -18.0766,-2.07403 0,-0.48673 0.5625,-0.77246 1.25,-0.63496 0.6875,0.1375 1.1956,-0.489 1.1291,-1.39223 -0.095,-1.28262 0.7253,-1.61109 3.7437,-1.5 2.1255,0.0782 3.6987,0.59223 3.4959,1.14223 -0.2028,0.55 -0.8749,0.8875 -1.4937,0.75 -0.6187,-0.1375 -1.125,0.2 -1.125,0.75 0,1.47791 5.7204,1.21485 7.163,-0.3294 0.8022,-0.85872 2.7634,-1.17755 5.5394,-0.90052 6.1118,0.60994 5.8599,-0.72367 -2.2024,-11.6585 -1.65,-2.23788 -3.553,-4.07849 -4.2289,-4.09023 -0.6759,-0.0117 -3.6009,-2.40689 -6.5,-5.32255 -2.8991,-2.91566 -6.9586,-6.32736 -9.0211,-7.58156 -2.0625,-1.2542 -3.7531,-2.58116 -3.7568,-2.9488 0,-0.36764 -1.6913,-1.78942 -3.75,-3.15951 -6.3465,-4.22358 -7.0563,-6.56484 -1.7282,-5.7002 1.9333,0.31372 5.8708,-0.10094 8.75,-0.92147 2.8793,-0.82053 7.4585,-1.95436 10.1762,-2.51961 2.7177,-0.56526 7.0902,-2.11672 9.7168,-3.4477 2.6265,-1.33097 5.3823,-2.41995 6.124,-2.41995 2.1977,0 18.8811,-9.00006 23.315,-12.57747 4.0331,-3.25413 19.1327,-23.16901 22.7592,-30.01706 2.7776,-5.2453 0.9859,-10.97804 -6.43,-20.57301 -3.2594,-4.21715 -5.9262,-8.07613 -5.9262,-8.57551 0,-0.49939 -2.3647,-4.02923 -5.2548,-7.84409 -2.8902,-3.81486 -6.3777,-9.78406 -7.75,-13.26489 -1.3724,-3.48083 -3.2827,-6.75393 -4.2452,-7.27356 -0.9625,-0.51963 -1.75,-1.72882 -1.75,-2.68709 0,-0.95827 -0.6602,-2.68486 -1.4671,-3.83688 -3.4255,-4.89057 -3.9458,-12.49581 -3.2053,-46.85044 l 0.1724,-8 -5.5,-0.73244 c -3.025,-0.40284 -16.3,-1.67542 -29.5,-2.82796 -32.1226,-2.80472 -33.6116,-2.94645 -36.5,-3.47396 -1.375,-0.25111 -7,-0.73137 -12.5,-1.06724 -5.5,-0.33587 -10.9,-0.75447 -12,-0.93023 -1.1,-0.17575 -3.4625,-0.35299 -5.25,-0.39386 -1.7875,-0.0409 -3.25,-0.58592 -3.25,-1.21122 0,-0.80465 1.9727,-0.93652 6.75,-0.45122 3.7125,0.37713 9.9,0.84079 13.75,1.03036 18.6167,0.91667 29.1801,1.97851 31,3.11614 1.1813,0.73842 5.8542,1.30701 11.4151,1.38896 5.1784,0.0763 9.6784,0.29069 10,0.47638 0.3217,0.18569 7.8974,0.65856 16.8349,1.05082 12.5957,0.55282 16.25,0.43605 16.25,-0.51924 0,-0.67785 2.3964,-4.88259 5.3253,-9.34387 2.929,-4.46128 6.5479,-10.24892 8.0422,-12.86142 3.613,-6.31691 5.1169,-6.05289 2.5543,0.44844 -2.5346,6.43036 -2.528,6.41871 -6.4214,11.30156 -4.485,5.62472 -6.0769,8.80784 -4.6438,9.28553 0.6289,0.20963 1.1434,0.93924 1.1434,1.62136 0,1.24191 11.5747,2.85658 29.5,4.11525 20.6795,1.45206 36.9584,2.81487 47.8988,4.00991 2.6943,0.29431 5.6193,0.9775 6.5,1.5182 1.8062,1.10898 -7.261,0.80117 -28.3988,-0.96404 -37.6971,-3.1481 -57.4887,-4.43082 -58.1507,-3.76883 -1.081,1.08098 -2.2401,15.8454 -2.2954,29.23845 -0.059,14.38329 1.9368,23.09447 6.3308,27.62689 1.9904,2.05321 6.6153,10.74713 6.6153,12.43569 0,0.35212 2.925,4.64042 6.5,9.52956 3.575,4.88915 6.5,9.1895 6.5,9.55634 0,0.36684 1.7407,2.7313 3.8681,5.25436 5.2764,6.25751 9.1319,14.18339 9.1319,18.7729 0,4.00361 -2.6642,9.86597 -6.6364,14.6031 -1.3073,1.55907 -2.1224,3.24657 -1.8113,3.75 0.3112,0.50343 0.063,0.91533 -0.5523,0.91533 -0.6149,0 -0.8715,0.39884 -0.5703,0.88631 0.3013,0.48747 -0.3085,1.11024 -1.3551,1.38394 -1.0467,0.2737 -3.1178,2.46236 -4.6025,4.86369 -6.6885,10.81785 -16.5954,17.70221 -35.831,24.89914 -3.0894,1.1559 -6.0083,2.8006 -6.4863,3.65488 -0.519,0.92738 -2.6393,1.70127 -5.262,1.92062 -5.5375,0.46313 -17.8928,3.60025 -17.8928,4.54314 0,0.7232 1.0571,1.64631 18.4889,16.14467 9.0559,7.53196 11.481,10.11134 18.0505,19.1989 1.5678,2.16877 2.8057,2.79926 5.3537,2.72681 2.935,-0.0834 3.1133,0.0528 1.5578,1.19013 -0.966,0.7064 -1.4342,1.80581 -1.0403,2.44313 0.3939,0.63732 0.065,1.40879 -0.7317,1.71438 -1.1115,0.42652 -1.4812,2.80644 -1.5912,10.24294 -0.086,5.78192 -0.8405,12.10619 -1.8729,15.68732 -3.83,13.28629 -17.6801,30.9309 -28.5249,36.3397 -5.1332,2.5602 -16.6197,12.7639 -13.1899,11.7168 1.1967,-0.3653 -0.1096,1.4484 -3.252,4.5154 -8.1289,7.9338 -20.5613,27.7996 -21.5457,34.4281 -0.245,1.65 -1.2294,5.9104 -2.1875,9.4675 -2.7621,10.2553 -1.8604,13.9699 8.382,34.5325 12.8591,25.8156 16.6452,37.8546 18.0831,57.5 1.3015,17.7813 1.9481,21.3047 3.6502,19.892 1.1202,-0.9297 1.3699,-0.4226 1.3699,2.7824 0,2.1556 0.9724,8.1732 2.1608,13.3724 1.7192,7.5212 2.1409,12.4166 2.0631,23.9532 -0.1302,19.3294 -2.8959,34.1697 -8.6658,46.5 -0.7721,1.65 -1.7372,4.3366 -2.1447,5.9703 -0.4074,1.6336 -1.5235,4.3336 -2.4802,6 -0.9567,1.6663 -2.0546,4.5416 -2.4399,6.3894 -1.27,6.0917 -5.5813,14.5756 -9.4724,18.6403 -2.1061,2.2 -5.0139,5.7747 -6.4619,7.9438 -1.4479,2.1691 -4.9786,5.9295 -7.8458,8.3563 -2.8673,2.4269 -6.5921,5.6496 -8.2775,7.1615 -1.6854,1.5119 -4.3854,3.5827 -6,4.6017 -1.6146,1.019 -4.9913,3.9502 -7.5036,6.5136 -2.5123,2.5635 -7.1248,6.3586 -10.25,8.4336 -5.5221,3.6664 -6.9899,5.4856 -4.4321,5.4932 1.3491,0 -1.5794,1.9149 -10.25,6.6881 -3.025,1.6653 -6.032,2.8385 -6.6822,2.6073 -0.6502,-0.2313 -2.4502,0.2139 -4,0.9894 -1.5498,0.7754 -5.7428,1.9938 -9.3178,2.7074 -3.575,0.7136 -7.625,1.8568 -9,2.5405 -1.375,0.6836 -5.425,2.6012 -9,4.2612 -3.575,1.66 -9.488,4.423 -13.1401,6.14 -3.652,1.717 -9.277,3.6108 -12.5,4.2083 -3.2229,0.5976 -7.7354,1.7323 -10.0277,2.5216 -4.6214,1.5913 -6.1232,1.8709 -14.8393,2.7624 -5.8739,0.6008 -9.9705,1.2158 -13.9929,2.1008 -1.1,0.242 -4.1676,0.8886 -6.8168,1.4369 -2.6493,0.5483 -5.2335,1.2545 -5.7427,1.5692 -0.5092,0.3147 -5.3167,1.2012 -10.6832,1.9699 -5.3665,0.7687 -11.7823,1.905 -14.2573,2.5251 -2.475,0.62 -7.0055,1.3301 -10.0677,1.578 -4.5828,0.3709 -5.8746,0.1114 -7.3031,-1.4671 z m 0.9003,-65.3927 c -1.5788,-2.2426 -6.6652,-17.2136 -8.02664,-23.6251 -0.79377,-3.738 -0.59512,-3.7125 5.24954,0.6747 3.783,2.8397 5.6299,2.0391 6.6109,-2.8659 1.0163,-5.0818 3.9567,-2.2884 5.5109,5.2355 l 1.3077,6.3308 1.441,-2.75 c 1.6178,-3.0875 5.3303,-3.7163 7.3776,-1.2495 1.7015,2.0503 2.6106,10.4995 1.1296,10.4995 -0.6216,0 -1.1301,0.5966 -1.1301,1.3257 0,1.8382 4.2689,5.6743 6.3145,5.6743 0.927,0 1.6855,0.45 1.6855,1 0,2.7753 -8.6066,-0.9549 -12.329,-5.3436 l -1.8289,-2.1564 0.5711,2.5 c 0.3142,1.375 0.864,3.5579 1.222,4.8509 0.5346,1.9309 0.3127,2.2882 -1.2422,2 -1.4374,-0.2665 -2.7319,-2.9423 -5.3785,-11.1175 -2.316,-7.1542 -3.9003,-10.6075 -4.7218,-10.2922 -0.68,0.2609 -2.622,-0.01 -4.3156,-0.599 -1.6935,-0.5904 -3.3118,-0.8408 -3.5962,-0.5565 -0.2843,0.2844 1.3137,5.1991 3.5511,10.9217 2.2374,5.7226 4.068,10.717 4.068,11.0986 0,1.4706 -1.9578,0.5928 -3.4705,-1.556 z m -284.52948,-21.143 c 0,-0.2162 0.675,-0.652 1.5,-0.9686 0.825,-0.3166 1.5,-0.1398 1.5,0.393 0,0.5327 -0.675,0.9686 -1.5,0.9686 -0.825,0 -1.5,-0.1769 -1.5,-0.393 z m 287.57138,-22.1784 c -1.7772,-1.7772 -1.9538,-3.2758 -0.6323,-5.3643 1.3829,-2.1855 4.0609,0.4907 4.0609,4.0581 0,3.2234 -1.0944,3.6403 -3.4286,1.3062 z M 62.07632,1241.6289 c -1.974612,-0.7059 -5.124612,-2.4452 -7,-3.8652 -1.875387,-1.42 -4.984795,-3.2611 -6.909795,-4.0912 -1.925,-0.8301 -2.80456,-1.5461 -1.954578,-1.5909 1.885214,-0.1 19.54268,8.4429 20.434507,9.8859 0.815906,1.3202 -0.124453,1.2505 -4.570134,-0.3386 z M 1116.8858,1127.4281 c 3.7798,-1.6541 6.2807,-5.9416 6.2807,-10.7677 0,-4.3788 -2.5681,-7.474 -6.8961,-8.3116 -3.3325,-0.6449 -3.3836,-0.6029 -2.7301,2.247 2.0209,8.8129 1.9888,10.4042 -0.21,10.4042 -1.7607,0 -2.5081,-1.3395 -4.6317,-8.3016 -3.8284,-12.5516 -3.171,-19.5389 2.0629,-21.9237 2.4138,-1.0997 2.887,-0.9189 5.6305,2.1516 2.7208,3.0452 2.937,3.791 2.3599,8.1417 -0.5959,4.492 -0.4602,4.8929 2.1853,6.4556 4.7628,2.8135 7.2711,7.3832 6.3316,11.535 -1.6089,7.1095 -4.8851,10.0151 -11.1023,9.8462 -2.3549,-0.064 -2.3131,-0.1497 0.7193,-1.4767 z m -2.1854,-32.1492 c -0.8294,-3.3044 -3.0609,-2.7953 -4.92,1.1222 -2.0763,4.3755 -2.0399,6.5621 0.1361,8.1779 1.5558,1.1553 1.9501,0.8378 3.5529,-2.8609 0.9916,-2.2882 1.5455,-5.1859 1.231,-6.4392 z M 620.32441,1120 c 0,-1.375 0.22698,-1.9375 0.50439,-1.25 0.27741,0.6875 0.27741,1.8125 0,2.5 -0.27741,0.6875 -0.50439,0.125 -0.50439,-1.25 z m -0.15789,-5.882 c 0,-1.1 -0.4086,-2.2525 -0.908,-2.5611 -0.9929,-0.6137 -0.43665,-14.2483 0.77746,-19.0569 0.4166,-1.65 0.59586,-4.8 0.39836,-7 -0.46513,-5.1811 -0.36669,-25.0255 0.21826,-44 0.83142,-26.9691 1.83761,-64.9511 1.78136,-67.24338 -0.0303,-1.23386 0.23467,-2.06451 0.58876,-1.84588 0.35409,0.21863 0.62827,-6.09524 0.60929,-14.03082 -0.019,-7.93559 0.32107,-17.22994 0.75568,-20.65413 0.75429,-5.94299 0.83206,-11.5825 0.44942,-32.59287 l -0.17059,-9.36709 -5,-0.19927 c -8.71633,-0.34737 -19.95786,-1.80595 -21.15275,-2.74455 -0.72823,-0.57202 -1.37271,-0.42977 -1.75,0.38625 -0.47437,1.02597 -0.7177,1.03328 -1.18266,0.0355 -0.32198,-0.69093 -1.01669,-0.98969 -1.54381,-0.66391 -0.52711,0.32578 -1.61368,0.0485 -2.41458,-0.61621 -1.02557,-0.85114 -1.4562,-0.8766 -1.4562,-0.0861 0,0.61734 -1.575,1.12244 -3.5,1.12244 -1.925,0 -3.5,-0.45 -3.5,-1 0,-0.55 -1.77344,-1 -3.94098,-1 -2.16754,0 -4.24879,-0.49804 -4.625,-1.10676 -0.48165,-0.77932 -0.92049,-0.72415 -1.48327,0.18645 -0.64921,1.05044 -2.12758,1.00801 -7.875,-0.22601 -4.81364,-1.03353 -7.08065,-1.17306 -7.09106,-0.43645 -0.0108,0.76514 -0.23084,0.76115 -0.75,-0.0136 -0.44891,-0.66989 -3.74928,-1.01509 -8.48469,-0.88746 -4.48884,0.12099 -7.75,-0.19969 -7.75,-0.76207 0,-0.53402 -1.0125,-0.72763 -2.25,-0.43025 -1.2375,0.29739 -3.97178,-0.0626 -6.07617,-0.79994 -2.64611,-0.92716 -4.80162,-1.06088 -6.9889,-0.43358 -1.9256,0.55226 -4.34054,0.53812 -6.17383,-0.0362 -2.98947,-0.93643 -8.09379,-1.46915 -10.0111,-1.04482 -2.5155,0.55671 -4.09252,0.45684 -5.2062,-0.32969 -0.6634,-0.46853 -1.64481,-0.5808 -2.1809,-0.24948 -0.53609,0.33132 -1.25736,0.14506 -1.60282,-0.41391 C 500.33114,883.45734 498.92349,883 497.54849,883 c -1.375,0 -2.24111,0.41891 -1.92468,0.9309 0.97041,1.57014 -1.21028,2.17325 -2.65049,0.73305 -1.40608,-1.40608 -9.26149,-2.59713 -21.3068,-3.23056 -19.17397,-1.00831 -24.62858,-1.39367 -25.28442,-1.78628 -0.39357,-0.23562 -5.89058,-0.75135 -12.21558,-1.14609 -6.325,-0.39473 -13.525,-0.91593 -16,-1.15821 -2.475,-0.24229 -6.3,-0.56615 -8.5,-0.71969 -2.2,-0.15355 -8.95,-0.66724 -15,-1.14154 -6.05,-0.4743 -11.45,-0.70817 -12,-0.51971 -1.25967,0.43162 -2.96784,0.33722 -8,-0.44208 -2.2,-0.3407 -6.025,-0.77726 -8.5,-0.97013 -2.475,-0.19287 -6.075,-0.60099 -8,-0.90694 -1.925,-0.30594 -7.55,-0.7974 -12.5,-1.09212 -4.95,-0.29473 -11.86739,-0.96276 -15.37197,-1.48452 -3.50458,-0.52176 -11.04208,-1.26149 -16.75,-1.64384 l -10.37803,-0.69518 -0.018,6.38647 c -0.01,3.51256 -0.43344,15.38647 -0.94123,26.38647 -0.50778,11 -1.19493,28.325 -1.52701,38.5 -0.33207,10.175 -1.01964,26.15 -1.52793,35.5 -0.50829,9.35 -1.19384,24.2 -1.52343,33 -0.32959,8.8 -0.77254,17.35 -0.98433,19 -0.21179,1.65 -0.65362,17.85 -0.98184,36 -0.69561,38.4664 -0.79229,39.5 -3.69454,39.5 -2.06478,0 -2.09302,-0.239 -1.38825,-11.75 0.77373,-12.6373 1.05159,-18.3348 2.62132,-53.75 1.1081,-25.0001 2.64407,-57.43882 3.43287,-72.5 0.27365,-5.225 0.77642,-16.475 1.11727,-25 0.34084,-8.525 0.76218,-17.525 0.93631,-20 0.17413,-2.475 0.6401,-15.13813 1.03548,-28.14028 l 0.71888,-23.64028 -2.8878,-0.55762 c -3.68526,-0.71161 -27.43719,-2.03141 -37.88779,-2.10528 -4.4,-0.0311 -8.56444,-0.4218 -9.25431,-0.86822 -0.68987,-0.44643 -3.83987,-0.8218 -7,-0.83416 -12.7049,-0.0497 -28.8885,-0.80236 -31.24569,-1.45312 -1.375,-0.37961 -3.175,-0.78598 -4,-0.90306 -4.6252,-0.65637 -12.82441,-1.55021 -23,-2.50736 -6.325,-0.59496 -13.3,-1.30729 -15.5,-1.58298 -2.2,-0.27568 -7.375,-0.69318 -11.5,-0.92778 -4.125,-0.23461 -9.975,-0.65503 -13,-0.93428 -3.025,-0.27925 -9.85519,-0.74916 -15.17821,-1.04425 -12.3285,-0.68346 -21.37599,-1.37384 -25.82179,-1.97038 -1.925,-0.2583 -8.224995,-0.72058 -13.999995,-1.0273 -5.775,-0.30672 -14.55,-0.99416 -19.5,-1.52765 -4.95,-0.53349 -14.4,-1.18799 -21,-1.45444 -12.307064,-0.49686 -20.829552,-1.0682 -30.49998,-2.04472 -3.025,-0.30546 -8.425,-0.81343 -12.0000001,-1.12882 -3.575,-0.31539 -6.68749996,-0.74772 -6.91666663,-0.96073 -1.38360647,-1.28606 2.66769593,-1.25629 20.01739473,0.14711 10.6696,0.86305 25.024272,1.97621 31.899272,2.47368 17.786717,1.28704 49.409765,3.71922 70.999995,5.46073 10.175,0.82073 25.475,1.94601 34,2.50061 8.525,0.55461 20.45,1.47839 26.5,2.05287 6.05,0.57447 16.175,1.46467 22.5,1.97822 10.43008,0.84687 18.18596,1.53198 28,2.47339 1.925,0.18465 8.225,0.64271 14,1.0179 5.775,0.3752 11.625,0.8726 13,1.10534 5.40669,0.91518 20.97822,1.90286 30,1.90286 l 9.5,0 0.61999,-13 c 0.34099,-7.15 0.91385,-20.425 1.27302,-29.5 0.35918,-9.075 1.08951,-26.4 1.62297,-38.5 0.53346,-12.1 1.19911,-28.075 1.47924,-35.5 0.28012,-7.425 0.72506,-17.1 0.98875,-21.5 0.2637,-4.4 0.75408,-15.2 1.08975,-24 0.33566,-8.8 0.93889,-23.2 1.34049,-32 0.66247,-14.51593 0.55984,-16.29138 -1.10646,-19.14142 -2.18396,-3.73544 -2.25237,-3.75083 -25.80775,-5.80514 -9.625,-0.83942 -22.225,-1.97272 -28,-2.51846 -18.32524,-1.73174 -26.70152,-2.35491 -61,-4.5382 -19.94755,-1.26977 -62.10369,-5.62888 -60.28823,-6.23404 0.63785,-0.21261 9.62614,0.31236 19.97398,1.1666 10.34784,0.85425 22.86425,1.79148 27.81425,2.08273 9.94862,0.58536 32.30915,2.37198 37,2.95633 1.65,0.20554 7.5,0.66062 13,1.01128 5.5,0.35067 11.35,0.80952 13,1.01968 2.92914,0.37308 15.60536,1.41102 48,3.93028 8.8,0.68436 16.5625,1.04451 17.25,0.80033 0.8095,-0.2875 1.25,-2.53303 1.25,-6.37214 0,-5.55116 -0.12302,-5.86236 -1.93426,-4.89301 -3.00492,1.60818 -5.86937,1.23155 -8.17593,-1.07501 -1.71892,-1.71892 -1.99263,-2.84533 -1.4762,-6.07494 0.57581,-3.60092 0.456,-3.90826 -1.30565,-3.34913 -3.04912,0.96775 -3.52396,-1.31908 -0.5548,-2.67191 2.31831,-1.0563 2.85407,-0.95906 4.10872,0.74574 0.81897,1.1128 1.32561,3.61981 1.17177,5.7983 -0.35422,5.01611 1.65694,6.25827 5.92765,3.6611 1.71708,-1.04422 3.10937,-2.70867 3.09398,-3.69878 -0.0433,-2.78182 1.05097,-25.86179 1.64988,-34.80019 0.29481,-4.4 0.98473,-21.15207 1.53315,-37.22683 0.54842,-16.07475 1.18688,-31.14975 1.41881,-33.5 0.23193,-2.35024 0.70543,-12.3174 1.05222,-22.14923 0.3468,-9.83184 0.79245,-21.53184 0.99035,-26 0.1979,-4.46817 0.66187,-16.67394 1.03106,-27.12394 0.36919,-10.45 0.82116,-20.32843 1.00438,-21.95208 0.4825,-4.2758 -0.41473,-4.97071 -2.68743,-2.08143 -1.09608,1.39343 -2.47994,2.53351 -3.07527,2.53351 -0.59727,0 -0.38636,-0.78435 0.47058,-1.75 3.90648,-4.40207 5.75755,-10.77255 6.61547,-22.76722 l 0.85706,-11.98278 0.14223,10.92431 0.14223,10.92432 2.49518,-2.3441 c 2.84853,-2.67605 9.50488,-16.10428 12.48938,-25.1955 2.47563,-7.54116 2.54626,-14.87642 0.26544,-27.5698 -1.27716,-7.10773 -1.72323,-14.60275 -1.65094,-27.73923 0.0884,-16.06811 0.33766,-18.6172 2.3221,-23.75067 1.22267,-3.16287 2.8656,-6.39323 3.65094,-7.17857 0.78535,-0.78535 1.4279,-1.85273 1.4279,-2.37197 0,-1.89613 9.29637,-9.44512 14.64934,-11.89579 5.40034,-2.47236 5.57936,-2.48738 9.9144,-0.83181 5.11273,1.95257 8.11951,5.32349 9.01736,10.10939 0.48218,2.57025 -0.21474,5.4744 -2.91533,12.14856 -4.67244,11.54733 -5.92595,17.23493 -5.76009,26.13552 0.17021,9.13404 1.44988,15.04205 4.7937,22.13176 4.31052,9.13933 8.58241,11.2986 22.14763,11.19475 8.20742,-0.0628 10.61861,-0.53265 19.77683,-3.85354 5.7364,-2.0801 12.55525,-5.3773 15.15299,-7.32711 6.08101,-4.56429 11.35913,-14.39918 14.22748,-26.51052 1.17231,-4.95 3.05209,-12.85666 4.17728,-17.57035 2.66178,-11.15089 6.75485,-17.01287 14.2836,-20.45659 2.97366,-1.36018 5.87345,-2.47306 6.44398,-2.47306 0.57053,0 2.96187,-0.86952 5.31408,-1.93228 2.35221,-1.06275 7.42675,-3.36307 11.27675,-5.11181 16.59328,-7.537 46.48326,-16.69081 57.5,-17.60938 4.125,-0.34395 8.625,-1.1806 10,-1.85923 1.375,-0.67863 5.875,-2.03566 10,-3.01562 4.125,-0.97996 8.91801,-2.38698 10.65113,-3.12672 1.73312,-0.73973 3.60812,-1.34496 4.16667,-1.34496 0.55854,0 1.16553,-0.40861 1.34887,-0.90802 0.18333,-0.49941 2.13333,-1.18499 4.33333,-1.52352 2.2,-0.33852 4.675,-0.81808 5.5,-1.06568 0.825,-0.2476 7.125,-1.14667 14,-1.99794 6.875,-0.85126 14.75,-1.96127 17.5,-2.46668 2.75,-0.50542 14.46181,-0.94576 26.02623,-0.97855 11.56443,-0.0328 24.78111,-0.53043 29.3704,-1.10588 4.58929,-0.57545 8.59749,-0.79295 8.9071,-0.48333 1.40079,1.40079 -2.10332,2.75437 -6.96911,2.69205 -10.08556,-0.12916 -13.78652,1.61286 -7.83462,3.68771 1.65,0.57519 3,1.53333 3,2.12921 0,2.26699 -3.30769,2.15805 -11.26513,-0.37102 -4.52918,-1.43949 -8.55144,-2.61525 -8.93836,-2.6128 -0.79492,0.005 -0.55748,4.65986 1.22094,23.93638 1.5264,16.54472 0.0286,40.99853 -2.97469,48.56807 -3.05073,7.68898 -3.0581,7.79416 -5.95134,85 -0.57711,15.4 -1.24622,32.93724 -1.48692,38.97164 -0.2569,6.44054 -0.0165,11.75859 0.58218,12.87717 0.72084,1.34691 0.68038,2.11532 -0.13803,2.62112 -0.72613,0.44877 -1.04427,2.91817 -0.85325,6.62283 l 0.3046,5.90724 1.36347,-5.95506 c 1.24713,-5.44693 1.48178,-5.79327 2.75,-4.05887 2.70824,3.70373 1.29856,11.83047 -2.81363,16.22054 -1.93852,2.06951 -2.12104,3.93342 -2.93767,30 -0.47891,15.28636 -1.30065,46.69339 -1.82609,69.79339 -0.52544,23.1 -1.17033,45.15 -1.43309,49 -0.26276,3.85 -0.74403,14.73965 -1.06949,24.19923 -0.56392,16.39025 -0.49941,17.24865 1.37163,18.25 1.07986,0.57792 3.14453,1.05077 4.58815,1.05077 1.49519,0 2.35878,0.43035 2.00672,1 -0.33992,0.55 -2.16648,1 -4.05902,1 -1.89254,0 -3.44098,0.39891 -3.44098,0.88646 0,1.44668 2.24383,1.68473 62,6.57761 33.07123,2.7079 52.77686,4.4308 57.5,5.02733 1.65,0.2084 7.275,0.67186 12.5,1.02992 5.225,0.35806 11.075,1.02297 13,1.47757 1.925,0.4546 7.09987,0.88546 11.49972,0.95745 4.39984,0.072 8.89984,0.33159 10,0.57687 4.49426,1.00201 7.91682,1.33334 20.16598,1.9522 13.24184,0.66902 15.29974,0.84849 28.8343,2.5146 4.4,0.54165 10.78321,0.98823 14.1849,0.9924 3.4017,0.004 7.33148,0.44352 8.73285,0.97632 1.40137,0.5328 8.06817,1.22147 14.8151,1.53037 6.74693,0.3089 15.95415,1.00746 20.46048,1.55235 4.50633,0.54489 11.93133,1.1993 16.5,1.45424 4.56867,0.25493 10.55667,0.72554 13.30667,1.04579 2.75,0.32025 7.025,0.74146 9.5,0.93603 2.475,0.19457 7.2,0.60805 10.5,0.91886 3.3,0.3108 8.925,0.78917 12.5,1.06304 3.575,0.27387 10.14403,0.79142 14.59785,1.1501 7.93324,0.6389 8.11082,0.60366 8.73634,-1.73368 0.35118,-1.31221 0.64465,-4.59833 0.65216,-7.3025 0.0198,-7.13301 1.10035,-4.95376 1.37982,2.78284 0.13054,3.61388 0.43906,6.77219 0.68561,7.01847 0.6574,0.65678 30.6654,3.50913 43.5027,4.13506 6.08,0.29646 13.4458,0.91702 16.3684,1.37903 2.9227,0.46202 9.5388,0.92524 14.7024,1.02939 5.1637,0.10415 10.3979,0.39584 11.6316,0.64819 1.2337,0.25235 4.7181,0.72635 7.7431,1.05333 8.9184,0.96402 8.1079,2.34994 -1.0812,1.84878 -9.8493,-0.53716 -20.9647,-1.37279 -25.9188,-1.94852 -4.0184,-0.46698 -10.4437,-0.99011 -31.5,-2.56461 -8.25,-0.6169 -19.5,-1.4932 -25,-1.94732 -5.5,-0.45412 -10.2898,-0.53144 -10.644,-0.17182 -0.35416,0.35962 -0.92023,10.32885 -1.25791,22.15385 -0.33767,11.825 -0.83743,27.575 -1.11059,35 -0.27316,7.425 -0.70726,20.83043 -0.96467,29.78983 -0.25741,8.95941 -0.91666,17.05941 -1.465,18 -0.77756,1.33378 -1.02975,0.71976 -1.14582,-2.78983 -0.0819,-2.475 -0.13696,-4.725 -0.12244,-5 0.0145,-0.275 0.30516,-11.75 0.64589,-25.5 0.34072,-13.75 0.82826,-27.7 1.08341,-31 0.25514,-3.3 0.67094,-13.9632 0.92399,-23.69601 l 0.46008,-17.696 -4.20146,-0.54307 c -2.3108,-0.29869 -9.37646,-1.01123 -15.70146,-1.58342 -6.325,-0.5722 -13.3,-1.25771 -15.5,-1.52336 -2.2,-0.26565 -12.775,-1.16183 -23.5,-1.99151 -31.19729,-2.41341 -31.78123,-2.46317 -52,-4.43123 -5.775,-0.56212 -13.2,-1.22955 -16.5,-1.48317 -3.3,-0.25361 -8.7,-0.70941 -12,-1.01288 -8.65354,-0.7958 -39.87081,-3.59348 -44.80628,-4.01553 -2.30655,-0.19724 -8.46872,-0.66194 -13.69372,-1.03266 -5.225,-0.37072 -10.625,-0.85184 -12,-1.06915 -1.375,-0.21731 -6.55,-0.65174 -11.5,-0.9654 -4.95,-0.31366 -10.05337,-0.78854 -11.34082,-1.0553 -1.28746,-0.26675 -11.18746,-1.12528 -22,-1.90783 -10.81255,-0.78256 -24.83418,-1.89128 -31.15918,-2.46382 -57.38019,-5.19408 -72.95864,-6.40436 -73.64183,-5.72116 -0.35832,0.35831 -1.11011,11.23932 -1.67067,24.18001 -0.92135,21.26996 -0.84322,24.48759 0.81395,33.51939 1.00822,5.49497 1.53285,10.29113 1.16584,10.65814 -0.36701,0.36701 -0.66729,-0.30771 -0.66729,-1.49937 0,-1.19167 -0.45,-2.16667 -1,-2.16667 -0.55,0 -1,1.31968 -1,2.93261 0,3.36574 0.84783,3.78044 10.21737,4.99762 l 6.28263,0.81616 -8.18873,0.12681 -8.18872,0.1268 -0.52459,4.25 c -0.51121,4.14168 -1.12017,22.08927 -2.09516,61.75 -0.73203,29.77774 -1.49853,53.42985 -2.09513,64.65019 -0.29683,5.5826 -0.14109,10.39653 0.3461,10.69763 1.004,0.62051 16.95502,2.26774 31.47827,3.2507 8.50711,0.57578 9.8118,0.45081 10.3658,-0.99289 0.53239,-1.38738 -1.05386,-9.67922 -3.24848,-16.98086 -0.34297,-1.1411 -0.16188,-1.62694 0.46257,-1.241 0.56441,0.34882 1.52882,2.99267 2.14314,5.87523 2.46485,11.56579 2.79429,12.24859 6.56798,13.61318 3.66227,1.32429 11.70092,2.23553 35.97695,4.07825 7.7,0.58448 16.025,1.28682 18.5,1.56075 2.475,0.27393 11.475,0.94068 20,1.48167 8.525,0.54099 16.4,1.15956 17.5,1.3746 1.1,0.21504 7.4,0.71983 14,1.12175 6.6,0.40193 12.85474,0.89339 13.89942,1.09215 1.04469,0.19875 6.66969,0.60822 12.5,0.90994 5.83032,0.30171 12.62558,0.74402 15.10058,0.98292 2.475,0.23889 7.875,0.70612 12,1.03828 10.83371,0.87236 15.27493,1.53664 16.98872,2.541 1.10041,0.6449 0.62771,0.89396 -1.73872,0.9161 -1.94166,0.0182 -3.25616,-0.4728 -3.26531,-1.21959 -0.0104,-0.84782 -0.2517,-0.90209 -0.75,-0.16867 -0.74856,1.10174 -3.9162,1.09685 -17.23469,-0.0267 -13.86804,-1.16985 -18,-1.25949 -18,-0.39052 0,0.8819 -3.73409,0.45424 -10,-1.14528 -4.36006,-1.11301 -11.23455,-1.59039 -12.52787,-0.86998 -1.12419,0.62621 -7.84479,0.31432 -11.41045,-0.52954 -1.34108,-0.31738 -8.26473,-0.82847 -15.38588,-1.13575 -7.12116,-0.30727 -13.72969,-0.97726 -14.68562,-1.48886 -0.95593,-0.51161 -3.48229,-0.75202 -5.61412,-0.53427 -5.59802,0.57181 -18.42111,-0.57857 -17.7922,-1.59616 0.81309,-1.31562 -1.01731,-1.03087 -2.4255,0.37732 -0.98886,0.98886 -1.40499,0.97734 -2.04397,-0.0566 -0.47927,-0.77547 -2.77777,-1.30347 -5.70836,-1.3113 -15.34496,-0.041 -22.72012,-0.68917 -25.15603,-2.21093 -0.6875,-0.42949 -1.25,-0.38134 -1.25,0.107 0,0.48834 -2.5875,0.98588 -5.75,1.10565 -4.21155,0.1595 -6.15133,0.71429 -7.25,2.07355 -1.13597,1.40542 -2.04604,1.64461 -3.75,0.98559 -1.2375,-0.47861 -2.25,-1.34584 -2.25,-1.92718 0,-2.05581 -12.62213,-5.64108 -13.24813,-3.76308 -0.18293,0.5488 -2.01858,0.25318 -4.27048,-0.68772 -3.12322,-1.30497 -5.83568,-1.52577 -12.96368,-1.05529 -4.95773,0.32723 -9.42523,1.00614 -9.92778,1.50869 -0.50254,0.50254 -1.25994,7.56836 -1.68309,15.70182 -0.42316,8.13346 -1.04608,17.26311 -1.38426,20.28811 -0.33819,3.025 -0.79285,7.075 -1.01035,9 -0.2175,1.925 -0.66503,19.25 -0.9945,38.5 -1.41354,82.5882 -3.16031,133.1611 -4.63073,134.0698 -0.48785,0.3015 -0.887,-0.3518 -0.887,-1.4518 z m 5.43166,-229.82225 c 0.6573,-6.93788 1.53455,-31.91738 2.06485,-58.79575 0.92431,-46.84866 2.54916,-88.89876 3.45837,-89.5 1.50988,-0.99846 1.76704,-10.14038 0.45702,-16.24651 -1.68179,-7.83896 -1.6827,-8.87012 -0.005,-5.84256 1.18031,2.13018 1.42047,0.60581 2.06237,-13.09041 0.64079,-13.67281 0.51033,-16.10996 -1.10603,-20.66093 C 630.76272,675.1848 630.56222,675 626.9318,675 c -2.0709,0 -3.74947,0.3375 -3.73015,0.75 0.0193,0.4125 0.67851,3.675 1.46487,7.25 1.47637,6.712 1.89365,11.85275 0.73053,9 -0.33637,-0.825 -1.53834,-5.1 -2.67106,-9.5 l -2.05947,-8 -3.75804,-0.31084 c -2.68953,-0.22247 -3.92833,0.13294 -4.35699,1.25 -0.86332,2.24979 -3.38497,1.92264 -3.38497,-0.43916 0,-1.48751 -0.70467,-2.02922 -2.75,-2.11402 -3.39404,-0.14072 -7.65599,-0.59062 -12.25,-1.29311 -1.925,-0.29437 -7.325,-0.79255 -12,-1.10708 -4.675,-0.31453 -13,-0.99145 -18.5,-1.50426 -5.5,-0.51281 -14.22038,-1.21675 -19.37862,-1.56432 -5.15825,-0.34756 -10.10825,-0.75718 -11,-0.91026 -0.89176,-0.15308 -5.89638,-0.58115 -11.12138,-0.95127 -5.225,-0.37011 -10.85,-0.84215 -12.5,-1.04897 -1.65,-0.20683 -6.25366,-0.68772 -10.23036,-1.06865 -3.97669,-0.38094 -7.04337,-0.99516 -6.81482,-1.36495 0.22854,-0.36979 7.08604,-0.13163 15.23888,0.52925 8.15285,0.66087 18.19453,1.47516 22.31483,1.80954 4.12031,0.33437 9.96647,0.82 12.99147,1.07917 14.72702,1.26175 18.92842,1.59482 38,3.0125 11.275,0.83813 22.17972,1.78093 24.23272,2.09512 3.29824,0.50477 3.86815,0.27403 4.89623,-1.98235 1.28627,-2.82306 2.87105,-2.5787 2.87105,0.44268 0,1.06754 0.1125,1.95531 0.25,1.97283 0.1375,0.0175 4.4125,0.30125 9.5,0.63053 l 9.25,0.5987 0.0445,-10.38054 c 0.0245,-5.7093 0.2161,-12.63054 0.42585,-15.38054 0.20975,-2.75 0.52291,-10.625 0.6959,-17.5 0.26139,-10.38756 0.0125,-13.13373 -1.47276,-16.25 -0.98302,-2.0625 -2.41087,-3.75 -3.173,-3.75 -0.76213,0 -1.6957,-0.97674 -2.0746,-2.17054 -0.37889,-1.1938 -2.13756,-4.4563 -3.90814,-7.25 -5.38781,-8.50109 -16.80773,-33.87512 -18.26335,-40.57946 -0.29853,-1.375 -1.00738,-3.08645 -1.57521,-3.80322 -0.56783,-0.71677 -1.38141,-3.19177 -1.80796,-5.5 -0.42655,-2.30823 -1.26395,-6.44678 -1.86088,-9.19678 -0.97096,-4.47306 -2.3458,-18.76959 -2.308,-24 0.0199,-2.75501 4.29992,-21.60027 5.39086,-23.73643 0.48773,-0.95504 0.88679,-2.6378 0.88679,-3.73948 0,-2.445 5.05033,-15.39339 6.18496,-15.85742 0.44827,-0.18334 0.81504,-0.91574 0.81504,-1.62756 0,-0.71182 0.701,-1.876 1.55778,-2.58706 0.85677,-0.71106 2.15336,-2.67866 2.8813,-4.37244 2.07346,-4.82453 6.72296,-9.30075 11.29807,-10.87701 2.3039,-0.79376 4.32678,-1.30533 4.49528,-1.13683 0.32394,0.32394 -0.96604,17.98627 -1.83934,25.18423 -0.75784,6.24634 -2.5944,5.3189 -1.98024,-1 0.28064,-2.8875 0.79899,-8.82321 1.15187,-13.19047 l 0.64162,-7.94048 -2.35317,1.53153 c -3.46597,2.25578 -12.23143,14.31668 -16.28274,22.40435 -5.02484,10.03112 -9.63937,33.96836 -8.85714,45.94507 0.50185,7.68376 2.82646,19.69975 5.9005,30.5 4.16983,14.65012 4.63806,15.57628 17.31005,34.23986 2.51689,3.70692 5.56445,8.41931 6.77236,10.47197 1.85298,3.14886 2.30457,3.44974 2.88957,1.92527 1.43642,-3.74326 -0.47195,-16.25094 -3.47385,-22.76803 -2.56951,-5.5784 -3.97099,-9.52571 -7.05443,-19.86907 -0.59846,-2.00753 -0.88238,-1.31807 -1.4413,3.5 -1.53914,13.2679 -1.84071,14.67548 -2.91419,13.602 -0.73114,-0.73114 -0.64749,-4.91437 0.27646,-13.82518 0.72865,-7.02725 1.23226,-19.75182 1.11915,-28.27682 -0.23169,-17.4608 0.4829,-20.98045 8.09098,-39.85176 2.9773,-7.38499 5.30143,-11.52324 7.89479,-14.05716 2.7922,-2.72819 3.82011,-4.67237 4.27785,-8.09108 1.53606,-11.47236 2.72481,-126.24729 1.3221,-127.65 -0.692,-0.69201 -6.2635,7.6388 -7.12254,10.65 -1.11331,3.90252 -6.69757,14.23306 -9.18949,17 -7.01907,7.7937 -14.10533,16.11317 -15.71957,18.45521 -1.01655,1.47487 -2.06655,2.4633 -2.33334,2.19652 -0.26678,-0.26679 -1.23506,0.16017 -2.15172,0.94879 -4.60638,3.96294 -9.01196,7.11994 -12.16667,8.71853 -1.925,0.97547 -5.975,3.07421 -9,4.66388 -3.025,1.58967 -6.10402,2.91883 -6.84227,2.95369 -0.73825,0.0349 -2.48644,0.96338 -3.88486,2.06338 -1.39842,1.1 -3.29771,2 -4.22064,2 -0.92293,0 -2.99974,1.39769 -4.61514,3.10597 -2.83962,3.00291 -13.87512,10.88708 -15.2578,10.90075 -0.94021,0.009 -10.67205,10.32551 -16.53517,17.52807 -6.73181,8.2697 -12.99716,14.76156 -22.24222,23.04633 C 502.49135,476.81922 492.72384,484 490.95544,484 c -0.54267,0 -2.40467,0.61388 -4.13779,1.36418 -8.5102,3.68422 -11.83893,4.54486 -20.15113,5.21001 -13.94803,1.11613 -23.53491,1.34465 -29,0.69126 l -5,-0.59778 6.2973,-1.31333 c 5.05426,-1.05408 6.82947,-1.9589 8.99326,-4.58383 4.06204,-4.92772 11.4948,-12.48647 10.54391,-10.72262 -0.45896,0.85133 -2.82808,4.14965 -5.26471,7.32959 -4.81696,6.2864 -4.54766,7.72943 1.31296,7.0355 1.7145,-0.20301 7.39228,-0.73309 12.61728,-1.17796 7.56173,-0.64383 10.86868,-1.46441 16.2083,-4.02194 3.68956,-1.76719 7.12196,-3.21308 7.62755,-3.21308 0.5056,0 1.53025,-0.7362 2.27703,-1.63601 0.74677,-0.8998 2.93937,-2.63813 4.87244,-3.86296 1.93307,-1.22483 5.4277,-4.08863 7.76582,-6.364 2.33813,-2.27536 4.64044,-4.13703 5.11623,-4.13703 0.47579,0 2.51246,-2.11448 4.52592,-4.69885 3.25654,-4.17991 7.45796,-8.91696 23.55059,-26.55302 2.44413,-2.67855 7.16913,-6.86081 10.5,-9.29391 3.33087,-2.4331 7.85612,-5.73887 10.05612,-7.34616 2.2,-1.60728 10.075,-5.8484 17.5,-9.42472 21.35588,-10.28626 24.57615,-12.6736 38.34822,-28.42946 6.52529,-7.46522 14.01523,-18.91018 16.1997,-24.75388 1.028,-2.75 3.05551,-6.89062 4.50558,-9.20137 2.34887,-3.74302 2.70938,-5.56469 3.30457,-16.69823 0.36745,-6.87328 1.11676,-13.53267 1.66515,-14.79864 0.71089,-1.6411 0.83243,0.28147 0.42345,6.69824 -0.31548,4.95 -0.80038,9.7875 -1.07753,10.75 -0.51338,1.78286 1.07238,2.46265 2.05099,0.87923 0.29599,-0.47892 0.7663,-9.14142 1.04513,-19.25 1.68188,-60.9743 1.67688,-60.08335 0.33274,-59.30395 -0.7139,0.41396 -2.56141,1.62796 -4.10558,2.69778 -3.87796,2.6867 -4.48824,1.45909 -1.33187,-2.67912 2.62469,-3.44114 3.32206,-5.53123 1.88945,-5.66284 -0.4125,-0.0379 -2.1,-0.25285 -3.75,-0.47767 -1.65,-0.22482 -6.375,0.0577 -10.5,0.62783 -4.125,0.57013 -8.85,1.06138 -10.5,1.09165 -1.65,0.0303 -6.375,0.51813 -10.5,1.08411 -4.125,0.56599 -8.58937,0.96337 -9.92081,0.88309 -2.65265,-0.15996 -14.39381,3.49414 -17.57919,5.47101 -1.1,0.68267 -5.53733,1.96365 -9.86073,2.84663 -4.3234,0.88297 -9.21639,2.30645 -10.87331,3.16328 -1.65692,0.85682 -6.89459,1.93271 -11.63927,2.39085 -4.74468,0.45815 -11.32669,1.58537 -14.62669,2.50495 -3.3,0.91958 -7.90563,2.06461 -10.23473,2.54451 -2.32911,0.4799 -5.25411,1.52579 -6.5,2.32421 -1.2459,0.79841 -4.29027,1.97043 -6.76527,2.60449 -4.11571,1.05438 -10.89357,3.75976 -15.23643,6.0816 -0.95504,0.5106 -2.55511,0.92836 -3.55572,0.92836 -1.00061,0 -3.26809,1.06889 -5.03885,2.37532 -1.77076,1.30642 -6.02069,3.15286 -9.44428,4.10319 -7.18029,1.99312 -17.72472,7.99797 -17.72472,10.09389 0,0.78518 -0.3982,1.4276 -0.8849,1.4276 -1.42158,0 -3.70829,7.91262 -8.23636,28.5 -0.60484,2.75 -1.65231,5.9 -2.3277,7 -0.67539,1.1 -2.06716,4.25 -3.09282,7 -2.38332,6.39016 -9.33862,13.46103 -16.45822,16.73168 -14.77749,6.78858 -14.95864,6.83945 -26.57561,7.46202 -16.75436,0.89789 -22.97072,-1.88299 -28.37546,-12.6937 -3.50718,-7.01514 -4.75019,-12.29372 -5.53384,-23.5 -0.67462,-9.64729 0.21012,-13.99827 5.87036,-28.86906 4.25441,-11.17737 3.22254,-15.33732 -4.04624,-16.31227 -5.25314,-0.70459 -11.31817,2.68957 -18.1361,10.14948 -6.43635,7.04239 -8.79309,13.86901 -9.67735,28.03185 -0.94108,15.07265 -0.69002,21.79938 1.11968,30 0.84961,3.85 1.78472,9.38713 2.07802,12.30473 0.61772,6.14473 -1.22733,18.94355 -3.47771,24.12433 -3.89933,8.97696 -7.85825,16.03115 -12.02806,21.43214 l -4.52511,5.86119 -0.7552,14.13881 c -0.41536,7.77634 -1.02562,21.5638 -1.35615,30.6388 -1.05069,28.84788 -2.59009,65.85261 -3.59841,86.5 -0.53719,11 -1.20933,26.975 -1.49366,35.5 -0.28432,8.525 -0.75339,21.125 -1.04237,28 -0.54132,12.87798 -0.71209,22.519 -0.52252,29.5 l 0.10863,4 5.94005,-6.5 c 3.26702,-3.575 5.95962,-6.21664 5.98355,-5.87032 0.0239,0.34632 -1.9815,3.23748 -4.4565,6.42479 -2.475,3.18731 -4.5,6.15788 -4.5,6.60127 0,0.44339 1.0125,1.032 2.25,1.30804 2.01089,0.44855 37.87782,3.57495 76.25,6.64645 7.7,0.61635 17.6,1.68876 22,2.38314 l 8,1.2625 -6,0.11386 c -3.3,0.0626 -9.825,-0.31103 -14.5,-0.83033 -4.675,-0.51931 -12.325,-1.20144 -17,-1.51585 -9.55619,-0.6427 -29.17796,-2.31322 -36,-3.06491 -6.15667,-0.67838 -26.49229,-1.90884 -32,-1.93625 -5.05008,-0.0251 -5.09944,0.10397 -3.71941,9.72761 0.74865,5.2207 -0.30775,6.31971 -1.92245,2 -0.88765,-2.37468 -1.11822,-1.58991 -1.68938,5.75 -0.3638,4.675 -1.12334,22.45 -1.68788,39.5 -1.08227,32.68595 -2.64327,73.23151 -3.46499,90 -1.28998,26.3239 -2.76626,68.58296 -2.40838,68.94084 0.37508,0.37509 14.33328,1.78278 30.39249,3.06509 3.85,0.30742 11.725,0.94323 17.5,1.4129 5.775,0.46968 10.79065,0.68248 11.14589,0.47289 0.35524,-0.20959 0.28959,-1.96086 -0.14589,-3.89172 -0.43548,-1.93086 -0.41121,-3.74586 0.0539,-4.03333 0.92831,-0.57373 2.93703,2.62625 2.96137,4.71759 0.0393,3.37748 1.81164,3.72323 29.5088,5.75663 15.38674,1.12962 32.92589,2.49644 38.97589,3.03736 14.51784,1.29803 43.96374,3.79785 53.99866,4.58425 4.39926,0.34475 8.26109,0.78902 8.58185,0.98726 0.32076,0.19824 4.59637,0.62174 9.50135,0.94111 4.90497,0.31937 11.16814,0.77239 13.91814,1.00671 2.75,0.23432 8.15,0.67743 12,0.98469 3.85,0.30726 9.475,0.77734 12.5,1.04464 3.025,0.26729 7.75,0.6831 10.5,0.92403 2.75,0.24093 9.275,0.70448 14.5,1.03011 5.225,0.32562 12.425,0.84585 16,1.15605 3.575,0.31021 8.63891,0.67018 11.25314,0.79993 2.61423,0.12976 4.99986,0.48263 5.30139,0.78417 0.30154,0.30153 5.42739,0.62071 11.39077,0.70927 l 10.84253,0.16103 0.64383,-6.79575 z M 360.84852,852.29448 c -1.29452,-2.09457 -4.39037,-16.35668 -3.64986,-16.81434 1.4344,-0.88651 2.43177,1.77399 3.56879,9.51986 1.08462,7.38887 1.10193,8.94627 0.0811,7.29448 z m -11.58284,-44.10076 c -2.25175,-9.59125 -2.63365,-12.784 -1.21932,-10.19372 1.1605,2.12539 4.41967,18.03382 3.81789,18.6356 -0.27467,0.27467 -1.44402,-3.52418 -2.59857,-8.44188 z m -11.00584,-46.44827 c -0.52945,-1.39256 -1.27162,-4.26747 -1.64927,-6.38869 -1.02669,-5.76686 1.11975,-2.94351 2.37997,3.13053 1.14289,5.50857 0.7652,7.19268 -0.7307,3.25816 z M 592.66652,761 c -0.37968,-1.72866 -0.46532,-3.36801 -0.19032,-3.64301 0.275,-0.275 0.81064,0.91435 1.19032,2.64301 0.37968,1.72866 0.46532,3.36801 0.19032,3.64301 -0.275,0.275 -0.81064,-0.91435 -1.19032,-2.64301 z M 330.37978,727.74849 c -2.83062,-5.66706 -5.41689,-18.39053 -3.29264,-16.19849 0.88162,0.90975 5.18152,17.68119 4.66546,18.19725 -0.13735,0.13736 -0.75512,-0.76209 -1.37282,-1.99876 z m -10.10345,-39.92246 c -0.72994,-2.57069 -1.11433,-5.27069 -0.85421,-6 0.60467,-1.69536 2.9756,6.76581 2.52171,8.99928 -0.18719,0.92108 -0.93756,-0.4286 -1.6675,-2.99928 z M 483.66652,662 c -2.67786,-0.6814 -2.48995,-0.77607 1.75,-0.88169 2.6125,-0.0651 4.75,0.33169 4.75,0.88169 0,1.12552 -2.07676,1.12552 -6.5,0 z m -6.99292,-0.98855 c -0.35034,-0.56686 0.0511,-0.7345 0.94098,-0.39301 1.73242,0.66479 2.04939,1.38156 0.61096,1.38156 -0.51754,0 -1.21592,-0.44485 -1.55194,-0.98855 z m -5.75708,-0.67373 c 0.6875,-0.27741 1.8125,-0.27741 2.5,0 0.6875,0.27741 0.125,0.50439 -1.25,0.50439 -1.375,0 -1.9375,-0.22698 -1.25,-0.50439 z M 611.17521,657.45 c 0.0149,-6.76573 1.2239,-14.45 2.27349,-14.45 1.34316,0 0.24739,15.87043 -1.19538,17.3132 -0.7824,0.7824 -1.08437,-0.0195 -1.07811,-2.8632 z m -185.55617,-0.52683 c -0.44415,-0.71865 0.39913,-0.90903 2.53527,-0.57237 4.33495,0.68319 5.06004,1.6492 1.23789,1.6492 -1.7092,0 -3.40713,-0.48457 -3.77316,-1.07683 z M 569.20548,642.81144 C 567.0663,640.5153 566.44673,637 568.18122,637 c 0.99859,0 4.97427,5.78607 4.98156,7.25 0.007,1.43915 -1.93359,0.73364 -3.9573,-1.43856 z m 39.03999,-8.22811 c -0.0434,-1.05416 0.19293,-1.64479 0.52522,-1.3125 0.33229,0.33229 0.36781,1.1948 0.0789,1.91667 -0.31922,0.79773 -0.55618,0.56078 -0.60416,-0.60417 z m -6.98501,-0.97014 c -0.81795,-0.98557 -0.86038,-1.6395 -0.13544,-2.08754 0.5806,-0.35883 1.33304,0.0705 1.6721,0.9541 0.84418,2.19989 -0.0836,2.88424 -1.53666,1.13344 z m 13.92137,-22.19652 c 0.0151,-8.80668 0.85491,-12.23294 2.71636,-11.08251 0.90927,0.56197 -1.15277,18.42027 -2.2541,19.5216 -0.26266,0.26267 -0.47068,-3.53493 -0.46226,-8.43909 z m -277.876,6.08702 C 339.54563,614.21761 354.30126,597 354.87766,597 c 0.6972,0 -0.94769,2.11876 -7.67754,9.88931 -7.71912,8.91279 -11.49663,12.96522 -9.89429,10.61438 z M 601.5116,607.45687 c -0.32569,-0.84872 -0.3415,-1.79378 -0.0352,-2.10013 0.87571,-0.87571 2.69007,0.60965 2.69007,2.20228 0,1.91885 -1.90756,1.84546 -2.65492,-0.10215 z M 365.68441,584 c 1.19408,-2.07866 14.59349,-18 15.1488,-18 0.77603,0 -0.80238,2.27665 -6.27337,9.0485 -5.29772,6.55739 -10.53376,11.8383 -8.87543,8.9515 z m 25.58343,-30.75 c 3.41499,-4.4393 18.25119,-21.3475 19.26368,-21.95402 1.39725,-0.83699 1.46813,-0.93078 -9.79054,12.95402 -4.79423,5.9125 -9.18986,10.75 -9.76806,10.75 -0.6227,0 -0.50246,-0.71345 0.29492,-1.75 z m 27.88757,-33.22923 c 0.58259,-1.08858 3.56268,-4.57608 6.62242,-7.75 L 431.341,506.5 l -4.83724,6.36966 c -6.64788,8.75389 -6.9667,9.13034 -7.73267,9.13034 -0.37121,0 -0.19827,-0.89066 0.38432,-1.97923 z m 48.01111,-58.50731 c 0,-1.21516 15.35417,-18.51346 16.43276,-18.51346 1.02414,0 -3.02494,5.58123 -9.24987,12.75 -4.74317,5.46233 -7.18289,7.41994 -7.18289,5.76346 z M 631.02043,435.5 c -0.82866,-1.34353 1.42911,-28.11635 2.45782,-29.14506 0.4462,-0.4462 0.4911,3.9039 0.0998,9.66689 -0.96201,14.16794 -1.81696,20.67902 -2.55761,19.47817 z m -135.98004,-7.25 c 1.51209,-2.80245 12.03143,-13.856 12.08105,-12.69457 0.0617,1.44371 -10.74983,14.44457 -12.0121,14.44457 -0.65798,0 -0.68216,-0.61352 -0.0689,-1.75 z m 20.07495,-24.5 c 4.04464,-5.50627 10.16811,-11.9664 10.77117,-11.36334 0.41699,0.41698 -7.73954,10.77575 -11.24534,14.28155 -2.78579,2.78579 -2.52167,1.16025 0.47417,-2.91821 z m 19.05118,-21.39996 c 0,-1.28436 9.95901,-13.99456 15.94517,-20.35004 6.84761,-7.27009 2.62156,-0.15666 -5.94095,10 -8.89831,10.55498 -10.00422,11.69912 -10.00422,10.35004 z M 635.67689,374.5 c 0.26148,-3.85 0.47861,-8.4625 0.48252,-10.25 0.004,-1.7875 0.50278,-3.25 1.1086,-3.25 1.20261,0 0.47064,10.72007 -1.16156,17.01168 -0.69815,2.69111 -0.79631,1.88857 -0.42956,-3.51168 z m -74.50802,-25.12756 c 10e-4,-0.47984 1.40164,-2.44744 3.11189,-4.37244 l 3.10955,-3.5 -1.8619,3.32688 c -1.96684,3.51441 -4.36349,6.01332 -4.35954,4.54556 z m 17.99765,-22.416 c 0,-0.57396 1.60249,-2.77554 3.56108,-4.89241 1.9586,-2.11686 4.24533,-4.68476 5.08164,-5.70643 3.02159,-3.69135 0.61754,1.27551 -3.16725,6.54366 -3.49057,4.85862 -5.47547,6.32865 -5.47547,4.05518 z M 642.32441,304 c 0,-1.375 0.22698,-1.9375 0.50439,-1.25 0.27741,0.6875 0.27741,1.8125 0,2.5 -0.27741,0.6875 -0.50439,0.125 -0.50439,-1.25 z m -40.53416,-3.7998 c -0.61792,-0.99981 3.86585,-7.73104 6.70955,-10.07264 1.42375,-1.17238 1.66672,-1.15559 1.66672,0.11514 0,2.59468 -7.45184,11.45325 -8.37627,9.9575 z M 619.18709,277.25 c 0.0113,-0.4125 2.01902,-3 4.46158,-5.75 5.33612,-6.00778 6.21383,-3.84137 0.93993,2.32 -3.31686,3.87501 -5.45088,5.23012 -5.40151,3.43 z M 631.87677,573 c -0.28766,-1.1 -0.11514,-2 0.38337,-2 0.49851,0 0.9349,0.5625 0.96977,1.25 0.0349,0.6875 0.46067,0.26368 0.94625,-0.94182 0.48557,-1.20549 0.97512,-7.28049 1.08787,-13.5 0.11276,-6.2195 0.57597,-14.23318 1.02937,-17.80818 0.45339,-3.575 1.00567,-9.425 1.22728,-13 0.22161,-3.575 0.89368,-9.875 1.4935,-14 0.59983,-4.125 1.10448,-12.5625 1.12146,-18.75 0.0253,-9.22729 -0.23249,-11.25 -1.43394,-11.25 -0.80565,0 -1.94648,0.9 -2.53518,2 -0.5887,1.1 -0.75979,2 -0.3802,2 0.3796,0 -0.0225,0.7875 -0.89355,1.75 -0.87105,0.9625 -1.66242,2.2 -1.75859,2.75 -0.0962,0.55 -0.83356,2.27378 -1.63863,3.83063 -2.38115,4.60463 -5.32903,14.67885 -5.32903,18.21167 0,1.80497 -0.65879,6.72494 -1.46398,10.93327 -1.1184,5.8454 -1.23869,9.46587 -0.50957,15.33797 0.52491,4.22755 1.10019,9.05681 1.2784,10.73169 0.1782,1.67487 0.65907,3.58737 1.06859,4.25 0.40953,0.66262 0.46648,1.65477 0.12656,2.20477 -0.33992,0.55 0.0749,1 0.92193,1 2.04801,0 3.14846,4.60779 1.55811,6.52405 -1.00089,1.20599 -0.90904,2.37333 0.47104,5.98702 1.73208,4.5354 3.22422,6.17929 2.25917,2.48893 z m 17.71299,-276.61469 c 1.05948,-5.54038 1.45858,-19.64999 0.7039,-24.88531 l -0.86491,-6 -0.13566,5.5 c -0.0746,3.025 -0.42122,10.675 -0.77023,17 -0.34901,6.325 -0.33285,11.22339 0.0359,10.88531 0.36876,-0.33808 0.83271,-1.46308 1.03099,-2.5 z m 436.57514,811.11279 c -1.1152,-1.3438 -1.0585,-1.8666 0.3563,-3.2813 2.0396,-2.0397 5.1453,-0.5958 5.1453,2.3922 0,2.4335 -3.7208,3.0348 -5.5016,0.8891 z m 4.0876,-21.6014 c -0.1492,-6.2539 1.1598,-15.8967 2.1579,-15.8967 1.0386,0 0.1151,12.2596 -1.2685,16.8399 -0.7571,2.5065 -0.8085,2.452 -0.8894,-0.9432 z m 71.9451,-35.8656 c -1.7832,-1.7832 -1.9946,-2.8253 -1.4327,-7.0615 0.6456,-4.8664 0.6047,-4.9696 -1.9696,-4.9696 -2.8989,0 -3.5292,-1.4405 -1.047,-2.393 6.0193,-2.3098 8.9377,0.4191 8.0009,7.4814 -0.6095,4.5945 -0.4757,5.1268 1.4129,5.6207 1.1474,0.3001 1.92,1.0508 1.717,1.6682 -0.6583,2.0015 -4.5347,1.8006 -6.6815,-0.3462 z m -950.47221,-3.5629 c -1.06762,-0.8075 -1.46022,-1.4682 -0.87244,-1.4682 0.58777,0 1.62888,0.675 2.31357,1.5 1.5572,1.8763 1.06734,1.8655 -1.44113,-0.032 z m 926.05651,-8.1393 c -0.5168,-7.3513 -0.3743,-9.8599 0.594,-10.4583 2.3785,-1.47 3.2899,1.2056 3.6371,10.6777 0.3234,8.821 0.2165,9.4517 -1.6024,9.4517 -1.7507,0 -2.018,-0.9837 -2.6287,-9.6711 z m 11.6159,8.4211 c -1.6949,-2.0901 -4.3733,-10.9515 -4.9116,-16.25 -0.4259,-4.1917 -0.1546,-5.3729 1.6778,-7.3065 3.1081,-3.2799 8.0068,-2.7036 9.8492,1.1588 1.2076,2.5317 1.1125,3.4872 -0.8462,8.5 -2.4515,6.2742 -2.5708,7.2226 -1.497,11.8977 0.6508,2.8332 0.4897,3.25 -1.2561,3.25 -1.1014,0 -2.4586,-0.5625 -3.0161,-1.25 z m 2.2633,-17.7256 c 0.7051,-3.21 -0.062,-5.4096 -1.5637,-4.4817 -1.2076,0.7463 -1.2169,7.4573 -0.01,7.4573 0.5063,0 1.2147,-1.339 1.5741,-2.9756 z m -57.4946,8.6423 c 0,-3.2369 0.4436,-5.6667 1.0344,-5.6667 0.6663,0 0.7961,1.8684 0.3646,5.25 -0.9052,7.0936 -1.399,7.2407 -1.399,0.4167 z m 20.2292,4.1625 c -1.4762,-1.4762 -1.6353,-4.8292 -0.2292,-4.8292 0.55,0 1,-1.0984 1,-2.441 0,-1.3425 0.4866,-2.7417 1.0814,-3.1093 0.6661,-0.4117 0.9541,0.083 0.75,1.2874 -0.1822,1.0756 0.2657,2.675 0.9954,3.5542 2.8842,3.4753 -0.4806,8.6549 -3.5976,5.5379 z m 2.8497,-26.2459 c -0.043,-1.0541 0.193,-1.6448 0.5253,-1.3125 0.3323,0.3323 0.3678,1.1948 0.079,1.9167 -0.3192,0.7977 -0.5562,0.5608 -0.6042,-0.6042 z M 1097.3927,1003 c -0.011,-5.22257 1.3647,-17.21967 1.7195,-15 0.3966,2.4809 -0.034,9.51297 -0.8981,14.6596 l -0.8124,4.8404 -0.01,-4.5 z M 392.16652,989.11803 c 0,-0.55 0.45,-1.27811 1,-1.61803 0.55,-0.33992 1,-0.16803 1,0.38197 0,0.55 -0.45,1.27811 -1,1.61803 -0.55,0.33992 -1,0.16803 -1,-0.38197 z M 1120.4213,982.5 c 0.1469,-3.59325 0.6463,-5.79944 1.2452,-5.5 1.2001,0.60005 0.8225,7.64918 -0.5304,9.9017 -0.6699,1.11544 -0.8859,-0.21436 -0.7148,-4.4017 z M 1100.7037,964 c 0.319,-5.775 1.0604,-10.95 1.6475,-11.5 1.4046,-1.31591 0.3971,15.99542 -1.1348,19.5 -0.8384,1.91799 -0.9578,0.0556 -0.5127,-8 z m -526.53718,8 c 0,-0.55 0.675,-1 1.5,-1 0.825,0 1.5,0.45 1.5,1 0,0.55 -0.675,1 -1.5,1 -0.825,0 -1.5,-0.45 -1.5,-1 z M 1449.4113,960.45891 C 1446.8892,958.6924 1446.4649,957 1448.5441,957 c 1.7054,0 3.9344,2.56395 3.4617,3.98199 -0.2161,0.64835 -1.2074,0.4485 -2.5945,-0.52308 z m -14.146,-0.54601 c -1.3207,-0.52819 -3.4865,-1.05015 -4.8129,-1.15993 -2.512,-0.2079 -5.6021,-2.75297 -3.3426,-2.75297 0.6535,0 2.0874,0.48123 3.1864,1.06939 1.4179,0.75887 2.3721,0.75903 3.286,5.6e-4 1.3277,-1.10188 9.6865,-0.74283 11.7018,0.50264 0.6879,0.42515 -0.1421,1.23887 -2.1059,2.06457 -3.7233,1.56553 -4.6105,1.59645 -7.9128,0.27574 z m -20.0988,-1.61147 c -1.925,-0.20818 -4.175,-0.64629 -5,-0.97359 -0.825,-0.3273 -2.85,-0.69865 -4.5,-0.82522 -1.65,-0.12657 -3,-0.32488 -3,-0.44069 0,-0.24553 -3.9089,-1.0292 -7.5,-1.50362 -3.2601,-0.43068 -3.214,-0.40296 -2.5236,-1.5201 0.3729,-0.60337 1.5033,-0.61622 3.0334,-0.0345 1.3414,0.51001 5.3895,1.00847 8.9957,1.10768 3.6062,0.0992 6.7517,0.49582 6.99,0.88136 0.2383,0.38554 2.4416,0.39619 4.8962,0.0237 4.9683,-0.75401 7.8179,0.27368 6.9598,2.51001 -0.5566,1.45029 -1.3909,1.52771 -8.3515,0.77498 z m -291.7037,-6.92231 c -0.1419,-3.1449 0.1615,-4.39295 1,-4.11292 0.7191,0.24016 1.0691,1.77724 0.8694,3.81791 -0.5086,5.19788 -1.6401,5.37644 -1.8694,0.29501 z m 259.5371,3.55571 c -0.9166,-0.51745 -2.4916,-0.82697 -3.5,-0.68782 -1.0084,0.13914 -1.8334,-0.19701 -1.8334,-0.74701 0,-1.03571 6.1298,-1.20356 7.1379,-0.19545 1.2581,1.25809 -0.1732,2.55119 -1.8045,1.63028 z m 4.8605,0.42569 c -0.3518,-0.35171 -0.3957,-1.03405 -0.098,-1.51631 0.6392,-1.03422 2.4037,-0.14245 2.4037,1.21481 0,1.07509 -1.3554,1.25229 -2.3061,0.3015 z m -16.0272,-1.02719 c -1.2679,-1.26791 -0.6645,-2.57641 0.6753,-1.46445 0.7381,0.61257 1.6381,0.81767 2,0.45578 0.3619,-0.3619 0.658,-0.13299 0.658,0.50867 0,1.25638 -2.2408,1.5925 -3.3333,0.5 z m -18.867,-2.28249 c -0.9414,-1.50744 -1.5272,-1.69198 -2.5847,-0.8143 -1.0364,0.86014 -1.5751,0.79887 -2.2252,-0.2531 -1.3306,-2.15295 -0.1753,-3.00447 2.6295,-1.93808 1.4017,0.53292 2.9093,0.74597 3.3503,0.47345 0.4409,-0.27253 1.0158,0.62425 1.2774,1.99284 0.5679,2.97073 -0.7478,3.26059 -2.4473,0.53919 z m 13.2003,1.08339 c 0,-0.61086 -0.7875,-1.04466 -1.75,-0.964 -3.3973,0.28471 -5.3611,-0.18145 -4.773,-1.13301 0.6919,-1.11947 9.523,-1.14992 9.523,-0.0328 0,0.4129 -0.675,1.31093 -1.5,1.99562 -1.0191,0.84574 -1.5,0.88878 -1.5,0.13423 z M 1337.6665,952 c -0.3399,-0.55 -0.1415,-1 0.441,-1 0.5824,0 1.059,0.45 1.059,1 0,0.55 -0.1984,1 -0.441,1 -0.2425,0 -0.7191,-0.45 -1.059,-1 z m 4.0127,0.0205 c -0.2692,-0.43547 0.6304,-1.00583 1.999,-1.26745 1.3685,-0.26162 2.4883,-0.14056 2.4883,0.26902 0,1.07208 -3.9049,1.94091 -4.4873,0.99843 z m -49.7405,-3.11479 c 1.2497,-0.4717 2.5353,-1.54344 2.857,-2.38166 0.672,-1.75143 3.3708,-2.08007 3.3708,-0.41048 0,0.75307 1.4568,0.89509 4.5,0.43873 4.1655,-0.62466 4.5,-0.51251 4.5,1.5089 0,1.79851 -0.2569,1.97053 -1.4562,0.97518 -0.8316,-0.69014 -2.0112,-0.85915 -2.75,-0.39403 -0.7116,0.44798 -3.9938,0.88347 -7.2938,0.96775 -4.3046,0.10994 -5.358,-0.0891 -3.7278,-0.70439 z m 21.4778,0.35176 c -0.6875,-0.23326 -1.25,-1.10975 -1.25,-1.94776 0,-1.06722 0.5242,-1.30129 1.75,-0.78136 0.9625,0.40827 2.7993,0.68341 4.0819,0.61142 1.4552,-0.0817 2.1761,0.33734 1.9176,1.11469 -0.4122,1.23964 -4.117,1.81136 -6.4995,1.00301 z m 10.75,-0.16896 c 0,-1.01666 2.5569,-0.8649 3.6377,0.21591 0.3826,0.38259 -0.2794,0.69561 -1.471,0.69561 -1.1917,0 -2.1667,-0.41018 -2.1667,-0.91152 z m 16,-0.0295 c 0,-0.58246 0.45,-1.05902 1,-1.05902 0.55,0 1,0.19844 1,0.44098 0,0.24254 -0.45,0.7191 -1,1.05902 -0.55,0.33992 -1,0.14148 -1,-0.44098 z m -9.7292,-1.66319 c 0.3323,-0.33229 1.1948,-0.36781 1.9167,-0.0789 0.7977,0.31922 0.5608,0.55618 -0.6042,0.60416 -1.0541,0.0434 -1.6448,-0.19293 -1.3125,-0.52522 z m -89.5289,-1.98727 c -0.3253,-0.3253 -2.7628,-0.81103 -5.4167,-1.0794 -9.6811,-0.97901 -8.0409,-4.89706 1.886,-4.50502 6.7154,0.2652 8.0384,0.77394 5.7598,2.21492 -1.5877,1.00414 -1.5871,1.00462 1.8231,1.3804 1.6289,0.1795 2.1362,-0.15884 1.7493,-1.16689 -0.3086,-0.80431 -0.044,-1.25278 0.6104,-1.03463 0.6354,0.21178 1.5212,1.37438 1.9685,2.58356 0.7583,2.04996 0.5226,2.1985 -3.4879,2.1985 -2.3656,0 -4.5672,-0.26615 -4.8925,-0.59144 z m -27.7172,-3.41297 c -1.9114,-0.45933 -3.7761,-0.64923 -4.1438,-0.42201 -0.3676,0.22723 -2.2832,-0.26155 -4.2568,-1.08617 -3.7476,-1.56584 -5.683,-1.59503 -6.7668,-0.10206 -0.8694,1.19768 -6.0976,-0.18758 -5.3392,-1.41467 0.33,-0.53387 -0.1016,-0.97068 -0.9591,-0.97068 -0.8574,0 -1.559,0.64916 -1.559,1.44258 0,1.81589 -4.0668,1.18947 -5.1789,-0.79772 -0.5583,-0.99774 -2.3463,-1.29846 -6.3003,-1.05965 -3.0895,0.18659 -5.5208,-0.089 -5.5208,-0.62589 0,-1.77101 0.493,-2.46183 1.5,-2.10203 1.077,0.38479 7.9604,0.82834 18.75,1.20821 3.7125,0.13071 6.75,0.61944 6.75,1.08607 0,0.46664 2.2125,0.84843 4.9167,0.84843 2.7819,0 5.0811,0.49334 5.2954,1.13624 0.269,0.80713 1.0261,0.73471 2.6138,-0.25 1.884,-1.16845 2.3684,-1.17208 3.0836,-0.0231 0.6003,0.96447 0.9625,1.02085 1.2385,0.19277 0.5906,-1.77165 4.0003,-0.0673 3.6409,1.81991 -0.3635,1.90858 -2.9371,2.27975 -7.7642,1.11976 z m 12.0542,0.25441 c -0.043,-0.6875 -0.7539,-1.25 -1.5789,-1.25 -0.825,0 -1.5,-0.45 -1.5,-1 0,-1.14836 0.6174,-1.20922 3.75,-0.36971 1.2375,0.33163 2.25,1.02705 2.25,1.54536 0,0.51831 -0.4116,0.68802 -0.9146,0.37714 -0.503,-0.31089 -1.1425,5e-5 -1.421,0.69098 -0.4025,0.99831 -0.5227,0.99959 -0.5855,0.006 z m -69.6191,-5.31496 c -0.362,-0.58573 -1.851,-0.98805 -3.309,-0.89404 -1.4579,0.094 -3.1008,0.0776 -3.6508,-0.0364 -0.55,-0.11401 -2.4171,-0.13113 -4.149,-0.038 -1.732,0.0931 -3.446,-0.31133 -3.809,-0.89868 -0.7361,-1.19104 1.4978,-1.40493 11.458,-1.09703 6.8441,0.21158 9.5911,1.41204 6.9916,3.05544 -1.9435,1.22873 -2.7285,1.20844 -3.5318,-0.0913 z m 245.6819,-0.67029 c -1.7516,-3.27278 -2.8844,-12.87107 -2.1164,-17.93166 0.5021,-3.30804 1.516,-5.40191 3.4008,-7.02316 3.1895,-2.74349 4.8484,-2.89254 7.1028,-0.63816 2.4472,2.44721 1.1515,8.67656 -3.1621,15.20261 -2.3208,3.51107 -3.3992,6.17561 -3.1106,7.68536 0.6474,3.38682 -0.7755,5.20705 -2.1145,2.70501 z m 4.8103,-15.69493 c 4.1653,-6.05404 3.9617,-10.62513 -0.3987,-8.95188 -2.7005,1.03627 -4.7091,6.03483 -3.9821,9.90992 0.3583,1.90968 0.8047,3.47214 0.9921,3.47214 0.1873,0 1.7122,-1.99358 3.3887,-4.43018 z m 5.9711,13.5071 c -3.2536,-3.25355 -3.5884,-5.54879 -1.5287,-10.47835 2.8526,-6.82721 9.7187,-8.70669 13.7795,-3.77188 l 2.3261,2.8267 1,-4.47347 c 1.2211,-5.46272 5.0065,-8.77159 8.9129,-7.79112 1.4229,0.35712 2.5871,1.11729 2.5871,1.68927 0,0.57198 -0.4698,0.74962 -1.044,0.39475 -0.5742,-0.35487 -2.1492,0.079 -3.5,0.96404 -1.9319,1.26582 -2.456,2.46465 -2.456,5.61758 0,2.34123 0.5199,4.16333 1.25,4.38101 5.423,1.61683 5.4223,1.61604 2.75,3.0608 -1.8913,1.02253 -2.5,2.15794 -2.5,4.66331 0,2.31741 -0.5088,3.40987 -1.6946,3.63872 -1.2417,0.23963 -1.9869,-0.75864 -2.7885,-3.73563 -0.6017,-2.23446 -1.5175,-4.06265 -2.0351,-4.06265 -0.5176,0 -1.8518,1.78495 -2.9647,3.96656 -3.4048,6.6739 -7.4819,7.72246 -12.094,3.11036 z m 9.7453,-5.82582 c 1.1295,-2.70314 1.2372,-4.16287 0.4368,-5.91951 -1.4011,-3.07523 -2.649,-2.9416 -6.2611,0.67049 -2.5611,2.56109 -2.8986,3.47917 -2.2975,6.25 0.3876,1.78635 1.1864,3.55402 1.7751,3.92814 1.8055,1.14726 4.7698,-1.15493 6.3467,-4.92912 z M 1161.6665,935 c -0.3399,-0.55 0.3085,-1 1.441,-1 1.1324,0 2.059,0.45 2.059,1 0,0.55 -0.6484,1 -1.441,1 -0.7925,0 -1.7191,-0.45 -2.059,-1 z m -29.5,-0.88197 c 0,-0.55 0.45,-1.27811 1,-1.61803 0.55,-0.33992 1,-0.16803 1,0.38197 0,0.55 -0.45,1.27811 -1,1.61803 -0.55,0.33992 -1,0.16803 -1,-0.38197 z m -17.3666,-1.63099 c -0.4941,-1.28751 -0.06,-1.55408 2.1227,-1.30287 3.2395,0.37288 3.6691,2.18383 0.6212,2.6187 -1.2451,0.17765 -2.3796,-0.36637 -2.7439,-1.31583 z m -20.8127,-0.89722 c -1.4736,-0.76883 -2.9361,-1.21606 -3.25,-0.99384 -0.3139,0.22221 -0.3598,0.11813 -0.1021,-0.2313 1.6492,-2.23568 12.4053,-0.58763 11.0004,1.68549 -0.851,1.37692 -4.554,1.15403 -7.6483,-0.46035 z m 10.8836,0.78119 c -1.2857,-1.28573 0.4787,-2.37101 3.8547,-2.37101 1.8926,0 3.441,0.45 3.441,1 0,0.55 -0.3375,1.037 -0.75,1.08223 -0.4125,0.0452 -1.9078,0.27495 -3.3228,0.51049 -1.4151,0.23554 -2.8654,0.13577 -3.2229,-0.22171 z m -28.0376,-2.03768 c -0.3667,-0.36666 -0.6667,-1.30242 -0.6667,-2.07945 0,-1.07558 0.7757,-1.2402 3.25,-0.68968 1.7875,0.39772 4.375,0.81303 5.75,0.92293 3.6783,0.294 4,0.41566 4,1.51287 0,1.10062 -11.2617,1.40499 -12.3333,0.33333 z m -17.0539,-2.15081 c -0.8072,-1.30602 3.055,-1.83872 7.8872,-1.08787 l 4,0.62154 -4.1682,0.1419 c -2.2925,0.0781 -4.8345,0.39759 -5.6489,0.71008 -0.8143,0.3125 -1.7459,0.13896 -2.0701,-0.38565 z m -23.6128,-1.24346 c -8.8086,-0.71947 -19.7996,-1.44613 -37.74998,-2.49581 -4.40496,-0.25758 -7.25,-0.0353 -7.25,0.5664 0,0.54469 -0.45,0.99035 -1,0.99035 -0.55,0 -1,-0.675 -1,-1.5 0,-1.12892 -1.29878,-1.52715 -5.25,-1.60976 -8.81945,-0.1844 -14.04387,-0.52362 -18.75,-1.21745 -4.68737,-0.69106 -9.70035,-1.14398 -24,-2.16837 -4.675,-0.3349 -10.075,-0.80354 -12,-1.04142 -3.60529,-0.44552 -16.03907,-1.49956 -21.70114,-1.83966 -1.76062,-0.10576 -3.46029,-0.45144 -3.77703,-0.76818 -0.66634,-0.66633 8.35278,-2.05069 9.349,-1.43499 0.68723,0.42473 14.40448,1.49365 26.62917,2.07509 3.85,0.18311 11.725,0.79907 17.5,1.3688 5.775,0.56972 15.31147,1.27311 21.19215,1.56309 l 10.69215,0.52722 0.49932,-4.22718 c 0.27462,-2.32496 0.97689,-17.88185 1.5606,-34.57089 0.5837,-16.68903 1.49635,-31.08903 2.02812,-32 0.82499,-1.4133 0.9713,-1.32052 0.99725,0.63238 0.0403,3.03699 -1.85455,49.74672 -2.38976,58.90809 -0.23124,3.95822 -0.18782,8.08626 0.0965,9.17343 0.69221,2.64701 6.94129,4.06049 20.50395,4.63782 5.8742,0.25004 14.6492,0.90934 19.5,1.4651 4.8508,0.55576 12.0454,1.01416 15.9879,1.01868 7.6402,0.009 10.6633,0.66276 9.767,2.11298 -0.6286,1.01712 -7.6147,0.96311 -21.4352,-0.16572 z M 895.07048,915.60833 c -0.22218,-0.20144 -2.81232,-0.61659 -5.75588,-0.92255 -2.94355,-0.30596 -5.54668,-0.75105 -5.78472,-0.98909 -0.77577,-0.77577 5.80954,-1.70787 6.97541,-0.98732 0.62335,0.38526 3.3518,0.72075 6.06323,0.74555 5.5606,0.0508 7.39996,1.91689 2.24973,2.28237 -1.83909,0.13052 -3.52559,0.0725 -3.74777,-0.12896 z m 210.64622,-5.57702 c 0.3046,-3.55778 0.7554,-6.67028 1.0018,-6.91667 0.8616,-0.86157 0.2989,9.40376 -0.6241,11.38536 -0.6301,1.3528 -0.7523,-0.0933 -0.3777,-4.46869 z M 874.16652,913.5 c -1.01957,-1.22851 -0.95124,-1.5 0.37756,-1.5 0.89234,0 1.62244,0.675 1.62244,1.5 0,0.825 -0.1699,1.5 -0.37756,1.5 -0.20765,0 -0.93775,-0.675 -1.62244,-1.5 z m 3.75,-0.16228 c 0.6875,-0.27741 1.8125,-0.27741 2.5,0 0.6875,0.27741 0.125,0.50439 -1.25,0.50439 -1.375,0 -1.9375,-0.22698 -1.25,-0.50439 z m -18.28409,-1.39287 c -0.43336,-0.7012 1.21259,-0.97972 4.90661,-0.83027 7.89322,0.31934 9.47972,1.85145 1.9365,1.87011 -3.40504,0.008 -6.48444,-0.45951 -6.84311,-1.03984 z m 267.66647,-8.2791 c 0.072,-3.11616 0.5521,-5.66575 1.0672,-5.66575 0.9202,0 0.2776,9.85613 -0.7068,10.84057 -0.27,0.27001 -0.4322,-2.05866 -0.3604,-5.17482 z M 684.79152,877.875 c -0.34375,-1.71875 -0.625,-5.48094 -0.625,-8.36043 0,-7.72428 -1.11681,-14.51543 -2.38592,-14.50841 -0.61275,0.003 -2.35158,0.6517 -3.86408,1.4407 -2.40426,1.25418 -2.75,1.24946 -2.75,-0.0376 0,-0.80964 0.67242,-1.73011 1.49426,-2.04548 0.82184,-0.31537 1.25594,-0.95899 0.96468,-1.43027 -0.57408,-0.92887 6.27579,-4.75301 9.35554,-5.22302 1.04119,-0.1589 3.06804,-1.05877 4.50411,-1.99972 4.35953,-2.85647 5.25459,-1.91064 1.08145,1.14278 -7.80101,5.70789 -7.69841,5.40103 -6.88481,20.59158 0.70481,13.15934 0.39099,16.83594 -0.89023,10.42982 z m 423.49328,-1.45833 c 0.065,-2.15417 0.4953,-5.26667 0.9561,-6.91667 0.5944,-2.12823 0.7121,-1.14225 0.4053,3.39305 -0.4744,7.01268 -1.551,9.7991 -1.3614,3.52362 z M 1129.3244,876 c 0,-1.375 0.227,-1.9375 0.5044,-1.25 0.2774,0.6875 0.2774,1.8125 0,2.5 -0.2774,0.6875 -0.5044,0.125 -0.5044,-1.25 z m -472.58645,-2.57143 c -1.19234,-1.19234 -1.57143,-3.71108 -1.57143,-10.44098 0,-4.87826 0.39884,-9.11605 0.88631,-9.41733 1.30679,-0.80763 2.0846,3.07385 2.10004,10.47974 0.0151,7.25624 1.00179,8.95 5.21365,8.95 1.54,0 2.8,0.45 2.8,1 0,1.62371 -7.70011,1.15703 -9.42857,-0.57143 z M 1130.3614,869.5 c -0.02,-1.65 0.1871,-2.44606 0.461,-1.76903 0.274,0.67703 0.2906,2.02703 0.037,3 -0.2536,0.97297 -0.4777,0.41903 -0.4981,-1.23097 z m -51.0762,-5.94282 c -0.6153,-2.44355 -1.1187,-4.63115 -1.1187,-4.86133 0,-0.95655 5.0307,0.63617 6.1075,1.93365 0.9083,1.0945 0.8038,1.81104 -0.4695,3.218 -0.9009,0.99549 -1.638,2.33705 -1.638,2.98124 0,2.87791 -1.8665,0.75862 -2.8813,-3.27156 z M 661.34139,842.7257 c -2.33333,-9.75346 -2.70535,-12.86237 -1.04415,-8.7257 1.29991,3.237 4.16844,17.03418 3.64943,17.55319 -0.21902,0.21901 -1.39139,-3.75336 -2.60528,-8.82749 z m 331.44414,-1.45726 c 0.1263,-2.07264 0.26369,-8.86844 0.30531,-15.10177 0.0574,-8.59741 0.37744,-11.23231 1.32568,-10.91482 2.34143,0.78393 1.57917,28.64604 -0.80531,29.43559 -0.6407,0.21215 -0.96509,-1.13111 -0.82568,-3.419 z M 1133.1969,838.55 c -0.022,-2.15133 0.2684,-2.65121 1.0732,-1.84638 0.791,0.79095 0.7996,1.62674 0.03,2.95 -0.9408,1.61863 -1.0769,1.48249 -1.1036,-1.10362 z m -20.758,-8.55 c 0,-2.475 0.195,-3.4875 0.4333,-2.25 0.2384,1.2375 0.2384,3.2625 0,4.5 -0.2383,1.2375 -0.4333,0.225 -0.4333,-2.25 z M 652.69565,806.79181 C 651.19934,800.58132 649.76368,794.6 649.50529,793.5 c -0.38581,-1.64252 -0.27929,-1.73189 0.59599,-0.5 1.1419,1.60716 1.83805,4.08738 4.57236,16.29032 0.96007,4.28467 1.5199,8.01599 1.24408,8.29181 -0.27582,0.27583 -1.72575,-4.57982 -3.22207,-10.79032 z M 1136.4188,808.75 c 0.031,-3.1625 0.4368,-5.75 0.902,-5.75 1.0329,0 0.9991,2.22737 -0.1139,7.5 -0.8172,3.87148 -0.8425,3.81525 -0.7881,-1.75 z m 78.7731,-3.72456 c -2.6835,-2.68352 -3.4538,-6.35779 -2.1294,-10.15701 1.511,-4.33441 1.4501,-4.56475 -1.396,-5.27907 -1.375,-0.34511 -2.5,-1.06032 -2.5,-1.58936 0,-1.53737 4.6239,-2.27166 6.8391,-1.08609 2.7623,1.47831 3.474,4.29657 2.223,8.80175 -1.4948,5.3827 -1.3297,7.0167 0.9379,9.28434 2,2 2,2 0,2 -1.1,0 -2.8886,-0.88855 -3.9746,-1.97456 z m -26.8127,-4.14246 c -2.2202,-0.82129 -2.782,-1.98039 -1.5547,-3.20764 0.3619,-0.36189 1.3135,-0.11399 2.1146,0.5509 1.1782,0.97779 1.8171,0.76379 3.342,-1.11946 1.037,-1.28059 1.8854,-3.07403 1.8854,-3.98543 0,-2.00377 -4.6921,-9.12135 -6.013,-9.12135 -1.521,0 -4.0828,-4.58676 -3.4634,-6.20099 1.4535,-3.78769 12.3812,-7.38004 14.0814,-4.62907 0.4915,0.79526 0.1699,0.95765 -1.0043,0.50708 -1.9944,-0.76534 -6.2919,1.21928 -8.9139,4.11654 -1.7582,1.94281 -1.7193,2.09984 1.4001,5.65267 1.7647,2.0099 3.7207,3.45785 4.3466,3.21768 0.6258,-0.24018 1.216,0.29969 1.3115,1.1997 0.095,0.90002 0.468,3.09974 0.828,4.88827 1.1478,5.70226 -3.2813,10.00993 -8.3603,8.1311 z m -73.1424,-5.57243 -0.07,-5.18945 -7.0222,-0.69195 c -3.8622,-0.38057 -7.2906,-1.12621 -7.6186,-1.65698 -0.3777,-0.61109 2.1938,-0.70357 7.0113,-0.25214 7.3778,0.69136 7.6353,0.64139 8.5185,-1.65356 0.8689,-2.2578 0.9426,-2.27463 1.6068,-0.36647 1.3566,3.89795 1.4065,4.44234 0.4605,5.02699 -0.526,0.32508 -0.9879,1.80199 -1.0266,3.28203 -0.039,1.48004 -0.457,3.59098 -0.9297,4.69098 -0.6329,1.47285 -0.878,0.63218 -0.9297,-3.18945 z m 89.4743,3.43945 c -1.808,-5.75546 -2.6056,-9.3299 -3.626,-16.25 -1.0679,-7.24133 -1.0012,-8.37934 0.7027,-12 4.4465,-9.44822 14.6115,-2.81632 11.2668,7.35069 -0.6603,2.00712 -2.2259,5.22431 -3.4792,7.14931 -1.9719,3.02881 -2.1586,4.10581 -1.3873,8 1.2819,6.47209 1.2025,7 -1.053,7 -1.1172,0 -2.2081,-0.5625 -2.424,-1.25 z m 4.0191,-22.55677 c 1.5264,-3.65312 1.2349,-8.19323 -0.526,-8.19323 -1.7894,0 -4.0377,4.4857 -4.0377,8.05584 0,6.1793 2.0139,6.23993 4.5637,0.13739 z m -46.3137,18.45936 c -4.4641,-1.46448 -4.0772,-2.30146 1.447,-3.12986 3.8764,-0.5813 4.9247,-0.39305 5.9999,1.07748 2.337,3.19604 -1.0855,4.13929 -7.4469,2.05238 z M 1134.1665,791 c 0,-1.15175 5.2762,-1.17117 12.5,-0.046 4.5896,0.71486 4.2818,0.78975 -3.75,0.9124 -5.2557,0.0802 -8.75,-0.26573 -8.75,-0.86639 z m -61,-5 c -1.8948,-0.60684 -1.1687,-0.80064 3,-0.80064 3.025,0 6.625,0.36029 8,0.80064 1.8948,0.60684 1.1687,0.80064 -3,0.80064 -3.025,0 -6.625,-0.36029 -8,-0.80064 z m -28.7823,-2.00932 c -4.5552,-0.39705 -8.6052,-1.06939 -9,-1.4941 -1.0511,-1.13091 19.0816,0.40276 20.2191,1.54025 1.0546,1.05456 1.4266,1.05609 -11.2191,-0.0462 z m -29.9063,-2.90345 c -2.8538,-0.34715 -5.4665,-0.909 -5.8061,-1.24855 -0.9116,-0.91169 12.7391,0.27393 14.4947,1.25892 1.7491,0.98132 -0.559,0.97857 -8.6886,-0.0104 z m 123.7746,-2.21223 c -0.1136,-4.78947 0.9426,-9.875 2.0508,-9.875 0.8912,0 0.193,6.33874 -1.2116,11 -0.6695,2.22195 -0.7629,2.09682 -0.8392,-1.125 z m -164.54734,-1.81247 c -0.33217,-0.53746 0.5931,-0.72487 2.16846,-0.4392 3.6995,0.67085 4.22173,1.37667 1.01858,1.37667 -1.4342,0 -2.86837,-0.42186 -3.18704,-0.93747 z M 945.16652,775 c -2.12378,-0.68015 -1.86042,-0.81564 1.75,-0.90032 2.3375,-0.0548 4.25,0.35032 4.25,0.90032 0,1.15252 -2.40127,1.15252 -6,0 z m -301.89184,-7 c -2.67086,-9.7225 -3.03692,-11.40458 -2.58106,-11.86044 0.2601,-0.26009 0.68459,-0.26121 0.94331,-0.002 0.96342,0.96341 3.64829,12.99567 3.26844,14.64747 -0.22793,0.99117 -0.91643,-0.1845 -1.63069,-2.78455 z m 260.25409,2.77712 c -0.49091,-0.79431 7.65026,0.0716 8.60792,0.91554 0.25859,0.22789 -1.45778,0.30058 -3.81416,0.16155 -2.35637,-0.13904 -4.51356,-0.62373 -4.79376,-1.07709 z m -41.61225,-3.4394 c 0.6875,-0.27741 1.8125,-0.27741 2.5,0 0.6875,0.27741 0.125,0.50439 -1.25,0.50439 -1.375,0 -1.9375,-0.22698 -1.25,-0.50439 z m -33.75,-2.43057 c -2.17511,-0.61581 -2.04516,-0.70537 1,-0.68916 1.925,0.0103 4.85,0.37466 6.5,0.80979 2.8182,0.74321 2.7576,0.78497 -1,0.68916 -2.2,-0.0561 -5.125,-0.4205 -6.5,-0.80979 z M 1118.307,761 c -0.06,-3.025 0.3263,-6.175 0.8595,-7 1.2113,-1.87429 1.2319,1.36347 0.051,8 l -0.8007,4.5 -0.1098,-5.5 z m -325.14048,1 c -2.26238,-0.72454 -2.16733,-0.80064 1,-0.80064 1.925,0 4.625,0.36029 6,0.80064 2.26238,0.72454 2.16733,0.80064 -1,0.80064 -1.925,0 -4.625,-0.36029 -6,-0.80064 z m -37.75,-3.71625 c 1.5125,-0.22913 3.9875,-0.22913 5.5,0 1.5125,0.22912 0.275,0.41659 -2.75,0.41659 -3.025,0 -4.2625,-0.18747 -2.75,-0.41659 z m -36.75,-2.08468 c -3.85,-0.1655 -7.45,-0.75154 -8,-1.3023 -0.87482,-0.87602 4.51542,-0.6874 14.72423,0.51524 2.00431,0.23611 3.38388,1.2952 1.52577,1.17132 -0.6875,-0.0458 -4.4,-0.21875 -8.25,-0.38426 z m -39.22928,-3.15833 c -3.9761,-0.36628 -7.5761,-1.02572 -8,-1.46543 -0.81787,-0.84838 11.50599,0.11566 18.22928,1.42598 l 4,0.77958 -3.5,-0.0371 c -1.925,-0.0204 -6.75317,-0.33676 -10.72928,-0.70304 z M 1406.4903,746.25 c -0.4217,-2.0625 -0.7792,-8.025 -0.7945,-13.25 -0.022,-7.70734 0.343,-10.11328 1.9371,-12.75 4.503,-7.44831 11.524,-1.53128 7.8141,6.58538 -0.9213,2.01554 -1.8318,3.95108 -2.0233,4.3012 -0.1915,0.35012 1.4722,2.73999 3.6973,5.31082 2.225,2.57083 4.0455,4.85775 4.0455,5.08203 0,2.27675 -9.6485,-7.67814 -11.0955,-11.44777 -0.3698,-0.96362 0.1685,-1.93591 1.4211,-2.56649 2.479,-1.24801 4.3415,-6.24806 2.874,-7.71554 -1.5521,-1.55217 -3.2132,-0.0231 -5.4376,5.00548 -1.7738,4.00997 -1.9297,5.76636 -1.3198,14.87095 0.7074,10.56095 0.2485,13.25864 -1.1184,6.57394 z m 43.2754,-0.0894 c -1.2561,-2.03248 -2.7184,-11.18897 -2.7767,-17.38742 -0.073,-7.81367 1.9285,-12.09873 5.4124,-11.58442 2.9485,0.43529 3.3619,2.58881 0.5727,2.98417 -2.1174,0.30014 -2.3076,0.82164 -2.3076,6.3271 0,5.46087 0.2022,6.02871 2.25,6.31955 3.0271,0.42992 2.8439,2.00415 -0.3758,3.22827 -2.4884,0.94609 -2.5912,1.25866 -1.9655,5.97525 0.624,4.7039 0.3635,6.03537 -0.8095,4.1375 z M 1141.1665,744.5 c 0,-0.825 0.4359,-1.5 0.9686,-1.5 0.5328,0 0.7096,0.675 0.393,1.5 -0.3166,0.825 -0.7524,1.5 -0.9686,1.5 -0.2161,0 -0.393,-0.675 -0.393,-1.5 z m 285.0726,-3.13486 c -3.024,-3.84435 -3.0703,-9.9853 -0.119,-15.77411 1.5513,-3.04273 2.0019,-3.34953 3.0555,-2.0801 0.7021,0.846 0.8014,1.48907 0.23,1.48907 -2.2658,0 -2.0032,3.92458 0.3665,5.47724 1.3169,0.86287 2.3944,2.00849 2.3944,2.54581 0,1.7373 -2.8452,1.036 -4.316,-1.06382 -1.4232,-2.03185 -1.4321,-2.03076 -2.0431,0.25 -1.0849,4.05034 -0.6925,5.71089 1.7241,7.29429 1.7589,1.15248 3.014,1.30289 4.8972,0.58689 3.2457,-1.23403 4.0166,-0.43894 1.9334,1.99411 -2.2977,2.68358 -5.682,2.38387 -8.123,-0.71938 z M 1120.6246,734 c 0.283,-1.375 0.5207,-5.5375 0.5282,-9.25 0.01,-3.7125 0.4036,-6.75 0.8802,-6.75 1.0606,0 0.2007,13.72185 -1.034,16.5 -0.7509,1.68957 -0.809,1.61196 -0.3744,-0.5 z m 22.0678,-5.95812 c -0.3983,-0.64441 -0.433,-2.72333 -0.077,-4.61982 0.5228,-2.7865 0.3019,-3.5596 -1.1508,-4.02885 -5.174,-1.67119 -7.5185,-2.81963 -6.4699,-3.16916 1.9638,-0.65461 1.3089,-2.94356 -1.0779,-3.76741 -1.9223,-0.66351 -1.6813,-0.83628 1.6547,-1.18622 4.5533,-0.47764 8.9119,0.40822 8.1416,1.65473 -0.2946,0.47659 0.2495,1.81258 1.2091,2.96887 1.4524,1.75028 2.941,2.12348 8.8889,2.22853 3.9293,0.0694 7.5661,-0.13457 8.0818,-0.45326 0.5156,-0.31869 1.5148,-3.86216 2.2204,-7.87437 2.0546,-11.68295 5.83,-19.12951 4.4591,-8.79492 -0.7086,5.34184 -0.4055,5.64228 4.3953,4.3564 1.8661,-0.49984 2.1972,-1.11138 1.7518,-3.23635 -0.5591,-2.66728 0.7557,-6.04807 1.7355,-4.46272 0.8681,1.40456 2.8846,13.50324 2.3412,14.04664 -0.8379,0.8379 -2.6294,-0.73481 -2.6294,-2.3083 0,-1.16163 -0.8192,-1.35016 -3.75,-0.86307 -6.1439,1.02107 -6.25,1.12188 -6.25,5.93602 0,4.45487 0.5092,5.04961 3.9117,4.5689 0.7764,-0.10969 3.0264,0.16142 5,0.60247 3.3619,0.75131 3.1782,0.83608 -2.9117,1.34353 -3.575,0.29789 -7.2518,0.20172 -8.1707,-0.21371 -0.9189,-0.41543 -5.0971,-0.87108 -9.2848,-1.01257 -8.0531,-0.27207 -9.4786,0.43624 -9.5445,4.74276 -0.044,2.88104 -1.5501,5.03697 -2.4741,3.54188 z m -17.5259,-12.08152 c -1.7854,-0.60009 -1.0949,-0.71479 2.4157,-0.40127 2.7037,0.24145 5.1412,0.66443 5.4167,0.93996 0.7925,0.79253 -5.0717,0.38921 -7.8324,-0.53869 z m -21,-1.10018 c -1.4557,-0.46698 1.6177,-0.63016 7.3571,-0.39061 5.4215,0.22627 10.1348,0.68902 10.4741,1.02834 0.8838,0.8838 -14.8415,0.32139 -17.8312,-0.63773 z m 5.5,-3.8214 c -2.5153,-0.60753 -2.7096,-0.85099 -1.2023,-1.50696 2.2488,-0.97874 9.5792,-0.0549 11.0234,1.38926 1.2447,1.24471 -4.8525,1.31778 -9.8211,0.1177 z m -34.75,-2.72811 c -0.9625,-0.25152 -1.75,-0.93959 -1.75,-1.52903 0,-1.37226 13.869,-0.31262 15.3548,1.17316 1.0585,1.05848 -9.8266,1.34321 -13.6048,0.35587 z m -32.5,-2.97295 c -2.8507,-1.1503 -0.9339,-2.18891 3.3896,-1.8366 6.3457,0.51709 8.2633,2.52554 2.3104,2.41993 -2.4475,-0.0434 -5.0125,-0.30592 -5.7,-0.58333 z M 1012.1665,702 c 0,-0.55 1.7734,-1 3.941,-1 2.1675,0 4.2191,0.45 4.559,1 0.3775,0.61081 -1.1563,1 -3.941,1 -2.5074,0 -4.559,-0.45 -4.559,-1 z m -41.92233,-2.90019 c -2.43229,-0.3299 -4.6235,-1.21094 -4.86935,-1.95787 -0.34451,-1.04668 0.44019,-1.23079 3.42235,-0.80298 2.12814,0.3053 6.08285,0.8429 8.78824,1.19466 3.45627,0.4494 4.49699,0.90663 3.5,1.53767 -1.52557,0.96561 -3.88633,0.97182 -10.84124,0.0285 z m -42.51127,-3.99759 c -1.31284,-0.51411 -1.55774,-0.98953 -0.76281,-1.48082 1.53786,-0.95045 13.19643,0.38161 13.19643,1.50777 0,1.05498 -9.72461,1.0339 -12.43362,-0.027 z m 381.5331,-4.07437 c 1.3203,-1.76199 3.0764,-4.17657 3.9025,-5.36573 0.8261,-1.18917 3.0761,-3.7714 5,-5.7383 1.9239,-1.96689 7.452,-7.70439 12.2847,-12.75 4.8327,-5.0456 9.3401,-9.17382 10.0164,-9.17382 0.6762,0 3.6899,-2.25 6.6969,-5 3.007,-2.75 5.7653,-5 6.1294,-5 0.3642,0 2.1568,-2.3625 3.9835,-5.25 1.8268,-2.8875 3.6618,-5.4942 4.0778,-5.79266 0.7728,-0.55449 4.8147,-7.46075 6.9979,-11.95734 0.6677,-1.375 1.9738,-3.625 2.9027,-5 2.6652,-3.94552 10.3763,-25.0918 13.3022,-36.4791 1.341,-5.21915 1.3534,-6.25825 0.097,-8.1753 -1.0155,-1.54976 -1.1032,-2.30814 -0.298,-2.57652 0.6275,-0.20918 1.1603,-1.9303 1.1839,-3.8247 0.1032,-8.28355 -1.4063,-32.8816 -2.2978,-37.44438 -4.1732,-21.35705 -20.4161,-51.9555 -36.5071,-68.77235 -1.9853,-2.07479 -6.4136,-7.48839 -9.8407,-12.03021 -9.5628,-12.67324 -15.3816,-19.27488 -25.687,-29.14288 -12.9121,-12.36393 -20.1651,-19.68179 -22.5441,-22.7456 -2.3351,-3.00727 -28.1183,-30.31323 -30.8692,-32.69239 -11.8806,-10.27507 -32.9991,-34.46219 -37.6061,-43.0704 -0.6489,-1.21241 -1.8082,-2.95628 -2.5762,-3.87528 -2.4412,-2.9208 -9.2975,-12.4721 -13.1886,-18.37237 -11.2453,-17.05216 -14.0825,-22.32198 -21.8214,-40.53151 -3.0931,-7.27814 -6.4822,-14.32412 -7.5312,-15.65773 -1.049,-1.3336 -1.9073,-2.87597 -1.9073,-3.42748 0,-0.5515 -1.8193,-4.21329 -4.0429,-8.1373 -2.2236,-3.924 -4.948,-10.60179 -6.0542,-14.83953 -2.6139,-10.01327 -4.3301,-38.26102 -2.9769,-48.99924 1.7472,-13.86508 -0.069,-96.92676 -2.8802,-131.70573 -1.7987,-22.254734 -3.1581,-35.8726534 -3.6624,-36.68862708 C 1153.2741,0.36511781 1154.1735,0 1155.5485,0 c 1.375,0 2.7479,0.40120748 3.051,0.89157218 0.303,0.49036472 1.0028,6.90286472 1.5551,14.24999982 0.5522,7.347135 1.4623,18.983428 2.0223,25.858428 2.2569,27.706642 4.0915,94.86419 3.1688,116 -0.3241,7.425 -0.4904,21.487 -0.3694,31.2489 0.3089,24.9298 2.5342,33.22773 14.6825,54.7511 2.3283,4.125 5.8985,11.67692 7.9337,16.78205 2.0353,5.10512 4.4595,10.96083 5.3872,13.01268 1.914,4.23307 14.2119,23.91256 18.2507,29.20527 1.4689,1.925 6.1777,8.675 10.4638,15 11.9214,17.59226 15.6475,22.05612 32.9723,39.50067 6.6,6.64564 18.3,18.81014 26,27.03224 7.7,8.22209 21.8043,22.82827 31.3428,32.45818 9.5385,9.6299 17.9876,18.74641 18.7757,20.25891 0.7881,1.5125 1.7588,2.75001 2.1572,2.75001 0.3984,1e-5 2.9512,3.03751 5.6731,6.75 2.7218,3.7125 5.5343,7.10985 6.25,7.54968 0.7156,0.43983 1.3086,1.33983 1.3177,2 0.01,0.66017 2.1098,3.22244 4.6683,5.69394 2.5584,2.47149 6.1501,6.74649 7.9815,9.5 1.8313,2.7535 4.0742,6.13137 4.9842,7.50637 0.91,1.375 2.8754,4.3 4.3676,6.5 1.4922,2.2 3.0619,5.1163 3.4881,6.48066 0.4262,1.36436 1.5593,3.61436 2.5179,5 0.9586,1.38564 2.332,4.76934 3.0519,7.51934 0.7199,2.75 1.8854,5.58275 2.59,6.295 0.7046,0.71225 1.7484,3.18725 2.3196,5.5 0.5711,2.31275 1.5619,6.005 2.2018,8.205 0.6399,2.2 1.2193,4.45 1.2877,5 0.068,0.55 0.4193,2.575 0.7799,4.5 0.3606,1.925 0.8722,6.83082 1.1369,10.90183 0.2757,4.23852 1.0006,7.72274 1.6964,8.15272 1.8287,1.13019 0.4553,22.64678 -2.0678,32.39639 -2.8227,10.90716 -10.0109,31.71915 -11.5881,33.55089 -0.7113,0.82601 -1.772,2.62601 -2.3571,4 -1.3547,3.18079 -7.4873,13.24313 -12.2833,20.15463 -3.8312,5.52089 -10.3297,11.57452 -17.9357,16.70774 -4.3401,2.9291 -12.0566,10.7398 -25.1691,25.47613 -7.3544,8.26517 -13.154,12.78154 -8.5877,6.68752 z m -415.85571,1.29879 c -0.69093,-0.2736 -1.06748,-0.80287 -0.83677,-1.17616 0.55619,-0.89994 9.593,-0.15925 9.593,0.78628 0,0.83815 -6.8536,1.14331 -8.75623,0.38988 z m -27.74377,-2.25583 c -4.95911,-1.01367 -1.04716,-2.33374 4.61011,-1.55567 2.75986,0.37958 4.87663,0.80432 4.70391,0.94386 -0.94313,0.76201 -6.72208,1.14161 -9.31402,0.61181 z m -34.25,-2.79421 c -1.7875,-0.22182 -3.25,-0.88291 -3.25,-1.46908 0,-1.30017 16.00358,-0.13595 17.45,1.26943 0.94381,0.91704 -7.46641,1.03529 -14.2,0.19965 z M 998.06727,684.75 c -0.222,-5.03261 0.28792,-39.24626 0.59227,-39.7387 0.1804,-0.2919 0.61247,-12.00135 0.96017,-26.02101 0.34769,-14.01966 1.04219,-27.06529 1.54329,-28.99029 0.5683,-2.18285 0.6933,9.14273 0.3323,30.09502 -0.5551,32.21378 -0.5019,33.62488 1.2961,34.32142 1.8297,0.70883 1.8293,0.76014 -0.019,2.12086 -1.6642,1.22501 -1.9544,3.16055 -2.3878,15.92858 -0.2718,7.99376 -0.8818,14.53412 -1.35596,14.53412 -0.47417,0 -0.90678,-1.0125 -0.96137,-2.25 z m -199.90075,-0.77393 c -3.2945,-0.43533 -4.0345,-0.80706 -2.76233,-1.3876 1.83246,-0.83624 9.9791,0.6273 8.26111,1.4841 -0.54933,0.27396 -3.02378,0.23054 -5.49878,-0.0965 z M 755.66652,680 c -0.73007,-1.18128 4.01831,-1.20437 10.5,-0.051 4.28345,0.76217 4.15395,0.80673 -2.69098,0.92587 -3.95504,0.0688 -7.4691,-0.32487 -7.80902,-0.87487 z m -27.5,-1.67845 c -6.95624,-0.50863 -11.10042,-1.35005 -10.60415,-2.15304 0.61289,-0.99166 21.86098,0.7798 23.05415,1.92204 0.9303,0.89059 -2.54687,0.95511 -12.45,0.231 z M 684.66652,674 c -2.62705,-1.12888 7.23302,-1.16616 13.5,-0.051 4.03585,0.71812 3.67485,0.80637 -3.5,0.85559 -4.4,0.0302 -8.9,-0.33186 -10,-0.80455 z m -24.5,-1.73133 c -1.925,-0.2262 -3.95,-0.88779 -4.5,-1.4702 -0.69926,-0.74048 0.20295,-0.87272 3,-0.43971 2.2,0.34057 5.8,0.63107 8,0.64555 2.95347,0.0194 3.60755,0.27993 2.5,0.99569 -1.51579,0.97958 -2.6593,1.01372 -9,0.26867 z m 333,-17.15064 c 0,-0.55 0.45,-1.27811 1,-1.61803 0.55,-0.33992 1,-0.16803 1,0.38197 0,0.55 -0.45,1.27811 -1,1.61803 -0.55,0.33992 -1,0.16803 -1,-0.38197 z M 283.78115,639.75 c -2.93301,-4.61011 -4.87802,-21.78684 -3.23372,-28.55748 2.26247,-9.31603 12.57561,5.20133 14.35236,20.20318 0.7944,6.70748 -1.20441,5.32658 -2.83471,-1.9584 -0.68049,-3.04072 -1.5509,-5.72244 -1.93426,-5.95936 -0.38335,-0.23693 -1.49359,0.44944 -2.46719,1.52525 -1.40323,1.55056 -1.73403,3.51497 -1.59581,9.47642 0.0959,4.13621 -0.0573,7.52039 -0.34041,7.52039 -0.28313,0 -1.15895,-1.0125 -1.94626,-2.25 z m 3.79148,-23.55823 c -1.32336,-2.99235 -2.40611,-5.60964 -2.40611,-5.8162 0,-0.20656 -0.7375,-0.37557 -1.63889,-0.37557 -1.39478,0 -1.55877,0.88355 -1.10098,5.93209 0.69097,7.62024 1.05527,8.15259 4.6503,6.79562 l 2.90178,-1.0953 -2.4061,-5.44064 z m -163.14236,15.09065 c 1.52006,-0.22986 3.77006,-0.22371 5,0.0136 1.22994,0.23736 -0.0137,0.42542 -2.76375,0.41792 -2.75,-0.008 -3.75631,-0.20172 -2.23625,-0.43157 z m -20.26375,-1.2872 c -1.00067,-0.64988 1.16309,-0.76477 6.5,-0.34513 4.4,0.34596 8.1875,0.79122 8.41667,0.98947 0.9966,0.86213 -13.56559,0.2331 -14.91667,-0.64434 z m -26.999995,-2.01938 c -5.225,-0.39407 -15.125,-1.21067 -22,-1.81468 -6.875,-0.604 -18.8,-1.58148 -26.5,-2.17217 -7.7,-0.59069 -16.025,-1.24181 -18.5,-1.44694 -2.4750001,-0.20514 -5.7375001,-0.41101 -7.2500001,-0.45751 -1.5125,-0.0465 -2.74999996,-0.44418 -2.74999996,-0.88374 0,-0.43956 1.46249996,-0.67895 3.24999996,-0.53198 1.7875,0.14696 9.3250001,0.75502 16.7500001,1.35123 7.425,0.59621 15.975,1.29457 19,1.55192 3.025,0.25734 16.280822,1.37725 29.457381,2.48868 13.17656,1.11143 24.16406,2.22746 24.416667,2.48006 0.537463,0.53747 -2.861866,0.4165 -15.874048,-0.56487 z m 17.270833,0.41999 c 0.332292,-0.33229 1.194792,-0.36781 1.916667,-0.0789 0.797733,0.31922 0.560776,0.55618 -0.604167,0.60416 -1.054166,0.0434 -1.644791,-0.19293 -1.3125,-0.52522 z M 1001.6736,554.42641 c 0.2875,-15.44047 0.7171,-31.86547 0.9548,-36.5 0.2376,-4.63452 0.6989,-21.47641 1.0251,-37.42641 0.3263,-15.95 0.782,-31.925 1.0127,-35.5 0.2307,-3.575 0.6735,-14.825 0.984,-25 0.3105,-10.175 0.768,-23.45 1.0167,-29.5 0.2487,-6.05 0.7139,-21.35 1.0338,-34 0.3199,-12.65 1.4449,-47.66975 2.4999,-77.82166 1.7306,-49.46287 1.7674,-55.05159 0.3769,-57.17381 -1.3841,-2.11236 -1.3854,-2.65337 -0.013,-5.30715 1.7861,-3.45396 3.2332,-4.18171 6.9155,-3.47781 1.5347,0.29338 2.6866,0.0637 2.6866,-0.53561 0,-0.57705 0.7875,-1.30165 1.75,-1.61021 2.0582,-0.65983 4.0869,-2.59419 17.3224,-16.51666 5.4602,-5.7436 9.9379,-10.9186 9.9506,-11.5 0.013,-0.5814 2.3751,-3.33175 5.25,-6.1119 5.3405,-5.16458 10.1583,-7.37991 16.9208,-7.78053 2.0315,-0.12036 4.019,-0.54415 4.4166,-0.94175 0.3976,-0.3976 1.7729,-0.72291 3.0563,-0.72291 1.2833,0 2.3333,-0.49814 2.3333,-1.10699 0,-0.60884 0.6202,-0.86901 1.3781,-0.57814 0.758,0.29086 1.8683,0.0388 2.4673,-0.56023 1.3068,-1.30688 2.6803,1.43301 1.8296,3.64991 -0.664,1.73031 1.7814,12.6178 3.0263,13.47372 2.1928,1.50768 5.409,8.46552 8.8388,19.12173 5.2927,16.444 12.1435,33.69049 15.6906,39.5 9.8752,16.17372 26.8626,35.02058 38.7578,43 7.0327,4.71768 28.2698,25.06547 31.8329,30.5 3.5779,5.45698 12.8985,17.82075 17.7158,23.5 7.0857,8.35355 8.0506,10.13099 9.4026,17.32025 0.9169,4.87624 0.9174,6.64691 0,7.75 -1.8444,2.22231 -2.4207,1.7936 -4.8676,-3.62048 -1.5299,-3.38525 -4.1438,-6.60069 -7.9283,-9.75314 -3.1052,-2.5866 -9.6958,-8.98527 -14.6458,-14.21925 -15.4246,-16.30955 -19.6665,-19.80291 -34.5788,-28.47738 -3.7821,-2.2 -11.5022,-7.52781 -17.1558,-11.83957 -5.6537,-4.31177 -13.4262,-9.57724 -17.2724,-11.70105 -25.9801,-14.346 -31.6709,-16.965 -50.8592,-23.40611 -23.5471,-7.90427 -34.7993,-13.58814 -40.2847,-20.34923 -2.0991,-2.58722 -4.8413,-5.82904 -6.0939,-7.20404 -1.2525,-1.375 -2.5276,-3.2875 -2.8336,-4.25 -2.0755,-6.52843 -2.8757,3.20677 -3.8836,47.25 -1.0544,46.07313 -1.4871,63.40056 -2.4724,99 -0.5556,20.075 -1.2522,42.575 -1.548,50 -0.2958,7.425 -0.9966,28.8 -1.5573,47.5 -0.5607,18.7 -1.2037,39.175 -1.4288,45.5 -0.2251,6.325 -0.7175,22.975 -1.0943,37 -0.3767,14.025 -1.0827,26.175 -1.5689,27 -0.5181,0.87921 -0.6676,-10.11848 -0.3612,-26.57359 z m 204.4929,-205.27728 c 0,-0.92988 -8.0154,-11.56967 -12.9192,-17.14913 -1.6918,-1.925 -3.0772,-3.97831 -3.0785,-4.56291 0,-0.5846 -1.3523,-2.35629 -3.0023,-3.93709 -1.65,-1.5808 -3,-3.50582 -3,-4.27782 0,-0.772 -3.8156,-5.25373 -8.4791,-9.95941 -4.6635,-4.70567 -8.7181,-9.30867 -9.0101,-10.22889 -0.2921,-0.92022 -2.1015,-2.42201 -4.0209,-3.33732 -1.9195,-0.91531 -3.4899,-2.06168 -3.4899,-2.5475 0,-0.48581 -1.8886,-2.13309 -4.1968,-3.66063 -2.3083,-1.52754 -4.6708,-3.1608 -5.25,-3.62947 -0.5793,-0.46868 -3.8418,-2.89883 -7.25,-5.40035 -3.4083,-2.50151 -6.4775,-5.43229 -6.8204,-6.51284 -0.343,-1.08056 -2.3919,-3.38571 -4.5532,-5.12257 -2.1613,-1.73686 -3.9296,-3.73483 -3.9296,-4.43994 0,-0.70511 -2.025,-3.42571 -4.5,-6.04578 -2.475,-2.62008 -4.5,-5.53721 -4.5,-6.48253 0,-0.94532 -1.2821,-2.6317 -2.8491,-3.74751 -1.6305,-1.16098 -3.6115,-4.07732 -4.6315,-6.8181 -0.9803,-2.63413 -2.1732,-5.21684 -2.6509,-5.73934 -0.4777,-0.5225 -0.8685,-1.6719 -0.8685,-2.55422 0,-0.88232 -1.3148,-3.67749 -2.9218,-6.21149 -1.6071,-2.534 -2.6679,-4.86122 -2.3575,-5.17161 0.3103,-0.31039 0.1318,-1.13772 -0.3968,-1.83851 -0.5287,-0.7008 -1.0414,-2.55621 -1.1395,-4.12315 -0.098,-1.56694 -1.1562,-4.94194 -2.3513,-7.5 -1.1951,-2.55806 -2.2975,-5.55102 -2.4497,-6.65102 -0.4541,-3.28097 -5.2315,-14.67203 -7.7488,-18.47599 -1.3582,-2.05231 -2.6456,-5.95633 -3.0612,-9.28294 -0.3945,-3.15759 -0.8534,-5.74107 -1.0196,-5.74107 -0.1663,0 -2.1044,0.63581 -4.307,1.41291 -2.2025,0.7771 -6.6466,1.70945 -9.8757,2.07189 -8.5189,0.95616 -11.6475,3.00226 -19.1285,12.51026 -8.9412,11.36396 -14.2201,16.92586 -23.5547,24.81763 -5.6509,4.77749 -7.6815,7.10379 -7.3402,8.40904 0.2912,1.11333 -0.2841,2.20907 -1.5021,2.86089 -1.576,0.84345 -1.8384,1.67373 -1.3015,4.11811 0.8107,3.69104 8.3842,13.8887 12.7841,17.21366 4.1644,3.14706 21.2134,11.19448 25.6718,12.11759 6.8371,1.4156 32.5782,10.36468 37.5,13.03711 2.75,1.4932 8.15,4.38726 12,6.43125 18.0505,9.58313 32.4484,18.91839 37,23.98988 1.1,1.22566 4.6134,3.54882 7.8076,5.16257 12.687,6.40979 19.5973,11.87688 37.56,29.71576 10.0416,9.9723 18.4542,18.13145 18.6949,18.13145 0.2406,0 0.4375,-0.38289 0.4375,-0.85087 z M 895.16652,412 c 0,-0.55 0.45,-1 1,-1 0.55,0 1,0.45 1,1 0,0.55 -0.45,1 -1,1 -0.55,0 -1,-0.45 -1,-1 z m 277.58938,-8.14333 c 0.2182,-0.35383 -0.7251,-0.9249 -2.0963,-1.26905 -1.6616,-0.41704 -2.4931,-1.32206 -2.4931,-2.71366 0,-1.43762 -0.4635,-1.91009 -1.488,-1.51694 -0.8599,0.32998 -1.3875,0.0586 -1.25,-0.64301 0.4711,-2.40316 2.2497,-2.58196 4.5149,-0.45388 2.0083,1.88674 2.5803,1.99792 4.4075,0.85679 1.9171,-1.19723 2.0511,-1.1255 1.5411,0.82471 -0.3557,1.3601 0.1204,2.76853 1.3106,3.87734 1.8036,1.68032 1.7515,1.7403 -1.4872,1.71119 -1.8459,-0.0166 -3.1777,-0.31966 -2.9595,-0.67349 z m -26.2841,-4.59053 c 1.3406,-1.3406 1.3633,-1.84226 0.1663,-3.6692 -1.6708,-2.54991 -0.9614,-3.74395 3.0807,-5.18546 2.7883,-0.99435 3.1559,-0.86898 4.25,1.44937 1.6842,3.56885 1.5454,3.96572 -1.5128,4.32273 -1.6981,0.19824 -2.9119,1.0634 -3.25,2.31642 -0.2967,1.1 -1.3827,2.07179 -2.4133,2.15952 -1.694,0.14422 -1.7248,0.0105 -0.3209,-1.39338 z m -2.2852,-1.79031 c 0.6957,-0.83829 1.4708,-1.31823 1.7225,-1.06653 0.6935,0.6935 -0.7155,2.5907 -1.9241,2.5907 -0.6631,0 -0.5872,-0.57378 0.2016,-1.52417 z M 321.64311,380.5 c 0.26399,-4.4 0.70402,-14.075 0.97784,-21.5 1.37451,-37.27103 2.68096,-66.70861 3.04006,-68.5 0.52111,-2.59963 -0.24115,26.78077 -1.45291,56 -0.52461,12.65 -1.06598,26.72295 -1.20304,31.27322 -0.13706,4.55026 -0.60756,8.82526 -1.04556,9.5 -0.438,0.67473 -0.58038,-2.37322 -0.31639,-6.77322 z m 992.16179,6 c -0.3471,-0.90455 -0.01,-1.5 0.8616,-1.5 0.8667,0 1.2087,0.59545 0.8616,1.5 -0.3166,0.825 -0.7043,1.5 -0.8616,1.5 -0.1573,0 -0.545,-0.675 -0.8616,-1.5 z M 1110.1665,385 c 0.825,-0.53316 2.175,-0.96937 3,-0.96937 1.3333,0 1.3333,0.1077 0,0.96937 -0.825,0.53316 -2.175,0.96937 -3,0.96937 -1.3333,0 -1.3333,-0.1077 0,-0.96937 z m 207.7836,-2.16724 c -0.6344,-1.60904 1.8438,-3.53866 3.0262,-2.3563 0.2879,0.28795 0.032,0.52354 -0.5698,0.52354 -0.6013,0 -1.2521,0.7875 -1.4462,1.75 -0.3226,1.59994 -0.4093,1.60703 -1.0102,0.0828 z M 1025.1665,361 c 0,-0.55 0.45,-1 1,-1 0.55,0 1,0.45 1,1 0,0.55 -0.45,1 -1,1 -0.55,0 -1,-0.45 -1,-1 z M 326.13749,275.65187 c -0.25903,-3.76647 -0.16456,-7.03631 0.20993,-7.26631 1.18067,-0.72512 1.35392,0.92466 0.79962,7.61444 l -0.53857,6.5 -0.47098,-6.84813 z m 103.29986,-15.25604 c 0.33229,-0.33229 1.19479,-0.36781 1.91667,-0.0789 0.79773,0.31922 0.56078,0.55618 -0.60417,0.60416 -1.05416,0.0434 -1.64479,-0.19293 -1.3125,-0.52522 z m 4.97917,-0.0852 c 0.9625,-0.25152 2.5375,-0.25152 3.5,0 0.9625,0.25153 0.175,0.45733 -1.75,0.45733 -1.925,0 -2.7125,-0.2058 -1.75,-0.45733 z m 6.5,-0.97295 c 0.6875,-0.27741 1.8125,-0.27741 2.5,0 0.6875,0.27741 0.125,0.50439 -1.25,0.50439 -1.375,0 -1.9375,-0.22698 -1.25,-0.50439 z m 12.98333,-0.46181 c 0.67834,-0.68342 1.48524,-0.99067 1.79313,-0.68278 0.30789,0.30789 -0.24711,0.86705 -1.23333,1.24258 -1.4252,0.54268 -1.54006,0.42782 -0.5598,-0.5598 z m 17.26667,-1.25924 c 0,-0.21085 0.9,-0.61872 2,-0.90638 1.1,-0.28766 2,-0.11514 2,0.38337 0,0.49851 -0.9,0.90638 -2,0.90638 -1.1,0 -2,-0.17252 -2,-0.38337 z m 55.27083,-4.2208 c 0.33229,-0.33229 1.1948,-0.36781 1.91667,-0.0789 0.79773,0.31922 0.56078,0.55618 -0.60417,0.60416 -1.05416,0.0434 -1.64479,-0.19293 -1.3125,-0.52522 z m 34,-3 c 0.33229,-0.33229 1.1948,-0.36781 1.91667,-0.0789 0.79773,0.31922 0.56078,0.55618 -0.60417,0.60416 -1.05416,0.0434 -1.64479,-0.19293 -1.3125,-0.52522 z m 125.32264,-8.7788 c 0.33394,-0.87025 2.08334,-1.38659 4.71861,-1.39272 l 4.18792,-0.01 -3.5,1.31664 c -4.62633,1.74034 -6.05011,1.76294 -5.40653,0.0858 z m 11.00783,-0.45312 c -0.25451,-0.41181 0.40608,-0.81419 1.46798,-0.89418 2.29656,-0.17299 2.4986,0.29838 0.46275,1.07961 -0.80739,0.30982 -1.67622,0.22638 -1.93073,-0.18543 z m 9.8987,-0.21721 c -2.35454,-0.94903 -2.32016,-0.96276 3.5,-1.39807 2.475,-0.18512 3.6,-0.11086 2.5,0.16501 -1.1,0.27587 -2.45,0.84754 -3,1.27038 -0.55,0.42285 -1.9,0.40605 -3,-0.0373 z m -5.5,-0.9467 c 0,-0.55 0.19844,-1 0.44098,-1 0.24254,0 0.7191,0.45 1.05902,1 0.33992,0.55 0.14148,1 -0.44098,1 -0.58246,0 -1.05902,-0.45 -1.05902,-1 z m 16,0.11803 c 0,-0.55 0.45,-1.27811 1,-1.61803 0.55,-0.33992 1,-0.16803 1,0.38197 0,0.55 -0.45,1.27811 -1,1.61803 -0.55,0.33992 -1,0.16803 -1,-0.38197 z m 3,-0.55901 c 0,-1.05548 1.91911,-1.49891 2.48992,-0.57533 0.34546,0.55897 -0.0734,1.01631 -0.9309,1.01631 -0.85746,0 -1.55902,-0.19844 -1.55902,-0.44098 z m 5,-0.55902 c -0.90129,-0.58246 -1.02463,-0.97549 -0.30902,-0.98469 0.65504,-0.008 1.4691,0.43469 1.80902,0.98469 0.7673,1.24153 0.42112,1.24153 -1.5,0 z m 6.72519,-0.27377 c -0.4623,-1.20472 0.39702,-1.4446 4.6032,-1.285 2.84439,0.10793 6.25739,-0.18891 7.58445,-0.65966 1.48212,-0.52574 2.80648,-0.46225 3.43333,0.1646 1.54014,1.54014 0.80269,1.7933 -7.44938,2.55734 -6.24812,0.57849 -7.7045,0.43996 -8.1716,-0.77728 z m 20.27481,-0.75761 c 0,-0.53274 0.675,-0.96862 1.5,-0.96862 0.825,0 1.5,0.17686 1.5,0.39301 0,0.21616 -0.675,0.65203 -1.5,0.96862 -0.825,0.31658 -1.5,0.13972 -1.5,-0.39301 z M 554.83319,237.33333 C 553.85007,236.35021 554.02208,232 555.04408,232 c 1.59394,0 3.16794,2.71784 2.5327,4.37325 -0.66001,1.71997 -1.64057,2.0631 -2.74359,0.96008 z M 749.16652,237 c 0,-0.55 0.19844,-1 0.44098,-1 0.24254,0 0.7191,0.45 1.05902,1 0.33992,0.55 0.14148,1 -0.44098,1 -0.58246,0 -1.05902,-0.45 -1.05902,-1 z m 6.65407,-0.45909 c -0.46861,-1.22117 1.02218,-1.44208 9.14302,-1.35479 5.3366,0.0574 14.42791,-0.17649 20.20291,-0.51968 5.775,-0.34318 15.675,-0.89797 22,-1.23286 6.325,-0.33489 13.8625,-0.77166 16.75,-0.9706 2.90067,-0.19985 5.25,0.0631 5.25,0.58765 0,0.52215 -1.9125,1.03723 -4.25,1.14461 -2.3375,0.10739 -5.825,0.29839 -7.75,0.42446 -1.925,0.12606 -9.125,0.46863 -16,0.76124 -6.875,0.29262 -17.225,0.98646 -23,1.54187 -15.39593,1.4807 -21.67234,1.37344 -22.34593,-0.3819 z M 1304.1665,237 c -1.2927,-0.8354 -1.2663,-0.97149 0.191,-0.98469 0.93,-0.008 1.9691,0.43469 2.309,0.98469 0.7822,1.2656 -0.5416,1.2656 -2.5,0 z M 286.2371,234.33688 c -2.04547,-1.4327 -2.24836,-2.188 -1.74023,-6.47834 1.18022,-9.96517 6.66103,-17.36967 11.35219,-15.33666 1.70394,0.73844 1.69254,0.81527 -0.18254,1.23012 -5.11197,1.13097 -10.22481,10.08287 -9.33881,16.35103 0.68166,4.8225 6.58578,2.79444 9.75698,-3.35152 0.78,-1.51167 1.62217,-2.54451 1.87149,-2.29518 1.01958,1.01957 -3.69181,8.16467 -6.44419,9.773 -2.73972,1.60093 -3.1314,1.60891 -5.27489,0.10755 z m 552.40545,-2.3968 c 1.84037,-0.54914 3.34771,-0.51634 3.95,0.0859 0.63196,0.63196 -0.41308,0.94379 -2.97603,0.88802 -3.90367,-0.0849 -3.9151,-0.0964 -0.97397,-0.97397 z M 844.16652,232 c 0,-0.55 1.6875,-1.06272 3.75,-1.13938 3.75911,-0.13971 4.77246,-0.20915 17.75,-1.21641 3.85,-0.29881 10.97446,-0.80333 15.83214,-1.12113 4.85767,-0.31781 9.13267,-0.61881 9.5,-0.66888 0.36732,-0.0501 1.56786,9.3e-4 2.66786,0.11333 4.55052,0.46501 -3.61194,1.80886 -15.11262,2.48812 -6.53806,0.38615 -16.16238,1.10499 -21.38738,1.59742 -12.19648,1.14946 -13,1.14618 -13,-0.0531 z m -538.97363,-2.46823 c -0.70934,-0.8547 -2.09095,-3.0115 -3.07024,-4.79289 -0.97929,-1.78138 -2.18169,-3.15583 -2.672,-3.05432 -0.4903,0.1015 -0.93527,-1.361 -0.98882,-3.25 -0.11705,-4.12942 1.33786,-4.48223 2.82301,-0.68456 2.01879,5.16219 4.19568,9.25 4.92592,9.25 0.40111,0 1.30115,-3.03071 2.00008,-6.73491 0.69894,-3.7042 2.13604,-8.0917 3.19357,-9.75 l 1.92277,-3.01509 -0.63353,5.5 c -1.80632,15.68144 -4.06853,20.66736 -7.50076,16.53177 z M 900.16652,228 c 0,-0.55 0.42344,-1 0.94098,-1 0.51754,0 1.2191,0.45 1.55902,1 0.33992,0.55 -0.0835,1 -0.94098,1 -0.85746,0 -1.55902,-0.45 -1.55902,-1 z m -578.95803,-4.25 c -1.86663,-6.22403 -2.5248,-15.33356 -1.16842,-16.17185 0.61955,-0.3829 1.12645,-1.79463 1.12645,-3.13717 0,-1.34254 0.525,-2.44098 1.16667,-2.44098 0.64166,0 0.87057,-0.2961 0.50867,-0.65799 -0.99782,-0.99782 1.3342,-3.34201 3.32466,-3.34201 0.96531,0 2.32716,0.68928 3.02634,1.53173 1.73469,2.09018 -0.29783,8.83066 -3.68379,12.21662 -2.41147,2.41148 -2.46402,2.73309 -1.42324,8.70971 1.34687,7.73428 1.35353,7.54194 -0.26102,7.54194 -0.73794,0 -1.91529,-1.9125 -2.61632,-4.25 z m 4.43235,-18.70034 c 1.76581,-3.4147 1.86357,-4.04966 0.62351,-4.04966 -0.71549,0 -3.09783,5.1135 -3.09783,6.64922 0,1.16235 1.15822,-0.0545 2.47432,-2.59956 z m 306.11846,7.10047 c -0.65222,-1.05533 -0.005,-1.61222 4.80132,-4.13258 1.59175,-0.83465 3.84175,-3.23759 5,-5.33986 l 2.1059,-3.82231 -5.25,-4.75712 c -3.05296,-2.76633 -5.25,-5.60819 -5.25,-6.79084 0,-2.04351 8.97695,-11.30742 10.95716,-11.30742 2.20421,0 0.86697,2.59788 -2.43969,4.73963 -1.90177,1.23179 -4.23512,3.42602 -5.18523,4.87605 -1.72233,2.62862 -1.71509,2.64719 2.43971,6.26038 2.29193,1.99317 4.6658,4.97394 5.27525,6.62394 l 1.1081,3 1.29485,-3 c 2.80818,-6.50617 8.55553,-9.25473 10.22962,-4.89212 0.88487,2.30594 -2.42229,8.03269 -5.91642,10.24502 -2.7124,1.71737 -2.80238,1.96521 -1.26987,3.49772 2.16013,2.16013 4.33864,2.08053 10.59951,-0.38727 2.84187,-1.12016 5.35314,-1.85056 5.58059,-1.6231 0.22746,0.22746 -1.7082,1.81895 -4.30145,3.53665 -7.81534,5.17667 -12.26673,4.07738 -15.69881,-3.8769 -0.8306,-1.925 -1.55357,-2.825 -1.60662,-2 -0.28117,4.37271 -10.70214,12.01692 -12.47392,9.15013 z m 21.92713,-14.82086 c 0.90194,-1.37654 1.44764,-2.69506 1.21266,-2.93004 -0.7597,-0.75969 -5.73257,3.70085 -5.73257,5.14197 0,2.00761 2.58359,0.74326 4.51991,-2.21193 z M 971.42356,198.75 c -2.02316,-2.56007 -6.57803,-15.40649 -7.01674,-19.78982 -0.43432,-4.33953 -0.2842,-4.65693 3.40267,-7.19412 7.62988,-5.25064 12.62748,-5.50837 15.56619,-0.80274 2.5339,4.05741 7.14837,1.21192 10.31152,-6.35856 1.18814,-2.84364 1.91128,-3.5728 2.73067,-2.75341 0.81939,0.81939 0.76961,3.23854 -0.18797,9.13507 -1.35662,8.35377 -0.7386,11.01358 2.55906,11.01358 0.75766,0 1.37754,0.45 1.37754,1 0,0.55 -1.05275,1 -2.33946,1 -2.57358,0 -4.66052,-3.3795 -4.66052,-7.54705 0,-2.97206 -2.02623,-3.18643 -4.48089,-0.47407 -1.58242,1.74856 -1.64832,2.48798 -0.56617,6.35303 0.67357,2.40578 1.07222,5.45278 0.88587,6.77112 -0.32397,2.29199 -0.43368,2.24368 -2.50485,-1.10303 -1.19132,-1.925 -2.49401,-5.3 -2.89488,-7.5 -0.40086,-2.2 -1.56365,-5.07319 -2.58396,-6.38486 -1.02032,-1.31167 -1.85512,-2.99917 -1.85512,-3.75 0,-2.57709 -4.08053,-1.3622 -8.01014,2.38486 -3.88933,3.70866 -3.91996,3.79588 -2.77828,7.9116 0.94327,3.40045 1.68176,4.26707 4.03769,4.73825 1.58581,0.31717 2.62801,0.9897 2.31601,1.49453 -0.312,0.50482 -1.40302,0.69931 -2.4245,0.43218 -1.76078,-0.46045 -1.79302,-0.144 -0.62079,6.09388 0.68004,3.61876 1.12134,6.57956 0.98067,6.57956 -0.14068,0 -0.7003,-0.5625 -1.24362,-1.25 z m -2.72357,-12.5 c -0.61102,-3.32512 -2.53347,-6.9796 -2.53347,-4.81602 0,1.45881 2.29791,8.56602 2.76958,8.56602 0.24915,0 0.1429,-1.6875 -0.23611,-3.75 z m 38.46651,-1.75362 c 0,-0.277 0.9,-2.18283 2,-4.2352 2.7337,-5.1005 2.5173,-8.32959 -1,-14.92084 -3.4845,-6.52978 -3.746,-9.35526 -1.0884,-11.76031 2.37,-2.14482 7.4416,-1.76447 7.8881,0.59158 0.2277,1.20142 -0.208,1.53438 -1.5489,1.18374 -1.026,-0.26833 -2.9069,0.35535 -4.1797,1.38596 l -2.314,1.87383 3.2782,6.29894 c 3.6884,7.08708 4.2443,13.48409 1.5314,17.62444 -1.3823,2.1097 -4.5667,3.47492 -4.5667,1.95786 z M 636.03853,150.25 c -0.59317,-1.5125 -1.29903,-7.475 -1.56858,-13.25 l -0.4901,-10.5 3.61553,-2.81034 c 4.23069,-3.2885 6.8135,-2.93298 8.5138,1.1719 0.95873,2.31459 0.80172,3.74662 -0.91341,8.33073 -1.13914,3.04461 -3.00049,6.37669 -4.13633,7.40461 -1.78207,1.61276 -1.97495,2.59095 -1.40708,7.13603 0.5537,4.43172 0.40484,5.26707 -0.93863,5.26707 -0.87819,0 -2.08203,-1.2375 -2.6752,-2.75 z m 6.07331,-20.01414 c 1.09177,-3.95406 -0.0847,-7.90777 -1.36738,-4.59532 -0.39602,1.0227 -1.08149,3.78011 -1.52326,6.12756 -0.66609,3.53938 -0.57151,4.0758 0.55393,3.14177 0.74643,-0.61949 1.79796,-2.7228 2.33671,-4.67401 z m 359.72136,18.09747 c -0.3667,-0.36666 -0.6667,-1.32176 -0.6667,-2.12244 0,-1.18064 0.2835,-1.2205 1.5,-0.21089 0.825,0.68469 1.5,1.63979 1.5,2.12244 0,1.03552 -1.3836,1.16058 -2.3333,0.21089 z m -335.74319,-1.41666 c -0.0421,-0.22917 -0.24779,-1.09167 -0.45712,-1.91667 -1.73408,-6.83407 -2.44247,-10.00018 -2.93722,-13.12764 l -0.57387,-3.62764 -3.70004,3.62764 c -3.35954,3.2938 -3.67187,4.05457 -3.39389,8.26687 0.31474,4.76957 -0.85123,6.78684 -2.65864,4.59976 -1.37564,-1.66462 -4.20271,-15.63622 -4.20271,-20.77016 0,-5.92061 2.99757,-5.14069 4.9263,1.28176 0.78447,2.61217 2.01283,4.74941 2.72968,4.74941 1.55421,0 5.34402,-7.06344 5.34402,-9.96016 0,-2.77698 2.84647,-2.60225 3.42369,0.21016 0.84408,4.11254 2.54508,26.11456 2.05671,26.60293 -0.26422,0.26422 -0.51483,0.2929 -0.55691,0.0637 z M 1022.4097,107.75 c -3.1868,-3.9766 -5.6155,-21.78384 -3.1767,-23.291119 1.6345,-1.010165 1.7367,-0.58169 2.097,8.796291 0.2319,6.032713 0.8321,9.412408 1.9304,10.868778 1.5687,2.08019 1.6207,2.04651 3.2918,-2.12999 1.9909,-4.975691 3.0337,-4.746232 2.0583,0.45292 -1.0139,5.40425 -4.0434,7.99523 -6.2008,5.30312 z m 12.7568,-2.49955 c 0,-1.60392 1.5652,-7.37892 3.4783,-12.833334 1.9131,-5.454414 3.4881,-10.649516 3.5,-11.544671 0.029,-2.19631 2.2921,-3.94139 3.8568,-2.974354 1.8435,1.139368 4.1933,12.279803 4.0381,19.145012 -0.1499,6.632167 -1.2755,7.096117 -2.2612,0.931998 -0.3579,-2.238074 -1.0257,-3.837462 -1.484,-3.554196 -0.4584,0.283266 -1.6558,-0.08632 -2.6609,-0.821303 -1.7472,-1.277561 -1.7317,-1.387648 0.3527,-2.503151 1.4663,-0.784756 2.1802,-2.110836 2.1802,-4.049847 0,-3.637319 -0.9059,-6.046604 -2.2737,-6.046604 -0.5828,0 -0.7884,0.27127 -0.4568,0.602823 0.3315,0.331552 0.1395,1.794052 -0.4267,3.25 -1.4791,3.803487 -4.6431,16.135027 -5.0211,19.570057 -0.436,3.96186 -2.8217,4.66154 -2.8217,0.82757 z m -32.8,0.54955 c -1.8345,-1.83454 -1.4242,-5.77657 1.1845,-11.378864 C 1006.2024,88.726973 1010.2574,85 1013.8014,85 c 2.39,0 3.2909,2.309788 1.3651,3.5 -0.55,0.339919 -1,0.141476 -1,-0.440983 0,-0.582459 -0.8633,-1.059017 -1.9184,-1.059017 -3.9179,0 -9.8048,14.2188 -7.1908,17.36838 0.9651,1.16289 1.8963,1.2981 3.9367,0.57159 2.5113,-0.89422 2.5554,-0.86078 0.7314,0.5542 -2.3349,1.81131 -5.713,1.9517 -7.3589,0.30583 z m 25.8318,-10.05 c 0.017,-0.6875 0.753,-2.15 1.6345,-3.25 1.4085,-1.757609 1.5259,-1.777995 0.9682,-0.168213 -0.349,1.007484 -0.6345,2.469984 -0.6345,3.25 0,0.780017 -0.45,1.418213 -1,1.418213 -0.55,0 -0.9857,-0.5625 -0.9682,-1.25 z M 855.32441,31 c 0,-1.375 0.22698,-1.9375 0.50439,-1.25 0.27741,0.6875 0.27741,1.8125 0,2.5 -0.27741,0.6875 -0.50439,0.125 -0.50439,-1.25 z m -548.65789,0 c -0.33992,-0.55 -0.16803,-1 0.38197,-1 0.55,0 1.27811,0.45 1.61803,1 0.33992,0.55 0.16803,1 -0.38197,1 -0.55,0 -1.27811,-0.45 -1.61803,-1 z"
     id="path3069"
     style="fill:#000000" />
</svg>
