<?xml version="1.0" encoding="UTF-8" standalone="no"?>
<!-- Created with Inkscape (http://www.inkscape.org/) -->

<svg
   xmlns:dc="http://purl.org/dc/elements/1.1/"
   xmlns:cc="http://creativecommons.org/ns#"
   xmlns:rdf="http://www.w3.org/1999/02/22-rdf-syntax-ns#"
   xmlns:svg="http://www.w3.org/2000/svg"
   xmlns="http://www.w3.org/2000/svg"
   version="1.1"
   width="1605.856"
   height="2250.9438"
   id="svg2">
  <metadata
     id="metadata8">
    <rdf:RDF>
      <cc:Work
         rdf:about="">
        <dc:format>image/svg+xml</dc:format>
        <dc:type
           rdf:resource="http://purl.org/dc/dcmitype/StillImage" />
        <dc:title></dc:title>
      </cc:Work>
    </rdf:RDF>
  </metadata>
  <defs
     id="defs6" />
  <path
     d="m 881.63539,2248.5496 c 6.05142,-2.7518 20.37209,-7.3232 36.20084,-11.556 6.23493,-1.6673 12.6341,-3.7026 14.22038,-4.5229 1.58628,-0.8203 6.60998,-2.6604 11.16377,-4.0891 8.76969,-2.7514 19.21767,-6.5367 24.40773,-8.843 1.72047,-0.7645 5.99547,-1.9259 9.5,-2.5808 14.30306,-2.6731 45.82059,-12.4344 54.92199,-17.0098 5.5234,-2.7767 60.6523,-20.9662 66.8858,-22.0687 3.0603,-0.5412 9.3891,-2.4959 14.0641,-4.3437 4.675,-1.8478 11.875,-3.8675 16,-4.4883 4.125,-0.6207 12.675,-2.6431 19,-4.4941 6.325,-1.8511 13.3,-3.8143 15.5,-4.3627 2.2,-0.5484 7.512,-2.4603 11.8044,-4.2486 5.8128,-2.4218 8.1796,-3.9771 9.2748,-6.095 0.8087,-1.564 3.1468,-4.2958 5.1956,-6.0708 4.1109,-3.5613 21.6017,-21.2655 26.4535,-26.7761 1.6948,-1.925 6.5926,-7.2175 10.884,-11.7611 13.6219,-14.4225 19.3669,-23.8399 29.1226,-47.7389 8.3091,-20.3551 12.7654,-33.5887 12.7594,-37.891 0,-2.26 0.435,-8.609 0.9735,-14.109 3.3087,-33.7913 3.2095,-56.6767 -0.3194,-73.6795 -0.8356,-4.0263 -2.2614,-11.5955 -3.1684,-16.8205 -0.907,-5.225 -2.0779,-10.85 -2.6021,-12.5 -0.9814,-3.0894 -3.7789,-16.6691 -5.974,-29 -0.6853,-3.85 -2.0704,-8.7747 -3.0778,-10.9437 -2.8187,-6.0686 -5.0527,-20.9115 -4.5238,-30.0563 0.4886,-8.4457 4.4533,-23.1532 7.4445,-27.6155 7.9065,-11.7953 8.851,-12.7889 21.5618,-22.684 9.1122,-7.0936 12.2188,-8.6322 27.6914,-13.7144 18.9358,-6.2197 24.6879,-9.9783 30.5322,-19.9508 9.127,-15.574 10.0843,-49.2193 2.06,-72.3963 -2.6258,-7.5841 -7.4013,-14.3259 -15.0743,-21.281 l -4.0179,-3.642 -78.5,-0.6412 c -43.175,-0.3527 -88.0041,-0.8552 -99.6203,-1.1168 -17.0993,-0.385 -21.3366,-0.2148 -22.257,0.8942 -1.1952,1.4401 -1.3007,15.6841 -0.6733,90.8697 0.2677,32.0788 0.085,38.9193 -1.0631,39.8725 -1.1246,0.9333 -1.4064,0.6082 -1.4926,-1.722 -0.059,-1.5798 -0.2065,-3.5474 -0.3289,-4.3724 -0.1225,-0.825 -0.3066,-3.525 -0.4091,-6 -0.133,-3.2118 -0.4526,-4.0789 -1.1166,-3.029 -1.4225,2.2493 -2.2833,0.6027 -2.5818,-4.9385 -0.3488,-6.4736 0.3289,-9.0518 2.1914,-8.337 1.2181,0.4674 1.4234,-1.1128 1.2756,-9.8192 -0.2011,-11.8506 -0.8101,-17.0649 -1.9133,-16.3831 -0.4208,0.2601 -0.8425,-4.0195 -0.9371,-9.5102 -0.096,-5.5937 0.2359,-9.983 0.7557,-9.983 1.4638,0 3.665,-6.0703 2.4812,-6.8424 -2.2542,-1.4702 -3.191,-24.0619 -1.7374,-41.9012 0.564,-6.9213 0.4864,-7.283 -1.7416,-8.127 -1.2825,-0.4858 -47.1068,-1.1764 -101.8318,-1.5347 -54.725,-0.3583 -124.025,-0.8578 -154,-1.11 -29.975,-0.2521 -84.425,-0.7106 -121,-1.0188 -36.575,-0.3082 -67.97501,-0.7868 -69.77779,-1.0637 -1.87487,-0.2878 -3.00867,-0.9387 -2.64902,-1.5206 0.60398,-0.9773 61.09038,-0.787 197.42681,0.6211 27.225,0.2812 87.075,0.7924 133,1.136 45.925,0.3436 91.15,0.7172 100.5,0.8301 9.35,0.113 17.7437,0.013 18.6527,-0.2229 1.4781,-0.383 1.5953,-2.084 1.109,-16.0976 -0.4766,-13.7339 -0.3411,-15.8375 1.0973,-17.0313 0.9025,-0.749 1.7028,-1.1943 1.7783,-0.9894 0.075,0.2048 0.413,7.4382 0.75,16.0743 0.4158,10.6555 1.0217,16.1102 1.8852,16.9724 0.9958,0.9944 13.7152,1.3026 58.5,1.4177 31.4751,0.081 73.9977,0.2731 94.4946,0.4271 20.4968,0.1541 37.5291,0.018 37.8494,-0.3023 0.3203,-0.3203 -1.5999,-1.6919 -4.2671,-3.048 -10.3879,-5.2817 -19.3154,-13.6043 -19.7048,-18.3697 -0.1106,-1.3531 1.1499,-2.0857 5.3554,-3.1127 3.025,-0.7388 10.675,-2.9109 17,-4.8269 6.325,-1.9161 13.075,-3.8754 15,-4.3541 4.9434,-1.2293 19.09,-6.5163 25.3132,-9.4603 2.8886,-1.3666 8.5665,-5.4699 12.6176,-9.1186 4.0512,-3.6486 8.6127,-7.0686 10.1368,-7.5999 1.9187,-0.6689 3.2843,-2.2517 4.4399,-5.1463 0.9179,-2.2992 4.512,-8.9312 7.9868,-14.7378 9.2752,-15.4991 9.7827,-16.9807 9.057,-26.4425 -0.7326,-9.5511 -5.0992,-19.3328 -12.4395,-27.866 -16.9749,-19.7335 -20.2428,-25.252 -23.2326,-39.2333 -3.5483,-16.5925 -2.8186,-29.9971 2.5802,-47.4007 7.0771,-22.8138 8.8384,-28.0184 11.2482,-33.2384 1.4569,-3.1561 2.324,-6.0633 1.9268,-6.4605 -0.8202,-0.8202 -11.1598,-0.9397 -151.7971,-1.7541 l -101.6628,-0.5887 -0.6311,7.7709 c -0.3471,4.2739 -1.004,10.4708 -1.4598,13.7708 -0.7178,5.1969 -0.8458,4.2186 -0.9562,-7.309 -0.085,-8.8886 -0.4712,-13.0966 -1.1624,-12.6694 -1.3633,0.8426 -0.1009,50.7124 1.3067,51.6198 0.8964,0.5779 0.3953,22.6136 -0.809,35.5716 -0.2156,2.3203 0.084,4.5067 0.6666,4.8669 0.7289,0.4505 0.8256,7.3831 0.3107,22.287 -0.411,11.8982 -0.6402,22.0831 -0.5093,22.6331 0.4552,1.9123 1.0652,39.1089 0.9267,56.5 -0.077,9.625 -0.1409,20.7625 -0.1426,24.75 0,5.1021 -0.3708,7.25 -1.2438,7.25 -2.0665,0 -2.4673,-8.1631 -2.9459,-60 -0.764,-82.7508 -1.7231,-147.6518 -2.4338,-164.6887 -0.075,-1.8062 -0.8341,-2.2802 -4.3413,-2.7121 -2.3375,-0.2878 -37.55,-0.7712 -78.25,-1.0742 -40.7,-0.303 -85.25,-0.7666 -99,-1.0302 -24.27653,-0.4654 -65.08426,-0.9449 -169.5,-1.9919 -27.775,-0.2785 -71.23143,-0.7595 -96.56984,-1.0689 -25.33841,-0.3094 -47.28525,-0.2575 -48.77076,0.1153 l -2.70092,0.6779 0.27076,19.6364 0.27076,19.6364 4.5,0.2637 c 2.475,0.1451 5.60153,0.5135 6.94785,0.8187 3.94592,0.8947 0.41232,2.3845 -5.69785,2.4023 L 613,1422 l 0,5 c 0,3.7778 0.36667,5 1.5,5 0.825,0 1.5,0.45 1.5,1 0,0.55 -0.675,1 -1.5,1 -1.64997,0 -1.69525,0.4471 -1.50347,14.844 0.0685,5.1392 0.55584,10.4786 1.08306,11.8653 0.52722,1.3867 1.24402,6.5424 1.59287,11.4571 0.51038,7.1903 0.37264,8.877 -0.70512,8.6347 -1.10522,-0.2485 -1.30834,7.2169 -1.16177,42.6989 0.0977,23.65 0.40616,50.65 0.68549,60 0.27933,9.35 0.76212,26.2165 1.07287,37.4811 0.31075,11.2647 0.79807,20.7147 1.08294,21 0.28487,0.2854 6.5276,0.6733 13.87274,0.8621 l 13.35479,0.3432 0.68366,-3.6442 c 0.44989,-2.3981 0.0928,-5.5225 -1.04421,-9.1375 -1.05773,-3.3628 -1.48009,-6.7366 -1.08902,-8.699 0.35136,-1.7631 1.07913,-5.8728 1.61726,-9.1326 1.08748,-6.5876 1.32782,-7.0806 2.9601,-6.0717 0.7736,0.4781 0.91967,2.7147 0.45853,7.0208 -0.76989,7.1891 -0.20156,8.9447 2.4383,7.5318 1.78195,-0.9536 6.1099,-0.3762 6.09081,0.8126 -0.006,0.3484 -1.80559,1.3875 -4,2.3091 -3.87059,1.6257 -3.98978,1.82 -3.98828,6.5 0.002,6.7901 2.61059,11.5113 6.97032,12.6164 3.01721,0.7648 3.23504,1.0126 1.66339,1.8921 -0.99466,0.5567 -4.35701,0.9507 -7.47187,0.8757 -17.5194,-0.4219 -32.29339,-0.2632 -32.91016,0.3535 -0.90109,0.9011 -0.85004,23.2165 0.17519,76.5866 0.44903,23.375 0.99624,53.975 1.21602,68 0.21978,14.025 0.59365,32.9803 0.83081,42.1228 0.34568,13.3254 0.14925,16.9952 -0.99021,18.5 -1.30517,1.7237 -1.43718,1.5296 -1.61395,-2.3728 -0.10589,-2.3375 -0.27684,-5.9375 -0.37991,-8 -0.10306,-2.0625 -0.49532,-23.55 -0.87169,-47.75 -1.52842,-98.276 -2.67448,-146.8174 -3.48601,-147.6495 -0.34841,-0.3573 -32.13348,-0.9344 -70.63348,-1.2825 -38.5,-0.3481 -89.575,-0.8358 -113.5,-1.0836 -23.925,-0.2479 -76.72575,-0.717 -117.33501,-1.0424 -70.69322,-0.5666 -73.89258,-0.5141 -75.18817,1.2331 -1.30855,1.7647 -1.39846,1.7638 -2.72713,-0.028 -1.23283,-1.663 -3.39877,-1.9051 -21.08539,-2.3569 -10.84129,-0.2769 -21.27582,-0.2101 -23.18786,0.1486 L 184,1642.091 l 0,32.1547 c 0,20.5589 -0.34644,31.8083 -0.96067,31.194 -0.56564,-0.5656 -1.0059,-13.0868 -1.07066,-30.45 -0.0605,-16.2191 -0.35197,-30.5018 -0.64773,-31.7393 -0.29577,-1.2375 -1.27647,-2.2643 -2.17935,-2.2818 -1.37863,-0.027 -1.32472,-0.2713 0.3366,-1.5271 1.82525,-1.3797 1.97227,-2.6723 1.90162,-16.7182 -0.0421,-8.3726 0.25196,-16.5729 0.65349,-18.2229 0.48497,-1.9928 0.79739,0.3573 0.93058,7 0.28838,14.3823 1.0136,26.8108 1.59857,27.3958 0.27768,0.2777 10.89926,0.6901 23.60351,0.9165 l 23.09864,0.4117 -0.66298,-3.534 c -0.39398,-2.1001 -0.24001,-3.7955 0.37944,-4.1783 0.6003,-0.371 1.30063,0.6468 1.6512,2.3996 1.13113,5.6556 0.62186,5.5833 39.7722,5.6529 51.48395,0.092 245.58217,1.4764 280.59554,2.0019 39.34287,0.5906 57.03755,0.5287 58.22222,-0.2034 0.62368,-0.3855 0.76145,-10.4499 0.37964,-27.7339 -0.6811,-30.8324 -1.34238,-71.0851 -2.12135,-129.1288 -0.29525,-22 -0.82714,-42.475 -1.18197,-45.5 -0.35482,-3.025 -0.56715,-5.8375 -0.47184,-6.25 0.0953,-0.4125 -0.2174,-0.75 -0.69492,-0.75 -1.04176,0 -3.74836,-9.5341 -4.68414,-16.5 -0.62587,-4.659 -0.55726,-4.8908 1.00605,-3.3986 0.92275,0.8808 2.28292,3.8058 3.0226,6.5 1.25993,4.5892 1.35052,3.7231 1.43429,-13.7118 0.0492,-10.2358 -0.19675,-20.6983 -0.5465,-23.25 -0.61067,-4.4553 -0.76719,-4.6396 -3.94099,-4.6396 -1.81778,0 -3.61286,0.498 -3.98907,1.1068 -0.43368,0.7017 -0.91276,0.7466 -1.30902,0.1226 -0.65644,-1.0335 -39.48502,-1.8024 -138.125,-2.735 -30.525,-0.2886 -67.65,-0.7347 -82.5,-0.9913 -53.4704,-0.9241 -144.50286,-2.0031 -169,-2.0031 l -25,0 -0.21995,4 c -0.12097,2.2 0.25379,6.475 0.83279,9.5 1.20319,6.2861 0.75903,14.1651 -0.57782,10.25 -0.42256,-1.2375 -1.22609,-2.25 -1.78564,-2.25 -0.68409,0 -0.80834,14.4953 -0.37931,44.25 0.57365,39.7834 0.48557,43.9773 -0.87259,41.5484 -1.25099,-2.2373 -1.60212,-9.6279 -2.04292,-43 -0.29277,-22.1641 -0.69755,-44.9686 -0.89952,-50.6767 -0.52924,-14.9573 0.52155,-14.3135 -24.23172,-14.8458 -10.90283,-0.2345 -20.27332,-0.5819 -20.82332,-0.7722 -0.55,-0.1902 8.6975,-0.3813 20.55,-0.4248 15.33483,-0.056 21.89609,-0.425 22.75,-1.2789 1.28729,-1.2873 1.63807,-14.5165 0.55815,-21.05 -0.45864,-2.7748 -1.10594,-3.75 -2.48899,-3.75 -2.44571,0 -2.36932,-1.4998 0.20764,-4.0768 1.81991,-1.8199 2.0848,-3.3351 2.14157,-12.25 0.0783,-12.2899 -1.2062,-131.7442 -1.73305,-161.1732 -0.46399,-25.918 -1.35968,-96.4494 -2.13345,-168 -0.32118,-29.7 -0.92301,-54.36876 -1.33739,-54.81947 -0.41438,-0.45071 -4.97466,-0.34942 -10.13395,0.22508 -5.15929,0.57451 -14.33053,1.50163 -20.38053,2.06027 -6.05,0.55863 -12.8,1.21458 -15,1.45766 -2.2,0.24307 -7.825,0.70967 -12.5,1.03688 -4.675,0.32721 -11.875,1.02482 -16,1.55023 -4.125,0.52542 -13.125,1.41029 -20,1.96639 -6.875,0.55609 -13.625,1.21816 -15,1.47127 -1.375,0.25312 -9.925,1.15852 -19,2.012 -9.075,0.85349 -17.4,1.72186 -18.5,1.92971 -1.1,0.20785 -5.825,0.67867 -10.5,1.04626 -4.675,0.36759 -9.7375,0.90556 -11.25,1.19549 -1.93788688,0.37147 -2.75,0.11511 -2.75,-0.8681 0,-1.0625 3.1598947,-1.68416 13.25,-2.60672 7.2875,-0.6663 16.85,-1.63291 21.25,-2.148 18.818078,-2.20298 60.357345,-6.45956 83,-8.50512 8.8,-0.79499 20.05,-1.90705 25,-2.47122 4.95,-0.56418 12.30123,-1.30159 16.33606,-1.63869 4.03483,-0.33711 8.53483,-0.93758 10,-1.33439 l 2.66394,-0.72148 -0.27056,-27.91902 c -0.30329,-31.29636 1.16732,-35.98249 2.17134,-6.91903 0.342,9.9 0.89496,21.7125 1.2288,26.25 0.59962,8.15003 0.63974,8.25 3.31143,8.25 1.48746,0 13.8653,-1.13611 27.50632,-2.52469 l 24.80186,-2.52469 4.62541,-4.07792 c 6.38832,-5.63218 10.51452,-7.50194 18.37073,-8.32458 8.1354,-0.85186 12.9503,0.4542 17.47826,4.74107 l 3.2236,3.05195 20.7764,-1.70309 c 11.42703,-0.9367 24.82641,-2.1247 29.77641,-2.63999 4.95,-0.51529 12.15,-1.17426 16,-1.46438 3.85,-0.29012 7.9,-0.74332 9,-1.00712 1.1,-0.2638 13.7,-1.61353 28,-2.9994 14.3,-1.38588 28.18026,-2.75422 30.84502,-3.04077 2.66476,-0.28655 8.96476,-0.96668 14,-1.5114 5.03524,-0.54473 11.62998,-1.23685 14.65498,-1.53804 3.025,-0.3012 13.825,-1.39904 24,-2.43965 10.175,-1.04061 22.1,-2.16956 26.5,-2.50877 4.4,-0.33922 11.375,-1.03353 15.5,-1.54292 4.125,-0.50939 15.15,-1.61501 24.5,-2.45695 9.35,-0.84194 20.6,-1.96271 25,-2.4906 4.4,-0.5279 15.425,-1.65527 24.5,-2.50527 9.075,-0.85 17.9625,-1.80868 19.75,-2.13041 l 3.25,-0.58496 0,-8.31199 c 0,-7.41922 -0.26999,-8.63284 -2.51368,-11.29932 -3.15551,-3.75011 -5.49295,-9.26138 -5.46436,-12.88399 0.0293,-3.71592 3.33532,-10.82289 5.63312,-12.10966 1.71616,-0.96105 1.82964,-2.55602 1.62604,-22.85281 -0.12038,-12.00081 0.17105,-23.39465 0.64764,-25.31965 0.64286,-2.59661 0.89805,-0.27362 0.9887,9 0.24957,25.53369 1.15353,36.33624 3.20402,38.28896 2.26996,2.16173 2.3686,4.60234 0.37852,9.36528 -1.94555,4.65637 -1.95136,11.72627 -0.011,13.33666 1.71474,1.42311 7.37028,0.65033 11.7264,-1.60231 2.39899,-1.24056 2.78456,-1.24304 2.78456,-0.0179 0,2.68528 -6.69283,7.46066 -11.4578,8.17521 l -4.5422,0.68115 0.0153,6.13645 c 0.0221,8.86619 0.36226,9.16669 8.62632,7.62124 6.52398,-1.22005 26.08452,-7.22791 56.85837,-17.4636 7.7,-2.5611 16.79666,-5.54802 20.21481,-6.63761 3.41815,-1.08958 11.881,-4.65913 18.80633,-7.93232 C 714.44648,860.67806 720.31232,858 720.55633,858 c 0.24402,0 0.44367,0.8771 0.44367,1.94911 0,1.07201 -1.53629,3.12089 -3.41397,4.55307 -4.42847,3.37776 -24.67078,11.92288 -35.56449,15.01326 -15.20161,4.31247 -38.00938,12.57957 -38.01669,13.77987 -0.003,0.43743 1.45765,0.56207 3.24515,0.277 3.34939,-0.53416 7.97962,-0.96416 27.75,-2.57707 11.32674,-0.92407 43.12148,-3.85285 48,-4.42154 6.31111,-0.73569 15.90388,-1.73719 20,-2.08804 2.475,-0.21199 6.075,-0.59272 8,-0.84605 1.925,-0.25334 6.65,-0.73312 10.5,-1.0662 3.85,-0.33307 7.9,-0.77475 9,-0.9815 1.1,-0.20676 5.375,-0.67676 9.5,-1.04444 4.125,-0.36768 9.525,-0.89391 12,-1.16941 2.475,-0.2755 7.2,-0.68527 10.5,-0.9106 3.3,-0.22533 8.7,-0.66579 12,-0.97879 11.2114,-1.0634 24.98655,-2.46137 29,-2.94308 14.05644,-1.68708 52.23192,-5.47673 61,-6.05543 4.4,-0.2904 11.15,-0.97942 15,-1.53116 3.85,-0.55174 9.7,-1.18196 13,-1.40048 3.3,-0.21852 9.6,-0.85431 14,-1.41287 8.32477,-1.05678 10.20258,-1.25214 30,-3.12106 6.6,-0.62305 17.625,-1.79325 24.5,-2.60043 6.875,-0.80719 17.225,-1.89953 23,-2.42742 28.2953,-2.58646 68.4936,-6.67124 74.75,-7.59578 l 4.25,-0.62805 0,-10.36014 0,-10.36014 -4.4737,4.47369 C 1095.1115,834.94117 1093.303,836 1090.8855,836 l -3.1671,0 4.5424,-3.99838 c 2.4983,-2.19911 5.0323,-5.40351 5.6309,-7.12089 1.0486,-3.00798 0.8872,-3.30696 -4.4016,-8.15104 -3.0195,-2.76569 -5.4901,-5.77644 -5.4901,-6.69055 0,-4.14546 7.559,-8.47995 10.513,-6.02836 2.074,1.72128 1.8574,3.31934 -0.371,2.73661 -2.5403,-0.6643 -5.142,0.95945 -5.142,3.20918 0,1.02146 2.309,3.79038 5.1311,6.15317 l 5.131,4.29598 -0.7369,-69.45286 c -0.4054,-38.19907 -0.5024,-69.22786 -0.2156,-68.95286 0.2867,0.275 0.7882,14.9 1.1144,32.5 0.3263,17.6 0.8098,37.85 1.0746,45 0.2648,7.15 0.7697,25.99742 1.122,41.88315 0.3524,15.88573 0.9329,32.31073 1.2901,36.5 l 0.6495,7.61685 2.2406,-3.5 c 1.2324,-1.925 2.5002,-4.625 2.8175,-6 1.8736,-8.11966 9.8205,-30.79334 13.3394,-38.05904 2.2699,-4.68683 7.4991,-12.74465 11.6204,-17.90625 4.1213,-5.1616 8.7147,-11.36866 10.2076,-13.79346 5.0615,-8.22119 8.0043,-10.94451 14.7406,-13.64122 3.5721,-1.43002 7.525,-2.60003 8.7842,-2.60003 1.2592,0 2.8295,-0.54 3.4895,-1.2 0.9333,-0.93333 1.1985,-0.1 1.1934,3.75 -0.014,10.58191 7.3652,44.26671 12.4762,56.95 5.3538,13.28605 13.0532,26.91521 15.5359,27.5013 1.2022,0.28379 5.8552,0.21038 10.3401,-0.16314 12.2301,-1.01856 20.6544,-0.96032 20.6544,0.14279 0,1.17348 -2.7536,1.86536 -9.5,2.38703 -8.084,0.6251 -20.5,2.81397 -20.5,3.61403 0,3.78791 15.5615,19.79147 25.6283,26.35631 10.2432,6.67993 13.882,9.37242 24.5443,18.16168 5.3377,4.4 11.195,9.01915 13.0162,10.26479 1.8212,1.24563 6.6862,4.65242 10.8112,7.57063 4.125,2.91822 11.1,7.85205 15.5,10.96408 4.4,3.11203 10.6898,7.58025 13.9772,9.92937 7.3664,5.26377 29.8733,26.9449 35.3394,34.04284 5.3709,6.97431 9.6781,15.6336 8.408,16.90366 -0.6389,0.6389 -1.84,0.11828 -3.4564,-1.49811 -1.3625,-1.3625 -5.1303,-3.81419 -8.3728,-5.4482 -3.2424,-1.63401 -8.5954,-4.59205 -11.8954,-6.57343 -3.3,-1.98138 -9.15,-5.11514 -13,-6.9639 -3.85,-1.84876 -7.6035,-4.09372 -8.3411,-4.9888 -0.7376,-0.89507 -3.8821,-2.57813 -6.9879,-3.74013 -3.1057,-1.16199 -6.1512,-2.53137 -6.7677,-3.04305 -0.6165,-0.51169 -3.547,-1.78266 -6.5121,-2.82439 -8.4637,-2.97347 -23.5408,-10.30735 -33.4955,-16.29293 -11.6527,-7.00656 -34.3994,-18.16229 -40.9882,-20.10193 -2.8009,-0.82454 -6.9822,-2.46322 -9.2919,-3.64153 -2.3097,-1.1783 -6.768,-2.61164 -9.9075,-3.1852 -3.1395,-0.57356 -7.8524,-2.3548 -10.4731,-3.9583 -2.6208,-1.60351 -4.9738,-2.91547 -5.229,-2.91547 -1.1044,0 -18.5423,-8.86359 -24.1368,-12.2686 -3.372,-2.05227 -6.4706,-3.7314 -6.8859,-3.7314 -0.4152,0 -4.4258,-2.62572 -8.9124,-5.83493 C 1126.8352,862.4859 1112.9934,855 1109.5299,855 l -2.7672,0 0.6626,42.75 c 0.3644,23.5125 0.8476,49.05 1.0737,56.75 0.2261,7.7 0.6578,42.125 0.9595,76.5 0.3016,34.375 0.7764,79.15 1.055,99.5 0.2787,20.35 0.7682,61.075 1.0879,90.5 0.3197,29.425 0.7279,55.525 0.9072,58 0.1793,2.475 0.5878,17.1 0.9078,32.5 0.9836,47.3303 1.7128,66.9651 2.518,67.8031 0.872,0.9073 120.1162,2.344 229.5791,2.766 l 30.0135,0.1157 7.7165,-7.5924 c 4.2441,-4.1758 8.1555,-7.5924 8.6921,-7.5924 0.5366,0 2.6334,-1.125 4.6595,-2.5 2.0262,-1.375 4.4325,-2.5 5.3474,-2.5 0.9149,0 3.4541,-1.3168 5.6426,-2.9263 2.1885,-1.6094 5.191,-3.2304 6.6723,-3.6022 1.4813,-0.3718 4.6447,-2.3937 7.0298,-4.4931 2.6289,-2.314 5.874,-4.1056 8.2408,-4.5496 2.1474,-0.4029 5.7363,-1.5429 7.9755,-2.5334 3.3717,-1.4914 6.0128,-1.7271 15.3728,-1.3719 8.7817,0.3334 12.1178,0.079 14.9626,-1.1394 2.0136,-0.8627 5.7024,-2.1909 8.1973,-2.9516 2.495,-0.7606 6.9459,-3.1809 9.8911,-5.3783 8.599,-6.4157 18.7107,-12.1854 23.0731,-13.1656 5.8447,-1.3133 11.1368,-5.5404 22.9996,-18.3714 23.6488,-25.5791 29.5149,-35.3726 32.5659,-54.3687 1.8073,-11.2523 2.182,-48.2457 0.5468,-53.9832 -1.7884,-6.2751 -6.367,-13.1476 -11.4359,-17.1653 -2.4286,-1.925 -5.4171,-5.2383 -6.6411,-7.3629 -1.224,-2.1246 -7.2656,-9.0996 -13.4259,-15.5 -6.1603,-6.4004 -13.6279,-14.7871 -16.5947,-18.6371 -6.7058,-8.7023 -18.1104,-21.5836 -23.8579,-26.9472 -2.3886,-2.2291 -10.4886,-11.6354 -18,-20.9031 -23.4432,-28.9242 -25.1137,-30.8996 -43.197,-51.0827 -2.4969,-2.7869 -5.8587,-6.867 -7.4705,-9.067 -1.6119,-2.2 -4.3771,-5.5012 -6.1448,-7.336 -1.7677,-1.8349 -5.5894,-6.7849 -8.4926,-11 -10.8985,-15.8235 -37.8964,-47.59409 -48.8523,-57.48844 -1.925,-1.73847 -7.1,-6.83753 -11.5,-11.33123 -4.4,-4.4937 -10.025,-9.35714 -12.5,-10.80763 -2.475,-1.45049 -8.1,-5.52104 -12.5,-9.04565 -4.4,-3.52462 -10.475,-8.10645 -13.5,-10.18186 -3.025,-2.07541 -7.5582,-5.5815 -10.0739,-7.79133 -2.5156,-2.20982 -8.0668,-6.71786 -12.3361,-10.01786 -4.2693,-3.3 -9.6979,-7.575 -12.0636,-9.5 -4.6685,-3.79874 -19.3858,-21.57125 -26.499,-32 -5.9096,-8.66406 -9.0272,-12 -11.2145,-12 -2.0149,0 -2.4764,-1.61216 -0.6371,-2.22527 0.7543,-0.25142 -0.6473,-4.02777 -3.9096,-10.5337 -4.5406,-9.05509 -6.1629,-13.40374 -6.8051,-18.24103 -1.9707,-14.84412 -2.1172,-22.14419 -0.5282,-26.32356 0.5812,-1.52859 1.2987,-4.15272 1.5944,-5.8314 0.2957,-1.67869 1.3593,-4.69305 2.3635,-6.6986 1.0042,-2.00554 2.6416,-6.34644 3.6385,-9.64644 0.997,-3.3 2.576,-7.125 3.509,-8.5 3.0798,-4.53911 12.7254,-23.42826 13.9643,-27.34667 0.669,-2.11567 1.8393,-5.04067 2.6007,-6.5 0.7614,-1.45933 1.3872,-3.17852 1.3905,-3.82042 0,-0.64191 0.9463,-3.34191 2.0953,-6 7.1314,-16.49751 8.1417,-36.27744 4.1032,-80.33291 -0.5798,-6.325 -1.2902,-14.425 -1.5787,-18 -1.0195,-12.63402 -5.4466,-37.30266 -7.2049,-40.14771 -0.2846,-0.46045 -0.9644,-3.65308 -1.5108,-7.09474 -0.5464,-3.44165 -1.8301,-9.85755 -2.8526,-14.25755 -1.0226,-4.4 -2.1469,-10.09256 -2.4985,-12.65013 -0.4276,-3.10967 -1.5509,-5.60393 -3.3909,-7.52931 -1.6327,-1.7085 -4.0909,-6.73 -6.0457,-12.34987 -1.8118,-5.20888 -4.668,-12.84569 -6.3471,-16.97069 -8.9855,-22.07421 -13.7448,-33.14067 -16.565,-38.51763 -4.4911,-8.56272 -13.1951,-28.09814 -13.2149,-29.65994 -0.01,-0.72734 -1.606,-5.14743 -3.5482,-9.82243 -7.1966,-17.32237 -17.226,-47.97917 -21.9191,-67 -0.882,-3.575 -2.2995,-8.29788 -3.1499,-10.49528 -0.8503,-2.1974 -2.5722,-8.4974 -3.8263,-14 -3.1356,-13.75736 -7.2675,-30.10261 -8.9753,-35.50472 -0.7825,-2.475 -1.7244,-6.3 -2.0932,-8.5 -5.9176,-35.29828 -36.1657,-102.427 -55.5604,-123.30345 -3.624,-3.90093 -8.9825,-10.60349 -11.9077,-14.89457 -2.9252,-4.29109 -7.8829,-10.95198 -11.0171,-14.80198 -6.6892,-8.21689 -13.2866,-17.25854 -19.7011,-27 -2.5351,-3.85 -6.5468,-9.475 -8.9148,-12.5 -4.3125,-5.50899 -7.5126,-9.837212 -25.8775,-35 -5.4191,-7.425 -12.3593,-16.449909 -15.4227,-20.055354 C 1003.7301,29.66015 998.41851,22.932131 989.34292,10.957329 985.14859,5.423123 982.88363,0 984.76659,0 c 0.54088,0 1.23538,1.2375 1.54335,2.75 0.52406,2.573785 16.35866,23.247082 28.14846,36.75 5.6501,6.471096 39.2141,51.0602 54.3067,72.14554 5.0958,7.11916 10.765,14.49879 12.5982,16.39919 1.8332,1.9004 6.1726,7.50527 9.643,12.45527 3.4705,4.95 8.8638,11.925 11.9853,15.5 7.6219,8.72945 13.0306,15.9282 14.1198,18.79287 0.4931,1.29715 2.3525,4.4619 4.1319,7.03279 4.5242,6.53679 16.836,31.01594 23.9778,47.67434 7.701,17.96279 13.3505,35.74642 19.6964,62 10.0741,41.67836 9.1086,38.01374 21.0785,80 2.8224,9.9 7.8379,24.975 11.1456,33.5 3.3076,8.525 7.3761,19.325 9.0411,24 1.665,4.675 3.6372,9.625 4.3827,11 3.5022,6.45952 14.0168,29.39375 17.0074,37.09625 1.8357,4.72794 4.9431,12.11941 6.9055,16.4255 1.9623,4.30608 4.2644,10.22527 5.1157,13.15375 0.8514,2.92847 1.9044,5.3245 2.3401,5.3245 0.4357,0 1.5654,2.5875 2.5106,5.75 0.9452,3.1625 2.5818,7.85842 3.6369,10.43538 1.0551,2.57696 1.917,5.50196 1.9153,6.5 0,0.99804 1.3329,6.76462 2.9659,12.81462 8.8591,32.82227 13.5094,56.74797 14.5772,75 0.354,6.05 1.0823,13.025 1.6185,15.5 0.5363,2.475 0.9853,14.4 0.9978,26.5 0.024,23.215 -1.1806,31.69493 -6.078,42.78598 -1.0234,2.31771 -3.3283,8.03902 -5.1219,12.71402 -1.7935,4.675 -6.5263,15.025 -10.5173,23 -7.4561,14.89927 -14.0753,29.89615 -15.0568,34.11372 -3.4828,14.96528 -2.9607,27.11125 1.662,38.65602 8.2363,20.57003 35.2859,57.27032 50.0808,67.94858 3.6438,2.62992 9.8681,7.48168 13.8319,10.78168 3.9638,3.3 9.534,7.575 12.3782,9.5 6.8994,4.66961 11.9271,8.44833 19.2697,14.48276 3.3577,2.75948 8.8702,6.99432 12.25,9.41075 3.3798,2.41643 6.1451,4.75034 6.1451,5.18647 0,1.19566 11.566,12.92002 12.7455,12.92002 0.5641,0 4.0506,3.4875 7.7477,7.75 3.6972,4.2625 9.7673,10.9 13.4893,14.75 8.9707,9.27935 23.3261,27.4626 27.8292,35.2498 2.6688,4.6152 4.05,6.1115 5.2809,5.7208 1.2327,-0.3912 2.101,0.5561 3.3336,3.6365 2.2766,5.6898 8.7996,14.0068 23.0529,29.3929 16.5558,17.8717 23.3223,25.6533 36.9556,42.5 6.4539,7.975 14.2838,16.975 17.3998,20 6.9069,6.7052 18.1067,19.4178 24.1736,27.4388 2.4705,3.2663 9.1545,10.6831 14.8532,16.4816 5.6987,5.7985 11.7545,12.5761 13.4574,15.0612 1.7028,2.4851 4.1623,5.6434 5.4656,7.0184 4.067,4.2909 12.7473,18.2887 14.2628,23 1.0221,3.1776 1.4792,9.7895 1.5554,22.5 0.1304,21.7544 -1.0975,37.2452 -3.3961,42.8437 -3.8109,9.2821 -10.6221,21.3909 -14.1505,25.1563 -2.0614,2.2 -4.7272,5.644 -5.9238,7.6534 -1.1967,2.0093 -4.0784,5.3416 -6.4039,7.4051 -2.3255,2.0635 -6.1215,6.0444 -8.4355,8.8466 -6.3854,7.7326 -14.8159,13.6391 -21.4528,15.0303 -1.4631,0.3067 -8.2131,4.2442 -15,8.75 -18.0871,12.008 -27.3745,15.1104 -43.0062,14.3662 -7.4901,-0.3566 -10.7722,-0.1177 -12.802,0.932 -1.5013,0.7763 -4.9351,1.947 -7.6306,2.6015 -2.6956,0.6544 -7.1511,2.864 -9.9011,4.9101 -2.75,2.0461 -6.35,4.4161 -8,5.2667 -10.4066,5.365 -17.265,9.1351 -19.9352,10.9587 -3.7871,2.5864 -10.5648,8.9341 -10.5648,9.8946 0,0.3901 5.5125,1.058 12.25,1.4842 6.7375,0.4262 12.7,0.8472 13.25,0.9355 0.55,0.088 2.2641,0.229 3.809,0.3128 1.545,0.084 2.558,0.5586 2.2511,1.0551 -0.3069,0.4965 -8.3084,0.956 -17.781,1.021 -15.1946,0.1042 -17.3409,0.3218 -18.2234,1.8472 -2.7474,4.7488 -6.607,14.664 -8.8474,22.729 -1.3751,4.95 -4.0095,14.4 -5.8543,21 -3.0042,10.7486 -3.343,13.2514 -3.2488,24 0.1873,21.3574 5.0775,34.5057 17.8524,48 12.2361,12.925 18.5424,23.8314 18.5424,32.0679 0,1.9506 0.507,5.5598 1.1266,8.0206 0.9364,3.719 0.8697,4.7643 -0.3957,6.1929 -0.8373,0.9452 -2.2088,3.7674 -3.0478,6.2715 -1.5361,4.5844 -9.049,18.9246 -13.9185,26.5666 -1.4437,2.2657 -4.7563,5.8657 -7.3613,8 -2.6051,2.1343 -6.349,5.4555 -8.3199,7.3805 -9.1446,8.9317 -22.8336,15.0813 -51.0834,22.9486 -10.8249,3.0146 -20.354,6.2095 -21.4434,7.1896 -1.9278,1.7342 5.199,7.1044 17.1506,12.9235 l 12.2307,5.955 29.281,0.5416 c 66.4699,1.2295 75.6958,1.4392 84.6936,1.925 5.1768,0.2796 9.6393,0.7352 9.9166,1.0125 0.5692,0.5692 2.726,0.5481 -66.5791,0.6504 -31.1434,0.046 -51.25,0.4431 -51.25,1.0124 0,0.5153 1.0199,1.9279 2.2665,3.1391 9.668,9.3942 14.5583,21.3342 17.2848,42.2023 1.928,14.7566 1.2655,25.8598 -2.3961,40.1525 -2.3734,9.2646 -3.1859,10.9876 -7.6552,16.2338 -4.1827,4.9097 -13.0578,11.6722 -16.985,12.9418 -5.8743,1.8991 -24.7163,9.2562 -28.015,10.9387 -3.9455,2.0125 -16.1436,11.9991 -21.4254,17.5411 -6.1978,6.503 -9.1239,11.2506 -11.7888,19.1275 -4.2058,12.4312 -4.8266,19.5967 -2.8259,32.6203 0.9669,6.2944 2.3349,12.5693 3.0401,13.9443 0.7051,1.375 2.0571,6.55 3.0044,11.5 0.9473,4.95 2.9664,14.175 4.4868,20.5 1.5204,6.325 3.5178,15.775 4.4385,21 0.9207,5.225 2.3542,12.425 3.1855,16 1.9535,8.401 3.588,29.7811 2.9943,39.1675 -2.168,34.2767 -2.9231,42.5846 -4.6614,51.2908 -2.0915,10.4752 -5.9495,22.9275 -10.2676,33.1406 -1.4183,3.3544 -3.5533,8.9794 -4.7444,12.5 -2.9272,8.6519 -9.2124,21.0221 -14.655,28.8435 -4.6623,6.6999 -30.0614,35.0576 -31.4,35.0576 -0.4203,0 -2.7627,2.5971 -5.2052,5.7714 -8.6506,11.2421 -27.7544,22.8975 -44.1759,26.952 -3.3,0.8148 -10.725,2.986 -16.5,4.8248 -5.775,1.8389 -13.2,3.6383 -16.5,3.9988 -3.3,0.3605 -9.825,2.1561 -14.5,3.9902 -4.675,1.834 -10.75,3.859 -13.5,4.4999 -8.6778,2.0223 -52.4907,16.981 -65,22.1923 -6.6,2.7496 -17.175,6.6987 -23.5,8.7759 -10.4175,3.4211 -15.82641,4.9873 -33,9.5556 -3.025,0.8046 -7.525,2.1645 -10,3.022 -12.83701,4.4472 -33.21227,11.7999 -38.5,13.8932 -3.3,1.3064 -9.15,3.1017 -13,3.9896 -3.85,0.8879 -12.22278,3.3963 -18.60618,5.5743 -8.95386,3.055 -13.06735,3.9468 -18,3.9024 l -6.39382,-0.058 5.13539,-2.3352 z M 1110.3544,1344.5 c -0.1385,-33.2917 -0.9826,-102.9715 -1.8776,-155 -0.227,-13.2 -0.6411,-37.275 -0.9202,-53.5 -0.2791,-16.225 -0.7515,-48.85 -1.0498,-72.5 -0.2983,-23.65 -0.7501,-53.35 -1.004,-66 -0.2539,-12.65 -0.715,-48.875 -1.0246,-80.5 -0.3097,-31.625 -0.8164,-59.23418 -1.1261,-61.35372 l -0.5629,-3.85373 -9.6446,0.70371 c -5.3045,0.38704 -9.8696,0.83782 -10.1446,1.00173 -0.275,0.16391 -3.425,0.58294 -7,0.93118 -3.575,0.34824 -8.075,0.84158 -10,1.09631 -1.925,0.25474 -5.75,0.67926 -8.5,0.9434 -2.75,0.26414 -13.775,1.39636 -24.5,2.51606 -24.22,2.52858 -40.85471,4.16937 -81,7.98958 -17.325,1.64864 -37.575,3.6764 -45,4.50613 -7.425,0.82972 -18.225,1.94804 -24,2.48515 -29.51461,2.74501 -72.60868,6.92136 -104,10.07889 -5.775,0.58088 -13.875,1.47378 -18,1.98422 -4.125,0.51043 -19.65,2.05021 -34.5,3.42173 -14.85,1.37152 -30.825,2.95951 -35.5,3.52887 -4.675,0.56937 -22.225,2.40399 -39,4.07694 -25.81834,2.57484 -43.82463,5.0991 -46.01062,6.45012 C 605.24665,903.96559 604.5,928.77763 604.5,953 c 0,28.7506 1.38524,121.7139 2.15318,144.5 0.60684,18.0059 0.79702,19.3924 3.63485,26.5 1.64697,4.125 3.5899,9.975 4.31761,13 1.5892,6.6061 1.78056,18.1828 0.3803,23.0066 -0.55773,1.9214 -1.9596,13.1684 -3.11527,24.9934 -2.0039,20.5043 -2.07264,25.1356 -1.48432,100 0.33929,43.175 0.9028,80.8537 1.25224,83.7304 0.59644,4.9101 0.82597,5.2596 3.74838,5.7086 1.71217,0.263 32.36303,0.7235 68.11303,1.0233 35.75,0.2999 84.125,0.7678 107.5,1.0399 23.375,0.272 66.125,0.7255 95,1.0076 63.92689,0.6245 143.4359,1.6452 143.6753,1.8444 0.096,0.08 18.3214,0.1458 40.5,0.1458 l 40.3247,0 -0.1456,-35 z m -516.9854,29.4619 c 0.29726,-0.2959 0.84274,-4.1209 1.21217,-8.5 0.36944,-4.379 0.83981,-8.1494 1.04527,-8.3786 0.20546,-0.2291 0.37356,3.4834 0.37356,8.25 l 0,8.6667 5.5,0 5.5,0 0,-15.1556 c 0,-14.2629 -0.13579,-15.3379 -2.30519,-18.25 -1.26786,-1.7019 -3.63036,-5.3444 -5.25,-8.0944 l -2.94481,-5 -0.587,5.5 c -0.58621,5.4925 -0.58723,5.49 -0.75,-1.8728 -0.15965,-7.2212 -0.37065,-7.7871 -10.25381,-27.5 -5.54995,-11.07 -12.5169,-26.208 -15.48211,-33.6402 -5.29979,-13.2836 -13.41255,-42.5946 -13.42218,-48.4936 -0.003,-1.6536 -0.47807,-4.5786 -1.05639,-6.5 -3.378,-11.2229 -5.20062,-67.2848 -2.50965,-77.1946 4.46222,-16.4328 11.10899,-26.8893 21.19248,-33.3397 7.11032,-4.5484 13.94977,-5.4991 18.65228,-2.5928 1.87525,1.1589 3.70359,1.8132 4.06297,1.4538 0.35937,-0.3594 0.65341,-3.0534 0.65341,-5.9868 0,-2.9333 0.45,-5.3333 1,-5.3333 0.56876,0 1,2.9363 1,6.8089 0,4.4387 0.51108,7.4845 1.4682,8.75 1.34964,1.7844 1.47271,1.497 1.52407,-3.5589 0.13643,-13.4283 -0.24083,-75.7948 -0.47485,-78.5 -0.14274,-1.65 -0.32444,-10.425 -0.40378,-19.5 -0.0968,-11.0661 -0.46351,-16.006 -1.11364,-15 -0.716,1.1079 -0.97738,0.4545 -1,-2.5 -0.0168,-2.2 -0.41791,-4.61123 -0.89125,-5.35828 -0.98397,-1.55294 -1.93934,0.76017 -7.99544,19.35828 -5.78698,17.7717 -12.55429,30.372 -24.70542,46 -10.24644,13.1783 -29.82332,31.1604 -45.40789,41.7089 -3.575,2.4197 -8.71252,5.9201 -11.41671,7.7787 -2.70419,1.8585 -8.32919,5.249 -12.5,7.5344 -4.17081,2.2854 -18.38329,10.6905 -31.58329,18.6781 -25.6136,15.4993 -31.9937,18.6874 -25,12.4925 2.2,-1.9487 5.76135,-4.5892 7.91412,-5.8678 2.15276,-1.2787 5.11319,-3.4498 6.57872,-4.8248 1.46554,-1.375 4.96302,-3.75 7.77218,-5.2777 8.10277,-4.4067 33.62616,-20.14 44.16144,-27.2223 14.82132,-9.9636 20.93011,-14.4407 28.47598,-20.8701 19.50225,-16.6166 29.89659,-28.5616 40.57682,-46.6299 6.40443,-10.8347 8.18738,-14.9571 10.90312,-25.209 1.06227,-4.01 3.75426,-13.591 5.9822,-21.291 4.06371,-14.0446 5.27533,-22.18943 6.76857,-45.5 0.81856,-12.77846 0.69396,-26.66171 -0.25305,-28.19401 -0.33917,-0.54878 -2.81344,1.16595 -5.49839,3.81052 -3.92922,3.87013 -4.88171,4.42005 -4.88171,2.8184 0,-1.09444 0.71325,-3.0082 1.58499,-4.25279 1.52223,-2.17328 1.49253,-2.24293 -0.75,-1.75892 -1.28424,0.27719 -5.93499,1.17396 -10.33499,1.99284 -8.01618,1.49187 -10.17252,1.75305 -29.28824,3.54744 -5.65853,0.53116 -10.75828,1.25626 -11.33278,1.61132 -1.6602,1.02605 -27.31836,3.19779 -39.37898,3.33308 -14.60261,0.1638 -20.65228,0.80446 -35.27017,3.7351 -15.0798,3.02325 -17.67082,3.92409 -29.95767,10.41556 -21.23494,11.21898 -24.10652,15.39504 -26.21708,38.12685 -1.15694,12.46075 -3.3349,19.28331 -9.67728,30.31461 -5.92825,10.311 -9.60846,14.0642 -19.6677,20.058 -24.92431,14.8511 -51.8597,17.7441 -78.54816,8.4365 -19.97687,-6.9669 -28.05785,-15.4778 -34.15774,-35.975 -3.1802,-10.68625 -2.91086,-17.86087 1.03702,-27.62419 6.11605,-15.1253 7.06462,-18.45973 6.75729,-23.75347 L 272.5,935.5 l -4.33516,-0.31166 c -4.20773,-0.3025 -30.8699,2.34962 -34.43546,3.42533 -2.27361,0.68595 -6.09928,8.24871 -8.32524,16.45773 -1.363,5.02654 -1.68226,9.591 -1.46383,20.9286 0.86189,44.7376 0.0419,53.7684 -6.58323,72.5 -1.94527,5.5 -4.87558,14.275 -6.51181,19.5 -8.57626,27.3868 -15.82098,43 -19.95251,43 -0.79136,0 -0.66048,-0.5992 0.38265,-1.7518 0.87196,-0.9635 2.12004,-3.101 2.77351,-4.75 2.80047,-7.0669 8.31383,-22.8675 11.86307,-33.9982 2.10455,-6.6 5.27636,-16.05 7.04846,-21 6.73537,-18.8138 8.98726,-38.8339 6.65739,-59.1866 -2.03748,-17.79845 -5.3e-4,-36.87131 4.96283,-46.4694 2.90514,-5.61793 4.17243,-5.51423 -27.58067,-2.2569 -18.24378,1.8715 -19.62563,2.06349 -21.01005,2.91911 -0.83229,0.51439 -0.98402,15.19092 -0.57219,55.34689 0.30825,30.0558 0.78207,76.6969 1.05293,103.6469 0.27086,26.95 0.72232,60.025 1.00326,73.5 0.28093,13.475 0.74624,45.425 1.03402,71 0.28778,25.575 0.79207,56.093 1.12064,67.8177 0.58519,20.8822 0.64302,21.3351 2.83104,22.167 1.97798,0.752 5.54035,6.3421 5.54035,8.6939 0,0.482 0.72353,1.9094 1.60784,3.1719 l 1.60784,2.2955 2.28666,-2.1482 c 2.36709,-2.2238 4.34946,-1.2712 2.80178,1.3463 -1.97211,3.3354 -13.31031,14.983 -13.9562,14.3372 -0.39488,-0.3949 0.98741,-2.4645 3.07175,-4.599 3.63847,-3.7262 3.70297,-3.9086 1.61603,-4.571 -1.19553,-0.3794 -3.04096,-2.1122 -4.10096,-3.8506 l -1.92726,-3.1607 -0.004,9.6276 c -0.003,6.6541 0.39538,9.9588 1.28859,10.7 1.84367,1.5302 28.69976,2.06 142.20767,2.8055 54.45,0.3577 130.05,0.924 168,1.2586 84.71187,0.7468 100.17857,0.7576 100.869,0.07 z m -59.88788,-32.5768 C 530.36126,1338.0187 527,1329.0206 527,1324.0351 c 0,-3.0113 0.59516,-4.3581 2.63486,-5.9625 3.51879,-2.7679 5.80563,-2.6117 8.11174,0.5541 l 1.9134,2.6267 4.19033,-2.7731 c 2.30468,-1.5251 4.43936,-2.5239 4.74373,-2.2196 0.96027,0.9603 -2.43859,6.4761 -5.32408,8.6401 -1.52349,1.1426 -3.33248,2.5501 -4.01998,3.1277 -1.70085,1.4292 -1.52421,9.025 0.26486,11.3895 1.07674,1.423 1.16596,2.2617 0.34575,3.25 -1.67449,2.0176 -3.69778,1.6107 -6.37949,-1.2829 z m 14.09414,-4.4886 c -0.90304,-2.2569 -1.91307,-6.0819 -2.2445,-8.5 -0.53992,-3.9392 -0.39316,-4.3965 1.41087,-4.3965 2.78748,0 3.83195,1.5693 5.62343,8.4492 1.12062,4.3036 1.25052,6.3091 0.46959,7.25 -1.90467,2.295 -3.57607,1.4043 -5.25939,-2.8027 z M 211,1333.5 c 0.68469,-0.825 1.40067,-1.5 1.59106,-1.5 0.19039,0 0.0872,0.675 -0.22943,1.5 -0.31659,0.825 -1.03256,1.5 -1.59106,1.5 -0.58531,0 -0.48812,-0.6354 0.22943,-1.5 z m 343.7373,-10.6418 c -3.03694,-6.1911 -5.31408,-11.7975 -5.06033,-12.4588 0.25376,-0.6613 1.26201,-1.4117 2.24055,-1.6676 1.0348,-0.2706 2.047,-1.8044 2.41933,-3.6661 0.55099,-2.7549 1.01105,-3.1565 3.30276,-2.8832 3.54567,0.4228 5.9802,3.9896 7.89631,11.5689 2.49624,9.8739 0.33308,10.8665 -4.20118,1.9278 -2.46924,-4.8677 -2.68774,-5.0439 -3.63345,-2.93 -0.81506,1.8219 -0.31235,3.6532 2.64625,9.6395 3.24223,6.5602 4.47698,10.6113 3.23425,10.6113 -0.23002,0 -1.07174,0.2508 -1.8705,0.5573 -1.05551,0.405 -2.9609,-2.5181 -6.97399,-10.6991 z M 242.76843,1298.5 c 0.5827,-1.1 2.52491,-3.35 4.31601,-5 l 3.25655,-3 -2.06257,3 c -1.13441,1.65 -3.07661,3.9 -4.316,5 -2.25344,2 -2.25344,2 -1.19399,0 z m 32.27477,-35.0435 c -0.0238,-0.5739 3.3556,-4.6239 7.50968,-9 4.15409,-4.3761 7.10649,-7.0248 6.5609,-5.886 -1.33678,2.7901 -14.016,16.2041 -14.07058,14.886 z M 304,1231.1349 c 0,-1.4486 3.90224,-5.9291 7.2238,-8.2943 3.53268,-2.5155 3.06255,-1.3293 -1.94583,4.9094 -3.21859,4.0092 -5.27797,5.33 -5.27797,3.3849 z M 339,1191.5 c 1.29175,-1.375 2.51619,-2.5 2.721,-2.5 0.8308,0 -3.29026,4.9395 -4.14531,4.9686 -0.50838,0.017 0.13256,-1.0936 1.42431,-2.4686 z m -2.56976,-14.3731 c -11.51559,-5.4478 -16.02815,-11.4658 -11.6015,-15.4719 4.22391,-3.8226 9.24507,-0.026 10.79192,8.1605 0.45653,2.416 1.67807,3.9793 4.50291,5.7625 3.50205,2.2108 5.0666,4.4233 3.12643,4.4212 -0.4125,-4e-4 -3.48139,-1.293 -6.81976,-2.8723 z m -3.96698,-8.3769 c -1.06046,-3.5532 -3.38248,-6.75 -4.90298,-6.75 -3.34917,0 -1.96584,6.0051 1.8038,7.8304 3.25246,1.5749 3.83142,1.3731 3.09918,-1.0804 z m 13.7953,-1.2373 c -5.7344,-2.4926 -8.24803,-12.1516 -3.62406,-13.9259 2.28275,-0.876 2.72428,-0.1342 1.2885,2.1649 -2.65057,4.2442 2.03728,10.2483 8.00166,10.2483 2.20074,0 5.07534,-4.503 5.07534,-7.9503 0,-1.1274 0.45,-2.0497 1,-2.0497 1.50225,0 1.2027,4.7073 -0.51035,8.02 -2.54799,4.9273 -5.68588,5.9031 -11.23109,3.4927 z m 32.27883,-21.2627 c 3.85756,-5.2133 7.66892,-9.25 8.73373,-9.25 0.93435,0 -4.14324,6.8462 -7.97294,10.75 -3.41879,3.485 -3.83791,2.6586 -0.76079,-1.5 z m -16.44631,1.6655 c -2.42491,-0.476 -5.34991,-1.6936 -6.5,-2.7059 -1.15009,-1.0122 -3.32858,-2.6088 -4.84108,-3.548 -3.22662,-2.0037 -3.49627,-4.5195 -0.83608,-7.8008 2.28656,-2.8204 3.7855,-1.966 1.90537,1.0861 -1.17393,1.9057 -1.04384,2.3575 1.18071,4.1004 3.81797,2.9912 7.19785,3.6011 8.44885,1.5244 3.10056,-5.147 3.48629,-5.2385 3.51935,-0.8351 0.0292,3.885 0.32226,4.3579 3.5318,5.699 7.04018,2.9415 3.30545,4.3867 -6.40892,2.4799 z m 53.94034,-43.6655 c 0.0173,-0.4125 1.25479,-1.6139 2.75,-2.6697 l 2.71858,-1.9197 -2.42431,2.6697 c -2.54755,2.8054 -3.09586,3.1512 -3.04427,1.9197 z M 434,1082.6434 c 0,-1.1658 4.87505,-6.1017 5.45439,-5.5223 0.28861,0.2886 -0.82056,1.8136 -2.46482,3.3889 -1.64426,1.5753 -2.98957,2.5354 -2.98957,2.1334 z M 598.3605,1060 c 0,-5.225 0.16854,-7.3625 0.37454,-4.75 0.206,2.6125 0.206,6.8875 0,9.5 -0.206,2.6125 -0.37454,0.475 -0.37454,-4.75 z m -137.68972,-5.7237 c -0.32123,-0.5197 1.42143,-2.9132 3.87258,-5.3189 2.45115,-2.4056 4.43745,-3.9426 4.414,-3.4156 -0.0755,1.6959 -7.68166,9.7133 -8.28658,8.7345 z M 484,1028.5681 c 0,-0.7876 1.45128,-2.4653 3.22507,-3.7284 l 3.22506,-2.2964 -2.84375,3.7283 c -3.13477,4.1099 -3.60638,4.4102 -3.60638,2.2965 z m 114.49491,-2.8181 c -0.32765,-1.7875 -0.16824,-5.05 0.35423,-7.25 0.89297,-3.76 0.95598,-3.5651 1.05041,3.25 0.10728,7.7426 -0.43538,9.2879 -1.40464,4 z m -90.49369,-24.3257 c 6.7e-4,-0.5084 1.12567,-2.2318 2.5,-3.8298 1.56601,-1.821 2.49878,-2.3527 2.49878,-1.4244 0,0.8147 -1.125,2.5382 -2.5,3.8299 -1.375,1.2917 -2.49945,1.9327 -2.49878,1.4243 z m 37.01884,-40.94847 c 0.69572,-0.83829 1.47088,-1.31823 1.72258,-1.06653 0.69349,0.6935 -0.71555,2.5907 -1.9241,2.5907 -0.6631,0 -0.58723,-0.57378 0.20152,-1.52417 z m 21.63376,-24.26004 c 0.71749,-2.7437 5.34618,-7.1395 5.34618,-5.0772 0,0.81798 -1.32316,2.7549 -2.94036,4.30428 -2.53722,2.43081 -2.86708,2.53678 -2.40582,0.77292 z m 39.32637,389.47521 c -0.0109,-2.3051 -0.4342,-7.116 -0.94069,-10.691 -1.03465,-7.303 -0.98841,-3.5752 -1.12263,-90.5 -0.0543,-35.2 -0.21284,-66.475 -0.35219,-69.5 -0.13935,-3.025 -0.32341,-11.6429 -0.40902,-19.1509 L 603,1122.1982 l -4.46724,-5.9428 c -2.71929,-3.6174 -6.19837,-6.8611 -8.89147,-8.2898 l -4.42423,-2.347 -6.52297,3.2112 c -8.08568,3.9806 -11.81907,8.1577 -17.08252,19.1127 L 557.5,1136.5 557.13775,1154 c -0.93189,45.0192 4.42683,79.065 18.1794,115.5 6.95322,18.4213 18.46878,42.7503 19.83515,41.9059 0.46623,-0.2882 0.8477,0.3101 0.8477,1.3294 0,2.746 8.01258,18.375 9.08166,17.7142 0.50509,-0.3121 0.90943,-2.4535 0.89853,-4.7585 z m -10.40077,-52.941 c 0.37778,-6.1875 0.85195,-11.4375 1.05372,-11.6667 0.20177,-0.2291 0.36686,4.8334 0.36686,11.25 0,7.5077 -0.37564,11.6667 -1.05372,11.6667 -0.71655,0 -0.83394,-3.5997 -0.36686,-11.25 z m 0.79875,-36.75 c 0,-6.325 0.16237,-8.9125 0.36082,-5.75 0.19845,3.1625 0.19845,8.3375 0,11.5 -0.19845,3.1625 -0.36082,0.575 -0.36082,-5.75 z m -0.30788,-49.25 c 0.11161,-9.9251 1.77665,-11.716 1.85942,-2 0.0416,4.8802 -0.33817,8.25 -0.92971,8.25 -0.5675,0 -0.9696,-2.7031 -0.92971,-6.25 z m 0.41044,-39 c -0.30656,-1.2375 -0.15303,-7.2 0.34117,-13.25 l 0.89856,-11 0.13977,13.25 c 0.13545,12.84 -0.22053,15.6785 -1.3795,11 z m 13.55257,10.5182 c 0.63748,-6.2289 0.15038,-17.9297 -0.84375,-20.2682 -0.82581,-1.9426 -1.07691,0.4675 -1.12616,10.809 -0.0351,7.3683 0.32718,13.0676 0.81161,12.7683 0.48125,-0.2975 1.00249,-1.7865 1.1583,-3.3091 z m -259.37839,-130.834 c 11.23339,-2.8564 14.68851,-4.2752 24.69764,-10.1419 10.34085,-6.0611 13.48189,-9.483 19.44726,-21.1862 5.43202,-10.65683 6.57457,-15.07048 8.14523,-31.46473 1.31202,-13.69469 4.28602,-20.8656 11.25054,-27.1273 5.03737,-4.52903 24.50404,-15.37737 33.30442,-18.55981 4.42744,-1.60108 4.65646,-1.8161 2,-1.87774 -1.65,-0.0383 -9.975,0.60004 -18.5,1.4185 -8.525,0.81846 -17.525,1.67976 -20,1.914 -4.95901,0.46933 -11.63677,1.13698 -26,2.59949 -22.78832,2.32039 -49.36945,4.95184 -60,5.93982 -24.82838,2.30749 -41.96619,4.09491 -44.9132,4.68431 -2.76245,0.55249 -3.08899,0.99826 -3.10764,4.24236 -0.0315,5.47557 -2.38627,14.60552 -6.35126,24.625 -4.0103,10.134 -4.51307,16.14047 -2.1763,26 1.73553,7.3227 5.86414,16.8686 9.19664,21.2639 9.4337,12.4421 37.39362,22.2486 58.35176,20.4661 3.025,-0.2573 9.61971,-1.5154 14.65491,-2.7958 z m 989.20419,-66.24231 c -18.5742,-19.58544 -29.0407,-29.04745 -40.4014,-36.5238 -3.8267,-2.51837 -10.6962,-7.41143 -15.2656,-10.87347 -4.5693,-3.46204 -9.7443,-7.17528 -11.5,-8.25165 -5.0555,-3.09942 -10.7151,-7.43863 -20.9248,-16.04297 -10.6622,-8.98569 -16.9403,-13.614 -24.2673,-17.89042 -6.432,-3.75401 -21.3034,-18.8778 -24.5142,-24.93019 C 1200.7395,842.445 1200.1641,842 1196.9354,842 c -1.9625,0 -6.0132,0.4309 -9.0017,0.95755 -2.9886,0.52665 -9.9337,1.20101 -15.4337,1.49857 -5.5,0.29756 -11.8,0.725 -14,0.94986 -33.281,3.40163 -38.5,4.15365 -38.5,5.54753 0,1.36134 23.3924,17.33173 34.5,23.55373 18.7493,10.50259 32.7261,17.24885 39.5,19.06579 3.575,0.9589 8.075,2.51056 10,3.44813 1.925,0.93757 5.975,2.51484 9,3.50506 7.6169,2.49336 25.2197,11.36598 38.4297,19.37036 11.8387,7.17354 27.9112,15.22921 36.0703,18.07875 6.2543,2.1843 17.5814,7.95135 23.5,11.9647 2.475,1.67827 4.8474,3.05333 5.2719,3.05569 0.4245,0.002 5.1495,2.66347 10.5,5.91359 13.2309,8.03709 18.6619,10.83331 19.0808,9.8241 0.194,-0.4673 -2.5032,-3.86099 -5.9936,-7.54152 z M 257.25,931.91592 c 6.4625,-0.63507 11.75,-1.52031 11.75,-1.9672 0,-1.3804 -5.6671,-4.93214 -8.90193,-5.57911 -1.68864,-0.33772 -5.21401,-0.0828 -7.83416,0.56648 -8.6814,2.1513 -16.61635,9.1789 -9.51391,8.42601 1.5125,-0.16033 8.0375,-0.81111 14.5,-1.44618 z m 878.25,-87.43394 c 32.1049,-2.7499 61.3661,-6.01472 62.3028,-6.95146 0.234,-0.23403 -2.0913,-5.58181 -5.1675,-11.88395 -5.9626,-12.21559 -8.576,-18.82001 -10.94,-27.64657 C 1178.3586,785.5417 1174,761.01234 1174,754.69246 1174,752.66161 1173.5667,751 1173.037,751 c -1.1561,0 -10.5706,3.56336 -13.9261,5.27102 -1.314,0.66872 -4.4065,4.27801 -6.8722,8.02064 -2.4656,3.74263 -7.5834,10.49558 -11.3728,15.00656 -8.6314,10.275 -14.8736,22.86413 -21.9165,44.20028 -2.9046,8.79918 -6.0831,17.31738 -7.0634,18.92935 -2.2328,3.67151 -1.7102,4.55295 2.3823,4.01818 1.7774,-0.23226 11.3317,-1.11608 21.2317,-1.96405 z M 54.5,1925 c -0.339919,-0.55 -0.141476,-1 0.440983,-1 0.582459,0 1.059017,0.45 1.059017,1 0,0.55 -0.198442,1 -0.440983,1 -0.242541,0 -0.719098,-0.45 -1.059017,-1 z m 563.09777,-12.7356 c -0.94133,-0.9413 -0.69709,-14.2644 0.26149,-14.2644 1.46646,0 2.9497,13.8593 1.54109,14.3999 -0.66265,0.2542 -1.47381,0.1933 -1.80258,-0.1355 z m -0.41145,-18.0144 c -0.0809,-1.5125 -0.2587,-4.2907 -0.3952,-6.1738 -0.1365,-1.8831 0.19216,-3.5685 0.73035,-3.7453 0.55895,-0.1836 1.05542,2.4637 1.15785,6.1738 0.0986,3.5724 -0.16387,6.4953 -0.58333,6.4953 -0.41946,0 -0.82881,-1.2375 -0.90967,-2.75 z m -0.96689,-25.75 c -0.0445,-7.975 0.26294,-14.5 0.68317,-14.5 1.01842,0 1.06709,0.5936 1.18888,14.5 0.12673,14.4698 0.12477,14.5 -0.94132,14.5 -0.4674,0 -0.88623,-6.525 -0.93073,-14.5 z m 520.17127,10.1047 c -1.5899,-1.3978 -2.3548,-2.5557 -1.6997,-2.5731 0.655,-0.017 1.4804,0.4367 1.8341,1.0091 1.4371,2.3252 10.4749,-2.9049 10.4749,-6.0618 0,-1.2674 -1.0648,-2.1924 -3.25,-2.8234 -1.7875,-0.5162 -4.0375,-1.2605 -5,-1.654 -1.4447,-0.5907 -1.75,-0.1734 -1.75,2.3915 0,4.8344 -1.8045,3.6537 -2.5111,-1.643 -0.3485,-2.6125 -1.0944,-5.9603 -1.6576,-7.4396 -0.5632,-1.4793 -0.7598,-3.117 -0.4371,-3.6393 1.0634,-1.7205 5.8615,-2.3078 8.8253,-1.0802 2.598,1.0761 2.8816,1.6264 2.6306,5.1027 -0.2443,3.3846 0.2035,4.3407 3.4083,7.2767 3.3434,3.0629 3.5943,3.6453 2.6739,6.2049 -1.1354,3.1576 -4.4102,5.9047 -8.161,6.8461 -1.8307,0.4594 -3.2551,-0.048 -5.3806,-1.9166 z m 3.2217,-18.1359 c 1.9836,-3.0273 1.374,-3.9332 -2.0658,-3.0698 -1.5582,0.391 -2.5466,1.3433 -2.5466,2.4534 0,3.8379 2.3002,4.1453 4.6124,0.6164 z m -29.5081,1.6168 c -1.4846,-0.94 -0.8463,-4.0856 0.8291,-4.0856 1.2804,0 3.1954,3.5378 2.3647,4.3685 -0.8378,0.8379 -1.5191,0.7775 -3.1938,-0.2829 z m 1.7246,-27.2766 c -0.094,-1.2699 -0.2407,-3.209 -0.3258,-4.309 -0.085,-1.1 0.048,-2.3855 0.296,-2.8568 0.7814,-1.4847 2.1696,1.7217 2.1856,5.0478 0.018,3.6886 -1.8998,5.5726 -2.1558,2.118 z m 0.1864,-38.559 c 0.01,-2.3904 0.3176,-3.2734 0.849,-2.4354 0.7719,1.2174 0.3857,6.1854 -0.4809,6.1854 -0.2109,0 -0.3765,-1.6875 -0.3681,-3.75 z m 86.0101,-16.2246 c -3.1124,-3.1124 -3.4966,-6.7417 -1.5437,-14.5841 0.985,-3.9552 1.4779,-7.6976 1.0955,-8.3163 -1.1719,-1.8963 -5.1087,-1.2526 -7.4262,1.2143 -1.8365,1.9548 -2.1527,3.3107 -1.9243,8.25 0.2177,4.7088 -0.032,5.9107 -1.2267,5.9107 -1.565,0 -2.6863,-3.0683 -5.2987,-14.5 -0.817,-3.575 -1.1749,-6.725 -0.7953,-7 0.3796,-0.275 1.5366,-3.3432 2.5711,-6.8182 2.0939,-7.034 5.3424,-10.4605 9.4609,-9.9794 3.7661,0.44 5.397,4.4939 4.0139,9.9772 -0.5994,2.3762 -1.324,5.2686 -1.6101,6.4275 -0.4243,1.7181 0.045,2.2203 2.5423,2.7197 3.9198,0.784 4.8445,4.0832 3.2746,11.6837 -0.6373,3.0855 -1.1587,6.7202 -1.1587,8.0772 0,3.6999 2.6906,6.9099 5.8067,6.9276 2.1063,0.012 2.3664,0.2266 1.1933,0.9847 -2.4806,1.6031 -6.874,1.126 -8.9746,-0.9746 z m -7.0111,-32.0534 c 2.1872,-4.2873 2.7326,-11.3876 0.8258,-10.752 -2.1273,0.7091 -4.8401,7.1957 -4.8401,11.5734 0,5.0483 1.1387,4.8153 4.0143,-0.8214 z m -17.3601,16.778 c -1.0749,-13.8085 -0.8475,-19.75 0.756,-19.75 1.0583,0 1.5672,2.1836 2.0389,8.75 1.1912,16.5777 1.08,19.25 -0.8009,19.25 -0.9746,0 -1.531,-2.3021 -1.994,-8.25 z m -24.3069,-5.2872 c -0.3244,-0.8455 0.1397,-2.3435 1.0314,-3.3288 0.8917,-0.9853 1.6213,-2.967 1.6213,-4.4037 0,-1.4368 0.45,-2.8904 1,-3.2303 0.5878,-0.3633 1,0.7134 1,2.6122 0,1.7767 0.7371,4.0448 1.638,5.0403 1.3354,1.4756 1.4051,2.0906 0.3776,3.3287 -1.6355,1.9706 -5.9095,1.9588 -6.6683,-0.018 z M 1153.2997,1728 c 0,-3.025 0.1874,-4.2625 0.4166,-2.75 0.2291,1.5125 0.2291,3.9875 0,5.5 -0.2292,1.5125 -0.4166,0.275 -0.4166,-2.75 z M 1153,1700.559 c 0,-3.5425 0.45,-6.7191 1,-7.059 0.6306,-0.3897 1,1.9896 1,6.441 0,4.0393 -0.4278,7.059 -1,7.059 -0.5632,0 -1,-2.8137 -1,-6.441 z m 406.0137,-23.809 c -0.5848,-2.3375 -1.6837,-6.5 -2.4421,-9.25 -1.7566,-6.3705 -1.5684,-20.594 0.3025,-22.8483 1.7879,-2.1542 4.4109,-2.0993 6.4328,0.1349 2.287,2.5272 4.6938,8.6507 4.6894,11.9313 0,3.112 -3.0977,8.7339 -6.1789,11.2288 -1.8032,1.4602 -1.9049,2.0744 -0.927,5.5968 1.3571,4.8881 1.4081,7.4565 0.1481,7.4565 -0.5288,0 -1.4399,-1.9125 -2.0248,-4.25 z m 4.6346,-17.1388 c 1.9066,-3.9981 1.2477,-9.2846 -1.5941,-12.7898 -2.6364,-3.2519 -3.5458,-1.7129 -3.5503,6.008 -0.01,10.4368 2.0862,13.195 5.1444,6.7818 z m 30.8389,11.231 c -4.8474,-10.3296 -5.6554,-17.1114 -2.5129,-21.0922 1.4614,-1.8513 3.1042,-2.75 5.0269,-2.75 2.895,0 5.9988,2.21 5.9988,4.2714 0,0.7984 -0.3511,0.7775 -1.2,-0.071 -0.66,-0.66 -2.2177,-1.2 -3.4615,-1.2 -3.468,0 -4.8392,6.1743 -2.7396,12.3361 0.8736,2.5639 1.9085,4.8595 2.2999,5.1014 0.3914,0.2418 2.3743,0.065 4.4064,-0.3936 4.4926,-1.0132 4.7325,0.129 0.6595,3.1403 -2.3673,1.7503 -2.9725,2.8904 -2.75,5.1808 0.5419,5.5784 -1.8877,3.6598 -5.7275,-4.5228 z m -23.9305,4.9353 c -1.9242,-2.7472 -2.0274,-8.142 -0.1849,-9.6711 0.7544,-0.6261 1.5991,-3.156 1.8771,-5.6219 0.6258,-5.5524 2.1511,-7.4845 5.9087,-7.4845 10.0609,0 12.5926,12.8209 4.2736,21.6416 -3.9387,4.1763 -9.3803,4.6968 -11.8745,1.1359 z m 10.3597,-5.1422 c 3.06,-4.9512 3.6409,-9.1357 1.6832,-12.1236 -4.0734,-6.2168 -8.1674,-0.194 -6.944,10.2153 0.7288,6.2009 2.2637,6.7577 5.2608,1.9083 z M 1154,1669 c 0,-3.1574 0.3831,-4.8813 1,-4.5 0.55,0.3399 1,2.3649 1,4.5 0,2.1351 -0.45,4.1601 -1,4.5 -0.6169,0.3813 -1,-1.3426 -1,-4.5 z m 294.75,-18.6623 c 0.6875,-0.2774 1.8125,-0.2774 2.5,0 0.6875,0.2774 0.125,0.5044 -1.25,0.5044 -1.375,0 -1.9375,-0.227 -1.25,-0.5044 z m 5,0 c 0.6875,-0.2774 1.8125,-0.2774 2.5,0 0.6875,0.2774 0.125,0.5044 -1.25,0.5044 -1.375,0 -1.9375,-0.227 -1.25,-0.5044 z m 9.5208,0.058 c 0.3323,-0.3323 1.1948,-0.3678 1.9167,-0.079 0.7977,0.3192 0.5608,0.5562 -0.6042,0.6042 -1.0541,0.043 -1.6448,-0.193 -1.3125,-0.5253 z M 82.5,1639.9618 c -14.181689,-0.3817 -7.274217,-0.5749 23.74391,-0.6644 26.99537,-0.078 43.97095,0.2412 44.33689,0.8333 0.60315,0.976 -28.19395,0.9045 -68.0808,-0.1689 z M 1154,1637 c 0,-2.2 0.45,-4 1,-4 0.55,0 1,1.8 1,4 0,2.2 -0.45,4 -1,4 -0.55,0 -1,-1.8 -1,-4 z m -496.06559,-19.4025 c -1.0744,-4.8009 -1.53732,-5.4681 -4.15765,-5.9921 -1.7534,-0.3507 -2.78029,-1.0996 -2.53333,-1.8476 0.52123,-1.5786 12.75657,-2.3512 12.75657,-0.8055 0,0.5762 -0.87344,1.0477 -1.94098,1.0477 -2.80873,0 -3.12553,1.1389 -1.54829,5.5661 1.81688,5.0999 1.83603,7.4339 0.061,7.4339 -0.91227,0 -1.86509,-1.9518 -2.63731,-5.4025 z M 1154,1611.618 c 0,-3.025 0.45,-5.7781 1,-6.118 0.6204,-0.3834 1,1.4699 1,4.882 0,3.025 -0.45,5.7781 -1,6.118 -0.6204,0.3834 -1,-1.4699 -1,-4.882 z m -927.33333,0.7153 C 226.3,1611.9667 226,1611.2017 226,1610.6333 c 0,-0.6266 0.46577,-0.5675 1.18333,0.15 0.65084,0.6509 0.95084,1.4159 0.66667,1.7 -0.28417,0.2842 -0.81667,0.2167 -1.18333,-0.15 z M 638.297,1597.1904 c -1.75737,-1.0961 -2.80091,-8.7609 -1.31759,-9.6777 2.04489,-1.2638 3.15448,1.0165 2.83108,5.8182 -0.22153,3.289 -0.65519,4.3949 -1.51349,3.8595 z m -457.19722,-15.2257 c 0.27861,-9.5416 1.90022,-9.9885 1.90022,-0.5237 0,4.6255 -0.40858,7.559 -1.05282,7.559 -0.6568,0 -0.97555,-2.6464 -0.8474,-7.0353 z m 973.91552,-5.7147 c -0.01,-4.1769 0.4086,-7.25 0.9847,-7.25 1.2827,0 1.2827,11.0151 0,13 -0.6752,1.0449 -0.974,-0.6999 -0.9847,-5.75 z M 219.75688,1580 c -1.10559,-3.7885 -0.96995,-5.6131 0.3213,-4.3218 0.593,0.593 0.92745,2.3705 0.74322,3.95 l -0.33495,2.8718 -0.72957,-2.5 z m -38.56193,-9.5 c -0.0204,-1.65 0.18706,-2.4461 0.46099,-1.769 0.27392,0.677 0.29059,2.027 0.0371,3 -0.25354,0.9729 -0.47766,0.419 -0.49804,-1.231 z m -0.2966,-9 c -0.15045,-2.2 -0.3809,-5.575 -0.51211,-7.5 -0.71561,-10.4987 -0.38751,-50.0105 0.44009,-53 0.78211,-2.8251 1.0138,-1.0897 1.20157,9 0.64337,34.5721 0.61826,50.6441 -0.0827,52.9531 -0.69094,2.2758 -0.80236,2.1212 -1.0468,-1.4531 z m 1047.50305,-7.8962 c -0.3986,-1.0389 -1.8986,-1.6353 -4.2584,-1.6932 l -3.643,-0.089 5,-1.4925 c 7.8984,-2.3576 8.9846,-2.2476 9.1009,0.9213 0.059,1.6084 -0.4259,2.75 -1.1682,2.75 -0.698,0 -1.9771,0.2717 -2.8425,0.6038 -0.9424,0.3616 -1.8201,-0.039 -2.1888,-1 z m 55.6338,-1.5381 c -1.8153,-3.3919 -1.1286,-7.0699 2.4648,-13.201 1.925,-3.2845 3.5,-6.3977 3.5,-6.9183 0,-0.5205 -1.8375,-0.9464 -4.0833,-0.9464 -2.8223,0 -3.9547,-0.3861 -3.6667,-1.25 0.258,-0.774 2.2889,-1.25 5.3333,-1.25 4.3302,0 4.9546,0.2671 5.2348,2.2389 0.181,1.2736 -1.2203,4.7314 -3.25,8.0198 -5.094,8.253 -4.5762,13.2208 1.3819,13.2566 2.0136,0.012 2.2345,0.2192 1.05,0.9847 -2.5657,1.6581 -6.8462,1.156 -7.9648,-0.9343 z M 628.97993,1548.75 c -1.93243,-6.1281 -2.65789,-6.7301 -8.35237,-6.9302 l -5.12756,-0.1803 4.98067,-0.384 c 2.73937,-0.2111 5.2976,-0.8967 5.68496,-1.5235 0.52196,-0.8445 1.30364,-0.8188 3.01933,0.099 2.02283,1.0826 2.31504,1.9919 2.31504,7.2038 0,3.2806 -0.26547,5.9648 -0.58994,5.9648 -0.32447,0 -1.19302,-1.9125 -1.93013,-4.25 z M 1253.2,1550.8 c -1.5779,-1.5779 -1.5206,-3.9793 0.1495,-6.2632 1.2239,-1.6738 1.308,-1.5631 0.9038,1.1904 -0.5119,3.4883 0.8329,4.719 4.2263,3.8673 3.0341,-0.7615 8.5204,-6.2246 8.5204,-8.4843 0,-2.2643 -4.4088,-6.3432 -9.75,-9.0205 -3.6188,-1.814 -4.25,-2.5877 -4.25,-5.21 0,-4.4193 5.624,-9.8851 10.15,-9.8644 1.8425,0.01 3.9404,0.3897 4.662,0.8474 0.7974,0.5056 -0.5095,0.7938 -3.3315,0.7347 -4.0411,-0.085 -5.0221,0.3262 -7.562,3.1684 -4.2101,4.711 -3.9156,5.5468 3.4824,9.8843 2.6954,1.5804 5.8372,4.1276 6.9817,5.6605 l 2.0809,2.7872 -1.9818,3.6701 c -3.4025,6.3015 -11.1819,10.1319 -14.2817,7.0321 z m -97.5333,-0.4667 c -1.0792,-1.0791 -0.7696,-13.3333 0.3368,-13.3333 0.59,0 0.8795,2.3698 0.7025,5.75 l -0.301,5.75 8.9559,0.2084 c 12.9257,0.3007 13.7995,2.2916 1.0058,2.2916 -5.5184,0 -10.3334,-0.3 -10.7,-0.6667 z m 36.1201,-0.397 c 2.4266,-0.4781 5.2473,-0.458 6.5,0.046 1.6198,0.6519 0.4704,0.8783 -4.2868,0.8445 -6.3019,-0.045 -6.3693,-0.072 -2.2132,-0.8907 z M 1080,1549 c -5.1911,-0.6362 -5.0226,-0.6823 3,-0.8217 5.8055,-0.1009 8.0245,0.1596 7,0.8217 -0.825,0.5332 -2.175,0.9029 -3,0.8217 -0.825,-0.081 -3.975,-0.451 -7,-0.8217 z m 52.731,0.3441 c 0.677,-0.274 2.027,-0.2906 3,-0.037 0.9729,0.2536 0.419,0.4777 -1.231,0.4981 -1.65,0.02 -2.4461,-0.1871 -1.769,-0.461 z m -88.2079,-1.3814 c 0.7434,-1.2029 14.4769,-0.9774 14.4769,0.2377 0,0.4398 -3.4016,0.7996 -7.559,0.7996 -4.9659,0 -7.3391,-0.3558 -6.9179,-1.0373 z m -46.80961,-0.6987 c 2.86741,-0.2013 7.81741,-0.2031 11.00001,0 3.1826,0.1991 0.8365,0.3638 -5.2135,0.366 -6.05,0 -8.65393,-0.1606 -5.78651,-0.3619 z M 915,1546 c 0,-0.55 0.64844,-1 1.44098,-1 0.79254,0 1.7191,0.45 2.05902,1 0.33992,0.55 -0.30852,1 -1.44098,1 -1.13246,0 -2.05902,-0.45 -2.05902,-1 z m 42.7277,0.2783 c 1.77523,-0.2209 4.92523,-0.2246 7,-0.01 2.07476,0.2165 0.6223,0.3972 -3.2277,0.4017 -3.85,0 -5.54754,-0.1727 -3.7723,-0.3936 z m -95.64437,-0.6845 c 1.02415,-0.9984 10.75125,-1.4717 13.91667,-0.6771 2.84447,0.714 1.82996,0.8977 -5.41667,0.9809 -4.90416,0.056 -8.72916,-0.08 -8.5,-0.3038 z m -50.82013,-1.1903 c 0.74849,-0.7485 10.76001,-0.7136 11.51373,0.04 0.30602,0.306 -2.2936,0.5564 -5.77693,0.5564 -3.48333,0 -6.06489,-0.2684 -5.7368,-0.5965 z m -599.29038,-4.5044 c -1.14724,-4.2606 -0.55049,-6.4266 1.06624,-3.8701 0.9424,1.4901 1.34851,7.971 0.49948,7.971 -0.2538,0 -0.95837,-1.8454 -1.56572,-4.1009 z M 730.5,1543 c 0.70262,-1.1369 6.53222,-1.1369 11,0 2.25065,0.5727 1.17433,0.7929 -4.30902,0.8817 -4.64589,0.075 -7.08383,-0.2461 -6.69098,-0.8817 z m 43.25,0.2628 c 2.8875,-0.202 7.6125,-0.202 10.5,0 2.8875,0.202 0.525,0.3672 -5.25,0.3672 -5.775,0 -8.1375,-0.1652 -5.25,-0.3672 z M 646,1541.913 c -4.90216,-0.5232 -4.5489,-0.6047 3.25,-0.75 4.8125,-0.09 8.75,0.013 8.75,0.2276 0,0.7994 -6.67961,1.0902 -12,0.5224 z m 44.71349,0.351 c 2.86742,-0.2013 7.81742,-0.2031 11,0 3.18258,0.1991 0.83651,0.3638 -5.21349,0.366 -6.05,0 -8.65393,-0.1606 -5.78651,-0.3619 z m 583.22101,-3.0881 c -1.4881,-4.9669 -0.43,-18.8798 1.9066,-25.0715 2.0752,-5.4987 4.0895,-6.9127 7.5812,-5.3217 2.0465,0.9324 2.5777,1.8867 2.5777,4.6308 0,4.6504 -1.1011,7.2557 -5.5049,13.025 -3.3739,4.42 -3.6764,5.3232 -3.2542,9.7167 0.6381,6.6411 -1.6071,8.6923 -3.3064,3.0207 z m 6.8443,-17.1936 c 4.001,-5.9056 4.192,-10.9823 0.4131,-10.9823 -2.324,0 -4.1481,3.8342 -4.9184,10.3384 -0.6926,5.8478 0.832,6.0657 4.5053,0.6439 z M 1156.3281,1514.5 c 0,-3.85 0.1727,-5.5475 0.3936,-3.7723 0.2209,1.7752 0.2246,4.9252 0.01,7 -0.2165,2.0748 -0.3972,0.6223 -0.4017,-3.2277 z m -950.08755,-4.4864 c -1.43096,-2.2914 -1.72447,-6.9275 -0.3459,-5.4636 0.89037,0.9455 2.57138,7.45 1.92535,7.45 -0.1864,0 -0.89715,-0.8939 -1.57945,-1.9864 z m 413.84074,-2.1366 c -0.85839,-2.8651 -0.91668,-4.4416 -0.19107,-5.1672 0.72562,-0.7256 1.1799,-0.6118 1.48893,0.373 0.24459,0.7795 0.89759,2.8414 1.45112,4.5822 0.95121,2.9914 0.69127,4.335 -0.83865,4.335 -0.37127,0 -1.23092,-1.8554 -1.91033,-4.123 z m -399.48617,-2.127 c -2.23645,-3.468 -4.98708,-15.0522 -4.26101,-17.9451 0.87829,-3.4994 2.79913,-4.0102 6.53532,-1.7381 3.6462,2.2174 4.20149,6.3117 1.48069,10.9176 -1.34799,2.282 -1.45893,3.5453 -0.60633,6.9043 0.84344,3.3229 0.78072,4.1113 -0.32707,4.1113 -0.75384,0 -2.02356,-1.0125 -2.8216,-2.25 z m 10.50374,-1.3514 c -1.84128,-2.3409 -2.58646,-4.6539 -3.51109,-10.8986 -0.41962,-2.834 1.38157,-6.3555 3.61295,-7.0637 1.04346,-0.3312 3.03188,0.1413 4.41871,1.05 2.1839,1.4309 2.48786,2.2859 2.27025,6.3859 -0.26559,5.004 0.45678,7.1278 2.42436,7.1278 0.81395,0 1.1944,-2.2238 1.19098,-6.9617 -0.006,-8.3474 1.5252,-10.7377 5.83013,-9.101 2.84782,1.0828 8.66485,9.2718 8.66485,12.1981 0,1.2933 -0.96892,1.8241 -3.75,2.0542 -3.26187,0.27 -3.7914,0.6706 -4.06806,3.0774 -0.18139,1.5779 -0.75847,2.4947 -1.343,2.1335 -0.56372,-0.3484 -3.23309,-0.7911 -5.93194,-0.9837 -4.33131,-0.3091 -4.907,-0.1194 -4.907,1.6165 0,2.7659 -2.47875,2.4448 -4.90114,-0.6347 z m 18.50813,-10.9804 c -0.33385,-0.87 -0.60699,-1.7965 -0.60699,-2.059 0,-0.2625 -0.45,-0.1991 -1,0.1408 -1.59337,0.9848 -1.15716,3.5 0.60699,3.5 1.05452,0 1.39831,-0.5438 1,-1.5818 z m 906.46331,-13.6092 c -0.039,-2.58 0.3797,-4.9691 0.9297,-5.309 1.2212,-0.7548 1.2212,5.1581 0,8 -0.6487,1.5096 -0.8767,0.8497 -0.9297,-2.691 z m -956.09505,0.6259 c -1.25589,-3.3032 -1.29066,-7.1598 -0.0531,-5.8849 1.12043,1.1542 2.55744,8.45 1.66436,8.45 -0.34982,0 -1.0749,-1.1543 -1.61129,-2.5651 z M 1157.286,1450.5 c 0.01,-2.75 0.2017,-3.7563 0.4316,-2.2363 0.2298,1.5201 0.2237,3.7701 -0.014,5 -0.2373,1.23 -0.4254,-0.014 -0.4179,-2.7637 z m -962.39898,3 c -1.31414,-2.1525 -1.89917,-6.5 -0.87469,-6.5 0.57774,0 1.2969,0.6423 1.59814,1.4273 0.71481,1.8627 0.0714,6.3746 -0.72345,5.0727 z M 1117,1434 c 0,-2.1211 3.3474,-2.8649 4.5,-1 0.3399,0.55 -0.083,1 -0.941,1 -0.8574,0 -1.559,0.45 -1.559,1 0,0.55 -0.45,1 -1,1 -0.55,0 -1,-0.9 -1,-2 z m 95.4357,-1.104 c -0.3456,-0.5592 -0.7447,-3.1769 -0.887,-5.8171 -0.1422,-2.6403 -0.5632,-5.2933 -0.9355,-5.8957 -1.0285,-1.6641 -5.0959,0.236 -5.2151,2.4363 -0.056,1.0343 -0.1686,3.118 -0.25,4.6305 -0.2212,4.1084 -2.8841,3.4441 -4.086,-1.0193 -1.4886,-5.5285 -2.3098,-20.2731 -1.3173,-23.6542 1.0987,-3.743 3.6313,-5.4389 6.0052,-4.0211 4.0012,2.3897 10.25,20.8589 10.25,30.2955 0,2.9492 -2.3714,4.9752 -3.5643,3.0451 z m -3.7685,-16.4711 c 0.6697,-1.7453 -1.276,-9.1923 -2.9322,-11.2222 -2.3921,-2.932 -3.754,4.9869 -1.7598,10.2322 1.0856,2.8553 3.7597,3.4195 4.692,0.99 z M 1181.2897,1429 c -0.3704,-1.4167 -1.364,-2 -3.4063,-2 -4.7426,0 -3.5876,-2.7191 1.3666,-3.2171 5.0058,-0.5032 7.75,0.8603 7.75,3.8507 0,3.5119 -4.8459,4.6715 -5.7103,1.3664 z m -992.16573,-4.25 c -1.47612,-4.0183 -2.07914,-8.6597 -1.196,-9.2055 1.09169,-0.6747 1.73157,1.0023 2.60513,6.8277 0.7331,4.8886 -0.02,6.1594 -1.40913,2.3778 z M 1130,1426.2099 c -4.7378,-0.7187 -4.5354,-2.2099 0.3,-2.2099 2.585,0 4.7,0.4019 4.7,0.893 0,1.234 -2.027,1.7679 -5,1.3169 z m 22.7361,0.1929 c -1.0794,-1.0795 0.1999,-2.4028 2.3229,-2.4028 1.4989,0 1.9679,-0.7402 2.0593,-3.25 l 0.1183,-3.25 0.6393,3 c 0.5321,2.4974 1.2244,3.0838 4.1317,3.5 1.9208,0.275 3.4924,0.95 3.4924,1.5 0,1.1292 -11.7093,1.9574 -12.7639,0.9028 z m -155.50508,-1.1629 c -6.94031,-0.7844 -1.62424,-2.2384 8.07798,-2.2095 6.1958,0.018 9.6029,0.3674 8.691,0.89 -1.7876,1.0244 -12.1591,1.8405 -16.76898,1.3195 z M 1063,1425.5 c 0,-0.275 -0.1125,-0.8284 -0.25,-1.2298 -0.3201,-0.9343 9.9562,-1.4314 13.25,-0.641 2.3475,0.5634 2.378,0.6497 0.5,1.4151 -2.176,0.8868 -13.5,1.2691 -13.5,0.4557 z m 26,-0.441 c 0,-1.6725 1.8843,-2.1713 5.5819,-1.4777 2.5345,0.4755 3.2125,0.9341 2.267,1.5332 -1.829,1.1591 -7.8489,1.1165 -7.8489,-0.055 z m -158.52794,-1.1042 c -0.72778,-1.1776 2.27435,-1.9548 7.55071,-1.9548 5.66622,0 7.8952,1.9115 2.53625,2.175 -1.95746,0.096 -4.92418,0.2538 -6.59271,0.35 -1.66853,0.096 -3.24094,-0.1603 -3.49425,-0.5702 z M 961,1423.9696 c 0,-0.8979 9.65908,-1.8715 12.13745,-1.2234 1.01203,0.2646 1.57968,0.9025 1.26143,1.4174 C 973.73485,1425.238 961,1425.0537 961,1423.9696 z m 72,0.03 c 0,-0.55 1.8266,-1 4.059,-1 2.4514,0 3.8143,0.3961 3.441,1 -0.3399,0.55 -2.1665,1 -4.059,1 -1.8926,0 -3.441,-0.45 -3.441,-1 z m -171.43975,-0.9025 c -0.99959,-1.6174 3.99112,-2.4142 8.17115,-1.3046 l 3.7686,1.0004 -4.16821,0.1033 c -2.29252,0.057 -4.8345,0.3591 -5.64885,0.6716 -0.81435,0.3125 -1.76956,0.1007 -2.12269,-0.4707 z M 897,1423 c 0,-0.5545 2.64699,-1 5.94098,-1 3.26754,0 6.2191,0.45 6.55902,1 0.38803,0.6278 -1.82295,1 -5.94098,1 -3.70601,0 -6.55902,-0.435 -6.55902,-1 z m -163.75561,-1.25 c 0.48136,-1.4638 7.94792,-2.2037 11.6754,-1.1571 2.41662,0.6786 2.3266,0.7743 -1.41979,1.5082 -6.31327,1.2368 -10.72809,1.0857 -10.25561,-0.3511 z m 32.00561,0.6 c -3.2017,-1.3234 -0.75599,-2.374 4.5,-1.9331 3.1625,0.2653 6.8375,0.505 8.16667,0.5327 1.32916,0.028 2.188,0.2791 1.90853,0.5585 -0.73789,0.7379 -13.09932,1.4519 -14.5752,0.8419 z M 797,1422 c 0,-0.5748 2.86981,-0.9701 6.75,-0.9297 4.69843,0.049 6.14213,0.3315 4.75,0.9297 -2.80883,1.207 -11.5,1.207 -11.5,0 z m 30,0.033 c 1.83769,-1.228 14.67476,-1.3683 15.41631,-0.1684 0.29389,0.4755 -3.39205,0.9335 -8.19098,1.0177 -6.11864,0.1073 -8.2772,-0.1464 -7.22533,-0.8493 z m -192,-0.9236 c 0,-1.1469 5.62887,-1.7968 9.5,-1.0969 2.46062,0.4449 2.67066,0.6723 1.16821,1.2649 -2.59872,1.0251 -10.66821,0.898 -10.66821,-0.168 z m 25.48707,-0.089 c 0.34703,-0.5615 2.88096,-1.0209 5.63096,-1.0209 6.51423,0 5.50981,1.6252 -1.1501,1.8609 -3.26349,0.1155 -4.88367,-0.1882 -4.48086,-0.84 z M 686,1421 c -1.04116,-0.6728 0.64127,-0.9436 5.5,-0.885 5.01204,0.06 6.29001,0.3117 4.5,0.885 -3.54742,1.1361 -8.24204,1.1361 -10,0 z m 21,0 c 0,-0.5556 2.66667,-1 6,-1 3.33333,0 6,0.4444 6,1 0,0.5556 -2.66667,1 -6,1 -3.33333,0 -6,-0.4444 -6,-1 z m 774.3267,-18.2929 c -4.6906,-3.8047 -7.9551,-5.6005 -15.0543,-8.2811 -11.0114,-4.1578 -10.1711,-4.2662 -9.1535,1.1808 1.0263,5.4939 0.097,7.1692 -2.9298,5.2792 -6.5989,-4.121 -6.6469,-21.2588 -0.073,-26.1356 2.4313,-1.8036 2.8284,-1.8306 5.6288,-0.3825 4.1351,2.1384 4.6004,4.0639 2.2603,9.3539 -1.1027,2.4928 -2.0049,4.725 -2.0049,4.9603 0,0.2354 2.5675,1.5634 5.7056,2.9513 3.1381,1.3878 6.9081,3.3795 8.3778,4.426 l 2.6721,1.9027 0.4574,-5.5163 c 0.5641,-6.8022 1.7624,-8.2769 4.9253,-6.0615 1.2688,0.8886 3.1067,1.6157 4.0843,1.6157 0.9776,0 1.7775,0.675 1.7775,1.5 0,1.006 -1.0061,1.5 -3.0548,1.5 -3.0204,0 -3.0514,0.053 -2.75,4.75 0.2571,4.0063 0.6465,4.7986 2.4871,5.0607 1.2003,0.1709 3.5507,-0.3969 5.2232,-1.2618 2.8471,-1.4723 3.001,-1.4603 2.4156,0.1893 -1.9568,5.5148 -6.3824,6.7099 -10.9944,2.9689 z m 25.3416,-5.9571 c -0.7472,-1.7875 -2.0982,-3.8635 -3.0024,-4.6133 -0.9041,-0.7498 -1.4405,-1.6924 -1.1919,-2.0946 0.2486,-0.4022 -0.3938,-2.9571 -1.4275,-5.6776 -3.4927,-9.1921 0.1,-15.2216 7.3913,-12.4057 l 2.9379,1.1345 -3.1879,1.9387 c -3.68,2.238 -3.8808,3.8444 -1.2147,9.718 1.5186,3.3455 2.459,4.25 4.419,4.25 3.5444,0 4.0908,1.6375 1.1822,3.5433 -2.0139,1.3195 -2.3781,2.1875 -1.9069,4.5439 0.8329,4.1644 -2.2252,3.9065 -3.9991,-0.3372 z M 597.75,1390.3026 c -2.03432,-8.3668 -2.10728,-9.3026 -0.72525,-9.3026 1.77179,0 3.0757,5.1465 2.76972,10.9321 L 599.5,1397.5 l -1.75,-7.1974 z M 1157.1886,1394 c 0.026,-1.375 0.3915,-3.85 0.8114,-5.5 l 0.7634,-3 0.048,3.5 c 0.026,1.925 -0.3387,4.4 -0.8114,5.5 -0.7798,1.8148 -0.855,1.7685 -0.8114,-0.5 z m 260.0822,-9.6042 c 0.3323,-0.3323 1.1948,-0.3678 1.9167,-0.079 0.7977,0.3192 0.5608,0.5562 -0.6042,0.6042 -1.0541,0.043 -1.6448,-0.193 -1.3125,-0.5253 z m 64.7539,-1.8826 -2.3603,-1.2632 2.1979,-1.1763 c 1.2089,-0.647 3.5164,-1.3432 5.1277,-1.5471 2.5902,-0.3278 2.8013,-0.1653 1.8217,1.4032 -1.9489,3.1208 -4.1894,3.9736 -6.787,2.5834 z M 153.59264,1364.8149 c -2.08495,-10.096 -2.71091,-13.5628 -4.10238,-22.7199 -1.81391,-11.9372 -1.39912,-15.3599 2.05202,-16.9323 2.12731,-0.9693 2.89149,-0.7207 5.89653,1.9177 4.03864,3.546 11.10859,14.3853 13.1421,20.1489 1.72471,4.8884 1.73897,4.308 -0.15234,6.1993 -2.25043,2.2504 -2.85336,2.0008 -4.74384,-1.9635 -1.40802,-2.9527 -1.98742,-3.3735 -3.51745,-2.5546 -3.68789,1.9737 -4.38558,3.8505 -4.02134,10.8173 0.3323,6.356 0.21795,6.7916 -1.86059,7.0871 -1.63999,0.2332 -2.33871,-0.2857 -2.69271,-2 z m 6.89081,-19.1791 c 1.79849,-1.3151 1.76892,-1.5294 -0.82073,-5.9484 -4.05642,-6.9217 -5.07877,-7.0075 -4.39357,-0.3685 0.81957,7.9409 1.63777,8.9321 5.2143,6.3169 z M 1496.0789,1199.5833 c -0.043,-1.0541 0.193,-1.6448 0.5253,-1.3125 0.3323,0.3323 0.3678,1.1948 0.079,1.9167 -0.3192,0.7977 -0.5562,0.5608 -0.6042,-0.6042 z M 1589,1155 c 0,-0.55 0.45,-1 1,-1 0.55,0 1,0.45 1,1 0,0.55 -0.45,1 -1,1 -0.55,0 -1,-0.45 -1,-1 z m -297,-91.441 c 0,-1.0705 -0.9537,-1.559 -3.0438,-1.559 -2.3442,0 -2.9763,-0.4023 -2.75,-1.75 0.1642,-0.9779 -0.2577,-1.6397 -0.9562,-1.5 -1.4219,0.2844 -1.4746,-0.4002 -0.25,-3.25 0.6861,-1.5966 0.8736,-1.6638 0.9297,-0.3329 0.039,0.9169 1.9328,3.2141 4.2093,5.1051 2.6329,2.187 3.7245,3.6941 3,4.1419 -0.666,0.4116 -1.139,0.056 -1.139,-0.8551 z m -27,-3.5 c 0,-0.5824 0.45,-1.059 1,-1.059 0.55,0 1,0.1984 1,0.441 0,0.2425 -0.45,0.7191 -1,1.059 -0.55,0.3399 -1,0.1415 -1,-0.441 z m 0.4943,-2.898 c -1.2581,-1.2582 -0.3473,-4.161 1.3057,-4.161 0.99,0 2.3363,-0.4537 2.9917,-1.0083 0.6554,-0.5546 0.9774,-0.7116 0.7155,-0.3489 -0.2619,0.3627 0.2606,1.1982 1.1611,1.8566 0.9005,0.6585 1.349,1.6636 0.9967,2.2336 -0.6895,1.1156 -6.3548,2.2438 -7.1707,1.428 z M 571.25,875.92835 c -2.43782,-0.93602 -2.84543,-2.94725 -1.21482,-5.99409 1.38273,-2.58364 2.75303,-2.44608 3.14527,0.31574 0.54618,3.84575 4.06629,3.32617 8.15932,-1.20433 5.27218,-5.83567 5.0319,-9.13057 -1.09346,-14.99471 -8.21232,-7.86209 -9.33327,-12.94326 -3.59282,-16.28601 5.8218,-3.39012 18.34651,-3.59283 18.34651,-0.29692 0,1.22741 -0.46388,1.23609 -3.2755,0.0613 -4.36372,-1.82328 -9.50835,-0.69947 -11.98527,2.6181 -2.45335,3.28599 -1.65901,4.95194 5.81096,12.18718 6.49254,6.28852 6.93855,9.07762 2.5176,15.74392 -4.33049,6.5299 -11.51795,9.88468 -16.81779,7.84979 z M 197.49325,850.98907 c -0.34364,-0.55601 -0.6881,-4.32025 -0.76547,-8.36498 -0.10964,-5.7319 0.23574,-7.73046 1.56578,-9.0605 0.93854,-0.93855 1.70644,-2.37165 1.70644,-3.18468 0,-2.08009 2.99889,-7.64351 4.90368,-9.09711 2.62318,-2.00182 5.91875,-1.48244 7.6835,1.21091 2.39127,3.64954 1.10166,7.00801 -4.96553,12.93149 -4.76762,4.65468 -5.23019,5.48894 -4.84986,8.74677 0.23124,1.98073 -0.0887,4.55256 -0.71086,5.71518 -1.1961,2.23494 -3.52109,2.79634 -4.56768,1.10292 z m 11.02113,-19.59682 c 3.0913,-4.0529 3.0027,-7.74746 -0.19672,-8.20293 -2.64229,-0.37617 -3.81578,1.61322 -4.74986,8.05233 -0.57864,3.98884 -0.44849,4.6498 0.81975,4.16313 0.82917,-0.31819 2.68625,-2.12382 4.12683,-4.01253 z M 178.21259,849.75 c -0.56776,-0.6875 -1.41393,-2.72837 -1.88037,-4.53526 l -0.84807,-3.28527 -3.45073,2.54588 c -3.37204,2.48781 -8.83802,4.50792 -12.22766,4.51907 -0.93183,0.003 -2.8986,-1.03038 -4.37061,-2.29654 -2.12745,-1.82996 -2.66465,-3.1523 -2.61917,-6.44727 0.0315,-2.27982 0.5519,-5.06948 1.15652,-6.19922 2.05829,-3.84596 18.0275,-10.55034 18.0275,-7.56852 0,0.69973 -0.75925,1.88984 -1.68723,2.64469 -1.48376,1.20693 -1.60511,1.15351 -1.00629,-0.44295 0.56948,-1.51826 0.3137,-1.70185 -1.56277,-1.12169 -11.21429,3.46719 -16.38188,10.81347 -11.74929,16.70286 2.72237,3.46093 6.44266,3.56051 12.78882,0.34231 5.22407,-2.64918 7.63464,-4.97413 8.66587,-8.35809 1.30402,-4.2791 2.14407,-2.2248 1.73262,4.237 -0.34649,5.44138 -0.13695,6.59295 1.29994,7.14434 2.05382,0.78812 5.05552,-2.60209 9.41301,-10.63134 3.79631,-6.99521 5.77518,-9.66348 6.57416,-8.86449 0.7918,0.7918 -4.57673,10.83864 -9.08985,17.01104 -4.2082,5.75539 -7.04044,7.17776 -9.1664,4.60345 z m 878.93051,-16.48268 c -1.3779,-2.5745 -5.1747,-13.16955 -6.1763,-17.23477 -1.5846,-6.43177 3.8894,-13.08691 10.6875,-12.99341 l 2.8457,0.0391 -3.4929,1.5147 c -5.1744,2.24394 -8.0071,5.31759 -8.0071,8.68832 0,2.08074 0.4004,2.77905 1.3781,2.40383 0.758,-0.29086 1.7769,-0.13009 2.2643,0.35727 0.5148,0.51481 2.7144,0.2562 5.2495,-0.61719 2.3998,-0.82682 4.5515,-1.3151 4.7816,-1.08508 0.23,0.23002 -1.6425,1.71009 -4.1611,3.28904 -4.9562,3.1071 -4.917,2.9243 -2.9003,13.52563 0.6035,3.17277 -1.1148,4.64298 -2.469,2.11252 z m 14.4523,-7.16187 c -1.6658,-1.84069 -4.0985,-14.93568 -2.9821,-16.05212 0.2627,-0.26269 1.383,0.0878 2.4896,0.77884 1.7672,1.10367 2.3698,0.87329 4.9553,-1.89452 4.5077,-4.82549 5.9418,-3.50781 5.9418,5.45954 0,5.29774 0.4348,7.89472 1.5,8.95995 1.8563,1.85627 1.9024,2.64286 0.155,2.64286 -2.3607,0 -4.7727,-3.67121 -5.4744,-8.33207 -0.6023,-4.00111 -0.8728,-4.37988 -2.3515,-3.2922 -1.4269,1.04961 -1.5212,1.93113 -0.6456,6.03655 0.8209,3.84878 0.7419,5.09088 -0.3959,6.22872 -1.2284,1.22834 -1.6617,1.15565 -3.1922,-0.53555 z M 267.07037,808.13148 c -0.55,-1.02768 -0.71974,-2.14878 -0.3772,-2.49132 0.87385,-0.87384 3.30683,1.32036 3.30683,2.98228 0,1.98813 -1.76079,1.69305 -2.92963,-0.49096 z m 357.90911,-31.6562 c -0.892,-1.0748 -1.0916,-3.59787 -0.67641,-8.55026 0.57663,-6.87802 0.54288,-7.01232 -1.60704,-6.39593 -1.20782,0.34628 -2.92714,0.83132 -3.82072,1.07787 -0.89358,0.24655 -2.41035,2.57334 -3.37061,5.17066 -0.96026,2.59731 -2.37702,5.73488 -3.14836,6.97238 -1.91831,3.07762 -4.35634,2.90827 -4.35634,-0.30259 0,-4.73383 3.17921,-16.57895 4.59564,-17.12248 0.7724,-0.2964 1.40436,-1.16576 1.40436,-1.93192 0,-2.4633 2.93932,-1.48297 3.61405,1.20537 0.57234,2.28041 1.02554,2.5237 3.70343,1.98812 1.67821,-0.33564 3.87895,-1.35928 4.89053,-2.27475 3.20052,-2.89643 3.835,-0.34652 1.8218,7.32162 -1.32614,5.05113 -1.63427,8.18655 -1.05635,10.74896 0.86267,3.82496 0.10419,4.62109 -1.99398,2.09295 z M 590.41726,772.25 c 0.37255,-2.6125 0.93894,-7.13844 1.25866,-10.05764 0.431,-3.93528 0.93589,-5.17156 1.95269,-4.78138 0.75426,0.28944 1.37139,0.17137 1.37139,-0.26237 0,-0.43374 1.61007,-2.66961 3.57792,-4.96861 2.34522,-2.73985 4.40029,-4.18 5.96482,-4.18 2.90317,0 4.73581,3.04201 3.88201,6.44379 -0.68522,2.73012 -8.00767,9.95342 -11.87744,11.71661 -1.5442,0.70358 -2.67955,2.26563 -3.07285,4.22774 -1.07704,5.37309 -1.57763,6.61186 -2.6719,6.61186 -0.69614,0 -0.82904,-1.63832 -0.3853,-4.75 z m 11.57986,-13.86636 C 606.25704,754.53505 607.29016,751 604.15499,751 c -2.33544,0 -4.64732,2.54073 -6.63027,7.2866 -1.96526,4.70353 -0.65784,4.7319 4.4724,0.097 z M 1136.3901,671.5 c 0.2791,-2.75 0.8118,-6.4625 1.1837,-8.25 0.6285,-3.02058 0.4887,-3.25 -1.9796,-3.25 -1.8743,0 -4.0813,1.47123 -7.5004,5 -2.6646,2.75 -5.1782,5 -5.5859,5 -1.8135,0 0.7962,-4.30568 8.9715,-14.80223 10.6241,-13.64063 12.0206,-14.02944 12.0206,-3.34671 0,4.45259 -0.4677,7.70476 -1.1951,8.30931 -0.6572,0.54632 -1.6908,3.32124 -2.2967,6.16647 -0.606,2.84524 -1.7821,6.29816 -2.6137,7.67316 -1.4545,2.40491 -1.4927,2.30981 -1.0044,-2.5 z m 3.4559,-18.53048 c 0.3022,-2.07253 0.1435,-2.2057 -1.25,-1.04923 -1.887,1.5661 -2.1452,4.42724 -0.346,3.83472 0.6875,-0.22642 1.4057,-1.47989 1.596,-2.78549 z m -30.3625,11.37117 c -1.1942,-1.19425 -1.5617,-2.97721 -1.3194,-6.40078 0.2975,-4.20224 0.142,-4.64147 -1.3584,-3.83729 -0.9319,0.49947 -1.9673,1.3498 -2.3009,1.88962 -0.3336,0.53981 -2.9945,1.67566 -5.913,2.52411 -6.2069,1.80438 -9.5687,0.9747 -12.1763,-3.00504 -1.5893,-2.42557 -1.5852,-2.80867 0.071,-6.48061 2.1424,-4.75115 6.9706,-9.85625 10.0532,-10.62995 3.3448,-0.83948 6.4606,1.2079 6.4606,4.24522 l 0,2.5756 -1.8313,-2.26154 c -2.5279,-3.1219 -6.3843,-2.00823 -9.6408,2.78417 -4.4489,6.54701 -3.0111,11.26916 3.4221,11.23935 6.1256,-0.0284 14.0334,-5.96566 16.3576,-12.28149 0.2978,-0.80903 0.7942,-0.87481 1.5183,-0.20118 0.7284,0.67765 0.7765,2.29235 0.1488,5 -1.1829,5.10303 -1.2364,11.49912 -0.096,11.49912 0.8409,0 10.6151,-14.06305 13.0318,-18.75 1.29,-2.50171 4.0898,-3.05556 4.0898,-0.80902 0,0.79254 -0.4071,1.69256 -0.9046,2.00003 -0.4975,0.30748 -2.3519,3.14654 -4.1208,6.30902 -3.7801,6.75785 -9.3412,13.84063 -11.973,15.24914 -1.3879,0.74278 -2.2846,0.57495 -3.5181,-0.65848 z M 73.496878,140.68973 c -5.362547,-3.83889 -5.608742,-4.27852 -3.476596,-6.20808 1.062906,-0.96192 1.691609,-2.1388 1.39712,-2.6153 -1.18654,-1.91986 1.276279,-0.67557 4.332598,2.18896 3.39822,3.18498 4.11898,5.97861 1.996878,7.7398 -0.900144,0.74705 -2.09728,0.43569 -4.25,-1.10538 z"
     id="path3328"
     style="fill:#000000" />
</svg>
