<?xml version="1.0" encoding="UTF-8" standalone="no"?>
<!-- Created with Inkscape (http://www.inkscape.org/) -->

<svg
   xmlns:dc="http://purl.org/dc/elements/1.1/"
   xmlns:cc="http://creativecommons.org/ns#"
   xmlns:rdf="http://www.w3.org/1999/02/22-rdf-syntax-ns#"
   xmlns:svg="http://www.w3.org/2000/svg"
   xmlns="http://www.w3.org/2000/svg"
   version="1.1"
   width="1592.5143"
   height="2152"
   id="svg2997">
  <metadata
     id="metadata3003">
    <rdf:RDF>
      <cc:Work
         rdf:about="">
        <dc:format>image/svg+xml</dc:format>
        <dc:type
           rdf:resource="http://purl.org/dc/dcmitype/StillImage" />
        <dc:title></dc:title>
      </cc:Work>
    </rdf:RDF>
  </metadata>
  <defs
     id="defs3001" />
  <path
     d="m 1216.3558,2150.5 c 0.3166,-0.825 0.8906,-1.5 1.2757,-1.5 0.3851,0 2.8021,-2.8628 5.3712,-6.3617 2.5691,-3.4989 6.6538,-7.9863 9.0771,-9.9721 2.4234,-1.9857 5.9854,-5.9854 7.9157,-8.8883 1.9303,-2.9028 5.3454,-6.9725 7.5892,-9.0436 2.2437,-2.0711 5.9009,-6.4478 8.1271,-9.726 2.2262,-3.2782 4.9098,-6.4219 5.9637,-6.9859 2.5932,-1.3878 14.4075,-21.3031 16.3271,-27.5224 0.8487,-2.75 1.8327,-7.4407 2.1865,-10.4237 0.6762,-5.7011 3.9201,-19.7714 7.28,-31.5763 1.0958,-3.85 2.7821,-10.825 3.7474,-15.5 0.9654,-4.675 2.5837,-12.1026 3.5964,-16.5059 1.0127,-4.4032 2.3245,-12.3391 2.915,-17.6352 0.5906,-5.2962 1.4278,-11.8694 1.8606,-14.6072 0.4328,-2.7379 0.6752,-7.402 0.5386,-10.3648 -1.1827,-25.6545 -1.7028,-32.3517 -3.0199,-38.8869 -2.5472,-12.6384 -3.3862,-15.0284 -8.3962,-23.9158 -9.1205,-16.179 -14.7025,-38.6587 -13.5542,-54.5842 0.8702,-12.0678 7.5251,-38.4489 10.1798,-40.3544 0.4947,-0.3551 2.1374,-2.5554 3.6504,-4.8896 2.1508,-3.3183 4.5174,-5.1321 10.8508,-8.3165 4.455,-2.24 11.0879,-4.9849 14.7398,-6.0998 8.4169,-2.5698 27.0968,-12.7437 33.6714,-18.339 2.7674,-2.3552 6.2611,-6.5412 7.7639,-9.3023 3.8684,-7.1076 7.677,-22.9411 8.3809,-34.8428 0.5832,-9.8594 0.4821,-10.5336 -3.5987,-24 -6.5502,-21.6153 -9.6601,-25.5511 -35.0477,-44.3556 -7.3436,-5.4394 -18.8287,-14.8653 -19.5656,-16.0577 -1.0881,-1.7605 0.2812,-2.3365 7.3347,-3.0849 6.1653,-0.6542 17.2331,-2.8459 29.7009,-5.8816 7.5914,-1.8484 14.0936,-4.878 24,-11.1826 15.9467,-10.1488 27.3247,-19.4069 31.4009,-25.5505 1.4295,-2.1545 4.3499,-6.5428 6.4897,-9.7517 8.6714,-13.004 13.6,-28.645 11.7477,-37.2819 -1.6445,-7.6681 -4.7054,-13.761 -8.7203,-17.3586 -16.122,-14.4462 -24.3997,-26.7583 -27.6712,-41.1576 -1.5444,-6.7976 -1.5525,-20.4123 -0.017,-29.1929 3.4497,-19.7314 7.7698,-39.633 9.1556,-42.1773 0.546,-1.0025 2.1029,-4.3721 3.4598,-7.4881 5.4894,-12.6058 19.8886,-28.1846 33.2546,-35.9785 4.3453,-2.5339 12.4006,-6.0578 17.9006,-7.8309 5.5,-1.7731 12.475,-4.0801 15.5,-5.1266 3.025,-1.0465 7.075,-1.8391 9,-1.7614 1.925,0.078 5.6532,-0.5962 8.2849,-1.4979 2.6318,-0.9016 6.0068,-1.6492 7.5,-1.6613 1.4933,-0.012 4.6767,-0.912 7.0743,-2 2.3976,-1.0879 5.0976,-1.9808 6,-1.9842 0.9024,0 2.7658,-0.6136 4.1408,-1.3561 1.375,-0.7425 4.975,-2.7093 8,-4.3706 3.025,-1.6613 10.4534,-5.6635 16.5076,-8.8938 13.4728,-7.1887 19.8939,-12.1008 33.63,-25.7267 11.7923,-11.6978 16.6859,-19.2077 19.3184,-29.6466 0.9015,-3.575 2.684,-9.875 3.9612,-14 3.5815,-11.5679 4.6191,-18.7397 4.653,-32.1612 0.036,-14.334 -0.5587,-19.3669 -3.1381,-26.5442 -2.6146,-7.2756 -9.6723,-22.016 -10.9063,-22.7786 -0.5642,-0.3487 -1.0258,-1.4012 -1.0258,-2.3388 0,-2.0072 -14.6913,-22.4542 -26.3274,-36.6418 -4.495,-5.4806 -10.1976,-12.7538 -12.6726,-16.1628 -13.3984,-18.4546 -23.602,-30.9261 -33.0093,-40.346 -5.7819,-5.7896 -12.0671,-12.5516 -13.967,-15.0266 -8.8327,-11.5065 -28.3472,-34.413 -36.6325,-43 -13.1577,-13.6368 -26.9624,-29.7508 -36.8376,-43 -4.7143,-6.325 -10.7049,-13.9269 -13.3125,-16.8931 -11.8475,-13.4767 -41.3064,-41.20173 -52.2411,-49.1663 -3.025,-2.20334 -7.074,-5.22884 -8.9978,-6.72333 -4.5569,-3.54009 -14.0658,-9.69257 -18.2222,-11.79025 -1.804,-0.91044 -4.5245,-2.81982 -6.0454,-4.24307 -1.521,-1.42325 -5.6605,-4.63438 -9.1989,-7.13584 -16.21,-11.45975 -21.0984,-16.42026 -34.3473,-34.85388 -10.2918,-14.31927 -12.9203,-18.87616 -15.6312,-27.09859 -4.4918,-13.6242 -5.3335,-47.53738 -1.5039,-60.59564 1.382,-4.71256 5.333,-12.77473 8.3249,-16.98753 9.457,-13.31584 16.8406,-30.4657 20.2406,-47.01247 3.5589,-17.32048 4.1458,-23.10786 4.9688,-49 1.0104,-31.7838 -0.8856,-46.19497 -8.8806,-67.5 -1.3416,-3.575 -3.6615,-8.975 -5.1554,-12 -1.4939,-3.025 -3.3879,-7.69251 -4.2089,-10.37224 -0.821,-2.67973 -2.9989,-8.30473 -4.8398,-12.5 -3.708,-8.45051 -10.9668,-28.86696 -13.0225,-36.62776 -1.3263,-5.00708 -5.4195,-16.61647 -9.167,-26 -3.3361,-8.35335 -5.0841,-14.35492 -10.8165,-37.13686 -3.0257,-12.02473 -6.0131,-22.98814 -6.6387,-24.36314 -0.6256,-1.375 -1.4839,-4.075 -1.9073,-6 -2.0383,-9.26606 -3.905,-17.03765 -5.4044,-22.5 -0.9059,-3.3 -2.5022,-10.95 -3.5473,-17 -4.4092,-25.52345 -8.5869,-40.16504 -17.9758,-63 -2.2615,-5.5 -5.0263,-13.6 -6.1441,-18 -1.1179,-4.4 -2.8604,-9.16848 -3.8724,-10.59663 -1.012,-1.42815 -2.8311,-7.50315 -4.0425,-13.5 -1.9981,-9.89096 -7.0089,-24.54051 -13.5205,-39.52842 -1.3442,-3.09377 -2.4439,-5.91854 -2.4439,-6.27725 0,-2.63276 -20.4749,-40.91026 -30.1123,-56.29449 -3.5132,-5.60823 -7.9627,-13.00893 -9.8877,-16.446 -5.7382,-10.24545 -13.8513,-22.07998 -18.1741,-26.51042 -4.7065,-4.82366 -14.7456,-18.80089 -18.2499,-25.40895 -1.3306,-2.50919 -4.412,-7.00919 -6.8475,-10 -2.4354,-2.99081 -5.9582,-7.73903 -7.8283,-10.55159 -10.5786,-15.90978 -22.9274,-29.61902 -35.1156,-38.984157 -5.3434,-4.10581 -10.2934,-8.238431 -11,-9.183601 -1.3878,-1.856605 -14.2395,-12.354061 -16.9221,-13.822274 C 1009.715,17.375315 1001.6477,7.647521 999.8317,4.229333 998.61294,1.936142 999.04561,0 1000.7764,0 c 0.5176,0 0.941,0.808396 0.941,1.796435 0,3.585927 11.2733,15.247652 21.3969,22.134181 1.1567,0.786839 4.1281,3.30825 6.6031,5.603136 2.475,2.294886 8.116,7.051109 12.5355,10.569384 8.9772,7.146578 18.6183,17.132854 25.9671,26.896864 2.6908,3.575 8.1543,10.84149 12.1412,16.14775 3.9869,5.30627 8.7253,12.05627 10.5298,15 5.3755,8.76929 15.7846,23.03615 20.3209,27.85225 4.5425,4.82267 16.8283,23.26901 22.7332,34.13235 1.9828,3.64779 6.0393,10.39779 9.0145,15 10.4742,16.2024 22.2118,38.47612 27.1518,51.52432 1.4903,3.93617 3.5892,8.17097 4.6644,9.41066 2.1075,2.43001 6.5907,16.05193 9.9628,30.272 1.1529,4.86163 2.5373,9.99946 3.0764,11.4174 0.5391,1.41793 2.5723,8.00494 4.5181,14.63778 1.9459,6.63284 5.4861,16.79501 7.8671,22.5826 9.1388,22.21392 15.3605,44.80994 18.0413,65.52289 0.356,2.75 1.6791,8.6 2.9403,13 1.2612,4.4 3.0609,11.375 3.9993,15.5 0.9384,4.125 2.9715,11.55 4.518,16.5 1.5465,4.95 4.2651,15.075 6.0415,22.5 3.7808,15.80377 8.9939,33.211 11.251,37.5684 0.8741,1.68762 3.2409,8.21262 5.2595,14.5 2.0186,6.28738 4.8147,14.5816 6.2134,18.4316 1.3988,3.85 3.7782,10.6 5.2875,15 1.5093,4.4 3.9713,10.7 5.4713,14 1.4999,3.3 3.5293,8.25 4.5097,11 0.9804,2.75 4.4581,11.525 7.7282,19.5 11.0449,26.93645 12.5213,41.31606 9.2918,90.5 -0.6139,9.35 -1.5454,18.61304 -2.0699,20.58453 -0.5245,1.97149 -1.6395,7.51714 -2.4777,12.32367 -1.89,10.8386 -8.6204,27.11102 -15.9616,38.5918 -12.0679,18.87261 -14.556,26.55168 -14.4828,44.69741 0.122,30.2343 3.9178,44.34148 15.3611,57.08912 1.8334,2.04241 5.041,6.41347 7.1279,9.71347 7.1453,11.29868 16.6562,20.61229 30.4674,29.83531 3.575,2.38736 7.1449,5.12146 7.9331,6.07576 0.7882,0.95431 3.1512,2.61162 5.2511,3.68291 5.1785,2.64189 18.0794,10.9978 19.3158,12.51085 0.55,0.67308 3.25,2.61865 6,4.32349 10.1691,6.30424 55.0942,49.24388 61.8031,59.07168 10.7141,15.695 25.1694,32.7601 49.1298,58 4.438,4.675 11.6686,12.9626 16.0681,18.4168 4.3994,5.4543 10.7657,13.3293 14.1471,17.5 3.3815,4.1708 9.9959,11.5473 14.6987,16.3922 8.1114,8.3568 18.7039,21.1629 28.6532,34.6411 2.475,3.3529 7.9905,10.4733 12.2567,15.823 20.9741,26.3014 31.944,41.746 36.3853,51.2269 9.6062,20.507 9.7375,20.8566 11.4273,30.4244 1.4379,8.1415 0.6385,28.876 -1.468,38.0756 -2.9422,12.849 -8.686,30.718 -11.9704,37.2401 -2.5715,5.1063 -6.0244,9.4039 -13.6401,16.9772 -5.6083,5.577 -9.9568,10.5288 -9.6632,11.0038 0.2936,0.4751 -0.3257,0.9285 -1.3763,1.0076 -1.0506,0.079 -3.6498,1.9726 -5.7759,4.2076 -2.1262,2.235 -4.5691,4.0637 -5.4287,4.0637 -0.8597,0 -7.1169,2.9994 -13.9049,6.6652 -6.788,3.6659 -14.6083,7.8771 -17.3784,9.3583 -2.7702,1.4812 -5.9202,3.1996 -7,3.8188 -2.3941,1.3727 -12.5891,4.9572 -17.7134,6.2278 -2.0625,0.5115 -5.6625,1.4184 -8,2.0155 -2.3375,0.5971 -7.175,1.4342 -10.75,1.8602 -3.575,0.4261 -8.075,1.4515 -10,2.2788 -1.925,0.8272 -7.766,2.9343 -12.98,4.6823 -17.9133,6.0055 -29.9779,14.6017 -40.5394,28.8849 -8.7712,11.8621 -11.6272,19.5841 -16.9556,45.8451 -2.0931,10.3159 -4.5251,27.1359 -4.5242,31.2892 0,9.4985 6.082,28.1567 10.67,32.7447 1.0451,1.0451 3.2085,3.6842 4.8076,5.8647 1.5991,2.1805 6.3136,7.3395 10.4767,11.4645 6.3978,6.3392 7.993,8.6191 10.3071,14.7307 3.104,8.1978 3.3344,12.1135 1.2364,21.0118 -2.0911,8.8687 -6.5129,18.0827 -14.0226,29.2201 -6.9439,10.2981 -12.4757,16.2987 -19.145,20.7675 -21.3838,14.3281 -27.6749,18.2699 -29.1586,18.2699 -0.95,0 -2.615,0.6176 -3.6999,1.3725 -2.1917,1.5251 -34.2056,9.6275 -38.0398,9.6275 -1.338,0 -2.4327,0.4055 -2.4327,0.9011 0,1.1211 10.6361,10.3499 13.9193,12.0774 6.9576,3.6611 22.577,16.7281 26.7336,22.3651 5.5706,7.5544 7.0181,10.8143 11.7848,26.5393 3.5709,11.7802 3.7197,12.8266 3.0564,21.5 -0.8814,11.525 -4.6534,27.3952 -8.2187,34.5795 -4.5168,9.1015 -12.0805,15.6307 -26.3378,22.7359 -6.8407,3.409 -15.5876,7.1949 -19.4376,8.413 -3.85,1.2181 -8.8667,3.2064 -11.1482,4.4184 -2.2816,1.212 -5.4776,2.6671 -7.1022,3.2335 -2.3817,0.8302 -3.4612,2.2967 -5.572,7.5694 -2.5061,6.26 -6.8058,27.5019 -8.1307,40.1674 -1.0123,9.678 -1.5207,11.4473 -3.1138,10.8359 -1.8907,-0.7255 -1.8672,2.4452 0.088,11.8487 2.4436,11.754 5.3407,19.5284 12.0422,32.3154 6.877,13.1218 9.7837,23.028 11.4275,38.9458 1.524,14.7563 1.3201,34.0891 -0.5013,47.5542 -1.8013,13.3159 -8.0119,43.623 -11.9881,58.5 -1.323,4.95 -3.5795,14.85 -5.0144,22 -1.435,7.15 -3.5008,15.25 -4.5907,18 -2.9478,7.4376 -9.6814,18.403 -14.4308,23.5 -2.3062,2.475 -6.0996,7.1296 -8.4298,10.3435 -2.3302,3.2139 -6.0205,7.4551 -8.2008,9.4249 -2.1802,1.9697 -4.6654,4.9651 -5.5226,6.6564 -0.8572,1.6914 -4.7656,6.2612 -8.6853,10.1552 -3.9197,3.894 -9.2321,9.4065 -11.8054,12.25 -2.7221,3.008 -5.5317,5.17 -6.7186,5.17 -1.4024,0 -1.86,-0.4688 -1.4643,-1.5 z m -68.5595,-79.9167 c -0.043,-1.0541 0.193,-1.6448 0.5253,-1.3125 0.3323,0.3323 0.3678,1.1948 0.079,1.9167 -0.3192,0.7977 -0.5562,0.5608 -0.6042,-0.6042 z m 0.5605,-3.3577 c -0.5982,-0.968 -0.044,-40.7654 0.7824,-56.2256 1.0704,-20.0142 1.5646,-31.0729 2.0781,-46.5 0.2746,-8.25 0.7161,-19.95 0.981,-26 0.265,-6.05 0.7277,-19.55 1.0282,-30 0.3006,-10.45 0.7606,-25.075 1.0222,-32.5 0.2617,-7.425 0.6886,-19.575 0.9486,-27 0.2601,-7.425 0.7303,-22.5 1.0449,-33.5 0.3146,-11 0.7594,-23.15 0.9883,-27 0.229,-3.85 0.6642,-17.35 0.9672,-30 0.303,-12.65 0.7618,-26.375 1.0195,-30.5 0.2578,-4.125 0.71,-17.625 1.0049,-30 0.2949,-12.375 0.7424,-25.425 0.9945,-29 0.252,-3.575 0.7277,-16.625 1.057,-29 0.3293,-12.375 0.7551,-24.975 0.9462,-28 0.191,-3.025 0.6133,-13.6 0.9384,-23.5 0.325,-9.9 0.8153,-24.075 1.0894,-31.5 0.2741,-7.425 0.939,-27.45 1.4776,-44.5 0.5386,-17.05 1.199,-36.4 1.4675,-43 0.2685,-6.6 0.7334,-20.55 1.033,-31 0.2996,-10.45 0.7601,-23.725 1.0235,-29.5 0.4863,-10.6656 0.9694,-24.5294 1.9515,-56 0.3004,-9.625 0.7579,-23.575 1.0167,-31 0.2588,-7.425 0.7128,-22.725 1.0089,-34 0.2961,-11.275 0.7413,-24.775 0.9895,-30 0.2482,-5.225 0.6946,-17.375 0.9921,-27 0.2974,-9.625 0.7657,-23.35 1.0408,-30.5 1.8791,-48.8532 2.4475,-72.9212 1.7389,-73.6298 -0.4505,-0.4505 -9.8082,-0.3885 -20.7947,0.1379 -10.9865,0.5263 -35.5005,1.6593 -54.4755,2.5176 -84.9352,3.8422 -93.2177,4.3613 -94.9763,5.9529 -2.0723,1.8753 -3.4561,1.9118 -6.3089,0.1662 -1.859,-1.1376 -6.87366,-1.1455 -31.2148,-0.05 -15.95,0.7181 -45.875,2.0006 -66.5,2.8501 -20.625,0.8494 -41.1,1.7669 -45.5,2.0387 -4.4,0.2719 -18.575,0.9483 -31.5,1.5031 -12.925,0.5548 -33.625,1.4624 -46,2.0168 -12.375,0.5544 -48.15,2.1154 -79.5,3.4689 -31.35,1.3535 -62.625,2.7088 -69.5,3.0116 -40.7492,1.795 -88.84885,3.8167 -142.5,5.9894 -33.55,1.3588 -65.05,2.7055 -70,2.9928 -4.95,0.2873 -20.25,0.97 -34,1.5171 -13.75,0.5472 -29.725,1.2275 -35.5,1.5119 -5.775,0.2844 -26.925,1.1858 -47,2.0031 -20.075,0.8172 -46.4,1.9251 -58.5,2.4619 -12.1,0.5368 -28.525,1.2118 -36.5,1.5 -31.14988,1.1256 -44.75864,1.6704 -51,2.0417 -3.575,0.2127 -13.475,0.6553 -22,0.9836 -23.42534,0.9021 -32.39712,1.5489 -32.97576,2.3772 -0.28833,0.4128 -1.96095,1.3314 -3.716923,2.0414 -3.433626,1.3882 -11.749577,0.6202 -10.752545,-0.993 0.77846,-1.2596 -8.127865,-1.1499 -50.936541,0.6273 -20.284975,0.8421 -37.07817726,1.3347 -37.31822709,1.0946 -0.53743756,-0.5371 11.33575609,-1.2924 40.70000009,-2.5888 12.375,-0.5464 29.1375,-1.2903 37.25,-1.6533 8.1125,-0.3629 14.75,-1.0335 14.75,-1.4902 0,-0.4567 0.905229,-1.3148 2.011621,-1.9069 1.535902,-0.822 2.857013,-0.6754 5.586435,0.6198 3.13825,1.4892 5.85414,1.6146 22.23838,1.0268 10.26496,-0.3683 21.58856,-0.8745 25.16356,-1.1249 3.575,-0.2504 13.52941,-0.6972 22.1209,-0.9928 8.5915,-0.2957 24.5665,-0.9581 35.5,-1.472 10.93351,-0.5139 27.7541,-1.2013 37.3791,-1.5276 9.625,-0.3262 25.15,-1.0191 34.5,-1.5397 9.35,-0.5206 28.25,-1.4033 42,-1.9615 13.75,-0.5582 29.5,-1.2564 35,-1.5514 10.98651,-0.5893 81.14713,-3.662 136,-5.9561 19.25,-0.805 39.05,-1.688 44,-1.962 4.95,-0.2741 15.525,-0.7531 23.5,-1.0643 7.975,-0.3113 23.275,-0.9841 34,-1.4952 10.725,-0.511 25.125,-1.1728 32,-1.4706 6.875,-0.2978 25.775,-1.1882 42,-1.9786 29.7097,-1.4474 37.05632,-1.7727 80,-3.5419 12.925,-0.5325 27.325,-1.2076 32,-1.5001 4.675,-0.2925 19.3,-0.9794 32.5,-1.5265 13.2,-0.5471 33.9,-1.4351 46,-1.9732 12.1,-0.5382 32.8,-1.443 46,-2.0107 13.2,-0.5678 26.925,-1.2311 30.5,-1.474 3.575,-0.243 18.65,-0.9176 33.5,-1.4991 32.41466,-1.2694 33.36223,-1.3765 35.1829,-3.9758 1.4897,-2.1269 5.7447,-2.7775 6.8171,-1.0424 0.7661,1.2396 7.8113,1.2927 12.5,0.094 1.925,-0.492 4.9911,-1.1589 6.8135,-1.4821 2.9845,-0.5292 3.2497,-0.3865 2.671,1.4369 -0.6242,1.9665 -0.3474,2.0085 9.6865,1.4717 5.6809,-0.3039 20.229,-1.0033 32.329,-1.5541 12.1,-0.5509 26.95,-1.2385 33,-1.528 6.05,-0.2896 25.1391,-1.1833 42.4202,-1.9861 17.2811,-0.8028 31.5339,-1.5733 31.6728,-1.7122 0.6737,-0.6737 1.3904,-13.4575 1.9756,-35.2403 0.3547,-13.2 0.7701,-24.675 0.9232,-25.5 0.1531,-0.825 0.563,-12.3 0.911,-25.5 0.3479,-13.2 0.8664,-28.5 1.152,-34 0.9216,-17.743 3.4323,-95.66378 3.4388,-106.72432 l 0.01,-10.72432 -2.8489,-1.47324 c -1.567,-0.81029 -5.0545,-2.02152 -7.75,-2.69164 -7.154,-1.77844 -17.1104,-6.5385 -23.4011,-11.18781 -3.025,-2.2357 -5.725,-4.38791 -6,-4.78269 -1.054,-1.51308 -12.3859,-9.90369 -14.1177,-10.45334 -1.9672,-0.62435 -3.8677,-6.04449 -3.8767,-11.05609 -0.01,-3.00388 0.6188,-5.02596 6.7631,-21.90655 6.8229,-18.74519 17.7963,-38.12942 26.6602,-47.09477 1.1391,-1.15212 3.9539,-4.35114 6.2551,-7.10893 3.9904,-4.7822 12.0591,-11.06866 18.3494,-14.2963 1.6078,-0.825 2.9331,-2.0074 2.945,-2.62756 0.012,-0.62015 0.7337,-1.71858 1.6041,-2.44094 1.4187,-1.17736 1.5075,-5.62728 0.8578,-42.96089 -0.6862,-39.43391 -0.6298,-41.68391 1.0606,-42.33259 0.982,-0.3768 1.9159,-0.55455 2.0755,-0.39499 0.1595,0.15956 0.3909,6.03735 0.5142,13.06175 0.1232,7.02441 0.6156,13.01363 1.0941,13.30938 0.4786,0.29575 0.7453,13.48006 0.5927,29.29846 -0.2278,23.61872 -0.018,29.24792 1.1746,31.48576 1.0678,2.00403 1.1707,3.17557 0.3886,4.42779 -0.5848,0.93651 -0.9044,3.04624 -0.71,4.68829 2.5319,21.39578 5.0052,36.3494 7.027,42.48554 3.1585,9.58604 13.1607,28.43342 19.8909,37.4806 5.7653,7.7502 19.2551,21.08441 26.8288,26.5194 2.6825,1.925 8.5325,6.12729 13,9.33843 4.4675,3.21113 10.1477,6.95127 12.6227,8.31141 10.9952,6.04248 13.4384,7.61265 20.2614,13.02156 20.0223,15.87261 43.8642,39.51242 56.2699,55.7931 5.9004,7.7434 11.7236,19.1569 10.9759,21.5128 -0.8667,2.7306 -1.3793,2.615 -8.1432,-1.8366 -3.2252,-2.1226 -9.689,-6.2399 -14.364,-9.1496 -4.675,-2.9096 -10.1301,-6.3693 -12.1224,-7.6883 -1.9924,-1.3189 -5.8174,-3.2385 -8.5,-4.2659 -6.9983,-2.67992 -20.5566,-9.19186 -30.1146,-14.46366 -4.5303,-2.49876 -10.8303,-5.42173 -14,-6.49549 -8.4768,-2.87163 -22.444,-9.52612 -25.8208,-12.30205 -12.1115,-9.95632 -27.737,-18.50066 -37.8688,-20.70736 -3.2596,-0.70995 -7.859,-2.11912 -10.2207,-3.13148 -2.4,-1.02877 -4.544,-1.43629 -4.8607,-0.92389 -0.4942,0.79953 0.3033,49.85105 1.9752,121.48703 0.2824,12.1 0.7871,40.1326 1.1215,62.2946 0.3345,22.1621 0.9361,41.5121 1.3369,43 0.7127,2.6456 0.8929,2.703 8.1516,2.5969 7.3982,-0.1081 28.2299,-1.0251 43.4228,-1.9115 11.9115,-0.6949 46.6494,-2.2879 75.5,-3.4622 14.025,-0.5708 29.325,-1.246 34,-1.5004 4.675,-0.2543 15.1375,-0.7603 23.25,-1.1244 8.1125,-0.3641 14.75,-1.0281 14.75,-1.4755 0,-0.4474 1.35,-0.3428 3,0.2323 2.9024,1.0118 3.799,2.2725 2.25,3.1637 -0.4125,0.2373 -6.6,0.7196 -13.75,1.0718 -20.9611,1.0323 -54.8997,2.5431 -70,3.116 -7.7,0.2921 -18.05,0.7591 -23,1.0377 -4.95,0.2787 -23.4,1.1731 -41,1.9875 -49.8197,2.3053 -54.9418,2.6241 -55.8501,3.4762 -0.9171,0.8603 -0.9908,22.3727 -0.1782,51.9973 0.2791,10.175 0.7432,32.9 1.0314,50.5 0.7664,46.8088 1.4895,77.6174 3.2153,137 0.8473,29.15 1.4841,57.05 1.4154,62 -0.069,4.95 0.3167,33.75 0.8567,64 0.54,30.25 1.2843,83.4096 1.654,118.1323 l 0.6723,63.1324 -2.2338,0.7089 c -1.2285,0.39 -2.377,0.5554 -2.5521,0.3677 -0.5733,-0.6147 -1.4949,-34.5837 -2.0305,-74.8413 -1.651,-124.0949 -2.5008,-170.1794 -3.158,-171.25 -0.2533,-0.4125 -1.8739,-0.75 -3.6014,-0.75 -3.6085,0 -2.654,-1.6415 1.259,-2.1653 l 2.5,-0.3347 -0.068,-16.5 c -0.1022,-24.9047 -1.526,-124.103 -1.9448,-135.5 -0.2021,-5.5 -0.6733,-32.95 -1.047,-61 -0.3737,-28.05 -0.8197,-52.125 -0.9911,-53.5 -0.1714,-1.375 -0.3426,-9.085 -0.3805,-17.1334 -0.079,-16.6693 0.3781,-15.9173 -9.0689,-14.9372 l -5.5,0.5706 -0.6122,5.0152 c -0.3367,2.7583 -0.9098,15.8083 -1.2737,29 -0.3639,13.1916 -0.8654,27.5848 -1.1145,31.9848 -0.2492,4.4 -0.7031,17.675 -1.0088,29.5 -0.3056,11.825 -0.7484,26.225 -0.9839,32 -0.2355,5.775 -0.684,18.6 -0.9967,28.5 -0.3126,9.9 -0.7857,22.95 -1.0512,29 -0.2654,6.05 -0.9237,27.425 -1.4629,47.5 -0.5391,20.075 -1.2578,42.8556 -1.5971,50.6237 -0.4458,10.2063 -0.2958,14.322 0.5406,14.839 0.8458,0.5227 0.8613,1.0723 0.058,2.0408 -0.6991,0.8424 -1.4431,12.5655 -2.041,32.161 -0.5175,16.9595 -1.3963,42.9855 -1.9528,57.8355 -1.1777,31.4252 -4.1873,116.7402 -6.9847,198 -1.0793,31.35 -2.2097,62.85 -2.5121,70 -0.3024,7.15 -1.2022,35.275 -1.9995,62.5 -1.5961,54.5034 -2.0678,69.2896 -3.5085,110 -0.5353,15.125 -1.0228,35.15 -1.0834,44.5 -0.061,9.35 -0.4862,18.35 -0.9459,20 -0.4597,1.65 -1.0812,8.625 -1.3812,15.5 -0.3,6.875 -0.7273,13.4 -0.9497,14.5 -0.2224,1.1 -0.7241,4.362 -1.115,7.2489 -0.3909,2.8869 -1.0989,5.4888 -1.5733,5.782 -0.4745,0.2932 -0.6092,1.1937 -0.2993,2.0011 0.5857,1.5265 -0.1743,2.0478 -1.0113,0.6936 z m 50.9551,-971.4756 c -0.8712,-39.5385 -1.5285,-82.7063 -2.1129,-138.75 -0.6062,-58.13629 -1.0744,-69 -2.9734,-69 -2.052,0 -2.215,2.86274 -4.525,79.5 -0.5305,17.6 -1.1996,38.75 -1.487,47 -0.2874,8.25 -0.9789,28.95 -1.5367,46 -0.5578,17.05 -1.2316,37.4477 -1.4974,45.3283 -0.2658,7.8806 -0.227,14.7431 0.086,15.25 0.3133,0.5069 3.732,0.9217 7.597,0.9217 l 7.0275,0 -0.5784,-26.25 z m 157.5203,-133.5 c -1.1927,-2.1844 -7.4292,-10.2927 -16.8928,-21.96295 -11.2881,-13.9202 -42.7345,-40.423 -58.722,-49.49057 -25.5468,-14.48929 -49.6651,-34.70127 -60.4127,-50.62806 -5.9412,-8.80427 -13.9483,-22.79727 -16.1185,-28.16842 -1.0001,-2.475 -2.7736,-6.3 -3.9413,-8.5 l -2.1231,-4 0.4921,41.91655 c 0.4547,38.72986 0.6294,42.04853 2.2978,43.65261 1.8678,1.79575 15.2117,6.93084 18.0104,6.93084 3.1656,0 16.7394,7.34342 27.4209,14.83472 14.555,10.20784 19.8844,12.99752 32.9638,17.25497 3.5258,1.14768 11.5856,4.90425 17.9106,8.34794 12.5859,6.85245 24.4198,12.56237 26.0359,12.56237 1.7926,0 10.0942,4.5957 21.4641,11.8823 6.05,3.8773 11.3533,7.0649 11.7852,7.0836 0.4318,0.019 0.3552,-0.7534 -0.1704,-1.7159 z M 1194.8951,849.95133 c -0.5923,-1.60125 -1.0496,2.60566 -1.4232,13.09475 -0.3823,10.73442 -0.1998,16.0647 0.5976,17.45392 0.9091,1.58395 1.2052,-1.14009 1.4231,-13.09474 0.1514,-8.30211 -0.1175,-16.15638 -0.5975,-17.45393 z m -5.7412,9.54867 c 1.3426,-38.135 2.5834,-71.62966 3.2137,-86.75 0.5322,-12.76788 0.4047,-15.75 -0.6735,-15.75 -3.118,0 -15.8269,10.08413 -23.8818,18.9494 -14.385,15.83233 -19.9905,25.33548 -29.735,50.41115 -6.2006,15.95602 -6.4795,20.261 -1.5154,23.39215 3.0903,1.94929 10.763,7.8314 13.6555,10.4688 4.0338,3.67797 10.1016,8.02983 14,10.04079 5.2456,2.70593 22.8156,8.49017 23.6514,7.78631 0.3583,-0.30173 0.9366,-8.6486 1.2851,-18.5486 z m -4.3458,1188.3782 c -5.1377,-1.9866 -6.3601,-7.0288 -3.6003,-14.851 1.3869,-3.9309 5.9847,-8.8476 7.7402,-8.2772 2.1091,0.6853 -0.313,-10.52 -2.8103,-13.0012 -0.4158,-0.4132 -0.9098,-3.6259 -1.0977,-7.1394 -0.2867,-5.3615 -0.06,-6.4963 1.4123,-7.0612 2.9511,-1.1324 6.2542,4.0425 6.2601,9.8075 0,2.6706 0.7215,7.6206 1.5973,11 2.2205,8.5687 1.6427,21.515 -1.1257,25.2219 -3.0752,4.1178 -5.5553,5.3912 -8.3759,4.3006 z m 4.9294,-12.4749 c 0.635,-3.0591 0.8857,-5.8309 0.5569,-6.1596 -1.7914,-1.7914 -5.6343,9.2365 -4.0896,11.7359 1.1846,1.9167 2.3634,0.056 3.5327,-5.5763 z m -24.3552,-13.1708 c -3.7831,-5.4669 -5.7569,-11.7615 -6.3444,-20.2325 -0.6265,-9.0339 0.5937,-13 3.9998,-13 5.5852,0 7.1958,5.7202 5.3496,19 l -0.7646,5.5 1.5906,-3.4677 c 1.8213,-3.9706 3.0935,-4.9954 6.2284,-5.017 3.5098,-0.024 5.4383,4.7499 4.6451,11.4991 -0.782,6.6532 -3.0086,8.6073 -6.9013,6.0567 -3.0833,-2.0203 -3.4681,-1.9792 -3.4681,0.3699 0,3.4074 -1.6765,3.1334 -4.3351,-0.7085 z m -0.9756,-25.9825 c -0.2515,-0.9625 -0.4573,-0.175 -0.4573,1.75 0,1.925 0.2058,2.7125 0.4573,1.75 0.2516,-0.9625 0.2516,-2.5375 0,-3.5 z M 339.7174,1808.0756 c 0,-0.4739 0.675,-1.1206 1.5,-1.4372 0.825,-0.3166 1.5,-0.1879 1.5,0.286 0,0.4739 -0.675,1.1206 -1.5,1.4372 -0.825,0.3166 -1.5,0.1879 -1.5,-0.286 z m 896.6667,-376.7423 c -0.3667,-0.3666 -0.6667,-2.0916 -0.6667,-3.8333 0,-1.7417 -0.231,-3.3977 -0.5133,-3.68 -1.0538,-1.0538 -7.3896,1.7008 -7.8357,3.4067 -0.5556,2.1246 -1.6377,2.2347 -4.1204,0.4193 -3.7264,-2.7248 -3.6931,-20.6546 0.049,-26.396 4.7955,-7.3575 14.5739,4.8556 17.6144,22.0002 0.5609,3.1627 0.7608,6.4252 0.4443,7.25 -0.5838,1.5215 -3.7524,2.0524 -4.9716,0.8331 z m -4.9167,-11.9636 c 1.4626,-0.392 2.2356,-1.3495 2.2088,-2.7363 -0.053,-2.7614 -4.1582,-11.1334 -5.4588,-11.1334 -1.1834,0 -2.4937,9.0176 -1.78,12.25 0.5204,2.3568 1.3194,2.6141 5.03,1.6197 z m -51.25,6.6303 c 0.3399,-0.55 2.8149,-1 5.5,-1 2.6851,0 5.1601,0.45 5.5,1 0.3863,0.625 -1.676,1 -5.5,1 -3.824,0 -5.8863,-0.375 -5.5,-1 z M 97.981154,1238.2824 c 1.520062,-0.2298 3.770056,-0.2237 4.999996,0.014 1.22994,0.2373 -0.0138,0.4254 -2.76375,0.4179 -2.749996,-0.01 -3.756309,-0.2017 -2.236246,-0.4316 z M 67.485206,1230.25 c -2.671541,-2.8188 -6.310237,-14.1076 -4.976997,-15.4408 0.397694,-0.3977 2.351417,3.5325 4.341606,8.7339 1.990189,5.2013 3.533756,9.4569 3.430148,9.4569 -0.103607,0 -1.361248,-1.2375 -2.794757,-2.75 z m 53.232194,-3.0001 c 0,-1.6236 6.77325,-8.7763 7.57131,-7.9954 0.4241,0.415 -0.56983,2.4113 -2.20873,4.4362 -2.99111,3.6957 -5.36258,5.2696 -5.36258,3.5592 z m 7.63948,-20.9438 c -0.35171,-0.3517 -0.63948,-3.5754 -0.63948,-7.1639 0,-5.9515 0.12894,-6.354 1.4682,-4.5833 2.48849,3.29 1.71259,14.2886 -0.82872,11.7472 z m -66.287893,-9.6738 c 0.31253,-3.5439 1.138976,-5.5774 3.038847,-7.4773 2.900749,-2.9007 3.502251,-1.447 0.98861,2.3893 -0.891528,1.3606 -2.259009,4.1573 -3.038846,6.2148 l -1.417887,3.7409 0.429276,-4.8677 z m 51.592043,-16.8552 c -5.40195,-5.9143 -2.92763,-5.8097 4.05637,0.1716 3.26216,2.7938 3.34327,2.9993 1.19363,3.0244 -1.34648,0.016 -3.53148,-1.3144 -5.25,-3.196 z m -38.943626,-0.2801 c 0,-2.0806 2.709063,-3.661 5.689528,-3.3193 2.755326,0.316 2.727081,0.364 -1.439528,2.4468 -2.939267,1.4694 -4.25,1.7384 -4.25,0.8725 z M 1426.4531,1159.246 c -1.4512,-1.5147 -4.2614,-6.2666 -6.245,-10.5597 -3.239,-7.0105 -3.4924,-8.1511 -2.4875,-11.196 1.5958,-4.8354 7.223,-9.4903 11.4726,-9.4903 1.8734,0 3.7273,0.5195 4.1197,1.1545 0.3952,0.6395 0.2785,0.8857 -0.2616,0.5518 -1.5883,-0.9816 -7.11,2.9601 -8.844,6.3132 -0.8839,1.7093 -1.4682,4.5417 -1.2985,6.2942 0.2536,2.6183 0.787,3.2416 2.9922,3.4963 1.476,0.1705 4.0411,-0.392 5.7003,-1.25 3.9688,-2.0523 4.407,-1.972 3.0522,0.5594 -0.6238,1.1656 -2.8671,2.8 -4.9851,3.632 l -3.8509,1.5127 2.45,4.8347 c 3.7572,7.4145 2.9919,9.1639 -1.8144,4.1472 z m 20.9276,-4.0655 c -0.9056,-1.0008 -2.0909,-4.0383 -2.6339,-6.75 -0.543,-2.7118 -1.638,-7.6268 -2.4333,-10.9223 -0.7952,-3.2954 -1.2741,-6.1635 -1.0641,-6.3735 1.1381,-1.1381 3.8241,1.3624 5.185,4.8267 1.3677,3.4818 1.7952,3.8349 3.5236,2.9098 1.7269,-0.9242 1.8847,-1.7128 1.2918,-6.458 -0.5892,-4.7163 -0.4703,-5.3266 0.9331,-4.7881 0.8847,0.3395 2.2784,1.9127 3.0972,3.4961 0.8187,1.5833 2.141,2.8788 2.9382,2.8788 1.1572,0 1.2451,0.5379 0.4357,2.6668 -0.7348,1.9325 -0.5908,4.7129 0.523,10.0984 0.8452,4.0873 1.268,7.8666 0.9393,8.3983 -0.9883,1.5992 -4.3289,-2.1978 -5.5658,-6.3263 -1.1525,-3.8465 -3.4193,-5.0792 -4.4415,-2.4153 -0.3001,0.782 -0.023,2.3989 0.6164,3.5931 1.1944,2.2316 0.6009,6.985 -0.8721,6.985 -0.4542,0 -1.5669,-0.8188 -2.4726,-1.8195 z M 96.689602,1151.9649 c -4.40562,-5.5626 -9.088664,-17.1578 -9.713739,-24.0512 -0.469698,-5.1799 -0.271418,-5.9917 2.024298,-8.2874 3.846766,-3.8467 6.960012,-4.2194 12.395629,-1.4839 6.38328,3.2124 8.63943,7.483 7.91827,14.9882 l -0.54103,5.6305 3.17411,0.6348 c 3.8156,0.7632 7.77026,4.239 7.77026,6.8294 0,2.2763 -6.21589,5.1583 -9.13033,4.2333 -1.09094,-0.3462 -2.71626,-2.1661 -3.61181,-4.0441 -1.89215,-3.9678 -1.96513,-3.9876 -5.25786,-1.4225 l -2.499996,1.9475 2.208066,3.9055 c 3.66681,6.4857 0.16897,7.3128 -4.735868,1.1199 z m 17.757558,-6.6542 c 0.36799,-1.1039 -2.64959,-2.7242 -3.49643,-1.8774 -0.26422,0.2643 -0.19958,1.2123 0.14366,2.1067 0.65849,1.716 2.75207,1.5728 3.35277,-0.2293 z m -11.66617,-7.4 c 1.21147,-1.7014 2.41807,-5.0043 2.68132,-7.3399 0.41772,-3.706 0.0694,-4.7127 -2.73672,-7.9087 -6.481083,-7.3815 -12.951901,-3.0543 -10.994164,7.3522 1.001014,5.3209 1.839836,7.7094 3.763438,10.7162 1.734158,2.7106 3.96209,1.8484 7.286126,-2.8198 z m 881.43641,-12.8101 c -5.66372,-2.6808 -10.40127,-6.5327 -9.34003,-7.5939 0.67357,-0.6736 19.84003,8.673 19.84003,9.675 0,1.6196 -4.61332,0.7052 -10.5,-2.0811 z m 42.15,-12.4772 c -1.7325,-1.8571 -3.7302,-4.1071 -4.4394,-5 -1.8475,-2.326 -2.5233,-2.0551 -4.6294,1.8556 -2.5577,4.7494 -5.0869,5.3688 -8.5143,2.0851 -4.304,-4.1235 -7.0669,-10.5747 -7.0669,-16.5006 0,-4.4332 0.4393,-5.6567 2.9231,-8.1404 1.995,-1.995 3.9244,-2.9231 6.0769,-2.9231 4.9835,0 9,4.6516 9,10.4231 0,2.5173 0.2408,4.5769 0.5352,4.5769 0.2943,0 1.6989,-0.7625 3.1212,-1.6944 2.4547,-1.6084 2.6561,-1.5987 3.9648,0.1911 0.7642,1.0451 1.3788,4.266 1.3788,7.2258 0,6.3148 1.4389,7.3924 6.5909,4.9355 3.2795,-1.5638 3.4091,-1.5502 3.4091,0.3582 0,2.7938 -3.5185,5.9838 -6.6,5.9838 -1.6647,0 -3.7331,-1.2146 -5.75,-3.3766 z m -11.705,-11.9502 c 2.1051,-10.3235 -2.1402,-15.5252 -5.9125,-7.2446 -2.191,4.8096 -2.0166,8.1159 0.6534,12.3883 2.0295,3.2476 3.9263,1.3924 5.2591,-5.1437 z m -56.57422,-3.5196 c -4.17314,-3.023 -7.94986,-7.9079 -6.91445,-8.9433 0.33887,-0.3388 3.16613,1.9339 6.2828,5.0506 6.33192,6.3319 6.64269,8.2471 0.63165,3.8927 z m -22.85332,-32.3947 c -6.51983,-9.7383 -7.1699,-12.2488 -2.52849,-9.7648 3.33783,1.7863 11.09178,18.0059 8.60794,18.0059 -0.30909,0 -3.04485,-3.7085 -6.07945,-8.2411 z m 389.48254,1.7286 c 0,-1.1875 -0.7473,-1.5462 -2.75,-1.32 -1.8891,0.2134 -2.6607,-0.1102 -2.4649,-1.0337 0.1568,-0.7394 -0.2358,-1.972 -0.8725,-2.7391 -2.1197,-2.5541 0.5355,-1.364 4.4685,2.0028 2.4674,2.1121 3.4691,3.577 2.75,4.0215 -0.6648,0.4109 -1.1311,0.027 -1.1311,-0.9315 z m -26.5,-3.4875 c 0.3399,-0.55 1.068,-1 1.618,-1 0.55,0 0.7219,0.45 0.382,1 -0.3399,0.55 -1.068,1 -1.618,1 -0.55,0 -0.7219,-0.45 -0.382,-1 z m 0.029,-3.7859 c -0.7617,-1.9848 -0.7949,-1.9348 2.3244,-3.4909 2.5826,-1.2884 2.9618,-1.2492 4,0.4132 1.8072,2.8937 1.3926,3.6161 -2.3244,4.05 -2.3255,0.2715 -3.6459,-0.05 -4,-0.9723 z m -378.94152,-21.1178 c -1.71169,-1.8914 -4.4834,-11.5411 -4.55156,-15.8463 -0.0251,-1.5881 0.54712,-2.25 1.94533,-2.25 1.24753,0 2.15603,0.833 2.45384,2.25 0.26008,1.2375 1.16866,5.4888 2.01905,9.4474 0.85039,3.9586 1.54616,7.4461 1.54616,7.75 0,1.1689 -1.76438,0.4704 -3.41282,-1.3511 z m -7.93079,-36.8463 c -1.1323,-1.8396 -1.64872,-10.1503 -0.88548,-14.25 0.71282,-3.8288 1.16526,-4.4645 3.03343,-4.2618 1.88677,0.2047 2.19566,-0.2525 2.19566,-3.25 0,-3.8298 2.22895,-4.8396 3.837,-1.7382 2.36789,4.5669 2.4528,17.25 0.11548,17.25 -0.48873,0 -1.55996,-1.2375 -2.38051,-2.75 -1.45872,-2.6888 -1.49279,-2.611 -1.53193,3.5 -0.0353,5.5062 -0.27102,6.25 -1.98102,6.25 -1.06754,0 -2.14873,-0.3375 -2.40263,-0.75 z m -1.79485,-38.5 c -0.42623,-3.848 0.49727,-16.51751 1.31675,-18.06457 0.77983,-1.47219 1.24045,-1.58279 2.44128,-0.5862 1.62065,1.34502 1.34436,7.18707 -0.72941,15.42267 -1.06236,4.2191 -2.72282,5.9889 -3.02862,3.2281 z m 7.17389,-46.25 c 0.002,-5.69153 5.06412,-19.89549 7.23913,-20.31436 1.23836,-0.23848 1.71949,0.32357 1.70435,1.99104 -0.0288,3.17499 -4.32379,15.10718 -6.86742,19.07895 l -2.0778,3.24437 0.002,-4 z m 9.44564,-37.53063 c -1.25262,-2.02679 -0.63533,-8.43048 1.62615,-16.86946 C 930.2317,853.11759 930.2972,853 932.89299,853 c 2.3268,0 2.39648,-0.6447 -1.45909,13.5 -3.32441,12.19611 -4.1658,14.20007 -5.23543,12.46937 z m 12.51974,-41.25075 c 10e-4,-2.72171 2.51975,-9.2052 6.75802,-17.39577 3.47076,-6.70734 4.85614,-8.10788 6.44675,-6.51727 0.70841,0.70841 -0.77011,4.7967 -4.72233,13.05775 -5.6428,11.79476 -8.48412,15.4309 -8.48244,10.85529 z m 21.99889,-41.88221 c 0,-2.26349 0.67931,-4.47436 3.32959,-10.83641 1.53947,-3.69555 6.59922,-11.55252 8.01453,-12.44527 3.5246,-2.22326 2.7358,1.09181 -2.78928,11.72245 -3.20807,6.17255 -6.4453,11.88175 -7.19385,12.68711 -1.17455,1.26369 -1.36099,1.10919 -1.36099,-1.12788 z m 24.3196,-46.20958 c 5.49482,-9.99661 10.57449,-16.6047 12.26533,-15.95587 1.81412,0.69615 -0.20697,4.44396 -7.83792,14.5342 -6.7052,8.86613 -8.90825,9.57354 -4.42741,1.42167 z m 219.6833,-15.11917 c -1.097,-2.88523 -1.3662,-14.39725 -0.3959,-16.92587 1.0645,-2.77406 4.3951,-1.71298 9.16,2.91821 2.5464,2.475 5.1371,4.5 5.7571,4.5 1.974,0 5.2473,-4.36476 6.3745,-8.5 0.5996,-2.2 1.0928,-6.53261 1.0958,-9.62803 0,-4.676 -0.3629,-5.87271 -2.1729,-7.07451 -1.9116,-1.26927 -1.9745,-1.52476 -0.5133,-2.08547 1.0242,-0.39305 2.7287,0.27587 4.4285,1.73793 2.6083,2.24357 2.7633,2.84642 2.7633,10.74589 0,10.47722 -2.1462,15.93388 -7.2126,18.33805 -4.0932,1.94235 -7.0305,1.39462 -11.1614,-2.08127 l -3.0281,-2.54799 -0.2989,6.28766 c -0.24,5.04628 -0.6439,6.35336 -2.0461,6.62046 -1.1382,0.21681 -2.0966,-0.58658 -2.75,-2.30506 z m -191.0029,-21.88132 c 0,-1.18441 5.515,-8.89937 7.8897,-11.03688 2.932,-2.63909 3.7608,-1.30484 1.3064,2.10296 -2.502,3.4738 -9.1961,9.97709 -9.1961,8.93392 z M 458.38407,698.33333 c -0.36667,-0.36666 -0.66667,-1.13166 -0.66667,-1.7 0,-0.6266 0.46577,-0.56756 1.18333,0.15 0.65084,0.65084 0.95084,1.41584 0.66667,1.7 -0.28417,0.28417 -0.81667,0.21667 -1.18333,-0.15 z"
     id="path3286"
     style="fill:#000000" />
</svg>
