<?xml version="1.0" encoding="UTF-8" standalone="no"?>
<!-- Created with Inkscape (http://www.inkscape.org/) -->

<svg
   xmlns:dc="http://purl.org/dc/elements/1.1/"
   xmlns:cc="http://creativecommons.org/ns#"
   xmlns:rdf="http://www.w3.org/1999/02/22-rdf-syntax-ns#"
   xmlns:svg="http://www.w3.org/2000/svg"
   xmlns="http://www.w3.org/2000/svg"
   version="1.1"
   width="1678.4235"
   height="1639.9906"
   id="svg3027">
  <metadata
     id="metadata3033">
    <rdf:RDF>
      <cc:Work
         rdf:about="">
        <dc:format>image/svg+xml</dc:format>
        <dc:type
           rdf:resource="http://purl.org/dc/dcmitype/StillImage" />
        <dc:title></dc:title>
      </cc:Work>
    </rdf:RDF>
  </metadata>
  <defs
     id="defs3031" />
  <path
     d="m 1248.6273,1637.0405 c 2.82,-1.6175 6.2742,-3.2287 7.676,-3.5805 1.9998,-0.5019 2.5107,-1.2125 2.3727,-3.2998 -0.1639,-2.4773 0.3627,-2.8334 7.6578,-5.1788 4.3416,-1.3959 9.4682,-3.8749 11.5,-5.5609 2.0164,-1.6732 5.6912,-4.4399 8.1662,-6.1483 5.629,-3.8853 38.2016,-36.7893 43.2294,-43.6691 7.2421,-9.9098 10.7965,-16.8109 15.3202,-29.745 2.515,-7.1908 6.9832,-18.5381 9.9292,-25.2162 5.7825,-13.1079 6.7756,-16.3773 14.6014,-48.0685 l 5.1675,-20.9265 -0.031,-38.0735 c -0.037,-45.3097 -1.6926,-75.1369 -5.189,-93.4599 -0.5654,-2.9626 -1.0357,-7.2376 -1.0453,-9.5 -0.01,-2.2624 -0.6835,-7.2583 -1.4976,-11.1019 -2.3268,-10.9847 -0.634,-25.7328 4.0448,-35.2392 6.7463,-13.7069 31.3167,-41.2681 47.0574,-52.7852 3.8803,-2.8391 5.211,-4.0033 17.032,-14.9009 5.516,-5.0851 6.2436,-6.2277 7.3818,-11.5911 1.5807,-7.4486 0.6918,-14.6946 -2.5995,-21.1896 -3.9075,-7.711 -10.7813,-17.2522 -15.4606,-21.4599 -2.3521,-2.1152 -10.505,-9.9207 -18.1176,-17.3457 -11.9797,-11.6846 -13.8398,-13.9206 -13.8321,-16.6276 0.01,-3.3999 1.153,-4.7355 5.0088,-5.8507 4.0271,-1.1647 13.2948,-5.8185 15.941,-8.0049 6.0155,-4.97 16.1724,-14.6669 23.059,-22.0147 5.7554,-6.1407 8.479,-10.0956 11.7088,-17.0021 3.8008,-8.1274 4.5565,-11.1251 7.7942,-30.9172 l 3.5855,-21.91716 -1.7943,-15.58282 c -2.7771,-24.11969 -2.2909,-36.50896 2.1226,-54.08282 7.4185,-29.53912 12.9093,-42.20199 22.4954,-51.87839 9.0813,-9.16682 21.4959,-18.79243 33.0455,-25.62161 2.7905,-1.65 9.4541,-5.80236 14.808,-9.22746 9.4223,-6.02788 20.5555,-11.96899 26.7343,-14.2666 4.0892,-1.52058 16.1134,-8.68054 21,-12.5048 2.2,-1.7217 6.7,-4.80056 10,-6.8419 8.3274,-5.15124 19.0603,-12.85972 22.8348,-16.40031 1.7409,-1.63295 5.1902,-4.34992 7.6652,-6.03772 12.4429,-8.48528 25.0354,-24.18149 36.2328,-45.16306 1.5973,-2.99302 3.6981,-6.59302 4.6684,-8 2.9498,-4.27734 8.8016,-18.03676 11.7204,-27.55815 2.4212,-7.89823 2.7369,-10.44611 2.5784,-20.81274 -0.1245,-8.14577 -0.7725,-13.88863 -2.0876,-18.5 -1.0489,-3.67799 -3.8127,-13.43726 -6.1419,-21.68726 -2.3291,-8.25 -5.5026,-17.7 -7.0521,-21 -5.4905,-11.69253 -17.8526,-29.62175 -29.9931,-43.5 -5.3186,-6.07992 -11.0969,-13.19207 -27.6235,-34 -3.713,-4.675 -12.238,-15.07102 -18.9443,-23.10226 -6.7063,-8.03124 -13.8724,-17.25624 -15.9245,-20.5 -9.2603,-14.63729 -28.117,-42.28792 -31.4367,-46.09732 -4.9328,-5.66049 -14.7967,-24.99014 -20.9082,-40.9723 -2.75,-7.1915 -5.6744,-14.59481 -6.4988,-16.45179 -5.9809,-13.47318 -14.0683,-33.00328 -15.6194,-37.71918 -1.0233,-3.11143 -5.7154,-13.6811 -10.4267,-23.48814 -7.5964,-15.81231 -16.1941,-30.08457 -28.9715,-48.09254 -10.2017,-14.37801 -22.762,-42.24674 -27.5269,-61.07647 -1.2526,-4.95 -3.1806,-11.25 -4.2844,-14 -6.0112,-14.97562 -8.9959,-32.30859 -9.141,-53.08561 l -0.1194,-17.0856 3.94,-7.76871 c 4.2929,-8.46463 11.7427,-17.88954 23.3653,-29.56008 6.0806,-6.10561 8.4371,-9.452146 12.675,-18 2.8632,-5.775 7.3358,-14.188543 9.9392,-18.696763 2.6034,-4.508219 5.3799,-10.583219 6.17,-13.5 1.8223,-6.727016 5.1224,-31.176911 6.0136,-44.553237 0.6617,-9.93254609 0.7564,-10.25 3.0589,-10.25 1.9349,0 2.29,0.41782812 1.9123,2.25 -0.2551,1.2375 -0.7434,6.075 -1.0851,10.75 -1.006,13.760151 -4.3654,38.22799 -5.981,43.561402 -0.8228,2.716229 -3.5219,8.538598 -5.998,12.938598 -2.4761,4.4 -7.0735,13.10461 -10.2165,19.343579 -4.7372,9.40387 -7.0268,12.664821 -13.3894,19.070311 -14.4654,14.56289 -22.6701,26.0327 -25.4415,35.56609 -1.5015,5.1651 -1.5665,7.61869 -0.5803,21.9181 1.324,19.19566 2.5128,25.21563 9.0058,45.60192 2.7152,8.525 6.6221,20.85394 8.682,27.39764 4.1263,13.10792 15.5358,36.6181 23.1474,47.69712 2.6303,3.82841 8.0771,11.78576 12.1042,17.68299 7.4468,10.9052 24.4678,44.22274 27.7007,54.22225 0.978,3.025 5.5871,14.275 10.2424,25 4.6554,10.725 10.6019,25.125 13.2146,32 6.2377,16.41391 13.395,30.0955 22.4949,43 4.0723,5.775 8.894,12.82032 10.7149,15.65626 15.6266,24.33838 20.1116,30.60477 31.7376,44.34374 4.4214,5.225 10.8382,13.1 14.2595,17.5 3.4213,4.4 9.6237,12.05 13.783,17 4.1593,4.95 8.6522,10.575 9.9842,12.5 1.3321,1.925 5.1499,6.43887 8.4841,10.03081 9.6762,10.4242 22.3376,28.34071 30.3659,42.96919 1.6602,3.025 5.1087,12.475 7.6634,21 2.5547,8.525 5.8185,19.1 7.2528,23.5 2.13,6.53412 2.6236,10.01559 2.694,19 0.078,9.91781 -0.2485,12.033 -3.3154,21.5 -3.9511,12.19651 -9.0624,24.19382 -13.6333,32 -1.7713,3.025 -5.1881,9.01295 -7.5929,13.30655 -8.9521,15.98359 -23.8075,33.23073 -34.3723,39.90649 -2.2,1.39015 -4.9,3.54219 -6,4.78232 -2.1484,2.42206 -7.3574,6.12006 -39,27.68696 -2.75,1.87434 -11.075,6.37761 -18.5,10.00726 -7.425,3.62966 -15.975,8.26872 -19,10.30903 -3.025,2.0403 -10.675,6.78805 -17,10.55054 -6.325,3.76249 -13.975,8.72497 -17,11.02774 -9.413,7.1656 -23.5333,21.63979 -26.7527,27.42311 -3.3231,5.96975 -7.7819,20.14288 -11.7972,37.5 -4.9149,21.24515 -5.3729,28.11034 -2.9416,44.08713 3.1056,20.40738 3.0193,25.02129 -0.906,48.41287 -3.4921,20.8095 -3.7802,21.8533 -8.9727,32.5 -5.2103,10.6831 -5.8109,11.4465 -20.8483,26.5 -14.4154,14.4308 -16.0801,15.7752 -24.1325,19.4897 -5.8816,2.7131 -8.649,4.5306 -8.649,5.6803 0,0.9299 7.9378,9.0345 17.6396,18.0103 28.3881,26.264 34.6625,38.5203 30.3678,59.3197 -1.6912,8.1905 -4.502,13.5369 -6.9587,13.2359 -1.9331,-0.2369 -4.8057,2.2139 -28.6083,24.4077 -18.1172,16.8927 -30.4688,32.1306 -36.2234,44.688 -4.1225,8.9959 -4.1629,24.8816 -0.1231,48.3432 1.6061,9.3274 5.097,50.679 5.1349,60.8252 0.01,1.375 -0.071,17.2165 -0.1699,35.2034 -0.1153,21.0561 0.1909,33.3949 0.86,34.645 0.7826,1.4624 0.674,2.2446 -0.4399,3.169 -0.8135,0.6751 -1.479,1.8793 -1.479,2.676 0,2.5798 -9.9861,41.5849 -10.9412,42.7357 -0.509,0.6134 -1.8031,4.2552 -2.8756,8.0931 -1.0726,3.8378 -3.5336,10.8028 -5.4689,15.4778 -1.9353,4.675 -6.0174,15.7955 -9.0713,24.7123 -6.2923,18.372 -7.0109,19.9278 -13.9873,30.2847 -7.2186,10.7164 -38.4247,43.0973 -47.3368,49.1189 -3.9496,2.6686 -7.4424,5.2748 -7.7617,5.7916 -0.5652,0.9145 -7.3763,3.3258 -12.6975,4.4953 -1.6363,0.3596 -2.587,1.2035 -2.5,2.2193 0.096,1.1224 -1.4516,2.1877 -4.911,3.38 -2.7782,0.9576 -6.4683,2.4738 -8.2003,3.3695 -1.732,0.8956 -4.4089,1.6242 -5.9487,1.619 -2.5434,-0.01 -2.3303,-0.2786 2.3276,-2.9501 z M 1199.0698,1620 c -0.1006,-2.6456 4.4912,-56.7987 6.4019,-75.5 0.2248,-2.2 0.6856,-7.825 1.0241,-12.5 0.3385,-4.675 1.0486,-13 1.5781,-18.5 0.5295,-5.5 1.1331,-12.475 1.3415,-15.5 0.2083,-3.025 1.0727,-12.25 1.9209,-20.5 0.8482,-8.25 1.824,-18.825 2.1685,-23.5 0.3445,-4.675 0.7888,-9.175 0.9875,-10 0.1987,-0.825 0.6621,-5.5261 1.0298,-10.447 0.3677,-4.9208 0.8024,-9.6458 0.9658,-10.5 0.1635,-0.8541 0.5951,-5.153 0.9591,-9.553 0.3641,-4.4 1.325,-15.2 2.1355,-24 0.8104,-8.8 1.9349,-21.175 2.4988,-27.5 0.5639,-6.325 2.5992,-28.375 4.5228,-49 1.9237,-20.625 4.3509,-46.95 5.3939,-58.5 2.8783,-31.8754 4.9564,-53.6131 5.4969,-57.5 0.2678,-1.925 0.9616,-9.125 1.5418,-16 3.2446,-38.4422 4.4583,-51.9233 7.9227,-88 0.5545,-5.775 2.1471,-23.55 3.5389,-39.5 2.9281,-33.5533 5.4445,-61.47659 5.9929,-66.5 0.2102,-1.925 1.0815,-11.375 1.9362,-21 0.8547,-9.625 2.4834,-27.625 3.6194,-40 2.7057,-29.47425 4.6756,-51.70752 5.4048,-61 0.3236,-4.125 0.798,-8.625 1.0541,-10 0.2562,-1.375 0.6889,-4.975 0.9618,-8 0.2728,-3.025 0.7225,-7.3 0.9993,-9.5 0.2768,-2.2 0.72,-6.925 0.9849,-10.5 0.2649,-3.575 0.9577,-11.225 1.5396,-17 1.0396,-10.31789 2.5415,-26.15758 3.5083,-37 0.9224,-10.34444 1.6172,-17.49974 2.0391,-21 0.232,-1.925 1.8008,-19.025 3.4862,-38 1.6853,-18.975 3.2447,-36.525 3.4653,-39 0.2205,-2.475 0.8939,-10.575 1.4964,-18 0.6026,-7.425 1.5064,-17.1 2.0087,-21.5 0.5023,-4.4 1.1771,-12.05 1.4997,-17 0.3225,-4.95 1.9133,-22.95 3.535,-40 4.3619,-45.85873 4.8333,-51.0835 5.5652,-61.67995 l 0.6685,-9.67995 -3.3818,-0.53306 c -1.8601,-0.29319 -21.3819,-0.77165 -43.3819,-1.06326 -22,-0.29161 -53.95,-0.79417 -71,-1.1168 -18.0507,-0.34157 -32.9683,-0.19244 -35.7121,0.35701 -2.5916,0.519 -4.8416,0.56343 -5,0.0988 -0.2725,-0.79977 -23.1348,-1.62656 -66.7879,-2.41532 -24.5785,-0.44411 -57.5352,-1.21123 -84,-1.95524 -30.95705,-0.8703 -96.99602,-2.52105 -101.5,-2.53715 -1.1,-0.004 -8.075,0.0205 -15.5,0.0544 -7.425,0.0338 -20.925,-0.19439 -30,-0.50718 -9.075,-0.31279 -25.95,-0.47076 -37.5,-0.35106 -11.55,0.11971 -23.25,0.15831 -26,0.0858 -27.74971,-0.73183 -115.04139,-1.97839 -191.5,-2.73469 -27.225,-0.2693 -59.625,-0.72208 -72,-1.00618 -12.375,-0.2841 -37.8,-0.80169 -56.5,-1.1502 -18.7,-0.34851 -39.175,-0.75979 -45.5,-0.91396 -6.325,-0.15416 -24.55,-0.54315 -40.5,-0.86443 -15.95,-0.32127 -39.575,-0.8332 -52.5,-1.13761 -12.925,-0.30442 -31.825,-0.73365 -42,-0.95385 -10.175,-0.22021 -28.85,-0.73873 -41.5,-1.15227 -12.65,-0.41355 -27.95,-0.67231 -34,-0.57503 -6.05,0.0973 -27.65,0.30162 -48,0.45407 l -37,0.27719 0,2.5 c 0,2.24457 -0.3576,2.47098 -3.5,2.21601 -1.925,-0.15619 -5.3,-1.2494 -7.5,-2.42935 -2.82185,-1.51348 -6.06176,-2.20705 -11,-2.35477 -28.375268,-0.84883 -56.304284,-1.47412 -75.245716,-1.68464 L 0.00856716,485.5 0.00428358,483.25778 0,481.01556 l 50.359078,0.64763 c 45.897299,0.59025 50.568472,0.50096 52.722502,-1.00778 2.95814,-2.07196 6.84928,-2.13222 8.31426,-0.12875 0.92945,1.2711 5.13279,1.60643 25.11024,2.00318 13.19666,0.26209 34.34392,0.75818 46.99392,1.10243 12.65,0.34424 31.55,0.73619 42,0.87098 10.45,0.1348 20.35,0.32911 22,0.43181 1.65,0.10269 21.45,0.2086 44,0.23535 22.55,0.0267 43.025,0.16552 45.5,0.30839 2.475,0.14287 29.475,0.55686 60,0.91998 30.525,0.36312 63.375,0.85954 73,1.10315 9.625,0.24361 37.525,0.68544 62,0.98183 24.475,0.2964 58,0.75467 74.5,1.0184 16.5,0.26372 49.125,0.72563 72.5,1.02646 23.375,0.30083 66.125,0.96836 95,1.4834 88.81342,1.58417 111.89883,1.95332 158,2.52657 24.475,0.30433 49.45,0.73422 55.5,0.9553 6.05,0.22109 38.9,0.67423 73,1.00698 67.7165,0.66079 62.9639,1.04618 55.5,-4.50054 -2.1964,-1.6322 -2.2917,-1.9386 -0.7849,-2.52269 1.0928,-0.42359 3.8949,0.65928 7.7222,2.98428 8.0994,4.92014 16.6726,6.57139 21.6917,4.17795 3.1854,-1.519 3.8592,-1.54998 5.8167,-0.2674 1.8647,1.2218 3.1479,1.25524 8.1341,0.21201 3.2561,-0.68124 6.9031,-1.76644 8.1045,-2.41155 3.3757,-1.81273 3.8776,-1.3999 1.4454,1.18899 l -2.2189,2.36192 3.2946,0.53302 c 1.812,0.29315 18.3696,0.63924 36.7946,0.76909 18.425,0.12984 35.3,0.3786 37.5,0.5528 3.2992,0.26123 50.1386,0.66248 55.6387,0.47662 1.9733,-0.0667 2.4621,-2.3905 3.9032,-18.55537 1.3128,-14.72446 3.1825,-35.74315 5.8711,-66 1.1241,-12.65 2.5136,-27.95 3.0877,-34 1.8169,-19.1455 2.9069,-30.55504 4.4423,-46.5 2.6666,-27.69204 4.4835,-47.33329 5.1372,-55.53438 l 0.6404,-8.03438 -3.8603,-3.28707 c -2.1232,-1.80789 -9.4853,-6.92293 -16.3603,-11.36675 -6.875,-4.44382 -14.75,-9.54059 -17.5,-11.32615 -2.75,-1.78556 -8.2833,-5.12452 -12.2961,-7.41992 -9.651,-5.52042 -14.2039,-9.59116 -14.2039,-12.69956 0,-1.35357 0.9339,-4.63186 2.0753,-7.2851 1.6575,-3.85308 3.4214,-5.75223 8.7633,-9.43538 3.6784,-2.53622 7.6932,-4.61131 8.9218,-4.61131 1.2286,0 3.9226,-1.51006 5.9867,-3.35568 2.0641,-1.84563 4.7613,-3.88425 5.9937,-4.53027 1.2325,-0.64602 4.1575,-3.69994 6.5,-6.78648 8.1048,-10.67889 13.7577,-18.83558 14.3782,-20.74653 0.3427,-1.05543 2.7061,-5.18421 5.252,-9.17506 C 1320.5138,152.1282 1326.3726,147 1330.0444,147 c 1.2165,0 1.9556,-0.68029 1.9556,-1.8 0,-0.99 0.5297,-2.32974 1.1772,-2.97719 0.7211,-0.72108 2.2765,-13.68152 4.0145,-33.45 C 1341.3914,61.003224 1342.0152,56 1343.7721,56 c 1.2229,0 1.3676,1.048181 0.8169,5.916156 -0.4228,3.736989 -0.2862,6.152949 0.3708,6.559017 0.5721,0.353574 1.0333,1.403803 1.0249,2.333844 -0.013,1.37938 -0.1798,1.43112 -0.908,0.28078 -1.0497,-1.658136 -1.4446,1.442123 -3.5552,27.910203 -2.5549,32.04002 -2.8989,40.64872 -1.6549,41.41757 0.6234,0.38525 1.134,2.58641 1.1348,4.89145 0,7.92503 4.7809,29.53829 15.518,70.19098 1.4526,5.5 3.4665,13.6 4.4752,18 4.6211,20.15678 6.9299,26.46085 13.7339,37.5 13.2683,21.52724 29.1591,38.99178 41.8798,46.02743 2.1404,1.18385 6.3667,4.06209 9.3917,6.39608 3.025,2.33399 8.875,6.51057 13,9.2813 9.2676,6.22499 29.4371,26.81688 35.6035,36.34912 2.498,3.86145 7.4803,13.1915 11.0718,20.73344 3.5915,7.54195 8.6996,18.21263 11.3512,23.71263 6.5638,13.61476 8.6582,19.17258 11.5789,30.72631 2.4388,9.64748 2.4622,13.81438 0.077,13.73367 -0.6504,-0.022 -3.9994,-5.08451 -7.4422,-11.25 -3.4428,-6.16549 -7.9428,-13.31651 -10,-15.89117 -2.0572,-2.57465 -5.9904,-7.50439 -8.7404,-10.95497 -8.9196,-11.19191 -54.6867,-57.74375 -69.0496,-70.23358 -3.8773,-3.37164 -9.2315,-7.70526 -11.8983,-9.63026 -13.8789,-10.01858 -17.6603,-12.84248 -22.1484,-16.54005 -2.697,-2.22203 -8.2787,-6.58734 -12.4037,-9.70068 -4.125,-3.11335 -13.435,-11.53282 -20.689,-18.70995 C 1339.0571,287.87219 1332.6804,282 1332.1406,282 c -1.307,0 -1.7555,5.25277 -4.6529,54.5 -1.359,23.1 -3.1458,53.475 -3.9706,67.5 -0.8248,14.025 -2.4486,41.18244 -3.6085,60.34988 -1.1599,19.16743 -1.7263,35.2067 -1.2587,35.64283 0.4675,0.43613 21.1001,1.07042 45.8501,1.40953 98.4398,1.34878 143.5,2.46093 143.5,3.54179 0,0.39745 -0.5625,0.7616 -1.25,0.80922 -11.0511,0.76543 -15.2413,1.41802 -15.9144,2.47856 -0.4427,0.6975 -0.8119,0.79605 -0.8203,0.21899 -0.01,-0.60187 -1.459,-0.88066 -3.4014,-0.65388 -1.8624,0.21742 -4.3101,-0.0992 -5.4394,-0.70351 -1.1292,-0.60435 -2.2898,-0.71589 -2.579,-0.24787 -0.2893,0.46803 -9.7667,0.80674 -21.0608,0.75271 -11.2942,-0.054 -20.5349,0.26581 -20.5348,0.71077 0,0.44496 -0.4125,0.55404 -0.9167,0.24241 -1.1895,-0.73514 -74.2863,-1.7378 -114.2453,-1.56708 -3.4533,0.0148 -3.6968,0.22948 -4.2698,3.76565 -0.5819,3.59047 -4.4841,68.29959 -6.5882,109.25 -0.5511,10.725 -2.1091,38.625 -3.4623,62 -3.191,55.11989 -4.429,77.30816 -4.9655,89 -0.2398,5.225 -1.3436,23.45 -2.4529,40.5 -1.1093,17.05 -2.2422,37.525 -2.5175,45.5 -0.2753,7.975 -0.7246,16.75 -0.9986,19.5 -0.2739,2.75 -0.7535,10.175 -1.0658,16.5 -0.3124,6.325 -1.2308,21.85 -2.041,34.5 -0.8103,12.65 -1.9144,31.55 -2.4537,42 -0.5393,10.45 -1.2143,21.925 -1.5,25.5 -0.2857,3.575 -1.199,18.65 -2.0297,33.5 -0.8306,14.85 -2.4232,42.975 -3.5389,62.5 -1.1158,19.525 -2.684,48.1 -3.4849,63.5 -1.7216,33.102 -2.8276,52.036 -5.5201,94.5 -2.7503,43.3748 -2.8387,44.5933 -3.811,52.5 -0.4734,3.85 -0.6674,7.517 -0.4312,8.1488 0.2363,0.6319 -0.096,1.4736 -0.738,1.8705 -0.8832,0.5458 -1.0067,-3.9952 -0.507,-18.6489 0.3633,-10.6537 0.8234,-21.6204 1.0225,-24.3704 0.5091,-7.0313 1.4385,-23.2066 2.011,-35 0.4538,-9.3489 1.0054,-19.2246 2.0106,-36 0.2307,-3.85 0.8936,-16.45 1.4732,-28 0.5796,-11.55 1.4892,-28.425 2.0215,-37.5 0.5322,-9.075 1.2126,-21.675 1.5118,-28 0.2993,-6.325 0.7603,-13.75 1.0245,-16.5 0.2643,-2.75 0.9202,-14 1.4577,-25 0.5375,-11 1.4286,-27.65 1.9804,-37 0.5517,-9.35 2.344,-39.725 3.9829,-67.5 1.6388,-27.775 3.4782,-58.07649 4.0875,-67.33664 1.013,-15.39666 0.9622,-16.99746 -0.594,-18.71711 -0.9537,-1.05382 -1.4737,-2.75307 -1.1828,-3.86542 0.2855,-1.09171 0,-2.19599 -0.6248,-2.45394 -0.6291,-0.25795 -0.1616,-0.50452 1.0388,-0.54794 2.8634,-0.10358 3.0605,-1.03472 3.8261,-18.07895 0.3582,-7.975 0.8096,-16.75 1.0031,-19.5 0.1935,-2.75 0.5927,-8.375 0.8871,-12.5 0.2944,-4.125 0.775,-12.45 1.0681,-18.5 1.1012,-22.73276 3.554,-68.24163 4.0153,-74.5 0.2635,-3.575 0.7315,-11.45 1.04,-17.5 0.3084,-6.05 0.9872,-17.975 1.5084,-26.5 0.5211,-8.525 1.6265,-28.1 2.4565,-43.5 1.8601,-34.51545 3.3735,-61.4477 4.0458,-72 0.8413,-13.20436 2.4472,-46.69567 2.4574,-51.25 0.01,-4.19797 -0.034,-4.25 -3.5152,-4.25 -4.2743,0 -4.916,1.32344 -5.8183,12 -0.3485,4.125 -2.2296,24.6 -4.1802,45.5 -1.9505,20.9 -3.9541,42.5 -4.4523,48 -0.4983,5.5 -2.2718,24.4 -3.9413,42 -1.6695,17.6 -4.3963,47.3 -6.0596,66 -1.6632,18.7 -3.4878,38.725 -4.0545,44.5 -1.9608,19.98218 -8.0493,88.51795 -8.2587,92.96657 -0.1984,4.2133 -0.04,4.50429 2.7897,5.13169 l 3,0.66511 -3.1365,0.11832 c -3.8131,0.14384 -3.4231,-1.94721 -6.8291,36.61831 -2.5292,28.63815 -3.9625,44.07621 -7.5202,81 -1.1129,11.55 -2.9209,30.9 -4.0179,43 -1.0969,12.1 -2.4407,26.275 -2.9861,31.5 -0.5454,5.225 -1.6653,17.375 -2.4888,27 -0.8235,9.625 -2.1941,25.15 -3.0457,34.5 -0.8517,9.35 -2.6493,29.825 -3.9946,45.5 -1.3454,15.675 -2.8854,32.55 -3.4223,37.5 -0.5369,4.95 -1.4592,14.85 -2.0496,22 -0.5903,7.15 -1.5162,17.05 -2.0574,22 -0.5413,4.95 -1.6614,16.875 -2.4892,26.5 -0.8278,9.625 -2.1655,24.25 -2.9726,32.5 -0.8071,8.25 -2.598,27.6 -3.9798,43 -1.3817,15.4 -3.8465,42.175 -5.4772,59.5 -7.3299,77.874 -7.4236,79.1391 -5.9294,80.0852 1.0856,0.6874 1.1046,0.8876 0.085,0.8995 -0.983,0.012 -1.1452,1.1224 -0.648,4.4383 0.4793,3.1959 0.2207,5.2074 -0.9319,7.25 -1.4089,2.497 -6.3726,48.0956 -9.1795,84.327 -0.3196,4.125 -0.7703,8.0951 -1.0016,8.8225 -0.2313,0.7273 -0.6817,5.0023 -1.0008,9.5 -0.3191,4.4976 -0.8399,8.8525 -1.1573,9.6775 -0.3174,0.825 -0.7488,2.5163 -0.9587,3.7584 -0.5461,3.2323 -2.1729,7.037 -2.2411,5.2416 z M 1313.1317,500.07651 c 0.647,-0.0784 1.4312,-8.87358 2.3697,-26.57651 0.6031,-11.37682 1.3961,-24.97512 2.012,-34.5 0.2312,-3.575 0.8904,-15.05 1.4648,-25.5 1.6929,-30.79416 2.903,-52.28529 4.5804,-81.34817 0.8681,-15.04149 1.3772,-27.54938 1.1313,-27.79531 -0.246,-0.24594 -0.7309,2.38574 -1.0777,5.84816 -0.7101,7.09008 -6.1376,61.96969 -7.6444,77.29532 -1.3523,13.75367 -4.7794,50.56063 -6.0058,64.5 -0.5564,6.325 -1.6737,18.7 -2.4828,27.5 -0.8091,8.8 -1.4729,16.9795 -1.4751,18.17668 0,2.14803 1.9522,3.21292 4.9959,2.71951 0.825,-0.13374 1.7843,-0.2776 2.1317,-0.31968 z m 179.609,-82.83061 c -2.5305,-5.36024 -7.1574,-15.3709 -10.282,-22.2459 -3.1246,-6.875 -8.1848,-16.325 -11.2449,-21 -7.2516,-11.07848 -25.463,-29.19528 -36.7295,-36.53868 -4.6849,-3.05364 -9.973,-6.81506 -11.7512,-8.35873 -1.7782,-1.54366 -5.4427,-4.02961 -8.1434,-5.52433 -10.67,-5.9054 -21.9792,-16.84882 -32.1831,-31.14206 -6.0858,-8.52487 -8.7736,-12.83357 -16.1793,-25.9362 -3.3543,-5.93465 -5.504,-13.0952 -9.7572,-32.5 -1.2657,-5.775 -2.7302,-11.625 -3.2544,-13 -1.0914,-2.86282 -7.3636,-28.04498 -11.7065,-47 -0.1891,-0.825 -1.0031,-3.04044 -1.809,-4.9232 l -1.4652,-3.4232 -0.5839,2.9232 c -0.3212,1.60776 -0.8453,7.4232 -1.1648,12.9232 -0.3194,5.5 -0.9982,17.2 -1.5084,26 -0.5102,8.8 -1.4768,26.41729 -2.1481,39.14954 l -1.2204,23.14954 2.7619,3.62112 c 1.5191,1.99162 8.1849,9.22169 14.813,16.06682 13.0679,13.49597 24.7087,22.89469 56.9648,45.99297 4.593,3.289 13.0759,10.69823 18.8509,16.46497 5.775,5.76673 12.75,12.53284 15.5,15.0358 2.75,2.50296 10.0086,9.94372 16.1302,16.53504 6.1217,6.59131 13.913,14.9092 17.314,18.4842 3.401,3.575 7.6058,8.3 9.3439,10.5 6.0552,7.66414 13.1079,15.43737 13.579,14.96623 0.2609,-0.26094 -1.596,-4.86008 -4.1264,-10.22033 z M 1324.9829,242.5 c 1.3458,-15.70343 3.2256,-35.7255 6.0586,-64.53314 1.1646,-11.84322 1.9693,-23.00866 1.788,-24.81208 l -0.3295,-3.27895 -5,3.52565 c -4.9275,3.47455 -7.8717,7.31047 -13.0873,17.05137 -1.4586,2.72407 -5.1856,8.47448 -8.2823,12.77868 -3.0967,4.3042 -6.8797,9.5862 -8.4066,11.73779 -3.0901,4.3542 -14.6311,12.49527 -19.2422,13.57353 -5.5755,1.30378 -14.3748,7.67121 -15.5741,11.26985 -1.454,4.36297 -0.2634,5.63532 11.4518,12.23787 5.0274,2.83341 11.3907,6.62454 14.1407,8.42474 12.9446,8.47376 19.8261,12.8603 26.6238,16.97107 l 7.3762,4.46057 0.6844,-3.20347 c 0.3764,-1.76192 1.1857,-9.05348 1.7985,-16.20348 z m -71.5906,1286.8964 c -0.9488,-2.2708 -1.2547,-4.7673 -0.827,-6.75 0.7737,-3.5862 4.005,-10.3898 6.0355,-12.7078 1.5648,-1.7863 0.4926,-7.0691 -1.9944,-9.8264 -1.0967,-1.2158 -1.2885,-2.9644 -0.7803,-7.1122 0.6151,-5.0203 0.892,-5.5 3.1739,-5.5 3.6163,0 6.0775,5.209 4.912,10.3962 -0.5861,2.6085 -0.3952,6.0467 0.5953,10.7218 1.7443,8.2333 1.8301,11.6269 0.4222,16.6969 -1.324,4.7681 -4.1634,7.6851 -7.4805,7.6851 -1.9842,0 -2.8856,-0.8007 -4.0567,-3.6036 z m 7.1509,-3.7127 c 0.3198,-1.2739 0.4271,-4.5364 0.2384,-7.25 l -0.343,-4.9337 -1.7193,3.7179 c -1.7402,3.7631 -2.2741,8.8939 -1.0526,10.1154 1.2586,1.2587 2.2959,0.6638 2.8765,-1.6496 z m -26.975,-17.1748 c -2.4776,-5.9296 -5.5244,-17.7961 -6.1801,-24.07 -1.1776,-11.2661 3.3647,-23.4389 8.7462,-23.4389 3.5831,0 6.8657,4.4337 6.8657,9.273 0,5.6385 -2.416,13.7148 -5.1379,17.1751 -1.9913,2.5317 -2.0559,3.1078 -0.9185,8.1906 1.0157,4.5383 1.4643,5.2677 2.64,4.2919 0.779,-0.6465 1.4164,-2.4704 1.4164,-4.053 0,-3.246 3.0761,-6.8776 5.8257,-6.8776 3.2033,0 6.1743,4.2101 6.1743,8.7494 0,5.8586 -1.3799,8.7511 -4.8632,10.1939 -2.5229,1.045 -3.5437,1.0002 -6.0841,-0.2671 -2.8118,-1.4027 -3.0527,-1.3869 -3.0527,0.2004 0,1.7834 -1.8084,4.1234 -3.1866,4.1234 -0.4326,0 -1.443,-1.571 -2.2452,-3.4911 z m 14.0941,-11.7589 c -0.2774,-0.6875 -0.5044,-0.125 -0.5044,1.25 0,1.375 0.227,1.9375 0.5044,1.25 0.2774,-0.6875 0.2774,-1.8125 0,-2.5 z m -10.9026,-16 c 1.915,-5.3582 2.4645,-11.0802 1.3446,-14 -1.3124,-3.4215 -2.4487,-3.4842 -3.9372,-0.2175 -1.9461,4.2713 -2.4494,10.082 -1.201,13.8649 1.469,4.451 2.3013,4.5284 3.7936,0.3526 z m 75.3118,-582.16387 c -1.9752,-2.37999 -2.339,-14.41758 -0.7082,-23.43735 1.4539,-8.04144 3.551,-12.14878 6.2028,-12.14878 2.4908,0 6.2906,6.07442 7.9582,12.72217 1.5443,6.156 2.0744,20.50006 0.8319,22.5105 -1.2043,1.94854 -2.3562,0.40809 -2.3562,-3.15088 0,-5.90998 -0.7623,-7.08179 -4.607,-7.08179 -3.0706,0 -3.393,0.27322 -3.393,2.875 0,4.06139 -1.1113,9.125 -2.0026,9.125 -0.4139,0 -1.2805,-0.63624 -1.9259,-1.41387 z m 10.3451,-15.65809 c 1.3256,-1.24551 -1.1604,-11.40707 -3.4611,-14.14734 -1.5732,-1.87372 -2.0811,-2.02812 -2.8465,-0.86526 -1.4483,2.20069 -2.2889,9.60866 -1.542,13.59011 0.6411,3.41731 0.8343,3.5667 3.8042,2.94193 1.7208,-0.362 3.5413,-1.04575 4.0454,-1.51944 z m 20.1863,-89.86136 c 0.2367,-0.23832 -0.9221,-1.00201 -2.5752,-1.69707 -1.9977,-0.83997 -2.8151,-1.76004 -2.4376,-2.74372 0.4289,-1.11778 0.031,-1.33965 -1.6246,-0.90662 -1.9755,0.51661 -2.0793,0.36194 -1.0491,-1.56301 1.3409,-2.50548 2.871,-2.4136 5.1841,0.31131 1.4886,1.75361 1.8647,1.80798 3.4583,0.5 1.6279,-1.33612 1.7394,-1.27875 1.2454,0.6404 -0.6303,2.44847 0.8832,5.70324 2.2573,4.85405 0.5162,-0.31903 0.9385,-0.12161 0.9385,0.43871 0,0.56031 -1.3112,0.92437 -2.9137,0.80901 -1.6026,-0.11536 -2.7201,-0.40473 -2.4834,-0.64306 z m -29.1483,-5.0476 c -0.313,-0.81451 -0.093,-1.63951 0.4882,-1.83334 0.5814,-0.19382 1.0572,-1.18276 1.0572,-2.19764 0,-2.14947 2.7707,-5.24786 4.0086,-4.48277 0.4661,0.28804 1.1584,-0.45612 1.5385,-1.6537 0.6659,-2.09808 0.7301,-2.10771 1.7616,-0.26452 0.5888,1.05209 0.8727,1.95623 0.6309,2.0092 -0.2418,0.053 0.178,0.84046 0.9328,1.75 1.6755,2.01875 -0.02,4.65369 -2.9948,4.65369 -1.176,0 -1.8776,0.70784 -1.8776,1.89421 0,2.3217 -4.661,2.42665 -5.5454,0.12487 z m 167.851,-12.30806 c 0.4838,-2.37787 8.6944,-9.15439 8.6944,-7.17584 0,1.5756 -3.3727,5.35251 -4.2793,4.79219 -0.6692,-0.41358 -0.8176,-0.0222 -0.4021,1.06052 0.3911,1.01928 0.2571,1.46793 -0.3301,1.10503 -0.5437,-0.33602 -0.9885,-0.2094 -0.9885,0.2814 0,0.49079 -0.65,0.89235 -1.4444,0.89235 -0.7945,0 -1.357,-0.43004 -1.25,-0.95565 z m 6.6944,-1.152 c 0,-0.24254 0.45,-0.7191 1,-1.05902 0.55,-0.33992 1,-0.14148 1,0.44098 0,0.58246 -0.45,1.05902 -1,1.05902 -0.55,0 -1,-0.19844 -1,-0.44098 z m -9.019,-3.03613 c 1.4401,-1.73524 2.019,-1.91584 2.019,-0.62988 0,0.49116 -0.7386,1.17646 -1.6414,1.52289 -1.3725,0.52667 -1.4344,0.38034 -0.3776,-0.89301 z M 1495,759.55902 c 0,-0.85746 0.45,-1.55902 1,-1.55902 0.55,0 1,0.42344 1,0.94098 0,0.51754 -0.45,1.2191 -1,1.55902 -0.55,0.33992 -1,-0.0835 -1,-0.94098 z m -494,-21.5 c 0,-0.58246 0.45,-1.05902 1,-1.05902 0.55,0 1,0.19844 1,0.44098 0,0.24254 -0.45,0.7191 -1,1.05902 -0.55,0.33992 -1,0.14148 -1,-0.44098 z M 88.41271,566.05722 C 84.074285,565.02005 83,564.18185 83,561.83399 c 0,-1.56816 0.409995,-1.87307 1.75,-1.30146 0.9625,0.41058 4.438231,1.51398 7.723846,2.45201 5.452117,1.55654 5.785367,1.80637 3.815741,2.86048 -2.379311,1.27337 -3.330808,1.299 -7.876877,0.2122 z M 108.75,562.23704 c -0.9625,-0.21103 -1.75,-0.81482 -1.75,-1.34175 0,-0.52693 0.7875,-1.19788 1.75,-1.49099 0.9625,-0.29312 3.64433,-1.49717 5.95961,-2.67567 4.97203,-2.53081 6.56228,-1.7114 3.33845,1.72021 -2.54843,2.71269 -6.62614,4.37402 -9.29806,3.7882 z M 70.610393,555.96278 C 67.165371,552.93801 64,547.49643 64,544.59887 c 0,-2.43582 1.706122,-1.90591 2.369159,0.73584 0.322286,1.28409 2.857734,4.60647 5.634329,7.38306 3.841538,3.84154 4.683423,5.1884 3.521773,5.63416 -0.896457,0.34401 -2.925159,-0.64216 -4.914868,-2.38915 z m 58.030217,-6.6555 c -0.66794,-0.66794 2.90897,-7.91087 4.3451,-8.79845 1.26684,-0.78295 1.3193,2.55874 0.0909,5.78969 -0.91613,2.40962 -3.37046,4.07429 -4.43599,3.00876 z M 59.513127,532.68566 C 58.680907,530.69388 58,527.46033 58,525.5 c 0,-4.10992 2.403262,-10.5 3.948973,-10.5 1.362324,0 1.334595,0.22767 -0.442812,3.63569 -1.727739,3.31279 -1.928067,8.40641 -0.523263,13.30468 1.345905,4.6929 0.38354,5.18089 -1.469771,0.74529 z M 135.01365,524.25 c 0.0256,-8.8997 2.42263,-12.18936 4.15686,-5.70481 1.22931,4.59654 -0.0585,10.45481 -2.29832,10.45481 -1.56874,0 -1.86998,-0.76989 -1.85854,-4.75 z M 66.747649,504.14301 c -0.891154,-3.40778 1.093277,-8.99267 3.833174,-10.78792 3.238806,-2.12215 4.596987,-0.75212 1.540191,1.55363 -1.394155,1.05161 -2.847331,3.73414 -3.574701,6.59882 -0.969597,3.81866 -1.345296,4.36915 -1.798664,2.63547 z m 1442.523151,0.25282 c 0.3323,-0.33229 1.1948,-0.36781 1.9167,-0.0789 0.7977,0.31922 0.5608,0.55618 -0.6042,0.60416 -1.0541,0.0434 -1.6448,-0.19293 -1.3125,-0.52522 z m -1378.621,-1.15345 c -0.25753,-0.41668 -0.78416,-2.44168 -1.17031,-4.5 -0.55563,-2.9618 -0.39153,-3.74238 0.78677,-3.74238 2.01233,0 3.36419,1.85176 4.19772,5.75 0.60375,2.82359 0.42984,3.25 -1.32551,3.25 -1.11124,0 -2.23114,-0.34093 -2.48867,-0.75762 z m 1335.4644,-9.02902 c -1.7061,-3.18787 -4.1564,-18.47174 -3.512,-21.90655 0.6687,-3.56462 4.4964,-7.30681 7.4736,-7.30681 2.7165,0 3.2894,1.80936 0.6899,2.17851 -2.6685,0.37892 -4.8644,5.85452 -4.052,10.10394 0.4723,2.47096 0.9226,2.71755 4.9619,2.71755 5.1512,0 4.9975,1.46354 -0.2572,2.44934 -3.0805,0.5779 -3.5246,0.99362 -3.0589,2.86336 0.2997,1.20301 0.8489,4.0998 1.2205,6.4373 0.557,3.50378 0.396,4.25 -0.917,4.25 -0.876,0 -2.0229,-0.80399 -2.5488,-1.78664 z m 22.1764,-4.39568 c -0.5602,-2.83301 -1.438,-4.41497 -2.5707,-4.6331 -1.3727,-0.26436 -1.7199,0.40498 -1.7199,3.31542 0,2.93458 -0.3417,3.58091 -1.75,3.31 -1.8048,-0.3472 -2.7621,-4.96003 -3.3847,-16.31 -0.3772,-6.87525 2.1576,-6.93304 3.847,-0.0877 1.9415,7.86719 3.6662,8.31888 2.9243,0.76589 -0.5502,-5.60142 -0.4273,-6.28451 1.0789,-5.99446 2.2877,0.44058 4.3095,7.60798 4.5732,16.21226 0.2484,8.10572 -1.6445,10.26611 -2.9981,3.4217 z m -298.1103,-10.84456 c 3.3546,-4.96478 6.3134,-8.81275 6.5751,-8.55105 1.8109,1.8109 -7.789,17.57793 -10.7024,17.57793 -1.6577,0 -1.0001,-1.4383 4.1273,-9.02688 z m -94.2983,2.31767 C 1092.5867,478.69505 1082,466.70542 1082,465.56912 1082,465.2561 1083.0862,465 1084.4137,465 c 1.7923,0 4.065,1.99536 8.8275,7.75 3.5275,4.2625 6.7237,8.28141 7.1026,8.9309 1.4082,2.4141 -1.1902,2.18691 -4.4618,-0.39011 z m 49.3348,-7.85149 c -4.5752,-3.20463 -5.4067,-6.60585 -4.7107,-19.27033 0.7039,-12.80846 1.5862,-15.13613 6.5101,-17.17567 6.8645,-2.84336 12.2748,2.56187 13.4382,13.42549 l 0.6938,6.4782 3.3778,-1.6108 c 4.8015,-2.28967 6.474,-0.66187 6.474,6.30107 0,6.44058 2.0585,8.28519 7.233,6.48135 3.9921,-1.39166 4.9113,-0.41881 1.9062,2.01747 -3.1559,2.55858 -9.5491,2.88314 -13.8892,0.70509 -1.8132,-0.90992 -2.25,-1.96995 -2.25,-5.46015 0,-3.6734 -0.3056,-4.33102 -2.0126,-4.33102 -1.4912,0 -2.6658,1.48979 -4.5338,5.75 -3.622,8.26053 -7.2006,10.21679 -12.2368,6.6893 z m 6.3064,-6.6893 c 2.2699,-5.54337 3.1255,-17.76977 1.5154,-21.65685 -4.1297,-9.96994 -9.0592,2.99681 -5.9035,15.52896 0.818,3.2489 0.8311,4.81167 0.047,5.59602 -0.7374,0.73738 -0.7696,1.68372 -0.1,2.93507 1.504,2.81031 2.5347,2.25262 4.4412,-2.4032 z M 101.49119,458.16605 C 98.066107,452.9904 94,440.86525 94,435.82729 c 0,-4.80382 4.573388,-10.27451 7.67173,-9.17693 7.0944,2.51319 11.23473,12.20507 8.39956,19.66212 -0.91516,2.40707 -0.85186,2.44082 4.34234,2.3151 6.53982,-0.15829 8.58637,1.35281 8.58637,6.33988 0,5.12484 -2.7033,7.49838 -7.51256,6.59616 -3.8532,-0.72286 -5.66524,-3.209 -3.38316,-4.64172 0.76765,-0.48193 2.18322,-0.63119 3.14572,-0.33168 1.13389,0.35284 1.75,0.0135 1.75,-0.96382 0,-2.42789 -1.4238,-2.6515 -5.29854,-0.83214 -2.89004,1.357 -3.58867,2.21686 -3.41711,4.20574 0.16351,1.89551 -0.31499,2.57551 -1.97894,2.81229 -1.6239,0.23108 -2.87581,-0.7171 -4.81422,-3.64624 z m 3.91727,-17.09465 c 0.73573,-2.56535 0.54299,-4.00607 -0.89252,-6.67165 -3.48711,-6.47519 -7.830564,-3.00077 -5.457988,4.36595 2.283668,7.09067 4.724078,7.97672 6.350508,2.3057 z m 913.10164,17.94491 c -0.3455,-0.55897 0.073,-1.01631 0.9309,-1.01631 1.7565,0 2.0151,0.60006 0.6281,1.45729 -0.512,0.31644 -1.2136,0.11799 -1.559,-0.44098 z m 52.2278,-10.23867 c -2.382,-4.85885 -6.5371,-19.08725 -5.9947,-20.52764 0.8068,-2.14238 4.2568,-1.48125 4.2568,0.81574 0,1.13616 0.4563,2.91826 1.0139,3.96022 0.5576,1.04196 1.7253,5.33468 2.5949,9.53937 1.7548,8.48534 0.7991,11.65868 -1.8709,6.21231 z M 476.5,421 c -0.33992,-0.55 -0.14148,-1 0.44098,-1 0.58246,0 1.05902,0.45 1.05902,1 0,0.55 -0.19844,1 -0.44098,1 -0.24254,0 -0.7191,-0.45 -1.05902,-1 z m 547.5,-0.94098 c 0,-1.06754 0.3938,-2.18434 0.875,-2.48177 0.4813,-0.29742 0.875,0.57602 0.875,1.94099 0,1.36497 -0.3937,2.48176 -0.875,2.48176 -0.4812,0 -0.875,-0.87344 -0.875,-1.94098 z M 1061.2853,405.75 c -2.2082,-4.0639 -2.5663,-23.86907 -0.4971,-27.5 2.5179,-4.41849 3.1335,-2.20731 2.923,10.5 -0.1162,7.0125 0.1467,14.4375 0.5841,16.5 0.9998,4.71402 -0.5777,4.97606 -3.01,0.5 z m -0.1637,-47.09211 c -1.0083,-1.2232 -1.202,-3.214 -0.7217,-7.41502 0.9489,-8.29997 4.2262,-20.29756 6.0401,-22.1114 2.0571,-2.05717 2.0262,-1.57983 -0.8821,13.61199 -1.3431,7.0161 -2.5806,13.8433 -2.75,15.17156 -0.2808,2.2025 -0.4292,2.26787 -1.6863,0.74287 z M 941,334.5 c 0,-0.83333 0.88889,-1.5 2,-1.5 1.1,0 2,-0.66535 2,-1.47856 0,-1.21422 0.44696,-1.27491 2.5,-0.33949 3.18303,1.45029 3.21168,2.81805 0.059,2.81805 -1.34254,0 -2.7191,0.45 -3.05902,1 -0.95485,1.54499 -3.5,1.18139 -3.5,-0.5 z m 125.5626,-26.52579 c -1.216,-3.81866 -1.477,-25.69477 -0.3555,-29.80826 1.3283,-4.8724 4.8057,-12.48645 5.4215,-11.87071 0.2694,0.26944 -0.2348,3.12574 -1.1205,6.34733 -0.975,3.54652 -1.8187,11.77533 -2.1384,20.85743 -0.5979,16.98403 -0.7134,17.90872 -1.8071,14.47421 z m 10.178,-61.56697 c -2.828,-2.828 3.0556,-25.93065 7.9516,-31.2227 1.9704,-2.12982 2.3331,-2.27127 1.7555,-0.68454 -2.0779,5.70753 -6.7149,21.72368 -7.7662,26.82391 -0.6602,3.20315 -1.5336,5.49065 -1.9409,5.08333 z M 1098.0947,192.25 c 1.1906,-3.13233 5.7879,-11.51531 10.1301,-18.47161 2.8334,-4.53922 9.2273,-9.65961 10.4879,-8.39899 0.3342,0.33414 -0.9345,2.10518 -2.8193,3.93564 -1.8848,1.83047 -6.4927,8.35841 -10.2399,14.50654 -6.4953,10.65689 -9.8111,14.3542 -7.5588,8.42842 z M 918,160 c 0,-0.55 0.19844,-1 0.44098,-1 0.24254,0 0.7191,0.45 1.05902,1 0.33992,0.55 0.14148,1 -0.44098,1 C 918.47656,161 918,160.55 918,160 z m 214.025,-7.29966 C 1131.8612,147.46103 1154.2551,123 1159.2154,123 c 1.2036,0 -1.6474,3.56991 -8.5852,10.75 -5.713,5.9125 -12.2307,12.775 -14.4837,15.25 -2.2531,2.475 -4.1077,4.14015 -4.1215,3.70034 z m 221.6582,-12.40392 c -0.2768,-0.44788 -1.0512,-4.56176 -1.7209,-9.14195 -1.0736,-7.34245 -1.0294,-8.51596 0.3741,-9.91948 1.4558,-1.45578 2.13,-1.02103 7.8875,5.08659 3.4626,3.67313 6.8333,6.67842 7.4905,6.67842 2.9286,0 2.7433,-13.57557 -0.2842,-20.82138 -1.634,-3.91052 -1.1632,-5.12852 1.3678,-3.53885 4.1871,2.62992 6.8252,18.70365 4.0642,24.7634 -1.7549,3.8515 -5.9339,4.8545 -10.5087,2.52216 -2.077,-1.05893 -3.8777,-1.92533 -4.0016,-1.92533 -0.1238,0 -0.3662,1.45881 -0.5385,3.24181 -0.2984,3.08668 -2.9146,5.02155 -4.1302,3.05461 z M 1153.6384,134.5 c 0.3166,-0.825 0.9633,-1.5 1.4372,-1.5 0.4739,0 0.6026,0.675 0.286,1.5 -0.3166,0.825 -0.9633,1.5 -1.4372,1.5 -0.4739,0 -0.6026,-0.675 -0.286,-1.5 z m 15.3806,-21.5995 c 1.6211,-3.112 17.6733,-18.668072 20.0379,-19.418557 0.998,-0.316755 2.0163,-1.342274 2.2628,-2.278931 0.2466,-0.936656 0.5005,-0.292266 0.5643,1.431978 0.088,2.366418 -0.5384,3.563742 -2.5531,4.883862 -1.468,0.961879 -5.4055,4.285328 -8.75,7.385438 -3.3445,3.10011 -7.5955,6.70759 -9.4466,8.01664 l -3.3658,2.38007 1.2505,-2.4005 z m 42.9878,-33.701059 c 0.014,-1.406389 6.9104,-5.342521 14.4429,-8.243037 4.2492,-1.636198 9.7316,-4.150415 12.1832,-5.587149 2.4516,-1.436734 4.7717,-2.297949 5.1559,-1.91381 1.1076,1.107665 -5.8496,6.343329 -10.7888,8.119089 -2.475,0.889821 -8.2125,3.126816 -12.75,4.971102 -4.5375,1.844285 -8.2469,3.038497 -8.2432,2.653805 z"
     id="path3223"
     style="fill:#000000" />
</svg>
