<?xml version="1.0" encoding="UTF-8" standalone="no"?>
<!-- Created with Inkscape (http://www.inkscape.org/) -->

<svg
   xmlns:dc="http://purl.org/dc/elements/1.1/"
   xmlns:cc="http://creativecommons.org/ns#"
   xmlns:rdf="http://www.w3.org/1999/02/22-rdf-syntax-ns#"
   xmlns:svg="http://www.w3.org/2000/svg"
   xmlns="http://www.w3.org/2000/svg"
   version="1.1"
   width="1654.1532"
   height="1783.9005"
   id="svg3007">
  <metadata
     id="metadata3013">
    <rdf:RDF>
      <cc:Work
         rdf:about="">
        <dc:format>image/svg+xml</dc:format>
        <dc:type
           rdf:resource="http://purl.org/dc/dcmitype/StillImage" />
        <dc:title></dc:title>
      </cc:Work>
    </rdf:RDF>
  </metadata>
  <defs
     id="defs3011" />
  <path
     d="m 1120.6108,1782.556 c 3.85,-0.7395 11.725,-2.5384 17.5,-3.9975 5.775,-1.4592 17.1427,-4.188 25.2616,-6.0641 8.1189,-1.8761 16.8939,-4.3905 19.5,-5.5875 2.6061,-1.1971 9.4634,-3.6453 15.2384,-5.4406 28.1696,-8.757 38.1504,-13.139 47.3918,-20.8072 11.6029,-9.6276 43.174,-41.1437 49.0197,-48.9342 14.4287,-19.2293 27.2431,-41.2842 28.2705,-48.6566 0.2735,-1.9626 1.5749,-6.9433 2.892,-11.0683 2.515,-7.8765 8.4215,-38.3575 8.4293,-43.5 0,-1.65 1.1278,-9.7265 2.5006,-17.9477 1.3729,-8.2212 2.51,-17.8962 2.527,-21.5 0.017,-3.6038 0.487,-9.9273 1.0446,-14.0523 0.5576,-4.125 1.0484,-14.7 1.0908,-23.5 0.064,-13.2219 -0.2292,-16.6945 -1.6861,-20 -1.2828,-2.9102 -1.7429,-6.452 -1.6888,-13 0.09,-10.9281 -1.8163,-24.5228 -5.9602,-42.5 -6.0336,-26.1747 -7.2959,-35.9979 -5.8353,-45.4115 0.6046,-3.8966 1.6846,-7.9856 2.4,-9.0866 0.7155,-1.1011 1.8749,-3.7527 2.5765,-5.8927 1.813,-5.5299 14.2496,-18.1485 26.9386,-27.3329 13.7412,-9.946 18.5944,-14.3104 27.5937,-24.8147 10.4613,-12.2106 11.4953,-14.7036 11.4953,-27.7153 0,-11.6234 -1.5288,-19.796 -5.5551,-29.6955 -2.5132,-6.1794 -7.734,-14.8236 -9.7899,-16.2093 -1.3668,-0.9213 -12.8872,-2.4893 -35.655,-4.8527 -10.725,-1.1134 -24.9,-2.7324 -31.5,-3.598 -6.6,-0.8656 -15.825,-1.9331 -20.5,-2.3724 -4.675,-0.4393 -16.375,-1.7198 -26,-2.8457 -9.625,-1.1259 -19.975,-2.3025 -23,-2.6146 -11.8566,-1.2234 -60.4452,-6.6916 -71,-7.9905 -1.925,-0.2369 -8.45,-0.9196 -14.5,-1.5171 -21.8162,-2.1547 -30.2055,-3.2508 -31.5904,-4.1275 -1.0446,-0.6613 -0.7623,-0.8933 1.0904,-0.8958 3.9621,-0.01 42.1835,3.6531 62.5,5.9825 4.95,0.5676 25.3524,2.8308 45.3386,5.0295 19.9863,2.1986 41.3613,4.6386 47.5,5.4223 6.1388,0.7837 14.7614,1.7081 19.1614,2.0543 4.4,0.3462 8.675,0.8003 9.5,1.0092 0.825,0.2088 10.5,1.3061 21.5,2.4385 11,1.1323 23.2809,2.5038 27.2908,3.0477 8.9492,1.2137 15.2092,1.2708 15.2092,0.1388 0,-2.09 -16.9936,-15.061 -21.6807,-16.5486 -2.6788,-0.8503 -7.3193,-4.4347 -7.3193,-5.6537 0,-1.3087 6.6136,-4.4888 13.4969,-6.4898 3.2653,-0.9493 9.6194,-4.1016 14.1204,-7.0052 12.0475,-7.772 20.5044,-18.1183 29.8698,-36.5431 4.0789,-8.0248 8.2781,-16.7998 9.3315,-19.5 2.4109,-6.1804 3.3543,-16.7998 2.1258,-23.9289 -0.5194,-3.0144 -1.3857,-8.047 -1.925,-11.1837 -0.6003,-3.4909 -0.6209,-5.9252 -0.053,-6.2761 0.5306,-0.3279 0.8432,-9.119 0.7306,-20.547 -0.2162,-21.9564 0.1575,-32.4007 1.3229,-36.9739 0.4205,-1.65 1.5281,-7.5 2.4613,-13 0.9332,-5.5 3.0092,-13.375 4.6133,-17.5 1.6041,-4.125 2.9141,-7.9924 2.9112,-8.5941 0,-0.6018 3.0321,-4.7834 6.7446,-9.2925 3.7125,-4.5091 8.4562,-10.54176 10.5416,-13.40589 6.4687,-8.88419 17.7926,-19.5735 27.7084,-26.1556 5.225,-3.46835 11.2503,-7.71217 13.3896,-9.4307 2.1393,-1.71853 5.7393,-3.6494 8,-4.29083 2.2607,-0.64143 7.2604,-3.04885 11.1104,-5.34983 3.85,-2.30097 9.2386,-5.45361 11.9746,-7.00587 2.7361,-1.55225 7.9566,-5.62285 11.6011,-9.04579 3.6446,-3.42293 8.0853,-6.9779 9.8683,-7.89994 1.783,-0.92203 3.0229,-1.89541 2.7552,-2.16305 -0.4581,-0.45816 -7.5258,-1.54992 -17.6992,-2.73404 -24.7013,-2.87508 -36.5338,-4.28726 -68.5,-8.17529 -44.5653,-5.42045 -57.8578,-6.99567 -71,-8.41382 -5.5,-0.59349 -13.6,-1.50768 -18,-2.03152 -4.4,-0.52384 -14.525,-1.64804 -22.5,-2.49821 -7.975,-0.85017 -16.3,-1.81065 -18.5,-2.1344 -2.2,-0.32374 -9.7539,-0.65388 -16.7864,-0.73362 -9.7643,-0.11073 -12.9911,-0.47608 -13.6522,-1.54575 -0.5756,-0.9313 -4.1662,-1.70887 -10.7136,-2.32011 -5.4163,-0.50565 -15.6443,-1.81881 -22.7289,-2.91813 -7.1195,-1.10473 -13.2631,-1.61677 -13.7352,-1.14475 -0.4697,0.46971 -1.3138,3.27888 -1.8759,6.24261 -1.4428,7.60763 -2.0674,7.48564 -1.3439,-0.26246 0.5935,-6.35597 0.531,-6.6065 -1.7743,-7.10575 C 1236.5887,883.41859 1224.933,882 1220.7149,882 c -4.3186,0 -4.5355,0.14009 -5.0322,3.25 -2.1685,13.57815 -2.4682,14.38136 -1.9218,5.1515 l 0.5385,-9.0985 -9.8441,-1.25409 c -5.4143,-0.68974 -13.8365,-1.6338 -18.7159,-2.0979 -4.8795,-0.4641 -13.8795,-1.54805 -20,-2.40878 C 1151.8075,873.58303 1119.185,870 1115.2787,870 c -2.2613,0 -3.1718,0.62422 -4.0113,2.75 -1.0703,2.71031 -7.5708,34.41441 -12.661,61.75 -2.5623,13.75986 -3.2132,17.13188 -7.4983,38.84514 -1.1772,5.96483 -1.8871,11.09842 -1.5775,11.40799 0.3096,0.30957 0.1565,1.05426 -0.3401,1.65486 -0.4966,0.60061 -1.881,6.49201 -3.0763,13.09201 -1.1954,6.6 -5.0228,26.4 -8.5053,44 -8.3272,42.0842 -8.1246,40.2982 -4.7235,41.6571 l 2.7254,1.0889 -3.1736,1.3487 c -1.7455,0.7418 -3.4112,2.1489 -3.7016,3.127 -0.2904,0.9781 -2.8279,13.7033 -5.639,28.2783 -2.811,14.575 -6.1807,31.9 -7.4881,38.5 -2.2584,11.4005 -7.9842,41.8332 -8.9901,47.7818 -0.3721,2.2007 0,2.9531 1.761,3.6013 2.0177,0.741 30.3424,4.1709 62.5247,7.5713 11.6579,1.2318 14.2407,1.8449 12.9996,3.0861 -0.2973,0.2972 -14.8848,-1.0237 -32.4167,-2.9353 -48.0363,-5.2379 -45.0675,-5.0505 -46.2093,-2.9171 -0.5391,1.0074 -2.1788,8.1271 -3.6438,15.8217 -7.6185,40.0156 -11.716,59.11 -14.6537,68.2873 -1.7879,5.5852 -3.3979,10.0077 -3.5779,9.8278 -0.1799,-0.1799 1.2929,-7.9316 3.2729,-17.226 3.3716,-15.827 7.7959,-38.8408 12.5418,-65.2389 1.1213,-6.2369 1.817,-11.9176 1.5461,-12.6237 -0.6058,-1.5786 -3.4856,-2.1302 -20.6523,-3.9561 -7.425,-0.7897 -50.17502,-5.5115 -95.00002,-10.4927 -44.825,-4.9813 -89.825,-9.9712 -100,-11.0887 -10.175,-1.1176 -24.125,-2.7259 -31,-3.5741 -6.875,-0.8482 -17.9,-1.9396 -24.5,-2.4253 -6.6,-0.4857 -16.275,-1.5767 -21.5,-2.4245 -5.225,-0.8477 -18.05,-2.4682 -28.5,-3.601 -41.3219,-4.4793 -82.18697,-9.1052 -106,-11.9992 -29.12614,-3.5398 -52.51759,-5.8046 -54.13796,-5.2419 -0.62587,0.2173 -1.61066,2.2789 -2.18841,4.5812 -0.57775,2.3023 -1.33346,5.311 -1.67934,6.686 -0.34589,1.375 -1.442,6.775 -2.4358,12 -6.75745,35.528 -13.58618,64.8027 -16.01018,68.6357 -1.29146,2.0421 -1.3758,2.9039 1.53023,-15.6357 0.81901,-5.225 1.91008,-11.075 2.42462,-13 0.51453,-1.925 2.08129,-10.025 3.48168,-18 1.40039,-7.975 3.47846,-19.45 4.61792,-25.5 3.27185,-17.372 3.70217,-19.9775 3.36022,-20.3457 -0.43486,-0.4683 -24.28086,-3.6352 -38.46298,-5.1082 -6.325,-0.657 -15.1,-1.6502 -19.5,-2.2071 -4.4,-0.557 -13.85,-1.6151 -21,-2.3514 -23.23466,-2.3928 -104.4301,-11.4039 -126.93454,-14.0873 -23.19662,-2.7659 -35.01746,-3.4223 -37.68652,-2.0928 -1.0286,0.5124 -2.16597,0.2626 -3.112,-0.6834 -1.55549,-1.5555 -9.17623,-2.8214 -31.26694,-5.1939 -7.15,-0.7679 -14.575,-1.6015 -16.5,-1.8525 -3.83676,-0.5001 -13.91337,-1.5115 -21.05789,-2.1135 -2.50684,-0.2112 -13.30684,-1.3294 -24,-2.4847 -10.69316,-1.1554 -23.94211,-2.5368 -29.44211,-3.0697 -5.5,-0.533 -13.825,-1.4127 -18.5,-1.9549 -4.675,-0.5423 -13,-1.4242 -18.5,-1.9599 -5.5,-0.5356 -12.54324,-1.2568 -15.65164,-1.6025 -4.89001,-0.5439 -5.77753,-0.3768 -6.58574,1.2395 -0.51376,1.0274 -2.4557,8.7749 -4.31544,17.2168 -1.85973,8.4418 -3.53519,14.8872 -3.72324,14.323 -0.18804,-0.5641 0.80964,-7.5096 2.21708,-15.4344 3.32037,-18.6959 3.32607,-18.5384 -0.69102,-19.1061 -5.59685,-0.7909 -21.738591,-2.7116 -34.750001,-4.1348 -26.892372,-2.9415 -31.763862,-3.4245 -39.182189,-3.8848 -7.433459,-0.4613 -12.817811,-2.4983 -12.817811,-4.8492 0,-0.571 0.649755,-0.4681 1.5,0.2375 1.1178,0.9277 1.5,0.9439 1.5,0.063 0,-0.6498 0.398098,-0.9354 0.884661,-0.6347 1.439749,0.8898 13.939392,2.5348 23.615339,3.1078 4.95,0.2932 11.475,0.996 14.5,1.5619 4.64546,0.869 10.64089,1.3374 23.67835,1.8502 1.19809,0.047 7.048091,0.7292 13.000001,1.5157 8.40193,1.1102 11.08812,1.1623 12.01336,0.2328 1.14752,-1.1527 3.68577,-13.5101 8.87284,-43.1971 1.34539,-7.7 3.09459,-17.15 3.88711,-21 0.79253,-3.85 2.83658,-14.425 4.54236,-23.5 3.28797,-17.49258 6.95757,-35.27356 9.49337,-46 0.84515,-3.575 2.16701,-9.875 2.93746,-14 0.77044,-4.125 2.84516,-15.15 4.61047,-24.5 1.76532,-9.35 3.32962,-17.9 3.47622,-19 0.1466,-1.1 1.42222,-7.175 2.8347,-13.5 1.41249,-6.325 2.82452,-13.075 3.13785,-15 0.59765,-3.67179 3.02837,-15.03757 4.49113,-21 0.47226,-1.925 1.16665,-5.975 1.54309,-9 0.37643,-3.025 1.74492,-9.775 3.04107,-15 2.30574,-9.29477 2.71536,-11.35239 3.88195,-19.5 0.4841,-3.38101 6.09799,-32.02942 9.5876,-48.9268 0.55961,-2.70974 0.64174,-5.30253 0.18251,-5.76176 -0.45923,-0.45923 -4.63217,-1.27342 -9.2732,-1.8093 -4.64103,-0.53589 -16.53824,-1.90547 -26.43824,-3.04351 -9.9,-1.13804 -21.375,-2.50834 -25.5,-3.04511 -4.125,-0.53676 -13.575,-1.63234 -21,-2.43461 C 93.753989,753.14335 82.162089,751.7441 60.610779,748.98622 49.11756,747.51586 20.455103,743.13434 14.784489,741.98133 12.130029,741.4416 7.9940875,741 5.5935065,741 c -3.765216,0 -6.51451702,-1.30154 -5.30474702,-2.51131 0.208038,-0.20804 9.02342302,0.70695 19.58974452,2.03331 10.566322,1.32637 21.80367,2.65824 24.971885,2.95973 5.566917,0.52976 12.530133,1.29468 18.76039,2.06086 8.04592,0.98946 47.722181,5.51637 61.000001,6.95986 8.25,0.89689 16.575,1.80558 18.5,2.01931 1.925,0.21373 8.225,0.87148 14,1.46166 5.775,0.59019 12.17939,1.28938 14.23197,1.55376 18.20392,2.34473 21.02127,1.7982 20.09681,-3.89856 -0.28896,-1.78063 0.19386,-5.65944 1.07292,-8.61957 C 195.03479,736.52552 194.75694,735 190.6877,735 c -4.15252,0 -8.83726,-4.22877 -10.59923,-9.56761 -0.82461,-2.49858 -1.62255,-3.39891 -2.65965,-3.00094 -0.81489,0.3127 -2.15936,0.56855 -2.98773,0.56855 -1.20042,0 -1.37039,0.80331 -0.83744,3.95783 0.85062,5.03472 -0.0997,8.04217 -2.54121,8.04217 -1.27071,0 -2.12162,-0.92384 -2.53289,-2.75 -2.54685,-11.30867 -3.39359,-12.14583 -8.39665,-8.30157 l -2.47789,1.90396 2.18887,6.73242 c 2.35626,7.24727 2.23925,8.41519 -0.84314,8.41519 -2.48432,0 -3.9025,-3.26087 -7.42053,-17.06225 C 147.47411,707.82928 149.28533,700 157.11797,700 c 4.47149,0 10.06896,7.52178 14.26809,19.17322 0.55517,1.54043 0.90242,1.52058 4.37531,-0.25 6.15351,-3.13723 7.91996,-2.63517 9.94559,2.82678 2.59252,6.99049 5.22763,10.41748 7.73191,10.05545 2.56256,-0.37045 3.24803,-2.73309 7.63199,-26.30545 1.7389,-9.35 3.41875,-17.675 3.73301,-18.5 0.31425,-0.825 0.71745,-2.625 0.896,-4 0.17856,-1.375 1.02669,-5.875 1.88475,-10 0.85806,-4.125 2.23913,-10.875 3.06905,-15 0.82992,-4.125 2.20018,-10.71802 3.04501,-14.65115 0.84483,-3.93313 1.93325,-9.78313 2.4187,-13 1.32293,-8.7664 6.72884,-37.36312 9.42341,-49.84885 1.30567,-6.05 2.89966,-13.925 3.54221,-17.5 4.90836,-27.30906 15.2315,-72.55949 17.59667,-77.13323 0.78308,-1.5143 1.03634,-2.99272 0.5628,-3.28538 -0.73364,-0.45342 -0.81728,-2.35338 -0.25931,-5.89041 0.0702,-0.44496 0.57762,-0.5309 1.12762,-0.19098 0.55,0.33992 1.00689,-0.19602 1.01531,-1.19098 0.008,-0.99496 0.43206,-2.46793 0.94143,-3.27326 2.5266,-3.99472 -2.63542,27.22247 -10.53833,63.73021 -1.39705,6.45371 -6.07823,29.50903 -10.40263,51.23403 -4.3244,21.725 -9.45673,46.7 -11.40518,55.5 -1.94845,8.8 -4.68859,22.3 -6.0892,30 -1.4006,7.7 -2.71192,14.45865 -2.91403,15.01922 -0.20211,0.56056 -2.25243,11.13556 -4.55625,23.5 -2.30383,12.36443 -5.19646,27.23979 -6.42809,33.05636 -1.23162,5.81656 -2.05978,11.11417 -1.84035,11.77246 0.22806,0.68418 3.37311,-1.43989 7.3419,-4.95849 3.81861,-3.38545 7.26524,-5.83005 7.65918,-5.43244 0.39393,0.39761 -2.36177,3.64191 -6.12378,7.20955 -3.76202,3.56764 -6.55151,6.77515 -6.19887,7.12778 0.35263,0.35264 4.10565,0.96341 8.34002,1.35727 4.23438,0.39386 33.79887,3.67839 65.69887,7.29897 31.9,3.62057 60.475,6.84279 63.5,7.16048 3.025,0.31769 18.325,2.12682 34,4.02029 15.675,1.89348 30.525,3.58936 33,3.76864 4.63543,0.33577 27.1095,3.18687 32.4778,4.12019 3.61168,0.62791 19.62693,2.36917 28.0222,3.04671 3.3,0.26633 8.925,0.91471 12.5,1.44085 3.575,0.52614 12.125,1.46361 19,2.08325 6.875,0.61965 12.95,1.47108 13.5,1.89206 0.55,0.42099 2.125,0.57115 3.5,0.33368 1.375,-0.23746 4.975,0.0274 8,0.58847 3.025,0.56113 9.13354,1.25987 13.57453,1.55276 11.51147,0.75921 34.90143,3.1699 48.92547,5.04252 20.52913,2.74124 36.76399,4.56877 37.15075,4.182 0.20388,-0.20388 1.5686,-6.35186 3.03271,-13.66218 l 2.66202,-13.2915 -3.10658,-9.1327 c -1.70862,-5.02299 -4.05638,-13.84949 -5.21725,-19.61445 -1.16087,-5.76496 -2.99201,-13.85675 -4.06919,-17.98175 -2.6406,-10.11193 -5.53443,-25.55672 -6.83887,-36.5 -0.59004,-4.95 -1.86948,-15.525 -2.84319,-23.5 -2.33176,-19.09769 -2.28959,-60.62673 0.0769,-75.76587 3.40339,-21.77217 8.19442,-32.64694 20.0204,-45.44267 9.52691,-10.30813 12.56198,-11.71622 19.87953,-9.22288 8.07366,2.75098 17.32634,14.03213 21.181,25.82455 0.34035,1.04122 0.82677,1.68517 1.08094,1.431 0.40994,-0.40993 3.83739,-17.12928 10.52141,-51.32413 7.66994,-39.23872 7.94155,-41.1682 5.60265,-39.79969 -0.75171,0.43983 -7.16421,6.2757 -14.25,12.96861 -7.08579,6.6929 -15.13326,13.95725 -17.88326,16.143 -2.75,2.18574 -8.6,7.65501 -13,12.15393 -4.4,4.49891 -10.925,10.49588 -14.5,13.3266 -3.575,2.83071 -11,9.21732 -16.5,14.19246 -10.66828,9.65022 -18.6277,15.92463 -27.5,21.67823 -7.26217,4.70945 -9.77432,5.95192 -21.01725,10.39484 -5.21551,2.06104 -14.83174,6.37864 -21.3694,9.59468 -12.93002,6.36062 -15.61332,7.01342 -15.61332,3.79845 0,-1.39849 1.19041,-2.58896 3.75,-3.7502 2.0625,-0.93572 6.45,-3.3521 9.75,-5.36973 3.3,-2.01763 11.175,-5.77513 17.5,-8.34999 19.69373,-8.01718 32.64731,-16.52816 49.07064,-32.24122 5.59913,-5.35698 10.68629,-10.21137 11.3048,-10.78752 0.61851,-0.57615 3.37456,-2.58602 6.12456,-4.46637 2.75,-1.88035 9.05,-7.53136 14,-12.55779 4.95,-5.02643 13.75676,-13.19827 19.57057,-18.15964 15.86395,-13.53792 32.1572,-30.11309 34.66877,-35.26865 1.88431,-3.86799 9.82843,-41.88364 18.70279,-89.5 0.92254,-4.95 3.24499,-17.1 5.161,-27 2.86917,-14.82494 6.39687,-37.2624 6.39687,-40.68642 0,-0.44747 -1.125,-0.81358 -2.5,-0.81358 -1.375,0 -2.5,-0.42852 -2.5,-0.95227 0,-0.59467 -13.80032,-0.76751 -36.75,-0.46027 -20.2125,0.2706 -56.55,0.64443 -80.75,0.83074 -29.05199,0.22367 -45.35891,0.72766 -48,1.48349 -2.2,0.62961 -11.875,1.6043 -21.5,2.16598 -18.73846,1.09352 -29.57095,3.38768 -40.55716,8.58941 -12.22104,5.78639 -12.44494,11.64731 -1.38749,36.31879 3.72875,8.3196 4.30299,10.57701 4.70605,18.5 0.7542,14.82516 -2.30566,27.15072 -9.80582,39.49925 -10.65665,17.54549 -19.3823,24.66125 -36.95558,30.13723 -6.27521,1.9554 -9.70463,2.34119 -21,2.36235 -12.71896,0.0238 -13.78927,-0.1285 -18.5,-2.63313 -2.75,-1.46214 -9.53353,-7.08714 -15.07451,-12.5 -9.54896,-9.32818 -10.26467,-10.32054 -13.7199,-19.02326 -5.78238,-14.56418 -7.15941,-28.21074 -4.77473,-47.31831 1.58494,-12.6995 3.72305,-19.11908 11.49909,-34.52553 6.51514,-12.90827 6.54861,-13.0175 6.5593,-21.40875 0.008,-6.59339 -0.45694,-9.40039 -2.13204,-12.86068 -2.5624,-5.29322 -5.77646,-6.90475 -15.59001,-7.81682 -8.53719,-0.79345 -13.0173,1.20188 -21.30348,9.48806 -4.55734,4.55734 -6.25071,7.24177 -8.91036,14.12519 -5.50313,14.24265 -7.83248,25.42911 -9.51052,45.67319 -1.9102,23.045 -1.98988,23.55487 -5.52035,35.32534 -1.5672,5.225 -3.35164,11.975 -3.96541,15 -2.8498,14.04521 -14.91524,54.98094 -22.84242,77.5 -5.38215,15.28926 -15.92096,38.15206 -22.08696,47.91523 -2.1502,3.4046 -6.04113,10.4346 -8.64651,15.62223 -5.49464,10.94048 -13.02161,22.37781 -17.08609,25.96254 -2.99691,2.64317 -2.63182,1.95089 2.37318,-4.5 1.7069,-2.2 5.90099,-9.4 9.3202,-16 3.41922,-6.6 8.14413,-15.15 10.49981,-19 9.19772,-15.03227 20.20111,-42.89584 31.19727,-79 2.6248,-8.61811 11.78449,-44.60667 12.66889,-49.77626 0.35531,-2.07694 1.76936,-7.2175 3.14233,-11.42347 2.7457,-8.41121 3.94792,-16.27585 5.4487,-35.64406 1.16281,-15.00659 1.46589,-17.197 4.02668,-29.10105 2.33052,-10.83364 7.07967,-23.65259 10.73527,-28.97671 3.5876,-5.22509 13.33133,-12.64334 20.47687,-15.58978 5.20575,-2.14657 6.2324,-2.26528 10.26435,-1.1869 2.46403,0.65903 5.23152,1.19823 6.14998,1.19823 0.91846,0 3.62891,0.94833 6.02322,2.1074 6.661,3.22453 9.56476,9.64703 9.68553,21.42236 l 0.0926,9.02976 -5.84557,11.84147 c -10.33502,20.93581 -12.25996,29.63011 -11.37183,51.36254 0.9805,23.99253 5.41009,35.2524 19.11702,48.59489 12.42651,12.09611 16.80575,14.11712 30.13842,13.90883 21.90824,-0.34227 36.86564,-9.41161 48.56813,-29.44903 4.61997,-7.91049 6.26649,-12.82709 8.47883,-25.31822 2.29807,-12.97517 1.36904,-20.53216 -4.05691,-33 -6.28717,-14.44678 -7.83944,-19.90793 -7.28846,-25.64207 0.80225,-8.3492 8.09293,-13.97096 25.23621,-19.45936 8.96792,-2.87106 13.5422,-3.70625 24.52416,-4.47767 7.425,-0.52157 17.1,-1.47356 21.5,-2.11554 4.49035,-0.65516 29.49661,-1.51203 57,-1.95317 40.63975,-0.65185 71.68765,-1.94733 64.30122,-2.683 -0.93433,-0.0931 -6.78433,-0.80378 -13,-1.5794 -6.21567,-0.77561 -16.02622,-1.6917 -21.80122,-2.03575 -5.775,-0.34405 -26.925,-2.18097 -47,-4.08205 -20.075,-1.90108 -44.15,-4.14234 -53.5,-4.98057 -9.35,-0.83823 -26.45,-2.39862 -38,-3.46754 -11.55,-1.06892 -31.575,-2.88087 -44.5,-4.02656 -12.925,-1.1457 -25.2806,-2.28858 -27.45688,-2.53973 C 404.06601,273.23568 299.84501,264 296.64416,264 c -1.86822,0 -2.49338,0.79177 -3.3557,4.25 -0.58286,2.3375 -9.18254,44.975 -19.1104,94.75 -19.25484,96.53742 -19.84091,99.25794 -21.20149,98.41706 -0.48645,-0.30065 -1.66775,0.82968 -2.62512,2.51183 -1.45153,2.55043 -3.24067,4.05473 -3.24067,2.72475 0,-1.29453 3.33503,-6.65364 4.14063,-6.65364 0.54678,0 0.71915,-0.86643 0.38305,-1.92539 -0.86772,-2.73396 2.96263,-24.12444 11.06427,-61.78796 1.32663,-6.16734 2.41786,-12.46734 2.42495,-14 0.007,-1.53266 0.84862,-5.48665 1.87006,-8.78665 1.02144,-3.3 2.61552,-10.5 3.54241,-16 0.92688,-5.5 2.10874,-12.025 2.62636,-14.5 0.51761,-2.475 1.21121,-6.3 1.54133,-8.5 0.33012,-2.2 1.47925,-8.05 2.55361,-13 1.07436,-4.95 2.19868,-11.025 2.49849,-13.5 0.29981,-2.475 2.0773,-12.30444 3.94998,-21.8432 1.87267,-9.53876 3.40486,-18.59329 3.40486,-20.12117 0,-3.3575 1.98916,-3.0166 -38,-6.51252 -15.675,-1.37034 -36.15,-3.18976 -45.5,-4.04315 -9.35,-0.85339 -19.475,-1.76854 -22.5,-2.03367 -3.025,-0.26513 -18.1,-1.60679 -33.5,-2.98147 -15.4,-1.37468 -30.475,-2.7178 -33.5,-2.98471 -3.025,-0.2669 -7.75,-0.7056 -10.5,-0.97487 -7.747251,-0.75859 -14.285321,-1.32473 -23.000001,-1.99159 -4.4,-0.3367 -9.575,-0.78901 -11.5,-1.00514 -7.070367,-0.79381 -36.789996,-3.6127 -46.5,-4.4105 l -10,-0.82162 11.5,-0.11596 c 6.325,-0.0638 17.35,0.5496 24.5,1.36306 7.15,0.81346 21.55,2.13561 32,2.9381 20.893721,1.6045 48.039631,3.90726 100.500001,8.5253 18.975,1.67035 45.75,3.93718 59.5,5.03739 13.75,1.10021 29.82946,2.47636 35.73213,3.05811 5.90268,0.58175 11.14496,0.80259 11.64952,0.49075 0.50457,-0.31183 1.47207,-2.93086 2.15002,-5.82006 0.67794,-2.88919 1.57244,-5.92808 1.98778,-6.75308 0.41533,-0.825 1.04345,-3.3 1.3958,-5.5 1.78703,-11.15757 8.26987,-40.00858 12.02148,-53.5 1.29999,-4.675 3.1749,-11.875 4.16646,-16 0.99156,-4.125 1.94622,-6.825 2.12146,-6 0.29328,1.38068 -3.87805,24.63996 -13.24886,73.87551 -2.77131,14.56086 -3.39043,19.55921 -2.49149,20.11479 1.31667,0.81374 5.35044,1.24983 37.0157,4.00175 17.59397,1.52904 84.43806,7.56795 104.5,9.44088 2.75,0.25673 10.625,0.94523 17.5,1.52999 6.875,0.58477 27.575,2.40321 46,4.04099 18.425,1.63777 38.9,3.43908 45.5,4.00289 6.6,0.56381 13.8,1.2414 16,1.50574 2.2,0.26434 12.325,1.1621 22.5,1.99502 10.175,0.83292 20.525,1.74133 23,2.01869 2.475,0.27737 12.375,1.15203 22,1.94371 9.625,0.79167 30.1,2.57451 45.5,3.96186 42.18049,3.79993 39.76968,3.68131 41.90765,2.06201 1.38151,-1.04637 2.68159,-5.10599 4.71379,-14.71935 3.24027,-15.32812 3.52098,-19.99643 1.31262,-21.8292 -2.2924,-1.90253 -4.43406,-6.46462 -4.43406,-9.44528 0,-5.24212 4.47686,-11.04155 9,-11.65882 2.41581,-0.32969 2.64347,-1.04835 6.76051,-21.34118 2.34329,-11.55 4.7255,-23.25 5.29381,-26 1.66064,-8.03566 4.06734,-20.59743 4.98132,-26 1.80388,-10.66277 11.33055,-55.46714 11.71264,-55.08506 0.62318,0.62318 -2.5688,20.29579 -6.26061,38.58506 -1.83185,9.075 -4.0172,20.325 -4.85633,25 -0.83913,4.675 -2.66573,14.575 -4.05911,22 -7.60529,40.52699 -7.70754,41.65219 -4.07223,44.81305 1.375,1.19555 2.49832,2.7392 2.49626,3.43034 -0.005,1.82867 -3.79495,7.75661 -4.95851,7.75661 -0.5454,0 -1.73025,1.12725 -2.63299,2.50501 -1.32269,2.01867 -1.40046,2.79524 -0.40061,4 1.89491,2.28322 4.72538,1.8155 11.39975,-1.88376 10.59469,-5.87207 14.03584,-5.65467 7.3461,0.46411 -4.68351,4.28378 -11.21078,7.15479 -16.5826,7.29383 l -4.6674,0.12081 -1.64464,6.58054 c -2.59005,10.36338 -4.9366,25.23989 -4.10885,26.04911 0.41442,0.40514 11.70293,-0.0306 25.08559,-0.96819 14.6687,-1.02774 24.55874,-1.33808 24.90277,-0.78143 1.16599,1.88662 -3.04485,3.40924 -11.33901,4.10014 -4.6958,0.39116 -8.31847,0.93055 -8.05037,1.19865 0.73311,0.73311 11.22605,1.91377 42.15451,4.74318 15.4,1.40884 33.175,3.03669 39.5,3.61745 6.325,0.58077 13.975,1.26031 17,1.5101 5.94359,0.49079 21.95504,1.91071 39.5,3.50292 9.97669,0.90539 17.27881,1.55095 56,4.9508 6.6,0.5795 16.95,1.4785 23,1.99778 6.05,0.51928 23.375,2.06832 38.50002,3.44231 46.1847,4.19553 75.7993,6.81577 114,10.08651 10.175,0.87118 25.25,2.25087 33.5,3.06598 8.25,0.8151 20.625,1.8961 27.5,2.40222 6.875,0.50611 15.3314,1.17807 18.792,1.49322 l 6.292,0.57302 1.8651,-4.28216 c 1.9714,-4.52641 3.1208,-9.92165 19.6608,-92.28215 11.6278,-57.90102 19.9562,-98.20264 21.3883,-103.5 1.9765,-7.31105 -0.1176,6.30504 -3.6141,23.5 -1.9013,9.35 -9.305,46.925 -16.4526,83.5 -7.1476,36.575 -13.6562,69.74353 -14.4636,73.70784 -0.8073,3.96431 -1.4679,7.45181 -1.4679,7.75 0,1.5402 3.511,0.0411 10.3312,-4.41123 4.1733,-2.72437 9.0686,-5.70926 10.8783,-6.6331 5.5078,-2.81157 24.5843,-22.28129 28.8195,-29.41351 7.4479,-12.54247 14.3847,-21.43223 18.1825,-23.3017 2.5066,-1.23388 4.3388,-3.2036 5.8135,-6.25 1.1844,-2.44656 2.5633,-4.4483 3.0642,-4.4483 1.2901,0 1.1295,6.53792 -0.2758,11.22863 -2.1195,7.07408 2.0395,27.82443 10.6772,53.27137 2.427,7.15 5.1253,15.8261 5.9963,19.28022 2.8393,11.26058 2.1801,10.7232 14.8478,12.10465 6.1409,0.66969 13.4153,1.50347 16.1653,1.85285 2.75,0.34938 5.2923,0.56639 5.6495,0.48226 0.3572,-0.0841 4.4072,0.25286 9,0.74888 4.5928,0.49602 11.7255,1.18468 15.8505,1.53037 4.125,0.34568 8.2875,0.8551 9.25,1.13203 0.9625,0.27693 1.75,0.12165 1.75,-0.34507 0,-0.46672 -3.1506,-6.68454 -7.0013,-13.81738 -7.2629,-13.45325 -8.8843,-17.1966 -14.7128,-33.96881 -3.4166,-9.83139 -3.466,-10.20549 -2.929,-22.1871 0.5627,-12.55678 1.4095,-15.48976 10.0505,-34.8129 0.7378,-1.65 6.0464,-7.95 11.7967,-14 14.5817,-15.34165 21.3592,-24.89779 26.5824,-37.48061 7.7327,-18.62829 14.1683,-39.31778 15.6422,-50.28728 1.6838,-12.53146 2.0544,-56.430152 0.5886,-69.73211 -0.5757,-5.225 -1.4921,-14.675 -2.0364,-21 -1.928,-22.405537 -5.263,-51.8914447 -6.5317,-57.75 -0.3972,-1.83400551 -0.052,-2.25 1.8662,-2.25 2.3385,0 2.3768,0.19238398 6.0256,30.25 2.0197,16.6375 3.6692,32.10108 3.6656,34.36351 0,2.262431 0.4919,6.537431 1.1011,9.5 1.4161,6.885707 1.2865,69.43707 -0.1661,80.20084 -0.58,4.29789 -3.0369,13.93124 -5.4598,21.40744 -4.1173,12.7046 -4.6792,16.13625 -2.4127,14.7355 0.512,-0.31643 0.924,0.46373 0.9156,1.73369 -0.012,1.74574 -0.2334,1.96452 -0.9093,0.89684 -1.3992,-2.21037 -3.3094,0.31312 -8.5364,11.27697 -6.0187,12.62438 -14.194,24.57421 -22.327,32.63521 -9.6121,9.52696 -14.0715,15.52118 -18.2759,24.56603 -5.7232,12.31236 -6.9361,17.44933 -6.9361,29.3764 0,10.24198 0.1568,10.99376 4.9143,23.5685 5.5677,14.71625 11.8301,28.1264 17.336,37.12352 3.3243,5.43199 4.2551,6.25539 8.1929,7.24692 2.4433,0.61525 5.3947,1.11863 6.5586,1.11863 1.1639,0 1.8381,0.45 1.4982,1 -0.3399,0.55 -2.6592,1 -5.154,1 l -4.536,0 2.465,4.25 c 11.2929,19.47032 29.906,58.54435 37.2179,78.1307 2.0287,5.43439 5.1965,12.63439 7.0394,16 1.843,3.36562 4.7833,9.7193 6.5341,14.1193 1.7508,4.4 5.1573,11.93881 7.57,16.75291 2.4126,4.81409 5.7367,12.15169 7.3869,16.30577 3.2555,8.19526 6.4427,14.83469 18.3074,38.13707 8.2206,16.14529 10.0894,18.784 47.7365,67.40343 4.088,5.27955 11.2578,14.91735 15.9328,21.41733 15.9769,22.21384 53.6231,71.35756 64.0597,83.62422 11.86,13.93958 31.4297,44.29055 30.7036,47.61872 -0.3002,1.37609 -1.2574,0.79838 -4.5715,-2.75901 -2.3055,-2.47475 -4.1918,-4.02653 -4.1918,-3.44838 0,0.57814 1.1637,7.32794 2.5861,14.99955 3.0989,16.71433 4.3336,42.09603 2.501,51.411 -2.7768,14.11457 -8.1817,25.27465 -21.0853,43.53739 -13.5588,19.19015 -28.8216,32.98405 -46.0018,41.57474 -5.17,2.58515 -9.1538,5.86745 -8.4681,6.97694 0.2587,0.41852 2.8323,1.06379 5.7192,1.43393 2.8869,0.37014 6.3739,0.82661 7.7489,1.01439 1.375,0.18778 4.8625,0.64432 7.75,1.01455 2.8875,0.37022 5.25,1.14552 5.25,1.72289 0,1.06038 -2.2752,0.93603 -22.8497,-1.24886 l -9.3497,-0.99288 -7.0318,3.69511 c -3.8675,2.03232 -10.1044,6.51483 -13.8598,9.96115 -3.7554,3.44632 -8.5337,7.14769 -10.6185,8.22525 -2.0848,1.07757 -7.5581,4.23596 -12.1629,7.01866 -4.6049,2.78269 -9.9052,5.34698 -11.7786,5.69843 -5.0604,0.94934 -31.1977,19.97202 -39.3712,28.65427 -3.7811,4.01652 -7.9104,8.7307 -9.1763,10.47598 -1.2658,1.74527 -5.3151,6.94275 -8.9984,11.55005 -8.1077,10.1415 -11.5307,18.7078 -14.9362,37.3791 -2.2341,12.2491 -2.3283,14.5896 -2.0268,50.3463 0.1739,20.625 0.383,41.8053 0.4646,47.0672 l 0.1484,9.5673 -9.4102,18.78 c -10.4259,20.8067 -17.4079,30.6861 -26.7284,37.8194 -6.885,5.2694 -15.6124,10.0336 -23.5645,12.8635 -3.1625,1.1255 -5.75,2.3924 -5.75,2.8155 0,0.4231 2.3011,2.0217 5.1137,3.5524 5.3758,2.9259 13.2657,8.9773 20.9981,16.1051 4.0005,3.6877 5.3921,4.3372 10.5,4.9003 12.3703,1.3637 31.6999,3.5844 52.8882,6.0761 19.9768,2.3493 29.3539,3.3807 45.5,5.0046 5.2658,0.5297 29.6154,3.3783 46.5,5.4401 4.4,0.5373 10.3625,1.209 13.25,1.4927 12.2699,1.2055 16.1934,1.7004 24.1412,3.0451 15.6172,2.6423 9.3463,2.9568 -8.8912,0.4459 -3.575,-0.4922 -14.15,-1.596 -23.5,-2.4529 -9.35,-0.8569 -24.65,-2.4393 -34,-3.5164 -9.35,-1.0772 -34.1,-3.7775 -55,-6.0006 -20.9,-2.2232 -42.1448,-4.4839 -47.2106,-5.0237 -5.0658,-0.5399 -11.0711,-0.9816 -13.345,-0.9816 l -4.1344,0 2.484,4.25 c 1.3663,2.3375 3.9472,8.3 5.7354,13.25 2.9946,8.2892 3.2864,10.1847 3.6949,24 l 0.4434,15 -3.8338,6.191 c -6.4813,10.466 -19.7234,25.1705 -27.3339,30.3524 -1.925,1.3108 -3.95,2.8748 -4.5,3.4756 -0.55,0.6008 -4.2762,3.7171 -8.2804,6.925 -11.8575,9.4996 -20.3142,19.2266 -23.6022,27.1476 -5.0734,12.2222 -4.7167,21.5435 1.8903,49.4084 3.4365,14.493 5.9554,29.7534 6.9327,42 0.2852,3.575 1.2094,14.375 2.0536,24 1.383,15.767 1.3812,19.8767 -0.018,41.5 -0.8541,13.2 -2.4173,29.625 -3.4737,36.5 -1.0564,6.875 -2.1998,15.425 -2.5409,19 -0.3411,3.575 -1.031,8.1104 -1.5332,10.0788 -1.5085,5.9124 -3.8901,20.2098 -3.9098,23.4712 -0.01,1.6775 -0.4127,3.4775 -0.8946,4 -0.482,0.5225 -3.0301,6.8 -5.6625,13.95 -2.882,7.8278 -6.6328,15.785 -9.4274,20 -2.5526,3.85 -5.8676,9.1274 -7.3665,11.7276 -7.7103,13.3744 -23.7829,33.4678 -34.1656,42.7124 -2.1991,1.958 -7.8559,7.16 -12.5709,11.56 -10.8939,10.1663 -17.5047,15.8215 -21.9309,18.7608 -4.7884,3.1798 -14.0873,7.7392 -15.7842,7.7392 -0.7654,0 -6.5215,2.0289 -12.7913,4.5087 -6.2699,2.4798 -13.9928,5.1266 -17.1621,5.8817 -3.1693,0.7551 -8.1357,2.5803 -11.0364,4.0559 -2.9007,1.4757 -8.9757,3.2944 -13.5,4.0415 -8.2468,1.3618 -11.6386,2.0974 -23.726,5.1456 -4.013,1.012 -11.8567,1.7593 -20.5,1.9532 l -14,0.3139 7,-1.3445 z m -78.0344,-575.806 c 0.2771,-1.2375 4.5788,-23.175 9.5594,-48.75 4.9806,-25.575 9.4801,-48.525 9.9988,-51 3.3522,-15.996 4.0865,-20.2231 3.5975,-20.712 -0.303,-0.303 -0.158,-1.2851 0.3222,-2.1823 0.4802,-0.8973 1.7884,-6.5756 2.9073,-12.6186 1.1188,-6.0429 3.4432,-18.1871 5.1653,-26.9871 1.7221,-8.8 3.731,-19.375 4.4642,-23.5 0.7333,-4.125 2.0667,-10.875 2.9632,-15 0.8965,-4.125 1.8413,-8.625 2.0995,-10 0.2583,-1.375 2.2935,-12.175 4.5228,-24 2.2293,-11.825 4.5088,-23.975 5.0655,-27 0.5567,-3.025 4.1224,-21.22007 7.9236,-40.4335 3.8013,-19.21342 6.8065,-35.0163 6.6783,-35.1175 -0.3329,-0.26274 -21.186,-3.24149 -27.7332,-3.96155 -9.7374,-1.07091 -13.3556,-1.5218 -20.8353,-2.59636 -4.0344,-0.5796 -7.5558,-0.83334 -7.8253,-0.56385 -0.2695,0.26948 -1.9186,0.0766 -3.6647,-0.42864 -1.7461,-0.50524 -6.3247,-1.16462 -10.1747,-1.46529 -3.85,-0.30067 -13.075,-1.22505 -20.5,-2.05419 -7.425,-0.82914 -17.77502,-1.92483 -23.00002,-2.43487 -5.225,-0.51005 -10.85,-1.1295 -12.5,-1.37655 -7.221,-1.08122 -21.17063,-2.67724 -36,-4.11888 -8.8,-0.85549 -20.5,-2.1725 -26,-2.92668 -5.5,-0.75419 -13.375,-1.64634 -17.5,-1.98257 -6.85731,-0.55894 -18.90013,-1.95027 -52.79191,-6.09915 -6.76056,-0.8276 -15.76056,-1.73828 -20,-2.02374 -4.23945,-0.28546 -9.50809,-0.9199 -11.70809,-1.40985 -2.2,-0.48996 -6.925,-1.14337 -10.5,-1.45204 -4.50338,-0.38882 -6.91921,-1.09777 -7.86475,-2.308 -0.97987,-1.25417 -1.4969,-1.39427 -1.83334,-0.49679 -0.65792,1.75509 -4.46615,1.58897 -28.05541,-1.22379 -11.41058,-1.36059 -25.0215,-2.96721 -30.2465,-3.57026 -5.225,-0.60306 -11.06518,-1.30372 -12.97819,-1.55703 -7.11394,-0.94199 -37.74733,-4.39084 -44.02181,-4.95619 -3.575,-0.32212 -7.625,-0.77756 -9,-1.0121 -1.375,-0.23454 -5.5375,-0.717 -9.25,-1.07213 -7.96491,-0.76192 -7.72824,-1.38094 -4.26242,11.14853 2.72133,9.83802 3.08893,12.46948 1.52321,10.90376 -0.54407,-0.54407 -2.38659,-5.69657 -4.09451,-11.45 -1.70791,-5.75343 -3.40027,-10.76417 -3.76079,-11.13496 -0.88341,-0.90858 -26.89738,-3.86211 -28.52281,-3.23837 -1.77625,0.68161 -5.4383,17.21775 -8.7282,39.41254 -0.52991,3.575 -2.97521,16.58526 -5.43398,28.91169 -5.21865,26.16234 -5.35153,27.8687 -2.2205,28.51375 1.2375,0.25495 4.5,0.92339 7.25,1.48542 4.72095,0.96485 4.56938,0.99672 -2.71567,0.57116 l -7.71567,-0.45071 -0.95035,3.73435 c -1.44902,5.6939 -3.63172,17.07687 -9.15312,47.73434 -7.47892,41.5266 -10.77053,58.2678 -11.85485,60.2938 -1.5918,2.9743 0.30633,4.4324 7.541,5.7926 l 6.84866,1.2877 -7.33309,-0.187 -7.33309,-0.1871 -1.27112,4 c -0.69912,2.2 -1.82759,7.556 -2.50771,11.9022 -0.68012,4.3463 -1.60513,8.8463 -2.05556,10 -0.45044,1.1538 -1.34024,5.4728 -1.97735,9.5978 -0.6371,4.125 -1.76768,10.425 -2.51238,14 -0.74471,3.575 -2.48325,12.575 -3.86343,20 -1.38018,7.425 -3.01642,15.975 -3.63608,19 -0.61967,3.025 -1.7922,9.5221 -2.60563,14.438 -0.81342,4.9158 -1.88968,10.7658 -2.39167,13 -1.26953,5.65 -1.4801,5.5134 10.98711,7.1256 3.025,0.3912 6.05903,1.1516 6.74228,1.6899 1.13622,0.895 14.9081,2.692 43.75772,5.7096 6.05,0.6328 18.425,2.0144 27.5,3.0701 74.8224,8.7045 107.35818,12.0086 108.36231,11.0045 0.59729,-0.5973 1.12361,-3.0886 1.16962,-5.5363 0.10474,-5.5727 0.9262,-6.4946 2.29315,-2.5733 1.5723,4.5103 6.28418,9.9399 9.15127,10.5452 1.38801,0.2931 8.59865,1.2115 16.02365,2.0409 24.20567,2.7038 49.3831,5.4677 55,6.0376 3.025,0.3069 8.875,0.975 13,1.4846 4.125,0.5097 16.5,1.8669 27.5,3.0161 11,1.1491 28.1,2.9457 38,3.9924 9.9,1.0467 22.5,2.3679 28,2.936 5.5,0.5681 15.4,1.6878 22,2.4882 6.6,0.8004 16.725,1.9439 22.5,2.5412 5.775,0.5972 13.42502,1.5027 17.00002,2.0121 3.575,0.5094 9.875,1.1833 14,1.4976 4.125,0.3142 9.525,0.9445 12,1.4005 6.8224,1.2571 6.9258,1.2409 7.4656,-1.1705 z m -289.81063,-50.5787 c -1.08375,-1.1976 -1.65499,-3.5858 -1.65499,-6.9193 0,-2.7997 -0.70601,-7.8463 -1.56891,-11.2145 -1.71795,-6.7059 -1.33752,-10.4438 0.54434,-5.3483 0.77591,2.1009 1.66355,3.0028 2.6012,2.643 1.10035,-0.4222 1.42337,0.4684 1.42337,3.9243 0,6.2655 1.78667,14.9896 3.26171,15.9264 0.68106,0.4326 3.57423,0.7934 6.42927,0.8018 2.85504,0.01 5.4691,0.4653 5.80902,1.0153 0.39211,0.6344 -2.27129,1 -7.286,1 -6.3873,0 -8.2216,-0.3509 -9.55901,-1.8287 z m 22.39942,-1.9213 c -0.69665,-1.5125 -1.50638,-5.3375 -1.79941,-8.5 -0.29303,-3.1625 -0.65847,-5.75 -0.8121,-5.75 -1.46167,0 -3.4429,1.4879 -3.4429,2.5856 0,1.1 -0.49482,1.1461 -2.5,0.2324 -1.375,-0.6264 -2.5,-1.501 -2.5,-1.9433 0,-2.2731 14.83945,-6.2537 18.34361,-4.9207 1.90646,0.7253 1.72588,0.9035 -1.55798,1.5378 -5.71225,1.1033 -6.29945,2.4307 -4.40741,9.9629 0.89198,3.551 1.62178,7.1513 1.62178,8.0008 0,2.441 -1.56013,1.8025 -2.94559,-1.2055 z m -38.39086,-59.4777 c -2.26088,-5.9434 -3.24369,-11.2489 -1.93382,-10.4393 1.19732,0.74 4.83304,13.4376 4.06695,14.2037 -0.27936,0.2793 -1.23927,-1.4146 -2.13313,-3.7644 z M 1036.1108,1082 c 0,-1.1448 1.4255,-1.1448 5,0 2.2311,0.7145 2.0967,0.8114 -1.25,0.9003 -2.0625,0.055 -3.75,-0.3503 -3.75,-0.9003 z m -36,-4 c 0,-1.1307 3.0563,-1.1307 7.5,0 2.5643,0.6525 2.2376,0.7806 -2.25,0.8817 -2.9122,0.066 -5.25,-0.327 -5.25,-0.8817 z m -18.00002,-1.8613 c 0,-0.4738 1.125,-0.6463 2.5,-0.3835 1.375,0.2629 2.5,0.6505 2.5,0.8614 0,0.2109 -1.125,0.3834 -2.5,0.3834 -1.375,0 -2.5,-0.3876 -2.5,-0.8613 z m -36.5,-4.1387 c -0.72971,-1.1807 4.81328,-1.1807 8.5,0 1.97463,0.6324 1.40913,0.8216 -2.69098,0.9003 -2.85504,0.055 -5.4691,-0.3503 -5.80902,-0.9003 z m -33.5,-4 c 0,-1.1343 4.04238,-1.1343 8.5,0 2.46904,0.6283 1.98233,0.7843 -2.75,0.8817 -3.24554,0.067 -5.75,-0.3173 -5.75,-0.8817 z m -26,-2.441 c 0,-1.0555 1.91911,-1.4989 2.48992,-0.5753 0.34546,0.559 -0.0734,1.0163 -0.9309,1.0163 -0.85746,0 -1.55902,-0.1984 -1.55902,-0.441 z m -39.75,-5.2483 c 0.9625,-0.2516 2.5375,-0.2516 3.5,0 0.9625,0.2515 0.175,0.4573 -1.75,0.4573 -1.925,0 -2.7125,-0.2058 -1.75,-0.4573 z m -120.25,-1.8107 c 0,-0.825 0.17686,-1.5 0.39301,-1.5 0.21616,0 0.65203,0.675 0.96862,1.5 0.31658,0.825 0.13972,1.5 -0.39301,1.5 -0.53274,0 -0.96862,-0.675 -0.96862,-1.5 z m 84.5,-1.2268 c -1.65,-0.2349 -3.45,-0.902 -4,-1.4824 -0.69655,-0.735 0.0241,-0.8634 2.375,-0.423 1.85625,0.3477 4.44375,0.6322 5.75,0.6322 1.30625,0 2.375,0.45 2.375,1 0,1.009 -1.02859,1.0522 -6.5,0.2732 z m -87.8849,-8.2111 c -1.80172,-5.5085 -2.1298,-8.9999 -0.70589,-7.5121 0.71684,0.749 4.09079,10.7547 4.09079,12.1315 0,0.1752 -0.3982,0.3185 -0.8849,0.3185 -0.48669,0 -1.61169,-2.2221 -2.5,-4.9379 z m 54.61592,4.2131 c -1.79795,-0.2226 -3.04909,-0.7606 -2.78033,-1.1954 0.26877,-0.4349 2.80919,-0.4239 5.64537,0.024 9.08831,1.4366 6.80811,2.3685 -2.86504,1.1709 z m -29.96019,-3.8794 c 0.33229,-0.3323 1.1948,-0.3678 1.91667,-0.079 0.79773,0.3192 0.56078,0.5562 -0.60417,0.6042 -1.05416,0.043 -1.64479,-0.193 -1.3125,-0.5253 z M 737.61078,1048 c -0.72033,-1.1655 2.86064,-1.1655 6.5,0 2.13521,0.6838 1.88847,0.8152 -1.69098,0.9003 -2.30504,0.055 -4.4691,-0.3503 -4.80902,-0.9003 z m -29.75,-2.735 c -2.6125,-0.206 -4.75,-0.7913 -4.75,-1.3007 0,-1.1065 9.07483,-0.095 10.45,1.1653 0.6,0.5497 0.6,0.804 0,0.6902 -0.5225,-0.099 -3.0875,-0.3488 -5.7,-0.5548 z m -25.75,-3.265 c -3.47813,-0.7321 -3.47188,-0.7371 1,-0.7981 2.475,-0.034 5.4,0.3254 6.5,0.7981 1.69035,0.7264 1.53552,0.8499 -1,0.7981 -1.65,-0.034 -4.575,-0.3929 -6.5,-0.7981 z m -26.20797,-2.9249 c -2.58938,-0.3617 -4.97411,-0.9238 -5.2994,-1.2491 -0.87542,-0.8755 8.75696,0.2908 10.50737,1.2722 1.64856,0.9243 1.57129,0.9239 -5.20797,-0.023 z M 614.61078,1034 c -1.81477,-0.7798 -1.76846,-0.855 0.5,-0.8114 1.375,0.026 3.85,0.3915 5.5,0.8114 l 3,0.7634 -3.5,0.048 c -1.925,0.026 -4.4,-0.3387 -5.5,-0.8114 z m 94.2009,-32.6453 c -1.33263,-4.32007 -2.19823,-8.24999 -1.92355,-8.73312 0.72658,-1.27798 1.71366,1.00547 3.73604,8.64282 2.51737,9.5065 1.11374,9.5765 -1.81249,0.09 z M 737.11078,990 c -2.42972,-5.18754 -2.95061,-5.64939 -4.55836,-4.04164 -0.61114,0.61114 -1.49878,0.61114 -2.45,0 -1.32116,-0.84883 -1.32021,-1.07079 0.008,-1.9421 0.825,-0.54106 1.87592,-1.11637 2.33537,-1.27846 0.45945,-0.16209 -0.31783,-2.90228 -1.72728,-6.08931 -1.43633,-3.2478 -3.01215,-5.5168 -3.58537,-5.16253 -0.5625,0.34764 -1.02961,3.86802 -1.03803,7.82306 -0.008,3.95504 -0.45153,7.86598 -0.98469,8.69098 -0.65396,1.01194 -0.97436,-2.64854 -0.98469,-11.25 -0.0128,-10.62574 0.23251,-12.75 1.47215,-12.75 0.8181,0 2.52578,1.6875 3.79484,3.75 2.8859,4.6902 10.18255,20.82024 11.08293,24.5 1.08681,4.44174 -0.83182,3.15893 -3.36523,-2.25 z m 8.8097,-0.0866 c -2.88818,-1.61631 -5.15099,-9.31767 -4.52365,-15.39601 0.69015,-6.68692 1.16492,-7.51737 4.29772,-7.51737 3.1632,0 4.79834,3.94008 4.02821,9.70649 -0.64391,4.82134 0.18991,5.71557 4.45576,4.77863 2.95545,-0.64912 3.01022,-0.77163 2.60414,-5.8241 -0.22815,-2.83856 -0.19951,-5.72352 0.0636,-6.41102 0.83288,-2.17596 3.08796,-1.35741 4.95148,1.79728 1.36272,2.30689 2.3176,2.9174 3.93007,2.51269 1.9244,-0.48299 2.12803,-0.1256 2.10971,3.70272 -0.0112,2.33052 0.30098,6.26231 0.69364,8.73731 0.6653,4.19352 0.60719,4.3678 -0.85325,2.55887 -1.14582,-1.41924 -1.57684,-1.55367 -1.60313,-0.5 -0.0218,0.87498 -0.94885,0.32525 -2.35971,-1.39935 -2.22342,-2.71784 -2.34735,-2.75022 -2.87042,-0.75 -0.70087,2.68015 -2.76166,2.70036 -3.45895,0.0339 -0.37496,-1.43385 -1.02789,-1.8491 -2.15638,-1.3714 -0.89022,0.37683 -2.63108,0.90474 -3.86858,1.17313 -1.33283,0.28907 -2.25,1.23167 -2.25,2.31239 0,2.35687 -1.12529,3.01146 -3.1903,1.85582 z m 15.79447,-11.64255 c -0.33229,-0.33229 -0.56864,0.25834 -0.52522,1.3125 0.048,1.16495 0.28494,1.4019 0.60416,0.60417 0.28887,-0.72187 0.25335,-1.58438 -0.0789,-1.91667 z M 1074.1108,966 c 0,-1.17371 0.7686,-1.17371 3.5,0 1.7723,0.76156 1.6868,0.86743 -0.75,0.92971 -1.5125,0.0387 -2.75,-0.37971 -2.75,-0.92971 z m -26.5,-3 c -0.7458,-1.20667 3.1919,-1.20667 6,0 1.6119,0.69264 1.2837,0.87307 -1.691,0.92971 -2.03,0.0387 -3.9691,-0.37971 -4.309,-0.92971 z m -28,-3 c -0.7203,-1.16553 2.8606,-1.16553 6.5,0 2.1352,0.68381 1.8885,0.81518 -1.691,0.90032 -2.305,0.0548 -4.4691,-0.35032 -4.809,-0.90032 z m -20.50002,-1.73133 C 995.15208,957.80351 992.49728,956 995.77118,956 c 4.37292,0 11.33962,1.31225 11.33962,2.13592 0,0.86818 -1.5257,0.8935 -8.00002,0.13275 z m -304.05979,-3.87998 c -0.61367,-1.58878 -1.29935,-4.46369 -1.52374,-6.38869 -0.29707,-2.5485 0.12345,-1.88038 1.54682,2.45762 2.00238,6.10257 1.9846,9.12899 -0.0231,3.93107 z m 267.85179,-0.31361 c -2.58935,-0.36173 -5.06435,-1.03941 -5.49997,-1.50596 -1.13638,-1.21709 12.86097,0.18392 14.08707,1.40998 1.142,1.14201 -0.9332,1.1652 -8.5871,0.096 z m -35.792,-5.0869 c 0,-0.62582 1.62133,-0.76348 4.25,-0.36084 5.82424,0.89211 5.97011,1.37266 0.41667,1.37266 -2.56667,0 -4.66667,-0.45532 -4.66667,-1.01182 z m -32.25,-2.70443 c -4.84557,-0.73405 -2.95731,-2.27238 2,-1.62937 6.08645,0.78947 9.11259,2.3313 4.25,2.16538 -1.925,-0.0657 -4.7375,-0.30689 -6.25,-0.53601 z M 861.61078,942 c -2.69272,-0.68518 -2.51951,-0.77549 1.69098,-0.88169 2.58004,-0.0651 4.9691,0.33169 5.30902,0.88169 0.70381,1.13879 -2.52461,1.13879 -7,0 z m -34.5,-4 c -2.44072,-0.78166 -2.42887,-0.80164 0.5,-0.84269 1.65,-0.0231 4.8,0.33027 7,0.78532 l 4,0.82737 -4.5,0.0153 c -2.475,0.008 -5.625,-0.34497 -7,-0.78532 z m -30.76166,-3.68708 c 0.95609,-0.25029 2.75609,-0.25937 4,-0.0202 1.24391,0.23919 0.46166,0.44398 -1.73834,0.45508 -2.2,0.0111 -3.21775,-0.18461 -2.26166,-0.4349 z m -32.48834,-3.9752 c 0.6875,-0.27741 1.8125,-0.27741 2.5,0 0.6875,0.27741 0.125,0.50439 -1.25,0.50439 -1.375,0 -1.9375,-0.22698 -1.25,-0.50439 z m -31.10687,-3.10612 c -0.26119,-0.42263 1.28725,-0.60036 3.44099,-0.39497 2.15373,0.20539 3.91588,0.55117 3.91588,0.76841 0,0.74484 -6.88162,0.39553 -7.35687,-0.37344 z m -31.40479,-3.91868 c 0.95609,-0.25029 2.75609,-0.25937 4,-0.0202 1.24391,0.23919 0.46166,0.44398 -1.73834,0.45508 -2.2,0.0111 -3.21775,-0.18461 -2.26166,-0.4349 z m -33.50737,-3.96886 c 0.67703,-0.27392 2.02703,-0.29059 3,-0.0371 0.97297,0.25354 0.41903,0.47766 -1.23097,0.49804 -1.65,0.0204 -2.44606,-0.18706 -1.76903,-0.46099 z m -24.73097,-2.0819 c -2.475,-0.21363 -4.87663,-0.75915 -5.33696,-1.21226 -0.90973,-0.89545 6.70907,-0.30061 12.33696,0.96322 3.31905,0.74534 3.3449,0.78214 0.5,0.71172 -1.65,-0.0408 -5.025,-0.24905 -7.5,-0.46268 z m 40.09332,-2.51671 c -0.52945,-1.39256 -1.20785,-4.26747 -1.50755,-6.38869 -0.44098,-3.12106 -0.16581,-2.72963 1.44251,2.05205 1.93419,5.75047 1.98887,9.3967 0.065,4.33664 z m -13.01254,-42.11698 c -4.15643,-12.77583 -4.83664,-15.80738 -3.15889,-14.07847 1.25445,1.2927 8.44356,25.41788 7.77388,26.08756 -0.29382,0.29382 -2.37057,-5.11027 -4.61499,-12.00909 z M 557.41377,1137.25 c 1.53721,-8.1125 3.03467,-16.1 3.32769,-17.75 0.29302,-1.65 1.34909,-7.275 2.34681,-12.5 0.99773,-5.225 2.79827,-15.125 4.00122,-22 1.20294,-6.875 3.29643,-17.9 4.65219,-24.5 2.57214,-12.5214 4.87817,-24.4943 6.35596,-33 0.47778,-2.75 2.72433,-14 4.99233,-25 2.26799,-11 4.51828,-22.475 5.00063,-25.5 2.73272,-17.13797 11.80864,-65.53002 15.47286,-82.5 4.51406,-20.90579 13.78933,-72.71396 13.9544,-77.94397 0.10377,-3.28777 -1.11399,-3.75612 -12.90708,-4.9641 -3.3,-0.33802 -8.475,-1.092 -11.5,-1.6755 -3.025,-0.5835 -8.425,-1.24218 -12,-1.46375 -3.575,-0.22156 -12.125,-1.09458 -19,-1.94005 -16.11753,-1.98209 -28.22331,-3.35471 -34.5,-3.91181 -2.75,-0.24408 -7.7,-0.89376 -11,-1.44373 -3.3,-0.54997 -8.7,-1.25661 -12,-1.5703 -20.61263,-1.9594 -61.59567,-6.48615 -64.20935,-7.09219 -1.21514,-0.28177 -8.64014,-1.17016 -16.5,-1.97422 -7.85986,-0.80406 -15.64065,-1.85004 -17.29065,-2.32441 -1.65,-0.47436 -5.475,-0.95523 -8.5,-1.06858 -3.025,-0.11336 -9.325,-0.65167 -14,-1.19624 -4.675,-0.54457 -14.8,-1.64576 -22.5,-2.44709 -7.7,-0.80132 -15.35,-1.70746 -17,-2.01364 -1.65,-0.30618 -7.5,-0.97809 -13,-1.49314 -5.5,-0.51505 -11.125,-1.12821 -12.5,-1.36258 -1.375,-0.23437 -6.775,-0.92597 -12,-1.53688 -5.225,-0.61092 -13.325,-1.57176 -18,-2.13521 -12.13808,-1.46293 -24.69779,-2.84409 -30.5,-3.35401 -2.75,-0.24167 -12.425,-1.39444 -21.5,-2.56171 -24.07249,-3.0963 -41.22915,-4.18916 -42.6283,-2.71538 -0.62057,0.65367 -1.84653,4.78849 -2.72435,9.18849 -1.96477,9.84828 -11.45784,56.99221 -16.10908,80 -1.89019,9.35 -5.23713,25.55 -7.43765,36 -8.94505,42.47909 -14.47578,69.90482 -17.74625,88 -0.79524,4.4 -2.1003,10.0854 -2.90013,12.63421 -0.79983,2.54882 -1.45424,5.74944 -1.45424,7.11249 0,1.363 -1.15628,8.0526 -2.56951,14.8658 -7.80885,37.6463 -17.43049,86.4453 -17.43049,88.404 0,1.9866 0.74885,2.3866 6.25,3.3384 3.4375,0.5947 8.725,1.3457 11.75,1.6687 3.025,0.323 7.75,0.9877 10.5,1.477 2.75,0.4893 8.15,1.1492 12,1.4663 3.85,0.3171 8.575,0.7758 10.5,1.0192 6.22704,0.7875 12.21323,1.4356 27.5,2.9773 8.25,0.832 18.825,1.9701 23.5,2.5291 4.675,0.559 11.2,1.2444 14.5,1.523 3.3,0.2786 8.7,0.9406 12,1.4711 3.3,0.5306 12.975,1.6996 21.5,2.598 8.525,0.8983 18.65,1.9654 22.5,2.3712 3.85,0.4058 7.09223,0.6771 7.20495,0.6027 0.11272,-0.074 -0.43003,-1.9178 -1.20611,-4.0968 -0.77608,-2.1789 -1.43081,-4.7867 -1.45495,-5.795 -0.0787,-3.2876 2.41575,-1.1398 3.95611,3.4063 2.18611,6.4519 3.98559,7.4846 15.43919,8.8599 5.53345,0.6645 14.63135,1.8533 20.21758,2.6418 5.58622,0.7886 15.93622,1.8925 23,2.4532 7.06377,0.5607 17.79323,1.6567 23.84323,2.4355 6.05,0.7788 14.6,1.6897 19,2.0242 4.4,0.3346 11.375,1.0324 15.5,1.5508 4.125,0.5184 13.575,1.3893 21,1.9353 7.425,0.546 19.575,1.7128 27,2.5928 35.84214,4.2481 73.00349,8.2439 77.50404,8.3337 l 5.00404,0.1 2.79491,-14.75 z M 298.4275,1097.8597 c -1.49261,-1.8281 -3.788,-9.7217 -3.04347,-10.4663 1.15886,-1.1588 2.4689,0.614 3.69825,5.0048 1.41721,5.0618 1.11015,7.623 -0.65478,5.4615 z M 289.1938,1069.5 c 0.12423,-0.55 -0.53467,-2.7114 -1.46421,-4.8032 -2.28884,-5.1505 -3.13408,-9.6968 -1.80283,-9.6968 1.48375,0 1.92769,0.9183 3.66091,7.5726 1.07712,4.1353 1.2079,6.1364 0.44959,6.8795 -0.6626,0.6493 -0.98342,0.6675 -0.84346,0.048 z m -11.85259,-38.4304 c -1.5079,-3.608 -1.9351,-5.7649 -1.27295,-6.4271 1.33054,-1.3305 4.2583,5.6755 3.849,9.2106 -0.2659,2.2964 -0.60698,1.9279 -2.57605,-2.7835 z m -9.52905,-31.80078 c -0.71122,-1.09985 -4.70138,-12.06987 -4.70138,-12.92537 0,-0.1889 0.63883,-0.34345 1.41963,-0.34345 1.6738,0 4.87628,8.89548 4.40175,12.22665 -0.22044,1.54746 -0.57806,1.88025 -1.12,1.04217 z m 9.30399,-37.7563 c -2.12636,-4.96059 -5.00537,-18.83576 -5.00537,-24.12299 0,-4.29103 2.13038,-4.48477 5.103,-0.46408 1.85457,2.50844 2.43771,2.75789 4.09085,1.75 3.22963,-1.96906 4.80615,1.44014 4.80615,10.39323 0,9.08186 1.14017,10.76617 6.26989,9.26221 l 3.23011,-0.94701 -0.29749,-7.19194 c -0.34331,-8.29953 1.19174,-9.58882 4.37623,-3.67559 1.30539,2.42397 2.36394,3.32069 3.40747,2.88654 4.91814,-2.04615 5.21089,-1.85126 2.9571,1.96862 -1.7342,2.93926 -1.95092,4.16791 -1.14362,6.48372 1.13982,3.26968 0.21908,5.44896 -2.10046,4.97156 -0.87329,-0.17973 -2.28981,0.57321 -3.14781,1.67321 -1.53991,1.97424 -1.58981,1.96409 -3.87389,-0.78839 -2.58685,-3.11733 -4.92635,-2.91598 -7.94003,0.68337 -1.74203,2.08056 -1.77989,2.08233 -3.25868,0.15203 -0.82289,-1.07415 -2.03267,-3.43665 -2.68838,-5.25 -1.78684,-4.94141 -3.07278,-3.98528 -2.29044,1.70299 0.37822,2.75 0.40446,5 0.0583,5 -0.34616,0 -1.49498,-2.01937 -2.55293,-4.48748 z m -0.44268,-19.94302 c -0.73196,-4.88108 -2.56269,-7.22263 -2.56269,-3.27774 0,2.88535 2.02111,9.02047 2.73609,8.30548 0.27767,-0.27767 0.19964,-2.54015 -0.1734,-5.02774 z m -22.2751,14.20467 c -0.84579,-1.08048 -3.28759,-7.33681 -3.28759,-8.42339 0,-0.19293 0.62158,-0.35078 1.38129,-0.35078 0.80792,0 1.86434,1.91839 2.54502,4.62164 1.22797,4.8767 1.01451,6.26448 -0.63872,4.15253 z m -9.1536,-27.62684 c -2.4121,-6.61542 -2.70606,-9.50469 -0.90596,-8.90465 1.17125,0.39041 2.68075,4.51255 4.22178,11.52882 1.18637,5.40148 -1.02871,3.64845 -3.31582,-2.62417 z M 237.11028,901.75 c -2.8e-4,-0.1375 -0.89845,-2.6125 -1.99593,-5.5 -1.70666,-4.49026 -1.77536,-5.25 -0.47474,-5.25 1.58658,0 2.72807,2.25492 3.92322,7.75 0.45588,2.09603 0.32358,3.25 -0.37259,3.25 -0.59371,0 -1.07969,-0.1125 -1.07996,-0.25 z m -6.73196,-24 c -1.39018,-1.77799 -3.3765,-7.97437 -2.75538,-8.59549 0.98557,-0.98557 2.37479,1.35284 3.32419,5.59549 1.02082,4.56176 0.94889,4.9411 -0.56881,3 z m -10.85351,-33.34425 c -2.3652,-5.17085 -2.60623,-8.05396 -0.48815,-5.83908 1.02381,1.07059 4.20211,11.43333 3.50666,11.43333 -0.25281,0 -1.61114,-2.51741 -3.01851,-5.59425 z M 214.22062,826 c -0.0672,-0.825 -0.77729,-2.75597 -1.578,-4.29105 -1.96672,-3.77051 -5.92714,-18.64699 -5.16665,-19.40747 1.38476,-1.38476 8.13682,20.45442 7.29554,23.59703 -0.34932,1.30487 -0.45135,1.32367 -0.55089,0.10149 z m -12.23719,-39.75 c -1.4625,-3.73139 -4.87265,-15.93501 -4.87265,-17.43734 0,-2.69235 1.85858,1.02845 3.83991,7.68734 2.84175,9.55062 3.48914,12.5 2.74375,12.5 -0.34824,0 -1.11819,-1.2375 -1.71101,-2.75 z m 35.12735,-10.64301 c 0,-0.21616 0.69837,-0.661 1.55194,-0.98855 0.88992,-0.34149 1.29132,-0.17385 0.94098,0.39301 -0.58726,0.95021 -2.49292,1.40545 -2.49292,0.59554 z M 1552.1865,914.39558 c 1.3334,-1.43243 5.7993,-4.28685 9.9243,-6.34315 19.1078,-9.5252 29.9384,-19.28799 46.1813,-41.62853 14.2248,-19.56476 19.6511,-33.57215 20.5481,-53.04261 0.8451,-18.34487 -3.6135,-49.43182 -8.496,-59.23629 -2.4796,-4.97923 -2.5467,-5.44276 -0.9564,-6.60562 1.5448,-1.12959 0.8373,-2.45021 -7.31,-13.645 -4.9612,-6.81691 -13.0941,-17.34438 -18.0731,-23.39438 -4.979,-6.05 -13.0939,-16.4 -18.033,-23 -4.9392,-6.6 -11.8079,-15.6 -15.2638,-20 -3.456,-4.4 -11.8242,-15.65 -18.5961,-25 -12.2785,-16.95302 -22.38,-30.52333 -29.7754,-40 -27.2596,-34.93119 -31.5072,-41.13297 -40.546,-59.20007 -2.9717,-5.93996 -6.293,-12.37493 -7.3805,-14.29993 -1.0876,-1.925 -4.3541,-9.35 -7.2589,-16.5 -2.9048,-7.15 -7.4176,-17.275 -10.0283,-22.5 -2.6108,-5.225 -5.0922,-10.625 -5.5142,-12 -0.422,-1.375 -3.7859,-9.025 -7.4753,-17 -3.6893,-7.975 -7.2952,-16.3 -8.0129,-18.5 -2.6209,-8.03328 -16.3621,-38.41166 -24.4261,-54 -9.437,-18.24223 -15.097,-27.48397 -16.8641,-27.53567 -0.6706,-0.0196 -5.7193,-0.46026 -11.2193,-0.9792 -5.5,-0.51893 -15.4,-1.20432 -22,-1.52308 -6.6,-0.31876 -12.9,-0.78261 -14,-1.03078 -4.5997,-1.03772 -21.2735,-1.60681 -21.8066,-0.74427 -0.826,1.33661 4.6397,16.39208 9.5484,26.30102 3.8159,7.70311 12.1478,19.96679 15.2927,22.50932 0.6821,0.55146 4.4015,5.27766 8.2653,10.50266 10.1892,13.77888 18.1872,21.52115 31.3185,30.31726 19.2514,12.89577 34.9705,27.4665 50.5005,46.81141 7.6533,9.53329 18.3812,25.50902 18.3812,27.37279 0,0.24413 1.0915,2.81867 2.4255,5.7212 5.8384,12.70324 8.9014,20.57136 11.5262,29.60799 1.5448,5.31814 3.8489,12.98724 5.1204,17.04244 2.2534,7.18725 2.2642,7.4078 0.4287,8.75 -1.0357,0.7573 -2.2594,1.37691 -2.7194,1.37691 -0.46,0 -2.6407,-3.88767 -4.846,-8.63926 -5.1034,-10.99564 -14.1359,-26.3767 -19.3733,-32.98989 -2.2341,-2.82103 -4.7371,-6.1716 -5.5621,-7.4457 -2.5138,-3.88221 -17.202,-19.18614 -26.9217,-28.05028 -8.6571,-7.89496 -13.1137,-11.24431 -24.4496,-18.37487 -2.6231,-1.65 -6.9177,-4.64266 -9.5435,-6.65036 -2.6258,-2.0077 -6.5317,-4.55839 -8.6797,-5.66819 -2.148,-1.10981 -8.8555,-5.69053 -14.9055,-10.17939 -6.05,-4.48885 -12.2998,-8.84444 -13.8885,-9.67908 -4.7244,-2.48212 -20.298,-16.07981 -25.3838,-22.16321 -2.6002,-3.11032 -6.6771,-7.50825 -9.0597,-9.77318 -2.3825,-2.26493 -5.3075,-5.71314 -6.5,-7.66269 -2.7634,-4.51815 -11.1995,-14.21169 -20.192,-23.20178 C 1270.1949,386.13185 1255.3178,375 1253.1696,375 c -0.4849,0 -6.5734,-3.825 -13.5299,-8.5 -6.9565,-4.675 -12.8873,-8.5 -13.1796,-8.5 -0.2923,0 -3.0975,-1.8 -6.2338,-4 -3.1363,-2.2 -5.9719,-4 -6.3012,-4 -0.8205,0 -3.1985,10.37155 -6.8783,30 -1.7013,9.075 -3.7277,19.2 -4.503,22.5 -1.466,6.23967 -36.0779,181.19598 -38.9729,197 -0.9067,4.95 -4.9546,25.65 -8.9953,46 -4.0407,20.35 -8.692,43.975 -10.3362,52.5 -6.7638,35.06867 -11.5601,59.84462 -16.1647,83.5 -15.2399,78.29238 -15.971,82.49525 -14.3532,82.50579 0.4891,0.003 3.5893,0.44941 6.8893,0.99161 3.3,0.5422 8.475,1.23497 11.5,1.53949 3.025,0.30452 12.7,1.41711 21.5,2.47242 14.182,1.70073 25.9189,3.01314 50,5.59098 3.85,0.41213 7.3705,0.65965 7.8234,0.55005 0.4529,-0.10961 5.8529,0.4437 12,1.22957 9.8091,1.25404 23.0289,2.82234 34.8958,4.13976 2.7615,0.30658 3.9767,-0.029 4.7196,-1.30339 0.9401,-1.61278 1.0022,-1.61075 1.0308,0.0337 0.043,2.50646 4.4951,2.25993 8.376,-0.46388 1.7349,-1.21763 3.3044,-2.56763 3.4877,-3 0.5612,-1.32345 2.1667,-0.87283 2.1667,0.60812 0,0.76684 1.3055,2.79184 2.9012,4.5 2.206,2.36157 3.7635,3.10576 6.5,3.10576 2.7549,0 3.6024,-0.41035 3.6141,-1.75 0.013,-1.49555 0.1563,-1.5319 0.9847,-0.25 0.5332,0.825 0.9763,1.1074 0.9847,0.62756 0.01,-0.47985 0.735,-0.27513 1.6147,0.45492 0.8796,0.73006 2.5671,1.37548 3.75,1.43428 1.1828,0.0588 3.9506,0.59027 6.1506,1.18107 2.2,0.59079 8.725,1.60169 14.5,2.24646 5.775,0.64476 15.9,1.82977 22.5,2.63336 13.6665,1.66397 70.7039,8.10618 83.5,9.43107 16.7674,1.73609 49.5143,6.27181 60.5,8.37976 13.3131,2.55454 32.1971,5.62319 41.4937,6.74272 4.6715,0.56257 8.684,1.21319 8.9167,1.44582 0.2326,0.23264 3.4195,0.42298 7.082,0.42298 5.8869,0 6.9401,-0.30198 9.0833,-2.60442 z M 1270.1108,877 c 0,-0.55 0.45,-1 1,-1 0.55,0 1,0.45 1,1 0,0.55 -0.45,1 -1,1 -0.55,0 -1,-0.45 -1,-1 z m 166.9563,-2.91667 c 1.6527,-3.08462 5.9718,-7.08333 7.6509,-7.08333 1.5863,0 1.5895,0.12512 0.048,1.82874 -1.7974,1.98614 -2.2769,4.67367 -0.655,3.67126 0.55,-0.33992 1,-0.14148 1,0.44098 0,1.31838 -0.6236,1.33081 -2.9986,0.0598 -1.4689,-0.78611 -1.9912,-0.60837 -2.4487,0.83334 -0.3199,1.00792 -1.2259,1.83258 -2.0132,1.83258 -0.9964,0 -1.1737,-0.48121 -0.5832,-1.58334 z m -2.9563,-3.52431 c 0,-1.05548 1.9191,-1.49891 2.4899,-0.57533 0.3455,0.55897 -0.073,1.01631 -0.9309,1.01631 -0.8574,0 -1.559,-0.19844 -1.559,-0.44098 z m 15.5966,-11.40279 c -0.3461,-0.55992 -0.1419,-1.31919 0.4536,-1.68727 1.5375,-0.95021 2.5295,0.35135 1.246,1.63484 -0.7182,0.71818 -1.2775,0.73543 -1.6996,0.0524 z M 1110.2877,858.5 c 3.8445,-21.00491 11.7309,-62.06181 22.282,-116 1.291,-6.6 5.148,-26.4 8.571,-44 9.3776,-48.21722 57.2255,-287.85263 62.4965,-313 5.4655,-26.07557 7.5991,-37.7078 7.0222,-38.28472 -0.5802,-0.58021 -12.6813,-1.89627 -34.0486,-3.70298 -9.9,-0.8371 -19.8,-1.72427 -22,-1.97149 -2.2,-0.24723 -9.4,-0.92806 -16,-1.51296 -6.6,-0.5849 -19.425,-1.73984 -28.5,-2.56654 -15.6637,-1.4269 -64.767,-5.8376 -99.5,-8.93758 -36.99492,-3.30186 -83.31719,-7.51779 -87.50002,-7.96365 -2.475,-0.26381 -10.125,-0.94341 -17,-1.51022 -21.4316,-1.76694 -59.0441,-5.02598 -69.5,-6.02204 -5.5,-0.52394 -13.15,-1.21412 -17,-1.53372 -12.37729,-1.02748 -17.91011,-1.53145 -22,-2.0039 -2.2,-0.25414 -15.025,-1.38332 -28.5,-2.50928 -13.475,-1.12597 -27.875,-2.3698 -32,-2.76407 -4.125,-0.39427 -9.1875,-0.57719 -11.25,-0.40648 l -3.75,0.31036 0,19.78063 c 0,21.22919 -0.77781,29.52695 -4.60235,49.09864 -1.34346,6.875 -3.13118,19.925 -3.97272,29 -2.14522,23.13372 -3.85024,32.21703 -7.88377,42 -1.92751,4.675 -3.5128,9.07662 -3.52286,9.78138 -0.0101,0.70477 -0.71484,1.54868 -1.56617,1.87536 -2.06454,0.79224 -8.86984,10.95141 -10.27795,15.34326 -1.46743,4.57685 -6.62841,28.94037 -9.74431,46 -3.53891,19.37569 -17.72533,92.68373 -22.06104,114 -1.39837,6.875 -3.37398,17 -4.39024,22.5 -1.01625,5.5 -2.53029,13.6 -3.36452,18 -5.57032,29.37979 -9.85641,52.12343 -11.11868,59 -0.80766,4.4 -2.62398,14.075 -4.03625,21.5 -1.41228,7.425 -2.81074,16.425 -3.10769,20 -0.29695,3.575 -1.19739,7.97045 -2.00098,9.76767 -0.80359,1.79722 -1.85138,5.62222 -2.32843,8.5 -0.47704,2.87778 -1.34115,7.25733 -1.92025,9.73233 -0.57909,2.475 -1.0639,5.27016 -1.07734,6.21146 -0.0277,1.94191 4.22264,3.31021 12.97555,4.17715 3.025,0.29962 8.48832,0.84589 12.1407,1.21395 l 6.6407,0.66919 0.55638,-2.88588 c 0.30601,-1.58723 0.85542,-5.36087 1.22092,-8.38587 1.23523,-10.22336 2.55392,-8.99205 1.87417,1.75 -0.38716,6.1183 -0.27368,10.25 0.28153,10.25 0.87398,0 59.11776,6.45994 67.7856,7.51825 2.2,0.26861 9.85,1.17872 17,2.02248 7.15,0.84375 13.675,1.72321 14.5,1.95435 1.50862,0.42266 23.32551,2.95434 34.5,4.00344 6.25718,0.58745 21.11093,2.14181 28,2.93005 2.2,0.25172 6.475,0.70236 9.5,1.00142 3.025,0.29907 7.3,0.76806 9.5,1.04221 2.2,0.27415 8.5,0.98315 14,1.57557 5.5,0.59241 15.625,1.69979 22.5,2.46083 6.875,0.76104 18.8,2.07443 26.5,2.91864 7.7,0.8442 21.875,2.46264 31.5,3.59653 9.625,1.13389 25.375,2.92247 35,3.97462 30.34342,3.31697 68.45062,7.71332 112.50002,12.97888 8.25,0.98619 17.4626,1.73224 20.4724,1.6579 l 5.4723,-0.13517 0.7322,-4 z m -447.97763,-83 c -0.0281,-2.2 0.30928,-6.025 0.74967,-8.5 l 0.80071,-4.5 0.051,4 c 0.0281,2.2 -0.30928,6.025 -0.74967,8.5 l -0.80071,4.5 -0.051,-4 z m 2.87583,-31.25 c 0.0413,-1.5125 0.66248,-6.35 1.38037,-10.75 l 1.30526,-8 0.10862,7 c 0.126,8.11993 -0.75411,14.5 -2.00021,14.5 -0.47804,0 -0.83536,-1.2375 -0.79404,-2.75 z m 4.9236,-39.44098 C 670.10562,700.8295 672.53907,687 673.24319,687 c 0.76566,0 0.64169,2.30755 -0.73748,13.72669 -0.46675,3.86457 -2.39322,7.14662 -2.39621,4.08233 z M 676.44114,650.75 c 0.30095,-1.2375 0.85741,-5.175 1.23658,-8.75 1.07271,-10.11394 2.64479,-10.92641 1.93494,-1 -0.33431,4.675 -0.83932,9.2875 -1.12225,10.25 -0.76323,2.59649 -2.68809,2.12685 -2.04927,-0.5 z M 681.68425,607 c 1.05273,-9.62988 2.59028,-12.04592 1.92307,-3.02181 -0.30411,4.113 -1.02108,7.938 -1.59328,8.5 -0.7198,0.70697 -0.82141,-0.98098 -0.32979,-5.47819 z m 3.42653,-31.85845 c 0,-4.6234 2.04503,-17.35688 3.07419,-19.14155 1.15923,-2.01024 1.15097,0.0217 -0.0464,11.40442 -0.93919,8.92884 -3.02779,14.26594 -3.02779,7.73713 z m 293,-21.08253 c 0,-0.58246 0.45,-1.05902 1,-1.05902 0.55,0 1,0.19844 1,0.44098 0,0.24254 -0.45,0.7191 -1,1.05902 -0.55,0.33992 -1,0.14148 -1,-0.44098 z m -288,-23.22711 c 0,-4.601 2.26873,-15.01514 3.00983,-13.81601 0.72122,1.16697 0.52484,5.2902 -0.60651,12.7341 -0.55139,3.62793 -2.40332,4.46163 -2.40332,1.08191 z M 979.86598,518.5 c 0.2629,-1.375 0.6505,-2.5 0.8614,-2.5 0.2109,0 0.3834,1.125 0.3834,2.5 0,1.375 -0.3876,2.5 -0.8613,2.5 -0.4738,0 -0.6463,-1.125 -0.3835,-2.5 z m -284.2782,-34.16218 c 1.02853,-8.23214 2.37901,-11.09428 2.45961,-5.21282 0.0812,5.92409 -0.90982,10.875 -2.17683,10.875 -0.62034,0 -0.72597,-2.11505 -0.28278,-5.66218 z m 200.71616,-49.54466 c -0.90604,-0.90604 -0.46917,-1.47822 1.88418,-2.46773 1.68504,-0.7085 2.78042,-1.74657 2.43417,-2.30681 -0.87927,-1.42269 0.64648,-1.21463 2.73849,0.37343 2.33995,1.77627 2.20561,2.60795 -0.42126,2.60795 -1.19419,0 -2.91034,0.66886 -3.81365,1.48635 -1.26159,1.14171 -1.91589,1.21285 -2.82193,0.30681 z M 626.0137,721 c 0.0752,-5.225 0.54119,-12.425 1.03556,-16 0.49437,-3.575 1.17812,-8.975 1.51943,-12 1.61791,-14.33934 9.91498,-54.6453 14.40965,-70 1.69047,-5.775 4.93578,-15.225 7.21178,-21 8.33217,-21.14152 9.79331,-32.38293 5.39412,-41.5 -2.72337,-5.64404 -11.52236,-14.5 -14.40671,-14.5 -1.56627,0 -4.39698,2.19311 -8.71243,6.75 -17.55537,18.53754 -21.3367,30.20447 -23.27938,71.82631 -0.63727,13.65349 -0.51146,22.43181 0.47637,33.23858 0.73828,8.07681 1.61649,17.83511 1.95157,21.68511 1.28719,14.7896 5.44341,37.15168 9.75767,52.5 l 3.23254,11.5 0.63657,-6.5 c 0.35011,-3.575 0.69808,-10.775 0.77326,-16 z m 18.48676,-38.5 c 8.35949,-42.55625 14.75146,-77.57659 14.36889,-78.72429 -0.59192,-1.77575 -5.57759,12.20877 -8.81455,24.72429 -9.0072,34.82583 -15.08667,71.82189 -14.78947,90 l 0.1308,8 1.80209,-8 c 0.99115,-4.4 4.27716,-20.6 7.30224,-36 z m -483.2889,38.35154 c 1.86957,-0.63165 3.51652,-1.23645 3.6599,-1.34401 0.64178,-0.48145 -3.08231,-9.37693 -5.38776,-12.86935 -1.83855,-2.78514 -2.85293,-3.55817 -3.63838,-2.77272 -1.8342,1.8342 -0.75945,18.13454 1.19569,18.13454 0.42423,0 2.30097,-0.51681 4.17055,-1.14846 z M 1450.6542,540.25 c -1.2102,-4.94242 -7.769,-19.41649 -11.8518,-26.15513 -6.01,-9.9193 -20.1466,-27.56011 -29.5348,-36.85601 -10.301,-10.19961 -25.9611,-23.34811 -32.0763,-26.93181 C 1364.601,442.92878 1351.9319,430.8616 1342.223,417 c -2.8893,-4.125 -7.6814,-10.425 -10.6491,-14 -7.4327,-8.95347 -14.9197,-22.83351 -19.4215,-36.00493 -2.0811,-6.08879 -4.0036,-11.29044 -4.2724,-11.55922 -0.2688,-0.26878 -5.3893,-0.93202 -11.379,-1.47386 -31.5698,-2.8559 -56.1238,-4.89595 -66.3902,-5.516 l -11.5,-0.69454 2.3714,2.56793 c 1.3042,1.41237 3.8701,3.27914 5.7019,4.14838 1.8318,0.86924 4.5897,2.61614 6.1286,3.88199 4.654,3.82807 18.0777,12.53133 21.5946,14.00077 10.4494,4.36603 26.5283,18.82433 40.7576,36.64948 2.8538,3.575 7.2716,8.78615 9.8173,11.58034 2.5457,2.79419 6.5613,7.40118 8.9235,10.23776 5.3805,6.46098 19.2075,18.07287 26.8814,22.57489 3.203,1.87915 9.4237,6.20518 13.8237,9.61341 4.4,3.40823 10.25,7.32924 13,8.71334 2.75,1.38411 6.8,3.97197 9,5.7508 2.2,1.77884 5.4816,3.9971 7.2924,4.92948 17.0372,8.77222 41.7366,30.38567 59.8244,52.34998 3.7366,4.5375 6.9753,8.25 7.197,8.25 0.2216,0 0.1,-1.2375 -0.2704,-2.75 z m -752.72955,-96.5 c 1.71328,-3.03809 3.45899,-8.1926 4.14346,-12.23429 0.65055,-3.84136 1.71117,-7.31083 2.35694,-7.70994 0.80877,-0.49985 1.21676,-5.63897 1.31117,-16.51571 l 0.13704,-15.79006 -1.85249,7 c -1.01887,3.85 -3.44649,16 -5.39472,27 -1.94822,11 -3.71903,20.7875 -3.93513,21.75 -0.64126,2.85619 0.10436,2.04918 3.23373,-3.5 z m 8.84841,-57 c -0.27741,-0.6875 -0.50439,-0.125 -0.50439,1.25 0,1.375 0.22698,1.9375 0.50439,1.25 0.27741,-0.6875 0.27741,-1.8125 0,-2.5 z m 4.42459,-16.38858 c 0.63382,-3.929 0.9417,-7.75513 0.6842,-8.50252 -0.57517,-1.66935 -3.74125,11.77998 -4.38828,18.6411 l -0.47151,5 1.5116,-3.99748 c 0.83138,-2.19862 2.03018,-7.21211 2.66399,-11.1411 z M 1306.6367,348.25 c -0.3785,-0.9625 -1.5694,-5.35 -2.6466,-9.75 -1.0773,-4.4 -3.7079,-13.4 -5.8458,-20 -4.8852,-15.08064 -8.7084,-31.00018 -9.5463,-39.75 -0.4064,-4.24359 -1.0941,-6.75 -1.8521,-6.75 -1.1565,0 -11.2043,13.42153 -17.3338,23.15385 -4.0525,6.4346 -22.7908,24.08867 -29.9197,28.18852 -20.554,11.8207 -23.6082,14.06383 -23.1854,17.0282 0.3525,2.47062 -0.7011,2.3151 38.3038,5.65408 13.75,1.17706 28.825,2.49029 33.5,2.91829 4.675,0.42801 10.9106,0.84094 13.857,0.91763 4.7257,0.123 5.2759,-0.0668 4.6689,-1.61057 z m -128.9622,1131.8531 c -0.3797,-0.6145 0,-1.384 0.8546,-1.7101 1.1242,-0.4314 1.2911,-1.0674 0.6128,-2.3349 -0.5128,-0.9581 -1.042,-5.1785 -1.1761,-9.3787 -0.2201,-6.8955 -0.01,-7.8917 2.2006,-10.2641 3.0547,-3.2835 6.359,-4.6003 9.5402,-3.8019 3.9693,0.9962 4.8671,3.8734 2.6237,8.4078 l -1.9229,3.8865 2.7573,0.9613 c 3.5709,1.2448 4.6013,4.4821 2.4646,7.7431 -2.7151,4.1437 -16.3574,9.0757 -17.9548,6.491 z m 11.1863,-7.0921 c 4.3506,-2.6526 4.0966,-4.011 -0.75,-4.011 -3.7778,0 -4,0.1667 -4,3 0,3.5357 0.4516,3.6318 4.75,1.011 z m -1.2301,-13.6817 c 0.902,-1.3766 1.393,-2.7497 1.0912,-3.0515 -1.0502,-1.0502 -5.6111,2.7814 -5.6111,4.7139 0,2.5329 2.3333,1.6747 4.5199,-1.6624 z m -40.7445,5.1128 c -0.3069,-0.3069 -0.053,-1.8949 0.5635,-3.529 1.2187,-3.2288 3.9069,-3.5907 4.4822,-0.6036 0.5762,2.9921 -3.1414,6.0369 -5.0457,4.1326 z m 2.983,-30.6332 c 0.2619,-2.9199 0.9192,-5.7589 1.4607,-6.3089 0.6467,-0.6568 0.7431,0.8875 0.2809,4.5 -0.9197,7.1885 -2.3581,8.6825 -1.7416,1.8089 z m 2.4116,-20.3089 c 0.016,-1.1 0.3896,-3.125 0.83,-4.5 l 0.8006,-2.5 0.029,2.5 c 0.016,1.375 -0.3573,3.4 -0.83,4.5 -0.8594,2 -0.8594,2 -0.83,0 z m 84.33,-11.7078 c -3.738,-2.1438 -4.5935,-4.0753 -4.1154,-9.2922 0.2521,-2.75 1.6186,-7.6003 3.0368,-10.7785 1.4182,-3.1782 2.5786,-6.2157 2.5786,-6.75 0,-0.5343 -1.8,-0.9715 -4,-0.9715 l -4,0 0,6.4349 c 0,8.3971 -1.2736,11.8074 -4.2516,11.3844 -2.1854,-0.3104 -2.2412,-0.6096 -1.9917,-10.6863 0.2709,-10.9388 2.5866,-20.8797 6.2778,-26.9493 1.9548,-3.2144 6.2986,-5.7139 8.0494,-4.6318 1.9004,1.1745 0.7944,7.2586 -2.6115,14.3654 -1.9402,4.0485 -3.3496,7.5389 -3.132,7.7565 0.2176,0.2176 2.3104,-0.035 4.6508,-0.5605 7.8675,-1.7677 8.3903,0.1269 3.3619,12.1831 -3.8353,9.1958 -3.3085,16.1747 1.3086,17.3335 1.8751,0.4707 2.1809,0.8548 1.1833,1.487 -1.8257,1.1571 -3.9508,1.0484 -6.345,-0.3247 z M 1155.7945,1382.5 c 0.3135,-3.3 1.0088,-6.45 1.545,-7 0.6342,-0.6505 0.7256,0.9222 0.2615,4.5 -1.0047,7.7454 -2.5016,9.817 -1.8065,2.5 z m 51.7205,1.9744 c -0.3486,-1.3891 -0.1183,-6.0016 0.5119,-10.25 0.6302,-4.2484 1.2444,-9.5244 1.3648,-11.7244 0.1786,-3.2603 0.5889,-4 2.2191,-4 2.5676,0 3.1082,5.1427 1.5168,14.4309 -2.205,12.8702 -4.2328,17.0408 -5.6126,11.5435 z M 1159.7799,1350.5 c 0.3174,-3.85 0.7468,-7.1875 0.954,-7.4167 0.7439,-0.8224 0.1593,9.4701 -0.6768,11.9167 -0.5396,1.5787 -0.6417,-0.08 -0.2772,-4.5 z m 26.7662,1.3952 c -0.4514,-0.7302 0.1567,-1.9561 1.5164,-3.0572 3.154,-2.5539 4.2342,-2.2991 3.8647,0.912 -0.3419,2.9716 -3.9752,4.42 -5.3811,2.1452 z m 4.4657,-6.7068 c -0.8331,-2.4716 0.2845,-9.2932 1.4585,-8.9024 0.6273,0.2089 1.2758,1.0772 1.4412,1.9296 0.4015,2.0688 -2.3348,8.6486 -2.8997,6.9728 z m 377.0557,-20.8197 c -1.9089,-5.784 -0.7881,-18.1331 2.125,-23.4141 3.9141,-7.0955 10.9633,-8.0611 11.7344,-1.6074 0.4185,3.5032 -3.5952,10.4872 -7.0553,12.2765 -2.5405,1.3137 -2.7608,1.8978 -2.7608,7.3202 0,9.4534 -1.8809,11.977 -4.0433,5.4248 z m 1.7609,-8.105 c -0.2299,-1.52 -0.4241,-0.5137 -0.4316,2.2363 -0.01,2.75 0.1806,3.9937 0.4179,2.7637 0.2374,-1.2299 0.2435,-3.4799 0.014,-5 z m 7.4319,-12.105 c 3.6774,-4.1157 3.7536,-6.3993 0.1994,-5.9751 -2.687,0.3207 -5.6925,3.6006 -6.7812,7.4004 -0.9379,3.2735 3.1802,2.3818 6.5818,-1.4253 z m -414.0754,17.758 c 0.116,-6.909 1.3548,-13.6988 2.1405,-11.7313 0.618,1.5477 -0.9121,14.7716 -1.8203,15.7313 -0.2169,0.2291 -0.3609,-1.5709 -0.3202,-4 z m 29.9259,-1.3404 c 0,-1.8831 0.4916,-5.8206 1.0925,-8.75 0.6009,-2.9295 1.3008,-6.4039 1.5554,-7.7209 0.313,-1.6193 0.7913,-2.0662 1.4773,-1.3802 1.0286,1.0286 -0.3574,18.2234 -1.6356,20.2916 -1.2677,2.0512 -2.4896,0.8534 -2.4896,-2.4405 z m 392.0352,-1.5106 c -1.7558,-3.2807 -1.2139,-10.6484 1.0676,-14.5153 5.0237,-8.5146 15.9967,-3.4418 12.8936,5.9606 -1.4082,4.2669 -7.7127,10.489 -10.6279,10.489 -1.264,0 -2.764,-0.8704 -3.3333,-1.9343 z m 8.9689,-8.0715 c 2.6903,-3.7781 2.2732,-6.4014 -1.0799,-6.793 -1.9391,-0.2264 -2.8451,0.3298 -3.7415,2.2971 -2.0523,4.5045 -1.3715,7.0325 1.9992,7.4228 0.3751,0.043 1.645,-1.2737 2.8222,-2.9269 z m 9.3335,6.7558 c -2.1569,-4.0903 -2.2167,-12.2977 -0.1186,-16.2708 2.5805,-4.8863 6.7577,-8.4792 9.8583,-8.4792 1.5426,0 3.0828,0.45 3.4227,1 0.3399,0.55 -0.061,1 -0.8913,1 -0.8301,0 -1.8692,0.5964 -2.309,1.3254 -0.4398,0.729 -1.5911,1.6164 -2.5584,1.9719 -0.9672,0.3556 -2.2709,1.7709 -2.897,3.145 -1.7478,3.8362 0.309,5.6612 5.7768,5.1257 6.6289,-0.6491 5.7268,3.3455 -1.1267,4.9895 -4.3738,1.0492 -5.4944,2.2861 -5.4944,6.0649 0,4.266 -1.4535,4.3167 -3.6624,0.1276 z m -436.3376,-31.0833 c 0,-2.5667 0.4553,-4.6667 1.0118,-4.6667 0.6258,0 0.7635,1.6213 0.3609,4.25 -0.8921,5.8242 -1.3727,5.9701 -1.3727,0.4167 z m 31,-7.1667 c 0,-3.3333 0.3889,-4.5 1.5,-4.5 1.6455,0 1.8181,1.1594 0.875,5.875 -0.9255,4.6277 -2.375,3.7885 -2.375,-1.375 z m 392,-8.505 c -1.5001,-0.4834 0.1,-0.5875 4,-0.2603 3.575,0.2999 6.6875,0.7072 6.9167,0.9053 0.807,0.6973 -8.4479,0.1506 -10.9167,-0.645 z M 1170.469,1257.25 c 0.3409,-2.0625 0.6384,-4.875 0.6612,-6.25 0.032,-1.9519 0.2377,-2.1648 0.9369,-0.9711 0.5356,0.9142 0.4908,3.4267 -0.1113,6.25 -1.1937,5.5965 -2.3794,6.371 -1.4868,0.9711 z m 32.3183,-11.25 c 0.7453,-7.0093 2.2684,-10.0583 2.248,-4.5 -0.01,2.2 -0.6488,5.35 -1.4237,7 -1.3579,2.8911 -1.3878,2.8003 -0.8243,-2.5 z m -29.4445,-12 c 0,-1.925 0.2058,-2.7125 0.4573,-1.75 0.2516,0.9625 0.2516,2.5375 0,3.5 -0.2515,0.9625 -0.4573,0.175 -0.4573,-1.75 z m 2.8314,-23.95 c -0.043,-2.368 0.2598,-3.1268 0.9671,-2.4195 0.6823,0.6823 0.7038,1.8479 0.063,3.45 -0.9087,2.2734 -0.971,2.2112 -1.0305,-1.0305 z m 30.9366,-2.432 c 0,-1.375 0.45,-2.7781 1,-3.118 0.5648,-0.3491 1,0.4699 1,1.882 0,1.375 -0.45,2.7781 -1,3.118 -0.5648,0.3491 -1,-0.4699 -1,-1.882 z m -28.8817,-17.7013 c 0.065,-1.8792 0.4273,-4.7667 0.805,-6.4167 0.5958,-2.6031 0.7745,-2.7354 1.3508,-1 0.6498,1.9568 -0.5232,9.0824 -1.6867,10.2459 -0.3231,0.3231 -0.5342,-0.9501 -0.4691,-2.8292 z m -884.43082,1.4375 c -1.37384,-1.3739 -0.66124,-3.4958 1.0625,-3.1638 0.9625,0.1853 1.75,0.9683 1.75,1.74 0,1.5788 -1.76429,2.472 -2.8125,1.4238 z m 916.31252,-8.6875 c 0,-2.5667 0.4553,-4.6667 1.0118,-4.6667 0.6258,0 0.7635,1.6213 0.3609,4.25 -0.8921,5.8242 -1.3727,5.9701 -1.3727,0.4167 z m -27.9863,-24.25 c 0.017,-4.7894 0.9515,-8.5562 1.9676,-7.9282 0.7081,0.4376 -0.6774,10.5255 -1.5695,11.4282 -0.2265,0.2291 -0.4057,-1.3459 -0.3981,-3.5 z m 31.1844,-6.9167 c 0.152,-5.6748 0.6194,-7.5 1.9207,-7.5 0.9703,0 0.1258,7.1854 -1.234,10.5 -0.5682,1.3849 -0.7794,0.4622 -0.6867,-3 z m -27.3516,-27.5483 c 0.1906,-2.7234 0.7584,-4.9517 1.2618,-4.9517 0.9573,0 0.1028,7.9735 -0.9862,9.2017 -0.3421,0.3859 -0.4662,-1.5266 -0.2756,-4.25 z M 1217.2602,1118 c 0.2144,-6.2856 0.654,-8 2.0514,-8 1.1488,0 0.075,9.6747 -1.3315,12 -0.6037,0.9979 -0.8447,-0.3412 -0.7199,-4 z m 66.8904,-2.452 c -2.6339,-3.1738 2.3977,-9.0897 5.5241,-6.4949 1.9813,1.6443 1.7972,3.5858 -0.5639,5.9469 -2.3802,2.3802 -3.3506,2.4874 -4.9602,0.548 z m 62.8406,-5.6676 c -1.956,-1.956 -2.0669,-2.7937 -1.4368,-10.8482 0.6545,-8.3675 0.5779,-8.8532 -1.8525,-11.7416 -2.8508,-3.3879 -2.5242,-4.2906 1.5525,-4.2906 4.7107,0 5.9678,3.2108 5.6435,14.4142 -0.2992,10.334 0.4604,12.1312 4.7129,11.1506 1.7892,-0.4125 1.7511,-0.2558 -0.3608,1.487 -3.0539,2.5202 -5.6205,2.4669 -8.2588,-0.1714 z m -32.8486,-3.6304 c 0.03,-2.565 0.1255,-2.6263 1.4245,-0.9121 0.766,1.0108 2.2081,1.6808 3.2048,1.4888 2.4562,-0.473 6.6583,-8.2449 5.8444,-10.8093 -0.3491,-1.1 -3.236,-4.0016 -6.4154,-6.4481 -10.4258,-8.0225 -11.7452,-12.9379 -5.0872,-18.9529 2.5892,-2.3392 4.9907,-3.6164 6.8,-3.6164 3.0138,0 5.1971,1.5781 5.1971,3.7565 0,1.0445 -0.7073,0.941 -3.0745,-0.45 l -3.0744,-1.8065 -2.9256,3.2658 c -4.8286,5.3902 -3.5181,9.0695 5.5745,15.6503 2.2,1.5923 4.8217,3.8376 5.826,4.9895 1.7915,2.0548 1.8171,1.9778 1.3515,-4.0822 -0.4721,-6.1454 1.18,-18.4156 3.1612,-23.4774 1.3258,-3.3872 5.0213,-6.846 7.3147,-6.846 4.9041,0 5.667,13.1324 1.4339,24.6837 -2.6122,7.1281 -2.6197,7.2299 -0.9752,13.145 2.1547,7.7498 1.3781,11.1713 -2.5355,11.1713 -2.5601,0 -3.1466,-0.6302 -5.2026,-5.5908 l -2.3173,-5.5908 -1.6558,3.8988 c -2.1266,5.0073 -7.1827,9.2828 -10.9776,9.2828 -2.5301,0 -2.919,-0.3699 -2.8915,-2.75 z m 22.9823,-29.3024 c 0.6002,-2.2288 0.955,-6.1663 0.7886,-8.75 -0.293,-4.5469 -0.3469,-4.6198 -1.682,-2.2718 -1.7875,3.1439 -2.8134,15.0742 -1.2962,15.0742 0.6041,0 1.5894,-1.8236 2.1896,-4.0524 z m -85.5141,30.2961 c -5.1196,-0.4985 -7.5,-1.2396 -7.5,-2.3347 0,-1.1311 10.3698,-0.2714 12.864,1.0665 1.799,0.9649 -1.1993,1.6738 -5.364,1.2682 z m 19.231,0.1004 c 0.677,-0.274 2.027,-0.2906 3,-0.037 0.9729,0.2536 0.419,0.4777 -1.231,0.4981 -1.65,0.02 -2.4461,-0.1871 -1.769,-0.461 z m -45.9417,-4.4955 c -0.8961,-0.5685 -0.6211,-0.8226 0.9017,-0.8333 1.205,-0.01 2.4227,0.3597 2.706,0.818 0.6626,1.0721 -1.9247,1.0831 -3.6077,0.015 z M 1198.1108,1100 c -1.1509,-0.7437 -0.8017,-0.9694 1.5,-0.9694 1.65,0 3.675,0.4362 4.5,0.9694 1.1509,0.7437 0.8017,0.9694 -1.5,0.9694 -1.65,0 -3.675,-0.4362 -4.5,-0.9694 z m -35.269,-3.6559 c 0.677,-0.274 2.027,-0.2906 3,-0.037 0.9729,0.2536 0.419,0.4777 -1.231,0.4981 -1.65,0.02 -2.4461,-0.1871 -1.769,-0.461 z m 26.9376,-4.5941 c 0.8675,-4.5573 1.3314,-4.7025 1.3314,-0.4167 0,2.0167 -0.4387,3.6667 -0.975,3.6667 -0.5602,0 -0.7118,-1.3826 -0.3564,-3.25 z m -59.6686,1.3121 c 0,-0.5158 0.9,-0.87 2,-0.7871 1.1,0.083 2,0.5048 2,0.9378 0,0.433 -0.9,0.7872 -2,0.7872 -1.1,0 -2,-0.422 -2,-0.9379 z m -28.7292,-3.6663 c 0.3323,-0.3323 1.1948,-0.3678 1.9167,-0.079 0.7977,0.3192 0.5608,0.5562 -0.6042,0.6042 -1.0541,0.043 -1.6448,-0.193 -1.3125,-0.5253 z m 119.8442,-4.8958 c -0.046,-2.75 0.3518,-5.675 0.885,-6.5 1.2082,-1.8696 1.2082,5.2273 0,9 -0.6388,1.9946 -0.8177,1.4892 -0.885,-2.5 z m -27.6153,-24.3967 c 0.2752,-3.5182 0.5003,-7.4557 0.5003,-8.75 0,-1.2943 0.5081,-2.3533 1.1292,-2.3533 1.2684,0 0.5228,9.3909 -1.1522,14.5113 -0.7713,2.3581 -0.8721,1.6389 -0.4773,-3.408 z m 31.6,-7.8533 c -0.055,-2.8998 0.348,-5.25 0.9003,-5.25 1.1605,0 1.1605,4.3762 0,8 -0.6299,1.967 -0.8219,1.3806 -0.9003,-2.75 z m -27.9424,-23.75 c -0.023,-1.65 0.3303,-4.8 0.7853,-7 l 0.8274,-4 0.015,4.5 c 0.01,2.475 -0.3449,5.625 -0.7853,7 -0.7817,2.4407 -0.8016,2.4289 -0.8427,-0.5 z m 88.3602,-10.193 c -0.3523,-3.1939 -0.7306,-6.4768 -0.8405,-7.2955 -0.11,-0.8187 -1.0039,-1.6434 -1.9865,-1.8326 -3.0051,-0.5787 -4.6905,1.7479 -4.6905,6.4749 0,3.0514 -0.4752,4.5913 -1.5431,5.0011 -0.8487,0.3257 -1.8012,0.3341 -2.1166,0.019 -1.2529,-1.2529 -2.1953,-22.21594 -1.1542,-25.6737 2.5408,-8.43842 3.6867,-10.14805 6.5787,-9.81499 2.4006,0.27645 2.9971,1.11024 4.8762,6.81499 4.0078,12.1679 5.5844,30.7777 2.6881,31.7293 -0.7598,0.2496 -1.3959,-1.6542 -1.8116,-5.4223 z m -4.0505,-12.4739 c 2.2537,-1.0269 2.4893,-1.5969 1.9638,-4.75 -1.0993,-6.59657 -3.6044,-13.30947 -4.5965,-12.31737 -1.2717,1.27168 -2.7569,12.18807 -2.1151,15.54567 0.5768,3.0171 1.0986,3.1844 4.7478,1.5217 z m -52.3487,12.4169 c -0.066,-2.9122 0.327,-5.25 0.8817,-5.25 1.1307,0 1.1307,3.0563 0,7.5 -0.6525,2.5643 -0.7806,2.2376 -0.8817,-2.25 z m -28.6938,-16.5818 c 0.3165,-1.0075 0.5755,-3.59497 0.5755,-5.74999 0,-2.24149 0.4826,-3.91821 1.1278,-3.91821 1.3258,0 0.4016,7.3826 -1.2397,9.9039 -0.8936,1.3726 -0.9585,1.3396 -0.4636,-0.2357 z m 31.7704,-8.1682 c -0.02,-1.65 0.1871,-2.44606 0.461,-1.76903 0.274,0.67703 0.2906,2.02703 0.037,3 -0.2536,0.97297 -0.4777,0.41903 -0.4981,-1.23097 z m 19.1667,-5 c -0.8975,-2.33883 0.3696,-4.5 2.6384,-4.5 2.5442,0 3.651,2.51064 1.9894,4.51273 -1.5879,1.91334 -3.8911,1.907 -4.6278,-0.0127 z m -16.3616,-3.22086 c -1.375,-0.24667 -2.95,-0.91119 -3.5,-1.47671 -0.683,-0.70231 0.8337,-0.8862 4.7852,-0.58014 6.4573,0.50015 10.6565,2.87804 4.6648,2.64153 -1.8975,-0.0749 -4.575,-0.33801 -5.95,-0.58468 z m -24.5,-2.99299 c -1.1,-0.26415 -2.45,-0.94248 -3,-1.50738 -0.6828,-0.70134 1.019,-0.85589 5.3657,-0.48728 7.5006,0.63608 10.2824,2.35886 3.9208,2.42821 -2.3576,0.0257 -5.1865,-0.1694 -6.2865,-0.43355 z m -23,-1.96019 c -5.4079,-0.67485 -7.5,-1.3478 -7.5,-2.4124 0,-0.57658 0.7875,-0.83084 1.75,-0.56501 0.9625,0.26583 3.8875,0.77373 6.5,1.12866 2.6125,0.35494 4.75,1.06776 4.75,1.58406 0,0.5163 -0.5625,0.87131 -1.25,0.7889 -0.6875,-0.0824 -2.6,-0.3183 -4.25,-0.52421 z m -32,-4.32596 c -1.5548,-0.66814 -1.0672,-0.87507 2.191,-0.92971 2.305,-0.0387 4.4691,0.37971 4.809,0.92971 0.751,1.21519 -4.1721,1.21519 -7,0 z m 78.732,-2 c 0,-1.925 0.2058,-2.7125 0.4573,-1.75 0.2516,0.9625 0.2516,2.5375 0,3.5 -0.2515,0.9625 -0.4573,0.175 -0.4573,-1.75 z m -106.482,-0.68933 c -0.9625,-0.25152 -1.75,-0.91655 -1.75,-1.47783 0,-1.21354 9.996,-0.1057 11.45,1.26898 0.9716,0.91862 -6.3784,1.07688 -9.7,0.20885 z m -27.1722,-3.22878 c -3.7458,-0.36805 -6.0898,-1.09101 -6.3784,-1.96728 -0.3518,-1.06819 0.3172,-1.25147 2.9221,-0.80048 1.8582,0.32171 5.516,0.88373 8.1285,1.24894 2.6125,0.36521 4.75,1.06292 4.75,1.55047 0,0.48755 -0.7875,0.81081 -1.75,0.71835 -0.9625,-0.0925 -4.415,-0.42996 -7.6722,-0.75 z M 1205.7394,956 c 0.9226,-9.14965 2.568,-12.33565 1.8491,-3.58039 -0.3125,3.80578 -1.0038,7.63078 -1.5363,8.5 -0.6485,1.05857 -0.7517,-0.56582 -0.3128,-4.91961 z m 31.6236,-6.5 c -0.011,-2.2 0.1846,-3.21775 0.4349,-2.26166 0.2503,0.95609 0.2594,2.75609 0.02,4 -0.2392,1.24391 -0.444,0.46166 -0.4551,-1.73834 z m 362.2006,-9.64878 c -1.4105,-4.4439 -0.8667,-19.24503 0.8995,-24.48361 3.0436,-9.02778 8.8465,-11.50195 9.4625,-4.03453 0.2519,3.05373 -0.4999,5.11581 -3.7617,10.31817 -2.2421,3.57595 -3.832,6.89747 -3.5331,7.38117 0.299,0.48369 3.2589,1.41365 6.5777,2.06658 3.3187,0.65293 7.0169,2.05277 8.2182,3.11077 2.1833,1.92295 2.1822,1.92341 -3.3159,1.32205 -3.025,-0.33087 -6.9625,-0.86096 -8.75,-1.17799 -3.1649,-0.56132 -3.25,-0.4834 -3.25,2.97586 0,4.14378 -1.5465,5.67464 -2.5472,2.52153 z m 5.5692,-21.547 c 3.3354,-5.25933 3.8934,-8.63206 1.3446,-8.12754 -2.1175,0.41914 -5.3666,6.50845 -5.3666,10.05772 0,1.52108 0.2349,2.7656 0.522,2.7656 0.2871,0 1.8621,-2.1131 3.5,-4.69578 z m 15.4325,16.24123 c -3.572,-3.57208 -3.143,-13.08231 0.7042,-15.61005 1.2951,-0.85091 9.9029,1.37994 9.5388,2.47214 -0.7379,2.21355 -3.6703,3.09055 -5.8281,1.743 -2.5626,-1.60037 -3.8295,-0.27628 -3.8541,4.02803 -0.029,4.98515 5.1519,7.40788 10.1361,4.74041 3.0937,-1.65573 3.3558,-0.33524 0.5001,2.52041 -3.3547,3.3547 -7.9052,3.39781 -11.197,0.10606 z M 1643.977,929.25 c -1.0141,-2.57205 -2.7238,-14.0397 -2.8223,-18.93019 -0.038,-1.90926 -0.3929,-2.0801 -2.8523,-1.37475 -3.6022,1.03308 -9.2164,3.88006 -11.3699,5.76566 -1.9015,1.66493 -5.3429,0.97936 -6.1921,-1.23353 -0.7317,-1.90672 1.1979,-2.82107 11.3075,-5.35817 7.182,-1.80238 8.8664,-2.63816 11.3228,-5.6182 2.9628,-3.59433 5.4143,-4.28075 8.8058,-2.46564 3.1895,1.70696 2.3666,3.61368 -1.3713,3.17731 -4.232,-0.49406 -5.9196,1.4837 -5.5089,6.45609 0.2934,3.5524 0.5671,3.84886 4.0755,4.41417 2.0686,0.3333 4.0262,0.87109 4.3502,1.1951 1.0877,1.08772 -0.6086,2.56266 -3.7376,3.24991 -3.0618,0.6725 -3.095,0.74562 -2.471,5.44946 0.9928,7.48413 -1.3105,10.91833 -3.5364,5.27278 z M 1209.7764,922 c 0.3381,-3.025 0.7766,-5.6875 0.9745,-5.91667 0.8459,-0.97935 0.2402,8.55591 -0.6299,9.91667 -0.6407,1.00204 -0.7551,-0.32584 -0.3446,-4 z m 30.5677,1 c 0,-1.925 0.3468,-4.85 0.7667,-6.5 0.6955,-2.73325 0.7688,-2.77771 0.8241,-0.5 0.033,1.375 -0.3117,4.3 -0.7667,6.5 l -0.8274,4 0,-3.5 z M 565.33763,798.75 c -1.71885,-2.11049 -3.98746,-8.27991 -5.2098,-14.16785 -1.36085,-6.55522 -0.17072,-11.66068 3.28198,-14.07905 3.62758,-2.54085 6.54529,-1.88127 8.83347,1.9969 1.61826,2.74274 2.70351,3.5 5.01594,3.5 3.28994,0 7.8176,-2.04923 9.79684,-4.43406 2.13971,-2.5782 4.75074,-1.8767 5.96348,1.60218 l 1.10442,3.16813 2.30786,-2.16813 c 3.07856,-2.89215 4.5176,-2.7324 5.24155,0.58188 0.33038,1.5125 1.46395,6.32318 2.51905,10.69039 1.0551,4.36722 1.91836,8.75472 1.91836,9.75 0,2.5891 -2.5221,2.23263 -4.81342,-0.68032 -1.86244,-2.36771 -1.98413,-2.39225 -2.47896,-0.5 -0.90425,3.45786 -4.39693,2.46135 -5.75076,-1.64078 -0.65903,-1.99689 -2.73688,-5.3338 -4.61744,-7.41535 l -3.4192,-3.78465 2.17135,-1.52087 c 1.38461,-0.96983 1.94405,-2.11321 1.54402,-3.15568 -0.56052,-1.46069 -0.94407,-1.40927 -3.60122,0.48279 -4.16336,2.96457 -4.19316,3.10089 -1.96169,8.97364 1.54971,4.07849 1.73621,5.57618 0.8303,6.66773 -1.59557,1.92254 -3.64822,0.14323 -5.90298,-5.1169 -1.58569,-3.69927 -4.62644,-7.3317 -5.35123,-6.3925 -0.16659,0.21587 -1.32001,2.60869 -2.56315,5.31737 -1.7518,3.81698 -2.11436,5.89783 -1.61167,9.25 0.50937,3.39669 0.33973,4.32513 -0.79023,4.32513 -0.79136,0 -1.89695,-0.5625 -2.45687,-1.25 z m 3.72805,-22.94098 c 0.0618,-3.68497 -1.89298,-4.60371 -4.07135,-1.91354 -1.794,2.2155 -1.7531,2.70164 0.76592,9.10452 0.77312,1.96513 3.24198,-3.40589 3.30543,-7.19098 z m -344.9549,-42.61351 c 0,-0.78819 11.48457,-11.3809 15.23024,-14.04751 1.0445,-0.7436 2.10955,-1.14154 2.36678,-0.88432 0.59624,0.59624 -15.45176,15.73632 -16.68,15.73632 -0.50436,0 -0.91702,-0.36202 -0.91702,-0.80449 z m 30,-27.07915 c 0,-1.53768 7.92902,-8.11738 9.75288,-8.09318 1.23607,0.0164 0.37473,1.33269 -2.94467,4.5 -4.48337,4.27795 -6.80821,5.50493 -6.80821,3.59318 z m 23,-20.23467 c 0,-1.26887 4.43708,-5.35831 10.8534,-10.00307 4.22872,-3.06115 4.31464,-3.07931 3,-0.63419 C 289.58341,677.81254 279.38928,687 277.92055,687 c -0.44537,0 -0.80977,-0.50324 -0.80977,-1.11831 z m 93,-5.38169 c 0.68469,-0.825 1.41479,-1.5 1.62244,-1.5 0.20766,0 0.37756,0.675 0.37756,1.5 0,0.825 -0.7301,1.5 -1.62244,1.5 -1.3288,0 -1.39713,-0.27149 -0.37756,-1.5 z m -54.45413,-29.42579 c -0.50746,-0.82108 22.14966,-21.06906 24.51414,-21.90754 3.61156,-1.28072 -3.19049,6.5796 -15.25015,17.62279 -5.50016,5.03657 -8.06592,6.22328 -9.26399,4.28475 z M 349.50324,621.826 c -0.44631,-0.72216 1.17785,-2.83684 4.18932,-5.45453 5.47278,-4.75718 7.01971,-4.15991 2.97166,1.14736 -3.23412,4.24015 -6.12701,5.98016 -7.16098,4.30717 z M 373.6652,600.08806 C 372.96796,598.9599 384.92159,588 386.84929,588 c 1.69519,0 -1.32108,4.5159 -6.4259,9.62072 -3.36102,3.36102 -5.68213,4.20843 -6.75819,2.46734 z m -45.86238,-9.24053 c -2.9314,-1.64049 -1.85533,-2.46803 3.05796,-2.35168 4.37738,0.10365 11.05553,2.3981 7.2,2.47374 -0.8525,0.0167 -2.06689,-0.48648 -2.69865,-1.11824 -0.86487,-0.86487 -1.73154,-0.76674 -3.50796,0.39722 -1.63755,1.07296 -2.87694,1.2562 -4.05135,0.59896 z m 43.84802,-14.14605 c -2.49499,-3.80784 -4.37723,-10.27805 -5.08782,-17.48943 C 365.78304,551.2965 366.92468,548 370.44596,548 c 4.91157,0 5.78888,3.7583 2.967,12.71034 -1.77762,5.63925 -1.75181,5.82404 2.15258,15.41062 1.08243,2.65772 -2.23165,3.14918 -3.9147,0.58052 z m -0.55537,-23.39246 c 0.008,-1.20504 -0.43469,-2.4691 -0.98469,-2.80902 -0.60835,-0.37598 -0.994,1.0696 -0.98469,3.69098 0.0112,3.15059 0.27592,3.90576 0.98469,2.80902 0.53316,-0.825 0.97627,-2.48594 0.98469,-3.69098 z m 29.01531,23.2683 c 0,-1.57385 10.06473,-10.57732 11.82409,-10.57732 1.7656,0 -2.74142,6.83516 -6.29349,9.54445 -3.63537,2.77284 -5.5306,3.12678 -5.5306,1.03287 z m -20.4997,-16.75934 c -2.96245,-3.52066 -2.90049,-7.61331 0.16656,-11.00236 2.55688,-2.82531 3.07692,-2.2045 2.57027,3.0683 -0.38558,4.01281 -0.0959,5.25732 1.62411,6.97732 2.48389,2.48389 4.64597,1.91969 6.62891,-1.72981 1.33663,-2.45999 1.43238,-2.48957 1.46981,-0.45401 0.0482,2.62157 -4.34549,6.32258 -7.50593,6.32258 -1.33046,0 -3.38874,-1.32212 -4.95373,-3.18202 z m 18.40435,-2.17922 c -3.1012,-2.33634 -8.0934,-10.7048 -7.12147,-11.93778 0.5207,-0.66054 1.19797,-3.17539 1.50507,-5.58856 0.30709,-2.41317 1.26786,-5.0971 2.13505,-5.96429 1.4356,-1.4356 1.57807,-1.17719 1.59201,2.88758 0.0177,5.17415 1.03112,7.26744 3.12855,6.46258 1.21023,-0.46441 1.47349,0.49779 1.42717,5.21613 -0.0312,3.18207 0.30337,6.51501 0.74356,7.40654 1.01712,2.05999 -1.31333,3.0973 -3.40994,1.5178 z m 29.72213,-4.34531 c -0.34473,-0.34473 -0.62678,-0.98827 -0.62678,-1.43008 0,-0.96495 20.01138,-18.26391 22.94196,-19.83231 4.5618,-2.4414 1.74514,1.5303 -7.19196,10.14122 -9.17488,8.84001 -13.91709,12.32729 -15.12322,11.12117 z m 35.37322,-31.67133 c 0,-1.81668 19.41061,-18.62212 21.50891,-18.62212 2.25505,0 -11.29643,14.24061 -17.35222,18.23463 -3.21,2.11712 -4.15669,2.20537 -4.15669,0.38749 z M 432.61078,521 c -0.33992,-0.55 -0.14148,-1 0.44098,-1 0.58246,0 1.05902,0.45 1.05902,1 0,0.55 -0.19844,1 -0.44098,1 -0.24254,0 -0.7191,-0.45 -1.05902,-1 z m 60.67668,-25.44495 c 0.47459,-2.121 15.02416,-14.50482 17.07332,-14.53191 0.9625,-0.0127 1.70809,0.31436 1.65686,0.72686 -0.0512,0.4125 -3.66957,4.0125 -8.04075,8 -7.55579,6.89258 -11.3999,8.98018 -10.68943,5.80505 z m 34.82332,-30.02549 c 0,-1.40278 13.50178,-13.63687 17.32101,-15.69474 1.75685,-0.94663 1.75781,-0.88174 0.0271,1.842 C 543.03907,455.4849 530.95081,467 529.37296,467 c -0.6942,0 -1.26218,-0.6617 -1.26218,-1.47044 z m 36.25,-30.19184 c -2.25243,-0.90888 -1.33865,-2.22061 5.44457,-7.81573 6.92963,-5.71588 8.30543,-6.41835 8.30543,-4.24069 0,1.21437 -11.0323,12.80681 -12.029,12.63975 -0.25905,-0.0434 -1.0335,-0.30592 -1.721,-0.58333 z m 30.75,-29.25773 c 0,-1.24716 10.82581,-10.884 14.25,-12.68497 4.62094,-2.43041 3.2266,0.31356 -3.65741,7.19757 -3.79394,3.79395 -7.26093,6.40741 -8.5,6.40741 -1.15092,0 -2.09259,-0.41401 -2.09259,-0.92001 z m 31.00836,-26.05366 c -1.74256,-1.10168 -2.34316,-0.43363 9.38515,-10.43918 8.62216,-7.35565 10.60649,-8.60152 10.60649,-6.65934 0,1.14337 -16.60678,18.07813 -17.70716,18.05688 -0.43606,-0.008 -1.46408,-0.43969 -2.28448,-0.95836 z m 35.99164,-32.40997 c 0,-2.34134 11.29486,-11.65483 12.57809,-10.37161 C 675.35702,337.91291 664.63667,349 663.32246,349 c -0.66643,0 -1.21168,-0.62264 -1.21168,-1.38364 z m -5.75,-4.33976 c -1.7875,-0.22182 -3.25,-0.73445 -3.25,-1.13916 0,-0.40471 1.575,-0.55197 3.5,-0.32723 1.925,0.22473 3.5,0.80937 3.5,1.2992 0,0.48982 -0.1125,0.81857 -0.25,0.73055 -0.1375,-0.088 -1.7125,-0.34153 -3.5,-0.56336 z m 29.75,-17.20402 c 0,-1.06008 1.2375,-2.89667 2.75,-4.0813 1.5125,-1.18464 4.35041,-3.62986 6.30646,-5.43382 10.05149,-9.26995 10.95659,-5.0817 1.00585,4.65446 -7.04575,6.89382 -10.06231,8.35098 -10.06231,4.86066 z m 484.77232,-4.85659 c -1.6393,-0.20706 -3.5878,-1.55246 -4.8834,-3.37198 -2.5469,-3.5768 -5.8889,-13.78218 -5.8889,-17.98276 0,-3.48319 2.5254,-8.8005 4.2757,-9.00266 4.3659,-0.50425 8.7744,0.86107 5.992,1.85575 -0.6778,0.24229 -1.6958,2.16183 -2.2623,4.26564 -1.1921,4.42714 -0.093,8.36763 2.76,9.89449 1.0923,0.58456 2.3225,2.98522 2.9777,5.8108 0.6141,2.6481 1.399,5.54416 1.7442,6.43569 0.7318,1.89003 -0.833,2.58534 -4.715,2.09503 z m 10.072,-11.96599 c -2.2744,-2.71563 -6.8526,-12.25 -5.8822,-12.25 0.4765,0 2.2609,-2.2664 3.9653,-5.03644 3.4131,-5.54697 4.8588,-6.48502 8.5622,-5.55553 3.3968,0.85254 5.2059,4.10596 5.7556,10.35047 0.7771,8.82866 -3.506,11.12263 -7.0969,3.80095 -0.8797,-1.79366 -1.6928,-2.415 -2.3284,-1.77932 -0.6357,0.63568 -0.076,2.75358 1.6017,6.06507 1.4181,2.79857 2.5784,5.32827 2.5784,5.62156 0,1.33934 -5.8477,0.345 -7.1557,-1.21676 z m 18.7592,-8.5 c 0.5812,-10.19273 0.5672,-10.27673 -2.5095,-15.03473 -1.7017,-2.6316 -3.094,-5.37435 -3.094,-6.09501 0,-2.95115 6.4577,-6.19149 9.0931,-4.56273 1.0792,0.66699 1.0625,1.28317 -0.093,3.44253 -1.1043,2.06334 -1.151,2.99324 -0.2165,4.31504 5.0173,7.09736 6.7279,17.36141 3.8281,22.96906 -1.5671,3.03039 -4.3058,5.21584 -6.5363,5.21584 -0.711,0 -0.8652,-3.35068 -0.4718,-10.25 z M 692.1474,268.91293 c -3.35084,-1.3689 -3.51227,-1.63488 -2.05668,-3.38876 1.41189,-1.70122 5.02006,-2.07796 5.02006,-0.52417 0,0.55 0.84504,1 1.87788,1 5.53236,0 15.12212,-7.30233 15.12212,-11.51507 0,-3.08288 -4.84733,-7.14212 -14.56761,-12.19916 -9.48799,-4.9362 -12.29758,-7.53835 -10.49041,-9.71586 3.21215,-3.8704 15.30782,-4.42365 18.22625,-0.83367 1.17186,1.44151 1.09162,1.53872 -0.66823,0.80956 -5.846,-2.42217 -12.5,-1.71924 -12.5,1.32051 0,1.2545 2.2751,3.01693 7.25,5.61628 19.18351,10.02326 22.13204,15.05789 13.59688,23.21673 -5.52642,5.28276 -15.67289,8.31234 -20.81026,6.21361 z M 873.11078,259 c 0,-0.55 0.45,-1 1,-1 0.55,0 1,0.45 1,1 0,0.55 -0.45,1 -1,1 -0.55,0 -1,-0.45 -1,-1 z m 233.09462,-23.75 c 0.7367,-0.9625 1.4668,-1.9375 1.6224,-2.16667 0.1557,-0.22916 0.283,0.55834 0.283,1.75 0,1.33194 -0.6251,2.16667 -1.6224,2.16667 -1.3888,0 -1.4296,-0.25202 -0.283,-1.75 z M 779.61078,217 c -0.33992,-0.55 0.057,-1 0.88197,-1 0.825,0 1.77811,0.45 2.11803,1 0.33992,0.55 -0.057,1 -0.88197,1 -0.825,0 -1.77811,-0.45 -2.11803,-1 z m -63.5,-3.44098 c 0,-1.05548 1.91911,-1.49891 2.48992,-0.57533 0.34546,0.55897 -0.0734,1.01631 -0.9309,1.01631 -0.85746,0 -1.55902,-0.19844 -1.55902,-0.44098 z M 1132.6108,210 c 0.3399,-0.55 1.293,-1 2.118,-1 0.825,0 1.2219,0.45 0.882,1 -0.3399,0.55 -1.293,1 -2.118,1 -0.825,0 -1.2219,-0.45 -0.882,-1 z M 323.82105,127.92337 c -2.13963,-3.31737 -4.88831,-14.44528 -4.51559,-18.28119 0.3739,-3.84797 2.07458,-3.26115 2.48608,0.85782 0.58919,5.89754 2.53119,12.48704 3.50305,11.8864 0.55092,-0.34049 0.84001,-3.75674 0.65564,-7.74771 -0.34928,-7.56059 1.00785,-9.63715 2.37805,-3.63869 1.0315,4.51566 0.0197,15.29337 -1.65012,17.57697 -1.21229,1.6579 -1.39288,1.61659 -2.85711,-0.6536 z m 14.86687,-4.10999 c -0.22481,-0.72236 -0.65666,-4.3719 -0.95968,-8.11008 -0.4643,-5.72796 -0.1813,-7.63251 1.79975,-12.11201 C 342.12117,97.72764 345.18504,95 349.1783,95 c 2.91319,0 5.93248,2.733824 5.93248,5.37158 0,2.08437 -8.73021,11.62842 -10.63684,11.62842 -2.28739,0 -1.56099,-1.38943 3.13684,-6 5.49957,-5.39742 5.97723,-8.271312 1.29863,-7.813358 -4.94898,0.484419 -6.97607,4.877658 -7.58025,16.428338 -0.44913,8.58649 -1.59248,12.56834 -2.64124,9.1984 z m -34.1906,-3.3462 c -3.26729,-4.98652 0.29136,-19.02688 5.80058,-22.885689 2.37427,-1.663007 4.1055,-0.507612 3.11337,2.077825 -0.76744,1.999924 -2.3263,1.621344 -1.6854,-0.409316 0.3984,-1.262312 -0.0302,-1.089806 -1.53805,0.619012 -2.88702,3.271858 -5.42279,12.474468 -4.61857,16.761328 0.82469,4.39595 4.23216,6.25099 8.29153,4.51392 2.55004,-1.0912 2.60886,-1.06651 0.80887,0.33949 -3.14077,2.45331 -8.23216,1.94451 -10.17233,-1.01657 z m 976.94628,-6.04225 c -1.2327,-3.21242 3.1432,-13.63985 12.824,-30.558853 2.0877,-3.648658 4.5821,-6.93565 5.5431,-7.304426 2.1107,-0.809955 4.3001,1.801694 4.3001,5.129479 0,2.542797 1.0913,2.865566 4.1514,1.22785 3.5149,-1.881134 3.486,0.160888 -0.044,3.120567 l -3.3927,2.844453 0.5653,9.046862 c 0.5606,8.972658 -0.1684,11.580518 -2.5669,9.182008 -0.6791,-0.67903 -0.7198,-1.11287 -0.1045,-1.11287 0.6663,0 0.6238,-2.45937 -0.1255,-7.25 -1.1476,-7.337886 -1.9915,-8.232672 -5.2295,-5.545365 -1.78,1.47731 -1.5729,2.680615 1.0675,6.200974 3.5758,4.767631 4.2355,6.055131 2.5836,5.042051 -4.1099,-2.52049 -8.4356,-5.689032 -8.9888,-6.584108 -1.2041,-1.948251 -5.4989,7.048698 -7.3449,15.386448 -0.6717,3.03377 -2.2982,3.62396 -3.238,1.17493 z m 18.9692,-28.539007 c 0.5589,-0.887743 0.6987,-2.441736 0.3105,-3.453319 -0.6282,-1.637052 -0.9198,-1.514581 -2.6525,1.114077 -1.0708,1.624325 -1.9498,3.323815 -1.9534,3.776643 -0.011,1.367852 3.2071,0.290975 4.2954,-1.437401 z M 760.68425,107.29643 c -1.80191,-2.46989 -1.97525,-2.51638 -2.67972,-0.71857 -0.41425,1.05718 -0.78481,1.39644 -0.82346,0.75393 -0.0387,-0.64252 0.19505,-1.85968 0.51935,-2.7048 0.48114,-1.25383 1.03319,-1.05799 3,1.06424 1.3257,1.43045 2.41036,2.98511 2.41036,3.45479 0,1.28113 -0.32106,1.03641 -2.42653,-1.84959 z m 485.63845,-1.48615 c -7.8277,-2.1121 -9.5154,-13.573748 -3.0197,-20.508407 4.2919,-4.582016 12.8078,-3.340519 12.8078,1.867203 0,2.021763 -0.1169,1.996828 -2.4523,-0.523053 C 1252.3098,85.19071 1250.7955,84 1250.2934,84 c -2.2238,0 -6.2233,4.437537 -7.1708,7.956162 -1.2645,4.695965 -0.112,8.276828 3.4055,10.581638 2.0739,1.35887 3.1014,1.44613 5.9517,0.50544 4.3194,-1.42555 12.629,-10.138738 12.6366,-13.250399 0.01,-4.210661 2.0468,-9.792841 3.5728,-9.792841 2.3801,0 2.657,2.382439 0.9568,8.231042 -0.8739,3.006008 -1.3894,6.096254 -1.1456,6.867213 0.2439,0.77096 0.7439,2.751745 1.1112,4.401745 l 0.6679,3 1.8524,-2.28268 c 1.0188,-1.255473 3.9788,-7.780473 6.5778,-14.499999 C 1283.8308,72.476668 1284.6378,71 1286.7523,71 c 1.0162,0 1.2176,0.749117 0.7397,2.75 -0.3614,1.5125 -1.0253,3.222453 -1.4755,3.799895 -0.4501,0.577442 -2.4281,5.267885 -4.3954,10.423207 -4.6526,12.191828 -7.3957,16.960028 -10.1554,17.652668 -3.098,0.77756 -4.1129,-0.086 -5.4856,-4.66775 C 1265.3279,98.781108 1264.4939,97 1264.1268,97 c -0.367,0 -1.7583,1.169543 -3.0917,2.598985 -1.3334,1.429445 -4.4493,3.611375 -6.9243,4.848735 -3.5898,1.7947 -5.1651,2.0703 -7.7881,1.36256 z M 746.72994,76.449942 c -0.82075,-2.138845 0.24709,-16.926067 1.52641,-21.137459 C 749.46576,51.331215 752.80254,47 754.66031,47 c 0.7724,0 2.1171,1.08778 2.98823,2.417289 2.11013,3.220457 0.60982,8.92611 -3.90106,14.83568 -1.81936,2.383493 -3.59056,6.075302 -3.93601,8.20402 -0.74181,4.571246 -2.15629,6.404085 -3.08153,3.992953 z m 7.39513,-18.477953 c 2.18072,-4.274573 2.49401,-6.539807 1.02964,-7.444837 -1.45203,-0.897404 -3.85781,3.440133 -4.64568,8.375989 -0.84942,5.321412 0.61914,4.943249 3.61604,-0.931152 z M 785.58364,75 c -1.27288,-2.408763 -1.9824,-6.350043 -2.27571,-12.641143 L 782.88174,53.217714 777.12,55.858857 771.35826,58.5 l -1.07867,6.40493 c -1.04557,6.208365 -2.45942,9.137791 -3.77521,7.822007 -1.10299,-1.102995 -1.65654,-18.059558 -0.70705,-21.658918 0.91636,-3.473769 3.31345,-5.472018 3.31345,-2.762136 0,0.809902 0.87045,2.534902 1.93434,3.833333 l 1.93435,2.360784 4.61524,-2.415267 c 2.53838,-1.328397 5.54826,-3.725567 6.68861,-5.327045 2.87987,-4.044401 4.06673,-2.292323 2.83758,4.188926 -1.30716,6.892646 -1.28055,16.539342 0.0589,21.362996 1.48777,5.35767 0.60214,6.850414 -1.59618,2.69039 z m 477.03726,2.016312 C 1262.2754,76.45734 1262.6943,76 1263.5518,76 c 1.7565,0 2.0151,0.600055 0.6281,1.457295 -0.512,0.316431 -1.2136,0.117988 -1.559,-0.440983 z"
     id="path3265"
     style="fill:#000000" />
</svg>
