<?xml version="1.0" encoding="UTF-8" standalone="no"?>
<!-- Created with Inkscape (http://www.inkscape.org/) -->

<svg
   xmlns:dc="http://purl.org/dc/elements/1.1/"
   xmlns:cc="http://creativecommons.org/ns#"
   xmlns:rdf="http://www.w3.org/1999/02/22-rdf-syntax-ns#"
   xmlns:svg="http://www.w3.org/2000/svg"
   xmlns="http://www.w3.org/2000/svg"
   version="1.1"
   width="1562.2521"
   height="1503.9427"
   id="svg3047">
  <metadata
     id="metadata3053">
    <rdf:RDF>
      <cc:Work
         rdf:about="">
        <dc:format>image/svg+xml</dc:format>
        <dc:type
           rdf:resource="http://purl.org/dc/dcmitype/StillImage" />
        <dc:title></dc:title>
      </cc:Work>
    </rdf:RDF>
  </metadata>
  <defs
     id="defs3051" />
  <path
     d="m 1055.5,1501.3338 c 7.4889,-2.727 18.0875,-5.8223 31,-9.0537 4.4,-1.1011 11.3016,-3.2062 15.3369,-4.678 4.0354,-1.4718 11.4604,-3.5588 16.5,-4.6377 12.9973,-2.7827 29.2236,-7.291 35.6631,-9.9088 6.5041,-2.6439 29.9634,-9.685 38.5,-11.5553 6.7879,-1.4873 19.9605,-5.9515 29.2346,-9.9077 13.4148,-5.7227 36.3697,-23.7618 44.4859,-34.9595 2.0463,-2.8232 5.4729,-7.3831 7.6146,-10.1331 2.1417,-2.75 4.4733,-6.125 5.1812,-7.5 0.708,-1.375 3.1979,-4.975 5.5333,-8 4.9209,-6.374 7.6438,-11.6297 13.2291,-25.5342 5.4069,-13.4603 9.2237,-27.755 9.2026,-34.4658 -0.032,-10.0832 -12.1726,-56.1665 -16.9016,-64.1532 -7.7182,-13.0353 -11.5468,-39.0698 -8.507,-57.8468 2.4298,-15.0089 7.9306,-24.6307 23.0281,-40.2802 5.5264,-5.7284 12.2224,-13.2411 14.8799,-16.6947 7.6618,-9.9571 16.2857,-24.7904 18.5734,-31.9468 1.1567,-3.618 3.4075,-9.9533 5.0019,-14.0783 2.9627,-7.6654 7.944,-33.3251 7.944,-40.9216 0,-8.3823 -5.8498,-34.2236 -8.7755,-38.7653 -0.7788,-1.209 -31.0197,-3.2933 -47.9745,-3.3066 -8.9331,-0.01 -9.4452,0.4001 -6.4269,5.1106 0.9223,1.4393 3.6109,5.7143 5.9747,9.5 2.3637,3.7856 7.0615,11.1579 10.4396,16.3829 7.6868,11.8897 22.7626,37.7839 22.7626,39.0971 0,0.54 -0.6814,0.4015 -1.5142,-0.3077 -1.6303,-1.3883 -13.3384,-18.6712 -15.4384,-22.7894 -0.7012,-1.375 -2.7354,-4.75 -4.5205,-7.5 -1.7851,-2.75 -7.8686,-12.2 -13.5189,-21 -5.6503,-8.8 -11.0011,-16.7683 -11.8906,-17.7074 -1.3745,-1.4511 -5.29,-1.8805 -26.0742,-2.8596 l -24.4568,-1.1521 -2.3346,2.8596 c -2.2868,2.8007 -2.3226,3.178 -1.7449,18.3595 0.683,17.9485 1.2507,28.0435 2.0566,36.5706 0.4289,4.5391 0.22,6.3642 -0.8282,7.2341 -1.0735,0.891 -1.4145,0.8744 -1.4553,-0.071 -0.029,-0.6787 -0.548,-5.0591 -1.1527,-9.7341 -0.6047,-4.675 -1.3525,-13.9 -1.662,-20.5 -0.3094,-6.6 -0.7312,-12.9 -0.9374,-14 -0.2062,-1.1 -0.4093,-2.7875 -0.4514,-3.75 -0.042,-0.9625 -0.4531,-1.75 -0.9134,-1.75 -0.9485,0 -8.9159,12.0222 -14.9114,22.5 -4.8502,8.4765 -4.6743,6.7533 -6.8932,67.5 -1.9745,54.0532 -2.2274,74.8818 -1.2265,101 1.1476,29.9486 1.7619,68.9155 1.156,73.3311 -0.3172,2.3112 -0.888,3.4689 -1.4389,2.918 -1.0697,-1.0697 -1.5635,-6.451 -2.4084,-26.2491 -0.3404,-7.975 -0.7943,-16.975 -1.0086,-20 -0.2144,-3.025 -0.6289,-12.925 -0.9211,-22 -0.2923,-9.075 -0.7942,-19.425 -1.1154,-23 -0.3211,-3.575 -0.7414,-13.475 -0.9339,-22 -0.7315,-32.3946 -2.4904,-87.0208 -2.9302,-91 -0.1519,-1.375 -0.3437,-4.075 -0.4261,-6 l -0.1499,-3.5 -1.9676,2.5 c -1.0823,1.375 -9.5468,15.1 -18.8102,30.5 -15.4127,25.623 -17.1186,28.9338 -20.0949,39 -4.5139,15.2662 -5.3748,17.8612 -6.2869,18.95 -1.4165,1.6908 -0.8618,-1.826 1.6514,-10.4707 1.3461,-4.6299 2.3274,-8.5379 2.1808,-8.6846 -0.3387,-0.3387 -7.2175,10.2232 -12.1824,18.7053 -3.739,6.3876 -3.8154,6.7248 -4.4179,19.5 -0.3372,7.15 -0.2849,13.9 0.1162,15 0.5416,1.4853 0.7455,1.581 0.7926,0.3717 0.035,-0.8955 1.2047,-4.4955 2.5997,-8 3.0381,-7.6321 2.7247,-5.3348 -1.4498,10.6283 -2.3952,9.1593 -3.286,15.1186 -3.7631,25.174 l -0.625,13.174 4.5211,2.1252 c 5.2733,2.4787 8.5,8.024 7.3455,12.6238 -0.8881,3.5385 -6.7794,9.403 -9.4459,9.403 -2.6006,0 -3.1999,2.3116 -2.9816,11.5 0.2582,10.8624 -1.656,53.3519 -2.4389,54.1347 -0.3842,0.3842 -0.7161,-1.7389 -0.7375,-4.718 -0.021,-2.9792 -0.1074,-9.258 -0.1912,-13.9529 -0.084,-4.6949 0.1111,-8.9699 0.4329,-9.5 0.991,-1.6323 -1.0896,-19.7758 -2.3577,-20.5595 -0.8786,-0.543 -0.7372,-1.42 0.5442,-3.3758 1.4687,-2.2415 1.7357,-5.2492 1.7607,-19.8353 0.016,-9.4563 0.045,-19.2182 0.064,-21.6932 0.019,-2.475 -0.048,-6.3 -0.15,-8.5 -0.1017,-2.2 0.1797,-11.2 0.6253,-20 0.4457,-8.8 0.5853,-18.475 0.3103,-21.5 l -0.5,-5.5 -3.5422,5.5 c -1.9483,3.025 -4.8291,7.75 -6.4019,10.5 -1.5729,2.75 -4.2945,7.25 -6.0481,10 -1.7537,2.75 -10.319,16.925 -19.0341,31.5 -17.6235,29.473 -23.4501,38.8531 -23.4642,37.7742 -0.01,-0.3992 0.8888,-2.1992 1.9868,-4 1.0979,-1.8008 1.9979,-4.0617 2,-5.0242 0,-0.9625 0.4264,-1.75 0.9431,-1.75 1.7424,0 12.259,-18.1334 11.7175,-20.204 -0.3544,-1.3551 -0.098,-1.7955 0.8365,-1.4369 0.9043,0.347 4.3784,-4.6431 10.562,-15.171 5.0679,-8.6285 10.5756,-17.9381 12.2394,-20.6881 8.6388,-14.2794 18.6226,-31.6859 19.0645,-33.2386 0.468,-1.6446 0.962,-12.9817 2.1684,-49.7614 0.2707,-8.25 0.7091,-19.5 0.9743,-25 0.2652,-5.5 0.7401,-19.9 1.0552,-32 0.3152,-12.1 0.903,-23.575 1.3062,-25.5 0.4033,-1.925 0.4652,-4.85 0.1377,-6.5 -0.3275,-1.65 -0.4185,-10.0406 -0.2021,-18.6459 l 0.3933,-15.6458 -3.8461,-0.6104 c -2.1154,-0.3357 -20.4962,-1.2805 -40.8462,-2.0995 -20.35,-0.8191 -48.025,-1.9307 -61.5,-2.4704 -13.475,-0.5396 -28.1,-1.2291 -32.5,-1.5321 -4.4,-0.3031 -20.15,-0.9704 -35,-1.4829 -34.01309,-1.1739 -90.75722,-3.5842 -131,-5.5645 -17.05,-0.839 -42.25,-1.9604 -56,-2.49209 -13.75,-0.53164 -29.725,-1.18991 -35.5,-1.46282 -5.775,-0.2729 -21.075,-0.94606 -34,-1.49591 -63.26285,-2.69127 -81.08085,-3.47695 -113,-4.98272 -36.88465,-1.74002 -42.10984,-1.97189 -56.5,-2.50714 -26.24781,-0.97631 -61.98204,-2.49157 -70.5,-2.98946 -8.50481,-0.49713 -41.99285,-1.83842 -77.25,-3.09408 l -18.75,-0.66777 0,3.09676 c 0,1.70322 1.98786,16.72053 4.41746,33.37173 2.42961,16.6513 5.38003,37.475 6.5565,46.275 6.54512,48.9576 6.70011,49.7812 10.34986,55 1.59059,2.2744 1.67838,2.6632 0.36294,1.6075 -0.9543,-0.7659 -2.00447,-1.1231 -2.33371,-0.7939 -0.32924,0.3293 0.6661,10.3384 2.21187,22.2425 3.21843,24.7852 2.06809,22.723 14.93508,26.7746 4.4,1.3855 16.07778,5.0926 25.95062,8.238 9.87284,3.1454 19.54784,5.8306 21.5,5.9672 1.95216,0.1365 4.89938,0.942 6.54938,1.7899 1.65,0.8479 8.4,3.185 15,5.1935 6.6,2.0085 16.5,5.0299 22,6.7142 5.5,1.6843 10.9,3.1436 12,3.2429 1.1,0.099 2.675,0.4144 3.5,0.7004 0.825,0.286 3.075,1.0747 5,1.7528 7.45582,2.6261 24.46756,8.0142 27.19313,8.6128 1.57521,0.346 2.79788,0.253 2.71703,-0.2067 -0.37925,-2.1561 0.54846,-2.0006 6.95516,1.1657 3.77593,1.8661 8.16343,3.7129 9.75,4.1039 1.58658,0.3911 3.78468,1.2739 4.88468,1.9618 1.1,0.6879 12.575,4.509 25.5,8.4913 12.925,3.9824 29.8,9.2183 37.5,11.6355 7.7,2.4171 19.85,6.1124 27,8.2117 14.46788,4.2478 60.33007,18.4182 91,28.117 16.20597,5.1248 30.25524,9.4296 60.5,18.5379 14.025,4.2237 32.025,9.6778 40,12.1204 32.74223,10.0281 79.20511,23.4473 79.64863,23.0038 0.19674,-0.1967 -2.23122,-1.1587 -5.39546,-2.1378 -9.49045,-2.9365 -14.67975,-5.5203 -13.48541,-6.7147 1.24747,-1.2474 11.31065,1.847 21.00927,6.4604 7.40641,3.5231 8.64316,4.8171 3.49399,3.6558 -5.36414,-1.2099 -5.14918,-0.4437 0.42478,1.5139 13.64061,4.7907 23.61675,7.3574 25.65368,6.6004 3.35571,-1.2472 11.82537,1.6528 24.67506,8.4488 3.89717,2.0612 13.73936,5.224 21.47546,6.9012 3.85,0.8347 15.55,4.433 26,7.9961 18.9343,6.4561 30.8787,10.1665 43.8134,13.6103 6.3209,1.683 6.8498,1.6936 7.3168,0.1475 0.2768,-0.9166 1.5525,-3.9166 2.8347,-6.6666 1.2823,-2.75 2.6433,-6.0464 3.0246,-7.3254 0.3812,-1.2789 0.8504,-2.168 1.0427,-1.9758 0.1922,0.1923 -0.7712,4.3289 -2.1409,9.1925 -1.3697,4.8636 -2.3556,8.9586 -2.1909,9.1 1.1405,0.9788 18.9257,7.5087 20.4511,7.5087 1.0469,0 2.7911,0.6169 3.876,1.371 1.0849,0.754 4.252,1.8565 7.0382,2.4499 6.322,1.3465 19.6134,5.6542 22.6532,7.3419 1.2546,0.6965 2.5061,1.3044 2.7811,1.3509 2.1375,0.3616 5,1.7739 5,2.4668 0,0.4652 -1.2375,0.4267 -2.75,-0.085 -3.5479,-1.2014 -22.8443,-6.8658 -26.75,-7.8525 -1.65,-0.4168 -9.0265,-2.6784 -16.3921,-5.0258 -13.1047,-4.1764 -13.5098,-4.2398 -18.8748,-2.9528 -5.0054,1.2008 -5.5963,1.1598 -6.7892,-0.4716 -0.7186,-0.9827 -1.0799,-2.3774 -0.8029,-3.0993 0.277,-0.7218 -0.3164,-1.557 -1.3187,-1.856 -1.0023,-0.2989 -12.1723,-3.765 -24.8223,-7.7023 -12.65,-3.9373 -26.6,-8.1777 -31,-9.4231 -7.4829,-2.118 -18.24591,-5.4497 -56.5,-17.4894 -8.525,-2.6831 -22.475,-6.9707 -31,-9.5279 -8.525,-2.5572 -17.3,-5.2528 -19.5,-5.9901 -2.2,-0.7372 -10.075,-3.1591 -17.5,-5.3818 -34.70262,-10.3886 -61.40716,-18.5036 -71,-21.5756 -5.775,-1.8494 -18.375,-5.6729 -28,-8.4966 -9.625,-2.8238 -22,-6.6604 -27.5,-8.5259 -5.5,-1.8655 -19,-6.1559 -30,-9.5342 -11,-3.3783 -27.65,-8.5186 -37,-11.423 -24.08112,-7.4801 -109.77274,-33.9836 -123.5,-38.1971 -6.325,-1.9414 -18.475,-5.7132 -27,-8.3818 -8.525,-2.6686 -20.675,-6.4318 -27,-8.3628 -14.38005,-4.39 -61.81001,-19.0354 -98,-30.2604 -15.125,-4.6913 -28.3499,-8.7678 -29.38866,-9.0588 -1.77876,-0.4983 -1.84633,-0.072 -1.16128,7.3323 1.26737,13.6976 1.57727,23.3614 0.74916,23.3614 -0.65346,0 -2.00972,-6.1971 -3.72054,-17 -0.13065,-0.825 -0.81455,-4.7663 -1.51978,-8.7584 l -1.28223,-7.2585 -16.08833,-5.0538 c -20.24006,-6.3581 -20.98411,-6.5894 -62.58834,-19.454 -44.43124,-13.7388 -75.18532,-23.6233 -74.77549,-24.0331 0.17801,-0.178 6.16281,1.4574 13.29957,3.6343 7.13676,2.1768 19.27592,5.7846 26.97592,8.0173 7.7,2.2326 24.8,7.3635 38,11.402 13.2,4.0384 33.225,10.1123 44.5,13.4975 11.275,3.3852 22.48881,6.7952 24.91958,7.5779 2.43077,0.7826 4.62952,1.213 4.88612,0.9564 0.25659,-0.2566 -0.0409,-3.0677 -0.66117,-6.247 -0.62024,-3.1794 -1.55942,-9.8306 -2.08708,-14.7806 -1.40601,-13.1901 -12.54893,-92.4518 -21.01729,-149.5 -1.91978,-12.93285 -0.77618,-11.67827 -11.27916,-12.37377 -5.09355,-0.33729 -16.011,-0.89871 -24.261,-1.24761 -34.92414,-1.47697 -35.71279,-2.03955 -2.19,-1.56222 l 35.81,0.5099 -0.57496,-2.41315 C 355.22882,975.58592 354.11138,968.2 353.06185,960.5 c -2.34659,-17.21602 -7.37666,-53.04155 -10.17932,-72.5 -1.14867,-7.975 -2.44983,-17.2 -2.89147,-20.5 -0.44164,-3.3 -2.40512,-17.025 -4.36328,-30.5 -1.95817,-13.475 -7.43196,-51.9429 -12.16399,-85.48421 -4.73202,-33.54132 -8.91315,-61.21632 -9.29138,-61.5 -0.37824,-0.28369 -0.73678,-3.74115 -0.79677,-7.68326 -0.0864,-5.68013 0.17455,-7.05863 1.25765,-6.64301 0.88144,0.33824 1.36671,-0.20271 1.36671,-1.52351 0,-1.12639 0.45318,-2.32806 1.00706,-2.67038 1.90539,-1.17759 2.29579,2.75108 0.75285,7.57599 -0.85007,2.65824 -1.14071,4.96811 -0.64586,5.13306 1.22997,0.40999 4.15474,17.63918 3.52615,20.77174 -0.74253,3.70034 1.47755,18.00923 2.40557,15.50451 0.68016,-1.83571 0.81083,-1.78643 1.78254,0.67226 1.37845,3.48788 3.43616,14.91567 2.80025,15.55159 -0.27341,0.27341 -0.94917,-1.23582 -1.50168,-3.35384 -3.84541,-14.74107 -3.99884,-12.43658 -0.60916,9.14906 1.38191,8.8 3.8364,25.225 5.45444,36.5 1.61804,11.275 3.84869,26.35 4.95702,33.5 1.10832,7.15 2.47033,16.15 3.02668,20 0.55635,3.85 1.94055,12.73397 3.07599,19.74216 1.13544,7.00819 2.68859,17.58319 3.45144,23.5 1.47066,11.40675 7.49919,52.27578 12.3263,83.56331 1.59574,10.34301 3.30389,19.19663 3.79588,19.67472 0.86647,0.84199 47.91507,3.06365 106.39453,5.02401 15.675,0.52546 32.775,1.20166 38,1.50268 5.225,0.30101 15.125,0.75412 22,1.00691 6.875,0.25278 15.65,0.67866 19.5,0.9464 3.85,0.26773 16.675,0.74055 28.5,1.05071 11.825,0.31015 23.075,0.77592 25,1.03503 1.925,0.25912 15.875,0.92913 31,1.48892 15.125,0.55978 30.425,1.17943 34,1.37698 3.575,0.19755 14.825,0.66051 25,1.02881 17.43063,0.63092 72.40098,2.88879 100,4.10743 6.875,0.30357 20.6,1.03948 30.5,1.63535 9.9,0.59588 22.725,1.17238 28.5,1.28108 5.775,0.1088 17.025,0.5035 25,0.8773 7.975,0.3737 20.575,0.915 28,1.2028 7.425,0.2878 18.45,0.7284 24.5,0.979 6.05,0.2507 23.825,0.905 39.5,1.4541 15.675,0.5491 32.55,1.2267 37.5,1.5057 4.95,0.279 14.4,0.7628 21,1.0751 6.6,0.3123 15.7048,0.7515 20.2328,0.976 4.5281,0.2245 12.4031,0.4491 17.5,0.4992 5.097,0.05 13.9922,0.4905 19.7672,0.9788 5.775,0.4883 18.0538,1.0228 27.2863,1.1877 13.3068,0.2377 16.9602,0.018 17.6254,-1.0577 0.4616,-0.7467 0.8999,-9.7467 0.9739,-20.00005 0.074,-10.25335 0.3706,-22.69245 0.659,-27.64245 0.2885,-4.95 0.7264,-16.875 0.9732,-26.5 0.8317,-32.43747 1.4066,-55.38621 1.9415,-77.5 0.2927,-12.1 0.8226,-32.20421 1.1774,-44.67602 l 0.6452,-22.67601 -10.4783,-16.82399 c -5.7631,-9.25319 -11.3236,-18.28648 -12.3566,-20.07398 -1.033,-1.7875 -2.5929,-3.25 -3.4664,-3.25 -0.8735,0 -7.1366,1.80889 -13.9179,4.01976 -13.5534,4.41867 -28.285,7.2159 -37.5627,7.13235 -3.3,-0.0297 -8.925,0.57104 -12.5,1.33501 -9.9021,2.11608 -32.4333,3.79206 -41.4516,3.08338 -5.34882,-0.42032 -11.06718,-0.12479 -17.0484,0.88106 -4.95,0.83244 -14.20485,1.52138 -20.56634,1.53098 -6.36149,0.01 -14.01149,0.43935 -17,0.95499 -2.98851,0.51564 -19.75153,1.18285 -37.25114,1.48269 -17.49962,0.29984 -32.31505,0.85267 -32.92318,1.22852 -1.34438,0.83087 -42.55009,2.62666 -63.25934,2.75692 -18.28075,0.11497 -31.8479,1.8739 -44.7702,5.80426 -8.20272,2.49489 -10.2722,2.79665 -12.89922,1.88086 C 752.5786,781.60854 747.56393,781.73817 741,783.5 c -3.025,0.81194 -7.075,1.49629 -9,1.52078 -4.21612,0.0536 -14.3046,3.39301 -14.8074,4.90141 -0.2279,0.6837 1.66073,1.07781 5.16505,1.07781 3.03837,0 5.80243,0.45 6.14235,1 0.39273,0.63545 -2.35588,1 -7.53977,1 -7.77481,0 -8.28938,0.14085 -10.96023,3 -2.54928,2.72901 -5,3.90746 -5,2.40429 0,-0.32764 0.62018,-1.79014 1.37818,-3.25 0.758,-1.45986 1.95578,-3.8857 2.66174,-5.39075 1.07301,-2.28761 1.87323,-2.71336 4.87855,-2.5956 1.97725,0.0775 5.78667,-0.82862 8.46538,-2.01354 2.67871,-1.18492 6.72568,-2.15927 8.99327,-2.16522 2.26758,-0.006 6.3319,-0.68096 9.03181,-1.5 5.81338,-1.76355 11.11203,-1.90074 15.41931,-0.39921 2.63977,0.92023 4.57072,0.62112 12.39923,-1.92066 5.09989,-1.65585 12.19753,-3.23986 15.77253,-3.52003 3.575,-0.28017 8.75,-1.02061 11.5,-1.64544 2.75,-0.62482 10.4,-1.08106 17,-1.01386 20.09592,0.20462 48.30711,-0.95905 61.5,-2.53677 6.875,-0.82218 26.675,-1.95071 44,-2.50786 44.51478,-1.43153 63.39321,-2.44862 65.05823,-3.50506 0.79297,-0.50314 8.41677,-0.94817 16.94177,-0.98896 18.9489,-0.0907 33.6466,-1.17868 41.1443,-3.04577 3.1044,-0.77306 8.5044,-1.40815 12,-1.41132 9.4323,-0.009 26.839,-3.2765 39.8557,-7.48253 6.325,-2.04377 11.8886,-4.08111 12.3636,-4.52741 0.6924,-0.65059 -8.8826,-17.78699 -17.2908,-30.94562 -0.8651,-1.35373 -1.0566,-2.14327 -0.4256,-1.75453 0.6309,0.38874 5.2326,7.16974 10.2259,15.06889 4.9933,7.89915 9.6564,14.84154 10.3625,15.42755 0.9312,0.77283 4.6113,0.16278 13.3989,-2.22117 6.6633,-1.80765 12.5601,-3.56167 13.104,-3.89782 1.1533,-0.71275 2.066,-17.50305 2.781,-51.1616 0.2805,-13.2 0.7123,-28.5 0.9598,-34 0.2474,-5.5 0.6999,-18.325 1.0056,-28.5 0.3056,-10.175 0.7855,-24.575 1.0664,-32 0.2809,-7.425 1.1876,-34.875 2.015,-61 0.8274,-26.125 1.6821,-49.3 1.8994,-51.5 0.2173,-2.2 0.6691,-20.2 1.004,-40 0.3348,-19.8 1.0233,-45 1.53,-56 1.2611,-27.38073 1.9134,-45.96528 2.5538,-72.76269 0.5085,-21.28049 0.4268,-22.80645 -1.2548,-23.43482 -4.3036,-1.60813 -12.3499,-7.13194 -19.2987,-13.24851 -14.2143,-12.51201 -17.7818,-15.04642 -26.1275,-18.56143 -4.6049,-1.93946 -13.3225,-6.15399 -19.3725,-9.36561 -9.6976,-5.14795 -10.9668,-6.12273 -10.7194,-8.23313 0.661,-5.63981 9.983,-12.51867 25.773,-19.01829 12.2399,-5.03834 15.4468,-6.83019 20.351,-11.37118 2.9725,-2.75239 7.8164,-8.72257 10.7641,-13.26708 2.9477,-4.54451 7.0407,-10.13188 9.0954,-12.41638 l 3.7359,-4.15363 -3,0.66464 c -11.8388,2.62286 -17.9199,4.2111 -37,9.66341 -3.85,1.10017 -16.225,4.30811 -27.5,7.12875 -27.1258,6.786 -42.3992,10.74803 -48.5,12.58126 -2.75,0.82635 -5.8476,1.66644 -6.8836,1.86688 -1.8091,0.35001 -10.7321,3.49848 -11.4777,4.04985 -0.1987,0.14696 0.8795,1.41711 2.396,2.82258 2.074,1.92211 2.3494,2.55538 1.1113,2.55538 -0.9053,0 -1.646,-0.45 -1.646,-1 0,-0.55 -1.0125,-1.00689 -2.25,-1.01531 -1.4147,-0.01 -1.8055,-0.29786 -1.0528,-0.7764 0.6585,-0.41859 0.8835,-1.26142 0.5,-1.87296 -0.6535,-1.04224 -12.3106,1.49579 -32.6972,7.119 -9.0554,2.49774 -14.99775,4.07031 -26,6.88057 -10.26567,2.62212 -14.52995,3.72485 -51.5,13.31772 -11.825,3.06832 -24.425,6.18814 -28,6.93295 -5.86868,1.22266 -38.75661,9.57688 -56.5,14.35218 -3.85,1.03615 -16.9,4.42793 -29,7.53728 -12.1,3.10935 -25.10195,6.56272 -28.89323,7.67417 -3.79128,1.11144 -7.61628,2.17308 -8.5,2.35919 -1.54748,0.3259 -8.9068,2.26659 -40.10677,10.57635 -7.975,2.12406 -17.2,4.53811 -20.5,5.36457 -3.3,0.82646 -10.95,2.87164 -17,4.54484 -6.05,1.67321 -20,5.28354 -31,8.02297 -11,2.73943 -21.36125,5.42376 -23.02499,5.96519 -3.26148,1.06138 -7.54053,2.18652 -40.47501,10.64261 -36.30512,9.32151 -60.76343,15.24132 -70,16.94258 -1.925,0.35456 -7.325,1.74496 -12,3.08977 -4.675,1.34481 -13.675,3.80239 -20,5.46127 -20.54836,5.3893 -26.9467,7.76935 -27.43793,10.20634 -2.94025,14.58642 -7.05099,24.58124 -13.06898,31.77583 -2.62784,3.14163 -13.34558,12.00039 -22.86522,18.89929 -7.4387,5.39084 -14.10639,7.82934 -21.75543,7.95637 -1.44515,0.024 -3.18775,0.71863 -3.87244,1.54363 -0.68469,0.825 -2.03469,1.5 -3,1.5 -0.96531,0 -2.31531,-0.675 -3,-1.5 -1.50869,-1.81786 -7.36446,-1.98493 -8.76208,-0.25 -0.55384,0.6875 -1.31856,2.70734 -1.69938,4.48853 -1.1611,5.43065 -2.70308,4.98256 -1.96632,-0.5714 l 0.66431,-5.00781 -3.86827,-1.07408 c -8.27534,-2.29778 -6.29541,-5.0516 -29.23706,40.66476 -26.58033,52.96723 -50.63767,100.5036 -60.60342,119.75 -4.27184,8.25 -15.53586,30.3 -25.03117,49 -16.25518,32.01288 -37.65355,74.08522 -46.79202,92 -8.46851,16.60142 -9.66719,19.42288 -7.97601,18.77391 1.32553,-0.50865 1.47961,-0.0649 0.93061,2.68016 -0.40795,2.03973 -2.84302,5.64078 -6.40857,9.47715 -7.56365,8.13814 -18.72317,29.14078 -17.77571,33.45455 0.65855,2.99834 -1.33895,6.11423 -3.91964,6.11423 -1.58683,0 -6.62764,9.48464 -33.70941,63.4267 -11.57718,23.05968 -23.53165,46.68468 -26.56549,52.5 C 101.24653,913.74201 88.861167,938.075 76.757346,962 55.566336,1003.8872 53,1008.6773 53,1006.3432 c 0,-0.5812 15.461202,-31.83367 34.358227,-69.44996 18.897023,-37.61628 43.422023,-86.45251 54.500003,-108.52495 11.07797,-22.07244 20.14954,-40.97244 20.15905,-42 0.01,-1.02756 1.022,-2.82676 2.25,-3.99821 2.04344,-1.94936 13.29513,-23.26819 12.55358,-23.78555 -0.17647,-0.12312 -2.34586,-0.80581 -4.82086,-1.51709 -2.475,-0.71127 -5.66544,-2.12176 -7.08987,-3.13441 l -2.58987,-1.84118 -3.00849,4.26818 c -4.68107,6.64108 -13.20517,9.63205 -17.82448,6.25433 -1.56834,-1.14679 -1.7062,-1.79319 -0.79979,-3.75 l 1.09519,-2.36436 1.10943,2.81714 c 0.90661,2.30213 1.52062,2.69224 3.35866,2.13394 C 152.24415,759.63057 158,752.43999 158,746.77318 c 0,-3.8446 -4.23121,-7.15962 -8.29636,-6.49994 -4.5315,0.73536 -6.25716,-0.37047 -4.80689,-3.08032 1.80683,-3.37609 1.35049,-10.67007 -0.8341,-13.33214 -2.44184,-2.97554 -4.73994,-1.87745 -7.44167,3.5558 -1.61339,3.24458 -1.71304,4.33278 -0.70489,7.69768 0.64577,2.15539 2.50531,5.43504 4.13232,7.28809 3.14918,3.58672 6.45086,10.43172 5.4935,11.38907 -0.91013,0.91013 -2.33599,-0.94614 -7.61014,-9.90735 C 133.69782,736.69026 133,734.75499 133,730.20685 c 0,-4.29145 0.46624,-5.764 2.45455,-7.7523 5.73829,-5.7383 13.09797,-0.81449 15.01507,10.04545 0.6075,3.44138 1.311,4.3028 5.03732,6.16816 4.26393,2.13449 4.35817,2.13837 6.06712,0.25 2.58914,-2.86096 8.85479,-2.58022 11.97139,0.53639 3.09863,3.09862 3.31898,8.45318 0.45455,11.04545 -2.52874,2.28848 -2.54503,3.5 -0.0471,3.5 3.92059,0 6.6563,-2.23648 9.54971,-7.807 1.62636,-3.13115 4.80727,-9.068 7.0687,-13.193 8.0214,-14.63161 22.08945,-42.19004 49.2614,-96.5 15.13446,-30.25 29.64347,-58.85756 32.24225,-63.57235 2.59879,-4.71479 11.33357,-21.81479 19.41062,-38 8.07706,-16.18521 15.06094,-30.15123 15.51974,-31.03561 C 311.83103,494.59003 350,417.955 350,417.56811 c 0,-0.28351 -1.96854,-2.48401 -4.37452,-4.89 -2.42371,-2.42371 -6.4824,-8.45576 -9.10124,-13.52632 -2.5997,-5.03348 -5.13202,-9.15179 -5.6274,-9.15179 -0.81849,0 -29.30568,7.24043 -39.70787,10.09233 -4.22883,1.15939 -4.42837,1.4129 -10.46407,13.2948 -3.38417,6.66208 -8.42073,17.28787 -11.19235,23.61287 -2.77161,6.325 -6.22314,13.525 -7.67004,16 -1.44691,2.475 -5.47132,10.4625 -8.94313,17.75 -3.47181,7.2875 -6.89896,13.25 -7.61588,13.25 -1.56172,0 -1.61665,-0.47422 -0.32007,-2.76357 1.74923,-3.08859 20.71094,-44.6981 21.49509,-47.16877 0.41779,-1.31632 3.63103,-8.17068 7.14055,-15.23192 5.39526,-10.85543 7.33994,-15.87512 6.13093,-15.82547 -0.30781,0.0126 -31.57394,7.90995 -79.25,20.01725 -19.8,5.02819 -40.275,10.17095 -45.5,11.42834 -15.88836,3.82354 -33.93626,8.44739 -45,11.52897 -5.775,1.60851 -14.325,3.85577 -19,4.99393 -4.675,1.13815 -10.975,2.75095 -14,3.584 -3.025,0.83306 -15.066994,3.97624 -26.759987,6.98485 -11.692993,3.00861 -25.867993,6.76699 -31.5,8.35196 C 2.1281029,474.57451 0,474.98055 0,473.4752 c 0,-1.28903 8.109709,-4.37604 17,-6.47115 5.076232,-1.19628 6.077658,-1.46495 11,-2.95111 1.925,-0.5812 3.5,-1.02683 3.5,-0.99028 0,0.0365 0.675,-0.12503 1.5,-0.35906 6.460194,-1.83252 15.011471,-3.96341 17.5,-4.36081 1.65,-0.26349 3.9,-0.8809 5,-1.37202 2.216837,-0.98975 23.720614,-6.74129 30,-8.02398 2.2,-0.4494 6.7,-1.53039 10,-2.4022 3.3,-0.87181 7.3406,-1.82557 8.97911,-2.11947 2.75624,-0.4944 8.3542,-2.0533 16.22764,-4.51903 1.76371,-0.55235 4.01371,-1.1942 5,-1.42635 0.98629,-0.23215 3.36825,-0.85217 5.29325,-1.37784 8.72211,-2.38178 19.84561,-5.28237 23.5,-6.12792 2.2,-0.50904 8.275,-2.07156 13.5,-3.47227 8.7742,-2.35217 12.81896,-3.40821 25,-6.52719 2.475,-0.63373 5.4,-1.31947 6.5,-1.52386 1.1,-0.20438 3.8,-0.78958 6,-1.30043 2.2,-0.51085 6.475,-1.47828 9.5,-2.14984 3.025,-0.67157 6.4,-1.56271 7.5,-1.98031 2.67358,-1.01499 33.68687,-8.90236 40,-10.17288 7.22466,-1.45397 17.81981,-4.90326 19.09916,-6.21781 1.10516,-1.13556 4.17339,-11.16644 9.36889,-30.62939 3.41521,-12.79379 9.07006,-27.05011 12.5277,-31.58331 1.40909,-1.84742 4.13666,-4.56001 6.06126,-6.02797 6.77845,-5.17017 22.10567,-2.9915 26.87691,3.8204 2.14864,3.06762 1.9758,5.65574 -0.93392,13.98399 -2.82253,8.0787 -3.36804,20.15102 -1.36195,30.14011 0.94204,4.69073 1.4935,5.66678 3.20171,5.66678 2.6832,0 18.22957,-3.71681 27.16024,-6.49344 l 7,-2.17636 3.71839,-6.9151 c 2.04511,-3.80331 3.73261,-7.27299 3.75,-7.71041 0.0174,-0.43743 -1.49186,-0.50951 -3.35387,-0.1602 -2.03969,0.38265 -3.65322,0.2019 -4.05902,-0.45468 -0.40426,-0.65412 0.16511,-1.08981 1.42421,-1.08981 2.62196,0 10.58796,-7.27248 9.6422,-8.80275 -0.38064,-0.61588 -2.36378,-1.40011 -4.40699,-1.74273 -10.01386,-1.67918 -13.90125,-4.61844 -10.354,-7.82865 1.95147,-1.76606 9.63112,-2.25678 10.607,-0.67778 0.33727,0.54572 -1.10439,0.88068 -3.39692,0.78926 -2.19057,-0.0874 -4.28329,0.1416 -4.65047,0.50879 -1.70143,1.70142 0.91014,3.67646 6.26581,4.73861 3.19751,0.63414 6.5689,1.36708 7.49197,1.62875 1.3264,0.37601 3.81643,-3.77953 11.87558,-19.81887 C 416.6913,285.72205 422,275.80775 422,278.3388 c 0,1.52985 -8.00086,18.2827 -25.28586,52.94556 -10.79131,21.64061 -17.71971,36.66009 -17.52919,38 0.26744,1.88083 0.84394,2.167 3.81505,1.89376 1.925,-0.17704 6.875,-1.23229 11,-2.34499 4.125,-1.11271 11.55,-3.09205 16.5,-4.39853 21.82397,-5.76013 27.55412,-7.80205 28.11001,-10.01689 0.29367,-1.17006 -0.39845,-6.05324 -1.53804,-10.8515 -3.79544,-15.98084 -2.29226,-22.48421 7.17778,-31.0541 6.56148,-5.9378 11.04509,-7.98555 26.65142,-12.17221 21.42046,-5.74639 27.03201,-7.08926 36.59883,-8.7583 5.5,-0.95953 11.35,-2.14681 13,-2.63839 5.76866,-1.71864 21.0816,-3.9027 30.80035,-4.39299 5.39019,-0.27193 10.17744,-0.72748 10.63835,-1.01233 1.82661,-1.12891 29.17386,-0.53338 39.0613,0.85062 5.775,0.80836 16.575,1.75589 24,2.10562 7.425,0.34973 15.75,1.04164 18.5,1.53758 18.98155,3.42316 28.20113,5.45303 29.5,6.49499 1.20062,0.96316 4.99279,0.2376 19,-3.63528 9.625,-2.66122 18.99807,-5.07868 20.82904,-5.37213 1.83097,-0.29344 4.08097,-0.92655 5,-1.40691 0.91903,-0.48036 3.92096,-1.37349 6.67096,-1.98472 2.75,-0.61124 14.225,-3.53615 25.5,-6.49981 11.275,-2.96366 27.7,-7.25958 36.5,-9.54648 36.43222,-9.46783 47.35108,-12.36131 54,-14.30994 3.85,-1.12833 12.4,-3.28525 19,-4.79316 6.6,-1.50791 19.2,-4.63474 28,-6.94852 8.8,-2.31377 21.85,-5.70763 29,-7.5419 12.25033,-3.14271 20.15789,-5.26886 26.94957,-7.24608 2.41221,-0.70225 3.15625,-1.66888 4.08406,-5.30592 0.62398,-2.44598 1.73158,-5.56967 2.46134,-6.94154 1.39119,-2.61528 8.96239,-9.99431 10.25459,-9.99431 1.38362,0 0.76841,3.74019 -0.83395,5.07004 C 955.38114,211.41835 949.24406,223 951.50427,223 c 0.3966,0 7.08289,-1.62722 14.85841,-3.61603 7.77553,-1.98882 16.83732,-4.22288 20.13732,-4.96457 3.3,-0.7417 7.575,-1.83072 9.5,-2.42005 4.4331,-1.35718 26.9357,-7.23275 61.5,-16.05803 33.1609,-8.46694 46.9067,-12.07657 56,-14.70553 7.0601,-2.04113 26.5318,-6.7654 31.5,-7.64258 0.825,-0.14566 2.9418,-0.82551 4.7039,-1.51078 l 3.2039,-1.24594 -0.5915,-25.66825 c -0.3254,-14.11753 -0.2631,-25.36422 0.1383,-24.99265 0.4015,0.37158 1.3436,2.39658 2.0938,4.5 0.9423,2.6424 1.3774,3.14724 1.4077,1.63343 0.024,-1.20504 0.3814,-2.39975 0.7939,-2.6549 0.4125,-0.25515 0.6915,5.62756 0.6199,13.07269 -0.072,7.44512 0.3785,17.63982 1,22.65489 l 1.1301,9.1183 5.3325,-0.28792 c 6.1169,-0.33027 6.1447,0.73856 0.1,3.82253 -2.1627,1.10332 -3.9245,2.55939 -3.9151,3.23571 0.038,2.73978 3.8702,15.63372 6.4579,21.72968 5.2638,12.39995 12.7801,26.45494 18.8868,35.31727 3.376,4.89936 8.7373,13.01976 11.914,18.04533 6.5472,10.35763 17.6001,22.15326 25.6941,27.42057 3.0085,1.9578 9.0835,6.42909 13.5,9.93619 4.4166,3.50709 10.7301,7.68048 14.0301,9.27419 3.7016,1.78764 8.2984,5.25899 12,9.06191 3.3,3.39034 11.1265,9.98449 17.3923,14.65367 13.7006,10.2096 35.6681,31.5459 36.6676,35.61409 1.0507,4.27645 -0.4999,5.12372 -6.729,3.67669 -10.7128,-2.48857 -27.101,-11.17739 -36.8309,-19.52724 -3.1036,-2.66338 -10.6643,-6.96647 -14,-7.96794 -3.4101,-1.02379 -13.6591,-7.25515 -18.3305,-11.14492 -2.1069,-1.75426 -7.5638,-5.08247 -12.1266,-7.39603 -7.2451,-3.67362 -9.5467,-4.3248 -18.1695,-5.14065 -10.6754,-1.01007 -20.0881,-3.24982 -33.2597,-7.91416 -4.6124,-1.63337 -8.5746,-2.78141 -8.8048,-2.55121 -0.4538,0.45379 2.8493,52.04116 5.1954,81.14224 0.7982,9.9 2.3731,30.375 3.4999,45.5 3.2035,43.00282 4.9724,61.22494 6.5084,67.04758 1.0149,3.84748 1.1055,5.57044 0.3183,6.05693 -1.0421,0.64403 -0.8165,5.45898 1.6817,35.89549 0.2483,3.025 1.1421,15.175 1.9862,27 1.5705,22.00128 2.1719,29.96941 5.5479,73.5 2.9485,38.01936 3.9864,50.7115 4.4155,54 0.2154,1.65 0.6793,8.175 1.031,14.5 0.8797,15.82279 2.4418,27.32948 3.8375,28.26792 0.6431,0.43244 4.9943,0.68098 9.6693,0.5523 11.9155,-0.32797 24.5313,0.95745 31,3.15858 3.025,1.02933 6.7375,2.13877 8.25,2.46541 1.5545,0.33571 2.75,1.26433 2.75,2.13611 0,1.27239 -0.8282,1.41803 -4.7334,0.83241 -2.6034,-0.3904 -6.1157,-1.28738 -7.8052,-1.9933 -2.6898,-1.12387 -17.3374,-2.91156 -22.9614,-2.80236 -1.1,0.0214 -5.2625,0.11626 -9.25,0.21088 L 1203,736 l 0.027,6.75 c 0.015,3.7125 0.4813,11.025 1.0365,16.25 0.5552,5.225 1.3947,15.50419 1.8656,22.84265 0.4708,7.33845 1.3158,13.80236 1.8777,14.36424 0.6114,0.61141 0.8056,3.88675 0.4838,8.15735 -0.2958,3.92467 0.4096,18.38576 1.5677,32.13576 1.158,13.75 3.0524,36.8766 4.2096,51.39244 2.1103,26.46997 2.4674,29.10756 3.9412,29.10756 0.4373,0 1.2368,1.267 1.7767,2.81555 0.5398,1.54855 5.9139,10.66105 11.9425,20.25 17.7171,28.18041 20.2086,31.93445 21.194,31.93445 0.5145,0 2.9524,-3.2625 5.4175,-7.25 8.7322,-14.1251 18.6525,-30.43357 27.2209,-44.75 10.2994,-17.20863 16.598,-27.2917 23.6744,-37.89903 0.9543,-1.43054 2.1715,-3.50097 2.7048,-4.60097 1.3093,-2.70063 5.01,-7.21232 5.0378,-6.14181 0.032,1.21949 -10.2907,19.00604 -28.5189,49.14181 -23.3838,38.65904 -32.4589,54.27756 -32.4589,55.86259 0,1.39064 18.8765,32.03631 23.6005,38.31491 3.0524,4.0569 3.0881,4.0617 44.1495,5.9372 17.2265,0.7869 17.3247,0.6585 7.25,-9.4764 -7.8924,-7.9394 -8.7499,-10.608 -3.75,-11.66909 6.7133,-1.42465 16.671,-6.44038 28.7648,-14.489 18.2689,-12.15828 23.3434,-16.385 26.3887,-21.98033 3.06,-5.62221 7.5965,-20.01259 7.5965,-24.09715 0,-1.50965 0.9485,-6.71785 2.1078,-11.57377 1.6903,-7.08039 2.0143,-10.90848 1.6355,-19.32896 -0.4816,-10.70617 -0.792,-11.91498 -9.2434,-36 -7.524,-21.44209 -10.3828,-37.07167 -8.5492,-46.74006 1.1546,-6.08797 12.9325,-38.10453 16.9324,-46.02843 4.3441,-8.60546 12.4997,-15.62035 31.6169,-27.19448 3.85,-2.33091 8.575,-5.72149 10.5,-7.53463 4.2383,-3.99204 14.4204,-9.5024 17.5586,-9.5024 2.6297,0 11.5173,-4.24613 16.0358,-7.66122 1.7019,-1.28633 3.7513,-2.33878 4.5542,-2.33878 0.8029,0 3.5085,-1.29922 6.0124,-2.88716 2.5039,-1.58794 5.6295,-3.22039 6.9458,-3.62765 7.4721,-2.31195 19.4789,-11.43703 27.2011,-20.67263 2.903,-3.47191 8.1144,-9.68756 11.5808,-13.81256 7.8057,-9.28876 10.0692,-14.03887 14.5334,-30.5 4.3074,-15.88266 6.2342,-26.44985 7.5671,-41.5 0.5601,-6.325 1.7395,-16.60506 2.6207,-22.84458 1.8338,-12.98364 1.6899,-14.15863 -3.2421,-26.48581 -5.4704,-13.67295 -10.3313,-22.426 -15.7722,-28.40156 -4.9855,-5.47538 -24.8486,-23.05487 -37.9046,-33.54674 -3.9551,-3.17828 -9.4507,-7.90328 -12.2126,-10.5 -2.7619,-2.59672 -8.363,-7.42131 -12.447,-10.72131 -4.0839,-3.3 -13.3763,-11.4605 -20.6496,-18.13444 -16.8231,-15.43669 -29.2241,-25.97857 -35.4417,-30.12841 -2.6887,-1.79457 -7.203,-6.06957 -10.0318,-9.5 -2.8288,-3.43043 -7.2945,-8.14436 -9.9237,-10.47538 -2.6292,-2.33103 -6.2292,-6.80536 -7.9999,-9.94294 -1.9738,-3.49729 -10.2359,-13.0232 -21.3521,-24.61814 -26.7303,-27.88135 -31.6861,-32.89608 -47.6755,-48.24258 -7.9985,-7.67696 -18.3427,-18.68311 -22.9869,-24.45811 -4.6443,-5.775 -12.725,-15.08702 -17.9572,-20.69337 -30.7049,-32.90086 -40.5157,-46.60332 -55.3507,-77.30663 -15.4807,-32.03961 -18.8596,-44.88285 -16.7657,-63.72584 0.5974,-5.37579 1.9479,-12.58388 3.0012,-16.01799 2.053,-6.69333 4.0059,-17.56608 6.602,-36.75617 2.5645,-18.957378 2.5618,-72.014357 0,-86.25 -0.5298,-2.93885015 -0.3523,-3.25 1.8544,-3.25 2.1067,0 2.5252,0.58090819 3.0619,4.25 0.3419,2.3375 0.8922,19.267789 1.2228,37.622864 0.4959,27.53008 0.3117,35.846184 -1.0521,47.5 -2.1169,18.088686 -3.3586,25.819886 -4.9762,30.982396 -3.7544,11.98272 -4.925,19.34766 -4.9325,31.03546 -0.01,14.47127 1.8111,22.15172 9.3686,39.52492 16.0557,36.90874 30.3681,58.08901 60.3683,89.3365 4.3508,4.53167 12.4203,13.6413 17.9322,20.24362 5.512,6.60233 19.7359,21.67924 31.6088,33.50424 29.8892,29.76866 56.9377,58.38246 66.3219,70.16007 4.3283,5.43221 19.4112,20.52428 28.6555,28.67296 20.191,17.79796 27.2863,24.13327 33.6748,30.06795 3.907,3.62946 11.107,9.84126 16,13.804 4.893,3.96273 10.4668,8.68773 12.3862,10.5 1.9195,1.81226 8.5058,7.57002 14.6364,12.79502 34.2213,29.16657 38.8714,34.12755 46.591,49.70643 2.2991,4.63977 4.9908,8.86974 5.9815,9.39994 0.9906,0.5302 1.8012,1.64972 1.8012,2.48783 0,0.83811 0.4028,1.27486 0.8952,0.97056 2.4547,-1.51705 2.9273,13.31797 0.7101,22.2909 -2.2196,8.98317 -2.7747,15.17243 -1.3353,14.88766 1.7246,-0.34117 2.1736,12.74211 0.7638,22.25668 -1.1272,7.60733 -4.195,19.98321 -8.5522,34.5 -2.5667,8.55132 -10.9191,22.96893 -17.3796,30 -2.0214,2.2 -5.5238,6.475 -7.783,9.5 -2.2592,3.025 -5.9411,7.38044 -8.182,9.67875 -5.3008,5.4367 -19.8997,15.7939 -23.5554,16.7114 -1.5702,0.39411 -4.296,1.81571 -6.0573,3.15911 -1.7613,1.34339 -4.7373,2.95811 -6.6133,3.58824 -1.8761,0.63014 -4.1036,1.74089 -4.9502,2.46832 -3.0485,2.61949 -15.1599,8.39418 -17.6054,8.39418 -3.0969,0 -9.9869,3.97127 -16.4262,9.46777 -2.6849,2.29174 -9.0374,6.60618 -14.1168,9.58764 -15.7303,9.23322 -22.0364,14.89533 -26.1719,23.49914 -3.1057,6.46132 -13.0246,33.11536 -15.2241,40.91017 -3.4274,12.14593 0.4231,31.44304 11.7679,58.97673 3.5413,8.59456 5.3751,15.67267 6.789,26.2047 0.9068,6.75437 0.8381,8.80458 -0.4021,12 -1.9407,5.00037 -4.5712,16.68826 -4.5712,20.31057 0,8.04474 -7.6337,25.76535 -13.6059,31.58423 -6.0666,5.91087 -32.6546,23.46105 -41.643,27.48765 -4.2619,1.9093 -7.7494,3.7459 -7.75,4.0813 -6e-4,0.3354 3.841,4.5395 8.537,9.3424 5.3623,5.4844 9.0695,8.5285 9.9668,8.1842 0.7858,-0.3015 10.7811,0.06 22.2119,0.8022 11.4308,0.7428 26.1832,1.4142 32.7832,1.492 6.6,0.078 13.35,0.3425 15,0.588 1.65,0.2456 12.225,0.7128 23.5,1.0383 25.1875,0.727 29.735,0.9194 43,1.8191 33.1386,2.2477 62.9543,3.8584 67.9177,3.669 1.8797,-0.072 4.8047,0.2084 6.5,0.6223 2.8315,0.6914 2.6348,0.8055 -2.4177,1.4018 -5.2849,0.6237 -22.6359,0.087 -65.5,-2.0261 -48.2437,-2.3783 -64.7616,-3.097 -92.5,-4.0252 -16.225,-0.5428 -33.775,-1.2471 -39,-1.5649 -5.225,-0.3179 -10.0954,-0.1655 -10.8231,0.3387 -1.0791,0.7477 -0.9419,2.1881 0.7442,7.8125 3.9702,13.2438 5.7401,29.2801 4.2448,38.4617 -3.1914,19.5963 -4.7335,26.1535 -8.2183,34.9447 -2.1162,5.3386 -4.3862,11.8456 -5.0445,14.4599 -1.3632,5.4138 -12.4682,24.3848 -20.7976,35.5295 -3.083,4.125 -9.9109,12 -15.173,17.5 -11.1854,11.691 -16.064,19.7827 -19.0418,31.5829 -1.8525,7.3413 -2.0452,10.1425 -1.5075,21.9171 0.7414,16.2336 3.0024,25.9115 9.1113,39 6.985,14.9653 14.4737,43.7477 16.0328,61.6202 0.6165,7.0678 0.3422,9.2858 -2.436,19.6958 -5.5074,20.6369 -11.5422,33.766 -23.067,50.184 -3.8609,5.5 -8.6615,12.475 -10.6681,15.5 -4.9353,7.4399 -21.3164,23.279 -29.6164,28.6364 -3.7182,2.4 -7.0107,4.3636 -7.3168,4.3636 -0.306,0 -1.9889,1.0795 -3.7397,2.3989 -6.037,4.5493 -24.3944,12.0667 -37.1833,15.2264 -8.3369,2.0598 -23.6282,6.7153 -39,11.8736 -14.7489,4.9493 -32.8289,10.0036 -39.5,11.0422 -2.475,0.3853 -9,2.267 -14.5,4.1815 -5.5,1.9145 -15.4178,4.7395 -22.0396,6.2778 -6.6218,1.5383 -13.7642,3.5175 -15.8721,4.3983 -2.2804,0.9528 -6.5167,1.5775 -10.4604,1.5426 l -6.6279,-0.059 7,-2.5489 z m 76.8535,-231.2184 c 2.2937,-3.9038 1.5703,-7.464 -1.9906,-9.7972 -2.4594,-1.6115 -2.6762,-1.6102 -3.87,0.022 -0.9095,1.2437 -1.0119,2.854 -0.3648,5.7341 0.5195,2.3121 0.5284,4.7275 0.021,5.715 -0.4834,0.9407 -0.669,2.2974 -0.4125,3.0149 0.6714,1.8779 4.2472,-0.6561 6.6169,-4.6892 z m 4.1424,-103.6408 c 4.2264,-6.8889 9.3313,-15.5991 11.3442,-19.3559 2.013,-3.7569 5.2908,-9.2579 7.2841,-12.2247 1.9933,-2.9667 10.0013,-16.1092 17.7954,-29.2056 l 14.1711,-23.8116 -0.6991,-21.1884 c -0.3845,-11.6536 -0.9857,-22.2609 -1.3361,-23.5716 -0.4854,-1.8162 -1.6538,0.8653 -4.9104,11.2693 -2.3504,7.5089 -4.675,13.4045 -5.1656,13.1012 -0.4907,-0.3032 -0.703,-1.0994 -0.4717,-1.7693 3.9625,-11.4793 10.4889,-33.2577 10.4785,-34.9667 -0.036,-6.0221 -0.6535,-6.5207 -8.8278,-7.1334 -4.2122,-0.3157 -15.3599,-0.8578 -24.7728,-1.2047 l -17.1143,-0.6306 -1.2303,3.3587 c -0.7336,2.0027 -1.4081,10.8274 -1.6706,21.8587 -0.2422,10.175 -0.8645,23.675 -1.3831,30 -0.5185,6.325 -0.9511,18.025 -0.9612,26 -0.028,21.7755 -0.981,64.7316 -1.5795,71.1659 -0.4544,4.8854 0.1317,10.8341 1.0675,10.8341 0.1635,0 3.7553,-5.6364 7.9817,-12.5254 z M 1156,1122.2516 c 0,-0.6316 1.082,-4.6591 2.4045,-8.95 1.3225,-4.2909 3.8253,-12.4613 5.5617,-18.1566 3.4475,-11.3071 5.0367,-13.2786 2.4539,-3.0441 -4.4593,17.6697 -10.4201,34.9175 -10.4201,30.1507 z m 40.5476,-16.6059 c 0.8712,-17.4483 1.4363,-32.491 1.2558,-33.4282 -0.2222,-1.1537 -1.2588,-0.1161 -3.2096,3.2127 l -2.8815,4.9168 0.617,16.5765 c 0.8235,22.1253 1.9011,41.1795 2.3058,40.7747 0.1807,-0.1807 1.0413,-14.6043 1.9125,-32.0525 z m -1.371,-37.3957 3.3234,-5.75 1.1132,-21 c 0.6123,-11.55 0.9233,-21.3375 0.691,-21.75 -0.2322,-0.4125 -2.8957,-0.75 -5.9187,-0.75 l -5.4965,0 0.488,21.75 c 0.2685,11.9625 0.5184,24.3375 0.5555,27.5 0.037,3.1625 0.4845,5.75 0.9941,5.75 0.5096,0 2.4221,-2.5875 4.25,-5.75 z m 16.2384,-26.4322 c 12.1215,-19.3186 11.847,-22.8178 -1.7902,-22.8178 -3.5787,0 -6.7016,0.3375 -6.9398,0.75 -0.9844,1.705 -1.8164,37.7234 -0.8489,36.75 0.5466,-0.55 4.8571,-7.157 9.5789,-14.6822 z m 64.1463,-25.5463 C 1274.5294,1013.5399 1253.613,981 1252.889,981 c -0.7714,0 -15.8043,23.7817 -18.7654,29.6865 -2.5868,5.1583 -3.1215,4.9328 13.8764,5.8528 6.875,0.3721 12.6086,0.7741 12.7413,0.8933 0.1327,0.1192 3.6721,0.3053 7.8652,0.4135 6.9238,0.1788 7.5625,0.034 6.9548,-1.5746 z m -56.5695,-8.0215 c 0,-3.7125 -0.4346,-10.575 -0.9556,-15.25 -0.5211,-4.675 -1.4682,-16.15 -2.1046,-25.5 -0.6365,-9.35 -1.4821,-18.8 -1.8791,-21 l -0.7219,-4 -1.1925,4.20778 c -0.6558,2.31428 -1.6302,4.47833 -2.1653,4.80901 -2.4755,1.52996 -2.4012,-1.09151 0.2561,-9.03624 2.6734,-7.99271 2.8315,-9.30221 2.1854,-18.10382 -0.6567,-8.94577 -0.9421,-9.86967 -4.9957,-16.16975 -2.8205,-4.3838 -4.4772,-6.1703 -4.817,-5.19443 -0.6599,1.89559 -2.6065,48.76308 -2.5863,62.26832 0.01,6.96735 0.3238,9.74182 0.9847,8.71913 1.4855,-2.29863 1.2571,2.44493 -0.4212,8.74938 -0.7686,2.88716 -1.7193,11.06915 -2.1127,18.18222 l -0.7153,12.9328 3.8746,0.3997 c 2.131,0.2198 6.9121,0.4753 10.6246,0.5678 l 6.75,0.1681 -0.01,-6.75 z m 17.7194,-8 c 4.9413,-8.1125 10.1353,-16.775 11.5421,-19.25 l 2.5578,-4.5 -5.1556,-8.06287 c -2.8355,-4.43457 -9.6175,-15.12877 -15.071,-23.76487 -5.4535,-8.63611 -10.516,-16.20042 -11.25,-16.80958 -1.0843,-0.8999 -1.3372,-0.10022 -1.3492,4.26488 -0.018,6.5781 1.6549,32.8227 3.4658,54.37244 0.7394,8.8 1.406,18.025 1.4813,20.5 0.3759,12.3626 2.8863,11.1328 13.7788,-6.75 z m -52.3239,12 c 0.6822,-2.2865 -0.051,-24.12173 -0.9032,-26.88714 -0.364,-1.18152 -0.1722,-2.43757 0.4288,-2.80902 1.3845,-0.8557 1.4267,-4.55384 0.052,-4.55384 -0.6817,0 -0.7107,-0.60631 -0.085,-1.77582 0.5227,-0.97671 0.5911,-2.43921 0.1518,-3.25 -0.4392,-0.8108 -0.8168,-5.97418 -0.8391,-11.47418 -0.037,-9.16614 -0.3738,-15.28824 -1.7591,-32 -0.6562,-7.91595 -1.1144,-17.12826 -1.9645,-39.5 -0.3867,-10.175 -0.795,-20.59233 -0.9073,-23.14963 -0.1717,-3.90708 -1.5286,-6.78171 -8.4964,-18 -4.5606,-7.3427 -12.3778,-19.97674 -17.3714,-28.07563 -9.8773,-16.0193 -13.1776,-20.60847 -14.1373,-19.65845 -0.8292,0.82074 -2.2977,37.73946 -3.0952,77.81291 -0.3549,17.83607 -0.7752,33.13607 -0.9338,34 -0.1587,0.86394 -0.5969,20.4708 -0.974,43.5708 -0.377,23.1 -0.8729,44.475 -1.1018,47.5 -0.229,3.025 -0.064,6.0561 0.3661,6.7357 0.5566,0.8791 7.4063,1.4843 23.7322,2.0969 12.6224,0.4737 23.932,0.9301 25.1324,1.0143 1.305,0.091 2.3926,-0.5505 2.7047,-1.5969 z M 1195,1008.5 c 0,-4.385 -0.3258,-5.5 -1.607,-5.5 -0.8838,0 -1.3949,-0.5625 -1.1357,-1.25 2.1992,-5.83304 3.6664,-13.97948 4.1874,-23.25 1.6074,-28.59941 3.4781,-81.82878 2.912,-82.85305 C 1197.2414,891.82028 1183.7259,871 1183.357,871 c -0.5467,0 0.555,47.96425 1.3093,57 0.5937,7.11186 0.8765,13.16268 1.7761,38 0.9001,24.84929 2.2283,45.6582 2.9934,46.8962 0.3752,0.6071 1.7807,1.1038 3.1232,1.1038 2.2921,0 2.441,-0.3355 2.441,-5.5 z m 14.0612,-127 c -0.6347,-9.35 -1.3289,-19.025 -1.5427,-21.5 -0.2138,-2.475 -0.701,-8.2125 -1.0827,-12.75 -0.3817,-4.5375 -1.0155,-8.25 -1.4084,-8.25 -0.8182,0 -2.0191,25.75684 -2.0241,43.41245 0,11.73314 0.046,11.98895 3.2467,16.99407 l 3.25,5.08161 0.3576,-2.99407 c 0.1966,-1.64673 -0.1618,-10.64406 -0.7964,-19.99406 z m -7.1469,-31 c 1.5335,-39.13808 1.4554,-47.94833 -0.4395,-49.52094 -1.3297,-1.10355 -1.3407,-1.47179 -0.086,-2.87244 1.1889,-1.32687 1.2873,-3.60902 0.565,-13.10662 -0.4811,-6.325 -1.3364,-17.8 -1.9007,-25.5 -0.5643,-7.7 -1.308,-16.20034 -1.6528,-18.88965 l -0.6268,-4.88966 -9.6238,0.67649 c -5.2931,0.37206 -10.0116,1.06432 -10.4856,1.53834 -1.389,1.38898 0.2691,56.52997 1.773,58.96336 0.2865,0.46354 1.9101,1.12063 3.608,1.46021 3.527,0.70541 3.084,2.64091 -0.6045,2.64091 -2.3328,0 -2.4473,0.29921 -2.5839,6.75 -0.2674,12.63417 0.5511,29.94039 2.1567,45.59926 0.9915,9.67008 2.5655,13.19385 12.3514,27.65074 l 5.0767,7.5 0.6876,-5 c 0.3782,-2.75 1.1813,-17.6 1.7848,-33 z M 1188.5,799.9404 c -1.69,-0.68389 -1.5738,-0.78568 0.75,-0.65676 1.5125,0.0839 2.75,0.25287 2.75,0.37545 0,0.81819 -1.8132,0.96392 -3.5,0.28131 z m 5.942,-0.0343 c -0.308,-0.49837 0.5915,-0.90612 1.999,-0.90612 3.064,0 3.3115,0.56994 0.56,1.28949 -1.0995,0.28751 -2.251,0.115 -2.559,-0.38337 z m -16.8701,35.8439 c -0.2938,-9.4875 -0.7377,-25.78953 -0.9863,-36.22674 -0.2486,-10.4372 -0.778,-25.9622 -1.1764,-34.5 -0.3984,-8.53779 -0.6356,-17.43212 -0.5272,-19.76517 0.287,-6.17766 -1.1597,-8.25809 -5.7423,-8.25809 -5.8396,0 -26.4856,3.94742 -27.8857,5.33162 -1.3931,1.37725 -3.1816,41.07251 -2.1841,48.47744 0.7485,5.55684 1.8,6.43268 8.3782,6.9782 5.89,0.48844 6.7097,2.21274 1.0519,2.21274 -6.0345,0 -6.5492,-1.21736 11.6274,27.5 13.6679,21.59411 16.2749,25.46188 17.1757,25.48203 0.4416,0.01 0.5626,-7.74453 0.2688,-17.23203 z m -42.5316,-71.96091 c 0.2962,-20.60831 0.386,-19.78909 -2.17,-19.78909 -3.3825,0 -18.2302,4.19059 -19.7496,5.57408 -1.1521,1.04909 0.1495,3.69898 7.9041,16.09092 5.1058,8.15925 10.0015,15.80129 10.8793,16.98232 l 1.5959,2.14732 0.6531,-2.35823 c 0.3591,-1.29702 0.7584,-9.68831 0.8872,-18.64732 z M 170.5,743.9863 c 0,-3.05205 -0.31139,-3.4863 -2.5,-3.4863 -2.87659,0 -4.00452,3.5847 -1.91872,6.09793 2.14576,2.58549 4.41872,1.24209 4.41872,-2.61163 z m 988.5,-9.54809 c 6.875,-0.93197 13.1302,-1.8737 13.9005,-2.09273 1.5588,-0.44324 1.2403,-17.55974 -1.3463,-72.34548 -0.3506,-7.425 -0.8222,-16.2 -1.0481,-19.5 -0.5233,-7.64324 -1.3553,-31.38333 -1.9978,-57 -1.0584,-42.20342 -1.5257,-57.23869 -1.9894,-64 -0.2639,-3.85 -0.7308,-12.175 -1.0374,-18.5 -0.3065,-6.325 -0.7479,-13.975 -0.9808,-17 -0.2329,-3.025 -0.6711,-13.375 -0.9738,-23 -0.3027,-9.625 -0.7807,-22.675 -1.0621,-29 -0.2814,-6.325 -0.9577,-23.875 -1.5029,-39 -0.5452,-15.125 -1.2261,-33.35 -1.5131,-40.5 -0.2871,-7.15 -0.9077,-23.20312 -1.3791,-35.6736 -0.4715,-12.47047 -1.1566,-23.15797 -1.5225,-23.75 -0.3659,-0.59202 -1.2779,-1.0764 -2.0266,-1.0764 -1.8185,0 -2.3208,6.42078 -3.0117,38.5 -0.3079,14.3 -0.8296,35.1125 -1.1593,46.25 -0.3906,13.19475 -0.252,20.25 0.3977,20.25 0.5484,0 1.2786,1.76066 1.6227,3.91258 0.3441,2.15192 0.8803,4.73942 1.1915,5.75 0.3112,1.01058 -0.1731,0.56014 -1.0761,-1.00099 -0.9031,-1.56112 -1.7721,-2.68612 -1.9311,-2.5 -0.6575,0.7692 -1.6006,23.76502 -2.5828,62.97586 -0.5736,22.90059 -1.1999,42.47559 -1.3918,43.5 -0.1918,1.0244 -0.6781,16.76608 -1.0807,34.98151 -0.5677,25.68224 -0.4574,33.28873 0.4912,33.875 0.9573,0.5916 0.9477,0.92641 -0.044,1.53934 -1.5381,0.95062 -2.4818,23.39844 -4.4757,106.4667 -0.3036,12.65 -0.7724,28.7583 -1.0417,35.79621 -0.2693,7.03792 -0.1982,13.2678 0.1581,13.84417 0.3562,0.57638 1.8324,0.81044 3.2804,0.52014 1.448,-0.29031 8.2578,-1.29035 15.1328,-2.22231 z m 36.7147,-3.01009 c 1.2181,-0.24668 2.0351,-1.00642 1.8156,-1.68831 -0.2196,-0.6819 -0.6686,-6.18981 -0.9978,-12.23981 -0.605,-11.11726 -2.7427,-40.37404 -4.4937,-61.5 -0.5242,-6.325 -1.2054,-15.325 -1.5139,-20 -0.7242,-10.97661 -1.3733,-19.77028 -2.5096,-34 -0.505,-6.325 -1.1937,-16.225 -1.5303,-22 -0.3366,-5.775 -1.2456,-18.825 -2.0202,-29 -0.7745,-10.175 -1.6463,-22.1 -1.9374,-26.5 -0.8731,-13.19882 -1.571,-22.40482 -2.5774,-34 -1.0647,-12.26696 -3.6652,-47.41361 -4.4763,-60.5 -0.6828,-11.01504 -1.4554,-21.23667 -2.0785,-27.5 -0.2736,-2.75 -1.1172,-13.775 -1.8746,-24.5 -4.4655,-63.22941 -5.7234,-78.72902 -6.5535,-80.75 -0.5083,-1.2375 -1.6089,-2.25 -2.4457,-2.25 -1.2058,0 -1.5214,1.34818 -1.5214,6.5 0,3.81395 -0.4278,6.5 -1.0352,6.5 -0.6693,0 -0.7104,0.61847 -0.1161,1.75 1.6304,3.10444 2.0658,9.22965 2.6802,37.70238 0.3318,15.37381 0.755,28.19881 0.9404,28.5 0.1855,0.30119 0.6604,13.14762 1.0553,28.54762 0.8051,31.38983 0.9948,33.04689 5.3692,46.90639 1.7197,5.44851 2.9777,10.05549 2.7954,10.23773 -0.1822,0.18224 -1.3549,-2.13813 -2.6059,-5.15638 -1.251,-3.01826 -2.6862,-5.48774 -3.1893,-5.48774 -0.8971,0 -0.5381,26.61119 0.5395,40 1.3768,17.10446 2.488,38.73478 2.5943,50.5 0.065,7.15 0.2574,14.125 0.4284,15.5 0.171,1.375 0.5959,14.2 0.9443,28.5 0.3484,14.3 0.8477,30.95 1.1097,37 0.6276,14.49399 1.4966,38.50314 2.045,56.5 1.2538,41.14259 1.775,51.6013 2.6246,52.66873 0.879,1.1044 12.6477,0.95163 18.5349,-0.24061 z m -18.1504,-177.13499 c -0.5427,-1.4252 -0.4278,-1.54006 0.5598,-0.5598 0.6834,0.67834 0.9907,1.48524 0.6828,1.79313 -0.3079,0.30789 -0.8671,-0.24711 -1.2426,-1.23333 z M 396.79405,415.85106 c 1.81172,-0.56938 5.18672,-2.4563 7.5,-4.19315 2.31327,-1.73685 6.10319,-4.39169 8.42203,-5.89965 12.80888,-8.32969 23.85334,-24.91818 24.99849,-37.54709 l 0.56372,-6.21683 -3.38914,0.59554 c -1.86403,0.32754 -4.73915,1.00155 -6.38915,1.4978 -1.65,0.49625 -8.175,2.23313 -14.5,3.85973 -18.03458,4.63794 -33.29909,8.90199 -35.66879,9.96387 -1.69365,0.75893 -2.54297,2.68249 -3.87678,8.78028 -2.75735,12.60581 -4.57831,13.36065 -2.55335,1.05844 0.43002,-2.6125 0.44961,-4.75 0.0435,-4.75 -1.3182,0 -15.2025,28.88559 -14.61731,30.41058 0.62307,1.62369 6.90974,3.17898 8.6078,2.12952 C 366.5208,415.17813 367,414.03508 367,413 c 0,-1.03508 0.45,-2.16008 1,-2.5 0.58429,-0.36111 1,0.66702 1,2.47321 0,2.28053 0.59008,3.32007 2.25,3.96379 2.80592,1.08813 21.10114,0.31036 25.54405,-1.08594 z m -36.08687,-19.39195 c 3.96396,-7.67751 7.22646,-14.29661 7.25,-14.70911 0.0236,-0.4125 -0.71172,-0.75 -1.63394,-0.75 -2.76512,0 -25.15354,6.15523 -26.81377,7.37189 -1.35136,0.9903 -1.12501,1.99243 1.85286,8.20357 3.61988,7.5502 9.19164,14.71245 11.02441,14.1714 0.61229,-0.18075 4.35649,-6.61024 8.32044,-14.28775 z M 301,393.48052 c 5.775,-1.38429 12.525,-3.16134 15,-3.949 2.475,-0.78766 6.65555,-1.96802 9.2901,-2.62301 l 4.7901,-1.19089 -0.7901,-4.60881 C 328.85555,378.57397 328.5,371.1 328.5,364.5 c 0,-10.86615 0.2694,-12.67136 2.8512,-19.10526 1.56816,-3.90789 2.69316,-7.95789 2.5,-9 -0.44429,-2.39695 -6.74782,-5.51605 -12.44552,-6.15826 -5.62597,-0.63413 -9.72273,1.10574 -13.28557,5.64227 -3.43526,4.37411 -9.28874,18.92003 -12.19372,30.30144 -1.16795,4.5759 -3.42918,12.76583 -5.02496,18.19985 -1.59579,5.43403 -2.90143,10.27153 -2.90143,10.75 0,1.29663 1.50682,1.10544 13,-1.64952 z m 1009.0978,-40.29783 c -1.788,-3.34085 -21.2299,-21.28472 -30.5633,-28.20829 -5.0728,-3.76306 -12.7808,-10.27517 -17.1289,-14.47136 -4.3481,-4.19618 -9.79,-8.46324 -12.0931,-9.48235 -2.3031,-1.01911 -8.6031,-5.1627 -14,-9.20797 -5.3969,-4.04528 -11.7614,-8.6135 -14.1434,-10.15159 -7.3625,-4.75415 -20.691,-19.24724 -26.6984,-29.03125 -3.0832,-5.02143 -8.6392,-13.62988 -12.3468,-19.12988 -3.7075,-5.5 -10.074,-17.06569 -14.1476,-25.70152 -4.0736,-8.63584 -7.5627,-15.54538 -7.7536,-15.35453 -0.1908,0.19085 0.3936,10.40653 1.2987,22.70152 0.9051,12.29499 2.4325,33.86276 3.3942,47.92837 0.9617,14.06562 2.1103,26.15905 2.5524,26.87431 2.5942,4.19756 29.296,12.65213 43.213,13.6825 10.808,0.80019 16.2246,2.8295 27.169,10.17882 4.6608,3.12979 10.3137,6.92668 12.5621,8.43752 2.2483,1.51085 5.6629,3.42752 7.5879,4.25927 6.5802,2.84318 13.4981,6.7884 17.5,9.98014 12.1702,9.70645 27.1862,18.01975 33.2852,18.42765 0.9359,0.0626 1.0209,-0.4079 0.3126,-1.73136 z m -837.25969,-5.29372 c 13.01404,-3.36107 27.26189,-6.98514 31.66189,-8.0535 6.91714,-1.67955 18.8901,-4.67881 22,-5.51108 8.41121,-2.25099 30.87167,-8.12946 45,-11.77763 9.9,-2.55634 21.28891,-5.55607 25.30869,-6.66605 4.01978,-1.10998 8.06978,-2.18454 9,-2.3879 0.93022,-0.20337 5.29131,-1.33599 9.69131,-2.51693 10.20329,-2.73854 27.71337,-7.38497 38,-10.0836 4.4,-1.15431 8.36528,-2.44007 8.81173,-2.85724 1.74319,-1.62887 -17.02866,-5.20295 -32.31173,-6.15201 -8.525,-0.52939 -21.8,-1.8767 -29.5,-2.99403 -10.54376,-1.52997 -17.08593,-1.91108 -26.5,-1.54372 -17.20042,0.67119 -43.26416,3.34789 -50.5,5.18624 -3.3,0.83841 -12.3,2.83999 -20,4.44797 -7.7,1.60797 -18.275,4.28719 -23.5,5.95383 -5.225,1.66663 -13.0556,4.02421 -17.40133,5.23906 -12.80885,3.58071 -21.44187,12.10127 -21.60913,21.32762 -0.0299,1.65 0.9727,7.83701 2.22804,13.74892 1.89785,8.93779 2.59213,10.7491 4.12053,10.75 1.01095,5.9e-4 12.48595,-2.74888 25.5,-6.10995 z M 1163.9822,282.75 c -0.01,-2.8875 -0.452,-9.3 -0.9827,-14.25 -0.5307,-4.95 -1.239,-14.175 -1.574,-20.5 -1.4565,-27.50304 -2.2119,-27.06051 -1.7069,1 0.6378,35.44001 0.6709,36.20316 1.6368,37.76602 1.611,2.60668 2.6439,1.02756 2.6268,-4.01602 z m -7.9624,-20.25 c -0.2859,-7.7 -0.8287,-13.52675 -1.2062,-12.94833 -1.0279,1.57469 -1.2352,28.49018 -0.2462,31.94833 l 0.8581,3 0.5571,-4 c 0.3064,-2.2 0.3231,-10.3 0.037,-18 z m -5.6123,13.75 c 1.6378,-15.59674 3.4342,-96.7416 2.1697,-98.00618 -0.9383,-0.93822 -8.3986,4.82683 -11.8119,9.12772 -1.802,2.27065 -5.0737,6.82846 -7.2705,10.12846 -2.1967,3.3 -7.3692,9.375 -11.4944,13.5 -6.6505,6.65013 -8.5769,7.93699 -17.0004,11.35642 -20.0615,8.14373 -27.6245,12.98128 -25.0828,16.0438 0.6659,0.80237 9.4713,5.58092 19.5676,10.61898 16.4867,8.22686 19.3702,10.05926 28.302,17.98516 9.6711,8.58199 18.5262,14.93806 20.865,14.97664 0.6692,0.011 1.4048,-2.39009 1.7557,-5.731 z m -55.7823,-36.22875 C 1092.79,235.43466 1092.6101,234 1093.87,234 c 1.0037,0 3.6638,8.7995 2.8932,9.57016 -0.2821,0.28205 -1.2442,-1.31496 -2.138,-3.54891 z M 1158.6623,206.75 c -0.2774,-0.6875 -0.5044,-0.125 -0.5044,1.25 0,1.375 0.227,1.9375 0.5044,1.25 0.2774,-0.6875 0.2774,-1.8125 0,-2.5 z M 1087,1432.2906 c -0.825,-0.3034 -2.175,-1.1268 -3,-1.8299 -0.825,-0.7031 -2.625,-1.4319 -4,-1.6195 -3.2007,-0.4368 -5.7764,-5.5377 -6.7963,-13.4597 -0.6572,-5.1047 -1.0179,-5.8374 -2.7305,-5.5479 -3.3446,0.5654 -3.821,1.8399 -2.2011,5.8885 0.8479,2.119 1.8596,5.9734 2.2483,8.5653 0.689,4.595 0.6414,4.7126 -1.9069,4.7126 -1.4374,0 -2.6135,-0.2182 -2.6135,-0.4849 0,-2.1841 -5.3697,-18.2661 -6.5253,-19.5431 -0.8111,-0.8962 -1.4747,-2.2076 -1.4747,-2.9142 0,-1.2724 1.4068,-1.1876 8.2414,0.4965 2.2477,0.5539 3.2655,0.1145 5.6512,-2.4394 4.8148,-5.1542 5.7936,-4.3147 6.3039,5.407 0.246,4.687 0.9774,9.052 1.6254,9.7 0.9041,0.9041 1.1781,0.8266 1.1781,-0.3333 0,-2.1291 3.7335,-5.8886 5.8478,-5.8886 5.2691,0 7.1323,6.2633 3.1304,10.5232 -4.0823,4.3454 0.583,6.8602 7.3708,3.9732 1.6594,-0.7057 1.7162,-0.5736 0.5539,1.2874 -2.1423,3.4305 -6.9259,4.9691 -10.9029,3.5068 z m 91.4874,-22.3045 c -1.3979,-1.5447 -2.5744,-1.8728 -5.0497,-1.4084 -7.0779,1.3278 -9.8762,-4.1177 -7.0722,-13.7629 1.828,-6.2883 4.7527,-9.8148 8.1397,-9.8148 l 2.4273,0 -1.9105,3.25 c -2.4376,4.1466 -3.8379,10.5353 -3.0139,13.75 l 0.6409,2.5 2.1718,-3.5 c 1.1944,-1.925 2.1734,-4.0625 2.1755,-4.75 0.01,-1.8206 4.6811,-1.5331 5.3967,0.3318 0.3339,0.87 0.607,3.7684 0.607,6.441 0,2.6725 0.4719,5.1508 1.0486,5.5072 0.7168,0.443 0.678,1.0945 -0.1225,2.059 -1.6193,1.9512 -3.2955,1.7653 -5.4387,-0.6029 z m 13.0275,-4.9573 c -1.3483,-2.6073 -1.8412,-2.8552 -4.0257,-2.0247 -2.3347,0.8877 -2.4883,0.7462 -2.4745,-2.2789 0.039,-8.4563 5.8835,-11.2162 9.4834,-4.4779 1.101,2.061 2.2998,3.7485 2.664,3.75 0.3642,0 0.9705,-1.8228 1.3475,-4.0541 1.0202,-6.0383 3.8984,-5.0847 9.2271,3.0568 2.3399,3.575 4.2564,6.8375 4.2588,7.25 0.01,1.2992 -3.0742,0.8166 -6.0642,-0.9497 -2.7723,-1.6376 -2.9628,-1.6194 -5.2188,0.5 -3.4227,3.2155 -7.3042,2.8899 -9.1976,-0.7715 z m -21.7223,-30.3791 c -0.7976,-0.7976 -4.2272,-2.2293 -7.6214,-3.1817 -4.0006,-1.1225 -6.1712,-2.2519 -6.1712,-3.2111 0,-1.1656 0.7883,-1.3316 3.7154,-0.7825 2.0435,0.3834 4.943,1.3318 6.4433,2.1077 1.7316,0.8954 2.9527,1.0467 3.3436,0.4142 0.9949,-1.6097 5.5039,-1.1437 6.1882,0.6396 1.3879,3.6166 -3.1839,6.7279 -5.8979,4.0138 z m -95.2831,-3.3997 c -0.3874,-0.9625 -0.9376,-5.35 -1.2226,-9.75 -0.5115,-7.8967 -0.4779,-8.042 2.6061,-11.25 1.7184,-1.7875 3.3455,-3.25 3.6157,-3.25 1.044,0 0.3567,3.5938 -1.0405,5.4411 -1.0468,1.384 -1.4682,4.6132 -1.4682,11.25 0,8.7828 -0.8992,11.5119 -2.4905,7.5589 z M 1136,1363.7687 c -1.925,-0.5034 -4.175,-1.61 -5,-2.4591 -1.3479,-1.3871 -1.0077,-1.4924 3.3531,-1.0379 5.0117,0.5224 9.0798,2.994 6.4744,3.9336 -0.7301,0.2634 -2.9025,0.067 -4.8275,-0.4366 z m -29.9912,-9.3758 c -5.5311,-1.4861 -7.8792,-2.8558 -6.78,-3.955 0.8174,-0.8174 11.9269,2.6148 13.7355,4.2435 1.9476,1.7539 0.408,1.6901 -6.9555,-0.2885 z m -50.93,-15.0608 c -7.0338,-1.4692 -7.9069,-1.9099 -6.5121,-3.287 1.1815,-1.1667 9.2266,0.5248 11.8603,2.4937 2.8445,2.1264 1.7857,2.2835 -5.3482,0.7933 z m 18.9607,-4.2368 c -1.6419,-3.9638 -1.9371,-20.2563 -0.3769,-20.7992 0.828,-0.2881 1.2667,2.9934 1.5242,11.3997 0.1988,6.4923 0.2987,11.9311 0.222,12.0863 -0.077,0.1551 -0.693,-1.0539 -1.3693,-2.6868 z m 18.0394,-1.512 c -0.043,-1.0541 0.193,-1.6448 0.5253,-1.3125 0.3323,0.3323 0.3678,1.1948 0.079,1.9167 -0.3192,0.7977 -0.5562,0.5608 -0.6042,-0.6042 z m 1.3022,-4.3333 c 0.2837,-0.9625 1.7457,-6.025 3.2489,-11.25 1.5031,-5.225 3.0782,-9.9044 3.5002,-10.3987 0.8474,-0.9926 -0.6855,5.0496 -4.0967,16.1487 -1.2256,3.9875 -2.4398,7.25 -2.6983,7.25 -0.2585,0 -0.2378,-0.7875 0.046,-1.75 z M 1017,1327.5118 c -10.6257,-2.5514 -14.0752,-3.7854 -13.6792,-4.8935 0.5837,-1.6334 4.1625,-0.9519 13.1792,2.5096 11.1432,4.2779 11.2893,4.9745 0.5,2.3839 z m -146.80903,-16.6159 c -7.71956,-2.5348 -12.15513,-4.4806 -11.89626,-5.2188 0.22703,-0.6474 1.26609,-1.0242 2.30903,-0.8374 3.18549,0.5708 20.76929,7.3281 22.86877,8.7884 3.30133,2.2961 -0.0958,1.5973 -13.28154,-2.7322 z m 87.32286,-0.5291 c -7.88516,-2.753 -10.25087,-4.3668 -6.40142,-4.3668 2.38031,0 19.62405,5.4031 20.71024,6.4893 1.43755,1.4376 -8.21164,0.01 -14.30882,-2.1225 z M 924,1300.7728 c -9.81882,-2.5566 -14,-4.0032 -14,-4.8438 0,-1.7878 5.92633,-0.9045 13.00087,1.9378 7.08495,2.8466 7.70577,4.6522 0.99913,2.906 z m -102.75,-6.867 c -8.28636,-2.6886 -12.25,-4.4488 -12.25,-5.4402 0,-1.8163 -0.45201,-1.8538 6.59345,0.5479 9.2353,3.1482 18.40655,7.2023 18.40655,8.1365 0,0.4675 -0.1125,0.8231 -0.25,0.7902 -0.1375,-0.033 -5.7625,-1.8483 -12.5,-4.0344 z m 251.4628,1.5942 c -1.4917,-7.3654 -1.8544,-15.2944 -0.7315,-15.9884 0.6335,-0.3916 1.4313,-0.4323 1.7729,-0.091 1.1136,1.1135 1.4653,11.9904 0.5038,15.5791 l -0.9377,3.5 -0.6075,-3 z m 32.3075,-4.75 c 0.1113,-1.3706 5.8533,-17.9451 5.9073,-17.0516 0.095,1.5719 -4.879,17.3016 -5.4711,17.3016 -0.2511,0 -0.4474,-0.1125 -0.4362,-0.25 z M 875.5,1286.5218 c -12.35283,-3.6622 -14.00914,-4.4127 -12.67778,-5.744 0.86387,-0.8639 3.99712,-0.1862 12.66284,2.7387 6.33322,2.1377 11.51494,4.246 11.51494,4.6851 0,1.2833 -2.96715,0.8499 -11.5,-1.6798 z m -93,-6.3298 c -3.39417,-1.086 -4.34127,-1.7089 -2.94893,-1.9394 1.12808,-0.1868 4.05308,0.5482 6.5,1.6333 5.33162,2.3642 3.40155,2.5306 -3.55107,0.3061 z m 35.5,-10.5031 c -4.125,-1.2039 -7.2883,-2.6389 -7.02955,-3.1889 0.25874,-0.55 1.15874,-0.8741 2,-0.7202 3.49383,0.6392 15.60096,4.5849 16.47955,5.3706 1.66694,1.4908 -3.66686,0.8099 -11.45,-1.4615 z m -74.5,-2.9705 c -3.3,-1.1681 -5.31943,-2.27 -4.48762,-2.4486 0.83181,-0.1787 4.20681,0.7935 7.5,2.1604 7.29149,3.0265 5.2702,3.2198 -3.01238,0.2882 z m 36.8713,-8.7047 c -1.17079,-0.4727 -5.22079,-1.62 -9,-2.5494 -6.52345,-1.6043 -9.27802,-2.8909 -8.29472,-3.8742 0.48463,-0.4846 20.75193,5.9051 21.68283,6.836 0.84201,0.842 -1.92563,0.5819 -4.38811,-0.4124 z m -80.6213,-6.703 c -0.9625,-0.2516 -1.75,-0.8509 -1.75,-1.332 0,-0.4811 1.35,-0.404 3,0.1711 4.49881,1.5683 3.57875,2.4228 -1.25,1.1609 z M 1071.7713,1247 c -1.2665,-4.4492 -1.7203,-12.9135 -0.7252,-13.5285 1.5556,-0.9614 2.0735,1.7482 1.7445,9.1277 -0.2144,4.8112 -0.5231,6.1438 -1.0193,4.4008 z M 734.5,1244.3515 c -11.24629,-2.3422 -23.5,-6.218 -23.5,-7.433 0,-1.5184 2.02836,-1.0956 14.3597,2.9934 12.91108,4.2811 16.31252,5.9333 9.1403,4.4396 z m -63.22917,-3.9557 c 0.33229,-0.3323 1.1948,-0.3678 1.91667,-0.079 0.79773,0.3192 0.56078,0.5562 -0.60417,0.6042 -1.05416,0.043 -1.64479,-0.193 -1.3125,-0.5253 z m -11.06571,-3.1346 c -4.46385,-1.5735 -6.93626,-2.9301 -6.37078,-3.4955 0.82194,-0.822 16.16566,4.7094 16.16566,5.8276 0,0.8167 -2.65568,0.1844 -9.79488,-2.3321 z m 550.89908,-7.157 c -2.4328,-2.4328 -2.7046,-4.6608 -0.7083,-5.8045 1.1725,-0.6717 1.0841,-1.7601 -0.552,-6.7997 -2.5697,-7.9148 -2.7858,-17.4135 -0.4765,-20.9379 5.668,-8.6505 14.6967,-4.077 14.7863,7.4901 0.031,3.9667 0.5546,5.5651 2.4427,7.4533 3.0921,3.0921 3.1536,8.0968 0.1536,12.5047 -4.7496,6.9786 -11.9548,9.785 -15.6458,6.094 z m 11.316,-7.6227 c 2.019,-3.0814 1.7511,-6.3565 -0.6427,-7.8569 -2.5145,-1.5761 -3.4857,0.022 -3.9921,6.5683 -0.3946,5.1005 -0.2651,5.599 1.2454,4.7906 0.9273,-0.4963 2.4525,-2.0722 3.3894,-3.502 z m -3.4349,-17.8539 c -0.016,-3.4565 -1.9477,-7.976 -3.4479,-8.0684 -2.068,-0.1272 -2.7639,5.9629 -1.1285,9.8769 1.3419,3.2118 1.8263,3.6136 3.0912,2.5638 0.8249,-0.6846 1.4933,-2.6522 1.4852,-4.3723 z m -541.2302,23.5223 c -2.6097,-0.9074 -4.7472,-1.9874 -4.75,-2.3999 -0.009,-1.3204 2.3643,-0.7872 7.4949,1.684 5.73083,2.7603 4.24721,3.1472 -2.7449,0.7159 z m -61.2551,-6.628 c -2.75,-1.2955 -4.49521,-2.3929 -3.87824,-2.4387 0.61696,-0.046 3.54196,1.0159 6.5,2.3592 2.95803,1.3433 4.70324,2.4407 3.87824,2.4386 -0.825,0 -3.75,-1.0637 -6.5,-2.3591 z m -273.91345,-4.7096 c -0.7923,-1.8217 -1.67487,-4.0753 -1.96127,-5.0079 -0.4766,-1.5518 -0.84657,-1.517 -4.36557,0.4105 C 328.8659,1216.2649 324,1212.015 324,1201.5071 c 0,-9.4318 7.26875,-23.6038 14.06561,-27.4238 4.42601,-2.4876 4.98043,-2.5296 7.49326,-0.568 1.85001,1.4442 1.81611,1.4871 -0.72221,0.9134 -6.36703,-1.4392 -15.91221,14.5567 -15.97059,26.7636 -0.0506,10.5879 4.65601,11.6998 10.61458,2.5075 1.21269,-1.8708 2.51279,-2.7005 3.91723,-2.5 1.80685,0.258 2.13853,1.0728 2.36135,5.8002 0.38688,8.2084 0.98583,10 3.34316,10 3.29149,0 1.61333,2.4634 -1.91585,2.8123 -2.74601,0.2715 -3.34794,-0.121 -4.59999,-3 z M 630,1213.581 c -9.5668,-2.8218 -11.5415,-3.7347 -6.5,-3.0052 4.84436,0.7011 13.63985,3.389 14.95,4.5687 1.332,1.1995 0.21992,0.9937 -8.45,-1.5635 z m -276.77749,-0.1377 C 352.00013,1212.5871 351,1211.2922 351,1210.5657 c 0,-0.7264 -0.675,-1.881 -1.5,-2.5657 -5.02679,-4.1719 3.63166,-16.0094 11.70034,-15.9963 3.60318,0.01 8.46836,3.4829 9.03722,6.4587 0.71009,3.7146 -3.74765,12.2678 -7.62641,14.633 -3.78339,2.307 -6.45047,2.4059 -9.38864,0.3479 z m 9.18889,-6.5204 c 2.80665,-3.3355 4.16283,-7.1848 3.12373,-8.8661 -0.97987,-1.5854 -7.1774,-1.2717 -8.89964,0.4506 -1.38355,1.3835 -1.41939,5.8806 -0.0816,10.2426 0.66039,2.1533 3.16585,1.3718 5.85753,-1.8271 z m 27.66755,3.6604 c -0.0434,-1.0541 0.19293,-1.6448 0.52522,-1.3125 0.33229,0.3323 0.36781,1.1948 0.0789,1.9167 -0.31922,0.7977 -0.55618,0.5608 -0.60416,-0.6042 z M 575.25,1207.2807 c -7.70587,-2.437 -10.51609,-4.2807 -6.52476,-4.2807 2.48267,0 15.27476,5.1571 15.27476,6.158 0,0.4631 -0.1125,0.8172 -0.25,0.7869 -0.1375,-0.03 -3.9625,-1.2293 -8.5,-2.6642 z m -185.58333,-0.9474 C 389.3,1205.9667 389,1205.2017 389,1204.6333 c 0,-0.6266 0.46577,-0.5675 1.18333,0.15 0.65084,0.6509 0.95084,1.4159 0.66667,1.7 -0.28417,0.2842 -0.81667,0.2167 -1.18333,-0.15 z m 680.96363,-4.5833 c -0.9637,-3.596 -0.7229,-11.5747 0.3697,-12.25 0.633,-0.3912 1,2.1563 1,6.941 0,7.8367 -0.3396,9.1529 -1.3697,5.309 z m -494.88254,-4.3192 c -7.01373,-1.8848 -14.21373,-4.1057 -16,-4.9354 l -3.24776,-1.5086 4.5,0.5573 c 7.01491,0.8688 33.7676,9.6638 28.5,9.3694 -0.55,-0.031 -6.73851,-1.598 -13.75224,-3.4827 z M 544,1196.2544 c -2.475,-0.8733 -3.96411,-1.7664 -3.30913,-1.9847 0.65498,-0.2183 3.12998,0.4938 5.5,1.5824 5.18632,2.3823 4.02524,2.5955 -2.19087,0.4023 z m -27,-9.2964 c -3.025,-1.0459 -5.63906,-1.9144 -5.80902,-1.9298 -0.16996,-0.015 -0.0394,-0.4645 0.29021,-0.9978 0.60615,-0.9807 10.11574,2.23 11.96881,4.0411 1.36622,1.3353 -0.0998,1.0822 -6.45,-1.1135 z m 9,-4.1218 c -10.99199,-3.1925 -11.69079,-3.4787 -10.76116,-4.4084 0.51673,-0.5167 24.68439,6.2395 25.67783,7.1784 1.26782,1.1982 -5.72488,-0.1003 -14.91667,-2.77 z m -48.75,-9.4985 c -5.6375,-1.9274 -10.25,-3.8953 -10.25,-4.3732 0,-0.4779 1.9125,-0.2492 4.25,0.5081 2.3375,0.7573 6.35543,2.0546 8.92873,2.8829 5.49379,1.7683 10.97725,4.5814 8.82127,4.5255 -0.825,-0.021 -6.1125,-1.6159 -11.75,-3.5433 z M 488.5,1171.5 c -0.55,-0.1882 -5.5,-1.5635 -11,-3.0564 -5.5,-1.4928 -10.4275,-3.1033 -10.95,-3.5789 -1.57829,-1.4366 0.2886,-1.0219 13.95,3.0988 7.15,2.1567 12.1,3.9116 11,3.8999 -1.1,-0.012 -2.45,-0.1753 -3,-0.3634 z m 581.5329,-2.5 c -0.19,-0.825 -0.49,-2.625 -0.6669,-4 -0.1768,-1.375 -0.5996,-4.1343 -0.9394,-6.1319 -0.3677,-2.1613 -0.1861,-3.8987 0.4485,-4.2909 1.5379,-0.9505 2.2942,3.0796 1.8701,9.9645 -0.2019,3.2771 -0.5224,5.2833 -0.7123,4.4583 z M 439.5,1160.0876 c -5.20117,-1.7916 -8.11312,-3.3385 -8.32332,-4.4216 -0.30773,-1.5856 -2.44974,-2.1814 -6.53325,-1.8174 -1.02111,0.091 -4.03056,-0.48 -6.68765,-1.2691 -4.27729,-1.2702 -4.97688,-1.259 -6.10287,0.098 -1.07098,1.2905 -0.72557,1.9997 2.18765,4.4917 2.22745,1.9054 2.6427,2.5596 1.16604,1.8368 -1.26138,-0.6174 -4.29888,-3.0441 -6.75,-5.3927 -5.32996,-5.107 -5.99112,-8.9567 -1.8614,-10.8383 2.29375,-1.0451 2.52756,-1.6056 2.01279,-4.8247 -0.32033,-2.0032 -0.25541,-3.9692 0.14426,-4.3689 0.39967,-0.3997 0.57526,-3.671 0.3902,-7.2696 -0.2646,-5.1453 -0.0487,-6.4475 1.01054,-6.0967 0.95419,0.3161 1.43286,2.8999 1.6414,8.8601 0.16192,4.6276 0.65816,8.7777 1.10277,9.2223 0.44461,0.4446 3.54352,-2.0215 6.88646,-5.4802 3.34294,-3.4588 6.34661,-6.0201 6.67483,-5.6919 0.32821,0.3282 -1.85099,3.7648 -4.84267,7.6368 -6.29252,8.1442 -7.515,10.2658 -6.9011,11.9767 0.24443,0.6813 8.32314,3.7543 17.9527,6.8289 9.62956,3.0746 17.32029,5.7782 17.09052,6.0079 -0.22978,0.2298 -2.78869,-0.2863 -5.68647,-1.1468 -7.32438,-2.1751 -7.38861,-1.1768 -0.0954,1.4824 5.75728,2.0992 7.4706,3.1797 4.77395,3.0106 -0.6875,-0.043 -4.85,-1.3184 -9.25,-2.834 z M 1068,1134.559 c 0,-0.8574 0.45,-1.559 1,-1.559 0.55,0 1,0.4234 1,0.941 0,0.5175 -0.45,1.2191 -1,1.559 -0.55,0.3399 -1,-0.083 -1,-0.941 z m -0.4383,-6.3647 c -0.913,-2.8764 -0.9422,-16.7696 -0.038,-18.232 1.4322,-2.3173 2.331,1.8987 2.4064,11.2877 0.065,8.1021 -1.0048,11.2395 -2.368,6.9443 z m 308.6883,-1.8566 c -0.6875,-0.2774 -1.25,-0.972 -1.25,-1.5435 0,-0.6817 0.4616,-0.656 1.342,0.075 0.7381,0.6126 1.7103,0.7802 2.1603,0.3724 0.4501,-0.4077 0.4946,-0.1788 0.099,0.5087 -0.3956,0.6875 -0.8053,1.2145 -0.9103,1.1711 -0.1051,-0.043 -0.7535,-0.306 -1.441,-0.5834 z m -942.21158,-8.5529 c -0.0416,-1.8563 3.46279,-6.2038 11.71158,-14.5294 6.24227,-6.3004 6.74015,-5.8605 1.30572,1.1537 -7.16827,9.2521 -12.97599,15.2197 -13.0173,13.3757 z m -28.79359,-3.0348 c -2.09471,-2.6182 -3.95821,-12.75 -2.34506,-12.75 0.98667,0 2.26324,3.9523 3.47222,10.75 0.6279,3.5305 0.40862,3.9196 -1.12716,2 z m 823.08847,-15.206 c 0,-0.8008 0.375,-1.2243 0.8334,-0.941 0.4583,0.2833 0.8333,0.9385 0.8333,1.456 0,0.5176 -0.375,0.941 -0.8333,0.941 -0.4584,0 -0.8334,-0.6552 -0.8334,-1.456 z m -0.6666,-3.2107 c -0.9247,-0.9247 -0.8376,-3.3333 0.1205,-3.3333 0.433,0 0.855,0.9 0.9378,2 0.1619,2.1491 -0.017,2.3746 -1.0583,1.3333 z m -819.35843,-9.8336 c -0.10546,-1.9249 0.23204,-3.4997 0.75,-3.4997 0.51795,0 0.94173,1.575 0.94173,3.5 0,4.5567 -1.44209,4.5564 -1.69173,-3e-4 z M 1227,1088.5 c 0,-0.825 0.4359,-1.5 0.9686,-1.5 0.5328,0 0.7096,0.675 0.393,1.5 -0.3166,0.825 -0.7524,1.5 -0.9686,1.5 -0.2161,0 -0.393,-0.675 -0.393,-1.5 z m -763.96404,-5.75 c 0.0511,-1.7756 4.03164,-6.2693 6.84417,-7.7265 2.64456,-1.3702 2.76174,-1.6095 -2.81819,5.7576 -2.53838,3.3514 -4.08755,4.109 -4.02598,1.9689 z m -65.30475,-3.6698 c -0.43497,-1.6634 -0.30483,-2.0538 0.43724,-1.3118 0.5811,0.5812 0.85979,1.6469 0.61931,2.3683 -0.24965,0.749 -0.70294,0.2957 -1.05655,-1.0565 z M 1067.0856,1068.5 c 0.039,-4.2674 0.3031,-5.4225 0.9144,-4 1.1722,2.7279 1.1722,6.6861 0,8.5 -0.6822,1.0557 -0.9531,-0.2772 -0.9144,-4.5 z M 486,1054.4667 c 0,-0.2933 3.825,-4.4191 8.5,-9.1683 4.675,-4.7492 8.5,-8.2681 8.5,-7.8197 0,0.9964 -6.05563,8.6694 -10.86841,13.7713 -3.0779,3.2628 -6.13159,4.8648 -6.13159,3.2167 z M 406.79566,1051 c -1.28379,-4.6301 -1.77339,-13.8957 -0.76712,-14.5176 1.59045,-0.983 2.08538,1.7154 1.76285,9.6112 -0.20129,4.9277 -0.53453,6.5697 -0.99573,4.9064 z M 390,1042.125 c 0,-0.4812 -0.28451,-2.3937 -0.63224,-4.25 -0.43099,-2.3007 -0.30537,-3.0567 0.39465,-2.375 1.55492,1.5142 2.60606,7.5 1.31705,7.5 -0.59371,0 -1.07946,-0.3937 -1.07946,-0.875 z m 675.7595,-8.2762 c -0.5855,-6.0928 0.1226,-9.3963 1.3451,-6.2757 1.0373,2.6481 1.0466,8.64 0.016,10.2662 -0.5506,0.8686 -1.0289,-0.5337 -1.361,-3.9905 z m 455.0161,-17.5988 c -2.9605,-3.3764 -4.9993,-8.6259 -5.5005,-14.1621 -0.4616,-5.09908 -0.2651,-5.82847 2.2459,-8.3379 3.2589,-3.25685 5.4139,-3.45271 8.6182,-0.78327 l 2.3608,1.96673 -2.7148,0.0333 c -3.2807,0.0402 -5.0306,2.82972 -4.5951,7.32504 0.2572,2.6551 0.8063,3.2853 3.2274,3.7038 3.6531,0.6316 4.3758,2.5095 1.5481,4.0228 -1.795,0.9607 -2.0487,1.7253 -1.5154,4.5677 0.728,3.8807 -1.0321,4.6777 -3.6746,1.6639 z m -31.9921,-1 c -2.648,-3.0357 -3.7216,-5.8721 -4.3966,-11.6155 -0.5087,-4.32815 -0.2845,-6.1418 1.0019,-8.10516 1.9462,-2.97019 2.6828,-3.06372 7.2101,-0.9154 2.8052,1.33115 3.3999,2.16344 3.3945,4.75 0,1.72486 -0.9006,4.48606 -1.9934,6.13606 -1.1957,1.8055 -1.9894,4.6922 -1.9934,7.25 -0.01,4.5958 -0.8349,5.2379 -3.2231,2.5 z M 1492,997.18643 c 0,-1.1589 -0.2855,-1.19438 -1.5,-0.18643 -0.825,0.68469 -1.4857,2.20229 -1.4682,3.3724 0.031,2.0859 0.061,2.0895 1.5,0.1865 0.8075,-1.06765 1.4682,-2.58525 1.4682,-3.37247 z m 11.5,17.65887 c -4.7829,-2.6161 -6.046,-8.7145 -2.6687,-12.8853 1.4491,-1.7896 2.4149,-2.11502 4.6281,-1.5595 3.8934,0.9771 8.5406,5.8866 8.5406,9.0226 0,5.1347 -5.6712,8.0633 -10.5,5.4222 z m 4.4602,-5.2973 c 1.4166,-1.7069 0.4038,-5.8331 -1.2951,-5.276 -1.4011,0.4594 -2.1939,6.728 -0.8509,6.728 0.5175,0 1.4832,-0.6534 2.146,-1.452 z m -1102.11581,3.9502 c -0.36058,-0.551 -0.74169,-2.801 -0.84689,-5 -0.29702,-6.2083 -0.14507,-7.0458 1.05971,-5.841 0.58147,0.5815 0.91897,3.484 0.75,6.45 -0.16896,2.966 -0.60223,4.942 -0.96282,4.391 z M 524,1012.6219 c 0,-1.8325 10.94073,-14.0145 11.80783,-13.14741 0.71182,0.71181 -4.2432,7.58591 -8.308,11.52571 -2.73784,2.6536 -3.49983,3.0067 -3.49983,1.6217 z m -141.81343,-10.3398 c -1.70096,-4.37103 -3.1811,-10.6209 -2.6428,-11.1592 1.07483,-1.07484 2.28428,1.67463 3.24509,7.3771 1.14233,6.7799 0.97448,7.8339 -0.60229,3.7821 z M 1064,993.75902 c 0,-6.438 1.2613,-9.69186 2.2666,-5.84742 0.6715,2.56784 -0.2506,10.36542 -1.3645,11.5384 -0.541,0.5697 -0.9021,-1.70855 -0.9021,-5.69098 z M 552.57264,980.11754 c -0.93477,-1.5125 9.95251,-13.92573 11.15723,-12.72101 C 564.14523,967.8119 554.19644,981 553.46774,981 c -0.19234,0 -0.59513,-0.39711 -0.8951,-0.88246 z M 275.75,977.29427 c 1.2375,-0.23836 3.2625,-0.23836 4.5,0 1.2375,0.23835 0.225,0.43337 -2.25,0.43337 -2.475,0 -3.4875,-0.19502 -2.25,-0.43337 z m 97.391,-17.88415 c -1.54423,-3.38923 -2.74701,-13.6741 -1.33437,-11.41012 1.26525,2.02777 3.47287,11.66151 2.99844,13.0848 -0.20938,0.62812 -0.95821,-0.12549 -1.66407,-1.67468 z m 29.49166,-4.07352 c -0.58242,-4.24919 -0.276,-6.32944 0.7738,-5.25327 0.9929,1.01785 1.74939,9.91667 0.84301,9.91667 -0.53769,0 -1.26526,-2.09853 -1.61681,-4.6634 z M 1063.7418,951.25 c -0.9389,-1.87187 -0.7986,-8.25 0.1816,-8.25 0.6093,0 1.0766,1.95317 1.0766,4.5 0,4.24871 -0.404,5.45285 -1.2582,3.75 z m -483.70425,-2.84751 c -0.0207,-0.60363 2.02041,-3.30363 4.5357,-6 2.51529,-2.69637 4.10779,-4.00249 3.5389,-2.90249 -1.56471,3.02548 -8.03173,10.15557 -8.0746,8.90249 z m 482.58595,-16.94115 c -0.3429,-0.8937 -0.5829,-2.60061 -0.5333,-3.79313 0.064,-1.53633 0.3719,-1.18911 1.057,1.19145 0.996,3.46117 0.5866,5.4951 -0.5237,2.60168 z m -695.08274,-0.56821 c -1.45157,-3.99401 -3.23721,-12.50612 -2.78405,-13.27155 0.83088,-1.40342 1.9714,1.42288 3.14669,7.79774 1.01336,5.49657 0.80248,8.67964 -0.36264,5.47381 z M 401.76365,921 c -1.17058,-3.9743 -0.95658,-11.59293 0.2906,-10.34575 0.57984,0.57984 0.91734,3.70734 0.75,6.95 -0.22929,4.44327 -0.48566,5.27985 -1.0406,3.39575 z M 603,919.00288 c 0,-1.04606 6.42348,-8.66358 8.99843,-10.67112 2.99176,-2.3325 2.11519,-0.3275 -2.45137,5.60708 C 605.16574,919.6327 603,921.30786 603,919.00288 z M 1061.6989,891.5 c -0.9458,-5.58881 -0.8615,-10.28145 0.1963,-10.93524 1.972,-1.21877 2.7558,6.95098 1.193,12.43524 -0.6477,2.27308 -0.7738,2.13693 -1.3893,-1.5 z m -436.65382,1.49706 c -0.0248,-0.82662 3.16344,-5.10162 7.08495,-9.5 3.92152,-4.39839 8.43244,-9.45956 10.02425,-11.24706 1.59182,-1.7875 3.44581,-3.24311 4.11997,-3.23469 0.89869,0.0112 0.91911,0.21135 0.0765,0.75 -0.63207,0.40408 -3.15767,3.43469 -5.61244,6.73469 -6.30131,8.47095 -15.63957,18.28749 -15.69328,16.49706 z m -266.89285,-5.10837 c -0.49704,-1.31378 -1.23478,-4.80874 -1.6394,-7.76657 -1.06923,-7.81616 1.00888,-5.68967 2.4333,2.48994 1.19011,6.83409 0.79326,9.47174 -0.7939,5.27663 z m 872.45077,-9.5549 c 1.3917,-5.77311 7.618,-25.88435 8.4624,-27.33379 2.2984,-3.9456 -0.2953,7.79637 -4.6916,21.2396 -2.4667,7.54251 -5.1752,11.92 -3.7708,6.09419 z M 399.75,872.66821 c -1.19414,-2.91654 -0.95081,-8.26902 0.31822,-6.99999 0.58752,0.58752 0.92502,2.81502 0.75,4.95 -0.23498,2.86635 -0.51441,3.4026 -1.06822,2.04999 z m 672.146,-16.01642 c -1.9822,-1.73348 -4.8893,-4.95179 -6.4602,-7.15179 -5.5678,-7.79753 -29.3959,-33.16201 -35.6126,-37.90884 -4.8058,-3.66948 -12.6113,-6.26347 -22.8232,-7.58473 -3.575,-0.46256 -10.55,-1.66573 -15.5,-2.67372 -8.00074,-1.62923 -13.66322,-1.8085 -51,-1.61463 -36.29425,0.18845 -43.76607,0.49024 -55,2.22144 -14.63536,2.25538 -35.96991,4.54017 -42,4.49792 -7.61063,-0.0533 -29.03968,-2.55313 -38.86663,-4.53399 -7.59931,-1.53182 -11.76202,-1.83506 -18.11473,-1.31961 -6.82736,0.55397 -9.34798,0.31776 -14.63337,-1.37128 -4.34788,-1.38944 -10.6928,-2.26204 -19.88527,-2.73475 -16.94733,-0.87149 -17.05935,-0.87199 -25.5,-0.11375 l -7,0.62882 5,-1.49155 c 7.29275,-2.17549 38.13342,-1.18243 46.77147,1.50603 4.95458,1.54204 7.89194,1.79827 15.18565,1.32469 7.01127,-0.45524 11.4814,-0.10917 19.89691,1.5404 5.96971,1.17015 12.44371,2.12755 14.38666,2.12755 1.94295,0 7.49332,0.52733 12.33415,1.17184 7.34985,0.97857 10.66722,0.90473 20.11334,-0.44769 6.2215,-0.89075 15.36182,-2.07376 20.31182,-2.62891 4.95,-0.55516 11.7,-1.65759 15,-2.44984 l 6,-1.44046 -5.25,-0.10247 c -3.0863,-0.0602 -5.25,-0.55538 -5.25,-1.20142 0,-0.77824 2.84531,-0.8651 9.75,-0.29764 5.3625,0.44072 14.1375,0.7253 19.5,0.6324 5.3625,-0.0929 12.1125,-0.20918 15,-0.25838 22.82141,-0.38886 56.19837,0.83333 64.25,2.3527 4.95,0.93408 11.1165,1.90952 13.7033,2.16765 13.0999,1.30719 23.4477,6.06241 33.6731,15.47409 2.407,2.21547 4.7695,4.02813 5.25,4.02813 0.4805,0 0.8736,0.60751 0.8736,1.35003 0,1.45045 11.3503,11.77923 12.6929,11.55058 2.3155,-0.39434 2.9889,0.3133 2.5387,2.66798 -0.3601,1.88392 0.2923,3.41661 2.4476,5.75 1.6162,1.74977 4.1803,4.87922 5.698,6.95432 1.5178,2.07511 3.8538,4.86715 5.1912,6.20455 2.4023,2.40236 3.1385,4.97016 1.6816,5.86532 -0.4125,0.25344 -2.3718,-0.9575 -4.354,-2.69099 z m 479.1829,1.93154 c -0.043,-1.05416 0.193,-1.64479 0.5253,-1.3125 0.3323,0.33229 0.3678,1.1948 0.079,1.91667 -0.3192,0.79773 -0.5562,0.56078 -0.6042,-0.60417 z m -895.03789,-1.62961 c -0.052,-1.95888 15.31035,-20.39964 15.79155,-18.95603 0.39484,1.1845 -5.33642,9.05153 -11.65793,16.00231 -2.48776,2.7354 -4.10869,3.89365 -4.13362,2.95372 z M 1060.625,854.875 c -0.9878,-4.93883 -0.7413,-6.875 0.875,-6.875 1.1333,0 1.5,1.22222 1.5,5 0,5.5764 -1.4118,6.69098 -2.375,1.875 z M 350.7496,852.5 c -2.12909,-7.55387 -3.10306,-14.83649 -1.8834,-14.0827 1.10675,0.68402 3.51087,12.96308 2.89288,14.77543 -0.28372,0.83205 -0.65069,0.58022 -1.00948,-0.69273 z m 47.07188,-17.57475 c -0.21372,-2.24112 -0.036,-4.29268 0.39497,-4.55902 0.43095,-0.26635 0.78355,1.56729 0.78355,4.07475 0,5.66023 -0.65909,5.93105 -1.17852,0.48427 z M 682,825.19062 c 0,-0.94719 10.62316,-14.00793 15.36129,-18.88607 1.97193,-2.0302 3.85456,-3.42204 4.18362,-3.09297 0.60237,0.60237 -0.93398,2.75736 -5.54491,7.77766 -1.375,1.49708 -4.525,5.23453 -7,8.30544 -4.23726,5.25747 -7,7.58446 -7,5.89594 z m -338.82762,-8.77586 c -2.35589,-8.73106 -2.6761,-11.98541 -1.26512,-12.85745 0.99413,-0.6144 4.57154,17.50629 3.87102,19.60786 -0.23844,0.7153 -1.41109,-2.32239 -2.6059,-6.75041 z M 1249,818.46788 c 0,-3.07728 2.778,-10.02321 3.6571,-9.14407 0.6208,0.62073 -2.4566,11.67619 -3.2502,11.67619 -0.2238,0 -0.4069,-1.13945 -0.4069,-2.53212 z m -188.9297,-4.2769 c -0.044,-3.96762 0.3008,-6.07965 0.9297,-5.69098 1.2021,0.74295 1.2021,7.2025 0,10 -0.6063,1.41099 -0.8801,0.14197 -0.9297,-4.30902 z m 2.4027,-16.23465 c -0.3251,-0.52598 0.3355,-0.95633 1.468,-0.95633 2.4145,0 2.6581,0.55611 0.591,1.34934 -0.8074,0.30982 -1.7339,0.13297 -2.059,-0.39301 z m -51.031,-0.86245 c 0.308,-0.49837 1.4595,-0.67088 2.559,-0.38337 2.7515,0.71955 2.504,1.28949 -0.56,1.28949 -1.4075,0 -2.307,-0.40775 -1.999,-0.90612 z M 1052.5,797 c 0.7811,-1.26386 3.5443,-1.26386 5.5,0 1.1135,0.71959 0.5185,0.97332 -2.309,0.98469 -2.288,0.009 -3.5622,-0.38402 -3.191,-0.98469 z m -203.78685,-3.01753 c 1.25275,-0.50421 4.07345,-0.52425 6.5,-0.0462 4.15619,0.81884 4.08873,0.84599 -2.21315,0.89076 -4.75716,0.0338 -5.90659,-0.19266 -4.28685,-0.84458 z M 780,793 c 0,-1.19413 2.72111,-1.19413 5.5,0 1.60437,0.68942 1.2582,0.87333 -1.75,0.92971 C 781.6875,793.96837 780,793.55 780,793 z m 29.55,0.0691 c 0.5592,-0.54797 3.2125,-0.59929 6.45,-0.12475 l 5.5,0.80615 -6.45,0.12475 c -3.99294,0.0772 -6.08811,-0.22986 -5.5,-0.80615 z m -66.28823,-0.66419 c 0.7117,-0.7117 17.85195,-0.62451 18.57093,0.0945 0.27535,0.2753 -3.92437,0.50059 -9.3327,0.50059 -5.40833,0 -9.56554,-0.2678 -9.23823,-0.5951 z M 337.73948,789.5 c -1.29382,-4.00427 -5.60757,-24.14955 -7.01281,-32.75 -0.49181,-3.01 0.83158,-3.81563 1.64267,-1 1.74227,6.04816 6.72726,32.47047 6.40583,33.95331 -0.35346,1.6306 -0.4492,1.61181 -1.03569,-0.20331 z m 721.27582,-6.25 c -0.01,-2.8875 -0.1278,-5.55 -0.2653,-5.91667 -0.1375,-0.36666 0.3125,-0.85416 1,-1.08333 1.5289,-0.50964 1.7373,8.44864 0.25,10.75 -0.694,1.07384 -0.9737,0.008 -0.9847,-3.75 z m -663.59529,-0.8247 c -0.41176,-2.19485 -0.23625,-4.00906 0.45469,-4.7 0.83373,-0.83373 1.1253,0.0925 1.1253,3.5747 0,5.59659 -0.65381,6.06225 -1.57999,1.1253 z m 815.45239,-0.0821 c -2.9118,-3.51513 -0.6418,-28.43093 2.9142,-31.98698 3.6384,-3.63837 11.4021,1.04571 13.3988,8.0839 0.6335,2.23294 1.4134,4.37446 1.7332,4.75893 0.3198,0.38448 3.4291,-1.51424 6.9097,-4.21937 3.8745,-3.0113 7.752,-5.14651 10,-5.50666 2.0194,-0.32353 4.6566,-0.78896 5.8604,-1.0343 4.9015,-0.99892 2.8314,1.52324 -3.9578,4.82207 -4.0757,1.98037 -9.7715,5.89964 -13.0533,8.98203 -5.5979,5.2577 -5.7952,5.61332 -5.1182,9.22239 0.5097,2.71679 0.3225,3.99559 -0.6776,4.62899 -2.2132,1.40174 -3.7014,1.04953 -4.3622,-1.03238 -0.3677,-1.1585 -1.7022,-2.06362 -3.3174,-2.25 -1.857,-0.21428 -2.6588,-0.85919 -2.5633,-2.06181 0.084,-1.06342 -0.5597,-1.75 -1.6416,-1.75 -2.2305,0 -3.4387,4.30678 -1.9753,7.04119 1.9527,3.64857 -1.464,5.54399 -4.1496,2.302 z m 9.8776,-13.97348 c 1.824,-0.4888 2.25,-1.31 2.25,-4.33712 0,-7.76172 -4.0417,-13.68334 -5.937,-8.69842 -0.4801,1.26278 -1.1925,4.85418 -1.5832,7.9809 -0.769,6.15538 -0.3471,6.56003 5.2702,5.05464 z M 700.8728,779.31629 C 698.08978,777.58908 694.23525,772 695.8271,772 c 0.9274,0 8.1729,7.53804 8.1729,8.50288 0,0.70683 -0.19646,0.63229 -3.1272,-1.18659 z M 1262,777.2841 c 0,-0.94374 1.777,-7.35624 3.9489,-14.25 2.1719,-6.89375 3.9615,-14.1091 3.9769,-16.0341 0.015,-1.925 0.09,-4.625 0.1666,-6 0.076,-1.375 -0.1726,-3.625 -0.5529,-5 l -0.6914,-2.5 2.0656,2.5 c 1.1361,1.375 2.9703,3.41583 4.076,4.53517 2.7385,2.77238 2.561,3.73855 -1.4731,8.01593 -1.9159,2.03143 -3.2713,4.03678 -3.012,4.45634 0.2593,0.41955 0.079,2.05201 -0.4002,3.62769 -0.4794,1.57568 -2.1119,7.25237 -3.6278,12.61487 -2.5102,8.87996 -4.4766,12.40906 -4.4766,8.0341 z M 693.66667,765.33333 C 693.3,764.96667 693,764.01659 693,763.22204 c 0,-1.10368 0.80921,-1.29281 3.42881,-0.80137 2.90883,0.5457 3.97037,0.16775 7,-2.49231 5.85883,-5.14412 4.46522,-7.41238 -5.54453,-9.0244 -3.47363,-0.55941 -6.91534,-1.51478 -7.64824,-2.12303 -4.10249,-3.40476 3.58151,-9.60054 10.33524,-8.33354 1.91636,0.35952 3.22935,1.06619 2.91774,1.57038 -0.31161,0.5042 -1.80343,0.66935 -3.31516,0.367 -1.91019,-0.38204 -3.49977,0.0793 -5.21123,1.51244 -3.12241,2.61465 -1.98136,3.49542 6.63442,5.1211 5.7588,1.08661 10.40295,3.75885 10.40295,5.98585 0,1.82674 -6.53221,8.32027 -9.70226,9.6448 -3.46445,1.44753 -7.5444,1.77104 -8.63107,0.68437 z m -10.57726,-6.53077 c -2.79918,-2.85859 -5.08941,-5.55859 -5.08941,-6 0,-2.01357 2.07102,-0.33663 6.41883,5.19744 2.59263,3.3 4.49925,6 4.23693,6 -0.26232,0 -2.76717,-2.33885 -5.56635,-5.19744 z m 32.63121,-6.10619 c -0.86633,-1.32218 -1.88206,-4.04001 -2.25719,-6.03961 -0.84294,-4.49327 0.93418,-5.49765 6.90673,-3.90348 6.97189,1.8609 9.5471,-1.64976 5.01156,-6.83202 C 723.28205,733.52219 723.72186,732 726.5147,732 c 2.80896,0 6.47509,4.90817 6.48156,8.67742 0.006,3.21797 -4.53544,6.32258 -9.24775,6.32258 -3.66425,0 -3.9275,0.17942 -3.30112,2.25 1.26794,4.19136 1.06835,5.24678 -1.04951,5.54969 -1.33711,0.19124 -2.67534,-0.5742 -3.67726,-2.10332 z M 393.77967,740.90808 c -0.25514,-4.07444 -0.19744,-7.85808 0.12822,-8.40808 0.85281,-1.44029 1.869,12.72326 1.03374,14.40808 -0.38394,0.77445 -0.90682,-1.92555 -1.16196,-6 z m 347.6719,5.69566 c -2.99564,-2.09823 -6.52839,-9.94725 -7.13795,-15.85904 -0.43571,-4.22565 -0.16695,-5.70617 1.38323,-7.6197 2.25474,-2.78325 6.69916,-3.15756 9.09107,-0.76565 2.03057,2.03057 1.93065,7.89503 -0.18967,11.13104 -2.11309,3.22499 -2.01622,5.09725 0.47204,9.12334 2.97611,4.81545 0.87201,7.13544 -3.61872,3.99001 z m -0.8474,-20.33291 c -0.33229,-0.33229 -0.56864,0.25834 -0.52522,1.3125 0.048,1.16495 0.28494,1.4019 0.60416,0.60417 0.28887,-0.72187 0.25335,-1.58438 -0.0789,-1.91667 z M 655,728.78651 c -4.00561,-3.61061 -8,-8.69797 -8,-10.189 0,-0.55766 2.06158,0.99227 4.5813,3.44428 8.2505,8.02883 11.11678,13.68369 3.4187,6.74472 z M 1058,731 c 0,-0.55 0.1984,-1 0.441,-1 0.2425,0 0.7191,0.45 1.059,1 0.3399,0.55 0.1415,1 -0.441,1 -0.5824,0 -1.059,-0.45 -1.059,-1 z m -0.5239,-4.07536 c -0.7494,-2.36099 -0.1136,-3.43666 1.4574,-2.46576 1.3116,0.81061 1.4216,4.54112 0.1339,4.54112 -0.5129,0 -1.229,-0.93391 -1.5913,-2.07536 z m 207.0882,-6.63151 c -0.5427,-1.4252 -0.4278,-1.54006 0.5598,-0.5598 0.6834,0.67834 0.9907,1.48524 0.6828,1.79313 -0.3079,0.30789 -0.8671,-0.24711 -1.2426,-1.23333 z m -3.4637,-7.28097 C 1258.7159,707.46893 1257.3877,702 1258.426,702 c 0.7952,0 3.2831,5.73559 5.0967,11.75 1.7583,5.83088 0.1994,5.35599 -2.4221,-0.73784 z m 10.4561,3.07964 c -1.0107,-1.63546 0.3541,-5.0918 2.0107,-5.0918 0.7879,0 1.4326,0.45 1.4326,1 0,1.67971 1.6949,1.12764 4.9519,-1.61301 3.7566,-3.16097 2.9991,-4.58083 -3.4,-6.37247 -2.4256,-0.67912 -5.419,-2.30858 -6.652,-3.62102 -2.015,-2.14489 -2.1047,-2.64228 -0.8872,-4.91729 1.3576,-2.53664 9.3835,-8.48915 11.4087,-8.46147 2.0144,0.0275 5.9623,2.48066 5.5194,3.42955 -0.2425,0.51936 -2.1521,0.82073 -4.2438,0.66971 -4.8348,-0.34909 -8.9409,2.1598 -8.5083,5.19868 0.2363,1.65947 1.6966,2.67667 6.0602,4.22138 7.5367,2.66799 9.0781,4.18943 7.4671,7.37004 -2.7302,5.39013 -13.345,11.12328 -15.1593,8.1877 z m -213.916,-9.30214 c -0.3374,-1.25931 -0.591,-4.76466 -0.5637,-7.78966 0.043,-4.72144 0.1934,-5.14611 1.0646,-3 0.9923,2.4443 1.3929,11.79883 0.5418,12.64992 -0.2362,0.23618 -0.7054,-0.60094 -1.0427,-1.86026 z m 235.9882,-2.30359 c -1.6327,-1.63274 -3.0183,-8.6922 -2.469,-12.57951 0.5293,-3.74536 4.225,-3.65449 8.6238,0.21204 l 3.7163,3.26653 0.2851,-9.59924 c 0.1923,-6.47697 0.7184,-9.95887 1.6173,-10.7049 1.7894,-1.48508 3.3061,0.40874 4.4025,5.49732 l 0.845,3.92169 1.7214,-6 c 0.9468,-3.3 1.9063,-6.54909 2.1322,-7.2202 0.226,-0.67111 1.5733,-1.51195 2.994,-1.86852 4.2777,-1.07364 6.1162,1.43715 9.0349,12.33872 0.3313,1.2375 1.2995,2.25 2.1516,2.25 1.1507,0 1.3663,0.57885 0.8381,2.25 -0.3911,1.2375 -1.0238,4.277 -1.4059,6.75444 -0.8178,5.30285 -1.7071,6.99556 -3.6752,6.99556 -0.989,0 -1.441,-1.13435 -1.441,-3.61663 0,-3.26258 -0.2203,-3.5576 -2.25,-3.01366 -1.2375,0.33164 -2.8413,0.60913 -3.564,0.61664 -0.8763,0.009 -1.2094,1.08622 -1,3.23395 0.3657,3.75101 -2.1989,4.98302 -5.0332,2.41794 -1.1554,-1.04554 -2.1708,-1.23836 -3.1756,-0.60296 -0.8125,0.51375 -3.1647,0.94099 -5.2272,0.94941 -3.0558,0.0125 -3.75,0.37906 -3.75,1.98013 0,2.84155 -3.4373,4.45505 -5.3711,2.52125 z M 1320.5818,688 c 0.6834,0 0.3386,-5.34426 -0.4796,-7.43362 -0.9686,-2.47337 -1.842,-1.04602 -2.72,4.44524 -0.6138,3.83848 -0.4972,4.24647 1.0452,3.65461 0.9549,-0.36642 1.9244,-0.66623 2.1544,-0.66623 z m -928.73925,1.40076 c -0.1884,-3.07958 -0.0119,-6.11708 0.39214,-6.75 0.40408,-0.63292 0.74158,1.88674 0.75,5.59924 0.0186,8.18185 -0.66958,8.87518 -1.14214,1.15076 z M 309.07055,661 c -1.31073,-3.85 -2.80584,-7 -3.32247,-7 -0.51664,0 -2.24631,0.93064 -3.84371,2.06809 -2.2628,1.61126 -2.90437,2.84461 -2.90437,5.58334 0,7.1565 -2.54202,2.53653 -5.91483,-10.74988 C 289.03357,634.94123 289.24057,632 294.41546,632 c 3.76751,0 7.48042,3.48391 11.68425,10.96362 2.20624,3.92547 2.55092,4.1369 5.76214,3.53447 l 3.41553,-0.64075 -2.67649,2.32133 -2.6765,2.32133 2.41289,6.86969 c 2.3951,6.81908 2.49296,10.63031 0.27293,10.63031 -0.63608,0 -2.22893,-3.15 -3.53966,-7 z M 304,648.13767 C 304,645.48526 297.67101,635.5 295.98983,635.5 c -1.85071,0 -1.60448,5.55566 0.589,13.28994 l 1.50026,5.28993 2.96045,-2.10803 C 302.6678,650.81243 304,649.08705 304,648.13767 z M 593.14621,659.5428 C 588.86031,654.89314 588.34256,654 589.93305,654 c 1.19777,0 8.51154,8.88875 7.85443,9.54585 -0.27228,0.27228 -2.36085,-1.52909 -4.64127,-4.00305 z m 649.47899,0.47845 c -1.8004,-4.4995 -2.1379,-6.97526 -0.746,-5.47125 1.1846,1.27998 3.4411,8.46305 2.8456,9.05849 -0.2609,0.26097 -1.2058,-1.35329 -2.0996,-3.58724 z m -185.9641,0.0344 c -0.3636,-1.81808 -0.6468,-5.16185 -0.6293,-7.4306 0.029,-3.70534 0.171,-3.94143 1.4,-2.32063 1.4817,1.95407 1.8171,7.84852 0.6293,11.05944 -0.6306,1.70483 -0.8357,1.51322 -1.4,-1.30821 z m -727.73806,0.35167 c -0.72702,-0.876 -1.83343,-4.1385 -2.4587,-7.25 L 325.3275,647.5 323.50255,651 c -1.24044,2.37899 -1.97525,3.01957 -2.29424,2 -0.25811,-0.825 -1.08921,-2.21446 -1.84689,-3.08769 -1.1849,-1.36559 -1.10286,-1.83633 0.58648,-3.36516 1.08025,-0.97762 2.26291,-3.77015 2.62814,-6.20564 0.75961,-5.06548 2.92396,-5.41191 2.92396,-0.46802 0,2.40052 0.61727,3.49577 2.5,4.43584 2.02531,1.01126 2.62147,2.23803 3.13973,6.46093 0.74516,6.0717 1.45005,8.22974 2.6881,8.22974 0.48982,0 2.97895,-1.83824 5.53138,-4.08499 4.99476,-4.39656 5.4548,-4.38981 3.16077,0.0463 -3.16593,6.12224 -10.57336,9.0891 -13.59694,5.44591 z M 389.90042,630 c -0.5791,-4.50061 -0.39489,-5.8278 0.66216,-4.77075 0.30942,0.30942 0.4173,2.52192 0.23973,4.91667 L 390.47945,634.5 389.90042,630 z M 891,629.55902 c 0,-0.24254 0.45,-0.7191 1,-1.05902 0.55,-0.33992 1,-0.14148 1,0.44098 0,0.58246 -0.45,1.05902 -1,1.05902 -0.55,0 -1,-0.19844 -1,-0.44098 z M 561.34096,624.2718 c -4.97325,-5.4169 -5.87999,-8.10821 -1.24958,-3.70889 3.6221,3.44133 7.36292,8.43709 6.31768,8.43709 -0.39993,0 -2.68057,-2.12769 -5.0681,-4.7282 z M 1055.1949,625.5 c -0.02,-1.65 0.1871,-2.44606 0.461,-1.76903 0.274,0.67703 0.2906,2.02703 0.037,3 -0.2536,0.97297 -0.4777,0.41903 -0.4981,-1.23097 z m 173.8765,-4.75 c -0.4836,-1.2375 -1.8224,-4.42481 -2.9753,-7.08291 -2.1469,-4.94995 -2.82,-8.85752 -1.226,-7.11709 1.0384,1.13387 6.1933,16.45 5.5364,16.45 -0.2508,0 -0.8516,-1.0125 -1.3351,-2.25 z m -174.1945,-4.09924 c -0.3879,-6.02008 0.3542,-9.09698 1.4839,-6.15282 0.8528,2.22216 0.6916,7.52129 -0.3041,10.00206 -0.5765,1.43623 -0.9091,0.35117 -1.1798,-3.84924 z m -726.84649,0.0419 C 327.96913,613.0502 330.31666,601 331.08753,601 c 1.64913,0 1.70606,1.7345 0.26208,7.98492 -1.63757,7.08834 -3.266,10.86981 -3.3192,7.70771 z m 716.87099,-6.48091 c 0.8673,-1.54984 4.1126,-2.64126 4.0833,-1.37324 -0.031,1.3558 -1.5394,2.66582 -3.2209,2.79811 -1.2935,0.10176 -1.5134,-0.26161 -0.8624,-1.42487 z M 530.43208,590.33677 c -8.8625,-9.79725 -11.42932,-13.71705 -3.77574,-5.76594 8.78995,9.13166 12.4861,13.42917 11.54999,13.42917 -0.4632,0 -3.96161,-3.44845 -7.77425,-7.66323 z m 796.31792,6.84681 c -1.5125,-0.17403 -2.75,-0.81153 -2.75,-1.41667 0,-0.60513 -0.2697,-0.8305 -0.5994,-0.50081 -0.7081,0.70804 -6.4006,-4.89555 -6.4006,-6.30058 0,-1.51565 3.6197,-1.12872 5,0.53448 1.4437,1.73959 4.4685,2.06709 3.4198,0.37027 -0.4242,-0.68646 -0.1531,-0.94608 0.691,-0.66168 0.7641,0.25742 1.3892,1.45474 1.3892,2.6607 0,1.20596 0.6173,2.57667 1.3719,3.04603 2.1326,1.32657 0.9238,2.61871 -2.1219,2.26826 z M 388.15789,592 c 0,-1.375 0.22698,-1.9375 0.50439,-1.25 0.27741,0.6875 0.27741,1.8125 0,2.5 -0.27741,0.6875 -0.50439,0.125 -0.50439,-1.25 z m 911.20371,-0.5 c 0.6488,-1.69071 -1.8641,-2.11397 -2.8717,-0.48369 -1.0169,1.64547 -2.4668,0.0809 -1.6959,-1.83009 1.3189,-3.26954 3.7846,-6.03711 6.4678,-7.25964 1.4715,-0.67047 2.438,-1.60323 2.1478,-2.07281 -0.2902,-0.46957 -0.072,-0.85377 0.4861,-0.85377 1.032,0 2.7619,6.67866 2.2016,8.5 -0.1691,0.55 -0.3972,1.54948 -0.5068,2.22106 -0.2569,1.57419 -1.5905,2.92607 -1.5905,1.61227 0,-0.55 -0.675,-1 -1.5,-1 -0.825,0 -1.5,0.6 -1.5,1.33334 0,0.73333 -0.4981,1.33333 -1.107,1.33333 -0.6088,0 -0.848,-0.675 -0.5314,-1.5 z M 335.03041,581.19263 C 334.97677,577.12222 337.26541,565 338.08753,565 c 1.78477,0 1.89865,2.24794 0.43387,8.56398 -1.79343,7.7331 -3.44213,11.33592 -3.49099,7.62865 z M 1297,581 c 0,-0.55 0.1984,-1 0.441,-1 0.2425,0 0.7191,0.45 1.059,1 0.3399,0.55 0.1415,1 -0.441,1 -0.5824,0 -1.059,-0.45 -1.059,-1 z m 167.5255,-3.41667 c 0.8514,-1.14583 1.809,-2.87083 2.1279,-3.83333 0.3189,-0.9625 0.8649,-1.75614 1.2132,-1.76365 0.3484,-0.008 1.6459,-0.285 2.8834,-0.61664 1.35,-0.36178 2.25,-0.15632 2.25,0.51366 0,0.61415 -0.675,1.11663 -1.5,1.11663 -0.825,0 -1.5,0.45 -1.5,1 0,0.55 0.45,1 1,1 0.55,0 1,0.675 1,1.5 0,1.36915 -1.4064,1.89282 -4.75,1.76865 -0.6875,-0.0255 -1.25,0.27857 -1.25,0.67579 0,0.39723 -0.6801,0.72223 -1.5113,0.72223 -1.3367,0 -1.3324,-0.24078 0.037,-2.08334 z M 1469,577 c 0,-0.55 -0.45,-1 -1,-1 -0.55,0 -1,0.45 -1,1 0,0.55 0.45,1 1,1 0.55,0 1,-0.45 1,-1 z m -414.3333,0.33333 C 1054.3,576.96667 1054,574.53981 1054,571.94032 c 0,-4.93991 2.1374,-7.28582 4.4172,-4.8481 0.7814,0.83546 0.7348,1.28538 -0.1672,1.61611 -0.7421,0.27212 -1.25,2.25278 -1.25,4.875 0,4.12496 -0.7512,5.33218 -2.3333,3.75 z M 1461.8,573.8 c 0.9333,-0.93333 1.4667,-0.93333 2.4,0 0.9333,0.93333 0.6667,1.2 -1.2,1.2 -1.8667,0 -2.1333,-0.26667 -1.2,-1.2 z m -249.7211,-1.21667 c -0.043,-1.05416 0.193,-1.64479 0.5253,-1.3125 0.3323,0.33229 0.3678,1.1948 0.079,1.91667 -0.3192,0.79773 -0.5562,0.56078 -0.6042,-0.60417 z m 264.4467,-9.54183 c -0.3588,-0.5806 0.071,-1.33304 0.9541,-1.6721 2.1999,-0.84418 2.8843,0.0836 1.1335,1.53666 -0.9856,0.81795 -1.6395,0.86038 -2.0876,0.13544 z M 386.75869,558 c -0.40772,-3.025 -0.70463,-7.075 -0.65981,-9 l 0.0815,-3.5 0.95751,3.32375 c 0.52663,1.82807 0.82355,5.87807 0.65981,9 L 387.5,563.5 386.75869,558 z m 109.74377,-4.75 c -4.62767,-5.33715 -4.96127,-5.91276 -1.59382,-2.75 3.95971,3.71902 8.72874,9.5 7.83703,9.5 -0.21478,0 -3.02423,-3.0375 -6.24321,-6.75 z M 1053.5,549.34917 c -3.3511,-0.77301 -7.5001,-2.55484 -7.4989,-3.22049 6e-4,-0.34577 4.8381,-0.62868 10.75,-0.62868 5.9119,0 12.2114,-0.32625 13.9989,-0.725 5.4062,-1.20599 3.6934,1.0458 -2,2.62944 -6.39,1.77741 -12.5629,2.56459 -15.25,1.94473 z m -40.421,-5.61391 c -1.3316,-0.67939 -2.6278,-1.86127 -2.8804,-2.62639 -0.3632,-1.09997 0.1435,-1.20705 2.421,-0.51159 1.5842,0.48375 5.2219,0.84927 8.0836,0.81228 5.8516,-0.0757 6.068,1.0044 0.5107,2.54784 -4.6769,1.29889 -5.1808,1.28513 -8.1349,-0.22214 z M 984,540.5 c 0.68469,-0.825 1.46989,-1.5 1.74489,-1.5 0.275,0 -0.0602,0.675 -0.74489,1.5 -0.68469,0.825 -1.46989,1.5 -1.74489,1.5 -0.275,0 0.0602,-0.675 0.74489,-1.5 z m 214.2634,-4.98147 C 1197.1453,532.48334 1196.5925,530 1197.0349,530 c 0.9254,0 4.4001,9.89836 3.7151,10.58331 -0.2495,0.24956 -1.3685,-2.02959 -2.4866,-5.06478 z M 343.11499,538 c 0.0464,-1.375 0.44466,-3.625 0.88501,-5 0.7336,-2.29068 0.8077,-2.20695 0.88501,1 0.0464,1.925 -0.35185,4.175 -0.88501,5 -0.76214,1.17932 -0.95134,0.96553 -0.88501,-1 z M 1053,533 c 0,-4 0.4286,-7 1,-7 0.5714,0 1,3 1,7 0,4 -0.4286,7 -1,7 -0.5714,0 -1,-3 -1,-7 z M 385.17471,519.81739 c -0.14717,-3.94438 0.15248,-4.78646 1.90065,-5.34131 1.14145,-0.36228 2.30036,-0.43369 2.57536,-0.15869 0.275,0.275 -0.40913,0.78855 -1.5203,1.14122 -1.51023,0.47932 -2.11633,1.70163 -2.40065,4.8413 l -0.38036,4.20009 -0.1747,-4.68261 z m 595.0199,0.19713 C 974.66486,517.39935 972.19524,515 975.03324,515 c 1.57851,0 10.7357,4.81712 11.49613,6.04752 1.30451,2.11075 -0.20925,1.8639 -6.33476,-1.033 z M 349.54769,505 c 1.1124,-9.65526 2.70396,-17 3.6838,-17 1.4117,0 0.19966,8.47802 -2.24665,15.71482 l -1.9556,5.78518 0.51845,-4.5 z M 952.55241,492.73132 C 948.94859,489.28355 946,485.64605 946,484.64799 c 0,-0.99806 0.37063,-1.66466 0.82362,-1.48132 1.34299,0.54352 13.17638,13.95554 13.17638,14.93416 0,1.57649 -0.75975,1.02873 -7.44759,-5.36951 z m -569.07415,-8.20958 c -0.39775,-5.83558 -0.49819,-10.83515 -0.22319,-11.11015 0.275,-0.275 0.82544,4.27457 1.22319,10.11015 0.39775,5.83558 0.49819,10.83514 0.22319,11.11014 -0.275,0.275 -0.82544,-4.27456 -1.22319,-10.11014 z M 1052.0153,491.75 c 0.012,-1.81944 0.2008,-1.96296 0.9847,-0.75 1.2529,1.93876 1.2529,3 0,3 -0.55,0 -0.9931,-1.0125 -0.9847,-2.25 z M 1052,485 c 0,-0.55 0.1984,-1 0.441,-1 0.2425,0 0.7191,0.45 1.059,1 0.3399,0.55 0.1415,1 -0.441,1 -0.5824,0 -1.059,-0.45 -1.059,-1 z M 425.55789,474.19472 c -4.87851,-5.62143 -4.88714,-5.64324 -0.67084,-1.69472 3.55297,3.32731 6.98137,7.6547 5.89813,7.44472 -0.15685,-0.0304 -2.50913,-2.61791 -5.22729,-5.75 z M 357.42223,463.75 c 0.25319,-1.2375 0.98772,-5.2875 1.63229,-9 0.64457,-3.7125 1.57099,-6.75 2.05871,-6.75 0.48772,0 0.88677,0.75496 0.88677,1.6777 0,3.15712 -3.40584,16.3223 -4.22258,16.3223 -0.44854,0 -0.60837,-1.0125 -0.35519,-2.25 z m 573.61145,-3.68328 C 927.97852,454.01449 927.16216,450 928.98658,450 c 0.96924,0 2.8786,3.8588 5.55377,11.22406 2.23468,6.15252 -0.22674,5.34015 -3.50667,-1.15734 z M 381.72148,445.10331 C 380.70359,436.07859 380.82602,429 382,429 c 0.55,0 1,1.575 1,3.5 0,2.40342 0.45789,3.5 1.46146,3.5 0.88044,0 1.89799,1.68961 2.55952,4.25 0.60393,2.3375 1.30969,4.98421 1.56834,5.88158 0.51615,1.79069 -2.16653,3.36153 -3.11631,1.82475 -1.02759,-1.66268 -2.32116,-1.03871 -2.68198,1.29367 -0.19144,1.2375 -0.67273,-0.62851 -1.06955,-4.14669 z m 15.86102,0.0284 C 394.71626,444.5111 392.67688,442 395.03911,442 c 1.82824,0 -0.95723,-3.01837 -3.77364,-4.08917 -1.2742,-0.48445 -2.56304,-1.67507 -2.86409,-2.64582 -0.30106,-0.97076 -1.00909,-2.61775 -1.5734,-3.66 -0.85037,-1.57057 -0.73987,-1.78518 0.64544,-1.25358 0.91931,0.35277 2.58718,0.15132 3.70638,-0.44766 2.61505,-1.39953 4.72896,0.29632 2.98649,2.39586 -1.5518,1.86981 -0.486,2.70037 3.46519,2.70037 4.22182,0 5.87887,2.63278 4.20718,6.68453 -0.63889,1.54851 -1.08896,3.15297 -1.00014,3.56547 0.0888,0.4125 0.049,0.69676 -0.0885,0.63169 -0.1375,-0.0651 -1.56288,-0.40258 -3.1675,-0.75 z M 399,439 c 0,-1.92166 -1.95562,-2.71105 -3.32466,-1.34201 C 394.91831,438.41502 396.8111,441 398.12244,441 398.6051,441 399,440.1 399,439 z m 652.2997,-1 c 0,-3.025 0.1874,-4.2625 0.4166,-2.75 0.2291,1.5125 0.2291,3.9875 0,5.5 -0.2292,1.5125 -0.4166,0.275 -0.4166,-2.75 z m -646.11942,1.71723 c -0.58553,-0.70552 -1.52949,-2.50552 -2.09769,-4 C 402.42808,433.99575 401.30752,433 400.02475,433 c -3.20179,0 -2.36243,-1.83207 1.59737,-3.48658 C 405.62205,427.84214 412,427.47778 412,428.92054 c 0,0.5063 -1.38175,1.22403 -3.07055,1.59496 -2.33597,0.51306 -2.9137,1.07035 -2.41493,2.32945 2.27791,5.75027 1.41656,10.18679 -1.33424,6.87228 z m 515.91676,-22.30621 c -1.33039,-4.79163 -1.43604,-14.08347 -0.16904,-14.86652 1.20629,-0.74553 1.79839,1.48828 2.50632,9.4555 0.70568,7.94201 -0.71888,11.24 -2.33728,5.41102 z M 1050,398.5 c 0,-3.20833 0.3086,-5.52469 0.6859,-5.14747 0.7233,0.72332 0.5139,9.78096 -0.2436,10.53849 C 1050.199,404.13429 1050,401.70833 1050,398.5 z M 918.08414,378.00584 c -0.77872,-1.37179 -1.62539,-5.75929 -1.8815,-9.75 C 915.79926,361.97029 915.95936,361 917.39988,361 c 2.37605,0 2.72327,1.60805 2.39325,11.08359 -0.27293,7.83637 -0.39071,8.24452 -1.70899,5.92225 z m 218.11746,-18.72378 c -1.9124,-4.98386 -2.5099,-7.86396 -1.4069,-6.78206 1.0758,1.05532 3.3907,8.64792 2.8128,9.22584 -0.1861,0.18606 -0.8187,-0.91364 -1.4059,-2.44378 z M 1049.232,349 c 0,-1.925 0.2058,-2.7125 0.4573,-1.75 0.2516,0.9625 0.2516,2.5375 0,3.5 -0.2515,0.9625 -0.4573,0.175 -0.4573,-1.75 z m 368.8536,1 c 0.03,-0.825 0.4417,-2.4 0.9144,-3.5 0.8594,-2 0.8594,-2 0.9144,0 0.03,1.1 -0.3812,2.675 -0.9144,3.5 -0.8617,1.33333 -0.9633,1.33333 -0.9144,0 z M 916.64463,329.17913 c -0.60682,-3.79486 -0.058,-16.26304 0.92127,-20.92913 0.25971,-1.2375 1.13863,-2.25 1.95315,-2.25 1.8275,0 1.97176,6.28439 0.40579,17.67764 -1.25514,9.13176 -2.39421,11.04218 -3.28021,5.50149 z M 1123,321.5 c -0.735,-1.37334 -1.0483,-2.78507 -0.6962,-3.13718 0.3522,-0.35211 1.1154,0.60962 1.6962,2.13718 1.3639,3.58739 0.7261,4.22522 -1,1 z m -489,0.55902 C 634,321.47656 634.45,321 635,321 c 0.55,0 1,0.19844 1,0.44098 0,0.24254 -0.45,0.7191 -1,1.05902 -0.55,0.33992 -1,0.14148 -1,-0.44098 z M 1048.2724,312 c 0,-2.475 0.195,-3.4875 0.4333,-2.25 0.2384,1.2375 0.2384,3.2625 0,4.5 -0.2383,1.2375 -0.4333,0.225 -0.4333,-2.25 z m 59.0413,-35.02357 C 1105.6383,273.16288 1105.4473,272 1106.4963,272 c 0.7529,0 1.5907,0.7875 1.8617,1.75 0.9033,3.20848 1.8052,8.25031 1.4715,8.22643 -0.1812,-0.013 -1.3133,-2.26296 -2.5158,-5 z M 1047.7103,279 c -0.2877,-1.1 -0.1152,-2 0.3833,-2 0.4985,0 0.9064,0.9 0.9064,2 0,1.1 -0.1725,2 -0.3834,2 -0.2108,0 -0.6187,-0.9 -0.9063,-2 z m -118.27021,-9.25 c 1.68853,-7.94479 4.95668,-20.5267 5.82925,-22.4418 0.96298,-2.11351 4.32742,-4.04478 5.31897,-3.05322 0.24068,0.24067 -0.60889,2.86926 -1.88792,5.8413 -1.27903,2.97205 -3.1479,8.10372 -4.15303,11.40372 -2.2773,7.47668 -3.64078,10.5 -4.73539,10.5 -0.46754,0 -0.63488,-1.0125 -0.37188,-2.25 z M 1005,258.05902 c 0,-0.58246 0.45,-1.05902 1,-1.05902 0.55,0 1,0.19844 1,0.44098 0,0.24254 -0.45,0.7191 -1,1.05902 -0.55,0.33992 -1,0.14148 -1,-0.44098 z M 1047.0703,247.25 c -0.039,-1.7875 0.3797,-3.25 0.9297,-3.25 1.1872,0 1.1872,1.7373 0,4.5 -0.7202,1.67602 -0.8708,1.47353 -0.9297,-1.25 z M 459.5,225 c -0.33992,-0.55 -0.14148,-1 0.44098,-1 0.58246,0 1.05902,0.45 1.05902,1 0,0.55 -0.19844,1 -0.44098,1 -0.24254,0 -0.7191,-0.45 -1.05902,-1 z m 546.25,-0.66228 c 0.6875,-0.27741 1.25,-1.34033 1.25,-2.36204 0,-1.0217 0.3686,-2.08544 0.8191,-2.36385 0.4504,-0.27841 0.6244,0.82003 0.3865,2.44098 -0.2837,1.9324 -0.9961,2.92001 -2.0691,2.86824 -1.037,-0.05 -1.1786,-0.26371 -0.3865,-0.58333 z M 1046,214 c 0,-1.1 0.45,-2 1,-2 0.55,0 1,0.9 1,2 0,1.1 -0.45,2 -1,2 -0.55,0 -1,-0.9 -1,-2 z m 36.6252,-8.97875 c -1.9946,-4.98486 -2.023,-5.59628 -0.1895,-4.0746 1.466,1.21667 3.1347,6.81626 2.2846,7.66634 -0.2584,0.25849 -1.2013,-1.35779 -2.0951,-3.59174 z M 1046.174,186 c -0.1078,-1.375 -0.4747,-4.3 -0.8152,-6.5 -0.4741,-3.06243 -0.3409,-3.74048 0.5682,-2.89279 0.7336,0.68406 1.0452,3.16825 0.8152,6.5 -0.2047,2.96604 -0.4604,4.26779 -0.5682,2.89279 z M 972,181.60155 c 0,-1.31915 1.38053,-5.03165 3.06783,-8.25 C 979.25309,165.36864 985,159.46128 985,163.14209 c 0,1.54591 -11.30535,20.7522 -12.25,20.81112 -0.4125,0.0257 -0.75,-1.03251 -0.75,-2.35166 z m 100.2575,-6.32112 c -3.0403,-7.21279 -4.4461,-12.06758 -4.0604,-14.02234 0.1908,-0.96695 1.8125,2.69136 3.6039,8.12958 3.4997,10.62454 3.7359,13.67286 0.4565,5.89276 z m 93.7705,-17.22803 c -1.4907,-2.78548 -1.8179,-14.5524 -0.4046,-14.5524 0.6178,0 3.0121,2.38942 5.3205,5.30982 2.3085,2.9204 4.7279,5.13328 5.3766,4.9175 1.7592,-0.58514 2.4297,-5.02972 2.5612,-16.97732 0.1199,-10.89972 1.1357,-13.41255 3.2338,-8 1.3957,3.60058 1.3528,18.79731 -0.068,24.07375 -0.9973,3.70345 -3.3162,6.17625 -5.7919,6.17625 -0.4818,0 -2.3114,-1.4034 -4.0658,-3.11866 l -3.1898,-3.11865 0,3.61865 c 0,3.96463 -1.341,4.71861 -2.972,1.67106 z M 1045.3652,145.5 c 0,-5.5 0.1632,-7.87758 0.3685,-5.28352 0.2052,2.59406 0.2073,7.09406 0,10 -0.2026,2.90594 -0.3706,0.78352 -0.3732,-4.71648 z m -48.32725,-1.57439 C 1000.8179,136.51632 1009,129.09068 1009,133.06951 c 0,1.31192 -10.98218,13.70968 -12.74277,14.38528 -0.80094,0.30734 -0.51338,-0.99253 0.78072,-3.52918 z M 961,140.44098 c 0,-0.85746 0.45,-1.2809 1,-0.94098 0.55,0.33992 1,1.04148 1,1.55902 0,0.51754 -0.45,0.94098 -1,0.94098 -0.55,0 -1,-0.70156 -1,-1.55902 z m -10.26903,-0.0969 c 0.67703,-0.27392 2.02703,-0.29059 3,-0.0371 0.97297,0.25354 0.41903,0.47766 -1.23097,0.49804 -1.65,0.0204 -2.44606,-0.18706 -1.76903,-0.46099 z m -7.25796,-1.30039 c 0.32507,-0.52598 1.25163,-0.70283 2.05902,-0.39301 2.06711,0.79323 1.82352,1.34934 -0.59105,1.34934 -1.13246,0 -1.79305,-0.43035 -1.46797,-0.95633 z m 115.58499,-2.9036 c -0.73,-1.76231 -1.0542,-3.47718 -0.7206,-3.81082 0.7435,-0.74349 2.8617,4.57348 2.3881,5.99436 -0.1872,0.56137 -0.9375,-0.42123 -1.6675,-2.18354 z m -123.308,1.14368 c -2.97136,-0.45013 -3.65264,-2.00014 -1.2794,-2.91084 0.80883,-0.31038 2.66952,0.37874 4.13486,1.53138 2.6448,2.0804 2.43635,2.1811 -2.85546,1.37946 z M 1021,117.78558 C 1021,116.09811 1034.8387,103 1036.6216,103 c 1.9322,0 1.7172,2.66352 -0.3835,4.75 -2.9596,2.93973 -10.6062,8.9172 -12.9881,10.15299 -1.7716,0.91915 -2.25,0.89418 -2.25,-0.11741 z m 23.1295,-10.20684 c -0.097,-6.68652 -0.5356,-9.370022 -1.7508,-10.712754 -1.7912,-1.979287 -1.2639,-4.589061 1.1114,-5.500543 2.1801,-0.836614 4.5099,1.435935 4.5099,4.399189 0,1.385858 0.9319,5.648868 2.0709,9.473348 1.139,3.82448 1.8728,7.15167 1.6307,7.39375 -0.2421,0.24208 -1.5074,-2.16353 -2.8117,-5.34579 l -2.3716,-5.78594 -1.1297,7.5 -1.1296,7.5 -0.1295,-8.92126 z m 41.5054,-31.65132 c -3.4056,-2.678822 -3.3334,-5.271257 0.3643,-13.087632 1.6496,-3.486883 2.9996,-7.043942 3,-7.904576 4e-4,-0.860633 -1.5982,-2.327291 -3.5525,-3.259241 -1.9543,-0.931949 -3.2778,-2.140295 -2.941,-2.685212 0.9983,-1.615289 4.0406,-1.135481 6.8594,1.081821 2.1875,1.72066 2.6294,2.866798 2.6023,6.75 -0.018,2.572581 -0.89,7.15242 -1.9378,10.17742 -2.3688,6.838594 -1.6725,7.731509 4.9683,6.371151 5.8748,-1.203445 7.0227,0.532606 2.0518,3.103169 -4.0792,2.109425 -8.2946,1.907458 -11.4148,-0.5469 z M 1033.2,71.8 c -1.4579,-1.457888 -1.5709,-4.452737 -0.2,-5.3 0.55,-0.339919 1,0.09765 1,0.972368 0,4.048961 5.8627,2.300113 11.75,-3.505033 1.7875,-1.762558 3.25,-3.75651 3.25,-4.431005 0,-1.659734 -2.6612,-3.881734 -7.6555,-6.391918 -2.2855,-1.148737 -5.0881,-3.27426 -6.228,-4.723386 -2.7478,-3.493268 -1.4316,-5.951758 4.6193,-8.628354 3.9034,-1.726645 5.1164,-1.853911 8.3725,-0.878374 5.1084,1.530512 5.8021,3.007876 1.1419,2.432074 -4.5473,-0.561868 -10.7502,2.457276 -10.7502,5.232498 0,1.012805 1.575,2.848012 3.5,4.078238 9.6964,6.196789 11,7.353001 11,9.756663 0,7.052953 -15.3221,15.864118 -19.8,11.386229 z m 25.9594,-5.400914 c -1.2571,-0.880502 -2.7187,-2.739939 -3.248,-4.132081 -1.0662,-2.804286 -0.2922,-6.620402 1.1606,-5.722509 0.5104,0.315446 0.928,-0.101462 0.928,-0.926462 0,-0.825 -0.45,-1.778115 -1,-2.118034 -0.55,-0.339919 -1,-2.675861 -1,-5.190983 0,-8.679148 6.6978,-15.068695 14.0561,-13.409138 11.4025,2.571691 13.8788,11.044897 6.568,22.473642 -6.1718,9.647947 -12.1588,12.741981 -17.4647,9.025565 z M 1067.152,61.25 c 4.0981,-4.461159 6.5403,-8.476198 7.8798,-12.954675 C 1076.6793,42.78707 1074.5931,39 1069.9112,39 c -4.5581,0 -6.8886,1.694621 -9.0498,6.580514 -1.8747,4.238074 -1.98,11.012197 -0.259,16.669486 0.783,2.573892 3.6717,2.13284 6.5496,-1 z"
     id="path3181"
     style="fill:#000000" />
</svg>
