<?xml version="1.0" encoding="UTF-8" standalone="no"?>
<!-- Created with Inkscape (http://www.inkscape.org/) -->

<svg
   xmlns:dc="http://purl.org/dc/elements/1.1/"
   xmlns:cc="http://creativecommons.org/ns#"
   xmlns:rdf="http://www.w3.org/1999/02/22-rdf-syntax-ns#"
   xmlns:svg="http://www.w3.org/2000/svg"
   xmlns="http://www.w3.org/2000/svg"
   version="1.1"
   width="1564.7107"
   height="1503.9703"
   id="svg3057">
  <metadata
     id="metadata3063">
    <rdf:RDF>
      <cc:Work
         rdf:about="">
        <dc:format>image/svg+xml</dc:format>
        <dc:type
           rdf:resource="http://purl.org/dc/dcmitype/StillImage" />
        <dc:title></dc:title>
      </cc:Work>
    </rdf:RDF>
  </metadata>
  <defs
     id="defs3061" />
  <path
     d="m 1186.0994,1501.4176 c 3.3,-1.3805 10.0909,-3.3408 15.0909,-4.3562 4.9999,-1.0155 10.8499,-2.73 13,-3.81 2.15,-1.0801 7.039,-2.9932 10.8645,-4.2514 3.8254,-1.2582 9.0004,-3.5509 11.5,-5.0949 2.4995,-1.5439 7.4696,-4.4861 11.0446,-6.5382 14.8232,-8.5085 33.4426,-25.915 42.3675,-39.6078 5.6663,-8.6934 15.3159,-27.9686 22.4613,-44.8667 l 4.0677,-9.6196 -1.4186,-13.3804 c -0.7802,-7.3591 -2.1517,-15.8553 -3.0477,-18.8803 -2.8536,-9.6335 -9.6495,-26.1228 -13.1497,-31.9059 -6.7232,-11.108 -10.7311,-21.2084 -16.8597,-42.4881 -3.4321,-11.9168 -0.9798,-23.979 9.3602,-46.041 4.4851,-9.5697 7.5514,-13.5853 25.4305,-33.3035 14.9587,-16.4974 19.739,-23.1594 26.0025,-36.2385 5.6181,-11.7315 8.5868,-20.8879 10.3825,-32.023 0.8426,-5.225 2.628,-14.8993 3.9677,-21.4984 3.8944,-19.183 3.4272,-22.9939 -5.3566,-43.6937 -5.1294,-12.0879 -7.4637,-15.1339 -14.443,-18.8466 -4.8988,-2.6059 -7.478,-6.3967 -5.7604,-8.4663 0.6824,-0.8223 1.8622,-1.495 2.6219,-1.495 0.7596,0 3.0604,-0.9 5.1127,-2 2.0524,-1.1 4.6382,-2.0017 5.7464,-2.0037 1.1081,0 3.3975,-0.847 5.0876,-1.8776 1.69,-1.0305 5.5811,-2.6029 8.6469,-3.4942 5.8761,-1.7082 12.3463,-6.8491 25.5965,-20.3378 6.7022,-6.82281 8.1817,-9.59786 14.0142,-26.2867 3.5847,-10.25697 3.6688,-10.83562 3.6367,-25 -0.037,-16.34681 -1.5031,-22.60738 -9.9188,-42.35684 -6.018,-14.12299 -8.7682,-24.47463 -9.6023,-36.14316 -1.2611,-17.64045 3.6386,-41.97806 11.2738,-56 3.935,-7.22647 30.0137,-29.12015 41.6318,-34.95088 2.9434,-1.47717 10.8184,-4.50929 17.5,-6.73803 14.6857,-4.8986 19.6509,-7.32365 26.1696,-12.78135 2.7383,-2.29265 7.0714,-5.24707 9.629,-6.56538 2.5577,-1.31832 6.7611,-4.22384 9.341,-6.45672 2.5799,-2.23288 6.5623,-4.99567 8.8497,-6.13952 6.9526,-3.47663 18.2405,-12.63007 22.3836,-18.15106 3.9198,-5.22328 6.3971,-9.55827 17.3428,-30.3483 9.9074,-18.81777 12.4178,-27.64546 14.8929,-52.36876 1.2623,-12.60902 1.3706,-29 0.1917,-29 -1.0631,0 -3.737,-6.14819 -5.1101,-11.75 -2.5371,-10.35009 -3.4169,-13.04678 -5.7909,-17.75 -4.9273,-9.7611 -13.0931,-21.12597 -21.8277,-30.37871 l -8.8535,-9.37872 -11.0348,0.67532 c -6.0692,0.37143 -15.0849,1.08457 -20.0349,1.58477 -4.95,0.50019 -12.825,1.17663 -17.5,1.50319 -4.675,0.32656 -13,1.01481 -18.5,1.52945 -8.7126,0.81524 -33.5682,3.00173 -50.5,4.44238 -3.025,0.25738 -11.575,0.94726 -19,1.53307 -7.425,0.58581 -18,1.48489 -23.5,1.99794 -5.5,0.51306 -13.825,1.19436 -18.5,1.514 -4.675,0.31963 -12.775,0.98777 -18,1.48474 -5.225,0.49697 -12.65,1.14596 -16.5,1.44219 -3.85,0.29624 -12.4,0.99257 -19,1.5474 -6.6,0.55483 -29.325,2.36549 -50.5,4.02368 -21.175,1.65819 -39.2875,3.26221 -40.25,3.56448 -0.9625,0.30228 -1.75,1.42776 -1.75,2.50108 0,4.10712 4.0204,62.8939 4.9524,72.41374 0.5384,5.5 1.4583,17.2 2.0441,26 1.2472,18.7337 4.2689,59.45479 7.0865,95.5 1.0963,14.025 2.4377,32.25 2.9808,40.5 0.5431,8.25 1.4682,16.20778 2.0558,17.68395 0.5876,1.47617 0.7761,4.01441 0.419,5.64051 -0.3572,1.62611 -0.1814,8.51834 0.3906,15.31605 0.572,6.79772 1.9509,24.73449 3.0643,39.85949 1.1134,15.125 2.4554,32.675 2.9821,39 0.5267,6.325 1.4335,18.25 2.0151,26.5 0.5816,8.25 1.7209,24.225 2.5317,35.5 1.7182,23.8934 1.953,47 0.4776,47 -0.55,0 -1.0334,-0.3375 -1.0743,-0.75 -0.041,-0.4125 -0.2375,-1.65 -0.4369,-2.75 -0.329,-1.8149 -2.8681,-33.62059 -5.4785,-68.6251 -0.5588,-7.49381 -1.2448,-16.04381 -1.5245,-19 -0.749,-7.91865 -4.366,-56.85971 -5.0162,-67.8749 -0.631,-10.68901 -2.1294,-30.09241 -3.1083,-40.25 -0.6012,-6.23871 -0.8289,-6.75 -3.0059,-6.75 -3.0035,0 -3.0884,-1.75679 -0.1054,-2.18045 2.6254,-0.37286 2.626,-0.46727 0.2152,-32.31955 -0.791,-10.45 -1.6629,-22.15 -1.9377,-26 -0.2748,-3.85 -1.1749,-16.45 -2.0002,-28 -0.8253,-11.55 -1.742,-24.6 -2.0372,-29 -0.2951,-4.4 -0.9738,-13.4 -1.5081,-20 -0.5342,-6.6 -1.8723,-25.275 -2.9735,-41.5 -1.1011,-16.225 -2.4355,-34.9 -2.9653,-41.5 -0.5297,-6.6 -1.2316,-16.5 -1.5597,-22 -0.86,-14.41838 -0.8941,-14.50298 -5.8419,-14.48469 -7.2654,0.0269 -6.9596,-1.43217 -6.2083,29.61817 0.3709,15.32659 1.0865,38.66652 1.5902,51.86652 0.5038,13.2 1.8585,53.025 3.0105,88.5 1.152,35.475 2.4031,69 2.7803,74.5 l 0.6857,10 3.7709,0.31161 c 4.2869,0.35425 4.1,2.18839 -0.2229,2.18839 -1.7588,0 -3.0847,0.6532 -3.4947,1.72158 -0.3633,0.94687 -0.3979,7.35937 -0.077,14.25 0.6861,14.72751 3.6873,97.62585 6.4996,179.52842 1.0954,31.9 2.2137,62.5 2.4851,68 0.2715,5.5 0.7437,20.575 1.0495,33.5 0.3058,12.925 0.7646,28 1.0195,33.5 0.2549,5.5 1.1276,31.825 1.9394,58.5 0.8117,26.675 1.7079,54.35 1.9914,61.5 0.2835,7.15 0.7402,19.525 1.0149,27.5 0.8383,24.3386 1.4643,42.5265 2.2198,64.5 0.7328,21.3124 0.8382,45.2001 0.2171,49.1946 -0.2359,1.5173 -0.6945,1.9015 -1.4856,1.2449 -1.2027,-0.9981 -2.0069,-12.2645 -2.9582,-41.4395 -0.3048,-9.35 -0.7854,-18.4891 -1.068,-20.3092 -0.2825,-1.82 -0.693,-15.995 -0.9121,-31.5 -0.3773,-26.7002 -0.9661,-44.4057 -2.0016,-60.1908 -0.2526,-3.85 -0.9167,-23.2 -1.4759,-43 -0.5592,-19.8 -1.2298,-40.275 -1.4903,-45.5 -0.2605,-5.225 -0.7177,-18.5 -1.0159,-29.5 -0.5739,-21.1632 -0.9422,-32.6798 -2.5107,-78.5 -0.5366,-15.675 -1.2123,-35.475 -1.5016,-44 -0.2893,-8.525 -0.734,-20 -0.9884,-25.5 -0.2543,-5.5 -0.7038,-18.325 -0.9989,-28.5 -0.295,-10.175 -0.747,-24.575 -1.0044,-32 -0.2573,-7.425 -0.7089,-20.475 -1.0034,-29 -0.2946,-8.525 -0.7435,-20.675 -0.9976,-27 -0.2541,-6.325 -0.7012,-20.275 -0.9936,-31 -0.2923,-10.725 -0.7595,-24.45 -1.0382,-30.5 -0.2787,-6.05 -0.9384,-26.525 -1.4659,-45.5 -0.5276,-18.975 -1.211,-42.6 -1.5187,-52.5 -0.8785,-28.26063 -1.3564,-44.39714 -1.9693,-66.5 -0.3126,-11.275 -0.7633,-22.3 -1.0015,-24.5 -0.2382,-2.2 -0.711,-16.375 -1.0508,-31.5 -0.3397,-15.125 -0.838,-28.2875 -1.1073,-29.25 -0.6326,-2.26133 -7.8556,-2.31373 -29.8548,-0.21659 -8.8,0.83889 -22.525,1.94335 -30.5,2.45435 -18.831,1.2066 -27.0288,1.91658 -35,3.03122 -3.575,0.4999 -12.125,1.18104 -19,1.51365 -6.9908,0.3382 -14.3577,1.26612 -16.7149,2.10537 -2.5346,0.90238 -4.815,1.16482 -5.7201,0.6583 -1.4998,-0.83934 -23.925,0.47555 -47.31502,2.77428 -8.78701,0.86357 -12.25,1.57247 -12.25,2.50765 0,0.71705 -0.49821,1.61165 -1.10713,1.98798 -0.75316,0.46548 -0.88031,-0.0304 -0.39768,-1.55104 0.69278,-2.18276 0.57191,-2.22104 -5.14287,-1.6288 -3.21878,0.33357 -14.62732,1.27864 -25.35232,2.10014 -10.725,0.8215 -24.675,1.95731 -31,2.52403 -6.325,0.56671 -28.6,2.3662 -49.5,3.99886 -20.9,1.63266 -49.7,3.88296 -64,5.00065 -23.82805,1.86241 -43.32099,3.48548 -108,8.99254 -24.12181,2.05384 -51.36364,4.26271 -105.5,8.55435 -17.875,1.41704 -43.075,3.45236 -56,4.52295 -12.925,1.07058 -32.725,2.59992 -44,3.39853 -11.275,0.79861 -31.075,2.35631 -44,3.46154 -50.15972,4.28923 -59.51749,5.06882 -90.5,7.53943 -17.6,1.40346 -43.025,3.43955 -56.5,4.52463 -22.6296,1.82226 -75.45637,5.97663 -120,9.43696 -37.53371,2.91576 -59.51136,4.82368 -59.93333,5.20291 -0.23834,0.21419 0.0992,0.92194 0.75,1.57278 0.65083,0.65083 1.18333,1.59256 1.18333,2.09274 0,0.92859 -2.17031,0.69092 -12.16443,-1.3321 -5.07576,-1.02745 -6.15703,-0.9287 -10.404536,0.95017 -5.032977,2.22633 -6.521559,2.09144 -4.451093,-0.40331 1.597299,-1.92463 5.456311,-2.06909 -37.979944,1.42172 -40.270787,3.23641 -56.0162026,4.27944 -54.50000038,3.61027 0.55,-0.24274 9.09999998,-1.14352 19.00000038,-2.00174 80.076913,-6.94178 82.208893,-7.18027 85.196593,-9.5304 3.13483,-2.46586 5.06199,-2.55248 7.50948,-0.33753 1.70607,1.54397 3.23389,1.58416 18.07874,0.47559 18.77825,-1.40231 49.94833,-3.93299 57.21519,-4.64526 13.2993,-1.30356 67.60795,-5.87068 119.5,-10.04943 10.725,-0.86366 32.775,-2.68226 49,-4.04134 16.225,-1.35908 32.65,-2.70421 36.5,-2.98918 3.85,-0.28497 17.575,-1.39055 30.5,-2.45685 22.23782,-1.83459 57.1296,-4.52033 72.5,-5.58057 3.85,-0.26557 10.825,-0.91617 15.5,-1.44577 4.675,-0.52961 18.175,-1.6424 30,-2.47286 11.825,-0.83046 25.55,-1.93011 30.5,-2.44365 4.95,-0.51355 13.26558,-1.21915 18.47906,-1.568 5.21349,-0.34885 9.71349,-0.77015 10,-0.93622 0.28652,-0.16607 5.47094,-0.60424 11.52094,-0.97372 6.05,-0.36947 12.8,-0.86172 15,-1.09387 9.2681,-0.97802 28.35823,-2.57351 48,-4.0117 11.55,-0.8457 23.025,-1.74213 25.5,-1.99207 2.475,-0.24995 10.35,-0.92715 17.5,-1.50489 23.05049,-1.86257 34.425,-2.81353 65,-5.43429 16.5,-1.41431 35.625,-3.01378 42.5,-3.55437 23.54548,-1.85141 73.49748,-5.96231 78,-6.41915 2.475,-0.25113 11.25,-0.94327 19.5,-1.5381 8.25,-0.59483 22.2,-1.73095 31,-2.5247 8.8,-0.79375 27.475,-2.3639 41.5,-3.4892 36.44102,-2.92388 41.00872,-3.56429 42.70602,-5.98755 1.7446,-2.49074 4.7222,-2.58113 7.0882,-0.21516 1.9283,1.92829 3.7945,1.88634 34.2058,-0.76883 27.7711,-2.42466 38.055,-3.27177 73.5,-6.05438 7.7,-0.60449 15.9791,-1.33281 18.398,-1.61849 l 4.398,-0.51942 -0.6642,-26.16653 c -0.3653,-14.39159 -0.8519,-31.34153 -1.0812,-37.66653 -0.2294,-6.325 -0.6804,-21.175 -1.0021,-33 -0.3218,-11.825 -0.7886,-25.775 -1.0373,-31 -0.2487,-5.225 -0.7,-19.4 -1.003,-31.5 -0.3029,-12.1 -0.7594,-25.6 -1.0146,-30 -0.2552,-4.4 -0.7414,-19.7 -1.0806,-34 -0.5116,-21.57337 -0.8834,-26.3005 -2.1834,-27.76498 -1.7226,-1.94058 -14.8617,-10.01296 -22.7296,-13.96461 -7.3084,-3.67064 -13.3784,-7.02968 -18.6921,-10.34389 -2.5806,-1.60958 -7.0105,-4.27652 -9.8442,-5.92652 -2.8337,-1.65 -7.2484,-4.39335 -9.8105,-6.09633 -7.0681,-4.69817 -10.2703,-6.15955 -17.4478,-7.96248 -3.7245,-0.93555 -6.8229,-2.30511 -7.1514,-3.16096 -1.6719,-4.35693 9.4971,-17.32147 16.2923,-18.91135 1.4595,-0.3415 4.9585,-1.9142 7.7754,-3.49489 2.817,-1.5807 5.7355,-2.87399 6.4857,-2.87399 1.2561,0 5.4304,-1.81478 16.7175,-7.26791 4.717,-2.27894 7.4382,-5.75377 14.2121,-18.14859 5.3989,-9.87873 12.3987,-18.3223 17.8929,-21.5835 l 4.2118,-2.5 -0.512,-26.22735 c -0.3105,-15.90585 -0.1416,-26.45625 0.4291,-26.80901 0.5237,-0.32362 0.9543,1.10814 0.9708,3.22734 0.061,7.84982 1.8456,39.00772 2.5235,44.05902 0.3894,2.90195 1.222,5.25 1.8614,5.25 0.7192,0 1.186,1.98636 1.2339,5.25 0.059,4.0477 1.6775,9.25768 7.0662,22.75 3.8441,9.625 8.4654,22 10.2697,27.5 3.5634,10.86236 9.3976,23.22955 14.0716,29.82867 1.625,2.29423 8.4647,9.20853 15.1993,15.3651 11.4025,10.42372 17.9387,15.3045 39.7448,29.67854 4.675,3.08164 10.8069,7.52104 13.6265,9.86534 2.8196,2.34429 8.619,6.96235 12.8875,10.26235 12.5029,9.66615 16.5329,13.41246 25.9832,24.15426 8.793,9.99462 12.5173,15.66454 11.1727,17.00918 -0.8657,0.86568 -26.3518,-11.75944 -33.6699,-16.67911 -3.025,-2.03359 -7.3,-4.88952 -9.5,-6.34651 -2.2,-1.45699 -7.7725,-5.15015 -12.3834,-8.20702 -13.2172,-8.76267 -26.7564,-13.95103 -44.1166,-16.90598 -13.5018,-2.29818 -17.0971,-3.09657 -20.5,-4.55229 -1.65,-0.70585 -5.025,-2.05934 -7.5,-3.00776 -2.475,-0.94842 -6.9247,-2.70027 -9.8882,-3.89301 l -5.3882,-2.16862 0.6814,12.79843 c 0.3747,7.03914 1.1089,18.42343 1.6315,25.29843 0.5226,6.875 1.4106,19.025 1.9734,27 0.5627,7.975 1.6833,23.275 2.4901,34 0.8068,10.725 1.9077,25.575 2.4463,33 5.845,80.57692 8.1297,109.25822 8.7909,110.35942 0.5586,0.93024 6.9759,0.57133 43.7628,-2.44766 13.2,-1.08328 29.85,-2.40793 37,-2.94368 7.15,-0.53574 20.875,-1.64562 30.5,-2.46638 9.625,-0.82076 23.35,-1.95882 30.5,-2.52902 7.15,-0.5702 39.775,-3.2852 72.5,-6.03334 32.725,-2.74813 65.125,-5.44241 72,-5.98729 19.6174,-1.55476 33.3991,-3.01675 33.9734,-3.60397 0.8652,-0.8846 -10.658,-11.04017 -23.5458,-20.75134 -6.6399,-5.00321 -15.1899,-11.63301 -19,-14.73289 -7.4756,-6.08198 -50.5136,-49.43358 -56.6917,-57.10476 -4.5189,-5.61099 -19.5189,-19.01124 -20.5603,-18.36759 -0.4061,0.25094 -2.9742,-1.87378 -5.7069,-4.7216 -11.1327,-11.60136 -30.5956,-32.66016 -37.1258,-40.1699 -18.5238,-21.30246 -26.4563,-30.73479 -32.7987,-39 -10.3803,-13.52714 -25.2848,-31.14759 -28.5235,-33.72097 -6.5154,-5.17703 -26.6095,-32.3213 -39.441,-53.27903 -3.7041,-6.05 -10.5414,-16.85 -15.1939,-24 -15.845,-24.3506 -21.5888,-40.31269 -23.0299,-64 -0.6294,-10.34505 1.3705,-20.99452 7.191,-38.2924 5.5132,-16.38454 6.5942,-25.73761 6.7851,-58.707598 0.1625,-28.055255 -0.9972,-45.345894 -4.2924,-64 -2.1801,-12.34107585 -2.2078,-11.49999964 0.3786,-11.49999964 2.1183,0 2.4867,0.65926825 3.4923,6.25000004 0.6183,3.4375 1.8126,12.0999996 2.654,19.2499996 0.8415,7.15 1.925,15.925 2.4078,19.5 1.4003,10.367717 1.1764,39.053582 -0.4471,57.273528 -1.4211,15.94791 -3.4972,26.77635 -7.0442,36.73987 -3.4304,9.63604 -6.4515,26.54146 -5.9177,33.11388 2.1718,26.74015 7.3628,40.7461 25.3226,68.32336 5.3905,8.27715 12.8234,19.77436 16.5174,25.54936 13.3433,20.85965 25.1995,36.6388 36.0667,48 10.6511,11.13537 16.7667,18.32849 25.5059,30 3.5005,4.675 8.8755,11.37978 11.9443,14.89951 3.0689,3.51973 8.7298,10.13391 12.5798,14.69817 19.7979,23.47089 36.001,40.24122 52.5,54.33801 4.125,3.52441 7.725,7.18454 8,8.13361 1.1041,3.81047 59.2628,62.73651 68.5,69.40375 2.2,1.58792 5.6234,4.26859 7.6076,5.95704 1.9842,1.68845 7.6076,5.99491 12.4964,9.56991 4.8888,3.575 12.3805,9.82476 16.6483,13.88837 l 7.7596,7.38836 8.9236,-0.5088 c 8.9721,-0.51156 11.0645,0.0634 11.0645,3.04048 0,1.01814 -0.7219,1.22721 -2.6053,0.75452 -3.1263,-0.78464 -11.3947,0.31452 -11.3947,1.51474 0,0.46783 3.1796,4.35423 7.0659,8.63646 12.5686,13.84931 22.5058,30.40753 25.5471,42.56869 0.8551,3.41945 2.2869,6.78614 3.1817,7.48153 2.3089,1.79447 3.0006,19.40289 1.5806,40.23565 -1.8996,27.8666 -3.5653,32.73425 -24.4678,71.5 -2.3724,4.4 -6.4619,10.7 -9.0876,14 -5.1132,6.42607 -11.0834,10.96117 -39.3199,29.86797 -4.4,2.94618 -10.2386,7.21608 -12.9748,9.48865 -2.7361,2.27257 -7.2361,4.88271 -10,5.80032 -2.7638,0.9176 -7.2752,2.71578 -10.0252,3.99594 -2.75,1.28017 -5.8479,2.33198 -6.8843,2.33735 -4.4881,0.0233 -20.9666,9.17104 -31.6004,17.54237 -15.7083,12.36627 -22.8368,20.39607 -26.2692,29.59045 -3.6831,9.86599 -6.7529,28.70677 -6.7171,41.22632 0.032,11.25888 3.1648,24.61659 8.7655,37.3777 9.2135,20.99263 11.4264,29.73947 11.5805,45.77293 l 0.125,13 -5.3257,15.5 c -4.1864,12.18439 -6.1633,16.49885 -9.2416,20.1695 -2.1537,2.5682 -3.4167,4.8358 -2.8064,5.0393 1.0108,0.3369 -11.5723,10.7822 -13.0081,10.798 -0.34,0 -1.6185,1.4663 -2.8411,3.25 -3.5608,5.1951 -14.0647,9.8015 -25.7643,11.2987 -5.3159,0.6803 -13.8919,5.0221 -12.9452,6.5539 0.3125,0.5056 2.2251,1.7746 4.2502,2.8202 6.1523,3.1761 10.6804,8.8713 13.9698,17.5704 1.6638,4.4 4.2401,10.8867 5.7251,14.4148 4.4132,10.4853 5.0493,17.8976 2.6347,30.6984 -1.1295,5.9877 -2.961,16.5495 -4.07,23.4706 -2.2127,13.8093 -6.1584,26.1202 -12.3125,38.4162 -5.4338,10.8566 -12.4365,20.2878 -25.9878,35 -17.3737,18.8621 -21.5964,25.483 -29.1511,45.7063 -2.9532,7.9053 -3.626,11.064 -3.626,17.023 0,13.2542 7.0979,34.8349 17.5571,53.381 5.0747,8.9984 12.6826,28.0618 14.725,36.8972 2.8017,12.1198 2.9479,18.0047 0.6397,25.7549 -2.1798,7.3194 -6.9656,20.1425 -9.4192,25.2376 -0.7945,1.65 -3.8851,8.4429 -6.868,15.0954 -2.9828,6.6525 -7.8882,15.8775 -10.9009,20.5 -5.4816,8.4108 -17.2209,20.7467 -27.9345,29.3542 -10.9615,8.8066 -30.415,20.0865 -40.2992,23.3669 -3.3,1.0953 -7.6378,2.6949 -9.6396,3.5547 -5.7993,2.4911 -21.7213,5.6326 -28.3136,5.5865 l -6.0468,-0.042 6,-2.51 z m 3.3426,-932.28705 c 1.4208,-0.90051 1.4159,-0.99543 -3.8533,-74.11845 -1.0899,-15.125 -3.1189,-44.15 -4.5089,-64.5 -5.6064,-82.0829 -7.5257,-105.94376 -8.6032,-106.95951 -1.1066,-1.04312 -0.8898,26.06746 0.5594,69.95951 0.3268,9.9 1.0347,31.5 1.5731,48 0.5383,16.5 1.2045,36.3 1.4804,44 0.8144,22.72904 1.4162,40.78698 2.0329,61 0.7489,24.54496 0.4942,23.50369 5.7461,23.48469 2.327,-0.008 4.8351,-0.39823 5.5735,-0.86624 z m 121.0072,-191.86232 c -9.6062,-11.46569 -14.9877,-16.74614 -25.9667,-25.4792 -19.5754,-15.57092 -27.1297,-21.11608 -41.9096,-30.76326 -14.3913,-9.3935 -38.4467,-30.0783 -43.9919,-37.82773 -5.1154,-7.14882 -11.4689,-20.92634 -15.9954,-34.68594 -4.2592,-12.94683 -9.9565,-27.90206 -11.9026,-31.24377 -1.5879,-2.72668 -1.367,3.79956 1.4203,41.96202 3.8583,52.8257 4.4926,59.06624 6.1976,60.97895 1.592,1.78587 13.3787,7.8028 15.2852,7.8028 0.6119,0 2.5186,0.72707 4.237,1.6157 3.7776,1.95344 16.7533,5.13639 24.579,6.02922 6.7559,0.77077 21.1753,5.31313 30.0113,9.45404 3.4727,1.62745 10.2227,5.56047 15,8.74005 4.7773,3.17957 13.411,8.91628 19.186,12.74825 10.026,6.6527 23.9054,13.84067 24.8675,12.87858 0.2495,-0.24947 -0.2085,-1.24384 -1.0177,-2.20971 z M 1172.5994,311.0121 c 0,-2.75 -0.45,-5 -1,-5 -1.0922,0 -1.3667,5.88072 -0.393,8.41821 1.0286,2.68061 1.393,1.78652 1.393,-3.41821 z m -6.4195,-28.75 c -1.2701,-52.95422 -2.1278,-76.13061 -2.844,-76.84679 -1.3141,-1.31411 -7.361,3.88907 -11.6012,9.98251 -2.3402,3.36286 -6.6661,10.04171 -9.6133,14.84189 -6.3318,10.31296 -9.1509,13.01538 -16.5099,15.82618 -3.0183,1.15287 -5.9433,2.46043 -6.5,2.9057 -0.5566,0.44526 -2.5486,1.13854 -4.4266,1.54061 -1.8779,0.40208 -5.4411,1.80866 -7.9182,3.12574 -2.4771,1.31708 -6.1908,2.90014 -8.2527,3.5179 -4.3118,1.29184 -13.3308,9.10766 -12.6985,11.00446 0.2336,0.70102 2.9634,2.02819 6.0662,2.94927 3.1027,0.92108 8.246,3.4331 11.4295,5.58227 11.2498,7.59473 33.8121,20.86856 42.7882,25.17312 2.2,1.05503 7.375,3.98489 11.5,6.51079 4.125,2.5259 7.9091,4.60241 8.409,4.61445 0.5418,0.0131 0.6111,-12.40229 0.1715,-30.7281 z m 4.8206,5.8174 c -0.4488,-6.36207 -0.991,-10.2174 -1.205,-8.5674 -0.4949,3.81622 1.0033,24.65921 1.5862,22.0674 0.2391,-1.06293 0.067,-7.13793 -0.3812,-13.5 z m 75.0142,1102.9091 c -12.5751,-6.2247 -18.4094,-23.9765 -7.8801,-23.9765 3.8116,0 4.1463,-0.7734 2.0768,-4.7997 -0.7634,-1.4851 -1.5074,-5.4003 -1.6532,-8.7003 -0.397,-8.9798 -0.2618,-9.5 2.4686,-9.5 5.5076,0 9.1477,10.2946 6.1646,17.4341 -1.5177,3.6323 -1.4774,4.0373 0.9886,9.9264 5.6614,13.5203 6.6243,16.8944 5.5157,19.3275 -1.2906,2.8325 -2.4533,2.8762 -7.681,0.2885 z m 4.5847,-4.6467 c 0,-0.9187 -1.4166,-4.7437 -3.148,-8.5 -2.5396,-5.5096 -3.5869,-6.8298 -5.4183,-6.8298 -5.8381,0 -7.176,3.8335 -3.3079,9.4786 4.0658,5.9337 11.8742,9.7814 11.8742,5.8512 z m -6,-32.2074 c 0,-1.5826 -0.753,-3.4951 -1.6734,-4.25 -1.5025,-1.2322 -1.606,-1.1171 -1.0137,1.1276 0.3629,1.375 0.6659,3.2875 0.6734,4.25 0.01,0.9625 0.4637,1.75 1.0137,1.75 0.55,0 1,-1.2949 1,-2.8776 z m -27.002,9.3733 c -3.3813,-7.0848 -5.9533,-17.5254 -5.9806,-24.2778 -0.02,-4.9289 2.2162,-10.9866 4.3593,-11.809 3.6306,-1.3931 7.709,3.5193 9.045,10.8947 0.8397,4.6355 -1.5484,13.5961 -4.2832,16.071 -1.8728,1.6949 -1.8732,1.818 -0.023,6.6868 3.9288,10.3397 1.5443,12.2018 -3.1173,2.4343 z m 1.8882,-15.2457 c 2.5614,-6.2397 3.0839,-9.6474 2.0613,-13.4448 -2.4493,-9.0963 -7.8974,-1.0232 -6.4865,9.612 0.9872,7.4422 2.4304,8.6922 4.4252,3.8328 z m 6.7027,17.6733 c -3.1578,-3.7529 -3.5598,-10.5027 -0.8266,-13.8781 1.4774,-1.8245 2.1887,-2.0143 4.3991,-1.1739 3.8611,1.468 5.8386,4.9213 5.8386,10.1962 0,7.835 -4.8142,10.3189 -9.4111,4.8558 z m 5.8269,-4.4438 c 0.9962,-3.9691 -2.13,-8.369 -3.9053,-5.4965 -0.9907,1.603 0.6033,8.017 1.9924,8.017 0.7041,0 1.565,-1.1342 1.9129,-2.5205 z m 234.5842,-27.364 c 0,-0.8978 3.0049,-2.444 3.5976,-1.8512 0.1713,0.1713 -0.5681,0.8607 -1.6431,1.532 -1.075,0.6714 -1.9545,0.815 -1.9545,0.3192 z M 1219.0203,813.44206 c -1.1449,-6.10284 0.075,-18.55858 2.3087,-23.57913 4.1962,-9.43016 8.2927,-10.71447 12.1701,-3.8155 2.6198,4.66132 5.0543,20.4107 3.4093,22.05571 -0.7458,0.74577 -1.2624,-0.29491 -1.7455,-3.51586 -0.3773,-2.51635 -1.0535,-4.57518 -1.5026,-4.57518 -0.4492,0 -2.4796,0.69484 -4.5122,1.54409 -2.0325,0.84925 -4.5625,1.26893 -5.6221,0.93261 -1.7863,-0.56694 -1.9266,-0.0603 -1.9266,6.95591 0,7.91034 -1.4294,10.12578 -2.5791,3.99735 z m 11.7965,-15.47354 c 3.5014,-0.97244 3.683,-1.21905 3.1253,-4.24442 -0.8886,-4.82018 -2.6586,-8.14915 -4.5238,-8.50836 -1.811,-0.34877 -6.0994,6.21267 -7.2197,11.04636 -0.5775,2.49216 -0.3777,2.74948 2.1317,2.74442 1.523,-0.003 4.4419,-0.47017 6.4865,-1.038 z M 95.849377,725.03903 c -3.898747,-1.76971 -5.701842,-4.02693 -3.216756,-4.02693 1.29913,0 10.966759,4.86332 10.966759,5.51685 0,1.05443 -3.720353,0.33921 -7.750003,-1.48992 z m 18.729443,-3.14297 c 1.36369,-0.54409 3.27619,-1.71031 4.25,-2.5916 0.98004,-0.88692 1.77056,-1.11197 1.77056,-0.50405 0,1.59156 -4.10472,4.22233 -6.47251,4.1483 -1.76305,-0.0551 -1.7041,-0.19241 0.45195,-1.05265 z m -33.488462,-8.89337 c -2.357151,-2.46034 -2.941719,-4.07388 -3.307382,-9.12911 -0.51386,-7.10404 1.195526,-7.48745 2.242898,-0.50306 0.361501,2.41065 1.531621,6.09799 2.600269,8.19408 1.068647,2.09609 1.804493,3.94957 1.635212,4.11886 -0.16928,0.16928 -1.596229,-1.03707 -3.170997,-2.68077 z m 49.100982,-5.49059 c 1.77322,-2.70629 3.40804,-3.28192 3.40804,-1.2 0,1.68167 -2.03091,3.7 -3.72305,3.7 -1.0134,0 -0.93968,-0.58511 0.31501,-2.5 z m 0.77642,-18.17097 c 0.77928,-5.6855 1.37286,-6.40339 3.21338,-3.88633 2.61424,3.57518 1.20664,8.5573 -2.41768,8.5573 -1.13434,0 -1.30146,-0.98106 -0.7957,-4.67097 z m -55.297141,-6.12869 c -0.07353,-4.43794 2.193757,-10.20034 4.013455,-10.20034 0.568335,0 0.68873,0.55759 0.267544,1.23908 -0.421186,0.68149 -1.540684,3.94399 -2.487774,7.25 l -1.721982,6.01092 -0.07124,-4.29966 z m 50.595431,-7.86701 c -1.33526,-1.33525 -0.69789,-6.33333 0.80765,-6.33333 1.24173,0 4.52568,4.68054 4.52568,6.45034 0,0.78249 -4.53329,0.68303 -5.33333,-0.11701 z M 1038.5994,662.0877 c 0,-0.47389 0.675,-1.12064 1.5,-1.43723 0.825,-0.31658 1.5,-0.18787 1.5,0.28603 0,0.47389 -0.675,1.12064 -1.5,1.43723 -0.825,0.31658 -1.5,0.18787 -1.5,-0.28603 z m 282.5681,-12.96541 c -0.3135,-0.50734 -1.54,-0.66879 -2.7255,-0.35879 -1.3656,0.35712 -1.9174,0.17861 -1.5059,-0.4872 0.3623,-0.58622 -0.4528,-1.32752 -1.8436,-1.67658 -1.3712,-0.34415 -2.4931,-1.29215 -2.4931,-2.10667 0,-0.81452 -0.675,-1.48095 -1.5,-1.48095 -2.5132,0 -1.6705,-2.73425 1,-3.24475 1.5919,-0.30432 2.5,-0.0223 2.5,0.77643 0,1.81085 3.0165,2.69955 4.6267,1.36313 1.1137,-0.92426 1.3733,-0.55885 1.3733,1.93306 0,1.79928 0.6749,3.45043 1.6284,3.98406 1.0303,0.57655 1.2393,1.1518 0.5691,1.566 -0.5826,0.36008 -1.3158,0.2396 -1.6294,-0.26774 z m 0.4319,-3.55117 c 0,-0.24254 0.45,-0.7191 1,-1.05902 0.55,-0.33992 1,-0.14148 1,0.44098 0,0.58246 -0.45,1.05902 -1,1.05902 -0.55,0 -1,-0.19844 -1,-0.44098 z m -33.8223,-3.60687 c 0.2048,-1.35812 0.95,-2.32956 1.6704,-2.17737 0.7153,0.15112 1.056,-0.12096 0.7571,-0.60464 -0.299,-0.48368 0.5676,-1.92327 1.9256,-3.19909 1.3581,-1.27582 2.4851,-1.90374 2.5046,-1.39536 0.02,0.50837 0.6324,-0.15264 1.3619,-1.46892 1.3157,-2.37393 1.3329,-2.36183 2.1329,1.5 0.4435,2.14128 0.6735,4.34323 0.5109,4.89323 -0.1625,0.55 -0.3132,1.4875 -0.335,2.08333 -0.024,0.65594 -1.5825,0.92903 -3.9507,0.69221 -2.2408,-0.22408 -4.5596,0.14698 -5.4293,0.86882 -1.2969,1.07627 -1.4643,0.90247 -1.1484,-1.19221 z M 99.539377,632.7621 c -2.504714,-2.63604 -7.30318,-12.67131 -8.907136,-18.62795 -1.328421,-4.93338 -0.09768,-8.28411 4.215124,-11.47586 3.55207,-2.62876 7.283385,-1.46533 10.471075,3.26489 2.93473,4.35485 3.00152,10.75615 0.17012,16.30615 -1.98008,3.88127 -2.01105,4.30645 -0.5,6.86445 0.88595,1.4998 1.61082,3.44497 1.61082,4.32261 0,2.40633 -4.55277,1.9844 -7.060003,-0.65429 z m 2.060003,-19.18132 c 0,-6.28392 -1.967663,-9.62576 -4.691434,-7.96782 -2.644879,1.60992 -2.750436,5.85492 -0.272854,10.97292 2.833207,5.85262 4.964288,4.56259 4.964288,-3.0051 z m 1355.07892,17.78831 c -0.043,-1.17866 0.5961,-2.40203 1.4211,-2.71862 0.825,-0.31658 1.5,-1.43726 1.5,-2.49041 0,-1.29415 0.8914,-2.08604 2.75,-2.44308 3.3407,-0.64174 4.3675,0.0902 1.9917,1.41981 -1.9303,1.08024 -2.3856,3.01839 -0.6167,2.62531 0.6188,-0.1375 1.3313,0.3125 1.5833,1 0.2521,0.6875 -0.1641,1.25 -0.925,1.25 -0.7608,0 -1.9895,-0.5625 -2.7305,-1.25 -1.1013,-1.0219 -1.2311,-0.92118 -0.7114,0.55194 0.3779,1.07114 0.2348,1.55416 -0.3529,1.19098 -0.5437,-0.33602 -0.9885,-0.10784 -0.9885,0.50708 0,0.61492 -0.4116,0.86367 -0.9146,0.55279 -0.503,-0.31089 -1.1425,5e-5 -1.421,0.69098 -0.2786,0.69093 -0.542,0.29187 -0.5855,-0.88678 z M 110.84938,629.98094 c -1.61062,-0.64739 -2.25,-1.73126 -2.25,-3.81417 0,-3.62243 1.81667,-5.18627 6.80144,-5.85486 3.35778,-0.45038 4.17045,-0.151 6.03922,2.22475 2.6759,3.40186 2.75708,6.08517 0.22508,7.44026 -2.32901,1.24645 -7.71976,1.24845 -10.81574,0.004 z m 6.75,-3.90982 c 0,-1.17986 -1.95035,-2.442 -2.66667,-1.72569 -0.71631,0.71632 0.54583,2.66667 1.72569,2.66667 0.51754,0 0.94098,-0.42344 0.94098,-0.94098 z M 1454.3994,625.8121 c 0.9333,-0.93333 1.4667,-0.93333 2.4,0 0.9333,0.93333 0.6667,1.2 -1.2,1.2 -1.8667,0 -2.1333,-0.26667 -1.2,-1.2 z m 15.4292,-10.9875 c 0.2177,-0.65313 0.9305,-1.36573 1.584,-1.58356 0.7307,-0.24358 0.9542,0.21359 0.5805,1.1875 -0.6975,1.81771 -2.7645,2.19592 -2.1645,0.39606 z m -299.62,-8.38841 c -0.8305,-2.16425 -0.4395,-2.55525 1.4114,-1.41136 1.0709,0.66182 1.1656,1.20104 0.3538,2.01285 -0.8118,0.81181 -1.2847,0.65068 -1.7652,-0.60149 z m -146.6935,-28.25814 c -7.1488,-1.86612 -12.3278,-4.69012 -11.3885,-6.20988 1.4711,-2.38039 12.7028,0.88564 17.6734,5.13925 3.8539,3.29787 2.8817,3.46348 -6.2849,1.07063 z m -31.51568,-16.03718 c -5.54549,-4.08261 -9.7321,-8.78247 -8.95026,-10.04751 2.0271,-3.27992 9.24693,1.47585 13.36561,8.80407 2.8384,5.05023 1.3318,5.47452 -4.41535,1.24344 z m 51.34298,-5.21281 c -5.0298,-2.92911 -8.6011,-18.43121 -5.379,-23.34876 0.8998,-1.37326 1.636,-4.30356 1.636,-6.51178 0,-4.97297 2.6328,-11.78854 5.0545,-13.08459 3.4061,-1.82288 7.7829,-1.0879 11.0835,1.86118 2.665,2.38117 3.2426,3.71241 3.6282,8.36225 0.816,9.84 -3.5957,24.36189 -9.2092,30.31399 -3.5492,3.7632 -4.1325,3.96932 -6.814,2.40771 z m 8.9083,-9.62191 c 4.0584,-7.99236 6.1032,-18.8324 4.5379,-24.05699 -1.1739,-3.91792 -5.2733,-7.23706 -8.9385,-7.23706 -7.2908,0 -8.3498,18.97508 -1.5125,27.10072 1.3809,1.64106 2.2984,3.19605 2.0389,3.45552 -0.9654,0.96541 -6.0679,-4.00794 -7.4117,-7.22414 -0.7657,-1.83266 -1.6739,-3.3321 -2.0181,-3.3321 -1.2791,0 0.6153,10.00642 2.6492,13.99304 1.7826,3.49432 2.5221,4.08191 4.8052,3.8184 2.1865,-0.25237 3.296,-1.48849 5.8496,-6.51739 z m 12.8709,6.73045 c -1.7966,-1.98518 -1.7803,-5.0657 0.072,-13.5245 0.54,-2.46685 0.4212,-2.77786 -0.6686,-1.75 -1.5793,1.48954 -2.9253,1.6225 -2.9253,0.28896 0,-1.58379 4.2434,-5.03896 6.1886,-5.03896 2.2514,0 2.3368,2.4984 0.2556,7.47929 -0.8557,2.04795 -1.4182,5.14041 -1.25,6.87213 0.2677,2.75679 0.7168,3.18807 3.6091,3.46591 2.0236,0.1944 4.6482,-0.47619 6.775,-1.73105 3.2816,-1.93617 3.4163,-1.94475 2.4594,-0.15671 -1.3928,2.60248 -7.2489,6.07043 -10.2507,6.07043 -1.3624,0 -3.2815,-0.88897 -4.2648,-1.9755 z m -98.24217,-15.2745 c -1.13771,-1.2375 -3.93756,-5.16538 -6.22188,-8.72863 -3.74879,-5.84765 -3.99193,-6.59664 -2.4964,-7.6902 2.25727,-1.65056 4.36621,-0.20496 8.01811,5.49612 4.73275,7.38843 6.28519,13.17271 3.53542,13.17271 -0.42167,0 -1.69753,-1.0125 -2.83525,-2.25 z m 434.94067,-9.5 c -9.4183,-12.79497 -10.1779,-16.43436 -4.1084,-19.68415 3.0088,-1.611 4.1783,-1.75336 7,-0.85208 l 3.3877,1.08205 -3.2997,0.10209 c -4.4155,0.13661 -9.2003,2.72278 -9.2003,4.97273 0,2.07325 7.8298,14.63292 8.6259,13.83677 0.2869,-0.28685 -0.1866,-1.89102 -1.0522,-3.56482 -0.8655,-1.6738 -1.5737,-3.51562 -1.5737,-4.09293 0,-1.20111 7.5059,-1.29737 10.4833,-0.13444 1.6257,0.63494 1.2663,0.90917 -1.9923,1.5205 -5.5072,1.03314 -5.6956,1.26794 -3.8626,4.81261 5.3767,10.39728 2.6753,11.62406 -4.4077,2.00167 z m 22.9342,0.0675 c -1.9673,-4.84666 -4.1328,-12.72015 -4.1441,-15.06749 -0.016,-3.4213 1.6548,-2.68526 2.2706,1 1.1204,6.70507 2.4511,8.75 5.6938,8.75 3.4671,0 3.5856,-0.57994 1.514,-7.40893 -1.6675,-5.49672 -1.9028,-8.59107 -0.6532,-8.59107 0.4599,0 1.6155,2.80326 2.568,6.22947 0.9526,3.4262 2.2246,6.82296 2.8266,7.54835 1.2315,1.48396 1.6453,7.18085 0.5698,7.84557 -0.385,0.23794 -1.1754,-0.4556 -1.7564,-1.5412 -0.9082,-1.6969 -1.4763,-1.82746 -4.049,-0.9306 -1.6459,0.57378 -2.7979,1.35838 -2.5598,1.74357 0.2381,0.38518 0.08,1.27171 -0.3519,1.97007 -0.5499,0.88971 -1.127,0.42647 -1.9284,-1.54774 z M 946.64643,506.07817 c -4.7753,-6.70628 -6.24738,-16.64205 -2.35316,-15.88251 1.00979,0.19695 2.50674,2.93885 3.96427,7.26123 3.61943,10.73352 2.84474,14.87896 -1.61111,8.62128 z M 935.13632,472.803 c -0.28694,-1.26 -0.98981,-4.48542 -1.56195,-7.16762 -0.57214,-2.68219 -1.5005,-5.73669 -2.06302,-6.78777 -1.23476,-2.30716 -0.29298,-5.83551 1.55759,-5.83551 1.90519,0 3.57486,5.36985 4.2313,13.6084 0.37337,4.68578 0.19004,7.34099 -0.53791,7.79089 -0.64731,0.40006 -1.32021,-0.26555 -1.62601,-1.60839 z m -6.00762,-44.73419 c -0.8734,-1.68897 -1.86041,-6.44267 -2.19336,-10.56378 -0.53323,-6.60004 -0.40449,-7.49293 1.08036,-7.49293 2.43411,0 4.37106,5.46939 4.75338,13.42215 0.37439,7.78791 -1.06325,9.61817 -3.64038,4.63456 z m 482.4573,-28.00997 c 0.5234,-1.8251 1.2539,-3.59475 1.6232,-3.93255 1.0124,-0.92591 -0.6113,5.24261 -1.6631,6.31836 -0.5261,0.53808 -0.5092,-0.47113 0.04,-2.38581 z M 925.01044,394.7621 c -0.39805,-1.2375 -0.79326,-7.08623 -0.87826,-12.99717 -0.15761,-10.96039 1.11089,-16.7526 3.66893,-16.75307 1.01082,-1.9e-4 1.23758,2.82276 1.02414,12.75 -0.30519,14.19481 -0.88394,19.25024 -2.2038,19.25024 -0.48801,0 -1.21297,-1.0125 -1.61101,-2.25 z m 1.07373,-38.45343 c -2.01674,-7.46623 2.60678,-31.35026 6.34667,-32.78539 0.80014,-0.30704 1.67532,-0.33773 1.94485,-0.0682 0.74833,0.74833 -5.82764,33.94169 -6.94573,35.05977 -0.32471,0.32472 -0.93032,-0.66807 -1.34579,-2.20618 z m 71.51521,-46.23755 c 0,-0.58246 0.45,-1.05902 1,-1.05902 0.55,0 1,0.19844 1,0.44098 0,0.24254 -0.45,0.7191 -1,1.05902 -0.55,0.33992 -1,0.14148 -1,-0.44098 z m -62.42594,-0.9392 c -0.42477,-0.68727 -0.43043,-2.90789 -0.0126,-4.93471 0.41783,-2.02681 0.87607,-4.27114 1.0183,-4.98739 0.21574,-1.08639 7.13893,-15.94568 11.74005,-25.19772 0.7786,-1.56565 2.25595,-2.61794 3.95284,-2.81557 2.67628,-0.31168 2.69115,-0.28096 1.20973,2.5 -1.39008,2.60951 -12.08517,25.40893 -15.59754,33.25028 -1.04342,2.32944 -1.78702,3.0326 -2.31079,2.18511 z m 68.42596,-8.51283 c 0,-0.21616 0.6984,-0.661 1.5519,-0.98855 0.89,-0.34149 1.2914,-0.17385 0.941,0.39301 -0.5872,0.95021 -2.4929,1.40545 -2.4929,0.59554 z m 6.5,-4.60699 c -0.3399,-0.55 -0.1415,-1 0.441,-1 0.5824,0 1.059,0.45 1.059,1 0,0.55 -0.1984,1 -0.441,1 -0.2425,0 -0.7191,-0.45 -1.059,-1 z m -558.50002,-20 c 0,-0.55 0.19844,-1 0.44098,-1 0.24254,0 0.7191,0.45 1.05902,1 0.33992,0.55 0.14148,1 -0.44098,1 -0.58246,0 -1.05902,-0.45 -1.05902,-1 z m 547.71433,-1.01558 c 0.77359,-2.95833 2.07759,-3.34676 1.52469,-0.45416 -0.2597,1.35836 -0.8276,2.46974 -1.26198,2.46974 -0.43439,0 -0.55261,-0.90701 -0.26271,-2.01558 z m -43.46848,-14.78074 c 0.28006,-2.08797 1.62732,-6.25047 2.99391,-9.25 1.36659,-2.99952 2.83657,-6.57868 3.26661,-7.95368 1.364,-4.3612 3.63859,-7 6.03385,-7 2.29684,0 2.2878,0.0516 -1.56453,8.93362 -5.64068,13.00525 -8.85913,19.06638 -10.1242,19.06638 -0.71342,0 -0.93148,-1.36693 -0.60564,-3.79632 z m 15.32614,-32.0872 c -0.99418,-1.60861 1.04356,-7.4578 5.23984,-15.04063 4.42467,-7.99553 8.81183,-13.07585 11.29176,-13.07585 2.38626,0 2.39722,1.0864 0.0415,4.11514 -1.89646,2.43828 -8.61095,13.42251 -10.94015,17.89699 -2.43951,4.6864 -4.87686,7.32772 -5.63294,6.10435 z m -28.30116,-35.72065 c 0.33229,-0.33229 1.1948,-0.36781 1.91667,-0.0789 0.79773,0.31922 0.56078,0.55618 -0.60417,0.60416 -1.05416,0.0434 -1.64479,-0.19293 -1.3125,-0.52522 z M 995.041,189.2621 c 0.59918,-2.50253 4.62688,-8.97443 9.4321,-15.15609 1.217,-1.5655 2.4489,-2.18411 3.5262,-1.77069 1.4563,0.55883 1.3237,1.15012 -1.1004,4.90609 -8.61239,13.34458 -13.3167,18.11348 -11.8579,12.02069 z m -68.19162,0.52951 c -1.2375,-0.59683 -2.25,-1.46637 -2.25,-1.93232 0,-1.2188 2.75959,-1.04521 3.54331,0.22289 0.36374,0.58854 1.6278,1.46002 2.80902,1.93661 2.02475,0.81694 2.03321,0.86629 0.14767,0.86224 -1.1,-0.002 -3.0125,-0.4926 -4.25,-1.08942 z m 249.00032,-0.0295 c -1.0828,-1.36095 -6.2503,-16.92811 -6.2503,-18.82931 0,-2.22095 6.1073,-0.005 11.2314,4.07446 2.7664,2.20267 5.6461,4.00485 6.3992,4.00485 1.9476,0 1.8136,-11.62176 -0.2024,-17.55987 -1.8264,-5.37938 -1.4091,-6.42107 1.4334,-3.57857 5.582,5.58201 7.0697,27.13844 1.8729,27.13844 -0.6573,0 -3.8208,-1.62067 -7.0299,-3.6015 -3.2092,-1.98082 -6.0634,-3.37302 -6.3427,-3.09377 -0.2792,0.27925 -0.027,2.23742 0.5596,4.3515 1.8938,6.82 1.0296,10.48816 -1.6712,7.09377 z m -154.2503,-29.89666 c 0,-2.95406 14.425,-19.32675 16.1101,-18.2853 1.2451,0.76954 -4.0245,7.92818 -10.66,14.48126 -3.358,3.31625 -5.4501,4.77651 -5.4501,3.80404 z"
     id="path3160"
     style="fill:#000000" />
</svg>
