<?xml version="1.0" encoding="UTF-8" standalone="no"?>
<!-- Created with Inkscape (http://www.inkscape.org/) -->

<svg
   xmlns:dc="http://purl.org/dc/elements/1.1/"
   xmlns:cc="http://creativecommons.org/ns#"
   xmlns:rdf="http://www.w3.org/1999/02/22-rdf-syntax-ns#"
   xmlns:svg="http://www.w3.org/2000/svg"
   xmlns="http://www.w3.org/2000/svg"
   version="1.1"
   width="1475.6705"
   height="1503.9418"
   id="svg3037">
  <metadata
     id="metadata3043">
    <rdf:RDF>
      <cc:Work
         rdf:about="">
        <dc:format>image/svg+xml</dc:format>
        <dc:type
           rdf:resource="http://purl.org/dc/dcmitype/StillImage" />
        <dc:title></dc:title>
      </cc:Work>
    </rdf:RDF>
  </metadata>
  <defs
     id="defs3041" />
  <path
     d="m 1037.2055,1500.0449 c 4.4,-2.1103 10.835,-5.1023 14.3,-6.6487 3.465,-1.5465 6.7903,-3.4026 7.3897,-4.1247 0.5993,-0.7222 3.0656,-1.8106 5.4807,-2.4187 3.3864,-0.8527 5.3795,-2.2779 8.7119,-6.2292 5.4878,-6.5073 19.8373,-27.0201 22.1219,-31.6236 0.9553,-1.925 2.312,-4.175 3.0148,-5 2.0416,-2.3968 11.7214,-19.5891 17.3611,-30.8353 11.0264,-21.988 10.8792,-32.9905 -0.8722,-65.1647 -2.3101,-6.325 -5.0565,-14.126 -6.103,-17.3355 -1.0465,-3.2096 -3.4318,-8.6096 -5.3008,-12 -13.4411,-24.383 -9.2736,-67.3573 8.5498,-88.1645 0.9423,-1.1 2.3959,-3.3192 3.2302,-4.9316 1.6441,-3.1772 7.6094,-10.0653 17.1974,-19.8574 6.95,-7.0979 10.7765,-12.4786 15.3919,-21.6431 1.7816,-3.5376 4.3189,-8.0636 5.6385,-10.0576 6.7847,-10.2524 13.6916,-43.7255 13.827,-67.0103 l 0.061,-10.5 -5.3547,-10.8168 c -3.6487,-7.3707 -5.7851,-10.6517 -6.7056,-10.2984 -0.743,0.2851 -3.9584,0.1293 -7.1453,-0.3461 -3.1869,-0.4755 -14.5694,-1.1431 -25.2944,-1.4835 -19.4004,-0.6158 -57.5167,-2.0865 -78.5,-3.0289 -17.8637,-0.8023 -36.2474,-1.514 -66.00003,-2.5553 -15.4,-0.539 -31.6,-1.1884 -36,-1.4431 -12.8256,-0.7424 -47.5906,-1.8024 -52.5,-1.6008 -2.475,0.1017 -4.91889,0.6011 -5.43087,1.1098 -0.88906,0.8833 -1.06099,12.4996 -1.4902,100.6857 -0.16992,34.9127 -0.5633,40.1264 -2.85472,37.8349 -0.35351,-0.3535 -0.58928,-10.411 -0.52395,-22.3501 0.0653,-11.9391 0.15347,-37.0074 0.19587,-55.7074 0.0424,-18.7 0.0924,-38.95 0.11108,-45 0.0187,-6.05 -0.34388,-12.35 -0.80573,-14 l -0.83972,-3 -11.93088,-0.6592 c -6.56198,-0.3625 -18.68088,-0.9277 -26.93088,-1.2559 -18.82504,-0.7489 -34.67989,-1.4833 -45,-2.0842 -4.4,-0.2562 -17.9,-0.7108 -30,-1.0102 -12.1,-0.2994 -30.55,-0.9848 -41,-1.5231 -35.40935,-1.824 -40.98079,-2.076 -54,-2.4431 -27.13365,-0.765 -51.65977,-1.6836 -53.78869,-2.0145 -1.21622,-0.1891 -10.00839,-0.6521 -19.53816,-1.0289 -17.10496,-0.6764 -17.35789,-0.656 -19.75,1.5913 l -2.42315,2.2764 -2.25,-2.0479 c -2.79193,-2.5412 -7.08181,-3.0745 -30.75,-3.8229 -10.175,-0.3218 -19.4,-0.7572 -20.5,-0.9675 -1.1,-0.2103 -14.4875,-0.6994 -29.75,-1.0868 l -27.75,-0.7043 -0.12762,13.8904 c -0.0702,7.6397 -0.28566,15.0154 -0.47882,16.3904 -0.19315,1.375 -0.32773,7 -0.29907,12.5 0.20911,40.1237 -0.2247,71.7031 -0.97468,70.9531 -0.3409,-0.3409 -0.67606,-1.0323 -0.74481,-1.5364 -0.0688,-0.5042 -0.21107,-1.0292 -0.31627,-1.1667 -0.31536,-0.4122 -1.20185,-62.0445 -0.93133,-64.75 0.13749,-1.375 0.22453,-5.2 0.19344,-8.5 -0.27227,-28.8953 -0.48866,-36.1469 -1.10713,-37.1008 -0.71536,-1.1034 -13.24352,-1.8359 -51.21371,-2.9945 -10.175,-0.3104 -25.025,-0.9293 -33,-1.3752 -7.975,-0.446 -21.88451,-0.878 -30.91002,-0.96 -9.02551,-0.082 -16.80975,-0.3963 -17.29831,-0.6983 -0.48856,-0.3019 -11.77905,-0.9515 -25.08998,-1.4435 -13.31093,-0.492 -29.82669,-1.1101 -36.70169,-1.3734 -26.05705,-0.9983 -51.29738,-1.753 -74,-2.2127 -12.925,-0.2617 -27.1,-0.9298 -31.5,-1.4847 -9.78624,-1.2343 -24.50297,-0.4561 -25.65292,1.3563 -0.44905,0.7077 -0.82335,14.2993 -0.83177,30.2035 -0.008,15.9041 -0.22324,28.7087 -0.47739,28.4546 -0.25414,-0.2542 -0.73024,-13.0417 -1.05799,-28.4167 -0.32776,-15.375 -0.8034,-28.9671 -1.05698,-30.2046 -0.28543,-1.3929 -1.19315,-2.25 -2.38299,-2.25 -1.05706,0 -2.20004,-0.45 -2.53996,-1 -0.34941,-0.5654 0.47451,-1 1.89567,-1 2.0726,0 2.62692,-0.6035 3.15889,-3.4391 0.35485,-1.8916 0.45665,-25.2842 0.22621,-51.98373 -0.38218,-44.28186 -0.10917,-52.2389 1.72927,-50.40047 0.34033,0.34033 0.59304,23.42545 0.56158,51.30027 -0.0371,32.90473 0.30338,51.35523 0.97078,52.60223 0.94247,1.761 2.25412,1.9208 15.77054,1.9208 13.53302,0 14.88388,-0.165 16.46482,-2.0114 0.94723,-1.1063 1.72224,-3.1313 1.72224,-4.5 0,-4.2776 2.89294,-3.0103 3.62848,1.5895 0.46033,2.8787 1.27257,4.3072 2.76182,4.8572 1.16033,0.4285 12.9097,1.0814 26.1097,1.4509 13.2,0.3694 28.05,0.8737 33,1.1205 4.95,0.2469 15.75,0.6874 24,0.9789 8.25,0.2915 24.225,0.9708 35.5,1.5096 29.96017,1.4317 41.20138,1.8706 63.5,2.4792 11,0.3002 25.85,0.7562 33,1.0133 7.15,0.2571 21.775,0.7328 32.5,1.0573 10.725,0.3244 23.10904,0.7625 27.52008,0.9735 4.41105,0.2111 8.57952,0.038 9.26327,-0.3846 0.98419,-0.6083 1.15963,-28.8787 0.84212,-135.70112 L 457.92988,772.5 l -4.56726,-9.66067 c -4.10761,-8.68842 -4.8915,-9.73189 -7.78911,-10.36831 -2.38173,-0.52312 -3.52128,-0.29815 -4.37015,0.86276 -0.71729,0.98095 -1.96462,1.35693 -3.3231,1.00168 -1.88951,-0.49412 -2.17479,-0.15989 -2.17479,2.54791 0,3.7807 -1.378,3.99555 -3.6256,0.56528 -1.1689,-1.78396 -1.98792,-2.23513 -2.72305,-1.5 -1.68686,1.68686 -5.29199,1.21452 -6.77938,-0.88822 -0.75458,-1.06677 -2.27197,-2.07927 -3.37197,-2.25 -1.79637,-0.27882 -2.03048,0.33233 -2.29935,6.00265 -0.27786,5.8597 -0.4574,6.2906 -2.5,6 -1.86399,-0.26518 -2.3399,-1.23098 -3.11091,-6.31308 -0.50065,-3.3 -1.04872,-6.17307 -1.21794,-6.3846 -0.16922,-0.21153 -1.5596,0.14047 -3.08974,0.78222 -2.0831,0.87367 -3.36352,2.67327 -5.09645,7.16291 l -2.31439,5.99609 3.56439,4.85567 c 4.11794,5.60975 4.24602,6.08771 1.63134,6.08771 -2.35655,0 -8.26211,-7.00526 -11.00768,-13.05746 -1.10844,-2.4434 -2.02523,-6.32472 -2.03731,-8.62515 -0.0164,-3.11818 -0.46732,-4.30728 -1.77196,-4.67248 -0.9625,-0.26943 -10.525,-0.77039 -21.25,-1.11324 -10.725,-0.34286 -22.425,-0.80993 -26,-1.03792 -3.575,-0.228 -12.35,-0.65298 -19.5,-0.9444 -32.054,-1.30648 -105.50991,-4.49891 -115.5,-5.0197 -17.8799,-0.93209 -31.08924,-1.51237 -47.5,-2.08665 -9.35,-0.32719 -17.62291,-0.79478 -18.38424,-1.03908 -0.76134,-0.2443 -2.9469,-0.15102 -4.85681,0.20728 -3.34169,0.6269 -3.45184,0.78783 -2.92265,4.27013 1.37382,9.04037 1.79382,18.59475 0.75251,17.11867 -0.582,-0.825 -1.11682,-2.85 -1.1885,-4.5 -0.11831,-2.72377 -0.21064,-2.6317 -1.00274,1 -0.47984,2.2 -0.8233,37.3 -0.76324,78 0.1201,81.39664 -0.14761,94.54155 -1.34417,66 -0.94285,-22.48979 -2.46951,-120.49035 -1.88607,-121.072 1.25874,-1.25487 -0.36021,-36.54324 -1.79994,-39.23339 -1.37916,-2.57699 -4.1559,-2.96642 -27.081024,-3.79806 -10.16228,-0.36865 -20.73728,-1.02375 -23.5,-1.45579 -3.80878,-0.59562 -2.84737,-0.68861 3.97687,-0.38466 29.247064,1.30268 46.341744,1.50899 46.924344,0.56632 0.94392,-1.52729 1.34297,-18.24633 0.50415,-21.12242 -0.40102,-1.375 -0.77399,-1.7676 -0.82881,-0.87244 -0.0548,0.89515 -0.71497,2.1382 -1.467,2.76233 -1.86697,1.54944 -3.17041,-0.16841 -4.68167,-6.17019 -1.15035,-4.56842 -2.47482,-6.52923 -3.63001,-5.37403 -0.30027,0.30026 0.17967,2.67549 1.06653,5.27827 2.0124,5.90607 2.04871,8.99468 0.11446,9.73692 -1.67617,0.64321 -3.28407,-1.49052 -6.30044,-8.36086 -2.83187,-6.45011 -6.41803,-22.80206 -6.03104,-27.5 0.30231,-3.6701 0.58867,-4.02518 3.47199,-4.30534 3.69933,-0.35945 5.67867,1.97308 9.38135,11.05534 1.64237,4.02855 2.88785,5.75 4.16016,5.75 1.99589,0 2.34873,1.06726 0.84874,2.56725 -1.05143,1.05143 -0.27607,5.43275 0.96144,5.43275 2.58436,0 2.93531,-4.57694 3.53042,-46.04277 0.34302,-23.90148 0.60464,-50.43223 0.58136,-58.95723 -0.0233,-8.525 -0.0398,-43.85 -0.0368,-78.5 0.0101,-115.3775 -0.21116,-135.97534 -1.47414,-137.23831 -1.52915,-1.52915 -8.15236,5.86652 -12.30338,13.73831 -6.2137,11.78337 -9.15532,21.28682 -11.38522,36.78206 -1.05127,7.30514 -2.83699,15.85514 -3.968264,19 -1.13128,3.14487 -3.12197,9.31794 -4.42376,13.71794 -2.14137,7.23773 -3.64235,10.96297 -10.2745,25.5 -1.12915,2.475 -3.24438,7.2 -4.7005,10.5 -3.93291,8.91316 -11.23152,20.37365 -16.39887,25.75 -2.51094,2.6125 -4.91976,4.75 -5.35294,4.75 -1.76367,0 -0.60088,-2.80298 2.30772,-5.56291 8.53509,-8.0988 25.48542,-43.74581 33.73094,-70.93709 2.2457,-7.40568 4.67339,-18.37916 5.641424,-25.5 2.005,-14.74876 5.08566,-24.93222 11.55751,-38.20467 2.60268,-5.33757 4.50336,-9.93345 4.22373,-10.21308 -0.27963,-0.27963 -2.36253,-0.29474 -4.62866,-0.0336 -2.26614,0.26117 -14.470254,1.60771 -27.120254,2.99233 -12.65,1.38461 -32.45,3.60168 -44,4.92683 -11.55,1.32514 -24.15,2.68092 -28,3.01284 -3.8499996,0.33192 -8.2937996,0.85767 -9.8751096,1.16834 -1.95996004,0.38506 -2.65735004,0.21252 -2.19098004,-0.54208 0.37627,-0.60881 2.15770004,-1.10693 3.95874004,-1.10693 1.80104,0 12.2369796,-1.13212 23.1909796,-2.51582 39.39483,-4.97631 60.16085,-7.49067 74.416374,-9.01036 7.975,-0.85016 17.25662,-2.25622 20.62581,-3.12459 l 6.12581,-1.57884 0.52276,-5.13519 c 0.28752,-2.82436 0.59451,-7.7964 0.6822,-11.04898 0.0885,-3.28157 0.80127,-6.83012 1.60143,-7.97251 0.7931,-1.1323 1.50469,-1.84609 1.58133,-1.58622 0.0766,0.25988 0.41414,6.09751 0.75,12.97251 l 0.61066,12.5 8.5,-0.25572 c 4.675,-0.14065 15.25,-1.17742 23.5,-2.30394 8.25,-1.12652 22.875,-3.12304 32.5,-4.43672 9.625,-1.31367 20.425,-2.67144 24,-3.01726 3.575,-0.34582 9.2,-1.02638 12.5,-1.51236 3.3,-0.48599 11.85,-1.65327 19,-2.59396 11.55581,-1.52035 13.97734,-2.19637 21.79767,-6.08523 4.83872,-2.40619 11.81372,-5.09458 15.5,-5.97422 3.68628,-0.87963 8.27733,-2.16873 10.20233,-2.86467 1.925,-0.69593 6.875,-2.24367 11,-3.43942 4.125,-1.19575 11.55,-3.60114 16.5,-5.3453 8.97528,-3.16249 9.04669,-3.17021 26,-2.8111 20.19919,0.42786 38.59693,0.50305 62.71563,0.25633 9.74359,-0.0997 21.63397,0.30569 26.42307,0.90081 9.44768,1.17401 14.2765,0.20908 14.45532,-2.88856 0.69246,-11.99506 0.51206,-13.66727 -1.77515,-16.45541 -1.27539,-1.55467 -2.31888,-3.33587 -2.31888,-3.95818 0,-0.62232 -1.9125,0.71327 -4.25,2.96798 -2.3375,2.25471 -5.80646,4.88355 -7.70881,5.84187 -4.22407,2.12791 -10.2112,2.4088 -12.41198,0.58232 -1.81509,-1.5064 -2.16851,-4.6559 -0.62921,-5.60724 0.55,-0.33992 1,0.32265 1,1.47237 0,3.13373 2.24264,3.40904 7.90998,0.97101 5.20554,-2.23936 11.4831,-8.19941 10.83544,-10.2874 -0.19721,-0.63579 -3.47572,-2.80731 -7.28558,-4.82561 -7.70196,-4.08015 -12.46595,-8.70949 -12.44799,-12.09615 0.0147,-2.77416 8.94867,-9.26099 14.08065,-10.22375 2.77335,-0.52028 4.01587,-0.20741 5.95597,1.49975 2.03342,1.78928 2.11043,2.02678 0.45153,1.39254 -1.1,-0.42055 -3.1701,-0.75121 -4.60021,-0.7348 -3.38892,0.0389 -11.89979,5.90776 -11.89979,8.20577 0,2.66299 3.76581,5.70143 12.42907,10.02836 l 7.78598,3.88878 2.86316,-3.14544 2.86316,-3.14543 0.0293,-24.45 c 0.0191,-15.97213 0.36922,-24.11009 1.00959,-23.46972 0.5653,0.5653 1.09446,10.49235 1.25,23.45 l 0.26974,22.46972 3.25,1.43047 c 4.04252,1.77929 4.257,4.67549 0.78501,10.60001 -1.35575,2.31341 -2.18075,4.49044 -1.83334,4.83786 1.15628,1.15628 6.35855,0.65188 9.37736,-0.90921 3.50106,-1.81047 5.6637,-1.06137 3.71953,1.28838 -1.78712,2.15993 -8.73666,5.2039 -11.94157,5.23053 -2.76836,0.023 -3.85699,1.58157 -3.85699,5.52196 0,3.58279 1.01261,5.43239 2.63356,4.81038 1.15071,-0.44157 1.32554,0.004 0.80883,2.06314 -0.61761,2.46076 -0.43827,2.62648 2.84239,2.62648 1.92588,0 9.73717,-0.64022 17.35841,-1.4227 7.62125,-0.78249 18.13181,-1.731 23.35681,-2.10779 5.225,-0.37679 9.75625,-0.83792 10.06945,-1.02473 0.3132,-0.1868 2.5632,-0.58328 5,-0.88106 10.04102,-1.22702 32.67131,-3.84126 35.93055,-4.15067 1.925,-0.18275 6.2,-0.80702 9.5,-1.38726 3.3,-0.58025 11.85,-1.71365 19,-2.51868 7.15,-0.80503 18.175,-2.15609 24.5,-3.00236 11.34458,-1.51787 42.58729,-5.34859 65,-7.96975 6.325,-0.73971 13.075,-1.6212 15,-1.95888 1.925,-0.33767 11.15,-1.47999 20.5,-2.53849 22.91208,-2.59383 40.55419,-4.62174 61.5,-7.06923 9.625,-1.12467 20.425,-2.30147 24,-2.61511 3.575,-0.31363 7.4,-1.12247 8.5,-1.7974 2.64701,-1.62416 6.65133,-2.60977 5.94236,-1.46263 -0.73717,1.19278 -0.13894,1.1678 15.06377,-0.62898 7.14663,-0.84465 21.38127,-2.41455 31.63253,-3.48866 19.04065,-1.99506 21.80875,-2.52273 23.09603,-4.40268 0.40408,-0.59012 0.74158,-10.17579 0.75,-21.3015 l 0.0153,-20.22856 -2.57161,1.1717 c -3.68238,1.67781 -4.80693,-0.54637 -2.33,-4.60835 1.04177,-1.70843 1.89582,-3.77309 1.89787,-4.58814 0.002,-0.81505 -2.47126,-3.767 -5.49626,-6.5599 -4.06593,-3.75396 -5.5,-5.785 -5.5,-7.78953 0,-3.48869 3.8109,-5.47705 7.79029,-4.06464 2.47169,0.87728 2.71138,1.41857 2.72878,6.16222 0.0124,3.37519 0.5711,5.7525 1.59189,6.77329 1.43043,1.43043 1.63207,0.27766 2.22727,-12.73335 0.35995,-7.8684 0.6561,-23.16712 0.65811,-33.99716 0.002,-12.04457 0.39198,-19.93098 1.00366,-20.30902 0.6623,-0.40934 1,19.17874 1,58.00837 l 0,58.62641 2.25,-0.68141 c 1.2375,-0.37478 3.6889,-1.55222 5.4476,-2.61654 5.6869,-3.44167 15.6912,-8.84134 20.1056,-10.85167 2.3668,-1.07784 8.0218,-4.86337 12.5667,-8.4123 6.6732,-5.21084 9.2847,-8.09301 13.5702,-14.97668 5.6018,-8.99803 22.9019,-26.66454 25.973,-26.52309 0.8728,0.0402 2.9369,0.86098 4.5869,1.82395 2.2081,1.28872 3.0853,2.62365 3.3231,5.05739 0.1777,1.81858 3.1583,10.5603 6.6236,19.42604 3.4652,8.86574 6.6405,17.21966 7.0561,18.56426 2.9795,9.63989 14.80224,30.72219 23.04414,41.09252 14.3776,18.09053 32.8469,33.48877 53.9531,44.98194 4.4,2.39598 11.4398,7.08433 15.6439,10.41856 16.9138,13.41403 29.389,23.22241 33.2667,26.15537 7.0516,5.33361 14.8983,13.68735 20.1374,21.43845 6.9948,10.34874 6.7857,9.90314 4.9736,10.59852 -1.0716,0.4112 -2.8379,-0.71611 -5.3134,-3.39109 -3.2192,-3.47861 -14.9802,-11.239 -17.0329,-11.239 -1.1629,0 -27.0319,-13.22733 -35.0905,-17.94251 -4.0784,-2.3863 -11.7927,-7.42443 -17.1429,-11.19585 -16.749,-11.80667 -24.1404,-14.45888 -49.6066,-17.80015 -5.0407,-0.66135 -12.3963,-2.29574 -16.34584,-3.63197 -3.9496,-1.33624 -7.6168,-2.42952 -8.1494,-2.42952 -0.5325,0 -3.3019,-1.05989 -6.1542,-2.35532 -2.8522,-1.29543 -6.9812,-2.94089 -9.1753,-3.65658 -5.3521,-1.74572 -12.5396,-6.18768 -21.0193,-12.99031 -13.1847,-10.57705 -31.9445,-21.94339 -54.9471,-33.29172 -4.6274,-2.28296 -11.0288,-3.34902 -11.8762,-1.97783 -1.1898,1.92502 -1.6019,49.09066 -2.25326,257.88545 -0.45203,144.89196 -0.33739,213.31608 0.35812,213.74593 1.70954,1.05653 24.10234,2.52447 55.72714,3.65314 16.5,0.58888 41.025,1.49609 54.5,2.01602 13.47504,0.51993 31.70004,1.19258 40.50004,1.49477 42.2081,1.44943 120.3376,5.25803 121.4057,5.9182 0.3463,0.21397 9.8466,0.69056 21.1119,1.05908 11.2653,0.36852 24.3074,1.06334 28.9824,1.54406 13.5924,1.39765 26.4173,3.03053 27.5,3.50132 1.4866,0.64641 -21.1719,-0.24109 -35.5,-1.39049 -6.875,-0.55151 -19.7,-1.26865 -28.5,-1.59366 -15.5923,-0.57585 -40.1858,-1.55582 -88.9536,-3.54449 -18.7325,-0.76388 -24.1238,-0.70877 -24.7347,0.25282 -0.4296,0.67629 -0.7949,3.02961 -0.8117,5.22961 -0.017,2.2 -0.4183,4.61191 -0.8922,5.35981 -0.5068,0.79986 -0.6587,-1.33263 -0.369,-5.17867 l 0.4925,-6.53847 -9.8657,-0.32134 c -12.8291,-0.41785 -15.1968,0.41244 -16.1325,5.65724 l -0.7174,4.02143 -0.5079,-5 -0.5078,-5 -7,-0.6778 c -3.85,-0.37279 -18.475,-0.94298 -32.50004,-1.26708 -14.025,-0.3241 -35.4,-1.0251 -47.5,-1.55777 -53.8952,-2.37262 -55.4144,-2.39715 -55.90326,-0.90258 -1.1108,3.39606 -1.58056,51.63491 -1.59934,164.23232 -0.0111,66.45491 0.20027,121.18371 0.46968,121.61961 0.83028,1.3435 32.95072,2.9353 101.53292,5.0318 17.87504,0.5464 36.55004,1.2137 41.50004,1.4828 4.95,0.2692 15.075,0.7345 22.5,1.034 29.4717,1.1889 37.8213,1.558 45.5,2.0113 33.4744,1.9763 54.6928,2.6206 56.1642,1.7055 0.8108,-0.5043 0.29,-1.9363 -1.7158,-4.7181 -2.7055,-3.752 -7.9484,-12.8991 -7.9484,-13.8671 0,-0.2418 0.938,-0.1944 2.0845,0.1055 1.1465,0.2998 3.284,2.4186 4.75,4.7085 4.6784,7.3075 9.617,13.4758 11.2388,14.0371 0.8653,0.2995 8.7403,0.7604 17.5,1.0241 8.7597,0.2638 18.8517,0.7011 22.4267,0.9718 7.5383,0.5709 26.3288,1.3314 50.5,2.044 9.35,0.2756 24.425,0.9095 33.5,1.4087 9.075,0.4992 19.1532,0.9322 22.396,0.9624 3.2427,0.03 14.4927,0.4619 25,0.9595 10.5072,0.4976 20.5969,0.9304 22.4216,0.9617 1.8246,0.031 3.9424,0.5756 4.7061,1.2095 0.7638,0.6339 1.8584,0.8622 2.4325,0.5074 0.5741,-0.3548 1.0438,-0.2427 1.0438,0.2492 0,1.0792 -12.6506,0.9148 -64.5,-0.838 -14.3,-0.4834 -33.425,-1.1259 -42.5,-1.4277 -9.075,-0.3019 -22.125,-0.7895 -29,-1.0838 -34.0649,-1.4578 -57.2431,-2.103 -59.57,-1.6582 -2.2013,0.4208 -2.4919,0.8787 -1.9749,3.1124 0.3335,1.4405 2.4573,6.219 4.7198,10.619 3.7772,7.346 4.1506,8.7766 4.5679,17.5 0.3154,6.595 -0.1955,13.934 -1.6708,24 -1.9506,13.3098 -2.8499,17.3978 -7.5263,34.2134 -0.8739,3.1424 -3.7641,9.2174 -6.4227,13.5 -2.6586,4.2826 -6.6917,11.0032 -8.9624,14.9346 -2.6594,4.6042 -8.0876,11.1878 -15.2533,18.5 -6.1185,6.2436 -13.1579,14.502 -15.643,18.352 -2.4852,3.85 -6.6409,9.2611 -9.2349,12.0246 -5.6004,5.9665 -8.6179,13.9663 -10.492,27.8156 -1.5532,11.4784 0.3553,30.6806 3.8903,39.141 1.1437,2.7372 1.7593,3.147 4.206,2.7996 3.6539,-0.5188 4.8479,1.3607 6.794,10.6946 0.812,3.8942 4.1881,14.6053 7.5025,23.8025 8.1422,22.5938 9.4303,29.0729 7.9665,40.0723 -1.6597,12.4722 -8.7625,29.6589 -20.3123,49.1498 -3.0962,5.225 -6.8569,11.6982 -8.3569,14.3849 -3.6092,6.4642 -19.3455,27.7579 -24.9086,33.7053 -2.4263,2.5939 -5.6282,5.0189 -7.1152,5.3888 -1.487,0.37 -4.848,1.9885 -7.4687,3.5968 -2.6208,1.6083 -5.3446,2.9242 -6.0529,2.9242 -0.7084,0 -5.0101,1.8 -9.5594,4 -5.261,2.5442 -9.6092,3.9785 -11.9471,3.941 -3.5188,-0.057 -3.3343,-0.2227 4.3244,-3.8961 z M 879.35985,1018.5 c 0.0849,-22.55 0.43599,-86.9 0.78019,-143 0.34421,-56.1 0.27474,-102.51706 -0.15437,-103.14902 -0.77085,-1.13525 -36.78375,-3.17965 -94.2802,-5.35215 -13.475,-0.50915 -29.225,-1.1696 -35,-1.46765 -9.64326,-0.49771 -38.35404,-1.70684 -72,-3.03222 -7.425,-0.29248 -17.775,-0.73882 -23,-0.99187 -5.225,-0.25304 -16.7,-0.70384 -25.5,-1.00176 -8.8,-0.29793 -20.95,-0.76714 -27,-1.04271 -40.28664,-1.83498 -60.6595,-2.48208 -61.51417,-1.95386 -0.54221,0.3351 -0.98583,3.50772 -0.98583,7.05026 0,3.54254 -0.40122,6.44098 -0.89159,6.44098 -1.03981,0 -1.73858,-2.52086 -2.66173,-9.60227 l -0.66515,-5.10228 -24.64076,-0.88318 c -13.55243,-0.48575 -30.04077,-0.88973 -36.64077,-0.89773 l -12,-0.0145 -0.65075,8.5 c -0.35791,4.675 -0.69541,20.95 -0.75,36.16667 l -0.0992,27.66662 2.75,1.08932 2.75,1.08931 -2.76625,-0.52911 -2.76625,-0.52911 0.0493,32.27313 c 0.0271,17.75022 0.31358,34.5695 0.63666,37.37618 0.55726,4.84122 0.77363,5.15541 4.21699,6.12363 l 3.62959,1.02058 -3.75,0.12637 -3.75004,0.12637 -0.0322,43.75 c -0.0573,77.815 0.0832,93.701 0.83548,94.4533 0.65713,0.6571 21.3557,1.7691 60.69673,3.2608 7.15,0.2711 20.07639,0.7919 28.7253,1.1574 12.13002,0.5125 16.07915,0.3707 17.27298,-0.6201 1.2686,-1.0528 2.21972,-1.0016 5.2747,0.2839 2.73152,1.1494 8.802,1.7242 22.72702,2.1519 10.45,0.3209 28.9,1.008 41,1.5267 12.1,0.5188 31.45,1.1933 43,1.499 11.55,0.3057 25.5,0.775 31,1.0429 5.5,0.2678 17.2,0.7303 26,1.0278 8.8,0.2975 19.375,0.7274 23.5,0.9553 4.125,0.2278 17.4,0.6863 29.5,1.0188 12.1,0.3325 23.125,0.7863 24.5,1.0084 1.375,0.2222 11.5,0.7016 22.5,1.0653 11,0.3637 20.20271,0.8469 20.45046,1.0737 0.24775,0.2269 4.74775,0.2848 10,0.1287 l 9.54953,-0.2838 0.15438,-41 z m -308.91341,22.1682 c -0.40753,-1.0075 -0.70039,-3.4825 -0.65078,-5.5 l 0.0902,-3.6682 0.9656,3.355 c 0.53109,1.8452 0.82394,4.3202 0.65078,5.5 -0.28711,1.9562 -0.38004,1.9838 -1.05579,0.3132 z m 4.27352,-8.6626 c -6.9718,-1.9907 -11.01449,-5.423 -11.01449,-9.3513 0,-1.2287 0.66615,-4.7916 1.48034,-7.9175 0.81419,-3.1259 1.28669,-6.9329 1.05,-8.4601 -0.23669,-1.5272 -0.66659,-4.2392 -0.95534,-6.0267 -1.05285,-6.51764 1.27149,-3.03762 2.91991,4.3717 1.68084,7.5551 1.45179,14.7403 -0.59162,18.5589 -1.29723,2.4241 0.86526,4.1651 8.53746,6.8737 3.60759,1.2735 6.55925,2.6823 6.55925,3.1306 0,1.0575 -0.31503,1.011 -7.98551,-1.1793 z m 12.00836,-1.2556 c -0.51385,-1.2375 -1.42991,-4.8076 -2.03569,-7.9337 l -1.10141,-5.6836 -4.08531,0.1836 c -2.24692,0.1011 -4.24158,-0.2663 -4.43257,-0.8163 -0.43234,-1.245 13.30158,-5.5 17.75251,-5.5 4.04396,0 2.94411,1.1551 -3.31762,3.4842 -4.51034,1.6777 -4.6398,1.8349 -3.25358,3.9505 1.49618,2.2835 3.24321,14.5653 2.07184,14.5653 -0.36514,0 -1.08432,-1.0125 -1.59817,-2.25 z m -23.9439,-56.16667 c -0.0434,-1.05416 0.19293,-1.64479 0.52522,-1.3125 0.33229,0.33229 0.36781,1.1948 0.0789,1.91667 -0.31922,0.79773 -0.55618,0.56078 -0.60416,-0.60417 z M 561.86336,968 c 0,-1.375 0.22698,-1.9375 0.50439,-1.25 0.27741,0.6875 0.27741,1.8125 0,2.5 -0.27741,0.6875 -0.50439,0.125 -0.50439,-1.25 z m -3.63932,-29.29663 c -0.80883,-4.04778 -0.15274,-5.73754 1.56196,-4.02284 0.69189,0.69189 0.73327,2.19611 0.12194,4.43334 l -0.92526,3.38613 -0.75864,-3.79663 z M 837.20547,920 c -0.72468,-1.17256 10.39191,-1.17256 15,0 2.11924,0.53926 0.44845,0.79811 -5.69098,0.88169 -4.85086,0.066 -8.96407,-0.32354 -9.30902,-0.88169 z m -41.5,-2.03714 c -1.03075,-0.69164 1.00267,-0.80113 6.5,-0.34999 4.4,0.36109 8.1875,0.82091 8.41667,1.02182 1.01133,0.88667 -13.57296,0.22981 -14.91667,-0.67183 z m -46.51327,-1.94138 c 0.54532,-0.88236 11.36796,-0.35838 12.42994,0.60179 0.22916,0.2072 -2.60989,0.37673 -6.30902,0.37673 -4.13073,0 -6.49235,-0.37754 -6.12092,-0.97852 z m -41.48673,-1.79791 c 0,-0.42703 1.9125,-0.62822 4.25,-0.44709 7.00505,0.54281 7.60312,0.98439 1.5,1.10752 -3.1625,0.0638 -5.75,-0.23339 -5.75,-0.66043 z m -52,-2.30764 -3.5,-0.65265 4.19098,-0.13164 c 2.30504,-0.0724 4.42275,0.24336 4.70601,0.70169 0.5982,0.9679 -0.55464,0.98555 -5.39699,0.0826 z m -43.75,-1.60526 c 0.9625,-0.25152 2.5375,-0.25152 3.5,0 0.9625,0.25153 0.175,0.45733 -1.75,0.45733 -1.925,0 -2.7125,-0.2058 -1.75,-0.45733 z m -57.64301,-1.89246 C 553.34828,905.9056 553.60817,901 554.70547,901 c 0.55,0 1,2.025 1,4.5 0,4.73314 -0.38614,5.54207 -1.39301,2.91821 z m 47.14301,0.87606 c 1.2375,-0.23836 3.2625,-0.23836 4.5,0 1.2375,0.23835 0.225,0.43337 -2.25,0.43337 -2.475,0 -3.4875,-0.19502 -2.25,-0.43337 z m -29.48625,-1.01185 c 1.52006,-0.22986 3.77006,-0.22371 5,0.0136 1.22994,0.23736 -0.0137,0.42542 -2.76375,0.41792 -2.75,-0.008 -3.75631,-0.20172 -2.23625,-0.43157 z m -41.01375,-1.97175 c 0.9625,-0.25152 2.5375,-0.25152 3.5,0 0.9625,0.25153 0.175,0.45733 -1.75,0.45733 -1.925,0 -2.7125,-0.2058 -1.75,-0.45733 z m -35.5,-1.0164 c 1.2375,-0.23836 3.2625,-0.23836 4.5,0 1.2375,0.23835 0.225,0.43337 -2.25,0.43337 -2.475,0 -3.4875,-0.19502 -2.25,-0.43337 z M 551.20165,879.75 c -0.5507,-1.56075 -2.47841,-13.73316 -2.48863,-15.71429 -0.007,-1.28571 0.16415,-1.28571 1.40036,0 0.87186,0.90677 1.56581,4.41507 1.82261,9.21429 0.39905,7.45758 0.20611,9.16537 -0.73434,6.5 z m 12.55399,-2.65625 c -1.16492,-2.17668 -1.36181,-9.57518 -0.40832,-15.34375 0.76173,-4.60846 3.26974,-5.00816 6.27469,-1 1.13393,1.5125 2.51659,3.29351 3.07258,3.95779 0.55598,0.66429 1.01088,1.86448 1.01088,2.6671 0,0.80261 0.91131,3.5853 2.02513,6.18374 1.11382,2.59844 1.80823,4.94134 1.54313,5.20644 -1.15599,1.156 -3.77499,-1.01559 -5.12683,-4.25101 -1.62345,-3.88545 -2.2022,-4.14069 -4.90604,-2.1636 -1.21635,0.88942 -1.65505,2.08397 -1.28501,3.49901 0.74168,2.83616 -0.86268,3.74347 -2.20021,1.24428 z m 4.08386,-11.74737 c -0.94083,-1.61863 -1.07696,-1.48249 -1.10362,1.10362 -0.0222,2.15133 0.26838,2.65121 1.07321,1.84638 0.79095,-0.79095 0.79957,-1.62674 0.0304,-2.95 z m 14.94217,4.76063 c -5.67426,-7.96877 -6.82244,-17.45168 -2.62165,-21.65246 2.87113,-2.87114 3.84242,-3.01472 5.97402,-0.88312 1.14652,1.14652 1.57143,3.58009 1.57143,9 0,7.94165 0.65932,8.75163 5.16214,6.34179 1.86909,-1.0003 1.97655,-1.69802 1.3506,-8.7693 -0.61775,-6.97859 -0.49048,-7.85409 1.38893,-9.55493 2.04131,-1.84736 2.11532,-1.82183 5.53285,1.90925 3.71378,4.05451 9.07293,14.33689 8.01271,15.37365 -0.35328,0.34546 -1.8687,-0.83439 -3.3676,-2.62189 -1.57462,-1.87779 -3.66549,-3.25 -4.95211,-3.25 -2.13044,0 -2.19745,0.25972 -1.54801,6 0.58332,5.15587 0.44962,6 -0.95034,6 -0.89605,0 -1.62917,-0.675 -1.62917,-1.5 0,-1.63791 -2.53493,-2.06152 -3.45245,-0.57694 -0.31377,0.50769 -1.90412,1.21598 -3.53412,1.57399 -2.23215,0.49026 -2.90807,1.1608 -2.73853,2.7167 0.35277,3.23746 -1.85743,3.18127 -4.1987,-0.10674 z m 0.90849,-15.91603 c 0.009,-2.62138 -0.37634,-4.06696 -0.98469,-3.69098 -0.55,0.33992 -0.99311,2.95398 -0.98469,5.80902 0.011,3.72033 0.28995,4.76602 0.98469,3.69098 0.53316,-0.825 0.97627,-3.43906 0.98469,-5.80902 z m 17.01531,-2.10684 c 0,-0.38603 -0.66069,-1.57539 -1.4682,-2.64301 -1.38971,-1.83737 -1.46989,-1.76909 -1.5,1.27749 -0.0243,2.45732 0.32299,3.08247 1.4682,2.64301 0.825,-0.31659 1.5,-0.89145 1.5,-1.27749 z m 255.25,-8.77347 c 0.9625,-0.25152 2.5375,-0.25152 3.5,0 0.9625,0.25153 0.175,0.45733 -1.75,0.45733 -1.925,0 -2.7125,-0.2058 -1.75,-0.45733 z m -34.62084,-1.10168 c -0.26888,-0.43506 1.16707,-0.63412 3.19099,-0.44236 6.1838,0.5859 6.91305,0.9956 1.98887,1.11737 -2.58004,0.0638 -4.91098,-0.23995 -5.17986,-0.67501 z m -275.37975,-7.2909 C 544.46337,827.06077 544.37627,824 545.6442,824 c 1.23212,0 2.29209,7.31582 1.88353,13 l -0.32344,4.5 -1.24941,-6.58191 z m 237.98268,5.36738 c 1.50265,-0.22817 4.20265,-0.23276 6,-0.0102 1.79735,0.22256 0.56791,0.40925 -2.73209,0.41486 -3.3,0.006 -4.77056,-0.17648 -3.26791,-0.40466 z M 750.4819,839.2665 c 2.35204,-0.21124 5.95204,-0.20827 8,0.007 2.04796,0.21487 0.12357,0.38771 -4.27643,0.38408 -4.4,-0.004 -6.07561,-0.17944 -3.72357,-0.39069 z m -39.02643,-1.9899 c 1.7875,-0.22182 4.7125,-0.22182 6.5,0 1.7875,0.22183 0.325,0.40333 -3.25,0.40333 -3.575,0 -5.0375,-0.1815 -3.25,-0.40333 z m -33.51791,-0.99113 c 1.50265,-0.22817 4.20265,-0.23276 6,-0.0102 1.79735,0.22256 0.56791,0.40925 -2.73209,0.41486 -3.3,0.006 -4.77056,-0.17648 -3.26791,-0.40466 z m -42.50112,-1.94141 c 0.67703,-0.27392 2.02703,-0.29059 3,-0.0371 0.97297,0.25354 0.41903,0.47766 -1.23097,0.49804 -1.65,0.0204 -2.44606,-0.18706 -1.76903,-0.46099 z m -35.49888,-1.05859 c 1.50265,-0.22817 4.20265,-0.23276 6,-0.0102 1.79735,0.22256 0.56791,0.40925 -2.73209,0.41486 -3.3,0.006 -4.77056,-0.17648 -3.26791,-0.40466 z m -39.98209,-2.00172 c 1.5125,-0.22913 3.9875,-0.22913 5.5,0 1.5125,0.22912 0.275,0.41659 -2.75,0.41659 -3.025,0 -4.2625,-0.18747 -2.75,-0.41659 z m -33.5,-0.98948 c 1.2375,-0.23836 3.2625,-0.23836 4.5,0 1.2375,0.23835 0.225,0.43337 -2.25,0.43337 -2.475,0 -3.4875,-0.19502 -2.25,-0.43337 z m -25.5,-0.9836 c 0.9625,-0.25152 2.5375,-0.25152 3.5,0 0.9625,0.25153 0.175,0.45733 -1.75,0.45733 -1.925,0 -2.7125,-0.2058 -1.75,-0.45733 z m 40.41256,-30.98916 C 539.87482,790.33862 539.69218,788 540.56197,788 c 0.52092,0 1.2637,2.72761 1.65062,6.06136 0.72096,6.21186 0.10329,9.32752 -0.84456,4.26015 z m 339.31752,-35.99492 c -0.091,-22.05901 1.21597,-255.40113 1.50017,-267.82659 0.61729,-26.98844 0.84949,-201.5036 0.26888,-202.08421 -0.71609,-0.71608 -62.94868,6.55079 -64.24913,7.50234 -0.55,0.40244 -2.328,0.6055 -3.9511,0.45124 -1.62311,-0.15425 -3.42311,0.0917 -4,0.54666 -0.5769,0.45492 -1.9489,0.6791 -3.0489,0.4982 -1.1,-0.18091 -15.5,1.23728 -32,3.15153 -16.5,1.91426 -36.075,4.15469 -43.5,4.97874 -7.425,0.82405 -31.725,3.73205 -54,6.46222 -22.275,2.73016 -42.975,5.20991 -46,5.51054 -14.43869,1.43498 -71.46228,8.12479 -81.27298,9.53467 -3.72514,0.53534 -12.50014,1.62857 -19.5,2.42941 -16.8887,1.9322 -42.39019,5.32671 -49.18073,6.54645 -8.06257,1.44824 -8.7016,2.97221 -1.24629,2.97221 3.41,0 6.2,0.43266 6.2,0.96146 0,1.47999 -7.75179,3.24155 -15.26825,3.46965 -3.75562,0.11397 -7.31651,0.75352 -8,1.43684 -0.95643,0.9562 -1.30324,25.34264 -1.55157,109.10407 l -0.31983,107.87262 4.81983,2.13129 c 13.69081,6.05399 18.46655,18.17866 16.29445,41.36842 -1.00974,10.78015 -5.36465,39.69936 -8.45641,56.15565 -0.82666,4.4 -1.98685,10.925 -2.5782,14.5 -0.59135,3.575 -1.71159,8.75 -2.48942,11.5 -2.92308,10.33446 -6.43955,32.68886 -6.55616,41.67777 -0.2294,17.68418 -0.49772,16.62146 4.35556,17.25078 2.3375,0.3031 22.925,1.2407 45.75,2.08355 22.825,0.84286 52.075,1.95494 65,2.4713 12.925,0.51636 30.25,1.19187 38.5,1.50115 8.25,0.30927 30.975,1.21248 50.5,2.00713 19.525,0.79465 48.1,1.91138 63.5,2.48162 15.4,0.57024 39.025,1.47714 52.5,2.01534 13.475,0.5382 37.325,1.48937 53,2.11371 15.675,0.62434 28.57561,1.19423 28.66802,1.26641 0.0924,0.0722 3.80492,0.2782 8.25,0.45783 l 8.08198,0.32659 -0.0199,-4.82659 z M 854.3964,644.36303 c 0.79005,-2.05882 3.30907,-2.47441 3.30907,-0.54593 0,1.05244 -0.75472,1.75433 -1.88639,1.75433 -1.06362,0 -1.68413,-0.52705 -1.42268,-1.2084 z M 397.99522,754 c 0.28766,-1.1 0.11514,-2 -0.38337,-2 -0.49851,0 -0.90638,0.9 -0.90638,2 0,1.1 0.17252,2 0.38337,2 0.21085,0 0.61872,-0.9 0.90638,-2 z m 43.82512,-17.53361 C 430.97102,709.71086 425.75608,685.5778 425.72881,662 c -0.0128,-11.05149 2.32017,-41.81958 3.56372,-47 1.55859,-6.49286 4.94285,-16.36967 8.63613,-25.20416 4.34577,-10.39529 10.18275,-17.54853 16.91204,-20.72576 l 3.36477,-1.58868 0.16431,-66.4907 c 0.14434,-58.41238 -0.005,-65.88322 -1.23071,-61.4907 -0.76726,2.75 -1.39984,6.125 -1.40574,7.5 -0.0121,2.81044 -2.28735,8.13617 -9.39897,22 -5.47303,10.66945 -21.25665,31.17966 -29.12889,37.85188 -2.75,2.3308 -7.925,6.95561 -11.5,10.27735 -3.575,3.32174 -7.78862,6.71454 -9.3636,7.53957 -1.57498,0.82503 -5.84998,3.57676 -9.5,6.11496 -15.66113,10.89067 -22.76456,15.49781 -26.57565,17.23642 C 340.66205,556.96358 321.47147,563 312.64342,563 c -6.153,0 -4.64065,-1.61477 3.31205,-3.53635 11.80974,-2.85355 30.59046,-9.34258 40.49123,-13.99034 5.08268,-2.38598 14.08268,-7.67513 20,-11.75366 5.91732,-4.07853 12.78377,-8.60129 15.25877,-10.05058 2.475,-1.44929 6.57073,-4.55523 9.10163,-6.90207 2.5309,-2.34685 8.08282,-7.38024 12.33762,-11.18531 10.19226,-9.11497 25.00504,-28.26003 30.832,-39.84942 5.20927,-10.36086 7.60088,-18.8389 11.06721,-39.23227 1.9432,-11.43238 2.13037,-14.0593 1.02058,-14.32332 -1.62858,-0.38745 -1.95161,-12.69242 -0.35904,-13.67668 0.55,-0.33992 1.05324,-0.029 1.11831,0.69098 0.33053,3.65691 1.66058,-5.70317 1.76338,-12.4096 0.10177,-6.63983 -0.10166,-7.6342 -1.45558,-7.11465 -1.38826,0.53272 -1.47672,-0.26708 -0.75,-6.78139 0.45314,-4.06194 0.82389,-11.66034 0.82389,-16.88534 0,-9.44421 -0.014,-9.49802 -2.39023,-9.16339 -1.84046,0.2592 -2.25019,-0.0283 -1.78138,-1.25 0.90492,-2.35819 -3.19158,-2.11967 -42.32839,2.46452 -18.975,2.2226 -38.325,4.47519 -43,5.00577 -4.675,0.53057 -23.35,2.75972 -41.5,4.95367 -18.15,2.19394 -37.275,4.50181 -42.5,5.12861 -10.38139,1.24535 -18.1213,4.39439 -24.44276,9.94471 -5.0428,4.42763 -6.02961,8.95672 -4.18645,19.21422 2.82786,15.73757 2.98798,24.40673 0.59477,32.20189 -3.26186,10.62447 -10.30724,24.38643 -15.48855,30.25424 -3.70851,4.19987 -6.88074,6.35806 -15.80826,10.75497 -13.89151,6.84173 -21.56466,8.9027 -32.92039,8.84223 -7.40038,-0.0394 -10.13286,-0.56241 -17.69727,-3.3873 -13.33015,-4.97807 -19.15723,-10.5556 -26.88221,-25.73093 -3.28503,-6.45327 -6.52996,-13.75821 -7.21096,-16.23321 -2.47473,-8.99401 -0.8351,-20.01446 4.24025,-28.5 2.56298,-4.28507 2.35397,-10.77054 -0.44817,-13.90659 -2.44538,-2.73677 -6.5253,-4.08863 -8.47674,-2.80872 -0.91139,0.59776 -1.36874,9.66203 -1.7791,35.25995 -0.7032,43.86533 -1.29688,267.90186 -0.72654,274.17614 0.37058,4.07673 0.71426,4.69066 2.51914,4.5 3.27943,-0.34642 4.90316,3.72575 4.2031,10.54104 -0.78698,7.66146 0.81729,8.28467 7.28581,2.83032 2.66918,-2.25068 5.17314,-4.09214 5.56437,-4.09214 0.89422,0 -1.71715,4.83223 -4.06967,7.53076 -4.88593,5.60455 -9.70521,6.86167 -12.86538,3.35596 l -1.90499,-2.11327 -0.63496,4.86327 c -0.34923,2.67481 -0.39621,6.80757 -0.10439,9.18393 l 0.53056,4.32065 5.51538,-5.82065 c 5.78513,-6.10533 5.76539,-5.87291 -0.17035,2.00595 -1.99993,2.65462 -3.63624,5.21455 -3.63624,5.68872 0,1.37665 6.69629,1.92509 36.5,2.98942 15.4,0.54995 38.8,1.44961 52,1.99923 73.29555,3.05189 96.74627,3.9976 113,4.55701 9.9,0.34073 26.55,0.95697 37,1.36941 11.48956,0.45347 20.09921,0.37489 21.7808,-0.19881 1.91847,-0.65451 3.7074,-0.56489 5.76887,0.289 3.50341,1.45116 9.50871,0.84508 14.04388,-1.41736 1.76755,-0.88177 3.93634,-1.60322 4.81954,-1.60322 0.8832,0 2.16788,-0.9 2.85484,-2 2.40838,-3.85644 6.83873,-1.79497 9.13772,4.25183 0.86691,2.28015 1.64512,2.74817 4.5696,2.74817 3.11474,0 3.52475,-0.29767 3.52475,-2.55902 0,-1.45136 0.43284,-2.2915 1,-1.94098 0.55,0.33992 1,1.45848 1,2.48569 0,1.85423 2.8277,3.2288 4.23361,2.05801 0.40349,-0.33601 -1.44994,-5.9958 -4.11874,-12.57731 z M 147.53662,717.32533 c 0.63722,-1.19606 3.44888,-4.57106 6.24813,-7.5 l 5.08955,-5.32533 -4.48543,6.0454 c -2.46699,3.32498 -5.27865,6.69998 -6.24813,7.5 -1.62584,1.34166 -1.67275,1.28574 -0.60412,-0.72007 z M 168.20547,692 c 0.99549,-1.1 2.03498,-2 2.30998,-2 0.275,0 -0.31449,0.9 -1.30998,2 -0.99549,1.1 -2.03498,2 -2.30998,2 -0.275,0 0.31449,-0.9 1.30998,-2 z m 18.29784,-22.5 c 0.57346,-1.1 3.35756,-4.475 6.18689,-7.5 l 5.14424,-5.5 -5.17669,6.5 c -6.18988,7.77219 -7.58682,9.24757 -6.15444,6.5 z m 42.86565,-52.31849 c 3.74358,-5.03958 9.80982,-12.08699 8.764,-10.18151 -1.26071,2.297 -10.54393,14 -11.10528,14 -0.27238,0 0.7812,-1.71832 2.34128,-3.81849 z m 21.22174,-26.02032 c 1.11177,-1.56135 2.82129,-3.47385 3.79892,-4.25 0.97764,-0.77616 0.28583,0.50131 -1.53734,2.83881 -3.71226,4.75949 -5.39222,5.80776 -2.26158,1.41119 z M 233.2671,578.7748 c -3.5185,-8.11298 -3.81837,-18.9625 -0.61271,-22.16816 1.94689,-1.94689 2.12578,-1.9606 3.79711,-0.29094 1.43172,1.43028 1.72552,3.35356 1.59912,10.46825 -0.0852,4.79383 -0.17496,10.85355 -0.19953,13.46605 -0.0246,2.6125 -0.45857,4.75 -0.96444,4.75 -0.50586,0 -2.13466,-2.80134 -3.61955,-6.2252 z m 1.62391,-18.10313 c -0.85545,-1.76899 -1.04356,-1.05912 -1.01451,3.82833 0.0353,5.92928 0.0476,5.95487 1.05019,2.17167 0.69676,-2.6293 0.68559,-4.50849 -0.0357,-6 z M 267.77455,570.5 c -0.0113,-0.55 2.46728,-3.7 5.50796,-7 3.04069,-3.3 5.08505,-5.1 4.54303,-4 -1.35401,2.74791 -10.02555,12.23821 -10.05099,11 z m -20.41801,-5.99179 c -4.98123,-4.98123 -4.49332,-22.39249 0.63031,-22.4929 1.73434,-0.034 1.87156,3.15237 0.18875,4.38287 -1.49532,1.09341 -1.675,2.20159 -1.1211,6.91439 0.69656,5.92668 2.40005,10.68743 3.82417,10.68743 0.4687,0 2.21079,-2.8125 3.87133,-6.25 l 3.01915,-6.25 -0.55966,4.5 c -0.96867,7.78881 -6.12219,12.23897 -9.85295,8.50821 z m 201.46724,-8.31723 c -0.0756,-5.31283 0.24228,-8.08615 0.88169,-7.69098 1.13996,0.70453 1.13996,8.52004 0,13 -0.54744,2.15142 -0.79684,0.64972 -0.88169,-5.30902 z m -187.93857,-4.4744 C 257.6739,547.84719 255.41279,540.27049 255.59805,534 c 0.21946,-7.42811 1.70573,-13 3.46766,-13 0.86641,0 1.09192,2.03777 0.80232,7.25 l -0.40282,7.25 2.12626,-1.91054 c 2.83025,-2.54309 3.84642,-1.27075 2.15536,2.69871 -1.45605,3.41777 -1.58966,6.89735 -0.49774,12.96183 0.68975,3.83084 -0.33994,4.90527 -2.36388,2.46658 z m 24.82026,-3.54227 c 0,-0.45412 1.125,-1.88256 2.5,-3.17431 2.86454,-2.6911 3.2341,-2.05002 0.88499,1.53518 -1.57888,2.40968 -3.38499,3.28426 -3.38499,1.63913 z m 164.01531,-17.86529 c -0.008,-3.95504 0.43469,-7.4691 0.98469,-7.80902 1.31092,-0.81019 1.31092,11.4715 0,13.5 -0.67564,1.04548 -0.97401,-0.67898 -0.98469,-5.69098 z M 296.77831,535.5 c -0.005,-0.55 2.25382,-3.475 5.01972,-6.5 2.7659,-3.025 4.58972,-4.58836 4.05294,-3.47413 -1.30893,2.71703 -9.06104,11.23939 -9.07266,9.97413 z m 153.71578,-24.20031 c -0.75268,-2.87827 0.34358,-13.33602 1.33383,-12.72401 1.12068,0.69261 1.12147,11.49121 9.7e-4,13.25885 -0.6559,1.03473 -0.95577,0.91457 -1.3348,-0.53484 z m -133.78862,0.1713 c 0,-0.72563 13.05464,-16.47099 13.65627,-16.47099 1.17523,0 -0.37113,2.43492 -5.73347,9.028 -5.69104,6.99722 -7.9228,9.09382 -7.9228,7.44299 z M 336.73478,487.25 c 0.0429,-1.09759 6.03659,-7.51743 6.54436,-7.00966 0.55011,0.5501 -4.82206,7.67455 -5.82367,7.72322 -0.4125,0.02 -0.73681,-0.30106 -0.72069,-0.71356 z m 114.79637,-3.85164 C 450.90172,480.25561 451.88642,469 452.7908,469 c 1.20057,0 1.19139,14.71094 -0.01,15.45323 -0.50837,0.31419 -1.07087,-0.1605 -1.25,-1.05487 z M 351.39893,469.92252 c 1.91232,-3.25768 11.97111,-14.483 10.68354,-11.92252 -0.97563,1.94016 -11.46371,15 -12.04617,15 -0.24415,0 0.36904,-1.38487 1.36263,-3.07748 z m 18.26551,-21.7301 c 1.24257,-1.81916 2.52376,-3.04303 2.84709,-2.71969 0.32333,0.32333 -0.69331,1.81174 -2.25921,3.30757 l -2.84709,2.7197 2.25921,-3.30758 z m 13.04103,-16.12156 c 0,-0.88391 11.90439,-15.07086 12.6461,-15.07086 0.87781,0 -0.0249,1.34565 -5.65814,8.43449 -5.92762,7.45929 -6.98796,8.46628 -6.98796,6.63637 z m 23.78497,-28.58205 c 0.56638,-1.10615 2.08396,-2.90293 3.37241,-3.99284 2.2601,-1.91186 2.25508,-1.87624 -0.1424,1.01118 -3.98241,4.79624 -4.31751,5.10557 -3.23001,2.98166 z m 17.21503,-21.17883 c 0,-0.55 0.9,-1.81449 2,-2.80998 1.1,-0.99549 2,-1.35998 2,-0.80998 0,0.55 -0.9,1.81449 -2,2.80998 -1.1,0.99549 -2,1.35998 -2,0.80998 z m 16.04064,-19.43754 c 0.0537,-1.81301 5.73854,-8.42659 6.54772,-7.61741 0.68601,0.68601 -2.55867,5.64551 -5.04168,7.70623 -1.26802,1.05236 -1.53936,1.03636 -1.50604,-0.0888 z M 455.74938,742.25 c 0.0241,-3.7125 0.4778,-10.125 1.00811,-14.25 0.53031,-4.125 1.21236,-40.24134 1.51567,-80.25852 0.50241,-66.28731 0.40822,-72.81349 -1.059,-73.37652 -2.15059,-0.82526 -6.33162,3.19404 -7.36482,7.07994 -0.5166,1.94297 -1.37232,2.95878 -2.35072,2.79051 -1.59556,-0.27442 -4.49886,5.20197 -3.98385,7.51459 0.15311,0.6875 -0.11912,1.25 -0.60495,1.25 -1.10594,0 -2.76524,3.5377 -5.86294,12.5 -3.50234,10.13301 -4.1654,13.66828 -5.83778,31.12552 -2.61746,27.32252 -1.71757,46.95641 3.00401,65.54134 1.44886,5.70297 2.07678,6.77473 4.34305,7.4129 1.45712,0.41032 3.27919,0.63753 4.04903,0.50492 1.15357,-0.19872 1.30128,1.54541 0.83995,9.91768 -0.52426,9.51407 -0.38314,10.58206 2.2236,16.82822 4.85442,11.63193 5.19439,12.16942 7.69725,12.16942 2.21724,0 2.34177,-0.35268 2.38339,-6.75 z M 442.08521,696.54719 C 441.24416,694.35547 442.64079,684 443.77743,684 c 1.26086,0 1.18641,12.72228 -0.079,13.50437 -0.55389,0.34231 -1.27983,-0.0884 -1.6132,-0.95718 z M 443.80515,661.25 c 0.0548,-4.2625 0.41774,-8.875 0.80647,-10.25 l 0.70679,-2.5 0.68114,2.5 c 0.87356,3.20626 -0.30818,18 -1.43786,18 -0.47092,0 -0.81136,-3.4875 -0.75654,-7.75 z m 1.64193,-20.84172 C 444.34993,639.31112 444.54557,627 445.66016,627 c 0.52507,0 1.22276,1.4625 1.5504,3.25 0.67746,3.69593 -0.63952,11.28223 -1.76348,10.15828 z m 0.71577,-31.65875 c -0.35762,-0.93193 -0.40469,-3.61932 -0.10461,-5.97198 0.30008,-2.35265 0.57536,-5.62755 0.61173,-7.27755 0.12909,-5.85662 2.00487,-0.24297 2.00487,6 0,6.48533 -1.33111,10.32686 -2.51199,7.24953 z m -6.36787,103.93998 c -1.86836,-1.86836 -2.32668,0.069 -0.94473,3.99349 l 1.34411,3.817 0.3284,-3.37716 c 0.18062,-1.85743 -0.14688,-3.85243 -0.72778,-4.43333 z M 116.70547,697.91325 c 0,-2.82852 -3.04232,-10.15621 -5.14222,-12.38547 -1.83232,-1.94519 -1.8577,-1.92463 -1.8522,1.5 0.006,3.97807 1.7416,10.90619 3.1715,12.66278 1.34149,1.64797 3.82292,0.49433 3.82292,-1.77731 z M 466.71425,677 c 7.68647,-42.62564 11.15882,-67.05376 11.31571,-79.60657 0.13137,-10.51004 -0.0227,-11.42311 -2.86888,-17 -3.54307,-6.94247 -9.01577,-10.83328 -11.88656,-8.45074 -1.47184,1.22152 -1.62028,6.67995 -1.53569,56.46876 0.0931,54.80163 0.47229,66.03107 2.09558,62.06035 0.44336,-1.08449 1.73929,-7.1468 2.87984,-13.4718 z M 206.14971,468.49852 c 3.26934,-0.86586 10.24434,-3.69474 15.5,-6.28641 12.70938,-6.26722 18.26869,-11.88236 24.39221,-24.63721 8.24775,-17.17947 9.00957,-24.1373 5.09952,-46.5749 -1.84291,-10.57541 -0.5495,-17.05285 4.38316,-21.9511 1.41106,-1.40123 1.27953,-1.58144 -1.37968,-1.89017 -3.09648,-0.35951 -5.35372,-0.1176 -49.93945,5.35199 -15.4,1.8892 -35.33579,4.29544 -44.30175,5.34718 -8.96596,1.05174 -16.55945,2.16997 -16.87443,2.48494 -0.31498,0.31498 0.59648,1.96216 2.02545,3.66039 3.07803,3.65804 5.05262,10.23734 4.26074,14.19673 -0.31147,1.55733 -1.7661,5.36767 -3.23253,8.46744 -3.53503,7.47245 -4.29395,17.23298 -1.90761,24.53428 3.63471,11.12085 10.53266,23.61526 15.50642,28.08709 5.09786,4.58342 16.22332,9.60733 24.02371,10.84837 6.0116,0.95644 15.17056,0.28775 22.44424,-1.63862 z m 920.55579,-66.27534 c 0,-1.91946 -16.4448,-16.67313 -33.1747,-29.76319 -4.5789,-3.58267 -11.2002,-8.86431 -14.714,-11.73697 -3.5138,-2.87266 -10.3794,-7.47302 -15.2569,-10.22302 -20.3531,-11.47526 -41.7979,-29.61899 -54.1822,-45.84159 -8.2729,-10.83707 -19.26043,-31.32966 -24.67363,-46.01846 C 972.17977,224.65535 971.87287,224 968.47947,224 c -3.6241,0 -18.36,14.53702 -23.7072,23.38719 -2.6959,4.46205 -5.9513,9.04993 -7.2342,10.19531 -4.271,3.81304 -16.106,11.55744 -20.2465,13.24859 -9.0682,3.70376 -26.7264,14.40013 -25.5712,15.48955 0.2668,0.25158 6.3351,-0.16655 13.4851,-0.92919 7.15,-0.76264 18.0853,-1.64293 24.3007,-1.95621 6.2153,-0.31327 12.1778,-0.73852 13.25,-0.945 1.0721,-0.20647 1.9493,-0.0233 1.9493,0.407 0,0.43033 -5.5125,1.53785 -12.25,2.46117 -25.2388,3.45877 -33.7098,4.89765 -33.2465,5.64724 0.2622,0.4243 5.0937,3.3614 10.7366,6.5269 27.9643,15.68704 32.5708,18.59873 42.7571,27.02601 8.3384,6.89853 18.0379,12.92571 22.553,14.01414 1.6224,0.3911 4.7407,1.60914 6.9296,2.70673 5.2596,2.63741 20.50313,7.31726 28.02023,8.60233 3.3,0.56415 10.2506,1.74645 15.4458,2.62732 17.3081,2.9347 25.0041,6.36226 42.5542,18.95231 11.1241,7.98018 23.7813,15.10722 42.5,23.93092 6.875,3.24077 12.9275,6.27827 13.45,6.75 1.1841,1.06904 2.55,1.11236 2.55,0.0809 z M 316.20547,356.02487 c 10.45,-1.08592 22.375,-2.43346 26.5,-2.99452 4.125,-0.56106 13.575,-1.69063 21,-2.51016 15.68075,-1.73074 29.61205,-3.42082 32.56987,-3.95124 1.13844,-0.20415 5.18844,-0.7011 9,-1.10433 3.81157,-0.40324 7.60513,-0.85116 8.43013,-0.99539 0.825,-0.14424 4.31876,-0.58691 7.7639,-0.98372 3.44515,-0.39682 6.52065,-1.13691 6.83445,-1.64465 0.34486,-0.55798 -11.62671,-0.85554 -30.2639,-0.75221 -22.29742,0.12362 -31.98021,-0.17641 -34.97275,-1.08367 -5.68475,-1.72347 -26.01601,0.0606 -32.53497,2.85497 -2.56089,1.09772 -8.38412,3.00177 -12.9405,4.23122 -5.01544,1.35331 -9.09362,3.09738 -10.33528,4.41998 -2.8817,3.06952 -5.88228,4.47652 -9.73521,4.56493 -1.82366,0.0418 -4.89074,0.72038 -6.81574,1.50786 l -3.5,1.43178 5,-0.50823 c 2.75,-0.27952 13.55,-1.3967 24,-2.48262 z M 877.12202,224.64313 c -0.64292,-1.67542 -2.41655,-2.29424 -2.41655,-0.84313 0,0.97287 2.23095,3.30238 2.70687,2.82646 0.18711,-0.18711 0.0565,-1.07961 -0.29032,-1.98333 z M 1283.7055,1316.9686 c 0,-0.5327 0.675,-0.9686 1.5,-0.9686 0.825,0 1.5,0.1769 1.5,0.393 0,0.2162 -0.675,0.652 -1.5,0.9686 -0.825,0.3166 -1.5,0.1398 -1.5,-0.393 z m -255.6109,-37.9729 c -2.4861,-0.9756 -3.6711,-3.532 -2.8444,-6.1366 0.8456,-2.6643 1.8503,-2.3003 3.1492,1.1409 1.4122,3.7412 4.1263,3.9071 7.5707,0.4627 4.9575,-4.9575 4.2026,-10.0846 -2.101,-14.2701 l -2.2695,-1.5069 0.3029,6.4072 c 0.2442,5.1632 0.012,6.4071 -1.197,6.4071 -1.5939,0 -2.8108,-6.3761 -3.414,-17.8887 -0.3719,-7.0983 1.444,-9.6113 6.9454,-9.6113 4.3991,0 5.2131,1.7674 3.5969,7.81 -1.1375,4.253 -1.0652,4.6464 1.3086,7.1242 1.382,1.4424 3.0083,4.0444 3.6141,5.7823 2.5831,7.4099 -7.3973,17.1297 -14.6619,14.2792 z m 5.0852,-25.946 c 1.9507,-3.7722 1.9626,-7.0497 0.026,-7.0497 -1.5516,0 -1.6026,0.093 -1.9846,3.614 -0.1261,1.1627 -0.5452,2.6252 -0.9314,3.25 -0.6475,1.0477 -0.015,3.136 0.9493,3.136 0.2285,0 1.1019,-1.3277 1.941,-2.9503 z m -27.4743,-1.4907 c 0,-1.8925 0.45,-3.7191 1,-4.059 0.55,-0.3399 1.0061,-2.729 1.0137,-5.309 0.033,-11.3637 3.1342,-12.1847 4.2021,-1.1125 1.0255,10.6329 1.0187,10.934 -0.2821,12.5014 -0.6482,0.7811 -2.2485,1.4201 -3.5561,1.4201 -2.0428,0 -2.3776,-0.4845 -2.3776,-3.441 z m -125.76532,-22.5571 c -0.0629,-7.1489 -0.39296,-13.4489 -0.73353,-14 -0.34057,-0.551 -0.14266,-1.0019 0.4398,-1.0019 0.58246,0 0.94652,-0.5062 0.80902,-1.125 -0.1375,-0.6187 0.22129,-1.3008 0.79732,-1.5158 0.65978,-0.2461 0.94889,1.3727 0.78134,4.375 -0.14629,2.6212 -0.26961,9.6033 -0.27403,15.5158 -0.004,5.9125 -0.39001,10.75 -0.85683,10.75 -0.46683,0 -0.90022,-5.8491 -0.96309,-12.9981 z M 1009.7055,1210.5 c 0,-2.7225 0.3974,-4.3725 0.9681,-4.0197 1.1631,0.7188 1.055,7.3874 -0.1317,8.1208 -0.46,0.2843 -0.8364,-1.5612 -0.8364,-4.1011 z m 70.3431,-2.5688 c -3.3326,-1.2328 -3.8431,-2.8177 -3.8431,-11.9312 l 0,-8.5 -3.3767,-0.3228 c -3.0868,-0.2951 -3.3287,-0.1234 -2.8183,2 2.369,9.8543 1.8674,12.2037 -2.3689,11.0958 -1.9547,-0.5111 -5.2438,-9.1715 -6.448,-16.9779 -0.833,-5.4001 1.1397,-14.9229 3.6014,-17.3846 2.3874,-2.3874 4.0722,-2.4099 6.934,-0.092 2.4534,1.9866 2.8718,5.1141 1.596,11.932 -0.7697,4.1134 -0.7118,4.25 1.8024,4.25 4.4423,0 6.0219,3.0674 6.5781,12.7737 l 0.5,8.7263 3.4138,0 c 3.3978,0 5.1749,1.7091 3.1064,2.9875 -2.3975,1.4817 -6.658,2.1906 -8.6771,1.4437 z m -25.5362,-6.1523 c -1.3626,-1.0533 -1.7121,-3.6607 -1.9807,-14.7789 l -0.3262,-13.5 2.4281,0 c 3.1967,0 3.7606,2.2959 4.2124,17.149 0.3032,9.971 0.1217,11.8673 -1.1598,12.1151 -0.8357,0.1615 -2.2639,-0.2818 -3.1738,-0.9852 z m -42.7916,-21.5879 c -0.01,-3.2882 0.3653,-5.0738 0.9847,-4.691 1.2739,0.7873 1.2739,6.5288 0,8.5 -0.6932,1.0727 -0.9737,-0.012 -0.9847,-3.809 z m 24.7347,-5.583 c -2.1729,-1.6495 -2.2593,-4.5151 -0.1818,-6.0342 1.0009,-0.7319 1.6673,-3.0359 1.8422,-6.3691 0.5292,-10.0882 3.1008,-8.0703 3.8875,3.0506 0.4311,6.0932 0.2283,8.0756 -0.946,9.25 -1.8053,1.8053 -2.3432,1.8173 -4.6019,0.1027 z m -576.67974,-5.658 c 0.0884,-3.0822 1.70461,-7.1337 1.97458,-4.95 0.32062,2.5935 -0.1828,5.4636 -1.13133,6.45 -0.56083,0.5832 -0.8864,0 -0.84325,-1.5 z m 725.91074,-9.4729 c -1.0568,-1.2733 -0.9949,-1.4197 0.3776,-0.893 0.9028,0.3464 1.6414,1.0317 1.6414,1.5229 0,1.2859 -0.5789,1.1054 -2.019,-0.6299 z M 1012.7055,1151 c 0,-1.824 0.415,-2.8615 1,-2.5 0.55,0.3399 1,1.4649 1,2.5 0,1.0351 -0.45,2.1601 -1,2.5 -0.585,0.3615 -1,-0.676 -1,-2.5 z m 26.6765,-11.4008 c -0.3241,-0.8443 -0.1899,-1.7819 0.2981,-2.0835 1.3075,-0.8081 2.4162,1.4935 1.2711,2.6386 -0.6402,0.6402 -1.1845,0.4476 -1.5692,-0.5551 z m -25.1127,-20.7843 c -0.7798,-3.771 0.034,-6.6522 1.4549,-5.152 0.4362,0.4604 0.4587,2.6371 0.05,4.8371 l -0.743,4 -0.762,-3.6851 z M 1040.9375,1117 c 0,-1.925 0.2058,-2.7125 0.4573,-1.75 0.2516,0.9625 0.2516,2.5375 0,3.5 -0.2515,0.9625 -0.4573,0.175 -0.4573,-1.75 z m 365.218,-22.0809 c -1.4569,-2.3573 -3.3805,-12.7457 -3.4106,-18.4191 -0.044,-8.1963 2.5121,-12.5 7.4228,-12.5 2.7254,0 3.8693,0.6035 5.2121,2.75 0.9462,1.5125 1.8275,2.9084 1.9584,3.102 0.1309,0.1936 1.2672,-0.3689 2.5251,-1.25 3.254,-2.2792 7.2877,-1.983 10.4883,0.77 3.5286,3.0352 3.5214,7.3905 -0.024,14.3867 -2.8137,5.5525 -5.8358,8.2413 -9.263,8.2413 -4.3055,0 -5.3563,-1.0367 -5.4296,-5.357 -0.039,-2.2786 -0.3891,-4.9507 -0.7788,-5.9378 -0.625,-1.5832 -0.9704,-1.4406 -2.9297,1.2095 -1.6662,2.2536 -2.2212,4.3888 -2.2212,8.5448 0,4.1574 -0.3597,5.5405 -1.441,5.5405 -0.7925,0 -1.7416,-0.4864 -2.109,-1.0809 z m 19.9636,-11.6691 c 3.6581,-5.6175 3.7972,-9.5316 0.4034,-11.3479 -3.3385,-1.7867 -5.817,1.8528 -5.817,8.542 0,7.8032 1.6145,8.64 5.4136,2.8059 z m -15.8626,-8.7179 c 1.7292,-4.1385 1.8916,-7.8463 0.3207,-7.3227 -1.5803,0.5268 -4.2061,7.4769 -3.5101,9.2906 0.875,2.2803 1.6018,1.8318 3.1894,-1.9679 z m 29.4796,18.9679 c 0,-0.55 0.4362,-1.675 0.9694,-2.5 0.5332,-0.825 0.9694,-1.05 0.9694,-0.5 0,0.55 -0.4362,1.675 -0.9694,2.5 -0.5332,0.825 -0.9694,1.05 -0.9694,0.5 z m -424.0153,-4.309 c -0.01,-2.6214 0.3764,-4.067 0.9847,-3.691 1.2685,0.784 1.2685,4.5371 0,6.5 -0.7088,1.0967 -0.9735,0.3416 -0.9847,-2.809 z m 26.055,-2 c -0.044,-3.9676 0.3008,-6.0797 0.9297,-5.691 1.2021,0.743 1.2021,7.2025 0,10 -0.6063,1.411 -0.8801,0.142 -0.9297,-4.309 z m 398.069,-6.441 c -0.5586,-1.7875 -1.3174,-8.0154 -1.686,-13.8398 -0.5541,-8.7524 -0.3883,-11.1351 0.9551,-13.7331 1.7197,-3.3255 6.1246,-6.1771 9.5419,-6.1771 2.9084,0 2.5535,1.098 -1.3653,4.2248 -3.1602,2.5215 -5.6119,8.0816 -4.1904,9.5032 0.3218,0.3217 2.3942,-0.2309 4.6054,-1.228 2.2112,-0.9971 4.3018,-1.5316 4.6457,-1.1877 1.1696,1.1697 -2.7819,5.8392 -5.8449,6.907 l -3.051,1.0636 0.6528,7.2045 c 0.3591,3.9624 0.3673,7.9488 0.018,8.8585 -1.0344,2.6956 -3.1915,1.8916 -4.2815,-1.5959 z m 33.5421,-21.1134 c -1.5138,-2.3104 -1.5352,-2.6366 -0.1731,-2.6366 1.6811,0 2.9191,2.2179 2.2905,4.1036 -0.2144,0.6432 -1.1672,-0.017 -2.1174,-1.467 z m -456.9962,-0.337 c -0.3107,-0.5026 -0.4014,-1.7882 -0.2015,-2.8567 0.1998,-1.0686 0.3977,-3.207 0.4398,-4.7519 0.1147,-4.2103 2.0791,-2.1917 2.0612,2.118 -0.016,3.882 -1.34,7.0431 -2.2995,5.4906 z m 26.3148,-6.7406 c 0,-1.4074 0.45,-2.559 1,-2.559 0.55,0 1,0.8734 1,1.941 0,1.0675 -0.45,2.2191 -1,2.559 -0.5672,0.3505 -1,-0.4896 -1,-1.941 z m 101.5298,-4.5108 c -1.0038,-1.6242 -0.085,-2.3137 3.6245,-2.7198 1.7392,-0.1904 3.6535,-0.7298 4.254,-1.1985 0.6004,-0.4688 2.8294,-1.1197 4.9533,-1.4464 3.7031,-0.5696 12.393,-5.5924 21.3684,-12.3508 2.3265,-1.7519 5.2515,-3.4957 6.5,-3.8752 2.2102,-0.6717 12.9909,-9.2389 15.5446,-12.3528 2.3698,-2.8897 5.1321,-14.53519 6.7851,-28.6047 2.6704,-22.7296 0.7324,-38.65781 -5.8714,-48.25461 -1.4175,-2.05996 -4.0412,-7.34539 -5.8305,-11.74539 l -3.2533,-8 0.1803,-17.5 c 0.3451,-33.49749 1.7868,-42.3705 9.1802,-56.5 12.6422,-24.16039 13.1627,-24.97818 20.3673,-32 7.3416,-7.15536 9.9481,-8.65636 40.6677,-23.41926 4.675,-2.24667 10.3,-5.40795 12.5,-7.02508 2.2,-1.61713 6.3721,-4.14972 9.2713,-5.62798 2.8993,-1.47825 5.5176,-3.08604 5.8184,-3.57286 0.7232,-1.17006 6.0822,-3.35982 10.2196,-4.17585 10.0223,-1.9767 24.461,-14.66716 33.1986,-29.17897 2.9804,-4.95 7.2776,-11.7 9.5493,-15 4.8124,-6.99078 9.6755,-16.89796 11.7809,-24 3.3524,-11.30866 5.6931,-21.43308 6.6284,-28.67033 1.1186,-8.65602 1.5293,-34.21842 0.5746,-35.76323 -0.3435,-0.5558 -1.0616,-4.85623 -1.5957,-9.55651 -1.2787,-11.25351 -4.4505,-20.63836 -9.4665,-28.00993 -2.2455,-3.3 -5.6103,-8.7 -7.4775,-12 -7.5797,-13.39669 -22.7948,-29.91962 -35.0014,-38.01006 -3.575,-2.36947 -8.3,-6.03684 -10.5,-8.14972 -2.2,-2.11287 -6.1268,-5.5501 -8.7261,-7.63828 -2.5994,-2.08819 -12.2744,-11.00729 -21.5,-19.82023 -9.2257,-8.81295 -21.2322,-19.47913 -26.6812,-23.70262 -29.5648,-22.91551 -41.2015,-33.00467 -50.3865,-43.68586 -10.2465,-11.91559 -47.3702,-49.95621 -70.2695,-72.00522 -24.3701,-23.46517 -40.7625,-43.08073 -45.0639,-53.92481 -2.4684,-6.22304 -14.9817,-26.26369 -20.3323,-32.5632 -20.4805,-24.11271 -27.6356,-34.16751 -30.8314,-43.32649 -8.6202,-24.70488 -11.7591,-38.50989 -11.8734,-52.22049 -0.094,-11.27741 0.2874,-13.78931 3.713,-24.45302 2.2785,-7.09298 7.1123,-29.80658 9.3669,-44.01499 2.6788,-16.88109 2.1539,-52.113298 -0.9979,-66.98501 -0.5246,-2.475 -1.0165,-6.525 -1.0932,-9 -0.077,-2.475 -1.2347,-7.425 -2.5733,-11 -1.6793,-4.484813 -2.7143,-10.065331 -3.3383,-18 -0.4974,-6.325 -1.1838,-12.7375 -1.5252,-14.25 -0.5177,-2.29316565 -0.2873,-2.75 1.3873,-2.75 2.525,0 3.1039,2.205932 4.2368,16.145345 0.6273,7.718251 1.7146,13.085211 3.8592,19.050121 1.6422,4.567494 4.7984,13.335493 7.0137,19.484443 4.3088,11.959802 6.0293,20.637148 4.3034,21.703825 -0.5968,0.368853 -1.8569,-1.589287 -2.9743,-4.621866 C 1032.853,68.86784 1031.7107,65.825 1031.3809,65 c -0.3298,-0.825 -0.2792,3 0.1125,8.5 1.0134,14.231583 0.6745,38.61489 -0.6673,48 -2.0687,14.46952 -7.0447,38.01544 -9.738,46.07951 -3.2565,9.75051 -4.3113,25.98618 -2.3917,36.81465 1.8669,10.53111 10.7427,39.43325 13.6984,44.60584 1.4143,2.475 3.839,5.85 5.3882,7.5 1.5493,1.65 5.4282,6.42107 8.6197,10.60239 3.1915,4.18131 9.0527,11.38131 13.0248,16 6.8635,7.98086 16.3997,22.7219 20.3115,31.39761 4.3552,9.65912 12.4128,20.26913 28.1969,37.12918 9.2018,9.82895 19.4977,20.34582 22.8799,23.37082 10.3996,9.30136 34.5359,33.76166 52.3897,53.09308 25.3832,27.48391 31.5874,33.09343 60.1744,54.40692 5.9015,4.4 17.7311,14.75 26.2879,23 17.6148,16.98336 36.0343,32.9578 45.2817,39.27103 9.3621,6.39156 22.0777,19.59285 28.6351,29.72897 14.3422,22.16921 17.19,27.08022 17.756,30.61935 0.4557,2.84975 1.1246,3.84714 2.7341,4.07672 2.8506,0.4066 3.4098,5.46684 3.5146,31.80393 0.096,24.11762 -0.8836,34.91507 -4.4013,48.51589 -4.014,15.51917 -6.2958,21.0316 -14.2746,34.48411 -14.3192,24.14278 -25.8833,37.46788 -37.9109,43.68419 -4.2884,2.21635 -9.3296,4.32186 -11.2028,4.67892 -1.8731,0.35706 -5.6981,2.16064 -8.5,4.00796 -2.8018,1.84732 -6.6692,4.15278 -8.5942,5.12324 -1.925,0.97046 -5.525,3.21277 -8,4.9829 -4.9783,3.56052 -7.6956,5.00444 -29.5,15.67571 -20.6619,10.11211 -25.4741,14.78553 -35.8823,34.84708 -11.0013,21.20486 -12.6119,27.98022 -12.6152,53.06634 0,10.76149 0.4872,22.21552 1.0858,25.4534 1.1034,5.96906 4.6991,14.02308 9.1938,20.59326 7.0271,10.27193 9.0769,25.88132 6.3541,48.387 -1.6073,13.28579 -4.5307,25.3923 -6.8429,28.3388 -0.7113,0.9065 -2.4129,2.5511 -3.7814,3.6547 -1.3684,1.1036 -4.3222,3.8065 -6.5639,6.0065 -2.2417,2.2 -6.5221,5.3111 -9.5119,6.9136 -2.9899,1.6025 -6.8712,4.0775 -8.6252,5.5 -9.1873,7.451 -13.7439,10.3239 -18.5297,11.6829 -7.8491,2.2289 -14.3865,2.8512 -15.2514,1.4517 z m -126.4664,-22.8572 c -0.042,-4.8273 0.2903,-7.0904 0.9783,-6.6652 1.1579,0.7156 1.0607,8.8559 -0.1429,11.9742 -0.4812,1.2467 -0.7959,-0.7531 -0.8354,-5.309 z m 26.1097,1.309 c -0.2269,-3.3685 1.0036,-4.6412 2.362,-2.4432 0.7933,1.2836 -0.2649,5.9432 -1.3498,5.9432 -0.4271,0 -0.8826,-1.575 -1.0122,-3.5 z m -879.19788,-23.0651 c -1.25278,-3.2951 -1.30102,-11.17324 -0.0605,-9.8849 1.08203,1.12376 2.60653,12.45 1.67575,12.45 -0.35198,0 -1.07883,-1.1543 -1.61522,-2.5651 z m 881.09508,-3.74392 c -0.044,-3.63415 0.3041,-5.57762 0.9297,-5.19098 1.2002,0.74179 1.2002,6.2069 0,9 -0.617,1.4357 -0.8793,0.3611 -0.9297,-3.80902 z M 1018.776,992.25 c -0.039,-2.8875 0.3314,-5.25 0.8225,-5.25 1.7263,0 2.008,2.98122 0.6351,6.72128 l -1.3872,3.77872 -0.07,-5.25 z m 27.9448,-25 c -0.01,-3.51021 0.4231,-6.25 0.9847,-6.25 1.2807,0 1.2807,9.01829 0,11 -0.6831,1.05704 -0.9739,-0.34568 -0.9847,-4.75 z M 160.00212,966.5 c -0.62541,-2.2 -1.44766,-6.41655 -1.82724,-9.37012 -0.55254,-4.29948 -0.41891,-5.27988 0.67023,-4.9175 1.46633,0.48788 3.11339,10.18226 2.59735,15.28762 -0.29763,2.94455 -0.32425,2.92606 -1.44034,-1 z M 1020.8478,952 c -0.06,-4.77617 0.1834,-6.04556 0.9174,-4.78646 0.642,1.10131 0.6711,3.42368 0.081,6.5 l -0.9174,4.78646 -0.081,-6.5 z m 26.8577,-12.3 c 0,-4.61049 0.3127,-5.7 1.6359,-5.7 1.3744,0 1.5327,0.75298 0.9904,4.7096 -0.98,7.14988 -2.6263,7.77072 -2.6263,0.9904 z m 73,2.3 c -2.4747,-2.4747 -2.4735,-2.60898 0.1085,-12.17798 1.1597,-4.2978 1.8488,-8.49095 1.5314,-9.3181 -0.36,-0.93805 -1.8805,-1.50392 -4.0411,-1.50392 -4.4262,0 -5.2025,2.15184 -3.0566,8.47245 1.7608,5.18655 1.403,7.52755 -1.1506,7.52755 -1.9209,0 -3.5761,-1.88199 -6.5148,-7.40749 -4.9417,-9.2918 -6.8244,-24.06077 -3.8361,-30.09251 1.3182,-2.66073 1.9891,-3 5.9329,-3 3.9406,0 4.7074,0.38677 6.7366,3.39788 1.7607,2.61277 2.2922,4.80784 2.3,9.5 l 0.01,6.10212 3.9477,1.65771 c 5.0487,2.12011 5.6681,4.53649 3.7838,14.76139 -0.804,4.36262 -1.1194,8.48616 -0.7008,9.1634 0.595,0.96275 2.0177,0.97898 6.5218,0.0744 7.314,-1.46886 7.4272,-1.46285 7.4272,0.3941 0,4.15542 -15.319,6.12994 -19,2.44897 z m -7,-37.06868 c 0,-2.94577 -0.5571,-5.14882 -1.5,-5.93132 -3.9526,-3.28035 -6.2814,6.35161 -2.8149,11.64222 1.5857,2.42003 1.7628,2.4657 3,0.77369 0.7232,-0.98899 1.3149,-3.90706 1.3149,-6.48459 z m -28,30.06868 c -2.1404,-2.14041 -2.3452,-2.93689 -1.393,-5.41821 0.8912,-2.32235 2.0888,-1.93013 2.8036,0.91821 0.3839,1.52924 1.3393,2.5 2.4606,2.5 2.8453,0 8.5936,-4.32516 8.9409,-6.7274 0.2604,-1.8013 -0.319,-2.26655 -3.5,-2.81027 -15.0975,-2.58056 -18.7354,-7.13878 -12.7439,-15.96775 4.5144,-6.65226 8.5953,-9.17233 13.0449,-8.05556 2.6902,0.6752 2.3397,2.56098 -0.476,2.56098 -2.2095,0 -7.6812,5.616 -9.0759,9.31547 -0.715,1.89648 -0.7354,3.42482 -0.062,4.68228 1.0982,2.05209 1.8174,2.33229 10.3073,4.01593 4.8179,0.95544 5.9745,1.5942 6.7952,3.75274 3.0578,8.04261 -11.035,17.29992 -17.1013,11.23358 z m -22.4785,-3.62138 c -2.5291,-2.52907 -1.4821,-4.83291 2.3638,-5.20146 4.5643,-0.43739 5.8578,1.03978 3.7403,4.27149 -1.9291,2.94414 -3.8043,3.22983 -6.1041,0.92997 z M 155.53592,929.87785 C 154.08164,926.35454 153.46463,919 154.62331,919 c 0.62971,0 1.38272,0.61968 1.67336,1.37706 0.78587,2.04796 0.0348,11.42815 -0.76075,9.50079 z M 168.43194,929.25 c -5.64867,-6.24258 -8.22532,-21.83132 -4.32148,-26.14501 4.96624,-5.48763 8.36182,-0.17215 6.54707,10.24888 -0.98732,5.66963 -0.92099,7.26652 0.44349,10.67668 0.88245,2.20546 1.60445,4.67582 1.60445,5.48969 0,2.01394 -2.34059,1.86594 -4.27353,-0.27024 z m -1.78986,-19 c -0.0555,-4.16269 -0.18556,-4.4438 -1.05156,-2.27351 -0.911,2.2831 -0.4831,7.02351 0.634,7.02351 0.26452,0 0.45243,-2.1375 0.41756,-4.75 z m 883.81562,18.59783 c 0.8395,-0.83952 2.3184,-0.87211 5.45,-0.12009 l 4.2978,1.03208 -5.45,0.12009 c -4.1132,0.0906 -5.1674,-0.16252 -4.2978,-1.03208 z M 1024.2055,928 c 0.7381,-1.19429 4.2207,-1.19429 7,0 1.5002,0.64466 0.7982,0.87699 -2.809,0.92971 -2.9671,0.0434 -4.5723,-0.31272 -4.191,-0.92971 z m -32.00003,-1.06024 c -2.6206,-1.04718 11.94113,-0.9781 16.00003,0.0759 2.0878,0.54216 0.4154,0.77056 -5.5,0.75116 -4.67503,-0.0153 -9.40003,-0.38751 -10.50003,-0.82706 z m 29.60493,-5.15838 c -0.087,-5.58767 0.1476,-6.62172 1.3951,-6.14301 1.7989,0.69031 1.8077,3.46175 0.028,8.86163 l -1.3183,4 -0.1048,-6.71862 z m -56.35493,3.49522 c 1.7875,-0.22182 4.7125,-0.22182 6.5,0 1.7875,0.22183 0.325,0.40333 -3.25,0.40333 -3.575,0 -5.0375,-0.1815 -3.25,-0.40333 z M 927.20547,924 c -0.7256,-1.17407 11.386,-1.17407 16,0 2.081,0.52952 0.1844,0.79962 -6.191,0.88169 -5.1837,0.0667 -9.4604,-0.31768 -9.809,-0.88169 z m -29.2679,-1.71453 c 1.5026,-0.22817 4.2026,-0.23276 6,-0.0102 1.7973,0.22256 0.5679,0.40925 -2.7321,0.41486 -3.3,0.006 -4.7706,-0.17648 -3.2679,-0.40466 z M 175.32333,912.23259 c -1.3287,-2.62207 -2.73238,-7.30098 -3.11927,-10.39757 -0.61633,-4.93292 -0.44307,-5.89054 1.39898,-7.73259 4.67527,-4.67527 8.10243,-1.54101 8.10243,7.40998 0,3.50326 0.35742,6.59045 0.79426,6.86043 0.43684,0.26999 2.68684,-0.35646 5,-1.39209 2.31316,-1.03563 4.20574,-1.49497 4.20574,-1.02075 0,1.68099 -6.18974,6.04 -8.57673,6.04 -1.91815,0 -2.42327,0.52111 -2.42327,2.5 0,4.08661 -2.74922,2.9284 -5.38214,-2.26741 z m 2.68905,-15.54502 c -1.20598,-1.95132 -2.46805,1.29319 -1.73627,4.46359 l 0.77296,3.34884 0.74798,-3.47529 c 0.41139,-1.91141 0.50829,-3.86312 0.21533,-4.33714 z m 14.64433,12.93408 c -0.24818,-0.24613 -0.31266,-5.86255 -0.14328,-12.48095 0.35019,-13.68356 1.34359,-14.72195 5.75528,-6.01591 1.35875,2.68137 2.91287,4.87521 3.45361,4.87521 2.09618,0 0.83899,4.25042 -1.95177,6.59869 -1.61421,1.35827 -3.07671,3.46212 -3.25,4.67523 -0.28411,1.98882 -2.72824,3.47391 -3.86384,2.34773 z M 1049.8238,904.75 c -0.067,-3.24554 0.3173,-5.75 0.8817,-5.75 1.1343,0 1.1343,4.04238 0,8.5 -0.6283,2.46904 -0.7843,1.98233 -0.8817,-2.75 z m -898.296,-5.25 c -1.40275,-4.13995 -2.02823,-12.5 -0.93522,-12.5 1.52206,0 2.28937,3.81275 1.92518,9.56627 -0.21052,3.32589 -0.53313,4.28196 -0.98996,2.93373 z m 872.3185,-9.30902 c -0.091,-7.31885 0.212,-11.09095 0.8592,-10.69098 1.1411,0.70526 1.1607,8.40675 0.042,16.5 -0.6509,4.70828 -0.7806,3.87209 -0.9011,-5.80902 z M 1050.8052,876.25 c -0.057,-3.56645 0.3297,-6.25 0.9003,-6.25 1.1646,0 1.1646,6.36339 0,10 -0.595,1.85794 -0.8262,0.89485 -0.9003,-3.75 z M 147.29916,866.1516 C 146.08375,864.18502 145.38998,853 146.48342,853 c 0.58457,0 1.37829,2.94539 1.76381,6.54532 0.6742,6.29566 0.33232,8.67799 -0.94807,6.60628 z m 868.40634,-13.95856 c 0,-0.44383 -1.2375,-1.29595 -2.75,-1.89362 l -2.75,-1.08666 2.6826,-0.10638 c 1.7725,-0.0703 2.9043,-0.80467 3.3359,-2.16468 0.9661,-3.04377 4.8925,-2.20681 5.2803,1.12556 0.2267,1.9482 -0.3272,2.85245 -2.2971,3.75 -3.0705,1.39902 -3.5017,1.44529 -3.5017,0.37578 z m 9.4236,-2.69304 c 0.3049,-2.2 0.5593,-5.93906 0.5654,-8.30902 0.01,-2.84145 0.3806,-4.08059 1.0962,-3.63831 1.2548,0.77551 0.2713,12.03771 -1.2616,14.44733 -0.6545,1.02868 -0.7801,0.24314 -0.4,-2.5 z m 27.3529,-3.75 c 0.5428,-7.00505 0.9844,-7.60312 1.1075,-1.5 0.064,3.1625 -0.2334,5.75 -0.6604,5.75 -0.4271,0 -0.6283,-1.9125 -0.4471,-4.25 z M 970.70547,848 c 0,-1.13572 3.9867,-1.14964 12,-0.0419 5.284,0.73044 5.1563,0.76583 -3.25,0.9011 -5.2605,0.0847 -8.75,-0.258 -8.75,-0.8592 z m -30.5,-1 c -2.692,-1.1568 5.4787,-1.19941 11,-0.0574 3.7151,0.76844 3.537,0.83056 -2.5,0.87209 -3.575,0.0246 -7.4,-0.34203 -8.5,-0.81472 z m -36.7236,-1.7335 c 2.3521,-0.21124 5.9521,-0.20827 8,0.007 2.048,0.21487 0.1236,0.38771 -4.2764,0.38408 -4.4,-0.004 -6.0756,-0.17944 -3.7236,-0.39069 z m 122.31083,-15.53702 c -0.5946,-1.56398 -0.5941,-6.52493 0,-13.35869 1.2055,-13.83739 1.3654,-14.48935 4.3397,-17.69873 6.7435,-7.27634 14.4864,1.27695 16.1877,17.8818 0.6683,6.52346 -6e-4,11.44614 -1.5554,11.44614 -0.4958,0 -1.2188,-1.4625 -1.6066,-3.25 -0.8971,-4.13508 -1.2394,-4.31951 -7.2575,-3.91024 l -4.9961,0.33977 -0.6491,4.32846 c -0.8391,5.59508 -3.1211,7.75322 -4.4639,4.22149 z m 15.051,-13.48908 c 1.6447,-1.69348 -2.3014,-15.15944 -4.6669,-15.92614 -1.8778,-0.60861 -4.667,5.75262 -5.2262,11.91923 l -0.5513,6.08033 4.8627,-0.66651 c 2.6745,-0.36658 5.1863,-0.99969 5.5817,-1.40691 z M 141.87188,823.25 c -0.64879,-4.2625 -1.14813,-9.325 -1.10963,-11.25 0.065,-3.25232 0.13777,-3.33057 1.02775,-1.10573 1.022,2.55486 2.53935,20.10573 1.73823,20.10573 -0.2622,0 -1.00755,-3.4875 -1.65635,-7.75 z m 911.83362,-6.58333 c 0,-4.47989 0.4186,-7.66667 1.007,-7.66667 0.9169,0 0.3193,13.80321 -0.6458,14.91667 -0.1987,0.22916 -0.3612,-3.03334 -0.3612,-7.25 z M 138.35355,792.32151 c -1.40857,-7.32943 -1.82204,-13.54706 -0.86139,-12.95335 0.55524,0.34317 1.32873,3.80236 1.71886,7.68711 0.7129,7.09877 0.15417,10.53025 -0.85747,5.26624 z M 1208.7675,759.66319 c -0.5567,-1.46437 -1.5496,-5.57897 -2.2064,-9.14356 C 1204.9738,741.9049 1206.1477,739 1211.2163,739 c 4.2349,0 5.8151,2.7666 4.2101,7.37088 -0.9418,2.70168 -0.6684,3.18229 4.3873,7.71189 7.0463,6.31299 4.8062,6.2861 -3.5552,-0.0427 -6.9921,-5.29224 -7.5425,-5.07491 -5.3851,2.126 0.8686,2.89922 0.8782,4.18786 0.037,5.02886 -0.841,0.84099 -1.3902,0.44848 -2.1431,-1.53175 z m 3.5636,-14.21454 c 1.1984,-1.82898 1.3655,-2.85753 0.5903,-3.63278 -1.8598,-1.8598 -4.2159,-0.0979 -4.2159,3.15275 0,3.70161 1.3938,3.88615 3.6256,0.48003 z m 16.5487,12.2369 c -2.3675,-2.52008 -2.712,-5.14098 -1.1991,-9.12045 1.2798,-3.36605 4.4898,-3.55379 3.6514,-0.21356 -0.7536,3.00257 0.1186,3.85517 2.5905,2.53226 3.0932,-1.65542 3.1718,-0.32532 0.1465,2.47984 -3.4254,3.17628 -2.3475,4.64876 1.6672,2.27726 3.5364,-2.08905 3.9028,-0.86661 0.6547,2.18479 -2.9586,2.77951 -4.8006,2.74515 -7.5112,-0.14014 z m 18.3592,-2.99412 c -3.4783,-5.30845 -3.8092,-22.63904 -0.4727,-24.7502 1.9383,-1.22643 7.6696,-1.18652 8.4392,0.0588 1.0575,1.71105 -0.5065,3.23952 -2.0251,1.97916 -2.4381,-2.0234 -5.6445,0.60889 -5.2833,4.33728 0.3389,3.49892 0.832,3.626 8.685,2.23836 5.6446,-0.99743 4.783,0.8049 -1.7167,3.59098 -5.6754,2.43275 -6.1226,3.11443 -5.0555,7.70578 1.6739,7.20265 0.4665,9.47562 -2.5709,4.83987 z m -20.5335,-10.55074 c 0,-0.7029 11.7232,-5.14069 13.58,-5.14069 1.4389,0 -1.1357,2.24283 -4.608,4.01429 -3.9896,2.03532 -8.972,2.66085 -8.972,1.1264 z m -92.5238,-113.80736 c -0.681,-0.68095 -1.442,-1.03419 -1.6912,-0.78499 -0.604,0.60401 -5.785,-5.25288 -5.785,-6.53968 0,-1.54968 3.5997,-1.19595 5,0.49134 1.4318,1.72526 4,2.00839 4,0.44098 0,-0.58246 0.4078,-0.80701 0.9061,-0.499 0.4984,0.30801 0.69,1.57206 0.4258,2.80902 -0.4683,2.19281 -0.441,2.2005 1.0939,0.30787 1.5026,-1.85287 1.5742,-1.78305 1.5742,1.53571 0,2.88745 -0.3633,3.47685 -2.1429,3.47685 -1.1785,0 -2.7,-0.55714 -3.3809,-1.2381 z M 1109.0671,625.5 c 0.6488,-1.69071 -1.8641,-2.11397 -2.8717,-0.48369 -0.9631,1.55843 -2.3613,0.20792 -1.8417,-1.77897 0.7553,-2.8882 6.0894,-8.48125 6.6915,-7.01633 0.3295,0.80166 0.7809,0.43927 1.2096,-0.97101 0.3762,-1.2375 1.0674,-2.25 1.5359,-2.25 0.4686,0 0.593,0.675 0.2764,1.5 -0.3166,0.825 -0.1299,1.5 0.4148,1.5 1.3218,0 2.2098,4.89052 1.0213,5.62502 -0.5137,0.3175 -0.698,1.19235 -0.4095,1.94411 0.2884,0.75175 0.094,1.63279 -0.4319,1.95786 -0.526,0.32508 -0.9563,0.18949 -0.9563,-0.30131 0,-0.49079 -0.675,-0.89235 -1.5,-0.89235 -0.825,0 -1.5,0.6 -1.5,1.33334 0,0.73333 -0.4981,1.33333 -1.107,1.33333 -0.6088,0 -0.848,-0.675 -0.5314,-1.5 z m -2.3616,-10.5 c 0,-0.55 0.45,-1 1,-1 0.55,0 1,0.45 1,1 0,0.55 -0.45,1 -1,1 -0.55,0 -1,-0.45 -1,-1 z m 167.5255,-3.41667 c 0.8514,-1.14583 1.809,-2.87083 2.1279,-3.83333 0.3189,-0.9625 0.8649,-1.75614 1.2132,-1.76365 0.3484,-0.008 1.7584,-0.30316 3.1334,-0.657 l 2.5,-0.64333 -1.9602,2.21804 c -1.6468,1.86339 -1.7314,2.35948 -0.529,3.10262 0.7872,0.48651 1.0863,1.22951 0.6648,1.65109 -0.4216,0.42159 -1.7113,0.1765 -2.8661,-0.54464 -1.8403,-1.14932 -2.0213,-1.10737 -1.4659,0.33979 0.3714,0.968 0.2246,1.39822 -0.3551,1.04 -0.5437,-0.33602 -0.9885,-0.2094 -0.9885,0.2814 0,0.49079 -0.6801,0.89235 -1.5113,0.89235 -1.3367,0 -1.3324,-0.24078 0.037,-2.08334 z m -3.5255,-3.02431 c 0,-1.05548 1.9191,-1.49891 2.4899,-0.57533 0.3455,0.55897 -0.073,1.01631 -0.9309,1.01631 -0.8574,0 -1.559,-0.19844 -1.559,-0.44098 z m 15.5256,-11.51752 c -0.3588,-0.5806 0.071,-1.33304 0.9541,-1.6721 2.1999,-0.84418 2.8843,0.0836 1.1335,1.53666 -0.9856,0.81795 -1.6395,0.86038 -2.0876,0.13544 z m -58.2536,-214.25369 c 0.1755,-1.4917 0.6361,-3.0292 1.0235,-3.41666 1.0917,-1.09172 0.8005,2.94047 -0.3343,4.62885 -0.7778,1.15715 -0.9353,0.88009 -0.6892,-1.21219 z M 129.41221,348.19731 C 129.11439,345.61379 128.83927,334.05 128.80083,322.5 c -0.0543,-16.32684 0.23481,-21.39605 1.29937,-22.77975 1.23386,-1.60376 1.4375,-1.3247 2.05934,2.82206 1.17759,7.8527 0.36093,47.78555 -1.00519,49.15167 -0.9342,0.9342 -1.32082,0.15822 -1.74214,-3.49667 z m 0.99018,-52.59044 c -0.4092,-1.04122 -0.5084,-2.12872 -0.22046,-2.41666 0.91206,-0.91206 1.71456,0.58256 1.33239,2.48152 -0.35024,1.74033 -0.40373,1.73721 -1.11193,-0.0649 z m 683.81316,-3.59056 c -0.34546,-0.55897 0.0734,-1.01631 0.9309,-1.01631 1.75653,0 2.01516,0.60006 0.62812,1.45729 -0.512,0.31644 -1.21356,0.11799 -1.55902,-0.44098 z m 24.02585,-24.03788 c -4.12976,-4.96187 -7.79267,-10.15319 -8.1398,-11.53626 -0.80411,-3.20382 5.2161,-12.6253 9.88737,-15.4735 3.89279,-2.37355 8.27573,-2.55969 9.10951,-0.38688 0.88138,2.29684 0.71606,3.13879 -0.30099,1.53286 -1.36529,-2.1558 -5.5455,-0.57746 -9.65257,3.64457 -4.60262,4.73145 -6.75564,8.85584 -6.05466,11.59848 0.8763,3.42861 6.49482,9.62573 8.15087,8.99024 0.87581,-0.33608 1.46434,0.0279 1.46434,0.90552 0,0.8071 1.125,3.12523 2.5,5.1514 2.77416,4.08795 2.94218,4.59514 1.5223,4.59514 -0.53774,0 -4.3566,-4.05971 -8.48637,-9.02157 z m -738.385504,-0.3183 c -5.82972,-6.20546 -4.49747,-16.82455 2.890734,-23.04131 3.56752,-3.00187 7.17345,-4.1573 9.7066,-3.11024 1.4526,0.60042 1.23923,0.8967 -1.24776,1.7326 -3.85084,1.29432 -7.98868,5.16153 -9.95386,9.30284 -2.074264,4.37118 -2.016644,11.84262 0.10772,13.96698 3.13479,3.1348 11.45583,-0.0211 16.30291,-6.18317 2.37767,-3.02271 2.70502,-1.50828 0.56747,2.62529 -3.42786,6.62875 -14.01937,9.34209 -18.373814,4.70701 z m 25.209464,-5.91696 c -2.99572,-4.53979 -3.98495,-6.75115 -4.69404,-10.49317 -0.7081,-3.73682 0.89206,-4.43263 2.2997,-1 4.56141,11.12336 5.22355,12.25723 5.98569,10.25 0.41767,-1.1 1.07344,-6.275 1.45728,-11.5 0.68178,-9.28097 1.70721,-12.41511 3.41903,-10.45 0.91693,1.0526 -0.20896,21.92975 -1.33206,24.7 -1.15275,2.8434 -4.76885,2.07979 -7.1356,-1.50683 z m 19.94003,-1.4212 c -1.78492,-4.11412 -2.91121,-15.75026 -1.91045,-19.73761 0.86795,-3.4582 3.22388,-5.49823 5.62461,-4.87043 4.57738,1.19702 4.99196,7.66011 0.86328,13.45831 -1.77509,2.49288 -2.0442,3.92232 -1.58182,8.40234 0.68072,6.59555 -0.75487,7.91218 -2.99562,2.74739 z M 148.36775,239.75 c -0.27741,-0.6875 -0.50439,-0.125 -0.50439,1.25 0,1.375 0.22698,1.9375 0.50439,1.25 0.27741,-0.6875 0.27741,-1.8125 0,-2.5 z m 691.0001,20.81256 c -0.53837,-1.40298 2.78036,-3.76212 11.33762,-8.0594 l 3.5,-1.75762 -2.5,2.76276 C 848.9802,256.52001 841.85374,262 840.66242,262 c -0.40863,0 -0.99119,-0.64685 -1.29457,-1.43744 z M 268.70547,259 c 0,-0.55 0.19844,-1 0.44098,-1 0.24254,0 0.7191,0.45 1.05902,1 0.33992,0.55 0.14148,1 -0.44098,1 -0.58246,0 -1.05902,-0.45 -1.05902,-1 z m 546.63432,-0.76531 c 0.62387,-0.40408 1.35917,-1.63469 1.634,-2.73469 0.38299,-1.53294 0.52677,-1.35779 0.61568,0.75 0.0844,2.00179 -0.36013,2.74583 -1.634,2.73469 -1.11061,-0.01 -1.33556,-0.28374 -0.61568,-0.75 z m 42.56917,-6.38242 c -0.93692,-1.73125 -2.95264,-4.61643 -4.47938,-6.4115 l -2.77589,-3.26378 3.09674,-4.58849 c 5.05658,-7.49244 8.26965,-5.76051 11.96683,6.45042 1.02769,3.39425 2.59977,6.97937 3.49351,7.96694 1.23901,1.36909 1.33267,1.97624 0.39433,2.55617 -1.85749,1.14799 -5.3895,-3.92301 -7.43275,-10.67143 C 861.1914,240.65077 860.0861,238 859.71612,238 c -0.36998,0 -1.24366,1.06687 -1.94152,2.37082 -1.13037,2.11212 -0.93056,2.83779 1.83102,6.65004 1.70492,2.35357 3.09985,5.1117 3.09985,6.12918 0,2.94044 -2.93222,2.14709 -4.79651,-1.29777 z M 819.70547,252.5 c -0.68469,-0.825 -0.93265,-1.5 -0.55102,-1.5 0.38163,0 1.36888,0.675 2.19388,1.5 0.825,0.825 1.07295,1.5 0.55101,1.5 -0.52194,0 -1.50918,-0.675 -2.19387,-1.5 z M 451.12922,222.61442 c -1.35607,-2.96206 -2.98778,-8.96827 -3.626,-13.34713 -1.06906,-7.33477 -1.00454,-8.22945 0.81955,-11.36442 3.77861,-6.49412 12.47614,-4.2522 13.94835,3.59541 0.74242,3.95744 -1.26226,8.94765 -5.56158,13.84431 -3.25586,3.70822 -3.51292,5.6193 -1.46711,10.90741 0.40669,1.05124 0.21291,1.75 -0.48529,1.75 -0.63928,0 -2.27184,-2.42351 -3.62792,-5.38558 z m 4.55081,-13.58898 c 3.85061,-3.85061 4.08491,-11.30319 0.372,-11.83234 -2.96617,-0.42272 -5.34656,3.30052 -5.34656,8.36274 0,5.9082 1.49397,6.95019 4.97456,3.4696 z m 34.33319,13.77983 c -2.7061,-1.30767 -5.08183,-7.03166 -5.93643,-14.30301 C 483.72111,205.47602 483.19704,203 482.91218,203 c -0.28486,0 -2.0229,1.1479 -3.86232,2.55089 -2.9984,2.28699 -3.34439,3.0629 -3.34439,7.5 0,3.46896 -0.40061,4.94911 -1.33948,4.94911 -1.34363,0 -3.66052,-4.01007 -3.66052,-6.33561 0,-0.68283 -0.85095,-2.9106 -1.891,-4.9506 -2.73143,-5.35753 -3.37809,-8.68463 -2.00868,-10.33467 1.02139,-1.23069 1.44474,-1.19582 3.04306,0.25064 1.02114,0.92412 1.85662,2.29959 1.85662,3.05661 0,3.02584 3.19109,2.53293 6.87212,-1.0615 3.70809,-3.62086 3.74377,-3.63138 5.80426,-1.71174 1.19116,1.10973 2.32328,3.77276 2.66094,6.25919 0.32323,2.38022 0.89674,6.57238 1.27446,9.31591 0.50227,3.64822 1.45256,5.70359 3.53749,7.65121 1.5679,1.46464 2.85073,2.93244 2.85073,3.26177 0,0.88714 -2.20187,0.6075 -4.69225,-0.59594 z M 759.9763,174.39583 c 0.33229,-0.33229 1.1948,-0.36781 1.91667,-0.0789 0.79773,0.31922 0.56078,0.55618 -0.60417,0.60416 -1.05416,0.0434 -1.64479,-0.19293 -1.3125,-0.52522 z m -16.02083,-2.42699 C 741.41558,170.94793 740.92348,169 743.20547,169 c 0.825,0 1.5,0.4645 1.5,1.03222 0,0.56773 1.0125,1.4392 2.25,1.93662 1.2375,0.49741 1.575,0.90439 0.75,0.90439 -0.825,0 -2.5125,-0.40698 -3.75,-0.90439 z m 159.136,-9.56721 c -0.3587,-1.4291 -0.4123,-6.4916 -0.1191,-11.25 1.1728,-19.03316 7.0469,-23.6131 13.0203,-10.15163 1.0982,2.475 2.4186,4.77363 2.9342,5.10806 1.1563,0.75014 2.037,16.1697 0.8828,15.45632 -0.4564,-0.28207 -1.4033,-2.56104 -2.1042,-5.06438 -0.7009,-2.50334 -1.6666,-4.79398 -2.1461,-5.09031 -1.5532,-0.95992 -4.6241,0.60374 -5.1523,2.62343 -0.3049,1.16575 -1.3671,1.96688 -2.608,1.96688 -1.8146,0 -2.0936,0.59959 -2.0936,4.5 0,4.90784 -1.5724,6.05174 -2.614,1.90163 z M 913.24307,143.25 c -0.3735,-1.5125 -1.0973,-3.1775 -1.6084,-3.7 -1.2318,-1.25932 -2.6036,0.20479 -3.4668,3.7 -0.635,2.57083 -0.4696,2.75 2.5376,2.75 3.0072,0 3.1726,-0.17917 2.5376,-2.75 z m -24.1843,17.97776 c -1.1807,-0.95027 -3.1082,-3.65172 -4.28335,-6.00324 l -2.13659,-4.27547 -3.47306,2.64903 c -2.08381,1.5894 -5.25974,2.85042 -7.93967,3.15248 -4.08399,0.46033 -4.76875,0.20132 -7.99362,-3.02355 -2.99902,-2.99902 -3.52701,-4.20589 -3.52701,-8.06191 0,-5.68343 1.03824,-8.43951 4.47023,-11.86652 3.33514,-3.33031 9.23911,-5.48924 10.78467,-3.94368 0.76104,0.76104 0.22819,1.39007 -1.84206,2.17455 -8.21897,3.11445 -13.16226,13.82823 -9.00408,19.51488 3.02247,4.13348 15.20806,0.79976 16.80381,-4.59717 0.39796,-1.34594 0.99384,-4.19067 1.32416,-6.32163 0.54567,-3.52011 0.71787,-3.70303 1.88277,-2 0.70519,1.03096 1.5593,3.96539 1.898,6.52097 0.8129,6.13306 3.5591,12.8535 5.2523,12.8535 2.0315,0 4.4281,-9.39753 4.4455,-17.4315 0.016,-7.50624 0.9533,-10.32398 3.0104,-9.05263 1.6113,0.99587 0.5929,16.86268 -1.5325,23.87518 -2.3621,7.79345 -4.1319,9.0625 -8.1399,5.83671 z"
     id="path3202"
     style="fill:#000000" />
</svg>
