<?xml version="1.0" encoding="UTF-8" standalone="no"?>
<!-- Created with Inkscape (http://www.inkscape.org/) -->

<svg
   xmlns:dc="http://purl.org/dc/elements/1.1/"
   xmlns:cc="http://creativecommons.org/ns#"
   xmlns:rdf="http://www.w3.org/1999/02/22-rdf-syntax-ns#"
   xmlns:svg="http://www.w3.org/2000/svg"
   xmlns="http://www.w3.org/2000/svg"
   version="1.1"
   width="1576.8766"
   height="1779.9214"
   id="svg3067">
  <metadata
     id="metadata3073">
    <rdf:RDF>
      <cc:Work
         rdf:about="">
        <dc:format>image/svg+xml</dc:format>
        <dc:type
           rdf:resource="http://purl.org/dc/dcmitype/StillImage" />
        <dc:title></dc:title>
      </cc:Work>
    </rdf:RDF>
  </metadata>
  <defs
     id="defs3071" />
  <path
     d="m 1037,1779.3805 c 0,-1.5867 5.6699,-5.371 8.0557,-5.3768 4.4029,-0.011 36.3555,-14.3793 43.4443,-19.5364 4.0241,-2.9276 8.6082,-5.1275 17,-8.1585 3.85,-1.3906 8.5707,-3.7164 10.4905,-5.1685 1.9198,-1.4522 4.3948,-3.1323 5.5,-3.7335 11.73,-6.3817 13.1471,-7.4705 11.1657,-8.5793 -1.9712,-1.1032 -0.9677,-4.5939 1.5505,-5.3931 2.326,-0.7382 5.7933,-3.9908 5.7933,-5.4344 0,-0.55 0.45,-1 1,-1 0.55,0 1,-0.6401 1,-1.4224 0,-0.7824 1.4726,-1.9085 3.2723,-2.5025 5.6194,-1.8545 22.8309,-17.8806 28.378,-26.4233 1.3743,-2.1165 6.1777,-7.5625 10.6742,-12.1021 34.9105,-35.2455 41.4822,-43.626 48.6581,-62.0497 1.7138,-4.4 3.9432,-9.8 4.9542,-12 1.0111,-2.2 3.9381,-9.4 6.5045,-16 2.5664,-6.6 5.0605,-12.9 5.5424,-14 2.3842,-5.4418 5.9791,-14.6711 7.9849,-20.5 1.2302,-3.575 3.0567,-8.75 4.0589,-11.5 2.6298,-7.2162 3.8064,-21.7282 3.9324,-48.5 0.061,-12.925 0.3985,-37 0.7502,-53.5 1.0072,-47.2417 0.8741,-57.059 -0.9491,-70 -0.9298,-6.6 -3.927,-29.775 -6.6605,-51.5 -2.7335,-21.725 -5.2379,-41.075 -5.5653,-43 -0.3273,-1.925 -0.846,-5.075 -1.1525,-7 -1.0954,-6.8789 -0.9347,-6.7504 -13.1879,-10.5441 -6.4321,-1.9914 -18.6698,-5.8581 -27.1948,-8.5926 -20.2221,-6.4864 -51.391,-16.412 -61.5,-19.5843 -4.4,-1.3808 -9.575,-3.0861 -11.5,-3.7896 -4.217,-1.5412 -44.6901,-14.5333 -58,-18.6184 -5.225,-1.6037 -16.925,-5.4349 -26,-8.5137 -9.075,-3.0789 -22.35,-7.3507 -29.5,-9.493 -7.15,-2.1423 -26.275,-8.1923 -42.5,-13.4444 -16.225,-5.2522 -32.875,-10.6322 -37,-11.9557 -30.50773,-9.7882 -40.01133,-12.8611 -51,-16.4902 -6.875,-2.2706 -18.125,-5.8417 -25,-7.9359 -6.875,-2.0941 -16.325,-4.9715 -21,-6.3942 -32.73564,-9.9617 -77.94259,-24.3999 -90,-28.7442 -4.675,-1.6844 -9.85,-3.4569 -11.5,-3.9389 -1.65,-0.482 -6.6,-1.9799 -11,-3.3286 -4.84364,-1.4847 -8.37482,-2.0932 -8.95,-1.5422 -2.51341,2.4076 -7.9891,0.5098 -10.27794,-3.5623 -0.68898,-1.2258 -17.17483,-7.2167 -24.66349,-8.9627 l -2.89143,-0.6741 0.58257,7.8046 c 0.72567,9.7217 4.55619,39.013 14.16334,108.3045 5.19582,37.4748 6.59934,48.2623 9.04243,69.5 1.39192,12.1 3.65021,30.1 5.01841,40 4.01933,29.0831 4.11287,30.1507 3.59217,41 -0.24841,5.1758 -0.40699,5.6023 -1.15438,3.1047 -0.47653,-1.5924 -1.14508,-5.8674 -1.48567,-9.5 -0.34059,-3.6326 -0.78946,-7.2797 -0.9975,-8.1047 -0.20803,-0.825 -0.64807,-3.525 -0.97786,-6 -0.32979,-2.475 -1.24716,-8.6253 -2.03858,-13.6674 -1.25364,-7.9868 -3.48999,-25.4431 -8.97895,-70.087 -1.62247,-13.1962 -3.84169,-29.4267 -6.59667,-48.2456 -1.08698,-7.425 -2.42074,-17.325 -2.96391,-22 -0.54316,-4.675 -2.30911,-17.95 -3.92432,-29.5 -1.61522,-11.55 -4.09574,-30 -5.51227,-41 -1.41654,-11 -2.82793,-21.0076 -3.13642,-22.2391 -0.44566,-1.7792 -2.02856,-2.6609 -7.70521,-4.2922 -3.92938,-1.1292 -11.302,-3.609 -16.38361,-5.5109 -5.08162,-1.9018 -9.80662,-3.4568 -10.5,-3.4556 -1.23942,0 -23.52808,-6.9796 -37.26071,-11.6716 -3.85,-1.3154 -10.6,-3.5539 -15,-4.9745 -7.09218,-2.2896 -19.3201,-6.5048 -23.5,-8.1009 -0.825,-0.315 -1.84464,-0.4989 -2.26586,-0.4087 -0.42122,0.09 -3.57122,-0.7835 -7,-1.9416 -3.42878,-1.1581 -7.13414,-2.2811 -8.23414,-2.4954 -2.86001,-0.5573 -11.47538,-3.3989 -15,-4.9475 -1.65,-0.7249 -4.6875,-1.8908 -6.75,-2.5909 -2.0625,-0.7001 -3.75,-1.5573 -3.75,-1.9049 0,-0.3476 -0.97239,-0.5603 -2.16086,-0.4728 -1.79031,0.1319 -16.52965,-4.0482 -29.33914,-8.3206 -1.65,-0.5504 -5.7,-1.7609 -9,-2.6901 -3.3,-0.9292 -8.475,-2.4903 -11.5,-3.469 -3.025,-0.9788 -10.225,-3.2014 -16,-4.9391 -10.28932,-3.0961 -15.41768,-4.7615 -29.5,-9.5797 -3.85,-1.31727 -9.7,-3.13542 -13,-4.04034 -5.86154,-1.60734 -39.06374,-12.35513 -53,-17.15649 -11.059,-3.81007 -24.60355,-7.35309 -29.40549,-7.69197 -2.64481,-0.18665 -4.88698,-0.96938 -5.61024,-1.9585 C 331.82165,964.74142 330.03977,964 328.52453,964 l -2.75498,0 0.65721,5.75 c 3.29716,28.8471 4.885,41.6931 6.58204,53.25 2.0541,13.9885 6.42602,46.7266 9.94889,74.5 1.11622,8.8 3.15075,23.875 4.52118,33.5 1.37043,9.625 2.96511,21.55 3.54374,26.5 0.57862,4.95 1.71025,13.3845 2.51472,18.7434 1.69311,11.2785 1.80625,13.5397 0.61075,12.2066 -0.46855,-0.5225 -1.3681,-4.775 -1.99898,-9.45 -0.63089,-4.675 -2.28076,-16.7522 -3.66638,-26.8383 -1.38562,-10.0861 -3.19157,-23.5861 -4.01322,-30 -1.77695,-13.8711 -4.66955,-35.1337 -8.04845,-59.1617 -1.3535,-9.625 -2.64925,-18.85 -2.87944,-20.5 -0.23019,-1.65 -0.92392,-7.725 -1.54161,-13.5 -1.33763,-12.5059 -1.25527,-11.8829 -4.49483,-34 -4.83156,-32.98605 -4.6371,-32.04265 -6.90443,-33.49682 -1.15541,-0.74103 -4.35074,-1.64522 -7.10074,-2.00931 -7.21829,-0.95568 -8.5,-1.43964 -8.5,-3.20947 0,-1.35868 1.10657,-1.4955 7.87433,-0.97361 4.33088,0.33397 8.08133,0.40021 8.33435,0.1472 0.25301,-0.25302 0.12582,-3.04707 -0.28265,-6.20901 -0.40848,-3.16194 -0.98784,-7.77398 -1.28748,-10.24898 -0.29964,-2.475 -2.18859,-17.1 -4.19767,-32.5 -2.00909,-15.4 -3.83405,-29.8 -4.05549,-32 -0.22143,-2.2 -0.83735,-6.7 -1.36869,-10 -0.53135,-3.3 -1.25442,-8.475 -1.60683,-11.5 -0.35241,-3.025 -0.99738,-5.95 -1.43327,-6.5 -0.43589,-0.55 -1.4944,-3.6954 -2.35225,-6.98979 -0.85784,-3.29438 -2.24926,-6.49399 -3.09203,-7.11024 C 300.68954,831.78372 300,830.34958 300,829.213 300,827.27324 295.36545,824 292.61896,824 c -1.04225,0 -26.5153,-7.90561 -64.86896,-20.13222 -12.34846,-3.93651 -18.75,-6.44684 -18.75,-7.3527 0,-1.04747 0.65577,-1.16533 2.75,-0.49425 1.5125,0.48466 6.35,2.00919 10.75,3.38784 4.4,1.37864 12.725,4.16891 18.5,6.2006 15.91079,5.59753 54.98569,17.5068 59.39459,18.10233 l 3.8946,0.52605 -0.71507,-5.36883 c -0.39329,-2.95285 -1.13783,-9.07813 -1.65455,-13.61173 -0.51671,-4.5336 -1.60335,-11.0586 -2.41474,-14.5 -0.8114,-3.4414 -1.49016,-8.95709 -1.50837,-12.25709 -0.0182,-3.3 -0.71512,-10.725 -1.54871,-16.5 -0.83358,-5.775 -1.7135,-12.525 -1.95537,-15 -0.24187,-2.475 -0.89203,-7.2 -1.4448,-10.5 -0.55277,-3.3 -1.72166,-11.4 -2.59753,-18 -0.87588,-6.6 -2.44944,-18.075 -3.4968,-25.5 -1.04736,-7.425 -1.97086,-15.075 -2.05222,-17 -0.0814,-1.925 -0.73859,-6.65 -1.4605,-10.5 -0.72191,-3.85 -1.5516,-9.475 -1.84376,-12.5 -0.85372,-8.83952 -3.32334,-28.64802 -4.98698,-40 -0.84632,-5.775 -1.79253,-12.3 -2.10268,-14.5 -4.33483,-30.74862 -7.09317,-51.87719 -8.55105,-65.5 -0.61803,-5.775 -1.5385,-11.53924 -2.0455,-12.80942 -0.50701,-1.27017 -1.16717,-5.32017 -1.46703,-9 -1.33332,-16.36207 -1.86587,-17.73395 -6.69353,-17.24288 -0.9625,0.0979 -1.75,-0.30027 -1.75,-0.88484 0,-0.58457 1.125,-1.06286 2.5,-1.06286 2.27569,0 2.49932,-0.38132 2.49245,-4.25 -0.004,-2.3375 -0.44208,-6.95 -0.97317,-10.25 -0.53108,-3.3 -2.09257,-14.55 -3.46997,-25 -1.3774,-10.45 -3.39803,-25.075 -4.49029,-32.5 -1.09227,-7.425 -3.15004,-22.725 -4.57282,-34 -4.53144,-35.90977 -7.3958,-58.2689 -8.51911,-66.5 -0.60048,-4.4 -1.22284,-9.125 -1.38304,-10.5 -0.16019,-1.375 -0.83336,-6.2473 -1.49592,-10.82733 -0.95489,-6.60076 -0.94674,-8.63811 0.0393,-9.82622 0.97582,-1.17579 0.98108,-1.66135 0.0244,-2.25262 -0.71424,-0.44142 -0.92795,-1.51369 -0.51576,-2.58782 0.48632,-1.26734 0.34228,-1.61067 -0.46613,-1.11104 -0.71823,0.44389 -1.21921,0.0246 -1.29756,-1.08595 -0.0702,-0.99496 -0.25754,-2.70902 -0.41632,-3.80902 -0.6229,-4.31524 -4.68376,-33.36195 -5.52228,-39.5 -1.13782,-8.32903 -3.62399,-28.74295 -4.44526,-36.5 -0.34938,-3.3 -0.97179,-8.8125 -1.38312,-12.25 -0.74607,-6.23487 0.17498,-8.27295 1.80326,-3.99024 0.47254,1.24287 1.38135,6.53037 2.01957,11.75 0.63823,5.21963 1.79784,13.76524 2.57691,18.99024 0.77908,5.225 1.90665,13.51686 2.50572,18.42635 0.76623,6.27939 1.59331,9.30942 2.78918,10.21819 2.12906,1.61794 3.54787,1.72741 2.60447,0.20095 -0.44563,-0.72104 -0.27393,-0.88282 0.45729,-0.4309 1.56091,0.96469 0.39739,2.71108 -1.57362,2.36193 -0.9041,-0.16015 -1.68915,0.54426 -1.86552,1.67392 -0.42001,2.69007 3.63883,34.931 4.47536,35.54956 0.37191,0.275 0.61801,2.01523 0.5469,3.86718 -0.0711,1.85196 0.21247,5.45196 0.63019,8 0.41771,2.54805 1.50121,11.15782 2.40776,19.13282 0.90656,7.975 2.05326,16.975 2.54824,20 0.49497,3.025 1.14267,7.75 1.43934,10.5 0.48899,4.53281 3.14906,25.01506 5.58448,43 0.52135,3.85 2.06705,15.55 3.4349,26 1.36785,10.45 3.18235,23.95 4.03223,30 0.84989,6.05 1.77252,13.025 2.05029,15.5 0.27778,2.475 0.95112,7.31428 1.49631,10.75396 0.54519,3.43968 1.22117,8.16468 1.50217,10.5 0.9949,8.26843 1.23781,8.74604 4.44822,8.74604 1.63952,0 2.98095,0.45 2.98095,1 0,0.55 -0.8449,1 -1.87756,1 -2.47518,0 -4.42526,2.44915 -3.74386,4.70201 0.2991,0.9889 1.24599,8.54799 2.1042,16.79799 0.85822,8.25 2.00161,17.025 2.54088,19.5 0.53927,2.475 1.40906,8.1 1.93285,12.5 0.5238,4.4 1.62359,12.95 2.44398,19 0.82039,6.05 1.99318,15.05 2.60621,20 0.61302,4.95 1.52869,12.06721 2.03481,15.81602 1.0462,7.74906 1.62677,12.67035 2.47726,20.99888 0.32659,3.19819 0.77953,6.34819 1.00652,7 0.392,1.12564 1.90926,12.05103 4.98605,35.90333 1.8615,14.43088 2.51634,19.00152 2.97744,20.78177 0.21369,0.825 0.66874,4.425 1.01122,8 0.34248,3.575 0.79829,7.175 1.0129,8 0.3592,1.3808 3.03158,22.75523 5.56369,44.5 0.57642,4.95 1.91999,14.46728 2.98572,21.14952 1.06573,6.68224 1.93769,12.45365 1.93769,12.82537 0,0.37171 1.2375,0.59424 2.75,0.49451 4.71752,-0.31106 5.00572,-0.084 5.69055,4.48271 l 0.66763,4.4521 4.52251,-3.4521 c 7.33817,-5.60136 8.18907,-4.6276 2.86482,3.27846 -4.06898,6.04208 -6.61511,7.69551 -10.61768,6.895 -2.75926,-0.55186 -2.87754,-0.42209 -2.87076,3.14943 0.0184,9.69836 3.65742,26.34245 5.2819,24.15833 2.8893,-3.88467 11.31292,-14.68455 12.03759,-15.43333 2.63845,-2.72625 -0.79418,3.15165 -5.76904,9.87866 -3.05663,4.13319 -5.55752,7.9205 -5.55752,8.41624 0,0.99597 5.32071,3.43025 11.5,5.26138 9.22776,2.73448 5.1906,3.54976 -4.5,0.90874 -1.925,-0.52463 -4.52303,-0.95638 -5.7734,-0.95944 -2.2286,-0.005 -2.26182,0.15698 -1.68594,8.24442 0.3231,4.5375 1.20029,11.625 1.9493,15.75 0.74902,4.125 1.65709,10.65 2.01795,14.5 0.36085,3.85 1.28644,7.70186 2.05686,8.5597 1.59591,1.77698 4.94912,16.75974 3.97004,17.73883 -0.35396,0.35395 -1.10597,-0.0184 -1.67114,-0.82749 -1.37523,-1.96873 -0.7217,4.49629 3.58448,35.45884 3.65279,26.26451 4.03796,27.45959 9.36347,29.05256 2.20038,0.65818 2.27808,0.51264 1.61461,-3.02396 -0.89544,-4.7731 1.40746,-4.40746 3.05474,0.48501 0.95793,2.84506 2.04605,3.67773 7.5689,5.79198 3.54757,1.35808 7.80013,3.06125 9.45013,3.78481 1.65,0.72357 7.5,2.74922 13,4.50145 5.5,1.75223 10.9,3.60423 12,4.11555 1.1,0.51133 4.475,1.53737 7.5,2.28009 3.025,0.74273 8.65,2.55278 12.5,4.02235 3.85,1.46957 7.67675,2.82465 8.5039,3.0113 0.82714,0.18664 3.52714,0.91772 6,1.62462 2.47285,0.7069 4.7211,1.33952 4.9961,1.40584 3.35851,0.80989 12.96005,3.81095 14.5,4.53212 3.62577,1.69797 17.17952,5.94086 24.11877,7.55018 3.74997,0.86972 7.95732,2.16622 9.34967,2.88122 3.37124,1.7312 9.24603,3.555 11.45143,3.555 0.97783,0 3.19588,0.6462 4.929,1.436 1.73312,0.7899 4.72613,1.8705 6.65113,2.4014 3.09128,0.8526 9.50833,3 15.5,5.1869 5.08453,1.8558 24.46619,7.9863 28.5,9.0146 2.475,0.6309 5.36485,1.8928 6.42189,2.8041 1.48322,1.2788 1.7203,1.3146 1.03868,0.157 -0.68026,-1.1553 -0.25719,-1.0906 1.8411,0.2816 1.49838,0.9798 4.63097,1.9445 6.96132,2.1436 4.94304,0.4224 13.3519,2.9365 19.72172,5.8965 2.46659,1.1462 5.16659,2.1632 6,2.2602 2.40192,0.2792 11.9684,3.0705 18.51529,5.4023 3.3,1.1754 9.825,3.1813 14.5,4.4576 13.73318,3.7493 56.55786,16.6792 61.63081,18.6079 1.57528,0.599 5.45278,1.6929 8.61667,2.431 l 5.75252,1.3419 0,-3.4697 c 0,-1.9084 -0.41883,-6.481 -0.93074,-10.1613 -0.51191,-3.6804 -1.43296,-10.9666 -2.04677,-16.1916 -0.61382,-5.225 -1.74459,-13.55 -2.51282,-18.5 -0.76823,-4.95 -1.6705,-11.25 -2.00506,-14 -0.33455,-2.75 -1.23701,-9.5 -2.00546,-15 -0.76845,-5.5 -2.13369,-15.85 -3.03385,-23 -0.90017,-7.15 -2.06833,-15.30622 -2.59592,-18.12494 l -0.95925,-5.12495 -6.70507,-2.12166 C 638.65526,937.30951 583.22951,918.84951 581.76357,918.00287 580.80853,917.45129 579.22718,917 578.24945,917 c -2.63701,0 -12.69694,-3.85246 -13.08486,-5.01087 -0.18448,-0.55087 -0.69528,-0.77918 -1.13513,-0.50734 -0.70209,0.43392 -4.33987,-0.46084 -9.02946,-2.2209 -1.91668,-0.71936 -2.73479,-0.97062 -7,-2.14984 -1.925,-0.53222 -8.675,-2.60737 -15,-4.61146 -6.325,-2.00409 -13.3,-4.08755 -15.5,-4.62993 -2.2,-0.54237 -5.8,-1.81731 -8,-2.83318 -2.2,-1.01588 -10.075,-3.73775 -17.5,-6.04861 -18.95124,-5.89812 -46.05545,-14.94718 -48.1862,-16.08752 -0.98394,-0.52659 -5.05707,-1.80552 -9.05139,-2.84206 -6.95524,-1.8049 -23.06493,-7.16273 -27.26241,-9.06704 -1.1,-0.49905 -5.375,-1.97032 -9.5,-3.2695 -21.909,-6.90027 -32.09079,-10.22555 -37.5,-12.24716 -3.3,-1.23333 -8.3625,-2.78954 -11.25,-3.45824 -2.8875,-0.66871 -5.25,-1.62095 -5.25,-2.11609 0,-0.49514 -0.3375,-0.84697 -0.75,-0.78184 -0.4125,0.0651 -0.975,0.0344 -1.25,-0.0682 -0.275,-0.10266 -3.39361,-0.94345 -6.93024,-1.86842 -3.53663,-0.92498 -6.60402,-2.22144 -6.81642,-2.88102 -0.40545,-1.25913 2.64571,-0.65415 7.74666,1.53598 1.375,0.59036 9.925,3.37489 19,6.18783 9.075,2.81293 17.4,5.51031 18.5,5.99416 1.1,0.48385 10.1,3.42077 20,6.52649 9.9,3.10572 27.675,8.79546 39.5,12.64387 11.825,3.84841 21.96733,7.12956 22.5385,7.29146 0.57118,0.1619 2.58672,-4.19212 4.47899,-9.6756 4.91426,-14.24072 6.36237,-14.59051 3.33246,-0.80495 -2.9337,13.34781 -5.02993,11.34975 20.65005,19.68291 12.375,4.0157 23.4,7.73614 24.5,8.26765 2.60712,1.25975 16.42183,5.96848 19,6.47613 4.53601,0.89317 13.42977,3.58239 20,6.04744 3.85,1.44446 9.925,3.54023 13.5,4.65726 3.575,1.11704 8.75,2.8274 11.5,3.8008 2.75,0.97339 11.075,3.69158 18.5,6.04041 7.425,2.34882 19.39183,6.24087 26.59295,8.649 7.20112,2.40812 13.65811,4.3784 14.34887,4.3784 0.69076,0 2.67393,0.61637 4.40705,1.36972 4.86373,2.11414 26.08352,8.63028 28.10449,8.63028 2.17468,0 2.06782,-1.92381 -1.99967,-36 -0.82063,-6.875 -1.75125,-14.75 -2.06804,-17.5 -0.31679,-2.75 -1.21853,-6.0125 -2.00387,-7.25 -0.95518,-1.50513 -1.05236,-2.25 -0.29354,-2.25 0.73512,0 0.925,-1.14382 0.53954,-3.25 -0.32715,-1.7875 -1.69219,-11.8 -3.03344,-22.25 -2.41719,-18.83303 -3.68284,-24.5 -5.47176,-24.5 -1.38034,0 -3.05387,-5.54673 -2.41298,-7.99752 0.30692,-1.17364 0.0679,-3.11683 -0.53103,-4.31819 -2.11542,-4.24284 -5.9557,-14.33031 -10.15864,-26.68429 -2.33894,-6.875 -4.56921,-12.95 -4.95615,-13.5 -0.38694,-0.55 -1.28112,-3.025 -1.98706,-5.5 -0.70595,-2.475 -1.87768,-6.3 -2.60386,-8.5 -0.72617,-2.2 -1.61914,-5.575 -1.98437,-7.5 -0.36523,-1.925 -1.46858,-5.975 -2.45188,-9 C 619.44837,734.9613 619,733.31893 619,731.21395 c 0,-1.17923 -0.63191,-4.07228 -1.40424,-6.429 -4.36778,-13.32804 -1.99372,-47.23555 4.99108,-71.28495 3.40123,-11.7108 3.37955,-17.28972 -0.16709,-43 -1.36567,-9.9 -3.57035,-26.55 -4.8993,-37 -2.63161,-20.69339 -4.11788,-32.17682 -5.56538,-43 -0.5149,-3.85 -1.62655,-12.175 -2.47033,-18.5 -2.78634,-20.88643 -4.41925,-31.26784 -5.01129,-31.85988 -0.22962,-0.22962 -0.90339,0.88241 -1.49726,2.47119 -2.59207,6.93459 -5.46983,11.68819 -11.52526,19.03794 -10.88814,13.21541 -15.94129,21.30268 -19.42775,31.09295 -1.81021,5.08321 -3.9427,10.03321 -4.73887,11 -1.37224,1.66632 -1.41709,1.66189 -0.86168,-0.0851 2.33013,-7.32925 2.16693,-7.39608 -4.04687,-1.6571 -3.27527,3.025 -10.2122,8.95106 -15.4154,13.16902 -5.2032,4.21796 -12.38536,10.67979 -15.96036,14.35961 -3.575,3.67983 -8.91706,8.24558 -11.87124,10.14612 -2.95418,1.90054 -8.30082,5.70092 -11.88142,8.4453 -7.24602,5.55377 -15.87156,10.09755 -36.81133,19.39156 -7.77562,3.45117 -15.89216,7.34217 -18.03675,8.64666 -10.54229,6.41256 -47.33269,23.70251 -67.16195,31.56329 -6.42658,2.54765 -11.03449,2.50268 -8.16485,-0.0797 0.78515,-0.70655 3.45254,-2.11034 5.92754,-3.11953 2.475,-1.0092 9.51055,-4.23958 15.63456,-7.17863 6.12401,-2.93903 11.85024,-5.3437 12.72496,-5.3437 2.26782,0 13.53333,-5.36594 17.44933,-8.31139 1.81987,-1.36883 6.09487,-3.51023 9.5,-4.75868 3.40513,-1.24845 7.38377,-3.09209 8.84141,-4.09699 1.45765,-1.0049 5.73265,-3.20975 9.5,-4.89966 17.18928,-7.71057 38.61342,-18.33038 44.92213,-22.26762 8.12563,-5.07118 25.46746,-18.97593 31.2578,-25.06265 2.9316,-3.08166 5.7123,-5.60301 6.17934,-5.60301 0.46704,0 3.69345,-2.72672 7.16981,-6.05939 3.47636,-3.33266 7.5229,-6.78385 8.9923,-7.66931 1.4694,-0.88547 3.23135,-2.65577 3.91544,-3.93401 0.68409,-1.27824 2.28857,-3.00863 3.5655,-3.84531 1.27693,-0.83668 3.27827,-3.42715 4.44741,-5.7566 1.16914,-2.32946 2.95954,-5.148 3.97867,-6.26343 1.01912,-1.11543 2.88084,-3.85036 4.13714,-6.07763 2.31255,-4.09983 7.91326,-11.56847 15.37824,-20.50711 7.77882,-9.31444 11.23033,-21.74007 10.61266,-38.20611 -0.34526,-9.20387 -1.66144,-9.69473 -4.39912,-1.64062 -1.01407,2.98335 -2.52134,6.10186 -3.3495,6.93001 -1.32977,1.32978 -1.32638,0.92281 0.029,-3.48237 0.84413,-2.74347 1.78551,-6.11312 2.09196,-7.48812 0.53345,-2.39358 0.49139,-2.4187 -0.98808,-0.59016 -8.25677,10.20489 -10.20998,9.16029 -2.55391,-1.36586 6.94426,-9.54749 6.52148,-10.38802 -4.78373,-9.5106 -4.81435,0.37365 -9.02619,0.84308 -9.35963,1.04318 -0.33344,0.20009 -2.58344,0.61001 -5,0.91092 -2.41656,0.30092 -5.06874,0.74323 -5.89374,0.98292 -0.825,0.23969 -3.69121,0.67902 -6.36935,0.97629 -2.67813,0.29727 -6.66106,1.02295 -8.85094,1.61263 -2.18988,0.58967 -4.20744,0.84628 -4.48347,0.57025 -0.27604,-0.27604 -1.65389,-0.0639 -3.0619,0.47143 -1.69629,0.64493 -2.90432,0.62902 -3.58051,-0.0472 -1.40993,-1.40993 -0.41459,-2.14127 3.5053,-2.5756 1.83748,-0.2036 6.04087,-0.82788 9.34087,-1.38731 3.3,-0.55942 9.56988,-1.50809 13.93307,-2.10815 4.36319,-0.60007 8.24818,-1.28577 8.63331,-1.5238 0.38513,-0.23802 2.44025,-0.67132 4.56693,-0.96288 10.2354,-1.40326 15.3733,-2.94156 15.95593,-4.77727 0.32636,-1.02825 0.43978,-1.9664 0.25207,-2.08479 -7.5515,-4.76249 -15.09253,-10.12659 -16.07139,-11.43193 C 575.67826,414.41222 558.38584,405.633 542,401.51893 c -3.025,-0.7595 -9.48916,-2.53735 -14.3648,-3.95077 -12.3282,-3.57388 -17.94681,-2.66153 -34.04501,5.52825 -14.44998,7.35128 -17.92318,10.09881 -25.75414,20.37323 -11.6034,15.22395 -11.02906,22.07806 2.16395,25.82441 12.72089,3.61229 15.22335,3.96678 24.55649,3.4786 6.73571,-0.35232 9.41232,-0.1726 9.1551,0.61473 -0.19992,0.61194 -2.01681,1.52948 -4.03754,2.03899 -4.1263,1.04039 -4.35494,1.60483 -2.06546,5.09901 3.09788,4.72797 2.32533,15.3939 -2.1349,29.47462 -4.32396,13.65053 -5.22778,14.89743 -19.9334,27.5 -13.4877,11.55881 -27.45103,13.23008 -52.04029,6.2287 -12.04031,-3.42828 -21.68036,-11.18373 -26.45031,-21.27937 C 395.37236,498.89927 394,494.67516 394,493.06243 c 0,-1.61273 -0.47391,-4.17871 -1.05314,-5.7022 -0.57922,-1.52348 -1.06561,-5.37777 -1.08085,-8.56509 -0.0227,-4.75315 -0.32784,-5.78692 -1.69687,-5.74942 -1.8789,0.0515 -20.96657,2.99183 -34.82518,5.36466 -11.87643,2.03345 -13.60509,2.75436 -16.87051,7.03554 -1.49769,1.96358 -4.35441,5.26538 -6.34826,7.33735 -1.99386,2.07196 -5.8324,6.79335 -8.5301,10.49197 -2.69771,3.69862 -5.22288,6.72476 -5.61151,6.72476 -0.38862,0 -4.00679,2.23712 -8.04037,4.97138 -4.03358,2.73426 -7.51215,4.79301 -7.73016,4.575 -1.30008,-1.30008 4.32473,-6.26712 11.78695,-10.40855 4.03038,-2.23681 6.223,-4.62577 10.7343,-11.69551 1.77505,-2.78173 4.40375,-6.15673 5.84155,-7.5 1.4378,-1.34328 3.2709,-3.7048 4.07355,-5.24784 l 1.45938,-2.80551 -3.30439,0.53122 c -8.5238,1.37032 -30.00778,3.70975 -30.4065,3.31103 -0.24608,-0.24608 2.15122,-0.9453 5.32734,-1.55382 3.17612,-0.60852 10.49977,-2.06202 16.27477,-3.22999 5.775,-1.16798 11.84981,-2.2719 13.49958,-2.45317 1.84655,-0.20288 3.97233,-1.49477 5.53018,-3.36082 2.44173,-2.9248 11.13021,-18.31566 11.79585,-20.89529 0.17908,-0.69402 1.75408,-3.48525 3.5,-6.20273 6.36349,-9.90461 7.47979,-11.9169 8.7045,-15.69104 0.68613,-2.1144 2.05512,-4.99681 3.04221,-6.40535 0.98708,-1.40855 2.10489,-3.79689 2.48401,-5.30743 0.37912,-1.51053 1.7326,-3.43002 3.00774,-4.26552 4.38129,-2.87073 9.36434,-8.16712 11.45169,-12.17179 1.57402,-3.01983 3.39384,-4.62755 7.36796,-6.5092 6.1175,-2.8965 15.00326,-4.26654 18.63891,-2.87382 5.88193,2.25322 13.43259,12.37306 14.48924,19.41935 l 0.68042,4.53734 -7.84615,9.05168 c -8.57211,9.88919 -10.77611,12.77131 -13.94819,18.23977 -2.89638,4.9932 -7.39795,17.00138 -7.39795,19.73446 0,2.12698 0.29018,2.21763 5.25,1.63998 2.8875,-0.33629 6.6,-0.72694 8.25,-0.86811 1.65,-0.14117 5.025,-0.62238 7.5,-1.06935 2.475,-0.44697 5.175,-0.90144 6,-1.00994 0.825,-0.1085 2.625,-0.46659 4,-0.79575 2.61717,-0.62653 12.41939,-1.87878 15,-1.91629 0.825,-0.012 3.95704,-0.64113 6.9601,-1.39809 3.00305,-0.75697 7.27805,-1.37927 9.5,-1.38289 2.276,-0.004 5.29369,-0.83318 6.91148,-1.89975 2.65777,-1.75219 2.73223,-1.96459 1,-2.85255 -1.02937,-0.52768 -3.4303,-1.25578 -5.3354,-1.61802 -5.33458,-1.01433 -9.03736,-5.13926 -9.0306,-10.06018 0.008,-5.951 1.83713,-11.57317 5.10963,-15.70681 1.58664,-2.00415 2.88479,-4.04164 2.88479,-4.52776 0,-0.48612 0.7875,-1.57625 1.75,-2.4225 0.9625,-0.84625 3.62925,-3.60014 5.92612,-6.11975 4.51486,-4.95269 12.72229,-10.68411 18.32388,-12.79595 1.925,-0.72574 4.19029,-1.90219 5.03399,-2.61433 4.03781,-3.40823 13.70113,-6.67552 21.12092,-7.14127 7.7209,-0.48464 9.6722,-0.10886 25.28926,4.87029 3.2693,1.04235 6.735,1.89517 7.70157,1.89517 1.94664,0 15.05467,5.3862 24.35426,10.00738 3.3,1.63984 8.80373,5.73554 12.23051,9.10155 6.59642,6.47943 8.39269,6.90955 10.40562,2.49163 1.12525,-2.46964 -1.68933,-27.88438 -10.1444,-91.60056 -1.64215,-12.375 -3.42407,-26.1 -3.95983,-30.5 -0.53575,-4.4 -1.64743,-12.5 -2.47039,-18 -1.84107,-12.30426 -6.85035,-49.45547 -9.03393,-67 -0.88988,-7.15 -2.03545,-15.7 -2.54569,-19 -1.80352,-11.66419 -5.02872,-39.7865 -4.61083,-40.20439 0.23301,-0.23301 0.73275,1.96765 1.11053,4.89037 0.37779,2.92271 1.53018,6.97932 2.56088,9.01469 1.0307,2.03537 2.57564,8.78537 3.43319,15 0.85755,6.21463 2.21602,16.02433 3.0188,21.79933 2.30896,16.60989 3.64957,27.17618 3.99659,31.5 0.17657,2.2 1.25665,10.3 2.40019,18 4.49928,30.29595 5.2094,35.45225 6.61042,48 0.79834,7.15 2.15848,18.175 3.02254,24.5 1.58777,11.62262 3.2918,26.15987 3.92682,33.5 0.57268,6.61967 4.38313,31.79555 5.27047,34.8224 l 0.82741,2.82241 3.28595,-4.08893 c 3.89526,-4.84712 7.63795,-7.49974 9.21047,-6.52787 0.72579,0.44856 -0.10753,1.72317 -2.3176,3.54489 -6.45746,5.32279 -6.85778,9.71619 -1.42844,15.6771 2.29233,2.51677 5.70072,3.01106 5.70072,0.82673 0,-2.00076 4.59776,-7.23828 6.87745,-7.83443 1.04563,-0.27344 2.46633,-0.14787 3.1571,0.27905 1.80921,1.11816 0.58942,8.64341 -1.95998,12.09166 -2.63139,3.55914 -2.62613,5.52143 0.0186,6.93684 2.79556,1.49613 5.78767,0.62102 10.39468,-3.04017 2.10083,-1.66953 4.01196,-2.84324 4.24695,-2.60824 0.80666,0.80666 -1.66165,4.32718 -5.23135,7.46142 -4.35969,3.82785 -9.81871,4.25018 -13.85891,1.07216 -1.5375,-1.20941 -3.14711,-1.74641 -3.88485,-1.29609 -2.89672,1.76816 -8.67088,7.69571 -8.21504,8.43327 0.27137,0.43908 2.99236,1.73331 6.04665,2.87607 l 5.55326,2.07774 15.17774,-1.98602 c 8.34775,-1.0923 17.65273,-2.42979 20.67773,-2.97218 6.96258,-1.24842 13.3892,-2.15537 18.5,-2.61081 2.2,-0.19604 4.225,-0.44761 4.5,-0.55904 0.275,-0.11142 0.95,-0.28584 1.5,-0.38759 0.55,-0.10175 2.575,-0.47757 4.5,-0.83515 4.44655,-0.82598 21.39662,-3.53018 26,-4.14802 1.925,-0.25837 5.975,-0.95533 9,-1.54882 3.025,-0.59348 8.425,-1.49954 12,-2.01347 3.575,-0.51393 8.075,-1.2001 10,-1.52482 1.925,-0.32472 4.4,-0.73113 5.5,-0.90312 1.1,-0.17199 3.35,-0.55704 5,-0.85566 2.49352,-0.45128 10.61001,-1.7434 32.5,-5.17391 1.375,-0.21549 4.31801,-0.65045 6.54003,-0.96658 2.22202,-0.31613 5.14702,-0.79041 6.5,-1.05396 2.55172,-0.49706 6.64894,-1.20024 10.95997,-1.88099 1.375,-0.21713 5.2,-0.86418 8.5,-1.4379 3.3,-0.57372 9.15,-1.5023 13,-2.06352 13.97596,-2.03728 40.13186,-6.11177 45.58166,-7.10058 3.06991,-0.55701 10.26991,-1.66996 16,-2.47323 8.77721,-1.23043 27.5868,-4.12556 48.15387,-7.41173 2.60454,-0.41615 5.06363,-1.08473 5.46463,-1.48574 1.48276,-1.48276 -1.4309,-3.97043 -6.013,-5.13388 -5.32355,-1.3517 -6.17069,-1.90791 -5.22828,-3.43276 0.8219,-1.32987 4.54112,-1.41317 4.54112,-0.10171 0,1.15477 3.27937,3.01589 6.3149,3.58386 1.2018,0.22486 2.95975,1.35239 3.90655,2.50561 1.51803,1.84899 2.37473,2.01513 7.25,1.40601 3.78479,-0.47288 5.52855,-1.13862 5.52855,-2.11071 0,-1.1467 0.41716,-1.1967 2.16769,-0.25984 1.9563,1.04698 8.98131,0.83339 15.33231,-0.46615 1.1,-0.22509 5.6,-0.72304 10,-1.10656 4.4,-0.38352 12.275,-1.36904 17.49997,-2.19005 5.225,-0.821 11.525,-1.69667 14,-1.94592 2.475,-0.24926 7.425,-1.06851 11,-1.82056 3.575,-0.75206 9.1842,-1.6803 12.4649,-2.06276 3.2808,-0.38245 6.8808,-0.88845 8,-1.12443 1.1193,-0.23598 3.8351,-0.66986 6.0351,-0.96418 2.2,-0.29432 6.7,-1.00541 10,-1.58019 3.3,-0.57479 7.35,-1.23655 9,-1.47058 2.8069,-0.39812 7.6054,-1.16195 40.25,-6.40689 19.4982,-3.13274 18.1037,-2.65493 18.8152,-6.44711 0.3457,-1.84285 -0.066,-7.99773 -0.9156,-13.67751 -0.8492,-5.67977 -1.8416,-13.1793 -2.2053,-16.66563 -0.5218,-5.00192 -1.2711,-7.03331 -3.5528,-9.63201 -3.4497,-3.92895 -3.5056,-4.47879 -0.8051,-7.9119 l 2.0863,-2.65239 -2.0539,-15.73247 c -2.6102,-19.99342 -4.7794,-37.36906 -6.6457,-53.23246 -0.8088,-6.875 -2.1361,-17.225 -2.9494,-23 -1.9998,-14.19825 -4.4668,-37.01677 -5.5139,-51 -0.4736,-6.325 -1.1881,-13.48141 -1.5877,-15.90314 -0.4966,-3.00904 -0.3915,-4.19599 0.3319,-3.74888 0.5823,0.35984 1.368,2.90375 1.7462,5.65314 0.3781,2.74938 1.0173,4.99888 1.4204,4.99888 0.4032,0 0.5475,1.26369 0.3209,2.8082 -0.2267,1.54452 0.557,9.53202 1.7415,17.75 1.1846,8.21799 2.5365,18.0918 3.0043,21.9418 0.4678,3.85 1.8009,14.2 2.9624,23 1.8487,14.00588 3.8969,30.1741 8.1076,64 1.7003,13.65916 2.8515,19.80879 3.9055,20.86277 0.5254,0.52545 0.6878,2.90707 0.3609,5.29249 -0.4889,3.56684 -0.1518,5.00616 1.8983,8.10406 3.7315,5.63863 4.0521,7.62231 2.3227,14.37273 -0.8687,3.39097 -1.3678,7.56098 -1.109,9.26668 1.3976,9.21193 1.7284,10.60127 2.5244,10.60127 0.4783,0 2.4757,-2.18804 4.4388,-4.86232 1.9631,-2.67428 6.0373,-6.38678 9.0537,-8.25 4.9778,-3.07473 6.0163,-4.38768 11.2424,-14.21279 4.145,-7.79245 8.1815,-13.53553 14.4086,-20.5 14.6625,-16.3988 15.5645,-17.10243 23.4799,-18.31582 3.8041,-0.58315 7.7146,-1.76938 8.6901,-2.63605 1.3597,-1.20801 2.0482,-1.30122 2.95,-0.39939 0.647,0.647 1.9864,1.17637 2.9764,1.17637 1.9543,0 2.4632,2.47211 0.7294,3.54361 -1.3075,0.80809 -0.7055,4.92348 3.0654,20.95639 1.5523,6.6 3.5525,16.41293 4.4449,21.80652 0.8924,5.39358 2.8992,13.26858 4.4594,17.5 3.4688,9.40724 9.9942,23.19348 10.9781,23.19348 0.3966,0 1.2797,1.54501 1.9625,3.43334 1.2173,3.36633 9.2003,15.68998 15.8942,24.53649 6.43,8.49779 22.7938,25.29053 30.2661,31.05955 7.2614,5.60623 23.1816,21.23483 28.0935,27.57889 3.5673,4.60748 21.1504,25.47649 24.3612,28.91376 10.0963,10.80837 22.0806,28.17341 29.4545,42.67878 6.3549,12.50098 6.794,14.81729 3.1763,16.75341 -2.3339,1.2491 -6.5048,-0.95366 -14.748,-7.78891 -3.7606,-3.11832 -9.041,-7.35005 -11.7341,-9.40385 -2.6931,-2.0538 -12.3681,-10.92181 -21.5,-19.70669 -9.4007,-9.04354 -20.2564,-18.42738 -25.0243,-21.63142 -4.6314,-3.11239 -10.0314,-7.14657 -12,-8.96483 -4.6629,-4.30699 -10.3712,-8.59898 -22.3094,-16.7742 -12.6668,-8.6742 -15.7472,-11.24518 -21.8453,-18.23295 -4.8116,-5.51353 -19.9378,-18.79896 -24.0871,-21.15581 -2.2724,-1.29072 -5.656,-3.68524 -7.5192,-5.32116 -1.8632,-1.63592 -3.7937,-2.9744 -4.2898,-2.9744 -1.3139,0 -26.0107,-15.12181 -29.4464,-18.02996 -1.6049,-1.35852 -9.6033,-8.99296 -17.7741,-16.96542 -8.1709,-7.97246 -15.6327,-14.77269 -16.5819,-15.11162 -4.4967,-1.60557 -5.1365,1.9986 -3.2187,18.13323 0.5539,4.66058 1.2496,10.49877 1.5459,12.97377 0.2963,2.475 1.0081,7.57242 1.5819,11.32761 0.5737,3.75518 0.8192,7.05155 0.5455,7.32527 -0.2738,0.27372 -0.084,1.92629 0.4214,3.67239 0.5055,1.7461 2.0572,13.07473 3.4482,25.17473 1.3911,12.1 2.774,22.675 3.0731,23.5 0.2991,0.825 1.1525,6.45 1.8965,12.5 0.744,6.05 2.5035,19.325 3.9101,29.5 5.4625,39.51393 9.7813,72.91653 14.0286,108.5 1.3786,11.55 3.1669,25.275 3.9739,30.5 0.807,5.225 2.1904,15.125 3.0741,22 0.8837,6.875 2.2718,17 3.0846,22.5 0.8129,5.5 2.5837,18.55 3.9352,29 1.3514,10.45 2.8993,21.925 3.4396,25.5 0.5403,3.575 1.2496,8.975 1.5762,12 1.2144,11.24675 3.5183,25.24409 4.4379,26.96247 0.5224,0.97601 0.7182,2.00607 0.4353,2.28903 -0.283,0.28296 -0.071,3.37962 0.4718,6.88148 0.5424,3.50186 1.4742,11.76702 2.0705,18.36702 0.5964,6.6 1.5346,14.7 2.085,18 0.5503,3.3 3.0206,22.2 5.4894,42 2.4688,19.8 5.8517,46.35 7.5176,59 1.6658,12.65 3.6883,28.175 4.4943,34.5 2.6032,20.42675 2.5248,20.1652 6.4694,21.58915 1.9177,0.69228 4.6343,1.29293 6.0368,1.33477 4.8939,0.14601 6.4065,4.05587 3.133,8.09842 -1.562,1.92903 -2.13,2.07637 -4.0479,1.04998 -1.2269,-0.65666 -2.6482,-2.29156 -3.1582,-3.63312 -1.1639,-3.06122 -3.7321,-3.17803 -4.1598,-0.1892 -0.1771,1.2375 0.2259,6.3 0.8955,11.25 3.0383,22.4585 6.4728,50.4878 6.8007,55.5 0.1978,3.025 0.8383,8.3125 1.4232,11.75 2.1603,12.696 2.9079,17.8918 3.4183,23.7588 0.2876,3.3048 0.7442,6.6798 1.0147,7.5 0.2706,0.8202 0.714,3.7412 0.9853,6.4912 0.7605,7.7071 3.5876,22.848 4.4098,23.617 0.4045,0.3783 5.0104,2.0387 10.2354,3.6897 5.225,1.6511 20.975,6.6493 35,11.1073 14.025,4.458 26.4,8.0962 27.5,8.0849 3.2409,-0.033 11.3834,-2.782 14.2993,-4.8271 1.4854,-1.0418 4.5007,-2.4612 6.7007,-3.1543 4.931,-1.5533 10.0939,-4.5099 13.8422,-7.9267 3.4998,-3.1902 17.9245,-24.4315 20.1842,-29.7226 4.0539,-9.4918 4.7065,-30.9433 1.1128,-36.5754 -0.8047,-1.261 -1.7513,-4.5115 -2.1037,-7.2233 -0.3523,-2.7119 -0.8909,-5.3356 -1.1969,-5.8306 -1.4426,-2.3343 -6.5988,-24.9142 -6.9051,-30.2389 -0.1899,-3.3 -0.649,-9.8648 -1.0202,-14.5884 -0.4447,-5.6576 -0.2738,-9.8043 0.5008,-12.15121 0.6467,-1.95952 1.5751,-8.47544 2.0631,-14.47983 1.577,-19.4028 10.0566,-39.42064 20.9206,-49.38769 9.3473,-8.57547 31.4493,-22.37295 37.3507,-23.31662 5.4639,-0.8737 18.7912,-4.5627 21.2515,-5.8824 5.8304,-3.12739 9.6018,-4.69385 11.301,-4.69385 1.0437,0 4.8655,-1.575 8.493,-3.5 3.6274,-1.925 7.6327,-3.51527 8.9007,-3.53393 3.4741,-0.0511 9.3993,-3.18024 11.7991,-6.23111 1.1726,-1.49071 3.5634,-3.08129 5.3129,-3.53463 2.0011,-0.51854 4.1104,-2.19043 5.6871,-4.50784 2.7308,-4.01363 9.6546,-9.22358 17.5062,-13.17275 3.381,-1.70057 6.9428,-4.85478 11,-9.74116 3.3,-3.97445 8.5296,-9.71304 11.6214,-12.75242 6.9015,-6.78451 10.2891,-14.31579 13.0562,-29.02616 2.2868,-12.15752 2.0287,-21.68011 -1.168,-43.09823 -4.1597,-27.86994 -6.5945,-39.11708 -9.091,-41.99561 -1.0489,-1.20941 -4.684,-7.18172 -8.0779,-13.27181 -3.3939,-6.09009 -8.0571,-13.11171 -10.3626,-15.60362 -2.3056,-2.4919 -6.9548,-8.35573 -10.3317,-13.03073 -9.2499,-12.8058 -15.5879,-21.4415 -16.1464,-22 -0.275,-0.275 -2.7106,-3.425 -5.4124,-7 -2.7018,-3.575 -6.3781,-8.075 -8.1694,-10 -3.57,-3.83639 -11.4316,-16.28126 -17.6879,-28 -2.2022,-4.125 -4.3322,-7.95 -4.7333,-8.5 -0.7181,-0.98449 -3.3611,-5.66965 -9.3081,-16.5 -1.661,-3.025 -7.1388,-11.125 -12.1729,-18 -5.0341,-6.875 -12.4971,-17.36779 -16.5844,-23.31731 -4.0874,-5.94952 -11.5291,-16.29952 -16.5371,-23 -9.9612,-13.32754 -37.2305,-53.20734 -41.836,-61.18269 -10.598,-18.35257 -28.2321,-41.48687 -38.2741,-50.21189 -3.6639,-3.18346 -8.3977,-7.58811 -10.5195,-9.78811 -4.4846,-4.65007 -16.1543,-20.74942 -20.2958,-28 -1.5708,-2.75 -4.6815,-7.7071 -6.9126,-11.01578 -2.2311,-3.30868 -6.628,-11.18368 -9.7709,-17.5 -4.6245,-9.29379 -6.0184,-13.29619 -7.3077,-20.98422 -1.7651,-10.52467 -2.0248,-29.71913 -0.5479,-40.5 0.5274,-3.85 1.4704,-12.175 2.0956,-18.5 1.2113,-12.25531 3.4986,-20.21037 10.2073,-35.5 6.3855,-14.55298 10.9316,-30.33879 13.2411,-45.97742 0.9649,-6.53393 0.7529,-26.17281 -0.4268,-39.52258 -0.6075,-6.875 -1.7689,-20.15 -2.581,-29.5 -0.812,-9.35 -1.9258,-20.15 -2.4751,-24 -0.5493,-3.85 -1.4589,-10.77475 -2.0214,-15.388333 -0.5624,-4.613583 -1.1856,-8.663583 -1.3849,-9 -0.1992,-0.336417 -0.6717,-3.306397 -1.05,-6.599955 -0.3783,-3.293558 -0.9909,-6.218558 -1.3613,-6.5 C 1276.8031,61.73027 1276.3779,59.925 1276.2288,58 c -0.2893,-3.732195 -3.1999,-15.608396 -8.2104,-33.5 -1.6943,-6.05 -3.8868,-14.0375 -4.8723,-17.75 l -1.7918,-6.75 2.1486,0 c 1.9329,0 2.6615,1.8317549 7.2593,18.25 2.8109,10.0375 5.6291,21.4 6.2627,25.25 2.0892,12.694811 1.6578,11.753998 4.5276,9.873619 3.4544,-2.263368 4.0756,-1.125982 1.5856,2.902937 -2.4136,3.90533 -2.5448,7.815154 -0.6451,19.223444 0.7327,4.4 1.8651,11.825 2.5165,16.5 0.6514,4.675 1.6071,10.73583 2.1238,13.46851 0.5166,2.73268 1.6091,12.85768 2.4276,22.5 0.8186,9.64232 1.9953,23.15649 2.6149,30.03149 2.5237,28.00265 -0.3693,53.02197 -8.3834,72.5 -9.3852,22.81064 -12.4709,32.43886 -14.1013,44 -4.002,28.37862 -4.4296,41.54391 -1.8387,56.61632 1.7227,10.02197 2.7792,13.17875 7.6973,23 3.1353,6.26103 6.9242,12.95868 8.4197,14.88368 1.4956,1.925 4.582,6.71608 6.8587,10.64685 9.9435,17.16706 17.583,26.54584 31.555,38.73897 10.2966,8.9857 27.8199,32.30783 40.6592,54.11418 1.2954,2.2 4.0236,6.25 6.0628,9 2.0391,2.75 5.3321,7.7 7.3176,11 3.3415,5.55361 9.5522,14.35141 36.0909,51.12469 5.5075,7.63142 11.5588,16.35031 13.4473,19.37531 1.8886,3.025 5.0779,7.525 7.0873,10 4.6604,5.74001 12.1624,16.61445 14.1425,20.5 2.1663,4.25086 14.3707,24.98646 22.4582,38.15693 3.7681,6.13632 11.7072,17.16132 17.6425,24.5 5.9352,7.33869 13.542,17.39307 16.9038,22.34307 5.4204,7.98089 11.7366,15.98571 18.4762,23.41568 1.2051,1.32862 4.2926,6.5938 6.8611,11.70039 2.5684,5.10659 4.9833,9.41954 5.3664,9.58432 2.0689,0.88982 5.7714,14.66647 9.6213,35.79961 0.8517,4.675 2.2041,12.1 3.0054,16.5 2.5831,14.18377 2.9567,29.7369 0.9945,41.40014 -2.2363,13.29199 -7.5889,25.51879 -12.7069,29.02568 -1.9215,1.31661 -4.5726,4.00941 -5.8915,5.984 -4.6101,6.9021 -14.3462,16.23243 -19.4657,18.65434 -3.3023,1.56223 -7.0955,4.69374 -10.8944,8.99401 -3.3993,3.84792 -7.5437,7.37016 -9.9448,8.45184 -15.1518,6.82565 -18.0875,7.98999 -20.146,7.98999 -1.2676,0 -5.2176,1.54533 -8.7778,3.43407 -3.5602,1.88873 -8.1071,3.7406 -10.1042,4.11525 -1.9971,0.37465 -5.5341,1.97114 -7.8599,3.54774 -2.3259,1.5766 -5.1289,2.87331 -6.2289,2.88158 -2.1485,0.0161 -14.4544,3.30908 -21,5.61943 -5.8644,2.0699 -29.3072,17.47685 -34.2976,22.5409 -5.2598,5.33736 -11.1372,16.57955 -14.5958,27.91848 -5.4696,17.93193 -6.4995,53.54415 -2.0064,69.37405 0.7699,2.7123 1.3998,6.1677 1.3998,7.6786 0,1.5109 0.675,3.422 1.5,4.247 0.825,0.825 1.5097,2.5447 1.5216,3.8215 0.012,1.2768 0.8874,6.2361 1.9454,11.0208 1.0581,4.7847 2.1821,11.3097 2.498,14.5 0.3158,3.1903 0.827,8.1974 1.136,11.1268 1.0556,10.0055 -3.1937,21.506 -13.1811,35.6738 -11.34,16.0866 -11.0516,15.8452 -28.9199,24.2055 -4.3755,2.0472 -8.8493,5.9204 -8.1484,7.0545 0.3337,0.5398 16.0286,6.0362 34.8775,12.2143 64.4354,21.1196 74.2721,24.5233 73.7709,25.5257 -0.609,1.2181 -2.4027,1.0935 -7,-0.4861 -7.0689,-2.4289 -9.6156,-3.2174 -15,-4.644 -9.3596,-2.4799 -25.3261,-7.4652 -28.9793,-9.0484 -1.9136,-0.8293 -8.6636,-3.0252 -15,-4.8798 -6.3364,-1.8545 -19.794,-6.0876 -29.9059,-9.4068 -23.3811,-7.6748 -25.5972,-7.792 -18.5482,-0.9811 1.9617,1.8954 5.6547,6.5962 8.2067,10.4462 4.7764,7.2056 15.1007,27.3713 17.0995,33.3992 2.6286,7.9271 0.1234,20.2641 -6.9246,34.1008 -2.9384,5.7687 -6.0451,9.6929 -13.4583,17 -5.3009,5.225 -10.0755,10.2968 -10.6102,11.2707 -1.2173,2.2171 -0.3419,3.7293 2.1591,3.7293 1.0564,0 3.6173,0.6246 5.691,1.388 2.0736,0.7634 7.8202,2.6168 12.7702,4.1186 4.95,1.5018 9.4807,3.1144 10.0682,3.5835 0.5875,0.4692 3.3948,1.352 6.2385,1.9619 6.152,1.3193 9.6101,3.7782 8.2671,5.8783 -0.9402,1.4701 -0.5848,1.5401 -19.5738,-3.8559 -1.65,-0.4689 -8.2824,-2.4775 -14.7387,-4.4635 -6.4564,-1.986 -12.8412,-3.6109 -14.1885,-3.6109 -2.6241,0 -3.564,1.3294 -13.7668,19.4705 -5.0595,8.9963 -13.806,29.9256 -13.806,33.0364 0,0.913 -1.2875,4.8849 -2.8611,8.8265 -3.6004,9.0182 -5.271,24.0225 -4.7505,42.6666 0.2072,7.425 0.011,13.9579 -0.4353,14.5175 -1.6127,2.0206 -2.8187,33.8181 -2.8439,74.9825 -0.014,23.1 -0.3165,45.375 -0.6718,49.5 -0.7573,8.7924 -3.1084,20.8897 -4.3583,22.4254 -0.4811,0.591 -2.2752,5.5746 -3.9869,11.0746 -1.7117,5.5 -4.2909,12.475 -5.7316,15.5 -3.4861,7.3201 -3.85,8.2008 -7.2311,17.5 -1.5998,4.4 -4.3084,11.0488 -6.0191,14.775 -1.7107,3.7263 -3.1104,7.0247 -3.1104,7.3298 0,1.2569 -9.3683,20.263 -12.2711,24.8952 -3.1174,4.9745 -5.2422,7.4708 -17.8239,20.9399 -3.6272,3.883 -7.9022,8.6351 -9.5,10.5601 -1.5977,1.925 -6.5336,7.1 -10.9686,11.5 -4.435,4.4 -10.6332,11.4875 -13.7738,15.75 -3.1406,4.2625 -6.124,7.75 -6.6299,7.75 -0.5058,0 -1.6628,1.2581 -2.5711,2.7957 -0.9083,1.5377 -3.2251,3.874 -5.1483,5.1918 -1.9233,1.3179 -4.9599,3.8591 -6.748,5.6472 -2.8958,2.8958 -3.0864,3.4156 -1.7448,4.7573 1.3417,1.3416 1.2761,1.446 -0.6007,0.9552 -1.6045,-0.4196 -3.5885,0.8764 -8.3181,5.4334 -3.4161,3.2914 -8.729,7.4837 -11.8064,9.3162 -3.0774,1.8324 -8.7082,5.4887 -12.5129,8.1251 -3.9894,2.7643 -9.7039,5.6309 -13.5,6.7722 -3.6203,1.0884 -9.0574,3.5631 -12.0824,5.4993 -17.0378,10.9055 -57,27.6525 -57,23.8871 z M 1271.5682,1352.25 c 0.6658,-3.7895 3.4271,-15.5619 5.8051,-24.75 1.4272,-5.5143 7.5595,-20.2058 11.6872,-28 1.4563,-2.75 4.5516,-8.6 6.8783,-13 2.3267,-4.4 4.6423,-8.4275 5.1458,-8.95 1.4308,-1.4848 1.1118,-2.1395 -1.6574,-3.4012 -3.3672,-1.5342 -39.0449,-13.1488 -40.3904,-13.1488 -1.2725,0 -1.3048,9.1114 -0.064,18 2.194,15.7147 9.9854,75.0594 10.011,76.25 0.01,0.4125 0.4457,0.75 0.9708,0.75 0.5251,0 1.2512,-1.6875 1.6135,-3.75 z m 46.5708,-95.0097 c 12.5674,-12.7518 16.5345,-18.9938 19.9847,-31.4442 2.9168,-10.5257 2.5159,-15.3728 -2.1237,-25.6768 -2.2,-4.8859 -4,-9.1524 -4,-9.4811 0,-0.3287 -1.7981,-2.9693 -3.9957,-5.8679 -2.1976,-2.8987 -3.9976,-5.6778 -4,-6.1759 0,-0.4981 -1.1293,-2.3806 -2.5043,-4.1833 -1.375,-1.8027 -2.5,-3.4882 -2.5,-3.7455 0,-1.2382 -9.9386,-10.0868 -13.2166,-11.767 -3.5678,-1.8289 -5.6761,-4.279 -5.5059,-6.3986 0.044,-0.55 -0.7877,-1.1477 -1.8486,-1.3281 -1.0609,-0.1805 -8.4539,-2.5033 -16.4289,-5.1619 -26.8212,-8.9412 -40.4461,-12.9639 -41.2354,-12.1746 -0.7286,0.7286 1.2428,17.9635 4.7657,41.6646 1.3426,9.0329 4.9417,36.1233 7.5726,57 2.025,16.0683 3.1014,19.6821 6.3971,21.4766 3.6808,2.0042 14.5631,5.8331 28.5,10.0277 5.775,1.738 11.625,3.5376 13,3.9989 1.375,0.4614 3.1861,0.8744 4.0248,0.9179 0.8386,0.043 6.74,-5.2129 13.1142,-11.6808 z m -68.6636,-12.9903 c -0.4167,-3.7125 -0.8875,-7.875 -1.0462,-9.25 -0.7052,-6.1102 -2.5575,-20.3605 -3.8996,-30 -0.804,-5.775 -2.1455,-16.125 -2.9812,-23 -0.8356,-6.875 -1.6982,-13.4 -1.9168,-14.5 -0.2187,-1.1 -0.7279,-4.475 -1.1316,-7.5 -0.4037,-3.025 -0.8495,-6.175 -0.9908,-7 -0.1412,-0.825 -0.5709,-4.0875 -0.9549,-7.25 -0.384,-3.1625 -1.0116,-5.75 -1.3946,-5.75 -0.3831,0 -1.4637,1.2375 -2.4015,2.75 -2.1828,3.5207 -2.2546,1.2844 -0.1825,-5.6928 0.8666,-2.9182 1.2041,-5.6353 0.75,-6.038 -1.0738,-0.952 -17.1586,-6.2889 -90.3257,-29.9699 -30.0805,-9.7357 -85.029,-27.7237 -108.5,-35.5187 -10.45,-3.4705 -27.1,-8.8631 -37,-11.9835 -9.9,-3.1204 -21.15,-6.7341 -25,-8.0304 -14.58263,-4.9103 -53.64435,-17.5669 -69.5,-22.5191 -9.075,-2.8344 -24.6,-7.7657 -34.5,-10.9584 -9.9,-3.1927 -29.475,-9.4906 -43.5,-13.99518 -14.025,-4.50462 -27.975,-9.00003 -31,-9.9898 -3.025,-0.98977 -14.95,-4.83521 -26.5,-8.54541 -11.55,-3.7102 -21.9,-7.11658 -23,-7.56974 -6.76496,-2.78689 -51.71288,-17.05952 -52.1977,-16.57471 -0.32448,0.32449 -0.13035,3.86275 0.43141,7.86281 0.56176,4.00005 0.65924,7.66757 0.21663,8.15003 -0.81225,0.88538 -1.76325,-2.09524 -4.03511,-12.6468 l -1.24226,-5.7696 -5.58649,-1.55869 c -3.07256,-0.85727 -6.37398,-1.77878 -7.33648,-2.04778 -2.25591,-0.6305 -2.297,2.94352 -0.22055,19.18368 0.8412,6.57909 2.17867,17.58699 2.97217,24.46199 0.7935,6.875 2.16789,18.125 3.05421,25 0.88632,6.875 1.72298,13.85 1.85924,15.5 0.43448,5.2611 2.64484,20.7315 4.14342,29 0.93479,5.1577 2.07018,8.4595 3.19572,9.2934 1.88705,1.3981 22.6465,8.2066 25.02223,8.2066 1.41717,0 1.36814,-1.5383 -0.30283,-9.5 -0.23086,-1.1 0.79455,0.5875 2.27868,3.75 2.26856,4.834 3.11266,5.75 5.29875,5.75 1.44939,0 3.59493,1.0587 4.84745,2.3919 1.23591,1.3156 4.12685,3.0765 6.42431,3.9132 5.8918,2.1455 62.47886,20.6149 78.6772,25.6793 7.425,2.3214 18,5.6853 23.5,7.4754 5.5,1.79 17.875,5.606 27.5,8.4799 9.625,2.874 21.325,6.5508 26,8.1707 4.675,1.6199 13,4.2502 18.5,5.8451 5.5,1.5949 13.825,4.2324 18.5,5.8612 8.6446,3.0119 13.57663,4.6029 45.5,14.6777 9.9,3.1244 24.075,7.6396 31.5,10.0339 7.425,2.3943 16.875,5.3267 21,6.5163 4.125,1.1896 12.225,3.8487 18,5.909 5.775,2.0603 19.95,6.7812 31.5,10.4908 11.55,3.7096 22.4292,7.354 24.1759,8.0987 1.7468,0.7446 7.5968,2.5534 13,4.0194 5.4033,1.466 13.8741,4.1498 18.8241,5.964 4.95,1.8142 10.125,3.5991 11.5,3.9665 1.375,0.3674 10.825,3.303 21,6.5236 10.175,3.2206 20.8808,6.5406 23.7907,7.3777 l 5.2906,1.522 0.9752,-2.7081 c 2.2808,-6.3342 2.9557,-6.7998 2.3755,-1.639 l -0.5699,5.0692 20.8189,6.8455 c 18.3746,6.0417 32.0447,10.1507 34.6855,10.4258 0.4789,0.05 0.5276,-2.9289 0.1089,-6.6597 z M 1202,1231.3942 c 0,-2.4425 4.4502,-13.7245 4.7838,-12.1279 0.203,0.9715 -0.4146,3.8965 -1.3726,6.5 -1.7681,4.8052 -3.4112,7.516 -3.4112,5.6279 z m -2.5927,-21.6813 c 0.3071,-0.9829 1.2909,-4.3579 2.1863,-7.5 1.5268,-5.3582 3.4064,-8.9832 3.4064,-6.5695 0,1.602 -3.735,12.0936 -5.015,14.0873 -1.082,1.6852 -1.1095,1.6844 -0.5777,-0.018 z m 12.789,-9.7031 c 1.7289,-5.2197 3.3292,-8.9334 3.556,-8.2528 0.5313,1.5938 -3.3766,13.3697 -5.2588,15.8469 -0.7924,1.0428 -0.026,-2.3745 1.7028,-7.5941 z m 5.4268,-12.8107 c -0.8547,-1.3828 2.0875,-11.9022 3.5883,-12.8298 0.721,-0.4456 0.8576,0.1303 0.4108,1.7315 -0.3682,1.3196 -1.2615,4.6109 -1.9849,7.3141 -0.7235,2.7032 -1.6299,4.4061 -2.0142,3.7842 z M 1211.6287,1173 c 0.9109,-5.0922 2.5909,-8.8918 3.0663,-6.9352 0.2092,0.8606 -0.5361,3.5606 -1.6561,6 -1.9832,4.3194 -2.02,4.3439 -1.4102,0.9352 z M 1224,1164.1781 c 0,-1.5098 3.2541,-10.6652 4.1329,-11.6281 1.5972,-1.7499 0.9085,3.1877 -1.0974,7.8671 -1.8169,4.2388 -3.0355,5.7486 -3.0355,3.761 z m -2.9853,-19.7281 c 0.039,-2.4824 3.8655,-12.9101 4.8596,-13.2414 1.6563,-0.5521 1.3864,1.2957 -1.0378,7.106 -2.1958,5.2629 -3.8494,7.9176 -3.8218,6.1354 z m -514.45221,-77.7807 c -1.52384,-1.1142 -1.88526,-3.147 -2.22242,-12.5 -0.39282,-10.897 -0.35006,-11.1693 1.75365,-11.1693 1.87034,0 2.0754,-0.4044 1.54634,-3.0497 -0.97794,-4.8897 1.13423,-2.4494 2.83396,3.2742 2.5837,8.7002 1.6644,13.0677 -1.14794,5.4537 -1.08019,-2.9244 -1.18,-2.5692 -1.25,4.4494 -0.0916,9.1791 0.64794,10.064 8.0741,9.662 4.79118,-0.2594 5.38128,-0.069 5.65113,1.8212 0.24916,1.7455 -0.35664,2.2196 -3.5,2.739 -5.95837,0.9846 -9.76331,0.7641 -11.73882,-0.6805 z m 17.90686,-0.7659 c -0.3852,-1.2136 -0.98589,-5.4009 -1.33486,-9.305 L 722.5,1049.5 l -3.64972,0.3168 c -4.25213,0.369 -5.85564,-1.3261 -3.20042,-3.3833 7.36054,-5.7027 18.03973,-9.4954 21.20199,-7.5298 1.05594,0.6563 0.84307,1.1966 -0.97251,2.4683 -1.27839,0.8954 -3.07437,1.628 -3.99106,1.628 -0.91669,0 -2.61436,0.7875 -3.77259,1.75 -1.9721,1.6388 -2.03851,2.1735 -1.04548,8.4171 1.23646,7.7741 0.92117,14.0171 -0.73535,14.5606 -0.64083,0.2103 -1.48031,-0.6106 -1.86551,-1.8243 z m -21.84778,-48.3589 c -1.95702,-7.791 -2.01152,-9.9083 -0.16785,-6.5202 1.64324,3.0197 3.58548,12.9757 2.53134,12.9757 -0.40805,0 -1.47162,-2.905 -2.36349,-6.4555 z m 14.41379,-5.4132 C 713.89372,1000.4642 714.23739,994 717.9993,994 c 2.64602,0 7.52476,6.6582 9.32796,12.7303 1.65529,5.5739 0.84391,7.8266 -1.34553,3.7356 -2.24887,-4.2021 -7.95312,-2.1018 -6.52367,2.402 0.34281,1.0801 0.17599,2.2402 -0.37071,2.5781 -0.54671,0.3379 -1.4701,-1.1537 -2.05199,-3.3147 z M 720.5,1001 c 0,-0.7333 -0.5625,-1.52083 -1.25,-1.75 -0.74359,-0.24786 -1.25,0.46111 -1.25,1.75 0,1.2889 0.50641,1.9979 1.25,1.75 0.6875,-0.2292 1.25,-1.0167 1.25,-1.75 z m 26.31842,12.2667 c -1.40267,-1.8796 -6.76362,-2.2808 -10.22832,-0.7654 -2.63142,1.151 -6.33513,-3.6182 -7.17875,-9.2439 -0.73516,-4.90236 0.74334,-7.52275 3.98102,-7.05566 1.98476,0.28634 2.89095,2.0423 4.02961,7.80836 0.40045,2.0278 4.91964,5.9899 6.83213,5.9899 0.24503,0 0.22892,-3.375 -0.0358,-7.5 l -0.48132,-7.5 2.60845,0 c 1.67887,0 3.19222,0.89094 4.24652,2.5 0.90093,1.375 2.26131,2.5 3.02305,2.5 0.91618,0 1.38499,1.1847 1.38499,3.5 0,3.9365 0.0977,3.8679 -3.53656,2.4861 -1.75622,-0.6677 -2.47204,-1.5213 -2.09648,-2.5 0.31365,-0.8174 0.0986,-1.4861 -0.4778,-1.4861 -0.6459,0 -0.80465,1.2471 -0.41371,3.25 0.3489,1.7875 0.861,4.4447 1.138,5.9048 0.62006,3.2685 -1.0118,4.5015 -2.79503,2.1119 z m -50.23639,-21.83256 c -0.98101,-4.16122 -1.57386,-7.77565 -1.31744,-8.03206 0.62015,-0.62016 2.45257,4.23119 3.24754,8.59792 0.35045,1.925 0.85891,4.2875 1.12991,5.25 0.27101,0.9625 0.0947,1.75 -0.39181,1.75 -0.4865,0 -1.68719,-3.40464 -2.6682,-7.56586 z M 1233.6299,1124.25 c -0.2778,-0.9625 -0.8137,-5.35 -1.1909,-9.75 -0.3773,-4.4 -0.8547,-8.9 -1.0608,-10 -0.2062,-1.1 -0.6173,-4.025 -0.9135,-6.5 -0.2962,-2.475 -0.7353,-5.4319 -0.9758,-6.571 -0.2404,-1.139 -0.6777,-4.514 -0.9716,-7.5 -0.294,-2.9859 -0.7403,-6.779 -0.9919,-8.429 -0.568,-3.7251 -5.3974,-38.7253 -6.0023,-43.5 -0.2438,-1.925 -1.3323,-10.025 -2.4188,-18 -1.0865,-7.975 -2.2722,-17.17072 -2.6349,-20.43493 -1.0668,-9.59994 -1.3,-9.88101 -10.8268,-13.04666 -9.4684,-3.14623 -11.4044,-4.08993 -10.4168,-5.07758 0.3674,-0.36735 3.9544,0.30952 7.9711,1.50415 4.0167,1.19463 8.1529,2.42081 9.1915,2.72484 1.755,0.51376 1.8439,0.10374 1.2587,-5.80852 -0.3462,-3.49871 -1.0617,-9.5113 -1.5898,-13.3613 -2.0292,-14.79229 -10.3385,-78.19814 -13.5636,-103.5 -7.3906,-57.98229 -7.8989,-61.35531 -9.5731,-63.52405 -0.4347,-0.56322 -0.6347,-2.81322 -0.4442,-5 0.3007,-3.45333 -0.1588,-8.53249 -2.938,-32.47595 -0.2872,-2.475 -0.7759,-6.75 -1.0858,-9.5 -0.31,-2.75 -0.9775,-7.25 -1.4835,-10 -0.5059,-2.75 -1.161,-7.25 -1.4557,-10 -1.0097,-9.42334 -2.9703,-23.88874 -5.0148,-37 -0.8576,-5.5 -2.4162,-16.975 -3.4636,-25.5 -1.0474,-8.525 -3.0723,-24.5 -4.4999,-35.5 -1.4276,-11 -3.4934,-26.975 -4.5909,-35.5 -1.0974,-8.525 -2.6538,-20.45 -3.4587,-26.5 -1.6341,-12.28354 -2.0476,-15.87872 -2.9905,-26 -0.3586,-3.85 -1.2883,-10.83786 -2.0659,-15.52859 -0.7776,-4.69072 -1.6712,-11.21572 -1.9858,-14.5 -0.3146,-3.28427 -1.42,-12.04641 -2.4565,-19.47141 -1.0365,-7.425 -2.5917,-19.125 -3.456,-26 -0.8644,-6.875 -2.0036,-15.875 -2.5316,-20 -0.528,-4.125 -1.4398,-11.775 -2.0263,-17 -3.2147,-28.63767 -8.7477,-68.82659 -9.6845,-70.34232 -0.651,-1.05345 -10.1049,-0.22438 -22.2884,1.95462 -10.717,1.91671 -16.8958,2.87386 -35,5.42179 -7.975,1.12238 -21.025,3.12559 -29,4.45157 -7.975,1.32598 -20.35,3.33808 -27.5,4.47132 -7.15,1.13325 -16.825,2.71529 -21.5,3.51564 -4.675,0.80036 -15.7,2.40539 -24.5,3.56673 -8.8,1.16134 -20.95,2.94719 -27,3.96854 -6.05,1.02135 -15.95,2.56594 -22,3.43241 -24.20646,3.46681 -33.01251,4.77959 -57,8.49743 -13.75,2.13112 -27.475,4.16255 -30.5,4.5143 -3.025,0.35175 -7.525,1.04935 -10,1.55022 -2.475,0.50086 -6.3,1.13585 -8.5,1.41108 -2.2,0.27524 -6.475,0.99687 -9.5,1.60364 -3.025,0.60676 -10.9,1.96471 -17.5,3.01766 -6.6,1.05295 -12.9,2.09785 -14,2.32201 -4.46309,0.90949 -11.17505,1.94609 -14,2.16217 -1.65,0.12621 -4.575,0.53093 -6.5,0.89938 -1.925,0.36844 -4.625,0.84638 -6,1.06208 -1.375,0.2157 -8.125,1.27876 -15,2.36234 -6.875,1.08358 -16.55,2.4906 -21.5,3.1267 -4.95,0.6361 -11.7,1.78798 -15,2.55973 -3.3,0.77176 -11.4,2.14498 -18,3.05159 -13.31568,1.82913 -13.62818,1.92177 -12.89833,3.82373 0.31227,0.81375 -0.3924,1.55087 -1.79367,1.87628 -1.2694,0.29478 -7.708,1.97138 -14.308,3.72578 -12.85719,3.41768 -19.78543,3.97197 -33.69566,2.69582 -8.53705,-0.7832 -8.72509,-0.75283 -10.3097,1.6656 -2.32321,3.54567 -2.18528,20.47491 0.32291,39.63216 4.32307,33.01912 8.27552,62.21868 10.69342,79 1.3868,9.625 3.19208,22.225 4.01172,28 0.81965,5.775 1.70155,11.85 1.95977,13.5 0.25823,1.65 1.17325,8.4 2.03338,15 2.04765,15.71215 2.06995,15.77893 4.80131,14.38246 1.20057,-0.61383 3.98285,-2.8216 6.18285,-4.90617 3.00834,-2.8505 5.38263,-4.0698 9.57703,-4.9182 3.06737,-0.62044 6.44237,-0.83915 7.5,-0.48602 5.72515,1.91155 8.66062,3.94008 12.28029,8.48621 3.18939,4.0057 4.16066,6.20492 4.743,10.73947 0.94428,7.35279 -1.15582,42.47014 -3.12181,52.20225 -0.83329,4.125 -2.19828,13.125 -3.03331,20 -0.83504,6.875 -1.9566,16.1 -2.49238,20.5 -0.53577,4.4 -1.43893,12.5 -2.00702,18 -0.56808,5.5 -1.91329,15.12079 -2.98934,21.37953 C 657.88041,777.13827 657,786.4472 657,791.56604 l 0,9.30699 11,4.21621 c 6.05,2.31892 11,4.64564 11,5.17048 0,0.52484 -0.7875,0.64051 -1.75,0.25705 -6.58426,-2.62321 -19.50187,-5.6649 -20.37022,-4.79655 -0.65666,0.65666 -0.60048,3.93831 0.16602,9.69822 0.63718,4.78815 0.93681,10.36529 0.66583,12.39364 -0.4574,3.42379 3.46125,40.9938 5.12049,49.0926 0.67215,3.28079 1.27977,3.80733 6.94554,6.01868 3.41492,1.33285 6.08307,2.54925 5.92922,2.7031 -0.15386,0.15385 -2.65766,-0.41734 -5.56402,-1.26932 -2.90636,-0.85197 -5.53788,-1.29546 -5.84781,-0.98552 -0.30994,0.30994 0.21084,6.54061 1.15728,13.84595 0.94644,7.30534 2.36214,18.45743 3.14599,24.78243 0.78385,6.325 1.90346,13.87048 2.48801,16.76774 1.26642,6.27681 -0.81702,5.1959 28.91367,15.00067 42.9813,14.17463 146.82523,48.02249 160.5,52.31489 22.44169,7.0442 71.00748,22.9438 75.5,24.7173 1.375,0.5428 4.975,1.7203 8,2.6165 3.025,0.8963 10.45,3.2063 16.5,5.1335 6.05,1.9271 15.95,5.0657 22,6.9746 6.05,1.9089 22.925,7.3355 37.5,12.0591 14.575,4.7236 26.95,8.6794 27.5,8.7907 2.9235,0.5917 82.9858,27.2421 88.5,29.4591 3.575,1.4374 6.95,2.6974 7.5,2.8 3.2034,0.598 14.0822,3.8516 29,8.6733 9.35,3.0221 24.425,7.8183 33.5,10.6582 9.075,2.8399 18.3,5.7739 20.5,6.52 5.7474,1.9491 7.7412,1.8832 7.1299,-0.2356 z M 1204,1057.818 c -7.54,-2.3142 -8.5189,-3.0259 -7.5655,-5.5008 0.6434,-1.6704 0.7758,-1.6822 1.6377,-0.1471 0.5158,0.9186 3.8557,2.6412 7.4219,3.8279 3.5663,1.1868 6.7406,2.5728 7.0541,3.0799 0.8068,1.3055 -1.1099,1.023 -8.5482,-1.2599 z m -29.5,-9.5311 c -1.1,-0.2646 -2.4275,-0.8874 -2.95,-1.384 -1.4304,-1.3595 1.4748,-1.0303 4.95,0.561 2.9489,1.3503 1.9319,1.7688 -2,0.823 z m -53.75,-17.4492 c -1.5125,-0.5524 -2.75,-1.3935 -2.75,-1.869 0,-0.9455 5.9201,0.7772 7.45,2.1678 1.2562,1.1419 -1.1794,0.987 -4.7,-0.2988 z m -30,-10.084 c -3.7125,-1.1226 -6.75,-2.4351 -6.75,-2.9165 0,-0.4814 1.2375,-0.5656 2.75,-0.1871 3.3677,0.8427 11.25,4.2736 11.25,4.8967 0,0.2493 -0.1125,0.4071 -0.25,0.3507 -0.1375,-0.056 -3.2875,-1.0211 -7,-2.1438 z m -31.8229,-10.1943 c -2.5152,-0.694 -5.4402,-1.8082 -6.5,-2.476 -3.1667,-1.9951 4.2191,-0.637 9.5729,1.7603 5.0863,2.2776 3.7312,2.5931 -3.0729,0.7157 z m -36.4392,-11.92134 c -7.8619,-2.54784 -11.974,-4.55805 -9.4255,-4.60765 1.6675,-0.0325 18.9023,5.60099 19.7603,6.45889 1.1599,1.1599 -3.7659,0.2776 -10.3348,-1.85124 z M 986.79297,987.1725 c -7.04657,-2.50378 -8.51121,-4.57496 -1.8327,-2.59166 7.06562,2.09827 10.03973,3.25192 10.03973,3.89441 0,0.94323 -3.40891,0.40211 -8.20703,-1.30275 z M 961.5,978.50738 c -0.55,-0.1841 -3.5875,-1.11017 -6.75,-2.05794 -3.1625,-0.94777 -5.75,-2.15976 -5.75,-2.69332 0,-0.53355 0.5625,-0.7625 1.25,-0.50877 0.6875,0.25374 3.725,1.2572 6.75,2.22991 3.025,0.97272 5.9275,2.16327 6.45,2.64566 0.96117,0.8874 0.0747,1.06217 -1.95,0.38446 z m 215.2507,-7.0979 c -4.9489,-1.7917 -10.0418,-4.45169 -9.5209,-4.97266 0.2287,-0.22864 2.858,0.28637 5.843,1.14446 2.9849,0.85808 7.2272,1.8813 9.4272,2.2738 3.7781,0.67406 3.8788,0.78109 1.8157,1.92929 -2.541,1.41422 -2.6363,1.4095 -7.565,-0.37489 z M 934,969.88094 c -6.22464,-1.66943 -12,-4.02473 -12,-4.89384 0,-0.88752 2.23862,-0.36637 10.42184,2.42623 5.96901,2.03698 8.85333,3.55675 6.57816,3.46607 -0.825,-0.0329 -3.075,-0.48219 -5,-0.99846 z m 216.75,-6.04322 c -5.5419,-1.90287 -8.75,-3.53077 -8.75,-4.44011 0,-1.05707 0.7253,-1.26437 2.75,-0.78601 5.6513,1.33515 16.6023,5.93299 17.0021,7.1384 0.5901,1.77914 -1.1136,1.48303 -11.0021,-1.91228 z M 897.82072,958.1725 c -5.47458,-1.95676 -7.66207,-3.66722 -3.31867,-2.59496 6.42111,1.58517 13.03464,4.27639 10.49795,4.27189 -1.375,-0.002 -4.60568,-0.75706 -7.17928,-1.67693 z m 222.37668,-4.73128 c -6.1981,-1.66818 -9.1974,-3.12793 -9.1974,-4.4764 0,-1.42973 1.1549,-1.22357 9.1904,1.64059 11.5018,4.09966 11.5063,5.93077 0.01,2.83581 z M 871.75,949.75374 c -3.7125,-1.12268 -6.75,-2.39974 -6.75,-2.83791 0,-0.74971 13.74425,3.49509 14.82896,4.5798 0.79925,0.79925 -0.85599,0.44236 -8.07896,-1.74189 z M 1080,940.11153 c -7.8416,-2.13309 -16.9532,-6.16472 -15.3269,-6.7818 1.5526,-0.58912 19.4168,5.53002 21.2912,7.29302 1.7549,1.65056 2.0877,1.67909 -5.9643,-0.51122 z m -240.8125,-0.79464 c -2.37188,-0.83887 -4.08853,-1.7492 -3.81478,-2.02294 0.53461,-0.53461 10.62728,2.58648 10.62728,3.28642 0,0.74316 -2.3944,0.29908 -6.8125,-1.26348 z m -26.86573,-8.64297 c -1.74803,-0.64566 -3.54803,-1.56732 -4,-2.04815 -0.9333,-0.99287 2.661,-0.0334 7.17823,1.91628 3.7463,1.6169 1.13555,1.72523 -3.17823,0.13187 z m 219.46753,-6.02761 C 1024.6465,922.36176 1020.9782,920 1024.5728,920 c 1.8075,0 17.3161,5.5556 18.325,6.56448 1.0851,1.08511 -5.008,0.033 -11.1085,-1.91817 z m -249.55334,-3.55672 c -7.63564,-2.57261 -10.89443,-4.10804 -8.65263,-4.07682 1.45137,0.0202 16.55664,4.96191 18.32197,5.99404 3.07118,1.79563 -1.11012,0.96656 -9.66934,-1.91722 z M 1177,912 c 0,-0.55 0.45,-1 1,-1 0.55,0 1,0.45 1,1 0,0.55 -0.45,1 -1,1 -0.55,0 -1,-0.45 -1,-1 z m -188.5,-1.603 c -8.72608,-2.55446 -13.5,-4.53055 -13.5,-5.58812 0,-1.70748 13.62596,2.68454 17.55982,5.66001 2.34545,1.77404 2.23948,1.77216 -4.05982,-0.0719 z m -247.79225,-2.85776 c -9.56582,-3.21432 -14.18547,-5.44224 -8.2057,-3.95737 6.05859,1.50445 21.93569,7.26612 19.99795,7.25709 -1.1,-0.005 -6.40651,-1.48999 -11.79225,-3.29972 z M 1180,900 c 0,-0.55 0.45,-1 1,-1 0.55,0 1,0.45 1,1 0,0.55 -0.45,1 -1,1 -0.55,0 -1,-0.45 -1,-1 z m -479.3385,-5.63548 c -5.96118,-1.93647 -10.62832,-3.73103 -10.37144,-3.98792 0.5287,-0.5287 22.70994,6.47779 22.70994,7.17349 0,0.75018 -1.08542,0.46995 -12.3385,-3.18557 z M 939.5,894.54973 c -10.12472,-2.92054 -14.34576,-4.65976 -12.74839,-5.2528 1.68138,-0.62423 21.24839,5.62614 21.24839,6.78745 0,0.50359 -0.1125,0.88353 -0.25,0.84431 -0.1375,-0.0392 -3.85,-1.10975 -8.25,-2.37896 z m -53,-16.93995 c -7.79255,-2.47981 -12.01609,-4.52919 -9.43759,-4.57937 1.66749,-0.0325 18.90232,5.60099 19.76024,6.45891 1.10765,1.10765 -3.66847,0.23802 -10.32265,-1.87954 z m 2.22224,-8.62121 c -2.19861,-2.56779 -2.16932,-2.7389 0.44534,-2.60203 1.49321,0.0782 2.219,0.81346 2.33288,2.36346 0.20426,2.78031 -0.5467,2.84479 -2.77822,0.23857 z M 840,862.73213 c -3.575,-1.14444 -5.825,-2.23726 -5,-2.42848 0.825,-0.19123 4.65,0.75373 8.5,2.0999 8.50171,2.97266 5.60817,3.24431 -3.5,0.32858 z m -33,-10.37581 c -5.70492,-1.84759 -10.05929,-3.63037 -9.71295,-3.9767 0.49733,-0.49734 13.71295,3.51233 13.71295,4.16056 0,0.5626 -1.9755,0.47179 -4,-0.18386 z m 236.2127,-1.07915 c -0.708,-0.97744 -1.0189,-1.21467 -0.691,-0.52717 0.3385,0.70946 -0.052,1.25 -0.9037,1.25 -2.8243,0 -2.6232,-1.81787 0.4912,-4.43844 2.3632,-1.98846 3.4351,-2.3547 4.4432,-1.51803 1.3443,1.11566 0.9235,3.95647 -0.5861,3.95647 -0.4508,0 -0.9651,0.68723 -1.143,1.52717 -0.2732,1.29058 -0.5227,1.25185 -1.6106,-0.25 z m 0.058,-7.88134 c 0.3323,-0.33229 1.1948,-0.36781 1.9167,-0.0789 0.7977,0.31922 0.5608,0.55618 -0.6042,0.60416 -1.0541,0.0434 -1.6448,-0.19293 -1.3125,-0.52522 z m -270.21408,-1.56469 c -4.00824,-1.15068 -8.33051,-3.86018 -6.02923,-3.77954 2.35611,0.0825 13.68301,4.80953 11.47251,4.78774 -1.1,-0.0109 -3.54948,-0.46454 -5.44328,-1.0082 z m 273.20518,-6.52162 c 0.9298,-0.92976 2.0257,-1.35529 2.4353,-0.94562 0.4097,0.40966 0.083,1.16349 -0.7262,1.67516 -2.4345,1.53967 -3.5165,1.07785 -1.7091,-0.72954 z M 743,831.6555 c -7.42251,-2.21422 -12.6459,-4.56633 -10.27105,-4.62509 1.48264,-0.0367 16.15597,4.81349 18.27105,6.03938 2.41698,1.40087 0.0113,0.97558 -8,-1.41429 z m 163.56429,-8.36237 c -0.54268,-1.4252 -0.42782,-1.54006 0.5598,-0.5598 0.68342,0.67834 0.99067,1.48524 0.68278,1.79313 -0.30789,0.30789 -0.86705,-0.24711 -1.24258,-1.23333 z m -207.24995,-5.66525 c -3.40212,-1.17034 -6.51462,-2.46538 -6.91667,-2.87788 -1.52717,-1.56686 3.38533,-0.52434 10.60233,2.25 8.63725,3.32031 5.63026,3.83256 -3.68566,0.62788 z m 204.19574,-22.61157 c -0.34546,-0.55897 0.0734,-1.01631 0.9309,-1.01631 1.75653,0 2.01516,0.60006 0.62812,1.45729 -0.512,0.31644 -1.21356,0.11799 -1.55902,-0.44098 z m 270.89912,-2.39222 c -0.8355,-2.17742 -0.2507,-2.76221 1.6114,-1.61136 1.1436,0.70678 1.199,1.1677 0.2538,2.11285 -0.9451,0.94514 -1.352,0.83574 -1.8652,-0.50149 z M 981.01531,779.25 c 0.008,-0.4125 0.45153,-1.425 0.98469,-2.25 0.78387,-1.21296 0.9723,-1.06944 0.98469,0.75 0.008,1.2375 -0.43469,2.25 -0.98469,2.25 -0.55,0 -0.99311,-0.3375 -0.98469,-0.75 z m 15.58066,-279.63949 c 0.31511,-0.82117 1.34897,-1.17616 2.52773,-0.86792 1.441,0.37685 2.1492,-0.07 2.552,-1.61051 0.3067,-1.17264 1.1801,-2.13208 1.9409,-2.13208 2.0264,0 1.7133,0.80554 -1.3666,3.51636 -3.0346,2.67091 -6.51775,3.34496 -5.65403,1.09415 z M 1006,487.4131 c 0,-0.61113 5.0532,-2.64617 7.1517,-2.88019 1.0462,-0.11667 1.4539,0.33129 1.1121,1.22202 -0.3048,0.7944 -1.3498,1.19435 -2.4017,0.91926 -1.0242,-0.26782 -1.8621,-0.17484 -1.8621,0.20663 0,0.38146 -0.9,0.76137 -2,0.84423 -1.1,0.0829 -2,-0.0575 -2,-0.31195 z m 10.5101,-1.39679 c -0.3455,-0.55897 0.073,-1.01631 0.9309,-1.01631 1.7565,0 2.0151,0.60006 0.6281,1.45729 -0.512,0.31644 -1.2136,0.11799 -1.559,-0.44098 z M 1027,483.8712 c 0,-1.63169 0.3192,-1.77073 2,-0.8712 1.1,0.5887 2,1.22705 2,1.41855 0,0.1915 -0.9,0.58354 -2,0.8712 -1.4929,0.39039 -2,0.0307 -2,-1.41855 z M 1015,482.5 c -0.6944,-0.83674 -0.8027,-1.5 -0.2449,-1.5 0.55,0 1.5602,0.675 2.2449,1.5 0.6944,0.83674 0.8027,1.5 0.2449,1.5 -0.55,0 -1.5602,-0.675 -2.2449,-1.5 z m -82,-13.94098 c 0,-0.24254 0.45,-0.7191 1,-1.05902 0.55,-0.33992 1,-0.14148 1,0.44098 0,0.58246 -0.45,1.05902 -1,1.05902 -0.55,0 -1,-0.19844 -1,-0.44098 z m 70.6241,-7.19757 c 0.3643,-1.4512 0.7654,-3.5887 0.8915,-4.75 0.126,-1.1613 0.2866,-2.4393 0.3568,-2.84001 0.1722,-0.98294 5.1276,1.32591 5.1276,2.38908 0,1.70058 -0.5307,2.31886 -1.75,2.03886 -1.1642,-0.26735 -1.7168,1.08048 -1.3156,3.20898 0.1759,0.93323 -1.8332,2.54904 -3.2035,2.57633 -0.4229,0.008 -0.471,-1.17204 -0.1068,-2.62324 z M 647.09302,793.5 c -0.5935,-2.75 -3.35048,-22.55 -6.12662,-44 -2.77614,-21.45 -6.12333,-46.65 -7.43821,-56 -1.31487,-9.35 -2.90932,-21.45022 -3.54322,-26.88937 -1.63765,-14.05197 -2.35643,-15.48244 -4.32661,-8.61063 -4.12234,14.37828 -6.01073,28.35038 -6.08194,45 -0.0682,15.94693 0.0534,16.96927 3.62834,30.5 6.92754,26.22002 16.42041,55.85165 22.04676,68.81815 L 647.5,807.5 647.83606,803 c 0.18483,-2.475 -0.14953,-6.75 -0.74304,-9.5 z m 5.41955,-15.52431 c 0.86017,-1.66338 1.46331,-3.57588 1.34032,-4.25 -0.12299,-0.67413 0.2838,-3.70069 0.90399,-6.72569 1.13664,-5.54405 3.26808,-22.74758 3.82944,-30.90859 0.40536,-5.89328 4.19383,-35.18627 5.44368,-42.09141 1.93624,-10.69731 4.11879,-39.64128 3.78338,-50.17357 -0.32452,-10.19013 -0.4793,-10.84688 -3.4175,-14.5 -4.57226,-5.68478 -7.19202,-6.66392 -14.1613,-5.2928 -5.08606,1.00062 -6.58368,1.90761 -12.50627,7.57406 -4.37747,4.18815 -6.72625,7.2156 -6.72241,8.66481 0.003,1.22513 0.6856,6.7275 1.51637,12.2275 0.83076,5.5 2.19128,15.85 3.02337,23 0.83209,7.15 2.85941,22.225 4.50515,33.5 1.64573,11.275 3.87587,26.8 4.95585,34.5 3.21971,22.95566 5.42764,37.5 5.69276,37.5 0.13708,0 0.95301,-1.36094 1.81317,-3.02431 z M 1363.1661,523.03842 c -7.0838,-13.82165 -14.5487,-24.40435 -28.2915,-40.10772 -9.3415,-10.6741 -20.3757,-23.86287 -23.2822,-27.82818 -3.5902,-4.89815 -22.0868,-23.28691 -27.5198,-27.35944 -2.9851,-2.23757 -10.7918,-9.50763 -17.3481,-16.15569 -9.1852,-9.31355 -14.2136,-15.52962 -21.9121,-27.08739 -16.1986,-24.31886 -24.1603,-42.54232 -27.2777,-62.4355 -1.704,-10.87417 -7.2772,-36.83891 -8.2426,-38.40092 -0.8243,-1.33367 -8.7513,0.0179 -13.0453,2.2242 -3.5268,1.81212 -14.0678,12.54807 -23.0694,23.49596 -2.2086,2.68606 -5.9526,8.4826 -8.32,12.88119 -2.6054,4.84066 -5.8397,9.22851 -8.194,11.11626 -10.5788,8.48243 -14.6634,13.06093 -14.6634,16.43626 0,0.50423 1.7635,2.08378 3.9188,3.51013 2.1554,1.42634 11.0429,9.72754 19.75,18.4471 15.0525,15.0739 21.804,20.5415 30.8312,24.96809 6.0011,2.94272 14.6288,8.39348 19.0373,12.0274 2.1551,1.77641 4.4253,3.22983 5.0448,3.22983 1.5878,0 18.3872,14.65152 27.9472,24.374 4.4162,4.49119 10.7162,9.98423 14,12.20676 3.2839,2.22253 8.2207,5.55897 10.9707,7.41431 4.4149,2.97861 10.8902,8.20271 19.727,15.91517 1.5189,1.32563 3.8328,3.12563 5.142,4 6.8097,4.54793 8.5708,5.84025 13.631,10.00261 3.025,2.48829 11.575,10.41232 19,17.60896 7.425,7.19663 15.975,14.95785 19,17.24716 3.025,2.2893 8.1472,6.21809 11.3827,8.73063 3.2355,2.51254 6.1138,4.33719 6.3963,4.05477 0.2824,-0.28241 -1.7934,-5.01459 -4.6129,-10.51595 z m -907.61993,0.86841 c 7.33969,-1.35681 10.49595,-2.9577 17.35643,-8.80338 11.24608,-9.58257 14.7577,-13.75157 15.85123,-18.81864 0.56794,-2.63165 1.97007,-8.15981 3.11585,-12.28481 2.29301,-8.25516 2.72313,-16.60481 1.04511,-20.28768 -1.93863,-4.25482 -5.77534,-5.69132 -13.7537,-5.14949 -3.93798,0.26743 -8.31452,0.9252 -9.72563,1.46171 -1.41111,0.5365 -4.08481,0.97546 -5.94154,0.97546 -1.85674,0 -3.67296,0.48068 -4.03605,1.06817 -0.3631,0.5875 -1.31498,0.8169 -2.1153,0.50979 -1.36154,-0.52247 -7.68576,0.34948 -28.34257,3.90774 -4.675,0.8053 -10.3,1.67824 -12.5,1.93986 -7.35475,0.87465 -11.57037,1.7034 -15.29984,3.00779 l -3.70016,1.29415 0.0756,8.88625 c 0.0769,9.03846 0.1931,9.45963 6.09492,22.09035 3.62375,7.7553 11.60251,13.45622 23.73993,16.96246 2.79926,0.80865 7.11456,2.08411 9.58956,2.83436 5.60229,1.69823 10.92516,1.81473 18.54617,0.40591 z M 358.83391,475.3736 c 4.21635,-0.34363 7.91887,-1.02024 8.22781,-1.50357 0.30895,-0.48334 1.65895,-0.80174 3,-0.70757 3.07681,0.21605 16.55439,-2.03616 20.14483,-3.36637 2.4448,-0.90576 4.55061,-4.62873 5.40073,-9.54823 0.11901,-0.68868 1.15606,-3.19326 2.30455,-5.56573 1.14849,-2.37247 2.08817,-4.75742 2.08817,-5.29988 0,-1.6369 9.14943,-14.74442 14.73313,-21.10676 7.58554,-8.64333 9.27542,-10.92798 9.19645,-12.43322 -0.0387,-0.73825 -1.74858,-4.01781 -3.79967,-7.28791 -4.81125,-7.6707 -10.38196,-10.92049 -17.09272,-9.97138 -5.9237,0.8378 -12.20641,4.28311 -13.77375,7.55324 -0.68627,1.43186 -4.17734,5.76759 -7.75792,9.63496 -5.1329,5.54399 -8.2328,10.38445 -14.65284,22.88019 -12.21057,23.76625 -15.76935,30.54515 -17.76983,33.84863 -1.98025,3.27009 -1.72972,4.96221 0.60221,4.06736 0.81551,-0.31294 4.93249,-0.85014 9.14885,-1.19376 z m 284.89706,-42.06659 c -0.97297,-0.25354 -2.32297,-0.23687 -3,0.0371 -0.67703,0.27393 0.11903,0.48137 1.76903,0.46099 1.65,-0.0204 2.20394,-0.2445 1.23097,-0.49804 z m -36.8077,-14.8959 c 3.89147,-3.27446 3.86297,-4.57961 -0.17327,-7.9355 -1.7875,-1.48619 -4.26019,-4.3387 -5.49488,-6.33889 -2.57768,-4.17587 -2.6933,-3.43182 -1.16931,7.52526 1.49627,10.75779 1.76187,11.01996 6.83746,6.74913 z M 1573.4956,1776.9929 c -0.3423,-0.5538 0.1006,-1.2844 0.9841,-1.6235 1.9147,-0.7347 2.9818,0.075 2.0614,1.5641 -0.8304,1.3435 -2.2349,1.371 -3.0455,0.059 z M 974.17204,1651.25 c -0.49409,-0.9625 -1.19332,-5.0691 -1.55385,-9.1257 -0.36054,-4.0566 -0.86138,-7.7088 -1.11299,-8.1159 -0.2516,-0.4071 -1.59321,-0.5231 -2.98133,-0.2577 -2.90463,0.5552 -3.02098,1.5044 -1.15585,9.4291 1.408,5.9824 0.84375,8.4992 -1.68772,7.5278 -1.37661,-0.5283 -5.46455,-12.1724 -7.14866,-20.3624 -0.86021,-4.1832 0.89983,-5.1417 4.52294,-2.463 3.03573,2.2444 6.94542,2.8363 6.94542,1.0514 0,-0.5866 1.21149,-0.9241 2.69221,-0.75 2.08275,0.2448 2.87974,1.0451 3.5206,3.5356 0.76259,2.9634 1.01951,3.1321 3.23405,2.1231 1.32311,-0.6029 3.56384,-0.8054 4.9794,-0.4502 3.21848,0.8078 3.3679,3.5869 0.44694,8.3131 -2.93437,4.7479 -1.49383,6.1431 4.64699,4.5006 6.022,-1.6106 7.0246,-1.5672 5.52529,0.2394 -1.59922,1.9269 -10.67624,4.8846 -13.0698,4.2587 -1.04618,-0.2736 -2.42379,0.1311 -3.06136,0.8993 -1.58399,1.9086 -3.66062,1.7539 -4.74228,-0.3532 z m 4.22578,-40.8011 c -0.46307,-1.845 -0.12237,-2.9433 1.23094,-3.9682 4.3954,-3.3286 7.90828,-0.4755 4.95814,4.027 -2.16056,3.2975 -5.35433,3.2671 -6.18908,-0.059 z M 11,1580.607 c 0,-0.2162 0.698372,-0.661 1.551938,-0.9886 0.889925,-0.3415 1.291322,-0.1738 0.940983,0.3931 C 12.905663,1580.9617 11,1581.4169 11,1580.607 z m 1290.125,-40.482 c 0.4182,-1.2547 1.875,-1.5461 1.875,-0.375 0,0.4125 -0.5062,0.9188 -1.125,1.125 -0.6187,0.2063 -0.9562,-0.1312 -0.75,-0.75 z m -158.5601,-73.0533 c -1.1231,-1.2409 -1.5085,-2.674 -1.0814,-4.0198 l 0.6638,-2.0915 1.6764,2.014 c 0.9361,1.1248 2.1689,1.6855 2.792,1.2698 1.8096,-1.2071 5.282,-8.7523 5.9497,-12.9281 0.6925,-4.3304 -1.3026,-7.6296 -5.3203,-8.7982 -3.2862,-0.9557 -3.8787,1.702 -1.9688,8.8302 0.8879,3.3138 1.281,6.6205 0.8737,7.3484 -1.5452,2.7611 -3.8682,-1.3115 -7.5269,-13.1965 -2.0318,-6.6 -4.3958,-13.2665 -5.2533,-14.8145 -1.2935,-2.335 -1.3495,-3.3202 -0.3291,-5.7839 1.6885,-4.0762 5.5844,-6.9016 9.5166,-6.9016 2.8962,0 3.431,0.4345 4.492,3.6494 0.7215,2.1863 0.9654,5.9357 0.6083,9.3523 l -0.5961,5.703 3.7193,2.3977 c 2.0455,1.3187 4.5336,4.0637 5.5289,6.1001 2.6047,5.3291 0.8213,14.1161 -4.0106,19.7611 -3.8455,4.4927 -6.9649,5.1682 -9.7342,2.1081 z m 0.1283,-38.821 c 0.6113,-4.5579 -0.9956,-6.4228 -2.7346,-3.1734 -1.3856,2.5891 -0.3485,9.7126 1.1901,8.174 0.555,-0.555 1.25,-2.8053 1.5445,-5.0006 z m -21.0273,22.6221 c -2.0091,-1.1681 -1.8353,-2.9817 1.0185,-10.6228 1.901,-5.09 2.9289,-5.3771 3.5808,-1 0.2662,1.7875 1.0755,4.6764 1.7984,6.4198 1.0844,2.6153 1.0849,3.4463 0,4.75 -1.5103,1.8199 -3.7741,1.9801 -6.4006,0.453 z m 4.9093,-21.6228 c 0.8137,-2.6125 1.7484,-5.9875 2.0771,-7.5 0.3293,-1.5149 1.2726,-2.75 2.1005,-2.75 2.301,0 0.7572,7.4648 -2.3999,11.604 -1.4247,1.8678 -2.7403,3.396 -2.9238,3.396 -0.1834,0 0.3323,-2.1375 1.1461,-4.75 z m 7.9223,-23.9275 c 2.779,-9.3538 4.2133,-12.8172 5.1031,-12.3225 1.2827,0.7131 0.588,4.6541 -1.9258,10.9258 -2.8599,7.135 -5.1859,8.1575 -3.1773,1.3967 z m 12.443,-37.8642 c 2.5572,-9.2267 5.8921,-16.819 5.9889,-13.6346 0.096,3.1535 -4.7068,17.323 -6.4856,19.1346 -1.1086,1.1291 -0.9965,-0.1123 0.4967,-5.5 z m 66.1821,-3.5571 c -2.8506,-3.0597 -3.2833,-6.0492 -1.6577,-11.4507 1.5835,-5.2618 1.2043,-6.9576 -1.3161,-5.8853 -0.9068,0.3858 -2.8761,0.6351 -4.3762,0.554 -3.0258,-0.1637 -3.5464,0.9897 -4.0089,8.8808 -0.2195,3.7454 -0.5991,4.5 -2.2637,4.5 -1.6351,0 -2.2342,-1.0946 -3.2837,-6 -4.1028,-19.1766 -4.0449,-23.1733 0.4124,-28.4706 1.8863,-2.2417 3.4042,-3.0294 5.8377,-3.0294 4.8767,0 6.0588,2.1193 5.881,10.5438 l -0.1526,7.2317 3.7247,0.5956 c 5.4101,0.8652 6.8272,3.9512 5.2719,11.481 -0.6553,3.1726 -1.1914,6.3037 -1.1914,6.9581 0,1.8848 5.1796,1.3776 8.8628,-0.8678 3.7698,-2.2983 4.6279,-2.0638 3.6558,0.999 -0.7733,2.4364 -7.3138,6.0586 -10.9398,6.0586 -1.3755,0 -3.3808,-0.9445 -4.4562,-2.0988 z m -10.1895,-30.6211 c 1.0505,-3.8047 0.1795,-6.0857 -1.846,-4.834 -1.3364,0.826 -1.4576,8.5539 -0.1341,8.5539 0.5241,0 1.4152,-1.674 1.9801,-3.7199 z m 165.3377,32.1157 c 0.3323,-0.3323 1.1948,-0.3678 1.9167,-0.079 0.7977,0.3192 0.5608,0.5562 -0.6042,0.6042 -1.0541,0.043 -1.6448,-0.193 -1.3125,-0.5253 z m 4.4304,-1.0279 c -1.369,-1.3691 -0.6673,-2.1544 1.798,-2.0121 1.3746,0.079 2.3498,0.5942 2.1671,1.1442 -0.4125,1.2424 -3.0199,1.8131 -3.9651,0.8679 z m -189.5048,-7.1179 c -0.4807,-0.9625 -0.609,-7.15 -0.2852,-13.75 0.5465,-11.1371 0.7326,-12 2.5888,-12 1.8769,0 2.0173,0.7606 2.2817,12.3594 0.1882,8.2583 -0.1013,12.8208 -0.8725,13.75 -1.5437,1.86 -2.6583,1.7521 -3.7128,-0.3594 z m -20.5647,-13.3655 c -1.9042,-2.7185 -0.7086,-6.1581 2.3951,-6.8908 1.4735,-0.3479 2.7064,-1.7164 3.3987,-3.7726 1.0118,-3.0049 1.0993,-2.7648 1.2732,3.4927 0.1026,3.6957 -0.2927,7.2969 -0.8785,8.0028 -1.6063,1.9355 -4.5249,1.543 -6.1885,-0.8321 z M 1156,1340.8053 c 0,-0.8573 4.1279,-14.1599 4.6768,-15.0716 0.2538,-0.4215 0.8691,-0.5144 1.3673,-0.2064 0.9296,0.5745 -3.384,13.2126 -5.093,14.9216 -0.5231,0.5231 -0.9511,0.6835 -0.9511,0.3564 z m 18.0545,-24.3772 c -0.096,-1.8909 3.2775,-10.9322 3.6558,-9.7973 0.2005,0.6015 -0.5278,3.2932 -1.6184,5.9814 -1.0905,2.6883 -2.0074,4.4055 -2.0374,3.8159 z m -6.7775,-10.4994 c 0.2877,-0.8643 1.7627,-5.7018 3.2777,-10.75 1.5151,-5.0483 3.135,-9.1787 3.6,-9.1787 0.4649,0 0.8475,0.5625 0.8501,1.25 0.01,2.0195 -5.2326,16.0695 -6.8069,18.25 -0.8628,1.1951 -1.2335,1.3676 -0.9209,0.4287 z m 218.3331,-2.7157 c -1.6611,-3.2124 -4.6101,-16.7131 -4.6101,-21.1057 0,-6.6938 4.5749,-12.9404 8.0968,-11.0555 4.4868,2.4013 5.1523,9.6748 1.5965,17.4482 -1.9042,4.1627 -2.1571,5.8373 -1.51,10 1.1953,7.6893 -0.7246,10.2216 -3.5732,4.713 z m 2.6319,-25.745 c -1.1939,-2.1334 -2.7381,-0.2032 -1.7978,2.2471 0.4416,1.151 0.9311,1.3096 1.6922,0.5485 0.7088,-0.7088 0.7445,-1.654 0.1056,-2.7956 z m 11.508,21.4519 c -4.4807,-2.6098 -6.2676,-13.0846 -3.2331,-18.9526 2.2316,-4.3154 6.88,-6.4598 10.6329,-4.9052 7.1821,2.9749 7.6462,15.2958 0.8328,22.1091 -2.9615,2.9615 -5.2981,3.4579 -8.2326,1.7487 z m 8.0274,-11.0759 c 1.6391,-5.9363 -1.7448,-10.7337 -5.1613,-7.3172 -2.192,2.192 -2.1887,10.7578 0.01,12.9514 1.4947,1.4948 1.7196,1.4804 2.8855,-0.1841 0.6954,-0.9929 1.7173,-3.4454 2.2708,-5.4501 z m 17.7773,8.5992 c -0.9214,-1.4063 -3.2548,-7.3688 -5.1853,-13.25 -3.0101,-9.1702 -3.3626,-11.1917 -2.4747,-14.1932 0.5694,-1.925 1.3071,-4.5149 1.6394,-5.7554 0.3323,-1.2405 1.7706,-3.6417 3.1963,-5.3361 4.1416,-4.922 9.2609,-5.9796 10.7067,-2.2118 0.4603,1.1994 0.039,1.4363 -1.8976,1.0661 -4.1765,-0.7984 -8.7062,6.4674 -8.7062,13.9654 0,6.0962 1.0703,6.9277 6.25,4.8551 6.3701,-2.5488 7.239,-0.4741 1.4966,3.5735 -4.5563,3.2116 -4.6614,3.4033 -4.0133,7.3206 0.3661,2.2124 1.0634,4.7805 1.5495,5.7069 1.1442,2.1803 1.1435,6.8157 0,6.8157 -0.4867,0 -1.6389,-1.1506 -2.5603,-2.5568 z M 1182.5871,1290 c 0.3631,-1.375 1.2609,-3.85 1.9951,-5.5 l 1.3349,-3 -0.5969,3 c -0.3283,1.65 -1.2261,4.125 -1.9951,5.5 l -1.3982,2.5 0.6602,-2.5 z M 1181,1266.0719 c 0,-2.5737 4.227,-15.0719 5.0974,-15.0719 1.4783,0 1.0499,2.2914 -1.6974,9.0776 -2.7927,6.8986 -3.4,7.9693 -3.4,5.9943 z m 11.383,-6.3495 c 1.4023,-4.6594 3.5365,-8.9145 3.5866,-7.1505 0.051,1.8058 -3.1021,10.3919 -4.0263,10.9631 -0.4782,0.2956 -0.2803,-1.4201 0.4397,-3.8126 z M 55.410347,1215.9009 c -1.879604,-2.0769 -1.868062,-2.1243 1.095013,-4.495 1.772034,-1.4178 4.321501,-2.398 6.24464,-2.4009 2.801325,0 3.25,0.3401 3.25,2.495 0,5.5813 -6.919108,8.4568 -10.589653,4.4009 z m 5.070708,-0.8937 c 2.175942,-0.8273 2.395178,-1.2263 1.3151,-2.3935 -1.472136,-1.5909 -4.201666,-0.6053 -5.147121,1.8585 -0.683427,1.781 0.222236,1.9074 3.832021,0.535 z m 1395.992545,-1.4161 c -4.2652,-10.2081 -4.1876,-20.0977 0.1846,-23.5369 2.3433,-1.8432 2.7726,-1.8828 5.4429,-0.5019 3.5192,1.8198 3.8509,5.4904 0.8989,9.9477 -4.039,6.0987 -1.9394,10.516 6.1688,12.9784 3.5283,1.0716 3.9801,1.4573 2.4371,2.0808 -1.123,0.4538 -3.6674,0.1082 -6.25,-0.849 l -4.3559,-1.6144 0,2.4521 c 0,3.656 -2.8508,3.0534 -4.5264,-0.9568 z m 43.7858,2.5904 c -1.3776,-0.8749 -5.2594,-15.0026 -5.2594,-19.1415 0,-1.452 -0.54,-3.18 -1.2,-3.84 -0.9333,-0.9333 -0.8222,-1.2 0.5,-1.2 1.0459,0 1.7,-0.787 1.7,-2.0455 0,-1.125 1.1045,-3.15 2.4545,-4.5 3.248,-3.2479 7.6065,-3.2084 11.2397,0.1018 2.5779,2.3487 2.6231,2.5057 0.5558,1.9326 -5.0058,-1.3876 -8.9901,2.7141 -7.6855,7.9119 0.4811,1.9168 1.2062,2.2496 4.7516,2.1806 3.5444,-0.069 4.1839,0.2243 4.1839,1.9186 0,1.4843 -1.1279,2.3568 -4.3744,3.3838 l -4.3744,1.3839 0.6523,6.3661 c 0.6636,6.4778 0.043,7.5721 -3.1441,5.5477 z m -23.5718,-4.4421 c -1.9991,-1.5998 -2.9746,-3.4605 -3.3735,-6.4346 -0.8532,-6.3608 0.2035,-9.3048 3.3398,-9.3048 l 2.6158,0 -2.7062,-2.1287 c -4.169,-3.2793 -2.0016,-4.2485 6.538,-2.9235 4.023,0.6242 7.4293,1.2496 7.5695,1.3899 0.1402,0.1402 -0.6326,1.7144 -1.7174,3.4982 -1.2094,1.9887 -3.7093,3.9877 -6.463,5.1681 -4.7895,2.0531 -5.8442,4.7626 -3.2399,8.3242 1.1755,1.6075 1.4739,1.5966 4.961,-0.1812 4.0153,-2.0471 5.0002,-1.8757 4.0254,0.7008 -1.7702,4.6784 -6.9973,5.5346 -11.5495,1.8916 z m -225.4168,-86.3436 c 0.3323,-0.3323 1.1948,-0.3678 1.9167,-0.079 0.7977,0.3192 0.5608,0.5562 -0.6042,0.6042 -1.0541,0.043 -1.6448,-0.193 -1.3125,-0.5253 z m 61.6189,-35.2031 c -4.2667,-3.8123 -4.9977,-8.6884 -2.6523,-17.6927 1.0029,-3.85 1.6972,-8.1212 1.543,-9.4914 -0.3754,-3.3356 -3.2866,-3.7498 -7.0095,-0.9973 -2.7438,2.0285 -3.1121,2.0761 -4.5951,0.593 -1.4831,-1.483 -1.4435,-1.7811 0.4939,-3.7185 2.7342,-2.7342 10.0626,-3.6173 12.8303,-1.5461 1.6973,1.2701 1.9879,2.6065 1.92,8.8285 -0.044,4.0325 -0.4433,10.1363 -0.8873,13.5639 -1.0974,8.4726 -0.06,9.6842 7.6884,8.9816 6.3259,-0.5736 7.9352,0.9828 3.2318,3.1258 -4.4637,2.0338 -9.1282,1.4224 -12.5632,-1.6468 z m -44.9439,-7.0219 c -6.4827,-4.1255 -7.6991,-5.8461 -5.6099,-7.9353 1.5521,-1.5521 1.6641,-1.5233 1.6641,0.4278 0,2.5639 1.8416,4.1741 6.6738,5.8354 4.8472,1.6664 8.55,0.3578 10.7976,-3.8158 2.9364,-5.4525 1.8637,-7.7016 -5.4714,-11.4716 -7.2755,-3.7393 -13,-8.3321 -13,-10.4298 0,-2.3946 6.4765,-7.8463 9.5885,-8.0711 3.9462,-0.2852 3.6974,1.6224 -0.5885,4.5106 -5.189,3.4969 -4.6145,5.6806 2.5,9.5009 8.7708,4.7098 8.7746,4.7074 7.987,-5.0172 -0.6664,-8.2279 -0.6475,-8.3214 2.3218,-11.5 3.7101,-3.9717 7.8418,-4.27 11.1004,-0.8014 4.7194,5.0236 4.1936,13.6622 -1.2674,20.8219 -2.5324,3.3201 -2.5922,3.688 -1.4916,9.1684 0.89,4.4317 0.8729,5.9778 -0.076,6.908 -0.955,0.9357 -1.7536,0.5408 -3.6435,-1.8016 -1.3312,-1.65 -2.4226,-2.5369 -2.4253,-1.9708 0,0.566 -1.6313,2.7035 -3.619,4.75 -4.6104,4.7465 -8.9856,4.9992 -15.4402,0.8916 z m 26.0671,-25.6916 c 1.794,-2.9028 2.0221,-4.1754 1.2995,-7.25 -0.7158,-3.0454 -1.3748,-3.7872 -3.594,-4.0456 -2.1596,-0.2514 -2.9228,0.2238 -3.7179,2.3151 -1.3189,3.4688 -1.2649,6.827 0.16,9.9542 1.5848,3.4783 3.2746,3.1971 5.8524,-0.9737 z m -45.761,17.9228 c -1.63,-3.418 -7.2926,-7.402 -10.5209,-7.402 -0.7418,0 -2.2222,-0.671 -3.2899,-1.4912 -1.6505,-1.268 -1.2673,-1.2551 2.5589,0.086 2.475,0.8673 7.3336,1.6944 10.7968,1.838 6.9569,0.2886 8.4532,1.1718 8.4532,4.9895 0,6.2048 -5.3517,7.5297 -7.9981,1.9801 z m 20.7245,-76.43514 c -1.1879,-1.66823 -2.2693,-4.03073 -2.4032,-5.25 -0.134,-1.21927 -1.2543,-5.25421 -2.4898,-8.96653 -2.5217,-7.57731 -1.9175,-7.54413 -10.0323,-0.551 -3.888,3.35052 -4.2335,4.01511 -3.6644,7.04857 0.4253,2.26676 0.1411,3.97997 -0.8792,5.30068 -1.4919,1.93117 -1.5231,1.93128 -3.0075,0.0103 -1.1375,-1.47203 -1.5224,-4.97617 -1.5927,-14.5 -0.1271,-17.20755 0.083,-20.87236 1.4297,-24.97267 1.4037,-4.27282 5.522,-6.27806 8.2477,-4.01589 2.6497,2.19907 9.8606,19.00831 14.3408,33.42969 0.6835,2.2 2.1324,5.96619 3.2198,8.36931 3.1005,6.85198 0.8576,9.75228 -3.1689,4.09755 z m -13.4045,-21.56188 c 2.4355,-1.42726 4.4281,-3.05849 4.4281,-3.62496 0,-1.31231 -5.0307,-12.84406 -6.3781,-14.62032 -0.8296,-1.09364 -1.2564,-1.01246 -2.3193,0.44113 -1.2926,1.76776 -1.96,20.39917 -0.7307,20.39917 0.3146,0 2.5646,-1.16776 5,-2.59502 z M 329.18884,941.5 c -0.66351,-2.2 -1.50107,-5.8 -1.86124,-8 -0.58962,-3.6015 -0.494,-3.86732 0.95976,-2.66823 1.73457,1.43071 3.14146,8.33017 2.50031,12.26167 -0.33655,2.06376 -0.5643,1.83678 -1.59883,-1.59344 z M 346.4907,918.75 C 343.7404,911.97964 341,901.78333 341,898.32057 c 0,-6.10238 6.85976,-4.9998 8.45574,1.3591 0.41473,1.65242 -0.0862,3.91739 -1.44159,6.51768 l -2.07719,3.98519 2.53152,5.52957 c 2.91181,6.36024 3.05693,7.28789 1.1401,7.28789 -0.76528,0 -2.16833,-1.9125 -3.11788,-4.25 z m -0.13616,-20.54971 c -0.54858,-0.86969 -1.59486,-1.7804 -2.32506,-2.0238 -1.03322,-0.3444 -1.1756,0.50829 -0.64202,3.8451 0.96797,6.05332 1.88606,7.00711 3.0014,3.11813 0.62873,-2.19225 0.61681,-3.90717 -0.0343,-4.93943 z m -23.30189,17.99523 c -0.56344,-2.09246 -1.33168,-5.35496 -1.7072,-7.25 -0.60974,-3.07702 -0.51166,-3.30485 0.91703,-2.13022 1.34123,1.1027 3.73752,8.94643 3.73752,12.23392 0,2.49648 -2.03805,0.52319 -2.94735,-2.8537 z m 37.12273,-0.42737 C 357.58861,914.49918 354,908.22658 354,904.9741 354,901.82976 355.83532,899 357.87467,899 c 2.38721,0 4.12533,4.03566 4.12533,9.57844 0,5.13052 1.59555,6.3825 5.73206,4.49778 2.42915,-1.1068 2.51124,-1.06515 1.2192,0.61854 -0.76193,0.99288 -1.40108,1.88116 -1.42034,1.97396 -0.18941,0.91258 -5.55024,0.98505 -7.35554,0.0994 z M 372.67574,915.25 c -1.07008,-1.81453 -2.81264,-15.56842 -2.2543,-17.79303 0.8749,-3.48588 3.30029,-3.04293 5.71106,1.04303 1.13578,1.925 2.5831,3.49972 3.21628,3.49938 0.7627,-4.1e-4 1.03304,1.70529 0.80105,5.05414 -0.31559,4.55581 -0.48858,4.87668 -1.75245,3.25063 -1.18347,-1.52263 -1.31182,-1.54314 -0.82251,-0.13147 0.33955,0.97964 -0.28093,2.53338 -1.49755,3.75 -2.2709,2.2709 -2.73771,2.45305 -3.40158,1.32732 z m 2.68589,-12.75 c -0.31659,-0.825 -0.75246,-1.5 -0.96862,-1.5 -0.21615,0 -0.39301,0.675 -0.39301,1.5 0,0.825 0.43588,1.5 0.96862,1.5 0.53273,0 0.70959,-0.675 0.39301,-1.5 z M 1248,847.39301 c 0,-1.05452 0.5438,-1.39831 1.5818,-1 0.87,0.33385 1.77,0.60699 2,0.60699 0.23,0 0.4182,0.45 0.4182,1 0,0.55 -0.9,1 -2,1 -1.1703,0 -2,-0.66667 -2,-1.60699 z m -653.2767,-7.14626 c -0.87267,-0.96429 -2.73802,-4.22679 -4.14522,-7.25 -2.5755,-5.53318 -3.27704,-13.28901 -1.70863,-18.88951 1.48345,-5.29713 8.41895,-4.24842 11.13055,1.68304 1.13631,2.48561 1.98492,3.16357 3.5,2.79616 11.82995,-2.8688 12.5404,-3.14604 11.28342,-4.40302 -1.5396,-1.5396 0.43443,-3.1438 3.89849,-3.16811 1.27137,-0.009 3.07335,-1.26724 4.31809,-3.01531 2.11159,-2.96546 5.29898,-3.94329 6.50308,-1.99502 0.34161,0.55274 2.18333,6.29024 4.09271,12.75 1.90938,6.45976 3.73393,12.53252 4.05454,13.49502 1.00535,3.01813 -2.35498,2.00778 -4.98888,-1.5 -1.34219,-1.7875 -3.27759,-5.83424 -4.30089,-8.99276 -1.02331,-3.15852 -2.41649,-5.74602 -3.09597,-5.75 -0.87537,-0.005 -0.63595,1.52277 0.82152,5.24276 1.13131,2.8875 2.39526,5.59802 2.80878,6.02338 0.41353,0.42535 0.55173,2.13699 0.30711,3.80364 -0.34678,2.36281 -0.88914,2.96339 -2.46226,2.72663 -1.44071,-0.21684 -2.76673,-2.162 -4.63806,-6.80365 -4.05851,-10.06674 -4.82605,-10.66328 -9.1818,-7.13621 l -2.30169,1.8638 2.1909,5.72519 c 2.67253,6.98374 2.7914,9.55308 0.44091,9.53015 -1.15825,-0.0113 -2.55261,-1.87108 -4.12357,-5.5 -2.02546,-4.6788 -2.75876,-5.47672 -5,-5.4406 -1.86681,0.0301 -3.24801,1.01848 -4.77558,3.41744 -1.93626,3.0408 -2.01055,3.64227 -0.75,6.07198 0.76953,1.48328 1.39915,3.54543 1.39915,4.58256 0,2.41232 -3.14206,2.49118 -5.2767,0.13244 z m 1.26139,-19.41496 C 596.00348,817.55698 595.08638,815 593.89301,815 c -1.02255,0 -1.16875,5.36817 -0.24062,8.83453 0.78429,2.92915 2.30952,0.96547 2.3323,-3.00274 z M 469.01082,839.75 c 0.0167,-1.92546 2.76601,-10.55315 3.98559,-12.50719 0.83555,-1.33873 0.93588,-0.72307 0.43274,2.65534 -0.95246,6.39548 -4.45604,14.20765 -4.41833,9.85185 z m 861.35888,-3 c 0.3317,-1.2375 0.6091,-2.76002 0.6166,-3.38337 0.018,-1.53128 3.8453,-2.44816 4.6672,-1.11824 0.3854,0.62363 0.1798,0.76664 -0.499,0.3471 -0.635,-0.39244 -1.1545,-0.27447 -1.1545,0.26216 0,0.53663 0.5297,1.15224 1.1771,1.36803 0.6538,0.21797 0.8387,0.93979 0.4158,1.62401 -0.4203,0.68011 -1.6163,0.96026 -2.6708,0.6256 -1.4461,-0.45899 -1.7637,-0.22618 -1.3088,0.95932 0.3434,0.89492 0.077,1.56539 -0.6229,1.56539 -0.781,0 -1.0055,-0.81402 -0.6207,-2.25 z m -19.6758,0.61052 c -1.0649,-1.06481 0.2697,-2.31172 1.8324,-1.71206 0.8042,0.30861 1.2132,0.96396 0.9089,1.45632 -0.6482,1.04882 -1.8373,1.15975 -2.7413,0.25574 z m 10.1516,-1.49097 c -1.5266,-0.55929 -2.914,-2.00653 -3.2652,-3.40583 -0.3863,-1.53909 -1.587,-2.67829 -3.2675,-3.10005 -2.6167,-0.65676 -2.6266,-0.69115 -0.6581,-2.28518 1.0993,-0.89011 1.8443,-2.0816 1.6556,-2.64774 -0.1994,-0.59819 1.3592,-1.0087 3.7211,-0.98005 3.4006,0.0412 3.9883,0.34176 3.5993,1.84038 -0.3462,1.33346 -0.024,1.65125 1.2595,1.24377 2.5004,-0.7936 6.0491,4.33198 5.3892,7.78395 -0.4068,2.12803 -1.0559,2.66491 -3.146,2.60225 -1.4484,-0.0434 -3.8279,-0.5166 -5.2879,-1.0515 z M 1291,833.54004 c 0,-0.21845 0.7071,-1.10433 1.5714,-1.96861 0.8643,-0.86429 1.0893,-1.57143 0.5,-1.57143 -0.5893,0 -1.0714,-1.0875 -1.0714,-2.41667 0,-1.32916 -0.3375,-2.60541 -0.75,-2.8361 -0.4125,-0.23069 -0.1875,-0.28232 0.5,-0.11472 1.52,0.37055 1.573,-0.65277 0.2181,-4.21629 -0.8867,-2.33243 -0.8263,-2.54338 0.4303,-1.50053 1.1827,0.98152 1.6641,0.83608 2.5188,-0.76093 0.7065,-1.32007 1.7238,-1.79991 3.0697,-1.44793 1.1299,0.29547 2.0131,0.0365 2.0131,-0.5902 0,-2.43656 3.0518,-0.92502 4.3073,2.13337 1.2818,3.12253 1.1717,11.33971 -0.1629,12.15725 -0.3544,0.2171 -2.2194,0.52835 -4.1444,0.69168 -1.925,0.16333 -3.95,0.58803 -4.5,0.94378 -1.467,0.94886 -4.5,1.95808 -4.5,1.49733 z m -4,-9.98102 c 0,-1.34254 0.4201,-2.70064 0.9336,-3.018 0.5135,-0.31736 0.895,0.78108 0.8478,2.44098 -0.1017,3.57903 -1.7814,4.12309 -1.7814,0.57702 z m 174.1495,-6.64502 c 0.2725,-2.77889 0.014,-3.36002 -1.3914,-3.12383 -1.2156,0.20434 -1.5466,-0.17782 -1.119,-1.292 0.3339,-0.8702 1.3392,-1.50088 2.234,-1.40152 0.8948,0.0994 2.9769,-0.33654 4.6269,-0.96867 4.1644,-1.59542 5,-1.13727 5,2.74143 0,2.60985 -0.5261,3.56953 -2.3339,4.25715 -1.2837,0.48826 -2.7099,0.65539 -3.1694,0.3714 -0.4595,-0.28399 -1.5884,0.23659 -2.5086,1.15685 -1.5643,1.56425 -1.6514,1.45091 -1.3386,-1.74081 z M 282.61399,805.81117 c -3.81731,-5.83393 -7.0268,-26.40391 -4.57979,-29.35238 2.10205,-2.53281 6.89027,-4.61754 9.03914,-3.93551 2.15727,0.68469 7.22379,9.83126 10.187,18.39053 3.08694,8.91667 0.17731,13.4212 -3.57991,5.54223 -1.87576,-3.9335 -2.33812,-4.08453 -5.57133,-1.8199 -1.95396,1.36861 -2.24054,2.22705 -1.75261,5.25 0.32083,1.98762 0.70936,4.49662 0.86341,5.57555 0.40924,2.86614 -2.79985,3.10964 -4.60591,0.34948 z m 4.87256,-17.7963 c 1.71749,-1.89781 1.71977,-2.1861 0.0519,-6.55347 -2.1518,-5.6344 -4.87904,-5.83706 -5.33724,-0.39661 -0.31971,3.79609 1.18667,8.93521 2.61909,8.93521 0.47837,0 1.6782,-0.89331 2.66629,-1.98513 z m 1184.86515,19.22505 c 0.3634,-0.58801 0.096,-1.29701 -0.5955,-1.57556 -0.8991,-0.3625 -0.9177,-0.52891 -0.065,-0.58541 1.7209,-0.11408 2.5475,1.6556 1.1708,2.50646 -0.6978,0.43129 -0.9039,0.29172 -0.5101,-0.34549 z M 1299.6384,804.5 c -0.3166,-0.825 -0.1398,-1.5 0.393,-1.5 0.5327,0 0.9686,0.675 0.9686,1.5 0,0.825 -0.1769,1.5 -0.393,1.5 -0.2162,0 -0.652,-0.675 -0.9686,-1.5 z M 1474.5,802 c -0.837,-1.35436 0.2924,-3 2.059,-3 1.6219,0 1.6882,0.19225 0.834,2.41821 -0.6901,1.7983 -1.9807,2.05786 -2.893,0.58179 z m -990.99536,-7.2059 c 0.79337,-4.19845 2.68469,-8.42556 3.17818,-7.10323 0.24444,0.65498 -0.48571,3.12998 -1.62254,5.5 -1.47179,3.06832 -1.91973,3.52997 -1.55564,1.60323 z M 336.415,787.70033 c 3.17839,-4.16708 3.60171,-4.44969 2.92146,-1.95033 -0.26196,0.9625 -1.66149,2.62765 -3.11006,3.70033 l -2.63378,1.95033 2.82238,-3.70033 z M 341,781.5 c 0.68469,-0.825 1.46989,-1.5 1.74489,-1.5 0.275,0 -0.0602,0.675 -0.74489,1.5 -0.68469,0.825 -1.46989,1.5 -1.74489,1.5 -0.275,0 0.0602,-0.675 0.74489,-1.5 z m 152,-17.07037 c 0,-0.93434 2.4417,-8.23903 4.95324,-14.81832 2.19075,-5.73892 2.18069,-1.58732 -0.0135,5.56521 C 495.95602,761.6431 493,767.18029 493,764.42963 z M 360.01488,756.75134 C 359.99858,755.93107 369.07657,744 369.717,744 c 0.21784,0 -0.34162,1.2375 -1.24325,2.75 -2.06759,3.46845 -8.439,11.00167 -8.45887,10.00134 z m 145.43079,-29.39091 c 0.36437,-1.45176 1.27645,-4.03926 2.02684,-5.75 1.11943,-2.55208 1.37899,-2.72846 1.44592,-0.98255 0.0888,2.3153 -2.57691,9.37212 -3.54026,9.37212 -0.32724,0 -0.29687,-1.1878 0.0675,-2.63957 z M 382,727.58922 c 0,-1.1679 8.44851,-12.88663 10.54471,-14.62633 0.94899,-0.78759 0.30944,0.81106 -1.42122,3.55256 C 387.6249,722.05749 382,728.88479 382,727.58922 z m 0.35605,-25.86019 C 375.62249,694.64396 374.30983,686 379.96746,686 c 3.17772,0 4.89491,3.34274 5.90764,11.50008 0.54414,4.38285 0.87927,8.07888 0.74475,8.2134 -0.13452,0.13453 -2.05323,-1.65848 -4.2638,-3.98445 z m -0.91936,-12.79899 c -1.74644,-1.92979 -3.43961,-1.74288 -3.43295,0.37898 0.002,0.65504 1.01151,2.76598 2.24323,4.69098 l 2.23949,3.5 0.3271,-3.34354 c 0.20806,-2.12661 -0.29308,-4.02884 -1.37687,-5.22642 z M 405,696.33033 c 0,-0.87058 11.14509,-15.30239 12.42739,-16.09227 1.14149,-0.70314 -0.51546,2.04342 -6.32891,10.4908 C 407.90228,695.37317 405,698.03892 405,696.33033 z M 517.13745,693.5 c -0.0141,-1.1 0.86488,-4.025 1.95338,-6.5 1.70501,-3.87681 1.91141,-4.06465 1.4904,-1.35638 -0.66467,4.27578 -3.40933,10.53723 -3.44378,7.85638 z m -123.38747,-2.58011 c -2.96366,-1.72617 -4.72404,-6.28574 -4.06915,-10.53955 0.76804,-4.98883 2.01699,-7.38034 3.85435,-7.38034 1.83196,0 1.81337,0.95509 -0.067,3.44113 -2.29646,3.03619 -1.86525,8.83723 0.84625,11.38456 2.78483,2.61621 4.41441,2.72966 6.89984,0.48038 1.76078,-1.59348 1.8326,-1.59183 1.2111,0.0278 -1.24619,3.2475 -5.40918,4.48844 -8.67541,2.58604 z m 14.77515,-11.59695 c -1.63618,-1.43763 -4.25034,-4.21883 -5.80924,-6.18045 -2.33729,-2.9411 -2.74109,-4.23344 -2.30249,-7.36915 0.97832,-6.99439 4.56337,-11.0144 3.77119,-4.22873 -0.28958,2.48038 0.13969,4.15624 1.42975,5.58174 l 1.84358,2.03712 2.22679,-2.79265 c 2.51165,-3.14992 4.09667,-2.69937 2.30184,0.65431 -1.12781,2.10734 -0.93654,6.36274 0.54949,12.22487 0.86607,3.41649 -0.18384,3.43558 -4.01091,0.0729 z M 429.04163,664.25 c 0.0229,-0.4125 1.62423,-2.54295 3.55853,-4.73432 3.56646,-4.04046 3.67265,-2.32244 0.16902,2.73432 -1.78974,2.58312 -3.82039,3.67265 -3.72755,2 z m 97.98878,-1.32463 c -0.0323,-1.67399 6.50703,-20.79614 7.42614,-21.71526 1.32887,-1.32886 0.31136,3.46348 -2.39173,11.26472 -3.29741,9.51652 -4.98481,13.01925 -5.03441,10.45054 z m -74.86374,-28.9056 c 0.59205,-1.74103 8.22278,-10.96366 8.68708,-10.49935 0.70761,0.70761 -6.74981,11.47958 -7.9473,11.47958 -0.59021,0 -0.92312,-0.4411 -0.73978,-0.98023 z M 540.64307,622 c 1.15553,-5.31426 5.55942,-18.00711 6.43559,-18.54861 1.31838,-0.81481 1.20431,-0.16834 -1.58246,8.96807 -2.47855,8.12587 -6.0848,15.24497 -4.85313,9.58054 z M 1405,595.0756 c 0,-0.47389 0.675,-1.12064 1.5,-1.43723 0.825,-0.31658 1.5,-0.18787 1.5,0.28603 0,0.47389 -0.675,1.12064 -1.5,1.43723 -0.825,0.31658 -1.5,0.18787 -1.5,-0.28603 z M 483,594.05192 C 483,593.03786 492.74152,581 493.56214,581 c 0.77343,0 -2.09451,5.10359 -5.47897,9.75 C 485.16054,594.76237 483,596.16581 483,594.05192 z m 932.0709,-5.73847 c 0.5418,-1.42496 0.7514,-2.82451 0.4658,-3.11013 -0.653,-0.65298 1.4057,-3.20332 2.5857,-3.20332 2.1244,0 -0.2896,7.46646 -2.7149,8.39712 -1.033,0.39639 -1.1065,-0.0587 -0.3366,-2.08367 z M 554,582.55343 c 0,-1.31447 5.6758,-18.63626 7.39004,-22.55343 2.71177,-6.19659 1.71113,-0.89962 -1.97521,10.45602 C 556.27588,580.12544 554,585.21004 554,582.55343 z M 503.60809,568.17489 C 503.14901,567.43209 512.49645,555 513.51402,555 c 0.97741,0 -1.14017,3.84623 -4.81743,8.75 -4.19914,5.59974 -4.30534,5.69208 -5.0885,4.42489 z m 21.43292,-27.77576 c -0.0465,-1.249 9.29705,-13.87199 11.08689,-14.97818 0.6434,-0.39764 0.0903,1.20817 -1.22904,3.56847 -2.73707,4.8965 -9.79611,13.0668 -9.85785,11.40971 z M 0,532.98767 c 0,-1.01689 1.8763447,-1.524 9,-2.43239 2.475,-0.3156 9.225,-1.4076 15,-2.42666 5.775,-1.01906 10.695,-1.68239 10.933333,-1.47406 C 36.547601,528.06558 31.221505,529.23754 13,531.48079 8.743133,532.00485 2.5610615,533.07614 1.25,533.51695 0.5625,533.74811 0,533.50993 0,532.98767 z m 36.323715,-5.70244 C 37.119703,525.9973 43,525.01784 43,526.17319 43,526.62794 42.136804,527 41.081787,527 c -1.055016,0 -2.703837,0.30147 -3.664044,0.66994 -1.102427,0.42304 -1.505618,0.28126 -1.094028,-0.38471 z m 13.137827,-2.34746 c -0.247721,-0.40082 1.309239,-0.89657 3.459911,-1.10167 2.150672,-0.2051 3.728673,-0.079 3.50667,0.2802 -0.60228,0.97451 -6.446123,1.66359 -6.966581,0.82147 z M 73,521.55902 c 0,-1.05548 1.919113,-1.49891 2.489919,-0.57533 C 75.835382,521.54266 75.416476,522 74.559017,522 73.701558,522 73,521.80156 73,521.55902 z m 10,-1.94239 c 0,-0.21085 0.9,-0.61872 2,-0.90638 1.1,-0.28766 2,-0.11514 2,0.38337 C 87,519.59213 86.1,520 85,520 c -1.1,0 -2,-0.17252 -2,-0.38337 z m 6.409258,-1.46981 c 0.379423,-0.61392 1.680059,-1.09457 2.890301,-1.06811 2.62758,0.0574 10.507021,-0.89653 12.666131,-1.53349 0.84387,-0.24895 4.23431,-0.74856 7.53431,-1.11024 3.3,-0.36169 6.3375,-0.85908 6.75,-1.10531 0.4125,-0.24624 0.75,0.0289 0.75,0.61131 0,0.58246 -1.575,1.11527 -3.5,1.18402 -3.69441,0.13194 -4.1129,0.20457 -6.5,1.12799 -1.63008,0.63058 -7.03107,1.45625 -15.732173,2.40504 -3.959029,0.4317 -5.350813,0.28526 -4.858569,-0.51121 z M 122.5,513 c 2.73138,-1.17371 3.5,-1.17371 3.5,0 0,0.55 -1.2375,0.96837 -2.75,0.92971 -2.43684,-0.0623 -2.52225,-0.16815 -0.75,-0.92971 z m 6.5,-0.39301 c 0,-0.94863 2.99338,-1.42672 3.52699,-0.56332 C 132.85207,512.56965 132.19148,513 131.05902,513 129.92656,513 129,512.82314 129,512.60699 z m 13.27083,-2.21116 c 0.33229,-0.33229 1.19479,-0.36781 1.91667,-0.0789 0.79773,0.31922 0.56078,0.55618 -0.60417,0.60416 -1.05416,0.0434 -1.64479,-0.19293 -1.3125,-0.52522 z M 548,509.94665 c 0,-1.41449 11.13861,-15.14137 11.77224,-14.50774 0.57888,0.57888 -1.58143,4.10936 -6.61532,10.81109 C 549.67963,510.87938 548,512.0834 548,509.94665 z m -341.72917,-9.55082 c 0.33229,-0.33229 1.19479,-0.36781 1.91667,-0.0789 0.79773,0.31922 0.56078,0.55618 -0.60417,0.60416 -1.05416,0.0434 -1.64479,-0.19293 -1.3125,-0.52522 z m 11,-2 c 0.33229,-0.33229 1.19479,-0.36781 1.91667,-0.0789 0.79773,0.31922 0.56078,0.55618 -0.60417,0.60416 -1.05416,0.0434 -1.64479,-0.19293 -1.3125,-0.52522 z M 582.65901,494.5 c 1.22651,-5.52999 6.18968,-19.02376 6.25281,-17 0.0797,2.55616 -3.4015,13.70304 -5.39343,17.26978 l -1.52476,2.73022 0.66538,-3 z M 237,495 c 1.93876,-1.25292 3,-1.25292 3,0 0,0.55 -1.0125,0.99311 -2.25,0.98469 C 235.93056,495.9723 235.78704,495.78387 237,495 z m 4.76845,-0.16845 c 0.5811,-0.5811 1.64682,-0.85979 2.36826,-0.61931 0.74895,0.24965 0.29565,0.70294 -1.05655,1.05655 -1.66335,0.43497 -2.05378,0.30483 -1.31171,-0.43724 z m 7.98155,-1.49383 c 0.6875,-0.27741 1.8125,-0.27741 2.5,0 0.6875,0.27741 0.125,0.50439 -1.25,0.50439 -1.375,0 -1.9375,-0.22698 -1.25,-0.50439 z m 20.46036,-2.85567 C 271.31295,489.3395 279,488.1608 279,489.13427 c 0,0.47615 -0.1125,0.8886 -0.25,0.91655 -3.39113,0.6893 -9.0652,0.97582 -8.53964,0.43123 z M 280,489.10841 c 0,-0.60963 0.3375,-1.14049 0.75,-1.17969 4.76566,-0.45295 9.16572,-1.03417 11,-1.45303 1.2375,-0.28259 2.25,-0.11639 2.25,0.36933 0,0.48572 -2.02469,1.16065 -4.49931,1.49983 -2.47462,0.33919 -5.62462,0.89914 -7,1.24433 C 280.95968,489.97595 280,489.79145 280,489.10841 z M 296.5,486 c 2.77822,-1.19384 4.73784,-1.19384 4,0 -0.33992,0.55 -1.82898,0.96837 -3.30902,0.92971 C 294.78816,486.86696 294.71417,486.7674 296.5,486 z M 570,481.27906 c 0,-1.70183 10.4402,-14.45845 10.8433,-13.24916 0.19667,0.59 -0.82112,2.77359 -2.26175,4.85242 C 575.36795,477.51955 570,482.77189 570,481.27906 z M 343.07895,469.58333 c -0.0434,-1.05416 0.19293,-1.64479 0.52522,-1.3125 0.33229,0.33229 0.36781,1.19479 0.0789,1.91667 -0.31922,0.79773 -0.55618,0.56078 -0.60416,-0.60417 z M 505,453.01905 c 0,-0.53952 1.0125,-1.17498 2.25,-1.41214 20.19365,-3.8699 31.75,-5.21435 31.75,-3.69375 0,1.55259 -2.94326,2.17481 -17.5,3.69954 -3.3,0.34566 -6.75792,1.02421 -7.68426,1.50789 C 511.53117,454.31345 505,454.23822 505,453.01905 z m 418,-76.46003 c 0,-0.24254 0.45,-0.7191 1,-1.05902 0.55,-0.33992 1,-0.14148 1,0.44098 0,0.58246 -0.45,1.05902 -1,1.05902 -0.55,0 -1,-0.19844 -1,-0.44098 z m 171.2747,-22.38924 c -1.7873,-1.10464 -8.8585,-16.92908 -10.0292,-22.44409 -0.8956,-4.21913 -0.7635,-5.1451 1.1353,-7.96284 2.6184,-3.88541 9.0527,-8.45311 13.1192,-9.31327 l 3,-0.63458 -3,1.93294 c -8.5209,5.49011 -12.7482,13.86105 -8.9286,17.68063 2.1077,2.10769 3.1666,1.99965 9.2729,-0.94609 6.6564,-3.21116 7.9166,-6.00417 5.2239,-11.57753 l -1.9247,-3.98365 3.0521,-0.61043 c 2.4903,-0.49806 3.4667,-1.54928 5.3041,-5.71065 1.2386,-2.80512 2.5187,-5.88772 2.8447,-6.85022 0.7716,-2.27789 4.3155,-2.25401 5.5418,0.0373 0.5261,0.98304 1.4486,6.20008 2.05,11.59342 0.6014,5.39335 1.538,10.63674 2.0813,11.65198 0.6862,1.28213 0.6316,2.06608 -0.1786,2.56683 -1.746,1.0791 -5.6567,-4.04751 -6.3722,-8.3535 -1.1275,-6.78511 -1.3906,-7.02665 -4.0807,-3.74606 -1.7287,2.10812 -2.2941,3.74324 -1.9018,5.5 2.4788,11.10109 2.8779,15.03714 1.6475,16.24734 -1.337,1.31495 -2.5318,0.31068 -6.186,-5.19968 l -1.5543,-2.34376 -4.2605,3.08633 c -2.3433,1.69748 -4.742,3.24679 -5.3303,3.44291 -0.7152,0.23839 -0.456,2.73926 0.7819,7.54464 1.839,7.13873 1.3844,10.05585 -1.3078,8.392 z M 473.87244,219.25 c -1.24387,-1.58606 -1.2085,-1.62143 0.37756,-0.37756 1.66575,1.30637 2.19548,2.12756 1.37244,2.12756 -0.20765,0 -0.99515,-0.7875 -1.75,-1.75 z m 430.19851,-28.66451 c -0.74577,-0.8986 -1.05933,-1.93045 -0.69678,-2.29299 0.93392,-0.93393 2.93161,1.29016 2.45178,2.72965 -0.27581,0.82743 -0.81782,0.69257 -1.755,-0.43666 z m 222.61025,-9.32782 c -0.7606,-1.29104 1.2434,-5.4223 2.3103,-4.7629 0.5547,0.3428 1.0085,1.07885 1.0085,1.63568 0,1.42579 -2.7787,4.04407 -3.3188,3.12722 z m -9.3583,-3.85859 c -0.7263,-1.89281 1.2419,-3.36237 4.5321,-3.38377 l 2.3549,-0.0153 -2.3549,2.48272 c -2.7614,2.91121 -3.6942,3.09982 -4.5321,0.91636 z M 193.64203,158.81955 c -2.61114,-1.46127 -2.13821,-9.43117 0.92433,-15.57688 2.62437,-5.26642 5.73494,-7.36766 7.7843,-5.25843 0.87512,0.90068 0.68341,1.10332 -0.8035,0.84933 -2.63718,-0.45047 -6.19794,6.01785 -7.11041,12.91643 -0.62698,4.74018 -0.50929,5.25 1.21191,5.25 2.92192,0 6.05148,-2.63363 9.87333,-8.30876 4.27891,-6.35382 4.51397,-5.49657 0.46168,1.6837 -4.39976,7.79595 -8.49438,10.59764 -12.34164,8.44461 z M 215.72712,144.25 C 212.62517,139.188 211,135.3041 211,132.95295 c 0,-3.70089 1.73737,-1.93826 3.87902,3.9354 3.48733,9.56434 4.46442,9.47596 7.08699,-0.64102 1.24713,-4.81103 3.10739,-10.09733 4.13391,-11.74733 3.08603,-4.96043 2.43816,-0.91597 -3.1637,19.75 -0.73229,2.70151 -1.56097,3.75 -2.96382,3.75 -1.17503,0 -2.85865,-1.4872 -4.24528,-3.75 z m 18.97427,0.25 c -0.91797,-1.925 -2.07871,-3.5 -2.57942,-3.5 -0.50072,0 -0.90672,-1.0125 -0.90223,-2.25 0.004,-1.2375 -0.425,-4.60671 -0.95441,-7.48714 -0.9993,-5.43693 -0.0678,-9.17528 2.49717,-10.02139 0.69437,-0.22906 2.83188,1.1529 4.75,3.07103 4.06587,4.06587 4.60343,8.47488 1.59047,13.0449 -1.3574,2.05888 -1.73794,3.9452 -1.36174,6.75 0.64933,4.84113 -0.82752,5.03187 -3.03984,0.3926 z m 3.12357,-12.91555 c 0.39448,-3.35212 -2.73201,-7.50193 -3.97653,-5.27809 -1.06295,1.89938 0.98884,8.91303 2.46568,8.42848 0.65224,-0.21399 1.33212,-1.63167 1.51085,-3.15039 z m 926.77224,15.67941 c -1.4253,-1.42528 -0.376,-2.77899 2.2985,-2.96526 2.3062,-0.16062 2.7993,0.15156 2.4358,1.54188 -0.4434,1.69548 -3.5332,2.62445 -4.7343,1.42338 z m -616.48292,-3.19323 c -0.85973,-0.53135 -0.96201,-1.0467 -0.29014,-1.46194 0.57071,-0.35272 1.33882,-0.15403 1.7069,0.44153 0.91846,1.4861 0.188,2.0122 -1.41676,1.02041 z M 1140.5,142 c -0.3399,-0.55 -0.1415,-1 0.441,-1 0.5824,0 1.059,0.45 1.059,1 0,0.55 -0.1984,1 -0.441,1 -0.2425,0 -0.7191,-0.45 -1.059,-1 z m 3.2333,-1.12409 c 0.6784,-0.68342 1.4853,-0.99067 1.7932,-0.68278 0.3078,0.30789 -0.2472,0.86705 -1.2334,1.24258 -1.4252,0.54268 -1.54,0.42782 -0.5598,-0.5598 z m -6.2744,-0.94244 c -0.3626,-0.58659 -0.4447,-1.281 -0.1826,-1.54313 0.2622,-0.26213 0.7431,0.21781 1.0688,1.06653 0.6762,1.76211 0.1,2.07206 -0.8862,0.4766 z m 294.9747,-3.04095 c -0.6665,-1.07834 1.8371,-2.44531 5.0664,-2.76632 1.65,-0.16402 3.4275,-0.70952 3.95,-1.21221 1.5201,-1.46249 4.2811,-1.05715 4.9665,0.72914 0.3468,0.90372 0.3652,1.9085 0.041,2.23284 -0.874,0.87396 -13.5443,1.7924 -14.0238,1.01655 z M 536.84078,134.27855 C 534.90371,130.96469 532,119.99553 532,115.99181 532,111.98143 536.07056,109 541.54597,109 c 3.56613,0 4.715,0.52143 6.91839,3.14002 1.45319,1.72701 2.39319,3.78881 2.0889,4.58179 -0.30429,0.79297 -0.55326,2.09924 -0.55326,2.90282 0,0.80358 -2.04843,3.65099 -4.55206,6.32757 -3.52859,3.77235 -4.48414,5.49721 -4.25,7.67162 0.41259,3.83153 -2.26501,4.23389 -4.35716,0.65473 z m 6.12326,-12.87356 c 0.0948,2.38573 4.03596,-3.07511 4.03596,-5.5922 0,-4.85724 -7.42939,-5.89324 -10.52881,-1.4682 -1.88007,2.68418 -1.85057,4.05368 0.1795,8.33172 l 1.65069,3.47857 2.31335,-2.82744 c 1.27234,-1.55509 2.32953,-2.4202 2.34931,-1.92245 z M 1165,135 c 4.5383,-2.48464 6.1412,-2.46765 3.1392,0.0333 -1.2984,1.0817 -3.3234,1.94787 -4.5,1.92481 -1.7375,-0.034 -1.4819,-0.40174 1.3608,-1.95808 z m 9.3643,-1.50616 c 3.6175,-1.88667 4.1699,-1.88517 2.2786,0.006 -0.825,0.825 -2.3197,1.49723 -3.3215,1.49384 -1.301,-0.004 -1.0031,-0.43294 1.0429,-1.5 z m 22.6357,0.0652 c 0,-0.24254 0.45,-0.7191 1,-1.05902 0.55,-0.33992 1,-0.14148 1,0.44098 0,0.58246 -0.45,1.05902 -1,1.05902 -0.55,0 -1,-0.19844 -1,-0.44098 z M 1453.5,127 c -0.3399,-0.55 -0.1415,-1 0.441,-1 0.5824,0 1.059,0.45 1.059,1 0,0.55 -0.1984,1 -0.441,1 -0.2425,0 -0.7191,-0.45 -1.059,-1 z M 561.2246,122.28706 C 559.33666,118.08736 555,104.40084 555,102.64219 555,102.28898 556.73248,102 558.84996,102 c 2.71862,0 5.1079,-0.91124 8.13071,-3.100959 5.54164,-4.014343 8.42011,-3.057973 9.95185,3.306509 0.56846,2.36195 1.7495,6.47364 2.62455,9.13709 0.87504,2.66345 1.35692,5.0767 1.07084,5.36278 -0.88286,0.88286 -4.54113,-5.92809 -6.15289,-11.45542 -0.84199,-2.8875 -1.97797,-5.25 -2.5244,-5.25 -1.60413,0 -8.9397,5.16281 -9.0691,6.38289 -0.23803,2.24426 0.25243,4.21628 2.22286,8.93756 3.98754,9.55437 0.27795,16.2154 -3.87978,6.96661 z M 1221,117.96862 c 0,-0.53274 0.675,-0.96862 1.5,-0.96862 0.825,0 1.5,0.17686 1.5,0.39301 0,0.21616 -0.675,0.65203 -1.5,0.96862 -0.825,0.31658 -1.5,0.13972 -1.5,-0.39301 z m -18.4472,-2.88321 c -0.322,-0.52097 -0.1592,-1.21065 0.3618,-1.53262 0.521,-0.32198 1.2106,-0.15917 1.5326,0.3618 0.322,0.52097 0.1592,1.21065 -0.3618,1.53262 -0.521,0.32198 -1.2106,0.15917 -1.5326,-0.3618 z M 1135.6603,104.25 c -0.3449,-4.2625 -0.2128,-11.682905 0.2937,-16.489788 1.6721,-15.869882 7.336,-20.0755 13.7857,-10.236379 1.7167,2.618799 2.6516,3.191841 4.4658,2.737203 2.1847,-0.547501 2.2143,-0.483755 0.6191,1.331972 -1.5703,1.787272 -1.5546,2.249869 0.25,7.368605 2.5591,7.259179 2.4337,7.417228 -1.2207,1.538387 -1.7094,-2.75 -3.2135,-5.12509 -3.3423,-5.277978 -0.1288,-0.152888 -1.484,0.197202 -3.0116,0.777978 -3.798,1.444016 -4.1366,0.671205 -0.9858,-2.250385 l 2.6452,-2.452757 -2.4221,-2.815888 c -5.2564,-6.11093 -7.6014,-0.622823 -8.4469,19.76903 -0.3136,7.5625 -0.8925,13.75 -1.2865,13.75 -0.394,0 -0.9986,-3.4875 -1.3436,-7.75 z m -53.7879,0.0959 c -0.7548,-0.90975 -1.3304,-3.56247 -1.279,-5.894928 0.186,-8.445811 9.0167,-18.624891 15.8887,-18.31479 2.7156,0.122542 2.7688,0.182699 0.531,0.600596 -6.0065,1.121676 -11.4011,7.664204 -12.8898,15.632523 -0.6064,3.246164 -0.5023,5.097679 0.3524,6.266559 C 1088.395,107.9958 1101,94.703518 1101,85.2106 c 0,-3.514803 0.3904,-4.499927 1.9443,-4.906273 1.2792,-0.334539 2.0795,-1.585095 2.3399,-3.65638 0.2872,-2.284923 0.4396,-1.839693 0.5558,1.62401 0.1813,5.406406 4.6893,16.193408 7.9881,19.114162 2.6238,2.323165 2.5697,2.445113 5.0499,-11.386119 1.8181,-10.138727 4.5962,-18.859167 5.6669,-17.788452 0.2852,0.285246 0.066,3.616839 -0.4865,7.40354 -0.5528,3.786702 -1.4346,10.17685 -1.9596,14.20033 -1.0273,7.873559 -3.1119,12.193742 -5.8719,12.169272 -2.5765,-0.0229 -3.5846,-0.9366 -7.9802,-7.233708 l -4.0131,-5.749019 -4.0944,6.249019 c -2.2519,3.43696 -5.5948,7.261518 -7.4287,8.499018 -3.9281,2.65071 -8.906,2.92441 -10.8381,0.5959 z M 1223,103.04595 c 0,-0.98385 3.8733,-2.50598 4.5796,-1.7997 0.2359,0.23588 -0.698,0.94232 -2.0754,1.56987 -1.3773,0.62755 -2.5042,0.73097 -2.5042,0.22983 z m -7.5622,-6.62657 c 0.8693,-0.869341 1.3712,-1.919341 1.1154,-2.333333 -0.2559,-0.413993 0.19,-0.752714 0.9908,-0.752714 1.5905,0 1.7752,0.671211 0.849,3.08488 C 1218.0592,97.288196 1216.902,98 1215.8216,98 c -1.7907,0 -1.8247,-0.139793 -0.3838,-1.58062 z M 907,93 c 0,-0.55 0.45,-1 1,-1 0.55,0 1,0.45 1,1 0,0.55 -0.45,1 -1,1 -0.55,0 -1,-0.45 -1,-1 z m 350.5,-12 c -0.888,-1.436754 0.1268,-2.672391 2.7344,-3.329557 2.2239,-0.560456 2.2288,-0.542965 0.2656,0.949876 -1.1,0.836465 -1.8875,1.939083 -1.75,2.450263 0.3318,1.233521 -0.4721,1.18813 -1.25,-0.07058 z m -292,-38 c 0.33992,-0.55 1.04148,-1 1.55902,-1 0.51754,0 0.94098,0.45 0.94098,1 0,0.55 -0.70156,1 -1.55902,1 -0.85746,0 -1.2809,-0.45 -0.94098,-1 z"
     id="path3139"
     style="fill:#000000" />
</svg>
