<?xml version="1.0" encoding="UTF-8" standalone="no"?>
<!-- Created with Inkscape (http://www.inkscape.org/) -->

<svg
   xmlns:dc="http://purl.org/dc/elements/1.1/"
   xmlns:cc="http://creativecommons.org/ns#"
   xmlns:rdf="http://www.w3.org/1999/02/22-rdf-syntax-ns#"
   xmlns:svg="http://www.w3.org/2000/svg"
   xmlns="http://www.w3.org/2000/svg"
   version="1.1"
   width="1557.1732"
   height="1742.833"
   id="svg3087">
  <metadata
     id="metadata3093">
    <rdf:RDF>
      <cc:Work
         rdf:about="">
        <dc:format>image/svg+xml</dc:format>
        <dc:type
           rdf:resource="http://purl.org/dc/dcmitype/StillImage" />
        <dc:title></dc:title>
      </cc:Work>
    </rdf:RDF>
  </metadata>
  <defs
     id="defs3091" />
  <path
     d="m 1073.5,1741.6215 -3,-1.2884 4,-0.7435 c 2.2,-0.4089 6.1151,-2.0914 8.7002,-3.7389 2.5851,-1.6474 7.6667,-4.2468 11.2923,-5.7764 3.6257,-1.5297 8.2606,-4.2702 10.2998,-6.09 2.0392,-1.8198 7.3077,-5.0361 11.7077,-7.1473 4.4,-2.1111 10.5666,-5.9756 13.7036,-8.5877 3.137,-2.6121 10.0535,-8.3493 15.37,-12.7493 35.0658,-29.0208 59.8407,-54.8478 72.209,-75.2753 11.8208,-19.5234 31.2829,-62.5388 39.6905,-87.7247 1.836,-5.5 5.6059,-16.525 8.3776,-24.5 11.2332,-32.3215 14.345,-47.473 11.7072,-57.004 -0.8378,-3.0272 -1.9704,-9.5522 -2.5168,-14.5 -0.5464,-4.9478 -1.714,-13.946 -2.5945,-19.996 -2.8351,-19.4788 -3.4858,-26.655 -4.0804,-45 -0.4852,-14.968 -0.2142,-21.032 1.609,-36 1.2059,-9.9 3.2363,-21.6 4.512,-26 3.9863,-13.7487 14.6148,-36.7863 20.3093,-44.0209 0.9369,-1.1903 4.365,-5.7225 7.618,-10.0716 3.253,-4.3491 7.978,-10.2115 10.5,-13.0275 17.4726,-19.5093 25.5647,-31.6331 29.4892,-44.1816 3.2638,-10.4359 3.4924,-21.8734 0.6094,-30.4893 -5.871,-17.5459 -11.8933,-26.4196 -25.2524,-37.2091 -6.1009,-4.9274 -5.4644,-5.9592 5.2393,-8.4923 6.2707,-1.484 16.8305,-6.4225 22.2231,-10.3931 5.5918,-4.1172 19.996,-21.7326 24.625,-30.1146 1.5186,-2.75 3.2529,-5.9 3.8539,-7 7.347,-13.4476 7.9678,-28.0034 2.2175,-52 -7.4164,-30.94984 -9.0254,-42.07869 -9.1086,-63 -0.06,-15.13163 1.8697,-24.4489 7.3527,-35.5 4.5165,-9.10318 15.3619,-22.43107 19.7706,-24.29621 1.4112,-0.59701 3.4658,-1.8457 4.5658,-2.77485 5.5149,-4.65836 27.5488,-16.86759 37,-20.50208 3.3,-1.26903 9.825,-3.97165 14.5,-6.00582 4.675,-2.03417 12.5944,-5.12212 17.5987,-6.8621 5.0043,-1.73998 11.5293,-4.73964 14.5,-6.6659 2.9707,-1.92626 7.4204,-4.37771 9.8882,-5.44767 2.4678,-1.06995 7.1928,-4.12273 10.5,-6.78396 3.3072,-2.66122 7.3312,-5.52694 8.9421,-6.36825 1.611,-0.84132 5.1731,-3.30347 7.9158,-5.47144 2.7426,-2.16797 6.2529,-4.59658 7.8006,-5.3969 5.5535,-2.87184 10.5441,-11.4537 16.9491,-29.14563 10.4889,-28.97276 11.9447,-41.27645 7.4255,-62.75693 -1.386,-6.58776 -2.52,-12.35558 -2.52,-12.81739 0,-0.4618 -0.8762,-0.56155 -1.9471,-0.22166 -1.6867,0.53535 -2.8727,-1.3113 -8.8678,-13.80777 -4.5746,-9.5353 -10.6099,-19.78268 -17.8029,-30.22744 -13.44,-19.51583 -35.7924,-52.26596 -45.6928,-66.948 -4.0797,-6.05 -9.6332,-15.275 -12.3412,-20.5 -5.3817,-10.38366 -19.8591,-35.60211 -21.815,-38 -0.6729,-0.825 -6.9934,-10.95 -14.0455,-22.5 -7.0521,-11.55 -15.1573,-24.6 -18.0117,-29 -18.9414,-29.19827 -24.2354,-37.10119 -30.8144,-46 -4.0663,-5.5 -9.3349,-12.925 -11.708,-16.5 -2.3731,-3.575 -6.7259,-9.35866 -9.6729,-12.85258 -2.947,-3.49391 -7.6609,-9.79391 -10.4752,-14 -6.3841,-9.54098 -18.2633,-24.49376 -26.6265,-33.5157 -10.6622,-11.50206 -26.7947,-34.01961 -32.6466,-45.56787 -4.2132,-8.31433 -15.9597,-44.90958 -18.5371,-57.75076 -1.3443,-6.69761 -0.8699,-14.77815 1.6037,-27.31309 2.9247,-14.82136 9.7255,-36.97869 13.2113,-43.04298 1.0929,-1.90136 2.7539,-6.15702 3.6911,-9.45702 5.0157,-17.66022 5.4945,-20.8404 6.2321,-41.39893 1.4602,-40.698 0.3621,-54.518 -6.762,-85.10107 -1.6015,-6.875 -3.8162,-17 -4.9216,-22.5 -2.3048,-11.46795 -5.6474,-24.339482 -9.4269,-36.301622 C 1268.4883,0.27737454 1268.4692,0 1270.9179,0 c 1.5083,0 2.457,1.6549729 4.4428,7.75 4.1262,12.664764 12.8478,46.412919 14.4076,55.75 0.5513,3.3 2.5818,13.65 4.5123,23 3.7867,18.34004 5.3166,37.59584 3.9328,49.5 -0.4155,3.575 -0.355,8.75 0.1345,11.5 1.9504,10.95665 -5.2201,50.95948 -10.755,60 -5.0527,8.25283 -14.6296,47.93796 -14.5713,60.38099 0.012,2.54046 0.8773,8.44401 1.9231,13.11901 2.5583,11.4362 11.9332,39.72804 16.2369,49 4.993,10.75695 22.4067,34.868 35.7951,49.56197 7.2885,7.99926 18.5676,22.42931 23.3916,29.92631 2.1276,3.30644 5.8761,8.37566 8.3301,11.26491 2.4539,2.88925 8.3043,10.72605 13.0008,17.41511 4.6965,6.68906 11.1961,15.50539 14.4434,19.59186 3.2474,4.08646 6.6265,8.84966 7.5091,10.58489 0.8827,1.73522 4.55,7.65495 8.1497,13.15495 3.5997,5.5 9.4511,14.5 13.003,20 3.552,5.5 8.8741,13.61275 11.8269,18.02833 2.9528,4.41559 5.3687,8.32006 5.3687,8.6766 0,0.35654 2.3319,4.39379 5.182,8.97166 9.576,15.38093 18.8608,30.96043 22.4482,37.66693 3.6114,6.75142 5.3314,9.88889 11.3239,20.65648 1.8366,3.3 6.1898,10.05 9.6739,15 8.8961,12.63912 21.2311,30.62147 25.372,36.9882 1.925,2.95972 7.55,11.07013 12.5,18.02315 12.3429,17.33742 14.9256,21.29854 18.5938,28.51711 1.7453,3.43441 4.8006,7.92662 6.7897,9.98269 8.772,9.0675 15.7043,47.24744 12.4888,68.78302 -1.2335,8.26101 -10.8104,40.41892 -13.5763,45.58697 -2.0274,3.78819 -7.8494,11.42538 -9.0694,11.89706 -0.6746,0.26082 -5.2218,3.45493 -10.1047,7.09801 -4.883,3.64308 -9.3169,6.62379 -9.8531,6.62379 -0.5362,0 -3.2911,2.0927 -6.1219,4.65044 -2.8308,2.55775 -7.5045,5.69992 -10.3861,6.98262 -2.8816,1.28269 -7.6066,3.90342 -10.5,5.82385 -2.8934,1.92044 -9.382,4.81584 -14.4191,6.43424 -5.037,1.61841 -10.212,3.60356 -11.5,4.41145 -1.2879,0.80789 -6.3917,3.13113 -11.3417,5.16274 -4.95,2.03162 -14.85,6.59366 -22,10.13788 -12.0925,5.99418 -15.5035,7.92266 -28.1171,15.89678 -7.2602,4.58976 -16.0709,14.2234 -19.9965,21.86435 -10.718,20.86149 -10.1192,47.5147 2.1419,95.34155 4.6301,18.0608 5.8303,27.8709 4.6108,37.6861 -0.5393,4.3406 -1.4595,8.188 -2.0448,8.5497 -0.5853,0.3618 -1.9214,3.1491 -2.969,6.1941 -4.523,13.1464 -20.8557,36.2177 -31.254,44.1488 -3.3389,2.5467 -15.0183,7.8603 -21.6213,9.8366 -1.7875,0.5351 -3.25,1.471 -3.25,2.0799 0,0.6089 1.802,2.6495 4.0044,4.5347 8.5081,7.2825 16.5048,20.0147 20.5785,32.7642 2.7804,8.7018 2.5744,26.7385 -0.398,34.846 -2.8981,7.905 -13.6545,25.9804 -19.1849,32.239 -6.9347,7.8478 -15.9819,18.9937 -21.5,26.4875 -2.75,3.7345 -6.2346,8.3221 -7.7435,10.1946 -4.1284,5.1233 -13.051,23.8845 -16.9941,35.7329 -5.4168,16.2769 -9.0373,49.8234 -7.6627,71 1.183,18.2249 1.9198,26.3342 2.9075,32 1.6818,9.6473 3.9928,27.4195 3.9928,30.7055 0,1.7471 0.5121,3.493 1.138,3.8798 1.7566,1.0856 0.1929,26.1363 -2.3044,36.9147 -2.4722,10.6703 -8.6044,30.4324 -13.3429,43 -1.8664,4.95 -4.1414,11.7 -5.0557,15 -0.9142,3.3 -4.5361,12.8192 -8.0486,21.1538 -3.5125,8.3346 -6.3864,15.3714 -6.3864,15.6374 0,0.5925 -8.294,18.3179 -15.5467,33.2253 -7.291,14.9863 -28.3311,44.3157 -36.2548,50.5386 -1.4842,1.1656 -8.0985,7.2037 -14.6985,13.4179 -6.6,6.2143 -14.25,13.1322 -17,15.3733 -2.75,2.2411 -7.7,6.3357 -11,9.0992 -19.253,16.1226 -26.5238,21.6022 -31.9432,24.0736 -3.3313,1.5191 -8.3978,4.5345 -11.259,6.701 -2.8612,2.1665 -7.3612,4.7968 -10,5.8452 -2.6388,1.0484 -8.0817,3.6001 -12.0953,5.6704 -7.7369,3.991 -10.8598,4.4654 -15.7025,2.3858 z m 41.9727,-70.6657 c -0.6299,-1.0192 0.1167,-36.0133 1.0444,-48.9558 0.2563,-3.575 1.1545,-17.75 1.996,-31.5 0.8415,-13.75 1.7238,-26.8 1.9606,-29 0.2368,-2.2 0.6942,-8.725 1.0165,-14.5 0.3222,-5.775 0.7789,-12.75 1.0148,-15.5 0.4643,-5.4116 1.1331,-15.0789 1.9716,-28.5 0.2921,-4.675 0.9594,-15.25 1.483,-23.5 0.5235,-8.25 1.6546,-26.25 2.5134,-40 0.8589,-13.75 2.4507,-37.825 3.5373,-53.5 2.2442,-32.3733 5.4891,-79.5207 6.9512,-101 1.1375,-16.7097 2.1813,-31.9535 2.5334,-37 0.1344,-1.925 0.5484,-8.9 0.9202,-15.5 0.3717,-6.6 1.1101,-18.075 1.6409,-25.5 1.452,-20.3139 1.8609,-26.5483 2.4594,-37.5 0.3006,-5.5 1.1974,-19.225 1.9929,-30.5 0.7956,-11.275 1.698,-24.55 2.0055,-29.5 0.3075,-4.95 0.7532,-10.575 0.9904,-12.5 0.2373,-1.925 0.6984,-8.9 1.0248,-15.5 0.3264,-6.6 1.2436,-21 2.0383,-32 1.4653,-20.2829 4.4578,-65.61484 6.4364,-97.5 0.5972,-9.625 1.499,-19.75 2.0039,-22.5 0.5049,-2.75 1.159,-12.425 1.4535,-21.5 0.2945,-9.075 1.1761,-24.6 1.9591,-34.5 0.783,-9.9 1.6971,-22.5 2.0314,-28 0.3342,-5.5 0.8001,-11.575 1.0353,-13.5 0.2352,-1.925 0.6825,-7.55 0.994,-12.5 0.3114,-4.95 0.7717,-11.7 1.0227,-15 0.251,-3.3 0.683,-9.825 0.96,-14.5 1.0739,-18.12197 5.4056,-81.98678 6.0365,-89 0.2721,-3.025 1.1762,-16.075 2.0091,-29 0.8329,-12.925 1.7168,-25.075 1.9642,-27 0.6811,-5.29854 1.9845,-27.70629 2.0069,-34.5 l 0.02,-6 -3,0.1734 c -1.65,0.0954 -10.425,0.89626 -19.5,1.77976 -17.8326,1.7361 -33.4043,3.13159 -44.5,3.98796 -3.85,0.29714 -10.825,1.14584 -15.5,1.88599 -4.675,0.74016 -11.1644,1.44558 -14.4209,1.56762 -3.2566,0.12203 -7.9816,0.59584 -10.5,1.0529 -2.5185,0.45706 -7.9139,0.89893 -11.9897,0.98193 -4.0758,0.083 -7.6876,0.32209 -8.0261,0.53131 -0.3385,0.20921 -4.4287,0.62737 -9.0894,0.92923 -7.7812,0.50398 -11.0717,0.82635 -20.9739,2.0548 -3.5503,0.44044 -13.0015,1.2573 -23,1.98784 -5.50132,0.40196 -24.52327,2.33817 -50.09679,5.09926 -7.47823,0.8074 -16.92823,1.48189 -21,1.49888 -4.07176,0.017 -10.77821,0.47073 -14.90321,1.00833 -7.6045,0.99108 -11.90486,1.42166 -24.5,2.45306 -3.85,0.31527 -8.125,0.78897 -9.5,1.05265 -2.40387,0.461 -4.72116,0.6832 -20.80314,1.99477 -4.01672,0.32759 -8.06672,0.7409 -9,0.91848 -0.93327,0.17758 -6.64686,0.63656 -12.69686,1.01995 -12.12851,0.76859 -14.32326,0.9759 -26,2.45582 -4.4,0.55767 -14.61282,1.49675 -22.69515,2.08685 -8.08233,0.59011 -15.73233,1.27947 -17,1.53192 -1.26767,0.25245 -7.02985,0.93024 -12.80485,1.5062 -5.775,0.57596 -14.55,1.50143 -19.5,2.05659 -4.95,0.55517 -12.38088,1.15621 -16.51307,1.33564 -4.13219,0.17943 -12.45719,0.81777 -18.5,1.41853 -6.04281,0.60076 -16.38693,1.60509 -22.98693,2.23186 -6.6,0.62676 -13.35,1.33065 -15,1.56418 -1.65,0.23354 -7.725,0.63758 -13.5,0.89787 -5.775,0.26029 -12.975,0.92808 -16,1.48398 -3.025,0.5559 -9.775,1.19273 -15,1.41518 -10.63681,0.45285 -19.74284,1.38497 -22,2.25198 -0.825,0.3169 -4.65,0.71626 -8.5,0.88747 -3.85,0.17121 -11.355,0.8274 -16.67778,1.4582 -5.32278,0.6308 -10.08249,0.89679 -10.57713,0.59108 -0.49464,-0.3057 -5.36464,0.0657 -10.82222,0.82542 -5.45758,0.75969 -12.84787,1.60917 -16.42287,1.88775 -14.906,1.16151 -52.75975,4.65224 -56,5.1641 -1.925,0.30409 -7.55,0.74162 -12.5,0.97228 -9.54511,0.44478 -14.22152,0.99958 -21.5,2.55071 -2.475,0.52746 -10.86503,1.1257 -18.64452,1.32943 -7.77949,0.20374 -14.58021,0.6397 -15.11272,0.96881 -0.85421,0.52793 -21.57916,2.61395 -41.74276,4.20152 -3.85,0.30313 -10.15,1.00808 -14,1.56657 -3.85,0.55848 -10.6,1.21888 -15,1.46754 -9.29019,0.52503 -15.33215,1.19263 -16.32019,1.80327 -0.38299,0.2367 -6.54262,0.71037 -13.68808,1.05261 -13.24606,0.63442 -23.0126,1.379 -27.49173,2.09592 -1.375,0.22007 -10.15,1.08059 -19.5,1.91225 -32.1323,2.85811 -38.75627,3.61713 -40.71507,4.66545 -1.07984,0.57792 -3.63246,0.85796 -5.67248,0.62231 -2.04002,-0.23564 -6.61237,-0.0916 -10.16079,0.31999 -3.54841,0.41164 -9.44089,1.01273 -13.0944,1.33575 -7.8754,0.69629 -9.85726,1.34245 -9.85726,3.21384 0,1.78754 -3.14209,1.77831 -7.45056,-0.0219 -1.86247,-0.7782 -3.59067,-1.21055 -3.84043,-0.96079 -0.24976,0.24977 -7.14897,0.8829 -15.33156,1.40696 -16.83761,1.07839 -21.56591,1.49521 -39.87745,3.51539 -19.36084,2.13593 -40.529376,3.57878 -42.646623,2.90679 -1.026712,-0.32586 -4.226241,-0.10395 -7.110063,0.49315 C 70.859491,707.54371 59.95,708.91972 49.5,710.00441 39.05,711.0891 27.125,712.39779 23,712.9126 18.875,713.42741 12.0125,714.0401 7.75,714.27412 0.72305759,714.65993 0,714.52704 0,712.84981 c 0,-1.39412 0.80061753,-1.88125 3.25,-1.97743 1.7875,-0.0702 4.15,-0.22862 5.25,-0.35205 2.219395,-0.24904 18.406488,-1.8817 40.5,-4.08491 7.975,-0.79528 18.1,-1.87305 22.5,-2.39504 4.4,-0.52199 12.275,-1.20508 17.5,-1.51798 9.801787,-0.58697 13.61652,-0.94315 47.5,-4.43507 25.0087,-2.57731 25.52173,-2.67334 27.21758,-5.09451 1.6713,-2.38612 5.52874,-2.60588 7.34419,-0.4184 1.29184,1.55658 6.16124,1.54346 22.43823,-0.0605 9.06529,-0.89327 26.12746,-1.9537 27.87134,-1.73222 1.02924,0.13072 5.75424,-0.42213 10.5,-1.22854 4.74576,-0.80642 16.72866,-2.16594 26.62866,-3.02116 9.9,-0.85523 20.925,-1.80929 24.5,-2.12014 3.575,-0.31085 7.42838,-0.71064 8.56307,-0.88843 1.13469,-0.17778 7.88469,-0.81302 15,-1.41163 7.11531,-0.59861 14.96193,-1.30232 17.43693,-1.5638 20.06711,-2.12009 27.58276,-2.88165 50,-5.06655 14.025,-1.36694 32.025,-3.13685 40,-3.93312 7.975,-0.79628 18.1,-1.70111 22.5,-2.01074 4.4,-0.30963 9.8,-0.7709 12,-1.02505 2.2,-0.25415 7.15,-0.69904 11,-0.98866 6.63656,-0.49924 25.56816,-2.35987 46.5,-4.5701 5.225,-0.55172 17.375,-1.65551 27,-2.45286 9.625,-0.79736 21.325,-1.9042 26,-2.45965 4.675,-0.55545 12.775,-1.24076 18,-1.52292 11.14177,-0.60168 16.29328,-1.08179 32.5,-3.02896 6.6,-0.79297 15.375,-1.67238 19.5,-1.95425 9.22464,-0.63034 12.78894,-0.97682 30.5,-2.96485 13.33623,-1.49697 19.074,-2.07239 31.5,-3.15901 3.025,-0.26453 9.325,-0.9119 14,-1.4386 16.08935,-1.81267 44.61652,-4.07859 52.05144,-4.13447 4.09671,-0.0308 7.89856,-0.41601 8.44856,-0.85604 0.55,-0.44004 8.65,-1.51956 18,-2.39895 9.35,-0.87938 19.25,-1.81802 22,-2.08587 30.70169,-2.99034 110.59525,-10.51475 116,-10.92494 3.85,-0.29219 13.3,-1.17767 21,-1.96774 13.30608,-1.36528 75.3813,-7.24481 86,-8.1456 24.415,-2.07112 40.8204,-4.46597 42.8059,-6.24881 1.4661,-1.31632 2.1693,-1.39461 3.7365,-0.41592 1.0617,0.66308 5.1397,1.20561 9.062,1.20561 6.597,0 7.4038,-0.23958 10.7636,-3.1962 3.6204,-3.18601 3.6331,-3.18875 3.97,-0.85943 0.3345,2.31289 0.4366,2.33066 10,1.73895 5.3141,-0.32879 18.212,-1.48332 28.662,-2.56563 10.45,-1.0823 22.375,-2.24454 26.5,-2.58275 11.8769,-0.9738 21.1074,-2.64017 21.5323,-3.8872 0.215,-0.63126 1.5218,-17.79774 2.904,-38.14774 1.3821,-20.35 2.7805,-39.925 3.1074,-43.5 0.3269,-3.575 0.7961,-9.425 1.0427,-13 0.2465,-3.575 0.8755,-12.125 1.3977,-19 0.5222,-6.875 1.2158,-17.225 1.5412,-23 0.507,-8.9965 1.5606,-23.98114 3.9727,-56.5 2.4527,-33.06535 2.4824,-33.89415 1.2431,-34.70662 -0.6826,-0.44749 -5.7411,-3.57014 -11.2411,-6.93924 -5.5,-3.3691 -13.1171,-8.08954 -16.927,-10.48988 -3.8098,-2.40035 -7.7765,-4.36426 -8.8149,-4.36426 -1.9206,0 -8.6405,-6.35874 -15.2706,-14.44997 -5.8609,-7.15249 -5.7605,-10.38948 0.6224,-20.05003 5.0787,-7.68657 17.0754,-23.60535 22.698,-30.11859 1.4806,-1.71523 4.2671,-5.29161 6.1921,-7.94752 1.925,-2.65591 6.2206,-7.59748 9.5458,-10.98127 5.2996,-5.39304 7.0476,-6.48601 14.1634,-8.85579 4.8821,-1.62586 8.3768,-3.37847 8.7676,-4.39697 0.8239,-2.14704 0.7642,-41.43388 -0.096,-63.44986 -0.4342,-11.10824 -0.3124,-16.75 0.3615,-16.75 0.6063,0 1.3393,5.95112 1.8169,14.75 0.8668,15.97083 1.7802,15.36173 3.0043,-2.00336 0.3829,-5.43207 0.9959,-8.51922 1.6155,-8.13625 0.6496,0.40144 0.7431,7.12677 0.2675,19.24402 -0.6629,16.89128 -0.5842,18.50507 0.8445,17.31934 1.994,-1.65481 3.4929,-0.24223 9.6494,9.09344 2.4421,3.70304 4.7611,6.73281 5.1535,6.73281 1.1608,0 1.5565,-9.8642 0.7622,-19 -0.8017,-9.22183 -0.013,-11.58587 2.8952,-8.67762 1.3968,1.39671 1.808,3.98233 2.1009,13.20884 0.4078,12.84682 -0.027,15.64442 -2.8772,18.49422 -2.6058,2.60579 -4.2074,2.49097 -7.8353,-0.56172 l -3.0142,-2.53628 -0.3126,3.685 c -0.3569,4.2087 -3.244,6.89051 -4.7749,4.43538 -0.4981,-0.79869 -1.2024,-3.61069 -1.5653,-6.24888 -0.9695,-7.04941 -2.102,-6.65639 -2.8233,0.97976 -1.1028,11.67652 -0.8431,14.73565 1.4251,16.78838 1.3232,1.19742 1.916,2.70449 1.6373,4.1623 -1.0489,5.48705 8.6581,45.89385 15.3804,64.0229 4.2117,11.35845 8.1223,18.39334 17.9262,32.24772 3.3082,4.675 7.8762,11.2 10.1511,14.5 2.275,3.3 12.055,13.89546 21.7336,23.54547 38.9972,38.8823 55.5804,56.47439 60.0973,63.75366 2.475,3.98858 7.8641,12.30297 11.9757,18.47642 17.7819,26.6986 23.9844,38.39501 21.255,40.08185 -0.4231,0.2615 -3.4606,-2.56327 -6.75,-6.27726 -6.0611,-6.84348 -16.4519,-15.35829 -20.7242,-16.98261 -1.2863,-0.48905 -2.9134,-1.5816 -3.6157,-2.42789 -0.7024,-0.84629 -3.0043,-2.439 -5.1153,-3.53935 -6.3144,-3.29124 -12.8643,-8.64812 -25.6255,-20.95813 -11.819,-11.40104 -21.595,-19.64822 -28.0602,-23.67216 -5.2864,-3.29016 -19.096,-14.54744 -26.5416,-21.63594 -5.4682,-5.20598 -7.8362,-6.77442 -10.9891,-7.2786 -6.3208,-1.01074 -9.5363,-3.17711 -19.7586,-13.31187 l -9.5505,-9.46868 -0.5601,3.84755 c -0.3081,2.11615 -0.4051,7.89754 -0.2157,12.84754 0.1895,4.95 1.2286,34.875 2.3091,66.5 1.0806,31.625 2.1822,62.45 2.4482,68.5 0.2659,6.05 0.7275,19.1 1.0257,29 0.2982,9.9 0.8131,20.85505 1.1441,24.34456 l 0.6019,6.34455 4.1234,-0.57613 c 2.2679,-0.31688 8.1734,-0.82759 13.1234,-1.13493 8.8881,-0.55184 24.8061,-1.95128 35.5,-3.12098 3.025,-0.33088 10.807,-0.55803 17.2933,-0.50479 8.5268,0.07 11.6,-0.21592 11.0955,-1.03225 -0.439,-0.71021 -0.2474,-0.8507 0.5163,-0.37869 0.6677,0.41269 6.5781,0.84802 13.134,0.96739 11.9541,0.21766 15.5508,0.90696 10.2824,1.97056 -2.7165,0.54841 -30.3573,3.06879 -44.8215,4.08698 -5.6654,0.39881 -17.9757,1.47603 -23,2.01263 -4.2323,0.45201 -17.0028,1.62256 -21.5,1.97069 -6.7636,0.52357 -11.8966,1.52269 -14.3887,2.80067 -1.7759,0.91071 -1.8497,1.93241 -1.2363,17.10914 0.3589,8.87733 1.0846,29.6406 1.6129,46.1406 0.5282,16.5 1.2026,36.75 1.4986,45 0.7247,20.19413 3.2424,100.82074 4.4967,144 0.5592,19.25 1.2415,39.05 1.5162,44 0.2748,4.95 0.7416,17.55 1.0374,28 0.6475,22.87651 1.109,27.15012 3.0112,27.88004 1.9412,0.74491 1.8444,4.52893 -0.1729,6.75803 -1.4782,1.63336 -1.5306,5.07279 -0.5804,38.07874 0.5745,19.95584 1.0729,39.43324 1.1075,43.28324 0.035,3.85 0.2207,9.925 0.4135,13.5 0.8172,15.1484 2.1226,57.1994 2.0333,65.5 -0.097,9.0414 -1.1061,21.5904 -1.7906,22.275 -0.8342,0.8341 -2.3212,-27.243 -3.0601,-57.775 -0.3127,-12.925 -0.987,-32.95 -1.4984,-44.5 -0.8917,-20.1405 -1.3436,-32.7284 -2.5132,-70.00005 -0.2934,-9.35 -0.965,-30.275 -1.4925,-46.5 -0.5275,-16.225 -1.2064,-37.825 -1.5087,-48 -2.2979,-77.3336 -2.6006,-86.8838 -5.9744,-188.5 -0.3105,-9.35 -0.7609,-20.375 -1.001,-24.5 -0.2401,-4.125 -0.733,-19.425 -1.0953,-34 -0.3623,-14.575 -0.8476,-26.82493 -1.0785,-27.22207 -0.5938,-1.02135 -23.4849,0.60866 -28.8363,2.05335 l -3,0.80989 -1.6317,19.55529 c -0.8974,10.75541 -1.8672,24.67364 -2.1551,30.92941 -0.5452,11.8449 -3.9401,60.5775 -5.6689,81.37413 -0.9627,11.58081 -1.3203,16.68247 -2.9083,41.5 -0.4047,6.325 -0.3759,11.65 0.064,11.83333 1.1003,0.4585 1.0073,3.55741 -0.1415,4.71667 -0.8178,0.82515 -2.5795,18.2121 -3.592,35.45 -0.1777,3.025 -0.5723,9.325 -0.8768,14 -0.3046,4.675 -1.2388,19.3 -2.0761,32.5 -0.8373,13.2 -2.0331,30.75 -2.6573,39 -0.6243,8.25 -1.3282,19.1625 -1.5643,24.25 l -0.4293,9.25 3.3186,0.14983 c 3.026,0.13663 3.0761,0.18656 0.5682,0.56646 -1.5127,0.22915 -3.2369,1.32574 -3.8316,2.43687 -0.5946,1.11113 -1.4868,9.51873 -1.9826,18.68354 -1.5267,28.22272 -4.1857,67.81105 -6.4253,95.66335 -0.2211,2.75 -0.6698,11.075 -0.997,18.5 -0.3272,7.425 -1.0238,18.9 -1.5479,25.5 -1.1721,14.7598 -6.6267,95.0982 -7.4345,109.5 -0.3239,5.775 -1.4644,24 -2.5344,40.5 -1.07,16.5 -2.3925,37.2 -2.9389,46 -0.5464,8.8 -1.8892,29.5 -2.9839,46 -1.0948,16.5 -2.4681,37.2 -3.052,46 -1.6698,25.1681 -3.9879,59.3754 -4.5063,66.5 -0.2602,3.575 -0.7162,10.325 -1.0133,15 -0.2972,4.675 -0.7592,10.525 -1.0267,13 -1.3888,12.8488 -3.5313,57.1936 -2.9807,61.6943 0.3891,3.1802 0.1973,6.0131 -0.4946,7.3059 -0.6304,1.1779 -1.971,15.9053 -3.0317,33.3057 -3.1992,52.479 -4.2145,68.1304 -4.5211,69.6941 -0.1617,0.825 -0.3285,2.7375 -0.3706,4.25 -0.077,2.7608 -2.3011,3.8136 -3.6038,1.7058 z m 94.4083,-1075.15899 12.381,-1.21978 -0.6399,-23.53851 c -0.352,-12.94619 -0.8552,-28.71352 -1.1183,-35.03852 -0.689,-16.56158 -1.3818,-39.92271 -2.0167,-68 -0.3048,-13.475 -0.7434,-26.975 -0.9748,-30 -0.2314,-3.025 -0.7309,-17.7976 -1.11,-32.828 l -0.6892,-27.328 -3.8367,-2.422 c -2.1101,-1.3321 -4.2632,-2.422 -4.7846,-2.422 -1.3496,0 -2.6732,14.71874 -5.6205,62.5 -0.3053,4.95 -0.9713,14.625 -1.48,21.5 -0.5087,6.875 -1.3996,20.6 -1.9799,30.5 -0.5802,9.9 -1.2879,20.475 -1.5727,23.5 -0.2848,3.025 -1.1806,15.625 -1.9908,28 -0.8101,12.375 -1.8977,27.225 -2.4168,33 -0.5192,5.775 -0.9635,13.7625 -0.9875,17.75 L 1191,597 l 3.25,0.008 c 1.7875,0.005 8.8214,-0.54061 15.631,-1.21148 z M 1358.6913,481.75 c -18.2639,-28.45155 -25.0677,-37.7197 -34.6867,-47.25 -5.5511,-5.5 -14.9479,-15.4 -20.8818,-22 -5.9338,-6.6 -14.546,-15.15 -19.1382,-19 -13.834,-11.59821 -22.7115,-21.70405 -34.699,-39.5 -2.4082,-3.575 -5.3701,-7.95202 -6.582,-9.72671 -5.4215,-7.93874 -6.9877,-11.03554 -7.4716,-14.77329 -0.2848,-2.2 -1.3127,-5.1372 -2.2843,-6.52712 -3.7389,-5.3489 -8.0186,-16.41229 -11.5742,-29.92009 -2.0353,-7.73247 -3.8885,-13.87107 -4.1183,-13.64134 -0.5325,0.5325 -0.3239,35.961 0.2625,44.58238 0.2434,3.5784 0.7277,15.89141 1.0762,27.36226 l 0.6337,20.8561 8.8386,10.08288 C 1237.0421,392.53456 1245.442,399 1249.7694,399 c 3.4827,0 6.0027,1.58749 13.3065,8.38233 9.6652,8.99183 19.729,17.70634 24.3871,21.11767 11.4516,8.38641 18.1759,14.08323 30.0947,25.49634 7.1817,6.87701 15.4229,14.07866 18.3138,16.00366 2.8908,1.925 7.3649,4.96387 9.9423,6.75305 11.8472,8.22402 14.7396,10.12881 15.4669,10.18579 0.4294,0.0336 -0.7358,-2.30134 -2.5894,-5.18884 z m -144.143,-142.76657 c -0.4016,-17.05911 -0.8798,-31.79661 -1.0627,-32.75 -0.1829,-0.95338 -0.4247,-6.00843 -0.5373,-11.23343 l -0.2047,-9.5 -1.2516,10.5 c -1.1331,9.50564 -2.3497,26.44192 -4.1386,57.61727 l -0.638,11.11726 3.8745,2.63274 c 2.1309,1.448 4.0575,2.63273 4.2814,2.63273 0.2239,0 0.079,-13.95745 -0.323,-31.01657 z M 1202.4309,358.75 c 0.2579,-1.2375 0.7471,-5.85 1.0869,-10.25 0.3399,-4.4 0.7998,-9.8 1.022,-12 0.2222,-2.2 0.8802,-11.425 1.4623,-20.5 0.5821,-9.075 1.7324,-25.46481 2.5563,-36.4218 0.8239,-10.95699 1.1478,-20.2376 0.7198,-20.62359 -0.428,-0.38598 -3.2532,10e-4 -6.2782,0.86093 -4.5973,1.30622 -6.6489,2.73789 -12.5,8.72278 -6.9753,7.13475 -14.8516,16.44913 -21.5,25.42529 -1.925,2.599 -6.0169,7.60792 -9.0932,11.13092 -7.0673,8.09376 -10.9068,13.82939 -10.9068,16.29321 0,4.3103 11.7104,16.99129 18.993,20.5671 5.4509,2.67648 21.1231,12.01338 27.9405,16.64596 4.3966,2.98756 5.8986,3.02205 6.4974,0.1492 z m -22.9172,1238.0821 c -5.7935,-4.5571 -7.4701,-15.1145 -3.0507,-19.2102 2.2786,-2.1118 2.3492,-2.445 0.9433,-4.4523 -0.8359,-1.1933 -2.1216,-2.1696 -2.8572,-2.1696 -0.7356,0 -1.3342,-1.0125 -1.33,-2.25 0,-1.2375 -0.3203,-3.8939 -0.721,-5.9032 -0.6339,-3.1795 -0.4304,-3.8127 1.5698,-4.8831 2.001,-1.0709 2.533,-0.9399 4.1151,1.014 0.9993,1.2341 1.817,3.732 1.817,5.5509 0,1.8189 1.1504,5.5976 2.5566,8.3971 3.4718,6.9122 6.4434,15.7812 6.4434,19.2309 0,2.9786 -3.0299,6.8434 -5.3651,6.8434 -0.7509,0 -2.6054,-0.9756 -4.1212,-2.1679 z m 5.4383,-6.0821 c -0.061,-4.1428 -3.0173,-10.25 -4.9614,-10.25 -2.2914,0 -1.6896,6.7095 0.9319,10.3912 2.8371,3.9843 4.0898,3.9404 4.0295,-0.1412 z m -32.3994,-16 c -0.8612,-2.7985 -4.5384,-13.5383 -6.0775,-17.75 -3.7758,-10.3325 1.8285,-19.119 9.5567,-14.983 4.5843,2.4534 4.4806,14.4706 -0.165,19.1162 -1.8527,1.8527 -1.9256,2.4532 -0.8447,6.9589 1.2155,5.0666 0.8482,7.9079 -1.0221,7.9079 -0.5845,0 -1.2359,-0.5625 -1.4474,-1.25 z m 2.4722,-18.3151 c 2.249,-5.9153 -0.5216,-13.6094 -4.369,-12.133 -2.1538,0.8264 -2.2298,7.6874 -0.1301,11.7478 1.8757,3.6273 3.2226,3.7426 4.4991,0.3852 z m 7.1871,17.3151 c -0.5681,-0.6875 -1.3404,-2.8953 -1.7161,-4.9063 -0.552,-2.954 -0.2811,-4.0584 1.4105,-5.75 1.1515,-1.1515 2.7687,-2.0937 3.5937,-2.0937 2.5059,0 5.5,3.8106 5.5,7 0,5.1482 -6.0268,9.0915 -8.7881,5.75 z m 3.9122,-6.0167 c -0.9876,-0.9802 -1.1025,-0.8654 -0.5598,0.5598 0.3755,0.9862 0.9347,1.5412 1.2426,1.2334 0.3079,-0.3079 6e-4,-1.1148 -0.6828,-1.7932 z m 208.4335,-204.64 c -0.3082,-0.4987 0.3403,-0.6713 1.441,-0.3834 2.335,0.6106 2.6302,1.2901 0.5604,1.2901 -0.7925,0 -1.6931,-0.408 -2.0014,-0.9067 z M 1274.7374,965.75 c -1.925,-4.5375 -4.0485,-9.96835 -4.7189,-12.06855 -0.9343,-2.92702 -1.604,-3.66594 -2.8687,-3.16492 -0.9074,0.35949 -3.1502,0.90536 -4.984,1.21305 l -3.3341,0.55942 0.4492,5.1055 c 0.2471,2.80803 0.7889,6.12344 1.204,7.36759 0.6818,2.04363 0.5302,2.17907 -1.5693,1.40241 -3.3359,-1.23404 -4.0441,-4.79633 -4.2219,-21.23604 -0.1339,-12.38545 0.1057,-14.97337 1.5974,-17.25 1.0691,-1.63171 2.6624,-2.67846 4.077,-2.67846 4.2379,0 6.5846,4.04556 12.1813,21 2.0879,6.325 5.0697,14.6024 6.6261,18.39422 2.1535,5.24604 2.561,7.21834 1.7048,8.25 -0.6188,0.74568 -1.4667,1.35578 -1.8841,1.35578 -0.4174,0 -2.3339,-3.7125 -4.2588,-8.25 z m -8.0696,-20.3266 c 0.7581,-1.97561 -3.4449,-13.91167 -5.5786,-15.84265 -1.725,-1.56113 -1.8597,-1.47845 -2.4571,1.5088 -0.3477,1.73825 -0.6321,6.15359 -0.6321,9.81188 l 0,6.65142 4.0744,-0.38856 c 2.2409,-0.2137 4.308,-0.99711 4.5934,-1.74089 z m -44.9178,7.87087 c 1.2375,-0.23836 3.2625,-0.23836 4.5,0 1.2375,0.23835 0.225,0.43337 -2.25,0.43337 -2.475,0 -3.4875,-0.19502 -2.25,-0.43337 z m -28.5117,-1.98135 c 0.9561,-0.25029 2.7561,-0.25937 4,-0.0202 1.244,0.23919 0.4617,0.44398 -1.7383,0.45508 -2.2,0.0111 -3.2177,-0.18461 -2.2617,-0.4349 z m -17.4883,-0.9752 c 0.6875,-0.27741 1.8125,-0.27741 2.5,0 0.6875,0.27741 0.125,0.50439 -1.25,0.50439 -1.375,0 -1.9375,-0.22698 -1.25,-0.50439 z M 1044.6193,847.86815 c 2.0009,-2.21094 3.3807,-2.40878 3.3807,-0.48473 0,0.76089 -1.141,1.60155 -2.5357,1.86815 -2.4192,0.46247 -2.458,0.39898 -0.845,-1.38342 z m 280.6159,-12.57583 c -1.2457,-0.23942 -2.0363,-0.80513 -1.7569,-1.25714 0.2793,-0.45201 -0.614,-1.10341 -1.9852,-1.44756 -1.3712,-0.34415 -2.4931,-1.29215 -2.4931,-2.10667 0,-0.81452 -0.675,-1.48095 -1.5,-1.48095 -2.5132,0 -1.6705,-2.73425 1,-3.24475 1.6248,-0.31061 2.5,-0.0249 2.5,0.81603 0,1.85282 4.0652,2.94123 5.0477,1.35147 0.5144,-0.83227 0.9144,-0.0705 1.1252,2.14299 0.1988,2.08709 0.8174,3.33619 1.5771,3.18426 0.6875,-0.1375 1.25,0.425 1.25,1.25 0,1.50489 -0.567,1.59917 -4.7648,0.79232 z m 2.7648,-3.7333 c 0,-0.24254 0.45,-0.7191 1,-1.05902 0.55,-0.33992 1,-0.14148 1,0.44098 0,0.58246 -0.45,1.05902 -1,1.05902 -0.55,0 -1,-0.19844 -1,-0.44098 z m -29.6482,-2.08454 c -0.4565,-1.18964 -0.8952,-1.26835 -1.9927,-0.3575 -3.6329,3.01496 -2.1015,-2.81099 1.9363,-7.36698 1.3405,-1.5125 2.9474,-2.75 3.5709,-2.75 0.6236,0 1.1569,-0.5625 1.1852,-1.25 0.028,-0.6875 0.7515,0.43752 1.607,2.50004 0.9069,2.18642 1.2366,4.47971 0.7908,5.5 -0.4206,0.96248 -0.6831,2.27313 -0.5833,2.91256 0.1093,0.69989 -0.6239,0.95196 -1.8422,0.63336 -1.1394,-0.29796 -2.0238,-0.0413 -2.0238,0.58741 0,1.65713 -1.9722,1.35261 -2.6482,-0.40889 z M 1297,819.55902 c 0,-0.24254 0.45,-0.7191 1,-1.05902 0.55,-0.33992 1,-0.14148 1,0.44098 0,0.58246 -0.45,1.05902 -1,1.05902 -0.55,0 -1,-0.19844 -1,-0.44098 z m 166.3149,-1.53771 c 0.1018,-1.36327 0.9164,-3.21952 1.8101,-4.125 0.8938,-0.90547 1.7938,-2.11929 2,-2.69737 0.2063,-0.57809 1.725,-1.33999 3.375,-1.69313 2.9158,-0.62404 2.9438,-0.59481 1,1.04081 -1.3944,1.17332 -1.6215,1.82477 -0.75,2.15147 1.6531,0.61967 1.6125,3.30191 -0.05,3.30191 -0.715,0 -1.9062,-0.5625 -2.6472,-1.25 -1.1013,-1.0219 -1.2311,-0.92118 -0.7114,0.55194 0.3779,1.07114 0.2348,1.55416 -0.3529,1.19098 C 1466.4448,816.1569 1466,816.38508 1466,817 c 0,0.61492 -0.4159,0.86097 -0.9243,0.54677 -0.5084,-0.31419 -1.1542,0.22175 -1.4352,1.19099 -0.3035,1.04706 -0.4357,0.75631 -0.3256,-0.71645 z m -2.2587,-5.58897 c 0.6437,-0.77568 1.5694,-1.16372 2.0571,-0.86231 1.3201,0.81588 1.101,1.14067 -1.1705,1.73466 -1.6808,0.43956 -1.843,0.27999 -0.8866,-0.87235 z m 15.5404,-11.27611 c -0.3461,-0.55992 -0.1419,-1.31919 0.4536,-1.68727 1.5375,-0.95021 2.5295,0.35135 1.246,1.63484 -0.7182,0.71818 -1.2775,0.73543 -1.6996,0.0524 z M 983,779.05902 C 983,778.47656 983.45,778 984,778 c 0.55,0 1,0.19844 1,0.44098 0,0.24254 -0.45,0.7191 -1,1.05902 -0.55,0.33992 -1,0.14148 -1,-0.44098 z M 174,775 c 0,-0.55 1.6875,-0.99311 3.75,-0.98469 2.78938,0.0114 3.36575,0.26364 2.25,0.98469 -1.97089,1.27369 -6,1.27369 -6,0 z m -24,-7.18809 c -2.475,-1.12575 -3.97078,-2.24537 -3.32395,-2.48804 1.16619,-0.43754 10.32395,3.28903 10.32395,4.20112 0,0.93145 -2.56713,0.3032 -7,-1.71308 z m 46.46106,-0.87492 C 195.66736,765.65276 198.77035,762 200.65499,762 c 1.9266,0 1.65873,2.40611 -0.48373,4.34501 -2.13688,1.93385 -2.8141,2.0419 -3.7102,0.59198 z M 136.79659,756.25 c -2.00397,-2.31729 -3.97764,-8.25 -2.74457,-8.25 0.52139,0 0.94798,0.47174 0.94798,1.04831 0,0.57656 0.85916,2.82656 1.90925,5 2.12342,4.39496 2.10446,4.76545 -0.11266,2.20169 z m 68.75324,-5.16938 c -0.31252,-0.50566 0.20333,-1.69093 1.14634,-2.63393 1.1501,-1.1501 1.8426,-1.33039 2.10352,-0.54763 0.91716,2.7515 -1.84464,5.45526 -3.24986,3.18156 z M 131.01531,731.75 c 0.0171,-6.99217 1.28858,-10.30525 2.97419,-7.75 0.54422,0.825 0.71473,2.175 0.37891,3 -0.33581,0.825 -0.83834,3.6375 -1.11672,6.25 -0.73111,6.86118 -2.25436,5.8395 -2.23638,-1.5 z m 78.09175,3.879 c -1.03109,-1.24238 -1.04453,-2.28843 -0.0675,-5.24895 l 1.22023,-3.69735 1.33466,2.40865 c 1.69637,3.06144 1.7134,4.10534 0.10291,6.30782 -1.16927,1.59906 -1.43444,1.62259 -2.59033,0.22983 z m -2.37789,-16.23317 C 206.32812,718.99479 206,717.97667 206,717.13333 c 0,-1.12559 0.29583,-1.2375 1.1125,-0.42083 0.61187,0.61188 0.94,1.63 0.72917,2.2625 -0.21084,0.6325 -0.71146,0.82187 -1.1125,0.42083 z m -64.54559,-8.04497 c 0.41661,-3.48791 3.08204,-5.20523 5.26591,-3.39278 1.4735,1.2229 1.42105,1.55082 -0.59049,3.69201 -3.00235,3.19585 -5.07703,3.06307 -4.67542,-0.29923 z M 153,707.07143 c 0,-2.52434 2.86325,-5.33788 4.71073,-4.62894 0.79906,0.30663 1.64104,0.55751 1.87106,0.55751 1.57161,0 -0.0948,2.87183 -2.48608,4.28439 C 153.41891,709.45633 153,709.43455 153,707.07143 z m 46.57143,-1.64286 c -0.86429,-0.86428 -1.55646,-2.55178 -1.53816,-3.75 0.0333,-2.17837 0.0335,-2.17835 2,0.18221 1.75801,2.11025 2.66458,5.13922 1.53816,5.13922 -0.23572,0 -1.13572,-0.70714 -2,-1.57143 z m -56.82031,-45.26678 c -7.85885,-9.73369 -12.24502,-18.0578 -11.36424,-21.56711 1.55375,-6.19062 14.34411,-8.9546 19.15857,-4.14013 3.16453,3.16452 3.15015,7.21406 -0.041,11.53939 -2.85369,3.86796 -4.32031,4.96906 -6.64748,4.99075 -3.41904,0.0319 -2.94331,-3.16739 1.12773,-7.58394 4.76574,-5.17022 5.13297,-7.35259 1.26528,-7.51923 -6.09069,-0.26242 -10.91139,1.47624 -11.79277,4.25325 -0.83998,2.64652 3.18405,10.59357 6.40707,12.65332 3.34239,2.13603 4.59224,3.68981 7.20313,8.95473 3.72363,7.50878 1.4852,6.84309 -5.31631,-1.58103 z m 11.99888,0.38442 c -4.40347,-4.04444 -5.00361,-8.2926 -1.64583,-11.65038 C 157.4217,644.5783 166,649.52567 166,656.33326 c 0,4.09489 -2.47484,7.66813 -5.3067,7.66196 -1.20632,-0.003 -3.8808,-1.55468 -5.9433,-3.44901 z m 7.25,-5.66865 c 0,-2.44001 -4.51159,-2.57272 -5.85497,-0.17224 -0.73218,1.30835 -0.45277,1.96878 1.20031,2.8371 2.54702,1.33788 4.65466,0.13122 4.65466,-2.66486 z m 886.4283,-48.49517 c -3.8425,-1.9883 -7.4283,-5.39474 -7.4283,-7.0567 0,-2.27345 1.7563,-1.48281 6.9471,3.12734 5.2464,4.65954 5.4733,6.51254 0.4812,3.92936 z m 39.2066,-12.45497 C 1085.4088,592.17641 1085,591.07003 1085,586.79658 l 0,-5.05826 -3.6239,0.58807 c -1.9931,0.32345 -3.6806,0.71983 -3.75,0.88085 -3.0962,7.18862 -4.1731,8.29276 -8.0882,8.29276 -3.3851,0 -4.2898,-0.492 -6.2481,-3.39788 -1.8987,-2.8176 -2.2898,-4.72577 -2.2898,-11.17328 0,-6.90599 0.2895,-8.11941 2.5889,-10.85211 4.883,-5.80316 11.522,-2.84771 12.9721,5.77472 1.1414,6.78689 1.3961,7.2419 3.4404,6.1478 2.5536,-1.36666 7.3404,-1.25744 8.7986,0.20075 0.66,0.66 1.2,3.34963 1.2,5.97695 0,4.12748 0.3739,5.01085 2.75,6.49734 1.5125,0.94621 2.9743,1.89338 3.2484,2.10481 0.6898,0.53199 -3.1126,3.2209 -4.5547,3.2209 -0.6457,0 -2.3597,-0.93266 -3.8088,-2.07258 z m -15.2419,-8.50921 c 2.0247,-5.27621 -0.9499,-16.5508 -4.543,-17.21934 -1.391,-0.25881 -1.6506,0.68265 -1.6541,5.99706 0,3.46724 0.6047,7.76657 1.349,9.55407 1.4395,3.45757 3.844,4.28494 4.8481,1.66821 z m -49.2927,-0.9988 C 1017.5485,578.34482 1016.9766,577 1019.945,577 c 1.7898,0 10.055,9.99773 10.055,12.16279 0,1.94823 -2.1091,0.49829 -6.8997,-4.74338 z M 1417.6499,587 c 0.7683,-4.37557 2.3501,-6.3215 2.3501,-2.89113 0,1.37988 -0.6671,3.38238 -1.4823,4.45 -1.3763,1.80216 -1.4384,1.69057 -0.8678,-1.55887 z m -413.6084,-27.10147 c -3.6344,-5.01708 -4.44042,-7.36329 -3.2564,-9.47893 0.7459,-1.333 1.3566,-0.84835 3.4397,2.72982 2.4643,4.23304 4.5141,10.85058 3.3609,10.85058 -0.3152,0 -1.9101,-1.84566 -3.5442,-4.10147 z M 988.06498,524.46 c -3.16194,-5.21718 -3.28845,-5.77075 -2.17114,-9.5 1.31359,-4.38438 3.10616,-5.28997 3.10616,-1.5692 0,1.31493 0.89012,4.35243 1.97804,6.75 2.00059,4.4089 2.68235,9.8592 1.23325,9.8592 -0.43379,0 -2.29963,-2.493 -4.14631,-5.54 z m 12.44512,-24.44369 c -0.3455,-0.55897 0.073,-1.01631 0.9309,-1.01631 1.7565,0 2.0151,0.60006 0.6281,1.45729 -0.512,0.31644 -1.2136,0.11799 -1.559,-0.44098 z m -18.56481,-5.11854 c -2.88135,-5.38385 -3.34112,-22.52971 -0.57945,-21.60916 1.36483,0.45495 2.35304,5.60566 3.06232,15.96139 0.53518,7.81378 -0.30312,9.72067 -2.48287,5.64777 z M 1004,496 c 0,-0.55 0.45,-1 1,-1 0.55,0 1,0.45 1,1 0,0.55 -0.45,1 -1,1 -0.55,0 -1,-0.45 -1,-1 z m 12.5,-14 c -0.3399,-0.55 -0.1415,-1 0.441,-1 0.5824,0 1.059,0.45 1.059,1 0,0.55 -0.1984,1 -0.441,1 -0.2425,0 -0.7191,-0.45 -1.059,-1 z M 459,462 c 0,-0.55 0.19844,-1 0.44098,-1 0.24254,0 0.7191,0.45 1.05902,1 0.33992,0.55 0.14148,1 -0.44098,1 C 459.47656,463 459,462.55 459,462 z m 547,-0.94098 c 0,-1.06754 0.3937,-2.18434 0.875,-2.48177 0.4813,-0.29742 0.875,0.57602 0.875,1.94099 0,1.36497 -0.3937,2.48176 -0.875,2.48176 -0.4813,0 -0.875,-0.87344 -0.875,-1.94098 z M 975.23925,452.75 c -1.74339,-2.16701 -5.36934,-20.24743 -4.50976,-22.48744 0.26647,-0.69441 1.094,-1.26256 1.83895,-1.26256 1.54839,0 3.06279,5.00611 3.93263,13 0.32916,3.025 0.82147,6.9625 1.09402,8.75 0.50701,3.32527 -0.56052,4.23156 -2.35584,2 z m -8.40267,-50.02409 c -0.51645,-4.42374 0.46953,-16.36535 1.43058,-17.3264 1.5938,-1.59381 2.15764,1.07769 1.97178,9.34246 -0.13179,5.85999 -0.64566,9.09332 -1.59628,10.04394 -1.20256,1.20256 -1.45939,0.90962 -1.80608,-2.06 z M 944.5691,379.8882 c 0.37792,-0.6115 0.067,-1.5046 -0.69098,-1.98469 -1.08994,-0.69036 -1.01218,-0.87609 0.37188,-0.8882 0.9625,-0.008 1.75,0.17289 1.75,0.4029 0,0.23002 0.27314,1.13002 0.60699,2 0.40381,1.05231 0.0493,1.58179 -1.05902,1.58179 -0.96771,0 -1.378,-0.466 -0.97887,-1.1118 z M 960,379 c 0,-0.55 0.45,-1 1,-1 0.55,0 1,0.45 1,1 0,0.55 -0.45,1 -1,1 -0.55,0 -1,-0.45 -1,-1 z m -24.34676,-3.40211 c -3.35928,-1.04129 -3.64696,-1.35822 -2.27007,-2.50093 1.3332,-1.10646 2.05491,-0.90613 4.67348,1.29726 3.4026,2.86309 3.22956,2.94975 -2.40341,1.20367 z m 31.76336,-5.07417 c -0.34183,-1.36195 -0.2379,-6.19945 0.23095,-10.75 C 968.29756,353.46484 968.85622,351.5 970,351.5 c 1.62945,0 1.7071,2.30409 0.49707,14.75 -0.67066,6.89815 -1.96952,8.70013 -3.08047,4.27372 z m 5.41407,-38.57001 c -0.199,-1.34954 0.33877,-6.05112 1.19503,-10.44796 1.15618,-5.93686 1.99384,-8.07841 3.25482,-8.32126 1.40995,-0.27153 1.59944,0.23639 1.11709,2.99426 -1.03234,5.9024 -3.38075,14.96871 -4.30516,16.62053 -0.74679,1.33444 -0.96154,1.19053 -1.26178,-0.84557 z m 9.19974,-35.54375 c -0.0657,-8.83731 5.99844,-25.71444 8.38278,-23.33011 0.5754,0.57541 -5.85789,23.13322 -7.30823,25.62573 -0.84979,1.46041 -1.0498,1.03312 -1.07455,-2.29562 z M 993,260.3801 c 0,-3.21984 7.9021,-17.3801 9.699,-17.3801 0.7155,0 1.301,0.2818 1.301,0.62623 C 1004,244.55214 993.93682,263 993.43175,263 993.19429,263 993,261.82105 993,260.3801 z m 19.4866,-29.50487 C 1014.3532,224.54979 1025.0929,211 1028.24,211 c 1.8644,0 1.8031,0.22778 -0.7396,2.75 -1.5248,1.5125 -5.2195,6.23149 -8.2103,10.48665 -5.9735,8.49865 -7.9099,10.38816 -6.8035,6.63858 z M 1036.2123,199.75 c 1.5612,-4.57831 7.1954,-13.2217 9.8143,-15.05606 1.2116,-0.84869 2.8986,-1.27616 3.7487,-0.94993 1.2909,0.49538 1.2308,0.71146 -0.3648,1.3112 -1.0508,0.39494 -4.3855,4.56486 -7.4105,9.26649 -5.8431,9.08173 -7.5933,10.72317 -5.7877,5.4283 z m 92.858,-19.46057 c 0.039,-0.43419 0.41,-1.65653 0.8251,-2.71632 0.5834,-1.48919 0.8797,-1.60157 1.3044,-0.49473 0.3023,0.78768 -0.069,2.01002 -0.8251,2.71631 -0.7561,0.70629 -1.3431,0.92892 -1.3044,0.49474 z M 1120,176.53138 c 0,-0.89208 0.5866,-1.24351 1.4943,-0.89521 0.8218,0.31537 1.2452,0.97625 0.9409,1.46861 -0.8726,1.41193 -2.4352,1.04399 -2.4352,-0.5734 z m -59,-1.21061 C 1061,173.92906 1071.2532,165 1072.8513,165 c 0.8961,0 -0.09,1.44963 -2.4196,3.5587 -5.2884,4.78671 -9.4317,7.75727 -9.4317,6.76207 z m 105.6579,-29.76984 c -0.3716,-0.96852 -0.075,-1.26467 0.893,-0.89301 0.797,0.30583 1.4491,0.95791 1.4491,1.44907 0,1.43762 -1.7351,1.02567 -2.3421,-0.55606 z M 550,143 c 0,-0.55 0.19844,-1 0.44098,-1 0.24254,0 0.7191,0.45 1.05902,1 0.33992,0.55 0.14148,1 -0.44098,1 C 550.47656,144 550,143.55 550,143 z m 596.6667,-3.66667 c -0.3667,-0.36666 -0.6667,-1.13166 -0.6667,-1.7 0,-0.6266 0.4658,-0.56756 1.1833,0.15 0.6509,0.65084 0.9509,1.41584 0.6667,1.7 -0.2842,0.28417 -0.8167,0.21667 -1.1833,-0.15 z M 1165.5,136 c 0.3399,-0.55 1.0415,-1 1.559,-1 0.5176,0 0.941,0.45 0.941,1 0,0.55 -0.7016,1 -1.559,1 -0.8575,0 -1.2809,-0.45 -0.941,-1 z m 274.5,-0.19819 c 0,-0.44099 1.125,-0.80181 2.5,-0.80181 1.5556,0 2.5,-0.56667 2.5,-1.5 0,-0.825 0.3938,-1.5 0.875,-1.5 0.4813,0 0.875,1.07887 0.875,2.39748 0,2.07529 -0.4535,2.38462 -3.375,2.30181 -1.8562,-0.0526 -3.375,-0.45648 -3.375,-0.89748 z M 1169.5,134 c 0.3399,-0.55 1.068,-1 1.618,-1 0.55,0 0.7219,0.45 0.382,1 -0.3399,0.55 -1.068,1 -1.618,1 -0.55,0 -0.7219,-0.45 -0.382,-1 z m 56.5,-31.39301 c 0,-0.21616 0.6984,-0.661 1.5519,-0.98855 0.89,-0.34149 1.2914,-0.17385 0.941,0.39301 -0.5872,0.95021 -2.4929,1.40545 -2.4929,0.59554 z M 1218.5,96 c 0.3399,-0.55 1.068,-1 1.618,-1 0.55,0 0.7219,0.45 0.382,1 -0.3399,0.55 -1.068,1 -1.618,1 -0.55,0 -0.7219,-0.45 -0.382,-1 z M 909,93.059017 C 909,92.476558 909.45,92 910,92 c 0.55,0 1,0.198442 1,0.440983 0,0.242541 -0.45,0.719098 -1,1.059017 -0.55,0.339919 -1,0.141476 -1,-0.440983 z"
     id="path3097"
     style="fill:#000000" />
</svg>
