<?xml version="1.0" encoding="UTF-8" standalone="no"?>
<!-- Created with Inkscape (http://www.inkscape.org/) -->

<svg
   xmlns:dc="http://purl.org/dc/elements/1.1/"
   xmlns:cc="http://creativecommons.org/ns#"
   xmlns:rdf="http://www.w3.org/1999/02/22-rdf-syntax-ns#"
   xmlns:svg="http://www.w3.org/2000/svg"
   xmlns="http://www.w3.org/2000/svg"
   version="1.1"
   width="1663.2383"
   height="2212.6179"
   id="svg2">
  <metadata
     id="metadata8">
    <rdf:RDF>
      <cc:Work
         rdf:about="">
        <dc:format>image/svg+xml</dc:format>
        <dc:type
           rdf:resource="http://purl.org/dc/dcmitype/StillImage" />
        <dc:title></dc:title>
      </cc:Work>
    </rdf:RDF>
  </metadata>
  <defs
     id="defs6" />
  <path
     d="m 914.84516,2212.2736 c -2.21445,-2.2145 2.64816,-4.5835 12.96792,-6.3179 6.71225,-1.1281 30.3208,-6.8775 37.42519,-9.1142 5.29938,-1.6684 15.02458,-6.343 19.39508,-9.3226 2.14229,-1.4606 6.41729,-3.5846 9.5,-4.7202 3.08271,-1.1356 6.05495,-2.4166 6.60495,-2.8466 0.55,-0.43 3.7746,-1.7421 7.1658,-2.9157 3.3912,-1.1735 10.707,-4.568 16.2573,-7.5432 5.5503,-2.9752 15.8257,-7.936 22.8342,-11.024 7.0085,-3.088 15.1444,-6.9579 18.0799,-8.5997 2.9354,-1.6417 9.0104,-4.4808 13.5,-6.3091 4.4895,-1.8282 11.0878,-4.6771 14.6628,-6.3307 3.575,-1.6537 9.65,-4.0088 13.5,-5.2335 3.85,-1.2247 9.9359,-3.3003 13.5241,-4.6126 3.5883,-1.3122 9.8377,-3.3041 13.8875,-4.4263 4.0498,-1.1223 10.7889,-3.7877 14.9758,-5.9231 4.1869,-2.1355 10.4905,-5.0368 14.0079,-6.4474 3.5174,-1.4106 8.4674,-3.853 11,-5.4275 2.5326,-1.5745 6.6297,-3.8712 9.1047,-5.1039 5.5812,-2.7797 13.6382,-8.0375 21.5,-14.0304 3.3,-2.5155 9.15,-6.7297 13,-9.3648 27.6893,-18.952 35.8151,-26.1604 46.443,-41.2003 5.3406,-7.5575 8.9831,-13.9353 10.6875,-18.7125 1.4221,-3.9861 3.4314,-8.6415 4.4651,-10.3453 1.0338,-1.7039 3.0461,-6.2039 4.4719,-10 1.4258,-3.7962 3.6382,-8.9271 4.9164,-11.4021 5.6464,-10.9334 9.4644,-19.7985 10.1207,-23.5 0.3901,-2.2 1.2887,-5.3883 1.9968,-7.085 1.4924,-3.5759 3.3733,-23.1407 3.3883,-35.2449 0.012,-9.8867 -2.2868,-28.9603 -5.0745,-42.0999 -1.5568,-7.3376 -2.9378,-10.8875 -6.2246,-16 -4.3057,-6.6974 -5.8852,-9.7184 -9.7092,-18.5702 -2.4503,-5.6721 -5.9814,-16.2117 -5.9814,-17.8533 0,-0.601 -1.5502,-4.2549 -3.4449,-8.1197 -1.8947,-3.8649 -4.889,-11.752 -6.6541,-17.527 -2.6771,-8.7589 -3.2152,-12.1582 -3.2453,-20.5 -0.039,-10.8624 1.4751,-16.4908 5.9189,-22 1.331,-1.65 4.1694,-5.204 6.3077,-7.8977 5.8992,-7.4315 25.3336,-19.1219 33.6937,-20.2678 4.2874,-0.5876 12.1807,0.619 18.924,2.8929 7.6813,2.5902 11.6641,2.6077 16.7097,0.073 5.7699,-2.8981 11.7952,-10.1007 13.6837,-16.3573 0.7376,-2.4439 1.9152,-6.2949 2.6169,-8.5576 0.7016,-2.2628 0.9634,-4.6194 0.5817,-5.237 -0.7577,-1.2259 -13.8541,-2.2622 -59.092,-4.6756 -42.6591,-2.2758 -60.1206,-3.3175 -74.5,-4.4447 -7.15,-0.5604 -17.95,-1.2636 -24,-1.5627 -17.9924,-0.8893 -25.6346,-1.3344 -32.5,-1.8929 -3.575,-0.2908 -11.45,-0.7734 -17.5,-1.0724 -6.05,-0.2991 -13.025,-0.7428 -15.5,-0.9861 -2.475,-0.2433 -9.9,-0.7094 -16.5,-1.0358 -6.6,-0.3264 -13.8,-0.7947 -16,-1.0407 -2.2,-0.2459 -15.25,-1.1203 -29,-1.943 -13.75,-0.8226 -30.175,-1.9248 -36.5,-2.4492 -6.325,-0.5244 -16.9,-1.2066 -23.5,-1.516 -6.6,-0.3094 -14.025,-0.7771 -16.5,-1.0393 -2.47503,-0.2622 -9.67503,-0.7028 -16.00003,-0.9791 -6.325,-0.2763 -14.67066,-0.7736 -18.54592,-1.1052 -5.3264,-0.4558 -7.32324,-0.2688 -8.18226,0.7663 -1.42582,1.718 -2.74896,12.0938 -5.27015,41.3275 -1.09097,12.65 -2.66959,29.525 -3.50804,37.5 -2.36277,22.4737 -2.38307,22.6873 -3.50814,36.9064 -0.58342,7.3735 -1.2367,13.691 -1.45173,14.039 -0.21502,0.3479 -0.90548,6.2254 -1.53435,13.061 -0.62887,6.8357 -1.54732,13.1181 -2.04099,13.961 -1.20311,2.0542 -1.18193,-4.7117 0.0531,-16.9674 0.52654,-5.225 1.41662,-16.25 1.97797,-24.5 0.56134,-8.25 1.46989,-18.6 2.019,-23 0.54911,-4.4 1.46533,-14.75 2.03604,-23 0.57071,-8.25 1.70469,-21.3 2.51997,-29 2.94767,-27.8399 3.82704,-40.5092 2.87436,-41.4114 -1.05224,-0.9966 -10.96102,-1.7874 -32.43887,-2.5889 -19.06862,-0.7115 -51.97987,-2.7431 -89,-5.4937 -39.7575,-2.9541 -78.26653,-5.4309 -108.70517,-6.9916 -16.69236,-0.8559 -21.62844,-0.823 -23.19406,0.1547 -1.63559,1.0215 -2.30969,0.9598 -3.79483,-0.3473 -1.31424,-1.1567 -5.07318,-1.7885 -13.80594,-2.3206 -6.6,-0.4022 -13.35,-0.8341 -15,-0.9599 -1.65,-0.1258 -9.075,-0.5326 -16.5,-0.904 -22.544,-1.1277 -33.18802,-1.7305 -40,-2.2655 -15.69879,-1.2328 -32.69753,-2.0402 -34.9787,-1.6614 -3.28546,0.5456 -3.70742,1.4157 -4.45482,9.1854 -0.34941,3.6323 -1.27086,12.9042 -2.04765,20.6042 -1.63731,16.2298 -4.86172,52.2194 -10.03441,112 -2.25469,26.0574 -2.44568,28.1253 -3.46359,37.5 -0.50761,4.675 -1.4271,14.575 -2.04331,22 -0.6162,7.425 -1.76323,19.5252 -2.54895,26.8894 -0.78571,7.3642 -1.42857,14.2597 -1.42857,15.3234 0,1.2734 -0.5742,1.8233 -1.6813,1.6101 -2.47608,-0.4769 -2.72918,-9.8468 -0.84609,-31.3229 0.86806,-9.9 1.77415,-20.7 2.01352,-24 0.23938,-3.3 0.68812,-8.7 0.99721,-12 0.3091,-3.3 1.22794,-13.875 2.04188,-23.5 0.81394,-9.625 1.73343,-19.75 2.04332,-22.5 0.3099,-2.75 0.73718,-6.575 0.94953,-8.5 0.21234,-1.925 0.87178,-9.575 1.46541,-17 0.59363,-7.425 1.33924,-15.3 1.6569,-17.5 0.90283,-6.2526 1.1475,-8.9473 2.31529,-25.5 0.60144,-8.525 1.51369,-19.325 2.02723,-24 0.51353,-4.675 1.17753,-11.875 1.47554,-16 0.29802,-4.125 0.83032,-11.1754 1.1829,-15.6676 l 0.64104,-8.1675 -4.39119,-0.5727 c -4.51302,-0.5886 -14.23106,-1.2482 -30.89119,-2.0966 -5.225,-0.2661 -16.025,-0.9222 -24,-1.4581 -7.975,-0.5358 -20.35,-1.2383 -27.5,-1.5611 -13.41302,-0.6055 -25.45222,-1.3117 -67.5,-3.9591 -13.475,-0.8484 -36.65,-2.2057 -51.5,-3.0163 -14.85,-0.8106 -33.525,-1.9233 -41.5,-2.4726 -7.975,-0.5493 -17.5375,-1.0054 -21.25,-1.0136 -6.32717,-0.014 -6.75225,0.1261 -6.78596,2.2352 -0.0352,2.2037 -0.0815,2.1945 -2.25,-0.4461 l -2.21403,-2.6958 -23.5,-1.5287 c -12.925,-0.8408 -27.1856,-1.7656 -31.69022,-2.0551 -5.27367,-0.3389 -8.42486,-0.1467 -8.84913,0.5398 -0.36241,0.5864 -1.53392,9.8631 -2.60337,20.6151 -1.06945,10.7519 -2.59346,20.9602 -3.3867,22.685 -1.36265,2.9631 -1.40906,2.7223 -0.84085,-4.3638 0.33076,-4.125 0.73209,-8.625 0.89183,-10 0.15974,-1.375 0.58284,-6.1 0.94023,-10.5 0.35738,-4.4 1.05314,-11.15 1.54612,-15 0.49299,-3.85 1.14006,-10.15 1.43794,-14 1.35884,-17.5629 1.76679,-21.5636 3.05901,-30 0.75821,-4.95 1.66631,-12.15 2.01801,-16 0.35169,-3.85 0.9966,-9.025 1.43312,-11.5 1.69332,-9.6008 0.9914,2.066 -1.98151,32.9351 -3.24685,33.7134 -3.28964,33.0152 2.02552,33.0513 1.375,0.01 9.7,0.4413 18.5,0.9599 8.8,0.5186 21.7375,1.2 28.75,1.5142 l 12.75,0.5712 0,-2.5159 c 0,-3.1894 1.35103,-3.2355 2.78199,-0.095 1.28737,2.8254 3.40208,3.1601 26.21801,4.1491 7.975,0.3457 16.075,0.7819 18,0.9693 1.925,0.1874 12.95,0.816 24.5,1.3967 11.55,0.5807 24.6,1.2951 29,1.5874 4.4,0.2923 16.775,0.9756 27.5,1.5183 22.40826,1.1339 66.19062,3.6858 76.5,4.4587 21.65673,1.6238 61.28859,3.8433 70.5,3.9483 l 4.5,0.051 0.73708,-6 c 0.4054,-3.3 0.95396,-8.925 1.21904,-12.5 0.26508,-3.575 0.92999,-10.1 1.47759,-14.5 0.54759,-4.4 1.48228,-12.725 2.07708,-18.5 0.59479,-5.775 1.50095,-14.325 2.01367,-19 0.51272,-4.675 1.17533,-12.55 1.47245,-17.5 0.29713,-4.95 0.97644,-13.5 1.50957,-19 1.08712,-11.2151 1.66595,-17.7606 2.47613,-28 0.30463,-3.85 0.75605,-9.025 1.00317,-11.5 0.24711,-2.475 1.10312,-11.025 1.90225,-19 0.79912,-7.975 1.43807,-15.175 1.41989,-16 -0.0182,-0.825 0.46513,-6.45 1.07403,-12.5 0.60889,-6.05 2.02375,-22.925 3.14413,-37.5 1.12038,-14.575 2.24705,-27.625 2.50372,-29 0.25666,-1.375 0.10743,-3.056 -0.33162,-3.7355 -0.77229,-1.1953 -11.95509,-2.2623 -39.69818,-3.7878 -6.05,-0.3327 -14.375,-1.0168 -18.5,-1.5202 -4.125,-0.5034 -23.25,-1.8212 -42.5,-2.9286 -19.25,-1.1073 -37.25,-2.2454 -40,-2.529 -2.75,-0.2836 -18.5,-1.4044 -35,-2.4907 -16.5,-1.0864 -45.47061,-3.1126 -64.37914,-4.5027 -18.90853,-1.3902 -44.55853,-3.1909 -57,-4.0017 -12.44147,-0.8108 -26.90269,-1.7667 -32.13604,-2.1244 -11.78416,-0.8053 -12.74349,-0.1442 -11.07581,7.6319 1.33557,6.2276 1.4266,13.3142 0.16098,12.532 -0.51151,-0.3162 -1.24617,-3.1052 -1.63257,-6.1979 -0.91535,-7.3262 -1.99904,-5.1485 -2.81388,5.6546 -1.15575,15.323 -2.90819,27.9421 -3.80355,27.3887 -0.78467,-0.4849 -0.60626,-4.8852 0.56315,-13.8887 0.2143,-1.65 0.87801,-9.0073 1.47491,-16.3495 1.46605,-18.0334 1.93143,-17.4567 -15.32731,-18.992 -7.16691,-0.6375 -29.23074,-2.2896 -49.03074,-3.6712 -38.64696,-2.6967 -43.22161,-3.1085 -37,-3.3302 3.34212,-0.1191 28.97353,1.4412 89.5,5.4483 9.18045,0.6078 9.57619,0.5466 11.76507,-1.8187 1.78833,-1.9325 2.39741,-4.0857 2.89384,-10.2302 0.61285,-7.5856 0.57546,-7.7657 -1.4773,-7.1141 -3.32001,1.0537 -5.79267,-0.9816 -7.17029,-5.902 -1.76551,-6.3057 -3.3106,-5.7839 -2.48316,0.8387 0.4564,3.6529 0.3008,5.6086 -0.48488,6.0941 -1.63021,1.0076 -6.04204,-0.2631 -6.04944,-1.7423 -0.003,-0.677 -0.66141,-2.4871 -1.46226,-4.0225 -1.4323,-2.7459 -3.15888,-9.8271 -4.07396,-16.7084 -0.25599,-1.925 -0.69822,-4.5164 -0.98274,-5.7586 -0.28453,-1.2423 0.17879,-3.6048 1.02958,-5.25 2.00924,-3.8855 6.47192,-4.1059 10.07986,-0.498 3.01368,3.0137 7.77139,13.3588 10.66153,23.1824 1.1674,3.968 2.46297,7.0042 2.87904,6.747 0.41607,-0.2571 0.73069,-3.945 0.69916,-8.1952 -0.0315,-4.2502 0.41435,-9.5276 0.99084,-11.7276 1.96336,-7.4925 3.26806,-18.6074 5.16486,-44 0.5341,-7.15 1.4655,-16.825 2.06977,-21.5 0.60428,-4.675 1.24062,-10.75 1.4141,-13.5 0.36196,-5.7378 1.89112,-22.9872 3.45735,-39 0.59176,-6.05 1.28845,-13.475 1.5482,-16.5 0.25975,-3.025 0.69741,-7.075 0.97257,-9 1.53695,-10.7524 2.56785,-19.7421 2.46551,-21.5 -0.064,-1.1 0.37288,-6.5 0.97094,-12 0.59806,-5.5 1.3105,-13.375 1.5832,-17.5 0.2727,-4.125 0.7222,-10.2 0.99889,-13.5 1.22163,-14.5701 1.46589,-17.3933 2.07641,-24 0.35578,-3.85 0.76692,-8.8 0.91364,-11 0.14672,-2.2 0.56161,-7.6 0.92197,-12 1.35971,-16.602 1.4729,-21.5 0.49688,-21.5 -0.54095,0 -2.93802,0.4921 -5.32683,1.0937 -4.24835,1.0697 -4.43437,1.2937 -8.51022,10.25 -7.08101,15.5596 -11.08482,21.6064 -26.03213,39.3151 -3.06028,3.6257 -9.24171,8.3412 -10.93419,8.3412 -0.68497,0 0.9325,-1.7334 3.59439,-3.8521 5.20867,-4.1456 16.3804,-18.1597 21.72345,-27.2505 3.2905,-5.5985 10.61635,-22.2186 10.61635,-24.0853 0,-1.1966 -2.50366,-0.8212 -28,4.1989 -10.725,2.1117 -31.425,6.1376 -46,8.9464 -14.575,2.8088 -35.5,6.876 -46.5,9.0381 -11,2.1621 -44.300003,8.6915 -74.000003,14.5099 -29.7,5.8183 -56.0192785,10.978 -58.4872862,11.4661 -4.0113953,0.7932 -6.09475802,0.6573 -4.92937999,-0.3214 0.22916667,-0.1921 10.99166619,-2.4909 23.91666619,-5.1081 33.628123,-6.8094 49.751312,-10.0968 64,-13.0492 6.875,-1.4246 17.000003,-3.4466 22.500003,-4.4935 5.5,-1.0468 22.15,-4.4138 37,-7.4821 24.86655,-5.138 67.48484,-13.6118 85.5,-17 13.72997,-2.5822 26.40322,-5.519 27.06785,-6.2724 2.02357,-2.2939 4.2136,-16.5367 4.96542,-32.2924 0.4986,-10.4487 1.41708,-19.2306 2.27033,-21.7071 1.93497,-5.6163 7.23954,-13.71553 10.29357,-15.71661 3.34606,-2.19242 4.18751,-4.7939 4.91881,-15.20728 0.3407,-4.85156 0.76949,-9.75245 0.95286,-10.89088 0.18337,-1.13844 0.64001,-5.18844 1.01478,-9 0.37476,-3.81157 0.88658,-8.50513 1.13738,-10.43013 0.98194,-7.53683 1.54353,-13.79829 1.85138,-20.64201 0.1767,-3.92811 0.58905,-8.42811 0.91634,-10 0.32729,-1.57189 0.82535,-5.78299 1.1068,-9.35799 0.28145,-3.575 0.66549,-7.4 0.85343,-8.5 0.48498,-2.83858 2.12307,-1.51322 1.85395,1.5 -0.12281,1.375 -1.12008,13.075 -2.21614,26 -1.09607,12.925 -2.44406,28.225 -2.99553,34 -0.55147,5.775 -1.29198,14.27807 -1.64558,18.89571 l -0.6429,8.39571 2.89862,-0.88633 c 1.59425,-0.48748 5.82363,-0.77995 9.39863,-0.64994 11.31175,0.41139 17.60945,6.84627 18.72342,19.13125 0.6309,6.9578 -0.72437,11.5983 -4.90504,16.7953 -3.81654,4.7444 -7.9234,13.7328 -10.28261,22.505 -1.93837,7.2073 -1.62468,9.8109 1.18285,9.8175 1.9965,0 42.32243,-7.74 60.78138,-11.6731 6.6,-1.4063 13.8,-2.9388 16,-3.4056 2.2,-0.4668 11.56153,-2.3901 20.8034,-4.2739 9.24186,-1.8838 16.96059,-3.5885 17.15271,-3.7883 0.19213,-0.1998 -0.2977,-5.9883 -1.08852,-12.8633 -2.20441,-19.16416 -0.74575,-25.40177 7.44044,-31.81724 6.68931,-5.24237 7.5271,-5.53492 24.69197,-8.62249 4.4,-0.79146 9.575,-1.9539 11.5,-2.5832 1.925,-0.6293 8.675,-1.53041 15,-2.00246 14.73285,-1.09956 26.9365,0.39051 52.26828,6.382 12.25481,2.89851 22.20602,4.22848 42.23172,5.64424 7.7,0.54436 17.28088,1.44187 21.29085,1.99445 10.79437,1.48749 37.72448,1.31777 38.92163,-0.2453 0.52655,-0.6875 1.48894,-5.96499 2.13864,-11.72776 l 1.18127,-10.47775 -3.26905,-3.02225 c -1.79798,-1.66223 -4.29105,-4.33414 -5.54016,-5.93757 l -2.27111,-2.91532 -3.06709,3.13709 c -4.87247,4.98368 -14.38769,5.63409 -13.69328,0.936 0.36483,-2.46825 2.8083,-3.62179 2.8083,-1.32577 0,3.9681 5.86322,-0.268 7.93339,-5.73177 0.58663,-1.5483 1.06661,-4.56827 1.06661,-6.71104 0,-5.00867 -2.40221,-7.27909 -10.58152,-10.00099 -9.84354,-3.27572 -10.42592,-5.33302 -2.83731,-10.02304 4.19263,-2.59118 10.52185,-2.76757 14.14411,-0.39418 3.466,2.27101 1.54571,3.00224 -2.95061,1.12356 -2.92274,-1.2212 -3.79204,-1.226 -6.06793,-0.0335 -3.1082,1.62855 -5.21014,4.92518 -3.72538,5.84281 0.54272,0.33542 3.17796,1.26057 5.85608,2.05589 2.67812,0.79531 6.5629,2.59532 8.63284,4.00002 3.54041,2.40259 3.87319,2.45475 5.61348,0.8798 1.73958,-1.57429 3.74306,-1.86189 8.38238,-1.2033 2.38767,0.33895 2.40666,0.2266 5.95424,-35.22089 1.40362,-14.025 3.01202,-29.325 3.57422,-34 0.5622,-4.675 2.57942,-23.35 4.4827,-41.5 5.30407,-50.58032 5.7132,-53.92744 6.72287,-55 0.59723,-0.63444 0.74625,-0.0861 0.40763,1.5 -0.29355,1.375 -1.02613,8.35 -1.62795,15.5 -0.60182,7.15 -1.96389,22.225 -3.02682,33.5 -2.6738,28.36241 -4.71131,50.42525 -5.91042,64 -0.5587,6.325 -1.89639,20.95 -2.97263,32.5 -1.07623,11.55 -2.23143,26.0625 -2.56711,32.25 -0.56683,10.44856 -0.48024,11.25 1.21557,11.25 1.00423,0 3.5034,-1.38276 5.55372,-3.0728 4.13079,-3.40495 4.84955,-2.27912 1.76971,2.77198 -1.34387,2.20401 -3.16855,3.52712 -5.86588,4.25343 l -3.91522,1.05426 -1.13038,8.81429 c -0.62172,4.84782 -1.13039,9.57127 -1.13039,10.49652 0,2.21381 2.71661,2.16675 14.26745,-0.24714 5.0779,-1.06118 13.50755,-2.67516 18.73255,-3.58663 5.225,-0.91147 12.65,-2.32499 16.5,-3.14115 3.85,-0.81617 12.75151,-2.56849 19.78113,-3.89406 7.02962,-1.32556 15.35462,-3.0723 18.5,-3.88164 3.14538,-0.80933 11.11887,-2.40758 17.71887,-3.55166 6.6,-1.14408 13.35,-2.50954 15,-3.03436 1.65,-0.52481 6.6,-1.6074 11,-2.40573 4.4,-0.79834 11.375,-2.19164 15.5,-3.09622 4.125,-0.90458 9.525,-2.0238 12,-2.48716 2.475,-0.46336 7.875,-1.54335 12,-2.39999 75.6585,-15.7119 133.02499,-27.29692 141.69353,-28.61466 2.85644,-0.43421 5.65643,-1.07558 6.22221,-1.42525 0.56578,-0.34967 4.7537,-1.32347 9.30648,-2.164 4.55278,-0.84053 12.77778,-2.36131 18.27778,-3.37951 5.5,-1.01821 14.275,-2.7985 19.50003,-3.95621 5.225,-1.15771 13.9924,-3.023 19.4831,-4.14508 5.4907,-1.12208 10.1847,-2.24176 10.4311,-2.48818 0.7397,-0.73969 1.9347,-10.53362 2.0128,-16.4959 l 0.073,-5.5768 -3.13,0.45938 -3.13,0.45938 3.8438,-3.52253 c 3.388,-3.10487 3.6796,-3.72027 2.4597,-5.19021 -2.8298,-3.40969 -9.5731,-6.54097 -13.5525,-6.29313 -3.5828,0.22315 -3.9355,10e-4 -4.8318,-3.04133 -1.2395,-4.20733 -3.0697,-3.62213 -3.4696,1.10935 -0.4003,4.73725 -3.6825,5.2581 -4.6744,0.7418 -0.3541,-1.612 -1.2898,-3.4671 -2.0795,-4.12245 -0.7896,-0.65535 -1.4357,-2.28183 -1.4357,-3.61441 0,-2.20959 0.2966,-2.36721 3.37,-1.79065 2.9729,0.55772 3.6331,0.26279 5.6023,-2.50268 2.1431,-3.00972 2.3284,-3.07192 4.6397,-1.55747 2.2583,1.47969 2.6352,1.42266 6.0834,-0.9204 2.8171,-1.91432 3.9929,-2.23468 5.0332,-1.37135 1.1093,0.92069 0.8014,1.70002 -1.6857,4.266 -4.548,4.6924 -4.0319,6.77861 2.6948,10.89284 3.1558,1.93013 5.8235,3.42361 5.9283,3.31883 0.2835,-0.28355 3.8144,-33.14717 8.2908,-77.16736 5.5975,-55.04447 7.3968,-70.93925 7.8698,-69.5201 0.4052,1.2154 -2.0266,30.81978 -3.8212,46.5201 -0.5029,4.4 -1.6213,16.325 -2.4852,26.5 -0.8639,10.175 -2.4479,28.175 -3.52,40 -1.0721,11.825 -2.1972,25.325 -2.5002,30 -0.3029,4.675 -0.776,11.425 -1.0511,15 l -0.5003,6.5 2.7757,-3.10997 c 1.5266,-1.71048 4.5757,-4.23828 6.7757,-5.61735 2.2,-1.37906 8.725,-6.95957 14.5,-12.40113 5.775,-5.44156 14.4112,-13.1517 19.1916,-17.13365 4.7804,-3.98194 8.9807,-7.70768 9.3341,-8.27942 0.3533,-0.57173 2.5171,-2.21177 4.8084,-3.64452 2.2912,-1.43275 4.5258,-3.21451 4.9656,-3.95948 1.3935,-2.36026 2.5894,-1.4754 3.2377,2.39552 0.8914,5.32293 4.3846,16.12724 6.5472,20.25 1.0098,1.925 4.3099,8.9 7.3337,15.5 3.0238,6.6 6.1328,12.41059 6.909,12.91242 1.5673,1.01333 27.0121,-3.51719 50.1991,-8.93806 0.5645,-0.13197 1.6045,-5.1863 2.3112,-11.23183 1.8512,-15.83644 5.4868,-27.06441 17.4832,-53.99492 11.7718,-26.4263 13.8851,-52.26365 6.2775,-76.74761 -2.6518,-8.53411 -2.944,-10.03319 -4.6782,-24 -0.6147,-4.95 -2.3821,-13.95 -3.9276,-20 -1.5454,-6.05 -3.1161,-13.025 -3.4902,-15.5 -0.3742,-2.475 -2.0362,-10.125 -3.6934,-17 -1.6572,-6.875 -3.5875,-15.2 -4.2896,-18.5 -2.8178,-13.24459 -9.2569,-35.56408 -12.261,-42.5 -0.8338,-1.925 -3.2091,-8.45 -5.2785,-14.5 -2.0694,-6.05 -6.5542,-17.75 -9.9662,-26 -3.4121,-8.25 -8.6724,-22.65 -11.6896,-32 -7.8272,-24.2558 -10.9297,-32.54009 -16.8525,-45 -10.8128,-22.74698 -14.7147,-33.72554 -16.9132,-47.58834 -0.7491,-4.72358 -2.7562,-12.07008 -4.4602,-16.32555 -1.7039,-4.25548 -3.0981,-8.29866 -3.0981,-8.98486 0,-2.49885 -11.4399,-24.35762 -17.8471,-34.10125 -6.7886,-10.32368 -20.3199,-27.448 -30.0783,-38.06514 -3.066,-3.33583 -9.9666,-12.33583 -15.3345,-20 -15.7336,-22.46399 -29.2509,-41.00179 -35.53316,-48.73081 C 996.2247,235.74182 988.83454,226.425 983.02267,219 c -5.81187,-7.425 -16.07818,-19.575 -22.81402,-27 -15.04187,-16.58084 -26.36729,-29.67803 -35.88592,-41.5 -3.98556,-4.95 -11.31295,-13.40792 -16.28309,-18.79539 -4.97013,-5.38746 -11.966,-13.26246 -15.54637,-17.5 -6.86288,-8.12253 -15.3085,-17.07092 -41.95584,-44.453471 C 835.15959,53.949019 832.7631,51 835.29953,51 c 1.70226,0 46.74103,46.63766 58.90873,61 3.49468,4.125 10.72524,12.225 16.06791,18 5.34266,5.775 14.83227,16.77516 21.08802,24.44481 6.25574,7.66964 14.11031,16.89464 17.4546,20.5 18.62405,20.07792 22.27572,24.14936 28.78618,32.09528 3.92332,4.78834 9.36196,11.57569 12.08587,15.08299 2.72391,3.50731 8.18468,10.42692 12.13506,15.37692 6.9747,8.73967 20.6721,27.50341 36.4995,50 4.2565,6.05 10.8157,14.56949 14.576,18.9322 11.6634,13.53186 21.0773,25.22518 27.9023,34.65815 7.0259,9.71074 17.5302,29.18905 19.8317,36.77451 0.7735,2.54933 2.7442,8.23514 4.3794,12.63514 1.6351,4.4 3.5238,11.28565 4.1972,15.30144 1.8432,10.99192 7.332,26.87389 14.3608,41.55277 9.1307,19.06872 11.8863,26.05031 18.2133,46.14579 3.117,9.9 9.3664,27.45 13.8876,39 18.2733,46.68187 21.4538,56.56127 28.6518,89 2.6849,12.1 6.2317,27.625 7.8817,34.5 1.65,6.875 3.7037,16.325 4.5639,21 1.7116,9.30319 3.0359,14.88928 4.623,19.5 0.5679,1.65 2.1494,10.2 3.5144,19 1.9405,12.51082 2.376,18.39881 1.9968,27 -0.7882,17.88096 -6.4732,39.80578 -14.1316,54.5 -1.2899,2.475 -3.0217,6.80482 -3.8484,9.62182 -0.8267,2.817 -2.2387,6.54431 -3.1377,8.28291 -3.4613,6.69331 -7.5493,23.43134 -7.5493,30.90977 0,3.44223 0.01,3.44617 3.75,2.74135 2.0625,-0.38821 5.6844,-0.88197 8.0486,-1.09726 2.3642,-0.21528 5.8517,-0.82026 7.75,-1.3444 1.8983,-0.52414 3.4514,-0.59052 3.4514,-0.14752 0,1.11888 -6.1832,3.94534 -8.5516,3.90913 -5.4906,-0.084 -12.0556,2.08659 -13.6831,4.5239 -2.1925,3.28357 0.621,18.06565 4.8125,25.28455 3.6329,6.25688 17.0678,19.23789 24.9623,24.1189 3.828,2.36674 9.6599,6.5595 12.9599,9.31726 9.8953,8.26938 20.5961,15.40142 28.7841,19.1845 4.2495,1.9634 9.6513,5.14708 12.0038,7.07484 2.3526,1.92776 6.4177,4.42245 9.0337,5.54376 5.9771,2.56211 18.9142,10.3259 24.1784,14.50997 2.2,1.74859 6.475,4.67097 9.5,6.49419 6.5914,3.97276 14.1764,10.24353 23.0565,19.06163 3.606,3.5809 11.8993,11.0107 18.4294,16.5107 13.5651,11.4253 36.3284,33.6747 45.0162,44 9.9692,11.8481 12.2873,14.2972 35.494,37.5 12.3772,12.375 24.2665,24.6717 26.4208,27.3261 2.1544,2.6543 6.4294,6.4234 9.5,8.3758 3.0707,1.9524 7.6457,5.4056 10.1667,7.6739 2.521,2.2683 8.146,6.714 12.5,9.8793 9.4307,6.8561 41.1009,37.5574 44.6096,43.2449 1.3572,2.2 3.9957,6.925 5.8634,10.5 1.8677,3.575 3.6915,6.725 4.0529,7 3.5896,2.7313 4.5171,36.9233 1.5176,55.9503 -3.1145,19.757 -7.0859,27.214 -23.7257,44.5497 -5.2792,5.5 -13.6643,14.5 -18.6335,20 -13.7158,15.1809 -24.8115,26.5 -25.9771,26.5 -0.5753,0 -1.602,0.67 -2.2817,1.489 -0.6796,0.8189 -1.6254,1.2481 -2.1017,0.9537 -0.4764,-0.2943 -1.8459,-0.011 -3.0435,0.6301 -2.7324,1.4624 -16.005,12.1873 -17.8837,14.451 -0.7698,0.9276 -3.8928,3.4034 -6.9399,5.5018 -3.0472,2.0985 -10.3163,8.4636 -16.1535,14.1449 -8.862,8.625 -11.295,11.6855 -14.7448,18.5469 -6.4678,12.8641 -9.3386,25.063 -9.8967,42.0549 -0.2771,8.4337 0.018,17.6382 0.7219,22.5 1.1785,8.1426 6.5936,26.0319 9.714,32.091 1.9707,3.8265 11.7672,18.1328 17.5657,25.6519 2.3392,3.0334 6.2741,8.865 8.7442,12.9592 4.0123,6.6503 4.5298,8.2082 4.8531,14.6111 0.2943,5.8275 -0.1449,8.6386 -2.35,15.0408 -3.0494,8.8539 -8.7995,19.1943 -13.4864,24.2528 -1.722,1.8585 -3.877,4.5585 -4.789,6 -4.1957,6.6316 -15.9248,18.3323 -23.0971,23.041 -4.2557,2.7939 -8.2308,5.0799 -8.8336,5.0799 -0.6028,0 -3.765,1.5086 -7.0272,3.3525 -5.921,3.3468 -18.3151,7.6475 -22.039,7.6475 -3.5303,0 -11.2232,3.9806 -11.2029,5.7968 0.01,0.9368 2.6001,6.4282 5.7549,12.2032 10.8255,19.8166 12.6137,24.4895 13.1995,34.4938 l 0.5266,8.9938 3,0.6379 c 1.65,0.3508 4.9606,0.6911 7.357,0.7562 3.7405,0.1016 4.2707,-0.1293 3.7475,-1.6317 -0.5533,-1.589 -0.4795,-1.5828 0.8025,0.067 1.0289,1.3244 3.1319,1.9221 7.7525,2.2034 3.4873,0.2123 10.6155,0.6903 15.8405,1.0624 5.225,0.372 11.075,0.7874 13,0.9232 1.925,0.1357 11.825,0.5258 22,0.8668 10.175,0.3409 20.3,0.8498 22.5,1.1307 2.2,0.2809 8.275,0.7138 13.5,0.962 18.422,0.875 29.5852,1.6325 37.5,2.5448 4.4,0.5072 11.15,0.9282 15,0.9356 3.85,0.01 7.9,0.1908 9,0.4075 2.3487,0.4625 13.5482,2.0295 15,2.0987 0.55,0.026 1.3306,0.4976 1.7347,1.0476 0.4586,0.6242 0.7404,0.542 0.75,-0.2186 0.01,-0.6703 0.6877,-0.9606 1.5096,-0.6452 3.476,1.3339 -0.1246,2.3924 -6.3246,1.8593 -8.9104,-0.7661 -18.4668,-1.2687 -37.6697,-1.9809 -8.8,-0.3264 -20.5,-1.0563 -26,-1.6221 -5.5,-0.5658 -16.3,-1.1852 -24,-1.3764 -7.7,-0.1913 -16.25,-0.5866 -19,-0.8784 -2.75,-0.2918 -10.3564,-0.8241 -16.9032,-1.1828 -15.8552,-0.8686 -23.7796,-1.3497 -31.5968,-1.9182 -5.9265,-0.431 -25.8912,-0.8742 -28.6526,-0.6361 -0.6339,0.055 -2.1117,3.3619 -3.2839,7.3494 -3.708,12.6135 -5.0946,15.5683 -9.7195,20.7123 -2.4816,2.7601 -6.5132,5.9037 -8.9591,6.9856 -3.894,1.7225 -5.2829,1.8426 -11.166,0.9659 -22.5535,-3.3612 -28.4303,-3.7796 -29.002,-2.0646 -0.2045,0.6135 -2.1192,1.5859 -4.255,2.161 -6.0893,1.6397 -17.3511,8.6035 -21.9076,13.5467 -2.282,2.4757 -6.1528,8.618 -8.6017,13.6496 -3.919,8.0519 -4.4526,9.9526 -4.4526,15.8591 0,8.758 3.7353,21.8927 9.5082,33.4344 4.5576,9.112 8.4222,19.5149 8.4672,22.7922 0.028,2.0371 8.8778,19.1197 13.1135,25.3127 8.03,11.7407 13.5462,60.5976 9.4722,83.8951 -1.7315,9.9015 -3.7791,16.3663 -7.4414,23.4938 -1.556,3.0284 -3.6286,7.7562 -4.6058,10.5062 -0.9771,2.75 -4.6945,11.525 -8.2608,19.5 -6.9489,15.5392 -7.2076,16.1518 -9.7142,23 -0.9059,2.475 -3.2724,6.975 -5.2588,10 -1.9865,3.025 -4.6529,7.075 -5.9253,9 -3.6861,5.5765 -19.4091,20.5447 -27.0375,25.7396 -3.8447,2.6182 -10.5514,7.3822 -14.9038,10.5867 -21.337,15.7095 -30.2558,22.0487 -33.9135,24.1045 -2.2,1.2366 -8.05,4.5358 -13,7.3316 -4.95,2.7958 -11.475,6.0099 -14.5,7.1424 -3.025,1.1324 -8.9432,3.8217 -13.1516,5.976 -4.2084,2.1544 -9.1584,4.2379 -11,4.63 -5.2978,1.1281 -15.0252,4.4581 -18.8484,6.4524 -1.925,1.0041 -6.9254,2.7548 -11.112,3.8904 -4.1866,1.1355 -10.9366,3.6203 -15,5.5218 -4.0634,1.9014 -11.6965,5.4539 -16.9625,7.8943 -5.266,2.4405 -10.6197,5.5156 -11.8971,6.8337 -1.2774,1.3181 -2.0048,1.8341 -1.6165,1.1466 0.9652,-1.7086 0.2294,-1.576 -3.7935,0.6835 -1.8933,1.0634 -5.2696,2.4809 -7.5029,3.15 -2.2333,0.6691 -4.895,1.994 -5.9149,2.9442 -1.0199,0.9502 -2.9448,2.0588 -4.2775,2.4635 -1.3327,0.4047 -7.5981,3.1954 -13.9231,6.2014 -14.1305,6.7159 -14.3138,6.7978 -20.606,9.2085 -2.8083,1.0759 -11.58332,5.1088 -19.50002,8.9619 -15.2338,7.4145 -24.43162,10.8424 -39.89401,14.8682 -16.32648,4.2507 -32.07152,6.8639 -33.39311,5.5424 z m 447.69074,-520.3012 c 1.4404,-5.4937 0.1462,-13.2237 -3.7218,-22.2294 -1.9667,-4.5789 -3.5758,-8.8142 -3.5758,-9.4117 0,-0.5975 -0.6668,-1.6398 -1.4819,-2.3163 -1.8586,-1.5425 -8.0908,-14.4991 -8.9057,-18.515 -0.3349,-1.65 -0.2621,-3.5357 0.1616,-4.1905 1.0977,-1.6961 11.2943,-6.2881 13.9887,-6.2997 3.7336,-0.016 16.1076,-3.7665 19.6494,-5.9555 1.819,-1.1242 5.058,-2.6747 7.1976,-3.4455 9.5608,-3.4444 25.8023,-17.3772 33.3492,-28.6088 1.2935,-1.925 4.0117,-5.3 6.0404,-7.5 4.9526,-5.3708 9.1471,-12.6055 11.9615,-20.6315 2.3149,-6.6016 2.3173,-6.6614 0.5413,-13.2228 -1.9388,-7.1624 -6.4514,-15.0226 -19.3577,-33.7178 -8.8597,-12.8336 -14.097,-23.0323 -16.736,-32.5907 -4.7255,-17.1154 -4.8124,-17.7361 -4.8077,-34.3372 0.01,-18.334 1.4844,-27.67 6.5686,-41.4592 5.9654,-16.1789 10.3995,-21.4299 36.3377,-43.0319 3.2962,-2.7451 8.693,-7.3902 11.993,-10.3224 3.3,-2.9323 9.825,-7.8484 14.5,-10.9248 10.7238,-7.0568 52.4232,-48.7862 60.1916,-60.2348 8.0188,-11.8179 9.549,-16.2714 11.7653,-34.2426 2.8489,-23.1008 3.0335,-27.331 1.5344,-35.1661 -1.7919,-9.3651 -9.3808,-25.7705 -15.7827,-34.1182 -6.2887,-8.2002 -34.6668,-35.1223 -44.3264,-42.0523 -4.3352,-3.1102 -9.7341,-7.2957 -11.9975,-9.3013 -2.2635,-2.0055 -6.0223,-4.7714 -8.3529,-6.1464 -6.3581,-3.7511 -37.1399,-34.5331 -53.395,-53.3955 -2.8252,-3.2784 -7.4067,-8.4681 -10.1809,-11.5326 -2.7743,-3.0646 -7.4993,-8.4822 -10.5,-12.0393 -3.0008,-3.5571 -7.0179,-7.8321 -8.927,-9.5 -1.9091,-1.6679 -7.313,-6.8576 -12.0087,-11.5326 -8.6234,-8.5855 -17.1287,-16.2192 -29.0202,-26.0465 -3.575,-2.9545 -6.6495,-5.7261 -6.8322,-6.1593 -0.9008,-2.1353 -20.8113,-18.8051 -29.4475,-24.65454 -5.3916,-3.65181 -11.9219,-8.12596 -14.5116,-9.94255 -2.5898,-1.81658 -8.7587,-5.25325 -13.7087,-7.63704 -4.95,-2.38378 -9.9,-5.35231 -11,-6.59672 -1.1,-1.24441 -6.275,-4.25613 -11.5,-6.69271 -5.225,-2.43657 -11.3,-5.74422 -13.5,-7.35032 -14.3708,-10.49131 -18.3885,-13.55252 -21.5,-16.38141 -3.8076,-3.46174 -6.9429,-5.68535 -13.4499,-9.53891 -5.3346,-3.15923 -17.6433,-16.50363 -19.9421,-21.61996 -0.9588,-2.13402 -2.1548,-4.78004 -2.6578,-5.88004 -1.5419,-3.37235 -2.9,-10.74625 -2.9258,-15.88592 l -0.024,-4.88593 -4.25,0.61358 c -2.3375,0.33748 -5.375,0.84322 -6.75,1.12387 -1.375,0.28066 -6.1,1.2166 -10.5,2.07989 -15.5244,3.04589 -25.6738,5.74381 -26.1357,6.94743 -1.3943,3.63365 9.998,21.4618 17.6397,27.60471 2.3279,1.8713 6.8142,5.65237 9.9696,8.40237 14.0582,12.2519 21.6077,17.66594 37.0264,26.55302 4.125,2.37758 12.45,7.76128 18.5,11.96378 9.8572,6.84708 22.9079,14.9832 24.0338,14.9832 0.6445,0 15.4891,10.51023 19.3528,13.7022 1.8627,1.53879 4.1127,3.21158 5,3.7173 3.576,2.0381 16.9693,12.6206 21.1552,16.7155 8.6472,8.4592 16.9582,20.5575 16.9582,24.6861 0,4.6041 -4.7328,3.3713 -13.5843,-3.5385 -4.4167,-3.4479 -18.1541,-12.4827 -27.4157,-18.0309 -1.925,-1.1532 -5.3,-2.7584 -7.5,-3.5672 -14.859,-5.4627 -39.6425,-16.389 -45.2719,-19.95909 -7.0671,-4.48177 -30.079,-15.54226 -35.68,-17.14925 -2.7765,-0.79659 -8.8731,-1.94244 -13.5481,-2.54632 -4.675,-0.60388 -12.1,-1.81844 -16.5,-2.69901 -4.4,-0.88058 -9.9355,-1.53575 -12.301,-1.45593 -2.3656,0.0798 -7.242,-0.53693 -10.8364,-1.37053 -3.5944,-0.83361 -6.8642,-1.3124 -7.2661,-1.06399 -0.8943,0.55272 -9.2303,-2.22191 -10.5465,-3.51039 -0.5905,-0.57808 0.1663,-0.95764 2,-1.00306 2.4755,-0.0613 2.0682,-0.3859 -2.532,-2.01796 -3.0151,-1.06969 -6.0526,-1.72593 -6.75,-1.45832 -0.6974,0.26762 -1.268,0.12438 -1.268,-0.31831 0,-0.44269 -2.5875,-1.98691 -5.75,-3.43159 -16.8744,-7.70851 -30.5973,-18.34396 -38.3226,-29.70075 -3.0391,-4.4677 -8.023,-10 -9.0086,-10 -1.4339,0 -2.3203,6.88382 -5.9235,46 -1.1399,12.375 -3.4259,35.775 -5.08,52 -3.361,32.9684 -6.7325,68.2135 -10.3789,108.5 -1.3441,14.85 -3.8133,40.725 -5.4872,57.5 -5.6896,57.0182 -10.00398,101.4668 -11.06541,114 -0.58223,6.875 -1.9554,20.6 -3.05148,30.5 -1.09608,9.9 -2.40936,22.95 -2.91841,29 -0.50905,6.05 -2.04674,23.6 -3.41708,39 -1.37034,15.4 -2.62773,30.2499 -2.79419,32.9999 l -0.30266,4.9998 6,0.6371 c 3.3,0.3504 10.05,0.888 15.00003,1.1946 18.4479,1.1427 75.3733,5.0066 113.7733,7.7227 15.8253,1.1193 29.1491,1.8029 29.6085,1.5189 0.4594,-0.2839 1.0747,-3.1562 1.3672,-6.3828 0.8201,-9.0435 3.9445,-12.3624 10.1676,-10.8005 2.3276,0.5842 4.9649,5.6371 5.799,11.1103 0.1857,1.2182 1.2209,2.1302 2.6484,2.3332 l 2.3436,0.3331 -2.1205,1.4853 c -1.1663,0.8169 -1.8875,1.8623 -1.6027,2.3231 0.76,1.2298 10.0899,2.2413 32.5156,3.5253 11.968,0.6852 20.4941,1.3184 27,2.005 2.475,0.2613 9,0.6967 14.5,0.9677 13.9307,0.6863 29.4332,1.6577 33,2.0678 1.65,0.1897 10.875,0.8488 20.5,1.4647 18.9712,1.2138 44.1959,3.8607 45,4.7219 0.275,0.2945 -3.775,0.2458 -9,-0.1083 -5.225,-0.354 -16.475,-0.8857 -25,-1.1814 -8.525,-0.2958 -16.175,-0.7202 -17,-0.9433 -0.825,-0.223 -6.45,-0.6835 -12.5,-1.0233 -6.05,-0.3398 -20.675,-1.2697 -32.5,-2.0665 -50.8788,-3.4284 -60.1333,-3.8067 -60.9463,-2.4912 -0.5892,0.9533 -0.9213,0.8742 -1.3832,-0.3293 -0.4604,-1.2 -2.0523,-1.5838 -6.5682,-1.5838 l -5.9605,0 -1.0285,5.25 c -0.5656,2.8875 -1.2113,6.375 -1.4347,7.75 -0.2234,1.375 -0.4675,-0.8106 -0.5424,-4.857 -0.1115,-6.0224 -0.4025,-7.2548 -1.6042,-6.7937 -0.8074,0.3099 -1.7339,0.133 -2.059,-0.393 -1.1409,-1.846 -4.1638,-0.9304 -5.3222,1.612 -1.646,3.6127 -5.3411,2.9807 -6.552,-1.1207 l -0.9012,-3.0523 -22.5988,-1.764 c -12.4293,-0.9702 -25.9738,-1.9646 -30.0988,-2.2097 -4.125,-0.2452 -16.95,-1.1116 -28.5,-1.9252 -11.55,-0.8137 -25.05,-1.716 -30,-2.005 -4.95,-0.2891 -11.475,-0.7387 -14.5,-0.9991 -3.025,-0.2604 -8.875,-0.6901 -13,-0.9549 -4.125,-0.2649 -11.6576,-0.7614 -16.73908,-1.1034 -9.03256,-0.6079 -9.25887,-0.5694 -10.1258,1.7221 -0.78436,2.0733 -1.98953,12.3875 -3.66237,31.3439 -0.87331,9.8963 -3.47455,36.7466 -5.57055,57.5 -1.08318,10.725 -2.16581,21.525 -2.40585,24 -0.24003,2.475 -1.11718,11.475 -1.94922,20 -0.83203,8.525 -1.98859,20.9 -2.57012,27.5 -0.58153,6.6 -1.49242,15.375 -2.0242,19.5 -0.53179,4.125 -1.19866,10.65 -1.48195,14.5 -0.28328,3.85 -0.75653,9.025 -1.05166,11.5 -2.24413,18.8196 -4.92333,52.8292 -4.21739,53.5352 0.66189,0.6619 51.46459,3.9912 98.29819,6.4419 10.45,0.5468 21.7,1.232 25,1.5227 8.4856,0.7475 35.8933,2.4403 49.5,3.0574 6.325,0.2868 12.4664,0.7258 13.6476,0.9755 1.1812,0.2497 11.7393,0.9124 23.4624,1.4726 11.7231,0.5602 24.0317,1.233 27.3524,1.4952 10.0511,0.7936 35.9457,2.4205 55.5376,3.4894 10.175,0.5551 21.875,1.2392 26,1.5202 4.125,0.2809 10.875,0.7253 15,0.9875 4.125,0.2622 13.8,0.9206 21.5,1.4632 7.7,0.5426 20.075,1.2835 27.5,1.6465 7.425,0.3629 13.6338,0.771 13.7973,0.9069 0.1635,0.1359 1.7131,0.1758 3.4436,0.089 2.6994,-0.1358 3.2756,-0.6514 4.0567,-3.6306 z M 1163.1618,1676.75 c -0.042,-0.6875 -0.2273,-2.0375 -0.4115,-3 -0.1843,-0.9625 0.075,-1.75 0.5765,-1.75 0.5013,0 0.9115,1.35 0.9115,3 0,2.8652 -0.917,4.3559 -1.0765,1.75 z m 1.3625,-22.25 c 0.01,-2.75 0.2017,-3.7563 0.4316,-2.2363 0.2298,1.5201 0.2237,3.7701 -0.014,5 -0.2373,1.23 -0.4254,-0.014 -0.4179,-2.7637 z m -16.2707,1.25 c 0.01,-1.2375 0.4515,-2.925 0.9847,-3.75 0.7211,-1.1158 0.9733,-0.5394 0.9847,2.25 0.01,2.0625 -0.4347,3.75 -0.9847,3.75 -0.55,0 -0.9931,-1.0125 -0.9847,-2.25 z m 2,-21.059 c -0.01,-2.288 0.384,-3.5622 0.9847,-3.191 1.2639,0.7811 1.2639,3.5443 0,5.5 -0.7196,1.1135 -0.9733,0.5185 -0.9847,-2.309 z m 16.0844,-9.2743 c 0.055,-3.2542 0.4748,-7.0417 0.9334,-8.4167 0.5268,-1.5798 0.6768,0.4112 0.4076,5.4093 -0.5028,9.3333 -1.4847,11.5354 -1.341,3.0074 z m -14.0294,-14.6667 c -0.039,-2.0625 0.3797,-3.75 0.9297,-3.75 1.1941,0 1.1941,2.7211 0,5.5 -0.6894,1.6044 -0.8733,1.2582 -0.9297,-1.75 z m 16.4569,-16.6517 c 0.2436,-4.0709 0.6746,-7.6334 0.9578,-7.9167 0.8484,-0.8483 0.3842,10.1188 -0.5426,12.8184 -0.5642,1.6437 -0.7064,-0.035 -0.4152,-4.9017 z m -14.4275,-11.4073 c -0.063,-4.308 0.2676,-6.582 0.9003,-6.191 1.1624,0.7184 1.1624,6.8704 0,10.5 -0.5798,1.8103 -0.8281,0.6216 -0.9003,-4.309 z M 1171.3962,1558 c 0,-1.375 0.227,-1.9375 0.5044,-1.25 0.2774,0.6875 0.2774,1.8125 0,2.5 -0.2774,0.6875 -0.5044,0.125 -0.5044,-1.25 z m -15.1426,-5.309 c -0.01,-2.9548 0.3703,-4.5707 0.9847,-4.191 1.2716,0.7859 1.2716,5.5323 0,7.5 -0.7002,1.0835 -0.9736,0.1646 -0.9847,-3.309 z m 17.2707,-21.191 c 0.01,-2.75 0.2017,-3.7563 0.4316,-2.2363 0.2298,1.5201 0.2237,3.7701 -0.014,5 -0.2373,1.23 -0.4254,-0.014 -0.4179,-2.7637 z m -15.2707,-7.191 c 0.011,-3.4736 0.2845,-4.3925 0.9847,-3.309 1.2716,1.9677 1.2716,6.7141 0,7.5 -0.6144,0.3797 -0.9941,-1.2362 -0.9847,-4.191 z m 79.6231,0.191 c -0.4228,-1.1016 -2.1617,-1.5 -6.548,-1.5 -3.2848,0 -6.1881,-0.3491 -6.4518,-0.7758 -0.6065,-0.9813 18.9393,-0.9797 19.9206,0 1.1813,1.1814 -1.618,3.7742 -4.0747,3.7742 -1.2488,0 -2.5295,-0.675 -2.8461,-1.5 z m -34.9074,-4.1559 c 0.677,-0.274 2.027,-0.2906 3,-0.037 0.9729,0.2536 0.419,0.4777 -1.231,0.4981 -1.65,0.02 -2.4461,-0.1871 -1.769,-0.461 z m -22.981,-2.0064 c 0.6875,-0.2774 1.8125,-0.2774 2.5,0 0.6875,0.2774 0.125,0.5044 -1.25,0.5044 -1.375,0 -1.9375,-0.227 -1.25,-0.5044 z m -20.5117,-1.0248 c 0.9561,-0.2503 2.7561,-0.2594 4,-0.02 1.244,0.2392 0.4617,0.444 -1.7383,0.4551 -2.2,0.011 -3.2177,-0.1846 -2.2617,-0.4349 z m 124.724,-7.5629 c -3.9907,-10.3433 -5.0859,-21.6764 -2.5658,-26.5499 1.4381,-2.781 2.1723,-3.2001 5.6061,-3.2001 5.1595,0 7.3906,3.1424 7.3611,10.368 -0.022,5.416 0.751,6.5918 4.3511,6.6167 3.3418,0.023 4.5038,3.0777 3.2682,8.5912 -1.7091,7.6265 -0.2519,9.6174 5.4519,7.4489 3.8678,-1.4706 3.0794,-0.1376 -0.9028,1.5262 -4.558,1.9045 -5.0813,1.8493 -7.5464,-0.7967 -1.841,-1.9761 -2.0118,-2.9968 -1.4225,-8.5 0.6319,-5.9001 0.5508,-6.2543 -1.4309,-6.2543 -1.1554,0 -3.5139,1.2626 -5.241,2.8058 -3.1131,2.7816 -3.1306,2.8512 -2.0158,8.0493 1.4673,6.8417 1.4188,8.1449 -0.3028,8.1449 -0.8639,0 -2.6839,-3.2568 -4.6104,-8.25 z m 4.8772,-13.2971 c 1.6047,-3.522 1.454,-10.6736 -0.2743,-13.0118 -1.3673,-1.8498 -1.5084,-1.7663 -3,1.7768 -1.8531,4.4017 -1.9412,6.4052 -0.4674,10.6329 1.33,3.8151 2.213,3.9572 3.7417,0.6021 z m -160.0895,18.8848 c 0.6875,-0.2774 1.8125,-0.2774 2.5,0 0.6875,0.2774 0.125,0.5044 -1.25,0.5044 -1.375,0 -1.9375,-0.227 -1.25,-0.5044 z m 132,0.089 c -0.9825,-0.9954 -0.972,-5.4265 0.013,-5.4265 0.4196,0 1.2071,0.9834 1.75,2.1853 0.5429,1.2019 1.4929,2.3455 2.1112,2.5414 1.5914,0.5041 7.1603,-4.4091 8.9749,-7.9182 1.4951,-2.8911 1.4507,-3.0254 -2.1071,-6.3809 -1.9989,-1.8852 -3.3676,-3.4276 -3.0417,-3.4276 1.328,0 8.4399,5.2711 8.9677,6.6466 0.8245,2.1487 -1.9121,6.8571 -5.4496,9.376 -3.1943,2.2745 -9.9228,3.7163 -11.2183,2.4039 z M 1098.2383,1513 c -2.0219,-0.6475 -2.1175,-0.8087 -0.5,-0.8427 1.1,-0.023 3.8,0.3303 6,0.7853 l 4,0.8274 -3.5,0.015 c -1.925,0.01 -4.625,-0.3449 -6,-0.7853 z m -24.75,-1.6893 c 0.9625,-0.2516 2.5375,-0.2516 3.5,0 0.9625,0.2515 0.175,0.4573 -1.75,0.4573 -1.925,0 -2.7125,-0.2058 -1.75,-0.4573 z m -35.25,-2.3107 -3.5,-0.7367 4,-0.033 c 2.2,-0.018 6.475,0.3094 9.5,0.7276 l 5.5,0.7603 -6,0.01 c -3.3,0.01 -7.575,-0.3224 -9.5,-0.7276 z m -34.75,-2.7163 c 1.5125,-0.2291 3.9875,-0.2291 5.5,0 1.5125,0.2292 0.275,0.4166 -2.75,0.4166 -3.025,0 -4.2625,-0.1874 -2.75,-0.4166 z m -23.9792,-1.8879 c 0.33229,-0.3323 1.1948,-0.3678 1.91667,-0.079 0.79773,0.3192 0.56078,0.5562 -0.60417,0.6042 -1.05416,0.043 -1.64479,-0.193 -1.3125,-0.5253 z m 281.1244,-8.8256 c -2.9808,-1.2976 -4.9346,-4.8884 -3.7249,-6.8458 0.9372,-1.5164 7.0527,-3.731 10.0476,-3.6384 l 2.7821,0.086 -2.8139,0.8447 c -6.2311,1.8704 -7.3169,5.073 -2.9361,8.6599 3.1465,2.5762 1.5112,3.0119 -3.3548,0.8937 z m -99.7669,-2.271 c -0.9628,-4.0254 0.2422,-12.8287 1.5737,-11.4972 0.5907,0.5907 0.6181,3.562 0.072,7.8252 -0.7874,6.1478 -0.961,6.5352 -1.6458,3.672 z M 1176.5107,1492 c 0,-2.475 0.195,-3.4875 0.4333,-2.25 0.2384,1.2375 0.2384,3.2625 0,4.5 -0.2383,1.2375 -0.4333,0.225 -0.4333,-2.25 z m 2.0273,-30 c 0,-3.025 0.1874,-4.2625 0.4166,-2.75 0.2291,1.5125 0.2291,3.9875 0,5.5 -0.2292,1.5125 -0.4166,0.275 -0.4166,-2.75 z m -15.1688,-4 c -0.051,-4.0109 0.193,-5.0492 0.9016,-3.8351 0.6053,1.0372 0.6317,3.1108 0.07,5.5 -0.899,3.8239 -0.9018,3.8191 -0.9716,-1.6649 z m 9.9055,-16.4562 c -1.6149,-1.9458 -0.4774,-3.5438 2.5226,-3.5438 2.6088,0 3.2075,1.8335 1.241,3.8 -1.5632,1.5632 -2.2951,1.5133 -3.7636,-0.2562 z m -28.5364,-4.281 c -6.8965,-0.4283 -10.116,-2.2668 -3.95,-2.2557 6.6134,0.012 17.4176,1.2364 16.9915,1.9257 -0.4648,0.7521 -4.5717,0.856 -13.0415,0.33 z M 1180.5107,1432 c 0,-2.475 0.195,-3.4875 0.4333,-2.25 0.2384,1.2375 0.2384,3.2625 0,4.5 -0.2383,1.2375 -0.4333,0.225 -0.4333,-2.25 z m -67.2724,2 c 0,-1.2033 5.6998,-1.2033 8.5,0 1.4688,0.6312 0.6057,0.8781 -3.25,0.9297 -2.8875,0.039 -5.25,-0.3797 -5.25,-0.9297 z m -27,-0.7313 c -1.925,-0.2262 -3.95,-0.8686 -4.5,-1.4274 -1.264,-1.2844 12.5642,-0.025 13.95,1.2706 0.9588,0.8963 -2.6472,0.9561 -9.45,0.1568 z m 258.731,-0.9246 c 0.677,-0.274 2.027,-0.2906 3,-0.037 0.9729,0.2536 0.419,0.4777 -1.231,0.4981 -1.65,0.02 -2.4461,-0.1871 -1.769,-0.461 z m -291.231,-1.2336 c -2.0436,-0.4448 -2.5924,-0.9097 -1.7216,-1.4583 1.6187,-1.0197 14.2216,0.2779 14.2216,1.4643 0,0.9941 -7.9222,0.9902 -12.5,-0.01 z m -31,-1.8236 c -1.1,-0.2646 -2.45,-0.9386 -3,-1.4979 -0.6772,-0.6887 0.9366,-0.7697 5,-0.251 3.3,0.4213 6.9834,0.7876 8.1854,0.814 1.202,0.026 1.9629,0.408 1.691,0.848 -0.5219,0.8445 -8.4845,0.9028 -11.8764,0.087 z m -28.75003,-2.0032 c -1.5125,-0.2291 -2.75,-0.852 -2.75,-1.3843 0,-0.5323 1.2375,-0.7644 2.75,-0.5158 1.5125,0.2485 3.78906,0.4889 5.05902,0.5342 1.27001,0.045 2.03091,0.5322 1.69101,1.0822 -0.6217,1.0059 -1.68732,1.0507 -6.75003,0.2837 z M 1314.4489,1082.462 c -1.4386,-1.6311 -3.6738,-2.0205 -2.7177,-0.4735 0.3518,0.5693 -0.055,0.7331 -0.9587,0.3863 -0.8633,-0.3313 -1.5083,-1.1137 -1.4334,-1.7386 0.2952,-2.4627 -0.1479,-3.7251 -1.1008,-3.1362 -0.55,0.3399 -1,0.393 -1,0.118 0,-1.6691 2.2061,-1.321 4.1881,0.661 1.2744,1.2744 3.1035,2.6189 4.0645,2.9877 0.9611,0.3688 1.7474,1.1347 1.7474,1.7019 0,1.4485 -1.2682,1.2181 -2.7894,-0.5066 z M 1288.7383,1080 c -0.3399,-0.55 -0.1415,-1 0.441,-1 0.5824,0 1.059,0.45 1.059,1 0,0.55 -0.1984,1 -0.441,1 -0.2425,0 -0.7191,-0.45 -1.059,-1 z m -0.1258,-4.4673 c -0.6299,-1.6415 0.3998,-3.7904 1.4926,-3.115 0.4008,0.2477 1.3607,0.06 2.1331,-0.4176 0.9565,-0.5912 1.8508,-0.2306 2.8042,1.1306 1.6927,2.4166 1.2124,3.0133 -2.8011,3.4806 -2.0126,0.2343 -3.2682,-0.1389 -3.6288,-1.0786 z M 954.59133,1666.25 c 0.33589,-2.6125 1.0838,-10.15 1.66202,-16.75 0.57822,-6.6 1.47967,-15.375 2.00321,-19.5 1.62797,-12.8267 1.8661,-15.1309 2.94535,-28.5 1.4348,-17.7733 1.82506,-21.5971 4.08252,-40 1.07948,-8.8 2.01076,-17.35 2.06951,-19 0.0588,-1.65 0.48509,-6.375 0.94744,-10.5 0.46234,-4.125 1.3392,-14.475 1.94856,-23 0.60937,-8.525 1.28239,-16.85 1.49561,-18.5 0.21322,-1.65 0.87393,-8.85 1.46824,-16 0.59432,-7.15 1.52415,-16.6 2.06629,-21 0.81895,-6.6466 3.95819,-41.2453 3.95819,-43.6247 0,-1.1744 -4.61738,-1.7791 -22,-2.8812 -19.54917,-1.2394 -42.73763,-2.7901 -52.5,-3.5108 -3.85,-0.2843 -20.275,-1.4032 -36.5,-2.4864 -16.225,-1.0833 -36.025,-2.4207 -44,-2.972 -7.975,-0.5513 -24.4,-1.6786 -36.5,-2.505 -47.17605,-3.2223 -80.63543,-5.5237 -95,-6.5342 -8.25,-0.5804 -19.05,-1.1521 -24,-1.2705 l -9,-0.2152 0.18688,5 0.18689,5 -1.00807,-5.218 c -1.1983,-6.2027 0.40099,-5.7264 -24.3657,-7.257 -9.35,-0.5778 -20.43487,-1.312 -24.63306,-1.6315 -4.87103,-0.3707 -7.86788,-0.201 -8.28202,0.4691 -0.35693,0.5775 -1.27914,0.8082 -2.04935,0.5127 -1.90931,-0.7327 -4.53557,4.5841 -4.53557,9.182 0,3.005 0.29762,3.5425 1.67005,3.0158 0.91853,-0.3525 1.97319,-0.1503 2.3437,0.4492 0.37051,0.5994 3.25086,1.3559 6.40077,1.681 8.05969,0.8319 4.8051,2.2826 -3.54942,1.5822 -6.51793,-0.5465 -6.7745,-0.4821 -7.26681,1.824 -1.10434,5.173 -6.59829,65.3836 -6.59829,72.3136 0,3.2135 0.27935,3.5861 2.75,3.6671 2.69148,0.088 2.68084,0.1101 -0.5,1.0286 -2.04255,0.5897 -3.25098,1.5779 -3.25263,2.6598 -10e-4,0.9468 -1.12015,14.3214 -2.48601,29.7214 -1.36586,15.4 -3.17162,35.875 -4.01281,45.5 -0.84119,9.625 -2.69474,28.525 -4.11901,42 -3.5896,33.9612 -4.57853,47.201 -3.59879,48.1807 0.83199,0.832 11.53894,1.7759 43.21925,3.81 9.075,0.5826 22.575,1.4831 30,2.0009 7.425,0.5179 20.925,1.2327 30,1.5884 9.075,0.3558 16.725,0.6915 17,0.7459 0.275,0.054 1.54993,-0.4825 2.83319,-1.1932 1.96856,-1.0902 2.60674,-1.0445 4.08363,0.292 1.32874,1.2025 5.585,1.8212 17.66682,2.5681 8.754,0.5412 22.66636,1.433 30.91636,1.9819 13.22581,0.8799 28.26479,1.7613 60,3.5163 10.1808,0.5631 38.94213,2.3731 48,3.0208 3.3,0.236 19.725,1.1435 36.5,2.0168 16.775,0.8733 33.65,1.9532 37.5,2.3998 3.85,0.4467 10.65453,0.8705 15.12117,0.9419 l 8.12117,0.1297 0.61072,-4.75 z M 695.97711,1647.5 c -1.55755,-7.0468 -1.94444,-12.5 -0.88683,-12.5 0.59351,0 1.37758,-2.25 1.74238,-5 1.04221,-7.8566 2.45106,-5.8395 1.74612,2.5 l -0.63398,7.5 4.14673,0 c 5.38177,0 5.32368,1.4682 -0.10326,2.6102 -3.85499,0.8112 -4.30103,1.2195 -4.79903,4.3921 l -0.54904,3.4977 -0.66309,-3 z m 15.88291,-10.6412 c -0.34196,-1.7099 -0.62175,-4.4025 -0.62175,-5.9838 0,-2.4568 -0.39275,-2.875 -2.7,-2.875 -3.61761,0 -1.96787,-1.3472 4.11958,-3.3642 5.72648,-1.8973 6.92349,-1.5422 2.87094,0.8517 -2.74882,1.6237 -2.82803,1.8906 -2.27584,7.6661 0.60838,6.3631 -0.35097,8.915 -1.39293,3.7052 z m -19.94988,-18.7494 c -0.36953,-1.8477 -0.61926,-4.7656 -0.55497,-6.4844 0.0806,-2.1558 0.39681,-1.4372 1.01939,2.3168 0.99609,6.0064 0.60509,9.5151 -0.46442,4.1676 z m -5.59292,-36.5261 c -0.0434,-1.0541 0.19293,-1.6448 0.52522,-1.3125 0.33229,0.3323 0.36781,1.1948 0.0789,1.9167 -0.31922,0.7977 -0.55618,0.5608 -0.60416,-0.6042 z m 13.8136,-19.8333 c -0.65149,-2.3375 -1.23134,-7.175 -1.28854,-10.75 -0.12521,-7.8248 1.62308,-8.6922 5.0389,-2.5 1.2136,2.2 2.69042,4.5435 3.28182,5.2078 0.5914,0.6643 1.05725,2.9143 1.03523,5 l -0.04,3.7922 -1.4993,-2.7641 c -1.27013,-2.3417 -1.80436,-2.6009 -3.49514,-1.696 -1.63026,0.8725 -1.87743,1.6993 -1.34937,4.5141 0.91061,4.854 -0.26278,4.2936 -1.68356,-0.804 z m 2.50898,-9.9404 c -1.8685,-3.6133 -2.83928,-3.0791 -1.92977,1.0618 0.44702,2.0353 1.11955,2.8389 2.07042,2.474 1.19503,-0.4585 1.17372,-0.9941 -0.14065,-3.5358 z m 13.21064,9.9723 c -2.09382,-3.2377 -5.61217,-12.4984 -5.61217,-14.7719 0,-3.2722 2.23159,-7.01 4.18527,-7.01 2.21748,0 3.80179,3.6308 3.84653,8.8151 0.0354,4.1036 1.8664,7.1849 4.26943,7.1849 2.91697,0 2.72658,1.7947 -0.30242,2.8506 -1.64934,0.5749 -2.99881,1.7172 -2.99881,2.5384 0,2.5633 -1.84579,2.7773 -3.38783,0.3929 z m 12.29702,-1.4717 c -0.59788,-1.5456 -1.74323,-5.9205 -2.54522,-9.7221 -1.49515,-7.0872 -1.10246,-8.5289 2.33514,-8.5728 1.61869,-0.021 5.75986,5.6937 7.16279,9.8839 1.50556,4.4968 1.45508,4.6976 -0.69218,2.7544 -1.71807,-1.5548 -1.90843,-1.5103 -3.1052,0.7259 -0.70122,1.3102 -0.98429,3.2979 -0.62905,4.4172 1.01154,3.187 -1.30956,3.6588 -2.52628,0.5135 z M 682.49045,1552.5 c -0.0111,-2.2 0.18461,-3.2177 0.4349,-2.2617 0.25029,0.9561 0.25937,2.7561 0.0202,4 -0.23919,1.244 -0.44398,0.4617 -0.45508,-1.7383 z m -4.44197,-29 c -0.22474,-1.925 -0.049,-3.5 0.39059,-3.5 0.43956,0 0.7992,1.575 0.7992,3.5 0,1.925 -0.17577,3.5 -0.39059,3.5 -0.21483,0 -0.57447,-1.575 -0.7992,-3.5 z m -3.26624,-23.314 c -0.41209,-2.9227 -0.51182,-5.5515 -0.22163,-5.8417 0.71306,-0.713 2.00498,8.1894 1.42844,9.8432 -0.25165,0.7219 -0.79472,-1.0788 -1.20681,-4.0015 z m 261.45603,1.814 -2.5,-0.8006 2.5,-0.026 c 1.375,-0.014 4.525,0.3348 7,0.7752 l 4.5,0.8007 -4.5,0.025 c -2.475,0.014 -5.625,-0.3348 -7,-0.7752 z m -23.72917,-1.6042 c 0.33229,-0.3323 1.1948,-0.3678 1.91667,-0.079 0.79773,0.3192 0.56078,0.5562 -0.60417,0.6042 -1.05416,0.043 -1.64479,-0.193 -1.3125,-0.5253 z m -9.52083,-1.1015 c 1.2375,-0.2384 3.2625,-0.2384 4.5,0 1.2375,0.2383 0.225,0.4333 -2.25,0.4333 -2.475,0 -3.4875,-0.195 -2.25,-0.4333 z m -28.25,-1.2943 -5,-0.6858 4.5,-0.07 c 2.475,-0.038 6.75,0.281 9.5,0.7093 l 5,0.7788 -4.5,-0.024 c -2.475,-0.013 -6.75,-0.3321 -9.5,-0.7093 z m -36.26791,-2.7145 c 1.50265,-0.2282 4.20265,-0.2328 6,-0.01 1.79735,0.2225 0.56791,0.4092 -2.73209,0.4148 -3.3,0.01 -4.77056,-0.1765 -3.26791,-0.4046 z m -10.98209,-1.0018 c 1.5125,-0.2291 3.9875,-0.2291 5.5,0 1.5125,0.2292 0.275,0.4166 -2.75,0.4166 -3.025,0 -4.2625,-0.1874 -2.75,-0.4166 z m -150,-9.973 c 0.9625,-0.2516 2.5375,-0.2516 3.5,0 0.9625,0.2515 0.175,0.4573 -1.75,0.4573 -1.925,0 -2.7125,-0.2058 -1.75,-0.4573 z m -7.08996,-14.9357 c -0.088,-1.1687 -0.39705,-3.6437 -0.68672,-5.5 -0.4823,-3.0906 -0.43619,-3.1673 0.54732,-0.91 0.5907,1.3558 0.89972,3.8308 0.68672,5.5 -0.22887,1.7936 -0.45275,2.1658 -0.54732,0.91 z M 667.39616,1447 c 0,-1.375 0.22698,-1.9375 0.50439,-1.25 0.27741,0.6875 0.27741,1.8125 0,2.5 -0.27741,0.6875 -0.50439,0.125 -0.50439,-1.25 z m -1,-6 c 0,-1.375 0.22698,-1.9375 0.50439,-1.25 0.27741,0.6875 0.27741,1.8125 0,2.5 -0.27741,0.6875 -0.50439,0.125 -0.50439,-1.25 z m 291.84211,-17 -2.5,-0.8006 2.69098,-0.1 c 1.48004,-0.055 2.9691,0.3503 3.30902,0.9003 0.70255,1.1367 0.0495,1.1367 -3.5,0 z m -294.84211,-3 c 0,-1.375 0.22698,-1.9375 0.50439,-1.25 0.27741,0.6875 0.27741,1.8125 0,2.5 -0.27741,0.6875 -0.50439,0.125 -0.50439,-1.25 z m 266.34211,1 c -2.62359,-1.1274 8.97971,-1.1274 12.5,0 1.80802,0.579 0.70086,0.8088 -4,0.83 -3.575,0.016 -7.4,-0.3573 -8.5,-0.83 z m -31.5,-2 c -1.91441,-0.6131 -1.16696,-0.824 3.19098,-0.9003 3.13004,-0.055 5.9691,0.3503 6.30902,0.9003 0.73262,1.1854 -5.79857,1.1854 -9.5,0 z m -34.85966,-2.1472 c -5.41278,-1.5576 -2.99511,-2.0265 6.48388,-1.2574 5.82513,0.4727 8.1613,0.9806 6.8559,1.4905 -2.69901,1.0544 -9.26459,0.9396 -13.33978,-0.2331 z m -201.06139,-2.2695 c -0.0434,-1.0541 0.19293,-1.6448 0.52522,-1.3125 0.33229,0.3323 0.36781,1.1948 0.0789,1.9167 -0.31922,0.7977 -0.55618,0.5608 -0.60416,-0.6042 z m 166.92105,-0.6316 c -1.80361,-0.5428 -0.82867,-0.7758 3.5,-0.8367 3.3,-0.046 6.6611,0.3337 7.46911,0.8447 1.79702,1.1366 -7.1877,1.13 -10.96911,-0.01 z m -30.72917,-2.5559 c 0.33229,-0.3323 1.1948,-0.3678 1.91667,-0.079 0.79773,0.3192 0.56078,0.5562 -0.60417,0.6042 -1.05416,0.043 -1.64479,-0.193 -1.3125,-0.5253 z m -37.80826,-2.4564 c -0.45217,-0.7316 1.313,-0.8456 5.69098,-0.3674 8.27825,0.904 8.67162,1.428 1.07213,1.428 -3.3592,0 -6.40261,-0.4773 -6.76311,-1.0606 z M 729.73827,1408 c -1.62082,-0.6965 -1.33644,-0.8594 1.5,-0.8594 1.925,0 4.4,0.3867 5.5,0.8594 1.62082,0.6965 1.33644,0.8594 -1.5,0.8594 -1.925,0 -4.4,-0.3867 -5.5,-0.8594 z m -31.5,-1.9951 c -1.01183,-0.6506 0.28997,-0.7773 4,-0.3892 3.025,0.3164 5.6875,0.7573 5.91667,0.9798 0.90115,0.8748 -8.50922,0.3144 -9.91667,-0.5906 z m -31,-2.0049 c -1.18222,-0.764 -0.97037,-0.9577 1,-0.9144 1.375,0.03 3.4,0.4417 4.5,0.9144 1.71714,0.7379 1.57572,0.8672 -1,0.9144 -1.65,0.03 -3.675,-0.3812 -4.5,-0.9144 z m -33,-2 c -3.51383,-1.1253 6.10489,-1.1733 11.5,-0.057 3.69452,0.7642 3.50359,0.8286 -2.5,0.8427 -3.575,0.01 -7.625,-0.3449 -9,-0.7853 z m 525.55803,7.25 c -1.0063,-5.6781 -1.6205,-7.3294 -2.5192,-6.774 -1.8816,1.1629 -2.0567,5.6257 -0.3148,8.0201 2.5585,3.5166 3.5971,3.06 2.834,-1.2461 z M 980.43046,1399 c 0.3807,-3.025 1.18299,-11.575 1.78287,-19 0.59987,-7.425 1.30772,-15.525 1.57299,-18 0.26527,-2.475 1.37924,-14.175 2.47549,-26 2.01142,-21.6967 4.75353,-48.3886 5.4448,-53 0.20612,-1.375 0.66786,-6.775 1.02608,-12 0.72447,-10.5669 4.43679,-50.0969 7.51291,-80 1.1033,-10.725 2.4335,-24 2.9561,-29.5 2.9941,-31.5138 4.1436,-43.1372 4.5396,-45.9041 0.2437,-1.7027 0.9137,-8.7209 1.4889,-15.5959 0.5751,-6.875 1.697,-18.8 2.4931,-26.5 0.796,-7.7 2.164,-21.65 3.0399,-31 3.4323,-36.6397 4.5195,-47.8861 6.912,-71.5 1.3652,-13.475 3.1758,-31.025 4.0236,-39 3.9448,-37.11111 4.5275,-45.44137 3.2648,-46.67861 -0.9543,-0.93509 -3.3264,-0.76392 -10.7253,0.77397 -5.225,1.08604 -15.35,3.09606 -22.50003,4.46673 -7.15,1.37067 -17.05,3.35872 -22,4.41789 -7.81323,1.67183 -32.89859,6.706 -45,9.03067 -2.2,0.42261 -31,6.22656 -64,12.89766 -33,6.67109 -65.625,13.24016 -72.5,14.59792 -6.875,1.35776 -15.425,3.16124 -19,4.00773 -3.575,0.84649 -19.325,4.01687 -35,7.04529 -15.675,3.02842 -30.075,5.93779 -32,6.46527 -1.925,0.52747 -8.225,1.85018 -14,2.93935 -13.99998,2.64042 -21.32076,4.44757 -28.30954,6.9883 -3.19525,1.16161 -9.27025,2.57269 -13.5,3.13573 -12.90708,1.71812 -13.36111,1.80884 -14.72716,2.94256 -0.728,0.60418 -1.15263,1.9864 -0.94364,3.07161 0.20899,1.0852 -0.2706,9.04373 -1.06576,17.68553 -0.79515,8.6418 -1.44757,18.4886 -1.44982,21.8816 -0.002,3.3931 -1.08068,11.7181 -2.39651,18.5 -1.31584,6.782 -2.69108,15.7058 -3.05609,19.8308 -0.36501,4.125 -0.84429,9.525 -1.06507,12 -0.22079,2.475 -0.90248,10.8 -1.51488,18.5 -0.6124,7.7 -1.54863,16.925 -2.0805,20.5 -2.50324,16.8257 -2.8,20.3944 -2.76952,33.3047 0.0216,9.1384 -0.36405,14.2826 -1.14085,15.2186 -1.41422,1.704 -2.90635,16.9621 -2.00248,20.4767 1.05025,4.0837 -0.57319,25.1317 -2.00675,26.0177 -0.81969,0.5066 -1.71266,6.1218 -2.56505,16.1297 -1.64543,19.319 -1.67778,20.82 -0.40638,18.8526 1.15499,-1.7872 1.32461,5.9129 0.35612,16.1661 -0.43864,4.6438 -0.99973,6.5242 -1.84948,6.1981 -1.36817,-0.525 -1.85908,3.2363 -3.54161,27.1358 -0.5808,8.25 -1.49194,18.6 -2.02474,23 -0.5328,4.4 -1.62903,15.65 -2.43605,25 -0.80702,9.35 -1.91401,21.5 -2.45998,27 -1.23296,12.4208 -1.33279,27.5 -0.18204,27.5 0.47422,0 1.34449,-3.7125 1.93394,-8.25 l 1.07172,-8.25 -0.39972,8.2121 c -0.25332,5.2044 -0.006,8.4558 0.67653,8.8773 1.20106,0.7423 23.53352,2.495 61.85531,4.8546 14.025,0.8636 27.525,1.7715 30,2.0176 2.475,0.2461 9.225,0.7147 15,1.0414 5.775,0.3267 15.675,0.9995 22,1.495 6.325,0.4955 16,1.1608 21.5,1.4784 5.5,0.3176 13.15,0.7971 17,1.0656 13.20771,0.921 51.00235,3.3993 60.5,3.9672 5.225,0.3124 11.525,0.7578 14,0.9897 2.475,0.2319 8.325,0.6565 13,0.9434 19.29463,1.1841 40.87492,2.6101 46.5,3.0727 3.3,0.2714 13.65,0.9614 23,1.5334 9.35,0.572 21.725,1.4145 27.5,1.8723 5.775,0.4577 13.875,0.7753 18,0.7057 l 7.5,-0.1264 0.69219,-5.5 z m -377.49007,-57 c 0.31176,-5.775 0.73132,-10.6875 0.93236,-10.9167 0.74676,-0.8512 0.13505,16.5101 -0.66652,18.9167 -0.4839,1.4529 -0.59525,-1.898 -0.26584,-8 z m 3.52473,-48 c -0.005,-3.025 0.32522,-8.2 0.73466,-11.5 0.74268,-5.9858 0.74452,-5.9798 0.77315,2.5 0.0158,4.675 -0.31481,9.85 -0.73466,11.5 -0.62384,2.4516 -0.76516,1.9947 -0.77315,-2.5 z m -17.22685,84.321 c 0,-1.5249 -8.0146,-23.8824 -14.45407,-40.321 -1.83133,-4.675 -4.76524,-13.45 -6.51979,-19.5 -1.75455,-6.05 -3.6032,-12.0337 -4.10811,-13.2971 -0.50492,-1.2633 -0.91803,-3.1882 -0.91803,-4.2775 0,-1.0893 -1.54074,-6.5806 -3.42387,-12.203 -7.8304,-23.3787 -9.78064,-34.8182 -9.92591,-58.2224 -0.0615,-9.9 0.2295,-19.8 0.64655,-22 0.41704,-2.2 1.2093,-6.8424 1.76056,-10.3165 1.56238,-9.8461 3.70034,-18.3241 6.11552,-24.2507 2.85244,-6.9996 9.94618,-16.3214 14.93015,-19.6197 3.45787,-2.2883 4.55132,-2.5116 9.46888,-1.9336 3.05777,0.3594 7.69605,1.7361 10.3073,3.0593 5.15478,2.6121 11.6198,9.1132 13.20261,13.2763 1.6397,4.3128 2.85754,1.4083 3.88699,-9.2701 1.41212,-14.6478 5.00122,-49.403 5.51917,-53.445 0.24667,-1.925 0.71879,-7.1 1.04915,-11.5 0.33036,-4.4 0.99199,-10.7 1.47028,-14 0.77878,-5.3732 1.44334,-18.4126 1.07027,-21 -0.0793,-0.55 -1.02681,0.059 -2.10556,1.3542 -1.07875,1.2948 -1.70533,2.7684 -1.3924,3.2747 0.31293,0.5064 0.19802,0.8041 -0.25536,0.6615 -0.45338,-0.1425 -3.29933,2.412 -6.32433,5.6767 -7.88735,8.5123 -12.12296,12.4428 -15.16,14.0678 -1.463,0.7829 -3.938,2.9667 -5.5,4.8529 -1.562,1.8863 -5.15263,4.9817 -7.97918,6.8787 -2.82654,1.897 -6.20154,4.4706 -7.5,5.7191 -5.10831,4.9119 -13.93104,10.8089 -19.50437,13.0364 -8.08832,3.2328 -29.31035,14.2951 -38.35645,19.994 -9.51091,5.9917 -27.98176,15.2292 -34.5,17.2539 -5.913,1.8367 -13.5,3.0221 -13.5,2.1092 0,-0.8814 4.10673,-4.3791 5.14167,-4.3791 1.85338,0 30.18302,-14.2212 36.87675,-18.5118 8.29795,-5.3189 31.24187,-17.2171 41.5934,-21.5695 3.91149,-1.6447 8.86149,-4.455 11,-6.2452 2.1385,-1.7902 6.36318,-4.9923 9.38818,-7.1159 14.93915,-10.4874 33.31247,-27.2512 38.97145,-35.5576 10.3523,-15.1954 12.62916,-24.6969 16.54394,-69.0394 C 628.15692,976.066 628.39891,968 627.47251,968 c -0.18719,0 -1.98732,1.11915 -4.0003,2.487 -4.22171,2.8687 -6.77529,1.8737 -3.75532,-1.46337 1.00724,-1.113 1.64911,-2.01463 1.42637,-2.00364 -3.31662,0.16373 -63.61237,12.05091 -144.90499,28.56771 -12.375,2.5143 -26.1757,5.2282 -30.66822,6.031 -4.49252,0.8027 -11.24252,2.2486 -15,3.213 l -6.83178,1.7535 -0.61712,5.4574 c -1.0762,9.5173 -2.78448,13.7012 -10.09082,24.7144 -8.92332,13.4505 -22.40766,27.2345 -28.81954,29.4599 -7.33545,2.546 -20.96099,4.7927 -29.0361,4.7877 -8.87191,-0.01 -27.91902,-2.3872 -32.93642,-4.1186 -5.64396,-1.9476 -14.0246,-6.9773 -17.62512,-10.5778 -4.08672,-4.0867 -5.47253,-6.7403 -8.38626,-16.0582 -1.58897,-5.0814 -2.7489,-7.2453 -3.87786,-7.2344 -2.75045,0.027 -13.24459,2.7174 -14.13398,3.6239 -0.88267,0.8997 -4.74182,36.4169 -8.00358,73.6599 -1.05006,11.9896 -2.38631,26.3896 -2.96945,32 -0.58313,5.6103 -1.71,17.4006 -2.50416,26.2006 -2.41151,26.722 -3.4756,37.9453 -6.02044,63.5 -1.34189,13.475 -3.12901,31.925 -3.97137,41 -1.65464,17.8259 -2.04041,21.8766 -3.07717,32.3114 -0.63386,6.3797 -0.54253,6.8466 1.44067,7.3652 2.10576,0.5507 2.99355,2.6952 4.85307,11.7231 1.15786,5.6213 3.47934,6.7374 6.99939,3.365 2.00235,-1.9184 3.21685,-2.4195 4.2767,-1.7644 0.98848,0.6109 2.31391,0.3702 3.98988,-0.7245 2.46473,-1.61 2.45763,-1.569 -0.3964,2.2924 -1.59835,2.1625 -4.04504,5.1693 -5.43709,6.6818 -2.52831,2.7471 -5.15683,3.6391 -5.15683,1.75 0,-0.55 -1.15458,-1 -2.56574,-1 -2.97033,0 -6.44322,-1.6606 -8.06045,-3.8543 -0.91395,-1.2397 -1.33798,-0.54 -2.25,3.7126 -0.6181,2.8821 -1.12381,7.5593 -1.12381,10.3939 l 0,5.1537 4,-3.9059 c 4.9281,-4.8122 5.28105,-3.6604 0.5,1.6317 -3.75803,4.1597 -4.27116,5.9834 -2.17335,7.7244 0.74753,0.6204 11.33334,1.7553 24.25,2.5998 12.60784,0.8244 26.07335,1.7355 29.92335,2.0249 20.53725,1.5435 67.48816,4.7076 112,7.5479 17.05,1.088 33.7,2.1996 37,2.4704 8.59338,0.7049 49.6407,3.2795 65.25,4.0927 7.2875,0.3796 13.25,0.3882 13.25,0.019 0,-0.3692 -1.125,-3.344 -2.5,-6.6109 -2.64055,-6.2737 -3.1832,-11.8549 -1.46482,-15.0657 1.41071,-2.636 7.04989,-2.6028 9.45571,0.056 1.79059,1.9786 1.83065,1.9729 7.02671,-1 7.70188,-4.4065 9.75749,-3.7464 5.12046,1.6445 l -2.36193,2.7459 2.66102,4.5599 c 4.52892,7.7606 5.62004,11.094 3.97243,12.1359 -2.36651,1.4965 -3.26432,0.5744 -7.25541,-7.4518 -4.57061,-9.1916 -6.64866,-9.7859 -8.01757,-2.2931 -0.69988,3.8309 -0.51829,5.6048 0.8945,8.7378 0.97496,2.162 2.49181,3.9732 3.37077,4.0248 0.87897,0.052 8.57313,0.6633 17.09813,1.3593 18.2678,1.4914 29,1.8126 29,0.8679 z m -28.65548,-17.071 c -0.85439,-2.0625 -2.18143,-5.2675 -2.94898,-7.1221 -1.79643,-4.3408 -1.88097,-4.0627 1.60446,-5.2777 1.65,-0.5752 3,-1.4518 3,-1.948 0,-0.4962 1.76734,-0.9022 3.92742,-0.9022 2.98345,0 4.39352,0.5925 5.86665,2.4653 1.99884,2.5411 3.69775,9.9299 2.66676,11.5981 -0.96896,1.5678 -3.92102,-0.6458 -5.99362,-4.4944 -1.05711,-1.963 -2.49469,-3.569 -3.19461,-3.569 -1.63227,0 -1.60131,0.8169 0.2274,6 2.08431,5.9076 1.92028,7 -1.05103,7 -2.00502,0 -2.88351,-0.8026 -4.10445,-3.75 z m -273.34452,-49.3136 c 0,-0.264 2.025,-2.6856 4.5,-5.3814 2.475,-2.6958 4.5,-4.4672 4.5,-3.9364 0,0.5307 -2.025,2.9524 -4.5,5.3814 -2.475,2.429 -4.5,4.2004 -4.5,3.9364 z m 30.47412,-31.9102 c 3.25133,-3.2857 6.13588,-5.7495 6.4101,-5.4753 0.65469,0.6547 -10.01684,11.4491 -11.31876,11.4491 -0.55157,0 1.65733,-2.6882 4.90866,-5.9738 z m 22.52588,-22.2305 c 0,-0.204 2.34245,-2.604 5.20544,-5.3333 l 5.20545,-4.9624 -4.4173,5 c -4.01509,4.5447 -5.99359,6.2929 -5.99359,5.2957 z m 26,-26.3568 c 0,-0.5422 3.67491,-4.5753 8.16647,-8.9624 4.76229,-4.6515 6.87998,-6.3091 5.08025,-3.9765 -3.99694,5.1804 -13.24672,14.2152 -13.24672,12.9389 z m 23.89482,-25.1889 c 1.2825,-2.3253 16.44184,-17.0891 15.97154,-15.5548 -0.51045,1.6653 -15.05209,17.3048 -16.09002,17.3048 -0.46569,0 -0.41237,-0.7875 0.11848,-1.75 z m -9.32642,-19.7405 c -0.86262,-2.0646 -1.5684,-4.0881 -1.5684,-4.4968 0,-0.4086 -0.88526,-1.8684 -1.96725,-3.2439 -1.08198,-1.3756 -1.73061,-2.7376 -1.4414,-3.0268 0.28922,-0.2892 0.62893,-3.7289 0.75491,-7.6438 0.18982,-5.8985 0.61854,-7.5018 2.50232,-9.3581 l 2.27326,-2.2401 1.93908,2.3608 c 2.47651,3.0151 2.44422,3.7818 -0.53264,12.6497 l -2.47172,7.3631 2.0655,4.6694 c 1.41108,3.19 1.74063,4.9943 1.04012,5.6948 -0.7005,0.7005 -1.5223,-0.1639 -2.59378,-2.7283 z m 0.33377,-18.6587 c 1.47866,-4.2417 1.41512,-8.1232 -0.12459,-7.61 -1.37743,0.4591 -2.52908,3.9036 -2.6779,8.0092 -0.1344,3.708 1.44936,3.4824 2.80249,-0.3992 z m 33.09783,13.3703 c 0,-1.0167 12.31445,-13.2211 13.34034,-13.2211 0.43259,0 -2.03374,3.15 -5.48073,7 -5.84381,6.527 -7.85961,8.1226 -7.85961,6.2211 z m -20.08705,-13.826 c -2.08398,-2.511 -2.49944,-16.3085 -0.56891,-18.8935 2.22708,-2.9822 2.82866,-1.4045 1.56292,4.0987 -0.84113,3.6571 -0.83565,5.9776 0.0216,9.1497 1.35965,5.0312 2.97246,5.3804 5.45327,1.1808 2.50671,-4.2436 3.25374,-2.8973 0.97778,1.7621 -2.07655,4.2512 -5.21571,5.3903 -7.44666,2.7022 z m 44.08705,-9.8278 c 0,-1.4943 6.9162,-9.3738 10.27677,-11.7082 2.4918,-1.7309 1.99378,-0.891 -2.19464,3.701 -2.97983,3.2669 -6.01733,6.5988 -6.75,7.4042 -0.73267,0.8053 -1.33213,1.0767 -1.33213,0.603 z m -31.1506,-5.3173 c -3.77807,-7.7053 -3.75333,-25.25 0.0356,-25.25 0.44804,0 0.60193,3.3143 0.34197,7.3651 -0.57487,8.9576 0.62726,10.3351 4.91878,5.6365 1.62495,-1.7791 3.21257,-2.9766 3.52805,-2.6611 0.31548,0.3155 -0.81522,3.2421 -2.51267,6.5037 -2.53269,4.8664 -2.93001,6.4749 -2.21509,8.9676 0.84146,2.934 0.53497,4.1882 -1.0235,4.1882 -0.40927,0 -1.79218,-2.1375 -3.07314,-4.75 z m 54.1506,-19.8648 c 0,-1.006 15.33174,-16.4764 17.47209,-17.6302 2.58059,-1.3911 -4.77782,7.3865 -11.33032,13.5156 -4.88869,4.5728 -6.14177,5.4123 -6.14177,4.1146 z m 29,-28.9535 c 0,-0.55 2.475,-3.4443 5.5,-6.4317 3.025,-2.9874 5.5,-4.9817 5.5,-4.4317 0,0.55 -2.475,3.4443 -5.5,6.4317 -3.025,2.9874 -5.5,4.9817 -5.5,4.4317 z m 27,-28.3258 c 0,-0.4917 3.6,-4.1394 8,-8.1059 4.4,-3.9665 8,-6.8155 8,-6.3309 0,1.0509 -14.22649,15.3309 -15.27352,15.3309 -0.39956,0 -0.72648,-0.4023 -0.72648,-0.8941 z m 25.66228,-24.8433 c -0.31228,-0.5053 1.99846,-3.385 5.13497,-6.3994 7.87649,-7.5698 10.3344,-9.2151 6.51844,-4.3632 -4.70514,5.9824 -11.00935,11.8047 -11.65341,10.7626 z m 27.33772,-28.2076 c 0,-1.3714 8.68709,-10.6212 12,-12.7773 2.71443,-1.7665 2.81295,-1.9529 -2.88366,5.4534 -3.52283,4.58 -9.11634,9.0738 -9.11634,7.3239 z m 24,-25.3054 c 0,-1.0424 17.15418,-17.9288 17.67948,-17.4035 0.37109,0.3711 -0.63427,2.1326 -2.23413,3.9143 -7.8612,8.755 -12.99874,13.7396 -14.16119,13.7396 -0.70629,0 -1.28416,-0.1127 -1.28416,-0.2504 z M 591.63354,1347 c 0.3462,-5.225 0.86292,-20.075 1.14828,-33 0.28536,-12.925 0.93809,-30.2624 1.45051,-38.5277 0.82658,-13.3323 6.33672,-65.9514 7.58913,-72.4723 0.26409,-1.375 0.7439,-7.225 1.06625,-13 0.50539,-9.054 0.29982,-11.3062 -1.49273,-16.3546 -2.6382,-7.4298 -6.21982,-12.1268 -11.1748,-14.6546 -7.4447,-3.798 -12.46169,-2 -19.16146,6.8672 -5.63363,7.4562 -8.17324,14.3533 -11.46687,31.142 -2.5215,12.8529 -2.83864,16.6014 -2.7919,33 0.067,23.5267 1.70533,34.349 8.40156,55.5 4.17344,13.1824 9.86167,32.871 11.19784,38.759 1.6081,7.0863 13.1331,34.9683 13.8811,33.5821 0.39801,-0.7376 1.0069,-5.6161 1.35309,-10.8411 z m -358.39527,-28.2641 c 0,-0.6953 -0.9,-3.7264 -2,-6.7359 -1.1,-3.0095 -2,-5.5906 -2,-5.7359 0,-0.1452 -0.45,-0.2641 -1,-0.2641 -1.77551,0 -1.06208,6.7805 1.09878,10.4428 2.11382,3.5827 3.90122,4.6333 3.90122,2.2931 z m 140.5,-252.8525 c 11.1148,-1.9065 20.34333,-9.5483 31.66932,-26.2244 8.54677,-12.5839 10.79987,-17.5233 11.52229,-25.2595 l 0.62321,-6.6738 -4.90741,0.7067 c -2.69907,0.3888 -11.94545,2.2327 -20.5475,4.0977 -8.60204,1.8649 -18.27704,3.8434 -21.5,4.3966 -6.71493,1.1525 -57.46731,11.4915 -64.60991,13.1619 -4.26868,0.9983 -4.75,1.3941 -4.75,3.9058 0,5.5275 3.97431,15.9132 7.40063,19.3396 4.01092,4.0109 12.31138,8.7871 19.09937,10.9901 10.22186,3.3174 31.53747,4.04 46,1.5593 z m -101.80712,-32.4987 c 2.2768,-0.6106 3.01972,-2.5967 3.74394,-10.0091 0.22163,-2.2684 0.66094,-6.0934 0.97625,-8.5 0.67274,-5.1347 1.3966,-12.8058 2.0642,-21.8756 0.26315,-3.575 0.76025,-9.9875 1.10467,-14.25 0.40397,-4.9995 0.26508,-7.75 -0.39135,-7.75 -1.60704,0 -7.13954,8.0967 -8.18468,11.9781 -0.52158,1.9371 -1.41022,11.3969 -1.97476,21.0219 -0.56453,9.625 -1.69715,19.975 -2.51692,23 -0.81977,3.025 -1.49583,5.8375 -1.50236,6.25 -0.0141,0.8897 3.59412,0.9624 6.68101,0.1347 z m 17.55712,-3.5179 c 3.60219,-0.9067 3.75,-1.1126 3.75,-5.2238 0,-8.4789 5.32729,-22.3594 11.95256,-31.143 4.29555,-5.6949 6.04744,-10.1768 6.04744,-15.4711 0,-5.1397 -2.79186,-12.7697 -5.3206,-14.5409 -4.33109,-3.03361 -19.61672,-0.69968 -21.12284,3.2252 -0.55065,1.43498 -1.83297,12.8187 -5.04497,44.7868 -2.17925,21.6894 -2.28767,20.7231 2.23841,19.9507 2.0625,-0.352 5.4375,-1.0647 7.5,-1.5839 z m 166.33107,-33.8519 c 16.45541,-3.2917 38.91893,-7.8365 49.91893,-10.0994 11,-2.2629 27.65,-5.6024 37,-7.421 28.00304,-5.4467 52.53038,-10.56841 54.8346,-11.4503 2.12913,-0.81487 2.12352,-0.83796 -0.3346,-1.37824 -2.93847,-0.64586 -21.08427,-2.44593 -32.5,-3.22401 -19.13559,-1.30427 -39.82284,-4.55573 -50.5,-7.93719 -14.44091,-4.57344 -37.8221,-5.19412 -55.5,-1.4733 -4.95,1.04187 -12.6,2.59633 -17,3.45436 -12.37844,2.41389 -19.1395,8.04949 -20.51274,17.09818 -0.40448,2.6651 -0.13695,9.308 0.61664,15.3117 0.73208,5.8324 1.34569,11.1668 1.36357,11.8543 0.0179,0.6875 0.63151,1.25 1.3636,1.25 0.73208,0 14.79458,-2.6933 31.25,-5.9851 z m 826.52096,4.1757 c -1.5062,-2.8144 -14.9867,-15.1971 -21.9805,-20.1906 -3.4665,-2.475 -9.5244,-7.0717 -13.4621,-10.21495 -3.9377,-3.14323 -12.0056,-8.54323 -17.9288,-12 -5.9232,-3.45678 -14.9232,-9.2182 -20,-12.80315 -5.0768,-3.58496 -14.1806,-9.39712 -20.2306,-12.91592 -15.9687,-9.28775 -23.8979,-14.87322 -33.6705,-23.71837 -4.7688,-4.31619 -10.7981,-9.62466 -13.3986,-11.79662 -5.7545,-4.80636 -12.6158,-13.92294 -16.7287,-22.22748 -4.0217,-8.12044 -5.5286,-8.87128 -13.9053,-6.92859 -3.6227,0.84016 -9.2215,1.97819 -12.4418,2.52897 -10.8079,1.8485 -49.0209,9.66345 -54.3551,11.1162 -6.8038,1.85296 -6.8062,2.03182 -0.1551,11.24502 7.3291,10.15244 14.2808,16.69574 25.7907,24.27557 10.6326,7.00213 18.5582,10.70902 28.8644,13.50028 4.4,1.19165 10.25,2.81517 13,3.60782 2.75,0.79264 7.025,1.83714 9.5,2.32111 2.475,0.48396 7.6304,1.80649 11.4564,2.93894 3.8261,1.13245 12.1012,2.77047 18.3892,3.64005 16.3997,2.26791 26.8949,6.04228 43.9804,15.8166 15.7151,8.99034 24.2243,13.12477 36.2264,17.60142 4.1537,1.5494 9.5537,3.7171 12,4.8171 2.4462,1.1 6.9226,3.1006 9.9476,4.4458 3.025,1.3452 10.675,5.6562 17,9.5801 6.325,3.9239 11.8533,7.1424 12.2852,7.1522 0.4318,0.01 0.3494,-0.7963 -0.1832,-1.7915 z M 1113.155,941.60459 c -0.2292,-0.21747 -2.1784,-0.87669 -4.3316,-1.46493 -2.1532,-0.58824 -3.5032,-0.67898 -3,-0.20166 0.9216,0.87418 3.7106,1.73138 6.3316,1.946 0.7791,0.0638 1.2291,-0.0619 1,-0.27941 z M 633.23827,926.44098 c 0,-0.79254 -0.675,-1.44098 -1.5,-1.44098 -1.68232,0 -1.75048,0.18368 -0.89522,2.41247 0.7025,1.83068 2.39522,1.14412 2.39522,-0.97149 z m -3,-10.55901 c 0,-1.1 -0.45,-1.72189 -1,-1.38197 -0.55,0.33992 -1,1.51803 -1,2.61803 0,1.1 0.45,1.72189 1,1.38197 0.55,-0.33992 1,-1.51803 1,-2.61803 z m 425.50003,-41.40709 c 18.0952,-3.3065 26.7096,-5.05889 39,-7.93362 5.5,-1.28645 12.6393,-2.87836 15.865,-3.53759 l 5.8651,-1.19859 -0.5365,-3.30598 c -0.5172,-3.18701 -3.3692,-10.20639 -10.1573,-24.9991 -1.7667,-3.85 -3.8229,-8.96032 -4.5694,-11.35626 -0.7464,-2.39595 -1.9747,-4.59324 -2.7295,-4.88288 -2.9763,-1.1421 -10.7002,4.74141 -28.6853,21.85015 -4.9787,4.73606 -11.4799,10.58606 -14.4473,13 -10.4712,8.51841 -17.9783,16.69753 -18.6598,20.33039 -0.7967,4.24661 0.029,5.71021 2.8663,5.07881 1.2038,-0.26792 8.4887,-1.63832 16.1887,-3.04533 z M 1161.7829,1893.75 c -2.8059,-2.4595 -6.2346,-11.209 -7.2255,-18.4387 l -0.6294,-4.5921 3.6104,0.6773 c 3.2952,0.6182 3.7452,0.4165 5.1551,-2.3099 1.5556,-3.0082 2.0443,-7.2538 0.9598,-8.3383 -0.3218,-0.3217 -1.9024,-0.1258 -3.5125,0.4355 -1.6102,0.5613 -3.7094,0.717 -4.665,0.3461 -1.5184,-0.5895 -1.4222,-0.8501 0.7625,-2.0668 3.7427,-2.0843 9.3588,-1.8291 11.4865,0.5219 1.4552,1.6081 1.6864,3.0506 1.2173,7.5957 -0.5548,5.3753 -0.4368,5.7529 2.8105,9.0003 5.2333,5.2332 5.8851,13.0196 1.4603,17.4444 -2.7161,2.7161 -8.167,2.5847 -11.43,-0.2754 z m 8.4794,-5.3227 c 1.8661,-5.6543 -0.6737,-10.4976 -6.8821,-13.1239 -1.8469,-0.7813 -3.5214,-1.2572 -3.721,-1.0576 -0.1996,0.1996 0.4833,3.9147 1.5176,8.2558 2.5716,10.794 6.6096,13.4277 9.0855,5.9257 z m -235.94508,1.156 c -0.0434,-1.0541 0.19293,-1.6448 0.52522,-1.3125 0.33229,0.3323 0.36781,1.1948 0.0789,1.9167 -0.31922,0.7977 -0.55618,0.5608 -0.60416,-0.6042 z M 936.39616,1874 c 0,-1.375 0.22698,-1.9375 0.50439,-1.25 0.27741,0.6875 0.27741,1.8125 0,2.5 -0.27741,0.6875 -0.50439,0.125 -0.50439,-1.25 z m 197.04214,-2.2 c -0.66,-0.66 -1.2,-2.685 -1.2,-4.5 0,-2.6468 0.4008,-3.3 2.0248,-3.3 2.6033,0 4.4047,4.3289 2.9402,7.0655 -1.1976,2.2376 -2.0882,2.4113 -3.765,0.7345 z m -196.20074,-7.3833 c -10e-4,-7.2483 2.42138,-29.4167 3.21481,-29.4167 1.04194,0 0.99133,3.8525 -0.17767,13.5262 -0.52997,4.3856 -1.22871,10.435 -1.55276,13.4432 -0.70875,6.5793 -1.4834,7.8565 -1.48438,2.4473 z m 198.00074,-16.691 c 0,-2.5342 0.4848,-4.9073 1.0773,-5.2735 0.7483,-0.4624 0.8618,0.8174 0.3719,4.191 -0.927,6.3821 -1.4492,6.7722 -1.4492,1.0825 z m 2.0902,-25.6757 c -0.064,-3.1448 0.2218,-4.138 0.9737,-3.3861 0.7242,0.7242 0.753,2.1448 0.09,4.45 l -0.9737,3.3861 -0.09,-4.45 z m 69.0802,-15.3447 c -0.591,-0.7121 -1.2086,-4.6496 -1.3724,-8.75 l -0.298,-7.4553 -3.25,-0.3134 c -3.1611,-0.3047 -3.25,-0.2074 -3.25,3.5589 0,2.1297 -0.6475,4.7457 -1.4389,5.8134 -1.3233,1.7852 -1.5701,1.8119 -3.0736,0.3318 -4.0521,-3.9892 -4.7485,-21.1762 -1.2068,-29.7852 5.9756,-14.5252 13.127,-6.4015 7.6319,8.6695 -3.4488,9.4586 -3.6161,8.7662 2.0241,8.3793 4.6983,-0.3223 5.1099,-0.1619 6.0708,2.3654 0.5669,1.4911 0.746,4.858 0.3979,7.482 -0.5412,4.08 -0.3134,5.0903 1.5733,6.977 1.4535,1.4535 2.9423,2.0211 4.3638,1.6635 2.0978,-0.5277 2.1038,-0.5026 0.2164,0.9075 -2.4089,1.7998 -6.954,1.8841 -8.3885,0.1556 z m -8.5654,-29.7657 c 1.5067,-4.1698 1.7532,-10.6002 0.4376,-11.4133 -1.369,-0.8461 -3.6587,4.1862 -4.3652,9.5939 -0.9068,6.9416 1.6491,8.1256 3.9276,1.8194 z m -15.1622,22.9679 c -1.2351,-1.9985 -1.2569,-29.0122 -0.023,-28.6009 1.5257,0.5086 2.3803,6.5808 2.6248,18.6507 0.2002,9.8853 -0.6447,13.1167 -2.6018,9.9502 z m -43.7388,-1.2393 c -1.3885,-3.6131 -0.5098,-9.6682 1.403,-9.6682 1.0262,0 1.0246,5.3119 0,9 -0.6121,2.1976 -0.7815,2.2784 -1.4003,0.6682 z m 1.9777,-24.3198 c -1.7312,-1.7312 -0.111,-12.3484 1.8843,-12.3484 1.9073,0 2.8439,1.9901 1.5469,3.2871 -0.6121,0.6121 -1.1198,2.4854 -1.1282,4.1629 -0.017,3.3625 -1.2392,5.9622 -2.303,4.8984 z m 13.525,-14.3891 c -1.4179,-2.2703 -0.841,-3.9593 1.3523,-3.9593 1.0439,0 1.441,-1.2562 1.441,-4.559 0,-3.0964 0.3575,-4.3381 1.1143,-3.8704 0.6658,0.4115 0.9054,2.2462 0.5952,4.5589 -0.2855,2.1285 -0.112,4.1218 0.3857,4.4293 1.4703,0.9087 1.0322,3.4412 -0.5952,3.4412 -0.825,0 -1.5,0.45 -1.5,1 0,1.6626 -1.4402,1.1261 -2.7933,-1.0407 z m -12.2067,-15.9003 c 0,-0.5175 0.45,-1.2191 1,-1.559 0.55,-0.3399 1,0.083 1,0.941 0,0.8574 -0.45,1.559 -1,1.559 -0.55,0 -1,-0.4234 -1,-0.941 z m 16.1886,-9.559 c -0.026,-2.2 0.3387,-4.9 0.8114,-6 0.7278,-1.6937 0.8521,-1.5405 0.8114,1 -0.026,1.65 -0.3915,4.35 -0.8114,6 -0.7295,2.867 -0.7655,2.8227 -0.8114,-1 z m -14.1886,-16.5 c 0,-3.9978 1.2725,-5.3383 2.365,-2.4913 0.5758,1.5007 -0.8389,6.4913 -1.8402,6.4913 -0.2887,0 -0.5248,-1.8 -0.5248,-4 z m 468.9396,-2.6942 c -1.9434,-9.2078 -1.7565,-16.7456 0.4763,-19.2129 2.1003,-2.3208 5.5402,-2.7368 7.3841,-0.8929 2.0651,2.0651 1.3204,6.2422 -1.8913,10.6095 -2.6843,3.65 -3.0463,4.8814 -2.75,9.3524 0.49,7.3915 -1.669,7.4881 -3.2191,0.1439 z m 6.0604,-16.9899 c 0,-0.8525 -0.7299,-1.3243 -1.75,-1.131 -1.2017,0.2276 -1.8338,1.4255 -2.0176,3.8233 l -0.2677,3.4918 2.0177,-2.3608 c 1.1097,-1.2984 2.0176,-3.0189 2.0176,-3.8233 z m 6.4092,16.1859 c -1.2151,-1.8545 -1.4656,-3.6399 -0.9723,-6.9296 1.3977,-9.3206 7.832,-12.4571 13.64,-6.6491 4.1082,4.1081 3.9524,8.2476 -0.4769,12.6769 -4.3644,4.3644 -9.6651,4.7565 -12.1908,0.9018 z m 9.3901,-2.5295 c 3.4304,-3.1958 3.9406,-6.9548 1.2407,-9.141 -2.974,-2.4082 -4.5909,-2.3106 -6.4833,0.3912 -1.5592,2.2261 -2.143,8.8579 -0.89,10.1108 1.2616,1.2617 3.9605,0.6627 6.1326,-1.361 z m 11.2803,3.6236 c -0.6409,-0.7723 -1.6422,-4.0348 -2.2251,-7.25 -0.8983,-4.9554 -0.7775,-6.6818 0.7929,-11.3332 1.4498,-4.2942 2.454,-5.6964 4.6183,-6.4486 2.1726,-0.7551 3.13,-0.597 4.4643,0.7373 1.5981,1.5981 1.5365,1.6986 -1.0405,1.6986 -3.1062,0 -4.6895,2.8559 -4.6895,8.4588 l 0,3.3286 4.1676,-0.9364 c 8.1322,-1.8272 8.7888,2.0066 0.7159,4.1804 -3.6818,0.9914 -3.8835,1.2514 -3.8835,5.0071 0,4.1262 -0.9373,4.9469 -2.9204,2.5574 z m -485.9799,-6.9049 c -0.062,-3.641 0.2735,-5.5784 0.9003,-5.191 1.1577,0.7155 1.1577,4.8852 0,8.5 -0.609,1.9016 -0.8245,1.1096 -0.9003,-3.309 z m 404.1711,1.7048 c 0.3323,-0.3323 1.1948,-0.3678 1.9167,-0.079 0.7977,0.3192 0.5608,0.5562 -0.6042,0.6042 -1.0541,0.043 -1.6448,-0.193 -1.3125,-0.5253 z m -418.2005,-15.2048 c -0.044,-3.3007 0.308,-5.0752 0.9297,-4.691 1.1977,0.7402 1.1977,5.2127 0,8 -0.6295,1.465 -0.8782,0.5799 -0.9297,-3.309 z M 284.29085,1614.25 c -1.28225,-4.6172 -1.38453,-13.5732 -0.14626,-12.8079 0.49847,0.3081 1.19728,2.9221 1.55292,5.809 0.35563,2.8869 0.88354,6.4864 1.17314,7.9989 0.79713,4.1633 -1.38027,3.3193 -2.5798,-1 z m -4.22867,-30.75 c -1.27508,-2.0266 -2.14243,-10.8149 -0.99754,-10.1073 0.60289,0.3726 1.38025,2.1917 1.72745,4.0425 0.70483,3.7571 0.2413,7.6084 -0.72991,6.0648 z m -53.41545,-29 c 0.28096,-2.2 0.75301,-6.5457 1.04901,-9.6571 0.29599,-3.1114 0.97412,-9.8614 1.50695,-15 0.53284,-5.1386 1.21707,-12.7179 1.52051,-16.8429 0.9511,-12.9292 2.6326,-32.3508 3.11683,-36 0.25545,-1.925 1.11569,-11.825 1.91167,-22 2.93321,-37.4954 4.08635,-47 5.70228,-47 0.54257,0 0.71595,1.6308 0.39868,3.75 -0.30877,2.0625 -1.04042,9.15 -1.62589,15.75 -1.28636,14.5012 -3.65548,39.5162 -4.97219,52.5 -1.67738,16.5403 -2.86631,28.8397 -5.12327,53 -1.2074,12.925 -2.60031,23.95 -3.09535,24.5 -0.54181,0.602 -0.69674,-0.5921 -0.38923,-3 z m 49.21381,0.958 c -1.26438,-3.2949 -1.90903,-12.458 -0.87645,-12.458 0.56165,0 1.33822,2.9604 1.7257,6.5787 0.70023,6.5386 0.34567,8.9932 -0.84925,5.8793 z m -5.59429,-35.8844 c -1.2543,-3.2991 -1.35077,-8.5736 -0.15681,-8.5736 0.96363,0 2.53839,9.9238 1.70674,10.7554 -0.28708,0.2871 -0.98454,-0.6947 -1.54993,-2.1818 z m 15.49475,-5.0796 c -3.50433,-6.5203 -3.9148,-12.2983 -1.09502,-15.4141 2.18249,-2.4116 6.37504,-2.7575 7.20511,-0.5944 0.46331,1.2074 0.89635,1.0826 2.31285,-0.6667 3.32577,-4.1072 7.05433,0.1504 7.05433,8.0552 0,4.5472 1.66565,6.9981 5,7.3569 2.31266,0.2489 2.46659,0.01 2.05412,-3.2309 -0.24523,-1.925 -0.47023,-5.3 -0.5,-7.5 -0.048,-3.5502 0.22703,-4.0281 2.44588,-4.2501 1.70237,-0.1703 3.69644,0.8709 6.25,3.2635 2.98581,2.7975 3.75,4.2458 3.75,7.107 0,2.7014 -0.35421,3.4577 -1.4267,3.0461 -0.86456,-0.3318 -2.4861,0.8415 -4.11541,2.9776 -1.53069,2.0068 -3.06452,3.1493 -3.56128,2.6525 -0.47991,-0.4799 -3.69047,-0.5788 -7.13459,-0.2198 -6.93678,0.723 -8.37919,-0.099 -9.46161,-5.3893 -0.84277,-4.1193 -2.80041,-1.6051 -2.80041,3.5965 0,6.2343 -2.37041,5.921 -5.97727,-0.79 z m -20.88523,-29.5565 c -0.86879,-4.344 -0.80087,-5.9375 0.25309,-5.9375 1.12781,0 2.09768,7.2228 1.1162,8.3125 -0.40248,0.4469 -1.01867,-0.6219 -1.36929,-2.375 z m -4.43227,-30.1094 c -1.11172,-5.9779 -0.96873,-7.9249 0.47591,-6.4803 1.0293,1.0293 2.19202,11.0408 1.3846,11.922 -0.38795,0.4234 -1.22518,-2.0254 -1.86051,-5.4417 z M 256.84974,1429 c -0.37874,-1.925 -1.18336,-5.4254 -1.78804,-7.7787 -1.0023,-3.9007 -0.6443,-6.3755 0.72431,-5.0069 0.82129,0.8213 2.67724,13.6182 2.18215,15.0461 -0.23639,0.6817 -0.73968,-0.3355 -1.11842,-2.2605 z m -4.46523,-28.6491 c -1.87596,-7.3326 -2.45246,-12.9466 -1.20757,-11.7593 1.23418,1.1771 3.58334,14.2197 2.71718,15.0859 -0.28842,0.2884 -0.96774,-1.2085 -1.50961,-3.3266 z m -122.89624,-51.0672 c 1.5125,-0.2291 3.9875,-0.2291 5.5,0 1.5125,0.2292 0.275,0.4166 -2.75,0.4166 -3.025,0 -4.2625,-0.1874 -2.75,-0.4166 z M 291.85314,862.30728 c 0.18119,-3.194 0.79036,-7.15728 1.35371,-8.80728 0.79353,-2.32421 0.89902,-1.19789 0.4683,5 -0.30578,4.4 -0.91495,8.36328 -1.35371,8.80728 -0.43875,0.44401 -0.64949,-1.80599 -0.4683,-5 z M 989.25355,851.8624 c -4.10415,-5.66562 -5.28138,-10.29014 -3.62699,-14.2479 1.63503,-3.91143 3.45556,-5.43327 7.45702,-6.23356 3.80238,-0.76048 4.01626,0.15351 0.65469,2.79772 -2.91149,2.29018 -3.36243,5.82134 -0.7434,5.82134 0.96613,0 3.21613,-0.41859 5,-0.93019 1.78387,-0.51161 3.22913,-0.62411 3.21163,-0.25 -0.071,1.52067 -2.789,4.16155 -5.24318,5.09463 -2.39515,0.91063 -2.53365,1.26614 -1.66851,4.28271 2.43092,8.47612 -0.18077,10.37495 -5.04126,3.66525 z m -696.19078,-4.18822 c -0.37205,-1.82482 -0.23268,-2.48236 0.39346,-1.85622 0.53328,0.53328 0.79255,1.8049 0.57615,2.82582 -0.29142,1.37482 -0.54288,1.12336 -0.96961,-0.9696 z M 294.39616,841 c 0,-1.375 0.22698,-1.9375 0.50439,-1.25 0.27741,0.6875 0.27741,1.8125 0,2.5 -0.27741,0.6875 -0.50439,0.125 -0.50439,-1.25 z m -30.08531,-39.63486 c -3.5576,-4.52276 -2.75746,-7.87637 3.26912,-13.70176 2.93794,-2.83986 6.71085,-5.94555 8.38425,-6.90154 l 3.04254,-1.73816 5.00892,3.98816 c 2.7549,2.19349 5.22712,3.98816 5.49383,3.98816 0.2667,0 1.51307,-2.8125 2.76971,-6.25 3.31395,-9.06519 4.41489,-10.1513 7.33246,-7.23373 1.35503,1.35503 1.10052,2.70182 -2.39332,12.66476 -2.15028,6.13166 -4.36233,11.60121 -4.91567,12.15455 -0.67475,0.67475 -2.12091,-0.17603 -4.39142,-2.58347 l -3.38537,-3.58954 -3.56845,4.26901 C 277.29951,800.80765 272.00689,804 268.40972,804 c -1.11446,0 -2.95895,-1.18569 -4.09887,-2.63486 z m 11.89643,-6.07061 c 2.24589,-1.9224 4.78712,-4.85604 5.64718,-6.51922 1.36667,-2.64285 1.38084,-3.20685 0.11245,-4.47524 -1.26839,-1.2684 -2.21371,-0.74543 -7.50097,4.14963 -3.32732,3.08051 -6.48641,6.85378 -7.02021,8.38504 -0.9278,2.66148 -0.84616,2.76585 1.85379,2.36958 1.55338,-0.22799 4.66188,-1.9874 6.90776,-3.90979 z m 29.63435,-0.18032 c -4.0214,-4.44359 -4.77658,-15.25444 -1.47583,-21.12733 2.78236,-4.95054 5.98264,-6.71334 9.37866,-5.16602 5.90155,2.68893 5.64567,9.4418 -0.58227,15.36629 -3.28304,3.12308 -3.92392,4.38295 -3.92392,7.71378 0,4.70307 -1.10358,5.74708 -3.39664,3.21328 z M 642.906,724.18534 c -2.8603,-3.1606 -0.5853,-20.5407 3.55691,-27.17344 1.49434,-2.39282 5.97366,-2.68282 7.78206,-0.50383 1.8741,2.25815 0.66288,9.77112 -2.54546,15.78905 -1.52559,2.86158 -3.04098,6.99698 -3.36752,9.18977 -0.67693,4.54566 -2.79915,5.60108 -5.42599,2.69845 z m 16.53959,-6.43553 c -0.60977,-0.73473 -0.91824,-5.34488 -0.74816,-11.18142 0.27426,-9.41153 0.41341,-9.97711 2.65897,-10.80779 1.86066,-0.6883 2.72921,-0.43241 4.04418,1.19152 1.56243,1.92952 1.78621,1.95651 3.33991,0.4028 0.9159,-0.9159 2.06319,-2.71185 2.54952,-3.991 0.63346,-1.66614 1.38962,-2.14531 2.66625,-1.68958 3.8691,1.38117 4.07681,2.12503 3.5385,12.6724 -0.35145,6.88616 -0.13853,11.00515 0.64452,12.4683 1.44049,2.69158 0.16202,2.80898 -3.05266,0.28031 -1.47056,-1.15674 -2.93417,-3.90547 -3.72728,-7 -2.00142,-7.80916 -5.81941,-6.44766 -5.89645,2.10267 -0.0233,2.58391 -0.33491,5.17141 -0.6925,5.75 -0.89139,1.44231 -4.06122,1.32431 -5.3248,-0.19821 z M 447.73827,714 c -0.33992,-0.55 -0.14148,-1 0.44098,-1 0.58246,0 1.05902,0.45 1.05902,1 0,0.55 -0.19844,1 -0.44098,1 -0.24254,0 -0.7191,-0.45 -1.05902,-1 z m 602.77243,-22 c 0,-2.475 0.195,-3.4875 0.4333,-2.25 0.2384,1.2375 0.2384,3.2625 0,4.5 -0.2383,1.2375 -0.4333,0.225 -0.4333,-2.25 z m 1,-10 c 0,-2.475 0.195,-3.4875 0.4333,-2.25 0.2384,1.2375 0.2384,3.2625 0,4.5 -0.2383,1.2375 -0.4333,0.225 -0.4333,-2.25 z m 22.9423,-6.24132 c -2.7834,-3.35377 6.3941,-25.44191 11.7332,-28.23939 2.1829,-1.1437 2.9436,-1.10576 5.2596,0.26238 4.7203,2.78835 5.5339,7.25108 4.8193,26.43695 -0.074,1.99784 -3.5208,-1.0869 -6.6105,-5.91689 -1.916,-2.99526 -4.031,-5.26398 -4.7,-5.04161 -0.669,0.22238 -2.4206,3.29232 -3.8926,6.8221 -2.7026,6.48095 -4.5935,8.10503 -6.609,5.67646 z M 1052.338,674.75 c -0.062,-1.08882 -0.906,-1.75 -2.2337,-1.75 -6.4975,0 -14.866,-5.4022 -14.866,-9.5966 0,-5.40753 15.8687,-20.4034 21.591,-20.4034 3.8567,0 3.6835,1.81931 -0.3701,3.88731 -7.7298,3.94343 -16.883,17.405 -14.1081,20.74857 0.916,1.10375 2.2298,1.33557 4.8231,0.85106 4.5071,-0.8421 5.842,-1.95753 6.3549,-5.31012 l 0.4095,-2.67682 0.1499,2.71862 c 0.224,4.06488 2.8613,2.44827 3.6533,-2.23939 0.877,-5.19065 2.3569,-6.28308 5.9716,-4.4078 3.2251,1.67322 2.891,1.94315 7.2042,-5.82143 2.9002,-5.22109 3.1178,-5.35004 5.7637,-3.41537 1.7513,1.28064 1.7189,1.6306 -0.8024,8.65228 -2.9134,8.11376 -7.8797,16.50711 -10.3215,17.44413 -0.8725,0.33483 -3.0041,-0.22766 -4.7368,-1.24998 -3.7736,-2.22647 -6.7587,-1.48629 -7.7094,1.91158 -0.4453,1.59142 -0.7073,1.81422 -0.7732,0.65736 z M 1660.5328,9.484934 c -0.9487,-1.027179 -0.878,-1.430779 0.3318,-1.89504 2.1774,-0.835538 2.3737,-0.765158 2.3737,0.851089 0,2.062904 -1.3008,2.564824 -2.7055,1.043951 z M 1645.9904,3.744256 C 1645.3958,2.127142 1646.1521,0 1647.3216,0 c 1.1807,0 1.1986,3.707748 0.022,4.435239 -0.4924,0.304301 -1.1011,-0.0066 -1.3527,-0.690983 z"
     id="path3235"
     style="fill:#000000" />
</svg>
