<?xml version="1.0" encoding="UTF-8" standalone="no"?>
<!-- Created with Inkscape (http://www.inkscape.org/) -->

<svg
   xmlns:dc="http://purl.org/dc/elements/1.1/"
   xmlns:cc="http://creativecommons.org/ns#"
   xmlns:rdf="http://www.w3.org/1999/02/22-rdf-syntax-ns#"
   xmlns:svg="http://www.w3.org/2000/svg"
   xmlns="http://www.w3.org/2000/svg"
   version="1.1"
   width="1503"
   height="2164.262"
   id="svg2997">
  <metadata
     id="metadata3003">
    <rdf:RDF>
      <cc:Work
         rdf:about="">
        <dc:format>image/svg+xml</dc:format>
        <dc:type
           rdf:resource="http://purl.org/dc/dcmitype/StillImage" />
        <dc:title></dc:title>
      </cc:Work>
    </rdf:RDF>
  </metadata>
  <defs
     id="defs3001" />
  <path
     d="m 885.25,2163.9346 c -3.2618,-1.3047 -0.19646,-3.504 12,-8.6096 7.2875,-3.0507 16.85,-6.7629 21.25,-8.2493 4.4,-1.4864 11.825,-4.2732 16.5,-6.1929 4.675,-1.9196 11.425,-4.3869 15,-5.4829 9.08223,-2.7842 20.66316,-7.6503 26.06468,-10.952 2.51058,-1.5345 10.16058,-4.8386 17,-7.3423 12.97482,-4.7498 13.83142,-5.1535 46.68412,-22.003 11.1369,-5.7119 23.5119,-11.3724 27.5,-12.579 3.9882,-1.2066 9.9864,-3.0137 13.3294,-4.0157 6.5061,-1.9503 12.4874,-5.359 29.9723,-17.081 11.9439,-8.0073 11.3326,-7.6871 31.9495,-16.733 26.702,-11.7157 34.4315,-16.8624 50.4505,-33.5926 5.7929,-6.05 12.5336,-13.025 14.9795,-15.5 5.7706,-5.8392 19.5092,-23.2854 24.3965,-30.9802 9.8391,-15.4913 19.6625,-35.2008 21.6575,-43.4535 1.1088,-4.5868 2.0209,-9.4031 2.0268,-10.703 0.01,-1.2998 0.6861,-4.5894 1.5114,-7.3102 1.2148,-4.0047 1.3858,-8.6708 0.8974,-24.5 -0.5155,-16.7107 -1.0995,-22.0244 -4.0172,-36.5531 -3.8844,-19.342 -6.7451,-30.2632 -11.1504,-42.5684 -1.6872,-4.7126 -3.8157,-11.6876 -4.7302,-15.5 -3.0535,-12.7307 -6.9284,-23.8425 -11.7839,-33.7924 -7.8391,-16.0639 -9.0361,-26.1966 -4.5628,-38.627 1.5444,-4.2918 3.5385,-6.9713 9.1499,-12.2946 10.4291,-9.8938 12.3345,-11.2209 21.0995,-14.6948 9.1774,-3.6373 16.082,-4.0674 24.5755,-1.5308 9.3446,2.7909 10.6881,2.8605 14.2082,0.7366 1.8105,-1.0923 4.9907,-2.5293 7.0672,-3.1933 5.6199,-1.797 9.1871,-5.3155 13.7268,-13.5393 5.1051,-9.2482 6.9581,-17.795 6.9804,-32.1968 0.025,-16.307 -2.5049,-25.5324 -9.5945,-34.9825 -1.3134,-1.7508 -2.3881,-3.5588 -2.3881,-4.0178 0,-0.4591 -1.1616,-2.5441 -2.5814,-4.6335 -1.4197,-2.0894 -2.3482,-4.4066 -2.0631,-5.1494 0.285,-0.7427 -0.1284,-1.5986 -0.9186,-1.9019 -0.7903,-0.3032 -1.4369,-1.2293 -1.4369,-2.058 0,-1.1559 0.5317,-1.3044 2.2842,-0.6381 2.6615,1.0119 13.9422,-0.093 18.0309,-1.7661 1.5483,-0.6335 3.84,-1.1519 5.0927,-1.1519 1.2527,0 4.2609,-1.1015 6.6849,-2.4478 2.424,-1.3462 10.8084,-5.6742 18.632,-9.6176 13.9579,-7.0354 14.3666,-7.3358 21.7898,-16.0153 5.5162,-6.4498 8.8816,-11.6314 12.4261,-19.1324 7.8892,-16.6951 9.3637,-23.9501 7.0309,-34.5941 -0.5657,-2.581 -1.5211,-6.9428 -2.1232,-9.6928 -2.2376,-10.2206 -7.16,-18.88 -15.5081,-27.2816 -16.1033,-16.2066 -18.1868,-19.3693 -22.8664,-34.7113 -2.949,-9.6682 -3.019,-14.5393 -0.5316,-37.0071 2.2662,-20.471 2.9855,-22.948 10.7189,-36.9111 3.8041,-6.8686 17.0684,-20.0796 34.1683,-34.0311 2.3811,-1.9428 8.9061,-7.7893 14.5,-12.9923 5.5938,-5.2031 12.0366,-10.8029 14.3173,-12.4442 2.2807,-1.6413 8.4134,-7.8525 13.6282,-13.8027 5.2149,-5.9502 14.9785,-15.9679 21.6971,-22.2615 16.5561,-15.509 20.0361,-20.8166 28.5458,-43.5366 4.3349,-11.5739 6.0826,-20.2595 7.44,-36.9763 0.9183,-11.3085 0.8176,-13.5739 -0.9578,-21.544 -2.6357,-11.833 -5.7034,-18.457 -11.3464,-24.5002 -2.5678,-2.75 -4.456,-5.5588 -4.1958,-6.2417 0.7781,-2.0423 -12.3677,-13.1099 -29.6267,-24.9429 -15.7127,-10.7729 -18.2634,-13.076 -43.8311,-39.5757 -33.7951,-35.0269 -44.8143,-46.8965 -51.1916,-55.1423 -8.9788,-11.60962 -13.1714,-16.21112 -39.4336,-43.28022 -13.9712,-14.4005 -30.0086,-30.1525 -35.6385,-35.0044 -10.9278,-9.4176 -29.6755,-22.3004 -48.6078,-33.40168 -6.3957,-3.75022 -12.6829,-7.56704 -13.9717,-8.48183 -1.2888,-0.91479 -5.7888,-3.46545 -10,-5.66814 -6.4513,-3.37436 -15.8147,-8.70923 -24.6568,-14.04845 -1.1,-0.66422 -3.4325,-2.22131 -5.1833,-3.46019 -1.7508,-1.23888 -3.4864,-2.25251 -3.857,-2.25251 -2.0732,0 -19.9934,-13.81562 -25.356,-19.54833 -6.7882,-7.25662 -8.792,-11.05281 -11.8968,-22.53888 -5.0936,-18.84307 -4.8058,-26.65035 1.8346,-49.76765 2.7877,-9.70483 6.7984,-21.24514 8.9127,-25.64514 5.3744,-11.18436 6.8247,-16.01111 7.5408,-25.09654 0.3427,-4.3469 1.1076,-9.70346 1.6999,-11.90346 0.5924,-2.2 1.0959,-10.75 1.119,-19 0.036,-12.83186 -0.3378,-16.58997 -2.5857,-26 -1.4452,-6.05 -3.1158,-15.05 -3.7123,-20 -0.5965,-4.95 -2.0137,-12.375 -3.1494,-16.5 -1.1357,-4.125 -3.536,-13.35 -5.334,-20.5 -1.7979,-7.15 -5.6356,-18.625 -8.5281,-25.5 -2.8926,-6.875 -6.5036,-16.775 -8.0245,-22 -1.5209,-5.225 -3.2417,-10.70933 -3.824,-12.1874 -0.5824,-1.47808 -2.6837,-8.90308 -4.6697,-16.5 -1.9859,-7.59693 -5.5502,-20.3376 -7.9206,-28.3126 -2.3704,-7.975 -5.6708,-19.45 -7.3343,-25.5 -9.1891,-33.42146 -28.1354,-88.07399 -38.4802,-111 -1.9854,-4.4 -4.496,-10.25 -5.5791,-13 -1.0831,-2.75 -5.5286,-12.65 -9.8788,-22 -7.4885,-16.09534 -11.3735,-22.82146 -26.4095,-45.72304 -3.5111,-5.34768 -7.632,-11.64768 -9.1578,-14 -3.9847,-6.14346 -21.51197,-30.51072 -26.2259,-36.46054 -2.2,-2.77679 -6.925,-9.24908 -10.5,-14.38288 -3.575,-5.13379 -8.78884,-11.83153 -11.58632,-14.88386 -2.79747,-3.05232 -8.15684,-9.59968 -11.90971,-14.54968 -8.36842,-11.03788 -15.42318,-19.21168 -34.91055,-40.4481 -18.94282,-20.643 -33.88162,-37.16365 -47.48894,-52.517464 -5.83246,-6.58105 -12.56247,-13.78105 -14.95557,-16 -48.5316,-44.99971 -60.92619,-57.71588 -65.69417,-67.3986693 -2.51805,-5.113647 -3.30741,-7.683099 -2.58289,-8.40761802 1.08306,-1.083064 4.28897,0.73008902 3.84618,2.17526702 -0.11992,0.391378 1.0128,2.935718 2.51715,5.654088 3.50684,6.3368823 20.57815,23.7316323 47.87289,48.7799223 11.88444,10.90631 23.35257,21.92956 25.48473,24.49611 2.13217,2.56655 9.26805,10.51646 15.85752,17.66646 6.58947,7.150004 13.99602,15.250004 16.45899,18.000004 2.46297,2.75 9.90345,10.841 16.53441,17.97999 21.47294,23.11812 30.80098,33.91457 41.05689,47.52001 2.69486,3.575 7.33212,9.2 10.30501,12.5 2.9729,3.3 8.60927,10.5 12.52527,16 3.91601,5.5 10.10025,13.825 13.74276,18.5 3.64251,4.675 7.91435,10.525 9.49295,13 1.5787,2.475 5.4161,7.875 8.5277,12 3.1116,4.125 6.2291,8.625 6.9279,10 0.6988,1.375 6.3638,10.17935 12.5888,19.56521 14.7528,22.24348 27.6727,48.9015 45.0413,92.93479 6.7256,17.05089 16.5444,44.63049 20.4709,57.5 9.4217,30.88014 15.2403,50.98853 24.885,86 5.6601,20.5469 12.5186,41.49875 16.9966,51.92244 3.9785,9.26107 6.4586,16.90893 9.4296,29.07756 1.2757,5.225 3.264,12.875 4.4184,17 1.1544,4.125 2.8153,12.65559 3.6909,18.95687 0.8756,6.30128 2.547,15.30128 3.7142,20 1.7127,6.89525 2.117,11.53291 2.096,24.04313 -0.014,8.525 -0.5319,18.2 -1.15,21.5 -0.6182,3.3 -1.4053,8.7 -1.7491,12 -0.9346,8.97081 -3.1115,15.89031 -8.5505,27.17937 -2.6973,5.59866 -4.9043,10.78809 -4.9043,11.53207 0,0.74399 -0.6192,3.58827 -1.3761,6.32063 -6.2445,22.54425 -6.7772,25.20994 -6.7505,33.77935 0.03,9.62941 3.5941,25.7643 7.2923,33.01334 4.7051,9.22288 15.559,18.27697 33.8343,28.22395 17.2585,9.39355 37.4446,20.69092 41,22.94609 1.925,1.22101 8.45,5.06687 14.5,8.54634 17.2964,9.94751 38.7715,24.5293 47.7659,32.43346 9.7892,8.6027 52.4776,51.8221 61.7456,62.5137 3.5813,4.1314 9.1847,10.8867 12.4519,15.0117 7.4191,9.36672 23.9157,27.18372 41.5813,44.90932 7.4495,7.4749 18.2241,18.6805 23.9435,24.9015 10.9127,11.8697 18.1299,18.0593 31.6976,27.184 15.458,10.3961 34.7373,27.3484 37.2726,32.7739 0.7019,1.5022 1.925,3.8563 2.7179,5.2313 5.7877,10.0365 10.3237,24.701 10.3237,33.3757 0,31.2314 -11.7028,66.6058 -27.3997,82.8221 -3.3552,3.4662 -10.9596,10.9965 -16.8987,16.734 -5.9391,5.7376 -13.0429,13.1983 -15.7863,16.5795 -2.7433,3.3813 -8.2149,8.8119 -12.159,12.0682 -3.9441,3.2563 -10.7903,9.2411 -15.2137,13.2996 -4.4234,4.0585 -14.3426,12.6768 -22.0426,19.1519 -16.5455,13.9133 -24.2452,22.5177 -29.4967,32.9624 -4.3169,8.5859 -6.0639,17.3006 -8.02,40.0066 -1.3834,16.059 -0.5899,21.9621 4.6276,34.426 3.1866,7.6124 4.6961,9.6489 15.9544,21.5244 12.6783,13.3732 15.8912,18.2089 18.6367,28.0496 4.3526,15.6008 4.9043,23.8478 2.2122,33.0685 -2.7089,9.2781 -12.0476,27.3231 -16.647,32.1668 -2.347,2.4716 -5.7476,6.3458 -7.557,8.6094 -1.8095,2.2636 -5.4095,5.1944 -8,6.5128 -2.5906,1.3184 -8.5352,4.3063 -13.2102,6.6397 -4.675,2.3334 -9.969,5.3415 -11.7645,6.6846 -3.8442,2.8757 -17.075,7.1207 -26.131,8.3838 -3.5175,0.4906 -6.5282,1.0248 -6.6905,1.187 -0.1623,0.1623 1.4467,3.2094 3.5754,6.7712 9.7032,16.2359 11.1912,19.3226 12.6494,26.24 1.9122,9.0709 1.8804,24.3742 -0.07,33.7294 -2.9612,14.2016 -12.442,27.8185 -20.9671,30.1141 -2.2496,0.6058 -5.7624,1.9544 -7.806,2.997 -4.487,2.2891 -13.0922,2.5053 -18.0055,0.4524 -7.5679,-3.1621 -12.6985,-3.0273 -21.8338,0.5734 -7.2694,2.8653 -9.6122,4.4409 -16.6926,11.2263 -15.3955,14.7539 -17.8501,27.5344 -8.766,45.6436 6.2175,12.3948 11.3193,25.5718 15.4728,39.9636 2.2958,7.9549 4.9962,16.2799 6.0009,18.5 3.0834,6.8132 7.8422,24.2819 10.9067,40.0364 2.578,13.2534 2.9989,18.0856 3.6144,41.5 0.7382,28.0792 0.6158,29.1937 -3.9542,36 -1.2925,1.925 -2.6607,5.075 -3.0405,7 -0.8641,4.3795 -10.3886,22.6202 -20.3131,38.902 -7.5001,12.3044 -14.1128,20.2567 -37.6446,45.2701 -5.522,5.8697 -12.065,12.2056 -14.54,14.0798 -11.3007,8.5574 -20.4404,14.0078 -29.5895,17.6456 -20.1628,8.017 -43.5161,20.2283 -45.8226,23.9603 -0.3416,0.5527 -5.6761,3.9237 -11.8545,7.4911 -8.3039,4.7948 -14.0701,7.2982 -22.1107,9.5995 -11.3706,3.2543 -16.9732,5.8378 -45.4306,20.9496 -9.4969,5.0431 -21.8627,10.7785 -27.4796,12.7452 -5.61686,1.9668 -17.1875,6.8567 -25.7125,10.8664 -8.525,4.0098 -19.1,8.4817 -23.5,9.9375 -4.4,1.4559 -12.5,4.4135 -18,6.5724 -5.5,2.1589 -16.3,6.2432 -24,9.0761 -7.7,2.833 -16.475,6.3102 -19.5,7.7271 -3.025,1.417 -5.725,2.6741 -6,2.7935 -0.275,0.1194 -1.0625,-0.01 -1.75,-0.2829 z m 222.3953,-202.8308 c -1.3132,-1.3132 -1.6711,-3.902 -1.7729,-12.8239 -0.07,-6.1482 -0.2526,-12.3036 -0.4054,-13.6786 -0.1528,-1.375 -0.7885,-13.3 -1.4128,-26.5 -2.6461,-55.9547 -3.1195,-66.0364 -4.0384,-86 -0.5316,-11.55 -1.2097,-26.85 -1.5068,-34 -0.2971,-7.15 -0.7514,-17.275 -1.0094,-22.5 -1.1707,-23.7087 -4.8755,-107.1094 -12.4824,-281 -0.5414,-12.375 -1.2278,-27.225 -1.5254,-33 -0.5371,-10.4209 -3.6037,-77.2913 -5.4802,-119.5 -0.5379,-12.1 -1.2116,-26.5 -1.4971,-32 -0.2855,-5.5 -1.2003,-25.525 -2.0327,-44.5 -0.8325,-18.975 -2.1749,-48.9 -2.983,-66.5 -0.8081,-17.6 -1.7118,-38.075 -2.0081,-45.5 -0.2963,-7.425 -0.8058,-17.5022 -1.1322,-22.3938 l -0.5936,-8.8938 -19.9241,0.6912 c -10.9583,0.3801 -20.4679,0.8604 -21.1325,1.0673 -0.6646,0.2069 -8.4083,0.6498 -17.2083,0.9843 -8.8,0.3345 -23.65,1.0352 -33,1.5571 -16.5287,0.9227 -60.71066,2.949 -108.5,4.9762 -12.925,0.5483 -27.55,1.236 -32.5,1.5282 -4.95,0.2922 -29.025,1.4117 -53.5,2.4878 -24.475,1.0761 -49,2.1836 -54.5,2.4612 -31.2165,1.5757 -53.44386,2.6515 -73,3.5334 -12.1,0.5457 -31.45,1.4374 -43,1.9815 -11.55,0.5442 -31.575,1.4508 -44.5,2.0146 -12.925,0.5639 -27.1,1.2548 -31.5,1.5354 -4.4,0.2807 -18.575,0.9559 -31.5,1.5005 -12.925,0.5445 -38.35,1.6611 -56.5,2.4811 -18.15,0.8201 -48.075,2.1704 -66.5,3.0009 -18.425,0.8304 -47,2.1765 -63.5,2.9913 -28.8128,1.4229 -73.22784,3.4218 -122,5.4905 -32.44788,1.3764 -66.95222,3.1428 -67.26313,3.4435 -0.14472,0.14 0.35933,1.7861 1.1201,3.6581 0.76078,1.8719 1.17918,3.966 0.92979,4.6535 -0.67945,1.8731 -3.07099,1.5052 -3.73088,-0.5739 -0.31839,-1.0032 -1.91239,-3.1015 -3.54222,-4.663 -2.23972,-2.1458 -3.85246,-2.8056 -6.60459,-2.7022 -2.00271,0.075 -4.15153,0.5376 -4.77517,1.0273 -0.62365,0.4896 -4.7339,0.7214 -9.1339,0.515 -10.750236,-0.5042 -18.692966,-0.4616 -33,0.1772 -6.6,0.2947 -21.675,0.9684 -33.5,1.4971 -26.6866725,1.1933 -36,1.221 -36,0.107 0,-0.476 6.6375,-1.1943 14.75,-1.5961 8.1125,-0.4019 26.9,-1.397 41.75,-2.2113 14.85,-0.8144 29.662013,-1.5586 32.915585,-1.6539 3.755944,-0.11 6.070268,-0.6361 6.339286,-1.4411 1.522283,-4.5551 6.389039,-5.4683 8.880289,-1.6662 l 1.68126,2.566 14.59179,-0.5897 c 8.02549,-0.3243 17.74179,-0.7963 21.59179,-1.0489 3.85,-0.2526 13.525,-0.7012 21.5,-0.9969 7.975,-0.2956 17.65,-0.7517 21.5,-1.0134 3.85,-0.2617 12.4,-0.7124 19,-1.0015 6.6,-0.2892 20.55,-0.9616 31,-1.4942 10.45,-0.5326 29.125,-1.4251 41.5,-1.9833 26.14992,-1.1794 39.76565,-1.8305 53,-2.5343 5.225,-0.2778 19.85,-0.9555 32.5,-1.5059 12.65,-0.5505 25.925,-1.1953 29.5,-1.4331 3.575,-0.2377 13.7,-0.7029 22.5,-1.0338 8.8,-0.3309 18.25,-0.7825 21,-1.0036 2.75,-0.2212 12.425,-0.668 21.5,-0.9931 9.075,-0.325 18.525,-0.7766 21,-1.0035 2.475,-0.2268 12.375,-0.6707 22,-0.9863 9.625,-0.3155 19.975,-0.7673 23,-1.0039 3.025,-0.2366 12.25,-0.6916 20.5,-1.011 8.25,-0.3195 16.125,-0.7622 17.5,-0.9838 1.375,-0.2216 9.7,-0.6694 18.5,-0.9953 8.8,-0.3258 19.6,-0.7977 24,-1.0486 19.85596,-1.1325 48.84272,-2.579 69.5,-3.4683 12.375,-0.5328 31.725,-1.4165 43,-1.9638 27.45957,-1.3329 39.20024,-1.8864 53.5,-2.5225 6.6,-0.2936 15.6,-0.7472 20,-1.0081 4.4,-0.2609 14.525,-0.7283 22.5,-1.0388 7.975,-0.3104 16.75,-0.744 19.5,-0.9634 2.75,-0.2194 12.425,-0.6654 21.5,-0.991 15.18344,-0.5448 43.09092,-1.7771 69,-3.0469 5.775,-0.283 12.45948,-0.7865 14.85439,-1.119 l 4.35439,-0.6044 -2.85439,-2.2812 c -3.39214,-2.7109 -2.77177,-3.9498 1.21822,-2.4328 4.02643,1.5309 26.71657,3.2385 40.92739,3.0801 19.8122,-0.2207 86.2774,-3.5518 87.0903,-4.3647 0.3328,-0.3328 -1.7143,-52.5621 -5.0658,-129.24302 -0.8414,-19.25 -1.9915,-46.4348 -2.5558,-60.4107 -1.1329,-28.05886 -0.9314,-27.32873 -7.9216,-28.70713 -6.1187,-1.20656 -25.9182,-11.40851 -34.5798,-17.81778 -7.6322,-5.64751 -14.6574,-13.13182 -20.04291,-21.35288 -11.37845,-17.3693 -12.77493,-23.61215 -7.58269,-33.89792 3.25627,-6.45064 7.47738,-11.14529 13.6608,-15.19332 2.2013,-1.44115 6.2403,-5.02537 8.9754,-7.96493 2.7351,-2.93956 6.5589,-6.18586 8.4975,-7.21399 1.9385,-1.02813 6.4496,-5.08457 10.0246,-9.01431 3.575,-3.92973 9.6063,-10.16861 13.4029,-13.86416 l 6.9028,-6.71919 -1.211,-9.42185 c -2.3866,-18.56701 -5.0627,-42.47526 -5.0785,-45.37184 -0.039,-7.19142 1.9917,0.22716 4.367,15.95 l 2.5682,17 -0.2968,-16.5 c -0.3192,-17.75008 0.5309,-25.80472 1.6888,-16 0.3572,3.025 1.1118,15.625 1.6768,28 1.1619,25.44503 1.5605,28.62512 3.6907,29.44256 1.2095,0.46414 1.2697,0.87584 0.2991,2.04536 -2.2106,2.6637 -0.4211,9.76542 5.9248,23.51208 3.4276,7.425 8.4088,18.75971 11.0694,25.18825 4.9625,11.99052 10.5979,21.32415 15.6408,25.90533 1.5702,1.42647 7.805,6.33402 13.855,10.90567 6.05,4.57165 12.6486,9.70453 14.6635,11.40642 10.3435,8.73652 13.0039,10.7519 17.9535,13.60036 2.9606,1.70385 7.6703,4.16057 10.4658,5.45939 6.2326,2.89569 21.1054,12.50934 24.4565,15.80848 4.9963,4.91884 23.5385,17.99722 30.8844,21.7837 21.0385,10.8443 34.9981,21.5294 42.0572,32.1919 3.5039,5.2924 4.0653,6.838 3.6627,10.0831 -0.2615,2.1079 -0.7044,4.0615 -0.9842,4.3413 -0.9458,0.9458 -4.5647,-0.7683 -11.1686,-5.2901 -3.6167,-2.4764 -8.4618,-5.1679 -10.7669,-5.9812 -2.3051,-0.8133 -5.1279,-2.0925 -6.2727,-2.8426 -1.1449,-0.7502 -3.6273,-1.8247 -5.5164,-2.3877 -4.3076,-1.284 -16.1742,-6.2334 -21.6833,-9.044 -2.2945,-1.1706 -4.7897,-2.1283 -5.5448,-2.1283 -2.2139,0 -16.8357,-7.9673 -21.4245,-11.6741 -2.3199,-1.8739 -6.8199,-4.5895 -10,-6.0346 -3.1802,-1.4451 -7.5274,-3.71888 -9.6605,-5.05289 -3.7035,-2.31616 -9.1581,-4.45211 -20.1217,-7.87943 -2.75,-0.85967 -5.4946,-1.96591 -6.0992,-2.4583 -1.8994,-1.547 -11.4854,-3.01467 -22.9008,-3.50624 -6.05,-0.26052 -13.8404,-1.13085 -17.3121,-1.93406 -8.9266,-2.0653 -8.5376,-2.30506 -7.7699,4.78962 1.0109,9.34172 24.5419,197.62922 25.2641,202.15542 l 0.6232,3.9055 24.0974,-0.7548 c 13.2535,-0.4151 26.3473,-0.8846 29.0973,-1.0433 2.75,-0.1587 11.525,-0.5725 19.5,-0.9194 7.975,-0.3469 17.2,-0.8407 20.5,-1.0973 3.3,-0.2566 13.425,-0.7536 22.5,-1.1044 9.075,-0.3508 18.525,-0.7692 21,-0.9297 17.3511,-1.1257 63.8762,-1.6306 65.5193,-0.7111 2.4312,1.3605 -3.3377,2.0239 -24.0193,2.7619 -8.25,0.2944 -18.6,0.7387 -23,0.9873 -4.4,0.2487 -18.8,0.9229 -32,1.4983 -13.2,0.5754 -26.7,1.2478 -30,1.4943 -3.3,0.2465 -16.35,0.9275 -29,1.5133 -46.5058,2.1537 -61.7485,3.0295 -62.6734,3.6012 -0.5258,0.3249 -0.6839,2.8756 -0.3557,5.7389 0.8059,7.031 7.9059,63.8688 11.5739,92.6539 1.6471,12.925 3.4337,27.1 3.9703,31.5 0.5366,4.4 2.1201,16.775 3.5189,27.5 3.5562,27.2654 5.7677,44.5668 10.4649,81.8721 2.2418,17.8047 4.68,33.5547 5.4182,35 0.756,1.4802 1.0316,3.5013 0.6311,4.6279 -0.6535,1.8381 -0.2039,6.5468 2.9121,30.5 0.6082,4.675 3.5933,28.3 6.6335,52.5 3.0402,24.2 7.708,61.325 10.3727,82.5 5.7845,45.9648 6.0246,48.3963 4.9514,50.1329 -1.7372,2.8108 -2.9124,-1.0037 -4.8243,-15.6594 -4.3362,-33.2376 -11.2615,-87.8224 -15.0944,-118.9735 -6.6753,-54.2506 -9.9675,-77.8712 -11.1853,-80.25 -1.0055,-1.964 -1.9883,-2.2673 -7.7329,-2.3858 l -6.581,-0.1358 7,-0.9905 c 3.85,-0.5448 7.1189,-1.0901 7.2641,-1.2117 0.2679,-0.2243 -8.0662,-68.5413 -11.7144,-96.0262 -1.0951,-8.25 -5.8357,-46.05 -10.5348,-84 -4.6991,-37.95 -9.3247,-74.85 -10.2793,-82 l -1.7356,-13 -10,0.3381 c -5.8936,0.1992 -10.5083,0.8248 -11.2377,1.5234 -0.9672,0.9263 -1.0276,5.7706 -0.2763,22.162 0.5288,11.5371 1.4255,31.5515 1.9928,44.4765 0.5673,12.925 1.6915,37.9 2.4984,55.5 0.8068,17.6 1.9334,42.8 2.5036,56 0.5701,13.2 1.4785,31.875 2.0185,41.5 0.5401,9.625 1.4277,25.7417 1.9725,35.815 0.5448,10.0732 1.2505,18.7357 1.5684,19.25 0.3178,0.5142 3.8138,0.9961 7.7688,1.0708 l 7.191,0.1358 -7.3203,0.7678 c -4.0261,0.4223 -7.523,0.9706 -7.7707,1.2183 -0.2478,0.2478 0.2324,13.9036 1.067,30.3464 0.8347,16.4427 3.0912,65.8959 5.0145,109.8959 3.9236,89.7603 7.0167,159.965 8.5253,193.5 0.5567,12.375 1.6789,37.35 2.4938,55.5 0.8149,18.15 1.7068,36.6 1.9821,41 0.2752,4.4 0.9687,18.35 1.5411,31 0.5724,12.65 1.673,32.9 2.4459,45 1.9036,29.8052 2.7696,62.7064 1.6931,64.3239 -0.7138,1.0724 -1.1938,1.0113 -2.5265,-0.3214 z m -14.4518,-855.296 c 0.4134,-0.4134 -0.6025,-11.7665 -2.2574,-25.2291 -1.655,-13.4626 -5.0235,-40.9024 -7.4856,-60.9774 -6.5679,-53.55372 -10.2079,-83.04322 -12.9832,-105.18462 C 1069.1103,903.5901 1068,894.2526 1068,893.66665 c 0,-0.58595 -1.1942,-1.06537 -2.6537,-1.06537 l -2.6538,0 0.7001,19.6767 c 0.3851,10.8222 0.9007,21.9597 1.1458,24.75 0.2451,2.7903 0.9004,17.2233 1.4562,32.0733 0.5558,14.85 1.2483,32.85002 1.5389,40.00002 3.3221,81.7435 4.0767,95.966 5.1903,97.8331 0.5919,0.9922 19.3852,-0.042 20.4697,-1.1266 z m 148.3193,-156.18182 c -3.7041,-7.1628 -20.501,-20.0841 -39.0128,-30.0112 -8.3518,-4.4788 -22.6112,-14.5582 -30.649,-21.66463 -6.3037,-5.57337 -15.8888,-11.65103 -30.351,-19.24489 -6.6,-3.46554 -13.575,-7.75881 -15.5,-9.54059 -4.0676,-3.76498 -16.6246,-13.8753 -30.5076,-24.56339 -11.4594,-8.82224 -16.9166,-16.31178 -23.551,-32.32161 -3.9178,-9.45432 -10.0656,-23.83829 -12.6848,-29.67839 -1.6367,-3.64937 -1.5343,-1.25357 0.6932,16.21175 1.0725,8.40854 3.7864,30.81325 6.0311,49.78825 2.2447,18.975 4.3308,35.31328 4.6358,36.30728 0.3049,0.99401 1.6825,2.23618 3.0613,2.76038 5.1784,1.96884 17.1587,3.92419 26.822,4.37771 5.5,0.25813 12.25,0.90094 15,1.42848 12.3177,2.3629 45.1014,16.89536 54.5,24.15895 1.925,1.4877 5.3,3.6115 7.5,4.7195 2.2,1.1079 5.7826,2.9669 7.9614,4.1311 2.1788,1.1641 4.6605,2.1166 5.5149,2.1166 0.8543,0 3.3467,0.9621 5.5385,2.138 2.1919,1.176 6.2352,2.9455 8.9852,3.9323 13.4361,4.8214 33.6711,14.226 35.5939,16.5429 1.8818,2.2674 2.0612,1.5873 0.4189,-1.5885 z m -174.9594,-67.2747 c -0.4767,-3.55976 -2.6229,-20.74339 -5.2487,-42.02448 -1.2142,-9.84087 -1.3308,-3.3089 -0.3282,18.38685 1.2122,26.23 1.4597,27.88763 4.1642,27.88763 1.7542,0 1.9165,-0.4882 1.4127,-4.25 z m -7.9902,-4.05276 c -0.229,-3.40848 -0.6875,-13.39724 -1.0188,-22.19724 -0.3313,-8.8 -0.8224,-20.275 -1.0914,-25.5 -0.2689,-5.225 -0.9304,-19.175 -1.4699,-31 -0.9254,-20.28011 -2.217,-33.56719 -3.3755,-34.72574 -1.6021,-1.60213 -6.1538,1.7716 -14.4524,10.71223 -5.1397,5.53728 -12.0033,11.87309 -15.2525,14.07958 -3.2492,2.20648 -6.6331,5.119 -7.5198,6.47226 -0.8867,1.35326 -4.6576,4.48511 -8.3799,6.95967 -8.15971,5.42457 -13.33164,10.93772 -14.99834,15.98788 -2.18159,6.61029 -0.8215,10.76645 7.58503,23.17829 8.37241,12.36142 16.35671,20.80267 24.91021,26.33583 13.6305,8.81743 17.185,11 17.9145,11 0.4308,0 2.2927,0.71622 4.1374,1.5916 4.4862,2.12885 11.7688,4.27289 12.6881,3.73545 0.4069,-0.23791 0.5524,-3.22133 0.3233,-6.62981 z m 82.4001,1081.02098 c -6.4999,-5.1527 -8.8569,-16.6489 -5.1374,-25.0576 1.1397,-2.5763 2.77,-4.9521 3.6231,-5.2794 1.9735,-0.7573 1.9647,-2.6805 -0.03,-6.5378 l -1.5809,-3.0572 -1.6232,2.3569 c -2.7181,3.9469 -4.4169,4.6815 -10.0338,4.3387 -2.9478,-0.1799 -5.5942,-0.5615 -5.8807,-0.8481 -0.2865,-0.2865 -1.1785,-3.5838 -1.9821,-7.3273 -0.8036,-3.7435 -1.67,-7.7064 -1.9253,-8.8064 -0.2553,-1.1 -0.7369,-5.0192 -1.0702,-8.7094 -0.6964,-7.71 0.8011,-11.1988 5.1652,-12.033 7.7878,-1.4888 9.7751,11.3317 3.9903,25.7424 -0.5978,1.4894 -0.1102,1.2708 1.91,-0.8561 2.077,-2.1866 3.3934,-2.7562 5.6163,-2.4299 2.3435,0.3439 2.9605,0.027 3.1994,-1.6439 0.2171,-1.5181 1.1481,-2.1526 3.4915,-2.3794 2.9514,-0.2857 3.2696,-0.018 4.1655,3.5 0.5336,2.0951 0.9467,5.6255 0.9182,7.8453 -0.046,3.5664 0.7848,5.863 4.1465,11.464 1.7033,2.8378 4.923,19.504 4.3896,22.722 -1.0529,6.3518 -7.3046,10.2047 -11.352,6.9962 z m 6.6476,-6.4576 c 0.7776,-4.1452 -0.5449,-11.7886 -3.0836,-17.8214 -1.5697,-3.7301 -1.7332,-3.8371 -3.0798,-2.0155 -3.2808,4.4383 -3.0011,14.4925 0.5665,20.3589 2.6341,4.3315 4.7229,4.1367 5.5969,-0.522 z M 1132,1918.6013 c 0,-1.1 -0.45,-2 -1,-2 -0.55,0 -1,0.9 -1,2 0,1.1 0.45,2 1,2 0.55,0 1,-0.9 1,-2 z m -8.0451,-20.1682 c 0.053,-5.4885 -0.6802,-7.8318 -2.4506,-7.8318 -1.9099,0 -2.6591,5.911 -1.5142,11.9478 0.5554,2.9288 1.0464,5.6013 1.0911,5.9387 0.324,2.4474 2.8379,-6.3484 2.8737,-10.0547 z m -15.9755,-527.3859 c -2.1071,-5.5423 -2.3698,-17.1004 -0.542,-23.8529 2.7237,-10.0618 7.8799,-13.7477 10.9438,-7.8228 3.1587,6.1084 4.7166,23.2121 2.6172,28.734 -0.7451,1.9597 -1.5776,2.5466 -3.25,2.2914 -1.4187,-0.2165 -2.0937,-0.8878 -1.8291,-1.8193 0.2306,-0.812 0.619,-3.2018 0.8631,-5.3107 0.4118,-3.5581 0.2735,-3.8103 -1.9193,-3.5 -2.2063,0.3122 -2.3631,0.7638 -2.3631,6.8081 0,5.3616 -0.3002,6.5337 -1.7471,6.8228 -1.1534,0.2304 -2.0959,-0.5684 -2.7735,-2.3506 z m 8.3442,-15.1959 c 0.551,-0.9355 -0.968,-12.2277 -1.75,-13.0097 -0.3155,-0.3155 -0.7954,-0.3518 -1.0665,-0.081 -0.9458,0.9458 -2.4471,10.8331 -1.8724,12.3308 0.5969,1.5556 3.9046,2.0914 4.6889,0.7596 z M 74.491614,1230.1154 c -3.214863,-1.4134 -5.823238,-3.9816 -6.770713,-6.6663 -1.089183,-3.0863 0.565374,-2.8219 4.481479,0.7161 2.147747,1.9403 5.005834,4.0295 6.351307,4.6425 1.345472,0.6131 2.446313,1.4924 2.446313,1.9541 0,1.1957 -2.995417,0.8982 -6.508386,-0.6464 z m 25.939136,-0.6261 c -0.30663,-0.4962 0.0335,-1.0679 0.75587,-1.2705 0.72236,-0.2026 4.79766,-1.4026 9.05623,-2.6667 8.93612,-2.6526 11.05339,-2.1849 3.94736,0.872 -6.35785,2.7351 -13.04305,4.2243 -13.75946,3.0652 z m 31.07194,-16.4914 c 3.0855,-8.1974 3.51137,-8.7299 3.44928,-4.3133 -0.0542,3.8564 -2.79857,10.0591 -4.72801,10.6861 -0.84512,0.2746 -0.41328,-1.8775 1.27873,-6.3728 z m -71.333655,-5.1466 c -1.95338,-5.0035 -1.865499,-16.7688 0.130977,-17.5349 1.011134,-0.388 1.324632,1.8104 1.410807,9.893 0.06094,5.7156 -0.01947,10.3919 -0.178692,10.3919 -0.159217,0 -0.772609,-1.2375 -1.363092,-2.75 z m 74.330365,-22.5 c 0.77536,-8.0032 1.75723,-10.0075 3.39933,-6.9392 1.12596,2.1039 0.68208,6.7015 -1.1044,11.4392 -1.94427,5.1561 -3.0251,3.0368 -2.29493,-4.5 z m -71.441794,-10.0497 c -0.07447,-3.619 2.207928,-7.9774 5.557273,-10.612 3.562357,-2.8022 5.616496,-2.6165 2.186755,0.1977 -1.484101,1.2177 -3.820679,4.689 -5.192394,7.714 -2.129034,4.6951 -2.502459,5.0903 -2.551634,2.7003 z M 1335.1757,1141.2649 c -2.8466,-5.6851 -5.174,-11.4226 -5.172,-12.75 0.01,-5.5963 7.5234,-13.0089 12.9963,-12.8197 2.2579,0.078 2.1951,0.1748 -0.6484,0.9986 -4.3448,1.2586 -9.3516,7.1701 -9.3516,11.0412 0,3.7698 2.7755,9.8663 4.4918,9.8663 0.6952,0 2.9425,-0.7014 4.9942,-1.5586 4.7489,-1.9842 5.7824,-1.139 1.3569,1.1098 -5.7794,2.9369 -5.8825,3.1479 -3.7892,7.7585 1.0463,2.3047 1.9123,4.7528 1.9243,5.4403 0.057,3.219 -2.0491,0.4062 -6.8023,-9.0864 z m 24.9123,3.0864 c -5.9858,-15.4966 -6.3856,-16.8524 -5.2915,-17.9465 0.8506,-0.8506 1.2961,-0.6538 1.7645,0.7793 2.2889,7.0043 2.6217,7.4172 5.9797,7.4172 3.2252,0 3.2797,-0.072 2.4647,-3.25 -1.5809,-6.1654 -2.1668,-14.5322 -1.0654,-15.2129 0.5962,-0.3685 1.0663,0.1365 1.0744,1.1539 0.023,2.8193 4.4773,19.3882 6.3258,23.5278 1.3823,3.0957 1.4169,3.6252 0.2063,3.1607 -0.7999,-0.307 -2.3599,-2.0929 -3.4667,-3.9688 -1.4886,-2.5231 -2.7053,-3.4107 -4.6749,-3.4107 -2.6168,0 -2.6512,0.086 -1.9993,5 0.702,5.2919 0.1275,6.4911 -1.3176,2.75 z M 111.47251,1139.339 c -1.08488,-0.6943 -3.50326,-1.2423 -5.37418,-1.2177 -3.04629,0.04 -3.77507,-0.5333 -6.97587,-5.4877 -10.658976,-16.4984 -11.707741,-23.9583 -3.791394,-26.9681 3.890152,-1.479 8.355654,-0.2252 11.188514,3.1414 3.0622,3.6393 3.22829,8.4081 0.48042,13.7944 -1.85423,3.6346 -2.71886,9 -1.45034,9 0.30231,0 1.95055,-0.7244 3.66275,-1.6098 3.41234,-1.7646 9.82952,-1.4302 12.32681,0.6423 0.80343,0.6668 1.46078,2.4818 1.46078,4.0332 0,4.9335 -6.80766,7.6925 -11.52749,4.672 z m 6.85215,-3.3957 c 1.02715,-1.0271 -1.3605,-3.342 -3.4471,-3.342 -2.15397,0 -2.41185,1.0657 -0.67756,2.8 1.32366,1.3237 3.10847,1.5582 4.12466,0.542 z m -14.85034,-15.2923 c 2.73391,-5.2868 1.82866,-9.3245 -2.60453,-11.617 -4.146002,-2.144 -7.309083,-0.3792 -6.507124,3.6306 0.680168,3.4009 5.244522,10.9367 6.624194,10.9367 0.52898,0 1.64834,-1.3277 2.48746,-2.9503 z m 816.83122,-19.06 c -6.45451,-3.6864 -14.5026,-13.1318 -12.33205,-14.4733 1.00167,-0.6191 18.67648,16.167 17.87104,16.9724 -0.23255,0.2326 -2.7251,-0.8921 -5.53899,-2.4991 z m 44.44446,-0.07 c -1.29655,-0.7552 -1.75,-2.3118 -1.75,-6.0074 0,-4.7996 -0.10001,-4.9773 -2.64511,-4.7003 -3.7812,0.4114 -4.0285,-1.8125 -0.40964,-3.6839 4.79703,-2.4806 7.05475,-0.7342 7.05475,5.4572 0,7.6608 4.6185,8.5902 11.25,2.2638 3.23332,-3.0846 3.66699,-1.6848 0.6617,2.1358 -3.82535,4.8632 -10.13116,6.8824 -14.1617,4.5348 z m -21.52194,-6.9221 c -3.59162,-3.3461 -4.70092,-8.9093 -3.37611,-16.9314 1.47905,-8.9559 2.75665,-11.6616 6.17508,-13.0776 2.22805,-0.9229 3.36915,-0.8353 5.85335,0.4493 4.31907,2.2335 6.12365,6.3064 6.09766,13.7622 -0.0459,13.1777 -8.19445,21.9049 -14.74998,15.7975 z m 8.62021,-4.7478 c 4.17277,-8.2841 3.20259,-18.2551 -2.06292,-21.2016 -3.93322,-2.201 -5.00623,-0.5241 -5.43243,8.4899 -0.28304,5.9862 0.0625,8.6124 1.58638,12.0574 1.07153,2.4224 2.4144,4.4043 2.98415,4.4043 0.56974,0 1.88591,-1.6875 2.92482,-3.75 z M 893.51901,1073.452 C 888.40863,1067.0826 882,1056.4711 882,1054.3789 c 0,-0.4277 0.66585,-0.7776 1.47968,-0.7776 0.81382,0 2.45521,1.9125 3.64754,4.25 1.19233,2.3375 4.29785,7.4 6.90115,11.25 4.27438,6.3213 6.82607,11.5 5.66641,11.5 -0.242,0 -3.02109,-3.2171 -6.17577,-7.1491 z m -21.148,-44.6009 c -0.83981,-2.0625 -2.81427,-6.675 -4.38767,-10.25 -3.86183,-8.7746 -4.2024,-10.2936 -3.01068,-13.4281 1.25522,-3.3015 3.02734,-2.4795 3.02734,1.4042 0,1.572 0.94866,5.0329 2.10813,7.691 3.49379,8.0095 5.95941,18.3329 4.3786,18.3329 -0.32383,0 -1.2759,-1.6875 -2.11572,-3.75 z M 1255.75,1017.8434 c -0.9625,-0.2138 -1.75,-1.0461 -1.75,-1.8496 0,-1.6964 5.1585,-1.417 5.7344,0.3106 0.4269,1.2807 -1.6084,2.0669 -3.9844,1.539 z M 859.3101,988.37548 c -1.94807,-2.5461 -3.38038,-7.5013 -5.42668,-18.7742 -2.47675,-13.6442 -2.74342,-17.1856 -1.33074,-17.6724 1.31647,-0.4536 4.08032,10.4639 5.48651,21.6724 0.58651,4.675 1.48043,10.0497 1.98649,11.9438 1.01621,3.8034 0.771,4.7733 -0.71558,2.8304 z m -10.66849,-52.614 c -1.10759,-6.9265 -1.93537,-23.85362 -1.29188,-26.41748 0.34815,-1.38717 1.19939,-2.7351 1.89164,-2.99542 0.9715,-0.36533 1.33091,3.23665 1.57547,15.7894 0.18443,9.4662 -0.0768,16.5059 -0.62509,16.8448 -0.51807,0.3202 -1.21563,-1.1294 -1.55014,-3.2213 z M 848.75,892.02431 c -2.59444,-2.61645 1.83888,-24.34022 5.78834,-28.36351 2.46692,-2.51304 2.44027,-0.68445 -0.0917,6.29108 -1.35301,3.72751 -3.0195,10.38888 -3.70332,14.80304 -0.68381,4.41416 -1.5808,7.68538 -1.9933,7.26939 z m 11.05366,-41.66978 c -0.39783,-2.08111 1.02261,-10.93993 4.24958,-26.50325 0.63126,-3.04452 1.62832,-5.25 2.37343,-5.25 1.04506,0 1.04216,1.35313 -0.0155,7.25 -1.71289,9.54954 -5.30362,25.97583 -5.78303,26.45524 -0.20837,0.20838 -0.57936,-0.67002 -0.82443,-1.95199 z m 13.63678,-48.1698 c 0.55417,-4.44873 11.42003,-26.85995 13.27714,-27.38455 1.02288,-0.28895 -1.49007,5.46556 -12.57722,28.8011 -1.09545,2.30563 -1.14987,2.1955 -0.69992,-1.41655 z m 20.59388,-44.70313 c 0.979,-3.41355 13.59298,-20.52332 15.7372,-21.34614 1.76968,-0.67909 1.11773,0.3497 -6.31538,9.96582 -3.40114,4.4 -6.9317,9.4625 -7.84569,11.25 -2.09803,4.10311 -2.73051,4.15541 -1.57613,0.13032 z m 171.37778,-14.63032 c -0.3442,-1.5125 -1.492,-6.25547 -2.5505,-10.53994 -1.6873,-6.82968 -1.7446,-7.96992 -0.4645,-9.25 2.6339,-2.63396 5.6099,-1.64038 10.6029,3.53994 2.6505,2.75 5.2617,5 5.8026,5 1.7059,0 2.1974,-2.87903 2.1974,-12.87035 0,-7.60102 -0.4169,-10.52456 -1.9219,-13.47649 -1.6416,-3.2198 -1.6935,-3.72476 -0.356,-3.46145 0.8613,0.16956 2.5136,1.57703 3.6719,3.12771 1.8112,2.42476 2.1529,4.49584 2.4408,14.79538 0.2328,8.32678 -0.033,12.41919 -0.8725,13.43058 -2.1692,2.61378 -6.6631,1.71973 -10.9858,-2.18562 -2.2162,-2.00213 -4.2746,-3.39494 -4.5745,-3.09514 -0.2998,0.2998 -0.1479,3.95792 0.3376,8.12916 0.5771,4.95967 0.5327,7.93394 -0.1285,8.59514 -1.6532,1.65314 -2.5361,1.17318 -3.199,-1.73892 z M 932,714.85855 c 2.475,-2.0665 6.76036,-6.09207 9.52301,-8.94572 4.83846,-4.99781 10.47699,-8.38126 10.47699,-6.2868 0,0.53639 -0.80471,0.97525 -1.78824,0.97525 -0.98353,0 -3.44244,1.97896 -5.46426,4.3977 -2.02181,2.41873 -6.7296,6.47201 -10.46176,9.00727 -6.06079,4.11711 -6.30499,4.20817 -2.28574,0.8523 z M 412,657.60128 c 0,-0.55 0.19844,-1 0.44098,-1 0.24254,0 0.7191,0.45 1.05902,1 0.33992,0.55 0.14148,1 -0.44098,1 -0.58246,0 -1.05902,-0.45 -1.05902,-1 z m 933.1949,-348.5 c -0.02,-1.65 0.1871,-2.44606 0.461,-1.76903 0.274,0.67703 0.2906,2.02703 0.037,3 -0.2536,0.97297 -0.4777,0.41903 -0.4981,-1.23097 z m 5.8051,-180.5 c 0,-0.55 0.1984,-1 0.441,-1 0.2425,0 0.7191,0.45 1.059,1 0.3399,0.55 0.1415,1 -0.441,1 -0.5824,0 -1.059,-0.45 -1.059,-1 z"
     id="path3193"
     style="fill:#000000" />
</svg>
