<?xml version="1.0" encoding="UTF-8" standalone="no"?>
<!-- Created with Inkscape (http://www.inkscape.org/) -->

<svg
   xmlns:dc="http://purl.org/dc/elements/1.1/"
   xmlns:cc="http://creativecommons.org/ns#"
   xmlns:rdf="http://www.w3.org/1999/02/22-rdf-syntax-ns#"
   xmlns:svg="http://www.w3.org/2000/svg"
   xmlns="http://www.w3.org/2000/svg"
   version="1.1"
   width="1593.5758"
   height="1617.4875"
   id="svg3027">
  <metadata
     id="metadata3033">
    <rdf:RDF>
      <cc:Work
         rdf:about="">
        <dc:format>image/svg+xml</dc:format>
        <dc:type
           rdf:resource="http://purl.org/dc/dcmitype/StillImage" />
        <dc:title></dc:title>
      </cc:Work>
    </rdf:RDF>
  </metadata>
  <defs
     id="defs3031" />
  <path
     d="m 1141.5,1617.0114 c -20.6454,-1.5369 -31.9977,-2.8211 -34.9061,-3.9486 -1.5984,-0.6196 -8.302,-2.4611 -14.8968,-4.0921 -6.5949,-1.631 -16.0871,-4.2735 -21.0939,-5.8722 -5.0068,-1.5987 -14.5032,-3.867 -21.1032,-5.0408 -6.6,-1.1737 -15.375,-2.7728 -19.5,-3.5535 -4.125,-0.7807 -10.0389,-1.4373 -13.1419,-1.4591 -3.1031,-0.022 -10.0781,-0.9037 -15.5,-1.9598 -5.42197,-1.056 -14.5831,-2.4415 -20.3581,-3.0788 -5.775,-0.6373 -15.57761,-2.2532 -21.78358,-3.5909 -6.20597,-1.3376 -15.65597,-2.8679 -21,-3.4007 -9.49047,-0.9461 -28.24695,-3.3909 -51.06973,-6.6566 -7.97608,-1.1413 -14.37162,-1.4339 -21.5,-0.9835 -11.58033,0.7316 -11.39818,-0.614 0.32943,-2.4336 7.6465,-1.1864 6.09444,-1.3378 52.02388,5.0728 7.425,1.0363 16.875,2.1735 21,2.527 4.125,0.3535 12.584,1.7245 18.79778,3.0466 6.21378,1.3221 16.74809,3.0786 23.40958,3.9033 6.66149,0.8247 15.51198,2.2018 19.66774,3.0602 4.1558,0.8584 12.9715,1.9645 19.5905,2.4579 6.6189,0.4935 13.6094,1.3918 15.5344,1.9964 1.925,0.6046 8.45,1.956 14.5,3.0032 6.05,1.0472 15.5,3.3093 21,5.0269 10.0077,3.1253 25.2874,7.3323 37.5,10.3249 17.5883,4.3099 61.9078,5.2774 80,1.7465 12.7203,-2.4826 27.1048,-6.2477 32.4024,-8.4814 2.1463,-0.905 7.5233,-2.5466 11.9489,-3.6481 4.4256,-1.1014 8.9695,-2.6073 10.0976,-3.3463 1.1281,-0.7391 5.4531,-2.4863 9.6112,-3.8827 7.1065,-2.3867 11.7017,-4.7524 34.7935,-17.9124 10.9231,-6.2251 19.2483,-12.4275 22.9879,-17.1263 6.1085,-7.6754 24.9759,-26.9859 36.8392,-37.7043 17.3346,-15.6616 19.5683,-18.0932 26.0323,-28.3375 11.0731,-17.5491 22.9938,-50.14 27.2294,-74.4446 2.7271,-15.6484 3.1826,-25.647 3.5177,-77.2179 0.2377,-36.5624 0.6289,-48.2097 1.8306,-54.5 0.8405,-4.4 2.2865,-14.075 3.2133,-21.5 4.8939,-39.2078 10.5561,-52.27 38.7452,-89.3813 4.812,-6.3351 9.357,-11.8785 10.0999,-12.3185 1.8888,-1.119 14.2587,-16.6411 16.1017,-20.205 4.6762,-9.0428 6.9244,-20.5635 6.2833,-32.1977 -0.8812,-15.9934 -5.8559,-24.0955 -20.9202,-34.0722 -11.3163,-7.4945 -16.6584,-10.8253 -17.3623,-10.8253 -0.3252,0 -2.6103,-1.3891 -5.078,-3.087 -5.5458,-3.8156 -5.4997,-6.147 0.1395,-7.0549 6.2656,-1.0088 16.65,-5.7489 20.4869,-9.3515 1.925,-1.8074 5.075,-4.0763 7,-5.042 1.925,-0.9657 4.9202,-2.9278 6.656,-4.3602 4.4567,-3.6778 14.3378,-15.701 17.7629,-21.6139 1.59,-2.7448 4.2837,-6.7708 5.986,-8.9467 7.448,-9.52005 11.808,-17.94992 13.3857,-25.88052 1.5038,-7.55909 1.4815,-8.10036 -0.6306,-15.27941 -3.9057,-13.27541 -14.0993,-31.40596 -24.2046,-43.05064 -2.3241,-2.67809 -5.0246,-7.71459 -10.0984,-18.83325 -4.2211,-9.25023 -8.048,-23.31003 -9.3904,-34.5 -0.8248,-6.875 -1.9358,-14.75 -2.469,-17.5 -0.5342,-2.75526 -0.7678,-14.42789 -0.5205,-26 0.6715,-31.41497 1.6831,-33.71439 25.0229,-56.87875 5.5,-5.45867 12.5328,-11.99404 15.6284,-14.52305 3.0956,-2.52901 7.7201,-7.17003 10.2766,-10.31339 2.5565,-3.14335 5.2922,-6.07561 6.0794,-6.51613 0.7871,-0.44052 3.8127,-3.06684 6.7234,-5.83626 2.9107,-2.76942 10.0172,-8.83342 15.7922,-13.47555 12.6767,-10.18992 14.3204,-11.77434 20.1847,-19.45687 13.9602,-18.28831 23.4392,-43.8311 25.235,-68 0.2861,-3.85 1.0145,-9.63104 1.6188,-12.84676 0.8035,-4.27622 0.792,-10.45439 -0.043,-23 -1.4696,-22.07939 -4.9919,-38.11695 -11.3447,-51.65324 -3.2052,-6.82954 -15.2872,-23.81535 -23.3279,-32.79613 -3.3229,-3.7114 -9.7917,-11.45523 -14.3752,-17.20852 -4.5834,-5.75329 -10.8342,-13.21225 -13.8906,-16.57547 -8.2897,-9.12188 -13.369,-15.3544 -17.9313,-22.0025 -2.2533,-3.2836 -5.5705,-7.5333 -7.3714,-9.44378 -4.726,-5.01361 -18.0174,-24.74059 -23.4374,-34.78552 -1.2796,-2.37156 -4.2369,-7.02672 -6.5718,-10.34481 -2.3349,-3.31808 -5.1688,-7.54987 -6.2978,-9.40396 -2.4303,-3.99163 -11.738,-16.10634 -19.4474,-25.31253 -3.025,-3.6123 -8.65,-10.71406 -12.5,-15.78169 -17.8268,-23.46485 -40.1023,-49.90028 -53.4888,-63.47782 -12.5117,-12.69033 -41.154,-43.54014 -46.1678,-49.72609 -2.3889,-2.94735 -6.3684,-7.76293 -8.8434,-10.70128 -7.7865,-9.24416 -8.9292,-11.03888 -16.3381,-25.65927 -5.4215,-10.69852 -7.9775,-17.16525 -10.1898,-25.78063 -2.8363,-11.04485 -2.9491,-12.33115 -2.8504,-32.5 0.3422,-69.918801 0.4564,-73.651788 2.5689,-83.999996 1.4981,-7.338595 2.0991,-14.524389 2.2581,-27 0.4035,-31.6581901 0.3076,-30.50000017 2.5264,-30.50000017 1.9239,0 1.9651,0.64098213 1.5904,24.75000017 -0.287,18.471667 -0.8137,26.652525 -2.0762,32.25 -1.3035,5.77892 -1.8061,14.384321 -2.19,37.5 -1.0808,65.083286 -0.9083,68.395216 4.4238,84.922456 2.7622,8.56139 13.3267,29.91319 17.9336,36.24536 4.9293,6.77515 28.2486,33.71971 32.7421,37.83218 1.2019,1.1 6.8913,7.15571 12.6432,13.45713 5.7519,6.30142 11.808,12.60142 13.458,14 1.65,1.39858 4.575,4.31013 6.5,6.47012 1.925,2.15999 4.175,4.6484 5,5.52979 6.6595,7.1147 16.6578,18.97732 21.9502,26.04296 3.5017,4.675 8.0359,10.3 10.076,12.5 2.0402,2.2 6.1314,7.19895 9.0916,11.10878 2.9602,3.90983 10.5531,13.53459 16.8731,21.38837 13.4586,16.72485 20.3739,26.401 29.6607,41.50285 3.7204,6.05 8.1903,13.025 9.9329,15.5 1.7427,2.475 3.9207,5.98187 4.84,7.79305 0.9192,1.81117 4.1981,6.27154 7.2864,9.91193 3.0882,3.64039 7.6791,9.65147 10.202,13.35795 2.5229,3.70648 9.1671,11.84611 14.765,18.08807 5.5978,6.24195 12.4157,14.274 15.1508,17.849 2.7351,3.575 7.2578,9.2 10.0505,12.5 15.7367,18.59538 28.9609,37.04895 29.7101,41.45848 0.3309,1.94783 2.3155,8.94152 4.4102,15.54152 4.7494,14.96423 5.6438,19.62331 7.0071,36.5 0.5997,7.425 1.2683,14.03335 1.4857,14.68523 0.3713,1.11343 -0.4158,7.44656 -3.9817,32.04009 -3.0594,21.09942 -13.0062,44.75399 -25.4618,60.55072 -3.2827,4.16332 -9.8024,10.56405 -14.6334,14.36635 -15.0006,11.80634 -26.9369,22.54349 -36.5879,32.91203 -2.0199,2.17007 -9.1285,8.89558 -15.797,14.94558 -15.0997,13.69941 -25.6486,26.07182 -28.9888,34 -2.1943,5.20831 -2.5725,7.77524 -2.866,19.45406 -0.6535,25.99595 3.1914,56.28832 9.4134,74.16348 5.0334,14.4608 9.467,22.75926 18.9245,35.42199 12.1062,16.20923 17.1405,27.00034 19.3931,41.57004 1.7323,11.20408 0.2748,18.72337 -5.5381,28.57169 -2.5382,4.30036 -5.8565,9.39376 -7.374,11.31876 -1.5175,1.925 -4.2746,6.0592 -6.1268,9.1872 -6.0615,10.236 -17.2899,22.387 -24.6704,26.6975 -3.6901,2.1551 -7.6066,4.9199 -8.7033,6.144 -1.0968,1.2241 -5.2566,3.7178 -9.2441,5.5415 -3.9875,1.8238 -7.25,3.8089 -7.25,4.4114 0,0.6024 2.0492,2.3155 4.5538,3.8069 28.378,16.8975 35.2888,24.9104 37.5827,43.576 1.004,8.1699 0.9275,10.6913 -0.5499,18.1308 -1.7776,8.9503 -4.7894,17.2676 -6.882,19.0047 -0.6625,0.55 -4.0878,4.825 -7.6117,9.5 -3.524,4.675 -8.2893,10.525 -10.5897,13 -9.4654,10.1838 -27.3095,36.2048 -32.3601,47.1889 -7.6387,16.6125 -9.9364,25.6635 -13.1227,51.6929 -1.1029,9.01 -2.7398,20.26 -3.6376,25 -1.2767,6.7404 -1.5122,12.2134 -1.0809,25.1182 0.3034,9.075 0.157,33.375 -0.3252,54 -0.8407,35.9611 -0.998,38.0745 -3.8315,51.5 -5.1726,24.5076 -16.3696,55.3048 -25.3796,69.8066 -7.8929,12.7038 -11.174,16.6466 -23.0138,27.6552 -15.3082,14.2334 -32.5958,31.8742 -40.7536,41.586 -3.9414,4.6922 -9.2072,9.6212 -12.6291,11.8213 -11.1793,7.1875 -17.8998,11.2723 -24.5651,14.931 -3.6829,2.0215 -8.8579,5.0491 -11.5,6.7279 -2.6422,1.6789 -7.279,3.7669 -10.304,4.6402 -3.025,0.8733 -7.6225,2.6552 -10.2168,3.9598 -5.5969,2.8147 -5.7832,2.8391 -5.7832,0.7585 0,-1.3565 -0.7568,-1.5021 -4.75,-0.9139 -2.6125,0.3848 -7.225,1.584 -10.25,2.6647 -13.9143,4.9713 -27.2628,8.5767 -38,10.2636 -12.2559,1.9255 -33.5359,2.6446 -47.5,1.6051 z m 199.5,-27.006 c 0,-0.55 0.45,-1 1,-1 0.55,0 1,0.45 1,1 0,0.55 -0.45,1 -1,1 -0.55,0 -1,-0.45 -1,-1 z m -93.0433,-66 c -0.068,-0.825 -0.2534,-2.625 -0.4122,-4 -0.3884,-3.3607 -1.4287,-38.7591 -2.0427,-69.5 -0.2746,-13.75 -0.722,-33.325 -0.9941,-43.5 -0.2721,-10.175 -0.7292,-31.325 -1.0158,-47 -0.2866,-15.675 -0.7362,-35.25 -0.9991,-43.5 -0.4664,-14.6335 -0.9054,-34.4687 -2.0031,-90.5 -0.2963,-15.125 -0.9765,-45.275 -1.5114,-67 -0.9696,-39.3759 -2.4487,-105.704 -3.4788,-156 -0.2985,-14.57502 -0.7502,-33.25002 -1.0038,-41.50002 -0.2536,-8.25 -0.7164,-26.925 -1.0285,-41.5 -0.3122,-14.575 -0.7507,-32.35 -0.9746,-39.5 -0.2238,-7.15 -0.6994,-25.15 -1.0568,-40 -0.3793,-15.76103 -1.0724,-27.52032 -1.6652,-28.25 -0.7062,-0.86931 -0.6512,-1.25 0.1808,-1.25 0.9062,0 1.0615,-4.668 0.6406,-19.25 -0.3057,-10.5875 -0.8073,-30.5 -1.1147,-44.25 -0.3075,-13.75 -0.7544,-30.625 -0.9932,-37.5 -0.2388,-6.875 -0.6954,-29.375 -1.0148,-50 -0.3193,-20.625 -0.7431,-40.2 -0.9417,-43.5 -0.1985,-3.3 -0.6415,-22.425 -0.9843,-42.5 -0.5426,-31.77495 -1.1494,-46.9394 -1.9086,-47.69865 -0.2768,-0.27675 -61.7953,3.67807 -88.6347,5.69801 -6.875,0.51742 -20.375,1.42421 -30,2.01509 -9.625,0.59088 -19.075,1.2547 -21,1.47515 -1.925,0.22044 -8.675,0.68993 -15,1.0433 -21.6654,1.21043 -28.9544,2.11588 -30.8511,3.83239 -2.2654,2.05007 -4.0882,2.06599 -6.9511,0.0607 -1.3678,-0.95802 -3.3138,-1.35992 -4.9725,-1.02694 -1.4989,0.3009 -11.0503,1.00805 -21.2253,1.57145 -24.35962,1.34881 -32.8964,1.88808 -48.5,3.06377 -7.15,0.53874 -26.05,1.86688 -42,2.95143 -15.95,1.08454 -32.6,2.22241 -37,2.52859 -13.66907,0.95117 -35.98774,2.3857 -61.5,3.9529 -13.475,0.82776 -26.3,1.77634 -28.5,2.10795 -2.2,0.3316 -11.65,0.98305 -21,1.44765 -23.74166,1.17973 -64.69992,3.72032 -79,4.90027 -6.6,0.54459 -16.05,1.24207 -21,1.54995 -20.65672,1.28483 -71.43074,4.69114 -90.5,6.07144 -11.275,0.81612 -27.925,1.92665 -37,2.46784 -9.075,0.5412 -22.125,1.42172 -29,1.95672 -6.875,0.535 -23.525,1.65432 -37,2.48737 -13.475,0.83305 -27.875,1.74442 -32,2.02526 -4.125,0.28085 -17.85,1.19189 -30.5,2.02455 -12.65,0.83266 -32.225,2.17826 -43.5,2.99024 -11.275,0.81198 -27.25,1.92101 -35.5,2.46451 -38.7771,2.55461 -63.63665,4.23321 -82,5.53694 -11,0.78096 -25.175,1.67717 -31.5,1.99159 -6.325,0.31442 -13.975,0.77998 -17,1.03457 -4.59892,0.38705 -19.87901,1.32155 -65,3.97526 -20.13116,1.18397 -26,1.8005 -26,2.73131 0,0.66619 -2.50405,0.85897 -6.98902,0.53807 -5.177075,-0.37041 -7.282865,-0.14599 -8.122444,0.86564 -1.323161,1.5943 -4.496125,1.80963 -5.388536,0.36568 -0.933564,-1.51054 -4.632249,-1.19854 -5.889757,0.49682 -0.610634,0.82325 -3.810243,2.8201 -7.110243,4.43745 -6.942953,3.40277 -8.657002,2.27316 -3.398198,-2.23951 L 76.5,602.78408 59,603.45696 c -9.625,0.37009 -19.75,0.86972 -22.5,1.11031 -7.660024,0.67013 -32.7773273,2.42946 -34.75,2.43404 -0.9625,0.002 -1.75,-0.62526 -1.75,-1.39444 0,-1.67751 2.0852154,-1.89404 44.5,-4.62085 39.879513,-2.56382 42.376648,-2.82096 46.195587,-4.7569 2.726678,-1.38224 3.561092,-1.42433 5.686481,-0.28686 2.685728,1.43736 6.655822,1.31712 47.117932,-1.42704 11.55,-0.78332 32.25,-2.13784 46,-3.01003 13.75,-0.8722 34.45,-2.24097 46,-3.04172 25.73668,-1.7843 87.9212,-5.93959 119,-7.95181 12.65,-0.81903 26.375,-1.72733 30.5,-2.01844 20.95643,-1.47894 79.50661,-5.52721 86.5,-5.98078 4.4,-0.28536 17.675,-1.18898 29.5,-2.00802 11.825,-0.81905 32.075,-2.19149 45,-3.04988 12.925,-0.85838 32.725,-2.1888 44,-2.95648 11.275,-0.76768 31.075,-2.09498 44,-2.94956 24.12896,-1.59537 49.89374,-3.37013 88.5,-6.09616 12.1,-0.8544 30.1,-1.96178 40,-2.46085 9.9,-0.49908 20.025,-1.16423 22.5,-1.47812 4.77662,-0.6058 34.25268,-2.62753 73,-5.00699 12.925,-0.79373 29.575,-1.89969 37,-2.45771 7.425,-0.55801 21.15,-1.48421 30.5,-2.05821 9.35,-0.574 23.075,-1.46472 30.5,-1.97938 7.425,-0.51466 17.775,-1.1942 23,-1.51008 5.225,-0.31589 14.15964,-1.07363 19.85475,-1.68388 l 10.35475,-1.10954 -4.8547,-2.11434 c -12.98109,-5.65351 -12.08845,-7.59619 1.3756,-2.99382 5.3733,1.83675 12.3562,3.64133 15.5176,4.01019 5.3975,0.62976 5.8744,0.50985 7.8225,-1.96679 2.5749,-3.27343 7.3368,-3.61337 8.9295,-0.63744 0.5887,1.1 2.067,1.99345 3.2852,1.98545 2.7042,-0.0178 9.5303,-2.3405 14.8419,-5.05027 2.1675,-1.10582 5.1632,-2.44419 6.657,-2.97415 2.4185,-0.85806 2.2779,-0.57127 -1.2841,2.61917 l -4,3.58274 14.5,-0.62045 c 7.975,-0.34124 20.35,-1.04202 27.5,-1.55729 7.15,-0.51526 20.875,-1.42399 30.5,-2.0194 9.625,-0.5954 19.075,-1.24368 21,-1.44061 3.9797,-0.40712 15.5072,-1.24154 28,-2.02678 14.096,-0.88602 36.2175,-2.58532 40.8917,-3.14118 l 4.3916,-0.52226 -0.6556,-35.16749 c -0.3606,-19.34211 -0.8708,-45.29248 -1.1337,-57.66748 -0.5149,-24.23925 -1.1274,-59.05691 -2.111,-120 -0.3418,-21.175 -0.9766,-39.18103 -1.4108,-40.0134 -0.4341,-0.83238 -4.768,-2.78873 -9.6308,-4.34746 -4.8628,-1.55872 -14.4664,-4.87108 -21.3414,-7.36079 -6.875,-2.4897 -17.45,-5.79478 -23.5,-7.3446 -6.05,-1.54982 -13.5875,-3.96326 -16.75,-5.3632 -6.3927,-2.82982 -7.1763,-4.7272 -3.8892,-9.41618 2.5884,-3.69219 4.7258,-14.58968 6.6989,-34.15437 0.7788,-7.72232 5.1603,-20.96121 9.7366,-29.41983 3.2674,-6.03918 3.3735,-6.12249 15.7466,-12.35705 10.4239,-5.25237 19.0687,-10.8957 34.1617,-22.3007 1.6719,-1.26331 1.8763,-1.9554 1.0264,-3.47418 -0.6066,-1.0838 -0.7059,-2.56092 -0.2318,-3.44676 0.7285,-1.36127 -0.7763,-15.75031 -3.9744,-38.001476 -0.5138,-3.575 -1.6496,-12.125 -2.524,-19 -0.8744,-6.875 -1.9675,-15.425 -2.4292,-19 -0.8493,-6.577071 -0.5383,-8.866664 0.9961,-7.332258 0.4631,0.463103 2.2159,10.514813 3.895,22.337132 5.1662,36.374542 8.2551,55.453802 9.133,56.413072 0.4621,0.50487 0.5679,-17.04513 0.2351,-38.999996 -0.3328,-21.954872 -0.3785,-39.69295 -0.1016,-39.41795 0.277,0.275 0.8114,15.35 1.1876,33.5 0.3762,18.15 1.1221,38.801736 1.6576,45.892756 0.8605,11.39291 1.3844,13.82679 4.5039,20.9218 1.9416,4.41598 4.5177,9.41424 5.7247,11.10725 1.2069,1.693 4.6167,7.57819 7.5773,13.07819 2.9605,5.5 7.6977,14.275 10.527,19.5 6.323,11.67694 15.6032,25.21465 23.6501,34.5 3.3364,3.85 9.9664,11.5 14.7332,17 10.9824,12.67172 28.0442,29.52645 35.3051,34.87673 3.0777,2.2678 13.8777,12.17353 24,22.01274 10.1224,9.83921 23.6945,22.11139 30.1602,27.27153 13.0401,10.40697 16.963,15.05461 22.6532,26.839 4.6245,9.57708 5.2962,12.08472 3.6116,13.48281 -2.7182,2.25596 -18.3656,-3.99496 -27.5207,-10.99414 -3.1296,-2.3926 -7.5744,-4.56611 -27.0313,-13.21815 -3.0423,-1.35281 -7.7673,-4.05179 -10.5,-5.99772 -2.7328,-1.94594 -7.3394,-4.72761 -10.2369,-6.1815 -2.8975,-1.45389 -7.7164,-4.86051 -10.7086,-7.57027 -2.9922,-2.70975 -6.6976,-5.57695 -8.2341,-6.37155 -1.5366,-0.7946 -3.6928,-2.44317 -4.7915,-3.6635 -1.0987,-1.22032 -4.0226,-3.58163 -6.4976,-5.24734 -2.475,-1.66572 -5.85,-4.27987 -7.5,-5.80924 -8.7528,-8.11289 -31.7367,-20.37728 -44.8443,-23.92937 -5.3547,-1.45107 -7.0081,-0.50984 -6.1336,3.49166 0.2414,1.10457 0.9093,5.83331 1.4842,10.50831 0.5749,4.675 2.1605,16.375 3.5236,26 1.3631,9.625 4.2907,31 6.5058,47.5 3.826,28.49977 6.1013,44.85223 12.9398,93 1.6404,11.55 4.1523,29.55 5.582,40 1.4296,10.45 2.9998,19.41332 3.4894,19.9185 0.5405,0.55774 7.4814,0.46912 17.6716,-0.22562 9.2298,-0.62926 33.4315,-2.26514 53.7815,-3.63529 20.35,-1.37016 39.25,-2.73658 42,-3.03649 4.0916,-0.44623 12.0022,-0.5935 23.5,-0.43748 0.825,0.0112 3.525,-0.43363 6,-0.9885 4.4716,-1.00248 43.0021,-3.76023 65,-4.65225 6.325,-0.25648 14.65,-0.67031 18.5,-0.91962 8.0929,-0.52407 12.188,0.87305 5.3508,1.82554 -2.3929,0.33337 -7.7258,0.85877 -11.8508,1.16755 -4.125,0.30879 -9.0338,0.80269 -10.9084,1.09757 -1.8746,0.29488 -5.9246,0.6993 -9,0.8987 -5.9912,0.38847 -30.7719,2.1573 -43.0916,3.07585 -4.125,0.30756 -9.075,0.9581 -11,1.44565 -1.925,0.48755 -8.9,0.95015 -15.5,1.028 -6.6,0.0779 -15.825,0.58762 -20.5,1.13282 -4.675,0.5452 -11.65,1.1392 -15.5,1.31999 -19.8301,0.93123 -82.821,5.19914 -89.25,6.04708 -3.9437,0.52015 -4.25,0.77936 -4.25,3.59663 0,3.18955 5.2901,45.03809 6.9958,55.34137 0.8726,5.27112 2.6543,18.1099 10.9632,79 1.0507,7.7 2.6222,19.625 3.4923,26.5 0.8701,6.875 2.2656,16.55 3.1012,21.5 0.8356,4.95 1.9132,12.825 2.3947,17.5 0.9259,8.98953 6.982,52.72662 9.6043,69.36229 1.0298,6.53255 2.261,10.81772 3.6469,12.69215 1.8605,2.51657 1.9501,3.17289 0.8087,5.92845 -1.4681,3.54431 -0.7111,12.98326 2.6053,32.48624 0.8388,4.93302 1.973,12.58302 2.5204,17 0.5474,4.41698 1.3886,10.95587 1.8693,14.53087 0.4807,3.575 1.5755,12.49135 2.433,19.8141 0.8574,7.32276 1.7499,14.52276 1.9832,16 0.5485,3.47224 1.4365,14.31702 2.1031,25.6859 0.9768,16.6592 -1.4753,6.62518 -6.0537,-24.77243 -2.4244,-16.62516 -4.853,-33.15257 -5.397,-36.72757 -0.5439,-3.575 -2.6139,-18.65 -4.5999,-33.5 -1.986,-14.85 -4.0643,-28.4625 -4.6184,-30.25 -1.1156,-3.59862 -0.9295,-3.53129 -9.3524,-3.38361 -4.3577,0.0764 -5.4526,-0.1454 -4,-0.81031 1.1,-0.50353 4.3625,-0.94714 7.25,-0.98579 3.5209,-0.0471 5.2355,-0.48198 5.2061,-1.32029 -0.078,-2.2099 -1.7279,-14.8686 -3.8132,-29.25 -1.1165,-7.7 -2.5186,-18.275 -3.1157,-23.5 -0.5971,-5.225 -1.7416,-13.775 -2.5434,-19 -1.866,-12.16046 -4.4079,-30.13888 -9.4729,-67 -2.2295,-16.225 -5.4145,-39.4 -7.0779,-51.5 -1.6634,-12.1 -3.6843,-26.5 -4.491,-32 -0.8066,-5.5 -2.8335,-20.125 -4.5042,-32.5 -1.6707,-12.375 -3.3028,-24.02968 -3.627,-25.89928 l -0.5894,-3.39928 -15.1107,0.66144 c -8.3109,0.36379 -16.8692,0.95137 -19.0185,1.30573 l -3.9078,0.64429 0.6904,39.5729 c 0.3798,21.7651 0.9081,45.43219 1.1742,52.59355 0.266,7.16136 0.9369,33.04565 1.4909,57.52065 0.9181,40.56152 2.6614,111.74454 3.0981,126.5 0.237,8.00907 0.4905,8.47428 4.719,8.66004 l 3.643,0.16003 -3.2487,0.40323 c -1.7867,0.22177 -3.6151,1.16225 -4.063,2.08996 -0.726,1.50367 -0.4247,22.41267 1.1482,79.68674 0.2719,9.9 0.7655,33.3 1.097,52 0.3314,18.7 0.8038,38.725 1.0499,44.5 0.246,5.775 0.6923,21.52502 0.9918,35.00002 0.2995,13.475 0.7591,32.15 1.0215,41.5 0.2623,9.35 0.7125,27.125 1.0003,39.5 0.2878,12.375 0.7488,32.175 1.0244,44 0.2756,11.825 0.7103,28.925 0.9661,38 0.6145,21.799 1.4019,56.3269 2.0298,89 0.28,14.575 0.7308,31.225 1.0017,37 0.2709,5.775 0.9393,34.575 1.4853,64 0.5461,29.425 1.2129,55.975 1.4819,59 0.269,3.025 0.7632,22.8817 1.0983,44.1261 0.5337,33.8386 0.4162,38.9823 -0.9476,41.5 -0.8973,1.6564 -1.6091,2.2385 -1.6802,1.3739 z m 5.8286,-1004.64321 c 5.6569,-0.36414 10.5113,-1.02776 10.7876,-1.4747 0.5449,-0.88165 -0.8182,-11.98989 -6.1211,-49.88211 -1.8858,-13.475 -4.1224,-29.675 -4.9702,-36 -0.8478,-6.325 -2.2074,-15.775 -3.0213,-21 -0.8139,-5.225 -2.1281,-15.125 -2.9204,-22 -0.7923,-6.875 -2.6103,-20.825 -4.0401,-31 -4.0553,-28.86088 -6.4733,-46.75133 -7.5688,-56 -1.8288,-15.44099 -3.9738,-28.34668 -4.896,-29.45783 -1.183,-1.42541 -8.0174,-3.89308 -8.7509,-3.15962 -0.5397,0.5397 1.4883,112.17601 3.2176,177.11745 0.2636,9.9 0.7279,29.25 1.0317,43 0.3037,13.75 0.79,26.52453 1.0806,28.38784 l 0.5283,3.38784 7.6789,-0.6284 c 4.2233,-0.34562 12.3072,-0.92633 17.9641,-1.29047 z M 1394.941,356.75538 c -4.0582,-10.49589 -10.4312,-18.26036 -23.8673,-29.07811 -6.9155,-5.56788 -20.2237,-17.80212 -29.5737,-27.18718 -9.35,-9.38507 -20.378,-19.55575 -24.5068,-22.60151 -8.5452,-6.30382 -34.6129,-33.19825 -42.7461,-44.10181 -2.9873,-4.00476 -7.3644,-9.30639 -9.727,-11.78139 -5.6264,-5.89413 -14.9055,-21.06046 -27.1283,-44.34019 -12.3094,-23.44487 -16.4044,-31.02008 -17.1145,-31.65981 -1.0089,-0.90898 0.6911,19.66435 2.7015,32.69281 1.0869,7.04395 3.1177,21.35719 4.5127,31.80719 1.3951,10.45 2.9647,21.7 3.488,25 0.5234,3.3 1.9012,12.075 3.062,19.5 1.1607,7.425 2.6387,14.0091 3.2844,14.63134 0.6458,0.62224 4.3241,2.14177 8.1741,3.37673 15.2185,4.88166 29.5849,13.02589 48.2816,27.37072 5.1049,3.91667 11.5481,8.7764 14.3181,10.79942 2.77,2.02301 7.3683,5.79364 10.2183,8.37917 2.8501,2.58552 7.207,5.60861 9.682,6.71798 2.475,1.10936 7.1242,3.79295 10.3316,5.96352 3.2074,2.17058 8.3824,5.08159 11.5,6.4689 19.7276,8.77865 24.0325,10.88413 27.1684,13.28781 5.0234,3.85037 16.1967,9.97088 18.2354,9.98899 1.6094,0.0143 1.588,-0.36591 -0.2944,-5.23458 z m -165.0377,-96.5 c -0.426,-3.1625 -1.9792,-14.75 -3.4516,-25.75 -5.2773,-39.4264 -5.2897,-39.45131 -5.21,-10.5 0.039,14.025 0.3376,28.57667 0.6643,32.33704 0.5168,5.9488 0.9188,7.016 3.094,8.21456 4.982,2.74515 5.7605,2.06217 4.9033,-4.3016 z m -10.77,-1.5 c 0.2951,-7.19271 -0.3782,-45.71911 -1.2102,-69.25 -0.9016,-25.49795 -2.8616,-44.83851 -4.7338,-46.71066 -1.1901,-1.19014 -5.723,1.30144 -13.6047,7.47815 -2.7035,2.11864 -9.6893,6.20064 -15.5241,9.07111 -5.8348,2.87047 -12.2077,6.20727 -14.162,7.41511 -7.0492,4.35667 -12.6784,18.57764 -16.3814,41.38466 -1.461,8.9989 -3.6797,19.42588 -4.9304,23.17107 l -2.274,6.80945 4.0937,2.08983 c 2.2515,1.14941 8.3686,3.14297 13.5936,4.43014 5.225,1.28716 19.175,5.68764 31,9.77885 11.825,4.0912 22.0625,7.47089 22.75,7.51042 0.7332,0.0421 1.3051,-1.27185 1.3833,-3.17813 z m 59.5913,1256.49822 c -4.6062,-5.0898 -3.6154,-12.6367 2.0018,-15.2482 2.9481,-1.3706 3.1767,-1.8019 2.6506,-5 -0.3166,-1.925 -1.372,-6.2 -2.3452,-9.5 -2.7526,-9.3332 -3.4481,-15.5 -1.7481,-15.5 1.5987,0 3.8459,2.3346 5.7753,6 1.1793,2.2404 2.0756,13.3243 2.2335,27.6216 0.065,5.862 -1.7467,11.0159 -4.3639,12.4166 -2.3457,1.2554 -2.3544,1.2538 -4.204,-0.79 z m 4.2436,-9.1206 c -0.031,-2.5263 -0.088,-2.5528 -1.5,-0.6865 -0.8075,1.0677 -1.4682,2.8103 -1.4682,3.8725 0,1.6033 0.2547,1.7199 1.5,0.6864 0.825,-0.6847 1.4857,-2.4273 1.4682,-3.8724 z m -17.4039,-8.0007 c -5.9501,-11.742 -9.9313,-39.8356 -6.5425,-46.1676 1.5133,-2.8277 5.7087,-2.2286 8.2393,1.1765 2.9875,4.0199 3.2581,10.3738 0.8478,19.9053 l -2.1148,8.3631 2.1163,9.8846 c 2.5596,11.9548 1.4953,14.8133 -2.5461,6.8381 z m 0.317,-30.5697 c 2.1977,-8.7281 0.6083,-15.7265 -3.2367,-14.2511 -1.2605,0.4837 -1.6446,1.965 -1.6446,6.3415 0,5.5399 1.6999,12.3524 3.0822,12.3524 0.3742,0 1.1838,-1.9993 1.7991,-4.4428 z m 6.5184,22.6775 c -2.5949,-1.7326 -3.5495,-5.2507 -2.3835,-8.7837 0.6264,-1.898 1.5836,-3.451 2.1271,-3.451 1.4384,0 5.2369,2.12 6.0914,3.3997 1.3526,2.0257 0.7841,6.2733 -1.0634,7.9453 -1.9984,1.8085 -3.0906,2.0121 -4.7716,0.8897 z m 53.5761,-667.85149 c -0.6414,-3.08923 -1.0108,-9.65077 -0.8209,-14.58122 0.2882,-7.48618 0.6663,-9.19917 2.2926,-10.38791 2.2923,-1.67546 5.1155,-1.02279 8.4383,1.95084 5.0014,4.47567 9.4898,20.19612 7.0617,24.73307 -1.2118,2.26429 -1.2921,2.27928 -2.0343,0.37969 -0.4249,-1.08774 -0.8043,-3.27637 -0.8429,-4.86362 -0.07,-2.85116 -0.1262,-2.87827 -4.7099,-2.25 -2.5517,0.34975 -5.2305,0.63592 -5.9529,0.63592 -0.9882,0 -1.1667,1.23751 -0.7211,5 0.8263,6.97665 -1.2315,6.50844 -2.7106,-0.61677 z m 12.7799,-8.80555 c 0.9803,-0.98038 -0.8704,-7.45239 -3.0644,-10.71593 -2.7883,-4.14763 -6.1683,-4.94582 -7.0473,-1.66422 -0.3392,1.26636 -0.6228,4.95265 -0.6303,8.19176 l -0.014,5.88929 5.1356,-0.60824 c 2.8246,-0.33453 5.3536,-0.82622 5.6201,-1.09266 z m -77.5057,-2.29393 c 1.5125,-0.22913 3.9875,-0.22913 5.5,0 1.5125,0.22912 0.275,0.41659 -2.75,0.41659 -3.025,0 -4.2625,-0.18747 -2.75,-0.41659 z m 21.1613,-41.14024 c 0.3162,-0.51159 -0.547,-1.21174 -1.9182,-1.55589 -1.591,-0.3993 -2.4931,-1.33118 -2.4931,-2.57529 0,-1.21379 -0.5032,-1.75646 -1.3333,-1.43791 -0.7561,0.29014 -1.3334,-0.15637 -1.3334,-1.03139 0,-0.84867 0.3609,-1.54303 0.802,-1.54303 0.4411,0 0.5019,-0.78189 0.1352,-1.73753 -0.3667,-0.95564 0.7423,-0.16814 2.4645,1.75 2.5126,2.79845 3.3816,3.24055 4.3981,2.23753 1.9294,-1.90372 3.164,-1.49422 2.5519,0.84645 -0.6455,2.46832 0.1694,5.11159 1.3507,4.38149 0.4544,-0.28081 1.0531,-0.14324 1.3306,0.30571 0.2775,0.44895 -1.0782,0.92287 -3.0127,1.05315 -1.9707,0.13272 -3.2644,-0.17212 -2.9423,-0.69329 z m -26.5604,-4.39443 c 0.632,-0.63199 1.1491,-1.59908 1.1491,-2.14908 0,-0.55556 -0.5333,-0.46667 -1.2,0.2 -1.6007,1.60072 -3.3275,1.55881 -2.0603,-0.05 0.5415,-0.6875 1.253,-2.375 1.581,-3.75 0.4177,-1.75035 1.6427,-2.82514 4.0852,-3.5843 3.3311,-1.03532 3.5435,-0.95209 4.701,1.84236 1.317,3.17954 0.2406,4.69515 -3.3569,4.72663 -1.0082,0.009 -1.75,0.77291 -1.75,1.80251 0,1.11163 -0.8124,1.84838 -2.1491,1.94908 -1.6186,0.12192 -1.8654,-0.12176 -1,-0.9872 z m 166.6594,-12.73247 c -0.4349,-0.70369 -0.1829,-1.60093 0.5826,-2.07404 1.8215,-1.12571 2.294,-0.45633 1.1371,1.61084 -0.7134,1.27482 -1.1461,1.39136 -1.7197,0.4632 z m 4.0447,-3.92767 c -0.4902,-0.79318 -0.2659,-1.65794 0.5669,-2.18543 1.6725,-1.05938 3.8556,-1.19182 2.278,-0.1382 -0.605,0.40408 -1.3101,1.38753 -1.5669,2.18544 -0.3761,1.16894 -0.6244,1.19578 -1.278,0.13819 z M 95,695.13543 c 0,-0.63054 1.58934,-1.13005 3.59563,-1.13005 2.05471,0 4.86498,-0.90386 6.55757,-2.10909 3.73019,-2.65613 4.63335,-1.97846 1.40512,1.0543 C 103.87631,695.47021 95,697.14808 95,695.13543 z M 67.195806,689.80326 C 62.688113,687.52415 59,685.1104 59,684.43939 c 0,-1.86583 2.7084,-2.49029 4.008188,-0.92414 0.634928,0.76504 3.555698,2.74618 6.490599,4.40254 5.086599,2.8707 7.180789,4.74135 6.297154,5.62498 -0.222381,0.22238 -4.092442,-1.4604 -8.600135,-3.73951 z m 56.654724,-9.03079 c 2.24816,-3.55072 4.14947,-4.7141 4.14947,-2.53898 0,1.67528 -3.64611,5.77189 -5.13716,5.77189 -0.58258,0 -0.13812,-1.45481 0.98769,-3.23291 z m -74.27004,-7.01709 c -1.712721,-2.62935 -2.977314,-16.61277 -1.684897,-18.63099 0.623083,-0.97299 1.100244,-0.10312 1.615117,2.94438 0.401922,2.37896 1.556978,6.7268 2.566793,9.66188 2.501739,7.27143 0.873727,11.19946 -2.497013,6.02473 z m 84.37674,-16 c 1.55863,-3.4375 3.55588,-6.3955 4.43833,-6.57332 1.87112,-0.37707 1.93125,0.10677 0.60605,4.87704 -1.10264,3.96916 -4.34533,7.94628 -6.47889,7.94628 -1.04615,0 -0.68406,-1.5776 1.43451,-6.25 z m 0.0204,-20.79182 c -0.60102,-1.123 -1.28749,-4.57953 -1.52551,-7.68116 l -0.43275,-5.63934 2.39718,3.2492 c 4.76818,6.4629 5.77107,12.11312 2.15003,12.11312 -0.82291,0 -1.98794,-0.91882 -2.58895,-2.04182 z m -83.960568,0.28092 c -0.02241,-1.65711 3.964261,-10.10952 5.099067,-10.81087 0.486135,-0.30044 0.876207,0.0428 0.866829,0.76275 -0.02238,1.71769 -5.943681,11.69071 -5.965896,10.04812 z M 119.5348,611.90179 c -3.59094,-3.15288 -4.61748,-5.89641 -2.20624,-5.89641 0.7307,0 3.48533,1.42859 6.12139,3.17465 4.41618,2.92515 4.6504,3.2788 2.98032,4.5 -2.50964,1.83509 -2.89259,1.73634 -6.89547,-1.77824 z M 85.102706,581.50098 c -11.640278,-12.62821 -14.816746,-22.1167 -9.513812,-28.41887 3.694485,-4.39065 8.414458,-4.27338 13.011106,0.32327 2.974237,2.97424 3.4,4.03611 3.4,8.47976 0,2.79387 -0.734788,6.91618 -1.632863,9.16069 -1.325255,3.31214 -1.408775,4.57275 -0.443343,6.69164 l 1.18952,2.61071 1.889832,-3.10758 c 2.704548,-4.44727 5.677315,-5.69747 12.711674,-5.34591 4.70627,0.23521 5.37649,7.08442 1.08451,11.08301 -2.58248,2.40595 -5.09308,2.59107 -7.156473,0.52768 C 97.355166,581.21769 93,581.5455 93,584.00538 c 0,3.40156 -3.466743,2.30218 -7.897294,-2.5044 z M 87,561.38683 c 0,-3.37396 -0.530652,-4.6537 -2.606873,-6.28686 -2.000552,-1.57363 -3.047188,-1.81491 -4.5,-1.03739 -3.461813,1.8527 -1.593419,12.33821 2.482077,13.92953 C 85.300326,569.13425 87,566.70672 87,561.38683 z m 882.5,-43.32076 c -13.29823,-7.16838 -18.46436,-10.194 -19.06485,-11.16562 -0.68938,-1.11544 3.42914,-0.29863 8.06485,1.59947 3.04769,1.24789 19.5,12.27614 19.5,13.07117 0,0.86981 -1.63449,0.19582 -8.5,-3.50502 z m 116.5,1.45273 c 0,-0.26762 1.4625,-1.12257 3.25,-1.89988 1.7875,-0.77732 6.5822,-4.38336 10.655,-8.01342 9.7848,-8.72131 12.4885,-9.12378 4.8481,-0.72171 -5.2471,5.77027 -13.0047,11.12159 -16.1225,11.12159 -1.4468,0 -2.6306,-0.21896 -2.6306,-0.48658 z m -57.5941,-9.14186 c -5.8646,-3.97978 -8.4638,-8.20544 -10.422,-16.94349 -2.4863,-11.09406 5.9924,-18.38958 16.3449,-14.06404 3.1189,1.30314 8.6712,6.84036 8.6712,8.6476 0,0.47199 0.4382,2.0108 0.9738,3.41957 0.9682,2.54635 0.9943,2.55165 4.452,0.90279 4.221,-2.01286 6.5742,-0.68011 6.5742,3.72336 0,8.82139 4.2532,10.21475 11.6468,3.81558 5.0267,-4.35059 6.4996,-3.99053 3.9382,0.96274 -1.7327,3.35061 -6.8827,6.89182 -11.1997,7.70108 -4.3512,0.81566 -8.9326,-2.46266 -10.0511,-7.19224 -1.1863,-5.01589 -4.3342,-5.97386 -4.3342,-1.31896 0,6.70141 -5.2269,12.97445 -10.8108,12.97445 -1.0506,0 -3.6531,-1.1828 -5.7833,-2.62844 z M 1039,499.76062 c 0,-11.24237 -4.0481,-17.0968 -11.4458,-16.55317 -3.5918,0.26395 -4.0903,0.61156 -4.3706,3.04793 -0.226,1.96427 0.1311,2.75 1.25,2.75 1.8628,0 1.9989,1.33458 0.3975,3.89879 -0.8942,1.43182 -0.8875,2.54485 0.028,4.73643 1.4066,3.36586 5.7997,8.53165 8.6406,10.16019 3.0916,1.7723 5.5,-1.74837 5.5,-8.04017 z m -107.54059,-6.26874 c -2.77232,-1.34225 -8.26816,-5.26332 -12.21297,-8.71348 -3.94481,-3.45016 -8.60644,-7.37556 -10.35917,-8.7231 -3.70401,-2.84774 -2.48268,-3.73156 2.76384,-2.00005 2.24534,0.74103 6.64863,4.16676 11.35026,8.83043 4.22496,4.19083 9.21554,8.83607 11.09018,10.32274 4.2117,3.34006 3.77759,3.38681 -2.63214,0.28346 z m 494.53819,-5.99004 c -6.8142,-9.904 -8.6393,-17.65246 -5.3056,-22.52395 2.3587,-3.44663 3.3125,-3.95189 7.308,-3.87124 l 3.5,0.0706 -2.9988,0.89411 c -4.0585,1.21003 -5.5012,3.4893 -5.5012,8.69085 0,6.2904 1.3634,8.43565 4.5833,7.21145 1.4008,-0.53258 4.2051,-0.93279 6.2318,-0.88937 l 3.6849,0.0789 -4.3227,1.52861 c -5.9019,2.0871 -6.124,3.0478 -2.6726,11.5635 1.3904,3.43059 -1.4435,1.69925 -4.5071,-2.75354 z m 22.2498,2.25354 c -1.2367,-1.54989 -4.5636,-7.89592 -4.8492,-9.25 -0.116,-0.55 -0.6677,-2.96791 -1.2259,-5.37313 -0.5583,-2.40522 -0.7773,-4.99272 -0.4867,-5.75 0.8556,-2.2296 3.3139,-1.58309 3.32,0.87313 0.01,3.86855 2.0305,9.75 3.3503,9.75 0.694,0 2.0997,-0.61262 3.1236,-1.36138 1.8031,-1.31841 1.8057,-1.56137 0.084,-7.69733 -0.9778,-3.48476 -2.0028,-6.92214 -2.2777,-7.63861 -0.2749,-0.71648 0.1679,-1.30268 0.984,-1.30268 0.8194,0 2.3901,2.12682 3.5079,4.75 2.4059,5.64603 6.2222,18.28553 6.2222,20.60781 0,2.7937 -1.95,1.81497 -3.7014,-1.85781 -1.8133,-3.80252 -2.9309,-4.22059 -5.7574,-2.15377 -1.7163,1.255 -1.7345,1.55997 -0.2678,4.5 1.2218,2.44925 1.2827,3.15377 0.2724,3.15377 -0.7155,0 -1.7498,-0.5625 -2.2984,-1.25 z M 893.7017,455.22826 c -0.88455,-0.97742 -2.77249,-4.46492 -4.19541,-7.75 -1.42293,-3.28509 -3.56408,-7.94683 -4.75812,-10.35944 -2.79604,-5.64951 -3.01608,-7.30817 -0.91819,-6.92136 1.67767,0.30933 11.366,18.6546 12.70524,24.05792 0.78223,3.15601 -0.46902,3.58562 -2.83352,0.97288 z m -19.69919,-45.4843 c -2.96627,-6.70575 -7.06253,-23.65125 -6.37726,-26.38159 0.79828,-3.1806 3.76232,-2.71873 4.19206,0.65323 0.17452,1.36938 1.63702,7.86636 3.25,14.43773 1.61298,6.57138 2.93269,12.75888 2.93269,13.75 0,3.19 -2.0588,1.92337 -3.99749,-2.45937 z M 417.5,400.00538 c -0.33992,-0.55 -0.14148,-1 0.44098,-1 0.58246,0 1.05902,0.45 1.05902,1 0,0.55 -0.19844,1 -0.44098,1 -0.24254,0 -0.7191,-0.45 -1.05902,-1 z m 547.69495,-3.5 c -0.0204,-1.65 0.18706,-2.44606 0.46099,-1.76903 0.27392,0.67703 0.29059,2.02703 0.0371,3 -0.25354,0.97297 -0.47766,0.41903 -0.49804,-1.23097 z m -99.92213,-32.72583 c -2.5163,-3.16762 -3.63856,-9.76693 -3.51111,-20.64675 0.15088,-12.8799 0.81983,-17.12742 2.69741,-17.12742 1.00617,0 1.40313,4.35348 1.75526,19.25 0.25028,10.5875 0.36855,19.37337 0.26283,19.52417 -0.10571,0.15079 -0.64769,-0.29921 -1.20439,-1 z m 21.12614,-53.32074 c -0.835,-3.32689 -0.26855,-3.75082 2.45904,-1.84033 1.77381,1.24242 1.99492,1.85919 1.06723,2.977 -1.72381,2.07706 -2.80734,1.72779 -3.52627,-1.13667 z m -19.07307,-11.70343 c 0.82661,-9.67607 2.97458,-16.49272 6.88075,-21.83635 4.06754,-5.5644 4.99323,-3.25379 1.50457,3.75559 -1.32238,2.65692 -2.973,7.75576 -3.66805,11.33076 -2.09914,10.79704 -3.06654,14 -4.22844,14 -0.76597,0 -0.91693,-2.23886 -0.48883,-7.25 z m 19.05352,-56.57182 c 1.1767,-11.52464 8.21772,-29.28433 11.89051,-29.99165 1.44334,-0.27796 1.18834,0.91173 -1.60573,7.49152 -1.82684,4.30207 -4.51945,11.64695 -5.98356,16.32195 -3.47491,11.09556 -5.0316,13.33156 -4.30122,6.17818 z m 19.65655,-46.44175 c -0.0198,-0.41996 0.37777,-1.54496 0.88345,-2.5 0.50568,-0.95504 2.35823,-4.66143 4.11679,-8.23643 5.26808,-10.70958 9.89503,-17.81484 13.07607,-20.07995 4.18361,-2.97898 4.34905,-2.06744 0.50616,2.78881 -1.80372,2.27936 -5.71825,8.47081 -8.69896,13.75878 -5.20005,9.22522 -9.80775,15.87734 -9.88351,14.26879 z m 33.96559,-47.74978 c 0.003,-3.11017 7.02116,-13.88792 13.33131,-20.47356 7.01719,-7.32354 7.25462,-5.15771 0.35484,3.23691 -3.50347,4.2625 -8.01644,10.21899 -10.02883,13.23665 -2.01238,3.01766 -3.65817,4.81766 -3.65732,4 z m 288.48995,-17.00041 c -1.2304,-1.99089 -4.4915,-15.01509 -4.4915,-17.9384 0,-3.41228 2.4557,-5.21529 5.5,-4.03823 1.1,0.4253 5.4963,3.97212 9.7696,7.88183 4.2733,3.90971 8.2023,7.10856 8.731,7.10856 2.4668,0 2.4091,-14.04148 -0.096,-23.35094 -2.2386,-8.319189 2.081,-4.803176 4.6255,3.76507 1.6967,5.71334 1.9514,17.81734 0.4345,20.65161 -2.0462,3.82334 -6.8116,1.75997 -16.7344,-7.24577 -8.429,-7.65008 -8.7004,-6.97704 -4.6086,11.43003 0.4634,2.0846 0.2345,2.75 -0.9462,2.75 -0.8567,0 -1.8395,-0.45619 -2.1841,-1.01376 z m -258.97358,-19.0382 c 0.95063,-1.56293 3.40146,-3.82028 13.47472,-12.410972 4.30975,-3.675445 7.33564,-5.510521 9,-5.458117 1.53298,0.04827 1.92445,0.296008 1.00736,0.637507 -0.825,0.307208 -3.75,2.43352 -6.5,4.725139 -8.61077,7.175493 -17.90103,14.017303 -16.98208,12.506443 z m 50.64428,-38.948036 c 4.95,-4.95 9.4135,-9 9.9189,-9 0.5054,0 0.049,0.869911 -1.0142,1.933136 -1.0633,1.063225 -2.7079,3.115499 -3.6548,4.560609 -1.5308,2.33632 -12.4929,11.506255 -13.7551,11.506255 -0.2721,0 3.5552,-4.05 8.5052,-9 z"
     id="path3130"
     style="fill:#000000" />
</svg>
