<?xml version="1.0" encoding="UTF-8" standalone="no"?>
<!-- Created with Inkscape (http://www.inkscape.org/) -->

<svg
   xmlns:dc="http://purl.org/dc/elements/1.1/"
   xmlns:cc="http://creativecommons.org/ns#"
   xmlns:rdf="http://www.w3.org/1999/02/22-rdf-syntax-ns#"
   xmlns:svg="http://www.w3.org/2000/svg"
   xmlns="http://www.w3.org/2000/svg"
   version="1.1"
   width="1530.6997"
   height="1650.8401"
   id="svg3057">
  <metadata
     id="metadata3063">
    <rdf:RDF>
      <cc:Work
         rdf:about="">
        <dc:format>image/svg+xml</dc:format>
        <dc:type
           rdf:resource="http://purl.org/dc/dcmitype/StillImage" />
        <dc:title></dc:title>
      </cc:Work>
    </rdf:RDF>
  </metadata>
  <defs
     id="defs3061" />
  <path
     d="m 625.27239,1649.9834 c -1.33141,-2.1542 7.32283,-6.9806 12.51709,-6.9806 0.70019,0 4.02298,-2.3785 7.38398,-5.2855 3.36099,-2.907 7.4609,-6.1194 9.1109,-7.1388 1.65,-1.0194 6.15,-4.2362 10,-7.1484 3.85,-2.9122 9.7,-6.875 13,-8.8062 3.3,-1.9311 10.5,-6.2755 16,-9.6541 27.67359,-16.9996 42.81667,-23.924 63.37699,-28.9799 6.94265,-1.7073 16.44801,-4.6205 21.12301,-6.4738 4.675,-1.8534 10.075,-3.6811 12,-4.0616 1.925,-0.3805 6.2,-1.7493 9.5,-3.0418 6.89906,-2.702 15.37982,-4.3618 27.5,-5.3822 4.675,-0.3936 11.425,-1.4463 15,-2.3394 16.52422,-4.1279 21.00234,-5.0427 28,-5.7197 4.125,-0.3991 11.775,-1.2508 17,-1.8927 12.45106,-1.5296 19.46532,-1.9382 43.48028,-2.5329 10.98916,-0.2721 26.41315,-0.975 34.27553,-1.5621 7.86239,-0.5871 14.62836,-0.8615 15.03551,-0.6099 0.40714,0.2517 3.19372,-0.1789 6.1924,-0.9567 2.99867,-0.7779 7.74739,-1.4143 10.55271,-1.4143 2.80531,0 7.43791,-0.6941 10.29461,-1.5425 7.0717,-2.1 14.9675,-2.7111 32.669,-2.5284 15.0471,0.1553 21.6029,-0.7336 33.9556,-4.6045 2.7257,-0.8541 7.2257,-1.8913 10,-2.3048 2.7744,-0.4136 7.0694,-1.2418 9.5444,-1.8405 2.475,-0.5987 8.1,-1.8506 12.5,-2.782 10.0031,-2.1176 23.7418,-5.812 29,-7.7984 2.2,-0.8311 5.125,-1.5311 6.5,-1.5555 2.421,-0.043 10.3539,-2.6816 16.5,-5.4882 1.65,-0.7535 6.375,-2.6336 10.5,-4.178 13.9814,-5.2349 23.3883,-11.9567 39.2015,-28.0119 23.3543,-23.7118 37.3211,-49.3246 43.2799,-79.3677 0.9269,-4.6737 2.2839,-10.9726 3.0155,-13.9976 2.234,-9.2374 2.4835,-13.906 1.5765,-29.5 -2.0405,-35.0832 -5.3302,-62.6793 -9.1842,-77.0419 -3.9062,-14.5576 -4.828,-19.8644 -5.4645,-31.4581 -0.5317,-9.6875 -0.289,-13.0761 1.5405,-21.5 1.1944,-5.5 3.026,-14.95 4.07,-21 4.1247,-23.9008 7.7888,-35.3974 15.3778,-48.2491 4.211,-7.1312 11.2232,-15.2509 13.1707,-15.2509 0.369,0 3.4261,-1.3102 6.7936,-2.9116 3.3675,-1.6014 9.4977,-4.5194 13.6227,-6.4843 4.125,-1.965 8.9627,-4.9236 10.7505,-6.5747 6.0463,-5.5842 12.2495,-20.8272 12.2495,-30.1004 0,-8.7359 -10.2198,-31.9438 -18.4587,-41.9173 -4.9244,-5.9613 -4.6661,-6.868 1.9587,-6.8737 l 3,0 -2.5,1.1288 c -1.375,0.6208 -2.6345,1.2124 -2.799,1.3146 -0.1644,0.1022 2.0145,3.2424 4.8421,6.9782 2.8276,3.7357 7.0748,10.8762 9.4383,15.8676 9.1705,19.3677 10.2431,25.7659 6.4071,38.2201 -4.1196,13.3745 -9.0839,19.0612 -21.8885,25.074 -27.0782,12.7152 -27.3421,12.9165 -33.8773,25.8531 -6.2281,12.3286 -8.2102,19.9775 -14.1041,54.4282 -1.0821,6.325 -2.4413,13.75 -3.0204,16.5 -1.4375,6.8258 -0.2339,26.186 2.207,35.5 5.5157,21.0472 7.122,30.5981 9.5581,56.8314 3.0747,33.1106 2.2644,47.766 -4.5154,81.6686 -3.9426,19.7154 -12.1639,38.8835 -23.7052,55.2697 -7.0228,9.9708 -26.2365,29.8053 -35.5244,36.6721 -11.4724,8.4818 -15.2077,10.6517 -24.0183,13.9526 -4.125,1.5454 -9.975,3.8919 -13,5.2144 -3.025,1.3225 -8.425,3.1026 -12,3.9557 -3.575,0.8531 -9.65,2.6045 -13.5,3.8919 -8.2142,2.7468 -12.1725,3.7758 -23,5.9795 -4.4,0.8955 -10.925,2.3435 -14.5,3.2178 -3.575,0.8743 -8.75,1.9367 -11.5,2.361 -2.75,0.4242 -6.8,1.435 -9,2.2461 -8.7807,3.2374 -16.2146,4.0823 -37,4.205 -17.1275,0.1012 -22.1064,0.4578 -27,1.9337 -3.3,0.9952 -9.825,2.2111 -14.50004,2.702 -4.675,0.4909 -13,1.3687 -18.5,1.9507 -11.79064,1.2477 -23.04814,1.8473 -37.5,1.9972 -15.13521,0.1571 -56.88234,2.8945 -61,3.9999 -1.925,0.5167 -5.3,0.9303 -7.5,0.919 -2.2,-0.011 -7.825,0.8619 -12.5,1.9404 -4.675,1.0785 -12.55,2.902 -17.5,4.0522 -4.95,1.1502 -10.94418,2.0796 -13.3204,2.0652 -9.61442,-0.058 -32.71142,5.97 -51.83334,13.5281 -3.38456,1.3378 -11.48456,3.7711 -18,5.4074 -14.29489,3.59 -28.39407,8.9771 -36.70585,14.0248 -3.37723,2.051 -8.61541,4.9793 -11.64041,6.5073 -15.34076,7.7493 -49.53384,30.6853 -62.99585,42.2563 -4.23166,3.6372 -6.97073,5.25 -8.91649,5.25 -1.54469,0 -4.83699,0.278 -7.31624,0.6179 -3.11098,0.4264 -4.74806,0.2289 -5.28339,-0.6373 z m 511.35451,-212.7306 c -0.087,-1.5125 -0.1097,-3.425 -0.051,-4.25 0.3103,-4.3711 0.3527,-12.364 0.2202,-41.5 -0.08,-17.6 0.095,-42.125 0.3893,-54.5 0.2941,-12.375 0.7859,-55.575 1.0927,-96 0.3069,-40.425 0.7599,-82.05 1.0067,-92.5 0.2468,-10.45 0.6866,-46.45 0.9774,-80 0.2907,-33.55 0.7483,-75.40003 1.0169,-93.00003 0.2685,-17.6 0.7191,-56.975 1.0014,-87.5 0.2822,-30.525 0.736,-73.05 1.0083,-94.5 0.9016,-71.01081 1.5056,-121.46427 1.9932,-166.5 0.2651,-24.475 0.7516,-66.6625 1.0812,-93.75 l 0.5994,-49.25 -2.3391,-0.008 c -2.64,-0.01 -30.8294,2.02936 -75.6445,5.47137 -25.4317,1.95327 -30.6198,2.61202 -32.2597,4.09614 -1.6886,1.52815 -2.288,1.58993 -4.4095,0.4545 -3.0555,-1.63521 -17.2383,-1.10746 -65.52534,2.43821 -65.60041,4.81698 -70.8572,5.18975 -177,12.55138 -23.925,1.65934 -46.425,3.24157 -50,3.51607 -3.575,0.2745 -19.775,1.38946 -36,2.47769 -16.225,1.08823 -35.575,2.43288 -43,2.9881 -7.425,0.55523 -30.825,2.14532 -52,3.53354 -21.175,1.38822 -51.325,3.42017 -67,4.51544 -63.83554,4.46044 -147.8527,10.16139 -169,11.46742 -12.375,0.76426 -24.975,1.62644 -28,1.91595 -3.025,0.28951 -9.1,0.77234 -13.5,1.07295 -4.4,0.30062 -20.6,1.42945 -36,2.50851 -15.4,1.07907 -45.325,3.11039 -66.5,4.51404 -66.97402,4.43959 -75.28616,5.16134 -78.38229,6.80601 -2.18958,1.16311 -3.51141,1.28369 -5.5,0.50175 -3.06699,-1.20644 -11.12831,-1.16254 -31.11781,0.16897 -68.82025,4.58417 -113.18265756,7.16064 -113.73765497,6.60564 -0.71785881,-0.71786 6.68801537,-1.41676 32.73765097,-3.08948 13.475,-0.86527 30.575,-2.01304 38,-2.55061 7.425,-0.53756 26.1,-1.88162 41.500004,-2.98679 15.4,-1.10518 28.675,-2.28929 29.5,-2.63136 0.825,-0.34207 7.35,-0.74127 14.5,-0.88711 7.15,-0.14585 26.05,-1.20293 42,-2.34908 15.95,-1.14615 38.675,-2.77313 50.5,-3.61552 11.825,-0.84239 30.725,-2.19661 42,-3.00939 11.275,-0.81277 34.225,-2.39098 51,-3.50712 47.78918,-3.1797 58.20942,-3.92647 62.5,-4.47906 2.2,-0.28335 10.975,-0.94523 19.5,-1.47084 13.61407,-0.83939 70.58131,-4.79701 137,-9.51763 11.825,-0.84045 30.725,-2.18352 42,-2.9846 11.275,-0.80108 24.55,-1.71535 29.5,-2.0317 4.95,-0.31636 17.325,-1.22108 27.5,-2.0105 10.175,-0.78941 25.7,-1.89577 34.5,-2.45857 8.8,-0.5628 18.7,-1.23013 22,-1.48296 3.3,-0.25284 10.275,-0.7149 15.5,-1.02681 5.225,-0.31192 14.675,-0.99862 21,-1.52601 6.325,-0.5274 21.4,-1.64284 33.5,-2.47876 12.1,-0.83593 24.925,-1.74386 28.5,-2.01764 29.7641,-2.27932 48.20342,-3.57943 106.5,-7.50902 24.75,-1.66832 47.025,-3.24717 49.5,-3.50854 2.475,-0.26138 10.575,-0.90734 18,-1.43546 28.33134,-2.01513 31.53194,-2.32864 32.63824,-3.19705 0.6261,-0.4914 2.8968,-0.61225 5.0461,-0.26855 3.5199,0.56285 4.0253,0.36724 5.0904,-1.97032 1.4845,-3.25819 5.4816,-3.49504 7.6136,-0.45115 1.4922,2.13042 1.6118,2.13669 18.8067,0.98526 9.5178,-0.63733 22.705,-1.58218 29.305,-2.09966 6.6,-0.51748 22.575,-1.67472 35.5,-2.57166 12.925,-0.89694 23.5732,-1.70442 23.6627,-1.79439 0.089,-0.09 0.6478,-37.9636 1.2409,-84.1636 0.593,-46.2 1.285,-92.55951 1.5377,-103.02113 0.2528,-10.46163 0.1444,-19.51345 -0.2408,-20.11516 -0.3853,-0.60171 -5.2005,-3.67544 -10.7005,-6.8305 -5.5,-3.15507 -10.675,-6.30862 -11.5,-7.00789 -0.825,-0.69928 -5.4321,-3.32793 -10.2381,-5.84145 -8.5422,-4.46757 -15.4857,-9.33171 -24.245,-16.98436 -2.3926,-2.09028 -6.9751,-4.82955 -10.1835,-6.08728 -5.0432,-1.97701 -5.8113,-2.62277 -5.6701,-4.76722 0.2881,-4.37629 13.1836,-17.78781 21.8697,-22.7449 2.7682,-1.57976 5.6331,-3.59533 6.3665,-4.47903 0.7334,-0.8837 3.1936,-2.10645 5.467,-2.71722 3.6957,-0.99288 17.5722,-10.37769 19.172,-12.96623 0.734,-1.18752 7.0829,-5.31447 13.329,-8.66413 8.5744,-4.59827 8.1263,-2.20344 7.8644,-42.02393 -0.1276,-19.38773 0.1056,-35.250224 0.5181,-35.24999 0.4125,2.34e-4 0.75,4.74125 0.75,10.5356 0,7.4546 0.4194,11.18282 1.4344,12.75 1.1379,1.75685 1.4838,7.71945 1.6732,28.83583 0.2584,28.82549 -0.2487,25.30325 7.325,50.87899 1.873,6.325 4.5053,14.425 5.8495,18 1.3441,3.575 4.8087,12.8 7.6989,20.5 6.1495,16.3828 8.9013,22.07634 13.9964,28.95857 7.3317,9.90347 30.8699,31.40738 56.386,51.51291 18.2608,14.38866 36.2266,31.8552 48.8293,47.4723 9.616,11.91592 11.7136,15.75929 9.8359,18.02174 -1.1656,1.40442 -1.6096,1.35746 -4.4123,-0.46664 -1.714,-1.11552 -7.2354,-4.32663 -12.2698,-7.13578 -7.3613,-4.10759 -10.7875,-6.87144 -17.5,-14.1169 -10.8816,-11.74569 -19.5707,-20.06982 -24.3,-23.27918 -2.0919,-1.41962 -4.4725,-3.25014 -5.2902,-4.06782 -1.7742,-1.77428 -12.107,-7.08242 -17.4694,-8.97438 -2.1003,-0.74104 -5.3166,-2.48978 -7.1472,-3.88608 -1.8307,-1.39631 -3.736,-2.54017 -4.2341,-2.54192 -0.4981,-0.002 -3.6056,-1.80032 -6.9056,-3.99682 -3.3,-2.1965 -6.3743,-3.99507 -6.8318,-3.99682 -1.9594,-0.007 -24.7297,-17.14546 -32.1114,-24.16848 -8.0325,-7.6422 -8.0591,-7.65726 -8.832,-5 -0.4264,1.46592 -0.545,8.5153 -0.2636,15.6653 0.2814,7.15 0.7408,24.25 1.0209,38 2.0536,100.8015 3.1636,141.47905 3.8801,142.19557 0.5856,0.58556 40.1457,-1.31322 47.1378,-2.26248 5.0328,-0.68326 28.0703,-2.43632 45.5,-3.46236 9.075,-0.53422 30,-1.87298 46.5,-2.97502 40.7017,-2.71848 42.4788,-2.80624 71,-3.50603 13.75,-0.33736 25.5625,-0.79643 26.25,-1.02015 0.6875,-0.22372 1.25,0.0291 1.25,0.56185 0,0.53274 -0.795,0.96862 -1.7668,0.96862 -0.9717,0 -9.8592,0.64347 -19.75,1.42994 -9.8907,0.78647 -21.5832,1.67366 -25.9832,1.97152 -21.4045,1.44902 -74.0927,5.13343 -101.5,7.09775 -3.025,0.2168 -18.775,1.3271 -35,2.46732 -39.1833,2.75364 -51.8868,3.84549 -53.041,4.55881 -1.7203,1.06323 -0.8247,29.39478 1.4148,44.75564 0.1428,0.97954 -0.058,4.12954 -0.4463,7 -0.3883,2.87046 -0.3148,21.86902 0.1632,42.21902 1.1326,48.21578 2.7131,109.33283 3.4134,132 0.3059,9.9 0.9902,37.01481 1.5207,60.25514 0.6748,29.55617 1.3244,42.83118 2.1617,44.17188 0.8519,1.36409 0.9149,2.87632 0.2187,5.24486 -0.6119,2.08155 -0.7189,14.56479 -0.2856,33.32812 1.3862,60.02321 2.8381,119.40751 3.3497,137 1.3876,47.71873 1.7282,104.50003 0.6268,104.50003 -0.6203,0 -1.0679,-1.2375 -0.9947,-2.75 0.073,-1.5125 -0.1468,-7.025 -0.489,-12.25 -1.2463,-19.0264 -1.5458,-25.9122 -2.0878,-48 -0.3037,-12.375 -0.765,-29.25 -1.0253,-37.50003 -0.2602,-8.25 -0.7008,-24.675 -0.9792,-36.5 -0.2784,-11.825 -0.7549,-32.075 -1.059,-45 -0.3041,-12.925 -0.9767,-38.35 -1.4947,-56.5 -0.5179,-18.15 -0.9472,-34.252 -0.954,-35.78222 -0.01,-1.95936 -0.673,-3.0266 -2.246,-3.60848 l -2.2336,-0.82626 2.3423,-0.74341 2.3423,-0.74341 -0.6204,-23.64811 c -0.3413,-13.00646 -0.836,-31.74811 -1.0994,-41.64811 -0.2634,-9.9 -0.7145,-28.575 -1.0025,-41.5 -0.2879,-12.925 -0.7461,-31.6 -1.0181,-41.5 -0.2721,-9.9 -0.9354,-39.825 -1.4741,-66.5 -0.5388,-26.675 -1.2092,-53.225 -1.4898,-59 -0.2806,-5.775 -0.574,-18.825 -0.652,-29 -0.1913,-24.97413 -0.447,-27 -3.4071,-27 -1.2848,0 -2.5383,0.3375 -2.7856,0.75 -0.8096,1.35064 -1.6373,35.77171 -2.2062,91.75 -0.3074,30.25 -0.9821,89.875 -1.4994,132.5 -0.5173,42.625 -0.9456,83.6875 -0.9517,91.25 l -0.011,13.75 3.25,0.0902 3.25,0.0902 -3.1961,0.92443 -3.196,0.92442 -0.3471,13.73539 c -0.1909,7.55446 -0.4479,37.07831 -0.5711,65.60855 -0.1231,28.53024 -0.3851,52.15524 -0.5821,52.5 -0.1971,0.34476 -0.6563,40.45183 -1.0207,89.12684 -0.3643,48.675 -0.8565,94.8 -1.0938,102.5 -0.2372,7.7 -0.673,44.825 -0.9682,82.5 -0.8414,107.3577 -2.3302,207.4473 -3.1794,213.75 -0.6541,4.8553 -3.2472,5.9657 -3.503,1.5 z m 20.7588,-990.50003 c -0.3587,-17.7375 -0.8576,-36.3 -1.1087,-41.25 -0.2511,-4.95 -0.7424,-24.65981 -1.0917,-43.79957 -0.3493,-19.13977 -0.7698,-34.66477 -0.9344,-34.5 -0.9788,0.97951 -2.9648,149.18435 -2.0196,150.71365 0.3691,0.59726 1.8266,1.08592 3.2388,1.08592 l 2.5677,0 -0.6521,-32.25 z m 138.5494,-73.5 c -7.8455,-10.86608 -32.3413,-35.3575 -48.6507,-48.64198 -3.85,-3.13592 -13.3,-10.81569 -21,-17.06615 -17.1758,-13.9424 -34.8017,-31.68999 -40.7604,-41.04187 -2.4531,-3.85 -6.2625,-11.275 -8.4654,-16.5 -3.6336,-8.61875 -5.8016,-14.09183 -12.8741,-32.5 -1.2679,-3.3 -3.4951,-9.825 -4.9494,-14.5 -1.4543,-4.675 -3.0799,-8.95 -3.6124,-9.5 -0.6247,-0.64518 -0.7597,6.45129 -0.3807,20 0.3232,11.55 0.8064,28.83371 1.0739,38.40825 0.3272,11.7136 0.8923,17.90908 1.7274,18.93929 4.4621,5.50446 15.2429,16.20432 20.7411,20.58541 13.8918,11.06922 37.9794,25.89561 52,32.00693 4.675,2.03775 9.85,4.9364 11.5,6.44143 1.65,1.50504 4.575,3.90997 6.5,5.34428 4.7969,3.57414 13.956,12.49719 24.0558,23.43592 5.8787,6.36692 10.592,10.39274 15.4516,13.19787 8.4466,4.87568 10.4185,5.23445 7.6433,1.39062 z m -146.1472,-120 c 0,-6.4625 0.299,-26.2625 0.6601,-44 l 0.6565,-32.25 -2.2792,0 c -2.7411,0 -12.9474,5.96811 -18.6795,10.92272 -7.248,6.26489 -13.2385,10.26899 -17.6118,11.77178 -2.3373,0.80316 -5.5996,2.4628 -7.2496,3.68809 -1.65,1.22529 -5.025,3.40539 -7.5,4.84468 -5.6995,3.31443 -15,11.92288 -15,13.88387 0,0.81968 1.9472,2.43635 4.3271,3.5926 2.3799,1.15626 6.3913,3.83343 8.9143,5.94927 12.894,10.8136 15.066,12.30859 27.4226,18.87537 2.2901,1.2171 5.4615,3.13688 7.0475,4.26618 3.4646,2.467 17.4794,10.17151 18.5385,10.19137 0.4125,0.008 0.7516,-5.27343 0.7535,-11.73593 z m 26.2198,1159.07883 c -2.2977,-0.9237 -5.2233,-8.1148 -5.2233,-12.8386 0,-5.1695 1.9372,-9.6323 5.1613,-11.8906 2.4246,-1.6983 2.7406,-0.3554 -3.5528,-15.0996 -2.839,-6.6512 -3.312,-11.6712 -1.2603,-13.374 2.5982,-2.1563 6.6518,4.8299 6.6518,11.4641 0,5.4708 3.6749,14.5885 7.2165,17.9044 2.7483,2.5732 2.9401,3.0442 1.3632,3.3479 -1.5761,0.3035 -1.7546,1.0334 -1.2646,5.1706 1.1889,10.0384 -3.3211,17.6359 -9.0918,15.3158 z m 4.2053,-4.9002 c 1.8063,-1.8064 2.0288,-7.2415 0.5188,-12.6786 -1.254,-4.5154 -3.3411,-4.8232 -5.4217,-0.7997 -2.1394,4.1372 -1.9125,9.2882 0.5469,12.4148 2.4383,3.0999 2.3429,3.0766 4.356,1.0635 z m -17.7553,-22.1786 c -0.2445,-0.4125 -0.7291,-3 -1.0768,-5.75 -0.7855,-6.2125 0.8523,-9.8721 4.6141,-10.3104 5.276,-0.6146 7.4266,8.0142 3.7224,14.9356 -0.9976,1.8639 -6.3314,2.6903 -7.2597,1.1248 z m 5.3267,-7.75 c 0,-1.925 -0.45,-3.5 -1,-3.5 -1.1089,0 -1.3868,5.2799 -0.3333,6.3333 1.1509,1.151 1.3333,0.7634 1.3333,-2.8333 z m -14.0327,3.159 c -2.9709,-6.7163 -4.2543,-14.3344 -3.7203,-22.0836 0.5577,-8.0941 2.1647,-12.2539 5.0927,-13.1832 5.158,-1.6371 7.2361,8.0972 4.1801,19.581 -0.997,3.7466 -1.2625,7.769 -0.8414,12.75 0.5433,6.4279 0.4164,7.2768 -1.0879,7.2768 -1.0475,0 -2.442,-1.6708 -3.6232,-4.341 z m 4.0174,-25.468 c -0.01,-2.5801 -0.4375,-5.3586 -0.9534,-6.1746 -0.7413,-1.1724 -1.2601,-0.713 -2.4729,2.1895 -1.4028,3.3575 -1.3877,3.9295 0.1765,6.6548 2.2502,3.9209 3.2686,3.0843 3.2498,-2.6697 z m 16.5796,-258.8979 c -0.5427,-1.4252 -0.4278,-1.54 0.5598,-0.5598 0.6834,0.6784 0.9907,1.4853 0.6828,1.7932 -0.3079,0.3078 -0.8671,-0.2472 -1.2426,-1.2334 z m 126.6857,-53.9554 c -2.4423,-0.9855 -1.1904,-2.1714 3,-2.842 4.3115,-0.6899 19.0435,-8.0068 23.9152,-11.8779 1.4658,-1.1648 5.798,-4.0438 9.6269,-6.3977 5.6497,-3.4733 7.3844,-5.1694 9.2048,-9 2.1734,-4.5732 4.2459,-8.7049 10.143,-20.22013 2.4152,-4.71611 2.8941,-7.05084 3.3603,-16.38106 0.2991,-5.98459 0.795,-11.28752 1.102,-11.7843 1.0639,-1.72139 0.4294,-17.67169 -0.8154,-20.49651 -0.6878,-1.56097 -3.1712,-5.84193 -5.5187,-9.51324 -2.3474,-3.6713 -4.2681,-7.08906 -4.2681,-7.59501 0,-0.50595 -0.95,-1.77715 -2.1111,-2.82489 -2.3583,-2.12803 -8.9281,-14.75081 -10.8805,-20.90499 -0.698,-2.2 -1.6015,-4.45 -2.0079,-5 -0.4063,-0.55 -1.7803,-4.375 -3.0532,-8.5 -1.8706,-6.06178 -2.2922,-9.60072 -2.1987,-18.45476 0.1313,-12.43197 1.2623,-19.54365 5.4938,-34.54524 4.8723,-17.27341 12.7214,-28.72246 27.8463,-40.61771 4.6262,-3.63839 10.2469,-8.25034 12.4903,-10.24877 11.6126,-10.34426 23.4033,-16.7529 43.7659,-23.78823 11.2644,-3.8919 16.6964,-6.45895 21.604,-10.20951 3.2901,-2.51446 9.8008,-6.33172 22.2099,-13.02174 6.8137,-3.67339 16.6556,-12.58983 22.1999,-20.11244 2.2302,-3.02588 7.7583,-9.3266 12.2848,-14.0016 13.3358,-13.77342 14.5142,-15.85476 21.5132,-38 4.9675,-15.71731 7.3074,-27.40225 6.4038,-31.97981 -0.2736,-1.3861 -0.7665,-8.05025 -1.0954,-14.80921 -0.3289,-6.75896 -1.0495,-14.63396 -1.6014,-17.5 -0.5519,-2.86604 -1.0184,-6.2422 -1.0368,-7.50259 -0.036,-2.46557 -10.7687,-20.81705 -15.7703,-26.9646 -1.6752,-2.05908 -5.5498,-6.85085 -8.6101,-10.64838 -3.0604,-3.79752 -24.6321,-25.73502 -47.9373,-48.75 -37.2917,-36.82734 -42.7409,-41.84541 -45.4411,-41.84541 -3.053,0 -4.2015,-1.43539 -1.8181,-2.2722 1.2993,-0.45618 0.8095,-1.01609 -23.3845,-26.73435 -7.4989,-7.9714 -15.9232,-17.41845 -18.7206,-20.99345 -2.7974,-3.575 -6.2758,-7.76092 -7.7297,-9.30205 -1.4539,-1.54112 -5.5387,-6.49112 -9.0772,-11 -12.9469,-16.4971 -18.2008,-22.31208 -36.3961,-40.28302 -10.207,-10.08111 -19.126,-19.36106 -19.8201,-20.62211 -0.6941,-1.26105 -3.0553,-3.54373 -5.2471,-5.07261 -2.7484,-1.91712 -4.9073,-4.71015 -6.9569,-9 -1.6345,-3.42112 -4.967,-9.37021 -7.4054,-13.22021 -2.4385,-3.85 -5.5318,-10.375 -6.8741,-14.5 -4.0254,-12.37068 -6.5613,-21.13222 -8.1043,-28 -2.1589,-9.60958 -6.3561,-24.79558 -7.3998,-26.77348 -2.8914,-5.47977 -9.2995,-26.19091 -9.8165,-31.72717 -0.6431,-6.88717 0.6104,-18.67509 3.7217,-34.99935 1.0483,-5.5 3.1019,-16.3 4.5635,-24 1.4616,-7.7 3.6774,-16.74264 4.924,-20.09476 7.8514,-21.11211 11.6324,-50.069395 12.0001,-91.905235 0.321,-36.5098588 0.2691,-35.50000006 1.8244,-35.50000006 1.0661,0 1.4876,4.06459216 1.9966,19.25000006 0.9119,27.208654 0.023,46.260472 -3.4661,74.25 -2.0707,16.613835 -3.1797,21.554995 -7.8552,34.999995 -1.5302,4.4 -3.9746,14.525 -5.4321,22.5 -1.4576,7.975 -3.5212,18.775 -4.5859,24 -2.9168,14.31426 -4.0842,27.57819 -3.0364,34.5 0.7991,5.27951 2.0767,9.26945 8.645,27 1.8948,5.11478 6.0096,19.45518 8.8951,31 6.0115,24.05156 9.9391,34.06059 17.5294,44.67067 1.4442,2.01887 3.3868,5.66308 4.3168,8.09826 1.1722,3.06925 3.0639,5.41358 6.1662,7.64147 2.4613,1.76763 4.4752,3.67652 4.4752,4.24199 0,0.56546 8.5796,9.45646 19.0658,19.75776 10.4862,10.30131 20.7237,20.81751 22.75,23.36934 2.0263,2.55183 6.3842,7.88218 9.6842,11.84521 3.3,3.96303 7.575,9.14616 9.5,11.51807 15.4323,19.01502 21.8956,26.44862 32.4735,37.34855 6.6766,6.87977 15.0095,15.55847 18.5176,19.28599 3.5081,3.72753 7.5327,7.05224 8.9436,7.38826 3.6253,0.86339 4.4548,1.47568 3.1183,2.3017 -0.7268,0.44914 14.4847,16.19618 40.6924,42.125 49.9438,49.41253 58.5224,59.74662 71.805,86.49895 3.0911,6.22565 3.3845,7.44626 2.4043,10 -0.8295,2.16087 -0.8003,6.31306 0.1136,16.14881 1.8161,19.54635 1.0079,26.68484 -5.3506,47.25997 -2.9746,9.625 -6.5977,19.83727 -8.0514,22.69394 -1.4802,2.90872 -7.1766,9.94834 -12.947,16 -5.667,5.94333 -11.702,12.84636 -13.4109,15.34005 -6.8975,10.06466 -25.9256,24.68943 -39.3084,30.21191 -1.925,0.79436 -4.1312,2.2054 -4.9027,3.13565 -2.5675,3.09588 -13.5844,8.53378 -24.5985,12.14172 -5.9864,1.96101 -12.4851,4.43176 -14.4416,5.49055 -1.9565,1.05879 -6.0322,3.00813 -9.0572,4.33186 -5.3233,2.32947 -7.9802,4.29147 -28.3216,20.91423 -17.3523,14.18016 -24.5349,24.13985 -29.3424,40.68764 -3.2486,11.18171 -5.689,30.70763 -4.8808,39.05245 1.3709,14.15628 11.6328,38.05865 22.8307,53.17828 7.5655,10.21494 9.9954,16.47859 9.4268,24.29962 -2.1935,30.16994 -3.4715,36.22414 -9.3199,44.14979 -1.2694,1.72024 -3.2062,5.49154 -4.304,8.38064 -3.4679,9.1269 -6.2857,12.3718 -14.7672,17.0056 -4.3019,2.3503 -8.8142,5.2524 -10.0274,6.4491 -2.5624,2.5276 -13.4026,7.985 -21.2008,10.6732 -2.9736,1.0251 -5.4486,1.8283 -5.5,1.7849 -0.051,-0.043 -0.6559,-0.306 -1.3434,-0.5834 z M 1178.5696,840.75277 c -0.8273,-1.44837 -1.277,-5.99092 -1.2623,-12.75 0.019,-8.61726 0.4122,-11.35172 2.1938,-15.25 2.4845,-5.43634 4.2859,-5.9293 7.8022,-2.13513 2.1655,2.33661 6.4811,11.94031 6.4811,14.42264 0,0.52937 0.4079,0.96249 0.9064,0.96249 0.4985,0 0.6899,0.82758 0.4254,1.83906 -0.2645,1.01149 -0.055,4.17961 0.4645,7.04027 1.2177,6.6998 -0.7013,6.49035 -2.615,-0.28541 -1.0805,-3.82527 -1.665,-4.60685 -3.011,-4.02619 -0.9187,0.39629 -3.0203,0.76817 -4.6703,0.8264 -2.9365,0.10363 -3.0063,0.22757 -3.2999,5.85587 -0.3191,6.11746 -1.3288,7.15229 -3.4149,3.5 z m 11.0966,-12.65581 c 2.4127,-1.52805 -1.4594,-14.47903 -4.9793,-16.65446 -1.4037,-0.8675 -3.083,1.54251 -2.4809,3.56027 0.2462,0.825 0.773,2.58287 1.1705,3.90637 0.5317,1.76968 0.3991,2.20625 -0.5009,1.64999 -0.9019,-0.5574 -1.1406,0.25642 -0.9075,3.09363 0.174,2.11751 0.8413,3.85001 1.483,3.85001 0.6416,0 1.5041,0.3375 1.9166,0.75 0.9852,0.98513 2.5889,0.92701 4.2985,-0.15581 z M 124.62952,602.96066 c -2.11484,-2.22316 -3.84516,-4.47316 -3.84516,-5 0,-2.14501 2.55961,-0.68641 7.09328,4.04211 4.04786,4.22185 4.46737,5 2.6955,5 -1.15415,0 -3.82878,-1.81895 -5.94362,-4.04211 z m 17.6727,2.07101 c -0.34878,-0.56434 0.84087,-0.91692 2.8402,-0.84175 1.92143,0.0722 5.03013,-0.80865 7.04115,-1.99518 4.55554,-2.68784 4.77241,-1.07919 0.23276,1.72647 -3.51424,2.17192 -9.08039,2.78304 -10.11411,1.11046 z m -25.36059,-14.0289 c -2.21079,-3.5993 -3.03198,-12.34136 -1.26205,-13.43524 1.13289,-0.70017 2.10478,1.77843 2.10478,5.3678 0,1.52295 0.49069,4.17658 1.09042,5.89697 1.67936,4.81742 0.50355,6.13758 -1.93315,2.17047 z m 48.06287,-1.99166 c 1.79524,-3.14317 2.34635,-3.57927 2.59265,-2.05159 0.41696,2.58619 -1.51534,6.04325 -3.37783,6.04325 -1.1951,0 -1.03773,-0.80005 0.78518,-3.99166 z m 850.7799,3.05068 c 0,-0.58246 0.45,-1.05902 1,-1.05902 0.55,0 1,0.19844 1,0.44098 0,0.24254 -0.45,0.7191 -1,1.05902 -0.55,0.33992 -1,0.14148 -1,-0.44098 z m 282.5371,-12.99903 c -0.3306,-0.53496 -1.3356,-0.69082 -2.2332,-0.34638 -1.0036,0.38514 -1.3826,0.2227 -0.9842,-0.42192 0.3763,-0.60876 -0.6484,-1.30743 -2.4442,-1.66659 -2.213,-0.44261 -2.928,-1.04579 -2.5152,-2.12175 0.3911,-1.01897 -0.047,-1.50335 -1.3603,-1.50335 -1.2506,0 -1.7466,-0.49673 -1.3994,-1.40146 0.7203,-1.87714 4.3994,-2.807 4.3994,-1.11191 0,1.92757 3.0255,2.73472 4.8002,1.28062 1.3333,-1.09244 1.464,-0.94664 0.9474,1.05696 -0.4009,1.55498 0.026,2.94951 1.2901,4.21353 1.0392,1.03912 1.4869,2.13806 0.9949,2.4421 -0.4919,0.30403 -1.1649,0.1151 -1.4955,-0.41985 z M 166.39462,571.80407 c -0.33564,-1.67821 -0.61026,-3.76648 -0.61026,-4.64059 0,-1.39427 0.17598,-1.40961 1.4342,-0.125 2.24094,2.28796 2.98249,6.59041 1.25045,7.25506 -1.02611,0.39375 -1.6467,-0.35102 -2.07439,-2.48947 z m 1100.07258,1.81457 c -0.3275,-0.8535 -0.2232,-1.78187 0.2317,-2.06304 0.455,-0.28116 1.099,-1.87058 1.4313,-3.53202 0.4373,-2.18637 1.1725,-3.02081 2.6614,-3.02081 1.1988,0 2.4346,-0.93888 2.9616,-2.25 0.693,-1.7239 0.9192,-1.84081 0.9678,-0.5 0.035,0.9625 0.5884,1.75 1.2301,1.75 0.6416,0 0.8705,0.2961 0.5086,0.65799 -0.3619,0.3619 -0.1568,1.2619 0.4558,2 1.4209,1.71206 -0.5498,4.34201 -3.2535,4.34201 -1.2109,0 -1.8776,0.71014 -1.8776,2 0,2.1668 -1.4639,2.67641 -2.566,0.89324 -0.491,-0.79451 -0.8916,-0.77086 -1.4198,0.0838 -0.5326,0.86165 -0.9004,0.76184 -1.3314,-0.36121 z M 115.78436,569.01213 c 0,-3.9683 6.37112,-12.04123 9.42431,-11.94168 2.0578,0.0671 2.05716,0.0766 -0.0743,1.10817 -1.18247,0.57227 -3.34051,3.22795 -4.79565,5.90151 -2.6801,4.92424 -4.55441,6.95393 -4.55441,4.932 z m 1318.31494,-7.00936 c 0.1018,-1.375 1.0028,-3.10919 2.0023,-3.85375 0.9994,-0.74457 1.5938,-1.93571 1.3209,-2.64698 -0.3068,-0.79942 0.5267,-1.48977 2.1828,-1.80794 3.3265,-0.63909 3.8396,-0.19208 2.1359,1.86072 -1.1084,1.3356 -1.0955,1.74422 0.079,2.46979 0.7737,0.47818 1.0618,1.21435 0.6403,1.63593 -0.4216,0.42159 -1.7113,0.1765 -2.8661,-0.54464 -1.8403,-1.14932 -2.0213,-1.10737 -1.4659,0.33979 0.3714,0.968 0.2246,1.39822 -0.3551,1.04 -0.5442,-0.33602 -0.989,-0.10784 -0.989,0.50708 0,0.61492 -0.4159,0.86097 -0.9243,0.54677 -0.5084,-0.31419 -1.1542,0.22175 -1.4352,1.19099 -0.3002,1.03564 -0.4345,0.73146 -0.3256,-0.73776 z M 156.64514,558.07375 c -1.69704,-1.38667 -2.05751,-2.23819 -1.2821,-3.02868 0.78165,-0.79686 1.81426,-0.52105 3.75,1.0016 1.46923,1.15569 2.67132,2.5186 2.67132,3.02868 0,1.55342 -2.64262,1.03839 -5.13922,-1.0016 z m 1275.19546,-1.63864 c 0.6437,-0.77568 1.5694,-1.16372 2.0571,-0.86231 1.3201,0.81588 1.101,1.14067 -1.1705,1.73466 -1.6808,0.43956 -1.843,0.27999 -0.8866,-0.87235 z m 15.1313,-11.49484 c 0.2406,-0.72187 1.0281,-1.50937 1.75,-1.75 0.75,-0.25 1.125,0.125 0.875,0.875 -0.2406,0.72187 -1.0281,1.50937 -1.75,1.75 -0.75,0.25 -1.125,-0.125 -0.875,-0.875 z M 136.93049,533.83945 c -3.9379,-6.02025 -7.14613,-14.77167 -7.14613,-19.49323 0,-5.83912 5.73598,-9.16067 10.97636,-6.3561 3.09614,1.657 6.02364,7.43105 6.02364,11.88068 0,4.02404 0.0879,4.13197 3.36514,4.13197 3.59061,0 8.63486,3.22222 8.63486,5.51588 0,1.94453 -3.97721,4.48412 -7.02251,4.48412 -3.24589,0 -4.97749,-1.6957 -4.97749,-4.87431 l 0,-2.47432 -2.45662,2.30787 c -2.2722,2.13463 -2.35112,2.51188 -1.05124,5.02556 1.05824,2.04641 1.12162,3.00144 0.25662,3.86644 -1.97862,1.97862 -3.1472,1.26809 -6.60263,-4.01456 z m 4.81869,-8.77094 c 1.68367,-3.14597 1.19183,-7.53752 -1.24999,-11.16093 -5.40219,-8.01632 -8.54232,-2.7271 -4.1679,7.0204 2.92083,6.5085 3.79362,7.17551 5.41789,4.14053 z m 812.03518,-2.00672 c 0,-0.58246 0.45,-1.05902 1,-1.05902 0.55,0 1,0.19844 1,0.44098 0,0.24254 -0.45,0.7191 -1,1.05902 -0.55,0.33992 -1,0.14148 -1,-0.44098 z m 47.05534,-46.66327 c -5.90615,-4.40466 -10.04902,-8.19985 -10.04003,-9.1974 0.0178,-1.97451 1.9455,-5.37996 1.96938,-3.47908 0.008,0.6706 2.37781,2.78449 5.26531,4.69752 5.66454,3.75286 7.45434,5.2858 12.56744,10.76351 2.6235,2.81062 3.0011,3.67536 1.8053,4.13425 -0.9311,0.35728 -5.3761,-2.30141 -11.5674,-6.9188 z m 44.5997,-9.22449 c -0.9103,-1.00581 -1.655,-2.99951 -1.655,-4.43045 0,-1.81699 -0.5962,-2.69809 -1.9766,-2.92126 -1.7555,-0.2838 -1.8377,-0.59584 -0.7355,-2.78932 1.6407,-3.26515 6.2492,-5.89308 7.7328,-4.4095 0.6003,0.60028 1.1787,3.06869 1.2854,5.48535 0.1816,4.11573 0.3869,4.41281 3.2421,4.69223 2.2592,0.22109 4.2006,-0.61453 7.5,-3.22808 5.0124,-3.97048 6.1543,-3.25204 2.9841,1.8775 -4.228,6.84101 -14.4772,10.03309 -18.3773,5.72353 z m -22.9619,-1.95786 c -2.3083,-2.55068 -4.6931,-8.65979 -4.6931,-12.02235 0,-4.50294 2.6553,-12.19519 5.1125,-14.81078 4.0999,-4.3642 11.1828,-2.57751 14.3932,3.63077 2.0673,3.99763 1.8483,12.6124 -0.4491,17.67264 -2.9469,6.49073 -10.7686,9.50198 -14.3635,5.52972 z m 9.0667,-5.22986 c 4.5399,-5.2606 2.0252,-17.98354 -3.5545,-17.98354 -4.4178,0 -5.9539,12.50731 -2.1327,17.36514 2.4889,3.16421 3.4043,3.26373 5.6872,0.6184 z m -51.25816,-9.73354 c -1.52407,-1.5125 -5.15028,-6.29348 -8.05824,-10.62441 -4.63033,-6.89613 -5.15288,-8.16919 -4.2061,-10.24714 1.04517,-2.29391 1.11732,-2.3077 2.17187,-0.41491 0.59994,1.0768 3.37383,5.23802 6.1642,9.24714 8.06614,11.58917 9.82847,14.78932 8.14451,14.78932 -0.79485,0 -2.69216,-1.2375 -4.21624,-2.75 z m 463.09116,-5.07058 c -2.2659,-4.38181 -5.5928,-18.49639 -5.5928,-23.728 0,-6.21688 2.8514,-10.77469 8.0394,-12.85052 4.6431,-1.85779 4.9606,-1.90319 4.9606,-0.70931 0,0.49038 -1.0951,1.16645 -2.4336,1.50239 -4.5799,1.14949 -8.1247,8.56438 -6.9359,14.50834 0.7215,3.60783 2.2742,3.86339 9.7298,1.60149 4.1713,-1.2655 4.6917,-1.27143 3.6712,-0.0418 -1.6024,1.93083 -9.6093,4.91695 -10.9547,4.08548 -0.5932,-0.36664 -1.0768,0.0346 -1.0768,0.89349 0,0.85746 0.3875,1.55902 0.8611,1.55902 0.4736,0 1.1276,2.5875 1.4533,5.75 0.3257,3.1625 0.8906,6.7625 1.2555,8 0.9574,3.24725 -1.2185,2.83023 -2.9771,-0.57058 z m 30.6876,-8.00611 c -0.6615,-0.40887 -1.9013,-2.41513 -2.755,-4.45836 -0.8537,-2.04322 -2.2212,-3.71495 -3.0388,-3.71495 -1.6557,0 -1.9505,2.71819 -0.5373,4.95225 1.3562,2.14376 0.2224,3.21002 -2.0946,1.96996 -2.8137,-1.5058 -4.8547,-6.92517 -4.8547,-12.89009 0,-4.31325 0.2771,-5.03212 1.9396,-5.03212 1.5187,0 2.007,0.81216 2.25,3.74168 0.2169,2.61495 0.8374,3.84155 2.0604,4.07333 1.5228,0.28859 1.75,-0.5217 1.75,-6.24169 0,-5.75224 0.2334,-6.57332 1.8683,-6.57332 1.4345,0 1.9974,0.96236 2.4242,4.14412 0.3057,2.27927 1.0661,4.45945 1.6897,4.84486 0.6594,0.40756 0.8691,1.75541 0.5011,3.22159 -0.348,1.38647 -0.1163,4.43853 0.5148,6.78235 1.1691,4.34176 0.4474,6.51847 -1.7177,5.18039 z M 962.48309,414.22237 c -4.0136,-4.43498 -9.54478,-22.71255 -8.33363,-27.53816 0.74231,-2.95758 2.6349,-2.76871 2.6349,0.26296 0,1.0045 1.83123,7.77171 4.0694,15.03825 2.23817,7.26654 3.88541,13.39587 3.66053,13.62075 -0.22487,0.22487 -1.13891,-0.39784 -2.0312,-1.3838 z M 950.8227,363.35655 c -2.46828,-5.57997 -3.56689,-13.76339 -2.55304,-19.01729 0.60855,-3.15354 0.87239,-3.48046 1.48216,-1.83649 0.40801,1.1 1.03813,4.925 1.40027,8.5 0.36214,3.575 1.28682,8.8625 2.05484,11.75 1.72837,6.49808 0.37474,6.84087 -2.38423,0.60378 z m 437.7862,-33.02796 c 0.4267,-2.09296 0.6782,-2.34442 0.9696,-0.9696 0.2164,1.02092 -0.043,2.29254 -0.5761,2.82582 -0.6262,0.62614 -0.7656,-0.0314 -0.3935,-1.85622 z M 944.22403,313.55104 c -3.74675,-5.71827 -5.30888,-21.98844 -2.957,-30.79827 1.5633,-5.85589 2.51733,-2.24338 2.51733,9.53207 0,7.36505 0.56769,14.47057 1.41801,17.74866 0.77991,3.00662 1.26587,5.61873 1.07991,5.80469 -0.18596,0.18596 -1.11217,-0.84326 -2.05825,-2.28715 z m -4.72882,-44.54827 c -0.99647,-3.64454 -0.8606,-11.10341 0.35174,-19.30845 1.4134,-9.56584 2.72712,-13.50864 4.88601,-14.66404 2.52632,-1.35205 3.0591,-0.35021 1.48827,2.79858 -0.74245,1.48828 -2.07689,8.32375 -2.96542,15.18994 -0.88853,6.86618 -1.94436,13.83397 -2.34629,15.48397 l -0.73078,3 -0.68353,-2.5 z m 31.89216,-24.83333 c -0.28327,-0.45834 0.12038,-0.83334 0.89699,-0.83334 0.77661,0 1.18026,0.375 0.89699,0.83334 -0.28326,0.45833 -0.68691,0.83333 -0.89699,0.83333 -0.21008,0 -0.61373,-0.375 -0.89699,-0.83333 z m 3.39699,-4.10765 c 0,-0.58246 0.45,-1.05902 1,-1.05902 0.55,0 1,0.19844 1,0.44098 0,0.24254 -0.45,0.7191 -1,1.05902 -0.55,0.33992 -1,0.14148 -1,-0.44098 z m 6,-9.45203 c 0,-0.21616 0.69837,-0.661 1.55194,-0.98855 0.88992,-0.34149 1.29132,-0.17385 0.94098,0.39301 -0.58726,0.95021 -2.49292,1.40545 -2.49292,0.59554 z m -30,-6.16723 c 0,-2.47788 8.79767,-23.40605 12.30834,-29.27945 3.00443,-5.02645 6.20909,-7.97622 7.3864,-6.79891 0.28789,0.2879 -0.37182,1.78686 -1.46603,3.33102 -1.664,2.34827 -5.37157,9.91888 -15.45093,31.54978 -1.41101,3.02811 -2.77778,3.61736 -2.77778,1.19756 z m 26,-18.82173 c 0,-1.375 0.39375,-2.74335 0.875,-3.04078 0.48125,-0.29742 0.875,0.58422 0.875,1.95922 0,1.375 -0.39375,2.74336 -0.875,3.04078 -0.48125,0.29743 -0.875,-0.58422 -0.875,-1.95922 z m 0,-29.58436 c 0,-1.87479 2.98914,-7.20496 7.30925,-13.03367 5.20591,-7.02385 15.85495,-19 16.89459,-19 2.0803,0 0.2569,3.53336 -5.45384,10.56849 -3.4375,4.23473 -8.65028,10.90171 -11.58395,14.81551 -5.31046,7.08465 -7.16605,8.80653 -7.16605,6.64967 z m 185.00294,-11.52601 c -1.3231,-3.48007 -1.2894,-14.21254 0.047,-15.03862 0.5776,-0.35695 3.2583,1.41649 5.9572,3.94098 2.6988,2.52449 5.4888,4.58309 6.1999,4.57467 3.6624,-0.0434 5.7928,-4.54837 5.7928,-12.24979 0,-6.0195 1.8336,-5.39465 2.6796,0.91317 0.7327,5.46277 -1.2465,12.02207 -4.2145,13.96672 -2.2763,1.49151 -3.5224,1.50338 -10.4651,0.0997 -0.275,-0.0556 -0.7285,1.2179 -1.0077,2.83001 -0.6762,3.90385 -3.6529,4.47848 -4.9894,0.96317 z m -141.9029,-38.55677 c 2.9214,-4.47492 25.7306,-23.95089 28.05,-23.95089 0.4675,0 0.85,0.62445 0.85,1.38766 0,1.49324 -21.5909,19.8406 -27.1405,23.06323 l -3.3595,1.95088 1.6,-2.45088 z m -126.10004,-6.45089 c 0,-0.83333 0.88889,-1.5 2,-1.5 1.1,0 2,-0.66535 2,-1.47856 0,-1.21422 0.44696,-1.27491 2.5,-0.33949 3.18303,1.45029 3.21168,2.81805 0.059,2.81805 -1.34254,0 -2.7191,0.45 -3.05902,1 -0.95485,1.54499 -3.5,1.18139 -3.5,-0.5 z"
     id="path3067"
     style="fill:#000000" />
</svg>
