<?xml version="1.0" encoding="UTF-8" standalone="no"?>
<!-- Created with Inkscape (http://www.inkscape.org/) -->

<svg
   xmlns:dc="http://purl.org/dc/elements/1.1/"
   xmlns:cc="http://creativecommons.org/ns#"
   xmlns:rdf="http://www.w3.org/1999/02/22-rdf-syntax-ns#"
   xmlns:svg="http://www.w3.org/2000/svg"
   xmlns="http://www.w3.org/2000/svg"
   version="1.1"
   width="1573.9587"
   height="1776"
   id="svg3037">
  <metadata
     id="metadata3043">
    <rdf:RDF>
      <cc:Work
         rdf:about="">
        <dc:format>image/svg+xml</dc:format>
        <dc:type
           rdf:resource="http://purl.org/dc/dcmitype/StillImage" />
        <dc:title></dc:title>
      </cc:Work>
    </rdf:RDF>
  </metadata>
  <defs
     id="defs3041" />
  <path
     d="m 580.35743,1775.5311 c 0,-0.258 3.36616,-4.7753 7.48034,-10.0384 4.11419,-5.2632 8.6869,-11.6896 10.16158,-14.281 3.7289,-6.5526 7.71801,-10.6359 15.85808,-16.2322 3.85,-2.6469 8.26735,-6.1913 9.81633,-7.8765 3.21308,-3.4955 15.56254,-11.2946 30.18367,-19.0621 5.5,-2.9219 13.15,-7.6624 17,-10.5346 3.85,-2.8722 10.15,-6.9583 14,-9.0804 3.85,-2.122 9.25,-5.5589 12,-7.6377 2.75,-2.0787 5.42925,-3.7814 5.95388,-3.7838 0.52464,0 5.24964,-2.0419 10.5,-4.5324 13.9471,-6.6156 26.75495,-12.0043 38.54612,-16.2177 8.00231,-2.8595 43.01621,-11.7264 50.57487,-12.8075 3.60711,-0.5159 23.61338,-4.0955 27.42513,-4.9069 3.60477,-0.7674 11.20272,-1.6011 18.5,-2.0298 10.78445,-0.6336 17.22506,-1.5094 18.5,-2.5157 1.7836,-1.4077 21.74404,-4.8351 31.5,-5.4088 5.225,-0.3072 11.975,-0.83 15,-1.1618 3.025,-0.3317 9.325,-0.4624 14,-0.2904 17.3589,0.6386 55.4048,-0.7018 61.7516,-2.1756 2.3384,-0.543 9.1656,-1.3823 15.17167,-1.8651 6.0061,-0.4828 11.3105,-1.1191 11.7877,-1.414 0.4771,-0.2949 6.9248,-0.8334 14.3282,-1.1966 7.8236,-0.3839 18.6957,-1.7214 25.9608,-3.1937 6.875,-1.3932 15.65,-3.129 19.5,-3.8573 13.8501,-2.62 24.1419,-5.2463 32.1308,-8.1991 4.4719,-1.6528 11.2219,-3.7725 15,-4.7104 3.7781,-0.9379 8.2192,-2.3219 9.8692,-3.0755 1.65,-0.7537 8.5753,-3.4068 15.3896,-5.8959 11.4708,-4.19 15.3753,-6.3156 20.6104,-11.2198 1.1,-1.0305 6.275,-5.3075 11.5,-9.5045 11.051,-8.8767 15.9566,-14.3559 27.3353,-30.5313 4.5633,-6.487 10.4047,-14.6565 12.9808,-18.1545 2.5761,-3.498 4.6839,-6.7835 4.6839,-7.301 0,-0.5175 1.7691,-5.0975 3.9314,-10.1778 4.8845,-11.4761 9.49,-33.1088 10.9985,-51.6612 0.6037,-7.425 1.322,-16.2 1.596,-19.5 0.5164,-6.2164 -0.9229,-16.0593 -5.0445,-34.5 -1.2908,-5.775 -3.5485,-16.125 -5.0173,-23 -1.4687,-6.875 -3.5604,-15.8086 -4.6482,-19.8524 -1.7053,-6.339 -1.8778,-9.0266 -1.252,-19.5 0.3993,-6.6812 0.8091,-18.6726 0.9107,-26.6476 0.1016,-7.975 0.5175,-16.975 0.9241,-20 1.4081,-10.4743 3.6388,-21.3995 5.5001,-26.9373 1.0283,-3.0595 2.8808,-8.7127 4.1167,-12.5627 2.6387,-8.2203 5.3667,-13.2738 11.0402,-20.4512 4.2131,-5.33 5.1539,-5.886 26.2385,-15.5057 8.3535,-3.8112 19.9148,-11.9301 21.9872,-15.4405 2.899,-4.9106 4.323,-17.7497 2.986,-26.923 -0.6269,-4.3011 -1.8685,-9.6414 -2.7591,-11.8672 -1.5376,-3.8429 -1.8812,-4.0793 -6.8138,-4.6889 -4.307,-0.5324 -18.5673,-2.2235 -43.1945,-5.1226 -22.1258,-2.6047 -31.2628,-3.6948 -38.5,-4.5936 -12.595,-1.5641 -43.9771,-4.8523 -56.1401,-5.8824 -5.852,-0.4956 -13.277,-1.367 -16.5,-1.9364 -6.5993,-1.166 -33.4828,-4.5011 -49.3599,-6.1234 -5.775,-0.5902 -12.075,-1.4386 -14,-1.8855 -1.925,-0.4469 -5.075,-0.8655 -7,-0.9302 -4.0974,-0.1378 -26.007,-2.4731 -48,-5.1163 -8.525,-1.0246 -20.44997,-2.3738 -26.49997,-2.9983 -6.05,-0.6245 -13.475,-1.545 -16.5,-2.0457 -3.025,-0.5006 -9.8639,-1.2129 -15.1975,-1.5828 l -9.6976,-0.6726 -0.636,2.8831 c -0.3497,1.5858 -0.8165,3.4646 -1.0371,4.1751 -0.8428,2.714 -6.9149,44.1892 -8.9611,61.2081 -0.8266,6.875 -2.4627,17.225 -3.63577,23 -1.17306,5.775 -2.06608,11.9625 -1.98448,13.75 0.10917,2.3917 -0.27996,3.25 -1.47349,3.25 -1.30658,0 -1.38692,0.2831 -0.41331,1.4562 0.66469,0.8009 0.95681,1.8635 0.64916,2.3613 -0.30765,0.4978 -0.8382,2.655 -1.179,4.7938 -0.3408,2.1388 -0.85206,5.3512 -1.13613,7.1387 -0.28407,1.7875 -0.95681,3.25 -1.49498,3.25 -0.57401,0 -0.72279,-1.5502 -0.35992,-3.75 0.83925,-5.0879 1.56638,-10.0685 2.06699,-14.1583 0.22945,-1.8746 0.67807,-5.0246 0.99693,-7 0.31886,-1.9754 1.50102,-10.1167 2.62704,-18.0917 2.31444,-16.3921 2.35909,-16.7011 3.39893,-23.5231 0.41723,-2.7373 0.88153,-6.1019 1.03173,-7.4769 0.1502,-1.375 0.3443,-2.5 0.4314,-2.5 0.087,0 0.3523,-2.025 0.5894,-4.5 0.3754,-3.9175 1.5763,-11.6344 3.1125,-20 0.4735,-2.579 2.2304,-15.3415 2.4778,-18 0.077,-0.825 0.069,-3.1097 -0.018,-5.0771 l -0.1575,-3.5772 -6.25,-1.1065 c -3.4375,-0.6086 -15.25,-2.05 -26.25,-3.2031 -11,-1.1532 -28.55,-3.1874 -39,-4.5206 -10.45,-1.3332 -22.375,-2.6932 -26.5,-3.0221 -4.125,-0.3289 -12,-1.2512 -17.5,-2.0495 -8.72059,-1.2658 -18.99156,-2.4582 -43,-4.9922 -3.3,-0.3483 -12.075,-1.461 -19.5,-2.4728 -7.425,-1.0117 -21.15,-2.5702 -30.5,-3.4632 -9.35,-0.8931 -25.775,-2.7083 -36.5,-4.034 -61.32546,-7.5799 -64.16326,-7.8608 -66.2473,-6.5593 -1.7023,1.0631 -2.44088,0.9449 -4.74584,-0.7592 -2.94287,-2.1758 -10.96111,-3.5703 -27.23625,-4.7368 -7.85342,-0.5629 -9.82426,-0.4302 -10.22143,0.6881 -0.27062,0.762 -1.39612,7.6855 -2.50111,15.3855 -1.10499,7.7 -3.15704,21.65 -4.5601,31 -1.40307,9.35 -3.23559,22.625 -4.07226,29.5 -0.83667,6.875 -3.96357,30.05 -6.94866,51.5 -10.42858,74.9367 -12.38033,89.275 -17.42352,128 -4.38955,33.7059 -6.68858,50.1516 -8.45763,60.5 -0.94181,5.5093 -2.52185,16.8268 -3.12324,22.3711 -0.35026,3.2291 -1.23833,7.5759 -1.97349,9.6596 -0.73516,2.0837 -1.10488,4.0203 -0.82161,4.3035 0.82179,0.8218 -0.69689,4.6658 -1.84336,4.6658 -0.63825,0 -0.77088,-1.064 -0.34281,-2.75 0.38402,-1.5125 0.89166,-6.575 1.12809,-11.25 0.23643,-4.675 0.66166,-9.5407 0.94496,-10.8126 0.64826,-2.9105 3.3147,-22.0371 3.99932,-28.6874 0.2831,-2.75 1.84233,-14.675 3.46496,-26.5 3.60481,-26.2702 5.05985,-37.1102 9.46317,-70.5 1.88583,-14.3 4.31979,-32.3 5.4088,-40 1.089,-7.7 2.90959,-20.75 4.04574,-29 1.13615,-8.25 3.15196,-22.875 4.47958,-32.5 1.32761,-9.625 2.6979,-19.975 3.04508,-23 0.75196,-6.5518 2.21201,-17.0605 7.62034,-54.8473 2.23151,-15.591 3.86481,-28.5398 3.62957,-28.775 -0.59863,-0.5987 -9.41511,-1.9214 -29.211,-4.3825 -9.35,-1.1624 -21.5,-2.7402 -27,-3.5063 -16.30124,-2.2704 -45.13029,-5.8733 -72.39863,-9.0477 -20.14021,-2.3447 -20.9076,-2.4406 -35.60137,-4.451 -7.7,-1.0535 -18.5,-2.3797 -24,-2.9471 -5.5,-0.5674 -17.875,-1.9432 -27.5,-3.0574 -9.625,-1.1141 -22,-2.4756 -27.5,-3.0256 -5.5,-0.5499 -11.125,-1.2173 -12.5,-1.4831 -1.375,-0.2657 -8.575,-1.1864 -16,-2.0459 -7.425,-0.8596 -16.875,-1.9541 -21,-2.4323 -4.125,-0.4782 -9.975,-1.147 -13,-1.4861 -3.025,-0.3391 -8.65,-1.0345 -12.5,-1.5454 -3.85,-0.5109 -10.375,-1.1873 -14.5,-1.5032 -4.125,-0.3158 -10.65,-0.9822 -14.5,-1.4809 -17.10497,-2.2154 -20.16802,-2.2907 -20.85023,-0.5129 -0.3529,0.9196 -1.31506,7.1116 -2.13815,13.76 -0.82308,6.6484 -1.7883,12.3538 -2.14494,12.6788 -0.35664,0.325 -0.35133,-1.6591 0.0118,-4.4091 2.71895,-20.5911 2.96397,-23.8859 1.80504,-24.2722 -1.6978,-0.5659 -1.4617,-2.2278 0.31649,-2.2278 0.825,0 1.50004,-0.5625 1.50008,-1.25 5e-5,-0.6875 1.59472,-12.05 3.54372,-25.25 1.949,-13.20003 3.95401,-27.15003 4.45559,-31.00003 2.03859,-15.64776 9.15534,-66.62755 10.53975,-75.5 0.81529,-5.225 3.03105,-20.3 4.92393,-33.5 9.74661,-67.96823 10.61269,-75.5 8.68181,-75.5 -0.47031,0 -8.81619,-1.125 -18.54639,-2.5 -9.73019,-1.375 -19.35789,-2.50689 -21.39488,-2.51531 -2.03698,-0.008 -4.30384,-0.3958 -5.03746,-0.86084 -2.31383,-1.46674 1.50183,-2.20449 6.14245,-1.18763 4.82356,1.05694 30.0264,3.4851 36.6612,3.53211 l 4.46981,0.0317 0.7753,-4.58257 c 1.36978,-8.09641 4.53306,-33.40552 4.22046,-33.76757 -0.84274,-0.97607 -2.43538,1.27391 -2.43538,3.44051 0,2.59647 -2.01754,4.00058 -4.42238,3.07776 -2.28604,-0.87724 -0.73277,-4.31747 4.10098,-9.08293 l 4.43397,-4.37135 3.97526,-28.35694 c 2.1864,-15.59632 4.63938,-33.08194 5.45108,-38.85694 0.8117,-5.775 2.35281,-16.125 3.42468,-23 1.07187,-6.875 3.31266,-22.625 4.97952,-35 3.30701,-24.55156 7.50381,-52.53659 11.62235,-77.5 1.45185,-8.8 3.06135,-19.825 3.57666,-24.5 2.25693,-20.47512 2.9068,-25.1827 3.86531,-28 0.46782,-1.375 1.13656,-7.37637 1.4861,-13.33637 0.34954,-5.96001 0.82625,-11.36001 1.05936,-12 0.62988,-1.72932 9.19134,-63.77002 9.99835,-72.45316 0.32206,-3.46519 0.29183,-3.49708 -1.53788,-1.62257 -4.54925,4.66066 -14.2349,31.96579 -18.41421,51.9121 -3.89841,18.60565 -12.68358,39.05561 -22.39321,52.12652 -7.28245,9.80347 -22.43468,25.04955 -28.19883,28.37348 -2.38444,1.375 -5.5913,3.68269 -7.12635,5.12821 -1.53506,1.44551 -3.02038,2.39884 -3.3007,2.11851 -0.76123,-0.76123 1.3281,-4.24672 2.54563,-4.24672 1.34938,0 11.35636,-8.44547 15.33176,-12.93937 1.6734,-1.89165 4.63774,-5.04165 6.58741,-7 12.70999,-12.76653 23.94815,-36.60594 30.4346,-64.56063 4.64283,-20.00921 8.1613,-31.87922 12.44954,-42 6.12115,-14.44669 6.12934,-13.32429 -0.0939,-12.86672 -30.94364,2.27515 -60.88601,4.73908 -77.33512,6.36383 -11,1.08653 -25.85,2.42574 -33,2.97603 -19.99215,1.53868 -94.766836,7.89561 -105.999996,9.01154 -10.48232,1.04134 -40.30389,3.47158 -56.5,4.60433 -18.8083225,1.31544 -7.947401,-0.45968 18.5,-3.02367 14.85,-1.43966 33.3,-3.27158 41,-4.07094 7.7,-0.79936 22.774996,-2.14518 33.499996,-2.99072 10.725,-0.84554 26.7,-2.1832 35.5,-2.97259 8.8,-0.78939 28.825,-2.57385 44.5,-3.96546 15.675,-1.39161 33,-2.99992 38.5,-3.57403 5.5,-0.5741 22.6,-2.15346 38,-3.50968 15.4,-1.35622 29.16938,-2.71527 30.59862,-3.0201 1.42924,-0.30483 4.07653,-2.07905 5.88287,-3.94273 3.33836,-3.44431 4.50927,-7.63465 6.43223,-23.01909 0.34373,-2.75 0.88476,-6.27273 1.20228,-7.82829 0.31751,-1.55555 0.71452,-3.80555 0.88224,-5 0.16772,-1.19444 0.7656,-5.09671 1.32863,-8.67171 0.56302,-3.575 1.72456,-11 2.58119,-16.5 0.85664,-5.5 2.18435,-13.24342 2.95047,-17.20759 0.76613,-3.96417 1.213,-7.38755 0.99305,-7.6075 -0.21995,-0.21995 0.35149,-1.02352 1.26988,-1.78571 1.53949,-1.27766 1.61477,-0.91813 0.96481,4.6075 -0.67162,5.70973 -4.93288,36.99749 -8.10471,59.50785 -2.18948,15.53864 -2.14067,15.98049 1.76844,16.0099 6.1827,0.0465 12.21257,2.05122 15.3831,5.11433 l 3.13311,3.02696 12.36689,-1.06921 c 6.8018,-0.58806 20.4669,-1.75076 30.3669,-2.58377 25.04156,-2.10705 48.00438,-4.13008 75.5,-6.65158 21.52272,-1.97376 23.71035,-2.3485 26,-4.45379 5.31895,-4.89069 28.60194,-13.5485 42.83591,-15.92859 7.19187,-1.20256 12.80242,-1.50276 19.8453,-1.06184 12.71826,0.79622 56.67151,2.63532 70.81879,2.9632 6.05,0.14022 13.475,0.79741 16.5,1.46042 3.025,0.66301 6.625,0.98002 8,0.70447 1.375,-0.27556 11.05,-1.20585 21.5,-2.06732 23.45131,-1.93327 25.07138,-2.37945 25.96663,-7.15155 0.60965,-3.24973 0.34306,-3.85867 -2.8369,-6.47986 -1.93039,-1.59118 -3.79638,-3.79603 -4.14666,-4.89965 -0.60847,-1.91714 -0.82052,-1.87152 -4.75697,1.02337 -4.77259,3.50981 -10.28462,4.02681 -13.64612,1.27996 -2.00493,-1.63833 -2.03954,-1.89465 -0.54237,-4.01673 1.78544,-2.53065 3.46239,-2.13072 3.46239,0.82575 0,2.52209 2.06328,2.46564 5.38512,-0.14732 3.59786,-2.83007 5.91736,-7.57041 5.16705,-10.55986 -0.33582,-1.33801 -3.0414,-5.07688 -6.01241,-8.30859 -2.97101,-3.23171 -6.0965,-7.2192 -6.94555,-8.86107 -1.46538,-2.83373 -1.43082,-3.05867 0.68103,-4.43208 3.01082,-1.95806 9.45566,-4.0075 10.98348,-3.49272 0.6827,0.23003 -0.89622,1.36592 -3.50872,2.5242 -2.6125,1.15828 -4.75,2.64065 -4.75,3.29416 0,2.10324 3.79408,7.29827 8.89122,12.17426 2.73099,2.6125 5.20224,4.75 5.49166,4.75 0.28941,0 1.69431,-1.1681 3.12199,-2.59578 1.90023,-1.90023 3.23395,-2.4356 4.97744,-1.99802 3.22424,0.80924 2.85726,2.50263 8.53987,-39.4062 1.67798,-12.375 4.38444,-31.63522 6.01435,-42.80048 1.62991,-11.16527 2.999,-21.06527 3.04242,-22 0.0434,-0.93474 0.28814,-1.19035 0.54383,-0.56804 0.43889,1.06823 -2.20339,22.88048 -6.70719,55.36852 -3.56109,25.68783 -6.01962,49.24986 -5.42254,51.96838 0.31985,1.45623 -0.11025,5.30362 -0.95576,8.54975 -2.30778,8.86018 -2.09041,11.48187 0.95198,11.48187 1.3691,0 4.8566,-0.89977 7.75,-1.9995 2.8934,-1.09972 6.11797,-1.99972 7.16572,-2 1.87331,-4.9e-4 1.87331,0.0351 0,2.14073 -2.68548,3.01852 -9.23005,5.81092 -13.67974,5.83681 -3.16187,0.0184 -3.93977,0.45599 -4.7911,2.69515 -1.9865,5.22491 -0.39926,5.53961 19.11542,3.7899 9.59774,-0.86054 19.92543,-2.02028 22.95043,-2.5772 3.025,-0.55691 13.825,-1.39393 24,-1.86004 10.175,-0.46611 23.45,-1.33524 29.5,-1.93141 6.05,-0.59616 14.6,-1.27824 19,-1.51572 7.48912,-0.40422 25.60646,-2.06903 33.5,-3.07834 1.925,-0.24614 16.325,-1.56911 32,-2.93994 15.675,-1.37082 33.45,-2.95744 39.5,-3.52581 13.63319,-1.28078 41.51952,-3.81918 55.50002,-5.05198 8.0243,-0.70759 11.6789,-0.6114 15.5,0.40795 l 5,1.33385 -3.5,0.65242 c -5.7337,1.0688 -20.2751,2.81944 -23.5,2.82917 -3.1017,0.009 -28.72259,2.04722 -48.00002,3.81789 -6.05,0.55571 -16.625,1.44676 -23.5,1.98011 -6.875,0.53336 -15.2,1.20332 -18.5,1.48881 -3.3,0.2855 -14.55,1.19025 -25,2.01056 -10.45,0.82032 -25.75,2.14529 -34,2.94439 -8.25,0.79909 -19.05,1.74264 -24,2.09678 -4.95,0.35413 -11.925,1.08487 -15.5,1.62385 -3.575,0.53898 -12.575,1.34562 -20,1.79252 -7.425,0.4469 -16.425,1.27919 -20,1.84954 -3.575,0.57034 -13.88373,1.84968 -22.90828,2.84296 -9.02456,0.99329 -16.94338,2.34107 -17.59739,2.99507 -0.654,0.65401 -2.41073,10.33814 -3.90385,21.52029 -1.49311,11.18215 -4.00794,28.43119 -5.58851,38.33119 -7.18869,45.02679 -7.93086,50.39285 -13.48504,97.5 -2.24259,19.02033 -4.19682,33.12131 -5.95928,43 -0.83407,4.675 -1.99009,14.575 -2.56892,22 -1.59272,20.43077 -3.9121,38.05196 -5.57704,42.37087 -0.88634,2.29919 -1.88291,10.35312 -2.45444,19.83581 -0.97562,16.18733 -1.55874,20.42984 -3.07485,22.37134 -1.31446,1.68326 -2.84076,14.07214 -2.86259,23.23546 -0.0225,9.44924 -2.82574,29.18652 -4.14527,29.18652 -0.481,0 -0.88984,3.2625 -0.90855,7.25 -0.0466,9.92753 -2.43091,29.40034 -3.80224,31.05269 -1.5285,1.84173 -3.00471,13.36861 -3.04764,23.7972 -0.0428,10.38554 -2.72481,29.33838 -4.56753,32.27658 -1.86179,2.96862 -3.104,12.08483 -1.51271,11.10136 0.89898,-0.5556 1.0227,0.82606 0.50532,5.64322 -0.37681,3.50842 -0.90794,7.1661 -1.18029,8.12817 -0.33329,1.17734 0.26237,2.03353 1.82196,2.61881 2.00275,0.7516 28.38937,4.33154 41.81714,5.67344 2.475,0.24734 5.41832,0.66162 6.54072,0.92064 1.12239,0.25902 6.07239,0.93644 11,1.50539 4.9276,0.56895 10.08428,1.2207 11.45928,1.44834 2.2971,0.38029 12.25127,1.45701 19.5,2.10925 1.65,0.14847 4.575,0.53387 6.5,0.85644 3.57167,0.5985 39.44379,5.10996 48.5,6.0996 13.20564,1.44308 22.69411,2.59201 30,3.63261 4.4,0.62671 9.35,1.29122 11,1.4767 5.66865,0.63721 12.00505,1.38963 15.5,1.84055 1.925,0.24836 5.75,0.71993 8.5,1.04792 2.75,0.32799 6.44969,0.77003 8.22153,0.9823 1.77185,0.21227 4.02185,0.63504 5,0.93949 2.80483,0.87299 11.43971,1.88847 15.26042,1.79465 1.91507,-0.047 4.27757,0.63453 5.25,1.51456 1.17448,1.06289 1.76805,1.1925 1.76805,0.38606 0,-0.68802 0.51872,-0.89342 1.19722,-0.47408 0.65848,0.40696 4.14598,0.82534 7.75,0.92974 7.29167,0.21122 12.81563,1.25564 13.63261,2.57753 0.29601,0.47896 1.29915,0.86395 2.22919,0.85553 1.45727,-0.0132 1.48367,-0.14929 0.19098,-0.98469 -0.90129,-0.58246 -1.02463,-0.97549 -0.30902,-0.98469 0.65504,-0.008 1.47364,0.44203 1.8191,1.001 0.34546,0.55897 1.04702,0.75742 1.55902,0.44098 0.51199,-0.31643 0.9309,-0.13627 0.9309,0.40036 0,1.68593 -2.06768,1.78074 -9.89904,0.45391 -4.18053,-0.70829 -10.30096,-1.52052 -13.60096,-1.80495 -3.3,-0.28443 -7.8,-0.79931 -10,-1.14417 -2.2,-0.34486 -5.8,-0.77144 -8,-0.94795 -14.91626,-1.19676 -19.33317,-1.82678 -21.86006,-3.1181 -1.85052,-0.94567 -2.60053,-1.04163 -2.12478,-0.27185 0.50333,0.8144 0.14371,1.01401 -1.13993,0.63275 -1.03138,-0.30634 -5.25023,-0.8627 -9.37523,-1.23635 -4.125,-0.37365 -7.90489,-0.91442 -8.39975,-1.20172 -0.49486,-0.28729 -2.51986,-0.65267 -4.5,-0.81194 -6.57844,-0.52914 -16.56627,-1.4843 -19.10025,-1.82662 -4.10311,-0.55429 -12.84933,-1.50315 -24,-2.60373 -16.2872,-1.60754 -43.01274,-4.92108 -48,-5.95122 -2.475,-0.51122 -7.425,-1.13954 -11,-1.39626 -6.04224,-0.43389 -23.5341,-2.4777 -52.5,-6.13427 -33.70835,-4.25525 -35.26089,-4.29605 -36.10104,-0.94861 -0.35154,1.40061 -0.39867,2.78705 -0.10475,3.08098 0.29393,0.29392 4.06047,1.16089 8.3701,1.92658 l 7.83569,1.39218 -8.1537,-0.53348 c -4.48454,-0.29341 -8.40683,-0.1239 -8.71622,0.3767 -0.30938,0.50059 -2.1459,12.34024 -4.08114,26.31032 -1.93524,13.97008 -3.95899,28.55015 -4.49723,32.40015 -2.20792,15.79323 -2.37638,14.35802 1.76644,15.04937 5.80225,0.96827 6.03429,1.28679 0.99924,1.37168 -3.55174,0.0599 -4.80794,0.50158 -5.20156,1.82895 -0.28542,0.9625 -1.46132,9.4 -2.61313,18.75 -1.1518,9.35 -3.19075,24.65 -4.53099,34 -4.21746,29.42251 -11.49747,84.69913 -12.13483,92.13903 -0.55055,6.4266 -0.42324,7.1952 1.27577,7.7017 2.4587,0.7331 15.87629,2.3761 25.38735,3.1089 7.01049,0.5401 7.6064,0.4281 9.13017,-1.7152 1.49327,-2.1003 1.49997,-2.8993 0.0798,-9.5136 -1.18867,-5.5362 -1.94868,-7.2208 -3.25772,-7.2208 -3.24464,0 -4.27429,-2.6449 -3.58753,-9.2155 0.35484,-3.3949 1.10502,-6.4568 1.66706,-6.8041 0.69146,-0.4274 0.65828,-2.3271 -0.10261,-5.875 -0.61848,-2.8839 -0.86815,-5.4998 -0.55482,-5.8131 1.23221,-1.2322 2.78274,5.5579 2.73083,11.9589 -0.0301,3.7132 0.38074,7.8967 0.91301,9.2967 0.85511,2.2491 1.36586,2.4707 4.38784,1.9037 3.71633,-0.6971 7.59396,0.1279 7.59396,1.6158 0,0.5129 -0.87071,0.9326 -1.9349,0.9326 -1.0642,0 -3.0853,0.4374 -4.49134,0.972 -2.16513,0.8231 -2.41695,1.3206 -1.64517,3.25 0.5012,1.2529 1.45822,5.0878 2.12671,8.522 0.66849,3.4342 1.76558,6.9964 2.43798,7.9159 1.45224,1.9861 21.01698,4.712 67.00672,9.3358 6.05,0.6083 11.78139,1.5331 12.73643,2.0551 0.95504,0.5221 4.10504,0.9572 7,0.967 4.4927,0.015 14.5728,0.9457 26.26357,2.4245 14.09608,1.7831 30.62683,3.7981 33.5,4.0834 1.925,0.1911 8.9,0.8598 15.5,1.486 6.6,0.6261 16.95,1.8119 23,2.6351 11.00083,1.4968 21.59585,2.7844 31,3.7673 21.79165,2.2776 55.43199,6.2806 72.38601,8.6135 11.21231,1.5429 20.95922,2.5853 21.65982,2.3165 0.7005,-0.2689 1.5109,-1.4688 1.8008,-2.6665 1.024,-4.2308 5.628,-35.2655 6.1829,-41.6776 0.3093,-3.575 1.4417,-11.1353 2.5165,-16.8008 1.0747,-5.6654 1.954,-11.9684 1.954,-14.0066 0,-2.0382 0.4662,-5.2778 1.036,-7.1992 1.0208,-3.4424 1.5024,-6.6443 2.4808,-16.4934 0.2732,-2.75 0.7272,-6.35 1.0088,-8 0.2816,-1.65 0.7005,-4.57503 0.9307,-6.50003 0.2303,-1.925 1.0752,-6.28405 1.8777,-9.68677 0.8025,-3.40273 1.2629,-6.383 1.0231,-6.62284 -0.2399,-0.23984 0.01,-3.30579 0.5484,-6.81323 0.5414,-3.50744 1.2522,-9.07716 1.5795,-12.37716 0.3273,-3.3 1.0474,-8.88562 1.6002,-12.4125 0.5528,-3.52687 1.4144,-9.60187 1.9146,-13.5 1.236,-9.63106 1.9746,-14.69587 2.5003,-17.14567 0.2429,-1.13199 0.693,-4.50699 1,-7.5 0.3071,-2.99301 0.8557,-7.46683 1.2192,-9.94183 0.3634,-2.475 0.7393,-5.175 0.8353,-6 0.096,-0.825 0.7418,-5.60631 1.435,-10.62514 0.6931,-5.01882 1.0693,-9.6981 0.8359,-10.39839 -0.3697,-1.10893 -4.4867,-2.06429 -10.0201,-2.32515 -1.3275,-0.0626 -1.4459,-0.37961 -0.5464,-1.46341 0.7395,-0.89109 2.2957,-1.19731 4.3721,-0.86036 4.023,0.65285 7.0675,-0.0997 7.7659,-1.91968 0.4938,-1.28698 3.4456,-21.9908 4.1213,-28.90787 0.1612,-1.65 0.5389,-4.8 0.8392,-7 0.3003,-2.2 1.2705,-9.4 2.1559,-16 0.8855,-6.6 2.2575,-16.5 3.0491,-22 1.3338,-9.26815 5.5133,-38.71359 10.43247,-73.5 7.4164,-52.4451 7.5708,-54.08573 4.9359,-52.45729 -0.512,0.31643 -0.9309,0.0566 -0.9309,-0.57731 0,-0.63395 0.844,-1.37336 1.8756,-1.64312 1.3636,-0.35659 2.05,-1.76291 2.5145,-5.15156 0.4085,-2.98065 0.2511,-4.79033 -0.4368,-5.01961 -0.7024,-0.23414 -0.5954,-0.9297 0.3085,-2.00482 0.7612,-0.90546 1.953,-5.69629 2.6485,-10.64629 0.6954,-4.95 2.5523,-18.225 4.1265,-29.5 2.715,-19.44636 6.1886,-42.98589 9.4442,-64 1.3107,-8.46054 3.806,-26.3566 5.0197,-36 0.7572,-6.01648 4.5444,-33.37495 4.9834,-36 0.23,-1.375 1.7851,-12.175 3.4557,-24 1.6707,-11.825 5.5472,-38.825 8.6146,-60 8.8903,-61.37216 11.4934,-81.35632 10.6933,-82.09363 -0.4112,-0.37901 -5.6977,-0.27856 -11.7477,0.22321 -21.6529,1.79585 -33.3145,2.37929 -32.8601,1.64402 0.9387,-1.51875 11.1992,-3.65947 22.8601,-4.76946 19.7188,-1.87701 19.8747,-1.90779 21.7096,-4.28722 2.0922,-2.71302 3.1511,-7.45586 5.37,-24.05216 l 1.7161,-12.83524 -2.7052,-2.50844 c -3.8457,-3.56593 -3.2305,-7.21263 1.6568,-9.82108 2.061,-1.1 3.777,-2.675 3.8134,-3.5 0.041,-0.92176 0.3949,-0.68626 0.919,0.6109 0.4691,1.16099 1.5656,2.38437 2.4366,2.71862 2.1916,0.84099 1.9818,2.33312 -0.4163,2.96023 -3.0237,0.79071 -2.5974,5.11962 0.75,7.61584 5.3458,3.98654 6.3794,5.43614 5.7559,8.0731 -0.9363,3.96006 -3.9088,7.42666 -7.3503,8.57205 -4.3984,1.46389 -4.9387,2.23799 -5.7228,8.19926 -0.6089,4.6299 -0.4797,5.25 1.094,5.25 0.9814,0 3.3903,-1.22484 5.353,-2.72186 1.9627,-1.49702 7.8551,-4.94522 13.0943,-7.66267 11.5344,-5.98255 17.6971,-10.50026 21.0334,-15.41878 1.5335,-2.26082 4.6409,-4.77216 8,-6.46551 3.0209,-1.52285 5.9425,-3.36185 6.4925,-4.08666 0.55,-0.72481 1.9,-1.76706 3,-2.31612 2.5135,-1.25458 13.3847,-3.79204 13.8787,-3.23946 0.2022,0.22608 3.6048,10.38905 7.5615,22.58436 l 7.1939,22.1733 10.9539,-0.0528 c 6.0247,-0.029 11.1754,-0.41099 11.446,-0.84884 0.2706,-0.43784 1.7916,-0.63159 3.3801,-0.43056 1.5884,0.20103 4.1701,0.0189 5.737,-0.40467 1.5669,-0.4236 4.3114,-0.44398 6.0989,-0.0453 1.7875,0.3987 3.25,0.42044 3.25,0.0483 0,-0.37212 1.1489,-0.77167 2.553,-0.88788 1.4042,-0.11621 3.3477,-0.6366 4.319,-1.15641 1.0121,-0.54168 4.1438,-0.62245 7.3362,-0.18923 7.3635,0.99924 8.4404,0.10606 8.2949,-6.87928 -0.063,-3.025 0.2002,-6.175 0.585,-7 0.3848,-0.825 0.2796,-4.16086 -0.2337,-7.41303 -1.2193,-7.72512 0.9512,-18.63417 4.9676,-24.9673 1.5999,-2.5228 3.3909,-6.50679 3.98,-8.85329 2.4984,-9.95207 5.0965,-25.90838 5.6144,-34.4805 0.3062,-5.06776 1.4627,-12.48372 2.5701,-16.4799 1.1074,-3.99618 2.0135,-8.59099 2.0135,-10.2107 0,-1.61971 1.0569,-6.12875 2.3487,-10.0201 2.6553,-7.9987 5.0129,-21.46934 4.1507,-23.71614 -0.3147,-0.82012 -0.116,-7.53641 0.4416,-14.92508 1.0694,-14.17058 2.2096,-52.227584 2.0953,-69.93396 -0.056,-8.647127 -0.9871,-19.163559 -2.4794,-28 -1.2391,-7.337264 -1.7087,-11.559462 -2.0018,-18 -0.1878,-4.125 -0.6707,-8.9625 -1.0732,-10.75 -0.5864,-2.60394972 -0.4179,-3.25 0.8478,-3.25 1.946,0 2.5252,3.3421461 4.2457,24.5 0.3131,3.85 0.8049,8.575 1.0928,10.5 1.2477,8.342117 2.5224,25.448803 2.4589,33 -0.063,7.439785 -1.0598,39.66477 -1.6866,54.5 -0.6527,15.44909 -3.9705,44.75045 -5.3625,47.35898 -0.4816,0.90256 -1.1753,4.34102 -1.5416,7.64102 -0.3662,3.3 -1.3577,8.91181 -2.2032,12.47068 -1.6966,7.14146 -3.3147,18.55276 -3.8326,27.02932 -0.3644,5.96465 -0.7167,7.95542 -1.6813,9.5 -0.3435,0.55 -0.9549,3.25 -1.3587,6 -1.0509,7.15695 -4.1517,16.42433 -6.8735,20.54285 -2.638,3.99173 -3.5129,8.29363 -3.7541,18.45715 -0.091,3.85 -0.5963,7.5625 -1.122,8.25 -0.6311,0.82531 -0.5745,1.25 0.1666,1.25 0.6173,0 1.1224,1.50785 1.1224,3.35078 0,1.84292 0.5149,4.82778 1.1442,6.63301 l 1.1442,3.28223 7.6058,-0.44484 c 11.8256,-0.69165 16.7554,0.58261 5.6058,1.44899 -11.1233,0.86434 -12.2375,1.06728 -13.658,2.48783 -1.5616,1.56162 1.304,13.11444 5.5898,22.53551 3.3807,7.43135 8.5916,20.27945 12.8868,31.77341 5.1884,13.88436 8.3636,18.35571 27.3529,38.51886 6.2603,6.64718 14.6263,16.32218 18.5913,21.5 3.965,5.17782 11.2,13.54037 16.0778,18.58345 5.76,5.95509 12.443,14.5432 19.0653,24.5 10.9751,16.50131 15.7424,23.12989 25.0548,34.83717 16.9317,21.28594 21.011,26.17568 22.5038,26.97461 0.8973,0.48021 3.9538,5.29343 6.7924,10.69605 7.1085,13.52979 11.8741,20.3459 17.7431,25.37744 5.6501,4.84387 21.9611,17.09624 28,21.03288 2.2,1.43413 9.85,8.37837 17,15.43166 7.15,7.05328 15.475,14.90521 18.5,17.44873 11.8274,9.94488 31.0113,29.99296 39.7427,41.53313 4.8815,6.45178 6.6886,9.47889 11.0432,18.4991 5.6496,11.70281 7.1981,17.34157 10.1708,37.03768 2.4392,16.16072 2.563,19.96232 0.6503,19.96232 -1.5677,0 -2.6008,2.10243 -2.6198,5.33179 -0.029,4.9689 -9.0465,28.45586 -12.5421,32.66821 -0.6847,0.825 -3.8028,6.56451 -6.9292,12.75446 -6.9317,13.72396 -12.4246,21.34752 -19.5818,27.17738 -2.9888,2.43446 -7.0091,5.87295 -8.9341,7.64107 -11.522,10.58302 -15.6263,13.87536 -25.8964,20.77299 -6.268,4.20976 -11.8406,7.6541 -12.3834,7.6541 -0.5429,0 -4.0776,1.575 -7.8548,3.5 -3.7773,1.925 -7.4002,3.5 -8.0509,3.5 -0.6507,0 -3.0126,0.87041 -5.2488,1.93424 -3.8307,1.82244 -10.9057,4.46391 -20.1141,7.50969 -6.5506,2.1667 -18.6733,10.37782 -26.9434,18.24971 -1.2675,1.2065 -4.3348,4.8065 -6.8162,8 -2.4814,3.1935 -6.1497,7.32657 -8.1517,9.1846 -6.1464,5.70448 -14.5403,19.04172 -14.5403,23.10348 0,2.25453 0.6813,2.64641 6,3.4512 1.925,0.29128 7.55,1.21786 12.5,2.05907 4.95,0.84122 11.7,1.76789 15,2.05927 3.3,0.29138 11.85,1.37239 19,2.40224 7.15,1.02985 17.725,2.16881 23.5,2.53102 11.4337,0.71712 15.2212,1.34853 14.555,2.42645 -0.5129,0.82995 -10.6655,-0.0499 -39.055,-3.38443 -52.9777,-6.22267 -53.0122,-6.22517 -53.9317,-3.90837 -1.8197,4.58452 -3.5339,21.04102 -3.5504,34.08261 -0.01,7.81043 -0.503,16.46255 -1.0958,19.22695 -0.8551,3.98724 -0.7459,6.63153 0.5282,12.79268 1.829,8.84402 3.5625,11.77672 13.1787,22.29569 16.2408,17.7654 16.7391,18.8469 16.0824,34.9027 -0.6376,15.5905 -3.0131,25.0074 -9.8426,39.0188 -4.5437,9.3218 -6.0647,11.3777 -14.2282,19.2312 -5.0273,4.8364 -9.6058,8.802 -10.1743,8.8124 -0.5686,0.01 -3.4784,1.5938 -6.4663,3.5188 -2.9879,1.925 -6.1227,3.51 -6.9663,3.5222 -0.8435,0.012 -2.6587,0.9023 -4.0337,1.9778 -1.375,1.0755 -3.557,1.9655 -4.8489,1.9778 -1.2918,0.012 -3.8419,0.7307 -5.6668,1.5967 -1.8248,0.8659 -4.5928,1.4201 -6.1511,1.2316 l -2.8332,-0.3429 3.5,-2.2287 c 1.925,-1.2258 5.075,-2.4862 7,-2.8009 1.925,-0.3147 5.1363,-1.4411 7.1362,-2.5029 1.9998,-1.0619 4.0874,-1.9307 4.6391,-1.9307 2.3028,0 15.1397,-8.4116 21.4254,-14.0393 10.4846,-9.3871 16.3757,-20.6782 21.8446,-41.868 1.7276,-6.6934 2.0929,-10.4881 1.792,-18.6147 -0.4498,-12.1525 -0.858,-12.898 -15.0662,-27.5176 -12.1649,-12.5173 -14.3608,-15.88347 -16.2828,-24.9604 -1.2756,-6.02455 -1.3906,-9.07382 -0.5846,-15.5 0.5518,-4.4 1.0211,-13.97401 1.0428,-21.27557 0.03,-9.97864 0.5378,-15.17858 2.0464,-20.93833 2.1536,-8.22209 2.4948,-11.86662 1.1868,-12.67502 -0.4511,-0.27883 -8.4386,-1.43624 -17.75,-2.57204 -9.3113,-1.1358 -21.8797,-2.71642 -27.9297,-3.51251 -6.05,-0.79608 -16.625,-2.12616 -23.5,-2.95574 -6.875,-0.82957 -21.725,-2.63004 -33,-4.00104 -35.1337,-4.27213 -41.0068,-4.89627 -41.4935,-4.40955 -0.2598,0.25975 -0.032,2.00763 0.5062,3.88419 0.5382,1.87656 1.2702,6.90925 1.6267,11.18377 0.5495,6.58884 0.4155,7.77184 -0.8804,7.77184 -1.0943,0 -1.7152,-1.49385 -2.1856,-5.25861 -0.934,-7.47532 -1.5523,-8.18071 -6.2103,-7.08402 l -3.8631,0.90952 -0.3019,5.7826 c -0.2058,3.94267 -0.6831,5.65685 -1.5,5.3874 -1.3532,-0.44636 -2.4522,-8.00601 -2.5992,-17.8799 -0.107,-7.18643 -0.6323,-7.85699 -6.1557,-7.85699 -2.6502,0 -2.8451,0.24032 -2.3209,2.8615 0.3657,1.82841 -0.094,4.08486 -1.2748,6.25 -1.0158,1.86368 -2.1314,4.5135 -2.4789,5.8885 -0.5314,2.10233 -0.6508,1.91288 -0.7503,-1.19098 -0.065,-2.03004 -0.5683,-3.9691 -1.1183,-4.30902 -1.5157,-0.93676 -1.196,-5.09241 0.5,-6.5 2.2222,-1.84429 1.8194,-3.99844 -0.75,-4.01101 -1.2375,-0.006 -3.9375,-0.28993 -6,-0.63084 -3.5475,-0.58637 -3.75,-0.47645 -3.75,2.03576 0,1.94453 0.7363,2.97128 2.75,3.83457 l 2.75,1.17899 -3.203,0.35612 c -2.8528,0.31718 -3.3057,0.81421 -4.1429,4.54626 l -0.9399,4.19015 -0.1071,-4.75 c -0.105,-4.6551 -0.172,-4.7514 -3.3571,-4.82029 -1.7875,-0.0386 -4.15,-0.45702 -5.25,-0.92971 -1.4389,-0.61834 -0.387,-0.87915 3.75,-0.92971 5.6332,-0.0689 5.75,-0.12793 5.75,-2.90928 0,-3.32693 2.5625,-2.83665 -45.5,-8.7055 -15.95,-1.94763 -29.675,-3.71465 -30.5,-3.92671 -0.825,-0.21206 -4.65,-0.6734 -8.5,-1.02521 -6.5506,-0.59858 -21.0106,-2.45866 -47,-6.04589 -20.26237,-2.79675 -19.98747,-2.78012 -21.22847,-1.28478 -0.6392,0.77009 -1.8305,5.88372 -2.6475,11.36362 -1.3853,9.29167 -2.2735,15.67363 -6.1186,43.96346 -0.8223,6.05 -3.0886,22.025 -5.0364,35.5 -1.9477,13.475 -4.1798,29.675 -4.9601,36 -0.7804,6.325 -2.8027,20.725 -4.494,32 -7.1128,47.4163 -10.5303,74.3571 -9.6193,75.8311 0.283,0.4579 3.7973,1.4115 7.8095,2.1191 4.0122,0.7076 7.7084,1.5318 8.2138,1.8316 1.0827,0.6422 10.1857,1.4085 16.5811,1.3958 2.475,0 6.75,0.5853 9.5,1.3117 2.75,0.7263 7.69997,1.3812 10.99997,1.4554 3.3,0.074 9.825,0.5759 14.5,1.1151 4.675,0.5392 14.8,1.6491 22.5,2.4665 7.7,0.8173 16.25,1.9347 19,2.4831 2.75,0.5484 8.7574,1.2218 13.3497,1.4965 4.5924,0.2746 8.6424,0.6717 9,0.8823 0.6982,0.4111 13.1316,1.5991 22.1411,2.1155 7.8653,0.4507 24.9017,2.3607 36.1489,4.0527 5.3019,0.7975 12.9519,1.689 17,1.981 4.0482,0.2921 9.6103,0.9328 12.3603,1.4238 2.75,0.4911 10.175,1.4053 16.5,2.0317 21.2528,2.1047 58.5526,6.4844 63,7.3974 1.375,0.2823 4.975,0.7402 8,1.0176 3.025,0.2774 8.2,0.9781 11.5,1.5571 3.3,0.5791 9.7125,1.331 14.25,1.6709 9.7419,0.7299 9.9132,0.4581 4.8341,-7.6696 -1.8787,-3.0065 -4.5787,-7.3247 -6,-9.596 -3.1064,-4.9645 -3.2353,-6.3703 -0.5841,-6.3703 1.1,0 2,0.3409 2,0.7574 0,0.4166 3.3535,5.8928 7.4521,12.1693 6.4634,9.8976 7.9561,11.5749 11.25,12.6413 4.185,1.3549 12.9774,2.9236 15.2425,2.7195 0.7946,-0.072 5.7446,0.542 11,1.3634 5.2555,0.8215 11.8054,1.6995 14.5554,1.9512 2.75,0.2516 10.9818,1.3523 18.2928,2.446 7.311,1.0936 16.0373,2.218 19.3917,2.4987 3.3544,0.2807 6.473,0.7415 6.9302,1.0241 0.4571,0.2825 2.3059,0.6978 4.1082,0.9227 1.8024,0.225 7.3147,0.9061 12.2495,1.5135 4.9349,0.6074 9.2099,1.3658 9.5,1.6852 0.5199,0.5722 -11.627,-0.1995 -17.4724,-1.1101 -1.65,-0.2571 -7.725,-0.9602 -13.5,-1.5625 -5.775,-0.6024 -12.075,-1.2891 -14,-1.526 -1.925,-0.237 -11.6,-1.3715 -21.5,-2.5212 -9.9,-1.1497 -21.6,-2.5105 -26,-3.0239 -4.4,-0.5134 -10.6356,-0.9368 -13.857,-0.941 -5.1707,-0.01 -5.7777,0.1975 -5.1806,1.7424 4.0189,10.3979 4.3496,30.3652 0.6417,38.7475 -2.6022,5.8828 -13.3771,13.744 -28.1041,20.5041 -25.3113,11.6188 -28.8678,15.8073 -36.5103,42.9984 -4.6475,16.5352 -5.5913,24.222 -6.2006,50.5 -0.8783,37.8775 -0.9202,37.2149 3.5064,55.5 2.1969,9.075 4.483,18.975 5.0802,22 0.5973,3.025 2.2958,9.775 3.7745,15 1.4788,5.225 2.7249,11.1172 2.7692,13.0938 0.044,1.9766 0.5732,4.2266 1.1754,5 0.6021,0.7734 1.3853,2.2194 1.7405,3.2133 0.5737,1.6054 -2.8885,33.1609 -3.8002,34.636 -0.1999,0.3235 -0.8576,4.1405 -1.4614,8.4822 -1.188,8.5411 -5.6795,22.9388 -12.3458,39.5747 -4.1036,10.2404 -12.9416,24.78 -25.5302,42 -5.8572,8.0121 -20.0032,22.9603 -21.7515,22.9851 -1.4407,0.02 -8.0691,6.9611 -7.4462,7.7969 0.7995,1.0727 -16.0828,10.0152 -27.2562,14.4374 -16.0631,6.3574 -48.4006,16.834 -60.7901,19.6944 -23.5821,5.4446 -39.959,8.2647 -55.4537,9.5491 -9.35,0.775 -19.025,1.8622 -21.5,2.4159 -2.475,0.5536 -7.425,1.0048 -11,1.0025 -3.57497,0 -8.66947,0.4826 -11.32097,1.0774 -3.9546,0.8872 -17.6477,1.2242 -49.179,1.2101 -1.65,-7e-4 -6.15003,-0.3333 -10.00003,-0.739 -8.87977,-0.9359 -9.595,-0.8796 -25.5,2.0046 -1.375,0.2493 -5.65,0.719 -9.5,1.0437 -8.33513,0.703 -18.651,2.2544 -23.5,3.5342 -1.925,0.5081 -4.99671,1.0365 -6.82602,1.1742 -1.82932,0.1378 -3.52391,0.5707 -3.76577,0.962 -0.45113,0.73 -5.95944,1.4704 -17.40821,2.34 -9.80036,0.7445 -20.72537,2.2237 -21.93242,2.9697 -0.59015,0.3648 -3.20927,1.0452 -5.82029,1.5121 -2.61101,0.4669 -5.64729,1.062 -6.74729,1.3223 -1.1,0.2604 -4.475,0.7941 -7.5,1.1861 -8.98822,1.1646 -42.16562,10.2114 -53.7439,14.6547 -5.91586,2.2703 -14.1311,5.35 -18.2561,6.8437 -9.64357,3.4921 -27.49139,12.3716 -32,15.9204 -1.925,1.5152 -6.875,4.6966 -11,7.0699 -4.125,2.3732 -9.75,5.9093 -12.5,7.8581 -4.88912,3.4646 -21.19717,13.1745 -22.1269,13.1745 -0.25805,0 -2.81006,1.4693 -5.67114,3.2651 -2.86108,1.7959 -6.9282,4.1584 -9.03804,5.25 -2.10985,1.0917 -6.60985,4.3314 -10,7.1994 -3.39016,2.868 -9.32977,7.658 -13.19914,10.6445 -5.47651,4.2269 -8.7999,8.0046 -15,17.0507 -4.38063,6.3915 -9.05267,13.189 -10.38232,15.1056 -1.94173,2.7988 -3.07343,3.4847 -5.75,3.4847 -1.83285,0 -3.33246,-0.2111 -3.33246,-0.469 z m 7,-706.971 c 0,-1.0337 12.01213,-89.81973 12.99625,-96.06003 0.52042,-3.3 2.30596,-16.125 3.96786,-28.5 1.66191,-12.375 5.2609,-38.7 7.99776,-58.5 7.26409,-52.55255 7.38398,-53.48748 6.919,-53.95246 -0.48345,-0.48346 -4.09001,-1.18502 -10.78857,-2.09864 -2.52576,-0.34449 -5.7173,-0.81031 -7.0923,-1.03517 -1.375,-0.22485 -5.38185,-0.69686 -8.90411,-1.04892 l -6.40411,-0.6401 0.63561,5.38764 c 1.62898,13.80794 1.59919,14.31844 -0.37279,6.38765 -1.09405,-4.4 -2.21003,-8.99279 -2.47995,-10.2062 -0.34962,-1.57167 -1.42319,-2.34889 -3.73271,-2.70234 -3.39531,-0.51961 -33.62295,-4.17384 -42.24194,-5.10664 -2.75,-0.29762 -6.575,-0.74256 -8.5,-0.98875 -1.925,-0.2462 -6.2,-0.70693 -9.5,-1.02386 -3.3,-0.31693 -6.675,-0.76616 -7.5,-0.99829 -0.825,-0.23213 -7.35,-1.12141 -14.5,-1.97618 -7.15,-0.85476 -14.575,-1.74859 -16.5,-1.98627 -1.925,-0.23769 -7.325,-0.90297 -12,-1.47841 -4.675,-0.57544 -9.4,-1.21219 -10.5,-1.41501 -1.1,-0.20281 -5.15,-0.67926 -9,-1.05877 -3.85,-0.37952 -25,-2.89192 -47,-5.58312 -22,-2.6912 -45.625,-5.57101 -52.5,-6.39958 -11.56602,-1.39393 -33.24032,-4.14923 -52.5,-6.67396 -27.31123,-3.5802 -38.13139,-4.59431 -39.78518,-3.72883 -1.33301,0.6976 -1.66077,1.74375 -1.29399,4.13022 1.4214,9.24845 1.59275,12.56956 0.67767,13.13511 -0.55594,0.34359 -1.29039,-0.94507 -1.65926,-2.91133 -0.364,-1.94028 -1.02599,-3.52779 -1.47108,-3.52779 -0.90744,0 -1.29264,1.61346 -3.48677,14.60481 -0.84575,5.00765 -1.97505,10.62968 -2.50956,12.4934 -0.53451,1.86372 -0.97499,5.19156 -0.97884,7.39519 -0.004,2.20363 -0.90979,9.8566 -2.01318,17.0066 -1.1034,7.15 -3.12859,21.1 -4.50043,31 -1.37185,9.9 -3.62992,25.2 -5.01794,34 -1.38802,8.8 -3.15044,20.52163 -3.91648,26.04807 -0.76605,5.52644 -2.30266,14.97644 -3.4147,21 -1.92395,10.42145 -4.0316,23.93527 -7.98417,51.19316 -0.97628,6.7326 -1.51653,12.6594 -1.20056,13.1707 0.98196,1.5888 7.5142,2.6166 35.05447,5.5153 6.875,0.7236 20.02601,2.135 29.22447,3.1364 9.19846,1.0014 17.05013,1.4951 17.44815,1.0971 0.63908,-0.6391 -0.26057,-7.5637 -2.26204,-17.4107 -0.44009,-2.1652 -0.27682,-3.25 0.48917,-3.25 1.66512,0 2.87328,3.8357 3.43872,10.9175 0.40262,5.0426 0.9847,6.6527 3.1207,8.6322 1.44417,1.3384 3.61915,2.6642 4.83329,2.9462 1.21415,0.282 16.15754,2.1026 33.20754,4.0459 36.6616,4.1786 96.07144,10.9277 109.5,12.4396 5.225,0.5882 16.7,1.9559 25.5,3.0394 8.8,1.0834 20.05,2.4633 25,3.0665 4.95,0.6031 22.31977,2.7428 38.5995,4.7547 28.93615,3.576 44.9005,4.898 44.9005,3.718 z m -291.42384,-66.4368 c -0.94137,-1.5231 -3.51752,-13.5152 -3.01196,-14.02076 1.31823,-1.31823 3.31809,3.0738 3.93755,8.64753 0.64867,5.83653 0.36794,7.46623 -0.92559,5.37323 z m -6.57616,-32.2966 c 0,-0.31535 -0.89309,-4.11785 -1.98465,-8.45 -1.09155,-4.33215 -1.99155,-8.98556 -2,-10.34092 -0.0139,-2.22923 0.13297,-2.31596 1.53968,-0.90925 1.89111,1.89111 4.68651,17.95371 3.36291,19.32354 -0.50487,0.5225 -0.91794,0.69198 -0.91794,0.37663 z m 10.8158,-23.37467 c -0.3763,-0.57641 -1.23296,-4.97082 -1.90368,-9.76535 -1.3404,-9.58157 -0.32278,-15.93131 2.74164,-17.10724 1.95938,-0.75188 5.34624,2.04119 5.34624,4.40895 0,3.09884 1.2664,2.98388 2.88972,-0.26233 1.73508,-3.46968 4.8432,-4.75504 6.22514,-2.57438 1.36533,2.15444 1.01924,7.68839 -0.68721,10.98831 -2.06457,3.99243 -1.30574,5.60472 3.01979,6.4162 1.95391,0.36655 3.55256,1.03606 3.55256,1.48778 0,1.38768 -3.99256,2.18008 -7.58694,1.50577 -2.95345,-0.55407 -3.41306,-0.37282 -3.41306,1.346 0,1.09246 -0.42742,2.25046 -0.94983,2.57332 -1.84833,1.14234 -3.26591,-3.73993 -2.86136,-9.85477 l 0.40452,-6.11422 -2.74973,2.77998 c -2.30965,2.33507 -2.79724,3.77546 -3.04666,9 -0.16332,3.42101 -0.60483,5.7484 -0.98114,5.17198 z m 3.1842,-21.5744 c 0,-1.03266 -0.40186,-1.87756 -0.89301,-1.87756 -1.01973,0 -2.10699,2.42749 -2.10699,4.70423 0,1.25609 0.27706,1.31072 1.5,0.29577 0.825,-0.68469 1.5,-2.08979 1.5,-3.12244 z m 18.62159,20.42509 c -0.83743,-2.76172 2.87142,-20.22423 4.6794,-22.03221 2.05635,-2.05635 4.13545,-0.50807 5.70532,4.24867 0.80904,2.45142 1.78255,3.44314 3.60263,3.67001 l 2.49401,0.31088 -2.55147,3.44428 c -1.40332,1.89435 -2.58,4.59435 -2.61487,6 -0.0615,2.4816 -0.0891,2.49195 -0.94886,0.35685 -0.84261,-2.09243 -1.03315,-2.12519 -3.93661,-0.67676 -1.67813,0.83716 -3.05114,2.10905 -3.05114,2.82643 0,0.71737 -0.63716,1.8331 -1.4159,2.4794 -1.12259,0.93167 -1.52914,0.80166 -1.96251,-0.62755 z M 279.03878,919.0649 c -3.71844,-12.52592 -5.15807,-26.78234 -1.84945,-18.31483 2.32973,5.96229 5.36724,24.25 4.02783,24.25 -0.22905,0 -1.20932,-2.67083 -2.17838,-5.93517 z m 320.45696,-10.06483 c -1.6263,-7.2432 -2.57981,-14.64504 -1.79475,-13.93223 0.98011,0.88992 3.84749,15.73142 3.41629,17.68266 -0.21265,0.96226 -0.94234,-0.72543 -1.62154,-3.75043 z m -7.59065,-41.41014 c -0.97268,-4.63501 -1.5649,-9.02637 -1.31603,-9.75858 0.24886,-0.7322 1.22923,2.87554 2.1786,8.01721 2.16745,11.7386 1.51277,13.06027 -0.86257,1.74137 z m -324.48796,-5.05562 c -2.42493,-10.20536 -2.26962,-14.30974 0.31586,-8.34704 1.51575,3.49567 3.46284,17.8128 2.42249,17.8128 -0.26904,0 -1.50129,-4.25959 -2.73835,-9.46576 z m -5.26781,-29.53424 c -0.33578,-0.825 -1.05347,-3.4125 -1.59487,-5.75 -1.10249,-4.76002 0.23643,-5.87035 1.87664,-1.55626 1.08335,2.84943 0.80819,9.98429 -0.28177,7.30626 z m 1065.86298,72 c 3.1634,-6.25832 6.3536,-10.60982 12.0968,-16.5 4.2901,-4.4 9.7558,-10.5875 12.1459,-13.75 2.3901,-3.1625 4.6709,-5.75 5.0684,-5.75 0.3976,0 3.294,-2.25 6.4366,-5 3.1426,-2.75 6.1964,-5 6.7862,-5 0.5898,0 3.2646,-1.575 5.9441,-3.5 2.6794,-1.925 5.4694,-3.5 6.1999,-3.5 0.7306,0 3.542,-1.12347 6.2477,-2.4966 2.7057,-1.37314 6.4945,-2.77364 8.4195,-3.11225 1.925,-0.3386 4.4,-1.17189 5.5,-1.85177 1.1,-0.67987 3.8,-1.81454 6,-2.52149 2.2,-0.70695 6.8803,-2.80018 10.4007,-4.65162 3.5204,-1.85145 6.9078,-3.36627 7.5275,-3.36627 0.6197,0 4.2644,-2.24352 8.0993,-4.98561 3.8349,-2.74208 8.0975,-5.77958 9.4725,-6.75 1.375,-0.97041 4.3649,-3.56439 6.6442,-5.76439 2.2793,-2.2 6.7793,-6.33517 10,-9.18928 19.2453,-17.05475 21.5542,-19.81441 29.1247,-34.81072 2.2212,-4.4 5.0949,-9.575 6.386,-11.5 3.1945,-4.76287 9.2066,-17.03656 12.4155,-25.34624 2.2401,-5.80064 2.6657,-8.54972 2.7867,-18 0.079,-6.13457 -0.6322,-16.66535 -1.5796,-23.40173 -1.6838,-11.97321 -1.8743,-12.52249 -8.4885,-24.4859 -3.7214,-6.73087 -8.1418,-14.04428 -9.8232,-16.25204 -1.6814,-2.20775 -5.8273,-7.64998 -9.2129,-12.09385 -6.705,-8.80057 -24.3603,-26.56011 -36.2529,-36.46689 -4.125,-3.43622 -12.5054,-11.17964 -18.6231,-17.20761 -6.1176,-6.02797 -12.6932,-11.92425 -14.6124,-13.10284 -8.482,-5.20892 -15.0245,-9.98292 -20.4375,-14.91297 -3.2048,-2.91895 -7.0887,-6.10352 -8.6307,-7.07682 -1.5421,-0.97331 -3.0779,-2.53092 -3.4129,-3.46138 -0.335,-0.93045 -2.06,-3.94173 -3.8333,-6.69173 -1.7733,-2.75 -3.5438,-6.05474 -3.9343,-7.34386 -1.2408,-4.0952 -10.5121,-17.13653 -17.9954,-25.31269 -2.344,-2.56111 -5.7773,-6.83611 -7.6294,-9.5 -1.8522,-2.6639 -4.9621,-6.64345 -6.9109,-8.84345 -3.5432,-3.99976 -17.4145,-22.78327 -32.4801,-43.98232 -4.4,-6.1913 -11.1809,-14.35309 -15.0687,-18.1373 -3.8878,-3.78421 -10.3716,-11.38038 -14.4084,-16.88038 -4.0369,-5.5 -10.3657,-13.15 -14.0642,-17 -8.7853,-9.14535 -16.9587,-18.6017 -16.9587,-19.62079 0,-0.44529 -1.3155,-2.30794 -2.9234,-4.13923 -3.4103,-3.88402 -8.1018,-13.50996 -11.0833,-22.73998 -1.1547,-3.575 -2.9757,-8.4076 -4.0464,-10.7391 -1.0708,-2.33151 -1.9469,-4.60979 -1.9469,-5.06285 0,-0.45306 -1.125,-3.15576 -2.5,-6.00599 -1.375,-2.85024 -2.5,-5.65681 -2.5,-6.23682 0,-0.58001 -0.7129,-2.43314 -1.5842,-4.11806 -1.6986,-3.28465 -4.4059,-12.83809 -4.4311,-15.63597 -0.038,-4.17634 0.3502,-4.15738 -34.9847,-1.71043 -14.4259,0.99899 -24.8216,2.3434 -26.9569,3.48614 -1.8775,1.00482 -1.8657,1.19421 0.5065,8.16879 3.7619,11.06045 14.5414,31.59806 23.5777,44.9213 9.6884,14.28471 23.4306,27.81342 45.2778,44.57462 2.2522,1.72789 6.7949,5.42208 10.0949,8.20931 9.4473,7.97931 22.0951,17.86199 24.5218,19.16072 10.1775,5.44682 30.2362,24.79433 33.864,32.66329 2.8908,6.27036 2.366,8.33775 -2.1044,8.28999 -5.0197,-0.0536 -21.7211,-11.62302 -34.1809,-23.67775 -5.8058,-5.61705 -11.9202,-10.91827 -13.5875,-11.78049 -1.6674,-0.86221 -4.9399,-2.92026 -7.2723,-4.57344 -2.3324,-1.65318 -6.0407,-4.16687 -8.2407,-5.58598 -2.2,-1.41911 -5.575,-4.05742 -7.5,-5.8629 -5.1468,-4.8273 -18.9693,-11.85112 -31.5,-16.00657 -7.2842,-2.41562 -14.378,-5.70576 -21,-9.74003 -8.7606,-5.3371 -12.7267,-8.84268 -32,-28.28382 -18.764,-18.92741 -23.6916,-23.31066 -33.5,-29.7992 -6.325,-4.18415 -14.0573,-9.36736 -17.1829,-11.51823 -5.3877,-3.70753 -20.2578,-9.60024 -21.8081,-8.6421 -1.0379,0.64145 -2.791,10.08612 -4.5486,24.50557 -0.838,6.875 -2.8525,21.5 -4.4766,32.5 -1.6241,11 -5.2048,36.2 -7.9571,56 -2.7523,19.8 -6.1099,43.69819 -7.4613,53.10709 -1.3514,9.4089 -4.5269,32.3589 -7.0566,51 -6.2089,45.75238 -12.1496,88.2298 -14.46,103.39291 -1.0475,6.875 -2.1541,14.75 -2.459,17.5 -0.3049,2.75 -1.256,9.95 -2.1136,16 -0.8575,6.05 -1.7267,12.575 -1.9315,14.5 -0.2048,1.925 -1.7534,12.725 -3.4414,24 -1.688,11.275 -4.6384,32.2 -6.55647,46.5 -1.9181,14.3 -3.9485,28.925 -4.512,32.5 -4.1553,26.36215 -11.0995,78.66205 -10.8456,81.68297 0.2937,3.49427 0.569,3.76333 5.0031,4.88908 2.5808,0.65522 8.6558,1.48816 13.49997,1.85097 4.8442,0.36282 11.2827,1.06344 14.3077,1.55694 3.025,0.4935 14.5,2.047 25.5,3.45222 11,1.40523 21.35,2.80295 23,3.10605 3.5291,0.64829 5.9556,0.96592 18,2.35622 4.95,0.57138 13.725,1.69703 19.5,2.50146 5.775,0.80442 11.175,1.48691 12,1.51664 3.3919,0.12223 8.5922,1.41058 9.942,2.46308 1.1032,0.86026 1.2655,0.83074 0.6909,-0.12563 -0.7979,-1.32817 0.5445,-1.73928 1.7484,-0.53542 0.393,0.39303 1.7055,0.79573 2.9166,0.89491 7.2977,0.59759 15.7392,1.67357 19.2021,2.44758 6.3133,1.41109 13.0665,1.09869 16.2943,-0.75378 2.8152,-1.61574 3.0879,-1.60381 5.7133,0.25 5.1597,3.64329 6.9896,4.41721 10.4924,4.43755 1.925,0.0112 5.075,0.42888 7,0.92824 1.925,0.49937 6.425,1.16925 10,1.48864 12.362,1.1044 35.5095,3.60118 38,4.09882 1.375,0.27474 6.55,0.93756 11.5,1.47293 4.95,0.53536 11.925,1.40349 15.5,1.92916 3.575,0.52568 8.75,1.19531 11.5,1.48806 2.75,0.29276 8.375,1.03662 12.5,1.65303 4.125,0.61641 9.3491,1.31565 11.6091,1.55387 2.26,0.23822 6.76,0.83018 10,1.31547 3.24,0.48529 7.659,0.81453 9.8201,0.73164 3.8891,-0.14916 3.973,-0.23739 8.2257,-8.6507 z m -40.0868,-249.88981 c -0.3135,-0.50734 -1.54,-0.66879 -2.7255,-0.35879 -1.3656,0.35712 -1.9174,0.17861 -1.5059,-0.4872 0.3623,-0.58622 -0.4528,-1.32752 -1.8436,-1.67658 -1.3712,-0.34415 -2.4931,-1.29215 -2.4931,-2.10667 0,-0.81452 -0.6609,-1.48095 -1.4686,-1.48095 -2.072,0 -0.8209,-2.69102 1.5378,-3.30784 1.1762,-0.30758 1.9308,0.003 1.9308,0.79447 0,1.84779 2.9977,2.76016 4.6267,1.40818 1.1031,-0.91545 1.3733,-0.6398 1.3733,1.40096 0,3.38424 0.9988,5.82303 2.1048,5.13947 0.4924,-0.3043 0.8952,-0.32827 0.8952,-0.0533 0,1.04458 -1.8871,1.60967 -2.4319,0.72822 z m 0.4319,-3.55117 c 0,-0.24254 0.45,-0.7191 1,-1.05902 0.55,-0.33992 1,-0.14148 1,0.44098 0,0.58246 -0.45,1.05902 -1,1.05902 -0.55,0 -1,-0.19844 -1,-0.44098 z m -30.5,-1.91908 c -1.1,-0.62697 -2.0981,-1.16307 -2.2181,-1.19135 -0.1199,-0.0283 0.5363,-1.71577 1.4584,-3.75 1.5496,-3.41891 2.3142,-4.10542 3.8407,-3.44859 0.3196,0.1375 1.2036,-0.875 1.9646,-2.25 1.2317,-2.22563 1.3909,-2.28051 1.4508,-0.5 0.037,1.1 0.7203,2.86308 1.5185,3.91796 1.6758,2.21475 0.3922,4.58204 -2.4845,4.58204 -0.9486,0 -2.131,0.85047 -2.6276,1.88994 -0.7466,1.56288 -1.2489,1.69267 -2.9028,0.75 z m 165.5,-12.24638 c 0,-1.05186 0.9,-2.47453 2,-3.16149 1.1,-0.68696 2,-1.86772 2,-2.62391 0,-0.75619 0.9928,-1.63453 2.2063,-1.95187 2.8251,-0.73878 3.8049,0.19829 1.5354,1.4684 -0.9579,0.53608 -1.7417,1.62733 -1.7417,2.425 0,0.79767 -0.401,1.33781 -0.8911,1.20031 -0.4902,-0.1375 -1.8402,0.83135 -3,2.15301 -1.9057,2.17149 -2.1089,2.21875 -2.1089,0.49055 z m 7,-2.39356 c 0,-0.55 0.45,-1 1,-1 0.55,0 1,0.45 1,1 0,0.55 -0.45,1 -1,1 -0.55,0 -1,-0.45 -1,-1 z m -10,-2.39301 c 0,-0.21616 0.675,-0.65203 1.5,-0.96862 0.825,-0.31658 1.5,-0.13972 1.5,0.39301 0,0.53274 -0.675,0.96862 -1.5,0.96862 -0.825,0 -1.5,-0.17686 -1.5,-0.39301 z m 16.2292,-11.79449 c 0.2177,-0.65313 0.9305,-1.36573 1.584,-1.58356 0.7307,-0.24358 0.9542,0.21359 0.5805,1.1875 -0.6975,1.81771 -2.7645,2.19592 -2.1645,0.39606 z M 1174.242,905.44295 c 0.2115,-0.20831 -0.1806,-1.74318 -0.8713,-3.41082 -0.9871,-2.38304 -1.8721,-3.03206 -4.1346,-3.03206 -2.7048,0 -2.8787,0.24836 -2.8787,4.11129 l 0,4.11129 3.75,-0.70047 c 2.0625,-0.38527 3.9231,-0.87092 4.1346,-1.07923 z M 621.25804,819.25007 c 2.57224,-16.05709 4.15819,-31.59671 3.28198,-32.15785 -0.50855,-0.32568 -2.38967,-3.51715 -4.18027,-7.09215 -1.7906,-3.575 -4.12268,-7.72823 -5.1824,-9.2294 -2.81245,-3.98403 -13.55748,-27.89885 -16.97049,-37.7706 -5.28763,-15.29386 -9.84481,-32.08412 -10.81999,-39.86465 -0.52634,-4.19944 -1.59932,-10.56035 -2.3844,-14.13535 -0.78508,-3.575 -1.67598,-9.2 -1.97978,-12.5 -0.3038,-3.3 -1.00963,-9.15 -1.5685,-13 -1.87612,-12.92428 -3.12399,-29.95715 -2.56418,-35 0.30527,-2.75 1.19291,-10.625 1.97252,-17.5 0.77962,-6.875 1.60288,-14.525 1.82947,-17 0.44807,-4.89402 3.05835,-13.25623 5.18188,-16.60052 1.9883,-3.13132 7.63167,-5.39948 13.43434,-5.39948 9.57174,0 14.90761,5.01325 17.61883,16.55352 2.07399,8.82788 2.48267,39.73292 0.72085,54.51133 -0.68422,5.73933 -1.46895,24.49847 -1.74386,41.68697 -0.47591,29.75675 -0.37868,32.05304 2.03235,48 1.39269,9.2115 3.1887,21.69818 3.99113,27.74818 1.97567,14.89581 2.50264,17.5 3.5412,17.5 0.48879,0 0.88871,-0.60545 0.88871,-1.34545 0,-0.73999 1.10291,-8.72749 2.45091,-17.75 1.348,-9.0225 4.28176,-30.12955 6.51946,-46.90455 2.23771,-16.775 6.52446,-48.05 9.52611,-69.5 3.00165,-21.45 6.16326,-44.625 7.02579,-51.5 0.86254,-6.875 2.65796,-20.15 3.98983,-29.5 3.72436,-26.14569 11.13232,-80.75611 13.95986,-102.91011 2.37886,-18.63846 2.66975,-23.9324 1.0119,-18.41525 -0.94653,3.14999 -10.46201,22.71095 -12.5628,25.82536 -0.92749,1.375 -4.32421,6.55 -7.54826,11.5 -3.22406,4.95 -7.88937,11.74691 -10.36736,15.10424 -2.47799,3.35733 -7.43044,10.25552 -11.00544,15.32932 -13.96595,19.82109 -19.63527,25.99648 -45.08888,49.11372 -5.17612,4.70101 -12.78612,11.20958 -16.91112,14.46349 -4.125,3.25392 -8.01228,6.38264 -8.63841,6.95272 -0.62612,0.57008 -2.01465,1.75627 -3.08561,2.63597 -2.55068,2.09516 -30.10873,22.96116 -32.88653,24.90054 -1.18166,0.825 -5.4652,4.05201 -9.51896,7.17114 -11.60579,8.92994 -31.19321,18.08864 -29.70382,13.88894 0.40937,-1.15434 5.45981,-4.81425 13.0679,-9.46997 3.15401,-1.93007 9.90401,-6.61399 15,-10.40871 5.09598,-3.79472 15.11543,-11.08383 22.26543,-16.19803 39.61344,-28.33437 72.93713,-59.23176 88.96065,-82.48337 4.92731,-7.15 11.22689,-16.00118 13.99905,-19.66928 14.61919,-19.34401 24.73808,-39.15411 32.34899,-63.33072 6.79989,-21.60035 7.15276,-23.08873 8.12466,-34.2693 0.46523,-5.35189 1.64681,-13.89193 2.62574,-18.97788 0.97893,-5.08596 1.51715,-9.50992 1.19604,-9.83102 -0.32111,-0.32111 -1.52238,-0.0815 -2.66948,0.53236 -1.77631,0.95065 -2.08565,0.83251 -2.08565,-0.79653 0,-1.05201 0.675,-2.47294 1.5,-3.15763 1.59415,-1.32303 2.05169,-4 0.68366,-4 -0.44899,0 -3.48649,0.50851 -6.75,1.13003 -3.26351,0.62151 -9.75866,1.25921 -14.43366,1.4171 -28.90293,0.97619 -39.60537,1.50591 -48.5,2.40053 -20.05752,2.01738 -64.59175,6.05917 -105,9.52948 l -18,1.54586 -3.79597,4.16891 c -7.64946,8.40099 -15.57117,25.77004 -22.71658,49.80809 -6.21347,20.90292 -10.75473,30.11195 -21.74637,44.09855 -6.01588,7.65506 -11.83324,11.13909 -25.74108,15.4164 -4.95,1.52236 -11.25,3.55369 -14,4.51407 -10.33622,3.60972 -21.14731,5.14446 -33.81975,4.80105 l -12.18025,-0.33007 -6.17694,-4 c -19.2946,-12.49459 -20.14135,-13.47778 -24.46082,-28.40213 -3.55099,-12.26913 -1.03641,-30.94684 6.18345,-45.92924 5.09182,-10.56636 7.0086,-18.48582 5.88362,-24.30909 -0.46322,-2.39775 -0.86181,-4.76442 -0.88576,-5.25928 -0.0652,-1.34811 -18.27287,0.1854 -19.64274,1.65437 -1.17284,1.25769 -3.42991,13.128 -5.46576,28.74537 -0.60942,4.675 -1.95751,13.9 -2.99574,20.5 -2.81749,17.91067 -6.72058,45.19173 -7.43963,52 -0.34852,3.3 -1.11231,7.8 -1.69731,10 -0.585,2.2 -1.21801,5.8 -1.40668,8 -0.54621,6.36891 -2.63035,17.83959 -3.58842,19.75 -0.54529,1.08729 -0.49751,1.75 0.12616,1.75 0.55209,0 0.80593,0.5625 0.5641,1.25 -0.83122,2.36299 -1.53729,7.2795 -3.03158,21.10956 -0.82361,7.62275 -2.86632,22.92275 -4.53935,34 -1.67303,11.07724 -4.10291,28.24044 -5.39973,38.14044 -1.29682,9.9 -2.62815,19.125 -2.95852,20.5 -0.33037,1.375 -1.97792,11.725 -3.66122,23 -1.68329,11.275 -3.92119,26.125 -4.9731,33 -4.03613,26.37898 -6.05825,45.49555 -5.3947,51 1.13545,9.41911 3.3637,11.18788 8.11219,6.43939 4.05195,-4.05195 3.89823,-2.05366 -0.19014,2.47168 -2.95052,3.26587 -4.38152,4.08893 -7.10913,4.08893 -3.76687,0 -3.65853,-0.18644 -5.23013,9 -3.1646,18.49798 -2.72254,19.94514 4.06736,13.31498 4.99148,-4.87405 6.02842,-3.55576 1.42937,1.8172 -1.99037,2.3253 -3.61885,4.55193 -3.61885,4.94808 0,0.93824 7.90462,2.67889 15.5,3.41321 8.18687,0.79151 45.40276,5.18737 59.5,7.02802 6.325,0.82584 20.95,2.61836 32.5,3.98337 11.55,1.36501 24.15,2.93357 28,3.4857 3.85,0.55212 12.4,1.47633 19,2.05379 6.6,0.57746 12.675,1.23131 13.5,1.45299 0.825,0.22169 8.025,1.1124 16,1.97937 7.975,0.86696 17.65,2.00193 21.5,2.52215 16.0233,2.16509 27.99299,3.60068 37.5,4.49755 3.575,0.33726 9.875,1.03738 14,1.55582 9.76481,1.22727 30.0088,3.65896 37,4.44441 3.025,0.33986 6.175,0.78765 7,0.9951 0.825,0.20745 5.1,0.6755 9.5,1.04012 4.4,0.36462 15.65,1.6876 25,2.93996 9.35,1.25236 18.64684,2.33353 20.65965,2.4026 l 3.65965,0.12558 1.08131,-6.75 z m -74.65747,-13.46929 c -8.91349,-11.24624 -11.5285,-19.40252 -7.4144,-23.12572 2.75823,-2.49616 5.75664,-1.99955 8.41187,1.3932 l 2.38557,3.04819 4.43691,-2.53615 c 2.4403,-1.39487 5.11191,-2.52167 5.93691,-2.50399 0.825,0.0177 -0.21022,0.93467 -2.30049,2.03775 -2.09027,1.10308 -4.03562,2.77069 -4.323,3.7058 -0.28738,0.93512 -0.90217,2.42157 -1.36619,3.30324 -0.46403,0.88166 -1.14775,3.63061 -1.51937,6.10878 -0.52874,3.52589 -0.2271,5.38506 1.38708,8.5491 1.71807,3.36771 1.83553,4.23193 0.7029,5.17192 -1.07746,0.89421 -2.39361,-0.17571 -6.33779,-5.15212 z m -1.71021,-18.71703 c -0.87136,-1.68502 -2.08199,-3.06368 -2.69028,-3.06368 -1.70905,0 -0.31056,7.82331 1.8226,10.19591 1.82687,2.03191 1.83608,2.02756 2.14336,-1.01394 0.16973,-1.68004 -0.40432,-4.43327 -1.27568,-6.11829 z m 17.36828,16.25908 c -3.84993,-9.83815 -4.01107,-10.64147 -2.44812,-12.20443 1.8206,-1.82059 1.66976,-2.00355 4.43705,5.38167 2.88176,7.69069 2.98903,8.84501 0.86277,9.28445 -1.16845,0.24149 -2.11293,-0.57382 -2.8517,-2.46169 z m 13.56119,-7.40613 c -1.01274,-2.24586 -3.38328,-5.35437 -5.26787,-6.90781 -3.70347,-3.05271 -3.54548,-5.00882 0.40454,-5.00882 1.5937,0 3.84194,-1.4306 6.28615,-4 2.43346,-2.5581 4.69467,-4 6.27285,-4 3.42155,0 7.66442,4.75981 9.40843,10.55472 2.1122,7.0183 0.21002,7.91118 -3.06891,1.44053 -1.46261,-2.88632 -3.80704,-6.39561 -5.20985,-7.79842 l -2.55056,-2.55056 -2.84726,3.42686 c -4.18806,5.04061 -4.26774,6.1862 -0.81645,11.73815 1.72412,2.77353 2.83635,5.52562 2.47163,6.11575 -1.32491,2.14374 -3.28092,0.98522 -5.0827,-3.0104 z m -301.4624,-31.79605 c 0,-1.28917 7.47052,-8.77071 10.17665,-10.19165 l 2.32335,-1.21995 -1.96726,2.39551 c -6.45094,7.85521 -10.53274,11.34926 -10.53274,9.01609 z m 23,-22.83565 c 0,-1.68911 4.41096,-6.61153 10.2797,-11.47167 l 5.20837,-4.31326 -3.16175,4 c -4.41026,5.5795 -12.32632,13.14788 -12.32632,11.78493 z m 27,-28.18798 c 0,-1.05673 9.56068,-10.41135 11.23484,-10.9927 0.62682,-0.21767 -1.2947,2.36983 -4.27004,5.75 -5.16834,5.87153 -6.9648,7.2238 -6.9648,5.2427 z m 24,-25.26837 c 0,-1.48236 8.99325,-10.16866 9.7473,-9.41461 0.59864,0.59864 -7.73835,10.31349 -8.9973,10.48428 -0.4125,0.056 -0.75,-0.42539 -0.75,-1.06967 z m 20.04792,-20.91811 c 1.19311,-2.22936 9.1128,-10.41873 12.48531,-12.91047 1.11662,-0.825 2.91594,-2.16725 3.99849,-2.98277 1.95638,-1.4738 1.95643,-1.46776 0.008,1 -3.36474,4.26191 -15.94868,16.98277 -16.79988,16.98277 -0.44561,0 -0.30698,-0.94029 0.30808,-2.08953 z m 26.95208,-27.32644 c 0,-0.77878 1.6875,-2.72827 3.75,-4.33219 6.37249,-4.95563 6.96151,-4.75606 1.78759,0.60565 -2.72932,2.82838 -5.09182,5.14251 -5.25,5.14251 -0.15817,0 -0.28759,-0.63719 -0.28759,-1.41597 z m 23,-22.40576 c 0,-1.70511 8.9437,-11.17827 10.55351,-11.17827 0.7039,0 1.5068,-0.5625 1.78421,-1.25 0.27741,-0.6875 0.53991,-0.787 0.58333,-0.22111 0.0434,0.56589 -2.84605,3.92789 -6.42105,7.47111 -3.575,3.54322 -6.5,5.87344 -6.5,5.17827 z m 1.59111,-26.3788 c -4.112,-10.96674 -3.65965,-21.39801 1.06209,-24.49181 2.33765,-1.53169 2.59777,-1.50114 4.64436,0.54546 2.83301,2.83301 2.74808,8.86968 -0.1827,12.98557 -1.69985,2.38723 -2.09087,4.20269 -1.88048,8.73086 0.33022,7.10734 -1.41415,8.17501 -3.64327,2.22992 z m 5.40889,-16.71912 c 0,-3.29364 -2.27426,-6.64692 -3.8483,-5.67411 -1.24362,0.7686 -1.57261,8.3333 -0.48561,11.16598 0.60143,1.56731 0.84408,1.51597 2.5,-0.529 1.00865,-1.24563 1.83391,-3.47893 1.83391,-4.96287 z m 18,18.54498 c 0,-1.34531 9.11516,-11.57114 12.3981,-13.90881 l 3.07488,-2.1895 -2.15871,2.98649 c -2.71702,3.75889 -13.31427,14.19501 -13.31427,13.11182 z m -8.34501,-25.45407 c -3.2847,-3.62956 -1.1567,-14.76202 3.27519,-17.13389 1.70571,-0.91287 2.21782,-0.81526 2.73037,0.52043 0.62105,1.61841 -1.39458,3.72461 -2.75802,2.88196 -1.05463,-0.65179 -1.90253,2.2831 -1.90253,6.58532 0,2.86387 0.5813,4.27481 2.25,5.46123 2.14844,1.52752 2.37413,1.45279 5,-1.65552 1.5125,-1.79038 2.75,-2.67512 2.75,-1.96609 0,1.98379 -5.60836,7.1353 -7.76809,7.1353 -1.05706,0 -2.66668,-0.82293 -3.57692,-1.82874 z m 16.88537,-9.42041 c -3.34924,-8.01586 -3.86988,-11.91619 -2.59576,-19.44567 0.66962,-3.95714 1.91285,-7.77191 2.76274,-8.47725 1.36731,-1.13478 1.46372,-0.79992 0.83726,2.90811 -0.99856,5.91039 0.0702,7.00722 3.56509,3.65887 3.52091,-3.37324 3.65424,-2.23656 0.36422,3.10509 -2.68142,4.35354 -3.29201,11.21803 -1.43281,16.10809 0.81496,2.14352 0.71226,3.06712 -0.47284,4.25223 -1.35192,1.35191 -1.67596,1.12616 -3.0279,-2.10947 z m 22.68111,2.08473 c 0.21348,-0.64043 1.48848,-1.85738 2.83334,-2.70435 l 2.44519,-1.53993 -2.42431,2.70435 c -2.61706,2.91936 -3.46686,3.37785 -2.85422,1.53993 z m 18.77853,-19.13633 c 0,-1.71147 13.84064,-15.19195 14.70765,-14.32493 0.34846,0.34846 -0.44606,1.86929 -1.76562,3.37962 -9.07951,10.39222 -12.94203,13.65882 -12.94203,10.94531 z m 23,-23.09566 c 0,-1.6119 6.49555,-7.60359 8.243,-7.60359 0.64538,0 -0.81397,2.025 -3.243,4.5 -4.92307,5.01624 -5,5.06399 -5,3.10359 z m 25,-25.48851 c 0,-1.13638 8.19497,-9.11508 9.36216,-9.11508 1.01313,0 -0.46761,2.10148 -4.75616,6.75 -2.97666,3.2265 -4.606,4.06314 -4.606,2.36508 z m 27,-27.15413 c 0,-0.61019 2.5875,-3.88528 5.75,-7.27798 8.91458,-9.5635 10.61809,-11.07871 11.03827,-9.81816 0.21008,0.63023 -2.66001,4.54474 -6.37797,8.69891 -6.83754,7.63974 -10.4103,10.52163 -10.4103,8.39723 z m 30.01247,-30.08239 c -0.0145,-1.8831 8.59933,-11.07626 12.10274,-12.91675 l 2.38479,-1.25283 -2,2.38672 c -5.92971,7.07627 -12.47623,13.25337 -12.48753,11.78286 z m 27.57428,-28.37856 c 0.85326,-2.44906 7.20796,-9.23659 13.88686,-14.83271 4.39524,-3.68269 4.7217,-3.81843 2.80732,-1.16729 -4.58059,6.34349 -17.7159,18.9326 -16.69418,16 z m 32.28515,-33.25398 c 1.58038,-2.96172 7.8943,-9.24602 9.28959,-9.24602 1.53797,0 -3.14219,5.84435 -7.14927,8.92764 -3.22361,2.48045 -3.30008,2.49182 -2.14032,0.31838 z m -42.1697,377.00398 c -0.31159,-3.7125 -1.77341,-13.725 -3.24848,-22.25 -2.58582,-14.94443 -2.67565,-16.71867 -2.50601,-49.5 0.13425,-25.94182 0.55656,-36.25155 1.78187,-43.5 1.99665,-11.81143 2.1835,-47.48919 0.29569,-56.45989 -2.53045,-12.02446 -8.8491,-17.32255 -15.47871,-12.97866 -3.28106,2.14983 -7.54656,13.16675 -7.54656,19.49123 0,2.7674 -0.6364,8.27517 -1.41422,12.23948 -2.41238,12.29518 -2.72291,23.32652 -1.13184,40.20784 1.75468,18.61726 4.20345,37.4737 5.51777,42.48885 0.50609,1.93113 1.21404,6.43615 1.57322,10.01115 1.52825,15.21095 9.60315,40.70778 20.18976,63.75 0.82126,1.7875 1.72738,3.25 2.01362,3.25 0.28623,0 0.26549,-3.0375 -0.0461,-6.75 z M 382.85743,479.37132 c 7.20356,-1.53108 33.04822,-9.96272 41.04594,-13.39094 5.966,-2.55733 8.1358,-5.06844 16.57443,-19.18162 6.7199,-11.23869 14.09144,-29.69794 16.34283,-40.92451 1.94311,-9.68929 11.21963,-30.82951 18.20927,-41.49705 1.8253,-2.78577 2.82086,-2.66941 -11.67247,-1.36416 -5.775,0.52009 -13.65,1.20462 -17.5,1.52118 -3.85,0.31656 -14.425,1.21514 -23.5,1.99685 -9.075,0.78171 -25.275,2.12975 -36,2.99565 -10.725,0.8659 -23.775,1.99003 -29,2.49806 -5.225,0.50803 -10.65149,0.9353 -12.05887,0.94949 -4.78961,0.0483 -5.93815,1.87853 -4.84402,7.71911 1.17325,6.26298 -0.58291,15.0215 -5.05499,25.21072 -7.78331,17.73356 -9.57653,35.28051 -5.01345,49.05748 2.70676,8.17234 5.64489,11.78769 14.98895,18.44378 10.77385,7.67459 12.98349,8.4638 22.20678,7.93144 4.55158,-0.26271 11.4256,-1.14718 15.2756,-1.96548 z m 902.63027,-20.62125 c -6.0199,-8.62646 -21.9846,-22.61403 -31.1303,-27.27491 -1.925,-0.98104 -5.075,-3.04248 -7,-4.58098 -13.0191,-10.4052 -29.0466,-22.87864 -32,-24.9041 -6.7018,-4.59614 -20.5454,-16.41956 -27.3284,-23.34039 -8.7477,-8.9254 -26.6716,-36.00695 -26.6716,-40.29856 0,-0.74308 -0.3731,-1.35106 -0.8291,-1.35106 -0.8892,0 -3.9688,-6.51289 -6.7535,-14.28266 -0.9427,-2.63046 -2.0973,-5.01951 -2.5657,-5.30901 -0.4684,-0.2895 -0.8517,-1.3625 -0.8517,-2.38444 0,-1.02194 -0.9126,-3.98714 -2.028,-6.58932 l -2.0281,-4.73123 -10.7219,0.62737 c -9.2477,0.54111 -29.7279,2.37793 -46.722,4.19037 -13.1994,1.40773 -14.7855,2.11652 -9.8099,4.3836 1.4796,0.67414 5.4171,3.36718 8.75,5.98453 3.333,2.61735 10.1099,7.42429 15.0599,10.68208 8.7372,5.75028 27.4554,23.41966 45.0261,42.50303 4.171,4.53013 10.6953,10.05009 16.2331,13.73436 11.9977,7.98197 15.4808,9.69975 22.6812,11.186 3.2672,0.67439 6.6422,1.61516 7.5,2.09061 0.8578,0.47545 4.4846,2.03986 8.0596,3.47647 7.8894,3.17034 14.1692,6.70448 19.5,10.97408 2.2,1.76207 7.2691,5.17485 11.2646,7.58396 3.9956,2.40911 9.4552,5.7302 12.1325,7.3802 2.6773,1.65 9.9832,7.607 16.2353,13.23777 11.5275,10.38178 24.7097,21.05708 26.1656,21.1896 0.439,0.0399 -0.5365,-1.83987 -2.1677,-4.17737 z M 331.16758,370.52325 c 1.14353,-1.14353 -2.33165,-4.53039 -5.20082,-5.06865 -2.92729,-0.54916 -9.60933,1.52955 -9.60933,2.98936 0,0.2159 -0.29956,1.17316 -0.66568,2.12727 -0.61066,1.59135 -0.0132,1.6756 7.22913,1.01932 4.34215,-0.39347 8.05316,-0.87376 8.2467,-1.0673 z m 187.18985,-16.09016 c 3.025,-0.27028 7.75,-0.69227 10.5,-0.93775 2.75,-0.24548 8.375,-0.71898 12.5,-1.05224 4.125,-0.33325 16.05,-1.4819 26.5,-2.55256 10.45,-1.07066 22.0244,-2.22318 25.72089,-2.56116 12.1851,-1.11411 5.96374,-2.32897 -12.02991,-2.34912 -9.73004,-0.0109 -20.84098,-0.48458 -24.69098,-1.05265 -9.08098,-1.33988 -19.3001,-1.287 -28.54707,0.14771 -7.85235,1.21834 -25.06093,6.8136 -30.93541,10.05847 l -3.51752,1.94296 9.5,-0.57612 c 5.225,-0.31686 11.975,-0.79725 15,-1.06754 z m 568.99997,-49.94634 c 3.575,-0.27552 9.875,-0.72728 14,-1.00391 4.125,-0.27663 12,-0.93047 17.5,-1.45298 5.5,-0.5225 13.5174,-1.23415 17.8165,-1.58145 5.5933,-0.45184 7.9802,-1.05787 8.3918,-2.13067 0.6795,-1.77056 -1.6311,-11.90027 -5.8889,-25.81767 -4.8091,-15.7196 -4.2798,-14.83039 -7.7572,-13.03216 -1.6296,0.84269 -3.8677,1.53216 -4.9736,1.53216 -1.1059,0 -2.8157,0.81928 -3.7996,1.82063 -0.984,1.00135 -3.814,2.99725 -6.289,4.43534 -2.475,1.43808 -7.0899,5.54019 -10.2553,9.11579 -4.9698,5.61375 -7.5932,7.47214 -19.2208,13.6156 -12.8859,6.80831 -22.3776,13.82559 -20.8147,15.38846 0.4043,0.40439 3.8977,0.48247 7.763,0.17352 3.8653,-0.30895 9.9528,-0.78714 13.5278,-1.06266 z m -16.989,-27.73668 c 2.7203,-4.46176 2.6204,-6.97877 -0.261,-6.56955 -1.9201,0.27269 -2.2947,1.01606 -2.5548,5.06955 -0.1676,2.6125 -0.049,4.75 0.2647,4.75 0.3132,0 1.4612,-1.4625 2.5511,-3.25 z M 538.35743,1438.0591 c 0,-0.5824 0.45,-1.059 1,-1.059 0.55,0 1,0.1984 1,0.441 0,0.2425 -0.45,0.7191 -1,1.059 -0.55,0.3399 -1,0.1415 -1,-0.441 z m 576.03517,-117.9933 c -0.5694,-1.0638 -1.0548,-3.8763 -1.0788,-6.25 -0.024,-2.3736 -0.5016,-6.3407 -1.0615,-8.8157 -2.3039,-10.1844 -2.3492,-9.7457 1.3933,-13.4882 2.5204,-2.5204 4.3958,-3.5118 6.6432,-3.5118 3.9789,0 4.7071,1.8307 3.3428,8.4037 -1.0511,5.0644 -1.0369,5.1137 2.274,7.8697 1.8325,1.5253 3.606,3.6372 3.9412,4.6931 0.7618,2.4005 -2.7002,9.3673 -5.6985,11.4674 -3.1891,2.2337 -8.4699,2.0344 -9.7557,-0.3682 z m 10.4135,-4.2959 c 2.5709,-3.6705 1.9929,-7.4901 -1.399,-9.2441 -5.4412,-2.8138 -6.0497,-2.2716 -6.0497,5.391 0,7.1944 0.8782,8.6461 4.1987,6.9404 0.9343,-0.4799 2.3968,-1.8692 3.25,-3.0873 z m -4.9099,-18.2321 c 2.5663,-6.7198 0.6469,-9.7234 -3.5388,-5.5377 -2.2217,2.2217 -2.6514,6.9486 -0.8,8.8 1.9231,1.9231 2.5337,1.464 4.3388,-3.2623 z m -33.1772,-13.0377 c -0.8975,-2.3388 0.3696,-4.5 2.6384,-4.5 2.5442,0 3.651,2.5106 1.9894,4.5127 -1.5879,1.9134 -3.8911,1.907 -4.6278,-0.013 z m 2.7567,-12.0833 c 0.1581,-6.5676 1.211,-11.2545 2.1824,-9.7144 0.7509,1.1905 -0.7375,13.0678 -1.7665,14.0968 -0.2938,0.2938 -0.481,-1.6783 -0.4159,-4.3824 z m -166.23711,-0.6353 c 0.46036,-2.7769 0.60121,-2.9177 0.91609,-0.9161 0.20464,1.301 -0.0402,2.7776 -0.544,3.2815 -0.55478,0.5547 -0.70153,-0.3782 -0.37209,-2.3654 z m 2.91262,-15.0314 c -0.23111,-0.6875 -0.14949,-2.6 0.18138,-4.25 0.55565,-2.7709 0.64876,-2.8283 1.21933,-0.751 0.33976,1.237 0.22965,2.4889 -0.2447,2.782 -0.47434,0.2932 -0.60895,1.1936 -0.29913,2.001 0.30983,0.8074 0.33832,1.468 0.0633,1.468 -0.275,0 -0.68909,-0.5625 -0.9202,-1.25 z m 203.85139,-12.299 c -0.3648,-6.387 -0.4076,-12.0264 -0.095,-12.5319 1.4598,-2.3619 2.0365,-0.1758 2.3296,8.8309 0.1746,5.3625 0.3856,10.8295 0.4689,12.1488 0.083,1.3193 -0.3416,2.5712 -0.9443,2.7819 -0.7299,0.2552 -1.3172,-3.4935 -1.759,-11.2297 z m 21.5773,9.9923 c -1.9056,-1.3348 -2.2225,-2.4753 -2.2225,-8 0,-6.2062 -0.092,-6.4433 -2.5,-6.4433 -1.375,0 -2.5,-0.4414 -2.5,-0.9809 0,-1.5812 4.6286,-2.2882 6.9271,-1.0581 1.8668,0.9991 2.0818,1.8881 1.8431,7.621 -0.3002,7.2093 0.8267,8.902 4.8963,7.3547 3.2909,-1.2512 2.9021,-0.2821 -0.6168,1.5376 -3.5836,1.8532 -3.1337,1.8556 -5.8272,-0.031 z m -10.6039,-1.3123 c -2.1403,-2.365 -4.1475,-16.2422 -3.227,-22.3106 0.929,-6.1244 3.9636,-10.0325 7.4744,-9.6256 3.8755,0.4491 4.1259,6.0785 0.5916,13.3023 -2.4077,4.9212 -2.5987,6.1188 -1.9718,12.3614 0.7448,7.416 -0.1201,9.3081 -2.8672,6.2725 z m 4.2849,-24.7945 c 0.484,-1.6878 0.5515,-3.6002 0.15,-4.2499 -1.1894,-1.9246 -3.1658,1.2902 -3.7649,6.1242 -0.4885,3.9414 -0.3992,4.1637 1.1016,2.7418 0.8983,-0.8511 2.0292,-2.9283 2.5133,-4.6161 z m -52.9035,19.9552 c 0,-4.3605 1.1174,-9.3372 1.9772,-8.8058 0.7647,0.4726 -0.4921,10.3624 -1.4369,11.3072 -0.2972,0.2971 -0.5403,-0.8285 -0.5403,-2.5014 z m 13.0733,-8.1547 c -1.3821,-2.5825 -0.3708,-5.137 2.0337,-5.137 2.307,0 2.6297,4.1437 0.4627,5.9421 -1.1419,0.9478 -1.6451,0.7855 -2.4964,-0.8051 z m 5.5295,-25.637 c 0.3164,-4.4 1.0398,-8.45 1.6076,-9 1.2168,-1.1787 0.3068,9.2779 -1.2193,14.0113 -0.7056,2.1887 -0.8096,0.8472 -0.3883,-5.0113 z m -14.4869,4 c -0.1457,-4.6557 1.0434,-10.5196 2.0117,-9.9211 1.1999,0.7415 0.9703,4.1577 -0.5996,8.9211 -1.2682,3.8479 -1.3219,3.8859 -1.4121,1 z m 401.6528,-18.2786 c -0.7276,-0.8769 -1.2687,-4.2039 -1.2687,-7.8018 0,-4.808 0.4901,-6.9323 2.0989,-9.0963 2.6582,-3.5757 6.7794,-4.1591 10.4115,-1.4737 l 2.7193,2.0104 0.6296,-6.0231 c 1.2468,-11.9291 6.8981,-19.2103 13.0845,-16.8583 3.1524,1.1986 3.4008,3.2559 0.3062,2.5363 -4.2404,-0.986 -6.589,2.2059 -7.9119,10.753 -1.4964,9.6682 -0.881,10.5233 5.5314,7.6868 7.1827,-3.1772 7.7539,-1.807 1.3015,3.1222 -5.7262,4.3742 -5.7826,4.4673 -5.1055,8.4231 1.1231,6.5605 1.0266,8 -0.536,8 -1.2642,0 -3.1646,-2.6146 -4.3356,-5.9653 -0.1856,-0.5309 -1.6551,0.4412 -3.2657,2.1601 -3.5039,3.7398 -11.4351,5.2068 -13.6595,2.5266 z m 10.8309,-4.7331 c 2.7226,-4.1552 0.3767,-11.4883 -3.675,-11.4883 -3.024,0 -5.2179,10.3067 -2.7246,12.8 1.9382,1.9382 4.632,1.3861 6.3996,-1.3117 z m -18.578,3.552 c -0.5769,-1.0778 -1.3299,-4.1153 -1.6734,-6.75 -0.3435,-2.6347 -1.1248,-5.426 -1.7363,-6.2029 -0.8283,-1.0523 -0.793,-1.52 0.1381,-1.8334 0.6875,-0.2313 1.25,-1.9289 1.25,-3.7722 0,-4.0512 1.2587,-7.5977 3.4877,-9.8266 2.1449,-2.1449 3.0811,-2.0864 5.5123,0.3448 2.8425,2.8425 2.4796,6.3842 -1.0684,10.4251 -2.8249,3.2175 -3.0569,4.0334 -2.9241,10.2848 0.079,3.7346 0.1101,7.3526 0.068,8.0401 -0.1155,1.9016 -1.8757,1.4926 -3.0543,-0.7097 z m 5.3773,-25.2039 c -0.8917,-1.4427 -2.401,0.134 -2.3671,2.4726 0.031,2.119 0.079,2.1286 1.468,0.2937 0.7899,-1.0435 1.1945,-2.2884 0.8991,-2.7663 z m -380.6114,7.6636 c 0.2938,-3.85 0.8732,-8.125 1.2874,-9.5 1.3564,-4.502 0.8589,6.0076 -0.5443,11.5 l -1.2774,5 0.5343,-7 z m -14.6539,4 c 0.057,-1.1 0.4465,-3.35 0.8664,-5 l 0.7634,-3 0.103,3.5 c 0.057,1.925 -0.3332,4.175 -0.8664,5 -0.7976,1.2342 -0.9511,1.1456 -0.8664,-0.5 z m -904.05462,-13.9167 c -0.0434,-1.0541 0.19293,-1.6448 0.52522,-1.3125 0.33229,0.3323 0.36781,1.1948 0.0789,1.9167 -0.31922,0.7977 -0.55618,0.5608 -0.60416,-0.6042 z m 1.09699,-6.0833 c -0.0334,-1.1 0.31164,-3.8 0.76669,-6 0.69564,-3.3631 0.82684,-3.5223 0.82406,-1 -0.004,3.5028 -1.49744,10.0752 -1.59075,7 z m 907.06063,-8.5 c 0,-1.925 0.3435,-4.85 0.7634,-6.5 l 0.7634,-3 0,3.5 c 0,1.925 -0.3435,4.85 -0.7634,6.5 l -0.7634,3 0,-3.5 z m 13.9558,-1 c -0.024,-1.375 0.3162,-4.525 0.7566,-7 l 0.8007,-4.5 0.01,4 c 0,2.2 -0.3366,5.35 -0.7565,7 -0.6918,2.7187 -0.7675,2.7656 -0.8076,0.5 z m -919.06721,-2.5 c -0.22272,-3.754 11.62585,-83.556 12.54519,-84.4939 0.74534,-0.7604 -0.606,10.561 -3.81886,31.9939 -6.15882,41.0854 -8.55004,55.4716 -8.72633,52.5 z m 923.23251,-33 c 0.3117,-2.2 0.5838,-5.5525 0.6045,-7.45 0.025,-2.26 0.3768,-3.111 1.0207,-2.4671 0.638,0.638 0.6486,3.0372 0.03,6.8365 -1.0699,6.5738 -2.5372,9.3044 -1.6554,3.0806 z m -12.1583,-15 c 0,-2.2 0.3602,-5.125 0.8006,-6.5 0.6841,-2.136 0.8006,-1.9177 0.8006,1.5 0,2.2 -0.3602,5.125 -0.8006,6.5 -0.6841,2.136 -0.8006,1.9177 -0.8006,-1.5 z m 15.8323,-13.0833 c 0.062,-3.7837 2.8086,-22.5903 3.3823,-23.164 0.9167,-0.9168 0.7089,1.8562 -1.0094,13.467 -1.5046,10.1668 -2.4442,14.0063 -2.3729,9.697 z m -11.8617,-19.4167 c 0.016,-1.375 0.3896,-3.625 0.83,-5 0.7807,-2.4378 0.8014,-2.4254 0.83,0.5 0.016,1.65 -0.3573,3.9 -0.83,5 -0.7813,1.8181 -0.8568,1.7726 -0.83,-0.5 z m -902.21882,-9.2761 c 0.48674,-4.1199 0.50759,-4.1408 0.84678,-0.8467 0.19127,1.8574 -0.0333,3.7582 -0.49903,4.2239 -0.46573,0.4657 -0.62222,-1.054 -0.34775,-3.3772 z m 431.04327,-10.4739 c -0.003,-1.5125 -0.47422,-4.4375 -1.047,-6.5 -0.97562,-3.513 -1.28751,-3.75 -4.93541,-3.75 -3.99055,0 -5.95181,-1.3011 -3.88587,-2.578 1.51992,-0.9393 14.70054,-0.9287 15.6419,0.013 0.40085,0.4009 -0.13656,1.3616 -1.19424,2.135 -1.58468,1.1587 -1.87989,2.4641 -1.6777,7.4182 0.20006,4.9019 -0.0447,6.0121 -1.32536,6.0121 -1.04552,0 -1.5726,-0.9195 -1.57632,-2.75 z m 490.02085,-16.8333 c 0.01,-2.1542 0.4554,-4.5917 0.9932,-5.4167 0.6677,-1.024 0.7768,0.087 0.3439,3.5 -0.791,6.237 -1.3572,7.0485 -1.3371,1.9167 z m -13.3512,-5.4167 c 0.3228,-4.675 0.9884,-9.4 1.4792,-10.5 1.1112,-2.4908 0.1409,10.4757 -1.1599,15.5 -0.6393,2.4692 -0.7333,0.9966 -0.3193,-5 z m 17.8314,-29 c 0.2679,-3.02503 0.491,-6.51253 0.4958,-7.75003 0,-1.2375 0.4034,-2.25 0.8859,-2.25 0.9976,0 0.3764,7.99089 -0.9718,12.50003 -0.6948,2.3238 -0.7872,1.7603 -0.4099,-2.5 z m -520.00068,1.75 c -1.08822,-3.0745 -2.51441,-11.06374 -2.05674,-11.52141 0.7414,-0.7414 2.19272,3.63956 2.82296,8.52141 0.52928,4.0998 0.14944,5.587 -0.76622,3 z M 1124.781,990.50007 c 0.3049,-2.2 0.5593,-4.7875 0.5654,-5.75 0.01,-0.9625 0.4663,-1.75 1.0228,-1.75 1.1689,0 0.241,7.6621 -1.2109,10 -0.6249,1.00607 -0.7491,0.18286 -0.3773,-2.5 z M 1232.5308,987.31 c -0.6105,-1.14983 -0.6168,-3.99157 -0.017,-7.79175 1.1937,-7.56343 0.5581,-10.12204 -2.7187,-10.94447 -3.4234,-0.85921 -2.5853,-2.99416 1.3278,-3.38248 5.0685,-0.50298 6.546,2.81309 5.6795,12.74643 -0.6296,7.21821 -0.524,8.06234 1.0092,8.06234 2.6929,0 1.1895,2.46456 -1.7141,2.80993 -1.7187,0.20445 -2.9327,-0.30609 -3.5667,-1.5 z m -34.9234,0.0278 c -1.2556,-0.50665 -1.8079,-5.33773 -0.6102,-5.33773 0.3518,0 1.2264,0.7875 1.9435,1.75 1.1948,1.60375 1.5383,1.62161 4.1102,0.21367 3.1726,-1.73672 5.6118,-6.00446 4.7362,-8.28638 -0.6412,-1.6709 -5.9642,-4.03406 -11.4297,-5.07423 -4.4878,-0.8541 -7.2015,-2.91449 -6.4427,-4.89174 1.1349,-2.95753 8.0412,-6.87297 11.5211,-6.53174 1.7971,0.17623 3.4588,0.90255 3.6925,1.61404 0.3045,0.92714 -0.2806,1.11656 -2.0653,0.66862 -2.9332,-0.73618 -8.7056,1.91347 -8.7056,3.99605 0,0.77382 1.0125,1.67801 2.25,2.00933 7.4728,2.00071 10.0907,3.1458 12.3447,5.39978 3.3027,3.30269 2.5899,6.43383 -2.5912,11.3826 -3.6931,3.52749 -5.8116,4.27479 -8.7535,3.08772 z m 22.7231,-3.58772 c -1.0611,-2.3375 -1.9391,-4.8125 -1.9511,-5.5 -0.012,-0.6875 -0.467,-1.25 -1.0108,-1.25 -0.5438,0 -0.9708,-1.0125 -0.9489,-2.25 0.022,-1.2375 -0.2696,-5.28648 -0.6479,-8.99772 -0.7716,-7.5695 1.2633,-14.97424 4.6069,-16.76369 8.8164,-4.71837 11.8649,7.47562 4.9086,19.63401 l -3.1507,5.50678 2.1661,5.9407 c 1.1913,3.26739 1.8895,6.38828 1.5514,6.93531 -1.3403,2.16859 -3.6903,0.78362 -5.5236,-3.25539 z m 3.2289,-19.82265 c 0.9361,-1.88504 1.7236,-5.05975 1.75,-7.05491 0.048,-3.64214 -2.0142,-6.57004 -3.8352,-5.4446 -1.9063,1.17816 -3.3234,7.70871 -2.6488,12.20706 0.7823,5.21714 2.2436,5.30742 4.734,0.29245 z m -52.5961,21.53574 c -1.9577,-1.95773 -2.0267,-3.50538 -0.2637,-5.91635 1.2815,-1.75259 1.417,-1.72858 3,0.53138 2.023,2.88831 2.0878,4.32016 0.2637,5.83395 -1.0763,0.89327 -1.76,0.79094 -3,-0.44898 z m -546.82257,-3.66996 c -0.7586,-2.11515 2.23644,-17.9508 4.27738,-22.61584 1.53521,-3.50906 2.31901,-4.26196 4.16412,-4 1.80687,0.25654 2.46235,1.24544 3.19664,4.82271 0.50803,2.475 1.37961,4.8032 1.93683,5.17378 0.67307,0.44763 0.63823,1.12552 -0.10382,2.01962 -0.61432,0.74021 -1.26038,3.36201 -1.4357,5.82622 -0.38888,5.46609 -2.19961,5.92636 -2.63276,0.66922 -0.26807,-3.25356 -0.62844,-3.76564 -2.46312,-3.5 -1.66708,0.24137 -2.55319,1.64151 -3.95073,6.24257 -2.02018,6.65094 -2.32825,7.2036 -2.98884,5.36172 z m 8.20139,-18.10215 c -0.0125,-1.78124 -0.1966,-1.91047 -0.98469,-0.69099 -1.27319,1.97012 -1.27319,4.28687 0,3.5 0.55,-0.33992 0.99311,-1.60398 0.98469,-2.80902 z M 1164.14,981.76503 c 1.6878,-0.81311 2.5869,-0.79547 3.45,0.0677 0.8899,0.88983 0.3472,1.15128 -2.2826,1.09969 -3.24,-0.0636 -3.311,-0.13462 -1.1674,-1.16737 z m -20.7826,-1.72107 -2.5,-0.75675 2.8043,-0.76561 c 3.2505,-0.88742 9.5515,-0.0658 11.0594,1.44216 1.2219,1.22188 -7.3912,1.28266 -11.3637,0.0802 z m -24.5,-3.04389 -4,-0.71619 5.191,-0.1419 c 2.855,-0.0781 5.4691,0.30809 5.809,0.85809 0.6755,1.09298 -0.8956,1.09298 -7,0 z m -463.16959,-3.58143 c -0.80884,-2.10779 1.67858,-12.24406 4.76565,-19.42016 2.67214,-6.21156 5.18438,-6.65638 7.41689,-1.31325 1.2455,2.9809 1.35565,5.01373 0.57638,10.63704 -1.09345,7.8905 -3.0893,11.36484 -3.0893,5.3778 0,-4.73056 -1.07961,-4.68234 -3.8068,0.17004 -3.03214,5.39496 -4.96313,6.89308 -5.86282,4.54853 z m -14.3088,-1.37825 c -1.86963,-3.49343 -2.22725,-10.35273 -0.75578,-14.4961 1.7666,-4.97443 6.05759,-8.45724 8.52023,-6.91551 2.59513,1.62466 2.54791,5.23765 -0.15513,11.86743 -1.34458,3.29788 -2.21005,6.37579 -1.92327,6.83981 0.28677,0.46401 2.04488,0.55786 3.90689,0.20854 3.91695,-0.73482 4.45083,0.59591 1.16297,2.89881 -3.24798,2.27497 -9.44701,2.04272 -10.75591,-0.40298 z m 5.94779,-16.54032 c 0,-0.55 -0.43621,-0.325 -0.96937,0.5 -0.53316,0.825 -0.96937,1.95 -0.96937,2.5 0,0.55 0.43621,0.325 0.96937,-0.5 0.53316,-0.825 0.96937,-1.95 0.96937,-2.5 z m 439.5306,17.76507 c -5.7913,-0.57728 -6.8803,-2.26808 -1.45,-2.25142 5.2809,0.0162 8.95,0.87834 8.95,2.10298 0,0.48585 -0.7875,0.80772 -1.75,0.71527 -0.9625,-0.0925 -3.55,-0.34753 -5.75,-0.56683 z m -31,-3.99185 c -4.1948,-0.59722 -5.6441,-2.27666 -1.95,-2.25957 3.9298,0.0182 7.45,1.01188 7.45,2.10298 0,0.89933 -0.2359,0.90605 -5.5,0.15659 z m -446.33707,-7.54621 c -0.72283,-3.17514 -1.10883,-6.32514 -0.85777,-7 0.84032,-2.25879 2.79501,4.60559 2.48157,8.71468 l -0.30955,4.05831 -1.31425,-5.77299 z m 413.33707,3.37786 c -2.4767,-0.37851 -3.4165,-0.85194 -2.4677,-1.24316 1.5743,-0.64917 11.7933,0.63055 12.7608,1.59801 0.6628,0.66286 -4.8855,0.47159 -10.2931,-0.35485 z m 105.6406,-3.60487 c 0,-1.65 0.3867,-3.9 0.8594,-5 0.7327,-1.70508 0.8594,-1.55762 0.8594,1 0,1.65 -0.3867,3.9 -0.8594,5 -0.7327,1.70508 -0.8594,1.55762 -0.8594,-1 z m -143.14057,-1.5 c 0,-1.1573 3.3863,-1.1573 7,0 2.0376,0.65256 1.6215,0.81908 -2.25,0.90032 -2.6125,0.0548 -4.75,-0.35032 -4.75,-0.90032 z m -25.5,-3.05485 c -1.746,-0.7024 -1.6507,-0.81351 0.75,-0.87486 2.713,-0.0693 3.4642,0.3985 2,1.24556 -0.4125,0.23864 -1.65,0.0718 -2.75,-0.3707 z m 183.57887,-0.36182 c -0.043,-1.05416 0.193,-1.64479 0.5253,-1.3125 0.3323,0.33229 0.3678,1.1948 0.079,1.91667 -0.3192,0.79773 -0.5562,0.56078 -0.6042,-0.60417 z m -206.57887,-2.58333 c -0.33992,-0.55 0.28197,-1 1.382,-1 1.1,0 2.2781,0.45 2.618,1 0.3399,0.55 -0.282,1 -1.382,1 -1.1,0 -2.27808,-0.45 -2.618,-1 z m 207.68907,-3.5 c -0.023,-1.65 0.3195,-5.025 0.7599,-7.5 0.7465,-4.19574 0.8052,-4.26336 0.8682,-1 0.037,1.925 -0.3048,5.3 -0.7598,7.5 -0.7137,3.45022 -0.833,3.58767 -0.8683,1 z m -241.18907,-0.5 c -2.16883,-0.69458 -1.97013,-0.81182 1.5,-0.88501 2.2,-0.0464 4.675,0.35185 5.5,0.88501 1.14257,0.73838 0.78514,0.94927 -1.5,0.88501 -1.65,-0.0464 -4.125,-0.44466 -5.5,-0.88501 z m -43,-5 c -2.44072,-0.78166 -2.42887,-0.80164 0.5,-0.84269 1.65,-0.0231 4.8,0.33027 7,0.78532 l 4,0.82737 -4.5,0.0153 c -2.475,0.008 -5.625,-0.34497 -7,-0.78532 z m 652.56197,-5.25 c 0.347,-2.8875 1.428,-6.38881 2.4022,-7.78068 0.9743,-1.39188 2.683,-4.31688 3.7972,-6.5 2.9041,-5.69036 5.7732,-8.10045 7.7198,-6.48489 0.8354,0.69325 1.5188,2.12771 1.5188,3.18767 0,2.4355 -2.608,7.64341 -5.3037,10.59114 -2.6573,2.90564 -1.4969,4.11952 4.9171,5.14395 3.6116,0.57684 4.4179,0.98427 3.0901,1.56147 -1.8002,0.78262 -8.2328,0.25479 -12.4556,-1.02205 -1.9064,-0.57646 -2.484,-0.12588 -3.7634,2.93622 -0.8312,1.98944 -1.7458,3.61717 -2.0324,3.61717 -0.2865,0 -0.2371,-2.3625 0.1099,-5.25 z m 12.4922,-14.88084 c 1.2707,-3.06778 0.8375,-4.53832 -1.002,-3.40145 -1.3092,0.80918 -5.0522,7.97082 -5.0522,9.66677 0,1.87988 4.6913,-2.97502 6.0542,-6.26532 z m -393.8209,15.13084 c 0,-1.925 0.3468,-4.85 0.7667,-6.5 0.6955,-2.73325 0.7688,-2.77771 0.8241,-0.5 0.033,1.375 -0.3117,4.3 -0.7667,6.5 l -0.8274,4 0,-3.5 z m -303.73327,1 c -2.73325,-0.69549 -2.77771,-0.76877 -0.5,-0.82406 1.375,-0.0334 4.3,0.31164 6.5,0.76669 l 4,0.82737 -3.5,-0.003 c -1.925,-0.002 -4.85,-0.34684 -6.5,-0.76669 z m -29.26166,-3.68708 c 0.95609,-0.25029 2.75609,-0.25937 4,-0.0202 1.24391,0.23919 0.46166,0.44398 -1.73834,0.45508 -2.2,0.0111 -3.21775,-0.18461 -2.26166,-0.4349 z m 739.98093,-0.87185 c -2.625,-1.83865 -2.8324,-4.57574 -0.6043,-7.97625 1.9423,-2.96426 3.7716,-3.2584 2.8847,-0.46383 -0.5729,1.80508 -0.3771,1.9029 1.9999,0.99916 1.4493,-0.55101 3.6172,-1.51694 4.8177,-2.1465 l 2.1827,-1.14467 -1.9976,2.24789 c -1.0987,1.23634 -3.2362,2.88837 -4.75,3.67119 -3.6761,1.90098 -3.4809,3.37194 0.4476,3.37194 1.9101,0 2.817,0.3578 2.25,0.88761 -1.9595,1.83079 -5.0674,2.06868 -7.2307,0.55346 z m 17.8159,-1.37533 c -1.4704,-2.74749 -1.2816,-10.54033 0.3501,-14.44539 2.2991,-5.50262 10.4374,-9.39765 13.4147,-6.42035 1.8824,1.88238 1.4212,2.56495 -1.3721,2.03096 -3.6168,-0.6914 -7.4279,1.58565 -7.4279,4.43802 0,2.74579 0.4114,2.80278 6,0.83102 2.3383,-0.825 4.9824,-1.48569 5.8757,-1.4682 2.2419,0.0439 -0.8949,2.43636 -6.8757,5.24416 -4.5787,2.14957 -6.2038,3.58531 -5.446,4.81143 0.6252,1.01158 -1.6085,6.91261 -2.6166,6.91261 -0.4769,0 -1.3329,-0.87042 -1.9022,-1.93426 z m -797.03517,-2.06574 c -3.25922,-0.68604 -3.15603,-0.73763 1.5,-0.75004 2.75,-0.007 6.35,0.33019 8,0.75004 2.67457,0.68056 2.51185,0.76192 -1.5,0.75004 -2.475,-0.007 -6.075,-0.34485 -8,-0.75004 z m -25.25,-3.66228 c 0.6875,-0.27741 1.8125,-0.27741 2.5,0 0.6875,0.27741 0.125,0.50439 -1.25,0.50439 -1.375,0 -1.9375,-0.22698 -1.25,-0.50439 z m -12.12084,-1.12873 c -0.26888,-0.43506 1.16707,-0.63412 3.19099,-0.44236 6.1838,0.5859 6.91305,0.9956 1.98887,1.11737 -2.58004,0.0638 -4.91098,-0.23995 -5.17986,-0.67501 z m -30.89819,-3.86493 c 0.67703,-0.27392 2.02703,-0.29059 3,-0.0371 0.97297,0.25354 0.41903,0.47766 -1.23097,0.49804 -1.65,0.0204 -2.44606,-0.18706 -1.76903,-0.46099 z m 850.7279,-1.41059 c -0.3626,-0.58659 -0.5016,-1.22024 -0.309,-1.40811 0.8066,-0.78689 11.8501,-3.27942 11.8501,-2.67458 0,0.61266 -9.1034,5.14922 -10.3328,5.14922 -0.302,0 -0.8458,-0.47994 -1.2083,-1.06653 z m -894.95887,-3.9845 c -1.97271,-0.53552 -0.94543,-0.62335 3,-0.25649 3.3,0.30686 6.1875,0.72658 6.41667,0.93272 0.74404,0.66929 -6.33207,0.16114 -9.41667,-0.67623 z m 501.65787,-1.94897 c 0,-1.375 0.227,-1.9375 0.5044,-1.25 0.2774,0.6875 0.2774,1.8125 0,2.5 -0.2774,0.6875 -0.5044,0.125 -0.5044,-1.25 z m -44.6579,-19 -4,-0.71619 4.5,-0.12659 c 2.475,-0.0696 5.175,0.30962 6,0.84278 1.2322,0.79631 1.1429,0.94677 -0.5,0.84278 -1.1,-0.0696 -3.8,-0.44888 -6,-0.84278 z m -34.708,-3.92492 c -7.1852,-1.00376 -7.1628,-2.43524 0.026,-1.65028 7.3098,0.79818 12.8006,2.49802 7.6821,2.3782 -1.65,-0.0386 -5.1186,-0.36619 -7.708,-0.72792 z m -39.792,-5.07508 c -2.1282,-0.68157 -1.9051,-0.79787 1.5,-0.78201 2.2,0.0103 5.35,0.36216 7,0.78201 2.6927,0.68517 2.539,0.76528 -1.5,0.78201 -2.475,0.0102 -5.625,-0.34166 -7,-0.78201 z m -30.99997,-3.89572 c -2.0262,-0.56439 -2.1837,-0.81791 -0.8312,-1.33778 2.0995,-0.80696 7.29097,-0.18081 9.58617,1.15622 1.3824,0.80523 0.9137,1.00207 -2.255,0.94719 -2.2,-0.0381 -5.12497,-0.38263 -6.49997,-0.76563 z m -40,-5.10428 c -2.0378,-0.65261 -1.668,-0.80064 2,-0.80064 2.475,0 5.625,0.36029 7,0.80064 2.0378,0.65261 1.668,0.80064 -2,0.80064 -2.475,0 -5.625,-0.36029 -7,-0.80064 z m -29.5,-4 c -2.85379,-0.72617 -2.80505,-0.76428 1,-0.78201 2.2,-0.0102 5.125,0.34166 6.5,0.78201 2.2555,0.72235 2.1578,0.79882 -1,0.78201 -1.925,-0.0103 -4.85,-0.36216 -6.5,-0.78201 z m -36,-3.73493 c -2.2,-0.2193 -4.45,-0.87124 -5,-1.44875 -1.26822,-1.33167 8.55479,-0.0819 9.95,1.26595 0.6,0.57962 0.6,0.8558 0,0.74963 -0.5225,-0.0925 -2.75,-0.34753 -4.95,-0.56683 z m 62.3772,-1.20738 c -0.7575,-0.30673 -1.5151,-1.19636 -1.6836,-1.97696 -0.2243,-1.03891 0.044,-1.14268 1,-0.38721 0.7185,0.56764 3.3928,0.86119 5.9429,0.65233 3.2106,-0.26296 4.7928,0.0276 5.1448,0.94489 0.3782,0.98538 -0.7128,1.32464 -4.2593,1.32464 -2.6222,0 -5.3874,-0.25096 -6.1448,-0.55769 z m -14.6689,-1.77994 c -0.9508,-0.34759 -1.0031,-0.82013 -0.1979,-1.79025 0.8026,-0.96715 1.9451,-1.07386 4.2917,-0.40086 1.7588,0.50443 3.3104,0.91629 3.4479,0.91525 2.6763,-0.0203 3.25,0.15593 3.25,0.99811 0,0.55 -1.35,1 -3,1 -1.7252,0 -3.0065,-0.53118 -3.0153,-1.25 -0.01,-0.77413 -0.295,-0.86931 -0.75,-0.25 -0.8616,1.1727 -2.2255,1.43616 -4.0264,0.77775 z m -92.48919,-2.24847 c -13.10033,-1.67092 -18.52268,-3.02928 -12.09241,-3.02928 3.68198,0 32.69163,3.98499 33.27796,4.57132 0.81193,0.81194 -7.43782,0.21146 -21.18555,-1.54204 z m 87.91926,0.47072 c 0.31659,-0.825 1.31496,-1.46447 2.21863,-1.42105 1.0472,0.0503 1.1875,0.26259 0.3868,0.58541 -0.691,0.27855 -1.0019,0.91803 -0.691,1.42105 0.3109,0.50302 -0.1222,0.91459 -0.9624,0.91459 -0.94705,0 -1.30887,-0.57008 -0.95203,-1.5 z m -11.9074,-1.15594 c 0.67703,-0.27392 2.02703,-0.29059 3,-0.0371 0.97297,0.25354 0.41903,0.47766 -1.23097,0.49804 -1.65,0.0204 -2.44606,-0.18706 -1.76903,-0.46099 z m 6.00236,-0.46815 c 0.67834,-0.68342 1.48524,-0.99067 1.79313,-0.68278 0.30789,0.30789 -0.24711,0.86705 -1.23333,1.24258 -1.4252,0.54268 -1.54006,0.42782 -0.5598,-0.5598 z m -11.17908,-0.78813 c -0.31008,-0.50171 0.10034,-0.81474 0.91204,-0.69561 2.14123,0.31427 3.15446,1.60783 1.25939,1.60783 -0.8842,0 -1.86135,-0.4105 -2.17143,-0.91222 z m -9.55425,-1.08778 c 0,-0.55 0.19844,-1 0.44098,-1 0.24254,0 0.7191,0.45 1.05902,1 0.33992,0.55 0.14148,1 -0.44098,1 -0.58246,0 -1.05902,-0.45 -1.05902,-1 z m -101.76597,-2.05992 c -3.44628,-0.35128 -6.59628,-0.97588 -7,-1.38801 -0.71877,-0.73375 12.86262,0.32939 13.68264,1.07107 0.93462,0.84533 -0.72601,0.92409 -6.68264,0.31694 z M 765.626,857.06014 c -4.43273,-0.7224 -6.98439,-2.10534 -3.68524,-1.99731 1.05417,0.0345 5.29167,0.65286 9.41667,1.3741 6.34974,1.11022 6.80984,1.31146 3,1.31208 -2.475,4e-4 -6.40414,-0.30959 -8.73143,-0.68887 z m -36.76857,-5.06007 -3,-0.76337 3,-0.048 c 1.65,-0.0264 3.9,0.33871 5,0.8114 2,0.85943 2,0.85943 0,0.8114 -1.1,-0.0264 -3.35,-0.39155 -5,-0.8114 z m -34.5,-4 c -3.45203,-0.72662 -3.43833,-0.7369 1,-0.75004 2.475,-0.007 5.85,0.33019 7.5,0.75004 2.83853,0.72228 2.78471,0.76265 -1,0.75004 -2.2,-0.007 -5.575,-0.34485 -7.5,-0.75004 z m -34.85154,-4.07732 c -3.49334,-0.45304 -6.86834,-1.03545 -7.5,-1.29425 -2.42494,-0.99353 6.17522,-0.44419 12.85154,0.8209 7.75952,1.47034 4.53526,1.75553 -5.35154,0.47335 z m -422.9431,-73.17523 c -1.46965,-1.77083 -6.71967,-19.93364 -8.12263,-28.10083 -1.01253,-5.89433 -0.95753,-7.18876 0.39305,-9.25 1.86099,-2.84023 2.75607,-2.94604 6.14389,-0.72625 5.78139,3.78811 17.80859,26.20963 15.80135,29.45742 -0.76802,1.24268 -4.13324,-1.64571 -4.96288,-4.25967 -0.90135,-2.8399 -2.17839,-2.27153 -5.02382,2.23592 -2.26817,3.59302 -2.44452,4.45713 -1.41622,6.93965 1.67078,4.03364 -0.34072,6.68235 -2.81274,3.70376 z m 4.24872,-13.69952 c 2.66863,-2.78545 2.75321,-3.13821 1.49851,-6.25 -2.03535,-5.04783 -7.94117,-13.79793 -9.31283,-13.79793 -1.22348,0 -0.59695,6.54805 1.37559,14.37663 1.09156,4.33215 1.98465,8.04465 1.98465,8.25 0,1.1513 1.97722,0.007 4.45408,-2.5787 z M 943.35743,599.1181 c 0,-0.55 0.45,-1.27811 1,-1.61803 0.55,-0.33992 1,-0.16803 1,0.38197 0,0.55 -0.45,1.27811 -1,1.61803 -0.55,0.33992 -1,0.16803 -1,-0.38197 z M 0.58952548,401.28554 c 1.50265002,-0.22817 4.20265002,-0.23276 6.00000002,-0.0102 1.79735,0.22256 0.567909,0.40925 -2.732091,0.41486 -3.30000002,0.006 -4.77055902,-0.17648 -3.26790902,-0.40466 z M 997.89303,315.05772 c -0.4047,-0.65489 -0.5246,-1.40201 -0.2663,-1.66026 0.6887,-0.68874 13.78627,-0.67513 14.47647,0.015 1.0688,1.06884 -0.2437,1.48043 -6.8933,2.1617 -4.65,0.47641 -6.79687,0.32486 -7.31687,-0.51648 z m 27.44237,-22.75343 c -4.7771,-7.53263 -3.6627,-17.26064 2.5357,-22.13632 2.8638,-2.2527 6.4863,-2.90495 6.4863,-1.1679 0,0.55 -0.4409,1 -0.9797,1 -1.2808,0 -5.0203,7.35819 -5.0203,9.87837 0,3.8656 1.1298,5.12163 4.607,5.12163 3.8841,0 4.4514,1.73219 1.4553,4.44366 -1.4797,1.33908 -1.7312,2.297 -1.0639,4.05216 1.0431,2.74365 0.46,3.50418 -2.6871,3.50418 -1.7166,0 -3.1629,-1.27341 -5.3333,-4.69578 z m 218.022,1.6644 c 0,-0.53274 0.675,-0.96862 1.5,-0.96862 0.825,0 1.5,0.17686 1.5,0.39301 0,0.21616 -0.675,0.65203 -1.5,0.96862 -0.825,0.31658 -1.5,0.13972 -1.5,-0.39301 z m -565.99997,-5.96862 c -0.90129,-0.58246 -1.02463,-0.97549 -0.30902,-0.98469 0.65504,-0.008 1.4691,0.43469 1.80902,0.98469 0.7673,1.24153 0.42112,1.24153 -1.5,0 z m 368.11537,-3.58043 c -1.1635,-1.47911 -2.1154,-3.6636 -2.1154,-4.85443 0,-1.19083 -0.5008,-2.66593 -1.1129,-3.27801 -1.3891,-1.38913 -0.311,-3.28713 1.8672,-3.28713 0.8999,0 2.8899,-1.20109 4.4222,-2.66908 2.4365,-2.33436 3.1018,-2.52516 5.3047,-1.52144 1.8043,0.8221 2.5219,1.93379 2.5298,3.91908 0.01,1.52429 0.3007,4.5252 0.6547,6.66868 0.6277,3.80002 0.5793,3.88106 -1.9412,3.24846 -2.158,-0.54161 -2.6378,-0.27683 -2.9047,1.60275 -0.4761,3.35219 -4.1288,3.44542 -6.7044,0.17112 z m -79.77467,-1.86491 c 0.3626,-0.94503 0.6593,-2.35643 0.6593,-3.13645 0,-0.78001 0.423,-1.41821 0.9401,-1.41821 1.4783,0 0.6908,5.28972 -0.8647,5.80821 -0.9742,0.32472 -1.1955,-0.0528 -0.7347,-1.25355 z m -547.3407,-0.55466 c 0,-0.55 0.19844,-1 0.44098,-1 0.24254,0 0.7191,0.45 1.05902,1 0.33992,0.55 0.14148,1 -0.44098,1 -0.58246,0 -1.05902,-0.45 -1.05902,-1 z m -92.80505,-4.5 c -0.0204,-1.65 0.18706,-2.44606 0.46099,-1.76903 0.27392,0.67703 0.29059,2.02703 0.0371,3 -0.25354,0.97297 -0.47766,0.41903 -0.49804,-1.23097 z m 643.88395,-0.91667 c -0.043,-1.05416 0.193,-1.64479 0.5253,-1.3125 0.3323,0.33229 0.3678,1.19479 0.079,1.91667 -0.3192,0.79773 -0.5562,0.56078 -0.6042,-0.60417 z m -3.5041,-0.46223 c -0.3098,-0.50134 0.1091,-1.16956 0.9309,-1.48493 0.8219,-0.31537 1.4943,-0.16408 1.4943,0.3362 0,1.35555 -1.7771,2.19731 -2.4252,1.14873 z m 103.49547,-29.20443 c 0.039,-1.87917 0.4603,-4.31667 0.9369,-5.41667 0.5576,-1.2867 0.6606,-0.21675 0.2889,3 -0.6871,5.94562 -1.3242,7.20169 -1.2258,2.41667 z m 2.0876,-14.91667 c 0,-1.375 0.227,-1.9375 0.5044,-1.25 0.2774,0.6875 0.2774,1.8125 0,2.5 -0.2774,0.6875 -0.5044,0.125 -0.5044,-1.25 z m -763.24453,-0.2818 c -4.08091,-3.13323 -5.07269,-10.00773 -2.3752,-16.46372 1.85874,-4.4486 3.73253,-6.64779 8.8619,-10.40088 5.90363,-4.3196 7.51953,-3.41518 2.22495,1.2453 -5.59195,4.92223 -9.285,10.92079 -10.18352,16.54091 -0.54723,3.42287 -0.2964,4.50526 1.44834,6.25 2.69323,2.69323 3.79339,2.65196 9.44763,-0.35443 3.96751,-2.10955 4.46904,-2.19836 3.48114,-0.61649 -2.69151,4.30979 -9.59373,6.3418 -12.90524,3.79931 z m 764.24453,-5.7182 c 0,-1.375 0.227,-1.9375 0.5044,-1.25 0.2774,0.6875 0.2774,1.8125 0,2.5 -0.2774,0.6875 -0.5044,0.125 -0.5044,-1.25 z m -738.46474,-3.7866 c -2.42896,-2.68396 -4.69716,-8.73304 -4.66133,-12.43128 0.0301,-3.10246 0.11217,-3.17587 1.5,-1.34099 0.80751,1.06762 1.4682,3.34411 1.4682,5.05887 0,3.71759 2.40113,7.48343 3.82565,6 0.52816,-0.55 1.66784,-4.17016 2.53262,-8.04481 1.8677,-8.36829 3.94685,-13.6336 6.08395,-15.40724 2.23628,-1.85594 2.07648,-0.49426 -1.51368,12.89847 -4.22347,15.75524 -5.42349,17.47911 -9.23541,13.26698 z m 20.57992,-4.91551 c -2.48721,-3.79049 -3.07974,-20.43145 -0.9122,-25.6191 1.26923,-3.03769 2.04179,-3.67879 4.43314,-3.67879 3.43233,0 5.50743,2.11225 7.17466,7.30311 1.6377,5.0989 0.7429,7.96964 -4.13286,13.25921 -3.60251,3.90827 -4.02801,4.86572 -3.52898,7.94089 0.67816,4.17902 -0.59433,4.51234 -3.03376,0.79468 z m 7.72794,-17.8009 c 1.21333,-3.67643 -0.10044,-8.49699 -2.31572,-8.49699 -2.12275,0 -3.68527,4.54576 -3.68527,10.72137 l 0,5.62726 2.47098,-2.32137 c 1.35904,-1.27675 2.94754,-3.76537 3.53001,-5.53027 z m 711.69148,15.00301 c 0.3068,-3.3 0.7266,-6.1875 0.9327,-6.41667 0.6693,-0.74404 0.1611,6.33207 -0.6762,9.41667 -0.5356,1.97271 -0.6234,0.94543 -0.2565,-3 z m 1.5024,-10 c -0.02,-1.65 0.1871,-2.44606 0.461,-1.76903 0.274,0.67703 0.2906,2.02703 0.037,3 -0.2536,0.97297 -0.4777,0.41903 -0.4981,-1.23097 z m 1,-7 c -0.02,-1.65 0.1871,-2.44606 0.461,-1.76903 0.274,0.67703 0.2906,2.02703 0.037,3 -0.2536,0.97297 -0.4777,0.41903 -0.4981,-1.23097 z m -368.99992,-3 c -0.0204,-1.65 0.18706,-2.44606 0.46099,-1.76903 0.27392,0.67703 0.29059,2.02703 0.0371,3 -0.25354,0.97297 -0.47766,0.41903 -0.49804,-1.23097 z m 175.80505,1 c 0,-0.825 0.867,-1.5 1.92668,-1.5 1.05967,0 2.07217,-0.72739 2.25,-1.61643 0.28068,-1.40323 0.65306,-1.34167 2.82332,0.46673 l 2.5,2.08316 -2.69098,0.0333 c -1.48004,0.0183 -2.9691,0.48327 -3.30902,1.03327 -0.95485,1.54499 -3.5,1.18139 -3.5,-0.5 z m 194.18907,-3.5 c -0.023,-1.375 0.3195,-4.525 0.7599,-7 0.6004,-3.37449 0.8176,-3.74966 0.8682,-1.5 0.037,1.65 -0.3048,4.8 -0.7598,7 -0.5179,2.5038 -0.8427,3.06488 -0.8683,1.5 z m -369.03118,-4 c 0,-1.375 0.22698,-1.9375 0.50439,-1.25 0.27741,0.6875 0.27741,1.8125 0,2.5 -0.27741,0.6875 -0.50439,0.125 -0.50439,-1.25 z m 1,-7 c 0,-1.375 0.22698,-1.9375 0.50439,-1.25 0.27741,0.6875 0.27741,1.8125 0,2.5 -0.27741,0.6875 -0.50439,0.125 -0.50439,-1.25 z m 370.03698,-3.5 c -0.02,-1.65 0.1871,-2.44606 0.461,-1.76903 0.274,0.67703 0.2906,2.02703 0.037,3 -0.2536,0.97297 -0.4777,0.41903 -0.4981,-1.23097 z M 710.43638,172.5834 c -0.0434,-1.05416 0.19293,-1.64479 0.52522,-1.3125 0.33229,0.33229 0.36781,1.19479 0.0789,1.91667 -0.31922,0.79773 -0.55618,0.56078 -0.60416,-0.60417 z m 370.15302,-1.58333 c 0,-1.925 0.2058,-2.7125 0.4573,-1.75 0.2516,0.9625 0.2516,2.5375 0,3.5 -0.2515,0.9625 -0.4573,0.175 -0.4573,-1.75 z m -21.5089,-17.00315 c -4.811,-3.78438 -2.8899,-10.82304 4.9185,-18.02061 5.3098,-4.89439 8.6711,-5.11554 9.1866,-0.60442 0.1805,1.5795 -0.157,3.357 -0.75,3.95 -0.7709,0.77091 -1.0782,0.1453 -1.0782,-2.19514 0,-4.673 -2.4007,-3.82742 -7.7443,2.7277 -3.8146,4.67943 -4.3229,5.86891 -4.0582,9.49751 l 0.3025,4.14811 5.2423,-0.0423 c 5.7133,-0.0461 5.8327,1.00585 0.2308,2.0339 -2.748,0.50432 -4.1282,0.17423 -6.25,-1.49477 z m 24.493,-2.24685 c -2.7942,-5.60418 -4.2815,-16.75 -2.2352,-16.75 1.0502,0 1.5691,1.87252 2.4937,9 0.6915,5.33027 2.1375,8.31891 2.8894,5.97197 0.2594,-0.80958 2.0712,-6.67852 4.0263,-13.04208 2.2637,-7.36814 4.348,-12.271 5.7392,-13.5 2.1621,-1.9101 2.1789,-1.90939 1.6404,0.0701 -2.4038,8.83661 -7.0745,23.98465 -8.2986,26.91453 -1.7332,4.14801 -4.5527,4.74998 -6.2552,1.33547 z m -335.5061,-3.51798 c -2.3163,-2.55949 -5.66017,-10.3197 -5.70166,-13.23202 -0.0196,-1.375 -0.28403,-3.42482 -0.58764,-4.55515 -0.53569,-1.99432 -0.69767,-2.00912 -5.47297,-0.5 -3.8533,1.21774 -4.92385,2.01619 -4.93432,3.68015 -0.0272,4.32338 -1.3036,8.375 -2.63838,8.375 -1.67333,0 -1.38466,1.18196 -2.32024,-9.5 -0.43354,-4.95 -1.11022,-9.75845 -1.50373,-10.68545 -0.58606,-1.38061 -0.1545,-1.66951 2.38603,-1.59728 2.38291,0.0678 3.238,0.63203 3.69063,2.43546 1.09002,4.34298 8.62334,1.70781 10.60468,-3.70955 0.44804,-1.225 0.7855,-1.19824 2.23217,0.17697 1.33073,1.26501 1.76361,3.72317 1.97476,11.21414 0.22152,7.8585 0.72126,10.50494 2.76266,14.62985 2.54895,5.1505 2.35823,6.41733 -0.49199,3.26788 z m 351.8519,-0.98202 c -0.7451,-3.43238 1.791,-13.3648 4.7782,-18.71368 1.6332,-2.9243 2.7922,-3.94221 4.2071,-3.69472 1.074,0.18789 2.1216,0.80664 2.3278,1.375 0.2063,0.56837 1.1063,1.76922 2,2.66855 1.2591,1.26702 1.6533,3.85226 1.7506,11.48272 0.1352,10.60125 -0.5445,10.80569 -3.2082,0.96502 -1.6375,-6.0492 -1.736,-6.17027 -3.8786,-4.76636 -1.2091,0.79227 -2.448,1.19094 -2.753,0.88593 -0.8656,-0.86564 -2.7858,5.47337 -2.7858,9.19676 0,4.04105 -1.6054,4.43663 -2.4381,0.60078 z m -393.39666,-3.01798 c -2.40908,-3.38324 -2.43051,-3.52369 -2.28369,-14.96624 0.11064,-8.6229 0.30411,-9.44199 2.92252,-12.3725 2.42076,-2.7093 3.23924,-3.04268 5.98782,-2.439 4.26588,0.93695 7.20814,4.86402 7.20814,9.62081 0,3.02997 -1.01882,5.13462 -5,10.32888 -3.4698,4.52706 -5,7.45273 -5,9.55977 0,3.77521 -1.27416,3.86435 -3.83479,0.26828 z m 8.15103,-16.2655 c 3.57126,-5.03481 3.40943,-9.32373 -0.36842,-9.76385 -3.72909,-0.43445 -6.28115,2.87127 -6.28115,8.13605 0,7.7325 1.97626,8.21628 6.64957,1.6278 z"
     id="path3109"
     style="fill:#000000" />
</svg>
