<?xml version="1.0" encoding="UTF-8" standalone="no"?>
<!-- Created with Inkscape (http://www.inkscape.org/) -->

<svg
   xmlns:dc="http://purl.org/dc/elements/1.1/"
   xmlns:cc="http://creativecommons.org/ns#"
   xmlns:rdf="http://www.w3.org/1999/02/22-rdf-syntax-ns#"
   xmlns:svg="http://www.w3.org/2000/svg"
   xmlns="http://www.w3.org/2000/svg"
   version="1.1"
   width="1640.5314"
   height="2063.2476"
   id="svg2997">
  <metadata
     id="metadata3003">
    <rdf:RDF>
      <cc:Work
         rdf:about="">
        <dc:format>image/svg+xml</dc:format>
        <dc:type
           rdf:resource="http://purl.org/dc/dcmitype/StillImage" />
        <dc:title></dc:title>
      </cc:Work>
    </rdf:RDF>
  </metadata>
  <defs
     id="defs3001" />
  <path
     d="m 1021.25,2063.1777 c -3.5226,-0.2028 -5.25,-0.7355 -5.25,-1.6191 0,-1.4792 5.0862,-2.5509 12.1853,-2.5676 2.8342,-0.01 9.353,-1.6082 16.5,-4.0538 6.4981,-2.2235 14.0647,-4.7561 16.8147,-5.6278 2.75,-0.8718 5.9649,-2.1818 7.1442,-2.911 4.769,-2.9489 15.1769,-5.5422 32.0631,-7.9891 25.077,-3.6339 26.4172,-3.9426 37.1649,-8.5617 9.8927,-4.2518 26.9412,-10.0644 33.1354,-11.2974 3.8212,-0.7607 4.1751,-0.877 17.9924,-5.9127 5.225,-1.9043 12.875,-3.9761 17,-4.6041 8.8828,-1.3522 27.6668,-6.9839 37.5,-11.243 3.85,-1.6676 9.25,-3.9836 12,-5.1466 2.75,-1.1631 10.625,-5.5521 17.5,-9.7534 6.875,-4.2012 19.7,-11.6111 28.5,-16.4663 15.8704,-8.7562 33.7716,-20.456 40.5,-26.4699 1.925,-1.7206 7.1634,-6.225 11.6408,-10.0099 16.9817,-14.3547 23.363,-22.1523 31.8874,-38.9643 2.6493,-5.225 6.9487,-13.325 9.5542,-18 6.4467,-11.5672 11.1858,-24.0915 14.7573,-39 5.0411,-21.0433 5.4701,-25.6686 4.8896,-52.71 -0.8555,-39.8474 -5.4996,-58.7305 -20.55,-83.5565 -8.2379,-13.5887 -10.5777,-22.92 -10.4643,-41.7335 0.1638,-27.1638 7.8461,-51.629 25.2703,-80.4756 7.8486,-12.9938 12.8132,-17.891 23.5339,-23.2146 6.9275,-3.4399 9.6552,-5.3696 10.8844,-7.7 0.9022,-1.7104 2.531,-4.5022 3.6195,-6.204 4.381,-6.8496 6.2753,-17.6611 6.3786,-36.4058 0.085,-15.4656 -0.1678,-18.3894 -2.1769,-25.1505 -2.9282,-9.8539 -9.9452,-26.7731 -12.1724,-29.3495 -2.8533,-3.3008 -6.3237,-9.5621 -5.665,-10.2208 0.6841,-0.684 5.558,1.6554 5.4464,2.6142 -0.2111,1.8133 0.3926,3.2323 2.4591,5.7799 2.4381,3.0057 9.0064,18.2233 12.8739,29.8267 2.1413,6.4241 2.326,8.6042 2.2455,26.5 -0.1021,22.7185 -1.7535,31.0325 -8.2197,41.3835 -3.4431,5.5115 -4.677,6.5639 -12.4747,10.6393 -10.1299,5.2942 -14.158,8.9256 -20.496,18.4772 -21.3856,32.2293 -31.8062,70.8424 -26.8182,99.3732 1.6164,9.2459 4.9359,17.3681 11.0685,27.0828 3.2016,5.0717 9.0114,17.527 11.6817,25.044 2.7533,7.7505 5.6814,22.4485 7.2715,36.5 1.5008,13.2629 1.2842,46.5745 -0.3575,54.9598 -0.5427,2.7721 -1.0887,6.8402 -1.2134,9.0402 -0.1248,2.2 -0.6368,4.5489 -1.1379,5.2197 -0.5012,0.6708 -1.9337,5.1708 -3.1834,10 -2.9773,11.5045 -6.7793,20.748 -15.4812,37.6383 -9.9603,19.3328 -14.4639,27.1037 -20.1655,34.7949 -4.4537,6.0079 -16.1512,17.4683 -23.5386,23.0615 -1.5663,1.1859 -5.3229,4.4716 -8.3479,7.3017 -3.025,2.83 -7.525,6.4203 -10,7.9784 -2.475,1.5582 -6.75,4.4969 -9.5,6.5305 -2.75,2.0335 -8.375,5.4865 -12.5,7.6732 -12.5692,6.663 -24.5476,13.4878 -35.2786,20.1002 -8.8468,5.4514 -16.341,9.3626 -31.7276,16.5584 -6.8316,3.1949 -26.5921,9.8133 -33.4938,11.2182 -13.7825,2.8054 -17.1183,3.7114 -25.6376,6.9635 -4.7507,1.8134 -13.0757,4.4716 -18.5,5.9069 -5.4243,1.4354 -16.165,5.2783 -23.8682,8.5399 -16.2586,6.8841 -20.5373,7.9684 -45.4942,11.5289 -20.1016,2.8678 -24.4237,3.8896 -33.4633,7.9114 -6.4428,2.8663 -28.5344,9.4618 -35.0367,10.4602 -2.2,0.3378 -6.3625,0.4782 -9.25,0.3119 z m 210.2528,-175.1888 c -0.3475,-1.095 -0.408,-2.3533 -0.1343,-2.7961 0.67,-1.0841 1.4968,-55.8304 2.1249,-140.7128 0.285,-38.5 0.7362,-90.025 1.0027,-114.5 0.2665,-24.475 0.7174,-73.3 1.0018,-108.5 0.2845,-35.2 0.7382,-83.8 1.0082,-108 0.2701,-24.2 0.7195,-78.875 0.9989,-121.5 0.4726,-72.1212 0.8608,-118.6664 1.9933,-239 0.2458,-26.125 0.7325,-79.7178 1.0814,-119.09507 l 0.6345,-71.59504 -8.8571,-0.54873 c -15.1219,-0.93686 -121.6397,-0.11147 -124.3351,0.96345 -1.4401,0.57426 -3.7439,0.64408 -5.5,0.16668 -1.6621,-0.45185 -206.422,-1.07403 -455.022,-1.38261 -248.6,-0.30859 -452.45,-0.58819 -453,-0.62134 -0.55,-0.0331 -16.62027,-0.006 -35.71172,0.0593 -30.13537,0.10383 -34.91916,0.32703 -36.28517,1.69304 -1.37295,1.37296 -2.4065,1.41626 -8.11127,0.33985 -4.84973,-0.91508 -6.82883,-0.9426 -7.66484,-0.10659 -1.5581,1.5581 -4.40344,1.41257 -5.0445,-0.258 -0.40922,-1.06642 -1.52644,-1.19778 -4.856986,-0.57105 -2.379033,0.44768 -5.054945,1.09679 -5.946472,1.44247 -0.98848,0.38328 -1.854156,0.0208 -2.218615,-0.92895 -0.528531,-1.3773 -5.69041,-1.55744 -44.629042,-1.55744 C 5.6807163,860.97997 0,860.78764 0,859.48924 c 0,-1.30018 5.848004,-1.48261 45.75,-1.42719 25.1625,0.0349 48.077748,-0.24758 50.922774,-0.62785 3.679616,-0.49182 5.787116,-1.39796 7.301046,-3.13913 2.42355,-2.78733 4.09262,-2.6449 5.50029,0.46936 0.53576,1.18529 2.28751,2.44355 3.89278,2.79612 1.60527,0.35258 224.23308,0.679 494.72847,0.72538 l 491.80984,0.0843 2.0414,-2.59522 c 3.7006,-4.70458 10.0534,-5.41879 10.0534,-1.13025 0,0.69565 0.8704,1.73065 1.9343,2.3 2.273,1.21649 125.671,1.48278 126.4188,0.27281 0.6851,-1.1085 1.4878,-47.5316 2.2613,-130.78433 l 0.6788,-73.04671 -6.8966,-4.17706 c -6.3379,-3.83867 -9.5271,-6.13551 -23.8966,-17.21006 -6.3837,-4.91994 -14.6527,-12.99323 -20.9045,-20.40984 -2.6975,-3.20007 -7.0841,-7.15936 -9.7479,-8.79842 -4.3127,-2.65363 -4.773,-3.27214 -4.2015,-5.64566 1.3702,-5.69095 6.4605,-14.15698 10.4301,-17.34703 4.3667,-3.50918 9.074,-9.84887 11.3403,-15.27294 1.7569,-4.20476 11.2749,-13.76092 15.4135,-15.47517 1.7435,-0.72218 3.17,-1.76387 3.17,-2.31488 0,-1.07835 13.8599,-14.76979 20.6251,-20.37436 2.8923,-2.39608 4.462,-4.68218 5.2523,-7.6493 0.6914,-2.596 1.2751,-17.56813 1.5099,-38.73187 0.2106,-18.975 0.8282,-36.525 1.3726,-39 1.0341,-4.70137 1.1892,1.4803 1.3424,53.5 0.043,14.40655 0.4545,21.94192 1.3121,24 0.6877,1.65 2.7434,9.075 4.5684,16.5 3.5751,14.54524 5.9447,21.54072 11.0089,32.5 1.779,3.85 4.2498,9.25 5.4907,12 4.5054,9.9854 13.628,23.07174 25.0572,35.94479 4.4218,4.98037 10.9067,12.65521 14.4109,17.05521 3.5043,4.4 8.2719,10.025 10.5948,12.5 2.3229,2.475 7.2652,9 10.9829,14.5 3.7177,5.5 9.9277,14.275 13.8,19.5 8.9777,12.11378 22.7022,33.02262 25.9277,39.5 1.3694,2.75 3.9289,7.58378 5.6876,10.74174 3.1332,5.62586 3.6871,9.72969 1.4141,10.47739 -0.6283,0.20668 -3.2935,-2.45807 -5.9226,-5.92167 -10.4326,-13.74384 -30.092,-34.8212 -36.546,-39.18196 -6.8702,-4.64194 -15.2077,-11.08968 -16.7626,-12.96323 -0.7542,-0.90875 -2.1896,-1.65227 -3.1898,-1.65227 -1.0002,0 -2.0592,-0.38935 -2.3533,-0.86522 -0.7526,-1.21778 -6.7357,-2.23401 -16.0833,-2.73175 -11.432,-0.60873 -23.5,-3.50871 -23.5,-5.64714 0,-0.41574 -0.7875,-0.75866 -1.75,-0.76205 -0.9625,-0.003 -2.875,-0.61046 -4.25,-1.34905 -1.375,-0.73858 -6.0239,-3.24939 -10.3309,-5.57956 -4.3071,-2.33018 -8.0674,-4.00029 -8.3563,-3.71136 -0.2889,0.28894 -0.4591,44.74985 -0.3781,98.80203 0.1112,74.24426 0.4355,98.45487 1.3261,99.00528 0.6484,0.40072 25.7174,0.62622 55.709,0.50111 56.5144,-0.23575 66.0302,-0.0423 66.0302,1.34236 0,1.69308 -8.916,1.99703 -62,2.11357 -29.975,0.0658 -55.9625,0.34121 -57.75,0.61201 l -3.25,0.49235 0,164.31738 c 0,152.5019 0.1207,164.438 1.6787,165.996 1.4832,1.4831 1.5181,2.0449 0.3002,4.8214 -1.1592,2.6424 -1.3866,43.464 -1.4288,256.4282 -0.044,222.9381 -0.2281,253.3956 -1.5357,254.2046 -1.0009,0.6192 -1.7323,0.4784 -2.2415,-0.4315 -0.4158,-0.7429 -0.7678,-115.9225 -0.7824,-255.9546 -0.016,-153.0976 -0.391,-254.604 -0.9406,-254.604 -0.5437,0 -0.9534,32.473 -1.0111,80.1426 -0.053,44.0784 -0.2534,80.4159 -0.4445,80.75 -0.1912,0.3341 -0.6309,39.7574 -0.9772,87.6074 -0.3462,47.85 -0.8489,99.6 -1.1171,115 -0.7264,41.7087 -1.9974,235.3854 -1.6243,247.5 0.1779,5.775 0.7227,11.2468 1.2106,12.1595 0.5635,1.054 0.3885,2.8785 -0.4796,5 -1.0053,2.4571 -1.4915,11.0673 -1.8384,32.5593 -0.478,29.6184 -0.8347,32.2812 -4.3234,32.2812 -0.7205,0 -1.5945,-0.896 -1.9421,-1.9911 z m 13.0724,-702.767 c -1.0862,-1.0862 -1.3978,0.2616 -0.7533,3.2581 l 0.6453,3 0.3417,-2.8414 c 0.1879,-1.5628 0.083,-3.1003 -0.2337,-3.4167 z m 0.4248,-4.9086 c 0,-4.2858 -0.4639,-4.1406 -1.3314,0.4167 -0.3554,1.8674 -0.2038,3.25 0.3564,3.25 0.5363,0 0.975,-1.65 0.975,-3.6667 z m -0.2562,-31.1339 c -0.1829,-4.7847 -0.3317,-0.5994 -0.3306,9.3006 10e-4,9.9 0.1507,13.8147 0.3325,8.6994 0.1819,-5.1153 0.181,-13.2153 0,-18 z m -0.1396,-28.9286 c -0.3323,-0.3323 -0.5687,0.2584 -0.5253,1.3125 0.048,1.165 0.285,1.4019 0.6042,0.6042 0.2889,-0.7219 0.2534,-1.5844 -0.079,-1.9167 z m 0,-14 c -0.3323,-0.3323 -0.5687,0.2584 -0.5253,1.3125 0.048,1.165 0.285,1.4019 0.6042,0.6042 0.2889,-0.7219 0.2534,-1.5844 -0.079,-1.9167 z m 118.2866,-392.52083 c -2.0195,-3.85221 -10.8417,-16.7697 -19.2938,-28.25 -4.4542,-6.05 -10.7982,-15.01258 -14.0978,-19.91684 -3.2995,-4.90426 -8.2701,-11.42926 -11.0456,-14.5 -2.7755,-3.07074 -7.9495,-9.18316 -11.4977,-13.58316 -3.5483,-4.4 -9.6024,-11.64657 -13.4536,-16.10349 C 1283.7041,610.0374 1268,587.86182 1268,585.36504 c 0,-0.20494 -1.9491,-4.53793 -4.3314,-9.62885 -5.0969,-10.8922 -11,-26.20616 -12.8193,-33.25622 -1.254,-4.85926 -1.31,-4.91556 -1.9866,-2 -0.383,1.65 -0.6212,27.24517 -0.5295,56.87815 l 0.1668,53.87814 2.3673,1.62186 c 13.2336,9.06656 34.5136,18.10551 42.1327,17.89638 10.4198,-0.28601 22.6768,3.42985 29.5,8.94325 2.9395,2.37524 4.9021,3.76036 15,10.58658 4.6549,3.14674 11.1078,9.44066 21.4746,20.94564 4.7426,5.26325 5.6778,5.86028 3.9162,2.5 z M 1243.8775,577.70429 1244,528.92861 l -2.7597,1.4271 c -1.5178,0.7849 -8.0381,6.53396 -14.4894,12.77568 -6.4513,6.24172 -13.9551,13.01992 -16.6752,15.06266 -3.3454,2.51239 -6.3036,6.07145 -9.143,11 -2.4161,4.19379 -6.8851,9.83231 -10.5301,13.28592 -3.483,3.3 -7.0001,7.61729 -7.8159,9.59399 l -1.4832,3.59399 4.3103,3.03816 c 2.3707,1.67099 7.9869,7.33657 12.4806,12.59018 9.677,11.31339 21.8067,21.39802 37.0815,30.82949 l 7.5241,4.6458 0.6275,-10.1458 c 0.3451,-5.5802 0.6826,-32.09487 0.75,-58.92149 z m 38.2189,1287.01101 c -4.6264,-2.3776 -6.5979,-6.3312 -6.579,-13.1931 0.023,-8.3089 1.7461,-11.5422 6.1516,-11.5422 1.832,0 3.331,-0.4935 3.331,-1.0968 0,-0.6032 -1.9125,-5.6247 -4.25,-11.1589 l -4.25,-10.0622 -0.55,4.0292 c -0.8383,6.1416 -3.3288,9.2887 -7.3506,9.2887 -4.8227,0 -7.159,-3.532 -5.2918,-8 0.5746,-1.375 1.528,-4.2568 2.1186,-6.404 1.5174,-5.5167 3.7038,-6.6153 7.5323,-3.7848 l 3.0415,2.2487 0,-3.3388 c 0,-4.0256 1.9766,-7.0511 4.0793,-6.2442 3.1796,1.2202 5.3213,6.7612 5.4187,14.0194 0.072,5.335 0.9765,9.5264 3.798,17.5915 2.8195,8.0594 3.6964,12.119 3.6722,17 -0.033,6.6557 -0.9515,8.7777 -4.6525,10.7489 -2.7105,1.4436 -3.2293,1.4352 -6.2193,-0.1014 z m 6.741,-7.1027 c 0.195,-1.0271 0.057,-3.8481 -0.3056,-6.269 -0.781,-5.208 -4.4399,-8.5147 -7.0368,-6.3594 -1.9613,1.6277 -1.9272,8.2593 0.062,12.1064 1.235,2.3883 2.1124,2.9469 4.2414,2.7003 1.6747,-0.194 2.8176,-1.0133 3.0388,-2.1783 z m -32.8068,-27.8301 c -2.55,-2.7371 -5.0184,-11.2687 -5.7357,-19.8244 -0.9961,-11.882 1.0423,-16.9781 6.7912,-16.9781 6.4584,0 9.2825,13.1834 4.8952,22.852 -1.5271,3.3652 -1.835,5.5411 -1.3583,9.597 0.503,4.2798 0.3196,5.359 -0.9961,5.8639 -0.9723,0.3731 -2.4003,-0.2266 -3.5963,-1.5104 z m 3.2002,-24.7264 c 0,-5.0028 -1.5965,-8.5862 -3.3441,-7.5061 -1.2835,0.7932 -1.0888,8.8922 0.2862,11.9101 1.6743,3.6748 3.0579,1.6822 3.0579,-4.404 z m 176.2504,-370.1065 c -1.1512,-1.8627 2.5387,-4.8669 11.4678,-9.3369 14.7735,-7.3956 20.3122,-12.2849 34.7019,-30.6327 7.5704,-9.6528 21.0769,-30.1991 23.3726,-35.5549 4.8402,-11.2916 6.6831,-29.2442 3.6118,-35.1835 -0.8906,-1.7221 -6.6853,-7.4421 -12.8773,-12.711 -12.6988,-10.8059 -14.8534,-12.8651 -18.0213,-17.2224 -1.2302,-1.6921 -4.1019,-5.5249 -6.3815,-8.5173 -12.7361,-16.7182 -18.0848,-40.0172 -14.7412,-64.213 3.0415,-22.0103 8.4311,-27.6795 41.8293,-44 9.681,-4.7307 19.2792,-9.6541 21.3293,-10.9409 2.0501,-1.2868 6.4274,-3.2621 9.7274,-4.3897 10.2633,-3.5068 18.5239,-7.0878 32,-13.872 10.6556,-5.3643 14.3526,-7.8419 20.5,-13.7384 7.5335,-7.2259 20.8238,-22.2067 27.2611,-30.7286 3.5876,-4.7492 14.9339,-23.4699 18.7051,-30.8621 2.7171,-5.3259 4.7046,-17.0686 5.5119,-32.5662 0.3439,-6.6 1.0523,-16.4391 1.5744,-21.8646 0.6277,-6.5226 0.6011,-12.0437 -0.078,-16.2968 -1.8302,-11.45675 -14.2761,-39.43961 -22.5118,-50.61484 -3.5682,-4.84181 -13.4719,-12.76264 -20.8938,-16.71062 -16.396,-8.72163 -18.616,-10.28905 -25.7435,-18.17579 -4.0288,-4.45801 -10.2162,-11.30764 -13.7497,-15.22142 -3.5335,-3.91378 -11.653,-12.51596 -18.0433,-19.11596 -6.3903,-6.6 -13.7333,-14.77385 -16.3178,-18.16412 -2.5845,-3.39027 -5.1838,-6.3257 -5.7762,-6.52319 -1.4891,-0.49637 -10.515,-12.3303 -18.5436,-24.31269 -3.6851,-5.5 -8.1222,-11.8 -9.8602,-14 -1.738,-2.2 -4.8986,-7.15 -7.0237,-11 -2.125,-3.85 -5.5348,-9.475 -7.5772,-12.5 -2.0425,-3.025 -6.4603,-11.00002 -9.8173,-17.72227 -3.357,-6.72224 -7.9439,-15.2287 -10.1929,-18.90324 -2.2491,-3.67453 -4.5296,-7.84951 -5.0679,-9.27773 -0.5382,-1.42822 -2.9291,-5.97176 -5.3131,-10.09676 -2.384,-4.125 -4.6413,-8.625 -5.0163,-10 -0.3751,-1.375 -1.9669,-5.2 -3.5374,-8.5 -1.5705,-3.3 -5.8534,-12.525 -9.5177,-20.5 -7.6898,-16.73653 -12.9715,-24.6369 -21.2864,-31.84023 -3.2564,-2.82107 -8.4559,-8.90033 -11.5545,-13.50946 -3.0986,-4.60912 -7.0277,-10.12849 -8.7313,-12.26527 -1.7036,-2.13677 -3.949,-5.54721 -4.9897,-7.57875 -1.0406,-2.03154 -3.4129,-5.18154 -5.2716,-7 -4.8378,-4.73286 -15.8977,-22.25737 -21.5946,-34.2167 -12.5628,-26.37179 -18.6222,-49.03469 -22.0826,-82.58959 -1.022,-9.91048 -0.9849,-10.59853 2.1042,-39 1.0469,-9.625 2.3852,-24.025 2.974,-32 0.5889,-7.975 2.4673,-26.65 4.1743,-41.5 3.6302,-31.58079 4.1219,-43.53432 2.3014,-55.94447 -0.7306,-4.98054 -1.5613,-10.85553 -1.8461,-13.05553 -3.2829,-25.36484 -4.912,-36.57317 -5.7409,-39.5 -1.0787,-3.80852 -1.6591,-7.52699 -2.4971,-16 -0.2992,-3.025 -0.7805,-6.175 -1.0696,-7 -0.2891,-0.825 -0.7334,-3.525 -0.9875,-6 -0.254,-2.475 -1.549,-7.65 -2.8778,-11.5 -1.3289,-3.85 -3.1118,-11.275 -3.9622,-16.5 -0.8504,-5.225 -1.7537,-10.4 -2.0073,-11.5 -1.1303,-4.90226 -3.6484,-16.59209 -4.9546,-23 -2.6713,-13.1057 -6.5474,-29.98711 -8.0363,-35 -2.1884,-7.36782 -5.0836,-18.11624 -6.8687,-25.5 -4.6088,-19.06339 -12.1227,-42.744365 -21.1001,-66.499997 -1.4549,-3.85 -3.947,-10.6 -5.538,-15 -8.9445,-24.737453 -9.8016,-26.584241 -16.7075,-36 -3.7453,-5.106612 -11.0954,-15.9860005 -13.6807,-20.25 -0.5364,-0.88461114 0.063,-1.24402346 2.0511,-1.22955411331 2.3304,0.0169624733 3.4053,0.98944418331 6.309,5.70792291331 1.925,3.1281123 6.0781,9.1619922 9.2292,13.4086212 5.0276,6.775724 11.7708,18.387586 11.7708,20.269512 0,0.555904 3.765,10.677465 9.5201,25.593498 11.7457,30.441931 17.5924,48.679747 25.4864,79.499997 1.5495,6.05 4.0077,15.5 5.4625,21 1.4548,5.5 4.6239,19.45 7.0424,31 2.4185,11.55 4.8539,22.8 5.412,25 0.5581,2.2 1.5107,7.6 2.1167,12 0.6061,4.4 2.1502,11.15 3.4314,15 1.2812,3.85 3.0866,12.4 4.0121,19 0.9254,6.6 2.3415,14.925 3.147,18.5 0.8054,3.575 3.0613,17.075 5.0132,30 2.8375,18.78912 3.6479,27.50926 4.0426,43.5 0.4221,17.10187 0.2679,20.28981 -1.0646,22 -1.5301,1.96396 -1.5599,1.95495 -1.6534,-0.5 -0.4483,-11.77362 -5.4877,31.95997 -8.4693,73.5 -0.8685,12.1 -2.2457,26.5 -3.0603,32 -2.4299,16.40529 -1.5468,30.59621 3.516,56.5 5.2712,26.97043 22.1719,63.94089 36.481,79.80273 3.1298,3.46934 6.9421,8.83497 18.258,25.69727 2.5836,3.85 7.9689,10.25598 11.9672,14.23551 3.9982,3.97952 9.1472,9.60452 11.442,12.5 4.0559,5.11742 14.3941,25.21836 22.2877,43.33494 5.1043,11.7147 18.2532,37.81589 20.6189,40.92955 0.4179,0.55 4.0297,7.3 8.0263,15 3.9966,7.7 8.9591,16.52464 11.0277,19.61031 2.0686,3.08567 4.8844,7.81067 6.2573,10.5 1.373,2.68933 5.1249,8.59694 8.3377,13.12801 3.2128,4.53108 7.5321,10.83108 9.5986,14 4.8683,7.46558 12.7435,17.58155 18.109,23.26168 2.3379,2.475 5.8545,6.525 7.8146,9 1.9601,2.475 9.9812,11.25 17.8246,19.5 7.8435,8.25 18.3051,19.725 23.2481,25.5 9.2743,10.83538 13.794,14.37728 26.7465,20.96016 16.0611,8.16275 25.0014,17.16272 33.1733,33.39475 5.5078,10.94026 12.3186,27.08964 14.3018,33.91158 0.9168,3.15344 1.988,5.73354 2.3807,5.73354 1.3768,0 0.4712,19.4157 -1.1194,24 -0.8686,2.5034 -1.8589,10.0462 -2.2319,17 -1.1791,21.9815 -3.5757,28.7674 -18.3457,51.9451 -11.5133,18.0671 -34.396,43.0271 -45.1588,49.2582 -10.0312,5.8075 -22.3536,11.6036 -34.5,16.2277 -6.6,2.5126 -14.025,5.6922 -16.5,7.0657 -2.475,1.3735 -12.3713,6.3808 -21.9917,11.1272 -24.2632,11.9707 -31.9283,17.5193 -36.551,26.4587 -3.7174,7.1887 -5.7301,28.5912 -3.9202,41.6869 3.1634,22.8894 15.9563,42.546 40.4266,62.1168 11.4058,9.122 14.0363,13.3616 14.0363,22.6224 0,6.0041 -3.3782,23.9434 -4.8878,25.9556 -0.4273,0.5696 -1.399,2.6107 -2.1593,4.5357 -1.3974,3.5382 -14.7301,23.875 -22.2903,34 -11.4748,15.3676 -23.3608,25.9223 -34.3742,30.524 -2.0434,0.8537 -4.4067,2.1359 -5.2518,2.8492 -3.7925,3.2011 -8.8995,5.6576 -9.5554,4.5964 z M 1271.7894,1214.888 c -2.2937,-1.2916 -3.6866,-6.6509 -4.3945,-16.908 -0.59,-8.5482 0.7997,-15.9204 3.1455,-16.687 2.0376,-0.6658 4.5194,2.2734 6.9132,8.187 1.773,4.3801 3.0068,6.0892 4.5698,6.3303 2.0146,0.3108 2.0426,0.4393 0.4738,2.1728 -1.4875,1.6437 -1.5351,2.663 -0.441,9.4451 0.6745,4.1814 0.9487,7.8803 0.6093,8.2197 -1.1693,1.1692 -3.6655,-1.9181 -3.6711,-4.5403 -0.01,-4.2908 -2.0204,-10.2852 -3.3085,-9.8609 -0.6993,0.2303 -1.3911,3.3067 -1.6859,7.4976 -0.4463,6.3442 -0.6836,7.0036 -2.2106,6.1437 z m 4.1403,-19.158 c -0.039,-0.6875 -0.457,-2.15 -0.9297,-3.25 -0.7202,-1.676 -0.8708,-1.4735 -0.9297,1.25 -0.039,1.7875 0.3797,3.25 0.9297,3.25 0.55,0 0.9684,-0.5625 0.9297,-1.25 z M 1548,1101.421 c 0,-0.8575 0.45,-1.2809 1,-0.941 0.55,0.3399 1,1.0415 1,1.559 0,0.5176 -0.45,0.941 -1,0.941 -0.55,0 -1,-0.7016 -1,-1.559 z M 1343,965.78696 c 0,-0.87616 -0.675,-1.85203 -1.5,-2.16862 -0.825,-0.31658 -1.5,-0.15385 -1.5,0.36163 0,0.51548 -0.7009,0.66828 -1.5575,0.33957 -0.8566,-0.32871 -1.3253,-1.20268 -1.0415,-1.94217 0.2838,-0.73948 -0.081,-1.69391 -0.8098,-2.12095 -0.8745,-0.51212 -1.0545,-1.45732 -0.5288,-2.77645 0.528,-1.32494 0.8208,-1.48944 0.8673,-0.48735 0.064,1.36803 0.9598,2.23047 6.8043,6.54812 1.415,1.04528 1.5175,1.55649 0.516,2.57191 -1.0072,1.0212 -1.25,0.95796 -1.25,-0.32569 z m -27,-3.80699 c 0,-0.55 0.45,-1 1,-1 0.55,0 1,0.45 1,1 0,0.55 -0.45,1 -1,1 -0.55,0 -1,-0.45 -1,-1 z m 0.4473,-4.16599 c -0.7382,-2.32581 0.2283,-3.89573 1.9836,-3.22216 0.7517,0.28847 1.6843,0.0108 2.0724,-0.61712 0.475,-0.7686 1.1804,-0.46356 2.159,0.93358 1.8355,2.62047 1.155,3.72473 -2.6382,4.28146 -2.2634,0.3322 -3.1419,-0.006 -3.5768,-1.37576 z M 95.2,950.77997 c -1.984936,-1.98494 -1.410488,-2.33115 3.252538,-1.96029 2.659022,0.21148 5.680082,-0.25825 7.500002,-1.16615 3.23238,-1.61252 3.86559,-1.34883 1.77682,0.73993 -3.49438,3.49439 -10.153163,4.76271 -12.52936,2.38651 z m -17.102022,-4.4973 c -3.436512,-4.16909 -7.153577,-14.14036 -6.988412,-18.74687 0.09032,-2.51896 0.264221,-2.26594 0.989849,1.44017 1.188229,6.06881 3.484813,11.59789 6.950031,16.73237 3.545073,5.2528 3.117613,5.51083 -0.951468,0.57433 z M 126,937.07875 c 0,-0.49568 1.575,-1.8305 3.5,-2.96628 1.925,-1.13578 3.5,-2.48208 3.5,-2.99179 0,-0.5097 0.66842,-1.18323 1.48537,-1.49672 1.25475,-0.4815 1.29357,-0.22641 0.25,1.64301 -2.20981,3.95859 -5.04492,6.713 -6.90968,6.713 -1.00413,0 -1.82569,-0.40555 -1.82569,-0.90122 z m 16.71021,-13.41157 c -0.36863,-0.96065 -0.0528,-3.42076 0.70197,-5.46692 0.75471,-2.04616 1.86308,-5.29529 2.46305,-7.22029 1.02983,-3.30425 1.06918,-3.19114 0.70355,2.02238 -0.47476,6.76956 -2.85029,13.31841 -3.86857,10.66483 z m -77.069552,-4.89755 c -0.337342,-1.25931 -0.570189,-3.41466 -0.517438,-4.78966 0.05652,-1.47317 0.453328,-0.67762 0.966107,1.93691 0.918579,4.68359 0.594224,6.74593 -0.448669,2.85275 z M 1405.0238,909.72997 c -0.5133,-1.2375 -2.3059,-5.77717 -3.9836,-10.08816 -1.6777,-4.31099 -3.723,-8.79862 -4.5452,-9.97251 -2.2325,-3.18726 -1.8133,-7.15754 1.1241,-10.64852 4.6627,-5.54131 11.7051,-7.76496 14.3809,-4.54081 1.0457,1.25998 0.8739,1.5 -1.0738,1.5 -3.0878,0 -9.7119,4.68489 -11.4924,8.12802 -1.13,2.18527 -1.1869,3.34359 -0.273,5.56578 0.9046,2.19989 1.2438,2.42809 1.5699,1.0562 0.5931,-2.49533 2.1242,-2.16261 3.4513,0.75 0.9637,2.1151 1.8162,2.5 5.5375,2.5 5.1035,0 4.928,1.41367 -0.4545,3.66262 -3.0259,1.26433 -3.4203,1.81668 -2.9615,4.14797 1.7912,9.10179 1.8751,10.18941 0.7864,10.18941 -0.623,0 -1.5528,-1.0125 -2.0661,-2.25 z m -1340.865905,-1.75 c 0,-1.375 0.226973,-1.9375 0.504386,-1.25 0.277412,0.6875 0.277412,1.8125 0,2.5 -0.277413,0.6875 -0.504386,0.125 -0.504386,-1.25 z M 1427.2872,905.77235 C 1425.9471,904.08776 1420,883.88973 1420,881.02299 c 0,-4.85978 2.6165,-0.94728 4.8657,7.27558 l 2.3665,8.65224 2.8482,-2.0281 c 2.7546,-1.96142 2.8576,-2.34722 3.1339,-11.73542 0.2306,-7.83509 0.575,-9.70732 1.7857,-9.70732 1.1556,0 1.6148,1.72222 2,7.5 0.4716,7.07448 0.6272,7.48232 2.7422,7.18846 2.4551,-0.34112 2.3083,1.12314 -0.5621,5.60686 -1.2193,1.90452 -1.2628,2.98524 -0.2555,6.34736 1.5574,5.19812 0.5709,6.13075 -2.5945,2.45291 -1.4897,-1.73084 -3.6393,-2.99405 -5.3198,-3.12625 -2.7102,-0.21319 -2.7799,-0.10688 -1.7909,2.73018 1.1615,3.33185 -0.1702,5.80795 -1.9322,3.59286 z M 65.17535,901.47997 c -0.148123,-4.09392 1.165053,-7.49293 2.412778,-6.24521 0.38328,0.38328 0.219515,1.27206 -0.363923,1.97506 -0.583437,0.703 -1.250546,2.85137 -1.482463,4.77416 l -0.421668,3.49599 -0.144724,-4 z m 81.57465,-0.0754 c -0.4125,-0.41686 -0.73632,-3.72043 -0.71959,-7.34127 0.0229,-4.96109 0.28163,-6.15201 1.04989,-4.83297 1.14646,1.96836 0.83754,13.35443 -0.3303,12.17424 z M 69.078947,882.19785 c -0.262409,-4.26157 7.40171,-16.13722 9.232717,-14.30622 0.774457,0.77446 0.639461,1.43625 -0.476228,2.33459 -1.691594,1.36207 -7.188204,9.33004 -8.108181,11.75375 -0.371619,0.97904 -0.596779,1.05471 -0.648308,0.21788 z m 68.397953,-4.99421 c -0.5627,-0.39802 -1.87674,-2.07367 -2.92008,-3.72367 -1.04334,-1.65 -2.72045,-3.58802 -3.7269,-4.3067 -2.12206,-1.51532 -2.44408,-4.1933 -0.50423,-4.1933 2.46532,0 9.0547,8.95511 8.48621,11.53296 -0.17154,0.77791 -0.77229,1.08872 -1.335,0.69071 z m 940.5684,-25.77182 c -8.9624,-3.66909 -10.489,-4.64383 -9.9078,-6.32603 0.3835,-1.1099 15.7158,5.09377 19.9493,8.07173 2.2195,1.5613 2.2527,1.69827 0.4132,1.70655 -1.1,0.005 -5.8046,-1.54857 -10.4547,-3.45225 z m 25.2694,-11.91551 c -4.0933,-1.78028 -6.5145,-6.52365 -6.4669,-12.66906 0.061,-7.8646 5.1066,-13.86728 11.6565,-13.86728 3.1533,0 9.4957,5.7861 9.4957,8.66287 0,1.02458 1.0125,2.30708 2.25,2.85 1.898,0.83271 2.2969,1.88662 2.5499,6.73713 0.288,5.52131 0.4084,5.75 3.0275,5.75 2.6287,0 6.8838,-2.24819 8.4073,-4.44204 0.4448,-0.64049 0.7407,-0.40829 0.75,0.58845 0.01,0.90552 -1.6318,3.0926 -3.645,4.86017 -3.1428,2.7594 -4.2087,3.14021 -7.5392,2.69349 -4.5662,-0.61246 -6.8005,-2.20833 -6.8005,-4.85731 0,-1.53463 -0.613,-1.21416 -3.1036,1.62244 -3.3649,3.83242 -5.5491,4.25994 -10.5817,2.07114 z m 8.0661,-4.78634 c 2.0378,-3.21316 2.9016,-9.877 1.6925,-13.05716 -0.5682,-1.49458 -2.1691,-3.23499 -3.5574,-3.86757 -2.8302,-1.28952 -4.5128,-0.42217 -2.6992,1.3914 1.6542,1.6542 1.476,3.78333 -0.3167,3.78333 -1.1078,0 -1.5,1.15943 -1.5,4.4349 0,8.51215 3.2551,12.2438 6.3808,7.3151 z m -1010.04193,4.0333 c -3.195886,-4.2664 -7.790569,-16.84993 -8.148908,-22.31754 -0.366129,-5.58646 -0.172558,-6.27288 2.608491,-9.25 3.559337,-3.81029 8.591617,-4.34122 12.340767,-1.30202 2.05453,1.66547 2.35824,2.77122 2.34121,8.52382 -0.0157,5.31541 0.27805,6.58286 1.5,6.47111 5.74549,-0.52547 9.01957,2.33089 9.01957,7.86882 0,8.35718 -9.48131,15.34717 -11.96307,8.81965 -0.50246,-1.32157 -1.39132,-2.69813 -1.97525,-3.05902 C 106.47776,834.15721 106,832.73694 106,831.36194 c 0,-1.47798 -0.42565,-2.23694 -1.0412,-1.85651 -0.57266,0.35393 -0.91016,2.6957 -0.75,5.20395 0.29483,4.61734 -1.0378,6.49973 -2.86993,4.05389 z m 14.62595,-5.71756 c 2.26779,-4.23741 0.34654,-7.88992 -3.39494,-6.45418 -2.07532,0.79637 -3.67004,5.88828 -2.27961,7.27871 1.72058,1.72058 4.53099,1.31222 5.67455,-0.82453 z m -9.53562,-13.55778 c 2.8804,-6.07 1.09261,-12.50796 -3.4734,-12.50796 -5.196447,0 -8.334715,8.71385 -4.617549,12.82127 0.913962,1.00992 1.661749,2.51328 1.661749,3.3408 0,4.20454 3.69717,2.10321 6.4292,-3.65411 z m 947.6867,13.00197 c -5.0185,-5.44448 -7.6622,-10.65579 -6.6807,-13.16904 0.6312,-1.61607 0.9107,-1.47451 2.2888,1.15911 0.8634,1.65 3.5287,5.75715 5.9229,9.12699 2.3942,3.36985 4.3531,6.40735 4.3531,6.75 0,1.61638 -2.1045,0.23325 -5.8841,-3.86706 z m -13.0135,-29.75993 c -0.4701,-1.2375 -2.0407,-7.10739 -3.4901,-13.04419 -2.1763,-8.91387 -2.4235,-11.17844 -1.4192,-13 1.171,-2.12405 1.24,-2.07607 1.8608,1.29419 0.3546,1.925 1.3551,5.975 2.2233,9 1.6577,5.77604 3.1722,18 2.2301,18 -0.3026,0 -0.9348,-1.0125 -1.4049,-2.25 z m -9.3181,-52.98844 c -3.58,-8.89244 -3.9138,-17.06584 -0.8209,-20.10421 0.9012,-0.88529 1.0223,-0.52625 0.5153,1.52737 -0.3645,1.4766 0.094,6.49965 1.0195,11.16233 2.0075,10.11662 1.6922,13.39094 -0.7139,7.41451 z m -5.769,-36.43201 c -0.01,-1.74374 -0.4915,-9.9494 -1.0735,-18.23478 -1.2153,-17.30126 -0.013,-23.59459 1.8962,-9.9287 1.4071,10.06966 1.5032,27.75864 0.162,29.83393 -0.7383,1.14249 -0.973,0.74435 -0.9847,-1.67045 z m -3.4416,-64.63812 c -1.225,-7.19825 -0.2275,-20.61421 1.8242,-24.53436 2.4533,-4.68746 3.1036,-3.23269 1.6394,3.66706 -0.6855,3.23051 -1.5612,10.32916 -1.9459,15.77477 -0.6637,9.39593 -0.7412,9.65576 -1.5177,5.09253 z m 14.6852,-31.35073 c -0.9525,-0.38483 -0.9109,-0.83151 0.1786,-1.92106 1.9289,-1.9289 2.5625,-1.78541 2.5625,0.58036 0,2.01929 -0.4801,2.25414 -2.7411,1.3407 z m -9.1955,-25.42392 c -0.074,-11.13824 1.3734,-19.51866 3.9632,-22.95204 1.7872,-2.36929 1.7963,-2.25473 0.4037,5.05411 -0.7837,4.11308 -1.7168,11.07897 -2.0735,15.47974 -0.9849,12.15125 -2.2204,13.45398 -2.2934,2.41819 z m 7.5476,-46.71092 c -1.0319,-4.30642 0.7671,-11.70929 5.1533,-21.20586 4.7117,-10.20157 5.1405,-7.5115 0.6514,4.08765 -2.0035,5.17679 -3.9515,11.88735 -4.329,14.91235 -0.66,5.28873 -0.7166,5.37346 -1.4757,2.20586 z m 220.9678,-28.38195 c -0.9381,-2.99198 -1.6022,-15.18217 -1.0015,-18.38412 1.0739,-5.72476 3.736,-4.4236 10.2433,5.00681 4.653,6.74313 5.6516,5.24274 5.7904,-8.69983 0.064,-6.46066 0.5327,-11.29466 1.1131,-11.48813 3.8104,-1.27014 4.5626,23.55714 0.8383,27.67237 -2.6984,2.98172 -5.3637,2.55943 -9.1439,-1.44874 l -3.3176,-3.51773 -0.3005,5.75801 c -0.2373,4.54874 -0.6686,5.82808 -2.0534,6.09164 -0.9642,0.18349 -1.9398,-0.26213 -2.1682,-0.99028 z m -206.1693,-25.42935 c 1.225,-6.95125 12.4289,-28.14721 12.5572,-23.75628 0.018,0.62606 -2.4376,6.25106 -5.4575,12.5 -3.02,6.24895 -5.495,11.89766 -5.5,12.5527 -0.01,0.65504 -0.5215,1.5076 -1.1476,1.89456 -0.8181,0.50558 -0.9453,-0.39242 -0.4521,-3.19098 z m 28.2677,-46.26836 c 0.7112,-2.71929 18.6117,-22.75938 19.0786,-21.35883 0.6143,1.8429 -1.2558,4.48809 -9.7834,13.83847 -8.6462,9.48028 -10.1194,10.67222 -9.2952,7.52036 z M 1543.3111,57.264561 c 1.3954,-1.600352 1.5102,-2.197627 0.5,-2.60193 -0.9077,-0.363323 -0.81,-0.549051 0.3176,-0.603711 0.8958,-0.04342 2.1973,-1.451848 2.8924,-3.129837 1.6684,-4.027995 5.324,-3.800288 5.8012,0.361362 0.4127,3.599809 -1.5313,5.979388 -4.3143,5.280901 -1.1785,-0.295802 -3.234,0.205953 -4.5742,1.116592 -2.4212,1.645252 -2.4244,1.643067 -0.6227,-0.423377 z"
     id="path3100"
     style="fill:#000000" />
</svg>
