<?xml version="1.0" encoding="UTF-8" standalone="no"?>
<!-- Created with Inkscape (http://www.inkscape.org/) -->

<svg
   xmlns:dc="http://purl.org/dc/elements/1.1/"
   xmlns:cc="http://creativecommons.org/ns#"
   xmlns:rdf="http://www.w3.org/1999/02/22-rdf-syntax-ns#"
   xmlns:svg="http://www.w3.org/2000/svg"
   xmlns="http://www.w3.org/2000/svg"
   version="1.1"
   width="1639.9292"
   height="2250.4365"
   id="svg3027">
  <metadata
     id="metadata3033">
    <rdf:RDF>
      <cc:Work
         rdf:about="">
        <dc:format>image/svg+xml</dc:format>
        <dc:type
           rdf:resource="http://purl.org/dc/dcmitype/StillImage" />
        <dc:title></dc:title>
      </cc:Work>
    </rdf:RDF>
  </metadata>
  <defs
     id="defs3031" />
  <path
     d="m 732.1601,2249.7601 c -1.62402,-1.624 -1.45138,-2.772 0.69821,-4.6428 1.02208,-0.8895 5.13766,-4.5423 9.14573,-8.1173 10.93242,-9.7512 13.83927,-11.6384 27.73798,-18.0089 7.01689,-3.2162 15.68298,-7.3633 19.25798,-9.2158 11.83675,-6.1334 34.24038,-11.3281 52.5,-12.173 7.15,-0.3308 17.05,-1.2561 22,-2.0562 4.95,-0.8001 13.95,-2.1836 20,-3.0745 6.05,-0.8909 13.7,-2.2858 17,-3.0998 8.7432,-2.1567 34.65309,-4.5629 52.5,-4.8757 8.525,-0.1494 18.17015,-0.7722 21.43366,-1.3839 3.26351,-0.6117 10.46351,-1.136 16,-1.1652 5.53649,-0.029 13.66634,-0.7012 18.06634,-1.4935 11.6823,-2.1037 43.7192,-5.3047 75,-7.4937 8.25,-0.5773 19.7157,-1.4834 25.4793,-2.0136 11.4675,-1.0548 36.8168,-7.2586 49.0892,-12.0137 4.1627,-1.6129 7.8619,-2.9325 8.2204,-2.9325 0.3585,0 3.0277,-1.0773 5.9315,-2.394 23.0387,-10.4469 27.5795,-12.4466 29.7796,-13.1141 1.375,-0.4172 8.3392,-3.6777 15.4759,-7.2456 18.6974,-9.3473 25.4516,-15.2038 35.8233,-31.0618 4.5629,-6.9765 9.4596,-14.7095 10.8815,-17.1845 6.2863,-10.942 16.7527,-39.2213 20.911,-56.5 1.0589,-4.4 4.5741,-17.225 7.8116,-28.5 9.2667,-32.2724 12.249,-53.5698 10.0825,-72 -0.5496,-4.675 -1.1838,-10.075 -1.4093,-12 -0.2255,-1.925 -1.09,-7.325 -1.9211,-12 -2.2975,-12.9233 -3.6223,-27.7121 -3.18,-35.5 0.5325,-9.3782 2.4115,-26.508 3.0147,-27.4839 0.2662,-0.4309 0.9505,-4.0715 1.5204,-8.0902 1.8162,-12.8055 6.9545,-28.8007 13.6289,-42.4259 9.8399,-20.087 12.349,-23.6474 22.2555,-31.5795 4.8259,-3.8641 10.3352,-9.1395 12.243,-11.7231 1.9077,-2.5836 6.1446,-8.2918 9.4154,-12.6849 12.3721,-16.6178 17.0689,-26.9667 20.5133,-45.1993 2.7579,-14.5987 -0.3873,-41.1808 -6.2268,-52.6272 -5.0198,-9.8396 -22.9635,-24.3108 -36.8398,-29.7105 -6.2745,-2.4416 -6.4592,-4.1908 -0.75,-7.1018 5.5196,-2.8143 11.7937,-7.6274 19.25,-14.7673 3.3,-3.16 8.925,-8.0431 12.5,-10.8513 3.575,-2.8083 7.7986,-6.602 9.3857,-8.4305 4.2333,-4.8771 11.7073,-20.7999 15.4076,-32.8246 3.8113,-12.3854 7.2954,-31.8007 6.1187,-34.0968 -0.4501,-0.8782 -0.4662,-2.0032 -0.036,-2.5 2.4833,-2.8657 3.9301,-21.1895 4.6509,-58.9032 0.2418,-12.65 0.6347,-24.8 0.8732,-27 0.2384,-2.2 0.72,-7.375 1.0703,-11.5 2.3316,-27.4609 7.1193,-41.4941 23.8708,-69.9682 4.8743,-8.2853 8.5566,-12.8891 17.6585,-22.0775 6.325,-6.3851 13.75,-13.1137 16.5,-14.9523 2.75,-1.8387 6.6587,-4.8141 8.686,-6.6121 3.6078,-3.1997 11.8519,-8.7298 36.6191,-24.5638 9.2902,-5.9393 14.4355,-8.5063 21,-10.4769 4.7822,-1.4355 12.8394,-3.8517 17.9049,-5.3693 5.0655,-1.5175 11.4848,-4.1588 14.265,-5.8695 2.7803,-1.7107 5.6373,-3.1104 6.3489,-3.1104 0.7115,0 3.9673,-1.6175 7.2349,-3.5944 3.2677,-1.9769 8.0172,-4.6533 10.5546,-5.9476 4.7922,-2.4445 15.2396,-13.015 19.7255,-19.958 1.4215,-2.2 6.3778,-9.7535 11.014,-16.7855 7.9671,-12.0841 10.4181,-17.2603 18.3317,-38.7145 3.1014,-8.4078 2.7002,-27.2447 -0.7563,-35.5173 -0.7402,-1.7715 -1.6614,-6.3012 -2.0471,-10.0659 -1.0926,-10.6646 -5.4778,-17.0727 -26.6317,-38.9168 -19.9453,-20.5961 -27.0208,-29.2528 -35.6756,-43.6482 -4.0844,-6.7935 -11.4441,-18.0942 -16.3551,-25.11258 -5.7991,-8.2878 -9.906,-15.37989 -11.7164,-20.23272 -1.5331,-4.10956 -5.0308,-10.51721 -7.7727,-14.23921 -2.7419,-3.72201 -6.0018,-8.79229 -7.2443,-11.26729 -1.2425,-2.475 -3.476,-6.3 -4.9632,-8.5 -1.4873,-2.2 -3.8378,-6.475 -5.2233,-9.5 -1.3855,-3.025 -4.319,-7.525 -6.5189,-10 -2.2,-2.475 -5.1425,-6.75 -6.539,-9.5 -1.3965,-2.75 -3.9077,-6.71562 -5.5804,-8.8125 -1.6728,-2.09687 -3.7807,-6.0385 -4.6844,-8.75917 -0.9794,-2.94877 -4.0655,-7.84609 -7.6408,-12.12537 -7.4353,-8.89918 -11.1819,-14.30319 -13.1013,-18.89685 -0.8155,-1.95186 -4.0728,-6.44172 -7.2383,-9.97747 -3.1656,-3.53575 -6.6069,-8.40119 -7.6474,-10.81209 -1.0404,-2.4109 -3.2007,-6.03621 -4.8006,-8.05625 -1.5999,-2.02003 -3.6929,-5.67248 -4.651,-8.11654 -0.9582,-2.44407 -3.622,-7.36876 -5.9197,-10.94376 -2.2977,-3.575 -4.7608,-7.625 -5.4736,-9 -0.7128,-1.375 -2.9726,-4.525 -5.0218,-7 -4.746,-5.73235 -16.9567,-22.74376 -21.7765,-30.33814 -2.0379,-3.21097 -6.4999,-9.96097 -9.9157,-15 -25.8206,-38.09136 -29.4753,-43.93881 -37.7385,-60.38151 -9.7255,-19.35273 -12.3488,-31.12787 -12.6494,-56.78035 -0.1381,-11.78624 -0.8423,-19.81872 -2.6739,-30.5 -2.416,-14.08949 -2.4477,-14.89635 -1.1212,-28.5 1.6099,-16.51011 1.5135,-12.76348 2.3032,-89.5 0.3424,-33.275 1.0769,-65.225 1.6324,-71 3.1911,-33.18102 3.4201,-36.64184 4.5366,-68.55905 0.574,-16.41054 0.3932,-22.14002 -0.9943,-31.5 -2.2682,-15.30246 -4.486,-29.33734 -5.6002,-35.44095 -0.5021,-2.75 -1.1735,-8.375 -1.4921,-12.5 -0.3186,-4.125 -0.9831,-9.075 -1.4768,-11 -0.4937,-1.925 -1.6449,-10.925 -2.5582,-20 -2.0699,-20.56586 -3.0855,-28.32992 -4.4148,-33.75 -0.5733,-2.3375 -1.4581,-5.9375 -1.9663,-8 -0.5081,-2.0625 -1.8867,-8.25 -3.0635,-13.75 -2.6356,-12.3179 -9.7291,-33.78347 -14.0446,-42.5 -3.2988,-6.66287 -5.5415,-14.31546 -9.0851,-31 -2.996,-14.107743 -10.5865,-34.744881 -15.7279,-42.761993 C 1291.4834,66.632103 1286.782,57.525 1282.7071,49 1275.3358,33.578919 1266.3847,18.827649 1257.6034,7.6296802 1252.7708,1.4670616 1252.1405,0 1254.3254,0 c 3.6237,0 19.9004,24.676408 28.5574,43.294714 3.1214,6.712907 7.9787,16.480286 10.7941,21.705286 7.0861,13.150916 13.694,30.532363 16.3474,43 2.9121,13.6837 7.0746,27.00564 11.2966,36.15464 1.8644,4.03995 4.2044,9.82036 5.2,12.84536 0.9957,3.025 2.8927,8.65 4.2158,12.5 2.2157,6.44774 3.121,10.05743 5.2668,21 0.4314,2.2 1.9713,8.40335 3.4219,13.78522 1.4507,5.38186 2.7817,11.90686 2.9578,14.5 0.6258,9.21527 3.6036,36.80113 4.5569,42.21478 0.5327,3.025 1.2584,8.425 1.6127,12 0.8211,8.28532 3.0728,21.78324 4.9213,29.5 1.5967,6.66596 3.4776,20.30557 4.2749,31 0.705,9.45593 -1.4442,50.53319 -3.8979,74.5 -1.6632,16.24547 -2.0726,29.0967 -2.4529,77 -0.3991,50.25847 -1.0455,71.77117 -3.0964,103.04172 -0.3364,5.12824 0.1885,11.63818 1.64,20.34244 1.3547,8.12384 2.4509,20.8962 3.0002,34.95827 0.8065,20.64456 1.0802,22.86603 4.0084,32.53278 4.9996,16.50493 15.0178,34.41089 37.8379,67.62917 8.3107,12.09759 18.6206,27.13599 22.911,33.41866 4.2904,6.28267 10.6972,15.05767 14.2374,19.5 7.004,8.78894 12.4083,17.44516 17.217,27.57696 1.6967,3.575 4.3395,8.08708 5.8729,10.02683 1.5334,1.93976 3.9631,6.0087 5.3993,9.04209 1.4362,3.03339 4.6756,7.74631 7.1986,10.47316 2.523,2.72686 6.1508,7.88472 8.0617,11.46192 1.911,3.57721 6.7372,10.42722 10.7249,15.22227 3.9878,4.79504 7.8654,10.58143 8.6169,12.85864 0.7516,2.27721 3.0161,6.45219 5.0322,9.27773 2.0162,2.82555 4.6751,7.16236 5.9088,9.63736 1.2337,2.475 3.7518,6.075 5.5958,8 3.0531,3.18729 5.5589,7.34635 16.2667,27 1.9478,3.575 5.6247,9.425 8.1709,13 3.9102,5.49004 9.9976,17.28095 9.9976,19.36482 0,0.97845 8.4223,13.74369 11.9654,18.13518 1.7749,2.2 5.0593,7.15 7.2987,11 13.1035,22.5277 20.5717,32.1041 43.8825,56.27 10.5066,10.8919 22.8534,25.7783 22.8534,27.554 0,0.3553 1.4269,2.965 3.1709,5.7994 2.8946,4.7042 3.0253,5.2599 1.5,6.3753 -2.2476,1.6435 -2.1034,5.3518 0.4554,11.7143 1.6088,4.0001 2.2426,8.2078 2.6038,17.287 0.5147,12.9397 0.6,12.5475 -7.1274,32.7759 -3.7887,9.9176 -5.9582,13.9539 -14.3646,26.7241 -4.1637,6.325 -9.0798,13.7964 -10.9248,16.6031 -4.9185,7.4824 -14.562,16.8584 -20.0348,19.4791 -2.6282,1.2585 -6.9155,3.7449 -9.5275,5.5251 -2.6119,1.7803 -6.4139,3.7864 -8.4488,4.458 -2.0349,0.6715 -5.8666,2.4986 -8.5149,4.0601 -2.6483,1.5615 -8.5214,3.7744 -13.0512,4.9176 -22.0676,5.5688 -26.7055,7.6327 -46.7361,20.7977 -6.325,4.1571 -13.975,9.0717 -17,10.9214 -3.025,1.8498 -7.075,4.8315 -9,6.6262 -1.925,1.7946 -6.65,5.5559 -10.5,8.3582 -24.5927,17.9008 -45.3362,49.66 -52.4174,80.2535 -2.699,11.6611 -4.0907,29.8954 -5.1136,67 -1.0363,37.5917 -2.3631,56.1453 -4.4557,62.3091 -0.8494,2.5019 -1.9694,7.8433 -2.4888,11.8699 -1.9852,15.3885 -6.5317,29.1747 -14.2641,43.2519 -3.9739,7.2348 -7.5486,11.2048 -16.7604,18.6141 -3.025,2.4331 -9.325,7.8087 -14,11.9457 -4.675,4.137 -10.075,8.7955 -12,10.3524 -1.981,1.6021 -2.9983,3.0325 -2.3441,3.2957 4.7527,1.9124 20.9016,12.9862 26.3393,18.0616 7.9603,7.4301 12.923,17.0067 15.9806,30.8386 5.858,26.4996 -1.5431,61.0095 -16.8912,78.7607 -1.5219,1.7602 -5.4766,7.2503 -8.7882,12.2003 -4.7807,7.146 -8.2125,10.8173 -16.6588,17.8219 -5.8507,4.8521 -10.6376,9.2308 -10.6376,9.7306 0,0.4998 -1.5629,3.3519 -3.4732,6.3381 -10.2652,16.0472 -16.288,32.1974 -20.9243,56.1094 -6.2846,32.413 -6.1521,46.7477 0.7534,81.5 2.3658,11.906 2.6422,14 1.8481,14 -0.4103,0 -0.5742,6.2552 -0.3642,13.9004 0.2694,9.8128 -0.07,16.2087 -1.1535,21.75 -0.8444,4.3173 -1.8303,9.8746 -2.1908,12.3496 -0.6161,4.2298 -1.9313,9.1676 -11.0534,41.5 -12.508,44.333 -17.333,57.1724 -28.068,74.69 -16.0477,26.1868 -19.1434,30.175 -26.1669,33.7105 -3.139,1.58 -11.3378,5.8125 -18.2196,9.4053 -6.8819,3.5929 -15.4478,7.6374 -19.0354,8.9878 -3.5877,1.3504 -8.9078,3.6637 -11.8224,5.1406 -11.4167,5.7853 -35.0319,14.7226 -48.0018,18.1666 -19.4954,5.1768 -25.5136,6.2545 -40.9291,7.3298 -18.4538,1.2872 -38.4672,2.9143 -51.1989,4.1624 -5.775,0.5661 -15.0666,1.4483 -20.648,1.9605 -5.5814,0.5121 -13.4564,1.6299 -17.5,2.4841 -4.0436,0.8541 -12.977,1.763 -19.852,2.0196 -6.875,0.2566 -16.44366,0.976 -21.2637,1.5986 -4.82003,0.6226 -11.91803,0.8675 -15.77334,0.5443 -3.85531,-0.3232 -9.58664,-0.1534 -12.7363,0.3773 -3.14966,0.5307 -11.35166,1.3833 -18.22666,1.8947 -6.875,0.5114 -16.325,1.8486 -21,2.9716 -4.675,1.123 -13.9,2.7465 -20.5,3.6079 -6.6,0.8613 -13.80125,1.9665 -16.00277,2.4561 -2.20153,0.4895 -11.20153,1.4015 -20,2.0267 -17.78965,1.264 -38.84565,4.9784 -47.99723,8.4668 -3.3,1.2579 -10.19448,4.3754 -15.32107,6.9277 -5.12658,2.5524 -12.55158,6.1443 -16.5,7.9822 -7.81622,3.6381 -11.13721,6.0789 -23.03183,16.9269 -9.32221,8.502 -9.98124,8.9279 -11.487,7.4221 z m 414.1252,-125.8448 c -1.2672,-2.5196 -1.3126,-7.9134 -0.067,-7.9146 0.3953,-4e-4 0.4785,-0.6264 0.1851,-1.3911 -0.5376,-1.401 1.4413,-21.7587 4.0935,-42.1096 0.7884,-6.05 2.1328,-19.775 2.9875,-30.5 0.8547,-10.725 2.427,-29.85 3.494,-42.5 1.067,-12.65 2.2018,-26.825 2.5218,-31.5 0.32,-4.675 1.0179,-13 1.5507,-18.5 1.0531,-10.869 2.8963,-32.985 6.0006,-72 1.0941,-13.75 2.6631,-32.65 3.4868,-42 0.8236,-9.35 1.94,-22.625 2.4807,-29.5 0.5407,-6.875 1.2088,-14.075 1.4846,-16 0.2757,-1.925 1.6274,-17.9 3.0037,-35.5 1.3763,-17.6 3.1729,-39.65 3.9924,-49 0.8196,-9.35 2.6076,-30.5 3.9736,-47 1.3659,-16.5 3.6082,-43.5 4.9828,-60 2.6908,-32.2988 2.8024,-33.6656 5.0197,-61.5 0.8106,-10.175 2.5961,-32 3.9679,-48.5 1.3718,-16.5 2.9606,-35.625 3.5308,-42.5 1.0846,-13.0782 9.5612,-116.4541 13.0786,-159.5 1.1236,-13.75 2.9361,-35.575 4.0278,-48.5 6.0491,-71.6181 10.0852,-120.0275 12.381,-148.5 1.4191,-17.6 3.9166,-48.4066 5.5499,-68.4591 1.6333,-20.0525 2.6363,-36.77172 2.2288,-37.15378 -0.4075,-0.38207 -5.9159,-0.98763 -12.2409,-1.34569 -6.325,-0.35806 -13.075,-0.82305 -15,-1.03331 -1.925,-0.21026 -8.9,-0.64979 -15.5,-0.97674 -6.6,-0.32694 -14.475,-0.78759 -17.5,-1.02366 -3.025,-0.23607 -9.775,-0.67072 -15,-0.9659 -5.225,-0.29517 -16.7,-0.9762 -25.5,-1.5134 -8.8,-0.53719 -20.725,-1.22671 -26.5,-1.53225 -5.775,-0.30555 -12.75,-0.76948 -15.5,-1.03095 -2.75,-0.26147 -11.2014,-0.68012 -18.7808,-0.93033 -7.5794,-0.25021 -14.1044,-0.64382 -14.5,-0.8747 -0.3956,-0.23087 -6.7942,-0.72192 -14.2192,-1.09122 -7.425,-0.3693 -14.85,-0.8692 -16.5,-1.11089 -1.65,-0.24168 -12.675,-0.90223 -24.5,-1.46788 -11.825,-0.56564 -23.75,-1.2461 -26.5,-1.51212 -2.75,-0.26602 -16.25,-1.15454 -30,-1.97449 -53.87345,-3.2126 -74.16127,-4.49543 -78,-4.93205 -2.2,-0.25023 -9.85,-0.73428 -17,-1.07567 -7.15,-0.3414 -22.675,-1.27391 -34.5,-2.07227 -11.825,-0.79835 -29.375,-1.90239 -39,-2.45342 -9.625,-0.55103 -19.975,-1.20505 -23,-1.45338 -5.32618,-0.43725 -60.23731,-3.94818 -78.5,-5.01917 -31.69372,-1.85864 -101.00932,-6.22743 -110.5,-6.96456 -3.575,-0.27766 -14.375,-0.96113 -24,-1.51882 -9.625,-0.55769 -20.65,-1.24858 -24.5,-1.53532 -6.34762,-0.47274 -42.34856,-2.7798 -85.5,-5.47911 -17.39938,-1.08841 -53.33912,-3.39002 -78.5,-5.0272 -8.25,-0.53682 -22.425,-1.43167 -31.5,-1.98857 -9.075,-0.55689 -22.8,-1.43799 -30.5,-1.95799 -7.7,-0.52 -18.275,-1.20028 -23.5,-1.51172 -24.3582,-1.45191 -93.49142,-5.81511 -119.5,-7.54199 -21.23761,-1.41011 -22.16523,-1.3605 -22.84044,1.22149 -0.55205,2.11105 -0.64751,2.12704 -2.52945,0.42391 -1.07566,-0.97346 -3.45748,-1.93516 -5.29293,-2.1371 -1.83545,-0.20194 -5.13718,-0.79539 -7.33718,-1.31877 -2.2,-0.52339 -11.875,-1.45093 -21.5,-2.0612 -9.625,-0.61027 -23.35,-1.55231 -30.5,-2.09342 -7.15,-0.54111 -20.875,-1.48764 -30.5,-2.10339 -9.625,-0.61575 -18.625,-1.22558 -20,-1.35518 -1.375,-0.1296 -5.0875,-0.30608 -8.25,-0.39217 C 0.98363481,905.02678 0,904.69843 0,903.2371 c 0,-1.88956 2.9102916,-1.79827 54,1.6939 13.78463,0.94223 22.908134,1.53089 55.17954,3.56022 5.40961,0.34018 8.91669,0.16209 9.30902,-0.47271 0.79211,-1.28166 7.19293,-1.34288 7.97573,-0.0763 0.85952,1.39073 5.8035,1.88459 41.03571,4.09905 58.07077,3.64995 62.9347,3.95807 70.5,4.46604 4.125,0.27698 20.55,1.17971 36.5,2.00607 15.95,0.82637 35.3,1.94174 43,2.47862 7.7,0.53687 21.65,1.44455 31,2.01706 9.35,0.57252 19.925,1.24204 23.5,1.48783 13.98713,0.96165 52.16593,3.27477 74,4.4834 10.175,0.56324 20.525,1.23928 23,1.50231 2.475,0.26303 8.775,0.71358 14,1.00122 5.225,0.28765 16.7,0.97135 25.5,1.51933 8.8,0.54799 19.825,1.22985 24.5,1.51525 4.675,0.2854 11.65,0.7412 15.5,1.01289 12.19937,0.86088 38.40662,2.49354 55.93322,3.48452 9.31328,0.52659 23.93828,1.41427 32.5,1.97263 8.56173,0.55835 18.94178,1.23541 23.06678,1.50458 4.125,0.26916 14.7,0.95655 23.5,1.52753 8.8,0.57098 22.3,1.4603 30,1.97626 7.7,0.51597 19.175,1.19273 25.5,1.50392 6.325,0.31119 14.65,0.77546 18.5,1.03171 58.42828,3.88887 77.79944,5.0847 97,5.98808 6.6,0.31053 16.95,0.96664 23,1.45803 6.05,0.49138 16.85,1.15791 24,1.48118 7.15,0.32327 15.25,0.8065 18,1.07386 2.75,0.26735 16.25,1.15398 30,1.97029 13.75,0.8163 27.925,1.69276 31.5,1.94768 3.575,0.25492 11,0.71673 16.5,1.02624 5.5,0.3095 13.375,0.78055 17.5,1.04677 29.6291,1.9122 40.3333,2.47548 40.6687,2.14009 0.2121,-0.21217 -1.2767,-1.65376 -3.3085,-3.20352 -3.2971,-2.51482 -3.4882,-2.89399 -1.7773,-3.5267 1.2747,-0.47137 3.6708,0.28 7.1503,2.2421 4.4516,2.51025 5.8923,2.85221 9.6456,2.28937 3.5913,-0.53856 4.5925,-0.33956 5.3811,1.06961 0.7197,1.28601 1.8302,1.60487 4.3178,1.23977 2.0794,-0.3052 3.8638,0.0233 4.707,0.8666 0.8505,0.85043 3.6678,1.35902 7.5367,1.36054 3.3982,10e-4 12.0286,0.44334 19.1786,0.98223 15.6162,1.17698 72.5715,4.94268 84.5,5.58686 44.6409,2.41078 47.3443,2.4894 48.0198,1.39643 0.3829,-0.6195 0.9904,-5.47822 1.3501,-10.79715 0.3597,-5.31894 1.3176,-16.6458 2.1287,-25.1708 0.811,-8.525 2.1667,-24.275 3.0126,-35 0.846,-10.725 1.9829,-23.775 2.5266,-29 0.5436,-5.225 2.1207,-24.35 3.5046,-42.5 1.3838,-18.15 2.9559,-37.5 3.4935,-43 1.0158,-10.39222 3.5064,-40.02982 4.748,-56.5 0.3938,-5.225 0.7161,-12.41145 0.7161,-15.9699 l 0,-6.46989 -6.4997,-1.704 c -3.5748,-0.9372 -8.3326,-1.97887 -10.5728,-2.31482 -2.2403,-0.33594 -7.1904,-1.74641 -11.0004,-3.13436 -3.8099,-1.38795 -8.9521,-3.11042 -11.4271,-3.82771 -2.475,-0.71729 -6.1355,-2.27985 -8.1345,-3.47236 -3.1595,-1.88485 -14.9386,-4.06825 -22.1155,-4.09937 -1.0193,-0.004 -1.75,-0.76334 -1.75,-1.81761 0,-4.83533 13.4574,-26.85615 19.9775,-32.68998 1.2294,-1.1 3.046,-3.58837 4.0369,-5.52971 0.9908,-1.94135 3.6706,-5.76635 5.9551,-8.5 2.2845,-2.73366 5.6593,-7.51093 7.4996,-10.61615 8.0207,-13.53369 19.2561,-24.85782 26.2,-26.40699 5.2502,-1.17132 13.6224,-5.54772 16.4943,-8.62206 2.717,-2.90859 2.8988,-3.70106 3.8277,-16.68934 2.9613,-41.40358 5.861,-72.10352 6.9283,-73.35152 0.7752,-0.9064 0.5257,19.20931 -0.3127,25.21577 -0.7761,5.55948 -3.5393,49.93777 -3.7048,59.5 -0.067,3.85 -0.5454,10.80027 -1.0639,15.44504 l -0.9427,8.44504 7.0804,23.05496 c 7.7137,25.11726 12.3748,35.75673 20.1838,46.07223 4.3835,5.79044 24.4834,26.73665 60.8405,63.40215 5.225,5.26932 11.75,12.25719 14.5,15.52861 2.75,3.27142 7.336,8.52614 10.191,11.67716 5.2709,5.81726 7.6749,11.90889 5.5417,14.04215 -1.3046,1.3046 -2.2976,0.76667 -20.2327,-10.96099 -18.7791,-12.27953 -24.7091,-16.04416 -31.0415,-19.70635 -7.0022,-4.04955 -25.4243,-16.42047 -33.166,-22.27187 -3.4609,-2.61581 -9.9866,-6.67546 -14.5016,-9.02144 -4.515,-2.34597 -8.5021,-4.73944 -8.8602,-5.31881 -0.3581,-0.57937 -2.514,-1.89488 -4.7909,-2.92336 -2.2769,-1.02848 -5.3207,-2.63612 -6.764,-3.57252 -4.3556,-2.82587 -5.5264,-1.46635 -6.2644,7.27426 -0.6606,7.8231 -3.8899,54.59812 -7.6173,110.33374 -1.0851,16.225 -2.648,38.275 -3.473,49 -1.692,21.99403 -5.5211,84.49067 -5.5211,90.11185 l 0,3.67999 7.75,0.63877 c 4.2625,0.35132 14.95,1.05876 23.75,1.57208 14.2571,0.83164 30.4189,1.88843 53.5,3.49825 4.125,0.2877 19.2,1.18484 33.5,1.99364 14.3,0.8088 28.925,1.68606 32.5,1.94947 3.575,0.2634 11.225,0.77752 17,1.14248 5.775,0.36496 10.8178,0.84671 11.2063,1.07054 0.3885,0.22384 0.4453,1.08723 0.1263,1.91864 -0.6076,1.58323 -0.04,1.58521 -35.3326,-0.12305 -19.4236,-0.94017 -35.9734,-1.87292 -52.5,-2.95893 -3.85,-0.25299 -11.95,-0.70387 -18,-1.00195 -6.05,-0.29809 -12.8,-0.74176 -15,-0.98595 -10.7995,-1.19868 -58.5613,-3.21877 -59.0071,-2.49571 -0.287,0.46558 -2.0027,24.26789 -6.0181,83.48989 -0.8204,12.1 -2.1699,31.45 -2.9988,43 -0.829,11.55 -2.1796,31.8 -3.0014,45 -0.8218,13.2 -2.1553,33.225 -2.9634,44.5 -0.8082,11.275 -1.9605,28.6 -2.5608,38.5 -0.6003,9.9 -1.4674,23.3609 -1.9269,29.9132 -0.7109,10.136 -0.5922,12.4233 0.7951,15.3327 1.5518,3.2541 1.528,3.598 -0.4923,7.1083 -1.7661,3.0686 -2.3155,6.5431 -3.268,20.6673 -0.6297,9.3382 -1.57,22.3785 -2.0894,28.9785 -0.5195,6.6 -2.3039,31.5149 -3.9653,55.3664 -3.8933,55.8918 -4.97,66.1336 -6.953,66.1336 -0.448,0 -0.626,-3.9375 -0.3956,-8.75 0.8197,-17.1146 6.3334,-99.4468 9.3277,-139.2835 0.5595,-7.4435 1.0173,-16.106 1.0173,-19.25 0,-5.4192 -0.129,-5.7165 -2.4809,-5.7165 -1.7517,0 -2.6343,0.6614 -3.0024,2.25 -0.4775,2.0607 -9.294,108.1733 -13.0238,156.75 -0.8657,11.275 -1.9932,24.775 -2.5055,30 -0.5124,5.225 -1.1906,13.55 -1.5071,18.5 -0.3165,4.95 -1.2225,16.65 -2.0134,26 -0.7908,9.35 -2.569,30.5 -3.9516,47 -1.3825,16.5 -2.7415,32.7 -3.0199,36 -0.2784,3.3 -0.7339,8.7 -1.0123,12 -2.1061,24.9706 -6.843,82.6329 -9.9399,121 -0.8435,10.45 -1.7508,20.8 -2.0162,23 -0.2654,2.2 -0.7139,7.15 -0.9967,11 -1.5328,20.8664 -4.919,63.1813 -7.5223,94 -1.626,19.25 -3.4057,40.4 -3.9548,47 -0.5492,6.6 -1.6894,20.1 -2.5338,30 -0.8445,9.9 -3.0977,37.575 -5.0071,61.5 -4.992,62.5485 -6.8049,79.6025 -10.6836,100.5 -1.1229,6.05 -2.3313,12.9869 -2.6852,15.4153 -0.6187,4.2454 -0.6903,4.3223 -1.8582,2 z m 80.0926,-840.1653 c 0.7678,-5.0886 4.0163,-50.5021 10.1038,-141.25 2.472,-36.85 5.8515,-85.9 7.51,-109 1.6585,-23.1 3.0139,-43.4625 3.0119,-45.25 -0.01,-5.42422 -1.7035,-3.63423 -2.3707,2.5 -0.7894,7.25603 -4.2628,49.6357 -5.1021,62.25 -0.794,11.9337 -4.1678,55.5854 -5.5261,71.5 -0.5633,6.6 -1.4627,18.75 -1.9987,27 -0.5359,8.25 -1.4371,19.05 -2.0027,24 -0.5656,4.95 -1.7135,17.1 -2.5508,27 -0.8374,9.9 -1.737,20.475 -1.9991,23.5 -2.2414,25.8652 -4.4883,59.4665 -4.0526,60.6021 0.295,0.7688 1.3913,1.3979 2.4361,1.3979 1.4678,0 2.0456,-0.9665 2.541,-4.25 z m 21.9845,-313.5 c 0.3607,-4.2625 0.8543,-12.925 1.0968,-19.25 l 0.441,-11.5 -1.8652,15 c -1.0259,8.25 -1.9034,16.9125 -1.9501,19.25 -0.1459,7.30452 1.5887,4.63874 2.2775,-3.5 z m 2.3539,-39 c -0.2292,-1.5125 -0.4166,-0.275 -0.4166,2.75 0,3.025 0.1874,4.2625 0.4166,2.75 0.2291,-1.5125 0.2291,-3.9875 0,-5.5 z m 1.0054,-16.5223 c -0.2209,-1.77524 -0.398,-0.0777 -0.3936,3.7723 0,3.85 0.1852,5.30246 0.4017,3.2277 0.2165,-2.07477 0.2128,-5.22477 -0.01,-7 z M 1253.237,900.5 c 0.2834,-5.5 0.1743,-8.65 -0.2425,-7 -0.7594,3.00606 -1.3122,18.20025 -0.6337,17.41667 0.1984,-0.22917 0.5927,-4.91667 0.8762,-10.41667 z m 2.4189,-38.76903 c -0.2739,-0.67703 -0.4813,0.11903 -0.461,1.76903 0.02,1.65 0.2445,2.20394 0.4981,1.23097 0.2535,-0.97297 0.2369,-2.32297 -0.037,-3 z m 1.0617,-11.46722 c -0.2299,-1.52006 -0.4241,-0.51375 -0.4316,2.23625 -0.01,2.75 0.1806,3.99369 0.4179,2.76375 0.2374,-1.22994 0.2435,-3.47994 0.014,-5 z m 0.9447,-10.51375 c -0.2774,-0.6875 -0.5044,-0.125 -0.5044,1.25 0,1.375 0.227,1.9375 0.5044,1.25 0.2774,-0.6875 0.2774,-1.8125 0,-2.5 z m 126.7062,-59 c -2.6358,-4.39585 -25.1959,-28.38885 -54.3685,-57.82166 -23.684,-23.89521 -26.8427,-27.31755 -32.6994,-35.42834 -6.8586,-9.49841 -10.7014,-17.46143 -13.8102,-28.61754 -3.0129,-10.81209 -6.4758,-20.99395 -7.566,-22.24628 -0.9016,-1.03565 -1.5967,4.85705 -2.9328,24.86382 -0.551,8.25 -1.4995,22.12752 -2.1078,30.83894 -0.7801,11.17259 -0.7931,16.15171 -0.044,16.9006 1.4272,1.42714 7.888,5.35489 11.9747,7.27988 1.8229,0.8586 5.1529,2.89298 7.4001,4.52084 2.2472,1.62786 4.6123,2.95974 5.2558,2.95974 1.3921,0 13,7.6635 27.5299,18.17524 5.775,4.17795 15.225,10.48931 21,14.02524 16.5799,10.15154 19.335,11.88504 30.2339,19.02281 5.6464,3.6978 10.4052,6.7353 10.5751,6.75 0.17,0.0147 -0.028,-0.53579 -0.4405,-1.22329 z m -119.9905,-77.5 c 0.5307,-3.59325 1.8576,-18.32442 5.0668,-56.25 1.8637,-22.02554 2.9238,-41 2.2905,-41 -0.2671,0 -3.9417,1.575 -8.1659,3.5 -4.2241,1.925 -8.3399,3.5 -9.1462,3.5 -4.3258,0 -17.6903,13.87881 -22.7062,23.57998 -0.8759,1.69399 -4.5455,6.79774 -8.1548,11.34166 -3.6092,4.54393 -6.5622,8.61005 -6.5622,9.03584 0,0.42579 -3.1578,4.31047 -7.0174,8.63262 -6.4267,7.19709 -15.1785,21.54734 -13.9129,22.81297 0.2915,0.29146 4.3707,0.96634 9.065,1.49974 5.3352,0.60623 9.8406,1.7401 12.0173,3.02439 5.376,3.1719 24.6245,9.66618 31.3248,10.5687 2.2127,0.29806 6.2732,1.17805 9.0232,1.95552 2.75,0.77748 5.2979,1.44396 5.6621,1.48109 0.3642,0.0371 0.9113,-1.62001 1.2159,-3.68251 z m -77.7217,1373.6175 c -4.4372,-2.5793 -5.8013,-11.649 -3.1134,-20.7001 1.5881,-5.3476 6.6335,-12.1674 9.0017,-12.1674 2.4504,0 2.4589,-1.7065 0.068,-13.6441 -3.9073,-19.5064 -3.861,-19.0464 -1.9911,-19.764 4.0771,-1.5645 8.6075,8.0277 6.3573,13.4602 -0.9335,2.2536 -0.799,4.5562 0.6788,11.6289 3.4956,16.7288 1.7561,33.344 -4.1591,39.7266 -2.6077,2.8137 -4.0012,3.111 -6.8418,1.4599 z m 6.6877,-8.4507 c 1.1885,-3.1677 1.9001,-7.9406 2.0004,-13.4168 0.1443,-7.8852 0.011,-8.5 -1.8444,-8.5 -5.01,0 -9.4462,17.8357 -6.0633,24.3775 0.9243,1.7875 2.2165,3.0714 2.8715,2.8531 0.6551,-0.2184 2.0211,-2.6096 3.0358,-5.3138 z m -19.2943,-32.857 c -0.6878,-0.8287 -2.1393,-6.5812 -3.2256,-12.7833 -3.393,-19.372 -1.4335,-32.6335 4.963,-33.5878 5.9299,-0.8846 6.9319,12.1752 1.8025,23.4932 -2.693,5.9422 -2.7446,6.3494 -1.3302,10.5 l 1.4715,4.3181 1.4831,-5 c 1.2826,-4.3244 1.8684,-5.0454 4.3352,-5.3358 5.0686,-0.5967 7.0523,5.765 4.2307,13.568 -1.0536,2.9135 -1.5655,3.2928 -3.75,2.7783 -1.3915,-0.3277 -3.2893,-1.4918 -4.2175,-2.5869 -1.6424,-1.9377 -1.696,-1.8916 -2,1.7153 -0.3442,4.0844 -1.8361,5.2424 -3.7627,2.9209 z m 10.6126,-11.8098 c -0.2774,-0.6875 -0.5044,-0.125 -0.5044,1.25 0,1.375 0.227,1.9375 0.5044,1.25 0.2774,-0.6875 0.2774,-1.8125 0,-2.5 z m -8.2563,-16.4281 c 1.9946,-5.8538 2.0884,-13.6667 0.183,-15.248 -2.2405,-1.8595 -2.9737,0.4276 -3.4225,10.6761 -0.4547,10.3841 0.7025,12.0174 3.2395,4.5719 z m 60.4413,-719.9906 c -0.6725,-1.6345 -1.2035,-8.597 -1.2561,-16.4718 -0.081,-12.0859 0.1259,-13.8809 1.8138,-15.75 4.6094,-5.1042 10.0644,-0.8058 13.9868,11.0213 1.8151,5.4729 3.0091,20.8963 1.761,22.7473 -1.7376,2.5771 -2.9136,0.1669 -3.6255,-7.4302 -0.3953,-4.2188 -1.2242,-7.771 -1.8689,-8.0096 -0.6371,-0.2358 -2.4855,-0.067 -4.1076,0.3749 -2.9188,0.7952 -2.9498,0.8793 -3,8.1554 -0.055,8.0081 -1.6593,10.3307 -3.7035,5.3627 z m 9.4804,-17.9036 c 1.1303,-0.4337 1.291,-1.2703 0.6641,-3.4563 -1.2004,-4.1855 -4.269,-9.045 -5.4631,-8.6516 -0.5658,0.1864 -1.1627,3.1157 -1.3264,6.5096 -0.2882,5.9731 -0.2188,6.1706 2.1682,6.1706 1.3563,0 3.137,-0.2575 3.9572,-0.5723 z m 217.8829,-101.0286 c -1.4637,-1.5881 -3.6496,-1.9184 -2.7177,-0.4106 0.3504,0.5669 -0.051,0.7346 -0.941,0.3931 -0.8535,-0.3276 -1.5519,-1.474 -1.5519,-2.5476 0,-1.0736 -0.45,-1.6739 -1,-1.334 -1.1828,0.731 -1.1828,-0.2475 0,-3 0.6774,-1.5763 0.8743,-1.6498 0.9297,-0.347 0.039,0.9092 1.7578,3.0078 3.8203,4.6638 2.0625,1.6559 3.525,3.2291 3.25,3.4961 -0.275,0.267 -1.0802,-0.1442 -1.7894,-0.9138 z M 1438,1166.059 c 0,-0.5824 0.45,-1.059 1,-1.059 0.55,0 1,0.1984 1,0.441 0,0.2425 -0.45,0.7191 -1,1.059 -0.55,0.3399 -1,0.1415 -1,-0.441 z m 0.071,-3.926 c -0.7708,-1.4403 -0.6579,-2.2311 0.4498,-3.1504 0.8135,-0.6751 1.479,-0.9316 1.479,-0.5699 0,0.3617 1.0125,0.1309 2.25,-0.513 1.2375,-0.6438 1.9195,-0.8166 1.5155,-0.384 -0.4039,0.4326 0.045,1.3567 0.9985,2.0537 1.9049,1.3929 1.2171,2.6926 -1.5321,2.8951 -0.9719,0.072 -2.2991,0.459 -2.9493,0.8608 -0.6896,0.4263 -1.6111,-0.071 -2.2114,-1.1923 z m 36.1551,-109.972 c -1.4546,-0.9231 -2.6983,-7.7234 -3.7508,-20.5087 -0.6828,-8.2948 -0.612,-8.8252 1.1329,-8.4892 1.2742,0.2454 2.0534,1.5412 2.4708,4.1087 0.7468,4.5949 1.2006,5.0915 3.8763,4.2423 1.787,-0.5672 2.0089,-1.1871 1.464,-4.0913 -0.8327,-4.4388 0.3262,-10.6735 1.8879,-10.1559 0.7353,0.2437 1.6709,4.9658 2.4398,12.3142 0.6859,6.5554 1.6984,13.2236 2.25,14.8181 1.3441,3.8861 1.269,4.6008 -0.4838,4.6008 -1.622,0 -4.0541,-5.0349 -5.084,-10.5248 -0.7338,-3.9114 -1.0759,-4.1051 -3.4519,-1.9548 -1.3012,1.1775 -1.5744,2.6995 -1.2115,6.75 0.2577,2.8763 0.8306,5.6219 1.2731,6.1015 0.8561,0.9276 0.1837,3.6385 -0.8961,3.6128 -0.3536,-0.01 -1.2162,-0.3791 -1.9167,-0.8237 z m -19.2398,-3.411 c -1.0912,-1.7875 -2.5055,-4.825 -3.1427,-6.75 -0.6373,-1.925 -1.8316,-3.9942 -2.654,-4.5983 -0.9174,-0.6738 -1.1801,-1.6083 -0.6799,-2.4178 0.4486,-0.7257 0.8862,-3.6852 0.9725,-6.5766 0.1868,-6.2603 3.3494,-11.6018 8.256,-13.9441 2.6931,-1.2857 3.6192,-1.3297 5.5,-0.2616 l 2.2616,1.2844 -2.7141,0.3199 c -5.0891,0.6 -10.5787,10.187 -9.1326,15.949 0.4991,1.9886 1.1391,2.3301 3.918,2.0907 3.8362,-0.3306 5.6042,0.7885 2.8218,1.7861 -4.0623,1.4565 -4.2497,2.1551 -2.2782,8.4898 1.0383,3.3359 1.6356,6.4732 1.3274,6.9718 -1.0358,1.676 -2.4589,0.9276 -4.4558,-2.3433 z M 126,1001.1577 c 0,-0.824 14.76983,-8.1577 16.42927,-8.1577 1.37127,0 -3.71654,3.67731 -8.90384,6.43542 C 128.58933,1002.06 126,1002.6526 126,1001.1577 z M 95.25,993.53624 C 90.159056,991.16606 88.390297,989 91.545806,989 c 0.850193,0 3.659113,1.125 6.242043,2.5 2.582931,1.375 5.235761,2.5 5.895181,2.5 0.65941,0 1.47705,0.45 1.81697,1 1.15821,1.87403 -4.95621,1.00085 -10.25,-1.46376 z M 156,979.62084 c 0,-2.46841 5.13035,-12.65831 6.0782,-12.07251 1.50331,0.9291 1.07252,3.22073 -1.59505,8.48491 C 158.05244,980.83002 156,982.47247 156,979.62084 z M 79.601999,976.84216 C 78.7209,975.58422 78,973.55941 78,972.34259 c 0,-1.21681 -0.432805,-3.35075 -0.961789,-4.74209 -1.017853,-2.67715 0.335604,-4.62668 2.033385,-2.9289 0.853307,0.8533 3.009902,13.48161 2.415278,14.14307 -0.155582,0.17306 -1.003776,-0.71456 -1.884875,-1.97251 z M 1110,965.93677 c -1.375,-0.40558 -5.3125,-0.78227 -8.75,-0.83709 -5.5081,-0.0879 -6.25,-0.33248 -6.25,-2.06072 0,-2.39699 3.7207,-6.03896 6.1695,-6.03896 1.0562,0 2.0389,0.98222 2.3926,2.39122 0.3899,1.55382 1.5348,2.58267 3.269,2.93791 2.8442,0.5826 6.9988,3.22746 6.1673,3.9262 -0.2741,0.23037 -1.6234,0.087 -2.9984,-0.31856 z m -86.5092,-17.42131 c -3.8449,-3.0165 -8.6706,-6.504 -10.7236,-7.75 -2.0531,-1.246 -3.9808,-2.90448 -4.2839,-3.68551 -1.1189,-2.88351 1.8906,-2.75997 6.3674,0.26138 4.3486,2.93486 17.1493,14.9704 17.1493,16.12424 0,1.32089 -1.9956,0.15997 -8.5092,-4.95011 z M 165.68333,951.35 C 165.3075,950.97417 165,948.90417 165,946.75 c 0,-4.85965 2.34405,-4.69011 2.82284,0.20417 0.32213,3.29279 -0.84486,5.69048 -2.13951,4.39583 z m -88.868851,-4.37545 c -1.338026,-3.93115 5.41676,-15.79521 7.30056,-12.82265 0.469885,0.74145 0.854335,1.7981 0.854335,2.3481 0,0.55 -0.397666,0.37197 -0.883703,-0.39562 -0.967302,-1.52765 -3.183258,1.98666 -5.533856,8.7762 -0.773799,2.23506 -1.422991,3.01752 -1.737336,2.09397 z m 993.839621,-0.80423 c -2.4555,-2.71332 -6.7011,-13.7713 -7.3317,-19.09615 C 1062.0754,916.54542 1066.71,906 1072.5842,906 c 7.1943,0 12.0045,6.78949 13.0967,18.48566 0.5354,5.73372 0.7414,6.15627 2.8083,5.76115 2.5711,-0.49149 3.475,1.67871 3.4971,8.3962 0.02,6.11803 2.1136,6.26954 8.2406,0.59639 l 5.1185,-4.7394 -2.4227,4.40447 c -2.4447,4.44443 -6.9958,8.0849 -10.116,8.09179 -2.3733,0.005 -4.8067,-3.84828 -4.8067,-7.61178 0,-4.62789 -2.5935,-5.1463 -4.0263,-0.8048 -2.6778,8.11373 -9.3863,11.93684 -13.3196,7.59064 z m 6.7603,-2.07576 c 4.2246,-4.6681 6.1106,-21.50901 3.1912,-28.49599 -1.5933,-3.81329 -5.0569,-6.59857 -8.2057,-6.59857 -2.6616,0 -4.2034,1.76739 -4.9951,5.72597 -0.5618,2.80883 -0.4217,2.99992 1.8769,2.56052 1.3661,-0.26116 2.7882,0.0176 3.1601,0.61934 0.4023,0.65087 -0.1224,1.09417 -1.2949,1.09417 -4.0642,0 -3.9188,14.19549 0.2151,21 1.1695,1.925 2.1852,3.8375 2.2572,4.25 0.2727,1.56328 0.4035,1.75 1.2258,1.75 0.4648,0 1.621,-0.85745 2.5694,-1.90544 z M 150.15845,925.66348 C 146.38304,921.76824 146.24904,921 149.34501,921 151.975,921 155,923.81892 155,926.26972 c 0,2.90957 -1.63196,2.70522 -4.84155,-0.60624 z M 95.5,921.49728 c 4.023273,-3.60729 10.35148,-6.76825 12.16033,-6.07413 1.84907,0.70956 0.78561,2.57613 -1.46935,2.57899 -0.93004,10e-4 -4.39098,1.39328 -7.69098,3.09355 l -6,3.0914 3,-2.68981 z M 995,912.5 c 0,-0.825 -0.39752,-1.5 -0.88337,-1.5 -0.48585,0 -1.13611,-0.7875 -1.44501,-1.75 -0.55027,-1.71457 -5.42755,-10.55558 -8.2708,-14.99243 -2.31409,-3.6111 -2.94206,-10.85919 -1.1004,-12.70085 2.26725,-2.26724 2.63727,-1.94758 2.03581,1.75875 -0.43053,2.65308 0.55175,5.50008 4.91658,14.25 C 996.01067,909.10792 997.72711,914 996.01905,914 995.45857,914 995,913.325 995,912.5 z M 142,895.61663 c 0,-0.76085 0.974,-1.63807 2.16445,-1.94938 1.82819,-0.47809 1.96452,-0.80692 0.87756,-2.11664 -1.89828,-2.28728 -6.07733,-1.88618 -8.98729,0.86261 -1.4051,1.32727 -3.67238,2.56477 -5.0384,2.75 -2.1153,0.28683 -2.68575,-0.25652 -3.84599,-3.66322 -0.74926,-2.2 -1.60434,-8.76396 -1.90018,-14.58658 l -0.53789,-10.58659 3.17573,-2.26131 c 2.23596,-1.59215 3.92837,-2.07242 5.7191,-1.62298 3.82833,0.96085 7.37291,5.3184 7.37291,9.06394 0,3.34662 -3.86172,10.00128 -7.13786,12.30022 -1.02418,0.71869 -1.86214,2.47594 -1.86214,3.90499 0,2.57814 0.0163,2.58352 2.10499,0.6933 2.70975,-2.4523 9.54334,-2.52066 13.18899,-0.13194 2.87762,1.88549 3.58951,5.44346 1.50602,7.52695 -1.68149,1.68149 -6.8,1.54346 -6.8,-0.18337 z m -6.58889,-18.69336 c 3.13061,-3.72052 3.24713,-5.81673 0.51631,-9.28841 -2.31677,-2.94529 -5.39736,-3.45856 -6.32043,-1.05307 -1.05547,2.7505 -0.6566,10.9686 0.59301,12.21821 1.74754,1.74754 2.34147,1.53364 5.21111,-1.87673 z M 982.66809,855 c -2.56153,-9.82313 -2.77923,-20.86823 -0.5765,-29.25 1.91446,-7.28486 2.56258,-3.56732 2.17927,12.5 -0.43177,18.09885 -0.6517,20.3972 -1.60277,16.75 z m 3.86682,-54.32939 c -1.81109,-4.09129 1.39111,-25.32816 5.60477,-37.17061 2.6841,-7.54364 3.18593,-8.5 4.4602,-8.5 1.0236,0 1.12265,0.5531 0.40294,2.25 -2.08894,4.9252 -8.15222,30.6947 -8.88215,37.75 -0.53364,5.15797 -1.02883,6.92874 -1.58576,5.67061 z M 597.66667,799.33333 C 597.3,798.96667 597,798.20167 597,797.63333 c 0,-0.6266 0.46577,-0.56756 1.18333,0.15 0.65084,0.65084 0.95084,1.41584 0.66667,1.7 -0.28417,0.28417 -0.81667,0.21667 -1.18333,-0.15 z M 1001.5117,735.5 c 0.9383,-6.42073 6.5462,-22.508 9.7503,-27.97036 3.4689,-5.91397 3.5668,-6.03419 4.3078,-5.29321 0.3133,0.31337 -0.4282,2.52587 -1.6479,4.91666 -1.2197,2.3908 -4.6425,10.64691 -7.6062,18.34691 -3.2072,8.33264 -5.1519,12.38075 -4.804,10 z m 26.5237,-52.70295 c -0.019,-0.38662 0.4706,-1.96162 1.0891,-3.5 0.6185,-1.53838 1.4606,-3.69705 1.8714,-4.79705 5.1683,-13.83915 13.7007,-28.13675 15.6361,-26.20128 0.3334,0.33332 -0.2065,1.41497 -1.1996,2.40366 -0.9932,0.98869 -4.6412,7.64762 -8.1067,14.79762 -6.5376,13.48836 -9.2296,18.50044 -9.2903,17.29705 z M 1063,626.45034 c 0,-2.52755 15.4723,-26.09754 18.03,-27.46641 1.2249,-0.65556 2.0577,-0.65105 2.4683,0.0134 0.3409,0.55148 0.2363,1.0027 -0.2323,1.0027 -0.4686,0 -5.0717,6.075 -10.2292,13.5 C 1064.1739,626.2597 1063,627.77441 1063,626.45034 z m 221.0352,-31.3846 C 1283.4658,594.0019 1283,588.84273 1283,583.60093 c 0,-8.44023 0.2241,-9.65049 1.9588,-10.57886 1.702,-0.91092 2.4925,-0.32579 6.0315,4.46481 4.2099,5.69869 5.9632,6.78497 6.0737,3.76312 0.3326,-9.08756 1.7876,-25.4349 2.3104,-25.9577 2.6178,-2.61779 3.794,7.33317 2.5444,21.52594 -1.0061,11.42721 -3.7476,14.46406 -9.1917,10.18176 -3.443,-2.70829 -3.725,-2.57637 -3.7408,1.75 -0.028,7.60182 -2.5446,10.81243 -4.9511,6.31574 z M 1095.75,580.50507 c 0.8551,-1.64721 4.2986,-5.73047 7.6523,-9.0739 8.7731,-8.74618 19.3305,-14.48101 22.7138,-12.33827 1.081,0.68465 0.9768,0.87983 -0.4761,0.89179 -4.1747,0.0344 -14.4376,6.79188 -22.7923,15.00726 -5.8025,5.70573 -8.1402,7.5216 -7.0977,5.51312 z m 50.7201,-36.45667 c 2.1757,-3.52033 22.6212,-17.05714 25.7401,-17.04224 0.7094,0.003 -0.06,0.70828 -1.7102,1.56643 -1.65,0.85815 -3.929,2.43038 -5.0645,3.49384 -1.1354,1.06346 -2.3967,1.93357 -2.8028,1.93357 -0.4061,0 -4.3792,2.53658 -8.8291,5.63684 -4.4499,3.10026 -7.75,5.08546 -7.3335,4.41156 z"
     id="path3037"
     style="fill:#000000" />
</svg>
