<?xml version="1.0" encoding="UTF-8" standalone="no"?>
<!-- Created with Inkscape (http://www.inkscape.org/) -->

<svg
   xmlns:dc="http://purl.org/dc/elements/1.1/"
   xmlns:cc="http://creativecommons.org/ns#"
   xmlns:rdf="http://www.w3.org/1999/02/22-rdf-syntax-ns#"
   xmlns:svg="http://www.w3.org/2000/svg"
   xmlns="http://www.w3.org/2000/svg"
   version="1.1"
   width="1334.5229"
   height="1521.741"
   id="svg2997">
  <metadata
     id="metadata3003">
    <rdf:RDF>
      <cc:Work
         rdf:about="">
        <dc:format>image/svg+xml</dc:format>
        <dc:type
           rdf:resource="http://purl.org/dc/dcmitype/StillImage" />
        <dc:title></dc:title>
      </cc:Work>
    </rdf:RDF>
  </metadata>
  <defs
     id="defs3001" />
  <path
     d="m 805.54342,1521.2294 c 0,-1.8768 2.5316,-3.0596 9,-4.2048 3.575,-0.633 8.3788,-2.0463 10.6751,-3.1407 2.4171,-1.152 8.1016,-2.3949 13.5,-2.9518 6.0028,-0.6193 13.0356,-2.2422 19.7406,-4.5555 9.9639,-3.4375 11.1352,-3.6128 27,-4.041 9.1214,-0.2461 20.8593,-1.202 26.0843,-2.1241 14.4399,-2.5484 34.931,-2.2763 47.5,0.6308 11.8367,2.7377 32.4504,4.4709 37.5,3.153 1.925,-0.5025 9.66668,-1.6231 17.20378,-2.4904 7.5371,-0.8673 16.0871,-2.4057 19,-3.4187 2.9129,-1.013 8.5502,-3.0218 12.5274,-4.464 3.9772,-1.4422 7.9787,-2.6222 8.8923,-2.6222 0.9136,0 5.3096,-1.5542 9.7688,-3.4538 4.4592,-1.8996 10.3577,-4.1993 13.1077,-5.1105 2.75,-0.9111 7.5312,-3.2111 10.625,-5.1111 3.0937,-1.9 7.0065,-4.2128 8.6951,-5.1396 5.175,-2.8402 20.3255,-13.4163 24.9385,-17.4088 2.3997,-2.0769 4.6734,-3.7762 5.0526,-3.7762 1.2035,0 17.4691,-16.3476 23.1888,-23.3057 3.025,-3.68 6.4112,-8.6041 7.5248,-10.9426 1.1136,-2.3384 3.2564,-6.3252 4.7616,-8.8594 4.4729,-7.5305 5.3899,-11.4671 9.292,-39.8923 1.7035,-12.4096 3.0848,-50.9309 1.9228,-53.6251 -0.4447,-1.0312 -0.7214,-2.6016 -0.6149,-3.4898 0.1065,-0.8881 -0.6977,-6.0631 -1.7871,-11.5 -1.8617,-9.2916 -4.219,-28.4538 -4.0453,-32.8851 0.043,-1.1 0.05,-9.1015 0.015,-17.7812 -0.035,-8.6796 0.3604,-17.6796 0.8784,-20 0.5179,-2.3203 1.3853,-7.5938 1.9275,-11.7188 2.8294,-21.5254 7.3311,-50.5535 9.0723,-58.5 1.0846,-4.95 3.5756,-17.1 5.5355,-27 1.9599,-9.9 4.6226,-22.2831 5.9171,-27.518 4.0287,-16.2916 1.0806,-24.8327 -16.4279,-47.595 -7.0547,-9.1716 -9.871,-14.6592 -10.5355,-20.5284 -0.5981,-5.2831 -0.2526,-7.5187 2.9923,-19.3586 1.5416,-5.6253 2.5546,-14.5245 4.0978,-36 0.3557,-4.95 0.7872,-10.57463 0.959,-12.49918 0.1718,-1.92455 0.6348,-10.24955 1.0291,-18.5 0.3942,-8.25045 0.8791,-15.86768 1.0777,-16.92717 0.1985,-1.05949 0.636,-9.38449 0.9723,-18.5 0.8333,-22.58757 3.4933,-37.47973 10.1429,-56.7868 4.7106,-13.67706 9.8361,-21.84755 17.4656,-27.84161 5.6703,-4.45485 26.0491,-15.44246 28.6447,-15.4443 0.7247,-5.2e-4 7.6902,-3.23444 15.4789,-7.18649 10.6081,-5.38264 15.2181,-8.33079 18.3732,-11.75 10.4415,-11.31522 25.36,-25.84332 29.5385,-28.76533 8.244,-5.76498 11.381,-10.73369 17.3289,-27.44714 8.0465,-22.61049 14.4623,-49.9162 14.4626,-61.55319 2e-4,-7.10056 -2.0439,-15.91029 -4.5951,-19.8039 -1.2814,-1.95563 -1.4332,-2.85922 -0.5702,-3.39261 1.2362,-0.76401 -3.3807,-10.58092 -6.8675,-14.60228 -0.9538,-1.1 -2.9895,-4.59756 -4.5238,-7.77236 -1.5343,-3.1748 -4.2224,-7.4498 -5.9735,-9.5 -1.7512,-2.0502 -4.1536,-5.52764 -5.3387,-7.72764 -2.0289,-3.76613 -5.3127,-8.71255 -11.9498,-18 -1.5722,-2.2 -3.3931,-5.35 -4.0465,-7 -0.6534,-1.65 -3.8572,-6.825 -7.1195,-11.5 -3.2623,-4.675 -8.434,-13 -11.4927,-18.5 -5.5131,-9.91336 -10.7334,-18.89858 -17.1393,-29.5 -1.8279,-3.025 -4.1119,-7.075 -5.0757,-9 -0.9638,-1.925 -2.9306,-5.3 -4.3706,-7.5 -1.4401,-2.2 -5.9076,-10.075 -9.9279,-17.5 -4.0202,-7.425 -7.675,-14.175 -8.1218,-15 -0.4467,-0.825 -3.316,-6.9 -6.3762,-13.5 -3.0602,-6.6 -6.2962,-13.35 -7.1912,-15 -0.8949,-1.65 -2.8875,-5.31549 -4.4278,-8.14553 -1.5404,-2.83004 -4.6068,-9.48515 -6.8142,-14.78912 -2.2075,-5.30398 -6.008,-13.39354 -8.4456,-17.9768 -2.4376,-4.58326 -5.5498,-11.65315 -6.916,-15.71087 -1.3662,-4.05773 -4.5612,-11.993 -7.1001,-17.63395 -2.5389,-5.64095 -4.6161,-10.65064 -4.6161,-11.13263 0,-0.482 -2.0277,-5.88974 -4.5059,-12.01721 -4.5763,-11.31484 -6.5421,-15.85319 -11.5191,-26.59389 -1.5291,-3.3 -3.893,-9.375 -5.2529,-13.5 -1.36,-4.125 -2.9483,-8.625 -3.5297,-10 -0.5814,-1.375 -1.8361,-5.2 -2.7883,-8.5 -0.9521,-3.3 -2.3949,-7.3357 -3.2062,-8.96822 -0.8112,-1.63252 -2.2665,-6.21341 -3.234,-10.17975 -0.9675,-3.96635 -1.9895,-7.58436 -2.2711,-8.04003 -1.7728,-2.86849 -3.8997,-18.11535 -3.81,-27.312 0.1979,-20.26908 1.6348,-25.335 13.048,-46 3.4933,-6.325 7.5712,-13.75 9.062,-16.5 1.4907,-2.75 4.1055,-7.46951 5.8105,-10.4878 5.1167,-9.05765 5.6617,-15.06117 3.8144,-42.0122 -1.1784,-17.19165 -2.3028,-26.45285 -4.1886,-34.5 -1.4178,-6.05 -3.4351,-14.825 -4.4829,-19.5 -1.0478,-4.675 -2.574,-10.975 -3.3916,-14 -2.0478,-7.576144 -8.3824,-50.1387651 -8.5206,-57.25 -0.021,-1.07332211 0.7115,-1.75 1.894,-1.75 1.6097,0 2.0291,0.94964738 2.5396,5.75 2.4079,22.641061 5.6769,42.914621 9.1172,56.543594 7.4894,29.669369 9.4442,41.542426 10.6308,64.568166 1.5637,30.34329 1.166,32.34287 -10.6683,53.63824 -9.9065,17.82654 -14.8745,27.46237 -17.7058,34.34138 -3.0872,7.50086 -3.1533,7.99851 -3.2116,24.15862 l -0.059,16.5 4.5916,15 c 7.2151,23.57082 15.7325,46.78633 22.3586,60.94249 4.6081,9.84477 20.4981,48.74858 25.1428,61.55751 1.8946,5.225 4.9996,12.28061 6.9,15.67914 1.9003,3.39853 5.4101,10.84526 7.7994,16.54831 2.3894,5.70304 5.7796,12.82243 7.5338,15.82086 1.7542,2.99843 4.5715,8.37669 6.2606,11.95169 12.092,25.59216 21.6455,43.83015 29.334,56 2.398,3.79567 12.4051,21.09968 16.6281,28.7529 1.4407,2.6109 4.334,7.6721 6.4295,11.2471 2.0955,3.575 4.8396,8.57017 6.0978,11.10039 1.2583,2.53021 3.0015,5.19267 3.8737,5.91658 1.5456,1.28271 6.923,9.75582 12.9796,20.45171 3.7595,6.63934 7.2134,11.92493 17.9903,27.53132 2.4687,3.575 5.7308,8.68812 7.2491,11.36248 1.5183,2.67437 4.1355,6.94937 5.816,9.5 6.3626,9.65708 10.8069,19.02877 14.5153,30.60809 3.7936,11.84586 3.8367,13.46435 0.3595,13.51412 -0.5884,0.008 -1.6221,3.72781 -2.297,8.26531 -2.4749,16.6391 -6.6413,32.494 -14.2189,54.10926 -4.7899,13.66314 -5.6388,15.30923 -10.732,20.81053 -3.0419,3.28561 -7.3649,7.23582 -9.6068,8.77824 -4.8066,3.30704 -18.0885,16.30205 -24.8334,24.29702 -4.2218,5.00427 -6.5402,6.54116 -20.5776,13.64104 -8.7009,4.40075 -18.9015,9.16128 -22.6679,10.57895 -7.2151,2.71579 -17.2954,8.64474 -23.9966,14.11414 -5.3142,4.33737 -9.6325,11.75695 -13.9594,23.98467 -6.629,18.73327 -8.5655,29.57604 -9.5436,53.43615 -2.3906,58.31264 -5.3472,94.1181 -9.0446,109.5324 -2.6889,11.21 -2.7939,12.3821 -1.5362,17.1499 1.3725,5.2028 4.9849,11.2164 11.6044,19.3177 2.0223,2.475 6.0304,8.074 8.9068,12.4422 5.0234,7.6285 5.2609,8.3001 6.0133,17 0.6702,7.7483 0.456,10.4312 -1.4812,18.5578 -1.2455,5.225 -3.0449,14.225 -3.9986,20 -0.9537,5.775 -3.0366,17.025 -4.6286,25 -1.5921,7.975 -4.4892,25.075 -6.4381,38 -7.8779,52.2462 -8.0367,54.1278 -6.5238,77.3124 0.6887,10.5532 1.9928,22.7876 2.8982,27.1876 2.1864,10.6259 2.6485,60.0301 0.7062,75.5 -3.8384,30.5717 -4.3116,32.3666 -12.259,46.5 -7.6412,13.5891 -20.9436,28.8137 -33.7158,38.5878 -18.018,13.7884 -29.2931,21.883 -31.819,22.8434 -1.272,0.4836 -4.4858,2.2574 -7.1418,3.9418 -2.6561,1.6844 -7.1264,3.8147 -9.9342,4.734 -2.8077,0.9192 -7.6925,2.9652 -10.855,4.5466 -3.1625,1.5813 -8.7875,3.5615 -12.5,4.4003 -3.7125,0.8388 -10.5823,3.039 -15.2663,4.8893 -8.5109,3.3621 -13.4428,4.4945 -28.4837,6.5405 -4.4,0.5985 -11.1043,1.6068 -14.89848,2.2407 -8.7298,1.4584 -28.1574,-0.1471 -41.1015,-3.3966 -11.0228,-2.7672 -30.9877,-2.9983 -45,-0.5208 -4.95,0.8752 -16.425,1.8187 -25.5,2.0966 -16.4872,0.5049 -20.2608,1.1519 -32.3078,5.5394 -3.1943,1.1634 -10.1777,2.5316 -15.5187,3.0405 -5.3409,0.5089 -11.5024,1.6848 -13.6921,2.6131 -2.1898,0.9284 -6.9064,2.2621 -10.4814,2.9637 -3.575,0.7017 -7.2875,1.5858 -8.25,1.9647 -0.9625,0.379 -1.75,0.2459 -1.75,-0.2956 z m 228.56708,-110.018 c -0.3122,-0.9837 -0.3609,-13.4712 -0.1081,-27.75 0.2527,-14.2788 0.707,-39.9114 1.0096,-56.9614 0.3025,-17.05 0.7662,-40.9 1.0304,-53 0.5144,-23.5619 1.1764,-65.5724 2.0092,-127.5 0.2848,-21.175 0.7324,-52 0.9946,-68.5 0.2623,-16.5 0.7104,-45.75 0.9959,-65 0.2854,-19.25 0.7487,-46.925 1.0296,-61.5 0.2809,-14.575 0.9441,-56.425 1.4739,-93 0.5297,-36.575 1.191,-72.575 1.4694,-80 0.7441,-19.84368 2.0284,-112.91686 2.0284,-147 l 0,-29.5 -48.49998,0.27745 c -26.675,0.1526 -51.875,0.4863 -56,0.74155 -4.125,0.25525 -33.825,0.69266 -66,0.97202 -32.175,0.27935 -71.325,0.72719 -87,0.9952 -35.6105,0.60885 -90.6837,1.33082 -155.5,2.03848 -27.5,0.30025 -59,0.73395 -70,0.96378 -26.08499,0.54501 -137.17056,2.00496 -233.5,3.06879 -28.875,0.31889 -54.975,0.74896 -58,0.95573 -3.025,0.20677 -20.8,0.4559 -39.5,0.55363 -36.22589,0.18931 -41.68879,0.49305 -41.27501,2.2949 0.36645,1.59577 -1.16433,1.56176 -5.17741,-0.11501 -2.23171,-0.93247 -4.70676,-1.19659 -7,-0.74699 -1.95117,0.38254 -4.44758,0.58071 -5.54758,0.44038 -1.1,-0.14033 -29.225,-0.13 -62.5,0.0229 -33.274999,0.15294 -60.274999,0.049 -59.999999,-0.23104 0.92361,-0.94045 21.20975,-1.66453 65.499999,-2.33791 35.42338,-0.53856 44.55881,-0.95132 46.86681,-2.11752 1.57675,-0.79671 3.76254,-1.21432 4.85732,-0.92803 1.09478,0.28629 3.00769,0.1338 4.2509,-0.33887 1.54042,-0.58566 3.17844,-0.36949 5.14268,0.67869 2.51928,1.34436 8.17195,1.45722 44.88229,0.89607 23.1,-0.3531 72.6,-1.06393 110,-1.57962 37.4,-0.51569 82.85,-1.17528 101,-1.46574 18.15,-0.29047 51.9,-0.76629 75,-1.05737 23.1,-0.29108 50.325,-0.73573 60.5,-0.9881 10.175,-0.25237 41.9,-0.71654 70.5,-1.03148 28.6,-0.31494 56.95,-0.76476 63,-0.99961 6.05,-0.23485 38.675,-0.6979 72.5,-1.02899 33.825,-0.3311 63.075,-0.76249 65,-0.95865 1.925,-0.19616 17.225,-0.47658 34,-0.62316 16.775,-0.14658 33.1312,-0.51064 36.3471,-0.80902 l 5.8471,-0.54251 -4.7265,-3.3206 c -7.6898,-5.40246 -4.0673,-5.85484 5.515,-0.68872 8.6685,4.67347 12.4098,5.53489 13.3538,3.07473 0.3028,-0.78902 1.4433,-1.9124 2.5346,-2.4964 1.6001,-0.85635 2.547,-0.58811 4.8933,1.38618 l 2.9093,2.448 27.4131,-0.47222 c 15.0773,-0.25972 38.81668,-0.61515 52.75418,-0.78985 20.477,-0.25666 25.5126,-0.5886 26.2347,-1.72937 0.4915,-0.77646 0.905,-9.73675 0.9188,-19.91175 0.014,-10.175 0.4541,-38.75 0.9783,-63.5 0.5242,-24.75 1.4612,-72.36878 2.0822,-105.81951 1.2842,-69.16825 2.1857,-61.31646 -7.9301,-69.06387 -11.6906,-8.95356 -15.9933,-11.76399 -25.1249,-16.41106 -21.13138,-10.7538 -38.99998,-22.04804 -38.99998,-24.65081 0,-2.48287 8.3554,-8.2166 14,-9.60723 3.025,-0.74525 5.8794,-1.24935 6.3431,-1.12022 3.30878,0.92138 9.22518,-3.31396 21.36388,-15.29348 7.2638,-7.1686 15.2945,-14.60882 17.8459,-16.53382 2.5515,-1.925 5.7068,-5.1562 7.0117,-7.18045 1.305,-2.02425 3.5413,-4.76404 4.9695,-6.08841 3.2028,-2.96972 4.1214,-10.28792 4.3599,-34.73114 0.2388,-24.47277 1.6458,-44.59754 3.1845,-45.5485 0.5068,-0.31324 0.9276,0.91952 0.935,2.73948 0.2418,59.05254 0.9603,77.99745 3.3682,88.80902 0.3062,1.375 1.6891,7.675 3.0729,14 3.4647,15.83564 3.3993,15.65529 11.7898,32.5 4.1094,8.25 10.7506,21.75 14.7583,30 11.9109,24.51905 16.5958,32.11385 34.4402,55.83235 2.4134,3.20779 7.2385,8.8755 10.7225,12.59492 20.0544,21.40939 26.6332,30.28527 30.3656,40.96845 2.8773,8.23532 2.9244,12.40589 0.1461,12.9331 -1.9029,0.36108 -4.9466,-2.56084 -15.9678,-15.32882 -3.3234,-3.85 -10.58,-11.20213 -16.1259,-16.33806 -5.5459,-5.13593 -13.2513,-12.88798 -17.1231,-17.22678 -4.1966,-4.70276 -11.0623,-10.73905 -17,-14.9464 -5.4782,-3.88167 -12.6603,-9.68961 -15.9603,-12.90649 C 1072.3909,361.74844 1059.5043,350 1058.6281,350 c -1.0336,0 -2.0755,11.46885 -1.8624,20.5 0.078,3.3 -0.2315,55.68447 -0.6876,116.40994 l -0.8292,110.40994 38.8972,-0.66934 c 21.3935,-0.36814 51.1598,-0.96064 66.1473,-1.31666 20.6556,-0.49067 27.25,-0.3614 27.25,0.53415 0,0.64981 -1.1112,1.60397 -2.4694,2.12035 -1.3582,0.51638 -22.1707,1.22315 -46.25,1.57058 -24.0793,0.34744 -45.1306,0.78344 -46.7806,0.96889 -1.65,0.18544 -10.4843,0.36754 -19.6317,0.40466 l -16.6317,0.0675 -0.6001,8.25 c -0.33,4.5375 -0.6296,45.6 -0.6657,91.25 -0.036,45.65 -0.093,83.675 -0.1254,84.5 -0.033,0.825 -0.1889,11.4 -0.3468,23.5 -0.158,12.1 -0.5529,38.875 -0.8775,59.5 -0.3247,20.625 -0.8827,94.2 -1.2401,163.49999 -0.3573,69.3 -0.7798,126.675 -0.9388,127.5 -0.159,0.825 -0.3305,5.325 -0.381,10 -0.051,4.675 -0.5349,9.175 -1.0765,10 -2.5335,3.8593 -2.9662,-2.153 -2.519,-35 0.2508,-18.425 0.7078,-80.075 1.0156,-137 0.3077,-56.92499 0.8035,-119.58749 1.1018,-139.24999 0.3779,-24.91256 0.2201,-35.75 -0.5204,-35.75 -0.6262,0 -1.0658,2.36199 -1.0703,5.75 -0.01,6.70952 -1.66,113.84365 -2.4389,158.25 -0.7121,40.59309 -1.436,86.58879 -2.0537,130.49999 -1.2843,91.2802 -1.5628,107.7444 -2.0046,118.5 -0.2598,6.325 -0.7659,36.4282 -1.1247,66.8961 -0.5273,44.7766 -0.4078,55.245 0.6229,54.608 1.3455,-0.8316 1.2732,-0.059 -0.8883,9.4959 -0.5599,2.475 -1.0519,11.025 -1.0934,19 -0.054,10.4128 -0.4498,14.9933 -1.4037,16.25 -1.6793,2.2121 -2.3292,2.2039 -3.0409,-0.039 z m 15.2793,-604.9614 -0.1536,-15.75 -0.7875,11.5 c -0.702,10.25014 -0.3567,20 0.7082,20 0.2126,0 0.3174,-7.0875 0.2329,-15.75 z m -0.2422,-24.97917 c -0.3323,-0.33229 -0.5687,0.25834 -0.5253,1.3125 0.048,1.16495 0.285,1.4019 0.6042,0.60417 0.2889,-0.72187 0.2534,-1.58438 -0.079,-1.91667 z m 1.2996,-49.46596 c 0.1361,-26.00922 0.05,-47.06795 -0.191,-46.79718 -0.8466,0.95054 -1.7511,95.134 -0.9086,94.61331 0.4687,-0.28965 0.9635,-21.80692 1.0996,-47.81613 z m 0.7004,-76.53404 c -0.3323,-0.33229 -0.5687,0.25834 -0.5253,1.3125 0.048,1.16495 0.285,1.4019 0.6042,0.60417 0.2889,-0.72187 0.2534,-1.58438 -0.079,-1.91667 z m 0,-4 c -0.3323,-0.33229 -0.5687,0.25834 -0.5253,1.3125 0.048,1.16495 0.285,1.4019 0.6042,0.60417 0.2889,-0.72187 0.2534,-1.58438 -0.079,-1.91667 z m 0.052,-25.53986 c -0.2739,-0.67703 -0.4813,0.11903 -0.461,1.76903 0.02,1.65 0.2445,2.20394 0.4981,1.23097 0.2535,-0.97297 0.2369,-2.32297 -0.037,-3 z m 0.01,-4.98097 c -0.2774,-0.6875 -0.5044,-0.125 -0.5044,1.25 0,1.375 0.227,1.9375 0.5044,1.25 0.2774,-0.6875 0.2774,-1.8125 0,-2.5 z M 1162.569,437.05504 c -2.1824,-5.53668 -8.177,-14.90609 -12.1917,-19.05504 -1.3305,-1.375 -4.8647,-5.425 -7.8538,-9 -2.9891,-3.575 -8.1619,-9.425 -11.495,-13 -8.679,-9.30854 -25.0832,-31.67756 -30.6733,-41.82627 -5.4749,-9.93965 -25.8581,-51.05501 -32.3104,-65.17373 -2.3878,-5.225 -5.3891,-14 -6.6695,-19.5 l -2.328,-10 -0.6511,5.5 c -0.3581,3.025 -0.6956,21.72489 -0.75,41.55532 l -0.099,36.05532 11.75,11.27323 c 20.9328,20.08342 22.6863,21.70908 27.25,25.2626 2.475,1.92717 7.2,5.32563 10.5,7.55212 3.3,2.2265 8.7504,7.14265 12.112,10.92479 3.3616,3.78214 8.3103,8.90162 10.9971,11.37662 8.1411,7.49932 23.5878,23.2872 28.8395,29.4765 2.7217,3.20763 5.1015,5.3732 5.2884,4.81238 0.187,-0.56082 -0.5849,-3.36604 -1.7153,-6.23384 z M 1052.4009,307 c 0.07,-9.075 0.3836,-26.85 0.6966,-39.5 l 0.5692,-23 -5.3117,5.71658 c -2.9214,3.14411 -7.1116,7.09147 -9.3116,8.77191 -5.8017,4.43154 -16.8977,14.57397 -23.6726,21.63833 -6.1282,6.39001 -6.6096,6.61383 -20.32738,9.45219 -5.6612,1.17136 -12.0591,5.20728 -10.992,6.9339 1.2603,2.03928 18.61598,12.49589 29.99198,18.06986 12.7669,6.25548 20.5677,11.11942 31.5,19.6409 l 5.5,4.28712 0.615,-7.7554 c 0.3383,-4.26546 0.6724,-15.18039 0.7425,-24.25539 z m 28.7774,1098.9274 c -5.1848,-4.0783 -2.3143,-15.7488 4.454,-18.1082 3.4839,-1.2145 3.4841,-1.1868 -0.1544,-18.5518 -2.3735,-11.3278 -2.4764,-15.8455 -0.379,-16.6503 4.2816,-1.643 10.1992,12.2363 7.6255,17.8849 -0.626,1.3739 -1.8531,2.498 -2.7269,2.498 -1.041,0 -1.4129,0.6035 -1.0784,1.75 0.2807,0.9625 0.8026,4 1.1597,6.75 0.4796,3.6936 1.3437,5.5866 3.3069,7.245 2.5609,2.1633 2.5782,2.2452 0.4751,2.25 -2.3124,0.01 -2.7713,0.9316 -3.8273,7.7256 -0.6215,3.9988 -3.7103,9.2794 -5.4278,9.2794 -0.4359,0 -1.9783,-0.9327 -3.4274,-2.0726 z m 5.2032,-4.6774 c 1.7397,-4.427 2.5095,-10.25 1.355,-10.25 -2.3671,0 -4.3551,1.4126 -5.7301,4.0715 -1.7762,3.4349 -1.8677,6.1238 -0.263,7.7285 1.9224,1.9224 3.4778,1.4026 4.6381,-1.55 z m 4.3174,-33 c 0.4623,-5.2021 -2.4663,-13.3609 -4.1692,-11.6149 -0.7456,0.7644 0.2339,8.751 1.4857,12.1149 0.6896,1.8529 2.5045,1.5147 2.6835,-0.5 z m -32.9732,17.028 c -3.4839,-6.7476 -5.1517,-33.2054 -2.3971,-38.028 1.9564,-3.4251 5.0592,-2.8665 6.7658,1.2179 1.9729,4.7217 1.823,9.2175 -0.6467,19.3954 -1.2826,5.2857 -1.9204,10.4913 -1.6439,13.4166 0.4764,5.0406 -0.535,6.9866 -2.0781,3.9981 z m 2.3691,-22.4246 c 2.2695,-8.5266 1.7655,-14.8534 -1.1831,-14.8534 -1.7824,0 -3.3683,4.0596 -3.3683,8.6223 0,3.8174 1.9931,12.7179 2.6916,12.0194 0.2392,-0.2391 1.0761,-2.8439 1.8598,-5.7883 z m 5.7937,16.6035 c -0.7721,-2.012 0.5199,-3.2933 1.5843,-1.5712 1.1708,1.8945 1.9764,0 1.0158,-2.3857 -0.4619,-1.1482 -0.8346,-1.3966 -0.8749,-0.5833 -0.039,0.7791 -0.3249,1.1621 -0.636,0.8509 -1.1256,-1.1255 1.674,-8.7301 3.749,-10.1834 4.4962,-3.1493 7.4856,1.463 5.2013,8.0249 -1.7275,4.9623 -1.7136,5.3909 0.1744,5.3909 0.8575,0 1.2809,0.45 0.941,1 -1.046,1.6924 -10.4732,1.2334 -11.1549,-0.5431 z m 7.6197,-5.3912 c 1.6816,-3.142 1.3022,-6.263 -0.7148,-5.8807 -1.223,0.2318 -1.8435,1.4584 -2.0604,4.0733 -0.3346,4.0338 1.0879,4.9602 2.7752,1.8074 z m 14.3548,-529.27332 c -0.5477,-0.71081 -2.6862,-4.12141 -4.7524,-7.57911 -2.6704,-4.46887 -4.8136,-6.78441 -7.4119,-8.00787 -4.881,-2.29826 -4.7288,-4.78488 0.5387,-8.80253 2.3067,-1.75938 4.7012,-3.36794 5.3211,-3.57456 0.7577,-0.25256 0.3405,-2.47872 -1.2728,-6.79268 -5.3562,-14.32248 -9.6003,-9.19641 -9.6987,11.71437 -0.036,7.6069 0.2249,9.25 1.4682,9.25 1.2141,0 1.3836,0.83706 0.8609,4.25 -0.8127,5.30548 -1.0206,5.53048 -3.1465,3.40577 -1.4672,-1.4663 -1.7262,-3.7833 -1.7262,-15.44048 0,-21.69683 1.9025,-30.19 6.1914,-27.64 3.3025,1.9635 8.2452,10.49996 10.8655,18.76555 3.168,9.99315 6.1516,29.35067 4.7413,30.76101 -0.6439,0.64388 -1.3264,0.53714 -1.9786,-0.30947 z m -2.5024,-15.65841 c -1.2422,-8.36944 -2.716,-9.68968 -6.5439,-5.86185 l -2.5528,2.5528 4.8702,5.52382 c 2.6785,3.0381 4.969,5.42488 5.0899,5.30395 0.121,-0.12094 -0.2676,-3.50436 -0.8634,-7.51872 z m 1.1828,-29.11802 c 0,-0.69565 -0.7909,-0.89969 -2,-0.51595 -1.1473,0.36414 -2,0.1797 -2,-0.43261 0,-0.58707 -0.7171,-1.06739 -1.5936,-1.06739 -0.8765,0 -1.829,-0.9 -2.1167,-2 -0.2876,-1.1 -1.1613,-2 -1.9415,-2 -1.1063,0 -1.1841,-0.43804 -0.3535,-1.99005 1.2659,-2.36533 2.8283,-2.22529 5.1058,0.45762 1.4225,1.67569 1.9098,1.76878 3.2849,0.62755 1.4275,-1.18474 1.6146,-0.9782 1.6146,1.78244 0,2.18187 0.4769,3.12244 1.5833,3.12244 0.8709,0 1.4052,0.53437 1.1875,1.1875 -0.5342,1.60279 -2.7708,2.2715 -2.7708,0.82845 z m -29,-5.10739 c -1.121,-0.79279 -1.1862,-1.1883 -0.258,-1.56536 0.8836,-0.35895 0.9568,-1.03748 0.2536,-2.35143 -1.3332,-2.49114 -0.2286,-4.99177 2.205,-4.99177 1.1418,0 2.2078,-0.84563 2.5067,-1.98855 0.4427,-1.6932 0.7971,-1.44489 2.3862,1.67186 2.0475,4.01612 1.2404,6.31669 -2.2159,6.31669 -1.2109,0 -1.8776,0.71014 -1.8776,2 0,2.23675 -0.7855,2.47465 -3,0.90856 z M 151.54342,686.82461 c -3.70672,-1.05377 -7,-3.46944 -7,-5.13459 0,-0.55 0.7875,-0.32936 1.75,0.4903 0.9625,0.81966 3.325,2.08653 5.25,2.81526 3.58177,1.35593 6.21752,3.08203 4.45,2.91423 -0.5225,-0.0496 -2.525,-0.53794 -4.45,-1.0852 z M 177.58136,686.25 c 0.054,-1.06809 11.0029,-8.5425 11.61574,-7.92966 0.99296,0.99297 -1.82885,4.81566 -4.9675,6.72943 -3.20919,1.95678 -6.71856,2.59034 -6.64824,1.20023 z M 133.30799,676 c -0.76975,-1.59115 -1.18705,-8.18931 -0.88543,-14 0.14939,-2.87801 0.3615,-3.19135 1.19357,-1.7632 0.55654,0.95524 0.87816,5.23024 0.71471,9.5 -0.16346,4.26976 -0.62374,7.0882 -1.02285,6.2632 z m 61.94494,-9.62382 c -0.7968,-0.7968 2.64693,-7.59718 4.7174,-9.31552 1.34539,-1.11657 1.57309,-1.00324 1.57309,0.78297 0,4.86951 -4.224,10.59903 -6.29049,8.53255 z m 8.34004,-20.81647 c -0.87358,-1.0526 -0.90879,-2.86949 -0.13656,-7.04686 1.32018,-7.14149 2.16282,-8.54021 3.29735,-5.4733 0.95378,2.57832 0.0424,12.68624 -1.21391,13.46265 -0.4234,0.26168 -1.29949,-0.16244 -1.94688,-0.94249 z m -68.02581,-4.2722 c -0.0131,-1.21687 0.90859,-4.70437 2.04811,-7.75 1.52866,-4.08571 2.57736,-5.53751 4,-5.53751 2.31637,0 2.46978,0.88191 0.41572,2.38976 -0.83183,0.61063 -2.62115,3.81024 -3.97626,7.11024 -1.44245,3.51268 -2.47368,5.08281 -2.48757,3.78751 z m 63.96588,-18.30209 c -3.01489,-4.23403 -2.00246,-6.18133 1.33914,-2.57569 2.66294,2.87336 3.50827,5.59027 1.73933,5.59027 -0.51254,0 -1.89786,-1.35656 -3.07847,-3.01458 z m -57.98962,1.22773 c 0,-1.68154 9.10743,-9.21315 11.14079,-9.21315 2.83422,0 2.22454,1.44279 -1.39079,3.29127 -1.7875,0.91393 -4.7125,2.85495 -6.5,4.31337 -1.7875,1.45842 -3.25,2.18225 -3.25,1.60851 z M 0.29342052,614.33772 c 0.6875,-0.27741 1.81249998,-0.27741 2.49999998,0 0.6875,0.27741 0.125,0.50439 -1.25,0.50439 -1.37499998,0 -1.93749998,-0.22698 -1.24999998,-0.50439 z M 23.274391,613.34406 c 0.67703,-0.27392 2.02703,-0.29059 3,-0.0371 0.97297,0.25354 0.41903,0.47766 -1.23097,0.49804 -1.65,0.0204 -2.44606,-0.18706 -1.76903,-0.46099 z m 5.53986,0.0518 c 0.33229,-0.33229 1.19479,-0.36781 1.91667,-0.0789 0.79773,0.31922 0.56078,0.55618 -0.60417,0.60416 -1.05416,0.0434 -1.64479,-0.19293 -1.3125,-0.52522 z m 9.96751,-0.0829 c 0.95609,-0.25029 2.75609,-0.25937 4,-0.0202 1.24391,0.23919 0.46166,0.44398 -1.73834,0.45508 -2.2,0.0111 -3.21775,-0.18461 -2.26166,-0.4349 z M 169.32336,591.89061 c -1.25397,-1.71022 -3.40494,-3.54518 -4.77994,-4.07771 l -2.5,-0.96826 2.27295,-1.85119 2.27295,-1.8512 -2.07355,-5.32113 c -1.14046,-2.92661 -2.33391,-8.49335 -2.65212,-12.37052 -0.47789,-5.82272 -0.28264,-7.34533 1.12203,-8.75 3.91825,-3.91825 11.2443,-0.0278 13.38171,7.10619 2.05095,6.84546 1.50115,12.40815 -1.69703,17.17014 -1.65931,2.47065 -2.66445,5.07563 -2.37926,6.16621 0.45706,1.74778 0.66735,1.70108 2.82532,-0.6274 2.81867,-3.0414 4.87505,-3.14962 9.2432,-0.48644 4.02292,2.45269 4.01162,5.66099 -0.0279,7.92098 -2.25696,1.26269 -3.26277,1.3091 -5.99778,0.27675 -2.11357,-0.79778 -3.40581,-0.88117 -3.62163,-0.23369 -0.64821,1.94462 -3.13186,0.9755 -5.38895,-2.10277 z M 182.54342,590 c 0,-0.55 -0.675,-1 -1.5,-1 -0.825,0 -1.5,0.45 -1.5,1 0,0.55 0.675,1 1.5,1 0.825,0 1.5,-0.45 1.5,-1 z m -8.84631,-16.11863 c 2.5202,-8.4117 -5.15527,-21.26782 -8.08964,-13.54984 -0.90915,2.39124 0.59221,11.43443 2.82687,17.02716 0.94774,2.37195 1.39402,2.64972 2.62105,1.63137 0.81336,-0.67502 2.00213,-2.97393 2.64172,-5.10869 z m 1015.72739,13.11192 c -2.0776,-1.21393 -3.2948,-4.38882 -5.9399,-15.49329 -1.1791,-4.95 -2.5067,-10.48835 -2.9502,-12.30745 -0.7229,-2.96545 -0.5975,-3.27566 1.2131,-3 1.5345,0.23363 2.5328,1.94633 4.1577,7.13293 1.8548,5.92089 4.7698,9.87624 6.2141,8.43194 0.2343,-0.23425 -0.07,-4.11189 -0.6764,-8.61697 -0.8597,-6.3876 -0.8285,-8.52109 0.1416,-9.68993 0.6841,-0.82437 1.4176,-1.32519 1.6298,-1.11293 0.2123,0.21226 1.2449,4.821 2.2947,10.24165 1.1266,5.81681 2.535,10.31361 3.4368,10.97305 1.1375,0.83175 1.2387,1.40663 0.396,2.24934 -0.8427,0.84271 -0.6661,2.16542 0.6912,5.1754 1.0029,2.22385 1.5473,4.31936 1.21,4.6567 -1.4225,1.42251 -3.9645,-0.94699 -6.0095,-5.60178 -1.4989,-3.41158 -2.784,-4.99225 -4.0718,-5.00838 -1.6372,-0.0205 -1.808,0.52573 -1.3145,4.20493 0.312,2.32567 1.0462,4.38817 1.6317,4.58333 1.1954,0.39848 1.4834,4.20515 0.3145,4.15776 -0.4125,-0.0167 -1.4785,-0.45606 -2.3689,-0.9763 z M 1165.7338,577.75 c -9.2654,-22.41992 -9.7159,-23.89256 -7.7493,-25.3306 2.8759,-2.1029 11.8169,-3.64087 14.6303,-2.51662 2.2792,0.91076 2.2133,0.97469 -1.0714,1.03941 -1.925,0.0379 -5.2368,0.55122 -7.3595,1.14064 -3.5929,0.99761 -3.8185,1.27706 -3.2652,4.04362 0.3269,1.63457 2.0637,4.7719 3.8595,6.97184 3.1757,3.89021 3.4023,3.98559 8.2652,3.47845 4.8995,-0.51096 4.9397,-0.49334 2,0.87664 -1.65,0.76895 -3.772,1.63644 -4.7156,1.92776 -1.5838,0.489 -1.6009,0.89794 -0.2226,5.32427 2.8366,9.10987 2.9121,10.29459 0.6565,10.29459 -1.5799,0 -2.6979,-1.61214 -5.0279,-7.25 z m -271.97678,-0.0169 c -7.8418,-6.66881 -15.2793,-15.39828 -14.6085,-17.14625 0.3349,-0.87287 3.9483,2.17978 10.2067,8.62274 9.5306,9.81168 11.7716,12.54031 10.9634,13.34851 -0.2244,0.22444 -3.1771,-1.94681 -6.5616,-4.825 z m 31.4937,-3.74873 c -6.9527,-5.46899 -5.4268,-22.49245 2.3779,-26.52841 10.3649,-5.35991 19.0194,5.08325 14.3667,17.336 -3.6932,9.72597 -10.9805,13.72652 -16.7446,9.19241 z m 9.5996,-3.77096 c 3.6716,-4.05712 5.7098,-12.40039 4.0719,-16.6686 -0.3416,-0.89032 -1.9509,-2.30641 -3.5762,-3.14687 -2.6745,-1.38302 -3.1925,-1.37245 -5.4572,0.11143 -1.3762,0.90173 -2.2808,2.21669 -2.0101,2.92213 0.2707,0.70544 -0.3528,2.57071 -1.3855,4.14504 -2.3736,3.6184 -1.6807,6.8808 2.3733,11.17347 3.5647,3.77465 3.8328,3.84021 5.9838,1.4634 z m 16.0838,3.2602 c -1.2351,-1.88503 -1.4965,-3.72555 -1.0296,-7.25 0.5652,-4.26596 0.5025,-4.48139 -0.6472,-2.2236 -1.4239,2.79634 -5.0175,3.37743 -5.4968,0.88882 -0.5189,-2.69423 6.024,-10.38882 8.8338,-10.38882 2.4279,0 2.4473,0.0759 2.2437,8.75 -0.1982,8.44881 -0.1285,8.75 2.0275,8.75 3.4333,0 6.2046,-2.45929 10.2199,-9.06907 2.0207,-3.32652 3.9108,-5.81148 4.2001,-5.52213 1.2721,1.27209 -4.1854,12.77324 -7.4007,15.59635 -4.5561,4.00024 -10.4958,4.21509 -12.9507,0.46845 z m -80.4009,-30.76908 c -4.7496,-7.29922 -7.7301,-17.45273 -6.0466,-20.59838 1.7004,-3.1772 2.8149,-2.53984 2.8744,1.64386 0.029,2.0625 1.2403,7.50462 2.691,12.09359 2.7588,8.7271 2.8872,10.55854 0.4812,6.86093 z M 859.23762,505.25 c -0.2331,-0.4125 -1.6322,-4.8 -3.1092,-9.75 -1.477,-4.95 -3.1471,-10.10887 -3.7114,-11.46415 -2.3875,-5.73463 -2.2428,-25.03585 0.1877,-25.03585 0.5163,0 0.9494,3.9375 0.9626,8.75 0.013,4.8125 0.4681,10.55 1.0112,12.75 2.2533,9.12899 5.733,25.5 5.42,25.5 -0.1854,0 -0.5278,-0.3375 -0.7609,-0.75 z m -10.6388,-72.44895 c -0.6468,-1.81558 -1.4186,-8.02605 -1.7153,-13.80105 -0.423,-8.23368 -0.2287,-10.90821 0.9001,-12.39125 1.2802,-1.68195 1.5158,-0.20038 2.129,13.38735 0.3792,8.40323 0.5033,15.46477 0.2757,15.6923 -0.2275,0.22753 -0.9428,-1.07178 -1.5895,-2.88735 z M 217.54342,427 c 0,-0.55 0.19844,-1 0.44098,-1 0.24254,0 0.7191,0.45 1.05902,1 0.33992,0.55 0.14148,1 -0.44098,1 -0.58246,0 -1.05902,-0.45 -1.05902,-1 z m 548.1579,-1 c 0,-1.375 0.227,-1.9375 0.5044,-1.25 0.2774,0.6875 0.2774,1.8125 0,2.5 -0.2774,0.6875 -0.5044,0.125 -0.5044,-1.25 z m 82.9055,-42.90678 c -0.1166,-4.42544 4.1559,-25.5755 5.4434,-26.94629 1.0355,-1.10262 1.1819,-0.45481 0.7905,3.5 -0.5479,5.5359 -3.663,19.62256 -5.1644,23.35307 l -1.0061,2.5 -0.063,-2.40678 z m -161.0099,-43.99326 c -0.76065,-1.42129 -0.66196,-2.03623 0.3917,-2.44056 1.68843,-0.64791 3.99493,1.81944 3.08187,3.2968 -0.98182,1.58862 -2.34495,1.2526 -3.47357,-0.85624 z m 171.3466,-3.70081 c 1.2726,-5.33393 9.5699,-20.99653 12.6954,-23.96501 2.7477,-2.60957 2.3011,-1.36205 -4.0366,11.27755 -7.1017,14.16338 -10.0373,18.46487 -8.6588,12.68746 z M 882.54422,288.95 c 0,-4.15609 13.0696,-26.95 15.45,-26.95 2.1015,0 2.607,1.27722 1.1554,2.91885 -0.769,0.86963 -4.4074,6.53115 -8.0852,12.58115 -7.3306,12.05867 -8.5214,13.65895 -8.5202,11.45 z m 24.0263,-37.24966 c -0.059,-1.73925 3.1451,-6.74492 8.4942,-13.27073 3.0877,-3.76697 6.0056,-7.54216 6.4841,-8.38932 0.6651,-1.17747 1.1485,-1.26469 2.0523,-0.37029 0.9075,0.89803 0.1219,2.52525 -3.3792,7 -5.9509,7.60567 -13.6171,16.04623 -13.6514,15.03034 z m 164.77468,-20.43963 c -1.9463,-0.444 -3.4185,-7.66747 -2.3944,-11.7479 0.9183,-3.65875 4.487,-3.24875 8.5926,0.98719 1.8658,1.925 4.1506,3.5 5.0775,3.5 2.246,0 3.9225,-6.78859 3.9225,-15.8838 0,-3.84899 0.4508,-7.2768 1.0019,-7.61736 3.3754,-2.08614 3.9541,18.86696 0.6599,23.89455 -1.9835,3.02729 -5.9821,3.47143 -9.441,1.04868 -2.8145,-1.97129 -4.2208,-1.11899 -4.2208,2.55793 0,3.1757 -0.6529,3.84137 -3.1982,3.26071 z m -144.53098,-3.86488 c 0.3323,-0.33229 1.1948,-0.36781 1.9167,-0.0789 0.7977,0.31922 0.5608,0.55618 -0.6042,0.60416 -1.0541,0.0434 -1.6448,-0.19293 -1.3125,-0.52522 z"
     id="path3212"
     style="fill:#000000" />
</svg>
