<?xml version="1.0" encoding="UTF-8" standalone="no"?>
<!-- Created with Inkscape (http://www.inkscape.org/) -->

<svg
   xmlns:dc="http://purl.org/dc/elements/1.1/"
   xmlns:cc="http://creativecommons.org/ns#"
   xmlns:rdf="http://www.w3.org/1999/02/22-rdf-syntax-ns#"
   xmlns:svg="http://www.w3.org/2000/svg"
   xmlns="http://www.w3.org/2000/svg"
   version="1.1"
   width="1229.5742"
   height="1549"
   id="svg2">
  <metadata
     id="metadata8">
    <rdf:RDF>
      <cc:Work
         rdf:about="">
        <dc:format>image/svg+xml</dc:format>
        <dc:type
           rdf:resource="http://purl.org/dc/dcmitype/StillImage" />
        <dc:title></dc:title>
      </cc:Work>
    </rdf:RDF>
  </metadata>
  <defs
     id="defs6" />
  <path
     d="m 687.63326,1547.5548 c 0.6597,-0.7949 3.5273,-2.2027 6.3725,-3.1285 2.8451,-0.9258 5.848,-2.2311 6.673,-2.9007 0.825,-0.6696 3.6375,-2.227 6.25,-3.4608 2.6125,-1.2337 4.75,-2.6796 4.75,-3.213 0,-0.5334 0.3446,-0.7569 0.7658,-0.4966 0.4212,0.2604 3.2192,-0.1631 6.2179,-0.9409 2.9987,-0.7779 9.7606,-1.4143 15.0266,-1.4143 6.0317,0 14.3095,-0.9095 22.3715,-2.4581 7.2443,-1.3914 14.6025,-2.2471 16.9577,-1.9719 2.2883,0.2674 7.7605,0.9086 12.1605,1.4249 4.4,0.5164 12.5,0.8623 18,0.7687 5.5,-0.094 13.8756,0.4345 18.6124,1.1736 6.9256,1.0807 12.3114,1.1265 27.5,0.2341 41.5406,-2.4407 48.7925,-2.5297 54.3997,-0.6673 3.8219,1.2694 6.8019,1.555 11.3364,1.0862 3.3833,-0.3497 10.4265,-0.9993 15.6515,-1.4435 6.5009,-0.5527 11.3942,-1.6124 15.5,-3.3567 3.3,-1.4019 7.125,-2.8875 8.5,-3.3014 1.375,-0.4138 4.8245,-2.2866 7.6657,-4.1618 2.8411,-1.8751 7.7911,-4.4606 11,-5.7455 11.1536,-4.466 15.3343,-6.5161 15.3343,-7.5194 0,-1.6185 8.6588,-9.821 11.1898,-10.6 1.27064,-0.3911 4.86434,-3.1301 7.98604,-6.0865 3.1216,-2.9565 6.1573,-5.3754 6.7458,-5.3754 0.5886,0 4.2574,-2.925 8.153,-6.5 3.8956,-3.575 7.6699,-6.5 8.3873,-6.5 2.0077,0 16.8954,-14.8256 21.088,-21 12.5644,-18.5037 17.5927,-31.6508 18.9453,-49.5353 0.2482,-3.2806 0.8914,-10.0147 1.4294,-14.9647 1.8472,-16.9953 2.0081,-19.0356 2.6419,-33.5 0.4886,-11.1526 0.2519,-16.924 -1.0255,-25 -0.9135,-5.775 -2.0301,-14.1 -2.4815,-18.5 -0.7896,-7.6975 -1.5035,-10.1239 -4.5466,-15.4544 -5.5292,-9.6855 -3.6848,-48.6435 3.6003,-76.0456 3.1259,-11.7576 7.7879,-35.9899 9.4269,-49 0.3811,-3.025 2.0123,-11.575 3.6248,-19 3.7282,-17.1664 4.8221,-23.5655 4.8293,-28.25 0,-3.1863 -0.3324,-3.7692 -2.2442,-3.8776 -3.7419,-0.2123 -6.1273,-0.5318 -12.8344,-1.7194 -3.5286,-0.6248 -10.2406,-1.6184 -14.9156,-2.2081 -4.675,-0.5896 -9.85,-1.26 -11.5,-1.4898 -4.7381,-0.6596 -18.6067,-2.5001 -23,-3.0523 -11.8169,-1.4854 -26.09534,-3.6535 -26.75914,-4.0634 -0.4175,-0.2578 -3.2635,-0.6307 -6.3243,-0.8287 -11.0086,-0.7121 -26.5238,-3.5282 -25.8092,-4.6845 0.2809,-0.4544 1.4966,-0.8784 2.7016,-0.9422 1.6918,-0.09 1.7923,-0.2202 0.441,-0.5733 -0.9625,-0.2516 -1.75,-0.8602 -1.75,-1.3526 0,-1.0617 3.2227,-0.017 4.1338,1.34 0.3486,0.5192 2.8453,1.0318 5.5482,1.1392 2.7029,0.1074 5.4078,0.5002 6.0108,0.8728 0.603,0.3727 3.7181,0.8655 6.9223,1.0952 3.2042,0.2296 5.9673,0.8419 6.1402,1.3607 0.173,0.5188 1.4163,0.7327 2.7629,0.4753 1.3466,-0.2575 3.24344,-0.1275 4.21514,0.2888 0.9717,0.4162 3.3417,0.8838 5.2667,1.039 1.925,0.1553 5.3,0.5363 7.5,0.8468 2.2,0.3104 6.25,0.8192 9,1.1305 2.75,0.3114 6.35,0.7423 8,0.9577 1.65,0.2153 7.0169,0.8875 11.9265,1.4937 4.9095,0.6063 9.2624,1.3099 9.6729,1.5636 0.8947,0.553 9.3874,1.6398 12.9006,1.6509 1.375,0 2.95,0.2996 3.5,0.6561 0.55,0.3565 5.05,0.6444 10,0.6399 l 9,-0.01 -0.3096,-3 c -0.4752,-4.605 -7.9006,-16.1026 -13.4295,-20.7943 -7.0598,-5.9908 -9.3243,-8.3672 -14.9661,-15.7057 -4.7312,-6.1542 -4.9747,-6.766 -4.5755,-11.5 0.2348,-2.7848 2.0153,-8.5443 4.0189,-13 4.1339,-9.1932 8.3513,-29.8587 10.204,-50 3.8167,-41.49171 5.5525,-62.55815 6.0561,-73.5 0.782,-16.99072 2.5416,-26.65449 7.2151,-39.62662 0.2232,-0.61964 -0.6335,-1.38393 -1.9038,-1.69841 -2.7182,-0.67293 -27.8738,-4.29718 -35.8096,-5.1592 -3.025,-0.32859 -7.75,-1.00794 -10.5,-1.50966 -2.75,-0.50173 -8.9087,-1.20917 -13.6859,-1.57211 -8.2827,-0.62924 -8.6622,-0.56924 -8.1754,1.29244 0.6994,2.67431 -2.5912,13.72111 -3.7438,12.56849 -1.1018,-1.10187 0.042,-13.29493 1.2476,-13.29493 0.4716,0 0.8575,-0.36044 0.8575,-0.80098 0,-0.9827 -12.33864,-3.23025 -20.50004,-3.73421 -3.3,-0.20377 -8.8079,-0.75858 -12.2399,-1.23292 -6.7043,-0.92663 -7.54,-0.72205 -8.5836,2.10127 -0.8826,2.38782 -2.8505,1.6876 -4.4449,-1.58159 -1.31,-2.68588 -2.5519,-3.13083 -11.9816,-4.29249 -4.0463,-0.49846 -5.2535,-0.33863 -5.2653,0.69708 -0.012,1.07959 -0.1904,1.06727 -0.9057,-0.0626 -0.8102,-1.27979 -13.0799,-4.00216 -20.579,-4.56604 -1.65,-0.12407 -3.225,-0.33309 -3.5,-0.46449 -0.275,-0.1314 -2.75,-0.43209 -5.5,-0.6682 -2.75,-0.2361 -10.175,-1.10856 -16.5,-1.9388 -21.0104,-2.75788 -45.4283,-5.36107 -45.8963,-4.89302 -0.5482,0.54818 -1.683,43.41294 -2.5133,94.93701 -0.328,20.35 -1.1049,57.87778 -1.7266,83.39518 l -1.1303,46.3951 2.1624,1.6311 c 1.1893,0.8972 3.9134,1.6078 6.0536,1.5793 2.1401,-0.029 3.7046,0.25 3.4766,0.6189 -0.228,0.369 0.2812,0.9378 1.1316,1.2642 1.0491,0.4025 1.307,0.1951 0.8023,-0.6453 -0.5269,-0.8772 -0.2677,-0.8525 0.8884,0.085 0.8978,0.7276 2.4467,1.2383 3.442,1.1348 3.3167,-0.3448 4.3096,0.029 4.3096,1.6217 0,1.1812 -0.6933,1.4495 -2.75,1.0643 -1.5125,-0.2833 -4.8165,-0.786 -7.3423,-1.1171 -2.5258,-0.3311 -5.6758,-0.7964 -7,-1.034 -1.3242,-0.2376 -2.9203,-0.1082 -3.5468,0.2877 -1.308,0.8264 -2.0698,18.5329 -2.8489,66.2196 -0.7855,48.0845 -1.8785,98.1557 -3.0122,138 -0.2739,9.625 -0.7352,27.625 -1.0252,40 -0.29,12.375 -0.7459,24.525 -1.0132,27 -0.2673,2.475 -0.7134,8.9417 -0.9914,14.3704 -0.278,5.4288 -0.9405,10.6038 -1.4724,11.5 -1.0981,1.8507 -0.257,-61.0376 1.5029,-112.3704 0.1886,-5.5 0.6279,-24.625 0.9763,-42.5 0.3483,-17.875 0.8136,-36.55 1.0338,-41.5 0.4155,-9.3379 1.0582,-33.021 2.0663,-76.1401 0.3232,-13.8271 0.2132,-25.3663 -0.2446,-25.6427 -0.4578,-0.2764 -3.0823,-0.7902 -5.8323,-1.1419 -8.8861,-1.1363 -11.4936,-1.7767 -10.9322,-2.6849 0.3026,-0.4897 0.047,-0.8904 -0.5678,-0.8904 -0.6149,0 -0.8354,-0.4573 -0.4899,-1.0163 0.3454,-0.559 1.0727,-0.7415 1.6161,-0.4057 2.1078,1.3027 15.6358,2.6161 16.276,1.5803 0.2688,-0.4349 0.7454,-9.536 1.0592,-20.2245 0.3138,-10.6886 0.7768,-23.7088 1.0289,-28.9338 0.6802,-14.096 1.7897,-94.96622 1.9071,-138.99998 l 0.1026,-38.5 -5,-0.75093 c -4.8822,-0.73324 -36.0473,-5.10762 -48,-6.73735 -3.3,-0.44995 -11.625,-1.53278 -18.5,-2.4063 -20.7729,-2.63935 -51.0161,-6.70547 -68.5,-9.20964 -6.05,-0.86653 -12.125,-1.73651 -13.5,-1.9333 -1.375,-0.19678 -9.925,-1.27385 -19,-2.39348 -9.075,-1.11964 -19.875,-2.49745 -24,-3.06181 -4.125,-0.56436 -14.475,-1.91408 -23,-2.99937 -8.525,-1.0853 -27.2,-3.57245 -41.5,-5.527 -14.3,-1.95456 -31.175,-4.19515 -37.5,-4.9791 -6.325,-0.78395 -19.825,-2.56259 -30,-3.95254 -10.175,-1.38995 -20.14556,-2.73803 -22.15681,-2.99574 -2.01124,-0.25771 -4.71124,-0.6896 -6,-0.95976 -1.28875,-0.27016 -5.04319,-0.73688 -8.34319,-1.03715 -3.3,-0.30027 -8.5291,-0.82484 -11.62023,-1.16572 -3.12932,-0.34509 -5.87507,-0.20743 -6.19523,0.3106 -0.53824,0.8709 -1.46757,42.67275 -2.17423,97.79859 -0.16921,13.2 -0.6226,47.1956 -1.00752,75.54577 -0.58042,42.74811 -0.46893,51.73741 0.65319,52.66871 0.74418,0.6176 4.95102,1.6172 9.34854,2.2214 4.39751,0.6041 9.12048,1.2812 10.49548,1.5046 1.375,0.2234 5.65,0.6851 9.5,1.0259 3.85,0.3407 9.475,0.8587 12.5,1.151 5.37454,0.5193 5.53021,0.4618 6.82425,-2.5214 0.72834,-1.679 1.03551,-3.9625 0.68261,-5.0744 -1.25595,-3.9571 1.28907,-1.9293 4.99314,3.9784 2.06905,3.3 4.04048,6.0036 4.38096,6.0081 0.34047,0 5.79404,0.6868 12.11904,1.5165 6.325,0.8297 13.3,1.7387 15.5,2.02 6.06754,0.776 31.61122,4.1692 44,5.8448 19.19388,2.5962 36.85036,4.839 41.5,5.2716 2.475,0.2302 11.7,1.4707 20.5,2.7566 14.1768,2.0716 16.1371,2.1666 17.2028,0.8336 1.0565,-1.3214 1.6649,-1.2303 5,0.7485 3.5423,2.1017 7.7986,2.8987 28.7972,5.3922 5.3986,0.6411 15.8219,2.1315 16.75,2.3951 0.4125,0.1171 1.3125,0.2333 2,0.2581 0.6875,0.025 -0.072,0.6092 -1.6879,1.2986 -2.7746,1.1839 -10.0383,0.8363 -17.5621,-0.8404 -1.375,-0.3064 -4.75,-0.7812 -7.5,-1.0551 -4.6906,-0.4671 -18.6443,-2.0331 -26.5,-2.9741 -9.5398,-1.1428 -37.96001,-5.0693 -43,-5.9409 -1.375,-0.2378 -5.2,-0.7005 -8.5,-1.0283 -3.3,-0.3278 -10.05,-1.2876 -15,-2.1329 -4.95,-0.8453 -12.04144,-1.7007 -15.75876,-1.9009 -3.71732,-0.2001 -7.09405,-0.5711 -7.50385,-0.8244 -0.40981,-0.2533 -6.69595,-1.1877 -13.96921,-2.0765 -7.27326,-0.8888 -13.79653,-1.7997 -14.49615,-2.0241 -0.69962,-0.2244 -4.64703,-0.6835 -8.77203,-1.0203 -11.76086,-0.9601 -30.78769,-3.394 -34.82761,-4.455 -2.01982,-0.5305 -6.48489,-1.2134 -9.92239,-1.5176 -15.29778,-1.354 -18.52842,-1.7037 -23.96915,-2.5948 -3.17947,-0.5208 -7.67296,-0.9494 -9.98554,-0.9526 -3.9774,-0.01 -4.23135,0.1699 -4.69807,3.2442 -0.27136,1.7875 -0.74559,16.3 -1.05385,32.25 -0.57947,29.9825 -1.26876,54.9425 -2.04357,74 -0.24598,6.05 -0.45906,14.0375 -0.47352,17.75 -0.0151,3.8818 -0.45752,6.75 -1.04114,6.75 -1.06372,0 -0.68953,-69.8439 0.60379,-112.6985 l 0.66993,-22.1984 -2.37944,-0.5818 c -2.22702,-0.5444 -17.42935,-2.7356 -41.87944,-6.0363 -12.19207,-1.6459 -36.13617,-5.1547 -40.5,-5.9349 -1.65,-0.295 -6.825,-0.9893 -11.5,-1.5429 -4.675,-0.5536 -10.3,-1.2196 -12.5,-1.48 -8.65337,-1.0243 -19.76336,-3.3906 -20.80378,-4.431 -1.56676,-1.5667 -0.61446,-1.491 17.80378,1.4163 1.1,0.1737 4.475,0.6217 7.5,0.9957 3.025,0.3739 6.625,0.8664 8,1.0944 1.375,0.228 4.525,0.5845 7,0.7921 8.61631,0.7229 32.52715,3.7336 36.5,4.5959 2.2,0.4774 6.7,1.1413 10,1.4753 3.3,0.3339 6.675,0.7985 7.5,1.0324 0.825,0.2338 5.1,0.881 9.5,1.438 4.4,0.5571 8.9,1.1988 10,1.4261 1.1,0.2272 4.92014,0.5762 8.48919,0.7754 l 6.48919,0.3622 0.64803,-5.5 c 0.35641,-3.025 0.93545,-25.74998 1.28675,-50.49998 1.43369,-101.00759 1.71516,-118.3056 2.03395,-125 0.18333,-3.85 -0.0805,-8.96297 -0.58626,-11.36215 -0.61445,-2.9147 -0.56842,-4.78529 0.13873,-5.63735 0.66375,-0.79976 0.95432,-6.44366 0.77937,-15.13785 L 464.17876,802.5 l -4.38152,-0.31392 c -3.73101,-0.26732 -4.28744,-0.0688 -3.74784,1.33742 0.34853,0.90824 0.85391,3.5245 1.12307,5.81392 0.43643,3.71204 0.27241,3.49439 -1.51539,-2.01087 -2.31592,-7.13154 -0.26941,-6.28646 -22.47832,-9.28217 -8.25,-1.11282 -17.925,-2.46378 -21.5,-3.00212 -3.575,-0.53834 -14.15,-1.92318 -23.5,-3.07741 -9.35,-1.15424 -26.675,-3.40217 -38.5,-4.99542 -28.68119,-3.86437 -33.76165,-4.53554 -52.5,-6.93569 -8.8,-1.12717 -20.275,-2.69027 -25.5,-3.47357 -5.225,-0.78329 -21.875,-3.06696 -37,-5.07481 -15.125,-2.00785 -29.975,-4.0492 -33,-4.53634 -27.18398,-4.37763 -67.4546,-9.37229 -69.43598,-8.61196 -1.24036,0.47597 -1.56402,2.2744 -1.56402,8.69057 0,5.17679 -0.36268,7.86626 -1.00706,7.468 -0.55389,-0.34231 -1.19394,-0.0314 -1.42233,0.69099 -0.2284,0.72236 -0.67877,13.46338 -1.00081,28.31338 -0.92113,42.47471 -1.65563,74.02577 -3.01471,129.5 -0.69395,28.325 -1.11017,51.7825 -0.92493,52.12777 0.47216,0.8801 41.63166,6.64275 60.7348,8.50335 l 6.86495,0.66862 -0.76662,-2.39987 c -3.01511,-9.43862 -4.54347,-18.39216 -2.54341,-14.89987 0.47248,0.825 1.62155,4.66748 2.55347,8.53883 1.52441,6.33262 1.95177,7.06014 4.25942,7.25113 1.41075,0.11675 3.06051,0.60981 3.66612,1.09569 1.55747,1.24954 5.49602,2.05169 20.10111,4.09391 4.4,0.61525 10.475,1.5354 13.5,2.04474 3.025,0.5094 8.2,1.1596 11.5,1.4449 3.3,0.2852 7.575,0.7507 9.5,1.0344 1.925,0.2837 5.3,0.7424 7.5,1.0195 2.2,0.2771 5.8,0.741 8,1.031 7.15023,0.9424 10.74547,1.3936 28,3.5138 9.35,1.1489 17.675,2.3433 18.5,2.6542 0.825,0.3109 2.175,0.6329 3,0.7155 5.53107,0.554 12,1.9398 12,2.5707 0,1.3497 -26.9844,-1.5308 -60.5,-6.4581 -10.73077,-1.5775 -29.1659,-4.09 -36.5,-4.9745 -2.475,-0.2984 -9.675,-1.2214 -16,-2.0511 -6.325,-0.82965 -14.725,-1.51209 -18.66667,-1.51653 -3.94166,-0.004 -7.31666,-0.43309 -7.5,-0.95257 -0.27396,-0.77628 -28.78848,-5.03633 -44.33333,-6.62337 -2.2,-0.22461 -8.15801,-0.94321 -13.24003,-1.59689 -5.08202,-0.65368 -9.41074,-0.99652 -9.61938,-0.76187 -0.44438,0.49979 -1.60288,44.10813 -1.62522,61.17663 -0.008,6.4625 -0.35287,11.7503 -0.76537,11.7506 -0.4125,3e-4 -0.60765,-16.6497 -0.43366,-37 0.17399,-20.3503 -0.051,-37.00241 -0.5,-37.00462 -0.44899,-0.002 -4.86634,-0.6551 -9.81634,-1.45085 -4.95,-0.79576 -11.249997,-1.73018 -13.999997,-2.07649 -2.75,-0.3463 -10.98718,-1.49342 -18.30485,-2.54914 C 70.556243,980.86377 64.117193,980 63.564893,980 c -0.55229,0 -0.7382,-0.43035 -0.41312,-0.95633 0.32507,-0.52598 1.13913,-0.7591 1.80902,-0.51806 0.66988,0.24105 6.61797,1.10927 13.21797,1.9294 6.6,0.82012 18.75,2.37456 26.999997,3.4543 8.25,1.07974 15.30081,1.65436 15.66846,1.27693 0.36766,-0.37743 0.93483,-20.26124 1.26039,-44.18624 0.32556,-23.925 0.80642,-50.025 1.06857,-58 0.26214,-7.975 0.71256,-28.225 1.00092,-45 0.28836,-16.775 0.78271,-41.34185 1.09855,-54.593 0.6565,-27.54361 0.93574,-26.5348 -7.84756,-28.35084 -13.45214,-2.78137 -41.540367,-6.81885 -44.071477,-6.33496 -1.55218,0.29675 -3.80218,0.0629 -5,-0.5196 -2.30294,-1.11997 -13.70952,-3.34238 -27.42785,-5.34393 -4.5375,-0.66204 -8.25,-1.57585 -8.25,-2.03069 0,-1.13446 0.77012,-1.07423 15,1.17302 6.875,1.08573 13.92191,1.9799 15.6598,1.98703 l 3.1598,0.013 -1.46226,-5.75 c -0.80425,-3.1625 -1.88712,-7.72704 -2.40639,-10.14343 -0.51928,-2.41639 -1.39768,-4.93992 -1.95202,-5.60785 -0.55433,-0.66794 -1.11836,-5.381 -1.2534,-10.47347 -0.2058,-7.7607 0.0271,-9.43494 1.43937,-10.34597 3.04365,-1.96345 7.77985,1.73502 18.26236,14.26095 2.50401,2.99213 4.55274,6.07266 4.55274,6.84563 0,0.77297 0.86268,2.61693 1.91708,4.09768 1.48929,2.09153 1.74313,3.46483 1.13754,6.15438 L 85.953843,736.5 83.404393,731 c -1.4022,-3.025 -3.1711,-6.32243 -3.93089,-7.32763 -1.33801,-1.77017 -1.44789,-1.77017 -3.49529,0 -2.9284,2.53188 -5.45696,13.17329 -4.20639,17.7025 0.5203,1.88438 1.63769,3.69157 2.48309,4.01598 0.8454,0.32441 6.34911,1.27086 12.23047,2.10322 5.88136,0.83237 15.844437,2.25854 22.140177,3.16927 9.52632,1.37806 11.52245,1.42891 11.89772,0.30309 0.24802,-0.74404 1.51424,-2.41609 2.81382,-3.71568 2.7959,-2.7959 2.95842,-5.34225 3.84531,-60.25075 0.30649,-18.975 0.97816,-51.825 1.49259,-73 0.88235,-36.31919 1.41223,-78.24386 1.08694,-86 -0.13988,-3.33524 -0.21662,-3.40585 -1.63029,-1.5 -3.787,5.10547 -9.38702,11.06282 -13.95289,14.8432 -6.08612,5.03908 -4.23891,2.44021 4.5,-6.33114 3.575,-3.58827 7.69792,-8.32141 9.16205,-10.51809 l 2.66206,-3.99397 0.70532,-31 c 0.38793,-17.05 0.81845,-34.375 0.95671,-38.5 0.31049,-9.26321 0.66445,-38.15578 0.5779,-47.17289 l -0.064,-6.67288 -7.75,0.38682 c -5.34324,0.2667 -6.81835,0.12422 -4.75,-0.4588 1.65,-0.46509 5.09332,-0.89886 7.65181,-0.96394 L 132.48239,396 l 0.5848,-5.75 c 0.32164,-3.1625 0.82611,-19.25 1.12103,-35.75 0.29493,-16.5 0.73412,-33.6 0.97598,-38 0.24186,-4.4 0.72434,-21.725 1.07217,-38.5 0.34783,-16.775 0.79336,-32.525 0.99006,-35 0.19671,-2.475 0.40748,-5.175 0.46838,-6 0.0674,-0.91293 0.46029,-0.63126 1.0039,0.71969 0.49125,1.22083 0.71258,12.92083 0.49184,26 -1.10636,65.55572 -1.54623,88.44588 -2.04709,106.52796 -0.69766,25.18724 -1.24634,24.25631 13.69878,23.24264 5.68508,-0.3856 10.56152,-0.8269 10.83652,-0.98067 0.275,-0.15377 4.55,-0.57381 9.5,-0.93341 4.95,-0.35961 10.125,-0.85316 11.5,-1.09679 2.38909,-0.42331 29.17065,-2.80997 45,-4.01022 4.125,-0.31277 9.3,-0.78363 11.5,-1.04636 2.2,-0.26273 8.5,-0.9192 14,-1.45884 5.5,-0.53964 11.125,-1.1741 12.5,-1.40991 1.375,-0.23581 5.2,-0.70372 8.5,-1.0398 8.78505,-0.89468 49.46511,-5.24863 60.5,-6.47525 5.225,-0.5808 25.025,-2.63468 44,-4.56417 18.975,-1.92948 42.6,-4.37508 52.5,-5.43465 9.9,-1.05958 21.15,-2.23272 25,-2.60698 7.40992,-0.72031 10.5,-1.78684 10.5,-3.62403 0,-1.83761 5.05356,-7.89414 6.06518,-7.26893 0.55594,0.34359 0.93482,-3.47188 0.93482,-9.41388 0,-8.94192 -0.19983,-10.05505 -1.90208,-10.59532 -1.19115,-0.37806 -3.34032,0.38171 -5.75,2.03271 -5.65667,3.87567 -7.80518,4.49874 -10.79495,3.13052 -2.89947,-1.32689 -4.36935,-5.17653 -2.87878,-7.53957 1.49242,-2.36597 3.01569,-2.44864 3.60487,-0.19563 0.29353,1.12249 1.19222,2.04089 1.99708,2.04089 1.86315,0 9.72386,-6.8402 9.72386,-8.46148 0,-0.67136 -2.1375,-2.41582 -4.75,-3.87657 -6.06034,-3.38857 -7.31054,-4.43143 -10.13462,-8.45381 -3.14787,-4.48357 -2.24601,-7.59069 2.97661,-10.25507 4.19681,-2.14105 8.97574,-2.30114 9.62444,-0.32241 0.20387,0.62186 -0.70081,1.39959 -2.01039,1.72827 -3.38491,0.84956 -7.70604,4.48301 -7.70604,6.47968 0,1.47534 7.59714,7.34495 11.22075,8.66922 0.70359,0.25713 2.68559,-1.22978 4.40446,-3.30426 l 3.1252,-3.77177 0.60082,-22.4659 c 0.33045,-12.35624 0.90142,-40.77856 1.26884,-63.16069 l 0.66803,-40.6948 -2.39405,-0.49584 c -2.17082,-0.44961 -12.57042,-0.75809 -74.89405,-2.22156 -32.57298,-0.76487 -37.96069,-1.01936 -38.74571,-1.83016 -0.71611,-0.73962 61.66898,-0.0965 98.37548,1.01419 l 17.12976,0.51831 0.58133,-3.29768 c 0.31974,-1.81372 0.57894,-9.82267 0.576,-17.79767 -0.008,-20.53184 2.07098,-85.329183 2.75762,-85.96748 0.31508,-0.292886 0.28932,9.81748 -0.0572,22.46748 -1.82764,66.71358 -1.89697,82.02296 -0.3772,83.28426 1.71438,1.42281 17.73794,2.02936 70.10945,2.65389 19.71722,0.23513 36.10472,0.68274 36.41666,0.99468 0.31195,0.31194 0.37967,0.6016 0.15051,0.64368 -0.22917,0.0421 -1.31667,0.28315 -2.41667,0.53571 -1.1,0.25256 -5.1176,0.43367 -8.928,0.40248 -4.5677,-0.0374 -7.20283,0.3763 -7.73468,1.21429 -0.53017,0.83533 -0.81194,0.88012 -0.82201,0.13067 -0.0103,-0.76916 -3.35158,-1.18691 -10.26531,-1.28344 -5.6375,-0.0787 -16.775,-0.33319 -24.75,-0.5655 -32.51595,-0.9472 -50.22232,-0.71992 -51.52733,0.6614 -0.89441,0.94671 -1.44966,8.36068 -1.9343,25.82788 -1.07579,38.7729 -1.61845,92.23793 -0.96696,95.26738 0.3619,1.68284 1.73253,3.35555 3.49738,4.26819 3.93453,2.03463 4.55277,5.27457 2.01053,10.53638 -1.14362,2.36704 -2.07932,4.67833 -2.07932,5.1362 0,2.29726 9.44795,-4.4727 16.75,-12.00228 4.5375,-4.67888 8.25,-7.83617 8.25,-7.01619 0,2.94968 -6.07427,13.40731 -10.53363,18.13498 -3.92874,4.16513 -9.77159,7.66733 -16.71637,10.01978 -1.34669,0.45617 -1.77949,1.80995 -1.87795,5.87418 -0.22982,9.48642 0.0666,11.8684 1.85979,14.94423 1.71359,2.93933 1.93791,3.01428 7.26816,2.42851 6.85134,-0.75294 18.60786,-3.26589 26.5,-5.66436 3.3,-1.00288 11.625,-2.9659 18.5,-4.36225 6.875,-1.39635 14.07203,-2.99465 15.9934,-3.55178 5.06343,-1.46823 10.2318,-1.24396 12.80082,0.55545 3.02742,2.12049 1.91707,3.43158 -2.90616,3.43158 -3.35913,0 -7.49656,0.98263 -23.78119,5.64796 -0.76622,0.21952 -1.21622,0.54967 -1,0.73367 0.4455,0.37912 44.51651,-3.00556 49.89313,-3.83183 1.925,-0.29583 6.65,-0.77929 10.5,-1.07435 3.85,-0.29507 13.075,-1.18684 20.5,-1.98171 23.60144,-2.52661 96.44217,-9.74031 115.99997,-11.48793 6.875,-0.61432 13.85,-1.3184 15.5,-1.56462 1.65,-0.24622 8.85,-0.9063 16,-1.46684 17.3009,-1.35635 28.6234,-2.58457 36.4502,-3.95396 3.5476,-0.6207 8.1062,-0.84876 10.1302,-0.5068 2.0241,0.34196 9.0215,-0.0958 15.5498,-0.97285 6.5284,-0.87703 15.0198,-2.0156 18.8698,-2.53016 3.85,-0.51457 10.0505,-1.23126 13.7788,-1.59266 5.0777,-0.4922 7.0225,-1.11246 7.75,-2.47176 1.51,-2.82152 1.1468,-22.70342 -0.5288,-28.94616 -1.997,-7.44018 -1.8741,-13.33766 0.3707,-17.78984 2.386,-4.73202 3.0203,-11.92741 3.2365,-36.71016 0.1812,-20.77049 0.6236,-27.5 1.8079,-27.5 0.3829,0 0.5015,13.05 0.2635,29 -0.4195,28.11708 -0.374,29 1.4944,29 2.4187,0 4.327,1.85222 4.327,4.2 0,1.99915 -1.9804,2.53486 -2.0333,0.55 -0.018,-0.6875 -0.9183,-0.18765 -2,1.11078 -1.9919,2.39104 -2.7646,9.52805 -1.1402,10.53197 0.4545,0.28092 1.8146,0.25237 3.0223,-0.0635 1.8904,-0.49434 2.1077,-1.04416 1.5622,-3.95176 -0.3484,-1.85764 -0.468,-3.37753 -0.2657,-3.37753 0.2024,0 1.748,0.39582 3.4349,0.8796 4.3435,1.24571 7.4083,-0.71933 9.3593,-6.00096 1.3129,-3.55414 2.0828,-4.37864 4.089,-4.37864 3.0147,0 3.8108,3.24459 1.6417,6.69086 -0.7994,1.27003 -1.7522,4.42962 -2.1174,7.02132 -0.5647,4.00711 -0.3564,4.97553 1.3916,6.47224 2.4462,2.09448 2.5686,2.90474 0.5556,3.67721 -2.6118,1.00223 -4.4453,-0.447 -5.6492,-4.46511 -1.8921,-6.31559 -3.8508,-4.99138 -3.8508,2.60348 0,7.57058 -2.0763,8.99862 -3.9984,2.75 -0.6344,-2.0625 -1.3392,-4.33581 -1.5661,-5.05181 -0.2895,-0.91381 -1.4591,-0.46674 -3.924,1.5 -3.011,2.4025 -3.5114,3.39911 -3.5115,6.99279 0,2.30504 -0.45,4.4691 -1,4.80902 -0.55,0.33992 -1,4.58688 -1,9.4377 0,8.75012 0.022,8.82895 2.8451,9.99815 2.5097,1.03955 3.9539,0.72386 12.25,-2.67775 13.5119,-5.5402 20.3308,-9.42803 29.4049,-16.76523 4.4,-3.5578 10.475,-8.34236 13.5,-10.63236 3.025,-2.28999 6.8267,-5.78292 8.4483,-7.76207 1.6215,-1.97914 5.5932,-5.34231 8.8259,-7.4737 3.4342,-2.26427 6.5114,-5.20426 7.4021,-7.07216 0.8385,-1.75829 2.3711,-3.72559 3.4058,-4.37178 2.1115,-1.31865 1.8747,-1.94649 3.8926,10.3192 1.2683,7.70865 8.4375,32.3864 10.6849,36.77904 1.3279,2.59545 1.7329,2.74089 6.1311,2.20149 13.8638,-1.70028 32.98474,-2.63631 31.13484,-1.52415 -0.866,0.52062 -4.91604,1.19203 -9.00004,1.49204 -11.732,0.86183 -25.3656,2.62455 -26.0649,3.36998 -0.3517,0.37488 1.1668,4.9566 3.3744,10.1816 2.2075,5.225 5.3326,12.65 6.9446,16.5 5.9235,14.14724 9.6429,20.54352 26.73924,45.98412 14.1947,21.12285 23.5161,33.34785 33.9017,44.46235 6.1395,6.57033 20.5066,27.48947 23.8579,34.73799 3.3029,7.14407 4.1799,11.31554 2.3788,11.31554 -4.0084,0 -19.6359,-14.04967 -18.6077,-16.729 0.2902,-0.75618 0.1328,-1.13089 -0.3497,-0.83268 -0.9315,0.57572 -6.0998,-5.61301 -6.0998,-7.30421 0,-0.54963 -1.0125,-1.31753 -2.25,-1.70644 -1.2375,-0.38891 -4.8542,-3.00673 -8.037,-5.81739 -9.1873,-8.11285 -29.0517,-28.02915 -31.64934,-31.73194 -2.8098,-4.00528 -17.2398,-17.03553 -18.0113,-16.26409 -0.2946,0.29462 1.5719,2.52694 4.1478,4.96071 2.5758,2.43377 4.3178,4.42504 3.8711,4.42504 -1.5534,0 -8.572,-8.00318 -8.6801,-9.89768 -0.1757,-3.08016 -12.2466,-13.52878 -21.0762,-18.24371 -4.4893,-2.39724 -9.6592,-5.58861 -11.4887,-7.09193 -6.8596,-5.63676 -12.9083,-9.77338 -18.0364,-12.33485 -2.9094,-1.45326 -6.6399,-3.91494 -8.2899,-5.47039 -1.65,-1.55545 -5.5242,-4.3206 -8.6092,-6.14477 -3.0851,-1.82417 -8.8082,-5.44198 -12.718,-8.03958 -3.9098,-2.59759 -8.3606,-5.02502 -9.8908,-5.39426 -1.5301,-0.36925 -5.9704,-2.40644 -9.8673,-4.5271 -8.1175,-4.41742 -9.0095,-4.54237 -12.3838,-1.73472 l -2.4692,2.05447 -0.6822,28.66226 c -0.3752,15.76424 -0.9512,43.28726 -1.2799,61.16226 -0.3287,17.875 -0.8198,40.6 -1.0913,50.5 -0.2716,9.9 -0.7283,30.6 -1.015,46 -0.2867,15.4 -0.7387,36.1 -1.0045,46 -1.3082,48.72367 -1.8914,75.19465 -3.0295,137.5 -0.3164,17.325 -0.7589,38.49253 -0.9831,47.03895 -0.318,12.11615 -0.094,16.14336 1.0158,18.28292 0.7829,1.50918 0.9926,2.4776 0.4658,2.15203 -0.5268,-0.32552 -0.9578,0.36122 -0.9578,1.52614 0,1.16492 0.3938,1.87466 0.8751,1.57719 0.4813,-0.29746 1.1784,1.35611 1.5492,3.6746 0.4222,2.64029 0.282,4.34611 -0.3751,4.56515 -0.5771,0.19235 -1.0492,1.23878 -1.0492,2.32541 0,1.08663 -0.3796,1.74108 -0.8436,1.45434 -0.9349,-0.57784 -2.1564,27.7922 -2.1564,50.08506 0,16.9875 -1.3525,15.4832 16,17.79524 6.325,0.84274 12.625,1.75385 14,2.02468 1.375,0.27083 3.85,0.56053 5.5,0.64379 3.5955,0.18144 20.7884,2.5256 28.5522,3.89296 3.0537,0.53782 9.1786,1.17833 13.6109,1.42336 4.4324,0.24504 8.6839,0.57887 9.4478,0.74187 0.764,0.16299 1.3441,-0.26615 1.2891,-0.95365 -0.055,-0.6875 -0.1675,-2.09758 -0.25,-3.1335 -0.1244,-1.56225 -1.2894,-2.00553 -6.8302,-2.5989 -10.0938,-1.08095 -12.4153,-2.66285 -2.8198,-1.9214 4.4,0.33998 8.778,0.76726 9.729,0.94951 0.9509,0.18225 1.99,-0.091 2.309,-0.60718 0.8229,-1.33156 4.8366,-1.16398 6.262,0.26147 1.659,1.65899 1.5026,5.35457 -0.3031,7.16021 -1.7587,1.75872 -1.1384,2.04479 6.7605,3.11812 3.498,0.47531 4.8695,0.29901 5.1807,-0.66594 0.2327,-0.72181 0.6538,-5.81239 0.9357,-11.31239 0.5796,-11.30833 1.9256,-19.21133 3.9599,-23.24938 2.4066,-4.77742 2.9057,-8.25062 1.1854,-8.25062 -0.8355,0 -1.5191,-0.45381 -1.5191,-1.00847 0,-0.61201 -0.7543,-0.53738 -1.9188,0.18983 -2.4821,1.55011 -5.7602,-0.65827 -4.045,-2.72501 0.6376,-0.76823 0.6885,-1.50844 0.1277,-1.85508 -1.0407,-0.64318 -0.8824,-5.62963 0.2361,-7.43949 0.5164,-0.83554 1.2724,-0.87228 2.6607,-0.1293 1.5276,0.81756 1.9393,0.712 1.9393,-0.4973 0,-2.47332 2.3683,-1.75417 4.0682,1.23533 1.1038,1.94133 1.3306,3.64189 0.7658,5.74368 -1.1269,4.1936 -0.1608,6.48581 2.7334,6.48581 3.2234,0 6.7712,3.5971 6.0957,6.18038 -0.577,2.20635 0.5127,7.84226 5.324,27.53651 2.3363,9.56319 3.6828,13.34012 4.8709,13.66268 2.745,0.74524 8.73334,1.66772 20.46074,3.15189 6.1497,0.77828 15.9063,2.06649 21.6813,2.86268 5.775,0.79619 18.9021,2.60822 29.1714,4.02674 20.957,2.89483 23.8286,3.06799 23.8286,1.43688 0,-0.62824 2.025,-5.36099 4.5,-10.51724 2.475,-5.15625 4.5,-9.7388 4.5,-10.18345 0,-0.44464 1.1232,-1.86366 2.4961,-3.15337 3.0534,-2.86856 2.58,-3.75493 -0.8167,-1.52927 -3.9165,2.5662 -4.1674,0.0736 -0.3692,-3.66735 3.8025,-3.74515 13.1354,-7.80431 17.963,-7.81266 5.6921,-0.01 10.8281,-2.04664 15.1075,-5.99121 C 1139.0594,826.70736 1148.4041,821 1152.987,821 c 2.494,0 14.6918,-5.67071 14.6918,-6.8302 0,-2.32454 18.4878,-18.42756 27.1798,-23.6738 1.8261,-1.10221 5.1202,-4.7465 7.3202,-8.09843 7.0724,-10.77548 6.653,-10.28832 5.9613,-6.92472 -0.6073,2.95375 -0.5979,2.96079 1.4637,1.09501 1.1413,-1.03281 2.075,-2.19853 2.075,-2.5905 0,-0.39196 1.7892,-3.80972 3.976,-7.59501 5.2104,-9.01904 8.0074,-20.24267 7.9453,-31.88235 -0.036,-6.77385 -0.2851,-8.40755 -1.0062,-6.60482 -1.6214,4.05357 -1.7356,1.96079 -0.3488,-6.39518 0.7303,-4.4 1.3516,-13.94429 1.3807,-21.20953 0.051,-12.65637 -0.047,-13.30545 -2.337,-15.5 -1.4733,-1.41185 -3.6109,-6.12645 -5.5727,-12.29047 -3.6706,-11.53338 -12.2082,-30.07893 -15.0779,-32.75243 -4.0125,-3.73824 -1.8773,-5.04403 2.5515,-1.56035 1.5293,1.20297 2.5993,1.76547 2.3777,1.25 -1.1703,-2.72203 -7.3425,-14.16269 -8.835,-16.37624 -0.9497,-1.40854 -4.6754,-7.06098 -8.2794,-12.56098 -3.8283,-5.84226 -11.2206,-14.89066 -17.7796,-21.76278 -13.8457,-14.50658 -13.6764,-14.29027 -20.6271,-26.35883 -5.2148,-9.05455 -18.85,-27.3227 -21.737,-29.12283 -2.3562,-1.46919 -10.4701,-12.83711 -13.494,-18.90582 -1.6855,-3.38264 -4.1975,-11.16891 -5.5821,-17.30282 -1.3847,-6.13392 -3.6886,-13.9413 -5.1199,-17.34975 -1.4312,-3.40844 -3.0701,-7.54717 -3.6419,-9.19717 -1.9787,-5.70988 -5.4392,-13.01627 -13.547,-28.60246 -2.1751,-4.18136 -4.2802,-8.90636 -4.6781,-10.5 -0.3978,-1.59365 -1.3163,-3.57254 -2.0411,-4.39754 -0.7248,-0.825 -2.0144,-3.525 -2.8657,-6 -3.6665,-10.65936 -9.2933,-23.62204 -17.146,-39.5 -4.6242,-9.35 -9.8364,-20.375 -11.5828,-24.5 -1.7463,-4.125 -5.1874,-12 -7.6468,-17.5 -6.9011,-15.43293 -6.9811,-15.62289 -9.2571,-22 -3.8384,-10.75488 -6.6205,-24.29111 -9.0433,-44 -1.5273,-12.42507 -0.2592,-22.11423 4.1228,-31.5 1.669,-3.575 4.6345,-10.775 6.5899,-16 1.9554,-5.225 5.714,-14 8.3526,-19.5 8.2666,-17.23156 11.4477,-33.4968 8.9964,-46 -0.6469,-3.3 -1.3563,-14.775 -1.5763,-25.5 -0.5002,-24.3885 -1.1389,-31.67214 -3.4534,-39.383205 -2.1459,-7.149406 -4.5492,-21.114892 -6.4841,-37.679081 -0.7565,-6.476639 -1.9035,-12.762196 -2.5488,-13.967904 -0.6452,-1.205708 -1.5555,-7.879659 -2.0228,-14.831003 C 1034.1725,22.187463 1033.4754,12.7875 1033.0907,8.25 1032.4324,0.48490772 1032.5064,0 1034.3512,0 c 1.8072,0 2.0559,1.1887888 3.1898,15.25 1.7325,21.483437 1.701,21.227272 3.8999,31.75 1.0919,5.225 2.5367,13.325 3.2107,18 2.1457,14.882098 3.8716,24.460489 4.8902,27.139792 2.2619,5.949131 4.0654,21.549658 4.608,39.860208 0.3179,10.725 0.9901,21.75 1.4939,24.5 2.3745,12.96241 0.3126,30.59446 -4.9115,42 -5.2118,11.37885 -10.1268,22.74375 -12.5416,29 -1.486,3.85 -4.2249,10.4113 -6.0864,14.58067 -5.1117,11.44909 -5.8139,18.82174 -3.4398,36.11657 3.0828,22.45814 5.9736,33.88836 11.9632,47.30276 1.2279,2.75 3.9554,8.825 6.0612,13.5 2.1058,4.675 5.0408,11.425 6.5223,15 1.4815,3.575 3.8115,8.50682 5.1779,10.9596 1.3663,2.45278 3.2914,6.50744 4.278,9.01036 0.9865,2.50291 3.4354,7.35196 5.442,10.77566 2.0066,3.4237 4.7893,9.26904 6.1838,12.98964 1.3945,3.72061 3.7935,9.25089 5.3311,12.28952 1.5376,3.03863 4.4752,9.43438 6.5279,14.21277 2.0528,4.77839 4.3611,9.20984 5.1297,9.84766 0.7685,0.63782 1.3973,2.02924 1.3973,3.09203 0,1.0628 3.3157,8.9952 7.3683,17.62756 6.6265,14.11514 9.7847,22.80399 15.155,41.6952 0.9381,3.3 3.0936,8.925 4.79,12.5 1.6963,3.575 3.1089,6.725 3.1391,7 0.1985,1.81022 6.1467,10.38871 9.7628,14.07976 5.648,5.76521 17.0251,20.46139 19.292,24.92024 4.4252,8.70424 13.3291,20.41685 23.566,31 6.1181,6.325 12.801,13.975 14.851,17 6.7445,9.95242 21.0758,34.69469 21.0758,36.38632 0,0.91194 1.7599,5.15835 3.9109,9.43646 11.7393,23.34837 13.0827,29.64844 13.7738,64.59726 0.6938,35.08119 0.3145,37.08083 -11.3912,60.04173 -3.0312,5.94563 -15.694,18.38934 -23.0442,22.64542 -6.141,3.55593 -11.0905,7.79269 -20.1658,17.26216 -6.9822,7.2854 -14.1696,11.43012 -21.5337,12.41786 -4.023,0.5396 -17.666,8.98945 -22.064,13.66543 -2.7336,2.90646 -10.2487,5.87355 -14.3194,5.65358 -2.5108,-0.13567 -4.1002,0.56938 -6.4398,2.85683 -1.7085,1.67032 -3.402,3.03695 -3.7634,3.03695 -3.5627,0 -12.8111,16.49161 -14.6522,26.12735 -0.4671,2.44451 -0.1648,2.69963 4.3435,3.66597 2.665,0.57124 7.9955,1.51101 11.8455,2.08838 3.85,0.57737 11.4068,1.76437 16.793,2.63777 5.3861,0.87341 10.6406,1.31899 11.6766,0.99018 1.036,-0.32881 3.5282,0.0893 5.5383,0.9292 2.0101,0.83987 5.7556,1.80961 8.3234,2.15497 2.5678,0.34537 5.3437,0.79007 6.1687,0.98823 7.5843,1.82171 9.3872,2.40512 10.3223,3.34021 0.5927,0.59276 0.7236,1.07774 0.2909,1.07774 -1.8367,0 -26.2448,-3.11415 -27.6132,-3.52308 -0.825,-0.24653 -3.975,-0.70428 -7,-1.0172 -3.025,-0.31293 -9.325,-1.19329 -14,-1.95637 -14.7827,-2.41291 -27.69,-3.83628 -29.2744,-3.22829 -2.01,0.77132 -5.3942,9.95306 -6.8006,18.4509 -0.6166,3.72572 -1.2388,13.07404 -1.3825,20.77404 -0.1438,7.7 -0.9908,21.65 -1.8822,31 -0.8915,9.35 -2.2942,25.55 -3.1172,36 -0.8229,10.45 -2.2193,23.05 -3.1029,28 -0.8837,4.95 -1.7323,10.575 -1.8857,12.5 -0.1535,1.925 -1.7124,7.325 -3.4643,12 -6.3169,16.8573 -6.6289,18.4667 -4.5109,23.267 1.2191,2.7629 6.4568,8.748 15.0809,17.233 13.9051,13.6808 16.3398,17.5513 16.3398,25.9759 0,4.026 0.2618,4.2307 7.1727,5.609 2.93,0.5844 6.0023,1.2199 6.8273,1.4123 0.825,0.1924 2.0625,0.3842 2.75,0.4263 0.6875,0.042 1.25,0.5623 1.25,1.156 0,0.6391 -1.1217,0.8636 -2.75,0.5504 -1.5125,-0.291 -5.3402,-0.799 -8.506,-1.1289 -6.6408,-0.692 -6.9737,-0.3046 -8.1624,9.499 -0.3667,3.025 -1.3038,8.425 -2.0822,12 -2.155,9.8961 -4.3624,22.3708 -6.0165,34 -0.8215,5.775 -2.1782,14.1 -3.0149,18.5 -0.8368,4.4 -1.9281,10.25 -2.4251,13 -0.497,2.75 -1.5972,6.9328 -2.4448,9.295 -0.8477,2.3623 -1.8315,6.6373 -2.1864,9.5 -0.3549,2.8628 -1.2731,7.905 -2.0404,11.205 -1.9467,8.3722 -3.5777,41.8847 -2.2874,47 0.555,2.2 1.3896,6.475 1.8547,9.5 0.4651,3.025 1.3229,7.975 1.9061,11 0.5833,3.025 1.5444,8.65 2.1358,12.5 0.5914,3.85 1.8071,11.05 2.7016,16 1.4332,7.9316 1.4813,11.2555 0.4051,28 -3.5862,55.7948 -5.1694,63.7294 -16.086,80.6195 -2.2007,3.4048 -4.0012,6.605 -4.0012,7.1115 0,3.2269 -21.4537,25.769 -24.5247,25.769 -0.9066,0 -4.422,2.6071 -7.8119,5.7935 -3.3898,3.1864 -7.9634,7.0806 -10.1634,8.6538 -2.2,1.5731 -5.4559,4.223 -7.2354,5.8885 -1.7794,1.6655 -5.1345,3.9843 -7.4557,5.153 -2.4047,1.2107 -5.55954,4.0364 -7.33324,6.568 -3.0784,4.3941 -10.3334,8.9704 -19.7897,12.4829 -2.0977,0.7792 -6.3727,2.9855 -9.5,4.9028 -3.1273,1.9174 -10.186,5.36 -15.686,7.6502 -8.515,3.5457 -11.188,4.1985 -18,4.3964 -4.4,0.1279 -11.2286,0.5825 -15.1747,1.0104 -5.6833,0.6162 -8.026,0.4373 -11.2702,-0.8608 -4.508,-1.8037 -9.6193,-2.1529 -10.5063,-0.7176 -0.4913,0.7948 -26.6333,1.3544 -62.0488,1.3281 -11.3559,-0.01 -50.1678,-1.8888 -58.5624,-2.8373 -3.8767,-0.438 -8.8771,0.026 -16.5,1.5317 -6.0157,1.188 -17.0126,2.5536 -24.4376,3.0345 -13.4113,0.8687 -19.6219,2.2853 -27.4519,6.2616 -5.5453,2.8161 -14.4015,5.7603 -17.3271,5.7603 -2.037,0 -2.2573,-0.2514 -1.2665,-1.4452 z m 296.0455,-685.11198 c 0,-1.40645 -0.5065,-4.56883 -1.1256,-7.02751 -0.9801,-3.89205 -1.4005,-4.38832 -3.25,-3.83632 -1.1684,0.3487 -2.7994,1.47621 -3.6244,2.50556 -1.0331,1.28902 -2.2203,1.68124 -3.814,1.26013 -2.1903,-0.57874 -2.2972,-0.37734 -2,3.76715 0.2839,3.9586 0.6017,4.43963 3.314,5.01506 1.65,0.35006 4.6875,0.68972 6.75,0.7548 3.3865,0.10684 3.75,-0.12954 3.75,-2.43887 z m -7.194,-14.51894 c 3.325,-0.91851 4.1636,-1.55797 3.6809,-2.8067 -0.3439,-0.88945 -1.0172,-3.67462 -1.4964,-6.18926 -2.689,-14.1113 -6.1495,-11.51378 -8.5925,6.44964 -0.5353,3.9359 -0.3964,4.76735 0.7193,4.30669 0.7605,-0.31397 3.3204,-1.10614 5.6887,-1.76037 z m -124.7332,-4.12105 c 0.04,-2.36656 0.2255,-12.62783 0.4123,-22.80283 0.1867,-10.175 0.6176,-38.075 0.9575,-62 0.3399,-23.925 0.8098,-45.075 1.0442,-47 0.2344,-1.925 0.6988,-13.175 1.0319,-25 0.3331,-11.825 0.775,-27.125 0.9821,-34 0.3875,-12.86627 1.0886,-45.7334 2.0586,-96.5 0.3047,-15.95 0.7212,-36.2 0.9255,-45 0.2044,-8.8 0.6469,-31.525 0.9834,-50.5 0.3366,-18.975 1.0372,-49.575 1.557,-68 1.1851,-42.00843 1.3289,-63.00018 0.4468,-65.25 -0.8533,-2.1765 -0.9195,-2.1758 -23.7589,0.25126 -10.3328,1.09802 -23.6078,2.4274 -29.5,2.95417 -5.8923,0.52677 -19.7132,1.85672 -30.7132,2.95544 -11,1.09873 -29.9,2.92388 -42,4.05589 -12.1,1.13201 -25.6,2.49229 -30,3.02285 -10.3112,1.24333 -48.2084,4.93461 -56,5.45453 -3.3,0.22021 -12.75,1.11225 -21,1.98232 -8.25,0.87007 -21.3,2.24625 -29,3.05817 -7.7,0.81193 -23.675,2.41047 -35.5,3.55233 -33.00091,3.18665 -74.4513,7.82968 -78.97698,8.84653 -5.16751,1.16107 -9.01908,3.67124 -9.03686,5.88956 -0.008,0.94982 -0.43311,10.50195 -0.94555,21.22695 -0.51243,10.725 -1.24524,32.325 -1.62846,48 -0.38322,15.675 -0.79716,31.2 -0.91988,34.5 -0.12271,3.3 -0.30796,18.15 -0.41165,33 -0.17441,24.97615 -0.0549,27.07496 1.59418,28 12.36264,6.93469 19.13809,33.12761 14.87382,57.5 -3.06305,17.50679 -11.63354,50.83791 -16.58501,64.5 -1.97458,5.44826 -2.22166,8.52879 -2.68697,33.5 -0.42342,22.7226 -0.23137,28.99019 1.10546,36.07793 2.16678,11.48801 2.05494,13.61397 -0.90097,17.12686 l -2.51886,2.9935 0.26886,22.04265 c 0.2945,24.14419 -0.12736,22.61091 6.76887,24.60156 l 3.5,1.0103 -4.22277,-0.1203 c -2.32252,-0.0662 -4.5566,0.21354 -4.96463,0.62156 -1.65048,1.65049 1.59707,4.1649 6.29293,4.8723 2.69196,0.40553 7.23821,1.22357 10.10277,1.81787 5.11004,1.06015 9.81655,1.65672 19.7917,2.50866 2.75,0.23487 6.35,0.54405 8,0.68707 1.65,0.14302 3.63203,0.66707 4.40451,1.16455 1.0519,0.67743 1.192,0.5519 0.55804,-0.5 -0.70143,-1.16385 -0.57645,-1.18585 0.72939,-0.12842 0.86672,0.70184 3.3156,1.31143 5.44196,1.35464 2.12635,0.0432 7.9161,0.74526 12.8661,1.56012 9.86602,1.62412 14.93683,2.27993 18,2.32795 1.1,0.0172 3.38927,0.48079 5.08728,1.03012 1.698,0.54933 6.47324,1.16822 10.61164,1.37531 4.1384,0.20709 9.94913,0.87051 12.91272,1.47427 2.9636,0.60376 7.18836,1.2797 9.38836,1.50209 2.2,0.22239 6.025,0.66648 8.5,0.98688 7.38444,0.95593 28.60654,3.52385 42.5,5.14259 7.15,0.83305 15.25,1.92791 18,2.433 4.8825,0.89678 31.1366,4.2877 42.9,5.54087 4.2716,0.45506 6.1178,0.27622 6.689,-0.64793 0.6239,-1.00943 1.1678,-0.95049 2.6,0.28176 2.6258,2.25928 4.6549,2.80729 12.6552,3.41784 7.1843,0.54829 33.8489,4.11857 36.6558,4.90806 0.825,0.23205 3.975,0.67183 7,0.97728 3.025,0.30545 6.625,0.80559 8,1.11141 1.375,0.30582 4.75,0.57981 7.5,0.60887 2.75,0.0291 5.45,0.32953 6,0.66769 1.2132,0.74592 2.4208,0.96551 9.5,1.72747 9.4264,1.01459 11.2605,1.23062 20,2.35576 4.675,0.60187 10.525,1.45942 13,1.90567 2.475,0.44625 7.3125,0.91858 10.75,1.04961 l 6.25,0.23824 0.073,-4.30283 z M 838.17876,840 c -0.7412,-1.19936 2.2089,-1.19936 5,0 1.6859,0.72445 1.4988,0.87047 -1.191,0.92971 -1.755,0.0387 -3.4691,-0.37971 -3.809,-0.92971 z m -21.5,-2.18978 c -4.125,-0.51244 -7.9275,-1.35437 -8.45,-1.87096 -1.2658,-1.25145 0.9695,-1.20271 9.5074,0.20729 3.8184,0.6306 6.9426,1.5306 6.9426,2 0,0.4694 -0.1125,0.79538 -0.25,0.72441 -0.1375,-0.071 -3.625,-0.54831 -7.75,-1.06074 z m -34.5,-4.62705 c -2.2,-0.17425 -4.45,-0.77377 -5,-1.33226 -0.6761,-0.68654 0.6195,-0.78534 4,-0.30505 7.3532,1.04474 8.0564,2.19623 1,1.63731 z m -30.767,-3.90106 c -1.5218,-0.23002 -2.5485,-0.7717 -2.2814,-1.20372 0.4681,-0.75748 11.5074,0.5473 12.4292,1.46906 0.5228,0.52284 -6.0745,0.35033 -10.1478,-0.26534 z M 714.17876,824 c -1.6083,-0.69112 -1.3145,-0.85002 1.5,-0.8114 1.925,0.0264 4.85,0.39155 6.5,0.8114 2.7084,0.68918 2.5627,0.76804 -1.5,0.8114 -2.475,0.0264 -5.4,-0.33871 -6.5,-0.8114 z m -30.5,-4 c -1.8295,-1.18235 3.8535,-1.18235 8.5,0 2.6105,0.66427 2.3509,0.77674 -2,0.86637 -2.75,0.0566 -5.675,-0.33321 -6.5,-0.86637 z m -33.8881,-4.08099 c -2.41345,-0.47403 -4.66345,-1.15033 -5,-1.50289 -0.75467,-0.79058 11.0423,0.49617 14.7154,1.60509 2.3752,0.71707 2.2274,0.80426 -1.3273,0.78327 -2.2,-0.013 -5.97464,-0.41145 -8.3881,-0.88547 z M 614.17876,811 c -2,-0.85943 -2,-0.85943 0,-0.87209 1.1,-0.007 3.8,0.35967 6,0.81472 l 4,0.82737 -4,0.0447 c -2.2,0.0246 -4.9,-0.34203 -6,-0.81472 z m -41.5,-5 c -2.27139,-0.72743 -2.17995,-0.80298 1,-0.8262 1.925,-0.014 5.525,0.33477 8,0.77516 l 4.5,0.80071 -5.5,0.0255 c -3.025,0.014 -6.625,-0.3348 -8,-0.77515 z m -33.39936,-4.10464 c -3.24465,-0.47341 -6.16965,-1.14414 -6.5,-1.4905 -0.94469,-0.99048 12.28654,0.69089 13.34936,1.69638 0.6,0.56764 0.6,0.85383 0,0.77682 -0.5225,-0.0671 -3.60471,-0.50928 -6.84936,-0.9827 z m -39.53572,-5.03067 c -5.50008,-0.91229 -7.99917,-1.91711 -4.48159,-1.80193 4.05827,0.13289 16.77033,2.68582 13.41667,2.69444 -1.925,0.005 -5.94578,-0.39668 -8.93508,-0.89251 z m 341.44518,-15.84838 c -0.7376,-1.19337 0.1985,-3.01631 1.5489,-3.01631 1.2168,0 1.2247,2.70662 0.01,3.45729 -0.512,0.31644 -1.2136,0.11799 -1.559,-0.44098 z M 496.27194,747.64423 c -2.47645,-1.88938 -8.59318,-12.85208 -8.59318,-15.40114 0,-1.30602 -0.40759,-3.13616 -0.90575,-4.06699 -3.98582,-7.44757 0.96416,-21.36314 6.90575,-19.41369 2.93828,0.96406 5.979,4.60872 6.59805,7.90857 0.77973,4.15631 2.0092,4.99443 4.2937,2.92698 0.97115,-0.87888 2.4278,-1.59796 3.23699,-1.59796 0.80919,0 1.89876,-0.41248 2.42126,-0.91662 2.05128,-1.9792 10.93754,-6.12077 11.23273,-5.23518 0.17224,0.51671 1.10568,0.73224 2.07431,0.47893 1.17924,-0.30837 2.14755,0.38753 2.93061,2.10616 1.63415,3.58657 4.54173,3.27031 6.28188,-0.68329 1.74507,-3.96478 4.8348,-4.31753 6.56916,-0.75 5.67141,11.66591 9.18049,18.23073 11.99346,22.43746 2.45389,3.66974 3.02638,5.26906 2.22971,6.22898 -0.72824,0.87748 -1.62707,0.9944 -2.80366,0.36471 -2.78018,-1.48791 -8.68712,-9.23023 -11.64782,-15.26698 -1.76733,-3.60351 -3.20842,-5.39516 -4.07275,-5.06349 -2.00235,0.76838 -1.65607,2.61569 1.80661,9.63763 2.26982,4.60296 2.95977,7.11114 2.48094,9.01894 -1.40753,5.60807 -6.4982,1.59932 -12.26576,-9.65893 -0.90117,-1.75908 -1.93488,-3.42332 -2.29713,-3.69832 -2.59066,-1.96665 -5.0588,-7.16574 -4.48572,-9.44908 0.88366,-3.52075 -1.43121,-3.35585 -4.98665,0.35523 -3.26409,3.40697 -3.12163,4.31249 2.26903,14.42257 3.52762,6.61599 3.5813,6.87246 1.72309,8.23305 -2.51859,1.84413 -3.59787,0.8903 -8.09816,-7.15697 C 508.03665,727.815 507.20984,727 504.665,727 c -5.01442,0 -6.41473,5.69268 -3.36478,13.67886 0.8918,2.33515 1.37988,4.87525 1.08463,5.64467 -0.74215,1.934 -4.30117,2.70293 -6.11291,1.3207 z m -1.59318,-26.9531 c 0,-1.81988 -0.66069,-4.18238 -1.4682,-5.25 -1.43957,-1.90329 -1.46881,-1.8997 -1.5,0.18387 -0.0527,3.52189 1.16025,8.375 2.0932,8.375 0.48125,0 0.875,-1.48899 0.875,-3.30887 z m 223,-86.69113 c 0,-0.55 0.675,-1 1.5,-1 0.825,0 1.5,0.45 1.5,1 0,0.55 -0.675,1 -1.5,1 -0.825,0 -1.5,-0.45 -1.5,-1 z m -120,-25.55902 c 0,-1.45136 0.43284,-2.2915 1,-1.94098 0.55,0.33992 1,1.49148 1,2.55902 0,1.06754 -0.45,1.94098 -1,1.94098 -0.55,0 -1,-1.15156 -1,-2.55902 z M 671.43396,448.5 c 0.2629,-1.375 0.6505,-2.5 0.8614,-2.5 0.2109,0 0.3834,1.125 0.3834,2.5 0,1.375 -0.3876,2.5 -0.8613,2.5 -0.4738,0 -0.6463,-1.125 -0.3835,-2.5 z m -77.98422,-86.02838 c -1.5575,-2.06482 -1.56852,-2.33533 -0.11785,-2.89201 1.80961,-0.69441 4.34687,1.01923 4.34687,2.93585 0,2.30175 -2.47913,2.27605 -4.22902,-0.0438 z m -128.77098,432.6118 c 0,-0.92588 -0.54,-2.22342 -1.2,-2.88342 -0.93333,-0.93333 -0.93333,-1.2 0,-1.2 0.66667,0 1.2,-1.33333 1.2,-3 0,-1.65 -0.45,-3 -1,-3 -1.3898,0 -1.25039,-1.89232 0.25,-3.39358 0.87933,-0.87983 1.35236,-6.58136 1.59518,-19.22713 0.29702,-15.46799 0.12403,-18.15996 -1.23977,-19.29181 -3.09757,-2.57075 -16.60541,-32.24285 -16.60541,-36.47639 0,-0.65351 -0.8694,-2.89349 -1.93201,-4.97773 -2.04383,-4.00885 -10.54617,-30.04725 -11.47212,-35.13336 -0.30039,-1.65 -0.80366,-5.43995 -1.11837,-8.4221 -0.31471,-2.98216 -0.81256,-5.81102 -1.10634,-6.28636 -0.57577,-0.93162 -1.67879,-13.76371 -1.74422,-20.29154 -0.0595,-5.93386 2.35815,-26.91553 4.0905,-35.5 0.83243,-4.125 1.66072,-9.75 1.84064,-12.5 0.17993,-2.75 0.97041,-6.80594 1.75662,-9.01321 0.78622,-2.20727 1.76293,-6.03227 2.17046,-8.5 0.40753,-2.46773 1.07765,-4.93679 1.48914,-5.48679 0.4115,-0.55 1.00713,-2.68625 1.32362,-4.74723 0.88864,-5.7868 7.48523,-18.46217 10.85808,-20.86385 2.46373,-1.75433 4.04579,-2.04539 9.29953,-1.71085 l 6.33074,0.40311 0.59514,-25.04059 c 1.4888,-62.64173 1.61345,-82.06647 0.51042,-79.54059 -0.60046,1.375 -1.45056,6.1 -1.88912,10.5 -0.43856,4.4 -1.7609,10.7 -2.93854,14 -1.17763,3.3 -2.36644,7.575 -2.64179,9.5 -0.91712,6.41161 -1.64907,9.48165 -2.7418,11.5 -0.59553,1.1 -1.22587,2.8622 -1.40074,3.916 -0.50068,3.01708 -6.33922,14.35906 -8.66932,16.84107 -1.16079,1.23646 -3.23552,3.16245 -4.61052,4.27997 -2.99854,2.43703 -12.56173,12.86209 -15.86256,17.29216 -1.29941,1.74394 -3.18935,3.1708 -4.19987,3.1708 -1.95343,0 -9.79467,4.91796 -11.91533,7.4732 -0.69692,0.83974 -1.78434,1.5268 -2.41648,1.5268 -0.63214,0 -3.24382,1.9125 -5.80373,4.25 -13.11046,11.9714 -25.28354,21 -28.31389,21 -1.32264,0 -2.31106,0.32748 -2.19647,0.72773 0.11458,0.40026 -1.61002,2.25651 -3.83246,4.125 -2.22243,1.8685 -5.59743,4.85769 -7.5,6.64264 -1.90256,1.78496 -3.76457,3.24746 -4.13778,3.25 -0.37322,0.003 -1.27322,0.57656 -2,1.27559 C 355.24534,572.43968 346.07074,578 344.74716,578 c -0.69108,0 -3.95896,2.05523 -7.26195,4.56717 -3.30299,2.51195 -6.23924,4.33338 -6.52499,4.04762 C 330.32853,585.9831 333.18311,583 334.41927,583 c 0.48586,0 1.87881,-1.3464 3.09545,-2.99199 1.21664,-1.6456 2.76377,-2.8831 3.43806,-2.75 0.67429,0.13309 1.11503,-0.31585 0.97943,-0.99765 C 341.66224,574.90293 348.7924,570 351.03644,570 c 0.76859,0 1.95352,-0.67005 2.63318,-1.48899 0.67967,-0.81894 1.52723,-1.30885 1.88348,-1.08868 0.89102,0.55069 3.24357,-1.36639 5.89915,-4.80719 1.22458,-1.58667 2.22651,-2.39648 2.22651,-1.79956 0,1.01477 2.9636,-1.74192 9.10129,-8.46583 2.95444,-3.23663 6.12163,-5.57022 6.97655,-5.14032 0.31782,0.15981 2.20029,-0.94693 4.18328,-2.45943 1.98299,-1.5125 4.16046,-2.75 4.83882,-2.75 0.67837,0 0.94875,-0.28465 0.60085,-0.63255 -0.59497,-0.59496 1.06005,-2.03415 10.79921,-9.39096 2.2,-1.66185 5.20593,-3.99288 6.67983,-5.18008 1.47391,-1.1872 3.27391,-2.24638 4,-2.35375 0.7261,-0.10736 3.57017,-2.31331 6.32017,-4.90209 2.75,-2.58879 6.38702,-5.31897 8.08227,-6.06707 1.69525,-0.7481 4.17025,-2.9576 5.5,-4.91001 1.32975,-1.9524 2.68023,-3.5529 3.00106,-3.55666 1.3326,-0.0156 14.28794,-13.81528 16.43569,-17.50683 1.79586,-3.08674 5.48098,-18.59068 5.48098,-23.05946 0,-0.30722 0.41567,-0.30168 0.92371,0.0123 2.07123,1.28009 7.83473,-18.74671 8.4634,-29.40831 0.20101,-3.40883 1.08732,-7.11967 2.05222,-8.59229 0.93413,-1.42566 1.69982,-4.02314 1.70153,-5.77218 0.002,-1.74904 0.39111,-5.43007 0.86532,-8.18007 0.47421,-2.75 1.13523,-12.67609 1.46892,-22.05799 0.58003,-16.30735 0.51691,-17.13926 -1.43419,-18.90499 -1.1225,-1.01584 -2.04091,-2.45224 -2.04091,-3.192 0,-1.97038 -5.71652,-1.69148 -13.16091,0.64209 -3.4865,1.0929 -7.46409,1.99032 -8.83909,1.99426 -1.375,0.004 -7.225,1.33594 -13,2.96 -9.26989,2.6069 -29.90878,7.73932 -44.5,11.06613 -2.75,0.627 -10.175,3.56618 -16.5,6.53152 -13.1253,6.15349 -26.76012,10.39915 -35.5,11.05411 -8.17263,0.61245 -9.19188,0.99795 -15.5,5.86225 -3.025,2.33264 -6.5251,4.78202 -7.77801,5.44307 -1.2529,0.66105 -2.01703,1.62417 -1.69806,2.14028 0.31897,0.5161 -0.0557,0.69444 -0.83265,0.39631 -2.35512,-0.90375 -4.56203,5.50348 -5.211,15.12888 -1.02393,15.18666 -3.63113,28.58536 -6.13234,31.51483 -1.58117,1.8519 -1.78078,5.53572 -0.34794,6.42126 2.15733,1.3333 0.72371,3.87175 -5.92886,10.49797 -4.0048,3.98894 -9.41069,8.15424 -12.80983,9.87012 -3.23453,1.63279 -6.47165,3.68043 -7.19359,4.55031 -0.72193,0.86988 -2.10255,1.5816 -3.06804,1.5816 -0.96549,0 -3.43399,0.70134 -5.48555,1.55854 -3.96737,1.65768 -28.32005,4.20393 -37.51413,3.92238 -3.54115,-0.10844 -7.63693,-1.13424 -11.5,-2.88021 -3.3,-1.49147 -6.225,-2.75675 -6.5,-2.81173 -5.55123,-1.10969 -15.5856,-9.79901 -17.75588,-15.3758 -5.57544,-14.32674 -5.96305,-23.44225 -1.52708,-35.91318 1.36946,-3.85 2.71944,-8.2375 2.99994,-9.75 0.28051,-1.5125 0.85668,-2.75 1.28038,-2.75 1.49478,0 5.31554,-11.25572 5.25181,-15.4715 -0.0859,-5.68023 -2.41943,-9.90818 -7.53505,-13.65201 -4.11678,-3.01285 -4.41801,-3.07294 -13.04153,-2.60142 -8.37281,0.4578 -9.00853,0.65627 -12.34433,3.8538 -2.0513,1.96626 -5.75119,7.96349 -8.87831,14.39101 -5.78159,11.88355 -7.84045,21.42427 -6.57752,30.48012 1.08107,7.75183 0.25603,24.61873 -1.4292,29.21807 -0.8629,2.35506 -2.5858,7.43193 -3.82865,11.28193 -1.24286,3.85 -3.44121,9.94334 -4.88523,13.54075 -5.55343,13.83497 -6.20692,20.2253 -7.71664,75.45925 -0.55623,20.35 -1.22419,44.425 -1.48436,53.5 -0.99885,34.84105 -1.70103,110.93729 -1.05099,113.89691 0.37485,1.7067 1.025,3.10309 1.44478,3.10309 0.41977,0 4.04307,-3.2625 8.05177,-7.25 l 7.28855,-7.25 -6.63123,7.74501 c -3.64718,4.25975 -6.63123,8.61535 -6.63123,9.6791 0,2.0544 4.05668,3.22074 16,4.60019 3.025,0.34938 7.075,1.03424 9,1.52191 1.925,0.48766 7.55,1.36322 12.5,1.94568 4.95,0.58245 18.9,2.39693 31,4.03218 12.1,1.63524 24.025,3.18683 26.5,3.44798 2.475,0.26115 6.975,0.79815 10,1.19333 3.025,0.39517 6.175,0.80516 7,0.91107 9.8254,1.26141 18.62193,2.68989 19.35531,3.14314 0.94116,0.58167 2.51368,0.76805 13.75434,1.63018 3.63531,0.27882 8.13531,0.75222 10,1.052 1.86469,0.29977 5.64035,0.80614 8.39035,1.12525 8.21826,0.95365 11.86294,1.49686 14.5,2.16114 1.375,0.34636 3.29601,0.52849 4.2689,0.40473 0.9729,-0.12376 6.1479,0.4513 11.5,1.2779 5.35211,0.8266 12.6561,1.8041 16.2311,2.17223 3.575,0.36812 7.175,0.79509 8,0.94881 0.825,0.15372 3.975,0.56552 7,0.91511 3.025,0.34959 10,1.27722 15.5,2.0614 5.5,0.78417 11.8,1.67858 14,1.98758 14.20774,1.99553 19.19302,2.71779 20.6393,2.99019 3.0495,0.57436 4.35673,-1.34343 5.55942,-8.156 l 1.19872,-6.79011 -0.39096,6.53443 c -0.21504,3.59394 8e-5,7.16717 0.47804,7.94052 0.51407,0.83179 3.65585,1.73345 7.69224,2.2076 3.75278,0.44083 10.64824,1.25297 15.32324,1.80476 4.675,0.55178 11.2,1.27768 14.5,1.6131 3.3,0.33542 6.12308,0.72312 6.2735,0.86156 1.01565,0.9347 5.2265,-0.98163 5.2265,-2.37855 z M 417.85139,757 c -0.0316,-1.925 0.31495,-5.3 0.77,-7.5 l 0.82737,-4 0.0574,3.5 c 0.0316,1.925 -0.31495,5.3 -0.77,7.5 l -0.82737,4 z m 3.97608,-31.5 c -0.0128,-1.65 0.59129,-6.375 1.34233,-10.5 l 1.36552,-7.5 -0.56249,7.92846 c -0.30937,4.36065 -0.91342,9.08565 -1.34233,10.5 -0.77292,2.54874 -0.78004,2.54494 -0.80303,-0.42846 z M 162.05023,716.70932 C 164.72954,713.5692 167.13395,711 167.39335,711 c 0.6711,0 -7.65804,9.84788 -9.05516,10.70629 -0.63769,0.3918 1.03273,-1.85684 3.71204,-4.99697 z M 186.21143,689.5 c 6.35043,-7.09549 7.46733,-8.14633 7.46733,-7.02568 0,1.06597 -12.17268,14.52568 -13.13671,14.52568 -0.5737,0 1.97753,-3.375 5.66938,-7.5 z m 240.34891,-4.75 c -0.0651,-0.6875 -0.0217,-1.7 0.0964,-2.25 0.11817,-0.55 0.79778,-4.15 1.51024,-8 l 1.29537,-7 0.0945,7 c 0.052,3.85 -0.17681,8.0125 -0.50845,9.25 -0.64519,2.40755 -2.29208,3.06944 -2.48813,1 z M 201.67876,672.70295 c 0,-0.16338 1.89173,-2.07588 4.20384,-4.25 l 4.20383,-3.95295 -3.45383,4.16535 c -2.94003,3.54569 -4.95384,5.18704 -4.95384,4.0376 z m 21.80761,-24.34346 c 0.55393,-1.03503 2.0339,-2.77683 3.28883,-3.87068 l 2.28168,-1.98881 -2.23562,3.21976 c -2.60594,3.75309 -4.90445,5.57247 -3.33489,2.63973 z m 16.19239,-18.64708 c 0,-0.15818 2.33189,-2.52068 5.18197,-5.25 l 5.18198,-4.96241 -4.27509,5.25 c -3.53038,4.33546 -6.08886,6.42061 -6.08886,4.96241 z M 260.30847,606.75 c 7.03481,-7.56544 10.60344,-11.11977 9.28722,-9.25 -3.26508,4.63826 -10.3745,12.5 -11.30382,12.5 -0.55299,0 0.35448,-1.4625 2.0166,-3.25 z m 27.37029,-2.42855 c 0,-0.93509 1.60807,-1.32145 5.5,-1.32145 3.025,0 5.5,0.45 5.5,1 0,1.07711 -0.31772,1.14512 -6.75,1.44485 -2.9558,0.13773 -4.25,-0.20436 -4.25,-1.1234 z m -3.5,-0.32145 c -0.35101,-0.56794 -1.0571,-0.77373 -1.5691,-0.45729 -0.51199,0.31643 -0.9309,0.14637 -0.9309,-0.37791 0,-0.52427 1.12468,-0.88833 2.49929,-0.80901 2.55094,0.14719 3.23981,1.06939 1.56981,2.1015 -0.512,0.31644 -1.21809,0.11065 -1.5691,-0.45729 z m 17.83333,-2.53333 c 0,-1.00218 0.33975,-1.19359 0.98077,-0.55257 0.64102,0.64102 1.662,0.11471 2.94734,-1.51933 1.08161,-1.37505 2.20341,-2.26325 2.49288,-1.97378 0.28947,0.28947 1.79932,-0.22568 3.35523,-1.14477 1.5559,-0.9191 3.17955,-1.32045 3.60811,-0.89189 0.94585,0.94585 -2.66119,3.76861 -3.86498,3.02462 -0.46897,-0.28984 -0.85268,-0.0239 -0.85268,0.59105 0,0.61492 -0.45,0.83992 -1,0.5 -0.55,-0.33992 -1,-0.11492 -1,0.5 0,0.61492 -0.39901,0.87143 -0.88669,0.57003 -0.48768,-0.30141 -1.44278,0.12204 -2.12245,0.94098 -1.60619,1.93534 -3.65753,1.91047 -3.65753,-0.0443 z m 14.07118,-7.62118 c -0.44419,-0.71872 -0.27409,-0.88292 0.45064,-0.43501 0.64029,0.39572 2.3455,-0.20975 3.78936,-1.3455 1.44387,-1.13574 3.03611,-2.06498 3.53831,-2.06498 0.50221,0 2.03622,-1.2375 3.40892,-2.75 2.15007,-2.36906 2.45376,-2.47295 2.19234,-0.75 -0.30939,2.03912 -8.92751,8.5 -11.33808,8.5 -0.73038,0 -1.64905,-0.51953 -2.04149,-1.15451 z m -36.40451,-8.47501 c 0,-0.53798 1.63144,-2.52892 3.62543,-4.42431 2.18821,-2.08002 3.21568,-2.65332 2.59182,-1.44617 -1.31281,2.54025 -6.21725,7.17114 -6.21725,5.87048 z m 2.81535,-19.4047 c -7.26102,-8.58812 -8.70176,-10.68421 -7.94325,-11.55646 0.43491,-0.50012 1.33247,-2.81448 1.99457,-5.143 1.54549,-5.43522 4.30176,-7.09789 7.11041,-4.28924 2.2423,2.2423 2.58169,6.1216 0.94604,10.81361 -0.93625,2.68572 -0.74036,3.58438 1.5,6.88136 2.92932,4.31088 3.19753,5.87581 1.14223,6.6645 -0.87044,0.33402 -2.73848,-0.99161 -4.75,-3.37077 z m 1.11436,-14.63399 C 283.70507,546.97755 282.79006,545 280.67876,545 c -3.60255,0 -4.12398,7.17468 -0.78011,10.73407 2.04782,2.1798 2.27492,2.22355 2.92972,0.56445 0.3904,-0.98919 0.74145,-3.22422 0.7801,-4.96673 z M 301.67876,560.5 c 4.38283,-4.46578 5,-4.95987 5,-4.00288 0,1.05611 -7.29061,8.50288 -8.32457,8.50288 -0.60052,0 0.89554,-2.025 3.32457,-4.5 z m -5.6528,-9.99001 c -1.48142,-1.08479 -1.84308,-2.67616 -1.82638,-8.03653 0.0181,-5.81221 0.33002,-6.93426 2.39167,-8.60368 1.30396,-1.05588 2.61174,-1.67889 2.90617,-1.38445 0.29444,0.29443 -0.1637,1.09319 -1.01808,1.775 -2.34082,1.86803 -2.99031,7.34983 -1.33904,11.30186 1.64337,3.93314 2.12869,4.10153 4.86452,1.68781 1.95976,-1.72902 1.96299,-1.71804 0.26875,0.91603 -2.18249,3.39317 -3.92302,4.04618 -6.24761,2.34396 z M 316.70807,543.25 c 0.0354,-0.90678 4.69604,-5.98826 8.02526,-8.75 2.5804,-2.14056 2.1677,-1.4069 -2.95324,5.25 -2.99426,3.89235 -5.14537,5.37674 -5.07202,3.5 z m -4.73003,-8.5 c -3.93643,-4.32184 -4.41416,-6.27605 -3.44417,-14.08901 0.83092,-6.69284 2.69655,-12.44266 3.70881,-11.4304 0.22103,0.22103 -0.0465,1.94707 -0.59442,3.83564 -0.54797,1.88857 -0.73635,4.64018 -0.41862,6.11467 0.68935,3.19917 2.95214,5.43225 3.91911,3.86766 1.42999,-2.31378 2.03644,-0.71589 2.16689,5.70934 0.12328,6.0722 -0.56833,8.16975 -2.71257,8.22679 -0.31662,0.008 -1.49789,-0.99719 -2.62503,-2.23469 z m 135.70072,-6.08503 c 0,-4.86777 2.27299,-22.30338 3.07723,-23.60481 0.93928,-1.51993 0.5565,9.66107 -0.67328,19.66653 -0.48771,3.96802 -2.40395,7.1073 -2.40395,3.93828 z m -114,-4.50793 c 0,-0.42911 2.73618,-3.67749 6.08041,-7.21862 6.66788,-7.06049 6.88134,-6.3289 0.51117,1.75192 -3.88667,4.9304 -6.59158,7.17371 -6.59158,5.4667 z m 17,-19.95409 c 0,-0.43838 1.8,-2.55471 4,-4.70295 4.73102,-4.61971 5.29981,-3.53258 0.9272,1.77216 -2.89626,3.51365 -4.9272,4.7217 -4.9272,2.93079 z m 14,-20.70295 c 0,-0.96626 0.97853,-1.50505 2.75,-1.5142 2.05899,-0.0106 3.75511,-1.22721 6.75,-4.8416 2.2,-2.65508 5.05791,-5.62895 6.3509,-6.6086 2.30848,-1.74905 2.33066,-1.74337 1.22927,0.3146 -0.6169,1.15268 -3.37871,4.80794 -6.13736,8.12279 -4.06551,4.88522 -5.57715,6.02701 -7.97927,6.02701 -1.96759,0 -2.96354,-0.5041 -2.96354,-1.5 z m 30.00432,-29.25 c 0.006,-1.00181 8.42424,-10.25 9.3304,-10.25 0.95498,0 -2.09844,4.84069 -5.20395,8.25 -2.44686,2.68623 -4.13511,3.50449 -4.12645,2 z m 63.99245,-12 c -0.007,-3.85402 3.36667,-22.81477 4.22596,-23.75 0.57065,-0.62108 0.72346,-0.0527 0.4033,1.5 -0.28353,1.375 -0.79585,6.325 -1.1385,11 -0.34266,4.675 -0.86631,9.5125 -1.16368,10.75 -0.63842,2.6568 -2.32243,3.01863 -2.32708,0.5 z m -45.99677,-8.82165 c 0,-1.06414 14.24397,-17.30799 15.65032,-17.84766 1.10863,-0.42542 1.17675,-0.12608 0.33095,1.4543 -1.46525,2.73784 -9.75634,13.07645 -12.20174,15.21501 -1.97567,1.72777 -3.77953,2.29016 -3.77953,1.17835 z m 22.54852,-25.34984 c -0.32165,-0.52045 1.88194,-3.56352 4.89687,-6.76239 6.25138,-6.63278 7.78157,-5.18335 1.94173,1.83927 -4.09915,4.92938 -5.99239,6.29232 -6.8386,4.92312 z m 29.07608,-3.87691 c -1.08048,-1.74825 0.55882,-15.08486 2.08438,-16.95762 1.24667,-1.5304 1.36383,-0.7448 0.95666,6.41465 -0.46142,8.11338 -1.76006,12.61564 -3.04104,10.54297 z m -10.6246,-17.31139 c 0,-1.15571 9.60932,-12.14004 11.13082,-12.72354 2.46275,-0.94448 0.27543,3.32182 -4.23116,8.25274 -4.99191,5.46195 -6.89966,6.69812 -6.89966,4.4708 z M 464.14236,719.25 c -0.35075,-5.3625 -1.0158,-11.22528 -1.47789,-13.02839 -0.4621,-1.80311 -0.63738,-10.80311 -0.38953,-20 0.35436,-13.14865 0.9692,-18.85834 2.87748,-26.72161 2.27616,-9.37913 2.48281,-12.63871 3.32837,-52.5 0.49585,-23.375 0.85574,-48.34132 0.79976,-55.48071 l -0.10179,-12.98071 -3.66332,-0.59778 c -7.02347,-1.1461 -9.91685,0.71646 -14.07297,9.0592 -2.36043,4.73817 -4.30299,10.63008 -5.27522,16 -0.84641,4.675 -2.1932,11.425 -2.99287,15 -0.79967,3.575 -1.47721,9.2 -1.50566,12.5 -0.0828,9.60487 -1.78787,20.26195 -3.71151,23.19759 -3.20157,4.88589 -2.52139,24.75423 1.67804,49.0162 1.28308,7.41297 7.62158,29.56745 9.50167,33.21052 0.73109,1.41663 2.50261,6.07423 3.93672,10.35022 4.48269,13.36581 9.11718,22.5936 11.40578,22.71016 0.16536,0.008 0.0137,-4.37219 -0.33706,-9.73469 z m -390.958977,3.8492 4.57409,-2.90079 -5.0523,-6.07095 c -2.77876,-3.33902 -5.94646,-6.54949 -7.03935,-7.13438 -1.76681,-0.94557 -1.98706,-0.74738 -1.98706,1.78808 0,6.72829 2.79506,17.21884 4.58772,17.21884 0.18855,0 2.40116,-1.30536 4.9169,-2.9008 z M 474.06567,629.66028 c 0.88328,-4.31185 1.89192,-8.30243 2.24144,-8.86795 1.35046,-2.18509 4.51365,-16.87255 6.84702,-31.79233 2.7934,-17.86128 1.56659,-31.15666 -3.89888,-42.2536 -2.24306,-4.55424 -3.61829,-6.2464 -5.07649,-6.2464 -1.92907,0 -2.0234,0.88662 -2.65987,25 -0.59713,22.62341 -1.1473,68.01834 -0.88473,73 0.1858,3.52507 1.695,-0.3627 3.43151,-8.83972 z M 139.53118,500 c 0.76556,-1.925 2.80666,-7.55 4.53579,-12.5 1.72913,-4.95 3.42725,-9.45 3.7736,-10 1.29077,-2.04972 1.93029,-18.14191 0.924,-23.25055 -0.6776,-3.43997 -0.71978,-8.57439 -0.12232,-14.88942 0.83665,-8.84318 1.37742,-10.57109 6.55093,-20.93181 3.50714,-7.02356 7.40965,-13.16906 10.32253,-16.25546 l 4.68351,-4.96251 8.48977,0.19015 c 6.88008,0.1541 9.29971,0.64541 12.76154,2.59125 5.24915,2.95047 10.23022,10.30562 10.22329,15.0959 -0.005,3.4443 -3.8946,15.19805 -8.07871,24.41245 -2.21837,4.88539 -5.95218,20.25429 -5.52612,22.74631 0.79768,4.66565 5.50429,16.11772 8.45022,20.56098 3.03942,4.58427 4.61821,5.82707 11.58917,9.12277 13.14686,6.21552 14.33916,6.43845 30.53087,5.70861 17.67859,-0.79686 26.35613,-2.53719 33.84782,-6.78839 8.51668,-4.83282 12.11311,-7.91836 14.39519,-12.35028 1.13283,-2.2 3.97465,-6.97297 6.31516,-10.60661 3.93494,-6.10897 4.34283,-7.38949 5.41518,-17 0.63784,-5.71636 1.32394,-14.78177 1.52467,-20.14535 0.52639,-14.06518 5.09759,-22.47433 13.43782,-24.72012 2.13605,-0.57518 5.88921,-2.16667 8.34036,-3.53664 3.2058,-1.79176 6.67485,-2.67122 12.35997,-3.13345 4.34684,-0.35342 10.0575,-1.47851 12.69036,-2.50021 2.63286,-1.02169 5.48956,-1.85762 6.34821,-1.85762 0.85865,0 7.39014,-2.925 14.51441,-6.5 7.12427,-3.575 13.64724,-6.5 14.49549,-6.5 0.84824,0 5.8876,-1.34283 11.19857,-2.98406 5.31096,-1.64123 13.0313,-3.63861 17.1563,-4.43863 8.27352,-1.6046 19.65694,-5.39488 16.5,-5.49393 -1.99481,-0.0626 -21.96394,1.49037 -30.5,2.37192 -4.36105,0.45038 -25.1369,2.49125 -66.5,6.53247 -11,1.07472 -29.9,2.88936 -42,4.03255 -12.1,1.14319 -35.275,3.38756 -51.5,4.9875 -16.225,1.59994 -43.9,4.29512 -61.5,5.98928 -17.6,1.69417 -32.76203,3.31013 -33.69341,3.59103 -1.01459,0.30599 -2.28196,2.59543 -3.16163,5.7113 -1.95715,6.93241 -2.85128,21.09425 -1.42206,22.52347 0.78978,0.78978 0.77208,1.47822 -0.0639,2.48555 -1.35038,1.62711 -1.26409,9.50855 0.11343,10.3599 0.57309,0.35419 0.54402,0.82708 -0.0743,1.20924 -1.38412,0.85543 -2.44118,37.1332 -1.58765,54.48692 0.71207,14.47738 0.96562,14.874 4.24201,6.63549 z M 1055.2531,467.5254 C 1053.2136,465.03643 1051.05,463 1050.4452,463 c -0.6049,0 -0.7955,0.30428 -0.4235,0.67618 0.3719,0.37191 2.3288,2.61499 4.3487,4.98463 4.8578,5.69904 5.6491,4.68131 0.8827,-1.13541 z m 2.4257,-3.89596 c 0,-1.68622 -10.0535,-16.71738 -15.5,-23.17429 -10.5886,-12.55298 -15.8344,-18.98776 -19.7408,-24.21516 -5.0463,-6.75268 -4.3866,-5.79235 -18.1479,-26.41901 -5.98874,-8.97654 -12.17624,-18.24664 -13.75004,-20.60022 -1.5737,-2.35358 -2.8613,-4.54471 -2.8613,-4.86919 0,-0.32447 -1.6301,-3.27331 -3.6223,-6.55297 -3.3696,-5.54685 -9.5265,-19.03911 -11.3188,-24.8037 -0.4283,-1.3778 -2.2977,-5.7653 -4.1542,-9.75 -3.0945,-6.64188 -3.6263,-7.24523 -6.3901,-7.24886 -10.3496,-0.0136 -78.5146,7.81265 -78.5146,9.01451 0,0.87055 20.6994,12.81458 26.8308,15.48197 2.3819,1.03623 5.9819,3.73884 8,6.00579 3.6849,4.13939 12.1752,10.50169 14.0141,10.50169 0.5415,0 4.1691,2.3625 8.0613,5.25 13.3098,9.87417 15.3071,11.25513 22.3299,15.43926 10.0403,5.98201 31.5235,25.71699 41.21434,37.86051 5.8103,7.28091 19.0112,19.90206 27.3145,26.11503 7.2316,5.41104 15.1156,12.44175 21.9622,19.5852 4.0077,4.18151 4.2729,4.32917 4.2729,2.37944 z M 914.67876,317.48087 c 5.775,-0.39674 12.3,-0.86035 14.5,-1.03025 2.2,-0.1699 8.5,-0.59694 14,-0.94898 5.5,-0.35204 10.675,-0.88647 11.5,-1.18761 0.825,-0.30115 3.3,-0.6075 5.5,-0.68079 3.0267,-0.10082 3.9033,-0.49824 3.6026,-1.63324 -0.2186,-0.825 -1.7015,-6 -3.2954,-11.5 -1.5938,-5.5 -3.289,-11.35 -3.7669,-13 -0.478,-1.65 -1.5199,-5.37476 -2.3153,-8.27725 -0.7954,-2.90248 -1.7116,-5.54268 -2.036,-5.8671 -0.6504,-0.65037 -4.6903,2.26644 -10.5878,7.64435 -7.8348,7.14459 -17.7629,15.88817 -23.1012,20.34507 -3.025,2.52555 -6.0895,5.29097 -6.8099,6.14538 -0.7205,0.85442 -1.6467,1.34538 -2.0583,1.09103 -0.4115,-0.25435 -2.072,0.61958 -3.69,1.94207 -2.5855,2.11331 -2.6996,2.41273 -0.9418,2.47229 1.9735,0.0669 1.9743,0.0872 0.059,1.53596 -2.6952,2.03853 -5.2581,2.01563 -3.5589,-0.0318 1.5002,-1.80767 0.9308,-1.88123 -2.4916,-0.32188 -1.4822,0.67532 -2.3692,1.74227 -2.0784,2.5 0.3517,0.91646 -0.4213,1.32188 -2.5204,1.32188 -1.6652,0 -2.794,0.37798 -2.5085,0.83995 0.2855,0.46197 3.1246,0.50747 6.309,0.10111 3.1844,-0.40636 10.5149,-1.06345 16.2899,-1.46019 z m 53.5966,1212.67533 c -0.3461,-0.5599 -0.1419,-1.3192 0.4536,-1.6872 1.5375,-0.9503 2.5295,0.3513 1.246,1.6348 -0.7182,0.7182 -1.2775,0.7354 -1.6996,0.052 z m -127.5177,-142.5729 c -0.043,-1.0541 0.193,-1.6448 0.5253,-1.3125 0.3323,0.3323 0.3678,1.1948 0.079,1.9167 -0.3192,0.7977 -0.5562,0.5608 -0.6042,-0.6042 z m 119.6711,-39.6634 c -0.9625,-0.5606 -1.75,-2.1917 -1.75,-3.6246 0,-2.3768 0.1535,-2.4758 1.75,-1.1294 3.7397,3.1539 9.8653,1.8771 12.8502,-2.6785 6.4563,-9.8536 1.1534,-18.7273 -10.1761,-17.0283 -4.0825,0.6122 -4.5444,0.9365 -4.082,2.8656 1.7296,7.2164 1.7715,9.3361 0.2102,10.6319 -0.8804,0.7306 -1.907,1.0221 -2.2814,0.6477 -1.416,-1.4161 -5.1909,-19.3436 -5.23,-24.8385 -0.035,-4.8775 0.3708,-6.195 2.7146,-8.8182 2.4312,-2.721 3.0715,-2.9639 5.4399,-2.0634 2.8452,1.0817 4.7846,5.7723 4.8028,11.6158 0.01,2.6171 0.5909,3.2392 4.5658,4.874 2.5061,1.0307 6.1044,3.3338 7.9962,5.1181 3.0173,2.8455 3.4369,3.8438 3.4164,8.126 -0.028,5.8293 -4.1622,14.1702 -7.9766,16.0925 -2.998,1.5109 -9.8153,1.6274 -12.25,0.2093 z m -0.7653,-34.9788 c 0.01,-2.5073 -0.6027,-5.404 -1.358,-6.4369 -1.3218,-1.8077 -1.4003,-1.7929 -2.095,0.3958 -0.6699,2.1109 -0.186,7.0242 1.1309,11.4821 0.9093,3.078 2.3045,-0.1911 2.3221,-5.441 z m -22.4047,-13.8527 c -2.6163,-2.8909 -1.7188,-7.2227 1.7334,-8.3657 2.2736,-0.7529 3.0829,-0.5758 4.2182,0.9228 1.4983,1.978 1.8539,5.1863 0.8614,7.7727 -0.8347,2.1752 -4.716,1.9874 -6.813,-0.3298 z m 2.7634,-17.1002 c 0.7266,-6.9515 1.1486,-7.8962 2.7924,-6.2524 0.8033,0.8033 0.7715,2.4821 -0.1171,6.1864 -1.8393,7.6667 -3.4739,7.707 -2.6753,0.066 z m 4.0746,-27.4811 c 0.2957,-1.6461 0.8319,-5.5936 1.1915,-8.7724 0.6903,-6.101 2.3905,-8.8964 2.3905,-3.9302 0,4.4462 -1.8977,13.4944 -3.0747,14.6604 -0.7253,0.7185 -0.8805,0.1196 -0.5073,-1.9578 z m 4.7099,-34.0071 c -0.01,-1.1 0.3597,-3.8 0.8147,-6 l 0.8274,-4 0.045,4 c 0.025,2.2 -0.342,4.9 -0.8147,6 -0.8594,2 -0.8594,2 -0.8721,0 z m 56.37384,-21.75 c -0.2396,-0.6875 -0.563,-6.6049 -0.7186,-13.1498 -0.2101,-8.8309 0.039,-12.0116 0.9669,-12.3333 0.8805,-0.3054 1.25,0.9128 1.25,4.1213 0,2.5052 0.7414,7.9291 1.6476,12.0531 1.339,6.0937 1.4097,7.7847 0.3775,9.0284 -1.5394,1.8549 -2.936,1.966 -3.5234,0.2803 z m 12.7938,-2.4383 c -3.97,-4.2565 -8.6059,-18.8781 -7.7676,-24.499 1.0817,-7.2519 3.8399,-10.723 8.5671,-10.7809 5.2429,-0.064 7.1026,4.9255 5.4588,14.6466 l -0.6463,3.8216 3.7963,0 3.7962,0 0.2957,6.75 c 0.3026,6.9089 0.8111,7.566 4.3774,5.6574 3.4402,-1.8412 4.6747,0.5612 1.8393,3.5794 -4.9187,5.2357 -12.0124,1.5835 -12.0124,-6.1846 0,-3.2273 -0.4135,-4.1771 -1.999,-4.5917 -2.7548,-0.7204 -2.9302,-0.049 -1.7164,6.5673 1.394,7.5993 0.02,9.3327 -3.9891,5.0339 z m 1.2411,-22.7683 c 1.86,-4.8704 1.3559,-9.8231 -0.9113,-8.9531 -2.7699,1.0629 -4.519,7.9171 -3.0183,11.8279 1.0108,2.6341 2.1417,1.8067 3.9296,-2.8748 z m -560.45769,17.0399 c -0.0434,-1.0541 0.19293,-1.6448 0.52522,-1.3125 0.33229,0.3323 0.36781,1.1948 0.0789,1.9167 -0.31922,0.7977 -0.55618,0.5608 -0.60416,-0.6042 z M 952.70936,1189.5 c 0,-0.55 0.4362,-1.675 0.9694,-2.5 0.5332,-0.825 0.9694,-1.05 0.9694,-0.5 0,0.55 -0.4362,1.675 -0.9694,2.5 -0.5332,0.825 -0.9694,1.05 -0.9694,0.5 z m -494.0306,-13.441 c 0,-0.5824 0.45,-1.059 1,-1.059 0.55,0 1,0.1984 1,0.441 0,0.2425 -0.45,0.7191 -1,1.059 -0.55,0.3399 -1,0.1415 -1,-0.441 z m 511.5694,-0.6324 c -2.0649,-2.0649 -1.9817,-3.7435 0.2871,-5.7968 1.1004,-0.9958 1.6899,-2.5863 1.4474,-3.9049 -0.225,-1.2237 0,-4.0249 0.5053,-6.2249 0.7501,-3.2814 1.0588,-3.658 1.7185,-2.0963 0.4424,1.0471 0.3664,4.0413 -0.1687,6.6537 -0.7365,3.5954 -0.6554,5.1844 0.334,6.5374 1.8246,2.4953 1.6311,4.1614 -0.6236,5.368 -1.4572,0.7799 -2.3153,0.6485 -3.5,-0.5362 z m -511.49045,-3.8433 c -0.0434,-1.0541 0.19293,-1.6448 0.52522,-1.3125 0.33229,0.3323 0.36781,1.1948 0.0789,1.9167 -0.31922,0.7977 -0.55618,0.5608 -0.60416,-0.6042 z m 499.40915,-21.7044 c 0.7773,-6.9406 1.8223,-8.9685 3.6695,-7.1213 0.8123,0.8123 0.8461,1.5431 0.1131,2.45 -0.5745,0.7108 -1.3596,3.2025 -1.7446,5.5372 -1.1699,7.0929 -2.8494,6.3793 -2.038,-0.8659 z m 223.12634,-6.1289 c -6.3185,-9.9298 -5.8312,-25.6535 0.847,-27.3297 3.3132,-0.8315 4.5386,0.159 4.5386,3.6687 l 0,2.9709 2.8295,-2.092 c 6.7212,-4.9692 14.1743,-1.1087 14.1668,7.3379 0,5.3986 -3.1214,10.6942 -6.2938,10.6942 -4.0526,0 -10.6137,-3.7982 -11.3026,-6.543 -0.4874,-1.9418 -0.9295,-2.2624 -1.9511,-1.4145 -0.9727,0.8072 -1.1677,2.9229 -0.7398,8.0268 0.3196,3.8119 0.3012,6.9307 -0.041,6.9307 -0.3421,0 -1.2663,-1.0125 -2.0537,-2.25 z m 18.1856,-10.95 c 1.6701,-1.6701 1.5036,-8.3032 -0.245,-9.7543 -0.7947,-0.6596 -2.4822,-1.0507 -3.75,-0.8692 -2.419,0.3463 -2.5472,1.2084 -1.2755,8.5735 0.5921,3.4295 2.9672,4.3533 5.2705,2.05 z m -9.1377,-4.05 c -0.2774,-0.6875 -0.5044,-0.125 -0.5044,1.25 0,1.375 0.227,1.9375 0.5044,1.25 0.2774,-0.6875 0.2774,-1.8125 0,-2.5 z m -6.2073,-7.5 c 0.4953,-1.6393 0.2704,-2.25 -0.8286,-2.25 -2.0667,0 -2.8854,1.6086 -2.0916,4.1096 0.7343,2.3136 1.8798,1.5841 2.9202,-1.8596 z m -208.86374,21.8978 c -1.0375,-1.6787 0.5476,-9.1478 1.9414,-9.1478 0.919,0 1.1281,1.1914 0.7458,4.25 -0.5703,4.5629 -1.6631,6.5547 -2.6872,4.8978 z m 237.21344,-7.3609 c -5.2533,-8.1524 -5.0565,-19.6733 0.4362,-25.5369 2.5886,-2.7634 5.3457,-2.891 6.7262,-0.3114 0.9141,1.708 0.7185,1.9161 -1.6449,1.75 -1.9856,-0.1396 -3.0901,0.5235 -4.2523,2.5528 -2.2373,3.9067 -0.5016,6.3326 4.3207,6.0385 4.4159,-0.2693 4.5835,0.94 0.5443,3.9264 -2.8556,2.1112 -3.0436,2.6364 -2.75,7.6808 0.3495,6.0062 -1.0112,7.5761 -3.3802,3.8998 z M 962.14966,1121.25 c 0.3872,-3.7125 1.1705,-7.2 1.7407,-7.75 0.7142,-0.6889 0.8277,1.0224 0.3648,5.5 -0.3695,3.575 -0.7254,7.0625 -0.7908,7.75 -0.065,0.6875 -0.5464,1.25 -1.0688,1.25 -0.5755,0 -0.6724,-2.6603 -0.2459,-6.75 z m 167.79994,0.1458 c 0.3323,-0.3323 1.1948,-0.3678 1.9167,-0.079 0.7977,0.3192 0.5608,0.5562 -0.6042,0.6042 -1.0541,0.043 -1.6448,-0.193 -1.3125,-0.5253 z M 1118.6788,1120 c 0,-0.55 0.9,-1 2,-1 1.1,0 2,0.45 2,1 0,0.55 -0.9,1 -2,1 -1.1,0 -2,-0.45 -2,-1 z m -139.12834,-0.8848 c -0.6861,-2.0583 0.2377,-8.1152 1.2377,-8.1152 1.0703,0 1.0567,4.7152 -0.022,7.4745 -0.5279,1.3509 -0.912,1.5533 -1.2162,0.6407 z m -29.3717,-20.6928 c -13.049,-1.5798 -20.0828,-3.2148 -21.5772,-5.0154 -1.812,-2.1833 -0.3706,-2.834 2.235,-1.009 1.258,0.8811 3.4471,1.602 4.8647,1.602 1.4176,0 3.1175,0.54 3.7775,1.2 0.8901,0.8901 1.491,0.909 2.327,0.073 0.6545,-0.6545 2.017,-0.8177 3.25,-0.3893 1.1676,0.4058 3.248,0.6989 4.623,0.6514 1.375,-0.048 3.0959,0.6002 3.8242,1.4393 0.9199,1.0599 1.1017,1.0968 0.5954,0.1211 -0.5245,-1.011 -0.3469,-1.1686 0.6336,-0.5626 2.2451,1.3875 6.0737,1.4961 5.3181,0.1508 -0.4518,-0.8046 -0.2334,-0.7833 0.682,0.066 2.5761,2.3911 -0.5392,2.8848 -10.5533,1.6724 z m -36.9357,-6.1293 c -0.5427,-1.4252 -0.4278,-1.54 0.5598,-0.5598 0.6834,0.6784 0.9907,1.4853 0.6828,1.7932 -0.3079,0.3078 -0.8671,-0.2472 -1.2426,-1.2334 z m 3.9357,0.7069 c -1.6304,-0.7006 -1.6875,-0.8724 -0.309,-0.9297 0.93,-0.039 1.9691,0.3797 2.309,0.9297 0.7107,1.1499 0.6759,1.1499 -2,0 z m 3.5,0 c 0,-0.55 0.45,-1 1,-1 0.55,0 1,0.45 1,1 0,0.55 -0.45,1 -1,1 -0.55,0 -1,-0.45 -1,-1 z m -17.4953,-1.2019 c -5.9323,-0.9503 -8.5047,-2.1565 -8.5047,-3.9879 0,-0.95 4.0645,-0.076 5,1.0746 0.4812,0.5921 2.9905,1.057 7.75,1.436 1.2375,0.099 2.25,0.7417 2.25,1.4292 0,0.6875 -0.1125,1.1957 -0.25,1.1293 -0.1375,-0.066 -2.9479,-0.553 -6.2453,-1.0812 z m -19.8948,-2.6059 c -4.7089,-0.399 -9.3324,-4.1922 -5.1099,-4.1922 0.825,0 1.5,0.4389 1.5,0.9752 0,0.6271 0.8926,0.636 2.5,0.025 2.0177,-0.7671 2.5,-0.6434 2.5,0.6414 0,1.0993 0.6186,1.4301 1.999,1.0691 2.1437,-0.5606 3.827,0.8338 1.7453,1.4457 -0.6844,0.2011 -2.9949,0.2173 -5.1344,0.036 z m 8.3901,-0.6332 c 0,-0.2425 0.45,-0.7191 1,-1.059 0.55,-0.3399 1,-0.1415 1,0.441 0,0.5824 -0.45,1.059 -1,1.059 -0.55,0 -1,-0.1984 -1,-0.441 z m -18,-2.118 c 0,-0.8575 0.45,-1.2809 1,-0.941 0.55,0.3399 1,1.0415 1,1.559 0,0.5176 -0.45,0.941 -1,0.941 -0.55,0 -1,-0.7016 -1,-1.559 z m 93.5403,-3.8532 c 0.3543,-3.2517 1.0614,-6.8517 1.5714,-8 0.6237,-1.4045 0.7327,0.031 0.3329,4.3847 -0.3268,3.5599 -1.0339,7.1599 -1.5713,8 -0.6616,1.0343 -0.7691,-0.3814 -0.333,-4.3847 z m 15.4597,0.1742 c 0,-3.8817 1.3655,-10.762 2.1359,-10.762 1.5409,0 0.9826,9.6568 -0.6359,11 -1.2186,1.0114 -1.5,0.9667 -1.5,-0.238 z m -156.2063,-1.3017 c -0.446,-0.4461 -4.4689,-0.951 -13.4997,-1.6944 -0.6633,-0.055 -0.9696,-0.4819 -0.6807,-0.9494 0.289,-0.4675 3.8371,-0.7645 7.8847,-0.66 6.1919,0.1598 7.4352,0.4798 7.8371,2.0167 0.4548,1.7394 -0.3865,2.442 -1.5414,1.2871 z m -38.5437,-5.1283 c -1.332,-0.5314 -1.7625,-3.3622 -0.5,-3.2879 1.5322,0.09 10.171,2.5436 10.6529,3.0254 0.6634,0.6635 -8.5506,0.9016 -10.1529,0.2625 z m -6.9798,-2.2692 c 0.105,-1.3941 0.5255,-1.5026 2.4207,-0.625 2.9775,1.379 2.9293,2.3122 -0.1193,2.3122 -1.6619,0 -2.3884,-0.5326 -2.3014,-1.6872 z m -7.5204,0.3537 c -0.1634,-0.1635 -2.7615,-0.5604 -5.7735,-0.8822 -6.034,-0.6445 -10.4763,-1.2899 -10.4763,-1.522 0,-0.3455 -6.2777,-1.1329 -9.75,-1.2228 -2.0625,-0.053 -3.75,-0.3815 -3.75,-0.7291 0,-0.3475 -0.7875,-0.6739 -1.75,-0.7253 -0.9625,-0.051 -4.1304,-0.2199 -7.0399,-0.3743 -2.9094,-0.1545 -5.5707,-0.7353 -5.914,-1.2908 -0.3742,-0.6054 0.042,-0.7541 1.0399,-0.3713 0.9291,0.3565 1.664,0.1538 1.664,-0.4589 0,-0.7462 1.6802,-0.8732 5.25,-0.3967 2.8875,0.3855 7.5,0.9083 10.25,1.1619 5.4446,0.5022 17.2223,1.9267 24.75,2.9936 2.6125,0.3703 4.7569,1.1746 4.7653,1.7873 0.01,0.6128 0.4515,0.4391 0.9847,-0.3859 0.8427,-1.304 0.9714,-1.2865 0.9847,0.1334 0.013,1.3832 -4.2678,3.2502 -5.2349,2.2831 z m 196.2806,-7.5269 c -0.076,-4.0219 1.3377,-10.8896 2.2414,-10.8896 1.183,0 0.2376,8.3032 -1.2322,10.8223 -0.8734,1.4971 -0.9821,1.5043 -1.0092,0.067 z M 799.17876,1064 c -0.3399,-0.55 0.083,-1 0.941,-1 0.8574,0 1.559,0.45 1.559,1 0,0.55 -0.4234,1 -0.941,1 -0.5175,0 -1.2191,-0.45 -1.559,-1 z m 96.5,-2.941 c 0,-0.5175 0.45,-1.2191 1,-1.559 0.55,-0.3399 1,0.083 1,0.941 0,0.8574 -0.45,1.559 -1,1.559 -0.55,0 -1,-0.4234 -1,-0.941 z m 91.4649,-8.1158 c -0.8713,-1.4098 0.3142,-5.9432 1.5542,-5.9432 0.5395,0 0.9809,1.575 0.9809,3.5 0,3.4066 -1.2156,4.5781 -2.5351,2.4432 z M 974.83666,1032 c 0,-1.375 0.227,-1.9375 0.5044,-1.25 0.2774,0.6875 0.2774,1.8125 0,2.5 -0.2774,0.6875 -0.5044,0.125 -0.5044,-1.25 z m 15.8725,-1.9181 c -0.04,-5.8128 1.9479,-17.0819 3.0132,-17.0819 1.7808,0 1.8455,2.0064 0.3262,10.1087 -1.9343,10.3156 -3.2968,13.1607 -3.3394,6.9732 z M 540.16392,1014.75 c -0.78006,-1.7875 -1.96767,-5.8099 -2.63912,-8.9386 -1.00028,-4.6609 -1.65148,-5.7967 -3.60448,-6.28691 -3.29338,-0.82659 -2.29391,-2.82951 1.83321,-3.6737 5.8776,-1.20224 11.9155,1.06451 7.42523,2.78758 -1.97994,0.75978 -1.87271,3.58053 0.41291,10.86163 1.30974,4.1723 1.57256,6.3808 0.86283,7.25 -1.63608,2.0038 -2.77503,1.4729 -4.29058,-2 z m -20.44998,0.3157 c -0.56935,-1.0638 -1.03518,-6.0138 -1.03518,-11 0,-7.2022 0.29448,-9.0657 1.43261,-9.0657 1.75767,0 2.21696,1.56021 3.09099,10.5 0.37641,3.85 1.20009,7.3306 1.83039,7.7347 0.63031,0.4041 3.39601,0.7559 6.14601,0.7818 4.61522,0.043 4.85062,0.1601 3.05887,1.5153 -1.18629,0.8973 -4.18631,1.4682 -7.71482,1.4682 -4.68481,0 -5.96891,-0.3648 -6.80887,-1.9343 z m -8.72929,-3.5684 c -0.56608,-1.0985 -1.3361,-3.2788 -1.71117,-4.8452 -0.99195,-4.1424 1.57708,-2.928 2.66187,1.2583 1.04912,4.0487 0.45069,6.3065 -0.9507,3.5869 z m 467.29681,-5.6666 c 0.2899,-4.2181 0.9092,-8.94307 1.3762,-10.49997 1.5314,-5.10487 1.1123,5.41437 -0.4848,12.16927 l -1.4185,6 z m -27.0307,-11.15442 c -1.5152,-1.10793 -1.6736,-1.87417 -0.8813,-4.26348 1.3372,-4.03232 4.9883,-4.53976 5.9212,-0.82294 1.1517,4.58867 -1.7356,7.5026 -5.0399,5.08642 z m 44.428,-5.43288 c 0,-2.61613 0.4212,-6.22525 0.936,-8.02027 0.7508,-2.61795 0.4839,-4.29837 -1.3491,-8.4934 -1.2568,-2.87635 -2.5724,-6.72021 -2.9234,-8.54192 -0.8525,-4.42348 1.4872,-9.7934 5.194,-11.92082 2.4062,-1.38098 3.05614,-2.55814 3.57604,-6.47734 0.8553,-6.44745 2.5371,-6.10242 2.3638,0.48494 -0.094,3.59177 0.4376,6.15433 1.6679,8.03201 1.4294,2.18143 1.6935,4.00613 1.2647,8.73527 l -0.542,5.97784 2.9828,-2.50986 c 3.4939,-2.93993 4.157,-3.03926 6.2588,-0.93752 1.5658,1.56582 1.4257,3.81381 -0.5759,9.24277 -1.4896,4.03995 -1.0433,5.1849 2.0207,5.1849 1.5808,0 4.7874,-0.675 7.1257,-1.5 5.4077,-1.90796 6.5706,-1.89245 4.9453,0.0659 -3.7379,4.5039 -12.9283,5.88792 -17.032,2.56493 -2.1412,-1.73384 -2.2216,-2.15843 -1.1108,-5.86602 1.6556,-5.52583 1.5926,-6.83768 -0.2545,-5.30468 -0.7986,0.66279 -2.2887,0.93953 -3.3112,0.61498 -2.5265,-0.80186 -5.7533,5.59122 -4.2448,8.40986 1.5608,2.91649 1.2172,4.30297 -0.9274,3.74213 -2.20794,-0.57738 -2.63214,0.20617 -3.59774,6.64501 -0.9051,6.03569 -2.4669,5.95418 -2.4669,-0.12875 z m 6.39144,-22.26364 c 0.8847,-2.21113 1.5943,-5.47363 1.5768,-7.25 -0.028,-2.88513 -0.1723,-3.04469 -1.3489,-1.4953 -1.4758,1.94352 -2.61934,1.34555 -2.61934,-1.36974 0,-2.791 -2.6989,-1.16709 -3.9301,2.36468 -0.5885,1.68797 -1.0699,3.86367 -1.0699,4.83487 0,1.71057 3.8429,6.88108 5.1414,6.91766 0.35284,0.01 1.36534,-1.79104 2.25004,-4.00217 z m -64.19214,22.0338 c -5.853,-1.38615 -4.8801,-2.25665 2.0479,-1.83235 7.4935,0.45892 12.1627,2.89679 5.2028,2.71643 -2.1725,-0.0563 -5.4353,-0.45414 -7.2507,-0.88408 z m 36.5167,-1.77483 c -1.4092,-1.5572 -1.567,-2.50049 -0.7692,-4.59888 1.3223,-3.47795 1.8101,-3.34385 1.2682,0.34863 -0.6128,4.17514 1.7178,4.75303 7.534,1.86811 3.2227,-1.59853 5.061,-3.26013 5.7147,-5.16547 1.1642,-3.39284 0.4891,-3.93584 -6.9672,-5.60449 -5.7204,-1.28018 -7.8774,-2.93054 -6.9587,-5.32443 0.6679,-1.74069 4.7028,-3.7622 7.5093,-3.7622 1.2862,0 1.9529,-0.68273 1.9529,-2 0,-1.1 0.4916,-2 1.0924,-2 0.6954,0 0.968,1.92289 0.75,5.29057 -0.3215,4.9681 -0.1291,5.48189 3.1576,8.42951 l 3.5,3.13893 -1.8032,3.3205 c -3.6344,6.6926 -12.3998,10.01608 -15.9808,6.05922 z m 8.0671,-18.07288 c 0.2987,-0.9065 -0.2921,-1.22704 -1.8434,-1 -1.2557,0.18378 -2.4809,0.93452 -2.7228,1.6683 -0.2987,0.9065 0.2921,1.22704 1.8434,1 1.2557,-0.18378 2.4809,-0.93452 2.7228,-1.6683 z M 914.67876,985 c 0,-1.27768 6.0229,-1.27768 8,0 1.0849,0.70111 0.1855,0.97361 -3.25,0.98469 -2.6125,0.008 -4.75,-0.43469 -4.75,-0.98469 z m -411.84425,-2.75 c -1.86441,-4.71728 -2.43895,-8.25 -1.34171,-8.25 0.95611,0 2.29176,3.34179 3.49721,8.75 0.70583,3.16667 -0.84885,2.80604 -2.1555,-0.5 z m 385.41065,-0.14778 c -3.1206,-1.22201 -0.173,-2.22286 4.3951,-1.49239 2.2456,0.35908 4.3244,1.04377 4.6197,1.52152 0.6507,1.05284 -6.3093,1.03035 -9.0148,-0.0291 z m -25.5664,-4.02547 c -2.3501,-0.68047 -2.378,-0.76439 -0.4656,-1.39927 1.1189,-0.37145 4.0439,-0.0453 6.5,0.7247 l 4.4656,1.40008 -4,-8.1e-4 c -2.2,-4.4e-4 -5.125,-0.32656 -6.5,-0.7247 z m -26.75,-2.78248 c -1.2375,-0.23836 -2.25,-0.85207 -2.25,-1.36382 0,-1.32466 4.8838,-1.0156 9,0.56955 l 3.5,1.34784 -4,-0.0601 c -2.2,-0.0331 -5.0125,-0.25512 -6.25,-0.49347 z m -20.5,-3.01052 c -3.368,-0.51021 -3.6592,-2.28375 -0.375,-2.28375 3.8381,0 8.625,1.17937 8.625,2.125 0,0.87739 -3.111,0.93725 -8.25,0.15875 z M 781.17876,967 c -0.7258,-1.17439 3.833,-1.17439 7.5,0 2.0469,0.65553 1.6498,0.81871 -2.191,0.90032 -2.58,0.0548 -4.9691,-0.35032 -5.309,-0.90032 z m -22.75,-2.79942 c -2.0625,-0.17672 -3.75,-0.74415 -3.75,-1.26095 0,-1.03765 2.8996,-1.05462 7.5,-0.0439 3.8544,0.84684 1.2957,1.73714 -3.75,1.30482 z m -577.59171,-7.0666 c -1.39893,-4.6692 -1.45945,-5.84422 -0.23611,-4.58398 0.98358,1.01324 2.60945,8.45 1.8474,8.45 -0.24915,0 -0.97423,-1.73971 -1.61129,-3.86602 z M 721.17876,959 c -1.8224,-0.78312 -1.778,-0.85909 0.5,-0.85559 1.375,0.002 4.525,0.36416 7,0.80455 l 4.5,0.80071 -5,0.0549 c -2.75,0.0302 -5.9,-0.33186 -7,-0.80455 z m -224.82267,-1.71307 c -1.14614,-1.85449 -5.73739,-19.5602 -5.20913,-20.08847 1.1978,-1.19779 2.38994,1.64127 4.47725,10.66252 1.94423,8.40281 2.20927,11.81642 0.73188,9.42595 z M 693.17876,955 c -1.6119,-0.69264 -1.2837,-0.87307 1.691,-0.92971 2.03,-0.0387 3.9691,0.37971 4.309,0.92971 0.7458,1.20667 -3.1919,1.20667 -6,0 z m -26.2617,-3.68708 c 0.9561,-0.25029 2.7561,-0.25937 4,-0.0202 1.244,0.23919 0.4617,0.44398 -1.7383,0.45508 -2.2,0.0111 -3.2177,-0.18461 -2.2617,-0.4349 z m -37.44627,-4.23784 c -2.58938,-0.36173 -5.06438,-1.03908 -5.5,-1.50522 -1.1074,-1.18501 13.94288,0.26505 15.13616,1.45833 1.08723,1.08723 -2.0788,1.10264 -9.63616,0.0469 z M 987.37126,938 c 0.3171,-3.575 0.9893,-7.175 1.4939,-8 0.5804,-0.94891 0.6808,0.6721 0.2733,4.41218 -0.9213,8.45608 -2.4795,11.61961 -1.7672,3.58782 z m -398.1925,3.44121 -7,-1.32177 8,0.50109 c 4.4,0.27559 9.575,0.87766 11.5,1.33792 l 3.5,0.83683 -4.5,-0.0162 c -2.475,-0.009 -7.65,-0.61095 -11.5,-1.33792 z m -38,-5.00124 -7,-1.32302 7,0.49676 c 3.85,0.27322 8.575,0.87584 10.5,1.33916 l 3.5,0.84241 -3.5,-0.0162 c -1.925,-0.009 -6.65,-0.61151 -10.5,-1.33916 z m -42.25,-5.16337 c -1.7875,-0.22182 -3.25,-0.75033 -3.25,-1.17445 0,-0.71114 11.22079,0.39388 13.5,1.32947 1.22715,0.50373 -5.79787,0.39749 -10.25,-0.15502 z m -6.97917,-1.88077 c 0.33229,-0.33229 1.1948,-0.36781 1.91667,-0.0789 0.79773,0.31922 0.56078,0.55618 -0.60417,0.60416 -1.05416,0.0434 -1.64479,-0.19293 -1.3125,-0.52522 z M 171.27876,923.4 c -0.96668,-3.06666 -1.50773,-5.8256 -1.20234,-6.131 0.62735,-0.62735 1.03115,0.38757 2.61869,6.58194 1.63073,6.36286 0.6312,6.04462 -1.41635,-0.45094 z m 305.67083,2.99583 c 0.33229,-0.33229 1.1948,-0.36781 1.91667,-0.0789 0.79773,0.31922 0.56078,0.55618 -0.60417,0.60416 -1.05416,0.0434 -1.64479,-0.19293 -1.3125,-0.52522 z m -8.81025,-1.45961 c -0.44766,-0.72434 0.57054,-0.84155 3.19099,-0.36734 5.10659,0.92413 5.48711,1.43112 1.07411,1.43112 -1.9842,0 -3.9035,-0.4787 -4.2651,-1.06378 z m 16.68524,-9.69359 c -2.51729,-7.97605 -2.61171,-8.87418 -0.77252,-7.34778 1.331,1.10463 4.19599,12.8692 3.34197,13.72322 -0.233,0.23299 -1.38925,-2.63595 -2.56945,-6.37544 z M 1005.7945,913 c -0.047,-3.575 0.3338,-7.16239 0.8458,-7.97197 1.8027,-2.85043 2.1365,1.21371 0.6562,7.98811 l -1.4169,6.48386 -0.085,-6.5 z m -14.98544,-0.5 c -0.055,-3.3 0.3365,-6.675 0.8697,-7.5 1.228,-1.90027 1.2617,3.67741 0.057,9.5 -0.8021,3.87789 -0.8304,3.81684 -0.9271,-2 z M 183.19742,890.25 c -5.54446,-7.52297 -6.34716,-12.48534 -3.31606,-20.5 1.04786,-2.77066 3.14495,-3.61471 4.30748,-1.73369 0.34546,0.55897 1.05436,0.75288 1.57533,0.4309 0.52097,-0.32197 0.71165,-0.96655 0.42375,-1.43239 -1.02376,-1.65647 1.42336,-6.01482 3.3772,-6.01482 2.88307,0 6.77652,5.27116 7.51865,10.17916 1.04954,6.94097 2.17186,7.87809 5.17477,4.32084 l 2.53251,-3 -2.1587,4.55093 C 200.77274,880.97135 195.55803,886 193.35218,886 c -0.38655,0 -1.57685,-1.43723 -2.64511,-3.19385 -1.63404,-2.68696 -2.04818,-2.91794 -2.60942,-1.45537 -0.36692,0.95617 -0.36393,4.4184 0.007,7.69385 0.83064,7.34188 -0.19801,7.59457 -4.90688,1.20537 z m -0.64034,-14.70206 c 0.24769,-6.12231 -1.28466,-7.52595 -2.30111,-2.10782 -0.69189,3.68807 0.16978,8.83428 1.3564,8.10091 0.39614,-0.24483 0.82126,-2.94172 0.94471,-5.99309 z m 988.39252,18.84789 c 0.3323,-0.33229 1.1948,-0.36781 1.9167,-0.0789 0.7977,0.31922 0.5608,0.55618 -0.6042,0.60416 -1.0541,0.0434 -1.6448,-0.19293 -1.3125,-0.52522 z M 161.25019,888.92857 c -1.52085,-5.12124 -1.32215,-7.7613 0.37719,-5.01171 1.03016,1.66684 2.29409,9.17376 1.65258,9.81528 -0.25583,0.25582 -1.16922,-1.90578 -2.02977,-4.80357 z m 833.52827,-6.61955 c -0.055,-2.85504 0.3503,-5.4691 0.9003,-5.80902 1.1807,-0.72971 1.1807,4.81328 0,8.5 -0.6324,1.97463 -0.8216,1.40913 -0.9003,-2.69098 z m -519.46028,-2.09738 c -1.88616,-6.72224 -2.13565,-9.6666 -0.59533,-7.02598 1.08699,1.86345 3.1792,11.92439 2.60014,12.50344 -0.20096,0.20097 -1.10313,-2.26389 -2.00481,-5.47746 z M 207.69473,872.0593 c -2.07429,-7.70331 -2.63667,-12.62534 -1.80634,-15.8093 0.92326,-3.54028 3.61413,-4.37221 5.76384,-1.78197 0.67009,0.80742 1.7163,1.36992 2.32489,1.25 1.31062,-0.25824 4.87233,9.90387 4.47636,12.77175 -0.42866,3.10472 -3.43401,3.00263 -5.26272,-0.17876 l -1.61582,-2.81102 0.59231,2.83504 c 1.36776,6.54675 -2.78203,10.00228 -4.47252,3.72426 z m 3.54506,-12.76084 c -1.00056,-2.60742 -1.71753,-0.75987 -0.90557,2.33354 0.555,2.11443 0.85276,2.39284 1.13324,1.05959 0.20925,-0.99463 0.1068,-2.52154 -0.22767,-3.39313 z m -58.93667,-3.65899 c -0.33871,-1.34952 -0.89089,-3.17047 -1.22708,-4.04657 -0.33619,-0.87609 -0.1335,-1.5929 0.45042,-1.5929 0.58392,0 1.36108,1.59598 1.72703,3.54663 0.76247,4.06434 -0.022,5.79182 -0.95037,2.09284 z m 759.12564,-5.35572 c -4.8581,-0.73595 -2.956,-2.27279 2,-1.61593 6.867,0.91015 9.8225,2.22858 4.75,2.11896 -2.2,-0.0475 -5.2375,-0.27391 -6.75,-0.50303 z m -22.75,-3.00461 c -1.375,-0.24667 -2.95,-0.90621 -3.5,-1.46564 -1.194,-1.21445 9.1549,-0.0736 11.5,1.26771 1.6055,0.9183 -3.307,1.03984 -8,0.19793 z m -21,-3.27914 c -1.9407,-1.25416 4.5814,-1.25416 7.5,0 1.5713,0.67523 1.1427,0.87121 -2,0.9144 -2.2,0.0302 -4.675,-0.38124 -5.5,-0.9144 z M 145.8861,833.05583 c -2.99471,-8.74283 -2.94745,-10.35017 0.2613,-8.88816 1.35776,0.61863 2.22666,1.51632 1.9309,1.99487 -0.29575,0.47855 -0.88634,0.65463 -1.31242,0.39131 -0.42607,-0.26333 -0.16238,1.86683 0.58597,4.73368 2.05505,7.87262 1.04328,9.09322 -1.46575,1.7683 z m 846.29266,-9.04103 c -1.1,-0.40592 -2.5625,-0.52716 -3.25,-0.26943 -0.6875,0.25774 -1.25,-0.0561 -1.25,-0.6974 0,-0.6413 -0.3978,-0.92017 -0.8839,-0.6197 -0.4862,0.30047 -1.4408,-0.79797 -2.1214,-2.44098 -0.8151,-1.96793 -1.9637,-2.99956 -3.366,-3.02325 -1.954,-0.033 -1.8825,-0.2472 0.8713,-2.60975 1.65,-1.41558 2.4375,-2.27284 1.75,-1.90502 -0.6875,0.36782 -1.25,0.14406 -1.25,-0.49724 0,-0.6524 0.6967,-0.89864 1.5818,-0.55902 0.87,0.33385 2.5575,0.64252 3.75,0.68594 1.1925,0.0434 1.6057,0.30592 0.9182,0.58333 -2.5716,1.03767 -1.194,2.48434 1.75,1.83772 2.1677,-0.4761 3,-0.28744 3,0.68 0,0.7364 0.8629,1.87781 1.9176,2.53648 3.4711,2.16771 0.4544,7.72715 -3.4176,6.29832 z m 6.2356,0.38743 c -1.2144,-1.21438 1.3578,-5.33558 3.36224,-5.38692 0.3288,-0.008 0.6362,1.33469 0.6831,2.98469 0.063,2.23331 -0.3661,3 -1.6811,3 -0.97164,0 -2.03554,-0.26899 -2.36424,-0.59777 z m -856.65665,-6.8189 c -0.0434,-1.05416 0.19293,-1.64479 0.52522,-1.3125 0.33229,0.33229 0.36781,1.1948 0.0789,1.91667 -0.31922,0.79773 -0.55618,0.56078 -0.60416,-0.60417 z m -1.50752,-5.15476 c -0.36782,-1.46551 -0.47591,-2.85742 -0.24019,-3.09314 0.23571,-0.23571 0.72951,0.77049 1.09733,2.236 0.36782,1.46551 0.47591,2.85742 0.24019,3.09314 -0.23571,0.23571 -0.72951,-0.77049 -1.09733,-2.236 z M 954.17876,809 c -0.3399,-0.55 -0.1415,-1 0.441,-1 0.5824,0 1.059,0.45 1.059,1 0,0.55 -0.1984,1 -0.441,1 -0.2425,0 -0.7191,-0.45 -1.059,-1 z m -815.42105,-2.41667 c -0.0434,-1.05416 0.19293,-1.64479 0.52522,-1.3125 0.33229,0.33229 0.36781,1.1948 0.0789,1.91667 -0.31922,0.79773 -0.55618,0.56078 -0.60416,-0.60417 z M 1128.6788,804.5 c 0,-0.825 0.6609,-1.5 1.4686,-1.5 0.8946,0 1.2437,0.58629 0.893,1.5 -0.3166,0.825 -0.9774,1.5 -1.4686,1.5 -0.4911,0 -0.893,-0.675 -0.893,-1.5 z M 136.33473,798.82415 C 133.67413,789.55999 133.41001,788 134.50214,788 c 1.10373,0 4.76571,14.74424 3.88158,15.62837 -0.28596,0.28597 -1.20801,-1.87593 -2.04899,-4.80422 z M 1133.7577,801.25 c -0.1529,-2.42193 0.061,-2.75689 2.2308,-3.50031 1.8799,-0.64398 1.9653,-0.57312 0.6025,0.5 -0.8732,0.68767 -1.8502,1.92531 -2.171,2.75031 -0.3592,0.92365 -0.6136,1.01971 -0.6623,0.25 z m -8.0789,-0.69098 c 0,-1.05548 1.9191,-1.49891 2.4899,-0.57533 0.3455,0.55897 -0.073,1.01631 -0.9309,1.01631 -0.8574,0 -1.559,-0.19844 -1.559,-0.44098 z M 966.67876,793 c 0,-0.55 0.4234,-1 0.941,-1 0.5175,0 1.2191,0.45 1.559,1 0.3399,0.55 -0.083,1 -0.941,1 -0.8574,0 -1.559,-0.45 -1.559,-1 z M 97.133313,728.54545 c -2.06471,-2.0647 -2.45455,-3.4147 -2.45455,-8.5 0,-3.325 -0.3085,-6.04545 -0.68555,-6.04545 -0.37705,0 -1.72007,0.97188 -2.98448,2.15974 -1.85161,1.73949 -2.73961,1.9631 -4.56365,1.14919 -2.25609,-1.0067 -2.25083,-1.02442 1.38448,-4.65973 6.8935,-6.8935 11.8492,-4.24758 11.8492,6.32642 0,3.08735 0.572847,5.45437 1.558587,6.44011 1.41145,1.41145 2.02508,1.3222 6.5,-0.94542 5.78312,-2.93053 6.38321,-1.71211 1.54141,3.12969 -4.22223,4.22223 -8.5331,4.55781 -12.145447,0.94545 z M 1021.1377,666.93347 c -0.3626,-0.58659 -0.4447,-1.281 -0.1826,-1.54313 0.2622,-0.26213 0.7431,0.21781 1.0688,1.06653 0.6762,1.76211 0.1,2.07206 -0.8862,0.4766 z M 124.17876,451 c -0.33992,-0.55 -0.14148,-1 0.44098,-1 0.58246,0 1.05902,0.45 1.05902,1 0,0.55 -0.19844,1 -0.44098,1 -0.24254,0 -0.7191,-0.45 -1.05902,-1 z M 20.762093,407.64364 c 1.10778,-0.94744 6.95921,-1.52148 6.40736,-0.62858 -0.3348,0.54172 -2.00717,0.98494 -3.71637,0.98494 -1.70921,0 -2.92015,-0.16036 -2.69099,-0.35636 z m 17.1875,-2.24781 c 0.33229,-0.33229 1.19479,-0.36781 1.91667,-0.0789 0.79773,0.31922 0.56078,0.55618 -0.60417,0.60416 -1.05416,0.0434 -1.64479,-0.19293 -1.3125,-0.52522 z m 5.93571,-0.54464 c 0.7114,-0.45131 3.76846,-0.79193 6.79346,-0.75693 6.64392,0.0769 5.60612,0.60439 -2.29346,1.16578 -3.2333,0.22977 -5.22187,0.0491 -4.5,-0.40885 z m 15.29346,-1.57151 c 9.02546,-1.26554 27.40217,-2.79495 26.75459,-2.22666 -0.79806,0.70036 -24.34707,3.08337 -27.75459,2.80859 -1.1,-0.0887 -0.65,-0.35057 1,-0.58193 z m 33,-3.20579 c 2.2,-0.47535 7.824997,-1.16593 12.499997,-1.53462 4.675,-0.3687 9.34385,-0.91407 10.37523,-1.21195 1.07076,-0.30925 1.61893,-0.12688 1.27778,0.4251 -0.54596,0.88339 -5.51006,1.49698 -22.153007,2.73825 -5.1531,0.38433 -5.4354,0.3255 -2,-0.41678 z M 1011.9496,310.39583 c 0.3323,-0.33229 1.1948,-0.36781 1.9167,-0.0789 0.7977,0.31922 0.5608,0.55618 -0.6042,0.60416 -1.0541,0.0434 -1.6448,-0.19293 -1.3125,-0.52522 z M 900.67876,293.97211 c -1.2573,-0.83591 -0.9915,-1.44019 1.6426,-3.73469 1.7284,-1.50558 3.9176,-3.97492 4.865,-5.48742 1.5981,-2.55148 1.6048,-2.92946 0.094,-5.23607 -0.8959,-1.36734 -2.7707,-3.23417 -4.1661,-4.1485 -3.0202,-1.9789 -5.435,-6.30785 -5.435,-9.74319 0,-3.11881 4.238,-6.63428 7.0966,-5.88674 2.8437,0.74365 4.8126,5.08457 2.8549,6.29447 -0.8534,0.52742 -1.8231,0.4984 -2.3931,-0.0716 -1.5152,-1.51516 -2.5584,-1.12371 -2.5584,0.95999 0,1.05509 1.9863,4.24539 4.4141,7.08956 2.4277,2.84417 4.6873,6.25979 5.0212,7.59028 0.7167,2.8558 -1.5405,7.668 -5.1781,11.03921 -2.7916,2.58724 -3.9891,2.84266 -6.2572,1.33471 z m -763,-71.30544 c 0,-8.14531 0.37319,-12.66667 1.0455,-12.66667 1.11319,0 0.69293,23.59491 -0.44044,24.72828 -0.33279,0.33278 -0.60506,-5.09495 -0.60506,-12.06161 z m 0.26162,-30.53415 c 0.26898,-12.91115 0.0542,-17.18109 -0.88238,-17.54049 -0.68085,-0.26126 -5.60532,-0.48696 -10.94326,-0.50154 -5.33794,-0.0146 -9.94474,-0.26591 -10.23733,-0.5585 C 115.58482,173.23939 120.59543,173 127.01209,173 l 11.66667,0 0.24462,-16.25 c 0.13454,-8.9375 0.28973,-20.3 0.34486,-25.25 0.0551,-4.95 0.68982,-25.2 1.41041,-45 1.28962,-35.435596 1.66034,-50.030776 1.88598,-74.25 0.0992,-10.6503678 0.3287,-12.25 1.75732,-12.25 1.48926,0 1.59132,1.9438894 1.08942,20.75 -0.30457,11.4125 -0.82617,36.95 -1.1591,56.75 -0.33292,19.8 -0.7895,38.025 -1.01461,40.5 -0.22511,2.475 -0.69321,15.61237 -1.04023,29.19416 l -0.63095,24.69415 3.30614,0.58853 c 3.62231,0.64482 14.77579,1.19579 33.30614,1.64531 8.54116,0.2072 5.17776,0.44772 -11.66891,0.83448 -13.0179,0.29885 -23.92402,0.79949 -24.23582,1.11252 -0.50373,0.50573 -1.28474,10.78196 -2.04302,26.8816 -0.14738,3.12893 -0.76563,5.62038 -1.45144,5.84898 -0.90427,0.30142 -1.10828,-3.75044 -0.83919,-16.66721 z m 819.48838,0.2052 c 0.6875,-0.27741 1.8125,-0.27741 2.5,0 0.6875,0.27741 0.125,0.50439 -1.25,0.50439 -1.375,0 -1.9375,-0.22698 -1.25,-0.50439 z m 11.5208,0.0581 c 0.3323,-0.33229 1.1948,-0.36781 1.9167,-0.0789 0.7977,0.31922 0.5608,0.55618 -0.6042,0.60416 -1.0541,0.0434 -1.6448,-0.19293 -1.3125,-0.52522 z m -79.4854,-0.94375 c -0.2176,-0.21765 -10.6084,-0.438 -23.0906,-0.48966 -13.413,-0.0555 -22.6948,-0.47796 -22.6948,-1.03291 0,-0.55964 5.1507,-0.75775 12.75,-0.49039 7.0125,0.24671 23.6617,0.58634 36.9983,0.75472 13.3365,0.16839 24.249,0.65057 24.25,1.07152 0,0.7609 -27.457,0.94262 -28.2129,0.18672 z m 29.6016,-0.17238 c 0.7178,-0.71783 7.7376,-0.45983 8.5297,0.31349 0.2291,0.22375 -1.7584,0.40681 -4.4167,0.40681 -2.6583,0 -4.5092,-0.32414 -4.113,-0.7203 z m 13.8451,0.006 c 1.5026,-0.22817 4.2026,-0.23276 6,-0.0102 1.7973,0.22256 0.5679,0.40925 -2.7321,0.41486 -3.3,0.006 -4.7706,-0.17648 -3.2679,-0.40466 z m -108.9821,-1.06046 c -9.5613,-0.16167 -16.25,-0.67119 -16.25,-1.23786 0,-0.5297 1.4625,-0.79386 3.25,-0.58702 1.7875,0.20685 9.6625,0.42639 17.5,0.48787 7.8375,0.0615 14.25,0.48678 14.25,0.94511 0,0.45834 -0.5625,0.79584 -1.25,0.75 -0.6875,-0.0458 -8.5625,-0.20698 -17.5,-0.3581 z m -31.25,-1.18364 c -1.587,-0.48185 0.5129,-0.74722 5.75,-0.72665 4.5375,0.0178 8.25,0.40424 8.25,0.85873 0,1.01354 -10.5548,0.91397 -14,-0.13208 z M 749.17876,188 c -1.9084,-0.82005 -1.8969,-0.86265 0.25,-0.92971 1.2375,-0.0387 2.25,0.37971 2.25,0.92971 0,0.55 -0.1125,0.96837 -0.25,0.92971 -0.1375,-0.0386 -1.15,-0.45702 -2.25,-0.92971 z m 25.7708,0.39583 c 0.3323,-0.33229 1.1948,-0.36781 1.9167,-0.0789 0.7977,0.31922 0.5608,0.55618 -0.6042,0.60416 -1.0541,0.0434 -1.6448,-0.19293 -1.3125,-0.52522 z m 6.9929,-0.11341 c 1.5201,-0.22986 3.7701,-0.22371 5,0.0136 1.23,0.23736 -0.014,0.42542 -2.7637,0.41792 -2.75,-0.008 -3.7563,-0.20172 -2.2363,-0.43157 z m -48.5137,-0.9447 c 0.6875,-0.27741 1.8125,-0.27741 2.5,0 0.6875,0.27741 0.125,0.50439 -1.25,0.50439 -1.375,0 -1.9375,-0.22698 -1.25,-0.50439 z m 4.981,0.006 c 0.677,-0.27392 2.027,-0.29059 3,-0.0371 0.9729,0.25354 0.419,0.47766 -1.231,0.49804 -1.65,0.0204 -2.4461,-0.18706 -1.769,-0.46099 z m 5.5398,0.0518 c 0.3323,-0.33229 1.1948,-0.36781 1.9167,-0.0789 0.7977,0.31922 0.5608,0.55618 -0.6042,0.60416 -1.0541,0.0434 -1.6448,-0.19293 -1.3125,-0.52522 z m -80,-2 c 0.3323,-0.33229 1.1948,-0.36781 1.9167,-0.0789 0.7977,0.31922 0.5608,0.55618 -0.6042,0.60416 -1.0541,0.0434 -1.6448,-0.19293 -1.3125,-0.52522 z m -61.2708,-1.46536 c -9.85575,-0.74883 -6.53169,-1.06334 9.5,-0.89886 27.52057,0.28236 34.40321,0.53857 35.174,1.30937 0.84856,0.84856 -32.08583,0.54592 -44.674,-0.41051 z m 46.73097,0.4139 c 0.67703,-0.27392 2.02703,-0.29059 3,-0.0371 0.97297,0.25354 0.41903,0.47766 -1.23097,0.49804 -1.65,0.0204 -2.44606,-0.18706 -1.76903,-0.46099 z m -58.46014,-0.94823 c 0.33229,-0.33229 1.1948,-0.36781 1.91667,-0.0789 0.79773,0.31922 0.56078,0.55618 -0.60417,0.60416 -1.05416,0.0434 -1.64479,-0.19293 -1.3125,-0.52522 z m -237.9547,-4.84464 c 0.38845,-1.16582 5.56955,-1.54519 6.24205,-0.45705 0.23418,0.3789 -1.15329,0.87327 -3.08326,1.09858 -2.17102,0.25345 -3.37549,0.009 -3.15879,-0.64153 z m -36.05921,-0.75414 c -0.96631,-0.38662 4.88081,-0.68077 12.9936,-0.65367 8.11279,0.0271 14.99447,0.444 15.29262,0.92643 0.63403,1.02587 -25.67455,0.77218 -28.28622,-0.27276 z m -31.25692,-0.83295 c -4.45651,-0.98376 19.11473,-0.90215 25.20304,0.0873 2.75551,0.44779 -0.36654,0.69597 -8.70304,0.69182 -7.15,-0.004 -14.575,-0.35415 -16.5,-0.77909 z m -10.75,-0.65343 c 0.9625,-0.25152 2.5375,-0.25152 3.5,0 0.9625,0.25153 0.175,0.45733 -1.75,0.45733 -1.925,0 -2.7125,-0.2058 -1.75,-0.45733 z m -54.97917,-0.91484 c 0.33229,-0.33229 1.1948,-0.36781 1.91667,-0.0789 0.79773,0.31922 0.56078,0.55618 -0.60417,0.60416 -1.05416,0.0434 -1.64479,-0.19293 -1.3125,-0.52522 z m -29,-1 c 0.33229,-0.33229 1.1948,-0.36781 1.91667,-0.0789 0.79773,0.31922 0.56078,0.55618 -0.60417,0.60416 -1.05416,0.0434 -1.64479,-0.19293 -1.3125,-0.52522 z m 4.46014,-0.0518 c 0.67703,-0.27392 2.02703,-0.29059 3,-0.0371 0.97297,0.25354 0.41903,0.47766 -1.23097,0.49804 -1.65,0.0204 -2.44606,-0.18706 -1.76903,-0.46099 z m -116.730967,-1.34935 -14.5,-0.61421 17.74126,-0.10888 c 9.7577,-0.0599 17.94336,0.21811 18.190357,0.61777 0.54562,0.88282 -2.700197,0.89877 -21.431617,0.10532 z m 26.749997,0.28192 c 1.7875,-0.22182 4.7125,-0.22182 6.5,0 1.7875,0.22183 0.325,0.40333 -3.25,0.40333 -3.575,0 -5.0375,-0.1815 -3.25,-0.40333 z M 1.1787628,171.00475 c 2.60469,-1.12546 3.5,-1.18247 3.5,-0.22286 0,0.43004 -1.2375,0.85055 -2.75,0.93447 -2.37301004,0.13165 -2.47583004,0.0341 -0.75,-0.71161 z m 17.2500002,0.33297 c 0.6875,-0.27741 1.8125,-0.27741 2.5,0 0.6875,0.27741 0.125,0.50439 -1.25,0.50439 -1.375,0 -1.9375,-0.22698 -1.25,-0.50439 z m 4.52083,0.0581 c 0.33229,-0.33229 1.19479,-0.36781 1.91667,-0.0789 0.79773,0.31922 0.56078,0.55618 -0.60417,0.60416 -1.05416,0.0434 -1.64479,-0.19293 -1.3125,-0.52522 z m 7,0 c 0.33229,-0.33229 1.19479,-0.36781 1.91667,-0.0789 0.79773,0.31922 0.56078,0.55618 -0.60417,0.60416 -1.05416,0.0434 -1.64479,-0.19293 -1.3125,-0.52522 z m 530.293457,-6.68896 c 0.37553,-0.98622 0.93469,-1.54122 1.24258,-1.23333 0.30789,0.30789 6.4e-4,1.11479 -0.68278,1.79313 -0.98762,0.98026 -1.10248,0.8654 -0.5598,-0.5598 z M 1093.542,148.10574 c 1.1508,-0.72914 1.1508,-0.93903 0,-1.34778 -0.7498,-0.26628 -1.0182,-0.85326 -0.5965,-1.30439 1.0501,-1.12347 3.1235,1.10602 2.2872,2.4593 -0.3696,0.59792 -1.2079,1.08024 -1.8629,1.07182 -0.7927,-0.0102 -0.7352,-0.30411 0.1722,-0.87895 z M 771.83666,64 c 0,-1.375 0.227,-1.9375 0.5044,-1.25 0.2774,0.6875 0.2774,1.8125 0,2.5 -0.2774,0.6875 -0.5044,0.125 -0.5044,-1.25 z"
     id="path3254"
     style="fill:#000000" />
</svg>
