<?xml version="1.0" encoding="UTF-8" standalone="no"?>
<!-- Created with Inkscape (http://www.inkscape.org/) -->

<svg
   xmlns:dc="http://purl.org/dc/elements/1.1/"
   xmlns:cc="http://creativecommons.org/ns#"
   xmlns:rdf="http://www.w3.org/1999/02/22-rdf-syntax-ns#"
   xmlns:svg="http://www.w3.org/2000/svg"
   xmlns="http://www.w3.org/2000/svg"
   version="1.1"
   width="1620.7418"
   height="1919.9697"
   id="svg3007">
  <metadata
     id="metadata3013">
    <rdf:RDF>
      <cc:Work
         rdf:about="">
        <dc:format>image/svg+xml</dc:format>
        <dc:type
           rdf:resource="http://purl.org/dc/dcmitype/StillImage" />
        <dc:title></dc:title>
      </cc:Work>
    </rdf:RDF>
  </metadata>
  <defs
     id="defs3011" />
  <path
     d="m 675.73498,1918.8685 c 1.01299,-0.5888 8.10347,-2.8232 15.75662,-4.9652 7.65314,-2.1421 14.69933,-4.3221 15.65818,-4.8446 5.06044,-2.7574 18.90236,-7.0255 27.41257,-8.4527 5.31805,-0.8918 13.64305,-2.7049 18.5,-4.0292 4.85694,-1.3243 11.30581,-3.0789 14.33081,-3.8992 3.025,-0.8203 9.60692,-1.7429 14.62649,-2.0501 5.82837,-0.3568 11.87228,-1.4804 16.72461,-3.1093 4.17896,-1.4028 11.99704,-3.1793 17.37351,-3.9476 5.37646,-0.7683 12.92539,-2.189 16.77539,-3.1571 5.6039,-1.4091 11.48746,-1.7719 29.5,-1.819 12.375,-0.033 25.875,0.383 30,0.9233 4.13805,0.5419 10.18956,0.6356 13.5,0.2089 3.3,-0.4253 14.775,-0.9754 25.5,-1.2224 10.725,-0.247 20.175,-0.5614 21,-0.6986 0.825,-0.1372 5.1,0.1027 9.5,0.5332 5.9605,0.5831 9.8712,0.3835 15.3398,-0.7833 5.0522,-1.0778 12.8438,-1.5731 25.00004,-1.5892 17.2357,-0.023 17.8765,-0.1 26.6602,-3.1883 4.95,-1.7406 9.3714,-3.7735 9.8254,-4.5174 0.454,-0.744 3.2537,-2.4265 6.2216,-3.7391 2.9679,-1.3125 7.4005,-3.7654 9.8502,-5.4509 2.4498,-1.6855 8.1557,-4.9115 12.6798,-7.1691 4.5241,-2.2575 10.2951,-6.0173 12.8243,-8.355 2.5293,-2.3377 9.1946,-7.7024 14.8119,-11.9215 5.6173,-4.2192 10.5673,-8.2923 11,-9.0515 0.4327,-0.7592 6.336,-7.1477 13.1183,-14.1967 6.7824,-7.0489 14.7241,-16.4493 17.6484,-20.8898 2.9242,-4.4404 6.0672,-8.6963 6.9844,-9.4575 0.9172,-0.7611 2.3746,-2.7667 3.2387,-4.4568 0.864,-1.69 2.899,-4.7626 4.5221,-6.8279 1.6231,-2.0654 3.7659,-5.8904 4.7617,-8.5 4.9724,-13.0308 7.216,-17.7363 11.5042,-24.1277 4.3771,-6.524 10.509,-22.2753 10.509,-26.9951 0,-2.0408 1.6343,-6.3011 5.9928,-15.6221 1.5431,-3.3 3.5915,-8.7 4.552,-12 0.9605,-3.3 3.2708,-10.5 5.1341,-16 1.8632,-5.5 4.7413,-14.5 6.3955,-20 1.6543,-5.5 4.281,-12.7105 5.837,-16.0233 1.556,-3.3128 4.5228,-10.7378 6.5929,-16.5 2.0701,-5.7622 5.4728,-14.3647 7.5616,-19.1166 2.0887,-4.7519 4.3251,-10.6019 4.9698,-13 0.6446,-2.3981 3.3285,-9.0851 5.9643,-14.8601 2.6358,-5.775 5.3233,-12.525 5.9723,-15 1.6139,-6.1548 3.4877,-11.6404 5.8325,-17.0748 1.0857,-2.5162 3.1591,-9.1644 4.6077,-14.7739 1.4486,-5.6094 3.7139,-12.6412 5.0339,-15.6261 1.3201,-2.9849 3.3937,-10.2867 4.6079,-16.2262 3.8204,-18.6874 4.1425,-21.4929 2.962,-25.799 -1.2293,-4.4841 -0.7521,-23.006 0.876,-34 1.0454,-7.0593 4.3042,-16.2072 8.7271,-24.4982 6.6064,-12.3843 16.4496,-22.405 32.9276,-33.5215 8.7947,-5.9332 11.1167,-6.9956 19.953,-9.1292 5.5,-1.3281 12.475,-3.0398 15.5,-3.8038 6.4647,-1.6327 17.2443,-3.3111 21.5,-3.3475 9.9749,-0.086 21.5,-4.3172 21.5,-7.8942 0,-2.3121 3.848,-7.1757 6.944,-8.7766 4.5907,-2.374 5.8446,-6.6023 6.8353,-23.0506 0.8805,-14.6191 0.7362,-33.757 -0.2881,-38.1926 -0.5962,-2.5816 -4.3494,-3.7731 -14.9912,-4.7588 -10.791,-0.9997 -19.4423,-2.6246 -20.1605,-3.7866 -0.4472,-0.7237 1.8197,-0.844 7.255,-0.385 4.348,0.3672 11.8941,0.9574 16.7691,1.3115 l 8.8636,0.6439 -0.7377,-3.4054 c -1.2877,-5.9445 -10.3837,-22.4436 -14.0251,-25.4399 -1.2486,-1.0274 -6.19,-7.8505 -14.9431,-20.6336 -2.8919,-4.2232 -6.1467,-7.5944 -8.8773,-9.1946 -4.8543,-2.8449 -11.644,-9.8942 -11.644,-12.0893 0,-0.7954 1.5993,-2.6661 3.5541,-4.1571 3.1366,-2.3924 4.8692,-2.8165 14.75,-3.6105 12.1067,-0.9729 9.3186,0.069 35.1959,-13.1472 10.549,-5.3875 19.872,-14.9431 26.4726,-27.1332 2.3824,-4.4 5.8,-10.475 7.5946,-13.5 5.7164,-9.6358 6.9041,-27.6089 2.4853,-37.6095 -1.8404,-4.1652 -14.1002,-16.7262 -23.5525,-24.1311 -7.7853,-6.099 -11.0221,-10.4125 -14.5756,-19.4238 -3.196,-8.1048 -3.2874,-8.7516 -3.3044,-23.3595 -0.015,-13.2149 0.2362,-15.5627 2.0888,-19.5 1.1583,-2.4618 2.4327,-5.6011 2.832,-6.9761 0.3993,-1.375 2.966,-7.675 5.7038,-14 2.7378,-6.325 5.3924,-13.3 5.8991,-15.5 0.5067,-2.2 4.8442,-11.875 9.6388,-21.5 7.3595,-14.77392 9.622,-18.39571 14.5239,-23.25 3.1936,-3.1625 6.3496,-5.75 7.0134,-5.75 0.6638,0 3.5619,-1.58595 6.4402,-3.52434 2.8784,-1.93838 6.5619,-3.79003 8.1856,-4.11477 2.6485,-0.52972 7.5318,-4.36089 5.5584,-4.36089 -0.4433,0 -13.5674,-1.58006 -29.1646,-3.51124 -42.0547,-5.20703 -81.7815,-9.30932 -90.8226,-9.37857 -4.3908,-0.0336 -12.2658,-0.5095 -17.5,-1.0575 -13.162,-1.37799 -20.6982,-2.0456 -33.645,-2.98053 -6.1205,-0.44197 -11.5675,-1.0751 -12.1045,-1.40693 -0.5369,-0.33184 -8.1292,-1.30824 -16.8717,-2.16978 -8.7426,-0.86154 -16.5706,-1.7626 -17.3956,-2.00236 -0.825,-0.23976 -4.875,-0.72144 -9,-1.0704 -4.125,-0.34897 -10.5376,-0.95083 -14.2502,-1.33747 -3.7126,-0.38665 -7.1753,-0.44027 -7.6949,-0.11917 -0.5195,0.3211 -1.444,3.70964 -2.0543,7.53008 -1.5467,9.68212 -2.3919,9.59947 -1.5683,-0.15336 l 0.689,-8.15723 -2.8107,-0.533 c -1.5458,-0.29315 -6.4106,-0.83698 -10.8106,-1.20852 -8.5849,-0.72492 -10.0029,-0.85556 -21.5,-1.98087 -4.125,-0.40374 -9.075,-0.85806 -11,-1.0096 -1.925,-0.15153 -6.1985,-0.76005 -9.4967,-1.35225 -6.8456,-1.22918 -18.7973,-1.65567 -20.3039,-0.72455 -0.5566,0.34402 -1.3361,2.98748 -1.7323,5.87437 -1.293,9.42327 -2.4616,9.81991 -2.2063,0.74888 l 0.2392,-8.5 -10.5,-1.15486 c -5.775,-0.63518 -13.479,-1.43726 -17.1201,-1.7824 -3.641,-0.34514 -7.691,-0.8353 -9,-1.08925 -1.3089,-0.25394 -6.5176,-0.75404 -11.5748,-1.11133 -9.1207,-0.64437 -9.1989,-0.63031 -9.6926,1.74412 -0.4984,2.39653 -0.7858,10.38303 -2.6234,72.89372 -0.5416,18.425 -1.2111,37.775 -1.4878,43 -0.2766,5.225 -0.9551,32.45 -1.5077,60.5 -0.5526,28.05 -1.4496,64.725 -1.9934,81.5 -0.5438,16.775 -1.2066,37.475 -1.4728,46 -0.2663,8.525 -0.7702,24.3292 -1.1198,35.1205 -0.4117,12.7097 -0.2829,19.8385 0.3656,20.2393 1.6768,1.0363 34.4518,4.8497 61.7268,7.1819 3.3,0.2822 9.825,0.929 14.5,1.4373 4.675,0.5083 11.2,1.1528 14.5,1.4323 3.3,0.2795 10.5,0.9916 16,1.5824 13.827,1.4853 25.1465,2.5974 45,4.421 9.35,0.8588 21.05,2.0424 26,2.6302 4.95,0.5877 11.7,1.2897 15,1.5599 5.9648,0.4884 33.2562,3.4546 49.5,5.38 4.675,0.5542 14.35,1.4922 21.5,2.0845 7.15,0.5923 14.125,1.2337 15.5,1.4253 1.375,0.1916 6.2125,0.6555 10.75,1.0309 6.0673,0.5021 8.25,1.052 8.25,2.0786 0,1.6793 -4.5869,1.8165 -15.1776,0.4537 -4.0273,-0.5182 -9.7974,-1.1922 -12.8224,-1.4977 -3.025,-0.3056 -7.7718,-0.8221 -10.5484,-1.1479 -2.7766,-0.3257 -7.5016,-0.7012 -10.5,-0.8343 -5.66,-0.2512 -18.8607,-1.6084 -39.4516,-4.0562 -29.2745,-3.48 -38.5989,-4.4692 -47.5,-5.039 -5.225,-0.3345 -11.075,-1.0044 -13,-1.4885 -1.925,-0.4842 -8.45,-1.149 -14.5,-1.4774 -12.1785,-0.661 -17.3947,-1.1223 -28.5,-2.5205 -4.125,-0.5193 -14.925,-1.6456 -24,-2.5029 -41.1954,-3.8916 -48.6574,-4.6294 -51,-5.042 -7.6415,-1.346 -30.1304,-2.7191 -30.9455,-1.8895 -1.0569,1.0757 -1.7262,14.4395 -2.6764,53.4381 -0.3684,15.125 -0.7821,29.3 -0.9192,31.5 -0.3063,4.9151 -1.3155,50.9751 -1.9721,90 -0.611,36.3238 -2.2431,71.7279 -3.4445,74.7198 -0.5559,1.3844 -0.9684,1.6909 -1.0502,0.7802 -0.074,-0.825 -0.3402,-3.1875 -0.5914,-5.25 -0.2763,-2.2683 -0.037,-3.75 0.6065,-3.75 0.7341,0 0.7489,-0.5872 0.048,-1.8974 -1.0095,-1.8863 -0.8047,-67.2465 0.3575,-114.1026 0.2933,-11.825 0.7715,-35.45 1.0626,-52.5 0.2911,-17.05 0.8131,-40.7386 1.1599,-52.6414 l 0.6305,-21.6414 -2.8827,-0.5539 c -7.4372,-1.4289 -17.8384,-2.7866 -27.8827,-3.6397 -6.05,-0.5138 -19.1,-1.8098 -29.00004,-2.88 -9.9,-1.0702 -21.375,-2.2406 -25.5,-2.601 -4.125,-0.3603 -8.4,-0.8602 -9.5,-1.1107 -1.9751,-0.4498 -8.5174,-1.0897 -60.5,-5.917 -14.575,-1.3535 -28.075,-2.6855 -30,-2.9599 -7.22205,-1.0296 -10.70334,-1.4398 -18,-2.1208 -4.125,-0.385 -8.175,-0.6663 -9,-0.6251 -0.825,0.041 -5.325,-0.3308 -10,-0.8264 -15.30459,-1.6226 -19.37204,-2.0427 -29.5,-3.047 -5.5,-0.5453 -12.025,-1.2236 -14.5,-1.5072 -2.475,-0.2836 -11.16256,-1.16 -19.30568,-1.9475 -8.14313,-0.7875 -15.16235,-1.6522 -15.59827,-1.9216 -0.43592,-0.2694 -4.79836,-0.7307 -9.69431,-1.025 -4.89626,-0.2944 -13.40204,-0.9934 -18.90204,-1.5535 -5.5,-0.5601 -12.025,-1.2211 -14.5,-1.4689 -2.475,-0.2477 -12.28878,-1.3643 -21.8084,-2.4812 -21.35845,-2.506 -25.76825,-2.5764 -26.59393,-0.4247 -0.78174,2.0371 -5.42186,1.0924 -7.59767,-1.5469 -1.01657,-1.2331 -3.43373,-2.004 -7.5,-2.392 -3.3,-0.3148 -12.3,-1.2392 -20,-2.0542 -7.7,-0.815 -16.7,-1.7082 -20,-1.9847 -3.3,-0.2766 -13.59651,-1.2371 -22.88113,-2.1345 -11.19086,-1.0816 -17.21632,-1.2964 -17.87554,-0.6371 -1.55709,1.5571 -2.62848,15.0445 -2.71221,34.1433 -0.0422,9.625 -0.51358,29.425 -1.04751,44 -0.53393,14.575 -1.2142,37.958 -1.5117,51.9623 -0.34884,16.4204 -0.92044,25.6969 -1.60966,26.1228 -0.7414,0.4582 -0.75369,1.2492 -0.0401,2.5826 1.64067,3.0656 -0.35288,41.2916 -2.25249,43.1912 -1.30872,1.3087 -1.46807,0.091 -1.36605,-10.4387 0.0635,-6.5561 0.54681,-12.4803 1.07398,-13.1649 0.52716,-0.6845 0.72233,-2.1477 0.43371,-3.2514 -0.33404,-1.2773 -0.13345,-1.7648 0.55192,-1.3412 0.69113,0.4271 0.83678,0.04 0.40674,-1.0804 -0.36847,-0.9603 -0.66994,-1.9606 -0.66994,-2.2231 0,-0.2625 -0.44485,-0.2023 -0.98855,0.1337 -0.5437,0.336 -0.78868,0.025 -0.5444,-0.691 0.24428,-0.716 0.68424,-12.3269 0.97769,-25.8019 0.29346,-13.475 0.75877,-33.725 1.03404,-45 1.77412,-72.6689 2.15251,-99.702 1.40601,-100.4485 -0.25422,-0.2543 -10.1198,-1.4299 -21.92351,-2.6125 -29.24586,-2.9301 -81.79281,-8.6323 -90.96128,-9.8707 -7.40098,-0.9996 -20.64307,-2.5188 -49,-5.6214 -36.61314,-4.0059 -65.78239,-7.0725 -127.5,-13.4043 -15.95,-1.6364 -44.12109,-4.639 -62.60242,-6.6725 -18.48133,-2.0336 -34.29011,-3.4335 -35.13061,-3.1109 -1.27972,0.4911 -1.63461,4.2167 -2.18267,22.9136 -2.57698,87.9118 -3.50167,113.0188 -4.1892,113.7439 -0.62136,0.6552 -0.461,-12.8688 0.55631,-46.9167 0.51764,-17.325 1.23175,-44.8294 1.5869,-61.1208 l 0.64573,-29.6209 -7.84202,-1.0675 -7.84202,-1.0675 7.6737,0.4731 7.67369,0.4732 0.52789,-5.2848 c 0.29033,-2.9066 1.01474,-27.5598 1.6098,-54.7848 0.59506,-27.225 1.27524,-51.975 1.51152,-55 0.23628,-3.025 0.70132,-22.6 1.03344,-43.5 0.33212,-20.9 0.76495,-38.675 0.96185,-39.5 0.1969,-0.825 0.62438,-14.775 0.94996,-31 0.32558,-16.225 0.79989,-32.875 1.05402,-37 0.25413,-4.125 0.70119,-21.225 0.99347,-38 0.29228,-16.775 0.80604,-37.96214 1.14168,-47.08253 l 0.61025,-16.58252 -2.75549,-2.16748 C 173.36342,770.97536 171.0161,770 169.66269,770 c -4.17712,0 -66.60787,-8.00419 -67.20613,-8.61644 -0.30987,-0.31711 1.9116,-0.29674 4.9366,0.0453 9.46198,1.06979 40.96524,4.39754 53.33607,5.63399 13.75666,1.37496 16.66393,0.63429 16.66393,-4.24538 0,-1.56452 -0.42599,-3.62598 -0.94665,-4.58102 -0.52065,-0.95504 -1.68943,-4.12184 -2.59727,-7.03734 -1.79007,-5.74871 -4.12621,-6.56632 -3.69593,-1.2935 0.57406,7.03471 -4.62508,9.81593 -7.18664,3.84441 -1.13209,-2.63915 -3.37073,-11.10249 -6.02688,-22.78506 -0.19195,-0.84428 -0.67249,-4.12416 -1.06787,-7.28861 -0.59681,-4.77677 -0.41751,-6.08653 1.05618,-7.71494 0.97627,-1.07876 2.58248,-1.96139 3.56936,-1.96139 2.7238,0 7.45637,5.63632 11.93079,14.20913 2.21299,4.24002 4.46042,7.97908 4.99427,8.30902 0.59179,0.36574 0.99415,-2.25292 1.03089,-6.70913 0.0331,-4.01996 0.2242,-9.33402 0.4246,-11.80902 0.20039,-2.475 0.62914,-14.625 0.95278,-27 0.32363,-12.375 0.80218,-29.925 1.06345,-39 0.26126,-9.075 0.71024,-25.5 0.99773,-36.5 0.6336,-24.24318 1.3662,-49.19391 1.99659,-68 0.25812,-7.7 0.74839,-26.15 1.08951,-41 l 0.62022,-27 -5.75871,6 c -3.16729,3.3 -9.89671,10.95 -14.95427,17 -11.92017,14.25928 -14.99989,17.49865 -16.64336,17.50616 -0.74183,0.003 -2.58629,0.6517 -4.09879,1.4407 -1.5125,0.78899 -2.75,1.04154 -2.75,0.56122 0,-0.48032 0.7875,-1.12755 1.75,-1.43829 3.0477,-0.98394 8.56244,-6.74872 16.54794,-17.29821 4.25835,-5.62563 9.55343,-12.15063 11.76684,-14.5 2.21341,-2.34937 6.43694,-8.32158 9.38562,-13.27158 l 5.36124,-9 0.63637,-27.5 c 0.78008,-33.71027 2.30511,-88.44521 3.12057,-112 1.8247,-52.70766 2.02328,-61.57095 1.39608,-62.31132 -0.37802,-0.44623 -39.53301,-0.77543 -87.01109,-0.73156 -47.478087,0.0439 -86.127987,-0.10941 -85.888677,-0.34063 0.714174,-0.69001 59.81675,-1.56446 115.803207,-1.71335 28.80245,-0.0766 53.55245,-0.45468 55,-0.84018 2.55822,-0.68128 2.65021,-0.97894 3.28597,-10.63193 0.35974,-5.46207 0.9315,-18.25603 1.27059,-28.43103 1.39558,-41.87712 2.53267,-58.82764 3.79501,-56.57196 0.64254,1.14816 0.60039,14.91058 -0.12224,39.91219 -0.60662,20.98788 -1.10171,42.15614 -1.10019,47.04059 l 0.003,8.88082 47.5,-0.72086 c 43.05333,-0.65339 47.5,-0.57202 47.5,0.86917 0,1.41515 -3.32746,1.60607 -30.25,1.73566 -27.69962,0.13334 -55.33208,0.46499 -61.8835,0.74274 -2.48525,0.10536 -2.66651,0.46351 -3.21973,6.36165 -0.80406,8.57244 -1.52608,29.91682 -2.15648,63.75 l -0.53103,28.5 2.02684,-5.5 c 1.11476,-3.025 2.92393,-6.71928 4.02037,-8.20951 1.09644,-1.49023 1.99353,-3.14023 1.99353,-3.66666 0,-0.52644 0.42859,-1.10716 0.95241,-1.2905 0.52383,-0.18333 3.11133,-2.40167 5.75,-4.92965 5.73345,-5.49292 11.36635,-7.74002 14.7982,-5.90335 2.07338,1.10964 4.96578,6.03468 13.49939,22.9861 0.55,1.09254 1,2.5984 1,3.34636 0,5.21352 7.00795,12.36921 16.5,16.84785 6.98609,3.29625 7.02981,3.30265 22,3.21787 8.40635,-0.0476 16.17041,-0.56796 17.66259,-1.18375 5.13289,-2.11823 15.47709,-10.80042 31.20258,-26.18925 21.49385,-21.03368 27.45997,-30.01395 29.5809,-44.52551 2.6947,-18.43736 3.03044,-19.7883 6.11101,-24.58895 3.74644,-5.83832 7.85331,-9.56038 16.74494,-15.17595 6.64059,-4.19391 6.66219,-4.22226 3.68885,-4.83898 -1.64498,-0.34119 -21.77837,-0.39655 -44.74087,-0.12302 -38.18161,0.45483 -41.75,0.35758 -41.75,-1.13788 0,-1.46337 2.33838,-1.63966 22.25,-1.67748 12.2375,-0.0233 34.41381,-0.22193 49.28068,-0.44153 24.22588,-0.35783 27.51257,-0.60582 31.67483,-2.38998 17.35421,-7.43888 44.13894,-11.01506 79.29449,-10.58705 13.76247,0.16755 15.76433,0.4344 24.26443,3.23449 7.33645,2.41676 12.33098,3.28311 24,4.16304 8.10456,0.61114 19.01057,1.55473 24.23557,2.09687 14.94077,1.55024 28.60836,1.26914 31.53518,-0.64859 2.25146,-1.47521 2.46482,-2.25427 2.46482,-9 C 583.39316,242.32325 583.1532,239 582.85992,239 c -0.29329,0 -2.65579,1.06062 -5.25,2.35694 -5.979,2.98768 -9.55675,3.84682 -12.71676,3.0537 -3.15981,-0.79306 -3.26681,-3.64383 -0.25,-6.66064 l 2.25,-2.25 0.31642,2.75 c 0.17403,1.5125 0.75888,2.75 1.29966,2.75 1.83559,0 6.37407,-2.79943 8.87103,-5.47183 l 2.48711,-2.66186 -2.43562,-1.8372 c -1.3396,-1.01045 -5.3838,-3.04382 -8.98711,-4.51858 -6.99104,-2.86129 -10.34596,-5.22506 -9.45714,-6.66319 0.30095,-0.48696 2.75038,-2.00181 5.44318,-3.36636 5.01633,-2.54196 14.96247,-3.52643 14.96247,-1.48098 0,0.55 -1.34089,1 -2.97976,1 -3.95404,0 -11.20162,2.95556 -10.72887,4.37522 0.20601,0.61863 4.16223,2.79629 8.7916,4.83925 8.40639,3.70977 8.41785,3.71167 9.06735,1.5 0.35768,-1.21796 0.69518,-6.52941 0.75,-11.80323 0.0548,-5.27382 0.39624,-19.11132 0.7587,-30.75 C 585.6431,165.18686 585.88654,163 587.40784,163 c 1.56972,0 1.65945,2.31899 1.19956,31 -0.27339,17.05 -0.17886,31 0.21008,31 0.38894,0 1.61949,-0.48826 2.73456,-1.08503 2.65325,-1.41998 6.51194,-0.39857 7.83522,2.074 1.2129,2.26632 -0.59042,7.60386 -3.3392,9.88347 -2.42535,2.0114 -2.01839,3.3891 0.5951,2.01458 1.2375,-0.65085 5.3927,-3.61357 9.23379,-6.58383 4.02717,-3.11416 7.14809,-4.90756 7.37188,-4.23618 0.21346,0.64037 -0.004,1.44975 -0.48379,1.79864 -0.47953,0.34889 -2.57143,2.74979 -4.64865,5.33532 -5.55685,6.91664 -9.08189,9.08608 -15.10088,9.29366 l -5.12235,0.17666 -0.29461,6.04469 -0.29461,6.0447 3.62879,0.68077 c 4.1699,0.78227 43.72132,0.82326 75.96043,0.0787 12.1,-0.27944 25.375,-0.12801 29.5,0.33652 4.125,0.46453 7.72989,0.49688 8.01087,0.0719 0.68779,-1.04034 75.917,-1.64816 76.2604,-0.61615 0.14868,0.44682 1.49847,0.34546 2.99953,-0.22525 2.15592,-0.81968 2.7292,-0.74747 2.7292,0.34377 0,0.89771 -1.66323,1.59005 -4.75,1.97726 -4.665,0.58518 -49.49145,1.33534 -108.75,1.8199 -32.5141,0.26587 -46.60052,0.88 -44.94645,1.95953 1.84701,1.20546 34.32321,6.87782 43.80943,7.65184 l 9.13702,0.74554 -5.29587,1.20679 c -5.84933,1.33291 -19.38907,0.30121 -31.09118,-2.3691 -3.51287,-0.8016 -12.8032,-2.56176 -20.64516,-3.91147 -7.84196,-1.34971 -16.21779,-2.90588 -18.61295,-3.45816 -6.16073,-1.42055 -15.40104,-1.31106 -16.62204,0.19696 -1.17935,1.45657 -1.90679,15.93548 -3.22801,64.25 -0.52642,19.25 -1.2089,42.65 -1.51662,52 -0.30773,9.35 -1.2093,39.5 -2.0035,67 -3.02945,104.89773 -2.94731,96.56565 -0.99568,101 3.03532,6.89662 3.0435,21.75421 0.0292,52.9935 -1.48562,15.39643 -2.87893,28.28121 -3.09626,28.63285 -0.55577,0.89926 -2.20569,46.71586 -2.96639,82.37365 -0.352,16.5 -0.8955,39 -1.20777,50 -0.31228,11 -0.60827,26.975 -0.65776,35.5 l -0.09,15.5 18,2.11795 c 9.9,1.16487 20.01856,2.40397 22.48568,2.75356 2.46713,0.34958 9.44213,1.09744 15.5,1.6619 14.6298,1.36318 72.03586,7.61569 81.51432,8.87831 4.125,0.54949 13.8,1.69538 21.5,2.54643 7.7,0.85104 17.35125,2.04037 21.44723,2.64296 4.09598,0.60259 12.42098,1.46597 18.5,1.91863 6.07902,0.45266 13.64494,1.33207 16.81315,1.95424 3.16821,0.62217 6.15923,0.88472 6.6467,0.58345 0.48747,-0.30128 4.6453,0.10663 9.23962,0.90646 4.59431,0.79983 11.0533,1.67096 14.3533,1.93586 3.3,0.26489 6.9,0.67815 8,0.91836 1.1,0.2402 5.96662,0.75971 10.81471,1.15447 4.84808,0.39476 10.02308,0.87678 11.5,1.07117 1.47691,0.19439 5.38529,0.60633 8.68529,0.91542 3.3,0.30909 9.375,0.97979 13.5,1.49046 18.55809,2.29744 24.93072,3.02808 31,3.55424 3.575,0.30993 8.975,0.98156 12,1.49251 3.025,0.51096 7.975,1.17819 10.99999,1.48274 3.025,0.30455 7.3,0.76826 9.5,1.03048 2.2,0.26221 6.7,0.71287 10,1.00145 3.3,0.28858 7.8349,0.7811 10.0774,1.09449 5.4415,0.76041 7.8399,1.0131 21.9226,2.30973 6.6,0.60768 12.9361,1.31474 14.0803,1.57126 2.1568,0.48355 6.6526,1.0183 16.91974,2.01254 3.3,0.31957 8.7,0.98242 12,1.47301 3.3,0.49059 10.05,1.20715 15,1.59236 11.8088,0.91896 15.7351,1.26248 23.25,2.03415 l 6.25,0.64179 0.1855,-4.37019 c 0.102,-2.4036 0.2606,-11.12019 0.3525,-19.37019 0.1613,-14.47553 1.2888,-42.56894 2.0174,-50.26398 0.5936,-6.26947 2.2192,-72.59789 2.9469,-120.23602 0.2394,-15.675 0.6681,-32.775 0.9528,-38 0.2846,-5.225 0.7424,-16.025 1.0174,-24 0.275,-7.975 0.7725,-21.925 1.1056,-31 1.2198,-33.22742 1.65,-49.69497 2.9782,-114 0.3124,-15.125 0.7438,-30.2 0.9586,-33.5 0.2148,-3.3 0.6565,-16.125 0.9815,-28.5 0.325,-12.375 0.7698,-25.65 0.9884,-29.5 0.6204,-10.92601 1.4533,-30.53317 2.0179,-47.5 0.2837,-8.525 0.7508,-20.9 1.038,-27.5 1.174,-26.97993 1.2914,-37.81137 0.4342,-40.06614 l -0.9034,-2.37594 -49.7857,-0.1136 c -27.3822,-0.0625 -51.36084,-0.14478 -53.28584,-0.1829 -1.925,-0.0381 -6.875,0.2071 -11,0.54491 -8.5567,0.70075 -49.01202,1.44496 -125.24999,2.30409 -46.70879,0.52636 -52.75,0.42098 -52.75,-0.9201 0,-2.7969 -18.16573,-2.45196 223.23323,-4.23885 37.2533,-0.27576 68.3615,-0.74244 69.1293,-1.03706 2.2887,-0.87829 2.9011,-9.92741 4.1453,-61.25395 0.4768,-19.66836 1.3823,-26.23294 2.941,-21.32169 0.3779,1.1905 0.4433,8.3513 0.1453,15.91289 -0.2979,7.56159 -0.8347,23.59208 -1.1928,35.62332 -0.7433,24.96936 -0.5807,25.34972 6.0474,14.14223 5.4122,-9.15147 13.1752,-16.99788 19.8329,-20.04584 18.5575,-8.49594 25.1993,-13.74644 34.1182,-26.97137 1.8546,-2.75 4.6798,-5.95678 6.2781,-7.12619 3.4568,-2.52902 11.5081,-6.52111 12.053,-5.97621 0.2111,0.2111 0.557,6.39549 0.7685,13.74311 0.5526,19.18774 4.7826,45.07333 10.0269,61.35929 1.4168,4.4 3.2301,11.07693 4.0296,14.83763 2.1943,10.32275 5.8952,20.5972 11.4285,31.72822 5.4085,10.8797 8.0163,14.95399 17.8798,27.93415 10.1587,13.36862 12.0767,15.5861 21.4655,24.81795 22.1603,21.78965 28.1705,26.34857 38.3575,29.09558 2.3029,0.62101 6.3529,2.92606 9,5.12233 2.647,2.19627 7.5128,6.25639 10.8128,9.02248 3.3,2.76609 9.3185,6.85193 13.3745,9.07964 10.7555,5.9074 30.5572,25.71276 35.3554,35.36202 4.4695,8.98817 5.178,11.91657 3.2669,13.50262 -1.2396,1.02878 -2.9346,-0.22794 -10.299,-7.63558 -7.2742,-7.31703 -10.938,-10.05029 -20.9592,-15.63596 -6.6792,-3.7229 -12.4159,-7.20895 -12.7483,-7.74677 -0.8547,-1.3829 -11.3121,-6.1253 -15.4903,-7.02479 -1.925,-0.41442 -7.325,-2.40318 -12,-4.41947 -4.675,-2.01628 -11.8266,-5.00847 -15.8925,-6.64929 -19.9244,-8.04065 -32.8617,-16.775 -50.0206,-33.7705 -8.1185,-8.04114 -16.0224,-16.19526 -17.5642,-18.12026 -7.0309,-8.77843 -19.9587,-22.05998 -30.0227,-30.84431 -6.05,-5.28072 -11.1457,-9.93825 -11.3239,-10.35005 -0.1781,-0.41181 -4.9031,-4.85842 -10.5,-9.88135 -5.5968,-5.02293 -12.1468,-10.99823 -14.5555,-13.27845 C 1111.8781,277.47068 1090.9636,262 1088.5475,262 c -1.6459,0 -2.0144,4.35001 -2.6255,31 -0.3216,14.025 -0.8006,29.1 -1.0645,33.5 -0.2638,4.4 -0.9281,24.875 -1.4763,45.5 -0.5481,20.625 -1.2097,42.675 -1.4702,49 -0.5587,13.56393 -1.2951,40.79787 -2.0416,75.5 -0.2957,13.75 -0.9781,41.875 -1.5163,62.5 -0.5383,20.625 -1.408,54.6 -1.9329,75.5 -0.5248,20.9 -1.1901,43.4 -1.4784,50 -0.5376,12.30906 -0.756,20.23099 -2.5783,93.5 -0.5813,23.375 -1.3749,44.3 -1.7636,46.5 -0.3887,2.2 -0.5658,12.21187 -0.3936,22.24859 0.3532,20.58688 -0.082,19.552 8.6869,20.67507 2.75,0.35223 6.35,0.87969 8,1.17215 1.65,0.29245 4.575,0.69641 6.5,0.89767 1.925,0.20127 4.625,0.5819 6,0.84585 1.375,0.26394 7.2364,0.7689 13.0254,1.12212 5.7889,0.35322 11.8639,0.81288 13.5,1.02146 1.636,0.20857 5.8996,0.6736 9.4746,1.03338 3.575,0.35979 8.075,0.81414 10,1.00968 1.925,0.19553 7.3818,0.83792 12.1263,1.42753 4.7445,0.5896 10.5945,0.99884 13,0.90941 2.4055,-0.0894 5.2737,0.12009 6.3737,0.46559 2.1198,0.66582 30.1611,3.75116 31.3191,3.44599 0.3745,-0.0987 2.2559,0.13506 4.1809,0.51943 1.925,0.38438 10.025,1.34132 18,2.12653 21.3786,2.10494 43.3183,4.40432 53.2768,5.58367 11.4788,1.3594 58.661,6.72879 65.7232,7.47938 3.025,0.32151 16.3,1.87636 29.5,3.45523 25.7249,3.07699 41.0996,4.74986 51.5,5.60356 3.575,0.29344 7.9625,0.76186 9.75,1.04093 2.4835,0.38773 3.25,0.14294 3.25,-1.03791 0,-0.84992 0.01,-1.76281 0.017,-2.02864 0.01,-0.26584 1.5991,-2.06584 3.5333,-4 3.511,-3.51096 5.45,-4.40636 5.45,-2.51667 0,0.55 -0.3975,1 -0.8834,1 -0.4858,0 -1.1305,0.94528 -1.4327,2.10062 -0.3536,1.3524 -0.99,1.82825 -1.7865,1.33595 -0.8704,-0.53794 -1.042,-0.25588 -0.5788,0.95132 0.3911,1.01928 0.2571,1.46793 -0.3301,1.10503 -0.544,-0.33602 -0.9888,-0.10784 -0.9888,0.50708 0,0.61492 -0.45,0.83992 -1,0.5 -0.55,-0.33992 -1,0.0139 -1,0.78624 0,1.03144 2.5887,1.70813 9.75,2.54869 11.6857,1.37162 16.7809,0.52717 21.25,-3.5219 4.3265,-3.91982 9.5413,-7.33363 12.8183,-8.39126 2.0249,-0.65356 6.6359,-2.70332 10.2467,-4.55503 3.6107,-1.85171 7.6607,-3.36842 9,-3.37048 1.3392,-0.002 4.01,-0.96869 5.935,-2.14807 1.925,-1.17939 5.6827,-2.72391 8.3506,-3.43228 2.6678,-0.70836 5.5928,-1.9393 6.5,-2.73541 0.9071,-0.79611 3.4494,-2.36178 5.6494,-3.47925 2.2,-1.11748 5.8,-3.907 8,-6.19894 2.2,-2.29193 5.35,-4.87268 7,-5.73499 4.4561,-2.32881 15.8765,-11.01529 22.6985,-17.26472 10.0749,-9.22935 22.562,-30.02247 27.6264,-46.0026 5.2434,-16.54503 6.262,-20.79327 7.6194,-31.77676 1.9333,-15.64399 1.1521,-31.69118 -1.9963,-41.00819 -0.7964,-2.35672 -1.448,-5.36766 -1.448,-6.69098 0,-1.32332 -0.45,-2.68415 -1,-3.02407 -0.55,-0.33992 -1,-1.77271 -1,-3.18397 0,-7.28605 -17.899,-37.37978 -31.3409,-52.69361 -2.8375,-3.23267 -5.554,-6.55773 -6.0366,-7.38902 -0.9088,-1.56537 -2.9176,-4.04908 -8.2194,-10.16246 -1.7032,-1.96402 -4.6296,-5.82094 -6.503,-8.57094 -1.8733,-2.75 -5.7673,-7.44833 -8.6531,-10.44073 -2.8859,-2.9924 -5.247,-5.87105 -5.247,-6.39701 0,-0.52595 -1.4943,-2.80262 -3.3207,-5.05927 -1.8263,-2.25664 -4.977,-7.48329 -7.0014,-11.61476 -2.0244,-4.13147 -4.8051,-8.72433 -6.1793,-10.20636 -1.3742,-1.48202 -2.4986,-3.43226 -2.4986,-4.33386 0,-0.9016 -0.8404,-2.83374 -1.8676,-4.29364 -1.885,-2.67923 -5.6354,-9.873 -10.6197,-20.37032 -2.0511,-4.31971 -6.2974,-9.32729 -17.3835,-20.5 -10.5706,-10.65328 -17.1784,-18.37557 -23.6493,-27.63811 -4.9389,-7.06973 -10.5029,-14.71973 -12.3642,-17 -1.8614,-2.28027 -5.6485,-7.52094 -8.4157,-11.64594 -2.7672,-4.125 -8.8643,-12.675 -13.5491,-19 -4.6849,-6.325 -11.0187,-14.875 -14.0753,-19 -12.7594,-17.21927 -34.1028,-40.50554 -43.5756,-47.54236 -3.85,-2.85993 -7.9,-6.2179 -9,-7.46214 -1.1,-1.24424 -4.475,-4.07247 -7.5,-6.28494 -3.025,-2.21247 -8.5513,-6.48981 -12.2807,-9.50519 -3.7294,-3.01538 -10.2544,-7.80412 -14.5,-10.64165 -4.2456,-2.83752 -12.6693,-8.46226 -18.7193,-12.49941 -9.2729,-6.18781 -23.3873,-17.18258 -28.615,-22.29042 -0.7618,-0.74428 -4.535,-3.99763 -8.385,-7.22967 -3.85,-3.23203 -10.1838,-8.95701 -14.0751,-12.72217 -3.8913,-3.76516 -7.7492,-7.40291 -8.5732,-8.0839 -3.182,-2.62967 -15.8525,-19.61349 -18.861,-25.28161 -5.2125,-9.82048 -8.8692,-21.78006 -9.5735,-31.31121 -1.1489,-15.54596 4.1031,-43.35305 12.417,-65.74325 3.1438,-8.46673 5.0493,-17.82721 8.2246,-40.40208 1.0444,-7.425 3.052,-17.325 4.4614,-22 5.0621,-16.79143 5.6638,-22.994639 5.5283,-57 -0.087,-21.778986 -0.5466,-33.814527 -1.4903,-39 -0.7506,-4.125 -1.9229,-10.65 -2.605,-14.5 -0.6822,-3.85 -1.4488,-7.5625 -1.7037,-8.25 -0.2724,-0.73477161 0.3514,-1.25 1.5136,-1.25 2.4175,0 3.4132,3.3841889 6.1886,21.033474 1.6292,10.36081 1.9859,17.901489 2.0578,43.5 0.095,33.738073 -0.2852,37.316136 -6.0697,57.173246 -1.6753,5.75087 -3.4425,13.90699 -3.9271,18.12471 -2.3522,20.47002 -6.2177,39.09033 -9.9239,47.80302 -6.0654,14.25865 -11.7931,45.86357 -10.7588,59.36555 1.1804,15.40984 8.1695,31.38754 19.9207,45.54061 11.1572,13.43766 44.6242,42.99967 62.5407,55.24322 25.9768,17.75179 47.6565,33.79332 55.3163,40.93033 2.5342,2.36127 7.4589,6.42906 10.9439,9.03953 5.2894,3.96216 17.9961,16.99688 32.4853,33.32413 5.0466,5.68669 21.4919,27.57995 31.4902,41.92218 5.1762,7.425 9.7589,13.95 10.1839,14.5 4.6691,6.04246 11.3795,15.19779 18.743,25.57213 9.2118,12.97836 25.6837,31.36072 29.0624,32.43307 2.656,0.843 6.4992,6.85547 13.7396,21.4948 3.4002,6.875 9.3461,17.42221 13.2131,23.43823 3.867,6.01603 7.0309,11.31456 7.0309,11.77452 0,2.85159 11.1021,17.89122 26,35.22114 16.7714,19.50935 25.0071,30.00097 33.806,43.06611 12.8402,19.06588 23.4255,42.10997 24.8291,54.05248 0.5195,4.41974 0.3625,5.44752 -0.8319,5.44752 -1.2313,0 -1.3309,1.02266 -0.6089,6.25 1.0201,7.38435 -0.4541,28.1829 -2.463,34.75 -0.7572,2.475 -1.4821,7.15153 -1.6111,10.39229 -0.411,10.32771 -4.5834,23.2575 -8.5739,26.5693 -1.6494,1.36883 -4.3123,5.07126 -13.0058,18.08243 -7.0326,10.52547 -16.3033,20.63622 -21.0405,22.9469 -2.2,1.0731 -5.4903,3.31415 -7.3117,4.98009 -1.8215,1.66594 -4.1675,3.02899 -5.2134,3.02899 -1.046,0 -4.9013,2.8125 -8.5674,6.25 -3.6661,3.4375 -8.3598,7.15 -10.4304,8.25 -7.8666,4.17911 -10.559,5.395 -13.15,5.93862 -1.4701,0.30844 -4.0837,1.74785 -5.8079,3.1987 -2.0214,1.70084 -4.6241,2.75999 -7.3271,2.98159 -2.3057,0.18903 -7.1171,1.64055 -10.6921,3.2256 -3.575,1.58504 -8.6979,3.67872 -11.3841,4.65262 -5.7792,2.09524 -11.6045,6.89619 -10.1159,8.33708 0.55,0.53237 2.8,1.23748 5,1.56691 15.7798,2.36287 27.7648,4.3908 26.5,4.48395 -0.825,0.0608 -8.25,-0.58241 -16.5,-1.42926 -22.319,-2.29102 -25.0339,-2.16937 -30.0198,1.34507 -2.297,1.61906 -5.9322,3.51625 -8.0783,4.21599 -2.146,0.69974 -5.7019,2.49555 -7.9019,3.99069 -2.2,1.49515 -4.9,3.03018 -6,3.41119 -6.0547,2.09717 -22.938,31.1719 -28.5009,49.08125 -1.5375,4.95 -5.1188,14.85 -7.9584,22 -2.8396,7.15 -5.5854,14.347 -6.1018,15.9934 -1.4479,4.6163 -1.112,21.753 0.5877,29.9819 2.7603,13.363 6.4994,19.6454 14.8892,25.0165 6.7094,4.2953 23.9736,21.0983 26.1092,25.4118 2.8533,5.7628 3.0568,17.2263 0.4935,27.8011 -1.6404,6.7675 -2.8034,9.5796 -4.3924,10.6207 -1.1887,0.7789 -4.8534,6.7019 -8.1437,13.1622 -5.0685,9.9517 -7.2243,12.993 -14.1124,19.9092 -6.9415,6.9698 -10.2232,9.3045 -22.4493,15.9708 -14.8024,8.0711 -21.149,10.0749 -30.7284,9.702 -5.7045,-0.2221 -8.1923,0.6629 -8.1923,2.9145 0,1.0171 -0.5625,2.0386 -1.25,2.2699 -1.8575,0.6252 0.6023,3.2316 7.4177,7.8599 3.1615,2.1469 7.2108,6.0371 8.9984,8.6448 3.3263,4.8524 13.829,18.1519 17.1692,21.7413 5.0073,5.3808 15.6647,24.9362 15.6647,28.7432 0,0.9898 1.0125,2.2196 2.25,2.7329 1.2375,0.5133 12.825,2.0861 25.75,3.4952 25.4334,2.7728 33.6937,4.2986 24,4.4331 -3.025,0.042 -11.35,-0.5623 -18.5,-1.343 -20.7271,-2.263 -29.2891,-2.7116 -29.9937,-1.5716 -0.3488,0.5644 -0.8043,8.5454 -1.0122,17.7356 -0.7494,33.1316 -1.7969,38.9949 -8.2262,46.0448 -1.6403,1.7986 -3.7806,5.0403 -4.7562,7.2038 -3.4971,7.7553 -9.1669,9.9984 -30.5117,12.0715 -5.775,0.5609 -15.2455,2.3551 -21.0456,3.9872 -5.8,1.632 -11.4281,2.9673 -12.5067,2.9673 -4.6845,0 -27.1925,14.5708 -35.4669,22.9598 -4.7525,4.8184 -11.3226,14.5263 -14.3881,21.2597 -5.2698,11.5753 -6.6854,17.8378 -7.6359,33.7805 -0.4755,7.975 -1.1237,18.325 -1.4405,23 -0.9027,13.3205 -4.5124,30.695 -9.5569,46 -1.7222,5.225 -5.989,18.282 -9.4819,29.0155 -3.4929,10.7335 -7.7859,22.6585 -9.54,26.5 -1.7541,3.8415 -4.6654,11.2595 -6.4695,16.4845 -1.8041,5.225 -4.3892,11.975 -5.7446,15 -1.3554,3.025 -4.5544,11.2729 -7.1089,18.3287 -2.5545,7.0558 -5.2633,14.0308 -6.0196,15.5 -3.6788,7.1465 -10.5955,30.1493 -10.6077,35.2777 -0.016,6.5971 -3.6537,18.338 -8.1784,26.3936 -3.5223,6.2709 -8.0059,17.2311 -11.7963,28.836 -1.2281,3.7598 -4.2573,9.8348 -6.7317,13.5 -2.4744,3.6652 -6.2728,10.0289 -8.4408,14.1416 -2.1681,4.1127 -4.594,8.1981 -5.391,9.0787 -0.7969,0.8807 -1.449,1.9568 -1.449,2.3915 0,1.1632 -11.0114,18.6369 -13.5815,21.5522 -1.2122,1.375 -3.9086,5.2 -5.9919,8.5 -2.0834,3.3 -6.4646,9.15 -9.7361,13 -7.7717,9.1461 -25.6131,27.3882 -28.0755,28.706 -2.7677,1.4813 -15.6622,12.0831 -18.615,15.3053 -2.8868,3.1501 -8.4848,6.8922 -15.1901,10.1541 -2.5796,1.2549 -9.0521,5.2185 -14.3835,8.8081 -5.3313,3.5896 -10.1122,6.5265 -10.6243,6.5265 -0.512,0 -5.6971,1.7961 -11.5225,3.9913 -9.3304,3.516 -11.5553,3.9803 -18.6856,3.8991 -10.1055,-0.115 -25.35694,0.8528 -32.59404,2.0683 -3.025,0.5081 -18.1,0.9423 -33.5,0.9649 -15.731,0.023 -31.46888,0.5481 -35.9166,1.1982 -5.40191,0.7895 -11.11957,0.8745 -18,0.2676 -5.54587,-0.4892 -19.0834,-0.8894 -30.0834,-0.8894 -18.55832,0 -21.26147,0.2422 -37.5,3.3595 -9.625,1.8477 -21.325,4.3973 -26,5.6659 -4.675,1.2685 -12.68209,2.5869 -17.79354,2.9297 -6.44767,0.4325 -12.72517,1.6997 -20.5,4.1385 -6.16355,1.9333 -16.93329,4.3809 -23.93275,5.4392 -7.54566,1.1408 -15.89081,3.1339 -20.5,4.8961 -22.28905,8.5217 -27.6548,10.071 -34.77371,10.0404 -5.46472,-0.024 -6.59604,-0.2649 -5.15818,-1.1008 z M 1053.7797,1218.75 c 0.5542,-13.2862 1.0022,-27.1991 2.1172,-65.75 2.5556,-88.3657 3.1738,-108.1181 4.006,-128 1.1682,-27.91121 2.5318,-73.38378 2.995,-99.87795 0.2175,-12.44213 0.672,-29.66499 1.0101,-38.27303 0.4285,-10.91108 0.2818,-15.8567 -0.4845,-16.33029 -1.4552,-0.8994 -10.16,-2.09931 -32.8219,-4.52435 -10.2896,-1.1011 -22.3084,-2.45085 -26.7084,-2.99947 -4.40004,-0.54861 -10.92504,-1.24773 -14.50004,-1.5536 -11.8492,-1.0138 -24.3538,-2.33454 -36.5,-3.85515 -6.6,-0.82626 -21.225,-2.4678 -32.5,-3.64787 -11.275,-1.18006 -29.95,-3.2356 -41.5,-4.56785 -11.55,-1.33224 -30,-3.29746 -41,-4.36713 -11,-1.06968 -32.15,-3.33498 -47,-5.034 -14.85,-1.69902 -35.1,-3.9414 -45,-4.98308 -25.33495,-2.66573 -97.53231,-10.68199 -112.61828,-12.5043 -6.94006,-0.83832 -16.34708,-1.81176 -20.9045,-2.16321 l -8.28622,-0.63898 0.675,6.58844 c 0.38127,3.72137 0.27652,6.83472 -0.24071,7.15439 -1.22497,0.75707 -1.99788,-1.48713 -2.76754,-8.03577 -0.35185,-2.99367 -1.03332,-5.68629 -1.51439,-5.98361 -1.57205,-0.97158 -26.27022,-3.37648 -27.01103,-2.63011 -0.39682,0.39981 -1.04032,13.86356 -1.42999,29.91945 l -0.70849,29.19253 2.40308,0.51484 c 1.32169,0.28316 6.44641,1.01486 11.38828,1.62601 4.94187,0.61115 9.21687,1.3521 9.5,1.64656 0.28313,0.29447 -4.74255,0.21155 -11.16819,-0.18425 l -11.68298,-0.71964 -0.52253,3.36571 c -0.2874,1.85114 -0.80268,19.79627 -1.14507,39.87807 -0.3424,20.08179 -0.77093,40.55679 -0.95231,45.5 -0.18137,4.9432 -0.48374,21.13618 -0.67195,35.98444 l -0.34218,26.9967 8,1.1949 8,1.1949 -8.25,-0.465 -8.25,-0.4651 -0.013,3.7734 c -0.0349,10.1115 -0.97664,51.5337 -1.6886,74.2734 -0.4391,14.025 -0.79837,35.8354 -0.79837,48.4676 l 0,22.9675 12.5,1.7632 c 19.32901,2.7265 19.14227,2.7031 43,5.369 12.375,1.3828 26.325,2.7269 31,2.987 4.675,0.26 13,1.0994 18.5,1.8653 5.5,0.7659 17.65,2.1407 27,3.055 9.35,0.9144 24.56547,2.5303 33.81217,3.591 9.24669,1.0608 19.82169,2.158 23.5,2.4383 3.6783,0.2804 8.48783,0.7304 10.68783,1 2.2,0.2697 10.525,1.1546 18.5,1.9664 7.975,0.8119 23.275,2.3826 34,3.4905 10.725,1.1078 27.21279,2.6895 36.63953,3.5146 9.42674,0.8252 18.65174,1.7033 20.5,1.9513 1.84826,0.248 6.51047,0.7287 10.36047,1.0683 3.85,0.3397 8.8,0.8054 11,1.035 6.56003,0.6847 51.48387,5.2942 73.49997,7.5417 11.275,1.151 28.6,2.9215 38.50004,3.9344 9.9,1.013 23.4,2.3769 30,3.0309 6.6,0.654 12.1875,1.3633 12.4167,1.5761 0.2291,0.2128 0.9699,0.3869 1.646,0.3869 0.8872,0 1.3948,-3.9665 1.8238,-14.25 z m -402.42125,-37.3413 c -0.56704,-1.4914 -0.8642,-3.206 -0.66036,-3.8102 0.20384,-0.6042 -0.34389,-1.6238 -1.21716,-2.2659 -1.26258,-0.9282 -1.65613,-3.642 -1.92152,-13.25 -0.18356,-6.6454 0.0414,-12.0757 0.5,-12.0673 2.96837,0.054 3.57964,1.8863 2.87778,8.6237 -1.55641,14.9405 -1.39685,15.3392 6.17459,15.4313 6.72628,0.082 12.22251,1.7418 6.15638,1.8594 -1.99375,0.039 -4.94752,0.3348 -6.56392,0.6581 -2.54841,0.5097 -2.88444,0.959 -2.52888,3.3816 0.55687,3.7942 -1.51843,4.8546 -2.81691,1.4393 z m 23.64316,-11.6587 c -4.36381,-7.8161 -5.10961,-9.75 -3.7601,-9.75 1.17327,0 9.15165,12.9097 9.15165,14.8082 0,2.7794 -2.13298,0.7783 -5.39155,-5.0582 z m -14.60845,-9.703 c 0,-1.0793 5.43046,-2.7916 11.75,-3.7047 6.25219,-0.9035 5.17751,0.2909 -2.35534,2.6175 -7.32869,2.2636 -9.39466,2.5027 -9.39466,1.0872 z M 643.665,1123.4028 c -0.62495,-2.1466 -1.45321,-6.1528 -1.84058,-8.9028 -0.69798,-4.9551 -0.68625,-4.9839 1.30685,-3.2085 2.21382,1.9721 3.48376,9.2322 2.35389,13.4569 -0.65293,2.4414 -0.73531,2.3805 -1.82016,-1.3456 z M 639.62113,1096 c -1.03723,-4.0863 -0.56155,-4.9336 1.57203,-2.8 1.38033,1.3803 1.63668,6.8 0.32164,6.8 -0.4831,0 -1.33525,-1.8 -1.89367,-4 z m 380.27207,-13 c -0.9722,-1.5731 5.0013,-1.5531 8.9147,0.03 1.5437,0.6244 0.7371,0.8599 -3.1057,0.9068 -2.855,0.035 -5.4691,-0.3866 -5.809,-0.9366 z m -41.00004,-3.7349 c -4.659,-0.4644 -6.6616,-1.8821 -4.0658,-2.8782 1.9773,-0.7588 18.2296,1.376 20.5658,2.7013 1.515,0.8595 -8.5679,0.9675 -16.5,0.1769 z m -52.75,-5.9936 c -2.0625,-0.2157 -3.75,-0.7388 -3.75,-1.1625 0,-0.995 9.6021,-0.4402 13.5,0.78 2.8155,0.8813 2.7232,0.934 -1.5,0.8569 -2.475,-0.045 -6.1875,-0.2586 -8.25,-0.4744 z M 635.59498,1067.25 c -1.77386,-5.9672 -2.55383,-12.25 -1.52076,-12.25 2.30345,0 4.18048,2.7844 4.38178,6.5 0.53364,9.8497 -0.82851,12.5873 -2.86102,5.75 z m 242.86989,0.6621 c -2.43556,-0.4778 -4.77555,-1.216 -5.19998,-1.6404 -1.29141,-1.2914 8.77165,-1.4455 13.34213,-0.2042 2.35738,0.6402 4.83562,1.2489 5.5072,1.3526 0.67158,0.1038 1.53408,0.5017 1.91666,0.8843 0.95399,0.954 -10.12697,0.6748 -15.56601,-0.3923 z m -47.32171,-5.6284 c -2.77975,-0.4211 -3.68759,-1.8045 -1.63348,-2.4892 1.76834,-0.5895 16.19527,1.0079 18.91771,2.0945 1.88997,0.7544 0.48086,0.964 -6.03423,0.8978 -4.675,-0.048 -9.7375,-0.2739 -11.25,-0.5031 z m -42,-5.0941 c -2.0625,-0.1707 -3.75,-0.7332 -3.75,-1.25 0,-1.0867 9.3058,-1.091 13,-0.01 2.22271,0.6529 2.05634,0.7805 -1.5,1.1504 -2.2,0.2288 -5.6875,0.2763 -7.75,0.1056 z m -46.25,-4.8535 c -7.35123,-0.8925 -9.52115,-1.4929 -8.91872,-2.4676 0.60644,-0.9813 2.5622,-0.8942 17.1574,0.764 2.88127,0.3273 4.99222,0.9939 4.69098,1.4813 -0.53082,0.8589 -6.79876,0.9667 -12.92966,0.2223 z m -49.78,-5.9092 c -5.379,-0.6345 -10.104,-1.5021 -10.5,-1.928 -0.82635,-0.8889 16.52429,0.1887 21.78,1.3527 6.56495,1.4539 -0.69304,1.8241 -11.28,0.5753 z m -44.22,-5.4269 c -1.61985,-0.6961 -1.33474,-0.8587 1.5,-0.8556 1.925,0 5.525,0.3642 8,0.8046 l 4.5,0.8007 -6,0.055 c -3.3,0.03 -6.9,-0.3318 -8,-0.8045 z m -35,-4 c -2.86533,-0.7291 -2.82044,-0.7654 1,-0.8076 2.2,-0.024 6.025,0.3162 8.5,0.7566 l 4.5,0.8007 -5.5,0.01 c -3.025,0 -6.85,-0.3366 -8.5,-0.7565 z m -26.75,-3.6623 c 0.6875,-0.2774 1.8125,-0.2774 2.5,0 0.6875,0.2774 0.125,0.5044 -1.25,0.5044 -1.375,0 -1.9375,-0.227 -1.25,-0.5044 z m 42.25,-7.421 c 0,-3.826 2.35554,-3.4827 2.81642,0.4104 0.22425,1.8943 -0.13987,2.6729 -1.25,2.6729 -1.08321,0 -1.56642,-0.9512 -1.56642,-3.0833 z m 16.69373,-13.9799 c -1.5027,-5.7463 1.66493,-27.04642 4.38879,-29.51148 3.4243,-3.09895 6.35409,1.07943 9.51826,13.57468 l 1.89922,7.5 0.64576,-7.22914 c 0.7186,-8.04445 3.29598,-13.60137 6.5276,-14.07373 2.88094,-0.4211 3.19225,1.24049 1.74295,9.30287 -1.56276,8.6936 -1.70648,13.2026 -0.44568,13.9818 0.53385,0.33 2.44635,-0.1206 4.25,-1.0013 l 3.27937,-1.6013 -3.75,3.5738 c -2.0625,1.9657 -3.75,4.2759 -3.75,5.1338 0,2.9906 -3.49199,0.9291 -5.64294,-3.3314 l -2.14293,-4.2447 -0.72037,2.7447 c -0.66165,2.5209 -0.78582,2.5816 -1.52353,0.7446 -0.44175,-1.1 -1.03838,-2.753 -1.32585,-3.6732 -0.48047,-1.5381 -0.82734,-1.5179 -4.29497,0.25 -2.07476,1.0577 -4.57714,1.9232 -5.56085,1.9232 -1.35434,0 -1.78484,0.789 -1.77325,3.25 0.012,2.5455 0.24041,2.9249 1.05376,1.75 0.86518,-1.2497 0.98776,-1.1801 0.73469,0.4171 -0.43209,2.7271 -2.44483,3.0635 -3.11003,0.5197 z m 10.72067,-10.2506 c 1.706,-1.2474 1.71363,-1.6378 0.15127,-7.73632 -1.86879,-7.29462 -4.27711,-11.63844 -5.67666,-10.23889 -1.25257,1.25257 -3.24583,12.91677 -2.52729,14.78926 0.31653,0.82486 1.60213,1.55195 2.8569,1.61575 1.69374,0.086 1.83062,0.2338 0.53138,0.5733 -0.9625,0.2516 -1.75,0.8744 -1.75,1.384 0,1.3818 4.35466,1.1191 6.4144,-0.3871 z M 668.73063,988.25 c 0.33689,-1.7875 0.22192,-3.25 -0.25548,-3.25 -1.23235,0 -2.08704,2.63781 -2.05158,6.33179 0.036,3.75292 1.34963,1.99819 2.30706,-3.08179 z m 13.70009,21.5 c 0.078,-6.7485 2.61074,-23.7983 3.69654,-24.8841 1.52603,-1.52603 4.33466,-0.31898 4.97747,2.13915 0.65763,2.51478 1.29334,2.49643 5.98127,-0.17271 l 3.80716,-2.16766 -3.75,3.95982 c -3.38493,3.57433 -3.75149,4.49115 -3.76531,9.41766 -0.02,7.11794 -1.00006,8.72754 -4.37737,7.18874 -2.891,-1.3173 -3.09523,-1.1132 -4.02129,4.0191 -0.83091,4.6049 -2.59992,4.952 -2.54847,0.5 z m -56.91885,-10.19282 c -1.58437,-6.29211 -1.49891,-6.83102 0.88129,-5.55718 1.54155,0.82501 2,2.09382 2,5.53518 0,5.72132 -1.4434,5.73232 -2.88129,0.022 z m -3.91806,-30.87883 c -1.82834,-5.0562 -1.5799,-8.89702 0.54935,-8.49268 1.32767,0.25212 1.82493,1.51015 2.06049,5.21284 0.3831,6.02193 -0.99295,7.75125 -2.60984,3.27984 z m -5.04013,-35.2254 C 615.22473,930.53624 615.00531,926 616.19316,926 c 1.83633,0 3.2,2.64211 3.2,6.2 0,4.39259 -1.17311,4.91024 -2.83948,1.25295 z m 410.83952,-5.41498 c -2.2154,-0.67584 -2.2935,-0.85025 -0.686,-1.53186 2.0843,-0.88381 13.5509,0.1034 16.9196,1.45668 2.8553,1.14702 -12.4872,1.21808 -16.2336,0.0752 z m -24.25,-2.84207 c -5.27544,-0.33927 -6.64564,-2.25404 -1.5,-2.09622 4.0622,0.12459 8.5612,1.33244 7.2399,1.94372 -0.5444,0.25189 -3.1274,0.32052 -5.7399,0.1525 z m -46.50004,-4.9193 c -2.1109,-0.26195 -3.25,-0.95201 -3.25,-1.96879 0,-1.30612 0.8698,-1.45551 5.25,-0.90176 8.9017,1.12536 11.75,1.78114 11.75,2.70524 0,0.87235 -7.3414,0.96061 -13.75,0.16531 z m -38,-4.00881 c -2.3375,-0.21053 -4.25,-0.80691 -4.25,-1.32529 0,-1.35157 7.79418,-1.02142 12.5,0.5295 l 4,1.31829 -4,-0.0698 c -2.2,-0.0384 -5.9125,-0.24211 -8.25,-0.45265 z m -41.75,-4.77288 c -0.55,-0.19096 -4.50906,-0.64584 -8.79791,-1.01086 -6.22735,-0.53 -7.5812,-0.92479 -6.72192,-1.96016 1.14425,-1.37873 4.0281,-1.25595 14.86621,0.6329 4.19723,0.73149 5.89044,1.395 5,1.95931 -1.3856,0.87813 -2.60271,0.9842 -4.34638,0.37881 z M 611.92259,901.48768 c -2.06444,-9.27925 -1.8653,-11.20211 0.94617,-9.13625 1.59452,1.17165 2.0496,2.91732 2.3593,9.05011 0.49819,9.86579 -1.12032,9.90797 -3.30547,0.0861 z m 198.97057,2.93104 c -1.1,-0.1699 -4.63872,-0.5974 -7.86382,-0.94999 -4.26239,-0.466 -5.5636,-0.94131 -4.76451,-1.7404 1.30607,-1.30607 20.9421,0.68544 22.54299,2.28633 0.9402,0.9402 -4.90204,1.1783 -9.91466,0.40406 z m -49.5,-5.12548 c -6.08466,-0.48318 -7.61541,-1.07783 -6.26104,-2.4322 1.18148,-1.18148 13.60183,0.47809 16.2871,2.17623 1.52874,0.96676 -0.44169,1.01706 -10.02606,0.25597 z m -48.49114,-5.46901 c -11.34375,-1.28682 -12.56492,-3.26911 -1.50886,-2.44931 7.42078,0.55025 16.60064,2.29862 13.33179,2.53913 -0.64252,0.0473 -1.76752,0.25036 -2.5,0.45131 -0.73249,0.20095 -4.9278,-0.0426 -9.32293,-0.54113 z m -41.00886,-4.47761 c -1.65,-0.19455 -5.3625,-0.6095 -8.25,-0.92213 -2.8875,-0.31262 -5.25,-1.05064 -5.25,-1.64005 0,-1.3885 11.83094,-0.33425 18,1.60398 3.85936,1.21256 4.07291,1.40659 1.5,1.36288 -1.65,-0.028 -4.35,-0.21014 -6,-0.40468 z m -50.40503,-5.46471 c -7.5417,-0.87448 -8.96359,-1.34662 -7.74009,-2.57013 0.73013,-0.73013 16.6707,1.26983 21.36386,2.68039 2.42929,0.73014 2.21179,0.83038 -1.71874,0.79214 -2.475,-0.0241 -7.83226,-0.43016 -11.90503,-0.9024 z m -14.62332,-22.97124 c -0.36979,-1.16511 -1.00187,-4.54664 -1.40462,-7.51452 -0.5577,-4.10971 -0.42578,-5.39615 0.55334,-5.39615 2.42634,0 4.64777,13.09821 2.45163,14.4555 -0.51041,0.31545 -1.23056,-0.37973 -1.60035,-1.54483 z M 559.80321,1158 c 0.28538,-12.375 0.80006,-36 1.14373,-52.5 0.34367,-16.5 0.78309,-33.15 0.97649,-37 0.19341,-3.85 0.41535,-16.675 0.49322,-28.5 0.0779,-11.825 0.51652,-30.05 0.97479,-40.5 0.45827,-10.45 1.10581,-29.8 1.43898,-43 0.33317,-13.2 0.82083,-30.75 1.08369,-39 1.31313,-41.21377 2.05932,-101.25306 1.26825,-102.04414 -0.42279,-0.42278 -26.46657,-3.3118 -53.7892,-5.96679 -9.075,-0.88184 -17.175,-1.79112 -18,-2.02064 -0.825,-0.22951 -5.55,-0.87834 -10.5,-1.44184 -4.95,-0.5635 -13.05,-1.49278 -18,-2.06506 -4.95,-0.57228 -15.075,-1.6871 -22.5,-2.47738 -7.425,-0.79028 -21.375,-2.3238 -31,-3.40781 -9.625,-1.08401 -25.825,-2.89023 -36,-4.01382 -10.175,-1.12358 -22.325,-2.4981 -27,-3.05448 -13.92082,-1.65672 -68.1468,-7.82572 -87.5,-9.95439 -32.22077,-3.54399 -37.85468,-4.20172 -48.24372,-5.63226 -5.63404,-0.77579 -14.735,-1.70486 -20.22434,-2.0646 -12.0903,-0.79232 -11.84022,-1.10249 -10.07787,12.49937 0.68723,5.30411 1.0836,11.44384 0.88081,13.64384 -0.36685,3.97995 -0.37638,3.96787 -1.90056,-2.40841 l -1.53187,-6.40841 -1.18862,13.40841 c -0.65374,7.37463 -1.42542,23.98341 -1.71484,36.90841 -0.28942,12.925 -0.73904,28.45 -0.99915,34.5 -0.26011,6.05 -0.71274,20.675 -1.00585,32.5 -0.29311,11.825 -0.74198,27.125 -0.9975,34 -0.25551,6.875 -0.70476,21.05 -0.99833,31.5 -0.5733,20.40775 -1.00458,34.3521 -2.48971,80.5 -0.52215,16.225 -1.25378,42.5944 -1.62585,58.5987 l -0.67647,29.0987 3.94411,0.6307 c 5.05837,0.8088 53.12427,5.6665 56.09976,5.6696 1.56132,0 2.25,-0.5918 2.25,-1.9387 0,-1.0675 0.47635,-2.2354 1.05855,-2.5952 0.60722,-0.3753 0.78652,-1.8927 0.42054,-3.559 -0.69866,-3.181 1.17045,-4.1857 2.14823,-1.1548 0.3105,0.9625 0.81329,2.425 1.1173,3.25 0.30401,0.825 0.45927,2.4695 0.34502,3.6545 -0.11426,1.185 0.1827,2.3958 0.6599,2.6907 0.4772,0.2949 14.79127,1.9208 31.80905,3.6129 17.01777,1.6922 39.26641,3.9647 49.44141,5.05 10.175,1.0853 29.75,3.114 43.5,4.5083 13.75,1.3944 31.3,3.1974 39,4.0068 7.7,0.8094 23.225,2.3783 34.5,3.4866 82.03449,8.0635 120.31512,12.0604 120.93333,12.6266 1.49235,1.3669 2.01518,-3.6227 2.47672,-23.6364 z m -327.7039,-35 c -0.94864,-3.8634 -2.70615,-12.9877 -2.70615,-14.0492 0,-0.5229 0.40934,-0.9508 0.90965,-0.9508 1.0781,0 3.44271,13.1078 2.83276,15.7029 -0.33639,1.4311 -0.54741,1.288 -1.03626,-0.7029 z m -6.16762,-35.5917 c -0.61818,-4.1222 -0.23745,-6.4581 0.86793,-5.325 1.01288,1.0384 1.74759,9.9167 0.82063,9.9167 -0.55,0 -1.30985,-2.0662 -1.68856,-4.5917 z m -3.76479,-30.0416 c -0.37239,-1.7234 -0.97261,-4.3109 -1.33382,-5.75 -0.39985,-1.5932 -0.2409,-2.6167 0.40636,-2.6167 1.25235,0 2.48321,5.7096 1.96584,9.119 -0.32457,2.1389 -0.43017,2.0623 -1.03838,-0.7523 z m -5.69088,-35.4159 c -1.32501,-6.1784 -1.41893,-10.7103 -0.1948,-9.4008 0.95356,1.0201 2.6027,14.45 1.7744,14.45 -0.2732,0 -0.98402,-2.2721 -1.5796,-5.0492 z m -4.98021,-33.28271 c -0.60646,-3.48256 -1.08897,-7.64506 -1.07224,-9.25 0.0263,-2.52431 0.17223,-2.67429 1.0814,-1.11143 1.11145,1.9106 2.55948,16.69334 1.63518,16.69334 -0.29792,0 -1.03787,-2.84936 -1.64434,-6.33191 z M 206.56806,953.75 C 204.34492,940.26532 204.22741,939 205.19827,939 c 0.5395,0 1.23739,0.66836 1.55086,1.48525 0.80452,2.09656 2.04534,19.51475 1.39016,19.51475 -0.29745,0 -1.0045,-2.8125 -1.57123,-6.25 z m 14.46178,-4.5 c -2.15977,-4.19839 -5.63668,-16.10843 -5.63668,-19.30828 0,-5.88044 4.4548,-10.63277 7.94504,-8.47569 0.58229,0.35988 1.46465,-0.38526 1.9608,-1.65586 1.43062,-3.66366 5.07855,-6.95503 7.3345,-6.6176 3.58588,0.53635 4.28366,3.01712 2.86135,10.17276 -0.71206,3.58238 -0.99968,6.9907 -0.63916,7.57405 0.36053,0.58334 2.6805,1.06062 5.1555,1.06062 5.44284,0 5.00095,1.71748 -0.67541,2.62517 -2.90874,0.46512 -3.94262,1.10592 -3.94262,2.44362 0,4.84754 -5.59823,2.40499 -8.49916,-3.70825 -1.72704,-3.63947 -1.83187,-3.69798 -2.6523,-1.48014 -0.54694,1.47851 -0.31362,4.39522 0.64863,8.10869 2.15094,8.30075 2.0053,12.01091 -0.47149,12.01091 -1.14418,0 -2.56915,-1.15628 -3.389,-2.75 z m 10.65343,-29.25138 c 0.28785,-1.10076 0.11534,-1.7492 -0.38337,-1.44098 -0.49871,0.30822 -0.90674,1.20884 -0.90674,2.00138 0,2.06975 0.6795,1.77459 1.29011,-0.5604 z m 13.99646,16.30579 c -1.08012,-2.81476 1.4683,-24.28135 3.19554,-26.91744 2.26944,-3.46361 5.87729,-3.10435 8.66688,0.86303 1.25685,1.7875 2.83991,3.82205 3.5179,4.52123 2.13455,2.20124 0.14851,10.75564 -2.28068,9.82348 -0.74563,-0.28613 -1.8284,0.36301 -2.40614,1.44253 -0.57774,1.07952 -0.7545,1.96276 -0.39281,1.96276 0.3617,0 0.0715,0.70629 -0.64496,1.56952 -0.71642,0.86324 -2.12152,1.35537 -3.12244,1.09362 -1.37438,-0.35941 -1.81986,0.0931 -1.81986,1.84869 0,5.0453 -3.23413,7.64758 -4.71343,3.79258 z m 11.01231,-20.22342 c -0.66871,-2.48475 -3.2059,-5.50731 -3.97626,-4.73694 -0.38392,0.38392 -0.86524,3.50107 -1.06959,6.927 l -0.37154,6.22895 2.92144,-3.41901 c 1.60679,-1.88046 2.72997,-4.13046 2.49595,-5 z M 200.15417,907.5 c -1.08066,-5.84932 -0.98122,-8.12021 0.29948,-6.83951 0.58327,0.58327 0.92077,3.26077 0.75,5.95 l -0.31049,4.88951 -0.73899,-4 z m -4.76101,-31.87549 c 0,-0.38986 -0.63819,-3.95236 -1.41821,-7.91667 C 191.69546,856.12269 191.17103,851 192.2645,851 c 0.54664,0 1.21312,0.7875 1.48107,1.75 1.00873,3.62338 2.85872,22.37221 2.266,22.96493 -0.34013,0.34012 -0.61841,0.29943 -0.61841,-0.0904 z M 189.07569,832.75 c -1.25769,-5.29639 -1.87966,-14.21877 -0.92365,-13.25 0.54275,0.55 1.24286,4.2625 1.55579,8.25 0.57478,7.32409 0.3472,9.1242 -0.63214,5 z m 379.24718,-41.02496 0.0703,-15.77497 -3.6318,-7.22503 C 562.76387,764.75127 559.93303,759.7 558.47062,757.5 547.44422,740.91234 539.17545,714.14027 533.91641,678 c -0.9204,-6.325 -2.09473,-13.525 -2.60963,-16 -0.51489,-2.475 -1.16831,-7.65 -1.45204,-11.5 -0.28373,-3.85 -0.92444,-9.34922 -1.4238,-12.22049 -1.2552,-7.21725 -2.58747,-40.82762 -2.2986,-57.98874 0.2883,-17.12714 2.11898,-29.24465 6.10873,-40.43444 6.59228,-18.48893 8.90121,-21.58567 16.74716,-22.46121 7.13173,-0.79585 14.33423,3.12189 20.84049,11.33599 2.71455,3.42711 5.02859,6.12711 5.1423,6 0.18047,-0.20175 0.93761,-23.90422 2.97813,-93.23111 0.29139,-9.9 0.94205,-31.48095 1.44591,-47.95766 0.50386,-16.47672 0.72862,-30.14515 0.49947,-30.37431 -0.6243,-0.6243 -5.44116,10.61689 -6.99826,16.33197 -3.6831,13.51818 -15.57911,39.86442 -23.16604,51.3061 -3.10521,4.6829 -11.42327,12.10096 -13.64552,12.16911 -0.44464,0.0136 1.15711,-2.56271 3.55944,-5.72521 2.40234,-3.1625 5.70228,-8 7.3332,-10.75 4.62031,-7.79061 17.15819,-34.65957 17.73196,-38 2.38631,-13.89276 4.31236,-20.84741 5.88826,-21.26153 1.98884,-0.52263 3.70987,-5.3999 7.31797,-20.73847 2.052,-8.72338 2.71222,-14.69019 3.18996,-28.82998 0.56476,-16.71488 0.49144,-17.80934 -1.17231,-17.5 -4.47245,0.83156 -4.10335,-8.6067 0.51728,-13.22733 2.38081,-2.38081 2.60297,-9.15303 0.43653,-13.307 -0.82161,-1.57537 -1.49384,-3.71287 -1.49384,-4.75 0,-3.32862 -2.39703,-1.98631 -6.37846,3.57185 -2.13315,2.97793 -5.17065,6.65241 -6.75,8.16553 -4.92818,4.7215 -3.22608,0.45627 3.61064,-9.04773 3.53098,-4.90857 6.15005,-9.36138 5.82016,-9.89515 -0.38547,-0.62371 -23.3262,-0.70039 -64.20107,-0.2146 -34.9807,0.41575 -75.07627,0.82353 -89.10127,0.9062 l -25.5,0.15029 -10.30461,5.48896 c -17.08374,9.10001 -23.16459,16.96143 -25.1304,32.48896 -2.48977,19.66625 -6.28175,26.07078 -28.7413,48.5431 -8.70303,8.70797 -16.72369,16.82439 -17.82369,18.03648 -3.23271,3.56212 -11.66278,9.76815 -16.28118,11.98584 -5.60767,2.69271 -13.61085,3.91822 -27.44605,4.20275 -10.44955,0.2149 -11.8113,0.0157 -18.64714,-2.72723 -10.61876,-4.26091 -16.12563,-9.55235 -19.51298,-18.74963 -1.47696,-4.01022 -4.85934,-11.11631 -7.51639,-15.79131 -6.21135,-10.92868 -8.09813,-11.45448 -15.08642,-4.20426 -6.83298,7.0891 -9.16757,13.89361 -9.09376,26.50516 0.0317,5.41614 0.24522,10.15164 0.4745,10.52332 0.93043,1.50827 2.61074,23.50154 2.72567,35.67578 0.20441,21.65311 -2.22299,32.76908 -10.98136,50.2877 -3.5097,7.02014 -3.93962,10.39543 -4.6125,36.2123 -0.29386,11.275 -0.75989,26.8 -1.03562,34.5 -1.165,32.53358 -2.44496,74.7696 -3.01536,99.5 -0.33616,14.575 -0.77036,29.425 -0.96489,33 -0.19453,3.575 -0.67173,20.3375 -1.06045,37.25 l -0.70676,30.75 2.55892,0 c 3.28471,0 4.96282,1.73093 6.65811,6.86771 0.75008,2.27276 1.82963,4.13229 2.399,4.13229 0.56937,0 2.35191,-1.2375 3.96119,-2.75 l 2.92596,-2.75 -1.68407,3.32183 c -1.3163,2.59641 -1.42523,3.63372 -0.4988,4.75 1.54257,1.85869 -0.42445,4.42817 -3.3899,4.42817 -1.14697,0 -3.81827,1.6875 -5.93623,3.75 -2.64189,2.57271 -3.62773,3.12211 -3.14017,1.75 0.39088,-1.1 1.34985,-2.74643 2.13107,-3.65873 1.25039,-1.46021 1.05967,-2.15669 -1.59365,-5.81949 l -3.01404,-4.16076 -0.50489,3.31949 c -1.99608,13.12361 -1.09102,18.96623 3.12722,20.18765 2.14745,0.62181 20.94454,2.82158 52.26097,6.11596 12.925,1.35967 29.8,3.16987 37.5,4.02268 7.7,0.85281 21.875,2.39945 31.5,3.43698 9.625,1.03753 25.825,2.81631 36,3.95284 22.91271,2.55933 63.45195,6.91186 71.5,7.67667 3.3,0.31359 11.175,1.19604 17.5,1.96098 6.325,0.76494 17.125,1.8839 24,2.48657 6.875,0.60266 19.25,1.94326 27.5,2.97911 8.25,1.03584 18.15,2.15762 22,2.49285 3.85,0.33522 7.99149,0.81478 9.20331,1.06568 1.87908,0.38906 2.30464,-0.0967 2.89189,-3.30115 1.4686,-8.01375 4.82919,-9.01688 4.27018,-1.27464 -0.15615,2.16266 0.0264,4.24244 0.40571,4.62173 0.99419,0.9942 19.38867,3.26404 32.22891,3.97699 6.05,0.33593 11.2109,0.81594 11.46867,1.06669 1.28888,1.25379 1.89731,-4.61722 1.96104,-18.92306 z m -87.77347,5.96322 c -0.59876,-0.72146 -3.34739,-6.00896 -6.10807,-11.75 -7.20611,-14.98565 -6.88185,-21.45138 1.17666,-23.46244 2.18484,-0.54524 3.29195,-0.11288 5.58654,2.1817 1.57394,1.57394 3.06886,3.48316 3.32204,4.2427 0.3602,1.08062 1.73777,1.22138 6.33358,0.64717 5.33872,-0.66703 6.29696,-1.18039 10.52865,-5.6406 6.02489,-6.35024 9.4296,-6.6406 13.92451,-1.18749 1.68617,2.04561 4.05437,5.75811 5.26267,8.25 l 2.19691,4.5307 0.79283,-5.89936 c 1.11176,-8.27249 1.82744,-8.18136 1.82744,0.23269 0,4.11111 -0.42636,7.16667 -1,7.16667 -0.55,0 -1,0.675 -1,1.5 0,3.56751 -2.58626,1.10558 -11.6578,-11.09735 -2.10456,-2.83103 -2.19439,-2.85428 -3.64042,-0.94226 -1.33756,1.76857 -1.26253,2.2578 0.76676,5 4.40069,5.94669 6.85514,16.58392 3.81284,16.5243 -1.6391,-0.0321 -3.04878,-1.72435 -7.69948,-9.24275 -2.63942,-4.26693 -5.20319,-8.00788 -5.69725,-8.31323 -0.49406,-0.30535 -2.13273,0.31424 -3.64147,1.37686 -1.50875,1.06262 -3.86818,2.27115 -5.24318,2.68562 -4.00469,1.20715 -4.73855,2.26067 -5.43005,7.79527 -0.45298,3.62553 -0.17915,6.56974 0.89391,9.61111 1.16076,3.28995 1.26538,4.72374 0.41909,5.74346 -1.4321,1.72559 -4.31407,1.74935 -5.72671,0.0472 z m -2.62872,-28.43462 c -0.44674,-1.77997 -0.95404,-2.22712 -1.69081,-1.49035 -0.73678,0.73678 -0.6542,2.20532 0.27521,4.89465 1.14702,3.319 1.37721,3.5219 1.69081,1.49035 0.19967,-1.29344 0.0758,-3.49603 -0.27521,-4.89465 z m 17.66777,24.05669 c -1.33009,-2.56255 -2.20895,-10.48904 -1.38663,-12.50611 0.65,-1.59438 0.82443,-1.59438 2.91695,0 1.79053,1.36428 2.27925,2.86164 2.5,7.65965 0.22647,4.92225 -0.0195,6.02438 -1.40814,6.31033 -0.92539,0.19055 -2.10537,-0.46819 -2.62218,-1.46387 z m 32.29166,-59.74056 c 1.04317,-10.17025 2.43916,-12.51262 1.82951,-3.06977 -0.28408,4.4 -0.97187,8.45 -1.52842,9 -0.68219,0.67415 -0.7803,-1.25825 -0.30109,-5.93023 z M 215.42484,723.25792 c -0.0352,-1.3793 14.56257,-19.89301 17.55,-22.25792 1.80234,-1.42676 1.82219,-1.39449 0.40659,0.66104 -0.81855,1.18857 -4.18827,5.46772 -7.48827,9.50922 -3.3,4.0415 -6.99824,8.69403 -8.21832,10.33896 -1.22008,1.64493 -2.23258,2.43185 -2.25,1.7487 z m 315.47754,-14.243 C 529.87613,707.35442 532.41216,688 533.65598,688 c 0.69308,0 0.81536,3.39463 0.3681,10.2194 -0.64711,9.87448 -1.61732,13.22966 -3.1217,10.79552 z M 241.27826,690.5 c 0.54227,-1.1 3.37746,-4.94855 6.30042,-8.55233 2.92296,-3.60378 7.89799,-9.76226 11.05561,-13.6855 3.15762,-3.92325 6.30762,-7.47358 7,-7.88963 1.4706,-0.88369 2.10622,-1.78066 -8.94823,12.62746 -8.6235,11.23968 -17.02665,20.78387 -15.4078,17.5 z m 29.1149,-36.08464 c 0,-0.94303 15.66313,-20.89651 17.64242,-22.47492 2.11213,-1.68435 -3.70285,6.65853 -11.36774,16.30956 -5.04467,6.35185 -6.27468,7.56043 -6.27468,6.16536 z m 23,-29.04305 c 0,-1.04379 9.71642,-13.81005 12.1104,-15.91167 2.98824,-2.62331 1.74913,-0.60084 -5.38501,8.78936 -5.59616,7.36585 -6.72539,8.56173 -6.72539,7.12231 z m 22,-27.96794 c 0,-1.64902 12.0266,-16.7111 12.75872,-15.97898 C 328.60786,581.88137 316.64268,598 315.84822,598 c -0.25028,0 -0.45506,-0.26803 -0.45506,-0.59563 z m -3.4551,-35.15234 c -4.58831,-7.9776 -5.96601,-16.73972 -2.97583,-18.92619 4.30508,-3.14795 7.74661,3.53233 7.27138,14.11433 -0.18711,4.16639 0.14882,6.9491 0.93364,7.73392 1.6058,1.6058 1.57035,3.82591 -0.0611,3.82591 -0.70785,0 -3.03349,-3.03658 -5.16809,-6.74797 z m -0.55462,-13.97327 c -1.08042,-1.68389 -1.1106,-1.68106 -0.56579,0.053 0.31653,1.00748 0.63679,2.80748 0.71169,4 0.13605,2.16606 0.13661,2.16601 0.56578,-0.053 0.23629,-1.22169 -0.084,-3.02169 -0.71168,-4 z M 344.7563,559.5 c 0.79576,-1.65 2.67566,-4.125 4.17756,-5.5 2.23173,-2.04316 2.53593,-2.13453 1.66471,-0.5 -0.58632,1.1 -2.46622,3.575 -4.17757,5.5 -3.09727,3.48396 -3.1049,3.48625 -1.6647,0.5 z m -22.05058,-10.28566 c -1.70489,-1.08407 -3.31256,-5.79562 -3.31256,-9.70801 0,-5.21753 4.22068,-8.35521 6.89863,-5.12847 0.89848,1.0826 0.71043,1.49111 -0.87755,1.90638 -1.56362,0.40889 -2.02108,1.35681 -2.02108,4.18788 0,6.40436 3.48266,9.64522 6.8,6.32788 0.66667,-0.66667 1.2,-0.75556 1.2,-0.2 0,2.8155 -5.68196,4.52539 -8.68744,2.61434 z M 336.16874,538.25 c -3.02595,-3.45112 -4.75599,-8.20274 -5.4325,-14.92052 -0.89027,-8.84037 -0.71431,-11.8012 0.86579,-14.56837 1.251,-2.19083 1.29901,-2.15232 1.54476,1.23889 0.51357,7.08693 1.38919,12 2.13866,12 0.42336,0 1.35906,-1.10113 2.07933,-2.44696 1.23604,-2.30958 3.83793,-4.07682 4.71335,-3.2014 0.87022,0.87022 -2.9913,8.64836 -4.29355,8.64836 -1.90179,0 -1.74803,2.02123 0.60858,8 1.1,2.79072 2,5.50738 2,6.03702 0,1.57488 -2.57397,1.09534 -4.22442,-0.78702 z m 216.22442,-30.31066 c 0,-3.21904 2.16916,-9.93934 3.20819,-9.93934 0.49039,0 0.75666,2.58313 0.59171,5.74028 -0.23657,4.52807 -0.66946,5.81061 -2.0499,6.07333 -1.23871,0.23573 -1.75,-0.31186 -1.75,-1.87427 z m -153,-18.28694 c 0,-1.18539 5.18417,-8.49159 11.44462,-16.12923 7.72015,-9.41846 6.96831,-6.52997 -1.0832,4.16154 -7.19199,9.55015 -10.36142,13.21092 -10.36142,11.96769 z m 157.18615,-3.9281 c -0.93257,-1.12368 -0.96048,-2.67812 -0.11856,-6.60384 0.6056,-2.82383 1.51314,-4.87958 2.01675,-4.56833 1.071,0.66191 1.10432,8.11125 0.0483,10.79482 -0.63001,1.60096 -0.88925,1.65122 -1.94647,0.37735 z M 424.66607,456.81812 c 0.95013,-2.61096 10.91753,-15.76172 16.15771,-21.31812 6.06427,-6.43022 5.0308,-4.48347 -4.51698,8.50861 -7.81652,10.63629 -12.87584,16.20359 -11.64073,12.80951 z M 558.39874,452.25 c 0.008,-4.12652 1.97111,-10.38244 3.04849,-9.71658 1.04914,0.6484 1.29066,8.40466 0.33894,10.88479 -1.02164,2.66235 -3.39354,1.84436 -3.38743,-1.16821 z m 3.2231,-23.08845 c -1.76354,-1.11797 -0.18186,-8.66155 1.81608,-8.66155 1.05399,0 1.45524,1.21779 1.45524,4.41667 0,4.46966 -0.95728,5.71184 -3.27132,4.24488 z m -107.22868,-10.2903 c 0,-2.09209 17.89271,-24.31187 18.82592,-23.37867 0.65997,0.65998 -4.03788,7.55519 -10.98844,16.12811 -6.36538,7.85115 -7.83748,9.21302 -7.83748,7.25056 z m 32,-39.92044 c 0,-1.51994 8.76604,-12.46334 13.57817,-16.95081 l 3.75323,-3.5 -2.36904,3.5 c -3.39047,5.00908 -12.76087,16.75744 -13.95349,17.49452 -0.55488,0.34293 -1.00887,0.0983 -1.00887,-0.54371 z m 83.49306,-20.96204 c -0.79349,-1.28389 0.40113,-10.92131 1.64102,-13.23877 1.81488,-3.39217 2.86592,-1.68017 2.86592,4.66821 0,3.53002 -0.27314,7.13002 -0.60699,8 -0.68218,1.77774 -2.94892,2.10937 -3.89995,0.57056 z m -56.49306,-12.929 c 0,-1.96176 17.59886,-24.05977 19.16121,-24.05977 1.10046,0 -0.57932,2.54034 -10.41452,15.75 -6.31275,8.47866 -8.74669,10.79102 -8.74669,8.30977 z M 573.76081,324.5157 C 573.07825,322.73697 575.15872,318 576.6225,318 c 1.36412,0 0.4443,7.28836 -0.97881,7.75586 -0.68721,0.22575 -1.53451,-0.33232 -1.88288,-1.24016 z m -32.36765,-15.09005 c 0,-0.86589 2.28407,-3.90339 5.07571,-6.75 5.35725,-5.46274 5.19557,-3.77592 -0.39053,4.07435 -3.16953,4.4542 -4.68518,5.31978 -4.68518,2.67565 z m 23.0961,427.17929 c -1.52809,-22.52675 -1.33948,-48.04579 0.45164,-61.10494 0.82978,-6.05 2.39166,-18.425 3.47085,-27.5 1.07918,-9.075 2.41357,-19.2 2.96531,-22.5 1.81178,-10.83643 2.99697,-32.60956 3.06415,-56.29127 l 0.0661,-23.29127 -4.67936,-7.92436 c -5.21137,-8.82531 -11.38825,-15.69234 -14.91036,-16.57634 -6.60205,-1.657 -9.36357,1.27732 -14.31961,15.21563 -7.27012,20.4464 -8.66354,34.3464 -7.25781,72.39994 0.90562,24.51562 2.08108,37.32905 3.56009,38.80807 0.27112,0.27111 0.49294,-0.45551 0.49294,-1.61472 0,-1.1592 0.39026,-2.34884 0.86723,-2.64363 1.49486,-0.92387 2.17588,8.38835 1.1041,15.09743 -1.06797,6.68521 -0.56696,10.79139 5.16369,42.32052 3.74355,20.59639 10.76272,40.54181 18.20922,51.74263 2.92766,4.4037 3.06159,3.16994 1.75186,-16.13769 z M 540.73126,619.25 c 0.29539,-2.6125 0.56516,-4.8625 0.59949,-5 0.0343,-0.1375 0.51241,-0.25 1.06241,-0.25 1.09219,0 1.36674,5.88072 0.39301,8.41821 -1.30636,3.40432 -2.57661,1.44587 -2.05491,-3.16821 z m 3.26196,-27.08809 c -0.72725,-1.17673 1.39479,-14.45846 2.49433,-15.61191 1.01575,-1.06554 1.28419,12.29987 0.29862,14.86821 -0.66087,1.7222 -1.97237,2.07142 -2.79295,0.7437 z m 4.59599,-37.04074 c -1.03287,-0.63835 -1.02921,-1.89695 0.0192,-6.62294 1.79441,-8.08838 4.04757,-8.68393 3.17041,-0.83799 -0.77442,6.92703 -1.45974,8.53007 -3.18965,7.46093 z m -379.69,182.86904 c 0.34325,-0.55538 -1.07039,-4.49288 -3.14141,-8.75 -3.92397,-8.06598 -6.03799,-7.98239 -3.00048,0.11864 0.85401,2.27763 2.0103,5.37865 2.56954,6.89115 1.04485,2.82587 2.47178,3.52097 3.57235,1.74021 z M 194.22411,447.25 c 2.02497,-6.56589 3.93321,-22.11466 4.08064,-33.25 0.0751,-5.67208 -2.41789,-30.76093 -3.80199,-38.26232 L 193.72085,371.5 193.09462,378 c -0.34443,3.575 -0.8747,16.85 -1.17838,29.5 -0.30368,12.65 -0.83813,28.2875 -1.18765,34.75 -0.73787,13.64258 0.35012,15.19884 3.49552,5 z M 1322.3932,426.06701 c 0,-2.1798 -13.127,-13.99478 -20.5,-18.45101 -8.7418,-5.28353 -14.2939,-9.48231 -22.0734,-16.6928 -5.1658,-4.78804 -12.08,-8.9232 -14.92,-8.9232 -5.2969,0 -17.9836,-9.68626 -36.3329,-27.74003 -8.7244,-8.58398 -9.1115,-9.04002 -20.9198,-24.64899 -17.1652,-22.69009 -25.8011,-39.79616 -30.0968,-59.61659 -1.1318,-5.22191 -3.6097,-14.89439 -5.5066,-21.49439 -1.8969,-6.6 -3.9919,-15.6 -4.6556,-20 -0.6638,-4.4 -1.4061,-8.9 -1.6496,-10 -0.2435,-1.1 -0.9936,-9.875 -1.6668,-19.5 -1.1539,-16.49842 -1.3361,-17.48013 -3.1833,-17.15288 -2.318,0.41067 -7.4952,3.93672 -7.4952,5.10476 0,0.44863 -3.5439,5.03049 -7.8753,10.18191 -7.8284,9.3104 -7.961,9.41012 -22.25,16.7354 -7.9061,4.05305 -14.9845,7.85993 -15.7299,8.45971 -2.9156,2.34632 -18.1448,26.55354 -18.1448,28.84179 0,0.45612 0.675,0.88556 1.5,0.95431 0.825,0.0687 1.95,0.2375 2.5,0.375 0.55,0.1375 10.525,0.30625 22.1667,0.375 11.6416,0.0687 20.9791,0.29835 20.75,0.51022 -0.2292,0.21187 -5.5917,0.6653 -11.9167,1.00763 -22.8608,1.23728 -30,1.85864 -30,2.61106 0,0.42134 1.2375,1.55893 2.75,2.52799 4.7871,3.06706 18.1385,13.72743 25.6349,20.4681 3.9759,3.575 9.6782,8.6839 12.672,11.3531 2.9937,2.66921 8.6004,7.84421 12.4594,11.5 3.8589,3.6558 11.0155,10.0219 15.9034,14.1469 4.8879,4.125 13.3691,12.675 18.8471,19 17.49,20.1943 38.4717,40.85393 47.2332,46.50816 11.419,7.36918 25.7162,14.68068 35,17.89869 4.4,1.52517 10.475,3.81315 13.5,5.08441 3.025,1.27126 8.2687,3.29428 11.6527,4.49559 3.3839,1.20131 8.5589,3.78857 11.5,5.74946 7.9611,5.30797 18.1768,11.15232 19.5973,11.21156 0.6875,0.0287 1.25,-0.36772 1.25,-0.88086 z M 466.89596,258.82509 c 27.56308,-0.27661 39.9586,-0.96195 37.4972,-2.0732 -12.9088,-5.82792 -14.62617,-6.12395 -34.5,-5.94682 -10.45,0.0931 -22.375,0.40842 -26.5,0.70062 -8.55641,0.60612 -32,5.48235 -32,6.65595 0,0.73396 23.19288,1.72864 27.5028,1.17952 1.10154,-0.14035 13.70154,-0.37258 28,-0.51607 z m 515.1639,1446.50821 c -0.3667,-0.3666 -0.6667,-1.4916 -0.6667,-2.5 0,-1.3553 0.7543,-1.8333 2.893,-1.8333 3.1279,0 4.6375,2.0695 2.8289,3.8781 -1.2413,1.2413 -4.0191,1.4914 -5.0552,0.4552 z m 4.3333,-16.5975 c -1.375,-0.6208 -2.6961,-1.274 -2.9359,-1.4515 -0.2397,-0.1775 -0.3331,-2.3078 -0.2075,-4.734 0.1256,-2.4261 -0.4658,-6.0725 -1.3141,-8.1029 -2.1726,-5.1998 -2.0213,-6.7341 0.5827,-5.9077 1.1689,0.371 1.8911,0.2889 1.605,-0.1826 -0.2862,-0.4714 0.074,-1.4064 0.8012,-2.0778 0.7508,-0.6936 1.4612,-0.8068 1.645,-0.2622 0.178,0.5272 2.6935,1.7926 5.59,2.8119 9.60954,3.3816 12.02764,7.5881 8.56134,14.8929 -2.52104,5.3125 -8.80004,7.5098 -14.32774,5.0139 z m 8.9491,-4.3983 c 4.3117,-5.4814 3.6179,-10.3899 -1.9318,-13.6682 -4.9009,-2.8951 -6.0173,-2.2881 -6.0173,3.2717 0,2.7175 -0.45,5.2191 -1,5.559 -1.3823,0.8543 -1.2556,4.8444 0.2,6.3 2.1294,2.1294 6.4982,1.3991 8.7491,-1.4625 z M 1067.3932,1612 c -2.1548,-2.1548 -2.5229,-4.6247 -1.0391,-6.971 1.0571,-1.6715 1.1879,-1.5674 2.828,2.2491 1.7593,4.0939 4.1005,4.5518 6.8615,1.3419 4.5806,-5.3252 4.1301,-10.794 -1.1207,-13.6041 -2.4584,-1.3157 -2.8564,-1.2896 -3.9905,0.2613 -2.7708,3.7894 -3.8957,1.2156 -5.0684,-11.5967 -0.454,-4.9595 1.5473,-7.6805 5.649,-7.6805 4.1073,0 5.0986,2.5791 3.689,9.5979 -0.975,4.8549 -0.9325,5.8599 0.2648,6.254 3.1308,1.0306 7.9264,6.9613 7.9227,9.7981 -0.01,5.787 -6.3563,12.35 -11.9466,12.35 -1.1274,0 -2.9497,-0.9 -4.0497,-2 z m 4.9847,-31.75 c 0.01,-1.2375 -0.4347,-2.25 -0.9847,-2.25 -0.55,0 -0.9931,1.6875 -0.9847,3.75 0.011,2.7894 0.2636,3.3658 0.9847,2.25 0.5332,-0.825 0.9763,-2.5125 0.9847,-3.75 z m -22.9847,-6.6276 c 0,-3.4988 2.1336,-6.2759 3.9562,-5.1495 1.4255,0.8811 1.3196,5.8513 -0.1562,7.3271 -2.2329,2.2329 -3.8,1.3348 -3.8,-2.1776 z m 3.04,-14.8134 c -0.041,-6.912 0.8543,-8.8462 2.9351,-6.3389 1.3404,1.615 0.6238,6.4724 -1.5535,10.5299 -1.2396,2.3101 -1.3446,1.9916 -1.3816,-4.191 z m 287.5128,-0.7236 c -0.322,-0.521 -0.1592,-1.2106 0.3618,-1.5326 0.521,-0.322 1.2106,-0.1592 1.5326,0.3618 0.322,0.521 0.1592,1.2106 -0.3618,1.5326 -0.521,0.322 -1.2106,0.1592 -1.5326,-0.3618 z m -614.05284,-5.5246 c 6.38109,-1.7469 9.27158,-1.9324 7.84245,-0.5032 -0.58165,0.5816 -3.70915,1.2408 -6.95,1.4648 l -5.89245,0.4072 5,-1.3688 z m 329.91744,-25.5957 c 0.2462,-1.9058 0.478,-4.2792 0.5151,-5.2741 0.037,-0.995 0.4829,-1.5523 0.9907,-1.2385 1.1289,0.6977 0.3739,7.6504 -0.9775,9.0018 -0.6346,0.6346 -0.8194,-0.236 -0.5283,-2.4892 z m 3.7773,-33.4073 c -0.095,-2.5211 0.2515,-3.5759 1.083,-3.299 1.7849,0.5942 1.981,3.0052 0.4182,5.1424 -1.2436,1.7008 -1.374,1.5407 -1.5012,-1.8434 z m 3.7073,-27.9892 c -0.2556,-0.2556 -0.2889,-2.3091 -0.074,-4.5635 0.4661,-4.8868 2.7518,-4.9225 2.5126,-0.039 -0.1526,3.1151 -1.4596,5.5818 -2.4387,4.6027 z m 3.997,-33.3538 c -0.2195,-0.6486 -0.2465,-3.8872 -0.06,-7.197 0.2488,-4.4194 0.722,-6.0178 1.7814,-6.0178 2.3801,0 2.526,2.243 0.5515,8.4774 -1.0305,3.2541 -2.0533,5.3859 -2.2727,4.7374 z m 123.6122,-26.2024 c -1.477,-1.6321 -1.6891,-3.0358 -1.1862,-7.8477 0.5695,-5.4484 0.4457,-5.9494 -1.7609,-7.1304 -3.5907,-1.9217 -4.6869,-0.529 -4.4374,5.6374 0.2259,5.5849 -0.9722,7.7086 -3.7479,6.6434 -1.9331,-0.7418 -2.7514,-4.107 -2.6008,-10.6957 0.3305,-14.4608 4.0463,-22.0534 10.4887,-21.4315 2.9658,0.2863 3.2595,0.631 3.5499,4.167 0.1742,2.1202 -0.4072,5.6638 -1.2918,7.8748 -0.8847,2.211 -1.4772,4.1315 -1.3166,4.2679 0.1605,0.1364 1.8028,1.0169 3.6496,1.9566 l 3.3578,1.7086 -0.6875,6.4194 c -0.7553,7.0529 0.323,8.6382 4.3938,6.4596 2.4751,-1.3247 2.7804,0.1131 0.5067,2.3868 -2.1791,2.179 -6.7623,1.9651 -8.9174,-0.4162 z m -4.5418,-28.5124 c 0,-0.55 -0.4362,-0.325 -0.9694,0.5 -0.5332,0.825 -0.9694,1.95 -0.9694,2.5 0,0.55 0.4362,0.325 0.9694,-0.5 0.5332,-0.825 0.9694,-1.95 0.9694,-2.5 z m -18.397,23.6171 c -0.3001,-0.4856 -0.085,-4.5524 0.4768,-9.0374 0.5624,-4.485 0.7548,-8.5878 0.4277,-9.1172 -0.3272,-0.5294 0.5055,-0.9625 1.8506,-0.9625 1.9756,0 2.5338,0.6018 2.9052,3.1322 0.4125,2.8107 -0.2396,8.2967 -1.7376,14.6178 -0.53,2.2363 -2.8795,3.0551 -3.9227,1.3671 z m -95.9057,-13.7838 c -0.3667,-0.3666 -0.6667,-1.5291 -0.6667,-2.5833 0,-2.5935 2.4152,-1.6698 2.8196,1.0783 0.3093,2.1025 -0.7882,2.8697 -2.1529,1.505 z m 79,-20 c -2.4237,-2.4237 2.1953,-5.5227 4.8936,-3.2832 1.1117,0.9226 1.1911,1.5446 0.3296,2.5826 -1.1951,1.44 -4.0949,1.829 -5.2232,0.7006 z m 3.2538,-7.7461 c -0.2454,-0.2454 -0.2812,-2.5193 -0.08,-5.0532 0.3084,-3.8776 0.5945,-4.4176 1.8073,-3.4111 0.9886,0.8205 1.2369,2.1658 0.791,4.2864 -0.6704,3.1886 -1.7376,4.9589 -2.5186,4.1779 z m -78.9205,-4.3015 c 0,-3.4074 0.1324,-3.5819 1.6028,-2.1115 1.0233,1.0234 1.3605,2.3661 0.9326,3.7143 -1.07,3.3711 -2.5354,2.4447 -2.5354,-1.6028 z m 82.1183,-30.3357 c 0.065,-1.8975 0.4026,-4.7579 0.75,-6.3563 0.5257,-2.4188 0.8319,-2.6647 1.8251,-1.4658 0.8257,0.9967 0.9266,2.6229 0.3277,5.2786 -1.215,5.3872 -3.0556,7 -2.9028,2.5435 z m -78.793,-2.5716 c 0.3024,-2.6831 0.5916,-5.1034 0.6427,-5.3784 0.051,-0.275 0.5267,0.2433 1.0571,1.1517 1.0862,1.8606 0.2354,7.5693 -1.2666,8.4975 -0.6198,0.3831 -0.7799,-1.1949 -0.4332,-4.2708 z m 483.7001,-19.353 c -1.086,-1.086 -2.27,-3.1517 -2.6311,-4.5906 -0.771,-3.0718 1.0051,-9.6913 3.1852,-11.8715 2.2146,-2.2145 7.2149,0.064 9.5027,4.3295 l 1.7855,3.3293 0.5222,-3.361 c 0.2872,-1.8486 0.8098,-5.6005 1.1614,-8.3376 1.2372,-9.6322 5.9716,-15.1423 11.1965,-13.0312 1.5999,0.6465 1.5754,0.7765 -0.2825,1.496 -2.8547,1.1055 -4.1007,2.8792 -5.3772,7.6546 -1.5691,5.8696 -0.688,7.5603 3.5279,6.7694 1.8612,-0.3492 3.384,-0.2275 3.384,0.2704 0,0.4978 -1.8345,2.6436 -4.0768,4.7683 -3.7759,3.578 -4.0526,4.2022 -3.75,8.4561 0.2871,4.0352 0.084,4.5929 -1.6732,4.5929 -1.5289,0 -2.2441,-1.0121 -3.0364,-4.2969 -0.9867,-4.0907 -2.4636,-4.7929 -2.4636,-1.1713 0,2.8057 -3.9262,6.9682 -6.5726,6.9682 -1.3351,0 -3.316,-0.8886 -4.402,-1.9746 z m 5.8141,-3.5725 c 1.5527,-3.4078 1.462,-5.6755 -0.3205,-8.0118 -1.2819,-1.6801 -1.6159,-1.7394 -2.4847,-0.4411 -1.126,1.6828 -1.3971,9.3038 -0.3676,10.3333 1.1895,1.1895 1.9903,0.7149 3.1728,-1.8804 z m -17.7552,2.1487 c -1.6571,-1.9967 -3.2681,-14.0748 -2.4678,-18.5016 1.46,-8.0759 5.552,-12.2555 10.01,-10.2243 3.3928,1.5458 3.0507,5.2262 -1.2053,12.969 -3.0111,5.4781 -3.5266,7.3017 -3.25,11.4965 0.3431,5.2031 -0.891,6.9063 -3.0869,4.2604 z m 6.4167,-25.1016 0.6458,-3 -2.5734,2.8058 c -1.6556,1.805 -2.5674,3.945 -2.5566,6 l 0.017,3.1942 1.9107,-3 c 1.0509,-1.65 2.2014,-4.35 2.5566,-6 z m -395.3961,15.25 c -0.082,-4.491 0.2235,-5.75 1.3951,-5.75 1.7954,0 1.8033,2.1134 0.028,7.5 l -1.3183,4 -0.1048,-5.75 z m -77.6588,2.1629 c -0.3695,-0.598 -0.171,-1.588 0.441,-2.2 0.8172,-0.8172 1.1129,-0.5283 1.1129,1.0871 0,2.4145 -0.5195,2.7865 -1.5539,1.1129 z M 1468.8932,1276 c -0.3399,-0.55 -0.1415,-1 0.441,-1 0.5824,0 1.059,0.45 1.059,1 0,0.55 -0.1984,1 -0.441,1 -0.2425,0 -0.7191,-0.45 -1.059,-1 z m -11,-1 c -1.7051,-0.7327 -1.5576,-0.8594 1,-0.8594 1.65,0 3.9,0.3867 5,0.8594 1.7051,0.7327 1.5576,0.8594 -1,0.8594 -1.65,0 -3.9,-0.3867 -5,-0.8594 z m -371.7745,-12.196 c 0.6407,-5.0169 0.9391,-5.5394 2.355,-4.1235 1.2618,1.2618 -0.1234,7.5005 -1.7885,8.0555 -0.7605,0.2535 -0.941,-0.9996 -0.5665,-3.932 z m 78.3742,-0.995 c 0.055,-1.8199 0.4429,-4.434 0.8623,-5.809 0.66,-2.1634 0.8633,-2.2634 1.5102,-0.7425 0.8888,2.0896 -0.1437,8.4214 -1.5109,9.2664 -0.5475,0.3384 -0.9184,-0.8303 -0.8616,-2.7149 z m 4.3609,-39.0497 c 0.7524,-8.6254 1.0543,-9.7593 2.5984,-9.7593 1.2909,0 1.1799,5.2231 -0.2591,12.1898 -1.7865,8.6493 -3.1796,7.202 -2.3393,-2.4305 z m -79.0909,0.9907 c 0.3317,-1.2375 0.6091,-4.4205 0.6166,-7.0733 0.012,-4.0613 0.2902,-4.7661 1.7637,-4.4608 1.17,0.2423 1.6956,1.2028 1.5857,2.8981 -0.2844,4.3896 -2.3676,10.886 -3.4909,10.886 -0.63,0 -0.8275,-0.9352 -0.4751,-2.25 z m 82.6607,-31.5 c -0.024,-5.0109 0.2791,-6.25 1.5309,-6.25 1.2921,0 1.443,0.8188 0.8756,4.75 -1.1121,7.704 -2.3725,8.4896 -2.4065,1.5 z m -77.9424,-9.25 c 0.015,-2.475 0.3393,-6.2561 0.7207,-8.4024 0.5861,-3.2978 0.8872,-3.6689 1.9441,-2.3955 0.9405,1.1333 1.0056,2.7988 0.2626,6.7168 -1.4473,7.6317 -2.9616,9.7428 -2.9274,4.0811 z m 81.5605,-16 c -1.0981,-2.6061 0.7133,-17.2922 2.1933,-17.783 1.0767,-0.357 1.204,0.842 0.6443,6.0685 -0.9753,9.1072 -2.0561,13.5692 -2.8376,11.7145 z m -75.6485,-33.941 c 0,-1.6824 0.45,-3.059 1,-3.059 0.55,0 1,1.0984 1,2.441 0,1.3425 -0.45,2.7191 -1,3.059 -0.5834,0.3606 -1,-0.6563 -1,-2.441 z m 80.3506,-12.8864 c 0.4865,-8.6031 0.9907,-10.2313 2.6535,-8.5685 0.6278,0.6278 0.578,3.2546 -0.1408,7.4334 -1.7414,10.1234 -3.0546,10.7166 -2.5127,1.1351 z m 66.3489,-11.5133 c -1.0971,-2.8591 3.4911,-5.2514 6.6651,-3.4751 1.2821,0.7174 1.417,1.3554 0.6068,2.8692 -1.2088,2.2588 -6.4694,2.6971 -7.2719,0.6059 z m 53.9577,-0.1102 c -0.3269,-0.852 -1.2229,-1.5491 -1.991,-1.5491 -2.1086,0 -6.6662,-3.927 -6.6662,-5.7438 0,-0.8793 0.7591,-2.4375 1.6869,-3.4628 1.5895,-1.7564 1.5638,-1.9871 -0.4454,-3.9964 -1.7036,-1.7036 -2.4224,-1.8918 -3.5742,-0.9359 -1.1285,0.9366 -1.2397,2.0958 -0.5118,5.3353 1.1138,4.9575 0.567,6.8036 -2.0155,6.8036 -2.323,0 -4.4949,-4.9277 -6.1187,-13.8828 -1.6809,-9.2691 0.5441,-14.1172 6.4787,-14.1172 4.8352,0 6.8648,2.8515 6.2897,8.8369 -0.4204,4.3747 -0.2754,4.8414 1.3701,4.4111 1.0658,-0.2788 1.8402,0.047 1.8402,0.7751 0,0.691 0.732,1.7916 1.6266,2.4458 1.3051,0.9544 1.404,1.6055 0.5,3.2945 -1.8655,3.4857 -1.3044,5.1991 2.4222,7.3979 2.1515,1.2694 3.4266,2.7281 3.2385,3.7048 -0.4134,2.1464 -3.3802,2.6371 -4.1301,0.683 z m -11.6572,-25.6081 c 0,-1.6176 -0.45,-2.941 -1,-2.941 -0.55,0 -1,1.6016 -1,3.559 0,2.1181 0.4049,3.3088 1,2.941 0.55,-0.3399 1,-1.9415 1,-3.559 z m -186,19.7904 c 0,-3.8081 0.286,-4.5589 1.5516,-4.0732 1.1576,0.4442 1.3848,1.3884 0.8947,3.7186 -1.0986,5.2226 -2.4463,5.418 -2.4463,0.3546 z m 116,2.2686 c 0,-1.1573 3.3863,-1.1573 7,0 2.0376,0.6526 1.6215,0.8191 -2.25,0.9003 -2.6125,0.055 -4.75,-0.3503 -4.75,-0.9003 z m 47.9583,-2.5502 c -1.0624,-1.2802 -0.9984,-1.8383 0.3678,-3.2045 1.5391,-1.5391 1.7503,-1.523 3.0325,0.2304 1.3388,1.8309 1.4104,1.8244 2.5098,-0.2297 1.7721,-3.3113 1.365,-4.9139 -1.8849,-7.4199 -1.659,-1.2794 -4.359,-3.3786 -6,-4.665 -1.6409,-1.2864 -2.9835,-3.1291 -2.9835,-4.095 0,-4.6108 8.9726,-6.9638 12.345,-3.2374 0.9103,1.0058 1.655,2.1308 1.655,2.5 0,1.0599 -3.814,0.7813 -4.5,-0.3287 -1.0844,-1.7546 -3.5,-1.073 -3.5,0.9875 0,1.2239 1.5037,2.9367 3.9141,4.4583 7.5011,4.7352 8.9418,9.4019 4.2812,13.8671 -3.1263,2.9952 -7.2713,3.5053 -9.237,1.1369 z m -86.4583,-1.4618 c -1.9642,-0.8558 -1.9615,-0.8831 0.151,-1.5205 1.9125,-0.577 2.2279,-1.6195 2.8437,-9.4008 0.381,-4.8136 1.0761,-9.3722 1.5446,-10.1303 1.8415,-2.9796 2.1969,0.439 0.9501,9.1378 -1.391,9.7043 -1.0418,10.8728 3.2606,10.9105 0.9625,0.01 1.75,0.4653 1.75,1.0153 0,1.2123 -7.7103,1.2035 -10.5,-0.012 z m -40.3515,-4.0653 c -9.8,-1.2709 -9.5997,-1.9637 0.4506,-1.5582 5.0045,0.202 9.9545,0.8639 11,1.4709 1.6369,0.9505 1.4149,1.0904 -1.5991,1.0074 -1.925,-0.053 -6.3582,-0.4671 -9.8515,-0.9201 z m -30.6485,-3.4278 c -0.55,-0.1909 -4.4875,-0.6438 -8.75,-1.0064 -8.229,-0.6999 -10.6969,-2.4885 -3.4337,-2.4885 5.4682,0 15.8853,1.8732 17.1337,3.0809 0.9162,0.8864 -2.7147,1.1901 -4.95,0.414 z M 0.13125833,1091.4048 c -0.353571,-0.3536 0.03214,-1.3179 0.857143,-2.1429 0.82499997,-0.825 1.78928597,-1.2107 2.14285697,-0.8571 0.353572,0.3535 -0.03214,1.3178 -0.857143,2.1428 -0.825,0.825 -1.78928497,1.2107 -2.14285697,0.8572 z M 1072.4033,1089.1076 c -3.7283,-1.0377 -0.7809,-2.3428 3.4839,-1.5427 1.9405,0.364 3.7747,1.0608 4.0761,1.5485 0.6301,1.0196 -3.8883,1.0162 -7.56,-0.01 z m 36.0203,-27.98 c -0.027,-5.5889 0.1564,-6.2174 1.4889,-5.1116 1.1028,0.9153 1.3418,2.2512 0.8718,4.8725 -1.2107,6.7522 -2.3291,6.8655 -2.3607,0.2391 z M 1188.4702,1054 c -0.057,-6.2902 0.7265,-10 2.1116,-10 1.04,0 0.095,10.1098 -1.2614,13.5 -0.5516,1.3782 -0.8159,0.2902 -0.8502,-3.5 z m -76.4119,-29 c 0.6273,-8.2525 0.7057,-8.5069 2.3163,-7.5115 1.3651,0.8437 0.3618,8.8811 -1.5618,12.5115 -1.1689,2.2062 -1.2576,1.6187 -0.7545,-5 z m 81.7314,-18.451 c 0.3697,-5.473 0.8623,-10.14111 1.0947,-10.37352 0.2324,-0.2324 1.2168,-0.11776 2.1876,0.25478 1.1836,0.45415 1.3891,0.90975 0.6238,1.38271 -0.6277,0.38796 -1.6643,4.52553 -2.3036,9.19453 -0.6393,4.6691 -1.4126,8.7149 -1.7185,8.9908 -0.3059,0.276 -0.2537,-3.9762 0.116,-9.4493 z m -77.3812,-20.299 c -0.01,-1.2375 0.4347,-2.25 0.9847,-2.25 1.2529,0 1.2529,1.06124 0,3 -0.7839,1.21296 -0.9723,1.06944 -0.9847,-0.75 z m 81.4444,-16 c 0.2658,-2.0625 0.7569,-6.7875 1.0914,-10.5 0.3344,-3.7125 1.0734,-6.75 1.642,-6.75 0.6417,0 0.8116,1.61232 0.4478,4.25 -0.3225,2.3375 -0.8817,7.0625 -1.2427,10.5 -0.3611,3.4375 -1.0537,6.25 -1.5392,6.25 -0.4854,0 -0.6652,-1.6875 -0.3993,-3.75 z m -77.4597,-17.58333 c 0,-2.51306 0.45,-3.66667 1.4302,-3.66667 1.1274,0 1.2398,0.6639 0.5308,3.13581 -1.3013,4.5376 -1.961,4.71618 -1.961,0.53086 z m 66.7827,-5.24433 c -1.5511,-3.40412 0.03,-5.92234 3.7173,-5.92234 3.9382,0 5.2197,2.47197 3.0211,5.8275 -2.2254,3.39641 -5.215,3.43849 -6.7384,0.0948 z m -14.9794,-3.14763 c -2.7194,-0.28622 -3.5503,-0.7705 -3.143,-1.8319 0.3045,-0.79354 1.4313,-1.44281 2.5039,-1.44281 3.5307,0 10.8221,2.21318 10.2644,3.11559 -0.5421,0.877 -2.4976,0.90933 -9.6253,0.15912 z m -26.0655,-2.96639 c -0.9693,-0.25283 -1.5052,-0.87563 -1.191,-1.384 0.877,-1.41903 7.8251,-1.09733 11.5884,0.53654 l 3.3648,1.46086 -6,-0.0769 c -3.3,-0.0423 -6.793,-0.28372 -7.7622,-0.53654 z m -28.1441,-3.17663 c -2.6052,-0.56624 -2.737,-0.77207 -1.2713,-1.98652 1.3346,-1.10582 2.5586,-1.13331 6.6595,-0.14952 2.7633,0.66292 5.2744,1.61009 5.5802,2.10483 0.6163,0.99727 -6.4314,1.01732 -10.9684,0.0312 z m 457.0698,-1.25463 c -1.058,-3.95319 -0.6309,-19.14236 0.6429,-22.86488 1.2257,-3.58174 4.0406,-5.06516 5.9632,-3.14255 1.5733,1.57325 1.0577,7.22602 -1.176,12.89283 -2.3028,5.84237 -1.4694,7.90781 3.4064,8.44145 l 3,0.32834 -4,1.34966 c -2.2,0.74232 -4.7201,2.25474 -5.6001,3.36094 -1.5875,1.9953 -1.6052,1.9924 -2.2364,-0.36579 z m 5.2662,-21.62706 c 0.039,-1.2375 -0.3797,-2.25 -0.9297,-2.25 -0.55,0 -0.9684,1.9125 -0.9297,4.25 0.054,3.29154 0.2641,3.79896 0.9297,2.25 0.4727,-1.1 0.8911,-3.0125 0.9297,-4.25 z m -496.4297,19.05717 c -1.65,-0.21624 -3.675,-0.62907 -4.5,-0.91741 -1.3269,-0.46375 -1.3245,-0.62283 0.021,-1.37833 1.5236,-0.85572 14.3858,1.06162 15.6583,2.33414 0.6761,0.67605 -5.8997,0.65346 -11.1789,-0.0384 z M 1202.963,926.5 c 0.308,-4.95 1.0344,-9.45 1.6141,-10 1.2491,-1.18502 0.2857,11.47938 -1.2244,16.09647 -0.673,2.05736 -0.7865,0.28067 -0.3897,-6.09647 z m 387.8142,3.05841 c -0.7593,-1.97879 -0.072,-5.05841 1.1297,-5.05841 0.5425,0 1.1301,1.0125 1.3059,2.25 0.2312,1.62851 0.9908,2.25 2.75,2.25 1.3367,0 2.4304,0.45 2.4304,1 0,1.60241 -6.9871,1.19729 -7.616,-0.44159 z m 21.6566,-0.9515 c -1.2165,-3.19966 -1.5708,-14.33124 -0.5612,-17.63178 1.0625,-3.47325 3.4853,-5.97513 5.7864,-5.97513 1.9151,0 1.9137,0.0364 -0.068,1.75 -2.3817,2.05939 -3.8701,6.25 -2.2198,6.25 0.7301,0 0.8869,1.2036 0.4561,3.5 -0.6227,3.3195 -0.5129,3.5 2.129,3.5 l 2.7856,0 -2.0942,2.25 c -1.1518,1.2375 -2.2428,3.5653 -2.4243,5.17288 -0.4278,3.7884 -2.5475,4.45069 -3.7895,1.18403 z M 1124.5905,917 c 0.046,-6.41026 1.0766,-11.93826 1.9578,-10.5 0.5729,0.93506 -0.6817,12.79526 -1.5867,15 -0.2258,0.55 -0.3928,-1.475 -0.3711,-4.5 z m 180.3829,3.87027 c 0.4227,-0.68405 0.1537,-0.94823 -0.6821,-0.66964 -1.6789,0.55963 -3.8981,-1.48863 -3.8981,-3.59782 0,-0.87252 -0.5779,-1.31827 -1.3333,-1.02839 -0.7561,0.29014 -1.3334,-0.15637 -1.3334,-1.03139 0,-2.06202 2.5427,-1.95643 4.9841,0.20697 1.4475,1.28271 2.0916,1.41622 2.412,0.5 0.6965,-1.99098 2.9855,-1.44809 3.5867,0.85062 0.3496,1.33687 0.9935,1.82606 1.7711,1.34549 0.7871,-0.48646 0.9644,-0.33855 0.4982,0.41569 -0.398,0.64395 -1.1425,0.91193 -1.6545,0.59549 -0.512,-0.31643 -0.9309,0.15279 -0.9309,1.04271 0,0.88992 0.4189,1.35914 0.9309,1.04271 0.512,-0.31644 1.2136,-0.11799 1.559,0.44098 0.3813,0.61688 -0.7938,1.01631 -2.9899,1.01631 -2.4344,0 -3.3896,-0.3696 -2.9198,-1.12973 z m -111.7026,-3.53694 c -0.067,-0.45833 -0.2357,-2.98919 -0.3742,-5.62413 -0.2827,-5.38178 -0.7426,-6.21512 -2.9603,-5.36412 -0.9646,0.37017 -1.5431,1.84429 -1.5431,3.93241 0,1.83714 -0.5862,4.14189 -1.3026,5.12168 -1.8397,2.51587 -3.4123,0.37701 -4.6947,-6.38485 -2.0166,-10.63343 -0.6161,-20.36748 3.1001,-21.54694 2.9541,-0.9376 5.3396,1.69376 8.0107,8.83609 2.6373,7.05213 3.3594,20.67047 1.1365,21.4339 -0.6875,0.23611 -1.3051,0.0543 -1.3724,-0.40404 z m -2.3805,-17.21938 c -1.279,-5.13269 -3.7357,-9.34356 -4.6292,-7.93446 -1.1807,1.86218 -1.0658,6.29201 0.2374,9.1523 1.6025,3.51707 5.3152,2.48755 4.3918,-1.21784 z m 89.1086,17.05702 C 1279.6008,916.52694 1278.3466,916 1277.2117,916 c -1.5091,0 -1.7989,-0.33576 -1.0788,-1.25 0.5415,-0.6875 1.2801,-2.4875 1.6415,-4 0.3613,-1.5125 1.0983,-2.75 1.6379,-2.75 2.4235,0 5.0757,-1.99669 4.3169,-3.25 -0.2497,-0.4125 -0.049,-0.75 0.4467,-0.75 0.4954,0 1.4589,1.8631 2.1412,4.14021 1.2839,4.28549 0.5803,5.80523 -2.7061,5.84448 -0.7052,0.008 -1.6436,0.99225 -2.0853,2.18628 -0.5322,1.43852 -1.0473,1.7759 -1.5268,1 z m 312.3943,-2.95557 c 0,-1.21057 2.3956,-2.2154 5.2818,-2.2154 2.7564,0 1.1258,1.63431 -2.5318,2.53765 -1.6214,0.40044 -2.75,0.26818 -2.75,-0.32225 z m -142,-12.2154 c 0,-0.55 0.45,-1 1,-1 0.55,0 1,0.45 1,1 0,0.55 -0.45,1 -1,1 -0.55,0 -1,-0.45 -1,-1 z m -8.9438,-2.56766 c 0.6437,-0.77568 1.5694,-1.16372 2.0571,-0.86231 1.3201,0.81588 1.101,1.14067 -1.1705,1.73466 -1.6808,0.43956 -1.843,0.27999 -0.8866,-0.87235 z m 15.5525,-11.25648 c -0.3527,-0.57071 -0.154,-1.33882 0.4415,-1.7069 1.4861,-0.91846 2.0122,-0.188 1.0204,1.41676 -0.5313,0.85973 -1.0467,0.96201 -1.4619,0.29014 z M 959.91876,714.0415 c -0.3588,-0.5806 0.071,-1.33304 0.9541,-1.6721 2.1999,-0.84418 2.8843,0.0836 1.1335,1.53666 -0.9856,0.81795 -1.6395,0.86038 -2.0876,0.13544 z M 987.14836,547.5 c 0.2629,-1.375 0.6505,-2.5 0.8614,-2.5 0.2109,0 0.3834,1.125 0.3834,2.5 0,1.375 -0.3876,2.5 -0.8613,2.5 -0.4738,0 -0.6463,-1.125 -0.3835,-2.5 z m -78.7552,-86.55902 c 0,-3.04549 0.52984,-3.14774 3.69056,-0.71217 1.66566,1.28352 0.47991,3.77119 -1.79755,3.77119 -1.44479,0 -1.89301,-0.7243 -1.89301,-3.05902 z M 880.39316,288 c 0,-0.55 0.45,-1 1,-1 0.55,0 1,0.45 1,1 0,0.55 -0.45,1 -1,1 -0.55,0 -1,-0.45 -1,-1 z m 187.16554,-45.87658 c -1.0222,-0.64791 -0.8666,-0.96831 0.6643,-1.36866 2.4911,-0.65143 5.4883,-6.27002 5.3799,-10.08496 -0.059,-2.08551 -1.7337,-4.58698 -6.1456,-9.18157 -3.3353,-3.47332 -6.0641,-7.18433 -6.0641,-8.24669 0,-2.69114 3.3759,-5.46729 6.1675,-5.0719 2.4324,0.3445 2.638,1.48587 1.2733,7.06822 -0.5338,2.1836 -0.048,3.44548 2.3998,6.23342 5.8242,6.63331 6.4906,14.28841 1.6642,19.11484 -2.6216,2.62159 -3.3142,2.82101 -5.3393,1.5373 z m -0.1808,-29.49586 c 0.01,-0.47985 -0.6547,-0.31636 -1.4737,0.3633 -0.8189,0.67967 -1.2127,1.68281 -0.875,2.22921 0.6198,1.00278 2.3185,-0.87232 2.3487,-2.59251 z m -32.5964,27.76557 c -0.3623,-1.04122 -1.995,-5.26813 -3.6284,-9.39313 -3.6648,-9.25579 -4.5991,-18.05567 -2.4604,-23.17429 1.8594,-4.45035 5.5911,-7.08816 9.3859,-6.63466 l 2.8146,0.33637 -3.3762,1.82722 c -8.666,4.69013 -10.7562,11.46192 -6.6832,21.65273 2.4811,6.20811 2.5716,6.30609 2.0642,2.23578 -0.4942,-3.96495 -0.3069,-4.39642 2.7323,-6.29233 2.041,-1.27324 4.48,-1.90759 6.5129,-1.69396 2.1742,0.22849 3.25,-0.0885 3.25,-0.95766 0,-1.62084 1.2288,-1.67042 2.7868,-0.11244 0.9156,0.91567 1.7728,0.63613 3.7526,-1.2238 3.0251,-2.84188 3.9942,-1.96032 4.965,4.51658 1.1684,7.79497 1.6675,9.53224 2.577,8.97017 0.5052,-0.31226 0.9186,0.13381 0.9186,0.99127 0,0.85746 -0.6569,1.55902 -1.4599,1.55902 -1.3544,0 -2.5216,-2.98042 -4.0129,-10.24704 -0.5054,-2.4622 -0.7714,-2.61773 -2.5655,-1.5 -1.759,1.09582 -1.9323,1.97461 -1.4293,7.24704 0.5388,5.64816 0.485,5.8534 -0.9186,3.5 -0.8201,-1.375 -1.7885,-4.21883 -2.1521,-6.31963 -0.3636,-2.10079 -1.3607,-4.08813 -2.2159,-4.41629 -1.8812,-0.72189 -9.8825,3.34679 -10.6827,5.43219 -0.3145,0.81941 -0.102,4.43019 0.4721,8.02395 1.0194,6.38109 0.6689,9.45435 -0.6469,5.67291 z m 52.6906,-76.8098 c -0.043,-1.05416 0.193,-1.64479 0.5253,-1.3125 0.3323,0.33229 0.3678,1.19479 0.079,1.91667 -0.3192,0.79773 -0.5562,0.56078 -0.6042,-0.60417 z m 23.1711,-16.7313 c -0.6875,-0.68862 -1.25,-2.54111 -1.25,-4.11665 0,-3.64076 3.7391,-12.4213 5.5924,-13.13245 0.7742,-0.29709 1.4076,-1.37713 1.4076,-2.4001 0,-2.9203 5.9423,-11.20283 8.0375,-11.20283 3.757,0 4.9692,3.73253 4.8628,14.97251 -0.1075,11.35272 -1.0391,17.17988 -2.1627,13.52749 -0.3384,-1.1 -0.9202,-5.0375 -1.2929,-8.75 -0.3727,-3.7125 -1.0087,-6.75 -1.4133,-6.75 -0.4046,0 -2.2404,1.01403 -4.0795,2.2534 -4.0844,2.75254 -6.7888,7.192 -7.7376,12.70208 -0.5717,3.32032 -0.9639,3.89861 -1.9643,2.89655 z m 14.75,-23.24438 c 0,-3.54982 -1.1834,-3.87685 -3.1547,-0.87178 -1.7016,2.59395 -1.706,2.78822 -0.075,3.38293 2.3573,0.85973 3.23,0.18129 3.23,-2.51115 z m -28.8562,19.06565 c -3.2076,-3.86499 -5.4899,-14.99389 -3.4858,-16.99796 1.4241,-1.42415 3.3457,1.78397 3.4123,5.6971 0.039,2.27016 0.4403,5.02756 0.8926,6.12756 0.9635,2.34314 0.865,2.53428 4.5147,-8.75807 2.5785,-7.97769 6.7881,-15.74193 8.5349,-15.74193 1.3945,0 1.2496,1.0978 -0.9448,7.16102 -1.0627,2.93644 -2.8813,8.62008 -4.0413,12.63032 -2.6921,9.30688 -6.1589,13.16377 -8.8826,9.88196 z m -521.65807,-3.05311 c -2.9732,-7.11588 -1.37436,-19.82251 3.05105,-24.24792 3.04231,-3.04231 4.93321,-2.99315 8.13794,0.21158 1.42112,1.42112 4.09324,2.8288 5.93803,3.12817 3.49193,0.56666 9.38721,-1.25639 9.38721,-2.90289 0,-0.52153 1.0125,-0.80443 2.25,-0.62868 2.02231,0.28721 2.32492,1.07094 2.99035,7.74483 0.55557,5.57209 1.28542,8.00547 2.92431,9.75 1.89848,2.02083 1.95886,2.32472 0.46191,2.32472 -3.02999,0 -6.5442,-4.89838 -7.23156,-10.07989 l -0.64016,-4.82581 -3.09905,1.26454 c -2.3191,0.94629 -3.28376,2.12987 -3.83299,4.70285 -0.40367,1.89107 -0.50401,4.20881 -0.22298,5.15054 0.28103,0.94172 0.005,2.65828 -0.61417,3.81456 -0.90067,1.68292 -1.41048,1.86553 -2.5554,0.91533 -0.78664,-0.65285 -1.4364,-2.36941 -1.44391,-3.81456 -0.0173,-3.33204 -1.02652,-7.15858 -1.85298,-7.02581 -0.34835,0.056 -2.59041,2.28565 -4.98236,4.95486 -3.34135,3.72868 -4.38397,5.71351 -4.5,8.56663 -0.20089,4.94003 -2.30708,5.44415 -4.16524,0.99695 z M 583.12243,125 c 0.69408,-0.825 1.15143,-3.075 1.01635,-5 -0.19309,-2.75146 -0.67336,-3.5 -2.24562,-3.5 -2.28404,0 -4.35132,4.84073 -4.44356,10.40499 l -0.0564,3.40499 2.23365,-1.90499 c 1.22851,-1.04775 2.80154,-2.57999 3.49562,-3.40499 z m 489.71127,15.53144 c -1.9968,-1.99683 -2.4794,-3.24017 -1.9997,-5.15159 1.7027,-6.7842 9.6888,-14.1291 16.3056,-14.99647 l 3.7536,-0.49204 -3,1.67094 c -6.9727,3.88365 -12.5,10.92301 -12.5,15.91944 0,3.4487 2.1472,4.07664 7.1269,2.0842 2.2675,-0.90729 4.2943,-1.47802 4.5041,-1.2683 0.9763,0.97632 -3.5597,3.5549 -7.3447,4.17527 -3.706,0.60743 -4.5308,0.37351 -6.8458,-1.94145 z m -872.5681,-7.18513 c -0.98291,-1.18435 -1.3697,-4.80304 -1.36277,-12.75 0.0105,-12.11554 1.25294,-16.08421 6.01114,-19.2019 2.29037,-1.500713 2.67046,-1.499106 4.99058,0.0211 2.01923,1.32305 2.38786,2.17847 1.88104,4.36501 -0.77571,3.34654 -2.85808,6.86618 -6.1703,10.42912 -2.31746,2.49287 -2.47676,3.25284 -1.9913,9.5 0.71285,9.17353 -0.25548,11.37544 -3.35839,7.63667 z m 8.12756,-28.45709 c 0,-0.48907 -0.36,-0.88922 -0.8,-0.88922 -1.4968,0 -3.2001,2.39354 -3.16673,4.45 0.0319,1.96501 0.11481,1.95212 2,-0.31078 1.0817,-1.29844 1.96673,-2.76094 1.96673,-3.25 z m -46.92742,25.47592 c -2.54507,-3.23553 -2.59729,-6.63319 -0.18237,-11.86514 2.05129,-4.44417 8.33001,-11.11773 11.36674,-12.08155 1.17169,-0.37188 2.5931,0.003 3.51795,0.92788 1.40252,1.40252 1.33744,1.49581 -0.67613,0.96925 -1.6463,-0.43052 -3.14785,0.30078 -5.75102,2.80089 -5.99295,5.75569 -8.71701,13.15173 -6.74076,18.30174 0.91323,2.37985 6.24129,1.93025 11.28362,-0.95215 2.97086,-1.69825 3.94094,-1.96647 3,-0.82947 -1.74602,2.10983 -8.68172,5.31234 -11.56803,5.34145 -1.19758,0.0121 -3.11008,-1.16373 -4.25,-2.6129 z m 22.99318,-4.52618 c -2.59131,-5.9162 -3.81097,-14.25403 -1.99662,-13.64925 0.73397,0.24466 1.88177,2.59015 2.55066,5.21221 0.66889,2.62206 1.40032,4.95153 1.62539,5.17661 0.22507,0.22507 1.37392,-4.17139 2.553,-9.76992 2.13815,-10.15245 3.93465,-13.709795 6.21261,-12.30193 0.77914,0.48153 0.84402,0.96501 0.1842,1.3728 -0.56019,0.34622 -1.78327,5.12747 -2.71796,10.625 -3.00467,17.67236 -5.07423,20.95326 -8.41128,13.33448 z"
     id="path3191"
     style="fill:#000000" />
</svg>
