<?xml version="1.0" encoding="UTF-8" standalone="no"?>
<!-- Created with Inkscape (http://www.inkscape.org/) -->

<svg
   xmlns:dc="http://purl.org/dc/elements/1.1/"
   xmlns:cc="http://creativecommons.org/ns#"
   xmlns:rdf="http://www.w3.org/1999/02/22-rdf-syntax-ns#"
   xmlns:svg="http://www.w3.org/2000/svg"
   xmlns="http://www.w3.org/2000/svg"
   version="1.1"
   width="1723.1887"
   height="1919.9779"
   id="svg3027">
  <metadata
     id="metadata3033">
    <rdf:RDF>
      <cc:Work
         rdf:about="">
        <dc:format>image/svg+xml</dc:format>
        <dc:type
           rdf:resource="http://purl.org/dc/dcmitype/StillImage" />
        <dc:title></dc:title>
      </cc:Work>
    </rdf:RDF>
  </metadata>
  <defs
     id="defs3031" />
  <path
     d="m 769,1918.0247 c 1.375,-1.0619 4.3,-2.6946 6.5,-3.6281 2.2,-0.9335 11.875,-5.3947 21.5,-9.9138 12.07442,-5.6691 20.44532,-8.9116 27,-10.4588 5.225,-1.2333 11.075,-3.0338 13,-4.0013 6.20401,-3.1179 15.28405,-5.9119 24.26021,-7.4649 4.81812,-0.8336 12.91812,-2.9176 18,-4.6312 7.56825,-2.5518 11.77249,-3.2777 23.23979,-4.0123 36.4968,-2.3381 44.71788,-3.0548 58,-5.0566 3.85,-0.5803 12.66166,-1.2367 19.58147,-1.4587 9.65191,-0.3096 14.52452,-0.9852 20.92623,-2.9013 5.7819,-1.7306 10.7241,-2.4977 16.0922,-2.4977 4.2612,0 10.0319,-0.5273 12.8238,-1.1717 3.9238,-0.9058 6.2682,-0.8949 10.3263,0.048 2.8875,0.6707 15.2945,1.461 27.5712,1.7562 17.721,0.4262 23.8007,0.2247 29.5,-0.978 3.9483,-0.8332 11.3915,-1.8089 16.5405,-2.1683 5.1489,-0.3594 11.8989,-1.3436 15,-2.187 3.101,-0.8433 7.282,-1.8622 9.2909,-2.2641 2.009,-0.4018 5.609,-1.8666 8,-3.2551 2.3911,-1.3884 5.3685,-2.8399 6.6166,-3.2255 3.2997,-1.0196 17.8261,-8.0873 24.3176,-11.8317 13.1138,-7.564 25.0163,-17.287 36.8395,-30.0933 1.9655,-2.129 5.4124,-5.729 7.6597,-8 5.6185,-5.6779 7.9018,-9.2999 6.2168,-9.8616 -1.3988,-0.4663 5.0497,-9.6797 10.809,-15.4436 1.7455,-1.7468 4.4488,-4.8968 6.0076,-7 1.5587,-2.1032 4.7114,-6.074 7.0061,-8.824 7.7572,-9.2964 20.3806,-31.7901 28.0599,-50 1.3916,-3.3 3.7805,-8.7 5.3087,-12 18.9441,-40.91 25.9999,-58.2844 39.5954,-97.5 5.2436,-15.125 10.7783,-30.875 12.2994,-35 2.7632,-7.4936 7.5098,-23.7325 10.5227,-36 4.2382,-17.2568 5.6506,-23.7217 8.5206,-39 2.9936,-15.9362 4.0949,-23.5991 6.0767,-42.2827 0.5124,-4.8305 1.3808,-10.4555 1.9298,-12.5 0.549,-2.0445 1.2562,-5.5173 1.5716,-7.7173 1.8115,-12.6342 9.5631,-29.8655 21.6319,-48.0859 10.1306,-15.2945 23.299,-26.0591 38.5578,-31.5195 3.19,-1.1416 9.85,-3.5723 14.8,-5.4016 10.8861,-4.023 25.1167,-8.493 27.0383,-8.493 2.1589,0 15.3504,-4.5179 21.2118,-7.2648 5.9021,-2.7659 10.7677,-8.1974 12.2009,-13.6198 0.5256,-1.9885 1.4144,-9.6904 1.9752,-17.1154 0.5607,-7.425 1.3118,-16.875 1.669,-21 1.1191,-12.9235 -5.5882,-39.0748 -14.6429,-57.0916 -4.2197,-8.3962 -16.8223,-24.7402 -22.6764,-29.4084 -2.0692,-1.65 -5.5386,-4.7204 -7.7098,-6.8231 -4.4352,-4.2953 -3.8624,-5.6291 2.4339,-5.6678 4.1563,-0.025 20.8788,-4.7841 29.9162,-8.513 7.8258,-3.2289 16.3865,-8.9814 21.1001,-14.1784 1.9339,-2.1322 4.4277,-4.5385 5.5418,-5.3473 1.1141,-0.8087 3.5677,-3.4954 5.4525,-5.9704 1.8847,-2.475 4.847,-6.075 6.5828,-8 1.7357,-1.925 3.4672,-4.8226 3.8477,-6.439 0.3806,-1.6165 1.5025,-4.0915 2.4932,-5.5 0.9907,-1.4086 3.7054,-6.161 6.0326,-10.561 4.2176,-7.974 4.2302,-8.0295 3.8448,-17.0494 -0.3255,-7.619 -0.8091,-9.753 -3.0592,-13.5 -4.6929,-7.8152 -14.6883,-18.9153 -21.3441,-23.7034 -6.8172,-4.9041 -11.4574,-11.0609 -13.3758,-17.7472 -3.309,-11.5333 -5.9618,-23.7313 -6.4433,-29.6278 -0.655,-8.01931 2.0257,-23.17646 5.902,-33.3722 1.4638,-3.85 3.5452,-9.68603 4.6255,-12.96896 3.3981,-10.32702 12.9916,-28.7701 18.4821,-35.53104 14.5406,-17.90489 24.8465,-25.11034 46.9011,-32.7911 6.05,-2.10698 12.8006,-5.02666 15.0013,-6.48817 2.2007,-1.46152 6.4757,-3.53818 9.5,-4.6148 3.0243,-1.07663 8.8737,-3.62879 12.9987,-5.67148 4.125,-2.04269 9.3,-4.56945 11.5,-5.61502 15.8674,-7.54116 32.3139,-17.90167 38.2961,-24.1247 2.7466,-2.8571 7.0705,-7.14302 9.6087,-9.52426 2.5382,-2.38124 4.4313,-4.63124 4.2069,-5 -0.5765,-0.94731 4.4574,-6.66398 7.069,-8.02786 2.8042,-1.46441 11.0283,-16.68816 16.2835,-30.14261 7.0993,-18.17591 10.6212,-34.82123 11.637,-55 0.5993,-11.90453 0.5025,-12.83346 -2.0327,-19.5 -2.5681,-6.75275 -11.2054,-24.3697 -20.1018,-41 -2.3538,-4.4 -5.4963,-11.04187 -6.9834,-14.75972 -2.5548,-6.38722 -11.2262,-21.32115 -28.8818,-49.74028 -7.9226,-12.75258 -17.1838,-25.63351 -28.0092,-38.95684 -3.3323,-4.10126 -7.9575,-9.95126 -10.2782,-13 -2.3207,-3.04874 -6.8282,-8.79187 -10.0168,-12.76251 -32.6241,-40.62646 -40.8624,-51.62314 -48.5311,-64.78065 -14.2176,-24.39371 -27.9372,-46.09848 -33.5013,-53 -10.1835,-12.63135 -47.3394,-50.5904 -57.518,-58.76125 -5.0858,-4.08264 -14.6469,-11.56121 -21.2469,-16.61905 -11.7412,-8.99776 -15.7853,-12.34527 -37.8223,-31.30745 -5.9522,-5.12174 -14.7272,-12.38271 -19.5,-16.1355 -13.8922,-10.92337 -30.4537,-27.97265 -38.2269,-39.35288 -3.823,-5.59688 -6.9508,-10.60888 -6.9508,-11.13779 0,-0.52891 -1.5502,-3.21525 -3.4449,-5.96965 -6.3759,-9.26891 -12.6821,-34.13582 -11.1537,-43.98196 0.2335,-1.50396 0.733,-5.85201 1.1102,-9.66234 0.3771,-3.81032 1.9395,-11.46032 3.472,-17 1.5324,-5.53967 3.3062,-12.32213 3.9416,-15.07213 7.92,-34.27553 8.7931,-39.26208 10.5928,-60.5 0.6749,-7.963635 6.2391,-39.797913 7.2389,-41.415689 0.326,-0.527525 0.5007,-15.274801 0.3882,-32.771724 L 1356.9405,0 l 2.9425,0 c 2.6255,0 2.906,0.29625924 2.6036,2.75 -1.3103,10.632009 -1.4175,19.950292 -0.3997,34.75 1.2475,18.140806 1.0864,20.201108 -3.9094,50 -1.1065,6.6 -2.5181,18.075 -3.1369,25.5 -1.2295,14.75383 -3.2767,24.96748 -11.8258,59 -5.642,22.45987 -5.6521,22.52764 -5.6834,38 -0.029,14.37523 0.1697,16.08542 2.7399,23.56742 2.9344,8.54204 8.3613,18.52238 17.6002,32.36726 5.878,8.80854 25.0317,28.50354 33.7444,34.69801 2.6324,1.87159 7.0831,5.53238 9.8905,8.1351 2.8074,2.60271 9.3181,8.33221 14.4683,12.73221 5.1501,4.4 12.9372,11.15 17.3046,15 4.3674,3.85 11.392,9.7 15.6101,13 23.3257,18.24851 31.2115,25.81208 63.966,61.35154 15.5247,16.84478 23.8893,27.43786 30.2063,38.25415 2.2739,3.89342 6.0504,9.8499 8.3922,13.23663 2.3419,3.38672 6.5685,10.1018 9.3926,14.9224 9.6356,16.44775 18.0829,27.72381 51.7865,69.12827 9.8933,12.15374 12.7604,15.82798 29.633,37.97426 6.4713,8.49398 13.3135,18.07366 15.2049,21.28818 4.0085,6.81272 7.1884,12.0187 15.9424,26.09986 3.5066,5.64041 9.1352,15.99041 12.508,23 6.2741,13.03914 7.3446,15.17093 19.0064,37.84924 3.7063,7.20749 7.4851,14.96999 8.3974,17.25 0.9123,2.28001 2.0642,4.14547 2.5598,4.14547 1.0224,0 2.2253,2.5341 2.6109,5.5 3.6029,27.71317 -2.6877,59.8129 -18.6541,95.18835 -2.6532,5.87862 -10.5156,15.64277 -17.9658,22.31165 -2.765,2.475 -7.8672,7.28273 -11.3382,10.68385 -6.9175,6.7783 -16.6912,13.46265 -29.0377,19.85932 -4.4,2.27962 -9.35,4.87029 -11,5.75704 -7.8373,4.212 -26.2582,12.69979 -27.5621,12.69979 -0.8055,0 -3.8534,1.60869 -6.773,3.57487 -2.9196,1.96618 -7.6386,4.39934 -10.4866,5.40701 -27.3415,9.67372 -36.762,15.69497 -50.0937,32.01812 -6.8271,8.35901 -12.5339,19.76299 -19.2663,38.5 -6.6765,18.58151 -8.3204,25.41119 -9.0265,37.5 -0.512,8.7664 -0.2709,10.5424 3.1217,23 4.9591,18.2095 6.502,21.1688 13.4274,25.7536 7.4358,4.9226 21.3342,19.3162 24.8084,25.6923 2.2371,4.1058 2.8309,6.657 3.1647,13.5966 l 0.4108,8.5426 -5.7266,11.4185 c -3.1497,6.2803 -5.8094,12.614 -5.9106,14.0749 -0.1973,2.8506 -0.9926,4.1568 -8.1721,13.4215 -16.9489,21.8715 -28.0956,29.3032 -56.4155,37.613 -4.125,1.2103 -7.8346,2.3799 -8.2436,2.5989 -0.409,0.219 3.2461,4.1949 8.1224,8.8354 14.0748,13.394 19.8764,21.9936 26.2786,38.9527 7.9871,21.1569 10.2912,32.5518 9.4831,46.8967 -1.2844,22.7983 -2.4374,34.2207 -3.8591,38.2311 -2.2969,6.4793 -7.5203,11.9512 -14.7814,15.4845 -7.288,3.5464 -21.695,8.8877 -23.9725,8.8877 -1.4935,0 -3.8413,0.87 -20.5275,7.6065 -4.95,1.9983 -11.925,4.7324 -15.5,6.0756 -18.8714,7.0905 -33.5353,18.927 -42.9657,34.6814 -13.3504,22.3029 -18.5753,37.818 -21.0936,62.6365 -0.4186,4.125 -1.2406,12.225 -1.8268,18 -0.5862,5.775 -1.9946,15.675 -3.1298,22 -1.1351,6.325 -2.4628,13.8039 -2.9504,16.6197 -1.1478,6.6291 -2.7867,12.971 -4.5186,17.4857 -0.7608,1.9829 -2.0972,7.3829 -2.9699,12 -1.0788,5.7073 -2.1986,8.8748 -3.498,9.8946 -1.0673,0.8377 -2.6399,4.3701 -3.5615,8 -5.7376,22.597 -28.4147,88.9221 -36.0297,105.3784 -2.2966,4.9631 -5.2539,12.2835 -13.7842,34.1216 -0.6445,1.65 -1.4584,3.225 -1.8087,3.5 -0.3503,0.275 -5.1083,9.9603 -10.5733,21.523 -11.281,23.8678 -16.2768,32.8225 -22.7338,40.7492 -2.4809,3.0455 -7.8121,10.4337 -11.8472,16.4182 -7.2279,10.7197 -12.41,17.5171 -21.5591,28.2791 -7.2983,8.585 -27.8307,28.1179 -33.5055,31.8745 -11.2269,7.4321 -19.5693,12.121 -28.6442,16.0997 -5.225,2.2908 -12.2,5.4472 -15.5,7.0142 -7.8503,3.7276 -21.2147,6.7521 -35.5,8.0338 -6.325,0.5675 -14.65,1.6266 -18.5,2.3536 -4.325,0.8166 -11.3947,1.1642 -18.5,0.9096 -6.325,-0.2267 -16.9,-0.5102 -23.5,-0.6299 -6.7317,-0.1222 -13.7023,-0.7987 -15.8775,-1.541 -3.0379,-1.0367 -5.42,-1.0886 -11,-0.2397 -3.9174,0.596 -10.4975,1.3227 -14.6225,1.6149 -4.125,0.2923 -10.2546,1.403 -13.62137,2.4683 -3.95084,1.2502 -10.51061,2.1456 -18.5,2.5252 -14.51125,0.6897 -30.15826,2.215 -41.37863,4.0337 -4.4,0.7132 -10.29821,1.0695 -13.10714,0.7917 -2.80893,-0.2778 -7.53393,0.025 -10.5,0.6724 -2.96607,0.6477 -11.01786,1.5454 -17.89286,1.9948 -9.52449,0.6228 -14.76139,1.5396 -22,3.8514 -5.225,1.6688 -12.875,3.559 -17,4.2005 -10.66874,1.659 -14.37241,2.6657 -24.15396,6.565 -4.75967,1.8974 -11.95967,4.1684 -16,5.0467 -4.52518,0.9836 -13.298,4.4374 -22.84604,8.9943 -8.525,4.0687 -15.84644,7.3974 -16.26987,7.3972 -0.42343,-2e-4 -2.55199,1.1246 -4.73013,2.4996 -2.17814,1.375 -4.9817,2.49 -6.23013,2.4778 l -2.26987,-0.022 2.5,-1.9308 z m 424.2616,-144.7043 c -0.57,-1.6348 -0.7778,-8.9911 -0.492,-17.41 0.3408,-10.0388 0.1142,-15.7325 -0.7277,-18.2834 -0.8218,-2.4902 -0.895,-4.1014 -0.2233,-4.9157 0.5495,-0.6662 1.2677,-7.7363 1.596,-15.7113 1.2131,-29.4717 1.6883,-38.7978 2.6241,-51.5 0.5268,-7.15 1.1754,-19.3 1.4414,-27 1.1959,-34.611 2.2764,-58.6096 3.4671,-77 0.5342,-8.25 1.2294,-22.65 1.545,-32 0.3156,-9.35 0.7696,-19.7 1.0089,-23 0.5241,-7.2255 1.2317,-19.795 2.0266,-36 0.3237,-6.6 0.7949,-15.375 1.0471,-19.5 0.2522,-4.125 0.6622,-13.575 0.9112,-21 0.498,-14.8539 2.8871,-65.4814 4.5302,-96 1.2867,-23.8972 1.7985,-34.1216 2.4532,-49 0.9449,-21.4753 1.8613,-41.488 2.0607,-45 0.5496,-9.6839 1.5993,-29.5146 1.9848,-37.5 0.9564,-19.8103 1.5488,-30.2586 2.0126,-35.5 0.4316,-4.8771 0.8864,-14.6437 2.9807,-64 1.2226,-28.8131 1.6005,-36.7855 1.9913,-42 0.2266,-3.025 0.6703,-11.8 0.986,-19.5 0.3156,-7.7 0.7705,-17.825 1.0107,-22.5 0.2403,-4.675 0.6963,-14.125 1.0133,-21 0.3171,-6.875 0.7594,-15.65 0.9831,-19.5 0.2236,-3.85 0.675,-13.975 1.003,-22.5 0.3281,-8.525 1.007,-21.575 1.5089,-29 0.5018,-7.425 1.1924,-19.575 1.5346,-27 0.3423,-7.425 0.7798,-14.85 0.9724,-16.5 0.1926,-1.65 0.6223,-9.75 0.9549,-18 0.3326,-8.25 0.794,-18.6 1.0253,-23 0.2313,-4.4 0.6909,-13.85 1.0214,-21 0.3305,-7.15 1.0239,-16.375 1.5408,-20.5 0.5169,-4.125 1.1859,-17.85 1.4867,-30.5 0.3008,-12.65 0.707,-24.575 0.9026,-26.5 0.1956,-1.925 0.6503,-10.44485 1.0103,-18.93301 0.3601,-8.48815 0.8071,-15.68815 0.9935,-16 0.1863,-0.31184 0.6448,-8.66699 1.0189,-18.56699 1.1909,-31.51453 1.3503,-35.50767 2.4352,-61 0.5852,-13.75 1.2874,-28.15 1.5605,-32 0.2731,-3.85 0.7504,-12.175 1.0606,-18.5 0.3103,-6.325 1.4397,-27.45753 2.5098,-46.96119 1.0701,-19.50365 1.6132,-35.78484 1.2068,-36.18042 -0.8981,-0.87435 -28.4382,-1.46956 -29.7837,-0.64369 -0.5253,0.32246 -11.0801,0.90877 -23.4551,1.30291 -12.375,0.39414 -23.1866,0.84365 -24.0258,0.99891 -0.8392,0.15526 -12.9892,0.57072 -27,0.92324 -14.0108,0.35252 -26.8242,0.84081 -28.4742,1.08509 -1.65,0.24428 -11.775,0.66984 -22.5,0.9457 -39.7511,1.02243 -140.01612,4.22688 -156.5,5.00171 -5.5,0.25853 -17.425,0.71187 -26.5,1.00742 -24.05276,0.78333 -42.26893,1.4227 -71,2.49204 -14.025,0.52199 -34.275,1.21198 -45,1.5333 -10.725,0.32132 -30.975,0.9968 -45,1.50106 -14.025,0.50426 -33.6,1.16353 -43.5,1.46503 -9.9,0.3015 -24.075,0.76488 -31.5,1.02973 -7.425,0.26485 -21.375,0.71806 -31,1.00714 -9.625,0.28907 -22.9,0.74725 -29.5,1.01817 -6.6,0.27092 -27.075,0.92813 -45.5,1.46046 -18.425,0.53233 -40.025,1.19841 -48,1.48019 -27.05775,0.95601 -67.42102,2.26737 -93.5,3.03771 -9.35,0.27619 -23.075,0.74147 -30.5,1.03397 -7.425,0.29249 -37.8,1.1952 -67.5,2.00601 -55.24125,1.50809 -104.53697,2.96684 -133,3.9357 -8.8,0.29954 -22.3,0.76002 -30,1.02329 -21.77461,0.7445 -44.02869,1.43582 -67.75,2.10465 -13.512496,0.381 -21.75,0.99424 -21.75,1.6192 0,0.57338 -0.967489,0.72024 -2.25,0.34152 -1.2375,-0.36542 -6.738742,-0.61909 -12.224982,-0.56371 -9.101172,0.0919 -10.27141,0.32678 -13.358847,2.68169 -1.861125,1.41955 -4.225,4.43323 -5.253055,6.69708 -1.518174,3.34312 -1.873316,3.66311 -1.891154,1.70395 -0.01208,-1.32668 1.111739,-4.34666 2.497374,-6.71107 l 2.519335,-4.29892 -15.269335,0.47579 C 27.371201,534.81534 15.8875,535.22259 10.25,535.45866 0.86601199,535.85161 0,535.7349 0,534.07727 c 0,-1.65484 1.5271361,-1.86707 17.75,-2.46675 35.254897,-1.3032 44.760127,-1.88846 45.339977,-2.7917 0.324488,-0.50545 1.449488,-0.83249 2.5,-0.72675 8.810927,0.88689 79.408643,-0.31459 93.910023,-1.59823 2.75,-0.24342 16.025,-0.69641 29.5,-1.00665 13.475,-0.31023 35.525,-0.97785 49,-1.4836 13.475,-0.50575 32.6,-1.17452 42.5,-1.48615 9.9,-0.31164 22.275,-0.78119 27.5,-1.04344 15.43076,-0.77452 30.61602,-1.34939 64,-2.42287 36.7897,-1.18299 55.62837,-1.87135 69.5,-2.53951 5.5,-0.26492 19,-0.72648 30,-1.02569 11,-0.2992 31.475,-0.97201 45.5,-1.49513 26.54427,-0.99007 74.52316,-2.5796 105.5,-3.49519 18.60027,-0.54977 33.51717,-1.05624 58.5,-1.98622 7.975,-0.29686 21.7,-0.75142 30.5,-1.01013 19.83322,-0.58307 43.3685,-1.39737 58.5,-2.02405 6.325,-0.26195 25.675,-0.92381 43,-1.47079 17.325,-0.54698 35.325,-1.20968 40,-1.47267 8.3096,-0.46744 22.6789,-0.97298 58,-2.04054 19.87429,-0.60068 40.18752,-1.30753 57,-1.98345 38.3632,-1.54232 102.9714,-3.36937 123.2748,-3.48606 3.107,-0.0179 3.9446,-0.46868 4.7354,-2.54854 1.5869,-4.17382 6.8911,-5.15886 9.6326,-1.78886 0.953,1.1715 2.2157,1.20716 7.602,0.2147 6.41,-1.18111 11.7552,-0.70201 11.7552,1.05363 0,0.50299 -1.2375,1.10199 -2.75,1.33112 -5.5106,0.83478 20.9417,0.6899 48.25,-0.26427 15.4,-0.53808 36.1691,-1.19315 46.1535,-1.4557 9.9845,-0.26254 22.247,-0.78637 27.25,-1.16405 l 9.0965,-0.68669 0,-5.91554 c 0,-3.68904 0.3764,-5.68292 1,-5.2975 0.6155,0.38039 1.0294,-1.42335 1.0765,-4.69098 0.042,-2.91996 0.25,-6.20902 0.4621,-7.30902 0.2121,-1.1 0.6378,-8.975 0.9461,-17.5 0.3082,-8.525 0.7736,-18.65 1.0342,-22.5 1.1262,-16.64218 3.1008,-55.65136 4.6471,-91.80378 1.0653,-24.90701 1.0359,-29.12366 -0.217,-31.16833 -5.2544,-8.57453 -30.3944,-33.45113 -43.4049,-42.95025 -2.2015,-1.60729 -4.687,-3.67646 -5.5234,-4.59814 -0.8364,-0.92168 -6.1332,-4.91451 -11.7707,-8.87295 -11.1721,-7.84462 -11.9399,-9.2013 -8,-14.13592 3.9604,-4.96034 7.7078,-10.37805 9.5036,-13.73973 5.0512,-9.45543 11.4937,-19.24875 15.3763,-23.37369 3.7535,-3.98769 5.2167,-4.80796 10.3701,-5.81343 16.2729,-3.17498 18.961,-4.83182 25.1595,-15.50749 4.05,-6.97521 12.0017,-15.53629 14.4305,-15.53629 3.7783,0 4.0747,-2.09516 3.9903,-28.20015 -0.045,-13.91492 -0.2582,-26.19985 -0.4739,-27.29985 -0.2157,-1.1 -0.7144,-17.075 -1.1084,-35.5 -0.394,-18.425 -0.8503,-34.664811 -1.0139,-36.088469 -0.1637,-1.423658 0.034,-4.123658 0.4394,-6 0.482,-2.230821 0.9893,2.818159 1.466,14.588469 0.4009,9.9 1.1458,25.65 1.6552,35 0.5095,9.35 0.9328,19.2125 0.9408,21.916667 0.035,11.909423 1.1512,1.090421 4.0145,-38.916667 1.6888,-23.597177 3.2797,-43.113068 3.5353,-43.368646 0.7968,-0.79674 0.72,1.454695 -3.0992,90.868646 -0.3406,7.975 -0.9564,21.88575 -1.3685,30.91277 -0.412,9.02702 -0.3796,28.15202 0.072,42.5 1.3696,43.51061 6.8657,68.23273 23.1401,104.08723 5.3043,11.68583 23.3201,36.25755 31.1315,42.46003 2.4521,1.94698 7.8333,6.33226 11.9583,9.74506 4.125,3.4128 9.8918,7.48192 12.8152,9.04249 2.9234,1.56057 9.3653,5.99149 14.3153,9.8465 4.95,3.855 15.975,12.12015 24.5,18.367 28.0369,20.54455 33.4836,25.8027 46.2775,44.67592 6.1489,9.07063 7.0835,11.21511 5.7876,13.27974 -0.7115,1.13361 -1.8561,0.60628 -5.7272,-2.63867 -2.6608,-2.23047 -5.7379,-5.0627 -6.8379,-6.29384 -5.5163,-6.1739 -20.2032,-17.41972 -27.7287,-21.23202 -12.9923,-6.58159 -23.4811,-11.31115 -32.7713,-14.77698 -4.675,-1.74407 -9.85,-3.97122 -11.5,-4.94922 -1.65,-0.97799 -10.65,-5.70399 -20,-10.50221 -9.35,-4.79822 -18.575,-10.03425 -20.5,-11.63562 -1.925,-1.60137 -5.975,-4.76667 -9,-7.034 -3.025,-2.26733 -5.95,-4.62991 -6.5,-5.25018 -2.599,-2.93099 -22.558,-19.604 -23.4677,-19.604 -0.5678,0 -1.0266,1.6875 -1.0197,3.75 0.017,4.9437 1.7598,60.92131 2.4523,78.75 0.299,7.7 1.0066,27.725 1.5723,44.5 0.5657,16.775 1.2615,31.56896 1.5462,32.87547 l 0.5177,2.37547 11.6994,-0.64935 c 6.4347,-0.35715 32.3995,-1.29911 57.6995,-2.09325 25.3,-0.79414 51.4,-1.69269 58,-1.99678 11.4465,-0.52739 29.2278,-0.82713 36.309,-0.61206 1.82,0.0553 3.0501,0.51941 2.7337,1.0314 -0.3164,0.512 -0.118,1.21356 0.441,1.55902 3.2793,2.0267 -0.5189,2.49838 -18.2337,2.26437 -10.5875,-0.13986 -31.175,0.30272 -45.75,0.98352 -14.575,0.68079 -34.375,1.46725 -44,1.74768 -37.3111,1.08709 -53.4119,1.79774 -55.9059,2.46756 l -2.5941,0.6967 -0.013,27.92513 c -0.01,15.35881 -0.2989,28.37512 -0.648,28.92512 -0.349,0.55 -0.045,4.15 0.6757,8 1.1839,6.3248 2.2421,30.22917 5.4889,124 0.5523,15.95 1.4524,41.825 2.0003,57.5 0.5479,15.675 1.237,35.925 1.5312,45 0.2943,9.075 0.7296,19.65 0.9674,23.5 0.2378,3.85 0.7148,17.125 1.0602,29.5 0.7822,28.03343 1.6092,35.59774 4.8942,44.76828 2.739,7.64594 4.0228,22.24203 2.0434,23.23172 -0.55,0.275 -1.7868,-1.075 -2.7484,-3 l -1.7485,-3.5 0.014,7.5 c 0.01,4.125 0.5992,9.98521 1.3143,13.02269 0.8176,3.47253 0.9903,6.62795 0.4652,8.5 -0.7773,2.77138 -0.1428,30.45181 2.2343,97.47731 0.5364,15.125 1.4166,40.325 1.9559,56 0.5393,15.675 1.2114,34.575 1.4934,42 0.2821,7.425 0.7466,20.025 1.0322,28 0.2856,7.975 0.7314,19.9 0.9906,26.5 0.2592,6.6 0.7077,18.75 0.9967,27 0.289,8.25 0.7371,19.5 0.9959,25 0.2587,5.5 0.7179,17.65 1.0205,27 0.3025,9.35 1.0109,27.125 1.5741,39.5 0.953,20.9373 1.3679,65.1128 0.7016,74.7001 -0.306,4.4032 -1.3815,4.5585 -2.0764,0.2999 -0.2244,-1.375 -0.6677,-3.175 -0.9851,-4 -0.5013,-1.3031 -1.3781,-15.6367 -3.242,-53 -0.2607,-5.225 -0.9241,-22.325 -1.4742,-38 -0.5502,-15.675 -1.2275,-33 -1.5052,-38.5 -0.2777,-5.5 -0.752,-19.6397 -1.054,-31.4216 -0.302,-11.7819 -0.6994,-21.6819 -0.883,-22 -0.1836,-0.3181 -0.6581,-15.6534 -1.0543,-34.0784 -0.3963,-18.425 -0.8455,-33.725 -0.9982,-34 -0.1528,-0.275 -0.5764,-10.4 -0.9415,-22.5 -0.6228,-20.6448 -1.8307,-55.2713 -3.0871,-88.5 -0.3016,-7.975 -0.9891,-28.31027 -1.5278,-45.18949 -0.5387,-16.87921 -1.2179,-31.31087 -1.5093,-32.07033 -0.2914,-0.75947 -1.7503,-1.86383 -3.2418,-2.45414 l -2.712,-1.07328 2.6334,-0.10638 c 1.7366,-0.0701 2.8111,-0.7863 3.1555,-2.10295 1.0191,-3.89725 -0.4377,-14.51048 -2.5316,-18.44228 -1.7206,-3.2311 -2.1811,-6.25359 -2.5627,-16.82135 -0.4397,-12.17718 -0.3419,-13.04931 1.7872,-15.92904 2.2071,-2.98527 2.2395,-3.42117 1.6093,-21.67864 -0.3537,-10.24767 -0.8471,-22.68212 -1.0963,-27.63212 -0.2492,-4.95 -0.7007,-19.125 -1.0033,-31.5 -0.3026,-12.375 -0.7498,-26.1 -0.9938,-30.5 -0.244,-4.4 -0.73,-20.6 -1.08,-36 -0.35,-15.4 -0.761,-28.225 -0.9132,-28.5 -0.1522,-0.275 -0.5727,-13.1 -0.9344,-28.5 -0.3617,-15.4 -0.8425,-31.825 -1.0684,-36.5 -0.226,-4.675 -0.6794,-20.425 -1.0076,-35 -0.3282,-14.575 -0.962,-32.125 -1.4084,-39 -0.9662,-14.87694 -0.9517,-14.2862 -0.9578,-39.08083 0,-10.76945 -0.3201,-20.83659 -0.7053,-22.37141 l -0.7004,-2.79059 -11.5249,0.57741 c -7.8014,0.39086 -11.7901,0.99548 -12.3458,1.87141 -0.4515,0.71171 -0.8377,3.09401 -0.8583,5.29401 -0.021,2.2 -0.6904,15.7 -1.4884,30 -0.7981,14.3 -1.4625,31.175 -1.4765,37.5 -0.014,6.325 -0.4607,16.225 -0.9927,22 -1.2191,13.23384 -2.9473,43.9265 -3.5755,63.5 -0.2648,8.25 -0.7065,16.8 -0.9817,19 -0.2752,2.2 -1.167,18.625 -1.9819,36.5 -0.8148,17.875 -1.6981,35.2 -1.9628,38.5 -0.2647,3.3 -0.7623,14.55 -1.1057,25 -0.3434,10.45 -0.7503,19.225 -0.9043,19.5 -0.154,0.275 -0.5773,9.05 -0.9406,19.5 -0.3634,10.45 -0.8563,20.8 -1.0955,23 -0.2391,2.2 -0.6704,8.95 -0.9583,15 -1.0696,22.47262 -2.5126,51.32425 -3.0843,61.66901 l -0.5896,10.66901 5.8223,0.64253 c 9.0484,0.99855 9.3909,1.27816 1.7192,1.40345 l -7.1031,0.116 -0.6511,9.75 c -1.5191,22.74409 -4.6674,83.9514 -6.0824,118.25 -1.7156,41.5836 -2.5753,60.0362 -3.005,64.5 -0.2648,2.75 -0.7336,12.2 -1.042,21 -0.3084,8.8 -0.7626,18.25 -1.0093,21 -0.5092,5.6744 -1.207,19.5386 -2.0132,40 -0.3034,7.7 -0.7672,18.05 -1.0306,23 -0.4788,8.9972 -1.9824,38.7007 -2.9612,58.5 -0.2855,5.775 -0.7473,14.55 -1.0262,19.5 -0.279,4.95 -1.3938,29.925 -2.4775,55.5 -1.0836,25.575 -2.1947,50.325 -2.4691,55 -0.2743,4.675 -0.9599,17.725 -1.5236,29 -0.5637,11.275 -1.6921,33.325 -2.5075,49 -0.8154,15.675 -2.1641,43.125 -2.9971,61 -1.6089,34.523 -4.2813,84.85 -4.9916,94 -0.2349,3.025 -0.6627,15.1104 -0.9509,26.8564 -0.2882,11.7461 -0.777,25.0211 -1.0863,29.5 -0.3093,4.479 -0.7343,15.3436 -0.9446,24.1436 -0.559,23.4019 -2.2967,49.6721 -3.3556,50.731 -0.5607,0.5607 -1.3063,-0.1862 -1.9074,-1.9106 z m 85.6281,-1284.30283 4.3897,-0.0176 -0.6523,-22.75 c -0.6318,-22.03329 -1.1431,-37.60978 -2.1253,-64.75 -0.2587,-7.15 -0.7579,-24.025 -1.1093,-37.5 -0.3514,-13.475 -0.7774,-25.625 -0.9468,-27 -0.1693,-1.375 -0.3389,-5.55493 -0.3768,-9.28872 -0.066,-6.4836 -0.2459,-6.97801 -4.0077,-11 -2.605,-2.78528 -4.2706,-3.87267 -4.9188,-3.21128 -0.5391,0.55 -1.6982,14.05 -2.5759,30 -0.8776,15.95 -1.803,32.15 -2.0562,36 -2.6361,40.07308 -5.5476,104.13319 -4.8347,106.37577 0.2839,0.89333 0.7059,2.2439 0.9377,3.00128 0.3283,1.07281 1.9089,1.2424 7.1541,0.76758 3.7029,-0.33522 8.708,-0.61739 11.1223,-0.62706 z m 147.5886,-83.41041 c -1.9179,-2.92706 -13.5313,-13.10209 -22.1798,-19.43274 -3.5122,-2.57093 -15.2537,-11.35116 -26.0922,-19.51163 -10.8385,-8.16046 -21.4076,-15.71414 -23.487,-16.78596 -2.0793,-1.07181 -7.6008,-4.97007 -12.2699,-8.66279 -4.6691,-3.69272 -10.5017,-8.30792 -12.9612,-10.256 -2.4596,-1.94808 -5.9018,-5.54808 -7.6494,-8 -1.7476,-2.45192 -4.6022,-6.03304 -6.3437,-7.95804 -11.2172,-12.39929 -21.5349,-32.75267 -31.6831,-62.5 -1.6887,-4.95 -3.4805,-9.44583 -3.9819,-9.99074 -0.9219,-1.00195 -0.4127,26.1242 1.062,56.5728 0.7367,15.21256 0.824,15.6692 3.6813,19.25698 3.1862,4.00089 21.3263,20.39025 30.9266,27.94187 3.3,2.59579 7.575,6.02587 9.5,7.62242 5.145,4.26712 41.2677,23.20959 50.5259,26.49535 7.1111,2.52376 16.6761,6.84402 34.7367,15.68964 3.1695,1.55231 8.2732,4.86748 11.3417,7.36703 3.0685,2.49956 5.7732,4.54465 6.0104,4.54465 0.2373,0 -0.2741,-1.07678 -1.1364,-2.39284 z M 1277.1184,306.75 c 0.065,-1.2375 0.1126,-2.475 0.1055,-2.75 -1.3517,-52.07871 -2.741,-90 -3.2972,-90 -0.3989,0 -1.0169,5.7375 -1.3733,12.75 -0.3564,7.0125 -1.0587,19.5 -1.5606,27.75 -0.5018,8.25 -1.1947,22.2 -1.5396,31 l -0.6271,16 3.1597,3.75 c 3.6254,4.30257 4.9645,4.69393 5.1326,1.5 z m -12.7014,-19 c 0.3232,-3.9875 1.0445,-16.025 1.603,-26.75 0.5584,-10.725 1.6677,-31.65 2.465,-46.5 2.5487,-47.46718 2.5489,-47.55018 0.117,-48.46249 -3.0822,-1.1563 -6.8403,1.9357 -11.2324,9.24164 -7.8095,12.99057 -10.5732,15.27558 -21.3696,17.66819 -11.9692,2.65252 -14.4163,3.84258 -18.1269,8.81525 -1.9443,2.60558 -6.0888,8.93046 -9.2101,14.05529 -3.1213,5.12483 -7.2473,11.37704 -9.169,13.8938 -1.9217,2.51676 -3.494,5.15433 -3.494,5.86128 0,0.70694 2.1375,2.74315 4.75,4.52492 11.9173,8.12779 16.2672,11.45897 34.0497,26.07596 3.7965,3.12062 11.5821,10.86927 17.3015,17.21922 5.7193,6.34996 10.6979,11.55923 11.0635,11.57616 0.3656,0.0169 0.9291,-3.23172 1.2523,-7.21922 z M 1232.5,1764.2649 c -3.329,-0.7992 -4.5,-2.3415 -4.5,-5.9272 0,-4.5549 3.4688,-11.1385 6.6267,-12.5774 2.9056,-1.3239 2.8956,-2.1702 -0.1956,-16.6156 -1.9808,-9.2559 -1.5688,-10.9875 3.0016,-12.6156 2.3335,-0.8312 2.9897,-0.6206 4.562,1.4638 2.2184,2.9411 3.0105,8.4235 1.8071,12.5071 -0.5565,1.8884 -0.4348,5.8515 0.3284,10.6955 2.351,14.9218 -2.8225,25.1839 -11.6302,23.0694 z m 4.1042,-10.9941 c -0.3323,-0.3323 -0.5687,0.2584 -0.5253,1.3125 0.048,1.165 0.285,1.4019 0.6042,0.6042 0.2889,-0.7219 0.2534,-1.5844 -0.079,-1.9167 z m -24.9912,-16.7433 c -4.7949,-5.1739 -6.9731,-17.3998 -4.2419,-23.8096 2.9162,-6.8441 10.5232,-10.6808 14.0949,-7.109 1.5301,1.53 1.7017,2.8784 1.169,9.1804 -0.4291,5.0771 -1.2661,8.2882 -2.6764,10.2688 -1.8052,2.5353 -1.9181,3.3788 -0.9385,7.0166 0.6124,2.2742 0.8725,4.7628 0.5781,5.5301 -0.8624,2.2472 -5.4817,1.624 -7.9852,-1.0773 z m 4.7245,-23.2775 c 0.3369,-1.7875 0.2219,-3.25 -0.2555,-3.25 -1.2324,0 -2.087,2.6378 -2.0516,6.3318 0.036,3.7529 1.3496,1.9982 2.3071,-3.0818 z m 8.6625,23.9644 c -3.4387,-2.3118 -3.967,-3.2276 -3.9847,-6.9077 -0.027,-5.677 7.3018,-8.5475 10.428,-4.0842 2.0767,2.9649 1.9567,5.6092 -0.4323,9.5275 -2.2538,3.6964 -2.5747,3.7746 -6.011,1.4644 z M 1446,1585 c 0,-0.55 0.4234,-1 0.941,-1 0.5175,0 1.2191,0.45 1.559,1 0.3399,0.55 -0.083,1 -0.941,1 -0.8574,0 -1.559,-0.45 -1.559,-1 z m -31.407,-639.84958 c -0.2999,-0.48521 -1.7935,-0.68232 -3.3191,-0.43802 -1.9369,0.31015 -2.368,0.15872 -1.4289,-0.50185 1.0321,-0.72591 0.769,-1.0906 -1.1305,-1.56735 -1.3615,-0.34173 -2.724,-1.57152 -3.0277,-2.73288 -0.3037,-1.16135 -0.9575,-1.86107 -1.4528,-1.55492 -0.4954,0.30614 -0.9007,-0.0986 -0.9007,-0.89939 0,-0.8008 0.2625,-1.49044 0.5834,-1.53252 0.3208,-0.0421 1.3708,-0.22726 2.3333,-0.41152 0.9625,-0.18425 1.75,0.25204 1.75,0.96953 0,0.71749 0.7118,1.57767 1.5818,1.91151 2.2096,0.84793 2.6317,0.76145 1.9182,-0.39301 -0.3399,-0.55 0.136,-1 1.0576,-1 1.194,0 1.5224,0.58609 1.1425,2.03881 -0.3341,1.2777 0.2104,2.73154 1.4586,3.89446 1.1751,1.09473 1.5793,2.11064 0.9857,2.4775 -0.5534,0.34202 -1.2516,0.22486 -1.5514,-0.26035 z m -31.8933,-5.49051 c -0.367,-0.95644 -0.2574,-2.50869 0.2435,-3.44944 0.5009,-0.94076 1.1545,-2.49797 1.4524,-3.46047 0.2979,-0.9625 1.4703,-1.75 2.6052,-1.75 1.2054,0 2.4398,-0.93572 2.968,-2.25 0.8335,-2.07345 0.9119,-2.09307 0.9996,-0.25 0.052,1.1 0.7483,2.86308 1.5465,3.91796 1.6955,2.24079 0.3824,4.58204 -2.57,4.58204 -0.9955,0 -2.1033,0.92369 -2.4616,2.05265 -0.4967,1.56504 -0.9647,1.79267 -1.9702,0.95826 -0.9675,-0.80302 -1.4288,-0.76394 -1.7323,0.14679 -0.2703,0.81081 -0.6451,0.63821 -1.0811,-0.49779 z m 167.4163,-11.66936 c -0.07,-1.51789 0.6743,-3.00299 1.884,-3.75848 1.1,-0.68696 2,-1.86772 2,-2.62391 0,-0.75619 0.9928,-1.63453 2.2063,-1.95187 2.9132,-0.76182 3.3994,-0.11914 1.4127,1.86752 -0.8904,0.89048 -1.619,2.06346 -1.619,2.60664 0,0.54317 -0.5265,0.66221 -1.1699,0.26452 -0.785,-0.48512 -0.9614,-0.17942 -0.536,0.92899 0.3486,0.90863 0.3126,1.60416 -0.08,1.54562 -1.9941,-0.29722 -3.1114,0.29887 -3.5247,1.88042 -0.3089,1.18209 -0.4949,0.93563 -0.5733,-0.75945 z M 1270,925.90019 c -4.0951,-0.54583 -3.8926,-0.61332 2.25,-0.75 3.7125,-0.0826 6.75,0.25221 6.75,0.74402 0,0.95642 -1.8602,0.95765 -9,0.006 z M 1557,925 c 0,-0.55 0.45,-1 1,-1 0.55,0 1,0.45 1,1 0,0.55 -0.45,1 -1,1 -0.55,0 -1,-0.45 -1,-1 z m -10,-2.1073 c 0,-0.96171 2.6846,-1.87477 3.4022,-1.15713 1.1315,1.13145 0.5935,1.83586 -1.4022,1.83586 -1.1,0 -2,-0.30543 -2,-0.67873 z m 16.1875,-11.9552 c 0.2406,-0.72187 1.0281,-1.50937 1.75,-1.75 0.75,-0.25 1.125,0.125 0.875,0.875 -0.2406,0.72187 -1.0281,1.50937 -1.75,1.75 -0.75,0.25 -1.125,-0.125 -0.875,-0.875 z m 138.0625,0.40022 C 1699.7658,910.73883 1699.5607,908 1701,908 c 0.55,0 1,0.642 1,1.42668 0,0.78467 0.7875,1.63247 1.75,1.88399 1.1767,0.30751 1.2586,0.46947 0.25,0.49438 -0.825,0.0204 -2.0625,-0.18992 -2.75,-0.46733 z m -15.625,-5.46272 c -0.9894,-4.94705 -0.6769,-9.22266 0.8183,-11.19514 1.2081,-1.59369 1.3261,-1.0338 0.9485,4.5 -0.3603,5.27919 -0.2382,5.94956 0.7412,4.07014 1.9108,-3.66637 3.0235,-2.56031 1.3804,1.37212 -0.8324,1.99217 -1.5134,3.79217 -1.5134,4 0,0.20784 -0.3937,0.37788 -0.875,0.37788 -0.4812,0 -1.1562,-1.40625 -1.5,-3.125 z m 35.2353,-1.59509 c -0.4898,-3.6252 0.062,-7.27991 1.0998,-7.27991 1.3545,0 1.7113,6.7289 0.4484,8.45607 -1.0121,1.38415 -1.2241,1.2231 -1.5482,-1.17616 z M 1690.5,897.5 c 0,-1.375 0.3375,-2.5 0.75,-2.5 0.4125,0 0.75,1.125 0.75,2.5 0,1.375 -0.3375,2.5 -0.75,2.5 -0.4125,0 -0.75,-1.125 -0.75,-2.5 z M 1702,895 c 0,-0.55 0.9266,-1 2.059,-1 1.1325,0 1.7809,0.45 1.441,1 -0.3399,0.55 -1.2665,1 -2.059,1 -0.7926,0 -1.441,-0.45 -1.441,-1 z m -632,-5.88197 c 0,-0.55 0.45,-1.27811 1,-1.61803 0.55,-0.33992 1,-0.16803 1,0.38197 0,0.55 -0.45,1.27811 -1,1.61803 -0.55,0.33992 -1,0.16803 -1,-0.38197 z M 1720.309,716.75 c -1.5871,-2.4522 -3.1594,-13.20149 -2.0843,-14.25 0.6918,-0.67475 0.8645,-0.51213 0.5308,0.5 -0.272,0.825 0.044,2.175 0.7025,3 1.1912,1.4928 3.542,8.7044 3.542,10.86602 0,1.51649 -1.6813,1.44401 -2.691,-0.11602 z M 982,661.55902 c 0,-0.24254 0.45,-0.7191 1,-1.05902 0.55,-0.33992 1,-0.14148 1,0.44098 0,0.58246 -0.45,1.05902 -1,1.05902 -0.55,0 -1,-0.19844 -1,-0.44098 z m 109,-55.5 c 0,-0.58246 0.45,-1.05902 1,-1.05902 0.55,0 1,0.19844 1,0.44098 0,0.24254 -0.45,0.7191 -1,1.05902 -0.55,0.33992 -1,0.14148 -1,-0.44098 z M 58,578.81191 c -2.475,-1.12575 -3.971812,-2.24502 -3.326248,-2.48728 0.645563,-0.24226 3.345563,0.68965 6,2.07089 5.774022,3.00453 3.719734,3.32445 -2.673752,0.41639 z m 19.03811,-5.09427 C 79.49215,572.46235 81.725,571.60108 82,571.80372 83.104985,572.61796 77.606163,576 75.177326,576 c -2.257947,0 -2.012458,-0.30111 1.860784,-2.28236 z M 546,574 c 0,-0.55 0.19844,-1 0.44098,-1 0.24254,0 0.7191,0.45 1.05902,1 0.33992,0.55 0.14148,1 -0.44098,1 C 546.47656,575 546,574.55 546,574 z M 42.0772,569.15132 c -1.134277,-2.22336 -1.67899,-4.27939 -1.210473,-4.56895 0.868073,-0.5365 4.457339,7.4269 3.692281,8.19195 -0.230717,0.23072 -1.34753,-1.39963 -2.481808,-3.623 z M 1093.1579,571 c 0,-1.375 0.227,-1.9375 0.5044,-1.25 0.2774,0.6875 0.2774,1.8125 0,2.5 -0.2774,0.6875 -0.5044,0.125 -0.5044,-1.25 z M 85.723216,565.38988 C 85.041673,564.70834 87.642072,559 88.634088,559 c 0.743399,0 -0.530909,5.24848 -1.521517,6.26667 -0.410248,0.42166 -1.035457,0.47711 -1.389355,0.12321 z m -1.563135,-17.6298 C 82.811661,546.41166 82.578894,540 83.878362,540 c 1.129035,0 3.151075,7.86377 2.176859,8.46587 -0.404282,0.24986 -1.257095,-0.0677 -1.89514,-0.70579 z M 59.014809,510.0208 c -4.1118,-5.77449 -8.096281,-16.08742 -8.695748,-22.50697 -0.548394,-5.87263 -0.403209,-6.52059 1.999348,-8.92315 3.306084,-3.30608 7.948845,-3.47491 10.124887,-0.36817 2.007667,2.86634 2.039369,12.15802 0.06062,17.7664 -1.388237,3.93468 -1.352193,4.56565 0.5,8.75284 C 64.101761,507.22362 65,510.09703 65,511.12712 c 0,2.93043 -3.582263,2.26828 -5.985191,-1.10632 z m -0.03012,-24.64836 c 0.01716,-5.74515 -2.253356,-9.2324 -3.34889,-5.14352 -0.916085,3.41913 -0.758335,7.31858 0.421619,10.4221 1.488305,3.91453 2.90746,1.35546 2.927271,-5.27858 z M 68.2,507.8 c -2.140231,-2.14023 -1.431865,-4.07748 1.3,-3.55525 2.185613,0.41781 2.5,0.1255 2.5,-2.3244 0,-2.96042 -1.431665,-4.64895 -2.489919,-2.93666 C 69.164618,499.54266 67.977226,500 66.871432,500 c -1.513013,0 -1.931459,-0.55678 -1.690983,-2.25 0.26485,-1.86485 1.03768,-2.30218 4.514732,-2.55482 7.351588,-0.53416 10.707498,5.48059 6.232239,11.16996 -2.18989,2.784 -5.722361,3.43992 -7.72742,1.43486 z m 998.431,-18.80416 c -7.2344,-2.54017 -9.5752,-4.0867 -9.6157,-6.35283 -0.01,-0.47134 0.7722,-0.53109 1.7347,-0.13276 0.9625,0.39832 4.369,1.53975 7.57,2.53651 3.201,0.99676 6.892,2.96901 8.2023,4.38277 2.8991,3.1282 2.1329,3.08609 -7.8913,-0.43369 z m 71.8646,-0.003 c -0.7248,-1.17275 -0.2818,-1.36621 8.99,-3.92625 7.3994,-2.04305 8.5248,-1.98908 6.6109,0.31703 -3.0373,3.65975 -14.0019,6.19638 -15.6009,3.60922 z M 1012.81,487.47663 c -0.3259,-0.32587 -0.1104,-1.86984 0.4789,-3.43104 0.9538,-2.5269 1.329,-2.7212 3.4172,-1.76975 2.297,1.04662 2.638,3.4673 0.4189,2.97416 -0.6187,-0.1375 -1.0125,0.28577 -0.875,0.94061 0.2662,1.26791 -2.4447,2.28137 -3.44,1.28602 z m 15.1359,-18.09891 c -8.7516,-3.50957 -16.4394,-8.77026 -15.3626,-10.51252 0.3569,-0.57739 1.6838,-0.25055 3.2593,0.80284 1.4616,0.9772 6.5465,3.66638 11.2999,5.97596 7.7743,3.77735 10.7211,5.84962 9.7076,6.82658 -0.1925,0.18563 -4.1994,-1.20615 -8.9042,-3.09286 z m 94.9292,1.72222 c -1.8286,-1.4807 -2.3223,-2.82101 -2.2371,-6.07276 0.094,-3.57289 -0.2477,-4.30847 -2.3748,-5.11721 -2.3133,-0.8795 -2.3827,-1.09814 -1.0091,-3.17723 0.8114,-1.22801 2.7049,-2.6725 4.2078,-3.20998 4.1347,-1.47866 5.6416,1.19345 4.8648,8.62612 -0.553,5.29046 -0.4303,5.85049 1.2808,5.84453 1.0409,-0.004 3.2425,-0.90066 4.8925,-1.99341 1.65,-1.09275 3.2954,-1.98979 3.6564,-1.99341 1.3493,-0.0136 -0.4653,4.02962 -2.9024,6.46669 -3.0284,3.02836 -7.1087,3.27473 -10.3789,0.62666 z m -23.6051,-5.98377 c -4.989,-4.989 -6.4743,-13.74634 -4.0862,-24.09221 2.0483,-8.87354 8.3853,-13.22942 13.5915,-9.34243 5.4088,4.03829 6.7282,6.93176 6.6781,14.6454 -0.072,11.09664 -5.6895,21.67307 -11.5113,21.67307 -0.9836,0 -3.086,-1.29772 -4.6721,-2.88383 z m 9.5722,-7.33738 c 3.3388,-6.72998 3.8829,-15.32892 1.2357,-19.52879 -2.1534,-3.41642 -5.0482,-4.19559 -6.9727,-1.87675 -0.6268,0.75529 -0.872,2.07078 -0.5449,2.92331 0.3697,0.96336 -0.1915,1.9709 -1.4827,2.66193 -2.682,1.43535 -2.6966,5.26722 -0.05,13.12373 1.1152,3.31052 1.7403,6.48417 1.389,7.05255 -0.3885,0.62857 0.2862,0.90254 1.7223,0.69933 1.666,-0.23575 3.0505,-1.72389 4.7032,-5.05531 z m -114.61079,-23.8219 c -6.84482,-9.74484 -8.64525,-13.46375 -7.68767,-15.87934 0.45159,-1.13918 1.36604,-0.18255 3.29081,3.4426 1.466,2.76108 4.30397,7.48608 6.3066,10.5 2.95302,4.44424 5.80775,11.18065 4.62795,10.92053 -0.148,-0.0326 -3.08997,-4.07533 -6.53769,-8.98379 z m -18.68808,-29.8731 c -0.88228,-1.70613 -2.95633,-8.3099 -4.60901,-14.67504 -1.65268,-6.36513 -3.88245,-13.88256 -4.95504,-16.70541 -1.24915,-3.28749 -1.60427,-5.47835 -0.9879,-6.09472 1.47455,-1.47455 5.77201,9.19291 8.58079,21.29988 1.35146,5.82533 2.93178,12.32281 3.51182,14.43886 1.33747,4.87916 0.54587,5.77134 -1.54066,1.73643 z M 958.59755,340.2937 C 954.22587,327.13179 952.71082,312.31481 955.5,310 c 1.30796,-1.08551 1.50601,-0.36501 1.54691,5.62756 0.0258,3.77984 0.87154,11.82244 1.87943,17.87244 1.00789,6.05 1.70763,11.14165 1.55498,11.31478 -0.15265,0.17313 -1.00035,-1.86136 -1.88377,-4.52108 z M 954.51052,289.75 c 0.37748,-2.3375 1.93895,-8.525 3.46994,-13.75 1.531,-5.225 3.31698,-12.07965 3.96886,-15.23256 1.1275,-5.45334 2.46026,-7.69119 3.7891,-6.36235 1.08174,1.08173 -1.78351,13.80003 -6.04777,26.84491 -4.16219,12.73264 -6.47703,16.53103 -5.18013,8.5 z m 17.9721,-53.58301 c 0.70641,-4.70344 10.30972,-28.74976 12.06275,-30.20464 2.12671,-1.76502 1.90133,-0.0332 -1.09065,8.38028 -3.64193,10.24119 -11.61399,26.09823 -10.9721,21.82436 z M 993,195.51918 c 0,-1.31323 4.54194,-9.3982 8.9992,-16.01918 2.5918,-3.85 6.1496,-9.55091 7.9062,-12.6687 1.7565,-3.11778 3.8464,-6.21038 4.6442,-6.87244 3.2229,-2.67476 1.3399,3.90476 -3.3288,11.63153 C 1003.9591,183.60867 993,198.00091 993,195.51918 z M 1284.5874,149.75 c -1.5771,-10.1845 -1.6273,-14.31275 -0.1974,-16.25272 1.428,-1.9374 1.5866,-1.86644 5.2911,2.36702 8.4363,9.64108 9.8951,11.05043 11.7347,11.33713 1.4465,0.22544 2.1469,-0.55875 2.8592,-3.20143 1.1172,-4.14489 0.2653,-16.85971 -1.2298,-18.3548 -1.5914,-1.59138 -1.2536,-2.6452 0.8478,-2.6452 2.1773,0 2.6879,1.02227 3.6222,7.25288 0.7564,5.04372 -0.9368,15.05008 -3.1298,18.49712 -1.9872,3.12338 -5.6418,2.84175 -9.7326,-0.75 -4.0452,-3.55172 -4.6528,-3.67372 -4.6528,-0.93426 0,2.87971 -1.7963,5.93426 -3.4899,5.93426 -0.8316,0 -1.6279,-1.34605 -1.9227,-3.25 z m -250.762,-12.42373 c 1.1689,-2.18423 21.3027,-22.2588 23.6314,-23.56206 1.1637,-0.6512 1.5432,-0.37327 1.5432,1.13008 0,1.28202 -4.2928,5.85092 -12.0263,12.79969 -12.4251,11.16431 -14.9634,13.02388 -13.1483,9.63229 z m 49.3679,-46.177328 c 0.7187,-1.018081 6.1442,-6.465582 12.0567,-12.105558 5.9125,-5.639975 10.75,-11.050749 10.75,-12.023942 0,-1.224155 0.776,-1.769442 2.5182,-1.769442 1.3851,0 2.7535,0.380673 3.0411,0.845939 0.6465,1.046076 -15.1359,17.065543 -22.3991,22.735555 -5.6626,4.420487 -8.1272,5.37771 -5.9669,2.317448 z"
     id="path3149"
     style="fill:#000000" />
</svg>
