<?xml version="1.0" encoding="UTF-8" standalone="no"?>
<!-- Created with Inkscape (http://www.inkscape.org/) -->

<svg
   xmlns:dc="http://purl.org/dc/elements/1.1/"
   xmlns:cc="http://creativecommons.org/ns#"
   xmlns:rdf="http://www.w3.org/1999/02/22-rdf-syntax-ns#"
   xmlns:svg="http://www.w3.org/2000/svg"
   xmlns="http://www.w3.org/2000/svg"
   version="1.1"
   width="1534.4935"
   height="1631.9807"
   id="svg3057">
  <metadata
     id="metadata3063">
    <rdf:RDF>
      <cc:Work
         rdf:about="">
        <dc:format>image/svg+xml</dc:format>
        <dc:type
           rdf:resource="http://purl.org/dc/dcmitype/StillImage" />
        <dc:title></dc:title>
      </cc:Work>
    </rdf:RDF>
  </metadata>
  <defs
     id="defs3061" />
  <path
     d="m 1159.565,1631.0902 c -1.1385,-1.842 0.7058,-4.0902 3.3554,-4.0902 3.7007,0 10.7521,-4.65 22.5888,-14.8961 5.5,-4.7608 11.575,-9.9277 13.5,-11.482 6.6812,-5.3943 20.449,-18.1778 30.6979,-28.5031 11.9964,-12.0859 22.3126,-24.9599 38.959,-48.6188 13.9858,-19.8774 20.5954,-31.1953 26.2795,-45 2.2647,-5.5 5.9033,-13.6469 8.0858,-18.1041 3.9529,-8.0729 7.9332,-21.4012 7.9624,-26.6623 0.01,-1.5216 1.3417,-7.5966 2.9627,-13.5 1.6209,-5.9035 3.3814,-15.0086 3.9121,-20.2336 1.2088,-11.9018 0.6146,-41.9407 -1.3845,-70 -2.5737,-36.1225 -3.7317,-43.8568 -8.8476,-59.0922 -6.5059,-19.3747 -7.1861,-26.8751 -3.6464,-40.203 5.8389,-21.9847 13.8728,-37.4257 32.2082,-61.903 11.9205,-15.9136 17.7945,-21.362 30.4939,-28.2845 21.9342,-11.9565 27.2429,-17.2498 27.295,-27.2157 0.032,-6.1287 -4.3756,-19.0672 -8.8165,-25.88 -4.3425,-6.662 -19.7023,-21.3865 -31.3116,-30.0165 -3.6927,-2.7451 -6.8499,-6.8145 -6.8499,-8.829 0,-1.7087 3.0872,-3.2692 12,-6.0656 3.025,-0.9491 7.534,-2.9147 10.0201,-4.3681 2.486,-1.4533 7.6351,-4.2174 11.4423,-6.1424 20.1997,-10.2132 34.7454,-36.60398 30.7444,-55.78026 -1.8376,-8.80716 -6.6398,-17.65932 -11.9206,-21.97417 -10.6304,-8.68576 -12.574,-11.64304 -15.3836,-23.40621 -1.0262,-4.29686 -3.1117,-10.63102 -4.6343,-14.07592 -2.6525,-6.00146 -2.7647,-6.91176 -2.6832,-21.76344 l 0.085,-15.5 4.2288,-11 c 2.3259,-6.05 4.6422,-12.3572 5.1473,-14.01601 2.5081,-8.23588 28.7316,-36.0662 43.0476,-45.68523 4.6668,-3.13569 15.112,-8.88338 23.2116,-12.77265 8.0996,-3.88926 17.3068,-8.69835 20.4605,-10.68686 19.8194,-12.49676 37.234,-25.25783 37.234,-27.28442 0,-0.87953 1.263,-3.16417 2.8066,-5.07699 3.6815,-4.56201 8.1447,-12.36234 9.3381,-16.32025 3.6955,-12.25549 4.9329,-19.83187 5.9982,-36.72487 1.3609,-21.57999 0.6102,-30.09495 -4.0302,-45.71518 -3.0651,-10.31737 -5.3133,-15.60545 -7.1056,-16.71314 -0.5539,-0.34234 -1.0071,-1.46727 -1.0071,-2.49984 0,-1.63703 -4.3612,-8.84542 -19.454,-32.15443 -2.0121,-3.10743 -7.5706,-9.86815 -12.3522,-15.02381 -4.7816,-5.15567 -13.791,-15.07481 -20.021,-22.04253 -6.23,-6.96773 -11.6964,-12.80702 -12.1476,-12.97619 -1.3045,-0.48913 -17.7635,-15.53099 -26.5868,-24.29771 -7.3216,-7.27467 -11.6228,-12.32789 -20.4369,-24.00989 -1.6599,-2.2 -5.2837,-6.7 -8.0529,-10 -2.7691,-3.3 -6.3678,-8.25 -7.9971,-11 -1.6292,-2.75 -6.3318,-10.175 -10.4502,-16.5 -4.1184,-6.325 -9.4034,-14.77764 -11.7446,-18.78364 -12.2097,-20.89209 -24.3568,-39.90556 -31.859,-49.86771 -4.6187,-6.13324 -13.0396,-18.28324 -18.7131,-27 -5.6735,-8.71676 -12.7691,-19.22365 -15.7681,-23.34865 -2.999,-4.125 -6.4571,-8.90737 -7.6846,-10.62749 -1.2276,-1.72012 -4.7229,-6.44512 -7.7675,-10.5 -3.0446,-4.05488 -7.5026,-10.52251 -9.9067,-14.37251 -2.4041,-3.85 -5.7631,-8.64458 -7.4644,-10.65462 -1.7013,-2.01005 -4.1884,-6.51005 -5.5269,-10 -1.3384,-3.48996 -3.7177,-8.95333 -5.2873,-12.14081 -3.5559,-7.22134 -9.9944,-28.26509 -12.301,-40.20457 -2.1903,-11.33773 -3.1098,-29.30691 -3.348,-65.42695 -0.1744,-26.44373 -0.57,-32.5475 -3.051,-47.07305 -0.5167,-3.025 -0.7604,-9.775 -0.5416,-15 0.2189,-5.225 0.6836,-17.368019 1.0328,-26.984487 0.3492,-9.616468 0.8202,-18.391468 1.0467,-19.5 0.2265,-1.108532 0.8397,-16.190513 1.3625,-33.515513 0.5229,-17.325 0.9664,-31.6125 0.9856,-31.75 0.019,-0.1375 1.6587,-0.25 3.6433,-0.25 3.2556,0 3.5525,0.22268072 3.0368,2.2774364 -0.3144,1.2525901 -0.6582,10.8150896 -0.764,21.2499996 -0.1058,10.43491 -0.5376,24.147564 -0.9595,30.472564 -0.4218,6.325 -1.2763,23.949926 -1.8987,39.166502 -1.032,25.229148 -0.9773,28.400668 0.6213,35.999998 1.412,6.71217 1.7879,14.07291 1.9324,37.8335 0.2532,41.63077 1.2142,59.27661 4.0349,74.08764 2.4014,12.60946 8.0587,30.78326 11.3347,36.41236 0.9603,1.65 3.0527,6.28296 4.6498,10.29546 1.5972,4.01251 4.616,9.3788 6.7086,11.92511 2.0926,2.5463 5.3271,7.22708 7.1877,10.40172 1.8606,3.17465 5.9985,9.14182 9.1952,13.26039 3.1968,4.11857 8.5124,11.38139 11.8124,16.13961 3.3,4.75821 8.0506,11.42474 10.557,14.8145 2.5063,3.38977 6.86,9.98821 9.6749,14.66321 4.5871,7.61831 11.1291,17.1604 18.2681,26.64549 7.8862,10.47784 25.183,37.83617 30.8875,48.85451 1.7085,3.3 5.4522,9.6 8.3194,14 2.8673,4.4 8.8856,13.64619 13.3742,20.5471 4.4885,6.9009 9.6065,14.1009 11.3732,16 1.7666,1.89909 5.284,6.1529 7.8163,9.4529 9.0546,11.79961 14.719,17.78566 28.1275,29.72466 14.754,13.13698 15.2442,13.62153 25.6019,25.30672 3.85,4.34341 10.1819,11.2882 14.0708,15.43287 11.3585,12.10528 13.2277,14.25808 16.9627,19.53575 6.1522,8.69331 24.4665,36.85704 24.4665,37.62461 0,0.40472 1.357,3.6676 3.0155,7.25085 1.6585,3.58324 3.4259,8.67714 3.9275,11.31977 0.5016,2.64262 1.9571,8.62977 3.2345,13.30477 2.0977,7.6772 2.3209,10.58121 2.3063,30 -0.02,26.82772 -1.8316,36.16154 -10.5764,54.5 -4.1473,8.69712 -10.2301,15.42186 -19.9074,22.00826 -3.025,2.05882 -6.625,4.74363 -8,5.96626 -5.5761,4.95814 -23.4174,15.66963 -38.4255,23.06973 -24.9454,12.29988 -34.4467,19.20601 -49.9061,36.27496 -11.7412,12.96362 -15.0422,18.37585 -20.3313,33.33473 l -4.7188,13.34606 0.013,14 c 0.012,13.36817 0.1531,14.33848 3.1173,21.5 1.7074,4.125 4.1349,11.1 5.3945,15.5 2.2377,7.81734 2.5013,8.2055 11.5451,17 13.2269,12.86233 17.2642,22.69911 15.2274,37.10047 -1.8849,13.32663 -4.177,18.73783 -12.6647,29.89953 -5.4559,7.1746 -12.2669,12.7996 -21.751,17.9633 -3.85,2.0961 -8.575,4.8343 -10.5,6.0848 -1.925,1.2504 -7.1922,3.5062 -11.7049,5.0128 -9.4969,3.1705 -9.6366,4.0483 -1.5301,9.6154 9.9264,6.8169 24.4562,19.1612 28.4122,24.1386 4.9923,6.2815 7.9925,12.7964 10.3344,22.4415 1.4747,6.0737 1.5771,8.1766 0.6282,12.9016 -1.1686,5.819 -4.3564,10.9796 -8.6928,14.0725 -1.3645,0.9732 -5.0024,3.682 -8.0843,6.0195 -3.0818,2.3375 -5.9662,4.25 -6.4096,4.25 -1.745,0 -17.395,10.2586 -20.2693,13.2865 -8.036,8.4657 -26.5677,34.5925 -31.9015,44.976 -10.3527,20.1544 -14.7823,34.3801 -14.7823,47.4739 0,7.4253 0.5792,10.1444 4.9181,23.09 2.7049,8.0705 5.1811,16.0236 5.5026,17.6736 1.9287,9.8977 4.2605,42.6478 5.5536,78 0.9775,26.7248 0.2627,37.3576 -3.4763,51.7092 -1.3127,5.0389 -2.1481,9.5479 -1.8563,10.02 0.2918,0.4721 0.087,1.4012 -0.4553,2.0646 -0.5422,0.6634 -2.1425,6.0239 -3.5562,11.9123 -1.4137,5.8883 -3.9809,13.7633 -5.7047,17.5 -1.7239,3.7366 -5.3679,12.1939 -8.0979,18.7939 -2.73,6.6 -7.0071,15.7991 -9.5048,20.4425 -6.9395,12.901 -28.1125,43.4181 -41.5006,59.8156 -16.9189,20.722 -67.3236,66.7615 -80.6184,73.6365 -3.3705,1.743 -9.7434,2.1593 -10.648,0.6956 z m 45.0286,-60.9536 c -1.1995,-1.9409 -1.5105,-9.6403 -2.0451,-50.6366 -0.2798,-21.45 -0.9367,-50.7 -1.4599,-65 -0.5232,-14.3 -1.2194,-35.675 -1.547,-47.5 -0.3277,-11.825 -0.8078,-26.225 -1.067,-32 -0.6617,-14.7447 -2.781,-80.7758 -4.9586,-154.5 -1.0529,-35.6471 -1.568,-52.2282 -2.0348,-65.5 -0.2612,-7.425 -0.9186,-28.575 -1.4609,-47 -0.5423,-18.425 -1.2075,-40.25 -1.4783,-48.5 -0.2707,-8.25 -0.7323,-24.45 -1.0257,-36 -0.2934,-11.55 -0.7543,-25.95 -1.0241,-32 -0.2699,-6.05 -0.9339,-27.425 -1.4758,-47.5 -0.5418,-20.075 -1.2055,-43.25 -1.475,-51.5 -0.2694,-8.25 -0.7348,-24.225 -1.0343,-35.5 -0.2995,-11.275 -0.7454,-27.025 -0.991,-35 -0.2456,-7.975 -0.6903,-23.5 -0.9882,-34.5 -0.2979,-11 -0.761,-26.75 -1.0291,-35 -0.2682,-8.25 -0.9289,-31.65 -1.4682,-52 -0.5393,-20.35 -1.2015,-43.75 -1.4714,-52 -0.27,-8.25 -0.9731,-35.025 -1.5626,-59.5 -0.5894,-24.475 -1.322,-47.82494 -1.6279,-51.88875 l -0.5561,-7.38875 -17.1517,0.72477 c -9.4334,0.39863 -18.2767,0.85526 -19.6517,1.01475 -1.375,0.15948 -10.825,0.60227 -21,0.98397 -10.175,0.3817 -20.75,0.86059 -23.5,1.0642 -2.75,0.20361 -9.029,0.65212 -13.9534,0.99668 -4.9243,0.34456 -9.3199,0.85305 -9.768,1.12999 -0.4481,0.27693 -9.4691,0.678 -20.0467,0.89126 -10.5775,0.21326 -21.7069,0.62244 -24.7319,0.90929 -5.7378,0.54408 -11.3105,0.88585 -42.00001,2.57574 -10.175,0.56028 -21.425,1.2227 -25,1.47204 -3.575,0.24935 -14.6,0.91552 -24.5,1.4804 -9.9,0.56488 -21.6,1.25847 -26,1.54132 -4.4,0.28284 -13.175,0.73697 -19.5,1.00917 -6.325,0.2722 -12.625,0.69747 -14,0.94505 -1.375,0.24758 -9.25,0.71164 -17.5,1.03126 -8.25,0.31962 -17.475,0.76964 -20.5,1.00004 -11.8351,0.90144 -21.99894,1.51595 -33.5,2.02541 -6.6,0.29236 -14.475,0.73636 -17.5,0.98665 -3.025,0.2503 -11.125,0.71054 -18,1.02276 -6.875,0.31222 -18.8,0.98558 -26.5,1.49637 -7.7,0.51078 -21.65,1.38272 -31,1.93764 -29.55177,1.75391 -50.64313,2.98248 -62,3.6115 -6.05,0.33509 -13.475,0.75473 -16.5,0.93253 -12.46218,0.7325 -27.06409,1.53921 -36,1.98889 -20.08316,1.01063 -29.73184,1.5439 -36,1.98968 -3.575,0.25425 -10.775,0.70286 -16,0.99692 -10.47769,0.58968 -39.09579,2.33942 -48.5,2.96535 -3.3,0.21964 -12.525,0.67831 -20.5,1.01927 -7.975,0.34096 -26.17367,1.28634 -40.44148,2.10086 -27.98315,1.59749 -59.51571,3.33502 -71.55852,3.94308 -4.125,0.20827 -10.875,0.62594 -15,0.92815 -4.125,0.30222 -12,0.79411 -17.5,1.09311 -5.5,0.29899 -12.7,0.72824 -16,0.95388 -3.3,0.22564 -23.1,1.33268 -44,2.46008 -20.9,1.12741 -49.25,2.72491 -63,3.55 -13.75,0.8251 -30.175,1.75452 -36.5,2.06538 -6.325,0.31086 -25.45,1.42673 -42.5,2.47971 -17.05,1.05298 -39.999999,2.37429 -50.999999,2.93625 -27.148448,1.38694 -36.286531,1.89246 -54.982934,3.04167 -20.5746723,1.26467 -19.5170659,1.3134 -19.5170659,-0.89929 0,-2.06716 3.7499746,-2.55674 27.9999999,-3.65556 12.963367,-0.5874 36.849968,-2.13771 47.75,-3.09912 6.175376,-0.54468 7.25,-0.91547 7.25,-2.50153 0,-2.33728 4.560112,-2.51008 7.5,-0.2842 1.659279,1.25629 4.470227,1.41758 16.499999,0.94676 24.97618,-0.97751 39.72474,-1.77302 65.5,-3.53297 21.39712,-1.461 27.52807,-1.83596 40.5,-2.47689 6.325,-0.31251 13.75,-0.78353 16.5,-1.04669 2.75,-0.26317 14,-0.92572 25,-1.47234 11,-0.54662 23.15,-1.21088 27,-1.47614 10.88567,-0.75 35.01079,-2.15368 60.5,-3.5201 10.175,-0.54546 21.65,-1.03702 25.5,-1.09237 3.85,-0.0553 11.275,-0.48362 16.5,-0.95173 5.225,-0.46811 16.025,-1.11275 24,-1.43252 7.975,-0.31978 16.3,-0.77907 18.5,-1.02066 9.02394,-0.99093 17.66396,-1.56658 52,-3.46454 19.8,-1.09446 43.2,-2.4532 52,-3.01942 27.96551,-1.79937 47.64462,-2.94363 60,-3.48874 6.6,-0.29118 18.525,-0.98813 26.5,-1.54876 7.975,-0.56064 23.3481,-1.44892 34.16245,-1.97397 26.08627,-1.26651 53.04213,-2.78551 70.83755,-3.9918 18.48913,-1.25331 45.10285,-2.79903 60.5,-3.51383 6.6,-0.3064 18.075,-0.9767 25.5,-1.48956 7.425,-0.51285 18.225,-1.18324 24,-1.48975 5.775,-0.30651 13.875,-0.76211 18,-1.01245 4.125,-0.25034 12.675,-0.70911 19,-1.0195 6.325,-0.31039 13.975,-0.75879 17,-0.99646 3.025,-0.23766 10.225,-0.68311 16,-0.98988 5.775,-0.30677 13.425,-0.75182 17,-0.989 11.82008,-0.78419 24.33614,-1.47305 37,-2.0364 6.875,-0.30584 15.425,-0.76186 19,-1.01338 6.20127,-0.4363 30.24321,-1.89098 49.50001,-2.99505 24.1781,-1.38623 26.3362,-1.84429 18.7483,-3.97928 -1.9734,-0.55525 -3.7857,-1.6027 -4.0274,-2.32765 -0.5291,-1.58747 6.696,-0.77285 13.6326,1.53705 4.1288,1.37492 4.4284,1.34266 5.8067,-0.62507 2.0387,-2.91066 7.8476,-2.863 9.4212,0.0773 1.127,2.10593 1.4869,2.13834 16.7852,1.51157 19.4741,-0.79786 67.6367,-3.38865 79.5057,-4.27682 l 8.8722,-0.66392 -0.646,-19.11145 c -0.3553,-10.5113 -0.8535,-25.18645 -1.1071,-32.61145 -0.2536,-7.425 -0.6971,-22.95 -0.9856,-34.5 -1.5645,-62.63879 -2.5396,-98.44421 -3.0094,-110.5 l -0.5261,-13.5 -3.0965,-2.66582 c -3.2004,-2.75521 -7.6903,-5.30399 -21.3251,-12.10558 -4.3733,-2.18155 -9.0983,-4.74592 -10.5,-5.6986 -1.4018,-0.95269 -5.1865,-3.48359 -8.4104,-5.62422 -3.2239,-2.14064 -8.0292,-6.37016 -10.6784,-9.39893 -2.6492,-3.02877 -9.2364,-8.88185 -14.6383,-13.00685 -12.3044,-9.39592 -33.3034,-30.62677 -33.314,-33.68191 0,-1.29848 1.2323,-3.06479 3.0548,-4.3625 1.6872,-1.20142 4.0832,-4.489 5.3358,-7.32139 1.62,-3.66295 4.2552,-6.86471 9.167,-11.1375 17.8847,-15.55819 36.6545,-34.42075 44.2777,-44.4967 8.1047,-10.71226 17.9217,-20.93679 25.6503,-26.7152 4.9949,-3.73452 5.937,-4.91004 5.6556,-7.05732 -0.2293,-1.74933 0.3638,-3.10557 1.8476,-4.22473 l 2.1852,-1.64832 -1.5918,-21.42721 C 1159.7236,91.142248 1159.0716,79.7 1159.1502,77.5 l 0.1428,-4 0.7162,4 0.7162,4 0.1723,-4 c 0.1218,-2.826267 0.4305,-3.559664 1.052,-2.499368 0.4839,0.825348 1.1556,12.300348 1.4926,25.499998 0.5024,19.67197 0.8837,24.20288 2.115,25.12799 0.8262,0.62074 1.425,2.42074 1.3307,4 -0.2687,4.50026 5.0849,43.96804 6.6004,48.65991 6.1542,19.05228 15.4008,42.63884 22.0212,56.17254 5.7856,11.82708 17.4996,37.22386 17.4996,37.94031 0,1.32169 15.6075,28.0449 21.3128,36.49171 3.9529,5.85252 9.4091,14.19961 12.1247,18.5491 2.7156,4.34949 8.9565,12.89183 13.8686,18.98298 4.9121,6.09116 11.8912,15.34983 15.5092,20.57483 3.6179,5.225 8.0254,11.3 9.7943,13.5 6.2731,7.80155 21.4601,30.03368 22.0288,32.24776 0.8252,3.21294 -0.2365,5.25224 -2.7345,5.25224 -2.8265,0 -15.5667,-10.89082 -29.427,-25.1554 -6.0627,-6.23953 -13.9258,-13.5946 -17.4735,-16.3446 -3.5477,-2.75 -7.1676,-5.675 -8.0441,-6.5 -1.5447,-1.45389 -4.3993,-3.48802 -17.8579,-12.72525 -3.5192,-2.4154 -8.5978,-5.5061 -11.2859,-6.86823 -2.688,-1.36213 -6.5587,-3.96751 -8.6014,-5.78973 -2.0428,-1.82222 -5.7391,-4.73555 -8.2141,-6.47406 -2.475,-1.73852 -5.4,-3.83853 -6.5,-4.66669 C 1193.9198,330.77365 1180.2411,322 1179.6174,322 c -0.9271,0 -0.7268,11.11026 0.4226,23.4414 0.567,6.08223 2.1317,26.1336 3.4771,44.5586 6.8109,93.27154 9.8682,130.18144 10.9247,131.8909 0.5437,0.87982 2.9379,1.07613 8.4137,0.6899 4.2095,-0.29692 12.1537,-0.78057 17.6537,-1.07478 5.5,-0.29421 12.475,-0.73915 15.5,-0.98877 3.025,-0.24961 11.8,-0.69696 19.5,-0.99409 13.4104,-0.5175 25.4316,-1.26044 34,-2.1013 2.2,-0.21589 15.7167,-0.68871 30.0371,-1.0507 22.5052,-0.56889 26.439,-0.44689 29,0.89932 l 2.9629,1.55749 -2.5,0.53056 c -1.375,0.2918 -8.35,0.79127 -15.5,1.10993 -7.15,0.31866 -16.15,0.78264 -20,1.03107 -3.85,0.24843 -16.225,0.95198 -27.5,1.56344 -11.275,0.61146 -24.775,1.49759 -30,1.96917 -5.225,0.47158 -16.7,1.07424 -25.5,1.33924 -22.2385,0.66967 -33.7938,1.6514 -35.1842,2.9892 -0.8808,0.84757 -0.9567,4.08503 -0.2962,12.63942 0.4884,6.325 1.1364,14.875 1.44,19 0.3037,4.125 1.6939,22.125 3.0895,40 1.3956,17.875 3.6252,47.35 4.9546,65.5 1.3294,18.15 3.1153,42.45 3.9688,54 0.8535,11.55 2.2148,30 3.0251,41 1.8828,25.55816 3.1227,41.29872 5.5536,70.5 1.0759,12.925 2.671,33.4 3.5445,45.5 1.5208,21.06736 1.6902,22.08638 3.9962,24.03756 2.9683,2.5116 3.0809,5.44193 0.3004,7.8226 -1.8682,1.59965 -2.0375,2.50525 -1.4898,7.97224 0.3398,3.39218 1.051,12.11019 1.5804,19.37337 0.5294,7.26317 1.7064,23.36915 2.6154,35.79107 0.9091,12.42193 1.3639,22.87433 1.0106,23.22757 -1.3915,1.39155 -2.4188,-1.55965 -3.0368,-8.72441 -0.3558,-4.125 -1.2743,-13.8 -2.0411,-21.5 -0.7668,-7.7 -1.704,-18.95 -2.0827,-25 -1.6559,-26.45597 -2.336,-31.36953 -4.5021,-32.52882 -0.9981,-0.53415 -3.6443,-0.97118 -5.8805,-0.97118 -2.9473,0 -4.0657,-0.41262 -4.0657,-1.5 0,-1.15571 1.2922,-1.5 5.6299,-1.5 l 5.6299,0 -0.6559,-9.75 c -0.904,-13.43829 -2.4231,-32.71132 -3.5667,-45.25 -1.0429,-11.4354 -1.6611,-20.09132 -2.5352,-35.5 -0.3121,-5.5 -0.7744,-11.8 -1.0275,-14 -0.2531,-2.2 -1.1475,-14.35 -1.9875,-27 -1.7473,-26.31211 -2.3007,-33.96814 -2.9635,-41 -0.2592,-2.75 -0.7315,-9.05 -1.0496,-14 -0.3181,-4.95 -1.2232,-17.55 -2.0112,-28 -0.7881,-10.45 -1.6806,-22.6 -1.9835,-27 -0.3028,-4.4 -0.7598,-10.25 -1.0155,-13 -0.2556,-2.75 -0.9261,-11.525 -1.4899,-19.5 -0.5637,-7.975 -1.2335,-17.2 -1.4884,-20.5 -1.5294,-19.80433 -2.6113,-34.61448 -4.0178,-55 -0.8728,-12.65 -1.7709,-23.5625 -1.9958,-24.25 -0.5099,-1.55838 -8.8056,-1.67689 -11.6285,-0.16613 -1.9147,1.02469 -1.9938,1.74809 -1.4501,13.25 0.3163,6.69137 0.8161,24.09113 1.1108,38.66613 0.2946,14.575 0.7458,30.55 1.0026,35.5 0.2569,4.95 0.7057,16.875 0.9973,26.5 0.2917,9.625 0.9624,31.45 1.4905,48.5 0.5281,17.05 1.418,46.75 1.9776,66 0.5596,19.25 1.2383,40.85 1.5083,48 0.27,7.15 0.9674,29.65 1.5497,50 0.5822,20.35 1.2932,39.33905 1.5798,42.19788 l 0.5211,5.19788 4.6064,0.30212 c 5.7825,0.37926 7.1511,2.79524 1.596,2.81743 -2.1083,0.008 -4.4498,0.40588 -5.2034,0.88323 -1.4114,0.89409 -1.4172,0.099 0.3902,53.60146 0.4932,14.60162 2.3928,74.7889 4.9707,157.5 0.8314,26.675 1.7259,54.125 1.9877,61 0.2618,6.875 0.7154,20.825 1.0081,31 0.2926,10.175 0.7658,23.9 1.0514,30.5 0.2857,6.6 1.182,33.6 1.9919,60 2.3512,76.6423 2.442,79.4406 2.955,91 0.2685,6.05 0.731,20.225 1.0279,31.5 0.2968,11.275 0.7969,22.9552 1.1111,25.9559 0.3143,3.0008 0.7191,13.8008 0.8995,24 1.7617,99.5761 1.7835,92.4435 -0.2911,95.0055 -1.3348,1.6484 -2.1357,2.0039 -2.6479,1.1752 z M 1190.0006,519.75 c 0,-1.7875 -0.4396,-8.2 -0.9665,-14.25 -0.5268,-6.05 -1.4145,-17.525 -1.9726,-25.5 -0.558,-7.975 -1.4863,-21.025 -2.0627,-29 -0.5765,-7.975 -1.9394,-27.325 -3.0287,-43 -4.7293,-68.05436 -6.0268,-85.62716 -6.4712,-87.6397 -0.4889,-2.21446 -3.0081,-3.77596 -4.5522,-2.82166 -0.4851,0.29981 -0.6605,6.48877 -0.3898,13.75324 0.5454,14.63535 2.915,88.39124 4.4564,138.70812 0.5476,17.875 1.264,37.1125 1.592,42.75 l 0.5964,10.25 6.4037,0 6.4038,0 -0.01,-3.25 z m 90.8806,-133.61469 c -0.7546,-1.02557 -4.1348,-5.86307 -7.5117,-10.75 -3.3768,-4.88692 -11.4058,-15.63531 -17.8422,-23.88531 -6.4365,-8.25 -13.0446,-17.25 -14.6847,-20 -5.8082,-9.73866 -9.4011,-15.42108 -15.1335,-23.93446 -5.2038,-7.72817 -19.6999,-33.50757 -19.6999,-35.03351 0,-0.92073 -8.3855,-19.2867 -15.9949,-35.03203 -3.7212,-7.7 -9.5614,-21.65 -12.9782,-31 -7.5877,-20.76378 -7.9613,-21.46581 -7.9823,-15 -0.015,4.68453 0.5389,12.85108 4.4784,66 2.4155,32.58855 4.4485,54.80464 5.0723,55.43011 0.3126,0.31344 2.2583,1.69489 4.3238,3.06989 2.0655,1.375 6.4162,4.27025 9.6682,6.4339 3.252,2.16364 10.4127,7.3688 15.9127,11.56701 5.5,4.19821 12.25,8.93603 15,10.52849 14.1519,8.19501 47.1155,32.29925 53.8795,39.39872 4.0667,4.26836 5.828,5.38152 3.4925,2.20719 z M 1174.5672,301.75 c -0.3232,-4.5375 -1.2594,-17.475 -2.0806,-28.75 -0.8212,-11.275 -2.1731,-30.175 -3.0042,-42 -2.0218,-28.76586 -2.4488,-29.6592 -1.9121,-4 1.443,68.98794 1.9776,78.5387 4.5398,81.10089 1.0445,1.04451 2.1568,1.89911 2.4718,1.89911 0.315,0 0.3084,-3.7125 -0.015,-8.25 z m -7.9581,-6.59136 c -0.2776,-4.21225 -0.7669,-21.83364 -1.0872,-39.15864 -0.3203,-17.325 -0.7705,-34.65 -1.0003,-38.5 -0.2298,-3.85 -0.6809,-21.625 -1.0025,-39.5 -0.3216,-17.875 -0.8357,-34.6422 -1.1426,-37.26044 l -0.5578,-4.76044 -3.9431,2.2161 c -4.8154,2.70641 -19.7771,17.79346 -27.0343,27.26077 -6.1966,8.08377 -20.6279,22.62107 -33.7957,34.04401 -5.0721,4.4 -11.1998,9.73974 -13.617,11.86608 -2.4172,2.12634 -5.6607,6.17634 -7.2079,9 -1.5471,2.82366 -3.4352,6.10545 -4.1959,7.29288 -1.2861,2.00777 -0.9324,2.67154 5.0507,9.47786 8.897,10.12116 11.8293,12.80542 24.4337,22.36754 6.05,4.58971 13.1408,10.82757 15.7572,13.8619 5.0674,5.87663 17.0847,14.33682 28.3667,19.97005 3.7818,1.88835 9.7841,5.02773 13.3383,6.97641 3.5542,1.94867 6.8402,3.30939 7.3023,3.0238 0.4621,-0.28558 0.613,-3.96563 0.3354,-8.17788 z m 74.1125,1211.42186 c -2.7791,-2.1081 -3.7909,-7.1161 -2.5792,-12.7662 0.8439,-3.9347 2.2799,-6.2518 7.0054,-11.3034 l 5.944,-6.3541 -2.1157,-8.2863 c -1.3487,-5.2824 -2.8137,-8.7754 -4.0413,-9.6352 -1.9996,-1.4005 -2.6776,-5.2353 -0.9256,-5.2353 0.55,0 1,-1.0769 1,-2.393 0,-4.452 5.78,-4.9422 8.2844,-0.7027 1.9016,3.2192 2.1851,6.3498 0.808,8.923 -0.5906,1.1035 -0.2322,4.8353 1.026,10.6843 4.8226,22.4183 0.8332,38.5621 -9.5033,38.4566 -1.7133,-0.017 -3.9195,-0.642 -4.9027,-1.3877 z m 9.2219,-6.1543 c 1.8474,-3.769 2.7897,-19.4262 1.1691,-19.4262 -1.6147,0 -6.9602,8.7196 -7.6722,12.5149 -0.7059,3.7629 1.9288,10.8605 3.8046,10.2493 0.6953,-0.2265 1.9096,-1.7287 2.6985,-3.338 z m -29.2015,-28.7112 c -2.7552,-4.2049 -6.9637,-18.6619 -6.984,-23.991 -0.027,-7.0063 1.5202,-10.4078 5.623,-12.3642 4.2853,-2.0436 7.9187,-1.2124 9.4568,2.1633 1.8292,4.0148 1.3944,13.3886 -0.8506,18.3361 -2.2202,4.8929 -2.4535,7.7601 -0.9525,11.7078 0.564,1.4834 0.7586,3.5377 0.4326,4.5651 -0.835,2.6306 -4.8932,2.3789 -6.7253,-0.4171 z m 4.0548,-25.1679 c 0.3489,-4.2069 0.028,-6.179 -1.3449,-8.275 l -1.8031,-2.7517 -1.2747,2.9898 c -1.7942,4.2082 -1.6576,9.1856 0.3449,12.5757 2.2542,3.816 3.5,2.4294 4.0778,-4.5388 z m 5.1173,22.8383 c -1.1474,-1.3825 -1.0173,-1.8759 0.9042,-3.4319 l 2.2443,-1.8173 -2.023,-3.3181 c -2.8087,-4.6069 -2.5703,-5.6946 1.6328,-7.4507 2.9272,-1.2231 4.1106,-1.2912 5.8896,-0.3392 5.0433,2.6991 6.0718,11.5616 1.8012,15.5195 -3.0845,2.8586 -8.4171,3.2861 -10.4491,0.8377 z M 1228.221,894.75 c -0.5681,-0.6875 -1.7953,-4.175 -2.7269,-7.75 -1.7646,-6.77118 -1.593,-14.1065 0.4964,-21.21151 0.922,-3.13537 1.6308,-3.8127 4.566,-4.36335 4.4641,-0.83746 5.912,0.407 8.0302,6.90182 0.9279,2.84517 2.0066,5.62304 2.397,6.17304 0.3904,0.55 0.6684,5.04201 0.6177,9.98224 -0.082,7.9542 -0.3074,9.02415 -1.9724,9.34839 -2.4076,0.46887 -3.5817,-1.42315 -3.6181,-5.83063 -0.037,-4.47991 -0.9814,-8 -2.1462,-8 -0.5229,0 -0.6281,2.76289 -0.247,6.48321 0.4706,4.59278 0.2972,6.9255 -0.5946,8 -1.5292,1.84263 -3.4132,1.9473 -4.8021,0.26679 z m 5.3648,-22 c -0.838,-5.24561 -2.2498,-6.9001 -3.0767,-3.60561 -0.7162,2.85362 0.9413,7.85561 2.6032,7.85561 0.7958,0 0.9423,-1.31555 0.4735,-4.25 z M 1471.0092,691 c 0,-0.55 0.45,-1 1,-1 0.55,0 1,0.45 1,1 0,0.55 -0.45,1 -1,1 -0.55,0 -1,-0.45 -1,-1 z M 72.009191,678.01179 c 3.575,-1.10219 7.625,-1.97537 9,-1.94039 3.137978,0.0798 -5.783508,2.76225 -11.5,3.45773 -3.125737,0.38027 -2.579322,0.0486 2.5,-1.51734 z M 48.254859,669.25 c -4.287123,-6.23616 -6.712445,-13.75 -4.438234,-13.75 0.981886,0 8.192566,14.22927 8.192566,16.16688 0,1.27383 -2.183394,-0.13175 -3.754332,-2.41688 z m 55.150011,-3.28843 c 1.59262,-0.47659 4.17543,-2.0926 5.73957,-3.59114 1.56414,-1.49855 3.18577,-2.38274 3.60363,-1.96488 1.48474,1.48473 -5.59126,6.59921 -9.00466,6.5085 l -3.23422,-0.086 2.89568,-0.86652 z m 11.60432,-20.87866 c 0,-0.50441 0.9929,-3.09191 2.20644,-5.75 2.18433,-4.78447 2.20987,-4.80228 2.54891,-1.77665 0.4421,3.94544 -1.27896,8.44374 -3.2306,8.44374 -0.83861,0 -1.52475,-0.41269 -1.52475,-0.91709 z m -76.607152,-6.65382 c -0.768976,-3.06384 0.156674,-10.71885 1.628733,-13.46941 C 40.607604,623.88185 41.727588,623 42.519624,623 c 1.121148,0 1.230507,0.55118 0.493809,2.48884 -0.520441,1.36887 -1.246446,5.41887 -1.613344,9 -0.694285,6.77662 -1.891314,8.34984 -2.998051,3.94025 z M 117.93262,621.75 c -0.0421,-1.2375 -0.24993,-4.82156 -0.46182,-7.96458 -0.21189,-3.14302 -0.003,-5.95056 0.46326,-6.23899 1.79314,-1.10822 3.36419,2.76139 3.84406,9.46817 0.47376,6.62143 0.3886,6.9854 -1.63456,6.9854 -1.52407,0 -2.15626,-0.64337 -2.21094,-2.25 z M 49.009191,604.51223 c 0,-2.00688 6.709033,-8.51223 8.778751,-8.51223 2.011475,0 1.294734,1.05241 -4.028751,5.91551 -3.522519,3.21788 -4.75,3.88892 -4.75,2.59672 z m 60.556699,-7.73474 C 107.50942,593.84147 107.60245,593 109.98351,593 c 1.18228,0 2.59668,1.20352 3.52568,3 1.47009,2.84285 1.44822,3 -0.41762,3 -1.08293,0 -2.66949,-1.00013 -3.52568,-2.22251 z M 83.838004,567.25 C 81.252722,564.19548 71.16792,545.58314 70.96944,543.5 c -0.43677,-4.58411 0.198543,-6.50495 3.116674,-9.42308 2.619154,-2.61915 3.824231,-3.07692 8.1,-3.07692 4.379186,0 5.458912,0.43583 8.423077,3.4 5.349253,5.34925 4.651656,10.37119 -2.902977,20.89827 -1.669471,2.32635 -1.687983,2.7876 -0.25,6.22918 0.854137,2.04424 1.552977,4.56184 1.552977,5.59467 0,2.40439 -3.177886,2.48297 -5.171187,0.12788 z m 2.921187,-19.22498 c 2.687929,-3.96713 2.872877,-8.16199 0.534392,-12.12073 -3.418567,-5.78717 -10.740046,-2.42871 -10.737833,4.92558 0.002,6.72913 3.102678,11.50971 6.953441,10.72081 0.55,-0.11267 2.0125,-1.69922 3.25,-3.52566 z m 7.465303,18.75096 c -3.362337,-0.87126 -5.730558,-3.99086 -4.823691,-6.35412 0.872199,-2.27291 11.776897,-1.91575 14.738917,0.48275 2.27692,1.84374 2.29451,1.96824 0.5505,3.89535 -2.13842,2.36293 -6.091926,3.10939 -10.465726,1.97602 z m 5.784696,-3.88297 c 0,-0.49115 -0.899999,-0.89301 -1.999999,-0.89301 -1.949186,0 -2.605998,1.06067 -1.402234,2.26443 0.801115,0.80112 3.402233,-0.24738 3.402233,-1.37142 z m 1168.00001,-9.51545 c 0,-1.2833 -0.2949,-1.37767 -1.411,-0.45145 -0.9811,0.81431 -1.6114,0.84664 -2.0691,0.10614 -0.3619,-0.58568 -1.077,-0.80598 -1.589,-0.48954 -0.512,0.31643 -0.9309,-0.18912 -0.9309,-1.12345 0,-0.93433 -0.7875,-2.29657 -1.75,-3.02721 -1.0688,-0.8113 -1.2634,-1.34082 -0.5,-1.36025 0.6875,-0.0175 1.2785,-0.8193 1.3134,-1.7818 0.048,-1.33114 0.2815,-1.20697 0.9747,0.51882 0.5013,1.24785 2.4977,3.2048 4.4366,4.34878 3.2803,1.9354 4.8045,4.8824 2.5253,4.8824 -0.55,0 -1,-0.7301 -1,-1.62244 z m -27,-3.37756 c 0,-0.55 0.45,-1 1,-1 0.55,0 1,0.45 1,1 0,0.55 -0.45,1 -1,1 -0.55,0 -1,-0.45 -1,-1 z m -0.032,-4.06036 c -1.7721,-3.31113 4.901,-5.98086 6.9097,-2.76441 1.5547,2.4896 0.8299,3.49395 -2.9185,4.04411 -2.2037,0.32344 -3.3258,-0.0363 -3.9912,-1.2797 z m 28.032,0.11938 c 0,-0.58246 0.45,-1.05902 1,-1.05902 0.55,0 1,0.19844 1,0.44098 0,0.24254 -0.45,0.7191 -1,1.05902 -0.55,0.33992 -1,0.14148 -1,-0.44098 z m -249.1521,-30.83524 c -4.6583,-2.19871 -15.18,-11.87737 -14.358,-13.20752 0.9219,-1.49151 5.7316,1.2979 11.9533,6.93227 2.9481,2.66987 6.3045,5.154 7.4585,5.52028 1.1541,0.36628 2.0983,1.08564 2.0983,1.59858 0,1.43169 -3.1083,1.06506 -7.1521,-0.84361 z m 99.8188,-1.89045 c -0.3667,-0.36666 -0.6667,-1.13166 -0.6667,-1.7 0,-0.6266 0.4658,-0.56756 1.1833,0.15 0.6509,0.65084 0.9509,1.41584 0.6667,1.7 -0.2842,0.28417 -0.8167,0.21667 -1.1833,-0.15 z m -36.2014,-5.23953 c -3.8036,-1.62646 -4.7668,-3.7631 -4.0688,-9.02528 0.5838,-4.40102 0.434,-4.98754 -1.4247,-5.57746 -1.6599,-0.52686 -1.8411,-0.94361 -0.902,-2.07516 1.4355,-1.72962 5.099,-1.84715 6.7302,-0.2159 0.66,0.66 1.2,3.7549 1.2,6.87756 0,7.05932 1.3369,8.44185 7.2554,7.50304 3.773,-0.59848 4.0779,-0.50662 2.7446,0.82671 -1.8495,1.84951 -8.7828,2.86323 -11.5347,1.68649 z m 219.2237,-6.30462 c -7.1571,-15.45705 -7.8808,-17.84756 -6.1858,-20.43441 3.01,-4.5939 11.1404,-7.65685 12.2211,-4.60409 0.2657,0.75045 -0.1216,1.0341 -0.9683,0.70919 -2.1681,-0.83197 -6.4745,1.18084 -8.2173,3.84076 -1.3888,2.11949 -1.4012,2.78415 -0.1101,5.87424 2.2205,5.31443 3.9411,6.34869 8.3613,5.02599 3.5888,-1.07395 3.6404,-1.05452 1.5787,0.59446 -1.1723,0.93757 -2.8792,2.15468 -3.7931,2.70468 -1.5365,0.92472 -1.5124,1.43126 0.3203,6.72878 2.8923,8.36054 0.7308,8.06423 -3.2068,-0.4396 z m -245.4657,2.53963 c -3.3596,-1.35068 -7.2233,-14.9984 -7.2233,-25.5147 0,-11.90506 13.206,-13.34677 18.2568,-1.99311 2.7152,6.10353 2.9454,18.18445 0.4363,22.89936 -2.4661,4.63393 -6.9376,6.43057 -11.4698,4.60845 z m 7.2475,-14.61452 c -0.031,-9.8274 -1.5997,-14.64254 -5.4392,-16.69736 -2.4532,-1.31295 -4.0316,1.19938 -4.0316,6.41733 0,3.13679 0.3007,3.56574 2.5,3.56574 2.814,0 3.3463,1.46126 0.8775,2.40865 -2.1642,0.83045 -1.4636,10.28484 1.0459,14.11477 1.6492,2.51702 1.8904,2.59139 3.4254,1.0564 1.301,-1.30103 1.645,-3.60556 1.622,-10.86553 z M 1322.2334,501.25 c -4.1125,-14.07159 -5.2081,-21.25 -3.2433,-21.25 0.5396,0 1.2634,1.2375 1.6086,2.75 1.6011,7.01515 3.6199,13.25 4.2903,13.25 0.4059,0 1.5532,-0.5961 2.5495,-1.32467 1.6169,-1.18224 1.6912,-1.88641 0.6912,-6.54922 -1.3623,-6.3522 -1.4448,-11.12611 -0.1922,-11.12611 0.5105,0 1.4742,2.5875 2.1413,5.75 0.6672,3.1625 2.0495,8.89096 3.0718,12.7299 1.0222,3.83895 1.8586,7.60655 1.8586,8.37245 0,2.41776 -2.7732,-0.63499 -4.0264,-4.43234 -1.3073,-3.96117 -1.9837,-4.1713 -4.495,-1.39638 -1.3301,1.46975 -1.5308,2.32422 -0.7331,3.12185 0.604,0.60403 0.8602,1.7184 0.5694,2.47638 -0.9832,2.56204 -2.9886,1.39925 -4.0907,-2.37186 z M 993.95181,484.19057 c -4.83153,-5.24474 -12.94262,-18.5434 -12.94262,-21.22028 0,-0.61017 0.9468,-0.96559 2.104,-0.78984 3.22426,0.48969 16.32405,23.97265 13.25441,23.76012 -0.47213,-0.0327 -1.55923,-0.82019 -2.41579,-1.75 z M 973.1275,444.11831 c -2.9557,-2.9557 -8.49491,-18.14628 -7.11197,-19.50367 2.28526,-2.24304 7.47051,8.20142 9.42633,18.98712 0.52423,2.89095 0.14474,2.97565 -2.31436,0.51655 z m -13.9158,-45.33 c -0.57982,-2.35857 -1.36311,-6.53831 -1.74065,-9.28831 -0.37755,-2.75 -1.32531,-7.83218 -2.10614,-11.29374 C 953.91489,371.77808 954.14132,370 956.40992,370 c 2.56991,0 6.23261,19.53419 5.21725,27.825 -0.72224,5.89726 -1.15965,6.0717 -2.41547,0.96331 z M 947.98444,339.4349 c -1.05931,-2.78619 -1.35668,-25.27735 -0.36826,-27.85311 0.33384,-0.86999 1.36313,-1.58179 2.2873,-1.58179 1.80979,0 1.74275,-1.11927 1.30287,21.75 -0.19789,10.28782 -1.26477,12.83256 -3.22191,7.6849 z M 948.34297,285 c -0.41597,-1.925 -0.66703,-3.82012 -0.55792,-4.21137 0.10911,-0.39125 0.26204,-3.64687 0.33984,-7.23471 0.15065,-6.94755 1.87611,-10.91416 3.88645,-8.93445 0.84301,0.83017 0.8558,3.6395 0.0495,10.8707 -1.28492,11.52326 -2.57159,14.81443 -3.71784,9.50983 z m 5.02621,-35.50426 c -0.75486,-1.96714 1.66954,-12.61974 5.00596,-21.99574 1.63706,-4.60045 2.64811,-6.07301 4.33447,-6.31299 2.11755,-0.30134 2.01606,0.23425 -2.72742,14.39357 -2.70974,8.08861 -5.1516,14.93136 -5.42636,15.20612 -0.27476,0.27475 -0.80875,-0.30618 -1.18665,-1.29096 z m 14.03183,-46.11536 c 0.88884,-3.79802 10.32352,-23.39347 12.34034,-25.63038 0.8678,-0.9625 2.11611,-1.75 2.77402,-1.75 1.25734,0 -1.2274,5.7948 -8.99163,20.96983 -4.47727,8.75074 -7.38217,11.7922 -6.12273,6.41055 z m -11.64843,-0.46418 c -1.39045,-0.80974 -1.53633,-1.43459 -0.69983,-2.9976 1.29124,-2.41269 2.55611,-1.79313 3.19837,1.56662 0.52584,2.75079 0.14364,2.96968 -2.49854,1.43098 z M 400.50919,185 c -0.33992,-0.55 -0.14148,-1 0.44098,-1 0.58246,0 1.05902,0.45 1.05902,1 0,0.55 -0.19844,1 -0.44098,1 -0.24254,0 -0.7191,-0.45 -1.05902,-1 z m 551.5,0 c 0,-0.55 0.70156,-1 1.55902,-1 0.85746,0 1.2809,0.45 0.94098,1 -0.33992,0.55 -1.04148,1 -1.55902,1 -0.51754,0 -0.94098,-0.45 -0.94098,-1 z m 39.45658,-26.75 c 0.86902,-3.54885 7.45352,-19.07504 9.33003,-22 0.9037,-1.40868 2.4287,-2.24427 4.0784,-2.23469 1.6389,0.01 2.1727,0.30902 1.4122,0.79222 -0.6726,0.4273 -3.9378,6.4954 -7.25618,13.48469 C 995.71188,155.2815 992.50087,161 991.89463,161 c -0.69904,0 -0.85592,-1.00597 -0.42886,-2.75 z m 188.99713,-26.3249 c -1.3431,-2.17314 -3.2892,-22.36402 -2.3286,-24.15894 1.8956,-3.54187 5.4333,-2.07657 11.4031,4.72317 3.1335,3.56913 6.1525,6.20804 6.7087,5.86423 1.4707,-0.90893 0.067,-12.53227 -2.2498,-18.629622 -1.0668,-2.807601 -1.7235,-5.320826 -1.4594,-5.584943 0.9253,-0.925284 5.7537,4.399049 7.5823,8.361005 2.661,5.76562 2.5988,16.79121 -0.11,19.5 -2.9845,2.9845 -4.5834,2.5072 -10.571,-3.15556 -2.9982,-2.83556 -5.6324,-4.97306 -5.8538,-4.75 -0.2214,0.22306 0.093,4.15199 0.6981,8.73096 0.9259,7.00308 0.8725,8.46983 -0.3363,9.23469 -1.8913,1.19672 -2.6791,1.16619 -3.4833,-0.13499 z M 1015.407,118.76097 c 0.3563,-1.78147 2.0797,-5.60167 3.8298,-8.48934 3.492,-5.76165 12.3454,-15.031984 13.3738,-14.003553 0.3561,0.356124 -1.5689,3.478994 -4.2779,6.939713 -2.709,3.46071 -6.654,9.10471 -8.7666,12.54221 -2.1127,3.4375 -4.0585,6.25 -4.324,6.25 -0.2656,0 -0.1914,-1.45756 0.1649,-3.23903 z m 24.6547,-34.142936 c -0.087,-3.129608 3.539,-7.963784 10.8437,-14.455835 6.1959,-5.506559 9.1038,-7.292599 9.1038,-5.59152 0,0.313874 -3.7516,4.251374 -8.3368,8.75 -4.5853,4.498627 -9.0617,9.304321 -9.9476,10.679321 -1.373,2.131094 -1.6184,2.222293 -1.6631,0.618034 z"
     id="path3067"
     style="fill:#000000" />
</svg>
