<?xml version="1.0" encoding="UTF-8" standalone="no"?>
<!-- Created with Inkscape (http://www.inkscape.org/) -->

<svg
   xmlns:dc="http://purl.org/dc/elements/1.1/"
   xmlns:cc="http://creativecommons.org/ns#"
   xmlns:rdf="http://www.w3.org/1999/02/22-rdf-syntax-ns#"
   xmlns:svg="http://www.w3.org/2000/svg"
   xmlns="http://www.w3.org/2000/svg"
   version="1.1"
   width="1510.9651"
   height="1627.3114"
   id="svg2997">
  <metadata
     id="metadata3003">
    <rdf:RDF>
      <cc:Work
         rdf:about="">
        <dc:format>image/svg+xml</dc:format>
        <dc:type
           rdf:resource="http://purl.org/dc/dcmitype/StillImage" />
        <dc:title></dc:title>
      </cc:Work>
    </rdf:RDF>
  </metadata>
  <defs
     id="defs3001" />
  <path
     d="m 942.66574,1627.1982 c -4.3497,-0.5176 -3.2276,-2.8384 2,-4.1366 2.6125,-0.6489 8.5911,-2.9407 13.2858,-5.093 4.6947,-2.1523 12.7947,-5.2201 18,-6.8174 5.2053,-1.5973 14.2555,-4.7524 20.1115,-7.0114 5.85596,-2.2589 13.95596,-4.6046 17.99996,-5.2127 17.2278,-2.5903 44.9078,-14.3455 60.1257,-25.5342 3.9749,-2.9224 9.477,-6.9218 12.227,-8.8874 2.75,-1.9657 7.925,-5.669 11.5,-8.2297 26.3934,-18.905 40.9766,-28.6063 51.5,-34.2598 4.4,-2.3638 11.15,-6.1877 15,-8.4977 3.85,-2.3099 9.925,-5.8491 13.5,-7.8649 3.575,-2.0157 13.5879,-8.2976 22.251,-13.9597 19.9335,-13.0284 33.3039,-19.8648 49.249,-25.1811 11.9762,-3.9931 26.3069,-10.4244 33.2979,-14.9433 3.6862,-2.3827 8.9237,-5.5711 11.6389,-7.0853 2.7153,-1.5142 9.4653,-6.0001 15,-9.9686 5.5348,-3.9685 11.9114,-8.5196 14.1703,-10.1135 7.8345,-5.5282 28.7478,-22.7852 32.0726,-26.4654 1.8381,-2.0344 4.6828,-4.2544 6.3216,-4.9333 3.4535,-1.4304 7.9824,-7.4361 15.7381,-20.87 13.7075,-23.7432 17.5929,-36.132 23.7924,-75.8633 1.3782,-8.8324 1.6259,-14.6043 1.1586,-27 -0.5286,-14.0254 -1.0315,-17.4466 -4.5549,-30.9877 -2.1784,-8.3719 -4.7448,-16.6969 -5.7032,-18.5 -5.5081,-10.363 -10.5454,-20.7234 -11.5613,-23.7784 -1.4757,-4.4375 -6.5663,-12.4664 -10.7786,-17 -4.5985,-4.9492 -8.8984,-11.3071 -11.2642,-16.6555 -1.6117,-3.6436 -2.0248,-6.6751 -2.0054,-14.7167 0.03,-12.2502 1.3823,-19.5957 4.6291,-25.1359 5.2084,-8.8875 13.4584,-13.8358 27.5936,-16.5503 8.1509,-1.5653 38.5395,-11.4397 41.8192,-13.5886 4.8747,-3.194 11.4744,-9.9616 15.2343,-15.6218 3.5031,-5.2737 3.8906,-6.546 4.5157,-14.8264 1.1535,-15.2793 -3.3612,-37.8695 -9.5737,-47.9048 -1.5322,-2.475 -4.1647,-7.2697 -5.8499,-10.6549 -4.9766,-9.99659 -20.66,-31.62319 -25.424,-35.05822 -6.0652,-4.37326 -12.9204,-11.32465 -12.4813,-12.65643 0.2197,-0.66631 4.0351,-1.37059 9.2934,-1.71542 4.9065,-0.32176 10.0571,-1.05966 11.446,-1.63979 2.8418,-1.18701 20.977,-17.84531 26.9866,-24.78881 12.2695,-14.17631 16.9972,-26.37808 17.3863,-44.87235 0.3849,-18.29748 -3.1212,-24.81356 -19.1721,-35.63155 -4.0007,-2.69638 -9.8712,-6.90104 -13.0456,-9.34369 -3.1744,-2.44265 -7.3261,-5.12032 -9.226,-5.95039 -12.1042,-5.28831 -19.2685,-21.82772 -19.0683,-44.02085 0.054,-5.95784 0.3085,-11.17338 0.566,-11.5901 0.2576,-0.41671 0.9315,-6.46149 1.4975,-13.43284 1.7424,-21.45733 4.5835,-28.68812 16.2265,-41.29832 3.9844,-4.31547 9.0623,-9.81124 11.2842,-12.21284 4.4534,-4.81371 12.344,-10.4601 20.0397,-14.34016 14.9355,-7.53025 24.0186,-13.85249 27.4773,-19.12547 1.1429,-1.74231 4.5077,-6.54283 7.4773,-10.66783 13.1304,-18.23854 16.631,-26.16514 19.1063,-43.26369 1.4804,-10.22622 1.541,-13.23223 0.464,-23 -1.4029,-12.72182 -2.5313,-15.72482 -12.5365,-33.36189 -6.4882,-11.43745 -9.062,-15.93956 -25.875,-45.26117 -10.9796,-19.14837 -24.9442,-36.64063 -55.6134,-69.66266 -15.4908,-16.67919 -20.1087,-21.88306 -29.9877,-33.79322 -2.2092,-2.66345 -9.5213,-10.66753 -16.2491,-17.78686 -6.7278,-7.11933 -12.6892,-13.76084 -13.2477,-14.7589 -0.9607,-1.7167 -4.2696,-5.54907 -19.5155,-22.60264 -3.575,-3.99889 -8.975,-10.30802 -12,-14.02031 -3.025,-3.71229 -7.8012,-9.2784 -10.6138,-12.36913 -2.8126,-3.09074 -6.1876,-7.25916 -7.5,-9.26314 -4.9757,-7.59771 -12.5878,-17.47436 -17.9624,-23.30599 -3.0669,-3.32772 -6.6413,-7.6254 -7.9431,-9.5504 -2.834,-4.19071 -9.2223,-11.57251 -21.8332,-25.22844 -5.1439,-5.57016 -9.8435,-11.28496 -10.4434,-12.69956 -0.6,-1.4146 -1.6399,-3.247 -2.311,-4.072 -2.3691,-2.91234 -8.4045,-15.56786 -9.9499,-20.86352 -0.8608,-2.94994 -2.6326,-6.99994 -3.9374,-9 -1.3047,-2.00006 -3.1178,-6.56148 -4.0291,-10.13648 -0.9113,-3.575 -2.4588,-8.975 -3.4391,-12 -2.8575,-8.81853 -4.0957,-19.68826 -3.5882,-31.5 0.602,-14.01087 3.2011,-31.42513 5.7462,-38.5 1.0882,-3.025 2.5545,-7.75 3.2583,-10.5 0.7039,-2.75 2.2106,-6.575 3.3482,-8.5 1.1376,-1.925 2.6124,-5.75 3.2773,-8.5 0.6648,-2.749997 1.6032,-5.775246 2.0853,-6.722772 2.5602,-5.031974 3.8027,-23.718861 3.9002,-58.660912 0.097,-34.8941124 0.1657,-36.11631311 2.018,-36.11631311 2.2218,0 2.1644,-1.32059869 1.9542,45.00000011 -0.1357,29.895215 -1.065,39.75909 -5.1572,54.738286 -1.1663,4.268941 -3.1359,9.786711 -4.377,12.261711 -1.2411,2.475 -2.5885,6.075 -2.9944,8 -0.4058,1.925 -1.752,5.975 -2.9915,9 -3.1906,7.7864 -5.0324,24.62023 -4.9234,45 0.092,17.28006 0.1413,17.6571 3.8932,30 2.0898,6.875 4.8369,14.3 6.1046,16.5 1.2677,2.2 3.4319,7.33157 4.8093,11.4035 1.3775,4.07192 4.0444,9.92192 5.9266,13 1.8821,3.07807 4.1784,7.0849 5.1028,8.90406 0.9244,1.81916 5.5933,7.53493 10.3753,12.70171 12.8686,13.90403 19.5302,21.56791 22.157,25.49073 1.289,1.925 4.5046,5.75 7.1457,8.5 4.5156,4.70174 7.1844,8.12767 16.7483,21.5 2.1635,3.025 5.383,6.85 7.1545,8.5 1.7716,1.65 5.0542,5.475 7.2948,8.5 5.9157,7.98682 10.8775,13.85212 22.7556,26.89926 5.8087,6.38041 12.2437,13.85074 14.3001,16.60074 2.0563,2.75 8.5538,9.98531 14.4387,16.07847 10.9225,11.3089 17.3594,18.59905 24.5145,27.7639 2.2147,2.8367 7.2693,8.53263 11.2325,12.65763 3.9631,4.125 9.3656,9.975 12.0055,13 2.6399,3.025 9.0386,10.06653 14.2195,15.64785 5.1808,5.58131 11.289,12.60459 13.5738,15.60728 2.2847,3.0027 6.9608,8.85622 10.3913,13.00784 6.663,8.06375 13.1139,18.09658 20.8199,32.3804 2.628,4.87115 5.5544,9.98327 6.5032,11.36028 0.9488,1.377 3.8524,6.552 6.4525,11.5 2.6001,4.94799 6.453,11.96486 8.5619,15.59303 2.1089,3.62818 5.7112,10.52771 8.005,15.3323 5.2284,10.95124 5.2374,12.09106 0.3501,44.74836 -1.6613,11.10107 -5.0711,19.49486 -12.2465,30.14695 -2.6585,3.94664 -6.0391,8.97571 -7.5126,11.17571 -4.6597,6.95747 -9.0573,12.21723 -12.6707,15.1547 -1.925,1.56492 -3.653,3.19185 -3.84,3.61541 -0.1871,0.42356 -5.7567,3.46418 -12.3771,6.75692 -15.6305,7.77412 -18.2085,9.74766 -31.0155,23.74383 -13.1497,14.37066 -15.9746,19.7148 -18.1242,34.28773 -4.3291,29.34707 -4.5342,43.68627 -0.8313,58.13506 2.8276,11.03358 5.1479,13.74281 17.9216,20.92576 8.9335,5.02352 27.3017,18.17712 30.8174,22.06861 6.0631,6.71114 8.6695,13.6563 9.0384,24.08425 0.6599,18.65719 -3.9705,32.61291 -15.6699,47.22773 -3.5223,4.4 -6.8513,8.18541 -7.3978,8.41203 -0.5466,0.22661 -5.725,5.11681 -11.5077,10.86711 -5.7826,5.7503 -11.6257,10.87902 -12.9847,11.39715 -1.3589,0.51814 -5.1839,1.19742 -8.5,1.50952 -3.316,0.3121 -6.1901,0.7089 -6.3868,0.88179 -0.1967,0.17288 4.5288,5.1784 10.5011,11.12337 11.586,11.53295 22.3508,25.71058 27.5688,36.30899 1.7601,3.575 4.2681,8.2353 5.5734,10.3561 1.3054,2.1209 2.5051,4.8209 2.666,6 0.161,1.1792 1.0412,3.8553 1.9561,5.9471 1.8896,4.3201 2.3683,6.7192 3.0322,15.1968 0.2585,3.3 0.7046,7.0917 0.9914,8.4259 0.2868,1.3342 0.072,2.9678 -0.4779,3.6302 -0.5497,0.6623 -1.1016,5.0729 -1.2265,9.8012 -0.1523,5.7687 -0.6382,8.7587 -1.477,9.0885 -0.697,0.274 -1.25,2.1864 -1.25,4.3226 0,2.4757 -0.9636,5.3174 -2.7234,8.0314 -2.7133,4.1845 -5.2766,5.5157 -5.2766,2.7403 0,-0.9319 -2.2607,0.2484 -6.25,3.2629 -3.4375,2.5976 -8.275,5.3352 -10.75,6.0835 -2.475,0.7484 -9.675,3.153 -16,5.3435 -6.325,2.1906 -13.75,4.3626 -16.5,4.8268 -13.9466,2.3542 -22.1085,6.607 -27.3773,14.2649 -4.1442,6.0233 -5.3642,11.4999 -5.4973,24.6783 -0.1159,11.4672 -0.1056,11.52 3.6288,18.5 2.0598,3.85 6.4422,10.114 9.7386,13.92 3.2964,3.806 6.9526,8.981 8.1248,11.5 5.7456,12.3459 10.5222,21.9156 12.5184,25.08 2.3691,3.7554 7.0611,19.1869 10.0339,33 1.3934,6.4746 1.8102,12.5509 1.7491,25.5 -0.1013,21.4806 -0.8526,29.357 -4.5774,47.9906 -4.2714,21.3678 -6.1122,26.132 -19.3225,50.0094 -5.9771,10.8035 -17.5711,27.3817 -19.5998,28.0256 -1.1633,0.3692 -4.5541,3.1298 -7.5349,6.1346 -3.7089,3.7387 -5.9667,5.2922 -7.1521,4.9213 -1.1664,-0.365 -4.6723,1.9072 -10.7323,6.9555 -12.1823,10.1486 -30.6978,23.1524 -49.6284,34.8546 -9.2843,5.7393 -31.5853,16.082 -38.8716,18.0278 -2.5183,0.6725 -11.412,4.5019 -22.5,9.6879 -5.5341,2.5884 -23.593,13.7476 -38,23.4814 -3.3,2.2296 -12.3,7.5713 -20,11.8704 -26.8735,15.0042 -26.291,14.6407 -54,33.7031 -15.4483,10.6277 -22.1174,15.3579 -33.5912,23.8254 -12.7517,9.4105 -18.0174,12.4284 -32.4088,18.5746 -15.8257,6.7587 -22.8248,9.0552 -33,10.8281 -5.159,0.8989 -14.3589,3.6682 -21.55656,6.489 -6.9061,2.7064 -15.9061,5.9176 -20,7.1359 -4.0939,1.2184 -10.5059,3.7566 -14.2491,5.6406 -7.0494,3.5481 -13.1981,5.1033 -17.9443,4.5386 z m 360.34636,-264.4591 c -8.1751,-4.2014 -9.6919,-18.3673 -3.0161,-28.1689 2.5192,-3.6988 4.6803,-4.856 3.392,-1.8164 -4.3053,10.1582 -4.5163,18.5707 -0.6037,24.0654 3.1258,4.3899 5.5392,4.1218 7.5228,-0.8356 2.8128,-7.0299 1.8831,-12.6233 -5.6058,-33.7261 l -4.1359,-11.6543 -1.6812,3.9587 c -0.9247,2.1772 -2.3993,4.5545 -3.2769,5.2829 -2.0192,1.6758 -5.3063,0.6811 -7.1603,-2.1668 -1.9054,-2.9268 -2.6851,-12.0924 -1.1975,-14.0766 1.2694,-1.693 6.1244,-2.305 8.9162,-1.124 1.4791,0.6258 1.75,0.1849 1.75,-2.8476 0,-2.9764 0.4188,-3.693 2.4571,-4.2046 8.8846,-2.2299 15.5514,10.6656 9.6445,18.6551 l -2.1712,2.9367 4.0738,12.7427 c 5.7769,18.0702 5.6155,27.2516 -0.5644,32.1128 -3.0911,2.4314 -4.9273,2.6221 -8.3434,0.8666 z m -9.0964,-51.6763 c 0,-4.4527 -1.253,-7.1393 -2.6692,-5.7232 -0.8577,0.8577 0.7636,10.6642 1.763,10.6642 0.4984,0 0.9062,-2.2234 0.9062,-4.941 z m 13.9699,-4.559 c 8e-4,-3.9583 -2.0641,-7.8945 -4.3748,-8.3395 -1.6417,-0.3161 -1.7718,0.085 -1.1332,3.4912 0.3968,2.1166 1.3761,5.4159 2.1764,7.3319 1.1546,2.7648 1.6485,3.1775 2.393,2 0.5159,-0.816 0.9383,-2.8336 0.9386,-4.4836 z m -47.4083,51.25 c -0.4738,-2.9107 -2.1263,-21.7357 -8.6245,-98.25 -1.9876,-23.4031 -6.5396,-74.3258 -7.3747,-82.5 -0.5042,-4.9356 -0.8328,-8.5379 -3.01,-33 -0.8077,-9.075 -1.7079,-19.65 -2.0004,-23.5 -0.2926,-3.85 -1.6757,-20.725 -3.0737,-37.5 -1.398,-16.775 -3.1911,-38.4495 -3.9847,-48.1654 -0.7936,-9.716 -1.6656,-19.391 -1.9378,-21.5 -0.2721,-2.1091 -0.7401,-6.9846 -1.0399,-10.8346 -0.2998,-3.84996 -1.1922,-13.97496 -1.9832,-22.49996 -0.791,-8.525 -1.7029,-19.325 -2.0264,-24 -0.3236,-4.675 -1.0037,-12.55 -1.5113,-17.5 -0.5076,-4.95 -1.1762,-12.375 -1.4857,-16.5 -0.5305,-7.07029 -0.9215,-11.35288 -2.0087,-22 -0.2527,-2.475 -0.7266,-8.55 -1.0532,-13.5 -0.3266,-4.95 -0.7676,-9.675 -0.98,-10.5 -0.2124,-0.825 -1.0786,-10.05 -1.9247,-20.5 -2.0309,-25.08111 -2.3979,-29.26867 -3.5494,-40.5 -0.5357,-5.225 -1.1992,-12.875 -1.4744,-17 -0.8004,-11.99585 -3.5126,-43.26652 -3.9897,-46 -0.24,-1.375 -0.6926,-6.325 -1.0058,-11 -0.3131,-4.675 -0.7968,-10.975 -1.0747,-14 -0.2779,-3.025 -0.705,-7.65483 -0.9491,-10.2885 -0.7636,-8.24052 -1.3693,-14.9616 -2.0016,-22.2115 -0.6329,-7.25654 -1.2171,-13.13587 -1.9872,-20 -0.2469,-2.2 -0.7121,-8.725 -1.0338,-14.5 -0.3218,-5.775 -0.777,-11.625 -1.0117,-13 -0.7759,-4.54652 -1.4993,-11.40488 -1.9513,-18.5 -0.2453,-3.85 -0.6667,-9.025 -0.9366,-11.5 -0.2698,-2.475 -0.7432,-7.65 -1.052,-11.5 -0.3088,-3.85 -1.4527,-16.675 -2.542,-28.5 -1.0894,-11.825 -2.2008,-24.425 -2.47,-28 -0.8774,-11.65493 -3.7091,-38.48981 -4.1054,-38.90598 -0.2126,-0.22329 -9.0539,0.61347 -19.6473,1.85947 -10.5934,1.246 -22.8607,2.67141 -27.2607,3.16759 -4.4,0.49617 -9.575,1.10247 -11.5,1.34732 -1.925,0.24486 -8,0.93408 -13.5,1.5316 -11.188,1.21547 -13.1811,1.47312 -28.3212,3.66107 -5.8733,0.84878 -13.6038,1.69845 -17.1788,1.88815 -3.575,0.1897 -10.325,0.79917 -15,1.35438 -31.3393,3.72186 -90.08986,10.54172 -108.99996,12.65287 -38.2415,4.26934 -90.93237,10.38427 -103,11.95345 -6.325,0.82246 -20.05,2.41639 -30.5,3.54208 -10.45,1.12569 -22.6,2.44739 -27,2.93711 -33.29656,3.70592 -45.98612,5.16056 -52.5,6.01823 -4.125,0.54313 -11.775,1.42466 -17,1.95896 -5.225,0.5343 -21.425,2.35032 -36,4.0356 -14.575,1.68528 -42.25,4.84182 -61.5,7.01454 -19.25,2.17271 -46.7,5.28402 -61,6.91402 -30.25661,3.44882 -72.72303,8.1569 -100.5,11.14203 -21.96564,2.3606 -99.02295,10.9869 -151,16.90394 -54.83977,6.24293 -86.03654,9.73951 -107,11.99275 -22.89892,2.46126 -33.92259,3.90668 -36,4.72029 -0.825,0.32311 -2.91705,0.4946 -4.64901,0.38109 -1.73195,-0.11352 -3.45171,0.2834 -3.82169,0.88203 -0.44296,0.71673 -2.86791,0.86351 -7.10099,0.42982 -5.55627,-0.56926 -6.42831,-0.43638 -6.42831,0.9795 0,0.90095 -0.79554,1.63809 -1.76787,1.63809 -0.97232,0 -3.55982,1.18962 -5.75,2.64359 l -3.98213,2.64359 3.44617,-3.64359 c 2.11313,-2.23419 2.88676,-3.63672 2,-3.62582 -1.86099,0.0229 -12.0105,1.10556 -45.94617,4.90133 -74.13109,8.2917 -87.79162971,9.65473 -86.87372971,8.66816 0.54926,-0.59036 34.36868971,-4.7554 61.87372971,-7.62008 16.22022,-1.68935 63.75544,-7.11236 77.78955,-8.87455 4.91671,-0.61736 7.76308,-1.52957 9.33118,-2.99048 2.72116,-2.53514 4.74178,-2.67244 6.37898,-0.43344 1.1392,1.55795 2.20851,1.55598 16.11024,-0.0297 8.18953,-0.93414 32.66505,-3.72737 54.39005,-6.2072 21.725,-2.47982 47.15,-5.38124 56.5,-6.44759 9.35,-1.06635 22.85,-2.62837 30,-3.47116 7.15,-0.84278 16.825,-1.97453 21.5,-2.515 4.675,-0.54047 16.15,-1.88215 25.5,-2.98152 9.35,-1.09937 39.5,-4.47958 67,-7.51159 27.5,-3.03201 55.4,-6.18059 62,-6.99684 6.6,-0.81625 16.275,-1.92749 21.5,-2.46942 5.225,-0.54192 15.35,-1.68141 22.5,-2.53219 7.15,-0.85078 28.525,-3.3171 47.5,-5.48069 18.975,-2.1636 50.25,-5.77594 69.5,-8.02742 19.25,-2.25149 42.425,-4.95494 51.5,-6.00766 9.075,-1.05273 28.425,-3.2989 43,-4.9915 14.575,-1.6926 42.025,-4.84759 61,-7.01109 18.975,-2.1635 40.35,-4.63325 47.5,-5.48832 7.15,-0.85507 21.1,-2.43432 31,-3.50943 9.9,-1.07511 23.85,-2.65292 31,-3.50624 7.15,-0.85331 24.7,-2.897 39,-4.54153 14.3,-1.64452 30.95,-3.62123 37,-4.39268 6.05,-0.77145 25.39996,-3.07023 42.99996,-5.10839 25.4808,-2.9508 32.5408,-4.08629 34.6544,-5.57365 3.0112,-2.11898 5.1051,-2.33454 7.94,-0.81739 1.4199,0.75993 6.8647,0.49395 19.6842,-0.96158 52.4288,-5.95278 80.0441,-9.12917 84.4521,-9.71391 l 4.9311,-0.65413 -0.6504,-11.61044 c -0.3576,-6.38574 -0.8186,-12.28544 -1.0243,-13.11044 -0.2058,-0.825 -0.6517,-5.55 -0.9909,-10.5 -0.3392,-4.95 -0.8029,-11.025 -1.0303,-13.5 -0.644,-7.00804 -2.4068,-26.42221 -3.4504,-38 -0.5205,-5.775 -1.2134,-14.325 -1.5398,-19 -0.3263,-4.675 -1.444,-18.625 -2.4838,-31 -1.0397,-12.375 -2.1415,-25.875 -2.4484,-30 -0.4769,-6.40899 -1.7682,-18.09522 -2.9756,-26.92708 -0.4066,-2.97472 -2.3891,-4.48816 -9.2333,-7.04892 -2.9068,-1.08756 -7.8345,-3.33787 -10.9506,-5.00069 -3.116,-1.66282 -6.459,-3.02331 -7.4289,-3.02331 -4.3762,0 -19.3735,-9.13434 -27.0696,-16.48714 -4.9978,-4.77489 -8.6876,-7.51844 -10.1245,-7.52817 -7.649,-0.0518 -6.8074,-3.03556 9.6519,-34.22207 3.1168,-5.90556 6.2875,-12.49644 7.0461,-14.64639 0.7585,-2.14996 3.2098,-6.80753 5.4471,-10.35017 2.2374,-3.54263 4.7313,-8.32109 5.5419,-10.6188 2.9402,-8.33323 11.6645,-21.46159 18.4325,-27.73723 1.4295,-1.32552 2.1877,-2.41003 1.685,-2.41003 -0.5028,0 0.056,-1.03258 1.2416,-2.29463 2.1151,-2.25147 2.129,-2.47247 0.7365,-11.75 -1.3798,-9.19332 -2.0161,-13.96055 -5.0659,-37.95537 -1.7144,-13.48822 -1.7508,-14.28685 -0.6195,-13.58765 0.472,0.29171 1.4188,4.00554 2.1039,8.25296 1.358,8.41805 3.1748,14.24799 2.7642,8.87023 -0.1571,-2.05751 0.2719,-3.06709 1.4022,-3.29993 1.2834,-0.26438 1.7648,0.78776 2.2714,4.96446 1.0274,8.47132 2.4478,23.86109 4.0885,44.29993 0.8389,10.45 2.0343,21.25 2.6563,24 1.266,5.59674 10.3371,24.82095 17.4588,37 10.9333,18.69742 17.821,28.01925 27.8487,37.69066 16.4049,15.8218 17.4119,16.82166 29.0156,28.80934 6.1223,6.325 14.4633,14.425 18.5354,18 27.6726,24.29458 40.4946,39.64956 43.5105,52.10624 0.7762,3.20618 -1.7198,6.16453 -4.2923,5.08735 -7.2497,-3.03562 -13.3466,-7.6164 -24.0748,-18.08803 -11.9293,-11.64403 -25.9597,-22.14341 -32.5447,-24.3543 -1.7061,-0.5728 -3.6109,-1.43684 -4.233,-1.9201 -1.9047,-1.47962 -12.0433,-3.788 -19.6531,-4.47465 -5.8474,-0.52762 -17.4061,-3.35383 -32.9658,-8.06042 -1.3027,-0.39404 -1.75,0.0421 -1.75,1.70623 0,2.01686 12.3439,89.17691 16.9945,119.99768 1.0374,6.875 3.502,23.3 5.4769,36.5 1.9749,13.2 3.8168,25.03827 4.0931,26.30726 0.4845,2.22542 0.7583,2.28463 7.7189,1.66946 3.9691,-0.35079 14.1916,-1.47692 22.7166,-2.50251 8.525,-1.02559 23.825,-2.81954 34,-3.98656 10.175,-1.16702 25.7226,-2.99165 34.5502,-4.05475 8.8276,-1.06309 16.3268,-1.9329 16.6648,-1.9329 0.8806,0 -4.0059,-12.32756 -7.9032,-19.93775 -4.436,-8.66229 -4.4528,-13.11338 -0.062,-16.37326 3.3586,-2.4934 8.8498,-4.69801 11.6492,-4.67694 0.8805,0.007 -0.4242,1.16701 -2.8992,2.57865 -2.475,1.41163 -5.2875,3.27595 -6.25,4.14294 -2.4837,2.23719 -2.127,7.21686 0.7709,10.76389 l 2.449,2.99754 4.7288,-1.70047 c 2.6008,-0.93525 4.8657,-1.56349 5.0331,-1.39608 0.2349,0.2348 -4.0641,3.36591 -8.5911,6.25731 -0.4932,0.31497 4.9234,14.61873 5.9731,15.77347 0.5166,0.56828 10.9097,-0.18294 26.7532,-1.93375 24.2863,-2.68378 26.0138,-2.75762 27.5921,-1.17929 1.5783,1.57832 1.5384,1.68853 -0.6377,1.76025 -1.2768,0.0421 -2.9964,0.20666 -3.8214,0.36573 -0.825,0.15908 -4.65,0.60193 -8.5,0.98412 -3.85,0.38219 -13.75,1.55834 -22,2.61368 -8.25,1.05533 -29.175,3.49699 -46.5,5.42591 -55.6653,6.19762 -90.4555,10.58956 -91.405,11.53903 -0.567,0.56699 -0.2659,5.6819 0.7777,13.21013 3.5918,25.91158 8.7607,60.34972 9.2734,61.78489 0.2948,0.825 0.7004,3.72869 0.9015,6.45266 0.2011,2.72396 1.08,9.47396 1.953,15 0.873,5.52603 2.8955,19.27234 4.4944,30.54734 1.5989,11.275 6.5069,45.25 10.9067,75.5 4.3998,30.25 9.1996,63.325 10.6664,73.5 1.8129,12.57618 3.2747,19.50657 4.5651,21.6435 1.4863,2.4612 1.6832,3.70932 0.9072,5.75032 -1.1065,2.91021 -0.2277,10.69262 5.4319,48.10618 1.9136,12.65 4.6325,30.875 6.0419,40.5 1.4095,9.625 4.7861,32.575 7.5036,51 7.031,47.67152 8.5343,58.09575 11.4649,79.49995 1.4308,10.45 3.9325,28.1922 5.5594,39.4271 3.4156,23.5877 3.5366,25.9136 1.3907,26.7371 -2.2814,0.8754 -3.5388,-0.8617 -4.5797,-6.327 -1.0016,-5.2585 -9.4235,-62.1795 -13.3662,-90.3372 -1.3477,-9.62495 -2.9079,-20.19995 -3.4672,-23.49995 -0.5593,-3.3 -2.6029,-17.025 -4.5414,-30.5 -1.9385,-13.475 -3.7482,-26.03528 -4.0217,-27.91172 -0.2734,-1.87645 -2.3145,-16.27645 -4.5358,-32 -2.2213,-15.72356 -4.2629,-30.16328 -4.5369,-32.08828 -0.274,-1.925 -1.1132,-7.325 -1.865,-12 -0.7518,-4.675 -1.8894,-12.55 -2.5281,-17.5 -0.6386,-4.95 -1.5901,-10.6875 -2.1145,-12.75 -0.9259,-3.64201 -1.0891,-3.75346 -5.6648,-3.87009 l -4.7115,-0.12009 4.5,-1.03648 c 2.475,-0.57007 4.6438,-1.14736 4.8196,-1.28287 0.2956,-0.22786 -5.0412,-38.8318 -13.4017,-96.94047 -1.8991,-13.2 -5.2507,-36.825 -7.4478,-52.5 -2.1972,-15.675 -4.909,-34.575 -6.0264,-42 -1.1174,-7.425 -4.9372,-34.16289 -8.4885,-59.41754 -3.5513,-25.25465 -6.6593,-46.11989 -6.9066,-46.36722 -0.2473,-0.24732 -2.6094,-0.0501 -5.2491,0.43828 l -4.7995,0.88794 0.2982,5.47927 c 0.3358,6.16992 2.1093,26.21975 5.7034,64.47927 1.3434,14.3 3.5619,38.6 4.9301,54 1.3682,15.4 5.4308,60.30992 9.028,99.79981 3.5971,39.4899 6.5403,72.2274 6.5403,72.75 0,0.52261 2.25,0.95019 5,0.95019 6.0184,0 6.6282,1.51827 0.9174,2.28425 -2.2454,0.30118 -4.3541,0.81912 -4.686,1.15099 -0.3318,0.33187 0.6331,14.43221 2.1444,31.33408 2.9572,33.07228 7.9324,87.18624 9.583,104.23068 2.1461,22.16135 4.0741,43.17888 5.5501,60.49995 0.8435,9.9 1.9879,22.725 2.5431,28.5 2.0455,21.2802 13.6702,152.2837 19.433,219 4.3707,50.5997 4.4031,50.8829 6.2258,54.4076 1.2305,2.3796 1.2901,3.5639 0.327,6.501 -0.8825,2.6915 -0.9121,6.5982 -0.118,15.5914 1.1816,13.3822 1.3965,26.5123 0.4732,28.9182 -1.1282,2.94 -4.2572,1.8596 -4.8314,-1.6682 z m -59.7054,-854.28301 c 0.1959,-0.19028 -0.1309,-3.86068 -0.7262,-8.15646 -1.3694,-9.88199 -7.3382,-51.53221 -10.5777,-73.81049 -1.3596,-9.35 -3.8598,-27.575 -5.5562,-40.5 -1.6963,-12.925 -3.7123,-27.55 -4.48,-32.5 -0.7677,-4.95 -2.1586,-14.0625 -3.0909,-20.25 -0.9322,-6.1875 -1.9049,-11.25 -2.1616,-11.25 -0.2566,0 -0.1934,3.0375 0.1404,6.75 0.3339,3.7125 1.2602,14.175 2.0585,23.25 8.2422,93.69754 13.6969,153.91516 14.118,155.85667 0.4769,2.19883 0.8262,2.30978 5.2153,1.65646 2.5873,-0.38512 4.8645,-0.8559 5.0604,-1.04618 z m 89.4757,-143.21695 c -1.5139,-2.6125 -3.8953,-6.34656 -5.2922,-8.29792 -3.0233,-4.22349 -34.9559,-34.65995 -40.8218,-38.90918 -2.2546,-1.63323 -9.1079,-8.55407 -15.2295,-15.37963 -6.1217,-6.82556 -14.9216,-15.62164 -19.5554,-19.54685 -12.5997,-10.67302 -18.4356,-18.48707 -36.1436,-48.39485 -4.1612,-7.02814 -7.7466,-12.59767 -7.9676,-12.37672 -0.2209,0.22094 0.5337,6.64623 1.677,14.27843 1.1433,7.6322 4.0788,27.52001 6.5232,44.19515 2.4445,16.67513 4.7076,30.74406 5.0291,31.26429 1.9781,3.20067 24.2092,10.65522 33.9489,11.38382 7.4833,0.55979 21.2669,3.37081 23.0863,4.70817 0.5975,0.43918 2.9087,1.44147 5.1359,2.22729 7.13,2.51558 22.2825,13.73291 33.6941,24.94353 15.2045,14.93662 20.8771,18.46675 15.9156,9.90447 z m -122.7649,-65.5 c -0.3319,-3.9875 -1.2753,-15.575 -2.0964,-25.75 -0.821,-10.175 -1.7044,-20.525 -1.9631,-23 -0.2587,-2.475 -1.3976,-13.81548 -2.5309,-25.20106 -1.1333,-11.38559 -2.8117,-23.31059 -3.7297,-26.5 -0.918,-3.18942 -1.7563,-8.04894 -1.863,-10.79894 -0.1066,-2.75 -0.2366,-5.42883 -0.2889,-5.95295 -0.052,-0.52412 -1.9209,0.82588 -4.1526,3 -4.9442,4.81672 -13.015,17.1994 -17.0019,26.08551 -1.6205,3.61181 -3.7814,7.75953 -4.8021,9.21718 -1.0207,1.45764 -5.5244,9.76904 -10.0083,18.46978 -4.4839,8.70074 -9.2696,17.46347 -10.6349,19.47274 -2.5658,3.77592 -6.0551,12.98119 -5.2324,13.80388 0.2566,0.25662 1.3835,0.64315 2.5041,0.85897 4.0016,0.77063 8.0977,3.56725 12.3825,8.4541 4.7811,5.45287 17.2154,12.93376 25.6718,15.44504 2.7854,0.82719 7.6777,2.84829 10.8716,4.49133 5.2514,2.70143 10.4192,4.7649 12.6425,5.04804 0.4594,0.0585 0.5637,-3.15612 0.2317,-7.14362 z m 113.1285,1027.46596 c -2.4528,-2.7102 -6.229,-11.9959 -7.6302,-18.7623 -2.1087,-10.1827 1.739,-19.4537 8.0738,-19.4537 1.8653,0 3.1955,0.746 4.012,2.25 1.6563,3.0511 1.3619,11.2903 -0.6611,18.5003 -1.3283,4.7343 -1.4474,6.7399 -0.5846,9.8474 2.2621,8.1475 0.6759,11.9121 -3.2099,7.6183 z m 1.7967,-27.159 c 0.7826,-5.6903 0.01,-9.057 -2.0843,-9.057 -1.8539,0 -3.6427,4.6069 -2.8663,7.3821 1.3004,4.6482 2.7308,7.5676 3.4808,7.1041 0.4346,-0.2687 1.096,-2.7118 1.4698,-5.4292 z M 73.48003,1010.2969 c -0.54268,-1.4252 -0.42782,-1.54 0.5598,-0.5598 0.68342,0.6784 0.99067,1.4853 0.68278,1.7932 -0.30789,0.3078 -0.86705,-0.2472 -1.24258,-1.2334 z M 607.10611,901.25384 c 0.425,-2.20684 2.20351,-2.15881 2.63295,0.0711 0.19702,1.02305 -0.31993,1.6789 -1.32332,1.6789 -1.02996,0 -1.52043,-0.6554 -1.30963,-1.75 z m 656.27019,-93.65516 c -1.5662,-1.14522 -1.9333,-2.99699 -2.2269,-11.23306 -0.1933,-5.42398 -0.068,-12.22382 0.2792,-15.11076 0.5508,-4.58394 0.9601,-5.33163 3.2303,-5.90142 3.5503,-0.89106 6.606,2.80363 9.1614,11.07705 2.9813,9.65232 3.6952,17.8307 1.7008,19.48586 -2.5457,2.11277 -4.6054,-0.33624 -4.6054,-5.47594 0,-4.46668 -1.335,-6.61196 -2.3952,-3.84904 -0.3326,0.86683 -0.6048,3.50914 -0.6048,5.87181 0,5.14335 -1.7779,7.15475 -4.5394,5.1355 z m 5.1436,-20.32401 c -0.3323,-0.33229 -0.5687,0.25834 -0.5253,1.3125 0.048,1.16495 0.285,1.4019 0.6042,0.60417 0.2889,-0.72187 0.2534,-1.58438 -0.079,-1.91667 z M 138.21429,686.04432 c -1.7608,-1.07362 -3.95235,-3.43444 -4.87012,-5.24626 l -1.66867,-3.29422 3.37012,3.7734 c 2.12218,2.37613 5.03646,4.28357 7.87012,5.15113 4.04472,1.23834 4.19648,1.38736 1.5,1.47286 -1.65,0.0523 -4.44065,-0.78328 -6.20145,-1.85691 z m 28.70145,-4.04048 c 0,-0.55 0.61622,-1 1.36937,-1 0.75316,0 3.79066,-1.85588 6.75,-4.12418 l 5.38063,-4.12419 -5.17565,5.12419 c -4.8024,4.75463 -8.32435,6.49953 -8.32435,4.12418 z m -46.86422,-19.10078 c -0.13299,-5.48586 1.22176,-11.4111 3.06361,-13.39922 0.50954,-0.55 0.40364,0.35 -0.23533,2 -0.63898,1.65 -1.50618,6.15 -1.92713,10 l -0.76537,7 -0.13578,-5.60078 z m 61.06422,-1.09922 c -0.66,-0.66 -1.18632,-3.4725 -1.16959,-6.25 0.0361,-5.99639 1.39236,-4.41473 2.31521,2.7 0.67136,5.17591 0.62474,5.32036 -1.14562,3.55 z m -11.8,-26.2 c -4.95042,-4.95042 -4.16314,-6.33745 1.1,-1.93801 2.475,2.06884 4.5,4.11624 4.5,4.54977 0,1.72303 -2.37103,0.61721 -5.6,-2.61176 z M 1270.4948,612.44008 c -0.8601,-0.86006 -1.9861,-1.30272 -2.5023,-0.98369 -0.5162,0.31904 -1.2258,0.11539 -1.5768,-0.45255 -0.351,-0.56794 -1.128,-0.72992 -1.7266,-0.35994 -0.7107,0.43923 -0.8927,-0.0757 -0.5245,-1.48369 0.3585,-1.37104 0.1022,-2.15637 -0.7038,-2.15637 -0.844,0 -1.0917,-0.91914 -0.741,-2.75 0.329,-1.71705 0.7096,-2.18657 1.0135,-1.25 0.2676,0.825 1.5868,2.53142 2.9314,3.79204 2.0494,1.92138 2.698,2.08309 4.0105,1 1.3072,-1.07867 1.48,-1.04432 1.0467,0.20796 -0.2855,0.825 -0.1448,2.5125 0.3126,3.75 0.98,2.65124 0.5963,2.82225 -1.5397,0.68624 z m -27.5511,-3.39014 c -1.2661,-0.80727 -1.2364,-1.0289 0.2124,-1.58487 1.5143,-0.58109 1.5345,-0.87519 0.1995,-2.91265 -1.2502,-1.90801 -1.2692,-2.44533 -0.1204,-3.39876 0.7505,-0.62286 1.6497,-0.84725 1.9983,-0.49864 0.3486,0.3486 1.2072,0.16361 1.908,-0.41109 0.9365,-0.76798 1.7418,-0.41956 3.0386,1.31463 1.6858,2.2545 1.6858,2.39996 0,3.26729 -0.9704,0.49925 -2.2373,0.7359 -2.8154,0.52587 -0.578,-0.21003 -1.478,0.74732 -2,2.12743 -0.7144,1.88909 -1.3128,2.27733 -2.421,1.57079 z M 145.08001,599.55751 c -8.95947,-13.39552 -11.36007,-23.44878 -6.70972,-28.09912 2.98007,-2.98008 5.96822,-3.10384 10.35563,-0.42892 6.42435,3.91682 7.95487,12.96074 3.55991,21.03573 -2.58008,4.74044 -2.59868,4.91007 -0.98172,8.95124 1.5862,3.96432 1.45948,5.9874 -0.37505,5.9874 -0.47775,0 -3.10983,-3.35085 -5.84905,-7.44633 z m 6.88462,-12.73525 c 2.0388,-7.5715 -2.95393,-15.25705 -9.49564,-14.6171 -2.72151,0.26623 -3.08618,0.69277 -3.35629,3.92573 -0.16667,1.99488 0.35913,5.14488 1.16843,7 0.86885,1.99161 1.50487,2.65627 1.55304,1.62295 0.11587,-2.48589 3.08157,-2.1975 3.08157,0.29966 0,1.12731 0.70302,3.40916 1.56227,5.07076 1.26915,2.45427 1.83068,2.79835 2.99283,1.83385 0.7868,-0.65298 1.90901,-2.96412 2.49379,-5.13585 z m 4.31274,18.68158 c -0.71526,-1.86394 0.2261,-4.5 1.60699,-4.5 0.56726,0 1.03138,0.7063 1.03138,1.56955 0,1.0557 0.73662,1.46493 2.25,1.25 3.282,-0.46612 2.96262,-4.02077 -0.46972,-5.22786 -2.11252,-0.74293 -3.13476,-0.58087 -4.57874,0.72592 -2.38946,2.16243 -3.29722,2.13818 -2.53042,-0.0676 1.57061,-4.51807 8.34058,-5.75104 12.14032,-2.21104 1.20371,1.12142 2.18856,2.26877 2.18856,2.54966 0,1.5404 -3.15746,6.25782 -4.5448,6.7902 -2.88504,1.10709 -6.50353,0.6588 -7.09357,-0.87882 z m 964.63833,-35.5 c 0,-0.55 0.1984,-1 0.441,-1 0.2425,0 0.7191,0.45 1.059,1 0.3399,0.55 0.1415,1 -0.441,1 -0.5824,0 -1.059,-0.45 -1.059,-1 z m -76.879,-56.54512 c -2.9273,-1.27072 -10.1219,-5.34457 -17.9029,-10.13724 -1.255,-0.77303 -2.0293,-1.81409 -1.7207,-2.31348 0.7413,-1.19941 8.4119,2.14206 14.3008,6.22974 2.586,1.79501 6.3893,4.0297 8.4518,4.96598 2.0625,0.93629 3.75,1.94934 3.75,2.25123 0,0.99434 -3.4417,0.4959 -6.879,-0.99623 z m 50.5139,-9.52746 c -2.1377,-1.68147 -2.6349,-2.90806 -2.6349,-6.5 0,-4.96594 -0.1108,-5.05614 -3.4912,-2.84122 -3.0263,1.98289 -4.938,1.08433 -3.4819,-1.63654 1.2099,-2.26073 6.021,-4.94966 8.8561,-4.94966 2.3136,0 3.2869,2.408 2.9564,7.31494 -0.3031,4.50064 1.4606,6.5495 6.3049,7.32413 3.1435,0.50266 3.6677,0.88251 2.7477,1.99105 -1.7354,2.09108 -8.22,1.68629 -11.2571,-0.7027 z m -24.8334,-3.52345 c -4.8016,-2.51583 -7.3015,-8.02023 -7.3015,-16.07704 0,-8.21296 2.0625,-12.16488 7.0443,-13.49721 3.6086,-0.9651 8.9593,1.48348 11.8322,5.41467 4.7994,6.56735 0.1157,22.35034 -7.4164,24.99162 -0.847,0.297 -2.7184,-0.0774 -4.1586,-0.83204 z m 6.6377,-6.79035 c 2.893,-3.87486 2.8911,-12.72773 0,-15.62212 -2.6828,-2.68287 -7.292,-3.05654 -8.7952,-0.71303 -0.8811,1.37372 -0.8327,1.97062 0.2125,2.62282 1.0838,0.6762 1.1135,1.29233 0.1495,3.0937 -1.5024,2.80717 -0.6647,7.26651 2.0921,11.13817 2.4259,3.40689 3.4771,3.3208 6.3444,-0.51954 z m -76.0701,-3.86362 c -2.22606,-2.3375 -6.14476,-6.97801 -8.70816,-10.31224 -4.402,-5.7255 -5.6495,-8.43776 -3.8809,-8.43776 1.0354,0 6.2117,5.62593 9.2008,10 3.70056,5.41545 8.11546,10.37717 10.42326,11.71456 2.045,1.18507 2.0342,1.21543 -0.4459,1.25 -1.7166,0.0239 -3.8558,-1.34439 -6.5891,-4.21456 z m 339.8719,-14 c -1.5374,-1.91435 -6.664,-12.16146 -6.4662,-12.92459 0.096,-0.37103 -0.4839,-2.84603 -1.2891,-5.5 -1.9112,-6.29911 -1.8594,-7.32541 0.3696,-7.32541 1.3938,0 2.2037,1.30619 3.2554,5.25 1.1425,4.28423 1.8404,5.31238 3.7938,5.58909 2.3261,0.32952 2.3777,0.1884 1.827,-5 -0.3117,-2.9365 -0.877,-6.12659 -1.2561,-7.08909 -0.5084,-1.29058 -0.1958,-1.75 1.1908,-1.75 1.4361,0 2.4022,1.59405 4.091,6.75 3.4708,10.59649 5.4761,18.35004 4.8959,18.93021 -0.6062,0.60626 -4.5828,-3.33204 -6.2995,-6.23899 -0.9074,-1.53635 -1.4116,-1.68721 -2.4179,-0.72332 -1.212,1.16094 -0.6844,4.25188 1.7126,10.0321 0.2851,0.6875 -0.139,1.25 -0.9425,1.25 -0.8035,0 -1.9127,-0.5625 -2.4648,-1.25 z M 70.89674,468.52673 c 1.44013,-1.73524 2.019,-1.91584 2.019,-0.62988 0,0.49116 -0.73865,1.17646 -1.64144,1.52289 -1.37248,0.52667 -1.43434,0.38034 -0.37756,-0.89301 z m 897.2519,-21.45089 c -7.3552,-11.58558 -8.4651,-14.37515 -8.0454,-20.22054 0.3912,-5.44791 2.0498,-5.63405 3.1317,-0.35146 0.4506,2.2 1.7469,5.8 2.8808,8 6.1089,11.85292 7.6197,15.3406 8.1219,18.75 0.3038,2.0625 0.4682,3.73734 0.3652,3.72186 -0.1029,-0.0155 -3.0073,-4.47041 -6.4542,-9.89986 z m -21.1638,-55.03418 c -2.7065,-7.24739 -3.2408,-9.89948 -2.8382,-14.08945 0.4634,-4.82263 2.1233,-7.46554 3.9714,-6.32337 0.4387,0.27117 0.7977,2.83195 0.7977,5.69062 0,2.85867 0.4379,6.72443 0.9731,8.59058 1.4548,5.07247 2.0999,12.42858 1.2125,13.82667 -0.488,0.76893 -2.0371,-2.12677 -4.1165,-7.69505 z m -2.4806,-45.54104 c -1.3489,-5.37455 -0.7343,-25.5416 0.9312,-30.55595 2.9446,-8.86554 6.0224,-7.75943 4.43,1.59208 -0.5589,3.2819 -1.2549,11.14209 -1.5468,17.46709 -0.2919,6.325 -0.7128,12.0625 -0.9354,12.75 -0.6725,2.07718 -2.2112,1.40739 -2.879,-1.25322 z m 4.0782,-53.16345 c -1.5672,-1.56712 -0.1277,-13.4847 2.3955,-19.83333 0.4371,-1.1 1.7444,-4.86446 2.9049,-8.36546 3.6026,-10.86795 7.527,-16.97377 9.5862,-14.91461 0.3918,0.39184 -0.9272,4.96787 -3.3955,11.78007 -0.2989,0.825 -0.59,1.95 -0.6469,2.5 -0.057,0.55 -0.6002,1.9 -1.2075,3 -0.6073,1.1 -2.7318,7.37032 -4.7212,13.93405 -3.8912,12.83884 -3.916,12.89884 -4.9155,11.89928 z m -545.6667,-47.33333 c 0,-0.55 0.45,-1 1,-1 0.55,0 1,0.45 1,1 0,0.55 -0.45,1 -1,1 -0.55,0 -1,-0.45 -1,-1 z m -387,-8.55902 c 0,-0.85746 0.45,-1.2809 1,-0.94098 0.55,0.33992 1,1.04148 1,1.55902 0,0.51754 -0.45,0.94098 -1,0.94098 -0.55,0 -1,-0.70156 -1,-1.55902 z m 949.0945,-3.19098 c 1.8185,-10.85449 8.7046,-24.98869 14.7963,-30.37074 6.4449,-5.69408 7.8635,-4.77706 2.6023,1.68225 -4.9,6.01593 -9.5625,14.73774 -13.9997,26.18849 -1.5451,3.9875 -3.1211,7.25 -3.502,7.25 -0.381,0 -0.3346,-2.1375 0.1031,-4.75 z m 32.577,-62 c 2.2681,-8.8022 13.19996,-26.17095 16.50496,-26.2234 1.252,-0.0199 0.2854,2.06247 -3.8171,8.2234 -3.0216,4.5375 -7.151,11.72528 -9.1766,15.97286 -2.02546,4.24757 -3.97756,7.73507 -4.33786,7.75 -0.3603,0.0149 0.012,-2.56036 0.8266,-5.72286 z m 165.98876,-10 c -0.6221,-1.01948 -2.4462,-8.01368 -3.1332,-12.01383 -0.4743,-2.76186 -0.1879,-3.4336 1.8621,-4.36765 2.1151,-0.96371 3.03,-0.64003 7.2082,2.55027 6.8857,5.25763 7.9072,4.6827 7.8816,-4.43609 -0.012,-4.11548 -0.2254,-9.47395 -0.475,-11.90771 -0.3052,-2.97479 -0.048,-4.56038 0.7853,-4.83807 3.6493,-1.21645 6.9836,20.40836 3.8776,25.14871 -2.3507,3.58764 -4.9729,4.01496 -10.2669,1.67315 -2.5598,-1.13233 -4.7742,-2.05878 -4.9208,-2.05878 -0.1466,0 0.1548,1.87541 0.6698,4.16757 0.515,2.29216 0.7063,4.76716 0.4251,5.5 -0.5487,1.42985 -3.1595,1.81839 -3.9138,0.58243 z m -291.10052,-8.868 c -0.84415,-3.36337 -0.43855,-3.68585 2.25925,-1.79623 1.9114,1.3388 2.01074,1.72736 0.7611,2.977 -1.95858,1.95858 -2.26222,1.83987 -3.02035,-1.18077 z m 157.53132,-32.56057 c 2.481,-4.86316 18.5706,-20.82143 20.9928,-20.82143 0.9688,0 -2.2056,3.77779 -7.7105,9.17623 -5.1464,5.04693 -10.3733,10.66885 -11.6153,12.49317 -3.1776,4.66758 -4.2123,4.14126 -1.667,-0.84797 z"
     id="path3100"
     style="fill:#000000" />
</svg>
