<?xml version="1.0" encoding="UTF-8" standalone="no"?>
<!-- Created with Inkscape (http://www.inkscape.org/) -->

<svg
   xmlns:dc="http://purl.org/dc/elements/1.1/"
   xmlns:cc="http://creativecommons.org/ns#"
   xmlns:rdf="http://www.w3.org/1999/02/22-rdf-syntax-ns#"
   xmlns:svg="http://www.w3.org/2000/svg"
   xmlns="http://www.w3.org/2000/svg"
   version="1.1"
   width="1328.2476"
   height="1636.9758"
   id="svg2">
  <metadata
     id="metadata8">
    <rdf:RDF>
      <cc:Work
         rdf:about="">
        <dc:format>image/svg+xml</dc:format>
        <dc:type
           rdf:resource="http://purl.org/dc/dcmitype/StillImage" />
        <dc:title></dc:title>
      </cc:Work>
    </rdf:RDF>
  </metadata>
  <defs
     id="defs6" />
  <path
     d="m 749.03042,1636.525 c 0,-1.104 9.5647,-4.6862 20.1386,-7.5424 17.4448,-4.7122 22.6082,-6.827 32.8614,-13.4593 5.6411,-3.6489 14.7475,-7.4683 17.8809,-7.4996 1.3095,-0.013 6.9949,-2.277 12.6342,-5.0311 5.6393,-2.754 13.5679,-6.0623 17.6191,-7.3518 8.7829,-2.7955 15.7746,-6.3294 29.8658,-15.0956 5.775,-3.5927 12.975,-7.8495 16,-9.4596 3.025,-1.6101 8.425,-4.9901 12,-7.511 3.575,-2.521 10.8646,-7.5003 16.1991,-11.065 5.3346,-3.5648 11.2457,-7.8392 13.1358,-9.4988 1.8902,-1.6596 5.1202,-3.7208 7.1779,-4.5806 2.0576,-0.8597 7.1715,-3.9321 11.3642,-6.8274 4.1926,-2.8954 10.098,-6.2938 13.123,-7.5521 3.025,-1.2583 8.425,-4.3309 12,-6.828 3.575,-2.4971 9.1797,-5.5964 12.4549,-6.8874 3.2752,-1.291 7.55018,-3.441 9.49998,-4.7778 1.9498,-1.3368 5.9037,-3.351 8.7865,-4.476 2.8827,-1.125 7.0597,-3.1934 9.2821,-4.5963 6.3245,-3.9925 23.9873,-11.1996 29.1452,-11.8923 2.5678,-0.3449 6.3049,-1.3106 8.3046,-2.1462 1.9998,-0.8356 5.7865,-1.927 8.4149,-2.4255 3.1448,-0.5964 9.1118,-3.5762 17.4492,-8.7138 6.9686,-4.2941 14.4767,-8.8582 16.6847,-10.1424 3.5959,-2.0916 7.823,-7.6532 6.6831,-8.7931 -0.2432,-0.2432 -2.9178,0.484 -5.9436,1.6161 -4.0034,1.4979 -7.0593,3.6917 -11.2229,8.0567 -4.9021,5.1394 -10.0107,8.9553 -11.989,8.9553 -1.4124,0 -0.3196,-3.2039 1.6235,-4.7598 1.1952,-0.9571 5.3611,-4.8902 9.2576,-8.7402 6.5613,-6.4831 7.8224,-7.2585 17.0768,-10.5 5.9677,-2.0903 11.1598,-4.6076 12.8907,-6.25 1.5941,-1.5125 3.4908,-2.75 4.2148,-2.75 0.7241,0 1.8186,-0.9381 2.4322,-2.0847 0.6136,-1.1465 2.5778,-2.6955 4.3648,-3.4422 1.787,-0.7466 3.8309,-2.0585 4.542,-2.9153 0.711,-0.8568 1.8725,-1.5578 2.5809,-1.5578 0.7085,0 3.4659,-2.197 6.1276,-4.8822 2.6617,-2.6852 6.2987,-5.6201 8.0823,-6.522 2.6232,-1.3265 11.5664,-12.3015 15.4317,-18.9376 1.7975,-3.0862 10.7888,-23.6382 11.8814,-27.1582 0.6828,-2.2 2.5395,-6.475 4.1259,-9.5 l 2.8844,-5.5 -0.6593,5 c -0.3626,2.75 -1.0549,5.499 -1.5385,6.1089 -0.9139,1.1526 -3.8387,10.1544 -3.8577,11.8726 -0.01,0.5398 1.4517,-1.0832 3.2392,-3.6068 1.7875,-2.5235 5.3875,-7.4022 8,-10.8415 5.0409,-6.6362 4.7937,-5.6331 5.303,-21.5169 0.1056,-3.2911 0.4919,-10.7241 0.8585,-16.5178 0.6422,-10.149 0.5578,-10.7979 -2.3086,-17.749 -1.6363,-3.9681 -3.2675,-9.3601 -3.6249,-11.9821 -0.3573,-2.6221 -1.257,-6.5674 -1.9992,-8.7674 -0.7422,-2.2 -1.6371,-6.9112 -1.9886,-10.4693 -0.3515,-3.5582 -1.6886,-8.7332 -2.9712,-11.5 -1.2827,-2.7669 -2.6485,-6.555 -3.0352,-8.418 -0.8494,-4.0924 -4.2144,-11.512 -7.0808,-15.6127 -1.1534,-1.65 -2.5855,-4.4424 -3.1825,-6.2053 -1.3517,-3.9921 -8.2437,-14.2981 -13.644,-20.4029 -5.1775,-5.8529 -11.816,-22.4949 -14.5794,-36.5489 -3.5707,-18.1599 -2.5501,-24.1809 5.6308,-33.2211 8.0261,-8.8691 17.4229,-14.8245 25.3721,-16.08 3.575,-0.5647 8.3,-1.0303 10.5,-1.0348 2.2,0 6.3332,-0.8948 9.1848,-1.9787 2.8517,-1.0838 8.9267,-2.2624 13.5,-2.6189 6.7449,-0.5259 9.1816,-1.1924 12.9027,-3.5289 2.5232,-1.5843 5.024,-2.8805 5.5574,-2.8805 0.5334,0 2.3922,-3.0375 4.1307,-6.75 1.7385,-3.7125 4.6374,-9.4211 6.4418,-12.6858 3.0652,-5.5454 3.281,-6.5647 3.2818,-15.5 4e-4,-5.2603 -0.6192,-12.3577 -1.3769,-15.7721 l -1.3777,-6.2079 -4.1223,-0.5481 c -2.2673,-0.3015 -10.6473,-1.0019 -18.6223,-1.5566 -20.3536,-1.4155 -26.1888,-1.872 -45.5,-3.5589 -9.35,-0.8167 -19.925,-1.7034 -23.5,-1.9702 -3.575,-0.2669 -8.3,-0.6986 -10.5,-0.9593 -5.352,-0.6341 -28.8633,-2.6979 -57.5,-5.0473 -3.575,-0.2932 -10.55,-0.9475 -15.5,-1.454 -4.95,-0.5064 -15.075,-1.4026 -22.5,-1.9915 -7.425,-0.589 -19.8,-1.7057 -27.5,-2.4816 -13.27618,-1.3379 -22.05158,-2.1069 -34.49998,-3.0232 -3.025,-0.2227 -9.2125,-0.6966 -13.75,-1.0533 l -8.25,-0.6484 0.017,4.3541 c 0.01,2.3948 0.4385,8.4041 0.9533,13.3541 1.7667,16.9882 5.3229,58.2779 6.9762,81 0.5603,7.7 1.4854,19.4 2.0558,26 3.7588,43.4951 5.1812,60.0385 6.4917,75.5 0.8158,9.625 1.942,22.675 2.5027,29 1.9115,21.5602 4.6268,56.5846 5.5432,71.5 0.3041,4.95 0.9418,12.375 1.4172,16.5 0.4753,4.125 0.9568,9.975 1.07,13 0.1132,3.025 0.3436,7.3 0.512,9.5 1.4188,18.5341 1.6524,26.5 0.7771,26.5 -0.5408,0 -0.9929,-0.5625 -1.0049,-1.25 -0.012,-0.6875 -0.307,-3.725 -0.6556,-6.75 -0.3487,-3.025 -1.3079,-14.05 -2.1316,-24.5 -0.8237,-10.45 -1.9384,-23.275 -2.4772,-28.5 -0.8444,-8.1885 -1.8144,-19.404 -3.5026,-40.5 -0.2201,-2.75 -0.6573,-7.925 -0.9716,-11.5 -0.3143,-3.575 -0.7927,-9.2 -1.0631,-12.5 -0.2705,-3.3 -0.9348,-10.5 -1.4764,-16 -0.5416,-5.5 -1.679,-18.775 -2.5275,-29.5 -1.2783,-16.1558 -10.2363,-124.7981 -11.9971,-145.5 -0.2807,-3.3 -1.1816,-14.1 -2.002,-24 -0.8203,-9.9 -1.7329,-19.8144 -2.0278,-22.0321 l -0.5363,-4.0321 -22.2214,-2.1919 c -12.2218,-1.2056 -30.3214,-2.901 -40.2214,-3.7676 -9.9,-0.8666 -24.975,-2.2629 -33.5,-3.1028 -8.525,-0.8399 -18.2,-1.7218 -21.5,-1.9597 -8.9909,-0.6481 -40.8154,-3.2699 -59.5,-4.9017 -9.075,-0.7926 -19.875,-1.7124 -24,-2.044 -4.125,-0.3316 -13.8,-1.2379 -21.5,-2.0139 -7.7,-0.7761 -20.75,-1.868 -29,-2.4265 -13.27795,-0.8988 -27.21324,-2.0328 -43,-3.4991 -2.75,-0.2554 -8.375,-0.7128 -12.5,-1.0163 -11.47863,-0.8448 -28.78186,-2.3075 -47,-3.9729 -28.31224,-2.5883 -33.62081,-2.851 -35.56964,-1.7604 -1.35473,0.7582 -3.04042,0.558 -6.38549,-0.7581 -2.72502,-1.0722 -10.15075,-2.27003 -18.54487,-2.9914 -7.7,-0.66173 -18.5,-1.61956 -24,-2.12852 -22.34088,-2.06737 -25.20758,-2.18314 -25.91018,-1.04631 -0.38107,0.61659 -0.24044,5.51403 0.31252,10.88323 0.55296,5.3691 1.30631,13.5871 1.67412,18.2621 0.76421,9.7135 0.80883,10.2015 1.73721,19 0.37721,3.575 0.90856,9.425 1.18077,13 1.28231,16.8413 3.63269,42.654 4.00642,44 0.22907,0.825 0.68749,4.875 1.01872,9 0.33123,4.125 1.24322,14.7 2.02665,23.5 0.78342,8.8 1.86944,21.85 2.41337,29 0.54392,7.15 1.44923,18.85 2.01179,26 0.56256,7.15 1.26843,16.15 1.56859,20 0.74574,9.5651 3.20531,37.7162 4.4122,50.5 0.5452,5.775 1.25399,14.0562 1.57509,18.4027 0.32109,4.3465 0.84006,9.184 1.15327,10.75 0.37942,1.8971 0.15833,2.8473 -0.66253,2.8473 -0.67759,0 -0.98412,-0.6459 -0.68118,-1.4354 0.30295,-0.7895 0.1603,-1.577 -0.31699,-1.75 -0.47729,-0.173 -1.08129,-3.2396 -1.34222,-6.8146 -0.26093,-3.575 -0.57757,-6.5 -0.70364,-6.5 -0.37106,0 -0.80407,-3.5054 -1.42055,-11.5 -0.31809,-4.125 -0.77199,-8.175 -1.00867,-9 -0.23668,-0.825 -0.69534,-4.2 -1.01925,-7.5 -0.32391,-3.3 -1.236,-12.075 -2.02688,-19.5 -0.79087,-7.425 -2.36179,-24.3 -3.49093,-37.5 -1.12915,-13.2 -2.72561,-31.875 -3.5477,-41.5 -0.8221,-9.625 -2.8075,-32.35 -4.41202,-50.5 -1.60451,-18.15 -3.21287,-37.05 -3.57414,-42 -0.76799,-10.523 -0.69976,-9.6752 -3.03771,-37.7444 -0.99614,-11.9594 -2.09117,-22.19744 -2.43342,-22.75121 -0.34224,-0.55376 -8.47036,-1.68671 -18.06249,-2.51767 -19.96987,-1.72996 -36.63452,-3.28723 -42.44022,-3.96593 -2.2,-0.25718 -9.625,-0.91794 -16.5,-1.46835 -20.6287,-1.65153 -47.3,-4.04352 -50.5,-4.52904 -1.65,-0.25035 -7.5,-0.71384 -13,-1.02998 -5.5,-0.31614 -11.125,-0.75723 -12.5,-0.9802 -1.375,-0.22298 -6.55,-0.69872 -11.5,-1.05721 -4.95,-0.35849 -9.225,-0.78268 -9.5,-0.94264 -0.275,-0.15997 -5,-0.59688 -10.5,-0.97093 -5.5,-0.37405 -14.5,-1.10802 -20,-1.63105 -5.5,-0.52304 -17.2,-1.59753 -26,-2.38777 -8.8,-0.79024 -25.9,-2.333 -38,-3.42837 -38.65636,-3.49941 -38.39969,-3.48689 -41.16455,-2.00719 -2.20554,1.18037 -2.69185,1.14503 -3.72721,-0.27091 -0.91798,-1.25542 -4.84614,-1.98774 -17.14948,-3.19718 -22.39669,-2.20162 -23.45835,-2.23867 -24.31755,-0.84845 -0.41806,0.67643 -0.43814,4.49206 -0.0446,8.47918 0.39351,3.98711 0.97368,10.6243 1.28925,14.7493 0.31558,4.125 0.86848,10.9875 1.22868,15.25 0.4276,5.0602 0.29852,7.75 -0.37194,7.75 -0.592,0 -1.31105,-4.3405 -1.698,-10.25 -0.36914,-5.6375 -1.09268,-13.83819 -1.60787,-18.22377 -0.51518,-4.38557 -0.94359,-10.01057 -0.95201,-12.5 -0.008,-2.48942 -0.40286,-5.13789 -0.87654,-5.88547 -0.58711,-0.92663 -5.43594,-1.79159 -15.23468,-2.71763 -25.700326,-2.42884 -27.947346,-2.68259 -27.522006,-3.10792 0.2308,-0.2308 9.06845,0.27885 19.639206,1.13257 10.57104,0.85372 20.12576,1.55222 21.233,1.55222 1.917,0 1.98003,-0.41792 1.31957,-8.75 -0.38148,-4.8125 -0.87172,-11 -1.08942,-13.75 -0.21771,-2.75 -1.28113,-15.575 -2.36317,-28.5 -1.08204,-12.925 -2.25521,-27.55 -2.60704,-32.5 -0.35183,-4.95 -0.81153,-10.35 -1.02154,-12 -0.33449,-2.62799 -1.29374,-14.25398 -3.01158,-36.5 -0.27607,-3.575 -0.70745,-8.3 -0.95864,-10.5 -0.25119,-2.2 -0.71084,-7.15 -1.02146,-11 -1.65081,-20.46137 -2.37449,-24.84874 -4.44207,-26.93015 -1.72833,-1.73989 -4.96316,-2.42014 -20.292066,-4.26721 -14.67988,-1.76887 -16.28593,-2.09617 -8.23598,-1.67842 9.70225,0.50349 11.36295,0.64113 22.007986,1.82398 4.42662,0.49188 5.17523,0.29501 6.44858,-1.69586 C 109.28434,770.16044 108.20997,754 105.67383,754 c -0.65873,0 -2.67575,-1.35 -4.48227,-3 -1.806516,-1.65 -3.706796,-3 -4.222856,-3 -1.70537,0 -0.97427,-2.91037 0.99598,-3.96482 3.198696,-1.71189 6.057156,-1.2179 7.029436,1.21482 0.62768,1.57049 0.89506,-0.56898 0.88534,-7.08422 -0.008,-5.13383 0.24427,-9.59242 0.55984,-9.90799 0.31557,-0.31558 0.16971,-1.06518 -0.32414,-1.66578 -0.49385,-0.60061 -1.12305,-4.16983 -1.39823,-7.9316 -0.44233,-6.04683 -0.33902,-6.60931 0.89131,-4.85277 0.7654,1.09276 1.34251,3.72057 1.28249,5.8396 -0.11437,4.03696 1.74743,22.87322 2.72828,27.60276 0.31368,1.5125 1.20957,2.75 1.99087,2.75 1.8464,0 1.7999,1.49138 -0.13874,4.45013 -1.19929,1.83034 -1.40354,3.75635 -0.88469,8.34238 0.71888,6.35403 0.95485,6.93102 3.72329,9.10426 1.56402,1.22777 2.09878,1.10677 4.41959,-1 l 2.64028,-2.39677 -1.66959,2.47251 c -0.91828,1.35987 -1.6696,3.23999 -1.6696,4.17804 0,1.90112 -0.15292,1.87586 26.5,4.37804 8.8,0.82615 17.575,1.70542 19.5,1.95393 1.925,0.24852 6.425,0.71928 10,1.04614 3.575,0.32687 10.55,1.0141 15.5,1.52718 4.95,0.51308 23.625,2.27401 41.5,3.91317 17.875,1.63916 34.975,3.2252 38,3.52454 3.025,0.29934 19.675,1.87428 37,3.49986 17.325,1.62559 38.475,3.62256 47,4.43772 8.525,0.81515 20.0882,1.78928 25.696,2.16472 11.35088,0.75994 10.39382,1.30236 11.63786,-6.59585 0.21658,-1.375 0.45506,-0.38906 0.52996,2.19098 0.0749,2.58004 0.48364,4.90573 0.90831,5.16819 0.42467,0.26246 8.18717,1.2006 17.25,2.08475 9.06283,0.88416 18.95287,1.84957 21.97787,2.14536 3.025,0.29578 12.1375,1.08897 20.25,1.76264 l 14.75,1.22484 -8.4e-4,-3.53838 c -8.3e-4,-3.54965 -1.44383,-20.9633 -2.5513,-30.78838 -0.4663,-4.13683 -0.96772,-5.25 -2.36483,-5.25 -2.59989,0 -5.08303,-3.22736 -5.08303,-6.60648 0,-4.03424 -4.46634,-17.38375 -8.48781,-25.36931 -1.82339,-3.62077 -5.79631,-13.99495 -8.82871,-23.05372 -4.87825,-14.57291 -6.42576,-19.98718 -9.70949,-33.97049 -2.58681,-11.01558 -4.89514,-23.77368 -5.97072,-33 -0.67323,-5.775 -1.57891,-12.975 -2.01262,-16 -1.39496,-9.72945 -0.0235,-34.92598 2.57442,-47.29754 1.73033,-8.23998 7.60884,-22.75284 11.03636,-27.24655 1.376,-1.80404 4.30653,-4.00216 6.51227,-4.88473 2.98118,-1.19283 3.88353,-2.0495 3.51591,-3.33792 -0.27199,-0.95329 -0.79883,-6.45826 -1.17076,-12.23326 -0.37192,-5.775 -0.82812,-10.75539 -1.01378,-11.06753 -0.18566,-0.31214 -0.59083,-4.58714 -0.9004,-9.5 -0.58117,-9.2233 -0.79646,-11.96981 -2.46391,-31.43247 -0.5419,-6.325 -1.50216,-17.8 -2.13393,-25.5 -2.24668,-27.38253 -3.72149,-42.60799 -4.17072,-43.05722 -1.1191,-1.11911 -3.71478,12.15397 -4.5892,23.46703 -0.82795,10.71181 -1.24222,12.6274 -3.0277,14 -1.42864,1.09829 -2.5552,3.96888 -3.64185,9.27984 -0.86534,4.22931 -2.23298,8.95431 -3.03919,10.5 -0.80622,1.54569 -1.46862,3.63022 -1.47201,4.63229 -0.008,2.34345 -5.2009,18.5645 -9.71747,30.35396 -3.46657,9.04868 -9.44642,19.62907 -16.28869,28.82024 -5.20849,6.99652 -19.48103,20.64137 -28,26.76859 -4.125,2.96689 -10.43209,7.62322 -14.01575,10.34741 -3.58366,2.7242 -10.55866,7.13312 -15.5,9.79762 -8.45152,4.55728 -19.37269,11.28651 -20.48425,12.62166 -0.48683,0.58475 -8.25914,5.90476 -10.73855,7.35034 -0.78505,0.45772 -1.04743,0.24542 -0.71659,-0.57982 0.67292,-1.6785 17.91713,-15.19974 19.92756,-15.62526 0.84017,-0.17783 1.52758,-0.68574 1.52758,-1.12868 0,-0.44295 1.4625,-1.39962 3.25,-2.12594 4.30541,-1.74943 19.33292,-10.36574 21.05867,-12.07439 0.74864,-0.74122 2.61049,-2.24767 4.13744,-3.34767 13.31039,-9.58867 31.35924,-25.92995 34.79157,-31.5 1.18621,-1.925 2.40879,-3.725 2.71685,-4 1.84844,-1.6501 9.1355,-13.75316 10.1332,-16.83021 0.65443,-2.01839 2.01045,-4.84043 3.01338,-6.27122 1.00292,-1.43078 2.74996,-5.97843 3.88231,-10.10587 1.13235,-4.12745 2.9617,-9.37321 4.06523,-11.65725 1.10352,-2.28404 2.44951,-6.48925 2.99108,-9.34492 0.54156,-2.85567 1.61187,-7.46426 2.37846,-10.24133 2.50089,-9.05976 4.59878,-18.99305 4.59021,-21.7341 -0.005,-1.4767 0.46326,-3.92545 1.03972,-5.44168 2.13484,-5.61505 7.10544,-33.18097 7.64064,-42.37342 l 0.55311,-9.5 -5.12093,4.96241 c -6.3011,6.10603 -6.52578,4.96874 -0.57532,-2.91204 6.17469,-8.17773 5.16333,-8.58359 -12.95723,-5.19982 -7.74862,1.44695 -22.41339,4.00608 -32.58839,5.68695 -10.175,1.68087 -23.225,3.95746 -29,5.05909 -5.775,1.10163 -12.975,2.41632 -16,2.92153 -16.62766,2.777 -37.59619,7.35211 -38.23469,8.3424 -0.40408,0.62671 -0.74158,5.21723 -0.75,10.20114 -0.0162,9.59277 -2.56177,21.66884 -5.98005,28.36923 -1.8523,3.63081 -15.82556,17.0739 -20.89079,20.09816 -2.30264,1.37483 -10.94284,4.65317 -32.14447,12.19655 -3.99462,1.42126 -9.19502,2.09799 -19,2.47248 -12.18034,0.46522 -14.06107,0.30303 -19.23966,-1.65921 -8.01606,-3.03739 -13.23834,-8.60902 -15.77892,-16.83444 -1.78372,-5.77503 -1.88,-7.4064 -0.91934,-15.5775 0.99711,-8.48117 2.2066,-14.55757 3.64241,-18.29923 0.69709,-1.81658 -0.97596,-1.66196 -18.20449,1.68248 -16.22576,3.14977 -15.6712,2.79551 -19.40597,12.39688 -1.77522,4.56372 -3.35463,8.9266 -3.5098,9.6953 -0.15518,0.7687 -0.54431,2.07264 -0.86472,2.89764 -0.32042,0.825 -1.2991,4.0811 -2.17485,7.23579 -1.47258,5.30466 -9.5472,22.87033 -21.72649,47.26421 -5.05366,10.12196 -11.73656,20.64261 -16.13314,25.39779 -1.32328,1.43122 -3.593746,4.39417 -5.045486,6.58434 -3.17993,4.7974 -3.30618,8.29708 -1.19281,33.06367 1.86851,21.89703 2.45436,29.2275 3.55275,44.4542 0.991996,13.7517 3.754416,48.7545 4.878556,61.81651 0.39366,4.57409 0.414,8.503 0.0452,8.73093 -0.98073,0.60612 -2.74402,-9.68531 -3.44989,-20.13528 -0.33762,-4.99831 -0.765716,-10.39831 -0.951336,-12 -0.18561,-1.60169 -0.63442,-7.18716 -0.99736,-12.41216 -0.72082,-10.37736 -1.03937,-14.24502 -2.47089,-30 -1.00067,-11.01322 -1.63494,-19.53111 -2.56899,-34.5 -0.30888,-4.95 -0.84108,-11.025 -1.18268,-13.5 -0.71728,-5.19709 -1.0628,-8.57211 -1.2029,-11.75 -0.16759,-3.80159 -1.61136,-2.56944 -6.70338,5.72089 -4.61684,7.5167 -6.39581,9.44748 -6.39581,6.94159 0,-1.27342 6.18158,-12.77141 9.73462,-18.10677 2.36799,-3.55587 2.43803,-4.13667 1.86909,-15.5 -0.3251,-6.49314 -0.81536,-14.05571 -1.08948,-16.80571 -0.27411,-2.75 -0.7149,-7.925 -0.97952,-11.5 -0.26462,-3.575 -0.91825,-10.775 -1.4525,-16 -0.53425,-5.225 -1.25299,-13.325 -1.5972,-18 -1.01541,-13.7913 -2.41557,-24.33056 -3.35749,-25.27248 -0.50572,-0.50572 -4.43707,-0.20884 -9.2534,0.69878 -46.13297,8.69352 -70.9021896,12.87896 -71.67046964,12.11068 -1.27237996,-1.27238 2.08467004,-2.14319 24.06638964,-6.2428 12.77648,-2.38282 26.82996,-5.01313 31.22996,-5.84513 4.4,-0.832 11.77755,-2.18705 16.39456,-3.01122 4.61701,-0.82417 8.80867,-1.75442 9.3148,-2.06722 1.06977,-0.66115 0.13585,-31.48887 -0.97924,-32.32388 -0.95634,-0.71613 -1.12642,-20.10067 -0.17119,-19.51031 0.40255,0.24879 1.03772,4.16738 1.41147,8.70796 0.37376,4.54059 1.32082,15.1904 2.10458,23.66623 0.78376,8.47584 1.42502,16.01334 1.42502,16.75 0,1.81944 3.35813,1.69608 14.84292,-0.54525 5.311386,-1.03656 17.688506,-3.39906 27.504696,-5.25 13.32589,-2.51274 18.07644,-3.79244 18.75078,-5.05109 0.49675,-0.92715 1.34848,-5.87715 1.89274,-11 1.66999,-15.71875 6.36626,-28.0748 13.61674,-35.82615 3.76968,-4.03009 5.91926,-5.37944 11.13704,-6.99105 9.01615,-2.78481 15.51468,-2.62102 20.88532,0.52639 4.25156,2.49158 9.42447,8.8325 10.80649,13.24652 0.91823,2.93273 -1.19156,9.17602 -7.34322,21.73002 -3.387,6.91203 -4.50008,10.09343 -3.60456,10.30258 0.71257,0.16641 5.28156,-0.41469 10.15332,-1.29134 4.87175,-0.87665 15.38273,-2.71642 23.35773,-4.08836 7.975,-1.37195 15.625,-2.70839 17,-2.96988 1.375,-0.26148 6.55,-1.1778 11.5,-2.03625 4.95,-0.85846 14.30798,-2.60452 20.7955,-3.88015 l 11.7955,-2.31933 4.89812,-5.10863 C 295.7135,398.29889 298.58052,396 299.3907,396 c 0.81018,0 1.62305,-0.3397 1.80639,-0.7549 0.60871,-1.37854 16.21811,-8.02937 23.83333,-10.15488 7.92406,-2.2117 20.20547,-4.97718 25.90851,-5.83397 1.87467,-0.28164 6.59967,0.19818 10.5,1.06628 13.75975,3.06249 20.86212,3.92398 32.91374,3.99231 11.84306,0.0671 26.38693,-1.92946 33.05606,-4.53797 2.86408,-1.12024 2.87524,-1.15832 2.25711,-7.70134 -0.34166,-3.61654 -0.63129,-7.70053 -0.64362,-9.07553 -0.0393,-4.38575 -1.21682,-5.23332 -4.79238,-3.4496 -3.35557,1.67398 -10.04329,1.63734 -9.19942,-0.0504 0.275,-0.55 1.175,-0.91281 2,-0.80625 2.36999,0.30612 8.70063,-4.55679 9.99259,-7.67585 1.68279,-4.06263 -0.0391,-6.78129 -4.75474,-7.5073 -5.09508,-0.78442 -10.64508,-3.64937 -11.03721,-5.69747 -0.41316,-2.15793 3.65255,-4.83282 9.64798,-6.34754 4.43769,-1.12116 4.66751,-1.3541 5.00251,-5.07037 0.19313,-2.14237 -0.16364,-10.42022 -0.79282,-18.39522 -0.62918,-7.975 -1.33954,-18.775 -1.57857,-24 -0.23904,-5.225 -1.10807,-16.6892 -1.93118,-25.476 -0.85236,-9.09901 -1.12085,-16.35171 -0.62373,-16.84883 1.25886,-1.25886 1.87777,3.03429 2.56967,17.82483 0.33448,7.15 1.02854,16.375 1.54235,20.5 0.51381,4.125 1.84449,17.01834 2.95706,28.65186 1.21929,12.74939 2.59899,22.26234 3.47317,23.94732 1.00267,1.93266 1.13603,3.17412 0.43207,4.02233 -1.12197,1.35189 -0.21068,8.06792 1.21421,8.94855 0.48765,0.30139 0.88664,-0.10599 0.88664,-0.90529 0,-0.79929 1.30554,-2.85085 2.90121,-4.55901 C 439.24,337.63463 440.64853,337 443.82464,337 c 6.04273,0 6.41959,3.69243 0.98643,9.66492 -2.28891,2.51612 -1.6938,5.91048 1.1971,6.82802 1.03149,0.32738 3.55257,-0.10551 5.60239,-0.96198 4.50599,-1.88272 5.30568,-1.43413 2.35084,1.31871 -4.67246,4.35307 -12.29045,3.88871 -16.40395,-0.99991 -1.38987,-1.65177 -2.52703,-3.44524 -2.52703,-3.9855 0,-0.54026 -0.45,-0.70418 -1,-0.36426 -1.3616,0.84151 -1.27306,19.52995 0.11871,25.05718 0.89588,3.55783 1.55335,4.44282 3.30066,4.44282 2.70585,0 17.38634,-3.32459 23.98956,-5.43276 2.69991,-0.86198 6.00506,-1.56724 7.34476,-1.56724 1.33971,0 5.54319,-0.9 9.34107,-2 3.79788,-1.1 10.16774,-2.94295 14.15524,-4.09544 3.9875,-1.15249 10.31225,-3.62749 14.05501,-5.5 7.83295,-3.91884 7.69499,-3.88467 7.69499,-1.9064 0,0.82399 -2.1375,2.85791 -4.75,4.51981 l -4.75,3.02165 5.5,-0.60732 c 3.025,-0.33402 8.65,-1.20386 12.5,-1.93297 3.85,-0.72912 9.025,-1.61916 11.5,-1.97787 2.475,-0.3587 11.025,-1.92375 19,-3.47787 15.62362,-3.04465 37.34318,-7.08856 51,-9.49558 12.05241,-2.12423 29.817,-5.37909 41.5,-7.60369 43.42552,-8.2688 53.01119,-10.0248 103.7026,-18.99728 5.8865,-1.04191 12.6365,-2.33286 15,-2.86877 2.3636,-0.53591 8.1224,-1.66152 12.7974,-2.50136 4.675,-0.83983 16.15,-2.92743 25.5,-4.63911 9.35,-1.71168 20.375,-3.72979 24.5,-4.48469 47.8472,-8.75635 59.3722,-11.24347 60.7998,-13.12065 1.0986,-1.44454 1.256,-4.26696 0.7436,-13.33246 -0.5889,-10.4188 -0.8711,-11.68804 -3.0015,-13.5 -1.2934,-1.1 -2.8929,-3.72893 -3.5547,-5.84206 -0.8593,-2.74427 -1.5108,-3.53437 -2.28,-2.76517 -0.7692,0.76919 -0.4526,2.32688 1.108,5.45159 2.5313,5.06857 2.7454,7.22654 0.7913,7.97642 -2.0692,0.79401 -5.6018,-3.51991 -5.6383,-6.88523 -0.017,-1.61455 -0.6781,-3.78934 -1.468,-4.83287 -1.7026,-2.24929 -1.1202,-3.60268 1.5503,-3.60268 1.0629,0 2.4946,-0.9 3.1816,-2 2.4753,-3.9636 4.9503,-1.87531 6.2992,5.31504 0.3898,2.07802 0.9034,3.58355 1.1414,3.34562 0.4743,-0.47435 -0.3508,-12.14314 -4.2136,-59.58395 -1.4072,-17.28282 -2.3786,-32.58282 -2.1586,-34 0.3014,-1.9426 0.4367,-1.6856 0.5497,1.0443 0.2332,5.63731 6.024,68.82429 7.6729,83.72437 0.8123,7.33996 1.4819,15.66496 1.4879,18.5 0.013,6.05947 0.9897,12.66143 1.8698,12.63846 1.3737,-0.0358 13.3081,-18.086 17.8412,-26.98384 2.6619,-5.225 7.799,-14 11.4157,-19.5 3.6167,-5.5 7.6,-12.025 8.8517,-14.5 1.2517,-2.475 4.4076,-7.2 7.0132,-10.5 4.0921,-5.18268 9.7489,-14.56473 11.2805,-18.70899 0.9845,-2.66402 3.7575,1.81452 4.6968,7.58546 0.5159,3.16972 3.2746,11.01921 6.1305,17.44332 2.8559,6.42412 6.4228,15.28021 7.9265,19.68021 7.1211,20.8379 16.3425,38.05758 19.8703,37.10482 1.4021,-0.37867 4.8302,-1.01237 11.5928,-2.14298 1.1,-0.1839 3.73998,-0.59395 5.86668,-0.91121 2.1267,-0.31726 4.1774,-0.76887 4.5572,-1.00357 0.3797,-0.23471 2.9147,-0.67329 5.6333,-0.97463 8.6577,-0.95967 17.4832,-2.91618 18.4592,-4.09221 0.629,-0.75791 -0.015,-2.44972 -1.9269,-5.05944 -9.6307,-13.14807 -14.5311,-26.15708 -15.9794,-42.42078 -0.6123,-6.875 -1.3769,-14.975 -1.6991,-18 -0.3223,-3.025 -0.8106,-9.1 -1.0851,-13.5 -0.5172,-8.28798 0.039,-10.63294 7.4657,-31.5 5.2442,-14.73411 9.3558,-28.07665 10.3232,-33.5 0.5887,-3.3 1.4978,-8.025 2.0204,-10.5 1.8831,-8.91859 2.446,-28.244732 2.0464,-70.25 C 1033.8548,5.209971 1033.9883,0 1035.3073,0 c 1.2211,0 1.6003,2.1979981 2.027,11.75 0.951,21.287584 0.7548,89.1709 -0.2746,95.04112 -3.3363,19.02458 -7.2327,32.78617 -18.4302,65.09304 -3.8182,11.01632 -4.1555,14.05555 -2.6209,23.61584 0.5298,3.3 1.6268,12.975 2.4379,21.5 1.0396,10.92699 2.1017,16.97517 3.6,20.5 6.4463,15.16565 15.8452,29.51286 19.3112,29.4784 1.195,-0.0119 6.1273,-0.61623 10.9607,-1.343 6.3019,-0.94758 8.9641,-1.01219 9.4103,-0.2284 0.3423,0.60115 0.2541,0.7594 -0.196,0.35168 -0.45,-0.40773 -1.3097,-0.34678 -1.9103,0.13545 -0.6006,0.48223 -4.2537,1.40198 -8.1181,2.0439 -3.8643,0.64192 -7.5938,1.51804 -8.2878,1.94693 -0.9058,0.55984 0.3709,2.73135 4.5261,7.69857 7.3504,8.78671 19.6028,25.14946 21.2781,28.41647 0.7052,1.375 3.1817,4.75 5.5034,7.5 2.3218,2.75 5.8191,7.475 7.7719,10.5 1.9528,3.025 5.8731,7.75 8.7117,10.5 5.6309,5.45519 13.7438,16.56762 18.9819,26 1.8326,3.3 4.983,8.025 7.001,10.5 4.9112,6.02361 10.7759,14.06067 17.6292,24.15943 3.1131,4.58731 8.6415,11.62576 12.2854,15.641 3.6438,4.01524 7.863,9.19024 9.3759,11.5 1.5129,2.30976 7.8129,11.99887 14,21.53136 6.1871,9.53248 13.6945,20.55748 16.683,24.5 2.9885,3.94251 8.1057,10.92675 11.3717,15.52053 3.2659,4.59378 9.3707,12.02015 13.5663,16.50305 9.1471,9.7735 14.9879,16.85877 17.9629,21.79011 2.4372,4.0397 32.6327,33.85452 34.2868,33.85452 1.9927,0 13.6538,12.54859 19.5148,21 3.2421,4.675 9.4454,15.62251 13.7852,24.3278 l 7.8904,15.8278 0.4467,9.6722 c 0.3419,7.40519 0.058,10.72693 -1.2136,14.1722 -4.3687,11.84159 -6.1476,18.75349 -8.0813,31.39974 -1.6423,10.73985 -5.1086,17.17364 -10.7423,19.9384 -2.06,1.01098 -6.9693,5.39112 -10.9095,9.73363 -3.9402,4.34252 -8.9972,9.09057 -11.2379,10.55123 -2.2406,1.46066 -8.6068,7.15251 -14.1471,12.64855 -8.4947,8.4269 -11.0602,10.36385 -16.3717,12.36063 -3.4642,1.3023 -7.1425,2.36782 -8.174,2.36782 -1.0314,0 -3.6858,1.63562 -5.8985,3.63471 -2.2128,1.99909 -3.7409,2.89909 -3.3959,2 0.345,-0.89909 1.0133,-1.63471 1.4851,-1.63471 0.4718,0 1.3395,-0.9 1.9282,-2 0.8608,-1.60844 0.7605,-2 -0.5124,-2 -1.8074,0 -11.4876,9.31255 -11.4876,11.05125 0,1.65596 -3.187,8.20583 -4.7936,9.8517 -0.7532,0.77162 -2.6828,4.27039 -4.2879,7.77504 -2.2028,4.80949 -2.8991,7.77601 -2.8396,12.09705 0.043,3.14873 0.306,5.16246 0.5834,4.47496 0.2774,-0.6875 0.9526,-1.25 1.5004,-1.25 1.0646,0 0.3699,9.41304 -1.2177,16.5 -1.4699,6.5612 -1.1123,22.57357 0.6355,28.45899 0.9746,3.28197 3.3704,7.47262 6.25,10.93251 19.4473,23.3663 24.2845,28.04122 32.6157,31.52177 2.1704,0.90674 5.4397,2.78783 7.2652,4.18021 2.1166,1.61436 4.0123,2.31161 5.2322,1.92442 1.7939,-0.56936 1.8886,-0.12153 1.5206,7.18746 -0.8132,16.15184 -1.6518,25.92199 -2.5572,29.79464 -1.6117,6.89345 -9.1577,20.71188 -13.9146,25.48092 -2.4792,2.4855 -5.3652,5.86908 -6.4132,7.51908 -1.0481,1.65 -5.3002,6.75408 -9.4492,11.3424 -5.4996,6.08198 -9.6525,9.55884 -15.327,12.83187 -7.0713,4.07872 -11.803,8.53829 -11.803,11.12415 0,0.54433 3.6698,4.29799 8.1552,8.34146 4.4853,4.04348 11.7741,11.85362 16.1972,17.35592 16.3063,20.2846 24.7188,37.6963 28.7498,59.5042 1.6625,8.9943 1.7861,11.7049 0.8617,18.9029 -0.5935,4.6215 -1.7537,10.2465 -2.5782,12.5 -0.8246,2.2534 -1.8608,5.2221 -2.3028,6.5971 -1.2681,3.9452 -4.6371,8.9978 -7.2177,10.8247 -6.5991,4.6715 -13.7992,8.4102 -17.5439,9.1098 -2.3001,0.4297 -7.0259,1.928 -10.5017,3.3296 -8.5682,3.4552 -19.3609,6.7359 -22.1591,6.7359 -1.2636,0 -4.6736,0.7056 -7.5776,1.568 -2.9041,0.8624 -5.5278,1.3204 -5.8304,1.0178 -0.9823,-0.9823 8.1468,-4.5408 11.7475,-4.5792 3.8104,-0.04 6.8128,-1.3862 5.2491,-2.3526 -0.5304,-0.3278 -2.488,-0.1591 -4.3501,0.375 -1.8622,0.534 -4.7388,0.9752 -6.3924,0.9804 -1.6536,0.01 -5.2566,1.3023 -8.0066,2.8825 -6.4611,3.7127 -18.2301,15.218 -20.0691,19.6193 -3.1432,7.5228 -1.3099,19.7327 6.2297,41.4888 3.5461,10.2327 4.9432,12.8508 9.3381,17.5 4.2633,4.5099 13.0013,17.0689 13.0013,18.6866 0,0.5831 2.0107,4.372 4.4683,8.42 2.4575,4.0479 5.192,10.1529 6.0766,13.5666 0.8846,3.4138 2.4559,7.8682 3.4918,9.8987 1.0358,2.0305 2.1872,6.7825 2.5584,10.5599 0.3713,3.7775 1.1145,7.7199 1.6515,8.7609 0.5371,1.041 1.3611,4.956 1.8313,8.7001 0.4701,3.7441 2.0448,9.6349 3.4993,13.0907 2.638,6.2676 2.6429,6.3294 1.9671,24.6601 -0.3727,10.1073 -1.0976,19.4816 -1.611,20.8317 -0.5133,1.3502 -0.9333,3.7935 -0.9333,5.4296 0,3.9305 -2.8178,9.2144 -8.3374,15.6341 -2.4774,2.8815 -6.1948,8.0565 -8.2609,11.5 -2.066,3.4436 -5.7376,9.3297 -8.159,13.0803 -2.4215,3.7506 -5.0939,8.4756 -5.9386,10.5 -1.5533,3.7221 -7.2622,9.305 -12.4106,12.1366 -3.7694,2.0731 -6.7011,4.8641 -10.8935,10.371 -1.925,2.5286 -4.1975,4.6144 -5.05,4.6352 -0.8525,0.021 -2.1073,0.5952 -2.7884,1.2763 -0.6811,0.6811 -2.0012,1.2436 -2.9336,1.25 -0.9324,0.01 -1.8383,0.9116 -2.0132,2.0116 -0.618,3.888 -2.7201,6.7512 -7.1916,9.7955 -2.4877,1.6938 -6.9982,5.1899 -10.0232,7.7692 -8.2476,7.0324 -34.6628,23.7835 -40.1161,25.4394 -1.3111,0.3982 -3.8578,1.6164 -5.6593,2.7072 -1.8014,1.0907 -3.9675,1.7176 -4.8133,1.393 -0.8459,-0.3246 -2.8926,0.1103 -4.5482,0.9665 -1.6555,0.8561 -4.8848,1.5825 -7.1762,1.6141 -3.8524,0.053 -16.4977,4.923 -17.6869,6.8114 -0.275,0.4367 -5.675,3.3841 -12,6.5497 -6.325,3.1657 -13.4845,7.0713 -15.9101,8.6791 -2.4255,1.6078 -5.3505,2.9423 -6.49998,2.9655 -3.5639,0.072 -7.7963,2.0498 -15.7237,7.3475 -4.1986,2.8058 -9.8236,5.9255 -12.5,6.9326 -7.7809,2.928 -16.7962,10.0306 -10.1162,7.97 3.6829,-1.1361 7.7069,-3.3876 18.119,-10.1378 5.428,-3.519 10.0222,-6.2451 10.2093,-6.0579 0.1871,0.1871 -3.3539,2.7551 -7.869,5.7067 -15.6619,10.2383 -13.7255,9.1141 -37.7093,21.8913 -4.675,2.4906 -13.5346,7.7964 -19.688,11.7908 -6.1535,3.9943 -13.1285,8.2364 -15.5,9.4268 -2.3716,1.1905 -6.562,3.8331 -9.312,5.8725 -2.75,2.0394 -7.475,4.9516 -10.5,6.4716 -3.025,1.52 -7.075,3.63 -9,4.689 -10.9206,6.0079 -21.3346,10.8953 -27.5,12.9063 -3.85,1.2558 -10.825,4.1716 -15.5,6.4797 -4.675,2.308 -11.425,4.9838 -15,5.9462 -5.6516,1.5214 -10.0259,3.5827 -24.5,11.545 -5.6625,3.115 -14.0219,5.9646 -29.3179,9.9939 -14.3949,3.7921 -19.1821,4.6805 -19.1821,3.5602 z m 200,-94.0954 c 0,-0.275 -0.9,-0.018 -2,0.5704 -1.1,0.5887 -2,1.2954 -2,1.5704 0,0.275 0.9,0.018 2,-0.5704 1.1,-0.5887 2,-1.2954 2,-1.5704 z m 285.99998,-485.9423 c 0,-0.2819 -0.8474,-3.5705 -1.8831,-7.3079 -2.5864,-9.3333 -10.728,-23.5905 -20.0417,-35.096 -4.0609,-5.0165 -19.6887,-21.65822 -25.3252,-26.9683 -4.3828,-4.12895 -4.6281,-5.39399 -1.3367,-6.89363 1.3273,-0.60475 2.6981,-1.99705 3.0462,-3.09399 0.6474,-2.03964 9.3514,-8.33946 13.1517,-9.51891 1.1611,-0.36037 4.5361,-3.17645 7.5,-6.25795 2.9638,-3.0815 6.5379,-6.78351 7.9424,-8.22668 1.4045,-1.44317 3.9666,-4.69299 5.6934,-7.22184 1.7269,-2.52884 4.2762,-5.34253 5.6652,-6.25263 3.2632,-2.13811 12.9786,-18.79936 14.4177,-24.72535 0.6112,-2.51674 1.353,-10.46619 1.6485,-17.66546 l 0.5374,-13.08958 -4.7579,-4.10397 c -2.6169,-2.25719 -7.2242,-5.28251 -10.2385,-6.72293 -5.459,-2.60864 -14.6951,-11.20578 -23.8511,-22.20118 -14.9871,-17.99786 -15.2774,-18.95384 -15.6694,-51.60671 -0.3312,-27.59494 0,-29.55311 6.6088,-39.34896 1.6384,-2.42764 4.2788,-6.98896 5.8675,-10.13626 2.9726,-5.88857 8.3808,-11.47351 12.701,-13.11606 1.3497,-0.51315 4.3695,-0.93301 6.7108,-0.93301 8.3584,0 12.7452,-2.42976 23.2836,-12.89628 5.4062,-5.3693 11.8544,-11.13883 14.3294,-12.82118 2.475,-1.68234 8.1812,-6.93415 12.6803,-11.67067 4.4992,-4.73653 8.8401,-8.61187 9.6465,-8.61187 2.9404,0 7.459,-6.65224 8.6178,-12.68708 0.614,-3.19711 1.7516,-8.73792 2.5281,-12.31292 0.7765,-3.575 1.711,-8.46324 2.0765,-10.86277 0.3656,-2.39952 1.8055,-6.85469 3.1999,-9.90038 2.3471,-5.12663 2.4926,-6.28718 1.9606,-15.63723 -0.6414,-11.27448 -1.2703,-13.75843 -3.3843,-13.36733 -0.9283,0.17174 -2.1065,-1.52469 -3.2867,-4.73229 -1.0118,-2.75 -3.094,-7.475 -4.627,-10.5 -1.5331,-3.025 -2.6766,-6.09074 -2.5413,-6.81275 0.2543,-1.35641 -4.5232,-10.18725 -5.5113,-10.18725 -0.3062,0 0.3726,1.575 1.5084,3.5 1.1358,1.925 1.7427,3.49653 1.3488,3.4923 -0.955,-0.0103 -5.5077,-8.03421 -4.9022,-8.63974 0.2606,-0.26057 -0.491,-1.52671 -1.6702,-2.81364 -1.1791,-1.28693 -3.653,-4.52216 -5.4975,-7.1894 -1.8445,-2.66723 -5.367,-6.39149 -7.8279,-8.27611 -8.9956,-6.8892 -33.7639,-31.77281 -38.8904,-39.07147 -2.8981,-4.12606 -9.5867,-12.15632 -14.8635,-17.84501 -8.8378,-9.52766 -23.2807,-28.03299 -33.2924,-42.65693 -8.1691,-11.93238 -21.0268,-32.09842 -23.2721,-36.5 -1.2625,-2.475 -5.0691,-7.425 -8.459,-11 -5.5101,-5.81084 -18.5411,-23.12836 -18.5411,-24.64005 0,-1.03981 -7.3249,-10.67073 -12.4974,-16.43183 -6.1248,-6.82182 -13.0942,-16.65872 -12.7455,-17.98961 0.4617,-1.76186 -9.1289,-15.31834 -14.4593,-20.43851 -2.8629,-2.75 -7.3636,-8.0058 -10.0015,-11.67955 -20.5303,-28.59149 -37.5962,-50.84877 -40.5842,-52.9298 -1.4694,-1.02331 -6.4563,-0.29244 -30.525,4.4736 -9.52208,1.88555 -17.57548,3.69081 -17.89638,4.01168 -0.5773,0.57738 1.8593,4.37647 7.7762,12.12407 3.84118,5.02962 24.84588,28.29121 25.91358,28.69789 0.4363,0.16616 9.5066,8.66284 20.1563,18.8815 10.6498,10.21867 23.1882,22.09158 27.8632,26.38425 10.8745,9.98517 23.2747,23.83733 26.1966,29.26415 2.1165,3.93078 2.1604,4.34383 0.6245,5.87965 -2.6003,2.60029 -6.5961,0.91643 -12.8901,-5.43198 -3.0948,-3.1215 -7.5857,-7.25046 -9.9797,-9.17546 -2.394,-1.925 -5.7249,-4.65497 -7.402,-6.0666 -1.6771,-1.41163 -4.6243,-3.52997 -6.5493,-4.70742 -1.925,-1.17745 -5.2465,-3.9607 -7.381,-6.18499 -4.7421,-4.94146 -14.3015,-11.56457 -21.0808,-14.60556 -2.8326,-1.27062 -8.3215,-2.56825 -12.5382,-2.96412 -4.125,-0.38726 -8.6307,-1.28308 -10.0128,-1.99071 -2.3799,-1.21857 -4.89,-1.75622 -21.43958,-4.59209 -7.0809,-1.21338 -17.5207,-6.01109 -22.8747,-10.51229 -1.5549,-1.30724 -3.9582,-2.66071 -5.3408,-3.00772 -2.7753,-0.69655 -7.714,-3.36279 -14.318,-7.72983 -2.3799,-1.57374 -9.8817,-5.53003 -16.6706,-8.79178 -7.0322,-3.3786 -12.3435,-6.5289 -12.3435,-7.32127 0,-0.76497 -1.0125,-1.69277 -2.25,-2.0618 -1.2375,-0.36902 -5.4365,-2.26721 -9.331,-4.21821 -8.2122,-4.11392 -11.8506,-3.9993 -12.6916,0.39983 -0.2803,1.46679 0.5445,15.08411 1.8331,30.26072 1.2886,15.17661 3.0684,36.14384 3.9551,46.59384 0.8867,10.45 2.468,28.45 3.5138,40 1.0459,11.55 2.5944,30 3.4411,41 0.8468,11 1.7586,22.25 2.0263,25 1.2195,12.52637 5.4616,61.25912 7.4862,86 0.5851,7.15 1.9718,24.025 3.0816,37.5 1.1098,13.475 2.6677,32.825 3.4621,43 0.7943,10.175 1.9002,23.675 2.4576,30 0.5573,6.325 1.4601,17.8 2.0063,25.5 0.5461,7.7 1.6694,20.525 2.4961,28.5 2.5284,24.3895 7.0278,77.01008 8.1233,95 0.8048,13.2173 2.0989,22.20208 3.3053,22.94765 1.2799,0.79101 33.0139,4.04737 83.58468,8.57696 21.45,1.92127 42.5882,3.9392 46.9738,4.4843 10.4351,1.29703 13.5262,1.25037 13.5262,-0.20419 0,-0.65741 1.2092,-2.45741 2.6871,-4 2.0241,-2.11275 3.6278,-2.80472 6.5,-2.80472 2.0971,0 3.8129,0.45 3.8129,1 0,0.55 -0.6251,1 -1.3892,1 -0.7641,0 -2.4516,0.86943 -3.75,1.93208 l -2.3608,1.93207 3.937,1.65948 c 2.1653,0.91271 6.4031,1.914 9.4173,2.22509 5.0158,0.51768 5.4208,0.41046 4.7778,-1.26517 -1.2078,-3.1475 0.4914,-10.69796 2.964,-13.1706 3.134,-3.13395 5.8181,-2.90768 9.3501,0.78818 2.5199,2.63683 3.0078,4.01754 3.2587,9.22204 l 0.2951,6.12092 4,0.75023 c 2.2,0.41263 15.25,1.9029 29,3.31173 13.75,1.40882 25.9,2.83878 27,3.17768 1.1,0.33891 3.3156,0.67055 4.9236,0.737 1.608,0.0664 3.0902,0.62058 3.2938,1.23141 0.3726,1.11793 -0.6376,1.11882 -9.7174,0.009 -2.475,-0.30265 -8.55,-0.82792 -13.5,-1.16728 -4.95,-0.33936 -12.6,-1.02021 -17,-1.51299 -4.4,-0.49279 -10.925,-0.99967 -14.5,-1.12641 l -6.5,-0.23044 -0.2985,5.63977 c -0.245,4.63131 0.074,6.01259 1.7865,7.72471 2.2833,2.28326 1.8989,4.01198 -0.892,4.01198 -3.2281,0 -5.3673,-3.65457 -5.9978,-10.24653 -0.5115,-5.34703 -0.9008,-6.2967 -2.6857,-6.55173 -3.6037,-0.51488 -4.5947,1.87511 -2.9893,7.20949 1.2251,4.07046 1.2247,4.78664 0,5.25756 -2.6903,1.03238 -4.2034,-0.53995 -7.7889,-8.09379 -1.9776,-4.16625 -4.1062,-7.575 -4.7303,-7.575 -0.6827,0 -0.9016,0.8917 -0.5494,2.23839 0.8579,3.28059 -1.3863,9.73788 -3.9734,11.43305 -1.7259,1.13083 -2.7223,1.21506 -4.3116,0.36445 -2.1969,-1.1757 -2.4354,-1.91253 -1.4503,-4.47963 0.4608,-1.2009 0.9489,-1.33168 1.9302,-0.51722 1.592,1.32125 3.453,-1.56258 3.453,-5.35085 0,-4.35331 -0.3181,-4.42973 -30.1414,-7.24159 l -6.6414,-0.62618 -0.7197,6.33979 c -1.0916,9.6164 -2.5138,10.56882 -1.822,1.22022 l 0.6008,-8.11956 -7.8881,-0.67847 c -4.3385,-0.37315 -10.8132,-0.92852 -14.3882,-1.23414 -3.575,-0.30563 -6.769,-0.71821 -7.0977,-0.91687 -0.3287,-0.19865 -3.9287,-0.61311 -8,-0.92103 -4.0713,-0.30791 -9.2023,-0.76356 -11.4023,-1.01256 -2.2,-0.24899 -7.375,-0.71851 -11.5,-1.04337 -4.12498,-0.32485 -16.27498,-1.44277 -26.99998,-2.48426 -10.725,-1.04149 -23.2125,-2.16245 -27.75,-2.49103 l -8.25,-0.59741 0.01,5.80913 c 0,3.19503 0.6604,13.23414 1.4615,22.30914 5.104,57.82189 6.5894,74.98823 7.5283,87 2.3293,29.80052 4.7979,55.29622 5.5415,57.23412 0.6307,1.6435 4.0787,2.35 15.9637,3.271 3.85,0.2983 8.35,0.7523 10,1.0087 1.65,0.2565 9.3,0.9186 17,1.4715 14.38198,1.0327 17.47078,1.2953 35.49998,3.0179 5.775,0.5518 15.9,1.4725 22.5,2.0462 6.6,0.5736 14.25,1.2491 17,1.501 13.4599,1.2329 29.6779,2.62 46,3.9341 43.7433,3.5218 55.9451,4.5521 64.6848,5.4615 5.1233,0.5331 12.6902,1.2622 16.8152,1.6202 4.125,0.358 8.4,0.8408 9.5,1.0729 1.1,0.2321 4.7,0.6833 8,1.0026 3.3,0.3194 6.1875,0.7556 6.4167,0.9695 0.6265,0.5847 11.0833,0.4678 11.0833,-0.1239 z m -187.625,-21.6123 c 0.3438,-1.7187 0.625,-4.2203 0.625,-5.559 0,-1.3681 0.438,-2.1634 1,-1.816 1.8845,1.1647 0.7806,10.5 -1.2416,10.5 -0.5961,0 -0.7528,-1.2778 -0.3834,-3.125 z m 2.8235,-28.375 c 0,-4.1523 1.2299,-8.23382 2.0698,-6.8749 0.3756,0.6077 0.063,3.0782 -0.6938,5.4899 -1.2216,3.8908 -1.3767,4.0469 -1.376,1.385 z m 3.6403,-36.54611 c 0.1866,-3.27827 0.8109,-5.95389 1.3893,-5.95389 0.6776,0 0.833,1.83658 0.4378,5.17342 -0.868,7.32856 -2.2329,7.91161 -1.8271,0.78047 z m 3.1612,-33.78722 c 0,-2.29167 0.4704,-4.16667 1.0453,-4.16667 0.6618,0 0.7966,1.37591 0.3674,3.75 -0.9383,5.18939 -1.4127,5.32933 -1.4127,0.41667 z M 1059.5103,913.5 c 0.274,-2.2 0.503,-5.71406 0.5091,-7.80902 0.01,-2.09496 0.389,-3.57541 0.8509,-3.2899 0.7993,0.49399 -0.3095,11.99258 -1.3595,14.09892 -0.2742,0.55 -0.2744,-0.8 -5e-4,-3 z m 5.5599,-21.95201 c -1.8453,-2.22347 -0.316,-5.32842 2.9811,-6.05259 3.6364,-0.79868 4.9791,-0.0265 4.9791,2.86362 0,4.26554 -5.3034,6.39017 -7.9602,3.18897 z m -21.0398,-5.49057 c 0,-0.51842 0.9609,-0.75753 2.1353,-0.53136 3.2318,0.62238 3.5388,1.47394 0.5314,1.47394 -1.4667,0 -2.6667,-0.42416 -2.6667,-0.94258 z m 177.6431,-1.82582 c -0.2612,-0.42263 1.2873,-0.60036 3.441,-0.39497 2.1538,0.20539 3.9159,0.55117 3.9159,0.76841 0,0.74484 -6.8816,0.39553 -7.3569,-0.37344 z M 1015.0304,883 c 0,-1.2702 3.0345,-1.2702 5,0 1.1383,0.7356 0.7162,0.97307 -1.75,0.98469 -1.7875,0.008 -3.25,-0.43469 -3.25,-0.98469 z m 195.5,0.004 c -1.3347,-0.57099 -0.363,-0.71244 2.9212,-0.42523 2.7066,0.23672 5.1441,0.65337 5.4166,0.9259 0.8338,0.83374 -6.2068,0.41096 -8.3378,-0.50067 z m -4.9929,-0.99237 c -0.3504,-0.56686 0.051,-0.7345 0.941,-0.39301 1.7324,0.66479 2.0493,1.38156 0.6109,1.38156 -0.5175,0 -1.2159,-0.44485 -1.5519,-0.98855 z m -217.00708,-0.82846 c -5.7287,-0.45374 -6.9629,-2.21143 -1.45,-2.06486 2.4475,0.0651 5.8,0.424 7.45,0.79761 2.9319,0.66388 2.9433,0.68956 0.5,1.13169 -1.375,0.24881 -4.3,0.30982 -6.5,0.13556 z m 205.32858,-0.41179 c 0.6382,-0.63817 1.587,-0.63817 2.7274,0 1.4767,0.8264 1.3244,0.97862 -0.9787,0.97862 -1.7785,0 -2.3868,-0.34046 -1.7487,-0.97862 z M 954.03042,877 c -1.8295,-1.18235 3.8535,-1.18235 8.5,0 2.6105,0.66427 2.3509,0.77674 -2,0.86637 -2.75,0.0566 -5.675,-0.33321 -6.5,-0.86637 z m 82.99998,-43.35641 c 0,-2.59495 2.3975,-4.64359 5.4343,-4.64359 1.6308,0 2.0785,2.64569 0.7904,4.67072 -0.4096,0.64389 -1.9777,1.48017 -3.4847,1.8584 -2.455,0.61615 -2.74,0.42 -2.74,-1.88553 z M 1063.6807,833 c -0.2709,-0.825 -0.7003,-3.65973 -0.9542,-6.2994 -0.2538,-2.63967 -0.7054,-5.04325 -1.0035,-5.3413 -1.1831,-1.18315 -4.5843,0.86483 -4.8792,2.93798 -0.1724,1.2115 -0.9683,2.20272 -1.7686,2.20272 -3.3838,0 -3.8321,-16.12333 -0.586,-21.07746 4.5701,-6.97486 10.5731,2.02702 12.0552,18.07746 0.5033,5.45069 0.3124,7.44266 -0.8624,9 -1.2371,1.63993 -1.5974,1.72995 -2.0013,0.5 z m -2.6503,-16.97976 c 0,-1.92179 -3.2332,-9.02024 -4.1086,-9.02024 -1.1833,0 -1.1357,4.22731 0.084,7.4349 0.9272,2.43865 4.0248,3.65878 4.0248,1.58534 z m -33.7617,13.29268 c 0.9561,-0.25029 2.7561,-0.25937 4,-0.0202 1.244,0.23919 0.4617,0.44398 -1.7383,0.45508 -2.2,0.0111 -3.2177,-0.18461 -2.2617,-0.4349 z m -23.9883,-2.02917 c 1.5125,-0.22913 3.9875,-0.22913 5.5,0 1.5125,0.22912 0.275,0.41659 -2.75,0.41659 -3.025,0 -4.2625,-0.18747 -2.75,-0.41659 z M 972.53042,825 c -2.8337,-0.72105 -2.7677,-0.76993 1.191,-0.88169 2.305,-0.0651 4.4691,0.33169 4.809,0.88169 0.6978,1.12899 -1.5631,1.12899 -6,0 z m -28.9907,-2.98494 c -0.3803,-0.61542 0.6292,-0.74912 2.691,-0.35636 4.4213,0.84223 4.8028,1.3413 1.0254,1.3413 -1.7092,0 -3.3816,-0.44322 -3.7164,-0.98494 z M 1069.2804,612.93442 c -2.3375,-1.0959 -4.25,-2.65446 -4.25,-3.46348 0,-0.80902 -0.675,-1.47094 -1.5,-1.47094 -1.6458,0 -2.1135,-2.92331 -0.5,-3.125 1.9711,-0.24639 2.5163,-0.41599 3.6433,-1.1334 0.7095,-0.45164 1.3808,0.21817 1.7691,1.76531 0.6024,2.40026 2.5876,3.54575 2.5876,1.49309 0,-0.55 0.675,-1 1.5,-1 0.825,0 1.5,0.675 1.5,1.5 0,0.825 0.3375,1.3875 0.75,1.25 0.9465,-0.31549 1.25,0.59508 1.25,3.75 0,2.99106 -1.1403,3.06444 -6.75,0.43442 z m 12.75,0.007 c 0,-0.58246 -0.45,-0.7809 -1,-0.44098 -0.55,0.33992 -1,0.14148 -1,-0.44098 0,-1.52935 1.5544,-1.30086 3,0.44098 0.8601,1.03636 0.898,1.5 0.1224,1.5 -0.6173,0 -1.1224,-0.47656 -1.1224,-1.05902 z m -37.5563,-3.70629 c -2.6756,-1.86094 0.099,-11.25369 2.8259,-9.56809 0.4757,0.29405 1.1122,-0.41065 1.4143,-1.56598 0.749,-2.86397 1.5897,-2.63871 3.1288,0.83829 0.7966,1.7998 1.0419,4.31916 0.6328,6.5 -0.6561,3.49706 -2.4455,5.00522 -2.4455,2.06109 0,-2.18688 -1.7589,-1.83511 -2.5,0.5 -0.6769,2.13272 -1.3653,2.41082 -3.0563,1.23469 z m 163.0634,-18.22324 c -0.3504,-0.56686 0.051,-0.7345 0.941,-0.39301 1.7324,0.66479 2.0493,1.38156 0.6109,1.38156 -0.5175,0 -1.2159,-0.44485 -1.5519,-0.98855 z m 5.4929,0.0476 c 0,-0.58246 0.45,-1.05902 1,-1.05902 0.55,0 1,0.19844 1,0.44098 0,0.24254 -0.45,0.7191 -1,1.05902 -0.55,0.33992 -1,0.14148 -1,-0.44098 z M 1224.1883,579 c 0,-1.375 0.227,-1.9375 0.5044,-1.25 0.2774,0.6875 0.2774,1.8125 0,2.5 -0.2774,0.6875 -0.5044,0.125 -0.5044,-1.25 z m -302.15788,-8.58333 c 0,-0.87084 0.5344,-1.40521 1.1875,-1.1875 1.8542,0.61807 2.1618,2.77083 0.3958,2.77083 -0.8708,0 -1.5833,-0.7125 -1.5833,-1.58333 z m 13.658,0.90799 c -1.2599,-1.25991 -0.6448,-2.19937 1.342,-2.04971 2.3726,0.17873 2.3702,0.17291 0.658,1.59393 -0.7381,0.61257 -1.6381,0.81767 -2,0.45578 z M 936.53042,566 c -0.3399,-0.55 -0.4033,-1 -0.1408,-1 0.2625,0 1.1941,-0.2751 2.0704,-0.61134 1.166,-0.44745 1.4273,-0.17937 0.9748,1 -0.7002,1.82465 -1.9871,2.09553 -2.9044,0.61134 z m 13.3791,465.0959 c 1.0375,-0.6571 1.2146,-2.2016 0.7151,-6.2347 -0.3653,-2.9487 -1.3108,-13.6862 -2.1012,-23.8612 -1.787,-23.00314 -2.9139,-36.24015 -6.0019,-70.5 -1.3385,-14.85 -3.1285,-35.55 -3.9779,-46 -0.8493,-10.45 -1.7792,-20.84167 -2.0664,-23.0926 l -0.5221,-4.09259 -16.2124,-1.70252 c -8.9168,-0.93638 -18.6873,-1.91525 -21.7123,-2.17525 -21.6393,-1.85995 -28.3526,-2.45918 -32.6306,-2.91264 -2.6782,-0.28387 -9.8194,-0.95054 -15.8694,-1.48147 -20.456,-1.79517 -53.8978,-4.99834 -73.5,-7.04009 -10.725,-1.11711 -31.9788,-3.16177 -47.2307,-4.54368 -15.2519,-1.38192 -29.42691,-2.71864 -31.50002,-2.9705 -5.22977,-0.63534 -31.46423,-3.09186 -58.36446,-5.46506 -12.42735,-1.09637 -29.75235,-2.68559 -38.5,-3.5316 -8.74765,-0.84601 -25.12982,-2.41916 -36.40482,-3.49589 -11.275,-1.07673 -22.525,-2.19812 -25,-2.49198 -13.75766,-1.63346 -35.31431,-3.42791 -36.01051,-2.99764 -0.44389,0.27434 -0.21341,2.74927 0.51218,5.49983 0.72558,2.75057 0.97127,4.78597 0.54596,4.52312 -0.4253,-0.26286 -1.35514,-2.55611 -2.0663,-5.09613 -0.83149,-2.96979 -2.0405,-4.9247 -3.38717,-5.47689 -2.68156,-1.09955 -26.90521,-2.92826 -27.67342,-2.08914 -0.31859,0.34799 -0.38345,4.34522 -0.14412,8.88272 l 0.43515,8.25 4.14412,0.0741 c 2.27926,0.0408 6.16911,0.46097 8.64411,0.93378 3.87294,0.73986 3.35038,0.83301 -3.75,0.66846 l -8.25,-0.19119 0.008,4.00742 c 0.004,2.20407 0.45955,7.83241 1.01195,12.50741 1.24429,10.53059 1.61403,14.27821 2.9598,30 0.58849,6.875 1.51032,16.775 2.04851,22 0.8616,8.36484 1.89235,20.15129 3.5418,40.5 0.2675,3.3 0.90767,10.725 1.42261,16.5 0.51493,5.775 1.22097,15.04406 1.56897,20.59791 0.34801,5.55384 1.00614,10.70208 1.46252,11.44051 0.47233,0.76425 3.76908,1.67476 7.65301,2.11366 10.26396,1.15986 40.01315,3.71294 55.82324,4.79076 7.7,0.52493 25.925,2.1132 40.5,3.52948 14.575,1.4163 31.675,2.9939 38,3.5059 47.07648,3.8103 105.17019,8.7544 117.99999,10.0423 5.225,0.5246 18.275,1.6437 29,2.487 10.725,0.8432 21.525,1.7447 24,2.0032 2.475,0.2585 12.825,1.1512 23,1.9839 10.175,0.8326 19.625,1.7362 21,2.008 2.8051,0.5545 24.7875,2.4403 35.5,3.0454 3.85,0.2175 7.9295,0.6209 9.0655,0.8965 1.136,0.2755 7.886,0.9567 15,1.5137 7.114,0.5571 16.5345,1.2953 20.9345,1.6405 8.819,0.6919 23.7146,2.0597 24.5,2.2497 0.275,0.066 1.1206,-0.2721 1.8791,-0.7525 z M 551.01209,984.25 c -1.18912,-3.1625 -2.53273,-7.775 -2.98581,-10.25 -0.45308,-2.475 -2.2125,-8.5094 -3.90982,-13.40977 -3.59092,-10.36742 -3.45775,-9.6701 -1.71935,-9.00301 0.75168,0.28845 2.17018,3.49276 3.15222,7.12069 1.51529,5.59796 1.96834,6.34622 2.99355,4.94417 2.66284,-3.64166 3.71203,-1.88532 3.34405,5.59792 l -0.35651,7.25 4.5,0.26372 c 2.475,0.14504 5.625,0.57838 7,0.96296 1.90796,0.53365 1.0791,0.82642 -3.5,1.23628 -6.55996,0.58716 -6.69283,0.79055 -5.08702,7.78704 1.24828,5.43873 -1.08571,3.73822 -3.43131,-2.5 z m 17.00156,-9.7941 c -0.53199,-1.39926 -1.24464,-3.64926 -1.58366,-5 -0.58815,-2.34339 -3.39957,-3.5474 -3.39957,-1.4559 0,1.3101 -2.18861,1.26827 -5.6849,-0.10865 l -2.8151,-1.10866 2.5,-1.04504 c 1.375,-0.57477 5.77967,-2.55088 9.78816,-4.39134 4.00848,-1.84047 8.67237,-3.34631 10.36419,-3.34631 2.89588,0 2.76188,0.1658 -2.28816,2.83104 -3.90496,2.0609 -5.30576,3.35305 -5.14938,4.75 0.11814,1.05543 0.51362,4.05646 0.87883,6.66896 0.73703,5.27226 -0.9141,6.66752 -2.61041,2.2059 z m -32.99651,-42.48796 c -1.32766,-3.20526 -0.52816,-5.43811 1.05234,-2.93898 0.90265,1.42729 1.34573,5.97104 0.58226,5.97104 -0.20827,0 -0.94384,-1.36443 -1.6346,-3.03206 z m -8.30229,-28.74065 C 524.78001,897.82893 524.67562,897 525.93068,897 c 0.941,0 3.63953,9.79354 2.90181,10.53127 -0.23282,0.23282 -1.18576,-1.70397 -2.11764,-4.30398 z m 18.6338,-1.97729 c -0.42481,-2.0625 -0.7827,-7.35 -0.79531,-11.75 -0.0217,-7.56693 0.10012,-8.01746 2.25002,-8.32256 1.91438,-0.27167 2.68177,0.59597 4.86455,5.5 3.01116,6.76514 4.22148,13.32256 2.459,13.32256 -0.64177,0 -2.27602,-0.72675 -3.63167,-1.61501 l -2.46482,-1.61501 0,4.11501 c 0,5.14314 -1.65132,5.3679 -2.68177,0.36501 z m 3.0434,-13.75 c -0.31659,-0.825 -0.75246,-1.5 -0.96862,-1.5 -0.21615,0 -0.39301,0.675 -0.39301,1.5 0,0.825 0.43588,1.5 0.96862,1.5 0.53273,0 0.70959,-0.675 0.39301,-1.5 z m 12.06037,8.02131 c -3.60255,-5.49819 -4.43474,-17.06447 -1.48651,-20.66053 1.82438,-2.22526 2.03483,-2.26309 3.66608,-0.65899 1.14908,1.12997 1.92679,3.98609 2.31451,8.5 l 0.58392,6.79821 3.31579,0.31827 c 2.74874,0.26383 3.11258,0.56311 2.12755,1.75 -0.65352,0.78745 -2.47782,1.43173 -4.05399,1.43173 -2.33572,0 -2.82171,0.39577 -2.62756,2.13977 0.35092,3.15217 -1.8792,3.37376 -3.83979,0.38154 z M 573.57934,893.75 c -0.21358,-0.6875 -0.66882,-4.74419 -1.01167,-9.01487 -0.52096,-6.48948 -0.36781,-7.86292 0.93244,-8.36187 0.85568,-0.32836 2.27374,-10e-4 3.15126,0.72712 1.34551,1.11667 1.79849,1.04649 2.89126,-0.44797 1.75371,-2.39833 2.24593,-1.19409 2.28797,5.59759 0.024,3.87196 -0.36218,5.75 -1.18229,5.75 -1.76268,0 -3.61789,-2.12345 -3.61789,-4.14098 0,-0.95754 -0.49821,-2.0489 -1.10713,-2.42523 -0.71517,-0.442 -0.9178,-0.0203 -0.57234,1.19098 0.29414,1.03138 0.83458,4.23773 1.20097,7.12523 0.56505,4.45305 0.41947,5.25 -0.95905,5.25 -0.89387,0 -1.79996,-0.5625 -2.01353,-1.25 z m -55.43127,-18.86765 c -2.00331,-5.93211 -2.05355,-9.00709 -0.0956,-5.85339 1.1033,1.77714 3.18647,11.09589 2.60943,11.67293 -0.22552,0.22552 -1.35673,-2.39327 -2.51379,-5.81954 z m 388.63235,-1.57168 c -1.2225,-0.31947 -1.7309,-1.41481 -1.6866,-3.63399 0.058,-2.92478 0.1357,-2.99668 0.9752,-0.90664 0.568,1.41411 2.0827,2.50422 4.0172,2.89113 2.1945,0.43889 2.7152,0.86856 1.7749,1.46465 -1.4076,0.8923 -2.2555,0.92315 -5.0807,0.18485 z M 878.53042,870 c -0.7548,-1.22122 5.1581,-1.22122 8,0 1.5096,0.64868 0.8497,0.87666 -2.691,0.92971 -2.58,0.0387 -4.9691,-0.37971 -5.309,-0.92971 z m -27,-2.05485 c -1.746,-0.7024 -1.6507,-0.81351 0.75,-0.87486 2.713,-0.0693 3.4642,0.3985 2,1.24556 -0.4125,0.23864 -1.65,0.0718 -2.75,-0.3707 z M 709.53042,854 c -0.7378,-1.19384 1.2218,-1.19384 4,0 1.7858,0.7674 1.7118,0.86696 -0.691,0.92971 -1.48,0.0387 -2.9691,-0.37971 -3.309,-0.92971 z m -199.90417,-7.35749 c -0.94281,-3.22161 -1.50841,-6.06326 -1.2569,-6.31478 0.70409,-0.70408 3.88184,9.51464 3.39793,10.92673 -0.23476,0.68505 -1.19822,-1.39033 -2.14103,-4.61195 z M 677.03042,851 l -2.5,-0.80064 2.75,-0.0997 c 1.5125,-0.0548 2.75,0.35034 2.75,0.90034 0,0.55 -0.1125,0.95514 -0.25,0.90032 -0.1375,-0.0548 -1.375,-0.45997 -2.75,-0.90032 z m -44.25,-3.81037 c -2.0625,-0.1707 -3.75,-0.64748 -3.75,-1.05952 0,-0.79039 14.99808,0.53464 15.86507,1.40163 0.47671,0.47671 -3.61919,0.36105 -12.11507,-0.34211 z M 579.03042,842 c -1.87074,-1.20896 2.3577,-1.23294 9,-0.051 l 4.5,0.80071 -6,0.10985 c -3.3,0.0604 -6.675,-0.32636 -7.5,-0.85952 z m -38.85017,-6.75 c 0.11146,-2.78949 0.25327,-3.07948 0.55367,-1.13218 0.36468,2.36399 1.00467,2.71411 6.60017,3.61079 l 6.19633,0.99296 -6.75,0.13922 -6.75,0.13921 0.14983,-3.75 z M 508.03042,835 c -2.32726,-0.74532 -2.34861,-0.80753 -0.30902,-0.90032 1.20504,-0.0548 2.4691,0.35032 2.80902,0.90032 0.33992,0.55 0.47898,0.95514 0.30902,0.90032 -0.16996,-0.0548 -1.43402,-0.45997 -2.80902,-0.90032 z m 5.23834,0.31292 c 0.95609,-0.25029 2.75609,-0.25937 4,-0.0202 1.24391,0.23919 0.46166,0.44398 -1.73834,0.45508 -2.2,0.0111 -3.21775,-0.18461 -2.26166,-0.4349 z M 481.68041,984.75 c -1.36338,-13.60771 -4.79092,-55.48365 -6.1592,-75.25 -0.30458,-4.4 -0.96146,-11.825 -1.45973,-16.5 -0.49828,-4.675 -1.40674,-14.125 -2.01882,-21 -0.61208,-6.875 -1.52511,-16.775 -2.02895,-22 -0.50384,-5.225 -1.44569,-15.67921 -2.093,-23.23157 l -1.17692,-13.73158 -3.10668,-0.51849 c -3.56041,-0.59422 -13.54646,-1.60194 -50.10669,-5.05642 -14.3,-1.35117 -37.25,-3.57651 -51,-4.94521 -13.75,-1.36869 -32.875,-3.17873 -42.5,-4.0223 -9.625,-0.84356 -26.05,-2.4122 -36.5,-3.48586 -10.45,-1.07366 -35.425,-3.54184 -55.5,-5.48485 C 180.1437,784.88887 153.6315,782.2568 136.76928,780.4635 129.20065,779.65857 121.37547,779 119.37999,779 l -3.62815,0 0.58732,5.25 0.58733,5.25 -1.90612,-3.5 -1.90612,-3.5 -0.0327,3 c -0.0405,3.71929 2.7119,45.45855 3.43708,52.1224 0.29194,2.68268 1.42159,17.2526 2.51034,32.3776 2.22897,30.96497 2.82033,38.5398 3.51313,45 0.26542,2.475 0.69346,7.425 0.95121,11 1.34937,18.71626 2.66538,33.46164 3.01789,33.81415 0.47838,0.47838 20.81924,2.75966 32.14905,3.6056 7.57168,0.56533 8.16602,0.46877 8.65638,-1.40637 0.69635,-2.66286 2.04313,-2.53939 5.30825,0.48662 1.48365,1.375 3.51214,2.5 4.50776,2.5 3.33531,0 133.0579,11.27994 143.89774,12.51253 1.925,0.21889 7.55,0.66235 12.5,0.98546 4.95,0.32311 10.575,0.79951 12.5,1.05866 3.89152,0.52388 29.75319,2.73266 58,4.95362 10.175,0.80003 23.675,1.93786 30,2.52851 26.57676,2.48181 40.73287,3.70259 44.38809,3.82791 l 3.8881,0.13331 -0.6262,-6.25 z M 165.07686,949.5 c -1.81193,-4.56038 -2.41511,-8.5 -1.3014,-8.5 1.21841,0 3.6619,8.33435 2.98283,10.17397 -0.29352,0.79518 -0.96665,0.12504 -1.68143,-1.67397 z m -8.09228,-26.58565 c -1.28651,-2.40386 -0.31296,-4.09573 1.0849,-1.88539 0.98105,1.55127 1.28337,3.97104 0.49612,3.97104 -0.25565,0 -0.9671,-0.93854 -1.58102,-2.08565 z m -11.97542,-38.47823 c -2.29306,-6.89066 -2.00284,-10.19288 0.3814,-4.33966 1.51471,3.71854 3.00837,10.90354 2.2667,10.90354 -0.25508,0 -1.44672,-2.95375 -2.6481,-6.56388 z m 8.99875,1.31388 c -5.74983,-9.37575 -7.62549,-20.97535 -3.47749,-21.50573 3.92627,-0.50203 5.01206,1.27626 4.81928,7.89292 -0.14085,4.83397 0.35566,7.26123 2.25,10.99952 2.93851,5.79887 2.94308,5.86329 0.41602,5.86329 -1.19748,0 -2.82316,-1.31829 -4.00781,-3.25 z m -2.37332,-18.47917 c -0.33229,-0.33229 -0.56864,0.25834 -0.52522,1.3125 0.048,1.16495 0.28494,1.4019 0.60416,0.60417 0.28887,-0.72187 0.25335,-1.58438 -0.0789,-1.91667 z m 12.54662,19.41086 c -1.66804,-2.00986 -4.15079,-12.59202 -4.15079,-17.69179 0,-6.46245 2.93031,-8.91673 6.44719,-5.39985 1.27731,1.2773 1.46089,2.85084 0.93334,8 -0.3612,3.52547 -0.35374,6.40995 0.0166,6.40995 0.3703,0 1.79649,-0.73596 3.1693,-1.63546 4.02877,-2.63975 4.10246,-0.63637 0.10733,2.91792 -2.09453,1.86341 -3.67372,4.19924 -3.67372,5.43393 0,2.69796 -1.42526,3.68106 -2.84921,1.9653 z M 164.39205,867.5 c 0.31658,-0.825 0.13972,-1.5 -0.39301,-1.5 -0.53274,0 -0.96862,0.675 -0.96862,1.5 0,0.825 0.17686,1.5 0.39301,1.5 0.21616,0 0.65203,-0.675 0.96862,-1.5 z m 17.24867,15.67848 c -1.09612,-1.77357 -1.6794,-14.71038 -0.88671,-19.66684 0.98543,-6.16164 3.48708,-7.28569 5.14705,-2.3127 0.94502,2.83113 0.9102,3.05193 -0.24462,1.55106 -0.74058,-0.9625 -1.6344,-1.75 -1.98626,-1.75 -0.87082,0 -0.67993,7.03862 0.25566,9.42689 0.7453,1.90251 0.76582,1.90251 1.62256,0 0.47725,-1.05979 0.90205,-2.37689 0.94402,-2.92689 0.0866,-1.13485 0.84549,-1.5 3.11746,-1.5 1.25575,0 1.4391,0.66607 0.89464,3.25 -0.37664,1.7875 -1.0874,3.6775 -1.57945,4.2 -0.49206,0.5225 -0.89465,1.76 -0.89465,2.75 0,2.10386 -1.0759,2.30878 -2.88766,0.55 -1.04503,-1.01447 -1.22403,-0.5141 -0.95,2.65554 0.31938,3.69408 -1.20654,5.94999 -2.55204,3.77294 z m -47.45929,-33.94903 c -1.26719,-3.9988 -2.11912,-7.8238 -1.89319,-8.5 0.57388,-1.71756 4.97409,11.83824 4.546,14.00493 -0.19186,0.97109 -1.38563,-1.50613 -2.65281,-5.50493 z M 123.62211,814.5 c -2.82929,-9.71007 -2.90665,-10.09113 -1.82701,-9 1.51668,1.53281 4.43887,11.24842 3.9812,13.23658 -0.22784,0.9898 -1.1729,-0.86881 -2.15419,-4.23658 z m 994.43309,53.9349 c 1.4491,-3.81144 1.1848,-7.5458 -0.6798,-9.60616 -2.9792,-3.292 -4.345,-2.27449 -4.345,3.237 0,7.95463 2.9839,11.73693 5.0248,6.36916 z M 935.62402,848.27193 c -0.3343,-3.17456 -1.2802,-14.32193 -2.1019,-24.77193 -0.8217,-10.45 -2.1513,-26.65 -2.9547,-36 -0.8034,-9.35 -2.1528,-25.55 -2.9989,-36 -1.6805,-20.7578 -1.8692,-23.00522 -4.0309,-48 -2.501,-28.91827 -4.5281,-53.43326 -6.9869,-84.5 -0.8488,-10.725 -2.2157,-27.15 -3.0376,-36.5 -0.8219,-9.35 -3.3043,-39.275 -5.5164,-66.5 -2.2122,-27.225 -5.6028,-68.4 -7.5347,-91.5 -1.9319,-23.1 -4.842,-58.65 -6.4667,-79 -3.4463,-43.16428 -3.5844,-44.22599 -5.9144,-45.47298 -1.7129,-0.9167 -11.4176,0.43889 -31.0505,4.33728 -13.8253,2.7452 -34.4177,6.59146 -43.5,8.12493 -4.95,0.83577 -13.5,2.38769 -19,3.44871 -5.5,1.06103 -15.175,2.88899 -21.5,4.06214 -6.325,1.17315 -14.65,2.75395 -18.5,3.51289 -3.85,0.75894 -15.775,2.95122 -26.5,4.87175 -10.725,1.92052 -28.5,5.15498 -39.5,7.18769 -11,2.0327 -22.25,4.10325 -25,4.60123 -9.63578,1.74485 -14.04975,2.55515 -20,3.67153 -5.08665,0.95435 -28.33348,5.1162 -36.5,6.53455 -16.53502,2.87177 -38.33146,6.89817 -41.5,7.66619 -2.2,0.53325 -8.5,1.66719 -14,2.51986 -5.5,0.85268 -11.8,1.94721 -14,2.43229 -4.96134,1.09395 -33.25215,6.53327 -65.21092,12.53774 -26.63196,5.00366 -33.4346,6.72969 -35.27823,8.95112 -1.24328,1.49807 -0.84783,11.82035 2.10759,55.01308 0.56449,8.25 1.25403,18.825 1.53229,23.5 0.27827,4.675 0.71145,9.14037 0.96262,9.92305 0.25118,0.78267 0.66093,5.644 0.91056,10.80294 0.38562,7.96943 2.37218,30.63416 3.92444,44.77401 0.24152,2.2 0.71246,7.15 1.04653,11 0.91723,10.57028 1.18258,11.25311 5.09433,13.10936 6.54781,3.10713 18.84641,23.03428 21.53375,34.89064 1.7718,7.81706 1.78276,41.18937 0.0184,56 -1.66923,14.01195 -4.9404,37.51264 -6.12458,44 -3.29377,18.04453 -3.40736,40.61242 -0.48572,96.5 0.55444,10.60564 2.04765,24.91203 2.66456,25.52894 0.22114,0.22114 11.6301,1.53844 25.35323,2.92732 13.72314,1.38888 26.84358,2.76431 29.15653,3.05652 2.31296,0.2922 7.03796,0.75803 10.5,1.03516 9.28989,0.74364 50.73378,4.47817 54.79463,4.93757 8.13624,0.92044 15.67844,1.66411 36,3.5496 11.825,1.09716 23.3,2.19206 25.5,2.4331 2.2,0.24105 7.6,0.70436 12,1.02958 4.4,0.32523 14.075,1.2315 21.5,2.01395 7.425,0.78244 18.67499,1.88165 24.99999,2.44267 6.325,0.56103 19.6,1.90783 29.5,2.99289 9.9,1.08506 20.925,2.22344 24.5,2.52975 3.575,0.30631 8.075,0.7526 10,0.99177 1.925,0.23916 6.425,0.69229 10,1.00694 3.575,0.31466 8.525,0.77736 11,1.02823 2.475,0.25087 6.975,0.69907 10,0.99601 3.025,0.29694 7.525,0.7445 10,0.99458 2.475,0.25009 8.1,0.71545 12.5,1.03413 4.4,0.31869 14.075,1.20805 21.5,1.97636 7.425,0.76831 16.425,1.63695 20,1.93031 3.575,0.29336 11.45,0.99341 17.5,1.55567 6.05,0.56226 14.6,1.29976 19,1.63889 4.4,0.33914 10.925,0.91813 14.5,1.28665 3.575,0.36852 8.6828,0.77292 11.3507,0.89866 l 4.8508,0.22862 -0.6079,-5.77194 z M 906.03042,819 l -3.5,-0.73672 3.191,-0.13164 c 1.755,-0.0724 3.4691,0.31836 3.809,0.86836 0.3399,0.55 0.479,0.94076 0.309,0.86836 -0.1699,-0.0724 -1.884,-0.46317 -3.809,-0.86836 z m -45.75,-3.7234 c -1.7875,-0.22182 -3.25,-0.73566 -3.25,-1.14186 0,-0.85308 12.7706,0.30251 13.7085,1.24047 0.6503,0.65029 -4.841,0.59852 -10.4585,-0.0986 z m -37.25,-4.81178 c 0,-1.27224 0.3854,-1.33468 2.25,-0.36455 3.3093,1.72176 3.3483,1.89973 0.4167,1.89973 -1.7309,0 -2.6667,-0.53873 -2.6667,-1.53518 z m -40.4521,-2.25025 c -0.3013,-0.30135 -0.5479,-1.2379 -0.5479,-2.08124 0,-1.19259 0.2667,-1.26666 1.2,-0.33333 0.66,0.66 1.9834,1.2 2.941,1.2 0.9575,0 1.9535,0.34386 2.2132,0.76414 0.5359,0.86702 -4.9631,1.29362 -5.8063,0.45043 z M 741.53042,804 c -0.7921,-1.28168 3.5167,-1.28168 5.5,0 1.1414,0.73761 0.7371,0.97304 -1.691,0.98469 -1.755,0.008 -3.4691,-0.43469 -3.809,-0.98469 z m -34.2562,-2.66436 c -1.9778,-0.79735 -0.4664,-2.20662 1.7459,-1.62807 1.0933,0.2859 1.7413,0.91865 1.44,1.40612 -0.5933,0.96003 -1.2429,1.00529 -3.1859,0.22195 z m -37.84294,-3.49605 c -0.99787,-1.6146 0.44124,-2.21567 2.79269,-1.16643 l 2.21271,0.98734 -2.20214,0.57587 c -1.21117,0.31673 -2.47264,0.13818 -2.80326,-0.39678 z M 549.03042,786.025 c 0,-0.56023 1.38255,-0.71183 3.25,-0.35636 4.55729,0.86748 4.70246,1.33136 0.41667,1.33136 -2.01667,0 -3.66667,-0.43875 -3.66667,-0.975 z m -25,-2.025 c 0,-1.18717 1.7373,-1.18717 4.5,0 1.67602,0.72021 1.47353,0.87082 -1.25,0.92971 -1.7875,0.0387 -3.25,-0.37971 -3.25,-0.92971 z m -28.5,-2 c -0.72971,-1.18069 4.81328,-1.18069 8.5,0 1.97463,0.63239 1.40913,0.82159 -2.69098,0.90032 -2.85504,0.0548 -5.4691,-0.35032 -5.80902,-0.90032 z m -26.83333,-1.66667 c -1.83856,-1.83855 -0.17673,-2.4169 5.08333,-1.76909 9.34025,1.15031 10.63376,2.30108 2.66667,2.37237 -3.89584,0.0349 -7.38334,-0.23661 -7.75,-0.60328 z m -9.03314,-41.21505 C 459.33299,734.92823 458.81584,726.775 458.51472,721 c -0.30112,-5.775 -0.97602,-15.225 -1.49979,-21 -0.52377,-5.775 -1.63633,-19.5 -2.47235,-30.5 -1.52199,-20.02574 -3.87547,-48.41811 -7.49391,-90.40633 -1.062,-12.32349 -2.30639,-22.78181 -2.76531,-23.24073 -2.81864,-2.81864 -10.39224,10.2229 -14.25874,24.55314 -2.02671,7.5115 -3.84299,20.14002 -4.32823,30.09392 -0.79624,16.33367 4.58941,53.45668 11.82368,81.5 4.85624,18.82499 19.79134,56.55588 21.87799,55.27087 0.47719,-0.29387 0.59685,-3.96254 0.26589,-8.15259 z m 3.22814,-60.36332 c 0.58779,-3.44023 1.75825,-11.20496 2.60101,-17.25496 0.84276,-6.05 2.01345,-14.375 2.60153,-18.5 1.79612,-12.59847 2.56845,-30.82715 1.88542,-44.5 -0.58639,-11.73817 -0.96839,-13.72798 -3.93561,-20.5 -3.547,-8.09527 -7.09163,-13.73057 -11.8214,-18.7938 -5.71597,-6.11897 -6.20654,-3.97516 -3.73539,16.32366 0.80148,6.58358 2.15931,22.498 3.0174,35.36539 0.8581,12.86738 1.7712,24.34238 2.02912,25.5 0.25792,1.15761 1.15061,10.42975 1.98375,20.60475 1.98698,24.26669 2.5815,29.07539 3.52279,28.49364 0.43047,-0.26604 1.26359,-3.29845 1.85138,-6.73868 z M 98.197594,536.5 c 1.949786,-2.2 4.789156,-5.98965 6.309716,-8.42145 1.52057,-2.4318 3.56163,-5.2769 4.53569,-6.32243 0.97406,-1.04553 2.56822,-4.00588 3.54258,-6.57854 0.97436,-2.57267 2.82305,-6.35614 4.1082,-8.40771 1.28515,-2.05157 2.33664,-4.13855 2.33664,-4.63772 0,-1.20182 5.09843,-12.34748 11.03892,-24.13215 2.63385,-5.225 5.69361,-13.13785 6.79947,-17.58412 1.10586,-4.44627 3.16962,-10.93635 4.58613,-14.42241 1.41652,-3.48606 2.57548,-6.9357 2.57548,-7.66588 0,-1.62353 -4.27549,-1.72391 -11.9398,-0.28031 -21.69888,4.08703 -45.387606,8.94679 -45.846186,9.40538 -0.55036,0.55036 1.06097,26.34983 2.81348,45.04734 0.51552,5.5 1.39811,17.2 1.96131,26 1.14525,17.89415 1.77507,22.77469 2.87962,22.31421 0.41453,-0.17281 2.34897,-2.11421 4.29875,-4.31421 z M 233.61556,478.63318 c 2.15317,-0.80882 9.93869,-3.61397 17.30115,-6.23365 l 13.3863,-4.76307 8.76144,-8.67014 c 9.45777,-9.35921 10.91251,-11.55424 13.23245,-19.96632 1.6625,-6.02821 2.99565,-23.28162 2.07189,-26.81409 -0.53351,-2.04011 -1.00227,-2.1726 -5.7098,-1.61377 -10.52976,1.25 -81.05422,14.32604 -88.79767,16.46411 -1.9939,0.55054 -4.28578,2.00904 -5.09306,3.2411 -3.8488,5.87402 -5.98332,25.69725 -3.66572,34.04343 1.22399,4.40784 6.88136,11.08583 11.35273,13.40081 1.69133,0.87566 5.55015,1.94309 8.57515,2.37206 7.7907,1.10479 23.95459,0.27895 28.58514,-1.46047 z m -63.93645,-50.59855 c 11.57143,-2.16796 16.18851,-3.44525 17.17004,-4.75 2.84659,-3.78394 13.27113,-26.06352 13.84252,-29.58456 0.48254,-2.97358 0.0739,-4.50194 -2.07003,-7.74159 -5.23298,-7.90758 -12.52081,-9.76523 -24.797,-6.3207 -8.434,2.36646 -12.71084,6.88586 -16.53149,17.46906 -3.40761,9.43911 -4.85081,16.05808 -5.80925,26.64316 -0.5517,6.09297 -0.41515,7.25 0.85563,7.25 0.83165,0 8.63446,-1.33441 17.33958,-2.96537 z m 145.35131,-26.49481 c 13.66018,-2.48077 42.56813,-8.07251 57.82012,-11.18431 4.80273,-0.97989 7.76203,-2.00602 7,-2.42724 -0.72607,-0.40135 -4.92012,-1.25519 -9.32012,-1.89743 -4.4,-0.64224 -10.33623,-1.88581 -13.19163,-2.7635 -4.76252,-1.46389 -5.71302,-1.46208 -11.5,0.0219 -3.4696,0.88972 -7.88337,1.91135 -9.80837,2.27029 -12.72549,2.37284 -28.93244,8.63488 -35.20419,13.60219 -7.11631,5.63622 -5.35772,5.93065 14.20419,2.3781 z M 1083.9044,386.75 c -1.3823,-2.5995 -11.8326,-13.08607 -26.874,-26.96713 -16.0107,-14.77561 -48.9209,-47.48101 -55.1258,-54.78287 -3.03798,-3.575 -8.12418,-9.9967 -11.30278,-14.27045 -3.1786,-4.27375 -6.52,-8.14608 -7.4253,-8.60519 -1.6764,-0.85011 -25.9945,2.89457 -44.8444,6.90545 -5.3909,1.14709 -12.2767,2.52023 -15.3017,3.05143 -12.2542,2.15187 -17.3651,3.47746 -17.7331,4.59935 -0.2188,0.66699 3.6456,3.18455 8.883,5.78699 5.0987,2.53352 10.0989,5.49573 11.1116,6.58269 1.0126,1.08695 5.0677,3.60113 9.0112,5.58707 3.9436,1.98594 10.527,5.64856 14.6298,8.13915 4.1029,2.49059 9.7048,5.34896 12.4489,6.35193 2.744,1.00298 6.15,2.89974 7.5688,4.21504 6.2746,5.81657 19.1747,10.65654 28.4031,10.65654 1.5532,0 6.05338,1.06691 10.00038,2.3709 3.947,1.304 10.1742,2.66247 13.8383,3.01883 7.8947,0.76783 16.1732,3.88532 20.338,7.65887 1.65,1.495 4.2373,3.34561 5.7495,4.11247 1.5122,0.76687 5.5622,3.73748 9,6.60137 8.3886,6.98823 27.0557,21.08324 28.0357,21.16891 0.4318,0.0378 0.2468,-0.94385 -0.4112,-2.18135 z M 427.03042,339.19113 c 0,-1.54488 -0.6172,-3.65294 -1.37155,-4.68458 -1.27274,-1.74058 -1.65054,-1.76953 -5.24386,-0.40191 -5.69074,2.16591 -5.58009,4.46949 0.3015,6.27681 6.4502,1.98205 6.31391,2.00775 6.31391,-1.19032 z m 487,-49.34867 c 5.775,-1.10119 14.325,-2.63657 19,-3.41195 4.675,-0.77538 10.525,-1.81043 13,-2.30012 2.475,-0.48969 8.775,-1.61918 14,-2.50998 12.7716,-2.17742 20.0014,-3.81554 19.9934,-4.53012 0,-0.32466 -0.924,-1.94029 -2.0452,-3.59029 -3.8606,-5.68123 -11.3144,-23.28246 -15.457,-36.5 -0.948,-3.025 -2.9899,-8.425 -4.5373,-12 -1.5475,-3.575 -4.016,-9.65 -5.4855,-13.5 -1.4696,-3.85 -2.9676,-7.31899 -3.329,-7.70886 -0.3614,-0.38987 -1.7566,0.96013 -3.1005,3 -1.3439,2.03987 -3.773,5.05886 -5.398,6.70886 -3.2858,3.33627 -9.1816,12.16171 -10.5777,15.83371 -0.4976,1.30889 -2.539,4.93448 -4.5364,8.05687 -1.9973,3.12239 -5.0249,8.24935 -6.7278,11.39324 -7.0599,13.03348 -19.446,32.88183 -22.448,35.9721 -1.9542,2.01169 -2.6105,5.22651 -1.3717,6.71915 1.292,1.5567 3.1161,1.40012 19.0207,-1.63261 z m 3,1299.15754 c 0,-0.55 0.6484,-1 1.441,-1 0.7925,0 1.7191,0.45 2.059,1 0.3399,0.55 -0.3085,1 -1.441,1 -1.1324,0 -2.059,-0.45 -2.059,-1 z m 68.3451,-153.5431 c -0.3257,-0.8487 -0.3687,-1.7666 -0.096,-2.0397 0.2731,-0.2731 0.7365,0.4213 1.0299,1.5431 0.6231,2.383 -0.069,2.7509 -0.9343,0.4966 z m -1.3451,-17.9569 c 0,-1.375 0.1725,-2.5 0.3834,-2.5 0.2109,0 0.5985,1.125 0.8614,2.5 0.2628,1.375 0.09,2.5 -0.3835,2.5 -0.4737,0 -0.8613,-1.125 -0.8613,-2.5 z m -0.2708,-4.1042 c -0.4011,-0.401 -0.7292,-1.4191 -0.7292,-2.2625 0,-1.1256 0.2958,-1.2375 1.1125,-0.4208 0.6119,0.6119 0.94,1.63 0.7292,2.2625 -0.2109,0.6325 -0.7115,0.8219 -1.1125,0.4208 z m -0.7292,-7.3368 c 0,-1.6824 0.1725,-3.059 0.3834,-3.059 0.8486,0 1.2881,5.085 0.4825,5.5829 -0.4762,0.2943 -0.8659,-0.8414 -0.8659,-2.5239 z M 1190.0369,1327.5 c -0.1056,-1.65 -0.067,-5.025 0.085,-7.5 0.1525,-2.475 0.3067,-5.7375 0.3427,-7.25 0.1019,-4.2779 1.3698,-3.2379 2.1156,1.7354 0.4303,2.8697 0.1279,6.5618 -0.8395,10.25 -1.2178,4.6428 -1.5495,5.1808 -1.7041,2.7646 z m -141.0065,-8.382 c 0,-0.55 0.45,-1.2781 1,-1.618 0.55,-0.3399 1,-0.168 1,0.382 0,0.55 -0.45,1.2781 -1,1.618 -0.55,0.3399 -1,0.168 -1,-0.382 z M 511.66879,1300.5 c -0.31658,-0.825 -0.13972,-1.5 0.39301,-1.5 0.53274,0 0.96862,0.675 0.96862,1.5 0,0.825 -0.17686,1.5 -0.39301,1.5 -0.21616,0 -0.65203,-0.675 -0.96862,-1.5 z M 40.109374,1278.5833 c -0.0434,-1.0541 0.19293,-1.6448 0.52522,-1.3125 0.33229,0.3323 0.36781,1.1948 0.0789,1.9167 -0.31922,0.7977 -0.55618,0.5608 -0.60416,-0.6042 z M 1050.595,1204.6555 c -2.1052,-2.1052 -2.4815,-3.3945 -2.4294,-8.3233 0.1026,-9.6926 4.4867,-16.5657 9.371,-14.6914 1.7052,0.6543 2.6983,4.6964 1.9178,7.8061 -0.5272,2.1005 -0.1034,2.6602 2.995,3.9548 4.415,1.8447 5.3084,3.8392 3.177,7.0921 -2.0356,3.1067 -5.1658,5.116 -9.3181,5.9814 -2.6279,0.5476 -3.6816,0.2121 -5.7133,-1.8197 z m 11.1854,-5.5475 c 1.792,-2.1364 1.566,-2.8119 -1.1705,-3.4987 -4.8616,-1.2202 -6.8287,1.188 -4.5098,5.521 0.8992,1.6801 1.3377,1.797 2.75,0.7333 0.9242,-0.696 2.2428,-1.936 2.9303,-2.7556 z m -7.0877,-13.358 c -0.2774,-0.6875 -0.5044,-0.125 -0.5044,1.25 0,1.375 0.227,1.9375 0.5044,1.25 0.2774,-0.6875 0.2774,-1.8125 0,-2.5 z m -24.3482,2.6262 c -0.375,-0.9772 0.036,-1.9925 1.0314,-2.5497 1.1528,-0.6451 1.6545,-2.2754 1.6545,-5.3762 0,-4.1761 1.2558,-5.9891 2.2167,-3.2003 0.6728,1.9527 0.2595,10.1704 -0.5798,11.5285 -1.0774,1.7432 -3.5892,1.5094 -4.3228,-0.4023 z m 5.2528,-33.1262 c 0.7974,-5.4945 1.1452,-6.1637 2.0194,-3.8856 0.847,2.2072 -0.4132,8.6356 -1.6929,8.6356 -0.6421,0 -0.7623,-1.7479 -0.3265,-4.75 z m 44.6831,-2.7546 c -2.6833,-1.9186 -2.7877,-3.5206 -0.6021,-9.2436 1.5727,-4.1179 1.5613,-4.3806 -0.25,-5.7516 -1.761,-1.333 -1.6318,-1.4389 1.7931,-1.4684 2.03,-0.017 3.9367,0.3659 4.2371,0.8519 0.3004,0.4861 -0.1181,3.0736 -0.9301,5.75 -2.4427,8.0515 -2.2063,8.7343 2.752,7.9478 3.8045,-0.6035 4.0914,-0.5144 2.7366,0.8498 -2.3715,2.3882 -7.1538,2.9109 -9.7366,1.0641 z m -19.6964,-2.4087 c -0.9649,-1.5613 -1.8629,-15.7184 -1.1716,-18.4725 0.3608,-1.4378 1.2582,-2.6142 1.9941,-2.6142 0.9824,0 1.5214,2.6629 2.0281,10.0193 0.3795,5.5106 0.4173,10.4606 0.084,11 -0.7611,1.2315 -2.1947,1.2645 -2.9345,0.067 z m 8.4237,-5.1094 c -1.4938,-1.4938 -1.9773,-3.3318 -1.9773,-7.5171 0,-9.1755 5.4474,-17.1025 11.1922,-16.2867 1.9731,0.2802 2.2664,0.8325 2.0226,3.8086 -0.1569,1.9145 -1.6194,5.8449 -3.25,8.7343 -1.6789,2.9747 -2.9648,6.7315 -2.9648,8.6615 0,4.1825 -2.2665,5.3556 -5.0227,2.5994 z m 6.9873,-20.4184 c 0.019,-0.5177 -0.6253,-0.068 -1.4328,1 -0.8075,1.0676 -1.4666,2.6161 -1.4646,3.4411 0,1.5743 2.8342,-2.7642 2.8974,-4.4411 z m -38.3096,7.6124 c -2.0198,-2.2319 -2.0539,-4.0598 -0.1232,-6.6124 0.8075,-1.0677 1.4682,-3.0353 1.4682,-4.3725 0,-2.0638 0.2301,-2.2403 1.5226,-1.1677 0.8414,0.6984 1.2706,2.0575 0.9593,3.0383 -0.3098,0.9761 -0.095,2.0641 0.4774,2.4179 1.423,0.8794 1.3149,5.8509 -0.1593,7.3251 -1.6102,1.6102 -2.1997,1.5208 -4.145,-0.6287 z m 3.6861,-36.9848 c 0.6359,-11.6151 1.3036,-14.5728 2.7191,-12.0435 0.9216,1.6469 -1.2652,21.4211 -2.4961,22.5705 -0.4633,0.4326 -0.5636,-4.3046 -0.223,-10.527 z m 242.8588,-18.0418 c -0.7151,-0.4536 -2.0009,-4.3842 -2.8572,-8.7347 -2.5175,-12.789 0.439,-20.2001 7.5692,-18.974 1.9735,0.3394 4.9381,0.7566 6.5881,0.9273 4.6516,0.481 7.7979,1.6817 10.2239,3.9014 1.7389,1.5911 2.3146,1.7296 2.6398,0.6351 3.0218,-10.171 5.8634,-14.4167 10.413,-15.5586 3.6617,-0.919 3.838,0.4239 0.5153,3.9238 -3.0404,3.2024 -3.7951,4.7947 -4.6582,9.8289 -0.7189,4.1931 0.5846,5.3742 4.4457,4.0282 6.6852,-2.3304 5.8518,2.0998 -0.9263,4.9241 -2.2141,0.9226 -2.3075,1.3166 -1.6513,6.9701 0.6938,5.9777 0.6897,5.9902 -1.6532,5.1349 -2.3825,-0.8698 -4.685,-5.6271 -4.7923,-9.9012 -0.031,-1.2375 -0.5064,-2.25 -1.0564,-2.25 -0.9031,0 -1.376,1.4792 -0.75,2.3463 0.1375,0.1905 -0.3628,1.0847 -1.1119,1.9873 -0.749,0.9025 -1.1009,2.3209 -0.782,3.152 0.9302,2.4239 -4.7384,7.5144 -8.3679,7.5144 -5.8863,0 -10.0843,-7.0263 -6.5388,-10.9441 2.0533,-2.2688 0.3268,-5.0063 -2.1709,-3.4422 -1.4946,0.936 -1.7221,2.2528 -1.4252,8.25 0.3612,7.2962 -0.2894,8.4148 -3.6534,6.281 z m 16.107,-4.9313 c 2.2634,-2.501 4.6931,-8.6373 4.6931,-11.8525 0,-3.1885 -2.5595,-6.3609 -5.1319,-6.3609 -3.1985,0 -4.7108,3.9239 -4.7213,12.25 -0.01,6.762 0.2167,7.75 1.7667,7.75 0.9771,0 2.5041,-0.804 3.3934,-1.7866 z m -255.202,-11.9634 c -0.083,-4.9355 0.2106,-6.25 1.3951,-6.25 1.8281,0 1.838,3.008 0.028,8.5 l -1.3183,4 -0.1048,-6.25 z M 64.030424,1008.559 c 0,-0.8574 0.45,-1.559 1,-1.559 0.55,0 1,0.4234 1,0.941 0,0.5175 -0.45,1.2191 -1,1.559 -0.55,0.3399 -1,-0.083 -1,-0.941 z M 1193.5304,983 c 0.3399,-0.55 1.293,-1 2.118,-1 0.825,0 1.2219,0.45 0.882,1 -0.3399,0.55 -1.293,1 -2.118,1 -0.825,0 -1.2219,-0.45 -0.882,-1 z m 19.5,-6.98663 c 0,-0.82926 2.4353,-2.01337 4.1408,-2.01337 0.5375,0 0.7327,0.39568 0.4338,0.87929 -0.7333,1.18654 -4.5746,2.13882 -4.5746,1.13408 z m 16.8173,-14.61741 c 4.1577,-5.57095 9.1531,-10.88614 9.1678,-9.75484 0.019,1.4551 -7.3699,10.4351 -9.6242,11.69666 -1.3252,0.74164 -1.2236,0.30916 0.4564,-1.94182 z M 70.780424,956.29427 c 1.2375,-0.23836 3.2625,-0.23836 4.5,0 1.2375,0.23835 0.225,0.43337 -2.25,0.43337 -2.475,0 -3.4875,-0.19502 -2.25,-0.43337 z m -12,-1 c 1.2375,-0.23836 3.2625,-0.23836 4.5,0 1.2375,0.23835 0.225,0.43337 -2.25,0.43337 -2.475,0 -3.4875,-0.19502 -2.25,-0.43337 z M 1251.5947,925.70687 c 0.3755,-0.98622 0.9347,-1.54122 1.2426,-1.23333 0.3079,0.30789 6e-4,1.11479 -0.6828,1.79313 -0.9876,0.98026 -1.1025,0.8654 -0.5598,-0.5598 z M 1253.1883,919 c 0,-1.375 0.227,-1.9375 0.5044,-1.25 0.2774,0.6875 0.2774,1.8125 0,2.5 -0.2774,0.6875 -0.5044,0.125 -0.5044,-1.25 z m 0.5116,-11.25 c 0.3067,-4.5375 0.7316,-8.4375 0.9441,-8.66667 0.2125,-0.22916 0.3864,3.48334 0.3864,8.25 0,4.76887 -0.4246,8.66667 -0.9441,8.66667 -0.5609,0 -0.7177,-3.34866 -0.3864,-8.25 z m 29.4294,-0.35145 c -2.5961,-3.30033 -3.5989,-8.03602 -3.5989,-16.99516 0,-10.06251 2.92,-12.89907 8.5,-8.25714 2.1189,1.76271 2.4676,2.83021 2.2875,7.00342 -0.2065,4.78644 -0.053,5.07544 5.5,10.366 5.2139,4.96727 9.4928,7.36488 7.5586,4.23536 -0.4245,-0.68694 -1.0756,-3.72444 -1.4468,-6.75 -0.3712,-3.02557 -0.8379,-6.14356 -1.0371,-6.92887 -0.5519,-2.17556 4.0854,-3.4612 7.5955,-2.10581 l 2.9577,1.1421 -2.4577,1.22081 c -2.797,1.38936 -3.9947,5.67074 -1.5863,5.67074 0.8308,0 1.8397,-0.53263 2.2421,-1.18362 0.5036,-0.81487 0.9361,-0.60047 1.3881,0.68817 0.7175,2.04537 -1.6204,5.49545 -3.7238,5.49545 -0.7028,0 -1.2778,0.42344 -1.2778,0.94098 0,1.69007 1.9151,2.17481 4.0591,1.0274 1.8661,-0.99873 2.0636,-0.87586 1.7707,1.10163 -0.4747,3.20392 -3.3031,4.74 -5.8263,3.16422 -1.1865,-0.74093 -2.0035,-0.83991 -2.0035,-0.2427 0,2.00368 -2.3994,0.92458 -7.7637,-3.49153 -6.9025,-5.68254 -8.2166,-5.77169 -7.5108,-0.50957 0.5068,3.77801 -0.7727,7.00957 -2.7754,7.00957 -0.4427,0 -1.7258,-1.17065 -2.8512,-2.60145 z m 1.5634,-8.64855 c -0.2774,-0.6875 -0.5044,-0.125 -0.5044,1.25 0,1.375 0.227,1.9375 0.5044,1.25 0.2774,-0.6875 0.2774,-1.8125 0,-2.5 z m 35.5793,4.25 c -2.4805,-3.84402 -3.9668,-8.29925 -4.8844,-14.64092 -0.7978,-5.51351 1.9774,-10.58374 5.5568,-10.15224 1.3375,0.16124 2.6373,0.9183 2.8886,1.68236 0.2811,0.8547 0.014,1.11557 -0.6938,0.67803 -1.5782,-0.97539 -4.4186,6.06235 -3.6625,9.0748 0.6508,2.5931 1.6929,2.88905 4.6327,1.3157 1.0977,-0.58746 2.5929,-0.68107 3.4266,-0.21452 1.2175,0.68134 0.96,1.39614 -1.4557,4.04097 -2.0896,2.28789 -3.0233,4.43749 -3.2423,7.46452 l -0.3076,4.2513 -2.2584,-3.5 z M 1197.1454,781 c -0.046,-1.375 0.3518,-3.175 0.885,-4 0.8617,-1.33333 0.96,-1.33333 0.885,0 -0.046,0.825 -0.4446,2.625 -0.885,4 l -0.8006,2.5 -0.084,-2.5 z M 61.780424,772.29427 c 1.2375,-0.23836 3.2625,-0.23836 4.5,0 1.2375,0.23835 0.225,0.43337 -2.25,0.43337 -2.475,0 -3.4875,-0.19502 -2.25,-0.43337 z m -10.51166,-0.98135 c 0.95609,-0.25029 2.75609,-0.25937 4,-0.0202 1.24391,0.23919 0.46166,0.44398 -1.73834,0.45508 -2.2,0.0111 -3.21775,-0.18461 -2.26166,-0.4349 z M 393.30278,768 c 0,-2.475 0.19502,-3.4875 0.43337,-2.25 0.23836,1.2375 0.23836,3.2625 0,4.5 -0.23835,1.2375 -0.43337,0.225 -0.43337,-2.25 z m -353.022356,2.31067 c 0.9625,-0.25152 2.5375,-0.25152 3.5,0 0.9625,0.25153 0.175,0.45733 -1.75,0.45733 -1.925,0 -2.7125,-0.2058 -1.75,-0.45733 z m 42.38616,-5.58745 c -1.74461,-1.27569 -2.4953,-3.50122 -5.30356,-15.72322 -3.71785,-16.18068 2.95264,-23.85167 10.86157,-12.49068 2.58746,3.71683 6.80583,14.93304 6.80583,18.09602 0,2.7851 -2.18821,1.30017 -3.82426,-2.59517 -0.92166,-2.19441 -1.91622,-3.99441 -2.21013,-4 -0.29392,-0.006 -1.34354,1.35961 -2.3325,3.03379 -1.47064,2.48959 -1.60097,3.60948 -0.71561,6.14922 2.43606,6.98809 0.8754,10.56952 -3.28134,7.53004 z m 4.24919,-18.6312 c 0.8777,-0.55586 1.16308,-1.76294 0.77878,-3.29409 -0.76706,-3.0562 -4.76617,-9.01308 -6.41413,-9.55417 -1.9953,-0.65514 -1.59384,8.40716 0.5,11.28671 1.88937,2.59834 2.97634,2.92887 5.13535,1.56155 z m 321.185496,12.35785 c -1.68897,-2.50257 -3.10248,-5.54007 -3.14114,-6.75 -0.0386,-1.20993 -0.42806,-3.09987 -0.86535,-4.19987 -2.58399,-6.50009 7.24647,-13.30144 10.11759,-7 1.14465,2.51222 4.16581,3.36437 5.31805,1.5 0.33992,-0.55 1.74303,-1 3.11803,-1 1.375,0 2.24785,0.40799 1.93966,0.90665 -0.30818,0.49866 0.32563,3.75328 1.40849,7.2325 1.08285,3.47922 1.64218,6.65249 1.24296,7.05171 -1.16826,1.16826 -3.04863,-0.53023 -3.55613,-3.21216 -0.25797,-1.36328 -0.98129,-3.80035 -1.60737,-5.41569 l -1.13833,-2.93699 -3.66794,3.66794 c -3.33779,3.3378 -3.66794,4.16471 -3.66794,9.18699 0,6.86411 -1.36026,7.10372 -5.50058,0.96892 z M 410.59489,748.25 c 0.33142,-1.5125 0.77587,-3.3125 0.98767,-4 1.0431,-3.38587 -2.69866,-5.91652 -3.94515,-2.66821 -1.29336,3.37045 -0.3424,9.41821 1.48095,9.41821 0.48067,0 1.14511,-1.2375 1.47653,-2.75 z m 19.99983,2.48428 c -4.15897,-9.09243 -4.21498,-10.34644 -0.54685,-12.24331 1.75888,-0.90955 4.16199,-1.39393 5.34025,-1.0764 2.64176,0.71193 8.89708,10.83198 8.46044,13.68755 -0.31469,2.058 -0.34658,2.05517 -2.93787,-0.26076 -1.44085,-1.28775 -3.40511,-3.57886 -4.36501,-5.09136 -2.83888,-4.47316 -3.64156,-3.14445 -1.45365,2.40629 1.11783,2.83597 1.80038,5.76097 1.51679,6.5 -1.10002,2.8666 -3.67788,1.18548 -6.0141,-3.92201 z M 135.03042,750.5 c 0.68469,-0.825 1.46989,-1.5 1.74489,-1.5 0.275,0 -0.0602,0.675 -0.74489,1.5 -0.68469,0.825 -1.46989,1.5 -1.74489,1.5 -0.275,0 0.0602,-0.675 0.74489,-1.5 z M 395.23634,745 c -0.0169,-1.925 0.31974,-5.75 0.74807,-8.5 l 0.77878,-5 0.0153,5.5 c 0.008,3.025 -0.32822,6.85 -0.74807,8.5 l -0.76337,3 -0.0307,-3.5 z M 154.05748,726.95 c 0.0261,-1.4009 6.4116,-8.95 7.57043,-8.95 0.31381,0 -0.89732,1.9125 -2.6914,4.25 -4.69905,6.12236 -4.90935,6.32496 -4.87903,4.7 z m 244.03057,-13.14098 c 0.0317,-1.26996 0.42995,-4.10902 0.885,-6.30902 0.82213,-3.97468 0.8281,-3.96397 0.94237,1.69098 0.0633,3.13004 -0.335,5.9691 -0.885,6.30902 -0.56111,0.34679 -0.97471,-0.39537 -0.94237,-1.69098 z M 104.69709,710.33333 C 103.76495,709.4012 103.86504,708 104.86375,708 c 0.45834,0 0.83334,0.675 0.83334,1.5 0,1.69935 -0.0731,1.76025 -1,0.83333 z m 69.36516,-8.92834 c 0.0175,-0.49775 2.30777,-3.37999 5.08949,-6.40499 l 5.05766,-5.5 -3.25578,4.7455 c -3.45814,5.04046 -6.94422,8.66217 -6.89137,7.15949 z M 103.03042,696.5 c 0,-1.49071 0.4306,-2.35191 1,-2 0.55,0.33992 1,1.23992 1,2 0,0.76008 -0.45,1.66008 -1,2 -0.5694,0.35191 -1,-0.50929 -1,-2 z m 298,-12.36043 c 0,-3.58898 1.27807,-11.13959 1.88592,-11.14167 0.33775,-10e-4 0.46318,2.92385 0.27875,6.5 -0.18443,3.57616 -0.74693,6.5021 -1.25,6.5021 -0.50307,0 -0.91467,-0.83719 -0.91467,-1.86043 z M 195.94269,674.5 c 1.35704,-2.68738 8.45592,-10.54478 7.22773,-8 -0.5309,1.1 -2.60156,3.8 -4.60147,6 -1.9999,2.2 -3.18172,3.1 -2.62626,2 z M 404.70135,653 c 0.33001,-3.025 0.76405,-5.6875 0.96454,-5.91667 0.77469,-0.88548 0.17612,7.52367 -0.67029,9.41667 -0.584,1.30612 -0.68608,0.0918 -0.29425,-3.5 z m -185.61032,-7 c -0.006,-0.825 3.17573,-4.875 7.07103,-9 l 7.08235,-7.5 -4.58892,6 c -7.73944,10.1193 -9.55232,12.10951 -9.56446,10.5 z m 189.00968,-27.58333 c 0.0386,-2.15417 0.45265,-4.81667 0.91999,-5.91667 0.52879,-1.24462 0.63817,0.0773 0.2896,3.5 -0.67074,6.58638 -1.30724,7.85805 -1.20959,2.41667 z m -193.00484,-4.48502 c -3.89253,-5.37348 -5.51416,-10.72627 -4.6481,-15.34276 0.83659,-4.45941 4.75207,-7.5231 7.11182,-5.56468 1.79586,1.49043 1.64957,1.61683 4.36823,-3.77421 1.17879,-2.3375 2.5841,-4.25 3.12292,-4.25 1.36073,0 1.22344,1.20681 -0.40129,3.52749 -1.52548,2.17891 -1.35942,9.13212 0.2567,10.74824 0.69544,0.69544 1.84846,0.47979 3.61163,-0.67549 2.54575,-1.66804 2.56801,-1.6614 1.30135,0.38848 -1.82822,2.95864 -5.44082,3.63609 -7.83514,1.46927 -2.3471,-2.12411 -2.12875,-2.36608 -4.29679,4.76147 -1.61077,5.2955 -1.62,5.95099 -0.12452,8.84293 2.45039,4.73852 1.00497,4.66191 -2.46681,-0.13074 z m 0.70292,-14.87279 C 216.06694,596.26815 215.86915,594 215.35765,594 c -2.00701,0 -3.32723,2.59238 -3.32723,6.53333 0,7.80813 2.98879,6.63869 3.76837,-1.47447 z m 36.23163,6.43248 c 0,-0.92547 5.32305,-6.50163 5.77503,-6.04964 0.63862,0.63862 -3.73291,6.5583 -4.84312,6.5583 -0.51255,0 -0.93191,-0.2289 -0.93191,-0.50866 z m -15.54436,-16.17856 c -2.6182,-2.6182 -5.45564,-10.07144 -5.45564,-14.33059 0,-4.50896 1.49923,-8.98219 3.01043,-8.98219 0.73304,0 0.72014,0.63492 -0.0418,2.05865 -1.18765,2.21916 -0.44823,7.52689 1.18959,8.53912 0.55238,0.34139 2.31775,-0.63764 3.92306,-2.17562 3.4692,-3.32371 3.46138,-3.35251 0.91113,3.35729 -1.42019,3.73656 -1.82106,6.43981 -1.37169,9.25 0.70211,4.39079 0.33235,4.78076 -2.16506,2.28334 z m 32.39749,-3.83865 c 0.53754,-1.11423 2.83817,-4.03923 5.11252,-6.5 2.27435,-2.46077 3.6723,-3.57413 3.10655,-2.47413 -1.40712,2.73587 -9.44182,11.50869 -8.21907,8.97413 z m 142.70822,-2.37486 c -0.76606,-1.23951 0.36151,-10.9777 1.51674,-13.09927 0.44923,-0.825 0.56851,1.875 0.26506,6 -0.58701,7.97977 -0.77491,8.72844 -1.7818,7.09927 z M 294.90918,553.25 c 0.52202,-0.9625 2.41458,-3.1 4.20568,-4.75 l 3.25655,-3 -2.15497,3 c -3.60854,5.02354 -4.87635,6.5 -5.58145,6.5 -0.37121,0 -0.24783,-0.7875 0.27419,-1.75 z m 968.14922,-0.67641 c -1.486,-3.90837 -1.1919,-4.52375 0.5903,-1.23518 0.846,1.56112 1.2906,3.08603 0.9879,3.38869 -0.3026,0.30265 -1.0128,-0.66643 -1.5782,-2.15351 z M 415.08805,542.30902 c 0.0317,-0.99496 0.42995,-3.60902 0.885,-5.80902 l 0.82737,-4 0.115,5.19098 c 0.0633,2.85504 -0.335,5.4691 -0.885,5.80902 -0.55,0.33992 -0.97407,-0.19602 -0.94237,-1.19098 z m -98.05763,-15.48707 c 0,-0.79627 1.44531,-2.76946 3.21181,-4.38486 3.21501,-2.94002 3.04234,-2.44715 -1.03273,2.94777 -1.24027,1.64198 -2.17908,2.26112 -2.17908,1.43709 z M 1244.8375,524.25 c -0.8266,-0.9625 -1.8827,-2.425 -2.347,-3.25 -0.736,-1.30806 -0.6205,-1.31859 0.9025,-0.0822 1.6776,1.36175 4.1135,5.08224 3.3276,5.08224 -0.2091,0 -1.0565,-0.7875 -1.8831,-1.75 z M 417.62707,513.39127 c -0.73939,-1.92683 1.25678,-14.49097 2.51684,-15.84127 1.04253,-1.11719 1.18204,6.01474 0.25059,12.81043 -0.65203,4.75702 -1.67508,5.87745 -2.76743,3.03084 z m -75.63244,-18.22692 c 0.6588,-1.2846 1.47209,-2.06139 1.80729,-1.72619 0.3352,0.3352 -0.20383,1.38624 -1.19784,2.33565 -1.72775,1.65022 -1.75457,1.6234 -0.60945,-0.60946 z m 79.59714,-15.06508 C 420.72751,478.70086 422.07194,469 423.13001,469 c 0.82859,0 0.40531,10.82843 -0.45698,11.69073 -0.24329,0.24328 -0.72985,-0.0229 -1.08126,-0.59146 z m -60.92602,-7.81278 c 0.57507,-2.19907 4.39415,-6.3382 4.32871,-4.69148 -0.0198,0.49775 -1.12875,2.24227 -2.46437,3.87672 -2.02012,2.4721 -2.33356,2.60908 -1.86434,0.81476 z M 382.715,444.17312 c 1.94832,-3.57043 4.06863,-5.75324 4.83961,-4.98226 0.26173,0.26172 -1.12859,2.23835 -3.08958,4.3925 l -3.56545,3.91664 1.81542,-3.32688 z m 17.35297,-20.77308 c -0.0486,-1.42492 5.00494,-8.32531 7.98277,-10.90004 l 2.31312,-2 -1.80038,3.11128 c -2.45213,4.23756 -8.44913,11.14748 -8.49551,9.78876 z m -321.649926,-39.496 c -0.0618,-2.69722 0.27569,-4.90404 0.75,-4.90404 1.05591,0 1.16051,8.6979 0.11238,9.34502 -0.4125,0.25468 -0.80057,-1.74376 -0.86238,-4.44098 z m -0.90341,-8.97931 c 0.53791,-4.25029 1.51579,-4.99245 1.51579,-1.15041 0,1.7092 -0.43045,3.37368 -0.95656,3.69883 -0.55955,0.34582 -0.79165,-0.71189 -0.55923,-2.54842 z m -0.79761,-9.19538 c -0.31415,-2.32614 -0.14716,-4.65685 0.3711,-5.17935 0.59194,-0.59677 0.97328,-0.0391 1.02563,1.5 0.0458,1.3475 0.19704,3.48155 0.336,4.74234 0.46491,4.21786 -1.15362,3.22493 -1.73273,-1.06299 z M 77.097704,358.5 c -0.11279,-0.55 -0.37474,-2.35 -0.58209,-4 -0.30541,-2.43016 -0.18485,-2.66213 0.63468,-1.22124 0.55643,0.97831 0.81838,2.77831 0.58209,4 -0.23628,1.22168 -0.52188,1.77124 -0.63468,1.22124 z m -0.87233,-10 c -0.0204,-1.65 0.18706,-2.44606 0.46099,-1.76903 0.27392,0.67703 0.29059,2.02703 0.0371,3 -0.25354,0.97297 -0.47766,0.41903 -0.49804,-1.23097 z m 24.155996,-31.08713 c -1.320026,-2.01463 -1.846856,-4.68509 -1.847626,-9.36554 -0.001,-6.0711 0.31032,-7.00193 4.280076,-12.79733 4.89079,-7.13999 7.66378,-8.03955 11.14402,-3.61514 3.27353,4.16161 2.66549,7.13987 -2.46038,12.05131 -3.5099,3.36308 -4.72649,5.37927 -5.39046,8.93334 -0.47163,2.52449 -1.53736,5.26984 -2.36829,6.10077 -1.34771,1.34771 -1.7101,1.20659 -3.35734,-1.30741 z m 12.14905,-22.02115 c 0,-3.81021 -2.75318,-4.32623 -4.35264,-0.8158 -0.66506,1.45964 -0.93085,3.53089 -0.59064,4.60277 0.5585,1.75971 0.82844,1.80952 2.78091,0.51312 1.37904,-0.91564 2.16237,-2.47338 2.16237,-4.30009 z m -46.663226,20.59889 c -2.71977,-2.71976 -2.94123,-3.41285 -2.30112,-7.20162 1.75464,-10.38565 7.36066,-17.18899 14.16388,-17.18899 1.83097,0 4.08333,0.75429 5.00523,1.67619 2.13132,2.13132 1.11577,3.25319 -1.47836,1.63313 -1.64629,-1.02813 -2.45393,-0.88349 -4.93619,0.88403 -4.274,3.04336 -5.01648,4.15839 -7.70533,11.57151 -2.06928,5.70498 -2.21541,6.86175 -1.01807,8.05909 4.09436,4.09436 14.34401,-7.10552 14.41123,-15.74727 0.042,-5.39992 4.31939,-2.24565 6.54073,4.82332 0.49467,1.5742 1.21234,0.62919 3.3709,-4.43868 1.50833,-3.54128 3.3334,-6.63568 4.05571,-6.87645 2.21992,-0.73997 0.82946,10.66886 -1.99505,16.36959 -2.93027,5.91422 -5.91146,6.96069 -8.51403,2.98867 l -1.6901,-2.57942 -4.83026,4.51815 c -5.82907,5.45241 -8.79354,5.79438 -13.07917,1.50875 z m 802.413926,-37.8145 c -1.7243,-1.0949 -6.4488,-13.42669 -5.4084,-14.11683 0.4638,-0.3076 1.1416,-2.09139 1.5064,-3.96397 0.688,-3.53229 2.2681,-6.09531 3.7576,-6.09531 0.4737,0 0.1342,1.52494 -0.7546,3.38875 -1.1094,2.32635 -1.4015,4.53206 -0.9319,7.03556 0.6623,3.53032 0.7943,3.62615 4.1322,2.99996 3.8818,-0.72823 4.4332,0.37417 1.5103,3.01939 -1.5396,1.39324 -1.7436,2.26438 -0.9929,4.2389 1.3723,3.60951 0.014,5.29251 -2.8187,3.49355 z m 29.1503,-20.1848 c 2.0105,-6.5865 2.019,-6.56134 -3.3114,-9.84114 -2.7993,-1.72242 -5.0896,-3.56075 -5.0896,-4.08516 0,-0.52442 1.0541,-2.17893 2.3424,-3.67671 1.64,-1.90655 2.8803,-2.5168 4.1361,-2.03491 1.7037,0.65374 1.7067,0.78453 0.06,2.60445 -1.9883,2.19701 -1.3609,3.77888 2.0066,5.05921 1.2928,0.49152 3.1237,2.07364 4.0687,3.51581 2.099,3.2035 1.0794,6.94935 -2.5432,9.3438 -2.3833,1.57524 -2.4152,1.55831 -1.6693,-0.88535 z M 203.72427,241.36052 c -0.35171,-0.35171 -0.39562,-1.03405 -0.0976,-1.51631 0.63919,-1.03422 2.40372,-0.14245 2.40372,1.21481 0,1.07509 -1.35536,1.25229 -2.30615,0.3015 z m 548.02045,-1.3761 c 0.7736,-2.95833 2.0776,-3.34676 1.5247,-0.45416 -0.2597,1.35836 -0.8276,2.46974 -1.262,2.46974 -0.4343,0 -0.5526,-0.90701 -0.2627,-2.01558 z M 427.7209,227.35714 c -0.86463,-0.86462 -0.88318,-7.7757 -0.0474,-17.66276 0.62224,-7.36114 0.70787,-7.56199 2.64532,-6.20495 1.11803,0.78311 3.16267,1.17036 4.62992,0.87691 4.48106,-0.89621 6.54994,2.52047 6.75798,11.16057 0.0969,4.02651 -0.0911,8.34357 -0.41801,9.59346 -0.5616,2.14756 -0.63616,2.16549 -1.35599,0.32608 -0.41894,-1.07055 -0.79334,-5.40739 -0.83199,-9.63743 -0.0387,-4.23004 -0.43292,-7.9151 -0.87612,-8.18902 -0.44321,-0.27392 -1.90571,0.0484 -3.25,0.7162 -2.19196,1.08894 -2.501,2.01289 -2.99487,8.95401 -0.52002,7.30839 -2.45158,11.87418 -4.25882,10.06693 z m -16.09085,-4.5361 c -0.26078,-1.27657 -0.7349,-3.55437 -1.05361,-5.06178 -1.3325,-6.3023 3.25662,-15.44254 9.40564,-18.73339 2.45276,-1.31268 5.29834,0.94567 5.29834,4.20495 0,3.29811 -4.79557,9.61702 -7.88752,10.39305 -2.48926,0.62477 -3.33538,2.79226 -3.03647,7.77851 0.21036,3.50915 -2.05821,4.68958 -2.72638,1.41866 z m 7.86557,-15.92463 C 423.22393,203.62291 424.09486,201 421.4535,201 c -2.04395,0 -7.42308,5.37913 -7.42308,7.42308 0,2.35451 1.53229,1.92647 5.4652,-1.52667 z M 879.34032,160.5 c -0.01,-3.3 0.1765,-4.77056 0.4046,-3.26791 0.2282,1.50265 0.2328,4.20265 0.01,6 -0.2225,1.79735 -0.4092,0.56791 -0.4148,-2.73209 z m -204.87801,-3.61021 c -0.34769,-0.56257 -0.37793,-1.27708 -0.0672,-1.5878 0.31072,-0.31073 0.11495,-1.40579 -0.43505,-2.43347 -1.14129,-2.13252 0.0593,-2.48001 3.04591,-0.88161 1.17518,0.62894 1.65968,1.69202 1.33572,2.93083 -0.59047,2.25796 -2.95865,3.46181 -3.87937,1.97205 z M 878.19412,150.5 c -0.1021,-2.2 -0.3988,-5.8 -0.6593,-8 l -0.4736,-4 1.0255,4 c 0.564,2.2 0.8607,5.8 0.6593,8 l -0.3662,4 -0.1857,-4 z m 9.5043,-37.66167 c -0.6672,-2.55125 0.1565,-4.26009 6.0638,-12.5798 5.2264,-7.36095 5.629,-7.671009 8.1835,-6.303865 1.2699,0.679653 4.611,0.762757 9.52,0.236795 12.5068,-1.340021 12.3735,0.80053 -0.2355,3.779775 -6.2915,1.486548 -8.6251,4.260215 -8.0109,9.521505 0.4706,4.03106 -0.8387,4.75062 -1.7849,0.98088 -0.8065,-3.21335 -3.9829,-5.06801 -5.9226,-3.45816 -0.765,0.63484 -2.5552,3.14106 -3.9783,5.56939 -1.4231,2.42833 -2.741,4.41515 -2.9286,4.41515 -0.1877,0 -0.5956,-0.97275 -0.9065,-2.16167 z m -9.0622,-1.72139 c -0.8701,-0.96149 -1.8686,-3.18115 -2.2189,-4.93256 -0.3503,-1.75141 -0.9465,-3.18438 -1.3248,-3.18438 -0.3784,0 -1.9614,1.32924 -3.5179,2.95386 -7.0068,7.31356 -14.5442,7.52706 -14.5442,0.41197 0,-4.34593 3.279,-9.106612 9.2531,-13.434198 4.9546,-3.589075 7.7788,-3.84013 7.668,-0.681632 -0.043,1.2375 -0.3048,1.691095 -0.5807,1.00799 -0.6564,-1.624918 -3.2149,-0.269567 -8.4936,4.499393 -4.3112,3.894877 -7.2859,8.723137 -6.3286,10.271987 1.1036,1.7858 5.0478,0.99753 9.6674,-1.93211 3.4272,-2.17344 5.2424,-4.30903 7.2251,-8.500002 2.9577,-6.252036 5.1865,-7.502214 4.1847,-2.347258 -2.5744,13.24733 -1.4919,16.51283 3.0713,9.26486 1.5583,-2.47513 4.186,-6.635382 5.8393,-9.245006 1.6533,-2.609625 3.8123,-4.900064 4.7979,-5.089864 1.6934,-0.326114 1.7039,-0.134322 0.1911,3.487459 -2.3344,5.588691 -10.2757,18.034431 -11.9068,18.660321 -0.7701,0.29554 -2.1122,-0.24933 -2.9824,-1.21083 z"
     id="path3142"
     style="fill:#000000" />
</svg>
