<?xml version="1.0" encoding="UTF-8" standalone="no"?>
<!-- Created with Inkscape (http://www.inkscape.org/) -->

<svg
   xmlns:dc="http://purl.org/dc/elements/1.1/"
   xmlns:cc="http://creativecommons.org/ns#"
   xmlns:rdf="http://www.w3.org/1999/02/22-rdf-syntax-ns#"
   xmlns:svg="http://www.w3.org/2000/svg"
   xmlns="http://www.w3.org/2000/svg"
   version="1.1"
   width="1609.4398"
   height="1763"
   id="svg3027">
  <metadata
     id="metadata3033">
    <rdf:RDF>
      <cc:Work
         rdf:about="">
        <dc:format>image/svg+xml</dc:format>
        <dc:type
           rdf:resource="http://purl.org/dc/dcmitype/StillImage" />
        <dc:title></dc:title>
      </cc:Work>
    </rdf:RDF>
  </metadata>
  <defs
     id="defs3031" />
  <path
     d="m 1204.7099,1761.6863 c -0.6363,-1.6582 15.3124,-14.6504 22.3817,-18.2327 2.8457,-1.442 7.2517,-4.5157 9.7912,-6.8305 2.5395,-2.3147 7.1682,-5.9265 10.286,-8.0261 5.2649,-3.5456 19.7211,-19.6331 24.3494,-27.097 1.0231,-1.65 3.4151,-4.9551 5.3156,-7.3447 3.564,-4.4813 13.4216,-22.1477 14.6787,-26.3065 0.3905,-1.2919 1.2813,-3.6988 1.9795,-5.3488 0.6982,-1.65 2.2793,-5.925 3.5136,-9.5 1.2342,-3.575 3.5858,-9.425 5.2258,-13 12.0089,-26.178 18.7313,-47.0648 18.7592,-58.286 0.01,-2.0823 1.173,-10.4073 2.5953,-18.5 1.4222,-8.0927 2.9783,-17.864 3.458,-21.714 0.4797,-3.85 1.3101,-10.375 1.8453,-14.5 0.5351,-4.125 1.2417,-13.8 1.5701,-21.5 0.3284,-7.7 0.8192,-15.575 1.0906,-17.5 0.2714,-1.925 0.689,-11.6 0.9281,-21.5 0.4501,-18.6403 0.9297,-21.454 7.5008,-44 2.0541,-7.0475 2.8047,-9.9943 5.3497,-21 2.5442,-11.0022 8.528,-25.8659 15.6949,-38.9859 3.9015,-7.1423 7.6794,-13.6673 8.3953,-14.5 0.716,-0.8328 3.4228,-5.4455 6.0151,-10.2506 2.5924,-4.805 5.1027,-8.977 5.5785,-9.2711 0.4758,-0.2941 2.3244,-3.1127 4.1081,-6.2635 1.7836,-3.1509 4.7162,-7.5508 6.5168,-9.7776 3.1064,-3.8416 7.065,-9.5082 18.3937,-26.3296 2.9288,-4.3488 4.9691,-8.4938 4.9691,-10.095 0,-1.4942 0.8906,-3.5227 1.979,-4.5077 2.1598,-1.9546 5.4405,-9.9665 7.0839,-17.2996 1.1149,-4.9748 -0.6007,-15.4756 -3.766,-23.0513 -0.8402,-2.0107 -2.1309,-7.2586 -2.8684,-11.662 -5.1376,-30.6775 -7.4909,-35.385 -28.3547,-56.721 -14.7459,-15.0796 -18.0849,-19.1074 -16.8575,-20.3347 0.2918,-0.2918 7.45,-0.7403 15.9071,-0.9967 17.0812,-0.5179 27.8704,-1.922 32.3386,-4.2086 1.6291,-0.8336 7.9291,-6.5517 14,-12.7067 6.0709,-6.155 13.1352,-12.613 15.6985,-14.3511 5.655,-3.8346 11.1744,-10.1179 13.7137,-15.6117 5.8389,-12.6328 6.7418,-14.8423 14.7419,-36.0756 1.3116,-3.4811 1.8796,-7.5821 1.8699,-13.5 -0.016,-9.4379 -1.5924,-13.5366 -9.1315,-23.7353 -2.12,-2.8679 -6.3175,-8.7132 -9.3279,-12.9896 -3.0104,-4.2763 -9.4227,-11.89682 -14.2496,-16.93448 -9.7588,-10.18491 -13.544,-16.86647 -16.2275,-28.64445 -0.9018,-3.95789 -2.2734,-9.67117 -3.048,-12.69617 -1.6901,-6.59966 -3.1003,-15.77241 -3.8179,-24.83411 -1.193,-15.06382 9.2433,-36.78418 26.5274,-55.20982 2.041,-2.17584 4.0197,-3.95607 4.397,-3.95607 0.3773,0 2.5324,-1.49884 4.789,-3.33076 4.8628,-3.94752 16.1811,-10.66924 17.9654,-10.66924 0.6904,0 3.9288,-1.62867 7.1964,-3.61926 3.2677,-1.9906 7.9662,-4.76595 10.4412,-6.16744 2.475,-1.40149 7.9562,-5.28533 12.1805,-8.63074 9.175,-7.26607 15.4944,-11.1802 38.8816,-24.08256 2.9908,-1.65 10.7698,-8.175 17.2866,-14.5 21.7746,-21.13379 27.9962,-31.53373 36.7461,-61.42424 3.3206,-11.34312 3.4862,-13.13758 1.4052,-15.21862 -0.825,-0.825 -1.5,-2.5081 -1.5,-3.74023 0,-7.96848 -8.8164,-30.62795 -16.1375,-41.47574 -1.6959,-2.51286 -5.1452,-8.38205 -7.6652,-13.04264 -7.6076,-14.07017 -26.7469,-41.46451 -41.3431,-59.17489 -2.0052,-2.433 -4.8833,-6.67364 -6.3959,-9.42364 -1.5126,-2.75 -3.9639,-6.575 -5.4473,-8.5 -4.0451,-5.24936 -18.6259,-27.34579 -20.5632,-31.16244 -0.9317,-1.83566 -4.2552,-7.16256 -7.3854,-11.83756 -3.1302,-4.675 -7.4269,-11.65 -9.5481,-15.5 -7.3123,-13.27159 -26.1851,-40.91898 -37.5445,-55 -15.4289,-19.12556 -26.9139,-35.52504 -43.9114,-62.701 -10.5851,-16.92376 -26.1783,-35.98235 -43.9524,-53.72019 C 1351.9691,343.96046 1340.6286,332 1335.905,326.5 c -4.7236,-5.5 -12.5971,-14.31291 -17.4967,-19.58425 -27.1107,-29.16781 -41.4496,-48.12283 -51.4256,-67.98113 -1.7779,-3.53904 -3.6358,-6.58778 -4.1287,-6.77497 -3.523,-1.33806 -4.88,-12.37245 -3.9472,-32.09795 0.7141,-15.10116 6.1359,-30.74994 17.8646,-51.5617 4.5601,-8.09159 11.4087,-27.16946 12.7439,-35.5 0.3966,-2.475 1.2966,-5.62551 1.9999,-7.00114 0.7033,-1.37563 2.2487,-7.237257 3.4343,-13.025838 1.7952,-8.765804 2.0911,-13.02718 1.7706,-25.498858 C 1296.5085,59.238374 1295.6251,48 1294.757,42.5 c -0.8681,-5.5 -1.8328,-15.852429 -2.1438,-23.005398 -0.3109,-7.152969 -0.8574,-14.4654689 -1.2143,-16.25 C 1290.8057,0.27841932 1290.9642,0 1293.246,0 c 2.7411,0 2.829,0.54635432 4.3406,26.991619 0.2984,5.220391 1.301,12.645391 2.228,16.5 1.2758,5.305351 1.6772,11.503865 1.6516,25.508381 -0.035,19.33296 -0.1456,20.073126 -5.889,39.5 -1.3008,4.4 -3.3612,11.375 -4.5786,15.5 -2.903,9.83594 -8.6111,23.24692 -12.5562,29.5 -4.05,6.4194 -11.793,24.39563 -13.5681,31.5 -0.8701,3.48198 -1.3743,11.18714 -1.3743,21 l 0,15.5 5.3986,10.5 c 10.3995,20.22642 20.0732,34.56586 32.8504,48.69416 3.8826,4.29321 8.9261,10.18497 11.2076,13.0928 2.2816,2.90782 7.5542,8.75782 11.7168,13 4.1627,4.24217 10.26,10.86304 13.5496,14.71304 3.2896,3.85 14.9544,16.10695 25.9218,27.23767 10.9673,11.13072 23.9927,25.30572 28.9454,31.5 8.8417,11.05836 11.7188,15.17658 27.4302,39.26233 11.1304,17.06307 21.4608,31.37632 31.3956,43.5 14.0287,17.11965 32.5157,43.62789 40.0232,57.38858 2.2785,4.1764 6.0206,10.41 8.3157,13.85244 2.295,3.44244 6.2141,9.67622 8.7089,13.85284 6.3932,10.70259 23.1898,35.23114 26.9844,39.40614 0.9998,1.1 2.6068,3.575 3.5711,5.5 0.9643,1.925 3.1544,5.12319 4.867,7.10709 5.4943,6.36493 24.203,32.13191 29.3281,40.39291 16.0842,25.9257 25.1916,42.00221 29.1749,51.5 1.2687,3.025 3.2979,6.44757 4.5094,7.60571 2.097,2.00454 2.1905,2.79725 1.9468,16.5 -0.204,11.47489 -0.745,16.21964 -2.6673,23.39429 -3.9,14.55604 -8.2786,25.2994 -13.9052,34.11741 -6.3467,9.94648 -30.2572,35.44378 -35.5821,37.94337 -2.03,0.95291 -5.4909,2.95673 -7.6909,4.45294 -2.2,1.49622 -6.7,4.16046 -10,5.92055 -9.8753,5.26709 -21.0586,12.50932 -27.9475,18.09864 -7.3438,5.95828 -14.2505,10.15901 -26.5525,16.14943 -10.6146,5.16874 -23.6075,13.49289 -29.4124,18.84366 -6.4518,5.94707 -11.7075,13.19 -17.5801,24.22754 -8.2628,15.5297 -9.607,24.73744 -6.0215,41.24646 3.0782,14.17277 7.8183,31.10653 10.0073,35.75062 1.1017,2.33716 6.4105,8.97438 11.7973,14.74938 17.7952,19.0772 31.561,39.1251 33.291,48.4834 1.2122,6.5574 -0.6746,16.9135 -5.1043,28.0166 -1.7554,4.4 -3.7784,9.575 -4.4955,11.5 -7.093,19.0403 -11.8929,26.5915 -20.9818,33.0087 -3.628,2.5616 -13.3995,11.888 -22.5,21.4753 -7.4438,7.8419 -18.8628,11.0908 -41.8261,11.9004 -6.7794,0.239 -12.585,0.6933 -12.9013,1.0096 -0.6101,0.6102 1.8052,3.2482 19.8729,21.7052 8.8965,9.0883 12.3075,13.3972 15.757,19.9049 4.3635,8.2321 9.0724,24.4132 9.1186,31.3339 0.012,1.7391 1.0985,6.2148 2.4152,9.9459 3.8817,10.9988 5.1009,19.7378 3.6551,26.1985 -0.6755,3.0181 -0.929,5.9714 -0.5634,6.5629 1.0079,1.6309 -1.6404,7.173 -4.6319,9.6931 -1.4615,1.2311 -3.3999,3.7061 -4.3076,5.5 -0.9077,1.7939 -4.3549,7.0866 -7.6604,11.7616 -15.4974,21.918 -28.4088,41.5397 -32.5719,49.5 -1.4381,2.75 -4.4713,7.925 -6.7402,11.5 -2.269,3.575 -4.7716,7.85 -5.5613,9.5 -0.7898,1.65 -3.5599,6.825 -6.1559,11.5 -5.0735,9.1365 -8.242,18.5228 -15.5283,46 -8.0322,30.2899 -8.3277,32.2049 -8.7954,57 -0.2334,12.375 -0.6662,25.425 -0.9617,29 -0.2956,3.575 -0.7906,11 -1.1002,16.5 -0.6199,11.0135 -3.6886,34.7972 -5.9997,46.5 -0.8146,4.125 -1.7539,10.65 -2.0873,14.5 -1.154,13.3243 -4.1527,24.782 -10.4691,40 -7.6624,18.4612 -11.7089,28.4928 -15.8981,39.4123 -7.5368,19.6455 -19.2574,39.092 -32.5191,53.9547 -2.8227,3.1634 -6.1229,7.143 -7.3339,8.8436 -1.2109,1.7006 -4.5651,4.6669 -7.4538,6.5917 -2.8887,1.9247 -7.8813,5.8077 -11.0947,8.6287 -3.2134,2.821 -7.9384,6.2053 -10.5,7.5206 -2.5616,1.3154 -9.1491,5.8019 -14.6389,9.97 -10.1811,7.73 -11.9201,8.5805 -12.8087,6.2647 z M 1587.5,1762 c -0.3399,-0.55 -0.1415,-1 0.441,-1 0.5824,0 1.059,0.45 1.059,1 0,0.55 -0.1984,1 -0.441,1 -0.2425,0 -0.7191,-0.45 -1.059,-1 z m -5.9879,-1.9804 c -0.4058,-0.6566 -0.2878,-1.6439 0.2622,-2.1939 1.3032,-1.3032 2.339,0.3729 1.2847,2.0788 -0.6146,0.9945 -0.9863,1.0222 -1.5469,0.1151 z m -387.3837,-119.3649 c -3.6613,-4.4116 -1.4501,-14.6928 4.0931,-19.0309 l 3.0645,-2.3984 -1.643,-10.5492 c -2.0967,-13.4624 -2.1126,-19.0415 -0.059,-20.7458 3.8693,-3.2112 8.0423,4.9537 6.9353,13.5696 -0.7913,6.1582 -0.8344,7.8274 -0.4779,18.5 0.1697,5.0806 -0.2518,10.2244 -1.0479,12.7866 -2.3083,7.4296 -7.8801,11.4646 -10.8649,7.8681 z m 6.5479,-11.3177 c 0.4204,-4.5163 0.3466,-4.7083 -1.113,-2.8959 -1.8268,2.2684 -2.2534,10.649 -0.4503,8.8459 0.6122,-0.6122 1.3157,-3.2897 1.5633,-5.95 z m -46.7562,-12.387 c -0.1616,-27.2079 0.1285,-74.09 0.6,-96.95 0.761,-36.9029 1.4032,-85.5842 1.9589,-148.5 0.2818,-31.9 0.7346,-68.575 1.0062,-81.5 0.2717,-12.925 0.7241,-43.525 1.0054,-68 0.2812,-24.475 0.7385,-59.8 1.0163,-78.5 0.2777,-18.7 0.7278,-54.925 1.0001,-80.5 0.2724,-25.575 0.7149,-62.925 0.9835,-83 0.2686,-20.075 0.7238,-55.4 1.0116,-78.5 0.2878,-23.1 0.7382,-57.075 1.0009,-75.5 0.2627,-18.425 0.7188,-53.525 1.0135,-78 0.2948,-24.475 0.7337,-51.475 0.9754,-60 0.2418,-8.525 0.7115,-41.375 1.044,-73 0.3325,-31.625 0.7668,-61.18322 0.9652,-65.68493 0.2453,-5.56871 -0.025,-8.50525 -0.8468,-9.18703 -0.7499,-0.62237 -21.8678,-1.27348 -55.7321,-1.71833 -50.5829,-0.66447 -54.7143,-0.59203 -57.1473,1.0021 -2.4793,1.62454 -2.804,1.62448 -5.9475,-10e-4 -3.5601,-1.84096 -18.776,-2.41594 -101.8274,-3.84783 -19.525,-0.33663 -42.475,-0.81765 -51,-1.06893 -8.525,-0.25129 -36.2,-0.69584 -61.5,-0.9879 -25.3,-0.29205 -56.35,-0.75224 -69,-1.02263 -12.65,-0.2704 -36.5,-0.71231 -53,-0.98202 -16.5,-0.26972 -41.025,-0.71288 -54.5,-0.9848 -13.475,-0.27192 -41.6,-0.72983 -62.5,-1.01758 -20.9,-0.28775 -45.425,-0.73857 -54.5,-1.00182 -9.075,-0.26325 -31.575,-0.71062 -50,-0.99415 -53.43944,-0.82235 -90.83919,-1.4769 -114.5,-2.00391 -12.1,-0.26951 -34.6,-0.71976 -50,-1.00055 -15.4,-0.2808 -38.8,-0.72809 -52,-0.99399 -13.2,-0.26591 -37.5,-0.71091 -54,-0.9889 -16.5,-0.278 -44.96352,-0.78701 -63.25228,-1.13114 -26.16072,-0.49224 -33.57879,-0.35469 -34.78334,0.64499 -2.28791,1.8988 -13.47719,2.19207 -16.17567,0.42396 -3.50633,-2.29744 -4.78281,-1.81635 -11.375552,4.28737 -5.006216,4.63487 -6.051526,5.261 -5.425804,3.25 0.426271,-1.36999 1.665091,-3.7543 2.752933,-5.29847 1.087843,-1.54416 1.72675,-3.05872 1.419794,-3.36567 C 91.781717,520.44838 86.925765,520.26241 47,519.57807 7.4260959,518.89975 0,518.45671 0,516.77404 c 0,-0.70477 6.8259717,-0.83735 21.25,-0.41275 11.6875,0.34405 34.975,0.90879 51.75,1.25498 30.21467,0.62355 30.51782,0.60957 32.40499,-1.49342 2.36357,-2.63389 4.36151,-2.68839 7.03056,-0.19178 2.48519,2.32462 11.56799,2.74954 76.06445,3.55853 23.1,0.28974 51.225,0.74531 62.5,1.01236 11.275,0.26706 36.925,0.71727 57,1.00049 20.075,0.28321 48.65,0.73286 63.5,0.99922 14.85,0.26636 44.775,0.71816 66.5,1.00401 21.725,0.28586 48.95,0.73363 60.5,0.99506 20.18744,0.45694 47.84925,0.91488 121,2.00315 18.7,0.2782 47.725,0.72578 64.5,0.9946 16.775,0.26883 48.05,0.74679 69.5,1.06214 21.45,0.31535 42.375,0.73543 46.5,0.9335 4.125,0.19808 41.475,0.67033 83,1.04945 41.525,0.37912 75.77577,0.85031 76.11283,1.0471 0.33706,0.19679 13.57988,0.39492 29.4285,0.44029 25.09757,0.0718 28.92807,-0.11838 29.68687,-1.47424 1.106,-1.97627 4.5964,-1.98983 8.5187,-0.0331 1.6798,0.838 6.7539,1.80893 11.2757,2.15763 7.0399,0.54288 8.3548,0.39577 9.1491,-1.02363 1.1424,-2.04135 5.6463,-2.10988 8.2694,-0.12583 2.7735,2.09775 5.2266,1.82344 8.9258,-0.99811 3.1823,-2.42723 17.3876,-10.53369 18.4587,-10.53369 1.3707,0 -5.7001,6.37585 -8.8925,8.01849 -1.9618,1.00944 -4.1253,2.50814 -4.8077,3.33046 -1.5405,1.85614 2.8872,2.10699 44.8746,2.54246 16.225,0.16827 34.4677,0.4592 40.5393,0.64651 6.0716,0.18731 11.5289,0.0304 12.1274,-0.34868 0.7455,-0.47222 1.2884,-16.11753 1.7242,-49.68924 0.3499,-26.95 0.8486,-58 1.1082,-69 0.2597,-11 0.7568,-42.84082 1.1048,-70.75737 l 0.6327,-50.75738 -4.3683,-4.07193 c -2.4026,-2.23957 -5.3344,-4.7326 -6.5152,-5.54007 -1.1808,-0.80747 -3.4062,-3.35928 -4.9453,-5.67069 -1.5392,-2.31141 -4.0119,-5.55256 -5.4949,-7.20256 -5.2973,-5.89381 -19.675,-31.35526 -21.8912,-38.76729 C 1126.8322,228.75472 1125.0396,223.7 1124.038,221.5 1116.5741,205.10441 1112,193.7565 1112,191.63475 c 0,-2.41691 4.3746,-6.63475 6.8813,-6.63475 0.5899,0 1.8264,-1.15047 2.7477,-2.55661 0.9214,-1.40613 3.5193,-3.84893 5.7731,-5.42843 6.5378,-4.58169 11.2809,-9.25187 13.0994,-12.8979 0.9281,-1.86062 4.0787,-5.68562 7.0014,-8.5 3.0816,-2.96735 6.4022,-7.4671 7.9043,-10.71097 3.0487,-6.58382 4.8567,-8.40973 10.1371,-10.23787 6.1443,-2.12718 6.027,1.52424 1.9649,-61.16822 -1.7289,-26.683516 -1.826,-31.650004 -0.5769,-29.5 0.8461,1.456277 2.6167,16.770044 5.2609,45.5 1.2515,13.59845 1.3069,13.81356 1.9307,7.5 0.3533,-3.575 0.6949,-16.935942 0.7592,-29.690983 0.072,-14.252119 0.5023,-23.429202 1.1169,-23.809017 0.6587,-0.407085 1.0102,10.5804 1.0298,32.190983 0.026,29.128227 0.3428,43.584287 1.3631,62.309017 0.3201,5.8749 3.67,14.42987 11.1525,28.4818 4.095,7.69018 6.1142,14.95747 8.0624,29.0182 0.7127,5.14307 13.2288,31.00773 21.4718,44.37142 9.5485,15.48036 24.2131,40.76593 27.9125,48.12858 5.023,9.99704 6.8272,12.00214 32.842,36.5 4.0885,3.85 12.8858,12.40303 19.5497,19.00672 6.6639,6.6037 17.2912,16.33863 23.6162,21.63318 16.2965,13.64152 26.6987,23.25547 34.0941,31.51056 3.5233,3.93276 6.9684,7.19526 7.6559,7.25 0.6875,0.0548 1.25,0.55144 1.25,1.10377 0,0.55233 2.448,4.19497 5.44,8.09477 2.992,3.8998 6.9171,9.93939 8.7224,13.42132 3.2044,6.1804 3.2387,6.37903 1.4438,8.36234 l -1.8385,2.03156 -3.616,-2.45711 c -1.9888,-1.35141 -4.074,-2.46346 -4.6338,-2.47122 -0.5599,-0.008 -3.4929,-2.52129 -6.5179,-5.58564 -3.025,-3.06435 -8.7221,-7.8113 -12.6603,-10.54878 -3.9382,-2.73748 -10.0132,-8.19869 -13.5,-12.13601 -8.4934,-9.59075 -23.07,-24.21364 -29.8397,-29.93459 -15.453,-13.05902 -20.8799,-15.93151 -37.5,-19.84911 -2.75,-0.64822 -6.125,-1.62643 -7.5,-2.17381 -1.375,-0.54737 -5.2,-1.82166 -8.5,-2.83174 -11.139,-3.4095 -15.9931,-5.22388 -17.5649,-6.56549 -0.8607,-0.73465 -3.1107,-1.85642 -5,-2.49281 -1.8893,-0.6364 -5.4481,-2.77952 -7.9084,-4.7625 -6.2491,-5.03679 -10.0374,-7.74895 -13.5267,-9.68439 -1.65,-0.91522 -5.495,-3.34965 -8.5443,-5.40986 -3.0494,-2.06021 -6.4776,-4.04202 -7.6182,-4.40403 -1.1405,-0.362 -2.8778,-1.5467 -3.8606,-2.63266 -0.9828,-1.08596 -2.434,-1.97447 -3.225,-1.97447 -1.1777,0 -1.3318,1.40371 -0.851,7.75 0.323,4.2625 1.2649,17.7625 2.0932,30 0.8282,12.2375 2.1803,32.0375 3.0045,44 0.8242,11.9625 1.9551,29.625 2.513,39.25 0.5579,9.625 1.2451,19.3 1.5272,21.5 0.282,2.2 1.6267,20.72728 2.9883,41.17173 1.3616,20.44446 2.7481,37.88196 3.0812,38.75 0.3797,0.98938 1.965,1.63871 4.2487,1.74025 2.0036,0.0891 5.443,0.24544 7.643,0.34746 2.2,0.10202 22.45,0.48364 45,0.84804 102.1202,1.65022 159.3904,2.87027 164,3.49377 3.4538,0.46716 5,1.13589 5,2.16252 0,1.26779 -3.0865,1.48623 -21,1.48623 -11.55,0 -33.375,-0.33441 -48.5,-0.74314 -15.125,-0.40873 -42.35,-0.97579 -60.5,-1.26013 -18.15,-0.28434 -46.1094,-0.7846 -62.1321,-1.11168 -16.0226,-0.32708 -30.1496,-0.27173 -31.3933,0.12302 -2.2485,0.71363 -2.2574,0.79525 -1.5769,14.35482 0.8788,17.5112 1.7629,30.75897 4.6138,69.13711 0.5107,6.875 1.19,18.125 1.5097,25 0.3196,6.875 0.9923,17.225 1.4949,23 0.5025,5.775 1.1567,15 1.4538,20.5 0.5106,9.45667 3.1538,49.76261 5.574,85 1.1382,16.57162 1.4503,21.45361 2.397,37.5 1.8749,31.77868 3.7157,58.99962 4.6661,69 0.6011,6.325 1.2551,16.225 1.4534,22 0.1983,5.775 0.5933,13.65 0.8778,17.5 0.2844,3.85 0.9758,13.75 1.5363,22 0.5605,8.25 1.7102,25.125 2.5548,37.5 8.9357,130.9184 9.8983,150 7.5671,150 -2.2437,0 -3.5638,-12.6006 -7.0721,-67.5 -2.1674,-33.9168 -3.3823,-51.8194 -5.5309,-81.5 -0.7764,-10.725 -1.9028,-27.6 -2.5031,-37.5 -2.2727,-37.47887 -2.8165,-42.82325 -4.4505,-43.73764 -0.8469,-0.47396 -1.5398,-1.70808 -1.5398,-2.7425 0,-1.16555 -0.8258,-2.00228 -2.1717,-2.20031 -3.7668,-0.55427 -3.3801,-2.81955 0.4814,-2.81955 3.6232,0 5.1762,-1.78182 4.263,-4.89088 -0.26,-0.88501 -1.1751,-13.30912 -2.0337,-27.60912 -1.4143,-23.55648 -2.9679,-47.99456 -4.0687,-64 -0.227,-3.3 -0.8849,-13.425 -1.462,-22.5 -0.5771,-9.075 -1.2704,-19.65 -1.5406,-23.5 -2.6082,-37.16728 -4.3813,-65.38174 -4.9331,-78.5 -0.2661,-6.325 -0.681,-12.625 -0.9222,-14 -0.2411,-1.375 -0.7199,-7.225 -1.0639,-13 -0.3441,-5.775 -0.8323,-13.425 -1.0851,-17 -0.2528,-3.575 -0.9101,-13.475 -1.4608,-22 -1.7997,-27.86358 -2.1094,-32.44161 -2.503,-37 -0.2137,-2.475 -0.6571,-8.775 -0.9852,-14 -0.3281,-5.225 -0.8426,-11.1875 -1.1434,-13.25 l -0.5468,-3.75 -12.2956,0 -12.2956,0 -0.6451,6.25 c -0.4716,4.57017 -2.3647,131.24404 -2.2827,152.75 0.01,1.375 -0.2821,21.625 -0.6386,45 -0.3564,23.375 -0.915,66.62249 -1.2412,96.10554 l -0.5932,53.60554 3.8339,0.63345 c 2.1086,0.3484 5.6339,0.6453 7.8339,0.65978 2.9535,0.0194 3.6076,0.27993 2.5,0.99569 -0.825,0.53316 -4.245,0.97627 -7.6,0.98469 l -6.0999,0.0153 -0.6348,11.75 c -0.3491,6.4625 -0.6706,28.625 -0.7145,49.25 -0.044,20.625 -0.259,38.85 -0.4779,40.5 -0.219,1.65001 -0.4964,29.77501 -0.6164,62.50001 -0.12,32.725 -0.5267,80.65 -0.9037,106.5 -0.377,25.85 -0.9733,76.7 -1.325,113 -0.3517,36.3 -0.8655,75.9 -1.1417,88 -0.2761,12.1 -0.7194,45.175 -0.9849,73.5 -0.2656,28.325 -0.7641,73.5988 -1.1078,100.6085 -0.5792,45.5193 -0.4983,49.3018 1.1071,51.7519 1.8201,2.7778 1.6868,4.4745 -0.8752,11.1396 -0.8456,2.2 -1.5573,6.1632 -1.5814,8.8072 -0.048,5.2511 -1.8085,13.635 -3.1799,15.1428 -0.49,0.5388 -0.8986,-4.8723 -0.9439,-12.5 z m 42.6023,-1088.7 c -0.4433,-5.74596 -2.1088,-32.52746 -4.058,-65.25 -0.2784,-4.675 -1.1505,-17.95 -1.9379,-29.5 -0.7873,-11.55 -1.6857,-25.275 -1.9963,-30.5 -0.3106,-5.225 -0.792,-12.2 -1.0699,-15.5 -0.6028,-7.15982 -3.102,-47.89532 -4.0185,-65.5 -0.6836,-13.12855 -2.0302,-17.89788 -5.799,-20.53762 -1.8874,-1.322 -2.1636,-1.28674 -2.7704,0.35364 -0.3708,1.00212 -0.9547,22.71598 -1.2978,48.25301 -0.343,25.53703 -0.8234,56.55597 -1.0674,68.93097 -0.2441,12.375 -0.5523,43.11519 -0.6849,68.31153 -0.2067,39.25021 -0.032,45.94376 1.2182,46.73469 0.8027,0.50774 6.5317,0.93005 12.731,0.93847 l 11.2716,0.0153 -0.5207,-6.75 z m 171.324,-110 c -3.0012,-4.3868 -9.7669,-11.96644 -23.6486,-26.49372 -3.0187,-3.15905 -10.6672,-10.13405 -16.9968,-15.5 -16.2181,-13.74897 -28.9478,-25.58566 -34.201,-31.80185 -2.475,-2.92869 -6.75,-7.09056 -9.5,-9.24861 -2.75,-2.15805 -6.6306,-5.6747 -8.6235,-7.81478 -1.9929,-2.14007 -8.7481,-8.89706 -15.0115,-15.01552 -10.3018,-10.06355 -11.8919,-12.11399 -16.673,-21.5 -5.2332,-10.27374 -11.593,-21.56593 -18.014,-31.98503 -20.9697,-34.02638 -30.5296,-54.53079 -32.7446,-70.23112 -1.2727,-9.0209 -2.1221,-11.53212 -7.5798,-22.40937 -3.3807,-6.7375 -6.5644,-12.25 -7.0749,-12.25 -1.0436,0 -0.6826,9.47963 1.6378,43 1.6107,23.26897 2.8533,42.26667 4.5948,70.25 0.5562,8.9375 1.5111,20.40668 2.1219,25.48707 l 1.1105,9.23707 5.1281,4.09163 c 2.8205,2.2504 10.9782,7.92666 18.1282,12.61392 7.15,4.68725 14.575,9.99918 16.5,11.80429 1.925,1.8051 5.1515,3.80767 7.17,4.45016 2.0185,0.64249 4.1871,1.79122 4.8191,2.55273 0.632,0.76152 2.5787,1.69857 4.326,2.08234 1.7473,0.38377 4.5287,1.26721 6.1809,1.96321 2.7494,1.15818 9.9168,3.35682 23.004,7.0566 15.285,4.3211 18.7344,5.54319 22.1945,7.86343 2.093,1.40349 5.6055,3.74475 7.8055,5.20281 5.5786,3.69724 21.1136,17.65899 26.4371,23.75975 8.6254,9.88477 23.7485,24.32293 29.121,27.80216 2.9931,1.93824 6.7636,4.9323 8.379,6.65346 4.363,4.6486 5.1104,3.78914 1.4093,-1.62063 z m -186.8563,-129 c -0.01,-5.26556 -1.3773,-27.65735 -2.429,-39.75 -0.2391,-2.75 -0.7793,-9.95 -1.2004,-16 -0.6929,-9.95597 -0.8329,-10.52544 -1.4755,-6 -0.3905,2.75 -0.7494,17.54688 -0.7976,32.88197 -0.083,26.58268 0.01,28.03891 1.994,31.25 1.1448,1.85241 2.4948,3.36803 3,3.36803 0.5051,0 0.9139,-2.5875 0.9085,-5.75 z m -9.6636,-10.5 c 0.9969,-10.33888 1.8015,-118.52261 0.9575,-128.75 -0.7822,-9.47814 -0.7905,-9.50075 -3.6224,-9.82496 -3.7045,-0.4241 -6.3637,2.01067 -9.2444,8.46413 -1.5262,3.41917 -4.1867,6.766 -7.9493,10 -3.1104,2.67345 -6.4877,6.48056 -7.5051,8.46023 -1.7905,3.48411 -10.2642,11.53162 -15.7704,14.97732 -4.8967,3.06422 -10.5068,9.63918 -9.9007,11.60356 0.3087,1.00084 2.6541,6.76972 5.2118,12.81972 2.5578,6.05 5.919,14.65814 7.4693,19.12919 1.5503,4.47106 3.626,9.87106 4.6126,12 3.0158,6.50745 14.6094,25.49335 19.767,32.37081 4.4302,5.90747 13.2504,14.84467 14.7595,14.95519 0.3366,0.0246 0.8831,-2.76769 1.2146,-6.20519 z m 13.931,1331.0631 c -2.0615,-2.0615 -2.2938,-2.0902 -4.0509,-0.5 -2.9163,2.6391 -4.8562,2.0217 -6.4822,-2.0631 -5.6914,-14.2979 -4.9411,-39.0333 1.3756,-45.35 3.0673,-3.0673 6.9993,-2.1716 9.2178,2.1 2.3674,4.5582 1.6698,14.3594 -1.8151,25.5 -2.6985,8.6268 -3.0739,11.5 -1.5027,11.5 0.55,0 1,-0.8393 1,-1.8651 0,-2.8462 3.8576,-7.1349 6.4176,-7.1349 3.3801,0 5.8176,3.3724 6.3168,8.7399 0.3888,4.1806 0.086,5.1557 -2.4851,8.0101 -3.4419,3.8208 -5.0237,4.0312 -7.9918,1.0631 z m 4.3984,-9.0821 c -0.2739,-0.6771 -0.4813,0.119 -0.461,1.769 0.02,1.65 0.2445,2.2039 0.4981,1.231 0.2535,-0.973 0.2369,-2.323 -0.037,-3 z m -8.7789,-19.1568 c 1.2459,-4.9481 1.3764,-13.0731 0.2556,-15.9211 -1.1225,-2.8525 -2.922,-0.035 -4.2724,6.6887 -0.8714,4.3392 -0.8417,6.6526 0.13,10.1232 0.6928,2.4743 1.598,4.2895 2.0117,4.0338 0.4137,-0.2556 1.2575,-2.4717 1.8751,-4.9246 z M 114,1552.059 c 0,-0.5824 0.45,-1.059 1,-1.059 0.55,0 1,0.1984 1,0.441 0,0.2425 -0.45,0.7191 -1,1.059 -0.55,0.3399 -1,0.1415 -1,-0.441 z M 1256,1397 c 0,-0.55 0.45,-1 1,-1 0.55,0 1,0.45 1,1 0,0.55 -0.45,1 -1,1 -0.55,0 -1,-0.45 -1,-1 z m -64.5,-499.71307 c -5.1848,-1.2471 -3.3329,-2.28584 4.05,-2.27162 8.1212,0.0157 12.223,1.09036 8.9521,2.34553 -1.8597,0.71361 -9.9185,0.6678 -13.0021,-0.0739 z m 1.9807,-13.31818 c -2.1627,-3.4993 -0.7626,-27.52619 2.1106,-36.21997 1.1838,-3.58177 2.1837,-4.9052 4.0627,-5.37678 1.3708,-0.34406 2.8481,-0.23102 3.2827,0.25122 1.4972,1.66103 3.0293,7.58937 3.6762,14.22497 0.3567,3.6585 1.2303,7.32681 1.9415,8.15181 1.0611,1.2311 1.0377,1.84799 -0.1307,3.44113 -0.7925,1.08052 -1.4237,4.20617 -1.4237,7.05 0,5.37007 -1.1997,7.50887 -4.2118,7.50887 -1.5377,0 -1.7199,-0.57468 -1.2045,-3.79826 0.4494,-2.81028 0.1924,-4.14269 -0.9882,-5.12244 -1.4209,-1.17931 -1.5955,-0.82626 -1.5955,3.22683 0,5.63843 -3.5235,9.89186 -5.5193,6.66262 z M 1201,858.44098 c 0,-4.11803 -0.3722,-6.32901 -1,-5.94098 -1.5369,0.94986 -0.9671,12.5 0.6166,12.5 0.2109,0 0.3834,-2.95156 0.3834,-6.55902 z M 1595,743 c 0,-0.55 0.45,-1 1,-1 0.55,0 1,0.45 1,1 0,0.55 -0.45,1 -1,1 -0.55,0 -1,-0.45 -1,-1 z m -309.3532,-50.76255 c -0.2593,-0.4194 0.084,-1.79985 0.7623,-3.06766 1.1621,-2.1713 1.3166,-2.20296 2.6623,-0.5455 0.7857,0.9678 0.9786,1.49548 0.4286,1.17263 -0.55,-0.32285 -1.5493,0.008 -2.2207,0.73447 -0.9609,1.04027 -0.9609,1.42673 0,1.81609 0.9114,0.36928 0.9189,0.51463 0.03,0.57357 -0.655,0.0434 -1.403,-0.2642 -1.6622,-0.6836 z M 1266,691 c 0,-0.55 0.1984,-1 0.441,-1 0.2425,0 0.7191,0.45 1.059,1 0.3399,0.55 0.1415,1 -0.441,1 -0.5824,0 -1.059,-0.45 -1.059,-1 z m 11.1101,-1.22956 c -2.4144,-1.16823 -4.6044,-2.9445 -4.8666,-3.94725 -0.2622,-1.00276 -1.0993,-1.82319 -1.8601,-1.82319 -2.2746,0 -1.5654,-2.59607 1.0325,-3.77974 1.9584,-0.89227 2.5295,-0.80488 3.0154,0.4614 0.4282,1.11581 1.4101,1.40006 3.4364,0.99481 2.2868,-0.45737 3.2175,-0.0448 4.7999,2.12808 1.9727,2.70858 1.8594,7.24514 -0.1952,7.81857 -0.5348,0.14926 -2.9478,-0.68444 -5.3623,-1.85268 z m -28.5204,-5.39719 c -0.3433,-0.89471 -0.1705,-2.17349 0.3841,-2.84173 0.5546,-0.66824 1.1642,-2.63797 1.3546,-4.37719 0.1904,-1.73922 0.7165,-3.49794 1.1692,-3.90827 0.4527,-0.41033 0.4993,-0.18356 0.1037,0.50394 -1.0259,1.7828 1.9191,1.58677 3.7558,-0.25 2.1275,-2.12741 2.5671,-1.92562 4.1717,1.91462 1.6025,3.83548 0.4959,8.9782 -2.1506,9.99375 -0.8348,0.32035 -1.2153,0.13701 -0.8711,-0.41982 0.336,-0.5437 0.1609,-0.98855 -0.3891,-0.98855 -0.55,0 -1.2781,0.45 -1.618,1 -0.9901,1.60209 -5.2274,1.15275 -5.9103,-0.62675 z m 167.5263,-10.42897 c -0.2195,-2.94361 7.0316,-11.13003 8.5306,-9.631 0.8421,0.84204 -2.9416,4.62245 -3.9825,3.97912 -0.5805,-0.35874 -0.7494,0.27344 -0.4149,1.55261 0.3104,1.18676 0.1562,1.90557 -0.3425,1.59735 C 1419.408,671.13414 1419,671.38508 1419,672 c 0,0.61492 -0.4159,0.86097 -0.9243,0.54677 -0.5084,-0.31419 -1.1312,0.22175 -1.384,1.19099 -0.3522,1.35031 -0.4868,1.39858 -0.5757,0.20652 z m 6.884,-3.38526 c 0,-0.24254 0.45,-0.7191 1,-1.05902 0.55,-0.33992 1,-0.14148 1,0.44098 0,0.58246 -0.45,1.05902 -1,1.05902 -0.55,0 -1,-0.19844 -1,-0.44098 z m -9.0091,-3.04801 c 0.6796,-0.81894 1.6828,-1.21269 2.2292,-0.875 0.6034,0.37296 0.4608,0.95147 -0.3633,1.47368 -2.1571,1.36676 -3.2153,1.02722 -1.8659,-0.59868 z M 1430,656.11803 c 0,-0.55 0.45,-1.27811 1,-1.61803 0.55,-0.33992 1,-0.16803 1,0.38197 0,0.55 -0.45,1.27811 -1,1.61803 -0.55,0.33992 -1,0.16803 -1,-0.38197 z m -300.3333,-8.7847 c -1.2147,-1.21466 -0.691,-2.27988 0.8333,-1.69496 0.825,0.31659 1.5,0.97746 1.5,1.46862 0,1.0484 -1.3776,1.18204 -2.3333,0.22634 z M 114.05955,614.26866 c -3.79381,-1.95031 -5.65375,-4.98449 -2.44343,-3.98603 5.64912,1.75697 9.88388,3.63118 9.88388,4.3744 0,1.58897 -4.00023,1.38017 -7.44045,-0.38837 z m -25.598108,-9.37957 c -2.178793,-1.161 -5.189996,-2.7645 -6.691561,-3.56332 -2.818311,-1.49934 -4.297624,-3.13136 -3.532174,-3.89681 1.295501,-1.2955 10.087779,3.44926 16.212293,8.74898 1.901764,1.64565 -2.096306,0.78519 -5.988558,-1.28885 z M 135,601.63289 c 0,-0.20192 1.87768,-1.60971 4.17262,-3.12843 2.29494,-1.51872 5.27594,-4.07252 6.62443,-5.67512 3.47765,-4.13295 4.03177,-2.63284 0.76744,2.0776 -1.66427,2.40155 -4.27151,4.55891 -6.66879,5.51812 -4.07269,1.62956 -4.8957,1.83261 -4.8957,1.20783 z M 67.163885,587.69747 c -3.475722,-4.18799 -5.347831,-14.2799 -3.260376,-17.57559 1.564502,-2.47004 2.864565,-0.25113 2.409415,4.11232 -0.244729,2.34619 0.243244,6.4948 1.084385,9.21914 1.631734,5.28495 1.569499,6.41652 -0.233424,4.24413 z M 149,581.66624 c 0,-0.27524 0.9,-2.60004 2,-5.16624 1.1,-2.5662 2,-5.5285 2,-6.58291 0,-1.0544 0.45,-1.91709 1,-1.91709 1.65688,0 1.1259,6.29645 -0.84012,9.96231 C 151.5783,580.91133 149,583.20703 149,581.66624 z M 67.021962,557.93748 C 67.068826,552.7362 74.390794,541 77.588894,541 c 2.298084,0 1.715659,1.3431 -4.588894,10.58218 -4.581614,6.71419 -5.994808,8.21656 -5.978038,6.3553 z m 83.560898,-3.10432 c -0.23001,-0.73324 -0.65679,-3.13316 -0.94841,-5.33316 -0.29162,-2.2 -0.84451,-5.06357 -1.22864,-6.36349 -0.63789,-2.15862 -0.51544,-2.26555 1.41263,-1.23368 2.3378,1.25115 4.56617,7.37114 4.02811,11.06279 -0.3871,2.65592 -2.61626,3.93148 -3.26369,1.86754 z M 137.11663,533.89481 C 135.95248,532.64525 135,531.2721 135,530.84338 c 0,-0.42873 -1.2375,-1.43017 -2.75,-2.22543 l -2.75,-1.44592 2.74776,-0.69386 c 3.91015,-0.98739 5.62678,-0.0227 7.3658,4.13937 1.93324,4.62689 0.50585,6.50037 -2.49693,3.27727 z M 1371.1978,522.73836 c -1.4964,-1.80309 -4.1908,-18.12158 -4.1946,-25.40433 0,-5.9374 0.1358,-6.27493 3.7468,-9.10531 2.0625,-1.61663 4.7329,-3.45444 5.9343,-4.08403 2.4481,-1.28297 7.3462,-1.54929 7.2591,-0.39469 -0.031,0.4125 -2.7545,2.71479 -6.0518,5.11619 -5.8202,4.23873 -5.9864,4.48688 -5.6934,8.5 l 0.3018,4.13381 4.1948,-0.33059 c 2.3071,-0.18182 4.8899,0.0584 5.7396,0.53391 1.1787,0.65969 0.3582,1.32495 -3.4636,2.80801 l -5.0083,1.94351 0.6622,8.77258 c 0.5643,7.47536 0.4373,8.77258 -0.8588,8.77258 -0.8365,0 -1.9922,-0.56774 -2.5681,-1.26164 z m 20.8697,-8.61229 c -0.5871,-1.09702 -1.0675,-5.96464 -1.0675,-10.81693 0,-4.85229 -0.4186,-10.28187 -0.9302,-12.06574 -0.7022,-2.44854 -0.6177,-3.2434 0.345,-3.2434 2.0826,0 4.3679,3.24121 5.1119,7.25 0.6137,3.30729 1.0369,3.75 3.5846,3.75 2.6701,0 2.8892,-0.28375 2.8958,-3.75 0.017,-8.76215 1.2971,-17.25 2.6023,-17.25 2.2524,0 3.1752,3.21088 3.1149,10.83788 -0.041,5.18666 0.3439,7.58621 1.3127,8.18496 1.1508,0.71128 1.1558,1.24847 0.031,3.35071 -0.9446,1.76503 -1.1404,4.26709 -0.6636,8.4812 0.4561,4.03169 0.3093,6.20436 -0.4511,6.67427 -1.6913,1.04529 -2.8954,-0.67259 -4.2407,-6.05025 -0.9902,-3.95812 -1.7078,-4.97733 -3.9171,-5.56373 -2.7036,-0.71758 -2.705,-0.71505 -3,5.42348 -0.2314,4.81368 -0.6589,6.21066 -1.9777,6.46177 -0.9254,0.1762 -2.1629,-0.57719 -2.75,-1.67422 z M 983.39037,510.50724 C 978.27602,507.95865 971.61667,502 973.88273,502 c 0.69131,0 3.138,1.25938 5.43709,2.79862 2.2991,1.53924 6.09268,3.63258 8.43018,4.65187 2.3375,1.01929 4.25,2.23492 4.25,2.70138 0,1.55413 -3.55224,0.87557 -8.60963,-1.64463 z M 1058.1668,508.25 c -0.4969,-0.9625 -1.2082,-3.4375 -1.5805,-5.5 -0.5715,-3.1659 -1.0707,-3.75 -3.2049,-3.75 -3.4585,0 -2.8027,-3.12782 0.9311,-4.44093 3.862,-1.35821 5.7284,0.085 7.364,5.69432 0.7454,2.55654 1.7975,4.92151 2.3379,5.2555 0.5404,0.33398 3.5102,-1.78139 6.5995,-4.70082 l 5.6169,-5.30807 -1.6289,4 c -2.3726,5.82638 -7.737,10.5 -12.052,10.5 -2.303,0 -3.7851,-0.59175 -4.3831,-1.75 z m -25.6909,-2.40532 c -7.2388,-6.3557 -9.3282,-15.16915 -5.5622,-23.46218 3.3651,-7.4102 8.952,-9.3083 15.107,-5.1325 3.8572,2.61688 5.7961,7.25928 5.9032,14.13398 0.1487,9.54652 -4.1303,17.61602 -9.3414,17.61602 -1.3937,0 -4.1135,-1.40536 -6.1066,-3.15532 z m 9.4263,-4.9939 c 2.7884,-7.9988 0.1256,-18.45257 -5.1679,-20.28863 -3.9198,-1.35956 -5.7137,0.83835 -6.4417,7.89221 l -0.5957,5.77112 3.1516,-0.6922 c 3.0856,-0.67771 3.1515,-0.61592 3.1515,2.95301 0,7.22801 3.8989,10.11112 5.9022,4.36449 z M 102.3346,498.25 c -1.52195,-2.0625 -4.508747,-5.88391 -6.637326,-8.49202 C 90.822632,483.78517 87,475.93887 87,471.90603 87,465.17021 91.515272,460 97.39783,460 c 6.79205,0 14.78374,5.99725 16.12416,12.10014 1.31472,5.98588 -0.58031,9.5144 -8.41615,15.67074 l -2.39416,1.881 2.74641,4.6864 c 4.34811,7.41949 1.81026,10.59778 -3.12349,3.91172 z m 3.28633,-17.85033 c 3.66243,-2.70442 4.34993,-4.69835 3.16789,-9.18776 -1.02852,-3.90632 -5.81485,-7.2027 -10.46624,-7.20817 C 94.833857,463.99963 91,467.75411 91,471.1747 c 0,2.78746 3.640201,9.45988 6.101414,11.18378 2.421979,1.69642 4.088306,1.3133 8.519516,-1.95881 z M 113.25,494.01096 C 107.27453,490.36765 110.16827,484 117.79943,484 c 2.37418,0 4.20861,0.85419 6.27749,2.92308 3.49991,3.4999 3.68002,5.43333 0.70057,7.52022 -3.02876,2.12142 -7.62153,1.94917 -11.52749,-0.43234 z m 838.19117,-16.57358 c -10.15641,-6.0903 -18.10552,-15.17303 -15.53179,-17.74676 0.77278,-0.77278 1.6921,-0.38489 3.23489,1.3649 1.18542,1.34446 6.01602,6.38198 10.73467,11.19448 4.71865,4.8125 8.33727,8.75 8.04138,8.75 -0.29589,0 -3.2115,-1.60318 -6.47915,-3.56262 z M 923.0964,443.73526 c -3.67278,-1.88752 -6.16092,-5.8905 -7.68314,-12.36084 C 913.53267,423.38075 913.56756,418 915.5,418 c 0.825,0 1.5,0.73157 1.5,1.62571 0,3.89093 6.30487,20.40644 8.70745,22.80901 2.77951,2.77952 1.5035,3.41509 -2.61105,1.30054 z M 910.11461,395.75 C 905.71369,382.32239 904.55512,364 908.10699,364 c 0.49115,0 0.89966,1.4625 0.90779,3.25 0.008,1.7875 0.64989,5.95 1.42613,9.25 1.27531,5.42165 2.90231,25.5 2.06633,25.5 -0.1893,0 -1.26598,-2.8125 -2.39263,-6.25 z M 964,341 c 0.825,-0.53316 1.95,-0.96937 2.5,-0.96937 0.55,0 0.325,0.43621 -0.5,0.96937 -0.825,0.53316 -1.95,0.96937 -2.5,0.96937 -0.55,0 -0.325,-0.43621 0.5,-0.96937 z m -59.35248,-2.7613 c -0.25878,-0.41872 -1.03213,-3.48039 -1.71855,-6.80371 -1.06071,-5.13546 -0.98666,-7.77146 0.49335,-17.56211 1.68122,-11.12175 2.81817,-14.96572 4.05938,-13.72451 0.97565,0.97564 0.73595,12.89938 -0.40056,19.92586 -0.58485,3.61583 -1.12618,9.35333 -1.20297,12.75 -0.13815,6.11158 -0.31605,6.89431 -1.23065,5.41447 z m 54.06681,-22.25428 c 0.28989,-1.10857 0.99924,-2.3074 1.57632,-2.66405 0.65978,-0.40777 0.80057,-4.6e-4 0.37929,1.09737 C 960.30147,315.37795 960,316.57677 960,317.08179 960,317.5868 959.59213,318 959.09362,318 c -0.49851,0 -0.66919,-0.90701 -0.37929,-2.01558 z m 326.33347,-20.43354 c -2.3995,-2.55417 -2.2203,-5.55088 0.3319,-5.55088 1.5041,0 6.6203,5.46894 6.6203,7.07673 0,1.8804 -4.7268,0.84297 -6.9522,-1.52585 z M 1273,273 c 0,-0.55 0.1984,-1 0.441,-1 0.2425,0 0.7191,0.45 1.059,1 0.3399,0.55 0.1415,1 -0.441,1 -0.5824,0 -1.059,-0.45 -1.059,-1 z m -367.10018,-8 c -0.59638,-13.92566 1.06778,-28.39617 3.55127,-30.87966 0.82571,-0.82571 1.67623,-1.30308 1.89004,-1.06082 0.65631,0.74363 -3.26278,33.31003 -4.26495,35.44048 -0.73489,1.56223 -0.99238,0.79615 -1.17636,-3.5 z m -24.71787,-35.5 c -0.92123,-2.02189 -0.86997,-2.5 0.26806,-2.5 0.77392,0 2.14753,0.74039 3.05245,1.64532 1.32898,1.32897 1.39078,1.8067 0.32143,2.48468 -1.99927,1.26758 -2.40431,1.0863 -3.64194,-1.63 z m 34.82506,-25.58333 c 0.0186,-11.72732 9.50832,-37.73468 12.62985,-34.61315 0.27708,0.27709 -0.63465,3.35965 -2.02607,6.85014 -1.39142,3.49049 -4.13883,11.94961 -6.10536,18.79804 -1.96653,6.84844 -3.78474,12.66094 -4.04047,12.91667 -0.25573,0.25573 -0.46181,-1.52254 -0.45795,-3.9517 z M 929.6027,150 c 2.72613,-6.98702 10.89871,-19.65215 18.71318,-29 3.90813,-4.675 7.23583,-8.6875 7.3949,-8.91667 0.15907,-0.22916 0.57518,-0.13071 0.92468,0.2188 0.77668,0.77668 -1.52482,4.36562 -7.4804,11.66484 -2.48298,3.04317 -7.88321,10.70803 -12.00051,17.03303 -9.02117,13.85831 -9.81791,14.80783 -7.55185,9 z m 261.9803,-18.25 c -1.0306,-3.63599 -2.583,-12.20469 -2.583,-14.25674 0,-3.49632 3.678,-3.61501 8.6802,-0.28012 2.2991,1.53277 5.5258,2.78686 7.1705,2.78686 2.5603,0 3.0933,-0.46741 3.706,-3.25 0.3935,-1.7875 0.6973,-6.2875 0.675,-10 -0.041,-6.841517 0.5339,-7.942268 2.7526,-5.26892 0.8245,0.99341 1.1078,4.15331 0.8606,9.59674 -0.3332,7.33846 -0.6257,8.33686 -3.0539,10.42552 -2.2703,1.95285 -3.2534,2.18176 -6.3604,1.481 -2.0213,-0.45588 -4.1601,-1.31385 -4.7529,-1.9066 -2.3011,-2.3011 -3.6776,-1.11817 -3.6914,3.17226 -0.01,2.3375 -0.2849,5.2625 -0.6166,6.5 -0.6548,2.4434 -2.2186,3.00456 -2.7867,1 z M 959,101.53497 c 0,-1.562114 3.60578,-7.391246 6.8969,-11.14958 1.9817,-2.263036 7.36944,-8.466822 11.97275,-13.786193 C 985.56976,67.7013 990.03992,64 993.08603,64 c 0.65194,0 -0.65032,1.4625 -2.89392,3.25 -3.55733,2.834162 -10.70991,10.774463 -26.94211,29.909275 -2.3375,2.755487 -4.25,4.724545 -4.25,4.375695 z m 47.0037,-47.508329 c 0,-0.289653 0.8464,-1.908403 1.8762,-3.597224 2.011,-3.297765 9.2614,-8.478152 18.1061,-12.936789 3.0173,-1.521027 7.1709,-3.829107 9.2301,-5.129066 2.0593,-1.299959 4.0906,-2.353556 4.514,-2.341326 1.6379,0.04731 -4.6217,4.204675 -13.1552,8.737229 -5.0446,2.679399 -11.4577,7.143461 -14.75,10.267176 -3.2037,3.039652 -5.8232,5.289652 -5.8212,5 z m 469.442,-31.442681 c -1.2086,-0.883767 -1.3965,-1.496342 -0.6083,-1.983464 0.8183,-0.505765 0.6811,-1.405731 -0.486,-3.186966 -1.2583,-1.920384 -1.3843,-2.98365 -0.5566,-4.697853 1.0341,-2.141577 1.0721,-2.146821 1.1375,-0.156807 0.037,1.132379 0.694,2.915393 1.4595,3.962254 1.1338,1.550625 1.6682,1.673983 2.8832,0.665606 2.0507,-1.701933 3.1536,1.154149 1.4803,3.833493 -1.6401,2.626207 -3.2202,3.091558 -5.3096,1.563737 z m -94.1124,-8.127949 c 0,-0.800806 0.375,-1.456011 0.8334,-1.456011 0.4583,0 0.8333,0.423442 0.8333,0.940983 0,0.517541 -0.375,1.172746 -0.8333,1.456011 -0.4584,0.283266 -0.8334,-0.140176 -0.8334,-0.940983 z"
     id="path3037"
     style="fill:#000000" />
</svg>
