<?xml version="1.0" encoding="UTF-8" standalone="no"?>
<!-- Created with Inkscape (http://www.inkscape.org/) -->

<svg
   xmlns:dc="http://purl.org/dc/elements/1.1/"
   xmlns:cc="http://creativecommons.org/ns#"
   xmlns:rdf="http://www.w3.org/1999/02/22-rdf-syntax-ns#"
   xmlns:svg="http://www.w3.org/2000/svg"
   xmlns="http://www.w3.org/2000/svg"
   version="1.1"
   width="1593.9564"
   height="1808.0328"
   id="svg3007">
  <metadata
     id="metadata3013">
    <rdf:RDF>
      <cc:Work
         rdf:about="">
        <dc:format>image/svg+xml</dc:format>
        <dc:type
           rdf:resource="http://purl.org/dc/dcmitype/StillImage" />
        <dc:title></dc:title>
      </cc:Work>
    </rdf:RDF>
  </metadata>
  <defs
     id="defs3011" />
  <path
     d="m 1217.9596,1805.5626 c 1.8416,-1.3587 6.3165,-5.301 9.9443,-8.7609 6.4484,-6.1497 17.0506,-14.0511 20.7439,-15.4596 1.0187,-0.3885 2.9726,-1.742 4.342,-3.0078 1.3694,-1.2658 2.9871,-2.3015 3.595,-2.3015 0.6079,0 1.9197,-0.9 2.9152,-2 0.9955,-1.1 2.3929,-2 3.1053,-2 0.7124,0 1.6552,-0.5966 2.095,-1.3258 0.4398,-0.7292 3.4997,-3.475 6.7997,-6.1018 6.3741,-5.0738 12.4002,-11.4035 12.4625,-13.0903 0.021,-0.5598 1.0956,-2.5848 2.3888,-4.5 1.2931,-1.9151 2.903,-5.1696 3.5775,-7.2321 0.6745,-2.0625 1.6414,-3.75 2.1488,-3.75 0.5073,0 0.9224,-0.8679 0.9224,-1.9286 0,-1.0607 0.5625,-2.5232 1.25,-3.25 0.6875,-0.7268 1.3506,-2.2966 1.4735,-3.4886 0.123,-1.1919 1.5855,-5.1407 3.25,-8.775 1.6646,-3.6343 3.0265,-6.8661 3.0265,-7.1817 0,-0.3156 0.6414,-1.9918 1.4254,-3.725 5.0462,-11.156 6.5965,-14.9141 7.1671,-17.3745 0.3541,-1.5271 2.1657,-5.8746 4.0257,-9.661 1.86,-3.7864 3.3883,-7.8364 3.3964,-9 0.01,-1.1636 0.6773,-4.0182 1.4875,-6.3437 0.8101,-2.3255 1.9773,-7.5005 2.5936,-11.5 0.6164,-3.9995 1.4732,-7.9469 1.9041,-8.7719 0.4309,-0.825 1.0809,-3.7187 1.4444,-6.4305 0.3635,-2.7119 0.8879,-5.2979 1.1654,-5.7468 0.4698,-0.7602 1.1411,-7.1183 3.4127,-32.3227 0.4957,-5.5 1.1686,-12.7 1.4954,-16 0.3267,-3.3 0.9671,-9.9914 1.423,-14.8698 0.468,-5.0081 1.3555,-9.1952 2.0384,-9.6173 0.92,-0.5686 0.8182,-1.5043 -0.4257,-3.9096 -0.8993,-1.7391 -1.384,-3.5683 -1.0771,-4.0649 0.3069,-0.4966 0.6128,-11.9705 0.6797,-25.4975 0.067,-13.527 0.4979,-24.827 0.9578,-25.1112 0.4598,-0.2842 0.5759,-2.4143 0.258,-4.7336 -0.653,-4.7646 0.9816,-11.9446 3.5714,-15.6869 1.912,-2.7628 4.6265,-9.5442 8.4096,-21.0092 7.9584,-24.1183 16.0946,-43.4751 20.191,-48.0366 0.759,-0.8451 2.1194,-3.3201 3.0232,-5.5 0.9037,-2.1799 3.5786,-6.8884 5.9442,-10.4634 2.3655,-3.575 5.9652,-9.8196 7.9993,-13.877 4.3553,-8.6875 13.2932,-22.7677 18.4869,-29.123 6.3151,-7.7275 12.9763,-19.175 15.0336,-25.8358 4.086,-13.229 3.5944,-28.8132 -1.3302,-42.1642 -2.9925,-8.1129 -13.6158,-26.8459 -15.5379,-27.3994 -1.4667,-0.4223 -10.7542,-1.8342 -21.1629,-3.2172 -5.9921,-0.7961 -22.7469,-3.431 -41.5,-6.5263 -9.9,-1.634 -21.15,-3.3714 -25,-3.8609 -3.85,-0.4894 -19.375,-2.7437 -34.5,-5.0093 -15.125,-2.2657 -30.2,-4.5217 -33.5,-5.0132 -9.4215,-1.4033 -12.1756,-1.8263 -25.5,-3.9164 -6.875,-1.0784 -17.225,-2.6667 -23,-3.5296 -5.775,-0.863 -17.25,-2.646 -25.5,-3.9623 -8.25,-1.3163 -22.2,-3.3914 -31,-4.6113 -8.8,-1.2199 -16.3024,-2.6909 -16.672,-3.2689 -0.3696,-0.5779 -3.7446,-1.4179 -7.5,-1.8666 -13.1196,-1.5675 -23.7844,-3.418 -22.8101,-3.9579 1.5263,-0.8457 18.6558,0.8105 19.3576,1.8717 0.3435,0.5192 2.8745,0.9456 5.6245,0.9474 2.75,0 8.15,0.5674 12,1.2569 8.1733,1.4637 8.6487,1.5272 18.5,2.4689 4.125,0.3943 13.125,1.5653 20,2.6023 6.875,1.037 19.025,2.8372 27,4.0005 7.975,1.1633 18.1,2.7396 22.5,3.503 9.4806,1.6448 13.293,2.2208 20,3.0214 12.8489,1.5337 41.4109,6.6703 52.5,9.4415 11.9192,2.9788 33.827,6.0615 42,5.9101 4.125,-0.076 9.3,0.3282 11.5,0.8991 2.2,0.5709 6.7,1.3349 10,1.6978 3.3,0.3628 8.25,1.3251 11,2.1384 6.362,1.8814 24.6185,5.1752 30.5,5.5027 6.0842,0.3388 6.2608,0.8524 -6.5803,-19.1405 -4.4335,-6.9028 -12.2705,-14.6127 -20.471,-20.1389 -6.075,-4.094 -6.3741,-7.1247 -1.0111,-10.2457 3.9208,-2.2818 17.5815,-3.0709 24.5897,-1.4205 6.3291,1.4906 20.2089,-3.7087 37.4156,-14.0155 5.494,-3.291 11.3114,-9.0093 14.7483,-14.4973 1.4343,-2.2902 2.878,-4.389 3.2083,-4.664 0.3303,-0.275 1.7205,-2.6455 3.0893,-5.2678 1.3689,-2.6223 3.5397,-5.9011 4.8242,-7.2863 3.5279,-3.8047 17.9621,-32.0143 20.3192,-39.711 2.5211,-8.2324 2.32,-21.1671 -0.4159,-26.7519 -2.4031,-4.9052 -13.4556,-17.1133 -24.7163,-27.3004 -22.3858,-20.2517 -32.3756,-39.4411 -35.1098,-67.4422 -1.2404,-12.70345 -0.9118,-18.56512 1.5894,-28.35088 0.7446,-2.9135 2.1988,-2.43679 -16.4796,-5.40239 -4.675,-0.74225 -15.475,-2.5129 -24,-3.93477 -24.9442,-4.16038 -26.8834,-4.48196 -40,-6.63307 -13.7636,-2.25721 -28.9824,-4.59581 -36.1023,-5.54764 l -4.6023,-0.61526 -1.8181,9.36052 c -2.1529,11.08406 -3.193,10.20407 -1.5137,-1.28072 0.6459,-4.41735 1.0308,-8.1748 0.8554,-8.34989 -0.7486,-0.74708 -22.2614,-4.48632 -25.8109,-4.48632 -3.761,0 -3.9221,0.14139 -4.8422,4.25 l -0.9517,4.25 -0.1071,-4.68261 c -0.1266,-5.53713 0.6716,-5.16158 -15.6071,-7.34291 -6.6,-0.88439 -14.7,-1.98756 -18,-2.45147 -24.5982,-3.45805 -24.6119,-3.45911 -25.5508,-1.96289 -0.497,0.79194 -0.6585,2.22738 -0.359,3.18988 0.755,2.42608 -0.4475,5.75 -2.08,5.75 -0.7453,0 -1.8618,-1.53521 -2.481,-3.41157 -1.2735,-3.85874 -2.5847,-4.6768 -5.6621,-3.53258 -1.8451,0.68605 -2.1873,1.75563 -2.536,7.92733 -0.2692,4.76358 -0.8896,7.47236 -1.8671,8.15168 -1.1096,0.7711 -1.1614,1.14019 -0.214,1.5246 0.6875,0.27897 1.25,0.97888 1.25,1.55538 0,1.16522 -13.8383,0.62119 -15.8517,-0.62319 -2.8156,-1.74011 0.3473,-2.81706 6.4401,-2.19284 l 6.3169,0.64718 -1.4465,-2.77299 c -0.9516,-1.82421 -1.4486,-5.89097 -1.4526,-11.8858 l -0.01,-9.1128 -7.75,-1.16109 c -11.1059,-1.66388 -19.5958,-3.01836 -28.75,-4.58681 -4.4,-0.75388 -11.375,-1.86081 -15.5,-2.45983 -4.125,-0.59903 -14.475,-2.24402 -23,-3.65554 -35.2647,-5.83892 -32.5765,-5.94681 -33.3603,1.33887 -0.3402,3.1625 -0.8867,17.675 -1.2144,32.25 -0.3277,14.575 -0.7793,27.625 -1.0036,29 -0.2242,1.375 -0.6369,12.85 -0.9172,25.50002 -0.2802,12.65 -0.727,30.2 -0.9929,39 -0.2659,8.8 -0.7224,25.9 -1.0146,38 -0.2921,12.1 -0.7388,28.3 -0.9927,36 -0.2538,7.7 -0.7649,29.7589 -1.1357,49.0198 l -0.6743,35.0199 2.4535,1.1179 c 1.3493,0.6148 5.0181,1.6502 8.1528,2.301 3.1347,0.6508 5.6994,1.3632 5.6994,1.5833 0,0.2201 -3.7125,0.3006 -8.25,0.1791 l -8.25,-0.221 -0.6476,17.5 c -1.6092,43.4912 -1.9584,49.1968 -3.1244,51.0639 -1.866,2.9879 -3.0575,2.2939 -2.2558,-1.3139 0.3972,-1.7875 0.6834,-3.925 0.6359,-4.75 -0.1252,-2.1743 -0.1152,-4.5496 0.1509,-35.8853 l 0.241,-28.3852 -4.5,-1.3331 c -2.475,-0.7332 -4.6875,-1.2348 -4.9167,-1.1147 -0.2291,0.1201 -0.6199,-0.3914 -0.8683,-1.1366 -0.3414,-1.0243 0.1264,-1.1576 1.9167,-0.5462 2.3134,0.79 7.7633,0.8394 8.5255,0.077 0.2106,-0.2106 0.5942,-5.2863 0.8525,-11.2795 0.2583,-5.9931 0.7024,-14.7216 0.9869,-19.3966 0.2845,-4.675 0.7704,-24.231 1.0798,-43.4579 0.3094,-19.2268 0.8075,-35.3542 1.1068,-35.8386 0.2994,-0.4844 0.4905,-6.3533 0.4248,-13.0421 -0.066,-6.6888 0.3173,-22.9614 0.8512,-36.1614 0.5339,-13.2 1.2376,-38.85 1.5638,-57.00002 0.3261,-18.15 0.7792,-33.92804 1.0069,-35.06231 0.8052,-4.01118 0.6104,-37.69739 -0.2228,-38.53062 -0.4651,-0.46505 -5.7573,-1.53502 -11.7605,-2.37772 -6.0032,-0.8427 -17.9196,-2.6686 -26.4808,-4.05754 -20.8685,-3.38565 -25.7452,-4.15764 -38.0658,-6.02583 -5.775,-0.87567 -15.45,-2.4747 -21.5,-3.55338 -6.05,-1.07869 -20,-3.31943 -31,-4.97942 -11,-1.66 -22.475,-3.41446 -25.5,-3.8988 -3.025,-0.48434 -11.8,-1.81737 -19.5,-2.96227 -7.7,-1.14491 -17.6,-2.73117 -22,-3.52503 -4.4,-0.79386 -12.95,-2.18277 -19,-3.08647 -6.05,-0.90369 -14.825,-2.3005 -19.5,-3.10402 -4.675,-0.80352 -10.075,-1.68191 -12,-1.95198 -1.925,-0.27007 -6.2,-0.90788 -9.5,-1.41737 -3.3,-0.50948 -16.575,-2.53147 -29.5,-4.49331 -12.925,-1.96183 -28.9,-4.43341 -35.5,-5.49239 -36.91041,-5.92236 -58.00563,-9.34262 -74.81558,-12.1302 -12.63909,-2.09593 -19.14636,-2.7894 -19.82324,-2.11252 -0.55422,0.55422 -1.08721,5.90221 -1.18442,11.88442 l -0.17296,10.87696 6,1.20444 c 9.20602,1.84801 9.65655,2.26536 1.8409,1.70534 -4.77966,-0.34247 -7.39257,-0.13519 -7.86157,0.62366 -0.38636,0.62514 -0.8512,8.18586 -1.03298,16.80159 -0.18178,8.61573 -0.62939,29.47311 -0.99469,46.34972 l -0.66418,30.68476 3.85626,0.6783 c 9.31027,1.63764 10.77059,2.37222 3.60626,1.81405 l -7.25,-0.56484 -0.0663,7.85149 c -0.0365,4.31832 -0.22466,10.77649 -0.41822,14.35149 -0.19355,3.575 -0.61369,17.07502 -0.93363,30.00002 -0.31995,12.925 -0.81391,29.8 -1.09769,37.5 -1.5337,41.6139 -2.03851,79.279 -1.07546,80.242 0.76845,0.7685 14.39166,3.1417 18.40031,3.2054 1.96237,0.031 3.0575,-0.3544 2.69098,-0.9474 -0.33992,-0.55 0.3171,-1 1.46004,-1 2.14179,0 2.16078,-0.4193 0.33969,-7.5 -1.07205,-4.1683 2.339,0.8794 3.60009,5.3275 1.52724,5.3868 5.00077,7.0843 15.69057,7.6678 4.09269,0.2234 7.90878,0.6952 8.4802,1.0483 1.16846,0.7222 14.36665,3.3084 20.33074,3.9839 2.14572,0.243 4.13322,0.6737 4.41666,0.9572 1.49142,1.4914 -1.7011,1.5043 -11.60301,0.047 -6.03454,-0.8881 -12.12558,-1.4056 -13.53566,-1.1499 -1.41008,0.2557 -2.70228,0.054 -2.87155,-0.4485 -0.16927,-0.5024 -4.02383,-1.4385 -8.56569,-2.0802 -6.47024,-0.9142 -8.84614,-0.8988 -10.9751,0.071 -2.39382,1.0907 -2.91679,0.9915 -4.39447,-0.8333 -1.19582,-1.4768 -3.64294,-2.3632 -8.5249,-3.0879 -3.76619,-0.559 -8.72076,-1.2942 -11.01017,-1.6337 l -4.16256,-0.6172 -0.55308,5.374 c -0.8478,8.2375 -1.81355,27.9864 -2.0477,41.8739 -0.20883,12.386 -1.02445,18 -2.61512,18 -1.54641,0 -1.96648,-3.5922 -1.52594,-13.0491 0.24214,-5.198 0.55648,-19.1259 0.69852,-30.9509 l 0.25826,-21.5 -4.94491,-1.2571 c -2.7197,-0.6915 -6.06991,-1.4571 -7.44491,-1.7015 -6.59096,-1.1714 -24.63713,-3.972 -45.5,-7.0611 -25.60169,-3.7907 -35.69729,-5.3371 -55.5,-8.5009 -7.425,-1.1863 -16.2,-2.5188 -19.5,-2.9612 -5.6429,-0.7563 -40.44693,-6.1269 -61.5,-9.4899 -12.27084,-1.9602 -28.27988,-4.3381 -34,-5.0502 -4.4664,-0.556 -8.16564,-1.1304 -38,-5.9008 -8.525,-1.3631 -22.025,-3.4269 -30,-4.5863 -7.975,-1.1594 -28.45,-4.3579 -45.5,-7.1077 -49.55884,-7.9928 -60.6868,-9.6865 -66,-10.0455 l -5,-0.3378 -0.61552,12 c -0.33853,6.6 -0.96922,24.9531 -1.40152,40.7846 -0.46201,16.9191 -1.19193,29.0355 -1.77074,29.3933 -0.63891,0.3948 -0.76646,-3.9193 -0.36322,-12.2847 0.34182,-7.0912 0.90554,-22.7932 1.25271,-34.8932 0.34716,-12.1 0.74945,-24.4092 0.89398,-27.3538 0.14452,-2.9446 0.0483,-6.1739 -0.21376,-7.1761 -0.50223,-1.9205 -3.42617,-2.5645 -22.78193,-5.0175 -4.95,-0.6274 -13.5,-1.9716 -19,-2.9872 -5.5,-1.0156 -12.025,-2.1647 -14.5,-2.5537 -2.475,-0.3889 -3.96428,-0.8942 -3.30952,-1.1229 0.65476,-0.2287 5.15476,0.2661 10,1.0994 15.55507,2.6755 43.37335,6.6118 46.72584,6.6118 1.9087,0 3.26962,-0.516 3.29705,-1.25 0.0257,-0.6875 0.32633,-13.4 0.6681,-28.25 0.34177,-14.85 0.85263,-33.525 1.13524,-41.5 0.28261,-7.97502 0.75153,-27.22619 1.04203,-42.7804 0.2905,-15.55421 0.96936,-29.27921 1.50857,-30.5 1.09537,-2.47994 0.56847,40.5378 -0.98942,80.7804 -0.51101,13.2 -1.07508,32.9935 -1.2535,43.9855 l -0.32439,19.9854 5,1.1909 c 2.75,0.655 11.525,2.1463 19.5,3.3142 7.975,1.1678 20.125,2.9787 27,4.0241 18.27543,2.7789 19.04264,2.8253 22.03395,1.3331 l 2.73487,-1.3644 -1.51625,-6.0192 c -0.83394,-3.3106 -1.20745,-6.328 -0.83004,-6.7055 1.1663,-1.1663 2.42463,1.917 3.70397,9.0758 0.96092,5.377 1.67581,7.0336 3.30007,7.6474 1.14039,0.431 10.17343,1.9905 20.07343,3.4655 20.08146,2.9921 50.77731,7.7276 69,10.6448 6.6,1.0565 18.2912,2.8239 25.98044,3.9274 7.68924,1.1036 14.6811,2.2289 15.53747,2.5007 0.85637,0.2718 6.71517,1.1563 13.01956,1.9656 11.48264,1.4741 52.19006,7.5343 63.46253,9.4479 3.3,0.5602 11.625,1.9172 18.5,3.0157 6.875,1.0984 19.475,3.1446 28,4.547 8.525,1.4024 17.525,2.8044 20,3.1156 13.31921,1.6748 41.39007,6.1281 46.5,7.3771 4.83693,1.1823 11.20232,1.3161 11.86158,0.2494 0.26379,-0.4269 0.76137,-14.4894 1.10573,-31.25 0.34436,-16.7607 0.80181,-37.449 1.01656,-45.974 0.21474,-8.525 0.65177,-26.075 0.97117,-39 0.54962,-22.24088 0.78171,-29.55409 2.07869,-65.50002 0.29767,-8.25 0.49451,-18.91132 0.43743,-23.69182 -0.0571,-4.7805 0.37726,-9.59069 0.96522,-10.68931 0.58797,-1.09862 0.69784,-2.2269 0.24416,-2.50729 -0.45368,-0.28039 -0.69144,-4.2452 -0.52837,-8.81069 0.94885,-26.56379 1.23811,-62.48571 0.51215,-63.60246 -1.39232,-2.14184 -25.70905,-7.14316 -34.91432,-7.18097 -3.94944,-0.0162 -4.25722,0.17702 -4.35209,2.73254 -0.10154,2.73537 -0.10759,2.73284 -1.13788,-0.47638 -0.56969,-1.7745 -1.76125,-3.44578 -2.64791,-3.71395 -0.88667,-0.26817 -11.96212,-2.11458 -24.61212,-4.10314 -29.58126,-4.65012 -39.60153,-6.23394 -47,-7.42892 -3.3,-0.533 -11.72777,-1.8577 -18.72838,-2.94378 -7.00061,-1.08607 -15.32561,-2.43555 -18.5,-2.99884 -3.17439,-0.56328 -10.72162,-1.73504 -16.77162,-2.60391 -11.89253,-1.70794 -16.37476,-2.39456 -35.5,-5.43814 -41.10227,-6.54098 -72.19727,-11.58312 -120.5,-19.53943 -76.51021,-12.60257 -82.62048,-13.54708 -83.62466,-12.92647 -1.20375,0.74397 -0.60763,4.96734 2.71877,19.26162 2.65315,11.40119 2.86598,13.04544 1.503,11.61134 -0.49659,-0.5225 -2.07062,-6.31153 -3.49785,-12.86451 -1.42722,-6.55299 -2.78132,-12.10088 -3.00909,-12.32865 -0.78861,-0.78861 -1.5189,12.35449 -2.06941,37.24316 -1.59417,72.07344 -2.31276,89.5 -3.69058,89.5 -0.60383,0 -0.76499,-5.17676 -0.42806,-13.75 0.29721,-7.5625 0.81057,-28.6 1.14081,-46.75 0.33023,-18.15 0.95625,-39.075 1.39114,-46.5 0.90864,-15.51342 0.50503,-21.00123 -1.67036,-22.71163 -0.84756,-0.6664 -2.05423,-2.2414 -2.68148,-3.5 -1.02441,-2.05551 -3.07094,-2.63449 -20.11135,-5.68969 -10.43398,-1.87072 -19.15838,-3.55822 -19.38755,-3.75 -0.22916,-0.19177 -0.14357,-0.62177 0.1902,-0.95555 0.56133,-0.56133 10.44645,0.71823 30.22647,3.91259 8.816,1.42374 13.06125,0.65202 14.08059,-2.55963 1.10129,-3.46986 1.24517,-30.17715 0.17372,-32.24609 -0.56966,-1.1 -2.40049,-3.15943 -4.06851,-4.57652 l -3.03277,-2.57651 2.17349,-2.17349 c 1.19542,-1.19531 3.07349,-2.17338 4.17349,-2.17338 2.17648,0 2.08471,0.4299 2.6682,-12.5 0.37479,-8.30529 0.96358,-16.54828 1.42859,-20 0.14819,-1.1 0.52453,7.97521 0.83632,20.16712 0.31179,12.19192 0.86257,22.4626 1.22396,22.82374 0.36139,0.36114 2.04889,-0.0631 3.75,-0.9428 3.05939,-1.58207 3.09293,-1.57228 3.09293,0.90321 0,2.86105 -4.09788,6.10888 -6.53013,5.17554 -2.10246,-0.80679 -2.23421,-0.0995 -2.91023,15.62319 -0.67654,15.73496 -0.27141,16.40526 5.8166,9.62362 5.08862,-5.6684 5.70099,-4.2399 0.67287,1.56964 -2.22701,2.57311 -4.04911,5.06372 -4.04911,5.5347 0,1.13333 6.30278,2.43461 31.5,6.50352 11.55,1.86512 32.475,5.26207 46.5,7.54876 14.025,2.2867 29.775,4.75827 35,5.49238 5.225,0.73411 13.55,2.02779 18.5,2.87484 4.95,0.84705 19.125,3.144 31.5,5.10434 12.375,1.96034 26.325,4.21692 31,5.01463 7.15397,1.22071 14.4581,2.3431 39,5.99293 1.375,0.20449 6.775,1.07138 12,1.92643 5.225,0.85505 13.775,2.20378 19,2.99717 5.225,0.7934 13.55,2.12307 18.5,2.95483 4.95,0.83176 16.65,2.67449 26,4.09495 9.35,1.42046 18.88677,3.01794 21.19282,3.54996 8.62798,1.99051 8.80781,1.87293 10.1286,-6.62276 1.32343,-8.5126 3.10072,-12.98638 3.14238,-7.90994 0.0135,1.65 -0.41509,5.68519 -0.9525,8.96709 -0.53741,3.2819 -0.60156,6.34265 -0.14255,6.80166 0.93691,0.93691 19.52935,3.91194 22.63125,3.62128 1.1,-0.10307 2.675,0.0703 3.5,0.38533 4.37612,1.67089 9.53178,2.68319 19,3.73061 5.775,0.63886 12.67511,1.57718 15.33357,2.08516 2.65847,0.50798 5.19625,0.69946 5.63951,0.42551 1.62854,-1.00649 2.06416,-8.72399 2.30611,-40.85504 l 0.24728,-32.8384 -3.82825,-6.05462 c -2.10553,-3.33004 -5.62077,-10.03555 -7.81162,-14.90114 -3.76184,-8.35452 -10.01785,-20.11147 -11.92748,-22.41537 -0.47773,-0.57636 -3.62534,-6.42636 -6.99469,-13 -6.91755,-13.49621 -15.86559,-37.49679 -18.99627,-50.95207 -6.7545,-29.03009 -6.39947,-66.58756 0.75369,-79.73027 1.508,-2.77071 6.51239,-9.24845 11.12085,-14.395 9.19447,-10.26801 12.54785,-12.04167 20.97155,-11.0922 6.85335,0.77247 10.91756,4.72797 16.68559,16.23926 l 4.99984,9.97821 0.71311,-9.27066 c 0.85517,-11.11753 1.44466,-34.38307 2.31151,-91.22934 l 0.64808,-42.5 -2.33619,3.34059 c -1.28491,1.83732 -4.01912,5.43732 -6.07603,8 -2.05691,2.56267 -5.49392,7.13441 -7.63779,10.15941 -2.14387,3.025 -7.31922,8.80491 -11.50077,12.84424 -4.18155,4.03933 -8.99775,9.10548 -10.70266,11.25811 -1.70491,2.15262 -7.11583,6.99653 -12.02426,10.76424 -6.923,5.31409 -9.48175,6.74384 -11.40955,6.37532 C 595.11831,498.0134 594,497.40209 594,496.9162 c 0,-0.48588 2.77366,-3.47092 6.16369,-6.63342 12.4953,-11.65666 33.13287,-32.87523 35.99506,-37.0084 1.62189,-2.34213 2.69646,-4.66686 2.38792,-5.16609 -0.30854,-0.49922 -0.0741,-2.18294 0.52088,-3.74159 0.99014,-2.59366 1.19027,-2.68635 2.36059,-1.09323 1.21524,1.65426 1.35411,1.65426 2.7968,0 0.83493,-0.95738 2.08594,-2.86569 2.78002,-4.24069 0.69408,-1.375 3.42992,-5.45039 6.07965,-9.05642 2.64973,-3.60604 5.24454,-7.6791 5.76623,-9.05126 0.52169,-1.37216 1.26883,-21.82177 1.66029,-45.44358 0.58695,-35.41768 0.4818,-42.72955 -0.59969,-41.69874 -2.36144,2.2508 -4.11967,1.50583 -3.5402,-1.5 2.72402,-14.13013 2.80699,-14.39559 4.31795,-13.81578 1.29794,0.49807 1.4658,-0.63326 1.16376,-7.84333 -0.19412,-4.63395 -0.69988,-8.77204 -1.12392,-9.19576 -0.42403,-0.42372 -2.69106,1.11404 -5.03785,3.41724 -2.34678,2.3032 -4.58735,4.18763 -4.97903,4.18763 -1.84052,0 -0.38623,-4.60633 2.48405,-7.86798 3.03014,-3.44332 3.08611,-3.64809 1.07745,-3.94142 -1.1653,-0.17017 -4.06609,0.24682 -6.44619,0.92666 -2.3801,0.67983 -4.5642,1.19015 -4.85354,1.13404 -0.28935,-0.0561 -4.78935,0.55321 -10,1.35406 -5.21066,0.80084 -13.07392,1.84149 -17.47392,2.31255 -9.60018,1.02779 -25.72449,3.69856 -30.29915,5.01865 -1.81454,0.52361 -6.53954,1.22587 -10.5,1.56057 -3.96047,0.3347 -11.02585,1.46226 -15.70085,2.50569 -4.675,1.04342 -10.975,2.3617 -14,2.9295 -3.025,0.5678 -7.3,1.45832 -9.5,1.97895 -2.2,0.52062 -10.3,2.40007 -18,4.17656 -7.7,1.77648 -16.25,4.02919 -19,5.00601 -2.75,0.97682 -7.025,2.29353 -9.5,2.92601 -5.58934,1.42834 -20.36845,8.8457 -27.86944,13.98716 -9.45675,6.48201 -16.41535,13.88205 -18.42882,19.5979 -1.54352,4.38178 -1.7583,7.92316 -1.51616,25 l 0.28209,19.89509 -4.84155,12.5 c -8.69984,22.46141 -12.14075,27.5163 -29.66929,43.58587 -12.70899,11.65118 -24.07323,15.60164 -45.45683,15.8018 l -12,0.11233 -10,-5.9551 c -5.5,-3.2753 -10.92172,-6.87656 -12.04826,-8.0028 -1.12654,-1.12624 -3.26726,-2.84643 -4.75714,-3.82264 -4.15205,-2.72053 -11.49146,-12.61517 -13.68524,-18.44977 -1.08161,-2.87668 -2.49388,-10.43167 -3.13839,-16.78888 -1.25403,-12.36934 -1.29757,-11.98177 3.72143,-33.12146 1.32418,-5.57736 2.39772,-11.87736 2.38564,-14 -0.0448,-7.87438 -6.15224,-16.35935 -11.77535,-16.35935 -3.17438,0 -11.18998,5.08256 -15.17692,9.62343 -4.337,4.93957 -7.67464,12.02257 -8.91069,18.9099 -0.92173,5.13586 -1.93053,18.92632 -4.67933,63.96667 -0.73196,11.99341 -2.83303,22.32998 -7.39339,36.37303 -2.07666,6.39484 -4.11851,13.1897 -4.53743,15.09971 -0.41893,1.91 -3.81116,11.135 -7.53829,20.5 -3.72713,9.36499 -7.23394,18.82726 -7.7929,21.02726 -1.12851,4.44169 -2.76581,28.47432 -2.41855,35.5 0.12234,2.475 -0.0644,5.175 -0.41507,6 -0.35062,0.825 -0.52682,2.625 -0.39156,4 0.13527,1.375 -0.0949,2.16539 -0.51156,1.75641 -1.1701,-1.1486 -1.34705,-13.75641 -0.19307,-13.75641 0.59311,0 0.52931,-0.5683 -0.15657,-1.39474 -0.63664,-0.76711 -1.08845,-1.77961 -1.00403,-2.25 0.0844,-0.47039 0.10022,-3.24808 0.0351,-6.17265 -0.10776,-4.83875 -0.29845,-5.26025 -2.11842,-4.68261 -2.57139,0.81613 -2.58518,-0.76859 -0.0818,-9.39219 2.5344,-8.73029 2.92006,-12.77776 3.5834,-37.60781 0.30856,-11.55 0.76196,-22.575 1.00754,-24.5 0.24558,-1.925 0.69419,-16.325 0.99689,-32 0.30271,-15.675 0.75558,-30.975 1.00637,-34 0.2508,-3.025 0.72481,-14.95 1.05337,-26.5 0.32856,-11.55 0.73416,-23.925 0.90135,-27.5 0.61432,-13.13637 0.76945,-40.80814 0.23363,-41.67512 -0.32067,-0.51886 -5.50871,-0.40349 -12.37645,0.27522 -6.50339,0.6427 -15.64934,1.47305 -20.32434,1.84522 -4.675,0.37217 -9.4,0.85869 -10.5,1.08115 -1.1,0.22246 -4.7,0.63365 -8,0.91374 -14.3588,1.21875 -29.13601,2.67402 -30.99074,3.05199 -1.10509,0.22521 -7.63426,0.6832 -14.50926,1.01775 -6.875,0.33456 -15.2,1.0001 -18.5,1.47898 -10.51979,1.52657 -18.77659,1.63859 -19.24323,0.26107 -0.27046,-0.79843 0.60013,-1.26948 2.4099,-1.30392 1.55833,-0.0297 6.43333,-0.46988 10.83333,-0.97829 4.4,-0.50841 14.525,-1.38816 22.5,-1.955 7.975,-0.56685 27.1,-2.35271 42.5,-3.96859 15.4,-1.61588 34.075,-3.47755 41.5,-4.13704 7.425,-0.6595 14.01195,-1.59655 14.63766,-2.08234 0.70456,-0.54699 1.22195,-5.15502 1.35905,-12.10403 0.12175,-6.17144 0.34236,-12.57079 0.49024,-14.22079 0.35275,-3.93609 1.68092,-49.79416 2.00785,-69.32566 0.23815,-14.22806 1.10951,-18.90336 3.14394,-16.86894 0.36963,0.36964 -0.13146,25.17492 -1.11354,55.12285 -0.98208,29.94793 -1.50438,55.18362 -1.16067,56.07931 0.49783,1.29734 1.59202,1.52379 5.3802,1.11345 2.6154,-0.28331 8.35527,-0.79196 12.75527,-1.13034 9.52099,-0.73221 15.60772,-1.2736 29,-2.57947 5.5,-0.5363 12.475,-1.18133 15.5,-1.43341 3.025,-0.25207 6.59299,-0.71647 7.92887,-1.032 1.33588,-0.31553 6.51088,-0.76028 11.5,-0.98834 4.98912,-0.22806 11.11839,-0.79933 13.62059,-1.26948 2.50221,-0.47016 5.39734,-0.55741 6.43363,-0.1939 2.61048,0.91571 0.49954,2.03758 -3.64752,1.93849 -1.83456,-0.0438 -4.66678,0.14906 -6.29382,0.42867 -6.40235,1.10025 -14.82209,2.0213 -38.04175,4.16146 -9.35,0.86179 -22.625,2.21013 -29.5,2.99631 -6.875,0.78618 -14.975,1.70318 -18,2.03778 -3.025,0.3346 -5.89727,0.99098 -6.38283,1.45862 -1.06044,1.02131 -2.13171,23.8924 -3.60593,76.9846 -0.60324,21.725 -1.51912,52.1 -2.03529,67.5 -1.34842,40.23009 -1.25097,53.44558 0.3783,51.30169 2.0383,-2.68213 8.1001,-19.06399 12.50767,-33.80169 8.23902,-27.54898 8.05915,-26.62194 9.13174,-47.06391 0.56089,-10.68985 1.51144,-24.83609 2.11233,-31.43609 0.60089,-6.6 1.21876,-14.96124 1.37304,-18.58053 0.44211,-10.37114 4.86701,-22.84294 10.40059,-29.31452 3.43852,-4.02138 11.41915,-9.60831 15.16626,-10.6173 4.85681,-1.30781 8.35112,0.24861 12.8902,5.74149 8.17419,9.89186 9.17304,17.75068 4.48286,35.27086 -2.30992,8.62874 -2.79934,12.46037 -2.74621,21.5 0.071,12.07739 2.10779,21.91208 5.58368,26.96079 6.48204,9.41512 11.0407,13.52495 22.7237,20.48644 15.66954,9.33692 16.16623,9.49065 26.26173,8.12843 20.67358,-2.78958 25.13837,-5.08202 41.58278,-21.35069 11.57746,-11.45372 16.90324,-19.87211 22.2947,-35.24091 5.13099,-14.62633 6.53381,-23.90577 6.2632,-41.43027 -0.17551,-11.36646 0.10631,-14.30522 1.82209,-19 4.76824,-13.04703 27.70799,-29.50065 51.26083,-36.76702 11.83547,-3.65141 36.45808,-9.80136 49.03456,-12.24728 6.05,-1.17663 15.27962,-3.01686 20.51026,-4.08941 5.23067,-1.07254 11.2189,-1.95008 13.30721,-1.95008 3.89866,0 13.0616,-1.95429 12.37626,-2.63963 -0.38952,-0.38953 -27.8353,1.83601 -44.1937,3.5836 -4.95,0.52881 -13.05,1.25844 -18,1.6214 -12.25769,0.89879 -15.2862,1.15809 -28,2.39737 -6.05,0.58972 -15.725,1.3196 -21.5,1.62195 -5.775,0.30235 -11.71034,1.01283 -13.18964,1.57884 -3.40935,1.30448 -5.70836,0.1324 -3.1338,-1.59768 1.44654,-0.97207 20.1089,-3.33192 27.32344,-3.45505 0.825,-0.0141 6.87568,-0.70743 13.44594,-1.54078 6.57027,-0.83335 12.87027,-1.49143 14,-1.4624 1.88795,0.0485 9.94923,-0.6047 18.55406,-1.50345 1.925,-0.20106 8,-0.66082 13.5,-1.0217 5.5,-0.36087 11.817,-0.87781 14.03777,-1.14875 2.22077,-0.27094 7.62077,-0.71793 12,-0.99332 9.17233,-0.57681 14.70671,-1.14722 18.96223,-1.95438 1.65,-0.31296 5.7,-0.74648 9,-0.96338 3.3,-0.21689 8.25,-0.66623 11,-0.99854 11.39701,-1.37718 16.36541,-1.7852 23.15462,-1.90152 3.93503,-0.0674 7.01502,-0.34758 6.8444,-0.62258 -0.17062,-0.275 1.58965,-0.44714 3.9117,-0.38252 4.69946,0.13076 16.81905,-2.1349 19.7173,-3.68599 1.60601,-0.85951 1.87198,-2.2209 1.87198,-9.58168 l 0,-8.57983 -2.75,1.80301 c -4.06167,2.66298 -7.59544,4.41388 -8.92245,4.42085 -0.64484,0.003 -1.69799,-1.58626 -2.34032,-3.53254 -0.92024,-2.78836 -0.89483,-3.8677 0.11983,-5.0903 1.15903,-1.39654 1.41055,-1.38361 2.51689,0.1294 1.58651,2.16968 4.2004,1.33615 7.89143,-2.51645 2.46588,-2.57383 2.73236,-3.37757 1.90258,-5.73849 -0.55941,-1.59169 -3.0563,-4.1037 -5.94144,-5.97744 C 649.74659,251.57952 646,247.63033 646,245.31181 c 0,-1.83474 9.70896,-11.27903 11.59511,-11.27903 2.58773,0 4.40489,1.28174 4.40489,3.10699 0,1.38212 -0.7167,1.89301 -2.65561,1.89301 -2.99611,0 -9.34439,4.38852 -9.34439,6.45971 0,1.9816 12.31093,9.57497 13.23469,8.16315 0.40408,-0.61758 0.74158,-8.38026 0.75,-17.25042 0.0118,-12.46572 0.32816,-16.38719 1.39317,-17.27107 1.96366,-1.6297 2.28748,0.44185 2.01629,12.89863 -0.12572,5.775 0.0169,13.36249 0.31703,16.8611 l 0.54561,6.36109 1.96981,-3.11109 c 1.93624,-3.05809 4.87035,-3.97261 7.46084,-2.32544 1.83815,1.1688 3.16659,5.52709 2.59543,8.51495 -0.60949,3.18832 0.31326,3.36194 3.71713,0.69939 4.93392,-3.85936 6.47393,-1.92971 3.00311,3.76291 -2.85713,4.68608 -8.06549,6.97792 -12.3428,5.43122 -6.89475,-2.49318 -7.68985,-1.59011 -7.60498,8.63766 0.0509,6.13394 0.28762,6.85156 2.95452,8.9566 l 2.89919,2.28839 8.43215,-2.03839 c 4.63768,-1.12111 9.49565,-2.03262 10.79548,-2.02557 2.62793,0.0143 8.04554,-1.09609 34.3548,-7.04104 11.9474,-2.69969 21.43774,-5.52608 28.25,-8.41337 11.06701,-4.6906 13.48315,-4.13738 5.30706,1.21515 -7.21332,4.72225 -19.54088,9.56622 -29.78706,11.70447 -1.7812,0.37171 -3.53472,1.15509 -3.89673,1.74083 -0.46082,0.74562 1.85985,0.81716 7.73853,0.23856 4.6182,-0.45454 9.74673,-0.78943 11.39673,-0.7442 3.41502,0.0936 24.48253,-1.45926 32,-2.35871 7.24636,-0.86701 10.66405,-1.20336 23.5,-2.31273 6.325,-0.54665 15.775,-1.48102 21,-2.07637 8.178,-0.93183 24.2539,-2.09843 29,-2.10449 0.825,-0.001 5.1,-0.62308 9.5,-1.38228 4.4,-0.75921 13.14737,-1.65338 19.43859,-1.98705 6.29123,-0.33366 11.81212,-0.83752 12.26866,-1.11967 0.45653,-0.28216 3.63417,-0.74999 7.06141,-1.03963 3.42723,-0.28963 7.58134,-0.69181 9.23134,-0.89372 12.19198,-1.49193 23.30376,-2.40292 36,-2.95146 4.95,-0.21386 11.47041,-0.86976 14.4898,-1.45757 3.01939,-0.5878 10.44439,-1.31912 16.5,-1.62516 11.78868,-0.59578 14.07967,-0.85477 16.65905,-1.88327 0.90685,-0.3616 1.95045,-0.16944 2.31905,0.42703 0.3687,0.59647 1.2017,0.81877 1.8512,0.49401 0.6495,-0.32475 0.3785,0.0659 -0.6023,0.86818 -1.0382,0.84928 -5.42463,1.78717 -10.49995,2.24504 -4.79427,0.43253 -9.16685,0.84061 -9.71685,0.90687 -0.55,0.0662 -5.5,0.49632 -11,0.95572 -5.5,0.4594 -11.125,1.00322 -12.5,1.2085 -1.375,0.20527 -10.375,1.042 -20,1.8594 -9.625,0.81739 -21.55,1.90089 -26.5,2.40777 -4.95,0.50688 -16.875,1.64112 -26.5,2.52055 -9.625,0.87942 -20.425,2.08304 -24,2.6747 -3.575,0.59166 -8.975,1.19334 -12,1.33705 -7.37928,0.35058 -24.77153,1.69226 -28.5,2.19856 -1.65,0.22405 -8.17095,0.8543 -14.491,1.40054 -6.32004,0.54625 -12.17004,1.20088 -13,1.45475 -0.82995,0.25387 -7.584,0.9306 -15.009,1.50386 -7.425,0.57325 -15.75,1.28269 -18.5,1.57651 -2.75,0.29383 -7.025,0.69867 -9.5,0.89966 -4.43836,0.36042 -33.17139,3.2192 -40.02577,3.98235 -1.93917,0.2159 -6.88917,0.67512 -11,1.02048 -9.67038,0.81243 -19.87329,2.56501 -20.46009,3.51448 -0.25357,0.41029 1.07161,5.25299 2.94486,10.76156 3.25909,9.5839 4.55526,16.86136 8.06136,45.26132 1.48651,12.04093 0.69029,30.6957 -1.61085,37.7408 -0.5822,1.78244 -4.80166,10.81675 -9.37658,20.07624 -10.35243,20.953 -10.22966,20.10687 -10.98128,75.68296 -0.5331,39.41944 -1.28427,73.86621 -2.07162,95 -0.2049,5.5 -0.68065,26.2 -1.05722,46 -0.72837,38.29862 -0.13232,50.1112 3.69867,73.3002 3.22345,19.51154 2.29031,33.54501 -4.16917,62.6998 -0.48743,2.2 -0.62977,6.48325 -0.31631,9.51834 0.45819,4.43655 0.17258,6.20087 -1.45692,9 -1.85341,3.18375 -2.08265,5.85495 -2.67907,31.21842 l -0.65223,27.73676 2.32611,0.91742 c 2.44514,0.96437 14.20164,3.16993 29.32611,5.5017 4.95,0.76314 13.5,2.11095 19,2.99511 5.5,0.88417 16.075,2.52583 23.5,3.64814 7.425,1.12232 15.975,2.47153 19,2.99825 5.50253,0.95812 30.28791,4.86135 35,5.51184 7.82459,1.08015 16.92176,2.51404 28,4.41334 17.03324,2.92024 24.26662,3.95204 32.5,4.6359 3.85,0.31978 9.025,1.16447 11.5,1.87709 2.475,0.71262 8.325,1.8576 13,2.5444 4.675,0.6868 9.4,1.41421 10.5,1.61646 1.1,0.20225 6.05,0.83676 11,1.41004 4.95,0.57327 9.9,1.44353 11,1.93391 1.1,0.49037 4.475,1.10403 7.5,1.36368 3.025,0.25965 12.475,1.42634 21,2.59264 8.525,1.1663 18.875,2.5579 23,3.09244 4.125,0.53454 12.225,1.85265 18,2.92915 5.775,1.07649 15.225,2.6591 21,3.51692 17.9376,2.66443 34.624,5.25087 58.3342,9.04196 12.5588,2.00806 22.9783,3.50141 23.1545,3.31855 0.3739,-0.38807 1.2784,-24.65115 2.0068,-53.83246 0.5668,-22.70929 1.0636,-38.43058 2.4805,-78.5 0.5251,-14.85 1.2452,-36.45 1.6002,-48 0.691,-22.48341 0.943,-25.91297 2.0338,-27.67793 0.4495,-0.72733 0.2479,-0.85228 -0.5648,-0.35002 -0.9686,0.59866 -1.1292,-0.12424 -0.6875,-3.09549 0.317,-2.13211 0.8173,-13.10156 1.1118,-24.37656 0.2945,-11.275 0.7545,-27.475 1.0221,-36 0.2677,-8.525 0.7203,-23.6 1.0058,-33.5 1.1964,-41.49463 1.5814,-53.54525 2.0288,-63.5 0.621,-13.8186 2.2429,-63.07127 2.9473,-89.5 0.5276,-19.7951 0.8064,-28.63134 2.0507,-65 0.2823,-8.25 0.7265,-21.3 0.987,-29 1.3147,-38.85067 1.6051,-46.92293 2.546,-70.78572 0.5592,-14.18215 0.717,-26.27059 0.3508,-26.86321 -0.4468,-0.72287 -3.7502,-0.86339 -10.037,-0.42695 -5.154,0.3578 -9.371,0.4417 -9.371,0.18645 0,-1.28987 6.0962,-3.25007 8.8505,-2.84583 1.9238,0.28236 3.1495,0.0289 3.1495,-0.65124 0,-0.61243 0.6634,-1.1135 1.4743,-1.1135 0.8109,0 2.1514,-1.30934 2.979,-2.90965 0.8275,-1.60031 2.0766,-3.10017 2.7757,-3.33302 0.9149,-0.30476 1.4111,-4.36912 1.771,-14.50815 0.275,-7.74663 0.8375,-14.42177 1.25,-14.83365 0.4125,-0.41187 0.7569,5.96364 0.7653,14.1678 0.01,8.20417 0.4101,15.54008 0.8927,16.30202 1.0977,1.73323 5.422,0.78685 8.8979,-1.94734 1.3551,-1.06591 2.9608,-1.93801 3.5682,-1.93801 0.6074,0 2.2342,-1.1041 3.6151,-2.45355 4.8115,-4.70181 10.76,-9.54645 11.7215,-9.54645 1.3058,0 9.636,-10.82098 11.7343,-15.24291 0.9257,-1.95067 3.1459,-5.28151 4.9338,-7.40188 1.7879,-2.12037 5.6667,-7.34271 8.6195,-11.60521 2.9529,-4.2625 5.7097,-7.75 6.1262,-7.75 1.7288,0 3.3016,6.36187 3.0558,12.36071 -0.064,1.57339 0.545,4.14118 1.3543,5.7062 0.8093,1.56502 3.9316,10.08959 6.9385,18.9435 3.0069,8.8539 6.3553,17.22733 7.4411,18.60762 1.0857,1.38029 1.7375,3.12596 1.4485,3.87928 -0.5745,1.49694 6.6591,18.32772 13.3244,31.00269 2.3138,4.4 8.5564,16.325 13.8724,26.5 5.3161,10.175 11.6873,21.49971 14.1583,25.16602 10.8735,16.13315 46.0896,54.84376 58.2577,64.0386 3.5885,2.71163 10.7995,8.85575 16.0245,13.6536 5.225,4.79785 16.756,14.92006 25.6245,22.4938 8.8684,7.57374 17.6345,15.88038 19.4801,18.45921 1.8457,2.57882 6.7764,8.51377 10.9572,13.18877 9.2634,10.35857 20.9382,27.01315 20.9382,29.86937 0,2.81035 -4.2227,3.86997 -7.3241,1.83786 -1.2702,-0.83228 -3.6294,-3.17045 -5.2427,-5.19592 -4.2913,-5.38774 -9.651,-10.51131 -10.9959,-10.51131 -0.6445,0 -3.6175,-2.3625 -6.6067,-5.25 -2.9891,-2.8875 -7.8863,-7.50749 -10.8827,-10.26664 -2.9963,-2.75915 -7.4729,-7.27643 -9.9479,-10.0384 -9.5516,-10.65912 -34.3872,-31.44496 -37.5714,-31.44496 -0.3747,0 -3.4244,-1.39399 -6.7772,-3.09777 -3.3528,-1.70377 -9.3425,-3.92808 -13.3104,-4.94291 -3.968,-1.01482 -10.0554,-2.97894 -13.5277,-4.3647 -3.4723,-1.38576 -8.7883,-3.03719 -11.8133,-3.66985 -6.5027,-1.35999 -18.515,-6.69029 -23.2972,-10.33792 -1.8654,-1.42277 -3.7106,-2.58685 -4.1004,-2.58685 -0.7373,0 -10.1659,-5.96787 -21.951,-13.89397 -3.7667,-2.53332 -9.8069,-6.18935 -13.4228,-8.12452 -3.6158,-1.93517 -6.7802,-4.13635 -7.0319,-4.89152 -0.4623,-1.38682 0.3322,-1.33642 6.8033,0.43158 1.7076,0.46654 -1.2123,-2.91534 -9.2118,-10.66926 -6.8829,-6.67169 -13.5669,-14.23845 -16.2112,-18.35231 -2.4747,-3.85 -7.0683,-10.825 -10.2081,-15.5 -3.1397,-4.675 -7.5004,-11.65 -9.6903,-15.5 -2.19,-3.85 -6.0433,-10.13485 -8.5631,-13.96633 -2.5197,-3.83148 -5.264,-8.17275 -6.0984,-9.64726 -6.4178,-11.34118 -14.5812,-22.65566 -15.6063,-21.63053 -1.2983,1.29831 -2.7365,42.10912 -8.4484,239.74412 -1.1187,38.70466 -1.5225,51.41065 -2.3996,75.5 -0.3004,8.25 -0.7923,26.25 -1.0931,40 -0.3008,13.75 -0.9708,35.35 -1.4889,48 -0.5181,12.65 -1.1868,33.8 -1.4861,47 -1.2005,52.95667 -1.4574,62.41834 -1.968,72.5 -0.589,11.63052 -2.2485,67.48219 -3.0093,101.27991 l -0.4903,21.77991 2.2365,0.83602 c 1.23,0.45981 11.2364,2.28356 22.2364,4.05277 19.1965,3.08752 61.6855,9.90389 75.7102,12.14594 3.6906,0.58999 7.1187,0.82018 7.6182,0.51153 0.4994,-0.30866 1.2178,-2.89682 1.5965,-5.75147 1.065,-8.0284 2.9968,-11.85461 5.9851,-11.85461 3.2605,0 6.3613,3.39848 7.7229,8.46443 3.2863,12.22746 3.088,11.88329 7.5931,13.17914 2.3244,0.66857 6.5994,1.5064 9.5,1.86185 2.9007,0.35545 7.1831,1.06328 9.5164,1.57296 2.3333,0.50968 7.2833,1.37137 11,1.91488 3.7167,0.5435 7.8826,1.18278 9.2576,1.42062 1.375,0.23783 6.55,0.93583 11.5,1.5511 4.95,0.61527 11.475,1.56383 14.5,2.10792 3.025,0.54409 16.75,2.78477 30.5,4.97928 13.75,2.19451 27.7,4.45436 31,5.0219 3.3,0.56753 9.825,1.66193 14.5,2.432 4.675,0.77006 13.45,2.34257 19.5,3.49445 20.4614,3.89574 21.9931,4.16014 26.5,4.57439 2.475,0.2275 8.775,1.31157 14,2.40905 5.225,1.09749 10.2249,2.00007 11.1108,2.00573 1.595,0.0102 6.3885,-9.39932 10.438,-20.4897 1.0041,-2.75 2.8664,-6.27203 4.1384,-7.82673 1.272,-1.55469 2.3128,-3.14583 2.3128,-3.53585 0,-1.14813 14.2372,-12.52279 17.4017,-13.90292 1.5959,-0.69603 6.0959,-3.43267 10,-6.08142 3.9041,-2.64875 8.5807,-5.32531 10.3925,-5.9479 1.8119,-0.62258 4.5119,-1.99 6,-3.0387 1.4882,-1.0487 5.6035,-2.95655 9.1452,-4.23966 3.5417,-1.28312 8.4359,-3.85684 10.8759,-5.71939 2.4401,-1.86255 6.2924,-4.19054 8.5606,-5.17332 2.2683,-0.98277 6.8241,-3.65714 10.1241,-5.94305 3.3,-2.28591 8.25,-5.65958 11,-7.49705 2.75,-1.83747 7.7,-6.11684 11,-9.5097 3.3,-3.39287 7.7238,-7.30341 9.8307,-8.69009 9.9614,-6.55618 21.9476,-17.03038 26.0163,-22.73453 11.4863,-16.10299 15.1918,-45.47056 8.6633,-68.65969 -1.1614,-4.125 -2.7013,-11.20359 -3.422,-15.73019 -0.7208,-4.52661 -1.756,-8.80161 -2.3005,-9.5 -1.0115,-1.29755 -3.2878,-13.76383 -3.2878,-18.00615 0,-2.27261 -8.0393,-14.9711 -22.4242,-35.42036 -8.1282,-11.55481 -10.5087,-14.47592 -19.4308,-23.8433 -3.667,-3.85 -8.9123,-9.66621 -11.6561,-12.9249 -2.7439,-3.2587 -7.4639,-8.69441 -10.4889,-12.07937 -3.025,-3.38497 -6.845,-8.14376 -8.4888,-10.5751 -3.0622,-4.52924 -15.8028,-21.83186 -18.7181,-25.42063 -0.8936,-1.1 -4.3298,-5.27846 -7.636,-9.28546 -3.3062,-4.007 -9.0132,-11.657 -12.6822,-17 -6.3183,-9.20113 -8.5664,-12.1896 -22.9749,-30.54083 -3.3,-4.20301 -7.8,-10.13701 -10,-13.18667 -11.9293,-16.53654 -28.1538,-37.84395 -31.3283,-41.14312 -1.141,-1.18584 -3.485,-4.44834 -5.2089,-7.25 -1.7239,-2.80165 -3.509,-5.09392 -3.967,-5.09392 -0.458,0 -1.8455,-1.6875 -3.0833,-3.75 -1.2379,-2.0625 -3.7095,-5.325 -5.4925,-7.25 -1.783,-1.925 -8.1194,-9.0583 -14.0809,-15.85177 -9.7954,-11.16241 -13.033,-14.96853 -20.9664,-24.64823 -7.1758,-8.75519 -10.6307,-12.6948 -18.3727,-20.95044 -7.715,-8.22683 -29.3179,-32.65133 -37.9692,-42.92844 -1.908,-2.26662 -7.1445,-7.72112 -11.6366,-12.12112 -4.4921,-4.4 -9.2023,-9.575 -10.4671,-11.5 -1.2648,-1.925 -3.5666,-4.97911 -5.1152,-6.78692 -4.3537,-5.0825 -9.5182,-15.63867 -16.0044,-32.71308 -7.7893,-20.50494 -7.6331,-30.11153 0.8945,-55 1.8845,-5.5 4.7073,-14.05 6.273,-19 1.5657,-4.95 4.3992,-13.5 6.2966,-19 1.8974,-5.5 6.2778,-18.55 9.7342,-29 l 6.2843,-19 0.4801,-21.38469 c 0.4913,-21.87962 -0.7888,-45.418123 -3.3236,-61.115313 -2.8327,-17.542265 -5.2482,-31.766091 -6.7929,-40 C 1264.7558,23.916082 1262,5.0038257 1262,2.0962584 c 0,-2.90125965 3.6143,-2.74592992 4.34,0.1865185 0.3063,1.2375 0.8395,4.8987897 1.185,8.1361991 0.3454,3.23741 0.9694,6.83741 1.3866,8 0.4172,1.162591 0.8593,4.588801 0.9824,7.613801 0.1232,3.025 1.0535,9.325 2.0673,14 1.0139,4.675 2.3152,11.65 2.8919,15.5 0.5766,3.85 1.9482,11.95 3.048,18 2.6008,14.307538 4.0015,38.129673 3.6748,62.500003 l -0.2614,19.5 -6.0869,18.5 c -31.9357,97.06276 -31.1374,93.91006 -27.775,109.68462 1.4997,7.03607 12.8588,33.33824 16.8114,38.92716 6.4868,9.17225 12.1421,15.90491 21.3257,25.38822 5.5925,5.775 12.1351,12.79179 14.5392,15.59286 11.0339,12.85606 15.7701,18.24698 20.9635,23.86132 13.2847,14.36167 20.2457,22.21112 21.7677,24.54582 0.8963,1.375 2.656,3.32926 3.9104,4.34279 1.2545,1.01354 5.0404,5.51354 8.4133,10 3.3728,4.48647 7.2988,9.28221 8.7243,10.65721 4.5875,4.42495 29.5081,34.05373 32.0918,38.15481 2.5252,4.0082 9.0648,12.52 19.4728,25.34519 3.1243,3.85 10.4681,13.525 16.3194,21.5 5.8514,7.975 15.2026,20.1626 20.7805,27.08355 5.5779,6.92095 12.534,16.14595 15.4579,20.5 2.9239,4.35405 8.0506,11.42993 11.3928,15.72418 3.3421,4.29426 7.0041,9.07221 8.1378,10.61768 1.1336,1.54547 3.6086,4.75786 5.5,7.13865 1.8913,2.38079 5.6888,7.58602 8.4388,11.56718 5.5331,8.01025 21.7587,27.10679 36.7474,43.2495 9.1812,9.88811 25.775,33.08368 30.6681,42.86926 1.1688,2.3375 2.8176,4.25 3.6638,4.25 0.8463,0 1.2578,0.45448 0.9145,1.00997 -0.3433,0.55548 0.316,2.91798 1.465,5.25 2.6051,5.28708 6.7794,19.28897 13.6362,45.74003 4.8023,18.52553 5.3185,21.55101 5.3596,31.41211 0.048,11.50554 -0.8011,15.70354 -6.0335,29.83446 -4.7102,12.7209 -16.6531,26.42421 -32.9033,37.75343 -1.9723,1.375 -6.7206,5.59202 -10.5519,9.37117 -3.8312,3.77914 -9.3881,8.50414 -12.3486,10.5 -11.695,7.88446 -13.3814,9.05372 -14.9698,10.37901 -0.9061,0.75601 -3.6725,2.21913 -6.1475,3.25137 -2.475,1.03224 -6.39,3.37837 -8.7,5.21363 -2.3101,1.83526 -7.0351,4.42116 -10.5,5.74646 -5.617,2.14838 -13.998,6.28271 -27.8,13.71373 -15.3481,8.26342 -23.9033,14.78418 -28.7071,21.88058 -2.8242,4.17208 -11.6831,25.88718 -10.8861,26.6842 0.3616,0.3616 12.0372,2.94557 19.0932,4.22559 30.1976,5.47811 37.1961,7.03426 31.6354,7.03426 -2.2078,0 -29.9308,-4.15988 -40.0522,-6.0099 -2.9792,-0.54456 -7.0977,-0.9901 -9.1522,-0.9901 -3.3053,0 -3.8713,0.37415 -4.9164,3.25 -2.9504,8.11903 -2.1332,29.35421 1.6164,42.00082 6.7193,22.6626 14.4396,33.5834 39.7039,56.1636 11.0216,9.8507 15.7437,16.1932 18.5061,24.8566 3.9597,12.4184 2.1888,25.7077 -5.1609,38.729 -1.397,2.475 -3.4852,6.9137 -4.6403,9.8638 -1.1552,2.9501 -3.3242,7.2326 -4.8201,9.5165 -1.4958,2.284 -3.1697,4.8551 -3.7197,5.7135 -14.4181,22.504 -20.8227,30.3871 -29.1478,35.876 -4.1961,2.7666 -8.0797,5.0302 -8.6302,5.0302 -0.5504,0 -3.1602,1.3287 -5.7995,2.9526 -2.6392,1.624 -7.414,3.723 -10.6106,4.6645 -6.1256,1.8042 -8.4461,1.9272 -25.3119,1.3414 -6.2682,-0.2177 -11.2551,0.063 -12.3735,0.6973 -1.7225,0.9763 -1.57,1.2948 1.893,3.953 8.0607,6.1875 19.9846,17.6849 21.1054,20.3503 0.6477,1.5405 1.6903,3.1177 2.317,3.505 0.6267,0.3873 0.9026,1.4538 0.6131,2.3701 -0.3121,0.9878 1.6109,4.9218 4.725,9.6658 l 5.2513,8 5.4843,0.6151 c 3.0164,0.3383 12.2344,1.3652 20.4844,2.2821 8.25,0.9168 19.05,2.5282 24,3.5808 12.3437,2.6249 30.224,5.5897 39,6.4667 1.1,0.1099 2.9,0.6824 4,1.2722 1.6793,0.9004 13.1115,3.1284 24.9165,4.856 1.6041,0.2348 3.1416,0.6519 3.4167,0.927 0.8212,0.8212 -3.741,0.5188 -14.3332,-0.9499 -13.5237,-1.8752 -30.9444,-4.25 -49,-6.6798 -8.25,-1.1102 -16.575,-2.4047 -18.5,-2.8768 -6.0762,-1.49 -33.0295,-5.2972 -33.5831,-4.7437 -0.5624,0.5625 2.3872,10.5601 3.6143,12.2503 2.4247,3.34 9.9871,24.8905 10.5274,30 0.9451,8.9371 -2.2525,23.0744 -7.5991,33.5972 -2.3705,4.6654 -9.8486,15.7195 -13.4644,19.9028 -2.7155,3.1417 -13.3161,20.8946 -16.3389,27.3628 -1.2499,2.6746 -4.1872,8.0746 -6.5275,12 -16.9913,28.5009 -19.554,33.4511 -23.1088,44.6372 -2.0099,6.325 -4.6923,13.75 -5.9607,16.5 -1.2684,2.75 -2.6247,6.7736 -3.0139,8.9412 -0.3892,2.1677 -2.6972,8.0177 -5.1288,13 -3.2515,6.6621 -4.5892,10.7785 -5.0561,15.5588 -0.3493,3.575 -1.0614,7.0421 -1.5825,7.7046 -1.0769,1.3692 -1.0922,3.897 -0.1959,32.2954 0.5625,17.8194 -0.5667,45.1484 -2.2106,53.5 -0.4136,2.1016 -1.9323,18.11 -3.3204,35 -1.3833,16.8327 -8.4611,46.1567 -15.0854,62.5 -1.0032,2.475 -3.4089,8.55 -5.3461,13.5 -3.0309,7.7445 -13.2107,31.42 -18.274,42.5 -3.7667,8.2429 -11.739,20.1926 -15.163,22.7278 -2.0254,1.4997 -5.7075,4.4688 -8.1825,6.5981 -2.475,2.1293 -11.025,8.1676 -19,13.4186 -7.975,5.251 -18.1659,12.8566 -22.6465,16.9014 -6.6523,6.0053 -8.7513,7.3541 -11.4443,7.3541 l -3.2978,0 3.3482,-2.4702 z m -23.1374,-882.85662 c 0.5797,-2.98942 -1.9188,-12.80762 -3.1547,-12.39652 -0.6421,0.2136 -1.5392,3.03228 -1.9934,6.26375 -0.7138,5.07762 -0.5835,6.05267 0.9596,7.18096 2.1654,1.5834 3.7552,1.18553 4.1885,-1.04819 z M 650.16737,758.78278 c 0.42915,-5.76912 0.6389,-12.21289 1.26132,-38.75 0.36765,-15.675 0.94542,-29.625 1.28392,-31 0.33851,-1.375 0.51032,-2.93149 0.3818,-3.45887 -0.12851,-0.52738 -0.4456,-16.27738 -0.70464,-35 -1.00529,-72.65938 -0.95539,-71.48088 -3.30462,-78.03986 -4.68164,-13.07094 -9.81792,-17.26487 -19.64108,-16.03755 -5.75761,0.71937 -6.07526,0.92512 -13.7189,8.88635 -13.22924,13.77889 -16.9224,22.68732 -18.33619,44.22951 -0.84332,12.84981 1.00752,33.82927 4.18349,47.42042 4.88685,20.91266 17.94049,53.16109 26.63509,65.80081 1.62714,2.36545 6.05717,10.79754 9.84451,18.73797 7.35082,15.41157 9.65289,19.46122 11.06294,19.46122 0.48674,0 0.96031,-1.0125 1.05236,-2.25 z m -44.68589,-104.5 c 0.91567,-6.1384 2.44571,-8.98249 2.48811,-4.625 0.0448,4.60743 -1.07809,9.375 -2.20813,9.375 -0.6121,0 -0.71872,-1.80885 -0.27998,-4.75 z m 2.08281,-10.54313 c 0.37553,-0.98622 0.93469,-1.54122 1.24258,-1.23333 0.30789,0.30789 6.4e-4,1.11479 -0.68278,1.79313 -0.98762,0.98026 -1.10248,0.8654 -0.5598,-0.5598 z m 2.47115,-17.45687 c 0.0195,-0.4125 0.67854,-1.875 1.46456,-3.25 l 1.42913,-2.5 0.0354,3.25 c 0.0244,2.23797 -0.43165,3.25 -1.46456,3.25 -0.825,0 -1.48405,-0.3375 -1.46456,-0.75 z m 5.28788,-35.5 c 0.29707,-1.2375 0.8452,-3.93356 1.21805,-5.99125 0.85286,-4.70662 2.45863,-3.91081 2.45863,1.21848 0,4.90737 -0.81793,7.02277 -2.7154,7.02277 -1.0504,0 -1.33916,-0.67589 -0.96128,-2.25 z m 43.7217,140.87084 c 1.30785,-8.10727 0.76593,-27.89818 -0.94798,-34.62084 -0.85961,-3.37169 -0.89887,-3.29837 -1.07119,2 -0.0984,3.025 -0.33699,6.3377 -0.53025,7.36155 -0.40909,2.1673 -0.72935,21.19169 -0.51578,30.63845 0.1773,7.84218 1.23055,5.99382 3.0652,-5.37916 z M 1345.3874,467.98216 c -3.2381,-3.91004 -8.5874,-10.61001 -11.8874,-14.88883 -3.7395,-4.84863 -11.8297,-12.82459 -21.4735,-21.17011 -8.5104,-7.36474 -19.5354,-17.23628 -24.5,-21.93675 -4.9646,-4.70047 -11.2765,-10.31124 -14.0265,-12.46838 -8.6201,-6.76175 -17.2859,-15.44583 -31.9178,-31.98531 -27.0261,-30.5495 -28.9528,-33.2711 -41.8475,-59.11346 -5.2455,-10.5124 -10.7321,-21.00621 -12.1924,-23.31957 -1.4604,-2.31336 -5.9619,-11.71231 -10.0033,-20.88654 -4.0415,-9.17424 -7.793,-16.58397 -8.3367,-16.46607 -1.7526,0.38007 -12.5041,1.36849 -19.7023,1.81131 -3.85,0.23684 -10.6,0.93053 -15,1.54152 -4.4,0.611 -9.35,1.24344 -11,1.40542 -11.5737,1.1362 -23.1931,2.93817 -24.2237,3.75666 -1.5916,1.26417 0.065,4.54176 5.9931,11.85604 2.4136,2.97808 6.1234,8.56469 8.2438,12.41469 2.1205,3.85 5.9576,10.15 8.5269,14 2.5693,3.85 6.1761,9.7 8.0151,13 3.2885,5.90116 9.9483,16.20156 19.3968,30 4.6919,6.85196 31.1311,33.94332 39.048,40.01119 7.4443,5.70562 33.4389,21.65785 38.2346,23.46361 2.621,0.98689 6.7904,2.12521 9.2654,2.52961 2.475,0.40439 6.1365,1.56446 8.1366,2.57792 2.0002,1.01346 7.6252,2.83738 12.5,4.05317 12.0296,3.00016 29.6684,11.62539 39.1624,19.15011 4.2355,3.35702 15.8116,14.03549 25.7245,23.72993 16.1033,15.74839 28.0583,25.73601 29.3087,24.48556 0.2434,-0.24341 -2.2067,-3.64169 -5.4448,-7.55172 z M 670.22773,400.03081 c 6.67896,-14.34316 7.28521,-16.67618 8.31491,-31.99803 0.43349,-6.45016 0.10955,-13.67346 -1.00902,-22.5 -0.90611,-7.15 -2.05285,-16.49363 -2.54831,-20.76363 -0.94631,-8.15555 -5.75962,-25.73637 -7.04614,-25.73637 -1.22866,0 -1.83111,8.17827 -2.39412,32.5 -0.29282,12.65 -0.81425,34.7681 -1.15872,49.15134 -0.34448,14.38323 -0.29766,26.68312 0.10404,27.33308 0.76956,1.24517 2.67139,-1.40217 5.73736,-7.98639 z M 1147.5,245.41803 c 12.4505,-0.44145 19.7668,-1.31876 20.9616,-2.51349 0.2857,-0.2857 -0.5736,-3.86123 -1.9096,-7.94561 -1.3359,-4.08438 -3.8513,-12.03967 -5.5897,-17.67842 -1.7383,-5.63875 -3.566,-10.50281 -4.0615,-10.80902 -0.4954,-0.30621 -0.9008,-1.56519 -0.9008,-2.79773 0,-2.39052 -1.7211,-4.67758 -3.45,-4.58437 -1.0255,0.0553 -7.6508,8.44609 -12.4553,15.77454 -1.3229,2.01787 -3.8924,5.92556 -5.7099,8.68377 -1.8175,2.75821 -7.7989,8.83321 -13.2921,13.5 -5.4931,4.66679 -10.0112,8.88107 -10.0401,9.36505 -0.03,0.50195 5.8541,0.54585 13.6974,0.10218 7.5625,-0.42778 17.8,-0.92139 22.75,-1.0969 z m 43.8856,1290.08047 c -1.2889,-1.9671 -1.4212,-3.0303 -0.5908,-4.75 0.8126,-1.683 1.0861,-1.8121 1.1375,-0.5371 0.1877,4.6557 6.8722,6.3362 11.312,2.8439 3.8506,-3.0289 4.1207,-6.8114 0.7286,-10.2035 -4.1966,-4.1966 -5.6105,-3.7107 -5.5357,1.9022 0.048,3.6238 -0.3218,4.7988 -1.5915,5.0549 -2.4604,0.4963 -4.2178,-5.8353 -4.2869,-15.4454 -0.049,-6.7904 0.2955,-8.6472 2.0401,-11 2.3041,-3.1075 7.1489,-4.3351 8.5273,-2.1608 1.2088,1.9069 1.0661,7.6562 -0.2826,11.386 -1.0889,3.0114 -0.943,3.4114 2.5,6.8544 4.4169,4.4169 4.7657,8.1179 1.168,12.3935 -2.7347,3.25 -8.1503,6.1962 -11.3897,6.1962 -1.1417,0 -2.823,-1.1404 -3.7363,-2.5343 z m 9.3692,-24.5417 c 1.4298,-4.8706 0.4314,-8.924 -2.1982,-8.924 -2.0882,0 -3.5566,3.1931 -3.5566,7.7343 0,3.889 1.5557,6.5805 3.4405,5.9522 0.5586,-0.1862 1.6,-2.3293 2.3143,-4.7625 z m -33.6199,-2.2614 c -1.5638,-1.8843 3.3244,-6.6033 5.0512,-4.8765 0.8766,0.8766 0.8786,1.7766 0.01,3.6868 -1.265,2.7763 -3.338,3.2638 -5.0594,1.1897 z M 1174,1486.7813 c 0,-3.1064 0.92,-5.7485 2.0017,-5.7485 0.8277,0 -0.4016,6.7333 -1.4143,7.7459 -0.3231,0.3231 -0.5874,-0.5758 -0.5874,-1.9974 z m 5.0153,-29.9395 c -0.01,-2.03 0.4347,-3.9691 0.9847,-4.309 1.2898,-0.7971 1.2898,4.5042 0,6.5 -0.7226,1.1181 -0.9733,0.5603 -0.9847,-2.191 z m 3.9847,-25.25 c 0,-1.4074 0.45,-2.559 1,-2.559 0.55,0 1,0.8734 1,1.941 0,1.0675 -0.45,2.2191 -1,2.559 -0.5672,0.3505 -1,-0.4896 -1,-1.941 z m 71.1507,-24.309 c -1.1374,-2.1642 -9.1507,-26.1172 -9.1507,-27.3528 0,-2.4186 3.0948,-0.4111 5.3815,3.4909 3.0084,5.1333 7.5873,18.8971 7.6057,22.8619 0.015,3.1487 -2.3794,3.7727 -3.8365,1 z M 1187,1405.1552 c 0,-1.0326 0.675,-2.4377 1.5,-3.1224 1.6209,-1.3452 1.8084,-0.7526 0.8697,2.75 -0.7306,2.7264 -2.3697,2.984 -2.3697,0.3724 z m 80.6223,-4.1594 c -3.8533,-4.5794 -8.649,-15.3386 -9.2274,-20.7019 -0.7136,-6.6175 2.1383,-11.2611 6.9161,-11.2611 4.1764,0 7.2719,3.118 8.226,8.2859 0.5519,2.989 1.3583,4.0615 3.831,5.0951 4.4124,1.8444 5.4525,3.4494 6.9485,10.7218 1.2492,6.0726 1.4521,6.3826 3.9997,6.1094 2.729,-0.2928 3.1626,0.3765 2.0768,3.206 -0.8654,2.2553 -6.9199,2.0549 -9.2819,-0.3071 -1.1961,-1.1961 -2.1412,-4.0628 -2.5768,-7.8152 -0.9595,-8.2678 -1.9742,-9.5337 -4.8455,-6.0459 -1.2452,1.5125 -2.8095,2.75 -3.4764,2.75 -1.6567,0 -1.5802,0.3335 1.3714,5.9783 1.4211,2.7178 2.2946,5.4095 1.941,5.9816 -1.1381,1.8415 -3.2834,1.1157 -5.9025,-1.9969 z m 0.7707,-14.5448 c 1.3805,-3.5976 -0.361,-13.4182 -2.3795,-13.4182 -1.5177,0 -2.0908,7.0098 -0.8985,10.9894 1.2762,4.2596 2.2878,5.0092 3.278,2.4288 z m -48.6804,-3.039 c -0.3919,-0.3919 -0.7126,-1.566 -0.7126,-2.6092 0,-1.5375 0.6155,-1.8374 3.25,-1.5834 2.4789,0.2391 3.25,0.7879 3.25,2.3134 0,1.3968 -0.7653,2.0892 -2.5374,2.2959 -1.3956,0.1628 -2.8581,-0.025 -3.25,-0.4167 z m -162.5547,-5.3792 c 0,-1.375 0.227,-1.9375 0.5044,-1.25 0.2774,0.6875 0.2774,1.8125 0,2.5 -0.2774,0.6875 -0.5044,0.125 -0.5044,-1.25 z m 168.9997,-8.2834 c -1.5412,-3.7847 -0.8642,-9.1313 1.2081,-9.5405 2.4764,-0.489 2.9523,2.1378 1.3587,7.5005 l -1.4333,4.8234 -1.1335,-2.7834 z m -29.6998,-24.7166 c 1.0951,-5.5427 1.618,-7 2.5117,-7 0.8475,0 -1.4644,8.8562 -2.5896,9.92 -0.3375,0.319 -0.3024,-0.995 0.078,-2.92 z m 34.0753,0.8224 c -0.3925,-1.4726 -0.2532,-3.4976 0.3094,-4.5 0.9519,-1.6957 1.069,-1.703 1.6846,-0.1054 0.3638,0.9444 0.2246,2.9694 -0.3095,4.5 l -0.971,2.783 -0.7135,-2.6776 z m 0.875,-17.9711 c -0.9485,-1.5347 -0.5765,-9.0108 0.5043,-10.1341 0.4142,-0.4305 1.5417,-0.4802 2.5055,-0.1103 1.4075,0.5401 1.6209,1.3727 1.0846,4.2317 -0.8803,4.6923 -2.993,7.7948 -4.0944,6.0127 z m -29.5733,-9.8469 c -0.6852,-2.0555 1.0893,-12.3349 2.3312,-13.5044 0.7466,-0.7031 0.8523,0.7555 0.3558,4.9122 -0.837,7.0066 -1.9883,10.6883 -2.687,8.5922 z m 34.5343,-27.2238 c 0.666,-10.1626 1.4444,-12.6319 3.5684,-11.3192 1.85,1.1433 -1.6355,21.5386 -3.6809,21.5386 -0.3065,0 -0.2559,-4.5987 0.1125,-10.2194 z m 350.141,-5.7643 c -0.3455,-0.559 0.073,-1.0163 0.9309,-1.0163 1.7565,0 2.0151,0.6001 0.6281,1.4573 -0.512,0.3164 -1.2136,0.118 -1.559,-0.441 z M 1578,1284.295 c -2.475,-0.2137 -4.8935,-0.7761 -5.3744,-1.2498 -1.1074,-1.0907 9.3443,-0.119 11.3744,1.0575 1.3333,0.7727 1.3333,0.8532 0,0.725 -0.825,-0.079 -3.525,-0.3191 -6,-0.5327 z m -370.5911,-5.7487 c 0.6018,-5.4246 1.8672,-8.5826 2.9838,-7.4468 0.6942,0.7061 -1.5797,11.3459 -2.6572,12.4333 -0.6549,0.6609 -0.7656,-1.0301 -0.3266,-4.9865 z m 356.0911,3.4556 c -1.5105,-0.6696 -0.944,-0.8479 2.3142,-0.7286 2.3727,0.087 4.4791,0.4251 4.6808,0.7514 0.5935,0.9603 -4.8169,0.9427 -6.995,-0.023 z m -12,-1.6597 c -10.2024,-1.3294 -21.1286,-3.547 -21.9916,-4.4634 -0.7035,-0.7471 -0.4037,-0.9103 0.9916,-0.54 1.1,0.2919 7.4,1.3027 14,2.2461 6.6,0.9435 12.675,2.0915 13.5,2.5512 1.6063,0.8951 -0.6608,0.967 -6.5,0.2061 z m -308.4529,-28.3094 c -0.02,-6.7297 0.8505,-8.5333 3.2585,-6.7499 1.3934,1.0321 1.5155,1.8679 0.7003,4.7961 -0.5431,1.9504 -1.6522,4.4254 -2.4648,5.5 -1.3615,1.8004 -1.4788,1.5219 -1.494,-3.5462 z m -30.864,-0.8155 c -0.03,-2.1877 0.6176,-4.8116 1.4394,-5.831 1.3583,-1.6848 1.436,-1.3983 0.8536,3.1465 -0.8065,6.2948 -2.2203,7.9499 -2.293,2.6845 z M 1218,1212.8487 c 0,-3.9377 1.7809,-9.8159 2.9739,-9.8159 0.8341,0 -1.337,11.6964 -2.3612,12.7206 -0.337,0.337 -0.6127,-0.9701 -0.6127,-2.9047 z m 31.2527,-2.3653 c 0.6062,-5.3787 1.3038,-6.3396 3.1876,-4.3911 1.1907,1.2317 1.1718,1.9841 -0.1308,5.1905 -2.1154,5.2073 -3.6875,4.7962 -3.0568,-0.7994 z m -164.0027,-3.1399 c 0.9625,-0.2516 2.5375,-0.2516 3.5,0 0.9625,0.2515 0.175,0.4573 -1.75,0.4573 -1.925,0 -2.7125,-0.2058 -1.75,-0.4573 z m -40.25,-6.3107 c -1.1689,-0.7554 -0.8929,-0.9728 1.25,-0.9847 1.5125,-0.01 2.75,0.4347 2.75,0.9847 0,1.2644 -2.0435,1.2644 -4,0 z m -5.5,-1 c -0.7822,-1.2656 0.5416,-1.2656 2.5,0 1.2927,0.8354 1.2663,0.9715 -0.191,0.9847 -0.93,0.01 -1.9691,-0.4347 -2.309,-0.9847 z m -3.9929,-0.9885 c -0.3504,-0.5669 0.051,-0.7346 0.941,-0.3931 1.7324,0.6648 2.0493,1.3816 0.6109,1.3816 -0.5175,0 -1.2159,-0.4448 -1.5519,-0.9885 z m -17.9178,-1.867 c -0.2908,-0.4706 0.5826,-0.6431 1.941,-0.3835 1.3583,0.2597 2.4697,0.6447 2.4697,0.8556 0,0.7737 -3.8986,0.3564 -4.4107,-0.4721 z m -4.0893,-1.1445 c 0.3399,-0.55 1.0415,-1 1.559,-1 0.5176,0 0.941,0.45 0.941,1 0,0.55 -0.7016,1 -1.559,1 -0.8575,0 -1.2809,-0.45 -0.941,-1 z m -8.5,-1.0457 c -1.0955,-0.7413 -0.6909,-0.8341 1.5,-0.344 3.6769,0.8225 4.4751,1.3948 1.9167,1.3744 -1.0542,-0.01 -2.5917,-0.4721 -3.4167,-1.0304 z m -5,-0.3953 c 0,-1.0555 1.9191,-1.4989 2.4899,-0.5753 0.3455,0.559 -0.073,1.0163 -0.9309,1.0163 -0.8574,0 -1.559,-0.1984 -1.559,-0.441 z m -3.7292,-1.1632 c 0.3323,-0.3323 1.1948,-0.3678 1.9167,-0.079 0.7977,0.3192 0.5608,0.5562 -0.6042,0.6042 -1.0541,0.043 -1.6448,-0.193 -1.3125,-0.5253 z m -19.94605,-2.2608 c -5.59639,-0.8993 -10.50889,-1.9725 -10.91667,-2.385 -1.20462,-1.2186 3.99296,-0.8595 10.26115,0.709 3.20692,0.8024 7.78437,1.6685 10.1721,1.9246 4.65089,0.4989 7.09638,1.6928 3.07534,1.5014 -1.32917,-0.063 -6.99553,-0.8508 -12.59192,-1.75 z m 278.54625,-2.2183 c -0.2223,-2.44 0.3134,-11.3975 0.7062,-11.8092 0.2059,-0.2159 0.9956,0.123 1.7548,0.753 1.1165,0.9267 1.1687,2.0847 0.2734,6.0599 -1.132,5.0264 -2.5034,7.5322 -2.7344,4.9963 z M 952,1187.4454 c -4.675,-0.747 -10.525,-1.6252 -13,-1.9514 -2.475,-0.3263 -5.175,-0.777 -6,-1.0015 -1.972,-0.5367 -21.38418,-3.537 -26.5,-4.0958 -5.35199,-0.5846 -27.64682,-3.7981 -51,-7.351 -20.61632,-3.1365 -24.71633,-4.2172 -21.17493,-5.5814 1.00379,-0.3867 3.47879,-0.2225 5.5,0.3649 2.02121,0.5874 5.92493,1.3803 8.67493,1.762 2.75,0.3816 5.55677,1.1375 6.23727,1.6796 0.68049,0.5422 1.8798,0.7392 2.66512,0.4378 0.78532,-0.3013 4.27855,-0.1231 7.76273,0.3961 7.87057,1.1727 20.34685,2.9644 24.33488,3.4945 1.65,0.2194 3.94598,0.6235 5.10218,0.8982 2.18427,0.5188 3.59618,0.7308 16.89782,2.5374 4.4,0.5976 10.25,1.4847 13,1.9713 2.75,0.4865 8.825,1.4044 13.5,2.0396 4.675,0.6351 10.3,1.544 12.5,2.0196 2.2,0.4757 5.6875,1.1333 7.75,1.4615 2.0625,0.3281 3.75,1.0262 3.75,1.5513 0,0.5251 -0.3375,0.9031 -0.75,0.8401 -0.4125,-0.063 -4.575,-0.7259 -9.25,-1.4728 z m 271.989,-4.4126 c -0.3832,-2.7323 0.1695,-6.486 1.097,-7.45 0.5611,-0.5832 0.8755,0 0.8143,1.5 -0.1302,3.2002 -1.6385,7.8955 -1.9113,5.95 z M 814,1166.5557 c -4.125,-0.6925 -12.9,-2.0647 -19.5,-3.0495 -6.6,-0.9847 -12.4275,-2.169 -12.95,-2.6319 -1.25554,-1.1122 2.48949,-1.0608 9.95,0.1365 10.95391,1.758 13.92105,2.1959 23.85729,3.5215 5.42151,0.7233 10.34901,1.8068 10.95,2.4078 1.41237,1.4124 -2.29459,1.2966 -12.30729,-0.3844 z m -49,-7.4516 c -5.775,-0.972 -15.7875,-2.5887 -22.25,-3.5928 -6.4625,-1.004 -11.75,-2.1071 -11.75,-2.4512 0,-0.3441 -1.575,-0.4418 -3.5,-0.2171 -2.14231,0.2501 -3.5,-0.022 -3.5,-0.7008 0,-1.4882 4.21858,-1.3759 11.5,0.3062 3.3,0.7624 8.925,1.7079 12.5,2.1011 10.9054,1.1996 12.16959,1.3776 22.25,3.1333 5.3625,0.934 9.75,2.0698 9.75,2.5241 0,1.1484 -2.88395,0.9364 -15,-1.1028 z m 496,-12.0123 c 0,-2.2324 0.4641,-4.059 1.0313,-4.059 1.1788,0 0.9617,6.8863 -0.2404,7.6292 -0.435,0.2689 -0.7909,-1.3377 -0.7909,-3.5702 z m -31.3286,0.2183 c -1.1037,-1.7859 0.3604,-11.0588 1.9551,-12.3823 1.7184,-1.4261 1.7233,-0.4974 0.04,7.5995 -0.723,3.478 -1.5606,5.4858 -1.9951,4.7828 z M 681,1131.0328 c -2.09199,-2.092 -2.51808,-6.2328 -1.36137,-13.2301 0.94338,-5.707 2.36137,-3.4316 2.36137,3.7891 0,7.3166 0.89587,7.8889 7.45352,4.7618 1.93675,-0.9236 3.82426,-1.3764 4.19446,-1.0062 1.03076,1.0308 -2.76166,4.7979 -6.36586,6.3234 -4.06807,1.7218 -3.90579,1.7383 -6.28212,-0.638 z m 16.82011,-8.5803 c -1.16185,-1.9692 -3.17167,-3.9831 -4.46628,-4.4753 -1.29461,-0.4922 -2.35383,-1.3231 -2.35383,-1.8464 0,-2.4776 12.92946,-6.1065 16.65844,-4.6756 1.30159,0.4995 0.68115,1.1858 -2.73771,3.0284 -4.2593,2.2955 -4.41844,2.5498 -4.35789,6.9658 0.0346,2.5209 -0.0931,4.5834 -0.28372,4.5834 -0.19062,0 -1.29717,-1.6111 -2.45901,-3.5803 z M 1234,1112.1552 c 0,-1.0326 0.7593,-2.4951 1.6872,-3.25 1.4853,-1.2081 1.605,-1.1531 1,0.4594 -0.3779,1.0075 -0.6872,2.47 -0.6872,3.25 0,0.78 -0.45,1.4182 -1,1.4182 -0.55,0 -1,-0.8449 -1,-1.8776 z m 33.393,0.2958 c 0.3339,-0.87 0.607,-3.6251 0.607,-6.1224 0,-3.7215 0.2461,-4.3365 1.364,-3.4087 1.0172,0.8442 1.1554,2.21 0.5435,5.3725 -0.4512,2.3322 -0.84,4.5779 -0.8639,4.9904 -0.024,0.4125 -0.5417,0.75 -1.1506,0.75 -0.6088,0 -0.8338,-0.7118 -0.5,-1.5818 z m -603.84459,-9.2356 c -0.41083,-2.3745 -0.50631,-4.558 -0.21218,-4.8522 0.72846,-0.7284 1.97941,6.2369 1.41269,7.8659 -0.24944,0.717 -0.78967,-0.6391 -1.20051,-3.0137 z m 576.48219,-23.6826 c 0,-1.65 0.4362,-3.675 0.9694,-4.5 0.7437,-1.1509 0.9694,-0.8017 0.9694,1.5 0,1.65 -0.4362,3.675 -0.9694,4.5 -0.7437,1.1509 -0.9694,0.8017 -0.9694,-1.5 z m 32.418,-1.5 c 0.2215,-1.375 0.4362,-4 0.4771,-5.8333 0.049,-2.2116 0.495,-3.1859 1.3243,-2.8951 1.5445,0.5414 1.1179,5.1946 -0.7948,8.6685 l -1.4095,2.5599 0.4029,-2.5 z M 159.73097,1064.3769 c 0.67703,-0.274 2.02703,-0.2906 3,-0.037 0.97297,0.2536 0.41903,0.4777 -1.23097,0.4981 -1.65,0.02 -2.44606,-0.1871 -1.76903,-0.461 z m -5.98097,-1.0064 c 0.6875,-0.2774 1.8125,-0.2774 2.5,0 0.6875,0.2774 0.125,0.5044 -1.25,0.5044 -1.375,0 -1.9375,-0.227 -1.25,-0.5044 z m 1095.6116,-0.8377 c -1.0373,-2.7033 0.4188,-4.7013 2.8835,-3.9566 3.7127,1.1219 4.4674,2.4344 2.3138,4.0239 -2.5033,1.8476 -4.4722,1.8221 -5.1973,-0.067 z m 65.0233,-1.7265 c -4.6062,-3.555 -5.3194,-4.957 -5.3531,-10.5235 -0.024,-3.8897 -0.4052,-5.25 -1.4728,-5.25 -0.7925,0 -1.7416,0.4865 -2.1091,1.081 -0.3674,0.5946 -1.7353,0.8132 -3.0396,0.4858 -2.1978,-0.5516 -2.2997,-0.4061 -1.3909,1.9841 1.7189,4.5212 1.2992,5.7459 -1.7107,4.9904 -3.9055,-0.9802 -6.6454,-4.7042 -9.1247,-12.402 -2.9055,-9.0215 -2.962,-17.6526 -0.1253,-19.1707 3.2285,-1.7278 7.8312,-0.1844 10.0697,3.3768 2.0197,3.2131 2.1927,10.6254 0.3505,15.0209 -0.6883,1.6423 -0.5317,1.7323 1.3037,0.75 3.1097,-1.6642 7.7058,-1.3512 10.2355,0.6973 1.6877,1.3666 2.3448,3.1533 2.6661,7.25 0.8264,10.5342 0.5799,10.2182 7.3583,9.4315 6.2346,-0.7236 7.3183,0 4.3861,2.9335 -2.3294,2.3293 -8.6202,1.9871 -12.0437,-0.6551 z m -18.6956,-33.5235 c -0.2515,-0.9625 -0.4573,-0.175 -0.4573,1.75 0,1.925 0.2058,2.7125 0.4573,1.75 0.2516,-0.9625 0.2516,-2.5375 0,-3.5 z M 665,1059.8939 c 0,-3.9287 4.10942,-26.3488 4.99358,-27.2439 1.73923,-1.7607 4.00634,0.2743 4.012,3.6014 0.003,1.8048 0.43001,4.8564 0.94876,6.7814 1.15701,4.2935 0.009,14.1823 -1.71215,14.7541 -0.75674,0.2514 -1.50368,-0.8116 -1.875,-2.6682 -0.33946,-1.6972 -0.98979,-3.0859 -1.44519,-3.0859 -0.81122,0 -2.90542,6.2831 -2.91642,8.75 -0.003,0.6875 -0.45558,1.25 -1.00558,1.25 -0.55,0 -1,-0.9625 -1,-2.1389 z m -13.26196,-10.3611 c -1.51908,-6.6 -2.73857,-12.45 -2.70997,-13 0.14458,-2.7802 2.95838,5.0056 4.43119,12.2611 2.69632,13.2828 1.30354,13.8807 -1.72122,0.7389 z m 572.78386,9.3267 c -5.6266,-1.0732 -6.5188,-1.5926 -4.6839,-2.7266 1.4577,-0.9009 15.2483,1.2686 17.9072,2.8171 2.2804,1.3281 -6.0867,1.2708 -13.2233,-0.091 z m 55.9781,-0.5503 c -2.6072,-0.6409 -4.6073,-2.2938 -3.988,-3.2958 0.2695,-0.4361 1.4112,-0.5519 2.537,-0.2575 2.6022,0.6805 6.951,-3.2454 6.951,-6.275 0,-2.814 -1.4242,-3.9365 -7,-5.5173 -4.8959,-1.3881 -8,-3.5209 -8,-5.4969 0,-0.6909 1.4625,-2.4047 3.25,-3.8085 6.5301,-5.1284 6.7475,-5.4592 6.8203,-10.3754 0.091,-6.1807 1.1098,-8.9635 2.5972,-7.0969 0.7645,0.9594 0.7628,3.1768 -0.01,7.7077 -0.9536,5.621 -0.8804,6.5061 0.6296,7.6102 2.417,1.7674 2.1613,2.2215 -1.654,2.9373 -1.8495,0.3469 -4.1652,1.5175 -5.146,2.6013 -1.7364,1.9187 -1.6809,2.0102 2.1127,3.4829 8.7516,3.3975 10.8839,4.9016 11.2281,7.9199 0.4288,3.7604 -1.5482,7.3894 -4.9971,9.1729 -1.5046,0.7781 -2.8705,1.3625 -3.0353,1.2987 -0.1649,-0.064 -1.1997,-0.3372 -2.2997,-0.6076 z m -600.05385,-6.6349 c -0.83267,-3.3176 1.23557,-17.1253 3.10737,-20.745 0.98731,-1.9092 2.18484,-2.8959 3.25432,-2.6813 1.45823,0.2927 1.64442,1.465 1.34684,8.4802 -0.33419,7.8782 -0.27029,8.1512 1.98287,8.4726 2.23312,0.3184 2.25246,0.3932 0.47362,1.832 -1.02002,0.825 -3.10535,2.7375 -4.63408,4.25 -3.40451,3.3684 -4.75971,3.4643 -5.53094,0.3915 z m 508.34585,1.4336 c -5.3723,-0.7505 -6.8912,-1.7161 -4.2774,-2.7191 2.0327,-0.78 13.4785,1.3051 14.9354,2.7208 1.0654,1.0353 -3.2396,1.0346 -10.658,0 z m -891.30086,-1.0894 c -1.01433,-1.6413 -3.42672,-12.3835 -2.89939,-12.9108 1.02986,-1.0298 2.3173,1.8142 3.32469,7.3444 1.07225,5.8864 0.92924,7.7581 -0.4253,5.5664 z m 395.7763,-5.7357 c 0.73872,-7.7908 3.53832,-19.6021 5.17759,-21.8439 1.13531,-1.5527 1.58273,-1.628 2.94676,-0.4959 0.88451,0.7341 1.60821,2.5974 1.60821,4.1408 0,1.5434 0.73135,3.5375 1.62523,4.4314 1.4363,1.4363 1.47794,2.3455 0.35824,7.8214 -1.48908,7.2824 -2.308,8.5017 -4.49242,6.6888 -1.24646,-1.0345 -1.47489,-2.5396 -1.04836,-6.9076 l 0.54536,-5.585 -1.4661,6.5 c -1.77396,7.8649 -3.09623,11 -4.6394,11 -0.80912,0 -0.9953,-1.7404 -0.61511,-5.75 z m 551.38026,0.25 c 0.3139,-3.3 1.1965,-6.6589 1.9615,-7.4643 2.0036,-2.1095 1.8384,0 -0.5842,7.4643 l -1.9478,6 0.5705,-6 z m -94.091,0.6317 c -1.6188,-0.3474 -2.7438,-1.0817 -2.5,-1.6317 0.5919,-1.3352 8.5195,-0.7026 12.3681,0.9869 l 3.0752,1.35 -5,-0.037 c -2.75,-0.02 -6.3245,-0.321 -7.9433,-0.6684 z M 1121,1042.3667 c -5.9759,-0.9413 -7.4003,-1.4685 -6.1146,-2.2631 1.1745,-0.7259 13.8742,1.3555 14.9727,2.4539 0.5327,0.5328 -5.0242,0.413 -8.8581,-0.1908 z m -35.5411,-6.4004 c -0.3626,-0.5866 -0.461,-1.2647 -0.2188,-1.507 0.7441,-0.744 6.7599,0.7675 6.7599,1.6985 0,1.2528 -5.7526,1.0843 -6.5411,-0.1915 z m -40.4299,-5.8944 c -0.8091,-0.5117 -1.1769,-1.2245 -0.8174,-1.584 0.9277,-0.9277 8.7884,0.5328 8.7884,1.6328 0,1.1898 -6.0713,1.1526 -7.971,-0.049 z m -32.4723,-4.9074 c -1.6188,-0.3474 -2.7438,-1.0651 -2.5,-1.5948 0.5596,-1.2158 5.0414,-0.768 9.7887,0.978 l 3.6546,1.3442 -4,-0.048 c -2.2,-0.026 -5.3245,-0.3321 -6.9433,-0.6795 z m 237.5695,-8.1317 c -0.099,-4.6986 2.0895,-15.5795 3.3784,-16.7961 0.9682,-0.91384 -0.2181,8.7439 -1.9403,15.7961 l -1.3431,5.5 -0.095,-4.5 z m -278.52736,1.4458 c -5.44564,-0.7415 -10.37314,-1.8201 -10.95,-2.397 -1.57284,-1.5728 2.27249,-1.2055 14.85116,1.4187 12.402,2.5874 10.82362,2.9832 -3.90116,0.9783 z M 928.25,1011.3271 c -1.2375,-0.2384 -2.25,-0.8521 -2.25,-1.3639 0,-1.3025 3.85051,-1.0284 8,0.5696 l 3.5,1.3478 -3.5,-0.06 c -1.925,-0.033 -4.5125,-0.2551 -5.75,-0.4934 z m -640.52675,-0.9778 c -0.26235,-0.4491 -1.29117,-4.3102 -2.28625,-8.5804 -1.26327,-5.42102 -1.49247,-8.08065 -0.75953,-8.81359 0.73295,-0.73295 1.58305,1.69612 2.81711,8.04959 1.56397,8.0519 1.65536,11.7866 0.22867,9.3444 z M 895,1006.0328 l -3.5,-0.7367 3.75,-0.1317 c 2.0625,-0.072 3.75,0.3184 3.75,0.8684 0,0.55 -0.1125,0.9408 -0.25,0.8684 -0.1375,-0.072 -1.825,-0.4632 -3.75,-0.8684 z m 5.27083,0.3958 c 0.33229,-0.3323 1.1948,-0.3678 1.91667,-0.079 0.79773,0.3192 0.56078,0.5562 -0.60417,0.6042 -1.05416,0.043 -1.64479,-0.193 -1.3125,-0.5253 z m -41.66759,-5.9727 c -8.77433,-1.36427 -10.46213,-1.89757 -9.39204,-2.96766 0.56282,-0.56282 24.9079,3.33036 25.68499,4.10746 0.81973,0.8197 -7.37827,0.2462 -16.29295,-1.1398 z m -219.04527,-8.17312 c -0.36553,-2.0625 -0.91382,-4.59385 -1.21842,-5.62523 -0.32617,-1.10441 -0.14533,-1.62277 0.43995,-1.26104 0.54658,0.3378 1.29617,2.22611 1.66577,4.19624 0.3696,1.97013 0.91876,4.2251 1.22035,5.01104 0.3016,0.78595 0.10029,1.42899 -0.44734,1.42899 -0.54763,0 -1.29477,-1.6875 -1.66031,-3.75 z M 820.75,994.31653 c -1.5125,-0.22913 -2.75,-0.77861 -2.75,-1.22107 0,-0.80438 8.89228,0.49627 9.83448,1.43847 0.54292,0.54291 -2.72808,0.44253 -7.08448,-0.2174 z m 465.625,-2.40875 c 0.3438,-1.71875 0.625,-4.23125 0.625,-5.58333 0,-1.53311 0.4705,-2.29384 1.25,-2.02126 0.6875,0.24039 1.1764,1.06539 1.0865,1.83333 -0.6546,5.58984 -1.5863,8.89626 -2.5068,8.89626 -0.6759,0 -0.846,-1.16866 -0.4547,-3.125 z m -493.31008,-2.01031 c -2.98929,-0.49583 -5.68113,-1.14757 -5.98186,-1.4483 -0.92147,-0.92147 10.35217,0.77235 11.36694,1.70784 0.5225,0.48167 0.7475,0.82316 0.5,0.75887 -0.2475,-0.0643 -2.89578,-0.52258 -5.88508,-1.01841 z m -39.46428,-5.96933 c -5.66949,-0.82721 -7.40951,-1.43981 -6.51731,-2.29451 0.74609,-0.71472 11.21955,1.30203 12.28265,2.36513 0.56871,0.56871 0.83152,0.97915 0.58402,0.91208 -0.2475,-0.0671 -3.10471,-0.50928 -6.34936,-0.9827 z m 502.47826,-1.31203 c -0.043,-1.05416 0.193,-1.64479 0.5253,-1.3125 0.3323,0.33229 0.3678,1.1948 0.079,1.91667 -0.3192,0.79773 -0.5562,0.56078 -0.6042,-0.60417 z M 722,978.8588 c -3.575,-0.50992 -6.95,-1.40496 -7.5,-1.98897 -0.6927,-0.73554 -0.3854,-0.89588 1,-0.52178 1.1,0.29703 4.475,0.85456 7.5,1.23896 3.025,0.38439 6.4,1.06341 7.5,1.50894 2,0.81006 2,0.81006 0,0.75002 -1.1,-0.033 -4.925,-0.47725 -8.5,-0.98717 z m 534.9962,-4.29159 c 0.3309,-3.00607 0.9805,-5.81857 1.4436,-6.25 0.4631,-0.43144 0.5536,1.41588 0.2011,4.10514 -0.3525,2.68927 -0.6409,5.50177 -0.6409,6.25 0,0.74824 -0.3612,1.36043 -0.8027,1.36043 -0.4415,0 -0.532,-2.45951 -0.2011,-5.46557 z M 680,972.03278 l -3.5,-0.73672 3.5,-0.0133 c 1.925,-0.007 4.85,0.33019 6.5,0.75004 l 3,0.76337 -3,-0.0133 c -1.65,-0.007 -4.575,-0.3449 -6.5,-0.75009 z m -401.3078,-1.5 C 277.80485,967.67544 274,950.24994 274,949.04337 c 0,-0.55583 0.38063,-1.01059 0.84585,-1.01059 1.05081,0 5.58343,21.22338 4.9376,23.11962 -0.32856,0.96467 -0.65719,0.77807 -1.09125,-0.61962 z m 933.8777,-8.70362 c -1.2989,-1.8545 -1.334,-2.51909 -0.2213,-4.19486 3.0589,-4.60693 7.6514,-4.68671 7.6514,-0.1329 0,2.47549 -3.0697,6.53138 -4.9433,6.53138 -0.5188,0 -1.6379,-0.99163 -2.4868,-2.20362 z m -581.33646,-8.39409 c -1.21779,-5.3652 -2.04874,-9.92032 -1.84656,-10.1225 0.57983,-0.57983 4.85601,17.49153 4.43667,18.74957 -0.20677,0.6203 -1.37232,-3.26188 -2.59011,-8.62707 z m -342.1095,6.8293 c -0.87096,-1.6274 -1.22508,-3.21789 -2.61202,-11.73159 -0.26879,-1.65 -0.78217,-6.46997 -1.14085,-10.71105 -0.71374,-8.43959 0.8267,-12.78895 4.52954,-12.78895 4.71725,0 6.35916,8.70065 3.20442,16.98065 -1.85811,4.87686 -1.96047,6.09886 -0.92909,11.0923 1.16221,5.62688 0.7521,8.92705 -1.10937,8.92705 -0.54791,0 -1.42209,-0.79578 -1.94263,-1.76841 z m 1.08616,-27.91287 c -0.69232,-3.62163 -1.21695,-2.73271 -1.13981,1.93128 0.0497,3.00669 0.29156,3.68502 0.82667,2.31872 0.41601,-1.0622 0.55693,-2.9747 0.31314,-4.25 z m 20.7904,25.93128 c 2.8e-4,-0.4125 0.95586,-3.225 2.12351,-6.25 1.16766,-3.025 2.64246,-9.32125 3.27734,-13.99167 0.87968,-6.47117 1.54378,-8.56666 2.79106,-8.80687 1.70311,-0.32799 2.20313,0.74769 3.25823,7.00936 0.59226,3.51484 0.76263,3.65859 3.22601,2.72202 3.60962,-1.37238 3.82127,-0.67803 0.86445,2.83595 -1.67615,1.99199 -2.5411,4.22714 -2.5411,6.56655 0,4.74953 -1.77789,5.60025 -3.19689,1.5297 l -1.14515,-3.28497 -1.88876,4.44729 c -1.03882,2.446 -2.60661,5.24049 -3.48397,6.20996 -1.64843,1.82149 -3.28561,2.32623 -3.28473,1.01268 z m 889.2495,0.0636 c -2.7081,-1.04054 -1.2486,-3.31363 2.1276,-3.31363 3.3009,0 7.5536,2.90869 4.4948,3.07431 -0.7548,0.0409 -2.2724,0.21951 -3.3724,0.39697 -1.1,0.17746 -2.5625,0.10652 -3.25,-0.15765 z m -902.61408,-5.9532 c -1.89452,-13.82205 1.64563,-26.00131 6.96452,-23.96026 1.74612,0.67005 1.74113,0.9957 -0.24506,15.99499 l -0.64821,4.89515 2.64642,-0.66421 c 3.65293,-0.91682 3.31719,0.23966 -1.34236,4.6239 -5.29268,4.97996 -6.59228,4.82321 -7.37531,-0.88957 z M 1151,950.25283 c -8.1311,-0.91054 -9.8394,-3.27963 -2.25,-3.12037 5.8575,0.12292 9.4765,1.07974 9.9977,2.64328 0.381,1.14302 -1.0268,1.22971 -7.7477,0.47709 z m -28,-4.12024 c -5.1908,-0.69188 -5.9925,-2.45516 -1.3222,-2.90779 3.8409,-0.37223 11.3222,1.50866 11.3222,2.84652 0,1.0203 -2.6817,1.03673 -10,0.0613 z m -32.75,-5.80554 c -1.2375,-0.23836 -2.25,-1.12715 -2.25,-1.97511 0,-1.23443 0.7475,-1.40772 3.75,-0.8694 5.5337,0.99215 11.25,2.56161 11.25,3.08878 0,0.55282 -9.5628,0.36961 -12.75,-0.24427 z m -33.5561,-4.93375 c -2.4218,-2.42171 4.7649,-3.23707 7.865,-0.89232 1.7988,1.36057 1.6051,1.47052 -2.6422,1.5 -2.5209,0.0175 -4.8711,-0.25597 -5.2228,-0.60768 z M 1029,930.92409 c -8.1968,-1.30388 -10,-1.82866 -10,-2.91036 0,-2.00047 17.9548,0.0773 25,2.8931 2.0692,0.827 1.4661,0.98996 -3.5,0.94566 -3.3,-0.0294 -8.475,-0.44722 -11.5,-0.9284 z M 267.61522,920.78278 c -2.38464,-8.69007 -2.70519,-10.75 -1.67282,-10.75 1.03489,0 2.45117,4.66801 3.56498,11.75 0.92698,5.89405 -0.15767,5.32082 -1.89216,-1 z m 728.07548,4.52802 c -3.82956,-0.57568 -2.7993,-2.81722 1.207,-2.62609 4.8539,0.23156 8.252,1.29676 7.5842,2.37739 -0.5983,0.96797 -3.4667,1.04912 -8.7912,0.2487 z M 971.5,921.5413 c -0.55,-0.18347 -2.2559,-0.61113 -3.7909,-0.95037 -1.54943,-0.34242 -2.50877,-1.07327 -2.15666,-1.643 1.02368,-1.65634 15.44756,0.7341 15.44756,2.5601 0,0.56197 -7.83286,0.5894 -9.5,0.0333 z m -31.93362,-5.4063 c -3.1952,-1.25125 0.0349,-2.3898 4.75462,-1.67594 6.69455,1.01256 8.04326,2.5526 2.179,2.48812 -2.75,-0.0302 -5.87013,-0.39572 -6.93362,-0.81218 z m -317.40849,-4.10222 c 0,-1.375 0.22698,-1.9375 0.50439,-1.25 0.27741,0.6875 0.27741,1.8125 0,2.5 -0.27741,0.6875 -0.50439,0.125 -0.50439,-1.25 z M 910.5,911.35874 c -5.89325,-0.73543 -7.95205,-1.42854 -6.6442,-2.23684 1.39623,-0.86292 9.29137,0.19811 13.1442,1.76645 2.49249,1.0146 2.49099,1.0174 -0.5,0.93121 -1.65,-0.0475 -4.35,-0.25491 -6,-0.46082 z m -289.34211,-4.32596 c 0,-1.375 0.22698,-1.9375 0.50439,-1.25 0.27741,0.6875 0.27741,1.8125 0,2.5 -0.27741,0.6875 -0.50439,0.125 -0.50439,-1.25 z M 870.25,905.30938 c -1.7875,-0.22182 -3.25,-0.82481 -3.25,-1.33996 0,-1.34732 5.90183,-1.01484 10,0.56336 l 3.5,1.34784 -3.5,-0.084 c -1.925,-0.0462 -4.9625,-0.26546 -6.75,-0.48729 z m -250.09211,-3.2766 c 0,-1.375 0.22698,-1.9375 0.50439,-1.25 0.27741,0.6875 0.27741,1.8125 0,2.5 -0.27741,0.6875 -0.50439,0.125 -0.50439,-1.25 z M 835,899.37691 c -8.61967,-1.3223 -9.23276,-1.51137 -8.21174,-2.53239 0.73168,-0.73168 3.34092,-0.5388 8.63025,0.63796 4.16982,0.9277 7.58149,1.88103 7.58149,2.11851 0,0.48093 -4.16461,0.36428 -8,-0.22408 z m -215.84211,-2.34413 c 0,-1.375 0.22698,-1.9375 0.50439,-1.25 0.27741,0.6875 0.27741,1.8125 0,2.5 -0.27741,0.6875 -0.50439,0.125 -0.50439,-1.25 z m 176.57308,-4.65594 c 0.67703,-0.27392 2.02703,-0.29059 3,-0.0371 0.97297,0.25354 0.41903,0.47766 -1.23097,0.49804 -1.65,0.0204 -2.44606,-0.18706 -1.76903,-0.46099 z m -535.62614,-5.99312 c -2.18122,-8.18194 -5.10343,-21.50739 -5.07442,-23.13967 0.0702,-3.95189 1.87139,1.74517 4.34277,13.73608 2.45522,11.91254 2.88992,17.49944 0.73165,9.40359 z M 764.5,888.29785 c -2.2,-0.2193 -4.45,-0.87698 -5,-1.46152 -1.31016,-1.39245 8.50575,-0.1978 9.9096,1.20605 0.58497,0.58497 0.60151,0.92159 0.0404,0.8223 -0.5225,-0.0925 -2.75,-0.34753 -4.95,-0.56683 z m -35.22065,-5.67679 c -3.97136,-0.65794 -7.57136,-1.55155 -8,-1.98581 -0.91325,-0.92521 6.66574,0.10642 14.05382,1.91297 6.53183,1.59717 3.37635,1.63514 -6.05382,0.0728 z M 688.25,876.30938 c -1.7875,-0.22182 -3.25,-0.76337 -3.25,-1.20344 0,-0.69723 8.74129,0.36306 11.5,1.39491 1.24893,0.46714 -3.9071,0.34748 -8.25,-0.19147 z m -76.17105,-11.69327 c -0.0434,-1.05416 0.19293,-1.64479 0.52522,-1.3125 0.33229,0.33229 0.36781,1.1948 0.0789,1.91667 -0.31922,0.79773 -0.55618,0.56078 -0.60416,-0.60417 z m -1.92106,-9.58333 c 0,-1.375 0.22698,-1.9375 0.50439,-1.25 0.27741,0.6875 0.27741,1.8125 0,2.5 -0.27741,0.6875 -0.50439,0.125 -0.50439,-1.25 z m -1.07894,-4.41667 c -0.0434,-1.05416 0.19293,-1.64479 0.52522,-1.3125 0.33229,0.33229 0.36781,1.1948 0.0789,1.91667 -0.31922,0.79773 -0.55618,0.56078 -0.60416,-0.60417 z m -0.92106,-4.58333 c 0,-1.375 0.22698,-1.9375 0.50439,-1.25 0.27741,0.6875 0.27741,1.8125 0,2.5 -0.27741,0.6875 -0.50439,0.125 -0.50439,-1.25 z M 248.60028,835.26969 c -0.96758,-4.2553 -1.99668,-8.58076 -2.28689,-9.61214 -0.30292,-1.07653 -0.11244,-1.61861 0.44722,-1.27272 1.08061,0.66785 4.83702,17.38365 4.07724,18.14343 -0.26309,0.26309 -1.26999,-3.00327 -2.23757,-7.25857 z m 341.93135,-32.74034 c -2.69806,-3.73445 -4.47861,-5.33078 -5.56231,-4.98683 -1.37219,0.43551 -1.61362,-0.75972 -1.73546,-8.59168 -0.11363,-7.30378 0.24371,-9.81634 1.8123,-12.743 1.07461,-2.00499 1.98937,-4.55211 2.03279,-5.66025 0.0602,-1.53563 0.32944,-1.32591 1.13221,0.88182 0.57929,1.59315 2.52608,4.18979 4.32618,5.7703 4.40657,3.86902 6.04677,10.48775 4.44919,17.95394 -1.42122,6.64202 -1.53076,8.88642 -0.54317,11.12913 1.73079,3.93046 -2.13236,1.47769 -5.91173,-3.75343 z m 3.03557,-11.0961 c 0.80557,-5.37195 -0.94485,-12.40047 -3.08829,-12.40047 -3.10026,0 -3.93036,11.73868 -1.05479,14.91615 2.73035,3.017 3.37181,2.62751 4.14308,-2.51568 z m 16.56738,-2.21146 c -2.75767,-3.8728 -3.78138,-8.18901 -1.94225,-8.18901 1.29755,0 5.80767,7.78656 5.80767,10.02675 0,1.8518 -1.87196,0.9618 -3.86542,-1.83774 z m 8.543,-7.61591 c -5.76884,-6.53021 -6.78901,-8.5731 -4.28117,-8.5731 0.76802,0 2.77927,-1.575 4.46945,-3.5 4.63552,-5.27957 6.10948,-4.69619 11.36978,4.5 1.41572,2.475 3.74186,5.59094 5.1692,6.92431 1.42734,1.33338 2.59516,2.84007 2.59516,3.34821 0,1.92126 -6.22282,-3.12289 -9.91552,-8.03741 l -3.84572,-5.11817 -2.11938,2.25598 c -2.75306,2.9305 -2.68971,3.53969 0.88062,8.46838 3.00586,4.14947 3.71628,6.1587 2.17758,6.1587 -0.45233,0 -3.37733,-2.89211 -6.5,-6.4269 z M 600.25,781.3705 c -2.60091,-1.04949 -1.0855,-2.96691 3.26435,-4.13032 5.70435,-1.52568 6.48565,-1.51274 6.48565,0.10739 0,0.72313 -1.59027,2.07313 -3.53393,3 -3.7006,1.76469 -4.18162,1.84385 -6.21607,1.02293 z m 653.3152,-5.44319 c 0.2315,-0.37465 -0.7009,-0.96276 -2.0721,-1.30691 -1.6382,-0.41116 -2.4931,-1.32522 -2.4931,-2.66569 0,-1.12198 -0.4028,-1.79099 -0.8952,-1.48669 -0.4924,0.3043 -1.1533,-0.11914 -1.4686,-0.94098 -0.7824,-2.03893 2.7163,-1.97937 4.4215,0.0753 0.7164,0.86324 2.1211,1.35549 3.1214,1.09388 1.0004,-0.2616 2.0709,-0.0679 2.3789,0.43048 0.308,0.49837 0.073,0.90612 -0.522,0.90612 -0.6281,0 -0.3953,1.04825 0.5548,2.49822 1.6024,2.44554 1.5833,2.49379 -0.9049,2.28786 -1.3979,-0.1157 -2.3523,-0.5169 -2.1207,-0.89155 z m -28.9256,-4.39129 c -0.3037,-0.79156 -0.1219,-1.70516 0.4041,-2.03023 0.526,-0.32508 0.9632,-1.35199 0.9716,-2.28203 0.024,-2.64525 1.2371,-3.88622 4.4847,-4.58776 2.3887,-0.51598 3.2664,-0.21995 4.3074,1.45273 1.521,2.44403 0.01,5.15453 -2.6244,4.70725 -0.8525,-0.14476 -1.805,0.6368 -2.1165,1.7368 -0.6665,2.35291 -4.6279,3.08525 -5.4269,1.00324 z m 3.3298,-3.00324 c 0,-0.55 -0.4362,-0.325 -0.9694,0.5 -0.5332,0.825 -0.9694,1.95 -0.9694,2.5 0,0.55 0.4362,0.325 0.9694,-0.5 0.5332,-0.825 0.9694,-1.95 0.9694,-2.5 z m 165.7329,-10.16667 c 0.2814,-0.73333 0.9135,-1.33333 1.4047,-1.33333 0.4911,0 0.893,0.6 0.893,1.33333 0,0.73334 -0.6321,1.33334 -1.4047,1.33334 -0.7725,0 -1.1744,-0.6 -0.893,-1.33334 z M 590.096,753.28278 c 0.0528,-1.5125 0.67434,-5 1.3812,-7.75 l 1.28521,-5 0.1188,6.16821 c 0.0653,3.39252 -0.15435,6.88002 -0.4882,7.75 -0.97655,2.54484 -2.40133,1.82023 -2.29701,-1.16821 z M 1391,754.5918 c 0,-0.24254 0.45,-0.7191 1,-1.05902 0.55,-0.33992 1,-0.14148 1,0.44098 0,0.58246 -0.45,1.05902 -1,1.05902 -0.55,0 -1,-0.19844 -1,-0.44098 z m 7,-0.51536 c 0,-0.53531 0.9,-1.45496 2,-2.04366 1.1,-0.5887 2,-0.71278 2,-0.27573 0,0.43705 -0.9,1.3567 -2,2.04366 -1.1079,0.69188 -2,0.81487 -2,0.27573 z M 258.02638,749.53278 c -0.004,-0.55 2.67238,-3.925 5.94658,-7.5 3.27421,-3.575 5.95016,-6.05 5.94657,-5.5 -0.004,0.55 -2.67956,3.925 -5.94658,7.5 -3.26703,3.575 -5.94299,6.05 -5.94657,5.5 z m -44.44321,-5.00476 c -2.76647,-2.98506 -7.55988,-16.91265 -8.30851,-24.14094 -0.45347,-4.37839 -0.24574,-5.29941 1.39302,-6.17645 5.36159,-2.86944 16.49039,9.68151 21.7152,24.49019 2.65487,7.52472 -0.96507,6.32559 -4.40927,-1.46061 l -2.00311,-4.52835 -2.57604,2.41046 c -2.29617,2.14859 -2.50811,2.9265 -1.95081,7.16046 0.71827,5.45681 -0.3229,6.06235 -3.86048,2.24524 z m 3.50429,-14.04047 2.98813,-1.54522 -2.70611,-4.97202 c -3.2235,-5.92263 -4.78161,-7.37709 -6.99354,-6.5283 -1.3527,0.51908 -1.54049,1.55358 -1.0436,5.74902 0.33325,2.81382 1.36455,5.95433 2.29178,6.9789 2.02981,2.24291 1.7695,2.22778 5.46334,0.31762 z m 64.53413,-7.95477 c 1.55587,-2.2 3.74,-4.93861 4.85363,-6.0858 1.11363,-1.14719 4.0829,-4.29719 6.59837,-7 6.15761,-6.61617 9.13506,-8.85385 5.20825,-3.9142 -5.16459,6.49669 -19.77701,21.40709 -16.66025,17 z m 314.05952,-8.25 c 0.93791,-6.93022 1.83986,-9.81623 2.89084,-9.25 0.9205,0.49593 0.85686,7.42748 -0.10788,11.75 -0.2762,1.2375 -1.15999,2.25 -1.96399,2.25 -1.16748,0 -1.33238,-0.95641 -0.81897,-4.75 z M 307,693.64179 c 0,-0.71814 10.46791,-12.84252 15.85075,-18.35901 9.54125,-9.77816 3.77305,-1.39344 -7.73344,11.24141 -5.98424,6.57107 -8.11731,8.44144 -8.11731,7.1176 z m -71,-7.8233 c 0,-2.97649 0.12109,-3.0932 1.63674,-1.57754 0.90021,0.90021 1.36434,2.34664 1.03139,3.21429 C 237.625,690.17359 236,689.17675 236,685.81849 z m 364,1.18217 c 0,-0.56766 0.75241,-2.70516 1.67201,-4.75 1.52517,-3.39136 1.7081,-3.51135 2.08288,-1.36617 0.60271,3.44978 -0.57382,7.14829 -2.27394,7.14829 -0.81452,0 -1.48095,-0.46445 -1.48095,-1.03212 z M 237,677.5918 c 0,-1.95746 -0.1125,-3.85902 -0.25,-4.22569 -0.1375,-0.36666 0.3125,-0.85416 1,-1.08333 1.53458,-0.51153 1.77158,7.30961 0.25,8.25 -0.59512,0.3678 -1,-0.82295 -1,-2.94098 z m 0,-10.05902 c 0,-0.825 0.43588,-1.5 0.96862,-1.5 0.53273,0 0.70959,0.675 0.39301,1.5 -0.31659,0.825 -0.75246,1.5 -0.96862,1.5 -0.21615,0 -0.39301,-0.675 -0.39301,-1.5 z m 0.20201,-10.46296 c 0.072,-3.87037 0.52975,-7.03704 1.01726,-7.03704 1.09656,0 0.77136,12.88775 -0.34257,13.5762 -0.44306,0.27383 -0.74668,-2.66879 -0.67469,-6.53916 z m 106.48695,-4.7313 c -0.28712,-0.46456 3.02083,-4.6609 7.351,-9.3252 8.87083,-9.55532 10.4426,-9.8751 3.05888,-0.62233 -5.99481,7.51227 -9.7168,11.06895 -10.40988,9.94753 z m -105.61001,-4.72241 c -0.0434,-1.05416 0.19292,-1.64479 0.52522,-1.3125 0.33229,0.33229 0.36781,1.1948 0.0789,1.91667 -0.31922,0.79773 -0.55618,0.56078 -0.60416,-0.60417 z m 0.0789,-6.58333 c 0,-1.375 0.22698,-1.9375 0.50439,-1.25 0.27741,0.6875 0.27741,1.8125 0,2.5 -0.27741,0.6875 -0.50439,0.125 -0.50439,-1.25 z m 0.34504,-23.5 c 0.22296,-8.8 0.42602,-16.7875 0.45123,-17.75 0.0252,-0.9625 0.5641,-1.75 1.19752,-1.75 0.84776,0 0.96707,3.76052 0.45212,14.25 -1.03132,21.00786 -2.59942,24.92646 -2.10087,5.25 z m 131.54188,5.38805 c -0.048,-1.72628 15.63045,-19.88805 17.16869,-19.88805 1.02259,0 -5.71849,8.80551 -12.63162,16.5 -2.8104,3.12805 -4.50903,4.3965 -4.53707,3.38805 z M 396,593.30967 c 0,-1.23579 6.7651,-10.03326 9.35804,-12.16939 3.04022,-2.50461 2.95093,-0.28482 -0.14467,3.59639 -4.13348,5.18248 -9.21337,9.9093 -9.21337,8.573 z m 16,-17.70783 c 0,-1.01098 10.30586,-13.6351 13.88319,-17.00615 3.68683,-3.47424 3.99938,-2.75562 0.83005,1.90847 C 422.94119,566.05523 412,577.2823 412,575.60184 z m 25.62857,-28.81906 c 3.90551,-6.53875 24.41139,-28.75 26.54259,-28.75 1.11045,0 1.55716,-0.54836 -13.23758,16.25 -6.66049,7.5625 -12.54684,13.75 -13.08079,13.75 -0.53396,0 -0.63485,-0.5625 -0.22422,-1.25 z m 184.77339,-1.58288 c 0.26626,-0.91691 0.78668,-3.81015 1.15647,-6.42942 0.81512,-5.77361 1.97607,-6.81521 2.8311,-2.54006 0.94859,4.74294 -0.2451,9.53133 -2.52464,10.12744 -1.46188,0.38229 -1.82642,0.0937 -1.46293,-1.15796 z M 432.76419,518.91655 c -4.86106,-12.1427 -5.1758,-21.52275 -0.80075,-23.86421 3.729,-1.9957 5.97476,4.03945 4.41156,11.85544 -1.13411,5.67054 -2.50118,3.36244 -1.78063,-3.00634 0.5504,-4.86492 0.4205,-6.04028 -0.6289,-5.69048 -2.62206,0.87402 -3.39176,3.4835 -2.20734,7.48353 4.8382,16.33972 5.4446,24.30936 1.00606,13.22206 z m 195.78697,-7.13377 c 0.94861,-7.01403 1.43823,-8.75 2.46789,-8.75 1.10816,0 1.29488,5.18033 0.35595,9.875 -0.34375,1.71875 -1.24907,3.125 -2.01182,3.125 -1.05504,0 -1.24931,-1.01674 -0.81202,-4.25 z M 446.45225,500.38676 c -3.35419,-3.61923 -3.76208,-11.92036 -0.86136,-17.52974 1.54826,-2.994 5.40911,-3.9392 5.40911,-1.32424 0,0.825 -0.43963,1.5 -0.97695,1.5 -1.91026,0 -4.25784,5.07079 -4.20254,9.07753 0.0668,4.83737 1.53593,6.92247 4.8776,6.92247 2.3086,0 3.2793,-0.81994 8.28703,-7 l 2.02577,-2.5 -0.98329,2.75679 c -3.74964,10.51271 -8.63577,13.4271 -13.57537,8.09719 z M 480,500.15522 c 0,-0.48265 0.74867,-1.49515 1.66372,-2.25 1.5086,-1.24448 1.55194,-1.16266 0.46482,0.87756 C 480.88863,501.10974 480,501.68271 480,500.15522 z m 152.5534,-17.78478 c 0.38623,-2.66071 1.16539,-5.72762 1.73146,-6.81536 0.96518,-1.85462 1.06849,-1.86575 1.66025,-0.17878 0.34706,0.98939 0.38889,3.89923 0.093,6.46629 -0.39957,3.466 -1.00767,4.75723 -2.36249,5.01644 -1.63726,0.31325 -1.75238,-0.14721 -1.12218,-4.48859 z m -167.40253,0.81321 c -3.28433,-3.28433 -5.14518,-8.28405 -5.83578,-15.6796 -0.62279,-6.66928 0.83782,-12.47127 3.13956,-12.47127 2.10416,0 2.60088,1.28063 1.13215,2.91885 -1.88526,2.10281 -3.07344,8.66235 -1.72054,9.49849 0.57523,0.35552 1.72137,-0.38454 2.54696,-1.64456 0.8256,-1.26002 2.91343,-3.12524 4.63963,-4.14493 l 3.13854,-1.85398 -1.24369,2.36307 c -0.68403,1.29968 -2.52709,4.24414 -4.0957,6.54324 -3.39923,4.98225 -3.51843,6.57517 -0.77979,10.42123 1.13972,1.60058 1.92205,3.68988 1.73852,4.64289 -0.29437,1.5285 -0.60788,1.45855 -2.65986,-0.59343 z m 39.24941,-11.90087 C 505.99897,468.25421 520,454.05766 520,455.46521 c 0,2.07778 -14.36117,18.56757 -16.17074,18.56757 -0.48434,0 -0.22738,-1.2375 0.57102,-2.75 z M 530,443.04589 c 0,-1.36757 14.91679,-18.01311 16.14233,-18.01311 1.29817,0 -2.16745,4.96222 -8.90462,12.75 -5.1356,5.93646 -7.23771,7.46508 -7.23771,5.26311 z m 111,-4.07213 c 0,-1.13246 0.45,-1.7809 1,-1.44098 0.55,0.33992 1,1.26648 1,2.05902 0,0.79254 -0.45,1.44098 -1,1.44098 -0.55,0 -1,-0.92656 -1,-2.05902 z m 3.41265,-26.19098 c 0.2768,-1.7875 0.78838,-5.90805 1.13685,-9.15677 0.90157,-8.4051 1.77729,-9.95373 2.59739,-4.59323 0.92416,6.04064 -0.8776,17 -2.79486,17 -1.06418,0 -1.31062,-0.85262 -0.93938,-3.25 z m -84.37453,-3 c 0.0498,-1.6317 9.877,-12.16821 10.63869,-11.40653 0.52719,0.5272 -9.32053,12.65653 -10.27575,12.65653 -0.22058,0 -0.38391,-0.5625 -0.36294,-1.25 z m 376.11977,-6.75 c 0,-1.375 0.22698,-1.9375 0.50439,-1.25 0.27741,0.6875 0.27741,1.8125 0,2.5 -0.27741,0.6875 -0.50439,0.125 -0.50439,-1.25 z M 577,389.66211 c 0,-1.58862 17.00499,-19.95767 17.76867,-19.194 0.42732,0.42733 -3.91854,6.93925 -5.71581,8.56467 -0.30407,0.275 -2.72516,3.0875 -5.38018,6.25 C 578.848,391.02963 577,392.24248 577,389.66211 z m 74.01843,-21.37933 c 0.0297,-2.82196 2.90596,-18.31864 3.61207,-19.46115 0.41663,-0.67412 0.9225,-0.55209 1.42365,0.34343 0.71738,1.28188 -0.49436,16.76165 -1.53565,19.61772 -0.69188,1.89772 -3.52106,1.49356 -3.50007,-0.5 z M 604.69346,357.93736 C 606.52761,354.79464 612,350.17372 612,351.76768 c 0,1.73664 -6.21044,9.2651 -7.64305,9.2651 -1.22089,0 -1.16386,-0.5246 0.33651,-3.09542 z M 628,331.69343 c 0,-1.79626 11.73997,-14.25401 12.61146,-13.38252 1.26858,1.26858 -9.29081,14.72187 -11.55509,14.72187 -0.581,0 -1.05637,-0.60271 -1.05637,-1.33935 z M 0,329.03278 c 0,-0.55 0.45,-1 1,-1 0.55,0 1,0.45 1,1 0,0.55 -0.45,1 -1,1 -0.55,0 -1,-0.45 -1,-1 z m 356,-8 c 1.93876,-1.25292 3,-1.25292 3,0 0,0.55 -1.0125,0.99311 -2.25,0.98469 -1.81944,-0.0124 -1.96296,-0.20082 -0.75,-0.98469 z m 4.27083,-0.60417 c 0.33229,-0.33229 1.19479,-0.36781 1.91667,-0.0789 0.79773,0.31922 0.56078,0.55618 -0.60417,0.60416 -1.05416,0.0434 -1.64479,-0.19293 -1.3125,-0.52522 z M 364,320.6191 c 0,-0.90199 10.77754,-2.52876 20,-3.0188 5.225,-0.27764 11.75,-0.77032 14.5,-1.09487 3.29128,-0.38842 4.48738,-0.26993 3.5,0.34671 -1.64452,1.02704 -10.39543,2.2954 -19,2.75387 -3.025,0.16118 -5.5,0.35784 -5.5,0.43702 0,0.0792 -3.0375,0.34121 -6.75,0.58228 -3.7125,0.24107 -6.75,0.23828 -6.75,-0.006 z m 494.03518,-3.52058 c -1.35242,-2.52702 -1.30589,-3.06574 0.26482,-3.06574 1.92059,0 3.62088,2.04261 3.01487,3.62186 -0.7434,1.93726 -2.06522,1.71313 -3.27969,-0.55612 z M 412.1031,316.03489 c 1.35764,-0.79359 15.09628,-2.49434 27.8969,-3.45345 1.925,-0.14423 5.4125,-0.59124 7.75,-0.99335 2.84361,-0.48917 4.25,-0.3711 4.25,0.35679 0,0.59835 -0.3375,1.01646 -0.75,0.92914 -0.4125,-0.0873 -1.425,0.10503 -2.25,0.42744 -2.35835,0.92163 -23.2487,2.77699 -25.75,2.28696 -1.2375,-0.24244 -2.25,-0.0166 -2.25,0.50178 0,0.51842 -2.3625,0.9289 -5.25,0.91217 -3.74937,-0.0217 -4.79178,-0.29825 -3.6469,-0.96748 z M 1009,260.53278 c 0,-0.275 -0.1125,-0.8375 -0.25,-1.25 -0.1375,-0.4125 0.65,-0.83191 1.75,-0.93203 7.5092,-0.68344 15.5213,-1.54941 18.5,-1.99953 1.925,-0.2909 5.1875,-0.59405 7.25,-0.67367 2.0625,-0.0796 3.75,-0.43733 3.75,-0.7949 0,-0.55114 3.3574,-0.72138 18.363,-0.9311 1.0247,-0.0143 2.1367,0.24756 2.4711,0.58197 1.3062,1.30625 -2.5824,2.37794 -10.7734,2.96911 -11.9937,0.86564 -19.2318,1.50927 -29.0607,2.58417 -9.7322,1.06433 -12,1.14861 -12,0.44598 z m 170.2708,-17.10417 c 0.3323,-0.33229 1.1948,-0.36781 1.9167,-0.0789 0.7977,0.31922 0.5608,0.55618 -0.6042,0.60416 -1.0541,0.0434 -1.6448,-0.19293 -1.3125,-0.52522 z m -85.1602,-38.56828 c -0.1038,-4.38518 -0.3183,-4.74101 -3.4897,-5.78764 -3.4754,-1.14699 -7.3887,-4.60546 -6.3671,-5.62706 0.3162,-0.31619 1.484,-0.0884 2.5951,0.50627 1.3617,0.72879 2.8563,0.76326 4.5856,0.10577 2.0282,-0.77109 2.5684,-1.66128 2.5792,-4.25014 0.01,-1.80111 0.2767,-4.25556 0.5982,-5.45432 0.4792,-1.78687 -0.1368,-2.54758 -3.4192,-4.2221 -4.5496,-2.32106 -8.1927,-6.45188 -8.1927,-9.28956 0,-2.36636 5.6074,-7.66191 9,-8.4995 1.375,-0.33947 2.8306,-1.11043 3.2347,-1.71324 0.4041,-0.60282 0.7947,-6.49603 0.8681,-13.09603 0.073,-6.6 0.4796,-18.075 0.9026,-25.5 0.4716,-8.2773 0.5711,-0.28469 0.2572,20.65986 l -0.5119,34.15986 3.1152,1.61095 c 7.5105,3.88383 7.9056,10.83273 0.972,17.0968 -3.1055,2.80562 -4.4114,4.95913 -5.3611,8.84082 l -1.2556,5.13171 -0.1106,-4.67245 z m 5.4974,-17.57755 c 1.9284,-2.54037 1.6838,-4.25 -0.608,-4.25 -1.5556,0 -2,0.66667 -2,3 0,3.42203 0.7033,3.75911 2.608,1.25 z m -4.608,-15.75 c 0,-2.475 -0.3085,-4.5 -0.6855,-4.5 -1.2345,0 -5.3145,4.31811 -5.3145,5.62462 0,0.7018 0.7875,1.73468 1.75,2.29528 3.3702,1.96294 4.25,1.25494 4.25,-3.4199 z m -45,32.52116 c -0.825,-0.52152 -1.519,-1.30212 -1.5422,-1.73469 -0.023,-0.43256 -1.0782,-3.03647 -2.3445,-5.78647 -3.4385,-7.46751 -3.7697,-11.7018 -1.236,-15.80141 1.1675,-1.88906 2.1227,-4.11394 2.1227,-4.94418 0,-2.63737 2.7193,-4.02966 6.489,-3.32244 3.6863,0.69155 5.0119,3.56803 1.6443,3.56803 -1.2924,0 -2.4961,1.51469 -3.9129,4.92382 -1.9417,4.67232 -1.9573,5.00432 -0.3046,6.5 0.9579,0.8669 3.1687,1.57618 4.9129,1.57618 3.7877,0 4.3125,2.33589 0.9213,4.10027 -1.2375,0.64385 -2.3751,1.27228 -2.528,1.3965 -0.1529,0.12422 0.2096,1.5082 0.8055,3.07551 2.1047,5.53591 -0.7266,9.16768 -5.0275,6.44888 z m 16.4955,-16.02723 c -2.0211,-2.75334 -4.5832,-5.64238 -5.6935,-6.42009 -2.5281,-1.77069 -1.3766,-3.93487 1.6847,-3.16653 1.4886,0.37361 3.5293,-0.28617 5.9353,-1.91897 4.2096,-2.85669 5.8416,-3.08052 7.54,-1.03409 1.0951,1.3195 5.038,8.56448 5.038,9.25719 0,1.01336 -3.1515,-0.0428 -5.396,-1.80828 -2.1197,-1.66739 -2.9605,-1.85216 -4.1052,-0.90213 -1.2418,1.03058 -1.1689,1.72532 0.5308,5.057 2.4623,4.82655 2.4728,5.94197 0.056,5.94197 -1.1421,0 -3.3979,-2.0203 -5.5897,-5.00607 z m -836.04095,-1.44848 c -5.16952,-5.16951 -1.8103,-15.82756 6.01971,-19.09914 4.76011,-1.9889 7.02874,-0.92648 9.16074,4.29008 1.02575,2.5098 2.59723,6.18335 3.49217,8.16344 l 1.62718,3.60017 1.1463,-2.87685 c 0.63047,-1.58226 1.42804,-6.2098 1.77239,-10.28341 0.63102,-7.46501 1.59317,-9.47353 3.58432,-7.48238 1.47546,1.47546 -1.53339,19.84725 -3.58679,21.90064 -1.98059,1.9806 -4.21594,1.03792 -6.519,-2.74915 l -1.85987,-3.05832 -2.35014,3.4298 c -2.31767,3.38243 -6.66582,6.61967 -8.89131,6.61967 -0.62764,0 -2.2457,-1.10455 -3.5957,-2.45455 z m 7.03177,-1.71335 C 240.8078,182.2522 243,177.36182 243,172.5649 c 0,-3.04722 -0.32469,-3.53212 -2.36514,-3.53212 -6.77672,0 -13.43076,12.06125 -9.06343,16.42857 2.04836,2.04836 2.62667,1.99004 5.91489,-0.59647 z m 31.76416,1.32271 c -3.27783,-2.02581 -6.82536,-20.48891 -5.12206,-26.65775 0.85269,-3.08818 4.05013,-6.49706 6.09409,-6.49706 0.42762,0 1.67749,0.9 2.77749,2 3.2427,3.2427 2.75015,10.66437 -1.0565,15.9193 -2.9805,4.11446 -3.02806,4.35639 -1.91264,9.72935 1.21891,5.87148 1.1055,6.67169 -0.78038,5.50616 z m 2.74293,-26.40481 c 0.004,-1.63459 -0.53671,-2.75 -1.33289,-2.75 -2.474,0 -4.90552,8.42167 -2.98579,10.34139 1.08494,1.08494 4.31148,-4.58668 4.31868,-7.59139 z m 379.53163,22.5 c -3.34421,-8.49475 -3.41039,-24.50923 -0.11633,-28.14913 2.75282,-3.04183 8.06258,-2.83742 10.17847,0.39184 2.25215,3.43722 1.11778,7.14635 -3.54093,11.57807 l -3.80159,3.61637 0.51204,7.15643 c 0.42751,5.9751 0.25991,7.15642 -1.01534,7.15642 -0.84006,0 -1.83741,-0.7875 -2.21632,-1.75 z m 6.18113,-22.76001 c 1.10883,-2.32526 1.33838,-3.84544 0.68007,-4.50375 -1.54556,-1.54556 -4.26809,1.04949 -4.99777,4.76376 -0.90073,4.585 2.09325,4.4047 4.3177,-0.26001 z m 11.80979,10.54087 c -1.39402,-2.69574 -3.3108,-11.73783 -3.81643,-18.0034 -0.3291,-4.07817 2.9588,-3.8118 4.96848,0.40253 0.93633,1.96351 2.32365,3.57001 3.08294,3.57001 2.10951,0 5.56572,-2.00362 7.37109,-4.27313 0.99861,-1.25535 2.24775,-1.79895 3.25,-1.41435 1.2695,0.48716 1.62796,2.03517 1.62796,7.03037 0,3.52311 0.66737,8.29719 1.48305,10.60907 1.10392,3.12885 1.16783,4.09993 0.25,3.79863 C 685.45536,171.03567 682,164.76841 682,161.3849 c 0,-3.79449 -0.45771,-3.96823 -4.7772,-1.81338 -2.75908,1.37641 -3.02616,1.89817 -2.53161,4.94572 1.2356,7.61409 -2.20125,11.29744 -5.17523,5.5464 z M 1098.355,96.532777 c 0,-4.95 0.166,-7.101078 0.3757,-4.780173 0.2098,2.320905 0.2122,6.370905 0.01,9.000006 -0.2067,2.62909 -0.3783,0.73017 -0.3813,-4.219833 z m -1085.855,-2.5 c -0.339919,-0.55 -0.168034,-1 0.381966,-1 0.55,0 1.278115,0.45 1.618034,1 0.339919,0.55 0.168034,1 -0.381966,1 -0.55,0 -1.278115,-0.45 -1.618034,-1 z M 1081.8669,77.788993 c -3.2764,-3.041149 -4.2405,-5.951295 -3.4201,-10.324099 0.8764,-4.671801 6.2494,-8.704844 11.597,-8.704844 4.1781,0 7.9562,2.392609 7.9562,5.038499 0,0.958856 -0.6525,0.650041 -1.9114,-0.90468 -1.8564,-2.292507 -2.0354,-2.317293 -6.2174,-0.860784 -2.7994,0.974989 -5.1046,2.688522 -6.5886,4.897575 -2.8231,4.202507 -2.8356,5.129322 -0.116,8.586815 1.9625,2.494835 2.6085,2.702085 6.8552,2.199128 2.5787,-0.305408 6.4412,-1.521121 8.5834,-2.701585 l 3.8948,-2.146298 -3.2019,3.264743 c -2.7305,2.784014 -4.0557,3.3262 -9,3.682119 -5.0834,0.365932 -6.1226,0.116139 -8.4312,-2.026589 z m 28.0455,0.156135 C 1106.7601,74.792839 1105,69.700215 1105,63.731562 c 0,-6.074541 0.5115,-7.030593 3.038,-5.678447 1.4913,0.798118 1.6906,1.881661 1.2465,6.778555 -0.5125,5.652662 1.3965,12.201107 3.557,12.201107 2.3509,0 5.9868,-10.270268 7.7,-21.75 0.4021,-2.694094 1.1513,-4.25 2.0464,-4.25 2.1421,0 1.8106,10.528593 -0.5473,17.382125 -3.7242,10.824326 -7.7056,13.952891 -12.1282,9.530226 z m 17.4312,-2.065401 c -3.4625,-4.39076 -1.452,-17.147661 4.0207,-25.511306 2.5986,-3.971438 3.6909,-4.835644 6.1116,-4.835644 2.2635,0 3.3043,0.694084 4.4858,2.991437 0.846,1.645291 2.3716,3.615408 3.3901,4.378039 1.4411,1.079022 1.5634,1.564926 0.5512,2.190501 -1.0552,0.652119 -0.9776,2.185571 0.4109,8.12196 0.9415,4.024935 1.706,7.880563 1.6989,8.568063 -0.032,3.09784 -4.2066,0.75109 -9.6074,-5.400488 l -5.8388,-6.650488 -1.2382,2.900488 c -0.681,1.595268 -1.2901,4.700488 -1.3536,6.900488 -0.1598,5.539762 -1.2307,8.122921 -2.6312,6.34695 z m 15.6199,-12.74119 c -1.6893,-5.56157 -2.5718,-7.10576 -4.0609,-7.10576 -2.629,0 -2.5154,4.482518 0.2277,8.982316 2.0139,3.303641 5.0016,6.219084 5.679,5.541683 0.1719,-0.171864 -0.6587,-3.510071 -1.8458,-7.418239 z M 1139,49.97376 c 0,-0.582459 -0.45,-0.780902 -1,-0.440983 -0.55,0.339919 -1,0.816476 -1,1.059017 0,0.242541 0.45,0.440983 1,0.440983 0.55,0 1,-0.476558 1,-1.059017 z"
     id="path3079"
     style="fill:#000000" />
</svg>
