<?xml version="1.0" encoding="UTF-8" standalone="no"?>
<!-- Created with Inkscape (http://www.inkscape.org/) -->

<svg
   xmlns:dc="http://purl.org/dc/elements/1.1/"
   xmlns:cc="http://creativecommons.org/ns#"
   xmlns:rdf="http://www.w3.org/1999/02/22-rdf-syntax-ns#"
   xmlns:svg="http://www.w3.org/2000/svg"
   xmlns="http://www.w3.org/2000/svg"
   version="1.1"
   width="1600.8342"
   height="1616.8606"
   id="svg2997">
  <metadata
     id="metadata3003">
    <rdf:RDF>
      <cc:Work
         rdf:about="">
        <dc:format>image/svg+xml</dc:format>
        <dc:type
           rdf:resource="http://purl.org/dc/dcmitype/StillImage" />
        <dc:title></dc:title>
      </cc:Work>
    </rdf:RDF>
  </metadata>
  <defs
     id="defs3001" />
  <path
     d="m 1086,1616.1567 c 0,-0.6152 1.0125,-1.3508 2.25,-1.6346 4.0435,-0.9274 29.0935,-4.3672 35.75,-4.9091 3.575,-0.291 8.075,-1.0161 10,-1.6113 1.925,-0.5952 5.3,-1.4851 7.5,-1.9776 2.2,-0.4925 5.8,-1.3786 8,-1.9691 4.3316,-1.1626 17.2681,-3.5688 24.5,-4.557 2.475,-0.3382 12.7177,-0.7977 22.7616,-1.021 10.0438,-0.2234 19.9438,-0.8414 22,-1.3734 2.0561,-0.532 7.5634,-1.2335 12.2384,-1.5589 11.5352,-0.8029 41.6825,-7.8006 50.5,-11.7219 2.3936,-1.0645 6.4645,-1.7877 10.1367,-1.8008 3.6537,-0.013 9.5206,-1.0505 14.5,-2.564 4.5998,-1.3981 11.7383,-3.028 15.8633,-3.622 11.2575,-1.621 26.322,-5.4495 31.165,-7.9202 2.3632,-1.2056 7.2701,-3.2033 10.9043,-4.4394 3.6342,-1.236 8.4714,-3.4239 10.7493,-4.8619 2.2779,-1.438 4.5632,-2.6145 5.0785,-2.6145 1.12,0 12.6023,-6.0276 18.1319,-9.5183 2.1622,-1.3649 4.1721,-2.4817 4.4665,-2.4817 1.0283,0 11.915,-7.5238 14.9469,-10.3298 1.6817,-1.5564 5.0826,-4.2293 7.5576,-5.9399 5.3573,-3.7026 7.3468,-5.454 19.5844,-17.2402 5.1452,-4.9555 9.4964,-9.9376 9.6695,-11.0715 0.173,-1.1338 1.9102,-4.5043 3.8604,-7.49 4.8706,-7.4569 15.0563,-27.0063 18.308,-35.1386 3.5839,-8.9633 6.1557,-18.5779 7.5672,-28.29 0.6395,-4.4 2.2898,-12.275 3.6674,-17.5 8.0728,-30.6187 8.984,-39.4623 5.8764,-57.0372 -0.8231,-4.6545 -1.5047,-11.4287 -1.5149,-15.0538 -0.045,-16.28 -5.9226,-43.9978 -11.616,-54.7834 -1.9235,-3.6441 -6.6678,-12.2506 -10.5427,-19.1256 -3.8749,-6.875 -9.3309,-16.775 -12.1245,-22 -5.4086,-10.1162 -12.0259,-20.4436 -13.8029,-21.5419 -1.8502,-1.1434 -8.1709,-15.7129 -9.0923,-20.9581 -0.4831,-2.75 -1.1182,-9.275 -1.4114,-14.5 -0.7184,-12.8047 1.4174,-20.7528 8.5748,-31.9105 7.0719,-11.0245 10.8243,-13.7057 23.4927,-16.7864 1.1021,-0.2681 5.9468,-0.5871 10.766,-0.709 7.3372,-0.1856 9.2073,-0.5804 11.5,-2.4276 1.5058,-1.2133 4.6953,-3.1003 7.0878,-4.1935 10.6352,-4.8595 24.1706,-23.9113 24.136,-33.973 -0.023,-6.6076 -2.5341,-16.1613 -6.1145,-23.2603 -3.0077,-5.9634 -12.414,-17.5314 -19.8714,-24.4382 -1.925,-1.7828 -8,-7.5722 -13.5,-12.8652 -5.5,-5.2929 -11.8,-10.549 -14,-11.6801 -5.584,-2.871 -17.0054,-6.7231 -23.2558,-7.8436 -5.1855,-0.9296 -9.2442,-3.3214 -9.2442,-5.4477 0,-1.9956 5.4211,-6.2503 12,-9.4182 3.575,-1.72137 7.625,-3.76414 9,-4.53943 1.375,-0.77529 4.3,-2.38621 6.5,-3.57983 3.94,-2.13765 14.717,-11.35364 25.3983,-21.71936 7.0065,-6.79949 15.55,-19.9479 17.9783,-27.66854 6.3284,-20.12033 7.5167,-29.15705 4.9574,-37.69914 -1.4478,-4.83241 -7.6593,-10.71297 -15.5001,-14.6743 -3.2086,-1.62108 -6.7339,-3.95664 -7.8339,-5.19014 -1.1,-1.2335 -4.3544,-3.99089 -7.2319,-6.12755 -6.484,-4.81444 -17.2681,-15.79977 -17.2681,-17.59022 0,-0.73071 -0.6565,-2.33057 -1.459,-3.55525 -5.3127,-8.10824 -7.5107,-26.4527 -6.4946,-54.20294 0.7872,-21.49871 0.8306,-21.76371 4.9286,-30.09535 2.9509,-5.9994 12.8342,-16.06363 22.025,-22.42821 1.925,-1.33304 5.0315,-3.89803 6.9033,-5.69998 1.8718,-1.80194 5.6968,-4.43461 8.5,-5.85037 11.7496,-5.93418 15.6044,-9.04695 37.1222,-29.97639 22.3285,-21.71787 30.5226,-30.71463 35.93,-39.4497 1.5322,-2.475 3.8226,-5.625 5.0899,-7 6.3748,-6.91664 13.1899,-22.94014 19.8855,-46.75435 2.8574,-10.16277 3.1709,-17.11881 1.5658,-34.74565 -0.9807,-10.76972 -1.1486,-11.30041 -8.0166,-25.35009 -3.8582,-7.89255 -10.5096,-19.36755 -14.7809,-25.5 -4.2713,-6.13245 -10.2771,-14.97491 -13.3462,-19.64991 -6.5954,-10.04645 -17.4965,-22.70865 -24.9665,-29 -2.9387,-2.475 -10.5279,-9.50088 -16.8648,-15.61306 -6.3369,-6.11218 -14.2217,-13.37297 -17.5217,-16.13509 -3.3,-2.76211 -9.8663,-8.78624 -14.5917,-13.38694 -4.7255,-4.6007 -11.4555,-10.83991 -14.9556,-13.86491 -3.5002,-3.025 -8.9057,-7.975 -12.0124,-11 -8.5017,-8.27809 -22.1228,-20.49716 -28.1149,-25.22099 -2.929,-2.30901 -11.2067,-10.06637 -18.395,-17.2386 -7.1882,-7.17223 -18.0148,-17.76541 -24.0589,-23.54041 -6.0442,-5.775 -15.5401,-15.225 -21.1019,-21 -5.5618,-5.775 -13.2958,-13.55424 -17.1867,-17.2872 -6.627,-6.35808 -15.0829,-16.50887 -15.0829,-18.10613 0,-0.39137 -2.4117,-4.40048 -5.3593,-8.90913 -6.7922,-10.38945 -5.3504,-7.65975 -22.8169,-43.19754 -4.4907,-9.13697 -12.0952,-22.28146 -21.1163,-36.5 -1.9192,-3.025 -4.4891,-9.08373 -5.7108,-13.46384 -1.854,-6.64741 -2.1133,-9.37488 -1.5687,-16.5 0.3589,-4.69489 0.8564,-14.16116 1.1055,-21.03616 0.7436,-20.52189 0.8713,-20.92182 15.0122,-47 0.7456,-1.375 2.0941,-5.186457 2.9968,-8.469904 0.9027,-3.283447 2.4463,-7.558447 3.4303,-9.5 0.9839,-1.941553 2.7704,-7.123871 3.9698,-11.516263 1.1995,-4.392392 3.4496,-10.242392 5.0002,-13 1.5507,-2.757608 3.3828,-6.777191 4.0715,-8.932407 0.6886,-2.155216 2.0529,-5.305216 3.0317,-7 3.2425,-5.614204 7.2698,-31.953648 6.2432,-40.831426 l -0.5493,-4.75 3.7812,0 3.7813,0 -0.6386,13.25 c -0.3512,7.2875 -1.3064,16.4 -2.1227,20.25 -1.4762,6.96316 -7.0624,21.656242 -11.8118,31.068039 -1.3688,2.712579 -3.4479,8.443081 -4.6203,12.73445 -1.1724,4.291369 -2.7622,8.791369 -3.5329,10 -0.7707,1.208631 -2.382,5.535033 -3.5807,9.614226 -1.1987,4.079195 -4.0198,10.829195 -6.2693,15.000005 -7.6619,14.20636 -9.5087,18.58006 -10.5916,25.08328 -0.9175,5.50953 -1.5661,23.85936 -1.4492,41 0.056,8.27078 2.222,15.41694 6.8453,22.58826 2.4507,3.80146 4.459,7.31926 4.4627,7.81735 0,0.49808 1.0429,2.29808 2.3094,4 1.2665,1.70191 3.2304,4.66939 4.3642,6.59439 1.1337,1.925 3.8986,6.49 6.1441,10.14445 2.2455,3.65445 5.5325,10.40445 7.3045,15 1.772,4.59555 4.6658,11.05555 6.4307,14.35555 6.496,12.14661 9.6065,17.47634 10.5338,18.04945 0.5227,0.32302 1.6094,2.01904 2.415,3.76893 3.2086,6.96934 11.2579,18.00495 18.2188,24.97781 3.1824,3.18791 11.1862,11.17108 17.7862,17.74038 6.6,6.56929 19.4931,19.48601 28.6514,28.7038 19.6899,19.81792 31.4611,31.18983 34.4276,33.25963 1.1824,0.825 8.6233,7.64851 16.5354,15.16336 7.9121,7.51485 15.6803,14.68001 17.2627,15.92257 1.5824,1.24256 3.8516,3.19405 5.0426,4.33664 6.3964,6.13644 27.6979,25.81121 31.5803,29.16871 4.0322,3.48704 11.296,10.22345 22.0064,20.40872 2.0243,1.925 6.8913,6.3324 10.8156,9.79421 7.472,6.59141 17.9909,19.13903 23.4598,27.98425 1.77,2.86274 7.1418,10.98445 11.9374,18.04824 4.7955,7.06378 11.8996,19.00912 15.7869,26.54519 3.8873,7.53608 7.9545,14.58874 9.0384,15.67258 1.6148,1.61484 1.9389,3.18788 1.7951,8.71307 -0.097,3.70835 0.1724,12.36746 0.5977,19.24246 0.7631,12.33582 0.7255,12.68107 -2.8606,26.2854 -1.9986,7.58198 -4.5309,16.06143 -5.6274,18.84323 -3.2618,8.27513 -12.4328,22.95298 -24.9493,39.93017 -1.375,1.86503 -13.975,14.80619 -28,28.75813 -24.8025,24.67325 -31.3952,30.11966 -42.1948,34.85779 -1.4821,0.65027 -4.6321,2.93262 -7,5.07189 -2.3679,2.13928 -5.8802,4.96463 -7.8052,6.27856 -12.0998,8.25886 -21.2616,19.37221 -23.4745,28.47483 -1.184,4.87052 -1.4821,41.27774 -0.4134,50.5 1.0719,9.25031 3.6585,18.70109 6.7573,24.68934 2.2965,4.438 10.2193,12.29397 18.3079,18.15354 3.1225,2.26202 5.969,4.58482 6.3256,5.1618 0.3566,0.57697 4.216,2.84283 8.5765,5.03524 17.8751,8.98742 21.2322,18.6641 14.9393,43.06234 -3.4143,13.23796 -5.8434,19.23256 -9.4978,23.43941 -1.4135,1.62708 -3.8535,5.21582 -5.4223,7.97497 -5.9172,10.40716 -35.9231,36.22073 -45.3547,39.01796 -1.2341,0.366 -3.8189,1.6442 -5.7439,2.8403 -1.925,1.1961 -4.4,2.6619 -5.5,3.2571 -3.5707,1.9324 -3.025,4.1857 1.1877,4.9038 7.4733,1.2738 24.6785,7.8956 30.1994,11.6229 14.3318,9.6755 39.9345,34.3196 45.0246,43.3388 1.619,2.8688 3.9367,8.4852 5.1503,12.4808 1.893,6.2322 2.1089,8.5587 1.5194,16.3687 -0.3924,5.1974 -1.4614,10.831 -2.4913,13.1285 -2.48,5.5327 -13.9864,16.7623 -22.3653,21.8273 -11.501,6.9522 -11.8566,7.0829 -19.7248,7.2484 -8.2421,0.1734 -18.1089,1.9556 -22,3.9737 -6.5311,3.3872 -15.0425,17.3081 -18.1882,29.7475 -1.8078,7.1488 -1.9187,9.0613 -0.9661,16.652 0.5919,4.7166 1.5131,10.6215 2.047,13.122 1.2477,5.8431 6.9613,16.7968 11.5698,22.1808 1.9793,2.3124 6.2831,9.3947 9.564,15.7386 3.2809,6.3438 9.09,17.1592 12.9091,24.0342 13.3608,24.0518 14.6792,27.0082 17.3914,39 3.7128,16.4162 4.5686,22.1168 5.127,34.1534 0.2718,5.8594 0.9442,12.6614 1.4942,15.1155 0.55,2.4541 1.2991,9.387 1.6647,15.4065 0.7473,12.3052 -0.4231,20.4983 -6.118,42.8246 -1.8238,7.15 -3.6308,15.7 -4.0155,19 -0.898,7.7009 -3.8548,18.9368 -7.5567,28.7153 -2.9009,7.6627 -13.5808,28.894 -17.0513,33.8976 -0.9968,1.4371 -1.5256,2.8996 -1.1752,3.25 0.3504,0.3504 -0.087,0.6371 -0.9711,0.6371 -0.8845,0 -3.6101,2.5875 -6.0568,5.75 -11.0723,14.3113 -39.1592,37.2669 -61.1683,49.9933 -7.4272,4.2947 -21.8013,11.2689 -32.4025,15.7214 -3.5214,1.479 -7.3464,3.3024 -8.5,4.0521 -3.1403,2.0407 -24.9319,7.4832 -29.9624,7.4832 -2.414,0 -8.607,1.2976 -13.7621,2.8835 -5.1552,1.5859 -12.8519,3.1595 -17.1038,3.4968 -4.2519,0.3373 -10.1019,1.5213 -13,2.6311 -9.5274,3.6484 -38.0241,10.0616 -49.0825,11.046 -5.9474,0.5294 -12.8283,1.4141 -15.2909,1.966 -2.4627,0.5518 -11.0967,0.9707 -19.1867,0.9308 -21.8457,-0.1078 -36.2422,1.6829 -56.7091,7.0537 -6.6,1.732 -15.6,3.5496 -20,4.0393 -7.4519,0.8294 -15.7586,1.8136 -29.75,3.5249 -3.9923,0.4883 -5.75,0.3613 -5.75,-0.4154 z m 263.1462,-173.7351 c -0.6304,-1.3836 -1.1462,-4.9953 -1.1462,-8.0258 0,-3.0306 -0.4627,-7.3969 -1.0283,-9.703 -1.0771,-4.392 -4.001,-23.747 -4.1079,-27.1928 -0.034,-1.1 -1.1322,-12.125 -2.4402,-24.5 -1.3079,-12.375 -3.0465,-29.025 -3.8635,-37 -0.817,-7.975 -3.9881,-37.675 -7.0471,-66 -3.0589,-28.325 -7.5738,-70.175 -10.033,-93 -5.9519,-55.2407 -5.1294,-50.1261 -7.9475,-49.4188 -1.7228,0.4324 -2.4951,0.1021 -2.9142,-1.2465 -0.6371,-2.0495 -3.7518,-30.1647 -6.1302,-55.3347 -0.8575,-9.075 -1.9895,-19.875 -2.5155,-24 -0.526,-4.125 -2.079,-18.525 -3.4512,-32 -1.3721,-13.475 -4.3098,-42.275 -6.5283,-64 -2.2185,-21.725 -4.9162,-48.725 -5.995,-60 -1.0787,-11.275 -2.6454,-26.575 -3.4815,-34 -1.6919,-15.0241 -6.8169,-63.48189 -8.5138,-80.5 -2.8875,-28.95753 -10.3861,-103.54553 -13.4714,-134 -3.5269,-34.81177 -4.3524,-43.15495 -7.025,-71 -0.8447,-8.8 -1.7352,-17.575 -1.9791,-19.5 -0.2438,-1.925 -1.1439,-10.25 -2.0002,-18.5 -0.8562,-8.25 -2.0038,-19.275 -2.5501,-24.5 -0.5462,-5.225 -1.6987,-17.15 -2.561,-26.5 -0.8623,-9.35 -1.9851,-21.05 -2.4952,-26 -0.51,-4.95 -1.2197,-11.85305 -1.5771,-15.3401 -0.4238,-4.13592 -1.152,-6.53286 -2.0945,-6.89453 -1.1927,-0.45765 -22.4151,0.65913 -42.2492,2.22325 -2.475,0.19518 -9.45,0.63774 -15.5,0.98348 -6.05,0.34573 -14.375,1.03048 -18.5,1.52165 -4.125,0.49118 -12.9,1.18338 -19.5,1.53823 -6.6,0.35485 -13.35,0.80081 -15,0.99101 -1.65,0.19021 -6.825,0.61332 -11.5,0.94026 -25.6301,1.79235 -32.4331,2.61876 -34.1192,4.14465 -1.4815,1.34068 -2.2531,1.38694 -5.2226,0.31314 -2.7722,-1.00245 -6.8233,-1.01971 -19.8213,-0.0845 -8.9853,0.64652 -25.5619,1.83367 -36.8369,2.63811 -11.275,0.80444 -23.875,1.70521 -28,2.0017 -4.125,0.2965 -20.1,1.43404 -35.5,2.52787 -27.92183,1.98324 -37.0852,2.65843 -47.5,3.49999 -3.025,0.24443 -9.775,0.70911 -15,1.03262 -5.225,0.3235 -21.425,1.47676 -36,2.56278 -14.575,1.08602 -35.5,2.64485 -46.5,3.46408 -11,0.81922 -23.6,1.70983 -28,1.97912 -4.4,0.2693 -13.4,0.91661 -20,1.43848 -6.6,0.52187 -16.5,1.22028 -22,1.55203 -5.5,0.33175 -17.425,1.22871 -26.5,1.99325 -14.5537,1.22609 -35.63287,2.75648 -89.5,6.49785 -8.25,0.57301 -17.25,1.2342 -20,1.4693 -2.75,0.23511 -12.2,0.90332 -21,1.48493 -8.8,0.58161 -17.8,1.26266 -20,1.51344 -2.2,0.25079 -12.1,0.91884 -22,1.48455 -9.9,0.56571 -20.475,1.26227 -23.5,1.54791 -3.025,0.28564 -18.325,1.41335 -34,2.50603 -15.675,1.09267 -36.825,2.66253 -47,3.48856 -10.175,0.82604 -29.75,2.16599 -43.5,2.97768 -13.75,0.81169 -29.95,1.91625 -36,2.45457 -16.92467,1.50594 -31.64359,2.57336 -97,7.03447 -15.95,1.08872 -38.675,2.65403 -50.5,3.47848 -11.825,0.82444 -31.85,2.19652 -44.5,3.04906 -27.88342,1.87921 -27.89502,1.88117 -26.28489,4.45939 1.83573,2.93949 0.44687,3.33961 -3.845,1.10771 -4.11368,-2.13923 -6.86068,-2.55713 -14.87011,-2.26221 -5.12034,0.18854 -8.66953,2.26965 -11.39516,6.68167 -1.0837,1.7542 -1.1738,1.53912 -0.73307,-1.75 l 0.50249,-3.75 -4.73724,0 c -2.60548,0 -10.564684,0.42515 -17.687126,0.94478 C 78.327452,516.46441 65.075,517.37726 56,517.97334 c -9.075,0.59609 -23.25,1.5265 -31.5,2.06759 -8.25,0.54109 -17.1375,1.18203 -19.75,1.42432 -2.6125,0.24229 -4.75,0.0203 -4.75,-0.49331 0,-1.22649 2.8016561,-1.77712 12.5,-2.45673 4.4,-0.30833 13.4,-0.97666 20,-1.48519 6.6,-0.50852 21.9,-1.63786 34,-2.50964 38.8536,-2.79931 50.60286,-4.25367 52.71966,-6.52578 2.2622,-2.42819 2.40527,-2.43479 5.1958,-0.23976 1.97237,1.55147 3.67117,1.67531 14.65773,1.06859 13.8513,-0.76492 61.78412,-4.03655 92.42681,-6.30854 23.65241,-1.7537 29.02224,-2.13593 49.5,-3.52346 16.40341,-1.11147 37.60058,-2.71435 78.5,-5.936 13.75,-1.08308 29.725,-2.23287 35.5,-2.55507 5.775,-0.32221 15.225,-0.99784 21,-1.5014 5.775,-0.50357 15,-1.1812 20.5,-1.50586 5.5,-0.32466 14.5,-1.01799 20,-1.54073 5.5,-0.52275 17.2,-1.4018 26,-1.95346 8.8,-0.55165 21.94634,-1.4568 29.21409,-2.01144 7.26775,-0.55463 23.01775,-1.66534 35,-2.46823 11.98225,-0.8029 33.03591,-2.36494 46.78591,-3.47121 13.75,-1.10626 31.975,-2.45681 40.5,-3.00121 8.525,-0.54441 22.025,-1.45209 30,-2.01708 7.975,-0.56499 18.325,-1.27395 23,-1.57546 4.675,-0.30152 13.225,-0.96666 19,-1.47808 5.775,-0.51142 17.25,-1.40313 25.5,-1.98157 8.25,-0.57845 33,-2.38856 55,-4.02248 22,-1.63392 52.6,-3.87249 68,-4.9746 15.4,-1.10211 37.45,-2.68098 49,-3.5086 11.55,-0.82762 24.6,-1.73972 29,-2.0269 4.4,-0.28718 12.725,-0.93986 18.5,-1.4504 5.775,-0.51055 15,-1.18901 20.5,-1.50769 5.5,-0.31869 12.7,-0.79517 16,-1.05884 3.3,-0.26367 21.4986,-1.61307 40.4414,-2.99868 21.8321,-1.59696 34.9718,-2.95942 35.89,-3.72146 0.7967,-0.6612 4.198,-1.28859 7.5586,-1.39421 3.3605,-0.10561 7.46,-0.25193 9.11,-0.32515 1.65,-0.0732 7.275,-0.12287 12.5,-0.11033 5.225,0.0125 18.275,-0.63504 29,-1.43906 10.725,-0.80402 31.875,-2.37047 47,-3.48101 55.7273,-4.09169 67.3774,-5.01934 67.7529,-5.39484 0.2112,-0.21115 -0.094,-4.81562 -0.679,-10.23215 -0.5846,-5.41653 -1.7692,-17.04823 -2.6325,-25.84823 -0.8632,-8.8 -2.2108,-22.3 -2.9948,-30 -0.7839,-7.7 -1.6531,-16.475 -1.9315,-19.5 -0.4521,-4.91226 -2.1611,-21.84406 -4.4745,-44.3326 -0.4432,-4.30793 -1.1961,-8.21027 -1.6732,-8.67187 -0.8005,-0.77454 -7.5765,-3.3691 -21.3674,-8.18166 -3.025,-1.05562 -6.918,-2.57059 -8.6511,-3.36659 -1.7332,-0.79601 -3.62,-1.44728 -4.1931,-1.44728 -4.1159,0 -20.7604,-6.98244 -28.1187,-11.79591 -4.6954,-3.07151 -8.7621,-5.88159 -9.0371,-6.24462 -1.3209,-1.74377 -5.9308,-3.26361 -12.34,-4.06838 -3.8801,-0.4872 -7.5284,-1.3595 -8.1074,-1.93845 -2.2985,-2.29857 -1.1325,-9.5395 2.7256,-16.92551 5.2841,-10.11587 12.0359,-17.62318 18.4718,-20.53874 2.8875,-1.30808 5.25,-2.85868 5.25,-3.44578 0,-0.5871 2.507,-2.67114 5.571,-4.6312 6.1806,-3.95367 11.9454,-11.83031 15.3831,-21.01834 5.77,-15.42155 14.2575,-25.64189 23.9748,-28.86946 4.0449,-1.34349 4.8211,-2.00289 4.8211,-4.09559 0,-1.37186 0.6635,-3.26688 1.4744,-4.21116 1.2789,-1.48919 1.3086,-3.63039 0.2238,-16.14675 -0.6879,-7.93644 -0.8959,-15.36144 -0.4622,-16.5 0.6588,-1.72988 0.8981,-1.4127 1.4558,1.92989 0.3671,2.2 1.1001,4.79294 1.6289,5.76208 0.5287,0.96915 0.7035,2.7893 0.3884,4.04479 -0.7897,3.14643 1.1884,18.11206 2.7579,20.86522 0.7057,1.23782 1.8057,2.82278 2.4445,3.52215 1.2248,1.34093 6.2717,16.47105 13.2779,39.80576 5.9321,19.75754 12.5589,36.21091 18.8709,46.8538 6.0196,10.14996 16.0815,25.38276 20.0881,30.41146 5.3022,6.65486 18.3415,21.26982 19.6193,21.99006 0.7266,0.40957 6.2181,5.46968 12.2033,11.24468 5.9852,5.775 15.359,14.325 20.8306,19 14.2214,12.15092 22.603,20.78932 25.4481,26.22779 2.249,4.29904 2.3307,4.87037 0.901,6.30004 -1.4296,1.42967 -2.4446,1.12406 -11.1917,-3.36997 -5.2907,-2.71822 -10.8252,-5.89074 -12.2991,-7.05004 -1.4738,-1.1593 -3.0172,-2.10782 -3.4297,-2.10782 -0.4125,0 -4.2894,-2.02165 -8.6151,-4.49256 -4.3258,-2.47091 -9.0393,-4.49591 -10.4744,-4.5 -1.4607,-0.004 -4.5419,-1.53704 -7,-3.48252 -2.4149,-1.9113 -5.6654,-3.75523 -7.2235,-4.09764 -1.558,-0.3424 -5.9317,-2.37861 -9.7193,-4.52491 -3.7876,-2.1463 -7.3491,-3.90237 -7.9143,-3.90237 -0.5653,0 -2.7166,-1.52343 -4.7807,-3.38541 C 1257.7652,306.86012 1233.1678,292 1229.475,292 c -1.0814,0 -0.3093,11.39677 2.4864,36.69836 1.6287,14.7409 3.6833,34.22664 4.5658,43.30164 0.8825,9.075 2.6001,25.275 3.817,36 l 2.2124,19.5 10.4717,-0.20313 c 9.6155,-0.18652 25.4866,-1.27954 89.4717,-6.16182 22.5939,-1.72399 27.5039,-1.62342 28.2378,0.57838 0.5709,1.71272 -2.2213,2.07561 -29.2378,3.79988 -4.95,0.31592 -11.475,0.78889 -14.5,1.05105 -27.0565,2.34478 -52.2738,4.35264 -52.8261,4.20613 -0.3706,-0.0983 -7.1323,0.44584 -15.0259,1.20928 -10.822,1.04668 -14.4918,1.75246 -14.9204,2.8696 -0.5402,1.40771 0.2091,9.8832 4.7435,53.65063 1.0826,10.45 2.4308,23.5 2.996,29 0.5652,5.5 1.2529,11.125 1.5284,12.5 0.2754,1.375 1.6279,13.75 3.0056,27.5 1.3778,13.75 3.3942,32.875 4.4809,42.5 1.0868,9.625 2.8934,26.275 4.0148,37 1.1213,10.725 2.7194,25.575 3.5513,33 0.8319,7.425 2.5949,23.625 3.9177,36 1.3229,12.375 3.5492,32.85 4.9473,45.5 7.8869,71.35825 9.2844,84.20775 15.1175,139 2.5177,23.65 5.1985,47.95 5.9573,54 0.7588,6.05 2.1212,18.2 3.0275,27 0.9064,8.8 3.6285,34 6.0493,56 4.742,43.0948 7.3962,68.501 10.447,100 1.0655,11 3.0875,29.9 4.4935,42 1.406,12.1 3.4393,30.55 4.5184,41 2.2731,22.0134 4.5579,43.0862 10.0294,92.5 3.6261,32.7476 5.0092,45.6903 8.0684,75.5 0.6208,6.05 1.5904,12.125 2.1545,13.5 0.5641,1.375 1.1368,6.775 1.2727,12 0.1359,5.225 0.968,14.578 1.8492,20.7844 1.787,12.5857 2.0253,18.8361 0.7484,19.6252 -0.4695,0.2902 -1.3695,-0.6044 -2,-1.988 z M 1331.8859,338.67504 c -2.5286,-2.29627 -8.761,-7.77504 -13.8498,-12.17504 -8.5418,-7.38558 -31.4213,-28.83777 -38.5079,-36.10567 -3.763,-3.85924 -9.6542,-10.85991 -12.7137,-15.10792 -15.0636,-20.91525 -18.9958,-26.63298 -19.836,-28.84294 -0.5426,-1.42714 -2.3347,-4.55432 -3.9825,-6.94931 -1.6478,-2.39498 -2.996,-4.5976 -2.996,-4.8947 0,-0.2971 -1.0634,-2.91603 -2.3631,-5.81982 -3.7939,-8.4766 -7.1552,-18.27302 -11.5901,-33.77964 -5.2382,-18.31521 -7.976,-26.82759 -9.6486,-30 l -1.3181,-2.5 -0.038,3 c -0.021,1.65 0.8719,11.55 1.9835,22 2.2325,20.98604 5.2732,50.17972 6.9519,66.74319 1.5208,15.00556 3.5877,30.67706 4.0955,31.05148 0.2346,0.17304 3.8016,1.83797 7.9266,3.69985 8.8364,3.98846 23.0469,12.92699 28,17.6123 1.925,1.82092 6.65,4.88598 10.5,6.81124 3.85,1.92525 8.125,4.12847 9.5,4.89604 4.5884,2.5614 19.4727,9.55574 21.5622,10.13235 1.1341,0.313 6.3091,2.88091 11.5,5.70648 16.6348,9.055 18.2625,9.85569 18.847,9.27116 0.3157,-0.31571 -1.4948,-2.45278 -4.0233,-4.74905 z m -111.831,-82.33588 c -4.6719,-49.56514 -8.07,-84.058 -8.6232,-87.53159 -0.3234,-2.03084 -1.2279,-4.22344 -2.0099,-4.87245 -0.782,-0.649 -1.4218,-1.79991 -1.4218,-2.55756 0,-3.79386 -9.7914,0.60528 -16.1527,7.25719 -3.3786,3.53287 -6.1318,8.15152 -10.0537,16.86525 -6.2363,13.85607 -11.3801,21.48704 -16.6069,24.63678 -2.0277,1.22189 -5.5891,3.94098 -7.9144,6.04242 -2.3252,2.10144 -4.961,3.8208 -5.8574,3.8208 -4.0772,0 -17.3197,17.30434 -18.8676,24.6548 -0.8315,3.94842 -0.1151,4.40469 8.3803,5.33726 6.5728,0.7215 11.9672,3.23994 17.7018,8.26435 4.3412,3.80345 14.2623,8.75547 22.7705,11.36564 6.2401,1.91437 24.774,8.37574 33.6001,11.71384 l 6.5,2.45835 0.3067,-2.80795 c 0.1687,-1.54438 -0.6196,-12.63559 -1.7518,-24.64713 z M 1383.989,1435.75 c -1.0898,-1.7875 -1.9733,-4.825 -1.9633,-6.75 0.021,-4.0414 2.7837,-10.5106 5.854,-13.7082 2.7532,-2.8673 2.6953,-3.6296 -0.9423,-12.4043 -4.2755,-10.3135 -5.1452,-15.3894 -2.9735,-17.3549 4.3044,-3.8953 8.0439,0.1604 6.1074,6.6238 -1.0018,3.3437 -0.8742,4.4974 0.9511,8.6026 5.1635,11.6127 7.4052,28.5796 4.5146,34.1695 -2.7199,5.2597 -8.5874,5.6772 -11.548,0.8215 z m 9.1524,-4.3321 c 0.7186,-4.3404 -0.5647,-14.2412 -2.0366,-15.7131 -0.5903,-0.5903 -1.7619,0.663 -3.134,3.3524 -2.5674,5.0325 -2.3017,11.8147 0.5879,15.0077 2.4765,2.7365 3.8199,1.9605 4.5827,-2.647 z m -34.05,-33.5065 c -1.7003,-7.1988 -3.0907,-15.4113 -3.0898,-18.25 0,-6.4964 2.5677,-11.817 6.3275,-13.1215 2.4432,-0.8477 3.0977,-0.6446 4.7981,1.4892 2.7607,3.4643 2.1071,14.253 -1.3559,22.383 -2.4186,5.678 -2.4632,6.1483 -1.127,11.8761 1.0471,4.4885 1.1092,6.3039 0.2511,7.3379 -0.6272,0.7556 -1.494,1.3739 -1.9264,1.3739 -0.4324,0 -2.1773,-5.8899 -3.8776,-13.0886 z m 5.9743,-16.4492 c 1.0379,-5.026 1.0111,-6.5219 -0.1594,-8.9262 -2.0551,-4.2209 -3.6844,-4.2358 -4.4714,-0.041 -0.6752,3.599 0.1969,15.1 1.2775,16.8485 0.8628,1.396 1.9794,-1.2284 3.3533,-7.8815 z m 5.1795,25.2878 c -0.5499,-0.6875 -0.9425,-3.6768 -0.8725,-6.6428 0.1081,-4.581 0.5232,-5.6884 2.7571,-7.3556 3.4712,-2.5906 6.6399,-1.547 8.4489,2.7826 1.7322,4.1458 0.8728,9.0361 -1.9334,11.0017 -2.5594,1.7927 -7.0462,1.907 -8.4001,0.2141 z m 5.5717,-9.9538 -1.3029,-2.2962 -0.305,2.5587 c -0.1677,1.4073 0.2583,3.8823 0.9468,5.5 l 1.2517,2.9413 0.3561,-3.2038 c 0.1959,-1.7621 -0.2301,-4.2371 -0.9467,-5.5 z M 1309.7226,849.38922 C 1309.3251,848.99181 1309,847.818 1309,846.78074 c 0,-1.03726 -0.7043,-4.98236 -1.565,-8.76688 l -1.5651,-6.88096 -4.4941,3.16776 c -4.3207,3.0455 -4.4822,3.34203 -4.185,7.68355 0.2684,3.92008 0.051,4.51579 -1.646,4.51579 -2.8268,0 -3.8018,-5.7469 -3.2613,-19.22221 0.6209,-15.48191 3.2911,-19.53053 8.9219,-13.52779 6.9912,7.45293 13.8741,30.02391 10.5442,34.57775 -0.7175,0.98121 -1.6296,1.45887 -2.027,1.06147 z m -7.4187,-18.41364 c 2.5192,-1.98157 2.5408,-2.10326 1.0205,-5.75 -0.8543,-2.04907 -2.4832,-5.03456 -3.62,-6.63442 -1.8971,-2.67 -2.1283,-2.7521 -2.8153,-1 -0.4117,1.04986 -0.7802,4.94634 -0.8188,8.65884 -0.062,5.94577 0.1519,6.75 1.7948,6.75 1.0259,0 3.0233,-0.91099 4.4388,-2.02442 z M 99.248957,586.93579 c -5.668965,-7.23902 -7.457351,-10.99399 -6.190049,-12.99687 0.768533,-1.2146 0.912854,-1.19028 0.925779,0.15604 0.01455,1.51572 5.432318,10.23147 10.042063,16.15504 1.17703,1.5125 1.65206,2.75 1.05561,2.75 -0.59644,0 -3.22148,-2.72889 -5.833403,-6.06421 z m 16.333353,2.1974 C 115.09059,588.33757 116.64965,588 120.81598,588 c 3.26371,0 7.45277,-0.25496 9.30902,-0.56657 2.75847,-0.46307 3.05206,-0.36083 1.60715,0.55968 -2.58974,1.64985 -15.28106,2.54578 -16.14984,1.14008 z m 30.63387,-4.68744 c 1.49389,-0.8108 3.96331,-3.60226 5.48759,-6.20325 2.09285,-3.57117 2.85983,-4.27005 3.13246,-2.85435 0.83765,4.34955 -4.0551,10.62596 -8.24122,10.57181 l -3.09501,-0.04 2.71618,-1.47417 z M 1302.625,577.48214 c -0.8348,-0.83482 -1.8795,-1.45653 -2.3214,-1.38158 -2.7753,0.47066 -4.3036,-0.31329 -4.3036,-2.20755 0,-1.34498 -0.4822,-1.92195 -1.3333,-1.59534 -0.7334,0.28141 -1.3334,-0.12045 -1.3334,-0.89301 0,-1.891 3.1053,-1.78598 4.7201,0.15963 0.8531,1.02799 2.1384,1.35341 3.7489,0.9492 1.9787,-0.49663 2.3307,-0.30247 1.8278,1.00816 -0.3426,0.89278 -0.1587,2.49064 0.4087,3.55079 1.2389,2.31502 0.6595,2.48295 -1.4138,0.4097 z m -28.125,-3.95238 c -1.3443,-1.0477 -1.5082,-1.47202 -0.5,-1.29424 0.9028,0.15919 1.3503,-0.33267 1.124,-1.23552 -0.9107,-3.63262 -0.8284,-5.6735 0.2324,-5.7609 0.629,-0.0518 2.1434,-0.40098 3.3653,-0.77589 1.7661,-0.5419 2.4658,-0.14583 3.4124,1.93179 1.3504,2.96368 0.8304,3.86818 -2.3586,4.10312 -1.393,0.10263 -2.42,0.99051 -2.7495,2.37709 -0.4888,2.05653 -0.6676,2.10289 -2.526,0.65455 z M 87.885926,562.25 c -1.203062,-3.10775 0.265543,-14.80147 2.087754,-16.62368 0.75176,-0.75176 0.852742,-0.0463 0.34425,2.40493 -0.395763,1.90781 -0.741701,6.50392 -0.76875,10.21357 -0.02705,3.70966 -0.172818,6.74716 -0.323931,6.75 -0.151113,0.003 -0.753808,-1.23232 -1.339323,-2.74482 z m 67.668094,-6 c 0.33534,-3.7125 0.82208,-7.41239 1.08164,-8.22197 0.90954,-2.8369 2.33287,1.18655 2.34903,6.64018 0.0181,6.10902 -0.68074,8.33179 -2.61953,8.33179 -1.1477,0 -1.30364,-1.29768 -0.81114,-6.75 z M 94.520157,530.53456 c 1.182201,-7.19779 5.20164,-12.21276 7.747723,-9.66668 0.57793,0.57793 0.18373,1.1714 -1.03501,1.55821 -1.11613,0.35425 -3.136557,3.10343 -4.666234,6.34934 -2.614981,5.54886 -2.677793,5.60286 -2.046479,1.75913 z m 55.988653,0.83854 C 147.99973,527.54377 146.83937,523 148.37054,523 149.53635,523 154,530.95031 154,533.02675 c 0,1.8182 -1.76374,0.98278 -3.49119,-1.65365 z M 115.51937,489.75 c -4.71086,-5.35248 -14.35427,-20.24401 -15.14199,-23.38254 -0.848866,-3.38215 0.32398,-7.13727 2.61159,-8.36156 4.50757,-2.41238 13.76843,5.18253 16.21335,13.29671 0.93248,3.09472 0.84198,4.75261 -0.48613,8.90572 -1.61964,5.06474 -1.61343,5.12509 0.82595,8.02412 5.45118,6.47836 1.61654,7.92494 -4.02277,1.51755 z M 116,474.8279 c 0,-4.70743 -2.00545,-8.90042 -5.61488,-11.7396 C 107.06168,460.47408 103,460.29617 103,462.76481 c 0,2.26592 3.34902,8.58687 7.35872,13.88888 3.70866,4.90393 5.64128,4.27844 5.64128,-1.82579 z m 6.23792,13.9221 c -0.55384,-0.6875 -1.30572,-2.64888 -1.67085,-4.35863 -0.59351,-2.77913 -0.34615,-3.24024 2.33371,-4.35027 6.46208,-2.67668 11.91429,2.3817 7.97079,7.39504 -2.18978,2.78385 -6.87508,3.49686 -8.63365,1.31386 z M 128,483.87756 c 0,-1.16386 -2.12891,-1.09054 -4,0.13775 -1.3139,0.86252 -1.31806,1.10166 -0.0335,1.92749 1.50334,0.96653 4.0335,-0.32896 4.0335,-2.06524 z M 1390.7998,471.25 c -0.8307,-0.9625 -3.4168,-5.53676 -5.747,-10.16503 -3.268,-6.49092 -4.0987,-9.1054 -3.6329,-11.43438 1.0037,-5.01858 3.2373,-6.65782 8.9851,-6.59415 l 5.095,0.0564 -3.4663,1.19356 c -1.9241,0.66256 -4.1458,2.40803 -4.9938,3.92338 -1.3858,2.47641 -1.3697,2.98697 0.1734,5.5 1.5671,2.55213 2.1737,2.76274 7.7068,2.67561 3.3032,-0.052 5.8192,0.20734 5.5912,0.57634 -0.2281,0.369 -2.2809,1.51248 -4.5619,2.54107 -4.4732,2.01713 -4.3951,1.6588 -2.3396,10.72716 0.7098,3.13144 -0.5758,3.58895 -2.81,1 z m 23.3571,-1.94333 c -2.9156,-1.16225 -10.205,-21.92524 -8.3491,-23.78116 0.2891,-0.28903 1.3505,-0.52551 2.3589,-0.52551 1.2578,0 1.8333,0.7379 1.8333,2.35078 0,4.27387 2.073,8.64922 4.0978,8.64922 2.2466,0 2.2694,-0.5111 0.4022,-9 -1.883,-8.56082 -1.8619,-8.90739 0.5065,-8.28806 1.9014,0.49724 3.2511,3.79123 5.58,13.61882 0.369,1.55692 1.2595,3.05666 1.979,3.33276 0.7195,0.2761 1.065,1.13579 0.7678,1.91042 -0.2973,0.77463 0.2663,3.65216 1.2525,6.39453 0.9861,2.74236 1.481,5.2981 1.0996,5.67943 -0.9959,0.99596 -5.3127,-3.33384 -6.7263,-6.74668 -1.1539,-2.78565 -3.2832,-3.80384 -4.3489,-2.07952 -0.2793,0.45194 0.1441,2.07837 0.941,3.61431 2.3822,4.59181 1.9238,6.1934 -1.3943,4.87066 z M 1035.74,431.40597 c -5.3331,-1.93027 -9.4852,-5.2548 -10.2202,-8.18311 -1.0931,-4.35508 1.053,-4.85004 4.7968,-1.10629 1.8791,1.87911 5.7039,4.48789 8.4995,5.7973 8.8822,4.16019 6.4375,6.93547 -3.0761,3.4921 z m 33.0169,-12.6607 c -3.3321,-1.36837 -4.5921,-4.3747 -5.4709,-13.05321 -0.7091,-7.00256 0.392,-11.21617 3.8289,-14.65315 7.1094,-7.10932 16.4369,-0.66734 17.6808,12.21109 0.2523,2.6125 0.5715,4.75 0.7094,4.75 0.1379,0 1.8555,-0.67053 3.8169,-1.49006 4.7304,-1.9765 6.3939,-1.15105 7.1912,3.5684 0.523,3.09528 1.1016,3.92166 2.746,3.92166 1.1458,0 2.875,-0.71642 3.8425,-1.59205 1.6293,-1.47445 1.7197,-1.44096 1.2243,0.45343 -1.0222,3.90873 -9.0949,7.40527 -11.839,5.12784 -0.8178,-0.67876 -1.487,-2.80911 -1.487,-4.73411 0,-3.00479 -0.2132,-3.32306 -1.5068,-2.24943 -0.8288,0.68781 -2.0663,2.41291 -2.75,3.83355 -1.822,3.78567 -12.5868,6.12344 -17.9863,3.90604 z m 9.8548,-5.33448 c 0.3575,-1.42407 0.4044,-5.29694 0.1043,-8.60637 -0.4347,-4.79351 -1.1155,-6.61201 -3.3481,-8.94227 -1.5413,-1.60882 -3.4598,-2.79845 -4.2632,-2.64363 -1.7074,0.32899 -3.3561,5.50806 -2.0169,6.33572 0.5017,0.31009 0.9122,1.85794 0.9122,3.43968 0,3.80874 1.6477,7.98781 4.2409,10.75608 2.7186,2.90211 3.574,2.83573 4.3708,-0.33921 z m -71.0136,-18.74049 c -4.5963,-4.02119 -4.9313,-4.6433 -5.3737,-9.97792 -0.3078,-3.71166 -0.039,-6.21129 0.7743,-7.19086 1.8859,-2.27232 3.0007,-1.80945 3.0069,1.24848 0.01,4.67453 1.8897,9.84328 5.0082,13.76743 2.8431,3.57748 3.8566,6.50644 2.2362,6.462 -0.4125,-0.0113 -2.9559,-1.95042 -5.6519,-4.30913 z m -14.89929,-45.11435 c -2.49023,-2.49023 -3.33465,-4.36191 -5.17896,-11.47936 -1.32798,-5.12482 -1.40054,-6.53229 -0.36964,-7.16942 1.90727,-1.17877 3.55838,0.69699 4.29419,4.87846 0.35949,2.0429 1.3434,5.85388 2.18646,8.46883 1.84064,5.70918 1.48702,7.72056 -0.93205,5.30149 z m -13.01606,-43.16031 c -2.0794,-6.46459 -3.22636,-13.43855 -2.81983,-17.14564 0.10924,-0.99609 3.08355,-1.93837 3.15652,-1 0.0107,0.1375 0.65453,4.73315 1.43073,10.21257 1.62149,11.4464 0.69718,15.59519 -1.76742,7.93307 z m -2.30179,-53.01474 c 0.37188,-5.2905 1.1133,-10.43592 1.6476,-11.43426 0.53429,-0.99833 0.97144,-3.40391 0.97144,-5.34571 0,-2.50711 0.57977,-3.84085 2,-4.60093 1.83585,-0.98252 2,-0.76049 2,2.70526 0,5.37032 -5.10236,28.29474 -6.29765,28.29474 -0.64112,0 -0.75596,-3.43692 -0.32139,-9.6191 z m 7.71258,-42.07188 c -0.0514,-1.20504 -0.58679,-2.49583 -1.18966,-2.86842 -2.78465,-1.72101 5.117,-24.4406 8.5002,-24.4406 1.34308,0 0.96315,1.64626 -5.30807,23 -1.04991,3.575 -1.95103,5.51406 -2.00247,4.30902 z M 436,208 c 0,-0.55 0.19844,-1 0.44098,-1 0.24254,0 0.7191,0.45 1.05902,1 0.33992,0.55 0.14148,1 -0.44098,1 C 436.47656,209 436,208.55 436,208 z m 563.0129,-50.25 c 0.0151,-3.81324 3.5034,-15.4623 5.2662,-17.5863 0.6715,-0.8091 0.9959,-1.59087 0.7209,-1.73727 -0.7674,-0.40855 3.85,-5.42643 4.9934,-5.42643 1.2379,0 1.3053,1.27439 0.135,2.55 -1.2405,1.35207 -9.1284,21.98226 -9.1284,23.87464 0,0.86645 -0.45,1.57536 -1,1.57536 -0.55,0 -0.99419,-1.4625 -0.9871,-3.25 z m 221.5003,-12 c -0.2332,-0.6875 -1.0839,-3.8666 -1.8905,-7.06467 -1.2841,-5.0912 -1.2858,-6.2475 -0.013,-9.29351 2.6599,-6.36586 3.8683,-5.94973 11.1617,3.84353 2.3493,3.15445 5.6677,6.45743 7.3744,7.33997 2.8529,1.47531 3.2339,1.47377 4.7286,-0.019 2.0108,-2.00829 2.8438,-18.9489 1.2899,-26.2343 l -1.0199,-4.7821 1.9061,2.48007 c 2.3903,3.11009 3.3026,7.55145 3.385,16.48006 0.077,8.29595 -1.4604,12.49287 -5.435,14.84071 -2.5822,1.52534 -3.2953,1.56289 -6.2483,0.32908 -1.8334,-0.76603 -5.4817,-3.81761 -8.1075,-6.78129 l -4.774,-5.3885 0.65,7.75 c 0.5652,6.73891 0.4391,7.75 -0.9667,7.75 -0.8892,0 -1.8075,-0.5625 -2.0407,-1.25 z m -315.23166,-25 c 0.24651,-0.6875 0.0432,-2.0375 -0.45185,-3 -1.02392,-1.99083 -0.4978,-2.17793 2.14585,-0.76309 2.15299,1.15225 1.63275,5.01309 -0.6755,5.01309 -0.80669,0 -1.26501,-0.5625 -1.0185,-1.25 z M 1023.4357,108.5 c 1.7761,-7.43044 12.6671,-21.509097 17.6464,-22.811217 1.4379,-0.376016 0.8255,0.808167 -2.3132,4.472853 -2.3479,2.741345 -6.6698,8.438936 -9.6043,12.661314 -6.4501,9.28088 -6.6338,9.46289 -5.7289,5.67705 z m 34.2161,-45.358545 c 3.0022,-4.643417 19.2573,-21.565687 20.001,-20.821961 1.309,1.309018 -2.21,6.064778 -10.9839,14.844024 -8.9077,8.913182 -12.4207,11.242109 -9.0171,5.977937 z"
     id="path3288"
     style="fill:#000000" />
</svg>
