<?xml version="1.0" encoding="UTF-8" standalone="no"?>
<!-- Created with Inkscape (http://www.inkscape.org/) -->

<svg
   xmlns:dc="http://purl.org/dc/elements/1.1/"
   xmlns:cc="http://creativecommons.org/ns#"
   xmlns:rdf="http://www.w3.org/1999/02/22-rdf-syntax-ns#"
   xmlns:svg="http://www.w3.org/2000/svg"
   xmlns="http://www.w3.org/2000/svg"
   version="1.1"
   width="1489.7823"
   height="1711.9797"
   id="svg3027">
  <metadata
     id="metadata3033">
    <rdf:RDF>
      <cc:Work
         rdf:about="">
        <dc:format>image/svg+xml</dc:format>
        <dc:type
           rdf:resource="http://purl.org/dc/dcmitype/StillImage" />
        <dc:title></dc:title>
      </cc:Work>
    </rdf:RDF>
  </metadata>
  <defs
     id="defs3031" />
  <path
     d="m 534.50422,1709.0691 c 32.37235,-15.5895 33.40462,-15.991 45,-17.5026 10.53805,-1.3738 49.57564,-3.6682 54,-3.1739 37.22925,4.1598 45.59107,4.7222 61,4.1025 19.00206,-0.7641 50.18116,-3.7994 60,-5.8411 3.85,-0.8005 12.625,-2.2105 19.5,-3.1334 6.875,-0.9229 16.55,-2.3573 21.5,-3.1877 4.95,-0.8304 14.4,-1.9026 21,-2.3827 6.6,-0.4801 15.375,-1.3268 19.5,-1.8817 4.125,-0.5548 12.225,-1.2725 18,-1.5949 5.775,-0.3223 11.85,-0.7534 13.5,-0.9578 9.1874,-1.1385 13.31951,-1.6938 26.5,-3.5611 7.975,-1.1299 15.4,-2.3419 16.5,-2.6934 2.9019,-0.9273 12.44889,-2.6467 21.5,-3.8721 11.80604,-1.5984 17.17253,-2.4914 22.5,-3.7441 3.3,-0.776 10.44889,-2.4014 15.88642,-3.612 5.43753,-1.2106 13.08753,-3.2539 17,-4.5405 3.91247,-1.2867 16.11356,-4.5976 27.11356,-7.3577 19.0949,-4.7912 34.3377,-9.3819 48.5,-14.6069 3.575,-1.319 11.675,-4.0622 18,-6.096 6.325,-2.0339 14.875,-5.3841 19,-7.445 4.125,-2.0609 16.145,-8.076 26.7111,-13.367 10.5662,-5.291 19.701,-9.62 20.2997,-9.62 2.1026,0 11.6811,-5.6599 26.2391,-15.5046 7.704,-5.2098 28.3563,-25.2451 36.6046,-35.511 10.4224,-12.9717 27.1554,-38.8989 34.9573,-54.1651 6.3008,-12.329 12.6969,-31.7324 11.7232,-35.5639 -1.0914,-4.2945 -0.8769,-6.1216 1.8492,-15.7554 3.2761,-11.5777 3.2874,-19.0234 0.058,-38.5415 -3.8135,-23.0513 -7.5996,-36.7939 -13.8518,-50.2779 -20.7166,-44.6797 -23.743,-52.6162 -24.3562,-63.8709 -0.4641,-8.5174 -0.4014,-8.8193 3.1543,-15.1775 2.0964,-3.7486 6.0055,-8.6063 9.2599,-11.5069 6.1923,-5.5191 10.9242,-7.1159 21.1504,-7.1372 6.3053,-0.013 14.4588,-1.8943 18.8469,-4.3483 3.2246,-1.8034 14.132,-5.6398 16.0345,-5.6398 5.0761,0 25.4366,-19.5445 30.1162,-28.9093 4.5266,-9.0585 5.5803,-14.8946 4.8486,-26.8544 -1.0274,-16.7901 -3.0941,-22.6374 -14.6527,-41.4563 -3.4776,-5.662 -2.972,-6.1852 5.6745,-5.8717 l 6.3379,0.2297 7.7177,-7.569 c 4.2447,-4.1629 8.2209,-7.569 8.836,-7.569 1.4721,0 21.1603,-19.3696 24.9029,-24.5 1.605,-2.2 4.5548,-5.575 6.5553,-7.5 5.0326,-4.8428 8.3446,-14.4461 10.9847,-31.8514 3.2434,-21.3825 2.0578,-35.216 -4.5123,-52.6486 -1.2437,-3.3 -3.9381,-12.975 -5.9876,-21.5 -2.0495,-8.525 -5.7008,-21.45878 -8.1141,-28.74173 -2.4132,-7.28295 -4.3877,-14.10555 -4.3877,-15.16133 0,-1.05579 -1.084,-6.57201 -2.4089,-12.25828 C 1353.27,922.1524 1351.9452,915.7 1351.651,913.5 c -0.2942,-2.2 -1.0624,-7.375 -1.7071,-11.5 -2.1973,-14.05973 0.5859,-24.82435 10.3005,-39.83944 6.3666,-9.84031 12.011,-15.68985 18.1939,-18.85511 5.4815,-2.80614 13.7331,-8.28641 17.5655,-11.66595 1.375,-1.21252 5.0457,-3.89344 8.1571,-5.95759 3.1113,-2.06415 6.2039,-4.412 6.8724,-5.21745 0.6685,-0.80545 1.6788,-1.46446 2.2451,-1.46446 0.5663,0 2.8737,-1.36518 5.1275,-3.03374 2.2539,-1.66856 5.5338,-4.03106 7.2887,-5.25 12.3231,-8.55927 41.6213,-36.74741 51.0072,-49.07462 7.4817,-9.82629 8.2869,-12.93548 7.7104,-29.77142 -0.9636,-28.13946 -3.616,-39.39871 -12.4505,-52.85301 -3.1015,-4.72321 -8.5296,-11.9468 -12.0627,-16.05243 -3.533,-4.10563 -8.9718,-10.61478 -12.0862,-14.46478 -3.1144,-3.85 -12.2796,-13.525 -20.3672,-21.5 -8.0876,-7.975 -18.0359,-17.875 -22.1073,-22 -17.6709,-17.90365 -47.5992,-56.18724 -59.0221,-75.5 -5.9339,-10.03228 -7.4202,-12.68347 -11.7735,-21 -6.199,-11.84284 -15.9232,-27.3768 -23.4748,-37.5 -2.0839,-2.79361 -12.3386,-18.26553 -15.8201,-23.869 -2.1186,-3.4098 -7.0377,-11.82423 -12.9378,-22.131 -1.4168,-2.475 -3.9437,-6.525 -5.6153,-9 -1.6715,-2.475 -4.8219,-7.2 -7.0008,-10.5 -5.1499,-7.79977 -8.637,-11.5 -10.8377,-11.5 -1.2361,0 -3.1376,-2.74543 -6.2764,-9.06231 -4.5789,-9.21491 -6.8423,-12.50358 -13.2003,-19.17978 -5.2872,-5.55171 -23.1768,-32.90581 -28.6312,-43.77846 -2.6155,-5.2137 -6.177,-14.20445 -7.9145,-19.97945 -1.7375,-5.775 -4.435,-13.51283 -5.9945,-17.19519 -1.5595,-3.68235 -2.8355,-8.51071 -2.8355,-10.72969 0,-2.21898 -0.731,-7.66219 -1.6244,-12.09603 -1.7479,-8.67482 -1.6333,-9.83169 2.5152,-25.38905 1.16,-4.35048 2.1092,-9.20667 2.1092,-10.79154 0,-1.58487 1.561,-7.36634 3.469,-12.84771 3.6928,-10.60909 8.1699,-31.88921 9.1416,-43.45079 0.684,-8.13755 6.5386,-33.49769 9.5808,-41.5 2.6893,-7.07441 3.7778,-26.38441 1.6961,-30.091922 -1.0434,-1.858377 -1.3829,-9.256293 -1.4872,-32.408078 -0.074,-16.5 -0.4097,-33.375 -0.7453,-37.5 -0.3357,-4.125 -0.8758,-11.1 -1.2004,-15.5 -0.3245,-4.4 -0.8334,-9.0125 -1.1307,-10.25 C 1215.905,0.49121012 1216.22,0 1217.7704,0 c 1.4338,0 2.1618,0.89208397 2.6273,3.2196576 1.3769,6.8843384 2.9776,44.3848124 2.8289,66.2729854 -0.1197,17.623337 0.185,24.14155 1.3049,27.912536 2.1824,7.349141 0.9775,22.806981 -2.5798,33.094821 -3.7927,10.9685 -8.9473,32.75229 -8.9508,37.82662 -0.01,10.27767 -5.4961,36.91356 -9.9853,48.45435 -1.6514,4.24547 -3.0047,9.58413 -3.0072,11.86369 0,2.27957 -0.9796,7.22957 -2.1714,11 -1.1917,3.77044 -2.1807,9.55534 -2.1978,12.85534 -0.052,9.98211 2.9256,26.57712 6.115,34.08393 1.6162,3.80384 3.5196,9.39107 4.2298,12.41607 2.0818,8.86615 6.3768,18.76709 13.0131,29.9979 11.0292,18.66517 19.1117,29.66648 32.3059,43.97261 1.7605,1.90878 4.4927,5.95878 6.0716,9 1.579,3.04122 5.2085,8.67949 8.0656,12.52949 7.5093,10.11912 19.4191,27.67601 25.4382,37.5 2.8643,4.675 9.9004,15.25 15.6357,23.5 19.7062,28.34649 24.1123,35.02348 29.7944,45.15012 3.1324,5.58257 5.6953,10.41383 5.6953,10.73614 0,1.50989 12.0995,21.21949 19.1753,31.23569 19.2597,27.26348 34.6298,45.19278 62.9032,73.37703 13.5182,13.47556 27.4288,28.10102 30.9123,32.50102 3.4835,4.4 7.9985,9.8 10.0332,12 10.9514,11.84077 19.2253,27.70559 21.3826,41 2.7639,17.0326 4.2592,39.82421 2.8072,42.78708 -0.5965,1.21711 -1.9842,4.34096 -3.0836,6.94189 -4.5957,10.87142 -18.9479,26.93351 -43.6302,48.82812 -11.1775,9.91506 -20.123,16.57371 -37.3647,27.81259 -1.9994,1.30332 -4.9853,3.592 -6.6353,5.08595 -1.65,1.49396 -7.275,5.23793 -12.5,8.31996 -11.1863,6.59834 -18.0903,13.34921 -24.4367,23.89446 -10.5973,17.60875 -11.0812,26.77883 -3.1728,60.13258 1.3299,5.60855 2.7266,11.77237 3.1038,13.69737 0.3773,1.925 2.6316,9.35 5.0095,16.5 2.3779,7.15 5.6833,18.625 7.3453,25.5 4.4967,18.60043 4.8141,19.7378 8.2343,29.5 5.4042,15.4249 6.0703,33.2835 1.8508,49.616 -0.5138,1.9888 -0.9424,5.1388 -0.9525,7 -0.027,4.9813 -6.4468,19.7402 -10.3722,23.845 -5.2237,5.4625 -15.6033,18.127 -18.1907,22.1951 -1.3552,2.1307 -5.7867,5.9476 -10.6221,9.1486 -4.5632,3.0209 -11.2217,8.3157 -14.7967,11.7661 -5.998,5.7891 -6.9054,6.3084 -11.75,6.7252 -2.8875,0.2484 -5.25,0.6661 -5.25,0.9281 0,0.2621 2.5294,4.9831 5.6209,10.4912 3.0914,5.5081 6.2381,12.3255 6.9926,15.1497 2.0721,7.7566 2.9585,29.3492 1.4034,34.1841 -3.61,11.2232 -11.664,24.3418 -16.8987,27.5252 -1.4529,0.8836 -3.7614,3.2841 -5.1299,5.3344 -1.3686,2.0504 -4.0633,4.6019 -5.9883,5.6701 -1.925,1.0682 -4.175,2.356 -5,2.8617 -0.825,0.5058 -4.875,1.8904 -9,3.077 -4.125,1.1866 -8.85,2.8425 -10.5,3.6796 -5.1743,2.6254 -13.322,4.3029 -20.8996,4.3029 -13.4821,0 -20.9376,4.5488 -26.9288,16.4301 -3.6693,7.2766 -3.7996,7.8722 -3.1354,14.331 0.7397,7.1932 4.5718,18.1595 11.4405,32.7389 19.3986,41.1752 23.1877,51.7874 26.5214,74.2785 2.5678,17.3243 3.6622,23.6509 4.752,27.4709 0.774,2.7131 0.7517,5.2006 -0.081,9 -0.6325,2.8878 -1.6179,8.6256 -2.1897,12.7506 -1.3592,9.8054 -6.2292,28.0532 -10.081,37.7735 -5.7581,14.5312 -25.5041,47.6871 -38.3157,64.3368 -6.0997,7.927 -31.2034,32.586 -38.0286,37.355 -8.6431,6.0392 -18.2011,12.2991 -21.191,13.8789 -1.575,0.8321 -4.3539,2.8951 -6.1753,4.5844 -3.7869,3.5121 -4.7196,3.7313 -6.0165,1.414 -0.8615,-1.5395 -1.2347,-1.5346 -5.242,0.069 -2.373,0.9495 -5.4705,2.5495 -6.8833,3.5555 -1.4129,1.0061 -6.3889,3.6763 -11.0577,5.9338 -4.6688,2.2575 -11.9932,6.0583 -16.2763,8.4461 -4.2832,2.3878 -13.0582,6.0266 -19.5,8.0863 -6.4419,2.0597 -16.4375,5.4654 -22.2125,7.5682 -18.0229,6.5625 -22.9522,8.0907 -42.5,13.1756 -10.45,2.7183 -23.27498,6.2479 -28.49998,7.8436 -14.17966,4.3305 -37.65286,9.5259 -54,11.9521 -7.975,1.1837 -21.25,3.4536 -29.5,5.0442 -21.62901,4.1703 -34.52213,5.9037 -52.30804,7.0324 -8.63058,0.5477 -18.39196,1.4146 -21.69196,1.9264 -3.3,0.5119 -10.05,1.219 -15,1.5713 -4.95,0.3523 -14.625,1.4655 -21.5,2.4737 -6.875,1.0083 -16.775,2.3593 -22,3.0023 -5.225,0.643 -13.775,2.0448 -19,3.115 -23.8031,4.8758 -74.81532,8.1776 -91.5,5.9223 -28.0467,-3.791 -50.9258,-4.0882 -80,-1.0394 -13.79713,1.4469 -15.02841,1.8202 -31.64223,9.595 -11.50105,5.3822 -14.48316,6.3809 -19,6.3635 l -5.35777,-0.021 6,-2.8894 z M 1092.8946,1567.95 c -1.2132,-4.98 -1.3844,-26.5305 -0.4483,-56.45 1.0232,-32.7052 1.057,-42.319 0.1622,-46.1913 -0.4358,-1.886 -0.2852,-4.0364 0.3681,-5.2572 1.0357,-1.9352 1.5172,-12.1062 2.6299,-55.5515 0.2395,-9.35 0.6309,-22.4 0.8697,-29 0.9275,-25.627 1.6015,-48.0395 3.0522,-101.5 0.3208,-11.825 0.766,-23.525 0.9892,-26 0.2232,-2.475 0.693,-14.625 1.0441,-27 0.6566,-23.1518 0.7986,-27.491 1.8486,-56.5 0.3384,-9.35 0.8826,-24.4212 1.2093,-33.4915 0.3994,-11.0881 1.086,-17.721 2.0955,-20.244 1.1255,-2.8129 1.3462,-5.8194 0.8814,-12.0085 -0.3409,-4.5408 -0.6963,-11.406 -0.7896,-15.256 -0.1974,-8.148 1.0636,-60.854 1.6717,-69.8665 1.0292,-15.25483 1.6542,-30.87396 2.1061,-52.6335 0.2684,-12.925 0.6572,-27.55 0.864,-32.5 0.2067,-4.95 0.65,-17.775 0.9852,-28.5 0.3351,-10.725 0.8775,-26.025 1.2053,-34 0.6667,-16.2185 0.7558,-19.20533 1.8354,-61.5 0.4212,-16.5 0.931,-30.28378 1.1329,-30.63063 0.202,-0.34684 0.6577,-11.47977 1.0128,-24.73985 0.451,-16.84015 0.3165,-24.5058 -0.446,-25.42456 -0.7944,-0.95722 -0.727,-2.52701 0.2478,-5.76576 0.8356,-2.77657 1.6149,-13.2869 2.0721,-27.94481 0.403,-12.92192 0.8583,-23.71939 1.0119,-23.99439 0.1536,-0.275 0.6071,-13.27474 1.0079,-28.88832 l 0.7286,-28.38832 -15.3692,0.66461 c -21.3382,0.92274 -51.9954,2.49226 -60.3692,3.09065 -3.85,0.27512 -17.35,0.95502 -30,1.51089 -32.18755,1.41439 -63.47178,2.90022 -73.49998,3.49086 -15.35929,0.90463 -46.84382,2.51485 -88.5,4.52618 -22.55,1.08881 -53.825,2.65095 -69.5,3.47143 -29.02723,1.51937 -81.21622,4.11365 -102,5.07035 -6.325,0.29115 -24.325,1.1956 -40,2.00989 -15.675,0.8143 -37.95,1.91976 -49.5,2.45658 -11.55,0.53683 -29.55,1.41471 -40,1.95085 -10.45,0.53614 -24.85,1.23152 -32,1.54528 -7.15,0.31376 -21.55,1.0035 -32,1.53276 -10.45,0.52926 -28.675,1.41378 -40.5,1.9656 -11.825,0.55182 -30.5,1.44929 -41.5,1.99437 -11,0.54508 -38.45,1.89321 -61,2.99585 -22.55,1.10263 -49.8909,2.45269 -60.75757,3.00012 -10.86666,0.54743 -20.09166,0.91586 -20.5,0.81873 -0.70687,-0.16814 -19.34352,0.77913 -33.24243,1.68965 -3.575,0.23419 -13.925,0.68306 -23,0.99747 -19.00492,0.65843 -42.5839,1.87039 -79.5,4.08627 -14.3,0.85836 -30.391581,1.74192 -35.759072,1.96346 -6.046159,0.24956 -10.878103,0.98149 -12.70034,1.9238 -3.688067,1.90718 -4.123939,1.90178 -3.378112,-0.0418 0.524326,-1.36637 -0.453726,-1.49307 -7.781385,-1.00796 -4.609598,0.30515 -19.181088,1.01492 -32.381088,1.57725 -13.2,0.56233 -27.0375,1.26816 -30.7500003,1.56851 -6.21239176,0.5026 -6.74999999,0.39078 -6.74999999,-1.40396 0,-2.09349 -1.14986951,-1.97001 34.50000029,-3.70503 5.5,-0.26768 13.825,-0.69713 18.5,-0.95433 4.675,-0.2572 13.9,-0.71705 20.5,-1.02188 14.959367,-0.69092 19.509184,-1.35614 21.261644,-3.1086 2.578035,-2.57803 6.195893,-2.8039 8.323973,-0.51968 1.74941,1.87777 2.75585,2.05276 9.18948,1.59781 3.97369,-0.281 22.0749,-1.17761 40.2249,-1.99247 18.15,-0.81485 35.925,-1.70184 39.5,-1.97108 3.575,-0.26925 17.525,-0.94619 31,-1.50432 13.475,-0.55813 27.2,-1.21871 30.5,-1.46795 8.15763,-0.61613 23.09658,-1.36523 40.5,-2.03084 7.975,-0.30501 17.875,-0.7515 22,-0.99221 12.87382,-0.75123 26.98133,-1.44159 41,-2.00634 7.425,-0.29912 16.875,-0.74714 21,-0.99558 13.22224,-0.79637 27.13542,-1.47428 41.5,-2.02206 7.7,-0.29363 21.875,-0.96571 31.5,-1.49352 32.01038,-1.75537 35.4166,-1.93095 48.5,-2.49997 7.15,-0.31097 21.55,-0.99374 32,-1.51726 10.45,-0.52353 23.725,-1.18709 29.5,-1.47458 5.775,-0.28749 14.55,-0.73889 19.5,-1.0031 4.95,-0.26422 13.95,-0.71651 20,-1.0051 6.05,-0.28858 17.975,-0.94499 26.5,-1.45869 8.525,-0.5137 22.475,-1.20112 31,-1.52759 16.36924,-0.62687 27.04895,-1.14219 41,-1.97832 4.675,-0.28019 14.125,-0.73572 21,-1.01229 20.50225,-0.82477 35.97969,-1.51247 45,-1.99946 8.12208,-0.43849 15.67492,-0.8279 39,-2.01076 5.775,-0.29286 13.875,-0.74034 18,-0.99439 4.125,-0.25406 13.575,-0.71754 21,-1.02997 7.425,-0.31243 15.975,-0.76924 19,-1.01513 3.025,-0.24589 12.475,-0.67904 21,-0.96255 8.525,-0.28351 16.625,-0.69823 18,-0.9216 1.375,-0.22336 8.125,-0.67622 15,-1.00635 6.875,-0.33013 16.775,-0.83743 22,-1.12734 5.225,-0.28991 13.775,-0.70009 19,-0.91151 25.5578,-1.03416 57.85498,-2.70536 60.81228,-3.1467 2.4286,-0.36243 3.229,-0.94606 3,-2.18732 -0.2167,-1.17496 -3.6483,-2.82151 -11.2147,-5.3811 -9.89084,-3.34593 -14.77662,-5.96619 -13.50176,-7.24105 0.81338,-0.81338 19.62856,5.06901 23.47776,7.3401 2.8052,1.6551 3.964,1.88776 5.0234,1.00856 2.1781,-1.80771 6.0888,-0.25944 7.1687,2.8381 l 0.9655,2.76966 25.8844,-1.18969 c 41.7356,-1.91823 62.7133,-3.26524 63.507,-4.07788 0.7288,-0.74615 1.2791,-11.45981 2.3761,-46.25969 0.3034,-9.625 0.7534,-22 1,-27.5 0.2466,-5.5 0.7296,-18.55 1.0734,-29 0.3439,-10.45 0.7681,-22.375 0.9428,-26.5 0.1747,-4.125 0.5876,-15.375 0.9175,-25 0.3299,-9.625 0.8067,-22 1.0596,-27.5 0.2528,-5.5 0.7571,-18.829 1.1206,-29.62 l 0.661,-19.62 -6.6368,-3.13 c -3.6502,-1.7215 -9.5669,-4.51068 -13.148,-6.19819 -12.3131,-5.80209 -31.4888,-21.79537 -31.4888,-26.26282 0,-0.4767 -0.6469,-2.28474 -1.4375,-4.01786 -3.2583,-7.14222 -4.2269,-10.25034 -3.6604,-11.74494 1.3502,-3.56239 13.6961,-13.09767 22.0085,-16.99818 4.7242,-2.21676 9.7144,-4.64193 11.0894,-5.38927 1.375,-0.74733 4.75,-2.47687 7.5,-3.84341 2.75,-1.36654 7.25,-4.0021 10,-5.8568 4.5855,-3.0926 5.0016,-3.70159 5.0187,-7.34536 0.01,-2.18524 0.3904,-4.56157 0.8446,-5.28072 0.4542,-0.71915 0.5468,-8.36915 0.2058,-17 -1.3312,-33.69129 -1.5341,-39.42882 -2.1683,-61.3047 -0.4402,-15.18238 -0.3159,-22.82222 0.3784,-23.25128 1.1899,-0.73541 1.4682,3.1207 3.7405,51.83232 0.8715,18.68283 1.7279,34.11211 1.903,34.28728 0.1752,0.17517 0.6827,-7.46079 1.1277,-16.96879 0.4451,-9.508 0.8689,-17.51228 0.9418,-17.78728 0.073,-0.275 0.4995,-9.5 0.9479,-20.5 1.1092,-27.20738 1.4796,-30.26734 2.5415,-21 0.3781,3.3 0.3715,6.675 -0.015,7.5 -0.3861,0.825 -0.9799,12.462 -1.3195,25.85999 -0.5444,21.47627 -0.4417,24.2141 0.8675,23.12756 0.8168,-0.67784 1.485,-1.85234 1.485,-2.60999 0,-1.87077 3.4908,-1.74391 5.4321,0.19741 0.8662,0.86623 3.0013,3.64805 4.7446,6.18181 2.7744,4.03249 3.2639,4.36601 3.9262,2.67504 1.8516,-4.72801 -0.1003,-21.28631 -2.8312,-24.01725 -1.727,-1.72703 -1.0753,-2.9369 1.1269,-2.09185 2.8638,1.09894 4.6467,5.45652 5.6377,13.7795 1.1583,9.72681 0.251,16.70403 -2.379,18.29521 -1.554,0.94017 -2.5451,0.29245 -6.7288,-4.39743 -5.4567,-6.11685 -5.7166,-5.73526 -3.3206,4.87485 1.6823,7.44942 1.4237,10.12515 -0.9787,10.12515 -1.7285,0 -3.3487,-4.33041 -4.2396,-11.33139 -0.3617,-2.84274 -1.2047,-6.24271 -1.8733,-7.5555 -1.0226,-2.0079 -1.3007,0.0563 -1.7517,13 -0.7539,21.6418 -0.5724,22.99614 4.6679,34.83092 2.5434,5.74422 5.344,12.94422 6.2235,16 8.1026,28.15208 11.2504,34.04168 28.1418,52.65513 17.6889,19.49232 24.79,27.50796 30.9187,34.90084 2.7357,3.3 6.9737,7.8 9.4176,10 6.7555,6.08108 17.8303,15.75674 20.6028,18 2.851,2.30679 15.4897,18.07487 18.2848,22.81218 1.0385,1.76012 3.4834,7.60725 5.4332,12.99363 6.4053,17.69484 3.7202,23.03613 -5.4503,10.84206 -5.3724,-7.14361 -30.6014,-31.71969 -39.0046,-37.99508 -4.125,-3.0805 -8.175,-6.14727 -9,-6.81505 -0.825,-0.66777 -4.2,-3.35636 -7.5,-5.97464 -5.9602,-4.7289 -19.6286,-16.49169 -22.5,-19.3631 -2.5337,-2.53373 -12.0915,-8.61773 -20.5,-13.04933 -4.4,-2.31895 -8.6915,-4.81436 -9.5366,-5.54534 -0.8451,-0.73098 -3.2717,-2.05403 -5.3924,-2.94012 l -3.8558,-1.61106 0.6422,15.82292 c 0.3533,8.70261 0.9087,25.04793 1.2343,36.32293 0.3257,11.275 0.7722,23.425 0.9923,27 0.2201,3.575 0.8358,16.625 1.3682,29 0.5325,12.375 1.429,31.5 1.9923,42.5 0.5633,11 1.5413,31.925 2.1733,46.5 0.632,14.575 1.3346,26.70808 1.5614,26.96241 0.7079,0.79401 22.6393,0.0564 44.3208,-1.49056 3.575,-0.25508 16.85,-0.93029 29.5,-1.50047 12.65,-0.57018 25.925,-1.22366 29.5,-1.45217 6.1978,-0.39617 18.1777,-1.01642 39,-2.01921 5.225,-0.25163 14.5579,-0.74095 20.7397,-1.08738 9.8911,-0.55429 11.3158,-0.43168 11.8735,1.02189 0.3487,0.90846 0.3425,1.94311 -0.014,2.29921 -0.6327,0.63268 -12.3941,1.42671 -39.5996,2.67343 -20.6533,0.94645 -52.5193,2.51321 -62,3.04834 -4.675,0.26388 -17.95,0.98197 -29.5,1.59575 -11.55,0.61378 -25.95,1.41584 -32,1.78236 l -11,0.6664 0.2354,20.5 c 0.1294,11.275 0.6802,29.5 1.224,40.5 0.5437,11 1.2377,26.975 1.5423,35.5 0.3045,8.525 0.9981,26.525 1.5412,40 1.3586,33.70259 3.786,98.04572 4.4515,118 0.7205,21.59845 1.4501,30.2279 2.6811,31.7113 0.6787,0.8179 0.6168,2.388 -0.1906,4.83446 -0.8087,2.4504 -1.0019,7.39916 -0.5969,15.2887 0.3294,6.41605 0.8408,18.64054 1.1366,27.16554 0.2958,8.525 0.9805,24.95 1.5215,36.5 0.9476,20.22749 1.346,29.0825 2.4747,55 0.7975,18.3127 3.3597,86.8605 3.9622,106 0.2943,9.35 0.7538,21.95 1.0212,28 0.2674,6.05 0.7158,20.225 0.9965,31.5 0.2806,11.275 0.787,25.7274 1.1253,32.1165 0.4534,8.5634 0.2976,11.8127 -0.5926,12.3629 -0.6642,0.4105 -1.5781,0.358 -2.031,-0.1165 -0.4528,-0.4746 -1.5477,-17.9629 -2.4331,-38.8629 -0.8854,-20.9 -2.0492,-48.125 -2.5862,-60.5 -0.5371,-12.375 -1.6462,-39.375 -2.4647,-60 -0.8185,-20.625 -1.9411,-47.4 -2.4946,-59.5 -0.5535,-12.1 -1.4663,-33.25 -2.0284,-47 -0.5621,-13.75 -1.2355,-29.5 -1.4965,-35 -0.2609,-5.5 -0.7202,-16.075 -1.0205,-23.5 -0.3003,-7.425 -0.8067,-15.58437 -1.1254,-18.13194 l -0.5793,-4.63194 -7.1369,-0.86011 -7.1368,-0.86012 7.3758,-0.30429 7.3758,-0.3043 -0.6622,-19.20365 c -0.7372,-21.37819 -2.3015,-62.06357 -3.0645,-79.70365 -0.2736,-6.325 -0.7348,-18.7 -1.0248,-27.5 -0.2901,-8.8 -0.745,-20.5 -1.0109,-26 -0.266,-5.5 -0.7367,-17.875 -1.0461,-27.5 -0.3093,-9.625 -0.7348,-20.2 -0.9456,-23.5 -0.2107,-3.3 -0.6616,-12.525 -1.0019,-20.5 -0.3404,-7.975 -1.0325,-22.375 -1.538,-32 -0.5056,-9.625 -0.9279,-20.0875 -0.9384,-23.25 l -0.018,-5.75 -4.75,0.011 c -2.6125,0.006 -6.4026,0.28426 -8.4224,0.61825 -3.5043,0.57945 -3.6984,0.81928 -4.2385,5.23899 -0.3113,2.54746 -1.0251,21.28175 -1.5862,41.63175 -0.5612,20.35 -1.2507,43.6375 -1.5324,51.75 -0.4413,12.71224 -0.3035,14.75 0.9975,14.75 0.9356,0 1.4624,0.8555 1.3855,2.25 -0.068,1.2375 0.217,3.0559 0.6339,4.04089 0.4169,0.985 0.3653,1.71921 -0.1147,1.63158 -3.9765,-0.72594 -4.0339,-0.23318 -5.4194,46.57753 -0.586,19.8 -1.6765,53.54319 -2.4233,74.98488 -0.7467,21.44168 -1.1449,39.32918 -0.8848,39.75 0.26,0.42081 3.1197,0.76512 6.3548,0.76512 3.2351,0 6.1601,0.45 6.5,1 0.3897,0.63059 -1.9896,1 -6.441,1 l -7.059,0 0,2.9452 c 0,1.61986 -0.4269,15.23236 -0.9487,30.25 -0.5218,15.01764 -1.2144,36.5298 -1.5391,47.8048 -0.3248,11.275 -1.0177,33.55001 -1.5398,49.50001 -0.522,15.95 -1.1953,37.325 -1.496,47.5 -0.3008,10.175 -1.2025,39.425 -2.0039,65 -0.8014,25.575 -1.9028,61.35 -2.4476,79.5 -0.5447,18.15 -1.2365,38.625 -1.5373,45.5 -0.3007,6.875 -1.1985,34.55 -1.995,61.5 -0.7965,26.95 -1.6757,55.075 -1.9538,62.5 -1.8429,49.2026 -1.8628,53.0615 -0.2702,52.4504 0.841,-0.3227 1.8062,-0.1385 2.1448,0.4094 0.3386,0.5479 -0.2611,1.2745 -1.3327,1.6146 -2.6065,0.8272 -2.774,2.8948 -4.0945,50.5256 -1.3904,50.1526 -2.6884,75.1022 -3.9741,76.3879 -0.5566,0.5566 -1.0614,0.8096 -1.1217,0.5621 z m 50.2687,-966.23349 c 0.3625,-0.57216 0.5034,-3.32995 0.3131,-6.1284 -0.1903,-2.79846 -0.6128,-13.18811 -0.939,-23.08811 -0.6857,-20.81371 -1.3471,-37.81403 -2.0231,-52 -0.2621,-5.5 -0.7299,-19.675 -1.0396,-31.5 -0.3096,-11.825 -0.742,-24.875 -0.9608,-29 -0.2188,-4.125 -0.7118,-17.625 -1.0955,-30 -0.3837,-12.375 -0.8244,-23.175 -0.9794,-24 -0.155,-0.825 -0.3162,-6.3375 -0.3583,-12.25 -0.1282,-18.02091 -1.7921,-11.9865 -2.4815,9 -0.3568,10.8625 -0.8496,23.575 -1.0951,28.25 -0.2455,4.675 -0.6956,17.725 -1.0002,29 -0.3046,11.275 -0.7544,23.875 -0.9997,28 -0.2453,4.125 -0.6972,18.075 -1.0043,31 -0.3071,12.925 -0.754,26.425 -0.9931,30 -0.2392,3.575 -0.7245,17.15739 -1.0785,30.18309 l -0.6437,23.68309 3.8598,0.31691 c 5.5899,0.45896 11.7567,-0.26348 12.5189,-1.46658 z M 1260.3559,464.75 c -4.753,-16.19861 -19.638,-34.74332 -42.633,-53.11516 -2.6297,-2.10099 -7.3468,-7.04083 -10.4825,-10.97741 -3.1357,-3.93659 -7.9592,-9.65278 -10.7188,-12.70265 -2.7596,-3.04987 -8.1674,-9.10752 -12.0174,-13.46144 -3.85,-4.35392 -9.4287,-10.40857 -12.3972,-13.45478 -12.6275,-12.95826 -16.0612,-19.01427 -23.1696,-40.86385 -5.9323,-18.23418 -10.1239,-27.92266 -11.0551,-25.55224 -1.0702,2.72441 -1.0218,18.48205 0.1345,43.74935 1.5266,33.36005 1.3253,32.25047 6.3115,34.78997 2.2968,1.16973 5.5259,3.13652 7.1759,4.37064 1.65,1.23412 5.475,3.48149 8.5,4.99415 5.3185,2.65953 16.9798,10.11347 18,11.50562 0.275,0.37527 3.2,2.93975 6.5,5.69884 3.3,2.75909 9.15,7.67662 13,10.92783 3.85,3.25121 11.725,9.46717 17.5,13.81323 10.0129,7.5354 40.506,36.98494 44.2967,42.78081 0.9882,1.5109 1.9764,2.74709 2.1961,2.74709 0.2197,0 -0.2938,-2.3625 -1.1411,-5.25 z M 1132.6824,327.64516 c 0.4725,-35.98929 0.1804,-39.43255 -3.1131,-36.69919 -2.3345,1.93743 -7.2614,4.72517 -14.2417,8.05813 -3.3971,1.62206 -6.4397,3.37509 -6.7614,3.89562 -0.3217,0.52052 -2.0359,1.26508 -3.8092,1.65458 -6.8088,1.49546 -22.2377,10.83763 -25.4331,15.39964 -1.1462,1.63645 -1.0368,2.72718 0.7536,7.51254 3.7796,10.10165 8.6088,15.01871 26.4267,26.90717 4.4,2.93577 10.475,6.123 13.5,7.08273 3.025,0.95973 6.625,2.33579 8,3.0579 2.1268,1.11694 2.6281,1.08626 3.3584,-0.20552 0.4721,-0.83514 1.066,-17.33377 1.3198,-36.6636 z m 6.8114,1177.04444 c -3.8832,-3.8832 -5.9139,-9.9828 -5.9202,-17.783 0,-5.3083 0.5142,-6.6442 4.7815,-12.3186 0.5139,-0.6834 -0.068,-2.6885 -1.4686,-5.0629 l -2.3195,-3.9313 -0.6962,3.4043 c -1.223,5.9797 -6.3477,7.7711 -11.2345,3.9272 -2.2999,-1.8091 -2.7149,-1.8731 -3.2418,-0.5 -2.9594,7.712 -14.1929,-14.2276 -14.6794,-28.6697 -0.4156,-12.3344 8.307,-14.5341 13.3754,-3.3731 2.3186,5.1058 2.4092,10.8537 0.2752,17.4612 -1.3729,4.251 -1.4331,5.5693 -0.3711,8.1332 l 1.2675,3.0599 2.2805,-4.9223 c 2.4177,-5.2184 5.1115,-6.9074 8.2973,-5.2024 1.7776,0.9513 1.8761,0.7108 1.4087,-3.4365 -0.3152,-2.7962 -0.036,-5.0219 0.7489,-5.9675 4.7723,-5.7504 15.8009,7.4025 12.0631,14.3866 -1.7447,3.2599 -2.7495,2.5202 -3.3081,-2.4353 -0.4681,-4.1535 -2.9285,-8.4594 -4.8335,-8.4594 -1.2518,0 0.5195,4.932 4.8486,13.5 3.0997,6.1349 4.7641,8.311 7.1393,9.3338 3.2556,1.402 4.1456,3.1662 1.5973,3.1662 -1.9001,0 -1.8874,1.1433 0.064,5.7821 3.9699,9.4371 3.6222,18.5732 -0.8254,21.6884 -3.2982,2.3102 -5.6014,1.8667 -9.249,-1.7809 z m 8.5179,-3.7036 c 0.6166,-1.1521 0.7887,-3.6129 0.4023,-5.75 -0.8277,-4.5771 -5.9599,-16.236 -7.1471,-16.236 -5.0851,0 -4.0443,16.1639 1.4304,22.2134 2.1194,2.3419 3.982,2.2622 5.3144,-0.2274 z m -19.895,-35.2735 c -0.8167,-0.8167 -1.1125,-0.7048 -1.1125,0.4208 0,0.8434 0.3281,1.8615 0.7292,2.2625 0.401,0.4011 0.9016,0.2117 1.1125,-0.4208 0.2108,-0.6325 -0.1173,-1.6506 -0.7292,-2.2625 z m -12.6077,-12.7342 c 0.9292,-4.2308 -0.3043,-10.4537 -2.6678,-13.4584 -2.6972,-3.4289 -3.837,-2.3747 -3.837,3.5489 0,3.7133 0.4999,5.3788 2,6.6632 1.1,0.9419 2,2.7375 2,3.9902 0,3.3063 1.7279,2.7931 2.5048,-0.7439 z m 78.5649,-544.84799 c -0.5883,-1.09936 -1.1013,-3.49091 -1.14,-5.31457 -0.1238,-5.84181 -0.9203,-6.70416 -4.737,-5.12855 -3.2204,1.32945 -3.2897,1.48292 -2.6365,5.83907 0.5519,3.67995 0.3929,4.47374 -0.8957,4.47374 -2.2675,0 -3.6509,-6.08056 -3.6402,-16 0.012,-10.70035 1.2578,-13.5 6.0092,-13.5 3.1191,0 3.6943,0.45566 5.6806,4.5 1.2156,2.475 2.6491,5.01243 3.1855,5.63872 0.5365,0.6263 0.7574,1.9763 0.491,3 -0.2664,1.02371 -0.092,5.13507 0.3867,9.13636 0.6574,5.48994 0.5638,7.53015 -0.3813,8.31457 -0.9121,0.75699 -1.5432,0.49628 -2.3223,-0.95934 z m -4.6195,-15.47023 c 1.4335,-1.04824 1.6901,-2.09885 1.1784,-4.82627 -0.3597,-1.91749 -1.3148,-4.35202 -2.1223,-5.41008 -1.2708,-1.66497 -1.6014,-1.72197 -2.4581,-0.42373 -1.3203,2.00077 -2.4247,9.58187 -1.5921,10.929 0.8956,1.44911 2.7836,1.34744 4.9941,-0.26892 z m 139.1327,-24.52587 c -0.4307,-0.697 -0.5131,-1.53733 -0.183,-1.86741 0.8949,-0.89496 1.8707,0.4213 1.3874,1.87145 -0.3388,1.01617 -0.5743,1.01538 -1.2044,-0.004 z M 82.504223,754 c -0.372618,-0.60291 0.967916,-1 3.375883,-1 2.196655,0 5.148213,-0.43886 6.559017,-0.97525 3.483127,-1.32428 3.244826,-0.42761 -0.38524,1.44957 -3.348289,1.73147 -8.624926,2.02193 -9.54966,0.52568 z m -21.5,-9.6382 c -3.575,-1.93263 -6.642639,-4.13982 -6.816976,-4.90487 -0.370831,-1.62734 6.558251,2.0358 11.316976,5.98284 3.959811,3.2844 3.259076,3.11654 -4.5,-1.07797 z M 108.83836,740.25 c 2.45385,-3.42486 7.16586,-7.88137 7.16586,-6.77731 0,1.30006 -7.02497,9.52731 -8.13504,9.52731 -0.55063,0 -0.1145,-1.2375 0.96918,-2.75 z m -64.989689,-14.5 c -0.2059,-1.7875 -0.08337,-4.6 0.272279,-6.25 0.468504,-2.17355 0.679237,-1.27823 0.764958,3.25 0.12698,6.70774 -0.425936,8.30694 -1.037237,3 z M 1097.0042,724 c 0,-0.55 0.45,-1 1,-1 0.55,0 1,0.45 1,1 0,0.55 -0.45,1 -1,1 -0.55,0 -1,-0.45 -1,-1 z m -971.99998,-1.82748 c 0,-0.5898 1.57384,-3.6824 3.49743,-6.87244 3.71768,-6.16534 4.67175,-5.46689 1.63909,1.19992 -1.84221,4.04979 -5.13652,7.68786 -5.13652,5.67252 z m 972.43898,-2.36478 c -0.7308,-2.30251 0.244,-3.8666 1.9919,-3.19589 0.7517,0.28847 1.6805,0.0169 2.064,-0.60352 0.4744,-0.76764 1.1355,-0.54982 2.0693,0.68183 2.2022,2.9046 1.6714,4.06352 -2.0607,4.49922 -2.7059,0.3159 -3.6249,0.003 -4.0645,-1.38164 z M 132.63301,701.20391 c -0.44208,-0.71284 -0.47745,-3.63784 -0.0786,-6.5 0.6101,-4.37799 0.87597,-4.86997 1.67521,-3.09983 1.15045,2.54802 -0.35528,11.60143 -1.59661,9.59983 z m -84.110239,-3.90255 c 1.747209,-4.18165 2.481452,-5.19312 2.481452,-3.41837 0,1.42882 -2.828589,7.11701 -3.5391,7.11701 -0.268257,0 0.207685,-1.66439 1.057648,-3.69864 z M 130.51717,678.6252 c -3.00343,-6.79129 -3.20356,-9.05726 -0.49682,-5.6252 2.10655,2.67103 4.48029,9.83691 3.56255,10.75466 -0.30403,0.30402 -1.68361,-2.00423 -3.06573,-5.12946 z m -68.958044,-2.45042 c 2.639604,-4.47062 5.939722,-7.42695 7.831071,-7.01528 1.074838,0.23394 -0.210047,1.90036 -4.105886,5.32507 -5.281858,4.64311 -5.53704,4.75889 -3.725185,1.69021 z m 57.554354,-11.56205 c -1.80569,-1.863 -2.88509,-3.63324 -2.39867,-3.93386 1.22657,-0.75807 7.28941,4.14384 7.28941,5.89361 0,2.23979 -1.34132,1.70232 -4.89074,-1.95975 z M 1370.025,647.25 l -2.9828,-4.75 -0.019,3.69098 c -0.02,3.93234 -0.8755,5.13377 -2.8055,3.94097 -1.2867,-0.79522 -9.5933,-21.03159 -10.6984,-26.06338 -0.5836,-2.65706 -0.3951,-3.06857 1.4054,-3.06857 1.3633,0 2.0795,0.64289 2.0795,1.86665 0,2.58357 4.065,12.13335 5.1647,12.13335 1.8991,0 1.8584,-2.91767 -0.113,-8.10457 -1.1279,-2.96749 -2.0509,-5.50793 -2.0512,-5.64543 -3e-4,-0.1375 0.9052,-0.25 2.0121,-0.25 1.4722,0 2.6505,1.4424 4.3884,5.37198 1.3066,2.95459 2.8563,5.66901 3.4437,6.03203 0.5874,0.36302 0.8443,1.24296 0.5709,1.95542 -0.2734,0.71246 0.6462,4.465 2.0436,8.33896 1.3975,3.87397 2.5408,7.55164 2.5408,8.1726 0,2.45442 -2.1424,0.89641 -4.9792,-3.62099 z m -31.3704,-1.50873 c -3.1505,-3.15043 -6.813,-13.16898 -6.8153,-18.64227 0,-5.60492 4.5104,-12.599 8.1291,-12.599 1.303,0 2.5448,0.52709 2.7596,1.17131 0.2422,0.72659 -0.3416,0.9799 -1.5374,0.66718 -1.5007,-0.39243 -2.3996,0.47047 -4.0571,3.89442 -2.5691,5.3071 -2.6779,8.54878 -0.4441,13.23316 1.9744,4.1403 4.2164,4.50095 9.1776,1.4763 1.8495,-1.12758 3.556,-1.85689 3.7922,-1.62069 0.4551,0.45508 -4.1599,4.45838 -7.1866,6.23404 -1.5406,0.90385 -1.6404,1.51205 -0.6937,4.22789 1.4323,4.10868 -0.047,5.03536 -3.1243,1.95766 z M 101.00422,636 c -0.68345,-1.65 -1.863044,-3 -2.621317,-3 -1.583826,0 -1.84647,-1.59286 -0.409119,-2.48119 0.584126,-0.36101 0.166874,-2.63565 -1.049598,-5.72187 -2.949468,-7.48285 -4.895734,-16.66809 -4.233462,-19.97944 0.766017,-3.83009 3.629338,-5.34353 7.262445,-3.83865 8.318351,3.44558 11.075021,17.59887 5.299881,27.21064 -1.39592,2.32326 -1.84609,4.42882 -1.50956,7.06051 0.57781,4.51844 -0.99946,4.95028 -2.73927,0.75 z m 2.74065,-10.95633 c 3.66211,-5.86396 2.25256,-15.18871 -2.95883,-19.5738 -2.560154,-2.15423 -3.309873,-2.37039 -4.409071,-1.27119 -2.081295,2.0813 -0.656173,8.80132 1.866504,8.80132 1.6081,0 1.860767,0.46534 1.352429,2.49074 C 98.954407,618.04666 100.73312,627 101.88239,627 c 0.3524,0 1.19052,-0.88035 1.86248,-1.95633 z m 4.92602,13.28966 c -0.36667,-0.36666 -0.66667,-1.31545 -0.66667,-2.1084 0,-1.02008 0.69771,-1.26663 2.38558,-0.843 2.95417,0.74145 5.86744,-1.96387 3.2121,-2.98282 -0.89516,-0.34351 -2.54754,-0.38398 -3.67194,-0.0899 -1.65064,0.43165 -1.9848,0.11632 -1.73506,-1.63728 0.23032,-1.61721 1.10731,-2.24953 3.43389,-2.47589 5.59166,-0.54404 8.59019,5.4897 4.54669,9.14901 -1.83203,1.65796 -6.25276,2.24015 -7.50459,0.98832 z m 941.98961,-50.46586 c -2.2986,-1.33615 -4.6563,-6.82258 -4.6563,-10.83535 0,-3.95574 -1.8133,-3.88274 -5.1882,0.20887 -2.1492,2.60562 -2.9401,3.00943 -3.9448,2.01416 -1.7611,-1.74453 -0.08,-6.0204 3.381,-8.59675 3.4566,-2.57344 7.8526,-1.41032 8.9176,2.35942 0.3856,1.3652 1.1992,4.39468 1.8079,6.73218 0.9801,3.76372 1.4373,4.25 3.9954,4.25 1.9262,0 4.1216,-1.1628 6.5891,-3.48994 l 3.7004,-3.48993 -0.5954,3.73993 c -1.0558,6.63135 -8.4078,10.36197 -14.0067,7.10741 z m -33.4071,-3.80188 c -4.931,-3.57199 -6.7385,-8.28644 -5.898,-15.38325 0.9935,-8.3885 8.2669,-13.48257 14.5853,-10.21517 1.7336,0.89646 4.0304,3.07058 5.104,4.83138 4.8359,7.93118 -0.051,23.70145 -7.345,23.70145 -1.3175,0 -4.2183,-1.32049 -6.4463,-2.93441 z m 9.7305,-6.02575 c 3.6249,-7.10547 2.0082,-13.85228 -3.7183,-15.51673 -2.9905,-0.86918 -7.2614,3.64362 -7.2614,7.67257 0,2.73615 2.026,7.77044 4.2474,10.55432 1.9424,2.43409 4.6676,1.33702 6.7323,-2.71016 z M 977.36229,576.25 c -7.64308,-7.32261 -10.18556,-10.7704 -11.79877,-16 -1.16985,-3.79234 0.93663,-2.50809 4.23475,2.58177 1.72199,2.65748 5.60596,7.60564 8.63105,10.99593 4.83459,5.41822 8.26204,10.1723 7.3337,10.1723 -0.17136,0 -3.95169,-3.4875 -8.40073,-7.75 z m -22.2391,-38.93308 C 948.96163,526.94548 945.02663,514 948.0356,514 c 0.56727,0 1.2792,0.7875 1.58207,1.75 0.30287,0.9625 2.78092,7.54533 5.50678,14.6285 2.72585,7.08318 4.75448,13.08012 4.50806,13.32654 -0.24642,0.24642 -2.27561,-2.62823 -4.50932,-6.38812 z M 942.01784,495.25 c -1.33599,-4.63716 -3.32788,-33.86175 -2.52578,-37.05758 1.12233,-4.4717 2.60271,-1.61246 3.01448,5.8222 1.02158,18.44537 1.53374,34.98538 1.0833,34.98538 -0.27039,0 -0.97779,-1.6875 -1.572,-3.75 z m -0.34217,-62.81758 c -0.8224,-4.97974 -0.68867,-20.15738 0.20581,-23.35828 0.37285,-1.33422 1.26017,-2.61995 1.97184,-2.85717 1.03886,-0.34629 1.15355,2.20173 0.58183,12.92586 -0.80491,15.09811 -1.72723,19.53998 -2.75948,13.28959 z m 5.39623,-49.48953 c -0.0755,-6.19883 3.27138,-25.8394 4.93193,-28.94216 1.78303,-3.33162 3.15161,-2.35245 2.44497,1.74927 -1.92722,11.18651 -5.64959,29.01259 -6.4211,30.75 -0.65721,1.48001 -0.90572,0.55518 -0.9558,-3.55711 z m -134.86969,-6.20433 c -0.83593,-1.00724 -0.93864,-2.24147 -0.32117,-3.85965 l 0.90774,-2.37891 0.70536,2.70709 c 0.95435,3.6627 0.30044,5.45016 -1.29193,3.53147 z M 257.50422,360 c -0.33992,-0.55 -0.14148,-1 0.44098,-1 0.58246,0 1.05902,0.45 1.05902,1 0,0.55 -0.19844,1 -0.44098,1 -0.24254,0 -0.7191,-0.45 -1.05902,-1 z M 958.0403,330.4315 C 957.98678,324.39583 964.11541,305 966.07607,305 c 2.11695,0 0.63261,5.95394 -5.98332,24 l -2.01638,5.5 -0.0361,-4.0685 z M 974.484,284.5 c 0.95919,-4.40456 5.16762,-12.65529 8.45533,-16.57689 4.86546,-5.80355 4.32942,-2.67661 -1.05648,6.16287 -2.81967,4.62771 -5.78491,9.53902 -6.58942,10.91402 l -1.46275,2.5 0.65332,-3 z m 23.37266,-36.40711 c 0.94095,-2.80339 14.28794,-21.08418 15.39754,-21.08938 2.0851,-0.01 0.1658,3.79748 -5,9.91838 -3.1625,3.7472 -6.9775,8.33523 -8.47773,10.1956 -2.26347,2.80679 -2.59023,2.97281 -1.91981,0.9754 z M 1227.7542,55.919901 C 1225.6632,54.701989 1225.4495,53 1227.3876,53 c 0.7608,0 1.6187,0.9 1.9063,2 0.2877,1.1 0.4527,1.986316 0.3667,1.969591 -0.086,-0.01672 -0.9439,-0.489085 -1.9064,-1.04969 z"
     id="path3225"
     style="fill:#000000" />
</svg>
