<?xml version="1.0" encoding="UTF-8" standalone="no"?>
<!-- Created with Inkscape (http://www.inkscape.org/) -->

<svg
   xmlns:dc="http://purl.org/dc/elements/1.1/"
   xmlns:cc="http://creativecommons.org/ns#"
   xmlns:rdf="http://www.w3.org/1999/02/22-rdf-syntax-ns#"
   xmlns:svg="http://www.w3.org/2000/svg"
   xmlns="http://www.w3.org/2000/svg"
   version="1.1"
   width="1538.9226"
   height="2253.7095"
   id="svg3057">
  <metadata
     id="metadata3063">
    <rdf:RDF>
      <cc:Work
         rdf:about="">
        <dc:format>image/svg+xml</dc:format>
        <dc:type
           rdf:resource="http://purl.org/dc/dcmitype/StillImage" />
        <dc:title></dc:title>
      </cc:Work>
    </rdf:RDF>
  </metadata>
  <defs
     id="defs3061" />
  <path
     d="m 1008,2253.1027 c 2.3891,-1.4528 19.4767,-5.8195 32,-8.1776 6.325,-1.1909 16.225,-3.6961 22,-5.5669 5.775,-1.8709 15.45,-4.5703 21.5,-5.9987 6.05,-1.4284 14.9097,-3.6686 19.6882,-4.9783 5.5001,-1.5074 11.3938,-2.3812 16.0616,-2.3812 4.3269,0 10.6535,-0.8718 15.3119,-2.11 4.366,-1.1605 10.8449,-2.7317 14.3974,-3.4916 3.5525,-0.7598 10.5275,-2.9297 15.5,-4.8219 4.9725,-1.8923 13.9909,-4.8683 20.0409,-6.6135 21.6676,-6.2501 27.8572,-8.3925 30.4095,-10.5252 1.4248,-1.1904 4.5121,-3.1398 6.8606,-4.3317 2.3486,-1.192 6.5142,-3.8658 9.257,-5.9416 2.7427,-2.0759 7.3461,-4.6137 10.2298,-5.6396 2.8837,-1.0259 6.8181,-2.8348 8.7431,-4.0196 4.1303,-2.5423 17.8639,-9.5472 23.3611,-11.9155 2.1236,-0.9149 5.4986,-2.9861 7.5,-4.6029 2.0014,-1.6167 6.7889,-5.4518 10.6389,-8.5226 12.477,-9.9515 25.6745,-30.3015 34.9973,-53.9643 6.4654,-16.4103 7.5159,-20.0465 8.5022,-29.4305 1.1098,-10.5588 4.4547,-29.3662 6.7708,-38.0695 1.4962,-5.6224 1.7155,-11.2957 1.6242,-42.0202 -0.091,-30.5065 -0.332,-35.9582 -1.7101,-38.6232 -0.8825,-1.7067 -1.371,-3.3367 -1.0853,-3.6223 0.6541,-0.6541 -2.5115,-11.9041 -3.7098,-13.1843 -0.4891,-0.5225 -0.8921,-1.6475 -0.8955,-2.5 0,-0.8525 -0.6933,-2.8678 -1.5332,-4.4785 -0.84,-1.6106 -2.6907,-6.3356 -4.1129,-10.5 -1.4221,-4.1643 -4.4828,-11.6215 -6.8017,-16.5715 -7.7769,-16.6015 -7.815,-16.7338 -7.9935,-27.7244 -0.092,-5.6516 0.2073,-11.8506 0.6647,-13.7756 0.4573,-1.925 1.296,-6.1846 1.8637,-9.4657 0.5677,-3.2811 1.4592,-6.4801 1.981,-7.1089 0.5218,-0.6287 1.798,-3.5691 2.8361,-6.5342 3.3766,-9.645 7.89,-16.5565 17.2397,-26.3993 7.8684,-8.2834 15.1314,-12.4161 25.3623,-14.4313 10.5676,-2.0815 12.4014,-3.0414 27.3195,-14.3006 5.8339,-4.403 14.429,-18.9459 16.7022,-28.26 2.0552,-8.4214 1.5442,-16.3176 -2.0048,-30.9752 -2.9244,-12.0782 -5.1541,-18.5275 -9.9425,-28.7581 -4.9955,-10.6732 -13.8487,-23.6199 -19.0744,-27.894 -7.432,-6.0786 -7.1909,-5.7239 -5.0261,-7.396 1.0857,-0.8386 3.6866,-1.7985 5.7799,-2.1333 2.0932,-0.3347 5.7049,-2.0579 8.026,-3.8293 2.3211,-1.7715 6.0202,-4.2171 8.2202,-5.4347 14.5038,-8.0274 19.8418,-12.3451 26.9456,-21.7952 4.6194,-6.1451 23.4912,-43.7198 25.3414,-50.4559 1.3253,-4.8251 -0.1777,-18.2712 -2.681,-23.9852 -1.0466,-2.3887 -4.2539,-8.1681 -7.1274,-12.8431 -2.8735,-4.675 -5.9567,-9.8105 -6.8516,-11.4122 -0.8948,-1.6018 -4.5256,-6.5518 -8.0683,-11 -9.7748,-12.2733 -15.8638,-24.8876 -18.0655,-37.4251 -1.3198,-7.5155 -1.3846,-32.384 -0.095,-36.6627 1.592,-5.2843 6.0057,-15.4648 7.1535,-16.5 0.3049,-0.275 1.6309,-2.3 2.9467,-4.5 4.1686,-6.9701 18.4861,-19.8441 28.1935,-25.351 5.1766,-2.9367 19.9065,-16.5032 29.0038,-26.7131 1.9917,-2.2353 7.754,-6.9603 12.8051,-10.5 16.8157,-11.7841 21.2451,-15.7791 27.1547,-24.4922 3.1102,-4.5857 6.2057,-10.049 6.8789,-12.1407 0.6732,-2.0916 1.8211,-4.928 2.551,-6.303 8.5786,-16.1627 14.2793,-42.6257 12.3867,-57.5 -0.4199,-3.3 -1.5052,-12.075 -2.4118,-19.5 -2.9193,-23.9094 -4.9648,-33.8751 -11.0833,-54 -4.6633,-15.3385 -7.9298,-21.8692 -13.598,-27.187 -1.7842,-1.674 -2.6368,-3.2793 -2.2613,-4.2578 0.8934,-2.3282 -3.4871,-8.2095 -17.4838,-23.4742 -1.3016,-1.4196 -4.1117,-5.1402 -6.2446,-8.2681 -5.3136,-7.7926 -13.922,-16.9166 -20.9329,-22.1868 l -5.8517,-4.3988 -11.8021,-0.6334 c -6.4912,-0.3484 -19.2271,-0.8506 -28.3021,-1.116 -33.9407,-0.9927 -49.0913,-1.4443 -70.5,-2.1013 -12.1,-0.3714 -26.275,-0.7707 -31.5,-0.8874 -5.225,-0.1167 -23.225,-0.5491 -40,-0.9609 -42.9726,-1.0548 -57.302,-1.0917 -58.8114,-0.1514 -1.0121,0.6306 -1.1883,3.476 -0.772,12.47 0.2965,6.4092 0.7789,23.3531 1.0718,37.6531 0.7858,38.3632 1.4712,66.2211 2.0173,82 0.2666,7.7 0.7152,26.825 0.997,42.5 0.2817,15.675 0.7295,34.575 0.995,42 0.2655,7.425 0.7319,27.45 1.0364,44.5 0.7978,44.6716 2.4239,83.5529 3.5851,85.7227 0.6861,1.2821 0.6411,2.9736 -0.1425,5.3478 -0.7754,2.3495 -0.9612,8.7207 -0.5747,19.701 0.5655,16.0609 1.1504,36.4087 2.1049,73.2285 0.8702,33.5667 1.4978,56.5726 2.0324,74.5 0.5114,17.1498 1.9271,85.4916 2.983,144 0.2928,16.225 0.7296,35.35 0.9707,42.5 0.8711,25.8343 2.007,88.4935 2.007,110.7149 0,20.3002 -0.186,22.9009 -1.75,24.4643 -1.6666,1.666 -1.7581,1.0365 -1.9211,-13.2149 -0.094,-8.2304 -0.2402,-15.6393 -0.3247,-16.4643 -0.085,-0.825 -0.4653,-17.925 -0.8461,-38 -0.3808,-20.075 -0.9049,-42.575 -1.1647,-50 -0.2598,-7.425 -0.7071,-24.075 -0.9941,-37 -0.2869,-12.925 -0.7453,-33.625 -1.0187,-46 -0.2734,-12.375 -0.7144,-30.825 -0.9801,-41 -0.4877,-18.6786 -0.7298,-28.7681 -2.4955,-104 -0.5357,-22.825 -1.2035,-49.6 -1.484,-59.5 -0.2804,-9.9 -0.7472,-29.25 -1.0373,-43 -0.29,-13.75 -0.7858,-29.6125 -1.1018,-35.25 -0.556,-9.9224 -0.6493,-10.25 -2.9191,-10.25 -1.2896,0 -2.6229,-0.45 -2.9628,-1 -0.3627,-0.5868 0.7,-1 2.572,-1 l 3.19,0 -0.6433,-26.75 c -0.3539,-14.7125 -0.8698,-34.175 -1.1465,-43.25 -0.2767,-9.075 -0.9432,-36.3 -1.4811,-60.5 -0.5378,-24.2 -1.2003,-50.3 -1.472,-58 -0.2718,-7.7 -0.7454,-27.275 -1.0526,-43.5 -0.3071,-16.225 -0.7412,-34.45 -0.9645,-40.5 -0.2234,-6.05 -0.7128,-25.0625 -1.0877,-42.25 -0.6454,-29.5942 -0.7804,-31.25 -2.5479,-31.25 -1.7459,0 -1.8764,1.1458 -2.022,17.75 -0.086,9.7625 -0.229,23.15 -0.3188,29.75 -0.2704,19.8871 -2.0248,263.7439 -2.0252,281.5 l -4e-4,16.5 2.767,0.3181 c 3.0126,0.3463 2.79,2.1819 -0.2647,2.1819 -1.4634,0 -1.9947,0.9414 -2.3988,4.25 -0.2855,2.3375 -0.768,58.7 -1.0721,125.25 -1.048,229.3384 -3.0492,455.7723 -4.0831,462 -0.3653,2.2 -1.0881,4.8001 -1.6064,5.778 -2.5904,4.888 -2.9487,-0.6135 -2.5155,-38.624 0.2454,-21.5347 0.7236,-99.004 1.0626,-172.154 0.339,-73.15 0.834,-151.225 1.0999,-173.5 0.266,-22.275 0.7169,-84.825 1.0021,-139 0.2852,-54.175 0.7367,-124.375 1.0033,-156 0.2666,-31.625 0.731,-94.85 1.032,-140.5 0.301,-45.65 0.7421,-92.225 0.9802,-103.5 0.2488,-11.783 0.036,-21.1378 -0.5,-22 -0.6477,-1.0413 -2.8553,-1.5518 -7.2197,-1.6693 -3.4578,-0.093 -17.7618,-0.4686 -31.7868,-0.8344 -14.025,-0.3658 -29.325,-0.8351 -34,-1.0429 -21.1336,-0.9395 -60.6039,-0.6563 -63.3949,0.4548 -2.9337,1.1679 -11.6028,1.1297 -11.6043,-0.051 0,-1.4182 -3.9661,-1.7776 -31.1728,-2.8258 -15.5804,-0.6003 -32.603,-1.2873 -37.828,-1.5268 -5.225,-0.2394 -16.01438,-0.4767 -23.9764,-0.5272 -10.03089,-0.064 -14.70926,-0.4581 -15.23469,-1.2845 -0.56462,-0.8881 -0.7622,-0.8562 -0.7736,0.1247 -0.009,0.7724 -0.73927,1.1143 -1.76531,0.8264 -0.9625,-0.27 -14.8,-0.7806 -30.75,-1.1347 -15.95,-0.3541 -32.6,-0.8245 -37,-1.0453 -4.4,-0.2209 -19.025,-0.6455 -32.5,-0.9435 -13.475,-0.298 -31.925,-0.7723 -41,-1.0538 -9.075,-0.2816 -24.825,-0.7103 -35,-0.9527 -24.01166,-0.572 -54.37857,-1.5829 -64.5,-2.1471 -4.4,-0.2453 -8.9,-0.4394 -10,-0.4314 -1.1,0.01 -3.47992,-0.4648 -5.2887,-1.0507 -2.36275,-0.7653 -3.66357,-0.7541 -4.62012,0.04 -1.30145,1.0801 -54.8605,0.786 -70.59118,-0.3877 -3.575,-0.2667 -18.65,-0.7364 -33.5,-1.0436 -14.85,-0.3072 -31.5,-0.7543 -37,-0.9935 -5.5,-0.2392 -21.925,-0.7175 -36.5,-1.0628 -14.575,-0.3453 -28.3,-0.7918 -30.5,-0.9921 -3.94624,-0.3594 -16.19119,-0.86 -48.5,-1.9829 -9.075,-0.3154 -20.325,-0.7833 -25,-1.0398 -4.675,-0.2565 -18.4,-0.6655 -30.5,-0.9089 -25.17113,-0.5063 -54.60362,-1.2394 -78.50981,-1.9555 -26.98485,-0.8083 -52.10217,-1.4884 -75.99019,-2.0576 -24.26173,-0.5781 -46.60596,-1.3557 -57,-1.9837 -3.575,-0.216 -17.23603,-0.706 -30.35784,-1.089 -19.22859,-0.5611 -24.01571,-0.4408 -24.671403,0.6201 -0.653631,1.0576 -1.589365,1.0839 -4.760237,0.1339 -5.764002,-1.7269 -16.028216,-0.8113 -20.503146,1.8289 -4.056383,2.3934 -4.491255,2.1159 -2.189499,-1.397 l 1.517875,-2.3166 -7.267875,-0.5747 C 62.770544,1052.4057 53.875,1052.0467 47,1051.9241 c -6.875,-0.1226 -15.9875,-0.3245 -20.25,-0.4485 -4.2625,-0.1241 -12.025,-0.2818 -17.25,-0.3506 -8.88703681,-0.1169 -9.5,-0.258 -9.5,-2.1863 0,-1.8402 0.45573641,-2.0053 4.25,-1.5393 2.3375,0.2871 17.75,0.7769 34.25,1.0884 16.5,0.3115 33.6,0.8277 38,1.147 7.273235,0.5278 8.17306,0.3891 9.904988,-1.5271 2.35342,-2.6038 3.317795,-2.6366 5.434719,-0.1846 1.795149,2.0792 2.421941,2.1103 102.660293,5.0891 18.7,0.5557 47.5,1.4501 64,1.9875 16.5,0.5374 39.225,1.2055 50.5,1.4847 36.43594,0.9024 59.26571,1.5624 70,2.0239 15.64836,0.6726 54.73454,1.8479 98.5,2.9616 12.65,0.322 25.25,0.7866 28,1.0325 2.75,0.2459 16.925,0.6967 31.5,1.0017 14.575,0.305 32.575,0.7592 40,1.0092 7.425,0.25 24.75,0.7159 38.5,1.0353 13.75,0.3193 26.8,0.7409 29,0.9366 2.2,0.1958 12.1,0.6723 22,1.0588 9.9,0.3866 18.42728,0.9544 18.9495,1.2617 1.24843,0.7349 5.55052,0.911 5.55044,0.2273 -7e-5,-0.7241 55.30747,0.083 95.00006,1.3855 19.81816,0.6505 47.95583,1.4448 74,2.0889 11.275,0.2788 26.35,0.7368 33.5,1.0177 7.15,0.281 20.875,0.739 30.5,1.0179 9.625,0.2789 24.025,0.7233 32,0.9876 7.975,0.2643 22.70481,0.7005 32.73292,0.9693 10.0281,0.2688 18.57808,0.5446 18.99998,0.6128 0.4219,0.068 5.1546,0.071 10.5171,0.01 7.2176,-0.088 9.6851,-0.4431 9.5,-1.3684 -0.371,-1.855 6.7961,-2.0555 13.2094,-0.3695 5.0904,1.3382 5.6234,1.3062 7.8849,-0.4727 3.2428,-2.5508 5.6087,-2.404 7.8223,0.4853 1.7096,2.2315 2.6775,2.4336 14.3334,2.9926 6.875,0.3297 23.975,0.8442 38,1.1434 14.025,0.2992 29.775,0.7604 35,1.0249 24.165,1.2232 53.8454,1.5051 54.4559,0.5173 0.3511,-0.568 0.8558,-33.1761 1.1216,-72.4623 l 0.4833,-71.42955 -2.8998,-2.06482 c -1.5949,-1.13565 -3.9711,-2.52965 -5.2804,-3.09777 -10.8966,-4.7281 -32.1019,-19.56119 -52.9877,-37.0649 -6.2661,-5.25142 -14.5429,-11.51237 -18.3929,-13.91322 -3.85,-2.40085 -8.474,-5.30423 -10.2755,-6.45196 -1.8015,-1.14773 -3.5476,-3.1384 -3.8802,-4.4237 -0.8197,-3.16742 3.0691,-11.24052 6.4676,-13.42695 1.4785,-0.95114 4.4881,-3.06592 6.6881,-4.69951 2.2,-1.6336 4.7508,-2.98513 5.6683,-3.0034 0.9176,-0.0183 4.0676,-2.1016 7,-4.62962 2.9325,-2.52802 8.0263,-5.91627 11.3197,-7.52944 3.2934,-1.61317 7.5684,-4.43136 9.5,-6.26265 5.3159,-5.03979 14.0498,-11.22736 18.3514,-13.00104 2.1117,-0.87071 5.1275,-2.60177 6.7019,-3.84679 1.5744,-1.24503 4.9223,-3.83868 7.4397,-5.76368 2.5174,-1.925 5.5765,-4.95943 6.7981,-6.74317 1.2714,-1.85666 3.0895,-3.24609 4.2526,-3.25 4.1993,-0.0141 4.7889,-6.09233 3.9826,-41.0581 C 1199.9792,733.74289 1200.0817,725 1200.8888,725 c 0.6112,0 1.1112,0.45 1.1112,1 0,0.55 0.675,1 1.5,1 1.2588,0 1.5,2.15758 1.5,13.41821 0,15.15004 0.3876,17.33702 2.6686,15.05609 2.1612,-2.16122 4.2992,-1.81882 9.2814,1.48644 6.7371,4.46948 7.3698,3.39373 6.8681,-11.67739 -0.2249,-6.75584 -0.148,-12.28335 0.1709,-12.28335 0.3189,0 1.4255,1.43174 2.4592,3.18166 2.8369,4.80245 2.7867,19.68264 -0.079,23.53821 -2.6085,3.50904 -6.1947,3.96626 -10.5038,1.33918 -1.8508,-1.12837 -3.6586,-2.05326 -4.0172,-2.05531 -0.3587,-0.002 -0.021,2.09278 0.75,4.65519 0.7711,2.56241 1.4021,6.38741 1.4021,8.5 0,3.12731 -0.3585,3.84107 -1.929,3.84107 -1.4736,0 -2.3,-1.27584 -3.5,-5.40391 -0.8641,-2.97215 -1.571,-6.09559 -1.571,-6.94098 0,-0.84539 -0.4816,-1.83472 -1.0702,-2.19851 -0.8961,-0.55378 -0.8282,20.22919 0.1111,34.0434 0.075,1.1 -0.074,4.7 -0.3306,8 -0.2959,3.80508 0.1629,8.56074 1.2544,13 0.9465,3.85 2.7489,11.5 4.0054,17 1.2564,5.5 2.5975,10.45 2.9802,11 0.3827,0.55 0.7553,2.125 0.8279,3.5 0.2638,4.9931 3.6315,16.71136 7.472,26 7.2635,17.56743 15.542,30.41296 26.745,41.5 4.4461,4.4 10.2035,10.2332 12.7943,12.96267 2.5908,2.72946 11.7883,12.09626 20.439,20.8151 8.6506,8.71883 16.7506,17.10718 18,18.64077 12.198,14.9732 18.7767,23.46217 22.1225,28.54591 2.1847,3.31955 6.5321,9.63555 9.6609,14.03555 7.3811,10.3798 16.1586,26.8921 15.3773,28.9281 -1.2254,3.1934 -1.8066,2.7472 -13.328,-10.2326 -7.5478,-8.5033 -11.2135,-11.1931 -15.2615,-11.1987 -3.6471,0 -17.6538,-10.0276 -27.2472,-19.4968 -2.2289,-2.2 -8.5251,-7.375 -13.9915,-11.5 -5.4665,-4.125 -11.3627,-8.85117 -13.1026,-10.50259 C 1255.1922,967.70273 1239.2789,956 1236.586,956 c -0.6523,0 -1.6135,-0.41529 -2.136,-0.92286 C 1232.4112,953.09661 1213.1319,944 1210.9731,944 l -2.2863,0 0.6688,30.75 c 0.3679,16.9125 0.8818,35.25 1.1421,40.75 0.2604,5.5 0.7166,22.3642 1.0139,37.4761 0.2973,15.1118 0.8671,27.8026 1.2663,28.2018 0.9705,0.9705 13.7623,1.6726 42.7221,2.3447 13.2,0.3063 28.95,0.7425 35,0.9693 6.05,0.2267 24.5,0.6737 41,0.9931 16.5,0.3195 34.95,0.7636 41,0.9869 6.05,0.2234 24.5,0.7073 41,1.0755 l 30,0.6695 -7.3539,-6.7843 c -4.0447,-3.7314 -9.3912,-8.4678 -11.8811,-10.5253 -7.2059,-5.9547 -13.1509,-13.7541 -17.3829,-22.8053 -9.7102,-20.7676 -23.8411,-40.9326 -39.0008,-55.65491 -6.2597,-6.0791 -13.0987,-13.7291 -15.1978,-17 -2.0991,-3.2709 -6.4805,-9.54709 -9.7365,-13.94709 -3.2561,-4.4 -6.6373,-10.025 -7.5139,-12.5 -0.8765,-2.475 -3.2991,-8.325 -5.3834,-13 -2.0844,-4.675 -4.5742,-10.975 -5.5331,-14 -0.9588,-3.025 -3.254,-7.975 -5.1003,-11 -1.8464,-3.025 -4.0359,-7.44223 -4.8656,-9.81607 -1.6287,-4.65979 -3.8549,-8.1506 -9.683,-15.18393 -2.0509,-2.475 -4.6759,-7.0433 -5.8334,-10.15179 -1.1575,-3.10848 -3.4304,-7.60848 -5.051,-10 -1.6206,-2.39151 -3.9252,-7.26204 -5.1214,-10.82339 -1.1961,-3.56134 -3.6078,-8.73634 -5.3593,-11.5 -1.7514,-2.76365 -3.7135,-7.16655 -4.3603,-9.78421 -0.6467,-2.61766 -2.2933,-7.28616 -3.6591,-10.37443 -1.3657,-3.08827 -2.4834,-6.79655 -2.4837,-8.24061 -3e-4,-1.44406 -0.9378,-5.09161 -2.0834,-8.10567 -2.8251,-7.43301 -3.2014,-11.67082 -1.9887,-22.39236 0.5678,-5.02015 1.3077,-12.95254 1.6441,-17.62754 0.9463,-13.15092 5.3613,-29.11796 12.4428,-45 15.6046,-34.9974 22.6659,-55.25171 25.9728,-74.5 0.6615,-3.85 3.2228,-15.1 5.6919,-25 4.0278,-16.14952 4.5343,-19.49066 4.9273,-32.5 0.2409,-7.975 1.0913,-21.925 1.8897,-31 0.7984,-9.075 1.915,-25.05 2.4813,-35.5 0.5664,-10.45 1.2376,-20.575 1.4916,-22.5 1.3001,-9.85191 -0.3513,-104.38273 -1.8664,-106.83413 -0.3112,-0.50352 -1.0348,-5.35933 -1.6081,-10.79068 -0.5733,-5.43135 -1.9116,-13.47519 -2.974,-17.87519 -1.0625,-4.4 -2.6178,-11.49266 -3.4563,-15.76147 -0.8385,-4.26881 -2.1503,-8.99381 -2.9151,-10.5 -0.7648,-1.50619 -2.5919,-7.43988 -4.0603,-13.18597 -1.4684,-5.74609 -3.5548,-12.44827 -4.6366,-14.89373 -1.0817,-2.44546 -2.8667,-8.31911 -3.9665,-13.05256 -1.0999,-4.73345 -2.436,-10.18127 -2.9691,-12.10627 -1.4994,-5.41336 -3.7204,-14.74928 -5.4719,-23 -1.9211,-9.04986 -4.1107,-17.44012 -6.6548,-25.5 -6.6643,-21.11255 -10.5758,-31.87569 -13.8679,-38.15971 -2.063,-3.93784 -4.5456,-10.23784 -5.5168,-14 -2.4501,-9.49069 -12.7128,-40.37684 -16.2285,-48.84029 -2.5236,-6.07525 -17.4043,-32.10648 -19.1502,-33.5 -1.5543,-1.2406 -9.9148,-14.907314 -11.3603,-18.570349 -0.8834,-2.238691 -2.9921,-6.420994 -4.6861,-9.294006 -1.694,-2.873012 -3.08,-5.460276 -3.08,-5.749476 0,-0.2892 -1.2724,-2.406897 -2.8275,-4.705994 -1.5551,-2.299096 -4.9476,-8.201387 -7.5389,-13.116201 -5.5847,-10.592324 -13.3459,-22.27956 -19.0348,-28.663567 -2.2543,-2.529777 -5.4488,-6.141766 -7.0988,-8.026644 -1.65,-1.884878 -4.35,-4.561225 -6,-5.9474364 -1.65,-1.3862119 -4.026,-3.961722 -5.2799,-5.7233559 L 1160.9401,0 l 2.4113,0 c 1.5489,0 3.3045,1.1710912 4.909,3.2748107 1.3738,1.8011459 5.9737,6.8636463 10.2219,11.2500003 9.005,9.297686 21.1667,25.979483 26.2274,35.975189 1.9492,3.85 5.9164,11.05 8.8159,16 2.8995,4.95 7.1862,12.825 9.526,17.5 2.3398,4.675 6.8863,12.218882 10.1033,16.76418 8.3793,11.83905 14.8647,22.53984 19.2335,31.73518 3.4049,7.1663 13.4924,36.22612 18.051,52.00064 0.9536,3.3 4.1034,11.175 6.9994,17.5 2.8961,6.325 7.1118,17.35 9.3683,24.5 3.9879,12.63595 5.9541,20.20471 13.6386,52.5 4.5396,19.07824 6.2173,25.21712 8.472,31 0.965,2.475 2.2378,6.3 2.8284,8.5 0.5907,2.2 2.2803,8.05 3.7547,13 4.6797,15.71065 10.059,39.21835 10.9838,48 0.3475,3.3 1.3013,9.97703 2.1196,14.83785 1.5631,9.28487 1.9312,16.88641 2.9863,61.66215 0.5305,22.50971 0.2572,33.57908 -1.506,61 -1.1847,18.425 -2.3436,34.175 -2.5754,35 -0.786,2.79849 -2.5511,29.44836 -2.6161,39.5 -0.039,6.05595 -0.8057,13.15524 -1.9434,18 -1.0333,4.4 -3.1955,13.625 -4.8049,20.5 -1.6093,6.875 -3.4717,15.875 -4.1386,20 -2.0605,12.746 -6.8711,28.97985 -12.1494,41 -2.7774,6.325 -6.5256,15.325 -8.3291,20 -1.8036,4.675 -4.5233,11.425 -6.0437,15 -4.5279,10.64611 -5.197,12.33648 -6.3336,16 -2.8192,9.08697 -5.1538,24.01855 -6.2047,39.68434 -1.106,16.48758 -1.0653,17.48097 1.0028,24.5 5.1021,17.31625 10.2389,31.25497 14.4288,39.15278 1.9925,3.75594 3.6228,7.36501 3.6228,8.02015 0,0.65514 1.9641,4.63779 4.3648,8.85033 2.4006,4.21254 5.1372,9.60165 6.0813,11.97579 0.9441,2.37413 4.1974,7.62133 7.2296,11.66044 3.0322,4.0391 6.4679,9.6641 7.6349,12.5 1.1669,2.83589 3.7589,8.08117 5.76,11.65617 2.0011,3.575 4.4414,8.975 5.423,12 0.9816,3.025 3.0103,7.975 4.5082,11 1.4978,3.025 3.2966,7.3 3.9973,9.5 2.1935,6.8874 5.5749,12.75062 12.7038,22.02811 3.7917,4.93454 7.8999,10.62454 9.1292,12.64444 1.2294,2.0199 6.3253,7.40651 11.3243,11.97024 9.1953,8.39469 17.9364,18.99351 24.917,30.21231 8.8466,14.2178 11.809,19.442 13.975,24.6449 3.263,7.8377 10.0866,17.1514 16.6409,22.7135 3.1022,2.6326 8.5224,7.3612 12.0449,10.508 3.5225,3.1468 9.1858,7.0456 12.5852,8.6639 5.8653,2.7924 7.0454,2.9725 23.1323,3.5302 9.3234,0.3232 17.4009,1.037 17.95,1.5861 0.6644,0.6644 0.5134,1.0239 -0.4517,1.0748 -0.7975,0.042 -2.35,0.2712 -3.45,0.5092 -1.1,0.238 -6.8375,0.4979 -12.75,0.5776 -5.9125,0.08 -10.75,0.4585 -10.75,0.8419 0,0.3834 3.2132,4.0266 7.1405,8.0959 3.9272,4.0694 8.7086,9.8739 10.6252,12.8989 1.9167,3.025 5.3795,7.525 7.6951,10 7.324,7.8279 16.2263,19.3368 18.5644,24 2.7936,5.5716 9.2163,15.1256 11.3696,16.9127 2.0161,1.6732 2.0642,3.0873 0.1052,3.0873 -1.9117,0 -1.889,1.1672 0.1125,5.7821 1.6767,3.8661 4.1174,11.1107 7.4851,22.2179 2.5042,8.2594 5.617,25.8405 6.8351,38.6047 0.5193,5.4424 1.4697,13.2703 2.1119,17.3953 1.8172,11.671 0.711,29.8662 -2.3709,39 -4.8164,14.2743 -7.879,22.3837 -9.2354,24.4538 -0.7492,1.1434 -2.0472,4.0205 -2.8844,6.3934 -2.4051,6.8169 -11.0907,19.372 -16.8165,24.3086 -2.8806,2.4836 -9.2874,7.3877 -14.2374,10.8981 -8.5753,6.0814 -15.0707,11.9885 -24.1316,21.9461 -7.5151,8.2588 -13.8004,13.6218 -22.6724,19.3452 -16.6251,10.725 -28.8584,24.0979 -34.1609,37.3433 -2.4157,6.0342 -2.6325,7.7655 -2.6544,21.1913 -0.015,9.4803 0.5175,17.1385 1.5158,21.7835 2.1233,9.8793 8.4591,22.7222 14.7335,29.8652 6.4026,7.2888 19.6378,27.352 24.5736,37.251 6.0779,12.1895 4.9752,19.6884 -6.6479,45.2058 -7.9609,17.4776 -14.1043,28.971 -18.2394,34.1235 -4.5891,5.718 -13.1268,13.7684 -16.6976,15.7444 -4.597,2.5438 -12.0285,7.0924 -18.4827,11.3126 -3.2251,2.1088 -6.6266,3.8342 -7.5588,3.8342 -0.9322,0 -2.5041,0.5917 -3.4931,1.3149 -1.6822,1.23 -1.614,1.4315 1.0589,3.125 3.1739,2.0109 4.0574,2.9935 11.7627,13.0819 6.2928,8.2391 13.575,21.8747 17.033,31.8935 4.1582,12.0472 7.7375,31.8505 7.0216,38.8477 -1.6526,16.1518 -13.7212,35.1466 -26.5272,41.7512 -1.9618,1.0118 -4.2118,2.6168 -5,3.5666 -2.1903,2.6395 -13.6606,7.4192 -17.8045,7.4192 -8.6157,0 -21.0619,8.6763 -30.8419,21.5 -10.797,14.1573 -16.441,31.7412 -16.6425,51.8498 -0.1052,10.4973 1.1647,14.4646 9.9712,31.1502 5.1878,9.8295 12.553,27.1866 16.5488,39 1.6868,4.9867 2.1398,9.7154 2.6827,28 1.2021,40.4916 0.7976,53.4856 -2.1014,67.5 -2.8749,13.8981 -5.096,26.4615 -6.8064,38.5 -2.9725,20.9216 -24.7837,62.5529 -39.8175,76 -7.3402,6.5655 -20.4015,16.5386 -23.7268,18.1167 -1.7079,0.8106 -3.7194,2.6213 -4.4699,4.0237 -1.1445,2.1384 -1.883,2.4658 -4.5765,2.0287 -2.4902,-0.4041 -4.5187,0.2734 -9.0301,3.0158 -3.2,1.9454 -8.7142,4.6396 -12.2536,5.9872 -3.5394,1.3476 -8.9394,4.2611 -12,6.4745 -16.5345,11.9573 -18.7887,12.9876 -45.5647,20.8246 -6.05,1.7708 -15.725,4.9314 -21.5,7.0235 -5.775,2.0921 -13.2,4.3297 -16.5,4.9724 -3.3,0.6428 -10.166,2.2782 -15.2577,3.6342 -6.872,1.8302 -10.5127,2.2991 -14.1277,1.8195 -3.7114,-0.4923 -7.6944,0.068 -16.7423,2.3558 -6.5298,1.651 -15.2473,3.7707 -19.3723,4.7105 -4.125,0.9397 -12.9,3.4452 -19.5,5.5676 -16.1628,5.1978 -61.4386,14.051 -56.5,11.048 z M 1207.1804,1079.75 c 0.1758,-1.2375 0.034,-11.7 -0.3157,-23.25 -0.3494,-11.55 -0.6938,-28.875 -0.7653,-38.5 -0.087,-11.7072 -0.4509,-17.0035 -1.0994,-16 -1.0912,1.6885 -1.4129,78.2537 -0.3333,79.3333 1.2563,1.2564 2.1944,0.6655 2.5137,-1.5833 z m 123.1984,-63 c -3.9578,-6.6918 -16.3723,-24.387 -23.2865,-33.19148 -7.7939,-9.92485 -30.0831,-33.47604 -58.1963,-61.49139 -18.9701,-18.90405 -31.4135,-42.06431 -39.3976,-73.32868 -3.0487,-11.93815 -3.8072,-9.44514 -3.1554,10.37162 0.3327,10.11446 0.9032,30.76493 1.2679,45.88993 0.3647,15.125 1.0568,28.55605 1.5381,29.84677 0.4813,1.29072 1.832,2.59701 3.0016,2.90286 1.1696,0.30586 4.2017,1.67357 6.738,3.03937 2.5363,1.36579 8.8864,4.70959 14.1114,7.43065 5.225,2.72107 10.175,5.53055 11,6.24329 0.825,0.71273 2.9069,2.00793 4.6264,2.87821 1.7194,0.87028 6.6694,4.91166 11,8.98084 4.3305,4.06918 9.7077,8.6989 11.9494,10.28826 9.5372,6.76177 19.1649,14.42898 22.4242,17.85796 8.3289,8.76239 23.5488,19.53179 27.6035,19.53179 1.0602,0 3.4957,0.8742 5.4121,1.9426 4.2286,2.3575 4.2884,2.3719 3.3632,0.8074 z m -130.1529,-93.5 c 0.7618,-12.96875 0.7214,-115.78023 -0.047,-119.25 l -0.775,-3.5 -5.952,5.56948 c -3.2736,3.06322 -6.627,6.09487 -7.452,6.73701 -6.5053,5.06343 -11.3943,8.27677 -15.1248,9.94089 -2.4064,1.07346 -8.2002,4.98628 -12.8752,8.69515 -4.675,3.70887 -11.2,8.11017 -14.5,9.78067 -3.3,1.6705 -8.1081,4.79597 -10.6847,6.94549 -2.5766,2.14951 -6.6266,4.58995 -9,5.42318 -5.2598,1.84655 -13.4316,8.97041 -14.3002,12.46639 -0.5702,2.29482 -0.089,2.85063 4.6746,5.39743 11.3274,6.05625 17.5381,10.22129 23.3103,15.63258 5.4729,5.13069 10.6678,9.66612 21.371,18.6581 2.1252,1.78551 6.0612,4.45708 8.7466,5.93682 2.6853,1.47975 6.6824,4.13002 8.8824,5.8895 3.4658,2.77179 20.7937,12.23423 22.6647,12.3767 0.3655,0.0278 0.8431,-2.98689 1.0612,-6.69939 z m 34.9797,1122.655 c -1.2683,-0.4828 -2.9983,-2.5577 -3.8681,-4.6392 -1.8321,-4.3841 -2.015,-16.1314 -0.3011,-19.3339 1.1916,-2.2265 0.4959,-8.9319 -0.9267,-8.9319 -0.4399,0 -1.6142,0.9 -2.6097,2 -2.0365,2.2503 -6.7088,2.6582 -8.3127,0.7257 -1.3679,-1.6482 -0.3459,-9.3492 1.4371,-10.8289 0.7507,-0.6231 2.2673,-0.8969 3.3703,-0.6084 1.5748,0.4118 2.0053,0.034 2.0053,-1.7596 0,-2.9061 2.3375,-4.8739 4.8445,-4.0782 2.4921,0.791 4.5648,5.7824 3.7497,9.03 -0.9928,3.9559 0.3712,7.5558 3.2825,8.6626 2.2785,0.8664 2.4029,1.1208 0.9464,1.9359 -1.5598,0.8729 -1.5424,1.4089 0.25,7.6765 3.7467,13.1017 1.9676,22.3708 -3.8675,20.1494 z m 2.7792,-7.714 c -0.019,-4.6835 -2.1718,-11.9829 -3.4848,-11.8172 -1.4584,0.184 -1.1877,9.5848 0.3849,13.3635 1.6794,4.0354 3.1199,3.3169 3.0999,-1.5463 z M 693.08029,2038 c 1.45781,-3.061 1.91971,-3.6283 1.91971,-2.3578 0,0.5365 -0.69982,1.849 -1.55517,2.9167 -1.46637,1.8303 -1.48719,1.7984 -0.36454,-0.5589 z m 517.94571,-20.4393 c -2.8344,-6.6125 -5.3544,-19.9968 -4.5611,-24.2255 0.6613,-3.525 4.4327,-8.3352 6.5351,-8.3352 0.6,0 2.1955,1.1045 3.5455,2.4545 2.1612,2.1613 2.4545,3.3337 2.4545,9.8122 0,5.3344 -0.5552,8.5069 -2.0191,11.5367 -1.2648,2.6179 -1.9186,5.7299 -1.75,8.3301 0.3822,5.8955 -1.7673,6.1139 -4.2049,0.4272 z m 3.716,-15.8107 c 0.8407,-4.1558 0.1865,-11.1548 -1.1693,-12.5107 -1.3456,-1.3456 -2.5424,2.3647 -2.5574,7.9289 -0.025,9.3798 2.2022,12.1184 3.7267,4.5818 z m 30.7202,-548.4028 -2.5986,-5.8472 -2.3488,2.7093 c -1.4765,1.703 -2.1518,3.4627 -1.8184,4.7378 0.3448,1.3185 -0.049,2.2511 -1.1261,2.6643 -2.4161,0.9271 -2.7961,0.1688 -4.1962,-8.3736 -2.597,-15.8463 -1.3643,-21.9213 3.9564,-19.497 2.4023,1.0946 8.2653,11.0412 10.4681,17.7592 3.0705,9.3643 3.0704,9.3638 1.647,10.5451 -1.1233,0.9323 -1.8755,0.045 -3.9834,-4.6979 z m -5.5218,-9.7754 c 0.9264,-1.1163 0.819,-2.1363 -0.4919,-4.6714 -2.0044,-3.8762 -3.5069,-2.3014 -2.7188,2.8496 0.5424,3.5449 1.3842,4.0226 3.2107,1.8218 z M 1283,1166.125 c 0,-0.4812 1.125,-0.875 2.5,-0.875 1.375,0 2.5,0.3938 2.5,0.875 0,0.4813 -1.125,0.875 -2.5,0.875 -1.375,0 -2.5,-0.3937 -2.5,-0.875 z M 68.482206,1139.0547 c -3.658805,-1.4841 -8.484593,-6.7562 -8.42665,-9.2059 0.05423,-2.2928 0.107862,-2.2785 2.25,0.5992 1.206944,1.6213 3.769444,4.4317 5.694444,6.2452 3.685536,3.472 3.727589,3.678 0.482206,2.3615 z M 89.5,1138.0571 c -1.694799,-0.7767 -1.465898,-0.9426 1.5,-1.0875 1.925,-0.094 5.75,-0.3442 8.5,-0.5557 3.76799,-0.2899 4.57023,-0.1305 3.25584,0.6471 -2.46241,1.4568 -10.87177,2.0887 -13.25584,0.9961 z m 27.09107,-19.3071 c 0.82198,-1.7875 1.75274,-4.0375 2.06835,-5 0.31561,-0.9625 1.0195,-1.75 1.5642,-1.75 0.54908,0 0.67158,0.7798 0.27492,1.75 -0.39349,0.9625 -1.13779,3.2125 -1.654,5 -0.5162,1.7875 -1.57067,3.25 -2.34327,3.25 -1.18788,0 -1.17401,-0.5017 0.0898,-3.25 z m -66.942381,-9.4285 c -1.446252,-7.5339 -1.673542,-11.0801 -0.852434,-13.2998 0.687194,-1.8576 1.028134,-0.3325 1.459093,6.5271 0.577542,9.1928 0.348585,11.7488 -0.606659,6.7727 z m 72.780211,-13.024 c 0.36409,-4.0806 2.94963,-13.2975 3.73023,-13.2975 0.95157,0 0.93022,6.9767 -0.0352,11.4878 -0.69848,3.2639 -3.9677,4.865 -3.69508,1.8097 z m 1371.9548,-15.3825 c -0.6139,-0.7782 -2.5557,-5.7791 -4.3151,-11.1129 -1.7594,-5.3339 -4.0967,-10.8394 -5.1941,-12.2345 -1.0973,-1.3951 -2.2456,-4.0797 -2.5517,-5.9659 -0.4971,-3.0634 -0.2291,-3.5988 2.5107,-5.0156 3.2023,-1.656 10.6892,-2.1674 11.5415,-0.7884 0.8742,1.4146 -0.7834,2.8826 -4.695,4.158 -4.5443,1.4818 -5.3138,2.9566 -3.4242,6.563 1.1664,2.2261 2.2118,2.7475 6.1277,3.056 2.5967,0.2046 5.1771,0.6537 5.7341,0.998 1.3395,0.8278 -1.9151,4.4224 -4.0226,4.4426 -3.8822,0.037 -4.2756,1.4271 -2.0715,7.318 2.241,5.9896 2.4616,11.2455 0.3602,8.5817 z M 51.031272,1076.9458 c -0.03386,-2.7657 4.466297,-10.5217 7.511369,-12.9458 1.547081,-1.2316 1.454018,-0.7843 -0.520104,2.5 -1.322381,2.2 -3.429354,6.025 -4.682161,8.5 -1.952785,3.8579 -2.282294,4.1355 -2.309104,1.9458 z m 1461.090528,-5.5686 c -3.366,-12.7473 -5.4666,-26.3772 -4.0652,-26.3772 0.4765,0 1.351,1.8 1.9434,4 0.8997,3.341 1.4977,4 3.6304,4 2.4274,0 2.5365,-0.2343 2.2115,-4.75 -0.5908,-8.2078 1.5795,-5.6594 3.4089,4.003 0.9629,5.0858 2.0342,10.7095 2.3808,12.497 0.7397,3.8153 -1.0931,4.5318 -2.0312,0.7941 -0.339,-1.3507 -1.0502,-3.5968 -1.5803,-4.9913 -0.8734,-2.297 -1.2055,-2.4254 -3.5322,-1.3653 -2.7558,1.2556 -2.7907,3.0511 -0.2052,10.5618 0.8275,2.4037 0.8251,3.5429 -0.01,4.3773 -0.8371,0.8371 -1.3917,0.1284 -2.1516,-2.7494 z M 112.68261,1066.187 c -3.59166,-3.6782 -3.87396,-5.187 -0.97049,-5.187 2.09246,0 6.28788,4.6402 6.28788,6.9545 0,2.9225 -1.0923,2.5594 -5.31739,-1.7675 z m 958.78269,-2.1385 c -3.4548,-1.4004 -4.7458,-3.7396 -4.0655,-7.3663 0.6162,-3.2842 0.5724,-3.3334 -2.6366,-2.9584 l -3.2632,0.3814 3.7948,-3.4473 c 2.5282,-2.2967 4.4473,-3.2766 5.75,-2.9359 2.0476,0.5354 2.2617,1.3583 1.9719,7.579 -0.1982,4.2567 1.2986,6.699 4.1057,6.699 2.2849,0 2.4772,1.5559 0.2958,2.393 -2.0069,0.7701 -3.4023,0.6894 -5.9529,-0.3445 z m -72.03987,-3.9067 c -1.69101,-0.903 -5.85351,-3.8457 -9.25001,-6.5393 -4.81992,-3.8225 -5.93304,-5.1896 -5.0711,-6.2282 0.88826,-1.0703 2.20898,-0.474 6.75001,3.0477 6.16585,4.7818 13.09927,11.6422 11.59187,11.4698 -0.5204,-0.06 -2.3298,-0.8471 -4.02077,-1.75 z m 48.99497,-2.6238 c -3.9488,-1.683 -5.8383,-4.0979 -7.7823,-9.9461 -2.9935,-9.0057 -1.9518,-14.3241 3.3419,-17.0615 5.4128,-2.7991 10.9602,-1.4404 15.9572,3.9083 4.5786,4.9008 3.8481,17.1949 -1.2743,21.4461 -2.711,2.2499 -7.1583,2.9677 -10.2425,1.6532 z m 8.0768,-4.268 c 3.0326,-7.4628 2.2746,-12.1595 -2.7374,-16.9625 -4.684,-4.4886 -7.7826,-4.7276 -9.5993,-0.7404 -1.6703,3.6658 -1.5035,6.5218 0.3395,5.8145 1.1648,-0.4469 1.5,0.2416 1.5,3.0811 0,3.9564 2.1852,9.0657 4.229,9.888 2.7074,1.0893 5.5882,0.5927 6.2682,-1.0807 z m -973.369751,-21.5 c -1.119618,-1.7875 -3.06882,-4.3913 -4.331559,-5.7862 -6.215446,-6.8659 -9.031295,-13.2815 -8.059819,-18.3635 0.27843,-1.4565 1.757261,-3.9874 3.286292,-5.6242 4.262836,-4.56342 9.872293,-3.81566 12.814294,1.7082 1.612379,3.0273 1.444038,9.2539 -0.342818,12.68 -2.973874,5.7022 -1.695651,6.9487 3.731991,3.6394 9.757274,-5.949 18.53104,2.3933 10.7259,10.1984 -2.663099,2.6631 -3.555766,2.9802 -7.064578,2.5096 -2.917845,-0.3914 -4.164654,-0.1521 -4.558717,0.8748 -0.945128,2.463 -4.091674,1.5311 -6.200986,-1.8365 z m 14.720944,-3.6351 c 2.267547,-1.437 0.920392,-4.5819 -2.112629,-4.9319 -3.497877,-0.4036 -4.922436,2.4761 -2.207114,4.4616 2.156879,1.5772 2.512084,1.6158 4.319743,0.4703 z m -13.883828,-18.4306 c 0.05539,-4.4014 -1.6443,-6.6843 -4.976696,-6.6843 -4.179573,0 -6.392537,3.5407 -4.896029,7.8336 0.806962,2.3149 1.721055,3.1664 3.398996,3.1664 1.262353,0 2.600873,0.7875 2.974489,1.75 0.596695,1.5372 0.848609,1.446 2.071553,-0.75 0.765738,-1.375 1.408197,-3.7671 1.427687,-5.3157 z m 876.853615,11.2937 c -8.08366,-8.2705 -10.48953,-11.978 -7.77273,-11.978 0.575,0 2.0375,1.05 3.25,2.3334 5.49518,5.8162 15.70455,17.5801 15.70455,18.0957 0,2.0539 -3.49884,-0.5905 -11.18182,-8.4511 z M 943.94947,981.91667 C 943.92168,981.6875 943.67005,978.575 943.3903,975 c -0.27975,-3.575 -0.93201,-8.94515 -1.44947,-11.93366 C 940.73465,956.1002 940.74095,956 942.38496,956 c 2.43513,0 4.44944,23.49893 2.20657,25.7418 -0.32534,0.32534 -0.61427,0.40403 -0.64206,0.17487 z m -0.23643,-53.90602 c -0.81695,-3.12402 0.3293,-14.0573 1.99309,-19.01065 1.71341,-5.10107 2.99992,-7 4.74245,-7 0.83333,0 0.50787,2.06765 -1.05772,6.71979 -1.24378,3.69588 -2.56841,9.99588 -2.94362,14 -0.67209,7.17214 -1.71466,9.18959 -2.7342,5.29086 z m 13.3919,-64.06304 c 0.27834,-5.75221 3.82774,-16.75793 6.34936,-19.68761 2.33106,-2.7083 4.93266,-2.63611 2.68309,0.0745 -0.63119,0.76053 -2.7557,6.0568 -4.72115,11.76948 -1.96545,5.71268 -3.77707,10.59023 -4.02583,10.83899 -0.24876,0.24876 -0.37722,-1.09914 -0.28547,-2.99532 z m 14.5934,-42.29135 c -1.91197,-4.9825 8.9016,-32.25761 12.02389,-30.32793 0.71213,0.44012 -0.39859,4.03761 -3.23994,10.49375 -2.37795,5.40323 -5.06619,12.37867 -5.97388,15.50098 -1.76,6.05419 -2.00481,6.43169 -2.81007,4.3332 z M 442,807 c 0,-0.55 0.19844,-1 0.44098,-1 0.24254,0 0.7191,0.45 1.05902,1 0.33992,0.55 0.14148,1 -0.44098,1 C 442.47656,808 442,807.55 442,807 z m 558.6077,-35.65803 C 1008.4237,756.50995 1014.4,748 1017,748 c 1.5421,0 1.2269,0.8415 -1.75,4.67165 -1.5125,1.94601 -5.9,8.74733 -9.75,15.11405 -3.85,6.36673 -7.57415,11.76089 -8.2759,11.98705 -0.70174,0.22615 0.82086,-3.5677 3.3836,-8.43078 z m 30.9331,-41.45524 c 2.5307,-4.94379 15.0205,-16.88673 17.66,-16.88673 1.7701,0 0.6747,1.52827 -5.7575,8.03326 -4.3688,4.41829 -9.2242,8.97981 -10.7897,10.13672 l -2.8464,2.10347 1.7336,-3.38672 z M 1064,705.21588 C 1064,702.97784 1083.2503,687 1085.9468,687 c 2.3774,0 0.6908,2.71149 -3.7323,6 C 1071.4452,701.007 1064,706.00023 1064,705.21588 z M 779.5,612 c -0.33992,-0.55 -0.14148,-1 0.44098,-1 0.58246,0 1.05902,0.45 1.05902,1 0,0.55 -0.19844,1 -0.44098,1 -0.24254,0 -0.7191,-0.45 -1.05902,-1 z m 601.5709,-332.41451 c -1.5814,-1.90554 -1.1082,-2.84459 0.8299,-1.64677 0.7387,0.45648 1.1592,1.38136 0.9345,2.05528 -0.2905,0.87155 -0.7999,0.7536 -1.7644,-0.40851 z M 948.116,8.690983 c -0.0732,-1.1410763 -0.57754,-1.5484445 -1.366,-1.1032956 -0.99237,0.560267 -0.9958,0.4315908 -0.0167,-0.6243163 1.53306,-1.6532648 2.60059,-0.728018 1.97107,1.7083597 -0.45045,1.7433422 -0.47779,1.7442362 -0.5884,0.019252 z"
     id="path3160"
     style="fill:#000000" />
</svg>
