<?xml version="1.0" encoding="UTF-8" standalone="no"?>
<!-- Created with Inkscape (http://www.inkscape.org/) -->

<svg
   xmlns:dc="http://purl.org/dc/elements/1.1/"
   xmlns:cc="http://creativecommons.org/ns#"
   xmlns:rdf="http://www.w3.org/1999/02/22-rdf-syntax-ns#"
   xmlns:svg="http://www.w3.org/2000/svg"
   xmlns="http://www.w3.org/2000/svg"
   version="1.1"
   width="1573.9393"
   height="1532.9429"
   id="svg3087">
  <metadata
     id="metadata3093">
    <rdf:RDF>
      <cc:Work
         rdf:about="">
        <dc:format>image/svg+xml</dc:format>
        <dc:type
           rdf:resource="http://purl.org/dc/dcmitype/StillImage" />
        <dc:title></dc:title>
      </cc:Work>
    </rdf:RDF>
  </metadata>
  <defs
     id="defs3091" />
  <path
     d="m 1193.4498,1531.9187 c -0.8863,-1.4339 3.7529,-6.2349 10.5502,-10.9181 13.0364,-8.982 29.5788,-27.7778 37.8313,-42.9848 1.9448,-3.5837 5.3658,-9.2158 7.6023,-12.5158 3.9658,-5.8515 10.0111,-16.854 17.033,-31 5.2482,-10.5728 10.1441,-23.814 13.105,-35.4431 2.9616,-11.6318 2.9509,-16.1646 -0.091,-38.5569 -2.6495,-19.5031 -3.4119,-36.294 -2.3385,-51.5 0.4076,-5.775 0.9703,-11.5321 1.2505,-12.7935 0.8794,-3.9597 5.683,-17.5863 7.1776,-20.3608 0.7864,-1.4599 1.4298,-3.1618 1.4298,-3.7821 0,-1.5307 2.4577,-6.7148 5.4823,-11.5636 1.3723,-2.2 3.1927,-5.35 4.0455,-7 3.0752,-5.9505 16.8568,-19.4186 24.5228,-23.965 7.7821,-4.6153 28.3504,-14.9005 32.212,-16.1077 4.6525,-1.4544 16.4912,-10.6445 18.642,-14.4714 4.6598,-8.2909 6.0954,-14.6239 6.0954,-26.8887 0,-12.2584 -1.379,-26.412 -3.0946,-31.7629 -0.7704,-2.4026 -1.4442,-3.0387 -2.715,-2.5628 -1.4186,0.5312 -1.4886,0.3844 -0.435,-0.9132 1.6058,-1.9778 0.4302,-5.3561 -7.2006,-20.6914 -4.6005,-9.2455 -6.909,-12.6 -12.3872,-18 -3.7031,-3.6503 -7.9557,-7.6153 -9.4503,-8.8112 -4.3722,-3.4986 -3.4735,-4.4368 4.0327,-4.2097 7.0294,0.2127 16.7263,-1.1471 21.5651,-3.024 1.5483,-0.6006 4.0697,-1.092 5.6032,-1.092 3.5201,0 14.816,-4.0651 20.3582,-7.3263 2.3229,-1.3669 6.4735,-5.2684 9.2235,-8.6701 2.75,-3.4017 6.435,-7.9538 8.1889,-10.1157 10.0422,-12.3787 16.3333,-30.803 16.2876,-47.7 -0.036,-13.24735 -3.8374,-25.44432 -11.36,-36.44878 -1.4141,-2.06849 -5.7314,-10.22433 -9.5941,-18.12409 -7.7128,-15.77384 -8.936,-20.42196 -12.9249,-49.11503 -0.6117,-4.4 -1.5393,-10.025 -2.0613,-12.5 -2.7377,-12.98009 0.2127,-27.65362 8.332,-41.43841 7.7694,-13.19081 11.5441,-19.42761 15.1678,-25.06159 1.7688,-2.75 3.6093,-5.7412 4.09,-6.6471 0.4807,-0.90591 4.249,-5.34314 8.374,-9.86051 4.125,-4.51738 7.725,-8.55323 8,-8.96857 0.275,-0.41533 2.3,-1.68512 4.5,-2.82175 2.2,-1.13663 5.1465,-3.15591 6.5478,-4.48729 3.6309,-3.44978 24.6942,-14.28335 29.4522,-15.14824 8.5434,-1.55299 16.261,-4.70561 20.078,-8.20184 2.1391,-1.95933 5.5691,-4.41941 7.6222,-5.46683 2.0531,-1.04742 4.201,-2.77893 4.773,-3.8478 0.572,-1.06886 3.7885,-4.05823 7.1476,-6.64303 9.4433,-7.26645 38.5994,-37.16285 41.8072,-42.86876 3.274,-5.82367 4.548,-11.11568 6.0277,-25.03828 4.5454,-42.76783 4.0485,-76.03873 -1.3266,-88.82615 -0.7338,-1.74562 -2.7174,-4.64853 -4.4081,-6.45091 -1.6907,-1.80238 -3.3624,-4.59024 -3.7149,-6.19523 -0.3525,-1.605 -2.1708,-4.85532 -4.0406,-7.22294 -24.9175,-31.55139 -35.1681,-45.2999 -40.9091,-54.86903 -3.7734,-6.28966 -8.3904,-13.46074 -10.2599,-15.93574 -4.0979,-5.42514 -41.7563,-43.47242 -48.7965,-49.30042 -2.75,-2.27648 -7.7,-6.68838 -11,-9.80423 -3.3,-3.11584 -9.5469,-8.75446 -13.882,-12.53026 -18.1678,-15.82392 -32.2822,-28.76339 -51.618,-47.32107 -25.9623,-24.91746 -39.0699,-36.60865 -50.8262,-45.33386 -9.3374,-6.92996 -25.7177,-15.42432 -38.9443,-20.19541 -23.1554,-8.35263 -32.9295,-15.36364 -57.9928,-41.59885 -1.7949,-1.87874 -4.0449,-4.15797 -5,-5.06494 -11.0116,-10.45598 -14.2362,-20.83943 -15.7918,-50.85096 -0.6301,-12.15497 -2.4377,-40.13113 -2.9077,-45 -1.0971,-11.36653 -4.3243,-33.84656 -5.0208,-34.97342 -0.2181,-0.35295 -0.652,-3.54082 -0.9642,-7.08415 -0.6531,-7.41235 -3.4342,-31.4702 -3.9816,-34.44243 -0.2026,-1.1 -1.7262,-8.75 -3.3859,-17 -1.6597,-8.25 -3.5155,-18.15 -4.1241,-22 -1.2297,-7.778468 -5.1417,-28.94952 -7.4837,-40.5 -0.8364,-4.125 -2.6564,-10.65 -4.0444,-14.5 -1.3881,-3.85 -2.5257,-7.1125 -2.5281,-7.25 0,-0.1375 1.5194,-0.25 3.3817,-0.25 l 3.3861,0 3.1033,11.25 c 3.5178,12.752771 7.0385,29.566919 10.6264,50.75 1.3508,7.975 3.7727,21.025 5.3819,29 1.6093,7.975 3.4649,19.675 4.1236,26 0.6587,6.325 1.3999,11.83234 1.647,12.23853 0.2472,0.40619 0.6883,2.88119 0.9801,5.5 0.2919,2.61881 1.5983,13.12319 2.903,23.34308 2.5092,19.65407 3.8532,36.75745 5.4549,69.41839 1.0028,20.44788 2.1501,26.75836 5.9958,32.98091 2.5595,4.1413 24.0674,24.99736 34.4694,33.4247 10.6431,8.62269 18.3392,12.87521 35.5424,19.63922 7.975,3.13563 17.875,7.39642 22,9.46841 15.2717,7.67099 32.5419,21.72263 62.0019,50.44691 17.92,17.47248 31.139,29.58516 66.5978,61.02432 9.2952,8.24146 23.9511,21.96646 32.5687,30.5 8.6176,8.53354 18.2926,18.0807 21.5,21.21591 8.5903,8.39702 11.5458,12.33019 19.5057,25.95868 6.5532,11.21992 17.9017,26.95251 33.7881,46.84094 5.5551,6.95448 8.1264,10.64909 16.8099,24.15315 1.7997,2.79873 3.6896,6.7217 4.1999,8.71772 0.5102,1.99602 1.8281,6.68944 2.9286,10.42982 4.3335,14.72873 5.1688,38.06488 2.5585,71.47608 -1.8917,24.21315 -2.6565,28.7059 -6.0152,35.33386 -2.7699,5.46618 -11.0498,16.00489 -15.041,19.14441 -1.2849,1.01066 -6.7308,6.14737 -12.1021,11.41491 -5.3713,5.26753 -11.7988,11.19287 -14.2834,13.16743 -2.4846,1.97455 -7.0443,5.85641 -10.1327,8.62635 -3.0884,2.76995 -7.3634,6.26233 -9.5,7.76085 -2.1366,1.49851 -5.059,3.67669 -6.4943,4.84039 -1.4352,1.16371 -7.5819,3.41599 -13.6592,5.00507 -28.0044,7.32255 -52.35,25.01285 -66.687,48.45711 -2.6817,4.38507 -6.2947,10.22285 -8.0289,12.97285 -10.7493,17.045 -15.1652,30.19485 -14.0411,41.81216 0.8533,8.81839 5.3513,31.89322 9.5884,49.18784 2.0832,8.50314 10.4193,25.90164 17.1804,35.85789 4.8271,7.10813 13.757,24.08334 13.757,26.1511 0,0.82006 -0.4197,1.49101 -0.9326,1.49101 -1.7273,0 -2.3937,4.44427 -2.1744,14.5 0.4039,18.5137 -5.2803,36.1616 -15.9021,49.3721 -11.4751,14.2717 -13.4171,16.28 -18.7342,19.3736 -6.2101,3.6131 -17.8058,7.7543 -21.7126,7.7543 -1.3276,0 -3.6807,0.4954 -5.229,1.1008 -1.5483,0.6055 -5.6805,1.4685 -9.1827,1.9177 -3.5023,0.4492 -6.8357,1.2848 -7.4077,1.8568 -0.72,0.72 0.47,2.7662 3.8676,6.6501 6.5351,7.4705 10.6145,13.934 16.4429,26.0522 7.2158,15.0029 9.0639,22.9523 9.6976,41.7148 0.4842,14.3381 0.3284,16.4829 -1.6924,23.2898 -1.2241,4.1236 -3.3218,9.4586 -4.6615,11.8555 -3.3167,5.9343 -12.7522,12.5618 -29.8789,20.9871 -27.4555,13.5064 -37.5778,21.7573 -49.3792,40.2499 -10.7973,16.9193 -16.0635,34.9158 -16.0992,55.0169 -0.02,11.5169 2.5998,38.992 5.0858,53.3282 1.1177,6.4455 1.0124,8.7116 -1.0491,22.5759 -1.9746,13.2803 -9.105,36.3213 -14.2057,45.9043 -30.4449,57.1985 -45.3461,76.3814 -71.6469,92.2335 -4.0047,2.4138 -7.6885,2.9124 -8.7559,1.1852 z m -41.1317,-44.701 c -1.1384,-0.7239 -1.8598,-27.97 -3.8052,-143.7177 -0.2866,-17.05 -0.7465,-42.7 -1.022,-57 -0.2756,-14.3 -0.7203,-37.475 -0.9883,-51.5 -0.2681,-14.025 -0.72,-43.5 -1.0044,-65.5 -0.2844,-22 -0.735,-50.35 -1.0014,-63 -0.2664,-12.65 -0.7163,-42.35 -0.9998,-66 -0.2835,-23.65 -0.7307,-50.875 -0.9938,-60.5 -0.263,-9.625 -0.7123,-38.425 -0.9984,-64 -0.2861,-25.575 -0.7393,-56.625 -1.0071,-69 -0.2678,-12.375 -0.7203,-39.375 -1.0056,-60 -0.2854,-20.625 -0.7375,-48.525 -1.0047,-62 -0.2672,-13.475 -0.7331,-42.275 -1.0353,-64 -0.3022,-21.725 -0.7163,-51.07184 -0.9202,-65.21519 -0.204,-14.14336 -0.6886,-26.22937 -1.077,-26.85781 -0.4897,-0.79227 -3.1973,-0.94853 -8.8305,-0.50963 -7.1654,0.55827 -38.0629,2.10433 -62.6244,3.13362 -4.675,0.19591 -12.1,0.58676 -16.5,0.86856 -4.4,0.2818 -17.225,0.98227 -28.5,1.5566 -11.275,0.57433 -21.47151,1.26293 -22.6589,1.53023 -1.1874,0.2673 -12.2124,0.72511 -24.5,1.01736 -12.28761,0.29225 -24.16213,0.71936 -26.38783,0.94914 -2.2257,0.22977 -11.0007,0.66128 -19.5,0.9589 -8.4993,0.29763 -18.82827,0.77503 -22.95327,1.0609 -4.125,0.28587 -17.625,0.98789 -30,1.56004 -12.375,0.57215 -25.875,1.22715 -30,1.45556 -4.125,0.22841 -13.125,0.65752 -20,0.95357 -11.64302,0.50137 -20.57861,0.95321 -40.5,2.04796 -4.4,0.2418 -14.75,0.71029 -23,1.0411 -8.25,0.33081 -17.83532,0.93728 -21.30072,1.34773 -3.46539,0.41044 -6.53399,0.36881 -6.8191,-0.0925 -0.28511,-0.46131 -0.82478,-0.65078 -1.19928,-0.42104 -0.37449,0.22975 -7.4309,0.75252 -15.6809,1.16173 -8.25,0.40921 -16.575,0.83728 -18.5,0.95127 -1.925,0.11399 -9.35,0.53386 -16.5,0.93305 -7.15,0.39919 -15.7,0.92103 -19,1.15965 -3.3,0.23862 -11.4,0.61651 -18,0.83974 -6.6,0.22323 -17.175,0.70759 -23.5,1.07634 -6.325,0.36875 -18.475,0.82654 -27,1.01731 -17.84798,0.39938 -46.84078,2.11216 -58.5,3.45594 -4.4,0.50712 -14.975,0.93369 -23.5,0.94793 -8.525,0.0142 -16.625,0.23929 -18,0.50012 -1.375,0.26082 -9.25,0.74695 -17.5,1.08028 -8.25,0.33334 -15.675,0.79622 -16.5,1.02864 -0.825,0.23242 -13.875,0.88245 -29,1.44452 -15.125,0.56207 -35.6,1.44441 -45.5,1.96076 -9.9,0.51635 -24.525,1.2051 -32.5,1.53055 -7.975,0.32546 -19.9,1.01783 -26.5,1.5386 -6.6,0.52078 -24.375,1.40626 -39.5,1.96775 -28.40251,1.0544 -35.96811,1.40577 -64,2.97241 -9.075,0.50718 -24.825,1.19795 -35,1.53505 -10.175,0.33709 -23,1.01138 -28.5,1.49841 -5.5,0.48703 -19.28516,1.17971 -30.63369,1.53929 -11.34853,0.35957 -24.39853,1.12326 -29,1.69709 -4.601471,0.57382 -12.30381,1.074 -17.11631,1.11151 -6.080008,0.0474 -8.75,0.43281 -8.75,1.26308 0,1.21673 -8.037861,5.69936 -8.818973,4.91825 -1.132188,-1.13219 1.070013,-3.5323 4.02194,-4.38339 L 70.5,621.18038 67,620.95611 c -3.96649,-0.25415 -30.671557,0.16879 -36,0.57015 -14.475153,1.09034 -31,1.42819 -31,0.63379 0,-1.24493 4.620951,-1.85742 15.5,-2.05448 4.95,-0.0897 13.5,-0.572 19,-1.07188 5.5,-0.49987 17.2,-1.20368 26,-1.56401 12.483358,-0.51116 16.962047,-1.07436 20.377118,-2.56242 C 85.737553,612.7894 88.56777,612.49162 89.5,614 c 0.77961,1.26144 17.62675,1.26584 40.5,0.0106 9.625,-0.5282 22,-1.2096 27.5,-1.5142 12.42528,-0.68816 24.21033,-1.26851 41,-2.01905 7.15,-0.31962 15.7,-0.76325 19,-0.98585 3.3,-0.22259 11.175,-0.65597 17.5,-0.96305 6.325,-0.30708 25.225,-1.22765 42,-2.04571 62.68528,-3.05696 71.83188,-3.48188 85.5,-3.9721 7.7,-0.27617 17.15,-0.73978 21,-1.03025 10.81879,-0.81622 20.17986,-1.34328 43.5,-2.44918 11.825,-0.56077 28.25,-1.45148 36.5,-1.97935 16.70262,-1.0687 39.56607,-2.13583 55.5,-2.5904 5.775,-0.16475 12.3,-0.55117 14.5,-0.8587 2.2,-0.30753 14.125,-1.02961 26.5,-1.60461 12.375,-0.57501 26.55,-1.25205 31.5,-1.50454 15.61204,-0.79634 52.87245,-2.31601 56,-2.28397 1.65,0.0169 8.625,-0.44602 15.5,-1.02873 6.875,-0.58271 19.925,-1.30646 29,-1.60835 15.97296,-0.53135 45.68675,-2.05974 59,-3.03478 3.575,-0.26183 12.575,-0.76333 20,-1.11446 7.425,-0.35112 15.525,-0.77904 18,-0.95094 5.50334,-0.38224 28.10495,-1.41639 45,-2.05902 33.30703,-1.26687 42.03969,-1.68209 59.5,-2.82909 4.95,-0.32518 12.6,-0.80082 17,-1.05698 4.4,-0.25616 10.25,-0.68724 13,-0.95795 2.75,-0.27071 15.8,-0.99433 29,-1.60805 16.73498,-0.77808 24.45406,-1.50586 25.5,-2.40425 2.73001,-2.34489 7.0671,-2.80627 9.09848,-0.96789 1.6502,1.4934 3.43806,1.59856 15.63242,0.91945 7.573,-0.42175 16.9191,-0.88458 20.7691,-1.0285 27.5472,-1.02984 37.7679,-1.52396 38.3409,-1.85361 0.3625,-0.20857 8.0841,-0.67355 17.1591,-1.03328 9.075,-0.35973 18.3,-0.85349 20.5,-1.09724 2.2,-0.24376 10.2954,-0.69857 17.9898,-1.01071 7.6945,-0.31214 15.007,-0.8228 16.25,-1.13479 2.7305,-0.68531 2.6415,4.46808 1.3059,-75.62517 -1.4612,-87.6275 -2.0372,-131.91677 -2.0576,-158.22528 -0.01,-13.2 -0.3986,-24.59922 -0.8629,-25.3316 -0.4642,-0.73238 -4.3948,-2.37801 -8.7346,-3.65695 -4.3399,-1.27895 -13.0656,-4.16523 -19.3906,-6.41397 -8.3375,-2.96424 -13.0749,-4.08984 -17.2269,-4.09305 -5.0274,-0.004 -5.9304,-0.31481 -7.3919,-2.54539 -2.3419,-3.57419 -0.8698,-6.24161 6.8234,-12.36376 3.4625,-2.75538 8.5162,-7.27901 11.2304,-10.05253 2.7143,-2.77351 5.262,-5.04275 5.6616,-5.04275 0.3997,0 1.9796,-3.2625 3.511,-7.25 1.5314,-3.9875 3.3824,-8.15 4.1132,-9.25 0.7308,-1.1 1.7821,-3.67686 2.3362,-5.72636 0.554,-2.0495 2.7929,-5.78937 4.9752,-8.31082 C 1120.2145,225.94137 1122,223.4831 1122,223 c 0,-0.4831 1.7849,-2.94067 3.9665,-5.46127 4.8119,-5.55971 6.8644,-11.49915 5.3553,-15.49708 -0.7067,-1.87227 -0.7215,-3.36289 -0.045,-4.57087 1.4058,-2.51209 0.3245,-21.84945 -2.2351,-39.97078 -3.2516,-23.02039 -7.0453,-48.66496 -7.6926,-52 -0.326,-1.67999 -0.2008,-2.63666 0.2846,-2.17423 0.8985,0.85597 6.0085,28.7478 6.7212,36.68664 0.2229,2.48183 1.0206,7.20683 1.7728,10.5 l 1.3676,5.98759 0.5026,-8 c 0.6963,-11.08376 2.3578,-8.04037 3.0026,5.5 l 0.5,10.5 3.1832,-0.30503 c 2.7978,-0.26809 3.69,0.33597 7.367,4.98778 2.3011,2.91105 5.0097,5.87131 6.0191,6.57835 2.7978,1.95964 3.7519,-0.81427 4.9394,-14.36053 0.5677,-6.47617 1.2868,-12.02814 1.5979,-12.33771 0.311,-0.30957 1.4268,0.49949 2.4795,1.79792 3.5313,4.35576 1.9845,23.30624 -2.2721,27.83718 -2.851,3.03478 -7.5313,2.9831 -12.1244,-0.13387 l -3.5895,-2.4359 -0.3001,5.1859 c -0.294,5.0815 -0.3674,5.19237 -3.648,5.50658 -3.2767,0.31383 -3.3336,0.39911 -2.6691,4 0.3735,2.02363 1.5267,4.59143 2.5628,5.70623 1.2322,1.32579 1.6782,2.81299 1.2895,4.29947 -1.4181,5.42272 17.8476,42.24684 32.528,62.17363 9.1435,12.4111 28.3784,32.46435 38.6368,40.28054 4.4,3.35251 10.3028,8.03955 13.1174,10.41565 6.4918,5.48051 27.3695,20.30381 28.5966,20.30381 0.5091,0 2.8067,1.28018 5.1058,2.84484 4.1008,2.79079 22.3308,12.63654 34.1802,18.46021 8.7,4.27581 15.6808,9.04206 22.5279,15.38123 7.3681,6.82164 10.172,10.62933 9.3686,12.72294 -0.8375,2.18234 -1.7442,2.01053 -5.3349,-1.01088 -1.7006,-1.43091 -6.5726,-4.51118 -10.8268,-6.84503 -10.47,-5.74391 -18.9233,-10.86439 -23.7348,-14.37703 -2.2,-1.60611 -6.2313,-4.14627 -8.9584,-5.64479 -2.7272,-1.49853 -6.1022,-3.61527 -7.5,-4.70387 -5.8154,-4.52874 -17.0856,-11.28324 -25.0416,-15.00795 -4.675,-2.18867 -9.2723,-4.38778 -10.2162,-4.8869 -1.914,-1.01209 -4.5806,-1.75456 -19.7838,-5.50845 -19.6549,-4.85308 -33.1233,-9.08462 -42.5,-13.35283 -5.1023,-2.3225 -14.6123,-4.36151 -15.6158,-3.34812 -0.4229,0.42715 -0.1327,5.72663 0.6451,11.77663 2.2216,17.28128 14.8162,103.30725 18.3738,125.5 1.1021,6.875 4.0419,26.225 6.5329,43 7.6841,51.74712 10.4022,68.2382 11.414,69.25001 0.8751,0.87508 22.6406,1.16243 24.0636,0.31769 0.3225,-0.19147 7.3364,-0.64519 15.5864,-1.00827 8.25,-0.36307 16.8,-0.8587 19,-1.10139 2.2,-0.24269 14.8,-0.89945 28,-1.45947 25.7316,-1.09169 33.3451,-1.49889 57.5,-3.07536 20.5048,-1.33824 50.8032,-1.80516 54.25,-0.83604 1.5338,0.43125 2.75,0.37571 2.75,-0.12559 0,-0.49435 0.7546,-0.60924 1.6769,-0.25533 2.8499,1.0936 -1.2424,1.98727 -10.1139,2.2087 -4.3653,0.10896 -8.2179,0.37175 -8.5613,0.58397 -0.3433,0.21223 -3.9717,0.66689 -8.063,1.01036 -4.0913,0.34346 -9.0241,0.9736 -10.9617,1.40031 -1.9377,0.4267 -4.4127,0.42918 -5.5,0.006 -1.0874,-0.42367 -3.327,-0.59743 -4.977,-0.38614 -1.65,0.21129 -7.0148,0.65292 -11.9219,0.98141 -4.907,0.32848 -10.982,0.79296 -13.5,1.03217 -6.5333,0.62067 -15.9108,1.24909 -28.5781,1.91509 -6.05,0.31809 -14.825,0.82805 -19.5,1.13326 -21.3458,1.39355 -36,1.60292 -36,0.51435 0,-1.56969 -2.5353,-1.37012 -3.9291,0.30928 -1.2166,1.46602 -8.1604,2.21748 -28.0709,3.03787 -5.775,0.23795 -10.8375,0.45851 -11.25,0.49013 -1.0394,0.0797 -0.937,5.91207 0.2434,13.86485 0.9743,6.56475 4.6262,31.83114 6.026,41.69263 0.3904,2.75 2.5977,17.15 4.9051,32 2.3075,14.85 5.9474,38.925 8.0887,53.5 4.0587,27.62637 8.0882,54.61988 12.4644,83.5 1.4168,9.35 4.359,28.925 6.5381,43.5 2.1792,14.575 4.928,32.95174 6.1086,40.8372 1.7109,11.42768 2.5651,14.72712 4.2089,16.25859 1.837,1.71148 1.9303,2.28651 0.8539,5.26342 -1.4965,4.13851 -1.1384,7.10304 7.2663,60.14079 1.3945,8.8 3.4056,21.85 4.469,29 2.4349,16.37111 8.5655,56.44401 15.0607,98.44431 2.7596,17.8444 6.3612,41.9194 8.0035,53.5 1.6423,11.5806 3.2697,22.0682 3.6164,23.3057 0.3653,1.3042 0.1892,2.25 -0.419,2.25 -1.4642,0 -2.1731,-2.9257 -6.6637,-27.5 -1.4071,-7.7 -3.2248,-16.2896 -4.0393,-19.0879 -0.8146,-2.7983 -1.481,-6.7834 -1.481,-8.8556 0,-2.0723 -0.633,-6.3078 -1.4067,-9.4122 -0.7737,-3.1043 -1.7534,-8.3443 -2.1772,-11.6443 -0.8711,-6.7836 -0.7841,-6.3214 -1.6932,-9 -0.7238,-2.1324 -0.9468,-3.5563 -5.6374,-36 -1.6698,-11.55 -3.4826,-23.7 -4.0284,-27 -0.8757,-5.2946 -3.2745,-20.71007 -6.0688,-39.00001 -0.5041,-3.3 -1.5759,-10.275 -2.3816,-15.5 -0.8058,-5.225 -2.1927,-14.675 -3.0821,-21 -2.0162,-14.33785 -4.4231,-29.86813 -5.6956,-36.75 l -0.9708,-5.25 -7.6791,-0.0304 c -6.0566,-0.024 -7.2806,-0.26186 -5.793,-1.12585 1.099,-0.6383 4.1246,-0.86442 7.25,-0.54185 6.8489,0.70687 6.6105,2.10953 3.3656,-19.80189 -1.1403,-7.7 -2.6988,-18.5 -3.4632,-24 -1.5081,-10.85014 -7.6954,-52.48217 -9.9576,-67 -0.7713,-4.95 -3.9318,-26.55 -7.0234,-48 -5.3491,-37.11327 -7.473,-51.51826 -9.5838,-65 -0.5167,-3.3 -1.1648,-7.575 -1.4403,-9.5 -0.2755,-1.925 -2.7966,-19.25 -5.6025,-38.5 -2.8059,-19.25 -5.4809,-37.7 -5.9446,-41 -0.4637,-3.3 -1.1563,-8.10036 -1.5393,-10.66746 l -0.6962,-4.66746 -6.1254,-0.33254 c -3.369,-0.1829 -9.7254,-0.002 -14.1254,0.40233 -4.4,0.40418 -11.825,1.07918 -16.5,1.5 l -8.5,0.76513 -0.2515,15 c -0.1383,8.25 -0.4101,19.05 -0.604,24 -0.194,4.95 -0.012,19.8 0.4038,33 0.4161,13.2 1.0301,42.45 1.3645,65 0.3344,22.55 0.8196,45.275 1.0782,50.5 0.2586,5.225 0.7457,33.8 1.0825,63.5 0.8036,70.88219 0.8489,72.78974 1.7625,74.25 0.4322,0.69085 2.7422,1.25 5.164,1.25 6.3444,0 6.5751,1.8349 0.2762,2.19683 L 1147.5,897.5 l 0.018,30 c 0.017,27.39558 1.2821,113.6031 2.0036,136.5 0.1647,5.225 0.5752,31.1 0.9124,57.5 0.3371,26.4 0.8213,54.525 1.076,62.5 0.2546,7.975 0.6975,39.475 0.9842,70 0.2866,30.525 0.7546,64.275 1.0399,75 0.2853,10.725 0.7722,36.1379 1.0819,56.4731 0.4564,29.9672 0.8453,37.5188 2.0522,39.8527 1.1417,2.2078 1.241,3.4972 0.4259,5.5269 -1.3201,3.2869 -2.1748,33.3469 -1.1979,42.1267 0.6637,5.9639 -0.4344,15.0416 -1.815,15.0053 -0.3198,-0.01 -1.1134,-0.3536 -1.7634,-0.767 z M 1171.25,560.62853 c 1.5125,-0.15319 5.45,-0.35728 8.75,-0.45353 5.8366,-0.17023 6,-0.24991 5.9993,-2.925 -4e-4,-1.5125 -1.9984,-16.475 -4.44,-33.25 -2.4417,-16.775 -8.0784,-55.475 -12.5261,-86 -4.4477,-30.525 -10.1148,-69.9 -12.5935,-87.5 -5.9879,-42.51821 -6.0908,-43.01998 -9.095,-44.3888 -1.3413,-0.61116 -4.065,-1.1112 -6.0526,-1.1112 l -3.6138,0 0.7587,60.75 c 0.4172,33.4125 0.881,67.275 1.0305,75.25 0.1495,7.975 0.6132,37.45 1.0303,65.5 0.4171,28.05 1.1646,52.07807 1.661,53.3957 l 0.9025,2.39571 12.7193,-0.69217 c 6.9957,-0.3807 13.9569,-0.81751 15.4694,-0.97071 z m 48.6743,-242.22423 c -1.3334,-1.42763 -6.4743,-5.64852 -11.4243,-9.37974 -8.3617,-6.30293 -17.7069,-15.52012 -31.7205,-31.28614 -7.7408,-8.70883 -27.8363,-39.09135 -31.8357,-48.13264 -1.1206,-2.53318 -2.2737,-4.60578 -2.5626,-4.60578 -1.2575,0 8.6296,69.26793 10.643,74.56356 0.5839,1.53575 2.6103,2.57341 7.6353,3.90973 6.4382,1.71214 13.2057,4.08232 24.8405,8.69999 9.3315,3.7035 27.8206,8.31915 34.9243,8.71853 1.7559,0.0987 1.7122,-0.11894 -0.5,-2.48751 z M 1148.3808,296.25 c -0.2715,-2.0625 -0.901,-6.45 -1.3991,-9.75 -0.4981,-3.3 -2.0353,-14.1 -3.4161,-24 -1.3807,-9.9 -3.3104,-22.95 -4.288,-29 -1.7721,-10.96577 -1.7792,-10.98289 -2.2925,-5.5 -0.6217,6.63987 -0.1273,59.7616 0.6119,65.74618 0.4124,3.33975 0.9918,4.34542 2.7137,4.71107 9.099,1.9321 8.6316,2.05993 8.0701,-2.20725 z m -16.3365,-4 c 0.3257,-20.23614 -0.3186,-71.9243 -0.9039,-72.50959 -1.3623,-1.3623 -12.4141,13.96668 -16.596,23.01884 -2.2244,4.81492 -5.2395,10.77633 -6.7002,13.24758 -2.5947,4.38992 -14.3242,16.1843 -22.6875,22.81297 -2.3036,1.82589 -3.9516,3.70308 -3.6621,4.17153 0.2896,0.46845 3.5592,1.15295 7.2659,1.52111 6.7132,0.66676 25.7077,5.863 27.8829,7.6278 1.2733,1.0331 8.3707,2.58143 12.6066,2.75019 2.35,0.0936 2.7564,-0.29042 2.7943,-2.64043 z m 62.5862,1182.4691 c -3.3588,-2.456 -1.9959,-12.4999 2.1372,-15.751 2.5989,-2.0443 2.6067,-2.0927 1.3326,-8.2613 -0.7049,-3.4127 -1.948,-7.7804 -2.7624,-9.7059 l -1.4809,-3.5009 -1.4538,2.7373 c -1.5675,2.9515 -2.644,3.3294 -12.1014,4.2482 -5.7052,0.5542 -6.3144,0.4196 -7.658,-1.6917 -2.506,-3.9381 -4.8971,-17.305 -4.4646,-24.9588 0.3378,-5.9788 0.7693,-7.3749 2.7834,-9.0058 1.4851,-1.2026 3.5434,-1.8168 5.4605,-1.6296 2.6217,0.2559 3.2927,0.9245 4.5351,4.5187 1.2142,3.5123 1.2601,5.5206 0.2741,12 -0.6513,4.2799 -1.4725,8.7942 -1.8249,10.0317 -0.3726,1.3087 -0.2026,2.25 0.4064,2.25 0.5759,0 1.1909,-0.9958 1.3666,-2.213 0.2347,-1.6249 1.2496,-2.4044 3.8196,-2.9334 1.925,-0.3963 3.9275,-0.3004 4.45,0.2129 1.6094,1.5814 2.55,1.043 2.55,-1.4595 0,-2.3186 1.6418,-3.607 4.5965,-3.607 2.7407,0 5.3958,6.1148 5.3998,12.4362 0,3.2649 0.9568,9.333 2.1218,13.4846 2.5151,8.9634 2.2165,18.947 -0.6618,22.1275 -2.0194,2.2314 -6.2516,2.5531 -8.8258,0.6708 z M 1280.0368,897.75 c -0.5061,-1.2375 -1.2039,-4.8375 -1.5505,-8 -0.3466,-3.1625 -0.8831,-5.75 -1.1922,-5.75 -0.3092,0 -2.3308,0.52994 -4.4927,1.17764 -3.8526,1.15429 -3.9253,1.26337 -3.6649,5.49887 0.2999,4.87585 -0.9967,6.82002 -3.9279,5.88971 -2.3879,-0.75791 -2.9777,-2.70389 -3.8197,-12.60428 -0.658,-7.73709 0.8149,-20.61253 2.8239,-24.68548 1.4199,-2.87851 6.953,-4.79326 9.6619,-3.34351 4.3503,2.32823 8.8969,15.34223 11.1662,31.96212 1.2048,8.8237 1.1701,9.47748 -0.5702,10.75 -2.5605,1.87227 -3.3687,1.7091 -4.4339,-0.89507 z m -5.5695,-16.91706 c 1.6066,-0.73203 2.3919,-1.75711 2.1066,-2.75 -0.2502,-0.87062 -0.9788,-3.60794 -1.6192,-6.08294 -1.6394,-6.33618 -3.9038,-10.45092 -5.0954,-9.25932 -0.5337,0.53376 -1.2371,5.08547 -1.5629,10.1149 -0.5709,8.81223 -0.5161,9.14442 1.5085,9.14442 1.1556,0 3.2536,-0.52518 4.6624,-1.16706 z M 1172.5,896 c -1.3618,-0.58519 0.2337,-0.85005 5,-0.83003 4.9526,0.0208 6.2688,0.26356 4.5,0.83003 -3.3069,1.05904 -7.0355,1.05904 -9.5,0 z m 26.25,-0.7234 c 1.7875,-0.22182 4.7125,-0.22182 6.5,0 1.7875,0.22183 0.325,0.40333 -3.25,0.40333 -3.575,0 -5.0375,-0.1815 -3.25,-0.40333 z M 62.694661,683.29716 c -3.874309,-0.99816 -0.800396,-2.62084 5.127809,-2.70691 5.205184,-0.0756 5.937846,0.11301 4.505619,1.15975 -0.940692,0.6875 -2.487536,1.25 -3.437431,1.25 -0.949896,0 -2.326387,0.17151 -3.058871,0.38114 -0.732483,0.20962 -2.14419,0.17183 -3.137126,-0.084 z M 52.25,674.68075 C 49.217286,670.22669 49.192193,660 52.213978,660 c 0.55,0 0.725193,0.71613 0.389319,1.59141 -0.335874,0.87527 0.09016,4.29605 0.946747,7.60171 2.024719,7.81365 1.575325,9.7106 -1.300044,5.48763 z m 32.833333,-5.00698 C 87.107264,668.08913 94,665.2418 94,665.99037 94,667.19586 88.673041,670 86.382993,670 c -0.943979,0 -1.528826,-0.1468 -1.29966,-0.32623 z m 11.229233,-18.04592 c 0.289599,-0.75468 0.838839,-3.45468 1.220533,-6 0.735792,-4.90662 1.453791,-5.5535 3.468961,-3.12537 1.37088,1.65181 0.71983,6.92277 -1.130443,9.15221 -1.470013,1.77126 -4.241027,1.75036 -3.559051,-0.0268 z M 55,639.22251 c 0,-3.06795 2.161033,-6.70314 4.835859,-8.13466 1.386623,-0.7421 1.165021,0.25637 -1.107984,4.99226 C 57.165174,639.33605 55.687116,642 55.4433,642 55.199485,642 55,640.75013 55,639.22251 z m 38.79809,-9.8263 c -0.295023,-2.52709 0.01426,-3.77071 1.035201,-4.16248 C 96.648386,624.53721 99,627.61727 99,630.69113 99,632.45908 98.439934,633 96.609406,633 c -2.000725,0 -2.459207,-0.58772 -2.811316,-3.60379 z M 75.324801,596.79548 c -4.45637,-4.84977 -10.622992,-16.32725 -11.118994,-20.69496 -0.592506,-5.21751 1.70534,-10.28338 5.435369,-11.98289 9.033354,-4.11587 16.900736,4.28843 16.192583,17.29767 l -0.331218,6.0847 3.998729,-0.18804 c 8.246254,-0.38778 13.31309,3.02571 9.971724,6.71788 -3.130178,3.45881 -8.176758,3.20524 -15.650851,-0.78639 -0.372821,-0.19911 -0.822821,0.90216 -1,2.44726 -0.432321,3.77011 -4.49774,4.36917 -7.497342,1.10477 z m 4.279492,-14.35499 c 1.123234,-4.47533 -0.206701,-11.38837 -2.701858,-14.04434 -3.099261,-3.29902 -6.295002,-2.83622 -6.730517,0.97468 -0.470323,4.11549 0.622069,7.62917 2.371885,7.62917 1.318327,0 1.981954,1.13276 3.954482,6.75 0.739038,2.10458 2.427826,1.39258 3.106008,-1.30951 z M 953,568.0303 c -3.02206,-0.96439 -15.00738,-6.88373 -16.73899,-8.2671 -5.40685,-4.31948 10.04884,-0.59603 16.88401,4.06754 2.55477,1.74309 5.14227,3.16926 5.75,3.16926 0.60774,0 1.10498,0.45 1.10498,1 0,1.16233 -3.40643,1.17707 -7,0.0303 z m 26.07108,-17.74107 c -4.56475,-2.38192 -6.75901,-5.60555 -8.56841,-12.58802 -2.18026,-8.41362 -1.95098,-12.34381 0.8856,-15.18039 6.42322,-6.42322 20.47575,-2.87719 24.23291,6.11496 5.43892,13.01708 -5.5494,27.39369 -16.5501,21.65345 z m 10.40324,-5.23957 c 0.83912,-1.62269 1.52568,-5.4543 1.52568,-8.51469 0,-4.8838 -0.39756,-5.99815 -3.2506,-9.11136 -2.42349,-2.64448 -4.32574,-3.69123 -7.47592,-4.11375 -3.89668,-0.52266 -4.30497,-0.35724 -5.2494,2.1268 -1.54273,4.05771 -1.243,6.69333 0.82262,7.2335 1.26507,0.33083 1.7181,1.16746 1.43841,2.65638 -0.55858,2.97355 2.20139,9.20039 4.92287,11.10658 3.33396,2.3352 5.56279,1.91085 7.26634,-1.38346 z M 1006.2,547.8 c -0.66,-0.66 -1.2,-3.675 -1.2,-6.7 0,-4.27778 -0.2667,-5.23333 -1.2,-4.3 -1.4022,1.40223 -5.8,1.62128 -5.8,0.28889 0,-1.42803 5.891,-6.02343 8.5901,-6.70085 4.1143,-1.03264 5.7265,1.25589 5.1077,7.25079 -0.3463,3.35588 -0.096,5.80155 0.7053,6.89775 1.151,1.57416 1.4696,1.5806 4.356,0.088 1.7127,-0.8857 3.3987,-2.07091 3.7466,-2.63379 0.3479,-0.56288 1.0464,-0.76762 1.5523,-0.45496 1.3502,0.83451 -1.6765,4.96931 -4.6191,6.31003 -3.3049,1.50582 -9.7134,1.47966 -11.2389,-0.0459 z m -89.81114,-2.56531 C 913.53449,543.34738 901,525.55169 901,523.38654 901,522.07394 901.21894,521 901.48654,521 c 0.98107,0 7.62137,7.64547 11.06515,12.74013 5.68645,8.41241 7.53057,13.93663 3.83717,11.49456 z M 1400.3099,544.75 C 1397.8858,541.50927 1389,519.93037 1389,517.28436 c 0,-3.44456 3.2663,-8.68651 7.2527,-11.63969 2.2704,-1.6819 2.9713,-1.80753 4,-0.71695 1.001,1.06116 0.953,1.42861 -0.2431,1.86074 -3.5118,1.2688 -7.0096,6.05699 -7.0096,9.59566 0,4.02143 3.43,8.07072 5.9649,7.04187 2.8235,-1.14597 9.0351,-1.70006 9.0351,-0.80594 0,0.48586 -2.025,1.95764 -4.5,3.27063 -2.475,1.31298 -4.5,2.78041 -4.5,3.26094 0,0.48053 0.9,4.12146 2,8.09094 1.1,3.96948 2,7.56379 2,7.98734 0,1.20041 -1.6539,0.90536 -2.6901,-0.4799 z m 20.4487,-9 c -1.6628,-4.67024 -5.1854,-17.36399 -6.2554,-22.54096 -0.4257,-2.06025 -0.2273,-3.83659 0.5308,-4.75 1.8404,-2.21752 2.966,-1.75344 2.966,1.22286 0,1.47505 0.9493,6.20005 2.1096,10.5 1.9588,7.25973 2.2981,7.81701 4.75,7.80279 4.8615,-0.0282 5.0519,-0.80093 2.6516,-10.76083 -2.0466,-8.49182 -1.9472,-11.22939 0.356,-9.80595 0.4769,0.29478 1.8695,3.80883 3.0945,7.80902 1.2251,4.00019 2.6022,8.17307 3.0602,9.27307 1.3166,3.16153 2.1599,14.26961 1.1316,14.90515 -1.3007,0.80386 -2.8002,-1.33307 -3.6175,-5.15515 -0.805,-3.76495 -0.7078,-3.72963 -4.6519,-1.69004 -2.6231,1.35644 -2.9324,1.94352 -2.3709,4.5 1.0363,4.71836 -1.9835,3.66479 -3.7546,-1.30996 z M 876.65809,495.16189 C 873.115,491.53345 861,469.93907 861,467.25215 c 0,-1.98114 1.41766,-1.47496 4.19502,1.49785 2.75656,2.95055 17.13454,30.25 15.93196,30.25 -0.39659,0 -2.4076,-1.72715 -4.46889,-3.83811 z m 518.38131,-67.13755 c -0.7942,-0.4908 -1.9154,-0.62492 -2.4917,-0.29803 -0.5762,0.32689 -0.7027,0.2147 -0.281,-0.2493 0.4216,-0.46401 -0.5859,-1.41234 -2.239,-2.1074 -1.9977,-0.83997 -2.8151,-1.76004 -2.4376,-2.74372 0.4289,-1.11778 0.031,-1.33965 -1.6246,-0.90662 -1.9858,0.51929 -2.0828,0.36836 -1.0288,-1.60097 1.1883,-2.2203 2.0709,-2.09811 5.3743,0.74404 1.5777,1.35731 1.9321,1.36993 2.75,0.0979 0.8222,-1.27864 1.0568,-1.27698 1.8862,0.0134 0.6128,0.9534 0.5769,1.70248 -0.1018,2.12196 -0.6266,0.38726 -0.1184,1.30022 1.262,2.26712 2.5297,1.77189 1.5287,4.26653 -1.068,2.66165 z M 850.34201,425.91753 C 848.48723,423.64704 845,412.85906 845,409.39165 c 0,-2.02513 0.59596,-3.40637 1.64313,-3.8082 0.90372,-0.34679 1.7978,-0.47586 1.98684,-0.28681 0.79576,0.79575 3.45848,17.11244 3.17705,19.46835 -0.25231,2.11206 -0.51338,2.31745 -1.46501,1.15254 z m 513.20779,-3.64845 c -0.3654,-0.95201 -0.1885,-1.88951 0.393,-2.08334 0.5814,-0.19382 1.0641,-1.10241 1.0725,-2.01907 0.024,-2.62082 1.2456,-3.86375 4.4847,-4.56345 2.3887,-0.51598 3.2664,-0.21995 4.3074,1.45273 1.5359,2.46782 0,5.14614 -2.6908,4.70725 -1.0293,-0.16758 -1.7354,0.57515 -1.9437,2.04443 -0.4314,3.04329 -2.7424,2.17238 -2.4356,-0.91786 0.2067,-2.08201 0.1031,-2.16338 -0.8042,-0.63185 -0.5727,0.96686 -0.7654,2.20436 -0.4282,2.75 0.3372,0.54564 0.1847,0.99208 -0.3389,0.99208 -0.5236,0 -1.2509,-0.77892 -1.6162,-1.73092 z m 169.1525,-12.93575 C 1532.9837,408.6 1533.6158,408 1534.107,408 c 0.4911,0 0.893,0.6 0.893,1.33333 0,0.73334 -0.6321,1.33334 -1.4047,1.33334 -0.7725,0 -1.1744,-0.6 -0.893,-1.33334 z M 1537,405.46862 c 0,-0.84227 0.6944,-1.79786 1.5431,-2.12354 2.2605,-0.86742 2.3791,-0.089 0.2902,1.90492 -1.5511,1.48065 -1.8333,1.5143 -1.8333,0.21862 z m -7,0.0904 c 0,-0.24254 0.45,-0.7191 1,-1.05902 0.55,-0.33992 1,-0.14148 1,0.44098 0,0.58246 -0.45,1.05902 -1,1.05902 -0.55,0 -1,-0.19844 -1,-0.44098 z M 848.68692,377.30244 c -0.47387,-0.76673 -2.34137,-10.84493 -2.65026,-14.30244 -1.32588,-14.84092 -1.12829,-21.00443 0.81414,-25.39561 1.12021,-2.53241 2.39954,-4.60346 2.84297,-4.60232 0.95307,0.002 1.10608,43.52726 0.15637,44.47944 -0.35743,0.35835 -0.88088,0.27777 -1.16322,-0.17907 z M 853.59222,280 c 0.64552,-14.8968 1.73814,-20 4.28209,-20 1.70834,0 1.72533,0.53168 0.34342,10.75 -0.7996,5.9125 -2.28932,13.225 -3.31049,16.25 l -1.85667,5.5 0.54165,-12.5 z m 13.35969,-50.66534 c 1.70761,-5.6228 4.06317,-11.59228 5.98944,-15.17847 1.08013,-2.0109 3.58203,-7.1465 5.55978,-11.41244 3.6658,-7.907 6.71803,-11.74375 9.34242,-11.74375 1.27153,0 1.26559,0.23258 -0.0447,1.75 -0.83113,0.9625 -5.39766,9.67973 -10.14784,19.37162 -8.18394,16.69785 -12.79607,24.11799 -10.69909,17.21304 z M 904.13048,166.75 c 3.26602,-6.11943 14.324,-16.75 17.42345,-16.75 0.73439,0 -3.24291,4.71395 -11.17943,13.25 -5.5436,5.96238 -8.41819,7.57369 -6.24402,3.5 z M 956,122.60915 c 4.48916,-4.8603 23.96852,-19.97396 24.74406,-19.19843 0.3241,0.32411 0.40177,0.73536 0.17261,0.91389 -0.22917,0.17854 -4.91667,3.91423 -10.41667,8.30155 -5.5,4.38731 -11.8,9.2809 -14,10.87465 l -4,2.89771 3.5,-3.78937 z M 1075.1579,54 c 0,-1.375 0.227,-1.9375 0.5044,-1.25 0.2774,0.6875 0.2774,1.8125 0,2.5 -0.2774,0.6875 -0.5044,0.125 -0.5044,-1.25 z"
     id="path3097"
     style="fill:#000000" />
</svg>
