<?xml version="1.0" encoding="UTF-8" standalone="no"?>
<!-- Created with Inkscape (http://www.inkscape.org/) -->

<svg
   xmlns:dc="http://purl.org/dc/elements/1.1/"
   xmlns:cc="http://creativecommons.org/ns#"
   xmlns:rdf="http://www.w3.org/1999/02/22-rdf-syntax-ns#"
   xmlns:svg="http://www.w3.org/2000/svg"
   xmlns="http://www.w3.org/2000/svg"
   version="1.1"
   width="1593.6924"
   height="1552.7079"
   id="svg3077">
  <metadata
     id="metadata3083">
    <rdf:RDF>
      <cc:Work
         rdf:about="">
        <dc:format>image/svg+xml</dc:format>
        <dc:type
           rdf:resource="http://purl.org/dc/dcmitype/StillImage" />
        <dc:title></dc:title>
      </cc:Work>
    </rdf:RDF>
  </metadata>
  <defs
     id="defs3081" />
  <path
     d="m 1182.9198,1551.2953 c 0.6399,-0.771 2.3825,-1.7061 3.8724,-2.0779 1.49,-0.3718 3.384,-1.2805 4.209,-2.0194 0.825,-0.7388 2.1734,-1.4912 2.9964,-1.672 0.823,-0.1809 2.0939,-1.0038 2.8241,-1.8288 0.7828,-0.8842 1.0492,-0.9566 0.649,-0.1762 -0.5572,1.0868 -0.3135,1.0957 1.3612,0.05 1.122,-0.7007 1.8582,-1.5681 1.636,-1.9276 -0.2222,-0.3595 0.6691,-1.1426 1.9806,-1.7401 1.8697,-0.8519 2.5009,-0.7833 2.9235,0.3178 0.6909,1.8006 -3.1325,4.5115 -12.6473,8.9673 -8.025,3.7581 -11.859,4.582 -9.8049,2.107 z m 29.0814,-15.005 c 0,-0.298 1.4625,-1.2893 3.25,-2.2029 1.7875,-0.9136 3.6099,-2.2752 4.0497,-3.0257 0.4398,-0.7505 1.6773,-1.3645 2.75,-1.3645 1.0727,0 1.9516,-0.3375 1.9532,-0.75 0,-1.0495 5.8517,-4.8604 6.5215,-4.25 0.3017,0.275 0.8696,0.05 1.2621,-0.5 0.3924,-0.55 1.8385,-1.6348 3.2135,-2.4107 2.2109,-1.2475 2.3565,-1.2368 1.2587,0.092 -0.6828,0.8264 -0.9078,1.8362 -0.5,2.2439 0.4077,0.4078 0.2913,0.5942 -0.2587,0.4142 -0.9319,-0.3048 -8.3873,3.7715 -9.5,5.1943 -1.6304,2.0848 -14,7.8802 -14,6.5593 z m -87.0833,-3.8431 c -0.5555,-1.6664 -0.3929,-4.75 0.2504,-4.75 0.4581,0 0.8329,1.125 0.8329,2.5 0,2.0023 -0.6889,3.4332 -1.0833,2.25 z m 34.5833,-2.75 c -0.3519,-0.5694 0.5093,-1 2,-1 1.4907,0 2.3519,0.4306 2,1 -0.3399,0.55 -1.2399,1 -2,1 -0.7601,0 -1.6601,-0.45 -2,-1 z m 79.5,-10.5 c 0.6847,-0.825 1.4699,-1.5 1.7449,-1.5 0.275,0 -0.06,0.675 -0.7449,1.5 -0.6847,0.825 -1.4699,1.5 -1.7449,1.5 -0.275,0 0.06,-0.675 0.7449,-1.5 z m -51.4433,-9.7225 c -0.8562,-1.2224 -1.5883,-3.5849 -1.627,-5.25 -0.039,-1.6651 -0.4218,-3.9275 -0.8514,-5.0275 -0.6916,-1.7708 -1.019,-1.5339 -2.8566,2.0669 -3.6355,7.1237 -7.5125,8.3997 -9.9662,3.2802 -1.6612,-3.4659 -1.6431,-5.8767 0.1111,-14.8471 1.7707,-9.0541 3.202,-13 4.7156,-13 0.6983,0 0.8432,0.6703 0.3783,1.75 -1.6519,3.8365 -3.42,14.0867 -3.4397,19.941 -0.035,10.3391 3.1481,9.4379 8.5527,-2.4216 1.822,-3.9982 3.7883,-7.2694 4.3696,-7.2694 0.6358,0 1.0664,2.6895 1.0808,6.75 0.028,7.9662 1.3086,14.2111 3.1538,15.381 1.0133,0.6424 0.9266,0.842 -0.371,0.8537 -0.9313,0.01 -2.3938,-0.9848 -3.25,-2.2072 z m 5.0522,-5.6013 c -0.9142,-1.4792 2.3348,-11.1762 3.7446,-11.1762 0.7019,0 2.0768,1.6791 3.0555,3.7314 1.6889,3.5418 1.8508,3.6338 3.1852,1.8089 0.7732,-1.0574 1.4058,-2.4565 1.4058,-3.109 0,-0.6525 0.6733,-1.7452 1.4963,-2.4282 1.2356,-1.0255 2.1789,-0.6549 5.4153,2.1275 2.1555,1.8532 3.9572,3.7069 4.0038,4.1194 0.1691,1.4987 -2.6501,0.7006 -4.4154,-1.25 -2.4932,-2.755 -3.2775,-2.5345 -5.1804,1.456 -2.2503,4.7188 -4.3111,5.2924 -6.9818,1.943 l -2.1734,-2.7257 -0.3322,2.8362 c -0.3356,2.8654 -2.1651,4.3789 -3.2233,2.6667 z m -39.6089,-10.1776 c -3.025,-0.9634 -11.575,-3.4404 -19,-5.5044 -7.425,-2.0641 -15.975,-4.5215 -19,-5.4611 -3.025,-0.9395 -8.875,-2.4891 -13,-3.4435 -4.125,-0.9545 -8.85,-2.1785 -10.5,-2.7201 -7.5272,-2.4709 -20.3616,-6.1823 -36,-10.4103 -9.35,-2.5279 -17.675,-4.8615 -18.5,-5.1858 -1.7416,-0.6846 -6.9881,-2.1494 -31,-8.6556 -9.62503,-2.6079 -18.40003,-5.1184 -19.50003,-5.579 -1.1,-0.4605 -9.65,-2.9443 -19,-5.5194 -25.96127,-7.1501 -62.2947,-17.4156 -69,-19.495 -3.3,-1.0234 -11.175,-3.2741 -17.5,-5.0016 -6.325,-1.7275 -19.15,-5.5619 -28.5,-8.521 -17.14938,-5.4273 -59.83952,-17.9563 -82,-24.0658 -6.6,-1.8196 -17.85,-5.0759 -25,-7.2361 -7.15,-2.1603 -16.6,-4.9245 -21,-6.1427 -4.4,-1.2182 -11.375,-3.2948 -15.5,-4.6146 -4.125,-1.3199 -13.125,-3.9636 -20,-5.8751 -6.875,-1.9115 -18.8,-5.3297 -26.5,-7.596 -7.7,-2.2663 -18.725,-5.3843 -24.5,-6.9289 -5.775,-1.5446 -19.95,-5.5233 -31.5,-8.8417 -11.55,-3.3183 -34.95,-9.9559 -52,-14.7501 -17.05,-4.7943 -36.175,-10.2619 -42.5,-12.1502 -22.27341,-6.6499 -115.57689,-34.1018 -121.80328,-35.8372 -3.74773,-1.0446 -6.66914,-1.391 -7.20568,-0.8544 -0.52945,0.5294 -0.54016,2.5532 -0.0259,4.8967 0.48207,2.1969 1.82227,8.7193 2.97822,14.4943 2.76131,13.7952 5.57333,27.3784 7.98594,38.5753 2.68806,12.4752 3.60955,20.1984 2.25801,18.9247 -0.58363,-0.55 -2.0398,-5.725 -3.23592,-11.5 -4.55464,-21.9902 -6.06735,-29.6074 -6.52366,-32.8495 -0.25929,-1.8422 -1.62497,-8.5922 -3.03484,-15 -1.40988,-6.4078 -2.91788,-13.3558 -3.35112,-15.4401 -0.43324,-2.0843 -0.95737,-3.9319 -1.16473,-4.1056 -0.49965,-0.4188 -43.79389,-13.2121 -65.87703,-19.4666 -29.21246,-8.2737 -90.47279,-26.2794 -90.91667,-26.7224 -0.78409,-0.7825 1.42005,-0.3566 8.41667,1.6262 3.85,1.0911 12.625,3.5148 19.5,5.386 6.875,1.8712 29.6,8.216 50.5,14.0995 20.9,5.8835 43.53182,12.2235 50.29294,14.0888 6.76112,1.8652 14.95942,4.2897 18.21846,5.3875 7.94616,2.6769 8.99374,2.5888 8.96474,-0.7538 -0.0419,-4.8299 -1.81003,-10.6554 -3.64028,-11.9937 -0.97573,-0.7135 -3.42305,-1.7412 -5.43847,-2.2839 -2.01543,-0.5427 -4.24542,-1.6868 -4.95553,-2.5425 -1.13412,-1.3665 -0.93548,-1.4694 1.63351,-0.8464 1.60855,0.3902 3.96642,1.0935 5.23973,1.5629 3.62157,1.3353 4.16924,1.0513 3.65719,-1.8964 -1.18531,-6.8233 -24.05793,-121.4718 -28.97771,-145.25 -8.92326,-43.1279 -27.33475,-135.93769 -28.46735,-143.50001 -0.57661,-3.85 -3.03188,-16.45 -5.45615,-28 -2.42428,-11.55 -5.36475,-25.93595 -6.53439,-31.96877 -1.16964,-6.03283 -2.50629,-11.20783 -2.97033,-11.5 -1.48315,-0.93384 -3.12514,-8.37687 -2.00124,-9.07148 0.68725,-0.42474 0.66762,-2.2243 -0.0605,-5.5443 -1.76802,-8.06185 -2.10564,-8.87006 -3.06017,-7.3256 -1.02102,1.65204 -1.10569,1.44259 -3.84805,-9.51855 -1.10718,-4.42535 -2.67137,-8.31356 -3.54005,-8.79969 -1.81206,-1.01408 -2.08634,-5.32604 -0.40488,-6.36524 0.79537,-0.49156 0.5693,-1.13736 -0.73097,-2.08815 -1.77777,-1.29994 -1.74732,-1.36097 0.54763,-1.09736 2.71261,0.31159 1.53545,4.30978 10.82758,-36.7757 3.64,-16.09438 5.26713,-24.84756 5.47134,-29.43326 0.0364,-0.81845 0.59209,-2.01392 1.23476,-2.65659 0.64268,-0.64267 1.96301,-4.92303 2.93407,-9.5119 0.97106,-4.58888 2.44979,-10.48936 3.28608,-13.11218 0.83628,-2.62283 1.25568,-6.09292 0.932,-7.71131 -0.3797,-1.89852 -0.0807,-3.45034 0.84273,-4.37377 0.78718,-0.78718 2.30262,-5.19209 3.36765,-9.78869 3.48091,-15.02346 6.20312,-28.62651 6.8125,-34.04254 0.32891,-2.92321 0.97575,-5.79848 1.43743,-6.38949 0.46167,-0.59101 1.52383,-4.3282 2.36035,-8.30486 0.83651,-3.97666 3.06194,-13.6181 4.94539,-21.42543 1.88346,-7.80733 4.57555,-19.14514 5.98242,-25.19514 10.72505,-46.12101 12.59756,-54.46721 12.59756,-56.15016 0,-1.04795 -0.9,-2.67596 -2,-3.61781 -2.69149,-2.30452 -2.52591,-3.09505 0.92075,-4.39602 2.16799,-0.81832 3.19747,-2.09904 3.99443,-4.96923 2.08998,-7.52699 0.85674,-8.8712 -7.5105,-8.18637 -3.63821,0.29778 -4.08849,0.69493 -6.59813,5.81959 -1.62745,3.32326 -2.47653,6.38454 -2.14536,7.73497 0.42042,1.71438 -0.0171,2.44987 -1.8785,3.15755 -1.64929,0.62706 -3.33457,2.95425 -5.26112,7.26503 -1.559,3.48835 -5.95614,12.86745 -9.77144,20.84245 -3.81529,7.975 -9.76736,20.575 -13.22682,28 -3.45946,7.425 -10.76934,22.725 -16.24418,34 -13.05241,26.8804 -13.02874,26.826 -13.78091,31.67166 -0.35615,2.29442 -1.25865,4.40617 -2.00555,4.69278 -3.22615,1.23799 -13.49267,19.81463 -13.49267,24.41416 0,2.08239 -0.56923,3.13699 -1.87794,3.47923 -1.21921,0.31883 -2.48769,2.37666 -3.61627,5.86663 -0.95609,2.95655 -4.10509,10.77554 -6.99779,17.37554 -2.8927,6.6 -6.02238,14.25 -6.95486,17 -0.93247,2.75 -3.18766,7.25 -5.01152,10 -3.12992,4.71925 -20.45965,40.40679 -21.97323,45.25 -0.42728,1.36721 -0.28438,2.25 0.36422,2.25 0.58707,0 1.06739,-0.68912 1.06739,-1.53138 0,-0.84227 0.675,-1.79041 1.5,-2.10699 0.825,-0.31659 1.5,-1.12402 1.5,-1.7943 0,-1.79255 4.10691,-5.21221 7.10965,-5.91992 1.90739,-0.44955 3.11763,-0.0538 4.49735,1.47082 1.58218,1.74829 1.96905,4.2009 2.39035,15.1538 0.3126,8.12693 0.91518,13.20417 1.59371,13.42829 0.60008,0.19821 2.85008,-1.45287 5,-3.66908 6.71978,-6.92697 9.26659,-3.72976 2.92788,3.6756 -3.91147,4.56968 -7.09088,5.78661 -11.11805,4.25548 -4.62414,-1.7581 -5.28557,-3.61316 -5.30219,-14.87065 -0.0172,-11.65018 -1.0496,-14.13897 -3.80532,-9.17342 -3.23952,5.83731 -3.81578,6.36811 -6.11958,5.63691 -1.19559,-0.37946 -2.18069,-1.44711 -2.18911,-2.37255 -0.0132,-1.45184 -0.14826,-1.47689 -0.98469,-0.18261 -1.59501,2.4681 -1.13544,4 1.2,4 1.71111,0 1.93333,0.26667 1,1.2 -2.78704,2.78704 -1.02104,8.70539 5.81333,19.48207 3.51353,5.54027 3.64062,6.31793 1.03248,6.31793 -1.17482,0 -3.34613,-1.89441 -5.44429,-4.75 -1.91955,-2.6125 -4.45722,-5.99696 -5.63927,-7.52102 l -2.14918,-2.77101 -2.90653,4.01236 c -1.5986,2.20679 -2.90654,4.46495 -2.90654,5.01813 0,0.55318 1.56691,2.74016 3.48203,4.85997 1.91511,2.1198 3.19011,4.1461 2.83333,4.50288 -1.37717,1.37717 -3.54002,0.52615 -6.27608,-2.46944 -1.59033,-1.74119 -3.34615,-2.81025 -3.9761,-2.42092 -1.94832,1.20413 -31.09239,61.04437 -31.03495,63.72272 0.0155,0.72398 -1.42622,4.06909 -3.20387,7.43357 -3.09229,5.85262 -3.17398,6.29337 -1.88836,10.18884 1.27342,3.8585 1.15713,7.34346 -0.50166,15.03423 -0.66764,3.09541 -0.54501,3.3224 1.6726,3.0959 1.31618,-0.13442 3.61666,0.0952 5.11216,0.51035 1.99086,0.5526 3.62944,0.19213 6.11804,-1.34591 4.26031,-2.63301 7.10091,-2.6626 9.66286,-0.10065 3.97168,3.97168 1.66753,13.96436 -4.18006,18.12822 -2.79873,1.99286 -2.85468,2.17591 -1.21791,3.98452 4.24544,4.69116 13.99236,4.13895 21.57555,-1.22237 l 3.32242,-2.34895 -1.60524,2.47929 c -0.88288,1.36361 -3.35788,3.47827 -5.5,4.69925 -8.41573,4.79686 -18.23552,3.84926 -24.05509,-2.32128 l -3.18702,-3.37923 -3.16035,3.99028 c -2.84618,3.59359 -6.9923,5.41518 -6.9923,3.07206 0,-1.97518 1.27498,-4.08179 2.47043,-4.08179 1.92029,0 6.70446,-11.50855 6.34189,-15.25573 -0.3356,-3.46852 -2.09354,-4.39247 -6.33287,-3.32847 -2.27011,0.56976 -2.33992,0.86057 -1.78771,7.44723 0.41218,4.91654 0.22267,7.07183 -0.67036,7.62375 -1.56775,0.96893 -2.98587,-1.17303 -3.00607,-4.54044 -0.008,-1.40451 -1.18821,-4.90735 -2.62175,-7.7841 -2.00189,-4.01726 -2.90448,-4.9831 -3.89137,-4.16406 -1.12456,0.93331 -9.50219,17.18516 -9.50219,18.43341 0,0.25999 -3.825,8.35181 -8.5,17.98181 -4.675,9.63 -8.5,17.92141 -8.5,18.42541 0,1.8376 -3.01769,3.5435 -4.1916,2.3696 -0.80913,-0.8091 0.71505,-4.819 5.66647,-14.90763 7.33234,-14.93982 9.15954,-18.87659 12.67131,-27.30078 1.26102,-3.025 4.19304,-9.19814 6.5156,-13.7181 3.41294,-6.64196 4.11342,-8.8923 3.65236,-11.73348 -0.74494,-4.59056 1.04923,-8.74114 4.71445,-10.90623 3.8011,-2.24537 8.34496,-9.88986 7.4864,-12.59495 -0.43546,-1.37204 0.0977,-2.75175 1.67291,-4.32877 4.14355,-4.14843 33.84344,-66.60428 33.78185,-71.03982 -0.0166,-1.19826 -1.17556,-6.22865 -2.57539,-11.17865 -3.36958,-11.91532 -4.64677,-18.39984 -3.97094,-20.16104 0.30849,-0.8039 0.11591,-1.17228 -0.43487,-0.83188 -0.5437,0.33602 -0.98241,0.0219 -0.9749,-0.69806 0.0337,-3.22712 1.34007,-5.66826 3.30898,-6.18314 2.58988,-0.67727 6.39046,2.69355 10.82017,9.59666 1.6834,2.62334 3.42649,4.54365 3.87355,4.26736 0.44706,-0.2763 0.98425,0.0119 1.19376,0.64042 0.53718,1.61154 2.92303,-2.32812 7.04331,-11.63032 1.94892,-4.4 6.31154,-13.79301 9.69471,-20.87336 3.38317,-7.08034 6.40551,-14.14484 6.71632,-15.69888 0.31081,-1.55404 1.41345,-3.59327 2.45033,-4.53163 1.03687,-0.93836 1.88522,-2.30359 1.88522,-3.03384 0,-1.14684 12.54473,-27.15895 18.01852,-37.36229 3.8542,-7.18435 9.00008,-17.97315 11.03514,-23.13612 1.91825,-4.86665 2.50933,-7.37039 2.83232,-11.99725 0.0627,-0.89835 1.02796,-1.87237 2.14499,-2.16448 1.47331,-0.38528 4.52567,-5.70299 11.11641,-19.36663 4.99698,-10.35954 12.24112,-25.36052 16.09808,-33.33552 8.84723,-18.29332 27.73139,-58.00492 32.51853,-68.38337 l 3.63627,-7.88338 -2.20013,-6.30404 c -1.21007,-3.46722 -2.20013,-6.80876 -2.20013,-7.42564 0,-2.25093 2.21518,0.33262 4.14465,4.83387 l 1.97912,4.61712 1.61031,-3.47728 c 0.88567,-1.9125 4.00782,-8.32943 6.93812,-14.25984 2.93029,-5.9304 5.3278,-11.43135 5.3278,-12.22432 0,-0.79297 -1.4625,-2.18997 -3.25,-3.10445 -9.40993,-4.81411 -20.10963,-15.21005 -23.86959,-23.19196 -2.59177,-5.50198 -3.24962,-6.22513 -5.17482,-5.68843 -8.74075,2.43672 -39.58477,13.01399 -41.1781,14.12112 -1.08487,0.75383 -3.05859,1.3706 -4.38604,1.3706 -2.5846,0 -56.45327,17.2589 -92.64145,29.68126 -18.17283,6.23821 -49.90197,16.97357 -111.500002,37.72534 -31.456797,10.59749 -42.21984,14.1608 -54.25,17.96051 -13.56462419,4.28437 -13.75000018,4.313 -13.75000018,2.12376 0,-2.51787 -0.59382982,-2.26889 25.00000018,-10.48207 9.075,-2.91221 27.3,-9.02641 40.5,-13.58712 13.2,-4.56071 32.775,-11.18207 43.500002,-14.71412 10.725,-3.53206 39.75,-13.17467 64.5,-21.42802 24.75,-8.25336 55.125,-18.27136 67.5,-22.26224 12.375,-3.99087 22.65,-7.65239 22.83333,-8.13671 0.18334,-0.48433 1.53334,-0.88129 3,-0.88214 1.46667,-8.6e-4 4.20464,-0.78836 6.08438,-1.75 3.86406,-1.97679 4.90994,-4.63479 6.98374,-17.74845 0.69582,-4.4 1.65752,-10.25 2.1371,-13 0.47958,-2.75 1.14195,-11.525 1.47193,-19.5 1.07592,-26.00321 1.51286,-28.25552 7.92474,-40.85074 3.88036,-7.62242 11.37458,-13.13913 17.85762,-13.14552 3.12038,-0.003 4.64877,0.79688 8.62048,4.51195 10.94465,10.23744 13.00593,22.31183 8.96224,52.49837 -2.34975,17.54111 -2.76755,27.54815 -1.21028,28.9886 0.4591,0.42466 7.80972,-1.44619 16.33472,-4.15745 23.55243,-7.49052 26.44379,-8.65997 27.52993,-11.13484 0.85755,-1.95397 1.72405,-2.21059 7.47007,-2.21227 5.53442,-0.002 10.39947,-1.31887 32.75,-8.86738 21.49589,-7.25987 26.25,-9.19576 26.25,-10.68909 0,-1.00298 -0.45,-2.10171 -1,-2.44163 -0.55,-0.33992 -1.00767,-1.60398 -1.01705,-2.80902 -0.0331,-4.25264 -7.0893,-14.44046 -13.20992,-19.07261 -6.17748,-4.67519 -22.03702,-6.82249 -31.173,-4.22066 -2.80502,0.79884 -7.63067,1.7559 -10.72368,2.1268 -5.1415,0.61655 -5.76308,0.47529 -7.25,-1.64758 -1.93535,-2.76311 -2.06817,-6.67023 -0.41438,-12.19009 0.87972,-2.93624 3.41554,-6.173 9.25,-11.80685 4.42092,-4.2689 9.90274,-9.10648 12.18184,-10.75017 4.64117,-3.34721 7.40199,-6.78903 6.81389,-8.49462 -0.40643,-1.17871 12.19449,-11.91155 22.89115,-19.49756 3.38313,-2.3993 10.20115,-6.32622 15.15115,-8.72649 l 9,-4.36413 20,-1.34239 c 11,-0.73832 20.21197,-1.17443 20.47104,-0.96914 0.25907,0.20529 -0.19093,0.7919 -1,1.30357 -1.26979,0.80304 -1.25572,0.93241 0.10282,0.94563 2.32612,0.0226 22.15476,-3.00795 22.96765,-3.51034 0.59028,-0.36482 3.64996,-0.82198 12.95849,-1.93623 0.825,-0.0987 2.175,-0.45428 3,-0.79006 2.58373,-1.05158 18.20277,-3.87863 18.69721,-3.38419 0.49708,0.49709 8.92964,-2.2213 14.49957,-4.67421 4.53638,-1.99775 23.62616,-8.39378 27.30322,-9.14795 1.65,-0.33842 7.05,-1.89315 12,-3.45495 19.56765,-6.17392 49.94241,-14.58065 67,-18.54338 10.90282,-2.53289 19.13333,-4.66776 35.45677,-9.19693 4.65122,-1.29055 8.81372,-2.34645 9.25,-2.34645 0.43628,0 0.79323,1.1801 0.79323,2.62244 0,2.08763 -0.2752,2.39405 -1.34943,1.50252 -1.00628,-0.83513 -2.59562,-0.72735 -6.25,0.42384 -2.69531,0.84908 -5.92394,1.75871 -7.17472,2.02142 -1.25078,0.26271 -5.75078,1.5629 -10,2.88931 -8.57726,2.67742 -45.18622,12.1648 -52.22585,13.53456 -11.41761,2.22162 -55.01749,15.69163 -66.83377,20.64803 -4.58358,1.9226 -11.78358,4.09017 -16,4.81682 -14.1521,2.43893 -38.55566,6.49486 -51.66623,8.58706 -7.15,1.141 -17.20114,3.19704 -22.33587,4.56898 -11.3126,3.02261 -14.66196,2.62133 -4.15366,-0.49763 4.11924,-1.22263 8.61453,-2.61367 9.98953,-3.09121 2.31574,-0.80425 2.24203,-0.87004 -1,-0.89265 -1.925,-0.0134 -9.8,0.34794 -17.5,0.80303 -13.87848,0.82025 -14.08246,0.86725 -23.5,5.41475 -10.56328,5.10075 -23.81827,14.80188 -25.76878,18.85979 -1.22017,2.53848 -7.51322,8.36587 -25.09056,23.23394 -11.79146,9.974 -16.80104,18.74824 -14.62271,25.61157 0.60729,1.91338 1.15612,2.06943 5.16415,1.46839 2.46656,-0.36988 6.30371,-1.31431 8.527,-2.09874 8.72139,-3.07708 24.03458,-0.95982 33.12618,4.58015 5.8544,3.56739 12.16636,11.54854 16.01415,20.24908 1.39728,3.1595 2.93985,5.74455 3.42793,5.74455 0.48807,0 10.75034,-3.31826 22.80503,-7.37391 19.49595,-6.55918 69.54072,-22.99572 137.91761,-45.29721 30.62594,-9.98882 129.75086,-43.18685 193,-64.63783 12.1,-4.10373 23.2375,-8.03524 24.75,-8.7367 3.16114,-1.46606 3.10431,-0.82986 1.73791,-19.45435 -1.36483,-18.60311 1.80415,-56.54255 6.22279,-74.5 3.50255,-14.23444 13.72116,-34.51543 33.6664,-66.81807 8.33646,-13.50144 30.18833,-36.1926 40.24353,-41.7892 14.50772,-8.07482 37.43839,-13.90869 60.37937,-15.36131 15.36343,-0.97282 21.00957,-0.28406 28.5,3.47664 2.475,1.24261 7.2,2.95551 10.50003,3.80643 18.3961,4.74356 18.5663,4.76208 21.0387,2.28971 1.0516,-1.05168 2.2015,-1.26656 3.7399,-0.69889 1.7355,0.64038 2.3598,1.8888 2.8542,5.70719 0.348,2.68812 2.5066,9.56193 4.7968,15.27512 2.2902,5.71319 4.0274,11.09706 3.8604,11.96415 -0.167,0.86709 -2.0702,-2.79484 -4.2295,-8.13762 -2.1592,-5.34278 -4.1146,-9.71415 -4.3453,-9.71415 -0.2306,0 -0.086,11.58165 0.3207,25.73699 0.6838,23.77751 0.6154,25.6335 -0.8979,24.37756 -1.3562,-1.12554 -1.6427,-3.53205 -1.6652,-13.98699 -0.015,-6.94516 -0.4357,-19.29709 -0.9349,-27.44875 -0.8284,-13.52832 -1.1095,-15.02103 -3.2227,-17.11216 -1.2734,-1.26004 -3.8902,-2.57238 -5.8152,-2.91631 -1.925,-0.34392 -5.975,-1.03407 -9,-1.53366 -5.1624,-0.85258 -10.31244,-2.48762 -21.00003,-6.6671 -9.93699,-3.88596 -36.93637,-2.36511 -54.66212,3.07906 -2.66083,0.81723 -7.67694,2.15729 -11.14691,2.97792 -3.46996,0.82062 -10.21175,3.40485 -14.98174,5.74274 -7.39886,3.62635 -9.99734,5.63786 -17.69098,13.69477 -4.96004,5.19423 -11.3291,11.78039 -14.15348,14.6359 -4.22537,4.27196 -12.36477,16.13566 -12.36477,18.02247 0,0.2724 -1.74042,3.06079 -3.8676,6.19642 -3.55131,5.23491 -11.26016,18.50131 -16.74581,28.81841 -2.90697,5.46725 -9.04617,21.88154 -10.28389,27.49586 -1.69529,7.68989 -4.26725,28.88196 -5.46779,45.0529 -1.5953,21.48809 -0.10217,44.83397 2.86745,44.83397 0.72961,0 15.20255,-4.69328 32.1621,-10.42952 16.95955,-5.73623 70.66054,-23.54419 119.33554,-39.57324 48.67503,-16.02905 89.73753,-29.61536 91.25003,-30.1918 1.5125,-0.57645 2.75,-1.69701 2.75,-2.49013 0,-0.79313 -1.8357,-5.91882 -4.0794,-11.39042 -2.2437,-5.4716 -3.8701,-10.50558 -3.6142,-11.18662 0.4135,-1.10033 3.6225,5.16532 9.225,18.01173 1.0194,2.3375 2.3422,4.25 2.9395,4.25 2.7371,0 71.1566,-23.30191 72.1393,-24.5688 0.6107,-0.78716 2.3093,-1.4312 3.7748,-1.4312 3.5019,0 4.2267,2.06814 5.4984,15.688 0.5605,6.00309 1.5088,13.09996 2.1074,15.77084 1.6458,7.34378 10.7433,26.13233 16.4469,33.96674 8.198,11.26062 27.3435,28.74505 44.2073,40.37189 35.9988,24.8195 38.6223,26.4388 69.855,43.11584 4.6705,2.49388 25.4235,12.08669 26.1482,12.08669 1.7858,0 20.88,13.86582 25.6018,18.59143 5.6637,5.6683 6.7336,7.68266 4.7361,8.91715 -1.149,0.71016 -3.4977,-0.53807 -31.9861,-16.99932 -11.275,-6.51496 -21.625,-12.388 -23,-13.05121 -4.5146,-2.17751 -13.3007,-6.57071 -26,-13.00037 -13.271,-6.7191 -27.5323,-11.74134 -45.5,-16.02314 -12.228,-2.91401 -20.2865,-6.01595 -34.8996,-13.43385 -8.4309,-4.27967 -14.6004,-6.20085 -14.6004,-4.54657 0,1.38429 7.5868,53.23902 11.4919,78.54588 2.5037,16.225 5.6798,37.375 7.0579,47 1.3782,9.625 2.9578,19.975 3.5103,23 0.5525,3.025 3.2487,21.7 5.9916,41.5 6.1847,44.64599 6.7292,47.61145 9.0905,49.51215 2.2125,1.78088 9.8124,18.93716 10.6262,23.98785 0.8986,5.57695 -1.7903,2.42876 -5.7283,-6.70665 -1.8478,-4.28634 -3.6635,-8.14669 -4.035,-8.57854 -1.2288,-1.42833 0.1226,10.50549 3.5426,31.28519 1.8557,11.275 4.2852,27.25 5.3989,35.5 1.1136,8.25 2.9594,19.275 4.1017,24.5 1.1423,5.225 2.067,10.4 2.0549,11.5 -0.012,1.1 0.8392,7.85 1.8919,15 3.6996,25.12875 7.9421,53.1316 9.9991,66 1.7557,10.98342 8.9913,57.71274 9.0022,58.13871 0.011,0.42938 7.986,1.4516 18.5036,2.37179 13.7598,1.20384 29.2912,3.436 38,5.46131 3.3,0.76744 7.6642,1.61816 9.6981,1.89049 4.2442,0.56823 4.4126,1.89907 -1.5888,-12.55569 -3.9213,-9.44487 -4.5378,-12.19384 -2.1911,-9.7709 1.3984,1.44386 10.5818,21.21649 10.5818,22.78347 0,0.44365 1.35,2.10002 3,3.68082 1.65,1.5808 3,3.39117 3,4.02305 0,0.63187 -1.8031,2.76749 -4.0068,4.74582 -2.2037,1.97833 -4.8877,5.65215 -5.9644,8.16405 -1.0768,2.51189 -2.4719,4.56708 -3.1003,4.56708 -0.6283,0 -0.8943,-0.64685 -0.5909,-1.43745 1.3563,-3.53443 2.7468,-9.81147 2.2775,-10.28083 -0.8109,-0.81085 -13.4131,5.39071 -17.4623,8.59315 -2.009,1.58894 -6.1278,4.33134 -9.1528,6.0942 -8.1925,4.7743 -13.6851,10.62446 -17.3983,18.53093 -1.8081,3.85 -4.0282,7.61349 -4.9336,8.36331 -0.9053,0.74982 -1.4072,1.74989 -1.1151,2.22237 0.292,0.47249 -0.7003,3.459 -2.205,6.6367 -3.4011,7.1825 -3.5606,14.14621 -0.4212,18.39242 1.9516,2.6398 2.0328,3.37859 1.0478,9.5439 -0.5871,3.67543 -1.3103,7.07551 -1.6071,7.55572 -0.5254,0.85008 1.0073,13.23311 4.3322,35.00015 l 1.6366,10.71458 2.5494,-2.71458 c 3.4622,-3.68655 3.8697,-1.40022 1.2577,7.05657 -1.9639,6.35824 -1.9642,6.50129 -0.046,20.31609 1.0621,7.65207 2.236,14.58778 2.6085,15.41278 0.3726,0.825 0.7435,2.85 0.8243,4.5 0.2202,4.4941 2.257,18.8411 4.1085,28.9388 1.5299,8.3438 2.1322,9.6686 9.0495,19.9042 4.0758,6.031 11.7759,17.0311 17.1114,24.4448 5.3355,7.4136 13.9759,19.4531 19.2009,26.7545 5.225,7.3014 12.1315,16.9348 15.3478,21.4075 3.2163,4.4727 6.8424,8.784 8.0581,9.5805 1.2482,0.8179 8.0617,2.104 15.6522,2.9546 7.3931,0.8284 16.1419,1.9556 19.4419,2.5049 3.3,0.5492 8.1012,1.0012 10.6694,1.0044 l 4.6694,0.01 -0.9538,-3.75 c -0.5246,-2.0625 -1.6919,-5.1 -2.594,-6.75 -2.0482,-3.7464 -13.2947,-17.5 -14.31,-17.5 -0.8345,0 -14.2883,-15.4478 -14.8143,-17.01 -0.1966,-0.5838 1.855,-0.9243 5,-0.83 3.5881,0.1077 4.2698,0.2921 2.0833,0.5634 -1.7875,0.2218 -3.25,0.8883 -3.25,1.481 0,1.7209 7.0703,10.5173 10.9767,13.6567 1.9661,1.5799 5.5739,5.52 8.0176,8.7557 2.4436,3.2358 5.9001,7.5504 7.681,9.5881 1.781,2.0378 4.176,5.5434 5.3223,7.7903 2.2856,4.4803 4.0542,5.464 11.5175,6.4058 2.7417,0.3459 8.1349,1.0754 11.9849,1.6209 3.85,0.5456 14.4884,1.9052 23.641,3.0215 9.1525,1.1162 17.4969,2.1943 18.5431,2.3958 1.0461,0.2014 5.0326,0.6651 8.859,1.0304 11.8446,1.1307 20.5988,2.339 21.1836,2.9237 1.6202,1.6203 -4.2059,1.6813 -15.5336,0.1626 -6.9812,-0.936 -16.5181,-1.8868 -21.1931,-2.113 -4.675,-0.2261 -10.75,-0.8697 -13.5,-1.4301 -2.75,-0.5603 -7.25,-1.2521 -10,-1.5373 -2.75,-0.2851 -9.275,-0.9989 -14.5,-1.5861 -10.9324,-1.2288 -14.8616,-1.3612 -15.6939,-0.5288 -0.3244,0.3244 -0.014,3.3016 0.6889,6.6159 0.861,4.0571 1.0517,9.048 0.5836,15.2748 -0.6354,8.4532 -2.2308,18.0786 -2.4762,14.9397 -0.056,-0.72 -0.5052,-1.0601 -0.9976,-0.7558 -1.5888,0.982 -2.0602,-2.2758 -1.4022,-9.6895 1.0271,-11.5709 0.7648,-17.13 -1.0859,-23.0139 -1.9008,-6.0432 -3.1359,-6.7318 -12.075,-6.7318 -2.3146,0 -4.5214,-0.313 -4.904,-0.6956 -0.84,-0.84 -2.3387,-1.1025 -10.1377,-1.7756 -3.3,-0.2848 -9.15,-0.8279 -13,-1.207 -6.6041,-0.6502 -9.5283,-0.5881 -10.3635,0.2201 -0.1999,0.1935 3.0626,5.1553 7.25,11.0262 7.3279,10.274 8.5148,12.4319 6.8376,12.4319 -0.7653,0 -7.8508,-8.9151 -15.7992,-19.8789 -3.839,-5.2953 -4.4186,-5.6882 -10,-6.7788 -11.6525,-2.2768 -43.6811,-5.4861 -44.6894,-4.4778 -0.6361,0.6361 0.1445,8.2327 2.2368,21.7676 3.7949,24.5491 4.8551,36.4074 3.1089,34.7737 -0.6433,-0.6018 -2.6822,-10.7329 -4.531,-22.5135 -5.7951,-36.9272 -5.3175,-35.4249 -11.5519,-36.3349 -16.3861,-2.392 -49.1987,-6.2807 -60.1597,-7.1297 l -8.6615,-0.6709 -1.6609,3.2119 c -0.9135,1.7665 -1.408,3.8708 -1.0989,4.6763 0.3091,0.8055 -0.6176,4.2524 -2.0593,7.6598 -4.9034,11.5892 -7.4161,20.1796 -8.3932,28.6952 -0.5364,4.675 -1.6264,13 -2.4221,18.5 -0.7956,5.5 -3.726,28.225 -6.5119,50.5 -2.7859,22.275 -5.7988,46.125 -6.6954,53 -0.8965,6.875 -1.6762,16.8858 -1.7327,22.2463 -0.056,5.3605 -0.369,9.748 -0.6944,9.75 -0.3255,0 -1.131,1.8037 -1.7902,4.0037 -1.246,4.159 -3.0101,5.04 -5.0852,2.5396 -0.8792,-1.0593 -0.9815,-3.3249 -0.3725,-8.25 0.4618,-3.7343 0.5448,-12.4146 0.1844,-19.2896 -0.7908,-15.0867 -1.7523,-43.8575 -2.306,-69 -0.224,-10.175 -0.4369,-18.6125 -0.4731,-18.75 -0.4136,-1.5735 -2.4727,1.4629 -6.7813,10 -12.8368,25.435 -26.9992,54.3007 -32.3213,65.877 l -5.8052,12.627 -0.7806,28.373 c -0.9986,36.2988 -0.9828,53.6539 0.052,57.1741 0.658,2.2384 0.3732,3.2803 -1.4178,5.1867 -1.8239,1.9415 -2.5759,2.1767 -4.0385,1.2633 -2.4288,-1.5168 -3.2739,-6.3321 -1.5896,-9.0573 1.0152,-1.6426 1.408,-7.7212 1.5633,-24.1938 0.1141,-12.1 0.3844,-26.5 0.6006,-32 0.2163,-5.5 0.014,-10.609 -0.45,-11.3534 -0.5904,-0.9477 -2.7907,2.1993 -7.3412,10.5 -3.5739,6.5194 -6.7986,12.8253 -7.1658,14.0131 -0.7282,2.3551 -3.5903,5.2151 -3.5903,3.5876 0,-1.1428 4.1201,-10.2856 12.7293,-28.2473 5.4249,-11.3181 6.051,-13.3037 6.6225,-21 1.0651,-14.3451 1.6075,-32.7779 2.2215,-75.5 0.324,-22.55 0.7854,-46.4 1.0253,-53 0.2399,-6.6 0.6821,-21.7315 0.9826,-33.6256 l 0.5464,-21.6255 -2.3138,-0.5487 c -2.2949,-0.5441 -8.3725,-1.1326 -22.8138,-2.2092 -4.125,-0.3075 -9.975,-0.9678 -13,-1.4672 -3.025,-0.4995 -10.225,-1.4227 -16,-2.0516 -5.775,-0.6289 -11.4667,-1.2918 -12.6483,-1.4732 -1.1816,-0.1813 -4.7816,-0.6291 -8,-0.995 -8.431,-0.9587 -40.7859,-5.3566 -47.8995,-6.5108 -3.3263,-0.5397 -11.20134,-1.4361 -17.50004,-1.9919 -6.29871,-0.5559 -14.82719,-1.4357 -18.95219,-1.9553 -23.16435,-2.9178 -48.01328,-6.1966 -51.5,-6.7955 -2.2,-0.3779 -6.21475,-0.7013 -8.92167,-0.7188 -4.6232,-0.03 -4.97333,0.1502 -5.77335,2.9683 -0.46843,1.65 -0.95367,5.6577 -1.07833,8.906 -0.18915,4.929 -0.53904,5.9517 -2.11491,6.1818 -1.77941,0.2599 -1.84949,-0.2871 -1.21571,-9.4891 l 0.67255,-9.765 -6.78429,-1.1933 c -8.13238,-1.4304 -32.40152,-4.7815 -40.78429,-5.6315 -3.3,-0.3346 -8.925,-1.0566 -12.5,-1.6044 -3.575,-0.5478 -10.55,-1.3949 -15.5,-1.8825 -4.95,-0.4876 -13.05,-1.5726 -18,-2.4112 -8.7985,-1.4906 -44.31718,-6.5958 -46.10014,-6.6261 -0.49492,-0.01 -0.34631,-0.367 0.33025,-0.7967 1.06182,-0.6745 14.8303,0.4099 27.76989,2.1871 9.16878,1.2593 24.10031,2.7628 25.01524,2.5188 0.54162,-0.1445 3.45976,0.2333 6.48476,0.8394 3.025,0.6062 11.8,1.853 19.5,2.7707 7.7,0.9177 19.625,2.4992 26.5,3.5144 17.6605,2.6078 33.87837,4.4366 34.43223,3.8827 0.25903,-0.259 1.39425,-11.7052 2.52272,-25.436 1.12846,-13.7308 2.2797,-26.5401 2.55829,-28.4651 0.27859,-1.925 1.85885,-19.925 3.5117,-40.00001 1.65284,-20.075 3.44612,-40.775 3.98507,-46 1.34634,-13.06165 3.98949,-43.92819 3.98949,-46.5991 0,-2.07432 -0.55159,-2.21858 -10.75,-2.81157 -5.9125,-0.34378 -25.6,-1.0702 -43.75,-1.61426 -18.15,-0.54406 -35.475,-1.19691 -38.5,-1.45078 -3.025,-0.25386 -15.85,-0.71038 -28.5,-1.0145 -12.65,-0.30411 -32.225,-1.04967 -43.5,-1.65681 -17.46989,-0.94072 -21.11128,-0.88705 -24.63555,0.36307 -4.19243,1.48713 -10.36445,1.28838 -10.36445,-0.33375 0,-1.47777 -3.66745,-0.99212 -5.04531,0.6681 -2.25615,2.71849 -4.93393,3.70752 -6.50588,2.40292 -0.78284,-0.6497 -2.19134,-0.88656 -3.13001,-0.52636 -1.60461,0.61574 -1.60537,0.54298 -0.0127,-1.21687 0.93166,-1.02947 1.69393,-2.51584 1.69393,-3.30303 0,-0.7872 -3.6,-5.64148 -8,-10.78729 -4.4,-5.14581 -8,-9.75381 -8,-10.24 0,-2.19213 2.41074,-0.28854 9.64509,7.61603 5.1052,5.57817 8.51244,8.5 9.91211,8.5 1.17306,0 2.90671,0.85514 3.85258,1.90031 2.95123,3.26107 5.11317,3.06891 11.23867,-0.99889 8.43206,-5.59954 20.93572,-10.66998 29.44865,-11.94192 4.0716,-0.60835 8.9779,-1.49707 10.9029,-1.97493 1.925,-0.47787 5.525,-1.13393 8,-1.45792 8.11585,-1.0624 10.36408,-1.61643 22.5,-5.54458 6.6,-2.13629 16.5,-4.6303 22,-5.54225 5.5,-0.91195 11.25579,-2.04195 12.79064,-2.51111 1.53486,-0.46915 12.10986,-0.87122 23.5,-0.89347 14.24923,-0.0278 22.73699,-0.49097 27.20936,-1.48465 3.575,-0.7943 11.45,-2.54504 17.5,-3.89052 6.05,-1.34548 13.75224,-2.99312 17.1161,-3.66143 7.99649,-1.58868 8.43353,-1.92952 9.10962,-7.10452 0.96077,-7.35409 4.27428,-7.67847 4.27428,-0.41844 0,5.03319 0.67709,5.45571 6.93855,4.32981 2.5088,-0.45112 12.88645,-1.24715 23.06145,-1.76896 22.3513,-1.14625 38.76318,-2.55454 45.5,-3.90432 2.75,-0.55099 10.85,-1.26743 18,-1.59209 17.4921,-0.79426 44.7123,-4.05193 63,-7.53972 8.25,-1.57343 17.25,-3.12647 20,-3.4512 9.8068,-1.15803 17.5,-2.93364 17.5,-4.03907 0,-0.61762 -2.2807,-4.36007 -5.0682,-8.31654 -2.7874,-3.95648 -4.8485,-7.19359 -4.5802,-7.19359 0.2684,0 2.8478,3.2625 5.7322,7.25 2.8843,3.9875 5.6795,7.53805 6.2114,7.89011 0.532,0.35207 3.5557,-0.23402 6.7194,-1.30242 l 5.7522,-1.94253 0.6089,-11.19758 c 0.6538,-12.02165 1.4085,-36.77993 2.1247,-69.69758 0.2453,-11.275 0.9107,-40.075 1.4787,-64 0.5679,-23.925 1.2483,-53.4 1.5118,-65.5 0.2636,-12.1 0.7062,-29.2 0.9835,-38 0.2774,-8.8 0.779,-32.875 1.1148,-53.5 0.3357,-20.625 0.7476,-39.3 0.9153,-41.5 0.1676,-2.2 0.5841,-21.55 0.9254,-43 0.3414,-21.45 0.8207,-41.925 1.0653,-45.5 0.2445,-3.575 0.744,-21.8354 1.1098,-40.57866 l 0.6652,-34.07866 -8.8851,-3.13972 c -11.5188,-4.07036 -19.1253,-5.87381 -28.3851,-6.72989 -7.5479,-0.69781 -14,-2.64359 -14,-4.22204 0,-0.46807 0.4883,-1.33932 1.0851,-1.93613 0.7801,-0.78013 0.6347,-1.95603 -0.5174,-4.18395 -3.768,-7.28648 -11.2877,-27.18598 -10.4652,-27.69429 1.2355,-0.76362 2.8975,0.39742 2.8975,2.02421 0,0.73856 1.9886,5.9995 4.4192,11.69098 2.4306,5.69148 4.7271,11.57659 5.1034,13.07802 0.6052,2.41515 0.9273,2.59973 2.7934,1.60102 2.0732,-1.10958 2.08,-1.08424 0.3966,1.48495 -0.9419,1.43759 -1.7126,2.8106 -1.7126,3.05115 0,1.03666 6.6806,2.63301 11.019,2.63301 2.5962,0 7.5377,0.9 10.981,2 3.4433,1.1 7.0174,2 7.9424,2 0.9251,0 3.4619,0.86 5.6375,1.91111 2.1755,1.05111 5.5714,2.21426 7.5464,2.58477 3.5461,0.66525 3.5985,0.62576 4.1923,-3.16111 0.3307,-2.10912 0.8566,-20.25977 1.1687,-40.33477 l 0.5675,-36.5 -1.9715,4 c -1.0843,2.2 -4.2165,9.05685 -6.9604,15.23746 -4.6879,10.55942 -8.3733,16.31326 -14.0296,21.9037 -2.4536,2.42497 -4.2093,2.56583 -2.1765,0.17463 1.8516,-2.17821 7.5073,-9.97328 8.6725,-11.95311 0.5991,-1.01796 1.4587,-1.51599 1.9103,-1.10675 0.4516,0.40924 0.5244,0.22535 0.1618,-0.40863 -0.3625,-0.63399 0.8615,-4.90899 2.72,-9.5 7.3083,-18.05291 9.5299,-24.33466 8.839,-24.99346 -0.6556,-0.62507 -29.6658,7.8483 -41.7204,12.18576 -2.75,0.98951 -9.05,3.0435 -14,4.56443 -4.95,1.52093 -9.9792,3.62937 -11.176,4.68542 -1.1968,1.05605 -2.6037,1.6557 -3.1266,1.33257 -0.8314,-0.51384 -8.9185,1.37452 -13.1974,3.08162 -0.825,0.32914 -1.95,0.71416 -2.5,0.8556 -0.55,0.14143 -2.8,1.02793 -5,1.96998 -2.2,0.94205 -8.05,2.96867 -13,4.5036 -9.3651,2.904 -33.5203,11.32643 -37,12.90116 -1.1,0.4978 -8.93398,3.07853 -17.40884,5.73494 -11.23359,3.52114 -15.53288,5.30421 -15.86663,6.58047 -0.51107,1.95434 -1.35853,2.20568 -2.77453,0.82288 -0.58669,-0.57294 -4.5831,0.21579 -10.45,2.06241 -21.8855,6.8885 -60.72742,19.43562 -77.5,25.03483 -9.9,3.30494 -18.45,6.09397 -19,6.19785 -0.55,0.10389 -1.45,0.45502 -2,0.78031 -0.55,0.32529 -6.798,2.46937 -13.88443,4.76463 -19.80079,6.41337 -19.61599,6.31174 -19.61321,10.78667 0.003,5.17762 3.52336,28.67818 6.03667,40.30103 1.12985,5.225 3.12232,15.35 4.42772,22.5 5.0908,27.88377 6.53725,33.15559 19.34328,70.5 2.16895,6.325 6.22086,16.225 9.00425,22 14.81952,30.74767 65.11132,82.52052 90.85901,93.53473 3.20469,1.37088 6.62421,2.94644 7.59892,3.50124 3.17771,1.80871 12.05547,4.81171 20.52617,6.94319 6.6212,1.6661 9.04652,1.88035 12,1.06006 6.61462,-1.83712 7.93332,-1.13491 2.70162,1.43865 -6.08406,2.99285 -6.36149,3.00264 -16.49666,0.58192 -9.72739,-2.32332 -16.27062,-4.6886 -21.00334,-7.59239 -1.925,-1.18109 -4.85,-2.46134 -6.5,-2.84499 -1.65,-0.38365 -8.175,-4.16814 -14.5,-8.40998 -8.50961,-5.70694 -14.98724,-11.22289 -24.91071,-21.21243 -21.33427,-21.47632 -30.09872,-31.27033 -36.99608,-41.34205 -1.82378,-2.66313 -4.65256,-6.36436 -6.28619,-8.22497 -6.17899,-7.03747 -14.78148,-26.18629 -23.33059,-51.93298 -8.04411,-24.22582 -10.72921,-34.66431 -15.94835,-62 -1.36514,-7.15 -3.40706,-17.49785 -4.53762,-22.99523 -1.13055,-5.49737 -2.98305,-16.07237 -4.11666,-23.5 -1.13361,-7.42762 -2.35646,-13.80464 -2.71745,-14.17114 -0.36099,-0.3665 -11.90635,3.14254 -25.65635,7.79787 -13.75,4.65532 -26.35,8.83846 -28,9.29586 -3.81232,1.05681 -31.42665,10.14287 -91.5,30.10662 -26.125,8.68194 -57.175,18.94281 -69,22.80193 -11.825,3.85913 -31.4,10.39697 -43.5,14.52855 -12.1,4.13158 -42.25,14.12049 -67,22.19757 -24.75,8.07709 -47.3625,15.56223 -50.25,16.63364 l -5.25,1.94803 0,12.48533 c 0,15.50447 -1.07776,20.03006 -6.87555,28.87097 -5.74972,8.76759 -11.26302,14.18498 -18.21138,17.89455 -2.97719,1.58946 -6.42557,3.80436 -7.66307,4.922 -1.2375,1.11764 -2.25,1.72106 -2.25,1.34092 0,-0.38014 -2.1375,0.37864 -4.75,1.68617 -2.6125,1.30753 -9.1375,3.82722 -14.5,5.59931 -5.3625,1.77209 -9.75,3.68 -9.75,4.2398 0,0.5598 2.025,3.07183 4.5,5.58229 5.18917,5.26352 5.86877,8.23496 1.88342,8.23496 -2.33576,0 -2.55106,0.29513 -2.00616,2.75 1.54252,6.9492 1.87226,12.25 0.76203,12.25 -0.62664,0 -1.13932,-0.70287 -1.13932,-1.56193 0,-0.85905 -1.19388,-4.08559 -2.65308,-7.17006 l -2.65307,-5.60815 -1.81899,2.24635 c -1.00044,1.2355 -2.30127,1.94829 -2.89073,1.58398 -0.58946,-0.3643 -1.80021,-0.0611 -2.69056,0.67372 -1.27121,1.0492 -1.70915,1.06768 -2.03952,0.0861 -0.2314,-0.6875 -1.17396,-1.25 -2.09459,-1.25 -1.36894,0 -1.609,0.81561 -1.31779,4.4771 0.28828,3.62472 -0.29737,5.67138 -3.0761,10.75 -2.34423,4.28448 -4.3069,10.23521 -6.19168,18.7729 -1.51772,6.875 -3.5901,15.875 -4.60528,20 -1.64745,6.69412 -4.6639,19.94774 -12.63149,55.5 -1.35586,6.05 -3.00776,14.02387 -3.67087,17.71971 -0.66312,3.69584 -1.7593,7.27334 -2.43596,7.95 -0.67666,0.67666 -1.24803,2.82779 -1.26971,4.78029 -0.0456,4.10731 -2.58954,16.32114 -6.31815,30.33438 -1.43187,5.3814 -2.80946,12.05189 -3.06131,14.82331 -0.25185,2.77141 -0.87833,5.56844 -1.39217,6.21562 -1.70857,2.15193 -6.40472,28.71178 -5.30989,30.03097 0.63041,0.7596 0.65995,1.76079 0.079,2.67926 -0.51012,0.80655 -0.93438,2.63422 -0.9428,4.06147 -0.008,1.42726 -0.86937,3.36792 -1.91321,4.31259 -1.04385,0.94467 -2.10944,3.15191 -2.36799,4.90499 -0.25855,1.75308 -3.23999,14.61299 -6.62543,28.57758 l -6.15535,25.39017 2.07879,10.60983 c 1.14334,5.83541 3.15599,16.00983 4.47257,22.60983 1.31657,6.6 3.32911,16.95 4.47231,23 1.14319,6.05 3.16014,15.95 4.4821,22 1.32196,6.05 2.71045,13.025 3.08553,15.5 0.37507,2.475 1.71835,7.875 2.98505,12 1.2667,4.125 2.58391,9.975 2.92713,13 1.61683,14.24987 2.82935,19.64646 5.20047,23.14584 2.51823,3.7165 6.63717,20.44016 5.50572,22.35416 -0.32513,0.55 -1.38994,-1.475 -2.36625,-4.50001 l -1.7751,-5.49999 0.59785,5 c 0.32882,2.75 1.70218,10.4 3.0519,17 2.92603,14.3079 5.90815,29.4825 10.71036,54.5 1.95314,10.175 5.33649,27.05 7.51857,37.5 2.18207,10.45 4.90606,23.725 6.0533,29.5 1.14724,5.775 2.3122,11.625 2.5888,13 0.27661,1.375 1.1571,5.2 1.95665,8.5 0.79955,3.3 2.34929,11.175 3.44386,17.5 7.98496,46.1411 11.67866,62.8729 14.35893,65.0436 1.75484,1.4212 2.16265,2.7175 2.02218,6.4281 -0.13006,3.4356 0.23784,4.8067 1.41047,5.2567 1.31864,0.506 1.23486,0.7388 -0.49637,1.3792 -2.175,0.8046 -2.17477,0.7808 -0.0906,9.1551 0.81693,3.2826 1.17791,3.6335 2.82872,2.75 2.826,-1.5124 3.30219,-1.2581 2.63348,1.4062 -0.70131,2.7943 -0.95052,2.6976 29.89029,11.5992 25.1817,7.2683 57.65109,16.7658 87,25.4481 13.75,4.0677 31.075,9.0491 38.5,11.0699 7.425,2.0209 17.775,4.9235 23,6.4503 5.225,1.5268 14.675,4.2155 21,5.9749 6.325,1.7593 18.25,5.1345 26.5,7.5004 8.25,2.3658 24.225,6.8804 35.5,10.0324 11.275,3.152 26.35,7.4386 33.5,9.5258 7.15,2.0871 16.58609,4.7622 20.96908,5.9445 4.38299,1.1823 9.33299,2.7478 11,3.4788 1.66701,0.731 6.85592,2.3358 11.53092,3.5661 4.675,1.2303 15.925,4.3758 25,6.9901 9.075,2.6143 17.4,4.9811 18.5,5.2595 1.1,0.2785 8.3,2.3822 16,4.6749 7.7,2.2927 23.45,6.8879 35,10.2116 11.55,3.3236 23.025,6.6262 25.5,7.339 2.475,0.7127 6.75,1.972 9.5,2.7983 12.9416,3.8887 109.45289,31.5695 143.5,41.1578 12.37504,3.4851 26.77504,7.5591 32.00004,9.0533 22.8861,6.5449 30.5959,8.5047 32,8.1341 1.121,-0.2959 1.0579,-0.4252 -0.25,-0.5119 -0.9625,-0.064 -1.75,-0.5335 -1.75,-1.0439 0,-0.8879 14.2665,2.5325 20.4661,4.9068 2.2268,0.8528 2.6226,1.3482 1.588,1.9876 -0.9592,0.5929 -0.037,1.133 3.0339,1.777 2.4266,0.5089 4.7495,0.7482 5.162,0.5319 0.9629,-0.5051 0.9508,-7.4517 -0.015,-8.8031 -0.4041,-0.5652 -1.8597,-1.5472 -3.2347,-2.1823 -2.0028,-0.925 -2.1288,-1.1681 -0.6334,-1.2223 1.4464,-0.053 1.7248,-0.5743 1.2365,-2.3177 -0.3466,-1.2375 -0.9103,-4.1625 -1.2526,-6.5 -0.531,-3.626 -0.9695,-4.25 -2.9864,-4.25 -2.8865,0 -2.984,0.4545 -1.877,8.75 0.6431,4.8195 0.5363,5.25 -1.3029,5.25 -1.7131,0 -2.1727,-1.0508 -3.1707,-7.25 -0.6419,-3.9875 -1.8787,-9.8795 -2.7483,-13.0934 -1.28,-4.7305 -1.3348,-5.9955 -0.2878,-6.6426 0.849,-0.5248 1.0661,-1.7808 0.6319,-3.6567 -0.5823,-2.5155 -0.027,-2.1548 4.6433,3.0158 l 5.3048,5.873 2.8056,-4.0484 c 1.543,-2.2266 3.4357,-4.2902 4.206,-4.5858 1.9105,-0.7331 3.4114,2.4089 4.1398,8.6667 0.8267,7.1022 2.8324,9.661 7.0412,8.9831 3.2245,-0.5193 3.25,-0.4911 3.25,3.5872 0,2.2609 -0.7337,5.9442 -1.6303,8.1852 -1.4933,3.732 -1.4973,4.4135 -0.047,8.1042 l 1.5828,4.0295 -2.4173,-1.5839 c -3.304,-2.1649 -3.4877,-2.068 -3.4877,1.8385 0,3.0505 0.3961,3.5532 3.6438,4.625 2.004,0.6615 4.7122,1.2026 6.0182,1.2026 1.306,0 2.5955,0.3576 2.8656,0.7947 0.2701,0.437 3.7494,1.7763 7.7318,2.9761 16.3621,4.9297 26.4234,8.1806 29.5245,9.5399 1.8062,0.7916 4.0937,1.4393 5.0834,1.4393 0.9896,0 2.1317,0.3375 2.5378,0.75 0.4061,0.4125 2.1686,1.2783 3.9167,1.9239 2.863,1.0575 2.9303,1.1691 0.6782,1.1252 -1.375,-0.027 -4.975,-0.8371 -8,-1.8005 z m -15.5801,-213.2486 c 4.0345,-8.3875 12.3926,-25.6 18.5735,-38.25 6.1809,-12.65 12.5764,-25.925 14.2122,-29.5 l 2.9742,-6.5 -0.5792,-15.5 c -0.3186,-8.525 -0.8353,-25.85 -1.1483,-38.5 -0.313,-12.65 -0.7551,-23.9276 -0.9824,-25.0613 -0.3511,-1.7514 -1.8081,-2.3067 -9.6916,-3.6941 -5.1031,-0.898 -9.9533,-1.6265 -10.7783,-1.6187 -0.825,0.01 -4.5041,-0.5284 -8.1757,-1.1914 -3.6716,-0.663 -7.3196,-0.9584 -8.1066,-0.6564 -1.5395,0.5908 -2.1752,14.3447 -3.2222,69.7219 -0.5448,28.8135 -1.1843,54.7565 -2.0878,84.7066 -0.5239,17.3651 -0.3037,21.2934 1.1935,21.2934 0.2658,0 3.7842,-6.8625 7.8187,-15.25 z m 45.2833,11 c 0.02,-0.6875 1.2136,-9.575 2.6523,-19.75 3.1262,-22.1094 8.3095,-61.5019 9.0134,-68.5 0.2766,-2.75 0.7674,-7.25 1.0906,-10 0.6554,-5.5749 0.8312,-5.8075 -4.7245,6.25 -1.5838,3.4375 -3.2972,6.25 -3.8074,6.25 -2.9705,0 2.4029,-19.2364 5.5444,-19.8484 0.9836,-0.1916 2.1306,0.2053 2.5488,0.8821 0.5424,0.8777 0.9205,0.6908 1.3184,-0.6516 0.8858,-2.9884 2.6675,-17.2128 2.5933,-20.7045 -0.074,-3.4748 0.9493,-5.3423 -13.3245,24.3224 l -6.0147,12.5 0.2013,24 c 0.2409,28.7224 1.272,64.705 1.8841,65.75 0.6387,1.0903 0.9829,0.9223 1.0245,-0.5 z m 4.5831,-115 c 10.3909,-20.9679 14.4338,-30.2178 15.615,-35.7255 1.4719,-6.8631 1.4076,-12.0039 -0.1513,-12.1078 -0.6875,-0.046 -2.375,-0.24 -3.75,-0.4314 -1.375,-0.1914 -6.8875,-0.6716 -12.25,-1.067 l -9.75,-0.7189 -0.018,8.9003 c -0.028,13.3713 2.2786,54.4003 3.0579,54.4003 0.3744,0 3.6355,-5.9625 7.2469,-13.25 z m 153.7137,-34.6586 c 0,-0.4313 -2.2421,-3.8909 -4.9823,-7.6878 -5.0602,-7.0114 -19.2577,-26.8714 -33.6054,-47.0084 -4.3518,-6.1077 -10.837,-15.302 -14.4117,-20.4319 -4.4116,-6.3309 -6.6088,-8.7591 -6.8399,-7.5592 -0.3221,1.6724 2.8916,24.4292 8.4849,60.0844 1.3795,8.7937 3.0131,16.3006 3.6303,16.682 1.4632,0.9043 12.3685,2.7921 19.5619,3.3864 3.1142,0.2572 9.9372,1.0391 15.1622,1.7375 12.589,1.6827 13,1.7079 13,0.797 z m -53.175,-8.4448 c 0.3319,-1.6996 -2.1238,-18.6944 -8.7972,-60.8804 l -3.7544,-23.7338 -5.2628,-8.0162 c -2.8945,-4.4089 -5.8766,-8.0162 -6.627,-8.0162 -1.7724,0 -21.0897,39.4773 -22.3881,45.7531 -1.9109,9.2361 -6.8566,48.7562 -6.181,49.3909 0.667,0.6265 17.1106,3.1879 28.1855,4.3904 3.025,0.3284 6.0669,0.7801 6.7597,1.0037 0.6928,0.2236 4.0678,0.6978 7.5,1.0538 3.4322,0.3559 6.3835,0.7741 6.5585,0.9292 0.958,0.8489 3.7281,-0.447 4.0068,-1.8745 z m -79.4634,-1.1466 c 0.3166,-0.825 0.1879,-1.5 -0.286,-1.5 -0.4739,0 -1.1206,0.675 -1.4372,1.5 -0.3166,0.825 -0.1879,1.5 0.286,1.5 0.4739,0 1.1206,-0.675 1.4372,-1.5 z m 23.0915,-6.75 c 0.9838,-4.5059 4.5458,-32.3892 4.5069,-35.2792 l -0.04,-2.9708 -1.6525,3 c -5.5217,10.0241 -17.1049,35.059 -16.4951,35.651 0.7072,0.6865 4.896,1.363 10.4586,1.689 2.0872,0.1223 2.8468,-0.3704 3.2222,-2.09 z m -18.5001,-2.6839 c 1.9994,-2.808 4.7575,-9.4458 5.5937,-13.4626 1.1198,-5.3784 2.8826,-9.3079 4.981,-11.1035 3.1726,-2.7148 15.4798,-28.912 15.4443,-32.875 -0.025,-2.7573 -0.3744,-2.3601 -2.972,3.375 -1.6192,3.575 -2.9566,7.0359 -2.972,7.691 -0.015,0.655 -0.5378,1.506 -1.1609,1.8911 -1.7775,1.0986 -0.1031,-9.6379 2.7147,-17.4065 1.33,-3.6668 2.4182,-6.7814 2.4182,-6.9213 0,-0.1399 0.9,-0.2543 2,-0.2543 1.1,0 2,-0.4267 2,-0.9482 0,-0.5215 1.3413,-10.9044 2.9806,-23.0731 l 2.9806,-22.1249 -8.4749,-12.67689 c -4.6613,-6.97231 -11.0827,-16.50192 -14.2698,-21.17692 -3.1871,-4.675 -13.8335,-20.425 -23.6587,-35 -9.8252,-14.575 -18.7735,-27.5125 -19.8852,-28.75 -2.286,-2.5447 -7.1394,-3.02297 -8.3729,-0.8251 -0.4398,0.78369 -0.5085,12.14619 -0.1527,25.25 0.3559,13.1038 0.9511,35.3001 1.3228,49.3251 0.3717,14.025 0.8455,28.46231 1.053,32.08301 0.2074,3.6206 0.6426,22.9706 0.9671,43 0.7387,45.5978 1.201,60.6079 1.9018,61.7417 0.3029,0.4902 6.7513,1.6563 14.3296,2.5912 12.7636,1.5747 16.7049,2.0973 18.4606,2.4479 0.3751,0.075 1.622,-1.1841 2.7711,-2.7977 z m -43.402,-3.1486 c 0.6587,-1.0658 0.6843,-46.69 0.027,-47.8314 -0.1857,-0.3223 -0.6557,-19.4861 -1.0443,-42.5861 -0.3886,-23.1 -0.8352,-43.12501 -0.9925,-44.50001 -0.1572,-1.375 -0.3433,-18.72649 -0.4135,-38.55887 -0.096,-27.1447 -0.4366,-36.46254 -1.3776,-37.69177 -0.9849,-1.28658 -3.949,-1.77887 -13.9753,-2.32113 l -12.7253,-0.68823 -0.9036,2.38 c -0.4969,1.309 -1.405,21.055 -2.018,43.88 -0.613,22.825 -1.3348,49.15001 -1.604,58.50001 -0.2692,9.35 -0.737,34.1 -1.0394,55 -0.3025,20.9 -0.7638,40.25 -1.0252,43 -0.2614,2.75 -0.055,5.6475 0.4585,6.4389 0.6443,0.9927 6.1512,2.1188 17.7581,3.6313 9.2533,1.2058 17.1351,2.2458 17.5152,2.3111 0.38,0.065 0.992,-0.3684 1.36,-0.9638 z m -41.1917,-6.6675 c 0.5648,-2.0004 1.5729,-47.0659 2.153,-96.25 0.2174,-18.42501 0.6514,-40.92501 0.9646,-50.00001 1.0549,-30.56977 1.3974,-53.99959 0.8397,-57.43653 l -0.5542,-3.4151 -7.1312,-0.57123 c -3.9222,-0.31418 -22.4312,-1.0384 -41.1312,-1.60939 -18.7,-0.57099 -39.175,-1.24889 -45.5,-1.50645 -25.6883,-1.04606 -61.45766,-2.42904 -77.00003,-2.97712 -9.075,-0.32003 -21.32468,-0.76556 -27.22151,-0.99008 -11.85025,-0.4512 -13.76812,0.28969 -13.79026,5.32733 -0.006,1.47321 -0.69548,9.65357 -1.53112,18.17857 -2.53576,25.86916 -8.26219,89.88951 -8.94471,100.00001 -0.35272,5.225 -1.04868,11.975 -1.54659,15 -0.49791,3.025 -1.11358,8.425 -1.36816,12 -0.25458,3.575 -1.18972,12.3023 -2.07809,19.394 -1.52609,12.1826 -1.39283,17.9483 0.44103,19.0816 0.75049,0.4639 6.87976,1.4719 21.53941,3.5425 3.3,0.4661 15.9,1.9852 28,3.3758 12.1,1.3905 25.375,2.9965 29.5,3.5689 28.08463,3.8968 62.85123,8.2764 76.00003,9.5738 8.525,0.8411 25.175,2.8086 37,4.3721 26.6793,3.5275 30.6936,3.6992 31.3593,1.3413 z m -54.6093,-20.125 c -1.2399,-5.5795 -0.9271,-11.125 0.6276,-11.125 0.7576,0 1.8941,0.6224 2.5255,1.3832 0.8828,1.0638 0.8081,1.5136 -0.3235,1.9479 -0.9794,0.3758 -1.5731,2.3376 -1.7755,5.8668 -0.2847,4.9631 -0.3521,5.0863 -1.0541,1.9271 z m -3.0833,-38.7917 c -1.0098,-1.0097 -0.7984,-15.3333 0.2263,-15.3333 1.4844,0 2.107,2.8313 2.107,9.5818 0,5.9212 -0.6244,7.4604 -2.3333,5.7515 z m -1.7924,-47.3333 c -1.1595,-6.4857 -1.0771,-25.60138 0.1052,-24.4198 0.6966,0.69618 0.9813,5.85105 0.8007,14.5 -0.158,7.5651 -0.5532,11.8928 -0.9059,9.9198 z m -3.2282,-63.00001 c -1.3604,-10.21004 -1.7857,-27 -0.684,-27 1.6485,0 1.8659,1.39042 2.3462,15 0.464,13.14611 -0.542,20.40816 -1.6622,12 z m -122.64613,-34 c 0,-0.55 0.19844,-1 0.44098,-1 0.24254,0 0.7191,0.45 1.05902,1 0.33992,0.55 0.14148,1 -0.44098,1 -0.58246,0 -1.05902,-0.45 -1.05902,-1 z m 312.08583,125.93451 4.3471,-9.1476 -2.0882,-3.6007 c -2.6729,-4.6088 -4.0985,-5.0428 -4.9516,-1.5072 -0.8464,3.5076 -4.5066,11.6298 -5.5757,12.3728 -1.2483,0.8675 -2.8197,10.6144 -2.7947,17.3347 l 0.023,6.1135 3.3466,-6.209 c 1.8407,-3.4149 5.3028,-10.3253 7.6938,-15.3565 z m 17.7445,-3.9345 c -0.5024,-4.125 -1.2688,-8.85 -1.7031,-10.5 l -0.7897,-3 -2.2481,4.3657 c -1.2837,2.4929 -2.0165,5.2886 -1.7082,6.5169 0.4788,1.9076 6.7312,10.9073 7.1841,10.3406 0.098,-0.1227 -0.2327,-3.5982 -0.735,-7.7232 z m -6.9026,-16.9684 3.4278,-6.9569 -1.2242,-9.35696 c -0.6733,-5.14633 -1.4957,-10.39532 -1.8276,-11.66442 l -0.6034,-2.30745 -1.9062,2.37706 -1.9062,2.37706 0.4793,-4 c 0.2637,-2.2 0.7975,-6.13758 1.1862,-8.75017 0.3887,-2.61259 0.2311,-7.33759 -0.3502,-10.5 -0.5813,-3.16241 -1.8401,-11.14892 -2.7974,-17.7478 -1.3081,-9.01732 -1.9358,-11.3774 -2.5268,-9.5 -1.1067,3.51571 -7.879,58.80692 -7.879,64.32668 0,5.0969 1.2446,6.5696 3.5791,4.2351 2.7755,-2.7755 3.6925,-1.8606 2.9692,2.9626 -0.5502,3.6691 -0.2722,5.1843 1.468,8 1.1808,1.9105 2.6726,3.471 3.3153,3.4678 0.6426,0 2.7109,-3.1363 4.5961,-6.9626 z m -16.0977,-1.0316 -0.029,-2.5 -0.8006,2.5 c -0.4404,1.375 -0.8139,3.4 -0.83,4.5 -0.029,2 -0.029,2 0.83,0 0.4727,-1.1 0.8462,-3.125 0.83,-4.5 z m -0.915,-22.2186 c 0.6642,-5.10478 2.0554,-15.58141 3.0917,-23.28141 4.0682,-30.22906 5.0356,-43.48515 3.7191,-50.96378 -1.2031,-6.83496 -1.2905,-6.97695 -4.7258,-7.67618 -1.925,-0.39183 -18.0587,-1.0377 -35.8528,-1.43527 l -32.3527,-0.72286 1.7436,3.39905 c 1.9825,3.86458 23.5653,35.80572 56.2615,83.26351 2.9148,4.23073 5.6615,7.46864 6.1037,7.19534 0.4422,-0.2734 1.3475,-4.67363 2.0117,-9.7784 z M 182.37647,962.83498 c 2.01838,-2.23029 3.72505,-7.7127 2.99401,-9.61777 -1.04125,-2.71346 -3.79544,-2.72593 -6.11638,-0.0277 -2.46229,2.86258 -2.77012,5.01713 -1.27768,8.94256 1.15947,3.04965 2.1352,3.20552 4.40005,0.70289 z m -22.91594,-15.38779 c 1.88127,-4.50458 2.95676,-10.75 1.8512,-10.75 -1.33208,0 -5.31056,8.63543 -5.31056,11.52675 0,3.48768 1.85207,3.07182 3.45936,-0.77675 z M 1254.0012,905.75768 c 0,-0.58418 -1.3652,-9.86139 -3.0337,-20.61602 -1.6686,-10.75463 -3.6667,-24.14175 -4.4403,-29.74917 -6.1437,-44.53287 -4.8216,-40.05595 -12.0625,-40.84589 -17.5972,-1.91978 -62.0326,-1.61368 -64.0877,0.44149 -0.8296,0.82952 -0.8168,10.12848 0.064,46.7091 0.7167,29.76238 0.8132,30.28616 7.1146,38.62967 2.8435,3.76498 6.1688,4.36134 29.4455,5.28076 30.4802,1.20395 47,1.25669 47,0.15006 z m -88.2479,-10.06049 c 0.2415,-7.18807 0.096,-7.73386 -3.5,-13.12279 -2.0637,-3.09253 -5.9422,-8.94253 -8.619,-13 -2.6768,-4.05747 -6.9353,-10.29245 -9.4634,-13.85552 l -4.5966,-6.4783 -0.7374,3.4783 c -1.0207,4.81426 -1.1529,48.06129 -0.1501,49.06302 0.878,0.87697 11.1262,1.61057 20.8144,1.48998 l 6,-0.0747 0.2521,-7.5 z m 9.2777,6.05569 c -1.5116,-2.82437 -3.0298,-3.46647 -3.0298,-1.28137 0,2.2397 0.8259,3.22568 2.7019,3.22568 1.0455,0 1.1229,-0.45882 0.3279,-1.94431 z m -42.9035,-5.55569 c 0.3444,-3.3 0.8706,-17.10315 1.1692,-30.67367 l 0.5429,-24.67367 -5.731,-8.32633 c -3.152,-4.57948 -6.1531,-8.25468 -6.6692,-8.16711 -0.516,0.0876 -6.7882,1.1013 -13.9382,2.25275 -7.15,1.15144 -18.85,3.20466 -26,4.5627 -17.383,3.30165 -44.2044,6.40699 -65,7.52558 -9.35,0.50294 -23.07503,1.64111 -30.50003,2.52928 -18.01348,2.15475 -29.74419,3.13578 -34,2.84339 -5.1783,-0.35577 -24.8057,2.67742 -25.83227,3.99208 -0.48745,0.62425 -1.60497,8.11 -2.48337,16.635 -2.94346,28.56675 -3.01296,29.94418 -1.53512,30.42396 1.90659,0.61898 22.96704,1.44126 53.35076,2.08301 14.3,0.30204 29.60003,0.75381 34.00003,1.00394 4.4,0.25013 17.9,0.74292 30,1.09509 12.1,0.35217 35.275,1.20777 51.5,1.90133 16.225,0.69356 31.975,1.20064 35,1.12685 l 5.5,-0.13418 0.6263,-6 z m -70.36,-27.06913 c -1.2752,-2.06325 -2.1339,-26.43087 -0.9315,-26.43087 1.4678,0 1.941,2.56877 2.4867,13.5 0.4431,8.87602 -0.2907,14.97693 -1.5552,12.93087 z m -145.24601,24.31913 c 1.19324,-3.25989 4.32061,-44.30907 3.44261,-45.18707 -0.93331,-0.93331 -18.88145,2.27202 -35.96293,6.42257 -8.78432,2.13446 -22.00704,3.11991 -41.5,3.09285 -10.0016,-0.0139 -16.5704,0.52375 -23,1.88247 -4.95,1.04604 -12.375,2.55388 -16.5,3.35076 -4.125,0.79687 -11.55,3.03095 -16.5,4.96461 -5.55325,2.16932 -11.68081,3.76438 -16,4.16495 -3.85,0.35705 -8.575,1.04297 -10.5,1.52425 -1.925,0.48129 -5.975,1.16015 -9,1.50858 -6.05789,0.69778 -21.32298,6.51581 -27.34212,10.42099 -3.73284,2.42184 -3.7767,2.51694 -1.54195,3.34363 1.30435,0.48251 5.13239,0.4313 8.84212,-0.11829 3.99727,-0.59218 13.34907,-0.65007 24.04195,-0.14883 15.21209,0.7131 18.80738,0.57518 27.5,-1.05494 8.19434,-1.53667 11.80566,-1.72144 20,-1.02328 5.5,0.4686 10.51698,0.65364 11.14885,0.4112 0.63187,-0.24244 1.45983,0.0624 1.83992,0.67738 0.49876,0.80701 -3.29936,1.075 -13.64885,0.96304 -7.88696,-0.0853 -15.68992,0.27398 -17.33992,0.79844 -2.69791,0.85754 -2.29513,1.01778 4,1.59133 3.85,0.35078 27.025,1.1291 51.5,1.72961 24.475,0.6005 44.95,1.24618 45.5,1.43484 0.55,0.18866 7.65162,0.37854 15.78138,0.42196 10.9736,0.0586 14.89926,-0.24306 15.23894,-1.17105 z m 357.58341,-36.35565 c 2.3082,-2.35188 5.4791,-4.80733 7.0465,-5.45657 1.5674,-0.64923 2.8498,-1.65083 2.8498,-2.22577 0,-0.57494 0.2729,-0.77239 0.6066,-0.43879 0.3336,0.33361 1.1211,0.17183 1.75,-0.35951 9.8735,-8.34188 23.4176,-16.91371 26.7249,-16.91371 0.8786,0 2.0996,-1.10207 2.7133,-2.44904 1.0125,-2.22209 0.823,-2.59516 -2.045,-4.02587 -4.6208,-2.30519 -12.5228,-4.12246 -27.7498,-6.38184 -21.5241,-3.19372 -36.4384,-4.10482 -38.2091,-2.33414 -0.8778,0.87783 0.9324,16.92817 3.6976,32.78504 0.8313,4.76731 1.514,10.29638 1.5171,12.28684 0,1.99046 0.4177,5.19401 0.9215,7.11901 0.5037,1.925 1.444,6.77557 2.0896,10.77904 l 1.1738,7.27904 6.3582,-12.69379 c 4.0046,-7.9949 7.9118,-14.27671 10.555,-16.96994 z m -108.6957,9.8581 c -0.2161,-7.56385 -0.6943,-22.24112 -1.0626,-32.61616 l -0.6695,-18.86371 -4.088,0.62695 c -12.7081,1.94898 -18.8555,3.4116 -19.6562,4.67668 -0.4956,0.78308 -0.908,6.5628 -0.9164,12.84381 l -0.015,11.42002 3.75,5.82123 c 2.0625,3.20168 4.3391,5.82517 5.059,5.82998 0.72,0.005 1.0276,0.46408 0.6837,1.02059 -0.344,0.55651 2.3992,5.39401 6.0958,10.75 8.0104,11.60606 9.4357,13.34124 10.4457,12.71703 0.4218,-0.26068 0.59,-6.66257 0.3738,-14.22642 z m -961.17234,-34.80068 2.2097,-4.54823 -2.43976,-4.70177 c -3.68163,-7.095 -9.16313,-15.20177 -10.27888,-15.20177 -0.57982,0 -0.76509,1.67749 -0.4471,4.04826 0.73919,5.51107 6.91855,24.95174 7.93109,24.95174 0.44839,0 1.80962,-2.0467 3.02495,-4.54823 z m 930.61434,-4.51005 c -0.062,-2.74218 -0.5325,-5.24548 -1.046,-5.56287 -1.5421,-0.95306 -7.8696,0.62858 -8.4378,2.10911 -0.2907,0.75769 1.381,3.96257 3.715,7.12196 3.9335,5.32452 4.3034,5.58258 5.0624,3.53097 0.4503,-1.21736 0.7682,-4.45699 0.7064,-7.19917 z m 18.2895,-12.5154 c 4.5983,-0.86553 8.793,-1.99551 9.3216,-2.51106 0.9045,-0.88223 0.8694,-44.57156 -0.037,-46.03817 -0.2176,-0.35211 -0.6307,-18.13101 -0.918,-39.50865 -0.2873,-21.37764 -0.7309,-44.04344 -0.9857,-50.36844 -0.2549,-6.325 -0.7028,-24.325 -0.9953,-40 -0.2925,-15.675 -0.7545,-32.1 -1.0266,-36.5 -0.4931,-7.97428 -0.9554,-27.65315 -2.0085,-85.5 -0.3053,-16.775 -0.9717,-45.575 -1.4807,-64 -0.5091,-18.425 -1.183,-44.075 -1.4976,-57 -0.7068,-29.03577 -1.532,-48.3537 -2.0892,-48.91094 -0.2323,-0.23232 -0.4798,4.71511 -0.55,10.99427 -0.07,6.27917 -0.2414,12.54167 -0.3804,13.91667 -0.139,1.375 -0.5843,18.52834 -0.9896,38.11854 -0.5723,27.66711 -0.4636,35.78741 0.4871,36.375 0.9638,0.59563 0.9618,0.9185 -0.01,1.51865 -1.533,0.94742 -1.6491,2.78521 -2.4319,38.48781 -0.3498,15.95 -1.0519,44.3 -1.5604,63 -0.5084,18.7 -1.1692,45.25 -1.4684,59 -0.2992,13.75 -0.7782,31.075 -1.0644,38.5 -0.2863,7.425 -0.7286,26.1 -0.9831,41.5 -0.2544,15.4 -0.9082,45.55 -1.4528,67 -1.7138,67.49307 -1.8,63.5 1.3702,63.5 1.3143,0 6.1518,-0.70816 10.75,-1.57368 z m 86.8605,-4.87918 c 0,-1.14129 -4.6441,-32.56305 -7.0274,-47.54714 -0.5686,-3.575 -2.8073,-19.1 -4.9747,-34.5 -2.1675,-15.4 -5.4783,-38.8 -7.3575,-52 -1.8791,-13.2 -3.9695,-28.5 -4.6452,-34 -0.6757,-5.5 -2.0483,-14.275 -3.0503,-19.5 -1.0019,-5.225 -2.1172,-11.75 -2.4783,-14.5 -0.3611,-2.75 -1.3037,-8.825 -2.0946,-13.5 -1.7901,-10.58102 -2.1027,-12.67409 -3.2865,-22 -2.2675,-17.86381 -4.3164,-32.52644 -6.5676,-47 -2.1927,-14.09849 -4.9599,-33.06197 -6.1286,-42 -0.2518,-1.925 -1.3189,-8.675 -2.3714,-15 -1.0526,-6.325 -2.186,-13.75 -2.5189,-16.5 -0.3328,-2.75 -0.8072,-5.9 -1.0543,-7 -0.247,-1.1 -0.8864,-5.825 -1.4207,-10.5 -0.5344,-4.675 -1.8476,-14.125 -2.9183,-21 -1.0707,-6.875 -2.2356,-14.975 -2.5886,-18 -0.3531,-3.025 -1.5243,-11.125 -2.6028,-18 -1.0785,-6.875 -3.0788,-19.7 -4.445,-28.5 -5.3189,-34.25808 -4.219,-30.1827 -8.6214,-31.9442 -7.7565,-3.10352 -7.2426,-5.81075 -6.4909,34.1942 0.8842,47.0541 1.5876,72.55701 2.179,79.0015 0.265,2.88833 2.313,9.7934 4.5511,15.34461 4.4629,11.06915 6.0755,17.74044 3.9745,16.44194 -0.6879,-0.4251 -2.5393,-3.64506 -4.1143,-7.15548 -1.575,-3.51041 -3.0894,-6.38257 -3.3652,-6.38257 -0.2759,0 -0.4728,1.2375 -0.4377,2.75 0.035,1.5125 0.5023,29.525 1.0381,62.25 0.5358,32.725 1.1106,62.2 1.2773,65.5 0.1668,3.3 0.6044,19.5 0.9725,36 0.3681,16.5 1.0383,41.475 1.4894,55.5 0.4511,14.025 0.8038,26.85 0.7837,28.5 -0.049,4.00453 1.1881,48.54872 1.8186,65.5 0.2762,7.425 0.7647,20.7 1.0857,29.5 0.3209,8.8 0.7233,16.225 0.894,16.5 0.1708,0.275 16.1023,0.56329 35.4034,0.64064 27.243,0.10918 35.0929,-0.13543 35.0929,-1.0935 z m -48.3817,-287.72366 c -5.8297,-12.80199 -11.934,-28.84115 -11.2405,-29.53466 1.3832,-1.38315 3.6427,2.62567 9.4191,16.71118 7.2386,17.65132 7.5608,18.66088 6.2204,19.48933 -0.6328,0.39105 -2.416,-2.31101 -4.399,-6.66585 z m -832.06741,14.44862 c -0.32198,-0.83908 -0.18971,-2.03106 0.29394,-2.64885 0.48365,-0.61779 1.17246,-2.35066 1.53068,-3.85083 0.55359,-2.31834 0.28273,-2.82008 -1.80528,-3.34414 -3.26953,-0.8206 -4.42387,0.0375 -6.65242,4.94509 -2.53584,5.58427 -2.42094,6.16288 1.27977,6.44486 1.75868,0.13401 3.39645,0.4425 3.63948,0.68553 0.94197,0.94197 2.26872,-0.78565 1.71383,-2.23166 z m 30.96327,-15.11308 c 3.6953,-1.02101 15.28484,-6.62946 24.98581,-12.09124 9.21622,-5.18885 18.39639,-17.4714 21.35622,-28.5734 1.1615,-4.35666 1.90952,-25.06197 0.94043,-26.03106 -0.54607,-0.54607 -5.46512,0.72534 -13.29665,3.43675 -1.65,0.57126 -11.55,3.80181 -22,7.179 -10.45,3.37719 -19.85098,6.95445 -20.89106,7.94947 -1.79724,1.71938 -1.80964,2.0126 -0.25,5.91053 2.05,5.12346 2.05074,5.61347 0.005,3.56807 -0.89965,-0.89964 -2.01414,-1.25729 -2.47666,-0.79477 -0.46251,0.46251 -2.23861,6.00394 -3.94688,12.31428 -5.76537,21.29849 -6.3935,25.97335 -3.48952,25.97335 0.71733,0 1.84226,0.64829 2.49985,1.44064 2.11789,2.55189 6.58292,2.47597 16.56346,-0.28162 z m -25.24406,-7.90902 c 0.85055,-4.2625 1.39161,-7.90862 1.20235,-8.10248 -0.68502,-0.70169 -7.5238,13.96043 -6.94689,14.89389 0.32585,0.52722 1.40371,0.95859 2.39526,0.95859 1.44898,0 2.10634,-1.52108 3.34928,-7.75 z m -2.51648,-14 c 4.9936,-10.3125 9.22936,-19.65 9.41281,-20.75 0.24065,-1.44298 -0.29619,-2.0894 -1.92756,-2.32101 -2.3259,-0.3302 -39.75081,11.3343 -41.9889,13.087 -4.78738,3.7491 4.97083,17.25324 18.19117,25.17431 3.26765,1.95784 6.23188,3.5597 6.58719,3.5597 0.35531,0 4.73169,-8.4375 9.72529,-18.75 z m -61.27783,-6.08623 16.97583,-5.66601 1.15055,-9.99888 c 0.6328,-5.49938 1.88118,-14.69064 2.77417,-20.42502 3.81518,-24.49916 1.41873,-41.49529 -7.08215,-50.22826 -8.62989,-8.86549 -15.34227,-6.28897 -22.65231,8.695 -3.64594,7.47339 -3.7506,8.011 -4.73076,24.30093 -0.96741,16.07811 -2.68813,28.09189 -6.89766,48.15847 -1.09609,5.225 -1.99753,10.05125 -2.00319,10.725 -0.0144,1.70806 2.69706,1.03686 22.46552,-5.56123 z M 1334.5012,386.17192 c -9.3836,-7.86764 -26.6964,-17.68096 -41.2824,-23.39994 -2.9053,-1.13913 -6.2803,-2.69082 -7.5,-3.44818 -1.2197,-0.75736 -6.9426,-3.82604 -12.7176,-6.81929 -11.3156,-5.86502 -24.4854,-13.74292 -32.5,-19.44086 -2.75,-1.9551 -11.2303,-7.86977 -18.8451,-13.14371 -10.3978,-7.20145 -17.5142,-13.21596 -28.5811,-24.15587 -15.3599,-15.18349 -21.8336,-22.9224 -26.6667,-31.87817 -1.5764,-2.92121 -3.0411,-4.78677 -3.2548,-4.14569 -0.2137,0.64108 0.3239,5.95616 1.1946,11.81129 0.8707,5.85513 2.2881,15.59569 3.1497,21.64569 0.8616,6.05 2.0447,13.7904 2.6291,17.20089 l 1.0625,6.20089 4.93,1.63747 c 2.7114,0.90061 9.0816,3.81619 14.1559,6.47907 14.0968,7.39776 23.1148,10.5844 44.9756,15.89274 14.3382,3.48167 33.5115,10.94608 41.2503,16.05923 1.65,1.09019 9.075,5.07028 16.5,8.84465 7.425,3.77437 17.6636,9.18507 22.7524,12.02377 5.0888,2.83871 9.4607,5.16129 9.7153,5.16129 0.2545,0 2.5916,1.35 5.1934,3 5.7539,3.64905 7.9485,3.92045 3.8389,0.47473 z m -182.8107,-47.22473 c -0.2515,-0.9625 -0.4573,-0.175 -0.4573,1.75 0,1.925 0.2058,2.7125 0.4573,1.75 0.2516,-0.9625 0.2516,-2.5375 0,-3.5 z m 15.3107,-24.30804 c 0,-0.58193 -1.8121,-13.51943 -4.0268,-28.75 -2.2148,-15.23058 -4.5041,-31.06458 -5.0873,-35.18666 -0.5832,-4.12209 -1.4964,-8.17209 -2.0292,-9 -1.1084,-1.72222 -0.1637,61.2653 1.0047,66.9947 0.5425,2.65974 1.5451,3.9086 4.1762,5.20197 4.0366,1.98424 5.9624,2.22325 5.9624,0.73999 z m -9.8,1167.85805 c -1.6294,-1.6294 -1.5109,-4.2971 0.2562,-5.7636 2.1414,-1.7773 3.5438,-0.3833 3.5438,3.5226 0,3.5743 -1.5517,4.4893 -3.8,2.241 z m 115.8,-2.741 c 0,-0.5175 0.4448,-1.2159 0.9885,-1.5519 0.5669,-0.3504 0.7346,0.051 0.3931,0.941 -0.6648,1.7324 -1.3816,2.0493 -1.3816,0.6109 z m -140,-5.5281 c -4.125,-1.2854 -8.625,-2.8022 -10,-3.3706 l -2.5,-1.0335 2.5378,-0.063 c 2.1792,-0.054 19.6918,5.437 20.8789,6.547 1.0988,1.0275 -4.1622,0.025 -10.9167,-2.0795 z m 148.603,-11.3642 c -0.2833,-0.4584 0.1402,-0.8334 0.941,-0.8334 0.8008,0 1.456,0.375 1.456,0.8334 0,0.4583 -0.4234,0.8333 -0.941,0.8333 -0.5175,0 -1.1727,-0.375 -1.456,-0.8333 z m 7.437,-4.6167 c -0.03,-1.4412 -0.3327,-1.6573 -1.1619,-0.8281 -0.617,0.617 -1.6841,0.906 -2.3714,0.6423 -1.2146,-0.4661 3.9334,-13.7312 9.2874,-23.9312 1.1354,-2.1631 2.8473,-6.858 3.8042,-10.433 2.082,-7.7784 2.5018,-8.3786 4.7234,-6.7537 1.6157,1.1817 1.6166,1.5121 0.016,5.7537 -0.9342,2.475 -2.3031,5.2224 -3.0421,6.1054 -0.7644,0.9134 -1.0444,2.3849 -0.6495,3.414 0.5151,1.3423 0.3525,1.5976 -0.6304,0.9901 -0.781,-0.4826 -1.0829,-0.4277 -0.7357,0.134 0.6713,1.0863 -5.1188,19.3225 -7.5747,23.8565 -1.2723,2.3489 -1.6336,2.5768 -1.665,1.05 z m -238.54,-9.55 c -1.3187,-0.5667 -1.4891,-0.8782 -0.5,-0.9144 0.825,-0.03 2.175,0.3812 3,0.9144 1.828,1.1813 0.2491,1.1813 -2.5,0 z m -10,-2.5529 -4,-1.3992 4.837,0.363 c 2.6603,0.1997 5.3378,0.8639 5.95,1.4761 1.5519,1.5519 -1.6943,1.3415 -6.787,-0.4399 z m -44.00003,-3.9847 c -3.94353,-1.3643 -3.95059,-1.3755 -0.5,-0.7934 4.07933,0.6882 8.24983,2.211 6.00003,2.1908 -0.825,-0.01 -3.30003,-0.6362 -5.50003,-1.3974 z m -1,-9.4624 c -1.77225,-0.7616 -1.68684,-0.8674 0.75,-0.9297 1.5125,-0.039 2.75,0.3797 2.75,0.9297 0,1.1737 -0.76862,1.1737 -3.5,0 z m -47.5,-5.2679 c -3.62588,-1.1607 -5.72836,-2.2568 -4.75489,-2.4788 2.16637,-0.4942 12.43257,2.4162 13.26301,3.7598 0.86118,1.3934 -1.05498,1.1049 -8.50812,-1.281 z m 161.00003,1.0171 c 0,-7.1346 4.6432,-17.4874 6.8392,-15.2492 0.6438,0.6562 0.056,3.3137 -1.7092,7.7302 -2.8642,7.1649 -5.13,10.4859 -5.13,7.519 z m -136.37943,-2.268 c -4.97252,-1.3656 -8.38486,-3.4914 -5.5706,-3.4704 1.9686,0.015 10.55304,2.6582 12.70719,3.9131 1.59237,0.9276 1.57017,1.0102 -0.25719,0.9563 -1.1,-0.033 -4.19573,-0.662 -6.8794,-1.399 z m 179.20033,-8.3499 c -3.4458,-3.0788 -3.2519,-1.9585 -4.1752,-24.1313 l -0.1457,-3.5 5.5,-0.2891 c 4.6435,-0.2441 6.212,0.1632 10.0721,2.6151 11.0066,6.9916 10.8116,22.1815 -0.3423,26.6601 -5.3409,2.1446 -7.259,1.9064 -10.9089,-1.3548 z m 13.256,-4.0544 c 2.3047,-2.3047 2.9231,-3.8134 2.9231,-7.1316 0,-3.6253 -0.5957,-4.8041 -4.2989,-8.5074 -4.3521,-4.3521 -8.3882,-6.1557 -11.2864,-5.0435 -1.2754,0.4894 -1.4476,1.4498 -0.8707,4.8578 0.3954,2.3363 0.8202,6.8239 0.9439,9.9724 0.1238,3.1485 0.7947,6.411 1.491,7.25 2.1668,2.6108 7.7989,1.9015 11.098,-1.3977 z m -259.57693,-0.077 c -1.31874,-0.5667 -1.48906,-0.8782 -0.5,-0.9144 0.825,-0.03 2.175,0.3812 3,0.9144 1.82797,1.1813 0.24909,1.1813 -2.5,0 z m 28,0.4358 c -0.55,-0.1597 -3.60343,-1.0153 -6.78539,-1.9013 -3.18197,-0.886 -5.51689,-2.0454 -5.18872,-2.5764 0.6448,-1.0433 4.75182,-0.3314 7.97411,1.3821 1.1,0.585 2.60373,1.164 3.34163,1.2867 1.5492,0.2575 2.68311,1.2063 2.07504,1.7362 -0.22917,0.1997 -0.86667,0.2324 -1.41667,0.073 z m 155.50393,-5.0884 c -0.6241,-2.1161 -0.9927,-7.2224 -0.8193,-11.3474 0.2829,-6.7282 0.5212,-7.5 2.3154,-7.5 1.3942,0 1.9447,0.6058 1.8173,2 -0.1005,1.1 -0.4833,6.05 -0.8508,11 -0.3674,4.95 -0.8165,9.1563 -0.998,9.3474 -0.1814,0.191 -0.8405,-1.384 -1.4646,-3.5 z m 212.6925,-3.5974 c -0.2894,-1.7875 -0.3859,-5.275 -0.2145,-7.75 0.1714,-2.475 0.6148,-11.025 0.9853,-19 0.3706,-7.975 0.8823,-17.3121 1.1372,-20.7492 0.2549,-3.437 -0.2254,-10.187 -1.0673,-15 -0.8419,-4.8129 -1.4945,-11.4508 -1.4503,-14.7508 l 0.081,-6 1.373,6 c 2.3571,10.3003 5.3136,36.6816 4.8155,42.9686 -0.2617,3.3026 -1.1211,10.2857 -1.9099,15.5181 -0.7888,5.2323 -1.4368,10.7508 -1.44,12.2633 0,1.5125 -0.4064,2.75 -0.896,2.75 -0.4895,0 -0.6778,1.575 -0.4184,3.5 0.5947,4.4128 -0.2853,4.6339 -0.9951,0.25 z m -411.48131,-3.6895 c -11.30153,-3.2313 -8.38898,-3.955 3.56064,-0.8847 2.35167,0.6042 4.51573,1.4868 4.80902,1.9614 0.75815,1.2267 -1.19036,0.976 -8.36966,-1.0767 z m -29.84925,-1.5762 c -7.24483,-1.953 -12.46819,-4.2973 -9.81004,-4.4027 2.36704,-0.094 14.47714,3.7534 15.89417,5.0495 1.26406,1.1562 0.17404,1.0403 -6.08413,-0.6468 z m -8.12116,-9.8974 c -4.54041,-1.2453 -8.55291,-2.5618 -8.91667,-2.9255 -1.46319,-1.4632 0.5709,-1.5812 4.75238,-0.2758 2.43077,0.7589 6.35464,1.9621 8.71971,2.6737 2.36507,0.7117 4.52913,1.6644 4.80902,2.1173 0.68664,1.111 0.15056,1.02 -9.36444,-1.5897 z m -41.74471,-6.2506 c -5.58928,-1.2063 -21.75737,-6.8556 -20.37985,-7.1209 1.57906,-0.3041 23.87985,6.5797 23.87985,7.3713 0,0.4449 -0.41698,0.415 -3.5,-0.2504 z m -9.78403,-8.9596 c -4.28121,-1.3517 -7.54609,-2.8426 -7.25528,-3.3131 0.45154,-0.7306 18.25317,4.3169 19.45162,5.5154 1.14418,1.1442 -5.25935,-0.012 -12.19634,-2.2023 z m -47.71597,-8.7527 c -7.83899,-2.3414 -12.64799,-4.5391 -10.0516,-4.5936 1.9658,-0.041 17.1811,4.7072 19.0516,5.9458 2.45971,1.6286 -0.51739,1.1813 -9,-1.3522 z m 8,-3.281 c -4.675,-1.3856 -8.6875,-2.7046 -8.91667,-2.9311 -2.1497,-2.1251 8.74767,0.2653 16.10661,3.533 5.96759,2.6498 2.92116,2.3948 -7.18994,-0.6019 z m 325.31983,-3.343 c -1.6718,-7.7907 -2.5366,-24.1933 -1.3704,-25.9916 2.3253,-3.5858 3.1013,0.8244 2.8276,16.0686 -0.2628,14.6321 -0.3375,15.141 -1.4572,9.923 z m 46.6802,1.8156 c 0,-3.3587 3.4179,-12.8156 4.6318,-12.8156 2.0141,0 1.6594,2.8325 -1.0956,8.75 -2.3881,5.1295 -3.5362,6.4495 -3.5362,4.0656 z m 76.8472,-3.4997 c -1.8579,-2.2386 -6.95,-22.1556 -7.5317,-29.4591 -0.4644,-5.8306 -0.2714,-6.9009 1.5777,-8.75 1.1587,-1.1587 2.8033,-2.1068 3.6545,-2.1068 2.3918,0 6.3354,4.8601 7.0547,8.694 0.471,2.5108 1.3622,3.7087 3.2724,4.3988 4.9994,1.8062 6.7946,3.0776 8.5559,6.0591 4.9629,8.4016 -1.1432,19.9669 -11.5462,21.8692 -2.7999,0.512 -4.1884,0.3176 -5.0373,-0.7052 z m 8.1926,-3.8365 c 3.2897,-1.7011 6.9602,-8.0323 6.9602,-12.0053 0,-2.8201 -1.6369,-6.5317 -3.3997,-7.7088 -2.1852,-1.4591 -7.2891,-0.7666 -9.1003,1.2347 -0.9955,1.1 -2.4456,2 -3.2224,2 -0.8882,0 -1.2081,0.6495 -0.8619,1.75 0.3028,0.9625 1.0157,4.225 1.5843,7.25 1.8743,9.9716 2.3552,10.419 8.0398,7.4794 z m -8.4246,-22.2447 c 3.0504,-2.0095 2.2149,-9.5952 -1.2011,-10.906 -2.372,-0.9103 -3.5222,1.6163 -2.8094,6.1713 0.8842,5.6497 1.5064,6.3843 4.0105,4.7347 z m -502.36523,20.0042 c -2.8875,-0.8405 -5.25,-1.9613 -5.25,-2.4906 0,-0.5292 0.5625,-0.7547 1.25,-0.5009 0.6875,0.2537 3.6125,1.238 6.5,2.1873 2.8875,0.9493 5.25,1.9149 5.25,2.1457 0,0.6658 -2.10811,0.3009 -7.75,-1.3415 z m 5.02083,-3.8431 c 0.33229,-0.3323 1.1948,-0.3678 1.91667,-0.079 0.79773,0.3192 0.56078,0.5562 -0.60417,0.6042 -1.05416,0.043 -1.64479,-0.193 -1.3125,-0.5253 z m -5.27083,-1.3958 c -1.82797,-1.1813 -0.24909,-1.1813 2.5,0 1.31874,0.5667 1.48906,0.8782 0.5,0.9144 -0.825,0.03 -2.175,-0.3812 -3,-0.9144 z m -43.5,-8.4831 c -10.45527,-3.1061 -13.61584,-4.3691 -11.14461,-4.4535 2.22009,-0.076 17.51228,4.5392 19.64461,5.9286 2.27138,1.48 0.28909,1.136 -8.5,-1.4751 z m 4.25,-2.6792 c -1.5125,-0.5524 -2.75,-1.3545 -2.75,-1.7824 0,-1.0351 4.70417,-0.092 7.92481,1.5885 l 2.57519,1.3439 -2.5,-0.073 c -1.375,-0.04 -3.7375,-0.5248 -5.25,-1.0772 z m 477.87463,-9.8377 c 0.6995,-5.2402 4.8108,-17.8354 6.3117,-19.3363 0.5667,-0.5667 1.2605,-0.8002 1.5417,-0.519 0.5479,0.5479 -4.228,15.0623 -6.8624,20.8553 l -1.5916,3.5 0.6006,-4.5 z m -515.12463,2.025 c -1.1,-0.4617 -4.475,-1.5672 -7.5,-2.4565 -4.81715,-1.4161 -9.50612,-3.5094 -7.95947,-3.5532 0.89399,-0.025 19.37337,6.0653 19.85064,6.5425 0.72905,0.7291 -2.24487,0.3683 -4.39117,-0.5328 z m -1.5,-3.9835 c -3.025,-1.01 -4.68677,-1.8825 -3.69282,-1.9389 2.63283,-0.1495 10.6354,1.9955 11.26884,3.0204 0.79955,1.2937 -1.40428,0.9791 -7.57602,-1.0815 z m -33,-6.5415 c -1.925,-0.7413 -2.825,-1.3618 -2,-1.3788 0.825,-0.017 2.85,0.5872 4.5,1.3427 3.86206,1.7684 2.0657,1.7943 -2.5,0.036 z m -11.5,-6.2131 c -1.1,-0.2646 -2.39189,-0.8517 -2.87086,-1.3048 -0.47897,-0.4531 1.08319,-0.3848 3.47147,0.1518 2.38827,0.5366 4.54266,1.176 4.78752,1.4209 0.54611,0.5461 -2.66847,0.3863 -5.38813,-0.2679 z m 499.50383,0.2131 c -1.344,-5.1883 -2.4328,-23.6546 -1.5921,-27.004 1.1098,-4.4219 2.3537,-1.8273 2.9955,6.2484 0.5242,6.5947 -0.6342,23.7251 -1.4034,20.7556 z m -517.00383,-2.6447 c -5.03735,-1.3879 -12.10146,-4.0872 -11.71296,-4.4757 0.1824,-0.1824 4.35494,0.9712 9.2723,2.5636 8.42754,2.729 10.06676,4.0132 2.44066,1.9121 z m -215,-8.8553 c -0.62592,-1.1695 -2.09382,-2 -3.53518,-2 -2.30384,0 -6.47821,-3.0722 -6.454,-4.75 0.0231,-1.5994 2.90829,-10.1929 4.37352,-13.0263 2.0652,-3.9937 4.16087,-4.6282 6.6085,-2.001 2.26807,2.4345 2.59608,3.8983 0.79039,3.5273 -0.66923,-0.1375 -2.01542,1.3204 -2.99154,3.2399 -1.68345,3.3103 -1.68516,3.5219 -0.0332,4.1118 1.0746,0.3837 2.82406,-0.2826 4.56827,-1.7399 3.46744,-2.8971 5.63309,-2.9795 8.48471,-0.3228 3.90515,3.6382 2.34675,11.961 -2.23963,11.961 -1.29681,0 -2.61685,0.675 -2.93344,1.5 -0.84626,2.2053 -5.37299,1.8644 -6.63837,-0.5 z m 179.75893,-2.1593 c -5.10318,-1.779 -5.57441,-2.1681 -4.24107,-3.5014 1.33333,-1.3333 2.30456,-1.2128 8.74107,1.0849 3.98259,1.4218 6.00357,2.4203 4.49107,2.2191 -3.01206,-0.4008 -3.81175,0.9326 -1,1.6674 1.44671,0.378 1.40338,0.4637 -0.25,0.4944 -1.1,0.02 -4.58348,-0.8636 -7.74107,-1.9644 z m -31.75893,-9.9942 c -3.575,-1.1226 -7.175,-2.6191 -8,-3.3256 -0.825,-0.7064 -2.54641,-1.6037 -3.82536,-1.9939 -1.27895,-0.3903 -2.08775,-0.9472 -1.79735,-1.2376 0.64706,-0.6471 13.98971,2.5431 18.12271,4.3331 2.3649,1.0242 2.5766,1.3247 1,1.4196 -1.59687,0.096 -1.39531,0.3972 1,1.494 4.40885,2.0188 0.95933,1.6528 -6.5,-0.6896 z m 807.07893,-1.9184 c -0.1263,-2.5164 2.8606,-10.4775 4.718,-12.5747 0.9367,-1.0576 3.2614,-3.9323 5.1661,-6.3882 1.9046,-2.4558 3.7918,-4.6068 4.1937,-4.7798 0.402,-0.173 2.3848,-1.6289 4.4062,-3.2354 2.0214,-1.6064 4.0726,-2.6753 4.5581,-2.3752 0.4855,0.3 1.316,-0.594 1.8455,-1.9867 0.5469,-1.4384 2.0579,-2.8071 3.4981,-3.1686 1.3945,-0.35 2.5354,-0.9829 2.5354,-1.4066 0,-0.4236 1.4625,-1.371 3.25,-2.1053 4.7987,-1.9712 9.7673,-5.5458 8.9571,-6.4441 -0.3889,-0.4313 -0.1446,-0.4604 0.5429,-0.065 0.6875,0.3956 1.25,0.2428 1.25,-0.3397 0,-1.4292 3.7007,-1.3523 4.5955,0.096 0.4421,0.7153 0.2743,0.8831 -0.441,0.441 -0.635,-0.3924 -1.1545,-0.237 -1.1545,0.3455 0,0.5824 -0.8842,1.059 -1.9648,1.059 -1.0807,0 -2.4465,0.9 -3.0352,2 -0.5887,1.1 -1.5045,2 -2.0352,2 -0.5306,0 -1.8648,0.9 -2.9648,2 -1.1,1.1 -3.125,2 -4.5,2 -1.375,0 -2.5035,0.5625 -2.5077,1.25 0,0.6875 -1.8042,2.2759 -4,3.5299 -2.1958,1.2539 -3.9923,2.7398 -3.9923,3.302 0,0.5622 -1.2375,1.4636 -2.75,2.0032 -3.792,1.3527 -13.3358,13.8021 -15.6834,20.458 -1.0745,3.0465 -2.2423,4.9816 -2.6289,4.3561 -0.4884,-0.7903 -0.8571,-0.7195 -1.2377,0.2376 -0.4103,1.0319 -0.5613,0.9812 -0.6211,-0.2087 z m -144.7096,-8.9281 c 0.6996,-7.6333 2.9028,-15.0752 4.7567,-16.0674 4.0308,-2.1572 3.2527,2.7996 -2.2674,14.4456 l -2.9018,6.1218 0.4125,-4.5 z m -695.19668,0.4652 c -4.03005,-1.2851 -8.30505,-2.9722 -9.5,-3.7492 -1.19496,-0.777 -4.53654,-1.9762 -7.42573,-2.6648 -4.60806,-1.0984 -8.07134,-3.0512 -5.41127,-3.0512 2.05322,0 14.79596,4.2594 17.04852,5.6986 1.3113,0.8378 5.3613,2.5649 9,3.8379 8.60275,3.0098 5.78058,2.9555 -3.71152,-0.071 z m -36.67265,-12.0288 c -11.6914,-4.1955 -31.43794,-9.3458 -32.04797,-8.3588 -1.13537,1.8371 -4.36026,0.86 -6.34053,-1.921 -1.37112,-1.9256 -1.6967,-3.1714 -1.00862,-3.8595 0.68808,-0.6881 0.36655,-3.5514 -0.99608,-8.8706 -1.93115,-7.5383 -1.97887,-10.4556 -0.12188,-7.4509 0.4819,0.7797 1.43907,4.2496 2.12705,7.7108 1.08399,5.4535 1.72692,6.6209 4.81945,8.7507 1.96272,1.3518 8.96858,4.2716 15.56858,6.4885 16.78033,5.6365 28.27212,9.973 26.5,10 -0.825,0.013 -4.65,-1.1076 -8.5,-2.4892 z m 649.92693,-14.0715 c -1.467,-5.5781 -1.7533,-15.0451 -0.479,-15.8327 2.2215,-1.373 3.3267,4.1403 2.4292,12.1173 l -0.8771,7.7959 -1.0731,-4.0805 z m 276.1158,-12.2958 c -0.3164,-0.512 -0.193,-1.1672 0.2743,-1.456 0.4673,-0.2888 0.8497,0.1301 0.8497,0.9309 0,1.6862 -0.3154,1.8335 -1.124,0.5251 z m 10.9472,-6.0854 c -0.3454,-0.559 -1.1595,-0.7497 -1.809,-0.4238 -0.6495,0.3259 -0.1185,-0.3418 1.1799,-1.4837 1.2984,-1.1419 3.2109,-2.0762 4.25,-2.0762 1.0391,0 1.8892,-0.4031 1.8892,-0.8958 0,-0.4926 2.3625,-2.3681 5.25,-4.1676 15.6333,-9.743 15.5018,-9.625 18.9021,-16.964 1.7768,-3.8349 3.5944,-6.9726 4.0392,-6.9726 1.063,0 1.0565,0.046 -0.7169,5.0727 l -1.5257,4.3241 2.4748,-2.3249 c 2.744,-2.5779 5.9422,-2.1763 5.3766,0.6751 -0.2376,1.1977 -1.2198,1.7181 -3.1009,1.6427 -1.5142,-0.061 -2.5199,0.123 -2.2348,0.408 0.285,0.2851 -0.04,1.2086 -0.7231,2.0522 -1.0173,1.2571 -0.9878,1.3812 0.1632,0.6875 0.9951,-0.5997 1.1781,-0.4801 0.6279,0.4101 -0.4271,0.6911 -2.2966,1.8917 -4.1545,2.668 -1.8578,0.7762 -3.3779,1.8437 -3.3779,2.3722 0,0.5285 -1.35,1.6591 -3,2.5123 -1.65,0.8532 -3,1.3593 -3,1.1245 0,-0.2348 -1.3631,0.8464 -3.0291,2.4027 -1.666,1.5563 -5.1535,3.629 -7.75,4.606 -2.5965,0.977 -5.3089,2.5842 -6.0276,3.5716 -1.4672,2.0157 -2.7697,2.2897 -3.7034,0.7789 z M 218.272,1224.093 c 0.33229,-0.3323 1.19479,-0.3678 1.91667,-0.079 0.79773,0.3192 0.56078,0.5562 -0.60417,0.6042 -1.05416,0.043 -1.64479,-0.193 -1.3125,-0.5253 z m -11.60547,-3.0819 c -2.65905,-0.8129 -4.64301,-1.6696 -4.4088,-1.9038 0.2342,-0.2342 3.08479,0.4328 6.33463,1.4822 3.24985,1.0494 5.23381,1.9061 4.40881,1.9037 -0.825,0 -3.67559,-0.6693 -6.33464,-1.4821 z m -8.39453,-2.9181 c 0.33229,-0.3323 1.19479,-0.3678 1.91667,-0.079 0.79773,0.3192 0.56078,0.5562 -0.60417,0.6042 -1.05416,0.043 -1.64479,-0.193 -1.3125,-0.5253 z m 879.8595,-8.8602 c -1.2797,-5.5724 -1.6849,-20.3143 -0.5886,-21.4107 1.7661,-1.7661 2.4907,2.911 2.2394,14.4562 l -0.2811,12.9189 -1.3697,-5.9644 z m -696.05138,0.048 c -0.0434,-1.0541 0.19293,-1.6448 0.52522,-1.3125 0.33229,0.3323 0.36781,1.1948 0.0789,1.9167 -0.31922,0.7977 -0.55618,0.5608 -0.60416,-0.6042 z m 1133.39638,-19.8336 c -11.466,-31.0292 -12.4129,-37.0503 -7.4419,-47.3189 4.7338,-9.7789 12.3536,-5.7705 13.6926,7.203 0.6497,6.2954 -1.3601,12.0003 -5.988,16.9971 l -2.9001,3.1312 2.4472,7.8688 c 3.8012,12.2227 3.99,13.3688 2.2026,13.3688 -0.8528,0 -1.7583,-0.5625 -2.0124,-1.25 z m -0.7395,-26 c 1.9332,-2.464 4.2642,-11.1958 4.2642,-15.9736 0,-3.855 -0.5186,-5.3859 -2.4933,-7.3606 -3.0597,-3.0597 -5.7306,-2.0809 -7.4015,2.7123 -2.0675,5.9307 -0.7346,16.8719 2.0553,16.8719 0.4617,0 0.8395,1.125 0.8395,2.5 0,2.7064 1.1728,3.2422 2.7358,1.25 z m -1140.38613,14.514 c -1.16239,-4.5298 -1.74611,-8.009 -1.29715,-7.7315 1.23838,0.7653 4.1054,11.369 3.73563,13.8162 -0.17878,1.1832 -1.2761,-1.5549 -2.43848,-6.0847 z m 1158.86713,5.1753 c -3.1624,-2.215 -4.901,-6.0635 -5.7274,-12.6778 -0.9674,-7.7427 0.021,-12.1338 3.6635,-16.2829 3.3604,-3.8272 5.4644,-4.245 9.8798,-1.9617 4.2096,2.1769 5.9673,6.2906 5.9673,13.9656 0,13.3723 -6.857,21.8081 -13.7832,16.9568 z m 5.1448,-2.9393 c 0.4146,-1.0805 -0.106,-1.5 -1.8616,-1.5 -1.7556,0 -2.2762,0.4195 -1.8616,1.5 0.3166,0.825 1.1543,1.5 1.8616,1.5 0.7073,0 1.545,-0.675 1.8616,-1.5 z m 4.1894,-5.9679 c 2.2079,-5.2842 1.9171,-15.6526 -0.5122,-18.2601 -1.2445,-1.3358 -2.7021,-1.9113 -3.9887,-1.5749 -2.5359,0.6632 -5.6003,5.6411 -6.4638,10.5002 -1.6922,9.521 7.5864,17.4203 10.9647,9.3348 z m -172.051,-1.5321 c -0.3399,-0.55 -0.168,-1 0.382,-1 0.55,0 1.2781,0.45 1.618,1 0.3399,0.55 0.168,1 -0.382,1 -0.55,0 -1.2781,-0.45 -1.618,-1 z m 193.0967,-4.25 c -1.6489,-2.5595 -3.8715,-10.9878 -5.6038,-21.25 -1.0426,-6.176 -0.9531,-7.8425 0.7598,-14.1572 2.3462,-8.6493 5.486,-12.887 10.1379,-13.6827 4.5052,-0.7707 9.0788,1.6675 9.0788,4.8399 0,0.5757 -0.3118,0.5331 -0.7347,-0.1003 -0.9767,-1.4627 -4.7325,-3.3997 -6.592,-3.3997 -2.3345,0 -7.1316,5.3882 -7.6531,8.5961 -0.2596,1.5971 -0.4248,7.6289 -0.3669,13.4039 0.082,8.2215 0.6513,12.236 2.622,18.5 1.3844,4.4 2.3191,8.3375 2.0771,8.75 -0.8011,1.3659 -2.2564,0.7799 -3.7251,-1.5 z m -486.7824,-10.25 c -1.2092,-3.5267 -1.9461,-20.9309 -0.9489,-22.4102 0.6821,-1.0118 1.1366,0.1184 1.6089,4 0.8142,6.692 0.2943,21.1937 -0.66,18.4102 z m -709.16814,-7.6892 c -2.23563,-6.1555 -3.63918,-11.9158 -3.60881,-14.8108 0.0521,-4.963 2.61699,0.6378 4.39722,9.6018 1.90375,9.5859 1.57945,11.7285 -0.78841,5.209 z m 1197.84084,-2.8318 c -0.347,-0.5615 0.8689,-1.6476 2.702,-2.4135 1.8332,-0.766 5.5572,-3.344 8.2757,-5.7291 2.7185,-2.385 4.5563,-3.6614 4.0839,-2.8364 -1.2758,2.2284 -7.823,10.3879 -9.0147,11.2347 -1.5229,1.0822 -5.3192,0.9217 -6.0469,-0.2557 z m -1207.97379,-36.229 c -1.9312,-5.6935 -3.20679,-12.8145 -2.23761,-12.4915 1.09678,0.3656 1.89517,2.5607 3.63418,9.9915 0.52968,2.2633 0.51085,3.75 -0.0475,3.75 -0.5088,0 -1.11589,-0.5625 -1.34908,-1.25 z m 1023.48679,-8.75 c 0,-0.55 1.2375,-0.9684 2.75,-0.9297 2.4368,0.062 2.5223,0.1681 0.75,0.9297 -2.7314,1.1737 -3.5,1.1737 -3.5,0 z m 27.2736,-8.3222 c 1.5255,-0.7135 2.4995,-1.5714 2.1644,-1.9065 -0.3351,-0.3351 0.271,-1.0804 1.3468,-1.6561 2.6398,-1.4128 9.9819,-3.0151 10.6687,-2.3283 0.7585,0.7584 -10.255,6.0186 -13.9535,6.6643 l -3,0.5238 2.7736,-1.2972 z m 15.7582,-4.8696 c -0.017,-0.3805 2.2635,-3.3055 5.0689,-6.5 2.8053,-3.1945 7.627,-10.0832 10.7148,-15.3082 4.5014,-7.6169 5.6404,-10.4264 5.7463,-14.1734 0.1581,-5.5945 2.2039,-11.062 3.8043,-10.1672 0.7375,0.4124 0.7148,0.1811 -0.065,-0.6615 -1.3773,-1.4884 0.6128,-6.2267 3.754,-8.938 1.2274,-1.0594 2.0926,-3.8903 2.6965,-8.8228 0.4891,-3.9946 0.6554,-7.4967 0.3696,-7.7825 -0.2858,-0.2858 -0.3989,-2.4842 -0.2512,-4.8853 0.1476,-2.4011 -0.2201,-4.6676 -0.8171,-5.0366 -0.5971,-0.369 -0.8378,-1.0719 -0.5349,-1.5621 0.9604,-1.5538 -5.1156,-12.19682 -11.4008,-19.97061 -3.3352,-4.125 -6.0759,-8.13399 -6.0906,-8.90886 -0.043,-2.26033 12.7657,14.75334 16.0892,21.37148 1.6675,3.32059 3.4,6.71239 3.85,7.53739 3.6051,6.6094 5.2235,21.4545 3.1072,28.5 -0.9005,2.9977 -0.9013,2.9969 -1.0892,-1 -0.1862,-3.9607 -0.1964,-3.9705 -1.0358,-1 -0.4662,1.65 -1.0839,4.1579 -1.3726,5.5731 -0.2886,1.4152 -1.6155,4.1804 -2.9486,6.1448 -1.3331,1.9644 -3.14,6.0351 -4.0153,9.046 -0.8753,3.011 -2.271,6.0384 -3.1015,6.7277 -0.8306,0.6893 -1.5101,1.7674 -1.5101,2.3957 0,1.7082 -3.556,8.0138 -7.2423,12.8422 -6.8216,8.9351 -10.1083,12.7532 -10.5759,12.2857 -0.2662,-0.2663 -1.0767,0.2964 -1.8011,1.2503 -0.7244,0.954 -1.3314,1.4232 -1.3489,1.0427 z M 348.60371,1074.8631 c -0.97495,-1.5775 -4.60254,-14.216 -4.60254,-16.0352 0,-1.0668 0.31478,-1.1143 1.40245,-0.2117 1.54197,1.2798 5.03978,14.2543 4.37802,16.2396 -0.32833,0.985 -0.57276,0.9865 -1.17793,0.01 z m 1086.30309,-2.9895 c 0.6078,-1.1358 1.5976,-2.3694 2.1995,-2.7414 0.7842,-0.4846 0.7811,-0.091 -0.011,1.3886 -0.6078,1.1358 -1.5976,2.3694 -2.1995,2.7414 -0.7842,0.4846 -0.7811,0.091 0.011,-1.3886 z m -682.66729,-1.8635 c 0.95609,-0.2503 2.75609,-0.2594 4,-0.02 1.24391,0.2392 0.46166,0.444 -1.73834,0.4551 -2.2,0.011 -3.21775,-0.1846 -2.26166,-0.4349 z m -14.71563,-1.4273 c -3.2875,-0.4787 -6.4375,-1.0873 -7,-1.3524 -1.31572,-0.6199 9.74785,0.4719 14.97729,1.478 3.2593,0.6272 3.44448,0.7674 1,0.7573 -1.65,-0.01 -5.68978,-0.4041 -8.97729,-0.8829 z m -53.77271,-6.6246 c -3.1625,-0.1984 -5.75,-0.7884 -5.75,-1.3109 0,-1.1972 1.67369,-1.1183 11,0.5183 7.39222,1.2972 6.04137,1.5012 -5.25,0.7926 z m -344.9416,-25.783 c -1.56626,-2.4832 -4.58163,-16.5696 -3.47006,-16.2106 1.26181,0.4076 4.8641,13.2887 4.39975,15.7326 -0.16746,0.8813 -0.55091,1.0785 -0.92969,0.478 z m 340.20168,-29.3704 c -1.77842,-0.495 -2.11937,-0.922 -1.19316,-1.4944 1.68399,-1.0408 6.44747,0.15 5.66496,1.4161 -0.66293,1.0727 -0.88531,1.0766 -4.4718,0.078 z m 753.61195,-35.35872 c -2.6153,-3.42884 -6.6608,-12.10483 -6.5661,-14.0818 0.031,-0.6419 0.8182,0.63291 1.75,2.83291 0.9317,2.2 2.8508,5.8 4.2645,8 3.7094,5.77247 4.1056,6.5 3.5395,6.5 -0.2795,0 -1.624,-1.463 -2.9879,-3.25111 z m -152.0227,-38.74889 c 0.3805,-2.475 1.9764,-7.86474 3.5463,-11.97719 3.2488,-8.51045 3.4053,-9.4482 1.4516,-8.69848 -0.7715,0.29607 -2.1936,-0.0399 -3.16,-0.74661 -1.5705,-1.14838 -1.6909,-2.54907 -1.1325,-13.18132 0.6572,-12.51328 3.0898,-21.71295 6.3849,-24.1464 3.2214,-2.37896 7.1677,-1.53223 9.3214,2 1.7534,2.8759 1.982,5.06293 1.9853,19 0,13.04837 -0.2435,15.75 -1.4373,15.75 -2.091,0 -2.7019,-1.45487 -3.284,-7.82093 -0.2856,-3.12349 -0.6475,-5.82475 -0.8042,-6.00281 -0.1567,-0.17805 -1.698,0.40698 -3.425,1.30007 -2.9352,1.51785 -3.1254,1.94513 -2.9154,6.5488 0.1766,3.87036 0.4986,4.69777 1.5034,3.86385 2.2764,-1.88928 3.2691,-0.12258 2.1737,3.86888 -1.7189,6.26411 -8.0045,21.64733 -9.4967,23.24214 -1.2133,1.29676 -1.3097,0.89028 -0.7115,-3 z m 10.8356,-38.97525 c 2.3586,-0.89675 2.5651,-1.45641 2.5651,-6.95295 0,-5.79714 -1.4873,-11.0718 -3.122,-11.0718 -1.5525,0 -4.5706,16.0704 -3.3798,17.99706 0.7601,1.22994 0.7743,1.23004 3.9367,0.0277 z m 129.723,23.97525 c 0,-1.375 0.227,-1.9375 0.5044,-1.25 0.2774,0.6875 0.2774,1.8125 0,2.5 -0.2774,0.6875 -0.5044,0.125 -0.5044,-1.25 z m -1.5019,-20.75 c -1.1364,-17.16126 -0.7884,-29.78881 0.9636,-34.96505 1.5596,-4.60777 8.8682,-16.06417 13.5995,-21.31751 4.5887,-5.09497 10.7809,-12.8439 10.7809,-13.49121 0,-0.36572 2.7313,-4.44842 6.0696,-9.07266 5.3818,-7.45495 9.3515,-11.31576 10.4774,-10.18992 0.5682,0.56819 -11.9895,16.74149 -21.2274,27.33921 -18.555,21.28623 -20.8161,27.53793 -19.7827,54.69714 0.3506,9.2125 0.441,16.75 0.2011,16.75 -0.24,0 -0.7269,-4.3875 -1.082,-9.75 z m -792.98936,-4.91667 c -0.36667,-0.36666 -0.66667,-1.49166 -0.66667,-2.5 0,-1.70698 0.14136,-1.69197 2.05115,0.21782 1.38888,1.38888 2.76112,1.85205 4.25,1.4345 1.73261,-0.48591 1.88079,-0.39398 0.69885,0.43353 -1.69219,1.18475 -5.32517,1.42232 -6.33333,0.41415 z m 14.21104,-6.84683 c 1.69669,-1.93242 3.81074,-4.91714 4.69789,-6.6327 1.94807,-3.76714 1.14478,-4.53428 -5.5756,-5.32473 -6.46894,-0.76087 -15.20745,-2.40318 -15.76763,-2.96337 -0.2637,-0.26369 -0.20906,-1.18406 0.12141,-2.04525 0.52389,-1.36524 0.8479,-1.31877 2.5294,0.36273 1.40993,1.40993 4.03791,2.1212 9.77268,2.645 9.22779,0.84284 11.34414,1.7407 11.34414,4.81272 0,2.30081 -3.25905,7.3885 -6.91428,10.79386 -3.35265,3.12347 -3.48398,2.08286 -0.20801,-1.64826 z m 23.78896,-8.15317 c -0.36667,-0.36666 -0.66667,-1.49777 -0.66667,-2.51357 0,-1.01579 -0.42329,-2.62829 -0.94065,-3.58333 -1.40365,-2.5911 -4.38944,-16.23967 -3.70284,-16.92628 0.81029,-0.81028 3.09894,1.20444 6.92217,6.09365 l 3.20311,4.0962 -3.7409,-2.80089 c -4.41598,-3.30635 -4.49311,-2.96021 -1.73952,7.80623 1.93313,7.55849 2.07593,9.23862 0.6653,7.82799 z m 636.07406,-0.92594 c -0.5796,-0.57963 1.9346,-8.55992 4.3027,-13.65739 2.1201,-4.56338 2.8737,-3.09537 1.2835,2.5 -0.8207,2.8875 -1.7298,6.24876 -2.0202,7.46946 -0.581,2.44153 -2.6611,4.59279 -3.566,3.68793 z m -622.60151,-8.32097 c 2.23862,-1.81456 2.35573,-2.49258 2.26318,-13.10336 -0.0579,-6.64394 0.24885,-10.57073 0.75519,-9.66595 0.46903,0.83811 0.9598,5.99425 1.09061,11.45808 0.25374,10.59887 -0.6361,13.22481 -4.48143,13.22481 -1.8547,0 -1.82966,-0.12862 0.37245,-1.91358 z m -50.27472,-6.72856 c 0.59973,-1.17817 2.5134,-3.3395 4.2526,-4.80294 3.85075,-3.24019 9.15505,-3.27017 9.71456,-0.0549 0.33913,1.94886 0.31135,1.95148 -1.08622,0.10254 -1.99741,-2.64248 -5.58205,-1.54425 -10.23206,3.1348 -2.26179,2.27593 -3.30844,2.91624 -2.64888,1.62052 z m 65.70227,-7.10786 c -2.7472,-5.71172 -4.62271,-11.4026 -3.53667,-10.7314 0.56473,0.34902 1.00725,-1.20065 1.05932,-3.70958 l 0.0894,-4.30902 1.35873,4.5 c 4.96307,16.43727 5.31766,18 4.08433,18 -0.68831,0 -2.06311,-1.6875 -3.05512,-3.75 z m -29.84359,-10.0251 c -3.69775,-3.7263 -6.72318,-7.1013 -6.72318,-7.5 0,-2.16107 3.40086,-0.0667 7.91883,4.87666 9.94557,10.88205 9.01842,12.91629 -1.19565,2.62334 z m 35.1358,1.62729 c 0.45761,-1.23706 1.39525,-2.43693 2.08363,-2.66639 0.96298,-0.321 0.99736,0.0578 0.14912,1.6428 -1.61065,3.00954 -3.24448,3.75855 -2.23275,1.02359 z m 3.7816,-6.35219 c 0.36126,-1.65 1.0114,-3.9 1.44474,-5 0.70933,-1.80054 0.79069,-1.75068 0.81586,0.5 0.0154,1.375 -0.63476,3.625 -1.44475,5 l -1.47269,2.5 0.65684,-3 z m -6.4331,-15.25 c 0.57058,-0.6875 2.0213,-1.25 3.22384,-1.25 1.20253,0 2.95569,0.5625 3.8959,1.25 1.45249,1.06209 0.96787,1.25 -3.22384,1.25 -3.83326,0 -4.70198,-0.27873 -3.8959,-1.25 z m -55.52039,-6.05472 c -3.16345,-3.30193 -3.63205,-5.36043 -0.59447,-2.61146 1.96048,1.77421 4.40114,5.41618 3.62965,5.41618 -0.19145,0 -1.55728,-1.26212 -3.03518,-2.80472 z m 698.40644,1.41741 c -0.9718,-1.171 -0.643,-1.76573 1.7616,-3.18615 3.4519,-2.03913 7.1449,-8.10194 7.1449,-11.72999 0,-2.10805 -0.794,-2.82277 -4.75,-4.2759 -10.7928,-3.96438 -11.25,-4.23522 -11.25,-6.66414 0,-2.96139 8.5682,-9.75651 12.3022,-9.75651 2.4448,0 5.6978,3.1087 5.6978,5.44501 0,0.55 -0.7005,-1.3e-4 -1.5567,-1.2225 -0.8562,-1.22238 -2.3425,-2.22251 -3.303,-2.22251 -2.2773,0 -10.1403,5.79271 -10.1403,7.47037 0,0.71354 2.4869,2.3067 5.5264,3.54036 11.4443,4.64487 13.3361,9.11258 7.2236,17.0587 -4.4358,5.76648 -7.0708,7.45383 -8.6565,5.54326 z m 81.1503,-7.35156 c -0.691,-0.23757 -1.0007,-0.84541 -0.6884,-1.35075 0.6663,-1.07806 -3.5281,-8.91038 -4.7717,-8.91038 -0.4663,0 -2.4634,0.675 -4.4379,1.5 -4.3743,1.8277 -7.5308,1.91347 -9.2005,0.25 -1.0045,-1.00072 0.1023,-1.44963 5.55,-2.25104 8.0429,-1.1832 8.0618,-1.27568 2.296,-11.27621 -4.1805,-7.251 -8.4983,-12.04912 -9.7323,-10.81505 -0.4119,0.41191 -0.8436,7.29359 -0.9593,15.29262 -0.1157,7.99904 -0.419,14.75234 -0.674,15.00734 -0.255,0.255 -0.9897,-0.51935 -1.6327,-1.72078 -1.7173,-3.20881 -0.2515,-29.87124 1.7524,-31.87513 1.0651,-1.06513 1.9179,-1.18809 3.111,-0.44857 2.6203,1.62412 8.347,9.66464 12.136,17.03935 1.9208,3.73861 3.7699,7.02247 4.1091,7.29747 0.3391,0.275 1.2402,2.3 2.0022,4.5 0.7621,2.2 1.7698,4.27892 2.2394,4.61983 1.2876,0.93487 0.3421,3.63691 -1.0993,3.1413 z m -52.4521,-1.52146 c -1.8705,-1.48426 -6.8604,-18.5792 -5.6427,-19.33173 0.468,-0.28928 0.851,-2.33071 0.851,-4.53651 0,-3.56049 0.2465,-3.97467 2.1966,-3.69098 1.2364,0.17987 4.0947,2.72375 6.5389,5.81955 2.3883,3.025 5.6033,7.06305 7.1444,8.97344 l 2.802,3.47344 -0.3946,-10.80637 c -0.2423,-6.63776 0.01,-11.29206 0.6504,-12.06545 0.5747,-0.69249 0.7489,-1.55517 0.387,-1.91707 -0.3619,-0.36189 -0.1596,-0.65799 0.4496,-0.65799 1.5951,0 2.4524,1.75775 1.0804,2.21511 -0.8524,0.28413 -0.6386,4.06559 0.8107,14.33541 1.9189,13.59771 1.9728,16.44948 0.3109,16.44948 -0.4453,0 -4.2312,-4.25402 -8.413,-9.45338 -4.1819,-5.19936 -8.0444,-9.72592 -8.5834,-10.05902 -1.3316,-0.82299 -1.2326,1.40434 0.551,12.40223 0.8375,5.1644 1.3654,9.54725 1.1729,9.73966 -0.1924,0.19242 -1.0528,-0.20801 -1.9121,-0.88982 z m -997.71278,-4.15634 c -0.0434,-1.05416 0.19293,-1.64479 0.52522,-1.3125 0.33229,0.33229 0.36781,1.1948 0.0789,1.91667 -0.31922,0.79773 -0.55618,0.56078 -0.60416,-0.60417 z m 737.43238,-4.20645 c -0.9453,-1.44272 -1.2245,-2.31766 -0.6204,-1.94431 1.1544,0.71346 3.4827,4.56743 2.7593,4.56743 -0.2311,0 -1.1936,-1.18041 -2.1389,-2.62312 z m 360.572,1.25857 c 0.2292,-0.2005 1.5417,-0.90032 2.9167,-1.55516 2.3573,-1.12265 2.3892,-1.10183 0.5589,0.36454 -1.593,1.27626 -4.8479,2.39128 -3.4756,1.19062 z m -410.4572,-10.88545 c -0.3624,-3.4375 -0.9076,-11.65 -1.2117,-18.25 -0.486,-10.54868 -0.3785,-11.78635 0.8887,-10.23344 2.2013,2.69757 3.8176,34.73344 1.7524,34.73344 -0.4238,0 -1.0671,-2.8125 -1.4294,-6.25 z m 425.9568,4.38421 c -0.4307,-0.697 -0.5131,-1.53733 -0.183,-1.86741 0.8949,-0.89496 1.8707,0.4213 1.3874,1.87145 -0.3388,1.01617 -0.5743,1.01538 -1.2044,-0.004 z m -385.7105,-8.88421 c -1.2438,-1.58606 -1.2085,-1.62143 0.3776,-0.37756 0.9625,0.75485 1.75,1.54235 1.75,1.75 0,0.82304 -0.8212,0.29331 -2.1276,-1.37244 z m 203.36,-3.10192 c -1.2047,-0.74879 -10.2324,-21.42723 -10.2324,-23.43802 0,-2.78176 3.3672,2.6179 7.4594,11.96195 4.5993,10.50212 5.199,12.98389 2.773,11.47607 z M 565.10586,738.08729 c -6.14359,-6.26425 -7.18156,-7.76758 -5.86994,-8.50159 0.87635,-0.49044 2.19454,-0.64714 2.92931,-0.34823 2.49808,1.01622 13.02416,16.45972 11.21872,16.45972 -0.44813,0 -4.17327,-3.42446 -8.27809,-7.6099 z m 718.27514,4.83357 c -0.91,-0.58791 -3.9166,-7.42889 -10.0968,-22.97367 -0.2733,-0.6875 0.027,-1.25 0.6662,-1.25 0.6398,0 2.0775,2.1375 3.1948,4.75 1.1174,2.6125 3.3696,7.59113 5.0049,11.06362 2.9164,6.19282 3.4508,9.84416 1.2309,8.41005 z m -228.8376,-10.09081 c -1.3958,-4.39771 -2.2436,-25.18895 -1.1024,-27.0354 0.8709,-1.40924 3.2458,-1.41521 4.1141,-0.0103 0.3695,0.59793 0.2553,1.5037 -0.2539,2.01285 -0.5091,0.50914 -0.7825,6.1306 -0.6075,12.49214 0.316,11.48852 -0.6662,17.21682 -2.1503,12.54074 z M 534.46311,704.73052 c -7.4644,-7.59693 -9.25627,-10.03333 -7.37911,-10.03333 1.09556,0 11.75268,10.97182 14.72387,15.15866 2.89971,4.08611 -0.89771,1.43618 -7.34476,-5.12533 z m 724.49629,-17.62655 c -1.627,-3.62627 -2.9582,-6.92368 -2.9582,-7.32759 0,-0.40391 -1.1493,-3.5627 -2.5539,-7.01955 -2.5391,-6.24867 -2.5069,-9.23087 0.062,-5.71817 1.4197,1.94157 10.4923,24.2119 10.4923,25.75529 0,0.49678 -0.4688,0.90324 -1.0418,0.90324 -0.573,0 -2.373,-2.96695 -4,-6.59322 z M 505.37808,672.94719 c -3.22703,-3.7125 -7.1049,-8.1 -8.61749,-9.75 -1.51259,-1.65 -2.73027,-3.45 -2.70596,-4 0.0498,-1.12602 16.57895,16.03294 18.06182,18.75 2.09134,3.83195 -1.15553,1.42272 -6.73837,-5 z m 545.45002,-14.75 c -1.9796,-17.74767 -2.1511,-22.49418 -0.8839,-24.46612 2.1249,-3.3065 3.1018,4.23454 2.8296,21.84058 l -0.2726,17.62554 -1.6731,-15 z m 541.0494,-7 c -0.1015,-2.75 -0.2293,-10.625 -0.2842,-17.5 l -0.1,-12.5 -4.0934,-7.5 c -3.553,-6.5099 -3.956,-7.86304 -3.0531,-10.25 1.5075,-3.98539 2.6541,-3.37519 2.6541,1.41245 0,2.9868 0.914,5.58672 3.2359,9.20514 l 3.2359,5.04269 0.1983,17.00124 c 0.109,9.35068 -0.2084,17.69587 -0.7055,18.54486 -0.635,1.08458 -0.9586,0.0567 -1.0883,-3.45638 z m -353.4912,-14.18276 c -4.995,-10.96084 -9.6742,-23.36145 -9.0505,-23.9852 1.0673,-1.06731 2.8764,0.99265 4.855,5.52813 3.7907,8.68969 9.8104,24.10618 9.8104,25.12457 0,3.09105 -2.5451,0.0689 -5.6149,-6.6675 z m -769.46846,-3.3525 c -5.45417,-5.51939 -9.89447,-10.80689 -9.86734,-11.75 0.0477,-1.65666 17.84825,16.1423 20.03709,20.03526 1.98469,3.52988 -0.47225,1.52821 -10.16975,-8.28526 z m -30.86138,-32.90742 c -2.99459,-2.71407 -5.88356,-4.66345 -6.41994,-4.33195 -0.5661,0.34986 -0.70734,-0.0954 -0.33667,-1.06133 0.3512,-0.91522 0.31517,-1.66755 -0.0801,-1.67184 -1.12029,-0.0122 -3.12667,-4.93099 -2.2359,-5.48152 0.43665,-0.26986 3.74301,2.63554 7.34746,6.45645 10.43715,11.06393 11.55079,14.99545 1.72511,6.09019 z m 609.09044,-13.83209 c -2.3567,-28.74274 -2.4881,-36.15659 -0.6533,-36.86069 0.9517,-0.36521 2.3626,0.0618 3.2994,0.99872 1.2276,1.22755 1.3003,1.63674 0.2908,1.63674 -1.1102,0 -1.2184,4.09362 -0.6179,23.38142 0.8315,26.70454 -0.5057,32.95767 -2.319,10.84381 z M 367.62617,574.57219 c -0.9632,-4.81598 -0.74028,-11.875 0.375,-11.875 0.57778,0 1,3.16667 1,7.5 0,4.125 -0.16875,7.5 -0.375,7.5 -0.20625,0 -0.65625,-1.40625 -1,-3.125 z m 38.4343,-7.50135 c -7.88789,-7.46414 -9.20629,-9.54674 -6.93305,-10.95168 1.10704,-0.68419 14.94115,12.96694 16.95601,16.73173 2.22195,4.15176 -2.25667,1.56902 -10.02296,-5.78005 z M 1536.3935,548.44719 c -1.6501,-1.7875 -4.7682,-5.5 -6.9291,-8.25 -2.1609,-2.75 -4.2742,-5.15 -4.6961,-5.33333 -0.4219,-0.18334 -0.7671,-0.77586 -0.7671,-1.31673 0,-0.54086 -1.1966,-2.55223 -2.6592,-4.46971 -1.6318,-2.13952 -2.1147,-3.36926 -1.25,-3.18328 1.3944,0.29986 6.293,6.24487 6.5342,7.92995 0.069,0.4802 0.1813,1.34966 0.25,1.93212 0.069,0.58246 0.5158,0.8175 0.9934,0.52232 0.9209,-0.56918 9.9839,10.17648 9.1316,10.82704 -0.275,0.20991 0.3572,1.32889 1.405,2.48663 1.0477,1.15775 1.6985,2.10499 1.4462,2.10499 -0.2524,0 -1.8089,-1.4625 -3.4589,-3.25 z m -492.7436,-32.5 c -0.5089,-4.79943 -0.9868,-24.34631 -0.6785,-27.75 0.05,-0.55 0.6291,-0.1 1.2872,1 1.5065,2.51805 2.4093,32.5 0.9786,32.5 -0.5377,0 -1.252,-2.5875 -1.5873,-5.75 z m 468.2237,1 c -1.2438,-1.58606 -1.2085,-1.62143 0.3776,-0.37756 0.9625,0.75485 1.75,1.54235 1.75,1.75 0,0.82304 -0.8212,0.29331 -2.1276,-1.37244 z m -4.3704,-4.24782 c -0.8285,-0.91546 -1.1679,-2.03761 -0.7542,-2.49366 0.4137,-0.45604 0.2401,-0.53663 -0.3857,-0.17909 -0.6379,0.36443 -2.6794,-1.21293 -4.646,-3.58967 -1.9294,-2.33187 -6.5318,-7.16476 -10.2277,-10.73976 -3.6958,-3.575 -9.473,-9.425 -12.8382,-13 -3.3651,-3.575 -8.2631,-8.63894 -10.8843,-11.2532 -2.6213,-2.61426 -4.7659,-4.97676 -4.7659,-5.25 0,-1.99397 4.4966,2.08641 22.8701,20.7532 23.7289,24.1076 26.6959,27.41667 24.5827,27.41667 -0.7945,0 -2.1223,-0.74902 -2.9508,-1.66449 z M 518.50117,482.69719 c 0.33992,-0.55 1.04148,-1 1.55902,-1 0.51754,0 0.94098,0.45 0.94098,1 0,0.55 -0.70156,1 -1.55902,1 -0.85746,0 -1.2809,-0.45 -0.94098,-1 z m 522.94143,-22.84625 c -1.3968,-3.10121 -1.9298,-29.15375 -0.5966,-29.15375 1.3883,0 2.3456,10.69372 1.9694,22 -0.2548,7.65744 -0.5211,9.04494 -1.3728,7.15375 z m 405.2488,-10.58955 c -0.9955,-0.75471 -1.423,-1.61129 -0.9502,-1.90352 0.4728,-0.29222 1.4036,0.33958 2.0683,1.404 1.4199,2.27354 1.2952,2.32925 -1.1181,0.49952 z m -37.6902,-5.5642 c -0.7725,-0.47742 -1.833,-0.6032 -2.3568,-0.27951 -0.5237,0.32369 -0.6538,0.10562 -0.289,-0.48461 0.3907,-0.63217 -0.5313,-1.3355 -2.2438,-1.71163 -1.7566,-0.38582 -3.1185,-1.44717 -3.4414,-2.68199 -0.3237,-1.23776 -0.9945,-1.75909 -1.7015,-1.3222 -0.8826,0.54553 -0.8918,0.20695 -0.037,-1.38943 1.3288,-2.48299 2.8064,-2.38097 5.3493,0.36937 1.3179,1.42543 1.9982,1.64089 2.3682,0.75 0.8817,-2.12332 2.4959,-1.37783 2.1653,1 -0.2423,1.74193 0.1387,2.20012 1.6871,2.0291 1.1,-0.1215 1.4375,0.0285 0.75,0.33333 -0.6875,0.30483 -1.25,0.99329 -1.25,1.52992 0,0.53663 0.45,0.69757 1,0.35765 0.55,-0.33992 1,-0.16803 1,0.38197 0,1.54144 -1.4441,2.07962 -3,1.11803 z m 16.6584,-16.22814 c -9.2628,-9.35588 -19.6128,-19.29441 -23,-22.08563 -3.3871,-2.79121 -14.8839,-12.97497 -25.5484,-22.63058 -26.1924,-23.71449 -27.6125,-24.9353 -35.36,-30.39763 -3.7125,-2.61749 -6.75,-5.08931 -6.75,-5.49294 0,-0.40362 -1.35,-1.53133 -3,-2.50601 -2.9583,-1.74749 -3.8755,-3.99993 -2.0806,-5.10924 0.5056,-0.31252 1.5181,0.0236 2.25,0.74693 1.2773,1.26246 4.5321,2.93613 6.0613,3.11687 0.402,0.0475 1.4922,1.17351 2.4229,2.50223 0.9307,1.32873 1.1644,2.08967 0.5193,1.69098 -1.834,-1.13344 -1.3744,0.91207 0.5771,2.56897 0.9625,0.81719 3.775,2.65085 6.25,4.0748 2.475,1.42395 6.975,4.90082 10,7.72637 3.025,2.82555 10.5298,9.39514 16.6773,14.5991 6.1475,5.20396 13.5725,12.20503 16.5,15.55795 2.9275,3.35292 8.5899,8.56281 12.5832,11.57754 6.0513,4.56848 14.303,12.14179 18.7395,17.19895 0.55,0.62695 2.0814,2.02855 3.403,3.11469 1.3217,1.08613 2.0958,1.97479 1.7203,1.97479 -0.3755,0 2.2858,2.925 5.914,6.5 3.6282,3.575 6.2631,6.5 5.8554,6.5 -0.4077,0 0.3139,1.12323 1.6036,2.49606 1.2897,1.37283 2.1556,2.6739 1.9243,2.89127 -0.2313,0.21737 -7.9993,-7.25959 -17.2622,-16.61547 z m -48.0003,10.77942 c -0.4139,-1.07853 1.296,-6.1753 2.7458,-8.18446 0.053,-0.0733 1.4461,-0.42084 3.0961,-0.77241 2.3836,-0.50789 3.2686,-0.20759 4.3074,1.46154 1.031,1.65658 1.05,2.41099 0.09,3.56792 -0.6697,0.80693 -1.8349,1.23026 -2.5894,0.94074 -0.8326,-0.31947 -1.7516,0.47251 -2.3379,2.01466 -1.1475,3.01802 -3.3128,2.21494 -2.4628,-0.91343 0.5172,-1.90385 0.4551,-1.95319 -0.5135,-0.40792 -0.606,0.96686 -0.8259,2.20436 -0.4887,2.75 0.3372,0.54564 0.1847,0.99208 -0.3389,0.99208 -0.5236,0 -1.2022,-0.65192 -1.5079,-1.44872 z m 167.9554,-12.36759 c -0.7455,-1.20628 5.0089,-7.23201 6.7848,-7.10474 0.6477,0.0464 0.5866,0.28679 -0.1483,0.58333 -0.6875,0.27741 -1.25,1.16844 -1.25,1.98007 0,0.81163 -0.4286,1.21077 -0.9525,0.887 -0.5239,-0.32378 -1.5826,0.61391 -2.3528,2.08375 -0.8532,1.62845 -1.6662,2.242 -2.0812,1.57059 z m -506.8714,-25.63096 c -1.5214,-9.93111 -2.0894,-24.55273 -0.9537,-24.55273 1.6074,0 2.365,7.1313 2.0183,19 -0.2661,9.11137 -0.4069,9.84572 -1.0646,5.55273 z m 102.1363,-1.78001 c -1.507,-2.81581 -7.8784,-19.00302 -7.8784,-20.01584 0,-0.41629 0.3819,-0.75688 0.8486,-0.75688 0.9846,0 10.1514,19.49949 10.1514,21.59407 0,2.14547 -1.7852,1.67575 -3.1216,-0.82135 z M 336.50117,360.70438 c 6.37901,-0.94831 13.31984,-4.22457 17.39919,-8.21289 4.9741,-4.8631 3.99756,-6.69447 -4.78221,-8.96836 -4.06066,-1.05168 -8.61921,-2.55141 -10.13012,-3.33273 -4.30981,-2.22869 -8.98686,-6.51691 -8.98686,-8.23973 0,-2.12939 7.36348,-11.5306 11.50627,-14.69047 3.85325,-2.93901 7.63669,-3.3006 9.61344,-0.91876 1.21368,1.46239 1.11495,1.565 -0.8927,0.9278 -1.54859,-0.4915 -3.37675,-0.0246 -5.82274,1.48712 -3.84724,2.37772 -11.40427,11.28488 -11.40427,13.44173 0,2.36106 5.99787,6.44472 11.8165,8.0453 12.56234,3.45563 15.66104,4.97403 16.00317,7.84174 0.39644,3.32287 -3.61846,7.33626 -11.03745,11.03329 -4.11126,2.04873 -6.52195,2.55313 -11.72856,2.45401 l -6.55366,-0.12475 5,-0.7433 z m -9.62756,-1.67091 c -1.2554,-1.52184 -1.15924,-1.55292 1.12756,-0.36455 3.35245,1.74217 3.60481,2.02827 1.78911,2.02827 -0.84932,0 -2.16182,-0.74867 -2.91667,-1.66372 z m 709.00079,-8.57325 c -1.5907,-2.97213 -2.5664,-31.76303 -1.0765,-31.76303 0.5877,0 1.2918,0.7875 1.5646,1.75 0.7629,2.69101 1.9426,32.25 1.2871,32.25 -0.3179,0 -1.1168,-1.00664 -1.7752,-2.23697 z m 308.6323,-0.7569 c -0.9985,-1.10337 -1.3508,-2.00613 -0.7829,-2.00613 1.2582,0 3.7524,2.85836 3.0804,3.5303 -0.265,0.26508 -1.2989,-0.4208 -2.2975,-1.52417 z m -227.7168,-9.63261 c -8.1288,-17.79955 -11.2007,-27.18547 -7.7766,-23.76143 2.1244,2.12436 12.0724,26.86257 11.7875,29.31232 -0.2402,2.06519 -1.0351,0.96517 -4.0109,-5.55089 z m 150.0623,-28.43735 c -5.1178,-1.21029 -16.126,-7.44084 -19.8652,-11.24356 -8.8699,-9.02046 -20.9128,-29.55046 -25.0202,-42.65285 -3.2617,-10.40468 -3.5602,-12.40463 -1.7622,-11.8053 0.6619,0.22063 1.9688,3.29563 2.9044,6.83334 3.4299,12.97004 7.3944,21.37649 16.2329,34.4206 8.3592,12.33683 17.4858,19.69281 27.9093,22.4947 2.6125,0.70225 4.75,1.66834 4.75,2.14686 0,0.99026 -0.169,0.9839 -5.149,-0.19379 z m -233.601,-18.62043 c -1.4609,-2.55271 -1.7528,-22.31574 -0.3296,-22.31574 1.1992,0 2.3154,10.85079 1.9031,18.5 -0.2897,5.37321 -0.4541,5.77182 -1.5735,3.81574 z m 72.75,-5.81574 c 1.2917,-1.375 2.5736,-2.5 2.8486,-2.5 0.275,0 -0.5569,1.125 -1.8486,2.5 -1.2917,1.375 -2.5736,2.5 -2.8486,2.5 -0.275,0 0.5569,-1.125 1.8486,-2.5 z m 9,-10 c 0.6847,-0.825 1.4699,-1.5 1.7449,-1.5 0.275,0 -0.06,0.675 -0.7449,1.5 -0.6847,0.825 -1.4699,1.5 -1.7449,1.5 -0.275,0 0.06,-0.675 0.7449,-1.5 z m 103.0782,-41.5 c -0.7965,-6.48182 -0.7423,-12.06414 0.1087,-11.21313 0.5039,0.50395 0.7547,3.79556 0.5573,7.3147 -0.1973,3.51914 -0.4971,5.27343 -0.666,3.89843 z m -188.2889,-15.5 c -1.4381,-6.07066 -2.1136,-25.5 -0.8866,-25.5 1.9248,0 2.1721,2.04789 1.8786,15.55289 -0.1708,7.86345 -0.5603,11.76917 -0.992,9.94711 z m 186.8357,-2.625 c -0.8337,-4.16825 -0.026,-4.97614 0.875,-0.875 0.3797,1.72866 0.4819,3.35146 0.2271,3.60623 -0.2548,0.25477 -0.7507,-0.97429 -1.1021,-2.73123 z m -1.1789,-5.96213 c -0.3695,-0.59793 -0.171,-1.58793 0.441,-2.2 0.8172,-0.81716 1.1129,-0.52829 1.1129,1.08713 0,2.41451 -0.5195,2.78655 -1.5539,1.11287 z m -0.4853,-4.9962 c -0.437,-15.77114 -3.4312,-51.25068 -4.4666,-52.92599 -0.1744,-0.28225 -0.6043,-5.23311 -0.9553,-11.00193 -0.351,-5.76881 -0.8424,-11.47367 -1.0922,-12.67746 -0.2497,-1.2038 0,-2.46786 0.5496,-2.80902 0.5737,-0.35454 1.0466,0.58321 1.1039,2.18871 0.2555,7.16069 1.7971,22.24987 2.688,26.30902 0.5432,2.475 1.2721,9.45 1.6199,15.5 0.3477,6.05 0.807,12.35 1.0206,14 0.7726,5.96807 0.9663,21.43836 0.2771,22.12756 -0.3882,0.38818 -0.7235,0.0683 -0.745,-0.71089 z m -61.3577,-7.7177 c -0.8486,-2.88738 -2.4742,-13.46635 -2.7966,-18.19897 -0.2829,-4.15282 -0.1136,-4.5222 2.1935,-4.78773 2.0396,-0.23473 3.6569,1.10056 8.7812,7.25 3.4546,4.14575 6.667,7.53773 7.1387,7.53773 1.4175,0 2.247,-6.76961 2.2278,-18.18146 -0.018,-10.84307 1.0042,-14.17937 2.8542,-9.31361 1.1988,3.15314 1.2488,22.24726 0.074,28.3255 -1.4437,7.47028 -2.5202,7.45907 -9.4079,-0.098 -3.3924,-3.72214 -6.5056,-6.75964 -6.9181,-6.75 -0.4125,0.01 -0.75,3.34439 -0.75,7.41054 0,5.53298 -0.3645,7.53289 -1.4488,7.94897 -0.8417,0.323 -1.658,-0.15594 -1.9481,-1.14301 z m -100.6379,-12.94897 c -5.2465,-11.70853 -9.0499,-21.49598 -8.7283,-22.46078 0.3909,-1.17267 10.244,20.14855 11.3039,24.46078 1.0426,4.24117 -0.2174,3.26279 -2.5756,-2 z m 154.605,-70.08079 c -0.4081,-5.68194 -0.5226,-10.55014 -0.2545,-10.81823 0.6554,-0.65544 2.0318,18.1149 1.4528,19.81187 -0.251,0.73543 -0.7902,-3.31171 -1.1983,-8.99364 z M 1077.7906,94.639118 c -1.9938,-1.162304 -3.7758,-6.865843 -3.7838,-12.110145 0,-2.017516 -0.2787,-4.380016 -0.6126,-5.25 -0.8415,-2.192879 -3.7249,-1.977467 -5.9144,0.441842 -2.2686,2.506771 -3.8279,1.2163 -2.9168,-2.413895 0.8675,-3.456443 5.6606,-6.096276 8.4035,-4.628318 2.2163,1.186145 4.0209,6.710511 4.0291,12.334325 0,2.098658 0.4994,4.738328 1.1028,5.865933 0.9627,1.798729 1.7057,1.969482 6.0577,1.39216 4.7514,-0.630287 4.915,-0.572897 3.8799,1.361149 -1.98,3.699723 -6.6873,5.081258 -10.2454,3.006949 z m 127.4426,-1.941932 c 0,-1.925 0.2058,-2.7125 0.4573,-1.75 0.2516,0.9625 0.2516,2.5375 0,3.5 -0.2515,0.9625 -0.4573,0.175 -0.4573,-1.75 z m -188.5653,0.333333 c -1.6896,-1.689616 -0.3137,-3.117337 3.4967,-3.628427 3.9924,-0.53549 9.3366,-3.531278 9.3366,-5.233785 0,-0.44717 -2.475,-1.319679 -5.5,-1.938909 -3.025,-0.619229 -6.5072,-1.680287 -7.7382,-2.357906 -2.5116,-1.38254 -3.7706,-5.042218 -2.8982,-8.424306 1.2279,-4.760244 11.0275,-14.75 14.4693,-14.75 1.5671,0 4.2594,3.041719 3.615,4.08429 -0.3138,0.507678 -1.5749,0.670963 -2.8025,0.362855 -2.6954,-0.676517 -6.6563,2.20477 -10.6949,7.779862 -2.7711,3.825448 -2.9863,7.384433 -0.3861,6.386641 0.7185,-0.275712 1.448,-0.08535 1.621,0.423023 0.173,0.508374 2.745,1.384317 5.7154,1.946539 6.4852,1.22747 8.0992,2.406528 8.0992,5.916728 0,3.615515 -2.588,7.029985 -6.5986,8.705695 -3.5191,1.470378 -8.6114,1.851042 -9.7347,0.7277 z m 30.6135,-4.303981 c -1.7708,-1.079744 -4.5833,-3.84558 -6.25,-6.1463 -2.874,-3.96751 -3.0299,-4.677959 -3.0246,-13.78309 0.01,-15.103976 2.6021,-21.099962 9.126,-21.099962 2.3512,0 4.1914,1.059829 7.3849,4.2533 5.1285,5.128548 6.4704,9.3827 6.4779,20.536538 0.01,9.488879 -2.0958,15.024049 -6.4612,17.013101 -3.394,1.54637 -3.4595,1.539378 -7.253,-0.773587 z m 10.0326,-8.029352 c 2.3741,-4.583591 1.8399,-14.839373 -1.0678,-20.5 -2.1473,-4.180275 -6.6145,-7.5 -10.0926,-7.5 -7.1101,0 -6.8592,15.292819 0.4558,27.774927 2.256,3.849404 2.9028,4.305648 5.7178,4.032766 2.4683,-0.239282 3.5771,-1.085863 4.9868,-3.807693 z m 146.8451,6 c 0,-1.375 0.227,-1.9375 0.5044,-1.25 0.2774,0.6875 0.2774,1.8125 0,2.5 -0.2774,0.6875 -0.5044,0.125 -0.5044,-1.25 z m -663.65793,-15 c -0.33992,-0.55 -0.14148,-1 0.44098,-1 0.58246,0 1.05902,0.45 1.05902,1 0,0.55 -0.19844,1 -0.44098,1 -0.24254,0 -0.7191,-0.45 -1.05902,-1 z m 547.65793,-2 c 0,-1.375 0.227,-1.9375 0.5044,-1.25 0.2774,0.6875 0.2774,1.8125 0,2.5 -0.2774,0.6875 -0.5044,0.125 -0.5044,-1.25 z m 98.4724,-65.2500002 c -1.1991,-4.47443508 -0.5176,-6.1809124 0.8985,-2.25 1.7205,4.7755964 1.6845,4.5 0.5878,4.5 -0.4858,0 -1.1547,-1.0125 -1.4863,-2.25 z"
     id="path3118"
     style="fill:#000000" />
</svg>
