<?xml version="1.0" encoding="UTF-8" standalone="no"?>
<!-- Created with Inkscape (http://www.inkscape.org/) -->

<svg
   xmlns:dc="http://purl.org/dc/elements/1.1/"
   xmlns:cc="http://creativecommons.org/ns#"
   xmlns:rdf="http://www.w3.org/1999/02/22-rdf-syntax-ns#"
   xmlns:svg="http://www.w3.org/2000/svg"
   xmlns="http://www.w3.org/2000/svg"
   version="1.1"
   width="683"
   height="892"
   id="svg2"
   xml:space="preserve"><metadata
     id="metadata8"><rdf:RDF><cc:Work
         rdf:about=""><dc:format>image/svg+xml</dc:format><dc:type
           rdf:resource="http://purl.org/dc/dcmitype/StillImage" /><dc:title></dc:title></cc:Work></rdf:RDF></metadata><defs
     id="defs6" /><g
     transform="matrix(1.25,0,0,-1.25,0,891.99997)"
     id="g10"><g
       id="g12"><path
         d="m 0,713.6 0,-304 11.199,-0.801 c 0.278,3.813 2.703,6.668 3.113,10.403 3.153,28.734 6.286,56.671 16.981,84 20.539,52.46 57.996,98.984 107.105,127.523 16.77,9.742 34.52,16.164 52.801,22.238 19.321,6.422 40.266,12.211 60.801,12.637 -0.648,-8.516 -8.785,-4.289 -14.402,-5.688 C 222.016,656.034 206.5,653.936 191.199,648.19 139.074,628.616 91.809,597.729 61.883,549.569 50.715,531.6 39.363,510.944 32.508,490.971 11.09,428.569 16.223,357.741 43.43,298.401 c 13.031,-28.422 32.39,-53.813 54.375,-75.797 5.394,-5.395 10.613,-10.317 16.593,-15.082 1.887,-1.504 4.543,-4.422 7.188,-4.227 3.906,0.282 6.809,8.387 9.625,10.864 9.223,8.105 22.851,9.257 31.957,17.222 8.25,7.215 10.277,21.594 3.559,30.145 -3.551,4.515 -8.743,6.535 -13.125,9.984 -8.184,6.445 -16.696,15.086 -23.457,23.027 -16.457,19.329 -29.395,49.668 -35.254,74.231 -2.504,10.5 -0.075,25.598 -4.407,35.113 -1.621,3.567 -12.504,0.395 -11.578,5.578 0.86,4.828 9.684,-0.648 11.508,4.258 0.902,2.43 -0.109,5.332 0.402,7.883 2.137,10.656 4.723,21.465 7.493,32 5.722,21.801 15.925,43.957 27.996,62.973 15.297,24.097 39.074,40.402 64.894,51.101 46.508,19.274 95.637,22.746 143.199,4.215 56.051,-21.836 93.457,-76.469 105.446,-133.488 2.054,-9.774 5.488,-22.137 5.418,-32 -0.024,-3.028 -1.891,-5.715 -2.008,-8.801 -0.711,-18.691 -2.527,-36.934 -9.996,-54.398 -9.922,-23.207 -22.266,-42.145 -38.196,-61.602 -8.937,-10.922 -20.839,-16.391 -25.773,-30.398 -6.758,-19.204 17.246,-32.918 30.711,-40.872 4.004,-2.363 9.043,-7.191 13.602,-8.109 5.152,-1.035 11.734,6.449 15.199,9.441 9.914,8.559 19.379,18.25 27.738,28.336 4.074,4.914 6.766,11.516 13.859,12 0.04,12.422 12.309,26.778 18.266,37.602 13.316,24.203 22.59,53.461 25.859,80.801 0.981,8.195 4.93,21.621 1.793,29.554 -1.171,2.969 -4.804,4.704 -6.714,7.247 l 5.597,1.597 c 2,96.953 -60.824,188.606 -147.199,230.395 -23.566,11.398 -54.426,20.136 -80.801,20.793 -5.191,0.129 -17.851,2.941 -21.918,-0.739 -2.011,-1.82 -0.394,-4.894 -1.996,-6.875 -0.933,-1.156 -2.254,-0.683 -2.734,0.594 -0.504,1.336 -2.078,12.371 -1.778,12.613 3.59,2.911 18.27,-0.21 22.829,-0.644 21.707,-2.066 42.332,-4.852 63.199,-11.875 59.426,-20.004 114.57,-62.805 144.492,-118.672 9.75,-18.207 19.398,-37.684 25.094,-57.59 15.617,-54.543 11.394,-114.789 -9.184,-167.199 -5.301,-13.504 -10.613,-27.805 -18.551,-40 -11.375,-17.48 -23.812,-34.055 -38.789,-48.57 -4.836,-4.692 -9.832,-9.848 -15.093,-14.032 -4.082,-3.242 -9.891,-6.011 -12.84,-10.429 -2.317,-3.469 0.8,-7.399 1.445,-10.969 0.715,-3.945 -0.875,-7.75 -2.68,-11.199 C 413,163.537 397.461,154.748 398.477,141.6 c 1.671,-21.719 29.16,-31.883 44.722,-41.453 8.793,-5.406 19.758,-13.277 25.77,-21.746 2.664,-3.754 0.886,-10.274 4.086,-12.926 4.383,-3.637 11.527,-2.563 16.547,-4.887 11.574,-5.355 18.101,-13.004 24.746,-23.789 3.507,-5.683 -7.188,-10.789 -11.907,-9.101 -3.707,1.324 -4.879,5.929 -8.839,7.504 l -0.801,-7.204 -1.602,0 -8.801,16.801 10.403,-8.801 0,5.602 12.801,-12.801 c 0.644,5.645 -4.258,9.317 -7.934,12.938 -8.301,8.183 -17.598,12.41 -29.668,13.465 1.285,-9.676 15.652,-26.332 24,-31.204 -6.594,-7.242 -11.105,5.649 -14.332,10.403 -4.813,7.094 -12.426,19.082 -19.414,24.004 -3.168,2.23 -6.813,1.718 -10.223,3.07 -9.461,3.746 -19.203,8.008 -29.633,8.926 2.668,-9.239 9.5,-18.574 13.801,-27.199 2.281,-4.579 5.707,-8.293 4.602,-13.602 -4.571,2.734 -4.981,8.34 -7.293,12.801 -3.93,7.57 -8.684,14.457 -13.356,21.57 -3.14,4.789 -5.09,10.008 -11.351,10.43 1.258,-6.52 6.39,-11.797 9.394,-17.602 1.903,-3.676 3.367,-7.57 5.352,-11.199 2.043,-3.73 5.418,-7.836 6.383,-12 0.476,-2.051 -0.422,-6.039 -3.325,-4.199 -3.285,2.09 -3.554,10.285 -5.128,13.801 -5.153,11.492 -16.247,35.355 -30.278,36 0.696,-6.219 6.469,-10.938 9.856,-16 7.48,-11.188 14.847,-22.391 18.945,-35.204 -8.953,0.493 -7.848,10.055 -10.898,16.801 -2.102,4.649 -6.028,8.668 -8.989,12.801 -7.332,10.227 -15.301,26.77 -30.511,22.398 6.992,-14.039 23.816,-30.023 24,-46.398 -4.153,2.09 -4.586,6.551 -6.743,10.398 -4.957,8.856 -11.273,17.247 -15.629,26.403 -2.777,5.836 -6.66,14.668 -14.96,9.254 -3.047,-1.989 0.55,-5.7 1.808,-7.657 4.313,-6.722 6.902,-14.918 9.555,-22.398 0.484,-1.367 4.586,-9.391 1.051,-9.324 -4.008,0.078 -4.727,9.726 -6.09,12.523 -5.258,10.809 -8.203,24.656 -20.992,28 l 16.796,-40 c -7.207,0.055 -6.148,5.813 -8.25,11.199 -2.8,7.184 -9.179,25.254 -16.546,28 0.632,-6.195 4.836,-10.574 7.464,-16 1.469,-3.031 2.489,-6.437 3.684,-9.597 0.68,-1.809 5.926,-13.547 3.137,-13.446 -2.989,0.106 -3.934,5.719 -4.875,7.844 -3.703,8.403 -7.774,16.571 -11.836,24.801 -1.031,2.094 -5,9.336 -8.11,5.902 -2.234,-2.472 0.856,-7.449 1.805,-9.902 3.317,-8.559 8.504,-16.195 11.766,-24.801 1.601,-4.23 3.332,-7.972 -1.438,-10.398 -1.519,8.551 -6.394,22.941 -14.398,27.199 0.672,-7.641 5.781,-14.668 8.832,-21.602 0.558,-1.261 2.656,-7.351 -0.836,-6.695 -2.996,0.567 -3.485,6.805 -4.301,9.098 -2.43,6.801 -6.512,16.765 -13.297,20 l 9.602,-28 c -8.012,4.027 -9.781,19.398 -15.688,26.293 -3.816,4.453 -11.718,4.14 -17.113,4.105 -2.043,-0.012 -5.664,0.344 -5.844,-2.519 -0.23,-3.758 2.766,-8.575 4.282,-11.879 3.679,-8.031 9.285,-17.606 10.363,-26.403 -8.914,3.024 -12.574,22.043 -16,30.403 l -1.602,0 c -0.789,-3.285 -2.293,-7.852 -1.742,-11.199 1.121,-6.844 4.801,-9.426 3.027,-16.801 -0.746,-3.102 -0.125,-8.781 -4.484,-9.434 -3.035,-0.453 -4.078,3.09 -3.797,5.434 1.664,13.941 0.918,26.441 -8.195,38.219 -2.266,2.925 -5.539,2.332 -8.809,2.726 -7.894,0.957 -15.965,1.453 -24,1.453 l 12,-32.801 c -6.062,0.684 -4.621,4.215 -6.457,8.801 -2.93,7.297 -7.211,21.625 -15.14,24 -2.145,-8.605 7.386,-19.594 9.468,-27.996 0.532,-2.152 -0.738,-5.48 -3.078,-2.902 -1.758,1.937 -2.449,5.285 -3.304,7.699 -0.899,2.52 -1.774,4.867 -3.086,7.199 -5.844,-0.187 -12.883,20.164 -16,25.602 2.586,-0.106 4.789,-2.805 7.195,-2.465 4.558,0.644 4.824,8.008 4.004,11.266 l -0.801,0 -1.602,-4.801 c -3.23,1.121 -5,3.82 -8.031,5.187 -5.226,2.364 -23.765,4.199 -28.765,2.012 5.086,-10.285 13.632,-23.809 15.199,-35.199 5.738,3.722 -2.192,17.574 -4.473,22.386 -0.648,1.364 -4.601,5.915 -2.961,7.286 2.043,1.714 5.856,-5.192 6.535,-6.473 2.16,-4.047 11.676,-19.602 8.465,-23.746 -2.789,-3.594 -10.219,-1.527 -13.969,-1.055 1.133,9.582 -4.601,18.024 -8.476,26.403 -1.574,3.402 -2.184,7.367 -5.293,9.839 -4.395,3.496 -11.277,3.746 -16.629,3.758 3.07,-14.328 11.203,-28.074 17.602,-40.801 -10.555,0.172 -14.914,22.969 -18.235,31.204 -1.523,3.769 -2.496,9.687 -7.375,10.265 -2.168,0.254 -4.597,-0.508 -4.113,-3.113 1.683,-9.098 9.715,-18.942 12.883,-27.953 0.843,-2.414 3.383,-7.989 -0.176,-9.492 -4.024,-1.696 -3.125,6.675 -3.688,8.691 -2.761,9.91 -8.089,19.918 -13.339,28.695 -2.25,3.75 -8.371,4.625 -9.957,0.106 9.125,-3.18 11.058,-16.262 14.636,-24 2.297,-4.977 5.16,-8.629 4.563,-14.403 -8.508,3.844 -7.637,15.196 -10.973,23.067 -1.125,2.66 -3.426,4.789 -4.82,7.336 -1.875,3.433 -3.758,9.48 -8.223,10.047 -4.441,0.566 -10.195,-3.219 -14.387,-4.629 -3.234,-1.086 -14.523,-2.043 -14.628,-6.266 -0.063,-2.558 2.175,-4.832 2.996,-7.152 3.254,-9.192 12.289,-20.371 11.632,-30.403 -4.429,2.379 -4.152,5.403 -6.011,9.602 -3.817,8.629 -6.649,18.937 -13.11,26.086 -3.914,4.328 -22.523,2.387 -23.086,-4.563 -0.8,-9.996 10.543,-20.226 11.809,-30.324 -9.504,3.328 -9.715,21.137 -16.039,28.449 -5.402,6.25 -5.246,-4.343 -3.5,-7.648 1.234,-2.34 2.101,-4.758 3.101,-7.199 C 61.414,49.87 64.688,45.862 64,40.799 57.344,44.526 55.312,68.803 45.602,65.6 L 56,38.401 c -7.113,3.801 -6.703,12.75 -10.18,19.195 -1.273,2.363 -3.597,5.223 -6.5,3.363 -4.992,-3.199 5.528,-14.836 7.524,-18.558 0.676,-1.266 4.027,-6.781 0.871,-7.375 -2.797,-0.528 -5.008,3.679 -5.668,5.773 C 39.898,47.577 30.754,57.83 34.273,64.787 39.805,75.729 57.055,80.03 68,82.389 c 4.176,0.898 9.801,0.625 13.418,3.16 3.777,2.649 3.953,11.168 6.48,15.25 6.497,10.5 16.227,22.871 26.575,29.875 10.047,6.797 36.14,10.028 36.64,25.321 0.168,5.136 -4.14,5.046 -7.914,6.675 -5.75,2.485 -12.414,6.391 -16.726,10.942 -7.481,7.898 -4.071,16.886 -9.344,24.777 -3.52,5.27 -9.906,9.02 -14.594,13.172 -8.14,7.211 -15.64,15.223 -23.316,22.91 C 49.957,263.776 33.336,301.87 22.367,340.799 16.457,361.787 11.48,384.776 16,406.401 l -16,0.801 0,-407.204 271.199,0 c -3.054,9.125 7.594,8.387 4.801,0 l 270.398,0 0,404.801 -12.796,-0.801 c 2.789,5.586 7.644,4.809 12.796,3.204 l 0,306.398 -284.796,0 c 0.894,-2.117 4.027,-12.633 -0.77,-12.633 -3.48,0 -1.555,10.738 -0.832,12.633 l -260,0 z"
         id="path14"
         style="fill:#ffffff;fill-opacity:1;fill-rule:nonzero;stroke:none" /><path
         d="m 260.211,712.522 c -2.481,-0.949 -2.402,-13.047 1.195,-11.922 3.824,1.199 2.328,13.273 -1.195,11.922 m 2.988,-24.524 c -9.453,-4.726 1.574,-14.125 0.957,-3.234 -0.066,1.207 -0.535,2.125 -0.957,3.234 m 252,-279.199 -5.597,-1.597 c 1.707,-3.438 6.031,-4.965 6.933,-8.805 1.918,-8.172 -1.027,-18.981 -2.012,-27.195 -3.261,-27.254 -12.777,-54.665 -25.019,-79.204 -6.086,-12.191 -19.094,-26.23 -19.106,-40 -7.621,-0.23 -10.086,-6.859 -14.543,-12 -8.41,-9.699 -17.347,-19.242 -27.054,-27.66 -3.332,-2.886 -10.242,-10.867 -15.199,-9.676 -4.348,1.047 -8.954,5.395 -12.801,7.668 -12.715,7.508 -37.969,21.7 -31.512,40.071 4.957,14.097 16.777,19.445 25.773,30.398 15.954,19.426 28.278,38.406 38.196,61.602 7.574,17.719 9.312,36.261 10.094,55.199 0.128,3.082 2.07,5.711 2.082,8.801 0.031,10.113 -3.481,22.773 -5.59,32.801 C 427.562,497.608 391.078,546.713 336,571.557 267.129,602.616 170.637,579.537 126.773,517.94 111,495.784 101.465,467.772 95.117,441.6 c -2.133,-8.793 -2.406,-18.668 -4.859,-27.152 -1.68,-5.809 -11.09,0.242 -11.922,-4.989 -0.836,-5.273 10.414,-2.214 12.148,-6.308 4.094,-9.66 1.676,-23.871 4.18,-34.352 5.891,-24.652 18.684,-55.742 35.481,-74.972 6.687,-7.657 14.679,-16.036 22.656,-22.317 4.707,-3.707 10.179,-5.812 13.926,-10.742 6.73,-8.867 4.082,-22.195 -4.34,-29.387 -9.223,-7.879 -22.825,-8.965 -31.953,-17.222 -2.676,-2.422 -5.43,-10.793 -9.637,-10.227 -7.887,1.066 -17.656,13.996 -22.992,19.27 -22.125,21.851 -40.282,47.281 -54.008,75.199 -24.086,48.988 -29.438,105.097 -18.844,158.398 2.176,10.942 3.906,23.828 7.945,34.172 7.735,19.809 17.883,39.598 28.985,57.816 29.578,48.555 77.945,79.809 130.117,99.403 15.078,5.66 30.258,7.562 45.602,11.328 5.843,1.434 14.121,-2.383 14.398,6.082 -20.773,-0.172 -42.074,-6.148 -61.602,-12.637 -18.281,-6.074 -36.031,-12.496 -52.796,-22.238 C 88.785,602.358 51.707,556.143 31.293,503.998 c -10.695,-27.324 -13.828,-55.265 -16.981,-84 -0.441,-4.023 -2.98,-7.019 -3.113,-11.199 -2.148,0.91 -14.652,1.297 -9.328,-2.054 4.152,-2.618 9.567,0.691 14.129,-0.344 -4.816,-16.649 -0.816,-36.223 3.062,-52.801 10.387,-44.363 27.54,-82.891 57.977,-117.59 7.731,-8.808 16.656,-17.367 25.496,-25.082 4.758,-4.148 11.074,-7.988 14.594,-13.332 3.402,-5.16 1.309,-12.094 4.113,-17.598 4.012,-7.859 11.891,-12.746 19.559,-16.578 3.398,-1.695 9.816,-1.933 10.207,-6.636 0.445,-5.289 -3.942,-8.981 -7.809,-11.743 -8.746,-6.25 -19.699,-8.261 -28.726,-13.886 C 103.918,124.58 93.648,111.354 87.406,100.799 84.906,96.573 85.137,89.131 81.418,86.053 77.949,83.182 72.203,83.393 68,82.553 57.184,80.389 38.832,76.006 33.895,64.787 c -3.098,-7.035 5.769,-18.941 8.417,-25.585 0.747,-1.879 3.418,-6.008 5.993,-4.54 1.992,1.137 0.504,4.676 -0.168,6.137 -2.492,5.406 -6.051,9.879 -9.184,14.863 -1.367,2.168 -0.726,5.75 2.617,5.321 C 49.93,59.905 47.426,41.405 56,38.401 L 45.602,65.6 C 56.016,67.983 56.152,43.678 64,40.799 c 1.277,5.238 -2.512,9.692 -4.438,14.403 -0.878,2.148 -1.609,4.324 -2.671,6.398 -1.672,3.258 -1.922,13.379 3.07,7.004 5.355,-6.84 7.047,-25.934 16.039,-27.805 -0.637,9.887 -8.195,18 -11.113,27.199 -2.641,8.332 14.113,11.891 19.832,9.164 8.316,-3.964 12.222,-20.574 15.668,-28.363 1.789,-4.039 1.328,-7.152 6.011,-8.801 2.403,12.293 -12.468,24.969 -14.14,36.786 -0.684,4.836 12.277,6.179 15.742,7.308 3.68,1.199 8.906,4.75 12.785,4.102 4.117,-0.688 6.067,-6.563 7.809,-9.793 1.508,-2.793 4.039,-5.164 5.234,-8.074 3.098,-7.52 2.285,-19.594 10.973,-22.329 1.254,5.868 -2.235,10.157 -4.563,15.204 -3.359,7.265 -5.406,21.293 -14.636,23.199 2.238,3.832 7,3.636 9.531,-0.106 5.625,-8.324 10.586,-19.07 13.519,-28.695 0.7,-2.289 -0.523,-10.777 3.938,-9.07 3.484,1.332 1.527,6.64 0.726,9.07 -2.714,8.227 -6.121,15.578 -10.257,23.199 -1.325,2.438 -5.477,9.61 0.933,8.5 4.481,-0.773 5.668,-6.558 7.059,-10.097 3.051,-7.79 8.258,-32.504 18.551,-31.204 L 152,88.799 c 5.211,-0.043 11.582,-0.519 15.914,-3.758 3.551,-2.652 4.262,-6.867 6.008,-10.64 3.832,-8.281 9.023,-16.145 8.476,-25.602 3.614,-0.668 12.079,-2.59 14.633,1.055 1.551,2.215 -0.504,4.875 -1.355,6.945 -2.547,6.188 -4.789,12.629 -8.223,18.403 -0.758,1.269 -4.582,7.8 -6.598,5.082 -1.539,-2.079 2.239,-5.731 3.11,-7.497 2.644,-5.347 9.75,-17.554 4.836,-22.386 l -8.5,20 -6.699,15.199 c 5.984,1.691 21.207,0.336 27.195,-1.719 3.726,-1.281 5.617,-4.66 9.601,-5.48 l 1.602,4.801 0.801,0 c 0.492,-3.118 0.195,-11.188 -4.742,-10.711 -2.684,0.257 -3.489,2.351 -6.457,1.91 l 11.539,-24.535 4.461,-1.067 c 0.972,-2.39 1.945,-4.758 2.8,-7.199 0.887,-2.527 1.621,-6.379 3.59,-8.301 2.692,-2.629 3.891,1.336 3.363,3.504 -2.136,8.766 -11.093,18.945 -9.753,27.996 8.043,-3.57 11.234,-16.34 14.773,-24 2.18,-4.711 0.426,-8.445 6.824,-8.801 l -12,32.801 c 7.992,-0.004 28.688,1.875 33.278,-5.633 7.785,-12.73 9.449,-22.32 7.414,-36.765 -0.336,-2.367 0.453,-5.719 3.382,-5.871 5.004,-0.262 4.415,5.886 5.215,9.07 2.532,10.086 -3.285,18.078 -1.289,28.801 l 1.602,0 c 2.25,-7.875 7.445,-28.66 16,-30.403 -0.844,13.266 -13.59,24.457 -14.227,37.555 -0.336,6.938 19.125,2.18 21.922,-0.859 5.684,-6.176 8.422,-23.907 16.305,-26.293 l -9.602,28 c 6.809,-4.899 11.379,-14.5 13.821,-22.403 0.593,-1.921 1.261,-7.812 4.371,-7.261 2.953,0.523 1.242,5.66 0.593,7.261 -2.879,7.149 -8.035,13.926 -9.183,21.602 7.887,-6.156 11.73,-17.848 14.398,-27.199 5.418,1.644 3.223,6.277 1.727,10.398 -3.051,8.387 -8.422,15.668 -11.469,24 -0.812,2.227 -4.879,8.906 -1.84,10.735 3.254,1.953 6.504,-4.594 7.559,-6.735 3.66,-7.422 7.656,-14.73 10.785,-22.398 1.016,-2.489 2.262,-8.137 4.676,-9.531 5.672,-3.278 -0.961,11.792 -1.594,13.531 -1.242,3.422 -2.395,7.129 -3.977,10.398 -2.504,5.168 -6.433,9.418 -7.464,15.199 7.511,-4.273 12.859,-20.136 16.222,-28 2.266,-5.3 1.094,-12.089 8.574,-11.199 l -16.796,40 c 12.406,-4.312 15.207,-17.097 20.601,-28 1.481,-2.996 2.383,-12.871 6.52,-12.996 4.195,-0.129 -0.18,8.156 -0.793,9.797 -2.524,6.758 -4.942,13.48 -8.086,20 -1.125,2.34 -4.184,5.258 -4.274,7.887 -0.125,3.59 6.946,3.648 9.145,2.718 3.91,-1.652 5.14,-7.933 6.894,-11.406 4.313,-8.535 10.043,-16.488 14.789,-24.801 2.157,-3.769 2.743,-9.046 7.204,-10.398 -0.055,15.25 -15.379,34.395 -24,46.398 15.144,3.297 22.484,-11.98 29.933,-22.398 2.992,-4.18 6.848,-8.227 9.188,-12.801 3.547,-6.929 1.836,-16.57 11.277,-16.801 -3.023,13.188 -11.488,24.856 -18.945,36 -3.243,4.848 -8.688,9.422 -9.856,15.204 13.797,-1.215 25.149,-25.36 30.278,-36.801 1.558,-3.477 1.722,-10.676 4.531,-13.102 2.82,-2.437 4.465,0.992 4.226,3.504 -0.429,4.496 -4.074,8.942 -6.23,12.797 -2.031,3.625 -3.531,7.5 -5.41,11.199 -3.02,5.949 -7.758,11.211 -9.793,17.602 5.328,-0.715 6.57,-4.176 9.355,-8.231 5.5,-7.996 10.875,-15.949 15.352,-24.57 2.168,-4.184 2.496,-10.117 7.293,-12 1.519,5.34 -1.863,9 -4.196,13.602 -4.55,8.976 -10.308,17.894 -14.207,27.199 10.2,-1.528 19.532,-5.129 28.872,-8.926 3.722,-1.516 7.609,-0.918 10.984,-3.594 9.75,-7.742 18.332,-22.492 24.746,-33.047 2.434,-4.007 6.402,-5.062 9,-0.836 -8.227,7.207 -21.441,20.321 -24,31.204 12.598,-1.856 20.777,-5.629 29.668,-14.172 3.687,-3.543 7.617,-6.832 7.934,-12.231 l -12.801,12.801 0,-5.602 -10.403,8.801 8.801,-16.801 1.602,0 0.801,7.204 c 3.171,-1.883 4.918,-6.196 8.105,-7.52 4.254,-1.766 16.602,2.523 13.699,8.316 -5.515,11.016 -14.019,19.5 -25.008,24.59 -5.21,2.418 -13.007,1.239 -17.339,5.418 -3.063,2.957 -1.286,9.254 -4.09,13.196 -6.094,8.554 -17.531,16.664 -26.571,21.906 -15.066,8.738 -43.933,20.847 -43.933,42.094 0,11.55 15.066,20.554 20.23,30.398 1.782,3.402 3.582,7.289 3.024,11.199 -0.481,3.367 -3.508,7.817 -1.699,11.063 2.48,4.461 8.812,7.508 12.75,10.55 5.312,4.102 10.238,9.274 15.093,13.926 15.024,14.395 27.453,31.039 38.789,48.461 7.938,12.199 13.25,26.496 18.551,40 19.656,50.063 24.492,107.477 11.692,160 -6.313,25.91 -18.965,51.27 -32,74.403 -5.7,10.121 -13.657,18.988 -20.895,28 -31.863,39.668 -78.75,73.07 -128.801,84.957 -19.789,4.699 -38.777,8.722 -59.199,9.433 -2.723,0.094 -18.98,2.391 -18.465,-1.64 0.211,-1.668 3.899,-12.977 4.797,-12.817 3.973,0.723 0.645,8.496 7.27,9.41 9.66,1.328 20.078,-1.652 29.597,-2.703 34.692,-3.828 64.074,-16.945 94.403,-33.547 20.253,-11.086 37.234,-27.48 52.871,-44.297 43.418,-46.691 69.254,-107.527 68.726,-171.199 M 261.781,630.33 c -3.906,-1.988 -3.027,-14.902 2.071,-13 4.488,1.672 4.171,16.176 -2.071,13 m 1.485,-30.472 c -2.969,-0.485 -3.344,-7.684 -0.067,-7.121 2.934,0.504 3.328,7.656 0.067,7.121 z"
         id="path16"
         style="fill:#19272c;fill-opacity:1;fill-rule:nonzero;stroke:none" /><path
         d="m 266.398,579.202 c -1.578,0.183 -3.199,0.5 -4.8,0.429 -10.325,-0.441 -0.176,-13.301 4.05,-4.418 0.622,1.305 0.649,2.586 0.75,3.989 m 82.403,-314.403 c 9.054,6.946 7.293,17.547 12.984,26.403 7.516,11.691 20.168,19.972 26.918,32 6.641,11.832 6.051,24.593 4.836,37.597 -1.094,11.727 -3.535,22.309 -8.945,32.801 -2.422,4.695 -5.324,10.422 -11.676,8.547 -3.23,-0.953 -2.234,-4.574 -1.344,-6.945 3.235,-8.614 5.371,-16.915 8.102,-25.602 6.094,-19.402 -1.27,-31.992 -9.621,-48.813 -4.426,-8.906 -8.121,-19.675 -17.25,-25.113 -5.157,-3.07 -3.743,2.602 -1.516,5.125 17.586,19.953 27.125,44.606 20.793,71.199 -2.773,11.637 -6.32,22.875 -9.266,34.403 -1.425,5.586 -4.171,10.32 -2.015,16 6.609,-3.617 4.625,-13.332 12.801,-13.602 -0.887,6.77 -6.223,13.196 -9.348,19.199 -3.977,7.653 -5.988,16.207 -9.68,24 -1.508,3.192 -7.996,11.336 -5.711,14.899 2.25,3.508 6.016,-3.004 7.039,-4.496 4.84,-7.039 8.11,-14.801 11.899,-22.403 6.472,-12.976 16.148,-23.046 23.219,-35.211 8.769,-15.085 13.308,-33.789 12.109,-51.187 -0.984,-14.266 -6.574,-30.289 -15.441,-41.602 -5.614,-7.16 -13.458,-11.976 -18.817,-19.336 -5.031,-6.91 -5.004,-14.457 -8.957,-21.46 -2.891,-5.118 -8.641,-9.7 -10.312,-15.204 9.367,1.043 12.843,11.539 17.589,18.254 6.946,9.836 15.973,16.231 21.586,27.348 9.118,18.062 24.637,37.383 25.59,58.398 0.399,8.707 -1.023,19.579 -5.551,27.204 -3.683,6.203 -9.543,11.265 -12.761,17.734 -5.969,12 -13.805,23.363 -18.977,35.863 -4.207,10.164 -6.59,21.508 -9.078,32 l 0.801,0.801 c 11.023,-3.527 10.437,-16.316 15.621,-25.602 4.476,-8.019 8.191,-16.441 13.586,-23.968 4.355,-6.082 10.336,-11.684 14.254,-17.891 4.652,-7.367 7.047,-16.027 10.937,-23.738 l 0.801,0 c 1.297,10.297 0.68,21.136 -4.41,30.398 -6.559,11.93 -18.508,21.184 -22.715,34.403 -2.457,7.714 -5.629,23.726 4.727,26.398 -0.344,-17.148 6.453,-25.438 15.535,-39.199 3.175,-4.813 6.301,-12.594 10.863,-16 -1.566,11.57 -8.129,21.035 -11.297,32 -2.371,8.203 2.926,17.539 0.223,24.801 -3.715,9.976 -11.59,19.726 -18.168,28 -18.215,22.906 -37.313,39.125 -63.559,52.328 -8.5,4.277 -16.508,10.343 -25.597,13.351 -6.852,2.266 -14.145,1.36 -20.801,3.797 -5.414,1.984 -18.434,2.844 -21.117,-3.922 -1.825,-4.597 -0.485,-11.855 -0.485,-16.758 0,-15.285 -3.629,-43.738 10.403,-52.988 7.648,-5.047 17.156,-4.734 25.597,-7.488 16.653,-5.43 38.715,-18.563 44.285,-36.32 4.461,-14.227 6.5,-28.786 9.739,-43.204 3.023,-13.464 8.41,-26.921 9.207,-40.796 0.41,-7.172 -1.52,-16.04 -2.567,-23.204 -1.804,-12.39 -12.168,-20.886 -16.66,-32 -4.523,-11.171 -1.621,-19.355 -0.094,-30.398 0.95,-6.867 0.09,-14.082 1.692,-20.801 M 125.602,487.202 c 8.394,17.75 24.429,31.308 38.328,44.664 5.922,5.691 13.785,11.191 17.672,18.535 l -0.801,0.801 c -29.688,-11.403 -49.207,-45.106 -62.696,-72 -4.699,-9.372 -12.507,-25.207 -10.906,-36 3.531,2.152 9.203,15.496 14.102,11.269 2.433,-2.105 -0.481,-5.297 -1.817,-7.137 -4.539,-6.238 -8.519,-12.683 -10.683,-20.132 -1.258,-4.332 -1.719,-9.469 -3.723,-13.52 -1.199,-2.426 -3.758,-3.668 -4.148,-6.516 -0.504,-3.691 1.148,-7.5 1.398,-11.168 0.258,-3.753 -0.93,-7.488 -0.476,-11.199 1.336,-10.875 6.023,-22.402 9.347,-32.801 l 0.801,0 c -0.66,15.375 -8.246,29.168 -4.648,44.801 3.793,16.473 17.609,27.063 22.64,42.403 2.098,6.398 -0.918,12 0.371,17.597 0.617,2.672 3.219,4.399 4.629,6.629 1.262,1.996 4.223,9.027 7.684,5.543 2.734,-2.754 -3.461,-7.641 -3.805,-10.582 -0.656,-5.644 1.672,-11.262 -0.758,-16.789 -4.758,-10.84 -16.301,-19.68 -18.914,-31.199 4.098,-0.942 8.875,0.812 10.403,-4 -4.575,0 -11.5,1.312 -14.844,-2.582 -2.356,-2.75 -1.172,-6.91 -1.16,-10.219 0.043,-8.438 -0.7,-17.492 1.57,-25.602 0.863,-3.078 0.391,-6.156 3.23,-8 0.532,25.653 18.094,43.524 28.481,65.602 4.23,8.992 3.594,17.516 5.945,26.398 2.352,8.895 8.977,18.848 18.375,15.204 1.539,2.128 3.078,4.164 4.906,6.058 1.122,1.164 2.192,2.301 3.207,3.559 0.641,0.793 6.059,6.453 6.012,2.226 -0.054,-5.019 -10.836,-18.211 -15.722,-13.445 -7.946,-4.188 -7.344,-10.031 -9.368,-17.602 -3.195,-11.961 -6.328,-21.375 -13.129,-32 -2.019,-3.156 -2.96,-6.894 -6.304,-8.796 -1.93,-12.727 -14.543,-22.204 -15.168,-36 -0.906,-19.981 10.926,-39.692 19.183,-56.801 2.95,-6.114 2.942,-13.457 6.758,-19.199 6.766,-10.184 16.969,-17.348 22.028,-28.801 l 1.597,0 c 1.637,5.691 -1.301,10.886 -3.617,16 -6.215,13.715 -19.051,23.519 -26.43,36.801 -17.441,31.371 -10.48,73 10.786,100 6.949,8.824 14.746,16.492 21.472,25.597 2.094,2.832 2.297,7.68 4.547,9.942 2.164,2.171 3.957,-0.286 5.242,-1.942 9.996,8.086 15.074,20.442 26.403,27.688 8.121,5.191 18.375,10.508 27.199,14.34 5.125,2.226 12.441,4.511 14.89,10.046 3.563,8.059 2.668,18.497 2.711,27.125 0.071,15.102 3.684,37.985 -18.402,37.559 -2.781,-0.055 -6.117,-0.352 -8.801,-1.102 -31.164,-8.683 -56.668,-29.234 -78.859,-51.882 -6.129,-6.258 -12.254,-13.731 -17.719,-20.575 -2.996,-3.753 -3.168,-9.293 -9.019,-8.796 z"
         id="path18"
         style="fill:#ffffff;fill-opacity:1;fill-rule:nonzero;stroke:none" /><path
         d="m 229.602,557.6 c -6.317,1.812 -13.352,-2.063 -19.204,-4.34 -14.753,-5.75 -28.109,-19.086 -39.199,-30.062 -4.211,-4.172 -9.922,-8.434 -12.816,-13.668 -4.606,-8.325 -10.207,-14.528 -15.981,-22.328 -1.363,-1.848 -5.168,-7.872 0.032,-7.497 4.656,0.332 6.55,6.645 8.808,9.895 2.629,3.777 7.074,5.969 9.488,9.703 3.192,4.942 2.555,9.492 7.243,13.836 7.675,7.113 14.925,14.316 23.226,20.801 7.867,6.144 14.789,11.527 24,15.64 5.074,2.266 11.723,2.653 14.403,8.02 m 68,-3.199 c 18.554,-0.156 41.171,-13.512 55.199,-24.875 7.047,-5.711 14.347,-14.414 22.398,-18.324 0.86,6.058 -6.558,11.074 -10.629,14.757 -13.09,11.856 -29.179,20.864 -45.371,27.762 -5.254,2.238 -18.715,9.098 -21.597,0.68 m -5.774,-11.231 c -3.32,-2.722 13.039,-8.238 15.371,-9.539 15.25,-8.492 28.86,-16.851 42.66,-27.523 2.707,-2.098 6.465,-2.278 8.832,-4.824 3.895,-4.192 6.711,-11.379 9.524,-16.407 1.043,-1.863 3.344,-4.656 5.672,-2.547 1.922,1.743 -0.004,4.801 -1.012,6.469 -3.133,5.196 -6.746,10.403 -10.477,15.188 -3.421,4.379 -8.554,5.082 -12.796,8.394 -12.176,9.5 -25.61,19.211 -40,25.059 -3.563,1.449 -14.11,8.73 -17.774,5.73 m -117.43,-50.371 c 1.727,4.645 7.344,7.969 11.18,10.957 8.942,6.965 17.801,15.66 28.024,20.867 3.367,1.715 16.644,5.973 17.242,9.801 0.433,2.77 -2.574,3.09 -4.446,2.488 -5.289,-1.707 -10.515,-4.32 -15.199,-7.289 -10.047,-6.375 -18.48,-14.261 -28,-21.246 -3.566,-2.617 -10.695,-6.265 -12.844,-10.156 -1.335,-2.414 1.129,-4.496 0.067,-7.019 -2.098,-4.981 -7.176,-8.442 -10.246,-12.801 -1.168,-1.66 -2.758,-5.227 0.648,-5.446 3.641,-0.234 12.875,11.981 14.91,15.043 1.528,2.305 1.309,4.235 -1.336,4.801 M 352.801,477.6 c -7.078,18.664 -31,33.672 -48,42.414 -3.399,1.75 -21.207,10.66 -22.465,2.387 -0.52,-3.438 14.711,-4.496 17.664,-5.848 14.004,-6.414 29.426,-14.855 39.199,-26.953 3.403,-4.207 7.508,-14.496 13.602,-12 m -120.047,39.199 c -3.344,0 -7.113,-3.433 -9.692,-5.281 -6.874,-4.941 -14.343,-9.012 -20.664,-14.719 -1.003,-0.906 -11.132,-8.441 -6.132,-9.734 3.332,-0.86 7.004,4.66 9.367,6.351 6.738,4.829 13.152,10.121 19.969,14.875 2.543,1.778 6.296,2.129 8.527,4.176 1.781,1.629 1.309,4.328 -1.375,4.332 m 69.644,-13.597 c 1.79,-3.418 4.926,-4.153 8,-6.231 5.887,-3.976 11.961,-11.922 19.204,-12.973 1.015,-5 4.66,-7.461 9.597,-8 -0.738,4.696 -4.344,6.637 -7.801,9.442 -6.867,5.57 -19.105,21.711 -29,17.762 m 87.204,-4.801 c 0.296,-2.762 1.218,-4.754 2.507,-7.199 0.969,-1.832 1.629,-3.641 2.301,-5.59 0.531,-1.532 4.512,-7.043 5.738,-2.946 1.442,4.829 -6.093,15.032 -10.546,15.735 z"
         id="path20"
         style="fill:#19272c;fill-opacity:1;fill-rule:nonzero;stroke:none" /><path
         d="m 198.398,411.998 0,-1.597 c 1.801,-0.328 8.411,-2.094 5.895,-5.129 -3.629,-4.375 -11.82,1.898 -15.68,-1.297 -2.32,-1.914 -1.437,-7.789 -1.07,-10.375 1.387,-9.758 5.66,-20.348 10.758,-28.77 6.047,-9.988 13.14,-18.152 22.5,-25.21 3.176,-2.395 6.926,-6.333 11.195,-6.438 5.078,-0.125 6.211,7.785 11.93,6.293 7.312,-1.91 -1.059,-11.957 8.875,-13.074 l 0,46.398 c -8.489,-3.515 -14.528,-5.867 -24,-5.586 -2.406,0.071 -8.621,0.852 -7.512,4.703 1,3.457 5.856,1.895 8.313,1.758 8.031,-0.449 15.902,2.145 24,1.528 l 0.796,12.796 c -5.16,-2.359 -9.316,-6.961 -15.199,-7.828 -3.894,-0.574 -7.379,1.27 -11.199,1.125 -3.582,-0.133 -7.797,-1.523 -11.238,0.059 -3.563,1.633 -4.489,5.57 -7.461,7.73 -1.981,1.442 -16.258,0.141 -11.93,6.735 2.199,3.355 12.266,2.656 16.227,4.41 4.843,2.144 5.976,8.254 11.203,9.187 3.75,0.672 16.863,0.68 19.64,-2.011 1.766,-1.707 0.313,-4.313 1.34,-6.344 1.235,-2.43 4.121,-4.981 5.895,-7.113 5.597,-6.723 9.922,-5.305 9.926,-15.547 l 0.796,0 c 3.243,3.73 5.493,3.375 8,-0.801 l 0.801,0 c 1.098,1.941 3.77,7.254 6.379,3.637 2.203,-3.047 0.043,-8.239 0.125,-11.637 0.254,-10.23 2.133,-20.078 1.426,-30.398 -0.254,-3.696 -1.633,-8.149 -0.473,-11.809 1.778,-5.617 11.629,3.273 12.543,6.207 -5.09,2.625 -1.394,7.035 3.199,7.527 7.004,0.746 4.176,-7.41 8.258,-8.433 5.563,-1.395 18.418,9.437 22.008,13.043 5.016,5.043 6.695,10.922 10.406,16.59 5.492,8.394 10.645,14.429 12.129,24.875 0.531,3.734 3.098,10.742 0.113,13.918 -3.902,4.152 -13.14,-1.133 -17.339,2.691 -2.95,2.684 3.679,4.391 5.226,4.988 -10.222,9.449 -30.332,5.961 -42.398,3.199 2.027,-5.793 9.754,-3.066 14.394,-4.343 8.489,-2.336 16.731,-9.723 25.606,-12.61 3.047,-0.992 6.976,-2.136 8.191,-5.48 3.094,-8.531 -15.047,-5.156 -19.125,-8.188 -2.738,-2.039 0.403,-5.539 -2.137,-7.894 -2.562,-2.379 -6.164,-1.981 -9.332,-2.547 -6.48,-1.156 -16.382,-7.297 -21.902,-0.223 -2.344,3.008 0.988,6.731 -1.101,10.016 -2.223,3.484 -13.016,5.851 -10.403,11.152 1.696,3.438 5.746,1.449 8.61,2.332 3.878,1.196 7.882,4.282 11.199,6.586 l 0,1.602 c -7.016,1.531 -7.793,1.972 -9.602,8.801 -1.933,-0.54 -8.008,-2.973 -6.722,1.625 1.851,6.613 11.914,6.636 17.125,8.25 15.621,4.847 42.437,8.375 46.398,-12.278 4.453,3.149 0.734,10.758 -0.066,15.199 -2.883,15.981 -5.547,28.098 -17.536,40 -30.523,30.301 -75.847,31.559 -109.597,6.524 -14.016,-10.395 -21.465,-24.813 -27.086,-40.922 -1.524,-4.371 -4.672,-13.746 -1.692,-18.055 1.145,-1.656 4.09,-2.289 5.024,-0.086 1.113,2.614 -0.109,5.114 1.765,7.707 8.493,11.743 29.391,6.879 41.188,3.571 4.863,-1.364 16.754,-2.688 17.668,-9.102 0.758,-5.348 -8.109,-2.512 -10.469,-1.933 -10.179,2.496 -20.644,4.945 -31.199,3.988 -4.688,-0.426 -8.93,-3 -13.602,-3.692 z"
         id="path22"
         style="fill:#ffffff;fill-opacity:1;fill-rule:nonzero;stroke:none" /><path
         d="m 117.602,463.998 c 12.359,1.914 9.671,20.739 1.859,5.602 -0.957,-1.848 -1.5,-3.57 -1.859,-5.602 m 149.597,12.801 c -6.082,-2.129 -8.258,-14.394 -4.656,-19.742 4.078,-6.062 6.152,3.617 6.395,6.145 0.179,1.886 0.554,3.691 0.402,5.597 -0.227,2.844 -0.91,5.457 -2.141,8 z"
         id="path24"
         style="fill:#19272c;fill-opacity:1;fill-rule:nonzero;stroke:none" /><path
         d="m 421.602,458.401 c 0.336,-3.274 1.07,-5.535 4,-7.199 l -4,7.199 z"
         id="path26"
         style="fill:#ffffff;fill-opacity:1;fill-rule:nonzero;stroke:none" /><path
         d="m 264.98,441.459 c -4.519,-1.937 -2.98,-15.906 -2.335,-19.859 0.343,-2.113 1.48,-5.797 4.386,-5 4.258,1.172 4.008,17.461 3.024,20.996 -0.582,2.078 -2.535,4.953 -5.075,3.863 z"
         id="path28"
         style="fill:#19272c;fill-opacity:1;fill-rule:nonzero;stroke:none" /><path
         d="m 179.199,439.202 c -3.203,-3.77 -5.988,-7.641 -9.375,-11.274 -1.898,-2.035 -3.785,-4.156 -5.527,-6.328 -1.625,-2.027 -6.402,-6.574 -5.961,-9.344 0.59,-3.683 11.367,-1.769 13.348,-0.304 4.644,3.425 4.476,16.273 7.234,21.648 1.125,2.191 1.539,3.543 0.281,5.602 m -76,-11.204 -0.801,-3.199 0.801,0 0,3.199 m 325.602,-14.398 0,-4.801 c 3.785,0.438 5.011,1.848 4,5.602 l -4,-0.801 z"
         id="path30"
         style="fill:#ffffff;fill-opacity:1;fill-rule:nonzero;stroke:none" /><path
         d="m 29.07,411.979 c -5.496,-3.875 7.293,-6.895 10.672,-4.641 5.75,3.84 -7.336,6.992 -10.672,4.641 m 21.528,-0.039 c -2.668,-1.957 0.082,-4.442 2.218,-5.082 3.036,-0.91 14.598,-1.832 17.055,0.363 2.059,1.836 -1.074,3.984 -2.687,4.414 -3.114,0.824 -13.911,2.262 -16.586,0.305 M 268,411.42 c -2.672,-0.398 -14.332,-1.906 -11.809,-6.277 1.317,-2.285 4.653,-2.055 6.067,-4.461 1.484,-2.527 -0.684,-14.285 4.07,-13.547 3.809,0.594 1.453,6.465 2.567,8.762 2.121,4.387 15.332,13.433 3.105,15.351 -1.316,0.207 -2.672,0.372 -4,0.172 m 212.801,-7.422 c -1.66,5.258 -16.906,6.813 -21.344,3.864 -5.727,-3.813 5.082,-4.664 6.941,-4.66 1.879,0 3.731,0.054 5.602,0.195 2.992,0.223 5.855,-0.039 8.801,0.601 m 9.601,4.457 c -3.367,-0.507 -8.05,-3.808 -2.355,-5.597 4.258,-1.34 10.851,-0.828 15.137,0.199 3.386,0.816 5.105,4.305 0.769,5.488 -3.887,1.063 -9.605,0.508 -13.551,-0.09 m 43.2,-4.457 c 4.55,-0.843 11.125,-2.273 12.796,3.204 -4.707,1.992 -11.023,2.703 -12.796,-3.204 z"
         id="path32"
         style="fill:#19272c;fill-opacity:1;fill-rule:nonzero;stroke:none" /><path
         d="m 182.398,259.202 c 5.192,4.531 6.891,18.019 7.204,24.796 -5.532,2.789 -8.34,15.926 -12.157,21.465 -15.39,22.344 -28.351,41.477 -22.234,69.739 2.148,9.921 8.844,19.019 10.391,28.796 -21.618,5.149 -21.606,-22.093 -21.602,-37.597 0.008,-16.164 3.457,-32.555 11.98,-46.403 7.368,-11.961 18.942,-20.98 24.04,-34.398 3.187,-8.379 2.378,-17.609 2.378,-26.398 m 8,29.597 c 7.875,4.582 2.204,13.723 -1.011,19.199 -8.199,13.954 -17.032,29.551 -15.793,46.403 0.929,12.707 3.383,23.836 1.836,36.801 -0.387,3.21 0.847,8.976 -1.703,11.468 -3.606,3.528 -8.157,-14.613 -8.801,-17.07 -4.086,-15.578 -2.91,-33.508 4.082,-48 7.469,-15.48 22.012,-30.93 21.39,-48.801 m 240.801,114.403 c -1.933,-6.489 -1.265,-13.473 -2.73,-20.075 -0.973,-4.382 -3.633,-7.746 -4.813,-11.925 -3.527,-12.536 -5.722,-24.879 -11.633,-36.801 -3.617,-7.301 -8.144,-14.586 -12.304,-21.602 -2.426,-4.09 -6.055,-6.918 -5.321,-12 6.059,3.797 11.747,13.215 15.633,19.199 11.543,17.789 17.59,35.157 20.973,56 1.101,6.801 5.894,22.411 0.195,27.204 m -213.597,-7.204 0,-4 2.398,0 0,4 -2.398,0 m 12.796,-5.597 0,-1.602 c 5.09,-2.363 8.278,-2.015 13.602,-0.801 -1.113,10.786 -7.438,6.082 -13.602,2.403 m 80,-3.199 c 3.918,0.757 7.582,1.046 9.602,4.796 -5.547,3.106 -9.008,1.735 -9.602,-4.796 M 293.602,377.6 c 2.109,-3.828 5.871,-3.789 8.796,-0.801 l -8.796,0.801 m -32.801,-0.801 -0.805,-37.597 0.484,-13.254 10.719,-1.95 -0.801,6.403 c -5.531,-5.762 -10.816,19.211 0,18.398 l 0.801,16 c -8.703,-2.012 -8,4.934 -8,12 l -2.398,0 M 352,369.6 340.695,339.202 338.398,325.6 c 3.891,1.312 5.54,5.484 7.625,8.801 4.895,7.789 11.872,26.574 5.977,35.199 m -168,-8 c 0.039,-13.664 2.219,-24.738 8.543,-36.801 1.906,-3.629 2.527,-9.754 6.656,-11.199 2.305,18.258 -6.129,31.742 -12.801,48 l -2.398,0 m 120.801,-83.199 c 1.867,0.453 4.953,2.418 6.719,0.965 1.972,-1.625 0.687,-5.243 0.593,-7.368 -0.293,-6.445 -0.367,-12.734 -0.082,-19.199 0.215,-4.902 0.137,-12.957 7.125,-10.187 6.59,2.613 4.938,14.988 4.692,20.59 -0.766,17.3 -6.317,41.41 -27.848,42.398 2.203,-4.309 13.809,-7.398 13.273,-12.293 -0.402,-3.68 -4.859,-1.094 -6.8,-1.078 -5.317,0.035 -10.243,-2.774 -13.375,4.582 -1.098,2.578 0.425,4.711 0.968,7.187 0.454,2.051 -0.265,4.668 1.063,6.446 6.937,9.285 23.406,-5.84 28.871,-9.645 -0.02,7.371 -3.398,23.629 4.195,28.824 3.946,2.7 2.266,-4.253 1.407,-5.625 l 0,-0.796 -2.047,-10.403 5.07,-38.429 L 328,246.401 c 10.805,1.203 8.172,15.222 7.98,23.199 -0.25,10.297 -6.21,19.117 -6.933,28.801 -1.168,15.699 4.23,31.625 4.555,47.199 -6.403,-1.859 -11.938,-9.574 -17.602,-13.352 -8.629,-5.757 -19.773,-7.191 -27.852,-12.921 -2.628,-1.864 -4.25,-4.977 -6.582,-7.192 -3.609,-3.43 -13.867,-8.933 -11.238,-15.156 1.625,-3.844 7.145,-3.141 10.473,-3.988 8.066,-2.051 22.09,-5.161 24,-14.59 m -99.199,62.398 3.199,-23.199 0.801,0 c 2.398,4.75 6.105,5.609 6.382,-0.801 0.309,-7.105 -0.695,-14.558 -1.586,-21.597 8.094,2.269 12.957,12.406 20.801,16.187 5.168,2.488 13.36,-1.102 5.602,-4.187 l 0,-1.602 c 7.426,-5.512 6.035,-5.902 2.398,-12.801 6.164,-2.601 28.746,-5.34 21.348,7.895 -1.91,3.41 -6.375,3.359 -9.305,5.468 -3.476,2.508 -4.304,6.645 -4.844,10.637 l -20,4.992 -24.796,19.008 m -88.801,-1.597 c 0.215,-9.157 11.515,-23.766 18.398,-29.602 1.024,8.723 -10.539,26.273 -18.398,29.602 m -3.199,-6.403 0,-1.597 1.597,1.597 -1.597,0 M 256.801,317.6 c 1.75,-11.074 13.605,-1.215 4.015,-0.086 -1.32,0.152 -2.691,0.082 -4.015,0.086 m 13.597,-5.602 6.403,4.801 c -4.551,1.332 -7.461,0.301 -6.403,-4.801 m -61.597,-0.796 c -2.797,-5.239 -3.051,-11.981 -5.348,-17.602 -3.953,-9.684 -8.273,-16.355 -8.254,-27.199 0.004,-2.504 1.028,-16.813 5.301,-15.399 2.59,0.856 4.023,11.274 4.227,13.797 0.89,11.211 3.851,21.613 5.738,32.801 0.773,4.605 1.941,10.07 -1.664,13.602 m 17.597,-16 8,8.796 c -4.293,-1.457 -7.293,-4.226 -8,-8.796 m -11.199,-11.204 c -3.371,-2.121 -3.426,-6.675 -3.875,-10.398 -1.094,-9.016 -3.929,-18.145 -4.125,-27.199 2.336,-0.637 5.473,-2.438 7.914,-1.77 6.77,1.852 5.965,18.977 11.106,23.59 5.015,4.5 15.308,5.508 21.781,6.324 14.238,1.797 32.637,8.344 44,-4.144 -4.445,-1.059 -7.676,-3.883 -9.602,-8 2.313,-1.371 5.848,-2.742 6.551,-5.637 1.203,-4.926 -4.453,-15.25 1.063,-19.141 5.523,-3.894 7.539,4.329 7.586,7.977 0.101,8.441 -1.914,14.926 -3.86,22.973 -0.789,3.265 -0.793,7.547 -3.211,10.175 -2.398,2.602 -6.605,1.747 -9.726,2.223 -9.219,1.402 -19.223,0.504 -28.801,-0.441 -3.492,-0.348 -8.555,-3.602 -11.777,-1.371 -5.481,3.796 0.609,12.847 -1.825,18.441 -1.964,-0.516 -3.761,-1.008 -5.152,-2.625 -2.773,-3.219 -15.43,-27.387 -18.047,-10.977 m 9.067,9.868 0.269,-0.532 -0.269,0.532 m -9.868,-4.266 -0.796,-3.199 0.796,-0.801 3.204,3.199 -3.204,0.801 M 152,287.202 l 0,-1.602 1.602,0 0,1.602 -1.602,0 m 148.414,-11.223 c -2.801,-2.051 -0.398,-5.559 0.375,-7.981 2.836,-8.832 0.375,-16.988 1.129,-25.562 0.191,-2.156 1.98,-4.074 4.242,-2.895 2.457,1.286 1.906,5.379 1.809,7.661 -0.332,7.585 1.054,20.871 -1.465,27.742 -0.805,2.199 -4.457,2.23 -6.09,1.035 M 240,267.998 c -9.301,-1.539 -11.406,-8.492 -14.441,-16.796 -0.926,-2.532 -2.844,-5.875 -1.735,-8.622 1.203,-2.968 6.207,-3.871 8.289,-1.421 2.391,2.808 3.094,9.652 4.09,13.242 1.27,4.578 1.899,9.207 3.797,13.597 m 15.199,-4 c -9.828,1.821 -19.168,-13.601 -17.812,-23.152 0.351,-2.48 3.203,-3.953 5.129,-1.961 3.062,3.18 3.511,10.656 6.363,14.715 2.402,3.414 5.254,6.293 6.32,10.398 m 4.016,-5.476 c -3.512,-1.035 -12.883,-19.024 -9.93,-22.039 3.52,-3.59 10.039,-0.063 13.914,0.351 5.813,0.621 12.18,-3.8 18.281,-1.039 6.067,2.742 2.02,18.203 -3.125,20.289 -11.179,4.536 -2.875,-13.019 -8.718,-12.148 -6.43,0.961 0.015,17.672 -10.422,14.586 m 87.98,-13.633 c -6.734,-1.824 -3.105,-15.434 -2.238,-20.09 0.934,-4.996 0.238,-10.355 1.992,-15.199 3.184,-8.785 12.739,-16.691 19.422,-22.859 4.043,-3.735 6.363,-10.668 12.828,-8.059 2.156,0.871 6.414,2.871 4.27,5.754 -2.781,3.742 -8.52,5.039 -12.27,7.465 -13.863,8.976 -24.437,17.394 -23.269,35.301 0.187,2.898 4.031,18.976 -0.735,17.687 m 9.606,-2.488 c -6.235,-19.496 2.769,-31.731 19.199,-42.063 5.52,-3.472 10.785,-8.843 16.801,-11.375 2.273,-0.957 5.754,-0.441 6.488,2.344 1.301,4.961 -10.43,9.973 -13.687,12.242 -8.731,6.063 -21.754,12.895 -26.465,22.852 -2.449,5.172 -0.223,10.965 -2.336,16 M 219.199,219.202 c -0.109,5.324 -0.304,15.773 -5.633,18.312 -1.609,0.77 -6.457,3.246 -7.855,1.168 -1.106,-1.637 0.676,-3.871 1.672,-5.051 3.812,-4.496 7.586,-10.5 11.816,-14.429 m -32.801,19.199 c -4.57,-15.766 -20.785,-21.278 -32.785,-30.11 -4.375,-3.222 -6.258,-8.359 -2.57,-12.921 5.137,-6.352 14.789,-6.801 20.617,-11.715 4.305,-3.637 5.418,-10.52 9.942,-13.254 1.742,14.793 -20.786,16.508 -19.067,29.597 1.344,10.243 15.969,14.25 22.082,20.938 4.285,4.687 3.383,11.601 3.383,17.465 l -1.602,0 m 140.801,-0.801 0,-3.199 0.801,0 0.801,3.199 -1.602,0 m -16,-27.199 c 6.539,1.984 15.68,16.855 11.168,23.734 -2.961,4.512 -8.418,-1.094 -8.719,-4.535 -0.261,-2.957 -0.195,-5.844 -0.632,-8.801 -0.516,-3.508 -1.633,-6.851 -1.817,-10.398 m -130.398,24.801 -1.602,-3.204 0.801,0 0.801,3.204 m 54.398,-34.403 c 1.914,6.539 -1.351,13.91 -0.754,20.801 0.317,3.602 2.774,6.738 5.555,3.199 l 1.602,0 c 1.589,6.028 -12.629,11.696 -17.25,8.746 -2.907,-1.847 -0.68,-6.152 -0.434,-8.746 0.805,-8.543 2.141,-20.426 11.281,-24 m 38.403,-45.597 c -11.454,3.527 -16.571,10.105 -24.832,18.367 -5.321,5.316 -11.727,9.418 -16.59,15.23 -3.696,4.418 -6.012,10.071 -10.082,14.219 -2.59,2.644 -6.41,3.562 -9.153,6.137 -3.324,3.129 -5.281,7.238 -8.945,10.047 -3.664,-12.395 -2.48,-27.09 -5.633,-40 -0.742,-3.055 -5.996,-10.5 -4.629,-13.192 1.102,-2.172 5.762,-2.699 7.864,-3.336 8.425,-2.539 17.668,-4.5 26.398,-5.648 29.508,-3.883 58.613,-4.852 88,1.015 7.371,1.473 22.891,1.575 28.316,7.321 3.329,3.527 -1.445,12.058 -1.855,16.238 -0.895,9.137 -3.676,18.008 -4.484,27.199 -0.653,7.43 0.488,16.332 0.421,24 -7.527,-2.371 -13.086,-18.758 -18.566,-24.726 -5.93,-6.461 -12.512,-6.93 -19.031,-11.672 -13.989,-10.176 -24.84,-24.656 -27.199,-41.199 M 296,202.401 c 8.414,2.293 18.879,19.008 13.344,27.746 -1.735,2.73 -7.512,2.422 -8.676,-0.731 -1.606,-4.355 0.875,-9.918 -0.914,-15.015 -1.387,-3.949 -2.813,-7.926 -3.754,-12 m -118.133,28.265 0.266,-0.531 -0.266,0.531 M 252,183.202 c -1.254,4.222 -4.484,7.496 -4.766,12 -0.336,5.386 -0.179,10.996 0.598,16.335 0.316,2.176 1.887,5.993 4.191,2.731 2.215,-3.141 -0.222,-10.481 -0.05,-14.27 0.382,-8.32 6.531,-15.863 8.703,-24 1.133,-4.242 1.164,-7.937 5.722,-9.597 1.54,5.195 2.352,12.238 1.215,17.597 -1.539,7.278 -4.894,12.547 -1.215,20 -14.105,1.59 3.317,26.512 -15.183,25.348 -4.035,-0.254 -3.403,-4.207 -5.867,-6.367 -1.711,-1.5 -4.102,-1.793 -5.325,-3.895 -1.867,-3.207 -0.328,-7.664 -0.093,-11.086 0.761,-11.132 0.152,-19.242 12.07,-24.796 m 21.602,12 8,32.796 c -11.282,2.063 -7.508,-5.996 -8.141,-13.597 -0.629,-7.574 -3.723,-13.938 -3.34,-21.598 0.25,-4.961 3.481,-8.797 3.481,-14.402 4.105,2.203 5.21,7.34 7.523,11.199 5.102,8.5 11.809,15.93 14.598,25.602 0.855,2.968 1.968,14.25 -3.004,14.097 -4.574,-0.14 -4.703,-5.265 -5.891,-8.5 -2.711,-7.379 -3.941,-24.152 -13.226,-25.597 m -8,28.796 0,-2.398 0.796,0 -0.796,2.398 m -75.204,-1.597 c -1.894,-4.668 -2.75,-7.258 2.403,-9.602 l 0,9.602 -2.403,0 M 148.801,185.6 c -1.93,2.742 -4.707,5.023 -6.27,8 -7.617,14.531 14.094,16.957 19.071,25.602 -8.176,-1.711 -17.172,-6.922 -23.969,-11.739 -2.578,-1.824 -6.039,-4.742 -5.875,-8.261 0.222,-4.747 5.59,-7.633 9.043,-9.875 2.629,-1.707 4.91,-3.129 8,-3.727 m 116.801,27.199 1.597,-3.199 -1.597,3.199 m -79.204,-27.199 0.801,0 c 2.965,6.168 -5.594,8.84 -7.683,14.398 -1.352,3.61 1.254,7.7 2.086,11.204 -1.731,-0.547 -3.227,-1.18 -4.805,-2.098 -13.227,-7.692 3.891,-16.981 9.601,-23.504 m 2.403,14.398 1.597,0 c 4.344,11.676 -6.531,8.942 -1.597,0 m 160.801,-11.199 c 0,-5.125 -0.801,-13.137 2.96,-17.254 2.379,-2.605 10.254,-2.347 11.559,1.477 1.871,5.504 -10.445,13.887 -14.519,15.777 m 45.597,-72.801 c -3.379,10.028 -12.429,18.661 -8.601,30.403 3.375,10.359 12.687,17.703 18.867,26.398 1.965,2.77 5.457,8.281 2.515,11.52 -4.812,5.297 -13.804,-5.707 -15.804,-9.117 -2.317,-3.954 -5.703,-7.149 -7.856,-11.204 -7.66,-14.402 -11.144,-43.738 10.879,-48 m -241.597,67.204 c 1.855,-3.149 4.418,-4.407 8,-4.801 l -8,4.801 m 272,-105.602 c -1.305,6.398 -8.524,10.887 -13.602,14.422 -11.051,7.683 -28.359,14.453 -36.281,25.582 -8.371,11.754 -5.332,30.308 0.769,42.394 2.547,5.051 7.02,8.77 8.313,14.403 -13.528,-2.336 -21.996,-15.766 -22.192,-28.801 -0.047,-3.348 2.071,-6.262 1.848,-9.602 -1.859,-27.722 18.77,-43.316 42.742,-52.105 6.328,-2.316 11.414,-5.973 18.403,-6.293 M 164,171.202 l -0.801,-0.801 2.258,-8 -11.059,-21.602 c 10.809,2.184 25.399,25.75 9.602,30.403 m 191.199,-15.204 6.403,8 c -5.344,-0.293 -7.61,-2.664 -6.403,-8 m -192,-16.796 c 3.504,2.043 10.281,13.492 12.801,5.597 1.973,1.91 9.664,17.891 3.895,17.891 -2.704,0 -4.09,-3.102 -5.168,-5.09 -3.364,-6.207 -10.184,-11.461 -11.528,-18.398 m 27.684,19.171 c -2.172,-1.668 -1.801,-7.078 -2.91,-9.574 -3.688,-8.297 -7.215,-17.332 -12.446,-24.801 -1.261,-1.796 -7.035,-7.332 -4.597,-9.574 2.101,-1.937 9.402,-1.972 12.269,-2.492 13.043,-2.352 26.078,-1.961 39.199,-2.859 4.684,-0.321 13.071,-0.336 16.086,-4.446 2.43,-3.308 -0.871,-11.871 4.004,-12.476 5.977,-0.746 12.961,2.136 19.114,2.105 7.511,-0.035 20.675,-4.855 27.742,-1.742 5.468,2.41 -4.199,12.383 6.656,13.559 14.973,1.621 31.305,0.254 46.398,0.328 4.504,0.019 14.344,-1.797 17.907,1.551 3.035,2.851 -1.86,9.14 -2.864,12.046 -3.132,9.036 -4.546,19.465 -6.855,28.801 -0.691,2.797 -1.262,8.543 -4.41,9.731 -3.656,1.386 -9.789,-1.903 -13.375,-2.797 -9.813,-2.446 -19.621,-4.422 -29.602,-6.071 -3.777,-0.621 -9.433,-0.042 -12.617,-2.347 -7.937,-5.742 -6.922,-20.926 -20.98,-20.485 -13.719,0.434 -14.864,14.954 -22.825,21.489 -3.062,2.511 -8.679,1.004 -12.379,1.652 -10.171,1.781 -20.406,3.445 -30.398,6.051 -3.191,0.828 -10.07,4.695 -13.117,2.351 m 67.203,-10.406 c -3.621,-2.812 3.004,-8.445 5.113,-9.832 2.61,-1.715 14.078,0.32 16.453,2.512 9.196,8.48 -11.523,7.199 -14.851,7.426 -1.949,0.132 -4.992,1.23 -6.715,-0.106 m -85.285,-5.566 c -7.453,-10.496 -24.887,-18.102 -25.602,-32 16.348,0.746 22.957,18.781 27.199,32 l -1.597,0 M 135.199,131.202 C 120.832,128.108 106.891,117.811 99.027,105.6 97.02,102.483 90.309,93.241 94.883,89.623 c 2.961,-2.343 10.484,0.075 12.613,2.68 3.262,3.996 2.359,11.637 5.91,16.496 6.004,8.219 17.598,13.406 21.793,22.403 m 16.801,0 c -9.625,-3.168 -26.133,-13.301 -31.926,-21.614 -1.867,-2.679 -6.566,-9.781 -3.918,-13.09 2.141,-2.679 9.406,2.539 11.844,3.461 11.797,4.457 11.066,10.012 16.922,20.039 2.25,3.848 5.871,6.895 7.078,11.204 z"
         id="path34"
         style="fill:#ffffff;fill-opacity:1;fill-rule:nonzero;stroke:none" /><path
         d="m 271.234,121.655 c -6.015,-1.567 -5.105,-10.715 -4.363,-15.254 0.375,-2.285 0.969,-6.199 4.277,-5.071 3.411,1.165 7.93,22.368 0.086,20.325 z"
         id="path36"
         style="fill:#19272c;fill-opacity:1;fill-rule:nonzero;stroke:none" /><path
         d="m 159.199,107.405 c -2.289,-0.664 -13.269,-6.262 -11.129,-9.336 1.641,-2.36 7.871,-1.602 10.328,-1.477 8.625,0.43 17.856,-1.367 26.403,-2.422 8.277,-1.019 23.023,0.293 30.219,-3.91 7.632,-4.457 1.671,-12.531 6.312,-16.867 3.074,-2.867 8.629,-0.707 12.27,-0.637 9.191,0.18 23,-5.195 31.773,-0.961 3.746,1.805 2.891,11.758 -0.695,13.325 -9.426,4.113 -21.856,-3.02 -30.961,0.96 -5.336,2.336 1.195,10.122 -4.239,12.649 -13.761,6.41 -33.933,0.836 -48.679,3.551 -6.227,1.144 -15.403,6.929 -21.602,5.125 M 300,98.401 c 0.031,-3.594 4.344,-15.77 2.406,-18.156 -2.453,-3.028 -6.133,0.835 -8.234,2.164 -2.891,1.82 -14.938,4.246 -17.918,2.359 -3.156,-2.004 -2.899,-11.27 0.664,-12.703 6.035,-2.422 14.41,1 20.684,0.887 4.527,-0.082 7.984,-2.438 12.796,-1.75 -0.16,3.668 -2.39,8.507 -0.531,11.91 3.68,6.734 12.848,5.187 18.934,4.918 14.031,-0.614 31.105,-2.489 44.801,0.769 l 0,2.403 -12,7.656 L 332.031,98.393 300,98.401 m 124.801,-3.199 10.398,-18.403 23.199,-6.398 c -3.257,9.574 -23.558,23.765 -33.597,24.801 z"
         id="path38"
         style="fill:#ffffff;fill-opacity:1;fill-rule:nonzero;stroke:none" /><path
         d="m 160.801,79.998 c -0.926,-2.113 -1.524,-3.925 -0.446,-6.171 1.309,-2.723 3.868,-4.731 5.309,-7.426 2.973,-5.567 3.867,-15.278 10.336,-17.602 -0.406,9.313 -6.402,26.875 -15.199,31.199 M 204,57.6 c 0.875,6.836 -6.203,16.539 -9.602,22.398 -6.371,-2.136 4.61,-21.359 9.602,-22.398 m -82.398,-0.801 c 0.125,4.746 -3.414,12.832 -5.227,17.512 -0.617,1.605 -2.156,3.539 -4.102,2.379 -2.406,-1.438 -0.214,-4.602 0.61,-6.289 2.566,-5.235 3.801,-9.973 8.719,-13.602 m -3.204,17.602 9.602,-23.199 4.801,0 c -1.164,6.445 -5.731,26.41 -14.403,23.199 m -40,0.801 c 1.032,-9.493 8.825,-18.528 11.399,-28 0.492,-1.813 1.59,-8.137 4.926,-6.262 2.851,1.605 0.558,7.457 -0.461,9.461 -3.485,6.851 -8.051,22.554 -15.864,24.801 m 299.204,0 c -0.942,-5.094 3.73,-9.993 6.007,-14.403 5.137,-9.957 9.414,-18.937 12.735,-29.551 0.933,-2.984 3.34,-3.16 6.054,-3.25 -0.507,11.657 -9.656,29.223 -16.64,38.403 -2.461,3.23 -4.488,6.926 -8.156,8.801 m 2.398,-44 c -1.598,11.16 -9.266,24.414 -14.488,34.394 -0.86,1.645 -5.957,10.957 -8.645,7.473 -2.043,-2.641 3.235,-8.508 4.5,-10.668 4.039,-6.883 7.192,-14.301 10.387,-21.602 2.234,-5.109 1.684,-9.238 8.246,-9.597 M 70.398,72.799 c -0.273,-4.621 2.618,-7.937 4.454,-12 1.199,-2.652 2.425,-5.308 3.539,-8 0.812,-1.957 2,-10.054 4.171,-10.461 3.942,-0.742 1.762,6.571 1.18,8.063 -2.594,6.625 -5.847,20.152 -13.344,22.398 m 32,0 c 0.731,-5.582 8.317,-27.015 14.403,-25.597 -1.703,5.789 -8.289,24.582 -14.403,25.597 z"
         id="path40"
         style="fill:#19272c;fill-opacity:1;fill-rule:nonzero;stroke:none" /><path
         d="m 262.398,63.202 6.403,-8.801 0.801,0.801 0,8.796 -7.204,-0.796 z"
         id="path42"
         style="fill:#ffffff;fill-opacity:1;fill-rule:nonzero;stroke:none" /><path
         d="m 234.398,63.202 c -2.941,-6.829 6.782,-15.95 9.227,-22.403 0.898,-2.367 0.633,-6.387 2.566,-8.172 2.141,-1.972 4.364,0.282 4.348,2.61 -0.023,3.121 -2.348,6.843 -3.75,9.562 -1.414,2.746 -3.148,5.332 -4.699,8 -2.274,3.918 -4.031,7.594 -7.692,10.403 m 193.602,0 c 1.344,-8.879 10.977,-18.688 14.801,-27.204 1.679,-3.738 2.406,-6.503 6.801,-7.199 -0.946,9.211 -8.993,18.504 -13.5,26.403 -2.141,3.753 -3.442,7.628 -8.102,8 m -136,-2.403 9.109,-18.398 3.68,-10.719 4.813,-1.281 C 308.758,38.858 301.453,59.737 292,60.799 m -31.199,-28 -0.801,0 L 247.199,59.202 244,58.401 c 2.711,-9.418 9.539,-31.266 20,-33.602 l 0,3.199 2.398,-0.796 c 0.668,8.476 -2.347,17.675 -5.734,25.597 -0.543,1.27 -4.742,9.895 -6.535,5.332 -1,-2.547 1.863,-5.633 2.93,-7.73 2.8,-5.524 5.839,-11.489 3.742,-17.602 m 26.398,25.602 c -1.672,-7.723 5.055,-14.508 7.262,-21.602 0.883,-2.844 0.601,-7.652 2.359,-10.019 1.332,-1.793 3.11,-1.004 4.782,-0.379 l -12,32 -2.403,0 m 156,-0.801 c 0.906,-8.141 9.074,-14.969 12.391,-22.398 1.601,-3.598 1.222,-8 5.211,-9.602 2.578,9 -9.766,27.996 -17.602,32 m 13.602,-5.602 c 0.851,-7.543 8.504,-15.261 12.465,-21.597 0.875,-1.403 2.718,-8.016 5.433,-6.262 2.426,1.57 -1.101,6.383 -2.043,7.859 -3.726,5.844 -8.926,17.836 -15.855,20 M 271.66,7.162 c -4.008,-2.605 -0.039,-9.093 4.074,-6.335 3.477,2.332 -0.48,8.679 -4.074,6.335 z"
         id="path44"
         style="fill:#19272c;fill-opacity:1;fill-rule:nonzero;stroke:none" /></g></g></svg>