<?xml version="1.0" encoding="UTF-8" standalone="no"?>
<!-- Created with Inkscape (http://www.inkscape.org/) -->

<svg
   xmlns:dc="http://purl.org/dc/elements/1.1/"
   xmlns:cc="http://creativecommons.org/ns#"
   xmlns:rdf="http://www.w3.org/1999/02/22-rdf-syntax-ns#"
   xmlns:svg="http://www.w3.org/2000/svg"
   xmlns="http://www.w3.org/2000/svg"
   version="1.1"
   width="1284.0863"
   height="1360.644"
   id="svg2">
  <metadata
     id="metadata8">
    <rdf:RDF>
      <cc:Work
         rdf:about="">
        <dc:format>image/svg+xml</dc:format>
        <dc:type
           rdf:resource="http://purl.org/dc/dcmitype/StillImage" />
        <dc:title></dc:title>
      </cc:Work>
    </rdf:RDF>
  </metadata>
  <defs
     id="defs6" />
  <path
     d="m 1049.9034,1330.7772 c -0.092,-0.075 -26.2669,-0.4242 -58.16689,-0.775 -31.9,-0.3509 -69.925,-0.8355 -84.5,-1.0768 -14.575,-0.2414 -60.025,-0.7464 -101,-1.1222 -40.975,-0.3758 -80.575,-0.7952 -88,-0.9319 -7.425,-0.1368 -52.425,-0.5288 -100,-0.8713 -111.6833,-0.8038 -184.0435,-1.4523 -237,-2.1237 -100.35683,-1.2724 -198.20067,-1.8293 -206,-1.1725 -2.01099,0.1693 -2.55872,-0.2946 -2.80022,-2.3716 -0.16513,-1.4202 -1.51513,-3.9203 -3,-5.5558 -5.45145,-6.0046 -8.36565,-10.4875 -7.79102,-11.9849 0.96207,-2.5071 3.76765,-1.1276 5.84241,2.8728 1.88082,3.6264 3.15159,4.5624 4.07321,3 0.24332,-0.4125 0.77655,-31.575 1.18495,-69.25 0.8874,-81.8638 1.22813,-109.7319 1.37854,-112.75 0.0787,-1.5785 0.73475,-2.25 2.19839,-2.25 l 2.08625,0 -0.63405,43.75 c -0.34872,24.0625 -0.84586,49.375 -1.10475,56.25 -0.70927,18.8349 -0.73907,86.028 -0.0385,86.7286 0.90213,0.9021 5.0674,-3.3156 7.21784,-7.3087 1.78183,-3.3087 4.29514,-4.1996 5.09228,-1.8052 0.20411,0.6131 -1.6711,4.1602 -4.16713,7.8824 -4.81019,7.1733 -5.51309,9.091 -2.97522,8.1171 1.77475,-0.681 37.93055,-0.7581 77.93698,-0.1661 72.64934,1.0751 228.18214,2.4498 346.50004,3.0628 46.475,0.2408 98.7875,0.7041 116.25,1.0297 20.8565,0.3888 31.75,0.2494 31.75,-0.4062 0,-0.549 -1.35,-1.9595 -3,-3.1344 -4.2623,-3.035 -4.0346,-5.4167 0.4376,-4.5777 3.3883,0.6357 3.4421,0.5906 3.75,-3.1387 0.3641,-4.4102 2.1645,-5.0738 2.6348,-0.9713 0.2634,2.2975 0.5815,2.5974 1.7373,1.6382 3.4632,-2.8743 5.9042,1.7319 2.9721,5.6084 -0.8075,1.0676 -1.4825,2.7472 -1.5,3.7324 -0.029,1.6293 1.0314,1.7795 11.7182,1.6602 11.4622,-0.1279 57.6558,0.4628 125.25,1.6017 21.4576,0.3616 33.1405,0.2187 32.5,-0.3973 -0.55,-0.529 -4.6,-1.958 -9,-3.1755 -4.4,-1.2175 -10.1044,-3.2769 -12.6765,-4.5766 -5.6272,-2.8434 -12.6807,-5.3693 -15.0493,-5.3892 -0.9492,-0.01 -3.1992,-0.9129 -5,-2.0109 -1.8008,-1.0979 -4.2601,-1.9979 -5.4652,-2 -1.205,0 -2.4691,-0.4537 -2.809,-1.0037 -0.3399,-0.55 -1.2873,-1 -2.1053,-1 -0.8179,0 -4.7289,-1.5201 -8.6909,-3.3779 -3.9621,-1.8579 -10.3538,-4.8191 -14.2038,-6.5805 -3.85,-1.7614 -8.125,-3.7199 -9.5,-4.3522 -2.1446,-0.9862 -9.8508,-6.0614 -28.645,-18.8655 -2.2798,-1.5531 -4.6182,-2.8239 -5.1964,-2.8239 -0.5783,0 -3.6938,-1.5486 -6.9233,-3.4414 -3.2295,-1.8928 -9.6661,-5.0769 -14.3036,-7.0759 -4.6374,-1.999 -10.8065,-4.7253 -13.709,-6.0586 -2.9026,-1.3333 -5.7443,-2.4241 -6.3151,-2.4241 -0.6426,0 -0.8715,2.0553 -0.6013,5.3991 0.24,2.9696 0.09,5.9601 -0.334,6.6458 -1.1198,1.8118 -3.9723,0.3659 -3.9723,-2.0135 0,-4.5018 -1.7773,-1.6358 -2.6105,4.2094 -0.6939,4.8685 -1.2969,6.3183 -2.7423,6.5931 -1.6507,0.3139 -1.7975,-0.176 -1.3455,-4.4908 0.279,-2.6637 0.822,-6.0507 1.2067,-7.5266 0.6189,-2.375 0.4575,-2.6203 -1.4045,-2.1334 -1.5473,0.4046 -2.1039,0.087 -2.1039,-1.2018 0,-1.8052 4.3661,-6.4813 6.0515,-6.4813 2.0402,0 0.795,-1.821 -2.0515,-3 -2.4813,-1.0278 -3,-1.8166 -3,-4.5623 0,-3.9274 1.0186,-4.7919 4.1751,-3.5438 11.0547,4.3715 14.2644,5.7362 20.8249,8.8544 4.125,1.9606 10.4908,5.0693 14.1462,6.9082 3.6555,1.8389 7.1875,3.3435 7.8489,3.3435 0.6615,0 2.6206,0.6444 4.3538,1.4319 5.3606,2.436 22.9385,9.3107 27.1511,10.6188 2.2,0.6831 6.475,2.3398 9.5,3.6815 12.2219,5.4207 16.8961,7.3024 25.5,10.2656 4.95,1.7048 9.7814,3.5277 10.7364,4.0509 0.9551,0.5232 2.2204,0.9513 2.812,0.9513 0.5915,0 3.4101,1.0929 6.2635,2.4286 2.8535,1.3357 7.8881,3.3434 11.1881,4.4616 3.3,1.1181 9.825,3.4517 14.5,5.1857 4.675,1.734 11.5479,4.2584 15.2731,5.6097 3.7252,1.3513 7.9679,3.0768 9.4283,3.8345 1.4603,0.7576 3.0543,1.1309 3.542,0.8294 0.7435,-0.4595 -1.1748,-3.5328 -3.3391,-5.3495 -1.7411,-1.4616 -13.9043,-17.1901 -13.9043,-17.9801 0,-0.5109 -1.0723,-2.0013 -2.3829,-3.3119 -1.3106,-1.3106 -2.9981,-3.5024 -3.75,-4.8708 -1.3183,-2.3992 -6.7115,-9.618 -17.4882,-23.4078 -6.169,-7.8939 -11.0917,-17.6714 -12.4517,-24.7318 -0.5507,-2.8587 -0.9985,-9.744 -0.9952,-15.3007 0.01,-17.1973 5.4123,-34.5729 17.0678,-54.8969 2.2079,-3.85 4.7115,-8.5086 5.5635,-10.3524 0.852,-1.8437 2.0004,-3.8687 2.5519,-4.5 1.0915,-1.249 7.617,-11.9645 15.9233,-26.1476 2.899,-4.95 6.8581,-11.7 8.7981,-15 1.9399,-3.3 5.6953,-9.2759 8.3453,-13.2798 2.6499,-4.0039 4.8181,-7.6842 4.8181,-8.1786 0,-1.8222 3.0252,-3.8478 4.9824,-3.3359 3.2882,0.8598 2.3983,3.8674 -4.3307,14.6355 -8.6308,13.8112 -16.6517,27.2557 -16.6517,27.9112 0,0.2969 -2.6377,4.524 -5.8617,9.3937 -3.2239,4.8696 -6.8763,10.8789 -8.1165,13.3539 -1.2401,2.475 -2.9078,5.244 -3.7059,6.1534 -0.7981,0.9094 -3.1539,4.9594 -5.2352,9 -2.0813,4.0406 -5.3646,10.2716 -7.2962,13.8466 -6.8058,12.5958 -10.7845,28.7813 -10.7845,43.8712 0,13.9685 2.1639,19.8964 13,35.6136 0.825,1.1966 3.3382,4.3895 5.5849,7.0954 2.2468,2.7059 5.9485,7.6198 8.2262,10.9198 15.5621,22.5474 25.3833,34.5 28.348,34.5 0.4508,0 3.279,2.2271 6.2847,4.9491 3.0058,2.7221 8.0541,6.174 11.2185,7.671 5.3402,2.5263 6.6352,2.7147 18.0345,2.6233 l 12.28109,-0.098 8.4717,-4.1776 c 9.9601,-4.9114 19.8836,-13.8817 26.7894,-24.2161 4.0707,-6.0918 4.6679,-7.7649 6.1353,-17.1866 1.8696,-12.004 2.0667,-23.6005 0.5997,-35.2993 -0.5642,-4.5002 -1.1652,-11.2384 -1.3355,-14.9738 -0.1702,-3.7354 -1.0219,-10.8416 -1.8926,-15.7916 -0.8706,-4.95 -2.1076,-13.725 -2.7488,-19.5 -0.6412,-5.775 -1.5781,-12.6609 -2.0821,-15.3021 -3.2831,-17.207 -3.1438,-32.3994 0.4237,-46.1979 2.3937,-9.2583 6.5296,-22.2705 8.5819,-27 1.1067,-2.5503 4.804,-13.6478 6.4966,-19.5 0.7159,-2.475 1.638,-5.2875 2.0492,-6.25 1.2182,-2.8517 -2.0259,-2.1221 -4.446,1 -6.0074,7.7498 -14.71,19.7101 -20.0927,27.6142 -11.4976,16.8831 -12.2898,17.924 -21.4143,28.1358 -3.4401,3.85 -8.67539,9.8839 -11.63399,13.4086 -5.5773,6.6443 -13.2933,12.6552 -17.6481,13.7482 -7.4909,1.8801 -10.9391,-4.6559 -9.3154,-17.6568 0.5151,-4.125 1.6835,-9.975 2.5964,-13 0.9128,-3.025 2.0742,-7.1917 2.5808,-9.2594 2.8559,-11.6554 23.8865,-61.451 26.9202,-63.7406 0.3644,-0.275 1.21219,-2.7182 1.88409,-5.4292 0.6719,-2.7111 2.0043,-6.0861 2.9609,-7.5 2.852,-4.2156 4.3654,-8.3218 4.6837,-12.708 0.1651,-2.2755 0.7482,-4.9755 1.2957,-6 0.5475,-1.0246 1.5583,-3.3752 2.2461,-5.2236 1.9123,-5.1389 9.0125,-11.6614 22.8422,-20.98394 6.9157,-4.6617 14.5137,-10.0913 16.8845,-12.0656 5.8738,-4.8915 20.933,-22.6796 19.9947,-23.6179 -0.236,-0.2359 -9.8018,-0.6267 -21.2574,-0.8684 -21.1899,-0.4469 -24.0968,-1.032 -21.3817,-4.3035 0.8113,-0.9775 5.7124,-1.1543 21.4428,-0.7735 12.4085,0.3005 20.3911,0.1258 20.3911,-0.4462 0,-0.5169 -2.075,-1.9762 -4.6111,-3.2428 -4.9822,-2.4882 -11.8097,-8.529 -15.0744,-13.3374 -3.5951,-5.295 -4.6698,-10.243 -5.2625,-24.2283 -0.029,-0.6755 -2.4145,-3.6512 -5.302,-6.6127 -2.8875,-2.9614 -7.03,-8.2587 -9.2056,-11.7717 -2.1756,-3.513 -5.8624,-8.9894 -8.1929,-12.1698 -2.3305,-3.1803 -4.5431,-6.7458 -4.9168,-7.9232 -0.3737,-1.1774 -1.0714,-2.6252 -1.5506,-3.2175 -8.4221,-10.4103 -16.038,-19.4197 -17.51629,-20.7211 -1.0273,-0.9044 -5.6928,-5.5891 -10.3678,-10.4104 -4.675,-4.8213 -11.2,-11.0744 -14.5,-13.8958 -12.3295,-10.5411 -28.0547,-22.7918 -31.5349,-24.5673 -1.9794,-1.0098 -4.1595,-2.5115 -4.8447,-3.3371 -1.5599,-1.8796 -15.0767,-9.0605 -27.6204,-14.6737 -2.75,-1.2305 -7.2565,-3.3025 -10.0144,-4.6044 -2.7578,-1.3018 -5.9303,-2.367 -7.05,-2.367 -1.1196,0 -2.4631,-0.3741 -2.9856,-0.8314 -0.5225,-0.4573 -2.975,-1.3781 -5.45,-2.0462 -2.475,-0.6681 -5.4,-1.6211 -6.5,-2.1178 -1.1,-0.4968 -4.925,-1.611 -8.5,-2.4761 -7.4033,-1.7916 -11.3558,-4.2591 -11.8196,-7.3788 -0.2498,-1.6811 0.1861,-2.1419 2,-2.1141 2.5684,0.04 11.5296,2.0702 16.8724,3.8236 1.8959,0.6222 7.523,2.4458 12.5046,4.0525 4.9816,1.6066 11.5066,4.0503 14.5,5.4303 2.9934,1.38 7.0185,3.1858 8.9446,4.0128 12.5214,5.3763 17.0274,7.887 30.1569,16.8025 3.1125,2.1135 6.1125,3.8427 6.6667,3.8427 0.5543,0 1.1577,0.3526 1.3411,0.7836 0.1833,0.431 3.2583,2.9862 6.8333,5.6782 8.3492,6.287 18.27,14.7397 24.0613,20.5007 2.5088,2.4956 7.6838,7.5244 11.5,11.1751 14.26629,13.6474 25.24949,26.972 30.98339,37.5887 1.5224,2.8188 4.0135,6.5843 5.5358,8.368 1.5223,1.7837 3.5453,4.9671 4.4956,7.0744 1.877,4.1626 3.9693,5.2133 3.1487,1.5813 -0.5105,-2.2595 -3.9637,-16.2117 -5.6306,-22.75 -2.3905,-9.376 -3.3578,-13.7511 -6.5223,-29.5 -2.9282,-14.5728 -3.499,-19.7841 -3.9984,-36.5 -0.5741,-19.2208 -0.5472,-19.5753 1.8801,-24.7588 5.7387,-12.255 15.0968,-8.8825 29.8532,10.7588 3.0991,4.125 7.2506,9.6309 9.2254,12.2352 11.0204,14.5336 23.8231,39.3723 31.8857,61.8621 1.6951,4.7285 3.5321,8.6883 4.0821,8.7996 1.6031,0.3242 2.2891,-5.2485 1.9941,-16.1992 -0.2778,-10.3142 -1.0116,-13.3149 -5.799,-23.7134 -1.3967,-3.0337 -2.8615,-6.8587 -3.2551,-8.5 -0.3937,-1.6414 -1.0491,-3.4343 -1.4564,-3.9843 -0.4074,-0.55 -1.0902,-4.15 -1.5175,-8 -0.4272,-3.85 -0.9019,-7.9 -1.055,-9 -1.0721,-7.7049 5.8263,-22.3727 15.1958,-32.3101 l 5.3648,-5.6899 0.014,-7.691 c 0.01,-4.23 -0.3891,-7.9402 -0.8821,-8.2449 -1.0361,-0.6404 -10.2625,-1.304 -28.3537,-2.0396 -14.1132,-0.5738 -14.4885,-0.3812 -11.2724,5.7848 0.8059,1.545 1.5906,4.02 1.7438,5.5 0.2457,2.3729 -0.068,2.6907 -2.6557,2.6907 -2.6024,0 -3.1193,-0.5358 -4.5713,-4.738 -0.9004,-2.6059 -1.9425,-5.0434 -2.3157,-5.4167 -0.3733,-0.3732 -0.6787,-1.4733 -0.6787,-2.4446 0,-0.9712 -0.7875,-2.0061 -1.75,-2.2996 -0.9625,-0.2935 -13.9,-1.2225 -28.75,-2.0645 -14.85,-0.8421 -29.47499,-1.7713 -32.49999,-2.0649 -3.025,-0.2937 -13.6,-0.9986 -23.5,-1.5665 -9.9,-0.5679 -20.925,-1.2089 -24.5,-1.4246 -3.575,-0.2156 -19.775,-0.8741 -36,-1.4632 -16.225,-0.5891 -32.2,-1.2712 -35.5,-1.5156 -14.3844,-1.0657 -33.5,-1.7203 -33.5,-1.1473 0,0.3435 1.0704,3.4417 2.3786,6.885 3.3872,8.9151 8.3122,32.273 9.6486,45.7605 1.2906,13.0255 0.2882,28.0405 -3.1507,47.1952 -1.1162,6.2176 -2.2243,12.4298 -2.4624,13.8048 -1.4159,8.1761 -1.4757,15.9497 -0.1615,21 1.1298,4.3414 1.2636,8.7177 0.6354,20.7747 -0.4376,8.401 -1.2589,17.626 -1.8251,20.5 -1.8032,9.1542 -5.0047,19.9876 -6.6478,22.4952 -1.5128,2.3088 -1.4461,2.608 1.3595,6.0992 4.3675,5.4348 7.2254,11.5935 7.2254,15.5708 0,3.4601 -1.5626,12.7548 -4.6333,27.5601 -2.0734,9.9969 -9.1358,30.76714 -11.7095,34.43704 -1.1328,1.6153 -2.1544,4.5403 -2.2701,6.5 -0.4775,8.0846 -2.6665,17.8731 -5.5409,24.7779 -2.5063,6.0203 -23.1196,45.4777 -36.2593,69.4066 -6.3458,11.5564 -16.4014,25.4779 -20.4086,28.255 -8.7026,6.0308 -17.1182,4.2919 -21.1781,-4.3762 -2.113,-4.5112 -2.1813,-5.2689 -1.0517,-11.6625 1.3209,-7.4765 1.461,-7.9458 6.0721,-20.3378 6.3083,-16.9533 9.8387,-32.1022 9.9045,-42.5 0.052,-8.2315 -1.0034,-10.8492 -3.406,-8.4473 -2.006,2.0055 -6.0781,9.4666 -13.4253,24.5989 -6.2551,12.8828 -13.2198,23.8712 -19.9461,31.4695 -6.5957,7.4508 -16.4949,8.5262 -18.9995,2.064 -0.5724,-1.4768 -1.2939,-8.3101 -1.6035,-15.1851 -0.3095,-6.875 -0.7814,-14.75 -1.0487,-17.5 -2.6973,-27.7494 -2.0696,-36.5383 4.1228,-57.7201 1.9744,-6.7539 3.8055,-13.1799 4.069,-14.2799 0.2635,-1.1 0.8872,-2.9 1.3858,-4 0.4987,-1.1 1.5473,-4.8169 2.3302,-8.25974 0.7828,-3.4429 2.961,-9.0679 4.8402,-12.5 3.3948,-6.1999 3.4148,-6.3129 3.0974,-17.4612 -0.2859,-10.044 -0.045,-11.9843 2.2924,-18.5 3.1049,-8.6535 5.9042,-14.3669 8.2983,-16.9366 4.1184,-4.4205 4.4427,-6.2877 1.8169,-10.4584 -5.106,-8.11 -7.0924,-14.1639 -9.0698,-27.6408 -0.6178,-4.211 1.028,-19.6462 2.9171,-27.3575 1.7424,-7.1127 5.6298,-16.6987 9.8987,-24.4095 0.7685,-1.388 2.1268,-7.238 3.0186,-13 2.8616,-18.4906 4.882,-26.1321 12.1554,-45.9763 5.0791,-13.8572 3.7437,-10.7811 15.4109,-35.5 2.8556,-6.05 6.3159,-12.5113 7.6896,-14.3584 2.921,-3.9276 1.9731,-5.1979 -3.7695,-5.0517 -4.141,0.1055 -36.2506,-1.6554 -54,-2.9612 -6.875,-0.5058 -13.175,-0.9204 -14,-0.9214 -7.1066,-0.01 -60.5598,-2.3377 -64.25,-2.8 -2.7002,-0.3382 -4.75,-0.192 -4.75,0.3388 0,0.9942 2.2521,1.7118 16.5,5.2574 21.1164,5.2549 30.0661,6.6242 55.5,8.4918 34.7637,2.5526 45.5432,5.0409 43.6142,10.0676 -0.4908,1.279 -1.5568,1.5288 -4.8712,1.1411 -8.8131,-1.0307 -52.7664,-5.5507 -65.243,-6.7093 -7.15,-0.6639 -13.5428,-1.6481 -14.2062,-2.187 -0.6634,-0.5389 -1.6343,-0.7153 -2.1576,-0.3919 -0.5233,0.3235 -2.0056,0.1965 -3.2938,-0.2821 l -2.3424,-0.8701 -1.2446,15.6182 c -2.9119,36.542 -2.575,83.9213 0.7405,104.1182 0.4965,3.025 1.6723,10.45 2.6127,16.5 0.9404,6.05 2.0295,11.45 2.4202,12 0.3907,0.55 1.0286,2.8 1.4175,5 1.681,9.5095 12.8476,39.8308 18.7821,51 3.8596,7.264 4.2416,7.8734 8.0216,12.796 3.7506,4.8843 4.6691,8.0179 2.706,9.2312 -2.7779,1.7168 -10.9341,-8.1031 -16.2189,-19.5272 -3.6647,-7.922 -8.403,-19.1327 -9.1929,-21.75 -0.3992,-1.323 -1.4753,-2.25 -2.6116,-2.25 -1.0629,0 -1.9326,-0.4803 -1.9326,-1.0674 0,-0.6123 0.8527,-0.7967 2,-0.4326 1.9496,0.6188 2.8433,-0.8608 1.1515,-1.9064 -0.749,-0.4629 -2.7401,-6.0984 -7.6292,-21.5936 -1.7999,-5.7044 -4.2383,-16.3062 -4.945,-21.5 -0.2993,-2.2 -1.0098,-7.375 -1.5788,-11.5 -3.2539,-23.5875 -4.0729,-36.6235 -3.8951,-62 0.1021,-14.575 0.5736,-29.425 1.0478,-33 0.4741,-3.575 1.0837,-10.1 1.3545,-14.5 0.2707,-4.4 0.7263,-10.0852 1.0123,-12.6337 0.4972,-4.4304 0.3985,-4.6572 -2.249,-5.1683 -5.1521,-0.9947 -11.7586,-2.7292 -13.769,-3.615 -1.1,-0.4846 -3.5077,-1.4499 -5.3503,-2.145 -1.8427,-0.6951 -5.1688,-2.783 -7.3913,-4.6398 -2.2224,-1.8568 -4.7648,-3.3067 -5.6496,-3.222 -3.751,0.3593 -5.1088,-0.1641 -5.1088,-1.9692 0,-2.1587 1.8628,-3.107 6.1032,-3.107 1.6168,0 4.6175,-1.1038 6.6682,-2.4528 4.4672,-2.9388 20.5675,-8.5472 24.5366,-8.5472 6.1087,0 6.192,-0.2441 6.192,-18.1559 l 0,-16.3441 -25.5,0 -25.5,0 -0.2046,11 c -0.1125,6.05 -0.225,14.2625 -0.25,18.25 -0.042,6.6939 -0.2072,7.25 -2.1544,7.25 -2.0848,0 -2.1037,-0.2077 -1.6399,-18.0274 0.2581,-9.9151 0.1531,-18.2228 -0.2333,-18.4616 -2.2865,-1.4131 -296.31986,-3.5423 -297.70642,-2.1558 -0.31934,0.3194 -0.11115,1.8326 0.46265,3.3627 0.5738,1.5302 2.03373,6.1571 3.24429,10.2821 1.21056,4.125 2.53541,8.1753 2.94413,9.0007 0.40871,0.8254 2.63779,7.5754 4.95352,15 2.31572,7.4246 4.58655,14.3993 5.04628,15.4993 1.55504,3.7208 2.94791,7.9781 4.41679,13.5 0.80469,3.025 2.8668,9.1 4.58247,13.5 3.54488,9.0911 6.22485,16.9475 8.01638,23.5 0.67669,2.475 1.60827,5.4783 2.07017,6.6741 1.02233,2.6465 -0.93582,4.6311 -4.09732,4.1527 -1.81135,-0.2741 -2.53912,-1.7771 -4.51629,-9.3268 -1.29634,-4.95 -3.23182,-11.25 -4.30107,-14 -9.01322,-23.1811 -8.42436,-21.5556 -8.73552,-24.1136 -0.14141,-1.1625 -0.99783,-3.8625 -1.90315,-6 -1.95318,-4.6115 -3.21032,-8.3866 -7.4549,-22.3864 -2.7867,-9.1913 -4.93383,-15.821 -6.8011,-21 -0.29746,-0.825 -0.67182,-2.1564 -0.83192,-2.9586 -0.1601,-0.8022 -1.48779,-4.7397 -2.95042,-8.75 -2.02822,-5.561 -3.10987,-7.2914 -4.55786,-7.2914 -1.0442,0 -1.89855,0.5229 -1.89855,1.1621 0,1.3448 2.85631,11.3883 4.07762,14.3379 0.45546,1.1 1.75856,5.375 2.89576,9.5 3.93687,14.2802 4.29169,15.5183 5.58829,19.5 0.71642,2.2 2.05313,6.7 2.97047,10 0.91735,3.3 2.04407,6.9 2.50382,8 0.45975,1.1 1.75932,5.15 2.88793,9 1.12862,3.85 3.44005,11.725 5.13653,17.5 9.74215,33.1633 9.50879,32 6.41911,32 -1.22516,0 -3.4335,-5.4087 -4.08298,-10 -0.28809,-2.0366 -9.65479,-33.0296 -16.92434,-56 -2.0017,-6.325 -4.72923,-15.325 -6.06117,-20 -1.33195,-4.675 -3.0788,-10.75 -3.8819,-13.5 -0.8031,-2.75 -1.76291,-6.35 -2.13292,-8 -0.37,-1.65 -0.94802,-3.45 -1.28448,-4 -0.33646,-0.55 -1.06174,-2.8 -1.61174,-5 l -1,-4 -8,-0.5514 c -4.4,-0.3033 -8.27657,-0.4269 -8.61459,-0.2747 -0.33803,0.1522 -0.5403,68.1173 -0.44949,151.0336 l 0.1651,150.7568 3.94949,1.191 c 2.17222,0.655 5.77199,1.2256 7.99949,1.2678 6.6417,0.1261 8.48226,3.2359 3.2,5.4069 l -3.25,1.3356 4.98536,2.2151 c 6.12747,2.7225 18.81663,6.1139 22.95298,6.1346 3.94132,0.02 6.01555,1.3595 5.23876,3.3838 -1.36897,3.5675 -20.82724,-0.09 -31.56263,-5.9333 -5.49821,-2.9925 -7.58006,-2.7427 -4.59863,0.5517 1.23571,1.3654 1.50662,2.36 0.82775,3.0389 -1.54815,1.5482 -4.08294,0.1014 -6.40491,-3.6556 -1.15599,-1.8705 -2.41329,-3.4008 -2.79399,-3.4008 -0.38071,0 -0.62003,6.8625 -0.53183,15.25 0.19317,18.36964 -0.30927,23.75004 -2.2179,23.75004 -0.99449,0 -1.4011,-1.3636 -1.41636,-4.75 -0.0118,-2.6125 -0.0281,-81.57104 -0.0362,-175.46334 -0.008,-93.8924 -0.37547,-170.9363 -0.81629,-171.2087 -0.44082,-0.2725 -16.30368,-0.6532 -35.25079,-0.846 -18.94711,-0.1929 -34.93703,-0.6521 -35.53315,-1.0205 -2.67698,-1.6545 -2.18738,-10.7115 0.57904,-10.7115 1.46326,0 12.38982,-7.7252 16.57877,-11.7214 2.2,-2.0987 6.51468,-6.5075 9.58818,-9.7972 14.11045,-15.1033 32.59195,-30.4152 34.95126,-28.957 2.05069,1.2674 0.79087,4.4419 -2.93334,7.3916 -2.14165,1.6962 -4.1117,3.084 -4.37789,3.084 -0.9677,0 -12.36947,10.8212 -26.14076,24.8096 -8.25966,8.3899 -16.26348,15.5587 -19.34754,17.3292 -2.89305,1.6607 -5.07197,3.3214 -4.84205,3.6904 0.22992,0.3689 15.42196,0.6708 33.76009,0.6708 l 33.34205,0 0.0291,-24.9264 c 0.0221,-18.9862 0.32594,-25.0253 1.27486,-25.3416 0.68519,-0.2284 1.89955,-1.9799 2.69857,-3.8922 1.19781,-2.8668 1.90461,-3.4211 4.02742,-3.1584 2.1866,0.2706 2.91939,1.3084 4.86183,6.8856 1.25795,3.6119 3.47444,8.7869 4.92554,11.5 6.08418,11.3757 15.68272,33.8956 15.68272,36.7945 0,0.8363 0.3804,1.7556 0.84533,2.0429 0.85346,0.5275 49.66218,1.1644 164.15469,2.1421 95.2811,0.8136 158.3367,1.4196 160,1.5377 1.8529,0.1315 25.4043,0.096 29.4476,-0.044 1.6212,-0.056 3.1716,-0.3262 3.4453,-0.6 1.4338,-1.4338 0.3278,-69.1057 -1.3147,-80.4404 -0.1992,-1.375 -0.8769,-6.775 -1.5059,-12 -0.629,-5.225 -1.9151,-12.0796 -2.858,-15.2325 -1.5027,-5.025 -2.1622,-5.9128 -5.3434,-7.1935 -6.3892,-2.5722 -9.1762,-1.0212 -29.0364,16.1597 -3.7262,3.2236 -7.112,7.0892 -7.678,8.7663 -1.1059,3.2769 -4.4577,23.7323 -6.2267,38 -0.6138,4.95 -0.9615,17.3155 -0.7729,27.4788 0.3237,17.4365 0.237,18.4997 -1.5371,18.8484 -2.2356,0.4394 -3.5834,-1.3759 -3.6045,-4.8547 -0.01,-1.3901 -0.6574,-3.4443 -1.4423,-4.5648 -0.7848,-1.1205 -2.4007,-4.9331 -3.5909,-8.4725 -1.1902,-3.5394 -2.492,-6.8852 -2.8929,-7.4352 -0.4009,-0.55 -1.3212,-3.025 -2.045,-5.5 -0.7238,-2.475 -2.6049,-8.1326 -4.1801,-12.5725 -1.5753,-4.4399 -2.8641,-8.7723 -2.8641,-9.6275 0,-0.8553 -0.6094,-2.0609 -1.3543,-2.679 -1.0471,-0.8691 -2.4079,-0.3194 -6,2.4233 -2.5551,1.951 -4.6465,3.8642 -4.6475,4.2515 -10e-4,0.3873 -2.026,1.983 -4.5,3.546 -2.474,1.563 -4.4982,3.1993 -4.4982,3.6361 0,0.4368 -1.4625,1.5533 -3.25,2.4812 -4.0924,2.1241 -6.1278,3.3438 -11.75,7.0409 -2.475,1.6275 -5.2265,3.4183 -6.1144,3.9796 -8.3246,5.2618 -21.1296,10.1847 -34.9828,13.4491 -7.6532,1.8035 -8.5109,1.838 -9.6141,0.3876 -1.4644,-1.9255 0,-5.3163 2.2922,-5.3163 1.4279,0 11.8667,-3.0526 22.9191,-6.7022 6.6656,-2.201 13.0248,-5.2303 18.5,-8.8126 6.1983,-4.0555 7.2649,-4.7175 11.017,-6.8372 4.6136,-2.6065 17.1042,-11.967 19.4172,-14.5514 1.0638,-1.1886 3.4565,-3.102 5.3171,-4.2519 3.2008,-1.9782 3.3457,-2.3109 2.6922,-6.1793 -0.3799,-2.2487 -1.0338,-4.7808 -1.4532,-5.6269 -3.1106,-6.2772 -5.3738,-13.3163 -9.0148,-28.0385 -2.9357,-11.87 -4.2838,-42.6054 -2.111,-48.1268 0.5137,-1.3053 1.6914,-5.2982 2.6171,-8.8732 3.2577,-12.5807 9.2416,-25.6296 13.5347,-29.5148 1.091,-0.9873 1.9837,-2.4004 1.9837,-3.1402 0,-0.7397 0.3473,-1.345 0.7718,-1.345 0.4245,0 2.9332,-1.9844 5.5748,-4.4097 4.9124,-4.51 6.2486,-5.205 15.434,-8.028 5.7944,-1.7808 11.6791,-0.9598 14.6883,2.0494 4.6591,4.6591 8.1241,18.3485 7.0591,27.8883 -0.8087,7.2434 -4.2978,25.3186 -5.1552,26.7057 -0.3379,0.5468 -0.9668,3.5367 -1.3975,6.6443 -0.4307,3.1075 -1.7229,10.6 -2.8715,16.65 -4.8397,25.4913 -5.0452,29.4793 -1.2854,24.9398 0.9249,-1.1167 3.9316,-3.7948 6.6816,-5.9512 2.75,-2.1564 5.2322,-4.2422 5.5159,-4.635 1.0743,-1.487 12.1785,-6.7995 15.5247,-7.4272 3.4198,-0.6415 9.4594,1.0046 9.4594,2.5783 0,0.4191 0.7875,0.968 1.7501,1.2197 2.1851,0.5714 5.4707,11.586 6.7937,22.7756 0.2926,2.475 0.9462,6.75 1.4523,9.5 0.8389,4.5586 1.239,10.0761 2.5745,35.5 0.6104,11.6211 0.4295,27.3299 -0.4663,40.5 -0.4115,6.05 -0.6742,11.1166 -0.5838,11.259 0.09,0.1425 23.7477,0.4749 52.5719,0.7386 28.8242,0.2637 78.2826,0.7147 109.9076,1.0023 31.625,0.2875 65.6,0.7795 75.5,1.0933 33.8038,1.0714 143.42179,1.3424 144.03139,0.356 0.777,-1.2572 4.8023,-1.2155 6.0808,0.063 0.5979,0.5979 11.6744,1.2623 27.0599,1.623 l 26.0477,0.6108 0.4836,-2.5295 c 0.2659,-1.3913 0.5094,-24.6217 0.541,-51.6231 0.048,-41.4562 -0.1605,-49.0934 -1.3435,-49.0934 -0.7705,0 -1.4009,0.3957 -1.4009,0.8794 0,0.4837 -1.6875,2.6749 -3.75,4.8693 -6.4534,6.8663 -15.5901,18.9751 -19.6204,26.0026 -10.9093,19.0224 -15.9425,29.1245 -18.7453,37.6234 -2.5078,7.6047 -4.2437,10.0851 -6.4619,9.2339 -1.3393,-0.5139 -1.5793,-1.5878 -1.2016,-5.3754 0.463,-4.6433 8.7456,-25.2647 11.347,-28.2512 0.7272,-0.8349 2.1379,-3.3397 3.1347,-5.5663 2.4511,-5.4746 7.8498,-14.2176 13.2975,-21.535 2.475,-3.3243 5.5375,-7.47 6.8056,-9.2125 1.2681,-1.7425 5.8699,-6.8013 10.2262,-11.2417 l 7.9206,-8.0734 0.2738,-17.9266 c 0.2313,-15.1463 0.5064,-17.9265 1.7738,-17.9265 1.253,0 1.5456,2.4285 1.7767,14.75 0.1971,10.5039 0.6162,14.75 1.4559,14.75 1.3776,0 10.4188,-9.2606 16.501,-16.9015 2.42,-3.0402 4.9653,-7.7345 5.9419,-10.9585 2.1922,-7.2379 2.7775,-7.9515 7.175,-8.7487 2.0072,-0.364 5.4495,-1.5669 7.6495,-2.6732 4.5456,-2.286 20.4862,-18.0763 25,-24.7644 1.65,-2.4448 4.8517,-6.922 7.1148,-9.9494 2.2632,-3.0274 4.4122,-6.4575 4.7756,-7.6224 0.3633,-1.165 1.5492,-2.9222 2.6351,-3.905 1.086,-0.9828 1.9745,-2.1761 1.9745,-2.6518 0,-0.4756 1.1039,-2.6135 2.4531,-4.7507 1.3491,-2.1373 2.7557,-6.168 3.1257,-8.9571 0.6238,-4.7023 0.4999,-5.1407 -1.703,-6.0269 -1.3067,-0.5257 -4.1758,-2.8337 -6.3758,-5.1288 -2.2,-2.2952 -5.2896,-5.3629 -6.8657,-6.8173 -1.5762,-1.4544 -4.0512,-3.9943 -5.5,-5.6443 -5.1094,-5.8188 -15.682,-15.688 -19.6343,-18.328 -2.2,-1.4696 -4.45,-3.0026 -5,-3.4067 -3.3439,-2.4567 -14.6078,-9.7653 -15.0502,-9.7653 -0.5266,0 -1.6224,-0.7047 -10.6133,-6.8253 -2.5649,-1.7461 -4.9513,-3.1747 -5.303,-3.1747 -0.3518,0 -2.2952,-1.125 -4.3187,-2.5 -2.0235,-1.375 -4.0246,-2.5 -4.4469,-2.5 -0.4224,0 -0.7679,12.7984 -0.7679,28.441 0,28.6848 -0.4617,32.3832 -3.5207,28.1997 -1.1731,-1.6042 -1.2088,-5.8363 -0.4058,-48.1407 0.094,-4.95 0.1158,-9.7719 0.049,-10.7153 -0.069,-0.9657 -3.2901,-3.7376 -7.3721,-6.3434 -3.9875,-2.5455 -9.1757,-5.9361 -11.5292,-7.5347 -2.3536,-1.5986 -4.661,-2.9066 -5.1276,-2.9066 -0.4666,0 -1.3521,-0.607 -1.9678,-1.3489 -0.6157,-0.7419 -4.0258,-2.8241 -7.5781,-4.6271 -7.1807,-3.6447 -17.8668,-13.469 -23.9022,-21.9746 -4.8105,-6.7792 -5.1666,-7.7161 -3.6345,-9.5621 2.4243,-2.9212 4.8473,-1.5718 10.3479,5.7627 7.2819,9.7098 9.7332,12.0153 19.2264,18.0827 4.4467,2.842 8.9467,5.7326 10,6.4236 1.0533,0.691 4.5625,2.941 7.7983,5 3.2357,2.059 7.1257,4.7562 8.6443,5.9937 1.5187,1.2375 3.2588,2.25 3.8669,2.25 0.6081,0 1.1141,-1.0125 1.1244,-2.25 0.01,-1.2375 0.2965,-24.7982 0.6359,-52.357 0.4118,-33.4411 0.2798,-50.3154 -0.3968,-50.7336 -0.5576,-0.3446 -2.2001,1.166 -3.6501,3.357 -1.4499,2.191 -3.3048,3.9836 -4.122,3.9836 -2.5517,0 -1.6547,-4.3471 1.5142,-7.338 1.65,-1.5573 3,-3.4684 3,-4.2468 0,-1.8163 -3.4301,-1.8216 -6.2852,-0.01 -2.0815,1.321 -6.3105,1.8816 -23.2148,3.0772 -3.85,0.2722 -9.7,0.719 -13,0.9928 -13.2298,1.0976 -18.8482,1.5263 -39,2.9756 -11.55,0.8306 -23.25,1.7462 -25.99999,2.0345 -2.75,0.2883 -7.925,0.7375 -11.5,0.998 -14.0429,1.0236 -34.775,2.5642 -40,2.9724 -24.2506,1.8944 -54.9165,4.4148 -61.5,5.0546 -2.2,0.2138 -8.95,0.6599 -15,0.9913 -6.05,0.3314 -12.35,0.8085 -14,1.0602 -1.65,0.2517 -11.1,1.1322 -21,1.9567 -9.9,0.8245 -19.575,1.6859 -21.5,1.9142 -1.925,0.2283 -8,0.6926 -13.5,1.0317 -5.5,0.3391 -11.125,0.799 -12.5,1.022 -1.375,0.223 -6.55,0.6782 -11.5,1.0116 -10.2271,0.6889 -29.4013,2.3752 -33.9546,2.9862 -1.675,0.2247 -7.3204,0.6843 -12.5454,1.0212 -12.3979,0.7996 -19.3594,1.3405 -25.5,1.9814 -2.75,0.287 -11.075,0.9934 -18.5,1.5697 -7.425,0.5764 -15.3,1.2072 -17.5,1.4019 -2.2,0.1948 -8.5,0.666 -14,1.0473 -13.646,0.9459 -18.5602,1.3942 -21.5,1.9612 -2.2922,0.4421 -20.5469,1.8773 -39,3.0662 -4.125,0.2658 -11.775,0.911 -17,1.4339 -5.225,0.5228 -16.7,1.4486 -25.5,2.0573 -8.8,0.6087 -22.8072,1.78 -31.1272,2.6028 -18.5658,1.8361 -22.1834,2.141 -35.0578,2.9548 -14.5075,0.9169 -16.5108,1.46 -18.2795,4.9552 -6.6095,13.0608 -11.7769,18.5588 -24.5355,26.1045 -4.5764,2.7066 -12.8583,6.358 -14.4208,6.358 -0.9236,0 -2.231,0.5518 -2.9055,1.2263 -0.7878,0.7878 -4.6624,1.2501 -10.8349,1.2927 l -9.6086,0.066 -5.1151,7.1867 c -2.81333,3.9528 -9.84012,13.9778 -15.61512,22.2778 -5.775,8.3001 -12.6375,17.9644 -15.25,21.4763 -2.6125,3.5118 -4.75,6.6776 -4.75,7.0351 0,0.6171 -3.45223,5.2008 -6.35558,8.4386 -0.73978,0.825 -2.96893,3.975 -4.95367,7 -1.98474,3.025 -6.10209,9.0201 -9.14968,13.3225 -3.04759,4.3023 -5.54107,8.0338 -5.54107,8.2922 0,0.2583 -0.44847,1.0132 -0.99659,1.6775 -0.54812,0.6643 -2.94131,3.9078 -5.31819,7.2078 -2.37688,3.3 -8.38218,11.625 -13.3451,18.5 -4.96293,6.875 -10.97347,15.425 -13.35676,19 -2.38329,3.575 -4.61419,6.725 -4.95755,7 -0.34337,0.275 -3.66862,5 -7.38946,10.5 -3.72083,5.5 -10.09963,14.725 -14.17511,20.5 -4.07548,5.775 -10.009,14.2859 -13.1856,18.913 -3.1766,4.6272 -7.12564,10.3346 -8.77564,12.6832 -2.95279,4.2029 -6.33957,9.0715 -15.93292,22.9038 -2.67015,3.85 -5.91507,8.1496 -7.21095,9.5547 -1.29587,1.4051 -2.35613,2.8676 -2.35613,3.25 0,0.3824 6.6949,0.6953 14.87756,0.6953 10.88942,0 15.1631,0.3441 15.94279,1.2835 2.46198,2.9665 -0.32594,3.6045 -17.72055,4.055 -9.54288,0.2472 -17.63174,0.884 -17.97524,1.4153 -0.34351,0.5312 -2.11622,2.9414 -3.93935,5.356 -2.97563,3.941 -20.19432,28.3132 -22.68521,32.1098 -0.55,0.8383 -3.025,4.3351 -5.5,7.7706 -2.475,3.4355 -5.02944,7.1693 -5.67654,8.2973 -1.63279,2.8461 -4.25389,4.1821 -5.58783,2.8481 -0.76216,-0.7621 0.26252,-3.0301 3.54834,-7.8536 9.47061,-13.9026 13.06809,-18.8035 14.37406,-19.5817 0.73808,-0.4398 1.34197,-1.2436 1.34197,-1.7862 0,-0.5427 2.1375,-3.8631 4.75,-7.3789 2.6125,-3.5157 7.09647,-9.5578 9.96438,-13.4267 2.86791,-3.869 4.89291,-7.2285 4.5,-7.4656 -0.39291,-0.2371 -7.1826,-0.4876 -15.0882,-0.5567 -15.22093,-0.133 -17.12618,0.3577 -17.12618,4.4105 0,1.2385 -0.67608,4.1681 -1.50241,6.5101 -0.82632,2.3421 -2.22506,11.2861 -3.1083,19.8757 -0.88325,8.5896 -2.023,16.405 -2.53278,17.3675 -1.29259,2.4405 -3.58128,2.1834 -4.45091,-0.5 -0.76034,-2.3462 -0.70858,-53.6585 0.1087,-107.75 0.26176,-17.325 0.70286,-74.6772 0.98021,-127.4494 0.28139,-53.5399 0.89539,-96.3405 1.38916,-96.8343 0.51316,-0.5131 1.46021,-0.063 2.2545,1.0706 1.08987,1.556 1.33691,7.65 1.20944,29.8343 -0.20268,35.2743 -1.29381,153.0511 -1.91892,207.1288 l -0.47682,41.25 2.5455,0 c 2.73691,0 2.6089,0.2102 7.00282,-11.5 7.31836,-19.5041 9.39048,-23.5 12.18618,-23.5 2.54541,0 2.51358,2.8835 -0.0947,8.5808 -1.4254,3.1135 -2.59163,6.1709 -2.59163,6.7943 0,0.6234 -1.8,4.8444 -4,9.38 -2.2,4.5356 -4,8.6615 -4,9.1687 0,0.5225 7.31928,0.967 16.8858,1.0256 l 16.8858,0.1033 4.96364,-6.7763 c 6.10423,-8.3335 13.09648,-18.3924 15.76476,-22.6789 1.1,-1.7671 2.5712,-3.8619 3.26934,-4.6552 0.69814,-0.7933 3.92971,-5.2673 7.18126,-9.9423 3.25155,-4.675 6.61784,-9.2875 7.48065,-10.25 0.86281,-0.9625 1.56875,-1.9914 1.56875,-2.2865 0,-0.2951 3.52758,-5.5826 7.83907,-11.75 4.31148,-6.1674 11.80559,-17.0635 16.65356,-24.2135 4.84798,-7.15 9.8704,-14.1496 11.16094,-15.5547 1.29054,-1.4051 2.34643,-2.8476 2.34643,-3.2056 0,-0.8201 2.97871,-5.1764 10.09236,-14.7599 3.07015,-4.1362 7.33471,-10.2112 9.47679,-13.5 2.14208,-3.2889 6.49033,-9.4805 9.66277,-13.7592 3.17244,-4.2787 5.76808,-7.9629 5.76808,-8.187 0,-0.6089 13.69358,-20.1937 18.66791,-26.6991 2.38265,-3.1161 4.33209,-6.1536 4.33209,-6.75 0,-0.5965 0.34442,-1.0845 0.76538,-1.0845 0.42096,0 3.13868,-3.4875 6.03938,-7.75 2.9007,-4.2625 6.12481,-8.875 7.16468,-10.25 2.01554,-2.6651 14.47619,-20.2826 18.26139,-25.8189 1.24804,-1.8254 3.28167,-4.5904 4.51915,-6.1444 1.2375,-1.554 2.25,-3.0768 2.25,-3.3841 0,-0.3073 -1.6875,-1.3451 -3.74998,-2.3063 -6.93534,-3.2318 -15.38946,-11.7088 -17.22549,-17.272 -1.41791,-4.2963 -0.83956,-6.0743 1.97587,-6.0743 1.26841,0 2.88509,1.8754 4.95685,5.75 2.60913,4.8796 4.07189,6.3176 9.66364,9.5 7.67101,4.3657 8.88921,4.5397 10.50421,1.5 0.6575,-1.2375 3.8234,-5.7507 7.0352,-10.0294 3.2118,-4.2787 5.8397,-8.1465 5.8397,-8.595 0,-1.4767 3.8515,-4.3354 4.937,-3.6645 2.3655,1.4619 1.0328,3.793 -12.9879,22.7187 -1.113,1.5024 -1.5679,2.9378 -1.0352,3.267 1.9111,1.1811 26.0861,-3.8591 26.0861,-5.4387 0,-0.3715 2.471,-1.9682 5.4911,-3.5483 3.0201,-1.58 6.5076,-3.9387 7.75,-5.2414 1.2424,-1.3027 3.4964,-3.56 5.0089,-5.0161 1.5125,-1.4562 2.75,-3.144 2.75,-3.7507 0,-0.6066 1.125,-2.1599 2.5,-3.4516 1.375,-1.2917 2.5,-2.9383 2.5,-3.659 0,-1.3113 -0.9196,-1.3045 -17.1276,0.1271 -6.0054,0.5304 -8.8724,-0.2698 -8.8724,-2.4763 0,-2.2388 1.9254,-2.6884 15,-3.5026 13.1767,-0.8205 13.6715,-0.9684 14.2973,-4.2721 0.283,-1.4944 1.2108,-4.7421 2.0617,-7.2171 0.8509,-2.475 2.1206,-6.525 2.8216,-9 0.701,-2.475 2.2506,-6.5389 3.4436,-9.0309 2.3695,-4.9494 10.9789,-13.9546 13.3758,-13.9905 2.1088,-0.032 10.4116,-3.9003 9.7629,-4.549 -0.4895,-0.4895 -4.8436,0.5406 -21.1018,4.9925 -7.8632,2.1531 -15.4641,5.4409 -19.435,8.4066 -5.1244,3.8272 -3.4544,6.9502 6.0711,11.3531 4.0974,1.8939 4.7538,2.5893 4.5,4.7678 -0.2694,2.3116 -0.6864,2.5335 -4.4547,2.3703 -7.5596,-0.3276 -15.3425,-7.5632 -15.3425,-14.2637 0,-3.3433 3.3845,-10.0562 5.0701,-10.0562 0.4989,0 1.7741,-0.7424 2.8339,-1.6499 2.0969,-1.7954 6.546,-3.5822 15.096,-6.0628 3.025,-0.8776 5.9275,-1.9763 6.45,-2.4415 0.5225,-0.4652 -8.4775,-0.8527 -20,-0.8611 -11.5225,-0.01 -29.725,-0.2167 -40.45,-0.4629 -10.725,-0.2462 -66.23788,-0.7227 -123.36198,-1.0591 -57.12411,-0.3363 -104.48661,-0.8511 -105.25,-1.1441 -1.93412,-0.7421 -1.76017,0.2017 1.18419,6.4256 2.47791,5.2378 2.64039,8.2558 0.4445,8.2558 -0.57535,0 -1.82697,-1.2841 -2.78139,-2.8535 -0.95441,-1.5694 -2.11279,-2.8069 -2.57416,-2.75 -0.46137,0.057 -0.95324,8.5604 -1.09304,18.8965 -0.15789,11.6737 -0.65947,19.1984 -1.32401,19.8629 -2.69054,2.6906 -3.24409,-0.5881 -3.24409,-19.2149 0,-20.23 -0.36241,-21.5276 -4.54692,-16.2797 -2.16361,2.7134 -4.45308,2.551 -4.45308,-0.3159 0,-1.6472 3.01864,-6.2887 6.7216,-10.3352 1.25312,-1.3694 2.2784,-3.041 2.2784,-3.7148 0,-0.6738 0.98447,-1.7519 2.18771,-2.3959 2.51593,-1.3464 16.62554,-1.3771 135.81229,-0.2946 159.19548,1.4459 210.92368,1.0586 215.99998,-1.6169 0.825,-0.4348 3.75,-1.1214 6.5,-1.5256 2.75,-0.4042 6.125,-1.1609 7.5,-1.6813 1.375,-0.5205 5.65,-1.7647 9.5,-2.7648 3.85,-1.0002 10.825,-2.946 15.5,-4.3241 4.675,-1.3782 14.8,-3.8997 22.5,-5.6036 7.7,-1.7038 14.9,-3.4917 16,-3.9731 2.0411,-0.8933 17.1868,-6.0296 19,-6.4435 0.55,-0.1255 1.675,-0.6655 2.5,-1.1998 0.825,-0.5344 2.228,-1.4218 3.1177,-1.9719 0.8898,-0.5502 2.7988,-1.8373 4.2423,-2.8603 2.985,-2.1154 5.64,-1.5823 5.64,1.1324 0,6.5646 -21.945,16.6661 -47.5,21.8647 -10.5017,2.1363 -41.5073,10.2606 -43.4674,11.3896 -1.5122,0.871 12.002,1.0379 84.1224,1.039 28.3579,4e-4 33.8466,0.2314 34.8725,1.4674 0.9183,1.1066 0.936,1.806 0.072,2.8474 -0.9319,1.1228 -7.7199,1.3978 -36.3725,1.4732 -49.7029,0.1308 -95.6828,0.1376 -96.5178,0.014 -2.4192,-0.3574 -13.4416,0.2327 -12.9794,0.6949 0.3095,0.3096 2.972,0.7145 5.9166,0.8998 7.0191,0.4419 25.0128,2.4979 26.5856,3.0378 0.6775,0.2325 4.2775,0.7122 8,1.066 3.7226,0.3537 9.0183,1.0352 11.7683,1.5144 2.75,0.4791 12.65,1.8248 22,2.9905 20.48,2.5532 20.8302,2.5999 26.5,3.5316 2.475,0.4068 4.8574,0.6559 5.2942,0.5536 0.4368,-0.1023 3.5868,0.2957 7,0.8843 3.4132,0.5887 8.0679,1.2957 10.3438,1.5713 9.1008,1.1018 12.4351,3.1491 11.0419,6.7796 -0.697,1.8165 -5.9881,1.7119 -18.1799,-0.3595 -5.3631,-0.9112 -15.2634,-2.2957 -37,-5.1742 -10.2407,-1.3561 -12.3684,-1.6186 -19,-2.3439 -3.3,-0.3609 -6.675,-0.8864 -7.5,-1.1677 -0.825,-0.2813 -3.525,-0.7182 -6,-0.971 -2.475,-0.2527 -10.575,-1.4313 -18,-2.619 -23.2825,-3.7242 -54.6862,-2.16 -64.81,3.2281 -7.155,3.808 -12.2819,10.6578 -13.7217,18.3328 -0.3823,2.0376 -1.094,3.9514 -1.5817,4.2528 -0.4876,0.3013 -0.8866,1.3369 -0.8866,2.3011 0,0.9642 -0.9,3.6159 -2,5.8927 -2.6116,5.4053 -2.57,5.5656 1.2586,4.8474 1.7922,-0.3362 7.0797,-0.8297 11.75,-1.0966 4.6703,-0.2669 10.5164,-0.7169 12.9914,-1 6.8301,-0.7813 15.7753,-1.5635 23,-2.0112 8.5436,-0.5293 20.2681,-1.429 26.5,-2.0334 7.4144,-0.7191 15.3924,-1.3628 31,-2.5013 7.7,-0.5617 15.575,-1.2136 17.5,-1.4487 1.925,-0.2351 7.775,-0.6957 13,-1.0235 5.225,-0.3279 11.075,-0.7847 13,-1.0152 1.925,-0.2305 6.65,-0.6735 10.5,-0.9844 7.0223,-0.5671 37.9416,-3.3196 44.5,-3.9615 1.925,-0.1884 8.675,-0.6485 15,-1.0225 6.325,-0.374 13.075,-0.8555 15,-1.07 1.925,-0.2144 12.275,-1.0766 23,-1.916 10.725,-0.8393 20.85,-1.7466 22.5,-2.0162 1.65,-0.2696 7.275,-0.7252 12.5,-1.0125 5.225,-0.2874 14.675,-0.9656 21,-1.5071 6.325,-0.5415 14.425,-1.2068 18,-1.4784 3.575,-0.2717 8.075,-0.7086 10,-0.971 1.925,-0.2625 7.325,-0.732 12,-1.0435 4.675,-0.3114 10.525,-0.7495 13,-0.9734 2.475,-0.2239 10.8,-0.8882 18.5,-1.4761 7.7,-0.588 16.7,-1.2877 20,-1.5549 6.4292,-0.5206 26.2362,-2.0543 38.5,-2.9811 11.1092,-0.8395 16.8162,-1.3078 23.5,-1.9282 7.882,-0.7317 29.7937,-2.4207 40.5,-3.1218 4.675,-0.3062 9.175,-0.7323 10,-0.947 0.825,-0.2146 9.82499,-0.8705 19.99999,-1.4576 33.087,-1.9089 37,-2.2332 37,-3.0665 0,-0.4519 -52.90189,-0.8622 -117.55969,-0.9118 -103.1268,-0.079 -117.9206,-0.2769 -120.5,-1.6108 -1.6172,-0.8362 -2.9403,-1.9038 -2.9403,-2.3723 0,-1.425 2.844,-3.3112 3.9562,-2.6239 0.5741,0.3548 1.0507,0.056 1.0591,-0.6639 0.01,-0.7994 0.3013,-0.9197 0.75,-0.309 0.6473,0.881 59.6262,1.2647 273.71069,1.7804 l 21.9761,0.053 0.6906,-2.9166 c 0.3798,-1.6042 2.0272,-6.2917 3.6609,-10.4167 1.6337,-4.125 3.9139,-10.65 5.0671,-14.5 1.1532,-3.85 3.8458,-12.85 5.9836,-20 2.1377,-7.15 4.6595,-16.375 5.6038,-20.5 0.9444,-4.125 2.1673,-8.85 2.7176,-10.5 0.5503,-1.65 1.1516,-4.35 1.3361,-6 0.1846,-1.65 1.2564,-8.85 2.3818,-16 4.7938,-30.45785 5.1883,-36.01689 5.358,-75.499998 0.1306,-30.36621 -0.8671,-58.93326 -2.2873,-65.4999995 -0.6457,-2.98525 -0.4967,-4.56264 0.5873,-6.21785 2.0245,-3.09151 4.2026,-1.89043004 5.5684,3.07067 1.4605,5.3047395 2.4617,39.6502795 2.2927,78.6471795 -0.1491,34.393398 -1.3572,47.132768 -7.8305,82.567328 -1.8139,9.92921 -4.8483,22.35752 -8.0407,32.93267 -2.1264,7.0438 -4.5776,15.493 -10.2988,35.5 -1.7689,6.1857 -4.7355,12.6572 -6.9665,15.1973 -1.3504,1.5374 -0.9625,2.3201 4.1165,8.3069 5.8513,6.8972 6.7204,9.1314 3.9638,10.1892 -1.1061,0.4245 -2.4958,-0.4062 -4.25,-2.5404 -1.4336,-1.744 -2.944,-3.167 -3.3565,-3.162 -0.4125,0 -0.75,4.2998 -0.75,9.5442 0,9.111 0.086,9.4892 1.9306,8.502 2.7373,-1.465 4.6678,0.7993 5.5186,6.4725 0.979,6.5287 3.3393,15.3884 5.1923,19.4903 4.5569,10.0875 13.7292,27.4967 15.806,30 0.6844,0.825 2.3025,3.75 3.5957,6.5 1.2932,2.75 3.7689,7.025 5.5016,9.5 1.7326,2.475 3.441,5.175 3.7964,6 0.9361,2.1733 2.8377,4.9824 5.4193,8.0055 1.2433,1.4559 3.8572,5.2986 5.8087,8.5394 1.9515,3.2409 5.2093,7.866 7.2395,10.2782 3.6127,4.2924 7.152,9.6626 9.0284,13.6989 0.517,1.1121 2.5652,3.9672 4.5515,6.3446 1.9863,2.3775 3.6114,4.9069 3.6114,5.621 0,0.7141 0.6123,1.5334 1.3606,1.8205 3.9565,1.5183 15.623,24.3691 15.6348,30.6236 0.01,4.1506 -5.1133,17.213 -9.8281,25.0683 -2.4759,4.125 -4.8136,7.725 -5.1949,8 -0.3813,0.275 -1.4427,1.9625 -2.3585,3.75 -0.9159,1.7875 -2.1037,3.25 -2.6396,3.25 -0.5359,0 -0.9743,0.48 -0.9743,1.0667 0,3.7235 -23.7422,29.7563 -30,32.8944 -1.925,0.9653 -4.85,2.0744 -6.5,2.4647 -4.2331,1.0013 -7.4963,3.3211 -7.5216,5.3473 -0.031,2.4877 -4.9072,11.4837 -8.9213,16.4593 -1.8936,2.3472 -7.3969,8.208 -12.2296,13.024 l -8.7867,8.7565 -0.03,88.3148 -0.03,88.3149 3.7595,0.9287 c 3.2788,0.8099 3.7997,1.3443 4.073,4.1787 0.327,3.392 5e-4,3.61 -4.9327,3.2943 -1.5858,-0.1015 -2.8594,0.4579 -3.2277,1.4176 -0.6208,1.6177 0.2677,10.5381 1.0496,10.5381 0.237,0 1.9058,-1.125 3.7085,-2.5 5.4824,-4.1816 8.3889,-3.0934 6.4666,2.4211 -0.7262,2.0831 -2.4053,3.8176 -4.9546,5.1181 -2.1209,1.0821 -4.2993,2.7952 -4.8408,3.807 -0.6089,1.1378 -1.059,25.1403 -1.1798,62.9115 l -0.1952,61.0717 4.6721,7.3026 c 2.5697,4.0163 5.2937,9.3422 6.0534,11.8352 0.7597,2.4931 2.289,6.5578 3.3985,9.0328 3.0217,6.7404 5.2992,20.0583 4.1283,24.1409 -0.5278,1.8402 -0.9596,5.5886 -0.9596,8.3297 0,13.1709 -7.2565,39.0564 -12.476,44.5044 -1.3882,1.4489 -2.5241,3.05984 -2.5242,3.57974 -10e-5,0.5702 10.6098,0.9453 26.735,0.9453 25.2493,0 26.7551,0.1032 27.094,1.8562 0.7286,3.7698 -0.9776,3.9976 -28.8035,3.8464 -20.7083,-0.1125 -27.0237,0.1388 -27.0183,1.0753 0,0.6721 -0.2131,26.4221 -0.4822,57.2221 -1.3746,157.3868 -1.6083,256.5 -0.6048,256.5 0.5755,0 2.2016,-2.2799 3.6137,-5.0665 2.6289,-5.1879 4.7134,-5.9995 5.2917,-2.0603 0.3073,2.0931 -4.3448,10.5033 -7.6236,13.7822 -1.246,1.246 -6.1495,1.4239 -31.9201,1.1584 -16.7464,-0.1726 -30.523,-0.3755 -30.6148,-0.4509 z m 52.3331,-5.2926 c 0,-0.5565 -1.4046,-3.0046 -3.1214,-5.4402 -2.8454,-4.0368 -3.1825,-6.6301 -0.8617,-6.6301 0.4943,0 2.0856,2.0251 3.5361,4.5002 1.4505,2.4751 2.9727,4.2929 3.3826,4.0396 0.41,-0.2534 0.845,-25.341 0.9668,-55.7502 0.1217,-30.4093 0.3974,-78.9146 0.6126,-107.7896 0.317,-42.5451 0.672,-143.7627 0.5215,-148.6977 -0.022,-0.7337 -2.0705,-1.3149 -5.2865,-1.5 -4.5737,-0.2634 -5.2912,-0.5921 -5.5696,-2.5523 -0.1757,-1.2375 0.1618,-2.25 0.75,-2.25 1.3258,0 1.4154,-4.25424 0.1171,-5.55254 -0.5239,-0.5239 -1.4427,-4.3264 -2.0417,-8.45 -1.1673,-8.0354 -5.2062,-19.089 -7.7449,-21.1959 -1.3819,-1.1469 -1.4825,-0.6858 -0.9166,4.2051 1.7757,15.3483 1.7547,18.6983 -0.178,28.52024 -1.0794,5.4852 -2.2293,12.1436 -2.5553,14.7964 -1.4603,11.8818 -6.7506,22.1347 -18.0312,34.9456 -4.271,4.8504 -5.1873,6.6019 -5.755,11 -1.4074,10.9033 -4.1015,21.0839 -10.4154,39.3593 -10.7394,31.0844 -11.7188,35.1456 -11.6658,48.3718 0.047,11.6471 2.4826,34.0864 4.2771,39.3992 0.5386,1.5946 0.9793,5.1976 0.9793,8.0066 0,2.8091 0.4555,6.6794 1.0122,8.6008 0.5566,1.9214 1.242,6.8684 1.5231,10.9934 0.281,4.125 0.9883,11.55 1.5718,16.5 1.671,14.1767 1.8673,29.0602 0.5408,41 -1.2873,11.5875 -1.8444,12.9909 -9.787,24.6556 -6.2929,9.2418 -22.7985,23.8444 -26.9519,23.8444 -1.9154,0 -3.3275,1.5161 -2.5614,2.75 0.741,1.1935 93.6524,1.5113 93.6524,0.3203 z m -145.65129,-6.1216 c -0.5782,-0.5782 -3.2557,-1.6743 -5.95,-2.4358 -5.4525,-1.541 -17.283,-5.8503 -21.8987,-7.9766 -1.65,-0.7602 -4.35,-1.7065 -6,-2.103 -1.65,-0.3965 -4.8,-1.5146 -7,-2.4847 -2.2,-0.9701 -6.7,-2.6527 -10,-3.7391 -3.3,-1.0864 -8.475,-2.9544 -11.5,-4.1512 -3.025,-1.1967 -9.1,-3.4457 -13.5,-4.9976 -4.4,-1.552 -9.35,-3.3947 -11,-4.0949 -1.65,-0.7002 -3.4754,-1.3764 -4.0563,-1.5025 -0.581,-0.1262 -3.028,-1.1821 -5.4379,-2.3464 -2.4098,-1.1643 -4.7614,-2.1169 -5.2257,-2.1169 -0.4644,0 -2.5174,-0.7478 -4.5622,-1.6617 -4.839,-2.1629 -10.5191,-4.3042 -11.4679,-4.3232 -1.7436,-0.035 -0.5432,1.9487 2,3.3052 1.5125,0.8067 5.225,2.8571 8.25,4.5565 11.2046,6.2945 15.8836,8.347 43,18.8626 29.0941,11.2824 34.5602,13.1241 45.4395,15.3096 5.4668,1.0982 10.1543,2.2114 10.4167,2.4739 0.2624,0.2624 2.5171,0.4771 5.0105,0.4771 3.1696,0 4.2171,-0.3162 3.482,-1.0513 z m 22.1018,-169.0304 c 3.9459,-1.8548 6.4486,-4.1886 16.5347,-15.4183 8.23989,-9.1742 16.34139,-19.2289 17.09879,-21.221 0.4766,-1.2535 1.2973,-2.279 1.8239,-2.279 0.5265,0 1.2077,-0.7875 1.5137,-1.75 0.306,-0.9625 1.6372,-2.9149 2.9583,-4.3387 1.3211,-1.4238 3.0871,-3.8988 3.9245,-5.5 0.8373,-1.6012 2.9114,-4.4548 4.609,-6.3414 1.6976,-1.8866 3.0866,-3.7291 3.0866,-4.0945 0,-0.3654 1.1245,-1.9718 2.4988,-3.5699 1.3743,-1.598 2.4993,-3.2109 2.5,-3.5841 7e-4,-0.3732 0.5637,-1.2738 1.2512,-2.0013 0.6875,-0.7275 3.0347,-3.5722 5.2161,-6.3214 2.1813,-2.7493 4.2451,-5.2237 4.586,-5.4987 1.3809,-1.1138 7.9479,-12.1289 7.9479,-13.3314 0,-0.7108 -1.4625,-2.3616 -3.25,-3.6682 -1.7875,-1.3067 -3.8162,-3.1602 -4.5083,-4.119 -2.7977,-3.8759 -7.1466,-4.9895 -16.7878,-4.2989 -7.5177,0.5386 -9.6739,0.3551 -12.4012,-1.0553 -3.8166,-1.9736 -4.4736,-1.5569 -7.8397,4.9728 -3.518,6.8242 -19.35119,41.5089 -20.23539,44.3281 -0.7412,2.3631 -5.4882,14.2086 -7.8835,19.6719 -0.4823,1.1 -1.8439,5.375 -3.0258,9.5 -1.182,4.125 -2.8194,9.75 -3.6388,12.5 -2.5597,8.5904 -3.0912,19.5 -0.95,19.5 0.2983,0 2.5352,-0.9368 4.971,-2.0817 z m -213.4821,-10.4976 c 3.9696,-2.1606 6.041,-4.5554 12.7576,-14.75 4.4102,-6.6939 8.6788,-13.5207 9.4858,-15.1707 4.4352,-9.0678 17.2848,-33.3563 18.7809,-35.5 0.9597,-1.375 2.0815,-3.625 2.4929,-5 0.4113,-1.375 2.2611,-5.0186 4.1106,-8.0969 1.8494,-3.0784 4.7448,-8.9284 6.434,-13 1.6893,-4.0717 3.4469,-8.3031 3.906,-9.4031 0.9276,-2.223 1.3827,-6.4947 1.4914,-14 0.064,-4.4175 -0.1606,-4.9779 -1.9276,-4.8107 -2.8115,0.2661 -10.391,-1.4751 -14.2612,-3.2761 -4.2892,-1.996 -7.1877,-6.1997 -5.1597,-7.4832 2.2082,-1.3977 4.6604,-1.1035 8.9209,1.07 5.1749,2.64 15.0413,2.784 17.1381,0.25 3.0402,-3.674 5.0857,-9.4579 9.9904,-28.25004 1.9478,-7.463 4.1674,-21.7218 4.0896,-26.2716 -0.088,-5.1628 -2.2122,-9.4436 -6.9192,-13.9462 l -2.8412,-2.7179 -9.2289,2.9679 c -15.0656,4.8448 -20.8881,3.8514 -30.4917,-5.2023 -6.3305,-5.968 -7.48,-6.5061 -10.5007,-4.9156 -3.8716,2.0386 -12.2217,5.0857 -13.9366,5.0857 -2.906,0 -8.4466,-3.3821 -13,-7.9355 l -4.1989,-4.1989 -2.9376,2.1718 c -1.6157,1.1945 -3.4287,3.2498 -4.029,4.5672 -0.6003,1.3175 -1.4753,2.3954 -1.9444,2.3954 -1.1159,0 -6.5149,8.4043 -8.6726,13.5 -3.0083,7.1046 -4.5173,14.4304 -4.5173,21.9301 0,7.0897 0.1076,7.4159 3.25,9.8493 1.7875,1.3842 4.3616,3.5724 5.7201,4.8627 2.65,2.5167 8.3748,5.8579 10.0372,5.8579 0.558,0 2.9221,0.8617 5.2536,1.9149 2.3315,1.0531 5.8141,2.1946 7.7391,2.5367 7.7934,1.3846 8.9589,1.8435 9.5699,3.7686 0.3708,1.1683 0.047,2.59114 -0.7763,3.41484 -3.8303,3.8303 -30.0991,-4.99344 -37.4639,-12.58414 -1.7436,-1.7971 -3.62,-2.9895 -4.1698,-2.6498 -2.28,1.4092 -5.9707,9.8382 -7.9621,18.18424 -1.1698,4.9031 -3.5247,13.1897 -5.2329,18.4147 -1.7083,5.225 -3.3145,10.625 -3.5695,12 -0.2549,1.375 -1.1793,4.975 -2.0541,8 -1.3124,4.5385 -1.4769,8.5594 -0.9406,23 0.3574,9.625 1.0794,20.425 1.6045,24 0.525,3.575 0.9636,9.9609 0.9747,14.191 0.011,4.23 0.4323,7.9457 0.9362,8.2571 1.7016,1.0517 6.1129,-1.3947 10.2477,-5.6832 4.2689,-4.4275 15.8362,-22.2473 15.8362,-24.3961 0,-0.6743 0.564,-1.8206 1.2534,-2.5474 0.6894,-0.7268 2.2931,-3.5714 3.5637,-6.3214 4.1823,-9.0517 13.7765,-23.9776 16.1887,-25.1853 5.0468,-2.5266 9.044,2.6492 9.7585,12.6358 0.5327,7.4441 -0.7783,16.4846 -3.995,27.5495 -1.1192,3.85 -2.6029,9.25 -3.297,12 -0.6942,2.75 -3.1366,10.4 -5.4277,17 -4.6759,13.4699 -5.2439,18.0207 -2.7284,21.8598 2.1727,3.3159 4.6456,3.3301 10.6522,0.061 z m 296.60999,-94.6872 c 6.3951,-6.6383 11.0144,-13.7493 12.8187,-19.7335 0.9121,-3.025 2.067,-6.85 2.5666,-8.5 0.4995,-1.65 1.1911,-5.25 1.5369,-8 1.249,-9.93324 1.4282,-11.07944 2.5449,-16.28174 1.6912,-7.8784 -1.0053,-26.3118 -3.8307,-26.1866 -0.3931,0.017 -2.715,2.9982 -5.1597,6.6241 -7.8902,11.7024 -20.708,22.8294 -39.5631,34.34424 -2.2515,1.375 -5.7121,3.7557 -7.6902,5.2904 -4.3821,3.3999 -10.9628,15.3781 -10.152,18.4786 0.7853,3.0027 5.8021,4.3976 15.5862,4.3337 12.8884,-0.084 16.5809,1.5347 23.1438,10.1473 1.5717,2.0625 3.1417,3.7426 3.4889,3.7335 0.3472,-0.01 2.4666,-1.9216 4.7097,-4.25 z m 45.9397,-96.34324 0.3989,-48.8903 -3.5803,-5.25 c -1.9691,-2.8875 -4.1848,-5.25 -4.9237,-5.25 -1.4727,0 -8.5956,10.444 -12.8102,18.7833 -4.1023,8.1168 -9.3243,15.8958 -11.1379,16.5918 -0.8993,0.3451 -3.9987,0.9052 -6.8876,1.2448 -4.1336,0.4858 -6.273,0.166 -10.0421,-1.5013 -2.6342,-1.1652 -5.0147,-2.1186 -5.2901,-2.1186 -0.9298,0 0.8001,8.1867 2.3724,11.2272 2.4493,4.7364 7.2062,8.9257 16.0768,14.1584 4.5069,2.6586 8.9641,5.6844 9.905,6.7241 0.9409,1.0397 2.3003,1.8903 3.0209,1.8903 2.7158,0 8.3363,6.3098 11.3422,12.7335 3.3255,7.1062 4.6316,11.8532 5.6185,20.4191 0.6874,5.9672 3.0331,10.63344 4.5719,9.0946 0.5845,-0.5845 1.1242,-20.2896 1.3653,-49.8569 z m 7.2539,38.3597 c 3.4341,-7.4829 6.3467,-20.6589 8.1236,-36.75 1.1683,-10.5797 0,-18.9529 -3.8202,-27.3346 -1.1415,-2.5056 -2.0754,-5.0483 -2.0754,-5.6504 0,-1.4915 -4.0381,-9.3102 -4.5461,-8.8023 -0.3416,0.3417 -0.887,79.8094 -0.563,82.0373 0.2256,1.5509 0.9884,0.6242 2.8811,-3.5 z m -289.47779,-52.614 c 8.9982,-3.2034 10.8714,-5.0001 13.849,-13.2832 2.9652,-8.2483 4.779,-22.3895 5.0478,-39.3528 0.2038,-12.8647 -1.1328,-17.1539 -5.2252,-16.7668 -3.2051,0.3032 -15.6152,-1.6274 -19.4658,-3.0283 -3.3682,-1.2253 -4.4623,-2.4206 -4.4847,-4.8995 -0.013,-1.4747 0.9087,-1.6398 7.1053,-1.2723 3.9164,0.2322 7.6289,0.8215 8.25,1.3095 0.6212,0.488 3.0513,1.1315 5.4003,1.43 5.6492,0.7178 7.2291,-0.9015 7.2291,-7.4098 0,-2.7468 0.4197,-5.7785 0.9326,-6.7369 0.8278,-1.5468 1.4285,-4.6359 2.5523,-13.1259 4.3248,-32.6712 3.9363,-43.9569 -2.4611,-71.5 -3.0167,-12.9882 -7.2181,-23.5 -9.3926,-23.5 -3.7536,0 -8.8982,16.0695 -10.5978,33.1032 -0.9259,9.2795 -3.8588,24.2383 -6.334,32.3062 -1.4584,4.7537 -5.1821,7.6984 -8.7922,6.953 -1.8515,-0.3824 -3.2495,-1.8687 -4.8898,-5.1989 -2.3196,-4.7094 -2.8498,-9.5122 -3.1088,-28.1635 -0.1592,-11.4551 -5.0517,-38.66 -7.6882,-42.75 -1.5971,-2.4775 -4.4002,-2.9432 -6.0137,-0.999 -1.2403,1.4944 -16.2067,31.2249 -16.2067,32.1942 0,0.3707 -2.4699,6.4192 -5.4887,13.4411 -5.9095,13.7456 -13.8404,37.8843 -14.9893,45.6213 -0.2444,1.6458 -0.9507,6.0539 -1.5697,9.7958 -0.6189,3.7418 -0.9012,7.3873 -0.6274,8.101 0.3227,0.8407 3.2581,1.4897 8.3366,1.8429 8.2544,0.5742 19.6357,3.846 22.5885,6.4936 2.1834,1.9577 2.2686,5.1229 0.1597,5.9321 -0.8747,0.3357 -5.216,-0.6519 -9.6475,-2.1945 -4.4314,-1.5426 -9.4533,-2.9251 -11.1597,-3.0722 -1.7064,-0.1471 -5.4531,-0.5284 -8.326,-0.8473 l -5.2234,-0.5799 -3.5833,7.6535 c -3.7288,7.9645 -8.4698,27.7552 -8.4698,35.3564 0,5.9847 2.812,17.4056 6.0777,24.6843 2.8058,6.2535 4.3879,7.4611 6.72,5.129 0.9302,-0.9302 0.611,-1.8101 -1.4299,-3.9403 -3.1507,-3.2886 -2.583,-5.862 1.2932,-5.862 2.1173,0 4.666,2.0041 11.4454,9 9.9247,10.2415 10.2638,10.3491 20.4898,6.5 9.8902,-3.7226 12.4216,-3.4227 17.2315,2.0416 2.1987,2.4979 6.0043,5.5575 8.4568,6.7991 3.788,1.9177 5.3438,2.1522 10.3373,1.5578 3.233,-0.3848 8.4856,-1.6279 11.6724,-2.7625 z m 249.15699,-18.1908 c 0.7771,-0.7949 3.0745,-4.5952 5.1054,-8.4452 2.0308,-3.85 4.9864,-8.8811 6.5679,-11.1802 1.5815,-2.2991 2.8755,-4.5661 2.8755,-5.0377 0,-0.4717 1.3317,-2.4157 2.9594,-4.3199 3.5038,-4.0992 3.6996,-6.107 1.1176,-11.4622 -2.3736,-4.9231 -10.6042,-25.0986 -11.6062,-28.45 -1.1469,-3.8358 -6.6661,-15.1097 -9.9708,-20.3669 -5.1051,-8.1214 -10.9317,-16.95 -14.7982,-22.4228 -2.036,-2.8819 -3.7018,-5.5185 -3.7018,-5.8591 0,-0.3406 -0.8631,-1.5827 -1.918,-2.7603 -1.0548,-1.1775 -4.2828,-4.8409 -7.1732,-8.1409 -5.9376,-6.779 -8.2632,-8.4137 -12.0422,-8.4646 -3.6102,-0.048 -3.8404,1.3007 -3.8328,22.4646 0.01,16.0013 0.3353,19.61 2.9679,32.5 5.5279,27.0668 9.7749,44.0666 16.1137,64.5 1.7062,5.5 3.4157,11.0873 3.7988,12.4161 0.452,1.568 2.5085,3.343 5.8582,5.0564 4.4205,2.2611 5.9587,2.5524 10.7137,2.029 3.0536,-0.3361 6.1879,-1.2614 6.9651,-2.0563 z m 32.4783,-37.1952 -0.07,-6.25 -1.4697,4 c -1.0702,2.9126 -1.1928,4.6117 -0.451,6.25 1.6208,3.5797 2.0665,2.6843 1.9911,-4 z m 0.5199,-87.5978 c -0.1714,-7.3413 -0.6115,-13.6413 -0.9781,-14 -0.9863,-0.9653 -6.1923,5.6101 -9.0458,11.4254 -4.9625,10.1133 -4.7431,22.517 0.6195,35.0275 1.0753,2.5084 1.955,5.1433 1.955,5.8554 0,0.712 0.6435,1.8287 1.4301,2.4815 0.7865,0.6527 2.249,4.8703 3.25,9.3724 l 1.8199,8.1856 0.6305,-22.5 c 0.3467,-12.375 0.4902,-28.5065 0.3189,-35.8478 z m -294.41269,2.7612 c 1.6872,-6.6479 4.6851,-23.6934 5.2609,-29.9134 0.7985,-8.625 5.9482,-26.1813 8.626,-29.408 0.7488,-0.9022 1.1427,-1.859 0.8754,-2.1264 -0.8769,-0.8769 -27.799,-1.4367 -27.799,-0.578 0,0.4607 0.8978,4.4448 1.9951,8.8537 2.7122,10.8975 5.0049,31.4106 5.0049,44.7801 0,8.6134 0.3602,11.5478 1.6421,13.3779 1.9335,2.7606 2.6286,1.9721 4.3946,-4.9859 z m 294.41009,-85.9134 -0.053,-30.5 -6.9468,-0.6492 c -3.8208,-0.3571 -15.7218,-0.7496 -26.4468,-0.8724 l -19.5,-0.2232 -0.324,9.3724 c -0.1783,5.1548 0.196,13.4224 0.8316,18.3724 1.3362,10.4067 5.4822,29.3928 6.6775,30.5788 0.4482,0.4447 5.5399,1.3097 11.3149,1.9221 5.775,0.6124 13.2,1.488 16.5,1.9458 3.3,0.4579 8.7,0.7696 12,0.6929 l 6,-0.1396 -0.053,-30.5 z m -96.4468,29.0191 c 0,-1.4444 -0.8973,-1.5796 -37.20949,-5.6063 -6.5546,-0.7268 -9.4145,-2.3444 -8.4747,-4.7933 0.5538,-1.4432 1.8308,-1.5969 9.4124,-1.1332 4.8245,0.2951 12.5968,0.7698 17.2718,1.0549 4.675,0.285 10.07499,0.9218 11.99999,1.415 3.1703,0.8122 6.3283,1.3054 17,2.6548 1.925,0.2435 4.175,0.6326 5,0.8647 0.825,0.2321 5.775,0.6827 11,1.0012 5.225,0.3185 11.2363,0.8394 13.3584,1.1574 l 3.8585,0.5781 -0.7236,-5.3562 c -0.398,-2.9459 -1.0722,-6.0312 -1.4984,-6.8562 -1.5625,-3.0248 -4.0694,-20.8429 -4.6782,-33.25 -0.3441,-7.0125 -0.8936,-12.7875 -1.2212,-12.8334 -0.3275,-0.046 -15.6705,-0.2878 -34.0955,-0.5376 -18.42499,-0.2498 -39.68759,-0.5498 -47.25029,-0.6666 -7.5627,-0.1168 -13.7502,-0.023 -13.75,0.2089 2e-4,0.2317 0.7678,1.2693 1.7059,2.3059 1.357,1.4995 1.4706,2.2611 0.5556,3.7262 -0.9128,1.4615 -0.7488,2.6287 0.7943,5.6555 2.3856,4.6792 2.6623,12.3911 0.4445,12.3911 -0.9257,0 -1.5,-0.9392 -1.5,-2.4529 0,-1.3492 -0.4008,-3.4867 -0.8907,-4.75 -4.381,-11.2979 -5.3939,-12.6408 -6.4599,-8.5643 -0.9268,3.544 -2.948,0.6081 -3.0569,-4.4403 l -0.092,-4.2925 -15.5,-0.1909 c -61.786,-0.7608 -110.773,-1.3987 -149,-1.9402 -24.475,-0.3467 -59.6613,-0.7064 -78.1919,-0.7993 l -33.6918,-0.169 -0.5633,2.2444 c -0.3099,1.2345 -0.5318,8.7352 -0.4932,16.6682 l 0.07,14.4238 13.1851,0.7084 c 7.2517,0.3896 15.66,0.905 18.685,1.1454 3.025,0.2405 8.2997,0.6327 11.7215,0.8716 6.8752,0.4801 22.4127,2.5025 23.263,3.028 0.5493,0.3395 11.4488,1.7011 16.0155,2.0007 1.375,0.09 4.3,0.5386 6.5,0.9966 2.2,0.4579 12.1,0.8731 22,0.9225 l 18,0.09 0.345,2.444 c 0.2055,1.4563 -0.333,2.9396 -1.3326,3.6706 -1.5463,1.1306 -1.5197,1.3111 0.3393,2.306 3.3544,1.7952 4.9772,1.2423 6.6404,-2.2626 2.0786,-4.3804 9.0498,-11.3731 13.7181,-13.7606 4.5425,-2.3231 8.8976,-2.4146 13.3929,-0.2814 4.4973,2.1341 9.9044,12.8695 9.0704,18.0087 l -0.5478,3.3753 7.6872,0.1276 c 4.2279,0.07 8.8121,0.2459 10.1871,0.3904 1.375,0.1445 8.8,0.5602 16.5,0.9238 7.7,0.3637 16.25,0.8459 19,1.0716 7.7374,0.6353 43.4883,2.4729 48.25,2.4801 l 4.25,0.01 0,-4.441 c 0,-4.7149 1.2492,-6.427 3.392,-4.6486 1.6373,1.3588 3.8815,-0.9274 6.0833,-6.197 1.7221,-4.1217 4.5269,-5.0296 4.521,-1.4634 0,1.2375 -0.9006,3.721 -1.9968,5.5188 -1.6719,2.7423 -1.7921,3.6033 -0.7462,5.3455 1.08,1.7991 0.9459,2.2808 -1.0033,3.6032 -3.5248,2.3913 -2.7156,3.061 3.8096,3.1528 3.3328,0.047 6.3971,0.2939 6.8095,0.5488 0.4125,0.2549 6.3482,0.7651 13.1904,1.1338 10.9643,0.5907 30.18539,1.9056 33.69049,2.3048 0.6875,0.078 1.25,-0.2991 1.25,-0.8386 z m -178.68009,-10.5785 c -0.099,-0.5173 -1.3356,-3.5389 -2.748,-6.7146 -3.0296,-6.812 -5.6521,-8.32 -11.6569,-6.7031 -3.641,0.9804 -13.915,9.7859 -13.915,11.9261 0,0.4695 5.2875,1.1551 11.75,1.5235 6.4625,0.3685 12.2,0.8325 12.75,1.0313 1.655,0.598 4.0123,-0.058 3.8199,-1.0632 z m -46.2248,-2.48 c 5.1657,-2.1397 3.1193,-2.8836 -7.3451,-2.6699 -9.6243,0.1965 -32.4365,-0.985 -33.6835,-1.7446 -0.3116,-0.1897 -4.6165,-0.8401 -9.5665,-1.4451 -4.95,-0.6051 -9.9,-1.2675 -11,-1.4721 -12.6328,-2.3496 -47.9054,-4.6587 -61.5,-4.026 -8.9932,0.4185 -22.569,2.8691 -24.2925,4.385 -0.7525,0.6619 13.2772,1.5782 39.7925,2.5988 6.6,0.254 16.725,0.8481 22.5,1.3202 5.775,0.4721 15.4322,0.9431 21.4604,1.0468 6.0283,0.1036 11.2033,0.3364 11.5,0.5173 0.2968,0.1809 7.5146,0.6432 16.0396,1.0274 8.525,0.3842 15.5753,0.7668 15.6673,0.8501 0.9671,0.8759 18.165,0.5494 20.4278,-0.3879 z m -499.10068,-61.7106 c -0.007,-0.9811 -1.93639,-8.3246 -2.69262,-10.25 -0.32403,-0.825 -0.63928,-2.175 -0.70054,-3 -0.32814,-4.4188 -9.52283,-31 -10.72319,-31 -0.48294,0 -0.87807,10.125 -0.87807,22.5 l 0,22.5 7.5,0 c 4.125,0 7.49749,-0.3375 7.49442,-0.75 z m 8.00558,-1.0228 c 0,-2.3034 -5.80759,-17.4264 -7.19167,-18.7272 -1.49536,-1.4053 -0.39226,5.3123 2.25787,13.75 1.2972,4.1301 2.6661,6.75 3.52693,6.75 0.77378,0 1.40687,-0.7978 1.40687,-1.7728 z m 304.4001,-43.7272 c 0.3799,-6.05 1.3203,-14.15 2.0899,-18 2.3297,-11.6553 2.8786,-16.7931 1.7495,-16.3776 -0.5642,0.2077 -4.4923,3.68 -8.7291,7.7163 l -7.7032,7.3387 1.1191,4.6613 c 0.6155,2.5637 1.7172,6.2363 2.4482,8.1613 2.4157,6.3613 4.6255,13.7425 4.6255,15.45 0,0.9248 0.5171,2.6477 1.1492,3.8287 1.1179,2.0889 1.1683,2.0939 1.8547,0.1843 0.388,-1.0797 1.0163,-6.913 1.3962,-12.963 z m -416.9248,-13.25 c 0.57849,-3.5098 0.42393,-4.25 -0.8874,-4.25 -1.26995,0 -1.58181,1.1513 -1.55749,5.75 0.0337,6.3638 1.2742,5.6027 2.44489,-1.5 z m 404.9771,-15.5 c 4.4889,-4.6294 14.701,-13.75 15.3956,-13.75 0.3964,0 1.5023,-1.3229 2.4574,-2.9398 1.7582,-2.9765 2.1174,-4.9675 3.1677,-17.5602 0.5126,-6.1464 7.1368,-41.942 9.5303,-51.5 4.1306,-16.4944 4.3074,-29.6306 0.498,-36.9973 -1.9201,-3.7131 -6.6689,-4.7186 -14.3677,-3.0421 -5.0167,1.0924 -6.3849,1.9979 -12.4925,8.2676 -8.5067,8.7326 -14.2689,17.5082 -15.1333,23.0476 -0.3626,2.3233 -1.7626,7.8481 -3.111,12.2773 -2.2911,7.5253 -2.4252,9.1964 -2.0463,25.5 0.4501,19.3665 1.4608,25.187 7.6801,44.2277 4.9971,15.2987 4.7776,14.7192 5.5732,14.7192 0.3667,0 1.6485,-1.0125 2.8485,-2.25 z m 609.54759,-154.8457 c 0,-1.5463 -3.2715,-6.9043 -4.2156,-6.9043 -0.4314,0 -0.7844,-0.6429 -0.7844,-1.4286 0,-0.7857 -0.5851,-2.0232 -1.3002,-2.75 -1.8834,-1.9141 -9.2204,-12.0581 -9.9969,-13.8214 -0.3633,-0.825 -1.6826,-3.0889 -2.9317,-5.0309 -1.2492,-1.942 -3.1712,-5.0337 -4.2712,-6.8706 -1.1,-1.8368 -3.8109,-5.6479 -6.0243,-8.4691 -2.2133,-2.8212 -5.8058,-7.8294 -7.9832,-11.1294 -2.1775,-3.3 -4.7048,-6.7592 -5.6163,-7.687 -0.9115,-0.9279 -3.1382,-4.3029 -4.9482,-7.5 -1.81,-3.1972 -4.3034,-7.165 -5.5408,-8.8174 -1.2375,-1.6525 -2.7356,-4.1275 -3.3292,-5.5 -0.5936,-1.3726 -2.2075,-4.2956 -3.5864,-6.4956 -1.379,-2.2 -3.8045,-6.475 -5.3902,-9.5 -1.5857,-3.025 -4.4174,-8.425 -6.2927,-12 -4.0017,-7.6288 -7.1035,-15.5243 -8.8394,-22.5 -0.6843,-2.75 -1.6278,-5.4275 -2.0967,-5.95 -0.4723,-0.5262 -0.9054,14.194 -0.9709,33 -0.065,18.6725 -0.1974,36.5403 -0.2942,39.7063 l -0.176,5.7562 3.9815,2.0753 c 2.1898,1.1414 5.5748,3.3886 7.5221,4.9938 1.9473,1.6051 3.9063,2.9184 4.3532,2.9184 0.7187,0 6.4162,3.6845 7.7317,5 0.4961,0.4961 1.9304,1.334 8.887,5.1915 1.9872,1.102 4.513,2.7868 5.613,3.7442 1.1,0.9574 3.8,2.7952 6,4.0839 5.3494,3.1337 8.5131,5.9995 24.985,22.6328 7.7082,7.7839 14.3525,14.1964 14.765,14.25 0.4125,0.054 0.75,-0.3955 0.75,-0.9981 z m -675.49999,-179.8469 4,-0.8274 -4.5,-0.045 c -2.475,-0.025 -5.4,0.342 -6.5,0.8147 -1.8251,0.7843 -1.7814,0.8605 0.5,0.8721 1.375,0.01 4.3,-0.3597 6.5,-0.8147 z m 52,922.45524 c -3.3,-1.2136 -6.675,-2.4597 -7.5,-2.7691 -0.825,-0.3095 -3.75,-1.2296 -6.5,-2.0448 -12.0634,-3.5761 -16.2777,-4.9888 -20.5,-6.8719 -2.475,-1.1038 -5.4,-2.3788 -6.5,-2.8333 -1.1,-0.4545 -5.375,-2.3513 -9.5,-4.2152 -4.125,-1.8639 -10.2,-4.2537 -13.5,-5.3105 -3.3,-1.0569 -7.6786,-2.9445 -9.7301,-4.1947 -2.0516,-1.2502 -4.1417,-2.2731 -4.6447,-2.2731 -0.5029,0 -5.4654,-2.25 -11.0277,-5 -5.5623,-2.75 -10.6028,-5 -11.2011,-5 -0.5983,0 -2.2822,-0.6583 -3.7421,-1.4629 -1.4599,-0.8046 -9.4043,-3.724 -17.6543,-6.4876 -14.6387,-4.9037 -17.922,-6.7862 -16.8243,-9.6467 0.784,-2.0431 3.9355,-1.7249 9.7244,0.9818 9.8476,4.6047 19.95,8.5987 20.4598,8.0889 0.2832,-0.2832 -1.0319,-1.8232 -2.9225,-3.4222 l -3.4374,-2.9072 2.1027,-2.1469 2.1026,-2.147 4.5782,3.8249 c 2.518,2.1037 6.5218,5.2326 8.8973,6.9532 5.1069,3.6987 32.5314,17.3717 34.8433,17.3717 0.8809,0 3.9657,1.1405 6.8552,2.5344 2.8895,1.394 7.3612,3.2248 9.9372,4.0686 2.5759,0.8438 6.5911,2.4033 8.9226,3.4656 2.3315,1.0623 4.638,1.9314 5.1256,1.9314 0.4875,0 3.4055,1.114 6.4842,2.4756 3.0788,1.3616 6.6223,2.6854 7.8745,2.9419 5.5161,1.1297 25.3412,8.5318 26.0974,9.744 0.9046,1.45 -0.7692,6.9295 -2.046,6.6981 -0.4262,-0.077 -3.4748,-1.1334 -6.7748,-2.347 z m -191.83467,-63.1783 c -0.25922,-0.2599 -116.42288,-1.2807 -153.82396,-1.3517 -27.72469,-0.053 -33.75241,-0.3084 -34.19056,-1.4502 -0.29256,-0.7624 0.0769,-1.8914 0.82096,-2.509 1.52489,-1.2655 29.47498,-1.395 123.02823,-0.57 31.9,0.2814 65.7625,0.5194 75.25,0.5291 l 17.25,0.017 0,2.5 c 0,1.375 -0.5625,2.5146 -1.25,2.5325 -8.6536,0.2248 -26.95801,0.4287 -27.08467,0.3018 z m 39.00137,-1.001 c -1.308,-1.308 -0.6376,-5.1305 1.0108,-5.7631 2.3492,-0.9014 4.6848,1.713 3.8579,4.3183 -0.6403,2.0175 -3.4595,2.8541 -4.8687,1.4448 z m -247.03287,-1.8451 c -0.86508,-2.2544 1.42379,-6.4882 3.50763,-6.4882 2.29837,0 3.56061,4.4491 1.84776,6.513 -1.59743,1.9248 -4.61262,1.9108 -5.35539,-0.025 z m 243.63137,-14.6958 c -0.5775,-0.7108 -1.782,-4.2174 -2.6767,-7.7924 -0.8947,-3.575 -2.5443,-9.65 -3.6657,-13.5 -1.1215,-3.85 -2.9512,-10.15 -4.066,-14 -1.1148,-3.85 -2.6031,-8.8 -3.3074,-11 -0.7044,-2.2 -2.3151,-7.375 -3.5794,-11.5 -3.21921,-10.5029 -8.95346,-28.1105 -9.93297,-30.5 -0.45091,-1.1 -2.04544,-5.6 -3.5434,-10.00004 -5.10506,-14.9952 -5.73101,-16.5 -6.86217,-16.4971 -0.6223,0 -2.25646,2.1391 -3.63146,4.75 -2.81123,5.3381 -5.61256,6.3913 -5.31174,1.9971 0.21188,-3.0949 -0.37379,-3.3485 -3.21575,-1.3923 -1.08488,0.7468 -3.77251,1.9304 -5.97251,2.6303 -2.2,0.7 -4.45,1.5845 -5,1.9656 -1.85401,1.2848 -14.32245,3.2375 -16.42028,2.5717 -2.26884,-0.7201 -2.83683,-3.3948 -0.82972,-3.9072 0.6875,-0.1755 5.525,-1.3413 10.75,-2.5906 15.2134,-3.6377 19.86073,-5.9848 14.9417,-7.546 -3.13617,-0.9954 -2.23768,-5.0478 1.0583,-4.7732 5.52877,0.4607 12.16857,0.4565 12.63306,-0.01 0.45122,-0.4512 -1.66299,-11.4014 -3.13548,-16.2396 -0.40676,-1.3365 0.04,-2.6372 1.29626,-3.7741 2.78518,-2.5206 5.20616,-1.1844 5.20616,2.8733 0,1.8403 0.40921,4.3797 0.90937,5.643 0.50015,1.2634 1.66115,4.9971 2.58,8.2971 0.91885,3.3 2.05115,7.125 2.51623,8.5 0.46508,1.375 1.83387,5.875 3.04176,10 1.90838,6.5172 3.57516,11.17624 6.97624,19.50004 0.4495,1.1 1.4966,4.025 2.327,6.5 0.8303,2.475 2.9288,8.1 4.6632,12.5 1.7344,4.4 4.3916,11.375 5.9048,15.5 2.4585,6.7016 4.0694,10.1448 7.0177,15 0.501,0.825 2.4621,4.6839 4.3581,8.5754 1.896,3.8914 4.6304,8.2585 6.0764,9.7045 2.8571,2.857 3.4466,6.1924 1.244,7.0377 -2.1071,0.8086 -5.1739,-1.8144 -9.1825,-7.8536 -1.9947,-3.0052 -4.033,-5.464 -4.5295,-5.464 -1.22,0 -1.2547,-0.1934 1.7492,9.7349 2.6568,8.7807 3.159,13.8541 1.5323,15.4808 -0.4921,0.4921 -1.3246,0.3084 -1.9191,-0.4233 z M 174.78458,985.66426 c 0.28148,-59.2625 0.69723,-145.775 0.9239,-192.25 0.22666,-46.475 0.43819,-90.9266 0.47007,-98.7814 0.0493,-12.1373 0.29831,-14.3736 1.65888,-14.8957 2.6849,-1.0303 3.27665,1.6127 2.82601,12.622 -0.50702,12.3865 -1.38948,153.9889 -1.8606,298.5551 -0.18282,56.10004 -0.38504,102.11254 -0.44937,102.25004 -0.0643,0.1375 -1.0088,0.25 -2.09882,0.25 -1.96672,0 -1.97795,-0.8233 -1.47007,-107.75004 z m 950.89312,-236.6282 c -0.8205,-3.2693 0.101,-4.6218 3.1492,-4.6218 4.6171,0 4.2514,6.1205 -0.4072,6.8149 -1.5522,0.2314 -2.2795,-0.3503 -2.742,-2.1931 z m -523.01629,-29.065 c -0.7518,-2.9954 0.1088,-4.5568 2.5117,-4.5568 2.8606,0 4.4143,2.4758 3.0976,4.9361 -1.5442,2.8854 -4.8459,2.6621 -5.6093,-0.3793 z m 621.79059,-40.6413 c -22.4697,-0.5894 -25.1358,-1.0749 -23.8797,-4.3483 0.6787,-1.7685 0.8489,-1.7783 26.1642,-1.4983 9.35,0.1035 25.7257,0.2428 36.3904,0.3096 16.6711,0.1045 19.5333,0.3479 20.4092,1.7356 0.5603,0.8877 0.7192,2.3945 0.3532,3.3484 -0.7232,1.8845 -3.9307,1.9089 -59.4373,0.453 z M 58.489368,666.71266 c -104.46397,7.7325 -52.5364004,-22.3597 27.65168,-3.8574 0.66341,0.41 1.06253,1.491 0.88694,2.4022 -0.27873,1.4465 -2.06278,1.6568 -14.05251,1.6568 -7.55329,0 -14.07204,-0.091 -14.48611,-0.2016 z m 117.726212,-1.3375 c -0.945,-1.7658 -0.87748,-2.4911 0.34577,-3.7143 2.08326,-2.0833 4.67516,-0.8514 4.67516,2.222 0,1.3923 -0.1882,2.5314 -0.41821,2.5314 -0.23002,0 -1.09551,0.2599 -1.92331,0.5776 -0.92392,0.3545 -1.95855,-0.2698 -2.67941,-1.6167 z m 91.6876,-63.6276 c -1.36037,-1.3603 -0.62901,-5.1098 1.08333,-5.5539 2.78528,-0.7224 4.25,0.2071 4.25,2.6969 0,2.7416 -3.54813,4.6422 -5.33333,2.857 z m 12,-7 c -1.63902,-1.639 -0.3561,-4.1814 3.32671,-6.5926 4.53181,-2.967 23.30614,-12.1094 27.04051,-13.1676 1.35636,-0.3843 3.59111,-1.1679 4.96611,-1.7412 1.375,-0.5734 3.85,-1.6043 5.5,-2.2911 8.49954,-3.5376 19.66257,-7.5946 25,-9.0859 3.3,-0.922 6.4275,-2.0765 6.95,-2.5656 0.5225,-0.4891 1.7859,-0.8893 2.80756,-0.8893 1.02165,0 3.9409,-1.1631 6.48721,-2.5847 2.54631,-1.4216 7.80791,-3.8645 11.69244,-5.4288 3.88454,-1.5642 9.31279,-3.938 12.06279,-5.275 2.75,-1.3371 6.8,-2.9985 9,-3.692 2.2,-0.6936 4.4275,-1.6567 4.95,-2.1403 0.5225,-0.4836 1.7286,-0.8792 2.6802,-0.8792 0.9517,0 4.6469,-1.35 8.2118,-3 3.5648,-1.65 6.7149,-3 7.0003,-3 0.5195,0 18.6259,-8.3312 21.8941,-10.074 0.9551,-0.5093 2.4063,-0.926 3.225,-0.926 1.3754,0 7.0608,-2.4288 20.2568,-8.6536 2.87,-1.3539 7.884,-4.424 11.1422,-6.8226 3.2582,-2.3985 7.21,-5.0274 8.7818,-5.8419 1.5718,-0.8145 4.8828,-3.2581 7.3578,-5.4301 2.475,-2.1721 5.6468,-4.5798 7.0485,-5.3505 1.4017,-0.7707 4.5517,-2.8944 7,-4.7193 4.038,-3.0098 17.4454,-12.7709 27.3221,-19.8915 2.1289,-1.5348 5.0539,-3.9474 6.5,-5.3614 1.4462,-1.414 3.4019,-2.9985 4.346,-3.5211 5.976,-3.3077 32.7225,-32.3226 40.2592,-43.6737 2.3612,-3.5562 4.5133,-5.7343 5.6658,-5.7343 3.0735,0 2.2466,4.7767 -1.8916,10.9268 -7.6243,11.3311 -27.9757,33.7402 -37.7557,41.5732 -2.7469,2.2 -5.2193,4.2586 -5.4943,4.5747 -0.275,0.3162 -4.325,3.3474 -9,6.7362 -10.1303,7.3431 -12.5551,9.1777 -14.8896,11.2652 -2.9048,2.5974 -48.534,33.0927 -56.3555,37.664 -3.9902,2.332 -8.1774,4.2445 -9.3049,4.25 -1.1275,0.01 -2.4775,0.4361 -3,0.957 -0.5225,0.521 -9.5,4.5136 -19.95,8.8725 -10.45,4.359 -21.475,9.0603 -24.5,10.4473 -3.025,1.3871 -7.525,3.2095 -10,4.0498 -4.23776,1.4389 -10.48464,4.1908 -26.2083,11.5455 -3.68956,1.7258 -7.15051,3.1378 -7.69098,3.1378 -3.61889,0 -1.31148,6.3456 5.51455,15.1655 5.07307,6.555 5.85653,10.8345 1.98351,10.8345 -1.61693,0 -3.07872,-1.0615 -4.47545,-3.25 -1.14082,-1.7875 -3.18433,-4.825 -4.54113,-6.75 -1.3568,-1.925 -2.50707,-4.175 -2.55616,-5 -0.0491,-0.825 -1.2652,-2.8384 -2.70248,-4.4742 l -2.61324,-2.9741 -10.60516,3.8357 c -5.83284,2.1096 -14.88016,5.383 -20.10516,7.2742 -5.225,1.8912 -10.4,3.7218 -11.5,4.0681 -1.1,0.3462 -8.03814,3.6986 -15.41809,7.4499 -13.97006,7.101 -14.32594,7.243 -15.41524,6.1537 z m 680.10043,-88.8544 c -0.1469,-0.1222 -13.0633,-0.4986 -28.703,-0.8364 -15.6467,-0.338 -28.8618,-1.0402 -29.3828,-1.5612 -0.5208,-0.5208 -0.6519,-1.7155 -0.2914,-2.655 0.597,-1.5557 2.215,-1.6502 18.1328,-1.0592 11.7731,0.4371 17.4773,0.3118 17.4773,-0.3839 0,-0.568 -1.059,-1.4353 -2.3534,-1.9275 -6.1625,-2.343 -18.9377,-23.4897 -23.6952,-39.2226 -1.2196,-4.0332 -2.5813,-8.2331 -3.026,-9.3331 -0.4447,-1.1 -1.9948,-6.05 -3.4445,-11 -1.4498,-4.95 -3.0465,-10.125 -3.5484,-11.5 -0.5019,-1.375 -1.1282,-4.075 -1.3918,-6 -0.5812,-4.2435 -3.1794,-25.3143 -4.5624,-37 -0.5533,-4.675 -1.2519,-10.3 -1.5524,-12.5 -1.9282,-14.1155 -2.2645,-27.0816 -1.2713,-49 1.699,-37.4901 3.0812,-45.5 7.852,-45.5 2.8948,0 3.3193,3.5064 1.4944,12.3417 -5.5134,40.8773 -1.2776,87.0257 2.9597,119.1583 2.6983,20.1093 10.7186,46.0954 20.0614,65 3.5337,7.15 6.9992,13.675 7.7013,14.5 4.7246,5.5515 16.8474,9.955 27.4891,9.9852 6.1473,0.017 14.4481,-2.8701 20.1737,-7.0177 2.253,-1.6321 4.5504,-2.9675 5.1051,-2.9675 0.5548,0 1.0087,-0.4318 1.0087,-0.9595 0,-0.5278 1.0632,-1.9903 2.3628,-3.25 2.5384,-2.4607 5.027,-6.6202 6.6056,-11.0405 1.0801,-3.0243 3.1222,-3.5507 4.99949,-1.2887 3.4362,4.1404 -8.98019,22.1871 -18.96789,27.569 l -2.5,1.3471 2.4947,0.6052 c 2.7685,0.6715 3.935,3.8248 1.884,5.0924 -1.1142,0.6886 -22.3232,1.0592 -23.1116,0.4039 z M 291.90318,402.74756 c -1.45909,-1.4591 -0.53868,-6.1928 1.64237,-8.4469 3.24357,-3.3522 29.10321,-42.6936 30.65471,-46.6364 0.70339,-1.7875 1.6164,-3.25 2.0289,-3.25 0.69151,0 9.85589,-15.7126 15.05018,-25.804 1.85976,-3.6131 2.63469,-4.2551 4.82771,-4 4.54267,0.5286 4.05401,2.3749 -4.2753,16.1532 -1.04761,1.7329 -2.40915,4.0508 -3.02563,5.1508 -0.61648,1.1 -2.26721,3.8 -3.6683,6 -1.40108,2.2 -2.85395,4.675 -3.2286,5.5 -0.65499,1.4423 -2.77063,5.0535 -9.13564,15.5936 -1.62961,2.6985 -3.31711,5.0564 -3.75,5.2397 -0.43289,0.1834 -0.78707,0.7641 -0.78707,1.2905 0,0.8661 -3.71127,6.6566 -5.04801,7.8762 -0.30141,0.275 -1.72128,2.525 -3.15528,5 -3.43389,5.9267 -12.34482,17.9362 -14.55164,19.6116 -2.00521,1.5223 -2.64817,1.652 -3.5784,0.7217 z m 95.33333,-90.3333 c -10.725,-0.275 -58.98363,-0.6416 -107.2414,-0.8147 -48.25778,-0.173 -88.98278,-0.5374 -90.5,-0.8098 -3.68514,-0.6614 -4.98744,-2.0467 -3.40837,-3.6255 0.97669,-0.9765 14.85924,-1.2169 63.45,-1.0986 34.20987,0.083 84.54163,0.2024 111.84835,0.2646 42.92282,0.098 49.72582,0.3143 50.21862,1.5985 0.873,2.2751 -0.2656,4.2398 -2.6844,4.6318 -1.2005,0.1945 -10.9578,0.1287 -21.6828,-0.1463 z m 37.3095,-0.6359 c -0.8972,-2.338 1.0195,-4.8641 3.6905,-4.8641 2.671,0 4.5877,2.5261 3.6905,4.8641 -0.3921,1.0218 -1.7774,1.6359 -3.6905,1.6359 -1.9131,0 -3.2984,-0.6141 -3.6905,-1.6359 z m -246.64283,-1.0308 c -1.26879,-1.2688 -0.65993,-4.3987 0.97794,-5.0272 1.94412,-0.746 4.47852,2.2095 3.67972,4.2911 -0.55602,1.449 -3.48234,1.9115 -4.65766,0.7361 z m -4.66667,-8.3333 c 0,-0.55 0.19844,-1 0.44098,-1 0.24254,0 0.7191,0.45 1.05902,1 0.33992,0.55 0.14148,1 -0.44098,1 -0.58246,0 -1.05902,-0.45 -1.05902,-1 z m 175.70124,-0.6321 c -2.22892,-2.2289 3.05166,-14.8002 9.9952,-23.7952 9.08614,-11.7707 21.22111,-12.2881 27.01271,-1.1516 1.13821,2.1886 1.41291,5.1428 1.0955,11.7817 -0.3553,7.4313 -0.7752,9.2122 -2.60303,11.04 -3.39675,3.3968 -4.42337,1.3327 -3.43852,-6.9133 0.91237,-7.6391 0.27753,-11.5221 -2.36034,-14.4369 -1.90321,-2.1031 -6.07067,-2.4567 -9.66294,-0.8199 -2.61152,1.1899 -9.22154,10.467 -13.47625,18.9138 -2.58026,5.1225 -4.91039,7.0333 -6.56233,5.3814 z m 580.77486,-79.4433 c -0.7341,-2.3129 -0.7314,-2.3172 3.3514,-5.2946 17.2483,-12.5783 30.3954,-25.6626 44.0902,-43.88 2.3774,-3.1625 4.7185,-5.75 5.2024,-5.75 0.484,0 0.8799,-0.48418 0.8799,-1.07596 0,-1.15141 7.6762,-11.63254 11.8379,-16.16361 1.384,-1.50676 2.2159,-3.03995 1.8488,-3.40708 -0.7504,-0.75043 -6.1848,-1.80279 -18.6867,-3.61871 -8.6477,-1.25609 -56.6732,-1.55411 -70.5,-0.43748 -10.0744,0.8136 -29.4228,3.54684 -40.8563,5.77158 -5.421,1.05481 -10.2585,1.6693 -10.75,1.36553 -0.4916,-0.30377 -0.8937,-1.59615 -0.8937,-2.87197 0,-2.59009 3.4491,-4.48923 9.1356,-5.03027 5.761,-0.54812 12.3197,-1.7741 13.3644,-2.49812 0.55,-0.38118 2.7896,-0.79072 4.9769,-0.91008 2.1872,-0.11937 5.7872,-0.621 8,-1.11473 8.5073,-1.89827 25.9977,-2.99332 50.5231,-3.16317 14.025,-0.0971 26.4,0.0993 27.5,0.43646 1.1,0.33718 5.375,0.8566 9.5,1.15425 4.125,0.29765 10.6118,1.19722 14.4152,1.99904 4.1191,0.86839 7.55599,1.11196 8.49999,0.60238 1.9269,-1.04016 12.2269,-21.32138 16.2547,-32.0065 1.5769,-4.18337 21.8911,-50.259728 23.8214,-54.031558 0.9852,-1.925 2.1224,-5.06023 2.5271,-6.96718 0.4048,-1.90694 1.0953,-4.15694 1.5345,-5 0.4392,-0.84305 1.5238,-3.78282 2.4103,-6.53282 1.5509,-4.81085 2.2968,-7.23725 6.61,-21.5 2.4525,-8.1102295 3.1945,-9.2905195 5.5466,-8.8233795 2.5106,0.4986 2.3143,4.02544 -0.8251,14.8233795 -2.8257,9.71888 -11.9751,35.40213 -14.8882,41.79253 -1.0762,2.36089 -2.6683,6.18589 -3.5381,8.5 -1.5089,4.01475 -4.2806,10.31283 -6.9126,15.70747 -0.6709,1.375 -3.5681,8.125 -6.4383,15 -8.3111,19.907998 -11.9939,28.131148 -15.1082,33.734848 -3.5352,6.36109 -3.55,6.65222 -0.4093,8.0832 2.9079,1.3249 3.3313,4.70016 0.75,5.97764 -0.9625,0.47633 -3.2104,0.72279 -4.9954,0.5477 -2.7926,-0.27395 -3.5946,0.20303 -5.7491,3.41912 -5.45849,8.1483 -9.75399,13.77605 -11.09579,14.53718 -0.7753,0.43983 -1.4097,1.23604 -1.4097,1.76936 0,3.84241 -27.8555,34.99825 -42.0603,47.04365 -11.492,9.745 -16.1839,11.8439 -17.4636,7.8119 z"
     id="path2987"
     style="fill:#000000" />
  <text
     x="113.06262"
     y="1345.7725"
     id="text2989"
     xml:space="preserve"
     style="font-size:30px;font-style:normal;font-variant:normal;font-weight:normal;font-stretch:normal;line-height:125%;letter-spacing:0px;word-spacing:0px;fill:#000000;fill-opacity:1;stroke:none;font-family:cmr10;-inkscape-font-specification:cmr10"><tspan
       x="113.06262"
       y="1345.7725"
       id="tspan2991"
       style="font-size:36px">Me</tspan></text>
  <text
     x="1115.1783"
     y="1360.2397"
     id="text2993"
     xml:space="preserve"
     style="font-size:30px;font-style:normal;font-variant:normal;font-weight:normal;font-stretch:normal;line-height:125%;letter-spacing:0px;word-spacing:0px;fill:#000000;fill-opacity:1;stroke:none;font-family:cmr10;-inkscape-font-specification:cmr10"><tspan
       x="1115.1783"
       y="1360.2397"
       id="tspan2995"
       style="font-size:36px">Me</tspan></text>
  <text
     x="1136.8656"
     y="746.79962"
     id="text2997"
     xml:space="preserve"
     style="font-size:30px;font-style:normal;font-variant:normal;font-weight:normal;font-stretch:normal;line-height:125%;letter-spacing:0px;word-spacing:0px;fill:#000000;fill-opacity:1;stroke:none;font-family:cmr10;-inkscape-font-specification:cmr10"><tspan
       x="1136.8656"
       y="746.79962"
       id="tspan2999"
       style="font-size:36px">SNA</tspan></text>
  <text
     x="1196.5055"
     y="665.85968"
     id="text3001"
     xml:space="preserve"
     style="font-size:30px;font-style:normal;font-variant:normal;font-weight:normal;font-stretch:normal;line-height:125%;letter-spacing:0px;word-spacing:0px;fill:#000000;fill-opacity:1;stroke:none;font-family:cmr10;-inkscape-font-specification:cmr10"><tspan
       x="1196.5055"
       y="665.85968"
       id="tspan3003"
       style="font-size:44px">BaH</tspan></text>
  <text
     x="1073.7401"
     y="486.16525"
     id="text3005"
     xml:space="preserve"
     style="font-size:30px;font-style:normal;font-variant:normal;font-weight:normal;font-stretch:normal;line-height:125%;letter-spacing:0px;word-spacing:0px;fill:#000000;fill-opacity:1;stroke:none;font-family:cmr10;-inkscape-font-specification:cmr10"><tspan
       x="1073.7401"
       y="486.16525"
       id="tspan3007"
       style="font-size:36px">N-Me</tspan></text>
  <text
     x="1132.9928"
     y="261.9343"
     id="text3009"
     xml:space="preserve"
     style="font-size:30px;font-style:normal;font-variant:normal;font-weight:normal;font-stretch:normal;line-height:125%;letter-spacing:0px;word-spacing:0px;fill:#000000;fill-opacity:1;stroke:none;font-family:cmr10;-inkscape-font-specification:cmr10"><tspan
       x="1132.9928"
       y="261.9343"
       id="tspan3011"
       style="font-size:36px">N</tspan></text>
  <text
     x="695.66388"
     y="258.61508"
     id="text3013"
     xml:space="preserve"
     style="font-size:30px;font-style:normal;font-variant:normal;font-weight:normal;font-stretch:normal;line-height:125%;letter-spacing:0px;word-spacing:0px;fill:#000000;fill-opacity:1;stroke:none;font-family:cmr10;-inkscape-font-specification:cmr10"><tspan
       x="695.66388"
       y="258.61508"
       id="tspan3015"
       style="font-size:36px">Ba-N</tspan></text>
  <text
     x="411.89099"
     y="294.46518"
     id="text3017"
     xml:space="preserve"
     style="font-size:30px;font-style:normal;font-variant:normal;font-weight:normal;font-stretch:normal;line-height:125%;letter-spacing:0px;word-spacing:0px;fill:#000000;fill-opacity:1;stroke:none;font-family:cmr10;-inkscape-font-specification:cmr10"><tspan
       x="411.89099"
       y="294.46518"
       id="tspan3019"
       style="font-size:36px">S</tspan></text>
  <text
     x="118.33832"
     y="661.21234"
     id="text3021"
     xml:space="preserve"
     style="font-size:30px;font-style:normal;font-variant:normal;font-weight:normal;font-stretch:normal;line-height:125%;letter-spacing:0px;word-spacing:0px;fill:#000000;fill-opacity:1;stroke:none;font-family:cmr10;-inkscape-font-specification:cmr10"><tspan
       x="118.33832"
       y="661.21234"
       id="tspan3023"
       style="font-size:36px">Ba</tspan></text>
  <text
     x="119.50012"
     y="605.83234"
     id="text3025"
     xml:space="preserve"
     style="font-size:30px;font-style:normal;font-variant:normal;font-weight:normal;font-stretch:normal;line-height:125%;letter-spacing:0px;word-spacing:0px;fill:#000000;fill-opacity:1;stroke:none;font-family:cmr10;-inkscape-font-specification:cmr10"><tspan
       x="119.50012"
       y="605.83234"
       id="tspan3027"
       style="font-size:36px">Ar</tspan></text>
  <text
     x="432.63751"
     y="1111.6366"
     id="text3029"
     xml:space="preserve"
     style="font-size:30px;font-style:normal;font-variant:normal;font-weight:normal;font-stretch:normal;line-height:125%;letter-spacing:0px;word-spacing:0px;fill:#000000;fill-opacity:1;stroke:none;font-family:cmr10;-inkscape-font-specification:cmr10"><tspan
       x="432.63751"
       y="1111.6366"
       id="tspan3031"
       style="font-size:36px">Go</tspan></text>
  <text
     x="935.37585"
     y="939.12677"
     transform="matrix(0.94816861,0.31776765,-0.31776765,0.94816861,0,0)"
     id="text3033"
     xml:space="preserve"
     style="font-size:30px;font-style:normal;font-variant:normal;font-weight:normal;font-stretch:normal;line-height:125%;letter-spacing:0px;word-spacing:0px;fill:#000000;fill-opacity:1;stroke:none;font-family:cmr10;-inkscape-font-specification:cmr10"><tspan
       x="935.37585"
       y="939.12677"
       id="tspan3035"
       style="font-size:26px">Go-Pog' (l. e.)</tspan></text>
  <text
     x="743.17572"
     y="1300.0408"
     id="text3037"
     xml:space="preserve"
     style="font-size:30px;font-style:normal;font-variant:normal;font-weight:normal;font-stretch:normal;line-height:125%;letter-spacing:0px;word-spacing:0px;fill:#000000;fill-opacity:1;stroke:none;font-family:cmr10;-inkscape-font-specification:cmr10"><tspan
       x="743.17572"
       y="1300.0408"
       id="tspan3039">PM</tspan></text>
  <text
     x="518.77826"
     y="726.27423"
     id="text3041"
     xml:space="preserve"
     style="font-size:30px;font-style:normal;font-variant:normal;font-weight:normal;font-stretch:normal;line-height:125%;letter-spacing:0px;word-spacing:0px;fill:#000000;fill-opacity:1;stroke:none;font-family:cmr10;-inkscape-font-specification:cmr10"><tspan
       x="518.77826"
       y="726.27423"
       id="tspan3043"
       style="font-size:36px">SNP</tspan></text>
  <text
     x="876.23102"
     y="712.71967"
     id="text3045"
     xml:space="preserve"
     style="font-size:30px;font-style:normal;font-variant:normal;font-weight:normal;font-stretch:normal;line-height:125%;letter-spacing:0px;word-spacing:0px;fill:#000000;fill-opacity:1;stroke:none;font-family:cmr10;-inkscape-font-specification:cmr10"><tspan
       x="876.23102"
       y="712.71967"
       id="tspan3047">Pal</tspan></text>
  <text
     x="1036.9492"
     y="984.58527"
     id="text3049"
     xml:space="preserve"
     style="font-size:30px;font-style:normal;font-variant:normal;font-weight:normal;font-stretch:normal;line-height:125%;letter-spacing:0px;word-spacing:0px;fill:#000000;fill-opacity:1;stroke:none;font-family:cmr10;-inkscape-font-specification:cmr10"><tspan
       x="1036.9492"
       y="984.58527"
       id="tspan3051">1</tspan></text>
  <text
     x="1136.2847"
     y="996.97784"
     id="text3053"
     xml:space="preserve"
     style="font-size:30px;font-style:normal;font-variant:normal;font-weight:normal;font-stretch:normal;line-height:125%;letter-spacing:0px;word-spacing:0px;fill:#000000;fill-opacity:1;stroke:none;font-family:cmr10;-inkscape-font-specification:cmr10"><tspan
       x="1136.2847"
       y="996.97784"
       id="tspan3055">1</tspan></text>
  <text
     x="311.46191"
     y="1020.8576"
     id="text3057"
     xml:space="preserve"
     style="font-size:30px;font-style:normal;font-variant:normal;font-weight:normal;font-stretch:normal;line-height:125%;letter-spacing:0px;word-spacing:0px;fill:#000000;fill-opacity:1;stroke:none;font-family:cmr10;-inkscape-font-specification:cmr10"><tspan
       x="311.46191"
       y="1020.8576"
       id="tspan3059">RI</tspan></text>
  <text
     x="852.0802"
     y="-117.70587"
     transform="matrix(0.25512981,0.96690681,-0.96690681,0.25512981,0,0)"
     id="text3061"
     xml:space="preserve"
     style="font-size:30px;font-style:normal;font-variant:normal;font-weight:normal;font-stretch:normal;line-height:125%;letter-spacing:0px;word-spacing:0px;fill:#000000;fill-opacity:1;stroke:none;font-family:cmr10;-inkscape-font-specification:cmr10"><tspan
       x="852.0802"
       y="-117.70587"
       id="tspan3063">Ar-Go (l. e.)</tspan></text>
</svg>
