<?xml version="1.0" encoding="UTF-8" standalone="no"?>
<!-- Created with Inkscape (http://www.inkscape.org/) -->

<svg
   xmlns:dc="http://purl.org/dc/elements/1.1/"
   xmlns:cc="http://creativecommons.org/ns#"
   xmlns:rdf="http://www.w3.org/1999/02/22-rdf-syntax-ns#"
   xmlns:svg="http://www.w3.org/2000/svg"
   xmlns="http://www.w3.org/2000/svg"
   version="1.1"
   width="1223.3251"
   height="1380.756"
   id="svg2">
  <metadata
     id="metadata8">
    <rdf:RDF>
      <cc:Work
         rdf:about="">
        <dc:format>image/svg+xml</dc:format>
        <dc:type
           rdf:resource="http://purl.org/dc/dcmitype/StillImage" />
        <dc:title></dc:title>
      </cc:Work>
    </rdf:RDF>
  </metadata>
  <defs
     id="defs6" />
  <path
     d="m 1002.9565,1349.4577 c -14.34319,-6.439 -22.42719,-9.7238 -26.70409,-10.8508 -2.5462,-0.6709 -16.7891,-1.0453 -38,-0.9987 -18.66,0.041 -76.0023,-0.1781 -127.4273,-0.4869 -84.4286,-0.507 -120.6349,-0.8709 -209.5,-2.1059 -15.4,-0.214 -70.0525,-0.6714 -121.4501,-1.0165 -60.4399,-0.4057 -94.1237,-0.9879 -95.3573,-1.6481 -7.0359,-3.7655 6.0634,-3.9753 155.8074,-2.4955 46.75,0.462 93.325,0.9595 103.5,1.1055 21.0732,0.3024 61.6182,0.5936 92.5,0.6643 11.55,0.026 24.4428,0.1793 28.6506,0.3396 9.8565,0.3755 10.5804,-0.066 8.9619,-5.4682 -1.3773,-4.5969 -0.9457,-5.9176 1.3195,-4.0376 0.8142,0.6757 1.98,0.9198 2.5907,0.5424 0.6107,-0.3775 1.7558,0.1463 2.5446,1.1639 1.3573,1.7509 1.4904,1.7563 2.4831,0.1001 0.577,-0.9625 1.7541,-1.75 2.6159,-1.75 1.2055,0 1.4119,0.6343 0.8952,2.75 -1.6132,6.6055 -1.5274,6.7387 4.4385,6.8837 3.025,0.074 40.6,0.4647 83.5,0.8692 42.9,0.4045 79.5322,0.7944 81.4048,0.8663 1.8727,0.072 3.575,-0.3636 3.7829,-0.9679 0.452,-1.3135 -5.0228,-3.8206 -30.1877,-13.8241 -10.45,-4.1541 -20.35,-8.2081 -22,-9.0088 -1.65,-0.8008 -5.16,-2.1586 -7.7999,-3.0173 -2.64,-0.8587 -8.265,-3.0941 -12.5,-4.9675 -4.2351,-1.8735 -12.8751,-5.5027 -19.2001,-8.065 -6.325,-2.5623 -12.85,-5.2757 -14.5,-6.0298 -1.65,-0.7542 -5.925,-2.4864 -9.5,-3.8495 -3.575,-1.3631 -13.7,-5.4516 -22.5,-9.0856 -24.0856,-9.9463 -26.7008,-10.3635 -23.9681,-3.8232 0.9401,2.2501 1.1593,3.9783 0.5782,4.5594 -1.1871,1.1871 -3.1101,0.044 -3.1101,-1.8489 0,-0.7926 -0.6165,-1.441 -1.3699,-1.441 -0.8765,0 -1.7951,2.1611 -2.5503,6 -1.1024,5.6035 -2.2092,7.2177 -3.5079,5.1163 -0.3004,-0.4861 0.1181,-3.0736 0.9301,-5.75 2.5709,-8.4741 1.7463,-11.5081 -2.002,-7.3663 -0.9955,1.1 -2.4152,2 -3.155,2 -2.3494,0 -1.4524,-3.5229 1.655,-6.5 3.4975,-3.3508 3.7914,-5.1141 1,-6 -2.0788,-0.6598 -2.6135,-2.0028 -1.1562,-2.9035 1.1504,-0.7109 7.6032,1.1314 13.6562,3.8989 2.75,1.2574 6.9125,2.8573 9.25,3.5554 2.3375,0.6981 4.25,1.6473 4.25,2.1093 0,0.4619 0.6206,0.8399 1.3792,0.8399 0.7585,0 4.021,1.1532 7.25,2.5627 3.2289,1.4094 8.5708,3.7141 11.8708,5.1214 3.3,1.4073 6.7814,2.9541 7.7364,3.4373 0.9551,0.4832 2.1792,0.8786 2.7204,0.8786 0.995,0 11.0793,4.2637 14.2796,6.0376 0.9551,0.5293 2.2204,0.9624 2.812,0.9624 0.5915,0 3.4101,1.0498 6.2635,2.3329 9.3743,4.2154 46.8897,19.7918 59.452,24.6845 4.5452,1.7703 8.5092,3.6155 8.809,4.1006 0.5457,0.8828 4.4271,1.2708 4.4271,0.4425 0,-0.2418 -4.6125,-5.1525 -10.25,-10.9127 -11.1665,-11.4096 -26.7736,-29.7389 -30.7606,-36.1259 -4.5535,-7.2943 -4.9494,-7.9754 -7.8607,-13.5219 -2.7442,-5.2282 -5.6329,-13.8553 -8.7058,-26 -2.8584,-11.297 -1.2467,-28.7382 4.0643,-43.9816 3.8431,-11.0302 14.9389,-33.0645 19.1877,-38.1035 0.7351,-0.8718 3.1765,-5.1468 5.4253,-9.5 2.2488,-4.3532 4.4308,-8.3649 4.849,-8.9149 0.4181,-0.55 2.4632,-4.15 4.5446,-8 2.0815,-3.85 4.152,-7.2393 4.6012,-7.5317 0.4492,-0.2925 2.3274,-3.4425 4.1737,-7 5.3046,-10.2211 13.8759,-23.0867 15.1076,-22.6767 2.3282,0.7751 1.6673,4.0221 -2.1393,10.5104 -2.1613,3.6839 -7.2531,12.323 -11.3151,19.198 -4.062,6.875 -9.3518,16.3197 -11.7552,20.9883 -2.4034,4.6685 -5.2241,9.688 -6.2683,11.1543 -1.0441,1.4664 -1.8984,3.0945 -1.8984,3.618 0,0.5235 -1.4674,2.929 -3.2608,5.3456 -3.2741,4.4116 -11.8806,21.2199 -13.2587,25.8938 -0.4054,1.375 -1.6289,4.2667 -2.719,6.4261 -1.09,2.1593 -2.3645,6.2093 -2.8323,9 -0.4678,2.7906 -1.3912,7.6486 -2.052,10.7956 -1.8889,8.996 -0.059,21.6915 5.3015,36.7783 3.9302,11.0614 5.6977,14.5666 11.8213,23.4434 1.9393,2.8112 8.9902,11.5909 10.968,13.6572 0.8426,0.8803 2.882,3.307 4.532,5.3927 1.65,2.0857 7.8158,8.7152 13.7019,14.7321 8.671,8.8639 11.0905,10.8166 12.75,10.2899 1.1264,-0.3576 2.0481,-1.0976 2.0481,-1.6446 0,-0.547 1.0964,-3.3292 2.4365,-6.1826 1.3401,-2.8535 6.347,-14.8631 11.1265,-26.6881 9.8744,-24.4303 12.6396,-31.2338 14.4282,-35.5 2.7401,-6.5355 5.1037,-12.4678 9.3804,-23.5434 1.3897,-3.5989 3.8747,-9.5479 5.5222,-13.22 1.6476,-3.6721 3.4383,-8.1526 3.9794,-9.9566 1.1208,-3.7366 12.65549,-34.2419 14.09639,-37.28 0.5217,-1.1 2.3497,-5.7125 4.0622,-10.25 2.9893,-7.9206 4.9682,-10.4288 4.9682,-6.2971 0,1.0742 -0.42,2.9867 -0.9333,4.25 -0.5133,1.2634 -3.4917,9.0471 -6.6186,17.2971 -3.127,8.25 -6.307,16.418 -7.0667,18.1511 -0.7598,1.7332 -1.3814,3.6323 -1.3814,4.2204 0,0.5881 -1.07939,3.4451 -2.39859,6.3489 -1.3192,2.9038 -2.8578,6.8546 -3.4192,8.7796 -0.5614,1.925 -3.3349,8.9 -6.1634,15.5 -2.8284,6.6 -6.8582,16.5 -8.9551,22 -5.1029,13.3846 -10.0082,25.3988 -11.7159,28.6953 -0.7679,1.4824 -2.5064,5.6447 -3.8633,9.2495 -1.3568,3.6048 -2.8867,7.342 -3.3996,8.3047 -1.6483,3.0935 -12.1121,30.7083 -12.0983,31.9281 0.015,1.2898 9.7316,7.3692 14.5134,9.0802 4.3494,1.5564 9.0553,2.3403 17.1074,2.8499 5.7654,0.3648 8.6889,-0.05 15.4823,-2.1959 8.19669,-2.5893 20.20719,-9.3989 24.62579,-13.962 1.2185,-1.2584 3.0448,-2.8869 4.0585,-3.6189 5.6612,-4.0881 10.8295,-19.5761 11.2891,-33.8309 0.367,-11.3842 0.3043,-12.6896 -0.979,-20.3723 -2.1911,-13.117 -3.274,-18.0888 -5.2098,-23.9181 -1.9772,-5.9545 -2.1787,-6.98 -3.3811,-17.2096 -0.3879,-3.3 -0.8491,-6.9 -1.0249,-8 -0.1758,-1.1 -0.3531,-3.0125 -0.394,-4.25 -0.041,-1.2375 -0.5918,-2.25 -1.2242,-2.25 -0.8479,0 -0.9741,4.5296 -0.4806,17.25 0.3681,9.4875 0.9238,27.7125 1.2349,40.5 0.4968,20.4231 0.3801,23.25 -0.9604,23.25 -0.8393,0 -1.8211,-0.4775 -2.1817,-1.0611 -0.3607,-0.5835 -0.8588,-32.9835 -1.1068,-72 -0.3898,-61.3036 -0.2554,-70.9389 0.9897,-70.9389 2.0471,0 2.6514,2.2179 2.6787,9.8318 0.013,3.6675 0.4718,8.4682 1.0194,10.6682 0.5475,2.2 1.1889,7.6 1.4254,12 2.1769,40.5134 3.8009,51.3937 10.3736,69.5 3.5948,9.9027 4.0528,16.7042 5.6421,83.785 l 0.3384,14.285 -2.6614,1.6133 c -1.4638,0.8874 -4.5416,2.9015 -6.8397,4.4757 -4.6588,3.1915 -9.7327,4.603 -10.7323,2.9857 -0.3592,-0.5813 0.4862,-1.8034 1.8787,-2.7158 3.9638,-2.5972 3.2391,-4.4289 -1.7523,-4.4289 -4.2724,0 -4.2925,0.017 -7.25,6.25 -3.425,7.2178 -5.2026,7.8941 -12.3344,4.6924 z m 9.1963,-5.7638 c 1.3952,-2.389 1.6321,-3.6188 0.8478,-4.4031 -0.629,-0.629 -5.5601,-1.1431 -11.6864,-1.2185 -13.48259,-0.1658 -15.29799,1.2332 -5.74729,4.4289 3.717,1.2437 7.88319,2.8686 9.25819,3.6107 3.5263,1.9034 5.1089,1.3812 7.3277,-2.418 z m 14.4605,-11.2993 c 0.1888,-0.9916 -0.5697,-1.8504 -1.954,-2.2124 -2.4596,-0.6432 -3.965,0.8288 -3.1144,3.0453 0.7154,1.8643 4.6788,1.2129 5.0684,-0.8329 z m -8.0253,-3.1293 c 2.9065,-5.9465 3.6394,-9.75 1.8786,-9.75 -0.7681,0 -1.9947,0.7207 -2.7257,1.6015 -1.6253,1.9584 -10.2347,7.5107 -14.6658,9.4583 -1.7875,0.7856 -3.24999,1.7686 -3.24999,2.1843 0,0.4158 3.75429,0.7559 8.34279,0.7559 l 8.3428,0 z m 19.4849,2 c 0.254,-0.6875 0.359,-5.075 0.2333,-9.75 -0.1257,-4.675 -0.2853,-12.2125 -0.3548,-16.75 -0.1317,-8.6053 -1.5333,-10.9279 -2.7336,-4.5299 -0.3838,2.046 -2.265,6.6585 -4.1803,10.25 -5.3856,10.0983 -7.2124,13.8546 -7.2124,14.8299 0,0.4931 1.6875,1.6458 3.75,2.5614 2.0625,0.9156 4.875,2.3272 6.25,3.1369 3.0704,1.8081 3.6599,1.843 4.2478,0.2517 z m -13.2478,-137.25 c 0,-1.375 -0.45,-2.5 -1,-2.5 -0.55,0 -1,1.125 -1,2.5 0,1.375 0.45,2.5 1,2.5 0.55,0 1,-1.125 1,-2.5 z m -658.63839,137 c -0.8197,-2.1363 0.3035,-4.5 2.1384,-4.5 2.1202,0 3.0064,2.6849 1.4894,4.5127 -1.5749,1.8977 -2.8965,1.893 -3.6278,-0.013 z m -184.78013,-0.5 c -10.95179,-0.344 -16.04064,-0.8681 -16.30991,-1.6797 -0.65523,-1.9751 6.75368,-2.4056 36.22844,-2.1055 27.23828,0.2774 28,0.3396 28,2.2852 0,1.9167 -0.66667,2 -16,2 -8.8,0 -23.16334,-0.225 -31.91853,-0.5 z m 60.78016,-0.5 c -0.7922,-2.0644 0.28192,-4.5 1.98454,-4.5 2.04691,0 3.78845,2.4856 3.06409,4.3733 -0.78395,2.0429 -4.27964,2.1307 -5.04863,0.1267 z m 19.64135,0.5018 c -1.16448,-0.7196 -1.22375,-1.181 -0.27379,-2.131 0.91521,-0.9152 11.87104,-1.1936 44.68536,-1.1354 23.91009,0.042 43.97006,0.3843 44.57772,0.7598 0.79682,0.4925 0.77398,1.0815 -0.0819,2.1128 -0.99691,1.2012 -8.08453,1.4206 -44.30394,1.3712 -24.33502,-0.033 -43.7646,-0.4589 -44.60343,-0.9774 z m -110.39924,-1.592 c -0.81277,-2.1181 0.095,-3.4098 2.39626,-3.4098 2.50006,0 3.46279,1.7374 1.96365,3.5438 -1.58837,1.9139 -3.59776,1.8521 -4.35991,-0.134 z m 215.91866,-13.3735 c -0.3275,-0.53 -0.3709,-32.1425 -0.096,-70.25 0.8813,-122.2899 0.7825,-159.9654 -0.4309,-164.2863 -1.5239,-5.4271 -3.6727,-14.2888 -5.94082,-24.5 -1.0384,-4.675 -2.54749,-11.425 -3.35354,-15 -0.80605,-3.575 -3.16789,-11.9 -5.24854,-18.5 -2.08064,-6.6 -3.92323,-13.35 -4.09463,-15 -0.1714,-1.65 -0.98995,-5.7 -1.81901,-9.00002 -0.82905,-3.3 -1.71842,-8.2446 -1.97637,-10.9879 -0.55333,-5.8848 -3.56531,-17.5121 -4.5364,-17.5121 -0.37249,0 -1.73414,1.125 -3.02589,2.5 -1.29175,1.375 -2.83269,2.5116 -3.42431,2.5257 -0.59163,0.014 -3.27066,2.2641 -5.95341,5 -4.79053,4.8854 -7.62228,6.249 -7.62228,3.6705 0,-0.7171 1.575,-2.8304 3.5,-4.6962 1.925,-1.8658 3.5,-3.7771 3.5,-4.2473 0,-0.4702 -3.59122,-0.6627 -7.98049,-0.4278 -5.31438,0.2844 -8.30198,0.04 -8.9428,-0.7325 -2.08174,-2.5083 0.56987,-3.5831 9.46727,-3.8372 7.15323,-0.2044 8.99165,-0.5651 9.23015,-1.8112 0.21147,-1.1049 -1.30724,-2.062 -5.23816,-3.3011 -5.39928,-1.702 -7.10723,-3.826 -4.02705,-5.008 1.20096,-0.4608 9.89525,2.4158 18.15074,6.0055 2.24753,0.9773 2.38463,-3.5119 0.34025,-11.1407 -1.62566,-6.0664 -1.81134,-8.022 -0.86942,-9.1569 2.01366,-2.4263 3.85499,0.5484 6.37661,10.3017 1.62854,6.299 2.77473,8.9532 3.9703,9.1941 2.06848,0.4166 6.21685,-1.2449 13.89928,-5.567 4.52702,-2.5469 6.18952,-3.0466 7.23902,-2.1756 1.8776,1.5583 1.0284,2.5439 -4.6865,5.4399 -2.71105,1.3738 -4.9292,2.869 -4.9292,3.3226 0,1.1922 11.5758,4.5217 12.8921,3.7082 0.6094,-0.3766 1.1079,-0.2082 1.1079,0.3743 0,0.5824 0.5229,1.059 1.1621,1.059 2.9549,0 20.9804,11.661 28.8379,18.6558 1.375,1.224 6.4375,5.7274 11.25,10.00752 4.8125,4.28 8.75,8.5817 8.75,9.5593 0,2.8051 -2.1596,2.0929 -5.9818,-1.9726 -4.3556,-4.6329 -20.3737,-18.45242 -25.0586,-21.61912 -6.3852,-4.316 -19.8369,-10.8759 -24.1683,-11.786 -8.69899,-1.8278 -10.7913,-2.0114 -10.7913,-0.9468 0,0.5837 1.6875,1.9603 3.75,3.0591 5.0521,2.6915 7.25,4.5139 7.25,6.0115 0,1.7446 -4.9323,0.4126 -7.56445,-2.0428 -1.13545,-1.0593 -2.38189,-1.9259 -2.76987,-1.9259 -0.38798,0 -2.50611,-1.1367 -4.70694,-2.526 -3.54071,-2.2352 -4.07436,-2.3363 -4.634,-0.8779 -1.00712,2.6245 5.46383,33.94852 9.23568,44.70732 5.51508,15.7312 12.73488,29.3233 21.30298,40.1054 3.2387,4.0755 6.3662,8.0133 6.95,8.7506 7.3715,9.3097 20.0076,20.43 31.0676,27.3406 0.8802,0.55 4.0796,2.5231 7.1097,4.3847 3.0301,1.8616 6.6481,4.1646 8.04,5.1178 1.3919,0.9532 4.4294,2.7017 6.75,3.8856 3.6964,1.8858 4.2193,1.9498 4.2193,0.5162 0,-0.9 -1.575,-3.7819 -3.5,-6.4043 -3.5666,-4.8587 -4.6578,-10 -2.1224,-10 1.5839,0 3.82,2.3773 3.4282,3.6447 -0.4328,1.3999 3.5501,7.4033 4.6655,7.0324 1.8108,-0.6022 2.6822,-11.7636 2.0633,-26.4271 -0.5038,-11.9353 -0.3705,-14.25 0.8207,-14.25 2.1627,0 2.8083,5.6296 2.6258,22.8977 -0.091,8.5812 -0.1235,15.9949 -0.073,16.4747 0.206,1.9557 3.0999,-1.832 4.7379,-6.2012 1.7907,-4.7763 3.1415,-6.4206 4.5563,-5.5462 1.6105,0.9954 0.686,4.0138 -4.3261,14.1246 -2.818,5.6849 -4.9555,10.4633 -4.75,10.6187 0.2056,0.1554 4.1988,2.1359 8.8738,4.4011 13.3516,6.4693 22.6261,10.2306 25.2265,10.2306 1.3152,0 3.2647,0.6607 4.3324,1.4682 1.0676,0.8075 2.7682,1.4825 3.7791,1.5 1.0109,0.017 5.4202,1.6068 9.7984,3.5318 4.3783,1.925 8.6137,3.5 9.412,3.5 0.7984,0 1.4516,0.3788 1.4516,0.8417 0,0.463 1.9125,1.4064 4.25,2.0965 2.3375,0.6901 5.6531,2.1114 7.368,3.1583 1.715,1.0469 3.965,1.91 5,1.9181 1.0351,0.01 3.907,0.732 6.382,1.6089 18.8163,6.6667 32.0092,11.03 40.9676,13.5492 5.7572,1.619 11.0447,3.4225 11.75,4.0079 2.0256,1.6811 1.4985,4.5252 -0.9676,5.2203 l -2.25,0.6341 2.25,1.8928 c 1.2375,1.041 2.25,2.4135 2.25,3.0499 0,1.4943 -2.325,0.7523 -12.8898,-4.1136 -4.6145,-2.1252 -8.8895,-3.8629 -9.5,-3.8613 -0.6106,0 -2.9102,-0.8885 -5.1102,-1.9778 -2.2,-1.0894 -12.1,-5.1876 -22,-9.1073 -9.9,-3.9197 -20.25,-8.1467 -23,-9.3934 -11.256,-5.103 -39.2965,-15.5243 -41.7711,-15.5243 -0.6462,0 -9.7371,-4.2331 -20.2019,-9.4068 -19.4515,-9.6167 -28.1207,-13.5932 -29.6349,-13.5932 -0.4695,0 -4.696,-1.8 -9.3921,-4 -4.6961,-2.2 -8.9238,-4 -9.3948,-4 -0.471,0 -3.4681,-1.155 -6.6602,-2.5667 -3.1921,-1.4117 -7.4106,-3.1504 -9.3744,-3.8638 -1.9638,-0.7134 -6.8928,-2.5258 -10.9532,-4.0277 -5.9787,-2.2113 -7.5447,-2.4749 -8.2347,-1.3862 -0.4687,0.7394 -0.9148,13.2694 -0.9915,27.8444 -0.077,14.575 -0.2976,34.6 -0.491,44.5 -0.1933,9.9 -0.3731,47.25 -0.3995,83 -0.026,35.75 -0.3147,66.0125 -0.6409,67.25 -0.6229,2.3632 -1.8328,2.9117 -2.8374,1.2863 z m 43.4776,-215.862 c 0,-1.1827 -3.9977,-4.5181 -7.4547,-6.2199 -3.8641,-1.902 -22.6536,-20.7824 -28.3174,-28.4544 -2.4362,-3.3 -4.7713,-6.225 -5.1892,-6.5 -0.4178,-0.275 -1.5238,-1.9912 -2.4578,-3.8138 -2.2401,-4.3711 -4.157,-3.6535 -3.7229,1.3937 0.1854,2.156 0.6725,4.1451 1.0823,4.4201 0.4099,0.275 1.0431,1.85 1.4073,3.5 2.8568,12.9443 5.2982,20.0622 7.1524,20.8526 1.1,0.4689 9.65,4.1508 19,8.1819 17.9713,7.7481 18.5,7.9379 18.5,6.6398 z M 243.2117,1313.0804 c -0.68978,-1.7976 0.33585,-307.1132 1.17931,-351.06512 0.25332,-13.2 0.70027,-69.9 0.99323,-126 0.29297,-56.1 0.68121,-114.9454 0.86278,-130.7676 0.20252,-17.648 -0.0404,-28.9966 -0.62849,-29.3601 -0.52723,-0.3258 -16.78394,-0.7779 -36.12601,-1.0046 -39.21286,-0.4596 -41.94914,-0.6691 -41.46495,-3.1747 0.30023,-1.5537 3.47312,-1.6998 38.56191,-1.7759 21.02912,-0.046 38.5597,-0.4078 38.95684,-0.805 0.39715,-0.3971 0.84742,-13.7473 1.00062,-29.6671 0.24398,-25.3541 0.09,-28.945 -1.24152,-28.945 -4.45905,0 -22.86076,15.3841 -38.98031,32.5881 -14.43634,15.4075 -13.23501,14.3947 -22.33771,18.8328 -11.86435,5.7845 -15.13983,2.7754 -4.27799,-3.9301 7.03829,-4.3451 14.74513,-10.8529 24.1157,-20.3638 4.675,-4.745 10.6375,-10.5645 13.25,-12.9322 2.6125,-2.3677 4.75,-4.7301 4.75,-5.2499 0,-0.5197 0.45966,-0.9449 1.02147,-0.9449 0.5618,0 3.8243,-2.1612 7.25,-4.8026 3.42569,-2.6415 7.35353,-5.5521 8.72853,-6.4681 1.375,-0.916 5.425,-3.7043 9,-6.1961 3.575,-2.4919 6.94354,-4.5313 7.48565,-4.532 0.5421,-6e-4 3.2421,-1.0802 6,-2.399 13.67352,-6.5384 25.86389,-11.6022 27.93051,-11.6022 2.30875,0 32.67014,-14.4223 40.08384,-19.0406 1.65,-1.0279 5.025,-2.9489 7.5,-4.2689 11.85574,-6.3229 16.82167,-9.1597 20.67403,-11.8102 2.30248,-1.5842 4.55524,-2.8872 5.00615,-2.8956 0.95052,-0.018 20.18242,-9.646 21.76042,-10.8941 1.5218,-1.2037 12.8804,-5.0906 14.876,-5.0906 2.4837,0 2.0721,3.5153 -0.618,5.2779 -1.2657,0.8294 -4.5282,2.256 -7.25,3.1704 -2.7217,0.9143 -6.5295,2.6983 -8.4617,3.9645 -1.9322,1.2661 -4.6322,2.657 -6,3.0907 -1.3678,0.4338 -4.0619,1.7822 -5.9869,2.9965 -1.925,1.2143 -4.625,2.5592 -6,2.9887 -1.375,0.4295 -2.725,1.0577 -3,1.3961 -0.275,0.3384 -2.525,1.6946 -5,3.0138 -2.475,1.3192 -5.23447,3.0284 -6.13215,3.7983 -0.89769,0.7699 -4.72269,3.0026 -8.5,4.9617 -3.77732,1.959 -7.31785,3.9233 -7.86785,4.3649 -1.65458,1.3286 -24.62988,12.664 -30,14.8011 -2.75,1.0944 -6.35,2.7038 -8,3.5765 -1.65,0.8726 -3.3424,1.5894 -3.7609,1.5927 -0.41849,0 -2.66849,0.8865 -5,1.9625 -2.3315,1.0759 -7.6141,3.0752 -11.7391,4.4427 -4.125,1.3676 -10.2,3.8566 -13.5,5.5311 -3.3,1.6745 -6.5074,3.0503 -7.12756,3.0572 -3.13614,0.035 -3.19651,2.674 -0.26384,11.5332 1.63489,4.9387 3.3604,9.8795 3.83447,10.9795 0.47407,1.1 1.8794,4.7 3.12294,8 1.24354,3.3 2.56628,6.45 2.93942,7 0.37314,0.55 1.68464,4.375 2.91445,8.5 1.22981,4.125 3.30956,9.975 4.62167,13 1.31212,3.025 2.52198,6.4 2.6886,7.5 0.29288,1.9336 0.93291,1.9883 19.28639,1.646 10.4409,-0.1948 27.53346,-0.2402 37.98346,-0.1011 10.45,0.1392 29.125,0.2985 41.5,0.3541 21.7997,0.098 22.5,0.1633 22.5,2.101 0,1.9775 -0.6667,2 -59.29592,2 l -59.29592,0 0.6578,4 c 0.36179,2.2 1.31473,5.575 2.11764,7.5 2.44936,5.8724 10.1475,31.6024 16.44175,54.9544 1.10509,4.0999 2.24776,7.8403 2.53928,8.312 0.79633,1.2885 4.33537,18.6976 4.33537,21.3264 0,1.259 -0.48921,2.5915 -1.08713,2.9611 -2.281,1.4097 -2.62731,0.3814 -7.93263,-23.5539 -0.42668,-1.925 -2.65697,-9.8 -4.9562,-17.5 -2.29923,-7.7 -4.65399,-15.8 -5.23281,-18 -0.97113,-3.6912 -3.6633,-12.8163 -8.76504,-29.7091 -1.1144,-3.69 -2.02619,-7.3722 -2.02619,-8.1826 0,-1.74 -3.815,-3.1933 -5.07503,-1.9333 -0.49827,0.4983 0.19041,4.9454 1.60269,10.3494 1.36201,5.2116 3.39926,13.5256 4.52722,18.4756 1.12796,4.95 2.69019,10.1744 3.47163,11.6097 0.78143,1.4353 1.18738,2.8431 0.90211,3.1283 -0.63339,0.6334 0.77096,6.5231 5.30818,22.262 3.88923,13.4911 8.63715,35.4594 7.8367,36.2598 -0.86724,0.8673 -3.57342,-1.8826 -3.57456,-3.6322 -10e-4,-2.2557 -6.69527,-30.0356 -12.5606,-52.1276 -5.38936,-20.2993 -6.71905,-25.6349 -8.7224,-35 l -2.24613,-10.5 -8.12084,-0.2886 -8.12085,-0.2886 -0.23668,86.2886 c -0.13018,47.4587 -0.29401,111.2636 -0.36407,141.7886 l -0.12737,55.5 2.5,-0.1555 c 1.375,-0.085 5.34529,-0.9366 8.82286,-1.8914 5.70299,-1.5658 6.47438,-1.5844 7.86833,-0.1905 2.28146,2.2815 0.83901,3.5982 -4.75473,4.3402 -8.45037,1.121 -7.7347,3.1678 2.06354,5.9016 3.025,0.8441 6.28139,1.9759 7.23643,2.5151 0.95504,0.5393 3.34712,0.9805 5.31574,0.9805 4.26529,0 7.44783,1.5106 7.44783,3.5352 0,2.6193 -6.50377,1.6853 -22.78665,-3.2722 -4.55765,-1.3877 -8.53013,-2.2796 -8.82773,-1.9819 -0.29761,0.2976 1.06889,2.3231 3.03664,4.5012 1.96776,2.178 3.57774,4.4681 3.57774,5.0889 0,2.5282 -3.80251,0.8772 -6.55817,-2.8476 -3.13368,-4.2356 -5.35004,-5.1377 -5.58601,-2.2736 -0.22485,2.729 -0.41317,30.83262 -1.27825,190.75002 -0.44331,81.95 -1.18987,149.4127 -1.65901,149.9172 -0.50142,0.5392 -1.13284,0.188 -1.53197,-0.8521 z m 27.61341,-642.15992 c 0,-1.1789 -4.29337,-14.9285 -4.96646,-15.9052 -0.37903,-0.55 -1.47995,-3.1404 -2.44649,-5.7564 -2.59757,-7.0305 -3.631,-4.8492 -1.41461,2.9859 1.05338,3.7238 2.38884,9.2455 2.96769,12.2705 0.57885,3.025 1.26069,5.8375 1.51518,6.25 0.5461,0.8851 4.34469,1.0209 4.34469,0.1552 z m -8,-1.8976 c 0,-0.8341 -1.06758,-5.6771 -2.3724,-10.7621 -1.30482,-5.085 -3.37024,-13.5205 -4.58983,-18.7455 -3.32483,-14.2444 -5.23045,-21 -5.92365,-21 -0.48263,0 -0.69391,48.4348 -0.223,51.1211 0.0599,0.3416 3.03388,0.6845 6.60888,0.762 5.20455,0.1129 6.5,-0.1613 6.5,-1.3755 z M 154.35139,1312.5578 c -0.3847,-0.6224 -0.66161,-20.7991 -0.61535,-44.8371 0.23299,-121.0787 1.0653,-307.68262 1.58209,-354.70542 0.32037,-29.15 0.74784,-91.7865 0.94995,-139.1921 0.2021,-47.4057 0.66621,-86.6755 1.03134,-87.2663 2.32479,-3.7616 2.60208,3.4728 2.19628,57.2988 -0.87879,116.5638 -1.75036,283.25832 -2.21492,423.62082 -0.26675,80.5947 -0.86537,144.8485 -1.35403,145.3372 -0.50121,0.5012 -1.17512,0.3917 -1.57536,-0.2559 z m 831.63672,-28.6788 c 0.2419,-1.2757 1.3761,-1.9626 3.5952,-2.1771 4.0361,-0.3901 4.3098,-2.8011 0.4918,-4.3326 -1.5125,-0.6066 -3.65,-1.4559 -4.75,-1.8872 -7.4705,-2.9289 -15.5,-7.0288 -15.5,-7.9143 0,-1.2913 5.2368,-1.402 6.55,-0.1383 1.0132,0.9749 18.2888,8.0858 19.6443,8.0858 1.522,0 0.8009,-2.0239 -2.1943,-6.1587 -3.4809,-4.8052 -3.6881,-5.8413 -1.1684,-5.8413 1.0858,0 3.0864,1.934 4.9134,4.75 1.6951,2.6125 4.24589,5.8409 5.66849,7.1743 2.4673,2.3126 3.5728,7.3713 1.8365,8.4036 -0.4125,0.2452 -4.9553,0.7729 -10.09519,1.1727 -8.7829,0.6831 -9.324,0.6147 -8.9918,-1.1369 z m -26.8163,-117.9667 c -2.5346,-3.8811 -2.1646,-15.8735 0.6606,-21.4113 1.096,-2.1483 1.9927,-4.6213 1.9927,-5.4955 0,-0.8742 0.7313,-3.0037 1.6251,-4.7322 2.7683,-5.3532 9.524,-32.057 10.9994,-43.4783 0.8377,-6.4843 10.5962,-34.0498 15.4173,-43.5504 4.6907,-9.2437 4.9582,-10.1934 4.9582,-17.604 0,-9.291 0.5563,-10.1049 11.99999,-17.5579 13.529,-8.8112 16.4227,-10.8449 23,-16.16442 5.9962,-4.8496 14.3661,-12.9879 23.5546,-22.903 5.2627,-5.6787 8.7686,-11.2153 8.1397,-12.8542 -0.2962,-0.772 -3.6644,-2.3531 -7.4847,-3.5135 -3.8203,-1.1604 -7.5104,-2.7899 -8.2003,-3.6211 -0.6898,-0.8311 -1.7616,-1.5391 -2.3817,-1.5731 -1.5698,-0.086 -7.4419,-8.339 -9.7276,-13.6715 -1.045,-2.4378 -1.9,-6.3532 -1.9,-8.7008 0,-3.2004 -0.7468,-5.244 -2.9848,-8.1671 -5.4794,-7.1572 -10.955,-15.438 -13.352,-20.1923 -5.1284,-10.1719 -10.0738,-18.9208 -13.7816,-24.3808 -2.13489,-3.1437 -3.88159,-6.1355 -3.88159,-6.6483 0,-0.5128 -0.6833,-1.4995 -1.5185,-2.1926 -0.8351,-0.6931 -2.1836,-2.6607 -2.9966,-4.3725 -0.8131,-1.7117 -3.9855,-5.7837 -7.0498,-9.0489 -3.0643,-3.2652 -6.5714,-7.0902 -7.7935,-8.5 -5.77,-6.6562 -18.1978,-17.2156 -27.679,-23.5178 -5.7544,-3.825 -11.8126,-8.1209 -13.4626,-9.5464 -2.5402,-2.1946 -7.6727,-4.7926 -18,-9.1115 -1.1,-0.46 -4.7,-1.8035 -8,-2.9855 -3.3,-1.182 -6.4275,-2.5435 -6.95,-3.0256 -0.5225,-0.4821 -1.6119,-0.8765 -2.421,-0.8765 -0.809,0 -4.3091,-1.3827 -7.778,-3.0726 -3.4689,-1.6899 -6.7781,-2.7815 -7.3538,-2.4257 -0.5757,0.3558 -0.9231,0.1301 -0.772,-0.5015 0.1512,-0.6317 -3.1002,-2.4775 -7.2252,-4.1018 -4.125,-1.6243 -10.2455,-4.2629 -13.6011,-5.8635 -5.0766,-2.4215 -14.3318,-5.2861 -24.9458,-7.7209 -2.0244,-0.4643 -2.0454,-0.1865 -1.9109,25.3583 0.075,14.2052 -0.2375,32.5777 -0.6939,40.8277 -0.8669,15.6655 -1.0345,17.501 -2.4197,26.5 -0.4657,3.025 -0.7004,7.975 -0.5217,11 1.5285,25.8723 -1.2798,48.5425 -7.2228,58.3069 l -2.9257,4.807 2.0105,2.193 c 5.231,5.706 10.2311,20.0473 10.2311,29.345 0,5.1329 -5.4367,25.4303 -9.0663,33.84812 -2.4606,5.7067 -7.4676,13.3431 -10.4908,16 l -3.4136,3 -1.0532,16.5 c -0.5793,9.075 -1.4307,18.3 -1.8921,20.5 -1.6808,8.0147 -3.3287,14.066 -4.6295,17 -0.7316,1.65 -3.0217,7.05 -5.0892,12 -2.0676,4.95 -5.0206,11.0748 -6.5623,13.6106 -1.5416,2.5358 -2.803,4.8742 -2.803,5.1964 0,1.5509 -7.904,13.959 -12.8629,20.193 -7.1444,8.9815 -19.182,21.5 -20.674,21.5 -0.6342,0 -2.0093,0.9461 -3.0558,2.1024 -2.8295,3.1266 -7.0758,5.0184 -11.398,5.078 -3.1699,0.044 -4.5841,-0.6584 -8.068,-4.0061 l -4.2244,-4.0592 0.5079,-6.3075 c 0.4465,-5.5447 2.9462,-13.5409 7.2861,-23.3076 2.2144,-4.9833 5.6592,-13.8125 6.6327,-17 2.4415,-7.994 4.2221,-29.9173 2.9057,-35.7762 -1.7972,-7.9986 -4.2195,-7.284 -8.9109,2.6288 -6.1171,12.9251 -10.9752,23.3689 -13.5583,29.1474 -1.4751,3.3 -3.585,7.575 -4.6885,9.5 -1.1035,1.925 -2.6673,4.9762 -3.4751,6.7804 -2.4571,5.4879 -10.382,12.8909 -15.1623,14.1638 -5.6767,1.5117 -7.5619,0.3702 -11.1597,-6.7571 -4.0793,-8.081 -4.8851,-11.7534 -6.1855,-28.1902 -1.6319,-20.6262 -1.2051,-40.1606 1.0267,-46.9969 0.4489,-1.375 1.3602,-4.975 2.0252,-8 0.665,-3.025 2.2595,-8.425 3.5435,-12 1.2839,-3.575 3.7647,-11.225 5.513,-17 1.7482,-5.775 3.8264,-12.23882 4.6181,-14.36402 0.9601,-2.577 1.4411,-7.9059 1.4442,-16 0.01,-19.8342 0.8714,-22.568 12.0975,-38.2916 3.2025,-4.4856 5.8228,-9.1191 5.8228,-10.2966 0,-1.3215 -1.1293,-2.789 -2.9508,-3.8343 -1.6229,-0.9314 -3.9633,-3.4953 -5.201,-5.6974 -2.0299,-3.6117 -2.2414,-5.2778 -2.1594,-17.01 0.093,-13.339 1.3933,-21.1538 5.4908,-33.0061 1.9195,-5.5522 3.0099,-7.9868 7.8384,-17.5 0.977,-1.925 2.3049,-7.1 2.9507,-11.5 0.6459,-4.4 1.6203,-9.4599 2.1654,-11.2442 0.5451,-1.7843 0.7561,-3.6245 0.4688,-4.0893 -0.2873,-0.4649 0.1748,-7.105 1.0269,-14.7558 1.5227,-13.6714 4.6456,-26.5265 8.6025,-35.4107 2.4726,-5.5518 7.4914,-15.9769 8.6655,-18 0.4787,-0.825 1.4851,-2.8408 2.2363,-4.4796 0.7512,-1.6387 3.5034,-5.825 6.1159,-9.3029 2.6125,-3.4779 4.75,-6.729 4.75,-7.2247 0,-1.1967 8.946,-7.9928 10.5214,-7.9928 0.6785,0 1.7737,-0.6506 2.4336,-1.4458 0.892,-1.0748 1.8384,-1.203 3.6879,-0.4999 2.8219,1.0729 5.7652,-0.069 6.7427,-2.6168 1.0843,-2.8255 -0.3875,-3.5274 -6.2176,-2.9654 -5.4361,0.524 -57.3101,0.5914 -67.668,0.088 -16.2151,-0.7882 -40.146,-1.832 -41,-1.7883 -0.55,0.028 -9.164,0.2595 -19.1421,0.5141 -9.9782,0.2545 -18.6407,0.771 -19.25,1.1475 -1.5135,0.9354 -1.4044,8.0857 0.1421,9.3172 0.6875,0.5475 2.825,1.4619 4.75,2.0321 1.925,0.5701 5.1105,1.5286 7.0789,2.1298 1.9684,0.6013 6.9184,1.54 11,2.086 4.0816,0.546 8.7711,1.2049 10.4211,1.4641 3.4244,0.5381 34.4896,3.311 45,4.0167 3.85,0.2586 9.025,0.8963 11.5,1.4171 2.475,0.5209 9,1.1834 14.5,1.4722 5.5,0.2888 10.1125,0.5491 10.25,0.5783 0.1375,0.029 0.25,1.4123 0.25,3.0734 l 0,3.0202 -9.75,-0.6033 c -5.3625,-0.3318 -13.35,-1.0352 -17.75,-1.563 -9.7271,-1.1668 -13.3957,-1.5041 -25,-2.2982 -4.95,-0.3388 -11.925,-0.8586 -15.5,-1.1552 -10.2379,-0.8493 -35.3175,-4.5203 -36.9875,-5.4139 -0.8319,-0.4452 -3.6422,-1.1287 -6.2451,-1.519 -4.3678,-0.655 -4.8002,-0.5277 -5.6104,1.6513 -0.9123,2.4535 -2.5116,27.1646 -2.5475,39.3609 -0.011,3.85 0.3154,14.875 0.726,24.5 0.4105,9.625 0.9466,23.575 1.1911,31 0.9526,28.9213 2.1589,39.5099 6.4365,56.5 1.6616,6.6 3.0268,12.675 3.0337,13.5 0.014,1.6428 4.325,12.6552 5.3596,13.6897 0.354,0.354 0.6436,1.2666 0.6436,2.028 0,1.4502 6.11,16.3483 11.0877,27.035 1.6017,3.4389 2.9123,6.7715 2.9123,7.4056 0,0.6341 1.0125,2.5454 2.25,4.2473 1.2375,1.7019 3.1311,4.8944 4.2081,7.0944 1.0769,2.2 2.7644,5.1945 3.75,6.6544 3.924,5.8126 0.4706,10.6887 -3.7877,5.3482 -1.2429,-1.5587 -2.8483,-3.997 -3.5674,-5.4183 -0.7192,-1.4214 -2.3305,-4.2631 -3.5807,-6.3151 -1.2502,-2.0519 -3.0225,-5.6519 -3.9384,-8 -0.9159,-2.348 -2.4629,-5.4247 -3.4379,-6.8369 -0.9749,-1.4123 -2.7622,-5.4623 -3.9717,-9 -1.2096,-3.5378 -3.0302,-8.0878 -4.0458,-10.1111 -2.1645,-4.3122 -10.4427,-29.6483 -12.521,-38.3212 -0.7908,-3.3 -1.8488,-7.575 -2.3511,-9.5 -2.0921,-8.0174 -3.4828,-23.6827 -4.5933,-51.7415 -0.2882,-7.2828 -0.8366,-18.7578 -1.2186,-25.5 -0.9312,-16.4368 0.7035,-63.1271 2.4149,-68.9707 0.8493,-2.9003 -1.2939,-5.3777 -5.8004,-6.7049 -2.37,-0.6979 -7.1087,-2.594 -10.5306,-4.2134 -5.5685,-2.6354 -6.3342,-3.3629 -7.2947,-6.9301 -0.5903,-2.192 -0.8052,-4.4193 -0.4776,-4.9493 0.6726,-1.0883 10.1952,-3.9816 12.4939,-3.7961 0.825,0.067 4.3125,0.05 7.75,-0.036 l 6.25,-0.1581 0.01,-3.25 c 0,-1.7875 0.4193,-4.825 0.925,-6.75 0.5057,-1.925 1.1555,-6.2 1.4442,-9.5 0.2886,-3.3 0.8364,-8.8125 1.2174,-12.25 0.5509,-4.9705 0.4077,-6.2844 -0.6997,-6.418 -1.7907,-0.2161 -16.4282,-0.6556 -25.1425,-0.755 -5.9783,-0.068 -6.75,-0.2979 -6.75,-2.0096 0,-2.8228 2.2626,-3.1784 18.4852,-2.9051 11.6423,0.1962 14.8205,-0.039 15.5054,-1.1471 0.4738,-0.7665 1.145,-5.2461 1.4916,-9.9545 0.63,-8.5591 2.2873,-18.949 5.2735,-33.0607 1.0229,-4.8337 1.6989,-14.0768 1.9015,-26 0.2877,-16.9325 0.1285,-19.0351 -1.8793,-24.815 -2.8088,-8.0857 -9.5409,-15.1719 -16.074,-16.9192 -3.8959,-1.042 -4.9706,-0.9547 -8.3381,0.6772 -2.1262,1.0304 -5.6812,3.6023 -7.9001,5.7152 -2.2189,2.113 -5.8987,5.3163 -8.1774,7.1184 -5.6263,4.4494 -6.8828,8.5313 -8.8419,28.7234 -1.8874,19.4536 -1.8648,19.3396 -3.9909,20.1555 -3.5557,1.3644 -3.8416,-1.0625 -2.1056,-17.8715 0.925,-8.9562 1.6747,-16.6215 1.666,-17.034 -0.022,-1.0289 -3.0159,-0.9551 -3.0159,0.074 0,0.4534 -3.1547,4.0742 -7.0104,8.0464 -5.9077,6.0861 -6.8514,7.519 -6,9.1099 0.5557,1.0384 1.0104,2.7658 1.0104,3.8388 0,1.073 0.7486,4.269 1.6636,7.1021 1.2871,3.9853 1.3941,5.4208 0.4725,6.3424 -2.0587,2.0587 -4.3482,-0.4766 -6.5585,-7.2625 -1.1427,-3.5082 -2.5884,-6.539 -3.2127,-6.735 -1.0765,-0.3381 -17.5099,12.2684 -25.656,19.6811 -2.0852,1.8975 -5.456,4.598 -7.4908,6.0012 -2.0348,1.4032 -4.524,3.5638 -5.5315,4.8013 -1.0074,1.2375 -2.3662,2.25 -3.0194,2.25 -0.6532,0 -2.308,1.0144 -3.6774,2.2541 -5.2313,4.7361 -24.0704,10.7538 -26.7372,8.5406 -2.0937,-1.7377 -1.4078,-3.7239 1.4974,-4.3361 1.5125,-0.3187 3.5885,-1.0379 4.6133,-1.5982 1.0248,-0.5604 2.7356,-1.1869 3.8017,-1.3922 1.0661,-0.2053 3.1526,-1.0053 4.6367,-1.7778 1.484,-0.7725 4.9483,-2.5647 7.6983,-3.9825 6.2161,-3.205 26.432,-18.9588 44.8505,-34.9511 l 3.8505,-3.3432 -0.9899,-5.9568 c -0.5444,-3.2762 -2.3868,-13.1699 -4.0941,-21.986 -5.6394,-29.1195 -4.7252,-55.5245 2.4668,-71.2477 1.3289,-2.9053 2.4162,-5.6493 2.4162,-6.0977 0,-2.045 8.3753,-13.4512 13.6561,-18.5981 7.3926,-7.205 11.8503,-9.5273 18.2883,-9.5273 4.0757,0 5.599,0.5191 8.0701,2.75 6.1084,5.5148 6.6769,24.4961 1.5626,52.1728 -2.1293,11.5231 -5.2002,29.2044 -7.2644,41.8272 -0.7769,4.7504 0.7865,4.1737 8.7231,-3.2183 5.3615,-4.9936 9.6057,-6.9274 15.9642,-7.2741 l 6.5,-0.3544 6.5,5.5745 c 4.138,3.5489 7.1598,7.1095 8.3158,9.7985 1.9981,4.6479 4.7055,16.4566 4.5815,19.9825 -0.043,1.2327 -0.015,8.1129 0.064,15.2894 0.079,7.1764 -0.3307,14.2932 -0.9093,15.8151 -0.5786,1.5218 -1.052,4.3444 -1.052,6.2723 0,1.9279 -0.65,7.1861 -1.4444,11.6849 -3.9451,22.3414 -4.5684,26.4984 -4.5622,30.4296 l 0.01,4.25 8.75,0.1135 c 4.8125,0.062 31.25,0.2632 58.75,0.4462 27.5,0.183 86.45,0.6342 131,1.0026 44.55,0.3684 85.05,0.6487 90,0.623 4.95,-0.026 31.3875,-0.078 58.75,-0.116 l 49.74219,-0.069 0,-2.4349 c 0,-4.235 1.7862,-7.5651 4.0578,-7.5651 1.8939,0 2.0736,0.4809 1.7747,4.75 l -0.3325,4.75 10.75,0.2804 c 5.9125,0.1542 10.75,-0.1097 10.75,-0.5865 0,-0.4768 -2.475,-2.1191 -5.5,-3.6496 -3.025,-1.5305 -5.5,-3.356 -5.5,-4.0565 0,-2.9283 3.4848,-2.196 11.5463,2.4264 4.6723,2.679 10.0845,5.1692 12.027,5.5336 1.9425,0.3644 3.7101,1.2002 3.9281,1.8574 0.2179,0.6571 0.612,15.3698 0.8758,32.6948 0.2638,17.325 0.5118,31.6613 0.5512,31.8584 0.039,0.1971 1.2288,0.068 2.6431,-0.287 1.4144,-0.355 9.1108,0.3146 17.1033,1.488 16.8866,2.4791 19.3252,3.7613 19.3252,10.1608 0,5.6866 -3.4106,11.4122 -10.8566,18.2258 -14.3334,13.1158 -17.3302,16.1845 -19.0962,19.554 -1.0089,1.925 -2.7823,4.3572 -3.9408,5.405 -1.1585,1.0477 -2.1064,2.3268 -2.1064,2.8423 0,0.5155 -0.8769,2.0521 -1.9487,3.4147 -1.4649,1.8622 -1.7291,3.0552 -1.0641,4.8042 1.1071,2.9119 -0.8079,5.9236 -3.1863,5.0109 -2.6357,-1.0114 -2.9328,-3.3796 -0.788,-6.2817 1.6011,-2.1665 1.8141,-3.3153 1.0854,-5.8545 -0.9011,-3.14 -1.441,-20.053 -1.2952,-40.5691 0.042,-5.9006 -0.3297,-10.9792 -0.8258,-11.2859 -1.7562,-1.0853 -23.3302,-2.533 -24.2369,-1.6263 -0.5332,0.5332 -0.043,2.7811 1.2034,5.5169 3.4214,7.5107 3.9225,9.2219 3.093,10.564 -1.1042,1.7866 -4.5,0.487 -5.7668,-2.2071 -0.5776,-1.2284 -2.3942,-5.3766 -4.0368,-9.2183 -3.4073,-7.9686 -3.2673,-7.8994 -18.2332,-9.0142 -4.675,-0.3482 -10.975,-1.0432 -14,-1.5444 -3.025,-0.5012 -9.1,-1.1105 -13.49999,-1.3539 -4.4,-0.2435 -11.6,-0.7326 -16,-1.087 -12.588,-1.0139 -19.3747,-1.3124 -44.5,-1.9572 -42.6085,-1.0935 -52.4073,-1.666 -68.5,-4.0025 -5.5,-0.7985 -14.5,-1.7296 -20,-2.069 -17.182,-1.0605 -18.9177,-1.5792 -18.2419,-5.4515 0.1966,-1.1262 1.7558,-1.4337 6.7488,-1.3308 11.7604,0.2424 29.4582,1.4647 30.4849,2.1054 1.1342,0.7077 11.677,2.1329 18.5082,2.5019 2.475,0.1337 5.0299,0.5746 5.6775,0.9798 1.0858,0.6794 47.2515,1.8815 69.3225,1.8051 5.225,-0.018 13.325,0.3882 18,0.9028 4.675,0.5146 12.55,1.1924 17.5,1.5063 4.94999,0.3139 12.90299,1.0085 17.67339,1.5435 4.7704,0.5351 12.14,1.2171 16.3769,1.5157 7.6464,0.5388 7.6995,0.5257 7.1595,-1.7611 -3.8731,-16.4039 -4.8139,-22.8897 -5.3386,-36.804 -0.3214,-8.525 -0.8819,-15.8229 -1.2455,-16.2177 -1.1141,-1.2095 -387.74039,-3.1434 -393.12569,-1.9664 l -3.5,0.765 -1.6292,14.4595 c -0.8961,7.9528 -1.9681,16.6535 -2.3824,19.3349 l -0.7531,4.8753 10.8824,-0.7092 c 17.0824,-1.1132 39.5278,-0.6842 52.8823,1.0107 2.75,0.349 24.125,0.7422 47.5,0.8737 23.375,0.1315 43.3515,0.6122 44.3922,1.0682 1.5006,0.6575 2.7424,-0.106 6,-3.6888 5.1947,-5.7135 9.5934,-7.9754 15.8677,-8.1597 4.5166,-0.1326 5.2134,0.1637 7.8733,3.3475 2.8506,3.4121 7.2657,11.007 6.3986,11.007 -0.2399,0 0.2125,2.1375 1.0052,4.75 0.7927,2.6125 1.4462,5.7401 1.4522,6.9503 0.01,1.2102 0.5841,2.5602 1.2848,3 3.3596,2.1088 7.1973,12.3993 8.4854,22.7525 l 0.7406,5.9528 4.75,1.6992 c 2.6125,0.9345 4.75,1.5545 4.75,1.3778 0,-0.1768 1.6311,0.129 3.6247,0.6794 1.9935,0.5505 4.4297,1.1559 5.4137,1.3454 2.1786,0.4196 13.1751,5.1413 25.9616,11.1475 5.225,2.4543 11.3,5.2912 13.5,6.3041 2.2,1.013 6.8844,3.2366 10.4097,4.9414 3.5254,1.7048 6.9916,3.0996 7.7027,3.0996 3.4061,0 24.0792,9.5429 29.3396,13.5436 3.223,2.451 6.2738,4.4564 6.7796,4.4564 0.5059,0 1.9767,1.125 3.2684,2.5 1.2917,1.375 2.7842,2.5 3.3165,2.5 1.6744,0 11.7344,8.9261 24.3058,21.5662 14.3145,14.3927 25.19639,29.9471 36.50789,52.1838 2.3082,4.5375 4.7885,8.25 5.5118,8.25 0.9876,0 1.071,-0.5603 0.3348,-2.25 -1.5007,-3.4444 -4.0635,-15.4445 -4.9654,-23.25 -0.4448,-3.85 -2.0523,-16 -3.5721,-27 -2.2615,-16.3684 -2.7793,-23.8757 -2.8513,-41.3442 l -0.088,-21.3443 3,-2.4008 c 6.7622,-5.4115 16.566,-1.5005 22.0651,8.8024 0.7965,1.4923 3.6751,5.6924 6.397,9.3336 4.4544,5.959 8.1428,11.9604 16.1514,26.2803 1.4374,2.5701 4.9249,8.646 7.75,13.5019 2.8251,4.8558 5.1365,9.0373 5.1365,9.2922 0,0.2548 0.4878,1.0068 1.084,1.6711 2.3005,2.5631 8.4137,14.0044 13.3552,24.9955 1.0032,2.2312 1.4749,2.5207 2.3633,1.4502 2.0793,-2.5054 -2.7875,-27.8678 -6.891,-35.9115 -3.3548,-6.5758 -6.269,-25.8208 -4.3743,-28.8865 1.2896,-2.0868 3.4628,1.302 3.4838,5.4325 0.025,4.9228 3.9297,18.7125 6.6904,23.6276 2.1313,3.7945 3.1519,7.3358 3.854,13.3732 0.2477,2.1302 1.1583,6.3084 2.0235,9.2847 0.941,3.2369 1.4973,8.5118 1.3844,13.1268 -0.2771,11.3263 -0.1732,12.0154 2.1637,14.3523 4.1267,4.1267 12.5748,19.8483 15.5098,28.863 1.8128,5.5682 2.5851,37.0498 1.1774,48 -1.6669,12.9672 -4.9186,28.3138 -7.0555,33.29892 -2.144,5.0016 -5.8579,7.8683 -9.3467,7.2144 -1.0571,-0.1982 -2.3996,-0.3947 -2.9834,-0.4368 -0.5838,-0.042 -1.9338,-0.8865 -3,-1.8766 -1.0662,-0.99 -3.382,-2.6508 -5.1462,-3.6906 -1.7642,-1.0397 -3.7383,-3.17162 -4.3869,-4.73762 -1.7375,-4.1945 -3.1061,-2.9403 -4.6821,4.29052 -1.9797,9.0838 -6.23,23.2593 -7.3123,24.3878 -0.5011,0.5225 -0.9111,1.8805 -0.9111,3.0179 0,1.1373 -1.1297,3.7303 -2.5104,5.7622 -1.3807,2.0319 -2.9619,4.8819 -3.5137,6.3334 -1.8129,4.7682 -8.1163,13.4064 -11.0456,15.1367 -3.3849,1.9996 -5.1008,6.1974 -4.2572,10.4152 0.3318,1.6593 0.1332,4.6746 -0.4414,6.7007 -3.6467,12.8589 -6.035,19.6192 -9.4084,26.631 -2.1028,4.3709 -3.8233,8.4783 -3.8233,9.1276 0,0.6492 -0.675,1.7406 -1.5,2.4253 -0.825,0.6847 -1.5,2.0347 -1.5,3 0,0.9653 -0.6697,2.3109 -1.4882,2.9902 -1.207,1.0017 -1.6078,0.9233 -2.1214,-0.4153 -0.7205,-1.8776 1.2172,-7.5134 6.5586,-19.0749 2.0328,-4.4 4.3013,-9.575 5.0411,-11.5 0.7398,-1.925 1.661,-3.95 2.0471,-4.5 1.1533,-1.6429 2.1218,-8.5 1.2005,-8.5 -0.4692,0 -2.4021,2.9622 -4.2953,6.5826 -6.2221,11.8982 -8.4098,15.866 -10.9816,19.9174 -2.3853,3.7577 -2.5024,4.5452 -1.9336,13 0.4319,6.4209 0.2557,9.3921 -0.6149,10.3683 -2.0893,2.3426 -3.4123,0.2383 -3.4123,-5.4273 0,-3.7031 -0.3993,-5.4309 -1.25,-5.4092 -1.1963,0.03 -10.517,12.5949 -11.9282,16.0796 -0.373,0.921 -1.6067,2.3249 -2.7414,3.1198 -1.1348,0.7948 -3.4769,3.4305 -5.20449,5.857 -3.0147,4.2341 -5.7875,7.0743 -17.8759,18.3103 -10.6225,9.8734 -11.4978,10.4976 -15.6541,11.1622 -3.7942,0.6067 -4.3119,0.42 -5.9992,-2.1637 z m 13.9248,-9.3358 c 3.4257,-2.7164 7.5456,-6.3603 9.1555,-8.0977 1.6098,-1.7374 3.6713,-3.4524 4.5811,-3.8112 0.9098,-0.3588 3.8254,-3.1273 6.4791,-6.1523 2.6538,-3.025 5.4298,-5.8599 6.1689,-6.2997 0.73909,-0.4398 1.34389,-1.268 1.34389,-1.8405 0,-0.5724 2.025,-3.4111 4.5,-6.3081 2.475,-2.897 4.5,-5.6788 4.5,-6.1817 0,-0.5029 1.3261,-2.5231 2.947,-4.4895 1.6208,-1.9663 4.0216,-5.5963 5.335,-8.0666 2.3133,-4.3507 2.3825,-5.1311 2.2068,-24.9027 -0.174,-19.5702 0.3069,-23.9112 2.6488,-23.9112 0.7407,0 0.8766,5.8394 0.4441,19.0902 -0.4456,13.6537 -0.3108,18.9862 0.4735,18.7247 0.6031,-0.201 2.6775,-3.2791 4.6098,-6.8402 1.9322,-3.5611 3.8751,-6.9247 4.3175,-7.4747 2.2813,-2.8361 10.0175,-17.8105 10.0175,-19.3901 0,-0.6048 -2.0076,-2.0433 -4.4613,-3.1967 -2.4537,-1.1534 -7.5162,-5.2158 -11.25,-9.0277 -5.5661,-5.6825 -7.2118,-6.8286 -9.1381,-6.3641 -1.2922,0.3116 -5.8947,0.5744 -10.2277,0.5839 -7.7272,0.017 -7.93189,0.082 -10.66669,3.4001 -2.997,3.6358 -8.6202,16.3666 -12.5862,28.4946 -2.8404,8.686 -4.865,17.2729 -7.5447,32 -1.0509,5.775 -2.592,12.525 -3.4248,15 -5.7417,17.0634 -10.7455,33.8985 -10.7249,36.0833 0.052,5.4576 2.4207,5.2224 10.2959,-1.0221 z m -219.4846,-9.8032 c 4.3786,-3.0157 14.0872,-12.5998 21.534,-21.258 2.0849,-2.424 15.3788,-25.1397 17.2644,-29.5 0.9513,-2.2 2.9869,-6.7 4.5235,-10 7.6676,-16.4674 10.5903,-31.8551 11.3012,-59.5 l 0.09,-3.5 -9.3815,-0.7212 c -9.7721,-0.7512 -15.4027,-2.8946 -13.2524,-5.0449 1.2872,-1.2872 18.9869,-1.1205 22.4911,0.2118 4.1535,1.5791 8.0617,-1.8427 12.5401,-10.9794 2.1865,-4.4609 4.2827,-9.54072 4.6582,-11.28852 0.3754,-1.7478 2.0336,-7.2278 3.6848,-12.1778 2.5456,-7.6314 2.9157,-9.9884 2.4337,-15.5 -0.3127,-3.575 -1.4923,-8.2826 -2.6213,-10.4614 -1.129,-2.1788 -2.0527,-4.45 -2.0527,-5.0471 0,-0.5971 -1.7453,-2.7899 -3.8785,-4.8729 -3.141,-3.067 -4.2345,-3.6006 -5.75,-2.8056 -8.3547,4.3824 -16.6966,5.5347 -22.9252,3.1666 -3.6632,-1.3927 -4.7917,-0.1138 -6.3474,7.1931 -1.3687,6.4289 -3.1449,8.6818 -5.0422,6.3956 -0.9562,-1.1521 -0.7892,-2.9829 0.7991,-8.7623 1.1043,-4.0183 2.3035,-8.0724 2.665,-9.0091 0.5066,-1.3128 -0.3965,-2.1983 -3.9416,-3.8647 -4.9934,-2.3471 -6.3035,-2.2498 -14.5792,1.0831 -11.1382,4.4858 -20.3424,3.4756 -27.3724,-3.0044 -6.4068,-5.9056 -8.5836,-6.0446 -13.0631,-0.834 -4.9941,5.8092 -12.5221,17.1855 -15.4334,23.3231 -3.5789,7.5447 -4.3281,29.5 -1.0067,29.5 0.5975,0 5.6514,2.1958 11.231,4.8795 5.5795,2.6837 13.1225,6.27822 16.762,7.98782 7.5295,3.5367 9.8063,5.609 8.0702,7.3451 -1.6049,1.6049 -7.0327,-0.2619 -23.0617,-7.9317 -7.3557,-3.51972 -13.968,-6.17152 -14.694,-5.89292 -0.726,0.2785 -1.8627,2.4428 -2.5262,4.80932 -2.6964,9.6188 -6.2488,20.4609 -7.5368,23.0024 -4.3696,8.6224 -9.104,33.2932 -9.3649,48.8005 -0.1485,8.8245 1.4414,32.2637 2.5437,37.5 1.074,5.1019 5.3503,13.5 6.8743,13.5 7.5143,0 14.1205,-8.3043 23.8652,-30 2.0998,-4.675 4.9192,-10.8346 6.2653,-13.6881 1.3461,-2.8534 2.4475,-5.6271 2.4475,-6.1637 0,-2.3234 6.5009,-13.3919 9.1988,-15.662 3.2078,-2.6993 7.4338,-3.2162 10.1059,-1.2362 3.4475,2.5545 4.4086,17.5115 2.265,35.25 -1.2369,10.2358 -4.0686,20.2712 -8.3197,29.4847 -4.5812,9.9289 -8.2911,21.307 -7.6449,23.4465 0.3436,1.1379 1.5836,3.1154 2.7554,4.3947 2.7839,3.0389 6.2472,2.3766 13.4264,-2.5679 z m 296.42829,-96.1628 c 2.8804,-2.5471 10.4753,-15.9548 13.0825,-23.0952 0.5021,-1.375 1.5299,-3.85 2.2841,-5.5 0.7542,-1.65 1.7832,-4.8 2.2868,-7 0.5036,-2.2 1.6989,-6.7 2.6563,-10 0.9574,-3.3 2.1026,-8.70002 2.545,-12.00002 2.262,-16.8755 2.3131,-15.6008 -0.8624,-21.5 -1.6284,-3.025 -3.6521,-5.638 -4.4971,-5.8066 -0.9011,-0.1798 -2.8348,1.5805 -4.6762,4.2568 -4.4307,6.4398 -26.3694,28.2343 -33.5342,33.31382 -10.0021,7.0909 -16.0435,11.0301 -20.3944,13.298 -5.9505,3.1015 -10.10559,8.5005 -10.10559,13.1307 0,2.6781 0.551,4.0318 1.94479,4.7778 2.7042,1.4472 13.9577,2.152 16.0952,1.0081 3.1147,-1.6669 7.3862,0.8358 13.9621,8.1805 9.1392,10.2078 13.6656,11.8419 19.2131,6.9361 z m 49.4815,-50.3452 c 1.7216,-1.89402 4.4606,-10.81672 6.6765,-21.75002 1.9978,-9.8574 2.7732,-43.4802 1.2107,-52.5 -0.7811,-4.509 -3.1058,-9.921 -9.4866,-22.0847 -1.1785,-2.2465 -3.4819,-5.3676 -5.1187,-6.9358 -2.931,-2.8081 -3.0275,-2.8266 -6.3859,-1.2251 -2.9735,1.4179 -14.5927,14.2805 -14.5927,16.1542 0,1.4569 -6.846,11.2465 -10.0207,14.3294 -1.8339,1.7809 -4.8371,3.5199 -6.6738,3.8645 -3.991,0.7487 -12.1015,-1.1171 -14.5791,-3.354 -1.3304,-1.201 -2.0593,-1.3156 -2.9166,-0.4583 -1.4594,1.4594 0.6176,11.4897 2.7446,13.255 0.7951,0.6598 1.4456,1.7354 1.4456,2.3902 0,2.7942 8.7065,8.5646 12.9226,8.5646 3.6641,0 12.7402,4.8844 16.2073,8.722 4.5984,5.0898 8.269,12.7818 10.8698,22.778 3.2778,12.5984 5.9918,16.9804 12.0008,19.37652 3.4604,1.3799 3.4084,1.3902 5.6962,-1.1265 z M 811.97321,940.56628 c 1.8435,-1.1239 4.0269,-2.0533 4.8519,-2.0653 2.5302,-0.037 7.6393,-7.2201 9.2486,-13.0035 3.8141,-13.707 6.0555,-40.6769 3.7401,-45.0032 -0.9052,-1.6915 -14.2043,-8.5794 -23.4887,-12.1652 -4.5848,-1.7707 -6.0754,-2.8476 -6.3196,-4.5656 -0.3755,-2.6424 0.6161,-2.7779 5.4738,-0.7482 1.9745,0.825 4.293,1.5 5.1522,1.5 2.2101,0 10.2773,3.928 12.8927,6.2775 2.6702,2.3987 5.3009,1.6314 5.3009,-1.5461 0,-1.2823 0.443,-2.7744 0.9844,-3.3158 2.8151,-2.8151 4.3965,-67.7407 2.2387,-91.9156 -1.2365,-13.8535 -4.4992,-29.0426 -6.7798,-31.5626 -1.7859,-1.9735 -4.803,-2.9977 -6.0826,-2.0648 -1.6434,1.198 -4.2397,7.6522 -4.8784,12.1274 -0.3533,2.475 -0.8106,5.625 -1.0163,7 -0.2057,1.375 -0.6632,4.75 -1.0167,7.5 -1.7419,13.5526 -5.0201,25.0887 -10.6692,37.5451 -4.9024,10.81 -11.9058,13.8002 -16.6656,7.1157 -3.0046,-4.2196 -4.088,-13.4162 -4.2009,-35.6608 -0.1772,-34.9137 -0.9696,-40.4317 -5.8143,-40.4847 -1.5875,-0.017 -12.0993,10.4728 -12.0993,12.0744 0,0.5741 -1.1886,2.6021 -2.6413,4.5067 -1.4527,1.9046 -3.7116,5.3621 -5.0198,7.6832 -3.2492,5.7654 -4.7597,9.0021 -11.2015,24.0031 -3.1382,7.3077 -6.8735,24.184 -7.5735,34.2173 -0.8476,12.1492 -2.4321,24.8744 -3.669,29.4658 -0.3131,1.1621 0.947,1.5115 6.081,1.6862 10.1327,0.3448 23.3943,2.3381 24.8108,3.7292 0.7307,0.7176 0.9885,2.041 0.5966,3.0624 -0.5902,1.538 -1.4288,1.7008 -5.7868,1.1237 -8.0322,-1.0638 -23.7248,-1.7519 -26.1383,-1.1462 -1.4749,0.3702 -3.4191,2.9242 -5.9274,7.7864 -6.8079,13.1965 -9.8562,26.169 -9.8608,41.9637 0,12.4072 0.9235,15.4705 5.4081,17.8706 2.6435,1.4148 5.7959,0.4322 4.0891,-1.2746 -1.4026,-1.4026 -1.5341,-4.4224 -0.2277,-5.2298 0.5167,-0.3193 5.1292,3.5916 10.25,8.691 11.2388,11.1918 15.7548,13.4791 22.1872,11.2376 2.2678,-0.7903 4.9258,-1.4434 5.9065,-1.4514 0.9808,-0.01 4.0196,-1.1478 6.753,-2.5329 6.6498,-3.3698 9.2131,-2.6025 23.594,7.0626 4.4335,2.9796 13.0528,3.2289 17.5179,0.5067 z m 244.14699,-17.2089 c 1.19,-0.6369 2.8001,-1.7945 3.5781,-2.5724 1.7425,-1.7425 6.1268,-8.1433 6.1268,-8.9447 0,-0.6576 6.1514,-9.3606 8.5306,-12.0691 0.8483,-0.9657 2.7236,-3.2571 4.1673,-5.092 1.4436,-1.8348 3.7074,-3.7477 5.0306,-4.2508 2.9135,-1.1077 2.754,-1.7998 -3.3212,-14.4131 -5.6025,-11.6318 -10.0325,-19.4721 -12.4658,-22.0622 -1.0678,-1.1367 -1.9415,-2.4349 -1.9415,-2.8849 0,-0.829 -13.1469,-23.8766 -18.8542,-33.0529 -1.7104,-2.75 -3.5555,-6.0093 -4.1004,-7.243 -1.8562,-4.2031 -12.0902,-18.0892 -15.6079,-21.1777 -4.7507,-4.1712 -9.9992,-4.3206 -11.5677,-0.3293 -1.2813,3.2602 -0.547,34.5564 1.0264,43.75 0.5648,3.3 1.7581,12.3 2.6518,20 0.8938,7.7 2.0669,16.025 2.607,18.5 0.54,2.475 1.8753,9.45 2.9671,15.5 1.0919,6.05 2.5679,11.9 3.28,13 0.712,1.1 1.8524,3.7016 2.5341,5.7813 2.406,7.3398 6.1032,12.7044 9.9156,14.3876 2.8131,1.242 10.2119,3.6753 12.9639,4.2636 0.1737,0.037 1.2894,-0.4536 2.4794,-1.0904 z M 795.08241,803.97448 c 1.5085,-2.4974 2.7427,-4.9785 2.7427,-5.5135 0,-0.5351 0.4236,-1.7542 0.9414,-2.7093 0.5177,-0.955 1.6839,-4.4364 2.5915,-7.7364 0.9076,-3.3 2.2398,-8.025 2.9604,-10.5 1.2858,-4.4165 2.7757,-13.1462 4.0878,-23.9516 0.3641,-2.9985 1.6671,-8.1735 2.8954,-11.5 1.8369,-4.9744 2.8807,-6.3738 5.8785,-7.8808 2.0047,-1.0078 3.645,-2.3641 3.645,-3.0141 0,-3.5255 -4.3611,-12.5209 -7.4679,-15.4035 -6.4675,-6.0008 -9.9835,-4.1405 -23.5453,12.4578 -0.5427,0.6643 -0.9868,1.607 -0.9868,2.095 0,0.488 -0.9496,1.7445 -2.1101,2.7922 -1.9008,1.716 -2.0385,2.55 -1.3876,8.405 0.3974,3.575 0.8603,18.875 1.0287,34 0.1795,16.1266 0.7432,28.6373 1.3628,30.25 1.5669,4.0777 4.2065,3.4358 7.3635,-1.7908 z m 289.01599,-21.296 c 1.3965,-2.1103 5.5831,-6.4978 9.3036,-9.75 13.0185,-11.3802 19.4231,-18.2525 19.4231,-20.8414 0,-3.1639 -0.8026,-3.5938 -8.8268,-4.728 -3.6702,-0.5187 -7.7982,-1.1186 -9.1732,-1.3329 -7.0154,-1.0937 -14.2416,-0.8211 -14.8603,0.5605 -0.9344,2.0867 -0.2054,39.9286 0.7692,39.9286 0.4539,0 1.9679,-1.7266 3.3644,-3.8368 z m -9.6663,-46.3363 c 0.6299,-1.0192 0.642,-8.2782 0.059,-35.653 -0.4676,-21.9732 -0.8714,-22.9498 -7.8338,-18.9453 -2.3829,1.3706 -6.4804,3.724 -9.1054,5.2299 -2.625,1.5059 -5.4375,2.4829 -6.25,2.1711 -3.0824,-1.1828 -1.2506,-3.5471 5.0228,-6.4828 3.575,-1.6729 6.5,-3.5154 6.5,-4.0943 0,-0.6756 -4.1116,-1.0525 -11.4809,-1.0525 -11.1677,0 -11.4969,0.063 -12.062,2.315 -0.5393,2.1486 0.015,18.6605 0.8955,26.685 0.8582,7.8202 5.5579,27.2439 6.9219,28.6078 0.3682,0.3682 5.5195,0.9609 11.4474,1.3172 15.3106,0.9202 15.2555,0.9206 15.8851,-0.098 z m -448.80419,-10.958 c 0.3862,-4.6104 -0.8864,-5.126 -10.5028,-4.2545 -6.0395,0.5472 -7.3359,0.964 -7.0857,2.2777 0.1684,0.8843 1.4265,1.7635 2.7959,1.9537 1.3694,0.1902 3.0551,0.8101 3.746,1.3776 1.4595,1.1988 7.0608,2.6692 9.2438,2.4266 0.9604,-0.1067 1.6089,-1.4669 1.8028,-3.7811 z m -54.1035,-136.1189 c 1.6614,-1.7875 5.957,-5.894 9.5459,-9.1256 5.4719,-4.9272 6.6289,-6.5413 7.1682,-10 1.2333,-7.9098 1.462,-9.1568 2.5914,-14.1244 1.2634,-5.557 4.5345,-25.2237 5.9801,-35.9539 0.5153,-3.8247 1.4487,-9.2247 2.0744,-12 0.6256,-2.7754 1.2898,-10.1497 1.4761,-16.3873 0.4679,-15.6712 -1.2122,-19.1588 -9.2295,-19.1588 -5.959,0 -11.8995,3.9725 -17.9533,12.0058 -4.312,5.7219 -9.3526,14.698 -9.3526,16.6548 0,0.3754 -1.071,3.4178 -2.38,6.7609 -2.2518,5.7513 -5.3506,26.5873 -4.225,28.4086 0.2685,0.4345 0.562,4.138 0.652,8.23 0.09,4.0919 0.5293,9.2399 0.976,11.4399 1.3558,6.6763 2.7836,14.494 4.566,25 0.9331,5.5 1.8839,10.3375 2.1128,10.75 0.8665,1.5614 3.0804,0.6386 5.9975,-2.5 z m 446.96739,543.58332 c -1.2389,-1.2389 -0.6772,-4.1153 0.9235,-4.7296 2.2582,-0.8665 3.4098,0.1316 3.4098,2.9553 0,1.7004 -0.5563,2.441 -1.8333,2.441 -1.0084,0 -2.1334,-0.3 -2.5,-0.6667 z m 121.5226,-455.09512 c -2.7436,-0.3099 -3.2574,-0.7477 -3,-2.5561 l 0.3107,-2.1821 43,0 43,0 0,2.5 0,2.5 -40,0.056 c -22,0.031 -41.4898,-0.1122 -43.3107,-0.3179 z M 77.485051,675.84188 c -0.38689,-0.3869 -10.70615,-0.8054 -22.93169,-0.93 -29.51678,-0.3009 -53.0265298,-1.334 -54.09111984,-2.377 -0.47457,-0.4649 -0.60544,-1.2619 -0.29081,-1.7709 0.76871,-1.2438 91.67012984,-1.4776 93.65367984,-0.2409 1.16482,0.7263 1.25088,1.3327 0.38513,2.7137 -0.89296,1.4245 -2.48533,1.7785 -8,1.7785 -3.78682,0 -7.14087,0.3443 -7.45344,0.765 -0.31256,0.4208 -0.88485,0.4485 -1.27175,0.062 z m 79.590059,-0.044 c -1.69141,-0.6076 -1.59229,-4.9371 0.12814,-5.5973 1.53523,-0.5891 3.62186,1.0773 3.62186,2.8925 0,1.631 -2.24055,3.2471 -3.75,2.7048 z m 251.445,-0.7303 c -2.1514,-2.1514 -1.0216,-5.7408 1.6854,-5.3546 2.5432,0.363 3.349,3.9523 1.2738,5.6745 -1.1355,0.9424 -1.7649,0.8744 -2.9592,-0.3199 z m 26.3165,0.4479 c -11.5025,-0.4264 -13.5351,-0.7434 -13.8046,-2.1529 -0.2358,-1.233 0.6503,-1.7933 3.4885,-2.2059 6.8867,-1.0011 149.7255,-0.4239 151.0417,0.6103 0.748,0.5877 0.9127,1.5519 0.4166,2.4383 -0.7059,1.2614 -9.6792,1.4903 -64.2371,1.6382 -34.8791,0.095 -69.4864,-0.053 -76.9051,-0.328 z m 149.3008,-1.25 c -1.7021,-2.2815 -4.6346,-9.7611 -4.0544,-10.3412 0.3139,-0.314 1.4853,-0.081 2.6031,0.5168 1.6153,0.8645 2.2213,0.7497 2.9539,-0.5594 1.5595,-2.7867 3.1851,-0.4937 3.1851,4.4928 0,5.9176 -2.4091,8.9452 -4.6877,5.891 z m -423.3123,-7.0219 c 0,-0.7801 0.9,-2.2328 2,-3.2283 1.1,-0.9955 2,-2.2201 2,-2.7213 0,-1.1234 13.99279,-20.15 15.15881,-20.612 0.46265,-0.1834 0.84119,-0.9334 0.84119,-1.6667 0,-0.7333 0.37682,-1.4833 0.83737,-1.6667 0.46055,-0.1833 2.95217,-3.4833 5.53693,-7.3333 5.4355,-8.0962 8.45876,-12.3243 18.39255,-25.7222 3.96464,-5.3473 9.15374,-12.5473 11.53133,-16 2.37759,-3.4528 6.35846,-9.2028 8.8464,-12.7778 2.48793,-3.575 7.17157,-10.325 10.40808,-15 3.23652,-4.675 6.26894,-8.95 6.7387,-9.5 2.58191,-3.0229 26.72745,-38.0918 26.82706,-38.9636 0.0651,-0.57 0.054,-1.4073 -0.0248,-1.8607 -0.0788,-0.4534 0.2884,-0.5576 0.8159,-0.2316 0.80255,0.496 5.66433,-5.7272 9.59046,-12.2761 0.55,-0.9174 1.225,-1.893 1.5,-2.168 1.1985,-1.1985 5,-6.9817 5,-7.6065 3.52821,-7.3243 14.75645,-16.5011 17,-23.8893 0,-0.2687 2.47974,-3.9796 5.51054,-8.2464 6.11417,-8.6076 12.45317,-17.7449 13.99548,-20.1736 3.45771,-5.445 12.61981,-18.6436 17.11733,-24.6587 5.63996,-7.5431 9.79453,-13.4063 21.9131,-30.9255 4.18497,-6.05 10.27637,-14.8236 13.53627,-19.4969 3.26,-4.6733 5.9273,-8.7835 5.9273,-9.1338 0,-0.3504 -2.4932,-1.6489 -5.5404,-2.8857 -6.3945,-2.5953 -14.08517,-9.8766 -17.18168,-16.2671 -1.84014,-3.7976 -1.95035,-5.0609 -1.10943,-12.7165 0.51351,-4.675 1.85181,-12.1 2.974,-16.5 2.28491,-8.9589 2.23131,-8.5928 2.01501,-13.7714 -0.33334,-7.9806 -8.19193,-7.0406 -16.08249,1.9235 -2.24127,2.5462 -4.0778,5.1286 -4.08119,5.7387 -0.003,0.6101 -0.74214,2.4592 -1.64167,4.1092 -0.89953,1.65 -2.72303,5.025 -4.05223,7.5 -1.3292,2.475 -3.40775,6.3 -4.619,8.5 -1.21124,2.2 -3.97966,7.2625 -6.15204,11.25 -2.17237,3.9875 -4.26932,7.25 -4.65988,7.25 -0.39056,0 -1.02938,1.4625 -1.41961,3.25 -0.39022,1.7875 -1.93769,5.05 -3.43882,7.25 -1.50114,2.2 -3.4706,5.4459 -4.37659,7.2131 -0.90598,1.7673 -3.89426,6.2192 -6.64062,9.8932 -2.74636,3.674 -5.01167,7.178 -5.03402,7.7868 -0.0223,0.6088 -1.37235,2.6649 -3,4.5691 -1.62765,1.9042 -2.95936,3.8687 -2.95936,4.3655 0,0.4969 -2.1375,4.0454 -4.75,7.8857 -2.6125,3.8403 -5.2,7.7259 -5.75,8.6345 -0.55,0.9087 -2.9125,3.7703 -5.25,6.3593 -2.3375,2.5889 -4.25,5.1764 -4.25,5.75 0,1.3802 -4.69425,1.3465 -5.55111,-0.04 -0.72514,-1.1733 3.14794,-7.0027 10.84159,-16.3176 2.68034,-3.2452 5.29316,-6.8452 5.80628,-8 1.08404,-2.4398 3.0345,-5.3902 7.90324,-11.9549 1.925,-2.5956 4.1838,-5.94 5.01956,-7.432 0.83576,-1.4921 3.74098,-6.0878 6.45605,-10.2128 2.71507,-4.125 7.13437,-11.775 9.82066,-17 2.6863,-5.225 5.25261,-9.95 5.70292,-10.5 0.45031,-0.55 3.56494,-6.4 6.92138,-13 3.35645,-6.6 7.43768,-14.475 9.06941,-17.5 1.63173,-3.025 2.97651,-5.9917 2.9884,-6.5927 0.0119,-0.601 2.41406,-3.6026 5.33815,-6.6703 5.73922,-6.021 9.62262,-7.5338 16.18098,-6.3034 2.49671,0.4683 3.93111,1.4945 5.01271,3.5862 2.0933,4.0479 3.0816,14.4896 1.6348,17.2717 -2.6086,5.0161 -5.89046,25.6101 -4.7823,30.0098 1.0591,4.2048 10.783,13.5001 16.3657,15.6444 2.8756,1.1044 5.8006,1.7836 6.5,1.5092 1.2027,-0.4718 3.7492,-3.8752 8.2716,-11.055 5.0975,-8.0928 8.9034,-13.3999 9.6094,-13.3999 3.1804,0 -0.2025,6.9611 -9.1727,18.8751 -2.6919,3.5753 -4.6991,6.6958 -4.4605,6.9344 1.0314,1.0315 15.6583,-1.0869 17.0391,-2.4677 1.0306,-1.0306 1.4847,-3.6293 1.4847,-8.4966 0,-5.1629 0.3296,-6.903 1.25,-6.5992 0.774,0.2556 1.3634,2.7626 1.5477,6.5834 0.3653,7.5707 1.0504,7.7196 11.1427,2.4206 9.6442,-5.0637 15.281,-9.7572 18.9737,-15.7986 3.8877,-6.3603 3.9567,-7.8001 0.3359,-7.0108 -3.6686,0.7998 -9.09,1.2951 -18.75,1.7132 -7.4487,0.3223 -8,0.2084 -8,-1.6538 0,-1.8579 1.0564,-2.0831 14.8691,-3.1691 8.178,-0.643 15.2824,-1.5824 15.7877,-2.0877 1.4597,-1.4597 -0.1865,-8.8979 -2.5247,-11.4077 -1.1727,-1.2587 -1.9071,-2.5241 -1.6321,-2.812 0.275,-0.2879 -1.75,-1.6708 -4.5,-3.0731 -8.3112,-4.2381 -10.1318,-5.8047 -11.4749,-9.8744 -1.5439,-4.678 -0.8727,-7.9152 2.463,-11.8795 4.2138,-5.0078 13.438,-8.2556 28.9572,-10.1957 4.4301,-0.5539 8.9547,-1.2031 10.0547,-1.4427 12.7708,-2.7821 13.6866,-2.8741 14.5787,-1.465 2.5993,4.1059 0.6416,4.9687 -20.0787,8.8484 -2.475,0.4634 -6.5415,1.1158 -9.0366,1.4497 -6.5756,0.88 -16.1057,3.4905 -17.8744,4.8963 -4.3683,3.4719 -5.089,4.2877 -5.089,5.7604 0,2.4079 4.2231,5.8988 8.597,7.1065 6.9196,1.9106 10.2413,6.7685 13.4433,19.6606 l 1.0718,4.3149 5.1939,-0.5361 c 9.5535,-0.9861 21.1871,-1.9472 21.8401,-1.8044 0.3554,0.078 5.9804,-0.4633 12.5,-1.2023 6.5197,-0.7391 12.5289,-1.3468 13.3539,-1.3506 0.825,0 3.525,-0.2747 6,-0.6021 2.475,-0.3274 10.8,-1.0783 18.5,-1.6688 7.7,-0.5905 16.7,-1.466 20,-1.9456 3.3,-0.4795 9.15,-1.1388 13,-1.4651 3.85,-0.3263 9.475,-0.8158 12.5,-1.0878 3.025,-0.272 10.675,-0.9435 17,-1.4924 6.325,-0.5488 16.225,-1.4314 22,-1.9613 5.775,-0.5298 13.2,-1.1777 16.5,-1.4397 3.3,-0.2619 8.025,-0.7144 10.5,-1.0054 4.9626,-0.5836 23.0458,-2.1536 35.5,-3.0822 4.4,-0.3281 8.675,-0.7832 9.5,-1.0115 1.4465,-0.4001 5.9067,-0.8061 44,-4.005 9.625,-0.8083 18.85,-1.6484 20.5,-1.8669 1.65,-0.2186 7.275,-0.7061 12.5,-1.0835 5.225,-0.3774 11.075,-0.8564 13,-1.0645 1.925,-0.2082 7.1,-0.6226 11.5,-0.9209 4.4,-0.2984 9.125,-0.7527 10.5,-1.0097 1.375,-0.257 7.9,-0.9413 14.5,-1.5207 6.6,-0.5794 14.25,-1.2594 17,-1.511 20.1408,-1.8432 39.1579,-3.5091 45.5,-3.9858 4.125,-0.3101 9.075,-0.8182 11,-1.1291 1.925,-0.3109 5.975,-0.6951 9,-0.8538 6.4941,-0.3408 25.6238,-2.1317 38.9853,-3.6498 5.2169,-0.5928 12.4169,-1.2292 16,-1.4143 6.6001,-0.341 11.4909,-0.7504 29.5147,-2.4709 10.8715,-1.0378 59.68359,-4.9887 61.63329,-4.9887 0.66,0 0.944,-0.256 0.6311,-0.5689 -0.555,-0.555 -111.15119,-1.1855 -238.83559,-1.3614 -53.3238,-0.073 -63.882,-0.3172 -65.5,-1.5114 -1.5774,-1.1643 -1.6938,-1.6618 -0.6389,-2.7309 1.0233,-1.037 8.8772,-1.2631 38,-1.0938 158.7701,0.9227 291.21009,1.0629 291.21009,0.3082 0,-0.4896 -2.1375,-1.9367 -4.75,-3.216 -3.2618,-1.5971 -4.8501,-3.0307 -5.0696,-4.5758 -0.4335,-3.0524 1.1554,-2.8159 8.3196,1.238 11.6805,6.6096 13.0411,7.237 17,7.8397 2.2,0.3349 4.6647,0.1959 5.4772,-0.3088 0.9996,-0.621 2.0503,-0.399 3.25,0.6867 3.8765,3.5082 0.9532,7.1307 -4.6245,5.7308 -3.6207,-0.9087 -12.1548,1.3514 -17.9052,4.742 -5.8799,3.4669 -8.9768,3.9873 -9.4759,1.5923 -0.2552,-1.2249 0.9726,-2.3769 4.2091,-3.9493 2.5131,-1.221 4.5693,-2.5803 4.5693,-3.0207 0,-0.4404 -3.55,-0.8007 -7.8889,-0.8007 -6.8995,0 -7.8715,0.2195 -7.75,1.75 0.1146,1.4436 -0.9992,1.8604 -6.3611,2.3807 -3.575,0.3468 -14.15,1.3525 -23.5,2.2347 -9.35,0.8823 -18.8,1.8017 -21,2.0431 -2.19999,0.2413 -7.14999,0.7116 -10.99999,1.045 -3.85,0.3335 -10.6,1.0264 -15,1.5398 -4.4,0.5135 -11.375,1.1621 -15.5,1.4413 -6.3203,0.4277 -26.2928,2.1421 -60.5,5.1932 -3.85,0.3434 -7.5317,1.0472 -8.1816,1.564 -2.2226,1.7673 -6.1814,22.07 -7.2784,37.3271 -0.5925,8.2396 -1.2946,16.1061 -1.5603,17.4811 -0.2657,1.375 -0.7122,8.7771 -0.9922,16.4491 -0.5041,13.8081 0.2589,25.7402 3.0086,47.0509 0.7806,6.05 1.907,15.275 2.5031,20.5 2.1631,18.9607 9.3726,42.3767 15.5345,50.4553 1.3565,1.7784 2.4693,3.866 2.4729,4.6391 0,0.7731 0.9266,2.7556 2.051,4.4056 1.1244,1.65 3.1019,5.0347 4.3945,7.5216 2.058,3.9597 8.208,10.9831 12.8828,14.7127 2.8425,2.2678 12.192,2.6804 19.4428,0.858 13.1722,-3.3108 14.7732,-3.8426 18.9909,-6.3085 5.4326,-3.1762 15.2508,-13.377 20.1872,-20.9739 4.539,-6.9854 6.1482,-8.4817 7.9346,-7.3776 1.7917,1.1073 0.5928,6.3099 -2.268,9.8417 -1.2145,1.4993 -2.9922,3.9719 -3.9505,5.4946 -2.6094,4.1462 -14.5511,16.5351 -17.549,18.2061 -1.4426,0.804 -5.0156,2.648 -7.94,4.0976 -3.8189,1.8931 -5.1524,3.0648 -4.7327,4.1585 1.3506,3.5196 -1.1887,4.2167 -15.3006,4.2006 -7.5073,-0.01 -23.0996,0.1674 -34.6496,0.391 -11.55,0.2235 -24.2625,0.1775 -28.25,-0.1023 -6.2126,-0.436 -7.25,-0.7743 -7.25,-2.3644 0,-1.531 0.8313,-1.8759 4.75,-1.971 2.6125,-0.063 5.2,-0.22 5.75,-0.3477 0.55,-0.1278 10.7875,-0.3009 22.75,-0.3847 11.9625,-0.084 21.75,-0.5053 21.75,-0.9367 0,-0.4314 -1.4463,-1.6387 -3.214,-2.6829 -4.5069,-2.6623 -8.786,-6.6274 -8.786,-8.1413 0,-0.7029 -0.8148,-1.866 -1.8107,-2.5847 -2.2739,-1.6409 -5.6682,-7.416 -12.2291,-20.8067 -9.0723,-18.5161 -9.7971,-20.3366 -11.9443,-30 -3.6347,-16.3581 -3.9615,-18.1929 -5.488,-30.8143 -0.8191,-6.7728 -1.7251,-12.6957 -2.0133,-13.162 -0.2881,-0.4663 -0.7691,-4.8249 -1.0688,-9.6857 -0.2997,-4.8609 -0.9556,-11.763 -1.4575,-15.338 -1.4716,-10.4821 1.7117,-63.7249 4.5738,-76.5 0.8626,-3.85 1.8247,-8.6985 2.138,-10.7744 0.3134,-2.0759 0.9591,-4.0149 1.4348,-4.309 0.4758,-0.294 0.8651,-0.9853 0.8651,-1.5362 0,-1.0283 -7.3973,-0.6258 -22,1.1969 -4.125,0.5149 -15.825,1.6035 -26,2.4191 -28.9997,2.3246 -41.6066,3.4196 -69.5,6.0366 -8.8,0.8256 -18.475,1.732 -21.5,2.0143 -3.025,0.2823 -6.85,0.7167 -8.5,0.9653 -1.65,0.2487 -7.275,0.6963 -12.5,0.9946 -5.225,0.2983 -11.3,0.8407 -13.5,1.2054 -2.2,0.3646 -4.3823,0.5635 -4.8496,0.442 -0.7981,-0.2076 -4.7617,0.1487 -32.1504,2.8902 -6.05,0.6056 -15.725,1.5145 -21.5,2.0198 -5.775,0.5053 -12.3,1.1209 -14.5,1.3679 -2.2,0.2471 -7.375,0.7149 -11.5,1.0396 -17.6088,1.386 -21.7159,1.7607 -45.5,4.1504 -13.75,1.3816 -29.95,2.9278 -36,3.4361 -6.05,0.5083 -15.275,1.3603 -20.5,1.8934 -5.225,0.533 -12.65,1.217 -16.5,1.52 -3.85,0.303 -10.825,0.992 -15.5,1.5311 -10.7805,1.2431 -17.009,1.7907 -29.5,2.5939 -5.5,0.3536 -10.7239,1.0208 -11.6087,1.4826 -0.8848,0.4617 -2.1923,2.924 -2.9056,5.4716 -0.7133,2.5477 -2.7758,6.4021 -4.5832,8.5655 -6.2079,7.4304 -18.379,15.9809 -26.8185,18.8407 -4.7795,1.6196 -5.1139,1.9569 -5.584,5.6327 -0.566,4.4262 -2.1115,5.1498 -3.0114,1.4099 -0.5083,-2.1123 -1.1356,-2.4744 -4.0451,-2.3347 -1.8939,0.091 -7.0009,0.2746 -11.3489,0.4082 -7.4227,0.2281 -8.0774,0.4317 -10.7207,3.3347 -1.5484,1.7005 -2.8285,3.4993 -2.8446,3.9974 -0.016,0.4981 -1.0846,2.2981 -2.3744,4 -1.2898,1.7019 -8.16,11.4194 -15.26706,21.5944 -17.13923,24.5378 -18.10606,25.9159 -23.68362,33.7575 -2.63766,3.7084 -6.4902,9.2175 -8.56119,12.2425 -12.54027,18.317 -15.65167,22.7272 -17.43443,24.7125 -1.09275,1.2169 -2.48672,3.0762 -3.09772,4.1317 -0.61099,1.0555 -3.1359,4.7334 -5.6109,8.173 -2.475,3.4396 -5.175,7.263 -6,8.4964 -4.20162,6.2815 -15.81831,23.0313 -21.49039,30.9864 -3.52941,4.95 -7.18167,10.35 -8.11614,12 -0.93447,1.65 -6.91778,10.3314 -13.29625,19.2921 -6.37847,8.9606 -12.49722,17.7525 -13.59722,19.5375 -1.1,1.7851 -3.575,5.3525 -5.5,7.9276 -1.925,2.5751 -4.85,6.7562 -6.5,9.2911 -6.65152,10.2191 -8.23934,12.5321 -14,20.3941 -13.04084,17.7978 -29.2671,40.8532 -32.06577,45.5613 -1.13617,1.9114 -3.04867,4.5214 -4.25,5.8002 -1.20133,1.2787 -2.21636,2.746 -2.25563,3.2606 -0.0393,0.5145 -2.86487,4.5319 -6.27911,8.9274 -5.88052,7.5707 -9.64949,10.3971 -9.64949,7.2364 z m -2.97876,-4.6943 c -1.28916,-0.8152 -1.47102,-13.4107 -1.41843,-98.2347 0.0332,-53.5148 0.41489,-131.7673 0.84823,-173.8946 0.43335,-42.1272 0.86428,-88.7042 0.95763,-103.5044 0.0933,-14.8002 0.51614,-27.4699 0.93954,-28.155 2.69536,-4.3612 2.92677,-0.1405 2.33035,42.5044 -0.33653,24.0625 -0.85701,61.3 -1.15662,82.75 -0.29961,21.45 -0.77117,85.4625 -1.04791,142.25 -0.54319,111.4646 -0.3523,115.7306 4.06078,90.75 0.97163,-5.5 2.1011,-10.675 2.50992,-11.5 0.40883,-0.825 1.18845,-3.75 1.7325,-6.5 1.01385,-5.1247 7.64775,-25.62 9.30138,-28.7364 0.50676,-0.9551 0.92139,-2.3478 0.92139,-3.095 0,-2.0518 3.71624,-4.9915 5.46275,-4.3213 1.92589,0.7391 1.99954,4.0241 0.12511,5.5798 -0.77668,0.6446 -1.93398,3.5122 -2.57178,6.3724 -0.6378,2.8603 -1.53193,6.1005 -1.98694,7.2005 -5.94136,14.3633 -13.15709,47.5561 -15.53261,71.451 -0.62775,6.3144 -1.85421,10.0643 -3.28171,10.0337 -0.39315,-0.01 -1.38026,-0.4361 -2.19358,-0.9504 z m 251.88326,-42.7007 c -0.9472,-8.2644 -1.2387,-258.9835 -0.3029,-260.4977 0.3433,-0.5554 0.9819,-0.6332 1.4192,-0.1727 0.4374,0.4604 0.9491,59.2989 1.1372,130.7522 0.2719,103.2864 0.086,130.0008 -0.908,130.3333 -0.6875,0.2301 -1.293,0.043 -1.3455,-0.4151 z m -44.1122,-8.0833 c -6.24789,-4.5888 -10.86184,-9.4031 -19.2923,-20.13 -2.2,-2.7992 -4.98409,-6.3026 -6.18688,-7.7852 -1.20278,-1.4826 -2.47534,-3.852 -2.82791,-5.2652 -0.35257,-1.4133 -1.27736,-3.276 -2.05508,-4.1395 -1.21372,-1.3474 -1.21547,-1.8414 -0.0124,-3.4867 1.35759,-1.8566 1.46494,-1.8596 3.41552,-0.094 1.10763,1.0024 3.16948,4.2632 4.58188,7.2462 3.65826,7.7264 15.42456,20.9625 24.40647,27.4552 5.8546,4.2322 7.7536,6.1917 7.9948,8.25 0.4794,4.0895 -2.4918,3.4817 -10.0241,-2.0505 z m 694.20769,-1.2997 c 0,-3.5549 2.1297,-8.035 6.1456,-12.9281 1.5699,-1.9129 2.8544,-4.0248 2.8544,-4.6933 0,-0.6685 0.8863,-1.8363 1.9696,-2.595 1.0832,-0.7588 2.7707,-3.166 3.75,-5.3495 1.7551,-3.9134 2.4959,-4.9863 10.277,-14.8844 11.4003,-14.5019 24.0034,-31.5662 24.0034,-32.4999 0,-0.5846 0.675,-1.3219 1.5,-1.6385 0.825,-0.3166 1.5,-0.9838 1.5,-1.4827 0,-0.4989 2.025,-3.3933 4.5,-6.4319 2.475,-3.0387 4.5,-5.9788 4.5,-6.5337 0,-1.7118 12.494,-11.9133 14.5906,-11.9133 1.6361,0 18.1556,-13.6995 27.0618,-22.4422 11.0453,-10.8425 19.3307,-23.2235 20.946,-31.2996 0.5867,-2.9335 0.2824,-3.3025 -5.9902,-7.264 -3.6345,-2.2954 -6.6082,-4.6111 -6.6082,-5.146 0,-1.1397 -18.89,-19.7631 -24,-23.6612 -3.4676,-2.6452 -19.0378,-15.9854 -20,-17.1355 -0.275,-0.3288 -1.8008,-1.4873 -3.3906,-2.5746 -1.5898,-1.0873 -4.1428,-2.8769 -5.6735,-3.9769 -7.0621,-5.0753 -28.7974,-19.455 -31.9401,-21.1311 -1.9273,-1.0279 -4.9218,-2.8814 -6.6544,-4.1189 -1.7326,-1.2375 -3.6432,-2.25 -4.2458,-2.25 -0.6026,0 -1.0956,-0.4315 -1.0956,-0.9589 0,-0.5274 -2.4075,-2.6649 -5.3501,-4.75 -13.321,-9.4394 -18.121,-13.1766 -23.8142,-18.5411 -3.3562,-3.1625 -6.4548,-5.75 -6.8856,-5.75 -0.4309,0 -0.9334,-0.3461 -1.1168,-0.7692 -0.4648,-1.0726 -10.3104,-9.2308 -11.1401,-9.2308 -1.7726,0 -5.6932,-4.622 -5.6932,-6.7117 0,-3.4587 2.6854,-3.9492 5.8097,-1.0613 1.4797,1.3677 5.3903,4.4283 8.6903,6.8013 3.3,2.3729 8.4106,6.5999 11.357,9.3931 2.9463,2.7932 5.8713,5.5533 6.5,6.1336 1.0642,0.9822 9.5938,7.0841 16.9555,12.1296 1.7531,1.2015 4.0709,3.0015 5.1507,4 2.464,2.2784 10.6332,7.7547 12.8198,8.5938 1.8649,0.7156 12.609,7.5317 23.717,15.0462 6.4922,4.3919 16.3752,12.0729 25,19.4299 1.375,1.1729 4.975,4.2128 8,6.7552 12.5085,10.5133 17.8842,15.4527 26.3806,24.2403 4.919,5.0875 9.6031,9.25 10.4093,9.25 2.2369,0 0.7701,-7.2279 -3.0439,-15 -3.6809,-7.5007 -3.2109,-6.7959 -9.4493,-14.1702 -2.6382,-3.1187 -7.9467,-9.9999 -11.7967,-15.2915 -3.85,-5.2917 -9.7,-13.0114 -13,-17.1549 -3.3,-4.1435 -6.5382,-8.4935 -7.196,-9.6667 -0.6578,-1.1731 -3.8656,-5.332 -7.1285,-9.2419 -5.7821,-6.9287 -16.1755,-22.5668 -16.1755,-24.3379 0,-0.4868 -1.1268,-2.901 -2.5039,-5.3649 -1.3771,-2.464 -3.1349,-6.4582 -3.9061,-8.876 -0.7713,-2.4178 -2.3222,-6.9085 -3.4464,-9.9794 -1.1242,-3.0709 -2.2433,-6.6709 -2.4869,-8 -0.2435,-1.3291 -1.119,-4.6666 -1.9456,-7.4166 -0.8266,-2.75 -2.0652,-8.15 -2.7524,-12 -0.6873,-3.85 -2.2494,-10.375 -3.4714,-14.5 -1.2221,-4.125 -2.0218,-8.0277 -1.7773,-8.6727 0.7201,-1.8992 3.5389,-2.507 4.9735,-1.0723 1.6168,1.6167 4.4533,11.9582 6.7873,24.745 1.7347,9.5034 4.2028,18.6184 5.5508,20.5 0.3941,0.55 1.2843,3.475 1.9784,6.5 0.6941,3.025 1.5979,5.95 2.0086,6.5 0.4106,0.55 1.0922,2.125 1.5145,3.5 2.3609,7.6859 10.3257,21.8366 17.0758,30.3378 2.2544,2.8392 9.7017,12.6095 16.5495,21.7117 6.8479,9.1023 13.4025,17.5014 14.5659,18.6648 1.1633,1.1633 3.7297,4.516 5.7031,7.4504 3.0959,4.6037 8.0273,11.2059 11.6665,15.6196 2.1459,2.6024 6.9161,12.4775 6.9161,14.3172 0,1.0442 0.4047,1.8985 0.8993,1.8985 0.8418,0 1.31,2.451 2.725,14.2633 0.345,2.8803 -0.089,7.7262 -1.0968,12.2578 -1.3934,6.263 -2.628,8.79 -7.5142,15.3799 -10.8258,14.6009 -32.2456,34.2661 -46.1007,42.3246 -2.5231,1.4675 -6.5153,5.167 -8.8716,8.2213 -2.3563,3.0542 -4.567,5.5536 -4.9126,5.5541 -0.3456,6e-4 -1.9456,2.3631 -3.5555,5.25 -1.6099,2.887 -5.3223,8.174 -8.2497,11.749 -6.8015,8.306 -6.8515,8.3719 -19.5716,25.816 -4.5384,6.2238 -9.0806,12.7488 -10.0938,14.5 -1.0132,1.7512 -2.9257,4.3336 -4.25,5.7387 -1.3243,1.4051 -2.4078,3.0413 -2.4078,3.6361 0,1.2715 -7.9322,13.4721 -9.4557,14.5439 -2.2098,1.5546 -3.5443,0.6944 -3.5443,-2.2844 z m -410.99999,-19.8913 c 0,-0.5824 0.45,-1.059 1,-1.059 0.55,0 1,0.1984 1,0.441 0,0.2425 -0.45,0.7191 -1,1.059 -0.55,0.3399 -1,0.1415 -1,-0.441 z m -229.3333,-63.7257 c -1.5824,-1.5823 -0.5096,-4.4425 2.0281,-5.4074 6.999,-2.661 14.9879,-6.8648 16.7102,-8.7931 1.0477,-1.173 2.3099,-2.1328 2.8049,-2.1328 0.4949,0 3.5505,-1.8 6.7901,-4 3.2396,-2.2 6.3031,-4 6.8076,-4 0.5046,0 2.6668,-1.3948 4.8049,-3.0995 2.1381,-1.7047 5.4625,-3.9782 7.3875,-5.0523 7.1008,-3.9622 39.5668,-25.8412 42.7082,-28.7815 1.2145,-1.1367 2.4583,-2.0667 2.7641,-2.0667 0.5491,0 7.5421,-5.5511 16.7777,-13.3183 2.6125,-2.1971 4.75,-4.609 4.75,-5.3597 0,-0.7507 1.125,-1.8775 2.5,-2.504 1.375,-0.6264 2.5065,-1.6293 2.5144,-2.2285 0.01,-0.5992 3.3708,-5.0418 7.473,-9.8724 4.1022,-4.8306 9.5352,-11.6931 12.0733,-15.25 2.5382,-3.5569 4.9703,-6.4671 5.4046,-6.4671 1.6733,0 3.2304,3.077 2.6503,5.237 -0.6193,2.306 -14.8615,20.611 -18.8954,24.2854 -1.2211,1.1124 -3.5184,3.7494 -5.1051,5.8601 -4.9062,6.5267 -15.6947,16.6275 -22.6623,21.2177 -3.6573,2.4095 -8.6524,6.1437 -11.1001,8.2983 -2.4478,2.1546 -5.8634,4.7463 -7.5903,5.7595 -3.1404,1.8423 -20.8757,13.6176 -22.7624,15.1129 -0.55,0.4359 -2.8,1.8677 -5,3.1817 -2.2,1.3141 -7.6501,4.7873 -12.1114,7.7183 -4.4613,2.931 -8.417,5.3291 -8.7905,5.3291 -0.3735,0 -1.8984,0.8441 -3.3886,1.8758 -9.8372,6.8103 -17.5031,11.2157 -22.6748,13.0307 -6.9553,2.4409 -6.0434,2.2515 -6.868,1.4268 z m -13.2018,-209.3901 c -1.2117,-1.9606 0.4763,-5.9432 2.519,-5.9432 2.6374,0 4.5696,3.6282 2.963,5.5639 -1.3947,1.6806 -4.5432,1.8984 -5.482,0.3793 z m 150.1438,-63.6649 c -0.1203,-0.1219 -68.5939,-0.4581 -152.1637,-0.7472 -179.03524,-0.6192 -233.51326,-1.1994 -234.81434,-2.5004 -0.59453,-0.5946 -0.42449,-1.5742 0.45774,-2.6372 1.28213,-1.5449 3.82778,-1.633 29.40762,-1.0184 15.40219,0.3701 108.77898,0.9275 207.50398,1.2387 98.725,0.3112 179.8973,0.9452 180.3828,1.4088 0.4855,0.4636 0.6209,1.5254 0.3008,2.3595 -0.4773,1.2439 -3.3042,1.5707 -15.7191,1.8173 -8.3254,0.1653 -15.2355,0.2009 -15.3558,0.079 z m -398.0177,-3.9017 c -0.97838,-2.5497 1.93511,-5.1653 4.17776,-3.7507 0.95218,0.6007 1.73124,1.943 1.73124,2.9831 0,2.5726 -4.96868,3.218 -5.909,0.7676 z m 935.65899,-2.0389 c -1.9197,-0.7746 -1.494,-3.3291 1.1275,-6.766 9.7265,-12.7521 17.5292,-37.30538 21.1952,-66.69609 2.0413,-16.36599 2.1969,-18.17902 2.8648,-33.37561 0.3142,-7.15 1.0067,-22.9 1.5388,-35 0.5322,-12.1 0.946,-35.72257 0.9196,-52.4946 -0.043,-27.64192 -0.4671,-35.98282 -2.4688,-48.6055999 -0.4923,-3.10447 -0.2976,-4.23552999 0.802,-4.65747999 2.7107,-1.04017 3.7445,0.84502999 5.3795,9.80944989 1.3025,7.14116 1.6583,16.52126 1.7618,46.44823 0.1203,34.81437 -0.9562,82.52087 -1.8966,84.04235 -0.2241,0.36264 -0.6658,6.23897 -0.9816,13.0585 -0.8917,19.25957 -5.8592,51.79462 -8.4584,55.39915 -0.3966,0.55 -1.5101,3.925 -2.4745,7.5 -2.2306,8.2688 -8.6395,22.0816 -12.8258,27.6427 -3.1829,4.2283 -4.0033,4.6958 -6.4835,3.695 z m -188.19449,-15.7708 c -1.4257,-1.7179 -0.4446,-2.7479 9.5896,-10.0669 3.7702,-2.75 7.4804,-5.8409 8.2448,-6.8688 0.7644,-1.0278 2.6366,-3.27779 4.1603,-4.99997 5.4028,-6.1064 8.6289,-10.21576 13.4491,-17.13123 2.6834,-3.85 6.6124,-9.475 8.731,-12.5 7.6279,-10.89139 11.4333,-16.4247 14.1681,-20.60097 1.0441,-1.59446 3.1816,-4.77259 4.75,-7.06251 4.7917,-6.99607 5.9639,-6.55924 -17.6484,-6.57669 -18.9853,-0.014 -26.6609,0.23172 -42.5,1.36073 -12.0359,0.85792 -37.1932,3.51008 -42.5,4.48048 -1.1,0.20115 -5.375,0.79888 -9.5,1.32829 -16.1647,2.07462 -21.6458,3.05214 -27.9491,4.98455 -16.838,5.16207 -26.8056,8.08612 -27.5641,8.08612 -0.4561,0 -1.5398,0.59716 -2.4081,1.32702 -0.8683,0.72987 -4.5037,2.16211 -8.0787,3.18277 -3.575,1.02066 -9.3238,3.1235 -12.775,4.67298 -3.4513,1.54948 -7.0738,2.81723 -8.05,2.81723 -0.9763,0 -2.2025,0.39183 -2.725,0.87073 -0.5225,0.4789 -6.35,2.6835 -12.95,4.89912 -6.6,2.21561 -14.475,5.02988 -17.5,6.25393 -3.025,1.22405 -6.85,2.59098 -8.5,3.03763 -2.3919,0.64747 -25.8664,8.75108 -32.5,11.21931 -2.5257,0.93976 -18.374,5.73792 -20.5,6.20651 -1.1,0.24244 -5.15,1.29407 -9,2.33695 -28.2233,7.64512 -27.5856,7.52072 -29.3517,5.72552 -1.5333,-1.5586 -1.4643,-1.8354 0.9877,-3.9666 1.4498,-1.2601 4.5604,-2.59874 6.9124,-2.97485 3.7951,-0.60685 9.53,-2.22084 24.9516,-7.02211 2.475,-0.77055 6.075,-1.71962 8,-2.10904 1.925,-0.38943 3.95,-1.06782 4.5,-1.50754 0.55,-0.43972 1.225,-0.78249 1.5,-0.76173 1.8791,0.14191 12.0754,-2.52075 12.5416,-3.27511 0.317,-0.513 1.5849,-0.93272 2.8174,-0.93272 1.2326,0 2.6685,-0.40818 3.191,-0.90707 0.5225,-0.49889 2.525,-1.36258 4.45,-1.91931 1.925,-0.55673 5.075,-1.56585 7,-2.24247 1.925,-0.67663 4.4,-1.54565 5.5,-1.93115 1.1,-0.3855 3.575,-1.25772 5.5,-1.93827 1.925,-0.68055 5.0175,-1.61287 6.8723,-2.07181 1.8547,-0.45895 3.8572,-1.31943 4.45,-1.91218 0.5927,-0.59276 2.0227,-1.07774 3.1777,-1.07774 1.155,0 2.5275,-0.38309 3.05,-0.85131 0.5225,-0.46822 3.875,-1.6416 7.45,-2.60752 3.575,-0.96592 6.95,-2.11136 7.5,-2.54542 0.55,-0.43406 3.025,-1.38625 5.5,-2.11599 2.475,-0.72973 6.4363,-2.3512 8.8029,-3.60327 2.3666,-1.25207 5.0891,-2.27649 6.05,-2.27649 0.9609,0 2.1746,-0.39469 2.6971,-0.87708 0.5225,-0.48239 3.425,-1.66131 6.45,-2.61981 3.025,-0.95851 6.85,-2.33918 8.5,-3.06816 5.1651,-2.28197 29.1415,-9.47379 32,-9.59852 0.55,-0.024 2.125,-0.62212 3.5,-1.32916 4.0034,-2.05859 20.9463,-5.01341 43,-7.49913 5.225,-0.58892 11.5538,-1.31238 14.0639,-1.60769 22.0066,-2.58903 38.6287,-3.47314 62.3581,-3.31679 13.7929,0.0909 25.8028,0.10924 26.6888,0.0408 0.8859,-0.0684 3.4278,-2.93695 5.6487,-6.37445 4.1206,-6.37784 5.6381,-9.07821 14.4697,-25.75 2.7679,-5.225 5.59539,-10.175 6.28339,-11 0.688,-0.825 1.5881,-2.625 2.0003,-4 0.4122,-1.375 1.602,-3.71069 2.644,-5.19043 1.0419,-1.47973 2.7559,-5.97973 3.8087,-10 1.0529,-4.02026 5.2546,-15.47061 9.3372,-25.44521 4.0827,-9.9746 7.7391,-19.4246 8.1255,-21 0.3864,-1.5754 2.0581,-7.25186 3.7148,-12.61436 2.3933,-7.7466299 3.3934,-9.7499999 4.8672,-9.7499999 1.0202,0 2.1207,0.83747 2.4456,1.86104 0.6287,1.9807799 -3.9937,17.7877399 -8.0285,27.4548699 -1.3351,3.19876 -2.4274,6.51249 -2.4274,7.36385 0,0.85136 -0.8862,3.1842 -1.9694,5.18409 -1.9748,3.64621 -4.4691,10.34264 -10.5199,28.2433 -1.7861,5.28393 -4.7927,12.25893 -6.6813,15.5 -1.8886,3.24107 -5.8297,10.84285 -8.7579,16.89285 -2.92819,6.05 -6.11389,11.9 -7.07929,13 -1.4912,1.69902 -9.9922,16.1285 -9.9922,16.96055 0,0.15481 4.0747,0.60024 9.0549,0.98984 8.48619,0.66386 9.11569,0.86804 10.02149,3.25062 1.437,3.77945 -0.4175,5.4407 -5.46569,4.89611 -20.6298,-2.22556 -20.21,-2.31088 -23.7995,4.83598 -1.1234,2.2368 -3.3604,5.8669 -4.9711,8.0669 -3.1129,4.25187 -18.1125,26.7296 -23.262,34.8595 -7.6887,12.13846 -25.0115,30.01489 -33.004,34.05869 -5.9589,3.015 -5.9685,3.0164 -7.5186,1.1487 z"
     id="path2987"
     style="fill:#000000" />
  <text
     x="609.84332"
     y="263.41165"
     id="text2989"
     xml:space="preserve"
     style="font-size:30px;font-style:normal;font-variant:normal;font-weight:normal;font-stretch:normal;line-height:125%;letter-spacing:0px;word-spacing:0px;fill:#000000;fill-opacity:1;stroke:none;font-family:cmr10;-inkscape-font-specification:cmr10"><tspan
       x="609.84332"
       y="263.41165"
       id="tspan2991"
       style="font-size:44px">Ba-N</tspan></text>
  <text
     x="1111.9425"
     y="269.80167"
     id="text2993"
     xml:space="preserve"
     style="font-size:30px;font-style:normal;font-variant:normal;font-weight:normal;font-stretch:normal;line-height:125%;letter-spacing:0px;word-spacing:0px;fill:#000000;fill-opacity:1;stroke:none;font-family:cmr10;-inkscape-font-specification:cmr10"><tspan
       x="1111.9425"
       y="269.80167"
       id="tspan2995"
       style="font-size:44px">N</tspan></text>
  <text
     x="1064.5015"
     y="658.23608"
     id="text2997"
     xml:space="preserve"
     style="font-size:30px;font-style:normal;font-variant:normal;font-weight:normal;font-stretch:normal;line-height:125%;letter-spacing:0px;word-spacing:0px;fill:#000000;fill-opacity:1;stroke:none;font-family:cmr10;-inkscape-font-specification:cmr10"><tspan
       x="1064.5015"
       y="658.23608"
       id="tspan2999"
       style="font-size:36px">A</tspan></text>
  <text
     x="1136.3406"
     y="661.72156"
     id="text3001"
     xml:space="preserve"
     style="font-size:30px;font-style:normal;font-variant:normal;font-weight:normal;font-stretch:normal;line-height:125%;letter-spacing:0px;word-spacing:0px;fill:#000000;fill-opacity:1;stroke:none;font-family:cmr10;-inkscape-font-specification:cmr10"><tspan
       x="1136.3406"
       y="661.72156"
       id="tspan3003"
       style="font-size:44px">BaH</tspan></text>
  <text
     x="552.72052"
     y="655.91248"
     id="text3005"
     xml:space="preserve"
     style="font-size:30px;font-style:normal;font-variant:normal;font-weight:normal;font-stretch:normal;line-height:125%;letter-spacing:0px;word-spacing:0px;fill:#000000;fill-opacity:1;stroke:none;font-family:cmr10;-inkscape-font-specification:cmr10"><tspan
       x="552.72052"
       y="655.91248"
       id="tspan3007"
       style="font-size:36px">Ptm</tspan></text>
  <text
     x="399.41946"
     y="659.33093"
     id="text3009"
     xml:space="preserve"
     style="font-size:30px;font-style:normal;font-variant:normal;font-weight:normal;font-stretch:normal;line-height:125%;letter-spacing:0px;word-spacing:0px;fill:#000000;fill-opacity:1;stroke:none;font-family:cmr10;-inkscape-font-specification:cmr10"><tspan
       x="399.41946"
       y="659.33093"
       id="tspan3011"
       style="font-size:36px">S</tspan></text>
  <text
     x="105.61423"
     y="666.3689"
     id="text3013"
     xml:space="preserve"
     style="font-size:30px;font-style:normal;font-variant:normal;font-weight:normal;font-stretch:normal;line-height:125%;letter-spacing:0px;word-spacing:0px;fill:#000000;fill-opacity:1;stroke:none;font-family:cmr10;-inkscape-font-specification:cmr10"><tspan
       x="105.61423"
       y="666.3689"
       id="tspan3015"
       style="font-size:36px">Ba</tspan></text>
  <text
     x="1038.1975"
     y="1142.7621"
     id="text3017"
     xml:space="preserve"
     style="font-size:30px;font-style:normal;font-variant:normal;font-weight:normal;font-stretch:normal;line-height:125%;letter-spacing:0px;word-spacing:0px;fill:#000000;fill-opacity:1;stroke:none;font-family:cmr10;-inkscape-font-specification:cmr10"><tspan
       x="1038.1975"
       y="1142.7621"
       id="tspan3019"
       style="font-size:36px">B</tspan></text>
  <text
     x="1038.7454"
     y="1373.338"
     id="text3021"
     xml:space="preserve"
     style="font-size:30px;font-style:normal;font-variant:normal;font-weight:normal;font-stretch:normal;line-height:125%;letter-spacing:0px;word-spacing:0px;fill:#000000;fill-opacity:1;stroke:none;font-family:cmr10;-inkscape-font-specification:cmr10"><tspan
       x="1038.7454"
       y="1373.338"
       id="tspan3023"
       style="font-size:36px">Pog</tspan></text>
  <text
     x="769.00995"
     y="1312.819"
     id="text3025"
     xml:space="preserve"
     style="font-size:30px;font-style:normal;font-variant:normal;font-weight:normal;font-stretch:normal;line-height:125%;letter-spacing:0px;word-spacing:0px;fill:#000000;fill-opacity:1;stroke:none;font-family:cmr10;-inkscape-font-specification:cmr10"><tspan
       x="769.00995"
       y="1312.819"
       id="tspan3027">PM</tspan></text>
  <text
     x="1001.016"
     y="874.83374"
     transform="matrix(0.9265391,0.37619847,-0.37619847,0.9265391,0,0)"
     id="text3029"
     xml:space="preserve"
     style="font-size:30px;font-style:normal;font-variant:normal;font-weight:normal;font-stretch:normal;line-height:125%;letter-spacing:0px;word-spacing:0px;fill:#000000;fill-opacity:1;stroke:none;font-family:cmr10;-inkscape-font-specification:cmr10"><tspan
       x="1001.016"
       y="874.83374"
       id="tspan3031">Go-Pog' (l. e.)</tspan></text>
  <text
     x="1298.1974"
     y="790.58545"
     transform="matrix(0.92323724,0.38423039,-0.38423039,0.92323724,0,0)"
     id="text3033"
     xml:space="preserve"
     style="font-size:30px;font-style:normal;font-variant:normal;font-weight:normal;font-stretch:normal;line-height:125%;letter-spacing:0px;word-spacing:0px;fill:#000000;fill-opacity:1;stroke:none;font-family:cmr10;-inkscape-font-specification:cmr10"><tspan
       x="1298.1974"
       y="790.58545"
       id="tspan3035"
       style="font-size:24px">B-Pog'</tspan></text>
  <text
     x="227.89566"
     y="1361.2892"
     id="text3037"
     xml:space="preserve"
     style="font-size:30px;font-style:normal;font-variant:normal;font-weight:normal;font-stretch:normal;line-height:125%;letter-spacing:0px;word-spacing:0px;fill:#000000;fill-opacity:1;stroke:none;font-family:cmr10;-inkscape-font-specification:cmr10"><tspan
       x="227.89566"
       y="1361.2892"
       id="tspan3039">Ar</tspan></text>
  <text
     x="348.66055"
     y="1362.3842"
     id="text3041"
     xml:space="preserve"
     style="font-size:30px;font-style:normal;font-variant:normal;font-weight:normal;font-stretch:normal;line-height:125%;letter-spacing:0px;word-spacing:0px;fill:#000000;fill-opacity:1;stroke:none;font-family:cmr10;-inkscape-font-specification:cmr10"><tspan
       x="348.66055"
       y="1362.3842"
       id="tspan3043">Go</tspan></text>
  <text
     x="835.3847"
     y="-125.35885"
     transform="matrix(0.21183839,0.97730471,-0.97730471,0.21183839,0,0)"
     id="text3045"
     xml:space="preserve"
     style="font-size:30px;font-style:normal;font-variant:normal;font-weight:normal;font-stretch:normal;line-height:125%;letter-spacing:0px;word-spacing:0px;fill:#000000;fill-opacity:1;stroke:none;font-family:cmr10;-inkscape-font-specification:cmr10"><tspan
       x="835.3847"
       y="-125.35885"
       id="tspan3047"
       style="font-size:26px">Ar-Go (l. e.)</tspan></text>
  <text
     x="423.1459"
     y="1045.5479"
     id="text3049"
     xml:space="preserve"
     style="font-size:30px;font-style:normal;font-variant:normal;font-weight:normal;font-stretch:normal;line-height:125%;letter-spacing:0px;word-spacing:0px;fill:#000000;fill-opacity:1;stroke:none;font-family:cmr10;-inkscape-font-specification:cmr10"><tspan
       x="423.1459"
       y="1045.5479"
       id="tspan3051">Go</tspan></text>
  <text
     x="270.88907"
     y="1009.9482"
     id="text3053"
     xml:space="preserve"
     style="font-size:30px;font-style:normal;font-variant:normal;font-weight:normal;font-stretch:normal;line-height:125%;letter-spacing:0px;word-spacing:0px;fill:#000000;fill-opacity:1;stroke:none;font-family:cmr10;-inkscape-font-specification:cmr10"><tspan
       x="270.88907"
       y="1009.9482"
       id="tspan3055">RI</tspan></text>
</svg>
