<?xml version="1.0" encoding="UTF-8" standalone="no"?>
<!-- Created with Inkscape (http://www.inkscape.org/) -->

<svg
   xmlns:dc="http://purl.org/dc/elements/1.1/"
   xmlns:cc="http://creativecommons.org/ns#"
   xmlns:rdf="http://www.w3.org/1999/02/22-rdf-syntax-ns#"
   xmlns:svg="http://www.w3.org/2000/svg"
   xmlns="http://www.w3.org/2000/svg"
   version="1.1"
   width="1526.0916"
   height="1481.6368"
   id="svg2">
  <metadata
     id="metadata8">
    <rdf:RDF>
      <cc:Work
         rdf:about="">
        <dc:format>image/svg+xml</dc:format>
        <dc:type
           rdf:resource="http://purl.org/dc/dcmitype/StillImage" />
        <dc:title></dc:title>
      </cc:Work>
    </rdf:RDF>
  </metadata>
  <defs
     id="defs6" />
  <path
     d="m 1070.3317,1470.2177 c -1.8526,-0.7475 -1.5148,-4.0155 0.5,-4.8385 0.9625,-0.3931 11.425,-0.898 23.25,-1.1219 21.5769,-0.4086 53.2917,-3.2697 64.5,-5.8186 3.3,-0.7505 9.15,-1.9149 13,-2.5876 8.2446,-1.4406 20.8506,-5.4612 36.2777,-11.5707 8.6632,-3.4308 14.6955,-6.7473 20.1157,-11.0592 6.8976,-5.4871 19.8734,-19.1703 23.5571,-24.8412 3.1069,-4.783 8.5495,-17.1492 8.5495,-19.4255 0,-0.5963 1.125,-3.4163 2.5,-6.2666 1.375,-2.8502 2.5,-5.5697 2.5,-6.0434 0,-0.4736 0.9303,-2.7519 2.0674,-5.0628 1.1371,-2.3109 2.3159,-6.4757 2.6196,-9.255 0.3037,-2.7794 1.2012,-5.9294 1.9944,-7 1.4274,-1.9267 1.457,-1.9267 2.8804,-0.01 2.0125,2.7163 1.77,6.0398 -0.9893,13.5589 -1.3119,3.575 -4.8612,13.3155 -7.8874,21.6456 -3.0262,8.33 -6.3152,16.43 -7.309,18 -7.1175,11.2442 -21.4594,26.1455 -32.1559,33.4102 -4.0039,2.7193 -7.5359,4.9442 -7.8489,4.9442 -0.313,0 -1.987,0.6192 -3.7202,1.376 -20.9127,9.1321 -33.3756,13.1527 -46.8185,15.1039 -5.1329,0.745 -13.6076,2.0505 -18.8326,2.9012 -21.1787,3.4479 -35.8024,4.6238 -56.5,4.543 -11.55,-0.045 -21.5625,-0.309 -22.25,-0.5864 z m -745.67861,-25.9091 c -1.95594,-1.956 -2.00301,-3.8255 -0.13535,-5.3755 3.27133,-2.715 7.39512,2.7157 4.36392,5.7469 -1.58146,1.5815 -2.34254,1.5146 -4.22857,-0.3714 z m 10.43914,0.084 c -3.59865,-4.3361 0.39649,-5.005 36.48943,-6.1098 9.9,-0.303 19.8,-0.6935 22,-0.8678 2.2,-0.1742 8.5,-0.582 14,-0.9061 10.35368,-0.6102 25.03729,-3.6587 32,-6.6436 2.2,-0.9432 6.10205,-2.4744 8.67123,-3.4027 2.56918,-0.9284 5.21178,-2.3393 5.87245,-3.1353 0.66066,-0.7961 1.82111,-1.4474 2.57876,-1.4474 0.75766,0 1.37756,-0.4197 1.37756,-0.9326 0,-0.5129 0.88321,-1.2129 1.96268,-1.5556 2.15657,-0.6844 11.53653,-9.7137 17.03732,-16.4003 1.925,-2.34 4.88746,-5.9098 6.58325,-7.933 1.69578,-2.0232 3.35601,-4.4318 3.6894,-5.3524 0.33339,-0.9206 1.85934,-3.6206 3.39099,-6 4.1814,-6.4956 14.33636,-32.6632 14.33636,-36.9423 0,-2.105 2.60109,-4.8838 4.57143,-4.8838 2.3562,0 1.69321,5.1729 -2.14487,16.7351 -7.77055,23.4086 -18.2754,41.006 -33.86623,56.7317 -9.75651,9.8409 -19.83145,16.5564 -28.56033,19.037 -3.575,1.016 -6.96398,2.1916 -7.53106,2.6125 -0.56708,0.4208 -2.14208,0.989 -3.5,1.2626 -1.35792,0.2736 -5.16894,1.2784 -8.46894,2.2328 -6.31501,1.8265 -6.78867,1.8659 -34.5,2.8736 -9.625,0.35 -24.7,1.0569 -33.5,1.5709 -20.74999,1.2119 -21.03835,1.205 -22.48943,-0.5435 z m -33.46718,-0.7822 c -12.57874,-0.8043 -15.54339,-1.6123 -15.54339,-4.2362 0,-1.8719 2.07838,-2.0425 18.20409,-1.4942 15.52989,0.5281 18.32301,1.3535 16.16569,4.7775 -1.26846,2.0133 -1.81369,2.0409 -18.82639,0.953 z m 23.13004,-11.3903 c -0.93509,-0.9351 0.36696,-60.657 1.34524,-61.703 0.44389,-0.4745 1.22325,-0.6056 1.73192,-0.2912 0.87903,0.5432 0.61036,58.6358 -0.28398,61.4041 -0.43944,1.3602 -1.74688,1.6364 -2.79318,0.5901 z m 901.32661,-1.3401 c 0,-0.55 0.1984,-1 0.441,-1 0.2425,0 0.7191,0.45 1.059,1 0.3399,0.55 0.1415,1 -0.441,1 -0.5824,0 -1.059,-0.45 -1.059,-1 z m -691.43953,-6.9021 c -0.34253,-0.5542 -0.40632,-7.8905 -0.14177,-16.3028 0.26455,-8.4123 0.55775,-21.8201 0.65156,-29.7951 0.1991,-16.9264 0.92061,-23.1683 2.74815,-23.7748 1.08207,-0.3591 1.19165,4.9152 0.61122,29.4187 -0.38897,16.4208 -0.75728,32.2928 -0.81845,35.2709 -0.10428,5.0766 -1.57363,7.5731 -3.05071,5.1831 z m -100.69526,-2.566 c -0.25745,-0.2574 -0.36087,-9.5949 -0.22982,-20.75 0.54949,-46.7761 1.47453,-103.4104 1.94447,-119.0472 0.39581,-13.1703 0.22683,-16.8541 -0.78802,-17.1792 -1.69006,-0.5415 -20.29245,-1.5063 -29.57326,-1.5339 -5.82121,-0.017 -7.40795,-0.3514 -7.91248,-1.6662 -0.94477,-2.462 2.18488,-4.1826 6.98784,-3.8416 8.88295,0.6305 30.66242,0.8631 31.19243,0.3331 0.30588,-0.3059 0.78757,-16.4841 1.07042,-35.9515 0.28285,-19.4675 0.91743,-48.3765 1.41017,-64.2423 0.49274,-15.8657 0.6536,-29.4782 0.35746,-30.25 -0.41818,-1.0897 -3.36225,-1.4383 -13.18145,-1.5609 -6.95365,-0.087 -14.44301,-0.2635 -16.64301,-0.3928 -2.2,-0.1293 -6.6188,-0.2833 -9.81955,-0.3422 -5.43743,-0.1002 -5.79857,-0.2549 -5.5,-2.3572 l 0.31955,-2.25 22.75,0.207 22.75,0.2071 0.0574,-17.2071 c 0.0316,-9.4638 0.25396,-23.957 0.49421,-32.207 0.24025,-8.25 0.617,-29.4826 0.83722,-47.1835 0.33432,-26.87207 0.17025,-32.27167 -0.99421,-32.71857 -1.9673,-0.7549 -1.73103,-2.8654 0.53831,-4.8084 2.27835,-1.9508 2.03423,-6.5433 -0.68097,-12.8107 -2.4823,-5.7297 -4.49412,-5.285 -3.68498,0.8146 0.49355,3.7206 0.28031,5.0884 -0.95282,6.1119 -2.65026,2.1995 -4.61816,0.6042 -4.46753,-3.6217 0.0742,-2.081 -0.19734,-6.5934 -0.60337,-10.0276 -0.65798,-5.5652 -0.5374,-6.3069 1.10925,-6.823 1.01612,-0.3184 2.6781,-1.0269 3.69328,-1.5743 1.37618,-0.7421 2.33183,-0.5554 3.75613,0.7335 1.05069,0.9509 2.09144,1.5441 2.31278,1.3183 0.22134,-0.2258 0.66099,-15.1261 0.97699,-33.1119 0.41918,-23.8574 0.26777,-32.891 -0.55985,-33.4025 -0.64634,-0.3995 -2.25247,0.6576 -3.73312,2.4569 -4.77917,5.8077 -9.12904,7.3164 -22.79591,7.9067 l -12.27629,0.5301 0.55466,6.6051 c 1.0429,12.4194 4.79411,20.0675 12.19455,24.8628 6.0794,3.9394 8.62583,6.7535 7.87694,8.7051 -1.38849,3.6183 -7.8436,0.2859 -16.61889,-8.5793 -5.59801,-5.6554 -8.72771,-13.961 -9.51686,-25.2558 -0.59996,-8.587 -0.92985,-9.6277 -3.05177,-9.6277 -4.11184,0 -16.85824,-11.1359 -30.3251,-26.4935 -5.30203,-6.0465 -10.31505,-11.7112 -11.14005,-12.5884 -0.825,-0.8771 -3.73675,-4.255 -6.47055,-7.5064 -5.12713,-6.0979 -23.24375,-24.3168 -30.12987,-30.2999 -12.0287,-10.4514 -19.07058,-16.7223 -20.39958,-18.1662 -4.52648,-4.9179 -20.4955,-17.2841 -26.5,-20.5213 -1.1,-0.593 -5.46913,-2.9561 -9.70918,-5.2513 -4.24004,-2.2951 -8.38869,-4.173 -9.2192,-4.173 -0.83052,0 -3.30889,-0.9376 -5.50749,-2.0836 -2.1986,-1.146 -4.57496,-2.1801 -5.28079,-2.2981 -0.70584,-0.118 -2.33438,-0.7918 -3.61899,-1.4974 -1.2846,-0.7056 -2.5588,-1.0598 -2.83156,-0.787 -0.27275,0.2727 -1.96803,-0.1192 -3.76729,-0.871 -1.79925,-0.7518 -5.47505,-1.6604 -8.16843,-2.0193 -2.69339,-0.3588 -5.45957,-1.1105 -6.14707,-1.6705 -1.70105,-1.3853 -1.57861,-4.433 0.20561,-5.1177 1.64538,-0.6314 12.99587,0.9416 16.04439,2.2235 1.1,0.4625 4.7,1.6703 8,2.684 3.3,1.0137 6.675,2.1787 7.5,2.589 0.825,0.4102 4.425,1.9911 8,3.5131 6.83848,2.9114 25.30019,13.5495 28.20199,16.2507 1.91436,1.782 2.41491,2.2046 11.08508,9.3595 5.77178,4.7631 11.01698,9.3702 16.19482,14.2248 1.17325,1.1 5.70729,5.1326 10.07564,8.9613 13.00866,11.4017 24.09993,23.1002 37.44247,39.4924 10.55698,12.9699 31.62343,34.3469 33.27355,33.764 0.78169,-0.2761 1.11952,-2.026 0.93158,-4.8254 -0.3043,-4.5328 -5.0395,-24.8463 -7.69867,-33.0265 -0.82856,-2.5488 -1.50069,-5.4738 -1.49364,-6.5 0.0149,-2.1678 -2.57309,-14.6138 -4.54671,-21.8658 -4.0538,-14.8956 -4.4256,-47.2021 -0.66107,-57.4416 4.00912,-10.9049 9.96105,-15.0788 16.22978,-11.3816 1.70026,1.0027 5.83272,5.6482 9.18325,10.3232 3.35052,4.675 7.32921,9.85 8.84153,11.5 1.51233,1.65 4.84284,7.05 7.40114,12 2.5583,4.95 5.02452,9.675 5.48048,10.5 0.45595,0.825 2.51871,5.1 4.5839,9.5 6.82595,14.5431 11.28884,22.938 12.38924,23.3048 1.36393,0.4546 1.43967,-2.468 0.0856,-3.3048 -0.55,-0.3399 -1,-1.4139 -1,-2.3866 0,-0.9727 -1.14948,-4.5975 -2.55441,-8.055 -1.74249,-4.2883 -2.35293,-7.2038 -1.92054,-9.1724 0.87513,-3.9845 4.02012,-3.9102 4.82495,0.114 0.8834,4.417 2.28871,3.6525 3.01408,-1.6396 1.04349,-7.6131 0.7729,-11.3706 -0.86408,-11.9988 -1.6188,-0.6212 -2.10538,-4.3616 -0.56739,-4.3616 1.53249,0 2.2736,-3.82 1.56026,-8.0422 -0.61634,-3.6483 -2.49283,-5.649 -2.49283,-2.6578 0,2.3472 -2.14398,3.6933 -4.16221,2.6132 -2.56588,-1.3732 -1.63421,-4.7258 3.75189,-13.5012 l 4.35043,-7.0879 0.011,-19.137 c 0.0123,-21.2728 0.22466,-20.6254 -7.06294,-21.5302 -1.86352,-0.2313 -4.06321,-0.6739 -4.88821,-0.9834 -3.11859,-1.17 -25.68014,-1.7686 -59,-1.5654 -71.62488,0.4368 -89.79726,0.3705 -100,-0.3649 -20.39005,-1.4697 -50.80537,-4.5049 -51.89571,-5.1787 -1.71234,-1.0583 -1.30265,-4.388 0.66979,-5.4436 1.60693,-0.86 7.15872,-0.5308 22.72592,1.3477 2.2,0.2655 7.825,0.7639 12.5,1.1075 4.675,0.3436 8.80677,0.8122 9.18171,1.0412 1.01245,0.6183 46.8967,1.5254 65.31829,1.2912 38.76349,-0.4927 84.57003,-0.3415 91,0.3005 3.85,0.3844 10.10736,1.4207 13.90523,2.3028 4.77639,1.1094 7.10836,1.2752 7.5641,0.5378 0.36237,-0.5863 0.75864,-11.1873 0.88061,-23.5578 l 0.2218,-22.4918 -18.28585,-0.1606 c -10.05722,-0.088 -26.16085,-0.2606 -35.78585,-0.3828 -9.625,-0.1221 -46.525,-0.5207 -82,-0.8857 -110.21848,-1.134 -163.38554,-2.0341 -182.5,-3.0896 -3.3,-0.1823 -9.72662,-0.3651 -14.28138,-0.4063 -6.5491,-0.059 -8.40719,-0.4028 -8.88279,-1.6422 -1.05813,-2.7575 0.93678,-3.339 12.16948,-3.5475 11.66654,-0.2166 61.23852,0.7758 82.99469,1.6615 27.5239,1.1206 71.82819,1.8898 173.5,3.0123 80.01647,0.8834 72.31356,1.1 73.15792,-2.0572 0.39157,-1.4641 0.76976,-13.7635 0.84041,-27.332 0.0707,-13.5684 0.29596,-28.7199 0.50066,-33.6699 0.20471,-4.95 0.62653,-23.625 0.93738,-41.5 0.31085,-17.875 0.78539,-43.075 1.05453,-56 0.26914,-12.925 0.75025,-41.725 1.06914,-64 0.31889,-22.275 0.7516,-46.575 0.96159,-54 0.77642,-27.4544 1.49895,-56.2555 2.10727,-84 0.34369,-15.675 0.90529,-35.925 1.248,-45 0.60011,-15.89114 0.70236,-16.5113 2.77116,-16.80619 1.18144,-0.16841 2.38704,-1.22005 2.67913,-2.33698 0.9228,-3.52881 3.83996,-1.7679 5.20703,3.14317 0.68895,2.475 2.46608,7.36844 3.94917,10.87432 2.47792,5.85754 2.56612,6.50475 1.08781,7.98305 -2.5485,2.5485 -4.60531,0.38576 -7.52697,-7.91463 -1.44088,-4.09351 -3.05278,-7.21774 -3.58201,-6.94274 -0.52922,0.275 -0.96222,4.76823 -0.96222,9.98494 l 0,9.48495 16.5,0.20778 c 9.075,0.11428 28.2,0.47844 42.5,0.80924 25.9602,0.60053 26,0.60482 26,2.80727 0,3.0828 -2.84662,3.33192 -29,2.5379 -46.03381,-1.39758 -55.54974,-1.56018 -55.91464,-0.95544 -0.34437,0.57071 -1.23394,30.53115 -2.09693,70.62336 -0.18942,8.8 -0.60672,28.15 -0.92735,43 -0.32062,14.85 -0.79241,31.275 -1.04842,36.5 -0.256,5.225 -0.70686,26.825 -1.0019,48 -0.29505,21.175 -0.75523,51.325 -1.02264,67 -0.26741,15.675 -0.7819,46.275 -1.14331,68 -0.36141,21.725 -0.69934,41.525 -0.75096,44 l -0.0938,4.5 10.5,0.083 c 5.775,0.046 17.7,0.3713 26.5,0.7241 8.8,0.3528 26.4625,0.9337 39.25,1.291 l 23.24995,0.6496 0.037,-18.3737 c 0.021,-10.1055 0.2246,-26.6987 0.4538,-36.8737 0.2292,-10.175 0.6559,-32 0.9484,-48.5 0.2925,-16.5 0.8271,-44.5125 1.1881,-62.25 0.3811,-18.7252 0.2822,-32.241 -0.2357,-32.2286 -0.4905,0.012 -2.0838,1.7077 -3.5407,3.7688 -5.037,7.1265 -15.892,18.042 -21.61061,21.7308 -3.15735,2.0367 -6.87434,4.4894 -8.25998,5.4504 -1.38564,0.9611 -3.56537,2.0794 -4.84386,2.4852 -1.27848,0.4058 -4.19478,1.9315 -6.48066,3.3906 -2.28588,1.459 -5.04061,3.1421 -6.12164,3.74 -1.98256,1.0967 -2.64093,2.1889 -11.7018,19.4128 -2.74869,5.225 -5.59234,10.175 -6.31924,11 -0.72689,0.825 -3.1534,5.148 -5.39224,9.6066 -4.84746,9.6536 -6.24841,11.1233 -8.47767,8.8941 -1.15596,-1.156 -1.3301,-2.1949 -0.66229,-3.9514 1.59031,-4.1828 6.95338,-14.4073 10.39301,-19.8139 3.66704,-5.7641 11.68487,-21.5977 13.33807,-26.3401 0.8765,-2.5143 2.93784,-3.9652 12.4193,-8.7416 6.2526,-3.1499 12.26094,-6.273 13.35186,-6.9404 11.37748,-6.9598 16.52906,-11.8703 26.45105,-25.2133 6.2827,-8.4492 8.7485,-14.0736 8.8574,-20.2047 l 0.093,-5.2047 -5.1923,-2.5487 c -5.8743,-2.8835 -15.52092,-11.7261 -19.26826,-17.6623 -5.55084,-8.7933 -16.34968,-21.8799 -18.05476,-21.8799 -0.66396,0 -2.48117,-0.6342 -4.03824,-1.4093 -1.55707,-0.7751 -5.90661,-2.5871 -9.66563,-4.0266 -9.19778,-3.5223 -19.7214,-10.8264 -27.99215,-19.4284 -6.85471,-7.1293 -8.08286,-10.2406 -4.32785,-10.9637 1.20145,-0.2314 4.09393,1.9829 8.48852,6.4981 7.92309,8.1406 18.55964,15.3812 26.16607,17.8119 5.96363,1.9058 11.06524,3.9421 15,5.9873 2.4496,1.2733 15.10589,16.8878 17.21128,21.2342 0.58706,1.2119 1.79138,2.3429 2.67626,2.5134 0.88488,0.1704 1.60968,1.1686 1.61066,2.2182 0.002,2.1636 13.6199,14.5649 15.9938,14.5649 2.3642,0 1.8543,-5.4781 -1.1286,-12.125 -1.4501,-3.2312 -2.9947,-5.875 -3.4326,-5.875 -0.4378,0 -1.0796,-0.8935 -1.4262,-1.9856 -0.3466,-1.092 -1.4798,-3.0045 -2.5182,-4.25 -6.68773,-8.0212 -17.10426,-21.6597 -18.15027,-23.7644 -0.68337,-1.375 -2.72606,-4.6385 -4.53931,-7.2523 -1.81325,-2.6138 -3.29682,-5.0077 -3.29682,-5.3198 0,-0.905 -6.29968,-9.8933 -7.19179,-10.2612 -0.44451,-0.1834 -0.80821,-0.7677 -0.80821,-1.2986 0,-0.5309 -1.8,-3.6752 -4,-6.9874 -2.2,-3.3122 -4,-6.3706 -4,-6.7964 0,-0.4259 -0.89411,-1.5835 -1.98691,-2.5725 -2.17639,-1.9696 -8.30054,-12.64129 -9.49932,-16.55315 -0.41439,-1.35226 -3.40464,-7.91559 -6.64499,-14.58519 -8.06041,-16.5907 -10.10219,-22.67199 -8.39565,-25.00583 1.11039,-1.51855 1.55596,-1.58838 2.91866,-0.45744 0.88451,0.73409 1.60821,1.86015 1.60821,2.50236 0,0.64221 2.87266,6.99961 6.38368,14.12756 3.51103,7.12794 7.60013,15.88489 9.08689,19.45989 3.20681,7.71095 6.8383,14.1908 10.64807,19 1.52496,1.925 3.3743,4.625 4.10964,6 0.73534,1.375 4.2473,7.0035 7.80435,12.5078 3.55705,5.5043 7.14237,11.1638 7.96737,12.5766 4.28065,7.3309 6.31203,10.1926 15.68681,22.0989 5.60279,7.1157 10.37869,13.4729 10.61309,14.1271 1.7453,4.8703 2.1741,-6.1669 3.1558,-81.21981 0.4336,-33.15517 0.8788,-38.23794 3.2224,-36.78952 1.2565,0.77656 0.3882,89.16823 -1.1596,118.05083 -0.2707,5.0502 0.054,9.1535 0.9105,11.5 4.5116,12.363 4.5474,19.1382 0.1685,31.9164 -2.3822,6.9513 -2.4972,8.3902 -2.6369,33 -0.08,14.1524 -0.1598,26.4067 -0.1764,27.2317 -0.017,0.825 -0.3978,15.225 -0.847,32 -0.4492,16.775 -1.093,47.6 -1.4306,68.5 -0.3377,20.9 -0.8007,40.8125 -1.0291,44.25 l -0.4151,6.25 3.2188,0.032 c 1.7703,0.018 11.0938,0.2265 20.7188,0.4639 71.8182,1.7708 97.7413,2.0958 98.6008,1.2363 0.3327,-0.3326 1.5736,-0.2365 2.7575,0.2136 1.184,0.4502 14.7502,0.9264 30.1472,1.0584 45.0679,0.3862 41.9446,0.1822 42.3141,2.7633 0.2276,1.59 -0.204,2.2533 -1.5,2.3055 -3.7318,0.1503 -43.4985,-0.2218 -62.3196,-0.5832 -37.5453,-0.7209 -102.6393,-1.7531 -118,-1.871 l -15.5,-0.1191 -0.1006,18 c -0.1744,31.2155 -0.5748,49.7934 -1.1028,51.1695 -0.2808,0.7318 -1.1374,1.3305 -1.9036,1.3305 -1.5847,0 -1.693,-10.5933 -0.4904,-48 0.3801,-11.825 0.4451,-21.7898 0.1443,-22.144 -0.3008,-0.3543 -11.7969,-0.9262 -25.5469,-1.2711 -13.75,-0.3448 -34.225,-0.9149 -45.5,-1.2669 -11.275,-0.3519 -22.075,-0.68 -24,-0.729 l -3.5,-0.089 -0.5,18.5 c -0.275,10.175 -0.5,24.125 -0.5,31 l 0,12.5 2.5,0.3158 c 4.04014,0.5103 20.22724,6.1823 23.65078,8.2874 3.57947,2.2009 4.54971,3.9544 3.30362,5.9706 -0.72331,1.1703 -1.62556,1.0977 -5.65748,-0.4555 -6.80565,-2.6216 -23.42827,-7.8304 -23.75285,-7.4431 -0.64741,0.7726 -1.33901,33.8248 -0.70776,33.8248 0.38468,0 2.31859,-1.1003 4.29758,-2.445 1.97899,-1.3448 5.79595,-3.6563 8.48213,-5.1367 2.68619,-1.4805 6.79299,-3.9626 9.12623,-5.5159 2.33324,-1.5534 5.48324,-2.9544 7,-3.1133 2.32319,-0.2436 2.75775,0.088 2.75775,2.106 0,2.4158 -5.7022,6.7039 -16,12.0322 -7.27955,3.7667 -12.76711,7.5493 -14.61999,10.0777 -1.65201,2.2543 -1.86488,5.3589 -2.2061,32.1757 -0.20771,16.3243 -0.0941,30.1394 0.25244,30.7001 0.57966,0.9379 8.73145,1.1839 82.13298,2.4778 l 15.55937,0.2743 0.2524,-32.4976 c 0.1474,-18.9751 0.6637,-33.2661 1.2408,-34.3444 2.5709,-4.8037 2.9251,0.3722 2.2873,33.4211 l -0.6574,34.059 3.4277,-0.643 c 4.0696,-0.7635 7.4964,1.1943 6.5244,3.7274 -0.4662,1.2149 -1.9048,1.6446 -5.5059,1.6446 l -4.8747,0 -0.044,14.25 c -0.024,7.8375 -0.343,29.1643 -0.7081,47.3929 l -0.6639,33.143 20.1451,-0.05 c 21.3745,-0.053 23.0688,0.3202 20.7862,4.5854 -0.9825,1.8357 -1.9905,1.9014 -20.9302,1.3637 l -19.8981,-0.5649 -0.065,8.6902 c -0.036,4.7795 -0.3425,19.9401 -0.6819,33.6901 -0.3394,13.75 -0.7182,30.62497 -0.8419,37.49997 -0.1237,6.875 -0.3511,19.475 -0.5053,28 l -0.2806,15.5 8.9372,0 8.9372,0 0.3127,2.7116 0.3127,2.7117 -9.3127,0.2883 -9.3127,0.2884 -0.308,21.75 c -0.2738,19.3393 -0.1318,21.75 1.2814,21.75 0.8742,0 1.8484,-0.675 2.165,-1.5 0.3166,-0.825 1.1135,-1.5 1.771,-1.5 0.6574,0 3.6468,-2.4304 6.643,-5.401 5.5875,-5.5397 11.1377,-14.6333 12.3777,-20.2799 0.3841,-1.7495 1.3932,-3.7575 2.2424,-4.4623 1.2842,-1.0658 1.7829,-0.9545 2.9645,0.6615 1.938,2.6503 0.9801,6.3907 -3.9644,15.4817 -4.8608,8.937 -12.9619,17.8057 -19.1911,21.0095 -2.4802,1.2756 -4.917,2.8103 -5.4149,3.4103 -0.498,0.6 -1.1366,8.0635 -1.4192,16.5855 -0.2825,8.5221 -0.5438,15.6072 -0.5806,15.7447 -0.037,0.1375 -0.7418,0.25 -1.5668,0.25 -1.26437,0 -1.5,-2.2778 -1.5,-14.5 0,-9.4573 -0.36504,-14.5 -1.04966,-14.5 -1.42434,0 -6.59891,2.7008 -11.45034,5.9765 -2.2,1.4854 -6.01994,4.0108 -8.48875,5.6121 -6.96764,4.5192 -18.34499,16.373 -21.03073,21.9114 -1.33356,2.75 -2.66222,7.025 -2.95259,9.5 -0.4684,3.9926 -0.80985,4.5 -3.02793,4.5 -1.98652,0 -2.56522,-0.5672 -2.81755,-2.7617 -0.42853,-3.7268 2.40498,-13.1467 5.29623,-17.6072 7.15185,-11.0334 26.00521,-26.2905 40.83653,-33.0469 2.50993,-1.1434 4.77494,-2.421 5.03336,-2.8392 0.25842,-0.4181 0.60626,-10.8818 0.77298,-23.2526 l 0.30313,-22.4924 -3.96234,-0.1389 c -2.17929,-0.076 -24.21234,-0.3014 -48.96234,-0.5 l -45,-0.3611 -0.12989,10 c -0.0714,5.5 -0.43014,25.075 -0.7971,43.5 -0.36696,18.425 -0.75851,38.225 -0.8701,44 l -0.20291,10.5 19.33053,0.1739 c 10.63179,0.096 20.00085,0.4312 20.82014,0.7455 0.86567,0.3322 1.35551,1.516 1.16947,2.8261 l -0.32014,2.2544 -19.57203,-0.3169 c -15.27795,-0.2474 -19.80937,-0.028 -20.65379,1 -0.70495,0.8582 -1.29264,13.8568 -1.68717,37.3169 -0.77921,46.3348 -1.7662,97.2988 -1.94633,100.5 -0.1383,2.4577 -0.005,2.5027 7.85932,2.6607 49.43677,0.9927 55.01893,1.2571 55.90915,2.6475 0.50003,0.781 0.62238,2.1672 0.27189,3.0806 -0.57751,1.505 -2.91259,1.6108 -24.90914,1.1292 -13.34955,-0.2923 -27.4737,-0.7862 -31.38702,-1.0974 -5.38963,-0.4287 -7.23708,-0.2452 -7.61803,0.7567 -0.2766,0.7275 -0.5748,9.6477 -0.66267,19.8227 -0.30586,35.4172 -1.09017,68.1683 -1.65434,69.0812 -0.61278,0.9915 -1.83133,1.204 -2.58459,0.4507 z m 107.7724,-359.6161 c 0.0757,-1.8787 0.19318,-14.4408 0.26106,-27.9158 0.0679,-13.475 0.14919,-25.175 0.18059,-26 0.031,-0.825 0.2244,-5.325 0.4289,-9.99997 0.2044,-4.675 0.4613,-19.075 0.5709,-32 l 0.1992,-23.5 -26.38916,-0.2434 c -14.51403,-0.1339 -26.9832,-0.4694 -27.70928,-0.7456 -0.72607,-0.2761 -1.17607,-1.5166 -1,-2.7565 l 0.32014,-2.2545 27.16587,0 c 14.94123,0 27.37303,-0.225 27.62623,-0.5 0.2533,-0.275 0.7565,-21.1554 1.1184,-46.4008 0.3618,-25.2455 0.8941,-46.283 1.1827,-46.75 0.2887,-0.4671 0.3858,-0.8887 0.2158,-0.937 -0.1699,-0.048 -19.434,-0.2631 -42.809,-0.4775 -23.375,-0.2144 -44.8625,-0.6288 -47.75,-0.921 -2.8875,-0.2921 -5.25,-0.1488 -5.25,0.3186 0,0.4674 0.6509,3.0126 1.44644,5.656 0.79554,2.6434 1.7416,7.1685 2.10235,10.0559 0.54331,4.3485 1.32509,5.9032 4.55356,9.0557 2.14371,2.0933 3.89765,4.1835 3.89765,4.6449 0,0.4613 0.93877,1.8325 2.08616,3.047 1.95689,2.0714 6.60765,11.1216 10.38459,20.2082 7.00124,16.8436 9.96353,33.5192 6.36307,35.8195 -2.99804,1.9155 -4.83382,-0.8542 -4.83382,-7.2927 0,-3.1506 -0.40339,-7.033 -0.89642,-8.6276 -0.49304,-1.5945 -1.62968,-5.3742 -2.52588,-8.3992 -3.33326,-11.2509 -15.76178,-32.2889 -19.83985,-33.5832 -2.45659,-0.7797 -2.49103,-0.7312 -4.38675,6.1818 -2.22121,8.1 -2.16008,6.9444 -2.79183,52.7708 l -0.56342,40.8694 3.07602,10.3471 c 4.03065,13.5584 3.5971,16.3578 -2.16484,13.9785 -1.3804,-0.5701 -1.59837,0.4493 -1.63343,7.63887 -0.0222,4.5632 -0.14777,20.1837 -0.27894,34.7122 l -0.23849,26.4156 47.37191,0.4219 c 26.05456,0.232 47.56879,0.6169 47.80942,0.8553 1.21587,1.2044 2.57787,-0.6581 2.70015,-3.6925 z m -87.53246,-60.2891 c -1.54641,-1.86327 -0.33205,-4.62667 2.03318,-4.62667 2.42637,0 3.47487,2.5562 1.85106,4.51267 -1.53236,1.8464 -2.42476,1.8726 -3.88424,0.114 z m 21.87843,-2.14637 c -2.55786,-3.0821 0.62727,-4.3272 11.51638,-4.502 14.44039,-0.2318 13.68022,-0.39 13.31642,2.7717 l -0.31642,2.74997 -11.60228,0.2805 c -9.59247,0.2318 -11.82952,0.01 -12.9141,-1.30017 z m -15.78362,-5.6803 c -1.81803,-1.818 -1.48164,-3.1706 1.8226,-7.3284 1.66242,-2.0919 3.29796,-4.9006 3.63452,-6.2416 0.33657,-1.341 1.66949,-4.4271 2.96206,-6.8581 1.29257,-2.431 2.82696,-7.4467 3.40976,-11.1459 1.62263,-10.2995 2.87598,-14.226 4.54099,-14.226 0.82106,0 1.76288,0.7037 2.09294,1.5638 0.8284,2.1588 -2.07775,20.3465 -3.91848,24.5232 -8.84998,20.081 -11.11137,23.146 -14.54439,19.713 z m 16.90519,-52.1733 c -2.01414,-2.4268 1.34565,-6.7022 3.98505,-5.0709 1.29369,0.7995 1.12609,3.8279 -0.29024,5.2442 -1.54772,1.5477 -2.29563,1.5126 -3.69481,-0.1733 z m -49.48321,-46.2263 c 2.66295,-0.9484 5.59824,-3.2188 8.29268,-6.4142 6.34709,-7.5273 7.16866,-10.3121 7.01552,-23.7798 -0.12134,-10.6706 -0.38959,-12.2557 -3.03165,-17.9147 -1.59419,-3.4146 -2.89853,-6.6164 -2.89853,-7.1151 0,-0.4988 -0.83757,-1.9801 -1.86126,-3.2917 -1.50762,-1.9318 -10.89341,-19.2944 -14.86567,-27.4998 -10.2359,-21.1442 -21.07197,-37.5061 -28.93607,-43.692 -3.33242,-2.6213 -5.06091,-1.6128 -8.337,4.8643 -2.40842,4.7615 -2.49919,5.6386 -2.47795,23.9426 0.0217,18.6715 0.32598,21.3006 4.45618,38.5 0.46226,1.925 1.34867,5.975 1.9698,9 0.62114,3.025 1.54359,7.3 2.04991,9.5 1.37332,5.9672 3.64548,15.5961 7.07921,30 1.18003,4.95 2.26238,10.125 2.40523,11.5 0.14285,1.375 0.31775,3.0201 0.38867,3.6557 0.18502,1.6583 23.41829,0.6439 28.75093,-1.2553 z m 845.04476,451.93287 c -1.308,-1.308 -0.6376,-5.1305 1.0108,-5.7631 2.455,-0.942 4.3121,1.4423 3.2554,4.1798 -0.8417,2.1806 -2.9037,2.9459 -4.2662,1.5833 z m -189.1667,-8.2983 c -10.1207,-2.1425 -15.573,-3.9243 -20.9959,-6.8615 -3.2226,-1.7454 -6.4072,-3.1735 -7.077,-3.1735 -1.2147,0 -12.3445,-4.4285 -19.9271,-7.929 -2.2,-1.0156 -7.825,-3.281 -12.5,-5.0341 -4.675,-1.7532 -9.85,-3.78 -11.5,-4.5041 -5.9906,-2.6288 -10.1076,-4.3682 -15.50004,-6.5483 -3.025,-1.223 -6.85,-2.7789 -8.5,-3.4576 -1.65,-0.6786 -5.5875,-2.2521 -8.75,-3.4965 -4.3486,-1.7112 -5.75,-2.7537 -5.75,-4.2774 0,-3.4828 4.0842,-2.3076 23.778,6.8417 4.00294,1.8597 8.50294,3.6807 10.00004,4.0467 1.4971,0.3661 4.2903,1.4965 6.2072,2.5121 1.9168,1.0156 4.0593,1.8465 4.7609,1.8465 0.7016,0 3.1833,0.8568 5.5148,1.904 2.3315,1.0472 6.2588,2.7347 8.7273,3.75 2.4686,1.0153 6.4965,2.8431 8.951,4.0617 2.4545,1.2187 4.6461,2.0323 4.8703,1.8081 0.2242,-0.2241 -1.3897,-2.5712 -3.5864,-5.2157 -5.1533,-6.2038 -18.8075,-28.6611 -24.2036,-39.8081 -5.4117,-11.1791 -11.1983,-26.2009 -12.5975,-32.7025 -1.5889,-7.3829 -2.0793,-25.4579 -0.8824,-32.5227 1.1438,-6.7518 4.6625,-19.2817 5.5728,-19.8442 0.4882,-0.3018 0.8876,-1.2603 0.8876,-2.1302 0,-3.5669 30.8277,-64.505 35.6226,-70.4164 0.6174,-0.7612 2.0546,-3.5215 3.1938,-6.134 1.1391,-2.6125 2.5464,-4.75 3.1274,-4.75 0.5809,0 1.0562,-0.6031 1.0562,-1.3403 0,-0.7371 1.305,-3.9996 2.9,-7.25 1.595,-3.2503 3.2251,-7.0347 3.6224,-8.4097 1.3801,-4.7763 4.6136,-6.694 5.8507,-3.47 0.9084,2.367 -3.8465,13.8816 -10.3014,24.9464 -9.5121,16.3055 -27.0305,49.9622 -32.0232,61.5236 -1.3063,3.025 -4.3266,9.651 -6.7118,14.7244 -2.3852,5.0734 -4.3367,9.8164 -4.3367,10.5399 0,0.7235 -0.7045,3.9975 -1.5655,7.2756 -1.8838,7.1718 -2.1895,30.5408 -0.4953,37.8539 0.6235,2.6916 2.2905,7.4166 3.7044,10.5 1.4138,3.0834 3.3744,7.6312 4.3568,10.1062 2.3245,5.8562 12.6247,24.8435 17.6306,32.5 2.1576,3.3 4.5595,7.2566 5.3376,8.7925 2.1609,4.265 18.4789,18.6501 21.1964,18.6857 0.9158,0.012 2.7477,0.9861 4.0708,2.1646 3.4755,3.0957 14.8855,5.8478 24.4892,5.9067 9.5556,0.059 14.1635,-0.6639 19.9332,-3.1256 2.287,-0.9758 4.3414,-1.5909 4.5654,-1.367 0.6762,0.6762 15.0508,-13.8629 18.409,-18.6197 1.7229,-2.4404 3.4548,-5.4941 3.8487,-6.7858 1.6138,-5.293 6.822,-15.217 7.8125,-14.8868 3.0725,1.0242 3.0266,3.6327 -0.1992,11.3175 -4.0953,9.7563 -8.2757,16.2971 -15.1855,23.76 -11.0022,11.8829 -20.5247,16.569 -34.9091,17.1792 -4.675,0.1983 -10.3,-0.021 -12.5,-0.4863 z m 193.2252,-4.785 c -0.8425,-1.8912 -1.2283,-9.4645 -1.2352,-24.25 -0.01,-17.3208 -0.3628,-22.9578 -1.8247,-29 -0.9981,-4.125 -2.2311,-8.2814 -2.74,-9.2364 -0.5089,-0.9551 -0.9253,-2.3825 -0.9253,-3.172 0,-0.7896 -1.983,-7.8832 -4.4067,-15.7636 -6.9515,-22.6019 -9.618,-44.0472 -6.9717,-56.0688 0.8789,-3.9926 1.9303,-8.8342 2.3364,-10.7592 1.8901,-8.9587 10.5928,-25.2097 16.9538,-31.6587 l 5.0882,-5.1587 0.015,-9.8413 c 0.01,-5.4127 0.4288,-16.1413 0.9347,-23.8413 0.506,-7.7 1.2228,-24.35 1.5929,-37 0.3701,-12.65 0.8012,-23.225 0.958,-23.5 0.1568,-0.275 0.5746,-8.825 0.9285,-19 0.3539,-10.175 0.8347,-20.075 1.0686,-22 0.2338,-1.925 0.6763,-12.95 0.9833,-24.49997 0.3069,-11.55 0.7734,-23.475 1.0366,-26.5 0.2632,-3.025 0.7231,-14.5 1.022,-25.5 0.2989,-11 0.7085,-21.8 0.9103,-24 0.2017,-2.2 0.678,-14.8 1.0585,-28 0.3805,-13.2 0.8359,-25.8106 1.0119,-28.0236 0.176,-2.213 0.5909,-11.213 0.922,-20 0.3311,-8.787 0.8035,-20.2514 1.0499,-25.4764 0.7043,-14.9404 0.8244,-29.0169 0.2525,-29.5888 -0.2876,-0.2876 -3.6627,1.0772 -7.5002,3.0329 -7.4234,3.7832 -11.2443,4.494 -11.2443,2.092 0,-1.522 6.6048,-6.5361 8.6097,-6.5361 0.63,0 1.6836,-0.6485 2.3414,-1.441 0.9813,-1.1825 0.4357,-1.921 -3.0407,-4.1156 -6.0799,-3.838 -12.5629,-10.6537 -19.6942,-20.7047 -3.4189,-4.8187 -6.2162,-9.0352 -6.2162,-9.3698 0,-0.3347 -2.1203,-4.9421 -4.7117,-10.2387 -5.8979,-12.0546 -6.8855,-14.6037 -9.7357,-25.1302 -1.398,-5.1635 -2.8151,-8.5 -3.6099,-8.5 -0.7197,0 -2.2426,1.8 -3.3843,4 -1.1416,2.2 -2.7406,4 -3.5533,4 -2.955,0 -2.0862,-3.8192 2.4051,-10.5736 2.5244,-3.7963 4.5898,-7.3578 4.5898,-7.9144 0,-0.6015 -3.3707,-1.012 -8.3089,-1.012 -9.0039,0 -12.5288,-1.3746 -11.3567,-4.4289 0.6092,-1.5878 2.7284,-1.6703 27.9124,-1.0879 14.9893,0.3466 32.5324,0.8002 38.9847,1.0079 6.4524,0.2077 11.9105,0.07 12.1292,-0.3067 0.2187,-0.3764 0.6938,-9.2344 1.0558,-19.6844 0.776,-22.4007 1.3704,-37.0815 2.0852,-51.5 0.2862,-5.775 0.7416,-16.35 1.0119,-23.5 0.2703,-7.15 0.7015,-15.925 0.9582,-19.5 0.2567,-3.575 0.7434,-14.5606 1.0816,-24.4125 0.3382,-9.8519 0.9643,-21.3778 1.3912,-25.613 0.427,-4.2353 0.6608,-9.4497 0.5197,-11.5875 -0.2335,-3.5352 0.2794,-15.0144 2.0501,-45.887 0.3471,-6.05 0.8291,-15.95 1.0712,-22 0.6468,-16.162 2.3241,-50.4697 2.8478,-58.2493 1.4521,-21.5695 2.4752,-46.7569 3.0163,-74.2507 0.1957,-9.94379 0.3219,-10.51696 2.3829,-10.82014 1.4205,-0.20894 2.3662,0.31203 2.723,1.5 0.3006,1.00108 1.1986,3.09411 1.9955,4.65118 0.7969,1.55707 1.4489,3.37818 1.4489,4.0469 0,1.72999 11.0212,26.82506 15.328,34.90146 1.9883,3.7287 4.7025,8.2287 6.0315,10 1.329,1.7713 5.1018,7.9456 8.384,13.7206 3.2821,5.775 7.495,12.7804 9.362,15.5675 1.867,2.7871 4.9695,7.6676 6.8945,10.8456 4.1701,6.8845 15.498,22.4681 17.8725,24.5869 0.9245,0.825 4.1019,5.55 7.0609,10.5 2.959,4.95 5.6986,9.225 6.0881,9.5 0.3895,0.275 2.2056,3.2 4.0359,6.5 1.8302,3.3 4.335,7.3517 5.566,9.0038 2.0212,2.7123 14.5477,25.576 18.078,32.9962 0.785,1.65 1.9281,3.9 2.5403,5 0.6121,1.1 3.0835,5.7883 5.4919,10.4185 2.4085,4.6302 5.5087,10.0302 6.8894,12 2.5734,3.6715 5.3487,7.9138 8.877,13.5696 3.7123,5.9506 5.8546,9.001 8.085,11.5119 1.2214,1.375 3.052,4.1616 4.0679,6.1924 1.0159,2.0309 3.4797,6.0809 5.4751,9 1.9953,2.9192 5.7378,9.1326 8.3167,13.8076 2.5788,4.675 5.4914,9.4 6.4726,10.5 0.9811,1.1 3.1267,4.475 4.7681,7.5 5.921,10.9127 6.8231,12.5063 7.3577,12.9992 0.2987,0.2755 1.8737,2.6375 3.5,5.249 1.6263,2.6115 3.3152,4.749 3.7532,4.75 1.2674,0 8.3978,16.0327 10.1647,22.8512 0.8852,3.4161 1.9984,7.2099 2.4738,8.4308 2.7738,7.123 6.0924,31.3561 6.0748,44.3597 -0.013,9.5484 -3.4221,25.6316 -6.6323,31.2881 -1.427,2.5146 -3.9397,7.047 -5.5836,10.072 -1.6439,3.025 -3.7619,6.4 -4.7067,7.5 -0.9448,1.1 -2.4769,3.2233 -3.4048,4.7185 -1.529,2.4638 -4.3048,5.2708 -14.123,14.2815 -1.7979,1.65 -4.1217,3.5679 -5.164,4.262 -7.3309,4.8815 -12.6374,8.238 -13.0242,8.238 -0.2499,0 -3.2481,1.2828 -6.6627,2.8507 -3.4146,1.5679 -8.9083,3.9078 -12.2083,5.1998 -3.3,1.2921 -6.4275,2.7093 -6.95,3.1493 -0.5225,0.4401 -1.8725,0.803 -3,0.8064 -1.1275,0 -3.3389,0.6783 -4.9143,1.5 -1.5754,0.8216 -3.7308,1.4938 -4.7898,1.4938 -1.0591,0 -3.6897,0.9 -5.8459,2 -2.1562,1.1 -4.823,2 -5.9262,2 -2.0898,0 -5.3716,1.2761 -15.7382,6.1198 -3.3905,1.5841 -6.4527,2.8802 -6.8049,2.8802 -0.8855,0 -9.3875,3.6806 -13.0307,5.6412 -9.0083,4.8477 -17.5225,9.1442 -19.1502,9.6636 -4.6646,1.4886 -16.3125,8.9959 -20.7395,13.3671 -6.4212,6.3404 -9.5083,11.1108 -11.0051,17.0061 -1.0351,4.0767 -1.6298,4.8699 -3.8475,5.1319 -1.7576,0.2077 -2.9098,-0.2873 -3.4917,-1.5 -0.4776,-0.9954 -0.9715,-10.1349 -1.0974,-20.3099 -0.126,-10.175 -0.5425,-20.525 -0.9256,-23 l -0.6967,-4.5 -0.5231,4.5 c -0.4254,3.6589 -0.897,4.5 -2.5232,4.5 -1.739,0 -1.9561,-0.5547 -1.664,-4.25 0.7529,-9.5241 -3.7643,-2.1591 -8.409,13.7103 -2.0149,6.884 -2.6142,11.6418 -3.0911,24.5397 -0.7193,19.4537 1.3964,47.9546 4.288,57.7645 0.6556,2.2242 2.3761,1.2658 2.3761,-1.3235 0,-1.2743 0.6869,-1.941 2,-1.941 2.1627,0 2.2702,0.3598 2.0172,6.75 -0.1767,4.4627 1.5991,5.9394 2.405,2 0.9955,-4.8663 1.8011,-12.7559 2.4251,-23.75 0.5857,-10.3195 0.844,-11.5 2.5164,-11.5 1.4728,0 2.2394,1.4797 3.6556,7.0563 0.9856,3.8809 2.5414,8.8309 3.4574,11 0.916,2.169 2.5958,6.6437 3.7329,9.9437 2.2917,6.6508 8.2218,19.157 10.1926,21.4953 3.4692,4.1163 10.7483,24.4626 12.6418,35.3359 0.6359,3.6514 0.9986,10.6393 0.8061,15.5286 -0.3363,8.5401 -0.582,9.3555 -6.2472,20.7379 -4.9293,9.9036 -7.063,13.0015 -13,18.87527 -3.9066,3.8648 -8.4241,7.927 -10.0389,9.027 -1.6147,1.1 -4.0897,2.9542 -5.5,4.1203 -1.4102,1.1662 -4.8943,3.1203 -7.7425,4.3424 -2.8481,1.2221 -5.4133,2.8342 -5.7004,3.5824 -0.2872,0.7483 0.8172,2.4874 2.4541,3.8647 3.0924,2.6021 9.9041,11.0538 9.9526,12.3489 0.015,0.4077 1.3366,2.0251 2.9362,3.5942 3.7935,3.7211 9.9197,19.1018 10.9714,27.5453 0.4522,3.631 0.7421,11.1018 0.6441,16.6018 -0.2241,12.5784 -2.0183,16.8323 -10.7937,25.5906 -6.9918,6.9782 -23.1196,20.9094 -24.2063,20.9094 -0.3715,0 -1.7428,1.2375 -3.0473,2.75 -1.796,2.0822 -2.5321,4.4498 -3.0315,9.75 -0.3628,3.85 -1.5107,14.425 -2.551,23.5 -1.0402,9.075 -2.5849,22.575 -3.4325,30 -1.4444,12.6519 -2.215,19.0289 -3.0222,25.0071 -0.9515,7.047 -4.4815,37.0409 -5.5297,46.9845 -0.5503,5.2204 -1.4223,13.3204 -1.9377,18 -0.5155,4.6796 -0.9255,14.1833 -0.911,21.1192 0.027,13.0978 -0.6741,19.503 -2.3694,21.6392 -1.5325,1.931 -2.6848,1.5012 -4.022,-1.5 z m 6.6845,-73.5 c 0.3674,-4.5375 1.0941,-11.625 1.6149,-15.75 0.5209,-4.125 1.4056,-12 1.9662,-17.5 0.5605,-5.5 1.4431,-12.475 1.9614,-15.5 0.5183,-3.025 1.1594,-8.425 1.4247,-12 0.2654,-3.575 0.9351,-9.65 1.4883,-13.5 2.2208,-15.4554 4.4591,-38.509 3.8026,-39.1655 -0.8782,-0.8782 -7.591,5.4744 -8.6541,8.1898 -0.4359,1.1133 -1.0699,9.4383 -1.4089,18.5 -1.2544,33.5337 -2.3117,55.7598 -3.5906,75.4757 -1.2088,18.6349 -1.2151,19.5 -0.1433,19.5 0.479,0 1.1714,-3.7125 1.5388,-8.25 z m -6.0408,1 c 0.2821,-2.8875 0.4865,-6.375 0.4542,-7.75 -0.032,-1.375 0.1997,-7 0.5155,-12.5 0.5823,-10.1385 1.2409,-25.6258 2.1689,-51 0.2816,-7.7 0.7745,-17.4875 1.0954,-21.75 0.8547,-11.3551 -1.4196,-10.2029 -9.196,4.6584 -5.8517,11.183 -9.88,28.5754 -8.9383,38.5916 1.6768,17.8369 3.0136,26.8659 4.5156,30.5 0.9093,2.2 2.9694,8.6125 4.578,14.25 1.6087,5.6375 3.2329,10.25 3.6094,10.25 0.3764,0 0.9153,-2.3625 1.1973,-5.25 z m 15.9432,-122.1536 4.8121,-4.3139 0.9279,-9.8913 c 0.5102,-5.4401 1.3759,-13.2662 1.9235,-17.3912 0.916,-6.8985 5.5328,-48.2367 6.4232,-57.5112 0.2106,-2.1938 0.7149,-7.4295 1.1206,-11.6348 0.6961,-7.2155 0.6147,-7.7119 -1.4455,-8.8144 -1.2007,-0.6427 -3.171,-1.0408 -4.3785,-0.8849 -2.9283,0.3783 -4.6954,-0.8393 -4.6954,-3.2352 0,-2.093 1.9846,-3.2175 8.6354,-4.893 4.5575,-1.1482 5.3276,-2.5497 5.3509,-9.7375 0.01,-2.3161 0.8947,-11.99107 1.9715,-21.49997 1.0767,-9.509 2.2071,-20.214 2.512,-23.789 0.3048,-3.575 0.7601,-7.85 1.0117,-9.5 0.6377,-4.1809 1.2507,-9.536 2.5211,-22.0257 0.6025,-5.9225 1.1266,-11.0395 1.1648,-11.3712 0.3615,-3.1394 -0.39,-4.1031 -3.1995,-4.1031 -1.6677,0 -4.6405,0.672 -6.6063,1.4934 -3.9714,1.6593 -5.3616,1.2864 -5.3616,-1.4385 0,-1.8548 5.3185,-5.0549 8.4011,-5.0549 2.024,0 2.0757,-3.1773 0.1134,-6.9719 -3.2498,-6.2845 -6.0115,-17.2717 -7.0448,-28.0281 -0.2907,-3.025 -0.9919,-9.633 -1.5584,-14.6845 -1.114,-9.9338 -0.4218,-39.1083 1.0854,-45.749 1.5595,-6.8707 4.7983,-15.9481 7.9744,-22.3496 1.6659,-3.3576 3.0289,-6.5318 3.0289,-7.0538 0,-1.3609 -2.8238,-2.2572 -3.527,-1.1194 -0.7807,1.2632 -4.1875,1.2272 -4.9785,-0.053 -1.5393,-2.4907 0.6509,-4.8904 5.0681,-5.5528 2.4541,-0.368 4.708,-1.0672 5.0087,-1.5537 0.3007,-0.4865 1.3504,-0.8846 2.3327,-0.8846 0.9823,0 2.5535,-0.848 3.4914,-1.8845 1.7732,-1.9593 1.7983,-14.7529 0.1358,-69.1155 -0.9998,-32.6915 -2.2325,-88.0529 -3.0727,-138 -0.273,-16.225 -0.7033,-38.725 -0.9564,-50 -0.253,-11.275 -0.7467,-40.525 -1.097,-65 -0.3503,-24.475 -0.8098,-44.6875 -1.021,-44.9167 -1.0169,-1.1032 -1.3708,1.5505 -1.8632,13.9731 -0.2931,7.394 -1.1853,26.0436 -1.9828,41.4436 -0.7975,15.4 -1.7146,34.975 -2.038,43.5 -0.3234,8.525 -0.7841,18.425 -1.0237,22 -0.2397,3.575 -0.888,17.525 -1.4407,31 -0.5528,13.475 -1.2293,27.65 -1.5034,31.5 -0.2741,3.85 -0.7497,13.525 -1.0568,21.5 -0.3072,7.975 -0.9847,23.95 -1.5056,35.5 -0.9051,20.0695 -1.313,30.8441 -2.4793,65.5 -0.287,8.525 -0.74,19.325 -1.0067,24 -0.2668,4.675 -0.7172,15.925 -1.001,25 -0.2837,9.075 -0.7135,21 -0.9549,26.5 -0.2415,5.5 -0.7287,19.45 -1.0827,31 -0.354,11.55 -0.8077,22.35 -1.0082,24 -0.2004,1.65 -0.6124,10.425 -0.9155,19.5 -0.303,9.075 -0.9824,25.725 -1.5096,37 -0.5273,11.275 -1.2016,27.25 -1.4985,35.5 -0.2968,8.25 -0.7615,19.275 -1.0324,24.5 -0.4775,9.2069 -0.9408,20.4131 -1.9639,47.49997 -1.1175,29.5853 -1.6072,41.4178 -2.0279,49 -0.2441,4.4 -0.9348,20.825 -1.5348,36.5 -0.6,15.675 -1.4459,32.325 -1.8798,37 -1.0988,11.8408 -0.9135,12.007 6.2374,5.5964 z m 14.7417,-12.1962 c 1.8954,-1.9799 6.1462,-5.6652 9.4462,-8.1896 3.3,-2.5244 8.2954,-6.9998 11.1009,-9.9452 5.8097,-6.0995 7.8376,-12.257 7.4973,-22.7654 -0.2486,-7.6756 -2.0407,-18.3464 -3.2017,-19.064 -0.4931,-0.3047 -0.8965,-1.3451 -0.8965,-2.312 0,-2.4431 -5.7161,-13.3856 -7.5195,-14.3949 -0.8143,-0.4556 -1.4898,-1.3686 -1.5011,-2.0288 -0.011,-0.6602 -1.9568,-3.4135 -4.3233,-6.1185 -4.713,-5.3872 -6.8027,-5.4689 -6.562,-0.2566 0.1335,2.889 -1.469,21.1094 -2.6098,29.6748 -1.1435,8.5857 -3.3604,28.1231 -3.9239,34.5818 -0.3399,3.8949 -1.2031,10.7593 -1.9184,15.2541 -1.6972,10.666 -1.1422,11.3659 4.4118,5.5643 z m 12.9462,-112.8757 c 1.375,-0.7953 3.175,-1.7743 4,-2.1755 5.0813,-2.4712 23,-19.78577 23,-22.22457 0,-0.6023 1.2998,-3.6892 2.8885,-6.8598 6.3752,-12.7234 7.8537,-21.2843 5.572,-32.2646 -1.1743,-5.6507 -2.7613,-10.2755 -9.6084,-28 -0.7437,-1.925 -1.6707,-3.7399 -2.0601,-4.033 -1.6022,-1.2064 -10.6384,-19.927 -12.1829,-25.2397 -1.7646,-6.0699 -3.6091,-7.5796 -3.6091,-2.9539 0,1.5254 -1.0989,11.5379 -2.4419,22.25 -1.3431,10.7121 -2.7009,22.8516 -3.0174,26.9766 -0.8004,10.4328 -3.3541,34.0851 -4.5999,42.6031 -0.5713,3.9067 -0.9204,7.5067 -0.7758,8 0.2238,0.7634 -1.2813,13.41567 -2.6941,22.64687 -0.4891,3.1957 1.4391,3.6402 5.5291,1.2745 z m 17.8213,-193.91317 c 6.1701,-7.7323 8.6707,-9.7043 18.755,-14.7902 4.9473,-2.495 9.879,-5.0226 10.9594,-5.6168 1.0803,-0.5942 4.5258,-2.2341 7.6565,-3.6443 3.1307,-1.4101 5.9226,-2.9368 6.2043,-3.3925 0.2816,-0.4557 3.5702,-2.0726 7.3078,-3.5931 3.7376,-1.5204 11.661,-4.9717 17.6075,-7.6694 5.9465,-2.6978 11.5779,-4.905 12.5142,-4.905 0.9362,0 4.1709,-0.9405 7.1881,-2.0901 3.0173,-1.1495 7.2859,-2.5451 9.4859,-3.1012 2.2,-0.5561 5.418,-1.6406 7.1511,-2.4099 1.7332,-0.7694 3.6128,-1.3988 4.177,-1.3988 0.9341,0 8.4597,-3.3018 21.6719,-9.5082 6.659,-3.1281 16.0919,-9.8284 22.6555,-16.0924 5.37,-5.1248 13.8445,-14.7933 13.8445,-15.7951 0,-0.2952 1.7742,-3.2818 3.9426,-6.6367 6.7567,-10.454 9.2535,-20.1796 9.3838,-36.5511 0.1183,-14.8731 -1.273,-26.5367 -4.5228,-37.9165 -1.0995,-3.85 -2.2405,-8.125 -2.5355,-9.5 -0.2951,-1.375 -0.8662,-2.95 -1.2692,-3.5 -0.403,-0.55 -1.7267,-4.0298 -2.9416,-7.7329 -1.317,-4.0142 -3.7935,-8.6504 -6.1331,-11.4817 -2.1583,-2.6118 -3.9242,-5.3038 -3.9242,-5.9823 0,-0.6784 -1.3421,-2.7621 -2.9825,-4.6304 -1.6403,-1.8682 -4.4528,-6.1932 -6.25,-9.6111 -4.9182,-9.3536 -6.0379,-11.2461 -8.9113,-15.0616 -1.4496,-1.925 -4.032,-6.293 -5.7385,-9.7067 -1.7065,-3.4137 -4.4561,-7.7481 -6.1102,-9.632 -1.6541,-1.8839 -3.0075,-3.9443 -3.0075,-4.5785 0,-1.5259 -2.4339,-5.3684 -7.3367,-11.5828 -1.3017,-1.65 -4.9667,-7.05 -8.1445,-12 -3.1777,-4.95 -6.6005,-10.125 -7.6061,-11.5 -1.0056,-1.375 -3.682,-6.1 -5.9475,-10.5 -2.2654,-4.4 -4.5213,-8.675 -5.0129,-9.5 -2.5139,-4.2184 -15.9523,-29.1383 -15.9523,-29.5816 0,-0.2829 -1.6106,-3.0323 -3.5792,-6.1097 -1.9686,-3.0774 -4.0026,-6.5432 -4.5201,-7.7019 -0.5175,-1.1588 -2.2673,-4.1318 -3.8885,-6.6068 -1.6212,-2.475 -4.0947,-6.6375 -5.4967,-9.25 -1.4021,-2.6125 -2.8791,-4.7552 -3.2823,-4.7615 -0.4033,-0.01 -1.5931,-1.8063 -2.6441,-4 -1.051,-2.1937 -2.2581,-3.9885 -2.6826,-3.9885 -0.4244,0 -1.0565,-0.8973 -1.4046,-1.9941 -0.3481,-1.0967 -1.1974,-2.5592 -1.8872,-3.25 -2.5255,-2.5287 -12.6147,-15.9882 -12.6147,-16.8286 0,-0.4763 -3.8657,-6.6173 -8.5905,-13.6467 -4.7247,-7.0293 -10.3711,-16.1011 -12.5474,-20.1596 -2.1764,-4.0584 -5.0076,-8.7834 -6.2915,-10.5 -1.284,-1.7165 -3.0763,-4.471 -3.983,-6.121 -0.9066,-1.65 -2.5402,-4.35 -3.6302,-6 -1.09,-1.65 -3.7935,-6.825 -6.0077,-11.5 -4.0151,-8.4775 -4.6657,-9.9355 -6.8626,-15.37923 -0.6391,-1.58357 -1.4389,-2.60233 -1.7773,-2.2639 -0.6297,0.62971 -0.5335,26.11473 0.193,51.14313 0.4444,15.307 2.1628,105.9058 2.9874,157.5 1.6799,105.1072 2.3173,138.831 3.0336,160.5 0.291,8.8 0.7269,24.325 0.9689,34.5 0.4778,20.0938 1.4357,50.4722 2.0182,64 0.2013,4.675 0.3937,15.3625 0.4275,23.75 0.034,8.3875 0.4039,15.25 0.8223,15.25 0.4183,0 2.6956,-2.4249 5.0606,-5.3887 z m 10.9287,-58.721 c -3.2121,-1.8165 -2.0046,-4.6629 3.5,-8.2508 2.8875,-1.882 6.6,-4.5829 8.25,-6.002 4.2304,-3.6383 16.2676,-12.6509 21.0084,-15.7297 13.6069,-8.8367 19.1383,-12.5682 20.4171,-13.7736 0.7969,-0.7512 3.2806,-2.1509 5.5192,-3.1105 2.2387,-0.9596 5.4169,-2.8626 7.0628,-4.2288 6.2983,-5.2283 20.4397,-8.0973 26.8042,-5.438 5.2155,2.1792 6.1193,4.5592 4.6627,12.2789 -1.8722,9.9224 -7.2134,16.5538 -10.6029,13.1643 -1.5547,-1.5547 -1.4512,-2.0008 1.5489,-6.676 2.3201,-3.6156 3.1264,-5.9303 2.8972,-8.317 -0.3116,-3.2443 -0.4188,-3.3129 -5.6407,-3.6119 -4.8646,-0.2785 -13.7765,1.9953 -15.1769,3.8723 -0.275,0.3686 -2.75,1.8113 -5.5,3.206 -2.75,1.3948 -10.0927,5.9538 -16.3171,10.1312 -6.2244,4.1774 -11.7369,7.5953 -12.25,7.5953 -0.5131,0 -0.9329,0.3777 -0.9329,0.8393 0,0.4616 -3.7125,3.4762 -8.25,6.6991 -4.5375,3.2229 -10.95,7.9517 -14.25,10.5084 -9.2707,7.1826 -10.7481,7.9756 -12.75,6.8435 z m -21.1463,-298.4805 c -0.7442,-1.9396 -0.025,-3.1841 3.6024,-6.2367 3.8001,-3.1976 3.6157,-6.9343 -0.7061,-14.3084 -3.7658,-6.4254 -4.4518,-10.5622 -1.9131,-11.5364 4.0107,-1.5391 12.4131,12.7481 12.4131,21.1066 0,4.6911 -0.3789,5.6107 -3.6667,8.8984 -3.9542,3.9542 -8.6264,4.9513 -9.7296,2.0765 z m -29.0467,270.3526 c 0.8719,-20.7556 1.4408,-38.7556 1.2642,-40 -0.2602,-1.8324 -0.9864,-2.2826 -3.8212,-2.3686 -4.2095,-0.1278 -46.138,-0.524 -47.3558,-0.4475 -0.4706,0.029 0.4294,1.3065 2,2.8377 5.24,5.1084 9.4343,10.4805 9.0601,11.6044 -0.5631,1.6915 -3.2932,1.8806 -4.8329,0.3346 -0.7543,-0.7573 -2.8616,-3.077 -4.6831,-5.1549 -1.8214,-2.078 -3.5271,-3.5626 -3.7906,-3.2992 -0.7471,0.7472 2.611,14.516 5.251,21.5299 4.2287,11.2346 15.8514,32.6882 21.1746,39.0846 9.2968,11.1712 18.0615,17.3754 14.1065,9.9854 -0.66,-1.2331 -1.4064,-3.7742 -1.6588,-5.6468 -0.3897,-2.892 -0.1815,-3.3514 1.3824,-3.0502 1.632,0.3143 4.4232,6.0742 7.9125,16.3282 1.5309,4.4989 2.4543,-5.158 3.9911,-41.7376 z M 518.46166,1332.4279 c -0.99478,-2.5924 0.63636,-3.5479 6.05657,-3.5479 5.33505,0 8.45849,1.7427 7.0905,3.9562 -1.0374,1.6785 -12.48267,1.3231 -13.14707,-0.4083 z m -8.85019,-0.4997 c -1.2738,-2.061 0.52885,-5.1809 2.80608,-4.8565 3.05429,0.4351 3.06144,5.1804 0.008,5.6155 -1.1856,0.1689 -2.45215,-0.1726 -2.81455,-0.759 z m -211.02981,-14.0759 c -8.8,-4.3538 -16.60868,-7.9287 -17.35262,-7.9442 -0.74394,-0.015 -3.44394,-1.1221 -6,-2.4592 -2.55606,-1.3371 -7.12238,-3.5401 -10.14738,-4.8955 -3.025,-1.3555 -12.475,-5.8343 -21,-9.9531 -8.525,-4.1187 -21.35,-10.2891 -28.5,-13.7119 -13.51701,-6.4709 -16.5,-8.3986 -16.5,-10.6634 0,-2.6494 4.10359,-1.2153 21.67217,7.5738 9.80531,4.9053 22.77783,11.2421 28.82783,14.0818 9.2759,4.3537 16.14656,7.7407 24.5,12.0774 5.3136,2.7586 11.18983,5.0655 11.67275,4.5826 0.31259,-0.3126 -0.72339,-2.2766 -2.3022,-4.3645 -1.5788,-2.0878 -3.72828,-5.3711 -4.77661,-7.2961 -2.96694,-5.448 -10.82848,-17.3104 -12.74726,-19.2345 -0.95132,-0.9539 -3.12344,-4.6548 -4.82694,-8.2241 -1.70349,-3.5694 -4.56433,-8.4139 -6.35741,-10.7656 -5.24348,-6.877 -7.71402,-11.8819 -12.23006,-24.7758 -5.35383,-15.2859 -5.48269,-26.3152 -0.47953,-41.0445 4.11235,-12.1067 7.36071,-20.5092 10.80744,-27.9555 1.65479,-3.575 3.28761,-7.175 3.62849,-8 1.36506,-3.3037 14.57102,-24.9784 16.34174,-26.8214 0.69827,-0.7268 1.26959,-1.7168 1.26959,-2.1999 0,-0.4831 1.34528,-2.8718 2.98952,-5.3081 1.64423,-2.4363 5.99724,-10.4463 9.67334,-17.8001 3.6761,-7.3538 7.47903,-14.5273 8.45095,-15.9413 0.97192,-1.4139 2.29036,-4.6487 2.92987,-7.1884 1.39142,-5.5258 4.52338,-8.9935 6.05225,-6.701 1.62006,2.4292 0.10567,8.533 -4.65284,18.7533 -2.48572,5.3388 -4.88205,10.3819 -5.32517,11.2069 -1.96292,3.6546 -3.01653,5.7587 -4.75705,9.5 -1.02348,2.2 -2.91764,5.3246 -4.20924,6.9436 -1.2916,1.619 -2.76078,3.869 -3.26485,5 -0.50406,1.131 -1.69729,3.1972 -2.65163,4.5915 -0.95433,1.3943 -2.63515,4.0258 -3.73515,5.8477 -1.1,1.822 -4.5875,7.2881 -7.75,12.1469 -3.1625,4.8588 -5.75,9.5524 -5.75,10.4302 0,0.8778 -2.1995,6.1959 -4.88778,11.818 -6.82333,14.27 -7.77501,16.7153 -10.7448,27.6076 -2.18089,7.999 -2.52285,10.8963 -2.03506,17.243 0.52562,6.839 3.69862,18.7488 5.69379,21.3715 0.8728,1.1473 3.24601,5.2918 10.30714,18 2.75039,4.95 5.8217,10.35 6.82512,12 1.00342,1.65 2.13942,3.6616 2.52445,4.4701 0.38504,0.8086 3.4264,5.5483 6.7586,10.5327 3.3322,4.9844 7.18354,10.9939 8.55854,13.3543 2.33214,4.0036 5.32873,7.227 14,15.0596 3.34367,3.0203 9.12231,6.1925 17.25,9.4693 2.4382,0.9831 3.75,2.1595 3.75,3.363 0,2.2776 -1.87584,4.2699 -3.95,4.1952 -0.8525,-0.031 -8.75,-3.6181 -17.55,-7.9719 z m 29.75,6.361 c -1.9032,-0.7612 -1.49097,-4.134 0.64499,-5.2771 2.51802,-1.3476 4.99767,1.3051 3.47558,3.7181 -1.15699,1.8342 -2.32645,2.2767 -4.12057,1.559 z m 10.09003,-0.8896 c -0.90981,-2.3709 0.75348,-4.6446 4.23141,-5.7843 7.5603,-2.4775 21.52057,-14.202 29.32707,-24.6303 3.00139,-4.0094 12.10149,-19.0989 12.10149,-20.0663 0,-0.3948 0.69758,-1.2969 1.55019,-2.0045 1.27953,-1.0619 1.83558,-1.0011 3.18476,0.3481 1.51277,1.5127 1.45903,2.0094 -0.72112,6.6641 -1.29564,2.7662 -2.63377,5.0295 -2.97362,5.0295 -0.33985,0 -1.87649,2.4056 -3.41475,5.3458 -1.53826,2.9402 -3.92233,6.6527 -5.29793,8.25 -1.37561,1.5973 -3.22992,4.1347 -4.12069,5.6386 -2.21867,3.7458 -18.72674,17.8712 -23.25512,19.8986 -6.33027,2.8341 -9.85981,3.2701 -10.61169,1.3107 z m 172.15146,-5.4575 c -0.34459,-0.5575 -0.32892,-4.495 0.0348,-8.75 0.99603,-11.651 -2.61767,-41.4842 -6.56964,-54.2362 -0.59657,-1.925 -2.58868,-9.8272 -4.42691,-17.5604 -1.83822,-7.7332 -4.48263,-17.4082 -5.87645,-21.5 -1.39382,-4.0918 -3.10215,-10.2574 -3.79628,-13.7014 -1.07416,-5.3295 -1.0458,-6.4779 0.19046,-7.7138 2.46909,-2.4683 4.01527,-0.2174 6.01479,8.7562 1.05002,4.7124 2.78916,10.9645 3.86477,13.8937 1.07561,2.9291 2.24743,7.1257 2.60404,9.3257 0.84748,5.2282 3.42205,15.4622 4.52827,18 0.73964,1.6968 2.86848,9.5555 4.60511,17 3.49042,14.9625 6.14745,52.7592 3.95791,56.302 -0.90227,1.4599 -4.2678,1.5807 -5.13089,0.1842 z m 26.0979,-11.8416 c -0.29075,-0.4704 -0.32858,-3.9579 -0.0841,-7.75 0.73257,-11.3612 1.45778,-45.2195 1.55865,-72.7696 0.0521,-14.2313 0.33218,-26.4938 0.62237,-27.25 0.2902,-0.7563 1.21536,-1.375 2.0559,-1.375 1.34709,0 1.45249,2.9345 0.88929,24.75 -0.35143,13.6125 -0.90811,38.025 -1.23706,54.25 -0.32895,16.225 -0.80384,29.8375 -1.0553,30.25 -0.61397,1.0072 -2.09733,0.9503 -2.74978,-0.1054 z m 609.89375,-29.1978 c -0.8435,-2.6576 1.6367,-5.4986 4.0063,-4.5892 2.5156,0.9653 1.605,6.0577 -1.1535,6.4507 -1.4997,0.2136 -2.3756,-0.3579 -2.8528,-1.8615 z m 0.77,-11.1968 c -0.5455,-0.6875 -1.3069,-5.2837 -1.692,-10.2137 -0.3851,-4.93 -1.5454,-12.58 -2.5785,-17 -7.1722,-30.6855 -9.4096,-78.2589 -4.8866,-103.9047 0.5692,-3.2276 1.4105,-6.6026 1.8694,-7.5 0.8177,-1.5989 8.0346,-26.3185 8.0346,-27.5206 0,-1.8855 -2.0707,0.025 -5.0288,4.639 -4.0259,6.2802 -13.502,19.5954 -18.1376,25.486 -5.8007,7.371 -27.9239,30.1567 -31.3147,32.2523 -5.2829,3.265 -8.9438,2.665 -14.2335,-2.3328 -4.5949,-4.3414 -4.5985,-4.3501 -5.0603,-12.3285 -0.4422,-7.6381 0.9722,-14.6395 4.8136,-23.827 0.4599,-1.1 2.6741,-7.625 4.9204,-14.5 2.2462,-6.875 4.4671,-13.1898 4.9353,-14.0328 0.4682,-0.8431 1.1793,-3.0262 1.5802,-4.8513 0.4008,-1.8252 1.8439,-5.8604 3.2068,-8.9672 1.3629,-3.1068 2.8067,-6.5487 3.2083,-7.6487 1.7162,-4.7 8.7555,-18.2266 10.8323,-20.8152 5.1747,-6.4498 9.278,-14.7809 9.278,-18.8372 0,-9.4064 9.402,-21.8028 22,-29.0065 3.025,-1.7298 6.4,-3.9338 7.5,-4.89787 1.1,-0.964 3.3945,-2.5831 5.0989,-3.598 1.7044,-1.0149 6.2489,-4.2577 10.099,-7.2063 l 7.0001,-5.3611 1.1525,-10.6389 c 1.6624,-15.3476 1.5802,-16.2216 -1.8829,-20.0132 -5.9116,-6.4724 -8.3146,-12.7256 -8.5211,-22.1743 -0.2186,-9.9979 -2.1429,-14.9514 -5.8083,-14.9514 -2.5332,0 -13.182,-8.0826 -17.4493,-13.2442 -1.4789,-1.7888 -3.5889,-4.247 -4.6889,-5.4625 -1.1,-1.2155 -3.2483,-3.9163 -4.7739,-6.0017 -1.5257,-2.0854 -4.6757,-6.2078 -7,-9.1609 -2.3244,-2.9532 -4.6703,-6.2157 -5.2132,-7.25 -0.5429,-1.0344 -1.2301,-1.8807 -1.527,-1.8807 -0.2969,0 -3.4527,-3.6417 -7.0129,-8.0928 -7.3377,-9.1737 -32.1958,-37.2292 -41.375,-46.6968 -6.551,-6.7568 -22.649,-18.0809 -31.598,-22.2276 -8.1861,-3.7932 -13.796,-6.8437 -14.4086,-7.8349 -0.2993,-0.4843 0.3308,-1.6725 1.4002,-2.6403 1.8643,-1.6872 2.2159,-1.6445 8.5222,1.0358 3.6177,1.5375 6.8086,3.1692 7.0909,3.626 0.2823,0.4568 1.4993,0.8605 2.7043,0.897 1.2051,0.037 4.216,1.5827 6.691,3.436 2.475,1.8533 7.425,5.3876 11,7.854 5.6947,3.9288 18.6999,16.5854 25.9307,25.2357 3.3517,4.0098 14.2209,16.3895 17.4285,19.8504 1.4524,1.5673 2.6408,3.2065 2.6408,3.6427 0,0.7198 5.8399,8.0855 9.5132,11.9987 0.8177,0.8711 1.4868,2.0204 1.4868,2.5538 0,0.5335 1.6149,2.5207 3.5887,4.4161 1.9737,1.8954 6.2847,7.0462 9.5799,11.4462 6.0823,8.1216 23.4011,26.5 24.9721,26.5 1.1137,0 1.0961,-2.938 -0.04,-6.6008 -0.4945,-1.5945 -1.6368,-7.3992 -2.5385,-12.8992 -0.9018,-5.5 -2.1407,-12.475 -2.7532,-15.5 -0.6125,-3.025 -1.2337,-6.625 -1.3803,-8 -0.1466,-1.375 -0.7261,-5.2 -1.2878,-8.5 -0.5618,-3.3 -1.2471,-7.575 -1.5231,-9.5 -0.2759,-1.925 -1.2047,-8.45 -2.064,-14.5 -0.8593,-6.05 -1.898,-19.4535 -2.3082,-29.7855 -0.6471,-16.2974 -0.523,-19.4408 0.9373,-23.7327 1.9523,-5.7379 4.7335,-10.7359 6.3111,-11.3412 1.7447,-0.6695 8.4772,1.984 10.9661,4.3222 4.9448,4.6454 16.5396,30.6533 16.5396,37.0995 0,2.424 -2.5129,3.5869 -4.3881,2.0306 -0.7494,-0.622 -1.9516,-3.2599 -2.6715,-5.8619 -1.3952,-5.0429 -3.368,-9.9038 -8.1357,-20.0455 -1.9634,-4.1766 -4.041,-6.9685 -6.1366,-8.2462 -4.3155,-2.6315 -5.2058,-2.4598 -6.7968,1.3107 -1.4346,3.4001 -1.7611,29.3246 -0.4956,39.3537 0.9277,7.3521 3.4436,26.0343 4.4975,33.3963 0.5117,3.575 1.1887,7.175 1.5044,8 0.3157,0.825 1.7178,8.9031 3.1158,17.9512 3.1137,20.1529 7.7676,37.1022 11.3436,41.3127 1.1481,1.3517 2.3351,1.6128 5.0805,1.1173 1.9704,-0.3556 3.709,-0.7508 3.8636,-0.8783 0.1545,-0.1274 0.4907,-3.5552 0.747,-7.6173 0.2563,-4.0621 0.6885,-9.4106 0.9605,-11.8856 0.272,-2.475 0.9477,-12.825 1.5016,-23 0.5539,-10.175 1.2152,-20.525 1.4697,-23 0.7893,-7.6782 1.5049,-17.8221 2.5396,-36 0.5478,-9.625 1.4533,-22.9 2.012,-29.5 1.3982,-16.5149 2.7526,-36.5232 3.5201,-52 0.3545,-7.15 1.2306,-20.425 1.9468,-29.5 0.7162,-9.075 1.1983,-16.6158 1.0713,-16.7572 -0.4015,-0.4474 -51.5566,-1.5975 -122.5497,-2.7553 -17.875,-0.2916 -33.7375,-0.7813 -35.25,-1.0883 -1.6146,-0.3277 -2.75,-0.1226 -2.75,0.4966 0,0.7189 -0.8166,0.7442 -2.5651,0.079 -1.4108,-0.5363 -7.3733,-0.9821 -13.25,-0.9905 -11.3999,-0.016 -13.59574,-0.6244 -13.01594,-3.6045 0.3402,-1.7486 1.41454,-1.8695 15.34844,-1.7278 8.2404,0.084 23.7576,0.4259 34.4826,0.7601 49.143,1.5315 81.5982,2.2198 124.4684,2.6395 l 14.9683,0.1466 0.6897,-2.5788 c 0.3793,-1.4183 0.9705,-7.4255 1.3137,-13.3493 0.7182,-12.3975 3.2975,-53.1887 4.0639,-64.2705 0.2853,-4.125 0.9795,-14.025 1.5428,-22 0.5634,-7.975 1.2485,-18.325 1.5226,-23 0.2741,-4.675 1.359,-19.3 2.4109,-32.5 1.0519,-13.2 2.1921,-28.95 2.5339,-35 0.3417,-6.05 0.7961,-13.25 1.0099,-16 0.2137,-2.75 0.8697,-11.75 1.4578,-20 0.5881,-8.25 1.5021,-19.95 2.0311,-26 0.529,-6.05 1.4406,-19.1 2.0259,-29 0.5852,-9.9 1.2286,-19.8 1.4298,-22 0.2012,-2.2 0.6571,-8.05 1.0132,-13 0.356,-4.95 1.2841,-17.325 2.0624,-27.5 0.7782,-10.175 1.6689,-23.9 1.9792,-30.5 1.0848,-23.06919 1.3708,-28.05462 2.0367,-35.5 1.7519,-19.58902 1.9024,-20.46847 3.5556,-20.78531 1.5551,-0.29802 3.2247,3.19628 5.87,12.28531 5.2859,18.16205 22.7485,61.29158 26.2322,64.789 0.9801,0.9839 1.782,2.2082 1.782,2.7207 0,0.5125 1.2909,2.8575 2.8688,5.2111 1.5778,2.3535 4.7868,7.6542 7.1312,11.7792 2.3444,4.125 5.5534,9.4257 7.1312,11.7792 1.5779,2.3536 2.8688,4.6319 2.8688,5.0629 0,0.4311 1.35,2.0771 3,3.6579 1.65,1.5808 3.0125,3.3525 3.0278,3.9371 0.039,1.5083 5.1821,8.1257 11.3172,14.5629 6.2081,6.5138 11.9093,13.5737 13.6204,16.8667 1.0102,1.9439 0.9633,2.6332 -0.2622,3.8587 -1.8518,1.8518 -3.803,0.8833 -7.0284,-3.4884 -1.3009,-1.7633 -5.5849,-6.5833 -9.52,-10.7112 -6.4523,-6.7684 -10.2708,-11.9083 -19.6548,-26.4567 -1.65,-2.5581 -4.125,-6.2034 -5.5,-8.1006 -1.375,-1.8973 -4.0014,-6.3789 -5.8364,-9.9591 -1.8351,-3.5802 -3.9109,-7.1844 -4.613,-8.0094 -3.5945,-4.2236 -17.1037,-31.0624 -19.7018,-39.14139 -1.6352,-5.08483 -4.0657,-11.5547 -5.4011,-14.37749 -1.3354,-2.82279 -2.7116,-6.55073 -3.0583,-8.28431 -0.3468,-1.73357 -1.2512,-3.66715 -2.0099,-4.29683 -1.1511,-0.95531 -1.4027,0.15858 -1.5194,6.72758 -0.077,4.32984 -0.236,9.44744 -0.3535,11.37244 -0.226,3.70101 -1.4596,41.6064 -1.9852,61 -0.4094,15.1058 -1.5011,48.6492 -2.034,62.5 -0.2328,6.05 -0.6724,17.75 -0.977,26 -0.8694,23.5552 -1.4378,38.0609 -1.9788,50.5 -0.5391,12.3958 -1.157,30.6904 -2.0265,60 -0.3018,10.175 -0.8106,23 -1.1306,28.5 -0.32,5.5 -0.5533,10.675 -0.5184,11.5 0.035,0.825 -0.3582,14.1 -0.8734,29.5 -1,29.888 -1.7225,53.9924 -2.488,83 -1.0813,40.9794 -1.5751,57.5927 -2.0304,68.3109 l -0.4804,11.311 8.2727,-8.311 c 4.5499,-4.571 11.5987,-10.3359 15.6638,-12.8109 4.0652,-2.475 8.0509,-5.5123 8.8571,-6.7496 1.422,-2.1823 1.2901,-2.3303 -4.4058,-4.9447 -3.2294,-1.4823 -9.6894,-3.6862 -14.3555,-4.8974 -8.6,-2.2326 -10.8458,-3.8041 -9.7006,-6.7882 0.766,-1.9963 5.6589,-1.5053 15.6844,1.5738 13.9843,4.2949 20,8.4517 20,13.8197 0,3.511 -5.9084,9.6193 -13.544,14.0022 -8.1886,4.7003 -19.5879,16.5674 -22.0918,22.9985 -1.8975,4.8736 -2.4554,5.4857 -5,5.4857 l -2.8642,0 0,-20.5807 c 0,-11.3194 0.2887,-26.8444 0.6415,-34.5 0.3529,-7.6556 0.9397,-26.0693 1.3041,-40.9193 0.3644,-14.85 0.8359,-32.4 1.0477,-39 0.2119,-6.6 0.6908,-21.45 1.0642,-33 0.3735,-11.55 0.809,-27.075 0.9678,-34.5 0.7695,-35.9694 2.4266,-65.2969 3.7369,-66.1382 0.5833,-0.3745 0.6378,-1.2009 0.132,-2 -0.8125,-1.2834 -0.7037,-35.0124 0.1623,-50.3344 0.2185,-3.8651 0.6507,-17.1524 0.9605,-29.5274 0.3098,-12.375 0.7589,-23.7375 0.9981,-25.25 0.2392,-1.5125 0,-2.75 -0.5401,-2.75 -0.5362,0 -0.9738,2.1375 -0.9723,4.75 0,2.6125 -0.4346,9.475 -0.9691,15.25 -0.5346,5.775 -1.6589,20.4 -2.4986,32.5 -0.8397,12.1 -1.9869,28.525 -2.5494,36.5 -0.5625,7.975 -1.2437,17.875 -1.5137,22 -0.2701,4.125 -0.9159,13.125 -1.4353,20 -0.5193,6.875 -1.2413,16.775 -1.6043,22 -0.7171,10.3211 -0.7431,10.6689 -2.3952,32 -1.1216,14.4832 -2.0056,28.6931 -4.0124,64.5 -0.5857,10.45 -1.4459,22.6 -1.9115,27 -0.4656,4.4 -0.94,12.2595 -1.0541,17.4656 -0.1142,5.206 -0.3705,9.7292 -0.5696,10.0514 -0.1991,0.3222 -0.6097,4.8377 -0.9123,10.0344 -0.3026,5.1967 -1.004,16.1986 -1.5587,24.4486 -0.5547,8.25 -1.692,26.025 -2.5274,39.5 -0.8355,13.475 -1.9521,30.575 -2.4815,38 -0.5293,7.425 -1.2153,17.55 -1.5244,22.5 -0.309,4.95 -0.9697,13.5 -1.4681,19 -0.4984,5.5 -1.169,14.725 -1.4903,20.5 -0.3213,5.775 -0.8348,13.0385 -1.141,16.1411 l -0.5569,5.6411 4.4944,-1.4797 c 2.4719,-0.8137 5.4536,-2.5006 6.6259,-3.7485 2.2862,-2.4335 2.5117,-3.3206 3.5717,-14.0513 0.3802,-3.8485 0.8472,-8.3485 1.0377,-10 1.3119,-11.3689 4.4846,-40.047 4.9788,-45.0027 0.329,-3.3 1.1302,-10.725 1.7804,-16.5 l 1.1822,-10.5 2.9225,0 c 2.8443,0 2.9682,0.2142 4.629,8 0.9386,4.4 1.972,10.025 2.2965,12.5 0.3245,2.475 1.5406,8.1 2.7023,12.5 4.4891,17.0019 5.8826,23.1044 5.9155,25.9056 0.019,1.5981 1.078,4.2981 2.3538,6 3.6397,4.8556 14.7282,27.5695 15.6466,32.051 0.4558,2.2239 1.8873,8.5434 3.1812,14.0434 3.3792,14.3639 3.2039,31.8667 -0.4676,46.6658 -1.4553,5.8662 -3.0742,11.7162 -3.5977,13 -0.5235,1.2838 -2.126,6.2484 -3.5611,11.0325 -3.063,10.21037 -6.2772,13.80267 -12.3477,13.80007 -8.3131,0 -14.0617,-6.2123 -15.5446,-16.78867 -1.1603,-8.2763 -4.0952,-10.8039 -5.1782,-4.4597 -0.3521,2.0625 -1.0273,5.1 -1.5004,6.75 -0.4731,1.64997 -2.013,7.04997 -3.4221,11.99997 -1.409,4.95 -3.1806,10.35 -3.9368,12 -0.7562,1.65 -2.1317,4.8 -3.0568,7 -0.925,2.2 -3.1679,6.925 -4.9841,10.5 -3.4143,6.7205 -3.5196,7.3304 -6.5668,38 -1.1459,11.5331 -1.6827,16.2738 -4.4732,39.5 -1.3215,11 -3.3341,28.1 -4.4723,38 -1.1383,9.9 -2.5256,21.15 -3.083,25 -0.5574,3.85 -1.4382,10.825 -1.9574,15.5 -0.5193,4.675 -1.8328,15.475 -2.9191,24 -2.9629,23.2522 -2.9478,23.1293 -3.5038,28.5 -1.4216,13.7337 -1.7954,16.061 -2.7677,17.2326 -1.3459,1.6216 -4.2738,1.6308 -5.5539,0.017 z m 3.4991,-31.3282 c 0.1387,-2.707 0.9953,-13.2468 1.9036,-23.4218 0.9083,-10.175 1.6316,-19.4 1.6073,-20.5 -0.024,-1.1 0.3358,-4.475 0.8001,-7.5 0.4642,-3.025 1.1389,-11.8 1.4992,-19.5 0.3604,-7.7 0.8131,-14.2652 1.0061,-14.5894 0.1931,-0.3242 0.4031,-3.9242 0.4667,-8 0.063,-4.0758 0.5011,-11.0106 0.9724,-15.4106 0.4712,-4.4 1.1405,-14.3 1.4872,-22 0.8744,-19.4151 -0.1223,-18.071 -11.494,15.5 -3.5557,10.4972 -5.9326,21.1493 -7.0949,31.7964 -1.4967,13.7107 -0.5776,38.9403 2.1384,58.7036 2.2437,16.326 3.8426,28.5204 3.9118,29.8333 0.024,0.4584 0.6064,0.6482 1.2939,0.4219 0.7249,-0.2387 1.3559,-2.4791 1.5022,-5.3334 z m 14.7215,-102.9218 c 1.4393,-14.3 3.0201,-28.475 3.5129,-31.5 0.4928,-3.025 1.1507,-9.1 1.462,-13.5 0.3113,-4.4 1.0092,-11.825 1.5511,-16.5 0.5418,-4.675 0.9885,-9.55 0.9927,-10.8333 0.011,-3.3429 -2.2686,-2.1609 -2.6829,1.3912 -0.1888,1.6182 -0.9948,4.7421 -1.7912,6.9421 -1.3849,3.8258 -1.8141,7.8375 -2.9955,28 -0.2901,4.95 -0.977,13.5 -1.5265,19 -1.9246,19.2639 -2.9956,34.3738 -2.9174,41.1573 0.1353,11.7269 1.5851,3.7577 4.3948,-24.1573 z m -74.5358,23.25 c 2.1953,-1.2375 8.1196,-6.3 13.1651,-11.25 7.7544,-7.6077 11.468,-11.7472 19.9385,-22.2248 0.5446,-0.6736 3.1068,-4.2736 5.6938,-8 2.5869,-3.7263 5.0548,-6.9252 5.4841,-7.1085 0.4293,-0.1834 0.7806,-0.9709 0.7806,-1.75 0,-0.7792 0.9232,-2.3399 2.0517,-3.4684 1.1284,-1.1284 4.3909,-5.5484 7.25,-9.8222 2.859,-4.2738 8.004,-11.9545 11.4333,-17.0682 3.4292,-5.1136 6.0143,-9.6545 5.7447,-10.0907 -0.2696,-0.4362 -2.2876,-1.0969 -4.4845,-1.468 -2.9194,-0.4932 -4.8019,-1.6545 -6.9948,-4.3149 -1.6502,-2.002 -3.0004,-4.1658 -3.0004,-4.8086 0,-0.6427 -1.6259,-2.5961 -3.6131,-4.3409 -3.2498,-2.8533 -4.0293,-3.1009 -7.75,-2.4621 -5.6874,0.9764 -5.4816,0.9758 -11.5454,0.035 -4.9994,-0.7756 -5.5508,-0.6602 -7.291,1.5266 -9.258,11.6337 -17.0484,28.2988 -25.4139,54.3656 -2.4712,7.7 -6.2167,18.725 -8.3234,24.5 -2.1068,5.775 -3.9294,11.85 -4.0503,13.5 -0.6709,9.1541 -0.4329,10.4521 2.4724,13.4846 1.5889,1.6585 3.2426,3.0154 3.6749,3.0154 0.4324,0 2.5823,-1.0125 4.7777,-2.25 z m 72.3768,-100.2075 c 1.0406,-1.0407 1.6751,-5.2592 2.2183,-14.75 0.4185,-7.3109 0.8488,-14.4175 0.9562,-15.7925 1.1172,-14.2951 1.6699,-28.14307 1.1748,-29.43327 -0.5126,-1.3358 -1.3169,-1.0658 -4.9728,1.6699 -7.5148,5.62297 -11.9097,8.68787 -21.1487,14.74817 -10.2462,6.721 -17.1654,14.3007 -18.0953,19.8229 -0.342,2.0308 -0.8177,4.4163 -1.0571,5.3011 -0.9012,3.3312 2.1458,4.219 12.0823,3.5206 9.3551,-0.6576 9.4338,-0.6439 12.0697,2.1043 1.4593,1.5215 3.9972,4.9026 5.6398,7.5137 4.1965,6.6709 7.9647,8.4631 11.1328,5.2951 z m 9.9736,-10.2925 c 1.4088,-3.1625 3.0307,-9.35 3.6042,-13.75 2.3635,-18.1327 5.2595,-48.68137 4.6708,-49.26997 -1.1926,-1.1926 -8.694,7.3676 -9.074,10.3546 -0.2039,1.6035 -1.0844,14.16537 -1.9566,27.91537 -0.8722,13.75 -1.8279,25.7835 -2.1238,26.7411 -0.5744,1.8589 0.1906,3.7589 1.5136,3.7589 0.4424,0 1.957,-2.5875 3.3658,-5.75 z m 12.0915,-26.3283 c 0.5003,-1.882 2.3883,-7.9217 4.1955,-13.4217 4.19,-12.75147 5.7453,-21.53327 4.901,-27.67247 -0.5982,-4.3491 -2.3897,-6.8275 -4.9353,-6.8275 -1.1234,0 -2.2972,4.5286 -2.9809,11.5 -1.5122,15.4203 -3.5273,33.21247 -4.1775,36.88417 -0.5445,3.0747 -0.3986,3.7878 0.6998,3.4217 0.7632,-0.2544 1.797,-2.0023 2.2974,-3.8842 z m 37.653,-14.9569 c 1.5594,-1.6693 3.3736,-4.70677 4.0316,-6.74997 0.6579,-2.0431 1.5653,-4.184 2.0163,-4.7574 0.451,-0.5735 1.4815,-3.9485 2.29,-7.5 6.5931,-28.9632 6.1474,-24.8208 4.3446,-40.3792 -1.922,-16.5863 -4.7622,-28.6607 -8.7969,-37.398 -1.6051,-3.4758 -2.9189,-6.6258 -2.9196,-7 -7e-4,-0.3741 -1.1647,-2.0302 -2.5868,-3.6802 -1.4221,-1.65 -3.3185,-4.2375 -4.2144,-5.75 -1.9858,-3.3527 -3.1936,-3.4368 -6.3016,-0.4388 -2.7136,2.6175 -3.3437,3.6397 -9.6056,15.5844 -2.4809,4.7324 -5.208,9.3942 -6.0602,10.3595 -1.0689,1.2108 -2.2673,7.7247 -3.8635,21 -1.2727,10.5847 -2.3259,19.9747 -2.3404,20.8667 -0.014,0.8919 2.8039,4.58 6.263,8.1958 7.8617,8.2178 13.8155,19.3753 16.6392,31.1824 1.236,5.16837 4.3569,9.49997 6.8446,9.49997 0.7835,0 2.7003,-1.3658 4.2597,-3.0352 z m -44.1178,-30.60557 c 5.3021,-6.0234 5.3347,-8.681 0.1394,-11.3314 -2.17,-1.1071 -4.1496,-1.6788 -4.3989,-1.2704 -1.0333,1.6927 -1.7699,17.2426 -0.8168,17.2426 0.5452,0 2.8296,-2.0884 5.0763,-4.6408 z m 6.093,-16.6092 c 0,-0.1375 0.6794,-5.6329 1.5,-12.212 0.8206,-6.5791 1.492,-13.8916 1.492,-16.25 0,-5.0191 -1.0811,-5.3421 -7.75,-2.3149 -4.0633,1.8444 -4.25,2.1223 -4.25,6.3271 0,2.4189 -0.2728,7.7284 -0.6062,11.7989 l -0.6061,7.4009 4.3063,2.75 c 3.7846,2.4168 5.8882,3.3061 5.914,2.5 z m -13.486,-14.5 c 0.7497,-5.5243 0.7519,-5.5627 0.5965,-10.5634 -0.1143,-3.6797 -0.2324,-3.8023 -3.3685,-3.5 -3.958,0.3817 -4.5386,2.6719 -2.7414,10.8134 2.0266,9.1812 4.5099,10.645 5.5134,3.25 z m 27.9078,-46 c 1.6689,-3.7247 4.377,-7.3704 7.6885,-10.3505 5.9008,-5.3103 5.9255,-5.1186 -1.9542,-15.1961 -3.0769,-3.9351 -4.7558,-5.3803 -5.2281,-4.5 -0.5964,1.1116 -1.9507,10.8648 -2.4018,17.2966 -0.1901,2.7096 -1.5177,12.3612 -2.1666,15.75 -0.9,4.7005 1.3595,3.0319 4.0622,-3 z m 10.5702,-31.8448 c 0,-0.3271 -0.8765,-3.5896 -1.9477,-7.25 -1.0712,-3.6603 -2.4531,-9.2427 -3.0709,-12.4052 -1.1712,-5.9959 -2.9446,-7.7506 -3.0319,-3 -0.028,1.5125 -0.2887,5.45 -0.5798,8.75 -0.5168,5.8591 -0.4393,6.0982 3.3006,10.1826 3.5771,3.9068 5.3297,5.1309 5.3297,3.7226 z M 387.28166,1262.68 c -1.77254,-1.7725 -1.46268,-3.5891 0.82067,-4.8111 2.3977,-1.2832 3.97933,-0.5399 3.97933,1.8701 0,1.6864 -1.77827,4.141 -3,4.141 -0.33,0 -1.14,-0.54 -1.8,-1.2 z m 1.40699,-15.3818 c -0.33385,-0.87 -0.60699,-3.2699 -0.60699,-5.3332 0,-2.0633 -0.47045,-6.414 -1.04544,-9.6682 -0.57499,-3.2542 -1.44217,-8.1668 -1.92705,-10.9168 -1.05554,-5.9865 -4.35617,-22.9167 -6.62847,-34 -3.89769,-19.0113 -1.48066,-57.5 3.61091,-57.5 1.96803,0 2.23088,3.0486 1.06287,12.328 -0.64129,5.0949 -1.18249,13.9125 -1.20267,19.5948 -0.0346,9.7469 0.42645,13.6103 3.64915,30.5772 1.86044,9.7949 6.41563,34.8989 7.54119,41.5602 1.27183,7.5269 1.18137,12.2979 -0.26049,13.7398 -1.66373,1.6637 -3.47123,1.4992 -4.19301,-0.3818 z m 123.39301,-62.5849 c -1.95691,0.4349 -1.54802,0.4216 -8.75,0.2851 -5.46984,-0.1036 -6.25,-0.3596 -6.25,-2.051 0,-2.3317 1.83882,-2.9535 8.73243,-2.953 3.87442,3e-4 5.47907,0.4397 6.18275,1.693 0.96166,1.6855 0.61642,1.6735 0.0848,3.0259 z m -23.45292,0.8248 c -2.0962,-1.5328 -1.56611,-4.3298 1.00778,-5.3175 2.3875,-0.9162 5.18879,2.2569 3.85675,4.3686 -1.45715,2.3101 -2.67744,2.5481 -4.86453,0.9489 z m -169.12343,-31.8032 c -1.14199,-0.5531 -2.66155,-2.6239 -3.37678,-4.6018 -2.29133,-6.3366 -1.30362,-14.6947 3.92969,-33.2531 1.00812,-3.575 2.60495,-9.425 3.54851,-13 4.34863,-16.4762 12.42809,-39.8776 16.74494,-48.5 5.16163,-10.3098 10.92915,-20.8992 13.2147,-24.2627 1.38341,-2.0359 2.51529,-4.9302 2.51529,-6.4319 0,-6.6527 4.04095,-13.8993 12.38603,-22.2118 4.46889,-4.45147 9.24772,-8.99247 10.61962,-10.09117 3.68387,-2.9503 10.93202,-7.5024 11.94575,-7.5024 0.48506,0 1.03193,-0.3592 1.21527,-0.7983 0.18333,-0.4391 4.15833,-3.9266 8.83333,-7.75 4.675,-3.8234 8.66875,-7.3454 8.875,-7.8267 0.20625,-0.4813 1.17159,-1.6716 2.14521,-2.6452 0.97361,-0.9736 2.37986,-3.0134 3.125,-4.5328 1.76705,-3.6032 4.41063,-5.2912 5.92105,-3.7807 3.69506,3.695 -12.8079,22.4598 -30.2682,34.4166 -11.24747,7.7023 -11.76715,8.1174 -18.0453,14.41707 -8.02575,8.0532 -9.7643,10.8018 -10.43974,16.5049 -0.59445,5.0191 -0.53313,5.1997 1.54146,4.5413 1.18829,-0.3772 5.39648,-0.6755 9.35153,-0.663 8.9205,0.028 11.17986,1.4919 15.26616,9.8899 3.09229,6.3552 5.65177,8.4033 10.99242,8.7963 1.63053,0.12 3.13053,0.716 3.33334,1.3244 1.80057,5.4017 11.42573,-7.1625 17.15541,-22.3938 2.78126,-7.3935 4.42505,-12.6553 5.31076,-17 1.13949,-5.5896 3.2151,-8.63707 5.32986,-7.82557 1.78917,0.6866 1.80173,5.20257 0.028,10.05537 -0.75794,2.0736 -2.17774,6.4702 -3.15511,9.7702 -0.97737,3.3 -2.31473,7.35 -2.97192,9 -0.65719,1.65 -1.7881,4.575 -2.51313,6.5 -0.72503,1.925 -2.59254,5.4351 -4.15001,7.8001 -1.55747,2.3651 -2.83176,4.5627 -2.83176,4.8836 0,0.321 -2.18565,2.735 -4.85699,5.3645 -4.58662,4.5149 -4.98039,5.3285 -7.07372,14.6164 -1.2192,5.4095 -2.80741,11.6354 -3.52936,13.8354 -0.72195,2.2 -2.0662,6.7 -2.98721,10 -5.59563,20.0491 -7.77718,24.7154 -10.70793,22.9041 -1.25362,-0.7748 -0.74751,-6.1793 0.88065,-9.4041 0.69423,-1.375 1.26501,-3.3171 1.2684,-4.3157 0.003,-0.9987 0.45734,-2.6588 1.00879,-3.6892 1.6649,-3.1109 3.93507,-15.4305 3.01545,-16.3641 -0.47958,-0.4868 -1.72825,0.8325 -2.83937,3 -1.09084,2.128 -3.0398,4.7942 -4.33102,5.9251 -1.29123,1.1309 -3.242,3.2684 -4.33504,4.75 -1.14046,1.5459 -2.95156,2.6939 -4.25,2.6939 -3.67815,0 -2.80089,-3.9199 2.01538,-9.0054 4.88585,-5.159 12.14912,-15.5498 18.82732,-26.9343 l 4.60534,-7.8509 -3.94691,-0.6312 c -5.63296,-0.9007 -11.44966,-5.9253 -13.48125,-11.6454 -2.30554,-6.4914 -3.99886,-7.2801 -15.27633,-7.1154 -9.08678,0.1328 -9.60854,0.2612 -11.8257,2.9107 -1.27573,1.5246 -3.50588,5.2469 -4.95589,8.2719 -1.45001,3.025 -3.86249,7.6043 -5.36106,10.1762 -4.21633,7.2363 -11.43878,27.0751 -16.68247,45.8238 -1.15369,4.125 -3.28501,11.55 -4.73626,16.5 -2.97128,10.1346 -4.14568,15.3898 -5.31856,23.7998 -0.70249,5.0371 -0.57534,5.9247 0.96697,6.7501 3.07836,1.6475 8.22957,-1.2455 15.02284,-8.437 2.96636,-3.1402 5.28131,-3.0253 6.1523,0.3054 0.37826,1.4464 -0.2701,2.817 -2.11124,4.463 -10.26724,9.1792 -11.94809,10.3891 -15.15713,10.9105 -1.925,0.3127 -4.43436,0.1161 -5.57635,-0.4369 z m 62.6294,-29.291 c -1.28241,-1.5452 0.12384,-5.5639 1.94695,-5.5639 1.82311,0 3.22936,4.0187 1.94695,5.5639 -0.65551,0.7899 -1.53164,1.4361 -1.94695,1.4361 -0.41531,0 -1.29144,-0.6462 -1.94695,-1.4361 z m 190.55285,-52.1008 c -1.9645,-1.9645 -2.0134,-2.8801 -0.2326,-4.3579 1.8097,-1.502 4.6267,-0.3577 4.6267,1.8793 0,2.9478 -2.5094,4.3633 -4.3941,2.4786 z m -3.603,-16.9554 c -0.5516,-1.4509 -1.0029,-2.981 -1.0029,-3.4004 0,-3.1017 -11.1168,-25.5564 -15.6948,-31.7017 -2.4006,-3.2225 -3.0103,-6.8518 -1.3259,-7.8928 1.9555,-1.2085 4.9104,1.596 8.6627,8.2217 2.1073,3.721 4.3823,7.6655 5.0555,8.7655 3.3703,5.5068 9.4481,22.4311 9.1074,25.3605 -0.4229,3.6373 -3.5071,4.053 -4.802,0.6472 z m -18.4186,-51.1486 c -0.3463,-0.9025 -0.3986,-2.369 -0.1161,-3.2589 0.4958,-1.56217 1.5863,-2.30317 8.0318,-5.45737 1.65,-0.8075 4.0909,-2.6325 5.4243,-4.0555 1.3334,-1.423 2.9376,-2.5873 3.565,-2.5873 1.6695,0 12.3975,-11.3862 19.3152,-20.5 2.7317,-3.599 5.1204,-8.7267 6.1739,-13.2531 1.3413,-5.7633 2.0007,-6.5759 4.5441,-5.5999 2.4413,0.9368 1.5298,8.5028 -1.8586,15.4284 -3.2216,6.5848 -14.595,20.926 -21.2927,26.849 -6.3322,5.5998 -15.855,12.07557 -17.7573,12.07557 -0.8227,0 -1.774,0.45 -2.1139,1 -0.958,1.5501 -3.2168,1.1805 -3.9157,-0.6409 z M 431.04001,990.32983 c -1.06278,-1.2806 -0.99712,-1.8396 0.37755,-3.2143 1.55213,-1.5521 1.77607,-1.5521 3.3282,0 1.37467,1.3747 1.44033,1.9337 0.37755,3.2143 -0.7076,0.8526 -1.62634,1.5502 -2.04165,1.5502 -0.41531,0 -1.33405,-0.6976 -2.04165,-1.5502 z m -4.56836,-36.8759 c -0.92815,-2.4187 0.31818,-4.5739 2.64505,-4.5739 1.69721,0 2.03738,0.5235 1.78138,2.7414 -0.35496,3.0754 -3.45673,4.3595 -4.42643,1.8325 z m -48.35414,-3.0307 c -0.69278,-0.8348 -0.99838,-2.1985 -0.67911,-3.0305 0.47566,-1.2395 2.8556,-1.5127 13.1783,-1.5127 l 12.5978,0 -0.31642,2.75 -0.31642,2.75 -11.60228,0.2805 c -9.39839,0.2271 -11.84154,-0.01 -12.86187,-1.2373 z m 220.21415,-7.2617 c -1.8735,-0.6717 -1.5594,-6.2256 0.3946,-6.9754 1.709,-0.6558 4.3554,1.9872 4.3554,4.3498 0,1.5591 -3.0393,3.239 -4.75,2.6256 z m -2.1823,-15.1551 c -0.5873,-1.0972 -1.0677,-2.8685 -1.0677,-3.9362 0,-2.073 -3.8112,-10.7405 -6.8991,-15.6902 -8.8813,-14.2358 -18.5366,-33.0026 -21.6815,-42.1419 -1.7865,-5.1915 -2.1049,-12.0726 -0.6271,-13.5504 1.9123,-1.9123 4.0011,0.8742 5.2613,7.0191 1.5892,7.7484 5.0552,15.8483 11.7763,27.52 16.6113,28.8472 18.2197,32.1435 18.4773,37.868 0.1671,3.7147 -0.098,4.3266 -1.9895,4.5959 -1.3776,0.1961 -2.5761,-0.425 -3.25,-1.6843 z m 732.09484,-69.0048 c -2.0949,-1.3278 -1.0205,-5.5706 1.5016,-5.9299 2.6142,-0.3724 4.1251,3.1524 2.2961,5.3563 -1.3829,1.6663 -1.9408,1.7506 -3.7977,0.5736 z m -762.99224,-17.8716 c -1.2959,-2.5197 -0.3571,-4.25 2.306,-4.25 2.4849,0 3.8157,2.0755 2.8853,4.5 -0.7872,2.0516 -4.0893,1.8926 -5.1913,-0.25 z m 2.2388,-15.7561 c -0.6704,-2.6713 3.3049,-13.4925 6.9777,-18.9939 5.7751,-8.6503 14.164,-17.5584 19.8978,-21.1292 9.7749,-6.0876 10.0201,-6.2288 13.7154,-7.9025 1.925,-0.8719 5.525,-2.5369 8,-3.7 5.5404,-2.6038 6.9512,-3.1712 14.5,-5.8318 3.3,-1.1631 7.8,-2.9087 10,-3.8793 2.2,-0.9705 6.1522,-2.5721 8.7827,-3.5592 2.6304,-0.9871 5.0195,-2.1779 5.309,-2.6463 0.2895,-0.4684 1.5348,-0.8517 2.7673,-0.8517 1.2326,0 2.7321,-0.4911 3.3323,-1.0913 0.6003,-0.6003 4.6383,-2.3328 8.9734,-3.8501 4.3352,-1.5172 8.7716,-3.2236 9.8587,-3.7919 1.0871,-0.5684 3.1016,-1.49 4.4766,-2.0481 11.5165,-4.6743 20.7644,-9.108 25.5,-12.2252 2.2,-1.4482 5.4625,-3.2187 7.25,-3.9345 1.7875,-0.7159 3.25,-1.7114 3.25,-2.2124 0,-0.501 0.8715,-1.2339 1.9367,-1.6287 4.2774,-1.5853 19.6875,-16.1134 24.2613,-22.8726 1.4311,-2.1149 2.9374,-4.9685 3.3475,-6.3414 0.41,-1.3729 1.3093,-2.9479 1.9983,-3.5 0.689,-0.5521 2.0185,-4.1538 2.9545,-8.0038 1.9135,-7.8713 2.9595,-9.6453 5.1839,-8.7917 2.763,1.0603 0.1214,13.0559 -5.6776,25.7827 -7.0695,15.515 -32.6092,35.0961 -63.5046,48.6884 -4.95,2.1778 -11.2878,4.7783 -14.084,5.7791 -9.2896,3.3247 -38.8543,15.0379 -42.916,17.0028 -2.2,1.0643 -6.475,2.7157 -9.5,3.6699 -8.0046,2.5248 -23.2943,10.6817 -30.2164,16.12 -5.9312,4.6598 -17.7836,20.713 -17.7836,24.0866 0,2.4269 -4.9653,10.1622 -6.5231,10.1622 -0.7913,0 -1.7218,-1.1277 -2.0678,-2.5061 z m 632.30134,-15.9264 c -1.7962,-1.7961 -1.198,-5.1664 1.0714,-6.0373 0.9202,-0.3531 2.4456,0.2527 3.6376,1.4448 1.6183,1.6182 1.8214,2.4203 0.9595,3.7889 -1.4714,2.3366 -3.8048,2.6674 -5.6685,0.8036 z m -766.04377,-11.2342 c -1.22383,-1.2238 -0.68575,-4.3887 0.84606,-4.9766 1.96188,-0.7528 4.48727,1.3665 4.48727,3.7657 0,1.3003 -0.71739,1.8776 -2.33333,1.8776 -1.28334,0 -2.63334,-0.3 -3,-0.6667 z m 153.58333,-52.9956 c -2.4037,-0.9699 -1.2964,-4.2626 2,-5.9469 7.2542,-3.7066 19.6592,-11.7119 20.1564,-13.0074 0.2919,-0.7609 1.065,-1.3834 1.7178,-1.3834 0.6529,0 2.5795,-1.0167 4.2814,-2.2593 1.7019,-1.2426 5.1194,-3.3495 7.5944,-4.682 2.475,-1.3324 6.075,-3.6417 8,-5.1316 1.925,-1.4899 6.2,-4.1947 9.5,-6.0106 3.3,-1.8159 7.8,-4.3113 10,-5.5454 14.3244,-8.0351 22.8478,-11.3711 29.0531,-11.3711 5.7119,0 8.922,3.6313 7.9324,8.9731 -0.7354,3.969 -5.3553,13.0269 -6.6444,13.0269 -0.4626,0 -0.868,0.5625 -0.9009,1.25 -0.1966,4.1105 -19.6381,15.4521 -22.1617,12.9285 -2.2468,-2.2468 0.061,-5.8454 4.9442,-7.7104 8.0941,-3.0912 19.9632,-16.9312 17.6835,-20.6198 -1.2304,-1.9909 -8.7834,0.1406 -20.0936,5.6704 -6.1531,3.0084 -11.4431,5.8834 -11.7556,6.389 -0.3124,0.5056 -2.63,1.9174 -5.1501,3.1374 -2.5201,1.2199 -8.4519,4.8588 -13.1819,8.0865 -4.73,3.2276 -8.9565,5.8684 -9.3922,5.8684 -0.4357,0 -3.1639,1.7981 -6.0625,3.9957 -2.8987,2.1976 -5.6325,3.9976 -6.0752,4 -0.4426,0 -3.3676,1.7393 -6.5,3.8598 -9.4585,6.4032 -12.1972,7.591 -14.9451,6.4822 z m -104.4957,-2.5877 c -0.74464,-2.0249 0.27759,-3.75 2.22204,-3.75 1.94446,0 2.99933,1.7251 2.29302,3.75 -0.23982,0.6875 -1.25038,1.25 -2.2457,1.25 -0.99533,0 -2.01654,-0.5625 -2.26936,-1.25 z m 659.13104,-4.1492 c -0.2119,-0.1851 -14.5603,-0.6483 -31.8853,-1.0293 -17.325,-0.381 -34.65,-0.8563 -38.5,-1.0563 -8.6418,-0.4487 -48.4428,-1.779 -50.5,-1.6879 -0.825,0.037 -2.9625,-0.1551 -4.75,-0.4257 -2.604,-0.3944 -3.25,-0.9589 -3.25,-2.8399 0,-1.2913 0.7579,-2.6386 1.6842,-2.994 4.4116,-1.6929 56.0337,-0.2624 88.8158,2.4612 6.6,0.5483 25.4319,0.8786 41.8487,0.734 25.815,-0.2274 29.9583,-0.058 30.659,1.2513 0.482,0.9007 0.2794,2.2402 -0.5,3.3061 -1.1407,1.5601 -3.3754,1.8453 -17.2737,2.2045 -8.7798,0.2269 -16.1368,0.2611 -16.3487,0.076 z m -384.06744,-73.1012 c -0.9856,-2.163 -0.9422,-2.8086 0.239,-3.5559 2.1039,-1.3312 3.5275,-1.1494 5.0127,0.6401 0.9528,1.1482 1.0258,2.0422 0.2652,3.25 -1.7098,2.7153 -4.1961,2.5646 -5.5169,-0.3342 z m 2.4556,-16.7067 c -0.5734,-0.7111 -1.3408,-2.8679 -1.7054,-4.7929 -0.3645,-1.925 -1.4852,-5.525 -2.4902,-8 -1.0051,-2.475 -2.3959,-6.3 -3.0906,-8.5 -1.9023,-6.0237 -6.8834,-16.3696 -10.642,-22.1035 -1.8399,-2.8069 -3.3453,-5.4163 -3.3453,-5.7986 0,-0.3823 -1.8,-3.405 -4,-6.7172 -2.2,-3.3122 -4,-6.2542 -4,-6.5379 0,-0.2837 -1.2922,-2.3894 -2.8715,-4.6793 -1.5793,-2.2899 -5.9267,-9.1135 -9.6608,-15.1635 -3.7341,-6.05 -8.517,-13.3433 -10.6285,-16.2073 -2.1116,-2.864 -3.8392,-5.4375 -3.8392,-5.7188 0,-0.2814 -2.1375,-3.7196 -4.75,-7.6407 -5.3673,-8.0557 -11.9358,-18.6844 -12.9366,-20.9332 -0.3671,-0.825 -1.146,-1.8184 -1.7309,-2.2076 -0.5849,-0.3892 -2.1927,-2.704 -3.5729,-5.1441 -1.3803,-2.44 -4.3589,-7.1208 -6.6192,-10.4017 -2.2603,-3.2809 -5.1848,-8.166 -6.4991,-10.8559 -1.3142,-2.6899 -2.6646,-5.1157 -3.0008,-5.3907 -0.3363,-0.275 -1.3618,-1.85 -2.2789,-3.5 -1.7342,-3.1202 -4.5617,-7.8602 -7.7546,-13 -1.025,-1.65 -2.4256,-4.125 -3.1124,-5.5 -0.6869,-1.375 -3.2729,-5.804 -5.7467,-9.8423 -2.4739,-4.0382 -5.7452,-9.5802 -7.2696,-12.3154 -1.5244,-2.7352 -3.228,-5.5062 -3.7857,-6.1577 -1.2896,-1.5066 -11.9426,-18.6666 -11.9426,-19.2373 0,-0.2348 -1.9238,-3.4689 -4.2752,-7.1871 -2.3514,-3.7181 -4.8185,-7.8852 -5.4826,-9.2602 -0.6641,-1.375 -4.4081,-7.4413 -8.32,-13.4808 -3.912,-6.0394 -9.4323,-15.4146 -12.2674,-20.8338 -2.8351,-5.4192 -6.5337,-12.4028 -8.2191,-15.5192 -1.6854,-3.1164 -3.7942,-7.0162 -4.6862,-8.6662 -0.892,-1.65 -2.7413,-5.475 -4.1095,-8.5 -1.3681,-3.025 -3.8718,-8.54877 -5.5638,-12.27504 -1.6919,-3.72628 -3.0762,-7.15778 -3.0762,-7.62557 0,-0.46779 -1.0938,-3.32373 -2.4306,-6.34653 -3.326,-7.52072 -4.0967,-12.07034 -2.2976,-13.56346 1.9995,-1.65947 4.029,0.8264 6.7849,8.3106 1.2151,3.3 2.5374,6.45 2.9384,7 0.401,0.55 1.0503,2.35 1.4429,4 1.819,7.64546 25.7826,54.5705 35.4921,69.5 5.2405,8.058 5.9609,9.2438 7.2898,12 0.663,1.375 3.3597,5.7422 5.9928,9.7048 2.633,3.9627 4.7873,7.427 4.7873,7.6986 0,0.2715 3.825,6.3383 8.5,13.4817 4.675,7.1434 8.5,13.1992 8.5,13.4574 0,0.4003 2.5436,4.7214 12.0854,20.5307 0.872,1.4447 3.0678,5.3268 4.8796,8.6268 3.8766,7.061 13.716,24.3445 15.0862,26.5 0.5245,0.825 1.3548,2.4 1.8451,3.5 0.4903,1.1 2.0281,3.0569 3.4172,4.3488 1.3891,1.2918 3.0885,3.7668 3.7763,5.5 0.6878,1.7331 2.6869,5.1762 4.4424,7.6512 1.7556,2.475 4.4134,6.75 5.9063,9.5 1.4929,2.75 3.288,5.4506 3.9891,6.0014 0.7011,0.5508 2.6792,3.49 4.3958,6.5316 1.7165,3.0416 3.9527,6.4229 4.9691,7.5139 1.0165,1.0911 3.1665,4.1541 4.7778,6.8068 1.6113,2.6527 3.6047,5.8655 4.4297,7.1396 0.825,1.2741 3.6523,5.8468 6.2829,10.1616 2.6305,4.3148 6.1107,9.8701 7.7338,12.3451 1.623,2.475 3.2703,5.175 3.6607,6 0.3904,0.825 2.2399,3.6375 4.11,6.25 1.8701,2.6125 3.1101,4.75 2.7555,4.75 -0.3546,0 0.5032,1.505 1.9062,3.3444 1.403,1.8394 2.5509,3.6824 2.5509,4.0956 0,0.4132 0.8129,1.9457 1.8064,3.4056 5.5673,8.1811 16.5769,36.976 16.0118,41.8779 -0.3466,3.0055 -2.8651,4.1523 -4.5447,2.0694 z m 470.39324,-92.4596 c -1.5173,-1.5172 -0.4016,-3.8429 4.3233,-9.0128 2.7445,-3.0029 6.642,-8.466 8.6611,-12.1402 2.0191,-3.6741 4.1823,-7.3553 4.8071,-8.1803 0.6248,-0.825 2.1907,-4.2 3.4796,-7.5 4.1672,-10.669 8.4231,-16.1272 15.1939,-19.4866 3.3151,-1.6448 7.2828,-3.8845 8.8173,-4.9771 1.5344,-1.0925 3.9924,-2.4437 5.4623,-3.0026 3.2449,-1.2337 13.4933,-8.1141 17.1924,-11.5422 3.1196,-2.8912 3.7226,-3.0082 5.3565,-1.0395 1.9932,2.4017 0.2751,5.1805 -6.4899,10.4969 -3.5351,2.7781 -6.6248,5.0511 -6.8662,5.0511 -0.2414,0 -3.7385,1.9342 -7.7715,4.2981 -4.0329,2.364 -9.9028,5.5 -13.0442,6.9689 -4.3611,2.0392 -6.1651,3.5649 -7.6292,6.4519 -1.0547,2.0796 -2.828,5.5811 -3.9407,7.7811 -1.1127,2.2 -3.1223,6.4857 -4.4658,9.5239 -3.1791,7.1894 -13.2265,22.417 -16.4791,24.9755 -2.5538,2.0089 -5.3645,2.5764 -6.6069,1.3339 z m -195.1667,-45.4323 c -32.2511,-1.1686 -36.52104,-1.7976 -35.2197,-5.1889 0.4864,-1.2676 3.5309,-1.4368 20.3957,-1.1337 10.9032,0.1959 21.7365,0.6235 24.074,0.9503 2.3375,0.3267 4.25,0.2193 4.25,-0.2387 0,-0.458 -2.7,-3.4397 -6,-6.626 -3.3,-3.1863 -6,-6.4168 -6,-7.1789 0,-0.762 -0.5877,-1.7454 -1.306,-2.1852 -0.7183,-0.4398 -2.2689,-2.6792 -3.4457,-4.9763 -1.1769,-2.2972 -2.5961,-4.9972 -3.1538,-6 -2.4501,-4.4051 -7.0945,-14.6245 -7.0945,-15.6103 0,-0.5949 -0.8775,-2.9112 -1.9499,-5.1474 -1.0725,-2.2361 -2.6878,-7.4407 -3.5896,-11.5657 -4.4679,-20.437 -5.3825,-25.25 -6.5562,-34.5 -1.2816,-10.0997 -1.607,-46.6115 -0.4813,-54 0.3352,-2.2 0.8761,-6.25 1.2021,-9 0.326,-2.75 1.2163,-7.25 1.9784,-10 1.3869,-5.0043 7.6817,-34.14592 9.6124,-44.5 0.564,-3.025 1.4365,-6.01456 1.9388,-6.64346 0.5024,-0.6289 1.1195,-2.4289 1.3716,-4 1.3984,-8.71787 2.5668,-11.35654 5.0288,-11.35654 2.4215,0 2.551,3.81341 0.4137,12.18338 -3.0382,11.89763 -3.7378,15.04935 -5.9534,26.81662 -2.8547,15.1623 -4.7791,24.6011 -6.524,32 -0.8432,3.575 -1.9968,9.2 -2.5636,12.5 -1.4016,8.1594 -2.0118,43.116 -0.8325,47.6938 0.5233,2.0316 1.1451,5.4066 1.3818,7.5 1.5408,13.6287 4.9311,32.7531 6.5249,36.8062 0.4325,1.1 1.5669,4.25 2.5209,7 3.2642,9.4102 12.7409,27.9966 16.8259,33 5.1152,6.2652 10.6306,11.5158 14.3134,13.626 2.3133,1.3255 4.0851,1.4713 9.5867,0.7889 8.8479,-1.0976 14.2397,-2.5938 15.7037,-4.3578 0.6521,-0.7857 2.5045,-1.7182 4.1165,-2.0723 1.612,-0.354 2.9309,-1.2279 2.9309,-1.9418 0,-0.714 0.745,-1.9157 1.6556,-2.6706 3.2701,-2.7108 12.1557,-14.5664 14.7409,-19.6682 2.1116,-4.1671 3.1321,-5.2042 5.1203,-5.2042 1.9285,0 2.4832,0.5167 2.4832,2.3128 0,2.5784 -4.5827,12.6866 -5.7524,12.6882 -0.4112,6e-4 -1.9523,2.1381 -3.4247,4.75 -3.9952,7.0875 -9.1414,12.6284 -15.9534,17.1773 -3.3536,2.2394 -6.5022,4.0717 -6.997,4.0717 -0.4948,0 -1.681,0.4201 -2.6361,0.9337 -2.4203,1.3014 -10.9527,3.2183 -15.7364,3.5353 -2.2,0.1458 -14.35,-0.1099 -27,-0.5682 z m -780.50004,-13.401 c -10,-0.8 -12.5,-1.3 -12.5,-2.5 0,-1.2914 3.23379,-1.4949 23.25,-1.4635 12.7875,0.02 23.25,-0.2633 23.25,-0.6296 0,-0.3663 -1.9125,-2.2357 -4.25,-4.1542 -7.66328,-6.2898 -12.33055,-11.3082 -15.06181,-16.1949 -1.4785,-2.6453 -2.68819,-5.1963 -2.68819,-5.6687 0,-0.4725 -1.29528,-3.0033 -2.87841,-5.6241 -2.78058,-4.6031 -4.02207,-8.0324 -9.50836,-26.265 -2.89886,-9.6338 -7.93039,-30.5257 -9.51304,-39.5 -1.57113,-8.909 -2.16821,-40.3487 -1.01602,-53.5 0.9245,-10.5525 3.35121,-25.27741 4.46198,-27.07467 0.2534,-0.41001 0.66887,-2.92345 0.92325,-5.58541 0.60911,-6.37387 6.01697,-33.05974 7.42965,-36.66268 0.73941,-1.88583 1.68667,-2.70361 2.85386,-2.46378 2.18419,0.4488 2.08704,2.70921 -0.74302,17.28654 -1.17455,6.05 -2.78394,15.65817 -3.57643,21.3515 -0.79248,5.69332 -1.67063,10.72324 -1.95144,11.1776 -0.28081,0.45435 -1.20129,5.69618 -2.04551,11.6485 -3.48527,24.5734 -2.12832,62.7478 2.78406,78.3224 0.60716,1.925 1.6605,6.2 2.34076,9.5 1.22978,5.9658 3.71001,15.0798 7.4837,27.5 1.08621,3.575 4.38484,11 7.33028,16.5 4.63277,8.6507 6.50987,11.0255 13.91194,17.6002 8.35569,7.4218 8.73158,7.6284 16.01011,8.8026 6.81375,1.0992 7.99124,1.0212 13.71802,-0.908 7.11204,-2.3959 15.76077,-7.9814 21.13168,-13.6474 4.17293,-4.4022 10.85294,-14.6053 10.85294,-16.5769 0,-2.0044 2.92991,-5.7705 4.48932,-5.7705 3.78139,0 2.07974,7.4056 -3.59778,15.6576 -1.59035,2.3115 -2.89154,4.6973 -2.89154,5.3018 0,1.2406 -12.69877,14.0406 -13.9295,14.0406 -0.43752,0 -2.4952,1.3508 -4.57263,3.0017 -2.07743,1.6509 -5.51431,3.5222 -7.63751,4.1583 -2.1232,0.6361 -3.86036,1.4396 -3.86036,1.7856 0,0.9641 -4.74735,1.2082 -27,1.3884 -11.275,0.091 -26.125,-0.284 -33,-0.834 z m 1043.49354,-67.8049 c -5.6849,-6.0415 -18.6844,-15.2007 -26.7875,-18.8739 -15.2714,-6.9226 -39.963,-26.3867 -47.5586,-37.4897 -1.9763,-2.889 -2.028,-3.308 -0.586,-4.75 2.2441,-2.2441 2.8447,-2.0403 6.392,2.1685 4.4099,5.2323 9.9213,10.8302 14.0466,14.267 11.4082,9.5043 14.4558,11.5678 23.6961,16.0439 5.6079,2.7165 10.4505,4.9391 10.7613,4.9391 0.3109,0 3.2715,1.9125 6.5791,4.25 3.3077,2.3375 7.4651,5.2626 9.2387,6.5002 9.4327,6.5821 12.9279,10.7571 11.9943,14.3272 -0.7582,2.8994 -4.3473,2.2614 -7.776,-1.3823 z m -106.8819,-82.4406 c -5.4386,-5.8843 -12.095,-12.4937 -14.7919,-14.6875 -3.4223,-2.7839 -4.8153,-4.6048 -4.6116,-6.0279 0.4373,-3.05494 3.868,-2.97842 7.7419,0.1727 8.9401,7.2719 25.05,25.4809 25.05,28.3139 0,1.0859 -0.1882,1.9743 -0.4182,1.9743 -0.23,0 -1.0175,0.2145 -1.75,0.4766 -0.7717,0.2762 -5.4905,-4.0229 -11.2202,-10.2221 z m -760.36537,-9.4737 c -2.83285,-2.9044 -8.23661,-8.2208 -12.00836,-11.81422 -3.77174,-3.59338 -7.15413,-7.30588 -7.51643,-8.25 -0.36229,-0.94412 -1.23533,-1.72342 -1.9401,-1.73177 -1.58896,-0.0188 -8.60771,-9.44468 -9.40846,-12.6351 -0.742,-2.95637 0.24055,-5.63768 1.87761,-5.12385 0.68721,0.2157 3.00257,3.00119 5.14524,6.18998 2.14268,3.18878 6.83152,8.56222 10.41964,11.94097 15.99356,15.06029 22.18459,21.64549 22.18459,23.59689 0,1.1254 -0.1882,2.0463 -0.41821,2.0463 -0.23002,0 -1.04072,0.2389 -1.80155,0.5308 -0.80789,0.3101 -3.52593,-1.6659 -6.53397,-4.75 z m 885.13777,-46.22239 c -0.9377,-2.4436 0.044,-5.0171 2.0614,-5.40567 2.6428,-0.50896 4.7816,2.5545 3.4807,4.9854 -1.1796,2.20407 -4.7535,2.47509 -5.5421,0.42027 z m -0.3923,-15.06835 c -1.1403,-1.37403 -3.138,-20.61359 -2.3871,-22.99006 0.1738,-0.55 0.5315,-3.475 0.7949,-6.5 1.0889,-12.50405 5.4342,-30.34548 10.1073,-41.5 1.8434,-4.4 3.6632,-9.8 4.044,-12 0.3809,-2.2 1.5337,-6.025 2.562,-8.5 1.6262,-3.91433 7.2462,-29.94472 8.3122,-38.5 0.2056,-1.65 0.8387,-4.8 1.4069,-7 3.5674,-13.81194 5.4459,-42.522797 5.6594,-86.499997 0.084,-17.325 0.233,-32.0625 0.3308,-32.75 0.2871,-2.01736 4.0094,-1.43345 5.2143,0.81795 1.1477,2.14454 1.5225,50.11628 0.4917,62.93205 -0.2876,3.575 -0.7369,11.9 -0.9984,18.499997 -0.8199,20.68765 -3.1966,35.42913 -13.2205,82 -0.3551,1.65 -2.8678,9.3 -5.5837,17 -7.1387,20.23924 -9.6417,29.70456 -10.8421,41 -1.369,12.88128 -1.4423,15.44807 -0.7002,24.5 0.6246,7.61757 -0.1737,11 -2.5959,11 -0.7383,0 -1.9063,-0.67947 -2.5956,-1.50994 z m -759.60774,-2.93165 c -0.9822,-2.55979 0.081,-5.05043 2.2903,-5.36671 1.473,-0.21083 2.3653,0.35756 2.8224,1.79799 1.1641,3.66772 -3.7566,7.10247 -5.1127,3.56872 z m -3.2857,-13.93994 c -1.925,-2.31956 -1.3352,-14.4309 1.3694,-28.11847 3.0381,-15.37498 7.1411,-33.94148 8.4121,-38.06537 0.4974,-1.61404 1.4276,-5.63463 2.067,-8.93463 0.6395,-3.3 2.0136,-9.375 3.0537,-13.5 3.8946,-15.4464 5.9462,-24.64043 6.5218,-29.22669 0.3263,-2.59968 0.96,-4.95336 1.4083,-5.23039 0.4482,-0.27704 0.8555,-2.65003 0.905,-5.27331 0.049,-2.62329 0.7627,-7.46961 1.585,-10.76961 0.8222,-3.3 2.2259,-11.625 3.1193,-18.5 0.8935,-6.874997 2.2529,-15.424997 3.0211,-18.999997 2.2231,-10.34647 2.4596,-11.96495 3.2143,-22 0.9325,-12.39721 0.9079,-20.74249 -0.1059,-36 -1.02,-15.3504699 -1.0113,-16.0581299 0.2125,-17.2818599 2.2982,-2.29824 3.8221,0.19315 4.552,7.4419299 0.4066,4.03696 0.9222,8.68993 1.146,10.33993 0.2237,1.65 0.4389,10.2 0.4781,19 0.071,15.94989 -0.6577,22.6984 -5.0226,46.5 -1.1599,6.325 -2.7522,15.774997 -3.5385,20.999997 -0.7864,5.225 -1.887,12.49512 -2.4459,16.15581 -0.5589,3.6607 -2.5891,14.0107 -4.5116,23 -3.0631,14.32289 -4.7789,21.5482 -8.5123,35.84419 -1.2038,4.60988 -7.4119,32.85674 -9.9899,45.45475 -1.1205,5.47511 -2.0433,13.12511 -2.0509,17 -0.021,10.72531 -1.6354,14.08278 -4.888,10.16372 z m 666.56844,-16.28514 c -0.3667,-0.36666 -0.6667,-1.73079 -0.6667,-3.03138 0,-2.83659 2.6325,-4.12318 4.4782,-2.18869 2.4861,2.60556 -1.275,7.75658 -3.8115,5.22007 z m 6.4803,-10.46955 c -1.1619,-1.86053 -1.0669,-2.47356 0.7366,-4.75 1.1388,-1.43758 3.1313,-4.63878 4.4277,-7.11378 1.2964,-2.475 2.8432,-5.4 3.4372,-6.5 1.9199,-3.55488 5.4408,-12.7554 8.4145,-21.98783 2.6171,-8.12536 3.9455,-15.05653 6.8147,-35.55729 0.5038,-3.59981 1.3896,-7.79063 1.9683,-9.31292 0.5788,-1.5223 1.7759,-10.952 2.6601,-20.95489 1.283,-14.51292 1.5202,-27.224927 1.1739,-62.924597 -0.4219,-43.49917 -0.3806,-44.75447 1.4937,-45.34934 1.0602,-0.33649 2.4447,-0.0947 3.0766,0.53722 1.7353,1.7353 1.588,102.063087 -0.1704,116.049647 -0.726,5.775 -1.7612,11.85 -2.3004,13.5 -0.5392,1.65 -1.2002,4.8 -1.4688,7 -3.8034,31.15041 -11.123,55.19895 -22.7465,74.73404 -3.0795,5.17554 -5.4167,5.99318 -7.5172,2.62974 z m -771.14704,-0.36378 c -1.56489,-1.88558 0.26743,-4.5 3.15383,-4.5 2.41322,0 3.45509,2.56137 1.8356,4.51273 -1.57522,1.89802 -3.40753,1.89335 -4.98943,-0.0127 z m 6.71862,-12.20996 c -1.43288,-1.43287 -1.44765,-1.91335 -0.13683,-4.44821 0.80827,-1.56301 1.80131,-2.84183 2.20676,-2.84183 0.75108,0 1.27043,-0.86487 4.59578,-7.6533 6.69972,-13.67694 9.72749,-20.91913 12.06007,-28.8467 1.45647,-4.95 3.27392,-11.025 4.03878,-13.5 0.76486,-2.475 1.66757,-6.525 2.00604,-9 0.33846,-2.475 1.02874,-6.525 1.53394,-9 1.32599,-6.49602 2.89789,-18.41381 3.49524,-26.5 0.28441,-3.85 0.73085,-9.7 0.9921,-13 0.26125,-3.3 0.95022,-12.074997 1.53104,-19.499997 0.58082,-7.425 1.27624,-14.85 1.54538,-16.5 0.26915,-1.65 0.672,-16.45231 0.89523,-32.89402 0.41264,-30.3916099 0.84997,-33.7024299 4.03159,-30.5208099 2.17582,2.17582 2.99169,27.6658699 1.573,49.1449299 -0.62737,9.49844 -1.32752,20.1949 -1.5559,23.7699 -0.22837,3.575 -0.66143,8.975 -0.96234,12 -0.30091,3.025 -1.01301,11.799997 -1.58245,19.499997 -1.08945,14.73166 -3.48696,33.51813 -5.05576,39.61602 -0.51166,1.98881 -0.93029,4.85341 -0.93029,6.36579 0,1.51237 -0.66072,4.83516 -1.46828,7.38398 -0.80755,2.54881 -2.424,8.00921 -3.5921,12.13421 -2.98129,10.52797 -13.71375,34.6074 -17.38273,39 -0.68909,0.825 -1.52087,2.25806 -1.8484,3.18459 -1.0077,2.85056 -4.14278,3.95255 -5.98987,2.10545 z m 583.44222,-3.04004 c -1.3747,-2.64495 -0.1323,-4.8301 5.2973,-9.31683 2.7149,-2.24347 5.86,-5.32689 6.989,-6.85204 1.1291,-1.52515 6.7274,-7.45483 12.4406,-13.17707 5.7132,-5.72223 11.1425,-11.62375 12.065,-13.11448 0.9226,-1.49073 5.1089,-6.44073 9.303,-11 8.772,-9.53575 15.7443,-17.93312 15.7443,-18.96223 0,-0.90174 -1.4998,-1.83267 -3.7462,-2.32537 -0.9646,-0.21155 -4.4538,-1.11521 -7.7538,-2.00813 -3.3,-0.89293 -9.15,-2.0381 -13,-2.54484 -3.85,-0.50673 -9.7,-1.42284 -13,-2.03579 -12.0873,-2.24513 -49.577,0.48358 -62.9089,4.57886 -2.6999,0.82936 -5.9143,1.50792 -7.14304,1.50792 -3.0073,0 -3.9964,-2.9086 -1.737,-5.10811 2.27044,-2.21029 22.55814,-7.5036 31.87274,-8.31599 14.4648,-1.26158 38.6365,-0.79842 47.7476,0.91491 4.8572,0.91339 9.4553,1.42127 10.2179,1.12863 0.7627,-0.29265 1.6084,-0.17332 1.8794,0.26518 0.4405,0.71269 3.0351,1.46413 18.205,5.27245 5.1249,1.28656 7.3372,0.25483 10.4951,-4.89442 1.2691,-2.06946 3.0484,-4.5696 3.954,-5.55587 0.9055,-0.98627 2.8978,-4.13627 4.4273,-7 1.5296,-2.86373 3.3805,-5.90619 4.1133,-6.76101 1.776,-2.07196 21.3756,-41.717417 21.3803,-43.247697 0,-0.65894 0.8758,-2.62821 1.9416,-4.37615 1.0658,-1.74795 3.2978,-7.14795 4.9601,-12 4.47,-13.048 5.9866,-17.15316 7.0504,-19.08461 1.5976,-2.90071 4.0442,-12.83338 4.0442,-16.41871 0,-4.06062 2.4634,-7.9617499 4.5274,-7.1697299 1.9953,0.7656899 1.9359,8.5587199 -0.118,15.4862999 -0.8748,2.95065 -3.3628,10.16155 -5.5288,16.02421 -2.1659,5.86265 -5.0171,13.73765 -6.3358,17.5 -2.5616,7.30808 -9.3238,23.18281 -10.5815,24.84062 -0.4172,0.55 -4.6142,8.65 -9.3264,17.999997 -4.7123,9.35 -9.8209,18.86318 -11.3524,21.14041 -1.5315,2.27722 -4.5185,6.66891 -6.6379,9.75931 -2.1194,3.09039 -3.6123,6.24728 -3.3176,7.01529 0.2947,0.76802 2.0288,1.68631 3.8534,2.04065 12.5597,2.43902 21.8664,7.36883 20.5225,10.8709 -0.689,1.7956 -5.6032,2.32846 -7.2549,0.78668 -1.4218,-1.32716 -18.5179,-6.11373 -21.8353,-6.11347 -3.1933,2.5e-4 -6.1734,2.71099 -10.3005,9.36937 -1.4082,2.27197 -4.4176,5.9727 -6.6873,8.22385 -2.2698,2.25114 -6.5393,6.97614 -9.4878,10.5 -6.0878,7.27564 -29.1358,31.91446 -36.5942,39.11992 -5.3501,5.16863 -6.9711,5.7558 -8.3841,3.03709 z m -767.49417,-4.91667 c -0.36667,-0.36666 -0.66667,-1.64744 -0.66667,-2.84617 0,-1.56042 3.19558,-4.81478 11.25,-11.45695 15.95039,-13.15366 30.27302,-27.05507 37.51314,-36.40989 1.22579,-1.58383 4.36805,-5.21375 6.98279,-8.0665 9.15417,-9.98744 15.76488,-17.80872 17.01462,-20.1304 1.08241,-2.01084 1.01175,-2.47071 -0.5,-3.25421 -1.65517,-0.85782 -15.60742,-3.29303 -26.76055,-4.67074 -14.89608,-1.84008 -66.05533,-0.57771 -87.05576,2.14812 -3.03472,0.3939 -4.40474,0.10593 -5.44201,-1.1439 -5.29572,-6.38095 12.94991,-8.85919 65.49777,-8.89633 15.4,-0.0109 29.35,0.26 31,0.60197 1.65,0.34197 7.275,1.3632 12.5,2.26939 5.225,0.90619 11.0071,2.17595 12.8491,2.82168 3.06972,1.07611 3.51984,0.9666 5.3957,-1.31268 1.12562,-1.36769 3.11855,-4.80451 4.42872,-7.63736 1.31016,-2.83286 3.0446,-5.70046 3.8543,-6.37245 0.8097,-0.67199 1.47218,-1.62572 1.47218,-2.11939 0,-0.49368 1.8,-4.65116 4,-9.238847 2.2,-4.5877 4,-8.60888 4,-8.93596 0,-0.32708 1.40883,-2.977 3.13073,-5.8887 3.00287,-5.07781 9.86927,-20.39293 9.86927,-22.01286 0,-0.42876 1.8,-4.49049 4,-9.02608 2.2,-4.53559 4,-8.86217 4,-9.61464 0,-0.75247 0.95657,-3.22939 2.12572,-5.50428 1.16914,-2.27488 2.5179,-4.91556 2.99724,-5.86816 2.4184,-4.8062 4.88468,-12.656 4.95404,-15.76799 0.11343,-5.0893699 3.29242,-13.44131994 5.26176,-13.82390994 2.57404,-0.50006 3.04258,2.36185004 1.27261,7.77322004 -0.88625,2.7095699 -1.61137,6.1956299 -1.61137,7.7468099 0,3.29375 -4.72799,17.03027 -7.8438,22.78907 -1.18591,2.19186 -2.1562,4.54006 -2.1562,5.21823 0,0.67817 -1.8,4.91646 -4,9.41843 -2.2,4.50198 -4,8.59096 -4,9.08664 0,1.05317 -2.50933,6.76583 -8.47396,19.29151 -5.95477,12.50498 -15.33695,31.696907 -16.37683,33.499997 -4.78667,8.29977 -5.01378,10.98801 -0.93059,11.01518 3.56556,0.0237 10.61765,2.39251 12.38536,4.16023 2.35575,2.35575 0.93897,6.23525 -1.95038,5.3406 -3.07896,-0.95335 -9.39491,-2.17163 -14.87173,-2.8686 -4.65038,-0.59179 -4.7611,-0.53973 -7.7112,3.62609 -1.64619,2.32457 -4.47303,5.86057 -6.28187,7.85776 -1.80884,1.9972 -5.0888,5.80466 -7.2888,8.46103 -2.2,2.65637 -6.91827,8.22231 -10.48504,12.36874 -3.56677,4.14643 -7.61677,8.85623 -9,10.46622 -4.12658,4.80308 -21.72921,21.24317 -27.58897,25.76691 -1.6093,1.24237 -3.37599,2.78143 -3.92599,3.42013 -1.49895,1.74067 -10.54045,8.38571 -11.40993,8.38571 -0.41621,0 -1.05674,-0.3 -1.4234,-0.66667 z"
     id="path2987"
     style="fill:#000000" />
  <text
     x="-1.5039062"
     y="655.72913"
     id="text3027"
     xml:space="preserve"
     style="font-size:30px;font-style:normal;font-variant:normal;font-weight:normal;font-stretch:normal;line-height:125%;letter-spacing:0px;word-spacing:0px;fill:#000000;fill-opacity:1;stroke:none;font-family:cmr10;-inkscape-font-specification:cmr10"><tspan
       x="-1.5039062"
       y="655.72913"
       id="tspan3029"
       style="font-size:44px">BaH</tspan></text>
  <text
     x="475.53091"
     y="243.32133"
     id="text3031"
     xml:space="preserve"
     style="font-size:30px;font-style:normal;font-variant:normal;font-weight:normal;font-stretch:normal;line-height:125%;letter-spacing:0px;word-spacing:0px;fill:#000000;fill-opacity:1;stroke:none;font-family:cmr10;-inkscape-font-specification:cmr10"><tspan
       x="475.53091"
       y="243.32133"
       id="tspan3033"
       style="font-size:36px">N</tspan></text>
  <text
     x="575.75745"
     y="281.38553"
     id="text3035"
     xml:space="preserve"><tspan
       x="575.75745"
       y="281.38553"
       id="tspan3037"
       style="font-size:36px;font-style:normal;font-variant:normal;font-weight:normal;font-stretch:normal;font-family:cmr10;-inkscape-font-specification:cmr10">N<tspan
   id="tspan3043"
   style="font-size:65.00091553%;baseline-shift:super">s</tspan></tspan></text>
  <text
     x="778.67523"
     y="676.54126"
     id="text3045"
     xml:space="preserve"
     style="font-size:30px;font-style:normal;font-variant:normal;font-weight:normal;font-stretch:normal;line-height:125%;letter-spacing:0px;word-spacing:0px;fill:#000000;fill-opacity:1;stroke:none;font-family:cmr10;-inkscape-font-specification:cmr10"><tspan
       x="778.67523"
       y="676.54126"
       id="tspan3047"
       style="font-size:36px">NT<tspan
   id="tspan3051"
   style="font-size:65.00091553%;baseline-shift:super">s</tspan></tspan></text>
  <text
     x="613.41217"
     y="951.28857"
     id="text3045-1"
     xml:space="preserve"
     style="font-size:30px;font-style:normal;font-variant:normal;font-weight:normal;font-stretch:normal;line-height:125%;letter-spacing:0px;word-spacing:0px;fill:#000000;fill-opacity:1;stroke:none;font-family:cmr10;-inkscape-font-specification:cmr10"><tspan
       x="613.41217"
       y="951.28857"
       id="tspan3047-9"
       style="font-size:36px">UL<tspan
   id="tspan3051-0"
   style="font-size:65.00091553%;baseline-shift:super">s</tspan></tspan></text>
  <text
     x="597.99585"
     y="1022.5074"
     id="text3045-9"
     xml:space="preserve"
     style="font-size:30px;font-style:normal;font-variant:normal;font-weight:normal;font-stretch:normal;line-height:125%;letter-spacing:0px;word-spacing:0px;fill:#000000;fill-opacity:1;stroke:none;font-family:cmr10;-inkscape-font-specification:cmr10"><tspan
       x="597.99585"
       y="1022.5074"
       id="tspan3047-8"
       style="font-size:36px">UL<tspan
   id="tspan3162"
   style="font-size:65.00091553%;baseline-shift:super">v</tspan>LL<tspan
   id="tspan3160"
   style="font-size:65.00091553%;baseline-shift:super">v</tspan></tspan></text>
  <text
     x="585.57416"
     y="1081.3171"
     id="text3045-5"
     xml:space="preserve"
     style="font-size:30px;font-style:normal;font-variant:normal;font-weight:normal;font-stretch:normal;line-height:125%;letter-spacing:0px;word-spacing:0px;fill:#000000;fill-opacity:1;stroke:none;font-family:cmr10;-inkscape-font-specification:cmr10"><tspan
       x="585.57416"
       y="1081.3171"
       id="tspan3047-84"
       style="font-size:36px">LL<tspan
   id="tspan3051-3"
   style="font-size:65.00091553%;baseline-shift:super">s</tspan></tspan></text>
  <text
     x="528.38519"
     y="1189.6812"
     id="text3045-7"
     xml:space="preserve"
     style="font-size:30px;font-style:normal;font-variant:normal;font-weight:normal;font-stretch:normal;line-height:125%;letter-spacing:0px;word-spacing:0px;fill:#000000;fill-opacity:1;stroke:none;font-family:cmr10;-inkscape-font-specification:cmr10"><tspan
       x="528.38519"
       y="1189.6812"
       id="tspan3047-1"
       style="font-size:36px">B<tspan
   id="tspan3051-38"
   style="font-size:65.00091553%;baseline-shift:super">s</tspan></tspan></text>
  <text
     x="539.49261"
     y="1343.4984"
     id="text3045-0"
     xml:space="preserve"
     style="font-size:30px;font-style:normal;font-variant:normal;font-weight:normal;font-stretch:normal;line-height:125%;letter-spacing:0px;word-spacing:0px;fill:#000000;fill-opacity:1;stroke:none;font-family:cmr10;-inkscape-font-specification:cmr10"><tspan
       x="539.49261"
       y="1343.4984"
       id="tspan3047-97"
       style="font-size:36px">Pog<tspan
   id="tspan3051-9"
   style="font-size:65.00091553%;baseline-shift:super">s</tspan></tspan></text>
  <text
     x="300.67291"
     y="1481.2325"
     id="text3045-93"
     xml:space="preserve"
     style="font-size:30px;font-style:normal;font-variant:normal;font-weight:normal;font-stretch:normal;line-height:125%;letter-spacing:0px;word-spacing:0px;fill:#000000;fill-opacity:1;stroke:none;font-family:cmr10;-inkscape-font-specification:cmr10"><tspan
       x="300.67291"
       y="1481.2325"
       id="tspan3047-2"
       style="font-size:36px">Me<tspan
   id="tspan3051-43"
   style="font-size:65.00091553%;baseline-shift:super">s</tspan></tspan></text>
  <text
     x="586.84003"
     y="851.40222"
     id="text3045-71"
     xml:space="preserve"
     style="font-size:30px;font-style:normal;font-variant:normal;font-weight:normal;font-stretch:normal;line-height:125%;letter-spacing:0px;word-spacing:0px;fill:#000000;fill-opacity:1;stroke:none;font-family:cmr10;-inkscape-font-specification:cmr10"><tspan
       x="586.84003"
       y="851.40222"
       id="tspan3047-22"
       style="font-size:36px">A<tspan
   id="tspan3051-02"
   style="font-size:65.00091553%;baseline-shift:super">s</tspan></tspan></text>
  <text
     x="1341.1538"
     y="868.74628"
     id="text3045-71-1"
     xml:space="preserve"
     style="font-size:30px;font-style:normal;font-variant:normal;font-weight:normal;font-stretch:normal;line-height:125%;letter-spacing:0px;word-spacing:0px;fill:#000000;fill-opacity:1;stroke:none;font-family:cmr10;-inkscape-font-specification:cmr10"><tspan
       x="1341.1538"
       y="868.74628"
       id="tspan3047-22-7"
       style="font-size:36px">A<tspan
   id="tspan3051-02-5"
   style="font-size:65.00091553%;baseline-shift:super">s</tspan></tspan></text>
  <text
     x="1284.0933"
     y="1366.8093"
     id="text3045-0-1"
     xml:space="preserve"
     style="font-size:30px;font-style:normal;font-variant:normal;font-weight:normal;font-stretch:normal;line-height:125%;letter-spacing:0px;word-spacing:0px;fill:#000000;fill-opacity:1;stroke:none;font-family:cmr10;-inkscape-font-specification:cmr10"><tspan
       x="1284.0933"
       y="1366.8093"
       id="tspan3047-97-7"
       style="font-size:36px">Pog<tspan
   id="tspan3051-9-4"
   style="font-size:65.00091553%;baseline-shift:super">s</tspan></tspan></text>
  <text
     x="318.35437"
     y="1264.1813"
     id="text3045-0-17"
     xml:space="preserve"
     style="font-size:30px;font-style:normal;font-variant:normal;font-weight:normal;font-stretch:normal;line-height:125%;letter-spacing:0px;word-spacing:0px;fill:#000000;fill-opacity:1;stroke:none;font-family:cmr10;-inkscape-font-specification:cmr10"><tspan
       x="318.35437"
       y="1264.1813"
       id="tspan3047-97-1"
       style="font-size:36px">Pog<tspan
   id="tspan3051-9-1"
   style="font-size:65.00091553%;baseline-shift:super" /></tspan></text>
  <text
     x="347.75702"
     y="1153.3999"
     id="text3045-0-17-1"
     xml:space="preserve"
     style="font-size:30px;font-style:normal;font-variant:normal;font-weight:normal;font-stretch:normal;line-height:125%;letter-spacing:0px;word-spacing:0px;fill:#000000;fill-opacity:1;stroke:none;font-family:cmr10;-inkscape-font-specification:cmr10"><tspan
       x="347.75702"
       y="1153.3999"
       id="tspan3047-97-1-7"
       style="font-size:36px">B</tspan></text>
  <text
     x="381.43973"
     y="977.86652"
     id="text3045-0-17-4"
     xml:space="preserve"
     style="font-size:30px;font-style:normal;font-variant:normal;font-weight:normal;font-stretch:normal;line-height:125%;letter-spacing:0px;word-spacing:0px;fill:#000000;fill-opacity:1;stroke:none;font-family:cmr10;-inkscape-font-specification:cmr10"><tspan
       x="381.43973"
       y="977.86652"
       id="tspan3047-97-1-0"
       style="font-size:36px">1</tspan></text>
  <text
     x="478.92789"
     y="991.55865"
     id="text3045-0-17-5"
     xml:space="preserve"
     style="font-size:30px;font-style:normal;font-variant:normal;font-weight:normal;font-stretch:normal;line-height:125%;letter-spacing:0px;word-spacing:0px;fill:#000000;fill-opacity:1;stroke:none;font-family:cmr10;-inkscape-font-specification:cmr10"><tspan
       x="478.92789"
       y="991.55865"
       id="tspan3047-97-1-1"
       style="font-size:36px">1</tspan></text>
  <text
     x="453.73431"
     y="808.08374"
     id="text3045-0-17-6"
     xml:space="preserve"
     style="font-size:30px;font-style:normal;font-variant:normal;font-weight:normal;font-stretch:normal;line-height:125%;letter-spacing:0px;word-spacing:0px;fill:#000000;fill-opacity:1;stroke:none;font-family:cmr10;-inkscape-font-specification:cmr10"><tspan
       x="453.73431"
       y="808.08374"
       id="tspan3047-97-1-2"
       style="font-size:36px">A</tspan></text>
  <text
     x="492.62003"
     y="763.72113"
     id="text3045-0-17-9"
     xml:space="preserve"
     style="font-size:30px;font-style:normal;font-variant:normal;font-weight:normal;font-stretch:normal;line-height:125%;letter-spacing:0px;word-spacing:0px;fill:#000000;fill-opacity:1;stroke:none;font-family:cmr10;-inkscape-font-specification:cmr10"><tspan
       x="492.62003"
       y="763.72113"
       id="tspan3047-97-1-6"
       style="font-size:36px">SNA</tspan></text>
  <text
     x="302.57288"
     y="1360.1515"
     id="text3045-0-17-8"
     xml:space="preserve"
     style="font-size:30px;font-style:normal;font-variant:normal;font-weight:normal;font-stretch:normal;line-height:125%;letter-spacing:0px;word-spacing:0px;fill:#000000;fill-opacity:1;stroke:none;font-family:cmr10;-inkscape-font-specification:cmr10"><tspan
       x="302.57288"
       y="1360.1515"
       id="tspan3047-97-1-08"
       style="font-size:36px">Me</tspan></text>
  <text
     x="1334.7959"
     y="300.69223"
     id="text3035-0"
     xml:space="preserve"><tspan
       x="1334.7959"
       y="300.69223"
       id="tspan3037-2"
       style="font-size:36px;font-style:normal;font-variant:normal;font-weight:normal;font-stretch:normal;font-family:cmr10;-inkscape-font-specification:cmr10">N<tspan
   id="tspan3043-2"
   style="font-size:65.00091553%;baseline-shift:super">s</tspan></tspan></text>
  <text
     x="1241.1411"
     y="255.61723"
     id="text3031-9"
     xml:space="preserve"
     style="font-size:30px;font-style:normal;font-variant:normal;font-weight:normal;font-stretch:normal;line-height:125%;letter-spacing:0px;word-spacing:0px;fill:#000000;fill-opacity:1;stroke:none;font-family:cmr10;-inkscape-font-specification:cmr10"><tspan
       x="1241.1411"
       y="255.61723"
       id="tspan3033-7"
       style="font-size:36px">N</tspan></text>
  <text
     x="1213.8984"
     y="818.09332"
     id="text3045-0-17-6-5"
     xml:space="preserve"
     style="font-size:30px;font-style:normal;font-variant:normal;font-weight:normal;font-stretch:normal;line-height:125%;letter-spacing:0px;word-spacing:0px;fill:#000000;fill-opacity:1;stroke:none;font-family:cmr10;-inkscape-font-specification:cmr10"><tspan
       x="1213.8984"
       y="818.09332"
       id="tspan3047-97-1-2-6"
       style="font-size:36px">A</tspan></text>
  <text
     x="1162.2914"
     y="1297.1851"
     id="text3045-0-17-46"
     xml:space="preserve"
     style="font-size:30px;font-style:normal;font-variant:normal;font-weight:normal;font-stretch:normal;line-height:125%;letter-spacing:0px;word-spacing:0px;fill:#000000;fill-opacity:1;stroke:none;font-family:cmr10;-inkscape-font-specification:cmr10"><tspan
       x="1162.2914"
       y="1297.1851"
       id="tspan3047-97-1-3"
       style="font-size:36px">Pog<tspan
   id="tspan3051-9-1-7"
   style="font-size:65.00091553%;baseline-shift:super" /></tspan></text>
</svg>
