<?xml version="1.0" encoding="UTF-8" standalone="no"?>
<!-- Created with Inkscape (http://www.inkscape.org/) -->

<svg
   xmlns:dc="http://purl.org/dc/elements/1.1/"
   xmlns:cc="http://creativecommons.org/ns#"
   xmlns:rdf="http://www.w3.org/1999/02/22-rdf-syntax-ns#"
   xmlns:svg="http://www.w3.org/2000/svg"
   xmlns="http://www.w3.org/2000/svg"
   version="1.1"
   width="913.64789"
   height="1088.1658"
   id="svg2">
  <defs
     id="defs4" />
  <metadata
     id="metadata7">
    <rdf:RDF>
      <cc:Work
         rdf:about="">
        <dc:format>image/svg+xml</dc:format>
        <dc:type
           rdf:resource="http://purl.org/dc/dcmitype/StillImage" />
        <dc:title></dc:title>
      </cc:Work>
    </rdf:RDF>
  </metadata>
  <path
     d="m 757.93982,1087.5056 c -10.85316,-1.6304 -30.32706,-9.1505 -39.91413,-15.4133 -2.79723,-1.8273 -7.78266,-5.0845 -11.07873,-7.2383 -6.88869,-4.5013 -30.9861,-23.5149 -37.92005,-29.9201 -9.25642,-8.5506 -23.58407,-20.4841 -33.61222,-27.9958 -1.46851,-1.1 -7.81908,-5.8744 -14.11237,-10.60985 -6.29329,-4.7354 -13.67438,-9.917 -16.40242,-11.51471 -6.15758,-3.60625 -14.92557,-9.09754 -26.81612,-16.79463 -19.85698,-12.85397 -26.68979,-16.84393 -40.3776,-23.57812 -7.82851,-3.85151 -14.48052,-7.00274 -14.78226,-7.00274 -2.52085,0 -28.78607,-19.30563 -34.36689,-25.26057 -12.48895,-13.32618 -22.76956,-33.24628 -25.56631,-49.53827 -1.46142,-8.51326 -3.16894,-24.94614 -2.75031,-26.46858 0.42091,-1.53073 0.19361,-93.29275 -0.23647,-95.46366 -0.2431,-1.2271 -0.51133,-8.4271 -0.59606,-16 -0.17098,-15.2804 -0.98398,-25.29153 -4.97563,-61.26892 -0.88229,-7.9522 -5.69712,-28.954 -6.94592,-30.29736 -0.40768,-0.43855 -4.52242,0.15531 -9.14387,1.31967 l -8.40264,2.11704 -4.5,6.60629 c -2.475,3.63346 -5.75388,7.98961 -7.2864,9.68033 -5.58111,6.15723 -10.68823,15.10982 -11.34246,19.8829 -0.35364,2.58012 -0.32724,4.69113 0.0587,4.69113 1.26834,0 4.95182,-2.25531 11.70094,-7.1642 7.6914,-5.59425 9.58703,-6.12176 7.49545,-2.0858 -1.77743,3.42979 -5.95406,7.18575 -11.80055,10.61202 -5.13017,3.00648 -8.96157,3.35921 -11.28211,1.03867 -2.47695,-2.47695 -1.78396,-3.31069 -21.68015,26.08387 -2.60018,3.84151 -4.62809,7.08408 -4.50646,7.20572 0.12164,0.12163 2.03125,-0.40248 4.24359,-1.1647 17.81075,-6.1363 29.50082,14.49094 32.85585,57.97442 0.64832,8.40269 1.51127,16.70607 2.01639,19.40182 0.16471,0.879 0.81878,5.87318 1.45349,11.09818 0.63472,5.225 1.56448,12.65 2.06614,16.5 0.50166,3.85 1.18479,10.375 1.51806,14.5 0.33327,4.125 0.79343,9.075 1.02258,11 0.22915,1.925 0.62699,7.1 0.8841,11.5 0.2571,4.4 0.76901,12.79112 1.13758,18.64693 0.6659,10.57976 0.65523,10.65148 -1.69229,11.36828 -1.29934,0.39674 -3.13834,1.40238 -4.08667,2.23475 -2.63474,2.31255 -14.4635,2.83988 -20.39199,0.90908 -7.26949,-2.36754 -26.78892,-3.77483 -34.8819,-2.51487 -7.99186,1.24422 -12.05827,0.62426 -15.73061,-2.39827 l -2.72877,-2.2459 0.96914,-31.5 c 0.53303,-17.325 1.63534,-38.25 2.44957,-46.5 0.81423,-8.25 1.69353,-18.15 1.95398,-22 1.15397,-17.05768 5.85347,-36.22634 11.69692,-47.71016 1.03833,-2.04059 1.88788,-4.3503 1.88788,-5.13269 0,-0.7824 3.223,-5.86282 7.16222,-11.28984 3.93923,-5.42702 11.43228,-16.16731 16.65124,-23.86731 5.21895,-7.7 10.49634,-15.35 11.72752,-17 1.23119,-1.65 3.63192,-5.78736 5.33497,-9.19414 1.70304,-3.40678 5.01516,-8.5985 7.36025,-11.53717 8.90487,-11.15882 10.7638,-13.6792 10.7638,-14.59388 0,-1.09848 -9.05243,0.58511 -23.5,4.37059 -5.5,1.44109 -13.375,3.42303 -17.5,4.40432 -23.56864,5.60672 -33.28972,7.99974 -60,14.77004 -16.225,4.11258 -31.975,8.04331 -35,8.73495 -3.025,0.69164 -13.375,3.15971 -23,5.4846 -16.11193,3.89178 -23.01528,5.62642 -38,9.54844 -3.025,0.79175 -12.25,3.06853 -20.5,5.05952 -8.25,1.99099 -15.3922,3.99704 -15.87156,4.45791 -1.36802,1.31524 8.32413,5.71658 15.43456,7.00905 3.54035,0.64353 16.112,1.7889 27.937,2.54526 11.825,0.75636 23.525,1.78867 26,2.29403 15.65843,3.19721 21.35388,4.68726 28.25,7.39081 4.44637,1.74315 7.75,3.62559 7.75,4.41604 0,1.56102 -2.34319,1.17835 -10.5,-1.71474 -12.9195,-4.58235 -30.96537,-7.77995 -48,-8.50525 -23.1146,-0.98418 -35.3712,-3.01604 -46.12107,-7.64581 l -9.49915,-4.0911 -21.68989,4.74362 c -26.29571,5.75093 -39.00351,8.67933 -72.18991,16.63562 -14.025,3.36243 -26.625,6.32868 -28,6.59168 -2.3771,0.45467 -2.5102,0.23233 -2.7076,-4.52422 -0.1142,-2.75131 -1.5933,-11.22314 -3.287,-18.82628 -1.6936,-7.60314 -3.3057,-14.87409 -3.5824,-16.15768 -0.5057,-3.27967 0.231,-5.12387 1.577,0.78523 0,3.13132 5.9501,27.34004 7.717,31.39752 1.53,3.51367 1.942,3.79955 4.7295,3.2819 2.9685,-0.55127 16.7571,-3.67792 48.5535,-11.00983 8.525,-1.96577 18.65,-4.23398 22.5,-5.04045 19.0368,-3.98769 41.08555,-8.89027 41.78353,-9.29062 1.20906,-0.6935 -2.59854,-3.25675 -17.62165,-11.86276 -7.61098,-4.35996 -15.48598,-8.90876 -17.49998,-10.10845 -2.014,-1.19969 -5.0119,-2.9429 -6.6619,-3.8738 -4.2564,-2.40144 -19.6867,-13.7944 -28.3209,-20.9109 -4.0266,-3.31873 -9.0959,-7.45491 -11.2652,-9.19152 -8.7887,-7.03567 -27.9712,-25.18007 -36.7331,-34.7452 -10.7978,-11.78769 -25.085,-33.02313 -33.369,-49.59733 -3.4231,-6.84873 -3.561,-4.36771 -0.4791,8.62328 0.277,1.1678 0.7797,3.8678 1.1171,6 0.3374,2.1322 1.021,5.45172 1.5192,7.37672 0.4982,1.925 2.0384,9.125 3.4226,16 3.097,15.382 8.4623,39.6753 9.1997,42.75 13.1063,54.64932 11.3749,50.87501 9.8975,48.84329 -0.3656,-0.50278 -12.156,-51.20579 -13.3246,-56.84329 -1.1685,-5.6375 -3.2621,-15.2 -4.6524,-21.25 -2.5093,-10.91926 -9.9958,-44.9612 -13.582,-61.75913 -1.0286,-4.81753 -3.7294,-16.29253 -6.0018,-25.5 -2.2725,-9.20748 -5.7752,-25.06587 -7.7838,-35.24087 -3.4171,-17.3101 -3.647,-19.65774 -3.5737,-36.5 0.043,-9.9 0.6237,-23.85 1.2903,-31 0.6666,-7.15 1.4002,-15.05793 1.6302,-17.57317 0.7523,-8.22658 2.6349,-16.56155 5.9693,-26.42683 0.7435,-2.2 2.1176,-6.7 3.0535,-10 4.0626,-14.32462 15.8167,-51.22311 18.3553,-57.62053 5.9987,-15.11722 6.6673,-16.62312 15.4855,-34.87947 6.8003,-14.0787 12.3562,-24.46419 17.0386,-31.84956 1.5167,-2.39225 3.9207,-6.44225 5.3422,-9 1.4216,-2.55774 3.0752,-5.52652 3.6747,-6.59729 1.0923,-1.95114 13.1099,-19.92834 23.5308,-35.19998 3.0575,-4.48075 9.0366,-13.28186 13.2868,-19.55802 17.3158,-25.56947 37.8355,-48.54052 64.27232,-71.950381 11.06716,-9.79999 32.76289,-25.84476 34.94728,-25.84476 0.37233,0 5.71151,-3.003359 11.86484,-6.674131 17.00514,-10.144415 25.62684,-14.246459 46.18788,-21.975312 6.6,-2.480927 13.8,-5.31291 16,-6.293295 2.2,-0.980386 5.8,-2.352982 8,-3.050214 2.2,-0.697231 4.4603,-1.629333 5.0229,-2.071335 1.78596,-1.403153 22.19899,-3.824969 62.4771,-7.412326 43.09068,-3.837858 84.08555,-4.19521 120.15436,-1.047386 21.00021,1.832746 62.85503,8.483133 76.84564,12.210137 18.37817,4.895824 46.17267,13.71781 54.5,17.298326 1.1,0.472969 3.35,1.152883 5,1.510921 1.65,0.358038 6.6,2.466549 11,4.68558 4.4,2.219031 12.725,5.81874 18.5,7.999353 5.775,2.180614 12.3,4.808978 14.5,5.840808 2.2,1.031831 9.625,4.193707 16.5,7.02639 6.875,2.832684 13.00394,5.562318 13.61987,6.065853 0.61592,0.503536 7.06735,3.868281 14.3365,7.477201 14.6219,7.259361 22.85786,12.325201 37.04363,22.785101 24.32662,17.93724 54.53112,48.24291 70.38858,70.62432 7.47658,10.55253 15.753,23.22469 18.61389,28.5 1.78965,3.3 3.79508,6.675 4.45652,7.5 5.01686,6.25744 23.29265,44.07523 27.54577,57 0.99543,3.025 3.15926,8.65 4.80852,12.5 1.64926,3.85 5.55567,14.875 8.6809,24.5 3.12524,9.625 7.65666,23.36006 10.06984,30.52235 7.46014,22.14164 11.32035,46.36025 9.95831,62.47765 -0.39507,4.675 -0.83284,11.425 -0.97283,15 -1.23062,31.42872 -7.25313,52.86262 -20.42569,72.69429 -7.83591,11.79719 -11.27243,21.18339 -11.38735,31.10233 -0.0678,5.84981 0.38687,7.59472 3.57045,13.70338 8.94476,17.16327 22.61376,39.9672 30.19309,50.37104 2.75,3.77481 5.74525,8.16056 6.65611,9.74612 0.91085,1.58556 3.9265,6.58608 6.70143,11.11226 5.37362,8.76488 6.33355,11.32044 4.49477,11.96607 -0.63123,0.22163 -2.84662,-2.43168 -4.92308,-5.89626 -3.6964,-6.16742 -16.55621,-25.34811 -25.03159,-37.33515 -2.34722,-3.31975 -5.53441,-8.35928 -7.08265,-11.19895 -7.25307,-13.30302 -13.27579,-21.96849 -14.43042,-24.48217 l -5.39866,-11.75314 c -0.8316,-2.09163 0.002,-5.02816 -1.01564,-4.90674 -13.47517,1.60711 -9.1928,5.25675 -10.46469,26.76559 0.003,3.08623 0.48269,7.32952 1.06583,9.42954 1.03166,3.71521 0.10192,6.68179 -2.09411,6.68179 -1.07774,0 -2.83416,-8.20802 -3.42383,-16 -0.64079,-8.46754 -1.45134,-12.93837 -2.88737,-15.92616 -2.46593,-5.13055 -5.61002,-3.25187 -6.80606,4.06679 -0.48172,2.94765 -1.58999,9.63437 -2.46283,14.85937 -0.87285,5.225 -1.93611,11.75 -2.36281,14.5 -7.83454,50.49222 -10.63044,63.89848 -14.23089,68.23675 -1.92968,2.32513 -8.51448,5.26325 -11.79579,5.26325 -7.35926,0 -14.12464,-5.77475 -19.40917,-16.56716 -3.08971,-6.31002 -2.89355,-5.69276 -5.69878,-17.93284 -1.7686,-7.717 -2.05885,-12.27878 -2.03601,-32 0.0146,-12.65 0.26123,-24.06848 0.54797,-25.37439 0.795,-3.62071 0.49216,-3.56692 -53.41173,9.48767 -12.375,2.997 -30.6,7.44839 -40.5,9.89197 -9.9,2.44357 -25.34704,6.21407 -34.32675,8.37889 -8.97971,2.16481 -16.55317,4.16244 -16.8299,4.43918 -0.27674,0.27673 0.24556,1.64584 1.16067,3.04247 2.39601,3.65678 1.47551,13.81877 -2.36732,26.13421 -3.20605,10.27468 -3.32499,12.5 -0.66808,12.5 0.84226,0 1.53138,0.37396 1.53138,0.83102 0,0.45706 1.14038,1.44133 2.53418,2.18727 6.6567,3.56256 8.49571,13.11212 6.54402,33.98171 -0.64294,6.875 -1.37969,15.2 -1.63722,18.5 -0.87876,11.26019 -1.63051,16.8683 -2.60457,19.43026 -0.5354,1.40822 -1.57873,5.4875 -2.31852,9.06507 -2.6143,12.64267 -5.57581,22.53745 -7.55459,25.24088 -1.71039,2.33674 -1.9542,3.98105 -1.67001,11.26303 0.18302,4.68975 0.75441,8.90519 1.26974,9.36765 0.96274,0.86395 20.4324,5.39531 33.00374,7.68126 3.88672,0.70676 17.61172,1.55885 30.5,1.89355 12.88827,0.33469 27.70823,1.02834 32.93323,1.54144 5.225,0.51311 16.025,1.21622 24,1.56247 16.1746,0.70224 30.21813,3.14413 43.11994,7.49767 11.21658,3.78488 17.30393,4.42215 28.83042,3.01819 13.78994,-1.67965 29.61003,-1.44167 37.70453,0.56719 10.22011,2.53638 15.28309,7.22065 10.09511,9.33999 -8.69998,3.55401 -19.47507,20.20083 -23.25982,35.93491 -2.65695,11.04556 -1.63425,38.71505 1.92829,52.17071 3.56886,13.47953 4.09224,21.48133 2.18629,33.42573 -3.2934,20.63942 -4.77877,25.14233 -8.18096,24.80067 -1.64481,-0.16517 -2.45603,1.20548 -4.7348,8 -1.51245,4.50963 -2.73621,8.70224 -2.71946,9.31691 0.0168,0.61467 -2.05328,4.21467 -4.60007,8 -5.68558,8.45056 -13.15348,23.02153 -17.49186,34.12922 -0.59144,1.5143 -1.81835,7.92825 -2.72648,14.25325 -1.34799,9.3887 -1.48524,14.245 -0.74757,26.4513 0.98263,16.2597 0.48034,19.9993 -3.90578,29.0791 -3.77684,7.8185 -8.5609,12.6896 -16.14791,16.4417 -7.39123,3.6553 -14.22179,4.5418 -23.84987,3.0954 z m 21.67944,-7.3175 c 7.12129,-3.7277 10.85427,-8.3276 15.07018,-18.5699 2.72868,-6.6292 2.74771,-6.8362 2.5,-27.1801 -0.13729,-11.275 0.12351,-24.1 0.57957,-28.5 l 0.82918,-8.00005 -6.47872,7.03645 c -3.5633,3.87 -8.79367,8.2963 -11.62304,9.8363 -5.6049,3.0505 -6.33109,2.9105 -11.7648,-2.2681 -1.2145,-1.1576 -2.40023,-2.1046 -2.63495,-2.1046 -0.23473,0 -3.3326,3.9375 -6.88416,8.75 -11.70929,15.8665 -20.31161,37.2614 -18.72024,46.5593 0.68535,4.0042 5.39438,11.5188 7.94754,12.6825 0.825,0.3761 3.3,1.6079 5.5,2.7375 2.93508,1.507 6.0594,2.0827 11.73538,2.1622 6.90053,0.097 8.40547,-0.2423 13.94406,-3.1415 z m -41.16504,-7.7215 c -2.12899,-4.2175 -3.0144,-7.4096 -3.0144,-10.8676 0,-9.3545 7.81237,-28.8923 16.9911,-42.4926 3.56592,-5.2837 3.63129,-5.6683 0.96345,-5.6683 -3.52662,0 -6.95455,-4.3952 -6.95455,-8.917 0,-4.1542 2.77476,-13.00275 5.98414,-19.08305 1.76508,-3.34401 6.01708,-13.95135 6.01282,-15 -10e-4,-0.275 -2.13839,2.67613 -4.7495,6.55807 -6.55557,9.7462 -13.32679,18.02693 -15.93563,19.48813 -1.84697,1.0345 -2.93731,0.8535 -6.9924,-1.1603 -9.27379,-4.6056 -8.69125,-8.28429 7.77099,-49.07263 2.15027,-5.3277 3.89747,-10.5027 3.88268,-11.5 -0.0398,-2.68419 -5.42033,3.92941 -8.46305,10.4026 -4.20908,8.95456 -14.64828,22.30845 -22.33678,28.57337 -4.84674,3.94934 -10.02096,3.76061 -13.15607,-0.47985 -2.2528,-3.04706 -2.30675,-3.49487 -1.19928,-9.95317 0.63781,-3.7194 1.78445,-8.57604 2.54809,-10.79252 1.84632,-5.35897 0.7268,-4.44813 -4.74926,3.86399 -6.52912,9.91058 -9.86804,11.73746 -16.1887,8.85757 -2.57893,-1.17504 -2.64939,-1.42829 -2.15594,-7.75 0.32714,-4.19108 1.65847,-9.22548 3.71157,-14.03526 8.1394,-19.06812 12.12043,-30.29589 11.10282,-31.3135 -1.08392,-1.08392 -8.58888,5.98845 -14.5865,13.74571 -1.65,2.1341 -4.125,5.26629 -5.5,6.96044 -1.375,1.69414 -3.175,3.97858 -4,5.07653 -0.825,1.09794 -3.79402,4.36653 -6.59783,7.26354 -4.22892,4.3695 -5.69061,5.26728 -8.57568,5.26728 -4.36864,0 -7.58457,-3.20295 -8.20029,-8.16718 -0.32586,-2.62721 0.4794,-5.75312 2.94039,-11.41424 1.86402,-4.28791 3.26693,-7.9184 3.11756,-8.06776 -0.14936,-0.14936 -1.3769,1.13279 -2.72786,2.84922 -4.98542,6.33413 -10.40239,10.77478 -13.15924,10.78749 -4.40826,0.0203 -7.65613,-2.03052 -8.82512,-5.57258 -1.48382,-4.49601 -0.36635,-9.61443 3.91126,-17.91495 1.98406,-3.85 4.6422,-9.24097 5.90698,-11.97993 l 2.29959,-4.97994 -9.39125,9.57619 c -15.79333,16.10436 -21.03334,18.4353 -25.94299,11.54035 -3.35897,-4.71724 -2.72011,-8.88593 3.11098,-20.29996 2.82343,-5.52668 5.1335,-10.34286 5.1335,-10.70261 0,-0.35976 -1.78334,-0.6541 -3.96298,-0.6541 -4.54705,0 -13.81823,-3.37015 -16.04499,-5.83249 -6.87926,-7.60706 -8.8693,-18.92105 -4.95445,-28.16751 6.28191,-14.83717 18.49422,-25.40776 29.21242,-25.28535 2.6125,0.0298 4.75,-0.36273 4.75,-0.87236 0,-0.50963 -0.63677,-4.17014 -1.41505,-8.13445 -3.99869,-20.36815 -4.98771,-36.26111 -3.40735,-54.75421 1.11459,-13.04265 1.05891,-24.20136 -0.13644,-27.34537 -1.14949,-3.0234 -1.89112,-14.71663 -3.06496,-48.32518 -1.08963,-31.19749 -2.49084,-53.13105 -3.45588,-54.09609 -0.84961,-0.84961 -9.20432,2.41176 -14.33595,5.59623 -2.40789,1.49423 -6.27973,3.84178 -8.60411,5.21678 -2.32437,1.375 -7.37584,4.41627 -11.22548,6.75838 -3.84964,2.34212 -12.36681,6.58772 -18.92706,9.43468 -11.55477,5.01444 -12.22476,5.17749 -21.42772,5.2148 -12.91058,0.0523 -18.46545,-2.18951 -27.51167,-11.10319 -8.77911,-8.65047 -10.85566,-13.07291 -14.0708,-29.96669 -0.40157,-2.10999 -0.55101,-2.12946 -6.21031,-0.80924 -13.23464,3.08743 -31.75118,7.70455 -32.34773,8.06594 -0.35229,0.21341 -0.0507,2.97941 0.67029,6.14667 4.46698,19.62427 5.41122,24.42247 5.95465,30.25865 0.33288,3.575 1.01643,8.75 1.51901,11.5 2.21548,12.12271 3.25602,42.25548 3.48769,101 0.24895,63.12579 0.64083,74.25818 2.9745,84.5 4.55431,19.98759 18.54943,41.2747 35.44154,53.90793 11.2168,8.38881 23.94744,16.64864 27.09283,17.57825 5.23602,1.5475 26.21417,12.50356 33.5,17.49573 2.2,1.50742 9.625,6.26657 16.5,10.5759 6.875,4.30933 13.69473,8.75923 15.15496,9.88867 1.46023,1.12943 6.33186,4.30352 10.82584,7.05352 14.83873,9.0803 35.58229,25.02275 58.55171,45.00005 18.10974,15.7506 34.11707,28.6681 41.2745,33.3074 3.13332,2.0309 7.32757,4.9408 9.32055,6.4664 3.91798,2.9991 22.56844,12.5955 24.63684,12.6766 0.81206,0.032 0.186,-2.0867 -1.75,-5.9219 z m 40.96939,-63.0198 c 1.90145,-1.0176 14.54915,-14.92625 19.01621,-20.91195 1.375,-1.84251 3.2875,-4.19302 4.25,-5.22339 0.9625,-1.03038 1.75,-2.11723 1.75,-2.41522 0,-0.298 0.92182,-1.53128 2.04849,-2.74061 1.12667,-1.20934 3.61195,-4.99452 5.52284,-8.41151 1.91089,-3.417 4.97581,-8.17974 6.81094,-10.58389 5.12789,-6.7179 11.01749,-26.72163 7.86773,-26.72235 -0.4125,-10e-5 -4.93057,2.10241 -10.04016,4.67224 -11.26607,5.66619 -12.70047,7.42259 -22.3178,27.32793 -3.85315,7.975 -7.39129,15.175 -7.86253,16 -3.81001,6.67018 -13.02951,26.53415 -13.02951,28.07285 0,2.1461 2.88069,2.5966 5.98379,0.9359 z m -20.89482,-4.6876 c 3.44232,-2.7035 9.94976,-9.99465 18.37212,-20.58455 2.52107,-3.16987 8.47282,-13.51749 13.22612,-22.99471 7.10519,-14.16647 9.58449,-18.13655 13.93929,-22.32081 2.91332,-2.79923 5.77562,-6.34855 6.36069,-7.88738 1.35845,-3.573 0.4109,-6.77575 -1.81784,-6.14436 -2.92989,0.83003 -12.57077,2.3826 -15.47236,2.49167 -1.54165,0.058 -3.66218,0.56518 -4.71227,1.12717 -3.2539,1.74143 -8.98178,11.05153 -16.29865,26.49182 -1.82445,3.85 -3.79966,7.9 -4.38938,9 -1.80559,3.36801 -14.33539,32.3582 -15.89053,36.76605 -0.80434,2.2797 -1.2389,4.7275 -0.96568,5.4395 0.79712,2.0772 3.97269,1.5024 7.64849,-1.3844 z m -18.63116,-16.57115 c 6.55349,-7.45861 16.7908,-23.64305 25.77601,-40.75 2.74437,-5.225 6.96446,-13.14565 9.37797,-17.60143 6.10438,-11.26981 5.78557,-14.95722 -1.50114,-17.36205 -5.2917,-1.74642 -11.55587,-0.0592 -16.96261,4.56875 -3.06035,2.61955 -4.54314,5.09535 -6.66698,11.13176 -3.64975,10.37342 -7.59583,20.74093 -12.31648,32.35902 -3.91441,9.63384 -7.45793,20.00648 -8.60149,25.17836 -0.48325,2.18559 -0.0465,3.29989 2.05775,5.24999 1.46916,1.3616 3.0206,2.4756 3.44764,2.4756 0.42703,0 2.85223,-2.3625 5.38933,-5.25 z m -28.7816,-21.14879 c 5.24231,-4.71329 12.6267,-14.93195 18.67543,-25.84341 2.05564,-3.70821 7.99246,-12.03132 13.19294,-18.49579 5.47616,-6.80716 9.45542,-12.67408 9.45542,-13.94085 0,-3.24838 -7.47679,-8.8767 -13.45502,-10.12856 -4.90037,-1.02615 -4.99133,-0.99909 -8.24839,2.4544 -1.81135,1.92059 -3.57698,4.69822 -3.92362,6.1725 -0.34663,1.47427 -3.49735,8.6893 -7.00161,16.03339 -3.50425,7.34409 -6.37136,13.87713 -6.37136,14.51786 0,0.64074 -1.125,2.82057 -2.5,4.84406 -1.375,2.0235 -2.5,4.27783 -2.5,5.00963 0,0.7318 -0.59478,2.21818 -1.32173,3.30305 -1.81242,2.7048 -5.67827,14.95504 -5.67827,17.99351 0,3.98212 3.99301,3.18989 9.67621,-1.91979 z m -24.98058,-7.85121 c 1.12434,-1.2375 4.883,-6.75 8.35257,-12.25 3.46958,-5.5 9.53204,-14.95 13.47214,-21 9.06219,-13.91495 14.47966,-24.10901 14.47966,-27.24641 0,-5.54946 -4.0282,-9.2049 -13.5,-12.25075 -2.2,-0.70746 -5.32449,-2.39165 -6.94331,-3.74266 -7.27577,-6.07209 -17.64649,-8.44889 -20.05669,-4.59668 -0.55,0.87907 -3.7722,5.79555 -7.16045,10.92553 -5.2058,7.88185 -13.14247,22.87173 -19.80792,37.41097 -0.88251,1.925 -2.68659,5.525 -4.00907,8 -3.04663,5.70172 -3.20496,9.56442 -0.45242,11.03754 1.812,0.96975 2.65369,0.49372 6.75,-3.81754 2.57392,-2.709 5.64961,-6.22922 6.83486,-7.82272 6.0961,-8.19586 18.44282,-23.16976 20.71531,-25.12318 4.18067,-3.59369 7.13291,-3.86179 10.07937,-0.91533 1.40267,1.40268 2.55032,3.60216 2.55032,4.88773 0,2.54494 -6.86819,21.0651 -11.96118,32.2535 -3.72333,8.17948 -5.16173,16.5 -2.85242,16.5 0.80573,0 2.38489,-1.0125 3.50923,-2.25 z m -46.54018,-32.29926 c 2.38465,-2.5021 5.52589,-6.32137 6.98052,-8.48726 1.45463,-2.1659 3.84378,-5.40623 5.30922,-7.20074 9.17154,-11.23107 23.58491,-32.78018 24.937,-37.28275 0.79226,-2.6383 -4.83099,-11.24165 -8.88219,-13.58941 -1.65,-0.95622 -5.025,-2.45643 -7.5,-3.3338 -2.502,-0.88695 -6.83766,-3.8067 -9.765,-6.57601 -7.97948,-7.54871 -11.02069,-6.86146 -17.78577,4.01923 -4.58097,7.36787 -27.39563,52.92014 -27.9012,55.70819 -0.49229,2.7148 0.89219,6.29181 2.43524,6.29181 1.93909,0 12.97324,-10.2263 23.01673,-21.3316 5.775,-6.38554 11.13957,-11.62319 11.92126,-11.63923 2.18326,-0.0448 5.08146,3.03709 5.05538,5.37582 -0.0128,1.15225 -1.32257,4.34501 -2.9105,7.09501 -12.3072,21.31383 -14.07832,24.8002 -14.77276,29.07951 -1.27917,7.88265 3.30403,8.75226 9.86207,1.87123 z m 181.71759,0.6977 c 4.14702,-3.43974 3.69718,-6.00838 -1.69437,-9.67507 l -3.67867,-2.5018 -0.62618,3.02635 c -0.65344,3.15809 0.79522,12.0219 1.95716,11.97518 0.36796,-0.0148 2.18689,-1.28589 4.04206,-2.82466 z m 15.58371,-6.41115 c 0.29843,-1.78051 0.80971,-4.58729 1.13616,-6.23729 0.32646,-1.65 0.8326,-6.95744 1.12476,-11.7943 0.57864,-9.57962 -1.40258,-20.63084 -4.69806,-26.2057 -0.97537,-1.65 -2.54337,-5.475 -3.48445,-8.5 -0.94108,-3.025 -2.29902,-6.85 -3.01763,-8.5 -0.71862,-1.65 -1.63884,-4.575 -2.04494,-6.5 -0.40611,-1.925 -2.29308,-7.1 -4.19327,-11.5 -1.9002,-4.4 -3.97525,-9.2375 -4.61122,-10.75 -2.13763,-5.08378 -3.6681,-3.31625 -3.6681,4.23626 0,6.86017 3.49306,34.38447 4.58864,36.15716 0.4649,0.75222 0.53388,11.75453 0.1872,29.85658 -0.13718,7.16298 0.30913,8.16963 6.58445,14.85125 3.5969,3.82977 6.91071,8.43985 7.62714,10.61067 l 1.26685,3.8386 1.32993,-3.16298 c 0.73147,-1.73963 1.57411,-4.61975 1.87254,-6.40025 z m -49.03935,1.39636 c 0.29449,-0.4765 -0.35395,-1.67124 -1.44098,-2.65499 -1.92141,-1.73885 -1.97642,-1.71473 -1.97642,0.86635 0,2.56892 2.21777,3.72968 3.4174,1.78864 z m 11.2675,-1.19428 c 1.54831,-0.58334 4.941,-2.49584 7.53931,-4.25 4.45192,-3.00554 4.7253,-3.44874 4.743,-7.68937 0.0103,-2.475 -0.82544,-8.1 -1.85726,-12.5 -1.92338,-8.20185 -2.65164,-12.00535 -3.63796,-19 -0.31022,-2.2 -1.68137,-9.66692 -3.047,-16.59315 -1.36562,-6.92624 -3.12381,-17.27624 -3.90707,-23 -2.7779,-20.29977 -3.61405,-23.90685 -5.54175,-23.90685 -2.09426,0 -2.95796,4.60667 -3.49434,18.63755 -1.00327,26.24402 -2.47263,46.61516 -4.06538,56.36245 -3.19777,19.56959 -3.46723,17.64939 3.62121,25.80439 3.43999,3.95758 6.38449,7.19561 6.54334,7.19561 0.15884,0 1.5556,-0.47728 3.1039,-1.06063 z m -21.75519,-17.18937 c -0.0589,-2.72353 -0.2095,-2.92602 -0.92971,-1.25 -1.18717,2.7627 -1.18717,4.5 0,4.5 0.55,0 0.96837,-1.4625 0.92971,-3.25 z m -10.19101,-1.37733 c 5.52827,-1.4817 7.80415,-9.95633 9.31234,-34.67624 0.57705,-9.45804 1.23914,-19.89643 1.4713,-23.19643 0.23216,-3.3 0.70204,-9.9628 1.04418,-14.80622 0.64274,-9.09875 0.11241,-13.69378 -1.58045,-13.69378 -1.23158,0 -3.51925,5.00803 -10.04959,22 -2.85358,7.425 -6.90426,17.37729 -9.00153,22.11619 -4.50037,10.16886 -9.37568,28.99167 -8.4571,32.65157 0.68931,2.74643 5.75148,7.96749 9.00436,9.28698 2.47187,1.00268 5.29594,1.11142 8.25649,0.31793 z m -25.92726,-11.41163 c 1.20371,-1.12142 2.18856,-2.64108 2.18856,-3.37701 0,-0.73593 1.29224,-5.5559 2.87165,-10.71104 3.70514,-12.0935 5.68608,-22.19435 7.58619,-38.68225 0.84359,-7.32009 1.81878,-14.52009 2.16709,-16 0.43158,-1.83373 0.30584,-2.37224 -0.39477,-1.69074 -0.81367,0.79146 -15.49568,29.05795 -27.34259,52.64124 -4.56359,9.08459 -2.79039,16.12511 4.63949,18.42125 5.53584,1.7108 5.825,1.68981 8.28438,-0.60145 z m -326.49146,-9.19404 4.90709,-2.11097 -0.63603,-11.57802 c -0.34981,-6.3679 -0.87037,-15.85301 -1.1568,-21.07801 -0.28642,-5.225 -0.72433,-10.85 -0.97311,-12.5 -1.09553,-7.26575 -2.48454,-19.29881 -3.04147,-26.34832 -0.33248,-4.20843 -1.04014,-9.67668 -1.57257,-12.15168 -0.53244,-2.475 -1.3852,-9 -1.89502,-14.5 -2.07575,-22.3935 -3.61501,-34.15279 -5.49766,-42 -3.01165,-12.55308 -7.11957,-20.4662 -11.9847,-23.08625 -4.39062,-2.3645 -11.08284,-1.47132 -16.61819,2.21794 -12.31285,8.20642 -21.65544,35.0743 -23.25167,66.86831 -0.50053,9.96969 -2.17967,31.95821 -3.09275,40.5 -0.26457,2.475 -0.71789,15.15724 -1.00737,28.18276 -0.41022,18.45772 -0.24762,23.8556 0.73696,24.46616 0.69482,0.43087 10.48831,0.85841 21.76331,0.95008 17.41764,0.14162 21.39543,0.46301 26.45528,2.1375 7.78877,2.57758 10.93065,2.58326 16.8647,0.0305 z m 303.43918,-2.017 c 2.66748,-2.84746 7.62668,-13.75828 11.24939,-24.75 1.54081,-4.675 3.4851,-10.09138 4.32064,-12.0364 1.5632,-3.63894 4.96968,-16.57065 6.11493,-23.2136 1.22823,-7.12423 -3.66898,-3.56967 -13.43282,9.75 -5.15206,7.02835 -9.55049,11.3743 -12.73828,12.5863 -3.08014,1.17106 -7.1618,-0.79498 -7.91971,-3.81475 -0.88037,-3.50767 0.43646,-13.20554 2.55924,-18.84759 2.20262,-5.85428 3.4608,-15.07518 2.16617,-15.87531 -1.15256,-0.71232 -4.38205,3.32563 -6.12668,7.66042 -0.72847,1.81001 -3.58457,6.66593 -6.34688,10.79093 -2.76231,4.125 -6.99803,11.325 -9.41271,16 -2.41468,4.675 -5.69581,10.80478 -7.29139,13.62173 -2.99729,5.29161 -3.74586,10.93122 -1.90703,14.36712 0.60324,1.12715 4.20035,2.89531 9.14961,4.49748 4.48557,1.45207 9.67721,3.80072 11.53698,5.21923 8.7447,6.66991 14.42795,7.94134 18.07854,4.04444 z m -101.32535,-6.70991 c 4.89501,-9.99254 12.57115,-23.05962 16.32179,-27.78457 3.68285,-4.63954 3.58664,-5.51006 -0.86323,-7.81118 -7.43475,-3.84465 -7.85878,-10.27578 -1.40372,-21.28966 1.93124,-3.29516 3.51135,-6.23188 3.51135,-6.52603 0,-0.29415 -1.56443,-1.27718 -3.4765,-2.18452 -1.91208,-0.90734 -5.06091,-3.40346 -6.9974,-5.54692 -1.93649,-2.14347 -3.67389,-3.89721 -3.86088,-3.89721 -0.18699,0 0.274,3.9375 1.02443,8.75 0.75042,4.8125 1.94212,12.48855 2.64822,17.05789 0.7061,4.56934 1.00314,8.48135 0.6601,8.69336 -0.34304,0.21201 -2.63998,-0.33957 -5.10432,-1.22574 -4.36553,-1.56983 -4.62385,-1.54564 -10.05714,0.9418 -6.31183,2.88965 -12.78018,8.33745 -15.90764,13.39777 -2.85904,4.62604 -5.82934,12.95932 -5.39045,15.12312 0.19655,0.96899 0.63306,3.89716 0.97003,6.50705 0.72889,5.64538 4.2746,10.33458 8.82446,11.67034 1.7419,0.51139 6.03135,0.87012 9.53211,0.79719 l 6.36503,-0.13261 z m 194.50362,-2.60166 c -1.6287,-9.49109 -3.8959,-31.40986 -3.91755,-37.87398 -0.0159,-4.73529 0.4198,-6.40356 2.15443,-8.25 2.76957,-2.94807 4.948,-2.92385 8.53556,0.0949 2.95205,2.48399 4.73136,5.98751 10.45727,20.59068 l 3.33286,8.5 0.63625,-11 c 0.34994,-6.05 1.08006,-12.8 1.62249,-15 1.39662,-5.66439 7.13537,-19.69931 8.82334,-21.57874 0.77986,-0.86831 1.41792,-2.05934 1.41792,-2.64675 0,-0.5874 2.8125,-3.82997 6.25,-7.20571 4.78481,-4.69886 5.92389,-6.33974 4.85891,-6.99948 -0.7651,-0.47396 -6.49419,-1.43053 -12.73131,-2.12571 -9.69477,-1.08056 -13.41057,-1.03219 -25.60891,0.33337 -13.47042,1.50796 -19.9829,1.42835 -22.26869,-0.27222 -0.55,-0.40919 -2.8,-1.06511 -5,-1.45761 -2.2,-0.3925 -6.48754,-1.54728 -9.52788,-2.56619 -9.39903,-3.1499 -24.92397,-5.76932 -37.47212,-6.32242 -6.6,-0.29092 -17.625,-0.98781 -24.5,-1.54864 -15.69486,-1.28033 -47.93493,-2.02421 -48.49442,-1.11893 -0.23081,0.37347 0.0649,2.44078 0.65713,4.59403 2.04129,7.4217 1.84706,7.09557 3.16255,5.31052 3.63915,-4.93815 10.37557,-1.80862 9.82644,4.56505 l -0.31564,3.66372 4.22116,-2.15348 c 4.19352,-2.13937 4.23825,-2.14076 6.83197,-0.21217 2.9871,2.2211 3.95275,8.26091 2.27692,14.24136 -1.11615,3.98313 -4.05253,13.75283 -4.80896,16 -1.18658,3.52503 4.03977,-4.18138 8.13819,-12 4.82809,-9.21063 7.13549,-11.38174 11.05165,-10.39885 2.69871,0.67733 5.45301,4.93658 5.45301,8.43252 0,1.17315 0.3375,1.95927 0.75,1.74693 9.71351,-5.00007 13.5546,-4.59367 14.06037,1.48761 0.34528,4.15171 0.78539,4.40366 3.89175,2.22788 2.71265,-1.90002 6.49949,-0.64422 8.84309,2.93257 1.26484,1.93039 1.49789,3.74921 0.99872,7.79463 l -0.65108,5.27671 4.20038,-6.60166 c 4.2777,-6.72316 9.40332,-10.68925 12.35203,-9.55772 1.83991,0.70604 2.01484,4.98671 0.52197,12.77289 -0.56802,2.96257 -1.26001,7.86149 -1.53775,10.88649 l -0.50499,5.5 1.69537,-3.5 c 0.93246,-1.925 3.31195,-7.37558 5.28776,-12.1124 5.43045,-13.01899 11.31015,-16.82922 16.27399,-10.54604 0.92488,1.17071 1.82488,1.91028 2,1.6435 0.17511,-0.26678 1.00743,-1.83506 1.84959,-3.48506 2.97385,-5.82653 10.74724,-3.79378 14.23633,3.7228 0.83667,1.80246 1.77675,5.5272 2.08907,8.2772 2.26233,19.92038 2.98086,24.91579 4.60281,32 1.0074,4.4 2.13652,10.025 2.50916,12.5 0.82422,5.47425 1.58376,8.28101 2.10098,7.76379 0.21281,-0.21282 -0.0716,-3.05923 -0.63212,-6.32536 z m -139.96671,-21.5277 c 4.19807,-4.32582 7.33046,-10.25101 11.0546,-20.91073 1.24898,-3.575 2.83484,-7.4 3.52413,-8.5 1.29726,-2.07022 5.89343,-16.96031 6.69369,-21.68535 1.22886,-7.25574 -3.1552,-5.31168 -11.77139,5.21988 -10.9031,13.32683 -16.47801,16.65002 -19.85163,11.8335 -1.33667,-1.90837 -1.30178,-2.66877 0.33272,-7.25 5.59921,-15.69364 6.6619,-24.28383 3.81132,-30.80848 -1.35682,-3.10559 -2.21866,-3.78363 -5.43825,-4.27843 -2.10425,-0.3234 -6.07671,-1.03247 -8.82769,-1.57573 -14.37192,-2.8381 -25.42035,6.45407 -25.47626,21.42653 -0.0202,5.41814 0.24883,6.13731 3.41231,9.12086 5.4497,5.13973 7.86834,5.0625 12.29487,-0.39258 2.05752,-2.53561 4.56575,-5.5102 5.57384,-6.6102 1.00809,-1.1 4.11312,-5.7125 6.90007,-10.25 2.78694,-4.5375 5.42981,-8.25 5.87304,-8.25 3.27263,0 -0.0849,8.78885 -6.7277,17.61086 -2.11662,2.81098 -6.43589,8.54413 -9.59839,12.74033 -3.1625,4.19621 -5.75,8.08383 -5.75,8.63914 0,0.55532 -0.39459,1.00967 -0.87686,1.00967 -1.23773,0 -5.12314,9.369 -5.12314,12.35359 0,4.46461 1.11371,5.60653 9.43115,9.67002 5.76316,2.81561 9.76271,5.64757 13.40885,9.4944 4.60212,4.85545 5.65121,5.48199 9.1791,5.48199 3.34782,0 4.61609,-0.65223 7.95162,-4.08927 z m 46.29628,-16.8324 c 4.46837,-4.82638 5.61302,-6.7926 6.18853,-10.63032 0.38835,-2.58975 1.19753,-5.78721 1.79816,-7.10545 0.80596,-1.76889 0.78562,-2.70325 -0.0776,-3.56651 -0.89293,-0.89293 -2.23521,-0.0255 -5.67287,3.66596 -2.47675,2.65962 -4.50318,5.242 -4.50318,5.73864 0,0.49664 -0.8456,1.81062 -1.87912,2.91997 -3.07842,3.30426 -4.72951,14.89938 -2.12164,14.89938 0.43191,0 3.25238,-2.66475 6.26772,-5.92167 z M 673.8284,804.29804 c 3.05602,-3.377 5.2913,-6.56893 4.96731,-7.09317 -0.324,-0.52423 -0.5647,-2.72043 -0.53489,-4.88044 0.0298,-2.16001 -0.35682,-3.67326 -0.85918,-3.36278 -1.78441,1.10282 -7.83898,11.05654 -9.87006,16.2264 -2.84933,7.25256 -0.81108,6.96447 6.29682,-0.89001 z m -51.30433,-23.10999 c 1.1687,-2.3375 3.96027,-6.15102 6.2035,-8.47449 l 4.0786,-4.22449 -3.65106,-1.52551 c -4.72844,-1.97567 -8.6167,-1.94601 -9.39095,0.0716 -0.33709,0.87844 -0.59416,3.46594 -0.57129,5.75 0.0958,9.56204 0.27329,12.65284 0.72663,12.65284 0.26382,0 1.43588,-1.9125 2.60457,-4.25 z m 2.86153,-67.78858 c 2.47803,-10.10877 4.40699,-20.8994 4.99847,-27.96142 0.52975,-6.325 1.49611,-17.16411 2.14747,-24.0869 1.42561,-15.15176 0.78048,-20.76817 -2.79637,-24.34502 -2.36873,-2.36873 -6.85188,-4.35761 -7.75002,-3.43818 -0.19883,0.20356 -1.14103,5.5451 -2.09377,11.8701 -1.26754,8.41487 -1.70576,17.26784 -1.6335,33 0.14543,31.66518 1.2818,53.23347 2.72849,51.78678 0.20017,-0.20017 2.17982,-7.77158 4.39923,-16.82536 z M 190.247,693.35452 c 2.58105,-0.59594 5.59282,-1.48803 6.69282,-1.98242 1.1,-0.49439 5.6,-1.61656 10,-2.49371 4.4,-0.87715 10.025,-2.20001 12.5,-2.93969 2.475,-0.73967 13.275,-3.433 24,-5.98516 32.97612,-7.84713 173.95307,-42.76704 180.5,-44.70976 2.15305,-0.63889 4.1001,-2.64276 6.89671,-7.09797 2.14319,-3.41427 5.46396,-8.54625 7.37948,-11.40441 l 3.48276,-5.19665 -3.10871,-12.80335 c -1.70979,-7.04184 -4.89154,-20.22835 -7.07057,-29.30335 -17.87931,-74.46207 -16.91532,-70.82679 -18.9312,-71.3913 -0.90666,-0.2539 -6.14847,-0.75325 -11.64847,-1.10967 -5.5,-0.35641 -11.35,-0.81131 -13,-1.01088 -3.03474,-0.36705 -9.46345,-1.01826 -19.5,-1.9753 -3.025,-0.28845 -16.3,-1.40913 -29.5,-2.49041 -13.2,-1.08127 -29.175,-2.40472 -35.5,-2.941 -6.325,-0.53628 -15.775,-1.24102 -21,-1.56609 -5.225,-0.32507 -12.875,-0.99531 -17,-1.48943 -4.125,-0.49411 -11.775,-1.17472 -17,-1.51246 -8.41638,-0.54402 -45.03709,-3.66956 -58.5,-4.99292 -6.68423,-0.65703 -47.44262,-4.37681 -55.00002,-5.01952 -19.0375,-1.61903 -54.0478,-4.75 -67,-5.99182 -12.325,-1.18168 -39.3797,-3.18777 -45.5,-3.37379 -0.825,-0.0251 -5.2743,-0.35935 -9.8875,-0.74282 l -8.3874,-0.69722 0.6385,6.57326 c 0.3512,3.61529 0.8601,7.17133 1.1309,7.90231 0.2707,0.73098 1.3825,6.27906 2.4706,12.32906 8.5881,47.75354 24.4457,83.13997 50.038,111.66082 6.482,7.22379 19.7178,19.71252 43.3214,40.87633 9.4303,8.45552 34.7837,26.96285 36.9367,26.96285 0.4333,0 3.5893,1.71761 7.0133,3.81692 6.2126,3.80898 13.0065,7.83659 24.08323,14.27713 3.22175,1.87327 7.04675,4.16056 8.5,5.08286 3.1763,2.01582 5.73585,2.17423 11.94947,0.73956 z m 348.92847,-34.05355 c 9.27531,-2.21367 23.96912,-9.10536 40.28227,-18.89318 11.80111,-7.08062 18.19845,-10.29236 22.40303,-11.24727 l 5.88512,-1.33658 -0.21231,-8.03155 c -0.2292,-8.67084 1.87194,-19.79483 4.61652,-24.44103 0.92652,-1.56848 1.41086,-3.1255 1.0763,-3.46006 -0.53233,-0.53234 -20.99791,4.08371 -29.28658,6.60564 -1.65,0.50203 -9.075,2.3175 -16.5,4.03438 -11.8941,3.97759 -12.18406,2.82218 -43.20994,10.44172 -18.94079,4.66612 -18.04693,4.30543 -17.36848,7.00859 0.33248,1.32468 2.47,4.14862 4.75005,6.27543 4.76421,4.44401 3.90374,6.02348 -1.71961,3.15653 -2.45108,-1.24963 -4.07353,-1.58795 -4.47785,-0.93374 -1.06817,1.72833 -3.95785,-0.10819 -4.56632,-2.9021 -1.80639,-8.29429 -3.48849,-3.15693 -2.08253,6.3603 1.11932,7.57692 2.78548,10.69809 9.84651,18.44516 4.68158,5.13644 6.68937,6.54802 11.5,8.08509 6.80003,2.17272 12.42042,2.41821 19.06382,0.83267 z m 76.36622,-16.61292 c 0.056,-1.5125 0.16853,-4.50931 0.25,-6.65957 0.0891,-2.35075 -0.35027,-4.07854 -1.10187,-4.33333 -0.92224,-0.31265 -1.25,1.43356 -1.25,6.65957 0,4.05555 0.42745,7.08333 1,7.08333 0.55,0 1.04584,-1.2375 1.10187,-2.75 z m 187.93086,-0.76693 c 4.26933,-2.20775 7.19632,-8.68605 9.93226,-21.98307 0.679,-3.3 1.83738,-8.7 2.57418,-12 0.7368,-3.3 1.62249,-8.7 1.96821,-12 1.76817,-16.87773 2.52673,-22.25774 4.87577,-34.58053 0.77789,-4.08071 1.73882,-10.47091 2.13541,-14.20045 l 0.72107,-6.78097 -4.36982,0.69134 c -10.7132,1.69491 -42.16094,10.13945 -42.93932,11.53033 -1.11857,1.99879 -1.77647,39.43273 -0.85835,48.84028 1.6764,17.17739 7.84824,33.38944 15.00313,39.40988 3.50373,2.9482 6.72206,3.26341 10.95746,1.07319 z M 440.4491,631.34264 c 4.80251,-1.02995 5.07639,-1.25404 4.58342,-3.75 -0.28837,-1.46002 -0.81477,-4.34209 -1.16979,-6.40459 -0.71755,-4.16861 -1.38932,-4.58571 -3.2212,-2 -9.19931,12.98491 -9.33438,13.25 -6.75093,13.25 0.79793,0 3.74925,-0.49293 6.5585,-1.09541 z m 50.83292,-14.32373 c 0.19353,-1.0049 -0.50259,-3.00919 -1.54693,-4.45398 -1.04433,-1.44478 -2.67906,-4.30373 -3.63271,-6.35321 -1.82567,-3.92348 -6.34639,-7.94257 -10.86731,-9.66142 -5.55925,-2.11362 -15.83125,2.40037 -19.04651,8.36991 -1.46839,2.72628 -4.71065,15.44957 -4.7316,18.56784 -0.0326,4.85491 1.07105,4.85414 20.75956,-0.0145 15.17416,-3.75231 18.78019,-4.97314 19.0655,-6.45466 z m 126.87821,9.16914 c 0.53091,-0.6875 2.61843,-6.875 4.63893,-13.75 5.42466,-18.45805 4.73408,-23.52738 -2.54479,-18.68065 -5.55164,3.69664 -7.22724,8.49836 -7.65288,21.93065 l -0.37232,11.75 2.48288,0 c 1.36558,0 2.91726,-0.5625 3.44818,-1.25 z M 447.69215,612.89842 c 0.30638,-1.60273 0.0727,-2.40389 -0.63343,-2.17168 -1.38801,0.45647 -2.11505,4.71131 -0.80503,4.71131 0.52414,0 1.17144,-1.14284 1.43846,-2.53963 z m 49.76473,-1.88473 c -0.47983,-2.12752 -1.24247,-4.13989 -1.69474,-4.47193 -1.48413,-1.08958 -1.37134,-3.14767 0.20565,-3.75282 2.22034,-0.85202 5.29925,2.34037 6.67014,6.91601 0.64946,2.16771 1.7841,4.17278 2.52142,4.45571 1.18364,0.45421 48.8379,-10.54694 55.28047,-12.76168 3.82092,-1.3135 182.14734,-45.22644 205.27853,-50.5499 6.92916,-1.59469 7.83297,-2.06975 8.27716,-4.3506 0.27425,-1.40824 1.37574,-5.46547 2.44775,-9.01607 1.3555,-4.48954 1.61718,-6.66079 0.85922,-7.12924 -0.59944,-0.37047 -5.65126,-0.97308 -11.22627,-1.33913 -5.57502,-0.36604 -16.43639,-1.29737 -24.13639,-2.06961 -7.7,-0.77224 -16.925,-1.63691 -20.5,-1.92147 -7.75765,-0.61751 -49.59766,-4.41609 -56,-5.08415 -15.87312,-1.65628 -32.1116,-2.62934 -35.98096,-2.15607 -2.48547,0.30401 -9.91904,-0.0987 -16.51904,-0.89494 -6.6,-0.79623 -16.275,-1.92827 -21.5,-2.51566 -5.225,-0.58738 -11.65965,-1.48785 -14.29922,-2.00103 -2.63957,-0.51318 -7.16788,-0.93306 -10.06291,-0.93306 -4.43954,0 -5.67445,0.43057 -7.88716,2.75 -3.44126,3.60722 -4.53451,6.71296 -4.86356,13.8165 -0.34035,7.3475 -2.75526,12.39684 -8.83811,18.4797 -7.30014,7.30014 -12.02232,9.32995 -20.12497,8.65065 -8.14363,-0.68273 -12.48414,-2.41076 -16.73645,-6.66307 -4.79112,-4.79112 -6.47375,-9.46702 -5.7416,-15.95538 l 0.61179,-5.42161 -1.89791,2.42161 c -2.98445,3.80797 -36.68799,53.3388 -41.33681,60.74871 -2.48426,3.95974 -2.2327,4.22869 2.41991,2.58716 6.75527,-2.3834 11.83478,-2.03862 17.84405,1.2112 8.42812,4.55793 13.04433,10.15071 16.31599,19.76766 1.10025,3.23414 1.53203,1.25285 0.61402,-2.81749 z m -51.66272,-5.82564 c 2.57062,-2.65234 5.64566,-7.62968 5.64566,-9.13819 0,-1.86682 14.79028,-26.79024 25.18433,-42.43865 11.94067,-17.97687 17.35716,-26.62709 23.90052,-38.16945 0.77833,-1.37296 2.44614,-3.79197 3.70625,-5.37557 1.2601,-1.5836 2.08572,-3.08465 1.8347,-3.33567 -0.25101,-0.25102 -4.88201,-0.8446 -10.2911,-1.31907 -5.40908,-0.47447 -22.2097,-1.98854 -37.3347,-3.3646 -29.98054,-2.7276 -39.65623,-3.28591 -40.59947,-2.34266 -0.33761,0.33761 1.91744,10.87834 5.01122,23.42385 7.48286,30.34351 10.82869,43.93964 15.07136,61.24405 5.96084,24.31224 5.54598,23.21513 7.87123,20.81596 z m 89.70736,-57.17213 c 4.63741,-3.0689 10.6912,-9.21676 12.48867,-12.68274 0.74299,-1.43267 1.81014,-6.26744 2.37144,-10.74393 0.5613,-4.47648 1.71483,-9.48164 2.56338,-11.12256 1.87602,-3.62782 2.48381,-3.43581 -15.67551,-4.95207 -13.6311,-1.13815 -15.80968,-0.86892 -15.80968,1.95382 0,1.65606 -5.25385,9.35546 -8.82816,12.93747 -2.49925,2.50463 -5.12688,9.34893 -5.14988,13.41411 -0.038,6.7121 4.53109,11.82308 12.47804,13.958 4.0646,1.09195 11.81716,-0.28408 15.5617,-2.7621 z m 255.4383,-3.15911 c 2.75,-0.72992 5.9,-1.54698 7,-1.8157 1.1,-0.26871 7.85,-1.9092 15,-3.64552 7.15,-1.73632 13.39179,-3.52637 13.87064,-3.97788 1.16473,-1.09824 -7.08164,-2.08672 -29.37064,-3.52059 -4.675,-0.30074 -9.40374,-0.73334 -10.50831,-0.96133 -1.10457,-0.22799 -2.50743,-0.0958 -3.11747,0.29387 -1.2413,0.79279 -4.37422,10.88243 -4.37422,14.0873 0,2.28852 1.34741,2.23461 11.5,-0.46015 z m 53.80986,-17.24372 c 2.85458,-2.65373 6.87764,-5.84043 8.94014,-7.08156 2.0625,-1.24113 3.75,-2.71439 3.75,-3.27391 0,-0.55952 0.71293,-2.66032 1.58429,-4.66844 5.00353,-11.531 7.01754,-15.36789 9.08744,-17.31246 6.54168,-6.14559 17.43363,-35.41477 19.84893,-53.33867 0.57043,-4.23316 1.4265,-21.06306 1.82595,-35.89755 0.40636,-15.09093 -3.08389,-38.34042 -7.37135,-49.10245 -0.92084,-2.31142 -3.65773,-10.77933 -8.08018,-25 -5.7974,-18.64194 -11.11032,-33.77556 -14.00724,-39.89905 -1.58745,-3.35552 -2.88662,-6.60433 -2.88705,-7.21957 -0.003,-3.85785 -20.54378,-47.94989 -26.10157,-56.02786 -1.59457,-2.31763 -2.89922,-4.46237 -2.89922,-4.76608 0,-0.30372 -1.8,-3.49307 -4,-7.08744 -2.2,-3.59437 -4,-6.87477 -4,-7.28977 0,-0.415 -1.28447,-2.31957 -2.85437,-4.23239 -1.5699,-1.91281 -3.60387,-4.82784 -4.51992,-6.47784 -0.91605,-1.65 -3.22754,-5.025 -5.13664,-7.5 -1.9091,-2.475 -4.24878,-5.625 -5.19929,-7 -3.03724,-4.39366 -18.04423,-22.44069 -20.04386,-24.10425 -1.06059,-0.88234 -2.576,-2.45734 -3.36759,-3.5 -1.96312,-2.58579 -19.08975,-18.86279 -25.99591,-24.70629 -17.77773,-15.04225 -34.06103,-25.73767 -56.38242,-37.033871 -21.69219,-10.977783 -27.12938,-13.405214 -48.68471,-21.735244 -9.72659,-3.758829 -22.0017,-8.878608 -27.27803,-11.377285 -5.27633,-2.498678 -10.01817,-4.543051 -10.53743,-4.543051 -0.51925,0 -9.61914,-2.938715 -20.22196,-6.530478 -23.17646,-7.851147 -39.69373,-12.3149 -57.27787,-15.479214 -2.75,-0.49487 -8.825,-1.603351 -13.5,-2.463291 -26.61518,-4.895713 -46.56909,-6.599811 -84.63797,-7.228227 -35.13352,-0.579961 -46.07941,-0.113787 -88.86203,3.784538 -26.41051,2.406508 -41.39429,4.410959 -42.69482,5.71149 -0.61223,0.612229 -0.58946,2.360081 0.063,4.832177 0.56217,2.130153 2.20789,8.598005 3.65715,14.373005 1.44926,5.775 3.5658,13.875 4.70341,18 1.13761,4.125 2.38732,9.3 2.77713,11.5 0.38982,2.2 2.56279,11.2 4.82882,20.000001 3.66353,14.22706 13.64368,54.76686 23.75653,96.49999 1.93251,7.975 3.94247,16.075 4.46657,18 0.5241,1.925 2.10193,8.45 3.50629,14.5 1.40436,6.05 4.75743,20 7.45126,31 5.24926,21.43485 8.55791,35.41304 11.95338,50.5 0.43324,1.925 2.01054,8 3.50512,13.5 1.49457,5.5 3.57546,13.825 4.6242,18.5 1.04874,4.675 2.77857,11.65 3.84407,15.5 1.0655,3.85 4.25271,16.45 7.0827,28 2.82999,11.55 5.52798,22.35 5.99554,24 1.41747,5.0022 7.4213,28.68136 10.52229,41.5 6.0496,25.0074 9.62239,38.46915 10.43969,39.33524 0.43351,0.45938 3.20234,1.02739 6.15296,1.26225 2.95062,0.23486 15.71476,1.32327 28.36476,2.41868 12.65,1.09542 26.375,2.22609 30.5,2.51259 4.125,0.28651 12.47407,1.02291 18.55349,1.63644 8.36763,0.84446 11.58501,0.83104 13.24096,-0.0552 1.71697,-0.91889 2.78094,-0.86974 4.94652,0.22849 2.97383,1.50813 28.25589,4.19435 37.25903,3.95877 12.90119,-0.33757 16.79972,-0.22153 22,0.65481 10.47629,1.76544 23.50388,3.49475 24.36358,3.23407 0.47497,-0.14402 7.22497,0.63163 15,1.72367 7.77503,1.09204 22.23642,2.67513 32.13642,3.51796 9.9,0.84284 31.5,2.67278 48,4.06654 16.5,1.39376 34.5,2.96768 40,3.4976 5.5,0.52992 15.175,1.43621 21.5,2.01397 6.325,0.57776 13.36944,1.24829 15.65432,1.49005 5.04574,0.5339 5.61585,-0.0584 8.77456,-9.11636 1.82309,-5.22791 2.89988,-6.95629 4.48509,-7.19912 2.65255,-0.40634 2.6709,1.26167 0.086,7.81955 -1.1,2.79072 -2,5.90629 -2,6.92348 0,2.05574 2.13773,2.52011 17,3.69287 9.11794,0.71948 34.97095,3.03516 36.30986,3.2523 0.44542,0.0722 3.14542,-2.03988 6,-4.69361 z m -35.64015,-6.72446 c -3.67815,-2.07748 -7.6446,-10.47326 -6.98326,-14.78147 0.57505,-3.74614 4.52615,-10.97491 12.3905,-22.66911 3.14393,-4.675 7.36338,-11.425 9.37654,-15 2.01317,-3.575 4.6472,-8.10188 5.85341,-10.05972 7.36353,-11.95209 11.48843,-19.39039 18.17926,-32.78207 6.56599,-13.14184 10.06333,-18.15821 12.65962,-18.15821 1.7378,0 7.07375,5.5818 8.47902,8.86968 4.2134,9.85801 6.02315,27.18258 3.35945,32.15974 -0.62604,1.16978 -0.86342,2.84307 -0.52752,3.71843 0.33591,0.87536 0.14735,3.87769 -0.41902,6.67186 -0.56638,2.79416 -1.91812,9.49654 -3.00388,14.89418 -1.08575,5.39764 -3.40763,15.29764 -5.15972,22 l -3.18563,12.18611 -6.29851,6.37094 -6.29851,6.37093 -5.79573,-0.81841 c -7.23153,-1.02116 -13.72741,-0.79798 -16.26245,0.55873 -3.62038,1.93757 -13.27323,2.21387 -16.36357,0.46839 z m 11.847,-4.02201 c 3.99677,-1.66996 11.39305,-2.01453 18.94221,-0.88246 3.99373,0.5989 5.10345,0.33617 8.48851,-2.00968 2.14178,-1.48425 4.96326,-4.34965 6.26996,-6.36754 3.14099,-4.85053 9.41221,-28.04249 11.80828,-43.66889 3.48971,-22.75882 3.51354,-31.7933 0.11014,-41.76514 -2.19075,-6.41883 -4.27036,-9.73486 -6.1051,-9.73486 -0.45454,0 -3.56446,5.5125 -6.91094,12.25 -5.45409,10.98078 -8.17368,16.06323 -14.84889,27.75 -4.61153,8.07375 -18.45605,30.50199 -19.12382,30.98077 -0.39831,0.28558 -3.16344,4.34423 -6.14474,9.01923 -4.79768,7.5233 -5.46776,9.22478 -5.83159,14.80764 -0.3598,5.52103 -0.12493,6.61221 1.88342,8.75 2.67516,2.84757 6.10761,3.10837 11.46256,0.87093 z m -306.38817,-4.67857 c 1.08712,-2.04022 1.04378,-2.12204 -0.46482,-0.87756 -0.91505,0.75485 -1.66372,1.76735 -1.66372,2.25 0,1.52749 0.88863,0.95452 2.12854,-1.37244 z M 412.62,494.39752 c 0.19076,-0.5723 -7.18677,-31.0598 -16.39452,-67.75 -9.20775,-36.69021 -17.19692,-68.73447 -17.75371,-71.20947 -0.55679,-2.475 -1.69049,-6.975 -2.51933,-10 -1.33488,-4.8719 -5.1448,-20.47125 -15.38684,-63 -6.39592,-26.55819 -11.05234,-46.02717 -14.11113,-59 -4.01545,-17.03026 -11.25837,-46.92155 -19.627,-81 -3.57917,-14.575 -8.32264,-33.92499 -10.54105,-42.999991 -4.87068,-19.924898 -14.59331,-56.437987 -16.04325,-60.25 -0.5753,-1.5125 -1.68059,-2.75 -2.45622,-2.75 -1.77678,0 -13.50586,3.916956 -14.84713,4.958238 -0.55,0.426988 -3.7,1.705111 -7,2.840274 -6.85743,2.358878 -19.03718,6.849072 -22,8.110533 -1.1,0.46834 -4.025,1.69022 -6.5,2.715289 -4.07155,1.686311 -15.86268,8.004776 -35.70353,19.132305 -15.90027,8.917502 -36.15021,25.124201 -55.88654,44.727852 -9.23085,9.16878 -22.73065,23.90937 -25.63725,27.99356 -0.4,0.56207 -2.425,3.06607 -4.5,5.56446 -3.7926,4.56651 -16.6137,22.63458 -21.2727,29.97851 -1.375,2.1674 -5.2,7.804 -8.5,12.52578 -3.3,4.72177 -6.8289,10.01787 -7.8421,11.76912 -1.0132,1.75124 -2.8366,4.30907 -4.0519,5.68407 -2.75,3.11124 -8.5494,12.06823 -12.0286,18.57789 -1.4469,2.70716 -3.5044,6.27211 -4.5723,7.92211 -1.0679,1.65 -2.7801,4.575 -3.805,6.5 -1.0249,1.925 -3.3447,6.2 -5.1552,9.5 -3.6252,6.60756 -15.5058,30.25672 -17.5829,35 -3.4648,7.91182 -4.3631,10.22263 -5.054,13 -0.4105,1.65 -1.7771,5.05432 -3.0369,7.56516 -1.2599,2.51084 -3.4885,8.81084 -4.9527,14 -1.4641,5.18916 -4.1527,13.93484 -5.9747,19.43484 -1.8219,5.5 -4.2873,13.6 -5.4786,18 -1.1913,4.4 -3.9206,13.27935 -6.0652,19.73189 -3.2823,9.87553 -4.1277,14.2269 -5.3432,27.5 -1.6382,17.88813 -2.0644,27.76453 -1.7649,40.89311 0.2448,10.72965 -1.6118,9.60541 18.7359,11.34535 7.1348,0.6101 20.3973,1.78923 29.4723,2.6203 20.3598,1.86449 24.8982,2.2682 32.5,2.89104 10.0204,0.821 27.8984,2.42715 50,4.49199 71.24447,6.65599 86.97895,8.08107 105.50002,9.55522 9.625,0.76608 23.35,1.85819 30.5,2.42692 7.15,0.56873 17.725,1.48066 23.5,2.02651 5.775,0.54585 22.2,1.9074 36.5,3.02566 21.98448,1.71919 61.00604,5.07594 73.5,6.32268 7.14411,0.71289 8.84169,0.64425 9.18018,-0.3712 z m 14.97107,280.90078 c -3.74609,-1.38577 -5.84715,-7.47991 -6.50241,-18.86025 -0.33251,-5.775 -1.06547,-13.2 -1.62881,-16.5 -0.56333,-3.3 -1.04829,-9.2365 -1.07769,-13.19223 -0.0839,-11.29438 3.17424,-15.59108 12.78994,-16.86664 4.55686,-0.60449 5.23253,-0.41092 8.46138,2.42404 8.3194,7.30453 11.75749,24.30604 8.31841,41.13483 -2.1081,10.31575 -4.30498,14.8594 -9.09273,18.80587 -3.88171,3.19963 -7.91789,4.2937 -11.26809,3.05438 z m 6.14549,-5.01906 c 3.72967,-1.99606 7.74297,-7.87897 9.12123,-13.37039 3.27725,-13.05759 1.97171,-30.72505 -2.83284,-38.33594 -2.43321,-3.85446 -2.91761,-4.13486 -7.14313,-4.13486 -3.44522,0 -5.10598,0.57307 -6.92118,2.38827 -3.60952,3.60952 -4.07897,8.57215 -2.11405,22.34763 0.95993,6.72975 1.96386,15.72975 2.23096,20 0.2671,4.27026 0.69145,8.7766 0.94301,10.0141 0.51255,2.52146 3.22119,2.96155 6.716,1.09119 z"
     id="path2996"
     style="fill:#000000" />
  <text
     x="277.01129"
     y="21.152344"
     id="text2998"
     xml:space="preserve"
     style="font-size:40px;font-style:italic;font-variant:normal;font-weight:bold;font-stretch:normal;line-height:125%;letter-spacing:0px;word-spacing:0px;fill:#000000;fill-opacity:1;stroke:none;font-family:URW Chancery L;-inkscape-font-specification:URW Chancery L Bold Italic"><tspan
       x="277.01129"
       y="21.152344"
       id="tspan3000"
       style="font-size:30px;font-style:normal;font-variant:normal;font-weight:normal;font-stretch:normal;font-family:cmr10;-inkscape-font-specification:cmr10">S</tspan></text>
  <text
     x="310.90778"
     y="325.52875"
     id="text2998-6"
     xml:space="preserve"
     style="font-size:40px;font-style:italic;font-variant:normal;font-weight:bold;font-stretch:normal;line-height:125%;letter-spacing:0px;word-spacing:0px;fill:#000000;fill-opacity:1;stroke:none;font-family:URW Chancery L;-inkscape-font-specification:URW Chancery L Bold Italic"><tspan
       x="310.90778"
       y="325.52875"
       id="tspan3000-4"
       style="font-size:30px;font-style:normal;font-variant:normal;font-weight:normal;font-stretch:normal;font-family:cmr10;-inkscape-font-specification:cmr10">C2</tspan></text>
  <text
     x="228.27763"
     y="472.76514"
     id="text2998-6-8"
     xml:space="preserve"
     style="font-size:40px;font-style:italic;font-variant:normal;font-weight:bold;font-stretch:normal;line-height:125%;letter-spacing:0px;word-spacing:0px;fill:#000000;fill-opacity:1;stroke:none;font-family:URW Chancery L;-inkscape-font-specification:URW Chancery L Bold Italic"><tspan
       x="228.27763"
       y="472.76514"
       id="tspan3053"
       style="font-size:30px;font-style:normal;font-variant:normal;font-weight:normal;font-stretch:normal;font-family:cmr10;-inkscape-font-specification:cmr10">C3</tspan></text>
  <text
     x="493.99194"
     y="491.33658"
     id="text2998-6-9"
     xml:space="preserve"
     style="font-size:40px;font-style:italic;font-variant:normal;font-weight:bold;font-stretch:normal;line-height:125%;letter-spacing:0px;word-spacing:0px;fill:#000000;fill-opacity:1;stroke:none;font-family:URW Chancery L;-inkscape-font-specification:URW Chancery L Bold Italic"><tspan
       x="493.99194"
       y="491.33658"
       id="tspan3000-4-2"
       style="font-size:30px;font-style:normal;font-variant:normal;font-weight:normal;font-stretch:normal;font-family:cmr10;-inkscape-font-specification:cmr10">Clp</tspan></text>
  <text
     x="851.13477"
     y="557.76514"
     id="text2998-6-88"
     xml:space="preserve"
     style="font-size:40px;font-style:italic;font-variant:normal;font-weight:bold;font-stretch:normal;line-height:125%;letter-spacing:0px;word-spacing:0px;fill:#000000;fill-opacity:1;stroke:none;font-family:URW Chancery L;-inkscape-font-specification:URW Chancery L Bold Italic"><tspan
       x="851.13477"
       y="557.76514"
       id="tspan3000-4-8"
       style="font-size:30px;font-style:normal;font-variant:normal;font-weight:normal;font-stretch:normal;font-family:cmr10;-inkscape-font-specification:cmr10">FMS</tspan></text>
  <text
     x="597.56335"
     y="579.90802"
     id="text2998-6-6"
     xml:space="preserve"
     style="font-size:40px;font-style:italic;font-variant:normal;font-weight:bold;font-stretch:normal;line-height:125%;letter-spacing:0px;word-spacing:0px;fill:#000000;fill-opacity:1;stroke:none;font-family:URW Chancery L;-inkscape-font-specification:URW Chancery L Bold Italic"><tspan
       x="597.56335"
       y="579.90802"
       id="tspan3000-4-83"
       style="font-size:30px;font-style:normal;font-variant:normal;font-weight:normal;font-stretch:normal;font-family:cmr10;-inkscape-font-specification:cmr10">Pts</tspan></text>
  <text
     x="493.27765"
     y="598.47943"
     id="text2998-6-83"
     xml:space="preserve"
     style="font-size:40px;font-style:italic;font-variant:normal;font-weight:bold;font-stretch:normal;line-height:125%;letter-spacing:0px;word-spacing:0px;fill:#000000;fill-opacity:1;stroke:none;font-family:URW Chancery L;-inkscape-font-specification:URW Chancery L Bold Italic"><tspan
       x="493.27765"
       y="598.47943"
       id="tspan3000-4-3"
       style="font-size:30px;font-style:normal;font-variant:normal;font-weight:normal;font-stretch:normal;font-family:cmr10;-inkscape-font-specification:cmr10">CT</tspan></text>
  <text
     x="403.27771"
     y="662.76508"
     id="text2998-6-3"
     xml:space="preserve"
     style="font-size:40px;font-style:italic;font-variant:normal;font-weight:bold;font-stretch:normal;line-height:125%;letter-spacing:0px;word-spacing:0px;fill:#000000;fill-opacity:1;stroke:none;font-family:URW Chancery L;-inkscape-font-specification:URW Chancery L Bold Italic"><tspan
       x="403.27771"
       y="662.76508"
       id="tspan3000-4-80"
       style="font-size:30px;font-style:normal;font-variant:normal;font-weight:normal;font-stretch:normal;font-family:cmr10;-inkscape-font-specification:cmr10">Cp</tspan></text>
  <text
     x="435.42047"
     y="556.33655"
     id="text2998-6-4"
     xml:space="preserve"
     style="font-size:40px;font-style:italic;font-variant:normal;font-weight:bold;font-stretch:normal;line-height:125%;letter-spacing:0px;word-spacing:0px;fill:#000000;fill-opacity:1;stroke:none;font-family:URW Chancery L;-inkscape-font-specification:URW Chancery L Bold Italic"><tspan
       x="435.42047"
       y="556.33655"
       id="tspan3000-4-7"
       style="font-size:30px;font-style:normal;font-variant:normal;font-weight:normal;font-stretch:normal;font-family:cmr10;-inkscape-font-specification:cmr10">C4</tspan></text>
  <text
     x="243.27763"
     y="669.19366"
     id="text2998-6-68"
     xml:space="preserve"
     style="font-size:40px;font-style:italic;font-variant:normal;font-weight:bold;font-stretch:normal;line-height:125%;letter-spacing:0px;word-spacing:0px;fill:#000000;fill-opacity:1;stroke:none;font-family:URW Chancery L;-inkscape-font-specification:URW Chancery L Bold Italic"><tspan
       x="243.27763"
       y="669.19366"
       id="tspan3000-4-9"
       style="font-size:30px;font-style:normal;font-variant:normal;font-weight:normal;font-stretch:normal;font-family:cmr10;-inkscape-font-specification:cmr10">C1</tspan></text>
  <text
     x="7.5633464"
     y="454.90799"
     id="text2998-6-0"
     xml:space="preserve"
     style="font-size:40px;font-style:italic;font-variant:normal;font-weight:bold;font-stretch:normal;line-height:125%;letter-spacing:0px;word-spacing:0px;fill:#000000;fill-opacity:1;stroke:none;font-family:URW Chancery L;-inkscape-font-specification:URW Chancery L Bold Italic"><tspan
       x="7.5633464"
       y="454.90799"
       id="tspan3000-4-6"
       style="font-size:30px;font-style:normal;font-variant:normal;font-weight:normal;font-stretch:normal;font-family:cmr10;-inkscape-font-specification:cmr10">Op</tspan></text>
  <text
     x="30.031929"
     y="755.87744"
     id="text2998-6-0-7"
     xml:space="preserve"
     style="font-size:40px;font-style:italic;font-variant:normal;font-weight:bold;font-stretch:normal;line-height:125%;letter-spacing:0px;word-spacing:0px;fill:#000000;fill-opacity:1;stroke:none;font-family:URW Chancery L;-inkscape-font-specification:URW Chancery L Bold Italic"><tspan
       x="30.031929"
       y="755.87744"
       id="tspan3000-4-6-2"
       style="font-size:30px;font-style:normal;font-variant:normal;font-weight:normal;font-stretch:normal;font-family:cmr10;-inkscape-font-specification:cmr10">OI</tspan></text>
</svg>
