<?xml version="1.0" encoding="UTF-8" standalone="no"?>
<!-- Created with Inkscape (http://www.inkscape.org/) -->

<svg
   xmlns:dc="http://purl.org/dc/elements/1.1/"
   xmlns:cc="http://creativecommons.org/ns#"
   xmlns:rdf="http://www.w3.org/1999/02/22-rdf-syntax-ns#"
   xmlns:svg="http://www.w3.org/2000/svg"
   xmlns="http://www.w3.org/2000/svg"
   version="1.1"
   width="922.57294"
   height="1062.2208"
   id="svg3167">
  <defs
     id="defs3169" />
  <metadata
     id="metadata3172">
    <rdf:RDF>
      <cc:Work
         rdf:about="">
        <dc:format>image/svg+xml</dc:format>
        <dc:type
           rdf:resource="http://purl.org/dc/dcmitype/StillImage" />
        <dc:title></dc:title>
      </cc:Work>
    </rdf:RDF>
  </metadata>
  <g
     transform="translate(57.727453,-7.6020491)"
     id="layer1">
    <path
       d="m 700.46442,1052.9158 c -0.84067,-1.1827 -15.61269,-10.9474 -24.02603,-14.1075 -3.81612,-1.4334 -7.61341,-3.1964 -8.43841,-3.9178 -0.825,-0.7214 -11.85,-6.6057 -24.5,-13.0761 -12.65,-6.4705 -24.76771,-13.1568 -26.92824,-14.8584 -2.16053,-1.7016 -5.39015,-3.9938 -7.17692,-5.0938 -1.78678,-1.1 -7.11326,-4.58182 -11.83663,-7.73732 -4.72337,-3.1555 -10.26875,-6.6433 -12.32308,-7.7507 -4.87602,-2.6284 -27.27111,-18.14915 -35.22939,-24.41544 -10.7213,-8.44187 -13.58847,-10.23042 -47.41267,-29.57609 -1.70119,-0.97299 -6.27501,-3.61809 -10.16404,-5.878 -3.88903,-2.2599 -10.63903,-5.26709 -15,-6.68262 -4.41261,-1.4323 -11.28089,-4.76589 -15.48699,-7.51678 -4.15686,-2.71869 -8.05113,-4.94307 -8.65392,-4.94307 -0.60278,0 -3.88243,-1.575 -7.2881,-3.5 -3.40567,-1.925 -6.42926,-3.5 -6.71908,-3.5 -1.45078,0 -13.53475,-9.51668 -19.09036,-15.03453 -6.48188,-6.43782 -10.35775,-12.79809 -12.78994,-20.98817 -1.37682,-4.63624 -1.41691,-4.66873 -5.64364,-4.57429 -3.01588,0.0674 -5.56893,-0.71032 -8.75698,-2.66753 -9.14586,-5.61483 -29.53696,-18.68373 -30.6644,-19.65318 -0.64042,-0.55067 -2.21542,-1.2661 -3.5,-1.58983 -2.33414,-0.58824 -2.3354,-0.58302 -2.01701,8.36692 0.31052,8.7287 0.24291,9.04019 -2.66899,12.29807 l -2.98758,3.34254 -29.92012,-0.0296 c -27.31275,-0.027 -30.16425,-0.18953 -32.72153,-1.86512 l -2.8014,-1.83555 0.60262,-12.13488 c 0.56888,-11.45564 2.70947,-34.90845 4.22579,-46.29873 0.68047,-5.11163 0.65097,-5.18747 -2.9176,-7.5 -1.98276,-1.28488 -3.61059,-2.89865 -3.6174,-3.58615 -0.0159,-1.60159 0.463,-1.57265 3.96785,0.23978 l 2.88091,1.48977 1.02181,-5.23977 c 0.56199,-2.88188 1.5017,-9.73978 2.08824,-15.23978 1.85219,-17.36799 1.97533,-18.29914 3.06004,-23.13935 0.58422,-2.6069 0.96188,-5.667 0.83926,-6.80023 -0.38189,-3.52919 2.91308,-17.95992 6.33364,-27.73895 2.20637,-6.30778 6.82204,-11.55882 13.7306,-15.62066 3.63608,-2.13781 5.50731,-2.56502 10.39046,-2.37217 7.15755,0.28267 10.52998,2.36171 14.31922,8.82757 4.66536,7.96084 5.89737,12.91557 7.91807,31.84379 0.29358,2.75 0.94085,7.925 1.43839,11.5 0.49753,3.575 1.16146,17.3 1.47539,30.5 0.31394,13.2 1.07027,31.09346 1.68076,39.76323 l 1.10996,15.76324 13.27242,8.73676 c 18.65645,12.28093 25.09236,16.2368 26.41601,16.2368 0.84385,0 0.99952,-5.10182 0.58737,-19.25 -0.30842,-10.5875 -0.76803,-21.275 -1.02135,-23.75 -0.25332,-2.475 -0.71196,-12.375 -1.01921,-22 -0.30724,-9.625 -0.75734,-19.525 -1.00023,-22 -0.24289,-2.475 -0.72413,-13.05 -1.06944,-23.5 -0.34531,-10.45 -0.75704,-19.225 -0.91495,-19.5 -0.15791,-0.275 -0.58676,-9.05 -0.95299,-19.5 -0.36622,-10.45 -0.84752,-21.025 -1.06953,-23.5 -0.22202,-2.475 -0.67755,-11.475 -1.0123,-20 -0.6005,-15.29293 -1.16991,-25.20019 -1.95412,-34 -0.22057,-2.475 -0.42975,-6.24638 -0.46484,-8.38084 -0.0626,-3.80404 -0.12814,-3.87101 -3.31382,-3.3838 -6.65719,1.01812 -7.89484,-1.51247 -1.65415,-3.38222 4.61959,-1.38407 5.3476,-2.66212 6.33315,-11.11814 0.36956,-3.17075 1.78632,-8.79575 3.14838,-12.5 2.94399,-8.00652 7.17958,-12.25207 15.22728,-15.2631 6.01201,-2.24939 8.88725,-2.03525 15.75595,1.17342 4.34315,2.02887 11.39621,10.28425 11.50278,13.46363 0.0543,1.61868 0.19364,1.56698 0.96777,-0.35895 1.25234,-3.11565 3.81197,-2.83081 4.49309,0.5 1.02549,5.01484 2.93273,7.73756 5.6427,8.05536 1.43212,0.16795 8.32877,-1.1112 15.32588,-2.84257 9.07971,-2.24668 13.03006,-2.8399 13.79793,-2.07203 0.59175,0.59175 0.79576,1.35605 0.45336,1.69845 -0.3424,0.3424 -6.3874,2.0374 -13.43333,3.76667 -8.75636,2.14905 -12.7269,3.55402 -12.54574,4.43928 0.18768,0.91709 -0.83401,1.209 -3.5,1 -3.696,-0.28975 -3.75929,-0.23556 -3.45108,2.95484 0.40056,4.14636 -2.10368,4.44153 -4.242,0.5 l -1.49189,-2.75 -0.04,3.61351 c -0.11171,10.08152 3.73717,19.53449 8.95242,21.98747 7.78342,3.66091 11.88409,4.96799 24.76116,7.89253 6.36254,1.44502 12.92882,0.66889 21.91419,-2.59024 7.68101,-2.78602 8.33219,-2.86872 8.33219,-1.05826 0,2.30053 -3.35689,4.53227 -10.05638,6.68572 -9.53463,3.06475 -24.14986,2.43557 -31.693,-1.36439 -1.51284,-0.76211 -4.06511,-1.70171 -5.6717,-2.08799 -1.60659,-0.38628 -4.02978,-1.57443 -5.38486,-2.64034 -1.35512,-1.06591 -2.89616,-1.93801 -3.42459,-1.93801 -0.52842,0 -2.32549,-0.97176 -3.99347,-2.15948 -3.89645,-2.77451 -7.4427,-10.70642 -8.19981,-18.34052 -2.0363,-20.53262 -3.53123,-26.0953 -8.23856,-30.65599 -2.97749,-2.88474 -4.11293,-3.33435 -8.26725,-3.27367 -7.12853,0.10413 -15.67777,4.55415 -17.60341,9.16287 -1.7141,4.1024 -3.98868,12.81548 -4.98107,19.08062 l -0.6833,4.31382 3.84868,-0.67198 c 2.11677,-0.36959 8.50108,-1.74831 14.18734,-3.06383 11.55202,-2.67255 14.5085,-2.93333 13.94062,-1.22967 -0.21307,0.63919 -3.06307,1.76875 -6.33334,2.51012 -16.69932,3.78575 -24.07359,5.73478 -25.29379,6.68518 -1.04514,0.81406 -1.19887,3.07058 -0.68449,10.04766 0.36484,4.94881 0.85779,9.31244 1.09543,9.69695 0.62859,1.01708 5.20439,33.17666 5.89027,41.39792 0.3212,3.85 0.87051,9.025 1.22069,11.5 0.35018,2.475 0.71739,29.7 0.81602,60.5 0.19113,59.68471 0.5648,65.68554 5.57309,89.5 0.52051,2.475 1.73173,7.3408 2.69161,10.81288 l 1.74523,6.31288 3.5,-0.59923 c 6.86722,-1.17574 55.729,-13.14287 75.5,-18.49132 6.05,-1.63665 16.78733,-4.39578 23.86072,-6.1314 l 12.86073,-3.15569 2.46567,-5.62406 c 3.10382,-7.07966 8.37979,-12.68364 14.81288,-15.73382 5.50976,-2.6124 9.46159,-3.02865 11.3,-1.19024 1.84058,1.84058 1.4387,2.8 -1.17288,2.8 -4.03337,0 -11.37615,3.86855 -16.00581,8.43267 -4.09958,4.04154 -6.44438,8.0776 -5.33645,9.18553 0.25712,0.25711 6.0357,-0.92436 12.84131,-2.62549 6.80561,-1.70113 13.27383,-3.28781 14.37383,-3.52597 1.1,-0.23815 3.24124,-0.70217 4.75832,-1.03115 3.26621,-0.70829 4.73987,-3.07401 4.74656,-7.61985 0.005,-3.30081 3.49717,-10.88904 10.27029,-22.31574 3.33123,-5.61999 3.43514,-6.04546 1.64065,-6.71778 C 578.86212,779.74963 578,779.01388 578,778.50941 c 0,-1.33644 5.24319,-4.61033 7,-4.37085 0.97299,0.13263 2.84899,-2.60927 5.33954,-7.80406 4.64695,-9.69264 5.83366,-10.97232 10.17518,-10.97232 3.91677,0 6.48528,2.86049 6.48528,7.22251 0,3.61473 0.65487,3.50379 4.26488,-0.72251 1.6443,-1.925 3.58185,-3.5 4.30567,-3.5 2.35507,0 4.42945,4.30492 4.42945,9.19237 l 0,4.74736 3.63955,-2.46987 C 630.68765,765.04907 637,767.31073 637,774.61899 l 0,3.03524 2.45225,-2.64603 c 1.34874,-1.45531 3.16457,-2.64602 4.03518,-2.64602 2.84171,0 6.51257,3.13168 6.51257,5.55599 0,3.99951 1.75906,3.65456 4.93995,-0.96871 3.60186,-5.23512 6.04547,-6.29816 9.41001,-4.09363 2.65879,1.7421 3.61529,4.19564 3.63639,9.32778 0.0124,3.01813 0.15701,3.17807 1.58358,1.7515 0.86346,-0.86346 2.74058,-1.86374 4.17137,-2.22285 2.04574,-0.51345 3.08864,-0.0865 4.88211,1.9985 3.29853,3.83477 7.3845,3.54251 12.27769,-0.87819 l 3.90685,-3.52961 3.4562,1.64814 c 3.18658,1.51958 3.95464,1.52372 9.84602,0.0532 6.00018,-1.49769 18.48154,-4.22557 39.38983,-8.60889 26.03484,-5.45807 30.5,-6.50627 30.5,-7.1599 0,-1.05946 -12.03535,-3.52793 -24.27582,-4.97899 -8.40264,-0.9961 -11.50152,-1.01502 -14.071,-0.0859 -4.26073,1.5407 -4.33126,1.53059 -4.91566,-0.70417 -1.29451,-4.95022 11.63399,-6.0373 31.76248,-2.67073 4.30091,0.71934 16.08999,3.42969 17.70813,4.07115 1.93398,0.76668 2.29841,-0.34906 3.26782,-10.0047 0.33131,-3.3 1.27353,-11.85 2.09382,-19 0.82029,-7.15 1.69696,-14.8 1.94816,-17 0.25119,-2.2 1.35125,-12.325 2.44458,-22.5 1.09332,-10.175 2.43612,-22.1 2.98401,-26.5 1.16838,-9.38319 2.02511,-17.68667 2.62409,-25.43281 0.23676,-3.06195 0.6303,-6.5844 0.87453,-7.82765 0.24423,-1.24325 0.71892,-5.96825 1.05488,-10.5 0.33595,-4.53175 1.0141,-11.38954 1.50699,-15.23954 0.4929,-3.85 1.16694,-10.15 1.49789,-14 0.81258,-9.45322 2.37188,-23.57244 3.42291,-30.99407 1.17776,-8.31647 0.87464,-10.42115 -3.24133,-22.50593 -1.96691,-5.775 -3.88528,-13.32257 -4.26304,-16.77238 -0.37776,-3.4498 -1.05267,-6.49847 -1.49979,-6.77481 -0.44713,-0.27634 -3.02513,0.85873 -5.7289,2.52238 -2.70377,1.66364 -5.57524,3.02481 -6.38103,3.02481 -0.8058,0 -2.50643,1.10846 -3.77919,2.46324 -2.19743,2.33907 -2.25108,2.72974 -1.06424,7.75 1.86392,7.8842 1.87723,14.28676 0.0297,14.28676 -0.99743,0 -1.58829,-1.17267 -1.7635,-3.5 -0.14493,-1.925 -0.68203,-5.3 -1.19357,-7.5 -0.51155,-2.2 -1.19536,-5.26265 -1.51958,-6.80588 -0.54554,-2.59663 -0.89945,-2.78307 -4.74563,-2.5 l -4.15613,0.30588 -2.19684,11 c -1.20826,6.05 -3.32188,15.5 -4.69694,21 -1.37506,5.5 -3.26617,14.05 -4.20247,19 -2.91538,15.41295 -8.24626,26.59234 -17.28578,36.25 -2.65728,2.83899 -3.6829,3.25 -8.10998,3.25 -8.93124,0 -18.04603,-6.73861 -19.93343,-14.73687 -0.4884,-2.06972 -1.62247,-6.68813 -2.52014,-10.26313 -1.33715,-5.32521 -1.56644,-10.65694 -1.26862,-29.5 0.19993,-12.65 0.8944,-25.475 1.54325,-28.5 0.64886,-3.025 1.65673,-7.975 2.23972,-11 1.84585,-9.57765 7.65247,-27.24283 9.59255,-29.18291 1.71873,-1.71873 3.27722,0.0805 2.59357,2.9942 -0.34697,1.47879 -1.7161,5.83871 -3.04249,9.68871 -10.49564,30.4646 -12.28887,78.51629 -3.68144,98.64892 1.10131,2.57596 2.9645,4.41333 6.3363,6.24849 7.18881,3.91265 9.87671,2.97832 16.64765,-5.78677 6.61014,-8.55695 10.3371,-17.05051 12.77371,-29.11064 1.00008,-4.95 3.31596,-15.075 5.14639,-22.5 4.34873,-17.6403 5.62317,-24.15611 4.86945,-24.89593 -0.33848,-0.33224 -2.26031,-0.60407 -4.27074,-0.60407 -5.31613,0 -4.89549,-2.69149 0.59018,-3.77633 3.32241,-0.65704 4.37876,-1.37055 4.85841,-3.28163 0.73563,-2.93096 1.95932,-3.12669 3.34623,-0.53523 0.8355,1.56116 1.79357,1.81405 5.28518,1.39509 3.88602,-0.46629 10.99602,-3.04977 14.76469,-5.36487 0.825,-0.5068 4.03081,-2.25282 7.12402,-3.88004 3.73505,-1.96487 5.80154,-3.73083 6.15255,-5.25779 0.2907,-1.26456 2.58672,-7.9242 5.10227,-14.7992 4.54591,-12.42396 8.61264,-30.19917 10.40978,-45.5 2.79618,-23.80653 -0.74634,-97.25543 -5.69126,-118 -0.52441,-2.2 -3.27316,-10.975 -6.10832,-19.5 -2.83516,-8.525 -6.08009,-18.425 -7.21097,-22 -1.13088,-3.575 -2.89357,-8.06834 -3.9171,-9.98519 C 792.83743,275.46013 792,273.5589 792,273.15203 c 0,-0.79944 -3.90817,-9.54723 -9.95824,-22.28985 -2.08908,-4.4 -5.9906,-12.725 -8.67004,-18.5 -2.67945,-5.775 -5.22657,-10.95 -5.66028,-11.5 -0.86048,-1.0912 -5.65775,-8.84218 -10.83118,-17.5 -1.80757,-3.025 -5.90732,-8.875 -9.11055,-13 -3.20323,-4.125 -9.68783,-12.8385 -14.41022,-19.36334 -4.72239,-6.52483 -9.32266,-12.60848 -10.22283,-13.51921 -0.90016,-0.91074 -4.1091,-4.50855 -7.13098,-7.99514 -4.71978,-5.44562 -16.39034,-16.46294 -26.58439,-25.09638 -1.60671,-1.36074 -5.84629,-4.98607 -9.42129,-8.05629 -3.575,-3.07022 -9.07386,-7.47351 -12.2197,-9.78509 -3.14583,-2.31158 -8.80466,-6.786247 -12.57518,-9.943707 C 639.77714,83.683493 626.00497,74.931393 611,68.51104 c -2.475,-1.059008 -7.05963,-3.10073 -10.18807,-4.537162 -3.12845,-1.436432 -6.30095,-2.611695 -7.05,-2.611695 -0.74906,0 -1.78943,-0.396042 -2.31193,-0.880094 -2.39415,-2.217973 -25.15615,-10.368077 -36.95,-13.23022 -2.2,-0.533899 -7.6,-2.061003 -12,-3.393566 -4.4,-1.332562 -11.825,-3.541513 -16.5,-4.90878 -13.98685,-4.09064 -26.22047,-7.703156 -31,-9.154116 -7.44836,-2.261156 -26.13048,-7.066582 -32,-8.23106 -39.12864,-7.762882 -66.51761,-9.773165 -121,-8.881104 -37.40302,0.612414 -47.41099,1.725699 -69.5,7.731175 -8.25,2.242978 -18.15,4.878564 -22,5.856859 -22.06611,5.607053 -44.20611,15.082184 -63,26.961746 -3.3,2.085921 -8.025,4.930008 -10.5,6.320194 C 149.64376,74.918983 133.65459,86.895823 103.04834,114.94741 99.99675,117.74429 92.325,124.31989 86,129.55985 c -15.75957,13.05607 -29.2879,27.18056 -41.47466,43.30233 -2.91029,3.85 -6.71288,8.575 -8.45019,10.5 -1.73732,1.925 -3.88178,4.85 -4.76547,6.5 -0.8837,1.65 -4.1608,6.15 -7.28245,10 -7.73929,9.54503 -12.7492,17.17879 -19.03222,29 -2.92327,5.5 -7.23916,13.6 -9.59086,18 -9.531902,17.83409 -19.868126,39.70421 -24.339854,51.5 -1.772269,4.675 -4.270827,10.56443 -5.552349,13.08762 -3.423656,6.74083 -6.674255,20.68117 -13.387381,57.41238 -2.237584,12.24305 -2.462991,13.88959 -4.722957,34.5 -1.630577,14.87051 -1.465801,27.15146 0.523272,39 4.383631,26.11247 6.422166,38.0425 7.09128,41.5 0.425756,2.2 1.296705,6.7 1.935442,10 1.129346,5.83471 5.02337,19.11792 11.28642,38.5 7.141617,22.10096 23.406355,45.65262 49.742967,72.0288 10.24039,10.25578 32.13075,30.08071 38.06254,34.4712 1.48615,1.1 6.97809,5.25656 12.2043,9.23679 5.22622,3.98024 16.41872,11.54271 24.87224,16.80551 12.95119,8.06285 15.92161,9.52068 18.87498,9.26353 2.9139,-0.25372 3.55537,0.0477 3.80393,1.78752 0.22977,1.60829 3.47049,3.60701 14,8.63456 28.97707,13.83575 36.87197,15.17992 79.20102,13.48458 17.69704,-0.70879 20.81659,-0.28287 19.6771,2.68659 -0.49929,1.30112 -2.44603,1.63023 -10.39572,1.75744 -5.37976,0.0861 -10.90638,0.28032 -12.28138,0.43162 -1.375,0.1513 -9.025,0.41836 -17,0.59347 -15.49577,0.34025 -27.34016,-1.17912 -38.25,-4.90663 -3.1625,-1.08051 -5.73724,-1.69691 -5.72164,-1.36977 0.0156,0.32713 2.4906,2.08497 5.5,3.90629 5.20057,3.14745 6.9499,5.26915 4.22164,5.1203 -0.6875,-0.0375 -7.325,-4.08048 -14.75,-8.98437 -7.425,-4.9039 -17.78561,-11.12618 -23.02359,-13.8273 l -9.52359,-4.91113 -13.97641,2.99249 c -7.68702,1.64588 -15.04764,3.23754 -16.35692,3.53703 -1.73775,0.3975 -2.25827,0.16881 -1.92778,-0.84699 0.43985,-1.35195 2.83557,-2.03809 19.05829,-5.45835 4.2625,-0.89867 7.75,-1.96164 7.75,-2.36217 0,-0.40052 -3.9375,-3.27537 -8.75,-6.38855 -4.8125,-3.11318 -9.22834,-6.05444 -9.81299,-6.53613 -0.58464,-0.48168 -2.15964,-1.44672 -3.5,-2.14452 C 75.03687,658.81293 53.98254,642.89654 44.92958,634.89951 22.64105,615.21069 15.4062,608.22334 2.40221,593.82701 -9.990753,580.10712 -11.237686,578.55862 -18.103311,568.36218 c -6.672964,-9.91031 -7.322789,-11.00079 -11.918172,-20 -4.151527,-8.13 -14.171621,-38.48362 -16.443354,-49.81144 -0.737745,-3.67871 -2.057245,-10.28856 -2.932221,-14.68856 -0.874977,-4.4 -2.075706,-10.025 -2.668287,-12.5 -0.592581,-2.475 -1.719257,-9.675 -2.503723,-16 -0.784467,-6.325 -1.927422,-15.55 -2.539899,-20.5 -1.823403,-14.73661 0.477806,-42.08764 5.679186,-67.5 12.217094,-59.68901 19.922158,-79.86824 55.938301,-146.5 4.72205,-8.73604 10.71198,-17.63142 15.26949,-22.67604 1.92152,-2.12689 4.89504,-6.07767 6.60783,-8.7795 7.33067,-11.56375 34.32043,-44.07177 42.31086,-50.96165 1.54181,-1.32945 5.7283,-4.86929 9.3033,-7.8663 9.27572,-7.77607 17.58634,-14.94795 24.00583,-20.71651 3.06032,-2.75 7.17548,-6.35 9.14481,-8 1.96933,-1.65 6.18846,-5.406267 9.37584,-8.347277 8.43275,-7.78092 34.78868,-26.870242 43.70143,-31.652471 C 171.30962,58.062664 186.515,48.954137 191,45.825065 c 2.475,-1.726745 7.65,-4.720506 11.5,-6.652801 6.36731,-3.195718 11.3575,-5.186733 34.5,-13.764994 4.125,-1.529019 11.55,-3.717847 16.5,-4.864063 4.95,-1.146215 15.24465,-3.664556 22.87701,-5.596314 C 295.911,10.002817 304.6056,9.096914 344.60526,7.838096 368.61265,7.082567 400.27229,8.185992 421,10.500662 c 24.30758,2.714436 56.75068,9.241937 73,14.687485 4.675,1.566707 11.875,3.650473 16,4.630589 4.125,0.980116 9.975,2.579329 13,3.553806 3.025,0.974478 7.3,2.256108 9.5,2.848067 2.2,0.591959 8.5,2.423902 14,4.070983 5.5,1.647082 12.10775,3.45701 14.68389,4.022062 2.57614,0.565053 6.85114,1.74312 9.5,2.617927 5.18181,1.711331 30.79537,11.97123 33.38675,13.373568 0.86385,0.467477 4.68885,2.08754 8.5,3.60014 11.7075,4.646571 37.16005,20.931814 46.42936,29.706784 1.375,1.30167 6.1,5.01265 10.5,8.246617 11.99516,8.81636 39.74736,33.29921 47.61248,42.00349 9.45416,10.46286 14.24353,16.29261 16.02004,19.5 1.06622,1.925 4.81209,7.1 8.32416,11.5 11.31294,14.17311 28.95503,41.34079 34.86402,53.68833 2.02362,4.22859 3.6793,7.90882 3.6793,8.1783 0,0.26949 3.36845,7.47179 7.48544,16.00513 4.117,8.53334 8.2141,17.45311 9.10468,19.8217 4.23518,11.26401 6.00811,16.42265 10.58763,30.80654 4.40591,13.83862 6.40023,20.4028 7.13973,23.5 0.13132,0.55 0.51069,1.45 0.84304,2 0.72612,1.20162 1.64074,5.54995 2.31372,11 0.27166,2.2 0.68605,4.93876 0.92086,6.08613 0.23482,1.14737 0.70248,8.79737 1.03924,17 0.33676,8.20263 0.88968,17.83887 1.22871,21.41387 2.06896,21.81684 1.78832,55.3896 -0.56219,67.25375 -0.57166,2.88544 -1.2806,7.49625 -1.57543,10.24625 -0.68849,6.42186 -1.70789,11.73757 -2.78069,14.5 -0.3204,0.825 -0.81956,2.625 -1.10927,4 -0.94356,4.47837 -3.43992,12.30507 -7.17649,22.5 -3.42964,9.35751 -3.62703,10.5167 -3.0722,18.04208 0.55134,7.47802 2.86271,16.83197 4.64789,18.80967 1.04977,1.16298 2.35516,-15.46024 1.55078,-19.74798 -0.65716,-3.50295 0.16722,-5.02615 2.05001,-3.78779 1.9208,1.26336 2.13008,4.91872 0.76306,13.3275 -2.46063,15.13564 -2.00864,19.49478 3.17059,30.57849 2.51301,5.37791 6.45051,13.82059 8.75,18.7615 2.29949,4.9409 6.47944,13.59235 9.28878,19.22544 2.80933,5.63309 4.87183,10.47803 4.58333,10.76654 -5.80713,5.56538 -0.37789,1.53373 -8.01756,-9.7038 -5.1831,-11.77611 -19.57415,-40.77165 -20.23577,-40.77165 -0.36306,0 -0.92102,2.5875 -1.23991,5.75 -1.14376,11.34303 -4.77103,44.98797 -6.17214,57.25 -1.56169,13.66743 -1.79505,15.94279 -4.05097,39.5 -0.84272,8.8 -1.94724,19.15 -2.45448,23 -0.50725,3.85 -1.16419,9.925 -1.45987,13.5 -0.29569,3.575 -1.46738,14.6 -2.60378,24.5 -3.09526,26.96522 -3.97814,36.52689 -3.83192,41.5 0.0728,2.475 -0.36089,6.3 -0.96368,8.5 -0.60279,2.2 -1.35399,6.475 -1.66932,9.5 -0.31534,3.025 -1.00395,9.325 -1.53025,14 -0.5263,4.675 -1.19982,11.65 -1.49671,15.5 -0.2969,3.85 -0.95058,9.475 -1.45263,12.5 -0.50205,3.025 -1.63956,13.80299 -2.52779,23.95108 -0.88822,10.1481 -1.79037,18.73492 -2.00477,19.08182 -0.2144,0.3469 -0.46614,6.66892 -0.55943,14.04892 -0.10902,8.62422 -0.82271,16.455 -1.99762,21.91818 -1.0054,4.675 -2.29732,11.875 -2.87093,16 -0.94915,6.82562 -10.35274,91.96332 -11.59741,105.00002 -0.28881,3.025 -0.95753,9.325 -1.48605,14 -0.52852,4.675 -1.17896,11.3789 -1.44544,14.8975 -0.26647,3.5187 -0.66725,6.5803 -0.89061,6.8037 -0.83764,0.8376 -4.69104,0.5203 -25.83044,-2.1269 -11.93404,-1.4944 -22.78047,-1.9475 -24.5,-2.3957 -2.63665,-0.3838 -1.67034,-0.4094 -5.83732,-1.625 z M 754,1055.7859 c 0,-0.083 0.41115,-2.3496 0.91367,-5.0372 0.50251,-2.6876 1.18777,-7.3615 1.52279,-10.3865 0.33502,-3.025 1.0662,-9.325 1.62485,-14 1.3523,-11.3166 5.52355,-49.02302 7.96496,-72.00002 1.08114,-10.175 2.4141,-22.325 2.96213,-27 1.39189,-11.87355 1.30414,-15 -0.42101,-15 -1.66406,0 -2.1624,1.46756 -3.05616,9 -0.63732,5.37118 -2.18707,9.18142 -5.79467,14.24688 -0.9809,1.37728 -1.96887,3.46695 -2.19549,4.6437 -0.22662,1.17675 -2.42794,4.72027 -4.89183,7.87448 -4.29091,5.49314 -12.42388,22.5797 -13.05255,27.42214 -0.16514,1.272 -0.58041,3.4378 -0.92282,4.8128 -1.38773,5.5726 -1.40465,11.2758 -0.0497,16.7374 1.85998,7.49722 1.9132,7.71052 3.92591,15.73602 3.56899,14.231 0.16171,25.7769 -10.37936,35.1715 -2.55791,2.2798 -4.42575,4.3752 -4.15075,4.6565 0.83809,0.8573 26,3.879 26,3.1223 z m -30.79674,-6.8463 c 4.933,-2.5735 10.77348,-8.837 13.51476,-14.4936 3.64345,-7.5181 3.58423,-15.1012 -0.23103,-29.5838 -3.10161,-11.77362 -3.55625,-20.76662 -1.51118,-29.89202 1.17035,-5.22241 0.56063,-7.31795 -1.20912,-4.15559 -3.75003,6.70089 -14.70993,15.54759 -19.26152,15.54759 -3.07765,0 -6.87632,-5.4152 -5.96257,-8.5 1.5147,-5.11356 2.20127,-8.5 1.72329,-8.5 -1.03701,0 -8.82522,7.3598 -11.52511,10.8911 C 692.16626,988.85238 684,1009.3072 684,1017.1758 c 0,4.5334 2.93386,15.2479 5.1876,18.9452 1.09255,1.7924 3.97229,4.4227 6.39943,5.8451 2.42713,1.4224 4.41297,2.9409 4.41297,3.3745 0,0.4337 1.0125,1.0293 2.25,1.3236 1.2375,0.2943 4.05,1.227 6.25,2.0727 5.05022,1.9412 11.20813,2.0261 14.70326,0.2027 z m -39.61266,-14.8274 c -0.35347,-1.2375 -1.37251,-6.0571 -2.26454,-10.7102 -1.53243,-7.9936 -1.52011,-8.876 0.22348,-16 2.06899,-8.45352 8.31723,-22.86532 12.01534,-27.71382 2.90894,-3.8138 3.09662,-5.98127 0.58688,-6.77783 -2.75385,-0.87404 -4.31533,-4.98775 -3.1033,-8.17564 0.55109,-1.44946 1.4584,-4.71374 2.01625,-7.25396 0.55785,-2.54021 2.52359,-7.09357 4.36832,-10.11857 3.27285,-5.36684 6.85637,-13.04721 6.3301,-13.56693 -0.14472,-0.14292 -4.02218,4.29565 -8.61658,9.8635 -12.79754,15.50903 -17.61762,18.32327 -22.692,13.24888 C 670.57302,955.0261 670,953.39858 670,949.93606 c 0,-4.41754 1.80516,-9.41183 12.853,-35.56005 2.20439,-5.2174 3.79601,-9.69815 3.53692,-9.95724 -0.7459,-0.7459 -10.90642,10.5851 -18.47401,20.6022 -8.79878,11.64682 -16.1074,18.34121 -20.02406,18.34121 -4.14426,0 -6.89185,-3.16219 -6.89185,-7.93178 0,-5.0665 4.90951,-18.35209 10.00731,-27.08073 2.19598,-3.76004 3.99269,-7.13846 3.99269,-7.50759 0,-0.36914 0.83155,-1.86563 1.8479,-3.32553 1.01634,-1.4599 2.11879,-3.74172 2.44988,-5.07071 0.48735,-1.95621 -0.4493,-1.38494 -4.91872,3 -3.03639,2.97899 -7.1568,7.66634 -9.15648,10.41634 -4.57649,6.2937 -21.99668,25.30874 -24.33006,26.55752 C 618.57257,933.6613 613,929.09221 613,925.94844 c 0,-3.35354 4.3586,-15.06897 8.93937,-24.02805 C 624.17272,897.5524 626,893.3632 626,892.61106 c 0,-0.75214 -2.8125,2.14667 -6.25,6.44179 -9.24286,11.54888 -10.78333,13.21963 -16.0898,17.45052 -5.5064,4.3903 -7.76331,4.7557 -10.77455,1.74446 -3.63276,-3.63276 -2.27034,-11.0725 4.44733,-24.28535 3.10399,-6.10517 4.63638,-9.75673 3.40532,-8.11459 -4.37304,5.83329 -15.21039,16.63852 -19.61246,19.55432 -5.49779,3.64159 -9.04254,3.74239 -13.04911,0.37108 -4.91831,-4.13848 -4.32893,-8.01933 3.49455,-23.01031 3.61421,-6.92536 6.37864,-12.78422 6.14318,-13.01967 -0.23545,-0.23545 -6.00235,4.54731 -12.81532,10.62836 -14.08054,12.56785 -17.74225,14.38948 -23.45179,11.66679 -5.05483,-2.41048 -6.16446,-5.51004 -4.00078,-11.17554 0.95742,-2.50698 3.41379,-6.68273 5.45859,-9.27944 2.0448,-2.59672 6.04289,-8.08338 8.88464,-12.19259 l 5.16681,-7.47129 -6.72831,-1.34782 c -12.62968,-2.52999 -21.61337,-8.87607 -24.04244,-16.9836 -0.7808,-2.60606 -1.86037,-4.226 -2.81632,-4.226 -1.38116,0 -7.89504,1.65167 -31.86954,8.08092 -3.85,1.03245 -14.65,3.75871 -24,6.05835 -38.36452,9.43578 -54.82532,13.78605 -55.78114,14.74187 -1.50758,1.50758 1.10756,9.92899 3.29931,10.62463 1.8015,0.57177 15.75174,9.47307 28.48183,18.17353 4.72381,3.22852 6.44307,4.89293 5.28727,5.11859 -0.94201,0.18392 -4.54201,-1.62726 -8,-4.02485 -8.88335,-6.15924 -23.1021,-14.77304 -24.38578,-14.77304 -0.8589,0 3.06592,5.1491 7.25049,9.51215 3.68631,3.84355 15.63667,13.48785 16.71293,13.48785 0.28426,0 4.34097,1.8 9.01492,4 4.67394,2.2 8.77524,4 9.114,4 0.33875,0 3.17872,1.72449 6.31104,3.8322 7.00955,4.71667 11.19216,6.79922 15.43506,7.68526 2.73502,0.57115 2.05215,-0.15375 -4.23993,-4.5009 -10.37743,-7.16969 -10.72755,-7.55682 -8.10408,-8.96086 1.84782,-0.98892 2.55713,-0.69119 5.36666,2.25261 2.90563,3.0445 10.47579,8.3154 20.93579,14.57705 2.0341,1.21767 3.95072,3.00902 4.25914,3.98077 0.51329,1.61724 16.1617,11.13387 18.30767,11.13387 0.50866,0 1.70271,0.85953 2.65343,1.91006 0.95072,1.05054 2.89867,2.20374 4.32878,2.56267 1.4301,0.35894 4.43448,1.8968 6.6764,3.41748 2.24192,1.52068 8.57621,5.72538 14.07621,9.34377 5.5,3.61839 11.96298,8.39847 14.36217,10.6224 5.86687,5.43829 15.66122,11.22023 16.90302,9.97843 0.61647,-0.61647 2.80303,0.40838 6.08367,2.85139 2.81673,2.0976 11.99053,8.1363 20.38623,13.4193 10.45991,6.582 15.21892,10.1369 15.11879,11.2934 -0.2209,2.55172 9.29682,8.61482 12.54996,7.99472 1.90163,-0.3624 4.68738,0.7895 10.41318,4.3058 4.29936,2.6403 8.57436,5.2506 9.5,5.8006 0.92564,0.55 5.95798,3.6634 11.18298,6.9187 8.79271,5.478 20.32847,11.4275 22.36663,11.5354 0.47665,0.025 0.57743,-0.9666 0.22397,-2.2041 z m 36.00936,-54.59242 c 4.53556,-3.3055 9.87432,-9.1903 16.90004,-18.62841 2.75,-3.69426 6.82988,-9.03711 9.06639,-11.87301 5.31921,-6.74475 12.82624,-17.5802 14.72076,-21.24755 1.85295,-3.58689 3.17417,-15.13607 2.27802,-19.91295 -0.60265,-3.21241 -0.8088,-3.3949 -2.22978,-1.97393 -0.86115,0.86116 -4.27546,3.00855 -7.58735,4.77199 -9.67805,5.15315 -10.11964,5.43984 -12.92524,8.39135 -2.40182,2.52672 -11.8269,20.09476 -11.82002,22.03214 0.002,0.43052 -0.84764,2.58277 -1.88704,4.78277 -1.0394,2.2 -3.55671,7.52658 -5.59402,11.83684 C 716.49027,966.22817 712,978.42348 712,980.84338 c 0,2.3712 3.32486,1.7922 7.59996,-1.3236 z M 705.581,962.08875 C 714.48664,952.7269 719,947.40208 719,946.25714 c 0,-0.50175 1.2375,-2.29696 2.75,-3.98936 1.5125,-1.6924 4.77823,-6.976 7.25718,-11.74134 5.94417,-11.42662 7.62598,-13.90558 12.66243,-18.66426 3.37922,-3.19285 4.54668,-5.24273 5.78563,-10.15859 2.37374,-9.41851 1.47147,-10.39421 -6.95524,-7.52128 -1.65,0.56253 -5.67674,1.62063 -8.9483,2.35133 l -5.9483,1.32854 -3.8694,7.5 c -2.12817,4.125 -5.91415,12.45 -8.41327,18.5 -5.11117,12.37334 -10.36124,23.41038 -13.43538,28.24474 -1.81781,2.85866 -4.75094,12.53871 -4.84973,16.00526 -0.0884,3.10238 4.18775,0.65987 10.54538,-6.02343 z m -24.87939,-9.62538 c 4.08777,-2.96116 24.21724,-28.17835 30.41406,-38.10119 9.56568,-15.31733 11.40886,-21.32828 8.81854,-28.75888 -1.34781,-3.86632 -4.50825,-4.72766 -10.14395,-2.76462 -2.35964,0.82192 -5.26976,1.50094 -6.46693,1.50895 -1.75185,0.0117 -3.04882,1.81987 -6.64535,9.26455 -2.45777,5.0875 -5.81257,12.625 -7.4551,16.75 -1.64253,4.125 -4.11141,9.975 -5.48638,13 -4.67821,10.29224 -9.72005,24.92585 -9.54962,27.71713 0.32061,5.25098 0.98249,5.3916 6.51473,1.38406 z m -28.06668,-16.35119 c 2.03749,-1.7875 5.09065,-5.11113 6.7848,-7.38585 5.84532,-7.84845 18.39939,-22.88054 23.7569,-28.44622 8.0253,-8.33713 9.09899,-10.31426 8.27973,-15.24661 -1.36644,-8.22661 -5.41004,-12.83684 -9.39062,-10.7065 -1.06384,0.56935 -3.02815,1.03518 -4.36514,1.03518 -3.79163,0 -7.23401,3.421 -9.78319,9.72242 -1.28549,3.17767 -4.26779,9.21744 -6.62734,13.42172 -2.35954,4.20428 -4.29007,7.87355 -4.29007,8.15393 0,0.28039 -1.52329,3.20477 -3.38508,6.49862 -5.19757,9.19543 -9.52641,22.91947 -8.00549,25.38037 0.9909,1.60331 3.36721,0.78238 7.0255,-2.42706 z m -25.23955,-16.64574 c 2.80754,-2.96765 5.57216,-5.89265 6.1436,-6.5 0.57145,-0.60734 2.66965,-3.25501 4.66268,-5.8837 1.99303,-2.62869 7.08198,-8.44482 11.30878,-12.92474 8.93262,-9.46754 12.08202,-14.10651 13.03858,-19.20541 0.5347,-2.85023 0.27098,-4.13214 -1.18023,-5.73681 -2.7463,-3.03672 -8.81314,-5.8536 -12.60716,-5.8536 -1.82493,0 -6.45536,-1.50055 -10.28984,-3.33455 -13.0754,-6.25385 -13.85796,-5.99316 -20.51676,6.83455 -6.4366,12.39966 -11.04604,20.60802 -14.1718,25.23673 -5.83366,8.63866 -10.40972,22.14001 -8.00724,23.62482 2.18941,1.35313 22.16898,-19.71009 27.92895,-29.44375 2.20711,-3.72977 5.08076,-5.34054 6.87342,-3.85277 2.03212,1.68651 1.76017,8.52505 -0.50896,12.79882 -9.92962,18.70177 -14.15363,29.57282 -12.51863,32.2183 0.75102,1.21517 2.45035,-0.16195 9.84461,-7.97789 z m 145.23645,-30.60426 c 0.6207,-11.11093 -0.27439,-17.38628 -4.06512,-28.5 -1.40698,-4.125 -3.27736,-10.2 -4.15639,-13.5 -0.87904,-3.3 -2.22075,-7.575 -2.98159,-9.5 -0.76083,-1.925 -1.91087,-5.75 -2.55565,-8.5 -1.61748,-6.89864 -6.82702,-17.19256 -7.85722,-15.52566 -0.43811,0.70888 -0.56154,16.41715 -0.2743,34.90727 0.39594,25.48611 0.85073,34.2668 1.88009,36.29887 0.74679,1.47426 3.65498,5.07426 6.46263,8 4.96982,5.17885 8.86787,11.59725 8.96249,14.75735 0.0257,0.85919 0.9422,-0.68783 2.0366,-3.43783 1.29216,-3.24692 2.18569,-8.50616 2.54846,-15 z m -16.65984,15.51429 c 5.667,-2.89109 5.84996,-3.87292 1.46974,-7.8871 l -3.87505,-3.55122 -1.23971,5.96202 c -1.83381,8.81921 -2.10601,8.41025 3.64502,5.4763 z m -176.47928,-3.55943 c 2.74247,-1.94982 6.79103,-5.64838 8.9968,-8.21901 2.20577,-2.57063 9.07299,-10.44739 15.26049,-17.50392 6.76884,-7.71952 11.25,-13.67537 11.25,-14.95225 0,-1.16721 0.74586,-2.94636 1.65747,-3.95368 1.40321,-1.55053 1.48132,-2.41939 0.5092,-5.66403 -1.13391,-3.78468 -4.11786,-6.10923 -7.96372,-6.20389 -3.23863,-0.0797 -8.07074,-3.47676 -11.67554,-8.20808 -3.25997,-4.27875 -4.01785,-4.75 -7.63896,-4.75 -2.21096,0 -4.86089,-0.45006 -5.88872,-1.00014 -2.71928,-1.45532 -6.55004,0.33712 -7.86209,3.67873 -0.60929,1.55178 -3.81745,6.19641 -7.12923,10.32141 C 550.94075,866.86638 541,881.59506 541,885.86074 c 0,2.71556 3.66507,4.3622 6.32495,2.84167 1.74692,-0.99864 10.03522,-8.08728 21.13473,-18.07568 4.42217,-3.9795 8.90489,-7.242 9.96158,-7.25 4.50475,-0.0341 7.13495,5.58676 4.16774,8.90671 -2.17427,2.43274 -13.589,25.29146 -13.589,27.21282 0,5.86928 3.47917,6.30723 10.49271,1.32078 z M 729,891.39736 c 0,-0.53065 -0.9,-1.44648 -2,-2.03518 -1.69548,-0.90739 -2,-0.76049 -2,0.96482 0,1.36851 0.65514,2.03518 2,2.03518 1.1,0 2,-0.43417 2,-0.96482 z m 12.84879,-4.87015 c 1.45817,-1.55923 3.29564,-3.04904 4.08327,-3.31069 1.15253,-0.38286 1.38064,-2.70416 1.1686,-11.89222 -0.1449,-6.27908 -0.40373,-11.65177 -0.57518,-11.93931 -0.29352,-0.49228 -2.86063,-18.15145 -4.07367,-28.02281 -0.84133,-6.84648 -6.40639,-28.99161 -8.40251,-33.43621 l -1.76779,-3.93621 -2.47507,2.47507 c -4.48244,4.48244 -7.68803,29.49946 -7.76929,60.633 -0.0467,17.90364 1.03807,22.36969 6.80463,28.01435 5.35569,5.24248 9.05163,5.64456 13.00701,1.41503 z m -33.57445,-9.31185 c 1.17857,-0.63075 2.8761,-2.05235 3.7723,-3.15911 1.84695,-2.28088 3.95336,-1.55362 3.95336,1.36495 0,1.06754 0.5625,1.94165 1.25,1.94248 0.97494,10e-4 1.08466,-2.91442 0.49859,-13.25 -0.41327,-7.28833 -0.71328,-20.42919 -0.66669,-29.20192 0.0466,-8.77273 -0.48466,-22.20998 -1.18057,-29.86056 -1.27746,-14.04378 -2.33878,-17.1543 -5.62609,-16.48897 -2.97032,0.60118 -10.37486,23.66877 -13.3715,41.65669 -1.15845,6.95379 -2.44726,13.31826 -2.86403,14.14326 -0.41677,0.825 -1.56179,4.98058 -2.54448,9.23461 -1.77428,7.68076 -1.77126,7.78173 0.43272,14.5 1.22069,3.72097 2.93102,7.55289 3.80073,8.51539 1.84442,2.0412 9.19807,2.39475 12.54566,0.60318 z m -29.62803,-7.3352 c 4.61685,-0.92642 6.70405,-3.83799 7.41227,-10.33987 0.34016,-3.12296 1.84586,-10.29176 3.346,-15.93067 1.50014,-5.63891 3.12715,-14.63891 3.61558,-20 2.82282,-30.98367 3.04659,-34.58069 2.20363,-35.42365 -1.88647,-1.88647 -5.26233,3.05763 -10.70381,15.67621 -3.08328,7.15 -7.58445,17.275 -10.00262,22.5 C 669.95294,836.22467 664,853.15024 664,856.26544 c 0,4.5748 7.25666,15.4333 9.83235,14.71265 0.91721,-0.25663 3.08349,-0.7507 4.81396,-1.09793 z m 99.35431,-28.01798 c 1.21234,-11.55 2.59935,-24.6 3.08225,-29 1.94971,-17.76487 2.91413,-29.28024 2.88939,-34.5 l -0.0261,-5.5 -2.97816,3.5 c -7.83306,9.2056 -8.90162,11.74068 -11.38079,27 -2.38394,14.67317 -2.22737,37.16035 0.31129,44.70735 1.07169,3.18596 2.18843,7.84251 2.48165,10.3479 0.29321,2.50539 0.85768,5.40106 1.25438,6.43483 0.6999,1.82393 0.74259,1.82229 1.44153,-0.0553 0.39615,-1.06416 1.71219,-11.38483 2.92452,-22.93483 z m -117.07292,19.3649 c -0.88345,-1.65074 -1.33018,-1.83171 -1.9692,-0.79775 -1.02479,1.65814 -0.31386,2.93285 1.6357,2.93285 1.19743,0 1.2604,-0.40317 0.3335,-2.1351 z m -5.56607,-4.3649 c 0.31658,-0.825 1.22856,-1.5 2.02662,-1.5 0.86568,0 2.14384,-2.11785 3.16847,-5.25 2.5234,-7.71363 7.22193,-19.54471 10.00634,-25.19634 1.34032,-2.72049 2.43694,-6.57593 2.43694,-8.56763 0,-1.99171 0.88941,-6.96585 1.97646,-11.05366 3.29627,-12.39539 2.74602,-14.29815 -3.4532,-11.94121 -1.94733,0.74037 -3.65131,3.2073 -6.73461,9.75 -4.84485,10.28065 -8.12461,14.26481 -11.72574,14.2441 -6.27426,-0.0361 -9.87958,-4.80474 -10.00647,-13.23526 -0.0632,-4.19947 -0.25479,-4.2594 -7.55644,-2.3634 l -5,1.29834 -6.14552,12.21799 c -9.36406,18.61679 -9.5639,24.45158 -0.98512,28.7626 2.82185,1.41804 7.46897,4.56255 10.32693,6.9878 2.85796,2.42525 6.45796,5.06763 8,5.87195 3.80796,1.98621 12.89991,1.96939 13.66534,-0.0253 z m -304.68971,-3.90559 c 2.28643,-2.65757 2.45005,-3.46847 1.91685,-9.5 -0.56687,-6.4124 -0.92162,-11.48249 -2.03573,-29.09441 -0.29574,-4.675 -0.77136,-20.875 -1.05695,-36 -0.50472,-26.73042 -0.88282,-31.73061 -4.09813,-54.19588 -2.37373,-16.58519 -7.11593,-26.94228 -13.01384,-28.42256 -8.8256,-2.21509 -19.57645,4.01828 -24.35043,14.11844 -2.99794,6.34263 -5.68117,17.38852 -7.04458,29 -0.45207,3.85 -1.81361,15.325 -3.02566,25.5 -1.21204,10.175 -2.26215,20.49187 -2.33358,22.92638 -0.14798,5.04351 -3.16279,2.54125 26.62013,22.09439 8.6625,5.68712 15.75,10.75714 15.75,11.26671 0,1.51811 -2.25895,0.25416 -17.71564,-9.9124 -19.33258,-12.71591 -24.41046,-15.66019 -25.32306,-14.68294 -1.592,1.70477 -6.1818,57.05643 -4.87639,58.80786 0.46664,0.62608 11.46587,1 29.41627,1 l 28.67093,0 z M 404,853.92728 c 0,-1.3392 -0.48408,-3.7017 -1.07574,-5.25 -0.59165,-1.54831 -1.70532,-5.5151 -2.47481,-8.8151 l -1.39907,-6 0.52996,9.5 c 0.29148,5.225 0.76047,10.2875 1.0422,11.25 0.78052,2.66656 3.37746,2.13994 3.37746,-0.6849 z m 221,-4.5651 c -3.4005,-2.65991 -5.42354,-2.65991 -4,0 0.67308,1.25766 2.07803,1.99175 3.78518,1.97776 l 2.71482,-0.0222 -2.5,-1.95553 z m -65.19125,-3.08317 c 2.8534,-0.99471 5.20508,-3.78727 12.43599,-14.76744 2.41147,-3.66183 2.22519,-4.85014 -1.40917,-8.98944 -3.80222,-4.33049 -2.95742,-4.37028 -24.83557,1.1696 l -16.5,4.17806 0.15572,3.38143 c 0.4737,10.28638 18.28707,19.16428 30.15303,15.02779 z m 51.38022,-7.16683 c 0.96154,-0.76496 1.79881,-3.57821 2.15771,-7.25 0.55811,-5.70979 5.74213,-17.9392 10.27954,-24.25 1.55032,-2.15625 1.51889,-2.24898 -0.75425,-2.22555 -1.30458,0.0134 -4.39697,0.50103 -6.87197,1.08352 -2.475,0.5825 -5.175,1.21273 -6,1.40052 -11.11563,2.53015 -35.70212,8.99206 -36.34934,9.55346 -1.42326,1.23455 0.18855,4.41307 3.09806,6.10942 1.5132,0.88225 5.22628,1.9177 8.25128,2.30099 6.70511,0.84959 13.69766,3.99969 14.50167,6.53291 0.71745,2.26048 7.0594,7.99473 8.842,7.99473 0.70074,0 1.98113,-0.5625 2.8453,-1.25 z m 153.72586,-26.64927 c 2.12534,-22.25594 3.44679,-26.24013 12.76764,-38.49463 l 3.72232,-4.89389 -4.95239,0.71938 c -7.29708,1.05996 -48.25735,9.65484 -60.92665,12.78452 l -3.97425,0.98175 2.73974,1.99576 c 3.98225,2.90087 4.78195,4.99188 5.39952,14.11835 0.30473,4.50341 0.69496,8.34651 0.86717,8.54021 0.17221,0.1937 0.58826,-1.3813 0.92455,-3.5 1.06814,-6.7294 4.5593,-12.26971 8.39982,-13.33013 4.15797,-1.14807 6.44347,-0.0898 7.9683,3.68973 1.98421,4.91817 6.1455,20.22728 6.2663,23.05333 0.0643,1.50419 0.52138,0.29747 1.01574,-2.68161 1.05605,-6.36393 2.23404,-8.0835 5.53755,-8.0835 3.41128,0 6.45033,3.70296 9.34311,11.38419 1.36769,3.63162 2.75288,6.60584 3.0782,6.60938 0.32533,0.004 1.14583,-5.79824 1.82333,-12.89284 z m -176.73111,-2.02104 c 6.77395,-1.60617 14.79128,-3.63996 17.81628,-4.51955 3.025,-0.87958 6.4,-1.74236 7.5,-1.9173 1.1,-0.17493 4.41302,-0.89813 7.36226,-1.60712 4.92359,-1.18361 5.51839,-1.64201 7.27065,-5.60328 2.13018,-4.81562 4.29752,-19.58135 3.39941,-23.15968 -0.51046,-2.03384 -0.8533,-2.17685 -2.8069,-1.17091 -2.36425,1.2174 -12.62274,11.86665 -12.68722,13.17049 -0.021,0.42479 -1.89551,2.78729 -4.16556,5.25 -4.76991,5.17475 -8.71964,5.96189 -11.31594,2.25515 -1.92817,-2.75285 -1.93758,-6.74684 -0.043,-18.27749 3.05964,-18.62179 1.08477,-20.49548 -6.06046,-5.75 -2.59852,5.3625 -5.90101,11.32073 -7.33888,13.24052 -1.43787,1.91979 -3.12012,4.39479 -3.73834,5.5 -0.61822,1.10521 -3.03101,5.38448 -5.36177,9.50948 -4.63039,8.19493 -6.44045,16 -3.71053,16 0.86007,0 7.10609,-1.31414 13.88005,-2.92031 z m 67.17992,0.28395 c 1.45,-1.45 2.63511,-3.1375 2.63358,-3.75 -0.002,-0.6125 0.99747,-3.00214 2.22,-5.31031 1.22252,-2.30817 1.92837,-4.49107 1.56856,-4.85088 -0.35981,-0.35981 -3.49631,-0.0436 -6.96999,0.70265 l -6.31579,1.35686 -0.31229,4.92775 c -0.61411,9.69012 1.9427,12.15715 7.17593,6.92393 z m -11.30133,-15.40838 c 0.39811,-0.80039 1.23909,-4.26532 1.86885,-7.69984 1.19492,-6.51677 0.24006,-10.77129 -2.24886,-10.02014 -1.45717,0.43977 -10.88151,19.63338 -10.18981,20.75256 0.75165,1.21621 9.73906,-1.36236 10.56982,-3.03258 z m 40.36236,-4.8054 c -0.86969,-1.04422 -2.41848,1.33742 -2.37957,3.65916 l 0.0451,2.69098 1.31304,-3 c 0.72217,-1.65 1.18181,-3.15756 1.02143,-3.35014 z m 19.33728,-0.81485 c 1.25664,-3.70066 0.70346,-4.65446 -1.89343,-3.26464 -1.41671,0.7582 -1.86852,2.1334 -1.86852,5.68732 0,4.23607 0.12935,4.49743 1.34361,2.71482 0.73898,-1.08488 1.82724,-3.39675 2.41834,-5.1375 z m -45.19699,3.50534 c 2.79468,-1.01057 3.2859,-1.73558 3.821,-5.63957 0.89366,-6.51998 0.75245,-11.20078 -0.33792,-11.20078 -1.15289,0 -6.65694,7.84113 -8.01927,11.42434 -0.5386,1.41661 -1.61292,2.57566 -2.38739,2.57566 -0.77446,0 -1.64347,0.9 -1.93113,2 -0.43955,1.68086 -0.0307,2 2.56237,2 1.69696,0 4.52851,-0.52184 6.29234,-1.15965 z M 614.64892,778.6443 c 1.49496,-3.56055 1.82014,-10.87419 0.51925,-11.67819 -0.45751,-0.28275 -2.89262,1.60319 -5.41136,4.19099 -4.13605,4.24944 -4.68098,5.37443 -5.62713,11.61699 -0.57617,3.80154 -0.76352,7.37154 -0.41631,7.93332 0.82198,1.33001 9.18617,-7.89661 10.93555,-12.06311 z M 676,787.36218 c 0,-0.55 -0.42344,-1 -0.94098,-1 -0.51754,0 -1.2191,0.45 -1.55902,1 -0.33992,0.55 0.0835,1 0.94098,1 0.85746,0 1.55902,-0.45 1.55902,-1 z M 394.71758,718.62593 c -0.22985,-1.52006 -0.42406,-0.51375 -0.43157,2.23625 -0.007,2.75 0.18056,3.99369 0.41792,2.76375 0.23736,-1.22994 0.24351,-3.47994 0.0136,-5 z m -0.33229,-14.5089 c -0.29825,-6.18484 -0.75556,-11.45846 -1.01626,-11.71915 -0.2607,-0.2607 -0.37354,4.79962 -0.25076,11.24515 0.12278,6.44553 0.5801,11.71915 1.01626,11.71915 0.43616,0 0.54901,-5.06032 0.25076,-11.24515 z m -0.4729,-15.50485 c -0.0482,-1.5125 -0.45412,-5 -0.9021,-7.75 -0.75256,-4.6198 -0.80293,-4.41119 -0.66239,2.74351 0.0837,4.25894 0.4896,7.74644 0.9021,7.75 0.4125,0.004 0.71058,-1.23101 0.66239,-2.74351 z M 435,598.86218 c 0,-1.925 -0.35964,-3.5 -0.7992,-3.5 -0.43956,0 -0.61533,1.575 -0.39059,3.5 0.22473,1.925 0.58437,3.5 0.7992,3.5 0.21482,0 0.39059,-1.575 0.39059,-3.5 z m 124,185.81637 c -8.87246,-5.2539 -11.66527,-10.88503 -10.70448,-21.58346 0.59157,-6.58712 4.76233,-14.23051 10.53713,-19.31048 4.3755,-3.84903 3.55356,-5.42243 -2.83265,-5.42243 -2.68508,0 -5.20719,-0.52622 -5.60468,-1.16938 -0.39749,-0.64316 -0.79549,-11.10566 -0.88444,-23.25 -0.2046,-27.93673 -0.8567,-37.37611 -4.06249,-58.80646 -3.87047,-25.87369 -4.35657,-30.3933 -4.40448,-40.9518 -0.053,-11.68666 1.39802,-22.84098 3.97848,-30.58289 1.72768,-5.18339 1.76112,-5.85413 0.34518,-6.92294 -2.20155,-1.6618 -1.02099,-2.97768 3.37138,-3.75779 5.27367,-0.93663 16.27859,-3.53169 19.26105,-4.54192 6.24658,-2.11586 20.86118,-5.00732 22.37428,-4.42669 2.42659,0.93117 0.12616,3.39195 -3.24672,3.47305 -1.44516,0.0348 -7.35256,1.28612 -13.12756,2.78082 l -10.5,2.71763 -0.0429,6.96918 c -0.0236,3.83306 -0.77964,9.44419 -1.68014,12.46919 -2.68014,9.00331 -7.6323,30.85183 -9.17968,40.5 -1.65296,10.30647 -1.42541,46.53129 0.3769,60 0.58878,4.4 1.01976,15.12181 0.95773,23.82625 -0.062,8.70443 0.0404,15.94337 0.22764,16.08652 0.84916,0.64924 15.39928,2.70185 25.84042,3.64535 6.325,0.57155 15.55,1.45674 20.5,1.9671 18.98834,1.95773 30.64898,3.02029 49,4.46504 27.57571,2.171 37.70508,3.31968 49.5,5.61336 13.81962,2.68742 19.73059,4.75817 20.35066,7.12931 0.70748,2.70541 -1.82419,3.29492 -6.15444,1.43308 -8.51836,-3.66257 -37.04407,-7.86814 -62.19622,-9.16964 -6.875,-0.35575 -19.025,-1.31956 -27,-2.1418 -7.975,-0.82224 -18.775,-1.8957 -24,-2.38546 -5.225,-0.48976 -14.225,-1.38677 -20,-1.99336 -10.12483,-1.06348 -10.54902,-1.02915 -11.87197,0.96068 -0.75459,1.13496 -1.95384,2.06357 -2.66502,2.06357 -1.5266,0 -9.04498,8.30559 -11.0895,12.25062 -0.78403,1.51285 -1.84807,4.97874 -2.36452,7.70199 -0.78789,4.15454 -0.61356,5.68708 1.08329,9.5231 3.4221,7.73621 11.00609,11.25829 20.02368,9.29917 0.69589,-0.15118 1.42583,0.4521 1.62207,1.34064 0.25059,1.13454 -0.58767,1.80441 -2.81561,2.25 -5.57166,1.11433 -8.31468,0.67936 -12.92242,-2.04915 z m -5.56195,-177.31637 c 1.51248,-6.325 3.65947,-14.58386 4.77108,-18.35301 1.47633,-5.00583 1.78388,-7.68015 1.14103,-9.92166 -1.21566,-4.23874 -2.55474,-4.34434 -6.58645,-0.51937 -5.42929,5.15089 -7.26759,14.60865 -7.24881,37.29404 0.0183,22.13615 1.07752,25.94364 3.47733,12.5 0.93271,-5.225 2.93333,-14.675 4.44582,-21 z M 250.5,766.3917 c -8.8,-5.47687 -19.24725,-11.88654 -23.21612,-14.24373 -3.96886,-2.35718 -7.23136,-4.85985 -7.25,-5.56147 -0.0469,-1.76604 2.63158,-0.29334 25.36108,13.94409 17.9246,11.22773 24.35906,15.84004 22.07726,15.82531 C 266.9375,776.3529 259.3,771.86856 250.5,766.3917 z m 111.08889,-17.10625 c -1.42389,-1.69219 -2.63604,-4.05469 -2.69366,-5.25 -0.0576,-1.1953 -0.26811,-7.34827 -0.46775,-13.67327 -0.19963,-6.325 -0.86602,-14.52487 -1.48084,-18.22194 -1.3943,-8.38414 -0.62934,-12.02582 3.2036,-15.25103 4.85778,-4.08755 8.97164,-3.4786 14.33835,2.1224 2.45022,2.55719 4.99817,6.26969 5.66212,8.25 0.68749,2.05056 1.23776,9.4122 1.27823,17.10057 0.0568,10.78989 -0.29467,14.44785 -1.75079,18.22156 -3.72565,9.65554 -12.78091,13.01033 -18.08926,6.70171 z m 10.35793,-2.87009 c 4.02036,-4.02036 5.21374,-7.98381 5.54556,-18.41795 0.17728,-5.57438 0.004,-12.7083 -0.38419,-15.85315 -1.38458,-11.20558 -10.33366,-17.37886 -15.38511,-10.613 -1.85538,2.48508 -1.91151,3.20894 -0.81426,10.5 0.64817,4.30701 1.54596,13.73464 1.9951,20.95031 0.44913,7.21566 1.13104,13.62816 1.51536,14.25 1.10286,1.78448 5.39191,1.31942 7.52754,-0.81621 z M 197.50009,733.27722 c -3.20731,-2.24673 -8.34441,-5.48215 -11.41578,-7.18981 -10.16796,-5.65334 -20.68262,-13.14708 -18.94069,-13.49892 0.904,-0.18259 6.754,3.0016 13,7.07597 6.24601,4.07438 11.80638,7.58566 12.35638,7.80284 2.4115,0.95225 13.5,8.46125 13.5,9.14204 0,1.69853 -2.99384,0.52489 -8.49991,-3.33212 z M 0.47293,702.31838 c -0.90914,-1.47102 1.40311,-3.9562 3.6809,-3.9562 2.38476,0 3.61971,2.89659 1.74189,4.08561 -1.90153,1.20404 -4.63905,1.13871 -5.42279,-0.12941 z M 17,697.52224 c 0,-1.0838 3.97799,-2.19922 23.5,-6.58937 17.18101,-3.8637 19.87765,-4.20365 19.28691,-2.43142 -0.20887,0.6266 -5.30887,2.17293 -11.33333,3.43629 -6.02447,1.26336 -14.51306,3.22569 -18.86354,4.36073 C 21.19187,698.48955 17,698.89701 17,697.52224 z m 116.43208,-27.05016 c 0.56165,-0.90876 3.53338,-1.67138 28.06792,-7.2029 19.27051,-4.3447 19.5,-4.37718 19.5,-2.75958 0,0.97843 -6.2663,2.74035 -21.75,6.1155 -21.80902,4.75396 -26.84195,5.50389 -25.81792,3.84698 z M 198,656.44381 c 0,-0.97713 5.11634,-2.32229 27.5,-7.2301 16.4166,-3.59948 16.8471,-3.65733 17.5,-2.35153 0.52899,1.05798 -4.76528,2.49107 -27.51178,7.4471 C 200.48482,657.57824 198,657.88152 198,656.44381 z m 63.22618,-14.26017 c 0.38094,-1.14281 34.91009,-9.65768 39.60715,-9.7671 1.40803,-0.0328 2.17208,0.42942 1.92669,1.16557 -0.22365,0.67096 -5.09865,2.19396 -10.83333,3.38444 -5.73468,1.19048 -13.99894,3.11651 -18.36503,4.28007 -8.96084,2.38806 -12.91939,2.68876 -12.33548,0.93702 z M 322,628.40072 c 0,-1.10317 2.94916,-1.95478 23,-6.6416 15.70236,-3.67037 18.37029,-4.00782 17.78416,-2.24941 -0.32931,0.98791 -12.83223,4.5642 -22.28416,6.37409 -1.65,0.31595 -5.53996,1.22783 -8.64434,2.02641 C 325.30578,629.59512 322,629.75965 322,628.40072 z m 165.45888,-39.10507 c -0.36253,-0.58659 -0.50159,-1.1944 -0.30902,-1.35068 0.80756,-0.65537 31.54068,-7.59876 33.60014,-7.59113 4.1951,0.0155 2.46757,2.74863 -2.17766,3.44522 -2.43521,0.36518 -9.68322,1.99128 -16.10668,3.61354 -12.97791,3.27762 -14.0609,3.41351 -15.00678,1.88305 z m 121.09906,-28.83973 c -0.81674,-1.32151 2.24554,-2.58465 9.55931,-3.94304 2.96051,-0.54985 6.71932,-1.51023 8.35291,-2.13417 5.48963,-2.09673 17.8813,-4.06507 18.93816,-3.00821 1.60031,1.60031 -0.31481,2.55305 -8.90832,4.43173 -4.4,0.96192 -10.925,2.43394 -14.5,3.27116 -9.78257,2.29096 -12.69546,2.59056 -13.44206,1.38253 z M 400.70655,557.7354 c -0.80102,-0.80102 1.78485,-5.86837 5.29345,-10.37322 1.49928,-1.925 3.44558,-4.85 4.3251,-6.5 0.87953,-1.65 3.21857,-4.8 5.19787,-7 6.06131,-6.73715 17.59336,-22.47032 24.17967,-32.98829 9.59648,-15.32506 15.2125,-20.23304 20.13649,-17.5978 4.12823,2.20935 3.72998,5.08696 -1.88023,13.58609 -2.74175,4.15359 -7.9589,15.16862 -7.9589,16.80373 0,1.49424 2.92786,4.32229 7.5,7.24431 4.26757,2.72738 14.43326,2.59601 20.73176,-0.26791 5.06888,-2.30482 6.55703,-4.6516 10.32363,-16.28013 2.32782,-7.18664 3.91832,-9.53936 7.433,-10.99519 5.16816,-2.14072 6.87001,0.78434 2.09682,3.60393 -3.31041,1.95551 -4.33758,3.8519 -7.79493,14.39126 -1.35317,4.125 -3.61972,8.72547 -5.03677,10.22327 -6.2322,6.58729 -20.84371,7.64974 -29.78921,2.16608 -11.46168,-7.0261 -11.67253,-12.63191 -1.1214,-29.81523 3.8315,-6.23989 4.02137,-7.37462 0.95981,-5.73613 -2.00099,1.0709 -6.16779,6.67 -14.87792,19.99207 -2.99546,4.58153 -6.78411,9.98153 -8.41921,12 C 419.04253,536.19454 409,549.60741 409,550.91865 c 0,0.31733 -1.17841,2.12195 -2.61869,4.01025 -2.49971,3.27729 -4.30911,4.17214 -5.67476,2.8065 z m 260.53441,-9.93897 c -1.59473,-1.1661 -1.53184,-1.31899 0.76025,-1.84822 1.37433,-0.31733 9.47379,-2.23002 17.99879,-4.25043 19.60882,-4.64723 23,-5.08081 23,-2.94064 0,0.99499 -0.85519,1.60867 -2.25,1.61458 -1.2375,0.005 -10.24211,1.96398 -20.01024,4.35275 -14.81034,3.62182 -18.04901,4.13206 -19.4988,3.07196 z m 58.27594,-13.40691 c -0.39444,-0.63822 -0.55961,-1.29815 -0.36704,-1.4665 0.72128,-0.63056 20.00565,-4.56084 22.37828,-4.56084 1.35952,0 2.47186,0.57242 2.47186,1.27204 0,2.27891 -23.22561,6.78997 -24.4831,4.7553 z m 52.71777,-19.52466 c -1.79594,-0.78046 -3.53158,-2.11285 -3.85699,-2.96085 -0.87658,-2.28433 -2.93061,-1.87309 -4.78572,0.95817 -0.96486,1.47257 -2.58753,2.5 -3.94835,2.5 -3.2265,0 -3.75152,-0.8666 -1.81028,-2.98807 0.91667,-1.00177 2.47518,-2.98927 3.46335,-4.41667 1.02828,-1.48532 2.739,-2.58575 4,-2.57302 2.55208,0.0258 6.13853,2.69392 7.02696,5.22776 0.85074,2.42636 3.92059,2.18736 6.42231,-0.5 2.49534,-2.68049 10.16578,-21.75633 14.25879,-35.4606 3.48703,-11.67528 7.77616,-32.24077 8.6113,-41.2894 0.32996,-3.575 0.8913,-9.2 1.24742,-12.5 0.6238,-5.78048 -0.49408,-14.65674 -2.17248,-17.25 -1.27497,-1.96994 -3.93424,-1.48159 -8.82633,1.62088 -4.38588,2.78145 -15.7662,15.10421 -20.86465,22.59254 -1.375,2.01952 -4.17668,5.77892 -6.22596,8.35422 -5.06061,6.35959 -15.01352,21.34762 -23.13613,34.84057 -3.69443,6.13702 -7.3599,11.40487 -8.1455,11.70633 -2.4926,0.9565 -2.6377,-1.1594 -0.38268,-5.58024 3.79366,-7.43725 20.34011,-32.84911 28.77699,-44.1954 4.4623,-6.00111 8.12047,-11.17611 8.12925,-11.5 0.0579,-2.13436 19.90874,-22.0319 22.67214,-22.72547 3.95131,-0.99171 9.20236,0.53977 10.93914,3.19044 2.77155,4.22992 3.92066,16.20156 2.6107,27.19876 -3.13355,26.30632 -8.92973,50.25804 -16.75746,69.24737 -7.76795,18.8443 -9.04517,20.06648 -17.24582,16.50268 z"
       id="path3252"
       style="fill:#000000" />
    <text
       x="821.10522"
       y="514.26202"
       id="text3254"
       xml:space="preserve"
       style="font-size:30px;font-style:italic;font-variant:normal;font-weight:bold;font-stretch:normal;line-height:125%;letter-spacing:0px;word-spacing:0px;fill:#000000;fill-opacity:1;stroke:none;font-family:URW Chancery L;-inkscape-font-specification:URW Chancery L Bold Italic"><tspan
         x="821.10522"
         y="514.26202"
         id="tspan3256"
         style="font-style:normal;font-variant:normal;font-weight:normal;font-stretch:normal;font-family:cmr10;-inkscape-font-specification:cmr10">Na'</tspan></text>
    <text
       x="806.34985"
       y="673.49878"
       id="text3254-4"
       xml:space="preserve"
       style="font-size:30px;font-style:italic;font-variant:normal;font-weight:bold;font-stretch:normal;line-height:125%;letter-spacing:0px;word-spacing:0px;fill:#000000;fill-opacity:1;stroke:none;font-family:URW Chancery L;-inkscape-font-specification:URW Chancery L Bold Italic"><tspan
         x="806.34985"
         y="673.49878"
         id="tspan3256-6"
         style="font-style:normal;font-variant:normal;font-weight:normal;font-stretch:normal;font-family:cmr10;-inkscape-font-specification:cmr10">CF5</tspan></text>
    <text
       x="794.22803"
       y="774.00897"
       id="text3254-6"
       xml:space="preserve"
       style="font-size:30px;font-style:italic;font-variant:normal;font-weight:bold;font-stretch:normal;line-height:125%;letter-spacing:0px;word-spacing:0px;fill:#000000;fill-opacity:1;stroke:none;font-family:URW Chancery L;-inkscape-font-specification:URW Chancery L Bold Italic"><tspan
         x="794.22803"
         y="774.00897"
         id="tspan3256-0"
         style="font-style:normal;font-variant:normal;font-weight:normal;font-stretch:normal;font-family:cmr10;-inkscape-font-specification:cmr10">SNA</tspan></text>
    <text
       x="760.06976"
       y="1068.4757"
       id="text3254-4-2"
       xml:space="preserve"
       style="font-size:30px;font-style:italic;font-variant:normal;font-weight:bold;font-stretch:normal;line-height:125%;letter-spacing:0px;word-spacing:0px;fill:#000000;fill-opacity:1;stroke:none;font-family:URW Chancery L;-inkscape-font-specification:URW Chancery L Bold Italic"><tspan
         x="760.06976"
         y="1068.4757"
         id="tspan3256-6-5"
         style="font-style:normal;font-variant:normal;font-weight:normal;font-stretch:normal;font-family:cmr10;-inkscape-font-specification:cmr10">Me'</tspan></text>
    <text
       x="649.96313"
       y="1069.486"
       id="text3254-4-8"
       xml:space="preserve"
       style="font-size:30px;font-style:italic;font-variant:normal;font-weight:bold;font-stretch:normal;line-height:125%;letter-spacing:0px;word-spacing:0px;fill:#000000;fill-opacity:1;stroke:none;font-family:URW Chancery L;-inkscape-font-specification:URW Chancery L Bold Italic"><tspan
         x="649.96313"
         y="1069.486"
         id="tspan3256-6-9"
         style="font-style:normal;font-variant:normal;font-weight:normal;font-stretch:normal;font-family:cmr10;-inkscape-font-specification:cmr10">Me</tspan></text>
    <text
       x="360.04932"
       y="882.1026"
       id="text3254-4-5"
       xml:space="preserve"
       style="font-size:30px;font-style:italic;font-variant:normal;font-weight:bold;font-stretch:normal;line-height:125%;letter-spacing:0px;word-spacing:0px;fill:#000000;fill-opacity:1;stroke:none;font-family:URW Chancery L;-inkscape-font-specification:URW Chancery L Bold Italic"><tspan
         x="360.04932"
         y="882.1026"
         id="tspan3256-6-0"
         style="font-style:normal;font-variant:normal;font-weight:normal;font-stretch:normal;font-family:cmr10;-inkscape-font-specification:cmr10">Go</tspan></text>
    <text
       x="192.73486"
       y="927.98303"
       transform="matrix(0.96718178,-0.25408543,0.25408543,0.96718178,0,0)"
       id="text3254-4-6"
       xml:space="preserve"
       style="font-size:30px;font-style:italic;font-variant:normal;font-weight:bold;font-stretch:normal;line-height:125%;letter-spacing:0px;word-spacing:0px;fill:#000000;fill-opacity:1;stroke:none;font-family:URW Chancery L;-inkscape-font-specification:URW Chancery L Bold Italic"><tspan
         x="192.73486"
         y="927.98303"
         id="tspan3256-6-08"
         style="font-style:normal;font-variant:normal;font-weight:normal;font-stretch:normal;font-family:cmr10;-inkscape-font-specification:cmr10">CF8</tspan></text>
  </g>
</svg>
