<?xml version="1.0" encoding="UTF-8" standalone="no"?>
<!-- Created with Inkscape (http://www.inkscape.org/) -->

<svg
   xmlns:dc="http://purl.org/dc/elements/1.1/"
   xmlns:cc="http://creativecommons.org/ns#"
   xmlns:rdf="http://www.w3.org/1999/02/22-rdf-syntax-ns#"
   xmlns:svg="http://www.w3.org/2000/svg"
   xmlns="http://www.w3.org/2000/svg"
   version="1.1"
   width="913.56744"
   height="1076.3781"
   id="svg3548">
  <defs
     id="defs3550" />
  <metadata
     id="metadata3553">
    <rdf:RDF>
      <cc:Work
         rdf:about="">
        <dc:format>image/svg+xml</dc:format>
        <dc:type
           rdf:resource="http://purl.org/dc/dcmitype/StillImage" />
        <dc:title></dc:title>
      </cc:Work>
    </rdf:RDF>
  </metadata>
  <g
     transform="translate(208.31471,54.730143)"
     id="layer1">
    <path
       d="m 547.76753,1014.3979 c 0.3183,-3.9875 0.87876,-9.3696 1.24547,-11.9603 l 0.66674,-4.7103 -4.37557,-2.6353 c -15.00621,-9.038 -20.97841,-12.7832 -31.54357,-19.7811 -25.13356,-16.6473 -51.5187,-34.6632 -64.83201,-44.2675 -4.95,-3.571 -10.575,-7.38608 -12.5,-8.47797 -1.925,-1.09189 -5.525,-3.28464 -8,-4.87279 -7.07931,-4.54261 -7.09986,-4.51885 -6.92854,8.01061 0.0831,6.08045 -0.12393,11.33045 -0.46015,11.66665 -1.50926,1.5093 -2.14569,-1.736 -2.61131,-13.31547 -0.58898,-14.64727 1.58061,-11.86959 -21.5,-27.5261 -8.25,-5.59631 -15.675,-10.7493 -16.5,-11.45109 -2.20005,-1.87147 -12.57025,-7.8908 -19.75,-11.46378 -3.4375,-1.71066 -6.25,-3.52772 -6.25,-4.03792 0,-0.5102 -0.40195,-0.92764 -0.89323,-0.92764 -0.49128,0 -6.22878,-3.07033 -12.75,-6.82296 -6.52122,-3.75263 -14.33177,-7.96431 -17.35677,-9.35929 -3.025,-1.39498 -13.44974,-8.22138 -23.1661,-15.16977 -16.90733,-12.09084 -25.14764,-19.64447 -28.52501,-26.14798 -0.85687,-1.65 -2.9995,-4.8 -4.7614,-7 -3.14221,-3.92354 -7.241,-11.05488 -9.77088,-17 -1.1467,-2.69471 -1.3062,-1.77884 -1.56735,9 -0.1599,6.6 0.15547,16.48464 0.70082,21.96586 0.54535,5.48122 0.75188,10.20551 0.45897,10.49842 -1.4097,1.4097 -3.22946,-3.68086 -3.15128,-8.81532 0.0473,-3.10693 -0.2043,-10.82396 -0.55914,-17.14896 -0.35485,-6.325 -0.86971,-17.125 -1.14414,-24 -0.27443,-6.875 -0.73018,-16.775 -1.01277,-22 -0.28259,-5.225 -0.72335,-13.775 -0.97947,-19 -0.25612,-5.225 -0.92729,-18.275 -1.49148,-29 -0.88584,-16.83941 -2.70239,-52.24639 -4.56613,-89 -1.48135,-29.21282 -3.69688,-76.31976 -3.88014,-82.5 -0.11416,-3.85 -0.72761,-15.55 -1.36323,-26 -0.63562,-10.45 -1.3909,-24.85 -1.67839,-32 -1.34049,-33.33795 -1.82104,-43.61036 -2.40921,-51.5 l -0.63367,-8.5 -4.5,-0.67588 c -2.475,-0.37173 -7.2574,-0.70923 -10.62756,-0.75 -3.97782,-0.0481 -6.53837,-0.56913 -7.29855,-1.48509 -1.74509,-2.10271 -0.30441,-2.39382 7.42611,-1.50057 3.85,0.44486 8.75746,0.83195 10.90547,0.86019 l 3.90546,0.0514 -0.65558,-14.75 c -0.36057,-8.1125 -0.87829,-19.25 -1.15051,-24.75 -0.52123,-10.53135 -2.17913,-46.05084 -3.05726,-65.5 -0.28558,-6.325 -0.9383,-19.6 -1.4505,-29.5 -0.51219,-9.9 -1.18426,-25.65 -1.49349,-35 -0.30923,-9.35 -0.98176,-24.65 -1.49453,-34 -0.95029,-17.32803 -1.54508,-29.85175 -2.51711,-53 -0.30024,-7.15 -0.76589,-17.05 -1.03477,-22 -0.26888,-4.95 -0.70917,-14.625 -0.97844,-21.5 -0.26926,-6.875 -0.6994,-16.549997 -0.95585,-21.499997 -0.25645,-4.95 -0.72127,-14.85 -1.03294,-22 -0.31166,-7.15 -0.7679,-16.375 -1.01387,-20.5 -0.24596,-4.125 -0.92348,-18.75 -1.50559,-32.5 -0.58211,-13.75 -1.23792,-26.8 -1.45736,-29 -0.21944,-2.20005 -0.69251,-11.42505 -1.05128,-20.50005 -0.35877,-9.075 -0.94695,-16.780573 -1.30708,-17.123495 -0.36012,-0.342922 -5.37977,-1.130631 -11.15477,-1.750464 -9.28763,-0.996845 -25.11707,-0.882516 -46,0.332237 -3.575,0.207957 -11.675,0.674214 -18,1.036127 -16.14056,0.923555 -29.00677,2.922632 -42.17378,6.552719 -6.22942,1.717425 -17.62622,4.845572 -25.32622,6.951438 -14.12753,3.863725 -22.75167,7.727787 -40,17.922077 -4.4,2.600535 -14.525,8.481338 -22.5,13.068451 -7.975,4.587114 -17.24211,10.263621 -20.59357,12.614459 -8.96541,6.288663 -28.7391,23.718301 -37.90643,33.412861 -4.4,4.65304 -8.225,8.69037 -8.5,8.97184 -2.61117,2.67255 -12.72289,14.7839 -13.5,16.16969 -1.59173,2.83844 -6.83033,10.15706 -8.83433,12.34206 -8.27294,9.02011 -34.33482,45.984057 -39.43354,55.929177 -1.42986,2.78895 -3.79322,6.87082 -5.25192,9.07082 -1.4587,2.2 -3.3298,5.35 -4.15799,7 -4.18955,8.34677 -6.52737,12.50969 -10.00779,17.82071 -2.09794,3.2014 -3.81443,6.36377 -3.81443,7.0275 0,0.66373 -0.60914,2.09441 -1.35365,3.17928 -0.7445,1.08488 -2.9436,5.57251 -4.88688,9.97251 -3.36522,7.61957 -5.20677,11.98417 -14.76752,35 -2.2847,5.5 -4.94522,11.8 -5.91227,14 -12.71479,28.92565 -23.05564,65.31544 -27.13812,95.5 -0.48352,3.575 -1.14931,8.3 -1.47952,10.5 -0.33021,2.2 -0.80699,6.7 -1.05951,10 -0.25252,3.3 -0.68856,8.25 -0.96898,11 -0.65907,6.46341 -0.66241,8.60448 -0.0144,9.25247 0.28953,0.28953 6.12947,1.02947 12.97765,1.64432 12.47743,1.12025 14.82849,1.77793 12.97642,3.63 -0.64213,0.64213 -2.74038,0.66672 -5.93333,0.0695 -2.71694,-0.50813 -8.53988,-1.07086 -12.93988,-1.25049 l -8,-0.32659 -0.34852,3.99039 c -0.34374,3.93566 1.13831,16.71841 2.95538,25.4904 0.96969,4.68121 1.07028,5.25569 2.82053,16.10842 1.23358,7.64904 6.77804,26.9431 8.14442,28.34158 0.5105,0.5225 0.93096,1.6475 0.93435,2.5 0.003,0.8525 0.74338,2.9 1.64443,4.55 0.90105,1.65 3.50887,6.6 5.79515,11 2.28629,4.4 6.15879,11.50845 8.60557,15.79655 2.44678,4.2881 5.46533,9.61743 6.7079,11.84294 3.27603,5.8676 8.16096,11.8706 24.16007,29.68992 12.15851,13.54178 18.96193,20.138 27.50839,26.67059 2.15866,1.65 8.28096,6.825 13.6051,11.5 13.90992,12.21396 15.63911,13.63409 19.52717,16.03705 1.92121,1.18737 4.04367,2.68866 4.71658,3.33621 4.48326,4.31427 36.45569,23.93421 48.24942,29.60834 10.41039,5.0086 21.42168,7.7177 34.47406,8.48164 11.58332,0.67796 17.26618,1.22231 27,2.58631 3.575,0.50096 9.57931,0.91975 13.34292,0.93064 12.11948,0.0351 41.37502,7.30918 45.33891,11.27307 3.33967,3.33967 0.24568,3.57344 -8.21991,0.62107 -13.09072,-4.5654 -22.82325,-6.78923 -32.30669,-7.3819 -8.02397,-0.50146 -20.99932,-1.66647 -22.15523,-1.98923 -0.275,-0.0768 -5.45,-0.46654 -11.5,-0.86611 -27.12407,-1.79141 -32.80228,-2.98231 -46.78423,-9.81206 -25.01212,-12.21767 -49.39004,-28.52995 -72.21577,-48.3226 -8.25,-7.15373 -17.025,-14.58081 -19.5,-16.50461 -4.084,-3.17447 -14.83002,-13.82596 -22.5,-22.30209 -10.65076,-11.7702 -16.31613,-18.3791 -18.5,-21.58104 -1.375,-2.016 -3.50735,-4.74586 -4.73856,-6.06636 -1.23121,-1.32049 -2.52339,-3.29832 -2.87152,-4.39516 -0.34812,-1.09684 -2.15327,-4.37089 -4.01144,-7.27568 -1.85816,-2.90478 -3.37848,-5.54965 -3.37848,-5.87749 0,-0.32784 -1.49126,-2.93696 -3.3139,-5.79804 -6.41866,-10.07561 -15.26384,-30.80212 -18.00999,-42.20196 -5.24054,-21.75458 -10.33341,-53.65181 -9.27997,-58.12147 0.37314,-1.58319 1.08686,-9.17853 1.58605,-16.87853 0.49919,-7.7 1.58607,-18.95 2.41529,-25 2.47468,-18.05526 9.24475,-49.17557 13.48779,-62 2.18365,-6.6 4.71721,-14.25 5.63012,-17 0.91292,-2.75 3.82314,-10.175 6.46716,-16.5 2.64402,-6.325 6.18149,-14.875 7.86105,-19 7.92323,-19.45949 11.85879,-28.3848 18.26097,-41.41343 3.80712,-7.74761 7.34293,-14.76157 7.85733,-15.58657 0.51441,-0.825 3.37397,-6 6.35457,-11.5 11.78355,-21.74375 15.51263,-28.11968 23.39472,-40 7.40767,-11.16523 13.49197,-19.450667 22.78881,-31.033167 4.4,-5.48176 9.29888,-11.99183 10.8864,-14.46683 5.45927,-8.51118 24.64404,-30.37863 35.08924,-39.99591 21.38153,-19.686738 25.93223,-23.209981 43.52436,-33.697402 39.03838,-23.272448 56.82449,-32.855338 62.86054,-33.868318 3.98044,-0.668003 27.94403,-6.801475 35.13946,-8.993929 10.17194,-3.099401 24.07492,-5.472915 35,-5.975194 3.575,-0.16436 14.41206,-0.811574 24.08236,-1.438253 27.01404,-1.750631 35.52802,-1.832852 46.91764,-0.453089 5.775,0.699596 16.125,1.766865 23,2.371708 6.875,0.604843 16.775,1.547207 22,2.094142 5.225,0.546935 16.25,1.646043 24.5,2.442461 8.25,0.796419 18.6,2.107761 23,2.914095 4.4,0.806334 10.475,1.684468 13.5,1.95141 18.31905,1.61657 49.67601,6.96399 59.5,10.14676 4.4,1.425509 12.95,4.093584 19,5.929056 11.02511,3.344838 20.31817,6.887964 43.54486,16.602159 17.76659,7.430596 19.42708,8.198344 39.95514,18.473713 16.46795,8.243074 28.57994,14.872238 31.5,17.240655 0.55,0.446097 4.75398,3.498676 9.34217,6.783506 30.8169,22.0628 41.7782,31.53137 59.94997,51.78589 17.01114,18.960877 25.72982,31.252787 39.16534,55.216767 5.48568,9.78441 17.06433,33.14319 21.5474,43.46977 1.55202,3.575 4.71735,10.55 7.03408,15.5 2.31672,4.95 4.5558,10.125 4.97573,11.5 0.41993,1.375 4.08412,9.43398 8.14265,17.90885 4.05853,8.47487 8.10026,17.92487 8.98162,21 0.88137,3.07513 1.95525,6.04115 2.38641,6.59115 0.43116,0.55 2.57931,6.4 4.77365,13 4.66176,14.02131 4.70872,14.37894 7.24353,55.16033 1.10727,17.81438 0.91013,34.50119 -0.51635,43.70777 -1.0679,6.89223 -4.54421,20.86379 -5.98119,24.03888 -0.76991,1.70116 -3.41414,7.43942 -5.87605,12.75169 -2.46191,5.31226 -4.80362,10.71226 -5.20378,12 -0.40016,1.28773 -1.60689,3.58966 -2.68161,5.1154 -2.37994,3.37871 -9.78357,20.25244 -9.78357,22.2979 0,2.83476 5.72804,13.97586 9.84499,19.14861 2.28525,2.87132 4.15501,5.4141 4.15501,5.65061 0,0.23652 3.6364,5.31226 8.0809,11.27942 8.72587,11.71533 14.98469,21.49038 26.83719,41.91443 10.9502,18.86922 12.47618,21.96513 11.75413,23.84677 -1.10383,2.87651 -3.90615,0.27679 -7.63197,-7.0802 -1.90287,-3.75739 -4.20506,-7.95661 -5.11599,-9.33161 -0.91092,-1.375 -3.37295,-5.65 -5.47116,-9.5 -2.09821,-3.85 -5.19602,-9.03361 -6.88402,-11.51913 -1.68799,-2.48552 -3.92372,-6.08552 -4.96828,-8 -2.14266,-3.9271 -12.75882,-18.68489 -22.8386,-31.74852 -4.0895,-5.3001 -7.75958,-11.38544 -9.33742,-15.48235 -1.4298,-3.7125 -2.89779,-6.72566 -3.2622,-6.69591 -1.9064,0.15564 -11.63928,7.78021 -11.50085,9.00958 0.0889,0.78998 1.32645,7.01071 2.75,13.82385 2.98361,14.27962 3.11548,16.11248 1.15923,16.11248 -1.56825,0 -3.23894,-5.34146 -5.92428,-18.94082 -2.04172,-10.33991 -3.75584,-13.29729 -7.4593,-12.86956 -2.47212,0.28552 -2.75467,0.79099 -3.52745,6.31038 -0.46203,3.3 -1.94989,13.2 -3.30635,22 -1.35646,8.8 -3.54702,25.225 -4.86792,36.5 -1.3209,11.275 -3.10815,26.35 -3.97167,33.5 -0.86352,7.15 -1.77253,14.8 -2.02001,17 -1.51169,13.43778 -2.61355,23.03154 -3.503,30.5 -0.55676,4.675 -1.46923,13 -2.02771,18.5 -0.55847,5.5 -1.20878,11.575 -1.44512,13.5 -0.23634,1.925 -0.68203,5.75 -0.99042,8.5 -0.30839,2.75 -1.67829,14.84501 -3.04422,26.87781 -1.36593,12.03279 -2.48351,23.38415 -2.48351,25.22525 0,3.24556 0.0837,3.31474 2.75,2.27298 3.28072,-1.28181 17.69959,-0.41963 26.6377,1.59281 3.36176,0.75692 10.3873,1.87515 15.6123,2.48498 13.45522,1.57039 18,2.8773 18,5.17613 0,1.02852 -0.56612,1.87004 -1.25803,1.87004 -2.59366,0 -13.26791,10.83699 -15.89994,16.14236 -5.57184,11.23109 -7.06507,18.7909 -7.07285,35.80789 -0.007,14.3642 0.19611,16.13152 2.53232,22.0818 1.39671,3.55737 3.13614,9.16795 3.86542,12.46795 1.81909,8.2314 1.53959,36.69621 -0.45515,46.35356 -1.72496,8.35126 -2.97908,10.32338 -5.15325,8.10358 -1.23261,-1.25847 -1.23513,-2.1892 -0.0185,-6.82629 4.95675,-18.892 3.38221,-49.79563 -2.88143,-56.55422 -1.46223,-1.57777 -2.6586,-3.63297 -2.6586,-4.56711 0,-0.93414 -1.09659,-2.97463 -2.43688,-4.53441 -1.34028,-1.55979 -2.70582,-3.99228 -3.03453,-5.40554 -1.55487,-6.68514 -12.68037,-28.06957 -14.6035,-28.06957 -1.67035,0 -1.47333,12.49428 0.67016,42.5 2.65349,37.14485 2.44179,36.2557 10.4465,43.87706 3.56645,3.39566 6.22647,6.93411 6.99253,9.30171 0.68001,2.10168 2.12282,5.58359 3.20625,7.73758 1.95677,3.89034 1.95683,3.92688 0.008,5.5 -1.50141,1.2122 -2.00942,2.99099 -2.16585,7.58365 -0.22638,6.64647 -2.7767,13.08435 -7.23421,18.26165 -3.32406,3.86083 -11.74416,21.03763 -14.8229,30.23835 -3.7131,11.09651 -5.04802,47.2561 -2.43049,65.8357 2.11928,15.0429 -17.23943,29.9571 -37.17396,28.6394 -7.08303,-0.4682 -6.64151,-1.0265 -7.92759,10.0249 -1.08957,9.3628 -1.58375,11.5 -2.6591,11.5 -0.72051,0 -0.88389,-2.3888 -0.49585,-7.25 z m 27.66106,-21.5635 c 5.65658,-2.7829 9.89814,-6.5263 13.37904,-11.8077 2.58009,-3.9146 2.67624,-4.4909 1.91859,-11.5 -0.4387,-4.0583 -0.74151,-17.5038 -0.67292,-29.8788 0.10304,-18.58903 0.4741,-24.05099 2.13472,-31.4229 2.27734,-10.10965 2.19423,-10.08814 -5.49684,1.4229 -5.15566,7.71634 -13.8877,18.33255 -21.51844,26.1616 l -6.49287,6.6616 -0.72816,8.8384 c -0.40048,4.8611 -1.46952,15.5884 -2.37564,23.8384 -0.90611,8.25 -1.50077,16.2823 -1.32146,17.8495 l 0.32603,2.8495 8.17397,-0.3993 c 5.78771,-0.2828 9.48769,-1.0456 12.67398,-2.6132 z m -22.5345,-19.1865 c 3.61101,-30.1446 3.80013,-33.7417 1.93958,-36.8914 -1.70623,-2.8884 -1.38276,-6.3824 1.16369,-12.56947 1.40842,-3.42203 -6.21012,5.77457 -8.45401,10.20507 -2.72456,5.3797 -5.83592,18.5451 -6.67761,28.2558 -0.53528,6.1755 -0.28496,8.5339 1.41745,13.3546 2.29105,6.4875 6.9291,13.276 8.18498,11.98 0.44482,-0.459 1.53648,-6.9096 2.42592,-14.3346 z m -14.67665,5.75 c -2.8595,-6.927 -2.96726,-7.7177 -2.41921,-17.75 0.67388,-12.3357 5.48833,-28.3285 10.62698,-35.30103 l 3.09459,-4.19897 -2.79561,-0.5 c -2.94372,-0.52649 -6.291,-5.58009 -6.29405,-9.50252 -8.5e-4,-1.10139 2.02345,-7.27736 4.49845,-13.72438 2.475,-6.44703 4.51431,-12.5209 4.5318,-13.49748 0.0175,-0.97659 0.6925,-2.64913 1.5,-3.71675 0.80751,-1.06762 1.45452,-2.86762 1.43779,-4 -0.0264,-1.79039 -0.15533,-1.84494 -0.98844,-0.41831 -3.26162,5.58526 -19.55716,22.44118 -23.12305,23.91822 -2.60185,1.07772 -3.33067,0.97992 -5.67179,-0.76105 -5.24585,-3.90107 -4.04392,-11.92705 4.53721,-30.29773 6.75477,-14.46077 7.08404,-15.20761 8.59709,-19.5 0.7755,-2.2 1.76503,-4.9 2.19896,-6 0.61676,-1.56346 0.10049,-1.35892 -2.3653,0.93709 -1.73485,1.6154 -3.15427,3.32281 -3.15427,3.79424 0,0.47142 -3.47589,5.89973 -7.7242,12.0629 -8.89203,12.89998 -8.21941,11.99243 -12.75184,17.20577 -1.91265,2.2 -3.488,4.3008 -3.50076,4.66844 -0.0128,0.36764 -1.53882,1.60514 -3.39123,2.75 -4.8156,2.9762 -9.71304,2.72658 -13.11431,-0.66844 -2.56776,-2.56304 -2.71664,-3.1634 -2.18981,-8.83059 0.31089,-3.34432 1.20906,-7.94923 1.99593,-10.23313 1.61267,-4.68082 0.79782,-4.53762 -3.75388,0.65972 -5.06722,5.78599 -8.91529,9.07674 -11.78501,10.07816 -2.35256,0.82096 -3.03636,0.5657 -5.12091,-1.91165 -3.39553,-4.03536 -2.67388,-9.80756 2.86937,-22.95113 1.93521,-4.58854 3.32036,-8.54101 3.07811,-8.78325 -0.39447,-0.39447 -8.91549,6.14893 -14.11146,10.83638 -4.70626,4.24567 -11.02881,9.10759 -13.51685,10.3942 -2.34236,1.21129 -3.11043,1.17194 -6.07165,-0.311 -4.55911,-2.28316 -5.66322,-5.7219 -3.45828,-10.77085 1.83742,-4.20737 1.86772,-4.26695 7.09269,-13.94399 4.2224,-7.8202 4.66065,-11.47467 0.8374,-6.98287 -8.90033,10.45666 -12.0158,13.57225 -14.97672,14.9773 -2.95072,1.40021 -3.72861,1.41499 -6.80569,0.12931 -7.30993,-3.05429 -7.02063,-11.99058 0.93839,-28.98602 2.00233,-4.27572 3.4637,-7.95094 3.24748,-8.16715 -1.04805,-1.04805 -11.72994,11.82013 -12.63501,15.22106 -0.73766,2.77184 2.30322,75.90066 3.31934,79.8255 0.46561,1.79844 3.52519,4.1217 14.5289,11.03234 7.28936,4.57792 20.72643,13.68436 26.5,17.95926 9.45574,7.0013 12.23538,8.9445 36,25.1669 15.84532,10.8165 41.48749,27.2356 42.64084,27.3037 0.35246,0.021 -0.70594,-3.2247 -2.35199,-7.2122 z m 41.71964,-68.13396 c 1.86921,-2.81382 6.35335,-9.16604 9.96476,-14.11604 3.61142,-4.95 7.65036,-10.62792 8.97544,-12.61759 1.32508,-1.98968 4.8037,-6.20053 7.73027,-9.35745 7.48298,-8.07197 8.86399,-11.1833 9.53056,-21.47183 0.64995,-10.03217 -0.15749,-11.40372 -4.39041,-7.45767 -4.17575,3.89276 -10.97016,8.40454 -12.65662,8.40454 -1.50895,0 -10.66249,9.51343 -10.66249,11.08172 0,0.47598 -1.61612,4.13981 -3.59137,8.14185 -1.97526,4.00203 -4.49093,9.97643 -5.59038,13.27643 -1.09945,3.3 -3.30833,9.00043 -4.90862,12.66761 -1.6003,3.66719 -2.90963,7.24079 -2.90963,7.94134 0,0.70055 -2.25,5.86931 -5,11.48613 -2.75,5.61682 -4.98168,10.81822 -4.95928,11.55862 0.0554,1.8307 14.24537,-13.18145 18.46777,-19.53766 z m -25.74293,-0.70343 c 3.43211,-3.34806 6.44826,-7.06056 6.70256,-8.25 0.2543,-1.18943 1.19544,-8.91174 2.09142,-17.16068 0.89598,-8.24894 1.75532,-15.22394 1.90963,-15.5 0.15431,-0.27606 -0.0516,-1.40193 -0.45758,-2.50193 -0.60401,-1.63657 -1.31341,-0.73664 -3.90394,4.95244 -1.74119,3.82384 -3.86029,8.99884 -4.70912,11.5 -0.84883,2.50116 -2.15765,5.89756 -2.90849,7.54756 -6.96639,15.30878 -9.23178,25.5 -5.66834,25.5 0.38702,0 3.51176,-2.73932 6.94386,-6.08739 z M 416.86913,892.6479 c -0.17026,-4.125 -0.58636,-15.825 -0.92467,-26 -0.79616,-23.94543 -1.48746,-36.30492 -2.06281,-36.88027 -0.25352,-0.25352 -1.47167,0.42382 -2.707,1.50521 -1.23533,1.08139 -3.46316,2.57329 -4.95072,3.31533 -2.34047,1.16749 -3.04527,1.12599 -5.23413,-0.3082 -3.51664,-2.3042 -4.2396,-6.1306 -2.1919,-11.60106 0.93283,-2.49205 4.48264,-12.18101 7.88847,-21.53101 6.84957,-18.80404 6.52146,-16.02307 5.25028,-44.5 -0.20869,-4.675 -0.40837,-9.9625 -0.44374,-11.75 -0.076,-3.84269 -1.45934,-4.1144 -6.85416,-1.3463 -4.27324,2.19262 -13.72497,11.25621 -15.67554,15.03181 -2.34921,4.54725 -5.53462,15.29986 -5.53462,18.68259 0,7.78377 4.692,11.3819 14.84211,11.3819 8.67566,0 9.26981,2.95918 0.90789,4.5218 -9.01618,1.68489 -16.57376,-3.21639 -18.80376,-12.1947 -1.11347,-4.48301 -1.05434,-6.02438 0.44338,-11.55739 3.86792,-14.28925 14.43754,-27.1549 25.6091,-31.17214 l 5.23691,-1.88316 -0.60788,-8.60721 c -1.0747,-15.21719 -1.65937,-28.84321 -3.15836,-73.6072 -0.27626,-8.25 -0.72297,-17.475 -0.99268,-20.5 -1.44848,-16.2457 -2.77475,-28.39072 -4.96873,-45.5 -1.34004,-10.45 -2.69242,-21.475 -3.00531,-24.5 -1.20916,-11.69054 -1.65237,-14.52637 -2.38689,-15.27235 -1.05276,-1.0692 -9.25422,2.67315 -17.61578,8.03814 -3.85,2.47025 -7.225,4.78726 -7.5,5.1489 -0.45326,0.59606 -13.69073,8.6965 -18.46185,11.29739 -13.81358,7.53025 -20.39628,9.78792 -28.53872,9.78792 -3.33502,0 -7.59689,-0.64062 -9.47084,-1.42361 -7.66025,-3.20065 -20.08745,-14.34026 -24.31632,-21.79689 -3.39763,-5.99092 -6.12319,-16.66518 -6.53793,-25.60486 -0.43247,-9.32189 -1.70337,-11.85466 -8.16452,-16.27115 -4.25705,-2.90989 -11.53815,-3.70931 -17.09148,-1.87654 -3.94248,1.30114 -10.76122,8.46458 -12.87672,13.52768 -2.18322,5.22519 -2.01614,17.75305 0.32762,24.56531 2.01249,5.8494 3.02004,11.34958 6.20629,33.88006 6.36308,44.99432 7.32309,82.94298 3.32663,131.5 -0.58127,7.06248 -0.50163,43.8369 0.10553,48.72983 0.59737,4.81399 4.25152,14.45117 8.82341,23.27017 0.57026,1.1 1.71802,3.35 2.55059,5 2.71785,5.38628 14.13554,19.70667 20.11831,25.23295 3.11024,2.87293 13.60263,10.46394 28.5,20.61914 4.65198,3.17114 15.62767,9.27309 25,13.89877 2.2,1.0858 5.35,2.97339 7,4.19464 3.63939,2.69369 14.34376,8.94369 24.5,14.30489 4.125,2.17747 12.675,7.58283 19,12.01189 24.59796,17.22466 24.44702,17.13236 25.12505,15.36603 0.34378,-0.89557 0.48575,-5.00331 0.31549,-9.12831 z m 154.00022,-2.5 c 1.97053,-2.75 4.42093,-6.8 5.44535,-9 10.75271,-23.09227 13.30502,-27.03791 19.51233,-30.16431 5.30021,-2.66953 15.42685,-10.72058 16.55348,-13.16063 1.59095,-3.44564 0.21071,-4.67647 -2.44567,-2.18093 -1.48817,1.39806 -2.09686,2.85536 -1.74872,4.18667 0.47204,1.80507 0.19556,1.96781 -2.3816,1.40177 -2.58953,-0.56876 -3.04705,-0.29222 -4.09061,2.47247 -1.63802,4.33964 -4.91809,3.75281 -4.4759,-0.80077 0.2626,-2.70421 -0.0786,-3.28373 -2.25506,-3.82998 -2.99753,-0.75234 -14.17763,2.06026 -18.40246,4.62953 -4.14641,2.52158 -7.8943,10.93663 -8.66095,19.44618 -0.34685,3.85 -1.27421,11.85297 -2.06079,17.78438 -0.78659,5.93141 -1.43016,12.21534 -1.43016,13.96429 0,3.76397 0.72289,3.231 6.44076,-4.74867 z m -35.70888,-1.66854 c 2.83043,-2.9323 6.17842,-6.68146 7.43997,-8.33146 1.26155,-1.65 3.87647,-4.72705 5.81094,-6.83788 1.93446,-2.11083 3.92463,-4.58583 4.42259,-5.5 0.49796,-0.91417 3.02773,-4.36212 5.62171,-7.66212 7.59351,-9.66027 9.69599,-14.6947 10.30801,-24.68269 0.40391,-6.59172 0.20643,-8.95292 -0.82006,-9.80483 -2.22947,-1.8503 -10.73951,-1.56673 -13.83418,0.46097 -2.63991,1.72974 -7.56332,10.91941 -12.73885,23.77739 -1.16208,2.88704 -4.77012,10.87416 -8.01786,17.74916 -7.20548,15.25293 -8.92415,20.09675 -8.92415,25.15141 l 0,3.89995 2.79282,-1.44422 c 1.53605,-0.79432 5.10862,-3.84338 7.93906,-6.77568 z M 505.83543,878.3979 c 4.27134,-4.38093 6.89548,-7.69131 10.89966,-13.75 11.86278,-17.94945 26.97282,-38.86888 29.0217,-40.17973 1.72047,-1.10073 -2.41083,-7.66813 -6.24962,-9.93484 -5.0608,-2.98827 -12.01924,-3.57225 -14.84073,-1.2455 -1.96995,1.62453 -6.62562,9.65649 -16.14888,27.86007 -8.7941,16.80981 -15.05651,32.4193 -15.07815,37.58333 -0.0142,3.38279 0.63841,3.91667 4.78743,3.91667 2.75971,0 4.30826,-0.86499 7.60859,-4.25 z m -23.52667,-13 c 6.97045,-7.32764 15.94456,-18.8144 21.23853,-27.18506 2.79091,-4.41292 3.51888,-6.3736 2.83845,-7.645 -0.62596,-1.16962 -0.47852,-2.07228 0.46662,-2.85667 0.97437,-0.80866 1.48844,-0.82664 1.74366,-0.061 0.50196,1.50588 9.83257,-14.66895 9.83257,-17.04498 0,-1.05916 -1.2375,-3.30427 -2.75,-4.98912 -2.20298,-2.45401 -4.21894,-3.36606 -10.13476,-4.58512 -5.63727,-1.16166 -8.6167,-2.45189 -12.59087,-5.45242 -8.53757,-6.44593 -13.31777,-4.97829 -20.35953,6.25091 -10.35356,16.51038 -13.28737,21.64799 -15.79681,27.66294 -1.52717,3.66052 -4.11034,9.1305 -5.74037,12.1555 -7.67129,14.23632 -9.24585,19 -6.28016,19 1.62143,0 16.74096,-11.32986 21.6525,-16.22535 1.925,-1.91871 5.525,-6.22622 8,-9.57225 4.72389,-6.38638 8.71075,-8.51727 11.54096,-6.16841 2.36726,1.96466 1.7554,4.49539 -3.98452,16.48051 -7.811,16.30959 -10.53466,26.4855 -7.08902,26.4855 0.80707,0 4.14281,-2.8125 7.41275,-6.25 z m -47.63334,-25.5 c 15.05252,-16.10107 28.36491,-35.48456 31.2383,-45.48446 2.27223,-7.90774 2.1968,-11.1172 -0.32487,-13.82389 -1.17556,-1.26182 -2.38172,-3.06404 -2.68035,-4.00494 -0.29863,-0.9409 -4.12847,-3.44907 -8.51076,-5.57371 -4.38229,-2.12465 -7.96811,-4.24087 -7.96848,-4.70271 -0.002,-1.88922 -4.72249,-4.59582 -8.07067,-4.62702 -4.40635,-0.0411 -9.73175,4.23499 -15.22601,12.22581 -5.05408,7.35062 -7.34365,14.00012 -7.14157,20.74092 0.0907,3.025 0.22624,8.97338 0.30123,13.21862 0.1547,8.75726 0.94801,9.17927 5.61022,2.98446 3.40756,-4.52773 9.25903,-9.20308 11.51818,-9.20308 0.91849,0 2.27254,1.12588 3.00899,2.50195 1.18077,2.20628 1.05794,3.12215 -1.03939,7.75 -1.30812,2.88643 -3.16252,6.41147 -4.1209,7.83343 -3.36292,4.98963 -7.01647,21.40557 -5.17408,23.24795 1.68966,1.68966 5.34654,0.37554 8.58016,-3.08333 z m 138.35942,-5.03125 c 0.41981,-2.09907 0.25241,-3.21875 -0.48125,-3.21875 -0.61875,0 -1.125,1.0882 -1.125,2.41821 0,1.33002 -0.29123,3.24252 -0.64718,4.25 -0.46778,1.32402 -0.33438,1.54593 0.48125,0.80054 0.62064,-0.56719 1.41812,-2.47969 1.77218,-4.25 z m 21.11109,-4.43651 c 1.21954,-1.13823 2.93519,-4.23074 3.81255,-6.87225 1.35595,-4.08237 1.4246,-6.0482 0.45767,-13.10636 -0.62565,-4.567 -1.3957,-8.97863 -1.71124,-9.80363 -0.31553,-0.825 -0.47452,-2.51294 -0.35331,-3.75097 0.12121,-1.23804 -0.48003,-6.41304 -1.33608,-11.5 -0.85604,-5.08697 -1.98866,-12.84903 -2.51691,-17.24903 -1.70276,-14.18279 -4.81783,-26.41157 -7.55716,-29.66709 -1.38207,-1.6425 -2.51286,-2.68635 -2.51286,-2.31967 0,0.36668 -1.13324,11.0887 -2.5183,23.82672 -2.15891,19.8548 -3.51476,30.75737 -6.04477,48.60661 -0.26869,1.89561 -0.52573,6.08965 -0.5712,9.32008 -0.0959,6.81573 1.64124,9.34663 9.13427,13.3077 5.04653,2.66777 8.24173,2.45176 11.71734,-0.79211 z m 14.09383,-0.052 c 0.17114,-0.8822 -0.8583,-2.37026 -2.28763,-3.3068 -2.47079,-1.61892 -2.66927,-1.60971 -4.02937,0.18687 -1.9493,2.57488 -1.84189,3.38967 0.44681,3.38967 1.06754,0 2.23378,0.47375 2.59164,1.05279 0.892,1.44328 2.89906,0.63367 3.27855,-1.32253 z m -197.93853,-5.20792 c 4.54887,-4.93494 4.69332,-5.91279 3.25315,-22.02234 l -0.62579,-7 -3.4372,10.43594 c -1.89047,5.73976 -4.44697,12.92039 -5.68112,15.95695 -1.23415,3.03656 -2.02335,5.87789 -1.75378,6.31406 1.1811,1.91106 4.42182,0.46277 8.24474,-3.68461 z m 157.12736,-7.08134 c 0,-0.85746 -0.45,-1.2809 -1,-0.94098 -0.55,0.33992 -1,1.04148 -1,1.55902 0,0.51754 0.45,0.94098 1,0.94098 0.55,0 1,-0.70156 1,-1.55902 z m -6.06809,-2.34535 c 1.13745,-1.5974 2.06809,-3.24947 2.06809,-3.67126 0,-0.42179 0.74048,-1.58511 1.64551,-2.58516 1.38154,-1.52658 1.76363,-5.62613 2.3818,-25.55497 0.40496,-13.05518 0.57084,-24.1974 0.36862,-24.76047 -0.20221,-0.56307 -0.55214,-6.72838 -0.77761,-13.70068 -0.42326,-13.0886 -0.78537,-14.82309 -3.09463,-14.82309 -1.71785,0 -5.61428,10.9983 -9.03404,25.5 -1.55356,6.58799 -7.7306,28.55378 -10.82666,38.5 -2.49555,8.01709 -0.85283,15.69233 4.36817,20.40918 5.20546,4.70283 9.86431,4.95072 12.90075,0.68645 z M 536.45271,803.8901 c 1.08674,-1.38155 1.97588,-3.56676 1.97588,-4.856 0,-1.28925 1.13646,-5.72954 2.52546,-9.86732 1.38901,-4.13777 2.72422,-10.55975 2.96714,-14.27105 0.53456,-8.16703 2.55608,-25.51423 3.07046,-26.34846 0.87976,-1.4268 1.41639,-19.89937 0.57808,-19.89937 -0.50229,0 -1.66133,1.6875 -2.57564,3.75 -0.91431,2.0625 -2.1422,4.61403 -2.72863,5.67007 -2.4818,4.46919 -13.83687,27.60395 -13.83687,28.19117 0,0.35277 -2.45996,6.32205 -5.46658,13.26508 -6.59753,15.23534 -7.08513,18.89461 -3.07541,23.07986 2.8666,2.99208 9.25698,5.10213 12.81611,4.23178 0.97577,-0.23861 2.66327,-1.5642 3.75,-2.94576 z m -26.52412,-8.00751 c 1.49478,-1.0982 9.35227,-17.45827 12.55083,-26.13206 1.54195,-4.18145 4.34787,-10.75263 6.23537,-14.60263 4.3227,-8.81716 5.0598,-11.16813 3.75448,-11.97486 -0.57238,-0.35375 -1.04068,-3.76662 -1.04068,-7.58416 0,-4.57139 -0.3933,-6.94098 -1.15205,-6.94098 -1.5002,0 -7.70551,6.75937 -14.01163,15.2627 -2.75839,3.71948 -5.84541,7.20698 -6.86005,7.75 -3.14567,1.68351 -6.9585,1.09598 -9.52172,-1.46725 -3.19494,-3.19493 -3.28034,-10.07462 -0.28683,-23.10645 3.12265,-13.59398 2.13635,-13.62149 -7.18294,-0.20031 -2.19163,3.15628 -3.98478,6.04866 -3.98478,6.42751 0,0.37885 -1.39825,4.48506 -3.10722,9.1249 -3.12886,8.49482 -4.9243,11.67308 -10.7484,19.02661 -1.745,2.20324 -3.85649,5.64236 -4.69219,7.64248 -1.39447,3.33743 -1.37274,3.85918 0.26417,6.34249 0.981,1.48825 2.28158,3.60397 2.89016,4.70161 0.73449,1.32471 3.55863,2.66816 8.3996,3.99571 5.54403,1.52036 8.41443,3.00154 11.96888,6.17617 5.66149,5.05651 13.58197,7.72072 16.525,5.55852 z m -32.5,-8.30515 c 0,-0.38295 -0.9964,-0.95684 -2.21422,-1.27531 -2.6246,-0.68635 -3.74939,0.74046 -3.77047,4.78286 l -0.0153,2.93709 3,-2.87418 c 1.65,-1.5808 3,-3.18751 2.99999,-3.57046 z M 420.43436,769.6479 c 4.16732,-5.5785 8.29794,-9.5713 11.79985,-11.40614 l 2.68013,-1.40426 -5.50043,-2.43255 c -5.12163,-2.26503 -10.98532,-7.97126 -10.98532,-10.69033 0,-1.39657 -2.68904,-1.37889 -3.55568,0.0234 -0.80928,1.30944 -0.6667,21.63625 0.19454,27.73508 0.33593,2.37885 0.92454,3.95385 1.30802,3.5 0.38349,-0.45385 2.20999,-2.85018 4.05889,-5.32518 z m 43.79146,-3.48284 c 2.89206,-2.4335 10.20277,-17.51597 10.20277,-21.04896 0,-0.92671 1.56962,-6.47367 3.48806,-12.32657 7.09741,-21.65336 6.95899,-21.09817 5.58988,-22.41968 -1.00792,-0.97287 -2.5208,0.18837 -7.42196,5.69686 -16.00758,17.99118 -18.38191,19.7124 -22.08455,16.00976 -2.35187,-2.35187 -1.9146,-7.60927 1.47414,-17.72399 4.06861,-12.14397 4.68358,-16.85455 2.44315,-18.71394 -1.53957,-1.27773 -1.98041,-1.11215 -4.0968,1.53878 -1.30437,1.63382 -4.28866,6.49743 -6.63175,10.80803 -4.59605,8.45538 -7.7491,13.43466 -15.083,23.81907 -2.58561,3.66108 -5.3581,8.22894 -6.1611,10.15078 -1.34689,3.22355 -1.30634,3.68961 0.52341,6.01576 1.22513,1.5575 4.55963,3.37626 8.72196,4.75728 5.56969,1.84797 7.72978,3.26248 12.453,8.1547 5.05135,5.23209 8.55767,7.39321 12.45883,7.67901 0.64531,0.0473 2.50109,-1.03133 4.12396,-2.39689 z m 113.59784,-15.8257 c 2.01602,-18.46735 2.02018,-18.73957 0.24681,-16.16397 -1.90856,2.77196 -2.52162,7.07453 -3.13082,21.97251 -0.68109,16.65605 0.74522,13.78339 2.88401,-5.80854 z m 46.73709,-16.19146 c 3.91833,-13.41554 5.17024,-15.89012 11.28595,-22.30838 6.46835,-6.78833 6.4631,-8.14437 -0.0316,-8.17631 -1.71243,-0.008 -5.47343,-0.46286 -8.35777,-1.00986 -10.28736,-1.95096 -25.44882,-4.00545 -29.55885,-4.00545 -3.04866,0 -4.89301,0.66279 -6.82387,2.45225 -1.45531,1.34874 -2.64602,2.92374 -2.64602,3.5 0,0.57626 -0.60044,1.04775 -1.33432,1.04775 -0.95583,0 -1.66306,3.01071 -2.49323,10.61369 l -1.15891,10.6137 2.49323,2.96303 c 1.37128,1.62967 2.49323,3.36517 2.49323,3.85667 0,0.4915 1.06611,3.26948 2.36913,6.17327 1.30302,2.9038 2.73419,6.62964 3.18038,8.27964 0.90925,3.36245 0.70116,4.00759 2.03307,-6.30298 1.04133,-8.06113 7.96271,-7.88971 11.84585,0.29339 0.95006,2.00211 2.9578,5.52331 4.46165,7.82489 1.50386,2.30159 4.0563,7.55772 5.6721,11.6803 l 2.93782,7.4956 0.79382,-13.9956 c 0.51139,-9.01624 1.52121,-16.48606 2.83834,-20.9956 z m -113.69702,8.16816 c 4.41669,-5.8045 5.56981,-8.60613 5.54955,-13.48326 -0.0246,-5.92631 -1.15522,-6.86066 -5.24394,-4.33369 -5.82756,3.60163 -8.83689,8.95694 -8.93535,15.90109 -0.0467,3.29256 0.21732,6.47545 0.58669,7.07309 1.14384,1.85077 4.20329,-0.11095 8.04305,-5.15723 z m 48.52576,-14.10489 c 3.56075,-5.76141 8.07261,-4.4698 11.31384,3.23881 l 1.3634,3.24258 1.22907,-2.29654 c 0.67599,-1.2631 2.57083,-3.18565 4.21076,-4.27233 1.63992,-1.08669 3.19262,-2.87579 3.45044,-3.97579 0.43638,-1.8618 1.37532,-10.25634 4.97739,-44.5 0.78104,-7.425 1.63898,-15.075 1.90655,-17 0.26756,-1.925 1.19428,-10.475 2.05937,-19 0.86508,-8.525 2.01757,-18.875 2.56107,-23 0.54351,-4.125 1.23241,-10.2 1.53089,-13.5 0.29848,-3.3 1.64362,-15.225 2.9892,-26.5 3.1307,-26.23307 3.31854,-28.00912 3.91337,-37 0.49591,-7.49572 0.49535,-7.49778 -0.98285,-3.60509 -0.81348,2.14221 -1.85645,4.39221 -2.31772,5 -0.46128,0.6078 -1.85484,3.66874 -3.09681,6.80208 -2.80887,7.08645 -5.76335,9.2538 -11.53596,8.46258 -7.14501,-0.97934 -12.15016,-4.35302 -14.94943,-10.07655 -3.75883,-7.68551 -6.33767,-18.9044 -7.02999,-30.58302 -0.68522,-11.55881 -0.75745,-38.77094 -0.11546,-43.5 0.22399,-1.65 0.70515,-5.7 1.06924,-9 0.36409,-3.3 1.07139,-7.575 1.57178,-9.5 1.49434,-5.74873 1.17678,-9 -0.87905,-9 -1.82155,0 -4.2,-1.77959 -4.2,-3.1425 0,-0.40838 1.9125,-0.88088 4.25,-1.05 l 4.25,-0.3075 3,-8.99977 c 2.09828,-6.29467 3.52691,-9.09719 4.75302,-9.3239 2.64378,-0.48885 3.17831,2.39493 1.21199,6.53864 -2.76764,5.83238 -4.5131,13.27689 -3.1245,13.32624 11.5717,0.41127 17.65949,1.65137 17.65949,3.59729 0,1.41006 -1.23701,1.51609 -10.40089,0.89148 l -10.4009,-0.70893 -0.58954,2.83947 c -3.74802,18.05184 -4.10711,22.32039 -4.02451,47.83948 0.0888,27.43706 0.67903,32.25952 5.60391,45.78689 2.33819,6.42241 5.66949,9.49118 11.29397,10.40391 4.04329,0.65613 5.92378,-0.54688 7.93857,-5.07856 0.76104,-1.71173 2.54655,-5.65879 3.9678,-8.77125 3.18239,-6.96925 5.50655,-16.64657 10.04876,-41.84099 4.58895,-25.45364 5.47686,-31.109 6.18234,-39.37723 0.6394,-7.49373 0.0494,-8.57917 -4.67838,-8.60746 -1.40738,-0.008 -3.40098,-0.63107 -4.43022,-1.38367 -1.82415,-1.33386 -1.82267,-1.39439 0.0589,-2.40015 1.06162,-0.56747 3.80073,-0.89182 6.0869,-0.72078 4.59149,0.34352 5.30234,-0.64044 5.32967,-7.37729 0.0129,-3.18336 -0.13601,-3.32718 -2.73635,-2.64272 -1.5125,0.39812 -5.225,0.93351 -8.25,1.18977 -16.63675,1.40935 -18.80455,-15.93421 -4.39503,-35.16269 2.4803,-3.30978 6.39634,-8.54117 8.70233,-11.62532 2.30598,-3.08415 6.28584,-8.31834 8.84412,-11.63154 6.3812,-8.26423 6.53211,-8.64218 7.29125,-18.26092 0.59682,-7.56208 1.87427,-18.84264 3.11419,-27.5 0.23632,-1.65 1.12855,-9.3 1.98273,-17 1.95663,-17.63796 3.57388,-31.51681 7.34114,-63 5.00913,-41.86159 4.93227,-40.64064 2.92923,-46.53349 -0.97545,-2.86975 -2.18289,-5.7237 -2.68318,-6.34211 -0.50029,-0.61842 -4.82782,-9.6744 -9.61673,-20.1244 -9.53254,-20.80118 -14.21838,-29.8555 -24.84122,-48 -13.12723,-22.42215 -17.04506,-27.67626 -39.63947,-53.159367 -4.513,-5.09 -20.06339,-19.20402 -26.02936,-23.62506 -3.025,-2.24166 -5.725,-4.36713 -6,-4.72327 -1.38681,-1.79599 -23.23218,-17.81479 -31.75732,-23.28705 -10.82837,-6.950673 -43.65151,-23.89508 -55.25366,-28.523782 -4.11898,-1.643275 -10.41405,-4.314832 -13.98905,-5.936793 -6.4195,-2.912499 -11.86427,-5.122948 -27.5,-11.164352 -4.4,-1.700092 -9.22785,-3.088657 -10.72856,-3.0857 -2.54986,0.005 -2.65368,0.16973 -1.58514,2.514906 0.83263,1.827429 0.85151,3.460652 0.0695,6.008832 -0.59068,1.924616 -0.92852,6.532828 -0.75075,10.240471 0.17777,3.707642 0.58792,16.191168 0.91143,27.741168 0.32351,11.55 0.80609,26.625 1.07241,33.5 0.66358,17.1307 1.39862,40.660817 2.01486,64.499997 0.28435,11 0.72637,24.275 0.98227,29.5 0.25589,5.225 0.70629,18.05 1.00088,28.5 0.29459,10.45 0.74895,25.075 1.00968,32.5 0.26073,7.425 0.71774,21.375 1.01557,31 0.29784,9.625 0.74048,21.775 0.98366,27 0.24317,5.225 0.69262,17.375 0.99875,27 0.92658,29.13142 1.55181,46.10992 1.98854,54 0.22832,4.125 0.71974,17.4 1.09203,29.5 0.37229,12.1 0.81077,22.675 0.97439,23.5 0.16363,0.825 0.33194,6.30479 0.37402,12.17732 l 0.0765,10.67732 7.58958,1.22433 c 4.81413,0.7766 7.79295,1.75432 8.14572,2.6736 0.59916,1.56139 -1.36396,3.26914 -3.14462,2.73556 -0.59987,-0.17975 -3.51133,-0.61133 -6.4699,-0.95906 l -5.37921,-0.63224 0.59164,16.30159 c 1.94148,53.49405 1.97129,53.9812 3.33587,54.50484 0.7405,0.28415 2.45205,-0.20784 3.80346,-1.09331 3.61085,-2.36592 7.80646,-2.00749 10.98519,0.93846 2.9125,2.69921 3.01558,4.47962 0.72092,12.45159 -7.02887,24.41926 -6.88953,23.60207 -4.47615,26.25219 1.12585,1.2363 2.81698,4.61767 3.75805,7.51417 1.87014,5.75601 1.69901,10.34679 -1.14564,30.73364 -0.84418,6.05 -1.94059,20.45 -2.43646,32 -0.49588,11.55 -1.36761,25.05 -1.9372,30 -0.56958,4.95 -1.26932,13.12267 -1.55497,18.16149 -0.46756,8.24765 -0.33817,9.21456 1.29718,9.6935 2.83116,0.82915 25.87817,3.52121 35.31654,4.12522 14.37305,0.91982 20.16473,1.62271 29.1178,3.53384 4.73979,1.01175 14.63979,2.11144 22,2.44374 24.98433,1.128 74.22693,7.95358 77.35127,10.72175 1.48789,1.31827 3.43566,8.76131 2.45186,9.36933 -0.47913,0.29612 -2.11985,-0.7945 -3.64604,-2.4236 -2.32488,-2.48163 -4.41867,-3.30312 -12.91087,-5.06546 -14.36556,-2.98122 -37.42398,-5.98834 -54.36402,-7.0898 -15.56825,-1.01226 -27.04477,-2.32377 -39,-4.45684 -11.49504,-2.05096 -36.03455,-3.0753 -36.98114,-1.54369 -0.57482,0.93008 -1.276,0.96327 -2.82594,0.13377 -2.55809,-1.36905 -6.72924,-1.42177 -9.16928,-0.1159 -2.76404,1.47927 -6.06501,7.40131 -7.40514,13.28506 -1.84941,8.11971 -0.54483,13.9458 4.61273,20.59987 3.89718,5.02798 4.80055,5.66003 8.47691,5.93089 5.18007,0.38166 6.60148,-1.05166 12.1528,-12.2547 5.03352,-10.15806 11.09213,-18.06889 14.49177,-18.92215 4.38672,-1.10099 7.24984,0.77525 8.70534,5.70472 1.27657,4.32349 1.43947,4.46248 4.6241,3.94569 3.67882,-0.59699 6.0226,0.81651 7.41159,4.46983 l 0.88539,2.32875 2.98738,-2.20867 c 2.5396,-1.87761 3.36859,-2.03499 5.53052,-1.04995 1.39872,0.6373 3.01989,2.40176 3.60259,3.92102 1.07873,2.81251 0.47799,9.8096 -1.00559,11.71268 -1.4009,1.797 -2.20859,6.54961 -1.11308,6.54961 0.56048,0 1.01905,-0.48035 1.01905,-1.06745 0,-1.5738 8.87593,-12.23496 11.36188,-13.64711 4.73513,-2.68981 8.17216,-0.82789 7.77992,4.21456 -0.0856,1.1 0.24092,2.60996 0.72552,3.35548 0.72963,1.12246 1.30927,1.07492 3.37191,-0.27657 4.49553,-2.94559 9.76077,0.75238 9.76077,6.85535 0,3.20992 1.01695,3.24105 3.94823,0.12085 3.38398,-3.60209 7.34848,-4.73602 10.01886,-2.86561 1.94744,1.36404 2.12437,2.22369 1.76035,8.55302 -0.36131,6.28248 -0.25058,6.83407 1.03324,5.14702 0.79086,-1.03925 2.27279,-3.68954 3.29317,-5.88954 3.1389,-6.76765 4.25045,-7.66064 9.10181,-7.31211 4.84311,0.34794 4.73812,0.0439 3.63075,10.51357 -0.71368,6.74741 0.15984,7.46855 2.28027,1.88248 0.9306,-2.45158 2.683,-6.06088 3.89422,-8.02067 z M 544.24577,447.13175 c -0.28388,-0.28389 -5.64638,-0.96749 -11.91667,-1.51913 -14.23829,-1.25263 -15.90051,-1.62514 -15.90051,-3.56337 0,-1.32107 1.03581,-1.46554 6.75,-0.94146 3.7125,0.3405 9.225,0.83859 12.25,1.10688 12.08028,1.07141 14,1.55775 14,3.54677 0,1.30962 -0.71348,1.88646 -2.33333,1.88646 -1.28334,0 -2.56561,-0.23227 -2.84949,-0.51615 z m -47.81718,-4.61 c -4.125,-0.4052 -8.85,-0.95558 -10.5,-1.22306 -1.65,-0.26748 -4.575,-0.53022 -6.5,-0.58387 -4.23875,-0.11813 -6.91078,-1.56068 -5.49164,-2.96477 0.63158,-0.62488 3.71484,-0.66263 8.49164,-0.10396 6.58133,0.76972 18.1127,1.80425 21.75,1.95128 1.34266,0.0543 1.74287,2.69309 0.5,3.2968 -0.4125,0.20037 -4.125,0.0328 -8.25,-0.37242 z m -56.49095,-5.2643 c -9.51073,-0.96012 -11.03954,-1.36508 -11.3517,-3.0069 -0.32079,-1.68715 0.0659,-1.82153 3.49095,-1.21296 2.11843,0.37641 8.1267,0.95308 13.3517,1.28148 9.43709,0.59314 13,1.51511 13,3.36401 0,1.14717 -3.77089,1.06037 -18.49095,-0.42563 z m -14.6133,295.5529 c 1.70734,-2.66065 3.10425,-5.08679 3.10425,-5.39142 0,-0.30463 -1.6875,-1.23344 -3.75,-2.06403 -2.0625,-0.83059 -4.84094,-2.67945 -6.17431,-4.10858 -1.33338,-1.42913 -2.7152,-2.59842 -3.07072,-2.59842 -0.8304,0 0.46591,8.58785 1.88684,12.5 0.59929,1.65 1.37129,3.7875 1.71554,4.75 1.05457,2.9485 3.04091,1.97323 6.2884,-3.08755 z m 37.23789,-9.00567 c 6.15618,-7.02823 6.64201,-7.89011 7.35028,-13.03983 0.90386,-6.57191 -0.9299,-6.86662 -5.64989,-0.908 -3.57349,4.51126 -5.73941,9.32041 -6.54891,14.54105 -0.66413,4.28314 0.7262,4.11303 4.84852,-0.59322 z M 253.06301,701.60532 c 1.35124,-25.39938 0.91896,-64.41934 -0.89135,-80.45742 -0.93123,-8.25 -1.97652,-17.925 -2.32287,-21.5 -0.34636,-3.575 -1.21721,-8.975 -1.93524,-12 -0.71803,-3.025 -1.60418,-9.35232 -1.96923,-14.06072 -0.36506,-4.7084 -1.05461,-9.19317 -1.53234,-9.96616 -0.52417,-0.84813 -0.7069,1.15863 -0.4608,5.06072 0.2243,3.55639 0.63649,12.76616 0.916,20.46616 0.2795,7.7 0.96175,23 1.51612,34 0.55437,11 1.25061,25.175 1.54721,31.5 0.2966,6.325 0.75051,14.875 1.00868,19 0.25817,4.125 0.70723,13.125 0.99791,20 0.54845,12.97162 1.43658,22.38824 2.05338,21.77144 0.19613,-0.19613 0.67877,-6.41244 1.07253,-13.81402 z m 163.36558,-21.57986 c 0,-1.53654 -2.56814,-1.88534 -3.44423,-0.4678 -0.30924,0.50036 -0.28325,1.63685 0.0578,2.52552 0.48008,1.25106 0.93224,1.35665 2.00324,0.4678 0.76074,-0.63138 1.38319,-1.76787 1.38319,-2.52552 z m -3.58481,-52.8828 c 0.31426,-4.94712 0.80774,-13.71976 1.09662,-19.49476 0.28889,-5.775 0.95116,-14.1 1.47172,-18.5 0.52056,-4.4 1.18029,-10.025 1.46606,-12.5 0.28577,-2.475 0.93837,-7.79428 1.45023,-11.82062 0.73661,-5.79421 0.61605,-8.24395 -0.57819,-11.74884 -1.55985,-4.57792 -2.79078,-6.09849 -3.71988,-4.59518 -2.44477,3.95573 -5.10296,73.30944 -3.16836,82.66464 0.22747,1.1 0.44802,2.8625 0.4901,3.91667 0.18123,4.5401 0.96421,0.382 1.4917,-7.92191 z m -70.91519,-54.46681 c 10.87473,-5.27255 27.95899,-15.38576 36.57266,-21.64958 4.82624,-3.50962 9.84296,-6.07534 15.17734,-7.76221 1.49912,-0.47406 1.75,-1.86732 1.75,-9.71876 0,-9.95626 1.23639,-15.66659 4.44075,-20.50989 1.93546,-2.9254 2.01986,-4.03748 1.40404,-18.5 -0.36036,-8.46313 -0.9681,-25.06251 -1.35052,-36.88751 -0.38243,-11.825 -0.86095,-21.77166 -1.06339,-22.10369 -1.2694,-2.08202 -38.4083,-4.51802 -44.37715,-2.91078 -4.88813,1.31624 -6.45906,4.04878 -10.06899,17.51447 -2.01919,7.5319 -2.54185,8.38786 -8.93241,14.62865 -7.39704,7.22369 -14.81842,10.87135 -22.11836,10.87135 -4.63296,0 -14.22554,-4.5033 -17.83126,-8.371 -2.20136,-2.3613 -2.34608,-3.12552 -1.77066,-9.35024 0.69682,-7.53796 5.63711,-18.89617 10.75358,-24.7235 2.92774,-3.33452 3.71905,-5.55526 1.97947,-5.55526 -2.85696,0 -6.1315,2.39961 -9.75864,7.15121 -2.24565,2.94184 -5.73518,7.14879 -7.7545,9.34879 -2.01933,2.2 -4.35892,5.29119 -5.19911,6.86931 -0.84018,1.57811 -3.06328,5.00686 -4.94023,7.61943 -1.87694,2.61256 -3.41262,5.15097 -3.41262,5.64091 0,0.48993 -1.125,2.10405 -2.5,3.58692 -1.375,1.48288 -2.5,2.95043 -2.5,3.26123 0,0.61993 -5.13998,8.71863 -6.04343,9.5222 -0.30918,0.275 -1.58759,2.1875 -2.84092,4.25 -2.0916,3.44199 -4.79619,4.73612 -6.44731,3.08501 -0.61326,-0.61326 3.8075,-9.19533 5.32373,-10.33501 0.36586,-0.275 3.66382,-5 7.3288,-10.5 3.66499,-5.5 7.45424,-11.125 8.42057,-12.5 0.96632,-1.375 3.37923,-4.975 5.36202,-8 1.98279,-3.025 4.81144,-6.77773 6.2859,-8.33939 1.47446,-1.56167 4.47761,-5.2192 6.67366,-8.12786 3.21111,-4.25309 4.88793,-5.53908 8.56477,-6.56853 10.15485,-2.84318 13.44686,2.58473 6.55889,10.81437 -6.16657,7.36772 -11.02407,16.98654 -11.76597,23.29895 -0.57993,4.93429 -0.3918,5.8248 1.71393,8.11271 3.43037,3.72717 10.28631,6.08132 15.28405,5.24815 11.84467,-1.97464 23.84137,-13.38113 26.14673,-24.86039 1.03144,-5.13592 4.70796,-14.51501 6.22744,-15.88671 3.58109,-3.23278 10.08141,-3.91109 26.30489,-2.74489 8.47124,0.60893 17.60576,1.37146 20.29895,1.6945 l 4.89669,0.58733 -0.65757,-21.86412 c -0.36167,-12.02526 -0.88321,-26.81412 -1.15898,-32.86412 -0.48949,-10.73859 -1.99377,-53.47343 -2.97443,-84.5 -0.63082,-19.95802 -1.42512,-44.06098 -1.99374,-60.5 -0.24731,-7.15 -0.69055,-21.1 -0.98496,-31 -0.29442,-9.9 -0.75553,-24.75 -1.02469,-33 -0.26917,-8.25 -0.73764,-24.45 -1.04106,-36 -0.30342,-11.55 -0.98973,-33.824997 -1.52513,-49.499997 -0.53541,-15.675 -1.19227,-37.95 -1.4597,-49.5 -0.61444,-26.537002 -1.21179,-33.553738 -3.02728,-35.559837 -0.90535,-1.000398 -1.39991,-3.455238 -1.31398,-6.522176 0.0758,-2.704893 -0.27104,-6.454884 -0.77072,-8.333313 -0.82873,-3.115415 -1.52112,-3.624632 -7.88483,-5.798849 -14.59081,-4.985081 -19.6215,-5.949629 -61.47632,-11.787047 -14.025,-1.956042 -26.17358,-3.796969 -26.99685,-4.090949 -1.40513,-0.501759 -26.98812,-3.064234 -54.82585,-5.491537 -6.77749,-0.59096 -13.02959,-0.803215 -13.89357,-0.471676 -1.38443,0.531258 -1.48766,2.765875 -0.86981,18.829091 0.38557,10.024461 0.87468,19.126293 1.08689,20.226293 0.21221,1.1 0.63845,9.65 0.94719,19 0.30874,9.35 0.79471,19.925 1.07994,23.5 0.42508,5.32797 1.6239,32.31792 2.99816,67.499997 0.37563,9.61642 1.5687,34.51578 3.0187,63 1.61216,31.66976 2.73929,58.56355 2.66132,63.5 -0.0391,2.475 0.32665,9 0.81277,14.5 0.48612,5.5 1.14216,18.325 1.45787,28.5 0.31571,10.175 0.7794,21.65 1.03042,25.5 0.59736,9.16179 1.26367,22.49343 2.04915,41 0.35016,8.25 0.77597,16.575 0.94625,18.5 0.17027,1.925 0.85645,15.65 1.52484,30.5 1.33204,29.59462 1.30785,29.5 7.54126,29.5 1.75254,0 3.74663,0.675 4.43132,1.5 1.45736,1.75602 0.9107,1.89828 -5.88867,1.53249 l -4.38867,-0.23609 0.688,12.8518 c 0.3784,7.06849 0.85527,15.7768 1.0597,19.3518 0.20443,3.575 0.6789,12.575 1.05437,20 0.37546,7.425 0.81541,15.525 0.97766,18 0.16225,2.475 0.62592,11.3625 1.03038,19.75 0.40446,8.3875 1.01255,15.23292 1.35131,15.21205 0.33875,-0.0209 1.80838,-1.76362 3.26583,-3.87277 4.79639,-6.94109 8.9862,-9.33421 17.27316,-9.86604 6.82606,-0.43807 7.76001,-0.24294 13.51235,2.82302 4.60251,2.45312 6.83378,4.41014 8.74351,7.66885 1.41023,2.40638 2.77034,4.16895 3.02247,3.91683 0.25212,-0.25213 -0.31944,-1.64556 -1.27015,-3.09652 -1.23915,-1.89118 -1.42237,-2.9443 -0.64712,-3.71955 2.6578,-2.6578 7.07077,2.562 7.94368,9.39603 0.91495,7.16324 4.96402,13.7881 8.42718,13.7881 1.01475,0 1.84501,0.675 1.84501,1.5 0,0.95116 -0.9574,1.5 -2.61663,1.5 -2.2535,0 -2.51985,0.31225 -1.91927,2.25 1.52742,4.92812 1.72281,6.75 0.72391,6.75 -1.46552,0 -4.18801,-2.88407 -4.18801,-4.43657 0,-0.71154 -0.9164,-2.45873 -2.03644,-3.88263 -1.12005,-1.4239 -2.66334,-4.29709 -3.42954,-6.38486 l -1.3931,-3.79594 -0.0596,5 c -0.0709,5.94223 1.99322,13.24505 5.37432,19.01447 2.55189,4.35447 12.69575,13.94335 17.35599,16.40644 8.24258,4.35646 16.36972,3.56452 29.6884,-2.89296 z m -12.2653,-145.06261 c -8.18927,-0.86015 -10.2347,-1.44651 -10.2347,-2.93396 0,-1.12868 7.84073,-1.20617 17.49014,-0.17285 4.59783,0.49237 6.06758,1.04823 6.32332,2.39147 0.37475,1.96831 -0.97333,2.03933 -13.57876,0.71534 z m -47.2347,-4.12328 c -15.92675,-1.88954 -18.3484,-2.3667 -18.79024,-3.70242 -0.3554,-1.07439 0.57378,-1.23456 4.42012,-0.76193 2.67857,0.32914 8.92012,0.86544 13.87012,1.19177 4.95,0.32634 9.38829,0.9675 9.86287,1.4248 0.9113,0.87813 0.005,3.09992 -1.17189,2.87165 -0.38004,-0.0737 -4.06598,-0.53448 -8.19098,-1.02387 z m 125.98213,127.73716 c 0.62713,-2.78061 0.49606,-3.57922 -0.58744,-3.57922 -0.96977,0 -1.39469,1.26946 -1.39469,4.16667 0,4.80795 0.82009,4.5649 1.98213,-0.58745 z m 2.32713,-11.32922 c 0.29495,-1.5125 1.89579,-7.7 3.55744,-13.75 2.72812,-9.93301 2.87888,-11.21825 1.55418,-13.25 -0.80684,-1.2375 -1.56911,-2.24322 -1.69393,-2.23494 -0.12482,0.008 -2.02695,0.64513 -4.22695,1.41522 l -4,1.40018 0,10.8242 c 0,15.69799 0.35955,18.34534 2.49154,18.34534 1.14674,0 1.97253,-0.9798 2.31772,-2.75 z m -8.30926,-7.80902 c 0,-6.11803 -0.35997,-9.33654 -1,-8.94098 -1.10106,0.68049 -1.4017,16.76496 -0.33333,17.83333 1.24663,1.24663 1.33333,0.66838 1.33333,-8.89235 z m 226.34204,-85.00859 c 2.52667,-1.41218 5.63061,-3.79961 6.89765,-5.3054 1.26704,-1.50579 3.06729,-3.03081 4.00056,-3.38894 0.93327,-0.35813 3.12162,-3.7082 4.863,-7.4446 1.74138,-3.7364 6.87802,-14.44345 11.41476,-23.79345 13.45783,-27.73593 15.74365,-41.94998 13.5888,-84.5 -1.38585,-27.36536 -2.4419,-37.09154 -5.14918,-47.4238 -2.3583,-9.00038 -9.57382,-27.93176 -13.87164,-36.39499 -1.58677,-3.12467 -4.1209,-8.50306 -5.6314,-11.95199 -1.5105,-3.44893 -2.91982,-6.09732 -3.13182,-5.88532 -0.41245,0.41245 -2.85855,17.99391 -4.33474,31.1561 -1.36789,12.19666 -3.0186,24.82719 -3.46333,26.5 -0.21933,0.825 -0.69337,4.65 -1.05342,8.5 -0.36005,3.85 -0.82938,8.35 -1.04295,10 -0.21356,1.65 -1.06973,9.525 -1.90259,17.5 -0.83285,7.975 -1.71829,15.85 -1.96764,17.5 -0.62274,4.12082 -2.68248,23.99552 -3.05727,29.5 l -0.3064,4.5 2.02305,-4.5 c 4.98209,-11.08201 5.80062,-13.3737 8.26587,-23.14247 4.09323,-16.21981 8.11296,-20.41753 15.05477,-15.72143 4.42344,2.99243 8.38749,8.62988 9.52664,13.54825 2.59997,11.22562 0.13142,31.64472 -6.52726,53.99145 -8.98784,30.16347 -14.14873,41.93543 -21.69149,49.47819 -2.4548,2.4548 -8.28441,2.38209 -11.83709,-0.14764 -3.34884,-2.38458 -4.00892,-1.46657 -4.00892,5.57544 l 0,4.41821 4.37405,0 c 2.8369,0 5.98847,-0.90232 8.96799,-2.56761 z m 0.34266,-13.05955 c 7.17944,-7.61243 13.72461,-23.82018 21.31173,-52.77416 7.62511,-29.09891 7.53749,-46.23647 -0.2732,-53.43436 -2.0638,-1.90188 -2.90988,-2.13479 -4.5555,-1.25408 -2.13397,1.14206 -5.53996,9.09416 -6.71258,15.67209 -0.38411,2.15472 -1.49349,5.94267 -2.46529,8.41767 -0.9718,2.475 -2.72365,6.93833 -3.89299,9.9185 -1.16935,2.98018 -3.73048,7.83563 -5.69141,10.78989 -3.60504,5.43122 -5.00229,11.47582 -6.77095,29.29161 -0.3003,3.025 -1.08848,10.85298 -1.7515,17.39551 -1.02622,10.12649 -0.99357,12.05977 0.2195,13 0.78375,0.60747 2.21668,2.34199 3.18429,3.85449 2.29801,3.59205 3.2943,3.47392 7.3979,-0.87716 z m -22.47172,-0.43913 c 2.90786,-1.13646 5.80668,-2.59896 6.44181,-3.25 0.63514,-0.65104 1.41072,-3.88371 1.72353,-7.18371 0.3128,-3.3 1.05918,-10.05 1.65862,-15 2.24028,-18.49962 2.57395,-22.62245 1.86624,-23.05984 -0.39952,-0.24691 -2.43883,1.91554 -4.53179,4.80545 -2.09297,2.88992 -4.06624,5.47939 -4.38504,5.75439 -1.01113,0.8722 -9.48788,12.31888 -12.65082,17.08319 -8.71385,13.12557 -7.43382,21.76689 3.37745,22.80081 0.66714,0.0638 3.59214,-0.81383 6.5,-1.95029 z M 198.92859,803.56285 c -3.3,-0.3791 -16.033,-1.03695 -28.29557,-1.4619 l -22.29556,-0.77264 -2.5781,-3.0639 c -2.48719,-2.95586 -2.55729,-3.39979 -1.98809,-12.5902 0.3245,-5.23947 1.04129,-14.25131 1.59288,-20.02631 0.55158,-5.775 1.24268,-16.575 1.53578,-24 0.84709,-21.45925 1.47722,-30.67037 2.9776,-43.52587 0.77195,-6.61422 1.33676,-12.68922 1.25512,-13.5 -0.29112,-2.89128 1.54561,-16.61914 3.38797,-25.32189 3.19762,-15.10463 9.55086,-23.44257 20.63543,-27.08176 5.97219,-1.96074 9.96184,-1.15241 16.27254,3.29693 7.71554,5.43982 9.90065,10.17137 12.53025,27.13259 0.81007,5.225 2.16279,13.1 3.00605,17.5 2.67286,13.94662 6.26031,38.6749 6.96358,48 0.78219,10.37157 0.92133,11.97466 2.38686,27.5 3.77983,40.04214 4.16522,45.34804 3.35282,46.16044 -2.16705,2.16705 -10.79486,2.89694 -20.73956,1.75451 z m 16.5,-7.50768 c 0,-3.90939 -1.36592,-20.95638 -3.19763,-39.90727 -0.63793,-6.6 -1.25704,-13.64394 -1.37581,-15.6532 -0.85378,-14.44355 -3.97439,-40.66767 -5.99117,-50.3468 -0.8022,-3.85 -1.92538,-9.25 -2.49595,-12 -0.57057,-2.75 -1.68011,-9.84371 -2.46565,-15.7638 -2.53,-19.06696 -8.10264,-26.69979 -19.41506,-26.59274 -6.8017,0.0644 -8.81325,0.82536 -12.70592,4.80688 -7.67426,7.84942 -10.64784,18.80793 -13.31772,49.07972 -0.55639,6.30846 -1.22621,13.26994 -1.4885,15.46994 -0.26228,2.2 -0.72889,8.725 -1.03689,14.5 -1.14684,21.50259 -1.49126,27.06691 -3.1708,51.22664 -0.94543,13.59965 -1.5015,24.9441 -1.23571,25.20989 0.26579,0.26579 10.13881,0.74226 21.94003,1.05882 11.80123,0.31656 23.93178,0.95347 26.95678,1.41535 3.025,0.46189 8.5375,0.89593 12.25,0.96454 l 6.75,0.12476 z m 7.23018,-108.00635 c -5.32702,-4.19815 -6.81681,-8.36461 -8.72496,-24.40092 -0.2945,-2.475 -1.2781,-8.42677 -2.18577,-13.22615 -1.33878,-7.07888 -1.42798,-9.46823 -0.47253,-12.65725 2.32095,-7.74664 13.48466,-14.09504 18.73579,-10.65436 1.32951,0.87113 2.41729,2.33103 2.41729,3.24423 0,0.91321 0.87041,4.16533 1.93425,7.22695 3.72064,10.70764 4.34342,14.6096 4.17307,26.14585 -0.21636,14.65135 -2.9506,22.66352 -8.79158,25.76203 -2.97877,1.58017 -3.34804,1.50511 -7.08556,-1.44038 z m 8.31926,-6.65092 c 2.7399,-4.13629 2.81703,-4.62456 2.88289,-18.25 0.0581,-12.02177 -0.26435,-15.05977 -2.28208,-21.5 -3.72931,-11.90333 -6.30185,-13.46837 -12.40143,-7.54453 -4.06102,3.94401 -5.38398,9.05071 -3.76795,14.54453 0.56624,1.925 2.16045,10.18251 3.54267,18.35002 1.38223,8.16751 2.97072,15.70501 3.52999,16.75 1.78445,3.33428 5.39151,2.33655 8.49591,-2.35002 z M 182.42859,414.56116 c -4.125,-0.45081 -10.89682,-1.09561 -15.04848,-1.43289 -7.58897,-0.61653 -11.0341,-1.73113 -9.64485,-3.12038 0.79293,-0.79292 36.16886,2.19784 37.78081,3.19408 1.66452,1.02873 -0.11623,2.45036 -2.8965,2.31238 -1.48004,-0.0734 -6.06598,-0.50238 -10.19098,-0.95319 z m -57.5,-5.02026 c -4.4,-0.46497 -10.8125,-1.11693 -14.25,-1.4488 -4.45003,-0.42961 -6.25,-1.01246 -6.25,-2.02379 0,-1.71997 -1.93863,-1.7304 18.92728,0.10183 17.49186,1.53596 19.07272,1.82911 19.07272,3.53678 0,1.09119 -6.15572,1.0328 -17.5,-0.16602 z m -54.5,-4.5674 c -15.74757,-1.51708 -22,-2.79578 -22,-4.49925 0,-0.75281 2.46997,-0.89487 7.92998,-0.45609 4.36149,0.35051 11.67399,0.90773 16.25,1.23827 11.40061,0.82351 15.32002,1.69912 15.32002,3.42254 0,1.90885 -0.6326,1.91949 -17.5,0.29453 z m -60.1786,-6.2821 c -12.9683,-1.48597 -15.95838,-2.23985 -14.53386,-3.66437 0.79057,-0.79057 30.4391,1.67151 33.52263,2.7838 1.2706,0.45833 2.04042,1.2698 1.71072,1.80327 -0.73359,1.18697 -3.27775,1.07356 -20.69949,-0.9227 z m -43.3214,-4.05624 c -3.3,-0.41752 -10.275,-1.06603 -15.5,-1.44114 -6.5711,-0.47174 -9.96246,-1.16156 -11,-2.23746 -1.35447,-1.40454 -0.67531,-1.49233 7,-0.90489 4.675,0.35781 12.325,0.89179 17,1.18663 11.03882,0.69617 13,1.13798 13,2.92865 0,1.61521 -1.06058,1.6625 -10.5,0.46821 z m -58,-5.17182 c -3.85,-0.37651 -9.9394,-0.96432 -13.53199,-1.30625 -6.6478,-0.63271 -9.98303,-1.82751 -8.69549,-3.11504 0.67331,-0.67332 26.44191,1.0781 33.47748,2.27537 1.87218,0.31859 3.25,1.15204 3.25,1.96593 0,1.49744 -0.91254,1.50877 -14.5,0.17999 z m -43,-3.79111 c -1.1,-0.40746 -5.96741,-1.02856 -10.81648,-1.38022 -4.84906,-0.35166 -9.79906,-0.8372 -11,-1.079 -7.35938,-1.4817 -7.94061,-1.70802 -6.94455,-2.70408 0.89551,-0.89551 15.32841,-0.0344 27.26103,1.62653 1.375,0.19139 3.0625,0.38498 3.75,0.43021 1.34953,0.0888 1.73016,2.68147 0.5,3.4058 -0.4125,0.24288 -1.65,0.10822 -2.75,-0.29924 z"
       id="path3567"
       style="fill:#000000" />
    <text
       x="150"
       y="200.93361"
       id="text3569"
       xml:space="preserve"
       style="font-size:30px;font-style:normal;font-variant:normal;font-weight:normal;font-stretch:normal;line-height:125%;letter-spacing:0px;word-spacing:0px;fill:#000000;fill-opacity:1;stroke:none;font-family:cmr10;-inkscape-font-specification:cmr10"><tspan
         x="150"
         y="200.93361"
         id="tspan3571">CF3</tspan></text>
    <text
       x="402.85715"
       y="203.79076"
       id="text3573"
       xml:space="preserve"
       style="font-size:30px;font-style:normal;font-variant:normal;font-weight:normal;font-stretch:normal;line-height:125%;letter-spacing:0px;word-spacing:0px;fill:#000000;fill-opacity:1;stroke:none;font-family:cmr10;-inkscape-font-specification:cmr10"><tspan
         x="402.85715"
         y="203.79076"
         id="tspan3575">CF2</tspan></text>
    <text
       x="564.28571"
       y="302.36218"
       id="text3588"
       xml:space="preserve"
       style="font-size:30px;font-style:normal;font-variant:normal;font-weight:normal;font-stretch:normal;line-height:125%;letter-spacing:0px;word-spacing:0px;fill:#000000;fill-opacity:1;stroke:none;font-family:cmr10;-inkscape-font-specification:cmr10"><tspan
         x="564.28571"
         y="302.36218"
         id="tspan3590">CF1</tspan></text>
    <text
       x="195.71429"
       y="550.93359"
       id="text3592"
       xml:space="preserve"
       style="font-size:30px;font-style:normal;font-variant:normal;font-weight:normal;font-stretch:normal;line-height:125%;letter-spacing:0px;word-spacing:0px;fill:#000000;fill-opacity:1;stroke:none;font-family:cmr10;-inkscape-font-specification:cmr10"><tspan
         x="195.71429"
         y="550.93359"
         id="tspan3594">Cp</tspan></text>
    <text
       x="347.14285"
       y="510.93362"
       id="text3596"
       xml:space="preserve"
       style="font-size:30px;font-style:normal;font-variant:normal;font-weight:normal;font-stretch:normal;line-height:125%;letter-spacing:0px;word-spacing:0px;fill:#000000;fill-opacity:1;stroke:none;font-family:cmr10;-inkscape-font-specification:cmr10"><tspan
         x="347.14285"
         y="510.93362"
         id="tspan3598">Pts</tspan></text>
    <text
       x="621.42859"
       y="486.64789"
       id="text3600"
       xml:space="preserve"
       style="font-size:30px;font-style:normal;font-variant:normal;font-weight:normal;font-stretch:normal;line-height:125%;letter-spacing:0px;word-spacing:0px;fill:#000000;fill-opacity:1;stroke:none;font-family:cmr10;-inkscape-font-specification:cmr10"><tspan
         x="621.42859"
         y="486.64789"
         id="tspan3602">FMS</tspan></text>
    <text
       x="498.57141"
       y="1018.0764"
       id="text3604"
       xml:space="preserve"
       style="font-size:30px;font-style:normal;font-variant:normal;font-weight:normal;font-stretch:normal;line-height:125%;letter-spacing:0px;word-spacing:0px;fill:#000000;fill-opacity:1;stroke:none;font-family:cmr10;-inkscape-font-specification:cmr10"><tspan
         x="498.57141"
         y="1018.0764"
         id="tspan3606">Me</tspan></text>
    <text
       x="361.42856"
       y="679.50507"
       id="text3608"
       xml:space="preserve"
       style="font-size:30px;font-style:normal;font-variant:normal;font-weight:normal;font-stretch:normal;line-height:125%;letter-spacing:0px;word-spacing:0px;fill:#000000;fill-opacity:1;stroke:none;font-family:cmr10;-inkscape-font-specification:cmr10"><tspan
         x="361.42856"
         y="679.50507"
         id="tspan3610">Pti</tspan></text>
  </g>
</svg>
