<?xml version="1.0" encoding="UTF-8" standalone="no"?>
<!-- Created with Inkscape (http://www.inkscape.org/) -->

<svg
   xmlns:dc="http://purl.org/dc/elements/1.1/"
   xmlns:cc="http://creativecommons.org/ns#"
   xmlns:rdf="http://www.w3.org/1999/02/22-rdf-syntax-ns#"
   xmlns:svg="http://www.w3.org/2000/svg"
   xmlns="http://www.w3.org/2000/svg"
   version="1.1"
   width="926.58179"
   height="1052.0739"
   id="svg3374">
  <defs
     id="defs3376" />
  <metadata
     id="metadata3379">
    <rdf:RDF>
      <cc:Work
         rdf:about="">
        <dc:format>image/svg+xml</dc:format>
        <dc:type
           rdf:resource="http://purl.org/dc/dcmitype/StillImage" />
        <dc:title></dc:title>
      </cc:Work>
    </rdf:RDF>
  </metadata>
  <g
     transform="translate(57.546909,-31.572657)"
     id="layer1">
    <path
       d="m 716.87807,1061.3049 c -1.37278,-0.3672 -4.04443,-1.402 -5.93701,-2.2997 -1.89258,-0.8977 -6.36606,-2.4858 -9.94106,-3.5292 -13.80687,-4.0293 -17.79322,-5.8401 -34.5,-15.6712 -6.6,-3.8837 -13.6875,-7.8432 -15.75,-8.7989 -2.0625,-0.9556 -3.75,-2.0942 -3.75,-2.5301 0,-0.4359 -1.2375,-1.3452 -2.75,-2.0207 -1.5125,-0.6755 -4.325,-2.2578 -6.25,-3.5162 -1.925,-1.2584 -5.69842,-3.5905 -8.38537,-5.1824 -2.68695,-1.5918 -6.06195,-3.6768 -7.5,-4.6333 -1.43805,-0.9564 -3.28963,-2.0355 -4.11463,-2.3979 -0.825,-0.3624 -2.85,-1.6357 -4.5,-2.8295 -2.74759,-1.988 -7.33905,-4.7666 -19.0587,-11.53362 -2.38135,-1.375 -7.07893,-4.1875 -10.43909,-6.25 -3.36015,-2.0625 -6.53525,-3.75 -7.05579,-3.75 -0.52053,0 -0.94642,-0.45 -0.94642,-1 0,-0.55 -0.50221,-1 -1.11602,-1 -0.61382,0 -3.26161,-1.575 -5.88398,-3.5 -2.62237,-1.925 -5.21506,-3.5 -5.76153,-3.5 -0.54647,0 -1.53788,-0.6558 -2.20313,-1.4574 -1.03669,-1.2492 -5.46418,-3.95969 -18.86985,-11.55225 -1.46602,-0.83031 -5.81549,-3.3081 -9.66549,-5.5062 -3.85,-2.1981 -9.7,-5.27559 -13,-6.83886 -3.3,-1.56327 -7.8,-3.73706 -10,-4.83063 -3.92274,-1.94992 -21.1045,-8.38528 -29,-10.86183 -4.93475,-1.54787 -20.76085,-10.16345 -25.5,-13.88197 -1.925,-1.51043 -4.61046,-3.33753 -5.96768,-4.06023 -6.61272,-3.52115 -25.89416,-23.84924 -27.54005,-29.035 -0.35073,-1.10504 -2.44024,-2.92876 -4.64335,-4.0527 -2.20311,-1.12395 -6.78289,-3.93009 -10.17729,-6.23588 -3.39439,-2.30579 -7.40913,-4.74401 -8.92163,-5.41826 -1.5125,-0.67425 -2.75,-1.72832 -2.75,-2.34237 0,-0.61406 2.1375,0.13649 4.75,1.66789 9.33689,5.47309 10.12863,5.8604 10.73679,5.25224 0.53412,-0.53413 -0.61592,-23.22128 -2.01987,-39.84655 -1.75753,-20.8121 -2.44141,-30.0954 -2.26513,-30.74796 0.11173,-0.41362 -0.13335,-2.43954 -0.54463,-4.50204 -0.4871,-2.44271 -1.30068,-3.75 -2.33379,-3.75 -0.8723,0 -5.4644,-1.29619 -10.20468,-2.88043 -14.65185,-4.89676 -25.53969,-8.12867 -27.36869,-8.12402 -2.10586,0.005 -2.08819,-1.28801 -0.3211,23.50445 0.78403,11 1.70595,24.70621 2.04869,30.45825 0.34275,5.75204 1.01758,10.92704 1.49962,11.5 0.48203,0.57296 2.5937,1.94175 4.69259,3.04175 2.09889,1.1 6.6914,3.9125 10.2056,6.25 3.51419,2.3375 6.77985,4.25 7.25702,4.25 0.47717,0 0.86758,0.45 0.86758,1 0,0.55 -0.675,1 -1.5,1 -0.825,0 -1.5,-0.37921 -1.5,-0.84269 0,-0.90852 -17.98734,-11.15731 -19.58185,-11.15731 -0.56701,0 -0.83204,3.53363 -0.64475,8.59649 0.34978,9.45537 -0.91667,14.87464 -3.84201,16.44023 -1.04964,0.56175 -10.3511,1.22621 -20.66991,1.47658 -10.31882,0.25037 -22.46598,0.89168 -26.99369,1.42514 -9.06365,1.06788 -13.09492,0.28459 -17.12248,-3.32696 l -2.35469,-2.11148 0.63258,-19 c 0.77295,-23.2158 1.48371,-37.00868 2.11527,-41.04858 0.26212,-1.67672 -0.0893,-3.73952 -0.78094,-4.58401 -0.69164,-0.84449 -12.50753,-8.21698 -26.25753,-16.3833 -13.75,-8.16633 -30.4,-18.10484 -37,-22.08557 -6.6,-3.98073 -20.775,-12.28338 -31.5,-18.45033 -10.725,-6.16695 -23.775,-13.69185 -29,-16.722 -5.225,-3.03016 -13.55,-7.8397 -18.5,-10.68788 -4.95,-2.84819 -10.90356,-6.38448 -13.23013,-7.85842 -2.32657,-1.47395 -4.64448,-2.67991 -5.15091,-2.67991 -0.50644,0 -3.61464,-2.025 -6.90712,-4.5 -3.29247,-2.475 -6.29042,-4.5 -6.66209,-4.5 -2.5881,0 -38.54459,-20.41399 -40.54975,-23.02178 -0.275,-0.35765 -3.00636,-2.24156 -6.06968,-4.18648 -3.06333,-1.94491 -7.11333,-4.87785 -9,-6.51764 C 68.04364,675.9965 64.7,673.46968 62.5,672.02113 49.87813,663.7105 37.52722,654.43056 30.5,647.9777 26.1,643.93733 19.575,638.15114 16,635.11949 0.99895,622.39839 -14.807868,603.39001 -25.376747,585.36218 c -8.385654,-14.3038 -20.777422,-49.33567 -23.169216,-65.5 -0.325528,-2.2 -0.979845,-5.8 -1.454037,-8 -0.474192,-2.2 -1.155276,-6.01549 -1.513518,-8.47887 -0.358243,-2.46338 -0.825353,-4.76042 -1.038024,-5.10453 -0.472605,-0.76469 -3.209461,-21.98502 -4.48319,-34.7606 -1.509755,-15.14294 0.458714,-46.95925 4.062127,-65.656 0.530006,-2.75 1.394235,-7.475 1.92051,-10.5 2.185831,-12.56403 7.750009,-31.50952 14.537861,-49.5 1.452614,-3.85 3.246727,-8.8 3.986917,-11 0.740191,-2.2 2.320589,-6.475 3.511996,-9.5 1.191408,-3.025 3.217068,-8.425 4.501467,-12 4.738224,-13.18838 9.067907,-22.68357 18.011504,-39.5 2.04757,-3.85 4.07572,-7.45 4.507,-8 0.43128,-0.55 3.31361,-5.95 6.40517,-12 3.09156,-6.05 6.46956,-12.125 7.50666,-13.5 1.03711,-1.375 4.42098,-6.45769 7.51972,-11.29487 3.09874,-4.83717 6.3099,-9.05421 7.13592,-9.37118 0.82602,-0.31697 2.2202,-1.96545 3.09819,-3.66329 C 32.60772,202.35251 50.3857,181.02185 61.0478,170.385 80.01261,151.46511 109.03592,123.99468 116.84852,117.56988 147.69523,92.202673 152.19391,88.925913 175.50846,74.843003 195.60069,62.706497 222.09658,50.676074 233,48.739041 c 12.62905,-2.243597 30.14645,-6.458784 37.2353,-8.959877 7.18714,-2.535771 32.5117,-6.336241 48.2647,-7.24311 20.82013,-1.198573 54.98705,-1.298706 64.26327,-0.188337 10.79243,1.29186 21.457,2.32023 23.23673,2.240687 0.825,-0.03687 5.325,0.534861 10,1.270518 4.675,0.735658 12.55,1.829927 17.5,2.431711 4.95,0.601784 16.2,1.973067 25,3.047296 24.34634,2.971993 69.57387,12.360773 76.11505,15.800718 1.73789,0.913938 5.16324,1.631683 12.88495,2.699902 6.82182,0.943727 24.36169,6.921647 33.00448,11.24855 3.29754,1.650867 11.17052,5.176784 17.49552,7.835374 6.325,2.65859 14.2,6.25324 17.5,7.98811 16.40951,8.62678 24.13735,12.86447 25.5,13.983367 0.825,0.67742 2.4,1.51554 3.5,1.8625 6.93566,2.18759 29.12233,19.42439 41.5,32.24127 5.225,5.41041 12.74612,12.99327 16.71359,16.85079 3.96748,3.85752 9.81748,10.86041 13,15.56199 9.32172,13.77107 11.50694,16.80307 16.78641,23.2912 2.75,3.37957 5.98561,7.49823 7.19025,9.15257 3.84327,5.27803 11.77463,16.64556 12.80724,18.35581 0.54862,0.90866 2.12071,3.2271 3.49353,5.1521 5.0212,7.04084 15.00898,22.49361 15.00898,23.22142 0,0.41169 1.30767,2.89279 2.90593,5.51356 3.24867,5.32704 12.97884,27.0678 15.55923,34.76502 0.9219,2.75 2.73438,7.7 4.02774,11 6.22407,15.8807 18.65608,67.23751 21.54436,89 2.01686,15.19663 2.1886,19.49975 1.61896,40.56461 -0.59528,22.01256 -2.18801,37.00908 -4.71936,44.43539 -0.56242,1.65 -2.15708,8.85 -3.54367,16 -1.3866,7.15 -3.36487,16.375 -4.39615,20.5 -2.64409,10.57599 -2.1631,20.93512 1.27062,27.36603 l 2.59818,4.86603 0.52446,-3.36603 c 1.21797,-7.81694 1.55723,-16.78043 0.6562,-17.33729 -0.52753,-0.32604 -0.69653,-1.27717 -0.37555,-2.11364 0.75905,-1.97804 4.31514,-1.42324 5.72692,0.89347 0.88099,1.44569 0.7101,2.09965 -0.85174,3.25931 -1.60174,1.1893 -2.06136,3.11609 -2.55032,10.69143 -1.02486,15.87803 -0.49778,20.18779 3.43835,28.11392 8.07092,16.25235 16.37062,31.75358 17.91567,33.46083 1.94604,2.15036 2.18137,5.17528 0.40017,5.14396 -1.32515,-0.0233 -5.34547,-5.68571 -9.02917,-12.7171 -6.13672,-11.71366 -10.86797,-20.4537 -12.68993,-23.44208 -1.65059,-2.70731 -2.04683,-2.95032 -2.15047,-1.31884 -0.0699,1.1 -0.22307,3.575 -0.34043,5.5 -0.11735,1.925 -0.51099,6.875 -0.87475,11 -0.36375,4.125 -0.88327,10.875 -1.15448,15 -1.31011,19.92612 -3.51161,52.2421 -3.98527,58.5 -0.2914,3.85 -0.98056,12.85 -1.53146,20 -0.55091,7.15 -1.21138,16.375 -1.46772,20.5 -0.25634,4.125 -0.70655,11.325 -1.00047,16 -0.29391,4.675 -0.7665,12.325 -1.05018,17 -0.28369,4.675 -1.01517,14.28269 -1.62552,21.35041 -0.61034,7.06773 -0.86051,15.59871 -0.55592,18.95773 0.30458,3.35903 0.18827,6.80135 -0.25846,7.64959 -1.17852,2.23771 -1.82753,8.35002 -2.97758,28.04227 -0.56211,9.625 -1.48191,23.125 -2.044,30 -1.96503,24.03483 -2.25026,29.65553 -2.58798,51 -0.42618,26.93447 -0.81094,32.98184 -2.27216,35.71215 -0.64046,1.19672 -1.6239,7.71355 -2.18542,14.48185 -1.9845,23.92017 -4.0991,52.4889 -4.98188,67.306 -0.49152,8.25002 -1.34299,19.95002 -1.89216,26.00002 -0.54917,6.05 -1.26979,16.85 -1.60137,24 -0.8062,17.3845 -0.90476,17.778 -4.28018,17.0886 -6.54553,-1.3369 -9.92181,-1.5821 -27.93429,-2.0287 -13.33297,1.8336 -16.42219,-0.1532 -25.40068,-3.6172 z m 53.55957,0.1582 c 0.68932,-1.1153 1.42775,-10.043 6.55554,-79.25672 4.63973,-62.62595 4.62006,-62.11082 2.35411,-61.66752 -1.15006,0.22499 -2.3396,2.90847 -3.91121,8.82332 -2.70613,10.1847 -6.74874,21.14699 -9.36762,25.40207 -2.46454,4.00433 -10.59498,23.20353 -11.47539,27.09793 -0.37302,1.65 -1.13833,5.025 -1.7007,7.5 -1.18626,5.2207 -0.51682,14.30672 1.62587,22.06732 4.54913,16.4763 5.2455,21.2936 3.86053,26.7054 -1.76144,6.8827 -5.39532,13.9013 -9.70503,18.7444 -1.92937,2.1682 -3.31608,4.2526 -3.0816,4.632 0.64781,1.0482 24.19614,1.0025 24.8455,-0.048 z M 738.5,1059.4417 c 5.57803,-2.6169 9.22039,-6.4003 11.96007,-12.423 5.03523,-11.0692 5.48409,-14.6009 2.95946,-23.2853 -0.86926,-2.9902 -1.70364,-6.6594 -1.85419,-8.1539 -0.15054,-1.4945 -0.81876,-4.0615 -1.48494,-5.7045 -2.39945,-5.9175 -2.4752,-18.29662 -0.16971,-27.73472 1.17179,-4.7971 2.40537,-9.52207 2.74129,-10.50002 0.33592,-0.97794 -1.13586,0.64985 -3.27061,3.61732 -2.13475,2.9675 -6.82951,8.48 -10.43278,12.25 -5.37728,5.6261 -7.11409,6.8546 -9.69099,6.8546 -3.79428,0 -4.56739,-1.0738 -5.23979,-7.2777 l -0.51781,-4.7776 -4.10626,6.2776 c -14.39842,22.01242 -15.79048,25.96822 -15.22989,43.27772 0.30057,9.2807 0.74544,11.7768 2.8462,15.9697 2.2363,4.4634 3.05023,5.1592 7.98995,6.8298 3.025,1.0231 6.28897,2.5703 7.25327,3.4383 1.56323,1.407 6.58362,2.867 10.74673,3.1252 0.825,0.051 3.3,-0.7514 5.5,-1.7835 z m -37.10214,-13.3295 c -0.83239,-2.3375 -1.77228,-8.75 -2.08865,-14.25 -0.48273,-8.3921 -0.22379,-11.2863 1.61044,-18 1.91021,-6.9918 6.49735,-16.31262 12.05743,-24.50002 0.93376,-1.375 2.23331,-3.5061 2.88788,-4.7357 1.127,-2.1172 1.05607,-2.1848 -1.33742,-1.2748 -3.01498,1.1463 -6.97429,-0.1054 -7.89116,-2.4947 -1.20485,-3.1398 -0.63076,-8.16098 1.72295,-15.06965 2.89281,-8.49104 8.31806,-20.30991 10.41146,-22.68128 0.85266,-0.96587 1.27699,-2.02942 0.94296,-2.36345 -0.33402,-0.33402 -2.60842,2.48123 -5.05422,6.25613 -6.27058,9.67816 -15.78018,21.88392 -19.0599,24.46374 -2.65414,2.08775 -2.92873,2.1132 -6.16252,0.57111 -2.12816,-1.01485 -3.62999,-2.59173 -4.04564,-4.24781 -1.17097,-4.66552 0.4383,-15.13223 3.4026,-22.13054 3.04722,-7.19408 7.7036,-24.12871 6.86505,-24.96727 -0.2734,-0.27339 -1.04252,0.55397 -1.70917,1.83857 -1.55472,2.99591 -14.70081,22.42378 -20.77677,30.70484 -2.57025,3.50306 -6.28965,7.29957 -8.26534,8.4367 -3.11027,1.79016 -3.99021,1.90263 -6.55943,0.83843 -4.02203,-1.66598 -6.72592,-6.43059 -6.04178,-10.64644 0.54427,-3.35397 4.86474,-13.9049 9.41733,-22.99788 3.20614,-6.40369 6.47552,-15.74132 5.24529,-14.98099 -0.52004,0.3214 -2.1656,2.6986 -3.6568,5.28267 -9.81754,17.01259 -23.95842,33.21 -28.96986,33.18301 -1.56342,-0.008 -3.37694,-0.35508 -4.03003,-0.77035 -2.04775,-1.30208 -3.38469,-6.31295 -2.6827,-10.05484 0.71136,-3.79189 8.71295,-26.43505 10.38787,-29.39593 3.08774,-5.45843 -2.29577,-0.85577 -7.85863,6.71877 -5.18219,7.05622 -13.19159,15.48607 -16.14688,16.9945 -5.49854,2.80656 -8.77919,2.8471 -11.48434,0.14195 -4.44055,-4.44055 -3.18955,-9.70541 5.95527,-25.0631 3.58427,-6.01937 6.49252,-11.41937 6.46278,-12 -0.0297,-0.58063 -1.71724,0.93383 -3.75,3.36546 -2.03276,2.43163 -8.44745,9.29413 -14.25487,15.25 -9.63816,9.88454 -10.87879,10.82885 -14.22694,10.82885 -5.44182,0 -7.17677,-3.14271 -6.38945,-11.57392 0.48877,-5.23412 1.60172,-8.34659 5.73358,-16.03446 2.81989,-5.24679 4.88882,-9.77789 4.5976,-10.0691 -0.29121,-0.29121 -4.94541,4.06722 -10.34266,9.68541 -15.08361,15.70105 -20.79077,18.86784 -27.06319,15.01683 -5.29011,-3.24791 -4.44981,-8.52304 3.18986,-20.02476 4.2653,-6.42151 10.17358,-15.42376 14.06014,-21.42295 3.18133,-4.91061 2.95543,-5.11171 -5.3321,-4.74669 -6.71921,0.29594 -8.08743,0.0489 -11.05882,-1.99632 C 545.02657,863.69783 541,855.392 541,848.40643 l 0,-5.67901 -5.75,-1.73229 C 512.73018,834.2106 475.75977,822.59709 455,815.7862 c -21.62969,-7.09629 -42.4305,-13.17208 -43.3451,-12.66083 -0.98516,0.55068 0.11887,22.4146 1.50158,29.73681 0.51931,2.75 1.35739,7.7 1.86242,11 0.79864,5.21861 2.68715,14.72318 6.01336,30.2643 0.50197,2.34536 1.37506,5.12827 1.94021,6.18425 0.56514,1.05598 1.02753,2.77111 1.02753,3.81139 0,3.07725 3.03956,5.2679 26,18.73849 3.025,1.77472 11.8,7.10655 19.5,11.8485 7.7,4.74195 16.7,10.04188 20,11.77764 3.3,1.73575 7.39248,4.2178 9.09439,5.51567 1.70192,1.29787 3.36397,2.35976 3.69345,2.35976 0.32949,0 7.26201,3.96685 15.40561,8.81521 8.1436,4.84837 19.08155,11.22549 24.30655,14.17139 5.225,2.94589 11.13976,6.62904 13.1439,8.18478 2.00415,1.55574 3.97134,2.82862 4.37153,2.82862 0.40019,0 6.22882,3.375 12.9525,7.5 6.72368,4.125 12.45137,7.5 12.72821,7.5 0.27684,0 4.73346,2.5566 9.9036,5.6813 11.50311,6.9523 33.20874,19.63492 53.90026,31.49392 8.525,4.886 16.175,9.3169 17,9.8464 0.825,0.5296 4.2,2.3733 7.5,4.0973 3.3,1.7239 7.125,3.9171 8.5,4.8737 1.375,0.9567 5.65,3.4358 9.5,5.5092 3.85,2.0735 7.4275,4.1588 7.95,4.634 0.5225,0.4753 1.51504,0.8642 2.20564,0.8642 0.96709,0 0.90784,-0.9767 -0.25778,-4.25 z M 655.5,1027.3622 c -0.33992,-0.55 -1.15398,-0.9931 -1.80902,-0.9847 -0.71561,0.01 -0.59227,0.4022 0.30902,0.9847 1.92112,1.2415 2.2673,1.2415 1.5,0 z m 81.34941,-43.60122 c 3.31031,-3.0806 6.70559,-7.0181 7.54507,-8.75 0.83949,-1.73183 3.78146,-6.2988 6.53771,-10.1488 11.38874,-15.90804 13.57437,-19.31931 16.65846,-26 3.13044,-6.78107 7.04969,-22.193 5.92873,-23.31395 -0.30366,-0.30366 -1.78225,0.43384 -3.28575,1.6389 -1.50349,1.20505 -5.01245,3.25065 -7.79768,4.54576 -2.78523,1.29512 -6.52581,4.10403 -8.31241,6.24203 C 746.57947,937.0028 728,980.26608 728,988.80498 c 0,1.881 3.63384,-0.1902 8.84941,-5.044 z m -19.81819,-8.3301 c 8.17952,-6.14595 14.56345,-12.67698 16.41797,-16.79624 0.93411,-2.07485 2.29159,-5.12246 3.01663,-6.77246 7.58561,-17.26285 15.18991,-29.24759 20.48622,-32.28726 2.16555,-1.24286 2.97152,-2.59069 3.39141,-5.67152 0.69065,-5.0675 -0.39026,-6.1562 -6.97096,-7.02121 -4.77404,-0.62753 -5.37407,-0.45752 -8.70399,2.46619 -1.96705,1.72709 -5.31785,6.59924 -7.44622,10.82699 -4.05993,8.06458 -5.63993,10.86556 -11.66917,20.68681 -4.33687,7.06448 -11.82565,22.51499 -13.32911,27.5 -1.73325,5.74694 -2.38737,11 -1.36972,11 0.51969,0 3.29932,-1.7691 6.17694,-3.9313 z M 696.432,963.61218 c 4.54182,-4.6203 6.9564,-8.00816 19.06515,-26.75 5.39173,-8.34528 7.46329,-11.4351 16.25285,-24.24177 1.9382,-2.82402 3.25,-5.97851 3.25,-7.81529 0,-3.03531 -0.13755,-3.11879 -9.49308,-5.76144 -11.65576,-3.29239 -13.30784,-3.33533 -14.4333,-0.37513 -0.48229,1.2685 -2.0186,3.66322 -3.41403,5.3216 -1.39543,1.65837 -3.19853,5.68301 -4.00689,8.94363 -2.15382,8.68775 -9.34682,31.549 -11.52619,36.63326 -1.03574,2.41629 -2.20859,7.63368 -2.60633,11.5942 -0.89487,8.91075 0.18523,9.29375 6.91182,2.45094 z m -32.73653,-6.74925 c 1.17727,-0.8246 3.17306,-3.1871 4.43508,-5.25 1.26203,-2.06291 2.76144,-4.258 3.33202,-4.87798 0.57059,-0.61997 2.72132,-3.54497 4.77941,-6.5 2.05809,-2.95502 5.31646,-7.62277 7.24083,-10.37277 1.92436,-2.75 4.8663,-7.60106 6.53762,-10.78013 2.81263,-5.34996 9.23625,-14.55796 10.96638,-15.71987 0.75747,-0.5087 5.01319,-8.50657 5.01319,-9.42142 0,-0.82962 -10.15269,-3.57858 -13.21668,-3.57858 -6.84864,0 -14.10803,9.16823 -20.40849,25.77484 -2.40199,6.33111 -4.79553,12.02714 -5.31897,12.65785 -1.27243,1.53319 -7.977,17.02889 -9.57444,22.12858 -2.03918,6.50991 1.10671,9.5168 6.21405,5.93948 z m -23.02698,-15.02506 c 5.74134,-6.33807 5.21981,-5.65397 13.08151,-17.15937 3.4375,-5.03069 6.25,-9.56917 6.25,-10.0855 0,-0.51632 1.10761,-2.13391 2.46136,-3.59462 3.17871,-3.42989 11.38206,-20.25201 11.75295,-24.10107 0.28272,-2.93401 0.1868,-2.99348 -9.21431,-5.71351 -5.225,-1.51175 -12.83236,-3.9243 -16.90525,-5.36121 -4.07288,-1.43692 -9.20518,-2.69084 -11.4051,-2.78649 -3.68474,-0.16022 -4.18208,0.1412 -6.31295,3.82608 -3.28925,5.68804 -7.3767,14.36166 -7.3767,15.65347 0,2.20904 -5.45615,13.50858 -9.31609,19.29337 -2.18244,3.27076 -5.02913,8.34609 -6.32599,11.27851 -6.67794,15.10001 1.85311,13.49065 15.2151,-2.87029 8.86308,-10.85228 15.42645,-17.72012 17.59117,-18.40717 4.82486,-1.53135 6.37906,5.20235 2.75949,11.95569 -1.14198,2.13068 -3.39149,7.52402 -4.99892,11.98519 -1.60743,4.46118 -3.41128,8.95379 -4.00856,9.98358 -0.59728,1.02979 -1.333,4.26591 -1.63493,7.19138 -0.51539,4.99361 -0.42341,5.2862 1.50336,4.78234 1.12879,-0.29519 4.22652,-2.93686 6.88386,-5.87038 z M 506,938.94825 c 0,-0.22767 -3.00226,-2.14017 -6.67168,-4.25 -8.38074,-4.81874 -11.1844,-6.47671 -14.32832,-8.47319 -8.75946,-5.56251 -40.45158,-24.61936 -44.79575,-26.93622 -1.81267,-0.96674 -3.83767,-2.17587 -4.5,-2.68695 -0.66234,-0.51108 -2.02008,-1.22084 -3.0172,-1.57725 -1.66092,-0.59366 -1.64411,-0.41801 0.20046,2.09477 4.14119,5.64135 13.5494,13.40459 26.61249,21.95947 11.20449,7.3377 19.31393,11.28591 31.5,15.33632 5.225,1.73668 10.175,3.54653 11,4.02188 1.57525,0.90764 4,1.2175 4,0.51117 z m 86.5,-24.06706 c 7.16061,-7.3314 17.33194,-18.7431 26.10426,-29.28762 3.6273,-4.3601 8.39574,-12.6974 8.39574,-14.6794 0,-1.25362 -25.92452,-10.37508 -36,-12.66649 -1.925,-0.43779 -4.66573,-1.07987 -6.09051,-1.42683 -2.28239,-0.55581 -2.94471,-0.0556 -5.56834,4.20524 C 573.82374,869.98653 570,876.49236 570,876.91941 c 0,0.23339 -3.7183,5.94099 -8.26289,12.68356 -11.59088,17.19679 -13.9465,22.75921 -9.63824,22.75921 4.42518,0 9.06738,-3.55336 22.27,-17.04652 7.50917,-7.67441 14.27325,-13.95348 15.0313,-13.95348 0.75804,0 2.41369,0.83844 3.67922,1.8632 l 2.30096,1.86321 -2.15948,5.19629 c -1.18772,2.85796 -3.53298,7.23143 -5.21169,9.71881 -5.17074,7.66158 -7.0116,12.08821 -7.67786,18.46265 -0.64038,6.12691 -0.63985,6.12854 1.76405,5.36722 1.32255,-0.41886 6.00463,-4.44742 10.40463,-8.95237 z m 176,-3.12729 c 0,-0.47538 -0.73082,-1.00507 -1.62404,-1.17709 -1.0731,-0.20666 -1.79158,0.56361 -2.11788,2.27055 -0.46538,2.43448 -0.37181,2.50229 1.62405,1.17709 1.16483,-0.77342 2.11787,-1.79516 2.11787,-2.27055 z m 14.0589,-8.09709 c 0.93888,-8.76712 -0.14415,-27.33553 -2.00027,-34.29463 -0.80683,-3.025 -2.58446,-10.03311 -3.9503,-15.57357 -3.24745,-13.17316 -5.5506,-19.0634 -13.02929,-33.32205 -3.8355,-7.31266 -4.08084,0.65916 -1.19706,38.89562 0.93332,12.375 2.04657,24.56321 2.47389,27.08491 0.90663,5.35019 3.78099,10.36993 8.18471,14.29366 1.72275,1.53498 3.77442,4.32774 4.55926,6.20615 2.3261,5.56712 4.13936,4.36411 4.95906,-3.29009 z M 772,906.58082 c 0,-0.86559 -9.65556,-11.21864 -10.46283,-11.21864 -0.27928,0 0.38393,1.4625 1.47379,3.25 1.08986,1.7875 1.98325,4.052 1.9853,5.03222 0.002,0.98023 1.01624,2.1892 2.25374,2.68662 2.86213,1.15043 4.75,1.24972 4.75,0.2498 z m -12,-3.21864 c 0,-0.55 -0.45,-1 -1,-1 -0.55,0 -1,0.45 -1,1 0,0.55 0.45,1 1,1 0.55,0 1,-0.45 1,-1 z m -3.75,-8.09854 c 3.16663,-3.51173 4.07565,-5.54925 3.97127,-8.90146 -0.0298,-0.95734 -1.50341,-19.51391 -1.70734,-21.5 -0.31595,-3.07695 -2.48243,-13.16472 -4.66919,-21.74109 -1.08558,-4.2576 -1.69319,-8.1951 -1.35024,-8.75 0.34294,-0.5549 0.25948,-1.00938 -0.18548,-1.00995 -0.74491,-9.5e-4 -3.65021,-10.41849 -4.88021,-17.49896 -0.8802,-5.0669 -2.76841,-9.5 -4.04637,-9.5 -0.66867,0 -1.42432,-0.5625 -1.67921,-1.25 -1.11218,-2.99982 -3.69556,2.21538 -5.1007,10.29706 -1.40936,8.10589 -1.45907,24.93614 -0.10028,33.95294 0.29009,1.925 0.70898,11.91718 0.93087,22.20485 0.2219,10.28767 0.71824,19.69668 1.10299,20.90893 0.38475,1.21224 2.28617,3.65761 4.22536,5.43415 3.08094,2.8225 3.91777,3.12169 6.63217,2.37114 1.7085,-0.47241 4.79386,-2.73033 6.85636,-5.01761 z m -23.076,-4.15146 c -0.52965,-5.94164 -1.45119,-6.38644 -4.62112,-2.23045 -1.51517,1.9865 -2.59691,3.74565 -2.40387,3.90922 0.37908,0.32122 6.01192,2.36249 6.87742,2.49228 0.28953,0.0434 0.35594,-1.83355 0.14757,-4.17105 z M 683,886.95445 c 0,-0.32575 -0.9,-0.59227 -2,-0.59227 -1.57468,0 -2,0.66667 -2,3.13486 l 0,3.13486 2,-2.54259 c 1.1,-1.39842 2,-2.80911 2,-3.13486 z m 39.84537,1.88439 c 1.64935,-1.38783 3.96605,-4.52138 5.14823,-6.96343 2.02322,-4.17943 2.08428,-5.01467 1.04007,-14.22667 -0.61014,-5.38261 -1.33854,-11.36156 -1.61865,-13.28656 -0.28011,-1.925 -0.68429,-7.775 -0.89817,-13 -0.67649,-16.52608 -4.02206,-39.97122 -5.47346,-38.35691 -1.28113,1.42494 -3.20395,7.48193 -4.55766,14.35691 -3.46373,17.59093 -4.72219,23.62623 -5.2129,25 -0.29469,0.825 -0.6971,2.85 -0.89425,4.5 -0.19715,1.65 -1.01572,6.375 -1.81904,10.5 -1.76521,9.0642 -3.06886,19.64214 -2.81659,22.85407 0.22803,2.90331 1.64277,4.66988 6.65709,8.31265 4.79783,3.4855 6.60757,3.5392 10.44533,0.30994 z M 703.5,886.36218 c -0.33992,-0.55 -1.06803,-1 -1.61803,-1 -0.55,0 -0.72189,0.45 -0.38197,1 0.33992,0.55 1.06803,1 1.61803,1 0.55,0 0.72189,-0.45 0.38197,-1 z m -5.89902,-4.57489 c 2.69296,-1.997 3.1844,-3.09764 3.73495,-8.36497 0.34867,-3.33597 1.50258,-10.00171 2.56424,-14.81277 4.82504,-21.86541 5.27574,-26.69301 4.08422,-43.74737 -0.61482,-8.8 -1.542,-16.43167 -2.06039,-16.95927 -1.80395,-1.83597 -7.60497,8.55063 -11.24234,20.12914 -7.86732,25.0433 -11.60282,35.83365 -15.29705,44.18697 -3.62828,8.20418 -3.24402,12.15469 1.63497,16.80883 6.91593,6.5972 10.58318,7.2075 16.5814,2.75944 z m -278.89677,-0.17511 c -0.29098,-0.9625 -1.50347,-5.34751 -2.69443,-9.74446 -1.19095,-4.39696 -2.41806,-8.22196 -2.72691,-8.5 -0.30884,-0.27805 -0.28273,3.27419 0.058,7.89386 0.42506,5.76264 1.1453,8.98035 2.29432,10.25 2.1155,2.3376 3.76159,2.39156 3.069,0.1006 z M 328,879.72303 c 2.475,-0.2125 11.17399,-0.49312 19.33108,-0.6236 17.72209,-0.2835 18.08337,-0.49743 17.28761,-10.23725 -0.26962,-3.3 -0.51912,-8.3625 -0.55445,-11.25 -0.0353,-2.8875 -0.50043,-5.25 -1.03356,-5.25 -0.53313,0 -4.69563,-2.2562 -9.25,-5.01379 -10.89373,-6.59594 -11.41555,-6.91663 -17.45015,-10.72436 -2.8432,-1.79402 -5.44685,-3.26185 -5.78588,-3.26185 -0.33903,0 -4.76277,-2.63426 -9.83054,-5.85391 -12.81002,-8.13846 -15.65074,-9.53331 -16.15219,-7.93106 -0.22119,0.70673 -0.91724,14.25375 -1.54679,30.10449 -0.93235,23.47462 -0.90361,29.10992 0.15493,30.38539 1.32165,1.59249 2.45778,1.57675 24.82994,-0.34406 z m 340.53688,-5.82118 c 2.17677,-1.66031 3.4505,-3.65886 3.91713,-6.1462 0.38031,-2.02723 1.29104,-4.63258 2.02385,-5.78967 3.28036,-5.17963 7.36022,-20.28898 7.85867,-29.1038 0.27991,-4.95 1.00425,-13.6384 1.60965,-19.30755 0.60539,-5.66916 0.81258,-10.77376 0.46043,-11.34356 -0.84702,-1.37051 -4.00139,4.33504 -9.40202,17.00616 -6.22993,14.61685 -12.62168,19.11167 -16.98184,11.94197 -1.62933,-2.67922 -1.85285,-4.35534 -1.36692,-10.25 0.3195,-3.87586 0.47172,-8.39702 0.33825,-10.04702 -0.13347,-1.65 -0.24462,-6.7125 -0.24699,-11.25 -0.002,-4.5375 -0.28395,-8.23155 -0.62571,-8.20901 -0.88032,0.0581 -5.12829,9.3316 -6.76356,14.76519 -0.75696,2.51519 -2.01046,5.54092 -2.78554,6.72385 -0.77508,1.18293 -1.88715,3.92558 -2.47125,6.09478 -0.58411,2.1692 -3.94443,8.4754 -7.46739,14.01379 -7.13916,11.22337 -9.20456,17.70981 -7.54871,23.70684 1.16243,4.20996 2.62477,5.18872 9.23266,6.17954 3.00982,0.45131 6.76224,2.06121 10,4.29029 2.85032,1.96235 6.98241,4.81747 9.18241,6.34471 4.95575,3.44027 6.93499,3.50836 11.03688,0.37969 z M 643.5,870.36218 c -0.33992,-0.55 -1.37898,-0.99311 -2.30902,-0.98469 -1.45727,0.0132 -1.48367,0.14929 -0.19098,0.98469 1.95837,1.2656 3.28218,1.2656 2.5,0 z m 142.89693,-21.42887 c 0.38837,-7.11088 0.85482,-13.18588 1.03654,-13.5 0.18173,-0.31412 0.6328,-6.64613 1.00238,-14.07113 0.36958,-7.425 0.8375,-14.175 1.03981,-15 0.20231,-0.825 0.66792,-7.06329 1.03469,-13.86287 0.81403,-15.09152 -0.0751,-15.50255 -6.28235,-2.9042 -4.75035,9.64136 -5.72042,14.98387 -6.66294,36.6952 -0.48759,11.2317 -0.30803,13.16097 1.86526,20.04062 1.32263,4.18687 2.99071,10.44928 3.70684,13.91647 1.67848,8.12638 2.31951,5.90148 3.25977,-11.31409 z m -212.64874,11.85744 c 4.62848,-5.35437 4.28553,-6.79081 -1.99819,-8.36922 -2.8875,-0.72531 -9.42956,-2.65198 -14.53792,-4.28149 -5.10835,-1.6295 -9.94585,-2.71026 -10.75,-2.40168 -3.51977,1.35066 0.0778,14.70647 4.91237,18.23694 1.66988,1.21944 3.94737,1.44769 10.62374,1.06472 8.34759,-0.47885 8.55582,-0.55415 11.75,-4.24927 z M 626,864.57779 c 0,-1.10977 -5.48445,-4.21561 -7.44413,-4.21561 -2.49799,0 -8.76787,-3.49681 -11.48018,-6.40268 -1.53158,-1.64088 -3.49116,-2.59732 -5.32143,-2.59732 -1.59342,0 -3.57212,-0.675 -4.39712,-1.5 -0.825,-0.825 -2.48035,-1.49832 -3.67857,-1.49626 -2.92636,0.005 -9.18716,3.89031 -8.06208,5.00312 0.48593,0.48062 7.18351,2.74518 14.88351,5.03234 25.92392,7.70027 25.5,7.5976 25.5,6.17641 z m -3.4576,-8.98092 c 0.57332,-0.40408 1.13841,-2.08469 1.25575,-3.73469 0.33944,-4.77306 3.04283,-13.12314 4.69175,-14.49162 0.83056,-0.6893 1.5101,-2.26821 1.5101,-3.5087 0,-1.24049 0.62507,-3.77289 1.38905,-5.62756 0.76398,-1.85466 1.70283,-5.84712 2.08633,-8.87212 0.38351,-3.025 1.49929,-8.875 2.47952,-13 3.5574,-14.97025 4.35777,-19.02066 3.85742,-19.52102 -0.81531,-0.81531 -9.01122,8.70534 -12.5792,14.61243 -3.66106,6.0612 -9.09131,12.22715 -12.26331,13.92475 -1.65315,0.88473 -2.6252,0.78443 -4.53687,-0.46814 -2.98138,-1.95348 -2.98137,-1.63876 -6.2e-4,-16.73188 1.33777,-6.77388 2.73628,-14.72436 3.10781,-17.66775 0.666,-5.27639 0.64236,-5.34165 -1.68232,-4.6435 -3.09327,0.92898 -5.19716,3.6145 -8.92954,11.39815 -2.62141,5.46677 -6.88205,12.0202 -10.95289,16.84696 -0.57983,0.6875 -0.77643,1.25 -0.43688,1.25 0.33954,0 -0.91738,1.79299 -2.79317,3.98442 -4.97187,5.80851 -8.8304,13.43107 -8.98346,17.74689 -0.0735,2.07278 0.69573,5.4972 1.70943,7.60983 1.9623,4.0896 3.98336,5.27987 13.73687,8.09005 3.28108,0.94534 7.83197,3.32341 10.70307,5.59289 9.32116,7.36795 13.70884,9.27027 16.63116,7.21061 z m -39.20733,-7.70583 3.83507,-3.38789 -4.2142,-2.78882 C 578.17124,838.54796 575,832.45166 575,826.42004 c 0,-3.33278 4.84899,-14.53373 6.9516,-16.05786 2.19658,-1.59226 14.77988,-20.59834 17.67077,-26.69032 1.88077,-3.96335 4.61393,-8.62549 6.07369,-10.36032 2.28565,-2.71634 3.12807,-3.07731 6.06825,-2.60018 4.36875,0.70895 6.23569,2.28774 6.23569,5.27326 0,1.30766 0.45,2.37756 1,2.37756 0.55,0 1,-0.46114 1,-1.02475 0,-2.23996 5.05051,-3.04512 8.58385,-1.36844 3.61327,1.71461 3.98347,2.92825 2.48596,8.14979 -1.18883,4.14518 -0.26006,4.10842 3.11646,-0.12333 3.23374,-4.05281 5.93905,-4.93422 8.86163,-2.88717 1.90775,1.33624 2.1058,2.15815 1.59985,6.63946 -0.63132,5.59178 -1.66835,10.73154 -4.13151,20.47665 -0.88445,3.49922 -1.43542,6.87422 -1.22436,7.5 0.41986,1.2449 4.41684,-7.20582 5.34768,-11.30649 0.98794,-4.35216 6.65856,-15.46569 8.81318,-17.27245 2.59375,-2.17499 2.8463,-2.17146 5.6252,0.0788 1.57752,1.27739 2.47573,3.32337 2.86078,6.51638 l 0.56128,4.65436 3.50896,-4.75442 c 1.92993,-2.61493 4.18863,-4.8853 5.01934,-5.04528 2.39955,-0.46211 4.93598,1.97749 6.35873,6.11599 l 1.31414,3.82259 2.11569,-3.58582 c 2.45714,-4.16455 5.4188,-4.68458 7.60781,-1.33583 1.09797,1.67966 1.37985,4.53134 1.11204,11.25 -0.19731,4.95 -0.67193,9.7875 -1.05471,10.75 -0.40128,1.009 -0.24357,1.75 0.37247,1.75 0.58764,0 1.55184,-1.79521 2.14267,-3.98936 1.5161,-5.63037 8.529,-18.26664 10.97569,-19.77666 C 707.1013,790.43106 712,795.67503 712,804.3301 c 0,4.8663 1.31928,5.21475 2.96127,0.78212 1.97863,-5.34143 2.62468,-6.2068 5.36203,-7.18239 3.84887,-1.37174 6.27834,1.2826 7.07149,7.72603 0.35248,2.8635 1.16684,8.58136 1.8097,12.70636 l 1.16881,7.5 1.28425,-8.83307 c 0.77852,-5.35463 2.20195,-10.474 3.61463,-13 1.97916,-3.53891 2.77012,-4.13404 5.24809,-3.94868 6.23593,0.46645 8.44165,3.84429 12.00485,18.38425 1.8756,7.65356 3.47488,9.00876 3.47488,2.94455 0,-4.26981 1.59509,-8.68017 3.38545,-9.36064 2.90066,-1.10246 5.71069,1.52295 8.84572,8.26456 3.35001,7.20393 4.67379,8.56969 4.89383,5.04903 0.0688,-1.1 0.20401,-2.3375 0.30057,-2.75 0.0966,-0.4125 0.52803,-4.96275 0.95881,-10.11166 1.27341,-15.22052 4.57988,-24.45379 12.75871,-35.62853 2.70448,-3.69514 2.79303,-4.08335 1.19754,-5.25 -1.77129,-1.2952 -10.64,-1.81524 -27.06179,-1.58684 -7.51852,0.10458 -9.85811,0.52192 -12.67082,2.26027 -3.56268,2.20186 -5.01849,1.64801 -5.08159,-1.93324 -0.0204,-1.15524 -1.6019,-1.56851 -6.88103,-1.79807 -5.61932,-0.24436 -7.08706,0.0198 -8.14445,1.46589 -1.23146,1.68411 -1.54988,1.682 -7.03364,-0.0466 -6.80547,-2.14524 -16.75994,-3.10822 -52.96731,-5.12401 -36.68221,-2.04223 -40.93521,-2.39335 -48.93779,-4.0402 -3.81579,-0.78525 -13.60615,-1.72863 -21.75636,-2.09641 -17.39171,-0.7848 -18.69942,-0.36327 -25.58733,8.24781 -6.50554,8.13308 -9.69237,15.00918 -9.7065,20.94336 -0.0106,4.44417 0.40893,5.47506 3.48798,8.57126 1.925,1.93572 5.975,4.58897 9,5.8961 7.29127,3.15065 8.10195,3.98087 3.88715,3.98087 -4.17445,0 -12.5201,-3.83941 -15.53216,-7.14556 -3.75641,-4.12319 -6.3474,-9.25436 -6.35125,-12.57801 -0.005,-4.51771 5.93174,-16.21141 11.59797,-22.84381 5.55857,-6.50636 5.122,-7.3931 -3.65171,-7.41731 -3.0525,-0.008 -5.9775,-0.4157 -6.5,-0.90506 -0.5225,-0.48936 -10.175,-1.62464 -21.45,-2.52285 -11.275,-0.8982 -25.45,-2.06778 -31.5,-2.59907 -9.15935,-0.80433 -40.50595,-3.4052 -66,-5.4761 -3.3,-0.26806 -9.825,-0.73563 -14.5,-1.03904 -4.675,-0.30341 -10.00545,-0.78745 -11.84544,-1.07564 l -3.34545,-0.52399 0.80362,18.31322 c 0.44199,10.07227 0.71987,22.69429 0.6175,28.04894 -0.21771,11.38749 -1.00701,10.54699 14.26977,15.19543 4.95,1.5062 15.075,4.6937 22.5,7.08334 23.70713,7.62983 43.48459,13.92667 44,14.00893 0.275,0.0439 5,1.47826 10.5,3.18749 5.5,1.70923 14.05,4.31851 19,5.7984 4.95,1.47989 11.13236,3.37082 13.73858,4.20207 5.72696,1.8266 7.15393,1.38172 9.33366,-2.90993 2.18112,-4.29437 8.05162,-11.51754 10.78154,-13.2658 1.18042,-0.75595 4.65906,-1.67825 7.7303,-2.04955 4.51293,-0.54559 5.9054,-0.35376 7.25919,1.00003 2.16421,2.16421 1.16997,3.70806 -2.19244,3.40439 -4.91338,-0.44374 -9.62904,1.29234 -13.47625,4.9613 -3.40644,3.24861 -6.9364,8.99985 -7.11119,11.58602 -0.0623,0.92231 27.50763,10.38567 30.43661,10.44733 0.825,0.0174 3.22578,-1.49297 5.33507,-3.35631 z m -220.25856,0.72114 c 0.0421,-0.9625 0.22794,-2.54213 0.41303,-3.51029 0.30185,-1.57898 -0.37877,-14.25485 -1.99956,-37.23971 -0.31026,-4.4 -1.04628,-11.18257 -1.6356,-15.07238 -1.05475,-6.96198 -1.12832,-7.08933 -4.71293,-8.15808 -2.0028,-0.59714 -8.14145,-2.52901 -13.64145,-4.29306 -5.5,-1.76404 -12.83265,-4.03249 -16.29477,-5.04101 -3.46213,-1.00851 -7.69376,-2.53156 -9.40364,-3.38456 -6.59712,-3.29108 -7.26964,-2.65056 -8.62569,8.21521 -0.67035,5.37137 -1.47945,15.60887 -1.79802,22.75 l -0.57921,12.98388 4.85067,2.76805 c 2.66786,1.52242 6.87566,4.06472 9.35066,5.64955 9.30808,5.9603 42.53025,25.93916 43.25,26.0093 0.4125,0.0402 0.78443,-0.7144 0.82651,-1.6769 z m 302.8731,-21.42629 c 1.11513,-1.19695 2.28634,-3.10945 2.60268,-4.25 0.31633,-1.14054 1.96441,-5.35265 3.66239,-9.36024 2.94937,-6.96114 3.03263,-7.53049 1.86456,-12.75 -0.67247,-3.00491 -1.59744,-5.46347 -2.0555,-5.46347 -0.45805,0 -2.29276,2.58687 -4.07713,5.7486 -1.78437,3.16173 -3.83449,6.19923 -4.55583,6.75 -0.79857,0.60974 -1.57143,4.4054 -1.97605,9.70473 -0.90579,11.86311 0.22015,14.2517 4.53488,9.62038 z m -365.4492,-18.48541 c 0.18903,-1.56106 0.64622,-6.8883 1.01599,-11.8383 0.36977,-4.95 1.00401,-11.57755 1.40942,-14.72788 0.40541,-3.15033 0.70045,-7.5941 0.65565,-9.87504 l -0.0815,-4.14717 -18,-5.37059 c -9.9,-2.95383 -22.275,-6.72489 -27.5,-8.38013 -5.225,-1.65525 -10.26094,-3.00721 -11.19098,-3.00437 -0.93004,0.003 -1.93489,-0.38947 -2.233,-0.87182 -0.29812,-0.48236 -2.54993,-1.38261 -5.00404,-2.00056 -2.45411,-0.61795 -18.32425,-5.36585 -35.267,-10.55089 -26.14499,-8.00124 -47.8361,-13.37376 -49.05881,-12.15106 -0.44304,0.44304 21.44273,13.7967 30.84666,18.82117 1.32394,0.70738 7.80717,4.50087 14.40717,8.42998 6.6,3.92911 16.275,9.63716 21.5,12.68454 5.225,3.04738 9.99224,5.96601 10.59388,6.48584 0.60163,0.51983 2.62663,1.7223 4.5,2.67215 1.87336,0.94986 4.08112,2.29376 4.90612,2.98645 0.825,0.69269 4.53221,2.90998 8.23825,4.9273 3.70603,2.01732 11.58103,6.62368 17.5,10.23635 5.91896,3.61267 12.33675,7.46408 14.26175,8.55868 1.925,1.0946 4.12933,2.50472 4.89852,3.13361 2.20208,1.80043 12.54775,7.53051 12.92151,7.15674 0.18518,-0.18518 0.49135,-1.61393 0.68038,-3.175 z m 317.04988,-2.0883 c 4.44324,-4.97845 6.39445,-8.84153 6.98534,-13.82986 0.32054,-2.70608 0.95891,-6.61028 1.41861,-8.676 0.45969,-2.06573 0.45417,-3.99173 -0.0123,-4.28 -1.75711,-1.08595 -8.77865,9.4304 -9.87229,14.786 -3.28667,16.09495 -3.15156,17.18998 1.4806,11.99986 z m -212.98875,-19.5 c -0.36076,-5.0875 -0.85778,-11.5 -1.10449,-14.25 -0.84655,-9.43631 -2.4254,-29.00037 -2.44122,-30.25 -0.0111,-0.87493 -2.04121,-1.25015 -6.76583,-1.2505 l -6.75,-5.1e-4 0.3511,9.04333 c 0.58229,14.99832 -4.35965,24.95768 -12.38428,24.95768 -6.20576,0 -8.48091,-4.84414 -11.27209,-24 l -1.82137,-12.5 -3.93668,0 c -2.16517,0 -3.92508,0.45 -3.9109,1 0.027,1.04786 2.52659,12.55051 5.07083,23.33519 0.822,3.48436 1.7604,9.18208 2.08532,12.66161 0.32492,3.47952 0.89126,6.8126 1.25852,7.40685 0.36726,0.59424 6.49341,2.83358 13.61365,4.97631 7.12025,2.14272 15.6459,4.81421 18.9459,5.93663 10.09412,3.43331 9.82121,3.64614 9.06154,-7.06659 z m -46.96969,-11.42953 c -0.37638,-3.67375 -1.56353,-9.8522 -2.63809,-13.7299 -1.07457,-3.87771 -1.96643,-8.40942 -1.98192,-10.07047 -0.0155,-1.66106 -0.84886,-5.4951 -1.85194,-8.5201 -1.8189,-5.48523 -1.83695,-5.5019 -6.72185,-6.2067 C 341.70412,736.7668 334.775,736.17609 329,735.8428 c -5.775,-0.33329 -11.22397,-0.81293 -12.10882,-1.06588 -2.42163,-0.69225 -3.77994,1.63631 -4.77084,8.17873 -0.49203,3.24859 -1.46669,9.33369 -2.16591,13.52244 -0.69922,4.18876 -1.00622,8.30675 -0.68221,9.1511 0.69194,1.80316 17.77879,7.72962 41.08122,14.24874 2.66939,0.74679 5.10689,1.61125 5.41667,1.92102 1.87478,1.87479 2.44449,-0.0379 1.82174,-6.1163 z m 21.10887,-6.57047 c 1.12715,-1.2375 2.63406,-3.375 3.34869,-4.75 1.57294,-3.02642 1.91725,-21.43292 0.42878,-22.92164 -0.562,-0.56209 -4.31826,-1.32835 -8.34726,-1.70281 l -7.32545,-0.68083 0.48882,4.90264 c 0.62749,6.29331 3.63331,22.08203 4.77622,25.08812 1.11637,2.93628 3.98908,2.96424 6.6302,0.0645 z m 26.95522,-6.01903 c -0.27393,-0.67703 -0.48137,0.11903 -0.46099,1.76903 0.0204,1.65 0.2445,2.20394 0.49804,1.23097 0.25354,-0.97297 0.23687,-2.32297 -0.0371,-3 z m 386.6126,1.03492 c 0.27133,-1.24624 0.5726,-4.51589 0.66949,-7.26589 0.0969,-2.75 0.36265,-6.8 0.59058,-9 0.35486,-3.42507 1.28696,-16.19474 3.97816,-54.5 0.28981,-4.125 0.75487,-9.75 1.03348,-12.5 0.27861,-2.75 0.95257,-11.75 1.49769,-20 0.54512,-8.25 1.42867,-20.85 1.96346,-28 0.53479,-7.15 1.44933,-20.875 2.03232,-30.5 0.58298,-9.625 1.22512,-18.85 1.42697,-20.5 0.76921,-6.28803 1.9327,-23.12797 1.7942,-25.96871 -0.19068,-3.91112 -4.15331,-16.2376 -6.43951,-20.03129 -0.99435,-1.65 -1.81648,-3.675 -1.82695,-4.5 -0.0452,-3.5604 -1.4074,-4.14497 -6.5725,-2.82058 C 786.18395,530.13955 781,533.88939 781,536.79937 c 0,1.20989 0.62798,4.41898 1.39551,7.13131 2.20697,7.7991 2.86873,17.4315 1.19757,17.4315 -1.63513,0 -2.44049,-2.82564 -3.12,-10.94668 -0.27607,-3.29949 -0.94546,-7.16557 -1.48752,-8.59129 C 778.4435,540.39848 778,538.14485 778,536.81613 c 0,-2.38265 -0.75465,-2.81025 -6.48852,-3.6765 -1.09368,-0.16523 -2.1416,-1.09535 -2.32871,-2.06694 -0.29489,-1.53124 0.38741,-1.74275 5.12277,-1.58801 4.06649,0.13288 6.19554,-0.3358 8.32872,-1.83346 1.57616,-1.10658 4.50759,-2.31114 6.51429,-2.67679 5.10492,-0.93018 8.85145,-4.11666 8.85145,-7.52828 0,-1.52398 0.86985,-5.29913 1.933,-8.38923 1.06315,-3.0901 2.22351,-7.77305 2.57857,-10.40655 0.35507,-2.63351 1.2859,-7.10978 2.06851,-9.94729 0.78262,-2.8375 1.84422,-7.7875 2.35912,-11 0.5149,-3.21249 1.65043,-8.3159 2.52338,-11.3409 0.87296,-3.025 1.798,-9.1 2.05565,-13.5 0.25765,-4.4 0.7527,-11.375 1.10011,-15.5 0.69812,-8.28907 0.65557,-36.18819 -0.0607,-39.78083 -0.25009,-1.25446 -0.93152,-6.55687 -1.51428,-11.78314 -1.37329,-12.3158 -11.31758,-56.41051 -16.44861,-72.93603 -3.34364,-10.76885 -10.98725,-30.04677 -18.83354,-47.5 -3.17754,-7.06811 -12.59449,-24.19294 -13.7475,-25 -0.39288,-0.275 -1.29401,-1.625 -2.0025,-3 -2.45488,-4.7643 -12.31633,-19 -13.1618,-19 -0.46716,0 -0.84941,-0.42744 -0.84941,-0.94987 0,-1.37043 -5.50352,-9.45336 -11.94957,-17.55013 -7.55977,-9.49569 -14.36055,-18.92674 -22.58296,-31.31713 C 706.6006,161.21115 674.4667,129.18176 663.5,120.7336 651.61407,111.57731 649.6524,110.35745 628,98.658073 c -17.85991,-9.65021 -21.71715,-11.55685 -32.5,-16.06482 -2.75,-1.14969 -9.95,-4.30383 -16,-7.00919 -18.83605,-8.422869 -30.12321,-12.22188 -36.31217,-12.22188 -2.16501,0 -5.79803,-0.656829 -8.07338,-1.45962 -3.85812,-1.361223 -4.37618,-1.318508 -7.6848,0.633627 l -3.54779,2.093247 2.7891,2.911194 c 2.64856,2.764492 2.71259,3.047515 1.27073,5.616373 -2.73162,4.866719 -6.56854,3.125499 -4.45471,-2.021577 0.51949,-1.264926 0.0143,-2.043358 -1.88891,-2.910515 -3.10574,-1.415071 -3.33775,-3.883351 -0.59807,-6.362729 1.1,-0.995486 2,-2.158299 2,-2.584029 0,-1.224782 -13.03197,-4.553912 -35,-8.941057 -15.91265,-3.17785 -20.77354,-3.992976 -29.5,-4.946879 -17.88929,-1.955507 -40.51042,-4.916443 -41.30294,-5.406245 -0.46449,-0.287073 -4.63635,-0.783036 -9.2708,-1.102138 C 403.29182,38.562732 397.025,37.755074 394,37.087039 c -7.87841,-1.739852 -73.90748,-1.624681 -88.5,0.154366 -13.79251,1.681513 -27.38487,4.343984 -39,7.639317 -4.95,1.404366 -11.475,3.032402 -14.5,3.617856 -13.90465,2.691088 -36.22695,9.355024 -39.5,11.792039 -0.55,0.409514 -3.7,1.802834 -7,3.096265 -7.33637,2.875484 -19.90245,9.465216 -24.09439,12.635251 -1.70192,1.28703 -3.50192,2.34509 -4,2.35125 -1.98864,0.0246 -26.15029,16.0982 -35.3081,23.488797 -2.04454,1.65 -5.4405,4.35 -7.54657,6 -12.74041,9.98144 -26.81381,22.33808 -39.07515,34.30852 -7.71332,7.53031 -18.7712,18.19148 -24.57308,23.69148 -12.11772,11.48723 -21.72107,21.723 -27.72364,29.54933 -2.29927,2.99787 -6.42599,8.37567 -9.17048,11.95067 -2.74449,3.575 -6.30988,7.91527 -7.92309,9.64504 C 21.76688,221.6379 11.9378,236.85891 8.23042,244.65708 6.45369,248.39428 5,251.58387 5,251.74507 c 0,0.1612 -2.925,5.59679 -6.5,12.07909 -3.575,6.4823 -6.5,12.03227 -6.5,12.33327 0,0.301 -0.623822,1.2577 -1.38627,2.12601 -2.038799,2.32187 -12.146943,27.68985 -18.759028,47.07874 -1.031599,3.025 -2.151829,6.175 -2.4894,7 -4.314004,10.54312 -13.573135,39.90242 -14.664847,46.5 -0.273028,1.65 -1.888301,9.9716 -3.589494,18.49245 -3.158106,15.81815 -5.500996,43.03629 -4.935853,57.34147 0.313151,7.92664 1.050087,8.66608 8.636706,8.66608 3.174091,0 5.388843,0.53685 6.188186,1.5 1.488643,1.7937 1.294458,1.84733 -7,1.93292 -5.115519,0.0528 -6.433169,0.37407 -6.186236,1.50837 0.17257,0.79271 0.526984,4.39041 0.787586,7.99489 0.260603,3.60448 1.157965,10.3809 1.994139,15.05871 0.836174,4.67781 2.400898,13.68011 3.477166,20.00511 4.909556,28.85244 15.235303,58.36837 26.648825,76.17511 2.353186,3.6713 4.27852,6.96798 4.27852,7.32595 0,1.26969 9.46557,13.09964 15.935,19.91535 9.23041,9.7245 13.97785,14.33059 20.69987,20.08359 5.34286,4.57265 10.80456,9.42095 17.36513,15.41488 1.375,1.25623 5.15729,4.10347 8.4051,6.32718 3.2478,2.22371 6.6228,4.63485 7.5,5.35809 4.15533,3.42603 21.7158,16.06661 31.5949,22.74301 17.57004,11.87401 34.32487,21.09728 48.28241,26.57869 2.90532,1.14098 6.28117,2.72893 7.50188,3.52877 3.03023,1.98548 11.31682,3.08545 45.44098,6.03187 l 29.22527,2.52343 12.27473,-2.00277 c 15.48292,-2.52621 22.11646,-2.45981 32.77473,0.32809 7.04276,1.84218 8.5,2.56155 8.5,4.19606 0,1.54338 0.76171,2.02351 3.5,2.20618 1.925,0.12842 8,0.67793 13.5,1.22114 22.94981,2.26666 24.49972,2.32338 24.50508,0.89687 0.009,-2.37066 7.14188,-12.50708 9.98162,-14.18456 1.50558,-0.88937 5.20551,-1.90711 8.22206,-2.26165 9.42402,-1.1076 17.00333,4.04287 20.72254,14.08187 2.49013,6.72146 3.26221,7.47578 7.6741,7.49754 3.09728,0.0153 3.10699,-0.002 3.71647,-6.52859 0.80233,-8.59196 2.29154,-11.42801 7.51346,-14.30858 l 4.32411,-2.38532 3.50725,3.3689 c 5.72714,5.5012 7.19836,8.20682 7.85909,14.45305 0.34418,3.25372 1.01936,6.32103 1.5004,6.81625 1.22069,1.25667 13.51223,1.34859 13.31954,0.0996 -0.0848,-0.55 -0.6675,-8.875 -1.29477,-18.5 -0.62727,-9.625 -1.31817,-19.3 -1.53533,-21.5 -0.21716,-2.2 -0.88774,-10.2662 -1.49019,-17.92489 -0.60244,-7.65869 -1.51392,-15.79264 -2.0255,-18.07544 -1.46203,-6.52384 -2.21708,-15.88417 -2.46026,-30.49967 -0.12354,-7.425 -0.57571,-16.5375 -1.00482,-20.25 -0.56461,-4.88476 -0.4613,-6.75 0.37386,-6.75 1.30291,0 1.83165,1.17336 2.47839,5.5 0.24664,1.65 0.50187,3.225 0.56719,3.5 0.0653,0.275 1.00686,-1.39391 2.09235,-3.70869 3.92603,-8.3722 15.01234,-14.96953 22.36756,-13.31066 4.1612,0.9385 15.1962,7.50927 16.51415,9.83331 0.88502,1.56062 1.05845,1.54762 2.33157,-0.17486 1.21142,-1.639 1.55108,-1.68524 2.84848,-0.38785 0.81017,0.81018 2.30525,4.12258 3.3224,7.3609 2.9615,9.42859 3.58373,10.38785 6.73818,10.38785 2.16435,0 2.83102,0.47097 2.83102,2 0,1.54664 -0.66667,2 -2.94098,2 -3.83898,0 -4.49228,1.26148 -2.57421,4.97063 1.48786,2.8772 1.46765,3.02937 -0.40243,3.02937 -1.08293,0 -2.66949,-1.00013 -3.52568,-2.22251 -2.15199,-3.0724 -2.10862,-0.19734 0.0795,5.27136 2.05375,5.13283 9.56738,10.86034 20.76035,15.82528 7.89717,3.50299 8.4216,3.5944 20.60343,3.59133 7.31662,-0.002 13.89531,-0.5087 15.86487,-1.22233 3.68264,-1.33431 5.33032,-0.91537 4.53644,1.15345 -0.95135,2.47919 -5.86346,3.86485 -15.40131,4.34456 -16.74074,0.84198 -30.69711,-3.41858 -41.88058,-12.78517 -7.71568,-6.46219 -10.40062,-11.31596 -12.01491,-21.72031 -1.98912,-12.82023 -3.23902,-17.24206 -5.70064,-20.16754 -2.87983,-3.42248 -9.3236,-6.96203 -13.15424,-7.2256 -3.59034,-0.24703 -10.33553,3.28242 -13.53121,7.08027 -8.07725,9.59927 -9.67441,35.9425 -3.77843,62.32059 1.42316,6.36705 5.86481,38.64458 7.12214,51.75662 0.60651,6.325 1.41983,13.05832 1.80737,14.96294 0.91852,4.51416 0.33056,4.3846 29.6305,6.52924 4.4,0.32207 15.425,1.2194 24.5,1.99408 9.075,0.77467 22.8,1.90518 30.5,2.51222 7.7,0.60705 19.01341,1.53249 25.14091,2.05654 17.60709,1.50583 23.30941,1.8969 31.78918,2.18012 l 7.9301,0.26486 -0.22976,-11.5 c -0.12637,-6.325 -0.39692,-12.175 -0.60122,-13 -0.20431,-0.825 -0.66351,-5.69218 -1.02045,-10.81595 -0.35693,-5.12377 -0.78633,-10.07377 -0.95421,-11 -0.16787,-0.92623 -0.62777,-4.83405 -1.02198,-8.68405 -1.3115,-12.80845 -5.40065,-41.47756 -6.07068,-42.56169 -0.19955,-0.32289 -0.72261,-5.0536 -1.16235,-10.51269 -1.95717,-24.29716 1.14239,-43.68787 7.93071,-49.61422 3.0278,-2.64333 7.69665,-3.31282 9.63032,-1.38093 2.04164,2.03976 2.17666,12.51974 0.265,20.56953 -0.71838,3.025 -1.67839,8.65 -2.13337,12.5 -0.45498,3.85 -1.36119,10.6 -2.0138,15 -1.80844,12.19277 -1.98157,49.5811 -0.30993,66.93163 0.79123,8.21239 1.59748,21.19786 1.79167,28.8566 0.1942,7.65873 0.79526,14.36715 1.33571,14.9076 1.21979,1.21979 0.8795,1.18787 45.70417,4.28792 3.3,0.22823 8.25,0.86021 11,1.40441 6.87879,1.36125 12.83627,1.82669 52.74955,4.12124 19.11226,1.09873 38.01226,2.48034 42,3.07024 3.98775,0.5899 20.95589,1.28124 37.70698,1.53632 16.75109,0.25507 30.5528,0.55833 30.67047,0.6739 0.11767,0.11558 1.99915,0.32979 4.18107,0.47603 3.41607,0.22895 4.03567,-0.0489 4.46047,-2 z M 727.5,628.53237 c -7.58327,-4.86701 -12.62969,-13.88939 -14.27206,-25.51665 -1.10683,-7.8359 -0.74424,-40.75685 0.58543,-53.15354 1.80439,-16.8225 2.83442,-24.1211 3.57275,-25.31574 0.36992,-0.59855 1.49091,-5.04737 2.49108,-9.88626 1.24353,-6.01628 2.26183,-8.798 3.22065,-8.798 2.22054,0 2.23133,4.07974 0.034,12.86137 -1.12003,4.47625 -2.30255,10.16363 -2.62782,12.63863 -0.32526,2.475 -0.99589,6.975 -1.49028,10 -2.45397,15.01512 -3.20254,48.0573 -1.33473,58.91611 2.26404,13.16238 4.05118,17.82429 8.48092,22.1232 5.31513,5.15817 7.75608,5.10433 13.11652,-0.28931 4.60602,-4.63456 6.05567,-8.35149 11.79789,-30.25 1.73065,-6.6 3.58085,-13.575 4.11156,-15.5 1.67562,-6.07787 2.68763,-11.06911 5.53053,-27.27674 2.20872,-12.59214 3.07174,-15.71713 4.27543,-15.4814 3.19467,0.62563 1.0962,17.73825 -5.18197,42.25814 -8.46236,33.05042 -9.93966,37.90123 -13.77217,45.22174 -3.93017,7.50704 -12.85755,11.09406 -18.53773,7.44845 z M 401.34733,583.82493 c -0.32444,-0.84548 0.0981,-2.30798 0.939,-3.25 C 404.06386,578.58364 414,562.50298 414,561.61752 c 0,-0.32882 0.60089,-1.30829 1.33531,-2.1766 0.73441,-0.86831 1.94637,-3.15374 2.69322,-5.07874 0.74686,-1.925 1.63476,-3.725 1.97312,-4 0.33835,-0.275 2.78429,-4.55 5.43542,-9.5 4.64384,-8.67065 8.84686,-14.78393 13.06293,-19 5.45694,-5.45694 10.55495,-12.53707 9.31497,-12.93664 -0.72323,-0.23306 -4.8324,-0.72135 -9.13149,-1.0851 -5.44426,-0.46065 -7.98557,-1.10191 -8.37354,-2.11294 -0.30636,-0.79837 -0.35918,-1.64942 -0.11737,-1.89122 0.49598,-0.49598 34.61982,2.31714 36.55743,3.01374 2.23241,0.80258 1.33277,3.36903 -1.29549,3.69574 -2.14457,0.26658 -3.24073,1.81272 -6.95956,9.81642 -5.60726,12.06798 -6.00098,17.55497 -1.52965,21.31735 5.66172,4.76402 15.34436,4.15646 25.50821,-1.60057 4.17883,-2.36699 5.6199,-5.0468 9.10052,-16.9233 0.91982,-3.13859 2.50634,-6.46123 3.5256,-7.38365 2.57556,-2.33085 1.5044,-3.40719 -3.40865,-3.42514 -5.05933,-0.0185 -7.71707,-1.3586 -6.03344,-3.04223 0.84429,-0.84429 3.83132,-0.86684 11.49164,-0.0867 5.69295,0.57974 14.17582,1.32472 18.85082,1.65552 10.29699,0.7286 12,1.17564 12,3.15 0,1.23295 -0.91331,1.41878 -4.75,0.96649 -13.89397,-1.63788 -21.25,-1.82361 -21.25,-0.53652 0,0.71465 -1.15066,2.50039 -2.55701,3.96831 -1.57797,1.64704 -3.1095,5.03724 -3.99996,8.8543 -1.95311,8.3722 -3.78509,11.59703 -8.54825,15.04745 -5.59243,4.05114 -16.06485,7.41702 -20.49252,6.58638 C 456.48701,547.04971 449,541.04031 449,534.94201 c 0,-3.47354 2.7067,-12.17818 5.4158,-17.417 0.89956,-1.73956 1.33627,-3.16283 0.97047,-3.16283 -1.70054,0 -14.35825,11.28041 -18.06977,16.10357 -2.28396,2.96804 -7.45202,11.38285 -11.48458,18.69959 -4.03256,7.31674 -7.78192,14.07039 -8.33192,15.00812 -0.55,0.93773 -2.93829,5.2146 -5.3073,9.50414 -5.90861,10.69865 -9.38548,13.95174 -10.84537,10.14733 z m 337.66164,-52.38535 c -5.2988,-0.47135 -6.55667,-0.92281 -6.84847,-2.45797 -0.34045,-1.79116 0.25332,-1.84668 12.48772,-1.16771 11.95388,0.6634 15.35178,1.47586 15.35178,3.67072 0,0.9329 -10.24436,0.91092 -20.99103,-0.045 z M 700,529.1479 c -13.54598,-1.1637 -15,-1.4965 -15,-3.43326 0,-1.42843 1.37773,-1.53346 12.25,-0.93386 13.61828,0.75105 18.49114,1.98346 16.64375,4.20943 -0.62625,0.75458 -1.64604,1.30171 -2.26619,1.21585 C 711.0074,530.12019 705.775,529.64402 700,529.1479 z m 70.42585,-5.03468 -4.81704,-2.9982 -2.09197,2.62358 c -1.99437,2.50117 -5.84321,3.52256 -6.89021,1.82848 -0.81673,-1.3215 6.34946,-8.2049 8.54199,-8.2049 1.12347,0 3.40513,1.14644 5.07037,2.54764 1.66524,1.40121 3.7552,2.40935 4.64436,2.24032 5.89555,-1.12076 19.20284,-35.4621 21.65675,-55.8883 0.35678,-2.96982 0.81101,-6.4651 1.00941,-7.76731 0.19839,-1.3022 0.64319,-9.6272 0.98844,-18.5 0.65453,-16.82149 -0.19859,-22.43585 -3.98449,-26.22175 -1.341,-1.341 -1.8372,-1.2607 -4.53501,0.73388 -3.48271,2.57488 -8.10327,7.99657 -16.49547,19.35552 -3.2508,4.4 -8.41085,11.15984 -11.46676,15.02186 -3.05592,3.86203 -6.10717,7.91203 -6.78056,9 -8.66714,14.00332 -14.58565,24.18796 -17.26728,29.71374 -6.30004,12.98186 -8.53225,10.55236 -2.48891,-2.70888 1.9357,-4.24763 4.78859,-9.59131 6.33974,-11.87484 1.55115,-2.28353 4.25296,-6.85188 6.00402,-10.15188 1.75107,-3.3 7.78568,-12.10043 13.41026,-19.55651 5.62458,-7.45608 11.80151,-15.72604 13.72651,-18.37769 1.925,-2.65164 5.931,-7.46371 8.90222,-10.69349 7.89309,-8.57993 11.93473,-7.82794 16.66274,3.10029 1.55873,3.60281 1.93464,6.81157 1.93299,16.5 -0.002,10.87555 -0.99763,29.10855 -1.94028,35.5274 -2.07379,14.12122 -9.58774,36.69779 -16.2514,48.82934 -5.12798,9.33576 -7.06652,10.16279 -13.88042,5.9217 z m -118.16176,1.21305 c -8.43549,-0.5489 -12.16924,-2.1556 -9.25573,-3.9829 0.8204,-0.51454 2.16664,-0.74891 2.99164,-0.52082 0.825,0.22809 5.1,0.69488 9.5,1.03731 14.22933,1.1074 16.5,1.60602 16.5,3.62323 0,0.99045 -2.39747,0.9714 -19.73591,-0.15682 z m -45.04591,-3.42825 c -11.02826,-1.07705 -15.66179,-2.42557 -14.00997,-4.07738 0.75223,-0.75223 27.20484,1.06075 28.6676,1.96479 1.76705,1.0921 1.31303,3.59103 -0.62581,3.44441 -0.9625,-0.0728 -7.27682,-0.67211 -14.03182,-1.33182 z M 565.5,518.24317 c -2.75,-0.38818 -7.7757,-0.7452 -11.16821,-0.79338 C 547.10233,517.34711 545,516.71094 545,514.62598 c 0,-1.28467 1.13139,-1.41754 7.25,-0.8514 3.9875,0.36895 9.95,0.89887 13.25,1.17759 8.53462,0.72085 10.5,1.25659 10.5,2.86218 0,1.53113 -2.08697,1.61636 -10.5,0.42882 z M 405.91667,504.97001 c -0.54435,-0.51234 -15.82268,-1.66906 -23.11615,-1.75012 -5.52894,-0.0615 -10.08509,-1.90647 -8.53522,-3.45634 0.70748,-0.70749 31.45025,1.11936 36.4847,2.16805 3.63884,0.75798 2.79487,3.43058 -1.08333,3.43058 -1.83334,0 -3.52084,-0.17648 -3.75,-0.39217 z M 351,500.26185 c -2.475,-0.39213 -9.45,-1.00184 -15.5,-1.3549 -15.11154,-0.88187 -17.5,-1.32324 -17.5,-3.23386 0,-1.39222 1.06446,-1.50782 8.25,-0.89591 4.5375,0.3864 13.09257,1.10267 19.01126,1.59172 10.70679,0.88466 12.73874,1.35447 12.73874,2.94531 0,1.39051 -2.2674,1.69747 -7,0.94764 z m -70,-5.99574 c -4.675,-0.44477 -10.75,-0.85608 -13.5,-0.91404 -7.23369,-0.15244 -10.5,-0.95171 -10.5,-2.56935 0,-1.79306 1.21526,-1.78584 22.37137,0.13305 11.87955,1.07748 17.57736,1.99684 18.59292,3 1.27973,1.26411 0.8386,1.4283 -3.5,1.3027 -2.73036,-0.079 -8.78929,-0.5076 -13.46429,-0.95236 z m -56.09169,-4.32895 c -0.23376,-0.23376 -4.91255,-0.73436 -10.39732,-1.11245 C 203.61238,488.07344 200,487.13465 200,485.0536 c 0,-2.31178 0.92745,-2.49171 5.7942,-1.12408 2.58819,0.72733 9.74269,1.75483 15.89889,2.28334 11.23434,0.96448 13.30691,1.46418 13.30691,3.20834 0,0.908 -9.22785,1.3798 -10.09169,0.51596 z M 162,484.35161 c -3.575,-0.41124 -9.82768,-1.01728 -13.89484,-1.34675 -4.06717,-0.32947 -7.61026,-0.81445 -7.87354,-1.07773 -0.26328,-0.26328 -0.19391,-1.22083 0.15416,-2.12789 0.42799,-1.11533 1.35819,-1.47361 2.87354,-1.10678 1.23237,0.29833 8.76568,1.09653 16.74068,1.77378 13.39344,1.13738 16.66581,2.00963 15.375,4.09819 -0.56336,0.91154 -4.08843,0.85545 -13.375,-0.21282 z m -56.5,-5.02792 c -3.3,-0.40944 -8.7225,-0.79328 -12.05,-0.85298 C 87.80798,478.3695 85,477.23075 85,475.0439 c 0,-1.00539 10.78104,-0.37025 31.25,1.84102 4.02569,0.43489 5.75,1.04942 5.75,2.04922 0,1.58735 -5.75164,1.72315 -16.5,0.38955 z m -56.78215,-4.577 c -0.11984,-0.11983 -4.26788,-0.50255 -9.21787,-0.85048 C 27.41753,473.04694 25,472.50484 25,470.64479 c 0,-1.32832 1.07069,-1.46159 7.25,-0.90243 3.9875,0.36082 12.425,1.10665 18.75,1.65739 12.54397,1.09227 15,1.59518 15,3.07152 0,0.7989 -16.49579,1.06179 -17.28215,0.27542 z M -6.5,470.15594 c -13.520151,-1.10566 -16.589297,-1.56328 -18.47104,-2.7541 -3.11478,-1.97112 0.362975,-2.1591 16.136939,-0.87223 C 4.35383,467.60551 7.5,468.14846 7.5,469.34848 c 0,1.86738 -0.60933,1.90253 -14,0.80746 z m 312.45463,286.95624 c 0.71536,-4.5375 1.43888,-9.35621 1.60782,-10.70825 0.16894,-1.35204 0.59993,-4.58694 0.95776,-7.18867 l 0.65059,-4.73041 -3.3354,-0.51802 c -1.83447,-0.28491 -6.9354,-0.77258 -11.3354,-1.08372 -4.4,-0.31114 -14.975,-1.20987 -23.5,-1.99717 -27.96693,-2.58281 -46.54514,-3.71733 -50.05171,-3.05652 -1.89656,0.3574 -10.0991,0.91005 -18.22787,1.22812 l -14.77958,0.57829 9.77958,3.21131 c 5.37877,1.76622 12.47958,3.99065 15.77958,4.94317 3.3,0.95253 7.125,2.10671 8.5,2.56484 1.375,0.45813 7.225,2.26129 13,4.00703 5.775,1.74574 11.625,3.55458 13,4.01964 10.29926,3.48353 53.78798,16.68321 55.57698,16.8687 0.59987,0.0622 1.65319,-3.54319 2.37765,-8.13834 z m 98.64954,-4.47917 c -0.33229,-0.33229 -0.56864,0.25834 -0.52522,1.3125 0.048,1.16495 0.28494,1.4019 0.60416,0.60417 0.28887,-0.72187 0.25335,-1.58438 -0.0789,-1.91667 z m -0.58945,-7.31767 -1.07114,-2.45316 0.51456,2.5 c 0.283,1.375 0.58198,3.4 0.66439,4.5 0.14597,1.94842 0.16032,1.94721 0.55658,-0.0468 0.22371,-1.12577 -0.0753,-3.15077 -0.66439,-4.5 z m -22.82165,-13.9685 c -0.36024,-6.43714 -2.68108,-10.94703 -6.61027,-12.84518 -2.58038,-1.24655 -3.01516,-1.16167 -5.19014,1.01332 -1.76326,1.76326 -2.5378,3.94248 -3.01127,8.47239 -0.74067,7.08635 -0.37517,7.52154 7.11861,8.47604 8.09387,1.03093 8.03913,1.06734 7.69307,-5.11657 z m 21.93102,3.74867 c -0.98762,-0.98026 -1.10248,-0.8654 -0.5598,0.5598 0.37553,0.98622 0.93469,1.54122 1.24258,1.23333 0.30789,-0.30789 6.4e-4,-1.11479 -0.68278,-1.79313 z M 348,732.94509 c 0,-3.28323 -4.08159,-10.54336 -7.31306,-13.00812 -5.47031,-4.17241 -14.17422,-4.23036 -18.28286,-0.12173 -1.80554,1.80554 -6.40708,10.87727 -5.8168,11.46756 0.53014,0.53014 20.44977,2.63913 27.66272,2.92879 2.64001,0.10601 3.75,-0.26887 3.75,-1.2665 z m 54.68708,-7.34457 c -0.25029,-0.95609 -0.446,0.0617 -0.4349,2.26166 0.0111,2.2 0.21589,2.98225 0.45508,1.73834 0.23919,-1.24391 0.23011,-3.04391 -0.0202,-4 z m -140.49958,1.07855 c -0.72188,-0.28887 -1.58438,-0.25335 -1.91667,0.0789 -0.33229,0.33229 0.25834,0.56864 1.3125,0.52522 1.16495,-0.048 1.4019,-0.28494 0.60417,-0.60416 z m -4.7399,-1.27496 c -2.39723,-0.97096 -8.46925,-1.44046 -13.4476,-1.0398 l -3.5,0.28168 4,0.71619 c 5.86757,1.05057 15.515,1.08182 12.9476,0.0419 z m 297.85002,-79.2627 c 0.32076,-4.55358 0.84941,-9.40423 1.17478,-10.77923 0.32537,-1.375 1.00431,-5.875 1.50874,-10 0.50443,-4.125 1.84694,-11.97059 2.98335,-17.43466 2.16978,-10.43271 1.75238,-13.13809 -1.69183,-10.96553 -5.90824,3.72682 -8.93109,18.78592 -7.70816,38.40019 0.39435,6.325 0.6537,12.4 0.57631,13.5 -0.21493,3.05531 0.81716,6.64401 1.74573,6.07012 0.45534,-0.28142 1.09033,-4.23732 1.41108,-8.79089 z"
       id="path3393"
       style="fill:#000000" />
    <text
       x="825.29462"
       y="527.08282"
       id="text3395"
       xml:space="preserve"
       style="font-size:30px;font-style:normal;font-variant:normal;font-weight:normal;font-stretch:normal;line-height:125%;letter-spacing:0px;word-spacing:0px;fill:#000000;fill-opacity:1;stroke:none;font-family:cmr10;-inkscape-font-specification:cmr10"><tspan
         x="825.29462"
         y="527.08282"
         id="tspan3397">Na'</tspan></text>
    <text
       x="802.45801"
       y="777.23334"
       id="text3395-2"
       xml:space="preserve"
       style="font-size:30px;font-style:normal;font-variant:normal;font-weight:normal;font-stretch:normal;line-height:125%;letter-spacing:0px;word-spacing:0px;fill:#000000;fill-opacity:1;stroke:none;font-family:cmr10;-inkscape-font-specification:cmr10"><tspan
         x="802.45801"
         y="777.23334"
         id="tspan3397-9">SNA</tspan></text>
    <text
       x="775.1839"
       y="1083.3096"
       id="text3395-7"
       xml:space="preserve"
       style="font-size:30px;font-style:normal;font-variant:normal;font-weight:normal;font-stretch:normal;line-height:125%;letter-spacing:0px;word-spacing:0px;fill:#000000;fill-opacity:1;stroke:none;font-family:cmr10;-inkscape-font-specification:cmr10"><tspan
         x="775.1839"
         y="1083.3096"
         id="tspan3397-3">Me'</tspan></text>
    <text
       x="665.58234"
       y="1079.774"
       id="text3395-8"
       xml:space="preserve"
       style="font-size:30px;font-style:normal;font-variant:normal;font-weight:normal;font-stretch:normal;line-height:125%;letter-spacing:0px;word-spacing:0px;fill:#000000;fill-opacity:1;stroke:none;font-family:cmr10;-inkscape-font-specification:cmr10"><tspan
         x="665.58234"
         y="1079.774"
         id="tspan3397-0">Me</tspan></text>
    <text
       x="372.63812"
       y="902.49225"
       id="text3395-9"
       xml:space="preserve"
       style="font-size:30px;font-style:normal;font-variant:normal;font-weight:normal;font-stretch:normal;line-height:125%;letter-spacing:0px;word-spacing:0px;fill:#000000;fill-opacity:1;stroke:none;font-family:cmr10;-inkscape-font-specification:cmr10"><tspan
         x="372.63812"
         y="902.49225"
         id="tspan3397-2">Go</tspan></text>
    <text
       x="849.26373"
       y="535.14685"
       transform="matrix(0.85507403,0.51850593,-0.51850593,0.85507403,0,0)"
       id="text3395-3"
       xml:space="preserve"
       style="font-size:30px;font-style:normal;font-variant:normal;font-weight:normal;font-stretch:normal;line-height:125%;letter-spacing:0px;word-spacing:0px;fill:#000000;fill-opacity:1;stroke:none;font-family:cmr10;-inkscape-font-specification:cmr10"><tspan
         x="849.26373"
         y="535.14685"
         id="tspan3397-1">CF6</tspan></text>
    <text
       x="668.10077"
       y="635.4541"
       transform="matrix(0.95335778,0.30184257,-0.30184257,0.95335778,0,0)"
       id="text3395-87"
       xml:space="preserve"
       style="font-size:30px;font-style:normal;font-variant:normal;font-weight:normal;font-stretch:normal;line-height:125%;letter-spacing:0px;word-spacing:0px;fill:#000000;fill-opacity:1;stroke:none;font-family:cmr10;-inkscape-font-specification:cmr10"><tspan
         x="668.10077"
         y="635.4541"
         id="tspan3397-4">CF7</tspan></text>
    <text
       x="504.5184"
       y="694.79047"
       transform="matrix(0.99556988,0.09402458,-0.09402458,0.99556988,0,0)"
       id="text3395-1"
       xml:space="preserve"
       style="font-size:30px;font-style:normal;font-variant:normal;font-weight:normal;font-stretch:normal;line-height:125%;letter-spacing:0px;word-spacing:0px;fill:#000000;fill-opacity:1;stroke:none;font-family:cmr10;-inkscape-font-specification:cmr10"><tspan
         x="504.5184"
         y="694.79047"
         id="tspan3397-6">CF4</tspan></text>
    <text
       x="566.08234"
       y="748.9491"
       id="text3395-38"
       xml:space="preserve"
       style="font-size:30px;font-style:normal;font-variant:normal;font-weight:normal;font-stretch:normal;line-height:125%;letter-spacing:0px;word-spacing:0px;fill:#000000;fill-opacity:1;stroke:none;font-family:cmr10;-inkscape-font-specification:cmr10"><tspan
         x="566.08234"
         y="748.9491"
         id="tspan3397-5">Pti</tspan></text>
    <text
       x="308.49341"
       y="761.07092"
       id="text3395-5"
       xml:space="preserve"
       style="font-size:30px;font-style:normal;font-variant:normal;font-weight:normal;font-stretch:normal;line-height:125%;letter-spacing:0px;word-spacing:0px;fill:#000000;fill-opacity:1;stroke:none;font-family:cmr10;-inkscape-font-specification:cmr10"><tspan
         x="308.49341"
         y="761.07092"
         id="tspan3397-01">Od</tspan></text>
    <text
       x="167.57715"
       y="714.60388"
       id="text3395-26"
       xml:space="preserve"
       style="font-size:30px;font-style:normal;font-variant:normal;font-weight:normal;font-stretch:normal;line-height:125%;letter-spacing:0px;word-spacing:0px;fill:#000000;fill-opacity:1;stroke:none;font-family:cmr10;-inkscape-font-specification:cmr10"><tspan
         x="167.57715"
         y="714.60388"
         id="tspan3397-48">Bo</tspan></text>
    <text
       x="84.239555"
       y="733.79675"
       id="text3395-56"
       xml:space="preserve"
       style="font-size:30px;font-style:normal;font-variant:normal;font-weight:normal;font-stretch:normal;line-height:125%;letter-spacing:0px;word-spacing:0px;fill:#000000;fill-opacity:1;stroke:none;font-family:cmr10;-inkscape-font-specification:cmr10"><tspan
         x="84.239555"
         y="733.79675"
         id="tspan3397-25">Om</tspan></text>
  </g>
</svg>
