<?xml version="1.0" encoding="UTF-8" standalone="no"?>
<!-- Created with Inkscape (http://www.inkscape.org/) -->

<svg
   xmlns:dc="http://purl.org/dc/elements/1.1/"
   xmlns:cc="http://creativecommons.org/ns#"
   xmlns:rdf="http://www.w3.org/1999/02/22-rdf-syntax-ns#"
   xmlns:svg="http://www.w3.org/2000/svg"
   xmlns="http://www.w3.org/2000/svg"
   version="1.1"
   width="1016"
   height="1234"
   id="svg2">
  <metadata
     id="metadata8">
    <rdf:RDF>
      <cc:Work
         rdf:about="">
        <dc:format>image/svg+xml</dc:format>
        <dc:type
           rdf:resource="http://purl.org/dc/dcmitype/StillImage" />
        <dc:title></dc:title>
      </cc:Work>
    </rdf:RDF>
  </metadata>
  <defs
     id="defs6" />
  <path
     d="m 784.33743,1126.9524 c -0.38568,-0.3857 -0.70124,-14.0484 -0.70124,-30.3617 l 0,-29.6605 -6.75,-1.2035 c -3.7125,-0.6619 -9.07893,-2.1283 -11.92541,-3.2587 l -5.1754,-2.0552 -4.46309,2.6155 c -2.51674,1.4749 -9.41781,3.7398 -15.82459,5.1935 -13.74951,3.1198 -24.85079,2.9393 -31.61992,-0.5141 -2.28905,-1.1677 -4.85484,-2.1232 -5.70175,-2.1232 -0.84691,0 -1.53984,-0.3987 -1.53984,-0.886 0,-0.4874 -3.0375,-2.7104 -6.75,-4.9401 -3.7125,-2.2297 -8.72281,-5.8841 -11.13402,-8.1209 l -4.38401,-4.067 -5.44216,4.757 c -7.67564,6.7093 -8.89478,7.2257 -17.09699,7.2423 -9.63806,0.019 -14.80487,-1.3003 -25.99007,-6.6386 -7.37345,-3.5191 -10.62886,-5.8088 -15.73262,-11.0654 -8.13646,-8.3802 -13.45338,-16.2873 -17.51905,-26.0534 l -3.19762,-7.6811 0.68122,-14.52335 c 1.30709,-27.8668 4.83207,-43.9214 13.17883,-60.0234 8.38771,-16.1809 29.25654,-42.8129 36.47207,-46.5442 1.64419,-0.8503 4.57661,-4.6504 7.46811,-9.6779 2.61851,-4.5528 7.32122,-12.1029 10.45048,-16.7779 13.42717,-20.05968 16.34445,-25.34018 17.12653,-30.99998 0.89314,-6.4635 3.05922,-8.7817 11.07016,-11.8475 18.68464,-7.1505 28.79477,-12.3702 31.60584,-16.3176 0.71869,-1.0092 2.12609,-1.8349 3.12756,-1.8349 2.52786,0 3.72174,-1.7855 4.5498,-6.8046 0.53758,-3.2584 1.11193,-4.2269 2.36307,-3.9848 1.20416,0.233 1.56736,1.1711 1.33789,3.4556 -0.28249,2.8123 0.0528,3.2572 3.25,4.3124 3.2571,1.0749 3.56498,1.5056 3.56498,4.9871 0,4.7205 -3.83353,18.0717 -8.04948,28.0343 -2.54672,6.0181 -3.49848,10.3625 -4.81688,21.9872 -1.42785,12.58978 -1.88653,14.53408 -3.50204,14.84518 -1.74538,0.3362 -1.81426,-0.2072 -1.12708,-8.8895 0.67154,-8.48468 0.59076,-9.19338 -0.9792,-8.59098 -0.94112,0.3612 -2.77819,0.9245 -4.08239,1.2518 -1.30419,0.3273 -2.66711,1.5629 -3.02871,2.7457 -0.3616,1.18288 -2.60666,4.53918 -4.98903,7.45858 -3.87524,4.7489 -4.22233,5.5917 -3.29465,8 1.47742,3.8356 0.53916,9.5294 -6.12874,37.192 -6.47806,26.8751 -8.10408,35 -7.00443,35 0.39839,0 4.62797,-5.6217 9.39906,-12.4927 5.06875,-7.2997 9.85124,-13.1011 11.50504,-13.9563 2.47294,-1.2788 2.90681,-2.1952 3.43614,-7.2573 0.3332,-3.1865 0.89895,-8.5821 1.25723,-11.9903 0.53915,-5.1287 0.99146,-6.2488 2.62473,-6.5 1.40623,-0.2162 3.18638,-2.9429 6.19445,-9.4881 5.32748,-11.592 10.3089,-19.6786 16.06849,-26.08458 3.21349,-3.5742 4.51749,-5.8813 4.51749,-7.9928 0,-6.3746 8.42965,-12.6816 23.06787,-17.2591 8.82371,-2.7593 10.00959,-3.4223 12.10699,-6.7688 l 2.32514,-3.71 0.31632,-85.1055 0.31632,-85.1056 -10.81632,-3.6927 c -13.58954,-4.6394 -43.54998,-19.3197 -57.1888,-28.0219 -33.25128,-21.2157 -67.67301,-53.2774 -95.63095,-89.0743 -11.87663,-15.2066 -28.20585,-40.7878 -37.59207,-58.8913 -2.57068,-4.9582 -3.84493,-6.4557 -5.36553,-6.3055 -1.79496,0.1771 -2.13445,-0.8232 -3.39804,-10.0131 l -1.40385,-10.2099 -19.61854,-0.2901 c -10.7902,-0.1595 -65.06854,-0.4015 -120.61854,-0.5377 -55.55,-0.1361 -133.9625,-0.5418 -174.25,-0.9016 -43.3215,-0.3868 -73.2498,-0.2856 -73.2494,0.2476 3e-4,0.4959 2.9199,3.5122 6.4879,6.703 7.6498,6.8409 10.9892,12.1659 12.3531,19.6986 2.4832,13.7147 -5.8869,30.1502 -17.6705,34.6974 -5.634,2.1742 -17.1853,2.3478 -22.2039,0.3337 -13.9895,-5.6143 -20.2511,-15.7633 -20.1536,-32.6657 0.049,-8.4966 1.8738,-11.7925 11.2274,-20.2795 4.3774,-3.9719 7.959,-7.6272 7.959,-8.123 0,-0.4957 -5.5125,-1.0277 -12.25,-1.1821 -7.7446,-0.1775 -12.0661,-0.6486 -11.75,-1.2808 0.5252,-1.0504 105.3363,-1.0237 370.75,0.094 77.6875,0.3273 141.25,0.2588 141.25,-0.1522 0,-0.4109 -5.55885,-6.191 -12.353,-12.8446 -17.97185,-17.6001 -27.07945,-32.0995 -31.78225,-50.5975 -2.57774,-10.1393 -3.07639,-31.9425 -1.00631,-44 3.94968,-23.00545 15.18797,-55.33049 29.72536,-85.5 6.31458,-13.10467 43.18075,-62.49999 46.64683,-62.49999 0.45768,0 1.10574,0.713 1.44015,1.58444 0.41144,1.07221 -1.49725,3.73932 -5.90402,8.24999 -6.13889,6.28364 -27.41422,35.19071 -34.67094,47.10787 -1.8227,2.99327 -6.20334,11.95213 -9.73477,19.90857 -22.88702,51.56538 -29.65012,86.60079 -22.32445,115.64912 4.33038,17.1712 12.80962,30.2696 31.49096,48.6461 6.86687,6.7549 13.25348,12.7115 14.19248,13.237 2.7908,1.5618 31.3882,2.0191 41.57877,0.6648 l 9.20119,-1.2227 8.73539,-8.6272 c 6.49511,-6.4147 9.02528,-8.3373 9.86573,-7.4969 1.51862,1.5186 -0.22998,3.9141 -7.97048,10.9188 -3.37185,3.0514 -6.13064,5.9602 -6.13064,6.464 0,0.5383 15.25917,0.9161 37,0.9161 l 37,0 0,-59.893 c 0,-52.97098 -0.17774,-59.96123 -1.53785,-60.48315 -0.87507,-0.3358 -1.78315,0.0491 -2.10699,0.89301 -0.88781,2.31358 -3.35488,1.7501 -3.35754,-0.76686 -0.002,-1.69711 -1.29186,-2.92573 -5.25,-4.99992 -2.88619,-1.51246 -12.44762,-8.18006 -21.24762,-14.81692 -8.8,-6.63685 -18.5875,-13.64446 -21.75,-15.57248 -3.76021,-2.29241 -5.75,-4.16456 -5.75,-5.41003 0,-2.11077 3.06199,-4.37952 7.207,-5.33994 1.79517,-0.41595 3.26948,-1.81255 4.37685,-4.14617 2.09958,-4.42454 5.61269,-7.22318 10.13128,-8.07088 3.07677,-0.5772 3.81035,-1.333 5.91676,-6.09595 l 2.40452,-5.43706 5.34942,0.66836 5.34942,0.66837 2.91297,-4.34869 c 2.40362,-3.58828 3.53459,-4.40124 6.46797,-4.64924 2.29253,-0.19383 4.01199,0.25008 4.84185,1.25 0.70777,0.85281 2.34818,1.55056 3.64535,1.55056 1.7654,0 2.50462,-0.69156 2.93952,-2.75 0.31956,-1.5125 1.95789,-6.575 3.64074,-11.25 10.52406,-29.23611 23.66983,-70.44677 25.83815,-81 1.78406,-8.68309 2.07342,-12.74951 1.67218,-23.5 -0.26686,-7.15 -0.80966,-14.0125 -1.20622,-15.25 -0.58649,-1.83017 -0.34302,-2.25 1.30479,-2.25 3.01672,0 4.66191,10.60172 3.90392,25.15724 -0.77321,14.84798 -2.47206,22.19678 -10.82882,46.84276 -3.82303,11.275 -8.248,25.06867 -9.83326,30.6526 -1.58526,5.58393 -3.53292,11.43393 -4.32812,13 -4.06068,7.9971 -6.04681,15.92716 -5.82789,23.26904 0.21389,7.17272 0.42737,7.75967 6.36512,17.5 12.04412,19.75731 17.02677,25.45251 37.52841,42.89524 5.05325,4.29928 11.22573,10.2024 13.71664,13.11802 4.99677,5.84879 18.95074,32.97794 18.10112,35.19201 -0.68006,1.77221 -2.50125,1.76707 -3.18279,-0.009 -0.29169,-0.76014 -2.35454,-1.67377 -4.5841,-2.03029 -2.61395,-0.41799 -9.16233,-3.8487 -18.43689,-9.65914 -18.35395,-11.49858 -22.42466,-13.34502 -45.13589,-20.47318 l -4.25,-1.33391 -0.0162,16.6893 c -0.009,9.17911 -0.20322,22.0893 -0.43179,28.6893 -0.92171,26.6143 -1.76684,278.5008 -0.93446,278.5137 0.48535,0.01 1.89495,0.285 3.13245,0.6166 1.8271,0.4896 2.25,0.1953 2.25,-1.566 0,-2.0351 0.51565,-1.888 8.35143,2.3833 4.59329,2.5038 8.64329,4.5524 9,4.5524 0.35672,0 0.64857,-2.25 0.64857,-5 0,-4.3333 0.26667,-5 2,-5 1.70611,0 2.0138,0.698 2.09394,4.75 0.0517,2.6125 0.39088,8.9692 0.7538,14.1259 0.50956,7.2403 0.36446,9.4892 -0.63707,9.8735 -2.05631,0.7891 -2.40445,-0.1668 -3.07714,-8.4492 l -0.63353,-7.8002 -10.20613,0.054 c -9.53723,0.051 -10.22539,-0.08 -10.5,-1.9898 -0.16163,-1.1241 -1.05366,-2.1885 -1.98229,-2.3655 -2.1744,-0.4142 -2.25745,2.5327 -2.62687,93.2153 -0.27378,67.2045 -0.21505,69.8592 1.51524,68.5 0.99003,-0.7777 2.02505,-1.6494 2.30005,-1.9371 0.275,-0.2877 1.78018,-1.3385 3.34485,-2.3352 2.78915,-1.7766 2.89139,-1.7684 5.22098,0.4201 3.73279,3.5068 4.82964,8.0938 3.40197,14.2271 -3.5103,15.0803 -9.96537,31.7672 -14.00768,36.21108 -1.40243,1.5418 -1.89267,4.0049 -2.13969,10.7505 -0.17623,4.8128 -0.0266,8.7503 0.3326,8.75 0.35917,-3e-4 3.81237,-4.6419 7.67378,-10.3147 3.8614,-5.6727 8.58947,-12.1918 10.50682,-14.48668 1.96505,-2.352 3.76539,-5.8145 4.12622,-7.9358 0.61863,-3.6369 1.03273,-3.9649 12.32431,-9.7633 13.08084,-6.7172 24.86404,-14.3824 33.49541,-21.7894 l 5.77958,-4.9597 4.34796,1.6605 c 2.39138,0.9132 5.13061,2.5253 6.08718,3.5823 1.62421,1.7947 1.63744,2.4705 0.20015,10.2189 -3.59945,19.4045 -12.18617,34.09448 -32.60917,55.78738 -7.61934,8.0931 -8.60582,9.6479 -7.21828,11.3767 0.49582,0.6178 1.22469,7.3108 1.6197,14.8733 0.70694,13.5344 0.68523,13.75 -1.38425,13.75 -1.92162,0 -2.10881,-0.5805 -2.17656,-6.75 -0.0408,-3.7125 -0.38769,-8.775 -0.77093,-11.25 l -0.6968,-4.5 -3.86267,10.5 c -2.12446,5.775 -6.05255,14.8301 -8.72907,20.1225 -4.42262,8.745 -4.86572,10.2497 -4.85886,16.5 0.015,13.6589 1.50396,18.9421 8.44328,29.9588 7.66918,12.1755 12.25639,21.0565 14.67887,28.41865 l 1.80973,5.5 -0.22713,-8.24999 c -0.19597,-7.11816 10e-4,-8.24996 1.43645,-8.24996 1.83462,0 2.30456,2.5673 3.41705,18.66735 0.62683,9.0716 0.6089,9.1709 -1.71618,9.5 -2.10092,0.2974 -2.42535,1.0193 -3.06505,6.8203 -2.19457,19.9013 -23.06933,39.7254 -43.02007,40.855 l -6.73551,0.3814 -0.26449,30.1246 c -0.23063,26.2667 -0.46284,30.1627 -1.81326,30.4225 -0.85182,0.1639 -1.86432,-0.018 -2.25,-0.4033 z m -50.70124,-61.4759 c 2.475,-0.5825 5.175,-1.2001 6,-1.3724 3.56222,-0.7441 12.61222,-3.6209 13.84044,-4.3996 1.68233,-1.0666 2.91464,-3.1788 9.11307,-15.62 2.7402,-5.5 5.90427,-11.4047 7.03128,-13.1217 l 2.0491,-3.1216 -2.80195,-1.1606 c -5.8976,-2.4429 -8.86199,-1.2174 -16.05214,6.6359 -7.89924,8.6279 -13.78992,12.6974 -21.08028,14.5631 -6.19134,1.5845 -14.00135,0.7266 -20.81199,-2.2861 -3.95953,-1.7515 -4.2995,-1.767 -4.44405,-0.2028 -0.40747,4.4092 -0.72819,7.046 -1.36846,11.2506 l -0.6939,4.5567 5.85944,2.6741 c 6.47245,2.9539 15.10612,3.5469 23.35944,1.6044 z m 75.81778,-6.8939 c 7.90436,-3.6989 17.77955,-13.3601 21.52632,-21.0599 8.64722,-17.7703 4.95234,-36.104 -12.76973,-63.36225 -6.25284,-9.6174 -6.40212,-10.0064 -7.60359,-19.8144 -1.74167,-14.2178 -1.0481,-18.549 4.85001,-30.2875 4.73409,-9.4218 11.65127,-27.3353 10.86066,-28.1259 -0.20017,-0.2001 -6.17288,4.0309 -13.2727,9.4024 -7.09981,5.3714 -15.49518,11.1125 -18.65637,12.7579 l -5.74763,2.9916 -0.002,70.6667 c -0.002,53.40135 0.28585,70.76265 1.17735,71.05985 2.71127,0.9037 13.74993,-1.4731 19.63805,-4.2285 z m -25.48103,-44.1624 c 0.95483,-69.33865 0.86394,-92.43635 -0.35896,-91.21345 -0.69211,0.6921 -2.60455,0.6981 -5.9222,0.019 -5.46117,-1.1187 -7.05559,-3.2025 -7.05559,-9.221 0,-3.7697 3.83721,-12.2281 6.86179,-15.1256 1.03002,-0.9868 2.18928,-3.5424 2.57614,-5.6792 0.67106,-3.7065 0.59672,-3.8565 -1.61727,-3.2636 -1.27636,0.3418 -3.04457,0.6276 -3.92935,0.6351 -1.64425,0.014 -5.42749,8.5776 -9.72517,22.0136 -3.0283,9.4675 -4.40983,21.4421 -3.20611,27.7892 1.11087,5.8577 5.84851,19.6008 8.86319,25.7108 1.81285,3.6742 7.94964,25.341 10.42832,36.81855 0.73634,3.4097 0.71167,7.1448 -0.0844,12.7739 -0.92737,6.5576 -1.80799,8.9612 -5.01246,13.6813 -5.25573,7.7417 -14.36865,26.071 -13.58903,27.3324 1.17035,1.8937 13.23039,5.5774 19.02109,5.81 2.07915,0.084 2.08916,-0.092 2.75,-48.0805 z m -82.83126,38.5643 c 0.2597,-2.695 0.70388,-7.15 0.98707,-9.9 0.507,-4.9233 0.43263,-5.0877 -4.84643,-10.7122 -5.35417,-5.7046 -5.36437,-5.7279 -7.63768,-17.4643 -1.9107,-9.8643 -2.1696,-13.5246 -1.61183,-22.78765 1.02493,-17.0214 2.64469,-22.9301 10.22441,-37.2969 3.69646,-7.0064 7.7757,-14.0889 9.06498,-15.7389 1.28928,-1.65 2.70949,-3.4601 3.15603,-4.0225 2.87562,-3.6218 8.14632,-11.8655 8.69831,-13.6046 0.85979,-2.709 -0.80267,-4.2817 -3.71713,-3.5165 -2.20187,0.5781 -4.49221,3.6598 -23.46731,31.5757 -16.78486,24.6936 -24.48571,48.50536 -22.12302,68.40645 1.47603,12.4327 10.19171,27.118 20.95663,35.3104 2.00545,1.5262 9.2389,5.2327 9.57713,4.9075 0.14666,-0.1411 0.47914,-2.4615 0.73884,-5.1565 z m -39.48843,2.6117 c 2.09642,-0.5824 5.66471,-3.1517 8.83393,-6.3608 l 5.31687,-5.3838 -3.02346,-5.3835 c -5.70174,-10.1525 -6.61861,-14.1487 -6.62698,-28.8836 -0.006,-10.20689 0.43622,-14.96355 1.81209,-19.49995 2.80333,-9.243 8.50406,-22.0785 14.21238,-32 4.71364,-8.1927 5.27888,-9.8522 6.30122,-18.5 0.6177,-5.225 3.83843,-20.525 7.15717,-34 3.31874,-13.475 6.3133,-26.8625 6.65458,-29.75 0.55583,-4.7028 0.42377,-5.2477 -1.26718,-5.2285 -1.03822,0.012 -8.63768,5.8952 -16.88768,13.0744 -29.64595,25.7978 -28.69409,25.2217 -34.0546,20.6108 -2.11353,-1.818 -2.7987,-3.5042 -3.30576,-8.1356 l -0.63964,-5.8423 -4.5,3.4191 c -6.14493,4.669 -25.92831,31.3236 -31.43419,42.3521 -8.11187,16.2484 -11.19209,30.6619 -12.1811,57 -0.5382,14.33255 -0.4527,15.27465 1.92165,21.17325 3.27595,8.1385 8.76555,16.2912 16.48447,24.4815 11.50668,12.2093 33.05109,20.2394 45.22623,16.8569 z m 77.28659,-15.4252 c 3.03314,-2.0132 6.18238,-4.6563 6.99832,-5.8735 3.87238,-5.7765 11.62387,-12.7178 14.36634,-12.8647 5.0833,-0.2724 8.78042,-0.053 11.68806,0.6927 3.71476,0.953 4.34281,-0.1518 5.18302,-9.118 0.59791,-6.3807 0.2656,-8.653 -3.00511,-20.54845 -2.02255,-7.356 -4.35539,-15.8495 -5.18408,-18.8745 -0.82869,-3.025 -2.16708,-6.5281 -2.9742,-7.7846 -3.00141,-4.6727 -8.35624,-22.126 -8.74426,-28.5007 -0.3873,-6.3627 1.26954,-18.686 3.44607,-25.6312 0.61766,-1.9709 2.93809,-8.2257 5.15652,-13.8996 2.59594,-6.6394 3.68902,-10.6605 3.06695,-11.2826 -0.98001,-0.98 -3.06443,1.0695 -16.05336,15.7842 -3.43865,3.8955 -8.97027,9.8349 -12.29249,13.1986 -5.22381,5.2891 -6.54163,6.1178 -9.74792,6.1296 -6.1397,0.023 -7.87936,0.9322 -9.76026,5.1033 -0.97781,2.1684 -2.83335,5.3732 -4.12341,7.1218 -2.33739,3.1681 -2.33844,3.183 -0.30334,4.2722 1.12323,0.6011 1.78922,1.346 1.47998,1.6552 -0.47993,0.4799 -3.4666,23.1381 -3.49179,26.4902 -0.005,0.6726 -0.86692,0.9319 -2.0601,0.6199 -1.84835,-0.4833 -1.99769,-1.0927 -1.50864,-6.1564 1.60069,-16.5736 1.69851,-19.1199 0.73448,-19.1199 -1.22953,0 -4.35557,4.9519 -8.38464,13.2821 -1.6541,3.4198 -3.34569,6.4429 -3.75909,6.7179 -5.48055,3.6458 -9.70905,34.0725 -6.67913,48.06065 0.88627,4.0916 1.86824,9.1434 2.18216,11.2263 0.41081,2.7256 1.87274,5.1078 5.21645,8.5 2.55512,2.5921 5.13141,5.611 5.72507,6.7086 1.2265,2.2675 8.29224,6.4277 12.92276,7.6087 1.70609,0.4351 5.64198,0.6452 8.74642,0.4669 4.50658,-0.2588 6.75615,-1.0621 11.15922,-3.9847 z m -32.9565,-23.6393 c -0.52874,-0.5288 -0.29725,-6.6505 0.56427,-14.9219 1.42904,-13.71995 1.51292,-14.02525 3.85416,-14.02525 2.07839,0 2.32051,0.3619 1.83997,2.75 -0.30434,1.5125 -0.81516,5.687 -1.13514,9.27656 -0.31999,3.58959 -0.7473,7.41459 -0.94959,8.49999 -0.20229,1.0854 -0.40223,3.3878 -0.44431,5.1164 -0.0774,3.1774 -2.08097,4.9525 -3.72936,3.3042 z m 77.07106,-97.55415 c 1.33229,-0.5112 1.5708,-2.6012 1.51214,-13.25 -0.0696,-12.632 -0.0709,-12.6388 -1.53026,-7.893 -0.87623,2.8496 -2.04864,4.75 -2.93035,4.75 -0.80836,0 -1.46974,0.4766 -1.46974,1.059 0,0.5825 -0.51953,0.738 -1.15451,0.3455 -0.70454,-0.4354 -0.88349,-0.275 -0.45913,0.4116 0.38245,0.6189 0.002,2.466 -0.84549,4.1049 -3.79015,7.3293 0.006,13.109 6.87734,10.472 z m -41.98027,-10.5887 c 9.07361,-9.4529 24.3494,-26.8719 26.43765,-30.147 0.75658,-1.1865 3.31622,-3.7323 5.6881,-5.6573 2.37187,-1.925 4.84304,-5.0164 5.49148,-6.8698 1.14464,-3.2716 1.04409,-3.5046 -3.45123,-8 l -4.63022,-4.63018 -7.23686,-0.066 c -3.98027,-0.036 -8.59341,-0.3862 -10.25142,-0.7777 -2.65992,-0.6282 -3.50091,-0.2087 -7.14861,3.56578 -13.26366,13.7246 -26.392,46.7506 -23.19163,58.3414 1.0139,3.672 1.02344,3.6774 5.62315,3.1589 4.22197,-0.4758 5.28217,-1.2221 12.66959,-8.9184 z m 56.12089,3.6241 c 3.26764,-1.9644 7.29117,-4.6652 8.94117,-6.0017 1.65,-1.3366 7.5,-5.862 13,-10.0565 5.90233,-4.5013 10.7375,-9.0287 11.79979,-11.0487 0.98989,-1.8824 2.36522,-3.6394 3.05629,-3.9046 0.69107,-0.2652 3.63532,-3.1847 6.54278,-6.4877 l 5.28629,-6.0056 -4.23772,-6.5043 c -3.77912,-5.8004 -6.42286,-8.4193 -8.49918,-8.4193 -0.37577,0 -0.36696,3.375 0.0196,7.5 0.65592,6.9996 0.57326,7.5 -1.23891,7.5 -1.68125,0 -2.03184,-0.9696 -2.61351,-7.2282 -0.36948,-3.9755 -0.9966,-7.519 -1.3936,-7.8744 -0.397,-0.35548 -3.73207,-0.93748 -7.41127,-1.29348 -6.39843,-0.619 -6.80378,-0.5266 -9.3172,2.12448 -2.9144,3.074 -18.10511,24.6005 -20.54965,29.1206 -2.16893,4.0104 -2.78198,32.151 -0.70045,32.151 0.75592,0 4.04792,-1.6072 7.31557,-3.5716 z m -119.92096,-27.4284 c 11.39296,-9.9 21.23797,-18 21.87779,-18 0.63982,0 1.63884,-1.0437 2.22004,-2.3193 0.5812,-1.2756 2.90343,-4.4529 5.16051,-7.0608 2.25709,-2.6078 4.10379,-5.33678 4.10379,-6.06438 0,-0.7275 -1.72291,-2.8793 -3.8287,-4.7818 -3.16465,-2.859 -5.72286,-3.925 -14.75,-6.1459 -9.85496,-2.4247 -11.01894,-2.5311 -11.9213,-1.0902 -1.00306,1.6018 -2.12203,3.3323 -17.11136,26.46238 -11.813,18.2287 -12.72573,20.2747 -12.47747,27.9698 0.22217,6.8868 1.21268,9.0302 4.17297,9.0302 1.01159,0 11.16077,-8.1 22.55373,-18 z m 106.06252,-0.1663 c 0.92829,-0.7704 1.27384,-4.1151 1.20942,-11.7061 -0.0744,-8.7637 -0.2623,-10.0138 -1.07151,-7.1276 -0.54109,1.9299 -3.19232,5.7572 -5.90982,8.5315 -4.7548,4.8541 -5.70268,7.2874 -4.28147,10.991 0.52146,1.3589 1.4336,1.5603 4.70039,1.0379 2.22935,-0.3564 4.6382,-1.1335 5.35299,-1.7267 z m 70.74011,-25.9664 c 9.1833,-12.21648 15.49588,-26.57208 16.98103,-38.61708 0.64477,-5.2293 0.63385,-5.2561 -2.80058,-6.8939 l -3.44787,-1.6442 -5.83654,5.0377 c -8.27998,7.1466 -20.76249,15.1956 -32.36724,20.871 -7.12716,3.4856 -10.14529,5.5056 -10.56711,7.0724 -0.94207,3.499 0.32293,4.3068 6.74472,4.3068 l 6.02889,0 -0.6758,-4 c -0.6091,-3.6052 -0.46974,-4 1.4121,-4 1.49452,0 2.09178,0.6395 2.10155,2.25 0.0273,4.5017 1.20393,6.4611 4.84424,8.0672 2.6032,1.1485 4.85131,3.43058 7.54534,7.65938 2.11054,3.3129 4.19507,6.0234 4.6323,6.0234 0.43722,0 2.86946,-2.7597 5.40497,-6.1327 z m -69.45581,-16.61728 c -0.008,-9.2125 -0.36339,-16.2022 -0.78881,-15.5327 -0.42543,0.6695 -3.90604,2.1819 -7.73469,3.3607 -14.24775,4.3871 -22.84078,9.6436 -24.77736,15.1568 -0.92867,2.6438 2.25388,3.7652 10.68533,3.7652 9.15238,0 11.21549,0.7337 16.68013,5.93208 2.35193,2.2374 4.653,4.0679 5.11348,4.0679 0.46048,0 0.83034,-7.53748 0.82192,-16.74998 z m 10.15791,0.7274 c 4.56886,-11.3718 8.08859,-26.2391 6.93206,-29.281 -1.5872,-4.1747 -2.96351,-4.0707 -7.60898,0.5748 l -4.44464,4.4446 0.0355,16.2101 c 0.0232,10.5941 0.39005,16.0919 1.05888,15.869 0.56285,-0.1877 2.37509,-3.7055 4.02718,-7.8175 z m -73.45367,1.6413 c 1.04187,-0.9803 7.58618,-17.6438 12.00176,-30.5596 2.10904,-6.169 2.27762,-13.5591 0.30931,-13.5591 -1.14816,0 -1.70195,1.9938 -2.36098,8.5 -0.47354,4.675 -0.97164,8.6231 -1.10687,8.7736 -0.13524,0.1504 -0.98401,-0.01 -1.88616,-0.3559 -1.39478,-0.5353 -1.54274,-1.6789 -0.98857,-7.6415 0.64103,-6.8972 0.61735,-6.9936 -1.44717,-5.8887 -1.15437,0.6178 -2.38675,1.5891 -2.73862,2.1584 -1.59096,2.5742 -20.75158,11.9322 -32.42861,15.8381 -5.0787,1.6987 -8.04302,4.8938 -8.04302,8.669 0,3.7053 1.31203,4.4363 12.47769,6.9518 7.23206,1.6293 13.69082,4.8139 16.85556,8.3109 1.56645,1.731 2.28825,1.8714 4.99878,0.9723 1.74238,-0.5779 3.70299,-1.5541 4.3569,-2.1693 z m 64.29236,-203.8687 c -0.0103,-1.2375 0.10221,-11.475 0.25,-22.75 l 0.26871,-20.5 -10.25,-1.3899 c -9.33268,-1.2655 -10.25,-1.5793 -10.25,-3.5059 0,-1.4394 -1.03912,-2.5542 -3.25,-3.4866 -5.83533,-2.4609 -25.02967,-13.3021 -35.20145,-19.8823 -24.96428,-16.1494 -52.7772,-40.7017 -69.70428,-61.5325 -9.11169,-11.213 -22.54202,-30.6968 -27.88106,-40.4478 -2.52925,-4.6193 -3.84979,-6.1084 -5.07286,-5.7202 -2.10709,0.6688 -2.38749,-0.1413 -3.91322,-11.3061 l -1.26116,-9.2287 -21.917,0 c -17.26569,0 -21.75833,0.2653 -21.16934,1.25 0.41121,0.6875 3.16202,4.2548 6.1129,7.9273 4.59793,5.7223 5.19817,6.9448 4.19702,8.5479 -0.9678,1.5497 -0.52684,3.1443 2.57018,9.2941 4.62832,9.1907 10.38378,18.7643 21.12774,35.144 19.49774,29.7253 46.83746,60.0679 77.11061,85.5801 24.23359,20.4225 56.08488,39.1615 85.25192,50.156 12.43506,4.6873 13.00555,4.7687 12.98129,1.8506 z m -37.27601,-22.5 c -0.22702,-0.4125 0.17442,-5.925 0.89209,-12.25 0.71766,-6.325 1.32684,-12.5125 1.35373,-13.75 0.0341,-1.567 0.65598,-2.25 2.0489,-2.25 2.36318,0 2.33983,-0.6634 0.51027,14.5 -0.79634,6.6 -1.46192,12.5625 -1.47908,13.25 -0.0336,1.3454 -2.64465,1.7379 -3.32591,0.5 z m 38.61792,-101.486 0.63623,-74.7361 -2.5259,-0.6339 c -2.51546,-0.6314 -13.0593,-0.1072 -13.84282,0.6882 -0.22639,0.2298 -1.01441,6.2626 -1.75116,13.4061 -1.1669,11.3144 -1.58139,13.0347 -3.21596,13.3477 -1.77102,0.3392 -1.82913,-0.1376 -1.03463,-8.4883 0.46299,-4.8662 0.85737,-11.0977 0.87642,-13.8477 l 0.0346,-5 -51.24843,0 c -28.18663,0 -51.24913,0.1238 -51.25,0.275 -8.6e-4,0.1513 2.81093,2.9541 6.24843,6.2286 4.85506,4.6247 5.93878,6.1588 4.85557,6.8732 -1.15258,0.7602 -0.99045,1.5734 0.93478,4.6885 10.10604,16.3519 35.61948,42.1445 56.82824,57.4501 6.06023,4.3734 7.68031,5.1229 9.1242,4.2212 1.48324,-0.9263 2.80602,-0.018 8.52624,5.8553 3.72385,3.8235 6.5488,7.1736 6.27766,7.4447 -0.27114,0.2712 -4.49881,-0.5796 -9.39483,-1.8905 -8.21379,-2.1993 -8.88276,-2.5676 -8.65472,-4.7648 0.19434,-1.8725 -0.76614,-3.0216 -4.49543,-5.3784 -18.27706,-11.5503 -41.11068,-33.4704 -57.03474,-54.7529 -3.60082,-4.8125 -7.2602,-8.7568 -8.13196,-8.765 -1.11854,-0.011 -2.40408,-2.6594 -4.3681,-9 l -2.78306,-8.985 -20.46692,0 c -11.2568,0 -20.46691,0.3026 -20.46691,0.6724 0,0.3699 2.14149,3.1824 4.75887,6.25 7.7186,9.0465 7.50928,8.6754 6.13421,10.8772 -1.03717,1.6608 -0.72215,2.8434 2.08521,7.8284 9.64905,17.1334 26.76367,39.9089 41.52171,55.2555 20.61296,21.4349 52.89654,45.3774 79.71172,59.1165 11.73789,6.0141 12.78357,6.3694 13.98729,4.7534 1.19462,-1.6039 1.91422,-1.2722 8.80099,4.0565 6.86239,5.3098 7.55045,5.6283 8.09348,3.7466 0.32642,-1.1311 0.87979,-35.6877 1.22972,-76.7925 z m -33.3232,50.1709 c 0,-4.5206 2.33471,-25.4604 2.91489,-26.1432 0.331,-0.3896 1.20984,-0.3326 1.95297,0.1266 1.13464,0.7013 1.1327,2.9759 -0.0121,14.1954 -1.14987,11.2691 -1.6366,13.413 -3.1095,13.6967 -1.23668,0.2381 -1.74626,-0.3091 -1.74626,-1.8755 z m 5.34626,-52.1849 c 0.31534,-2.3375 1.09699,-8.6375 1.73701,-14 1.03875,-8.7033 1.37885,-9.75 3.16801,-9.75 1.75075,0 1.93225,0.4744 1.43454,3.75 -0.31339,2.0625 -1.11554,8.3625 -1.78255,14 -1.07653,9.0987 -1.43276,10.25 -3.17155,10.25 -1.72775,0 -1.89118,-0.5013 -1.38546,-4.25 z m -571.83766,-17.615 c 8.673,-3.94 14.6811,-14.3601 14.7809,-25.635 0.083,-9.3911 -1.6477,-12.9351 -10.4596,-21.4179 l -7.3299,-7.0561 -8.15,-0.013 c -7.8248,-0.013 -8.2884,0.1167 -11.6173,3.237 -1.9071,1.7875 -5.7604,5.3899 -8.5629,8.0054 -6.5478,6.1106 -7.791,10.2025 -6.2493,20.5686 0.6076,4.0847 1.8501,8.9976 2.7612,10.9176 1.7853,3.7624 7.4069,8.3831 13.8183,11.3583 5.3239,2.4705 15.6098,2.4877 21.0086,0.035 z m 673.92711,-150.385 c -1.44119,-4.6386 -8.79283,-18.42311 -12.29491,-23.05327 -1.99816,-2.6418 -8.13477,-8.70209 -13.63691,-13.46733 -21.06002,-18.23944 -28.83352,-26.83307 -37.56132,-41.52409 l -3.44257,-5.79469 -0.66239,4.79469 c -1.21363,8.78478 -0.95644,24.08891 0.41239,24.53953 0.84167,0.27708 1.57666,4.6326 2.25,13.33333 l 1,12.92183 11,3.58702 c 12.25452,3.9961 19.96638,7.67014 31.9243,15.2092 20.30545,12.80192 22.33544,13.71528 21.01141,9.45378 z m -74.55363,-75.82288 c -1.12299,-0.69403 -0.6897,-12.24135 0.77587,-20.67712 0.52747,-3.03608 0.3763,-3.25209 -2.29666,-3.2818 -1.57371,-0.0175 -3.7348,-0.6925 -4.80242,-1.5 -2.81079,-2.12598 -5.48019,-1.80337 -6.46886,0.7818 -1.64519,4.30186 -4.91202,6.26674 -10.05126,6.04546 l -4.75054,-0.20453 -2.59294,6.00944 c -2.56346,5.94112 -2.63136,6.00225 -5.97127,5.37568 -2.99476,-0.56183 -3.73855,-0.2235 -6.55116,2.97988 -1.74506,1.98751 -3.17284,4.48943 -3.17284,5.55981 0,1.31329 -0.89427,2.13814 -2.75,2.53654 -6.54905,1.406 -6.87761,1.86879 -3.16602,4.45955 1.87881,1.31144 11.09284,8.09849 20.47563,15.08232 16.95512,12.6201 24.11357,17.22587 25.47008,16.3875 0.38992,-0.24098 1.02653,-4.49794 1.4147,-9.4599 0.6381,-8.15688 0.8997,-9.02175 2.72887,-9.02175 2.12603,0 2.14504,1.57367 0.19804,16.39753 -0.3438,2.61765 -0.0783,4.16577 0.8084,4.71437 1.07476,0.66492 1.37059,-3.11517 1.59071,-20.32591 0.19447,-15.20556 -0.055,-21.34383 -0.88833,-21.85887 z m 59.6606,836.32281 c -0.35738,-5.9125 -0.73818,-12.0866 -0.84623,-13.7203 -0.13628,-2.0606 0.30757,-3.0723 1.44919,-3.3032 1.75415,-0.3549 2.02148,1.1669 3.42965,19.5235 0.59868,7.8042 0.52438,8.25 -1.37498,8.25 -1.84565,0 -2.06034,-0.8684 -2.65763,-10.75 z m -150.54542,6 c -0.006,-5.9482 2.2807,-24.8037 3.11667,-25.7 0.55761,-0.5978 1.27443,-0.5616 1.93372,0.098 0.95842,0.9585 -0.16669,19.0935 -1.6194,26.1024 -0.67977,3.2797 -3.42762,2.8792 -3.43099,-0.5 z m 147.66582,-47.5 c -0.30773,-1.7875 -0.8657,-8.3125 -1.23994,-14.5 -0.65145,-10.7707 -0.59617,-11.25 1.29738,-11.25 1.79106,0 2.0388,0.9207 2.62348,9.75 1.0121,15.2838 0.86114,19.25 -0.73271,19.25 -0.78531,0 -1.63181,-1.4121 -1.94821,-3.25 z m -7.05774,-102.99995 c -1.92586,-21.7328 -1.92569,-21.75 0.21311,-21.75 1.82279,0 2.04208,0.8987 2.62287,10.75 0.34859,5.9125 0.86228,12.2125 1.14155,14 0.42755,2.7367 0.19726,3.25 -1.45796,3.25 -1.68554,0 -2.04466,-0.8908 -2.51957,-6.25 z M 826.22916,814.33457 c -0.29127,-2.3375 -0.81084,-8.6375 -1.1546,-14 -0.59014,-9.2058 -0.51646,-9.75 1.32009,-9.75 1.71773,0 2.02018,0.9644 2.58733,8.25 1.08296,13.9117 0.85104,19.75 -0.78452,19.75 -0.94288,0 -1.62124,-1.4647 -1.9683,-4.25 z m -2.94039,-45.5031 c -0.256,-0.4142 -0.79328,-6.9392 -1.19396,-14.5 -0.64033,-12.083 -0.54023,-13.7469 0.82698,-13.7469 1.96727,0 2.45486,2.5581 3.28794,17.25 0.58211,10.266 0.46913,11.75 -0.89462,11.75 -0.85849,0 -1.77034,-0.3389 -2.02634,-0.7531 z m -90.9473,-1.9969 c -0.22702,-0.4125 0.17442,-5.925 0.89209,-12.25 0.71766,-6.325 1.32684,-12.5125 1.35373,-13.75 0.0473,-2.1755 2.38057,-3.1404 3.44183,-1.4232 0.28103,0.4547 -0.13346,6.8672 -0.9211,14.25 -0.78764,7.3828 -1.44102,13.5357 -1.45195,13.6732 -0.0485,0.6104 -2.94386,0.1737 -3.3146,-0.5 z m 86.8478,-57 c -1.19515,-18.3922 -1.187,-18.6674 0.56364,-19.0198 1.34562,-0.2709 1.72609,1.0658 2.26899,7.9722 0.35875,4.5637 0.92115,11.1101 1.24978,14.5476 0.55487,5.8041 0.45316,6.25 -1.42567,6.25 -1.84924,0 -2.07764,-0.8382 -2.65674,-9.75 z m -81.49784,4 c 0.0304,-2.0625 0.60022,-8.2452 1.26629,-13.7394 0.98142,-8.0953 1.53978,-10.0528 2.94476,-10.3234 2.07098,-0.3988 2.10877,0.3215 0.71358,13.6022 -1.32388,12.602 -1.71995,14.2106 -3.49892,14.2106 -1.05447,0 -1.46504,-1.0799 -1.42571,-3.75 z m 5.47058,-46.2082 c -0.36161,-0.5851 -0.16608,-5.4464 0.43452,-10.8028 1.85994,-16.5881 2.01507,-17.239 4.10843,-17.239 1.64513,0 1.82221,0.5564 1.35255,4.25 -0.29724,2.3375 -1.07708,8.7128 -1.733,14.1674 -1.10366,9.178 -2.47654,12.3523 -4.1625,9.6244 z m 69.13018,-57.7918 c -1.0116,-15.2762 -0.86081,-19.25 0.73046,-19.25 1.59483,0 2.22579,3.6915 3.20479,18.75 0.63518,9.7699 0.57375,10.25 -1.31161,10.25 -1.79126,0 -2.03894,-0.9204 -2.62364,-9.75 z m -3.11982,-50 c -1.20101,-18.002 -1.18082,-18.6507 0.59167,-19.015 1.35245,-0.278 1.73584,0.985 2.26624,7.4652 0.35111,4.2899 0.90175,10.8373 1.22364,14.5498 0.54509,6.2868 0.44744,6.75 -1.42291,6.75 -1.82911,0 -2.06617,-0.8694 -2.65864,-9.75 z m -2.9309,-44.5 c -0.2845,-2.3375 -0.72401,-8.604 -0.97668,-13.9255 -0.36242,-7.6328 -0.16736,-9.7875 0.92397,-10.2063 0.76086,-0.292 1.64206,-0.1123 1.95823,0.3993 0.31616,0.5115 0.84997,7.0169 1.18624,14.4563 0.54076,11.9633 0.42734,13.5262 -0.98155,13.5262 -1.12625,0 -1.74449,-1.2452 -2.11021,-4.25 z m -3.03057,-48 c -0.25487,-1.2375 -0.74595,-7.5375 -1.0913,-14 -0.59535,-11.141 -0.52831,-11.75 1.29353,-11.75 1.71969,0 1.9892,1.0236 2.56706,9.75 1.0105,15.2596 0.87533,18.25 -0.82495,18.25 -0.81452,0 -1.68947,-1.0125 -1.94434,-2.25 z m -33.56472,-49 c 0.0259,-3.2406 2.93799,-27.0313 3.36048,-27.4538 0.26374,-0.2637 1.07884,-0.1008 1.81134,0.3621 1.10809,0.7003 1.09825,3.1514 -0.0586,14.5917 -1.23961,12.2586 -1.59287,13.75 -3.25681,13.75 -1.02652,0 -1.86189,-0.5625 -1.8564,-1.25 z m 29.64601,-8.5 c -1.00126,-15.12 -0.86806,-18.25 0.77661,-18.25 1.9747,0 2.30819,1.7085 3.0744,15.75 0.63737,11.6804 0.57839,12.25 -1.26846,12.25 -1.73929,0 -2.00278,-0.9948 -2.58255,-9.75 z m -3.05429,-48.5 c -0.36094,-5.08749 -0.92083,-11.6125 -1.24421,-14.5 -0.54471,-4.86397 -0.43242,-5.25 1.52728,-5.25 1.33881,0 2.12391,0.64236 2.1389,1.75 0.013,0.9625 0.44069,7.13725 0.95037,13.72166 0.90052,11.63374 0.61953,13.44614 -2.09507,13.51304 -0.34155,0.01 -0.91633,-4.1472 -1.27727,-9.2347 z m -21.15704,5 c 0.56042,-3.4025 2.55533,-21.91309 2.55533,-23.71059 0,-0.57167 0.9,-1.03941 2,-1.03941 1.1,0 1.99609,0.3375 1.99131,0.75 -0.005,0.41251 -0.67587,6.375 -1.49131,13.25 -0.81544,6.875 -1.48653,12.8375 -1.49131,13.25 -0.005,0.4125 -0.92908,0.75 -2.054,0.75 -1.75067,0 -1.9682,-0.4682 -1.51002,-3.25 z"
     id="path2991"
     style="fill:#000000" />
  <text
     x="660.10388"
     y="430.35999"
     id="text2993"
     xml:space="preserve"
     style="font-size:40px;font-style:normal;font-weight:normal;line-height:125%;letter-spacing:0px;word-spacing:0px;fill:#000000;fill-opacity:1;stroke:none;font-family:Bitstream Vera Sans"><tspan
       x="660.10388"
       y="430.35999"
       id="tspan2995"
       style="font-size:32px;font-style:normal;font-variant:normal;font-weight:normal;font-stretch:normal;font-family:cmr10;-inkscape-font-specification:cmr10">82</tspan></text>
  <text
     x="593.60693"
     y="431.37366"
     id="text2997"
     xml:space="preserve"
     style="font-size:32px;font-style:normal;font-variant:normal;font-weight:normal;font-stretch:normal;line-height:125%;letter-spacing:0px;word-spacing:0px;fill:#000000;fill-opacity:1;stroke:none;font-family:cmr10;-inkscape-font-specification:cmr10"><tspan
       x="593.60693"
       y="431.37366"
       id="tspan2999">88</tspan></text>
  <text
     x="546.97803"
     y="432.38733"
     id="text3001"
     xml:space="preserve"
     style="font-size:32px;font-style:normal;font-variant:normal;font-weight:normal;font-stretch:normal;line-height:125%;letter-spacing:0px;word-spacing:0px;fill:#000000;fill-opacity:1;stroke:none;font-family:cmr10;-inkscape-font-specification:cmr10"><tspan
       x="546.97803"
       y="432.38733"
       id="tspan3003"
       style="font-size:32px">95</tspan></text>
</svg>
