<?xml version="1.0" encoding="UTF-8" standalone="no"?>
<!-- Created with Inkscape (http://www.inkscape.org/) -->

<svg
   xmlns:dc="http://purl.org/dc/elements/1.1/"
   xmlns:cc="http://creativecommons.org/ns#"
   xmlns:rdf="http://www.w3.org/1999/02/22-rdf-syntax-ns#"
   xmlns:svg="http://www.w3.org/2000/svg"
   xmlns="http://www.w3.org/2000/svg"
   version="1.1"
   width="1008"
   height="1228"
   id="svg2">
  <defs
     id="defs4" />
  <metadata
     id="metadata7">
    <rdf:RDF>
      <cc:Work
         rdf:about="">
        <dc:format>image/svg+xml</dc:format>
        <dc:type
           rdf:resource="http://purl.org/dc/dcmitype/StillImage" />
        <dc:title></dc:title>
      </cc:Work>
    </rdf:RDF>
  </metadata>
  <g
     transform="translate(129,75.923531)"
     id="layer1">
    <path
       d="m 375.60908,1018.3522 c -2.08065,-2.0806 0.70336,-3.4351 20.39092,-9.9211 24.50479,-8.0729 80.38945,-21.37363 100.5,-23.91923 9.91581,-1.2552 17.24715,-1.5022 30.90196,-1.0408 15.92764,0.5381 19.85379,0.3231 35.60012,-1.9494 20.66781,-2.9828 32.42401,-5.5375 31.96043,-6.9452 -0.18112,-0.55 -9.75379,-7.4374 -21.27259,-15.3053 l -20.94328,-14.3053 -2.18777,2.0553 c -5.63321,5.2921 -13.31102,-0.9337 -9.63109,-7.8098 0.78393,-1.4647 -1.4255,-3.3267 -14.25,-12.0091 C 518.33,921.5507 506.325,913.34412 500,908.96542 c -6.325,-4.37869 -14.65,-10.10664 -18.5,-12.72876 -3.85,-2.62212 -9.925,-6.80127 -13.5,-9.287 -3.575,-2.48573 -13.025,-8.9552 -21,-14.37661 -7.975,-5.42141 -21.025,-14.3616 -29,-19.8671 -7.975,-5.50551 -19.77264,-13.63689 -26.21697,-18.06974 -6.44434,-4.43286 -21.74434,-15.0338 -34,-23.55766 -31.80958,-22.12366 -49.11991,-33.63553 -55.09001,-36.63644 -7.70293,-3.87194 -26.53035,-16.6557 -31.76972,-21.57154 -2.51719,-2.36176 -10.77147,-8.5691 -18.34284,-13.7941 -7.57138,-5.225 -16.31186,-11.32257 -19.4233,-13.55015 -3.11144,-2.22758 -12.65002,-8.79865 -21.19685,-14.60238 -14.23604,-9.66698 -19.67948,-13.38744 -43.46031,-29.70409 -4.4,-3.01896 -10.7,-7.40263 -14,-9.74151 -3.3,-2.33887 -12.975,-9.03314 -21.5,-14.87615 -8.525,-5.84301 -22.025,-15.12717 -30,-20.63147 -7.975,-5.50429 -16.975,-11.65419 -20,-13.66645 -3.025,-2.01226 -5.725,-3.89921 -6,-4.19322 -0.275,-0.29402 -7.7,-5.39821 -16.5,-11.34266 -8.8,-5.94444 -21.175,-14.40973 -27.5,-18.81176 -6.325,-4.40203 -13.3,-9.20918 -15.5,-10.68257 -2.2,-1.47338 -4.225,-2.91166 -4.5,-3.19618 -0.275,-0.28453 -3.875,-2.73779 -8,-5.45171 -4.125,-2.71391 -7.725,-5.18534 -8,-5.49205 -0.275,-0.30671 -7.475,-5.27213 -16,-11.03426 -8.525,-5.76214 -19.631038,-13.41214 -24.680085,-17 -5.049046,-3.58787 -15.736546,-11.00279 -23.75,-16.47762 C -75.443538,513.14742 -82,508.02 -82,507.22798 c 0,-1.23643 4.489205,-1.35062 31.75,-0.80758 17.4625,0.34785 80.8,0.92787 140.75,1.28893 l 109,0.65647 1.90749,-6.89467 c 2.94403,-10.64128 16.59172,-36.53469 26.32943,-49.95418 2.76997,-3.81726 9.44303,-13.91548 14.82904,-22.44048 9.7505,-15.43314 14.42078,-22.41398 19.34602,-28.91719 1.42341,-1.87946 6.63802,-10.187 11.58802,-18.46121 9.44246,-15.7836 12.46995,-18.96253 19.27499,-20.23917 5.19632,-0.97483 6.73266,0.46039 6.68404,6.24408 -0.0328,3.90639 -0.88489,6.28871 -4.29367,12.00516 -5.26767,8.83375 -5.98718,12.70689 -3.19128,17.17851 3.53384,5.65181 10.98572,7.48775 20.5831,5.07111 4.88086,-1.22902 5.19783,-1.94403 2.82885,-6.38129 -0.8809,-1.65 -2.43714,-4.9125 -3.4583,-7.25 -1.54182,-3.52933 -1.61046,-4.25 -0.40476,-4.25 0.79854,0 3.0382,3.15 4.97703,7 1.93883,3.85 3.92908,7 4.42277,7 2.65508,0 18.07723,-14.65038 18.07723,-17.17259 0,-0.64175 -2.475,-3.4702 -5.5,-6.28544 -3.025,-2.81524 -5.5,-5.82233 -5.5,-6.68241 0,-3.07275 4.58314,-8.2652 9.5,-10.76298 4.73285,-2.40431 6.14875,-2.57621 26.5,-3.21733 17.38021,-0.54752 26.81194,-1.45538 49.22151,-4.73786 16.74333,-2.45251 29.01985,-4.73065 31,-5.75263 7.97342,-4.11515 21.12688,-12.85155 25.98417,-17.25843 6.37904,-5.78751 14.81711,-10.5878 29.21505,-16.62 5.921,-2.48068 10.90042,-4.51033 11.06537,-4.51033 0.16496,0 0.54758,0.6454 0.85028,1.43421 0.39854,1.03856 -1.43406,2.18362 -6.64301,4.15074 -12.28545,4.6395 -24.20263,11.09594 -30.83288,16.70453 -7.68045,6.49695 -16.09302,12.26652 -24.95717,17.11631 -6.36502,3.48245 -7.71701,3.77193 -38.5,8.24321 -27.79525,4.03731 -33.83123,4.61498 -46.87552,4.48615 -16.70241,-0.16496 -23.27207,1.0959 -28.4613,5.46235 -4.19354,3.52863 -3.99023,6.48331 0.6835,9.93304 7.36406,5.43549 8.01232,8.45654 3.13582,14.61363 -2.89484,3.65503 -11.36291,11.02655 -15.36506,13.37538 -1.55275,0.91131 0.5171,5.58289 19.49519,44 11.67782,23.63925 23.63453,48.04295 26.57049,54.23045 l 5.33809,11.25 16.28774,0.003 c 8.95825,10e-4 54.04746,0.30031 100.19825,0.66424 58.97997,0.46509 83.716,0.34693 83.25579,-0.3977 -0.36011,-0.58266 -5.94484,-4.59406 -12.41052,-8.91423 -15.96261,-10.66573 -24.15606,-19.14959 -29.74271,-30.79693 -5.05272,-10.53417 -6.51764,-16.69856 -6.50121,-27.35715 0.0136,-8.84607 1.45127,-14.94877 5.73339,-24.33798 5.42126,-11.88696 12.28759,-20.75272 31.6473,-40.8628 5.03004,-5.225 13.18696,-13.96492 18.12648,-19.42204 18.43873,-20.37085 27.27585,-29.11252 28.36529,-28.05894 1.12514,1.08809 -0.23626,2.78148 -13.25467,16.48688 -3.92131,4.12825 -9.60466,10.21515 -12.62966,13.52645 -3.025,3.3113 -11.76385,12.66582 -19.41967,20.78781 -21.27426,22.56969 -28.2088,32.4092 -33.02256,46.85616 -4.47155,13.41992 -3.33077,26.11812 3.6675,40.82368 5.16781,10.85918 13.91189,19.70262 30.41035,30.75588 6.53764,4.37994 12.49922,8.70167 13.24795,9.60383 1.08193,1.30364 3.25615,1.64029 10.59382,1.64029 l 9.2325,0 4.96006,-5.25 c 2.72803,-2.8875 6.21106,-7.3875 7.74008,-10 2.71504,-4.63899 3.61055,-5.39609 4.88046,-4.12618 0.97514,0.97515 -2.8475,7.75448 -7.80326,13.83882 l -4.51024,5.53691 9.2615,0.20229 c 15.37878,0.33591 17.7914,0.49427 18.51225,1.21511 2.77477,2.77477 -1.41572,2.80306 -149.5042,1.00938 -38.70706,-0.46883 -47.32036,-0.3331 -47.62339,0.75044 -0.20347,0.72753 -0.91312,4.24778 -1.577,7.82278 -1.58084,8.51276 -5.97923,17.60372 -11.43779,23.64058 -5.46639,6.04551 -19.24645,15.75401 -20.19121,14.22536 -0.37036,-0.59925 -0.2283,-1.37674 0.31568,-1.72774 4.82157,-3.11113 8.25467,-5.76614 8.26034,-6.3882 0.004,-0.4125 0.68183,-0.75 1.50683,-0.75 0.825,0 1.5,-0.45 1.5,-1 0,-0.55 0.62848,-1 1.39662,-1 1.53766,0 7.98766,-7.30516 10.33637,-11.70681 2.83967,-5.32172 6.26701,-16.27296 6.26691,-20.02441 l -1e-4,-3.76878 -26.4999,-0.12401 C 388.62082,513.37815 378,513.70355 378,514.26438 c 0,1.1307 2.6639,6.89659 13.72431,29.70566 4.6389,9.56647 8.83753,18.45397 9.33028,19.75 1.33727,3.51729 4.22154,2.9087 10.15795,-2.14334 7.0837,-6.0284 19.79945,-14.50393 21.73159,-14.48492 0.85573,0.008 2.05558,0.34592 2.66634,0.75 3.37717,2.23435 7.22249,15.39454 8.06385,27.59766 0.64629,9.37395 -1.15321,34.84372 -2.79442,39.55172 -0.61113,1.75307 -0.7991,3.49945 -0.41771,3.88083 0.38139,0.38139 9.77092,0.78839 20.86562,0.90444 13.82139,0.14457 21.88497,0.66668 25.61252,1.6584 3.69093,0.98198 6.22187,1.15027 7.87078,0.52336 1.54389,-0.58699 5.57817,-0.50248 11.05967,0.23167 12.62365,1.69071 44.52332,0.49196 79.29062,-2.97965 31.52122,-3.14748 34.02638,-3.72676 43.09289,-9.96469 3.03013,-2.08478 5.10114,-2.82376 6.93251,-2.47367 3.10052,0.5927 3.25232,0.0971 4.80728,-15.69538 0.56862,-5.775 2.16969,-21.075 3.55793,-34 C 649.64083,500.38752 658,418.76613 658,416.00213 c 0,-2.33035 -0.69837,-3.40712 -3.06268,-4.72217 C 641.19712,403.63754 616,383.49256 616,380.14976 c 0,-1.56157 4.58726,-2.39491 9.15898,-1.66386 4.92116,0.78693 6.84102,-0.51998 6.84102,-4.65687 0,-3.19447 0.39672,-3.25382 7.75159,-1.15959 1.93039,0.54966 2.34364,0.18086 2.89687,-2.58527 0.64409,-3.22047 0.65418,-3.22521 5.49841,-2.5826 4.60208,0.61048 4.85313,0.52302 4.85313,-1.69066 0,-3.21464 1.81136,-4.73444 5.6427,-4.73444 l 3.24271,0 4.99478,-15.25 c 6.2393,-19.04979 10.65191,-35.86383 12.61732,-48.07769 7.26709,-45.16077 5.9516,-119.00675 -3.06205,-171.89051 -2.79676,-16.40879 -13.99909,-45.887571 -21.80107,-57.369221 -1.83068,-2.69408 -2.29185,-4.14777 -1.54675,-4.87558 2.81147,-2.74622 13.70518,18.2944 20.93638,40.437481 14.73876,45.13241 18.21846,146.70518 6.95131,202.90907 -2.30244,11.48524 -6.99816,28.05801 -12.92494,45.61642 -2.2278,6.59999 -3.63569,12.13826 -3.12863,12.30728 0.50705,0.16902 0.68715,2.64403 0.40021,5.50003 -0.46855,4.66378 -0.1,5.99941 3.61821,13.11219 2.27695,4.35571 4.90939,8.91223 5.84986,10.12561 7.22563,9.32232 19.87376,24.31469 26.20049,31.05655 8.19182,8.72931 21.10296,28.37492 24.16098,36.76337 1.02959,2.82425 2.33194,5.9408 2.89411,6.92568 1.05812,1.85372 0.51837,3.70932 -1.07896,3.70932 -0.50341,0 -1.60947,-1.34238 -2.45791,-2.98307 -0.84843,-1.64069 -2.83165,-3.64967 -4.40715,-4.46439 -1.5755,-0.81473 -8.22111,-6.33484 -14.76801,-12.26693 -22.6031,-20.48046 -42.09348,-36.55204 -43.37043,-35.76284 -0.37524,0.23191 -0.99273,3.92166 -1.37218,8.19944 -0.37946,4.27779 -4.52264,44.00279 -9.20707,88.27779 -4.68443,44.275 -8.76887,83.87668 -9.07654,88.00374 l -0.5594,7.50374 7.37602,6.09631 c 4.0568,3.35297 10.54063,8.76626 14.4085,12.02954 10.86552,9.16713 21.38168,13.01377 27.26306,9.97239 3.83278,-1.982 4.20445,-1.98945 4.20445,-0.0843 0,0.83679 -1.07792,2.01257 -2.39537,2.61284 -5.50828,2.50974 -11.44731,15.72441 -12.29889,27.36572 -0.84165,11.50563 1.5391,19.27181 8.87005,28.9347 3.36539,4.43592 7.23698,10.48546 8.60352,13.44343 1.43125,3.09802 3.29576,5.59025 4.39787,5.87845 3.69927,0.96739 8.97587,14.47097 13.77156,35.24342 1.58721,6.875 2.66919,13.625 2.4044,15 -0.44237,2.29706 0.0565,2.69178 6.14518,4.8625 7.94017,2.83081 10.95059,2.4497 18.08994,-2.29008 7.78119,-5.16589 14.04896,-15.54671 15.86035,-26.26825 0.64883,-3.84038 0.38802,-4.56969 -3.30497,-9.24167 -5.36886,-6.79211 -7.67019,-16.4278 -7.53821,-31.5625 0.16505,-18.92626 5.06562,-32.0521 14.30904,-38.32583 5.94608,-4.03575 10.57815,-5.60188 25.91123,-8.76072 6.93057,-1.4278 14.72687,-3.67324 17.3251,-4.98987 8.39932,-4.25626 15.07112,-12.44183 22.12789,-27.14853 4.59275,-9.57154 5.31626,-15.78922 2.76655,-23.77505 -1.65013,-5.16828 -12.41853,-23.39582 -26.98686,-45.6803 -6.35711,-9.72417 -13.65304,-20.97417 -16.21318,-25 -2.56014,-4.02584 -8.18514,-11.97299 -12.5,-17.66035 -33.96321,-44.76646 -44.77269,-61.64158 -56.79139,-88.65935 -5.86778,-13.19062 -8.36713,-20.43113 -11.73647,-34 -1.98838,-8.00752 -2.23432,-11.53633 -2.23026,-32 0.004,-19.80953 0.37266,-25.42753 2.6581,-40.5 6.71737,-44.30087 6.33069,-96.70016 -1.2287,-166.5 -2.51236,-23.19797 -3.86321,-30.11064 -8.9485,-45.7922 -2.17734,-6.714291 -4.65327,-14.953091 -5.50206,-18.308451 -1.64491,-6.50243 -9.33163,-23.85721 -12.59933,-28.44627 -1.08162,-1.519 -1.96659,-3.25485 -1.96659,-3.85745 0,-2.18171 2.54897,-1.0098 4.70073,2.1612 3.53831,5.21434 11.07643,21.79005 12.64081,27.79609 0.79227,3.04173 3.27978,11.36167 5.52781,18.48875 5.69086,18.042121 6.73615,23.236371 9.14795,45.458331 4.32727,39.87068 5.07665,51.33527 5.65403,86.5 0.65899,40.13554 -0.19794,56.63609 -4.38841,84.5 -3.45197,22.95342 -3.84719,52.43598 -0.89144,66.5 7.1824,34.17526 26.59131,70.33103 62.53877,116.5 8.96382,11.51264 16.36033,22.12787 25.76654,36.97926 5.05823,7.98641 11.92864,18.57074 15.26758,23.52074 8.29967,12.30431 15.71351,24.72233 19.40325,32.5 2.63523,5.55483 3.08699,7.66328 3.10682,14.5 0.0227,7.83019 -0.10289,8.2441 -5.91737,19.5 -6.63888,12.8518 -14.62969,21.98124 -22.55707,25.77129 -2.475,1.18329 -10.83193,3.46753 -18.57096,5.07608 -21.71144,4.51271 -29.27569,9.14073 -32.76872,20.04886 -6.42301,20.05786 -4.69016,44.4096 3.87193,54.41248 4.13651,4.83258 4.45029,8.52239 1.46309,17.20483 -2.7973,8.13049 -6.08995,13.39718 -11.48438,18.3696 -8.23519,7.59092 -16.45028,9.84036 -24.1652,6.61686 -6.0333,-2.52087 -7.13402,-1.85049 -3.14282,1.91412 4.64353,4.37992 6.3294,11.6098 5.38317,23.08588 -0.81769,9.91711 -1.91164,14.42512 -5.25905,21.67166 -2.77602,6.0096 -3.99621,6.7909 -10.6428,6.81469 -4.39563,0.0157 -7.10433,-1.22228 -10.07922,-4.6067 -1.44407,-1.64285 -3.63701,-2.59766 -6.98402,-3.04083 l -4.87897,-0.64602 -8.37103,8.85544 C 672.9466,835.47878 672,836.90314 672,840.22065 c 0,2.05726 1.84779,12.42893 4.1062,23.04815 6.46491,30.39852 5.77086,44.74669 -2.74375,56.72223 -1.79314,2.52199 -7.48439,10.88544 -12.64722,18.58544 -10.70179,15.961 -21.08149,26.5454 -30.32305,30.921 -8.57761,4.0613 -19.23434,7.2915 -26.4439,8.0154 -3.54236,0.3557 -9.81738,1.5051 -13.94447,2.5541 -17.96213,4.5658 -35.22622,6.3691 -63.00381,6.581 -30.24371,0.2307 -34.93853,0.8168 -68.5,8.5524 -37.92715,8.74183 -59.88283,14.92763 -77.14092,21.73353 -2.82751,1.1151 -5.41501,1.7533 -5.75,1.4183 z m 243.06939,-47.41263 c 16.73921,-5.8538 25.72493,-13.8159 40.82153,-36.1714 14.03619,-20.78518 16.1527,-24.8629 17.32816,-33.38484 1.21326,-8.79596 0.29869,-17.12862 -4.25933,-38.80686 -1.85027,-8.8 -3.57809,-18.45576 -3.8396,-21.45726 -0.47312,-5.43021 -0.44974,-5.48472 4.7174,-11 2.85608,-3.0485 6.92127,-7.45524 9.03375,-9.79274 3.32968,-3.68434 4.38517,-4.24926 7.93025,-4.24442 6.16139,0.008 11.42178,1.80901 13.1961,4.51697 1.70667,2.6047 6.80732,4.09231 10.69013,3.11779 1.63145,-0.40947 2.93788,-2.13084 4.44747,-5.86006 4.53971,-11.21465 6.07396,-22.52163 4.24888,-31.313 -1.03997,-5.00951 -1.92089,-6.53885 -5.85861,-10.171 -2.54903,-2.35122 -5.54697,-4.27975 -6.66209,-4.28561 -1.11513,-0.006 -3.14013,-0.79817 -4.5,-1.76067 -2.03079,-1.43736 -4.57169,-1.73885 -14.22251,-1.68759 -8.4056,0.0447 -11.75,-0.2739 -11.75,-1.11916 0,-1.50562 5.52258,-2.41822 14.71862,-2.43224 9.13136,-0.0139 9.05036,-0.40551 -2.8294,-13.67821 -1.06687,-1.19196 -5.40131,-3.60825 -9.6321,-5.36954 -10.30997,-4.29205 -11.66808,-5.29961 -13.79628,-10.23526 -1.9326,-4.48202 -9.90394,-18.13907 -12.15486,-20.82454 -0.73601,-0.87809 -3.08884,-2.12104 -5.22853,-2.76211 -2.13968,-0.64106 -6.55829,-3.12961 -9.81911,-5.53009 -10.27711,-7.56557 -9.8821,-7.57222 -10.60041,0.17843 -2.86733,30.93902 -4.71342,54.48816 -4.30361,54.89796 0.27097,0.27097 2.97129,-1.37871 6.00072,-3.66595 4.35375,-3.28712 6.2035,-4.09189 8.82651,-3.84016 l 3.31845,0.31846 -0.21245,5.5 c -0.11685,3.025 -0.74183,8.425 -1.38884,12 -1.56771,8.66215 -8.45422,26.39362 -11.78281,30.33849 -1.46718,1.73883 -3.33097,4.48054 -4.14175,6.09268 -0.81078,1.61215 -2.72423,3.63715 -4.2521,4.5 -1.52787,0.86286 -2.97694,2.46883 -3.22016,3.56883 -0.24322,1.1 -2.04579,17.67332 -4.00571,36.82961 l -3.56349,34.82961 2.53366,1.99297 c 1.46834,1.155 2.53365,3.01361 2.53365,4.42039 0,2.38003 -2.56488,5.78238 -4.96125,6.58117 -0.71295,0.23765 -1.60137,3.88878 -2.15955,8.875 C 607.64311,930.08047 604,967.74467 604,970.88727 l 0,3.4163 4.42847,-0.6641 c 2.43566,-0.3653 7.04816,-1.5802 10.25,-2.6999 z M 595,968.08957 c 0,-0.5428 -2.5119,-5.9428 -5.58201,-12 -3.79746,-7.4923 -6.12404,-11.0131 -7.27749,-11.0131 -0.93252,0 -2.58312,-0.6047 -3.66799,-1.3439 -1.681,-1.1453 -3.04845,-1.0479 -9.25297,0.6586 -4.00425,1.1014 -7.15425,2.3677 -7,2.814 0.33077,0.9569 30.93266,21.8411 32.03046,21.859 0.4125,0.01 0.75,-0.4318 0.75,-0.9746 z m 6,-1.2684 c 0,-1.2405 0.88739,-10.7931 1.97198,-21.228 1.0846,-10.435 1.62386,-19.3209 1.19837,-19.7464 -0.81677,-0.8167 -9.1109,4.003 -12.92035,7.5081 -1.33723,1.2304 -2.25,3.2432 -2.25,4.9617 0,1.5902 -0.39644,3.6493 -0.88097,4.5756 -0.63888,1.2215 0.76298,5.0507 5.10129,13.9343 5.87527,12.0309 7.77968,14.4775 7.77968,9.9947 z m -34.79705,-24.7106 c 1.26338,-0.5312 4.12033,-1.4245 6.34879,-1.9851 5.66915,-1.4262 6.89936,-4.9536 3.71931,-10.6645 -2.03638,-3.657 -2.80194,-4.1854 -6.87198,-4.7433 -7.13085,-0.97737 -12.79891,-3.93404 -15.30013,-7.98111 -5.16098,-8.35064 -7.73242,-26.93111 -5.22139,-37.72831 0.69512,-2.98896 0.32178,-4.60023 -2.29974,-9.9253 -1.72127,-3.49639 -3.60315,-6.51493 -4.18196,-6.70786 -0.57881,-0.19294 -2.58777,2.69844 -4.46436,6.42529 -3.34276,6.6386 -3.41171,7.02973 -3.39784,19.27609 0.0126,11.11061 0.43329,14.16727 3.78501,27.5 2.07397,8.25 3.99173,16.0422 4.26169,17.3159 0.29901,1.4108 1.74703,2.8422 3.70524,3.6627 1.76793,0.7407 4.30535,2.5111 5.63872,3.9341 1.95263,2.0839 3.35407,2.5873 7.20295,2.5873 2.62825,0 5.81231,-0.4346 7.07569,-0.9659 z m 26.67474,-13.8968 c 3.64227,-2.6744 7.97231,-5.49004 9.62231,-6.25691 2.34717,-1.09088 3.07153,-2.14482 3.32871,-4.8432 0.23073,-2.42085 -0.19885,-3.83467 -1.44113,-4.74305 -3.38648,-2.47626 -6.89573,-1.38414 -17.13559,5.33279 l -10.10266,6.62697 2.1246,4.373 c 2.81794,5.8002 5.15233,5.7162 13.60376,-0.4896 z m -53.88533,2.1127 c -0.004,-0.4125 -0.8979,-3.675 -1.986,-7.25 -8.18951,-26.90701 -8.16496,-45.12616 0.0803,-59.62173 1.60235,-2.81695 2.91334,-5.79831 2.91334,-6.62524 0,-2.78036 -44.64094,-93.75303 -46.00528,-93.75303 -2.30885,0 -6.66321,6.77211 -14.00051,21.77427 -9.37274,19.16391 -13.98257,24.84028 -23.78113,29.28315 -3.48921,1.58209 -7.88955,3.16646 -9.77855,3.52084 C 442.40346,818.41096 436,817.40792 436,816.02026 c 0,-1.77323 4.34685,-10.35 9.85444,-19.44379 C 452.27196,785.98025 456,777.32794 456,773.02989 c 0,-2.999 -0.2284,-2.84503 -8.07308,5.44234 -10.00505,10.56964 -14.95519,13.18914 -27.42692,14.51371 -10.74629,1.14131 -16.82625,0.35051 -17.32779,-2.25378 -0.72924,-3.78662 2.25701,-7.89255 10.06081,-13.83308 7.98549,-6.07883 20.4934,-20.42973 21.19902,-24.32261 0.19938,-1.1 0.86465,-5.30532 1.47837,-9.34515 1.58971,-10.46431 4.46532,-16.45366 10.38668,-21.63352 l 5.00918,-4.38191 -2.15314,-5.00509 C 447.96891,709.458 447,706.24521 447,705.07126 c 0,-2.23806 4.56239,-9.61735 8.75768,-14.1648 l 2.46324,-2.67002 -2.54095,-5.37112 c -4.26275,-9.01071 -20.17295,-41.20169 -21.07153,-42.63384 -1.05199,-1.67666 -3.05741,2.61667 -7.4012,15.84499 -5.94851,18.11524 -7.4276,25.65651 -7.35495,37.5 0.0371,6.05 0.50342,13.25 1.03624,16 0.97229,5.01819 0.0951,7.94307 -1.78441,5.95 -1.14551,-1.21472 -3.10889,-16.06443 -3.08845,-23.359 0.023,-8.21756 3.21101,-21.95728 8.99095,-38.7496 2.80964,-8.16277 5.19505,-15.71097 5.30091,-16.77378 0.16029,-1.6093 -1.47943,-2.47334 -9.80753,-5.16803 -6.50084,-2.10345 -10.11314,-3.78922 -10.32332,-4.81763 -0.41588,-2.03481 -0.0969,-2.00054 8.78821,0.94408 10.99063,3.64244 11.51299,3.51464 8.77211,-2.14621 l -2.237,-4.62016 -9.22826,0.47968 c -5.10717,0.26547 -9.88827,1.02744 -10.7062,1.70626 -0.81286,0.67461 -1.94764,0.93627 -2.52174,0.58146 -3.53013,-2.18174 3.16832,-5.52322 11.11049,-5.54238 3.49014,-0.008 6.91771,-0.37836 7.61683,-0.82207 0.94822,-0.60182 -1.57822,-6.69587 -9.94565,-23.98998 -10.0485,-20.76861 -11.43073,-23.11844 -13.27112,-22.56122 -1.12989,0.3421 -7.22935,2.88806 -13.55435,5.6577 -10.22076,4.47555 -12.47195,5.08792 -20.23759,5.50502 -14.73135,0.79125 -26.30088,-3.92432 -54.02775,-22.02092 -10.26797,-6.70163 -11.0008,-7.41608 -15.86205,-15.46412 -2.80319,-4.64082 -5.74882,-8.6881 -6.54583,-8.99395 -1.7584,-0.67476 -25.43309,5.34876 -30.32678,7.716 -1.925,0.93118 -6.1407,3.31485 -9.36823,5.29703 -3.22753,1.98219 -6.31284,3.75218 -6.85625,3.93331 -0.57699,0.19233 -0.008,3.43475 1.36823,7.79393 2.1952,6.95436 2.34895,8.96832 2.24943,29.46458 -0.0588,12.1 -0.90505,32.35 -1.88067,45 -2.29886,29.80756 -1.70316,50.65244 1.85753,65 5.94668,23.96169 17.47472,43.0185 32.1128,53.08517 4.40944,3.03239 13.19216,9.12427 19.51716,13.53751 12.75309,8.8984 17.34379,11.22029 30.39894,15.37523 7.45947,2.37405 11.82694,4.79056 27,14.93907 9.95558,6.65879 21.47286,14.68453 25.59396,17.83496 4.12109,3.15043 8.03308,5.72806 8.6933,5.72806 0.66021,0 1.78841,0.81557 2.5071,1.81238 0.71868,0.99681 7.8317,6.68595 15.8067,12.64253 17.80319,13.29732 16.19538,11.77645 16.38247,15.49654 0.16885,3.35743 -1.67753,1.98671 49.11753,36.46383 7.7,5.22638 17.6,12.0094 22,15.07339 26.20912,18.25103 42.84687,29.46613 43.75,29.49083 0.4125,0.011 0.74656,-0.317 0.74236,-0.7295 z m 30.19269,-15 c -1.56406,-3.1625 -5.91711,-12.14482 -9.67345,-19.96071 -3.75635,-7.8159 -7.20814,-13.97684 -7.67066,-13.69099 -0.46252,0.28586 -0.83391,3.98068 -0.82532,8.21072 0.0384,18.8964 7.02828,31.19098 17.73317,31.19098 l 3.28,0 -2.84374,-5.75 z m 11.49945,3 c 2.2475,-1.5125 6.63706,-4.51724 9.75459,-6.67721 5.73322,-3.97223 9.71239,-4.87252 14.31091,-3.23784 2.12328,0.75478 2.25,0.54061 2.25,-3.80275 0,-2.53141 -0.68696,-5.65099 -1.52657,-6.9324 -1.59101,-2.4282 -0.81592,-6.65206 1.4812,-8.07176 0.5929,-0.36643 0.80831,-1.1026 0.47869,-1.63593 -0.32961,-0.53333 -0.74105,-2.86473 -0.9143,-5.1809 -0.17325,-2.31617 -0.8588,-8.19106 -1.52343,-13.05531 -0.69109,-5.05788 -0.91471,-11.58684 -0.52234,-15.25075 0.57031,-5.32548 1.28337,-7.12375 4.22528,-10.6559 1.94655,-2.33709 3.8889,-4.47425 4.31634,-4.74925 0.42743,-0.275 1.07196,-3.65 1.43229,-7.5 0.36033,-3.85 0.8657,-8.0125 1.12304,-9.25 0.85709,-4.12148 -1.01242,-2.29294 -7.55003,7.38459 C 597.62937,845.0924 575.4808,864.0221 567.82258,864.0667 565.55212,864.0799 562,859.37733 562,856.35828 c 0,-5.05952 -2.49973,-1.38471 -5.29796,7.78843 -1.58208,5.18637 -2.94976,9.88925 -3.03928,10.45085 -0.19449,1.22015 21.59465,46.44613 22.38631,46.46549 0.30199,0.007 2.38793,-1.22408 4.63543,-2.73658 z m 30.71931,-56.63943 c 2.06588,-17.97643 2.08171,-17.73429 -0.93541,-14.30481 -2.26645,2.57622 -2.4684,3.60912 -2.4684,12.625 0,8.70081 0.77055,16.65536 1.53575,15.85396 0.14952,-0.1566 0.99015,-6.53496 1.86806,-14.17415 z m -57.36104,0.13943 c 1.69218,-6.01572 3.30581,-9.38353 5.95826,-12.43552 6.87213,-7.90726 11.61713,-16.31448 9.20783,-16.31448 -0.50925,0 -6.31242,5.42408 -12.89594,12.05352 -11.86952,11.95232 -11.95812,12.07616 -10.5526,14.75 0.77958,1.48306 2.28658,4.38398 3.34888,6.44648 1.06229,2.0625 2.08477,3.75 2.27217,3.75 0.1874,0 1.38503,-3.7125 2.6614,-8.25 z m 21.04024,-3.79442 c 1.0716,-0.57351 4.30381,-3.10388 7.18268,-5.62305 11.99335,-10.49483 18.32641,-17.31837 23.97152,-25.828 3.28537,-4.95249 6.9965,-10.12953 8.24694,-11.50453 1.61576,-1.7767 2.46714,-4.30405 2.94271,-8.7355 l 0.66917,-6.2355 -3.26544,-1.98583 c -3.06226,-1.86227 -5.00403,-2.28715 -15.50917,-3.39359 -4.10438,-0.43229 -4.24882,-0.33987 -8.13459,5.20516 C 583.56111,810.81316 573,830.81859 573,834.3817 c 0,2.34924 -1.24683,5.11037 -4.11869,9.12087 -3.80401,5.31224 -4.08185,6.13504 -3.63655,10.76938 0.66786,6.95053 2.53995,7.66603 9.83825,3.7601 z M 555,841.57647 c 6.30706,-6.325 12.01432,-11.5 12.6828,-11.5 1.12709,0 6.3172,-5.96923 6.3172,-7.26552 0,-0.94237 9.84083,-17.71077 14.59846,-24.87521 3.05457,-4.59984 4.60482,-8.13413 5.04425,-11.5 0.34892,-2.6726 1.0371,-5.6453 1.52928,-6.606 1.19365,-2.32992 7.04846,-5.22372 16.80353,-8.30535 6.41927,-2.02785 8.28615,-3.07212 9.36813,-5.24022 0.74839,-1.49965 1.87925,-9.6231 2.53468,-18.2077 0.65089,-8.525 1.89039,-23.14265 2.75445,-32.48367 l 1.57102,-16.98367 -7.14816,-6.81643 c -16.1971,-15.44542 -36.79481,-25.288 -76.9379,-36.76465 -10.3602,-2.96191 -18.60402,-4.83609 -19.067,-4.33476 -0.4486,0.48575 -2.22153,9.20818 -3.93985,19.38318 -2.31097,13.68438 -3.13391,21.75379 -3.16145,31 -0.053,17.78668 -1.99417,22.384 -10.8219,25.62935 -6.21637,2.28532 -6.5855,2.74208 -4.62905,5.728 2.22607,3.39741 3.02219,13.03989 1.53162,18.55067 -0.65576,2.42441 -2.45247,5.66818 -3.99267,7.20839 l -2.80038,2.80037 15.20797,30.79161 c 8.36438,16.93539 18.51408,37.65411 22.55489,46.04161 4.04081,8.3875 7.61373,15.25 7.93982,15.25 0.32608,0 5.7532,-5.175 12.06026,-11.5 z m -135,7.6262 c 0,-1.29625 -51.10098,-39.16776 -69,-51.13667 -13.84113,-9.25544 -24.44142,-14.88145 -25.68878,-13.63408 -0.44316,0.44316 2.74718,2.76138 19.91423,14.47037 5.101,3.47921 17.14955,11.75194 26.77455,18.38385 9.625,6.63192 22.45,15.4572 28.5,19.61175 6.05,4.15455 12.8,8.80509 15,10.33453 4.55781,3.16861 4.5,3.1433 4.5,1.97025 z m 33.58159,-37.28952 c 11.316,-4.75004 15.13969,-9.65542 25.82569,-33.13161 2.699,-5.92946 6.6365,-12.74535 8.75,-15.14641 2.1135,-2.40106 3.84272,-4.83549 3.84272,-5.40985 0,-1.59158 -16.26723,-34.5468 -17.45765,-35.36687 -0.57329,-0.39493 -4.8948,-0.44608 -9.60336,-0.11367 -5.32232,0.37574 -9.31338,0.20173 -10.54978,-0.45997 -1.55623,-0.83287 -2.69013,-0.6203 -5.21347,0.97737 -5.88684,3.72728 -8.92082,10.89553 -11.08768,26.19636 -0.82594,5.83216 -1.5145,7.1585 -7.93808,15.29076 -3.86853,4.89756 -9.19735,10.41988 -11.84183,12.27183 C 411.17665,782.01532 407,786.22337 407,788.41425 c 0,1.8397 0.59162,1.91741 10.88363,1.42959 14.19698,-0.67291 18.57058,-2.89457 28.54268,-14.49882 6.45942,-7.51665 11.71203,-11.46354 13.23249,-9.94309 0.32707,0.32707 0.12188,3.78011 -0.45597,7.67341 -1.13717,7.66176 -3.98351,14.17652 -12.6543,28.96344 -3.05169,5.20427 -5.54853,10.26677 -5.54853,11.25 0,2.68969 3.91711,2.2614 12.58159,-1.37563 z M 622.8,808.87647 c 1.66854,-1.66854 1.50027,-3.8 -0.3,-3.8 -0.825,0 -1.5,0.4132 -1.5,0.91821 0,0.50502 -0.27314,1.63002 -0.60699,2.5 -0.71616,1.86629 0.69816,2.09062 2.40699,0.38179 z m 5.37432,-8.1367 c 1.80113,-1.36953 5.6491,-9.28527 8.17675,-16.82057 3.92723,-11.70768 6.04127,-26.84273 3.74934,-26.84273 -0.76742,0 -7.45721,4.62103 -13.28942,9.17978 -1.2861,1.00528 -2.17506,5.2285 -3.72649,17.70375 -1.12061,9.01095 -1.7965,16.77345 -1.50197,17.25 0.78687,1.27319 4.66254,0.99671 6.59179,-0.47023 z m -8.20128,-16.97389 c 0.68151,-5.94583 1.07887,-10.96406 0.88303,-11.15162 -0.19584,-0.18757 -4.81601,1.11756 -10.26706,2.90029 -11.57842,3.78664 -13.84077,5.81161 -13.38813,11.98337 l 0.29912,4.07855 7,0.5642 c 3.85,0.31031 8.35,1.28903 10,2.17492 1.65,0.88589 3.27764,1.307 3.61697,0.9358 0.33934,-0.37121 1.17457,-5.53969 1.85607,-11.48551 z m 94.24614,-17.27111 c 2.82145,-6.19242 -9.18635,-48.4183 -13.76875,-48.4183 -0.77238,0 -2.11605,1.08623 -2.98594,2.41385 -1.99628,3.0467 -5.87066,4.88472 -15.96449,7.57361 -8.96778,2.38892 -11.02133,3.79461 -10.04364,6.87505 0.91024,2.8679 4.75301,5.34712 13.28189,8.56902 6.18085,2.33489 8.02431,3.63526 12.61907,8.90141 2.95944,3.39188 6.169,7.74206 7.13233,9.66706 3.69491,7.38339 7.5756,9.14566 9.72953,4.4183 z M 499.37475,753.77635 c 2.87904,-3.85617 2.61622,-16.49946 -0.43198,-20.78025 -1.92236,-2.69971 -2.46092,-2.90646 -5.7813,-2.21942 -2.01381,0.41668 -5.10352,0.68801 -6.86602,0.60295 l -3.20455,-0.15465 2.31349,5.17575 c 5.14641,11.51355 10.09721,20.67521 11.0084,20.37148 0.53103,-0.17701 1.86392,-1.52515 2.96196,-2.99586 z M 256.62418,735.27318 c -7.85613,-12.44491 -13.60318,-27.95405 -16.12861,-43.52509 -1.9137,-11.79926 -1.90907,-35.72272 0.0116,-60.19751 0.8212,-10.46424 1.60553,-28.68924 1.74294,-40.5 0.21663,-18.61896 -3.5e-4,-22.30509 -1.63193,-27.72411 -1.03497,-3.4375 -2.32381,-6.25 -2.86409,-6.25 -0.54027,0 -5.99347,4.80569 -12.11822,10.67931 -6.12475,5.87363 -13.83591,12.68446 -17.13591,15.1352 -13.52863,10.04698 -24.87407,12.90233 -30.18071,7.59569 -2.43901,-2.43901 -2.55269,-2.98902 -1.95252,-9.44669 1.07716,-11.58978 4.17667,-22.93228 8.28657,-30.32425 1.49389,-2.68686 1.4555,-3.13116 -0.63154,-7.31006 -1.8795,-3.76333 -2.16811,-5.72775 -1.87195,-12.74113 0.3306,-7.82875 0.56044,-8.56166 4.11587,-13.12422 2.07114,-2.65783 3.42114,-5.1449 3,-5.52682 -0.42115,-0.38192 -36.59005,-0.9322 -80.37533,-1.22284 l -79.60961,-0.52845 -0.65531,8.52532 c -1.26796,16.49566 -5.74222,30.98168 -13.0661,42.30324 -2.50765,3.87644 -4.55937,7.37281 -4.55937,7.76972 0,0.39692 2.5875,2.38345 5.75,4.41452 3.1625,2.03108 13.175,8.86149 22.25,15.17869 22.63924,15.75942 25.74889,17.90684 48,33.14718 35.66877,24.43043 41.3176,28.30727 69,47.35526 15.125,10.40736 29.525,20.34724 32,22.08861 2.475,1.74138 5.85,4.02275 7.5,5.06973 1.65,1.04697 10.875,7.35745 20.5,14.02328 9.625,6.66582 20.425,14.10776 24,16.53763 3.575,2.42987 8.975,6.17366 12,8.31954 3.025,2.14588 5.84315,3.94209 6.26254,3.99157 0.4194,0.0495 -0.31786,-1.62151 -1.63836,-3.71332 z m 423.1399,-10.06756 c 6.3529,-1.34451 12.0285,-3.63147 14.44932,-5.82228 3.80751,-3.44575 1.51748,-9.42735 -9.01865,-23.55687 -3.5886,-4.8125 -7.23798,-8.7548 -8.10974,-8.76067 -1.70753,-0.0115 -6.39495,-4.25381 -17.84593,-16.15135 -3.9935,-4.14924 -9.07536,-8.36228 -11.29301,-9.3623 -3.73377,-1.6837 -4.1532,-1.69713 -5.66881,-0.18151 -1.40361,1.4036 -1.47572,2.33416 -0.50634,6.53372 0.6217,2.69336 2.22039,7.32141 3.55264,10.28456 C 654.28406,698.11853 658,707.4728 658,710.09977 c 0,0.52437 2.51478,4.99962 5.58841,9.94501 5.57401,8.96847 5.59525,8.98812 8.25,7.63327 1.46387,-0.7471 5.03043,-1.85969 7.92567,-2.47243 z m -177.31177,-0.10785 c 11.04222,-3.80816 12.52745,-6.88674 12.55365,-26.0213 0.0126,-9.21785 0.79878,-17.09501 2.99404,-30 1.63731,-9.625 2.98211,-18.29864 2.98846,-19.27475 0.0119,-1.83665 -2.17172,-2.98341 -7.70043,-4.04392 -3.1044,-0.59548 -3.32209,-0.40796 -6.5,5.59908 -2.04739,3.87007 -4.31702,6.70412 -6.01514,7.51099 -2.11072,1.00291 -3.15723,2.6986 -4.63007,7.5022 -1.24769,4.06928 -2.49401,6.32414 -3.61945,6.54832 -1.26627,0.25224 -1.56854,-0.1412 -1.15242,-1.5 C 493.81989,663.42161 495,656.58202 495,650.38542 c 0,-8.09421 2.6e-4,-8.09394 -8.4249,-8.58172 l -3.9249,-0.22723 -4.13929,13.5 c -5.00516,16.32398 -7.16348,21.11578 -12.6205,28.01942 l -4.18471,5.29406 7.89715,16.05499 c 5.57702,11.33815 9.07232,17.18639 11.89715,19.90597 3.86441,3.72044 4.18643,3.83315 9.5,3.32531 3.025,-0.28912 8.17854,-1.44942 11.45231,-2.57845 z m -30.41526,-6.5442 c 0.7919,-0.48942 -2.21275,-7.28289 -9.48959,-21.45582 l -2.81296,-5.47873 -3.18756,3.68746 c -1.75315,2.02811 -3.99734,5.19115 -4.98709,7.02899 -1.75469,3.25827 -1.74671,3.45086 0.32031,7.7291 1.16591,2.41316 2.11984,5.11304 2.11984,5.99973 0,3.43282 2.18908,4.23794 9.83672,3.61788 4.03519,-0.32718 7.72534,-0.83505 8.20033,-1.12861 z m 181.60545,-11.5146 c -0.33413,-1.67063 -3.608,-9.88313 -7.27528,-18.25 -7.84754,-17.90414 -9.35411,-22.96208 -8.17315,-27.43942 1.2617,-4.7834 4.00048,-5.84199 9.66571,-3.73597 3.54935,1.31945 7.37328,4.51524 16.26586,13.59393 6.39411,6.52793 12.08914,11.86896 12.65562,11.86896 0.67262,0 0.84521,-3.38283 0.49746,-9.75 -0.60237,-11.02881 1.06039,-19.58428 5.27003,-27.11614 1.36424,-2.4409 2.36138,-4.49837 2.21585,-4.57215 -0.14553,-0.0738 -2.7396,-0.98194 -5.7646,-2.01813 -7.13168,-2.4429 -12.00571,-5.4907 -20,-12.50627 -7.84758,-6.88682 -15.85317,-13.03731 -16.96961,-13.03731 -1.48132,0 -1.97326,2.86559 -3.99709,23.28332 -3.49891,35.29945 -4.20144,41.76318 -5.47626,50.38543 -1.20855,8.17399 -1.18304,8.45973 0.84848,9.50465 1.15196,0.59252 4.43323,2.8573 7.2917,5.03285 4.49497,3.42106 11.86674,7.79375 13.13922,7.79375 0.22746,0 0.14018,-1.36688 -0.19394,-3.0375 z m -23.78353,-23.68109 c 0.63337,-4.82978 1.82808,-15.75641 2.65491,-24.28141 0.82683,-8.525 2.23186,-22.33837 3.12229,-30.69638 0.89043,-8.35801 1.35068,-15.89551 1.02278,-16.75 -0.86994,-2.26701 -3.00896,-1.91675 -7.85882,1.28688 -8.06635,5.32833 -12.10984,6.22889 -41.80013,9.3096 -32.06811,3.32743 -69.01049,4.7123 -80.84681,3.03073 -8.62743,-1.2257 -10.58505,-0.77841 -9.65964,2.20708 0.36008,1.16165 0.90509,4.2652 1.21113,6.89678 0.62422,5.36747 1.58388,6.19704 8.29532,7.17086 4.24013,0.61523 4.59553,0.48152 6.15425,-2.31552 2.98398,-5.35455 9.56805,-8.27487 12.36051,-5.48241 1.36439,1.36439 1.61128,2.83223 1.17971,7.01373 l -0.54579,5.28824 7.17566,2.10192 c 36.37323,10.65462 48.57793,14.92735 62.90568,22.02259 9.42438,4.66705 20.56727,12.09364 27.27225,18.17661 2.74875,2.49375 5.26939,4.3694 5.60142,4.1681 0.33203,-0.2013 1.12191,-4.31763 1.75528,-9.1474 z M 469.00294,671.57647 c 3.35938,-7.02289 10.72282,-30.20479 9.82897,-30.944 -0.63333,-0.52377 -41.09948,-4.62176 -41.51685,-4.2044 -0.23077,0.23077 3.25048,8.00857 7.73611,17.28399 4.48563,9.27543 9.42875,19.57151 10.9847,22.88018 1.55595,3.30867 3.16352,6.35028 3.57238,6.75914 1.41548,1.41549 5.58472,-3.81006 9.39469,-11.77491 z m 32.17738,-17.25 c 0.81966,-0.9625 2.08621,-3.25406 2.81456,-5.09236 1.48775,-3.75497 0.49845,-5.11345 -3.74488,-5.14233 -2.08503,-0.0142 -2.25,0.4246 -2.25,5.98469 0,6.26458 0.68508,7.18008 3.18032,4.25 z m 21.34139,-13.34884 c 0.3772,-1.71739 0.2346,-3.54485 -0.31988,-4.09933 -1.46547,-1.46547 -4.78298,-0.09 -6.64792,2.75624 -1.55261,2.36958 -1.52318,2.52096 0.66054,3.39762 4.16704,1.67287 5.59042,1.20922 6.30726,-2.05453 z m -27.52729,-4.15116 c -0.008,-3.12113 -1.87901,-9.56064 -2.97511,-10.23807 -1.04969,-0.64874 -6.01931,7.39487 -6.01931,9.74259 0,1.90001 1.42642,2.56151 5.75,2.66653 2.72865,0.0663 3.24911,-0.28198 3.24442,-2.17105 z m -10.54287,-5.42514 c 1.83521,-4.00862 2.28593,-5.98738 1.53488,-6.73843 -0.65209,-0.65209 -9.84635,-1.28733 -23.77486,-1.64263 -12.49136,-0.31864 -22.74681,-0.54885 -22.78988,-0.51157 -1.72785,1.49544 -5.49069,7.86077 -5.18644,8.77353 0.409,1.22699 31.58661,5.33707 42.94144,5.66087 l 4.6767,0.13337 2.59816,-5.67514 z M 434,624.07647 c 0.93954,-1.75554 0.76049,-2 -1.46482,-2 -2.75868,0 -2.82448,0.0825 -1.92819,2.41821 0.82366,2.14643 2.10498,1.9885 3.39301,-0.41821 z m 1.40736,-5.60282 c 2.28391,-0.87642 3.31479,-6.009 4.63452,-23.0746 0.85255,-11.02437 0.88182,-17.34637 0.10697,-23.10393 -1.33614,-9.9283 -4.95689,-21.21865 -6.80469,-21.21865 -2.42851,0 -11.68031,5.76351 -17.34416,10.80473 -3.025,2.69247 -6.96301,5.64968 -8.75114,6.5716 l -3.25113,1.6762 2.83565,5.72374 c 1.55961,3.14805 6.80635,13.91695 11.65944,23.93089 4.98767,10.29166 9.51578,18.39273 10.41549,18.634 2.551,0.68409 4.81154,0.70357 6.49905,0.056 z M 195.5,587.21518 c 3.3,-1.57284 8.38357,-4.66289 11.29683,-6.86677 5.32229,-4.02633 30.43251,-27.02084 31.01447,-28.40129 0.41205,-0.97744 -6.8623,-17.87065 -7.69525,-17.87065 -0.35564,0 -1.41639,2.16736 -2.35723,4.81635 -4.03413,11.35837 -10.11636,16.13994 -20.56491,16.1672 -4.99497,0.013 -7.54284,-0.59717 -12.25451,-2.93487 l -5.94842,-2.95132 -1.9789,3.87896 c -2.8427,5.57216 -6.64872,19.43157 -7.45233,27.13727 -0.56579,5.42526 -0.39569,6.90761 0.94669,8.25 2.45885,2.45884 8.25882,1.98502 14.99356,-1.22488 z m 189.36219,-14.2136 c 6.7992,-2.98381 12.57216,-5.95456 12.8288,-6.60166 0.25664,-0.6471 -2.44943,-7.1721 -6.01348,-14.5 -3.56406,-7.3279 -9.16783,-18.9951 -12.45283,-25.92711 l -5.97272,-12.60366 -20.87598,-0.53942 C 340.89419,512.53304 319.6875,512.22366 305.25,512.14221 279.4418,511.99661 279,512.02848 279,514.0353 c 0,2.61081 -2.1485,2.63429 -3.76793,0.0412 -1.19005,-1.90558 -2.33202,-2 -24.18852,-2 l -22.93951,0 1.06826,3.06443 c 0.59944,1.71954 0.78215,5.22131 0.41632,7.97908 -0.57872,4.36256 -0.38517,5.14661 1.72292,6.97958 1.30619,1.13571 3.9002,5.87012 5.76447,10.52092 1.86427,4.65079 3.76396,8.45599 4.22153,8.45599 0.45757,0 4.51531,-2.23846 9.0172,-4.97436 6.56145,-3.98754 10.86262,-5.68292 21.68128,-8.54603 7.42282,-1.96441 13.83281,-3.90844 14.24444,-4.32007 0.41163,-0.41163 -0.58079,-2.30342 -2.20538,-4.20398 -3.13897,-3.67219 -3.8394,-5.98877 -1.78508,-5.90395 1.72432,0.0712 7.75,7.76972 7.75,9.90154 0,0.95528 0.93438,2.58248 2.0764,3.61599 1.14202,1.03351 3.61646,4.63301 5.49877,7.99888 1.8823,3.36588 4.2203,6.84189 5.19554,7.72448 3.98363,3.60513 25.32484,17.07221 33.72929,21.2844 12.19818,6.11356 17.27203,7.41718 27.5,7.06555 7.78947,-0.2678 9.53337,-0.74572 20.86219,-5.71734 z M 10.18645,564.32647 c 7.36732,-8.61575 14.23709,-28.17371 15.4016,-43.84774 l 0.67592,-9.09774 -3.38198,-0.47645 C 15.3389,509.84187 -72,509.93456 -72,511.00523 c 0,0.58918 0.358474,1.07124 0.796609,1.07124 0.438135,0 1.675635,0.68863 2.75,1.53028 4.775957,3.74147 15.963982,11.46972 16.604474,11.46972 0.388333,0 1.300703,0.57849 2.027488,1.28553 0.726786,0.70705 3.565421,2.84455 6.308078,4.75 2.742657,1.90546 5.5873,4.02697 6.321429,4.71447 0.734128,0.6875 1.720493,1.25 2.191922,1.25 0.471429,0 1.454842,0.5625 2.185363,1.25 0.730521,0.6875 4.025167,3.04999 7.321427,5.24997 3.29627,2.19999 6.44321,4.33903 6.99321,4.75342 0.55,0.4144 3.475,2.40985 6.5,4.43435 3.025,2.02449 6.09464,4.27295 6.82143,4.99658 0.72678,0.72362 1.70714,1.31568 2.17857,1.31568 0.47143,0 1.45179,0.57248 2.17857,1.27218 2.48407,2.39148 7.32007,5.66442 8.41644,5.69614 0.60226,0.0174 1.76841,-0.75582 2.59144,-1.71832 z m 205.89187,-14.5238 c 4.24157,-2.85839 7.55349,-7.72541 9.28028,-13.63782 2.19932,-7.53027 1.20007,-11.00983 -5.04233,-17.5584 -5.1131,-5.36388 -5.89783,-5.81576 -11.15808,-6.42529 -3.11201,-0.3606 -6.33319,-0.51915 -7.15819,-0.35234 -1.02124,0.2065 -2.17874,3.41303 -3.62654,10.04631 -1.16959,5.35866 -3.34585,12.79082 -4.83613,16.51593 -3.11366,7.78292 -2.78665,8.75529 3.95432,11.75841 5.91944,2.63712 14.39346,2.47901 18.58667,-0.3468 z m -23.64473,-17.70795 c 2.76599,-8.75898 4.82255,-19.10261 3.96406,-19.93757 -0.88643,-0.86213 -8.45949,7.92076 -10.0342,11.6372 -1.63041,3.84794 -1.78689,13.04275 -0.28875,16.96702 1.04592,2.73969 1.11369,2.76201 2.52971,0.83335 0.80025,-1.08997 2.52338,-5.36497 3.82918,-9.5 z m 32.59446,-17.96584 c -0.60413,-1.12883 -1.98258,-2.05241 -3.06323,-2.05241 -2.63543,0 -2.47856,0.85286 0.78518,4.26882 2.07286,2.16952 2.82713,2.5037 3.06323,1.35712 0.17228,-0.83662 -0.18105,-2.44471 -0.78518,-3.57353 z M 370,508.28508 c 0,-2.12559 -0.90178,-4.01497 -30.32135,-63.52838 L 319.5,403.93692 l -3,0.58594 c -1.65,0.32227 -6.15,0.84248 -10,1.15603 -6.11256,0.49781 -7.5705,0.26699 -11.5,-1.82066 -9.16854,-4.87105 -10.13591,-12.81665 -3.04928,-25.04568 6.64505,-11.46702 6.53032,-15.92448 -0.3445,-13.38396 -5.56345,2.05593 -6.31986,2.95588 -16.0938,19.14788 -5.31192,8.8 -11.38716,18.25 -13.50053,21 -2.11337,2.75 -9.06266,13.22908 -15.44285,23.28684 -6.3802,10.05776 -13.76888,21.30776 -16.41929,25 -6.07412,8.46174 -19.6804,32.49317 -22.97681,40.58167 -1.37437,3.37232 -2.53802,7.93149 -2.58589,10.13149 l -0.087,4 8.75,0.28893 8.75,0.28894 0,-2.61226 c 0,-3.30963 3.34092,-3.05984 3.81835,0.28548 l 0.31836,2.23066 50.68164,0.25912 c 27.87491,0.14252 60.24415,0.40553 71.93165,0.58446 20.48365,0.3136 21.25,0.25529 21.25,-1.61672 z m -102.60472,-4.72809 c -1.27121,-1.94011 -1.40756,-2.86824 -0.54768,-3.72812 0.85988,-0.85988 1.51136,-0.66038 2.61685,0.80135 1.71538,2.26813 1.92939,4.08481 0.57948,4.9191 -0.52584,0.32498 -1.71773,-0.57156 -2.64865,-1.99233 z m -41.91024,-6.6589 c -0.7829,-2.04022 1.2282,-6.08387 2.77016,-5.56989 1.86509,0.6217 1.79661,2.11909 -0.21684,4.74174 -1.64982,2.14902 -2.00255,2.26342 -2.55332,0.82815 z m 34.19133,-3.62673 c -1.88152,-2.07906 -2.14511,-3.78716 -0.7203,-4.66774 1.4044,-0.86797 4.57068,4.3461 3.36895,5.54783 -0.6297,0.6297 -1.56293,0.31962 -2.64865,-0.88009 z M 234,486.93671 c 0,-1.36689 2.9988,-3.78388 4.75,-3.82844 2.29427,-0.0584 1.2856,3.00416 -1.3151,3.99295 -3.23793,1.23106 -3.4349,1.22163 -3.4349,-0.16451 z m 14.75,-1.54957 c -2.08701,-0.54539 -2.36414,-3.31067 -0.33179,-3.31067 2.51325,0 4.58179,1.17698 4.58179,2.60699 0,1.39557 -0.98091,1.55799 -4.25,0.70368 z m 465.67946,-36.98011 c -8.26759,-13.39758 -11.23703,-17.34186 -18.33662,-24.35639 -7.87265,-7.77832 -25.68718,-30.24012 -28.70184,-36.18927 -1.38901,-2.74107 -2.68507,-4.82416 -2.88014,-4.62909 -0.19507,0.19507 -0.83707,6.37048 -1.42666,13.72314 l -1.07198,13.36846 3.24389,3.22404 c 1.78414,1.77322 6.61889,5.87822 10.74389,9.12221 4.125,3.24399 7.72833,6.19992 8.0074,6.56873 0.27907,0.36881 2.12463,1.95579 4.10126,3.52661 1.97662,1.57082 7.32561,6.22091 11.88664,10.33352 4.56103,4.11261 8.79891,7.92748 9.41751,8.47748 0.6186,0.55 3.33748,2.99892 6.04195,5.44203 2.70447,2.44312 5.08394,3.94188 5.28771,3.33057 0.20377,-0.61131 -2.63709,-5.98523 -6.31301,-11.94204 z m -54.95262,-48.58056 c 0.37904,-5.0875 1.0929,-12.175 1.58636,-15.75 0.49345,-3.575 0.9061,-9.28218 0.91699,-12.68261 0.017,-5.30471 -0.26291,-6.27235 -1.97124,-6.81455 C 657.3379,363.73155 656,364.71062 656,367.51304 c 0,3.42003 -2.05916,4.69365 -5.83692,3.6102 -2.92939,-0.84014 -3.3062,-0.67068 -4.75997,2.14059 -1.46985,2.84238 -1.87943,3.01906 -5.93825,2.56157 -3.85146,-0.43412 -4.39478,-0.2471 -4.66218,1.60481 -0.44075,3.05243 -4.52008,4.80834 -9.55268,4.11188 -2.3375,-0.32349 -4.22039,-0.22309 -4.18419,0.22311 0.2001,2.4668 33.84555,27.23875 37.07803,27.29922 0.35411,0.007 0.95396,-4.15045 1.333,-9.23795 z m 132.3171,246.71061 c -0.29666,-0.29666 -0.31815,-2.50219 -0.0478,-4.90118 0.42655,-3.78435 0.18949,-4.52349 -1.79075,-5.58328 -3.83436,-2.05209 -14.35295,-0.49405 -26.45307,3.91829 -7.42011,2.70576 -11.32369,3.68024 -12,2.99565 -1.4242,-1.44164 1.10669,-2.68297 14.49763,-7.11066 22.17152,-7.33097 33.198,-4.25167 28.90217,8.07135 -1.05272,3.01984 -1.94718,3.77088 -3.10823,2.60983 z"
       id="path2996"
       style="fill:#000000" />
    <text
       x="67.796234"
       y="501.19754"
       id="text2998"
       xml:space="preserve"
       style="font-size:32px;font-style:normal;font-variant:normal;font-weight:normal;font-stretch:normal;line-height:125%;letter-spacing:0px;word-spacing:0px;fill:#000000;fill-opacity:1;stroke:none;font-family:cmr10;-inkscape-font-specification:cmr10"><tspan
         x="67.796234"
         y="501.19754"
         id="tspan3000">FH</tspan></text>
    <text
       x="498.80981"
       y="970.24908"
       id="text3002"
       xml:space="preserve"
       style="font-size:32px;font-style:normal;font-variant:normal;font-weight:normal;font-stretch:normal;line-height:125%;letter-spacing:0px;word-spacing:0px;fill:#000000;fill-opacity:1;stroke:none;font-family:cmr10;-inkscape-font-specification:cmr10"><tspan
         x="498.80981"
         y="970.24908"
         id="tspan3004">Me</tspan></text>
    <text
       x="606.39105"
       y="948.5307"
       id="text3006"
       xml:space="preserve"
       style="font-size:32px;font-style:normal;font-variant:normal;font-weight:normal;font-stretch:normal;line-height:125%;letter-spacing:0px;word-spacing:0px;fill:#000000;fill-opacity:1;stroke:none;font-family:cmr10;-inkscape-font-specification:cmr10"><tspan
         x="606.39105"
         y="948.5307"
         id="tspan3008">Gn</tspan></text>
    <text
       x="618.00781"
       y="902.06372"
       id="text3010"
       xml:space="preserve"
       style="font-size:32px;font-style:normal;font-variant:normal;font-weight:normal;font-stretch:normal;line-height:125%;letter-spacing:0px;word-spacing:0px;fill:#000000;fill-opacity:1;stroke:none;font-family:cmr10;-inkscape-font-specification:cmr10"><tspan
         x="618.00781"
         y="902.06372"
         id="tspan3012">Pog</tspan></text>
    <text
       x="671.5459"
       y="376.78439"
       id="text3014"
       xml:space="preserve"
       style="font-size:32px;font-style:normal;font-variant:normal;font-weight:normal;font-stretch:normal;line-height:125%;letter-spacing:0px;word-spacing:0px;fill:#000000;fill-opacity:1;stroke:none;font-family:cmr10;-inkscape-font-specification:cmr10"><tspan
         x="671.5459"
         y="376.78439"
         id="tspan3016">N</tspan></text>
    <text
       x="304.35544"
       y="376.2793"
       id="text3018"
       xml:space="preserve"
       style="font-size:32px;font-style:normal;font-variant:normal;font-weight:normal;font-stretch:normal;line-height:125%;letter-spacing:0px;word-spacing:0px;fill:#000000;fill-opacity:1;stroke:none;font-family:cmr10;-inkscape-font-specification:cmr10"><tspan
         x="304.35544"
         y="376.2793"
         id="tspan3020">S</tspan></text>
    <text
       x="367.99506"
       y="483.86057"
       id="text3022"
       xml:space="preserve"
       style="font-size:32px;font-style:normal;font-variant:normal;font-weight:normal;font-stretch:normal;line-height:125%;letter-spacing:0px;word-spacing:0px;fill:#000000;fill-opacity:1;stroke:none;font-family:cmr10;-inkscape-font-specification:cmr10"><tspan
         x="367.99506"
         y="483.86057"
         id="tspan3024">Asse Y</tspan></text>
    <text
       x="36.665005"
       y="651.04083"
       id="text3026"
       xml:space="preserve"
       style="font-size:32px;font-style:normal;font-variant:normal;font-weight:normal;font-stretch:normal;line-height:125%;letter-spacing:0px;word-spacing:0px;fill:#000000;fill-opacity:1;stroke:none;font-family:cmr10;-inkscape-font-specification:cmr10"><tspan
         x="36.665005"
         y="651.04083"
         id="tspan3028">MP</tspan></text>
  </g>
</svg>
