<?xml version="1.0" encoding="UTF-8" standalone="no"?>
<!-- Created with Inkscape (http://www.inkscape.org/) -->

<svg
   xmlns:dc="http://purl.org/dc/elements/1.1/"
   xmlns:cc="http://creativecommons.org/ns#"
   xmlns:rdf="http://www.w3.org/1999/02/22-rdf-syntax-ns#"
   xmlns:svg="http://www.w3.org/2000/svg"
   xmlns="http://www.w3.org/2000/svg"
   version="1.1"
   width="1008"
   height="1228"
   id="svg3159">
  <defs
     id="defs3161" />
  <metadata
     id="metadata3164">
    <rdf:RDF>
      <cc:Work
         rdf:about="">
        <dc:format>image/svg+xml</dc:format>
        <dc:type
           rdf:resource="http://purl.org/dc/dcmitype/StillImage" />
        <dc:title></dc:title>
      </cc:Work>
    </rdf:RDF>
  </metadata>
  <g
     transform="translate(129,81.637817)"
     id="layer1">
    <path
       d="m 233.5,1143.92 c -9.49682,-2.4733 -21.29943,-6.9023 -29.59269,-11.1048 -25.84354,-13.0959 -54.82989,-42.6046 -72.15269,-73.453 C 124.19052,1045.8921 118,1015.4516 118,991.72698 c 0,-19.4687 2.47346,-34.2937 12.90787,-77.3648 8.74116,-36.08171 12.84145,-48.4915 22.63291,-68.5 6.79943,-13.8944 12.63713,-21.97279 25.2921,-35 4.27427,-4.4 9.26733,-9.8 11.0957,-12 1.82836,-2.2 8.32989,-9.36157 14.44786,-15.91461 8.80117,-9.42706 14.85146,-17.46514 28.9791,-38.5 23.41567,-34.86397 36.86086,-55.96777 44.65126,-70.08539 3.49026,-6.325 7.58514,-12.85 9.09973,-14.5 3.66319,-3.9907 6.09343,-10.4776 10.97661,-29.29931 2.2404,-8.63538 5.79249,-20.87569 7.89354,-27.20069 2.10105,-6.325 5.25874,-16.45 7.01709,-22.5 1.84261,-6.33989 4.00389,-11.70338 5.10162,-12.66029 1.3694,-1.19374 1.91457,-3.02028 1.94005,-6.5 0.0195,-2.66184 0.58198,-5.80314 1.25,-6.98067 0.66801,-1.17754 5.43151,-6.53518 10.58557,-11.90588 13.42555,-13.98988 19.93794,-24.6471 33.5807,-54.95316 3.71387,-8.25 7.4711,-15.80939 8.3494,-16.79864 1.26549,-1.42536 1.67707,-4.84974 1.98318,-16.5 l 0.38628,-14.70136 -9.39564,-6.22702 c -5.1676,-3.42486 -11.1192,-7.92486 -13.22578,-10 C 348.70447,418.86278 344,411.59791 344,408.88891 c 0,-5.97731 7.32054,-10.15454 21.21207,-12.104 5.46268,-0.76661 10.28223,-1.61019 10.71011,-1.87464 0.72746,-0.44959 1.04801,-11.91679 2.7173,-97.20641 l 0.64898,-33.15832 -2.39423,-2.96436 c -17.83843,-22.08626 -24.21062,-29.8172 -29.44119,-35.719 -12.11943,-13.67469 -36.47281,-33.78991 -49.60876,-40.97545 -3.88758,-2.12656 -5.11153,-2.37344 -7.4185,-1.49633 -5.12326,1.94786 -5.56385,3.3788 -4.91777,15.97178 2.66725,51.98839 16.12124,102.79222 42.50398,160.5 1.76013,3.85 4.01507,8.8 5.01098,11 0.9959,2.2 4.09446,8.725 6.88568,14.5 5.30717,10.98048 5.75494,12.47185 4.05923,13.51985 -1.03232,0.63801 -7.28303,-11.88333 -20.30954,-40.68376 -13.63018,-30.13509 -23.37237,-57.22769 -30.22103,-84.04336 -8.6167,-33.73836 -14.10734,-83.53572 -9.87661,-89.57594 1.91618,-2.73572 6.53196,-5.21679 9.70533,-5.21679 2.66145,0 21.58396,12.22022 31.03062,20.03968 15.33815,12.69612 28.34009,26.77116 52.44302,56.77134 0.68181,0.84864 1.49188,1.29077 1.80014,0.98251 0.7602,-0.76021 1.26248,-15.56673 1.98713,-58.57774 l 0.61132,-36.28421 -3.06913,-2.867 c -4.41865,-4.12764 -4.2684,-8.92887 0.43087,-13.76755 l 3.5,-3.60383 0.003,-17.5966 c 0.001,-9.67813 0.29787,-26.709097 0.65872,-37.846597 0.55095,-17.00469 0.89553,-20.25 2.15014,-20.25 1.60838,0 1.60553,0.44226 -0.80748,124.999997 -0.51677,26.675 -1.18055,61.775 -1.47508,78 -1.01969,56.17243 -1.57752,84.58736 -2.04167,104 -1.27652,53.38899 -2.63925,142.18134 -2.18903,142.63157 0.2806,0.2806 3.63931,-0.42172 7.46379,-1.5607 C 394.40665,511.85857 396,511.83512 396,514.28239 c 0,1.81864 0.95666,1.92624 18.08472,2.03404 17.39297,0.10948 18.10506,0.036 18.61663,-1.92021 0.66017,-2.52448 1.46348,-2.52768 8.55833,-0.034 3.12969,1.1 6.35004,2 7.15632,2 0.80628,0 1.71095,0.39639 2.01038,0.88088 0.29942,0.48448 -3.25773,1.83448 -7.9048,3 -10.17608,2.55223 -9.17822,2.54012 -9.81133,0.11912 -0.47895,-1.83149 -1.36401,-2 -10.50482,-2 l -9.98181,0 -0.50769,24.75 c -0.5513,26.87599 -1.57804,34.0304 -6.70914,46.75 -1.55309,3.85 -3.77329,10.04483 -4.93378,13.76629 -1.16048,3.72146 -4.61772,13.17146 -7.68275,21 -5.99447,15.31073 -8.80052,25.45963 -9.86239,35.67019 -0.36816,3.54007 -1.42369,7.81507 -2.34562,9.5 -0.92193,1.68494 -2.19591,4.86352 -2.83107,7.06352 l -1.15483,4 -0.0982,-4.62427 c -0.054,-2.54339 0.57685,-6.53747 1.40185,-8.87577 1.70093,-4.82094 1.94196,-7.23128 0.5,-5 -1.72525,2.66964 -1.15107,-5.80718 0.62614,-9.24392 0.89437,-1.72954 2.40631,-5.87273 3.35985,-9.2071 0.95355,-3.33437 4.71622,-13.82042 8.3615,-23.30234 3.64528,-9.48191 6.91586,-19.04137 7.26796,-21.24324 l 0.64017,-4.0034 -5.06271,0 c -8.97205,0 -15.19291,-3.8531 -15.19291,-9.41023 l 0,-3.06161 2.25,3.16911 c 2.93826,4.1385 7.64684,6.30273 13.7125,6.30273 6.08105,0 7.42379,-1.26202 9.88979,-9.29521 3.63192,-11.83129 4.57971,-20.6032 4.61418,-42.70479 l 0.0335,-21.5 -6.25,-0.29772 c -5.79055,-0.27583 -6.25,-0.14223 -6.25,1.81739 0,1.74097 -0.398,1.98723 -2.25,1.3922 -1.2375,-0.3976 -5.24276,-1.49654 -8.90059,-2.4421 l -6.65058,-1.7192 -0.58865,15.12472 c -0.32375,8.31859 -0.824,32.89971 -1.11165,54.62471 -0.28766,21.725 -0.73792,46.25 -1.00057,54.5 -0.26266,8.25 -0.71482,30.75 -1.0048,50 -0.28998,19.25 -0.73602,41.75 -0.9912,50 -0.25517,8.25 -0.70132,32.55 -0.99144,54 -0.77486,57.29034 -1.47245,74.5 -3.01982,74.5 -0.70352,0 -1.28422,-1.0125 -1.29044,-2.25 -0.0544,-10.82571 1.88613,-127.38808 2.35989,-141.75 0.39267,-11.90369 0.26595,-18.14344 -0.3554,-17.5 -0.94986,0.98365 -13.75048,34.44821 -21.4207,56 -10.58684,29.74688 -15.88263,63.93308 -13.01246,84 0.96908,6.77543 29.22261,111.8391 29.89479,111.167 0.18325,-0.1833 0.56984,-12.4458 0.8591,-27.2501 0.98203,-50.25998 1.5419,-61.4169 3.08201,-61.4169 1.80179,0 1.90245,-13.77604 -1.05215,144.00002 -0.29354,15.675 -0.7735,42 -1.06659,58.5 -0.9219,51.9003 -1.47222,62.5 -3.24486,62.5 -1.37166,0 -1.4705,-3.4182 -0.88913,-30.75 0.58218,-27.3695 0.89379,-52.9408 0.67938,-55.75 -0.042,-0.55 -1.17788,2.122 -2.52422,5.9377 -1.36138,3.8584 -3.53332,7.8531 -4.89335,9 -1.34501,1.1343 -3.21548,3.6373 -4.15661,5.5623 -7.36029,15.0549 -38.36915,49.9664 -52.53225,59.1438 -2.71024,1.7562 -4.92771,3.5745 -4.92771,4.0408 0,0.4663 -1.6875,1.5842 -3.75,2.4843 -2.0625,0.9 -6.26165,2.9037 -9.33145,4.4526 -8.66567,4.3723 -16.02686,5.8843 -28.37865,5.8293 -8.22829,-0.037 -13.33199,-0.6461 -20.0399,-2.393 z m 36.0399,-2.1072 c 3.27806,-0.8521 8.78809,-3.1021 12.24452,-5 3.45644,-1.8978 6.91842,-3.4506 7.6933,-3.4506 0.77488,0 1.99689,-0.8284 2.71558,-1.841 0.71868,-1.0125 3.12532,-2.9839 5.34809,-4.3808 16.2664,-10.2229 52.49208,-52.6303 52.44216,-61.391 -0.0187,-3.2809 -3.64011,-10.1699 -6.177,-11.7505 -2.50199,-1.5589 -17.82348,0.6258 -27.38409,3.9047 -10.70735,3.6721 -16.61526,6.6022 -41.60108,20.6323 -4.77324,2.6803 -11.29824,6.0297 -14.5,7.4432 -3.20176,1.4135 -7.62138,3.3798 -9.82138,4.3695 -12.18238,5.4804 -22.32152,4.6889 -46.71306,-3.6467 -15.64662,-5.3471 -17.15999,-6.0751 -18.36422,-8.8335 -0.72181,-1.6534 -6.33407,-13.7779 -12.47169,-26.9433 -12.42487,-26.6518 -17.04655,-38.1342 -20.13473,-50.0242 -1.84908,-7.11932 -2.02188,-9.86872 -1.51083,-24.03872 1.17886,-32.6864 7.49901,-65.93101 19.18742,-100.92787 12.38796,-37.09143 15.27701,-41.96665 49.82106,-84.07213 6.21119,-7.57077 13.56474,-18.27474 19.92279,-29 11.70563,-19.74597 19.44267,-31.5 20.73472,-31.5 2.27462,0 1.60932,2.14627 -2.61921,8.44953 -2.50537,3.73463 -9.28927,14.71483 -15.07534,24.40045 -10.83897,18.14397 -12.37871,20.30987 -25.42473,35.76401 -12.9342,15.32168 -26.60853,33.95211 -30.29918,41.28076 -1.9276,3.82771 -5.26307,11.60477 -7.41215,17.28236 -16.35202,43.19989 -25.23406,85.94669 -25.52047,122.82289 l -0.12038,15.5 4.23658,12.31262 c 2.33011,6.772 7.22191,18.697 10.87066,26.5 3.64874,7.8031 9.29895,20.0374 12.55602,27.1874 3.25707,7.15 6.24027,13.5741 6.62934,14.2758 0.38907,0.7017 5.8824,3.1088 12.2074,5.3492 21.13602,7.4865 23.57088,8.0301 34,7.5901 8.80119,-0.3713 10.25603,-0.7487 19.77779,-5.1302 5.65278,-2.6012 16.98604,-8.5093 25.18503,-13.1291 26.07659,-14.6932 39.69916,-19.957 54.61604,-21.1036 10.22587,-0.786 12.47663,0.1336 16.18197,6.6111 1.42731,2.4952 2.74467,4.7288 2.92747,4.9637 1.7101,2.197 9.88189,-21.5215 10.95624,-31.8003 0.63758,-6.1 0.5735,-6.3347 -2.49508,-9.1374 -2.56066,-2.3388 -3.14946,-3.6493 -3.14946,-7.0099 0,-3.3293 0.62536,-4.7505 3.21493,-7.3063 l 3.21493,-3.1731 0.39592,-13.65422 0.39592,-13.6542 -16.86085,-61.34582 -16.86085,-61.34578 0.0451,-20 c 0.042,-18.62533 0.2662,-21.04009 3.26226,-35.13227 3.37183,-15.85959 10.27072,-37.61964 19.13921,-60.36773 2.89468,-7.425 5.63912,-14.625 6.09875,-16 0.45962,-1.375 2.70835,-7.45 4.99716,-13.5 3.6891,-9.75137 4.21064,-12.19188 4.59458,-21.5 l 0.43309,-10.5 -2.05089,3.7343 c -1.12799,2.05386 -3.22401,7.00386 -4.65783,11 -11.78235,32.83803 -29.5538,64.7417 -50.72784,91.06761 -13.29593,16.53097 -12.6895,16.06147 -19.90098,15.40756 -5.48276,-0.49716 -6.5869,-0.97402 -9.4243,-4.07015 -10.13147,-11.05535 -9.36119,-43.25445 2.81052,-117.48446 1.11334,-6.78983 1.81406,-12.55534 1.55715,-12.81225 -0.25691,-0.25692 -2.401,3.04839 -4.76464,7.34513 -8.71747,15.84708 -22.54788,37.6609 -47.43252,74.81226 -19.69749,29.40724 -18.30521,27.55085 -29.31081,39.08146 -17.08061,17.89539 -36.25209,39.06923 -40.69134,44.9413 -6.27343,8.29826 -15.551,27.68358 -20.87375,43.61535 -4.65265,13.92604 -15.74256,57.66729 -20.03977,79.04149 -3.90336,19.4153 -5.06782,36.1212 -3.658,52.47972 2.15427,24.9966 7.10033,43.0528 15.73062,57.4266 16.49632,27.4748 40.54449,52.0934 63.87216,65.3872 22.73992,12.9589 50.22654,18.6062 68.03201,13.9775 z m 34.1896,-352.20062 c 14.8207,-17.29495 30.37429,-40.62823 41.29497,-61.95014 5.54924,-10.83453 14.77025,-32.30622 16.44787,-38.29986 0.38486,-1.375 2.8686,-7.225 5.51943,-13 l 4.81969,-10.5 0.66078,-42.10113 0.66079,-42.10113 -3.31651,-1.39887 c -2.437,-1.0279 -7.08637,-1.32702 -17.5319,-1.12792 -15.95802,0.30416 -23.11028,-1.31361 -28.45785,-6.43691 -1.54325,-1.47853 -3.13644,-2.35771 -3.54041,-1.95373 -1.21616,1.21615 -12.04786,35.7931 -17.73689,56.61969 -2.92967,10.725 -6.25754,22.2 -7.39528,25.5 -3.02643,8.77814 -10.60408,58.47269 -13.22159,86.70772 -1.52018,16.39827 -0.7872,41.99077 1.34017,46.79228 2.99758,6.76562 5.68933,8.78723 11.87829,8.92105 3.24601,0.0702 4.19769,-0.55894 8.57844,-5.67105 z m 70.63543,-271.75 0.63028,-42 -2.43557,5 c -1.33957,2.75 -6.07232,12.61314 -10.51724,21.91808 -9.97306,20.87753 -16.79346,31.25063 -28.48561,43.32356 -4.98123,5.14346 -9.36266,10.11824 -9.7365,11.05506 -1.57776,3.95372 -0.82461,9.04471 1.79939,12.16316 4.65319,5.53 8.01857,6.35304 26.38032,6.45159 10.76948,0.0578 17.19461,0.49993 18.5,1.27305 1.9255,1.14038 2.02299,0.84239 2.61732,-8 0.33953,-5.05147 0.90095,-28.0845 1.24761,-51.1845 z m 1.80496,-118.63625 c -0.98113,-0.93187 -19.41355,1.66804 -22.24935,3.1383 -6.74369,3.49633 -7.38873,6.2913 -3.03595,13.15492 2.87528,4.53385 10.12546,10.72319 19.61541,16.74532 l 5,3.1729 0.66989,-17.7876 c 0.36845,-9.78317 0.36845,-18.0739 0,-18.42384 z M 370,1008.4212 c 0,-8.88192 0.40553,-15.19162 1,-15.55902 0.91829,-0.5675 1.57729,5.0293 1.15688,9.82542 -0.088,1.0039 1.1907,3.176 2.84156,4.8269 4.08604,4.086 4.1152,8.8879 0.0785,12.9246 -1.60769,1.6077 -3.40769,2.9231 -4,2.9231 -0.7212,0 -1.07694,-4.9355 -1.07694,-14.941 z m 38,-499.5656 c 0,-7.00288 -2.2721,-21.88991 -5.49063,-35.97518 C 401.12922,466.84046 400,461.5974 400,461.2292 c 0,-0.95438 -6.84135,-4.86702 -8.51011,-4.86702 -3.09361,0 -6.41685,2.39096 -6.99746,5.03444 -0.33318,1.517 -1.48028,3.54958 -2.54911,4.51686 -1.85562,1.67931 -1.94332,1.67794 -1.94332,-0.0303 0,-0.98394 0.53929,-3.58895 1.19841,-5.78892 0.90708,-3.02754 1.98443,-4.32837 4.43162,-5.35087 1.77827,-0.743 3.50769,-1.79504 3.84317,-2.33786 0.33548,-0.54282 -1.65875,-2.61685 -4.43162,-4.60895 -4.98989,-3.58488 -6.26185,-5.4344 -3.73736,-5.4344 2.35097,0 10.49423,5.78962 11.17933,7.94818 0.36839,1.16069 3.84866,4.20458 7.73393,6.76421 10.24142,6.74708 17.24303,13.61626 32.3233,31.71194 7.36827,8.84162 14.01564,16.59028 14.77192,17.21926 5.20491,4.32874 14.74142,6.21522 17.95216,3.55123 3.66924,-3.04443 6.23402,-34.39951 4.74562,-58.01647 -1.74133,-27.63014 -5.17301,-47.04798 -12.19833,-69.02312 -5.74204,-17.96103 -12.17059,-27.15523 -18.98685,-27.15523 -6.58935,0 -17.22851,8.36234 -29.5844,23.25323 -6.98671,8.42013 -15.48781,15.00375 -22.29166,17.26363 -8.95753,2.97521 -7.536,-0.708 1.55076,-4.01806 3.97591,-1.44831 6.84336,-3.78132 14,-11.39065 16.08418,-17.10157 22.9564,-23.56285 27.76131,-26.10125 5.64616,-2.98283 5.71483,-2.48357 -2.33917,-17.0069 -3.20257,-5.775 -6.34495,-12.62297 -6.98308,-15.21771 -0.71149,-2.89305 -1.83269,-4.93114 -2.8989,-5.26954 -0.95627,-0.30351 -5.4384,-6.52448 -9.96028,-13.82438 -4.52189,-7.2999 -11.81969,-18.10127 -16.21734,-24.00305 -5.03532,-6.75755 -7.8785,-11.46837 -7.67913,-12.72343 0.44234,-2.78451 10.98033,10.50141 22.63557,28.53811 11.46274,17.73882 14.56218,21.53807 8.15802,10 -11.37134,-20.48721 -21.86377,-54.21903 -27.52832,-88.5 -2.70311,-16.35879 -2.76583,-17 -1.66306,-17 1.68901,0 3.8814,7.65941 5.69157,19.88422 3.98081,26.88395 14.45025,60.44855 25.4591,81.62082 5.05397,9.71982 6.89016,14.33698 7.26881,18.27772 0.31105,3.23712 1.71099,7.4818 3.62626,10.99496 1.7158,3.14725 4.81815,9.15669 6.89413,13.3543 3.32069,6.71439 4.21834,7.76915 7.46592,8.77259 4.60411,1.42257 10.11792,7.61058 13.89624,15.59539 5.6998,12.04552 12.15884,38.04782 15.60244,62.81102 2.92915,21.06374 2.28202,58.61332 -1.32721,77.01171 -0.66877,3.4091 -5.54614,6.66822 -9.98715,6.67353 -5.0592,0.006 -11.59657,-2.81405 -15.73807,-6.78913 -2.12428,-2.03892 -9.24292,-10.13379 -15.8192,-17.9886 -12.01448,-14.35027 -19.73754,-22.47578 -23.16309,-24.37011 -1.5419,-0.85267 -1.75287,-0.71879 -1.28553,0.81575 2.40927,7.91091 7.63016,39.65099 7.63016,46.38705 0,1.28211 -0.68419,1.94878 -2,1.94878 -1.75787,0 -2,-0.66667 -2,-5.50658 z M 386,152.36218 c 0,-10.04319 0.77024,-10.95703 5.36364,-6.36364 3.57091,3.57092 3.65353,9.43737 0.18181,12.90909 C 386.94429,163.5088 386,162.39423 386,152.36218 z m 0.12781,-21.5399 c -0.15683,-7.41134 1.59576,-14.34859 7.32977,-29.01332 12.25895,-31.352237 30.59851,-59.542197 54.00838,-83.016947 L 460.5,5.721852 445.5,3.989407 c -38.61198,-4.459544 -54.13972,-10.064515 -116,-41.871951 -9.9,-5.0904 -20.46914,-10.380273 -23.48697,-11.755273 -6.67322,-3.040485 -35.10287,-20.44897 -43.85884,-26.856327 -5.66852,-4.148061 -6.08272,-4.676097 -3.88083,-4.94747 1.66643,-0.205381 4.53207,1.19805 8.8458,4.332181 13.25845,9.632884 30.56118,19.390712 67.88084,38.281224 39.05443,19.76862 50.72487,25.134411 66,30.345223 16.19798,5.525628 34.08403,8.83983 56.25,10.422866 12.3658,0.883132 12.77061,2.203022 2.88165,9.395641 -8.58035,6.240822 -21.55715,20.339752 -32.23891,35.026662 -15.95792,21.94139 -28.149,45.16229 -34.95723,66.584617 -1.20878,3.80346 -2.77561,7.59038 -3.48186,8.41538 -0.70624,0.825 -1.71472,4.65 -2.24105,8.5 l -0.95698,7 -0.12781,-6.0399 z"
       id="path3178"
       style="fill:#000000" />
    <text
       x="403.35037"
       y="164.49391"
       id="text3180"
       xml:space="preserve"
       style="font-size:32px;font-style:normal;font-variant:normal;font-weight:normal;font-stretch:normal;line-height:125%;letter-spacing:0px;word-spacing:0px;fill:#000000;fill-opacity:1;stroke:none;font-family:cmr10;-inkscape-font-specification:cmr10"><tspan
         x="403.35037"
         y="164.49391"
         id="tspan3182">A</tspan></text>
    <text
       x="389.20828"
       y="1025.1439"
       id="text3184"
       xml:space="preserve"
       style="font-size:32px;font-style:normal;font-variant:normal;font-weight:normal;font-stretch:normal;line-height:125%;letter-spacing:0px;word-spacing:0px;fill:#000000;fill-opacity:1;stroke:none;font-family:cmr10;-inkscape-font-specification:cmr10"><tspan
         x="389.20828"
         y="1025.1439"
         id="tspan3186">B</tspan></text>
  </g>
</svg>
