<?xml version="1.0" encoding="UTF-8" standalone="no"?>
<!-- Created with Inkscape (http://www.inkscape.org/) -->

<svg
   xmlns:dc="http://purl.org/dc/elements/1.1/"
   xmlns:cc="http://creativecommons.org/ns#"
   xmlns:rdf="http://www.w3.org/1999/02/22-rdf-syntax-ns#"
   xmlns:svg="http://www.w3.org/2000/svg"
   xmlns="http://www.w3.org/2000/svg"
   xmlns:sodipodi="http://sodipodi.sourceforge.net/DTD/sodipodi-0.dtd"
   xmlns:inkscape="http://www.inkscape.org/namespaces/inkscape"
   width="1008"
   height="1228"
   id="svg3068"
   version="1.1"
   inkscape:version="0.48.1 r9760"
   sodipodi:docname="Nuovo documento 5">
  <defs
     id="defs3070" />
  <sodipodi:namedview
     id="base"
     pagecolor="#ffffff"
     bordercolor="#666666"
     borderopacity="1.0"
     inkscape:pageopacity="0.0"
     inkscape:pageshadow="2"
     inkscape:zoom="0.49497475"
     inkscape:cx="364.66573"
     inkscape:cy="629.31284"
     inkscape:document-units="px"
     inkscape:current-layer="layer1"
     showgrid="false"
     fit-margin-top="0"
     fit-margin-left="0"
     fit-margin-right="0"
     fit-margin-bottom="0"
     inkscape:window-width="1280"
     inkscape:window-height="749"
     inkscape:window-x="0"
     inkscape:window-y="29"
     inkscape:window-maximized="1" />
  <metadata
     id="metadata3073">
    <rdf:RDF>
      <cc:Work
         rdf:about="">
        <dc:format>image/svg+xml</dc:format>
        <dc:type
           rdf:resource="http://purl.org/dc/dcmitype/StillImage" />
        <dc:title></dc:title>
      </cc:Work>
    </rdf:RDF>
  </metadata>
  <g
     inkscape:label="Livello 1"
     inkscape:groupmode="layer"
     id="layer1"
     transform="translate(129,81.637817)">
    <path
       style="fill:#000000"
       d="m 437.40434,1007.2074 c -0.33254,-0.538 -0.38578,-1.1971 -0.11832,-1.4645 1.8524,-1.8525 72.17573,-25.16722 83.71398,-27.75432 15.13028,-3.3925 31.1372,-5.5228 69,-9.1831 20.8046,-2.0113 25.25701,-2.6955 25.66083,-3.9433 0.17799,-0.55 -3.38538,-2.9371 -7.91861,-5.3047 -40.94787,-21.3861 -58.82646,-30.1671 -73.78113,-36.2372 -21.86358,-8.87453 -44.0421,-20.25613 -54.46109,-27.94843 -4.4,-3.2485 -9.88009,-7.27893 -12.17799,-8.95651 -2.29789,-1.67758 -13.32289,-7.71011 -24.5,-13.40562 C 431.64491,867.31422 418,860.18631 412.5,857.16992 c -5.5,-3.01638 -15.4,-8.31998 -22,-11.78578 -6.6,-3.4658 -14.7,-7.74366 -18,-9.50637 -3.3,-1.7627 -10.725,-5.702 -16.5,-8.75398 -5.775,-3.05199 -21.75,-11.50327 -35.5,-18.78062 -13.75,-7.27735 -29.725,-15.70665 -35.5,-18.73176 -5.775,-3.02511 -13.2,-6.96023 -16.5,-8.74469 -9.34744,-5.05461 -21.66093,-11.53808 -38,-20.00829 -8.25,-4.27681 -15.45,-8.09407 -16,-8.48279 -0.55,-0.38871 -6.4,-3.54114 -13,-7.00539 -6.6,-3.46426 -17.4,-9.21246 -24,-12.77379 -6.6,-3.56132 -18.075,-9.62762 -25.5,-13.48066 -7.425,-3.85305 -14.4,-7.56008 -15.5,-8.23786 -1.1,-0.67778 -11,-5.86678 -22,-11.53113 -11,-5.66434 -24.45443,-12.70312 -29.89873,-15.64172 -5.4443,-2.9386 -10.08847,-5.34291 -10.32037,-5.34291 -0.2319,0 -5.22747,-2.65159 -11.10127,-5.89242 C 57.30583,669.22894 43.5,661.86686 32.5,656.10959 c -11,-5.75726 -28.55,-14.9646 -39,-20.46074 -10.45,-5.49614 -24.85,-13.0526 -32,-16.79213 -7.15,-3.73953 -16.15,-8.46759 -20,-10.50681 -3.85,-2.03922 -10.2625,-5.41441 -14.25,-7.50044 -3.9875,-2.08603 -7.25,-4.1159 -7.25,-4.51082 0,-0.91303 3.035027,-1.19358 64.5,-5.9622 28.05,-2.1762 62.7,-4.86417 77,-5.97328 14.3,-1.1091 34.325,-2.70561 44.5,-3.54779 10.175,-0.84218 30.425,-2.40709 45,-3.47759 14.575,-1.07049 37.525,-2.85568 51,-3.96707 13.475,-1.1114 27.425,-2.26186 31,-2.55659 5.87449,-0.4843 52.89454,-4.21613 82,-6.50807 6.325,-0.49806 26.575,-2.04475 45,-3.43707 18.425,-1.39232 38.675,-2.97697 45,-3.52145 21.79021,-1.87576 36.60028,-3.0462 70.5,-5.57162 18.7,-1.39308 44.35,-3.41435 57,-4.4917 12.65,-1.07734 32.225,-2.62339 43.5,-3.43566 18.56494,-1.33745 48.1042,-3.61808 65,-5.01844 27.31129,-2.26362 31,-2.43731 31,-1.45972 0,0.50252 -1.0125,1.14729 -2.25,1.43281 -2.25204,0.51961 -27.8118,2.74425 -52.25,4.54767 -7.15,0.52763 -18.4,1.39367 -25,1.92453 -6.6,0.53085 -26.625,2.11843 -44.5,3.52794 -30.29946,2.38923 -55.72179,4.41274 -101,8.0392 -10.175,0.81494 -24.35,1.93058 -31.5,2.4792 -51.40504,3.94427 -53.67594,4.22249 -56.9352,6.97549 -9.27543,7.83467 -18.64931,12.75171 -32.57221,17.08564 -4.12092,1.28277 -7.86838,2.64217 -8.32769,3.0209 -1.11387,0.91847 1.6754,6.17968 6.84878,12.9184 5.66737,7.38216 18.88933,19.83084 21.71316,20.44327 33.05723,7.1694 39.97189,5.01009 73.27316,-22.88172 4.95,-4.14593 9.71836,-7.54333 10.59636,-7.5498 2.52509,-0.0186 7.20448,2.64904 10.28261,5.86193 2.63152,2.7467 2.87362,3.69973 3.50276,13.78848 0.78645,12.6111 -0.14875,22.29465 -3.33953,34.57956 -1.25696,4.83943 -1.96254,8.9985 -1.56794,9.24237 0.39459,0.24387 4.2743,0.73004 8.62159,1.08037 8.2298,0.66321 21.43923,-0.22473 51.90415,-3.48902 9.9,-1.06077 27.9,-2.21132 40,-2.55677 33.12953,-0.94583 50.68,-3.37422 66.96602,-9.26582 10.09776,-3.65295 10.1721,-3.78624 5.76605,-10.3378 C 608.98936,623.45548 604.7834,616.89665 587,588.92995 574.20845,568.81358 572.21879,565.345 573.14331,564.77361 c 1.12354,-0.69439 2.00933,0.43644 9.46911,12.08857 15.56489,24.31229 24.38796,38.01093 29.94992,46.5 6.60158,10.07585 29.17092,45.49909 35.29206,55.39193 2.00508,3.24057 7.0206,11.0187 11.1456,17.28475 8.03236,12.20149 7.03319,11.53206 14.5,9.71491 1.88262,-0.45816 2.5,-0.21121 2.5,1 0,0.88463 0.49814,1.60841 1.10699,1.60841 1.45508,0 0.68106,-1.86415 -3.46538,-8.34609 -3.21932,-5.0326 -18.54227,-19.65391 -20.59707,-19.65391 -1.34389,0 -6.45334,-6.92453 -5.68005,-7.69783 0.35387,-0.35386 1.65412,0.24349 2.88945,1.32744 1.23533,1.08396 4.07036,3.18581 6.30006,4.67079 2.2297,1.48497 5.58048,4.27487 7.44617,6.19977 1.86569,1.92491 3.75389,3.49983 4.196,3.49983 0.44211,0 0.80383,-3.49724 0.80383,-7.77164 0,-4.94594 0.75276,-10.30892 2.07036,-14.75 2.79257,-9.41267 2.84756,-10.85023 0.42964,-11.23044 -8.32983,-1.30984 -20.7634,-4.87016 -24.5,-7.0155 -2.475,-1.42101 -7.33293,-5.29557 -10.7954,-8.61014 -6.09835,-5.83785 -6.39246,-5.98984 -9.39654,-4.85593 -2.97024,1.12114 -4.81524,0.90006 -4.80174,-0.57537 0.008,-0.91229 5.80641,-4.19098 7.41135,-4.19098 0.69058,0 4.55879,3.15588 8.59601,7.01307 9.29313,8.87871 14.88663,11.59216 29.41639,14.27012 9.64263,1.77722 11.50348,2.40354 10.93152,3.67931 -3.02816,6.75445 -5.71916,16.72025 -6.12493,22.68303 -0.63133,9.27723 1.05838,16.07054 6.06893,24.39944 l 4.01853,6.67991 24.95175,0.72376 c 13.72345,0.39806 25.31842,0.34746 25.76658,-0.11244 0.44817,-0.45991 0.38595,-3.0862 -0.13826,-5.8362 -1.11261,-5.83673 0.35776,-17.20118 3.24308,-25.06567 2.95327,-8.04969 5.671,-9.92982 20.05017,-13.87071 17.55185,-4.81043 24.632,-8.23306 31.74475,-15.34581 C 798.52577,637.99641 807,622.16505 807,612.97663 c 0,-6.93781 -6.50104,-18.14524 -19.43483,-33.5046 -3.88584,-4.61458 -8.17511,-9.78958 -9.5317,-11.5 -1.35659,-1.71042 -6.99455,-8.50985 -12.5288,-15.10985 -39.50955,-47.11807 -76.3921,-98.6818 -85.4761,-119.5 -2.27992,-5.225 -4.80628,-10.00856 -5.61413,-10.63013 -1.91546,-1.47377 -6.0906,-18.03126 -7.20715,-28.58167 -0.6018,-5.68651 -0.42138,-14.25236 0.57477,-27.2882 0.84841,-11.10249 1.5059,-34.37937 1.5818,-56 l 0.12989,-37 -3.27788,-15.5 c -7.04982,-33.33615 -18.39855,-72.01651 -25.67231,-87.5 -1.80864,-3.85 -4.05872,-9.45039 -5.00019,-12.4453 -2.02952,-6.45616 -5.83683,-13.96137 -11.94903,-23.5547 -2.45295,-3.85 -6.25142,-9.93846 -8.44104,-13.52992 C 610.71536,114.05306 597,87.065813 597,85.612623 c 0,-1.89989 -10.06684,-17.59929 -14.06961,-21.94178 -3.01371,-3.26949 -3.8437,-4.79535 -3.04363,-5.59542 2.46625,-2.46625 13.23207,11.70381 19.70931,25.94157 7.48025,16.442507 15.95387,32.294797 23.70408,44.345187 8.36051,12.99932 14.91998,25.98402 16.16541,32 0.39851,1.925 1.97871,5.76163 3.51155,8.52585 5.88809,10.61817 18.53401,53.01651 25.64304,85.97415 3.50552,16.25171 3.68826,18.05641 4.15146,41 0.28609,14.17063 -0.0799,34.64849 -0.89354,50 -2.0122,37.96405 -1.81058,50.92276 0.97241,62.5 1.25601,5.225 3.34417,11.075 4.64035,13 1.29618,1.925 3.83009,6.875 5.63092,11 9.23848,21.16176 43.85617,69.35225 86.92049,121 24.42881,29.29786 31.50479,38.36691 35.56544,45.58302 3.58076,6.36331 3.88917,7.51732 3.85299,14.41698 -0.0463,8.83007 -3.03857,16.79562 -9.9725,26.5473 -10.61267,14.92534 -20.52208,21.23191 -42.48817,27.04041 -5.775,1.52709 -11.50596,3.48207 -12.73547,4.34441 -5.60537,3.93143 -9.97304,21.44122 -8.06142,32.31788 l 1.01059,5.75 5.39315,0 c 4.12724,0 5.39315,0.35209 5.39315,1.5 0,1.13409 -1.22434,1.5 -5.01905,1.5 -4.96534,0 -5.01214,0.0294 -4.37278,2.75 1.09978,4.67972 5.42526,11.88827 10.65319,17.75388 l 5.00305,5.6133 -0.49934,6.22082 c -0.97234,12.11327 -8.14337,20.71382 -23.58472,28.28625 -7.42816,3.64276 -9.18285,4.90578 -8.64559,6.22305 0.37074,0.90899 0.96458,3.9027 1.31965,6.6527 l 0.64559,5 12.75,0.27988 c 10.42459,0.22883 12.75,0.548 12.75,1.75 0,1.2209 -2.2886,1.47012 -13.5,1.47012 -7.425,0 -13.5,0.25458 -13.5,0.56574 0,0.96566 2.09381,4.67229 6.45899,11.43426 3.53772,5.48017 10.19041,15.98669 14.04101,22.17483 0.55,0.88388 3.5875,5.49662 6.75,10.25052 5.77237,8.67709 6.82126,11.0868 4.5,10.33819 -1.32024,-0.42578 -3.24157,-3.22937 -19.25,-28.08935 -5.5,-8.54112 -10.27116,-15.2244 -10.60257,-14.85175 -0.33142,0.37266 -1.18343,2.8366 -1.89337,5.47543 -0.70993,2.63883 -2.53186,6.51112 -4.04873,8.60509 -3.59922,4.96858 -8.20839,5.72029 -18.03075,2.94064 -6.79314,-1.9224 -7.09262,-1.92689 -10.7066,-0.16066 -2.65067,1.29544 -4.41699,3.22763 -6.15297,6.73076 -3.08153,6.21838 -3.08918,12.88708 -0.0328,28.5863 1.99183,10.23114 2.17144,13.40328 1.62787,28.75 l -0.61098,17.25 16.97545,0 c 14.42262,0 16.97545,0.22558 16.97545,1.5 0,1.27619 -2.61111,1.5 -17.5,1.5 l -17.5,0 0,2.78855 c 0,4.11779 -7.30522,22.65055 -11.15823,28.30755 -7.44025,10.9239 -34.89034,29.2928 -40.91628,27.3803 -2.89634,-0.9193 -2.32086,-2.2319 1.32451,-3.021 8.30788,-1.7985 26.70563,-14.0539 34.65511,-23.0849 4.03504,-4.5841 11.16179,-20.6888 12.59583,-28.46348 l 0.66273,-3.59298 -28.1967,-0.70882 c -15.50819,-0.38985 -28.36683,-0.53869 -28.57477,-0.33075 -0.20794,0.20794 -0.81812,2.69844 -1.35596,5.53445 -2.01422,10.62098 -7.13591,17.11988 -19.97445,25.34578 -10.28037,6.5869 -12.51222,6.521 -26.4954,-0.7815 -11.87238,-6.2002 -13.86796,-8.6354 -13.4118,-16.3664 0.21525,-3.64789 -2.66438,-11.0068 -4.3071,-11.0068 -0.38374,0 -2.79205,3.44967 -5.3518,7.66592 -4.32199,7.11888 -4.52357,7.74328 -2.82489,8.74998 1.00606,0.5963 7.2292,3.9249 13.8292,7.397 6.6,3.472 16.725,8.8249 22.5,11.8952 5.775,3.0703 14.1,7.4808 18.5,9.8011 4.4,2.3203 12.95,6.8295 19,10.0204 6.05,3.191 15.5,8.2769 21,11.3021 5.5,3.0251 11.00899,5.9881 12.2422,6.5843 2.05974,0.9958 3.18689,3.584 1.56081,3.584 -0.38335,0 -8.37085,-4.1232 -17.75,-9.1628 l -17.05301,-9.1627 -9,1.1827 c -4.95,0.6504 -17.89981,2.0633 -28.77736,3.1398 -58.28386,5.7677 -65.85657,7.4903 -128.96817,29.33742 -11.03785,3.8209 -18.99413,6.0868 -19.35013,5.5108 z m 162.66928,-72.02932 c 12.08438,-7.7303 17.5299,-14.6726 18.60065,-23.71345 l 0.60431,-5.10245 -24.63929,0 c -21.70574,0 -24.63929,0.18661 -24.63929,1.56739 0,1.1504 -0.59859,1.39533 -2.25,0.92065 -6.86879,-1.97435 -6.65834,-2.18886 -3.64583,3.71615 1.48382,2.90853 1.93634,5.15876 1.53489,7.63261 -0.84914,5.2326 1.78885,9.8266 7.7667,13.5253 11.02103,6.8191 17.71047,7.1838 26.66786,1.4538 z m -49.91949,-20.82297 c 4.74389,-7.52614 5.70082,-9.63935 3.84587,-8.49293 -0.55,0.33992 -1,0.12735 -1,-0.47237 0,-0.59972 0.61317,-1.3257 1.3626,-1.61328 0.95644,-0.36702 1.16986,-1.46531 0.71597,-3.68458 -0.53375,-2.60973 -1.25172,-3.28738 -4.1126,-3.88157 -10.92598,-2.26931 -24.26012,4.50698 -26.51027,13.47227 -0.57451,2.28905 -0.15032,2.76757 4.20264,4.74081 2.66292,1.20712 5.06666,2.47466 5.34166,2.81674 1.16636,1.45088 8.62073,5.08298 9.96559,4.85558 0.80607,-0.1362 3.59092,-3.6196 6.18854,-7.74067 z M 521,907.94395 c 0,-0.7151 1.84732,-3.39885 4.10515,-5.96389 6.90692,-7.84667 16.94247,-10.96347 27.89485,-8.66347 9.43703,1.98179 8.74895,2.33201 14.64568,-7.45441 2.98259,-4.95 5.89091,-8.87635 6.46293,-8.72522 0.57203,0.15112 0.77044,-0.16147 0.44091,-0.69466 -0.32953,-0.53318 0.80715,-3.25494 2.52594,-6.04834 2.63156,-4.27682 3.1871,-6.29911 3.51776,-12.80534 0.21598,-4.24954 0.88765,-9.85106 1.49261,-12.44782 1.21764,-5.22671 0.99489,-7.08217 -0.7199,-5.99657 -0.62374,0.39487 -5.2791,7.62275 -10.34523,16.06195 -8.81318,14.68105 -9.28842,15.77417 -10.99941,25.30015 -1.87457,10.43678 -2.42949,11.84765 -4.03027,10.24687 -0.6342,-0.6342 -0.28387,-4.60614 1.00102,-11.34926 1.86851,-9.80596 2.45146,-11.17167 10.65314,-24.95769 4.77206,-8.02124 10.6194,-16.61468 12.9941,-19.09655 2.3747,-2.48186 7.00954,-9.58734 10.29965,-15.78995 l 5.98202,-11.27748 -2.05284,-3.65491 c -2.93043,-5.21738 -3.51272,-12.99823 -1.44568,-19.31783 0.92969,-2.84235 1.49242,-5.36583 1.25052,-5.60773 -0.24189,-0.2419 -7.12977,-2.2114 -15.30638,-4.37667 -8.17661,-2.16527 -19.59157,-5.25007 -25.36657,-6.85512 -13.50502,-3.75346 -17,-4.45946 -17,-3.4341 0,0.45795 0.9,3.97977 2,7.82627 2.25797,7.89572 2.54468,13.60144 0.84498,16.81574 -0.63527,1.20134 -3.04413,4.43426 -5.35304,7.18426 -2.3089,2.75 -8.09973,11.14304 -12.86851,18.65119 -8.96434,14.11383 -16.90748,23.04598 -26.16278,29.42035 C 486.75538,850.92927 477,850.57193 477,844.25751 c 0,-2.62488 3.92137,-10.21152 11.6031,-22.44844 8.4292,-13.42762 12.19372,-21.73544 13.00345,-28.69689 0.54015,-4.64381 0.39223,-5.75 -0.76887,-5.75 -1.99969,0 -3.83768,2.0429 -3.83768,4.26554 0,3.77332 -6.88487,16.50665 -14.18488,26.23446 -8.90458,11.866 -9.5616,12.48548 -17.32807,16.33785 -8.04712,3.99158 -12.67987,4.82647 -14.83319,2.67315 -3.87743,-3.87743 -1.26667,-10.64823 8.93564,-23.17392 6.28278,-7.71356 11.5814,-19.33708 8.81487,-19.33708 -1.52591,0 -7.74177,5.18353 -16.70806,13.93318 -15.28992,14.92049 -23.27528,18.85173 -29.4738,14.51012 -3.94863,-2.76573 -2.81878,-5.70877 5.38049,-14.01518 14.95416,-15.14955 20.34838,-24.28665 24.05684,-40.74915 2.87648,-12.76922 5.01257,-17.49502 9.49272,-21.00126 l 3.20799,-2.51063 -6.93028,-2.05758 c -12.96314,-3.84872 -21.46377,-5.86431 -21.88154,-5.18834 -0.22922,0.37088 -0.003,1.32785 0.50194,2.12659 1.69646,2.6817 1.11916,5.95225 -1.05067,5.95225 -1.51395,0 -2.00121,-0.66832 -2.00497,-2.75 -0.008,-4.39545 -3.76838,-8.02005 -9.99503,-9.63397 -21.35202,-5.53436 -43.5543,-11.98391 -43.83541,-12.73378 -0.18448,-0.49209 -0.71815,-0.65816 -1.18595,-0.36905 -1.01406,0.62673 -2.10507,0.36349 -30.97864,-7.47447 -12.375,-3.3593 -27.675,-7.48878 -34,-9.17664 -6.325,-1.68785 -15.55,-4.16249 -20.5,-5.4992 -4.95,-1.33671 -10.45173,-2.69733 -12.22607,-3.0236 l -3.22608,-0.59321 0.52699,14.87696 c 1.52604,43.08037 3.88211,55.67388 12.56886,67.18222 4.12929,5.47054 7.37949,12.00488 6.43905,12.94533 -0.8497,0.8497 -3.57616,-1.83077 -5.26659,-5.17776 -0.85358,-1.69006 -3.2424,-5.32283 -5.30847,-8.07283 -7.18811,-9.56754 -9.72759,-22.2992 -11.07013,-55.5 -0.54489,-13.475 -1.22677,-25.26448 -1.51529,-26.19885 -0.28851,-0.93436 -1.28906,-1.90883 -2.22342,-2.16548 -0.93437,-0.25665 -10.47385,-2.79767 -21.19885,-5.6467 -10.725,-2.84903 -27.375,-7.33109 -37,-9.96012 -9.625,-2.62903 -24.7,-6.69999 -33.5,-9.04658 -8.8,-2.34658 -26.575,-7.11871 -39.5,-10.60473 -12.925,-3.48602 -29.575,-7.97641 -37,-9.97865 -7.425,-2.00224 -18,-4.89006 -23.5,-6.41739 -5.5,-1.52733 -16.3,-4.42225 -24,-6.43316 -7.7,-2.0109 -15.8,-4.26352 -18,-5.00581 -2.2,-0.74229 -5.575,-1.59671 -7.5,-1.8987 -1.925,-0.30199 -4.5125,-0.79539 -5.75,-1.09645 -1.2375,-0.30106 -3.2121,-0.7585 -4.388,-1.01654 -1.17589,-0.25803 -4.66339,-1.20583 -7.75,-2.10621 -3.0866,-0.90039 -6.70547,-1.83775 -8.04193,-2.08303 -1.33646,-0.24528 -2.80638,-0.67863 -3.26649,-0.963 -0.46012,-0.28436 -2.05149,-0.73733 -3.53639,-1.0066 -1.48491,-0.26926 -9.23998,-2.29988 -17.23351,-4.51249 -7.99352,-2.21261 -18.58368,-5.08125 -23.53368,-6.37477 -4.95,-1.29352 -9.7875,-2.6549 -10.75,-3.02529 -0.9625,-0.37038 -1.74639,-0.28778 -1.741978,0.18356 0.0044,0.47135 6.191912,3.98011 13.75,7.79726 7.558088,3.81715 14.416978,7.49421 15.241978,8.17125 0.825,0.67703 2.175,1.37891 3,1.55973 0.825,0.18081 1.725,0.57661 2,0.87955 1.12936,1.2441 19.00119,9.88956 19.01531,9.19862 0.008,-0.41218 0.34592,-0.26629 0.75,0.32419 0.40408,0.59049 5.90969,3.74049 12.23469,7 6.325,3.25952 11.65,6.26389 11.83333,6.67639 0.18334,0.4125 0.8229,0.75 1.42126,0.75 0.59836,0 1.79836,0.62024 2.66667,1.37832 1.60977,1.40541 9.81281,5.84981 32.07874,17.38025 23.40905,12.12241 44.49825,23.63248 45.23469,24.68821 0.40408,0.57927 0.74158,0.73528 0.75,0.34668 0.008,-0.3886 5.30281,2.03692 11.76531,5.39005 16.67901,8.65406 46.31058,24.32088 50.88289,26.90284 2.12691,1.20105 5.66711,3.09772 7.86711,4.21481 2.2,1.1171 8.725,4.59508 14.5,7.72886 5.775,3.13377 15.79915,8.46445 22.2759,11.84595 6.47674,3.3815 15.02674,7.88313 19,10.00361 3.97325,2.12049 14.6491,7.76022 23.7241,12.53274 9.075,4.77252 17.4,9.18899 18.5,9.81439 1.1,0.6254 15.95,8.46567 33,17.42283 17.05,8.95716 31.675,16.75357 32.5,17.32536 0.825,0.57179 2.625,1.58357 4,2.24839 1.375,0.66483 14.425,7.55726 29,15.31653 14.575,7.75926 27.85,14.79229 29.5,15.62895 6.62023,3.3569 49.03834,25.63356 65,34.13597 43.94455,23.40824 53.94163,28.54035 54.69188,28.07667 C 520.63635,909.4689 521,908.65906 521,907.94395 z M 391,839.6444 c -0.825,-0.30794 -3.75,-2.66378 -6.5,-5.2352 -4.4725,-4.18207 -18.14376,-13.04702 -20.12072,-13.04702 -0.42448,0 -2.37097,-1.09988 -4.32553,-2.44417 C 358.09919,817.57372 352,815.17051 346.5,813.57756 337.64632,811.01328 322.60981,804.364 329,805.8389 c 17.14294,3.95672 33,9.01333 33,10.52328 0,0.43056 1.6875,1.4962 3.75,2.36809 7.0999,3.00136 14.75966,7.80371 19.0813,11.96316 3.748,3.60734 8.92421,9.82246 7.98679,9.5898 -0.17495,-0.0434 -0.99309,-0.33089 -1.81809,-0.63883 z m 289.01607,63.19842 c 0.90611,-1.0918 1.28285,-6.64969 1.33876,-19.75 0.0663,-15.52672 -0.26417,-19.78797 -2.22787,-28.73064 -3.33493,-15.18732 -2.07021,-23.4393 4.78986,-31.25248 4.22047,-4.80685 7.34917,-5.33066 16.95993,-2.83943 10.20385,2.64496 13.0846,1.83297 16.07619,-4.53137 1.15851,-2.46461 2.62783,-6.74018 3.26516,-9.50126 1.012,-4.3842 0.92496,-5.45435 -0.68712,-8.4478 l -1.84592,-3.42766 -9.09253,-0.0149 c -5.00089,-0.008 -17.08003,-0.30032 -26.84253,-0.64917 -12.29537,-0.43937 -17.75,-0.30672 -17.75,0.43165 0,1.09321 8.28781,3.88418 20.25,6.81932 6.32134,1.55106 7.55443,2.27533 6.19251,3.63724 -0.30662,0.30662 -6.26912,-0.98248 -13.25,-2.86467 -24.61223,-6.63597 -31.72413,-8.34133 -34.8238,-8.35036 -2.89662,-0.008 -3.21958,0.34155 -4.30952,4.67011 -0.64804,2.57358 -1.98687,5.83608 -2.97518,7.25 -1.12678,1.61201 -2.015,5.27172 -2.38164,9.81294 -0.45,5.57378 -1.65944,9.72045 -5.24997,18 -10.84126,24.99924 -10.63491,24.38517 -11.18026,33.27046 -0.42549,6.93241 -0.11232,9.90253 1.68704,16 1.21524,4.11805 2.91316,10.51351 3.77314,14.21212 l 1.56361,6.72475 15.10204,0.30331 c 40.66679,0.81676 40.29366,0.82368 41.6181,-0.77217 z M 619,900.48517 c 0,-1.58236 -1.33566,-7.21613 -2.96814,-12.5195 -3.84189,-12.48099 -4.5077,-17.92219 -3.08151,-25.18323 1.41461,-7.20209 1.95343,-8.69727 8.70536,-24.15667 C 624.59507,831.89575 627,826.13169 627,825.81675 c 0,-1.42257 -2.34173,1.15839 -6.18229,6.81387 -9.94484,14.64442 -28.24678,32.06737 -35.13161,33.44434 -1.81957,0.36391 -3.57378,1.68162 -4.56968,3.43261 -0.88903,1.56308 -1.95392,2.84481 -2.36642,2.84829 -0.4125,0.003 -0.75,0.52357 -0.75,1.15576 0,0.63219 -3.43812,6.81969 -7.64026,13.75 -4.20215,6.93031 -7.87106,13.00659 -8.15314,13.50286 -0.29357,0.51646 1.21814,0.62549 3.53518,0.25498 3.09945,-0.49562 4.18251,-0.29697 4.62176,0.8477 0.48707,1.2693 4.20195,1.49502 24.60508,1.49502 l 24.03138,0 0,-2.87701 z m -26.3398,-41.9596 c 6.99464,-5.54479 20.36011,-19.96741 24.82819,-26.79198 2.11422,-3.22927 5.79425,-7.98963 8.17783,-10.57857 3.56895,-3.87644 4.33378,-5.39664 4.33378,-8.614 0,-3.39572 -0.49763,-4.2517 -3.80375,-6.54284 -4.6449,-3.21891 -5.79428,-3.27982 -7.28477,-0.386 -0.6374,1.2375 -8.30323,14.24605 -17.03519,28.9079 C 593.14433,849.18192 586,861.44442 586,861.77008 c 0,1.38601 2.12442,0.3511 6.6602,-3.24451 z m -3.69616,-7.29922 c 0.0198,-0.34971 4.31096,-7.84559 9.53596,-16.65752 5.225,-8.81192 9.5,-16.52742 9.5,-17.14555 0,-0.61813 -0.7875,-1.40797 -1.75,-1.75521 -0.9625,-0.34724 -2.93852,-1.45388 -4.39116,-2.45921 -2.59771,-1.7978 -2.66557,-1.79059 -4.12599,0.43828 -5.23736,7.99323 -10.04053,19.73866 -11.81475,28.89119 -1.05496,5.44212 -1.91586,11.11631 -1.91313,12.60931 l 0.005,2.71454 2.45907,-3 c 1.35249,-1.65 2.47526,-3.28612 2.49504,-3.63583 z M 490.5,844.45162 c 6.21667,-2.90108 17.74718,-14.22775 23.75128,-23.33141 11.80011,-17.8918 16.97497,-25.43745 20.29015,-29.58577 4.10376,-5.13508 4.23161,-7.35424 1.07574,-18.67226 l -2.23069,-8 -4.16559,-0.30615 c -3.34863,-0.2461 -5.44205,0.44032 -10.67409,3.5 -3.57967,2.09338 -6.51711,4.35299 -6.52764,5.02135 -0.0105,0.66837 -1.40282,2.79111 -3.09396,4.71722 -2.7174,3.09494 -3.17341,4.5229 -3.92311,12.28479 -1.04442,10.81319 -3.19157,16.11602 -13.08182,32.30833 -12.97339,21.23999 -13.91764,23.99763 -8.20165,23.9525 1.52976,-0.0121 4.58138,-0.86195 6.78138,-1.8886 z m -28,-12.09245 c 2.2,-0.96897 5.65109,-3.05219 7.66909,-4.62938 7.34191,-5.73814 19.99051,-24.79029 22.96961,-34.59834 1.81759,-5.98402 2.55464,-7.13226 5.47081,-8.52288 1.85362,-0.88393 3.65091,-2.49155 3.99399,-3.57248 0.34307,-1.08093 1.68738,-2.91226 2.98734,-4.06962 2.22118,-1.97751 2.32605,-2.57227 1.74071,-9.8718 -0.59033,-7.36168 -0.75894,-7.79459 -3.22721,-8.28597 -1.43239,-0.28515 -4.62934,-1.1795 -7.10434,-1.98744 -2.475,-0.80793 -5.72062,-1.46675 -7.21249,-1.46403 -3.50389,0.006 -12.91071,-3.51752 -16.11225,-6.03585 -3.39945,-2.67401 -6.92845,-2.45848 -10.62108,0.64866 -4.20964,3.54218 -4.69281,4.63794 -8.07462,18.31209 -1.62039,6.55196 -3.49938,13.18782 -4.17552,14.74635 -2.67337,6.16219 -11.51412,18.20829 -18.51222,25.22411 -4.05446,4.06472 -7.7943,8.17997 -8.31077,9.14499 -1.38899,2.59536 1.25227,4.3507 5.50746,3.66018 4.59643,-0.7459 8.83324,-3.97167 22.01149,-16.75886 11.01537,-10.68849 15.56294,-13.93672 19.51161,-13.93672 1.94902,0 2.05772,0.36434 1.41711,4.75 -0.8513,5.82807 -4.47149,13.29536 -9.29687,19.17642 -8.86529,10.80482 -12.6692,18.20289 -10.48339,20.3887 0.83772,0.83773 4.80679,-0.0962 9.85154,-2.31813 z m 150.75,-23.41324 c 1.5125,-2.38877 2.75,-4.77152 2.75,-5.29501 0,-0.52348 -2.1375,-1.45297 -4.75,-2.06553 -4.07966,-0.95657 -4.9264,-0.88282 -6,0.52265 -0.6875,0.90002 -1.25,2.22539 -1.25,2.94527 0,2.07654 -2.71195,1.51836 -3.28587,-0.67631 -0.3297,-1.26075 0.54004,-3.31798 2.38337,-5.6375 2.7928,-3.51428 3.97167,-7.15614 1.9025,-5.87732 -0.55,0.33992 -1,0.12735 -1,-0.47237 0,-0.59972 0.71993,-1.36666 1.59985,-1.70432 1.92988,-0.74056 6.68824,-5.36856 6.11213,-5.94467 -0.22508,-0.22508 -3.05544,-1.09848 -6.28969,-1.9409 -5.48008,-1.42737 -5.96761,-1.41246 -7.16064,0.21911 -3.54376,4.84638 -3.62556,13.66485 -0.18792,20.2601 2.32524,4.46107 8.45134,10.10537 10.90411,10.04654 0.83719,-0.0201 2.75966,-1.99096 4.27216,-4.37974 z m 20.65217,-7.73297 c 0.60381,-1.73208 1.09783,-4.20708 1.09783,-5.5 0,-2.10192 -0.45356,-2.35078 -4.28439,-2.35078 -3.67394,0 -4.53018,0.41608 -6.00939,2.92018 -1.72097,2.91337 -1.71739,2.92617 1.5344,5.48891 4.34372,3.42331 6.32386,3.27901 7.66155,-0.55831 z M 619,797.96001 c 0,-1.44514 -4.87593,-3.59783 -8.14922,-3.59783 -4.36224,0 -0.47086,2.98122 5.64922,4.32791 1.1,0.24205 2.1125,0.49229 2.25,0.55609 0.1375,0.0638 0.25,-0.51498 0.25,-1.28617 z m 95,-7.71702 c 0,-0.91641 -4.09558,-8.08721 -7.76027,-13.58716 -0.61514,-0.92319 -2.55673,-0.75117 -8.27177,0.73286 C 689.0936,779.69311 687,779.81386 687,778.02131 c 0,-0.80893 2.17515,-1.82765 5.48295,-2.5679 3.01562,-0.67487 5.69566,-1.5712 5.95563,-1.99186 0.25998,-0.42065 -2.41092,-4.6197 -5.93534,-9.33121 -6.77082,-9.05136 -5.77835,-8.39074 -20.13078,-13.39957 -6.01826,-2.10031 -7.87246,-4.6064 -7.87246,-10.64024 0,-6.37235 -1.88591,-7.28145 -4.28388,-2.06504 -0.97004,2.11018 -3.0154,5.63669 -4.54524,7.83669 -9.03955,12.99943 -10.99123,16.92527 -11.1856,22.5 -0.25003,7.17102 -3.3285,18 -5.11706,18 -1.56802,0 -1.74886,-1.84517 -0.50818,-5.1849 1.4076,-3.78903 2.29056,-9.81642 1.43527,-9.79763 -1.22736,0.027 -8.53198,12.77251 -8.08632,14.1095 1.06407,3.19221 9.08847,4.22039 37.79101,4.84225 15.675,0.3396 31.9875,0.71046 36.25,0.82412 5.17333,0.13795 7.75,-0.16544 7.75,-0.91253 z m -90.58697,-2.56806 c -1.35259,-0.98904 -1.99897,-1.05492 -2.27338,-0.23171 -0.46633,1.39899 1.89504,3.01556 3.21409,2.20033 0.52208,-0.32266 0.0988,-1.20854 -0.94071,-1.96862 z m 96.44653,-1.44229 c -1.28836,-5.73407 -2.60746,-7.87046 -4.85956,-7.87046 -1.0613,0 -2.39547,-0.87042 -2.96482,-1.93426 -1.46254,-2.73279 -1.28479,-3.51778 0.4673,-2.06368 3.5931,2.98201 21.68781,-5.06191 29.93206,-13.30617 9.0609,-9.0609 10.93684,-20.12775 4.45315,-26.27073 -4.65221,-4.40774 -9.13751,-11.33375 -10.96078,-16.92516 l -1.63043,-5 -24.13791,-0.26776 -24.13791,-0.26775 3.78588,5.85748 c 2.08222,3.22161 5.51573,7.6171 7.63001,9.76775 5.22736,5.3173 9.86386,15.41531 10.38482,22.61748 0.415,5.73735 -0.59112,17.35638 -1.43027,16.51724 -0.24417,-0.24418 -0.87425,-5.34169 -1.40018,-11.32782 -1.07039,-12.18316 -4.23263,-20.37983 -9.99072,-25.89643 l -3.11126,-2.98077 -3.88732,2.23726 c -5.07558,2.92113 -6.61378,1.01519 -2.14512,-2.65796 1.73884,-1.4293 3.15747,-2.9779 3.15251,-3.44133 -0.0183,-1.70892 -7.57317,-10.51311 -9.47213,-11.03849 -1.07972,-0.29872 -2.69015,0.11482 -3.57874,0.91899 -0.88859,0.80416 -2.14269,1.46211 -2.78688,1.46211 -2.41238,0 -2.14927,0.50933 11.88138,23 21.63474,34.67978 33.58945,53 34.5847,53 0.83088,0 0.89255,-1.1461 0.22222,-4.12954 z m -88.5097,-7.02023 C 633.35744,775.83004 635,772.65164 635,772.1493 c 0,-0.50234 -2.35132,1.36505 -5.22515,4.14977 -2.87384,2.78471 -6.12427,5.06311 -7.22318,5.06311 -1.52723,0 -0.35492,-1.66234 4.97515,-7.05482 3.83525,-3.88015 8.34777,-7.71471 10.02783,-8.52124 1.94607,-0.93424 4.48648,-3.87051 7,-8.09081 2.16994,-3.64342 4.95479,-8.24636 6.18856,-10.22876 1.23376,-1.9824 2.50277,-4.12352 2.82002,-4.75803 0.31725,-0.63452 -1.3877,-3.11818 -3.78877,-5.51925 -10.95878,-10.95878 -13.00707,-25.91186 -5.02181,-36.66055 l 2.47645,-3.33346 -2.84056,-6.66654 c -1.70601,-4.00384 -2.92381,-8.78258 -3.04898,-11.96444 -0.2219,-5.64034 -0.8137,-6.72986 -17.07506,-31.43581 l -6.4067,-9.73372 -3.6789,1.60398 c -10.33293,4.50508 -27.3523,8.63665 -42.1789,10.23921 -5.225,0.56476 -19.625,1.29707 -32,1.62736 -14.19452,0.37886 -30.62091,1.55995 -44.5,3.19966 -15.41663,1.82136 -27.46265,2.62877 -40.25481,2.69818 l -18.25481,0.099 -0.90538,3 c -2.55484,8.46554 -2.61467,8.29635 3.16404,8.94788 2.88803,0.32562 16.23312,0.45864 29.65576,0.2956 l 24.40479,-0.29645 1.44509,-3.47351 c 3.32128,-7.98324 3.71254,-8.46434 7.15367,-8.79636 4.37389,-0.42203 5.38862,0.75039 6.59165,7.61594 0.92139,5.25826 1.22518,5.73264 3.86443,6.03436 2.0033,0.22902 3.65674,-0.43144 5.5,-2.19695 2.20781,-2.11469 8.80995,-5.63051 10.57319,-5.63051 0.27602,0 1.11573,2.10529 1.86602,4.67842 1.5479,5.30856 2.71571,5.93878 16.48909,8.89853 l 7.73889,1.663 3.33994,-3.11997 c 4.95842,-4.63186 8.67095,-3.93378 10.67103,2.00651 0.88723,2.63511 1.99097,3.53418 6.02188,4.90522 6.73104,2.28946 13.47311,5.77799 29.93553,15.48945 7.7,4.54237 15.74256,8.98339 17.87236,9.86894 3.15133,1.3103 3.65451,1.87259 2.70239,3.01983 -0.98411,1.18578 -2.39357,0.76375 -8.87236,-2.65663 -4.23631,-2.23649 -8.82739,-4.81326 -10.20239,-5.72614 -11.73766,-7.7928 -34.01341,-18.61973 -36.4138,-17.69861 -0.65202,0.2502 -1.71748,4.88616 -2.42394,10.5469 -0.6933,5.55525 -2.34492,13.72333 -3.67026,18.15129 -1.60734,5.37008 -2.76142,12.78287 -3.46594,22.26205 -1.39097,18.71537 -1.6255,19.74436 -5.45205,23.92126 -2.69334,2.93995 -3.77435,3.47431 -6.12097,3.02572 -2.49068,-0.47612 -2.60432,-0.63829 -0.9015,-1.28638 1.07166,-0.40788 3.20158,-2.06677 4.73318,-3.68645 2.66921,-2.8227 2.84719,-3.65837 4.29093,-20.14631 0.89323,-10.20107 2.2998,-19.72772 3.45623,-23.40904 1.07251,-3.41418 2.68452,-11.54678 3.58224,-18.07245 1.78954,-13.00843 1.62847,-13.58876 -3.78016,-13.61983 -2.41753,-0.0139 -3.36327,1.31297 -10.146,14.23469 -4.11397,7.8375 -8.53926,17.39856 -9.83396,21.2468 -1.94672,5.78623 -3.41117,8.05244 -8.46423,13.09818 -7.70575,7.6946 -8.61086,11.06179 -4.92739,18.33078 1.39569,2.75426 2.53762,5.73521 2.53762,6.62433 0,2.54873 -2.33562,1.1543 -4.19473,-2.50437 -2.55183,-5.02193 -3.20707,-5.31138 -5.79283,-2.55896 -2.17601,2.31625 -6.01244,3.4655 -6.01244,1.80109 0,-0.39168 1.73112,-2.52918 3.84693,-4.75 5.2279,-5.48737 6.75622,-12.43194 4.67155,-21.22731 -1.28793,-5.43387 -1.28841,-6.61692 -0.004,-9.69102 1.81819,-4.35155 4.11925,-19.00023 4.99961,-31.82783 l 0.66628,-9.70831 -2.51111,-0.63025 c -4.24467,-1.06534 -5.84611,-0.1283 -7.6422,4.47164 -0.95023,2.43362 -2.92005,5.37552 -4.37739,6.53756 -1.45733,1.16204 -2.6497,2.85311 -2.6497,3.75792 0,1.66019 -5.61451,16.35104 -6.1899,16.19642 -2.63532,-0.70819 -2.61028,-1.3414 0.33589,-8.49546 2.91173,-7.07045 3.07286,-8.09332 2.40222,-15.25 l -0.71882,-7.67117 -5.84725,0 -5.84725,0 -3.81648,11.75 c -3.06474,9.43557 -4.71443,12.84732 -8.3752,17.32092 -6.09938,7.45368 -8.10196,10.9197 -11.94344,20.67143 -2.86438,7.27132 -3.12706,8.7145 -2.22965,12.25 0.81462,3.20935 0.74665,4.00765 -0.34124,4.00765 -1.85641,0 -3.42885,-3.21824 -3.42885,-7.01767 0,-3.40766 4.82905,-16.28787 8.23628,-21.96809 1.1594,-1.93283 4.08204,-5.86704 6.49477,-8.74269 3.31234,-3.94787 5.22958,-7.73111 7.82786,-15.44648 C 488.45151,680.56733 490,675.15763 490,674.1657 c 0,-1.69064 -1.58816,-1.80352 -25.375,-1.80352 -13.95625,0 -26.72904,-0.27081 -28.38398,-0.6018 -2.98996,-0.59799 -3.02518,-0.55217 -5.57302,7.25 -1.41023,4.31849 -3.09635,10.66612 -3.74693,14.10585 -1.50478,7.95602 -0.68317,25.29318 1.47629,31.15194 1.76287,4.78276 1.67448,5.44254 -0.6116,4.56529 -1.84742,-0.70892 -3.40205,-5.71488 -4.76984,-15.35902 -1.27804,-9.01134 -0.0737,-20.05024 3.55203,-32.55647 1.40769,-4.85562 2.19214,-9.1957 1.74321,-9.64463 -0.44893,-0.44893 -4.19009,-1.33797 -8.3137,-1.97565 -11.72829,-1.81368 -17.43036,-5.38376 -16.81972,-10.53085 0.46382,-3.90947 5.80158,-5.5456 20.0701,-6.15186 l 11.74784,-0.49915 1.50695,-5.07445 c 3.44863,-11.61282 4.73764,-21.98786 4.26976,-34.36683 -0.33119,-8.76249 -0.9018,-12.86093 -2.0304,-14.5834 -2.04638,-3.12317 -7.65169,-5.85626 -9.69517,-4.72726 -0.85075,0.47002 -6.49682,4.97572 -12.54682,10.01265 -26.89325,22.39001 -36.72797,25.72103 -62.2704,21.09105 -7.60464,-1.37847 -11.3267,-2.5937 -14.34007,-4.68197 -7.95599,-5.5135 -22.09001,-22.42665 -25.68742,-30.73826 -0.85486,-1.97512 -1.73793,-2.65842 -2.9602,-2.29055 -0.95805,0.28835 -6.03188,1.2026 -11.27517,2.03167 -8.58555,1.35756 -10.81528,2.20785 -22.42942,8.55331 -7.09289,3.87525 -13.07182,7.22156 -13.2865,7.43624 -0.21469,0.21469 0.48913,2.12145 1.56405,4.23724 1.07492,2.1158 3.21474,7.67191 4.75516,12.34691 2.72973,8.28443 2.81508,9.2228 3.36537,37 0.31053,15.675 0.47151,28.66809 0.35773,28.87354 -0.11378,0.20544 -0.90128,0.10707 -1.75,-0.21862 C 271.21531,686.50757 271,683.27308 271,663.83512 c 0,-21.57809 -0.88096,-32.816 -3.17275,-40.47294 -1.83234,-6.12188 -6.0624,-15 -7.14689,-15 -0.57559,0 -8.20562,7.0875 -16.95564,15.75 -8.75001,8.6625 -16.45559,16.25761 -17.12351,16.87803 -1.8308,1.70057 -12.73743,7.07704 -15.73061,7.75445 -1.81233,0.41017 -3.43313,-0.0371 -5.21586,-1.43942 -2.10761,-1.65785 -2.48752,-2.62772 -2.05208,-5.23878 1.4259,-8.55023 3.04165,-14.08844 7.04354,-24.14272 2.39459,-6.01614 4.3538,-11.28366 4.3538,-11.70559 0,-0.42193 -1.125,-2.42493 -2.5,-4.45111 -1.96795,-2.89993 -2.5,-4.93966 -2.5,-9.58424 0,-5.68778 2.46065,-12.75121 4.98571,-14.31179 2.72428,-1.68369 0.54184,-2.52285 -5.23571,-2.01314 -3.4375,0.30326 -23.575,1.89177 -44.75,3.53001 -21.175,1.63825 -46.6,3.64498 -56.5,4.4594 -23.08582,1.89915 -73.44344,5.80654 -75.83214,5.88403 -1.52065,0.0493 -1.7137,0.57557 -1.13549,3.09516 1.21052,5.27487 1.14938,16.79455 -0.12492,23.53571 -0.67579,3.575 -0.93143,6.80858 -0.56808,7.18573 0.66205,0.6872 5.86236,2.17708 29.16063,8.3545 6.875,1.82288 22.625,6.09538 35,9.49447 12.375,3.39908 28.125,7.67071 35,9.49252 6.875,1.8218 19.475,5.20853 28,7.52608 8.525,2.31754 20.225,5.44523 26,6.95043 5.775,1.5052 13.65,3.64339 17.5,4.75154 3.85,1.10815 14.2,3.91924 23,6.24687 8.8,2.32763 21.4,5.72929 28,7.55924 6.6,1.82996 16.5,4.50909 22,5.95362 23.63297,6.20703 73.28422,19.50814 91.5,24.51201 26.05838,7.15824 45.09416,12.32718 55,14.93461 5.775,1.52011 15.225,4.11333 21,5.76272 5.775,1.64938 15.675,4.38386 22,6.07661 11.92076,3.19033 33.1045,8.90397 53,14.29506 6.325,1.71389 16.18959,4.43799 21.92132,6.05355 5.73172,1.61557 18.10672,4.99408 27.5,7.50779 9.39327,2.51371 23.60368,6.33852 31.57868,8.49957 7.975,2.16105 16.3,4.34655 18.5,4.85665 2.2,0.51011 5.35,1.35205 7,1.871 1.65,0.51894 3.26994,0.9822 3.59986,1.02948 0.32993,0.0473 2.24243,-2.68145 4.25,-6.06382 z M 487.61362,745.25696 c -7.86847,-2.0958 -9.23704,-2.89478 -4.95843,-2.89478 3.42451,0 12.06739,2.74211 12.90266,4.0936 0.67748,1.09619 0.66518,1.09434 -7.94423,-1.19882 z m 29.98466,19.86887 c 2.97595,-1.78 5.26554,-3.67218 5.08798,-4.20487 -0.30476,-0.91429 -10.59153,-3.99257 -11.21676,-3.35657 -0.28511,0.29002 -0.74735,8.5507 -0.56224,10.04779 0.15192,1.22858 1.01835,0.90662 6.69102,-2.48635 z m 180.30262,-1.01365 c -0.6432,-1.2375 -5.04653,-8.46507 -9.78518,-16.06127 -8.33848,-13.36683 -8.71226,-13.79602 -11.61572,-13.33777 -6.49982,1.02588 -8.5,2.38966 -8.5,5.79555 0,4.37578 2.35697,6.61672 8.92601,8.48659 9.30568,2.64885 11.76386,4.26378 16.6774,10.9564 4.88063,6.6478 6.30908,8.03071 4.29749,4.1605 z M 487.25,750.6999 c -0.6875,-0.27741 -1.8125,-0.27741 -2.5,0 -0.6875,0.27741 -0.125,0.50439 1.25,0.50439 1.375,0 1.9375,-0.22698 1.25,-0.50439 z m 171.70303,-17.70828 2.45303,-4.53394 -6.45303,-13.02005 c -3.54917,-7.16103 -6.73926,-13.03251 -7.08909,-13.04775 -0.34983,-0.0152 -1.44827,1.6598 -2.44098,3.7223 -2.55431,5.30695 -2.41401,14.59982 0.29891,19.79797 2.24683,4.30509 9.30303,12.564 10.22682,11.96994 0.30322,-0.19499 1.65517,-2.3948 3.00434,-4.88847 z m 13.89775,-0.72727 c 1.73207,-0.6038 3.14922,-1.73511 3.14922,-2.51402 0,-1.60629 -4.15473,-8.35687 -5.15498,-8.37577 -0.36024,-0.007 -1.85666,2.03814 -3.32538,4.54432 -2.13199,3.63796 -2.4289,4.84771 -1.47258,6 1.43678,1.73121 2.65163,1.7929 6.80372,0.34547 z m -140.63937,-7.40217 c 1.37216,-1.65 3.29022,-5.475 4.26236,-8.5 0.97215,-3.025 5.08824,-11.96524 9.14688,-19.8672 C 549.67929,688.59302 553,681.81015 553,681.42194 c 0,-0.7395 -21.92519,-6.52767 -22.39891,-5.91323 -0.14989,0.19441 -0.81671,6.97422 -1.48183,15.06625 -0.66513,8.09203 -1.95674,17.31703 -2.87026,20.5 -1.77643,6.18964 -2.10362,12.06718 -0.92265,16.5741 0.6464,2.46683 0.94042,2.63909 2.56025,1.5 1.0065,-0.70779 2.95266,-2.63688 4.32481,-4.28688 z m 134.47955,-4.97813 c 1.5602,-3.27177 1.55309,-3.59472 -0.11987,-5.44332 -0.97816,-1.08085 -3.07665,-2.25032 -4.66331,-2.59881 -3.70273,-0.81325 -4.72003,-2.45457 -1.9675,-3.17437 1.17783,-0.30801 2.0106,-0.84404 1.85061,-1.19117 C 657.49886,698.16399 652,693.20037 652,698.6385 c 0,2.81492 10.66722,24.72368 12.03778,24.72368 0.54702,0 1.74095,-1.56516 2.65318,-3.47813 z m -14.71355,-27.27187 c -0.0299,-2.32022 -6.9257,-13.24984 -6.95482,-11.02324 -0.0378,2.88881 4.3935,12.77036 5.72741,12.77185 0.6875,7.6e-4 1.23984,-0.78611 1.22741,-1.74861 z M 513.9419,676.56476 c 0.85375,-2.97685 0.7472,-3.20258 -1.51171,-3.20258 -2.22992,0 -2.43019,0.38849 -2.43019,4.71429 0,4.2067 0.16276,4.55152 1.51171,3.20257 0.83144,-0.83143 1.92502,-2.95286 2.43019,-4.71428 z M 565,676.79263 c 0,-1.04234 -0.72946,-1.46221 -2.17167,-1.25 -3.2015,0.47108 -3.54438,2.81955 -0.41166,2.81955 1.6805,0 2.58333,-0.54853 2.58333,-1.56955 z m -59.55558,-11.18045 c -0.37297,-2.6125 -1.0453,-5.14725 -1.49406,-5.63278 -1.56369,-1.69182 -3.72004,0.25859 -5.24991,4.74851 -1.71314,5.02779 -1.42036,5.42345 4.11082,5.55532 l 3.31128,0.0789 -0.67813,-4.75 z m 21.55558,2.75 c 0,-2.28494 -0.37724,-2.40366 -3.06574,-0.96482 -2.70154,1.44583 -2.41169,2.96482 0.56574,2.96482 1.83333,0 2.5,-0.53333 2.5,-2 z m -95.11871,-5.44282 c 1.93456,-7.68284 2.04308,-7.55948 -6.63129,-7.53789 -9.37798,0.0233 -17.62143,1.95532 -18.06,4.23263 -0.4695,2.43791 4.36042,5.06458 11.73497,6.38185 11.44537,2.04442 11.68091,1.98849 12.95632,-3.07659 z M 218.36002,642.12701 c 8.13699,-4.28741 41.21297,-37.06122 40.79198,-40.41932 -0.34763,-2.77292 1.4397,-3.89752 2.67791,-1.68497 0.84482,1.50961 2.43041,0.89214 13.9877,-5.44719 l 13.03488,-7.14981 15.32375,-2.5457 c 16.07067,-2.66978 29.57871,-6.71195 38.82376,-11.61768 6.42507,-3.40936 11.75118,-7.46701 10.91313,-8.31406 -0.56562,-0.5717 -11.05513,0.13566 -36.41313,2.4555 -6.6,0.6038 -14.925,1.27258 -18.5,1.48619 -16.71886,0.99897 -37.82286,2.5828 -40.8493,3.06569 -3.22593,0.51472 -3.32496,0.66409 -2.68871,4.05559 0.57086,3.04298 0.41459,3.47456 -1.15071,3.17787 -1.22261,-0.23174 -1.91374,-1.40519 -2.12654,-3.6106 -0.32315,-3.34905 -0.39489,-3.37599 -6.12183,-2.29857 -0.2404,0.0452 0.74823,1.31973 2.19695,2.83223 1.44872,1.5125 3.34943,4.46258 4.2238,6.55574 1.23055,2.94583 2.00535,3.67383 3.42908,3.22195 1.77309,-0.56275 3.03381,1.57932 3.07361,5.22231 0.0199,1.81833 -2.05337,1.52992 -3.5943,-0.5 -1.21483,-1.60033 -1.33116,-1.53033 -1.36025,0.8185 -0.055,4.44576 -2.98041,12.71697 -5.59796,15.82776 -2.81366,3.34384 -11.77514,7.12743 -16.72135,7.05985 -1.76687,-0.0241 -5.01249,-0.72872 -7.21249,-1.56573 -2.2,-0.83701 -4.68232,-1.74223 -5.51626,-2.01161 C 216.53471,609.94986 207,634.32506 207,641.37701 c 0,5.0989 2.76043,5.28115 11.36002,0.75 z M 309.2,579.16218 c -1.61764,-1.61764 -1.52516,-4.8 0.13948,-4.8 1.47532,0 3.88371,4.44348 2.92696,5.40023 -0.89669,0.89669 -1.73328,0.73293 -3.06644,-0.60023 z M 28.0161,618.30241 c 1.28117,-4.75791 1.38155,-20.11498 0.15975,-24.44023 -0.94452,-3.34367 0.12158,-3.20393 -15.67585,-2.05474 -4.95,0.36008 -11.925,0.84372 -15.5,1.07475 -3.575,0.23102 -8.6436,0.7016 -11.26356,1.04572 -2.61996,0.34412 -7.56996,0.75755 -11,0.91873 -5.688833,0.26732 -18.974423,1.2488 -27.73644,2.04903 -1.925,0.17581 -4.7375,0.3527 -6.25,0.39308 -1.5125,0.0404 -2.75,0.47001 -2.75,0.95472 0,0.88934 6.046074,2.6827 15.904701,4.71758 1.322586,0.27299 3.122586,0.86546 4,1.31659 1.456818,0.74904 12.595299,3.61725 12.595299,3.24334 0,-0.0883 2.925,0.67585 6.5,1.69821 6.58833,1.8841 7.70657,2.1962 9.5,2.6515 0.55,0.13962 5.5,1.44593 11,2.9029 5.5,1.45697 11.01419,2.83492 12.25376,3.06212 1.23957,0.22719 2.75722,0.72424 3.37256,1.10454 1.11491,0.68905 10.28237,3.10116 12.58514,3.31135 0.6663,0.0608 1.70338,-1.71632 2.30464,-3.94919 z m 209.4447,-8.3784 c 8.17091,-2.45908 12.01814,-7.73483 13.09158,-17.95266 0.99432,-9.46463 -6.24162,-17.60917 -15.64469,-17.60917 l -4.79655,0 -3.66558,11.75 c -2.01607,6.4625 -4.56342,13.51236 -5.66076,15.66635 l -1.99518,3.91636 2.35519,1.83206 c 4.77836,3.717 9.58416,4.42305 16.31599,2.39706 z m -17.5943,-14.31183 c 2.36077,-6.43232 6.10078,-18.34786 6.1206,-19.5 0.0288,-1.67406 -4.77699,-0.59939 -6.70779,1.5 -4.3025,4.67817 -6.27177,9.15842 -6.27557,14.27749 -0.004,4.71795 1.96961,9.47251 3.93104,9.47251 0.45175,0 1.77103,-2.5875 2.93172,-5.75 z M 764,654.76339 c 0,-0.32933 1.35,-1.85988 3,-3.40121 2.24633,-2.09838 3,-3.69644 3,-6.36107 0,-3.2854 -0.30716,-3.65067 -4.00034,-4.75718 -3.56381,-1.06774 -4.90058,-0.90252 -12.25,1.51408 -4.53731,1.49194 -12.61987,4.71321 -17.96124,7.15839 C 724.91692,653.89317 725,653.86912 725,652.03944 c 0,-1.43989 4.14347,-3.69222 16.50945,-8.97429 16.23646,-6.93532 25.14595,-8.13478 29.71443,-4.00037 2.83421,2.56493 2.43403,10.7304 -0.67843,13.84285 C 768.3604,655.09269 764,656.32894 764,654.76339 z M 229.3713,564.62082 c 1.19916,-9.03966 26.12583,-68.54175 33.62203,-80.25864 1.58345,-2.475 6.7669,-12.825 11.51877,-23 8.97016,-19.20743 13.7039,-26 18.11942,-26 4.8793,0 7.27039,6.13578 5.45574,14 -0.5711,2.475 -1.04769,6.075 -1.05908,8 -0.0199,3.35905 2.99793,9.69903 5.34766,11.23469 3.42376,2.23758 13.69722,-0.7622 25.25224,-7.37348 11.0948,-6.34796 12.92686,-11.77402 6.85767,-20.31047 -4.85336,-6.82636 -5.98121,-11.42918 -3.97631,-16.22758 3.98171,-9.52957 8.93864,-11.52092 29.44213,-11.82778 14.34686,-0.21471 17.20993,-0.59638 37.04843,-4.93884 41.02536,-8.98007 49.63297,-13.42601 68.66915,-35.46847 C 473.40706,363.49034 477,360.56249 477,363.21687 c 0,1.43384 -19.48876,23.42681 -23.85927,26.92508 -11.04708,8.84235 -26.25109,14.52511 -55.64073,20.79668 -24.85321,5.30352 -24.82066,5.2991 -39.43428,5.36394 -15.14245,0.0672 -20.15741,1.55908 -23.33756,6.94266 -3.18028,5.38377 -2.21439,10.20423 3.42533,17.09479 3.74292,4.57307 3.92693,10.98105 0.46061,16.04003 -5.38777,7.86327 -31.07244,18.94793 -36.801,15.88211 -0.95249,-0.50976 -2.94298,-2.51477 -4.4233,-4.45557 -3.21982,-4.22141 -4.05605,-10.43076 -2.52023,-18.71395 1.03015,-5.55598 0.11623,-10.73046 -1.89523,-10.73046 -2.02824,0 -6.17061,4.71566 -8.5863,9.77462 -1.50365,3.14896 -5.75942,12.14804 -9.45728,19.99797 -3.69785,7.84992 -7.16403,14.82492 -7.70261,15.5 -5.40762,6.77802 -30.19041,63.92868 -34.10993,78.65961 -2.16173,8.12456 -4.72738,9.71756 -3.74692,2.32644 z M 251,562.36218 c 0,-2 0.5,-3 1.5,-3 1,0 1.5,1 1.5,3 0,2 -0.5,3 -1.5,3 -1,0 -1.5,-1 -1.5,-3 z m 43.47862,-7.02363 c -1.4605,-1.61383 -1.57877,-2.27197 -0.58401,-3.25 0.9881,-0.97147 1.64718,-0.73706 3.17101,1.12779 3.11501,3.81214 0.72023,5.77666 -2.587,2.12221 z m 78.39357,0.26244 c 1.69074,-3.15917 4.97654,-5.51084 6.74935,-4.83054 1.47842,0.56732 1.33089,1.03194 -1.14985,3.62128 -3.20431,3.34458 -7.20464,4.20849 -5.5995,1.20926 z M 252,551.29644 c 0,-2.03374 2.07809,-4.93426 3.53518,-4.93426 1.76609,0 1.78416,0.20502 0.3043,3.45295 -1.1449,2.51278 -3.83948,3.55238 -3.83948,1.48131 z m 33.47862,-5.95789 c -1.41367,-1.56208 -1.56052,-2.29447 -0.64388,-3.21111 0.91664,-0.91664 1.66878,-0.70618 3.29773,0.92276 1.16063,1.16064 1.80407,2.60564 1.42987,3.21111 -0.9865,1.5962 -2.01427,1.36396 -4.08372,-0.92276 z m 257.45488,-6.42213 c -25.32903,-14.76134 -36.30604,-40.36762 -28.94802,-67.52761 1.62842,-6.01084 23.65704,-52.05088 35.5416,-74.28234 9.40834,-17.59939 30.73169,-53.16815 32.54653,-54.28979 0.50952,-0.31489 1.37412,-0.29582 1.92136,0.0424 0.57422,0.35489 -0.56003,3.0228 -2.68225,6.30902 -22.02028,34.098 -60.39665,108.11893 -64.72286,124.83843 -1.98138,7.65746 -2.0371,21.31031 -0.11285,27.65225 4.3066,14.19365 15.99516,28.10056 29.84977,35.51489 4.30474,2.30369 9.14224,4.18852 10.75,4.18852 1.60777,0 2.92322,0.45 2.92322,1 0,0.55 -2.1375,0.99187 -4.75,0.98194 -3.78525,-0.0144 -6.2868,-0.91369 -12.3165,-4.4277 z M 260,539.89736 c 0,-1.45709 2.90052,-3.53518 4.93426,-3.53518 1.6594,0 1.25422,2.13644 -0.68426,3.60795 -2.32844,1.76754 -4.25,1.73464 -4.25,-0.0728 z m 337.1602,-3.73238 c 8.33803,-6.55386 15.2918,-14.10555 17.69342,-19.21479 2.27542,-4.84073 4.82133,-5.41334 3.66982,-0.8254 -1.74473,6.9516 -18.96478,24.23739 -24.14519,24.23739 -2.30192,0 -2.02357,-0.41995 2.78195,-4.1972 z M 275,538.6289 c -1.82056,-0.6877 -3.03393,-2.4028 -2.41191,-3.40925 0.69202,-1.11972 6.55541,1.21204 6.14485,2.4437 -0.44947,1.34841 -1.7968,1.69691 -3.73294,0.96555 z m 408.8438,-51.06963 c -5.68909,-4.2916 -17.94937,-13.57128 -27.24508,-20.62151 -20.38488,-15.46071 -35.48649,-25.48287 -49.75853,-33.02218 -5.86289,-3.09712 -11.20549,-6.28863 -11.87244,-7.09226 -0.66695,-0.80363 -1.83254,-1.46114 -2.59019,-1.46114 -1.89363,0 -1.74235,-2.92279 0.18966,-3.66417 0.86197,-0.33077 2.07697,-0.0916 2.7,0.53139 2.02404,2.02404 3.65311,1.20928 5.73278,-2.86722 1.97526,-3.87182 2.203,-4 7.10719,-4 4.74844,0 5.13956,-0.19455 6.22967,-3.09871 1.15277,-3.07109 1.21242,-3.09315 6.69191,-2.47537 l 5.52878,0.62334 -0.3979,-4.17242 c -0.38111,-3.99625 -0.29788,-4.14111 1.97122,-3.43113 7.72736,2.4178 7.46143,2.63401 8.73709,-7.10352 12.28215,-93.75381 12.81884,-111.7505 4.45357,-149.34219 C 631.8455,203.77892 613.83526,154.36226 596.12069,122.3397 583.48921,99.505813 570.69811,81.517023 560.12724,71.720243 c -6.25143,-5.79365 -7.84012,-9.50795 -2.70112,-6.31515 6.73531,4.18457 15.84399,14.86684 27.39333,32.12575 24.65232,36.839517 47.0138,92.525907 59.56408,148.331337 8.67161,38.55877 8.21545,55.71765 -3.89257,146.42046 -2.47401,18.5331 -0.31203,24.84699 14.70315,42.93937 6.51884,7.85482 13.08479,16.03202 30.54326,38.03845 8.84163,11.14488 13.72791,22.10172 9.85643,22.10172 -0.7734,0 -6.0609,-3.51131 -11.75,-7.80291 z m 3.79021,-6.41712 c -1.93198,-2.90399 -7.27667,-9.77997 -11.8771,-15.27997 -4.60044,-5.5 -10.19125,-12.475 -12.42403,-15.5 -2.23278,-3.025 -7.50658,-9.55 -11.71954,-14.5 C 644.34289,427.3198 637,415.04206 637,411.42782 c 0,-2.34001 -1.99487,-4.06564 -4.7,-4.06564 -1.58334,0 -2.3,0.58503 -2.3,1.87756 0,3.06453 -2.58333,4.44167 -7.17635,3.82561 -3.66857,-0.49206 -4.47862,-0.21353 -6.89164,2.36962 -2.15751,2.30961 -3.59379,2.92721 -6.80754,2.92721 -3.58705,0 -4.27182,0.38783 -5.73832,3.25 -0.91587,1.7875 -2.15189,3.56303 -2.74672,3.94563 -1.40436,0.90328 -1.28446,0.99416 6.36057,4.82108 3.575,1.78956 8.87124,4.76789 11.76942,6.61851 2.89818,1.85063 5.47967,3.36478 5.73664,3.36478 1.40947,0 26.6509,18.37961 57.44896,41.83161 4.65026,3.54106 8.62076,5.94105 8.82334,5.33331 0.20258,-0.60774 -1.21238,-3.48097 -3.14435,-6.38495 z"
       id="path3087"
       inkscape:connector-curvature="0" />
    <text
       xml:space="preserve"
       style="font-size:32px;font-style:normal;font-variant:normal;font-weight:normal;font-stretch:normal;line-height:125%;letter-spacing:0px;word-spacing:0px;fill:#000000;fill-opacity:1;stroke:none;font-family:cmr10;-inkscape-font-specification:cmr10"
       x="753.85712"
       y="718.505"
       id="text3089"
       sodipodi:linespacing="125%"><tspan
         sodipodi:role="line"
         id="tspan3091"
         x="753.85712"
         y="718.505">interinc.</tspan></text>
    <text
       xml:space="preserve"
       style="font-size:32px;font-style:normal;font-variant:normal;font-weight:normal;font-stretch:normal;line-height:125%;letter-spacing:0px;word-spacing:0px;fill:#000000;fill-opacity:1;stroke:none;font-family:cmr10;-inkscape-font-specification:cmr10"
       x="753.85718"
       y="802.79077"
       id="text3093"
       sodipodi:linespacing="125%"><tspan
         sodipodi:role="line"
         id="tspan3095"
         x="753.85718"
         y="802.79077">inc. occl.</tspan></text>
    <text
       xml:space="preserve"
       style="font-size:32px;font-style:normal;font-variant:normal;font-weight:normal;font-stretch:normal;line-height:125%;letter-spacing:0px;word-spacing:0px;fill:#000000;fill-opacity:1;stroke:none;font-family:cmr10;-inkscape-font-specification:cmr10"
       x="724.57141"
       y="913.50507"
       id="text3097"
       sodipodi:linespacing="125%"><tspan
         sodipodi:role="line"
         id="tspan3099"
         x="724.57141"
         y="913.50507">inc. mand.</tspan></text>
    <text
       xml:space="preserve"
       style="font-size:32px;font-style:normal;font-variant:normal;font-weight:normal;font-stretch:normal;line-height:125%;letter-spacing:0px;word-spacing:0px;fill:#000000;fill-opacity:1;stroke:none;font-family:cmr10;-inkscape-font-specification:cmr10"
       x="37.428562"
       y="618.505"
       id="text3101"
       sodipodi:linespacing="125%"><tspan
         sodipodi:role="line"
         id="tspan3103"
         x="37.428562"
         y="618.505">occlusale</tspan></text>
    <text
       xml:space="preserve"
       style="font-size:32px;font-style:normal;font-variant:normal;font-weight:normal;font-stretch:normal;line-height:125%;letter-spacing:0px;word-spacing:0px;fill:#000000;fill-opacity:1;stroke:none;font-family:cmr10;-inkscape-font-specification:cmr10"
       x="20.285709"
       y="704.2193"
       id="text3105"
       sodipodi:linespacing="125%"><tspan
         sodipodi:role="line"
         id="tspan3107"
         x="20.285709"
         y="704.2193">MP</tspan></text>
    <text
       xml:space="preserve"
       style="font-size:32px;font-style:normal;font-variant:normal;font-weight:normal;font-stretch:normal;line-height:125%;letter-spacing:0px;word-spacing:0px;fill:#000000;fill-opacity:1;stroke:none;font-family:cmr10;-inkscape-font-specification:cmr10"
       x="182.85715"
       y="653"
       id="text3109"
       sodipodi:linespacing="125%"
       transform="translate(-129,-81.637817)"><tspan
         sodipodi:role="line"
         id="tspan3111"
         x="182.85715"
         y="653">FH</tspan></text>
    <text
       xml:space="preserve"
       style="font-size:32px;font-style:normal;font-variant:normal;font-weight:normal;font-stretch:normal;line-height:125%;letter-spacing:0px;word-spacing:0px;fill:#000000;fill-opacity:1;stroke:none;font-family:cmr10;-inkscape-font-specification:cmr10"
       x="302.42856"
       y="691.36218"
       id="text3113"
       sodipodi:linespacing="125%"><tspan
         sodipodi:role="line"
         id="tspan3115"
         x="302.42856"
         y="691.36218">PO</tspan></text>
    <text
       xml:space="preserve"
       style="font-size:32px;font-style:normal;font-variant:normal;font-weight:normal;font-stretch:normal;line-height:125%;letter-spacing:0px;word-spacing:0px;fill:#000000;fill-opacity:1;stroke:none;font-family:cmr10;-inkscape-font-specification:cmr10"
       x="495.27426"
       y="952.41296"
       id="text3117"
       sodipodi:linespacing="125%"><tspan
         sodipodi:role="line"
         id="tspan3119"
         x="495.27426"
         y="952.41296">Me</tspan></text>
  </g>
</svg>
