<?xml version="1.0" encoding="UTF-8" standalone="no"?>
<!-- Created with Inkscape (http://www.inkscape.org/) -->

<svg
   xmlns:dc="http://purl.org/dc/elements/1.1/"
   xmlns:cc="http://creativecommons.org/ns#"
   xmlns:rdf="http://www.w3.org/1999/02/22-rdf-syntax-ns#"
   xmlns:svg="http://www.w3.org/2000/svg"
   xmlns="http://www.w3.org/2000/svg"
   version="1.1"
   width="1014"
   height="1232"
   id="svg3097">
  <metadata
     id="metadata3103">
    <rdf:RDF>
      <cc:Work
         rdf:about="">
        <dc:format>image/svg+xml</dc:format>
        <dc:type
           rdf:resource="http://purl.org/dc/dcmitype/StillImage" />
        <dc:title></dc:title>
      </cc:Work>
    </rdf:RDF>
  </metadata>
  <defs
     id="defs3101" />
  <path
     d="m 309.57184,1197.1162 c -0.67528,-1.0926 -0.40242,-3.1783 8.33832,-63.7367 3.89941,-27.0163 7.07616,-49.7413 7.05943,-50.5 -0.0202,-0.9158 -0.38427,-0.7712 -1.08321,0.4304 -2.36242,4.0613 -25.1255,16.8685 -34.34578,19.324 -7.01979,1.8694 -16.05706,1.6404 -22.4571,-0.5692 -4.14741,-1.4319 -5.95862,-1.6231 -7.73028,-0.8159 -4.50808,2.0541 -26.713,-6.1457 -45.5966,-16.8377 -5.37894,-3.0455 -19.78715,-12.1903 -32.01825,-20.3217 -42.44777,-28.2198 -48.69561,-31.4195 -76.23837,-39.0444 -6.113137,-1.6923 -27.918542,-5.696 -38,-6.9772 -14.625945,-1.8586 -15.5,-2.0624 -15.5,-3.6131 0,-1.9026 1.775275,-1.8545 19.633627,0.5319 33.803203,4.5171 56.428893,11.5242 78.366373,24.2696 5.775,3.3553 20.4,12.6783 32.5,20.7179 24.21992,16.0925 28.9019,19.046 38.5,24.2868 13.32118,7.2737 35.1259,15.0132 37.00443,13.1347 1.58285,-1.5829 -2.39704,-8.5159 -11.75591,-20.4788 -12.01301,-15.3557 -14.8483,-20.1578 -17.76019,-30.0805 -2.98186,-10.1611 -3.16562,-18.8918 -0.60307,-28.6524 3.23762,-12.3318 14.38341,-23.86651 46.97123,-48.61012 7.76082,-5.89272 18.28325,-14.42909 23.38316,-18.96971 9.93448,-8.84499 7.55777,-5.36503 34.41461,-50.38954 2.64766,-4.43869 4.34574,-8.50721 4.34574,-10.41214 0,-4.72355 4.34649,-11.18263 10.93843,-16.25502 3.25031,-2.50105 6.31978,-4.54737 6.82105,-4.54737 0.99436,0 7.64191,-45.93194 6.77326,-46.80059 -0.29301,-0.29301 -0.54771,0.32976 -0.56601,1.38392 -0.0306,1.76591 -0.1829,1.73723 -1.93559,-0.36457 -2.03872,-2.44481 -3.21683,-7.6132 -4.87685,-21.39486 -1.16974,-9.71134 -2.12592,-11.80244 -6.57209,-14.3727 -1.69521,-0.97997 -8.7072,-5.38196 -15.5822,-9.7822 -18.42286,-11.79127 -21.32893,-13.40318 -34.60583,-19.19482 -26.99897,-11.77747 -52.88424,-18.2401 -95.83948,-23.92772 -19.20249,-2.54257 -23.55225,-3.9489 -20.78204,-6.71911 0.90105,-0.90105 1.73374,-0.91023 3.45714,-0.0381 1.24862,0.63184 7.89521,1.84878 14.77021,2.70431 58.17825,7.23969 96.81637,19.27875 128.73523,40.11197 17.42713,11.37456 21.32248,13.67012 22.01751,12.97509 0.62365,-0.62366 -0.28106,-5.04049 -6.26395,-30.5806 -2.59977,-11.09809 -3.77956,-18.76593 -4.15427,-27 -0.49176,-10.80634 -0.3676,-11.84683 2.05847,-17.25 1.41998,-3.1625 2.74531,-5.75 2.94518,-5.75 0.19986,0 1.75406,0.48479 3.45378,1.07732 3.59539,1.25336 9.42686,8.05687 18.86721,22.01218 3.69543,5.46281 7.02831,9.58996 7.40641,9.17144 0.3781,-0.41852 1.9486,-9.69796 3.49001,-20.62098 2.61475,-18.52916 2.68844,-19.92389 1.0997,-20.813 -3.60489,-2.0174 -14.48796,-11.59662 -21.91502,-19.2895 -8.11327,-8.40365 -15.67902,-18.77899 -18.404,-25.23844 L 336.73361,645.5 335.71356,648 c -3.80496,9.32545 -6.12436,13.46127 -11.65511,20.78275 -6.54953,8.6701 -11.08893,12.20971 -23.80734,18.56386 C 286.05924,694.4369 271.3548,698 256.28603,698 244.58217,698 223.65949,695.65855 216,693.49161 c -3.025,-0.85581 -9.39843,-2.18744 -14.16318,-2.95919 -9.90827,-1.60486 -17.08489,-4.72239 -16.19706,-7.03603 0.72542,-1.89041 0.65245,-1.89812 5.51603,0.58309 2.33597,1.19172 7.35293,2.40981 11.75172,2.85326 4.22158,0.42558 8.62583,1.28233 9.78723,1.90389 2.82232,1.51046 16.93328,3.78479 32.47705,5.23449 18.21087,1.69844 30.6559,-0.27762 48.13216,-7.64257 14.21037,-5.98862 21.55097,-11.31835 28.00569,-20.33386 6.2544,-8.73572 10.66514,-17.31953 10.68059,-20.78567 0.0113,-2.52898 0.39032,-2.83391 4.66027,-3.74902 3.05744,-0.65526 3.19861,-0.53035 4.7793,4.22866 0.89584,2.69712 3.48205,7.78554 5.74712,11.3076 4.48067,6.96717 27.90493,30.90374 30.24231,30.90374 0.79292,0 1.63668,1.0125 1.87504,2.25 0.33166,1.72195 0.46533,1.52762 0.56955,-0.82808 0.12151,-2.7464 -5.28738,-96.38057 -9.32472,-161.42192 -0.83644,-13.475 -3.10838,-51.725 -5.04876,-85 -1.94037,-33.275 -3.79552,-64.55 -4.12255,-69.5 -0.42156,-6.38098 -0.1004,-11.76452 1.10365,-18.5 0.93403,-5.225 3.68915,-21.875 6.12248,-37 l 4.42426,-27.5 1.44499,-46.5 c 0.79474,-25.575 1.65663,-52.54985 1.91529,-59.94412 0.4215,-12.04888 0.1184,-15.47364 -2.92056,-33 -4.99982,-28.83503 -11.82798,-61.858747 -17.55945,-84.924467 -3.74389,-15.066922 -4.76896,-20.660903 -3.93822,-21.491641 0.83074,-0.830738 1.36178,-0.73679 2.04021,0.36094 2.68452,4.343637 15.996,64.664278 23.14924,104.900148 3.58521,20.16626 3.52227,15.90042 1.31459,89.09914 l -1.49292,49.5 -6.08952,38.99338 c -6.29687,40.32112 -6.41107,42.06313 -3.57321,54.50662 2.52011,11.05024 20.51476,36.06978 45.92704,63.85639 4.70629,5.14601 8.80675,10.54601 9.11214,12 0.30538,1.45398 2.57635,5.08408 5.04659,8.06687 4.56347,5.51035 9.34135,16.07727 8.1448,18.01333 -1.17842,1.90672 -2.61907,1.1505 -9.30634,-4.885 C 419.62472,473.08751 418,472.48722 418,476.0098 c 0,1.04046 -0.48729,4.16391 -1.08286,6.94098 -0.84354,3.93325 -1.50659,5.04922 -3,5.04922 -2.26663,0 -2.23926,0.55157 -0.47075,-9.48584 1.07239,-6.08651 1.13088,-8.31859 0.24592,-9.3849 -2.6991,-3.25222 -42.47613,-28.67877 -43.40759,-27.74731 -0.31945,0.31944 -0.0363,9.92669 0.62917,21.34943 0.66548,11.42274 1.4301,25.71862 1.69915,31.76862 0.26905,6.05 0.71158,12.4625 0.98339,14.25 l 0.4942,3.25 16.90499,0 c 14.68849,0 17.0264,-0.21693 17.8309,-1.65449 0.52974,-0.94659 1.58366,-1.40209 2.46319,-1.06458 1.69677,0.65111 1.63912,1.55781 -1.17679,18.50939 -1.45199,8.74092 -1.81246,9.67525 -3.61292,9.36461 -1.1,-0.18979 -2.09164,-0.43142 -2.20364,-0.53697 -0.112,-0.10555 0.4348,-3.77526 1.21511,-8.15493 C 407.96782,514.67627 409.49776,516 391.10699,516 c -13.60547,0 -15.98085,0.22889 -16.50325,1.59024 -0.33562,0.87464 -0.43056,1.88714 -0.21097,2.25 0.21959,0.36287 0.70996,6.05976 1.0897,12.65976 0.37975,6.6 0.82133,13.8 0.98129,16 0.15995,2.2 0.58875,9.4 0.95288,16 0.36413,6.6 1.52914,26.175 2.58892,43.5 1.05977,17.325 2.2034,37.125 2.5414,44 0.33799,6.875 1.0282,12.9275 1.53379,13.45 0.56426,0.58313 0.92516,-0.5754 0.93456,-3 0.0206,-5.3148 0.95582,-6.6755 3.3732,-4.90787 1.80955,1.32318 1.8183,1.73543 0.24785,11.66476 -2.31912,14.66284 -2.64441,16.18035 -3.69618,17.24311 -3.15578,3.18874 1.92066,9.6562 9.87285,12.57814 3.12783,1.14929 6.51953,2.70818 7.53711,3.4642 2.13882,1.58908 1.39589,3.50766 -1.35827,3.50766 -2.52593,0 -5.80442,4.55286 -11.52151,16 l -4.74463,9.5 1.22671,10.5 c 0.67468,5.775 1.43922,12.75 1.69897,15.5 0.25975,2.75 3.25694,12.74071 6.66043,22.20159 4.77005,13.25959 6.69032,17.4308 8.37943,18.2018 1.59659,0.72877 2.90332,3.25223 4.81504,9.29841 5.3308,16.85969 6.75981,24.70063 6.7976,37.2982 0.0511,17.04909 -2.10626,21.05909 -12.36534,22.9837 -4.2952,0.80579 -7.50763,-1.43777 -12.34612,-8.62253 l -3.31267,-4.91903 -0.63989,4.6685 c -0.35194,2.56768 -0.64254,7.8682 -0.64579,11.77893 -0.007,8.81007 -2.33444,24.45206 -4.62785,31.10637 -0.94702,2.74777 -2.78344,5.83098 -4.08094,6.8516 -1.2975,1.02061 -3.75232,4.62244 -5.45515,8.00406 -4.29193,8.52327 -8.28447,14.29491 -13.93771,20.1484 -6.53302,6.76445 -8.22697,12.2188 -11.91448,38.36348 -1.67842,11.90009 -4.10107,28.83652 -5.38367,37.63652 -1.48436,10.1843 -2.1624,18.5444 -1.86541,23 0.37146,5.5728 0.0151,8.2233 -1.74799,13 -1.52147,4.1221 -4.65479,22.7444 -10.01127,59.5 -4.28818,29.425 -8.9606,61.452 -10.38316,71.1711 -1.42256,9.7191 -2.58647,17.9316 -2.58647,18.25 0,0.9213 -2.82562,0.6701 -3.42816,-0.3049 z M 299.5,1094.5303 c 11.42901,-5.4874 19.72754,-11.0795 22.96382,-15.4746 2.44615,-3.322 2.54036,-3.3575 2.6538,-1 0.0647,1.3444 0.51393,0.1943 0.99831,-2.5557 0.48439,-2.75 0.64789,-6.0125 0.36333,-7.25 -0.28455,-1.2375 -0.12255,-2.25 0.36001,-2.25 1.02689,0 7.66775,-46.8263 6.7684,-47.7257 -0.33422,-0.3342 -0.63938,0.9299 -0.67813,2.809 l -0.0705,3.4167 -1.53817,-4 c -2.74427,-7.1365 -2.76394,-22.38156 -0.0468,-36.25 1.32005,-6.7375 2.08069,-12.25 1.69033,-12.25 -0.75289,0 -5.44742,5.05991 -13.15146,14.17504 -2.77943,3.28852 -6.54485,6.41876 -9.2519,7.69123 l -4.56493,2.14577 -2.93658,-2.61652 c -1.61513,-1.43908 -3.63927,-4.09729 -4.4981,-5.90714 -2.33382,-4.91817 -1.99701,-15.75819 0.78843,-25.37508 1.29247,-4.46232 1.99484,-8.1133 1.56082,-8.1133 -0.43401,0 -2.75203,1.6875 -5.15114,3.75 -2.39911,2.0625 -8.78158,7.125 -14.18327,11.25 -20.48564,15.64387 -26.39397,20.64298 -37.12527,31.4121 -10.93242,10.971 -11.06686,11.1632 -12.75,18.231 -2.39383,10.052 -2.16789,18.2233 0.77024,27.8559 2.72012,8.9179 6.64082,15.4363 17.4435,29.001 3.94209,4.95 8.50573,11.7786 10.14143,15.1747 2.72635,5.6604 3.36828,6.3024 7.70887,7.7092 10.38889,3.3669 18.83127,2.3418 31.73488,-3.8536 z M 338.46732,990.00922 C 340.4103,976.53929 342,964.84595 342,964.02403 c 0,-0.82193 -0.86487,0.11924 -1.92192,2.09148 -2.77069,5.16951 -7.25004,27.97784 -7.34197,37.38449 -0.0702,7.1839 1.091,14.565 1.88787,12 0.17087,-0.55 1.90037,-12.0209 3.84334,-25.49078 z m -27.19684,-0.84924 c 3.23688,-2.13437 4.36953,-3.34262 11.72952,-12.51243 3.025,-3.76885 7.10263,-7.6722 9.06141,-8.67411 1.95877,-1.00192 4.86262,-3.69932 6.453,-5.99423 2.34408,-3.38251 3.00705,-3.84343 3.50136,-2.43426 0.33537,0.95607 2.30546,-10.36293 4.37797,-25.15332 2.07252,-14.7904 4.87611,-34.70864 6.2302,-44.26275 1.35409,-9.55412 2.25317,-17.87912 1.99797,-18.5 -0.25521,-0.62089 -0.49954,-0.36934 -0.54296,0.55898 -0.0434,0.92833 -2.12273,3.1556 -4.62068,4.94949 C 344.84435,880.45082 341,885.50224 341,888.2514 c 0,1.6352 2.85747,2.71313 7.25,2.73495 2.12896,0.0106 2.75,0.49133 2.75,2.12887 0,1.96482 -0.37332,2.07055 -5.25,1.48695 l -5.25,-0.62827 -13,22.18577 c -7.15,12.20217 -14.46191,24.13617 -16.24869,26.51999 -4.40804,5.88096 -10.42287,25.45304 -10.56195,34.36834 -0.0811,5.19634 0.37013,7.31219 2.1858,10.25 2.55903,4.14059 4.3405,4.5357 8.39532,1.86198 z m 46.10421,-58.66527 c 4.64756,-5.70537 9.90845,-14.35916 11.06936,-18.20831 0.53433,-1.77167 -0.40295,-3.31889 -4.69481,-7.75 C 360.7999,901.49138 357.85835,899 357.21245,899 c -1.45514,0 -1.71569,1.14807 -4.19845,18.5 -3.05131,21.32547 -2.86872,21.86958 4.36069,12.99471 z m 16.90729,-25.2538 c 2.90104,-3.20561 5.63777,-16.20904 6.68027,-31.74091 1.50516,-22.42483 1.50051,-22.5 -1.39248,-22.5 -1.68538,0 -3.60096,1.43771 -6.25,4.69082 -2.10087,2.57996 -5.98885,6.83659 -8.63995,9.45918 -5.11443,5.05944 -5.41627,5.98807 -7.35018,22.61376 -0.59727,5.13467 -0.52061,5.34313 3.12585,8.5 2.05597,1.77993 5.34186,4.92374 7.30196,6.98624 4.07924,4.29235 4.36331,4.37903 6.52453,1.99091 z m 32.69658,-44.06562 c 6.14459,-6.1446 5.06527,-27.22074 -2.62931,-51.34293 -3.2099,-10.0629 -4.03614,-10.69581 -10.08977,-7.72884 -3.80697,1.86584 -6.81156,2.40733 -15.0133,2.70571 -11.63862,0.42342 -10.32492,-0.85181 -12.04344,11.69077 l -0.9591,7 3.12818,2.47753 c 9.26373,7.3369 14.02192,12.82213 17.80233,20.52247 2.16013,4.4 5.48401,10.1375 7.3864,12.75 4.2457,5.83052 7.94001,6.40329 12.41801,1.92529 z m -39.10997,-4.99803 C 372.99813,849.2579 376.11743,847 380.54705,847 c 3.15002,0 3.08741,-0.83812 -0.41828,-5.59996 -3.24488,-4.40758 -7.33189,-8.31856 -11.36858,-10.87892 -2.20763,-1.40024 -2.82997,-1.47394 -3.20393,-0.37945 C 365.0987,831.48083 361,860.17618 361,862.04044 c 0,2.32878 2.16687,0.4791 6.86859,-5.86318 z M 368.37178,779 c 5.34638,-37.47121 6.32104,-45.70512 4.73621,-40.01168 -0.6268,2.25178 -1.46943,1.34224 -8.86398,-9.56792 C 355.75881,716.90105 348.53453,708 346.85878,708 c -0.53418,0 -1.89325,2.08434 -3.02014,4.63188 -1.7446,3.94395 -1.94583,5.76331 -1.35494,12.25 0.86826,9.5315 2.91802,20.71224 6.16288,33.61638 1.38278,5.49904 3.62694,15.17404 4.98702,21.5 5.23225,24.33606 4.69416,22.99534 8.6164,21.46884 1.33238,-0.51854 1.75,-0.17236 1.75,1.45066 0,1.35372 -0.91242,2.47864 -2.5,3.08224 -1.84012,0.69961 -2.49853,1.68289 -2.49442,3.72525 0.008,4.04966 2.02439,10.65834 2.94249,9.64464 C 362.3814,818.89145 365.27206,800.725 368.37178,779 z M 392.25,798.83907 c 2.0625,-1.03385 3.75,-2.14536 3.75,-2.47003 0,-0.78798 -11.94047,-34.5045 -12.81503,-36.18604 -0.95772,-1.84142 -5.96256,-4.73874 -6.77768,-3.92362 -0.68446,0.68446 -6.36877,38.41435 -6.39369,42.43836 -0.012,1.94214 0.59699,2.23857 5.2364,2.54877 7.45743,0.49863 12.67708,-0.24055 17,-2.40744 z M 382.29447,744.75 c -0.73328,-5.0875 -1.10135,-10.89272 -0.81794,-12.90049 0.2834,-2.00777 3.45384,-9.15856 7.04541,-15.89063 3.59157,-6.73208 6.40591,-12.32581 6.25409,-12.43051 C 394.08966,703.05503 384.72475,698 384.5342,698 c -0.40732,0 -2.52066,13.55497 -4.05364,26 -0.84687,6.875 -1.75338,13.10438 -2.01448,13.84306 -0.49539,1.40151 1.24679,13.88334 2.13939,15.32759 0.28191,0.45614 1.07724,0.82935 1.76739,0.82935 1.00079,0 0.98492,-1.87267 -0.0784,-9.25 z M 427.3482,472.16416 c -1.01651,-1.55972 -3.08071,-4.37222 -4.58711,-6.25 l -2.73891,-3.41416 -0.0111,3.15301 c -0.009,2.43923 0.83783,3.8465 3.73891,6.21646 4.70916,3.84703 5.98126,3.95121 3.5982,0.29469 z M 416,461.5 c 0,-1.375 0.45,-2.5 1,-2.5 2.33798,0 0.43157,-2.76627 -9.18038,-13.32104 -12.848,-14.10825 -24.61654,-28.87745 -33.27651,-41.76116 -3.71296,-5.52388 -6.99274,-9.80151 -7.28841,-9.50584 -0.29566,0.29567 0.0339,9.69263 0.73245,20.88214 l 1.27002,20.34456 4.62141,2.70776 c 7.03311,4.12082 30.04312,18.78181 35.12142,22.37786 5.47206,3.87488 7,4.0442 7,0.77572 z m 460.09468,717.25 c -1.86874,-8.9375 -4.84783,-22.775 -6.6202,-30.75 -1.77237,-7.975 -3.98488,-17.9875 -4.91669,-22.25 -0.93182,-4.2625 -2.04517,-7.75 -2.47413,-7.75 -0.42895,0 -1.57006,1.7522 -2.53581,3.8939 -3.09393,6.8611 -9.32731,11.9808 -17.14804,14.0842 -3.7949,1.0207 -9.82481,2.7277 -13.39981,3.7934 -8.87602,2.6458 -15.77205,1.7054 -39,-5.3185 -25.43206,-7.6903 -36.19479,-11.461 -60,-21.0207 -33.94954,-13.6335 -49.74537,-19.0944 -60.62381,-20.9586 -2.1319,-0.3653 -12.87619,-2.8389 -23.87619,-5.4969 -27.22513,-6.5784 -29.51193,-7.0044 -41.25,-7.6844 -9.32711,-0.5403 -10.25,-0.771 -10.25,-2.562 0,-1.8725 0.47418,-1.9331 9.75,-1.2452 11.85653,0.8794 19.31853,2.2622 39.90816,7.3959 8.71301,2.1724 19.66684,4.7047 24.34184,5.6273 4.675,0.9226 14.125,3.4939 21,5.7141 12.651,4.0855 17.51512,5.9267 49,18.5478 17.91612,7.1819 39.95492,14.6081 40.81123,13.7518 0.26324,-0.2632 -0.71998,-1.9509 -2.18493,-3.7504 -1.46496,-1.7994 -4.11767,-5.222 -5.89493,-7.6058 -1.77725,-2.3837 -4.89129,-6.1221 -6.92008,-8.3074 -4.6312,-4.9886 -6.4813,-10.5597 -7.92315,-23.8585 -1.44895,-13.3644 -0.61234,-28.4096 2.11304,-38 1.17222,-4.125 6.32022,-17.625 11.43999,-30 5.11977,-12.375 9.64318,-23.625 10.05203,-25 0.40885,-1.375 1.37691,-3.22345 2.15125,-4.10766 0.88233,-1.00752 2.88723,-12.01988 5.37075,-29.5 2.17957,-15.34079 4.41779,-28.67373 4.97382,-29.62877 C 792.54506,925.80853 793,922.12466 793,918.57719 l 0,-6.44994 8.88068,-10.15569 c 11.13699,-12.73594 11.15688,-12.83873 6.53592,-33.77858 C 805.34439,854.2713 804,849.56611 804,852.73547 c 0,0.71802 -1.45915,0.62965 -4.446,-0.26926 C 789.20527,849.3517 785,845.46369 785,839.0102 c 0,-4.03222 -0.90114,-5.99934 -7.12941,-15.56291 C 773.94941,817.42628 769.3697,810.025 767.69344,807 756.00162,785.90072 717.91393,759.13368 688.01506,751.00409 677.31301,748.09418 670.76317,745.64924 639,732.70764 c -14.43109,-5.87981 -26.95095,-9.9328 -36.25,-11.73504 -3.7978,-0.73604 -5.75,-1.59959 -5.75,-2.5435 0,-4.45144 26.35043,3.01169 55,15.57745 13.19274,5.78637 27.31142,10.87143 37.62385,13.55082 16.54033,4.29754 43.01513,19.00196 60.21688,33.44517 3.92861,3.2986 7.36309,5.99746 7.63218,5.99746 0.26909,0 -1.04912,-2.8125 -2.92936,-6.25 -6.10006,-11.15234 -8.88929,-21.0245 -8.89312,-31.47625 -0.004,-10.5383 1.00882,-12.49216 7.47946,-14.43081 5.98764,-1.79394 10.94663,0.67799 20.36401,10.15092 4.37755,4.40338 8.26456,8.00614 8.63781,8.00614 1.14619,0 -0.14566,-12.3149 -1.62597,-15.5 -0.76685,-1.65 -2.60262,-8.56243 -4.07948,-15.36097 -2.23769,-10.30091 -2.4553,-12.50532 -1.30573,-13.22717 0.75871,-0.47641 2.16414,-0.62205 3.12318,-0.32364 1.14805,0.35722 1.59634,0.0932 1.3123,-0.77283 -0.23727,-0.72346 -0.66757,-4.91539 -0.95622,-9.31539 -0.28866,-4.4 -0.81918,-9.0125 -1.17894,-10.25 -0.75452,-2.59539 -2.62584,-2.91286 -4.42085,-0.75 -1.87677,2.26136 -3.88516,1.80573 -4.60031,-1.04364 -0.4425,-1.76308 -2.20012,-3.33502 -5.72762,-5.12254 -6.80589,-3.4488 -13.58829,-8.55976 -22.85158,-17.22009 l -7.67952,-7.17964 -5.07312,4.50565 c -2.79022,2.47811 -8.78444,6.26082 -13.32049,8.40601 -17.47963,8.26649 -30.3873,14.01062 -33.74736,15.01816 -6.14349,1.84216 -20.0946,3.97504 -34,5.198 -11.53754,1.01471 -15.74894,0.94328 -28.97074,-0.49138 -8.50891,-0.92327 -15.652,-1.85994 -15.87354,-2.08148 -0.22154,-0.22153 -0.16901,-1.01203 0.11673,-1.75665 0.43341,-1.12946 2.98159,-1.07302 15.37354,0.34051 13.28941,1.51589 16.38132,1.54886 29.35401,0.31301 26.67388,-2.54109 31.04513,-3.66766 53,-13.65922 18.20467,-8.28487 21.70909,-10.36399 28.67714,-17.01376 l 4.17713,-3.98633 9.32287,8.61729 c 9.49877,8.77989 21.31632,17.62584 23.57286,17.64531 1.59343,0.0138 1.55765,-1.05854 -0.29801,-8.93142 C 762.84775,662.25162 763.06132,660 765.31115,660 c 0.90051,0 2.29288,3.50644 4.04084,10.17612 1.46681,5.59687 2.77609,10.28529 2.90951,10.41872 0.13343,0.13342 1.37527,0.52688 2.75965,0.87433 2.41645,0.60649 2.50933,0.45988 2.32415,-3.66872 -0.22146,-4.93758 -5.16965,-82.26621 -5.84223,-91.30045 -1.95457,-26.25432 -3.71971,-53.01906 -3.67791,-55.768 0.0232,-1.5224 -0.30206,-2.5553 -0.72269,-2.29533 -0.42063,0.25997 -4.77827,0.73354 -9.68363,1.05239 -4.90536,0.31884 -10.26884,0.8306 -11.91884,1.13722 -1.65,0.30663 -3.45,0.64131 -4,0.74374 -2.68276,0.49959 -3.40705,1.74426 -2.46179,4.23048 1.56027,4.10381 1.19466,6.3995 -1.01916,6.3995 -1.35595,0 -2.16109,-0.86764 -2.55192,-2.75 -0.31404,-1.5125 -1.18532,-4.1 -1.93617,-5.75 -0.75086,-1.65 -1.62534,-5.475 -1.9433,-8.5 -0.31795,-3.025 -0.85771,-6.7375 -1.19946,-8.25 -0.5159,-2.28326 -0.28531,-2.75 1.35858,-2.75 1.60675,0 2.21457,1.10565 3.2248,5.8661 0.68468,3.22635 1.53367,6.31123 1.88665,6.85528 0.41763,0.6437 5.83391,0.44163 15.50835,-0.57859 l 14.86658,-1.56776 -0.68915,-13.03752 C 766.16497,504.36688 764.9928,485.9 763.93919,470.5 c -1.05361,-15.4 -1.92096,-29.4625 -1.92743,-31.25 -0.008,-2.28642 -0.47886,-3.25 -1.58721,-3.25 -2.48264,0 -22.55747,-9.88816 -38.23673,-18.83408 C 714.31612,412.67466 707.43065,409 706.88679,409 c -0.54386,0 -1.67858,-1.65078 -2.5216,-3.66841 -1.20419,-2.88203 -1.28947,-4.20237 -0.3978,-6.15935 0.76051,-1.66916 0.79874,-2.69875 0.11586,-3.12079 -1.28472,-0.794 -7.3535,-26.80516 -6.55534,-28.09661 1.79394,-2.90266 3.33008,-0.18925 5.82838,10.29516 1.47439,6.1875 2.67928,11.7 2.67753,12.25 -0.002,0.55 0.40366,1.64289 0.90092,2.42865 1.33472,2.10907 9.55536,-4.37908 11.46476,-9.04858 1.81145,-4.42997 3.83595,-5.32679 7.61419,-3.37299 4.11503,2.12796 4.59819,1.95579 7.12424,-2.53871 2.23499,-3.97662 3.45662,-4.65439 9.36207,-5.19416 2.58218,-0.23602 3.38948,-1.0918 5.79652,-6.14458 l 2.79652,-5.87037 3.93231,0.6288 c 4.81284,0.76961 4.68387,1.18957 5.33956,-17.38806 0.55973,-15.85882 1.84198,-23.49009 9.22872,-54.92456 7.09909,-30.21034 8.36784,-39.53505 8.37816,-61.57544 0.0233,-49.67994 -6.95124,-98.44122 -23.36046,-163.321139 -5.24634,-20.74339 -6.14388,-25.421006 -4.9646,-25.873539 0.79174,-0.303819 1.68176,-0.310164 1.97783,-0.0141 1.01312,1.013123 11.41057,43.187952 15.82952,64.208778 8.92786,42.46956 13.09675,75.5924 14.20832,112.88865 0.93105,31.23909 -0.15241,39.79954 -10.70888,84.61135 -5.20923,22.11295 -6.73345,32.66107 -7.29733,50.5 l -0.47415,15 6.54873,12 c 15.2967,28.02992 29.54566,50.46076 41.99023,66.10141 5.76625,7.24716 8.59952,11.8559 10.57744,17.2058 1.48586,4.01897 2.70156,8.10302 2.70156,9.07569 0,0.97266 1.125,2.82535 2.5,4.1171 2.58581,2.42924 3.17597,4.46419 1.58062,5.45017 -0.50566,0.31252 -4.66816,-3.16632 -9.25,-7.73074 C 811.01819,462.9405 799.43981,453.77183 789.5,447.70126 782.50803,443.43104 771.66924,439 768.2158,439 c -2.37194,0 -2.39704,0.0996 -1.82735,7.25 0.3177,3.9875 1.27636,18.05 2.13036,31.25 0.85401,13.2 2.65435,39.75 4.00076,59 1.34641,19.25 2.89522,41.975 3.44178,50.5 1.6303,25.4281 3.99611,60.58566 5.0507,75.05656 0.54337,7.45611 1.00127,16.00611 1.01754,19 l 0.0296,5.44344 11.7204,5.6845 c 6.44623,3.12647 13.43182,5.99354 15.52355,6.37126 3.64325,0.65789 3.79039,0.83665 3.5,4.25219 -0.26683,3.13834 -0.94957,3.94411 -5.69973,6.72675 -6.31081,3.69685 -17.42914,14.26073 -19.76658,18.78084 -2.07898,4.02031 -1.85868,13.90025 0.57448,25.76296 2.18188,10.63765 5.3998,15.52161 22.22015,33.72439 11.68006,12.64001 15.85256,18.7213 15.88989,23.159 0.0153,1.81437 1.17436,3.35406 4.06487,5.39959 10.85565,7.68224 19.05306,23.36096 22.49449,43.02396 2.16269,12.35674 0.70138,21.75548 -3.5945,23.11894 -2.8661,0.90966 -10.77047,-3.18711 -16.37359,-8.48631 -6.15101,-5.81737 -7.57479,-6.3405 -4.81201,-1.76807 1.08005,1.7875 2.27405,5.41896 2.65332,8.06991 0.37927,2.65095 2.45729,10.71467 4.61783,17.91937 4.67479,15.58897 5.22308,24.85873 1.9268,32.57534 -1.1008,2.57696 -2.84863,8.58792 -3.88408,13.3577 -2.03127,9.35701 -2.17633,7.63524 2.34452,27.82768 0.80041,3.575 3.48781,15.95 5.97202,27.5 2.4842,11.55 5.4332,25.05 6.55332,30 1.12012,4.95 2.68132,12.15 3.46931,16 1.42702,6.9721 5.82054,27.2665 15.37073,71 2.76241,12.65 6.24655,28.625 7.74254,35.5 1.49599,6.875 4.18462,19.025 5.97475,27 1.79013,7.975 3.04902,14.8375 2.79753,15.25 -0.25148,0.4125 -1.21989,0.75 -2.15202,0.75 -1.38412,0 -2.3176,-2.9787 -5.0925,-16.25 z m -40.60812,-44.6305 c 7.86076,-2.4152 13.58814,-4.7753 15.16698,-6.25 10.10361,-9.4373 11.42108,-26.8843 3.35046,-44.3695 -1.52317,-3.3 -3.98723,-8.7 -5.47569,-12 -1.48846,-3.3 -4.90598,-9.6736 -7.59448,-14.1635 -6.87981,-11.4896 -13.46127,-25.0403 -14.73413,-30.3365 -0.59483,-2.475 -1.81761,-9.9 -2.71729,-16.5 -0.89968,-6.6 -1.98892,-12.36515 -2.42053,-12.81144 -0.43161,-0.44629 -3.1569,3.82464 -6.0562,9.49094 -6.88798,13.4617 -9.34644,16.6062 -13.60827,17.4057 -7.15617,1.3425 -10.99204,-4.0065 -14.92374,-20.8109 -1.50889,-6.44906 -3.09991,-11.5053 -3.5356,-11.23603 -0.43569,0.26927 -1.34143,2.17082 -2.01275,4.22566 -0.67133,2.05484 -4.494,11.43077 -8.49483,20.83527 -12.91948,30.3693 -14.89333,40.3088 -12.73027,64.1042 1.28131,14.0954 2.24118,16.9698 7.94656,23.7966 11.27473,13.4908 15.42873,18.9527 15.9284,20.9435 0.46991,1.8723 2.54387,2.878 12.36567,5.9965 10.58374,3.3605 18.36558,5.0703 24.73734,5.4352 1.198,0.069 7.86177,-1.6214 14.80837,-3.7557 z m 13.06999,-81.8392 c -1.42445,-7.0292 -3.91458,-18.6303 -5.53361,-25.7803 -1.61903,-7.15 -4.04701,-18.175 -5.3955,-24.5 -6.42673,-30.1441 -8.06638,-36.95768 -8.72506,-36.25694 -0.39133,0.41632 -1.84301,6.29622 -3.22596,13.06646 -2.27647,11.14441 -2.38422,12.70614 -1.13842,16.5 0.75682,2.30476 2.10014,9.58058 2.98516,16.16838 2.03308,15.1336 4.10197,21.3159 11.72008,35.0221 3.36269,6.05 7.2711,13.1231 8.68537,15.718 1.41426,2.595 2.71684,4.2961 2.89462,3.7803 0.17778,-0.5157 -0.84223,-6.6888 -2.26668,-13.718 z M 804.21206,1018.25 c 1.42244,-1.5125 5.49055,-8.6 9.04024,-15.75 5.85443,-11.79233 6.76476,-14.50368 9.79931,-29.18636 1.83993,-8.90249 3.69924,-15.96762 4.1318,-15.70029 0.74218,0.4587 0.21289,-4.34369 -0.83909,-7.61335 -0.26544,-0.825 -0.90342,-3.70904 -1.41773,-6.40899 -2.67066,-14.01981 -3.05669,-14.36065 -14.22392,-12.55919 -6.252,1.00856 -7.81912,0.94636 -11.14248,-0.44223 -2.127,-0.88871 -4.04953,-1.43358 -4.2723,-1.21081 -0.49786,0.49786 -5.69205,34.42629 -7.367,48.12122 -1.19622,9.78065 -1.15417,10.30337 1.91694,23.8301 4.35751,19.1926 8.09711,23.5945 14.37423,16.9199 z m 25.60524,-83.37306 c -1.66119,-1.03946 -2.26098,1.29592 -1.27184,4.95215 l 0.72257,2.67091 0.93329,-3.39939 c 0.69803,-2.54251 0.60123,-3.60716 -0.38402,-4.22367 z m 4.30321,-7.12694 c 2.27793,-5.43097 1.50604,-14.1943 -2.44424,-27.75 -2.00346,-6.875 -4.15673,-14.975 -4.78506,-18 -0.62832,-3.025 -2.06389,-6.80401 -3.19015,-8.3978 l -2.04774,-2.89781 -2.82666,3.16358 C 817.01278,875.89805 816,878.14218 816,880.13128 c 0,1.70485 1.98537,12.16026 4.41192,23.23423 2.42656,11.07397 4.70633,21.56973 5.06615,23.3239 0.61746,3.0102 1.84815,3.92376 5.65061,4.19459 0.95144,0.0678 2.19551,-1.23542 2.99183,-3.134 z m -20.14582,-0.81558 c 3.56108,-0.57775 6.5756,-1.15138 6.69894,-1.27471 0.12333,-0.12334 -0.18432,-2.00973 -0.68368,-4.19198 -0.49936,-2.18225 -1.861,-8.46773 -3.02588,-13.96773 -1.16487,-5.5 -2.32463,-10.74332 -2.57724,-11.65183 -0.35119,-1.26305 -1.57593,-0.43928 -5.20361,3.5 C 796.8066,912.78786 797,912.47676 797,918.94618 c 0,8.98866 2.771,10.29268 16.97469,7.98824 z M 849.12447,876.25 c 2.40445,-6.15112 -1.51779,-27.39661 -7.2042,-39.02281 -4.88844,-9.99469 -16.67549,-21.61632 -18.79512,-18.53134 -1.47122,2.14128 -8.09922,6.38165 -12.19382,7.8012 -2.43723,0.84496 -4.94253,1.71998 -5.56734,1.94449 -0.81517,0.29292 -0.59784,3.04182 0.76952,9.73333 2.65235,12.97994 2.34821,12.4422 8.66811,15.32576 4.2003,1.91645 8.06444,5.05326 14.69838,11.93175 7.66663,7.94925 14.76768,13.35188 17.77475,13.52342 0.42611,0.0243 1.25849,-1.1933 1.84972,-2.7058 z m -30.7735,-7.72222 C 818.67341,867.6875 819.57821,867 820.36163,867 c 2.92178,0 2.64603,-3.10574 -0.5336,-6.00989 -3.08468,-2.81742 -8.49899,-5.65249 -9.28803,-4.86344 -0.46016,0.46016 2.20583,13.65306 3.02771,14.98288 0.72706,1.17641 4.02397,-0.60311 4.78326,-2.58177 z m -16.31532,-28.87127 -2.15991,-9.48126 -2.81097,0.80617 c -5.75868,1.65157 -8.06477,3.95787 -8.06477,8.0655 0,3.12425 0.56069,4.21613 3.08975,6.01699 2.89023,2.05802 10.98513,5.07703 11.75803,4.38517 0.19128,-0.17122 -0.62418,-4.57788 -1.81213,-9.79257 z m -8.39459,-11.26933 c 4.40294,-2.15415 5.25961,-2.98798 4.88009,-4.75 -3.61963,-16.80535 -6.60516,-30.53622 -6.98765,-32.13718 -0.2628,-1.1 -1.85925,-8.525 -3.54766,-16.5 -3.56496,-16.83867 -3.87484,-17.99253 -4.79678,-17.86127 -2.33435,0.33237 -4.15461,-1.03539 -12.05917,-9.06132 -7.04042,-7.14851 -9.55005,-9.06561 -12.62202,-9.64191 -2.1658,-0.40631 -4.52484,-0.28849 -5.42111,0.27074 -7.96393,4.96916 -3.84155,26.71269 9.03218,47.64029 1.63975,2.66559 3.92821,7.39059 5.08547,10.5 1.15726,3.10941 3.75288,8.35347 5.76804,11.65347 6.24445,10.22586 14.34431,22.5 14.84802,22.5 0.2641,0 2.88337,-1.17577 5.82059,-2.61282 z m 20.29373,-7.16735 c 11.46861,-7.08231 10.90716,-12.36938 -2.83744,-26.71983 -4.21425,-4.4 -10.00317,-10.66949 -12.86428,-13.93219 -2.86111,-3.26271 -5.36016,-5.73771 -5.55344,-5.5 -0.19329,0.2377 0.93735,6.28219 2.51254,13.43219 1.57518,7.15 3.79288,17.275 4.92822,22.5 3.07048,14.1309 3.03587,14.07175 7.51274,12.83563 2.05505,-0.56743 4.8908,-1.74454 6.30166,-2.6158 z M 793.42633,715.47617 c 4.26073,-4.13811 9.50783,-8.42226 11.66022,-9.52033 2.1524,-1.09807 3.91345,-2.36611 3.91345,-2.81788 0,-0.45176 -1.9125,-1.39402 -4.25,-2.09392 -2.3375,-0.69989 -7.4,-2.90137 -11.25,-4.89217 -11.99117,-6.20053 -10.87312,-6.92855 -10.10463,6.57965 0.63401,11.14439 1.56042,20.26848 2.05795,20.26848 0.12443,0 3.71228,-3.38572 7.97301,-7.52383 z m 24.38763,-255.72366 c -1.09664,-2.88612 -3.89629,-7.49862 -6.22145,-10.25 -11.60134,-13.72797 -27.12373,-37.52027 -42.58916,-65.27949 -3.45549,-6.20235 -6.50201,-11.05769 -6.77003,-10.78967 -0.26803,0.26803 0.008,7.59267 0.6128,16.27699 0.60506,8.68431 1.3535,20.51466 1.6632,26.28966 1.0269,19.14882 0.75635,18.35226 6.71411,19.76749 10.7978,2.56494 27.17021,12.04763 40.77657,23.61725 3.575,3.03987 6.79427,5.54688 7.15393,5.57114 0.35966,0.0243 -0.24333,-2.31725 -1.33997,-5.20337 z M 760.98374,427.75 c -0.009,-2.3375 -0.90549,-17.3 -1.99233,-33.25 -1.08683,-15.95 -1.97951,-29.1125 -1.98373,-29.25 -0.004,-0.1375 -0.83934,-0.25 -1.85581,-0.25 -1.18499,0 -2.48732,1.41749 -3.62955,3.95049 -2.76585,6.13357 -5.03551,8.04951 -9.5356,8.04951 -3.30632,0 -4.16869,0.45121 -5.3951,2.82283 -0.80286,1.55256 -2.18001,3.4206 -3.06033,4.1512 -1.88991,1.56848 -7.12021,1.61202 -8.97259,0.0747 -0.99888,-0.829 -1.59457,-0.37635 -2.55449,1.94111 -0.68851,1.66222 -4.14551,5.29626 -7.68223,8.07566 -7.05883,5.54732 -7.9576,6.87832 -6.49283,9.61527 1.49171,2.78729 48.11749,28.18965 51.92085,28.28718 0.81142,0.0208 1.24429,-1.45912 1.23374,-4.21794 z m -5.44069,201 c -3.46658,-14.94228 -3.60672,-17.25 -1.04752,-17.25 1.5678,0 2.18448,0.96454 2.87708,4.5 0.48485,2.475 1.88535,8.8875 3.11221,14.25 l 2.23065,9.75 -2.28122,0 c -2.08512,0 -2.50559,-0.96712 -4.8912,-11.25 z m -365.99749,7.28147 c -0.16629,-0.29231 0.62432,-6.71897 1.7569,-14.28147 1.99637,-13.33021 2.13344,-13.75 4.48968,-13.75 2.19925,0 2.373,0.30915 1.82652,3.25 -0.93191,5.01507 -3.60615,23.10442 -3.61276,24.43785 -0.006,1.14113 -3.83865,1.43642 -4.46034,0.34362 z M 746.62759,589.25 c -1.93879,-6.68969 -5.59212,-25.49837 -5.10561,-26.28556 1.31126,-2.12166 3.45394,-0.76602 4.40274,2.78556 2.53539,9.49054 5.06191,20.95597 5.06827,23 0.009,2.74865 -3.59411,3.16129 -4.3654,0.5 z M 397,585.37387 c 0,-0.89438 0.69225,-5.95688 1.53833,-11.25 0.84609,-5.29313 1.76648,-11.08637 2.04532,-12.87387 0.52481,-3.36434 3.00469,-4.48633 4.02709,-1.82202 0.54885,1.43029 -0.79914,12.46876 -2.72592,22.32202 -0.8143,4.16423 -1.42558,5.25 -2.95572,5.25 C 397.81451,587 397,586.31341 397,585.37387 z M 724.61116,491.25 C 723.65738,488.06231 719,467.16425 719,466.07224 719,465.48251 719.8681,465 720.9291,465 c 1.54954,0 2.15357,1.13135 3.06991,5.75 1.15611,5.82711 3.75731,17.29818 4.64861,20.5 0.34678,1.24572 -0.0892,1.75 -1.51284,1.75 -1.1,0 -2.23563,-0.7875 -2.52362,-1.75 z m -11.51382,-51 c -3.06202,-11.71989 -5.16949,-22.32424 -4.61495,-23.22151 1.74966,-2.831 3.40933,-0.6062 5.01417,6.72151 0.93353,4.2625 2.28215,10.30905 2.99694,13.43677 0.7148,3.12773 1.04617,5.94023 0.7364,6.25 -1.52262,1.52262 -3.25022,0.1904 -4.13256,-3.18677 z m -292.72362,-2.71849 c -0.30994,-0.80768 0.17861,-6.09518 1.08566,-11.75 C 424.04729,409.64761 423.94164,410 426.19075,410 c 1.74177,0 1.95102,0.46396 1.46577,3.25 -0.31134,1.7875 -1.32385,8.3125 -2.25002,14.5 -1.21871,8.14181 -2.06873,11.25 -3.07662,11.25 -0.76596,0 -1.64623,-0.66082 -1.95616,-1.46849 z m -59.66765,-3.71402 c -1.53666,-1.12657 -9.85059,-5.6199 -18.47541,-9.98519 -8.62481,-4.36528 -18.09505,-9.79894 -21.04497,-12.07479 -8.65141,-6.67451 -15.88849,-16.76246 -14.54223,-20.27077 0.71697,-1.86839 4.36292,-3.48674 7.85522,-3.48674 1.84042,0 2.43902,-0.61312 2.6849,-2.75 0.28246,-2.4549 0.74566,-2.76812 4.31642,-2.91888 2.2,-0.0929 4.75175,-0.20538 5.67054,-0.25 1.00444,-0.0488 1.92828,-1.25454 2.31691,-3.02396 0.51981,-2.36669 1.56322,-3.2878 5.32945,-4.7048 2.57571,-0.96907 5.27112,-2.56979 5.9898,-3.55715 0.87345,-1.19998 2.60785,-1.79521 5.23095,-1.79521 3.36628,0 4.01471,-0.36042 4.56047,-2.53491 C 351.69105,362.11052 360,359.04823 360,363 c 0,1.25926 -0.66667,2 -1.8,2 -2.62812,0 -4.2,1.99435 -4.2,5.32883 l 0,2.92883 -5,-0.66327 c -4.85926,-0.64461 -5,-0.59193 -5,1.87117 0,2.25637 -0.41144,2.53793 -3.75,2.56624 -3.86245,0.0328 -7.25,1.82159 -7.25,3.82844 0,2.47517 -4.02449,5.13976 -7.76287,5.13976 -2.94309,0 -3.97793,0.49019 -4.75,2.25 -0.67359,1.53534 -2.33705,2.54922 -5.23713,3.19206 -2.3375,0.51813 -4.25,1.4815 -4.25,2.14081 0,2.4021 6.79093,11.01202 11.58358,14.68631 2.70403,2.07304 12.34142,7.59079 21.41642,12.26166 19.10111,9.83126 20.2732,10.61862 19.83018,13.32093 -0.32995,2.01259 -0.33217,2.01256 -3.12411,-0.0343 z m 67.18466,-45.26009 c -0.28146,-0.28146 0.42622,-6.48452 1.57263,-13.78457 1.86086,-11.84954 2.29628,-13.27283 4.06051,-13.27283 2.30021,0 2.28158,0.81004 -0.38636,16.79475 -1.22953,7.3666 -2.12114,10.271 -3.21791,10.48222 -0.83442,0.16069 -1.74741,0.0619 -2.02887,-0.21957 z M 691.4508,343.14946 C 691.11965,341.14226 690.46145,338.375 689.98815,337 689.17685,334.64311 686,320.74496 686,319.55259 686,319.24867 686.86968,319 687.93261,319 c 2.20506,0 2.21725,0.0326 5.04141,13.5 1.15337,5.5 2.31867,10.73172 2.58955,11.62604 0.31469,1.03893 -0.23018,1.81502 -1.50908,2.14946 -1.66539,0.43551 -2.10272,-0.0896 -2.60369,-3.12604 z M 435.60075,339.16302 C 434.58517,337.51977 439.3179,311 440.62674,311 c 2.2528,0 2.52356,1.90601 1.38683,9.76224 C 439.92397,335.204 438.78101,340 437.42891,340 c -0.72098,0 -1.54365,-0.37664 -1.82816,-0.83698 z M 680.43553,295.25 c -0.33142,-1.5125 -0.79962,-3.3744 -1.04045,-4.13755 C 678.75278,289.0771 675,271.73043 675,270.79682 675,270.35857 675.8681,270 676.9291,270 c 1.54506,0 2.16392,1.14472 3.10859,5.75 0.64872,3.1625 2.01253,9.10962 3.0307,13.21583 1.42056,5.72905 1.56977,7.64469 0.64141,8.23469 -2.02509,1.28699 -2.64591,0.91716 -3.27427,-1.95052 z M 443,287.87387 c 0,-1.9696 2.49484,-18.48826 3.56795,-23.62387 0.30764,-1.47223 1.19813,-2.25 2.5761,-2.25 1.78897,0 2.01892,0.43515 1.52774,2.89104 -0.31801,1.59007 -1.36774,7.89007 -2.33273,14 C 446.86069,288.25153 446.30245,290 444.79227,290 443.63122,290 443,289.25119 443,287.87387 z M 669.66667,248.33333 C 668.32149,246.98816 669.05294,245 670.89301,245 c 2.37685,0 3.50371,2.63379 1.46206,3.41724 -1.88881,0.7248 -1.8794,0.7251 -2.6884,-0.0839 z"
     id="path3107"
     style="fill:#000000" />
  <text
     x="383.76184"
     y="371.36954"
     id="text3109"
     xml:space="preserve"
     style="font-size:32px;font-style:normal;font-variant:normal;font-weight:normal;font-stretch:normal;line-height:125%;letter-spacing:0px;word-spacing:0px;fill:#000000;fill-opacity:1;stroke:none;font-family:cmr10;-inkscape-font-specification:cmr10"><tspan
       x="383.76184"
       y="371.36954"
       id="tspan3111">N</tspan></text>
  <text
     x="783.71613"
     y="371.36954"
     id="text3113"
     xml:space="preserve"
     style="font-size:32px;font-style:normal;font-variant:normal;font-weight:normal;font-stretch:normal;line-height:125%;letter-spacing:0px;word-spacing:0px;fill:#000000;fill-opacity:1;stroke:none;font-family:cmr10;-inkscape-font-specification:cmr10"><tspan
       x="783.71613"
       y="371.36954"
       id="tspan3115">N</tspan></text>
  <text
     x="348.13837"
     y="1061.9789"
     id="text3117"
     xml:space="preserve"
     style="font-size:32px;font-style:normal;font-variant:normal;font-weight:normal;font-stretch:normal;line-height:125%;letter-spacing:0px;word-spacing:0px;fill:#000000;fill-opacity:1;stroke:none;font-family:cmr10;-inkscape-font-specification:cmr10"><tspan
       x="348.13837"
       y="1061.9789"
       id="tspan3119">Pog</tspan></text>
  <text
     x="876.01331"
     y="1095.9832"
     id="text3121"
     xml:space="preserve"
     style="font-size:32px;font-style:normal;font-variant:normal;font-weight:normal;font-stretch:normal;line-height:125%;letter-spacing:0px;word-spacing:0px;fill:#000000;fill-opacity:1;stroke:none;font-family:cmr10;-inkscape-font-specification:cmr10"><tspan
       x="876.01331"
       y="1095.9832"
       id="tspan3123">Pog</tspan></text>
  <text
     x="404.81207"
     y="754.56409"
     id="text3125"
     xml:space="preserve"
     style="font-size:32px;font-style:normal;font-variant:normal;font-weight:normal;font-stretch:normal;line-height:125%;letter-spacing:0px;word-spacing:0px;fill:#000000;fill-opacity:1;stroke:none;font-family:cmr10;-inkscape-font-specification:cmr10"><tspan
       x="404.81207"
       y="754.56409"
       id="tspan3127">A</tspan></text>
  <text
     x="805.57599"
     y="754.56409"
     id="text3129"
     xml:space="preserve"
     style="font-size:32px;font-style:normal;font-variant:normal;font-weight:normal;font-stretch:normal;line-height:125%;letter-spacing:0px;word-spacing:0px;fill:#000000;fill-opacity:1;stroke:none;font-family:cmr10;-inkscape-font-specification:cmr10"><tspan
       x="805.57599"
       y="754.56409"
       id="tspan3131">A</tspan></text>
  <text
     x="431.52963"
     y="578.53687"
     id="text3133"
     xml:space="preserve"
     style="font-size:32px;font-style:normal;font-variant:normal;font-weight:normal;font-stretch:normal;line-height:125%;letter-spacing:0px;word-spacing:0px;fill:#000000;fill-opacity:1;stroke:none;font-family:cmr10;-inkscape-font-specification:cmr10"><tspan
       x="431.52963"
       y="578.53687"
       id="tspan3135">10</tspan></text>
  <text
     x="801.52789"
     y="578.53687"
     id="text3137"
     xml:space="preserve"
     style="font-size:32px;font-style:normal;font-variant:normal;font-weight:normal;font-stretch:normal;line-height:125%;letter-spacing:0px;word-spacing:0px;fill:#000000;fill-opacity:1;stroke:none;font-family:cmr10;-inkscape-font-specification:cmr10"><tspan
       x="801.52789"
       y="578.53687"
       id="tspan3139">-8.5</tspan></text>
</svg>
