<?xml version="1.0" encoding="UTF-8" standalone="no"?>
<!-- Created with Inkscape (http://www.inkscape.org/) -->

<svg
   xmlns:dc="http://purl.org/dc/elements/1.1/"
   xmlns:cc="http://creativecommons.org/ns#"
   xmlns:rdf="http://www.w3.org/1999/02/22-rdf-syntax-ns#"
   xmlns:svg="http://www.w3.org/2000/svg"
   xmlns="http://www.w3.org/2000/svg"
   version="1.1"
   width="1008"
   height="1228"
   id="svg3258">
  <defs
     id="defs3260" />
  <metadata
     id="metadata3263">
    <rdf:RDF>
      <cc:Work
         rdf:about="">
        <dc:format>image/svg+xml</dc:format>
        <dc:type
           rdf:resource="http://purl.org/dc/dcmitype/StillImage" />
        <dc:title></dc:title>
      </cc:Work>
    </rdf:RDF>
  </metadata>
  <g
     transform="translate(473,117.63782)"
     id="layer1">
    <path
       d="m 435.18576,918.29928 c -5.67283,-2.7061 -10.0444,-5.3568 -9.7146,-5.8904 0.73787,-1.1939 2.79851,-0.4418 13.41798,4.8976 4.46097,2.2429 8.11086,4.523 8.11086,5.0669 0,1.4784 -0.63039,1.261 -11.81424,-4.0741 z M 403.5,902.82498 c -3.3,-1.7993 -7.23234,-3.5741 -8.73853,-3.944 -3.23492,-0.7946 -4.46207,-2.3127 -2.48322,-3.0721 1.6914,-0.649 20.72175,8.1218 20.72175,9.5504 0,1.7308 -3.28431,0.8547 -9.5,-2.5343 z M 376,889.63328 c -0.825,-0.314 -1.725,-0.8707 -2,-1.2371 -0.275,-0.3663 -4.22546,-2.4009 -8.77879,-4.5212 -5.70878,-2.65844 -7.95732,-4.17669 -7.24323,-4.89078 1.29439,-1.29439 21.02202,8.17258 21.02202,10.08808 0,1.3696 -0.58737,1.4794 -3,0.561 z m -39.2146,-19.79326 c -4.79303,-2.46281 -9.35043,-4.47784 -10.12756,-4.47784 -0.77712,0 -1.96873,-0.66968 -2.64802,-1.48817 -0.99439,-1.19816 -0.94639,-1.59894 0.24632,-2.05663 C 326.21311,861.06643 346,871.2407 346,872.99792 c 0,0.75034 -0.1125,1.35429 -0.25,1.3421 -0.1375,-0.0122 -4.17157,-2.03718 -8.9646,-4.5 z m -28.91981,-7.98925 c -1.44892,-0.78723 -2.91122,-2.53425 -3.24955,-3.88226 -0.43144,-1.719 -1.73515,-2.80879 -4.36559,-3.64926 -5.80229,-1.85393 -25.68328,-12.97159 -34.75045,-19.43282 -1.65,-1.17578 -4.6875,-3.00207 -6.75,-4.05842 -2.0625,-1.05635 -3.76422,-2.38081 -3.78161,-2.94323 -0.0598,-1.93313 -9.16442,-6.69022 -11.62334,-6.07307 C 240.81667,822.4463 221,813.17106 221,811.35306 c 0,-0.54498 0.24581,-0.99088 0.54624,-0.99088 1.29022,0 16.06,7.33171 18.26699,9.06773 2.37287,1.8665 4.18677,1.79067 4.18677,-0.17502 0,-0.54409 -1.32275,-1.54543 -2.93944,-2.2252 -3.20759,-1.34869 -4.38585,-2.35575 -23.56056,-20.13714 -15.69161,-14.55138 -21.80575,-19.69276 -31,-26.0679 C 155.72645,749.4868 124.79132,728.98738 111.10023,720.86039 95.63053,711.6776 62.26164,694.36218 60.03502,694.36218 59.46576,694.36218 59,693.94514 59,693.43542 c 0,-0.95903 -1.6612,-1.9229 -13.5,-7.83297 -3.85,-1.92197 -7.675,-4.05906 -8.5,-4.7491 -0.825,-0.69003 -2.52265,-1.56638 -3.77255,-1.94743 -1.2499,-0.38106 -7.67889,-3.80928 -14.28665,-7.61828 -6.60775,-3.80901 -12.19883,-6.92546 -12.42462,-6.92546 -0.22579,0 -7.0718,-3.20332 -15.21335,-7.1185 -63.05153,-30.3207 -72.16102,-34.20927 -108.80283,-46.44471 -20.72814,-6.92154 -54.56993,-15.43679 -61.34978,-15.43679 -1.24464,0 -2.15022,-0.63174 -2.15022,-1.5 0,-1.95693 0.002,-1.95676 17.5,1.4724 18.22536,3.57173 23.91918,5.02444 33,8.41957 3.85,1.43943 16.9,5.94622 29,10.01508 25.66742,8.63117 37.36857,13.62727 77.72456,33.18646 16.34851,7.92357 29.94834,14.40649 30.22184,14.40649 0.59504,0 43.70349,23.81783 51.5536,28.48385 3.025,1.79803 16.80708,8.96534 30.62684,15.92737 25.29259,12.74173 29.34828,15.23712 74.87316,46.06798 30.36492,20.56407 36.16455,25.02871 54.4755,41.93613 19.3776,17.89231 37.38529,32.58467 39.93741,32.58467 0.44665,0 2.44501,1.29769 4.44081,2.88375 4.51409,4.52309 13.60201,9.43279 15.21771,10.56411 1.67919,1.08929 9.0756,5.08023 11.14381,6.20259 2.10373,1.14164 5.96894,3.07693 6.88973,3.6593 1.17901,0.74569 6.41282,3.89139 7.19094,3.46129 0.5131,-0.28361 -3.03064,-3.88823 -3.42091,-4.48524 -0.32779,-0.50143 -8.35186,-11.61156 -13.21247,-19.125 -10.283,-15.89527 -15.16003,-24.34562 -15.16869,-26.28253 -0.003,-0.75805 -0.74255,-2.72827 -1.64258,-4.37827 -4.52201,-8.29008 -7.78378,-40.03698 -5.31086,-51.69091 2.80964,-13.24081 15.48851,-34.16131 37.45939,-61.80909 20.29274,-25.53603 30.35892,-40.63064 39.01206,-58.5 3.46234,-7.15 9.65584,-19.975 13.76332,-28.5 4.10748,-8.525 10.82953,-20.56034 14.93789,-26.7452 l 7.46974,-11.24521 9.25041,-40.75479 c 5.08772,-22.41514 9.72987,-42.03137 10.31588,-43.59162 0.58601,-1.56025 4.34005,-6.40348 8.3423,-10.76273 5.78437,-6.30031 8.50941,-10.43575 13.28653,-20.16318 5.21873,-10.62666 14.55004,-34.92327 16.47014,-42.88452 0.37971,-1.57439 2.0772,-3.49612 4.18848,-4.74181 5.85389,-3.45388 7.78652,-3.55142 11.32767,-0.57175 4.12819,3.47365 4.97997,5.18039 7.15777,14.34221 3.63136,15.2769 4.91352,22.99639 6.99561,42.1186 1.81456,16.66513 1.95437,20.66302 0.96166,27.5 -1.30093,8.95976 -3.07442,13.90795 -6.16319,17.1958 -1.59321,1.69589 -2.26942,4.18917 -2.85146,10.51364 -0.41964,4.55981 -1.96007,12.77652 -3.4232,18.25937 -1.46312,5.48284 -2.43036,10.84781 -2.14941,11.92215 0.71258,2.72493 -1.77942,19.89736 -5.91067,40.73041 -3.44234,17.35903 -7.81125,33.55908 -15.45276,57.29929 -4.16735,12.94692 -8.96977,30.1809 -14.23376,51.07934 -3.15426,12.52262 -3.26754,13.66099 -3.08494,31 0.10425,9.9 0.54968,25.2 0.98985,34 0.89479,17.88933 0.0403,35.06271 -2.17473,43.70895 -1.88164,7.34475 -5.08491,12.37622 -11.39168,17.89322 -2.76612,2.41974 -6.58714,6.59064 -8.49115,9.26867 -1.90401,2.67803 -6.85287,8.37961 -10.99747,12.67019 -6.40107,6.62651 -8.99931,8.49891 -17.25715,12.43621 -13.01817,6.207 -18.60409,7.52276 -31.93711,7.52276 -10.92457,0 -11.15052,0.0464 -12.27761,2.52008 -0.63153,1.38604 -2.30805,2.96104 -3.72562,3.5 -3.21923,1.22395 -3.37361,1.21148 -6.5816,-0.53149 z m 39.64396,-9.8171 c 4.67698,-1.27308 6.96321,-2.29299 19.99045,-8.91795 5.09933,-2.59325 14.86697,-12.55344 21.37003,-21.7913 3.04871,-4.33081 3.28402,-5.15315 2.46795,-8.62475 -0.75866,-3.2274 -1.36101,-3.89038 -3.7888,-4.1702 -4.14013,-0.47717 -10.555,1.47023 -22.54918,6.84538 -5.775,2.58804 -12.65219,5.51068 -15.28266,6.49476 -2.63046,0.98408 -5.01951,2.17248 -5.30901,2.6409 -0.2895,0.46842 -1.33067,0.85167 -2.31371,0.85167 -0.98304,0 -3.09398,0.64995 -4.69098,1.44432 -4.09098,2.03493 -16.13226,3.80497 -20.9936,3.08601 -6.13455,-0.90726 -13.07262,-9.15424 -21.89893,-26.03033 -7.35192,-14.05701 -8.77965,-20.75913 -8.84057,-41.5 -0.0462,-15.71562 0.18538,-18.21375 2.27089,-24.5 5.1487,-15.51949 13.92229,-31.43482 37.76176,-68.5 12.79548,-19.89418 18.55604,-30.51929 24.66846,-45.5 3.14176,-7.7 8.79652,-20.3 12.56615,-28 3.76963,-7.7 7.15623,-15.01298 7.52576,-16.25106 0.36954,-1.23809 1.54141,-2.71642 2.60416,-3.28519 1.36965,-0.733 1.93228,-2.10035 1.93228,-4.69594 l 0,-3.66182 -2.86854,3.94701 c -4.08731,5.62398 -13.72279,23.69061 -21.03828,39.447 -14.46836,31.1625 -21.47952,42.40447 -46.14396,73.989 -31.96443,40.93267 -39.4043,55.12269 -39.3285,75.011 0.0397,10.42446 3.80971,33.27431 6.01757,36.47251 0.74894,1.08487 1.36171,2.72668 1.36171,3.64845 0,2.5976 4.6744,10.89767 16.8457,29.91191 11.61416,18.14389 15.20542,22.31601 17.35702,20.16441 1.86181,-1.86181 7.48856,-1.44305 9.50832,0.70764 0.98393,1.0477 2.91396,2.14207 4.28896,2.43193 4.11361,0.86717 21.13373,-0.20205 26.50955,-1.66536 z m -13.41421,-26.96541 c 1.87256,-0.844 7.67966,-3.10904 12.90466,-5.03343 5.225,-1.92438 13.49809,-5.37077 18.38465,-7.65865 17.03903,-7.97763 26.01404,-8.69097 28.1502,-2.23738 0.56916,1.71953 1.31166,3.40323 1.65,3.74156 1.03965,1.03965 7.67864,-6.31528 10.21041,-11.31148 5.00508,-9.87706 6.26787,-33.303 3.7921,-70.34745 -1.00644,-15.05926 -1.04912,-21.59066 -0.18295,-28 1.91207,-14.14864 10.98562,-48.50935 21.88043,-82.85925 3.93265,-12.39912 7.7957,-27.51125 10.60846,-41.5 4.13733,-20.57627 6.43586,-35.64985 5.26081,-34.5 -0.28102,0.275 -4.41033,10.4 -9.17624,22.5 -4.76592,12.1 -9.83451,24.7 -11.26355,28 -8.81328,20.35201 -18.64107,35.61293 -30.1063,46.75 -6.84959,6.65355 -8.47068,7.75 -11.45832,7.75 -4.73632,0 -7.78518,-2.68228 -11.5655,-10.17492 -5.79385,-11.48347 -6.28418,-20.28849 -2.30129,-41.32508 3.86772,-20.42828 3.90592,-20.33388 -2.8914,-7.14429 -3.36044,6.52063 -9.26527,19.57063 -13.12184,29 -8.98869,21.97748 -11.42346,26.31223 -39.26889,69.91246 -11.61708,18.18995 -21.02632,36.17182 -24.71465,47.23183 -2.07405,6.21932 -2.33728,8.89594 -2.36026,24 -0.0308,20.2162 1.6713,28.94663 7.63197,39.14686 2.11319,3.61621 3.84216,6.92552 3.84216,7.35402 0,0.99733 8.4314,12.61041 11.87424,16.35511 2.56163,2.78623 2.82347,2.84412 10.7211,2.37031 4.45243,-0.26713 9.62743,-1.17622 11.5,-2.02022 z m 60.53491,-184.89134 c 14.62419,-14.27431 23.80188,-30.69917 38.73088,-69.31474 4.67793,-12.1 9.65324,-24.58418 11.05623,-27.74263 3.6614,-8.24261 8.49838,-27.70175 8.81331,-35.45589 0.26889,-6.62076 0.26443,-6.63279 -2.75787,-7.43734 -1.66497,-0.44322 -5.18183,-3.05409 -7.81526,-5.80193 -6.00713,-6.26811 -8.87665,-6.89173 -21.5807,-4.69003 -11.19635,1.94041 -17.97514,2.08691 -21.53401,0.46538 -1.40321,-0.63934 -2.84237,-0.87135 -3.19815,-0.51557 -0.57929,0.57929 -8.24458,32.83709 -14.7751,62.17801 -1.34657,6.05 -3.17627,16.625 -4.06599,23.5 -0.88972,6.875 -2.77449,18.56201 -4.18837,25.97113 -2.98884,15.66235 -2.80658,25.08665 0.6631,34.28712 2.35834,6.25355 7.7111,12.74175 10.51194,12.74175 0.96476,0 5.52776,-3.68337 10.13999,-8.18526 z m 62.16164,-144.09321 c 5.57624,-5.93564 7.06791,-18.69883 4.75925,-40.72153 -3.68958,-35.19552 -8.87828,-55.6995 -14.55081,-57.4999 -1.9473,-0.61804 -7.92164,1.89926 -9.23082,3.88943 -0.40177,0.61076 -1.66122,4.03547 -2.79879,7.61047 -8.83994,27.78115 -18.12649,46.63595 -28.53908,57.94386 -7.10203,7.7127 -9.88243,12.89552 -9.25346,17.24899 0.24211,1.67586 1.42607,2.54623 4.7804,3.51426 3.8549,1.11248 6.18124,1.0086 17.18151,-0.76719 15.94388,-2.57385 18.90199,-1.98822 25.55313,5.05885 2.54583,2.69738 5.56883,5.08985 6.71778,5.3166 1.14895,0.22674 2.34806,0.47355 2.66469,0.54845 0.31662,0.0749 1.53891,-0.88913 2.7162,-2.14229 z M 196.70645,800.62942 c -9.0882,-4.43131 -11.42923,-6.51467 -8.45645,-7.52569 1.3566,-0.46136 4.27114,0.92163 6.70676,3.18245 0.84375,0.78319 4.34865,2.70017 7.78866,4.25995 5.78681,2.62387 8.04499,4.81605 4.96103,4.81605 -0.71145,0 -5.66145,-2.12974 -11,-4.73276 z M 162.0859,783.31808 c -7.16323,-3.45825 -10.09171,-5.35009 -9.38131,-6.06049 1.14373,-1.14373 21.29541,8.46634 21.29541,10.1555 0,1.52478 -0.94968,1.19836 -11.9141,-4.09501 z m -33.90833,-16.94857 c -5.67734,-2.73015 -10.04891,-5.40649 -9.7146,-5.94741 0.74287,-1.20199 2.49207,-0.54823 13.28703,4.96595 4.5375,2.3178 8.25,4.61018 8.25,5.09416 0,1.4369 -1.01984,1.08212 -11.82243,-4.1127 z M 93.0876,748.97031 c -5.72682,-2.90915 -9.91554,-5.59643 -9.30827,-5.97175 1.18216,-0.73061 22.22067,9.2975 22.22067,10.5916 0,1.53631 -2.6841,0.57598 -12.9124,-4.61985 z M 59.1877,732.31026 c -5.63285,-2.77856 -9.97713,-5.47978 -9.65394,-6.00271 0.34343,-0.55568 1.28961,-0.59446 2.27693,-0.0933 0.92912,0.47161 5.62681,2.77883 10.43931,5.12716 4.8125,2.34833 8.75,4.66369 8.75,5.14524 0,1.4796 -1.22218,1.04749 -11.8123,-4.17637 z M 26,716.05568 C 15.44541,710.80599 14.84397,710.42366 15.49171,709.37559 16.08418,708.41696 37,718.32332 37,719.56255 c 0,1.51391 -2.52242,0.70974 -11,-3.50687 z M -9.75,698.57836 c -5.0875,-2.56661 -9.25,-5.27772 -9.25,-6.0247 0,-0.74698 0.42811,-1.20815 0.95135,-1.02481 3.40402,1.1927 21.01012,10.47269 21.02741,11.08333 0.0471,1.66374 -3.93925,0.40044 -12.72876,-4.03382 z M -40,683.28765 c -3.575,-1.69013 -7.9625,-3.76605 -9.75,-4.61315 -1.7875,-0.84711 -3.25,-2.16393 -3.25,-2.92626 0,-0.76233 0.19667,-1.38606 0.43703,-1.38606 1.4288,0 20.56297,10.29643 20.56297,11.0653 0,1.43826 -0.99378,1.17245 -8,-2.13983 z m -35,-17.30744 c -12.07883,-6.00706 -13.26432,-6.75371 -12.28234,-7.73569 1.04571,-1.04571 21.28234,8.66391 21.28234,10.21136 0,1.51262 -2.19399,0.9091 -9,-2.47567 z m -36.5,-17.8002 c -11.41634,-5.71512 -10.89459,-5.37035 -10.09211,-6.66879 0.80613,-1.30435 21.59211,8.85306 21.59211,10.55133 0,1.82236 -0.31968,1.71443 -11.5,-3.88254 z m -34.75,-16.93184 c -8.6889,-4.47166 -11.75041,-6.88599 -8.73183,-6.88599 1.90007,0 20.98183,10.01215 20.98183,11.00912 0,1.76661 -2.32848,0.98289 -12.25,-4.12313 z m -34,-16.94683 c -5.3625,-2.72724 -9.75,-5.43457 -9.75,-6.01628 0,-1.47741 3.00154,-0.40834 13.25,4.71929 4.8125,2.40785 8.75,4.82339 8.75,5.36787 0,1.75299 -2.30451,0.98716 -12.25,-4.07088 z m -34.75844,-17.0402 c -6.69126,-3.34976 -9.85123,-5.43929 -9.20424,-6.08628 1.18655,-1.18655 22.4767,8.95112 21.64031,10.30441 -0.88193,1.427 -1.7434,1.13481 -12.43607,-4.21813 z M -199.5,589.29257 c -7.15,-2.14433 -25.825,-8.11982 -41.5,-13.27887 -22.95203,-7.5541 -28.76109,-9.13845 -29.84121,-8.13887 -1.0819,1.00122 -3.35362,0.25956 -11.75,-3.8361 C -288.31604,561.24622 -293,558.48681 -293,557.90672 c 0,-1.03802 -10.40985,-5.54454 -12.80762,-5.54454 -1.07175,0 -20.97303,-9.56266 -22.12571,-10.63151 -0.23834,-0.221 0.077,-0.91218 0.70079,-1.53595 0.8455,-0.8455 -1.9443,-4.08343 -10.9623,-12.72318 -22.08785,-21.16138 -29.37044,-33.74266 -37.70682,-65.14174 -4.01767,-15.1326 -5.65936,-26.23971 -7.53327,-50.96762 -0.85443,-11.275 -2.05359,-26.8 -2.6648,-34.5 -0.78796,-9.92668 -0.80723,-16.61857 -0.0662,-23 0.57477,-4.95 1.32354,-13.05 1.66393,-18 0.34039,-4.95 1.04824,-13.275 1.573,-18.5 2.0136,-20.0492 3.98235,-45.31527 5.1038,-65.5 1.29294,-23.27134 0.28661,-51.81777 -3.15509,-89.5 -1.02981,-11.275 -2.1682,-24.1 -2.52976,-28.5 -0.821,-9.99095 -4.10375,-27.43577 -6.18829,-32.88513 -0.86574,-2.26318 -2.86276,-5.77598 -4.43784,-7.80623 -4.8402,-6.23895 -3.21555,-8.2512 1.93012,-2.3906 6.74991,7.68772 9.85141,22.7523 13.60497,66.08196 3.96517,45.77228 4.85894,68.7762 3.63274,93.5 -1.05826,21.3378 -1.80536,30.84521 -6.12929,78 -3.19026,34.79151 -2.95294,48.60447 1.6408,95.5 2.82639,28.85348 7.11484,45.3945 18.84263,72.67812 3.65473,8.50238 23.35714,29.48093 38.08035,40.54684 16.77906,12.61108 40.37352,22.81838 88.03391,38.08473 24.3215,7.79055 32.12741,10.22651 49.25,15.36928 3.71689,1.11637 4.35537,2.86299 1,2.73562 -1.2375,-0.047 -8.1,-1.83986 -15.25,-3.9842 z m -49.75,-8.99123 c -8.8042,-4.47761 -11.9154,-7.00384 -8.5,-6.90182 2.07758,0.062 20.11219,9.54924 20.52888,10.79931 0.68674,2.06022 -2.07194,1.16637 -12.02888,-3.89749 z M -0.12756,541.70632 c -0.81147,-0.97906 -1.30969,-3.66352 -1.21893,-6.56774 0.12414,-3.97179 1.96493,-8.67885 9.61803,-24.59413 14.61408,-30.39123 17.15497,-38.69412 17.19316,-56.18227 0.0323,-14.7937 -1.53983,-22.3479 -5.14214,-24.70822 -2.41599,-1.58302 -2.56215,-1.5012 -9.46791,5.30019 -9.15648,9.01808 -20.61596,22.78287 -41.96577,50.40803 -16.27603,21.06005 -25.40428,31.17037 -30.57314,33.8624 -8.47324,4.41301 -15.19555,-4.12459 -10.58694,-13.44584 1.06504,-2.15411 4.03169,-8.02455 6.59256,-13.04543 2.56087,-5.02088 8.44445,-18.52088 13.07461,-30 8.19495,-20.31694 17.0065,-40.56682 25.61724,-58.87113 4.34274,-9.2316 8.98679,-20.83576 8.98679,-22.45544 0,-1.30705 -1.84292,-1.76082 -20.10362,-4.95 -9.01801,-1.57497 -18.98386,-3.84787 -22.14633,-5.0509 -7.51713,-2.85957 -22.63381,-12.83219 -28.80369,-19.00207 -14.09515,-14.09514 -26.99887,-41.93056 -30.5875,-65.98217 -1.34256,-8.99807 -1.40646,-13.01354 -0.43217,-27.15658 1.13156,-16.42583 1.916,-20.64804 10.5719,-56.90284 5.92271,-24.807 6.95571,-33.13564 6.94569,-56 -0.01,-22.84381 -0.92541,-30.07034 -6.05042,-47.76511 -2.81256,-9.71073 -2.759,-9.23489 -1.03953,-9.23489 0.81978,0 2.19038,2.86152 3.47258,7.25 6.97747,23.88128 8.78645,47.26085 5.63129,72.77986 -1.36926,11.07458 -7.71531,42.9591 -8.94686,44.95179 -1.88769,3.05434 -6.61182,29.89612 -7.64132,43.41674 -2.00542,26.33767 1.44691,44.32229 12.88083,67.10161 9.18027,18.28946 17.53695,27.86204 32.53739,37.27157 10.78033,6.76232 16.65831,8.77264 34.59263,11.83099 8.04052,1.37116 16.03807,2.74832 17.77233,3.06036 2.59262,0.46648 3.37384,0.15507 4.39429,-1.75166 3.07429,-5.74435 4.14033,-13.18596 4.92957,-34.41126 0.81306,-21.86591 0.83972,-22.0579 4.37401,-31.5 2.56742,-6.85906 4.43802,-10.24459 6.72893,-12.17843 l 3.17298,-2.67842 19.36284,0.22582 19.36283,0.22582 6.3387,6.82395 6.33871,6.82394 13.96111,-0.72286 c 11.43305,-0.59196 14.58781,-0.44921 17.42198,0.78837 4.91436,2.14592 21.20399,15.75896 22.79219,19.04715 1.94629,4.02957 2.60301,16.24936 1.22866,22.86208 -0.91342,4.39496 -3.08748,8.55841 -9.3992,18 -4.51601,6.75542 -10.22465,14.8261 -12.68587,17.93486 -6.52415,8.24064 -12.57841,19.43089 -14.45124,26.71063 -0.90033,3.4996 -3.16146,16.5496 -5.02473,29 -3.56899,23.848 -4.64867,27.88808 -11.51337,43.08193 -12.08764,26.75395 -28.7714,46.00402 -47.28416,54.55744 -8.69614,4.01787 -8.98474,4.06695 -10.82899,1.84186 z m 18.84913,-9.44535 c 11.72214,-7.93938 25.34841,-24.95637 34.23436,-42.75315 7.89674,-15.8156 9.91279,-22.9292 14.09558,-49.73605 3.75709,-24.07853 6.88737,-37.63575 8.98991,-38.93519 C 76.93186,400.28626 81,393.05004 81,392.01648 c 0,-0.23395 -2.8125,-0.38415 -6.25,-0.33377 -7.78989,0.11417 -11.98183,-1.93752 -20.36129,-9.96555 -3.36121,-3.22024 -7.2657,-6.91491 -8.67665,-8.21039 l -2.56537,-2.35541 -12.15696,1.79431 c -9.90989,1.46264 -13.15402,1.58517 -17.55114,0.66286 -8.55248,-1.7939 -12.21087,-3.99416 -15.17468,-9.12648 -2.48234,-4.29856 -4.01381,-6.06724 -5.28586,-6.10456 -0.28707,-0.008 -1.09676,3.02219 -1.79931,6.73469 -0.70255,3.7125 -2.33499,9 -3.62766,11.75 -1.29267,2.75 -3.92145,9.0807 -5.84173,14.06823 -1.92029,4.98753 -4.73295,11.51253 -6.25036,14.5 -5.55699,10.94062 -17.77217,38.97942 -26.10943,59.93177 -4.70536,11.825 -11.20892,26.53234 -14.45237,32.68299 -5.99152,11.36186 -6.70984,13.93004 -4.86201,17.38275 3.2492,6.07119 13.66247,-1.69981 28.67259,-21.39719 27.63384,-36.26313 41.01783,-52.42776 52.1518,-62.98679 4.93533,-4.68048 6.57556,-5.69132 8.38774,-5.16919 6.335,1.82527 9.2035,10.56077 9.1903,27.98743 -0.0133,17.51582 -4.81694,33.004 -18.81225,60.6553 -7.64346,15.10162 -9.74364,21.79233 -7.63719,24.33045 1.00191,1.20722 1.97219,1.06431 6.56531,-0.96698 2.96431,-1.31096 7.53995,-3.83995 10.16809,-5.61998 z m 62.9849,-143.51769 c 2.19344,-0.5881 11.74695,-12.2367 16.30534,-19.8811 1.31186,-2.2 3.60638,-5.575 5.09892,-7.5 3.92345,-5.06025 5.90107,-11.96202 5.81242,-20.28495 -0.11863,-11.13762 -1.35219,-13.77952 -9.29658,-19.91054 -15.63146,-12.06343 -16.11113,-12.23787 -29.35585,-10.67584 -13.15877,1.5519 -15.27341,0.94277 -22.72556,-6.54616 -5.55933,-5.58676 -6.79568,-6.35064 -11.05574,-6.83081 -2.63804,-0.29735 -6.11078,-0.0825 -7.7172,0.47755 -2.00679,0.69957 -5.58566,0.67417 -11.43696,-0.0811 C 3.58042,295.73476 1.61001,297.18909 -3.83414,313.13512 -6.90186,322.1205 -7,322.93605 -7,339.44408 c 0,9.36987 0.38114,16.80058 0.84698,16.51267 1.09984,-0.67973 5.47906,4.02168 7.52463,8.07826 1.20766,2.39491 2.96112,3.68211 7.15168,5.25 6.53567,2.44531 13.6652,2.60572 24.97671,0.56196 4.4,-0.79499 8.61748,-1.45429 9.37219,-1.46512 0.7547,-0.0108 5.0297,3.54568 9.5,7.90333 10.23744,9.97946 15.44923,13.05345 22.12781,13.0513 2.75,-8.9e-4 5.99291,-0.26783 7.20647,-0.5932 z M -351.5,530.19582 c -11.53335,-5.84065 -10.88134,-5.4076 -10.08401,-6.69772 0.36111,-0.58428 5.18613,1.25498 11.65369,4.44232 6.07058,2.99171 10.76176,5.88548 10.42485,6.43061 -0.88365,1.42978 -1.02077,1.38205 -11.99453,-4.17521 z m -34.25,-17.07373 c -5.6375,-2.78818 -10.25,-5.65002 -10.25,-6.35964 0,-1.33847 4.42855,0.36021 16,6.13721 6.65231,3.32114 6.59577,3.27542 5.43333,4.39386 -0.55887,0.53772 -5.04567,-1.13587 -11.18333,-4.17143 z m -34.75,-16.92627 c -11.57066,-5.85955 -10.88616,-5.3998 -10.05114,-6.75089 0.40471,-0.65484 4.78803,1.02542 11.64125,4.46244 6.04566,3.03201 10.72206,5.94972 10.39198,6.48378 -0.8696,1.40706 -1.03038,1.35077 -11.98209,-4.19533 z m -27.75,-13.90173 c -3.1373,-1.65623 -5.03001,-3.93191 -3.27024,-3.93191 2.05032,0 8.52024,3.49956 8.52024,4.60858 0,1.80592 -0.72422,1.71258 -5.25,-0.67667 z"
       id="path3288"
       style="fill:#000000" />
    <text
       x="278.04837"
       y="895.70477"
       id="text3290"
       xml:space="preserve"
       style="font-size:32px;font-style:normal;font-variant:normal;font-weight:normal;font-stretch:normal;line-height:125%;letter-spacing:0px;word-spacing:0px;fill:#000000;fill-opacity:1;stroke:none;font-family:cmr10;-inkscape-font-specification:cmr10"><tspan
         x="278.04837"
         y="895.70477"
         id="tspan3292">Me</tspan></text>
  </g>
</svg>
