<?xml version="1.0" encoding="UTF-8" standalone="no"?>
<!-- Created with Inkscape (http://www.inkscape.org/) -->

<svg
   xmlns:dc="http://purl.org/dc/elements/1.1/"
   xmlns:cc="http://creativecommons.org/ns#"
   xmlns:rdf="http://www.w3.org/1999/02/22-rdf-syntax-ns#"
   xmlns:svg="http://www.w3.org/2000/svg"
   xmlns="http://www.w3.org/2000/svg"
   version="1.1"
   width="1015"
   height="1228"
   id="svg3179">
  <defs
     id="defs3181" />
  <metadata
     id="metadata3184">
    <rdf:RDF>
      <cc:Work
         rdf:about="">
        <dc:format>image/svg+xml</dc:format>
        <dc:type
           rdf:resource="http://purl.org/dc/dcmitype/StillImage" />
        <dc:title></dc:title>
      </cc:Work>
    </rdf:RDF>
  </metadata>
  <g
     transform="translate(93.214287,138.78067)"
     id="layer1">
    <path
       d="m 311.78571,1087.8685 c 0,-0.7429 0.41314,-2.6554 0.91809,-4.25 1.12171,-3.5422 8.58784,-29.4942 18.0309,-62.6746 7.35363,-25.83867 7.89913,-28.38207 5.80101,-27.04757 -0.6875,0.4373 -13.4,1.0577 -28.25,1.3787 l -27,0.5836 -10,3.6266 c -29.42087,10.66977 -36.78286,13.09267 -44.96233,14.79727 -6.91885,1.4419 -9.13844,1.5906 -9.73469,0.6523 -1.36604,-2.1498 -0.93929,-2.3762 7.6658,-4.0669 4.65784,-0.9152 14.89534,-3.96 22.75,-6.7661 7.85467,-2.8062 18.78122,-6.71627 24.28122,-8.68907 l 10,-3.5871 28,-0.598 c 15.4,-0.329 28.24875,-0.245 28.55277,0.1867 0.30402,0.4316 1.07825,-0.6732 1.7205,-2.4551 1.78684,-4.9576 10.22673,-34.9528 10.22673,-36.3455 0,-0.6758 -2.24887,-1.711 -4.99749,-2.3004 -7.94601,-1.7042 -17.49318,-6.5374 -22.89615,-11.5913 -8.25451,-7.7211 -19.86164,-29.5879 -24.74825,-46.6235 -2.29542,-8.0023 -2.54825,-10.3571 -2.11865,-19.7329 0.39358,-8.5895 1.07195,-12.21741 3.51144,-18.77879 6.08516,-16.36696 16.5005,-31.22469 36.19111,-51.62745 l 12.77793,-13.24006 10.47211,-20.55008 c 5.75967,-11.30255 11.31513,-23.36436 12.34547,-26.80404 2.11442,-7.05872 5.99264,-11.00764 19.19196,-19.54189 l 7.22947,-4.67433 -0.22947,-50.06245 -0.22948,-50.06245 -21.5,-8.41931 c -38.14851,-14.93879 -56.65368,-20.74764 -79,-24.79841 -18.06851,-3.27533 -26.89703,-3.79815 -61.9939,-3.67125 -38.82503,0.14038 -47.2775,-0.3328 -46.80352,-2.6201 0.2529,-1.22042 6.35929,-1.42064 40.79742,-1.3377 50.47972,0.12158 63.81686,1.39785 90.25689,8.63691 19.34273,5.29589 26.57538,7.82927 65.09189,22.79975 6.51683,2.53294 12.25433,4.60535 12.75,4.60535 0.5224,0 0.90122,-20.11123 0.90122,-47.84501 0,-47.02852 -0.0351,-47.87681 -2.05854,-49.70796 -1.41641,-1.28184 -2.46821,-1.56413 -3.37189,-0.90499 -20.2189,14.74758 -33.46325,19.18083 -73.06957,24.45839 -8.8,1.1726 -28.1903,4.12015 -43.08954,6.5501 -33.87807,5.52524 -54.17035,8.0775 -71.16046,8.95018 -12.70051,0.65235 -13.25,0.59975 -13.25,-1.26841 0,-1.78795 1.01212,-2.0066 12.25,-2.6464 20.23154,-1.15184 30.76207,-2.42594 63.75,-7.71322 37.95713,-6.08373 40.21202,-6.42206 55.69993,-8.35733 14.02986,-1.75307 35.24766,-6.3632 43.36031,-9.42118 7.03764,-2.65276 15.39416,-7.67185 21.88316,-13.14345 4.92781,-4.15519 5.10511,-4.2168 7.05571,-2.45152 1.10049,0.99593 2.02854,1.62853 2.06234,1.40579 0.0338,-0.22275 0.32123,-54.0162 0.63875,-119.54102 l 0.57731,-119.13603 -2.38876,-1.4658 c -1.31381,-0.80618 -5.98875,-3.57697 -10.38875,-6.15731 -4.4,-2.58033 -12.5,-7.61685 -18,-11.19226 -5.5,-3.5754 -14.13617,-8.53772 -19.19148,-11.02737 -6.63812,-3.26915 -9.03594,-4.93196 -8.63157,-5.98572 0.64974,-1.69319 2.31301,-1.32991 10.32305,2.25472 5.82535,2.60694 8.84738,4.41639 26.68818,15.97972 6.15351,3.98832 13.35351,8.40438 16,9.81346 l 4.81182,2.56196 0.26525,-29.74374 c 0.14589,-16.35906 0.0475,-30.31116 -0.21862,-31.00467 -0.26612,-0.69351 -1.61694,-1.26093 -3.00183,-1.26093 -1.92298,0 -2.85682,0.81101 -3.95202,3.43219 -1.30941,3.13387 -1.74958,3.40286 -5.06415,3.0948 -2.67196,-0.24833 -3.92889,0.14106 -4.76212,1.47529 -0.85137,1.36325 -1.94062,1.68145 -4.39339,1.28342 -1.79375,-0.29109 -4.8615,-0.22906 -6.81724,0.13784 -3.44252,0.64582 -3.55588,0.8091 -3.55588,5.12177 0,4.09665 -0.20292,4.45469 -2.52475,4.45469 -1.74666,0 -2.80668,0.74152 -3.43955,2.4061 -0.74411,1.95716 -2.1855,2.69446 -7.72525,3.95161 -13.21289,2.99843 -15.31045,3.13329 -15.31045,0.98435 0,-1.60738 1.43145,-2.20289 8.94671,-3.722 7.10984,-1.43716 9.26015,-2.28683 10.47336,-4.13842 0.83966,-1.28147 2.43864,-2.61941 3.55329,-2.97318 1.39472,-0.44267 2.02664,-1.50932 2.02664,-3.42086 0,-4.2332 3.15656,-6.39897 10.05345,-6.89785 3.28818,-0.23784 6.22288,-0.82784 6.52155,-1.3111 0.29867,-0.48326 2.08544,-0.87865 3.9706,-0.87865 2.99429,0 3.61895,-0.45807 4.94167,-3.62377 l 1.51411,-3.62378 5.49634,0.4558 c 6.19661,0.51387 6.88106,0.0518 10.45804,-7.06008 1.33314,-2.65061 2.81623,-8.8158 3.79383,-15.7709 1.71947,-12.23325 1.79062,-9.82858 -2.30403,-77.87727 -4.45076,-73.96705 -10.16181,-123.67159 -18.49887,-161 -3.72576,-16.681743 -3.93633,-17.436707 -11.15651,-40 -6.25944,-19.56096 -9.52313,-27.37737 -13.027,-31.19912 -2.10228,-2.293 -1.76491,-5.79499 0.48735,-5.05877 0.68721,0.22464 2.87584,2.72642 4.86362,5.55951 4.35824,6.21158 15.91289,40.559908 21.40306,63.624518 6.2032,26.060083 13.46362,76.701992 15.92442,111.073862 0.31501,4.4 1.0071,13.175 1.53797,19.5 0.53087,6.325 1.66796,23.65 2.52687,38.5 0.85891,14.85 1.99632,33.36591 2.52759,41.14648 1.31729,19.29214 1.20965,28.34323 -0.45613,38.35352 -1.73713,10.43908 -3.70773,16.05198 -7.3967,21.0682 -2.73169,3.71452 -2.80113,4.10053 -2.00391,11.13983 0.45421,4.01058 1.07442,8.36713 1.37825,9.6812 0.30384,1.31408 5.36563,7.39086 11.24843,13.50395 9.04033,9.39423 25.81254,27.75612 42.57184,46.60682 2.2004,2.475 8.29686,9.1635 13.54768,14.86333 11.18849,12.14525 10.26672,10.90532 17.57149,23.63667 3.15569,5.5 6.45489,10.81497 7.33154,11.81105 1.38485,1.5735 1.40239,1.9322 0.13369,2.73469 -2.05403,1.29922 -2.93786,1.17616 -3.58049,-0.49852 -0.30662,-0.79903 -2.88,-2.91285 -5.71862,-4.69738 -2.83862,-1.78453 -8.59707,-6.05109 -12.79655,-9.48125 -9.51582,-7.77257 -23.09608,-16.66977 -44.92224,-29.43112 -20.024,-11.70765 -26.47813,-15.06835 -27.32055,-14.22593 -0.34198,0.34199 -0.62179,40.59679 -0.62179,89.45513 0,70.3987 0.2594,88.83383 1.25,88.83576 18.48171,0.0359 83.16563,8.53373 84.82452,11.1438 0.71911,1.13143 0.91995,0.48656 12.50315,-40.14623 5.25242,-18.425 12.9614,-45.425 17.13107,-60 4.16967,-14.575 7.93161,-28.02027 8.35988,-29.87837 0.75116,-3.25906 0.49987,-3.64219 -7.11523,-10.8482 -16.85257,-15.94723 -38.52514,-41.13607 -48.50642,-56.37637 -6.08919,-9.29749 -8.24698,-14.19322 -18.38099,-41.70402 -8.25354,-22.40586 -9.08319,-25.33883 -10.60762,-37.5 -1.92465,-15.3539 -2.05094,-42.4509 -0.39706,-85.19304 1.16302,-30.05661 1.00253,-33.92605 -2.61304,-63 -3.86969,-31.1174 -11.04853,-67.48966 -22.30298,-113 -4.04162,-16.343339 -5.99225,-22.193996 -10.66892,-32 -10.5059,-22.02866 -16.47636,-34.78992 -16.47636,-35.21655 0,-0.2324 0.97385,-0.27875 2.16411,-0.103 1.75963,0.25983 4.26542,4.80515 13.40712,24.31955 11.17797,23.861145 11.27513,24.133069 16.79225,47 12.04463,49.92156 18.81147,86.13906 22.70093,121.5 2.01954,18.36059 2.07999,21.25294 1.03466,49.5 -2.18744,59.10936 -1.06982,89.29627 3.808,102.85442 8.85846,24.62252 17.55038,47.62346 19.2821,51.02516 3.2497,6.38352 11.11953,17.69407 19.94984,28.67198 7.84929,9.7583 38.39634,41.94844 39.80725,41.94844 0.39032,0 3.26337,-9.1125 6.38454,-20.25 8.28531,-29.56502 8.67781,-30.75 10.1854,-30.75 0.75117,0 1.57861,0.34438 1.83875,0.7653 0.44788,0.72469 -6.21228,25.77979 -11.7585,44.2347 -1.40497,4.675 -2.56393,9.24625 -2.57547,10.15833 -0.0115,0.91208 1.92266,4.06208 4.29823,7 2.37556,2.93792 4.58074,6.01667 4.9004,6.84167 0.31966,0.825 6.53158,8.475 13.80426,17 7.27268,8.525 14.60162,17.525 16.28654,20 4.86174,7.14147 18.39335,23.2785 32.70322,39 16.28457,17.891 23.7136,27.03076 30.86469,37.97208 6.47179,9.90199 7.34647,13.91989 5.99276,27.52792 -1.91663,19.26665 -7.24625,32.03184 -17.78713,42.60264 -9.07694,9.10271 -15.59295,12.10072 -34.58395,15.91203 -12.56786,2.52224 -21.03938,5.82773 -25.8993,10.1056 -5.74462,5.05662 -8.03787,9.40569 -10.60425,20.11059 -2.23122,9.30685 -2.68493,26.45501 -0.96138,36.33548 2.92237,16.75286 10.25469,32.39729 16.99802,36.26743 2.4032,1.37925 2.99116,2.51212 3.52616,6.79416 1.42833,11.43198 -8.38067,36.70711 -16.98044,43.75398 -4.78087,3.91756 -14.81217,8.89037 -20.32881,10.07758 -1.7875,0.38468 -3.25,1.08297 -3.25,1.55175 0,0.46878 1.38999,4.59552 3.08887,9.17054 6.01966,16.21073 4.92425,35.57993 -2.7454,48.54474 -3.14527,5.31677 -4.15081,6.2396 -7.96137,7.30649 -4.93771,1.38247 -8.59032,0.8789 -16.09607,-2.2191 -4.65736,-1.92233 -5.66294,-2.01756 -9.41959,-0.89204 -8.36215,2.50536 -20.82538,17.40141 -20.85667,24.92789 -0.005,1.29236 2.87674,13.89236 6.40469,28 10.51578,42.05074 13.08586,59.42544 12.04968,81.46064 l -0.69644,14.8104 -6.03435,7.9919 c -10.55775,13.9827 -22.8632,23.6657 -41.09119,32.3341 -8.51205,4.0479 -40.64923,15.9621 -45.14216,16.7355 -1.93237,0.3326 -2.00901,1.2314 -2.2666,26.58097 -0.25818,25.4072 -0.32931,26.2367 -2.25,26.2367 -1.92497,0 -1.9834,-0.7364 -1.9834,-25 0,-21.12497 -0.22383,-24.99997 -1.44405,-24.99997 -2.58623,0 -50.03645,10.1217 -50.72711,10.8207 -0.59072,0.5979 -4.14261,12.65447 -15.81392,53.67927 -4.00427,14.075 -11.01808,38.4759 -11.71324,40.75 -0.62529,2.0456 -4.30168,2.3868 -4.30168,0.3992 z m 60.24512,-105.22457 23.74512,-4.9246 0.005,-36.809 c 0.003,-26.1821 -0.308,-36.6157 -1.07886,-36.1392 -0.60202,0.372 -0.95236,2.7319 -0.78816,5.309 0.46908,7.3621 -3.3217,16.5767 -12.29038,29.8755 -3.00805,4.4603 -5.73513,7.4204 -7.10893,7.7163 -1.22583,0.264 -6.00322,1.1571 -10.61642,1.9847 -4.61319,0.8275 -8.50634,1.6302 -8.65144,1.7837 -0.42845,0.4531 -10.46093,35.0509 -10.46093,36.0753 0,0.5153 0.7875,0.738 1.75,0.4949 0.9625,-0.2432 12.4353,-2.6581 25.49512,-5.3666 z m 46.92163,-12.7925 c 34.95813,-12.2104 53.1364,-23.8885 67.6708,-43.4729 l 3.96361,-5.3407 0.69883,-14.1593 c 1.05449,-21.3652 -2.50559,-44.0735 -13.47673,-85.96224 l -5.97237,-22.80303 2.65847,-6.64074 c 3.8101,-9.51746 13.60396,-19.41628 21.47405,-21.70418 5.97948,-1.73828 8.54699,-1.47086 15.31659,1.59533 8.43079,3.81859 13.33679,1.97996 17.51581,-6.56446 6.73289,-13.76605 6.72505,-28.94402 -0.024,-46.44484 l -3.08595,-8.00214 -7.70294,-2.52592 c -10.6767,-3.50106 -19.59233,-3.76551 -24.50883,-0.72695 -3.54073,2.1883 -6.69411,2.30613 -6.69411,0.25013 0,-0.51293 1.575,-1.86188 3.5,-2.99766 1.925,-1.13578 3.5,-2.46273 3.5,-2.94879 0,-0.48606 -2.3625,-3.22463 -5.25,-6.08572 -5.90642,-5.85239 -14.98476,-10.59972 -29.07515,-15.20424 -11.03786,-3.60701 -12.67483,-4.91852 -12.67483,-10.15483 0,-4.70296 -5.67429,-13.07231 -7.1161,-10.49595 -0.44006,0.78635 -2.58247,7.69087 -4.7609,15.34338 -2.17843,7.65251 -4.68695,15.33948 -5.57448,17.08216 -2.05831,4.04151 -4.46115,16.23544 -5.5252,28.03934 -0.63907,7.08935 -2.11104,12.9563 -6.39776,25.5 -3.06225,8.96068 -6.23076,19.44215 -7.04113,23.29215 -1.91952,9.11943 -4.08647,15.12774 -7.10565,19.70185 l -2.44343,3.70186 -0.5793,91.54819 c -0.57247,90.4699 -0.5562,91.5481 1.3816,91.5481 1.0785,0 8.87659,-2.4156 17.3291,-5.3679 z m -63.05157,-37.5948 c 2.13665,-7.4044 3.88482,-14.0011 3.88482,-14.6592 0,-0.8078 -2.25889,-1.2177 -6.95192,-1.2617 -8.66205,-0.081 -17.70244,-3.0623 -20.79656,-6.8581 -3.385,-4.1525 -8.74696,-14.9454 -11.05808,-22.2583 -6.52266,-20.6391 -4.93817,-39.34582 4.96965,-58.67259 5.40083,-10.53517 7.8224,-13.73983 11.81075,-15.63013 2.89824,-1.37363 7.04944,-8.90499 6.97758,-12.65917 -0.042,-2.19223 -1.62252,-0.90283 -11.59851,9.46189 -33.41024,34.71216 -41.27404,60.3209 -28.40445,92.5 2.28545,5.7145 10.67451,21.8393 14.62021,28.1018 4.29464,6.8163 15.43391,13.8476 25.28516,15.9603 3.64408,0.7815 5.16467,1.5902 5.20956,2.7708 0.10091,2.654 1.80039,-2.0626 6.05179,-16.7956 z m 22.63553,4.9522 c 5.87563,-8.3433 10.38065,-17.9753 11.00719,-23.534 0.45264,-4.0158 0.2657,-4.4876 -2.22829,-5.624 -2.36089,-1.0757 -3.87152,-0.8537 -11.376,1.6713 -4.75949,1.6014 -8.96623,3.1558 -9.34832,3.4544 -0.3821,0.2985 -2.25443,5.7178 -4.16074,12.0428 -4.86276,16.1343 -5.80928,19.9245 -5.21559,20.8851 0.28516,0.4613 4.17094,0.1087 8.63506,-0.7836 l 8.1166,-1.6225 z m -10.65837,-46.9895 c 3.22955,-11.275 7.11746,-24.8901 8.63979,-30.25588 1.72839,-6.09205 3.20059,-9.59177 3.9201,-9.3189 2.70667,1.02649 2.1035,-0.90857 -0.64319,-2.06347 -5.7492,-2.41735 -6.36883,-10.10043 -1.06031,-13.14711 2.36491,-1.35727 3.08538,-2.71064 4.04813,-7.60418 0.64415,-3.27418 2.70268,-10.45666 4.57451,-15.96107 1.87183,-5.50442 3.23326,-10.17809 3.02541,-10.38594 -0.20785,-0.20785 -3.21914,3.58534 -6.69176,8.42932 -13.90527,19.39655 -20.40459,26.47098 -29.56872,32.18519 -7.03543,4.38687 -11.03091,4.9367 -14.72996,2.02703 l -2.89303,-2.27566 0.59831,-11.89974 c 0.70751,-14.07159 0.25971,-14.14961 -6.75453,-1.17687 -10.26666,18.98806 -11.91932,37.69978 -5.15398,58.35408 3.02663,9.2403 9.17024,19.8631 12.74476,22.0369 3.96986,2.4142 13.97112,4.461 18.33664,3.7525 2.84314,-0.4614 3.52761,-0.2478 3.57888,1.1167 0.10917,2.9058 1.88097,-2.3491 8.02895,-23.8129 z m 7.62915,15.4152 c 4.46618,-1.9978 6.8137,-2.4679 10.33672,-2.0699 l 4.55821,0.515 1.14137,-5.4415 c 1.38468,-6.6015 -0.14958,-17.458 -4.70641,-33.303 -3.16166,-10.99367 -3.71842,-12.23721 -4.48119,-10.00893 -1.37664,4.02162 -14.57019,50.98273 -14.57019,51.86123 0,1.5577 1.39453,1.2772 7.72149,-1.5529 z m 20.2632,-58.6652 c -0.009,-21.82213 -0.36539,-34.69661 -0.93432,-33.79726 -0.50545,0.799 -2.14359,5.91783 -3.6403,11.37518 -2.30722,8.41259 -2.54547,10.40875 -1.56569,13.11826 1.60514,4.43893 1.46097,5.89592 -0.87758,8.8689 l -2.0332,2.58479 4.2832,16.54773 c 2.35576,9.1013 4.3957,16.5488 4.5332,16.5501 0.1375,0 0.24311,-15.8602 0.23469,-35.2477 z m -17.98469,19.25 c 0,-0.55 -0.45,-1 -1,-1 -0.55,0 -1,0.45 -1,1 0,0.55 0.45,1 1,1 0.55,0 1,-0.45 1,-1 z m -25.39932,-27.75302 c 7.51028,-4.61274 15.93947,-13.88226 27.5366,-30.28179 7.90749,-11.18201 13.56172,-16.93286 15.11811,-15.37646 1.34482,1.34481 2.13958,-39.73058 0.81702,-42.22531 -0.0398,-0.0751 -4.68491,-0.34286 -10.32241,-0.59498 -5.6375,-0.25212 -11.0375,-0.8013 -12,-1.22041 -1.17774,-0.51282 -1.75963,-0.31826 -1.77945,0.59498 -0.0162,0.74635 -4.90269,10.68125 -10.85886,22.07756 -8.80072,16.83896 -10.95535,21.80324 -11.50168,26.5 -0.36975,3.17869 -1.986,8.59488 -3.59167,12.03599 -3.43694,7.36569 -5.01834,15.03701 -5.01834,24.34377 0,9.29204 2.03742,10.02031 11.60068,4.14665 z m 39.00349,-31.97615 c -0.33229,-0.33229 -0.56864,0.25834 -0.52522,1.3125 0.048,1.16495 0.28494,1.4019 0.60416,0.60417 0.28887,-0.72187 0.25335,-1.58438 -0.0789,-1.91667 z m 1,-4 c -0.33229,-0.33229 -0.56864,0.25834 -0.52522,1.3125 0.048,1.16495 0.28494,1.4019 0.60416,0.60417 0.28887,-0.72187 0.25335,-1.58438 -0.0789,-1.91667 z m 1,-4 c -0.33229,-0.33229 -0.56864,0.25834 -0.52522,1.3125 0.048,1.16495 0.28494,1.4019 0.60416,0.60417 0.28887,-0.72187 0.25335,-1.58438 -0.0789,-1.91667 z m 10.6093,-35.02271 c 1.59282,-5.3434 1.59696,-5.83613 0.0589,-6.99812 -2.86027,-2.16083 -3.27237,-1.4367 -3.27237,5.75 0,3.85 0.3375,6.99916 0.75,6.99812 0.4125,-10e-4 1.52106,-2.58853 2.46347,-5.75 z m 8.3984,-30.02787 c 6.8081,-23.89384 9.29673,-33.64526 8.73029,-34.20868 -0.46936,-0.46685 -1.4538,0.63977 -5.77208,6.48843 -5.25183,7.11307 -9.36722,11.51246 -11.28425,12.06298 -2.88914,0.82968 -3.03601,1.6209 -3.12858,16.85451 -0.0779,12.81901 -0.058,12.93507 2.60655,15.22467 3.4273,2.94499 3.22043,3.32893 8.84807,-16.42191 z m -15.67687,0.72697 0.14464,-12.05278 -4.09232,2.30278 c -7.35766,4.14021 -16.66662,12.44407 -17.8925,15.96061 -1.71391,4.91654 0.18602,5.84217 11.99149,5.84217 l 9.70405,0 z m 14.17377,-30.44722 c 2.41457,-3.3 5.06538,-6.52064 5.89068,-7.15699 7.49582,-5.77961 8.08116,-6.8104 12.02251,-21.17201 2.11117,-7.69274 4.79236,-17.18972 5.9582,-21.1044 l 2.11972,-7.11759 -2.25192,-3.22451 c -6.9598,-9.96568 -8.16602,-10.9607 -20.34796,-16.78507 -6.6,-3.15556 -12.19283,-5.55251 -12.4285,-5.32657 -0.60727,0.5822 -1.0321,88.51941 -0.4378,90.62013 0.44201,1.56238 0.71645,1.51315 2.7876,-0.5 1.26353,-1.22814 4.27289,-4.93299 6.68747,-8.23299 z m 129.71075,-0.68645 c 10.92182,-4.53121 16.47846,-10.46975 21.42832,-22.90105 3.59815,-9.03655 5.75216,-17.49444 5.75216,-22.58629 0,-1.51528 -1.59571,-3.95466 -4.3262,-6.61351 -6.31859,-6.15282 -9.13411,-11.04949 -12.52819,-21.78867 -4.53419,-14.34658 -5.46353,-21.37068 -4.86863,-36.79794 1.15881,-30.05112 8.79038,-41.34563 32.20041,-47.65566 7.32127,-1.97341 8.02779,-2.38961 8.59001,-5.06035 0.33694,-1.60054 2.00487,-5.08878 3.70651,-7.75164 3.82696,-5.98871 3.24399,-8.71934 -2.15438,-10.091 -5.41723,-1.37645 -12.01521,0.65958 -27.98292,8.63508 -12.54352,6.26519 -16.63661,7.49624 -16.63661,5.00367 0,-1.2957 26.68446,-14.71695 33.24786,-16.72238 7.56876,-2.31262 14.08556,-1.4907 18.03889,2.2751 3.60097,3.43016 3.23831,7.4026 -1.23057,13.47934 -5.16281,7.02032 -3.90941,8.094 6.01232,5.15023 16.75061,-4.9699 28.71888,-17.67504 33.98916,-36.08182 2.38817,-8.34083 4.0104,-24.46591 3.0111,-29.93062 -1.50459,-8.22801 -14.07405,-24.72286 -43.20013,-56.69137 -10.33483,-11.34341 -19.01813,-21.85683 -25.34325,-30.68467 -2.1674,-3.025 -10.14728,-12.80484 -17.73306,-21.73297 -7.58577,-8.92814 -13.79232,-16.67498 -13.79232,-17.21521 0,-1.66077 -6.25121,-8.20538 -7.02352,-7.35316 -0.3994,0.44074 -5.99521,19.47634 -12.43513,42.30134 -6.43992,22.825 -13.66597,48.25 -16.05789,56.5 -7.97924,27.52131 -14.63919,50.84944 -18.98509,66.5 -2.36725,8.525 -5.46336,19.325 -6.88025,24 -1.41688,4.675 -2.5856,10.0975 -2.59714,12.05 -0.0115,1.9525 -0.5133,4.04232 -1.11503,4.64405 -0.60173,0.60173 -2.58716,5.97923 -4.41208,11.95 -2.96321,9.69508 -3.16702,11.09279 -1.90595,13.07077 2.25976,3.54439 1.76197,8.05641 -1.19073,10.79288 l -2.60281,2.41221 4.8035,8.79004 c 6.73727,12.32867 9.39152,17.63002 9.4077,18.79005 0.0354,2.53771 5.39242,12.14214 9.1158,16.3435 2.26972,2.56107 4.98664,6.4565 6.0376,8.6565 1.05097,2.2 3.39717,6.07911 5.21378,8.62024 7.03627,9.84254 17.18426,42.50482 16.39836,52.77965 -0.26651,3.48433 -0.16917,3.58225 5.72888,5.76289 8.41127,3.10983 13.21755,2.92696 22.31952,-0.84923 z m -32.49433,-4.56355 c 1.56915,-7.72845 -7.69003,-38.94718 -14.97322,-50.4845 -2.35524,-3.73093 -2.6776,-3.9261 -3.60316,-2.18151 -3.44947,6.50192 -8.50728,9.62987 -23.11836,14.2973 -11.38339,3.63636 -15.63045,6.23516 -15.63045,9.56436 0,3.12503 0.71741,3.54425 14.5,8.47313 14.85228,5.31141 21.56253,9.29343 28.72945,17.04872 5.02083,5.43302 5.97047,6.0325 9.55611,6.0325 3.5412,0 4.043,-0.30398 4.53963,-2.75 z m -52.54195,-38.59061 c 2.59422,-1.28733 7.64176,-3.13233 11.21676,-4.09998 12.58633,-3.40677 18.78529,-8.25771 19.66361,-15.38757 0.41179,-3.34281 -0.15774,-4.4047 -6.35564,-11.85019 -3.74439,-4.49809 -9.05797,-9.87146 -11.80797,-11.94083 -2.75,-2.06936 -6.94697,-5.25161 -9.3266,-7.07165 -2.37962,-1.82004 -4.6693,-3.30917 -5.08817,-3.30917 -0.41887,0 -2.6718,7.0875 -5.0065,15.75 -2.33471,8.6625 -4.83981,17.55 -5.5669,19.75 -2.77933,8.40966 -2.73123,8.86803 1.55935,14.85976 2.22139,3.10213 4.47909,5.64024 5.0171,5.64024 0.53801,0 3.10075,-1.05327 5.69496,-2.34061 z m -11.24057,-39.22976 5.12047,-17.92963 -3.08157,-4.36257 c -5.09205,-7.2088 -18.43566,-20.06494 -22.90107,-22.06446 -7.48425,-3.35129 -8.28725,-3.27144 -10.22076,1.01632 -1.5098,3.34812 -1.57156,4.43966 -0.47322,8.36257 0.69478,2.4815 1.54454,4.33969 1.88836,4.12931 0.34381,-0.21038 0.65488,1.05187 0.69126,2.80501 0.0394,1.89779 2.17406,6.92681 5.27578,12.42906 6.13309,10.87967 9.15808,18.17221 9.15808,22.07798 0,3.17248 6.496,12.44145 8.29833,11.84067 0.61813,-0.20604 3.42808,-8.44296 6.24434,-18.30426 z m -19.71105,2.92271 c -0.55394,-2.00621 -3.39482,-7.96871 -6.31306,-13.25 -2.91825,-5.28129 -5.89069,-11.62734 -6.60543,-14.10234 -0.71474,-2.475 -1.83446,-5.4 -2.48826,-6.5 -2.45737,-4.13448 -2.58908,-10.25443 -0.3177,-14.76269 3.29282,-6.53564 3.1661,-6.46728 10.37871,-5.59896 l 6.533,0.7865 10.80629,10.78757 c 5.94346,5.93317 11.72522,12.09925 12.84835,13.70241 l 2.04205,2.91483 0.70263,-3.91483 c 0.38644,-2.15316 1.20994,-5.36102 1.83,-7.12859 0.92987,-2.65075 0.84534,-3.52669 -0.48251,-5 -2.6987,-2.99436 -2.99633,-6.48362 -0.84946,-9.95857 1.07795,-1.74479 2.92191,-3.31979 4.0977,-3.5 1.58614,-0.24312 2.63051,-1.74691 4.04727,-5.82767 2.65308,-7.64181 5.13676,-17.13537 4.6185,-17.65363 -0.23781,-0.23781 -5.50776,-1.3157 -11.71099,-2.3953 -11.30655,-1.96777 -32.8769,-8.74855 -44.87653,-14.10722 -3.5243,-1.57385 -6.54365,-2.72571 -6.70966,-2.5597 -0.46279,0.46279 -0.74612,89.68996 -0.28615,90.11422 0.70308,0.64849 22.37302,11.49624 23.07302,11.55011 0.36817,0.0283 0.21617,-1.58993 -0.33777,-3.59614 z m 41.35935,-22.56928 c -3.28757,-6.16653 -6.37183,-11.34335 -6.85391,-11.50404 -0.48209,-0.1607 -1.58488,2.42672 -2.45066,5.74981 l -1.57413,6.04199 8.09386,6.34955 c 4.45163,3.49226 8.24425,5.95018 8.42805,5.46205 0.1838,-0.48812 -2.35565,-5.93284 -5.64321,-12.09936 z m -8.19097,-16.78306 c 0,-0.55 -0.47656,-1 -1.05902,-1 -0.58246,0 -0.7809,0.45 -0.44098,1 0.33992,0.55 0.81648,1 1.05902,1 0.24254,0 0.44098,-0.45 0.44098,-1 z m 11.4766,-51 c 7.93322,-26.3137 16.80641,-58.04648 16.90384,-60.45242 0.11823,-2.91965 0.0252,-2.97173 -8.38044,-4.69263 -10.88583,-2.22866 -14.46226,-2.83897 -20,-3.41297 -2.475,-0.25653 -5.175,-0.65863 -6,-0.89355 -0.825,-0.23492 -5.28968,-0.72012 -9.92152,-1.07823 -4.63183,-0.3581 -9.13183,-0.78324 -10,-0.94474 -0.86816,-0.1615 -5.85348,-0.6073 -11.07848,-0.99065 -5.225,-0.38336 -11.6375,-0.85443 -14.25,-1.04684 l -4.75,-0.34982 0,28.36583 c 0,15.6012 0.4178,29.46472 0.92844,30.80781 1.04225,2.74133 7.47463,5.69964 27.57156,12.68042 11.86317,4.12074 35.3835,9.33768 36.65921,8.13122 0.36257,-0.34289 1.40539,-3.09843 2.31739,-6.12343 z m 13.93295,-214.98885 c -1.4934,-2.74387 -4.55898,-7.14497 -6.81241,-9.78024 -3.51387,-4.10929 -49.75159,-55.08595 -66.74347,-73.58406 -3.10548,-3.38077 -6.03048,-5.77278 -6.5,-5.31558 -0.46952,0.4572 -0.99379,9.4572 -1.16504,20 -0.23804,14.65411 -0.003,19.57942 1,20.9125 0.72125,0.95908 9.86137,6.61123 20.31137,12.56034 24.78005,14.10711 41.46325,24.7244 52.26565,33.26218 4.80389,3.7968 9.09994,6.91012 9.54676,6.91849 0.44683,0.008 -0.40946,-2.22976 -1.90286,-4.97363 z"
       id="path3198"
       style="fill:#000000" />
    <text
       x="412.85715"
       y="217.07646"
       id="text3200"
       xml:space="preserve"
       style="font-size:32px;font-style:normal;font-variant:normal;font-weight:normal;font-stretch:normal;line-height:125%;letter-spacing:0px;word-spacing:0px;fill:#000000;fill-opacity:1;stroke:none;font-family:cmr10;-inkscape-font-specification:cmr10"><tspan
         x="412.85715"
         y="217.07646"
         id="tspan3202">N</tspan></text>
    <text
       x="422.5"
       y="446.07645"
       id="text3204"
       xml:space="preserve"
       style="font-size:32px;font-style:normal;font-variant:normal;font-weight:normal;font-stretch:normal;line-height:125%;letter-spacing:0px;word-spacing:0px;fill:#000000;fill-opacity:1;stroke:none;font-family:cmr10;-inkscape-font-specification:cmr10"><tspan
         x="422.5"
         y="446.07645"
         id="tspan3206">-15</tspan></text>
    <text
       x="409.64285"
       y="853.50507"
       id="text3208"
       xml:space="preserve"
       style="font-size:32px;font-style:normal;font-variant:normal;font-weight:normal;font-stretch:normal;line-height:125%;letter-spacing:0px;word-spacing:0px;fill:#000000;fill-opacity:1;stroke:none;font-family:cmr10;-inkscape-font-specification:cmr10"><tspan
         x="409.64285"
         y="853.50507"
         id="tspan3210">B</tspan></text>
    <text
       x="406.78574"
       y="916.36224"
       id="text3212"
       xml:space="preserve"
       style="font-size:32px;font-style:normal;font-variant:normal;font-weight:normal;font-stretch:normal;line-height:125%;letter-spacing:0px;word-spacing:0px;fill:#000000;fill-opacity:1;stroke:none;font-family:cmr10;-inkscape-font-specification:cmr10"><tspan
         x="406.78574"
         y="916.36224"
         id="tspan3214">Pog</tspan></text>
    <text
       x="473.92859"
       y="586.36218"
       id="text3216"
       xml:space="preserve"
       style="font-size:32px;font-style:normal;font-variant:normal;font-weight:normal;font-stretch:normal;line-height:125%;letter-spacing:0px;word-spacing:0px;fill:#000000;fill-opacity:1;stroke:none;font-family:cmr10;-inkscape-font-specification:cmr10"><tspan
         x="473.92859"
         y="586.36218"
         id="tspan3218">A</tspan></text>
  </g>
</svg>
