<?xml version="1.0" encoding="UTF-8" standalone="no"?>
<!-- Created with Inkscape (http://www.inkscape.org/) -->

<svg
   xmlns:dc="http://purl.org/dc/elements/1.1/"
   xmlns:cc="http://creativecommons.org/ns#"
   xmlns:rdf="http://www.w3.org/1999/02/22-rdf-syntax-ns#"
   xmlns:svg="http://www.w3.org/2000/svg"
   xmlns="http://www.w3.org/2000/svg"
   xmlns:sodipodi="http://sodipodi.sourceforge.net/DTD/sodipodi-0.dtd"
   xmlns:inkscape="http://www.inkscape.org/namespaces/inkscape"
   id="svg3237"
   version="1.1"
   inkscape:version="0.48.1 r9760"
   width="916"
   height="993"
   sodipodi:docname="pacioli.svg">
  <metadata
     id="metadata3243">
    <rdf:RDF>
      <cc:Work
         rdf:about="">
        <dc:format>image/svg+xml</dc:format>
        <dc:type
           rdf:resource="http://purl.org/dc/dcmitype/StillImage" />
        <dc:title></dc:title>
      </cc:Work>
    </rdf:RDF>
  </metadata>
  <defs
     id="defs3241" />
  <sodipodi:namedview
     pagecolor="#ffffff"
     bordercolor="#666666"
     borderopacity="1"
     objecttolerance="10"
     gridtolerance="10"
     guidetolerance="10"
     inkscape:pageopacity="0"
     inkscape:pageshadow="2"
     inkscape:window-width="1280"
     inkscape:window-height="748"
     id="namedview3239"
     showgrid="false"
     inkscape:zoom="0.41"
     inkscape:cx="458"
     inkscape:cy="496.5"
     inkscape:window-x="0"
     inkscape:window-y="30"
     inkscape:window-maximized="1"
     inkscape:current-layer="svg3237" />
  <path
     style="fill:#000000"
     d="m 340.28585,977.50466 c -3.22199,-8.43666 -4.53693,-33.53166 -3.04985,-58.20477 0.71234,-11.81893 -0.84614,-22.21338 -3.58426,-23.90563 -0.41637,-0.25733 -11.26277,-0.50325 -24.10312,-0.54648 -12.84039,-0.0432 -35.04609,-0.47096 -49.34609,-0.9505 -14.3,-0.47953 -49.3555,-1.13481 -77.9012,-1.45618 -55.004,-0.61924 -53.5988,-0.52225 -53.5988,-3.69947 0,-1.76083 0.4418,-1.97762 2.9911,-1.46777 2.0368,0.40738 2.9141,0.2186 2.75,-0.59177 -0.1326,-0.65449 1.1089,-1.88227 2.7589,-2.7284 1.65,-0.84613 5.7986,-3.50406 9.2192,-5.90652 6.8443,-4.80715 6.8442,-4.80601 1.7084,-11.62152 -4.1797,-5.54674 -8.427,-20.9918 -8.4274,-30.64585 -2e-4,-3.2325 3.2778,-16.85729 7.5434,-31.35415 3.3043,-11.22957 3.6482,-19.90024 0.9748,-24.57706 -1.4198,-2.48377 -8.9129,-12.30768 -11.7638,-15.42294 -1.5099,-1.65 -2.7474,-3.3375 -2.75,-3.75 0,-0.4125 -0.4546,-0.75 -1.0046,-0.75 -0.5571,0 -1,2.69444 -1,6.08333 0,4.31436 -0.3518,5.96607 -1.2098,5.68008 -0.8019,-0.26732 -1.2386,-3.10035 -1.2953,-8.40378 -0.066,-6.13701 -0.559,-8.80307 -2.1184,-11.44605 -3.4477,-5.84339 -3.6378,-9.35308 -0.8636,-15.94414 3.089,-7.33924 3.1121,-6.91513 -0.6016,-11.03933 -7.3953,-8.21257 -9.7247,-18.69047 -6.0425,-27.18011 1.1331,-2.6125 1.796,-4.75 1.4732,-4.75 -0.3228,0 -0.1325,-0.5625 0.4228,-1.25 6.9675,-8.62584 8.8154,-27.81636 3.6777,-38.19431 -4.3856,-8.85904 -6.2328,-9.62987 -24.167,-10.08502 -33.700796,-0.8553 -43.195096,-4.43276 -51.674096,-19.47067 -6.3649,-11.28844 0.3464,-36.81489 16.0824,-61.16989 2.3702,-3.66845 6.1517,-10.19345 8.4033,-14.5 2.2515,-4.30656 5.6248,-10.53011 7.496,-13.83011 6.3938,-11.27562 22.416896,-44.38473 22.416896,-46.32071 0,-1.79669 5.0918,-12.4189 8.528,-17.79047 1.9096,-2.98521 3.472,-5.60069 3.472,-5.81217 0,-0.21149 1.6204,-3.24025 3.6009,-6.73058 12.5867,-22.18204 12.891,-31.99082 1.8718,-60.34607 -6.6868,-17.20686 -6.8376,-34.45676 -0.5658,-64.74616 2.6586,-12.83985 3.9977,-30.07356 3.9825,-51.25384 -0.014,-20.02857 1.2574,-37.94644 3.7617,-53 1.3092,-7.86901 1.7413,-18.7988 2.0279,-51.28969 0.2777,-31.47033 0.6564,-41.39287 1.5926,-41.72355 0.6756,-0.23862 11.4981,-0.55826 24.0499,-0.71031 19.1608,-0.2321 22.9575,-0.51975 23.6692,-1.79319 1.2178,-2.17915 6.0093,-7.22782 6.0093,-6.33183 0,0.41495 1.6875,-0.82443 3.75,-2.75418 2.0625,-1.92976 5.968,-5.26717 8.6789,-7.41647 2.7108,-2.1493 6.0858,-4.98204 7.5,-6.29497 1.4141,-1.31293 3.834,-3.04154 5.3776,-3.84136 1.5435,-0.79982 7.3935,-4.52649 13,-8.281489 11.5203,-7.7159 22.3432,-14.375104 24.9395,-15.344913 0.9603,-0.35871 5.9103,-3.050423 11,-5.981584 11.9073,-6.857417 26.7967,-14.072954 43.754,-21.203628 7.425,-3.122264 14.4,-6.06957 15.5,-6.54957 4.55521,-1.987727 21.61082,-7.949143 30,-10.485845 4.95,-1.49677 10.69661,-3.346004 12.77024,-4.10941 2.07363,-0.763405 5.30957,-1.38801 7.19098,-1.38801 1.88141,0 3.68856,-0.433338 4.0159,-0.962973 0.71039,-1.149443 3.88056,-2.074746 21.02288,-6.136129 87.33342,-20.6911554 163.57061,-20.5039404 216.27802,0.531112 16.43891,6.560621 43.49273,20.32667 53.22198,27.081433 2.475,1.718329 8.1,5.556798 12.5,8.529932 4.4,2.973133 12.725,9.350115 18.5,14.171071 5.775,4.820955 11.85,9.854045 13.5,11.184644 8.35792,6.74002 20.96693,18.312499 31.38198,28.802199 18.81879,18.95368 27.35403,28.48418 39.70592,44.33588 3.76088,4.82649 20.4121,29.32066 20.4121,30.02647 0,0.27815 1.96821,3.97763 4.37381,8.22105 8.53443,15.05457 23.05106,53.18609 24.13301,63.39134 0.15604,1.47181 0.51875,3.05632 0.80601,3.52112 0.28727,0.46481 0.82149,2.85109 1.18717,5.30285 0.36568,2.45176 0.82683,4.71981 1.02479,5.04012 0.72154,1.16747 3.33244,24.74893 3.92606,35.45988 1.43148,25.82875 -5.59407,68.04124 -15.38268,92.42571 -1.00994,2.51586 -3.46663,8.62429 -5.45932,13.57429 -3.84148,9.54252 -7.39272,16.61746 -17.14168,34.15034 -11.05842,19.88787 -21.87996,46.32432 -24.01004,58.65523 -0.3035,1.75694 -1.18841,5.96113 -1.96648,9.34266 -7.46926,32.46192 -6.83729,92.30223 1.47696,139.85177 3.42222,19.5718 6.39305,34.63075 7.69393,39 0.81877,2.75 2.77092,9.95 4.33811,16 1.56719,6.05 4.7111,17.075 6.98648,24.5 2.27538,7.425 4.55136,15.44257 5.05774,17.81682 0.50638,2.37425 1.22434,4.80814 1.59547,5.40864 0.37114,0.60051 1.25031,3.60794 1.95373,6.68318 0.70342,3.07525 1.7398,7.16636 2.30308,9.09136 7.62968,26.07456 11.165,40.33885 10.22957,41.27428 -0.74687,0.74687 -1.24594,0.49361 -1.68887,-0.85706 -0.8259,-2.51851 -1.53586,-4.79522 -1.68928,-5.41722 -0.0678,-0.275 -1.63224,-5.675 -3.47647,-12 -3.98991,-13.68381 -6.37713,-22.71132 -6.77645,-25.62571 -0.16019,-1.16915 -0.73476,-2.96915 -1.27682,-4 -0.54206,-1.03086 -1.31285,-3.89929 -1.71287,-6.37429 -0.40001,-2.475 -1.56262,-6.35567 -2.58359,-8.62371 -1.02096,-2.26804 -2.34117,-6.31804 -2.9338,-9 -0.59262,-2.68196 -2.42993,-9.37629 -4.0829,-14.87629 -1.65297,-5.5 -3.39901,-11.575 -3.88008,-13.5 -0.48107,-1.925 -2.00831,-7.325 -3.39386,-12 -1.38555,-4.675 -3.67598,-14.575 -5.08984,-22 -1.41386,-7.425 -3.0076,-15.3952 -3.54165,-17.71155 -0.53405,-2.31635 -1.43637,-8.39135 -2.00515,-13.5 -1.32552,-11.90533 -2.08741,-16.02846 -2.82543,-15.29044 -0.47342,0.47342 -0.95768,98.51594 -1.11011,224.75154 -0.0222,18.38775 -0.9889,26.06464 -2.17222,17.25045 -0.3692,-2.75 -0.50404,-10.4 -0.29964,-17 0.34732,-11.21532 0.46535,-46.70872 0.55536,-167 0.0202,-26.95 0.046,-50.575 0.0573,-52.5 0.0686,-11.61511 -0.0699,-97.08084 -0.16177,-99.83178 -0.067,-2.00647 0.28949,-3.08409 0.89624,-2.7091 1.08413,0.67002 1.60283,-1.12932 2.58267,-8.95912 0.81114,-6.48165 3.23564,-18.65574 4.97881,-25 0.7556,-2.75 1.89483,-7.025 2.53161,-9.5 1.07261,-4.16888 3.79683,-11.75992 7.71578,-21.5 2.54453,-6.3241 12.05391,-25.60142 14.79881,-30 9.14909,-14.66098 20.48336,-41.72035 24.92256,-59.5 0.75528,-3.025 2.28666,-9.1 3.40306,-13.5 3.55319,-14.00388 6.14073,-35.89215 6.56099,-55.5 0.2501,-11.66877 -1.23944,-27.02127 -4.99668,-51.5 -0.69699,-4.54091 -6.02562,-22.13536 -8.48004,-28 -0.46036,-1.1 -1.9405,-4.7 -3.2892,-8 -8.76338,-21.44224 -14.62977,-32.9376 -23.83819,-46.71164 -3.20319,-4.7914 -5.824,-8.98029 -5.824,-9.30864 0,-0.54544 -5.11393,-7.39161 -7.5,-10.04047 -0.55,-0.61058 -2.50336,-2.96245 -4.34081,-5.22639 -7.40706,-9.12633 -6.65776,-24.92531 -6.67173,140.67235 -0.007,81.73813 -0.33851,167.06479 -0.73691,189.61479 -0.39841,22.55 -0.73026,41.7875 -0.73746,42.75 -0.007,0.9625 -0.48282,1.75 -1.05693,1.75 -0.57411,0 -0.97079,-0.5625 -0.88151,-1.25 0.0893,-0.6875 0.109,-4.33735 0.0438,-8.11078 l -0.11845,-6.86079 -1.96673,2.36079 -1.96673,2.36078 -0.0333,-2.25 c -0.0426,-2.88076 -0.0678,-2.87687 -7.37079,1.13725 -3.38936,1.86299 -8.18748,4.49937 -10.66248,5.85862 -7.09107,3.89435 -10.78134,6.03114 -21.77363,12.60762 -5.65049,3.38058 -10.48799,6.14651 -10.75,6.14651 -1.35192,0 -0.22553,-3.85096 1.27363,-4.35434 0.9625,-0.32318 2.425,-1.04957 3.25,-1.61421 0.825,-0.56463 4.425,-2.65773 8,-4.65134 3.575,-1.9936 7.85,-4.39561 9.5,-5.3378 1.65,-0.9422 5.025,-2.85056 7.5,-4.2408 7.02978,-3.94874 12.20266,-7.04978 15.88955,-9.52548 l 3.38957,-2.27603 -15.38954,-0.11952 c -8.46425,-0.0657 -17.41455,-0.21558 -19.88955,-0.33299 -6.14602,-0.29154 -59.71355,-0.87406 -63.73382,-0.69307 l -3.23382,0.14558 1.65961,3.48024 c 1.60468,3.36505 1.58759,3.5427 -0.51618,5.3673 -2.65101,2.29921 -2.67,2.9638 -0.17579,6.15246 2.3802,3.04291 2.61367,5.44947 0.44806,4.61844 -0.88992,-0.34149 -1.29132,-0.17385 -0.94098,0.39301 1.86227,3.01321 -1.1215,2.92378 -3.6808,-0.11032 -1.57788,-1.87062 -2.74679,-2.7437 -2.59758,-1.94018 0.14922,0.80353 1.0588,2.35088 2.0213,3.43857 0.9625,1.08768 1.75,2.55363 1.75,3.25766 0,1.83912 -2.81358,0.50552 -3.50066,-1.65926 -0.31724,-0.99952 -1.31819,-2.42045 -2.22435,-3.15761 -1.36081,-1.10704 -1.31971,-0.78003 0.23616,1.87892 2.67958,4.57935 0.90102,5.42126 -2.69214,1.27438 l -3.02712,-3.49361 2.10406,3.80716 c 1.15723,2.09394 2.10405,4.45644 2.10405,5.25 0,2.42607 -1.99794,1.60993 -3.79651,-1.55084 -0.93692,-1.64652 -2.02931,-2.99652 -2.42754,-3 -0.87256,-0.008 4.69883,9.61132 6.76195,11.67444 1.71947,1.71947 2.9885,6.12617 2.03794,7.07673 -0.79419,0.79419 -5.48845,-4.71999 -5.53988,-6.50749 -0.0516,-1.79349 -2.03596,-1.54982 -2.03596,0.25 0,1.95048 -0.90509,1.89587 -3.21429,-0.19393 -2.51622,-2.27715 -1.33642,1.17137 1.4138,4.13249 2.04444,2.20122 2.23639,3.17401 0.80129,4.06094 -0.54956,0.33965 -1.95534,-1.00301 -3.12397,-2.98368 -1.16862,-1.98067 -2.35811,-3.36788 -2.6433,-3.08268 -0.28519,0.28519 0.0459,1.19867 0.73584,2.02996 1.40171,1.68895 0.61016,5.0131 -0.96231,4.04127 -1.60582,-0.99246 -1.03104,1.72919 1.05502,4.99563 1.05374,1.65 2.21291,3.675 2.57592,4.5 0.36301,0.825 1.57701,2.51846 2.69777,3.76324 1.46476,1.62685 1.73269,2.5683 0.95288,3.34811 -0.77981,0.77981 -1.77525,-0.2897 -3.54016,-3.80355 -2.6108,-5.19799 -8.69828,-12.50613 -7.33665,-8.8078 0.40499,1.1 0.8155,2.225 0.91225,2.5 0.0968,0.275 -0.27409,0.62929 -0.82409,0.7873 -2.00534,0.57615 -2.22265,3.70347 -0.34906,5.0234 1.65556,1.16634 4.84906,6.19766 4.84906,7.63964 0,1.79353 -2.33626,-0.0228 -4.55964,-3.54482 -1.4216,-2.25196 -2.85975,-3.81946 -3.19588,-3.48333 -0.33613,0.33613 -0.0786,1.14364 0.57219,1.79448 2.01876,2.01876 1.56154,5.33587 -0.5039,3.65577 -1.50122,-1.22113 -1.59896,-1.15194 -0.88655,0.62756 0.44038,1.1 1.02712,2.7875 1.30386,3.75 0.27675,0.9625 1.1257,1.75 1.88655,1.75 1.59252,0 1.87354,2.57903 0.3815,3.50116 -0.55103,0.34055 -1.41589,-0.46976 -1.92191,-1.8007 -0.50602,-1.33093 -2.08407,-3.27051 -3.50677,-4.31017 l -2.58673,-1.89029 2.04083,-7.5 c 1.12246,-4.125 2.31895,-8.175 2.65888,-9 0.33992,-0.825 0.7622,-2.21934 0.93841,-3.09853 0.17621,-0.87919 1.2336,-3.729 2.34977,-6.3329 1.11616,-2.60391 2.02939,-5.56493 2.02939,-6.58005 0,-1.01511 0.675,-2.52066 1.5,-3.34566 0.825,-0.825 1.5,-1.95075 1.5,-2.50166 0,-0.55091 1.27343,-3.84556 2.82984,-7.32143 4.04459,-9.03264 5.93921,-13.92039 6.61669,-17.06977 l 0.59157,-2.75 -7,0 c -6.82734,0 -7.01448,0.0678 -7.58722,2.75 -2.07414,9.71333 -13.6697,36.52686 -16.98652,39.27958 -0.8054,0.66842 -1.46436,1.84132 -1.46436,2.60643 0,0.76512 -0.41715,2.17252 -0.927,3.12756 -0.50985,0.95504 -1.20906,2.62382 -1.5538,3.7084 -0.49137,1.54593 -0.80915,1.67691 -1.47086,0.60624 -0.95295,-1.5419 0.52187,-6.74956 2.59326,-9.15695 0.74712,-0.86831 1.3584,-2.01771 1.3584,-2.55422 0,-0.53651 1.33103,-3.0743 2.95785,-5.63952 3.66182,-5.7741 8.44492,-17.14547 11.06376,-26.30308 1.08911,-3.80844 2.0923,-7.14944 2.2293,-7.42444 0.30494,-0.6121 -18.92415,-1.63513 -21.85273,-1.16262 -1.97705,0.31899 -2.02418,0.5565 -0.7939,4.00087 3.72609,10.43173 -2.14111,35.12095 -8.35428,35.15492 -1.87393,0.0102 -1.57517,-0.94538 2.30991,-7.38844 5.49558,-9.11392 6.22985,-20.30924 1.88332,-28.7145 -1.78248,-3.44695 -0.40679,-3.1219 -14.19323,-3.35362 -11.16343,-0.18762 -11.25,-0.17118 -11.25,2.13716 0,3.02415 -1.74071,2.94883 -5.04656,-0.21838 -4.0848,-3.91348 -22.01385,-4.06103 -23.04921,-0.18968 -1.01197,3.78389 -1.06607,121.03234 -0.0566,122.57054 0.69343,1.05658 2.06057,0.63799 6.53215,-2 3.11035,-1.83494 7.06243,-4.09888 8.78241,-5.03098 1.71998,-0.9321 3.6021,-2.1696 4.1825,-2.75 1.49961,-1.49957 2.65531,-1.306 2.65531,0.44473 0,0.825 -0.41786,1.5 -0.92857,1.5 -0.51072,0 -1.54222,0.5625 -2.29223,1.25 -1.87196,1.71593 -4.82358,3.55887 -7.63789,4.76896 -3.11192,1.33806 -1.57801,3.26694 4.41941,5.55738 12.38759,4.73086 24.68175,-2.62617 33.54905,-20.07634 2.23585,-4.4 4.54282,-8.57683 5.12659,-9.28185 1.94573,-2.34987 -3.21506,0.22284 -16.24603,8.0988 -8.32908,5.03412 -12.82349,7.21591 -13.49033,6.5488 -0.66674,-0.667 -0.33349,-1.46647 1,-2.39896 1.1,-0.76922 2.45,-1.75143 3,-2.18268 0.55,-0.43126 2.575,-1.57782 4.5,-2.54791 1.925,-0.97009 7.55,-4.21984 12.5,-7.22168 11.47105,-6.95641 14.43752,-8.23366 15.42231,-6.64023 0.40567,0.6564 1.5006,0.90066 2.43316,0.5428 1.37934,-0.5293 1.46472,-0.92882 0.4578,-2.14209 -1.38478,-1.66855 0.79553,-3.88696 4.81126,-4.89535 2.79508,-0.70186 4.10635,-3.84631 3.91144,-9.37965 -0.22656,-6.43137 1.01441,-9.61804 3.0784,-7.90508 1.08656,0.90176 1.41825,2.31663 1.06027,4.52264 -0.86147,5.30857 1.26455,7.09491 4.67848,3.93099 1.53181,-1.41964 3.20401,-2.32226 3.71599,-2.00584 1.33855,0.82727 1.14834,-0.92526 -0.25244,-2.32604 -0.65084,-0.65084 -0.84209,-1.52459 -0.425,-1.94167 0.41708,-0.41709 1.19694,0.0254 1.73302,0.98333 1.40269,2.50646 3.21021,2.23595 1.86425,-0.279 -1.69859,-3.17383 -0.0101,-4.65116 2.13191,-1.86536 l 1.83468,2.38603 0.054,-2.5 c 0.0491,-2.27313 0.17277,-2.34368 1.36237,-0.7775 1.20387,1.58497 2.01977,1.29351 10.2182,-3.65013 4.90042,-2.95496 12.95986,-7.73677 17.90986,-10.62625 4.95,-2.88949 9.675,-5.79635 10.5,-6.45971 0.825,-0.66335 3.975,-2.55333 7,-4.19995 3.025,-1.64662 8.18766,-4.62453 11.47259,-6.61757 3.92798,-2.3832 6.31036,-3.28594 6.95927,-2.63703 0.96643,0.96643 -1.1605,2.96023 -5.92999,5.55884 -4.5639,2.48659 -30.04089,17.79768 -30.50187,18.33092 -0.275,0.31811 -1.57415,1.1832 -2.88701,1.92242 -1.31285,0.73921 -3.78785,2.14668 -5.5,3.12769 -1.71214,0.98101 -5.96777,3.41315 -9.45694,5.40476 -3.48917,1.99162 -7.53917,4.42802 -9,5.41423 -1.46083,0.98622 -4.34615,2.66549 -6.41182,3.73171 -2.06568,1.06623 -4.01058,2.7414 -4.322,3.7226 -0.31142,0.98121 -1.00327,1.5139 -1.53744,1.18376 -0.53417,-0.33013 -2.55994,0.61153 -4.5017,2.09259 l -3.53048,2.69282 1.98704,2.1429 c 2.82809,3.04991 3.22066,6.24047 0.71413,5.804 -1.50491,-0.26205 -1.70624,-0.0353 -0.88789,1 0.58208,0.7364 1.35978,2.59962 1.72822,4.14049 l 0.66989,2.80159 -3.16242,-3.30159 c -1.73933,-1.81587 -2.64597,-2.57113 -2.01475,-1.67834 2.3841,3.37203 0.0807,5.34972 -2.58094,2.21603 -1.79437,-2.11257 -2.14214,-2.28022 -1.35875,-0.65502 2.28453,4.73947 0.12381,6.15617 -2.38805,1.56574 l -1.50478,-2.75 0.62551,3.5 c 0.62238,3.48244 0.61507,3.49076 -1.4576,1.65795 -2.03714,-1.80139 -2.07105,-1.79587 -1.53604,0.25 0.33675,1.28757 0.0729,2.09205 -0.68614,2.09205 -0.74073,0 -1.02449,0.79835 -0.71051,1.999 0.58594,2.24065 -0.7723,3.64684 -1.84539,1.91055 -0.49676,-0.80377 -0.92121,-0.75561 -1.49288,0.16939 -0.64484,1.04336 -1.13037,1.01727 -2.51925,-0.1354 -1.56465,-1.29855 -1.66295,-1.20216 -1.08545,1.0643 0.34926,1.37069 0.37667,1.92966 0.0609,1.24216 -0.86535,-1.88413 -3.20507,-1.50011 -3.04633,0.5 0.0764,0.9625 -0.42361,1.6375 -1.11111,1.5 -0.6875,-0.1375 -1.25,0.4071 -1.25,1.21021 0,0.80312 -2.2349,3.73068 -4.96643,6.50569 -3.3965,3.45054 -4.78917,5.59687 -4.40567,6.78978 0.41996,1.30634 0.32093,1.40941 -0.3944,0.41047 -0.78066,-1.09015 -1.06214,-1.05509 -1.54065,0.1919 -0.32202,0.83916 -1.39714,1.51245 -2.38917,1.49621 -0.99202,-0.0162 -4.21679,0.4007 -7.16614,0.92654 -6.705,1.19543 -12.10237,0.0595 -17.71461,-3.72813 l -4.23996,-2.86152 -3.49644,2.37589 -3.49643,2.37588 0.15495,56.77854 c 0.0852,31.2282 0.51259,56.77854 0.94971,56.77854 2.17065,0 12.86904,-34.08544 14.75188,-47 3.53756,-24.26448 5.44721,-35.17703 8.04978,-46 0.66129,-2.75 1.24762,-6.2 1.30296,-7.66667 0.0553,-1.46666 0.2865,-2.48078 0.5137,-2.25359 0.22719,0.22719 1.32684,-1.04781 2.44366,-2.83333 2.68431,-4.29155 3.51058,-1.36792 1.30356,4.61244 -2.63534,7.14099 -3.57634,11.54334 -7.19076,33.64115 -5.33232,32.60065 -8.6391,46.2098 -14.45746,59.5 -0.96315,2.2 -2.0652,5.0125 -2.44902,6.25 -0.38381,1.2375 -1.19251,2.25 -1.79711,2.25 -0.60461,0 -0.81856,0.28072 -0.47546,0.62382 0.3431,0.3431 -0.22974,2.29694 -1.27298,4.34185 -1.65301,3.24017 -1.89541,5.99987 -1.88599,21.47168 0.006,9.76451 -0.24621,18.01067 -0.56035,18.32482 -1.38662,1.38661 -1.76035,-1.42564 -1.786,-13.43923 -0.0151,-7.05262 -0.23891,-13.18385 -0.49745,-13.62496 -0.39984,-0.68221 -6.28772,7.56208 -6.28772,8.80415 0,4.8818 -35.38512,47.24136 -45.68748,54.69253 -37.47435,27.10324 -74.35497,45.44606 -107.81252,53.62125 -3.41923,0.83548 -2.25768,1.02074 8,1.27598 6.6,0.16423 13.7837,0.37103 15.96378,0.45956 4.79821,0.19484 116.74665,1.87012 128.03622,1.91602 l 8,0.0325 0.3075,-4.25 c 0.34434,-4.75928 1.8861,-5.73011 2.38212,-1.5 l 0.32246,2.75 1.69199,-3 c 0.93059,-1.65 2.16453,-4.03958 2.74209,-5.31017 0.57755,-1.2706 1.48128,-2.04369 2.00829,-1.71798 1.11319,0.68799 0.25873,3.52815 -1.06144,3.52815 -0.49115,0 -0.89301,0.64928 -0.89301,1.44284 0,0.79356 -0.9079,2.98162 -2.01756,4.86235 l -2.01757,3.41952 10.26757,0.63057 c 5.64716,0.34682 21.14846,0.62878 34.44734,0.62657 39.88746,-0.007 149.42284,2.3425 163.52499,3.50696 l 5.70476,0.47107 0.29524,-6.72994 c 0.41012,-9.349 2.29523,-8.10056 2.29523,1.52006 l 0,7.75 -19.5,-0.0745 c -39.39285,-0.15043 -116.06281,-1.67659 -146.5,-2.91617 -21.85261,-0.88997 -48.56217,-1.51872 -85,-2.00092 -19.8,-0.26202 -54.9,-0.72339 -78,-1.02525 -23.1,-0.30187 -54.31349,-0.7665 -69.36331,-1.03251 -25.84427,-0.45681 -27.32574,-0.38572 -26.68631,1.28059 2.20274,5.74026 2.76897,12.49618 1.9502,23.26872 -1.61673,21.27135 0.21052,51.11868 3.65789,59.75 0.73667,1.84443 0.5665,2.25 -0.94405,2.25 -1.2578,0 -2.37863,-1.4033 -3.5311,-4.42099 z m -7.97097,-116.07901 c 0.0784,-15.95 0.22286,-42.05 0.32102,-58 0.23277,-37.82625 0.42593,-34.11986 -1.68337,-32.30068 -0.9625,0.83012 -6.925,4.56822 -13.25,8.30689 -6.325,3.73867 -17.575,10.50572 -25,15.03788 -7.425,4.53216 -14.9501,8.96894 -16.7224,9.85951 -1.7723,0.89057 -4.9223,2.78413 -7,4.20791 -2.0777,1.42378 -4.6776,3.01296 -5.7776,3.53153 -1.1,0.51856 -2.9,1.49521 -4,2.17033 -4.162,2.55444 -10.1489,6.2316 -12.0379,7.39378 -1.0792,0.66393 -3.9871,2.41389 -6.4621,3.88879 -8.6645,5.16335 -8,2.42058 -8,33.0205 l 0,27.30647 4.25,1.15311 c 6.4691,1.75521 8.7142,1.88113 45.25,2.53797 18.7,0.33619 34.20477,0.80284 34.45504,1.037 0.25027,0.23417 3.84348,0.29599 7.9849,0.13738 l 7.52986,-0.28837 0.14255,-29 z m 42.88765,27.40547 c 28.40337,-5.59423 54.67818,-16.52815 88.37094,-36.7744 19.63244,-11.79729 20.2209,-12.24114 37.52423,-28.30256 8.15475,-7.56945 24.84673,-27.77247 30.0848,-36.41291 8.31937,-13.72319 10.36201,-17.41674 11.35163,-20.52636 1.35654,-4.26252 2.20349,-122.88924 0.87738,-122.88924 -0.49513,0 -2.09471,0.83567 -3.55461,1.85705 -1.4599,1.02137 -4.67937,2.98275 -7.15437,4.35861 -11.76675,6.54119 -22.57472,12.99875 -34.37005,20.53546 -3.77853,2.41432 -7.82853,4.80692 -9,5.31689 -1.17147,0.50997 -2.80495,1.37046 -3.62995,1.9122 -0.825,0.54175 -8.7,5.32751 -17.5,10.63502 -8.8,5.30752 -17.19311,10.37785 -18.65135,11.2674 -1.45824,0.88955 -5.67952,3.35976 -9.38062,5.48936 -3.7011,2.12959 -8.58299,5.10616 -10.84865,6.61459 -2.26566,1.50844 -6.70665,4.16695 -9.86886,5.9078 -3.16222,1.74085 -7.43722,4.32183 -9.5,5.7355 -2.06279,1.41367 -4.65052,2.96123 -5.75052,3.43901 -1.1,0.47778 -8.525,4.91356 -16.5,9.8573 -7.975,4.94374 -17.2,10.5849 -20.5,12.53592 -23.31005,13.78134 -30.23594,18.4201 -30.81646,20.64002 -0.3132,1.19769 -0.64846,21.12717 -0.74502,44.28774 -0.0966,23.16057 -0.30182,49.53513 -0.45614,58.61013 -0.15432,9.075 -0.0334,16.90381 0.26861,17.39736 0.73216,1.19633 32.07256,0.02 39.74901,-1.49189 z m -196,-1.3865 c -5.1282,-1.64524 -13.7397,-5.65952 -19.5633,-9.11947 l -4.5632,-2.71117 -7.9368,4.78344 c -14.3415,8.64358 -14.4888,8.55076 13.3723,8.42936 19.9664,-0.087 22.2107,-0.25295 18.691,-1.38216 z m 47.3728,-0.45087 c 2.2649,-1.21218 2.6439,-4.6599 2.3707,-21.5681 -0.062,-3.85 0.3561,-12.32896 0.9296,-18.84213 0.7326,-8.32031 0.7275,-12.1573 -0.017,-12.9019 -0.9327,-0.9327 -7.91,2.61553 -22.156,11.26722 -0.825,0.50103 -4.875,2.80163 -9,5.11244 -4.125,2.31082 -9.3,5.40849 -11.5,6.88371 -2.2,1.47522 -6.119,3.85513 -8.7089,5.28869 -9.9284,5.49557 -18.7911,11.03645 -18.7911,11.74807 0,3.27385 22.26,10.95808 37.5,12.94511 4.95,0.64539 9.675,1.33556 10.5,1.53371 2.987,0.71742 16.797,-0.35591 18.8728,-1.46682 z m -64.1583,-18.71105 c 2.632,-1.45363 5.9105,-3.42421 7.2855,-4.37908 3.2479,-2.25551 15.3436,-9.45148 31,-18.44245 6.875,-3.9481 14.3,-8.28144 16.5,-9.62963 2.2,-1.3482 5.125,-3.02871 6.5,-3.73448 7.3382,-3.76658 6.7755,6.40514 6.8696,-124.17141 0.011,-15.125 0.082,-29.975 0.1572,-33 0.4174,-16.7005 0.3933,-167.90772 -0.027,-168.30503 -0.275,-0.26006 -22.2125,-0.73534 -48.75,-1.05617 l -48.25,-0.58333 -0.089,9.22226 c -0.049,5.07225 -0.2114,11.47227 -0.3609,14.22227 -0.1494,2.75 -0.3343,6.6875 -0.4108,8.75 -0.077,2.0625 -0.6191,3.75 -1.2057,3.75 -0.6641,0 -1.0136,-2.54757 -0.9261,-6.75 0.077,-3.7125 0.1035,-25.1587 0.058,-47.65822 -0.045,-22.49952 0.1464,-41.13702 0.4261,-41.41667 1.2557,-1.25568 1.5064,2.07048 2.1026,27.88855 0.3484,15.08998 0.6947,27.50228 0.7696,27.58287 0.1743,0.18745 79.6723,1.81764 89.6362,1.83808 l 7.5,0.0154 0.01,-149.5 c 0,-82.225 -0.2206,-150.93035 -0.5,-152.67856 -0.4945,-3.09385 -13.6275,-11.87186 -42.008,-28.07766 -2.475,-1.41328 -9.225,-5.37747 -15,-8.80933 -12.7062,-7.55078 -10.1799,-8.81149 -23.1759,11.56554 -3.5825,5.61719 -11.8241,24.00311 -11.8241,26.37807 0,0.72306 -0.7222,2.76225 -1.6048,4.53153 -2.9354,5.8841 -3.3303,16.07617 -3.3827,87.29358 -0.047,64.05415 -0.3902,74.23083 -2.3932,70.98983 -0.2854,-0.46178 -0.5946,-26.41828 -0.6871,-57.6811 -0.18,-60.81449 -1.3456,-72.78302 -2.3872,-24.51191 -0.6252,28.97503 -1.3459,38.03739 -4.0561,51 -7.0647,33.79031 -6.9798,46.66185 0.4253,64.5 0.6849,1.65 2.1757,5.8213 3.3127,9.26955 2.5245,7.65618 2.7786,7.49395 2.9305,-1.87158 0.1289,-7.94089 1.2329,-12.39283 2.8286,-11.40662 0.8569,0.52961 7.014,-11.17118 7.014,-13.3293 0,-1.52032 5.54,-5.99294 9.5,-7.6697 2.8746,-1.21717 7.2031,-1.73569 15.385,-1.84301 l 11.3851,-0.14934 -5.3851,-1.25373 c -10.7611,-2.50537 -34.9834,-2.4812 -37.502,0.0374 -0.2952,0.29522 -0.609,5.10174 -1.3196,20.21631 -0.2794,5.94302 -1.9027,-1.87334 -1.8227,-8.77661 0.067,-5.8091 -0.2832,-8.13375 -1.3246,-8.78322 -3.7196,-2.31988 2.7849,-6.55449 12.6682,-8.24744 18.5916,-3.1846 59.4951,8.33288 71.3254,20.08359 0.7753,0.77012 3.1544,2.50161 5.2869,3.84777 3.6074,2.27728 4.3078,4.37591 1.4603,4.37591 -0.6738,0 -4.2181,-2.2535 -7.8762,-5.00779 -8.7988,-6.62471 -14.112,-8.79358 -27.1516,-11.0833 -15.8131,-2.77674 -31.1972,-1.75697 -32.4728,2.15253 -0.2581,0.79121 -1.2989,2.16634 -2.3128,3.05586 -1.0139,0.88951 -1.8435,2.12701 -1.8435,2.75 0,0.62298 -0.5051,1.1327 -1.1224,1.1327 -0.7846,0 -0.8102,0.37627 -0.085,1.25 0.5705,0.6875 1.0883,1.475 1.1506,1.75 0.7977,3.52051 1.4408,5 2.1735,5 0.4858,0 0.8833,0.67798 0.8833,1.50661 0,0.82864 1.125,2.48479 2.5,3.68034 2.8392,2.46865 3.1918,3.81305 1,3.81305 -0.825,0 -1.5,-0.45 -1.5,-1 0,-0.55 -0.675,-1 -1.5,-1 -0.825,0 -1.5,-0.45 -1.5,-1 0,-0.55 -0.6698,-1 -1.4885,-1 -1.6421,0 -5.5792,-3.02147 -5.1189,-3.92838 0.1596,-0.31439 -0.5496,-1.37027 -1.576,-2.3464 -1.7916,-1.70391 -1.955,-1.68097 -4.0913,0.57451 -1.2239,1.29211 -3.0468,2.65221 -4.0509,3.02244 -1.4171,0.52248 -1.788,1.62486 -1.6573,4.92548 0.3782,9.54967 -0.042,15.85483 -1.0171,15.25235 -0.55,-0.33992 -1,0.057 -1,0.88197 0,0.825 0.45,1.77811 1,2.11803 1.2649,0.78174 1.3457,25.5 0.083,25.5 -0.5041,0 -1.072,-0.46608 -1.2619,-1.03573 -0.1899,-0.56965 -1.6555,2.01785 -3.2569,5.75 -1.6015,3.73215 -4.6336,9.86352 -6.7381,13.62526 -2.1045,3.76175 -3.8264,7.19415 -3.8264,7.62756 0,0.43341 -0.6315,1.3121 -1.4033,1.95264 -1.8689,1.55105 -5.9428,10.05191 -8.6647,18.08027 -2.1251,6.26826 -10.926596,24.70653 -17.029596,35.67536 -1.6225,2.91629 -5.4885,10.36986 -8.5909,16.56349 -3.1025,6.19363 -7.2985,13.96115 -9.3246,17.26115 -2.026,3.3 -5.2648,8.925 -7.1972,12.5 -1.9324,3.575 -4.7703,8.73646 -6.3065,11.46991 -2.9005,5.16122 -3.7007,7.62242 -6.0248,18.53009 -5.8281,27.35394 8.7889,37.82548 53.041596,37.99878 12.1455,0.0476 18.8506,3.08985 22.336,10.13448 l 1.9768,3.99553 0.4554,-2.81439 c 1.5126,-9.34723 0.3846,-15.05943 -3.4936,-17.69194 -3.2581,-2.2116 -3.9077,-2.34652 -5.1786,-1.07563 -1.8611,1.86109 -2.5244,1.82789 -4.8103,-0.24076 -1.759,-1.59191 -1.8326,-1.59191 -1.2217,0 0.7665,1.99747 -1.5241,2.3338 -3.364,0.49393 -0.9333,-0.93333 -1.2,-0.93333 -1.2,0 0,0.66 -0.5129,1.2 -1.1397,1.2 -0.6269,0 -1.6737,0.73015 -2.3262,1.62255 -1.4274,1.95208 -5.5341,1.02527 -5.5341,-1.24895 0,-0.8204 -0.4028,-1.24266 -0.8952,-0.93836 -1.398096,0.8641 -2.209196,-2.37163 -1.109496,-4.4264 1.060296,-1.98131 3.170596,-2.59284 12.391496,-3.591 3.2377,-0.35048 8.8436,-1.48281 12.4575,-2.51629 7.5345,-2.15469 14.1315,-0.2436 16.4082,4.75334 1.6148,3.54404 -0.2895,4.89093 -3.1488,2.22711 -4.3678,-4.06921 -5.4427,-1.08765 -5.2858,14.66095 0.1163,11.66734 -0.079,13.57092 -1.3409,13.08659 -1.8314,-0.70275 -1.8304,-0.53583 0.017,3.00615 1.6887,3.23802 2.0589,14.90464 0.5035,15.86598 -0.6664,0.41181 -0.6529,1.27351 0.04,2.56856 1.3283,2.48203 0.8444,18.62079 -0.5376,17.92977 -0.55,-0.275 -1.03,-2.075 -1.0667,-4 -0.037,-1.925 -0.1599,-5.525 -0.2738,-8 l -0.207,-4.5 -2.5388,6 c -4.7756,11.28637 -5.5393,14.0056 -5.529,19.68701 0.01,5.47934 1.8106,10.45324 5.453,15.06299 2.1329,2.69938 2.6623,2.136 2.6623,-2.83333 0,-7.30081 2.4366,-5.08505 2.8012,2.54732 l 0.3012,6.30524 5.4828,-0.56587 c 4.0572,-0.41874 5.9612,-1.15665 7.3226,-2.83781 l 1.8397,-2.27192 3.026,3.02606 c 7.906,7.90597 28.4376,10.05399 26.613,2.78425 -1.0192,-4.0608 1.8547,-2.76701 4.8635,2.18947 1.5125,2.49161 2.75,5.17738 2.75,5.96839 0,1.87817 -2.666,1.85744 -3.7217,-0.0289 -0.6944,-1.24079 -1.8645,-1.29424 -7.5843,-0.34644 -6.3862,1.05823 -7.2214,0.96021 -14.9787,-1.75802 -8.0997,-2.83823 -23.3281,-4.14901 -25.2994,-2.17765 -2.423,2.42296 -1.4523,19.85425 0.9926,17.82517 0.9874,-0.81945 1.6493,-0.71112 2.5915,0.42408 0.9629,1.16023 1.5922,1.25342 2.6327,0.38989 1.0258,-0.85139 1.7419,-0.82389 2.8673,0.11011 1.1898,0.98746 1.5,0.98866 1.5,0.006 0,-0.74674 0.7946,-1.03126 2,-0.71606 1.1,0.28766 2,0.0848 2,-0.45076 0,-0.53557 0.9,-0.68812 2,-0.33899 1.1473,0.36414 2,0.1797 2,-0.43261 0,-0.58707 0.675,-1.06739 1.5,-1.06739 0.825,0 1.5,0.53601 1.5,1.19113 0,0.65512 0.6063,0.36195 1.3473,-0.65149 0.8448,-1.15524 1.5912,-1.44809 2.001,-0.78501 0.3595,0.58169 1.5993,0.81033 2.755,0.50809 1.2307,-0.32183 2.467,0.0278 2.9837,0.84388 1.2858,2.0305 1.1107,2.8934 -0.587,2.8934 -0.825,0 -1.5,0.7301 -1.5,1.62244 0,1.39782 -0.2336,1.43243 -1.6873,0.25 -1.4885,-1.21085 -1.6046,-1.15234 -0.9856,0.49689 0.5923,1.578 0.3098,1.79442 -1.8127,1.38867 -1.3829,-0.26436 -2.5144,-0.0449 -2.5144,0.48766 0,0.53257 -0.6257,0.72824 -1.3903,0.43481 -0.7647,-0.29343 -2.2698,0.28582 -3.3447,1.28724 -1.4336,1.3356 -3.175,1.73845 -6.5355,1.5119 -6.3523,-0.42826 -6.4613,1.10598 -0.5694,8.01064 12.1991,14.29581 13.1637,21.42386 5.8911,43.53569 -7.5053,22.81939 -7.582,36.09483 -0.2934,50.79105 5.1798,10.44408 6.9585,11.40504 13.9567,7.54006 z m 2.9793,-119.99653 c -0.7989,-0.79893 0.1042,-2.36052 1.3652,-2.36052 0.5176,0 0.941,0.675 0.941,1.5 0,1.54641 -1.18,1.9867 -2.3062,0.86052 z m -34.6149,-38.77719 c -0.043,-1.05416 0.193,-1.64479 0.5253,-1.3125 0.3323,0.33229 0.3678,1.1948 0.079,1.91667 -0.3193,0.79773 -0.5562,0.56078 -0.6042,-0.60417 z m -0.079,-4.02431 c 0,-1.75653 0.6001,-2.01516 1.4573,-0.62812 0.3164,0.512 0.118,1.21356 -0.441,1.55902 -0.559,0.34546 -1.0163,-0.0734 -1.0163,-0.9309 z m 0,-4.55902 c 0,-1.86667 0.2667,-2.13333 1.2,-1.2 0.9333,0.93333 0.9333,1.46667 0,2.4 -0.9333,0.93333 -1.2,0.66667 -1.2,-1.2 z m 26.0926,-60.8269 c -1.3621,-2.5452 -1.3983,-4.1731 -0.093,-4.1731 0.55,0 1,0.6375 1,1.41667 0,0.77916 0.5625,1.62291 1.25,1.875 0.949,0.34798 0.9714,0.75503 0.093,1.69069 -0.9068,0.96557 -1.3939,0.79038 -2.25,-0.80926 z m 2.3143,-7.4996 c -2.5403,-2.70172 -2.9356,-3.71516 -2.2121,-5.67097 0.9723,-2.62861 0.4129,-6.66497 -1.6636,-12.00253 -2.4879,-6.39488 -2.7417,-7.45903 -3.2025,-13.42434 -1.111,-14.38275 -12.3906,-19.65324 -30.0787,-14.05457 -1.6992,0.53782 -2.25,0.3164 -2.25,-0.90446 0,-0.88915 0.675,-1.67288 1.5,-1.74163 1.6941,-0.14118 2.3655,-0.3076 4.5,-1.11543 0.825,-0.31224 2.2875,-0.82175 3.25,-1.13225 1.5268,-0.49254 1.75,-1.97159 1.75,-11.59594 0,-6.68759 0.3938,-11.03138 1,-11.03138 0.6061,0 1,4.33333 1,11 l 0,11 3.025,0 c 7.2895,0 22.806,8.39198 21.5532,11.65684 -0.268,0.69827 0.655,2.16801 2.0509,3.26608 1.396,1.09807 2.7345,3.25212 2.9744,4.78679 0.7084,4.53139 0.9918,5.6861 1.8971,7.73032 0.5338,1.20527 0.4674,2.07064 -0.1753,2.28489 -0.5691,0.18967 -0.8226,1.45415 -0.5634,2.80997 0.581,3.03945 -0.086,3.10718 -2.7229,0.27655 -2.4376,-2.61635 -2.5904,-3.81144 -0.4875,-3.81144 1.106,0 0.7943,-0.70178 -1.0852,-2.44369 -2.0059,-1.85897 -2.4652,-2.98437 -1.9196,-4.70336 0.625,-1.96942 0.5328,-2.07299 -0.7179,-0.80631 -2.0889,2.11551 -1.5307,6.57733 1.1844,9.46742 1.7037,1.81353 2.057,2.81569 1.2701,3.60263 -1.0958,1.09585 0.7898,4.04503 4.9667,7.76798 1.8806,1.67623 2.3546,4.11533 0.7997,4.11533 -0.5227,0 -1.3102,-0.5625 -1.75,-1.25 -0.4398,-0.6875 -1.6997,-1.925 -2.7997,-2.75 -1.8298,-1.37238 -1.8895,-1.35869 -0.7014,0.16097 0.8306,1.06252 0.9365,1.88474 0.2936,2.28203 -1.323,0.81766 -0.1906,3.72119 2.0919,5.3637 1.7862,1.28533 2.5331,4.21095 1.0659,4.17485 -0.4125,-0.0101 -2.1419,-1.49877 -3.8431,-3.30805 z m -4.2387,0.69167 c 0.1975,-1.02584 0.803,-1.75267 1.3455,-1.61517 1.4534,0.3684 1.1994,2.5123 -0.3592,3.03183 -0.8762,0.29207 -1.2202,-0.20206 -0.9863,-1.41666 z m 7.8319,-3.36517 c 0,-0.55 0.1984,-1 0.441,-1 0.2425,0 0.7191,0.45 1.059,1 0.3399,0.55 0.1415,1 -0.441,1 -0.5824,0 -1.059,-0.45 -1.059,-1 z m 0.028,-8.46638 c -1.892,-2.27967 -0.7713,-4.13412 1.2667,-2.09612 1.8407,1.84071 2.2408,3.5625 0.8278,3.5625 -0.4826,0 -1.4252,-0.65987 -2.0945,-1.46638 z m -32.0279,-6.4746 c 0,-0.58246 0.45,-1.05902 1,-1.05902 0.55,0 1,0.19844 1,0.44098 0,0.24254 -0.45,0.7191 -1,1.05902 -0.55,0.33992 -1,0.14148 -1,-0.44098 z m -0.315,-21.15547 c -0.6258,-2.39311 0.1022,-4.90355 1.422,-4.90355 0.4911,0 0.893,1.575 0.893,3.5 0,3.84349 -1.4474,4.72105 -2.315,1.40355 z m 0.315,-43.98688 c 0,-6.02264 0.3187,-7.97692 1.25,-7.6659 1.3719,0.45816 1.7506,4.91402 0.9773,11.49923 -0.8375,7.13106 -2.2273,4.73906 -2.2273,-3.83333 z m 34.9189,-73.36576 c -1.1502,-2.447 -2.7275,-4.9771 -3.5051,-5.62245 -0.7776,-0.64534 -1.4138,-1.92825 -1.4138,-2.8509 0,-0.92266 -0.4807,-2.15826 -1.0682,-2.74578 -2.4344,-2.43441 -0.6417,-8.72692 2.9703,-10.4257 2.2456,-1.05618 2.9895,-1.85505 2.1883,-2.35021 -1.3948,-0.86205 -3.2523,-5.12279 -3.512,-8.05587 -0.097,-1.1 -0.6553,-2.9 -1.2398,-4 -0.5845,-1.1 -1.3377,-4.475 -1.6738,-7.5 -0.4274,-3.84739 -1.2367,-6.01241 -2.6935,-7.20533 -6.7905,-5.5605 0.8896,-28.20673 8.7597,-25.82959 4.6416,1.40201 10.0966,3.94694 10.7596,5.01977 0.3451,0.55833 1.3059,1.01515 2.1351,1.01515 0.8293,0 2.9827,1.125 4.7854,2.5 1.8027,1.375 3.7674,2.5 4.3659,2.5 0.5985,0 1.3759,0.90653 1.7276,2.01452 0.3517,1.10799 1.0412,1.76617 1.5324,1.46263 0.9835,-0.60788 8.963,4.33196 8.963,5.54875 0,1.88789 -3.4313,1.88832 -5.1899,6.4e-4 -1.0384,-1.1146 -2.7547,-2.02654 -3.8139,-2.02654 -1.0592,0 -2.4051,-0.89552 -2.9909,-1.99005 -0.5858,-1.09452 -1.3891,-1.92186 -1.7852,-1.83852 -1.4589,0.30698 -6.1794,-2.15354 -10.5887,-5.5193 -4.5686,-3.48724 -12.0342,-5.64933 -13.7124,-3.97118 -1.428,1.42809 -5.7599,14.57004 -5.2449,15.91209 0.6485,1.68995 4.6585,3.13097 12.3259,4.42934 25.0585,4.24332 56,15.25618 56,19.93184 0,1.27358 -0.6606,2.05382 -1.75,2.06708 -1.6586,0.0202 -9.0184,2.52443 -24.75,8.42147 -6.5202,2.4441 -7.9596,2.60454 -21,2.3406 -16.8132,-0.34031 -16.9154,-0.22901 -10.5564,11.49417 3.935,7.25439 5.1019,11.72246 3.0615,11.72246 -0.5472,0 -1.936,-2.00209 -3.0862,-4.44909 z m 34.6541,-26.11581 c 4.9099,-1.95299 10.6671,-4.3468 12.7938,-5.31959 l 3.8669,-1.7687 -5.3669,-2.33035 c -8.391,-3.64349 -14.8543,-5.9129 -21.3668,-7.50242 -8.3118,-2.02865 -28.6143,-6.51404 -29.485,-6.51404 -0.394,0 -0.2863,2.3625 0.2393,5.25 0.5257,2.8875 1.0776,6.15 1.2265,7.25 0.149,1.1 1.0017,3.67305 1.895,5.71788 0.8933,2.04484 1.6242,4.64684 1.6242,5.78223 0,5.47331 20.2235,5.14282 34.573,-0.56501 z m 16.958,-14.38485 c -0.3618,-0.58541 0.019,-1.32426 0.8472,-1.64189 2.0319,-0.77971 5.1218,-0.11288 5.1218,1.10534 0,1.37425 -5.1643,1.83848 -5.969,0.53655 z m -10.3419,-5.36742 c -0.5194,-0.65056 -1.2474,-2.17237 -1.6179,-3.3818 -0.4211,-1.37464 -1.2135,-1.99177 -2.114,-1.64625 -1.2829,0.49232 -3.2804,-2.1726 -2.3307,-3.1096 1.0007,-0.98738 5.8777,0.89268 6.3743,2.45724 0.311,0.9799 1.4505,2.0131 2.5323,2.29599 2.5756,0.67352 2.6025,4.2281 0.034,4.42161 -1.0633,0.0801 -2.3582,-0.38664 -2.8776,-1.03719 z m 6.8109,0.31717 c 0,-0.55 0.45,-1 1,-1 0.55,0 1,0.45 1,1 0,0.55 -0.45,1 -1,1 -0.55,0 -1,-0.45 -1,-1 z m 6.6705,-7.41615 c -0.3342,-0.87112 -1.2832,-1.58385 -2.1087,-1.58385 -0.8255,0 -3.157,-0.93013 -5.181,-2.06695 -2.6969,-1.51474 -3.8758,-1.7502 -4.4128,-0.88135 -0.493,0.79784 -1.4868,0.16563 -3.0384,-1.93305 -1.2682,-1.71526 -2.8695,-3.11865 -3.5586,-3.11865 -2.3034,0 -2.4526,-1.88595 -0.2429,-3.06857 1.8664,-0.99887 2.433,-0.83898 3.8949,1.09911 1.288,1.70756 1.8364,1.92224 2.2189,0.86874 0.4077,-1.12278 0.7699,-1.15228 1.8331,-0.14928 0.7287,0.6875 2.1192,1.25 3.0898,1.25 0.9707,0 2.2375,0.88324 2.8153,1.96276 0.614,1.14732 1.6637,1.7274 2.5267,1.39625 0.8383,-0.32168 1.7452,0.13425 2.0985,1.05494 0.3423,0.89181 1.3586,1.501 2.2585,1.35376 1.0601,-0.17346 1.7538,0.56352 1.9703,2.09328 0.2308,1.63074 -0.036,2.13239 -0.8618,1.62189 -0.6578,-0.40651 -1.533,-0.19373 -1.9449,0.47285 -0.5498,0.8896 -0.9107,0.79068 -1.3569,-0.37188 z m 21.8294,397.41615 c 4.7617,-2.75 8.9173,-5 9.2345,-5 0.3172,0 1.9692,-1.03734 3.6711,-2.30519 1.7019,-1.26786 5.3444,-3.62463 8.0944,-5.23726 2.75,-1.61264 5.7581,-3.3878 6.6847,-3.94481 9.381,-5.63923 23.7112,-14.30282 40.3153,-24.37341 11,-6.67161 20.5625,-12.13225 21.25,-12.13476 0.6875,-0.003 1.27683,-0.56707 1.30963,-1.25457 0.0678,-1.42229 0.0532,-248.05169 -0.0151,-254.36029 l -0.0445,-4.11028 -30.75,-0.71475 c -31.5496,-0.73333 -66.2606,-0.9287 -66.7196,-0.37553 -0.1418,0.17097 -0.5337,65.33585 -0.8708,144.81085 -0.3371,79.475 -0.8482,151.1375 -1.1358,159.25 -0.2875,8.1125 -0.3335,14.75 -0.1022,14.75 0.2314,0 4.3167,-2.25 9.0784,-5 z m 118.22232,-71.27982 c 10.87772,-6.7927 20.45268,-12.65241 21.27768,-13.02159 0.825,-0.36917 11.175,-6.58399 23,-13.8107 21.49632,-13.13723 33.64092,-20.49839 59,-35.76146 7.425,-4.46894 14.175,-8.56077 15,-9.09296 0.825,-0.53219 4.65,-2.79725 8.5,-5.03347 8.57522,-4.9808 9.96521,-5.80503 14.92545,-8.85048 2.159,-1.32556 11.3456,-6.6486 20.41468,-11.82898 9.06908,-5.18038 17.65262,-10.24729 19.07455,-11.25979 l 2.58532,-1.84092 -0.0809,-63.60748 c -0.0445,-34.98412 -0.28636,-63.81295 -0.53748,-64.06406 -0.77414,-0.77415 -35.50625,-1.45778 -103.88162,-2.04471 -36.025,-0.30924 -73.71645,-0.80056 -83.75878,-1.09183 -14.51687,-0.42104 -18.3512,-0.26132 -18.70976,0.77934 -0.24803,0.7199 -0.58158,58.29257 -0.74122,127.93926 l -0.29024,126.63036 2.22232,-0.84508 c 1.22228,-0.4648 11.12228,-6.40275 22,-13.19545 z M 129.55003,742.4659 c -0.1911,-5.05183 -1.8475,-5.18443 -1.8475,-0.1479 0,2.89236 0.6235,4.60765 1.6747,4.60765 0.1878,0 0.2655,-2.00689 0.1728,-4.45975 z m -0.3475,-109.54025 c -0.3399,-0.55 -0.8165,-1 -1.059,-1 -0.2426,0 -0.441,0.45 -0.441,1 0,0.55 0.4766,1 1.059,1 0.5825,0 0.7809,-0.45 0.441,-1 z m 478.08333,-15 c 1.89943,0 1.7879,-0.7126 -0.58333,-3.72713 -1.48095,-1.88272 -2,-2.1183 -2,-0.90773 0,0.89917 -0.45,1.63486 -1,1.63486 -1.39511,0 -1.24965,2.35035 0.2375,3.8375 0.79056,0.79056 1.3624,0.86279 1.58333,0.2 0.19021,-0.57063 0.98334,-1.0375 1.7625,-1.0375 z m 11.6,-12.21667 c -0.71756,-0.71756 -1.18333,-0.7766 -1.18333,-0.15 0,1.33478 1.18261,2.51739 1.85,1.85 0.28417,-0.28416 -0.0158,-1.04916 -0.66667,-1.7 z m 4.31667,-0.78333 c -0.33992,-0.55 -0.81648,-1 -1.05902,-1 -0.24254,0 -0.44098,0.45 -0.44098,1 0,0.55 0.47656,1 1.05902,1 0.58246,0 0.7809,-0.45 0.44098,-1 z m 31.5,-74.89301 c 0,-0.49116 -0.73865,-1.17646 -1.64144,-1.52289 -1.37248,-0.52667 -1.43434,-0.38034 -0.37756,0.89301 1.44013,1.73524 2.019,1.91584 2.019,0.62988 z m -1.50555,-14.11312 c -0.99854,-1.10337 -2.04793,-1.77372 -2.33199,-1.48967 -0.28405,0.28406 0.35069,1.1725 1.41054,1.97433 2.70408,2.04576 3.04783,1.86496 0.92145,-0.48466 z m 103.50555,-5.77815 c 0,-0.43135 -2.65873,-2.04695 -5.90828,-3.59022 -3.24956,-1.54327 -6.83797,-3.67208 -7.97424,-4.73068 -1.13628,-1.0586 -3.09005,-2.37469 -4.34172,-2.92462 -1.25167,-0.54994 -3.49995,-1.78071 -4.99619,-2.73505 -10.64233,-6.78792 -35.74123,-21.94361 -37.90152,-22.8864 -1.45087,-0.63319 -2.92098,-1.6092 -3.2669,-2.16891 -0.34593,-0.55972 -3.66245,-2.70166 -7.37005,-4.75987 -3.70761,-2.05821 -12.63584,-7.2697 -19.84053,-11.58109 -7.20469,-4.31138 -13.61719,-7.83888 -14.25,-7.83888 -0.63281,0 -1.15057,-0.36665 -1.15057,-0.81479 0,-1.00133 -7.059,-4.45954 -7.73108,-3.78746 -0.26591,0.26591 0.9148,3.06511 2.6238,6.22044 1.70901,3.15534 3.10728,6.27696 3.10728,6.93695 0,0.65998 0.69162,1.77396 1.53692,2.4755 0.84531,0.70155 1.46849,1.99415 1.38485,2.87245 -0.31915,3.3513 0.11607,5.19156 1.08604,4.59208 0.631,-0.38997 0.95033,1.17702 0.85406,4.19098 -0.31071,9.72759 0.10699,12.12339 2.63813,15.13148 2.86874,3.4093 3.28794,5.69871 0.87383,4.77233 -1.46466,-0.56204 -1.47984,-0.39886 -0.15284,1.64301 3.6454,5.60925 4.15399,6.72521 3.40508,7.47155 -0.43903,0.43751 -1.65949,-0.26687 -2.71215,-1.5653 -1.05266,-1.29844 -1.91392,-1.95094 -1.91392,-1.45 0,0.50093 0.5625,1.50703 1.25,2.23578 1,1.06 1,1.41667 0,1.78333 -2.06538,0.75731 -1.40702,2.14549 0.75,1.58142 1.54742,-0.40466 2,-0.0307 2,1.65264 0,1.32736 -0.4288,1.91063 -1.09977,1.49595 -0.79441,-0.49097 -0.80213,-0.12355 -0.0278,1.32333 1.67197,3.1241 1.45407,3.10738 49.83879,3.82365 25.18382,0.37281 45.97626,0.84363 46.20543,1.04626 0.775,0.68527 3.08333,0.37394 3.08333,-0.41586 z M 654.16141,481.85912 c -0.36253,-0.58659 -0.41903,-1.30665 -0.12555,-1.60014 0.71632,-0.71631 2.66667,0.54583 2.66667,1.72569 0,1.27797 -1.72641,1.19267 -2.54112,-0.12555 z m -0.45888,-6.93347 c 0,-0.55 0.45,-1 1,-1 0.55,0 1,0.45 1,1 0,0.55 -0.45,1 -1,1 -0.55,0 -1,-0.45 -1,-1 z m -7.53053,32.82238 c 2.09028,-2.399 3.23633,-28.61547 1.58783,-36.32238 -0.47057,-2.2 -1.35612,-6.45104 -1.96788,-9.44677 -2.37091,-11.61017 -10.75779,-25.37432 -17.86922,-29.32614 -8.87883,-4.93395 -17.85743,-10.16752 -20.2202,-11.78622 -10.18471,-6.97742 -25.52651,-15.02554 -27.63416,-14.49655 -2.62844,0.65969 -8.22014,5.22458 -13.23624,10.80566 -3.69878,4.11538 -5.1296,4.67353 -5.1296,2.00101 0,-1.65096 12.58113,-14.25099 14.22962,-14.25099 3.67531,0 -2.54836,-5.11874 -12.99965,-10.69172 -1.24851,-0.66575 -4.96784,-2.87564 -8.26517,-4.91087 -3.29732,-2.03522 -6.17743,-3.51812 -6.40023,-3.29532 -0.2228,0.2228 -0.63665,27.51598 -0.91967,60.6515 -0.47832,55.99985 -0.39583,60.25342 1.17026,60.34582 16.94173,0.9996 17.38626,0.7 13.50094,-9.09941 -2.76306,-6.96889 -0.23081,-24.73512 5.08129,-35.65031 1.9092,-3.92298 3.79644,-8.86902 4.19387,-10.99119 0.39742,-2.12218 1.34958,-5.36066 2.11591,-7.19663 0.76632,-1.83597 1.84386,-5.88597 2.39453,-9 3.55354,-20.09532 11.1172,-27.79633 18.8983,-19.24149 3.59583,3.95339 8,10.05317 8,11.08 0,0.61471 0.35273,0.89965 0.78385,0.63321 1.10446,-0.6826 15.66687,9.36363 20.83978,14.37683 4.16306,4.03453 12.37637,16.89393 12.37637,19.37742 0,0.66669 0.41513,1.63966 0.92251,2.16216 1.45131,1.49456 4.07749,12.79432 4.07749,17.54434 0,6.59076 -3.56985,-1.01156 -5.4444,-11.59434 -1.03634,-5.85065 -11.5556,-21.98217 -11.5556,-17.72077 0,0.36657 -1.35,-0.81157 -3,-2.61809 -1.65,-1.80652 -3,-2.9418 -3,-2.52286 0,0.41895 -0.50483,0.25689 -1.12186,-0.36014 -0.61702,-0.61702 -1.74202,-0.88387 -2.5,-0.59301 -0.81852,0.3141 -1.37814,-0.1237 -1.37814,-1.07814 0,-0.88385 -0.5625,-1.49449 -1.25,-1.35699 -0.6875,0.1375 -1.10536,-0.425 -0.92857,-1.25 0.26213,-1.2233 0.0807,-1.26321 -0.98363,-0.21637 -1.06738,1.04985 -1.50642,0.6856 -2.41065,-2 -0.60807,-1.806 -1.7236,-3.28363 -2.47894,-3.28363 -0.75535,0 -1.7818,-1.42416 -2.28101,-3.16481 -0.50165,-1.74914 -1.74851,-3.3847 -2.78743,-3.65638 -1.03387,-0.27036 -1.87977,-1.25748 -1.87977,-2.1936 0,-1.31615 -0.56679,-1.55977 -2.5,-1.07457 -1.50871,0.37867 -2.5,0.19999 -2.5,-0.4506 0,-0.59294 -0.44835,-0.80098 -0.99633,-0.46231 -2.49704,1.54326 2.36391,7.66236 13.90363,17.50227 8.25394,7.03812 19.81451,25.17037 21.58219,33.85071 0.18473,0.90711 1.12996,5.02429 2.10053,9.14929 0.97056,4.125 1.7678,10.74068 1.77163,14.70151 l 0.007,7.20151 4.06569,0.38184 c 4.09574,0.38467 9.51461,0.13493 10.03515,-0.46248 z M 762.98502,381.67568 c -0.11963,-69.98752 -0.23902,-150.65003 -0.26531,-179.25003 -0.028,-30.49669 -0.43499,-52.61232 -0.98411,-53.48072 -0.7585,-1.19955 -4.31607,-1.53202 -18.73468,-1.75085 -9.78912,-0.14857 -45.92339,-0.93868 -80.29839,-1.75581 -34.375,-0.81713 -74.3125,-1.64704 -88.75,-1.84424 l -26.25,-0.35855 -0.14886,15.09509 c -0.0819,8.30229 -0.0966,17.34508 -0.0326,20.09508 0.0639,2.75 0.0784,47.525 0.0321,99.5 -0.0463,51.975 -0.0148,96.525 0.07,99 0.15925,4.64986 1.24063,6.13676 6.07942,8.35929 1.375,0.63155 5.875,3.16063 10,5.62016 18.95808,11.30375 17.38777,10.64371 21.65319,9.10132 11.88772,-4.29866 30.97269,6.66033 44.2673,25.41923 5.5339,7.80841 6.01935,8.20357 20.27005,16.5 21.91141,12.75633 29.66422,17.33933 39.48153,23.33912 2.84464,1.73848 8.69464,5.22825 13,7.75503 4.30536,2.52678 11.65293,6.96882 16.32793,9.87121 16.01054,9.93985 26.50217,16.31316 31,18.83143 2.475,1.38573 6.075,3.54686 8,4.80252 1.925,1.25566 3.95,2.30951 4.5,2.34189 0.66281,0.039 0.92666,-42.84882 0.78249,-127.19117 z M 596.05793,506.40942 c -0.84194,-2.19404 -8.40482,-7.67878 -9.83271,-7.13085 -1.52423,0.5849 -3.889,-1.65328 -2.84735,-2.69493 0.3619,-0.36189 0.12442,-0.65799 -0.52773,-0.65799 -0.76542,0 -0.9633,0.88616 -0.55825,2.5 0.41473,1.65244 0.21017,2.5 -0.6034,2.5 -0.95955,0 -0.95204,0.33594 0.0341,1.52417 1.77738,2.14161 0.45561,3.01359 -2.51583,1.65971 -2.08124,-0.94827 -2.50423,-0.88129 -2.50423,0.39658 0,0.90108 -0.51744,1.27547 -1.25,0.9044 -0.6875,-0.34825 -0.50911,-0.0218 0.39642,0.72549 2.2494,1.85625 20.91327,2.10877 20.20898,0.27342 z m 32.6446,-7.3719 c 0,-12.83726 -4.22603,-26.57711 -12.58069,-40.90292 -1.05562,-1.81008 -6.79393,-7.88508 -12.75181,-13.5 -13.45724,-12.68261 -16.23508,-18.04287 -12.73728,-24.57857 3.017,-5.63731 -4.4525,-5.28054 -7.61171,0.36356 -4.84984,8.66449 -4.22411,15.4438 2.4465,26.50606 2.18061,3.61623 3.21694,6.50113 3.02576,8.42299 -0.41579,4.17975 -2.79077,4.60347 -2.79077,0.49789 0,-1.93835 -1.2747,-5.23224 -3.16453,-8.17728 -3.14352,-4.89874 -3.17318,-4.91593 -4.46457,-2.58755 -1.46925,2.64906 -1.79875,6.84395 -0.53757,6.84395 0.45834,0 0.83334,1.35 0.83334,3 0,3.2205 -1.33828,4.01936 -2.34377,1.39908 -0.33788,-0.88051 -0.0507,-1.94926 0.63815,-2.375 0.77577,-0.47946 0.87436,-1.00777 0.25902,-1.38807 -1.50669,-0.93119 -2.93962,1.35625 -4.30816,6.87729 -0.67985,2.74268 -1.71485,5.30111 -2.3,5.68539 -0.69471,0.45623 -0.32282,1.70105 1.0717,3.58724 1.39128,1.8818 1.83732,3.37118 1.27979,4.27329 -0.69829,1.12986 -0.97743,1.06778 -1.51659,-0.33725 -1.11012,-2.89292 -2.44681,-1.92159 -2.44681,1.77803 0,1.925 0.45,3.5 1,3.5 0.55,0 1,0.58131 1,1.29179 0,1.9123 7.4696,8.70909 16.06119,14.61451 4.15865,2.85845 9.30162,7.19889 11.42881,9.64544 l 3.86762,4.44826 13.32119,0 13.32119,0 0,-8.88813 z m -52,-31.67089 c 0,-0.85746 0.45,-1.2809 1,-0.94098 0.55,0.33992 1,1.04148 1,1.55902 0,0.51754 -0.45,0.94098 -1,0.94098 -0.55,0 -1,-0.70156 -1,-1.55902 z m -2.02006,-6.96515 c -0.69572,-0.83829 -0.98669,-1.80241 -0.64661,-2.1425 0.72629,-0.72629 3.66667,1.51036 3.66667,2.78911 0,1.37745 -1.62985,1.02849 -3.02006,-0.64661 z m -30.47994,-14.822 c 0,-62.85811 -0.10241,-64.65383 -3.6872,-64.65383 -0.9406,0 -11.5317,-6.10377 -40.8128,-23.52087 -8.525,-5.07088 -15.9614,-9.39063 -16.52534,-9.59945 -1.63544,-0.6056 -39.06385,-23.12228 -46.75362,-28.12667 -2.32157,-1.51085 -5.57104,-3.42651 -7.22104,-4.25702 -1.65,-0.83052 -7.275,-4.20074 -12.5,-7.48939 -5.225,-3.28864 -10.4865,-6.41446 -11.69222,-6.94626 -1.20572,-0.5318 -5.85387,-3.23793 -10.32921,-6.01362 -4.47534,-2.7757 -8.36694,-5.04672 -8.648,-5.04672 -0.28106,0 -2.15792,-1.13422 -4.17079,-2.52048 -9.73364,-6.70355 -43.68553,-26.35377 -44.3633,-25.676 -0.68716,0.68716 -1.25978,241.10189 -0.57573,241.72615 0.47419,0.43275 59.45077,1.45023 119.77925,2.06646 31.625,0.32304 57.6875,0.77106 57.91667,0.99561 0.22916,0.22454 6.97916,0.40816 15,0.40805 l 14.58333,-2.2e-4 0,-61.34574 z m 109.62409,59.0795 c -0.98762,-0.98026 -1.10248,-0.8654 -0.5598,0.5598 0.37553,0.98622 0.93469,1.54122 1.24258,1.23333 0.30789,-0.30789 6.4e-4,-1.11479 -0.68278,-1.79313 z m -84.33025,-0.48333 c -0.19294,-1.14907 0.30709,-1.70231 1.45616,-1.61111 0.9625,0.0764 1.75,-0.43611 1.75,-1.13889 0,-1.56597 -3.21466,-1.44192 -4.25159,0.16406 -0.41338,0.64023 -0.47774,1.87773 -0.14302,2.75 0.81409,2.12148 1.55503,2.0192 1.18845,-0.16406 z M 333.02132,382.32839 c -0.0997,-66.94515 -0.42408,-122.68611 -0.72092,-123.86882 -0.30919,-1.23193 -2.36733,-3.08269 -4.81879,-4.33326 -2.35349,-1.20059 -8.32908,-4.6489 -13.27908,-7.66292 -4.95,-3.01402 -11.0789,-6.5959 -13.6198,-7.95974 -2.5408,-1.36384 -8.1658,-4.75176 -12.5,-7.52872 -4.3341,-2.77695 -8.4052,-5.04907 -9.0469,-5.04915 -0.6416,-7e-5 -1.3166,-0.33763 -1.5,-0.75013 -0.4538,-1.02109 -8.2303,-6.25 -9.295,-6.25 -0.4698,0 -5.1707,-2.63784 -10.4463,-5.86187 -14.1474,-8.64575 -21.1845,-12.37897 -21.9298,-11.63393 -0.7628,0.76259 -1.7943,191.39454 -1.3918,257.21918 l 0.2705,44.22339 14.7295,0.27661 c 8.1013,0.15214 30.2546,0.41639 49.2296,0.58722 l 34.5,0.3106 -0.18121,-121.71846 z m 234.68121,116.7197 c 0,-0.48265 -0.6396,-1.40837 -1.42133,-2.05715 -1.16625,-0.9679 -1.32478,-0.81041 -0.88336,0.87756 0.52561,2.00995 2.30469,2.92052 2.30469,1.17959 z m 2,-4.68146 c 0,-0.24254 -0.45,-0.44098 -1,-0.44098 -0.55,0 -1,0.47656 -1,1.05902 0,0.58246 0.45,0.7809 1,0.44098 0.55,-0.33992 1,-0.81648 1,-1.05902 z m 53.86503,-70.94516 c -7.16735,-12.14776 -28.00083,-23.87697 -35.22724,-19.83287 -1.79322,1.00354 1.48855,3.40699 17.19307,12.59157 20.96198,12.25934 21.00511,12.27666 18.03417,7.2413 z m -79.26608,-162.24582 -0.2373,-117.75 -27.43082,-0.13461 c -15.08696,-0.074 -61.63083,-0.29903 -103.43083,-0.5 l -76,-0.36539 -0.26174,56.71825 -0.26173,56.71825 3.26173,1.66606 c 3.42393,1.7489 23.76201,13.96165 29.76174,17.87153 3.4783,2.26673 34.58549,20.88137 42.40848,25.37738 3.33511,1.91675 34.05564,19.89924 39.59152,23.1752 0.825,0.4882 5.1,3.00658 9.5,5.59638 4.4,2.5898 12.5,7.5835 18,11.0971 9.80497,6.26379 23.08314,14.37042 39,23.81042 4.4,2.60956 9.575,5.76446 11.5,7.01089 3.85117,2.49362 13.11201,7.33838 14.16812,7.41198 0.36747,0.0256 0.56134,-52.94094 0.43083,-117.70344 z m -181.59895,6.30902 c 0,-0.85746 0.45,-1.55902 1,-1.55902 0.55,0 1,0.42344 1,0.94098 0,0.51754 -0.45,1.2191 -1,1.55902 -0.55,0.33992 -1,-0.0835 -1,-0.94098 z m -29.6591,-70.89857 c -0.0875,-30.1466 -0.31623,-54.96911 -0.50826,-55.16115 -0.50214,-0.50213 -95.76084,-0.90442 -96.25874,-0.4065 -0.2286,0.22851 -0.6823,12.38682 -1.0083,27.01846 l -0.5928,26.60298 8.2636,4.88032 c 4.545,2.68417 10.0636,5.8339 12.2636,6.99939 7.5057,3.97631 27.2442,15.83875 59,35.45786 8.8,5.43675 16.675,9.78051 17.5,9.65281 1.31451,-0.20347 1.48032,-7.0103 1.3409,-55.04417 z m -198.0624,2.77883 c 0.1781,-1.0666 1.0514,-3.51428 1.9407,-5.43928 0.8893,-1.925 2.5411,-5.525 3.6706,-8 3.4859,-7.63775 11.4834,-21.42025 13.8228,-23.82143 1.2352,-1.26781 1.6871,-2.74122 1.381,-4.5029 -0.079,-0.45338 0.2708,-0.56847 0.7768,-0.25574 0.8591,0.53092 2.5763,-2.3066 1.8409,-3.04195 -1.1465,-1.14652 -21.3864,-12.37798 -22.306,-12.37798 -1.7955,0 -2.3873,8.74596 -2.3966,35.41667 -0.01,22.45973 0.3014,27.82322 1.2698,22.02261 z m 96.4876,-33.20287 c 0.1464,-13.80415 -0.1131,-25.33286 -0.5767,-25.61934 -0.4635,-0.28649 -12.4312,-0.83714 -26.5949,-1.22367 l -25.752,-0.70278 -6.4213,6.77832 c -6.2684,6.617 -7.8143,9.53106 -5.0561,9.53106 0.7509,0 2.469,0.86825 3.8181,1.92944 2.1433,1.68596 8.7324,5.44615 25.8001,14.72335 2.4658,1.3403 5.3908,3.25518 6.5,4.25529 1.1092,1.00012 4.5548,3.18762 7.6569,4.86112 3.1022,1.6735 8.5022,4.87501 12.0001,7.11447 3.4978,2.23945 6.8097,3.93211 7.3597,3.76146 0.6225,-0.19313 1.1005,-9.78604 1.2661,-25.40872 z m -64.8778,-19.89439 c 1.3135,-1.56311 3.2662,-3.81378 4.3392,-5.00149 l 1.951,-2.15948 -16.0892,-0.12987 c -8.8491,-0.0714 -16.0893,0.0715 -16.0893,0.3177 0,0.41374 8.9041,5.56574 16.8868,9.77092 3.8349,2.02012 5.348,1.54982 9.0015,-2.79778 z m 591.1117,-4.63072 c 0,-3.40236 -37.74873,-39.24606 -58.5,-55.547734 -4.4,-3.456528 -9.97914,-7.944865 -12.39808,-9.974081 -2.41895,-2.029216 -5.06344,-4.081236 -5.87664,-4.560044 -0.81321,-0.478809 -5.80907,-4.104415 -11.10192,-8.056904 C 636.87115,38.888898 581.60529,16.925651 552.63596,16.925651 l -3.93343,0 -0.0439,9.25 c -0.0242,5.0875 -0.2869,32.688336 -0.58387,61.335191 l -0.53994,52.085188 59.33387,0.66824 c 65.11522,0.73334 115.10166,1.72443 115.75054,2.295 1.31404,1.15548 35.0833,0.2677 35.0833,-0.92232 z m -213.02338,-63.518503 -0.0268,-61.960421 -8.72491,-0.733039 c -36.59552,-3.074636 -96.6164,3.303517 -141.72492,15.060478 -7.7,2.006907 -15.575,3.714457 -17.5,3.794554 -1.925,0.0801 -3.85986,0.708132 -4.29969,1.395632 -0.43983,0.6875 -1.40065,1.25 -2.13517,1.25 -2.33949,0 -30.58616,8.788708 -31.79465,9.892634 -0.40123,0.366514 -0.89373,21.015609 -1.09443,45.886876 l -0.36491,45.220489 12.09443,0.0488 c 28.38602,0.11446 133.09532,1.11791 133.26401,1.2771 0.10148,0.0958 14.16811,0.32111 31.25918,0.50075 l 31.07466,0.32661 -0.0268,-61.960423 z M 333.21467,136.68185 c 0.24978,-0.69091 0.57422,-20.7479 0.721,-44.571089 l 0.26686,-43.314886 -3.2073,0.60219 c -4.11061,0.771793 -35.1381,13.850176 -47.2927,19.934322 -21.3838,10.703924 -42.7329,22.437664 -46.25,25.419544 -1.5576,1.32055 -1.75,3.65651 -1.75,21.243379 l 0,19.75969 6.75,0.39144 c 3.7125,0.2153 22.0311,0.49732 40.708,0.62671 18.677,0.1294 34.05501,0.32914 34.17345,0.44388 1.02817,0.99602 15.5035,0.50819 15.88069,-0.53518 z m -53.51214,-1.7562 c 0,-0.55 0.45,-1 1,-1 0.55,0 1,0.45 1,1 0,0.55 -0.45,1 -1,1 -0.55,0 -1,-0.45 -1,-1 z m -48,-17.61663 c 0,-10.11085 -0.2827,-18.383369 -0.6283,-18.383369 -1.0489,0 -10.547,5.752179 -16.0878,9.743029 -2.8688,2.06633 -9.3938,6.76631 -14.5,10.44439 -9.1671,6.60331 -17.6061,14.32374 -16.6748,15.25506 0.2636,0.26356 7.2094,0.55724 15.4351,0.65263 8.2257,0.0954 18.1058,0.46229 21.9558,0.81534 11.3789,1.04349 10.5,2.59433 10.5,-18.52708 z m 630.77559,859.74289 c 5.00722,-4.61415 5.21864,-5.00808 4.1561,-7.74385 -0.61573,-1.58533 -2.37635,-6.25741 -3.91251,-10.38241 -1.53616,-4.125 -3.70804,-9.525 -4.82641,-12 -5.65473,-12.5142 -7.55119,-18.95758 -5.14137,-17.46823 1.0714,0.66216 9.6209,18.11489 11.98616,24.46823 0.71665,1.925 2.57637,6.07467 4.13272,9.22148 3.78574,7.65449 3.62746,9.78503 -1.09188,14.69692 -3.05314,3.1777 -4.65869,4.08024 -7.25,4.07545 l -3.3284,-0.006 5.27559,-4.86144 z m -14.57279,-52.37626 c -1.79451,-3.5569 -6.25545,-13.78124 -8.39889,-19.25 -6.4443,-16.44196 -17.80391,-48.96955 -17.80391,-50.98047 0,-0.79842 -0.61623,-2.92944 -1.3694,-4.7356 -3.12342,-7.49023 -7.59396,-23.35315 -7.61879,-27.03393 -0.0379,-5.61615 3.10182,1.34434 6.42784,14.25 3.65379,14.17749 10.80597,34.63171 21.33318,61.00984 9.35443,23.43946 10.22717,25.78708 10.22717,27.5104 0,2.20379 -1.50597,1.78911 -2.7972,-0.77024 z m -719.5793,-40.28866 c -0.9282,-2.41885 -0.7247,-12.75327 0.2825,-14.34347 1.4563,-2.29946 2.1626,1.71187 1.563,8.87765 -0.5851,6.9922 -0.9008,7.92747 -1.8455,5.46582 z m 416.31877,-3.15232 c -0.10728,-7.07787 -0.12821,-21.7909 -0.0349,-24.55902 0.051,-1.5125 0.55264,-2.75 1.11484,-2.75 1.30105,0 1.20269,29.74299 -0.10102,30.54873 -0.50664,0.31312 -0.94714,-1.14475 -0.97889,-3.23971 z m 11.05773,-3.84886 c 0,-3.28706 11.0822,-21.71355 11.78717,-19.59865 0.33404,1.00212 -10.51854,21.13849 -11.39267,21.13849 -0.21697,0 -0.3945,-0.69293 -0.3945,-1.53984 z m -427.9297,-21.12683 c 0.075,-12.71794 1.191,-18.6949 2.3017,-12.33333 1.0747,6.15558 0.2654,23.28812 -1.122,23.75027 -0.9556,0.31832 -1.2335,-2.37069 -1.1797,-11.41694 z m 440.93092,-2.08333 c 6.7e-4,-0.9625 1.18026,-3.1 2.62132,-4.75 2.52659,-2.89295 2.59277,-2.91079 1.85464,-0.5 -1.51794,4.95772 -4.47818,8.42987 -4.47596,5.25 z m -24.50122,-2.25 c -0.7292,-1.17987 0.21667,-3 1.55902,-3 0.51754,0 0.94098,0.9 0.94098,2 0,2.10908 -1.45488,2.69104 -2.5,1 z m 29.98789,-7.01959 c -0.35767,-0.57872 0.67046,-3.17356 2.28473,-5.76631 1.61426,-2.59276 4.62639,-7.8641 6.69361,-11.7141 2.06722,-3.85 4.0455,-7.225 4.39618,-7.5 0.35067,-0.275 2.00569,-3.2 3.67781,-6.5 2.91062,-5.74423 7.80002,-14.42889 13.71866,-24.36735 1.51738,-2.54796 3.40388,-6.01847 4.19222,-7.71226 0.78834,-1.69378 2.20899,-3.71878 3.157,-4.5 2.39765,-1.97581 1.1036,3.35938 -1.67009,6.88555 -1.06591,1.35508 -1.93801,2.92312 -1.93801,3.48453 0,0.56141 -1.125,2.4957 -2.5,4.29842 -1.375,1.80272 -2.5,3.57022 -2.5,3.92778 0,0.35756 -4.58566,8.82509 -10.19035,18.81672 -5.6047,9.99164 -11.70351,20.96727 -13.55292,24.3903 -3.60859,6.67906 -4.74565,7.91228 -5.76884,6.25672 z M 128.52023,832.1372 c -0.5443,-3.70877 0.063,-56.27448 0.67,-57.96155 0.2472,-0.6875 0.9568,-1.25 1.5769,-1.25 1.5206,0 0.7825,59.55292 -0.7572,61.09257 -0.7444,0.74438 -1.1862,0.18644 -1.4897,-1.88102 z m 486.20042,-58.90253 c 0.01,-0.99496 1.42187,-4.28402 3.13759,-7.30902 1.71571,-3.025 4.55382,-8.2 6.30691,-11.5 1.75309,-3.3 4.91202,-8.925 7.01984,-12.5 2.10783,-3.575 5.6365,-9.7625 7.84151,-13.75 2.205,-3.9875 4.63571,-7.25 5.40158,-7.25 0.76587,0 1.19432,0.3375 0.95212,0.75 -0.24221,0.4125 -1.4134,2.775 -2.60265,5.25 -1.18926,2.475 -3.15515,6.17547 -4.36865,8.22326 -1.2135,2.04779 -3.72893,6.54779 -5.58983,10 -5.92993,11.00076 -14.45052,25.26526 -15.29763,25.61007 -0.4504,0.18334 -0.81891,0.94428 -0.81891,1.69099 0,0.7467 -0.45,1.63576 -1,1.97568 -0.55,0.33992 -0.99185,-0.19602 -0.98188,-1.19098 z m 30.02525,-54.55902 c 0.0239,-0.6875 1.12556,-3.05 2.44824,-5.25 3.16374,-5.26223 4.16443,-7.07763 10.74878,-19.5 3.06099,-5.775 8.83102,-16.35 12.82229,-23.5 3.99128,-7.15 7.93457,-14.35 8.76287,-16 0.82831,-1.65 2.32528,-4.06539 3.3266,-5.36754 1.00133,-1.30214 1.5322,-2.83417 1.17972,-3.40451 -0.35249,-0.57033 -0.21925,-0.77638 0.29609,-0.45789 0.51533,0.3185 2.25389,-1.97447 3.86346,-5.09549 1.60957,-3.12101 3.67561,-6.79957 4.59122,-8.17457 0.9156,-1.375 4.69273,-7.9 8.39362,-14.5 5.64524,-10.06747 14.76727,-25.65433 32.12222,-54.88738 1.59584,-2.68806 3.73036,-6.28806 4.7434,-8 2.68232,-4.5329 3.65812,-5.33346 3.65812,-3.00118 0,1.10629 -0.9,2.97747 -2,4.15819 -1.1,1.18071 -2,2.6245 -2,3.20843 0,0.9529 -2.26231,5.10301 -5.75636,10.55982 -0.69101,1.07917 -1.55435,2.63712 -1.91856,3.46212 -0.3642,0.825 -5.83814,10.5 -12.1643,21.5 -10.70223,18.60914 -24.16078,42.57223 -24.16078,43.01851 0,0.10697 -2.30344,4.19657 -5.11876,9.08799 -2.81532,4.89143 -5.52092,9.7935 -6.01244,10.8935 -0.49153,1.1 -1.8629,3.575 -3.0475,5.5 -1.1846,1.925 -3.25106,5.525 -4.59214,8 -1.34107,2.475 -3.6268,6.525 -5.07939,9 -1.45258,2.475 -3.31802,5.7093 -4.14542,7.18734 -15.32334,27.3732 -21.11839,36.09927 -20.96098,31.56266 z m -47.50066,-85.6809 c -0.31644,-0.512 -0.11799,-1.21356 0.44098,-1.55902 0.55897,-0.34546 1.01631,0.0734 1.01631,0.9309 0,1.75653 -0.60006,2.01516 -1.45729,0.62812 z m 26.90344,-32.15623 c -0.36954,-0.59793 -0.15236,-1.60666 0.48262,-2.24164 1.25425,-1.25425 3.40826,0.97443 2.44623,2.53102 -0.69877,1.13063 -2.13919,0.98831 -2.92885,-0.28938 z m 4.79135,-1.07537 c -1.50205,-1.50205 -1.62749,-3.8375 -0.20612,-3.8375 1.20795,0 2.31473,2.46167 1.80045,4.00451 -0.23856,0.71567 -0.76701,0.66031 -1.59433,-0.16701 z m 2.45635,-2.47698 c -0.35171,-0.35171 -0.39562,-1.03405 -0.0976,-1.51631 0.63919,-1.03422 2.40372,-0.14245 2.40372,1.21481 0,1.07509 -1.35536,1.25229 -2.30615,0.3015 z m 2.80615,-2.36052 c -0.81551,-1.31952 0.38021,-3.19207 1.5691,-2.45729 1.21461,0.75067 1.20672,3.45729 -0.0101,3.45729 -0.51754,0 -1.2191,-0.45 -1.55902,-1 z m -8.42105,-7.41667 c -0.0434,-1.05416 0.19293,-1.64479 0.52522,-1.3125 0.33229,0.33229 0.36781,1.1948 0.0789,1.91667 -0.31922,0.79773 -0.55618,0.56078 -0.60416,-0.60417 z m 4.504,-7.44912 c -0.43077,-0.697 -0.51316,-1.53733 -0.18309,-1.86741 0.89497,-0.89496 1.87077,0.4213 1.38739,1.87145 -0.33872,1.01617 -0.57427,1.01538 -1.2043,-0.004 z m -75.01886,-4.63478 c -2.75486,-2.12287 -3.31823,-11.52638 -1.08162,-18.05388 1.95343,-5.70104 3.19424,-14.98204 1.89561,-14.17874 -2.02944,1.25537 -0.5422,-18.55355 1.61172,-21.46688 4.33813,-5.86764 10.67892,-2.63607 16.08972,8.20007 5.03745,10.08844 9.35965,13.86609 10.10093,8.82833 0.17575,-1.19442 0.88205,-2.35692 1.56955,-2.58334 1.97419,-0.65015 1.53685,5.42742 -0.5,6.94831 -0.9625,0.71868 -1.88388,2.2067 -2.04751,3.3067 -0.50381,3.38686 -1.14954,4.65076 -2.08174,4.07463 -0.49135,-0.30367 -1.12684,0.34066 -1.4122,1.43186 -0.43835,1.67626 -0.14576,1.89036 1.88631,1.38034 3.94309,-0.98965 2.91614,2.00923 -1.74416,5.09327 -5.12528,3.39175 -8.09853,6.56682 -12.19233,13.0199 -3.49987,5.51687 -8.1357,7.04988 -12.09428,3.99943 z m 80.97862,-0.43033 c -0.31644,-0.512 -0.11799,-1.21356 0.44098,-1.55902 0.55897,-0.34546 1.01631,0.0734 1.01631,0.9309 0,1.75653 -0.60006,2.01516 -1.45729,0.62812 z m 7.95729,-1.0691 c -0.33992,-0.55 -0.14148,-1 0.44098,-1 0.58246,0 1.05902,0.45 1.05902,1 0,0.55 -0.19844,1 -0.44098,1 -0.24254,0 -0.7191,-0.45 -1.05902,-1 z m -10.75,-2.9629 c -1.93301,-1.88316 -2.31995,-4.0371 -0.72525,-4.0371 0.93035,0 3.40952,4.96123 2.75323,5.50968 -0.15289,0.12776 -1.06548,-0.5349 -2.02798,-1.47258 z m -27.75,-1.47808 c 0,-1.34254 0.4176,-2.69908 0.928,-3.01452 1.12795,-0.69711 2.45125,3.03285 1.57753,4.44655 -1.13315,1.83348 -2.50553,1.0491 -2.50553,-1.43203 z m 39.67646,0.0402 c -0.32401,-0.84435 -0.18986,-1.78194 0.29812,-2.08353 1.30755,-0.80811 2.41625,1.49346 1.27107,2.63864 -0.64011,0.64011 -1.18443,0.44756 -1.56919,-0.55511 z m -3.98261,-0.23872 c -0.35171,-0.35171 -0.39562,-1.03405 -0.0976,-1.51631 0.63919,-1.03422 2.40372,-0.14245 2.40372,1.21481 0,1.07509 -1.35536,1.25229 -2.30615,0.3015 z m -2.69385,-4.3605 c 0,-0.55 0.45,-1 1,-1 0.55,0 1,0.45 1,1 0,0.55 -0.45,1 -1,1 -0.55,0 -1,-0.45 -1,-1 z m 3.58295,-1.86579 c -0.43077,-0.697 -0.51316,-1.53733 -0.18309,-1.86741 0.89497,-0.89496 1.87077,0.4213 1.38739,1.87145 -0.33872,1.01617 -0.57427,1.01538 -1.2043,-0.004 z m -6.93229,-3.60218 c -0.60135,-1.5671 0.6431,-2.90493 1.70986,-1.83818 0.95301,0.95302 0.77257,3.30615 -0.25353,3.30615 -0.49116,0 -1.1465,-0.66059 -1.45633,-1.46797 z m 13.93229,0.60218 c -0.43077,-0.697 -0.51316,-1.53733 -0.18309,-1.86741 0.89497,-0.89496 1.87077,0.4213 1.38739,1.87145 -0.33872,1.01617 -0.57427,1.01538 -1.2043,-0.004 z m -7.00267,-3.80126 c -2.33995,-3.44354 -2.55962,-5.33295 -0.62004,-5.33295 0.93269,0 5.03976,6.56605 5.03976,8.05716 0,2.03044 -2.04565,0.76955 -4.41972,-2.72421 z m 5.41972,-7.89197 c 0,-0.85746 0.45,-1.2809 1,-0.94098 0.55,0.33992 1,1.04148 1,1.55902 0,0.51754 -0.45,0.94098 -1,0.94098 -0.55,0 -1,-0.70156 -1,-1.55902 z m -2,-3.44098 c 0,-0.55 0.45,-1 1,-1 0.55,0 1,0.45 1,1 0,0.55 -0.45,1 -1,1 -0.55,0 -1,-0.45 -1,-1 z m 3.27814,-2.12186 c -1.67851,-1.67851 -0.43805,-4.25574 1.33864,-2.78122 1.49256,1.23872 1.89069,3.90308 0.58322,3.90308 -0.44,0 -1.30483,-0.50483 -1.92186,-1.12186 z m 4.27465,0.20727 c -0.32198,-0.52097 -0.15917,-1.21065 0.3618,-1.53262 0.52097,-0.32198 1.21065,-0.15917 1.53262,0.3618 0.32198,0.52097 0.15917,1.21065 -0.3618,1.53262 -0.52097,0.32198 -1.21065,0.15917 -1.53262,-0.3618 z m 92.25471,0.38876 c -0.66432,-0.66432 5.42922,-12.45517 6.4425,-12.46609 1.62903,-0.0175 0.59795,3.55377 -2.35425,8.15437 -3.29875,5.14066 -3.27955,5.12042 -4.08825,4.31172 z m 17.77545,-5.33996 c -0.43077,-0.697 -0.51316,-1.53733 -0.18309,-1.86741 0.89497,-0.89496 1.87077,0.4213 1.38739,1.87145 -0.33872,1.01617 -0.57427,1.01538 -1.2043,-0.004 z"
     id="path3247"
     inkscape:connector-curvature="0" />
</svg>
