<?xml version="1.0" encoding="UTF-8" standalone="no"?>
<!-- Created with Inkscape (http://www.inkscape.org/) -->

<svg
   xmlns:dc="http://purl.org/dc/elements/1.1/"
   xmlns:cc="http://creativecommons.org/ns#"
   xmlns:rdf="http://www.w3.org/1999/02/22-rdf-syntax-ns#"
   xmlns:svg="http://www.w3.org/2000/svg"
   xmlns="http://www.w3.org/2000/svg"
   version="1.1"
   width="817.74689"
   height="950.05127"
   id="svg2">
  <defs
     id="defs4" />
  <metadata
     id="metadata7">
    <rdf:RDF>
      <cc:Work
         rdf:about="">
        <dc:format>image/svg+xml</dc:format>
        <dc:type
           rdf:resource="http://purl.org/dc/dcmitype/StillImage" />
        <dc:title></dc:title>
      </cc:Work>
    </rdf:RDF>
  </metadata>
  <g
     transform="translate(-23.72012,-35.540896)"
     id="layer1">
    <path
       d="m 719.33029,985.07101 c -0.2814,-0.2814 -0.3653,-13.11584 -0.1864,-28.52097 0.2119,-18.2437 -0.024,-28.0091 -0.6758,-28.0091 -0.5506,0 -1.0011,0.5022 -1.0011,1.116 0,1.3047 -6.3279,10.1482 -10.1288,14.1554 -3.0012,3.1641 -14.0706,8.7601 -21.1724,10.7034 -5.0502,1.3819 -17.5449,0.9386 -23.1988,-0.823 -3.4475,-1.0742 -26.1051,-6.3951 -35,-8.2195 -8.6457,-1.7731 -15.5566,-3.5652 -19,-4.9266 -1.65,-0.6524 -7.275,-2.4553 -12.5,-4.0064 -8.6018,-2.5536 -22.1143,-7.4226 -35.5,-12.7919 -2.75,-1.1031 -9.725,-3.8971 -15.5,-6.2089 -5.775,-2.3118 -12.75,-5.2333 -15.5,-6.4922 -9.5687,-4.3804 -25.0856,-11.77729 -38.5375,-18.37085 -21.83541,-10.70283 -20.733,-10.25236 -48.27184,-19.72489 -11.80978,-4.0622 -22.1822,-6.69466 -41,-10.40556 -36.33422,-7.16516 -39.95556,-7.93784 -52.69069,-11.2426 -6.325,-1.64133 -13.22814,-3.39573 -15.34031,-3.89867 -4.84894,-1.1546 -13.57439,-4.81936 -24.57869,-10.32326 -13.83976,-6.92207 -13.53049,-6.69282 -30.19755,-22.38452 -6.85361,-6.45255 -9.59525,-10.97073 -14.48367,-23.86894 -1.29509,-3.41712 -3.20139,-8.14212 -4.23622,-10.5 -3.05928,-6.97061 -9.7586,-24.77043 -12.04483,-32.00263 -3.11041,-9.83939 -12.80868,-48.68572 -13.67732,-54.78442 -0.27418,-1.925 -1.1293,-6.2 -1.90026,-9.5 -1.38855,-5.94354 -2.61528,-11.86923 -4.65791,-22.5 -0.58124,-3.025 -1.68538,-8.425 -2.45366,-12 -1.56306,-7.27332 -3.80925,-19.99968 -5.91271,-33.5 -0.77125,-4.95 -2.14759,-11.7 -3.05853,-15 -0.91094,-3.3 -2.4672,-9.15 -3.45834,-13 -4.7862,-18.59152 -7.93544,-27.5 -9.72153,-27.5 -1.10655,0 -3.6365,3.01613 -6.90986,8.23774 -2.68406,4.28156 -10.56905,14.76266 -13.36861,17.77017 -0.825,0.88629 -3.3,4.2065 -5.5,7.37826 -4.47584,6.45287 -12.34267,16.58503 -14.06397,18.11383 -0.61925,0.55 -2.12633,2.4625 -3.34906,4.25 -1.22274,1.7875 -2.68404,3.25 -3.24733,3.25 -0.5633,0 -2.15002,0.88559 -3.52605,1.96797 -2.01491,1.58493 -3.40806,1.84592 -7.15773,1.34095 -2.56072,-0.34486 -5.66781,-1.34295 -6.90464,-2.21797 -3.35592,-2.37422 -5.67983,-11.10936 -5.61106,-21.09095 0.0531,-7.71479 0.5293,-9.74709 5.1544,-22 5.40747,-14.32561 8.19387,-24.7657 8.22354,-30.81205 0.01,-2.02837 1.14018,-9.98795 2.51161,-17.68795 1.37144,-7.7 2.77557,-16.13408 3.1203,-18.74241 0.76875,-5.81664 2.90321,-8.08908 4.9582,-5.27871 0.76549,1.04686 1.39198,2.82987 1.3922,3.96225 3.7e-4,1.82459 -2.15969,13.82597 -5.01889,27.88516 -0.53984,2.65446 -0.98152,7.06633 -0.98152,9.80416 0,5.53536 -2.89703,16.55806 -8.9082,33.89416 -2.19785,6.33853 -4.27081,13.31353 -4.6066,15.5 -0.75172,4.89487 1.69472,16.91173 3.95039,19.40421 2.47086,2.73028 8.84691,0.87488 12.38266,-3.60329 1.47496,-1.8681 4.36925,-5.27505 6.43175,-7.57101 2.0625,-2.29596 3.75,-4.57654 3.75,-5.06795 0,-0.49141 2.84697,-4.33442 6.32659,-8.54002 3.47962,-4.2056 10.26611,-13.13423 15.08108,-19.8414 4.81498,-6.70717 9.39301,-12.72477 10.17341,-13.37244 2.0919,-1.73612 1.85213,-3.15663 -3.11617,-18.46194 -2.4943,-7.68392 -5.39032,-17.34577 -6.4356,-21.47077 -2.42175,-9.557 -3.66671,-30.97134 -2.13049,-36.64626 1.29508,-4.78416 6.97796,-10.81812 11.84684,-12.57873 5.20001,-1.88035 3.75825,-2.73007 -1.99566,-1.17618 -2.8875,0.7798 -10.11419,2.11035 -16.05932,2.9568 -5.94513,0.84644 -11.93394,1.96656 -13.30847,2.48915 -2.35833,0.89664 -2.41134,1.07555 -0.94068,3.17521 1.94209,2.77272 2.02066,9.99462 0.14775,13.57967 -3.20644,6.1376 -11.28194,11.13268 -20.28525,12.54738 -4.65322,0.73116 -8.98389,-0.71252 -9.74554,-3.2488 -1.58341,-5.27272 -1.27773,-7.38229 1.996,-13.77495 1.88172,-3.67445 3.25649,-6.84564 3.05505,-7.04708 -0.20144,-0.20145 -2.3335,0.0885 -4.7379,0.64431 -2.4044,0.55582 -14.04664,2.83167 -25.87164,5.05744 -24.04598,4.52608 -27.47644,5.20201 -41,8.0785 -5.225,1.11136 -13.325,2.67257 -18,3.46936 -4.675,0.79678 -12.17512,2.19191 -16.66694,3.10029 -4.49182,0.90839 -8.95921,1.34759 -9.92754,0.97601 -3.27505,-1.25676 0.63948,-3.19445 9.09448,-4.50177 4.4,-0.68033 17.9,-3.19483 30,-5.58777 24.50934,-4.84706 55.31967,-10.7363 81,-15.48273 31.87868,-5.89206 58.98976,-11.07689 65.5,-12.52648 3.575,-0.79602 16.85,-3.47894 29.5,-5.96206 28.36293,-5.56745 32.94936,-6.48047 38,-7.56463 2.2,-0.47225 11.07278,-2.02729 19.71728,-3.45565 8.6445,-1.42836 24.6195,-4.43707 35.5,-6.68602 10.8805,-2.24894 21.58272,-4.44435 23.78272,-4.87867 4.62569,-0.9132 23.89444,-4.66499 30.5,-5.93861 23.75923,-4.58102 31.67912,-6.14653 35.28666,-6.97505 2.31734,-0.53221 8.26334,-1.69729 13.21334,-2.58907 4.95,-0.89178 18,-3.35978 29,-5.48444 11,-2.12467 32.82503,-6.34089 48.50003,-9.36939 15.675,-3.0285 32.55,-6.22791 37.5,-7.10979 4.95,-0.88188 12.3513,-2.30337 16.4475,-3.15886 4.0961,-0.85549 10.8461,-2.13728 15,-2.84842 10.7772,-1.84507 29.111,-5.33347 32.0525,-6.09869 2.2287,-0.5798 1.9908,-0.78584 -2.1923,-1.89887 -11.5195,-3.06502 -27.2374,-15.25977 -37.734,-29.27593 -6.2891,-8.3979 -12.7207,-21.54322 -14.9969,-30.65177 -2.3855,-9.54611 -2.7088,-25.1092 -0.6251,-30.09607 0.8515,-2.0381 1.5483,-4.48596 1.5483,-5.4397 0,-0.95374 1.5544,-3.76984 3.4542,-6.25799 3.7734,-4.94187 7.9574,-6.78059 10.2386,-4.49945 1.8602,1.8602 0.6455,4.61274 -2.3695,5.36947 -8.2226,2.06374 -11.6342,22.67579 -6.8467,41.36629 1.8266,7.13099 10.3193,25.29992 13.6028,29.10131 6.729,7.7904 15.098,15.49084 20.8569,19.19087 8.1158,5.2143 9.8712,6.05112 15.5637,7.41967 12.4123,2.9841 24.9142,1.00545 31.2489,-4.94572 2.7443,-2.57809 7.2511,-12.105 7.2511,-15.32796 0,-3.04063 1.7987,-4.06806 3.7339,-2.13284 2.1563,2.15637 0.3362,8.98292 -4.3471,16.30414 l -3.5818,5.59927 4.0424,-0.68297 c 2.2234,-0.37564 17.9048,-3.46477 34.8475,-6.86475 l 30.8051,-6.18178 0.1122,-54.23155 c 0.08,-38.71318 -0.2061,-54.49203 -1,-55.14184 -0.6117,-0.50067 -3.1372,-1.44601 -5.6122,-2.10076 -2.475,-0.65476 -6.075,-2.02381 -8,-3.04235 -7.3472,-3.88743 -14.6549,-6.80435 -18.641,-7.44066 -5.6697,-0.90506 -9.0866,-4.54516 -7.7786,-8.28658 1.2297,-3.51734 5.6785,-4.2491 8.7737,-1.44317 1.1802,1.0699 4.3959,3.05471 7.1459,4.4107 2.75,1.35598 5.9,2.95667 7,3.55709 4.0831,2.22872 15.8221,6.33026 16.9161,5.91042 0.8116,-0.31142 1.0844,-8.33243 0.9628,-28.30256 -0.1538,-25.23641 -0.3824,-28.71785 -2.4219,-36.86798 -1.8093,-7.23084 -2.2284,-11.55545 -2.1317,-22 0.4068,-43.96377 0.1256,-70.593755 -0.8215,-77.780872 -1.5848,-12.026902 -7.0177,-28.617192 -13.0516,-39.855282 -2.5148,-4.6839 -2.4831,-4.86385 0.8566,-4.86385 5.5997,0 7.7629,3.48422 14.1424,22.77885 2.6771,8.09664 5.1968,17.646152 5.5994,21.221152 0.4026,3.574997 0.8327,26.075002 0.9558,50.000002 0.2587,50.26812 0.4042,51.31629 9.6794,69.71448 5.5792,11.06691 9.1213,15.72499 19.8142,26.05731 3.575,3.45445 12.4625,12.03934 19.75,19.07752 11.5765,11.18051 13.25,13.20107 13.25,15.99845 0,4.88816 -2.8829,5.58674 -18,4.36171 -12.9946,-1.05302 -24.06,-3.32062 -34.765,-7.1243 -10.6263,-3.7757 -9.6677,-8.80544 -9.4189,49.41907 0.1199,28.04767 0.2102,52.06451 0.2009,53.37076 -0.015,2.15237 0.2876,2.31214 3.233,1.70442 1.7875,-0.36882 6.625,-1.29645 10.75,-2.06141 26.4565,-4.90619 88.3372,-16.61386 92.5,-17.50077 10.6678,-2.27282 12.5,-2.38255 12.5,-0.74865 0,1.01129 -1.6144,1.8942 -4.75,2.59788 -7.0598,1.58427 -29.4805,5.84692 -39.75,7.5573 -4.95,0.82441 -11.7,1.99084 -15,2.59206 -3.3,0.60123 -8.25,1.47472 -11,1.9411 -2.75,0.46638 -11.75,2.21716 -20,3.89063 -8.25,1.67347 -17.3543,3.34925 -20.2318,3.72396 -9.3557,1.21834 -8.5106,-5.62428 -8.6473,70.00942 -0.08,44.11687 0.2198,66.86654 0.8791,66.76492 0.55,-0.0848 6.4,-0.91715 13,-1.84972 13.3561,-1.88721 19.0137,-3.10615 31.5475,-6.79697 7.5959,-2.23677 13.1455,-3.09816 18.0139,-2.79606 2.8017,0.17385 5.9386,4.01013 5.9386,7.26268 0,2.42458 -1.587,4.8668 -7.388,11.36926 -9.2587,10.37846 -11.6889,16.66441 -11.7542,30.40406 -0.024,5.02284 0.3725,9.67884 0.8807,10.34667 0.5082,0.66782 2.643,6.16422 4.7441,12.21422 2.1011,6.05 5.0514,13.7 6.5562,17 1.5048,3.3 3.0485,7.125 3.4304,8.5 0.3819,1.375 3.0729,4.75 5.98,7.5 13.396,12.67194 32.2635,43.32709 36.1932,58.80527 0.8651,3.4071 1.9192,6.64473 2.3426,7.19473 0.4234,0.55 1.4724,3.925 2.331,7.5 2.2747,9.4714 1.6352,26.21517 -1.2147,31.80138 -2.5877,5.07236 -6.2002,7.59862 -10.8657,7.59862 -4.3682,0 -7.4627,-3.53444 -9.9119,-11.32098 -3.201,-10.17678 -11.1354,-19.07902 -17.0049,-19.07902 -4.2,0 -12.059,-4.81028 -18.7709,-11.48923 -12.2362,-12.17613 -24.7513,-34.79437 -38.7382,-70.01077 -1.0922,-2.75 -3.0362,-7.29919 -4.3199,-10.10932 -8.1184,-17.77159 -10.4396,-29.71962 -7.0479,-36.27838 2.1467,-4.1513 4.9719,-5.4645 10.2111,-4.74638 8.7495,1.19926 9.5666,1.89535 36.2338,30.86799 7.1343,7.75111 7.9112,6.34809 2.5997,-4.69503 -5.8041,-12.0672 -10.4865,-26.8743 -10.4865,-33.16125 0,-12.45262 4.8713,-24.1343 13.5832,-32.57305 9.7523,-9.4466 6.1765,-10.85779 -13.2487,-5.22859 -4.539,1.31536 -11.5337,2.87571 -15.5437,3.46746 -17.0125,2.51051 -27.3284,4.17966 -27.8687,4.5093 -1.0771,0.65704 -0.7373,189.5523 0.3403,189.1931 0.554,-0.18466 2.6465,-3.46551 4.65,-7.29079 7.3682,-14.06811 8.2065,-15.20194 13.282,-17.96437 6.3596,-3.46135 9.0573,-2.83765 12.0041,2.77531 3.3511,6.38323 3.4311,22.77265 0.2011,41.234 -3.2747,18.71659 -5.8282,29.20254 -8.873,36.43677 -1.3897,3.30163 -2.5266,6.43178 -2.5266,6.9559 0,0.52411 -2.2615,5.77194 -5.0256,11.66184 -3.2661,6.9597 -4.8058,11.40151 -4.3977,12.68717 0.3453,1.08803 -0.04,3.61626 -0.8568,5.61828 -2.2955,5.62787 -5.6056,19.03981 -6.2047,25.14004 -0.7578,7.7161 -1.5236,37.48888 -1.4534,56.5 0.1,26.97735 -0.031,31.66486 -1.1569,41.45104 -0.6449,5.6065 -0.9485,22.4524 -0.7461,41.4117 0.321,30.06987 0.01,34.46987 -2.2955,32.16737 z m -32.7448,-36.95357 c 10.6602,-3.2355 19.8504,-10.6349 24.4278,-19.668 5.2186,-10.2984 6.3422,-20.1281 6.3909,-55.90854 0.024,-17.875 0.2411,-34.975 0.4818,-38 1.505,-18.91507 1.7749,-28 0.8319,-28 -0.5615,0 -1.8208,1.2375 -2.7984,2.75 -2.1805,3.37349 -8.529,9.15161 -10.1174,9.20837 -0.6406,0.0229 -2.7949,2.26227 -4.7872,4.97638 -4.9942,6.80345 -12.4235,9.29785 -16.5554,5.55854 -3.8559,-3.48956 -3.5293,-13.26205 1.587,-47.49329 3.0911,-20.68178 5.1328,-29.62553 11.7876,-51.63783 3.6314,-12.01191 11.2222,-23.15946 18.9722,-27.86217 1.5096,-0.91604 1.6679,-9.07561 1.8853,-97.18568 0.1305,-52.90212 0.021,-96.39511 -0.2436,-96.65108 -0.2646,-0.25598 -3.631,0.12813 -7.481,0.85357 -7.7478,1.45987 -31.059,4.0444 -45,4.98917 -9.7447,0.66039 -19.4346,2.34878 -32,5.57575 -14.2135,3.6502 -20.1813,4.91317 -33,6.98374 -9.9074,1.6003 -33.3654,5.90061 -43.5,7.97439 -5.225,1.06915 -14,2.63072 -19.5,3.47015 -9.4834,1.4474 -21.5697,5.00716 -27.8744,8.20982 -2.5887,1.31502 -2.7212,1.6132 -1.3336,3.00082 1.9084,1.90839 21.1818,2.04263 32.1281,0.22377 3.8939,-0.64703 13.1549,-2.22721 20.5799,-3.51152 20.259,-3.50422 40.6511,-5.6204 46.7803,-4.85461 4.3921,0.54876 5.5806,1.1197 6.4912,3.11834 1.6414,3.60249 -0.1758,4.23946 -12.0321,4.21747 -5.6434,-0.0105 -10.7123,0.26011 -11.2643,0.60129 -0.5521,0.34118 -4.7785,0.80928 -9.3922,1.04023 -4.6136,0.23095 -9.4712,0.83159 -10.7946,1.33474 -1.3234,0.50316 -5.9796,1.42831 -10.3472,2.05588 -4.3676,0.62758 -8.8411,1.54587 -9.9411,2.04065 -1.1,0.49478 -3.8,1.09576 -6,1.33553 -2.2,0.23976 -5.125,0.72913 -6.5,1.08749 -1.375,0.35836 -9.0086,0.63239 -16.9634,0.60895 -13.9896,-0.0412 -14.5889,-0.12955 -18.2932,-2.69664 -2.1064,-1.45972 -4.1897,-3.29728 -4.6297,-4.08346 -1.2083,-2.1591 -0.175,-5.83253 2.2926,-8.15076 3.406,-3.19979 19.0107,-8.92568 30.0937,-11.04237 5.5,-1.05043 12.7,-2.44541 16,-3.09995 3.3,-0.65454 8.25,-1.53099 11,-1.94767 7.753,-1.17473 29.4138,-4.91451 35.2332,-6.08308 2.8783,-0.57798 7.3783,-1.24455 10,-1.48127 2.6217,-0.23671 6.7918,-0.854 9.2668,-1.37175 2.475,-0.51776 6.3,-1.21802 8.5,-1.55615 2.2,-0.33812 5.8,-1.22256 8,-1.9654 7.357,-2.48416 29.5575,-6.13305 46,-7.56061 13.688,-1.18841 16.6274,-1.5349 32.4394,-3.8238 l 11.4394,-1.65595 0.061,-36.5 0.061,-36.5 -5,0.3521 c -7.5821,0.53394 -6.13736,4.3138 -10.61434,4.92206 -2.51366,-1.17268 -5.08746,-2.80862 -0.63566,-6.74234 4.8019,-0.0555 2.9778,-1.67375 -4,-3.54856 -3.7125,-0.99749 -7.425,-2.15072 -8.25,-2.56275 -0.825,-0.41203 -3.975,-1.7346 -7,-2.93905 -5.6345,-2.24347 -13.4475,-6.66665 -16.8781,-9.55524 -3.238,-2.72636 -12.4847,-12.05951 -14.9376,-15.07723 l -2.3158,-2.84897 0.4379,2.80645 c 0.4643,2.97633 -1.4013,5.69353 -3.9092,5.69353 -2.027,0 -2.9402,-2.90096 -1.5925,-5.05892 0.8384,-1.34252 0.7874,-3.07767 -0.2028,-6.89479 -0.7277,-2.80543 -1.5854,-5.36313 -1.9061,-5.68376 -0.6096,-0.60961 -17.7615,2.0976 -35.6958,5.63412 -5.775,1.13879 -19.95,3.86848 -31.5,6.06598 -11.55,2.1975 -24.375,4.64258 -28.5,5.43351 -4.125,0.79093 -13.575,2.58578 -21,3.98856 -19.1926,3.62598 -23.9684,4.55925 -28.5,5.56939 -2.2,0.4904 -11.42503,2.2514 -20.50003,3.91332 -9.075,1.66193 -18.525,3.46 -21,3.99572 -2.475,0.53572 -7.425,1.44967 -11,2.031 -3.575,0.58133 -8.525,1.50643 -11,2.05579 -2.475,0.54935 -5.4,1.17085 -6.5,1.3811 -11.26198,2.1526 -20.09798,3.89633 -25.5,5.03228 -10.25878,2.15725 -17.06325,3.48957 -23,4.50345 -3.025,0.5166 -8.65,1.65085 -12.5,2.52054 -17.06348,3.85453 -33.83003,7.10531 -48.5,9.4034 -3.575,0.56003 -11.9,2.10151 -18.5,3.4255 -6.6,1.324 -15.15,2.9643 -19,3.64513 -9.58986,1.69584 -45.96982,8.72201 -51.5,9.94634 -2.475,0.54795 -7.2,1.5415 -10.5,2.20791 -5.07447,1.02474 -5.61436,1.32529 -3.5,1.94836 1.375,0.40519 3.69555,0.78157 5.15678,0.83639 1.46123,0.0548 5.54342,1.39483 9.07153,2.97778 5.11208,2.29364 7.90004,4.51506 13.72876,10.93896 4.0227,4.43347 8.51573,9.87608 9.98451,12.09469 l 2.67051,4.03384 5.94395,-4.46228 c 3.26918,-2.45426 6.29968,-4.46702 6.73445,-4.4728 0.43477,-0.006 2.00977,-0.90437 3.5,-1.99686 1.49023,-1.09249 4.21172,-2.28168 6.04775,-2.64265 3.07039,-0.60364 3.31111,-0.47037 3,1.66081 -0.33257,2.27823 -2.32397,3.79464 -10.33824,7.87235 -12.3705,6.29418 -47.41919,40.67075 -58.80733,57.67959 l -2.73425,4.08375 2.56415,5.41625 c 1.41028,2.97894 2.95018,6.09125 3.42199,6.91625 0.47182,0.825 2.07649,6.225 3.56593,12 1.48944,5.775 3.31987,12.075 4.06762,14 1.82471,4.69751 3.971,15.81518 5.8881,30.5 1.11223,8.5196 2.77774,18.27242 4.18391,24.5 1.55453,6.8846 3.81605,18.20448 5.29426,26.5 0.49003,2.75 1.34928,6.19123 1.90945,7.64718 0.56016,1.45594 0.74653,2.91912 0.41415,3.2515 -0.33238,0.33239 -0.13316,1.61616 0.44272,2.85283 0.57588,1.23667 1.96839,7.19849 3.09447,13.24849 2.04576,10.99104 8.00814,34.33367 10.21714,40 0.64325,1.65 1.81551,5.475 2.60502,8.5 0.78951,3.025 2.29885,7.35974 3.35408,9.63275 1.96283,4.228 4.64424,11.37123 8.13485,21.67109 1.08181,3.19211 4.16622,10.40908 6.85425,16.03771 5.00704,10.48458 7.45349,13.37814 20.42544,24.15845 2.64726,2.2 5.32864,4.45079 5.95863,5.00176 5.38582,4.71032 18.71061,11.00124 32.14542,15.17656 16.62457,5.16665 21.34098,6.41773 33.5,8.88625 40.37894,8.19772 56.98357,11.76168 62.5,13.41478 1.65,0.49446 7.05,1.98259 12,3.30696 8.41289,2.25088 13.89915,4.25044 24.2391,8.83439 2.33151,1.03362 4.63108,1.8793 5.11015,1.8793 1.45833,0 29.77428,13.31102 55.15078,25.92574 4.125,2.0505 11.55,5.1935 16.5,6.9843 4.95,1.7909 10.35,3.8669 12,4.6134 1.65,0.7465 5.475,2.3306 8.5,3.5202 3.025,1.1895 6.4,2.5314 7.5,2.9819 1.1,0.4505 4.25,1.615 7,2.5878 2.75,0.9728 5.9,2.3253 7,3.0056 1.1,0.6803 6.275,2.4273 11.5,3.8822 5.225,1.4548 12.875,3.7051 17,5.0005 4.125,1.2954 11.325,3.096 16,4.0014 4.675,0.9053 13.9,2.9391 20.5,4.5195 26.483,6.3414 30.2337,6.7954 37.6185,4.554 z m -224.3348,-211.6777 c -1.36965,-0.76649 -1.51898,-2.55642 -1.05497,-12.64586 0.52377,-11.38882 0.4457,-11.98971 -2.51992,-19.39324 -3.63714,-9.07994 -6.55094,-20.18023 -6.39771,-24.37242 0.21289,-5.82433 3.20253,-11.92142 8.47808,-17.29027 7.52404,-7.65711 11.90416,-9.32501 24.46079,-9.31437 11.06983,0.009 11.38623,-0.18047 8.74383,-5.24699 -0.8216,-1.57537 -1.4791,-4.72537 -1.4612,-7 0.033,-4.14483 0.4793,-5.57951 7.5128,-24.13569 2.9275,-7.72355 3.8337,-11.61984 3.9804,-17.11567 0.1046,-3.91362 0.5056,-7.62612 0.8911,-8.25 1.1127,-1.80024 4.4143,-1.31826 5.5537,0.81074 1.9795,3.69888 -0.4035,20.97947 -3.5035,25.40537 -0.8069,1.15202 -1.4671,2.85778 -1.4671,3.79058 0,0.9328 -1.575,4.98248 -3.5,8.99928 -4.5061,9.40266 -4.5531,13.3235 -0.2278,18.99443 2.4057,3.15413 4.458,4.63977 7.75,5.61027 4.168,1.22874 21.1397,1.891 22.7622,0.88821 1.1109,-0.68654 31.7133,2.15445 36.1889,3.35961 4.0828,1.09938 8.4968,0.54684 10.9127,-1.36603 0.7623,-0.60359 2.5577,-2.90404 3.9898,-5.11211 2.2244,-3.42968 2.6006,-5.10754 2.5817,-11.51468 -0.012,-4.16449 -0.9831,-11.50261 -2.183,-16.5 -2.2193,-9.24304 -2.6349,-13.42528 -2.4062,-24.21482 0.1049,-4.95269 0.5098,-6.41717 1.9935,-7.21125 1.3174,-0.70505 2.387,-0.61248 3.6575,0.31657 1.4947,1.09294 1.8251,2.97204 1.9711,11.21126 0.172,9.70239 0.6462,13.86895 2.4926,21.89824 0.5059,2.2 1.2085,7.375 1.5612,11.5 0.8197,9.58468 -1.6741,16.95471 -7.724,22.82671 -3.6196,3.51322 -4.8199,4.04735 -10.4501,4.65029 -3.5641,0.38168 -7.7918,0.24233 -9.6155,-0.31695 -1.79,-0.54898 -5.3921,-1.28714 -8.0046,-1.64037 -3.7711,-0.50986 -4.75,-0.34449 -4.75,0.80242 0,0.79455 0.9077,1.68203 2.0172,1.97217 2.949,0.77118 6.6227,9.82393 6.88,16.95369 0.2102,5.82346 -0.7362,10.2797 -3.4835,16.40317 -0.7775,1.73312 -1.4165,4.20812 -1.4199,5.5 0,1.29188 -0.7401,3.69887 -1.6372,5.34887 -0.8971,1.65 -1.9068,5.92018 -2.2438,9.48928 -0.4875,5.16222 -0.9805,6.55948 -2.4109,6.83257 -5.582,1.06577 -6.2577,-7.69695 -1.6425,-21.30259 5.4986,-16.21016 5.9505,-17.96033 5.944,-23.01926 -0.012,-9.23759 -3.9541,-13.44873 -17.3588,-18.54362 -3.9501,-1.50133 -7.6483,-1.95549 -15.9268,-1.95588 -7.4963,-3.5e-4 -11.9151,-0.47471 -14.5,-1.55659 -4.399,-1.84116 -28.06227,-2.2665 -32.4062,-0.58248 -4.63254,1.7959 -12.29634,10.29347 -14.02835,15.55455 -1.46897,4.46206 -1.45075,5.3519 0.25476,12.44485 1.01027,4.20154 3.06562,10.78917 4.56746,14.63917 2.2374,5.73566 2.76789,8.8062 2.93704,17 0.29056,14.07526 -1.38499,18.84656 -5.75881,16.39884 z m 234.3196,82.6182 c 1.3182,-1.41325 4.056,-3.52478 6.0842,-4.6923 3.9939,-2.29915 7.8847,-7.2221 13.3502,-16.89148 l 3.487,-6.16923 -0.1375,-40.88201 c -0.076,-22.48511 -0.4453,-40.88202 -0.8213,-40.88202 -2.6394,0 -11.9685,13.35171 -13.1659,18.84291 -0.4386,2.0114 -1.5304,6.13209 -2.4263,9.15709 -1.6924,5.71462 -5.2349,19.01984 -5.9907,22.5 -0.2389,1.1 -0.8776,4.025 -1.4194,6.5 -1.0665,4.87127 -1.4553,7.29855 -3.6048,22.5 -2.9703,21.00661 -3.7489,31.44561 -2.4609,32.99749 1.4376,1.73224 3.5275,0.85561 7.1054,-2.98045 z m 30.3845,-42.75597 c 9.2187,-20.16732 14.3173,-34.5636 16.9642,-47.89934 0.8037,-4.04895 1.705,-8.48673 2.0029,-9.86173 0.298,-1.375 0.8025,-4.525 1.1212,-7 0.3187,-2.475 0.9856,-7.425 1.4819,-11 1.2592,-9.07028 1.1583,-19.43101 -0.2186,-22.45295 -2.6582,-5.83422 -7.5117,-1.75431 -14.4674,12.16157 -2.5316,5.06474 -6.3505,10.99139 -8.4864,13.17034 l -3.8834,3.96172 0.088,38.57966 c 0.048,21.21881 0.4352,38.57966 0.8597,38.57966 0.4245,0 2.4666,-3.70752 4.538,-8.23893 z m 101.1573,-79.59504 c 1.4407,-2.17601 1.7208,-4.50404 1.5242,-12.66603 -0.2701,-11.21114 -3.6704,-27.72344 -6.3735,-30.95 -0.4377,-0.5225 -0.7958,-1.75283 -0.7958,-2.73407 0,-0.98124 -1.4176,-4.60374 -3.1503,-8.05 -1.7326,-3.44626 -4.6485,-9.29461 -6.4797,-12.99633 -4.663,-9.42593 -18.362,-26.65491 -29.4774,-37.07325 -5.1659,-4.842 -13.8432,-13.617 -19.2827,-19.5 -19.1021,-20.65943 -19.225,-20.77192 -25.0222,-22.90744 -5.2935,-1.94999 -5.576,-1.95939 -7.1345,-0.23727 -4.3404,4.79615 -2.653,13.33771 7.005,35.4577 3.1195,7.14486 6.8377,16.14066 8.2625,19.99066 1.4249,3.85 3.1956,7.71043 3.935,8.57874 0.7393,0.86831 1.3443,1.97622 1.3443,2.46202 0,2.95071 13.8435,27.69569 20.0995,35.92753 2.4203,3.18462 4.8505,6.49102 5.4005,7.34754 3.7721,5.87442 14.8317,12.73623 19.1861,11.90384 3.305,-0.63179 10.5105,4.19792 14.5163,9.72996 1.8136,2.50473 4.5787,7.67864 6.1445,11.49757 3.5458,8.64796 6.5508,9.87897 10.2982,4.21883 z M 209.73953,541.6333 c 6.84548,-10.09963 27.88895,-32.43597 36.59492,-38.84324 1.99788,-1.47036 4.48501,-3.52889 5.52696,-4.57451 1.85948,-1.86603 1.85708,-1.88926 -0.1301,-1.25855 -1.63059,0.51753 -2.97218,-0.57486 -6.89445,-5.61377 -6.09661,-7.8323 -14.91808,-16.51733 -18.83319,-18.54191 -3.91238,-2.02317 -18.63895,-2.25372 -23.96162,-0.37513 -2.15871,0.7619 -5.41906,3.01189 -7.24523,4.99999 -3.30089,3.59359 -3.32022,3.67319 -3.30541,13.61472 0.0158,10.58878 1.41171,19.90827 4.94296,33 1.18682,4.4 2.84811,10.925 3.69176,14.5 1.47002,6.22923 3.64757,9.54649 5.51072,8.395 0.48139,-0.29751 2.3276,-2.68368 4.10268,-5.3026 z m -54.09879,-48.08411 c 4.49959,-3.70895 7.29897,-8.98855 6.48518,-12.23098 -0.89392,-3.56166 -5.47536,-5.32304 -9.97923,-3.83663 -4.20859,1.38896 -5.7715,3.06254 -9.14493,9.79251 -2.03499,4.05978 -2.3916,5.66586 -1.59044,7.16285 1.29728,2.42398 2.24873,2.73376 7.00373,2.2803 2.30456,-0.21977 5.17655,-1.47898 7.22569,-3.16805 z m 563.57275,-98.98617 c 0.01,-15.41217 -0.048,-28.02076 -0.1187,-28.01909 -0.07,0.002 -4.8528,0.94739 -10.6278,2.10163 -5.775,1.15423 -11.731,2.26832 -13.2356,2.47576 -1.5045,0.20744 -10.5045,1.91717 -20,3.7994 -9.4954,1.88223 -19.4019,3.71935 -22.0144,4.08248 -5.3773,0.74744 -6.2938,2.72372 -2,4.31283 1.5125,0.55977 4.2297,1.57608 6.0382,2.25847 3.801,1.4342 5.9854,4.59281 4.3246,6.25355 -0.7632,0.76325 -1.7986,0.68381 -3.5911,-0.27553 -1.3853,-0.74138 -2.7258,-1.14091 -2.9788,-0.88785 -0.5841,0.58405 12.6738,14.91619 13.7769,14.89327 0.4509,-0.009 2.751,1.31162 5.1112,2.93554 2.3603,1.62392 6.2664,3.73202 8.6802,4.68466 2.4138,0.95264 5.9638,2.60744 7.8888,3.67732 4.1225,2.29122 18,5.79753 18,4.54792 0,-0.47437 -0.3418,-0.86248 -0.7595,-0.86248 -0.4177,0 -1.2975,-0.86162 -1.9552,-1.91472 -0.9461,-1.51498 -0.9147,-2.14799 0.1505,-3.03203 1.0366,-0.86032 2.0038,-0.46749 4.2052,1.708 3.7439,3.69979 7.5074,6.26505 8.3906,5.71917 0.3882,-0.2399 0.7099,-13.04613 0.7149,-28.4583 z m 55.0258,-138.05064 c 0.363,-1.91978 -3.5149,-5.88618 -11.2723,-11.52959 -5.168,-3.75962 -12.1088,-10.15039 -20.7448,-19.10074 -8.4237,-8.73037 -10.711,-11.77867 -15.8253,-21.09115 -2.1899,-3.9875 -4.1803,-7.25 -4.423,-7.25 -0.2428,0 -0.3437,11.1145 -0.2242,24.69889 l 0.2173,24.6989 11,3.74921 c 6.05,2.06207 11.9913,3.77256 13.2029,3.80111 1.2116,0.0285 3.2366,0.50584 4.5,1.06067 2.7736,1.21804 14.944,2.84004 19.7887,2.63732 2.2573,-0.0944 3.5939,-0.68648 3.7807,-1.67462 z"
       id="path2996"
       style="fill:#000000" />
    <text
       x="-53.800018"
       y="472.83871"
       transform="matrix(0.98092504,-0.19438639,0.19438639,0.98092504,0,0)"
       id="text3009"
       xml:space="preserve"
       style="font-size:40px;font-style:normal;font-weight:normal;line-height:125%;letter-spacing:0px;word-spacing:0px;fill:#000000;fill-opacity:1;stroke:none;font-family:Bitstream Vera Sans"><tspan
         x="-53.800018"
         y="472.83871"
         id="tspan3011"
         style="font-size:32px;font-style:normal;font-variant:normal;font-weight:normal;font-stretch:normal;font-family:cmr10;-inkscape-font-specification:cmr10">Francoforte</tspan></text>
    <text
       x="741.17627"
       y="170.36847"
       id="text3013"
       xml:space="preserve"
       style="font-size:40px;font-style:normal;font-weight:normal;line-height:125%;letter-spacing:0px;word-spacing:0px;fill:#000000;fill-opacity:1;stroke:none;font-family:Bitstream Vera Sans"><tspan
         x="741.17627"
         y="170.36847"
         id="tspan3015"
         style="font-size:32px;font-style:normal;font-variant:normal;font-weight:normal;font-stretch:normal;font-family:cmr10;-inkscape-font-specification:cmr10">Na</tspan></text>
    <text
       x="734.27966"
       y="928.9892"
       id="text3017"
       xml:space="preserve"
       style="font-size:40px;font-style:normal;font-weight:normal;line-height:125%;letter-spacing:0px;word-spacing:0px;fill:#000000;fill-opacity:1;stroke:none;font-family:Bitstream Vera Sans"><tspan
         x="734.27966"
         y="928.9892"
         id="tspan3019"
         style="font-size:32px;font-style:normal;font-variant:normal;font-weight:normal;font-stretch:normal;font-family:cmr10;-inkscape-font-specification:cmr10">Pg</tspan></text>
    <text
       x="567.03833"
       y="453.12711"
       id="text3021"
       xml:space="preserve"
       style="font-size:40px;font-style:normal;font-weight:normal;line-height:125%;letter-spacing:0px;word-spacing:0px;fill:#000000;fill-opacity:1;stroke:none;font-family:Bitstream Vera Sans"><tspan
         x="567.03833"
         y="453.12711"
         id="tspan3023"
         style="font-size:32px;font-style:normal;font-variant:normal;font-weight:normal;font-stretch:normal;font-family:Bitstream Vera Serif;-inkscape-font-specification:Bitstream Vera Serif">87±3°</tspan></text>
  </g>
</svg>
