<?xml version="1.0" encoding="UTF-8" standalone="no"?>
<!-- Created with Inkscape (http://www.inkscape.org/) -->

<svg
   xmlns:dc="http://purl.org/dc/elements/1.1/"
   xmlns:cc="http://creativecommons.org/ns#"
   xmlns:rdf="http://www.w3.org/1999/02/22-rdf-syntax-ns#"
   xmlns:svg="http://www.w3.org/2000/svg"
   xmlns="http://www.w3.org/2000/svg"
   version="1.1"
   width="524"
   height="862"
   id="svg2">
  <metadata
     id="metadata8">
    <rdf:RDF>
      <cc:Work
         rdf:about="">
        <dc:format>image/svg+xml</dc:format>
        <dc:type
           rdf:resource="http://purl.org/dc/dcmitype/StillImage" />
        <dc:title></dc:title>
      </cc:Work>
    </rdf:RDF>
  </metadata>
  <defs
     id="defs6" />
  <path
     d="m 186.69692,843.60687 c -0.4092,-1.04122 -0.5084,-2.12872 -0.22046,-2.41666 0.91206,-0.91206 1.71456,0.58256 1.33239,2.48152 -0.35024,1.74033 -0.40373,1.73721 -1.11193,-0.0649 z M 256,842.5 c 0,-2.47119 1.35495,-3.35273 2.44423,-1.59024 C 259.16699,842.07921 258.05928,845 256.89301,845 256.40186,845 256,843.875 256,842.5 z m 78.24499,1.25 c 0.22642,-0.6875 1.50142,-1.37573 2.83334,-1.5294 2.34514,-0.27057 2.36032,-0.23106 0.48054,1.25 -2.35051,1.85195 -3.87406,1.9804 -3.31388,0.2794 z M 69.681695,813.34836 C 69.306763,812.97343 69,811.884 69,810.92742 c 0,-1.49472 0.346897,-1.57673 2.467311,-0.58333 1.361808,0.63799 1.921883,1.33511 1.25,1.55585 -0.669521,0.21997 -1.473048,0.78924 -1.785616,1.26503 -0.312568,0.4758 -0.875068,0.55832 -1.25,0.18339 z M 189,812.68146 c 0,-1.8669 1.63099,-3.08755 2.41989,-1.81108 0.30695,0.49665 -0.11196,1.45909 -0.9309,2.13876 C 189.27832,814.0139 189,813.95265 189,812.68146 z m -54,-1.3039 c 0,-1.2439 -0.31311,-1.36259 -1.34201,-0.50868 -1.64478,1.36505 -2.66304,0.4844 -2.64268,-2.28555 0.0126,-1.71767 0.18814,-1.82006 1,-0.58333 0.87528,1.33333 1.0941,1.33333 1.96938,0 0.84299,-1.28415 0.98689,-1.24817 1,0.25 0.008,0.9625 0.46531,1.75 1.01531,1.75 0.55,0 1,0.675 1,1.5 0,0.825 -0.45,1.5 -1,1.5 -0.55,0 -1,-0.7301 -1,-1.62244 z M 185.5,812 c -0.33992,-0.55 -0.14148,-1 0.44098,-1 0.58246,0 1.05902,0.45 1.05902,1 0,0.55 -0.19844,1 -0.44098,1 -0.24254,0 -0.7191,-0.45 -1.05902,-1 z m -59.13962,-3.42697 c -0.0966,-1.67753 0.28328,-2.26327 1.23168,-1.89933 1.01898,0.39102 1.11005,1.0144 0.35444,2.42626 -1.30239,2.43355 -1.41792,2.39517 -1.58612,-0.52693 z M 234,790 c 0,-0.55 0.49814,-1 1.10699,-1 0.60884,0 0.84797,-0.675 0.53138,-1.5 -0.31658,-0.825 -0.13972,-1.5 0.39301,-1.5 1.11163,0 1.23302,1.14741 0.36163,3.41821 C 235.7235,791.16293 234,791.58195 234,790 z m -51.60666,-8.86696 c 0.069,-1.85819 0.54845,-2.70518 1.35666,-2.39649 1.64655,0.62889 1.59237,2.73442 -0.10666,4.14449 -1.09132,0.90572 -1.33579,0.56385 -1.25,-1.748 z M 69.446149,780.91287 c -0.369536,-0.59793 -0.171094,-1.58793 0.440983,-2.2 C 70.704289,777.89571 71,777.91886 71,778.8 c 0,0.66 1.0125,1.23163 2.25,1.27029 2.146901,0.0671 2.158356,0.10966 0.25,0.92971 -2.744179,1.17921 -3.278301,1.16773 -4.053851,-0.0871 z M 222.75,781.29427 c 1.2375,-0.23836 3.2625,-0.23836 4.5,0 1.2375,0.23835 0.225,0.43337 -2.25,0.43337 -2.475,0 -3.4875,-0.19502 -2.25,-0.43337 z m 8,0.0435 c 0.6875,-0.27741 1.8125,-0.27741 2.5,0 0.6875,0.27741 0.125,0.50439 -1.25,0.50439 -1.375,0 -1.9375,-0.22698 -1.25,-0.50439 z m 9,0 c 0.6875,-0.27741 1.8125,-0.27741 2.5,0 0.6875,0.27741 0.125,0.50439 -1.25,0.50439 -1.375,0 -1.9375,-0.22698 -1.25,-0.50439 z m 4.52083,0.0581 c 0.33229,-0.33229 1.19479,-0.36781 1.91667,-0.0789 0.79773,0.31922 0.56078,0.55618 -0.60417,0.60416 -1.05416,0.0434 -1.64479,-0.19293 -1.3125,-0.52522 z m 4.46014,-0.0518 c 0.67703,-0.27392 2.02703,-0.29059 3,-0.0371 0.97297,0.25354 0.41903,0.47766 -1.23097,0.49804 -1.65,0.0204 -2.44606,-0.18706 -1.76903,-0.46099 z M 132.63837,779.5 c -0.31658,-0.825 -0.13972,-1.5 0.39301,-1.5 0.53274,0 0.96862,0.675 0.96862,1.5 0,0.825 -0.17686,1.5 -0.39301,1.5 -0.21616,0 -0.65203,-0.675 -0.96862,-1.5 z m 34.56392,-18.83834 c 0.42613,-2.86986 2.32344,-3.12148 2.55375,-0.33867 0.12556,1.51706 -0.34309,2.34368 -1.32875,2.34368 -0.9563,0 -1.41197,-0.74581 -1.225,-2.00501 z M 218,762.08179 c 0,-0.50502 -0.30925,-1.74252 -0.68723,-2.75 -0.60496,-1.61251 -0.48525,-1.66749 1,-0.45935 C 220.15747,760.37298 220.59486,763 219,763 c -0.55,0 -1,-0.4132 -1,-0.91821 z m -96.75,-1.51841 C 118.44952,759.27188 118.34105,758 121.03138,758 c 1.11727,0 2.29786,0.69441 2.62354,1.54313 0.78701,2.05089 0.28849,2.26238 -2.40492,1.02025 z M 338.15789,757 c 0,-1.375 0.22698,-1.9375 0.50439,-1.25 0.27741,0.6875 0.27741,1.8125 0,2.5 -0.27741,0.6875 -0.50439,0.125 -0.50439,-1.25 z M 235.92105,741.45 c -0.0434,-1.0725 -0.30592,-1.3875 -0.58333,-0.7 C 234.547,742.70961 233,742.21329 233,740 c 0,-1.34363 0.66667,-2 2.03138,-2 2.40487,0 3.71276,2.65586 2.1014,4.26722 -0.84371,0.84371 -1.15293,0.63516 -1.21173,-0.81722 z M 99.344085,737.5078 c 1.252515,-2.70048 3.258895,-3.52152 2.262905,-0.92601 -0.33385,0.86998 -0.60699,1.99498 -0.60699,2.5 0,0.50501 -0.63266,0.91821 -1.405915,0.91821 -1.141011,0 -1.188117,-0.46958 -0.25,-2.4922 z M 75.194949,736.5 c -0.02038,-1.65 0.187065,-2.44606 0.460988,-1.76903 0.273923,0.67703 0.290597,2.02703 0.03705,3 -0.25354,0.97297 -0.477659,0.41903 -0.498038,-1.23097 z M 226.25,731.31067 c 0.9625,-0.25152 2.5375,-0.25152 3.5,0 0.9625,0.25153 0.175,0.45733 -1.75,0.45733 -1.925,0 -2.7125,-0.2058 -1.75,-0.45733 z M 72,729.22587 c -5.432754,-0.85886 -3.524522,-1.70754 3.126764,-1.39062 3.869837,0.18439 6.886931,0.4582 6.704652,0.60846 -0.743664,0.61305 -7.500687,1.15062 -9.831416,0.78216 z M 99.5,729 c -0.367217,-0.59417 0.72487,-0.97148 2.69098,-0.92971 2.75722,0.0586 2.97551,0.2136 1.30902,0.92971 -2.71291,1.16578 -3.27951,1.16578 -4,0 z m 15.47177,-1.1132 c 1.35947,-0.54254 2.81508,-1.52651 3.23469,-2.18661 0.52893,-0.83209 0.76761,-0.69627 0.77823,0.44282 0.0161,1.72668 -2.00743,2.90034 -4.81648,2.7936 -1.08059,-0.0411 -0.79754,-0.41085 0.80356,-1.04981 z m -31.700937,-0.49097 c 0.332292,-0.33229 1.194792,-0.36781 1.916667,-0.0789 0.797733,0.31922 0.560776,0.55618 -0.604167,0.60416 -1.054166,0.0434 -1.644791,-0.19293 -1.3125,-0.52522 z m 34.872157,-39.2863 c -0.86961,-0.55101 -1.10692,-1.64782 -0.66071,-3.0537 0.6634,-2.09019 0.76146,-2.10791 2.07521,-0.37485 2.48721,3.28107 1.63039,5.35788 -1.4145,3.42855 z M 224.01531,686.75 c 0.0356,-2.90915 2.21491,-4.02564 4.73469,-2.42567 2.39824,1.5228 1.37325,3.67567 -1.75,3.67567 -1.7415,0 -2.99358,-0.52437 -2.98469,-1.25 z M 233,686.11663 c 0,-2.12755 3.3052,-3.41143 4.83753,-1.8791 1.14038,1.14038 0.44101,3.76247 -1.00354,3.76247 -0.52361,0 -0.63445,-0.5625 -0.2463,-1.25 0.56457,-1 0.43638,-1 -0.64099,0 -1.91018,1.77302 -2.9467,1.55023 -2.9467,-0.63337 z m 8,0.21991 c 0,-1.50339 0.60708,-2.03267 2.23661,-1.95 2.23802,0.11353 3.95986,3.61346 1.7777,3.61346 -0.62279,0 -0.85423,-0.45 -0.51431,-1 0.86536,-1.40018 -0.84888,-1.25112 -2.3,0.2 -0.93333,0.93333 -1.2,0.74145 -1.2,-0.86346 z m -128.54377,-0.40736 c -0.37508,-0.60689 -0.24093,-1.54448 0.29812,-2.08353 0.64011,-0.64011 1.18443,-0.44756 1.56919,0.55511 0.69959,1.82308 -0.88407,3.11933 -1.86731,1.52842 z m 2.79377,-6.96034 c -3.17803,-1.27741 -2.79896,-1.63133 1.24198,-1.15957 1.92059,0.22422 3.24403,0.80886 2.94098,1.2992 -0.65881,1.06597 -1.2311,1.04687 -4.18296,-0.13963 z m 118,-1.99915 c -3.56892,-1.43588 -2.63133,-1.9837 2.25,-1.31464 3.27606,0.44904 4.5,0.27454 4.5,-0.64157 0,-0.89147 0.36446,-0.9569 1.25,-0.22441 0.6875,0.56868 2.6,1.23135 4.25,1.47261 1.97044,0.28812 1.22634,0.49008 -2.16821,0.58849 -2.84252,0.0824 -5.76752,0.34669 -6.5,0.5873 -0.73249,0.24061 -2.34429,0.0301 -3.58179,-0.46778 z m -6.25,-0.3627 c 0,-0.21616 0.675,-0.65203 1.5,-0.96862 0.825,-0.31658 1.5,-0.13972 1.5,0.39301 0,0.53274 -0.675,0.96862 -1.5,0.96862 -0.825,0 -1.5,-0.17686 -1.5,-0.39301 z m 5.07895,-23.02366 c -0.0434,-1.05416 0.19292,-1.64479 0.52522,-1.3125 0.33229,0.33229 0.36781,1.1948 0.0789,1.91667 -0.31922,0.79773 -0.55618,0.56078 -0.60416,-0.60417 z M 166,645.81357 c 0,-0.78722 0.66069,-2.30482 1.4682,-3.37244 1.43939,-1.90305 1.46882,-1.8994 1.5,0.18643 0.0175,1.17015 -0.6432,2.68775 -1.4682,3.37244 -1.21451,1.00795 -1.5,0.97247 -1.5,-0.18643 z m 66,0.24545 C 232,645.47656 232.45,645 233,645 c 0.55,0 1,0.19844 1,0.44098 0,0.24254 -0.45,0.7191 -1,1.05902 -0.55,0.33992 -1,0.14148 -1,-0.44098 z M 67.078947,644.58333 c -0.04342,-1.05416 0.192928,-1.64479 0.52522,-1.3125 0.332291,0.33229 0.367818,1.1948 0.07895,1.91667 -0.319226,0.79773 -0.556183,0.56078 -0.604167,-0.60417 z m 122.900483,-3.97726 c -0.0336,-8.34927 -2.88221,-37.92013 -3.71224,-38.53643 -0.42196,-0.3133 -0.7803,-3.04464 -0.79632,-6.06964 -0.016,-3.025 -0.40183,-6.4 -0.85734,-7.5 -0.8282,-2 -0.8282,-2 -1.65058,0 -0.78313,1.90456 -0.82573,1.89305 -0.89266,-0.24116 -0.0684,-2.17983 -0.35922,-2.23939 -10.62948,-2.17667 -5.80755,0.0355 -11.09505,-0.37515 -11.75,-0.91247 -0.65494,-0.53733 -3.89081,-1.3048 -7.19081,-1.7055 -8.44685,-1.02566 -22.22069,-6.05978 -25.10987,-9.17725 -1.31457,-1.41845 -2.39617,-2.17579 -2.40356,-1.68297 -0.007,0.49281 -1.23121,-1.46648 -2.71961,-4.35398 -1.48841,-2.8875 -3.0313,-5.25 -3.42865,-5.25 -0.39735,0 -0.73736,9.73884 -0.75558,21.64186 -0.0182,11.90302 -0.26927,21.87802 -0.55792,22.16666 C 117.23616,607.09717 117,592.63333 117,574.66667 117,556.7 116.61885,542 116.15301,542 c -0.46584,0 -1.84302,-0.86385 -3.06038,-1.91967 -1.84304,-1.59845 -2.10399,-2.56058 -1.55954,-5.75 0.35962,-2.10668 1.51179,-5.04961 2.56038,-6.53984 2.40418,-3.41675 2.4218,-3.24838 -0.77916,-7.44505 -2.17161,-2.84713 -2.47182,-3.86357 -1.56841,-5.31017 0.61451,-0.98398 1.43371,-3.47577 1.82046,-5.5373 l 0.70317,-3.74825 -3.88476,0.63015 c -15.756743,2.55591 -22.201571,1.79501 -26.6763,-3.14951 -1.626757,-1.79755 -1.657823,-2.32177 -0.346813,-5.85238 3.199684,-8.6169 15.770152,-37.79967 22.492953,-52.21817 3.93391,-8.4371 7.42579,-16.42885 7.75975,-17.75944 0.33396,-1.3306 1.00735,-2.66657 1.49642,-2.96884 0.48907,-0.30226 0.89611,-6.93551 0.90453,-14.74055 0.009,-8.51339 0.36579,-13.63761 0.8913,-12.80784 0.63556,1.00351 1.05905,0.45458 1.54293,-2 0.36682,-1.86073 1.06393,-4.28314 1.54914,-5.38314 C 121.02586,387.17132 124,373.83122 124,371.55259 124,370.69867 123.55,370 123,370 c -0.55,0 -1,0.63585 -1,1.413 0,2.35218 -6.39042,1.5305 -6.85309,-0.88117 -0.32104,-1.67338 -0.14609,-1.77604 1.16801,-0.68543 1.29963,1.07859 1.74251,0.91481 2.7829,-1.02917 0.75468,-1.41014 1.39946,-1.82538 1.65307,-1.06457 0.8123,2.43691 2.86602,1.19276 4.13115,-2.50266 0.70609,-2.0625 1.88446,-5.1 2.61859,-6.75 0.73412,-1.65 1.25151,-4.6875 1.14974,-6.75 -0.14747,-2.98857 0.17381,-3.75 1.5823,-3.75 2.00793,0 2.23455,-1.25847 0.73215,-4.06574 C 130.39547,342.87042 130.3086,342 130.77177,342 c 0.46318,0 1.32524,-1.2375 1.91569,-2.75 1.00458,-2.57335 1.04069,-2.50912 0.5622,1 -0.28124,2.0625 -0.1871,3.75 0.20921,3.75 1.15891,0 4.45738,-4.23505 5.97267,-7.66857 0.7691,-1.74272 3.23663,-4.95256 5.48341,-7.13298 2.24678,-2.18043 4.08505,-4.65207 4.08505,-5.49254 0,-0.84047 1.35,-2.66407 3,-4.05246 1.65,-1.38838 3,-3.00338 3,-3.58889 0,-0.58551 0.46169,-1.06456 1.02597,-1.06456 0.56429,0 3.28507,-1.68657 6.04619,-3.74793 3.75233,-2.80138 4.90626,-4.25357 4.56903,-5.75 -0.24815,-1.10114 -0.0756,-2.90207 0.38353,-4.00207 0.69267,-1.65967 0.84667,-1.44697 0.90499,1.25 0.0387,1.7875 0.31996,3.25 0.6251,3.25 0.30515,0 3.67879,-1.32937 7.49698,-2.95416 3.8182,-1.62478 9.29149,-3.38116 12.16287,-3.90305 2.87139,-0.52189 5.38525,-1.44252 5.58636,-2.04584 C 194.00212,296.49363 194.80417,296 195.58333,296 196.3625,296 197,295.631 197,295.18 c 0,-2.28923 7.68046,-9.35523 12.77649,-11.75431 3.14793,-1.48197 5.94851,-3.03418 6.22351,-3.44935 0.5019,-0.75772 20.88208,-1.49287 26.5,-0.9559 1.65,0.15771 -1.95,0.59756 -8,0.97745 -14.61261,0.91753 -15.46071,1.23269 -15.66004,5.8195 l -0.16003,3.68261 -0.40333,-3.25 c -0.4677,-3.76882 -2.46814,-4.20201 -7.77513,-1.68367 C 206.63107,286.40295 200,292.75975 200,294.63344 c 0,1.03469 5.64433,1.30675 27.64666,1.33261 15.20567,0.0179 28.14317,0.41905 28.75,0.8915 1.1607,0.90366 10.37209,4.14245 11.78148,4.14245 0.45202,0 0.82186,-1.125 0.82186,-2.5 0,-2.21212 -0.42222,-2.5 -3.66667,-2.5 -2.01666,0 -3.373,-0.29366 -3.01408,-0.65258 0.35892,-0.35892 2.00892,-0.61402 3.66666,-0.56688 2.78346,0.0791 3.01409,-0.177 3.01409,-3.34742 0,-3.79314 -2.15259,-4.71742 -3.9199,-1.68312 -1.32002,2.26634 -1.39236,0.70197 -0.0808,-1.74859 0.78796,-1.47233 0.60673,-1.99169 -0.85712,-2.4563 -1.34646,-0.42735 -1.72625,-1.26983 -1.38267,-3.06715 C 263.20156,280.16526 262.9586,280 259.11658,280 256.85246,280 255,279.55 255,279 c 0,-0.55 1.4625,-1.01431 3.25,-1.0318 3.12507,-0.0306 3.17312,-0.0908 1.25,-1.56594 -1.91884,-1.47189 -1.88841,-1.50678 0.75,-0.85979 1.92123,0.47112 2.75,0.28777 2.75,-0.60838 0,-0.78681 0.89479,-0.44211 2.31445,0.8916 2.7961,2.62679 4.64473,2.79015 4.80155,0.42431 0.11048,-1.66667 0.13778,-1.66667 0.57333,0 0.31122,1.19095 1.44551,1.75 3.55066,1.75 1.70134,0 2.8172,0.27614 2.47969,0.61365 -0.52799,0.52799 2.6279,2.9016 10.82105,8.13874 1.0776,0.68881 2.85927,1.66247 3.95927,2.16369 1.1,0.50122 3.54993,2.07515 5.44428,3.49762 1.89435,1.42246 3.91935,2.58915 4.5,2.59262 0.58065,0.003 1.83981,1.24098 2.79815,2.75 0.95834,1.50903 3.57086,4.99368 5.8056,7.74368 2.23474,2.75 5.3665,7.475 6.95947,10.5 l 2.8963,5.5 0.0481,-17.41667 c 0.0265,-9.57916 0.33918,-17.12558 0.69495,-16.76981 0.35577,0.35577 0.56985,9.76827 0.47573,20.91666 -0.12073,14.30101 0.24723,22.23527 1.24958,26.9444 1.38096,6.48792 4.09672,11.71943 6.12784,11.80441 2.47394,0.1035 12.70565,28.43351 15.53753,43.02101 0.69402,3.575 1.68809,7.04865 2.20906,7.71922 0.5375,0.69185 0.73256,6.00314 0.45096,12.27923 -0.38595,8.60201 -0.18857,11.36768 0.88817,12.44441 1.1792,1.1792 1.16376,1.91247 -0.10419,4.9471 -0.81872,1.95948 -3.69879,12.68585 -6.40015,23.83637 -8.45205,34.8879 -9.86343,43.7571 -10.02734,63.01223 -0.14675,17.23962 2.41586,42.47366 6.67832,65.76144 0.35234,1.925 0.6692,5.95009 0.70413,8.94465 l 0.0635,5.44465 -4.5,1.30026 c -2.475,0.71514 -6.4125,1.76989 -8.75,2.34389 l -4.25,1.04364 -0.23065,23.71145 -0.23065,23.71146 -0.28804,-23.35778 -0.28805,-23.35779 -3.70149,0.69441 c -2.03582,0.38192 -5.51491,1.2814 -7.73131,1.99885 -2.21639,0.71745 -6.50481,2.00456 -9.52981,2.86026 -3.025,0.8557 -10.45,3.05504 -16.5,4.88743 l -11,3.33161 -0.27477,16.2215 c -0.15113,8.92183 -0.60113,16.22216 -1,16.22295 -0.39888,7.9e-4 -0.5901,-7.03676 -0.42495,-15.639 l 0.30028,-15.64044 -3.30028,0.54325 c -4.5775,0.75349 -34.10519,11.31019 -40.80028,14.58686 l -5.5,2.69177 -0.57341,6.97806 -0.57342,6.97806 -0.17658,-6.26905 L 219,633.9619 l -2.75,0.60246 c -3.95571,0.86661 -16.51836,7.32868 -18.04193,9.28053 -0.71872,0.92076 -2.82624,1.70217 -4.75,1.76118 L 190,645.71214 189.9794,640.60607 z M 206.75,636.496 219,630.54833 l 0.18498,-5.52416 0.18498,-5.52417 0.37026,5.33579 c 0.31684,4.56609 0.61473,5.2306 2.06501,4.60658 4.3703,-1.88045 27.81249,-10.60789 37.44477,-13.94056 l 10.75,-3.71938 0.21238,-11.14122 0.21238,-11.14121 0.32145,10.75 c 0.36115,12.0775 0.45996,12.19261 7.98355,9.3009 2.07363,-0.797 5.79524,-1.94119 8.27024,-2.54263 2.475,-0.60145 10.9125,-2.96338 18.75,-5.24874 l 14.25,-4.15519 0,-12.46884 c 0,-6.85786 0.30795,-12.16088 0.68434,-11.78449 0.37639,0.37639 0.59387,5.85139 0.48329,12.16666 -0.12877,7.35411 0.16991,11.48233 0.83076,11.48233 1.71534,0 13.44428,-3.2898 14.29071,-4.00834 0.43401,-0.36842 0.32608,-3.32977 -0.23984,-6.58076 -0.92082,-5.28978 -4.81509,-35.32333 -6.79581,-52.4109 l -0.75345,-6.5 -3.75,-0.31037 c -3.48852,-0.28872 -3.76045,-0.1144 -3.89983,2.5 l -0.14983,2.81037 -0.41636,-2.74756 c -0.30789,-2.0318 -1.11551,-2.88451 -3.10017,-3.27328 -16.89654,-3.30976 -26.02559,-7.12575 -36.09464,-15.08773 C 276.64012,507.87341 273,504.54614 273,503.99751 c 0,-1.69414 -1.82677,-1.09923 -2.31067,0.75249 -0.28137,1.07666 -0.50196,0.6919 -0.57333,-1 -0.0638,-1.5125 -0.55188,-2.75 -1.08462,-2.75 -0.53273,0 -0.72054,-0.64647 -0.41734,-1.4366 0.3032,-0.79013 -0.14244,-5.62763 -0.99031,-10.75 -0.84787,-5.12237 -2.01416,-17.6384 -2.59174,-27.8134 -1.66906,-29.40306 -6.4376,-51.68347 -11.47524,-53.6166 -0.8499,-0.32613 -1.2844,-1.01505 -0.96557,-1.53093 0.81777,-1.32319 -6.17551,-9.58616 -9.62118,-11.36799 -3.68798,-1.90712 -3.97,-1.87469 -3.97,0.4565 0,1.06754 -0.45734,2.22364 -1.01631,2.5691 -1.5057,0.93057 -0.46473,2.05007 4.47179,4.80915 2.92878,1.63692 4.57609,2.08901 4.84704,1.33022 0.22574,-0.6322 0.2792,-0.31243 0.1188,0.7106 -0.1604,1.02303 0.75605,4.17303 2.03657,7 3.96854,8.7613 4.52517,13.08187 4.01183,31.13995 -0.55567,19.54675 -0.63749,20.47822 -1.97637,22.5 -0.54634,0.825 -1.14345,9.01703 -1.32691,18.2045 l -0.33355,16.70451 7.33355,0.3468 7.33356,0.3468 -7.17944,0.19869 -7.17944,0.1987 -0.32056,27.75 c -0.30988,26.82554 -0.39932,27.90997 -2.68486,32.55184 -2.95326,5.998 -5.70468,7.86362 -11.12557,7.54376 -3.4731,-0.20493 -4.76031,-0.90408 -7.45024,-4.04666 C 226.77143,562.70952 224.86917,561 224.33264,561 c -0.60603,0 -1.07051,-11.07248 -1.22637,-29.23466 -0.15944,-18.58023 -0.63359,-29.6958 -1.30102,-30.5 -0.75239,-0.90658 -0.69294,-1.26534 0.2097,-1.26534 0.97762,0 1.11781,-2.6322 0.62581,-11.75 -0.83554,-15.4842 -1.94839,-19.28184 -2.7106,-9.25 l -0.56984,7.5 -0.18016,-10.16667 c -0.12502,-7.05509 -0.56273,-10.32103 -1.43016,-10.67105 -0.72155,-0.29115 -0.78707,-0.53776 -0.15499,-0.58333 0.60226,-0.0434 1.78287,0.70855 2.62358,1.67105 2.90459,3.32537 4.11306,9.54936 3.97145,20.45409 -0.10007,7.70573 0.23196,11.07506 1.18536,12.02845 1.09915,1.09915 1.07559,1.55675 -0.13855,2.69092 -1.24302,1.16116 -1.36086,4.98982 -0.78399,25.47155 0.76985,27.3331 1.77244,32.93389 6.62664,37.01843 3.39966,2.86063 7.66896,3.40563 8.55667,1.0923 0.31537,-0.82184 0.91083,-1.28571 1.32325,-1.03082 1.49813,0.92589 5.3101,-4.47422 6.12163,-8.672 0.45751,-2.36661 0.85145,-15.69393 0.8754,-29.61628 L 248,500.87328 l -3.25,0.31336 -3.25,0.31336 0.38519,25.5 c 0.21185,14.025 0.0737,26.91674 -0.30712,28.64831 -0.75844,3.44903 -3.6871,4.89889 -6.67044,3.30225 -1.41574,-0.75768 -1.85895,-0.49779 -2.21931,1.30135 -0.66404,3.31526 -0.79919,0.16212 -1.33862,-31.23074 -0.3383,-19.68757 -0.80923,-27.69314 -1.66094,-28.23469 -0.9,-0.57225 -0.88512,-0.75957 0.0612,-0.77117 0.94376,-0.0116 1.25,-3.69014 1.25,-15.01531 0,-13.47399 0.19592,-15.19592 1.92579,-16.92579 2.18252,-2.18252 5.55218,-1.78901 6.63072,0.77433 0.38217,0.9083 0.9758,8.17646 1.31917,16.15146 l 0.62432,14.5 3.25,0.31336 3.25,0.31336 0,-14.66902 c 0,-10.86357 0.44836,-16.26298 1.7283,-20.81336 1.34935,-4.79709 1.71742,-9.9815 1.67868,-23.64434 -0.0432,-15.23687 -0.34328,-18.46991 -2.32046,-25 -2.39624,-7.91414 -4.00294,-10.39584 -8.08416,-12.48682 -5.45147,-2.793 -11.02017,-1.20221 -18.0621,5.15975 -2.16714,1.95789 -3.94026,3.10979 -3.94026,2.55979 0,-1.52441 7.63849,-8.09269 11.61842,-9.99058 2.85009,-1.35911 3.44426,-2.1339 3.08355,-4.02086 -0.32155,-1.68205 -0.062,-2.18969 0.92561,-1.8107 C 235.5624,395.76931 236,395.15011 236,393.46862 236,391.14627 235.67762,391 230.55902,391 c -2.99254,0 -5.72012,0.45165 -6.06129,1.00367 -0.34116,0.55202 -1.71772,0.72824 -3.05902,0.39159 -2.31874,-0.58197 -2.4473,-0.37308 -2.61342,4.24633 l -0.1747,4.85841 -0.39421,-4.48357 c -0.21681,-2.46597 -0.82284,-4.74849 -1.34673,-5.07227 -0.52389,-0.32378 -3.25417,-0.69372 -6.0673,-0.82208 -15.07122,-0.68769 -24.31289,-5.20475 -34.9453,-17.08026 -3.51231,-3.92295 -6.91294,-6.86596 -7.62005,-6.59462 -0.70235,0.26952 -1.3145,0.16665 -1.36033,-0.22858 -0.0458,-0.39524 -0.19004,-1.65522 -0.32046,-2.79995 -0.40153,-3.52443 -6.59835,-10.7439 -11.45136,-13.34115 -3.05787,-1.63652 -12.72461,-1.35491 -14.50199,0.42248 -0.825,0.825 -2.17262,1.5 -2.99471,1.5 -4.17395,0 -9.04091,7.18808 -10.15629,15 -0.11779,0.825 -0.4936,2.175 -0.83511,3 -1.51893,3.66924 -4.54274,18.50319 -3.88548,19.061 0.4008,0.34015 2.30373,1.22323 4.22873,1.9624 1.925,0.73918 8.5724,5.11019 14.77199,9.71337 10.58765,7.86129 22.99886,14.14092 25.2269,12.76392 0.4746,-0.29332 1.14557,-0.076 1.49103,0.483 0.34546,0.55897 1.95156,1.01631 3.5691,1.01631 1.61754,0 2.94098,0.4199 2.94098,0.93312 0,0.51321 -1.28515,0.89657 -2.85589,0.85191 -1.57074,-0.0447 -3.33964,0.21778 -3.9309,0.5832 -0.59126,0.36542 -1.3416,0.23305 -1.66742,-0.29414 -0.32582,-0.52719 -2.71942,-1.24517 -5.3191,-1.5955 -2.59968,-0.35034 -8.10322,-1.72634 -12.2301,-3.05778 C 140.33814,410.62735 139,410.48717 139,412.37359 c 0,1.44573 12.81141,8.46448 19.317,10.58284 2.09935,0.68359 3.62171,1.43819 3.38302,1.67688 -0.23868,0.23869 -3.75995,0.80697 -7.82503,1.26285 -4.06509,0.45588 -10.31245,2.05687 -13.88303,3.55776 -10.27159,4.31765 -10.27466,4.31748 -12.12482,-0.67449 -1.51365,-4.08406 -1.49817,-4.7401 0.2435,-10.32036 2.45322,-7.86002 2.39032,-8.45907 -0.88813,-8.45907 -1.52763,0 -3.77763,-0.70052 -5,-1.5567 C 120.06005,406.92865 120,406.97594 120,410.19367 c 0,4.91553 -2.76756,17.22885 -3.96185,17.62695 -0.57098,0.19032 -1.03815,0.78146 -1.03815,1.31362 0,0.53217 -2.42237,6.00717 -5.38303,12.16667 -6.69189,13.92208 -8.66954,18.37364 -14.304777,32.19909 -2.465972,6.05 -5.795022,14.00043 -7.397889,17.66761 -3.504561,8.01806 -3.562534,8.79897 -0.664304,8.94839 1.69317,0.0873 1.81691,0.22918 0.5,0.57333 -2.132581,0.5573 -2.231076,1.66652 -0.290959,3.27668 1.805544,1.49847 7.453368,0.42582 8.215517,-1.56031 0.382759,-0.99745 2.331488,-1.4057 6.709922,-1.4057 9.64259,0 13.48049,-4.40417 9.51714,-10.92137 -1.9584,-3.22034 -8.41451,-5.6854 -11.950786,-4.56303 C 98.877875,485.85615 98,485.70694 98,485.18402 c 0,-2.88 12.12692,-1.19996 15.47008,2.1432 0.92003,0.92003 2.09063,1.67278 2.60135,1.67278 0.51071,0 0.92857,2.025 0.92857,4.5 0,2.475 -0.45,4.5 -1,4.5 -0.55,0 -1,0.47656 -1,1.05902 0,0.58246 0.41891,0.80012 0.9309,0.48369 1.42633,-0.88152 2.44429,1.4821 1.18197,2.74442 C 116.29571,503.10429 116,503.02799 116,502 c 0,-1.02799 -0.29571,-1.10429 -1.11287,-0.28713 -1.26232,1.26232 -0.24436,3.62594 1.18197,2.74442 0.51199,-0.31643 0.9309,0.57623 0.9309,1.98369 0,1.40746 -0.45,2.55902 -1,2.55902 -0.55,0 -1,0.61749 -1,1.37219 0,0.82111 1.56196,1.62196 3.88926,1.99411 2.13909,0.34206 7.27961,2.35576 11.42337,4.47491 4.14377,2.11914 10.2686,4.43328 13.61075,5.14253 7.2892,1.54687 7.9068,3.01626 1.26775,3.01626 -5.41661,0 -6.95498,0.93866 -10.04436,6.12874 -1.188,1.9958 -4.18202,5.49257 -6.65339,7.77059 -3.06767,2.82768 -4.49338,4.95122 -4.49338,6.69269 0,1.40296 -0.65732,3.20816 -1.46072,4.01155 -0.80339,0.8034 -1.73325,2.91344 -2.06634,4.68898 -0.68288,3.64006 1.00282,9.14948 2.51373,8.21569 0.56541,-0.34945 0.73905,0.043 0.40463,0.91444 -1.36662,3.56134 6.13748,11.68164 12.16969,13.16902 1.61646,0.39857 3.83901,1.30356 4.93901,2.01108 3.08743,1.98585 10.16634,3.26705 19.5,3.52929 4.675,0.13134 12.51357,0.72961 17.41904,1.32948 7.71185,0.94305 8.94918,1.35784 9.14166,3.06456 0.12244,1.08564 0.92716,6.92389 1.78827,12.97389 0.86111,6.05 1.81371,15.5 2.11689,21 0.95115,17.25475 1.82972,23.05182 3.37578,22.27462 0.3621,-0.18203 6.17086,-3.00741 12.90836,-6.27862 z M 219.15789,617 c 0,-1.375 0.22698,-1.9375 0.50439,-1.25 0.27741,0.6875 0.27741,1.8125 0,2.5 -0.27741,0.6875 -0.50439,0.125 -0.50439,-1.25 z m 12.92106,-3.41667 c -0.0434,-1.05416 0.19292,-1.64479 0.52522,-1.3125 0.33229,0.33229 0.36781,1.1948 0.0789,1.91667 -0.31922,0.79773 -0.55618,0.56078 -0.60416,-0.60417 z m -13,-9 c -0.0434,-1.05416 0.19292,-1.64479 0.52522,-1.3125 0.33229,0.33229 0.36781,1.1948 0.0789,1.91667 -0.31922,0.79773 -0.55618,0.56078 -0.60416,-0.60417 z m 13,-7 c -0.0434,-1.05416 0.19292,-1.64479 0.52522,-1.3125 0.33229,0.33229 0.36781,1.1948 0.0789,1.91667 -0.31922,0.79773 -0.55618,0.56078 -0.60416,-0.60417 z M 270,587 c -0.275,-0.825 -0.27216,-10.725 0.006,-22 l 0.5063,-20.5 0.4937,16 c 0.48684,15.77766 -0.0314,29.42473 -1.0063,26.5 z m -50.92105,-1.41667 c -0.0434,-1.05416 0.19292,-1.64479 0.52522,-1.3125 0.33229,0.33229 0.36781,1.1948 0.0789,1.91667 -0.31922,0.79773 -0.55618,0.56078 -0.60416,-0.60417 z M 219.38854,569.5 c -0.002,-7.15 0.1561,-10.20621 0.35078,-6.79159 0.19467,3.41463 0.19611,9.26463 0.003,13 -0.19293,3.73538 -0.35221,0.94159 -0.35396,-6.20841 z M 185,577.5 c 0,-0.825 0.43588,-1.5 0.96862,-1.5 0.53273,0 0.70959,0.675 0.39301,1.5 -0.31659,0.825 -0.75246,1.5 -0.96862,1.5 C 185.17686,579 185,578.325 185,577.5 z M 168.232,575 c 0,-1.925 0.2058,-2.7125 0.45733,-1.75 0.25152,0.9625 0.25152,2.5375 0,3.5 -0.25153,0.9625 -0.45733,0.175 -0.45733,-1.75 z m 79.84695,-2.41667 c -0.0434,-1.05416 0.19292,-1.64479 0.52522,-1.3125 0.33229,0.33229 0.36781,1.1948 0.0789,1.91667 -0.31922,0.79773 -0.55618,0.56078 -0.60416,-0.60417 z M 320,559.5 c 0,-7.05833 0.206,-12.62733 0.45778,-12.37556 0.70112,0.70113 0.84317,23.90794 0.15058,24.60053 C 320.27376,572.05957 320,566.55833 320,559.5 z m -151.63477,-3 c -0.003,-5.5 0.16319,-7.87758 0.36844,-5.28352 0.20525,2.59406 0.20738,7.09406 0.005,10 C 168.53576,564.12242 168.36783,562 168.36523,556.5 z M 168.15789,531 c 0,-1.375 0.22698,-1.9375 0.50439,-1.25 0.27741,0.6875 0.27741,1.8125 0,2.5 -0.27741,0.6875 -0.50439,0.125 -0.50439,-1.25 z m 102.09429,-6.5 c -0.0111,-2.2 0.18461,-3.21775 0.4349,-2.26166 0.25029,0.95609 0.25937,2.75609 0.0202,4 C 270.46809,527.48225 270.2633,526.7 270.2522,524.5 z M 206,501.5 c 0,-0.825 0.43588,-1.5 0.96862,-1.5 0.53273,0 0.70959,0.675 0.39301,1.5 -0.31659,0.825 -0.75246,1.5 -0.96862,1.5 C 206.17686,503 206,502.325 206,501.5 z m 10.5,-0.42331 -3,-0.68669 3.25,-0.52181 c 2.29586,-0.36861 3.25,-0.13228 3.25,0.805 0,0.72975 -0.1125,1.27357 -0.25,1.2085 -0.1375,-0.0651 -1.6,-0.42733 -3.25,-0.805 z m -84.7723,-0.79842 c 1.77523,-0.22091 4.92523,-0.22454 7,-0.008 2.07476,0.21648 0.6223,0.39722 -3.2277,0.40166 -3.85,0.004 -5.54754,-0.17268 -3.7723,-0.39359 z m 35.54313,0.11756 c 0.33229,-0.33229 1.19479,-0.36781 1.91667,-0.0789 0.79773,0.31922 0.56078,0.55618 -0.60417,0.60416 -1.05416,0.0434 -1.64479,-0.19293 -1.3125,-0.52522 z m 76.28465,-43.07273 c 3.48105,-5.12961 3.76883,-6.94309 3.11552,-19.63335 -1.1288,-21.92636 -2.98861,-27.42966 -9.81674,-29.04833 -1.93207,-0.45801 -2.81598,-0.18356 -3.27685,1.01744 -0.87903,2.29073 1.66092,10.46267 6.0115,19.34114 4.68355,9.55797 5.31083,14.36299 2.5553,19.57384 -2.88638,5.45827 -5.25861,8.06815 -7.9118,8.70437 -2.74809,0.65897 -5.60888,-1.86073 -4.71989,-4.15715 2.70044,-6.97577 1.1333,-10.6524 -4.12041,-9.6668 -1.84815,0.34672 -3.51368,0.15805 -3.88323,-0.43989 -0.35589,-0.57585 -1.06598,-0.7881 -1.57798,-0.47166 C 219.41891,442.85914 219,442.2056 219,441.0904 c 0,-1.3915 0.4706,-1.84704 1.5,-1.45203 0.825,0.31659 1.5,0.98278 1.5,1.48044 0,0.49765 1.7565,0.62395 3.90333,0.28066 3.46106,-0.55345 4.10064,-0.32304 5.64471,2.0335 1.50788,2.30133 1.57756,3.20443 0.51967,6.73536 -0.82235,2.74478 -0.89163,4.40775 -0.21192,5.08746 1.62983,1.62983 3.62215,0.24493 7.07107,-4.91522 2.82203,-4.22224 3.16166,-5.4154 2.65874,-9.34057 -0.31711,-2.475 -2.104,-7.65 -3.97087,-11.5 -1.86687,-3.85 -3.72592,-8.09662 -4.13124,-9.43694 -0.70538,-2.33262 -0.79572,-2.35654 -2.11021,-0.55887 -1.62766,2.22595 -1.74352,1.59981 -0.37165,-2.00849 1.07235,-2.82048 0.37083,-7.4957 -1.12474,-7.4957 -1.75734,0 -4.86946,6.5459 -4.87315,10.25 -0.004,4.00834 -1.42422,5.07409 -2.29982,1.7258 -0.88457,-3.38261 1.31565,-9.19537 4.79916,-12.67888 4.38583,-4.38583 9.04956,-4.50661 13.77597,-0.35677 4.56089,4.00451 5.67684,8.14526 6.75029,25.04688 0.98753,15.54868 0.43582,19.88061 -3.10531,24.38242 -3.13055,3.97985 -4.21615,3.14983 -1.36855,-1.04635 z M 219,453.44098 c 0,-0.85746 0.45,-1.2809 1,-0.94098 0.55,0.33992 1,1.04148 1,1.55902 0,0.51754 -0.45,0.94098 -1,0.94098 -0.55,0 -1,-0.70156 -1,-1.55902 z M 167.34281,386.5 c 0.004,-4.4 0.17944,-6.07561 0.39069,-3.72357 0.21124,2.35204 0.20827,5.95204 -0.007,8 -0.21487,2.04796 -0.38771,0.12357 -0.38408,-4.27643 z m 71.78475,169.8444 c 1.10246,-1.32992 1.30729,-6.533 1.04127,-26.45018 -0.18215,-13.63702 -0.4474,-25.6045 -0.58945,-26.5944 -0.17185,-1.19756 -1.27515,-1.90164 -3.29714,-2.1041 -2.88896,-0.28927 -3.06691,-0.0919 -3.60728,4 -0.80843,6.12192 -0.0817,46.90539 0.87856,49.30428 1.45953,3.64612 3.5163,4.32668 5.57404,1.8444 z M 120.22908,546.37617 C 120.37809,544.79427 120.05,543.275 119.5,543 c -0.585,-0.2925 -1.10642,1.57501 -1.25644,4.5 -0.18634,3.63329 0.013,4.55614 0.72909,3.37617 0.54203,-0.89311 1.10743,-2.91811 1.25643,-4.5 z m 8.14032,-11.64215 c 2.12816,-2.32871 3.60479,-3.44652 3.28138,-2.48402 -0.81288,2.41925 0.0404,2.19553 1.4138,-0.37068 0.79768,-1.49047 0.80814,-1.91869 0.0352,-1.44098 C 132.4949,530.81217 132,530.66803 132,530.11803 c 0,-0.55 0.45,-1.27811 1,-1.61803 2.33167,-1.44105 0.66681,-2.5 -3.93045,-2.5 -4.31799,0 -4.98428,0.2795 -5.36382,2.25 -0.37157,1.92915 -0.45279,1.85784 -0.56955,-0.5 -0.10203,-2.06037 -0.6497,-2.75 -2.18393,-2.75 -2.45028,0 -6.76157,4.39209 -7.6033,7.7458 -0.79295,3.15939 1.24196,7.62516 3.14227,6.89594 0.7946,-0.30491 1.70007,-0.14124 2.01216,0.36372 1.0323,1.67031 5.89791,-0.9294 9.86602,-5.27144 z M 320,509.33333 c 0,-8.61666 0.26077,-15.40589 0.5795,-15.08717 0.31872,0.31873 0.53374,7.36873 0.47781,15.66667 L 320.95563,525 l 4.07256,0 4.07256,0 -0.15038,-12.25 c -0.0827,-6.7375 0.13615,-14.05 0.48636,-16.25 2.21568,-13.91903 4.4732,-24.49213 9.28789,-43.5 5.37742,-21.22947 5.44549,-21.68271 5.41015,-36.0205 -0.0673,-27.29113 -8.66851,-59.91266 -18.03113,-68.3857 -1.157,-1.04708 -2.10364,-2.45393 -2.10364,-3.12634 0,-0.67242 -0.63911,-1.75299 -1.42025,-2.40128 -1.22098,-1.01332 -1.43613,2.85607 -1.5334,27.57762 -0.0622,15.81597 -0.32311,28.96629 -0.57974,29.22293 C 320.20997,400.12336 320,386.60716 320,369.83073 l 0,-30.50261 -6.75,-6.47838 c -6.47597,-6.21539 -14.41687,-12.59809 -22.1284,-17.7863 C 285.6452,311.37901 273.18305,305 271.46145,305 c -1.31881,0 -1.50763,2.9988 -1.42296,22.5986 0.0537,12.42924 -0.15799,22.85424 -0.47043,23.16667 C 269.25563,351.07771 269,340.52086 269,327.30562 l 0,-24.02772 -7.75,-2.16366 c -11.76971,-3.2859 -15.65154,-3.71877 -29.55252,-3.29551 l -12.80252,0.38982 0.10931,19.64572 c 0.17362,31.20337 0.0353,41.51859 -0.54905,40.93428 -0.29964,-0.29963 -0.51862,-13.84436 -0.48664,-30.09939 0.0379,-19.28306 -0.30026,-29.77611 -0.97309,-30.19194 -1.34736,-0.83272 -20.54607,1.12991 -29.49549,3.01524 -8.17646,1.72249 -19.5,6.9779 -19.5,9.0502 0,0.79054 -0.70194,1.43734 -1.55986,1.43734 -2.53379,0 -12.1546,9.76339 -20.20062,20.5 -4.12171,5.5 -7.70546,10.55094 -7.96389,11.2243 -0.80611,2.10035 2.52647,4.44515 5.98045,4.20784 7.34642,-0.50474 14.85046,0.0865 14.2119,1.11968 -0.35754,0.57849 1.64091,3.34278 4.44098,6.14285 2.80007,2.80008 5.09104,5.31416 5.09104,5.58687 0,1.00696 11.52955,14.82394 14.95647,17.92379 5.0198,4.54071 10.48293,6.85707 13.30306,5.6405 1.23226,-0.53158 3.05187,-0.78926 4.04357,-0.57262 1.4475,0.31621 1.56731,0.67801 0.6075,1.83451 -1.93311,2.32926 -0.27442,2.87898 9.42218,3.12265 5.04197,0.12671 9.16722,0.25298 9.16722,0.2806 0,0.0276 3.93793,0.14895 8.75095,0.26962 4.81303,0.12068 8.75053,-0.11809 8.75,-0.53059 -5.2e-4,-0.4125 0.78655,-0.0415 1.74905,0.82433 0.9625,0.86589 3.86492,2.91834 6.44981,4.561 5.5837,3.54835 12.65922,13.71494 15.2169,21.86467 0.94936,3.025 2.12197,6.4 2.60581,7.5 1.57019,3.56979 2.88678,15.57774 4.00197,36.5 0.60097,11.275 1.51631,20.9275 2.03409,21.45 0.51778,0.5225 0.94142,3.44104 0.94142,6.48565 0,9.78564 6.05276,18.6007 18.86308,27.47164 5.09029,3.52493 22.2046,9.49347 27.38692,9.55104 L 320,525 320,509.33333 z M 320.32814,476.5 c -0.004,-3.85 0.17268,-5.54754 0.39359,-3.7723 0.22091,1.77523 0.22454,4.92523 0.008,7 -0.21648,2.07476 -0.39722,0.6223 -0.40166,-3.2277 z m -0.24919,-9.91667 c -0.0434,-1.05416 0.19293,-1.64479 0.52522,-1.3125 0.33229,0.33229 0.36781,1.19479 0.0789,1.91667 -0.31922,0.79773 -0.55618,0.56078 -0.60416,-0.60417 z M 320.232,442 c 0,-1.925 0.2058,-2.7125 0.45733,-1.75 0.25152,0.9625 0.25152,2.5375 0,3.5 -0.25153,0.9625 -0.45733,0.175 -0.45733,-1.75 z m -51.20159,-18.55 c 0.0267,-2.58611 0.16279,-2.72225 1.10362,-1.10362 0.76916,1.32326 0.76054,2.15905 -0.0304,2.95 -0.80483,0.80483 -1.09539,0.30495 -1.07321,-1.84638 z M 320,423.38603 c 0,-2.34925 0.18736,-2.48751 1.75,-1.29144 0.9625,0.73671 1.84203,1.37134 1.95452,1.4103 0.11249,0.0389 -0.67501,0.6201 -1.75,1.29144 C 320.20113,425.89134 320,425.74622 320,423.38603 z M 269.06082,409 c 0,-2.8554 0.18772,-3.1777 1.01928,-1.75 0.69237,1.18874 0.69237,2.31126 0,3.5 -0.83156,1.4277 -1.01928,1.1054 -1.01928,-1.75 z m -50.98187,-28.41667 c -0.0434,-1.05416 0.19292,-1.64479 0.52522,-1.3125 0.33229,0.33229 0.36781,1.19479 0.0789,1.91667 -0.31922,0.79773 -0.55618,0.56078 -0.60416,-0.60417 z m 20.84196,-3.33424 c 0.47784,-3.45117 0.54755,-3.52089 0.87727,-0.87727 0.19699,1.5795 -0.0366,3.2666 -0.5191,3.7491 -0.50302,0.50302 -0.65582,-0.72209 -0.35817,-2.87183 z M 241.0856,380 c -0.0302,-0.825 0.38124,-2.175 0.9144,-3 1.18132,-1.82797 1.18132,-0.24909 0,2.5 -0.56668,1.31874 -0.87815,1.48906 -0.9144,0.5 z m -0.007,-14.41667 c -0.0434,-1.05416 0.19292,-1.64479 0.52522,-1.3125 0.33229,0.33229 0.36781,1.19479 0.0789,1.91667 -0.31922,0.79773 -0.55618,0.56078 -0.60416,-0.60417 z m -23,-2 c -0.0434,-1.05416 0.19292,-1.64479 0.52522,-1.3125 0.33229,0.33229 0.36781,1.19479 0.0789,1.91667 -0.31922,0.79773 -0.55618,0.56078 -0.60416,-0.60417 z m 24,-2 c -0.0434,-1.05416 0.19292,-1.64479 0.52522,-1.3125 0.33229,0.33229 0.36781,1.19479 0.0789,1.91667 -0.31922,0.79773 -0.55618,0.56078 -0.60416,-0.60417 z M 212,348 c 0,-0.55 0.70156,-1 1.55902,-1 0.85746,0 1.2809,0.45 0.94098,1 -0.33992,0.55 -1.04148,1 -1.55902,1 C 212.42344,349 212,348.55 212,348 z m 32.51571,0.0254 c -0.78841,-1.27567 0.84908,-2.03604 2.36588,-1.0986 1.00461,0.62088 0.94645,0.92519 -0.26572,1.39034 -0.8535,0.32752 -1.79857,0.19624 -2.10016,-0.29174 z m 4.9573,-0.0691 C 249.14793,347.43035 249.32553,347 249.86766,347 c 0.54213,0 1.14939,-0.7875 1.34946,-1.75 0.30106,-1.44837 0.46701,-1.37332 0.96281,0.43542 0.61953,2.26011 -1.5755,4.10158 -2.70692,2.27091 z m -24.20218,-0.5605 c 0.33229,-0.33229 1.19479,-0.36781 1.91667,-0.0789 0.79773,0.31922 0.56078,0.55618 -0.60417,0.60416 -1.05416,0.0434 -1.64479,-0.19293 -1.3125,-0.52522 z m 8.96126,-0.11036 c 1.50265,-0.22817 4.20265,-0.23276 6,-0.0102 1.79735,0.22256 0.56791,0.40925 -2.73209,0.41486 -3.3,0.006 -4.77056,-0.17648 -3.26791,-0.40466 z M 167.07895,316.5833 c -0.0434,-1.05416 0.19292,-1.64479 0.52522,-1.3125 0.33229,0.33229 0.36781,1.19479 0.0789,1.91667 -0.31922,0.79773 -0.55618,0.56078 -0.60416,-0.60417 z M 230.0856,316 c 0.0302,-0.825 0.44171,-2.4 0.9144,-3.5 0.85943,-2 0.85943,-2 0.9144,0 0.0302,1.1 -0.38124,2.675 -0.9144,3.5 -0.86167,1.33333 -0.96327,1.33333 -0.9144,0 z m 3.98469,-1.25 C 234.03163,313.2375 234.45,312 235,312 c 1.17371,0 1.17371,0.76862 0,3.5 -0.76156,1.77225 -0.86743,1.68684 -0.92971,-0.75 z M 256,314.55902 C 256,313.15156 256.45,312 257,312 c 0.55,0 1,0.87344 1,1.94098 0,1.06754 -0.45,2.2191 -1,2.55902 -0.56716,0.35052 -1,-0.48962 -1,-1.94098 z M 253.15789,314 c 0,-1.375 0.22698,-1.9375 0.50439,-1.25 0.27741,0.6875 0.27741,1.8125 0,2.5 -0.27741,0.6875 -0.50439,0.125 -0.50439,-1.25 z m 8.92106,-8.41667 c -0.0434,-1.05416 0.19293,-1.64479 0.52522,-1.3125 0.33229,0.33229 0.36781,1.19479 0.0789,1.91667 -0.31922,0.79773 -0.55618,0.56078 -0.60416,-0.60417 z M 130.875,523.375 c 1.71875,-0.34375 3.11528,-0.90625 3.1034,-1.25 -0.0546,-1.5806 -12.07587,-6.01515 -15.89331,-5.86292 -5.83565,0.23271 -5.34419,3.42661 0.94718,6.1555 3.80283,1.64949 7.06411,1.91314 11.84273,0.95742 z m -22.10305,-18.81361 c 1.16247,-1.16247 -1.04006,-2.0205 -4.92507,-1.91863 -2.41616,0.0634 -4.687555,0.80384 -5.6853,1.85344 -1.574725,1.65657 -1.35551,1.71863 4.1937,1.18726 3.2204,-0.30838 6.1079,-0.81331 6.41667,-1.12207 z M 239,487.625 c 0,-15.75663 -0.56453,-18.82942 -3.38536,-18.42681 -2.00979,0.28685 -2.13948,0.99597 -2.61564,14.30181 -0.27555,7.7 -0.3399,14.5625 -0.14301,15.25 0.19689,0.6875 1.65984,1.25 3.251,1.25 L 239,500 239,487.625 z M 135.45295,427.83948 c 3.24712,-1.47948 3.20007,-2.02251 -0.35724,-4.12387 C 131.17662,421.40054 131,421.47749 131,425.5 c 0,3.79818 0.58124,4.10355 4.45295,2.33948 z M 150,422.1048 c 0,-0.49235 -2.3625,-2.11472 -5.25,-3.60526 -2.8875,-1.49053 -6.39962,-3.7877 -7.80472,-5.1048 C 135.54019,412.07763 133.90083,411 133.30227,411 132.12601,411 131,413.26839 131,415.63802 c 0,1.80796 7.60247,5.28538 13.87063,6.34451 2.54615,0.43023 4.74187,0.83516 4.87937,0.89985 0.1375,0.0647 0.25,-0.28522 0.25,-0.77758 z M 117.68933,411.25 c -0.25153,-0.9625 -0.45733,-0.175 -0.45733,1.75 0,1.925 0.2058,2.7125 0.45733,1.75 0.25152,-0.9625 0.25152,-2.5375 0,-3.5 z m 34.98491,1.09091 c -0.36249,-0.3625 -1.73583,-1.375 -3.05185,-2.25 -1.31602,-0.875 -6.15693,-4.45304 -10.75758,-7.9512 -8.15163,-6.19819 -10.42001,-7.488 -15.34137,-8.72318 -2.10507,-0.52834 -2.53243,-0.11857 -3.60302,3.45474 -1.13076,3.77414 -1.03592,4.28852 1.37301,7.44679 2.49552,3.2718 2.88357,3.41181 10.89712,3.93184 4.93961,0.32055 10.33716,1.37096 13.30945,2.59013 4.96657,2.03719 8.43647,2.76311 7.17424,1.50088 z m 166.91008,-81.41682 c -0.91311,-6.88335 -3.75636,-13.76217 -9.0234,-21.83076 C 305.59717,301.48934 299.89721,296 296.9652,296 295.88434,296 295,295.36776 295,294.59502 c 0,-1.89142 -8.8299,-7.19571 -18.37212,-11.03648 -6.63841,-2.67198 -6.63322,-2.67867 -6.54335,8.44591 l 0.0808,10.00445 10.06401,5.05791 c 13.25996,6.6641 19.51664,11.02873 29.77063,20.76786 4.675,4.44026 8.89547,8.09393 9.37883,8.11927 0.48336,0.0253 0.57583,-2.2381 0.20549,-5.02985 z M 372.46375,595.5 c 1.8e-4,-27.5 0.12871,-38.60616 0.28561,-24.68035 0.1569,13.92581 0.15675,36.42581 -3.3e-4,50 C 372.59195,634.39384 372.46357,623 372.46375,595.5 z m 18.96482,47.92857 c 1.26378,-1.26378 1.58142,-4.15147 1.62247,-14.75 0.1049,-27.08605 -0.17304,-40.12555 -0.87684,-41.13687 -0.39872,-0.57294 -0.53694,-3.5167 -0.30715,-6.5417 0.22979,-3.025 0.58987,-21.65224 0.80016,-41.39387 0.32294,-30.31527 0.15725,-36.14349 -1.06609,-37.5 -1.16377,-1.29046 -1.20664,-1.93568 -0.21811,-3.28287 0.93104,-1.26885 1.16659,-10.2697 0.9683,-37 -0.14412,-19.42779 -0.55961,-36.33576 -0.9233,-37.57326 -0.40699,-1.38481 -0.23189,-2.25 0.45536,-2.25 1.52436,0 1.57746,-70.27042 0.0552,-73.11471 -0.75359,-1.40809 -0.73981,-2.95763 0.0475,-5.34319 1.5512,-4.7002 1.49341,-45.25939 -0.0672,-47.13977 -0.88612,-1.06771 -0.88108,-1.74303 0.0211,-2.8301 0.65171,-0.78528 1.19697,-4.49778 1.21168,-8.25 0.0258,-6.59223 0.0671,-6.70424 1.22315,-3.32223 0.78927,2.30892 0.90681,4.86124 0.34541,7.5 -0.46805,2.2 -0.84385,4.7875 -0.8351,5.75 0.0197,2.16873 0.89324,21.10721 1.08394,23.5 0.0767,0.9625 -0.28046,7.825 -0.7937,15.25 -0.51324,7.425 -0.63248,13.95 -0.26499,14.5 0.3675,0.55 0.55455,17.2 0.41567,37 -0.40668,57.97995 -0.24403,75.94232 0.69634,76.9032 0.50461,0.5156 0.51045,1.60104 0.0136,2.52938 -1.43297,2.67753 -1.55983,69.80085 -0.13605,71.98395 0.54586,0.83696 0.56299,2.36562 0.0419,3.73624 -0.48508,1.27584 -0.85698,12.5634 -0.82644,25.08347 0.10613,43.52475 -0.19355,75.77424 -0.72032,77.51376 -0.29146,0.9625 -1.20675,1.75 -2.03398,1.75 -1.31013,0 -1.30144,-0.2026 0.0674,-1.57143 z m 105.58347,-0.40606 c -0.86343,-1.61335 -0.77784,-1.86987 0.46482,-1.39302 1.16422,0.44676 1.55523,-0.20656 1.65932,-2.7725 0.11155,-2.7497 0.21933,-2.90473 0.59582,-0.85699 0.2528,1.375 0.85581,2.98321 1.34002,3.57379 0.52378,0.63885 0.40396,1.55023 -0.29581,2.25 -1.65958,1.65958 -2.54841,1.47038 -3.76417,-0.80128 z m -379.93309,-3.43918 c -0.0434,-1.05416 0.19292,-1.64479 0.52522,-1.3125 0.33229,0.33229 0.36781,1.1948 0.0789,1.91667 -0.31922,0.79773 -0.55618,0.56078 -0.60416,-0.60417 z M 169,631.05902 C 169,630.47656 169.45,630 170,630 c 0.55,0 1,0.19844 1,0.44098 0,0.24254 -0.45,0.7191 -1,1.05902 -0.55,0.33992 -1,0.14148 -1,-0.44098 z m 16.07895,-1.47569 c -0.0434,-1.05416 0.19292,-1.64479 0.52522,-1.3125 0.33229,0.33229 0.36781,1.1948 0.0789,1.91667 -0.31922,0.79773 -0.55618,0.56078 -0.60416,-0.60417 z m 315,-3 c -0.0434,-1.05416 0.19293,-1.64479 0.52522,-1.3125 0.33229,0.33229 0.36781,1.1948 0.0789,1.91667 -0.31922,0.79773 -0.55618,0.56078 -0.60416,-0.60417 z M 399.78274,616.02692 C 400.02708,614.36211 400.65581,613 401.17992,613 c 1.296,0 0.59457,5.25585 -0.76068,5.6998 -0.67532,0.22122 -0.9141,-0.78149 -0.6365,-2.67288 z m 4.60555,1.54258 c -1.13142,-2.94846 2.61196,-4.47905 4.72564,-1.93222 0.90992,1.09638 0.92051,1.72828 0.0437,2.6051 -0.87683,0.87683 -1.15762,0.83685 -1.15762,-0.16482 0,-1.05746 -0.2982,-1.07496 -1.48817,-0.0874 -1.20726,1.00194 -1.60809,0.92253 -2.12354,-0.42068 z M 499,615.55902 C 499,614.15156 499.45,613 500,613 c 0.55,0 1,0.87344 1,1.94098 0,1.06754 -0.45,2.2191 -1,2.55902 -0.56716,0.35052 -1,-0.48962 -1,-1.94098 z M 500.27236,602 c 0,-2.475 0.19502,-3.4875 0.43337,-2.25 0.23836,1.2375 0.23836,3.2625 0,4.5 -0.23835,1.2375 -0.43337,0.225 -0.43337,-2.25 z m -2.50698,-6.85479 c 0.26583,-1.81119 -0.11177,-3.9077 -0.8833,-4.90437 -1.08249,-1.39836 -0.90835,-1.36607 0.88515,0.16415 l 2.23277,1.90499 0.18025,-5.90499 c 0.17336,-5.67934 0.19456,-5.72347 0.55479,-1.15499 0.206,2.6125 0.85499,4.75 1.4422,4.75 0.69922,0 0.65636,0.49557 -0.12419,1.43608 -0.92393,1.11327 -0.91466,1.9562 0.0413,3.75 1.12891,2.11839 1.08988,2.19575 -0.46187,0.91554 -1.47168,-1.21417 -1.86863,-1.1609 -3.01318,0.40437 -1.1737,1.60513 -1.26731,1.45595 -0.8539,-1.36078 z m -322.09871,0.18812 c -1.17686,-1.17685 -0.71308,-4.04992 0.86518,-5.35977 1.34809,-1.11881 1.40425,-0.93569 0.46815,1.52644 -0.91023,2.3941 -0.85554,2.62499 0.37912,1.60032 1.08506,-0.90052 1.61987,-0.91096 2.15685,-0.0421 0.5223,0.8451 0.96942,0.79101 1.66516,-0.20144 0.76965,-1.09788 0.873,-1.07055 0.54167,0.14324 -0.22521,0.825 -0.89697,1.5 -1.4928,1.5 -0.59583,0 -1.42083,0.3375 -1.83333,0.75 -0.92744,0.92744 -1.87712,0.95621 -2.75,0.0833 z M 446,592.98469 c -1.06315,-0.69792 -1.16965,-1.20312 -0.36568,-1.73469 0.62387,-0.4125 1.29887,-1.56598 1.5,-2.56329 0.24989,-1.23914 0.71423,-0.68502 1.46647,1.75 1.16476,3.77035 0.40104,4.51856 -2.60079,2.54798 z m -47,-10.44257 c 0,-2.97966 4.35959,-2.83332 4.80317,0.16123 0.23804,1.60695 -0.24534,2.04665 -2.25,2.04665 -1.96663,0 -2.55317,-0.50721 -2.55317,-2.20788 z m 49.75,1.37778 c -2.50663,-1.45997 -2.15792,-3.60877 0.67346,-4.15002 1.81426,-0.34682 2.55626,0.0446 2.95176,1.55697 0.90686,3.46785 -0.45313,4.44063 -3.62522,2.59305 z M 443.15789,581 c 0,-1.375 0.22698,-1.9375 0.50439,-1.25 0.27741,0.6875 0.27741,1.8125 0,2.5 -0.27741,0.6875 -0.50439,0.125 -0.50439,-1.25 z m 3.95811,-7.37244 c -0.0855,-1.38012 -0.44467,-1.59968 -1.366,-0.83504 -0.96727,0.80276 -1.25,0.058 -1.25,-3.29252 0,-3.26669 0.29619,-4.08411 1.2062,-3.32887 0.6634,0.55058 1.67075,0.71394 2.23854,0.36302 0.61765,-0.38173 0.79116,-0.009 0.43193,0.92665 -0.33023,0.86057 -0.045,2.23394 0.6339,3.05193 0.76374,0.92025 0.83434,1.48727 0.1852,1.48727 -0.57702,0 -1.25492,0.7875 -1.50644,1.75 -0.40952,1.56705 -0.46945,1.55425 -0.57333,-0.12244 z M 66.349414,566 c 0,-4.675 0.172256,-6.5875 0.382791,-4.25 0.210535,2.3375 0.210535,6.1625 0,8.5 -0.210535,2.3375 -0.382791,0.425 -0.382791,-4.25 z m 433.922946,4 c 0,-2.475 0.19502,-3.4875 0.43337,-2.25 0.23836,1.2375 0.23836,3.2625 0,4.5 -0.23835,1.2375 -0.43337,0.225 -0.43337,-2.25 z m -52.98635,-10.5 c 0.008,-2.75 0.20172,-3.75631 0.43157,-2.23625 0.22986,1.52006 0.22371,3.77006 -0.0136,5 -0.23736,1.22994 -0.42542,-0.0137 -0.41792,-2.76375 z m 52.22897,0.52423 c -0.34278,-0.55461 -0.21477,-1.73826 0.28445,-2.63032 0.79065,-1.41281 0.97892,-1.34949 1.46024,0.49109 0.58837,2.24991 -0.69998,3.82961 -1.74469,2.13923 z M 66.194949,547.5 c -0.02038,-1.65 0.187065,-2.44606 0.460988,-1.76903 0.273923,0.67703 0.290597,2.02703 0.03705,3 -0.253544,0.97297 -0.477663,0.41903 -0.498042,-1.23097 z m 381.091061,-2 c 0.008,-2.75 0.20172,-3.75631 0.43157,-2.23625 0.22986,1.52006 0.22371,3.77006 -0.0136,5 -0.23736,1.22994 -0.42542,-0.0137 -0.41792,-2.76375 z m 52.79294,3.08333 c -0.0434,-1.05416 0.19293,-1.64479 0.52522,-1.3125 0.33229,0.33229 0.36781,1.1948 0.0789,1.91667 -0.31922,0.79773 -0.55618,0.56078 -0.60416,-0.60417 z M 66.320074,536 c 0,-3.575 0.181495,-5.0375 0.403322,-3.25 0.221826,1.7875 0.221826,4.7125 0,6.5 -0.221827,1.7875 -0.403322,0.325 -0.403322,-3.25 z M 406,539.53333 c 0,-1.57666 0.2961,-2.57057 0.65799,-2.20867 0.3619,0.36189 1.2619,0.15679 2,-0.45578 1.0289,-0.85391 1.34201,-0.73522 1.34201,0.50868 0,0.89234 0.43588,1.62244 0.96862,1.62244 0.53273,0 0.70959,0.675 0.39301,1.5 -0.31659,0.825 -1.00402,1.5 -1.52764,1.5 -0.52361,0 -0.67391,-0.45 -0.33399,-1 0.86536,-1.40018 -0.84888,-1.25112 -2.3,0.2 -0.93333,0.93333 -1.2,0.56296 -1.2,-1.66667 z M 500.25218,538.5 c -0.0111,-2.2 0.18461,-3.21775 0.4349,-2.26166 0.25029,0.95609 0.25937,2.75609 0.0202,4 -0.23919,1.24391 -0.44398,0.46166 -0.45508,-1.73834 z m -100.68215,1.61331 c -0.30141,-0.48768 0.0695,-1.39917 0.8242,-2.02553 1.04729,-0.86917 1.50193,-0.80076 1.92009,0.28893 0.85481,2.22762 -1.51428,3.7268 -2.74429,1.7366 z M 447.27236,528 c 0,-2.475 0.19502,-3.4875 0.43337,-2.25 0.23836,1.2375 0.23836,3.2625 0,4.5 -0.23835,1.2375 -0.43337,0.225 -0.43337,-2.25 z m -75.11447,1 c 0,-1.375 0.22698,-1.9375 0.50439,-1.25 0.27741,0.6875 0.27741,1.8125 0,2.5 -0.27741,0.6875 -0.50439,0.125 -0.50439,-1.25 z m 124.98115,-1.40581 c 0.91399,-2.006 0.95829,-3.20869 0.16498,-4.47898 -0.94565,-1.51423 -0.73439,-1.68522 1.64973,-1.33531 2.2341,0.3279 2.65411,0.8206 2.29609,2.69349 -0.241,1.2607 0.0542,2.59648 0.65599,2.96841 2.05387,1.26936 1.16489,2.66642 -0.96975,1.52399 -1.54408,-0.82636 -2.43955,-0.79284 -3.55524,0.1331 -1.30568,1.08362 -1.33578,0.89632 -0.2418,-1.5047 z M 372.32007,520 c 0,-3.575 0.1815,-5.0375 0.40333,-3.25 0.22182,1.7875 0.22182,4.7125 0,6.5 -0.22183,1.7875 -0.40333,0.325 -0.40333,-3.25 z m -306.088067,1 c 0,-1.925 0.205795,-2.7125 0.457323,-1.75 0.251527,0.9625 0.251527,2.5375 0,3.5 -0.251528,0.9625 -0.457323,0.175 -0.457323,-1.75 z M 445.50455,519.00736 C 444.57647,517.50569 445.92359,514 447.42872,514 c 0.843,0 1.1264,0.87639 0.81321,2.51478 -0.54719,2.86243 -1.80241,4.0054 -2.73738,2.49258 z M 66.349414,507 c 0,-4.675 0.172256,-6.5875 0.382791,-4.25 0.210535,2.3375 0.210535,6.1625 0,8.5 -0.210535,2.3375 -0.382791,0.425 -0.382791,-4.25 z M 500.232,512 c 0,-1.925 0.2058,-2.7125 0.45733,-1.75 0.25152,0.9625 0.25152,2.5375 0,3.5 -0.25153,0.9625 -0.45733,0.175 -0.45733,-1.75 z m -128.07411,-6 c 0,-1.375 0.22698,-1.9375 0.50439,-1.25 0.27741,0.6875 0.27741,1.8125 0,2.5 -0.27741,0.6875 -0.50439,0.125 -0.50439,-1.25 z m 75.03706,-0.5 c -0.0204,-1.65 0.18706,-2.44606 0.46099,-1.76903 0.27392,0.67703 0.29059,2.02703 0.0371,3 C 447.4395,507.70394 447.21538,507.15 447.195,505.5 z M 500.27236,494 c 0,-2.475 0.19502,-3.4875 0.43337,-2.25 0.23836,1.2375 0.23836,3.2625 0,4.5 -0.23835,1.2375 -0.43337,0.225 -0.43337,-2.25 z M 66.385359,484 c 0,-6.875 0.159767,-9.6875 0.355038,-6.25 0.195271,3.4375 0.195271,9.0625 0,12.5 -0.195271,3.4375 -0.355038,0.625 -0.355038,-6.25 z m 380.887001,8 c 0,-2.475 0.19502,-3.4875 0.43337,-2.25 0.23836,1.2375 0.23836,3.2625 0,4.5 -0.23835,1.2375 -0.43337,0.225 -0.43337,-2.25 z m -75.19341,-3.41667 c -0.0434,-1.05416 0.19293,-1.64479 0.52522,-1.3125 0.33229,0.33229 0.36781,1.19479 0.0789,1.91667 -0.31922,0.79773 -0.55618,0.56078 -0.60416,-0.60417 z M 372.46884,424.5 c -1.3e-4,-32.45 0.12607,-45.86971 0.28045,-29.82158 0.15438,16.04813 0.15449,42.59813 2.4e-4,59 -0.15424,16.40187 -0.28055,3.27158 -0.28069,-29.17842 z m 74.83082,50.5 c 0,-3.025 0.18747,-4.2625 0.41659,-2.75 0.22913,1.5125 0.22913,3.9875 0,5.5 -0.22912,1.5125 -0.41659,0.275 -0.41659,-2.75 z m 52.77929,2.58333 c -0.0434,-1.05416 0.19293,-1.64479 0.52522,-1.3125 0.33229,0.33229 0.36781,1.19479 0.0789,1.91667 -0.31922,0.79773 -0.55618,0.56078 -0.60416,-0.60417 z m 0,-4 c -0.0434,-1.05416 0.19293,-1.64479 0.52522,-1.3125 0.33229,0.33229 0.36781,1.19479 0.0789,1.91667 -0.31922,0.79773 -0.55618,0.56078 -0.60416,-0.60417 z m -50.62903,-3.66436 c -0.38046,-0.61559 -1.77269,-0.80379 -3.23365,-0.43712 -2.2614,0.56758 -2.40885,0.45513 -1.24388,-0.94858 1.02022,-1.22929 1.06494,-2.15593 0.19607,-4.06288 -1.21255,-2.66127 -0.38226,-3.23813 1.75654,-1.22039 1.06,1 1.41667,1 1.78333,0 0.25209,-0.6875 0.88121,-1.25 1.39806,-1.25 0.51684,0 0.2615,1.03509 -0.56743,2.3002 -1.34546,2.05343 -1.34185,2.5362 0.0337,4.5 0.84744,1.20989 1.31684,2.1998 1.04311,2.1998 -0.27373,0 -0.79834,-0.48646 -1.1658,-1.08103 z m -44.05899,-6.95835 c -0.0915,-2.57087 0.22968,-3.01443 2,-2.7617 C 409.55739,460.50819 411.12788,465 409.06955,465 408.4813,465 408,464.46399 408,463.80887 c 0,-0.65512 -0.5625,-0.42486 -1.25,0.5117 -1.10221,1.5015 -1.2629,1.3407 -1.35907,-1.35995 z m -5.82508,1.14593 C 398.83518,462.9243 399.93263,460 401.10699,460 c 1.1835,0 1.15186,3.72198 -0.0379,4.45729 -0.512,0.31644 -1.18846,0.1586 -1.50325,-0.35074 z M 447.27236,457 c 0,-2.475 0.19502,-3.4875 0.43337,-2.25 0.23836,1.2375 0.23836,3.2625 0,4.5 -0.23835,1.2375 -0.43337,0.225 -0.43337,-2.25 z m 52.95964,0 c 0,-1.925 0.2058,-2.7125 0.45733,-1.75 0.25152,0.9625 0.25152,2.5375 0,3.5 -0.25153,0.9625 -0.45733,0.175 -0.45733,-1.75 z M 345.39301,446.41821 C 345.72686,445.54823 346,444.42323 346,443.91821 346,443.4132 346.3876,443 346.86133,443 c 0.47373,0 0.64627,1.125 0.38342,2.5 -0.26285,1.375 -0.92359,2.5 -1.46832,2.5 -0.54472,0 -0.71726,-0.7118 -0.38342,-1.58179 z M 349.15789,445 c 0,-1.375 0.22698,-1.9375 0.50439,-1.25 0.27741,0.6875 0.27741,1.8125 0,2.5 -0.27741,0.6875 -0.50439,0.125 -0.50439,-1.25 z m 150.03706,-2.5 c -0.0204,-1.65 0.18706,-2.44606 0.46099,-1.76903 0.27392,0.67703 0.29059,2.02703 0.0371,3 -0.25354,0.97297 -0.47766,0.41903 -0.49804,-1.23097 z m -54.71314,-9.52943 c -0.39515,-0.63937 -0.0637,-1.81722 0.7365,-2.61745 1.27327,-1.27327 1.43627,-1.2014 1.30536,0.57559 -0.0823,1.1168 -0.4137,2.29465 -0.7365,2.61745 -0.32279,0.3228 -0.91021,0.0638 -1.30536,-0.57559 z M 351.283,429.06119 c 1.47177,-3.89915 3.97159,-4.11931 3.53342,-0.31119 -0.22342,1.94178 -0.95895,2.84146 -2.50265,3.06119 -2.04486,0.29108 -2.11152,0.11324 -1.03077,-2.75 z M 500.232,427 c 0,-1.925 0.2058,-2.7125 0.45733,-1.75 0.25152,0.9625 0.25152,2.5375 0,3.5 -0.25153,0.9625 -0.45733,0.175 -0.45733,-1.75 z M 65,419 c 0,-4.58333 0.191281,-8.14205 0.42507,-7.90826 0.721928,0.72192 0.935549,14.88097 0.235081,15.58144 C 65.297068,427.03627 65,423.58333 65,419 z m 382.27236,0 c 0,-2.475 0.19502,-3.4875 0.43337,-2.25 0.23836,1.2375 0.23836,3.2625 0,4.5 -0.23835,1.2375 -0.43337,0.225 -0.43337,-2.25 z m 52.95964,-6 c 0,-1.925 0.2058,-2.7125 0.45733,-1.75 0.25152,0.9625 0.25152,2.5375 0,3.5 -0.25153,0.9625 -0.45733,0.175 -0.45733,-1.75 z m -53.0639,-7.25 c -0.0924,-2.0625 -0.63393,-3.75 -1.20328,-3.75 -0.69106,0 -0.66788,-0.68632 0.0697,-2.06457 0.90126,-1.68403 1.37726,-1.83854 2.58251,-0.83827 0.86632,0.71898 1.07514,1.47503 0.50476,1.82754 -0.53506,0.33069 -1.15572,2.39541 -1.37923,4.58828 L 447.33621,409.5 447.1681,405.75 z M 493,401.5 c 0,-1.375 0.4024,-2.5 0.89421,-2.5 0.49182,0 0.82932,1.12468 0.75,2.49929 C 494.45622,404.75725 493,404.75787 493,401.5 z m 3.39169,-0.53864 c -0.0648,-1.81417 0.3372,-2.88506 1,-2.66413 1.38041,0.46014 1.47034,4.91634 0.10831,5.3669 -0.55,0.18194 -1.04874,-1.0343 -1.10831,-2.70277 z m 6.64011,0.32002 c -0.0243,-2.45732 0.32299,-3.08247 1.4682,-2.64301 1.87747,0.72046 1.88357,1.47225 0.0318,3.9205 -1.38971,1.83737 -1.46989,1.76909 -1.5,-1.27749 z M 507,403.05902 c 0,-0.51754 0.44485,-1.21592 0.98855,-1.55194 0.56686,-0.35034 0.7345,0.0511 0.39301,0.94098 C 507.71677,404.18048 507,404.49745 507,403.05902 z M 346.15789,391 c 0,-1.375 0.22698,-1.9375 0.50439,-1.25 0.27741,0.6875 0.27741,1.8125 0,2.5 -0.27741,0.6875 -0.50439,0.125 -0.50439,-1.25 z M 29.90676,387.75 c -0.05128,-2.3375 -0.239081,-6.26893 -0.41733,-8.73652 -0.178249,-2.46758 0.05643,-5.16646 0.521507,-5.99751 0.517368,-0.92448 0.970481,2.46755 1.167329,8.7387 0.176954,5.63733 -0.01577,10.24871 -0.428266,10.24751 -0.4125,-0.001 -0.791958,-1.91468 -0.84324,-4.25218 z m 86.17219,2.83333 c -0.0434,-1.05416 0.19292,-1.64479 0.52522,-1.3125 0.33229,0.33229 0.36781,1.19479 0.0789,1.91667 -0.31922,0.79773 -0.55618,0.56078 -0.60416,-0.60417 z M 407.92105,387.25 c -0.0472,-1.04544 -0.28201,-1.24674 -0.58333,-0.5 C 406.46975,388.90105 405,388.11517 405,385.5 c 0,-1.46318 0.51691,-2.39632 1.24638,-2.25 2.63326,0.52818 5.13394,5.75 2.75362,5.75 -0.55,0 -1.03553,-0.7875 -1.07895,-1.75 z m -9.35102,-0.13669 c -0.30141,-0.48768 0.12204,-1.44278 0.94098,-2.12245 1.23911,-1.02837 1.48899,-0.87956 1.48899,0.8867 0,2.14536 -1.42114,2.86807 -2.42997,1.23575 z M 19,381.92668 c 0,-2.38674 0.390954,-2.99919 1.75,-2.74145 1.055477,0.20016 1.875579,1.41987 2.066422,3.07332 C 23.07107,384.46479 22.72942,385 21.066422,385 19.426108,385 19,384.36626 19,381.92668 z m -4.75,-0.31992 C 14.25,380.17304 14.64375,379 15.125,379 c 1.111985,0 1.103684,2.09076 -0.01531,3.85676 -0.606707,0.95751 -0.859687,0.58967 -0.859687,-1.25 z M 346.15789,381 c 0,-1.375 0.22698,-1.9375 0.50439,-1.25 0.27741,0.6875 0.27741,1.8125 0,2.5 -0.27741,0.6875 -0.50439,0.125 -0.50439,-1.25 z M 64.299664,377 c 0,-3.025 0.187466,-4.2625 0.41659,-2.75 0.229125,1.5125 0.229125,3.9875 0,5.5 -0.229124,1.5125 -0.41659,0.275 -0.41659,-2.75 z m 435.972696,0 c 0,-2.475 0.19502,-3.4875 0.43337,-2.25 0.23836,1.2375 0.23836,3.2625 0,4.5 -0.23835,1.2375 -0.43337,0.225 -0.43337,-2.25 z M 30.035184,369.06574 c -1.164511,-2.17591 -1.441975,-13.80586 -0.302184,-12.66607 0.403151,0.40315 0.822898,3.20809 0.932772,6.2332 0.109874,3.0251 0.735124,6.14525 1.389444,6.93366 0.804654,0.96955 0.837798,1.43347 0.102412,1.43347 -0.597993,0 -1.553093,-0.87042 -2.122444,-1.93426 z m 316.043766,-4.48241 c -0.0434,-1.05416 0.19293,-1.64479 0.52522,-1.3125 0.33229,0.33229 0.36781,1.19479 0.0789,1.91667 -0.31922,0.79773 -0.55618,0.56078 -0.60416,-0.60417 z M 371.95408,330.5 c -0.24975,-19.25 -0.19419,-39.05 0.12346,-44 0.54101,-8.43064 0.59347,-8.08269 0.82919,5.5 0.13841,7.975 0.1839,20.0125 0.1011,26.75 -0.10484,8.5307 0.19266,12.25 0.97983,12.25 0.66911,0 0.80024,0.51008 0.32136,1.25 -0.44496,0.6875 -1.05469,8.45 -1.35494,17.25 -0.4519,13.24412 -0.62414,9.9715 -1,-19 z M 15,360.16667 C 15,358.425 15.458573,357 16.019052,357 c 0.604961,0 0.750972,1.11746 0.359324,2.75 C 15.436527,363.67599 15,363.80794 15,360.16667 z m 5,1.03329 c 0,-1.1005 0.848264,-2.18852 1.925983,-2.47035 1.599581,-0.4183 1.795238,-0.15022 1.154498,1.58187 C 22.054926,363.08382 20,363.67651 20,361.19996 z M 23.638374,361.5 C 23.954956,360.675 24.390833,360 24.606989,360 24.823145,360 25,360.675 25,361.5 c 0,0.825 -0.435877,1.5 -0.968615,1.5 -0.532739,0 -0.709594,-0.675 -0.393011,-1.5 z M 500.27236,359 c 0,-2.475 0.19502,-3.4875 0.43337,-2.25 0.23836,1.2375 0.23836,3.2625 0,4.5 -0.23835,1.2375 -0.43337,0.225 -0.43337,-2.25 z m -376.19341,-0.41667 c -0.0434,-1.05416 0.19292,-1.64479 0.52522,-1.3125 0.33229,0.33229 0.36781,1.19479 0.0789,1.91667 -0.31922,0.79773 -0.55618,0.56078 -0.60416,-0.60417 z M 64.116001,353.25 c -0.0638,-2.8875 0.243639,-5.25 0.683198,-5.25 0.43956,0 0.63862,1.6875 0.442357,3.75 -0.611973,6.43112 -1.005025,6.95493 -1.125555,1.5 z M 346.232,355 c 0,-1.925 0.2058,-2.7125 0.45733,-1.75 0.25152,0.9625 0.25152,2.5375 0,3.5 -0.25153,0.9625 -0.45733,0.175 -0.45733,-1.75 z m -227.87037,0.5 c -0.84644,-2.20577 0.32521,-4.5 2.29811,-4.5 1.54339,0 1.52458,0.14474 -0.18086,1.39179 -1.61719,1.18252 -1.7027,1.6336 -0.56869,3 0.9217,1.11057 0.97767,1.60821 0.18087,1.60821 -0.63461,0 -1.41285,-0.675 -1.72943,-1.5 z M 29.710251,351 c 0.287656,-1.1 0.93636,-2 1.441564,-2 0.507465,0 0.439522,0.89508 -0.151815,2 -0.588702,1.1 -1.237406,2 -1.441564,2 -0.204158,0 -0.135841,-0.9 0.151815,-2 z M 369.01531,348.25 C 369.00689,347.0125 369.45,346 370,346 c 1.25292,0 1.25292,1.06124 0,3 -0.78387,1.21296 -0.9723,1.06944 -0.98469,-0.75 z m -295.22156,0.007 c 4.011563,-0.1903 10.311563,-0.18902 14,0.003 3.688438,0.19185 0.40625,0.34755 -7.29375,0.34599 -7.7,-0.002 -10.717812,-0.15853 -6.70625,-0.34883 z M 345.625,347.20225 c -0.27117,-0.43876 -0.13516,-1.3768 0.30225,-2.08453 0.57987,-0.93825 0.94292,-0.72218 1.34039,0.79775 0.52597,2.01129 -0.63351,2.91959 -1.64264,1.28678 z M 500.15789,345 c 0,-1.375 0.22698,-1.9375 0.50439,-1.25 0.27741,0.6875 0.27741,1.8125 0,2.5 -0.27741,0.6875 -0.50439,0.125 -0.50439,-1.25 z M 64.402488,329 c 0,-8.525 0.153369,-12.0125 0.34082,-7.75 0.187451,4.2625 0.187451,11.2375 0,15.5 -0.187451,4.2625 -0.34082,0.775 -0.34082,-7.75 z m 59.755402,11 c 0,-1.375 0.22698,-1.9375 0.50439,-1.25 0.27741,0.6875 0.27741,1.8125 0,2.5 -0.27741,0.6875 -0.50439,0.125 -0.50439,-1.25 z m 222.03706,-3.5 c -0.0204,-1.65 0.18706,-2.44606 0.46099,-1.76903 0.27392,0.67703 0.29059,2.02703 0.0371,3 -0.25354,0.97297 -0.47766,0.41903 -0.49804,-1.23097 z m 154.05723,-7 c -0.0111,-2.2 0.18461,-3.21775 0.4349,-2.26166 0.25029,0.95609 0.25937,2.75609 0.0202,4 -0.23919,1.24391 -0.44398,0.46166 -0.45508,-1.73834 z m -376.17323,1.08333 c -0.0434,-1.05416 0.19292,-1.64479 0.52522,-1.3125 0.33229,0.33229 0.36781,1.19479 0.0789,1.91667 -0.31922,0.79773 -0.55618,0.56078 -0.60416,-0.60417 z M 346.19495,325.5 c -0.0204,-1.65 0.18706,-2.44606 0.46099,-1.76903 0.27392,0.67703 0.29059,2.02703 0.0371,3 C 346.4395,327.70394 346.21538,327.15 346.195,325.5 z M 132.15789,324 c 0,-1.375 0.22698,-1.9375 0.50439,-1.25 0.27741,0.6875 0.27741,1.8125 0,2.5 -0.27741,0.6875 -0.50439,0.125 -0.50439,-1.25 z m -8.07894,-2.41667 c -0.0434,-1.05416 0.19292,-1.64479 0.52522,-1.3125 0.33229,0.33229 0.36781,1.19479 0.0789,1.91667 -0.31922,0.79773 -0.55618,0.56078 -0.60416,-0.60417 z m 276.13913,-2.61776 c -0.0464,-1.63106 0.33559,-2.96557 0.8488,-2.96557 1.166,0 1.23919,4.69281 0.0843,5.40655 -0.46684,0.28853 -0.88674,-0.80992 -0.93312,-2.44098 z M 500.15789,317 c 0,-1.375 0.22698,-1.9375 0.50439,-1.25 0.27741,0.6875 0.27741,1.8125 0,2.5 -0.27741,0.6875 -0.50439,0.125 -0.50439,-1.25 z m -154.07894,-0.41667 c -0.0434,-1.05416 0.19293,-1.64479 0.52522,-1.3125 0.33229,0.33229 0.36781,1.19479 0.0789,1.91667 -0.31922,0.79773 -0.55618,0.56078 -0.60416,-0.60417 z m 30.5646,-8.55705 c 1.22798,-2.0788 2.00083,-2.61209 2.54471,-1.75591 1.20798,1.9016 1.00256,2.32166 -1.74829,3.57503 l -2.56003,1.16642 1.76361,-2.98554 z m -312.564603,0.55705 c -0.04342,-1.05416 0.192928,-1.64479 0.52522,-1.3125 0.332291,0.33229 0.367818,1.19479 0.07895,1.91667 -0.319226,0.79773 -0.556183,0.56078 -0.604167,-0.60417 z M 132.15789,305 c 0,-1.375 0.22698,-1.9375 0.50439,-1.25 0.27741,0.6875 0.27741,1.8125 0,2.5 -0.27741,0.6875 -0.50439,0.125 -0.50439,-1.25 z m 214,0 c 0,-1.375 0.22698,-1.9375 0.50439,-1.25 0.27741,0.6875 0.27741,1.8125 0,2.5 -0.27741,0.6875 -0.50439,0.125 -0.50439,-1.25 z M 64.078947,301.58333 c -0.04342,-1.05416 0.192928,-1.64479 0.52522,-1.3125 0.332291,0.33229 0.367818,1.19479 0.07895,1.91667 -0.319226,0.79773 -0.556183,0.56078 -0.604167,-0.60417 z M 500.06339,300.62756 C 500.01093,299.0781 499.74125,298.96985 498.5,300 c -1.99936,1.65932 -1.89192,0.6928 0.32893,-2.9591 l 1.82894,-3.00745 2.67106,2.788 c 3.08807,3.22324 3.6352,5.36105 0.68988,2.69557 -1.91773,-1.73552 -2.01179,-1.71646 -2.93661,0.59502 -0.77023,1.92509 -0.96771,2.02502 -1.01881,0.51552 z M 115.01531,298.25 C 115.00689,297.0125 115.45,296 116,296 c 1.25292,0 1.25292,1.06124 0,3 -0.78387,1.21296 -0.9723,1.06944 -0.98469,-0.75 z m -50.936363,-0.66667 c -0.04342,-1.05416 0.192928,-1.64479 0.52522,-1.3125 0.332291,0.33229 0.367818,1.19479 0.07895,1.91667 -0.319226,0.79773 -0.556183,0.56078 -0.604167,-0.60417 z M 123.63837,297.5 c -0.31658,-0.825 -0.13972,-1.5 0.39301,-1.5 0.53274,0 0.96862,0.675 0.96862,1.5 0,0.825 -0.17686,1.5 -0.39301,1.5 -0.21616,0 -0.65203,-0.675 -0.96862,-1.5 z m 43.4485,0.5 c -0.12826,-0.825 -0.17002,-4.79243 -0.0928,-8.81652 0.0842,-4.38821 -0.33575,-7.89025 -1.04928,-8.75 -0.96088,-1.15779 -0.82956,-1.43391 0.68277,-1.43573 1.68313,-0.002 1.84477,0.73098 1.59873,7.25 -0.32954,8.73162 -0.82099,13.80046 -1.13942,11.75225 z m 5.42321,-0.98369 c -0.34546,-0.55897 0.0734,-1.01631 0.9309,-1.01631 1.75653,0 2.01516,0.60006 0.62812,1.45729 -0.512,0.31644 -1.21356,0.11799 -1.55902,-0.44098 z M 333.5,296 c -2.66334,-0.6777 -2.46033,-0.77665 1.80902,-0.88169 2.97803,-0.0733 4.5737,0.26243 4.19098,0.88169 -0.68813,1.11342 -1.62432,1.11342 -6,0 z m 12.04271,0.0691 c -0.31644,-0.512 -0.11799,-1.21356 0.44098,-1.55902 0.55897,-0.34546 1.01631,0.0734 1.01631,0.9309 0,1.75653 -0.60006,2.01516 -1.45729,0.62812 z m -213.46376,-2.48577 c -0.0434,-1.05416 0.19292,-1.64479 0.52522,-1.3125 0.33229,0.33229 0.36781,1.19479 0.0789,1.91667 -0.31922,0.79773 -0.55618,0.56078 -0.60416,-0.60417 z m 173.59245,-2.08166 c -1.73638,-1.26967 -1.73703,-1.40216 -0.0167,-3.41132 2.37051,-2.76855 2.80644,-2.64301 3.05252,0.87908 0.24962,3.57278 -0.62035,4.29845 -3.03579,2.53224 z M 308,290 c 0,-0.55 -0.45,-1 -1,-1 -0.55,0 -1,0.45 -1,1 0,0.55 0.45,1 1,1 0.55,0 1,-0.45 1,-1 z M 182.01531,289.25 C 182.00689,287.4625 182.45,286 183,286 c 1.2702,0 1.2702,3.03451 0,5 -0.7356,1.13826 -0.97307,0.71622 -0.98469,-1.75 z m 2.66112,2 c -0.68232,-1.15883 1.12771,-5.25 2.32273,-5.25 1.70267,0 2.33689,2.89016 0.99027,4.51273 -1.34835,1.62467 -2.62342,1.90842 -3.313,0.73727 z M 188,288.94098 c 0,-0.58246 -0.45,-0.7809 -1,-0.44098 -0.55,0.33992 -1,0.81648 -1,1.05902 0,0.24254 0.45,0.44098 1,0.44098 0.55,0 1,-0.47656 1,-1.05902 z m 212.07895,-0.35765 c -0.0434,-1.05416 0.19293,-1.64479 0.52522,-1.3125 0.33229,0.33229 0.36781,1.19479 0.0789,1.91667 -0.31922,0.79773 -0.55618,0.56078 -0.60416,-0.60417 z M 295.2876,288.19891 C 293.90866,287.32261 294.69492,283 296.23326,283 c 0.55,0 0.76476,0.89955 0.47725,1.999 -0.28751,1.09946 -0.0847,2.26973 0.45068,2.60062 0.53538,0.33089 1.22062,-0.34367 1.52275,-1.499 0.30213,-1.15534 0.87184,-2.10062 1.26602,-2.10062 1.51906,0 1.93834,1.3402 0.97967,3.13148 -1.03538,1.93463 -3.53365,2.40728 -5.64203,1.06743 z M 64.272364,284 c 0,-2.475 0.195016,-3.4875 0.433369,-2.25 0.238353,1.2375 0.238353,3.2625 0,4.5 -0.238353,1.2375 -0.433369,0.225 -0.433369,-2.25 z m 281.885526,2 c 0,-1.375 0.22698,-1.9375 0.50439,-1.25 0.27741,0.6875 0.27741,1.8125 0,2.5 -0.27741,0.6875 -0.50439,0.125 -0.50439,-1.25 z m -214.07894,-0.41667 c -0.0434,-1.05416 0.19292,-1.64479 0.52522,-1.3125 0.33229,0.33229 0.36781,1.19479 0.0789,1.91667 -0.31922,0.79773 -0.55618,0.56078 -0.60416,-0.60417 z M 320.12677,278 c 0,-3.67476 0.16586,-4.08738 0.90439,-2.25 0.53919,1.34142 0.53919,3.15858 0,4.5 -0.73853,1.83738 -0.90439,1.42476 -0.90439,-2.25 z M 123.5,280 c -0.33992,-0.55 -0.14148,-1 0.44098,-1 0.58246,0 1.05902,0.45 1.05902,1 0,0.55 -0.19844,1 -0.44098,1 -0.24254,0 -0.7191,-0.45 -1.05902,-1 z m 17.25,-0.70573 c 1.2375,-0.23836 3.2625,-0.23836 4.5,0 1.2375,0.23835 0.225,0.43337 -2.25,0.43337 -2.475,0 -3.4875,-0.19502 -2.25,-0.43337 z M 246,279 c 0,-0.55 0.675,-1 1.5,-1 0.825,0 1.5,0.45 1.5,1 0,0.55 -0.675,1 -1.5,1 -0.825,0 -1.5,-0.45 -1.5,-1 z m 99.63617,-1.49426 c 0.31537,-0.82184 0.97625,-1.24528 1.46861,-0.94098 1.41193,0.87262 1.04399,2.43524 -0.5734,2.43524 -0.89208,0 -1.24351,-0.5866 -0.89521,-1.49426 z M 275,272.12857 c 0,-2.88949 1.77456,-3.57832 2.30156,-0.8934 l 0.44454,2.26483 0.74358,-2.25 c 0.40897,-1.2375 1.1266,-2.25 1.59473,-2.25 0.46813,0 0.47916,1.0125 0.0245,2.25 C 279.01203,274.23567 275,274.9256 275,272.12857 z M 346.15789,269 c 0,-1.375 0.22698,-1.9375 0.50439,-1.25 0.27741,0.6875 0.27741,1.8125 0,2.5 -0.27741,0.6875 -0.50439,0.125 -0.50439,-1.25 z m -222.07894,-6.41667 c -0.0434,-1.05416 0.19292,-1.64479 0.52522,-1.3125 0.33229,0.33229 0.36781,1.19479 0.0789,1.91667 -0.31922,0.79773 -0.55618,0.56078 -0.60416,-0.60417 z M 346.15789,257 c 0,-1.375 0.22698,-1.9375 0.50439,-1.25 0.27741,0.6875 0.27741,1.8125 0,2.5 -0.27741,0.6875 -0.50439,0.125 -0.50439,-1.25 z m -222.07894,-1.41667 c -0.0434,-1.05416 0.19292,-1.64479 0.52522,-1.3125 0.33229,0.33229 0.36781,1.19479 0.0789,1.91667 -0.31922,0.79773 -0.55618,0.56078 -0.60416,-0.60417 z M 132.15789,255 c 0,-1.375 0.22698,-1.9375 0.50439,-1.25 0.27741,0.6875 0.27741,1.8125 0,2.5 -0.27741,0.6875 -0.50439,0.125 -0.50439,-1.25 z m 28.08114,-5.37473 c -0.65194,-1.43086 -0.92872,-3.27034 -0.61506,-4.08772 0.50405,-1.31356 0.74254,-1.3139 2.05351,-0.003 1.07482,1.07481 1.24418,2.20038 0.61507,4.08772 l -0.86816,2.60449 -1.18536,-2.60157 z m 117.83992,-0.0419 c -0.0434,-1.05416 0.19293,-1.64479 0.52522,-1.3125 0.33229,0.33229 0.36781,1.19479 0.0789,1.91667 -0.31922,0.79773 -0.55618,0.56078 -0.60416,-0.60417 z m -154,-12 c -0.0434,-1.05416 0.19292,-1.64479 0.52522,-1.3125 0.33229,0.33229 0.36781,1.19479 0.0789,1.91667 -0.31922,0.79773 -0.55618,0.56078 -0.60416,-0.60417 z M 320.232,235 c 0,-1.925 0.2058,-2.7125 0.45733,-1.75 0.25152,0.9625 0.25152,2.5375 0,3.5 -0.25153,0.9625 -0.45733,0.175 -0.45733,-1.75 z m 25.92589,-2 c 0,-1.375 0.22698,-1.9375 0.50439,-1.25 0.27741,0.6875 0.27741,1.8125 0,2.5 -0.27741,0.6875 -0.50439,0.125 -0.50439,-1.25 z m -214.07894,-6.41667 c -0.0434,-1.05416 0.19292,-1.64479 0.52522,-1.3125 0.33229,0.33229 0.36781,1.19479 0.0789,1.91667 -0.31922,0.79773 -0.55618,0.56078 -0.60416,-0.60417 z M 346.15789,224 c 0,-1.375 0.22698,-1.9375 0.50439,-1.25 0.27741,0.6875 0.27741,1.8125 0,2.5 -0.27741,0.6875 -0.50439,0.125 -0.50439,-1.25 z M 63,222.11663 c 0,-1.47411 4.037219,-2.08864 13.815741,-2.10298 5.123658,-0.008 10.186158,-0.47948 11.25,-1.04883 1.264442,-0.67671 2.55906,-0.7008 3.738521,-0.0696 0.992343,0.53109 6.842343,1.07341 12.999998,1.20517 6.85966,0.14677 11.19574,0.63847 11.19574,1.26957 0,0.61226 0.4867,0.54332 1.2,-0.16998 0.69804,-0.69804 4.04444,-1.2 8,-1.2 5.76533,0 6.81765,-0.26627 6.916,-1.75 0.11048,-1.66667 0.13778,-1.66667 0.57333,0 0.52086,1.99316 4.33576,2.34212 7.44033,0.68061 1.45191,-0.77704 2.38731,-0.74645 3.42153,0.11187 0.78284,0.6497 1.99157,0.96852 2.68608,0.7085 0.6945,-0.26003 3.28773,-0.16551 5.76273,0.21004 2.66773,0.40478 -2.97969,0.74597 -13.86989,0.83794 -12.34376,0.10425 -18.83233,0.53894 -19.77961,1.32511 -1.07757,0.89431 -2.03038,0.88718 -4.04391,-0.0302 -3.42797,-1.56189 -46.106857,-1.69356 -47.653399,-0.14702 C 65.373422,223.22658 63,223.33691 63,222.11663 z m 100.01008,-1.00902 c -1.66238,-0.46269 -2.08469,-0.94346 -1.27067,-1.44656 0.67059,-0.41445 2.09596,-0.28434 3.16748,0.28912 1.07152,0.57346 2.76832,0.77682 3.77067,0.45191 1.51817,-0.49212 1.57201,-0.4106 0.32244,0.48827 -1.66592,1.19838 -2.37282,1.22402 -5.98992,0.21726 z m 52.81748,-0.61338 c -0.29118,-0.29119 -10.10944,-0.53358 -21.81835,-0.53864 -11.7089,-0.005 -21.11349,-0.18356 -20.89906,-0.39666 0.53576,-0.53245 17.60127,-0.79491 40.70126,-0.62596 10.62127,0.0777 24.57127,-0.16144 31,-0.53138 6.42872,-0.36994 11.40834,-0.36889 11.06582,0.002 -0.34253,0.37123 -7.99253,0.89285 -17,1.15916 -9.00748,0.2663 -17.75941,0.70388 -19.44874,0.97238 -1.68932,0.26851 -3.30974,0.24995 -3.60093,-0.0412 z m 47.35703,-0.51772 c -7.40158,-1.07776 -7.85729,-2.16379 -0.6387,-1.52217 3.27476,0.29108 6.75134,0.56016 7.72572,0.59797 0.97439,0.0378 1.51033,0.4915 1.19099,1.00821 -0.63655,1.02996 -0.62704,1.03005 -8.27801,-0.084 z m 56.32549,0.0398 c -0.34546,-0.55897 0.0734,-1.01631 0.9309,-1.01631 1.75653,0 2.01516,0.60006 0.62812,1.45729 -0.512,0.31644 -1.21356,0.11799 -1.55902,-0.44098 z M 285.5,219 c -2.79774,-0.71191 -2.70949,-0.77135 1.30902,-0.88169 2.64428,-0.0726 4.07024,0.26803 3.69098,0.88169 -0.6783,1.09751 -0.68686,1.09751 -5,0 z m 6.58333,-0.28297 c 0.22917,-0.15563 1.14446,-0.83618 2.03399,-1.51233 1.30352,-0.99083 1.86085,-0.93593 2.87245,0.28297 1.07694,1.29764 0.7882,1.51233 -2.03399,1.51233 -1.80901,0 -3.10161,-0.12734 -2.87245,-0.28297 z m 33.18042,-0.43461 c 1.52006,-0.22986 3.77006,-0.22371 5,0.0136 1.22994,0.23736 -0.0138,0.42542 -2.76375,0.41792 -2.75,-0.008 -3.75631,-0.20172 -2.23625,-0.43157 z m 19.08263,-0.41645 c 1.32326,-0.76916 2.15905,-0.76054 2.95,0.0304 0.80483,0.80483 0.30495,1.09539 -1.84638,1.07321 -2.58611,-0.0267 -2.72225,-0.16279 -1.10362,-1.10362 z m 13.92445,0.52986 c 0.33229,-0.33229 1.19479,-0.36781 1.91667,-0.0789 0.79773,0.31922 0.56078,0.55618 -0.60417,0.60416 -1.05416,0.0434 -1.64479,-0.19293 -1.3125,-0.52522 z m -89.19188,-2.8125 c -0.0434,-1.05416 0.19293,-1.64479 0.52522,-1.3125 0.33229,0.33229 0.36781,1.19479 0.0789,1.91667 -0.31922,0.79773 -0.55618,0.56078 -0.60416,-0.60417 z M 115.15789,212 c 0,-1.375 0.22698,-1.9375 0.50439,-1.25 0.27741,0.6875 0.27741,1.8125 0,2.5 -0.27741,0.6875 -0.50439,0.125 -0.50439,-1.25 z m -24.961067,-3 c -0.125726,-1.65 0.228556,-3 0.787293,-3 C 91.542852,206 92,207.35 92,209 c 0,1.65 -0.354282,3 -0.787292,3 -0.433011,0 -0.890159,-1.35 -1.015885,-3 z m 50.585917,0.0269 c 0.24434,-1.66479 0.87307,-3.0269 1.39718,-3.0269 1.296,0 0.59457,5.25585 -0.76068,5.6998 -0.67532,0.22122 -0.9141,-0.78149 -0.6365,-2.67288 z m 49.96726,2.37211 c 0.6875,-0.31113 1.25,-1.6532 1.25,-2.98236 0,-1.32917 0.47989,-2.41667 1.06642,-2.41667 0.58653,0 0.92403,1.23365 0.75,2.74145 -0.21515,1.8641 -0.95648,2.81855 -2.31642,2.98237 -1.1,0.1325 -1.4375,-0.0136 -0.75,-0.32479 z M 296.5,209.5 c 0,-1.375 0.3375,-2.5 0.75,-2.5 0.4125,0 0.75,1.125 0.75,2.5 0,1.375 -0.3375,2.5 -0.75,2.5 -0.4125,0 -0.75,-1.125 -0.75,-2.5 z m 50.29381,-0.54851 c 0.29391,-2.00253 0.79893,-2.75875 1.42454,-2.13314 1.19411,1.19411 0.67092,4.38633 -0.79911,4.8757 -0.68008,0.2264 -0.91195,-0.79037 -0.62543,-2.74256 z M 243,208.5 c 0,-1.375 0.45,-2.5 1,-2.5 0.55,0 1,1.125 1,2.5 0,1.375 -0.45,2.5 -1,2.5 -0.55,0 -1,-1.125 -1,-2.5 z m -110.92105,0.0833 c -0.0434,-1.05416 0.19292,-1.64479 0.52522,-1.3125 0.33229,0.33229 0.36781,1.19479 0.0789,1.91667 -0.31922,0.79773 -0.55618,0.56078 -0.60416,-0.60417 z m 137,-2 c -0.0434,-1.05416 0.19293,-1.64479 0.52522,-1.3125 0.33229,0.33229 0.36781,1.19479 0.0789,1.91667 -0.31922,0.79773 -0.55618,0.56078 -0.60416,-0.60417 z m -206.000003,-2 c -0.04342,-1.05416 0.192928,-1.64479 0.52522,-1.3125 0.332291,0.33229 0.367818,1.19479 0.07895,1.91667 -0.319226,0.79773 -0.556183,0.56078 -0.604167,-0.60417 z M 166.15789,202 c 0,-1.375 0.22698,-1.9375 0.50439,-1.25 0.27741,0.6875 0.27741,1.8125 0,2.5 -0.27741,0.6875 -0.50439,0.125 -0.50439,-1.25 z m 179.92106,-4.41667 c -0.0434,-1.05416 0.19293,-1.64479 0.52522,-1.3125 0.33229,0.33229 0.36781,1.19479 0.0789,1.91667 -0.31922,0.79773 -0.55618,0.56078 -0.60416,-0.60417 z M 63.208262,197.32381 c -0.948193,-0.38046 -1.001767,-0.86769 -0.201441,-1.83203 0.645531,-0.77782 0.711939,-1.54756 0.162794,-1.88695 -0.510126,-0.31528 -0.698863,-2.60171 -0.419416,-5.08096 0.320157,-2.84043 0.04515,-5.06553 -0.743501,-6.0158 -0.898241,-1.08231 -0.949658,-1.87187 -0.182125,-2.79669 1.282044,-1.54477 1.723501,-8.50759 0.694975,-10.96138 -0.584979,-1.39561 -0.22725,-1.75 1.766474,-1.75 3.319911,0 4.266685,2.63383 1.482413,4.12393 -2.150115,1.15071 -2.147727,1.1619 0.738933,3.46364 2.792142,2.22638 2.832645,2.37924 1.129183,4.26154 -1.295264,1.43125 -1.448974,2.14878 -0.575906,2.68837 0.838947,0.5185 0.975665,2.39505 0.462583,6.34928 -0.400591,3.08728 -0.794696,6.62574 -0.875788,7.86324 -0.145788,2.22479 -0.926434,2.58202 -3.439178,1.57381 z M 220.5,197.17829 c -2.63173,-0.5178 -4.61675,-2.18037 -3.92997,-3.2916 0.89329,-1.44537 5.44577,-1.0091 6.05568,0.58032 0.84584,2.20421 0.10428,3.15004 -2.12571,2.71128 z M 222,195 c 0,-0.55 -0.45,-1 -1,-1 -0.55,0 -1,0.45 -1,1 0,0.55 0.45,1 1,1 0.55,0 1,-0.45 1,-1 z m -107.25,1.31067 c -1.99488,-0.52131 -2.31862,-3.34205 -0.58278,-5.07789 0.88962,-0.88962 0.77071,-1.31937 -0.5,-1.80699 C 112.75025,189.07392 112,188.35761 112,187.83399 c 0,-0.52361 0.45,-0.67391 1,-0.33399 0.55,0.33992 1,-0.3189 1,-1.46404 0,-1.99102 0.10932,-2.01044 2.5,-0.444 2.7738,1.81746 3.31141,4.8827 1.01119,5.76537 -1.15182,0.442 -1.2706,1.14527 -0.52475,3.10699 0.97793,2.57218 0.87288,2.65891 -2.23644,1.84635 z m 50.94466,-0.0106 c -2.29911,-0.59598 -1.70937,-2.52217 0.89386,-2.91945 1.40598,-0.21457 1.98291,0.26794 1.98291,1.65841 0,1.07856 -0.24107,1.90882 -0.53572,1.84502 -0.29464,-0.0638 -1.34811,-0.32659 -2.34105,-0.58398 z m 0.51784,-6.48752 C 164.32313,187.92313 164.76978,187 167.57332,187 c 1.86469,0 2.48429,0.45909 2.25,1.66713 -0.41831,2.15691 -2.07407,2.68212 -3.61082,1.14537 z m 52.82385,-0.2687 C 218.37166,188.7429 218.1303,187.59819 218.5,187 c 0.3697,-0.59819 0.17789,-1.68319 -0.42624,-2.41113 -1.54165,-1.85757 1.45774,-4.45737 3.16862,-2.74649 0.87683,0.87683 0.80591,1.16133 -0.29238,1.17293 -1.23603,0.0131 -1.22866,0.17185 0.05,1.07613 1.17832,0.83332 1.22056,1.17338 0.197,1.58569 -0.98778,0.39789 -0.89034,0.82662 0.40277,1.77217 0.93818,0.68601 1.38547,1.76556 0.99399,2.399 -0.95676,1.54806 -2.10122,1.4501 -3.55741,-0.3045 z M 269.15789,189 c 0,-1.375 0.22698,-1.9375 0.50439,-1.25 0.27741,0.6875 0.27741,1.8125 0,2.5 -0.27741,0.6875 -0.50439,0.125 -0.50439,-1.25 z m -137,-1 c 0,-1.375 0.22698,-1.9375 0.50439,-1.25 0.27741,0.6875 0.27741,1.8125 0,2.5 -0.27741,0.6875 -0.50439,0.125 -0.50439,-1.25 z m 213.92106,-0.41667 c -0.0434,-1.05416 0.19293,-1.64479 0.52522,-1.3125 0.33229,0.33229 0.36781,1.19479 0.0789,1.91667 -0.31922,0.79773 -0.55618,0.56078 -0.60416,-0.60417 z m -179.40238,-2.34348 c -1.135,-0.25818 -1.60693,-0.97895 -1.25,-1.9091 0.31539,-0.82188 0.57343,-2.38882 0.57343,-3.48209 0,-1.4894 0.56411,-1.90765 2.25,-1.66821 1.8552,0.26348 2.19104,0.84595 1.91399,3.31955 -0.40107,3.58082 -1.06352,4.29122 -3.48742,3.73985 z M 114.25,180.75 c 0.22917,-0.6875 1.24167,-1.25 2.25,-1.25 1.00833,0 2.02083,0.5625 2.25,1.25 0.26389,0.79167 -0.56111,1.25 -2.25,1.25 -1.68889,0 -2.51389,-0.45833 -2.25,-1.25 z m 17.82895,-2.16667 c -0.0434,-1.05416 0.19292,-1.64479 0.52522,-1.3125 0.33229,0.33229 0.36781,1.19479 0.0789,1.91667 -0.31922,0.79773 -0.55618,0.56078 -0.60416,-0.60417 z m 88.25438,-0.11111 c 0,-1.72873 1.83314,-1.47282 2.4375,0.34028 0.21771,0.65312 -0.24166,1.1875 -1.02083,1.1875 -0.77917,0 -1.41667,-0.6875 -1.41667,-1.52778 z M 269.19495,177.5 c -0.0204,-1.65 0.18706,-2.44606 0.46099,-1.76903 0.27392,0.67703 0.29059,2.02703 0.0371,3 -0.25354,0.97297 -0.47766,0.41903 -0.49804,-1.23097 z m 76.884,1.08333 c -0.0434,-1.05416 0.19293,-1.64479 0.52522,-1.3125 0.33229,0.33229 0.36781,1.19479 0.0789,1.91667 -0.31922,0.79773 -0.55618,0.56078 -0.60416,-0.60417 z M 115,176.41667 c 0,-0.87084 0.53437,-1.40521 1.1875,-1.1875 C 118.04172,175.84724 118.34926,178 116.58333,178 115.7125,178 115,177.2875 115,176.41667 z m 51.2125,-1.60417 c -1.87616,-1.87616 -1.43953,-2.98385 1.0375,-2.63205 1.2375,0.17575 2.25,0.95705 2.25,1.73622 0,1.90388 -1.79132,2.39201 -3.2875,0.89583 z m 52.3847,-0.54864 C 218.26874,173.9354 218,173.29449 218,172.83961 c 0,-1.12134 4.31343,-0.39933 4.70929,0.78827 0.34781,1.04341 -3.16185,1.58622 -4.11209,0.63598 z m -103.93053,-1.93053 c -1.54148,-1.54147 -0.58393,-3.46063 1.57311,-3.15288 2.8311,0.40391 3.72554,3.81955 1.00021,3.81955 -1.04866,0 -2.20666,-0.3 -2.57332,-0.66667 z m 51.88172,-2.67429 c -1.76669,-1.29184 -1.75398,-1.37201 0.30275,-1.90986 2.34882,-0.61423 3.91849,0.88119 2.45798,2.3417 -0.55548,0.55548 -1.64316,0.38535 -2.76073,-0.43184 z M 220.63837,169.5 c 0.31659,-0.825 0.12995,-1.5 -0.41475,-1.5 -0.5447,0 -1.22571,-0.9 -1.51337,-2 -0.28766,-1.1 -0.11514,-2 0.38337,-2 0.49851,0 0.90638,0.51289 0.90638,1.13976 0,0.62686 0.74375,1.6836 1.65278,2.34829 0.90902,0.6647 1.33246,1.72681 0.94098,2.36025 -1.04351,1.68843 -2.62861,1.40609 -1.95539,-0.3483 z M 115.75,167.25074 c -2.0334,-0.46174 -2.31005,-1.87413 -0.5,-2.55265 0.88578,-0.33205 0.71913,-0.87766 -0.57196,-1.87254 -1.34608,-1.03725 -1.64425,-2.11199 -1.14159,-4.11475 0.3742,-1.49094 0.96908,-2.70391 1.32196,-2.69549 1.55584,0.0371 3.34026,1.85421 2.75339,2.80379 -0.35443,0.57349 -0.18708,1.32536 0.37189,1.67082 1.17151,0.72403 1.38686,6.20278 0.26631,6.77513 -0.4125,0.21069 -1.5375,0.20425 -2.5,-0.0143 z m 0.4375,-5.93385 c -0.72187,-0.28887 -1.58437,-0.25335 -1.91667,0.0789 -0.33229,0.33229 0.25834,0.56864 1.3125,0.52522 1.16495,-0.048 1.4019,-0.28494 0.60417,-0.60416 z M 269.15789,166 c 0,-1.375 0.22698,-1.9375 0.50439,-1.25 0.27741,0.6875 0.27741,1.8125 0,2.5 -0.27741,0.6875 -0.50439,0.125 -0.50439,-1.25 z m -102.36615,-0.67619 c 1.05565,-0.42357 1.05565,-0.8089 0,-2.10829 -1.10868,-1.36466 -1.03215,-1.49259 0.54005,-0.90275 1.00748,0.37798 2.01998,0.68723 2.25,0.68723 0.23001,0 0.41821,0.675 0.41821,1.5 0,0.91228 -0.88158,1.46907 -2.25,1.42105 -1.2375,-0.0434 -1.66872,-0.31218 -0.95826,-0.59724 z M 63.243769,164.33564 C 61.47271,163.62162 62.733025,162 65.059017,162 66.126558,162 67,162.675 67,163.5 c 0,1.49421 -1.367898,1.79852 -3.756231,0.83564 z M 219,161 c 0,-0.55 0.19844,-1 0.44098,-1 0.24254,0 0.7191,0.45 1.05902,1 0.33992,0.55 0.14148,1 -0.44098,1 C 219.47656,162 219,161.55 219,161 z m -53.44423,-0.90976 c -0.87553,-1.41664 0.47053,-4.01738 1.8127,-3.50234 1.58055,0.60651 1.56007,4.4121 -0.0237,4.4121 -0.67468,0 -1.47971,-0.40939 -1.78896,-0.90976 z M 63,158.94098 c 0,-0.58246 0.519529,-0.73793 1.154508,-0.34549 0.738273,0.45628 0.882071,0.27271 0.39885,-0.50916 -0.415613,-0.67247 -1.385141,-0.98112 -2.154509,-0.68589 C 61.616196,157.70077 61,157.3284 61,156.5551 c 0,-1.0194 0.72172,-1.18912 2.75,-0.6467 C 67.10403,156.80537 68.137252,160 65.073324,160 63.932996,160 63,159.52344 63,158.94098 z m 155.69692,-2.33411 c -0.4092,-1.04122 -0.5084,-2.12872 -0.22046,-2.41666 0.91206,-0.91206 1.71456,0.58256 1.33239,2.48152 -0.35024,1.74033 -0.40373,1.73721 -1.11193,-0.0649 z M 221,156.55902 c 0,-1.75653 0.60006,-2.01516 1.45729,-0.62812 0.31644,0.512 0.11799,1.21356 -0.44098,1.55902 C 221.45734,157.83538 221,157.41648 221,156.55902 z m 48.07895,-1.97569 c -0.0434,-1.05416 0.19293,-1.64479 0.52522,-1.3125 0.33229,0.33229 0.36781,1.19479 0.0789,1.91667 -0.31922,0.79773 -0.55618,0.56078 -0.60416,-0.60417 z M 62.875,154.5 c -0.396388,-1.58555 -0.294732,-6.5 0.134453,-6.5 0.280199,0 1.051472,0.86791 1.713939,1.92869 0.940868,1.50657 0.938799,2.03644 -0.0095,2.42105 -0.682593,0.27686 -0.447957,0.52692 0.536062,0.57131 C 67.691398,153.03119 67.454643,155 65,155 c -1.1,0 -2.05625,-0.225 -2.125,-0.5 z m 51.58388,-0.56653 c -1.13883,-1.84267 0.37083,-2.24662 2.06493,-0.55252 1.39805,1.39806 1.41261,1.61905 0.10664,1.61905 -0.83183,0 -1.80903,-0.47994 -2.17157,-1.06653 z m 52.22862,-1.5793 c -1.37384,-1.37385 -0.66124,-3.49576 1.0625,-3.1638 0.9625,0.18536 1.75,0.96836 1.75,1.73999 0,1.57886 -1.76429,2.47201 -2.8125,1.42381 z m 179.39145,-1.77084 c -0.0434,-1.05416 0.19293,-1.64479 0.52522,-1.3125 0.33229,0.33229 0.36781,1.19479 0.0789,1.91667 -0.31922,0.79773 -0.55618,0.56078 -0.60416,-0.60417 z M 115.2,148.8 c -1.86216,-1.86216 -1.42211,-2.97079 1.03978,-2.61955 1.23189,0.17575 2.38988,1.10705 2.57333,2.06955 0.38232,2.00595 -1.82166,2.34145 -3.61311,0.55 z M 62.606989,145.41821 C 61.711565,143.08477 61.777928,143 64.5,143 c 1.833333,0 2.5,0.53333 2.5,2 0,2.43237 -3.492519,2.76486 -4.393011,0.41821 z m 206.471961,-2.83488 c -0.0434,-1.05416 0.19293,-1.64479 0.52522,-1.3125 0.33229,0.33229 0.36781,1.19479 0.0789,1.91667 -0.31922,0.79773 -0.55618,0.56078 -0.60416,-0.60417 z m 77,-9 c -0.0434,-1.05416 0.19293,-1.64479 0.52522,-1.3125 0.33229,0.33229 0.36781,1.19479 0.0789,1.91667 -0.31922,0.79773 -0.55618,0.56078 -0.60416,-0.60417 z m -223,-4 c -0.0434,-1.05416 0.19292,-1.64479 0.52522,-1.3125 0.33229,0.33229 0.36781,1.19479 0.0789,1.91667 -0.31922,0.79773 -0.55618,0.56078 -0.60416,-0.60417 z m 146,-4 c -0.0434,-1.05416 0.19293,-1.64479 0.52522,-1.3125 0.33229,0.3323 0.36781,1.1948 0.0789,1.91667 -0.31922,0.79773 -0.55618,0.56078 -0.60416,-0.60417 z m 77,-1 c -0.0434,-1.05416 0.19293,-1.64479 0.52522,-1.3125 0.33229,0.3323 0.36781,1.1948 0.0789,1.91667 -0.31922,0.79773 -0.55618,0.56078 -0.60416,-0.60417 z M 62,115.09751 c 0,-0.39339 0.605116,-1.5428 1.344702,-2.55424 1.291206,-1.76583 1.366151,-1.75697 1.883826,0.22262 0.381101,1.45733 -0.01304,2.206 -1.344703,2.55424 C 62.847721,115.59108 62,115.4909 62,115.09751 z M 123,113.5 c 0,-0.825 0.43588,-1.5 0.96862,-1.5 0.53273,0 0.70959,0.675 0.39301,1.5 -0.31659,0.825 -0.75246,1.5 -0.96862,1.5 C 123.17686,115 123,114.325 123,113.5 z m 44.66365,-0.2352 c -0.35289,-0.571 0.0235,-1.59016 0.83635,-2.2648 0.81289,-0.67464 1.23138,-1.62563 0.92997,-2.11331 -0.3014,-0.48768 -0.0714,-0.88669 0.51101,-0.88669 1.4696,0 1.32379,2.25565 -0.28834,4.46036 -0.82434,1.12736 -1.59642,1.43962 -1.98899,0.80444 z M 269,113.10765 c 0,-0.67413 -0.45345,-0.94544 -1.00767,-0.60291 -1.40406,0.86776 -3.97088,-1.92141 -3.08595,-3.35326 0.50072,-0.81018 1.45314,-0.39769 3.07986,1.33387 1.29524,1.37872 2.05321,2.80854 1.68437,3.17737 C 269.30177,114.03156 269,113.78178 269,113.10765 z M 165.19495,110.5 c -0.0204,-1.65 0.18706,-2.44606 0.46099,-1.76903 0.27392,0.67703 0.29059,2.02703 0.0371,3 -0.25354,0.97297 -0.47766,0.41903 -0.49804,-1.23097 z m -42.116,-5.91667 c -0.0434,-1.05416 0.19292,-1.64479 0.52522,-1.3125 0.33229,0.3323 0.36781,1.1948 0.0789,1.91667 -0.31922,0.79773 -0.55618,0.56078 -0.60416,-0.60417 z m 223,-5.999997 c -0.0434,-1.054166 0.19293,-1.644791 0.52522,-1.3125 0.33229,0.332292 0.36781,1.194792 0.0789,1.916667 -0.31922,0.797733 -0.55618,0.560776 -0.60416,-0.604167 z m -232,-8 c -0.0434,-1.054166 0.19292,-1.644791 0.52522,-1.3125 0.33229,0.332292 0.36781,1.194792 0.0789,1.916667 -0.31922,0.797733 -0.55618,0.560776 -0.60416,-0.604167 z m 0,-7 c -0.0434,-1.054166 0.19292,-1.644791 0.52522,-1.3125 0.33229,0.332292 0.36781,1.194792 0.0789,1.916667 -0.31922,0.797733 -0.55618,0.560776 -0.60416,-0.604167 z M 346,80.893011 c 0,-1.396746 -0.47268,-1.925605 -1.40223,-1.568901 -2.14191,0.821927 -2.68809,-0.376643 -0.9594,-2.105337 1.31513,-1.315129 1.67521,-1.334478 2.43707,-0.130952 C 347.02503,78.587927 347.34187,83 346.5,83 346.225,83 346,82.051855 346,80.893011 z m -229.7652,-0.05821 c -0.88694,-0.886936 -0.77187,-1.452818 0.48185,-2.369555 2.24784,-1.643663 4.62311,0.337855 2.70466,2.256306 -1.56537,1.565364 -1.7286,1.571165 -3.18651,0.113249 z M 227.90843,78.25 c 0.40451,-1.5125 1.04059,-2.6375 1.41352,-2.5 C 229.69488,75.8875 230.45,76 231,76 c 1.60345,0 1.15388,2.162703 -0.75,3.607954 -2.62118,1.989759 -3.15421,1.680635 -2.34157,-1.357954 z m 9.10688,1.377555 C 237.00263,78.076928 236.74219,77.96907 235.5,79 234.675,79.684689 234,79.829789 234,79.322445 234,78.242913 236.08803,76 237.09301,76 c 1.21873,0 1.75276,2.632691 0.82978,4.090684 -0.70778,1.11806 -0.89533,1.022347 -0.90748,-0.463129 z m -13,-1.318538 C 224.00689,77.103976 224.45,75.839919 225,75.5 c 1.27319,-0.786873 1.27319,1.529884 0,3.5 -0.78809,1.219476 -0.97224,1.090251 -0.98469,-0.690983 z M 123.07895,75.583333 c -0.0434,-1.054166 0.19292,-1.644791 0.52522,-1.3125 0.33229,0.332292 0.36781,1.194792 0.0789,1.916667 -0.31922,0.797733 -0.55618,0.560776 -0.60416,-0.604167 z m -9,-1 c -0.0434,-1.054166 0.19292,-1.644791 0.52522,-1.3125 0.33229,0.332292 0.36781,1.194792 0.0789,1.916667 -0.31922,0.797733 -0.55618,0.560776 -0.60416,-0.604167 z m 7.53307,-16.42314 C 121.03596,57.24253 119.70427,57.020499 117.38548,57.455506 115.34656,57.83801 114,57.687341 114,57.076698 c 0,-0.557661 0.63781,-0.769177 1.41736,-0.470036 0.92106,0.353444 2.01412,-0.713673 3.1216,-3.047519 2.33913,-4.929353 3.25029,-5.199484 4.00307,-1.186797 0.81776,4.359015 0.27876,7.713417 -0.93001,5.787847 z M 121.36163,54.5 C 121.67821,53.675 121.50135,53 120.96862,53 120.43588,53 120,53.675 120,54.5 c 0,0.825 0.17686,1.5 0.39301,1.5 0.21616,0 0.65203,-0.675 0.96862,-1.5 z m 9.79626,1.5 c 0,-1.375 0.22698,-1.9375 0.50439,-1.25 0.27741,0.6875 0.27741,1.8125 0,2.5 -0.27741,0.6875 -0.50439,0.125 -0.50439,-1.25 z m -0.0789,-10.416667 c -0.0434,-1.054166 0.19292,-1.644791 0.52522,-1.3125 0.33229,0.332292 0.36781,1.194792 0.0789,1.916667 -0.31922,0.797733 -0.55618,0.560776 -0.60416,-0.604167 z M 117.08333,19.63266 c 0.22917,-0.202037 2.21667,-0.668732 4.41667,-1.0371 2.86606,-0.479893 3.57477,-0.380098 2.5,0.352027 -1.34911,0.919001 -7.92025,1.569852 -6.91667,0.685073 z"
     id="path2987"
     style="fill:#000000" />
  <path
     d="M 63.688662,279.98978 372.91915,277.58643 372.11803,645.69888 66.893123,644.89777 z"
     id="path2989"
     style="fill:none;stroke:#000000;stroke-width:1px;stroke-linecap:butt;stroke-linejoin:miter;stroke-opacity:1" />
  <path
     d="M 65.290892,280.79089 z"
     id="path2991"
     style="fill:none;stroke:#000000;stroke-width:1px;stroke-linecap:butt;stroke-linejoin:miter;stroke-opacity:1" />
  <path
     d="m 116.56227,279.58922 1.60223,365.70911"
     id="path2993"
     style="fill:none;stroke:#000000;stroke-width:1px;stroke-linecap:butt;stroke-linejoin:miter;stroke-opacity:1" />
  <path
     d="m 167.03253,278.7881 2.40334,366.91078"
     id="path2995"
     style="fill:none;stroke:#000000;stroke-width:1px;stroke-linecap:butt;stroke-linejoin:miter;stroke-opacity:1" />
  <path
     d="M 219.10502,645.69888 218.70446,278.7881"
     id="path2997"
     style="fill:none;stroke:#000000;stroke-width:1px;stroke-linecap:butt;stroke-linejoin:miter;stroke-opacity:1" />
  <path
     d="m 269.17472,278.7881 1.20167,366.91078"
     id="path2999"
     style="fill:none;stroke:#000000;stroke-width:1px;stroke-linecap:butt;stroke-linejoin:miter;stroke-opacity:1" />
  <path
     d="m 320.4461,645.29833 0.40055,-367.31134"
     id="path3001"
     style="fill:none;stroke:#000000;stroke-width:1px;stroke-linecap:butt;stroke-linejoin:miter;stroke-opacity:1" />
  <path
     d="M 64.089219,296.41264 372.91915,294.81041"
     id="path3003"
     style="fill:none;stroke:#000000;stroke-width:1px;stroke-linecap:butt;stroke-linejoin:miter;stroke-opacity:1" />
  <path
     d="M 64.089219,348.48513 372.91915,346.48234"
     id="path3005"
     style="fill:none;stroke:#000000;stroke-width:1px;stroke-linecap:butt;stroke-linejoin:miter;stroke-opacity:1" />
  <path
     d="m 65.69145,424.99163 306.82714,-1.20167"
     id="path3007"
     style="fill:none;stroke:#000000;stroke-width:1px;stroke-linecap:butt;stroke-linejoin:miter;stroke-opacity:1" />
  <path
     d="m 65.69145,500.29647 306.42658,-0.40056"
     id="path3009"
     style="fill:none;stroke:#000000;stroke-width:1px;stroke-linecap:butt;stroke-linejoin:miter;stroke-opacity:1" />
  <path
     d="m 66.092008,576.80297 306.026022,0"
     id="path3011"
     style="fill:none;stroke:#000000;stroke-width:1px;stroke-linecap:butt;stroke-linejoin:miter;stroke-opacity:1" />
  <path
     d="M 372.11803,584.81413 65.992565,586.0158"
     id="path3013"
     style="fill:none;stroke:#000000;stroke-width:1.00213194px;stroke-linecap:butt;stroke-linejoin:miter;stroke-opacity:1" />
  <path
     d="m 64.089219,279.98978 -1.201672,-168.63476 207.088293,-0.40056 0.40055,167.03253"
     id="path3015"
     style="fill:none;stroke:#000000;stroke-width:1;stroke-linecap:butt;stroke-linejoin:miter;stroke-miterlimit:4;stroke-opacity:1;stroke-dasharray:3, 3;stroke-dashoffset:0" />
  <path
     d="M 115.76115,277.98699 115.36059,19.627322"
     id="path3017"
     style="fill:none;stroke:#000000;stroke-width:1;stroke-linecap:butt;stroke-linejoin:miter;stroke-miterlimit:4;stroke-opacity:1;stroke-dasharray:3, 3;stroke-dashoffset:0" />
  <path
     d="m 131.78346,19.226764 1.20167,328.457246"
     id="path3019"
     style="fill:none;stroke:#000000;stroke-width:1;stroke-linecap:butt;stroke-linejoin:miter;stroke-miterlimit:4;stroke-opacity:1;stroke-dasharray:3, 3;stroke-dashoffset:0" />
  <path
     d="M 125.37454,370.11524 123.37175,66.092006"
     id="path3021"
     style="fill:none;stroke:#000000;stroke-width:1;stroke-linecap:butt;stroke-linejoin:miter;stroke-miterlimit:4;stroke-opacity:1;stroke-dasharray:3, 3;stroke-dashoffset:0" />
  <path
     d="m 115.76115,79.710965 231.52231,-0.801115 0.80111,345.68123"
     id="path3023"
     style="fill:none;stroke:#000000;stroke-width:1;stroke-linecap:butt;stroke-linejoin:miter;stroke-miterlimit:4;stroke-opacity:1;stroke-dasharray:3, 3;stroke-dashoffset:0" />
  <path
     d="m 130.18123,347.68401 37.65241,-126.5762"
     id="path3025"
     style="fill:none;stroke:#000000;stroke-width:1;stroke-linecap:butt;stroke-linejoin:miter;stroke-miterlimit:4;stroke-opacity:1;stroke-dasharray:3, 3;stroke-dashoffset:0" />
  <path
     d="m 160.22305,247.54461 219.90613,61.28531"
     id="path3027"
     style="fill:none;stroke:#000000;stroke-width:1;stroke-linecap:butt;stroke-linejoin:miter;stroke-miterlimit:4;stroke-opacity:1;stroke-dasharray:3, 3;stroke-dashoffset:0" />
  <path
     d="m 347.28346,423.78996 58.48141,-202.2816"
     id="path3029"
     style="fill:none;stroke:#000000;stroke-width:1;stroke-linecap:butt;stroke-linejoin:miter;stroke-miterlimit:4;stroke-opacity:1;stroke-dasharray:3, 3;stroke-dashoffset:0" />
  <path
     d="M 159.82249,668.13011 236.329,399.7565"
     id="path3031"
     style="fill:none;stroke:#000000;stroke-width:1;stroke-linecap:butt;stroke-linejoin:miter;stroke-miterlimit:4;stroke-opacity:1;stroke-dasharray:3, 3;stroke-dashoffset:0" />
  <path
     d="m 126.97677,368.91357 218.70446,60.88476"
     id="path3033"
     style="fill:none;stroke:#000000;stroke-width:1;stroke-linecap:butt;stroke-linejoin:miter;stroke-miterlimit:4;stroke-opacity:1;stroke-dasharray:3, 3;stroke-dashoffset:0" />
  <path
     d="M 340.87454,447.42286 133.78625,350.08736"
     id="path3035"
     style="fill:none;stroke:#000000;stroke-width:1;stroke-linecap:butt;stroke-linejoin:miter;stroke-miterlimit:4;stroke-opacity:1;stroke-dasharray:3, 3;stroke-dashoffset:0" />
  <path
     d="M 237.13011,398.55483 271.17751,278.7881"
     id="path3037"
     style="fill:none;stroke:#000000;stroke-width:1;stroke-linecap:butt;stroke-linejoin:miter;stroke-miterlimit:4;stroke-opacity:1;stroke-dasharray:3, 3;stroke-dashoffset:0" />
  <path
     d="m 271.17751,280.39033 -14.01952,26.83736 -8.01115,26.03625 -7.21004,29.64126 -5.6078,37.25186"
     id="path3039"
     style="fill:none;stroke:#000000;stroke-width:1;stroke-linecap:butt;stroke-linejoin:miter;stroke-miterlimit:4;stroke-opacity:1;stroke-dasharray:3, 3;stroke-dashoffset:0" />
  <path
     d="m 197.47491,387.33922 8.41171,-22.03067 10.81505,-22.83179 11.21562,-18.8262 13.2184,-18.82621 13.61896,-13.61896 15.62174,-11.21561"
     id="path3041"
     style="fill:none;stroke:#000000;stroke-width:1;stroke-linecap:butt;stroke-linejoin:miter;stroke-miterlimit:4;stroke-opacity:1;stroke-dasharray:3, 3;stroke-dashoffset:0" />
  <path
     d="m 132.98513,347.68401 16.82342,-26.03624 16.42286,-18.02509 18.82621,-15.62175 23.23234,-10.81506 22.43123,-3.60502 21.63011,0.40056 18.42565,4.80669"
     id="path3043"
     style="fill:none;stroke:#000000;stroke-width:1px;stroke-linecap:butt;stroke-linejoin:miter;stroke-opacity:1" />
  <path
     d="m 237.13011,398.95539 209.8922,-0.40056 0.80111,195.87268"
     id="path3045"
     style="fill:none;stroke:#000000;stroke-width:1;stroke-linecap:butt;stroke-linejoin:miter;stroke-miterlimit:4;stroke-opacity:1;stroke-dasharray:3, 3;stroke-dashoffset:0" />
  <path
     d="m 235.52788,466.24907 211.89498,-0.80112"
     id="path3047"
     style="fill:none;stroke:#000000;stroke-width:1;stroke-linecap:butt;stroke-linejoin:miter;stroke-miterlimit:4;stroke-opacity:1;stroke-dasharray:3, 3;stroke-dashoffset:0" />
  <path
     d="m 372.91915,423.3894 20.82899,0.80112"
     id="path3049"
     style="fill:none;stroke:#000000;stroke-width:1;stroke-linecap:butt;stroke-linejoin:miter;stroke-miterlimit:4;stroke-opacity:1;stroke-dasharray:3, 3;stroke-dashoffset:0" />
  <path
     d="m 372.91915,499.89591 20.02788,0"
     id="path3051"
     style="fill:none;stroke:#000000;stroke-width:1;stroke-linecap:butt;stroke-linejoin:miter;stroke-miterlimit:4;stroke-opacity:1;stroke-dasharray:3, 3;stroke-dashoffset:0" />
  <path
     d="m 332.06227,525.93216 169.03531,0"
     id="path3053"
     style="fill:none;stroke:#000000;stroke-width:1;stroke-linecap:butt;stroke-linejoin:miter;stroke-miterlimit:4;stroke-opacity:1;stroke-dasharray:3, 3;stroke-dashoffset:0" />
  <path
     d="m 253.55297,461.44238 0.40056,320.84665"
     id="path3055"
     style="fill:none;stroke:#000000;stroke-width:1;stroke-linecap:butt;stroke-linejoin:miter;stroke-miterlimit:4;stroke-opacity:1;stroke-dasharray:3, 3;stroke-dashoffset:0" />
  <path
     d="m 248.34573,555.97398 0.80111,176.64591"
     id="path3057"
     style="fill:none;stroke:#000000;stroke-width:1;stroke-linecap:butt;stroke-linejoin:miter;stroke-miterlimit:4;stroke-opacity:1;stroke-dasharray:3, 3;stroke-dashoffset:0" />
  <path
     d="m 240.33457,558.37732 0.80112,118.56506"
     id="path3059"
     style="fill:none;stroke:#000000;stroke-width:1;stroke-linecap:butt;stroke-linejoin:miter;stroke-miterlimit:4;stroke-opacity:1;stroke-dasharray:3, 3;stroke-dashoffset:0" />
  <path
     d="m 232.72398,555.97398 0.40056,120.16728"
     id="path3061"
     style="fill:none;stroke:#000000;stroke-width:1;stroke-linecap:butt;stroke-linejoin:miter;stroke-miterlimit:4;stroke-opacity:1;stroke-dasharray:3, 3;stroke-dashoffset:0" />
  <path
     d="m 223.51115,554.7723 1.20168,175.8448"
     id="path3063"
     style="fill:none;stroke:#000000;stroke-width:1;stroke-linecap:butt;stroke-linejoin:miter;stroke-miterlimit:4;stroke-opacity:1;stroke-dasharray:3, 3;stroke-dashoffset:0" />
  <path
     d="m 219.10502,645.29833 1.20167,135.38847"
     id="path3065"
     style="fill:none;stroke:#000000;stroke-width:1;stroke-linecap:butt;stroke-linejoin:miter;stroke-miterlimit:4;stroke-opacity:1;stroke-dasharray:3, 3;stroke-dashoffset:0" />
  <path
     d="m 338.87175,593.22584 -1.20168,250.34851 -151.81133,-1.20167 0,-255.55577"
     id="path3067"
     style="fill:none;stroke:#000000;stroke-width:1;stroke-linecap:butt;stroke-linejoin:miter;stroke-miterlimit:4;stroke-opacity:1;stroke-dasharray:3, 3;stroke-dashoffset:0" />
  <path
     d="M 191.46654,644.49721 191.8671,811.9303 67.694238,811.52974 66.893123,644.49721"
     id="path3069"
     style="fill:none;stroke:#000000;stroke-width:1;stroke-linecap:butt;stroke-linejoin:miter;stroke-miterlimit:4;stroke-opacity:1;stroke-dasharray:3, 3;stroke-dashoffset:0" />
  <path
     d="M 84.918216,727.01208 82.915428,500.69703"
     id="path3071"
     style="fill:none;stroke:#000000;stroke-width:1;stroke-linecap:butt;stroke-linejoin:miter;stroke-miterlimit:4;stroke-opacity:1;stroke-dasharray:3, 3;stroke-dashoffset:0" />
  <path
     d="m 111.35502,537.54833 0.80111,139.39405"
     id="path3073"
     style="fill:none;stroke:#000000;stroke-width:1;stroke-linecap:butt;stroke-linejoin:miter;stroke-miterlimit:4;stroke-opacity:1;stroke-dasharray:3, 3;stroke-dashoffset:0" />
  <path
     d="m 117.76394,644.09665 1.60223,114.15893 100.53996,2.8039"
     id="path3075"
     style="fill:none;stroke:#000000;stroke-width:1;stroke-linecap:butt;stroke-linejoin:miter;stroke-miterlimit:4;stroke-opacity:1;stroke-dasharray:3, 3;stroke-dashoffset:0" />
  <path
     d="m 68.094796,779.48513 117.763944,1.60223"
     id="path3077"
     style="fill:none;stroke:#000000;stroke-width:1;stroke-linecap:butt;stroke-linejoin:miter;stroke-miterlimit:4;stroke-opacity:1;stroke-dasharray:3, 3;stroke-dashoffset:0" />
  <path
     d="m 124.57342,677.34294 -1.20167,-152.2119"
     id="path3079"
     style="fill:none;stroke:#000000;stroke-width:1;stroke-linecap:butt;stroke-linejoin:miter;stroke-miterlimit:4;stroke-opacity:1;stroke-dasharray:3, 3;stroke-dashoffset:0" />
  <path
     d="m 236.329,568.79182 211.89498,0"
     id="path3081"
     style="fill:none;stroke:#000000;stroke-width:1;stroke-linecap:butt;stroke-linejoin:miter;stroke-miterlimit:4;stroke-opacity:1;stroke-dasharray:3, 3;stroke-dashoffset:0" />
  <path
     d="m 372.91915,577.20353 19.22676,0.40056"
     id="path3083"
     style="fill:none;stroke:#000000;stroke-width:1;stroke-linecap:butt;stroke-linejoin:miter;stroke-miterlimit:4;stroke-opacity:1;stroke-dasharray:3, 3;stroke-dashoffset:0" />
  <path
     d="m 372.51859,584.81413 20.42844,1.20167 0,0 0,0"
     id="path3085"
     style="fill:none;stroke:#000000;stroke-width:1;stroke-linecap:butt;stroke-linejoin:miter;stroke-miterlimit:4;stroke-opacity:1;stroke-dasharray:3, 3;stroke-dashoffset:0" />
  <path
     d="m 338.87175,593.62639 161.82528,0.40056"
     id="path3087"
     style="fill:none;stroke:#000000;stroke-width:1;stroke-linecap:butt;stroke-linejoin:miter;stroke-miterlimit:4;stroke-opacity:1;stroke-dasharray:3, 3;stroke-dashoffset:0" />
  <path
     d="m 372.51859,645.29833 126.97676,-0.40056 1.60223,-350.08736 -127.77788,0.40056"
     id="path3089"
     style="fill:none;stroke:#000000;stroke-width:1;stroke-linecap:butt;stroke-linejoin:miter;stroke-miterlimit:4;stroke-opacity:1;stroke-dasharray:3, 3;stroke-dashoffset:0" />
  <path
     d="m 372.51859,277.58643 21.22955,0.40056"
     id="path3091"
     style="fill:none;stroke:#000000;stroke-width:1;stroke-linecap:butt;stroke-linejoin:miter;stroke-miterlimit:4;stroke-opacity:1;stroke-dasharray:3, 3;stroke-dashoffset:0" />
  <path
     d="m 372.91915,347.28346 20.02788,-0.40056"
     id="path3093"
     style="fill:none;stroke:#000000;stroke-width:1;stroke-linecap:butt;stroke-linejoin:miter;stroke-miterlimit:4;stroke-opacity:1;stroke-dasharray:3, 3;stroke-dashoffset:0" />
  <path
     d="m 166.23141,278.38755 0.40056,-79.31041"
     id="path3095"
     style="fill:none;stroke:#000000;stroke-width:1;stroke-linecap:butt;stroke-linejoin:miter;stroke-miterlimit:4;stroke-opacity:1;stroke-dasharray:3, 3;stroke-dashoffset:0" />
  <path
     d="m 218.3039,278.7881 -1.20167,-79.31041"
     id="path3097"
     style="fill:none;stroke:#000000;stroke-width:1px;stroke-linecap:butt;stroke-linejoin:miter;stroke-opacity:1" />
  <path
     d="M 269.57528,277.18587 288.00093,218.3039"
     id="path3099"
     style="fill:none;stroke:#000000;stroke-width:1;stroke-linecap:butt;stroke-linejoin:miter;stroke-miterlimit:4;stroke-opacity:1;stroke-dasharray:3, 3;stroke-dashoffset:0" />
  <path
     d="m 320.84665,276.78532 0.40056,-57.27974"
     id="path3101"
     style="fill:none;stroke:#000000;stroke-width:1px;stroke-linecap:butt;stroke-linejoin:miter;stroke-opacity:1" />
  <path
     d="m 372.51859,276.78532 0,-58.08086"
     id="path3103"
     style="fill:none;stroke:#000000;stroke-width:1px;stroke-linecap:butt;stroke-linejoin:miter;stroke-opacity:1" />
  <path
     d="m 30.842937,348.08457 35.249071,0.40056"
     id="path3105"
     style="fill:none;stroke:#000000;stroke-width:1;stroke-linecap:butt;stroke-linejoin:miter;stroke-miterlimit:4;stroke-opacity:1;stroke-dasharray:3, 3;stroke-dashoffset:0" />
  <path
     d="M 125.37454,370.91636 31.243494,370.11524"
     id="path3107"
     style="fill:none;stroke:#000000;stroke-width:1;stroke-linecap:butt;stroke-linejoin:miter;stroke-miterlimit:4;stroke-opacity:1;stroke-dasharray:3, 3;stroke-dashoffset:0" />
  <path
     d="m 120.56784,390.94424 -90.926576,0.80111"
     id="path3109"
     style="fill:none;stroke:#000000;stroke-width:1;stroke-linecap:butt;stroke-linejoin:miter;stroke-miterlimit:4;stroke-opacity:1;stroke-dasharray:3, 3;stroke-dashoffset:0" />
</svg>
