<?xml version="1.0" encoding="UTF-8" standalone="no"?>
<!-- Created with Inkscape (http://www.inkscape.org/) -->

<svg
   xmlns:dc="http://purl.org/dc/elements/1.1/"
   xmlns:cc="http://creativecommons.org/ns#"
   xmlns:rdf="http://www.w3.org/1999/02/22-rdf-syntax-ns#"
   xmlns:svg="http://www.w3.org/2000/svg"
   xmlns="http://www.w3.org/2000/svg"
   version="1.1"
   width="535"
   height="878"
   id="svg2">
  <metadata
     id="metadata8">
    <rdf:RDF>
      <cc:Work
         rdf:about="">
        <dc:format>image/svg+xml</dc:format>
        <dc:type
           rdf:resource="http://purl.org/dc/dcmitype/StillImage" />
        <dc:title></dc:title>
      </cc:Work>
    </rdf:RDF>
  </metadata>
  <defs
     id="defs6" />
  <path
     d="m 205.07895,768.58333 c -0.0434,-1.05416 0.19292,-1.64479 0.52522,-1.3125 0.33229,0.33229 0.36781,1.1948 0.0789,1.91667 -0.31922,0.79773 -0.55618,0.56078 -0.60416,-0.60417 z M 170,763.36024 c 0,-0.35186 0.7875,-1.24331 1.75,-1.98099 1.52995,-1.17259 1.56138,-1.46745 0.25,-2.34493 -1.22455,-0.81939 -1.08683,-1.00651 0.75,-1.01901 2.51957,-0.0171 2.84947,1.61119 0.85795,4.23469 C 172.32093,763.94545 170,764.65965 170,763.36024 z m 8.05404,0.13976 c -0.005,-0.55 0.82634,-2.08737 1.848,-3.41638 l 1.85757,-2.41639 0.71953,2.26705 c 0.42387,1.33549 0.24346,2.73932 -0.43905,3.41638 -0.8757,0.86872 -0.99591,0.72206 -0.49235,-0.60066 0.36643,-0.9625 0.3302,-1.75 -0.0805,-1.75 -0.41071,0 -1.34454,0.7875 -2.07518,1.75 -0.73065,0.9625 -1.33275,1.3 -1.33801,0.75 z m -22.41934,-2.00958 c -0.41612,-1.08438 -0.19092,-2.14665 0.55247,-2.6061 1.7452,-1.07859 1.99434,-0.54921 1.00288,2.13096 -0.77425,2.09301 -0.9177,2.13683 -1.55535,0.47514 z m 41.97454,-0.0663 c -0.84547,-2.20326 0.0831,-3.13179 1.60743,-1.60742 0.83857,0.83857 0.8724,1.49426 0.11611,2.25055 -0.75629,0.75629 -1.25843,0.56892 -1.72354,-0.64313 z m 21.46971,-12.84076 c -0.0434,-1.05416 0.19292,-1.64479 0.52522,-1.3125 0.33229,0.33229 0.36781,1.1948 0.0789,1.91667 -0.31922,0.79773 -0.55618,0.56078 -0.60416,-0.60417 z M 178,739.5 c 0,-0.825 -0.45,-1.5 -1,-1.5 -0.55,0 -1,0.525 -1,1.16667 0,0.64166 -0.26146,0.9052 -0.58102,0.58564 -0.31956,-0.31956 -0.062,-1.55085 0.5724,-2.7362 l 1.15342,-2.15518 1.90684,2.19861 C 180.90422,739.19558 180.85355,741 178.94098,741 178.42344,741 178,740.325 178,739.5 z m 27.07895,-1.91667 c -0.0434,-1.05416 0.19292,-1.64479 0.52522,-1.3125 0.33229,0.33229 0.36781,1.1948 0.0789,1.91667 -0.31922,0.79773 -0.55618,0.56078 -0.60416,-0.60417 z M 171.71025,736 c 0.28766,-1.1 0.69553,-2 0.90638,-2 0.21085,0 0.38337,0.9 0.38337,2 0,1.1 -0.40787,2 -0.90638,2 -0.49851,0 -0.67103,-0.9 -0.38337,-2 z m 3.80095,-8.98188 c -0.26994,-0.43676 0.83085,-0.98809 2.44619,-1.22517 1.61534,-0.23709 2.74276,-0.1168 2.50538,0.26729 -0.6867,1.1111 -4.41154,1.83167 -4.95157,0.95788 z M 173.15789,722 c 0,-1.375 0.22698,-1.9375 0.50439,-1.25 0.27741,0.6875 0.27741,1.8125 0,2.5 -0.27741,0.6875 -0.50439,0.125 -0.50439,-1.25 z m 46,-7 c 0,-1.375 0.22698,-1.9375 0.50439,-1.25 0.27741,0.6875 0.27741,1.8125 0,2.5 -0.27741,0.6875 -0.50439,0.125 -0.50439,-1.25 z m -0.0789,-10.41667 c -0.0434,-1.05416 0.19292,-1.64479 0.52522,-1.3125 0.33229,0.33229 0.36781,1.1948 0.0789,1.91667 -0.31922,0.79773 -0.55618,0.56078 -0.60416,-0.60417 z m -38,-8 c -0.0434,-1.05416 0.19292,-1.64479 0.52522,-1.3125 0.33229,0.33229 0.36781,1.1948 0.0789,1.91667 -0.31922,0.79773 -0.55618,0.56078 -0.60416,-0.60417 z m -8.36404,-3.88389 C 172.17028,691.28017 170.62677,691 163.35238,691 c -4.79071,0 -10.09233,-0.42036 -11.78138,-0.93412 -1.68905,-0.51377 -10.03395,-2.35516 -18.54421,-4.09197 C 111.81725,681.64536 91.5263,674.15867 92.470304,671.0099 92.719272,670.17945 93.39512,663.875 93.972189,657 c 0.57707,-6.875 1.337213,-14.71167 1.689208,-17.41482 0.517795,-3.97641 0.372551,-4.81417 -0.760703,-4.38772 -2.066829,0.77776 -28.40518,10.26882 -35.650694,12.84677 -4.150497,1.47675 -6.255144,2.7666 -6.265313,3.83976 -0.01248,1.31715 -0.17802,1.35908 -0.895105,0.22672 -0.711796,-1.12401 -3.802522,-0.19539 -16.186105,4.86321 -20.347588,8.31182 -19.741178,7.99946 -20.215698,10.41309 -0.228478,1.16214 -0.415415,-0.36201 -0.415415,-3.38701 0,-3.025 0.188547,-4.53687 0.418992,-3.35971 0.415651,2.12322 0.492308,2.11388 9.613818,-1.17183 C 30.362328,657.6468 37.425,654.83039 41,653.20978 c 3.575,-1.62061 10.775,-4.4044 16,-6.1862 8.59065,-2.92952 15.357738,-5.44906 33.460443,-12.45804 4.661493,-1.80483 6.113384,-2.87963 6.662239,-4.93187 0.399523,-1.49388 0.262898,-2.89537 -0.317206,-3.25389 -0.68114,-0.42097 -0.685303,-0.83701 -0.01256,-1.25478 0.553545,-0.34375 1.273118,-2.875 1.599052,-5.625 0.325933,-2.75 1.02154,-6.78883 1.545791,-8.97517 0.935711,-3.90229 0.848451,-4.0948 -4.759303,-10.5 C 92.03659,596.43617 88.276175,591.89503 86.82198,589.9334 82.765759,584.46178 72.134638,566.47177 69.843489,561.20236 66.173798,552.76244 59.315079,531.7107 57.071245,522 c -1.207332,-5.225 -2.561633,-10.1923 -3.009559,-11.03846 -0.447925,-0.84615 -1.134924,-3.43556 -1.526664,-5.75424 -0.425608,-2.51916 -1.129197,-3.95811 -1.748271,-3.5755 -1.3519,0.83552 -0.430087,14.12486 1.084852,15.6398 C 52.492221,517.89222 53,519.67445 53,521.23212 c 0,1.55766 0.71744,4.50516 1.594312,6.55 0.876871,2.04483 3.156959,7.99288 5.066862,13.21788 1.909903,5.225 6.424885,16.43231 10.033293,24.90512 5.015151,11.77596 6.680682,16.89933 7.069865,21.74773 1.255855,15.6453 -9.711705,25.60032 -19.111551,17.34715 -4.198886,-3.68667 -4.616509,-3.70845 -4.793579,-0.25 -0.07793,1.52203 -0.456474,0.51732 -0.847744,-2.25 -0.757392,-5.35679 -4.643695,-18.7953 -13.302815,-46 -2.976058,-9.35 -5.976884,-19.475 -6.668502,-22.5 -0.691618,-3.025 -3.672661,-13.825 -6.62454,-24 -2.951879,-10.175 -5.809163,-20.525 -6.34952,-23 -0.540357,-2.475 -1.890215,-7.2 -2.999686,-10.5 -2.779409,-8.26706 -3.053467,-38.97539 -0.3863,-43.28518 7.257211,-11.72672 14.934198,-13.12545 25.786696,-4.69831 9.880847,7.67264 9.501356,8.48222 9.734346,-20.76651 0.152817,-19.1841 0.332992,-22.3672 0.75,-13.25 0.526688,11.51518 0.582037,11.75759 1.369975,6 1.76683,-12.91053 7.366223,-31.1767 11.945706,-38.96893 14.625369,-24.88583 26.92691,-36.30497 48.586332,-45.10122 6.77546,-2.75163 7.79727,-3.52975 9.84872,-7.5 3.25952,-6.30828 11.0668,-13.2255 18.10602,-16.04187 5.8663,-2.34709 6.52135,-2.38751 38.25606,-2.36073 24.53732,0.0207 32.38539,0.32076 32.69513,1.25 0.22417,0.67251 0.87544,1.22275 1.44726,1.22275 2.70786,0 13.94363,9.37364 15.9501,13.30664 1.17661,2.30635 2.07275,4.30586 1.99142,4.44336 -1.02798,1.73805 1.14424,3.51238 7.60214,6.20967 8.78121,3.66768 17.37983,8.64709 23.04463,13.34503 2.1191,1.75742 5.78376,4.7584 8.14369,6.66885 2.35993,1.91045 5.97273,5.96045 8.02844,9 4.67089,6.9063 13.03324,20.68696 13.03324,21.47801 0,0.32533 1.53273,4.51931 3.40606,9.31997 1.87333,4.80066 4.43167,12.86602 5.68521,17.92302 1.25353,5.057 2.61668,8.98594 3.02923,8.73098 0.90389,-0.55864 1.60838,19.14126 0.82983,23.20523 -0.81398,4.24894 -0.004,6.36924 2.43417,6.36924 2.15189,0 8.21378,-3.57044 12.27003,-7.22701 1.49696,-1.34946 4.02734,-2.06002 8.29079,-2.32812 3.37494,-0.21223 5.89947,-0.003 5.61007,0.4655 -0.2894,0.46826 0.85791,2.59249 2.54957,4.72051 6.04961,7.61008 6.29543,8.86365 6.34745,32.36912 0.0262,11.825 -0.17741,18.575 -0.45241,15 l -0.5,-6.5 -2.37709,11 c -3.67836,17.02157 -6.98718,30.05177 -9.08535,35.77817 -1.05231,2.87201 -2.65205,7.92183 -3.55497,11.22183 -0.90292,3.3 -2.50588,7.9076 -3.56213,10.2391 -1.05625,2.33151 -1.92046,4.64148 -1.92046,5.13327 0,0.49179 -2.05251,8.0342 -4.56112,16.7609 -2.50862,8.7267 -5.6341,19.91673 -6.94551,24.86673 -2.6251,9.90858 -5.71535,18.98454 -6.49337,19.07083 -0.275,0.0305 -1.625,0.76586 -3,1.63415 -8.71867,5.50565 -14.9283,4.47201 -18.25028,-3.03788 -2.02857,-4.58592 -2.34329,-8.6376 -1.26696,-16.31084 0.68833,-4.90713 2.39364,-10.85415 3.54316,-12.35626 C 286.07038,570.82845 299,537.62561 299,535.04705 c 0,-0.90588 0.41513,-2.07455 0.92251,-2.59705 C 301.09633,531.2412 304,520.01744 304,516.68899 c 0,-1.38728 0.4582,-2.67506 1.01823,-2.86173 1.5047,-0.50157 2.48094,-10.40072 1.1093,-11.24844 -1.47024,-0.90866 -2.35907,1.5288 -5.62338,15.42118 -1.48619,6.325 -3.40308,13.525 -4.25977,16 -0.85668,2.475 -1.64315,5.175 -1.74769,6 -0.21071,1.6628 -1.49033,4.86916 -5.11352,12.81304 -1.33281,2.92218 -2.1627,5.73468 -1.84421,6.25 0.31849,0.51533 0.15013,0.93696 -0.37413,0.93696 -0.52426,0 -3.52173,4.49702 -6.66105,9.99337 -3.13931,5.49636 -7.79943,12.80886 -10.35581,16.25 -2.55638,3.44115 -5.51586,7.60663 -6.57661,9.25663 -1.06075,1.65 -4.40481,5.6012 -7.43125,8.78043 l -5.50261,5.78044 1.11497,4.71956 c 1.28945,5.45814 2.46421,11.84244 2.70851,14.71957 0.0934,1.1 0.25289,2.95011 0.35442,4.11135 0.14114,1.61425 1.89818,2.83066 7.4627,5.16644 6.51068,2.73294 34.92466,12.56096 38.7219,13.39338 1.20092,0.26327 1.61297,-1.26624 2.06662,-7.67117 l 0.56662,-8 0.18338,8.19209 0.18338,8.19208 10.75,3.46376 c 5.9125,1.90507 13.8884,4.60693 17.72421,6.00414 5.19061,1.8907 7.1687,2.23446 7.73469,1.34416 0.41826,-0.65793 0.76737,5.66627 0.77579,14.05377 L 341,693 l -20.16667,0 c -11.09166,0 -19.90583,-0.26083 -19.58704,-0.57962 0.31879,-0.3188 9.16879,-0.52784 19.66667,-0.46454 L 340,692.07093 l 0,-12.06021 0,-12.06022 -2.75,-1.1049 c -9.14372,-3.67379 -31.77735,-10.71825 -32.40875,-10.08685 -0.41386,0.41386 -0.90585,4.57494 -1.09331,9.24686 L 303.40709,674.5 303.20355,664.86458 303,655.22916 291.25,651.24814 c -6.4625,-2.18955 -16.8489,-5.87972 -23.08088,-8.20036 -6.23199,-2.32064 -11.55322,-3.99701 -11.82497,-3.72526 -0.27175,0.27174 0.43965,5.99174 1.58088,12.71111 1.14123,6.71936 2.07497,14.12538 2.07497,16.45781 l 0,4.24079 -6.75,2.99207 c -9.54136,4.22939 -26.97598,9.76257 -39,12.37732 -5.6375,1.22594 -10.25,2.60459 -10.25,3.06368 0,0.45908 -6.7125,0.8347 -14.91667,0.8347 -10.70908,0 -15.02944,0.33833 -15.31648,1.19944 -0.25007,0.75023 -0.64404,0.56297 -1.05194,-0.5 z M 214.5,685.66427 c 17.32962,-3.79368 32.64212,-8.8505 40.31219,-13.31275 3.76626,-2.19111 4.24057,-2.84692 3.74645,-5.18012 -1.24524,-5.87989 -6.73408,-38.9565 -7.16046,-43.14999 -0.25045,-2.46322 -0.85733,-4.88056 -1.34862,-5.37185 -0.4913,-0.4913 -0.66578,-1.4861 -0.38773,-2.21068 0.27804,-0.72457 0.11869,-2.00864 -0.35411,-2.8535 -0.75608,-1.35103 -1.25401,-1.29626 -4.13318,0.45467 -1.80044,1.09491 -3.03085,2.38342 -2.73424,2.86335 0.29661,0.47993 -0.69362,1.11069 -2.2005,1.40169 -3.39902,0.6564 -21.1137,6.52318 -23.47623,7.77491 -0.95504,0.506 -10.06754,0.92 -20.25,0.92 -14.13602,0 -18.51719,0.29556 -18.52888,1.25 -0.0111,0.90818 -0.21622,0.93604 -0.75,0.10188 -0.47746,-0.74615 -6.68672,-1.37314 -17.73469,-1.79081 -17.86527,-0.6754 -18.38966,-0.77217 -33.5,-6.1823 -5.225,-1.87077 -10.2875,-3.3963 -11.25,-3.39008 -0.9625,0.006 -1.75809,-0.55119 -1.76797,-1.23869 -0.0197,-1.37418 -9.86948,-8.19589 -10.67328,-7.39209 -0.27494,0.27495 -0.56939,2.32935 -0.65433,4.56534 -0.0849,2.23599 -0.43783,4.06798 -0.78423,4.07109 -0.34639,0.003 -0.87087,2.59316 -1.165501,5.75566 -0.294631,3.1625 -1.25296,10.47152 -2.12962,16.24228 C 95.388748,653.38408 94.375127,672 95.777826,672 c 0.595449,0 3.926531,1.2955 7.402404,2.87889 13.07043,5.95406 28.24093,9.57692 50.81977,12.13624 0.825,0.0935 6.3375,0.38232 12.25,0.64179 8.44383,0.37055 10.75652,0.18979 10.78041,-0.84258 0.0221,-0.95334 0.27162,-0.90235 0.90864,0.18566 0.745,1.27243 3.05402,1.40113 15.21959,0.84833 7.88775,-0.35842 17.49136,-1.34124 21.34136,-2.18406 z M 177.34941,677 c 0,-4.675 0.17226,-6.5875 0.3828,-4.25 0.21053,2.3375 0.21053,6.1625 0,8.5 -0.21054,2.3375 -0.3828,0.425 -0.3828,-4.25 z m 27.72954,4.58333 c -0.0434,-1.05416 0.19292,-1.64479 0.52522,-1.3125 0.33229,0.33229 0.36781,1.1948 0.0789,1.91667 -0.31922,0.79773 -0.55618,0.56078 -0.60416,-0.60417 z M 177.36523,657.5 c -0.003,-5.5 0.16319,-7.87758 0.36844,-5.28352 0.20525,2.59406 0.20738,7.09406 0.005,10 C 177.53603,665.12242 177.3681,663 177.3655,657.5 z m 41.71372,-2.91667 c -0.0434,-1.05416 0.19292,-1.64479 0.52522,-1.3125 0.33229,0.33229 0.36781,1.1948 0.0789,1.91667 -0.31922,0.79773 -0.55618,0.56078 -0.60416,-0.60417 z m 4.13394,-33.03275 c 5.06728,-1.28092 9.37986,-2.82882 9.58351,-3.43977 0.20364,-0.61094 1.35331,-1.11081 2.5548,-1.11081 5.25775,0 17.10582,-10.58865 28.35597,-25.34179 C 280.44835,569.70425 288.08417,554.56415 296.31714,527 301.60997,509.27945 302.5,498.85853 302.5,454.60747 l 0,-30.89252 -2.95733,-2.10748 c -1.62654,-1.15911 -5.15717,-4.12189 -7.84585,-6.58397 -2.68869,-2.46207 -4.79207,-3.81207 -4.67419,-3 0.49208,3.38986 0.0484,4.28031 -1.49475,2.99964 -1.29616,-1.07572 -1.29616,-1.39771 0,-2.69388 1.99838,-1.99838 1.90962,-2.42523 -1.47621,-7.09923 -1.62158,-2.23853 -5.19959,-8.77254 -7.95114,-14.52003 -5.55475,-11.6029 -8.28315,-14.51218 -16.4893,-17.5825 -14.32163,-5.35841 -33.56966,-6.44073 -47.61123,-2.6772 -3.575,0.9582 -12.575,2.51253 -20,3.45407 l -13.5,1.71188 -0.2208,37.85427 c -0.12144,20.81984 -0.42341,38.34369 -0.67105,38.94187 -0.24764,0.59819 -0.48578,-16.30175 -0.5292,-37.5554 C 176.98958,371.11237 177.87237,375 168.02829,375 c -5.53322,0 -14.1817,-1.56151 -33.02829,-5.96337 -4.675,-1.09191 -10.525,-1.99676 -13,-2.01079 -9.1951,-0.0521 -27.470548,4.61547 -33.474574,8.54946 -3.180576,2.08399 -8.992435,10.42725 -13.524006,19.41449 -4.93112,9.77964 -14.384103,23.34187 -17.391202,24.95122 C 54.0857,421.82728 53.5,424.37003 53.5,437.78505 c 0,8.94242 0.31138,11.48218 1.5,12.23468 0.883127,0.55911 1.013178,0.95594 0.316235,0.96496 -1.512079,0.0196 -1.684918,19.76128 -0.350335,40.01531 0.852814,12.94255 3.659541,28.88665 6.895974,39.17375 5.887797,18.71456 7.958851,24.57099 11.419308,32.291 2.210122,4.93061 5.638497,11.40954 7.618611,14.39763 1.980114,2.98809 4.500207,6.92792 5.600207,8.75518 8.656242,14.37924 27.94788,30.2912 36.80902,30.36048 1.62877,0.0127 2.54724,0.44552 2.18598,1.03006 -0.93359,1.51057 7.24514,4.64239 15.44675,5.91491 3.9848,0.61826 16.45571,1.06617 27.71313,0.99535 11.25743,-0.0708 20.77789,0.19417 21.15658,0.58887 1.33949,1.39611 24.1805,-0.62575 33.40143,-2.95665 z M 167.75,617.20431 c -3.7125,-0.16263 -6.75,-0.70474 -6.75,-1.20469 0,-0.86139 -3.4645,-1.77617 -9,-2.37639 -3.17811,-0.3446 -11.5241,-4.04419 -12.42997,-5.50991 -1.04132,-1.6849 0.93003,-1.33799 4.62281,0.8135 6.91716,4.03007 32.75934,7.0388 32.83757,3.82318 0.0167,-0.6875 0.49438,-0.45304 1.06146,0.52103 0.56708,0.97407 1.44183,1.51716 1.9439,1.20686 0.50207,-0.31029 3.73691,-0.69924 7.18854,-0.86433 6.98175,-0.33394 14.14759,-2.49889 20.46324,-6.18236 5.01277,-2.9236 6.80799,-1.51861 1.91978,1.50247 -3.83176,2.36816 -14.0006,6.06633 -16.68055,6.06633 -0.96806,0 -1.91011,0.40895 -2.09345,0.90877 -0.37806,1.03074 -12.98113,1.73808 -23.08333,1.29554 z M 177.39456,597.5 c 0.002,-7.7 0.15853,-10.71781 0.34883,-6.70625 0.1903,4.01156 0.18902,10.31156 -0.003,14 C 177.5487,608.48219 177.393,605.2 177.39456,597.5 z m 27.68439,-1.91667 c -0.0434,-1.05416 0.19292,-1.64479 0.52522,-1.3125 0.33229,0.33229 0.36781,1.1948 0.0789,1.91667 -0.31922,0.79773 -0.55618,0.56078 -0.60416,-0.60417 z M 219.15789,587 c 0,-1.375 0.22698,-1.9375 0.50439,-1.25 0.27741,0.6875 0.27741,1.8125 0,2.5 -0.27741,0.6875 -0.50439,0.125 -0.50439,-1.25 z m -83.82975,-10.5 c -0.004,-3.85 0.17268,-5.54754 0.39359,-3.7723 0.22091,1.77523 0.22454,4.92523 0.008,7 -0.21648,2.07476 -0.39722,0.6223 -0.40166,-3.2277 z m 38.68717,5.25 c -0.008,-0.9625 -0.57781,-1.7631 -1.26531,-1.77912 -0.6875,-0.016 -4.85,-3.6251 -9.25,-8.02018 -8.91126,-8.90129 -14.41181,-11.43766 -23.4052,-10.7924 -3.80813,0.27323 -5.22484,-0.0927 -7.06975,-1.82587 l -2.30727,-2.16756 4.81074,-0.72142 c 4.39081,-0.65844 15.55246,-4.61344 17.97148,-6.36797 2.12828,-1.54367 9.47864,-3.07548 14.75761,-3.07548 5.11426,0 5.57407,-0.19322 6.17704,-2.59565 0.65524,-2.61068 -0.74704,-5.40435 -2.7127,-5.40435 -0.56824,0 -2.50553,-1.12302 -4.30508,-2.49561 -2.93662,-2.23987 -3.31869,-2.31672 -3.72839,-0.75 -0.34211,1.30826 -0.48554,1.18189 -0.57248,-0.50439 -0.097,-1.88093 -0.68791,-2.25 -3.60254,-2.25 -2.74242,0 -4.23063,-0.80035 -6.97294,-3.75 -1.91752,-2.0625 -3.49858,-4.36024 -3.51346,-5.1061 -0.0149,-0.74585 1.36075,-3.10835 3.05697,-5.25 2.43837,-3.07868 3.75731,-3.8939 6.3,-3.8939 1.76878,0 3.75597,0.54 4.41597,1.2 0.93333,0.93333 1.2,0.82222 1.2,-0.5 0,-0.935 0.49814,-1.7 1.10699,-1.7 0.60884,0 0.83384,0.7118 0.5,1.58179 -0.33385,0.86998 -0.65185,3.00748 -0.70667,4.75 -0.0932,2.96185 -0.14479,3.00538 -0.79229,0.66821 -0.38093,-1.375 -1.95257,-3.10694 -3.49252,-3.84876 -2.59457,-1.24984 -3.01233,-1.14525 -5.69621,1.42607 -3.79135,3.63235 -4.38082,5.78869 -2.40624,8.80228 2.95401,4.50838 9.50988,5.51131 10.59218,1.62041 l 0.6954,-2.5 0.0997,2.5 c 0.13027,3.26632 8.65831,10 12.66475,10 0.23919,0 0.52546,-3.4875 0.63614,-7.75 l 0.20125,-7.75 0.34082,7.75 c 0.38552,8.76653 1.12058,9.34962 7.15146,5.67292 3.94464,-2.40483 5.29805,-3.66656 6.88959,-6.42292 1.0775,-1.86608 1.15686,-1.8755 1.18523,-0.14059 0.0251,1.53221 0.64629,1.7875 3.53041,1.4508 1.925,-0.22474 3.5,-0.049 3.5,0.39059 0,0.43956 -1.8,0.7992 -4,0.7992 -2.2,0 -4,0.40122 -4,0.89159 0,0.49038 -1.0125,1.17026 -2.25,1.51085 -1.2375,0.3406 -3.53579,1.68229 -5.10732,2.98155 -2.40302,1.9867 -2.75091,2.84677 -2.18803,5.40952 0.65107,2.96433 0.85124,3.05956 7.35732,3.50036 7.9683,0.53987 10.50946,0.96998 11.21082,1.89751 0.28753,0.38025 4.21174,2.05154 8.72047,3.71396 7.56693,2.79001 8.27457,2.8907 9.19681,1.30862 0.89104,-1.52856 1.0024,-1.4841 1.02952,0.41104 0.0222,1.55068 0.84121,2.28716 3.03041,2.725 1.65,0.33 3,0.98575 3,1.45722 0,1.18465 -6.85586,3.18532 -8.60946,2.5124 -2.2286,-0.85519 -14.26486,0.70396 -15.64968,2.02723 -0.68248,0.65213 -4.84086,4.54016 -9.24086,8.64005 -4.4,4.0999 -8.54655,8.36758 -9.21456,9.48373 -0.66802,1.11615 -1.23052,1.46687 -1.25,0.77937 C 182.01595,581.5625 181.1,581 180,581 c -1.1,0 -2.00689,0.5625 -2.01531,1.25 -0.0102,0.83588 -0.34154,0.75305 -1,-0.25 -0.87528,-1.33333 -1.0941,-1.33333 -1.96938,0 -0.84299,1.28415 -0.98689,1.24817 -1,-0.25 z m 11.47761,-5.73855 c 0.35034,-0.56686 -0.0511,-0.7345 -0.94098,-0.39301 -1.73242,0.66479 -2.04939,1.38156 -0.61096,1.38156 0.51754,0 1.21592,-0.44485 1.55194,-0.98855 z M 177,569.10699 c 0,-5.25799 -0.36211,-7.03197 -1.52659,-7.47882 C 172.59359,560.52308 158,559.69369 158,560.63511 c 0,1.16283 11.81359,12.73999 14.5,14.20981 3.97241,2.17343 4.5,1.50071 4.5,-5.73793 z m 6.71958,3.80656 C 187.5795,570.78323 198,561.20264 198,559.78416 c 0,-1.27419 -4.99966,-0.92682 -12.75,0.88587 l -7.25,1.69566 0,6.31715 c 0,3.47444 0.43631,6.31716 0.96958,6.31716 0.53327,0 2.67077,-0.9389 4.75,-2.08645 z M 191.5,571 c 0.99549,-1.1 1.30606,-2 0.69017,-2 -0.61589,0 -1.60147,0.9 -2.19017,2 -0.5887,1.1 -0.89928,2 -0.69017,2 0.20911,0 1.19468,-0.9 2.19017,-2 z m 7.48272,-8.42431 c 0.01,-0.50838 -1.10772,0.13256 -2.48272,1.42431 -1.375,1.29175 -2.5,2.76742 -2.5,3.27927 0,1.20206 4.95985,-3.47994 4.98272,-4.70358 z m -42.94495,-0.61633 C 152.79486,559.18745 148.13464,557.7908 149.5,560 c 0.33992,0.55 1.37898,1.01001 2.30902,1.02224 0.93004,0.0122 2.81598,0.90222 4.19098,1.97776 3.88042,3.03531 3.90828,2.2677 0.0378,-1.04064 z M 206.5,560 c 1.60437,-0.68942 1.2582,-0.87333 -1.75,-0.92971 C 202.6875,559.03163 201,559.45 201,560 c 0,1.19413 2.72111,1.19413 5.5,0 z m -29.66247,-3.65723 c 0.21511,-3.19415 0.0511,-3.4952 -1.29562,-2.37756 C 174.26869,555.0219 174,554.98225 174,553.73767 c 0,-2.80569 -10.02254,-3.22601 -17.51005,-0.73432 -3.55753,1.18386 -6.72921,2.57476 -7.04819,3.09088 -0.31897,0.51612 -0.96777,0.69871 -1.44176,0.40577 -0.47399,-0.29294 -1.14446,-0.0753 -1.48992,0.48369 -0.34546,0.55897 -0.0391,1.02329 0.6809,1.03181 6.14268,0.0727 28.39878,1.32317 28.72569,1.61392 0.22916,0.20382 0.47469,0.37058 0.54561,0.37058 0.0709,0 0.23978,-1.64575 0.37525,-3.65723 z M 181,559.24257 c 0,-0.41659 2.1375,-0.78462 4.75,-0.81785 12.78198,-0.16261 19.25,-0.89335 19.25,-2.17481 0,-0.72198 -0.7875,-1.56436 -1.75,-1.87197 -0.9625,-0.30761 -2.83062,-1.08099 -4.15139,-1.71862 -2.84372,-1.37287 -11.75774,-1.53028 -14.59861,-0.25779 -1.1,0.49271 -3.0125,0.79673 -4.25,0.67559 -2.32396,-0.22749 -2.97177,1.8784 -1.64301,5.34109 0.6151,1.60293 2.39301,2.2154 2.39301,0.82436 z M 209.5,557 c -2.73138,-1.17371 -3.5,-1.17371 -3.5,0 0,0.55 1.2375,0.96837 2.75,0.92971 2.43684,-0.0623 2.52225,-0.16815 0.75,-0.92971 z M 170,549 c 0,-0.55 -1.82656,-1 -4.05902,-1 -2.45136,0 -3.81423,0.39607 -3.44098,1 0.33992,0.55 2.16648,1 4.05902,1 1.89254,0 3.44098,-0.45 3.44098,-1 z m 11.25,-1.2637 C 181.1125,547.33134 181,545.65 181,544 c 0,-2 -0.5,-3 -1.5,-3 -1.08783,0 -1.5,1.11926 -1.5,4.07332 0,3.34108 0.31459,4.01274 1.75,3.73631 0.9625,-0.18536 1.6375,-0.66836 1.5,-1.07333 z m -4.59406,-4.00533 c -0.27393,-0.67703 -0.48137,0.11903 -0.46099,1.76903 0.0204,1.65 0.2445,2.20394 0.49804,1.23097 0.25354,-0.97297 0.23687,-2.32297 -0.0371,-3 z M 218,579.5 c 0,-1.375 0.45,-2.5 1,-2.5 0.55,0 1,1.125 1,2.5 0,1.375 -0.45,2.5 -1,2.5 -0.55,0 -1,-1.125 -1,-2.5 z M 153.15789,579 c 0,-1.375 0.22698,-1.9375 0.50439,-1.25 0.27741,0.6875 0.27741,1.8125 0,2.5 -0.27741,0.6875 -0.50439,0.125 -0.50439,-1.25 z m 51.92106,-0.41667 c -0.0434,-1.05416 0.19292,-1.64479 0.52522,-1.3125 0.33229,0.33229 0.36781,1.1948 0.0789,1.91667 -0.31922,0.79773 -0.55618,0.56078 -0.60416,-0.60417 z M 135.25218,548.5 c -0.0111,-2.2 0.18461,-3.21775 0.4349,-2.26166 0.25029,0.95609 0.25937,2.75609 0.0202,4 -0.23919,1.24391 -0.44398,0.46166 -0.45508,-1.73834 z m 84.02018,-0.5 c 0,-2.475 0.19502,-3.4875 0.43337,-2.25 0.23836,1.2375 0.23836,3.2625 0,4.5 -0.23835,1.2375 -0.43337,0.225 -0.43337,-2.25 z m -14.19341,0.58333 c -0.0434,-1.05416 0.19292,-1.64479 0.52522,-1.3125 0.33229,0.33229 0.36781,1.1948 0.0789,1.91667 -0.31922,0.79773 -0.55618,0.56078 -0.60416,-0.60417 z m -42,-8 c -0.0434,-1.05416 0.19292,-1.64479 0.52522,-1.3125 0.33229,0.33229 0.36781,1.1948 0.0789,1.91667 -0.31922,0.79773 -0.55618,0.56078 -0.60416,-0.60417 z m 41.6925,-5.3493 c -0.25399,-0.97128 -0.11311,-2.65878 0.31309,-3.75 0.59024,-1.51126 0.79164,-1.09044 0.84517,1.76597 0.0753,4.0182 -0.40925,4.84824 -1.15826,1.98403 z M 148.5,533 c -0.33992,-0.55 -0.14148,-1 0.44098,-1 0.58246,0 1.05902,0.45 1.05902,1 0,0.55 -0.19844,1 -0.44098,1 -0.24254,0 -0.7191,-0.45 -1.05902,-1 z m 53.8632,-4.70034 c 3.71199,-7.25782 1.27929,-12.30554 -5.1634,-10.71376 -2.9971,0.74049 -3.92649,1.57885 -4.89336,4.4141 -1.09411,3.20838 -1.18324,2.79178 -1.06975,-5 0.0721,-4.95053 0.28021,-6.51647 0.49835,-3.75 0.39505,5.01007 1.16826,5.70384 3.6221,3.25 2.02782,-2.02782 5.66054,-1.83583 8.39286,0.44356 1.8099,1.50988 2.25,2.90517 2.25,7.1334 0,2.891 -0.30098,4.95539 -0.66885,4.58752 -0.36787,-0.36786 -1.55443,0.11964 -2.6368,1.08334 -1.94339,1.7303 -1.94752,1.71223 -0.33115,-1.44816 z m -53.85312,-13.28335 c -0.34546,-0.55897 0.0734,-1.01631 0.9309,-1.01631 1.75653,0 2.01516,0.60006 0.62812,1.45729 -0.512,0.31644 -1.21356,0.11799 -1.55902,-0.44098 z M 205,515 c 0,-0.55 0.19844,-1 0.44098,-1 0.24254,0 0.7191,0.45 1.05902,1 0.33992,0.55 0.14148,1 -0.44098,1 C 205.47656,516 205,515.55 205,515 z m -27.63004,-15 c 0,-5.775 0.16528,-8.1375 0.36728,-5.25 0.202,2.8875 0.202,7.6125 0,10.5 -0.202,2.8875 -0.36728,0.525 -0.36728,-5.25 z m 12.95011,2 c 0,-3.575 0.1815,-5.0375 0.40333,-3.25 0.22182,1.7875 0.22182,4.7125 0,6.5 -0.22183,1.7875 -0.40333,0.325 -0.40333,-3.25 z m -0.99193,-14.5 c -0.004,-3.85 0.17268,-5.54754 0.39359,-3.7723 0.22091,1.77523 0.22454,4.92523 0.008,7 -0.21648,2.07476 -0.39722,0.6223 -0.40166,-3.2277 z m -12.01827,-4 c -0.006,-3.3 0.17648,-4.77056 0.40466,-3.26791 0.22817,1.50265 0.23276,4.20265 0.0102,6 -0.22256,1.79735 -0.40925,0.56791 -0.41486,-2.73209 z M 166.232,481 c 0,-1.925 0.2058,-2.7125 0.45733,-1.75 0.25152,0.9625 0.25152,2.5375 0,3.5 -0.25153,0.9625 -0.45733,0.175 -0.45733,-1.75 z m 0.0404,-8 c 0,-2.475 0.19502,-3.4875 0.43337,-2.25 0.23836,1.2375 0.23836,3.2625 0,4.5 -0.23835,1.2375 -0.43337,0.225 -0.43337,-2.25 z m 22.03751,-3.5 c -0.006,-3.3 0.17648,-4.77056 0.40466,-3.26791 0.22817,1.50265 0.23276,4.20265 0.0102,6 -0.22256,1.79735 -0.40925,0.56791 -0.41486,-2.73209 z M 167,459.16667 C 167,454.03492 167.41875,450 167.95132,450 c 0.8693,0 0.31379,16.87528 -0.58979,17.91667 -0.19884,0.22916 -0.36153,-3.70834 -0.36153,-8.75 z m -49.39694,1.78837 c -0.57691,-2.04785 -2.18222,-3.08987 -8.21836,-5.3346 -4.12578,-1.5343 -8.11291,-2.55498 -8.8603,-2.26818 -0.747384,0.2868 -1.607001,-0.12513 -1.910256,-0.9154 -0.303256,-0.79027 -1.577998,-1.45108 -2.832759,-1.46846 -2.249868,-0.0312 -2.243394,-0.065 0.468615,-2.45204 C 98.119097,446.87127 99,445.11958 99,443.04797 99,441.37158 99.45,440 100,440 c 0.55,0 1,0.675 1,1.5 0,0.825 0.70156,1.5 1.55902,1.5 0.85746,0 1.2809,-0.45 0.94098,-1 -0.33992,-0.55 0.0443,-1 0.8537,-1 0.80945,0 3.86325,-1.575 6.78621,-3.5 2.92297,-1.925 5.88724,-3.5 6.58729,-3.5 0.70004,0 1.2728,-0.45 1.2728,-1 0,-0.6 4,-1 10,-1 5.5,0 10,0.38166 10,0.84813 0,0.46646 1.78666,1.65379 3.97036,2.6385 2.1837,0.98472 4.72844,2.62806 5.65499,3.65188 1.8952,2.09417 7.36625,2.54688 7.38996,0.61149 0.0112,-0.91394 0.21283,-0.93962 0.75,-0.0955 0.40408,0.63498 1.17267,1.30998 1.70797,1.5 0.53531,0.19002 0.85171,1.27321 0.70313,2.40709 -0.14859,1.13389 0.20269,3.30531 0.78062,4.82538 0.79275,2.08509 0.72084,3.23483 -0.29282,4.68204 -0.73898,1.05504 -1.64074,1.62112 -2.0039,1.25795 -0.36317,-0.36317 -0.66031,0.0897 -0.66031,1.00636 0,0.91667 0.53068,1.55417 1.17929,1.41667 0.64861,-0.1375 1.19861,0.7625 1.22223,2 0.0236,1.2375 -0.28208,2.25 -0.6793,2.25 -0.39722,0 -1.17222,0 -1.72222,0 -0.55,0 -1,-1.575 -1,-3.5 0,-3.11414 -0.29038,-3.5 -2.63398,-3.5 C 149.8768,454 143,456.0952 143,457.15829 143,457.62123 141.875,458 140.5,458 c -1.90253,0 -2.51887,0.53772 -2.57895,2.25 -0.0434,1.2375 -0.30592,1.6875 -0.58333,1 -0.35014,-0.86774 -3.20873,-1.25 -9.34773,-1.25 -7.59811,0 -8.90154,0.24642 -9.25666,1.75 -0.3211,1.35954 -0.57329,1.18216 -1.13027,-0.79496 z m 9.58444,-2.63815 c -0.72187,-0.28887 -1.58437,-0.25335 -1.91667,0.0789 -0.33229,0.33229 0.25834,0.56864 1.3125,0.52522 1.16495,-0.048 1.4019,-0.28494 0.60417,-0.60416 z m 6.73191,-3.24592 c 1.10242,-0.69777 1.20248,-1.64347 0.44807,-4.23469 -0.95296,-3.27318 -1.06492,-3.32961 -5.91941,-2.98389 -2.72144,0.19381 -5.28557,0.55787 -5.69807,0.80902 -0.92886,0.56552 -0.99376,5.7615 -0.0833,6.67192 0.98259,0.9826 9.60336,0.78161 11.25274,-0.26236 z M 127,451 c 0,-0.55 0.45,-1 1,-1 0.55,0 1,0.45 1,1 0,0.55 -0.45,1 -1,1 -0.55,0 -1,-0.45 -1,-1 z m -9,1 c 0,-1.1 0.45,-2 1,-2 2.04792,0 0.90989,-1.98451 -1.48234,-2.58492 C 114.46044,446.64776 105,448.80271 105,450.26641 c 0,0.58681 0.30158,0.76534 0.67017,0.39675 0.3686,-0.3686 1.6391,-0.0353 2.82334,0.74063 1.92966,1.26436 4.60887,2.06264 8.25649,2.46003 C 117.4375,453.93872 118,453.1 118,452 z m 25.45,-0.11239 C 143.9725,451.39942 146.1475,451 148.28333,451 c 5.43401,0 4.35146,-1.97587 -2.35199,-4.29286 -4.11387,-1.42193 -5.85431,-1.61183 -7.18066,-0.78351 -1.30493,0.81494 -1.75068,0.78562 -1.75068,-0.11516 0,-0.88735 -0.29571,-0.91276 -1.11287,-0.0956 -1.26232,1.26232 -0.24436,3.62594 1.18197,2.74442 0.96784,-0.59816 1.29902,0.73161 0.96756,3.88501 -0.15648,1.48869 0.25328,1.70704 2.13484,1.13761 1.28068,-0.38759 2.756,-1.10412 3.2785,-1.5923 z M 105,445.5 c 1.01247,-1.21995 0.96484,-1.5 -0.25511,-1.5 -0.825,0 -2.0602,0.675 -2.74489,1.5 -1.01247,1.21995 -0.96484,1.5 0.25511,1.5 0.825,0 2.0602,-0.675 2.74489,-1.5 z m 45,0.5 c 0,-0.55 -0.47656,-1 -1.05902,-1 -0.58246,0 -0.7809,0.45 -0.44098,1 0.33992,0.55 0.81648,1 1.05902,1 0.24254,0 0.44098,-0.45 0.44098,-1 z m 4.7381,-0.69048 c -0.92977,-0.92976 -2.02566,-1.35529 -2.43533,-0.94562 -0.40967,0.40966 -0.0829,1.16349 0.72619,1.67516 2.43457,1.53967 3.51652,1.07785 1.70914,-0.72954 z m -21.69088,-3.38593 c 0.46766,-0.75668 3.33603,-1.12767 7.98064,-1.0322 6.1376,0.12616 7.07088,-0.0675 6.07988,-1.26158 -2.37183,-2.85787 -11.142,-5.74803 -18.02667,-5.94059 -5.65797,-0.15824 -7.77374,0.29111 -12.92334,2.74465 C 112.77098,438.0475 110,439.79225 110,440.3111 c 0,0.52942 2.19395,0.73255 5,0.46292 3.65277,-0.35098 5,-0.13456 5,0.80322 0,2.35563 11.61486,2.66396 13.04722,0.34635 z M 110.25,442.33772 c -0.6875,-0.27741 -1.8125,-0.27741 -2.5,0 -0.6875,0.27741 -0.125,0.50439 1.25,0.50439 1.375,0 1.9375,-0.22698 1.25,-0.50439 z m 39.9375,-0.0208 c -0.72188,-0.28887 -1.58438,-0.25335 -1.91667,0.0789 -0.33229,0.33229 0.25834,0.56864 1.3125,0.52522 1.16495,-0.048 1.4019,-0.28494 0.60417,-0.60416 z M 196.15789,460 c 0,-1.925 0.22698,-2.9375 0.50439,-2.25 0.27741,0.6875 1.14189,1.25 1.92105,1.25 0.77917,0 1.41667,0.45 1.41667,1 0,0.55 -0.6375,1 -1.41667,1 -0.77916,0 -1.64364,0.5625 -1.92105,1.25 -0.27741,0.6875 -0.50439,-0.325 -0.50439,-2.25 z M 177.232,459 c 0,-1.925 0.2058,-2.7125 0.45733,-1.75 0.25152,0.9625 0.25152,2.5375 0,3.5 -0.25153,0.9625 -0.45733,0.175 -0.45733,-1.75 z M 99,458.55902 c 0,-3.06405 0.569942,-3.31157 1.28949,-0.56002 0.28751,1.09946 0.115,2.25101 -0.38337,2.55902 C 99.407754,460.86603 99,459.96648 99,458.55902 z m 87.84255,-3.06038 c -0.1884,-3.02575 -0.005,-5.50075 0.40745,-5.5 0.4125,7.5e-4 0.75,1.76456 0.75,3.91957 0,2.15502 0.27314,4.63002 0.60699,5.5 0.33384,0.86999 0.15049,1.58179 -0.40745,1.58179 -0.55794,0 -1.16859,-2.47561 -1.35699,-5.50136 z m 26.95022,3.75136 c -0.57071,-0.6875 -1.79256,-1.25 -2.71521,-1.25 -0.92266,0 -2.17496,-0.4974 -2.7829,-1.10534 -0.60794,-0.60794 -3.50406,-1.17044 -6.43583,-1.25 -4.9593,-0.13459 -5.45744,-0.37837 -7.15353,-3.50087 -1.6551,-3.04704 -1.67944,-3.51489 -0.26417,-5.07874 0.85738,-0.94739 1.61107,-3.4871 1.67487,-5.64379 0.0638,-2.15669 0.31602,-3.16378 0.56048,-2.23796 0.56013,2.12128 4.01018,2.00392 7.32352,-0.24912 C 211.53034,433.81361 217.23724,432 225.81986,432 c 6.79718,0 8.76121,0.34485 10.06284,1.76686 0.88952,0.97177 4.40559,3.10927 7.81351,4.75 3.40791,1.64073 6.22041,3.58314 6.25,4.31647 0.09,2.23052 2.3456,0.72496 2.73481,-1.82541 0.60893,-3.99007 1.31898,-3.58479 1.31898,0.75283 0,3.21138 0.55709,4.53229 2.58383,6.12653 2.61373,2.05596 2.5266,4.11272 -0.17423,4.11272 -0.8098,0 -1.72049,0.64659 -2.02374,1.43686 -0.30326,0.79027 -1.14852,1.20771 -1.87836,0.92764 -0.72984,-0.28006 -2.6826,0.19181 -4.33946,1.0486 -6.96307,3.60074 -12.78895,4.86022 -23.00282,4.97289 -7.16908,0.0791 -10.65263,-0.26888 -11.37245,-1.13599 z m 9.9382,-0.94299 c -0.97297,-0.25354 -2.32297,-0.23687 -3,0.0371 -0.67703,0.27393 0.11903,0.48137 1.76903,0.46099 1.65,-0.0204 2.20394,-0.2445 1.23097,-0.49804 z m 7.25825,-2.79402 c 1.92505,-2.31954 0.44226,-6.51134 -2.25513,-6.3752 -1.22875,0.062 -4.08502,-0.21628 -6.34726,-0.61844 -3.91525,-0.69602 -4.13822,-0.60021 -4.63359,1.99114 -0.76393,3.99627 2.1653,6.48951 7.62432,6.48951 2.65421,0 4.86339,-0.5854 5.61166,-1.48701 z M 215.70034,453.25 c -0.33286,-1.71796 0.045,-3.39369 1.00689,-4.46518 1.40434,-1.56437 1.32385,-1.81354 -0.9155,-2.83385 -1.81909,-0.82884 -3.56399,-0.82011 -6.7347,0.0337 -4.14291,1.11557 -9.74528,5.7158 -8.43005,6.9221 0.35575,0.32629 0.84772,0.0308 1.09326,-0.65674 0.5055,-1.41542 4.27976,-1.73021 4.27976,-0.35695 0,0.95488 6.59129,3.96963 8.86658,4.05542 0.9595,0.0362 1.20786,-0.76764 0.83376,-2.69847 z m 28.23679,0.13118 c 3.16176,-1.3205 3.30794,-1.56468 1.82466,-3.04796 -0.88685,-0.88685 -3.89575,-1.83185 -6.68645,-2.1 -4.83968,-0.46503 -5.06777,-0.37777 -4.93935,1.88962 0.074,1.30744 -0.22384,3.22836 -0.66198,4.26871 -0.72914,1.73132 -0.4653,1.82945 3.11468,1.15834 2.15122,-0.40327 5.45802,-1.37919 7.34844,-2.16871 z m 1.58933,0.81195 c -0.30789,-0.30789 -1.11479,-6.4e-4 -1.79313,0.68278 -0.98026,0.98762 -0.8654,1.10248 0.5598,0.5598 0.98622,-0.37553 1.54122,-0.93469 1.23333,-1.24258 z m -17.33896,-6.87624 c -0.72188,-0.28887 -1.58438,-0.25335 -1.91667,0.0789 -0.33229,0.33229 0.25834,0.56864 1.3125,0.52522 1.16495,-0.048 1.4019,-0.28494 0.60417,-0.60416 z m 21.70416,-2.30386 c -1.31541,-1.12034 -3.62916,-2.31285 -5.14166,-2.65001 -1.5125,-0.33716 -2.75,-1.15819 -2.75,-1.8245 0,-2.13051 -10.12665,-6.50657 -15.5,-6.69806 -8.86996,-0.3161 -17.02136,1.83508 -20.65526,5.451 -0.73961,0.73595 -2.24474,1.84118 -3.34474,2.45606 -1.93876,1.08375 -1.94199,1.14032 -0.10539,1.84771 1.25428,0.4831 2.29786,0.17824 3.08776,-0.90201 1.57449,-2.15324 11.7314,-2.59063 14.12024,-0.60806 2.68827,2.23107 9.95571,3.74713 12.07897,2.5198 1.9724,-1.14012 12.50315,-0.86268 13.31842,0.35088 0.59838,0.89072 6.33291,2.91459 6.89166,2.43226 0.21542,-0.18595 -0.68458,-1.25473 -2,-2.37507 z M 233,441.55902 c 0,-0.24254 0.45,-0.7191 1,-1.05902 0.55,-0.33992 1,-0.14148 1,0.44098 0,0.58246 -0.45,1.05902 -1,1.05902 -0.55,0 -1,-0.19844 -1,-0.44098 z M 224,446 c -1.97586,-1.2769 -5.28917,-1.2769 -4.5,0 0.33992,0.55 1.82898,0.99311 3.30902,0.98469 2.10476,-0.012 2.36421,-0.22649 1.19098,-0.98469 z m -22,-1 c 0,-0.55 -0.45,-1 -1,-1 -0.55,0 -1,0.45 -1,1 0,0.55 0.45,1 1,1 0.55,0 1,-0.45 1,-1 z m 12,-2.05902 c 0,-0.58246 -0.45,-0.7809 -1,-0.44098 -0.55,0.33992 -1,0.81648 -1,1.05902 0,0.24254 0.45,0.44098 1,0.44098 0.55,0 1,-0.47656 1,-1.05902 z m 38,17.61804 c 0,-0.24254 0.45,-0.7191 1,-1.05902 0.55,-0.33992 1,-0.14148 1,0.44098 0,0.58246 -0.45,1.05902 -1,1.05902 -0.55,0 -1,-0.19844 -1,-0.44098 z M 286.116,435.25 c -0.11519,-2.23423 -0.22753,-2.25 -16.03267,-2.25 -11.05737,0 -16.03308,-0.34924 -16.29798,-1.14394 -0.53167,-1.59501 -17.95494,-4.9602 -19.41361,-3.74961 -0.7502,0.62261 -1.3273,0.45175 -1.69299,-0.50123 -0.83153,-2.16694 -10.82716,-3.10605 -17.55465,-1.6493 -11.38573,2.46543 -16.28369,4.18581 -15.76505,5.53736 0.54908,1.43089 -3.03989,2.83215 -3.85905,1.50672 -0.2761,-0.44673 -1.28904,-0.6069 -2.251,-0.35593 -1.50576,0.39285 -1.75636,-0.31557 -1.8019,-5.09388 -0.0439,-4.60377 0.24053,-5.55019 1.66784,-5.55019 0.94641,0 3.91919,-1.10422 6.6062,-2.45383 8.95198,-4.49632 32.75902,-7.97582 36.78814,-5.37674 0.83464,0.5384 11.41861,3.53725 14.99072,4.24744 0.55,0.10935 2.89457,1.18529 5.21016,2.39098 2.31559,1.20568 5.29799,2.19215 6.62756,2.19215 1.32956,0 2.95353,0.646 3.6088,1.43556 1.01865,1.2274 5.49198,2.93261 15.81001,6.02669 1.76962,0.53066 2.45722,0.17618 3.18661,-1.64279 0.91367,-2.27851 0.93121,-2.27091 0.99347,0.43054 0.0349,1.5125 0.62589,2.75689 1.31339,2.76531 0.89571,0.011 0.9285,0.22355 0.11568,0.75 -0.62387,0.40408 -1.35917,1.63469 -1.634,2.73469 -0.45362,1.81563 -0.51037,1.79259 -0.61568,-0.25 z M 207,426.56323 c 3.575,-0.98126 7.45452,-2.22942 8.62115,-2.77369 3.03884,-1.41771 11.04251,-0.42683 25.37885,3.142 9.01171,2.24334 15.98829,3.28202 25,3.72202 6.875,0.33567 12.25378,0.34222 11.95284,0.0145 -0.30094,-0.32767 -5.25094,-2.08331 -11,-3.90142 -5.74906,-1.81811 -11.60084,-4.0775 -13.00395,-5.02086 -4.70302,-3.16203 -18.67417,-5.97911 -26.94889,-5.43387 -16.72833,1.10227 -29.08177,4.12867 -27.47368,6.73063 0.32544,0.52657 -0.0769,0.95741 -0.89398,0.95741 -0.81713,0 -1.69149,0.7875 -1.94301,1.75 -0.41753,1.59771 -0.46742,1.59046 -0.57333,-0.0833 -0.14159,-2.23784 -2.48629,-1.66988 -2.94858,0.71424 -0.18291,0.94334 0.19985,2.3567 0.85059,3.14079 0.99015,1.19306 1.61537,1.21356 3.83258,0.12563 1.45717,-0.715 5.57441,-2.10284 9.14941,-3.0841 z M 158.01894,434 c -0.023,-0.825 -1.88565,-2.38369 -4.13913,-3.46376 -4.56376,-2.18736 -3.6094,-3.33483 1.33891,-1.60984 2.52644,0.88072 3.46689,0.81657 4.59707,-0.31362 1.48317,-1.48317 0.73688,-4.07238 -0.88489,-3.07007 C 158.41891,425.85914 158,425.41648 158,424.55902 158,423.70156 157.46708,423 156.81572,423 c -0.65135,0 -3.01385,-0.87098 -5.25,-1.93551 -11.24434,-5.35291 -32.5609,-6.64759 -44.21089,-2.68518 -3.84751,1.30863 -7.863824,2.83729 -8.925149,3.39703 -1.061324,0.55975 -5.21569,2.27006 -9.231923,3.80071 -10.037113,3.82529 -10.186083,4.85302 -0.601605,4.15044 7.163597,-0.52512 16.584117,-3.01062 21.961227,-5.79422 3.32845,-1.72306 22.82098,-0.54497 31.44262,1.90032 l 7.5,2.12716 -5.5,-0.48471 c -3.025,-0.26659 -7.3,-1.13801 -9.5,-1.93648 -4.44199,-1.61219 -14.84948,-1.91013 -21,-0.60118 -5.27391,1.1224 -16.910184,5.35953 -17.333333,6.31162 -0.183334,0.4125 -5.920834,0.75 -12.75,0.75 C 74.425926,432 71,432.3311 71,433.2 c 0,0.82367 -0.323172,0.87683 -1.030484,0.16952 -0.583855,-0.58386 -0.692209,-1.86244 -0.25,-2.95 0.598567,-1.47211 1.874571,-1.95614 5.474475,-2.07662 2.78617,-0.0933 6.647341,-1.17061 9.5,-2.65072 2.643305,-1.37149 10.656009,-4.78997 17.806009,-7.59662 11.88852,-4.6667 13.70032,-5.10268 21.19098,-5.09928 4.50504,0.002 8.43158,0.39302 8.72565,0.86882 0.29406,0.47581 3.25942,1.40117 6.58968,2.05636 6.52519,1.28375 18.18689,5.3734 21.5943,7.57291 2.05924,1.32926 2.10472,1.21513 2.30942,-5.79529 0.33827,-11.5847 1.08997,-9.03184 1.08997,3.70164 0,11.12824 -0.0994,11.7025 -1.92578,11.12284 -1.26513,-0.40154 -2.28387,0.004 -2.96959,1.18261 -0.8067,1.38634 -1.05333,1.45309 -1.08569,0.29383 z m 127.78795,-9.16615 C 285.5476,424.10023 285.62697,422.375 285.98327,421 l 0.64782,-2.5 0.53342,2.68535 c 0.58576,2.94877 -0.53777,5.96813 -1.35762,3.6485 z M 70.232003,422 c 0,-1.925 0.205795,-2.7125 0.457323,-1.75 0.251527,0.9625 0.251527,2.5375 0,3.5 -0.251528,0.9625 -0.457323,0.175 -0.457323,-1.75 z m -0.593629,-8.5 C 69.321791,412.675 69.498646,412 70.031385,412 70.564123,412 71,412.675 71,413.5 c 0,0.825 -0.176855,1.5 -0.393011,1.5 -0.216156,0 -0.652033,-0.675 -0.968615,-1.5 z m 126.440576,-8.91667 c -0.0434,-1.05416 0.19292,-1.64479 0.52522,-1.3125 0.33229,0.33229 0.36781,1.19479 0.0789,1.91667 -0.31922,0.79773 -0.55618,0.56078 -0.60416,-0.60417 z m 0,-8 c -0.0434,-1.05416 0.19292,-1.64479 0.52522,-1.3125 0.33229,0.33229 0.36781,1.19479 0.0789,1.91667 -0.31922,0.79773 -0.55618,0.56078 -0.60416,-0.60417 z M 67.81042,605.59804 c 1.491105,-0.77108 3.82817,-3.35858 5.193479,-5.75 3.309518,-5.79682 3.321091,-15.33052 0.02645,-21.78855 -2.150066,-4.21448 -8.495893,-19.16556 -11.697331,-27.55949 -0.839078,-2.2 -2.664313,-7.00149 -4.056078,-10.66997 -1.873383,-4.93795 -2.91704,-6.52163 -4.019111,-6.09873 -1.123697,0.43121 -1.330633,0.0734 -0.844133,-1.45938 0.354473,-1.11684 -0.01725,-3.99742 -0.826061,-6.40127 -3.918474,-11.64611 -4.419322,-25.1056 -1.038624,-27.91133 1.117329,-0.9273 1.447849,-3.87801 1.437334,-12.83176 -0.0075,-6.39516 -0.289698,-12.65805 -0.627085,-13.91754 -0.545554,-2.03658 -0.793008,-2.12883 -2.236346,-0.83366 -0.892602,0.80097 -2.972914,1.60646 -4.622914,1.78998 -3.263091,0.36292 -3.488096,1.38364 -1.986186,9.01019 0.625389,3.17567 0.358208,4.04236 -1.961181,6.36175 -4.836433,4.83643 -11.354528,1.66931 -16.214118,-7.87837 -3.409184,-6.69806 -3.405816,-15.64886 0.0087,-23.10714 1.359715,-2.97001 2.21284,-5.65939 1.895833,-5.97639 C 25.926036,450.25937 26.175413,450 26.797213,450 c 1.646728,0 8.885701,-7.95017 10.751608,-11.8079 2.320316,-4.79722 0.602593,-6.55719 -5.799384,-5.94205 -9.232976,0.88718 -15.745053,8.67207 -15.747883,18.82588 -0.0019,6.8543 2.374729,24.15095 4.914123,35.76389 1.912915,8.74799 11.393703,40.93793 12.959776,44.0021 0.466089,0.91194 1.134739,3.85805 1.485889,6.54691 0.71568,5.48016 5.004165,20.10838 13.811361,47.11117 l 2.28311,7 0.630188,-4 c 0.528703,-3.35584 0.659586,-2.87272 0.812734,3 0.157422,6.03655 0.558863,7.4394 2.916699,10.19246 2.192857,2.56044 7.482509,6.27051 8.984226,6.30138 0.164813,0.003 1.519655,-0.62472 3.01076,-1.3958 z m -8.787734,-10.07071 c -0.672212,-0.80996 -2.042714,-4.07246 -3.04556,-7.25 C 54.97428,585.0998 53.669172,582.6125 53.076885,582.75 52.426805,582.90092 52,581.16556 52,578.37148 c 0,-3.21657 -2.199793,-10.76668 -7.211137,-24.75 -3.966126,-11.06681 -7.540846,-20.26305 -7.943823,-20.43609 -0.402977,-0.17303 -0.514987,-0.88192 -0.248911,-1.5753 0.266077,-0.69339 -1.109203,-7.07241 -3.056177,-14.17562 C 31.592979,510.33127 30,503.50265 30,502.25978 c 0,-3.3529 3.230642,-6.12951 6.421983,-5.51944 3.512272,0.67141 5.199718,4.14107 8.610048,17.70363 2.994418,11.90852 6.013074,20.85385 7.217969,21.38936 0.4125,0.18334 0.75,1.63556 0.75,3.22717 0,1.59162 1.167525,5.94162 2.5945,9.66667 C 60.909223,562.60103 69,587.98759 69,590.78982 c 0,1.59511 -0.822933,3.64495 -1.828741,4.55519 -2.266972,2.05158 -6.518281,2.14671 -8.148573,0.18232 z m 6.148573,-1.18232 C 66.177067,593.43477 67,591.84371 67,590.80933 67,588.14164 54.862364,551.56945 53.843329,551.16667 53.379498,550.98333 53,550.04128 53,549.07322 53,547.5155 50.072109,538.05342 48.335829,534 c -0.353388,-0.825 -0.689376,-1.95 -0.74664,-2.5 -0.333211,-3.20036 -6.198173,-24.67838 -7.714171,-28.25 C 38.317078,499.57957 37.65712,499 35.035537,499 32.263674,499 32,499.28871 32,502.32377 c 0,1.82808 1.060252,6.89058 2.356115,11.25 1.295864,4.35943 2.915747,10.28873 3.599741,13.17623 0.683994,2.8875 1.634619,5.25 2.1125,5.25 0.477881,0 0.648077,0.57539 0.378213,1.27864 -0.482279,1.2568 5.97972,21.52071 9.272561,29.07743 1.407782,3.23072 1.798672,3.55507 2.410291,2 0.471842,-1.19967 0.754865,-0.15708 0.800294,2.94809 0.06902,4.71747 4.170859,21.11196 6.291014,25.14429 0.993305,1.88918 2.677993,3.49907 3.70053,3.53624 0.231693,0.008 1.244193,-0.72943 2.25,-1.63968 z m 233.716541,9.88944 c 3.10539,-2.31851 5.99887,-9.53105 10.72517,-26.73445 4.38944,-15.97728 11.44338,-39.48845 16.05134,-53.5 7.61083,-23.14243 10.93299,-36.94738 13.35608,-55.5 1.42868,-10.93883 0.0823,-23.14266 -3.03638,-27.52245 -5.01906,-7.04863 -9.73934,-9.16167 -15.53968,-6.95639 -2.28353,0.8682 -2.60007,1.45016 -2.1131,3.88499 0.6288,3.14398 7.57167,13.07658 9.16877,13.117 0.55,0.0139 2.35,2.82691 4,6.25108 2.55218,5.29643 2.98813,7.34532 2.9205,13.72577 -0.0908,8.56232 -1.54547,12.14652 -6.80371,16.76331 -4.70144,4.12792 -7.14939,4.77296 -10.29406,2.71249 -2.43163,-1.59326 -2.5501,-2.05445 -2.06863,-8.05261 0.58143,-7.24331 -0.33704,-9.14549 -4.64067,-9.61097 -3.38396,-0.36602 -5.97733,-3.60538 -4.63073,-5.78422 0.71837,-1.16236 1.11312,-0.90616 1.93513,1.25588 0.79603,2.09372 1.69773,2.71612 3.93497,2.71612 4.17731,0 5.52508,2.15056 4.86811,7.76776 -1.10905,9.48267 1.41854,12.76285 7.43657,9.6508 4.65555,-2.40747 7.80351,-8.19494 8.49702,-15.62161 0.52622,-5.63511 0.26809,-7.2813 -1.86869,-11.9176 -1.36359,-2.95864 -3.78572,-6.90511 -5.38253,-8.76992 -7.05817,-8.24282 -8.17259,-9.73491 -8.81955,-11.8084 -0.92479,-2.96392 -2.70542,-2.04525 -4.90106,2.52855 -1.187,2.47269 -1.59692,4.80627 -1.18187,6.72808 0.60492,2.80096 0.56011,2.84907 -0.93267,1.00121 -1.95848,-2.42433 -1.96156,-3.6815 -0.0204,-8.32734 1.99686,-4.77916 5.10358,-8.05063 9.32439,-9.81885 3.90999,-1.63801 9.73089,-1.86403 10.62788,-0.41268 0.33992,0.55 1.37898,1.0008 2.30902,1.00179 0.93004,9.8e-4 2.9698,2.02598 4.5328,4.5 1.56301,2.47401 3.06126,4.49821 3.32946,4.49821 0.2682,0 0.18573,-1.4625 -0.18326,-3.25 -1.03493,-5.01347 -5.24308,-10.74971 -9.0543,-12.34214 -4.24963,-1.77561 -7.426,-0.65686 -15.48793,5.45501 -2.99519,2.27069 -6.45829,4.13046 -7.69579,4.13283 -2.06731,0.004 -2.25325,0.47117 -2.29003,5.7543 -0.022,3.1625 -0.22368,16.88071 -0.44814,30.48491 l -0.40811,24.73491 2.57984,3.06596 c 2.2962,2.72887 2.51014,3.6376 1.94588,8.26509 -0.34868,2.85952 -1.53295,8.05172 -2.6317,11.53822 -1.09876,3.48651 -1.99774,7.33401 -1.99774,8.55 0,1.216 -0.47974,2.69065 -1.06609,3.277 -0.75478,0.75478 -0.44674,1.22804 1.05489,1.62073 2.5481,0.66634 2.67093,0.38867 7.01382,-15.85601 4.63796,-17.34835 7.85508,-22.18289 12.9478,-19.45734 4.10651,2.19773 3.65391,5.14249 -4.74349,30.86214 C 306.67887,567.20668 304,576.05261 304,579.05054 c 0,1.53054 -0.39262,2.93279 -0.87248,3.11613 -0.47986,0.18333 -1.94236,3.70833 -3.25,7.83333 -2.19166,6.91368 -2.65019,7.58813 -5.86542,8.62732 -4.18387,1.35227 -5.70226,0.902 -6.64211,-1.9697 -1.573,-4.8063 0.64279,-13.43029 8.13391,-31.65762 4.01183,-9.76157 8.4961,-23.77266 8.4961,-26.54606 0,-1.34967 0.5625,-2.48557 1.25,-2.52423 0.6875,-0.0386 0.35,-0.43234 -0.75,-0.87486 -2.57177,-1.0346 -3.13061,-0.66274 -3.95796,2.63367 -1.15429,4.59904 -9.11905,24.35035 -13.5718,33.65583 -3.72686,7.7885 -4.29247,9.90312 -4.73777,17.71311 -0.55112,9.66583 0.51694,13.91931 4.15535,16.54849 2.68554,1.94063 8.99028,1.24887 12.49998,-1.3715 z m -2.69387,-8.05521 C 296.57559,595.80566 297.9894,591 299.33574,585.5 c 2.29237,-9.3647 3.7768,-14.21465 5.81534,-19 C 306.43017,563.49743 315,536.69015 315,535.69162 c 0,-0.47677 2.25,-7.26973 5,-15.09548 5.56332,-15.83168 6.01198,-18.98418 2.93608,-20.63035 -3.31092,-1.77195 -6.56079,1.90458 -7.9858,9.03421 -0.38475,1.925 -1.88184,7.49086 -3.32686,12.36858 -1.44502,4.87772 -2.82528,9.82772 -3.06724,11 -0.24197,1.17228 -1.36609,4.49875 -2.49806,7.39215 -1.13197,2.8934 -2.05812,6.5684 -2.05812,8.16666 0,1.59827 -0.36736,3.05594 -0.81636,3.23928 -0.449,0.18333 -2.52531,5.28333 -4.61401,11.33333 -2.0887,6.05 -4.84608,13.51393 -6.12751,16.58651 -2.53022,6.06694 -4.06544,14.84676 -3.05602,17.47726 0.47293,1.23245 1.32406,1.47759 3.37322,0.97154 1.50737,-0.37226 3.05295,-0.98249 3.43461,-1.35607 z M 39.171259,486.34501 c 2.097693,-1.89838 2.342615,-5.12307 0.668226,-8.79796 C 38.075628,473.67581 40.076018,470 43.946624,470 c 2.245306,0 3.348187,-0.68458 4.430372,-2.75 0.792479,-1.5125 1.819351,-2.75 2.281937,-2.75 0.462587,0 0.783316,-1.125 0.712731,-2.5 -0.07058,-1.375 -0.183084,-7.7526 -0.25,-14.17245 L 51,436.1551 47.25,434.99319 C 45.1875,434.35413 42.375,432.57853 41,431.04741 33.465533,422.65745 22.8997,423.4135 18.124963,432.68426 17.506233,433.8856 17,435.61972 17,436.53785 c 0,1.28839 0.807194,0.96061 3.537227,-1.43639 7.658628,-6.72437 14.785264,-7.39124 20.968664,-1.96214 C 45.560747,436.69953 48,441.6808 48,446.40113 48,449.05417 47.573601,450 46.377555,450 c -1.29013,0 -1.380437,-0.2916 -0.440902,-1.42367 1.556325,-1.87526 -0.188342,-8.58914 -2.860345,-11.00727 -1.859599,-1.68292 -1.990781,-1.63513 -3.494619,1.27297 -0.859371,1.66184 -4.059708,5.96511 -7.111862,9.56281 -3.052154,3.59771 -6.266611,8.24091 -7.143238,10.31822 -2.121129,5.02638 -2.117845,15.89533 0.006,19.79222 4.485346,8.22992 9.968497,11.33221 13.83869,7.82973 z M 301.99748,412.25 c -0.004,-11.51372 -7.68257,-37.76606 -13.03805,-44.57444 C 287.88174,366.3055 287,364.30371 287,363.22713 c 0,-1.07658 -0.84097,-3.0306 -1.86881,-4.34227 -1.02785,-1.31167 -3.84035,-5.58194 -6.25,-9.48949 -9.86836,-16.00275 -30.10131,-29.37374 -53.63389,-35.44406 -8.10409,-2.09049 -34.87684,-3.68383 -42.5541,-2.53255 L 178,312.12255 177.76863,336.81127 177.53726,361.5 177.25035,337.03173 c -0.15779,-13.45755 -0.6298,-24.81118 -1.0489,-25.23028 -1.27512,-1.27512 -43.03885,1.04519 -51.20145,2.84466 -9.05659,1.99654 -13.58955,3.86754 -22.53138,9.29989 C 89.651706,331.73254 84.326523,336.77539 76.539929,348.5 65.240924,365.51339 61.042926,374.15937 57.543183,387.6247 54.906168,397.77067 52.933107,419 54.627151,419 c 3.657753,0 10.922749,-9.79373 21.14133,-28.5 7.983979,-14.61558 10.333786,-16.79436 22.134421,-20.52342 3.628408,-1.14659 7.444218,-2.55143 8.479588,-3.12186 2.80921,-1.54772 29.14153,-1.49464 31.0178,0.0625 2.34701,1.94784 21.14744,6.06181 30.87337,6.75581 l 8.77366,0.62605 -0.18254,-5.15735 c -0.10039,-2.83654 0.11396,-5.45383 0.47634,-5.81622 0.36239,-0.36238 0.65888,1.93796 0.65888,5.11187 l 0,5.77075 8.25,-0.71053 c 9.58791,-0.82576 28.52618,-4.87381 30.08249,-6.43012 1.36951,-1.36951 32.30638,-1.46085 33.14875,-0.0979 0.3296,0.53331 3.71475,1.89748 7.52256,3.03149 11.87855,3.53759 15.22384,7.07139 23.22835,24.5373 4.24062,9.25308 9.94464,17.26071 15.34093,21.53646 2.70981,2.14712 5.26442,3.90864 5.67692,3.91448 0.4125,0.006 0.74886,-3.47687 0.74748,-7.73937 z m -67.91853,-75.66667 c -0.0434,-1.05416 0.19292,-1.64479 0.52522,-1.3125 0.33229,0.33229 0.36781,1.19479 0.0789,1.91667 -0.31922,0.79773 -0.55618,0.56078 -0.60416,-0.60417 z m -38,-4 c -0.0434,-1.05416 0.19292,-1.64479 0.52522,-1.3125 0.33229,0.33229 0.36781,1.19479 0.0789,1.91667 -0.31922,0.79773 -0.55618,0.56078 -0.60416,-0.60417 z M 158.15789,316 c 0,-1.375 0.22698,-1.9375 0.50439,-1.25 0.27741,0.6875 0.27741,1.8125 0,2.5 -0.27741,0.6875 -0.50439,0.125 -0.50439,-1.25 z m 70.26823,-6.75 c -0.90387,-5.10072 -5.11298,-9.23747 -13.85437,-13.61617 l -7.33401,-3.67373 -14.14928,0.16308 c -11.82397,0.13628 -14.30362,0.42715 -15.08846,1.76995 -0.82634,1.4138 -0.94284,1.38379 -0.96959,-0.24978 -0.0281,-1.71871 -0.68048,-1.80532 -8.78041,-1.1657 -4.8125,0.38002 -11.675,0.6421 -15.25,0.5824 -5.26735,-0.088 -7.6643,0.44701 -12.6396,2.82102 -6.35717,3.0334 -12.8604,9.0849 -12.8604,11.96709 0,0.90851 -0.675,2.19671 -1.5,2.86266 -1.1899,0.9605 0.25724,1.08905 7,0.62182 4.675,-0.32394 8.9275,-0.98131 9.45,-1.46082 0.5225,-0.4795 8.51,-0.87182 17.75,-0.87182 12.76517,0 16.80368,-0.30021 16.81531,-1.25 0.0118,-0.96343 0.19127,-0.97315 0.78282,-0.0424 0.54269,0.85388 6.46979,1.31676 20.23469,1.58024 14.25539,0.27286 20.80579,0.80159 24.46718,1.97489 6.79632,2.17791 6.67595,2.21879 5.92612,-2.01274 z m -32.34717,-4.66667 c -0.0434,-1.05416 0.19292,-1.64479 0.52522,-1.3125 0.33229,0.33229 0.36781,1.19479 0.0789,1.91667 -0.31922,0.79773 -0.55618,0.56078 -0.60416,-0.60417 z m -19,-1 c -0.0434,-1.05416 0.19292,-1.64479 0.52522,-1.3125 0.33229,0.33229 0.36781,1.19479 0.0789,1.91667 -0.31922,0.79773 -0.55618,0.56078 -0.60416,-0.60417 z M 16.270833,689.39583 c 0.332292,-0.33229 1.194792,-0.36781 1.916667,-0.0789 0.797733,0.31922 0.560776,0.55618 -0.604167,0.60416 -1.054166,0.0434 -1.644791,-0.19293 -1.3125,-0.52522 z m 6,0 c 0.332292,-0.33229 1.194792,-0.36781 1.916667,-0.0789 0.797733,0.31922 0.560776,0.55618 -0.604167,0.60416 -1.054166,0.0434 -1.644791,-0.19293 -1.3125,-0.52522 z M 303.29966,680 c 0,-3.025 0.18747,-4.2625 0.41659,-2.75 0.22913,1.5125 0.22913,3.9875 0,5.5 -0.22912,1.5125 -0.41659,0.275 -0.41659,-2.75 z M 15.194949,672.5 c -0.02038,-1.65 0.187065,-2.44606 0.460988,-1.76903 0.273923,0.67703 0.290597,2.02703 0.03705,3 -0.25354,0.97297 -0.477659,0.41903 -0.498038,-1.23097 z M 52,632 c 0,-5.68333 0.28114,-10.05219 0.624756,-9.70858 0.700601,0.7006 0.54414,18.87302 -0.16863,19.58579 C 52.205257,642.12808 52,637.68333 52,632 z m 288.76916,-1.95633 c -0.69118,-2.46112 -0.27771,-3.88556 0.81164,-2.7962 0.31944,0.31944 0.42272,1.63194 0.2295,2.91667 l -0.35131,2.33586 -0.68983,-2.45633 z m -38.08632,-1.4278 c -0.32752,-0.8535 -0.19624,-1.79857 0.29174,-2.10016 1.27567,-0.78841 2.03604,0.84908 1.0986,2.36588 -0.62088,1.00461 -0.92519,0.94645 -1.39034,-0.26572 z M 15,625.2008 c 0,-0.43956 1.575,-0.61533 3.5,-0.39059 1.925,0.22473 3.5,0.58437 3.5,0.7992 C 22,625.82423 20.425,626 18.5,626 16.575,626 15,625.64036 15,625.2008 z m 75.270833,0.19503 c 0.332292,-0.33229 1.194792,-0.36781 1.916667,-0.0789 0.797733,0.31922 0.560776,0.55618 -0.604167,0.60416 -1.054166,0.0434 -1.644791,-0.19293 -1.3125,-0.52522 z M 341.19495,623.5 c -0.0204,-1.65 0.18706,-2.44606 0.46099,-1.76903 0.27392,0.67703 0.29059,2.02703 0.0371,3 C 341.4395,625.70394 341.21538,625.15 341.195,623.5 z M 52.116361,617 c -0.03973,-3.21878 0.208428,-4.04862 0.871597,-2.91465 0.546741,0.9349 0.569531,2.78122 0.05554,4.5 C 52.23884,621.27617 52.16764,621.15442 52.116361,617 z m 288.712249,-2 c 0.2098,-2.2 0.55919,-4 0.77643,-4 0.21723,0 0.39496,1.8 0.39496,4 0,2.2 -0.34939,4 -0.77643,4 -0.42703,0 -0.60476,-1.8 -0.39496,-4 z m 58.2412,0.7566 C 399.58141,613.97273 400,608.94773 400,604.58994 c 0,-4.3578 0.3195,-7.60377 0.71,-7.21328 0.78486,0.78486 0.55401,14.53528 -0.31685,18.87334 -0.30363,1.5125 -0.93489,2.75 -1.4028,2.75 -0.46791,0 -0.43215,-1.45953 0.0795,-3.2434 z M 341.38536,597 c 0,-6.875 0.15977,-9.6875 0.35504,-6.25 0.19527,3.4375 0.19527,9.0625 0,12.5 -0.19527,3.4375 -0.35504,0.625 -0.35504,-6.25 z M 405,603.04969 c 0,-0.52267 0.7875,-1.41444 1.75,-1.9817 1.42055,-0.83723 1.49458,-1.19957 0.39324,-1.92469 -1.02419,-0.67433 -1.06412,-1.07417 -0.16287,-1.63117 2.07677,-1.28352 3.10328,0.90904 1.76983,3.78027 -1.19176,2.56616 -3.7502,3.765 -3.7502,1.75729 z M 399.15789,594 c 0,-1.375 0.22698,-1.9375 0.50439,-1.25 0.27741,0.6875 0.27741,1.8125 0,2.5 -0.27741,0.6875 -0.50439,0.125 -0.50439,-1.25 z m 0.99194,-5.92126 c -0.0824,-1.88169 -0.89457,-4.24419 -1.80482,-5.25 C 397.43477,581.82293 397.13373,581 397.67603,581 c 1.68433,0 3.50946,4.53171 3.05589,7.58764 -0.41219,2.77715 -0.43921,2.75352 -0.58209,-0.5089 z M 433,583.44098 c 0,-0.85746 -0.45,-1.2809 -1,-0.94098 -1.48068,0.91511 -1.21254,-0.83674 0.4682,-3.05887 1.32847,-1.7564 1.47122,-1.77459 1.5,-0.19113 0.0175,0.9625 0.4818,1.75 1.0318,1.75 0.55,0 1,0.9 1,2 0,1.11111 -0.66667,2 -1.5,2 -0.825,0 -1.5,-0.70156 -1.5,-1.55902 z M 424.15789,581 c 0,-1.375 0.22698,-1.9375 0.50439,-1.25 0.27741,0.6875 0.27741,1.8125 0,2.5 -0.27741,0.6875 -0.50439,0.125 -0.50439,-1.25 z M 442,581.04923 c 0,-2.27575 1.79088,-3.65835 3.07515,-2.37408 0.53452,0.53452 0.0924,1.59313 -1.08713,2.60308 C 442.10266,582.89252 442,582.8807 442,581.04923 z m 5,1.14919 C 447,580.36653 448.18765,578 449.10699,578 c 0.49115,0 0.89301,0.7301 0.89301,1.62244 0,1.26792 0.30226,1.3716 1.38322,0.47448 1.05708,-0.8773 1.50616,-0.82758 1.90466,0.21089 0.28679,0.74737 0.002,1.40126 -0.63322,1.45309 -0.63506,0.0518 -2.16716,0.40431 -3.40466,0.7833 -1.32775,0.40662 -2.25,0.26489 -2.25,-0.34578 z m -17.92105,-2.61509 c -0.0434,-1.05416 0.19293,-1.64479 0.52522,-1.3125 0.33229,0.33229 0.36781,1.1948 0.0789,1.91667 -0.31922,0.79773 -0.55618,0.56078 -0.60416,-0.60417 z m -29.99294,-2.74404 c 0.71571,-1.33732 0.97689,-4.95754 0.68537,-9.5 -0.25905,-4.03661 -0.0886,-7.33929 0.37881,-7.33929 0.96387,0 1.17291,14.99444 0.24282,17.41821 -0.33384,0.86999 -1.02468,1.58179 -1.53518,1.58179 -0.51051,0 -0.40783,-0.97232 0.22818,-2.16071 z M 406.0856,571.5 c -0.0302,-1.1 0.38124,-2.675 0.9144,-3.5 0.86167,-1.33333 0.96327,-1.33333 0.9144,0 -0.0302,0.825 -0.44171,2.4 -0.9144,3.5 -0.85943,2 -0.85943,2 -0.9144,0 z M 341,560.55902 c 0,-1.75653 0.60006,-2.01516 1.45729,-0.62812 0.31644,0.512 0.11799,1.21356 -0.44098,1.55902 C 341.45734,561.83538 341,561.41648 341,560.55902 z m 115.38082,0.22301 c 0.7406,-2.39238 -1.03395,-3.20878 -2.28895,-1.05306 -1.40576,2.41467 -1.35978,0.95313 0.0687,-2.18192 C 454.7988,556.14617 455.7738,555 456.32718,555 c 0.55339,0 0.71006,0.2961 0.34816,0.65799 -0.36189,0.3619 -0.17635,1.23833 0.41233,1.94764 0.76402,0.92059 0.73993,1.80544 -0.0842,3.09201 -1.00834,1.57417 -1.08717,1.58486 -0.62267,0.0844 z M 448.12677,556 c 0,-3.67476 0.16586,-4.08738 0.90439,-2.25 0.53919,1.34142 0.53919,3.15858 0,4.5 -0.73853,1.83738 -0.90439,1.42476 -0.90439,-2.25 z m 2.95218,0.58333 c -0.0434,-1.05416 0.19293,-1.64479 0.52522,-1.3125 0.33229,0.33229 0.36781,1.1948 0.0789,1.91667 -0.31922,0.79773 -0.55618,0.56078 -0.60416,-0.60417 z M 482,553.37756 c 0,-1.3288 -0.27149,-1.39713 -1.5,-0.37756 -1.87209,1.5537 -1.87209,0.27489 0,-3 1.09072,-1.90802 1.43752,-2.08561 1.46456,-0.75 0.0195,0.9625 0.48544,1.75 1.03544,1.75 0.55,0 1,0.9 1,2 0,1.1 -0.45,2 -1,2 -0.55,0 -1,-0.7301 -1,-1.62244 z m 13.41459,-1.51576 c -0.43224,-0.69937 -0.25077,-1.41641 0.41459,-1.63819 0.6508,-0.21694 0.89284,-0.86438 0.53785,-1.43875 -0.36561,-0.59157 -0.0432,-0.84357 0.74377,-0.58126 1.67973,0.55991 1.85429,3.9747 0.23084,4.51585 -0.6371,0.21237 -1.50427,-0.17357 -1.92705,-0.85765 z M 472,550.55902 c 0,-1.75653 0.60006,-2.01516 1.45729,-0.62812 0.31644,0.512 0.11799,1.21356 -0.44098,1.55902 C 472.45734,551.83538 472,551.41648 472,550.55902 z M 491,550 c 0,-0.55 0.675,-1 1.5,-1 0.825,0 1.5,0.45 1.5,1 0,0.55 -0.675,1 -1.5,1 -0.825,0 -1.5,-0.45 -1.5,-1 z m -43.18979,-4.5 c 0.22473,-1.925 0.53514,-3.5 0.68979,-3.5 0.15465,0 0.46506,1.575 0.68979,3.5 0.24793,2.1237 -0.0233,3.5 -0.68979,3.5 -0.66648,0 -0.93772,-1.3763 -0.68979,-3.5 z m 10.54994,0.99616 c -0.34414,-0.89683 -0.17622,-2.08009 0.37315,-2.62946 0.66516,-0.66516 1.17929,-0.30895 1.53891,1.06622 0.65268,2.49587 -1.02715,3.86926 -1.91206,1.56324 z m 15.78897,-1.15541 c -1.74259,-1.89924 -1.00409,-2.57191 2.37798,-2.16599 2.61255,0.31355 2.64279,0.38478 0.84142,1.98177 -1.6415,1.45527 -2.03265,1.47766 -3.2194,0.18422 z m -19.11732,0.10038 c -0.0175,-0.58238 0.62889,-1.93238 1.4364,-3 0.8075,-1.06762 1.4825,-1.46464 1.5,-0.88226 0.0175,0.58238 -0.62889,1.93238 -1.4364,3 -0.8075,1.06762 -1.4825,1.46464 -1.5,0.88226 z m -2.60323,-2.51455 c 0,-1.05962 0.35357,-1.92658 0.78572,-1.92658 0.43214,0 0.78571,0.64844 0.78571,1.44098 0,0.79254 -0.35357,1.65951 -0.78571,1.92658 -0.43215,0.26708 -0.78572,-0.38136 -0.78572,-1.44098 z M 468,543.55902 c 0,-0.79254 0.40803,-1.69316 0.90674,-2.00138 0.49871,-0.30822 0.67122,0.34022 0.38337,1.44098 C 468.6795,545.33361 468,545.62877 468,543.55902 z M 424.62162,539.25 C 425.56347,535.32401 426,535.19206 426,538.83333 426,540.575 425.54143,542 424.98095,542 c -0.60496,0 -0.75097,-1.11746 -0.35933,-2.75 z m 8.99243,1.18662 c -0.32996,-0.85986 -1.0531,-1.2833 -1.60699,-0.94099 -1.2941,0.7998 -1.27963,-0.11781 0.0408,-2.58498 0.91606,-1.71167 1.23042,-1.77526 2.5,-0.50569 1.58889,1.5889 1.98927,5.59504 0.55917,5.59504 -0.49116,0 -1.16298,-0.70352 -1.49294,-1.56338 z m -4.34432,-5.5059 c -0.08,-1.0619 0.2766,-1.93072 0.79242,-1.93072 1.13837,0 1.25425,2.68642 0.14544,3.3717 -0.43583,0.26936 -0.85787,-0.37908 -0.93786,-1.44098 z m -29.19944,-0.6217 C 400.10894,533.86406 400.52731,532.6 401,531.5 c 0.82859,-1.92824 0.86195,-1.92138 0.92971,0.19098 0.0387,1.20504 -0.37971,2.4691 -0.92971,2.80902 -0.55,0.33992 -0.96837,0.25398 -0.92971,-0.19098 z M 408.6103,523.5 c 0.82247,-3.67693 1.39483,-4.47511 1.37439,-1.91667 -0.008,1.05417 -0.47209,2.59167 -1.03038,3.41667 -0.74131,1.09546 -0.83408,0.69092 -0.34401,-1.5 z m -7.04601,-0.20687 c -0.54268,-1.4252 -0.42782,-1.54006 0.5598,-0.5598 0.68342,0.67834 0.99067,1.48524 0.68278,1.79313 -0.30789,0.30789 -0.86705,-0.24711 -1.24258,-1.23333 z M 15.157895,519 c 0,-1.375 0.226973,-1.9375 0.504386,-1.25 0.277412,0.6875 0.277412,1.8125 0,2.5 -0.277413,0.6875 -0.504386,0.125 -0.504386,-1.25 z m 386.300985,-0.0665 c -0.36253,-0.58659 -0.44468,-1.281 -0.18255,-1.54313 0.26212,-0.26213 0.74306,0.21781 1.06875,1.06653 0.67618,1.76211 0.0999,2.07206 -0.8862,0.4766 z M 15.157895,511 c 0,-1.375 0.226973,-1.9375 0.504386,-1.25 0.277412,0.6875 0.277412,1.8125 0,2.5 -0.277413,0.6875 -0.504386,0.125 -0.504386,-1.25 z M 477.98469,461.25 c -0.0129,-1.46777 -0.16535,-1.51276 -0.94563,-0.27896 -0.51167,0.80907 -1.16058,1.24078 -1.44201,0.95935 -0.28143,-0.28143 0.41657,-1.8434 1.55111,-3.47104 1.13453,-1.62764 1.80445,-2.17185 1.4887,-1.20935 -0.37164,1.13287 -0.0562,1.75 0.89452,1.75 0.80774,0 1.46862,0.9 1.46862,2 0,1.11111 -0.66667,2 -1.5,2 -0.825,0 -1.50689,-0.7875 -1.51531,-1.75 z m 7.57108,0.84024 C 484.79604,460.86097 485.9667,458 487.22943,458 c 0.59888,0 0.51968,0.59738 -0.19308,1.4562 -0.66469,0.8009 -0.91823,1.9259 -0.56342,2.5 0.35481,0.57409 0.4201,1.0438 0.1451,1.0438 -0.275,0 -0.75301,-0.40939 -1.06226,-0.90976 z m 5.08371,0.21591 C 489.5133,461.17996 489.95359,460 491.5,460 c 0.825,0 1.5,0.42344 1.5,0.94098 0,1.26098 -1.56159,2.1641 -2.36052,1.36517 z M 504,461.5 c 0,-0.825 0.675,-1.5 1.5,-1.5 0.825,0 1.5,0.675 1.5,1.5 0,0.825 -0.675,1.5 -1.5,1.5 -0.825,0 -1.5,-0.675 -1.5,-1.5 z m -34.75,-0.18933 c 2.03392,-0.53152 2.3088,-1.96543 0.5,-2.60826 -0.6875,-0.24433 -0.0441,-0.29491 1.42969,-0.11239 1.47383,0.18252 2.9008,-0.21307 3.17105,-0.87908 0.2801,-0.69028 0.52531,-0.47363 0.57031,0.50388 0.0885,1.92315 -2.84794,3.84534 -5.60531,3.66918 -1.67239,-0.10684 -1.67758,-0.15211 -0.0657,-0.57333 z M 494,461.11803 c 0,-0.55 0.45,-1.27811 1,-1.61803 0.55,-0.33992 1,-0.16803 1,0.38197 0,0.55 -0.45,1.27811 -1,1.61803 -0.55,0.33992 -1,0.16803 -1,-0.38197 z M 498,461 c 0,-0.55 1.125,-1 2.5,-1 1.375,0 2.5,0.45 2.5,1 0,0.55 -1.125,1 -2.5,1 -1.375,0 -2.5,-0.45 -2.5,-1 z m -52.48786,-3.65499 c 1.22979,-1.22979 1.56929,-3.02858 1.32142,-7.00137 -0.18346,-2.9405 0.004,-5.34575 0.41644,-5.345 0.4125,7.5e-4 0.75,1.21636 0.75,2.70136 0,2.1 0.26667,2.43333 1.2,1.5 1.76299,-1.76299 2.8,-1.46671 2.8,0.8 0,1.33333 -0.66667,2 -2,2 -1.30491,0 -2,0.66667 -2,1.91821 0,3.02302 -1.0851,5.08179 -2.67842,5.08179 -1.20916,0 -1.17594,-0.2885 0.19056,-1.65499 z m 10.10191,-2.90839 c -0.32996,-0.85986 -1.09027,-1.26033 -1.68958,-0.88994 -0.59932,0.3704 -0.36594,-0.72608 0.51861,-2.43662 0.88456,-1.71053 1.84828,-3.11006 2.14162,-3.11006 0.29333,0 0.25571,0.44921 -0.0836,0.99825 -0.33932,0.54903 0.0841,1.99916 0.94099,3.2225 0.85686,1.22335 1.55793,2.57413 1.55793,3.00176 0,1.43856 -2.77995,0.79333 -3.38595,-0.78589 z M 478,448.03138 c 0,-0.53273 -0.68359,-0.70629 -1.5191,-0.38568 -1.2639,0.48501 -1.2219,0.0606 0.25,-2.52612 1.16093,-2.04024 1.88025,-2.5952 2.09242,-1.61432 0.17783,0.82211 0.74033,1.49474 1.25,1.49474 0.50968,0 0.92668,0.9 0.92668,2 0,1.11111 -0.66667,2 -1.5,2 -0.825,0 -1.5,-0.43588 -1.5,-0.96862 z m 6.17668,-2.69851 c 0.17782,-0.91693 0.99832,-1.85119 1.82332,-2.07613 1.33333,-0.36356 1.33333,-0.28943 0,0.66713 -1.33333,0.95656 -1.33333,1.18554 0,2.06082 1.27225,0.83517 1.22316,0.98701 -0.32332,1 -1.16867,0.01 -1.70724,-0.58327 -1.5,-1.65182 z m 4.51717,1.02765 C 487.54044,445.20711 489.06823,444 491.68146,444 c 2.16522,0 2.37005,0.23301 1.31854,1.5 -1.30143,1.56813 -3.21595,1.95072 -4.30615,0.86052 z M 498,446.1119 c -4.25923,-0.76036 -2.90011,-1.91639 2.25,-1.91379 2.54672,0.001 3.75,0.45112 3.75,1.40189 0,1.47568 -0.40683,1.51039 -6,0.5119 z m -25.28571,-0.73095 C 472.13181,444.79848 474.30099,442 475.33495,442 c 0.2628,0 0.24246,0.9 -0.0452,2 -0.52885,2.02233 -1.4436,2.51282 -2.57546,1.38095 z m -50.44346,-2.98512 c 0.33229,-0.33229 1.19479,-0.36781 1.91667,-0.0789 0.79773,0.31922 0.56078,0.55618 -0.60417,0.60416 -1.05416,0.0434 -1.64479,-0.19293 -1.3125,-0.52522 z M 447.5,438.55 c 0,-5.19785 1.42316,-4.59768 1.84657,0.77872 0.16671,2.11687 -0.163,3.67128 -0.77872,3.67128 -0.59716,0 -1.06785,-1.96151 -1.06785,-4.45 z m 8.5318,3.7 c 0.0175,-0.4125 0.6925,-1.62351 1.5,-2.69113 1.40809,-1.86166 1.4682,-1.83095 1.4682,0.75 0,1.72545 -0.53826,2.69113 -1.5,2.69113 -0.825,0 -1.48569,-0.3375 -1.4682,-0.75 z m -1.96093,-1.75 c 0,-0.55 0.64311,-2.125 1.42913,-3.5 0.78602,-1.375 1.42913,-2.05 1.42913,-1.5 0,0.55 -0.64311,2.125 -1.42913,3.5 -0.78602,1.375 -1.42913,2.05 -1.42913,1.5 z m 52.12945,-1.32839 c 0.191,-1.00788 1.48195,-1.80464 3.25126,-2.00666 2.49126,-0.28444 2.74934,-0.11197 1.70869,1.14194 -1.90898,2.30018 -5.34551,2.89931 -4.95995,0.86472 z M 485,438.55902 c 0,-0.79254 0.35357,-1.65951 0.78571,-1.92658 0.43215,-0.26708 0.78572,0.38136 0.78572,1.44098 0,1.05962 -0.35357,1.92658 -0.78572,1.92658 C 485.35357,440 485,439.35156 485,438.55902 z m 4.66667,0.77431 C 488.21711,437.88378 489.14727,437 492.12244,437 c 2.66213,0 2.93892,0.22113 1.87756,1.5 -1.31346,1.58262 -3.21782,1.94885 -4.33333,0.83333 z m 8.5685,-0.041 C 494.89716,438.65074 496.57061,437 500.55902,437 502.951,437 504,437.45728 504,438.5 c 0,1.47599 -1.28733,1.65292 -5.76483,0.79232 z M 514,438.5 c 0,-0.825 0.45,-1.5 1,-1.5 0.55,0 1,0.675 1,1.5 0,0.825 -0.45,1.5 -1,1.5 -0.55,0 -1,-0.675 -1,-1.5 z m 3,0.11803 c 0,-0.825 0.45,-1.77811 1,-2.11803 0.55,-0.33992 1,0.057 1,0.88197 0,0.825 -0.45,1.77811 -1,2.11803 -0.55,0.33992 -1,-0.057 -1,-0.88197 z m 3,-0.23074 c 0,-0.68564 1.44934,-1.18729 3.43024,-1.18729 2.53808,0 3.28977,0.36607 2.89013,1.40751 C 525.66593,440.31296 520,440.11554 520,438.38729 z M 451.15789,437 c 0,-1.375 0.22698,-1.9375 0.50439,-1.25 0.27741,0.6875 0.27741,1.8125 0,2.5 -0.27741,0.6875 -0.50439,0.125 -0.50439,-1.25 z m -109,-2 c 0,-1.375 0.22698,-1.9375 0.50439,-1.25 0.27741,0.6875 0.27741,1.8125 0,2.5 -0.27741,0.6875 -0.50439,0.125 -0.50439,-1.25 z M 400.25,432.9199 c 1.21823,-0.70955 1.75,-2.27029 1.75,-5.13626 0,-2.26433 0.29366,-3.82331 0.65258,-3.46439 2.04731,2.04731 -0.3585,9.72225 -3.02502,9.65034 -0.62016,-0.0167 -0.34006,-0.48908 0.62244,-1.04969 z m 23.73994,-0.40778 c 1.32026,-1.59081 1.63901,-12.87971 0.47262,-16.73827 -0.46532,-1.53935 -0.35793,-1.95083 0.33246,-1.27385 1.051,1.03058 1.65744,7.78538 1.36913,15.25 -0.12306,3.18621 -0.57025,4.25 -1.78659,4.25 -1.32292,0 -1.39448,-0.27468 -0.38762,-1.48788 z M 411.66784,429.75 c 0.44561,-2.08619 0.37617,-2.12259 -0.95386,-0.5 -2.27772,2.77875 -2.91276,2.03508 -1.15869,-1.35691 1.56815,-3.03248 1.64063,-3.05838 3.02547,-1.08125 0.78036,1.11411 1.14578,2.73722 0.81205,3.60691 -0.92393,2.40771 -2.27059,1.88563 -1.72497,-0.66875 z m -4.58889,-2.16667 c -0.0434,-1.05416 0.19293,-1.64479 0.52522,-1.3125 0.33229,0.33229 0.36781,1.19479 0.0789,1.91667 -0.31922,0.79773 -0.55618,0.56078 -0.60416,-0.60417 z m 35.57273,-1.24501 c 1.09395,-3.06231 1.4378,-3.40147 2.66742,-2.63106 1.20885,0.75739 1.74081,0.87563 5.1309,1.14043 3.11497,0.24331 0.52424,1.86938 -4.20251,2.63771 -3.84397,0.62484 -4.18942,0.51464 -3.59581,-1.14708 z m 11.91308,0.76646 c -0.3043,-0.49236 0.11914,-1.15324 0.94098,-1.46861 0.90766,-0.3483 1.49426,0.003 1.49426,0.89521 0,1.61739 -1.56262,1.98533 -2.43524,0.5734 z M 459,425.92056 c 0,-1.21354 0.65371,-1.51825 2.5,-1.16531 1.375,0.26285 2.5,1.0954 2.5,1.85013 0,0.85221 -0.94739,1.29381 -2.5,1.16531 -1.56845,-0.12981 -2.5,-0.8192 -2.5,-1.85013 z m 9.22917,0.89194 C 468.84724,424.95828 471,424.65074 471,426.41667 471,427.2875 470.2875,428 469.41667,428 c -0.87084,0 -1.40521,-0.53438 -1.1875,-1.1875 z m -35.89911,-1.23024 C 432.69853,424.62205 433,423.19823 433,422.41821 433,421.6382 433.3876,421 433.86133,421 c 1.15913,0 0.1744,4.85988 -1.15067,5.67882 -0.66128,0.40869 -0.8023,0.002 -0.3806,-1.09656 z m 33.74889,10e-4 c -0.0434,-1.05416 0.19293,-1.64479 0.52522,-1.3125 0.33229,0.33229 0.36781,1.19479 0.0789,1.91667 -0.31922,0.79773 -0.55618,0.56078 -0.60416,-0.60417 z M 342.19495,403.5 c -0.0204,-1.65 0.18706,-2.44606 0.46099,-1.76903 0.27392,0.67703 0.29059,2.02703 0.0371,3 -0.25354,0.97297 -0.47766,0.41903 -0.49804,-1.23097 z m 0.15446,-14.5 c 0,-4.675 0.17226,-6.5875 0.3828,-4.25 0.21053,2.3375 0.21053,6.1625 0,8.5 -0.21054,2.3375 -0.3828,0.425 -0.3828,-4.25 z M 13.078947,376.58333 c -0.04342,-1.05416 0.192928,-1.64479 0.52522,-1.3125 0.332291,0.33229 0.367818,1.19479 0.07895,1.91667 -0.319226,0.79773 -0.556183,0.56078 -0.604167,-0.60417 z M 13,367.44098 c 0,-1.40746 0.407754,-2.30701 0.90612,-1.999 0.498366,0.30801 0.670882,1.45956 0.383369,2.55902 C 13.569942,370.75255 13,370.50503 13,367.44098 z m 291.19495,0.059 c -0.0204,-1.65 0.18706,-2.44606 0.46099,-1.76903 0.27392,0.67703 0.29059,2.02703 0.0371,3 -0.25354,0.97297 -0.47766,0.41903 -0.49804,-1.23097 z m 37.96294,-0.5 c 0,-1.375 0.22698,-1.9375 0.50439,-1.25 0.27741,0.6875 0.27741,1.8125 0,2.5 -0.27741,0.6875 -0.50439,0.125 -0.50439,-1.25 z m -291.615185,0.0691 c -0.316431,-0.512 -0.117988,-1.21356 0.440983,-1.55902 C 51.54266,365.16462 52,365.58352 52,366.44098 c 0,1.75653 -0.600055,2.01516 -1.457295,0.62812 z M 13.252183,360.5 c -0.0111,-2.2 0.184605,-3.21775 0.434897,-2.26166 0.250293,0.95609 0.259374,2.75609 0.02018,4 C 13.468068,363.48225 13.263283,362.7 13.252183,360.5 z m -0.173236,-40.91667 c -0.04342,-1.05416 0.192928,-1.64479 0.52522,-1.3125 0.332291,0.33229 0.367818,1.19479 0.07895,1.91667 -0.319226,0.79773 -0.556183,0.56078 -0.604167,-0.60417 z M 50,304 c 0,-7.88333 0.221834,-14.1115 0.492965,-13.84037 0.698384,0.69839 0.77459,26.90615 0.08026,27.60048 C 50.257949,318.07538 50,311.88333 50,304 z m 254.01531,5.75 c -0.0166,-2.98623 0.47372,-3.52394 1.28518,-1.40932 0.28296,0.73738 0.11299,1.97488 -0.3777,2.75 -0.6493,1.02567 -0.89633,0.66071 -0.90748,-1.34068 z m -51.93636,-14.16667 c -0.0434,-1.05416 0.19292,-1.64479 0.52522,-1.3125 0.33229,0.33229 0.36781,1.19479 0.0789,1.91667 -0.31922,0.79773 -0.55618,0.56078 -0.60416,-0.60417 z M 12,291.5 c 0,-0.825 0.435877,-1.5 0.968615,-1.5 0.532739,0 0.709594,0.675 0.393011,1.5 -0.316582,0.825 -0.752459,1.5 -0.968615,1.5 C 12.176855,293 12,292.325 12,291.5 z m 54.707028,-8.76925 c 0.618046,-12.57349 1.118963,-13.2088 1.214025,-1.53977 0.04342,5.33004 -0.314062,9.93388 -0.794406,10.23075 -0.485866,0.30028 -0.672042,-3.55572 -0.419619,-8.69098 z m 129.371922,-5.14742 c -0.0434,-1.05416 0.19292,-1.64479 0.52522,-1.3125 0.33229,0.33229 0.36781,1.19479 0.0789,1.91667 -0.31922,0.79773 -0.55618,0.56078 -0.60416,-0.60417 z m 109,-5 c -0.0434,-1.05416 0.19293,-1.64479 0.52522,-1.3125 0.33229,0.33229 0.36781,1.19479 0.0789,1.91667 -0.31922,0.79773 -0.55618,0.56078 -0.60416,-0.60417 z m -70,-7 c -0.0434,-1.05416 0.19292,-1.64479 0.52522,-1.3125 0.33229,0.33229 0.36781,1.19479 0.0789,1.91667 -0.31922,0.79773 -0.55618,0.56078 -0.60416,-0.60417 z M 305.15789,263 c 0,-1.375 0.22698,-1.9375 0.50439,-1.25 0.27741,0.6875 0.27741,1.8125 0,2.5 -0.27741,0.6875 -0.50439,0.125 -0.50439,-1.25 z m -109.07894,-1.41667 c -0.0434,-1.05416 0.19292,-1.64479 0.52522,-1.3125 0.33229,0.33229 0.36781,1.19479 0.0789,1.91667 -0.31922,0.79773 -0.55618,0.56078 -0.60416,-0.60417 z M 305.15789,254 c 0,-1.375 0.22698,-1.9375 0.50439,-1.25 0.27741,0.6875 0.27741,1.8125 0,2.5 -0.27741,0.6875 -0.50439,0.125 -0.50439,-1.25 z m -109.07894,-0.41667 c -0.0434,-1.05416 0.19292,-1.64479 0.52522,-1.3125 0.33229,0.33229 0.36781,1.19479 0.0789,1.91667 -0.31922,0.79773 -0.55618,0.56078 -0.60416,-0.60417 z M 305.15789,245 c 0,-1.375 0.22698,-1.9375 0.50439,-1.25 0.27741,0.6875 0.27741,1.8125 0,2.5 -0.27741,0.6875 -0.50439,0.125 -0.50439,-1.25 z m -109,-2 c 0,-1.375 0.22698,-1.9375 0.50439,-1.25 0.27741,0.6875 0.27741,1.8125 0,2.5 -0.27741,0.6875 -0.50439,0.125 -0.50439,-1.25 z m -5.13783,-4.47583 C 190.23131,237.57378 190.15544,237 190.81854,237 c 1.20855,0 2.61759,1.8972 1.9241,2.5907 -0.2517,0.2517 -1.02686,-0.22824 -1.72258,-1.06653 z M 163,237.96862 C 163,237.43588 163.675,237 164.5,237 c 0.825,0 1.5,0.17686 1.5,0.39301 0,0.21616 -0.675,0.65203 -1.5,0.96862 -0.825,0.31658 -1.5,0.13972 -1.5,-0.39301 z m 51.31349,-0.0551 c -0.64696,-0.64696 -3.94593,-0.95037 -8.15465,-0.75 -3.88748,0.18508 -6.69521,-0.0343 -6.2394,-0.48758 1.00919,-1.00353 12.96441,-1.16494 15.95604,-0.21543 1.18446,0.37593 1.89547,1.10111 1.58002,1.61152 -0.7576,1.22583 -1.8108,1.1727 -3.14201,-0.15851 z m 20.11272,0.15978 c -0.50942,-0.48353 -1.82621,-1.08294 -2.92621,-1.33204 -1.1,-0.24909 0.475,-0.45905 3.5,-0.46657 3.025,-0.008 4.825,0.21302 4,0.4901 -0.825,0.27708 -1.98321,0.88266 -2.57379,1.34572 -0.59059,0.46306 -1.49059,0.44632 -2,-0.0372 z M 251,238 c -0.79314,-0.49019 -1.11011,-1.22322 -0.70437,-1.62896 0.40574,-0.40574 1.2627,-0.21271 1.90437,0.42896 1.51091,1.51091 0.66759,2.35423 -1.2,1.2 z m 54.15789,-2 c 0,-1.375 0.22698,-1.9375 0.50439,-1.25 0.27741,0.6875 0.27741,1.8125 0,2.5 -0.27741,0.6875 -0.50439,0.125 -0.50439,-1.25 z M 175,236.60699 c 0,-0.97099 2.81735,-1.33587 4.09068,-0.52978 1.02567,0.6493 0.66071,0.89633 -1.34068,0.90748 -1.5125,0.008 -2.75,-0.16155 -2.75,-0.3777 z m 47.83812,-0.67075 c 1.47402,-0.5907 2.95231,-0.57852 4,0.033 1.26721,0.73961 0.71195,0.96213 -2.33812,0.93699 -3.49852,-0.0288 -3.70687,-0.15045 -1.66188,-0.96997 z m 19.40022,0.37668 c 0.95609,-0.25029 2.75609,-0.25937 4,-0.0202 1.24391,0.23919 0.46166,0.44398 -1.73834,0.45508 -2.2,0.0111 -3.21775,-0.18461 -2.26166,-0.4349 z m -59.16805,-6.0039 C 183.10894,229.86406 183.52731,228.6 184,227.5 c 0.82859,-1.92824 0.86195,-1.92138 0.92971,0.19098 0.0387,1.20504 -0.37971,2.4691 -0.92971,2.80902 -0.55,0.33992 -0.96837,0.25398 -0.92971,-0.19098 z m -2.52223,-3.40195 c 0.87968,-1.70111 1.80808,-2.88426 2.06312,-2.62923 0.68107,0.68107 -1.78335,5.72216 -2.79738,5.72216 -0.47584,0 -0.14542,-1.39182 0.73426,-3.09293 z M 174.75525,226.5 c 0.26285,-1.375 0.65044,-2.5 0.86133,-2.5 0.21088,0 0.38342,1.125 0.38342,2.5 0,1.375 -0.3876,2.5 -0.86133,2.5 -0.47373,0 -0.64627,-1.125 -0.38342,-2.5 z M 208,226.5 c 0,-1.375 0.3876,-2.5 0.86133,-2.5 0.47373,0 0.64627,1.125 0.38342,2.5 -0.26285,1.375 -0.65044,2.5 -0.86133,2.5 C 208.17254,229 208,227.875 208,226.5 z m 18.01531,0.25 C 226.00689,225.2375 226.45,224 227,224 c 1.26441,0 1.26441,2.04347 0,4 -0.75538,1.16887 -0.97275,0.89294 -0.98469,-1.25 z m 18.05498,0 C 244.03163,225.2375 244.45,224 245,224 c 1.17371,0 1.17371,0.76862 0,3.5 -0.76156,1.77225 -0.86743,1.68684 -0.92971,-0.75 z m 61.0876,0.25 c 0,-1.375 0.22698,-1.9375 0.50439,-1.25 0.27741,0.6875 0.27741,1.8125 0,2.5 -0.27741,0.6875 -0.50439,0.125 -0.50439,-1.25 z M 178,225.5 c 0,-0.825 0.43588,-1.5 0.96862,-1.5 0.53273,0 0.70959,0.675 0.39301,1.5 -0.31659,0.825 -0.75246,1.5 -0.96862,1.5 C 178.17686,227 178,226.325 178,225.5 z m 18.07895,-1.91667 c -0.0434,-1.05416 0.19292,-1.64479 0.52522,-1.3125 0.33229,0.33229 0.36781,1.19479 0.0789,1.91667 -0.31922,0.79773 -0.55618,0.56078 -0.60416,-0.60417 z M 253.15789,223 c 0,-1.375 0.22698,-1.9375 0.50439,-1.25 0.27741,0.6875 0.27741,1.8125 0,2.5 -0.27741,0.6875 -0.50439,0.125 -0.50439,-1.25 z m 51.92106,-5.41667 c -0.0434,-1.05416 0.19293,-1.64479 0.52522,-1.3125 0.33229,0.33229 0.36781,1.19479 0.0789,1.91667 -0.31922,0.79773 -0.55618,0.56078 -0.60416,-0.60417 z M 192.19495,214.5 c -0.0204,-1.65 0.18706,-2.44606 0.46099,-1.76903 0.27392,0.67703 0.29059,2.02703 0.0371,3 -0.25354,0.97297 -0.47766,0.41903 -0.49804,-1.23097 z m 3.95488,-1.66667 c -0.0824,-2.01666 -0.71233,-3.89364 -1.39983,-4.17105 -0.97906,-0.39506 -0.97226,-0.5215 0.0314,-0.58333 1.69875,-0.10466 2.4655,2.09989 1.94303,5.58658 -0.36535,2.43813 -0.4457,2.32177 -0.57458,-0.8322 z M 253.19495,212.5 c -0.0204,-1.65 0.18706,-2.44606 0.46099,-1.76903 0.27392,0.67703 0.29059,2.02703 0.0371,3 C 253.4395,214.70394 253.21538,214.15 253.195,212.5 z M 158,209.76198 c 0,-0.8514 0.73941,-1.83174 1.64313,-2.17853 2.46242,-0.94492 2.61737,-0.12918 0.363,1.911 C 158.31047,211.029 158,211.07041 158,209.76198 z m 11.27083,-1.36615 c 0.33229,-0.33229 1.19479,-0.36781 1.91667,-0.0789 0.79773,0.31922 0.56078,0.55618 -0.60417,0.60416 -1.05416,0.0434 -1.64479,-0.19293 -1.3125,-0.52522 z M 178.5,208.00972 c -1.24462,-0.52879 0.0773,-0.63817 3.5,-0.2896 3.025,0.30806 5.6875,0.72205 5.91667,0.91999 0.86085,0.74355 -7.50022,0.18382 -9.41667,-0.63039 z m -2.5,-4.0411 c 0,-0.56727 0.675,-1.29041 1.5,-1.60699 0.825,-0.31659 1.5,-1.22902 1.5,-2.02764 0,-0.87134 -0.49989,-1.1698 -1.25,-0.7463 -1,0.56457 -1,0.43638 0,-0.64099 2.05457,-2.21352 3.47701,0.16577 2.0002,3.3457 -1.21559,2.61748 -3.7502,3.75036 -3.7502,1.67622 z m 16.07895,-1.38529 c -0.0434,-1.05416 0.19292,-1.64479 0.52522,-1.3125 0.33229,0.33229 0.36781,1.19479 0.0789,1.91667 -0.31922,0.79773 -0.55618,0.56078 -0.60416,-0.60417 z m 61.116,-1.08333 c -0.0204,-1.65 0.18706,-2.44606 0.46099,-1.76903 0.27392,0.67703 0.29059,2.02703 0.0371,3 -0.25354,0.97297 -0.47766,0.41903 -0.49804,-1.23097 z m 51.884,-0.91667 c -0.0434,-1.05416 0.19293,-1.64479 0.52522,-1.3125 0.33229,0.33229 0.36781,1.19479 0.0789,1.91667 -0.31922,0.79773 -0.55618,0.56078 -0.60416,-0.60417 z M 251.5573,193.41824 C 249.93521,192.23214 249.88489,192 251.24985,192 c 0.89767,0 1.92873,0.47994 2.29127,1.06653 1.05993,1.71501 0.11074,1.88329 -1.98382,0.35171 z M 199,193.05902 C 199,192.47656 199.45,192 200,192 c 0.55,0 1,0.19844 1,0.44098 0,0.24254 -0.45,0.7191 -1,1.05902 -0.55,0.33992 -1,0.14148 -1,-0.44098 z m -2.92105,-2.47569 c -0.0434,-1.05416 0.19292,-1.64479 0.52522,-1.3125 0.33229,0.33229 0.36781,1.19479 0.0789,1.91667 -0.31922,0.79773 -0.55618,0.56078 -0.60416,-0.60417 z M 223,191.10699 c 0,-0.49116 0.61938,-1.13069 1.37639,-1.42118 0.87411,-0.33543 1.1965,-1.46926 0.88343,-3.10699 -0.27114,-1.41835 -0.0378,-2.57882 0.51857,-2.57882 0.55635,0 1.1832,1.8 1.393,4 0.34398,3.60695 0.15778,4 -1.89496,4 C 224.02439,192 223,191.59814 223,191.10699 z M 196.15789,181 c 0,-1.375 0.22698,-1.9375 0.50439,-1.25 0.27741,0.6875 0.27741,1.8125 0,2.5 -0.27741,0.6875 -0.50439,0.125 -0.50439,-1.25 z m -0.0789,-24.41667 c -0.0434,-1.05416 0.19292,-1.64479 0.52522,-1.3125 0.33229,0.33229 0.36781,1.19479 0.0789,1.91667 -0.31922,0.79773 -0.55618,0.56078 -0.60416,-0.60417 z M 200,144.5 c 0,-0.825 -0.45,-1.5 -1,-1.5 -0.55,0 -1,0.525 -1,1.16667 0,0.64166 -0.26022,0.90645 -0.57826,0.5884 -0.31804,-0.31804 0.1606,-1.85554 1.06365,-3.41666 0.90306,-1.56113 1.4024,-2.05091 1.10965,-1.08841 -0.33879,1.11389 0.002,1.75 0.93634,1.75 0.80774,0 1.46862,0.9 1.46862,2 0,1.1 -0.45,2 -1,2 -0.55,0 -1,-0.675 -1,-1.5 z m 87.07895,-13.91667 c -0.0434,-1.05416 0.19293,-1.64479 0.52522,-1.3125 0.33229,0.33229 0.36781,1.19479 0.0789,1.91667 -0.31922,0.79773 -0.55618,0.56078 -0.60416,-0.60417 z M 306.15789,130 c 0,-1.375 0.22698,-1.9375 0.50439,-1.25 0.27741,0.6875 0.27741,1.8125 0,2.5 -0.27741,0.6875 -0.50439,0.125 -0.50439,-1.25 z m -20.00721,-10.25 c -0.96314,-0.96366 -11.75319,-1.25 -47.10377,-1.25 -25.21994,0 -45.64618,-0.3375 -45.39166,-0.75 0.25453,-0.4125 10.78623,-0.75 23.40377,-0.75 C 231.68634,117 240,116.63761 240,116 c 0,-0.55 0.675,-1 1.5,-1 1.76765,0 2.03351,-2.6555 0.32295,-3.22568 -1.65787,-0.55263 -0.0563,-2.7775 1.98607,-2.75901 0.96299,0.009 1.26047,0.33161 0.69098,0.75 -0.55,0.40408 -1.04792,2.19719 -1.10648,3.98469 l -0.10648,3.25 21.29746,0 c 14.0258,0 21.52287,0.36471 21.95763,1.06817 0.3631,0.5875 1.26674,0.83542 2.00809,0.55093 0.86729,-0.33281 1.14965,-5.4e-4 0.79186,0.93183 -0.68224,1.7779 -1.55878,1.83257 -3.1914,0.19907 z m 18.40662,-0.33176 c -1.06676,-0.78003 -1.51605,-1.41135 -0.99843,-1.40293 1.38226,0.0225 3.96096,1.7982 3.4106,2.34856 -0.25994,0.25993 -1.34542,-0.1656 -2.41217,-0.94563 z m -9.54386,-1.42655 c 0.60067,-0.37123 1.01509,-1.08373 0.92093,-1.58333 -0.45362,-2.40671 0.16822,-6.40836 0.99582,-6.40836 0.55764,0 0.58634,1.19896 0.0717,2.9935 -0.69627,2.42773 -0.497,3.24672 1.05436,4.33333 1.77908,1.24612 1.70137,1.33984 -1.11102,1.33984 -1.66314,0 -2.53244,-0.30374 -1.93177,-0.67498 z"
     id="path2987"
     style="fill:#000000" />
  <path
     d="m 13.270738,290.0486 329.460502,1.15397 -1.73097,401.58408 -325.998566,-4.03892 z"
     id="path2989"
     style="fill:none;stroke:#000000;stroke-width:1px;stroke-linecap:butt;stroke-linejoin:miter;stroke-opacity:1" />
  <path
     d="m 12.69375,307.93524 328.88351,1.15398"
     id="path2991"
     style="fill:none;stroke:#000000;stroke-width:1px;stroke-linecap:butt;stroke-linejoin:miter;stroke-opacity:1" />
  <path
     d="m 13.270738,365.05712 328.306522,1.15397"
     id="path2993"
     style="fill:none;stroke:#000000;stroke-width:1px;stroke-linecap:butt;stroke-linejoin:miter;stroke-opacity:1" />
  <path
     d="M 13.270738,449.29746 341.00027,452.1824"
     id="path2995"
     style="fill:none;stroke:#000000;stroke-width:1px;stroke-linecap:butt;stroke-linejoin:miter;stroke-opacity:1" />
  <path
     d="m 14.424715,531.80683 326.575555,2.30795"
     id="path2997"
     style="fill:none;stroke:#000000;stroke-width:1px;stroke-linecap:butt;stroke-linejoin:miter;stroke-opacity:1" />
  <path
     d="m 14.424715,615.47018 326.575555,2.30795"
     id="path2999"
     style="fill:none;stroke:#000000;stroke-width:1px;stroke-linecap:butt;stroke-linejoin:miter;stroke-opacity:1" />
  <path
     d="m 15.001704,625.27898 326.575556,2.30796"
     id="path3001"
     style="fill:none;stroke:#000000;stroke-width:1px;stroke-linecap:butt;stroke-linejoin:miter;stroke-opacity:1" />
  <path
     d="M 53.082953,688.74773 50.19801,290.0486"
     id="path3003"
     style="fill:none;stroke:#000000;stroke-width:1px;stroke-linecap:butt;stroke-linejoin:miter;stroke-opacity:1" />
  <path
     d="m 177.71249,290.62559 -0.57698,400.4301"
     id="path3005"
     style="fill:none;stroke:#000000;stroke-width:1px;stroke-linecap:butt;stroke-linejoin:miter;stroke-opacity:1" />
  <path
     d="m 303.49601,692.20966 1.15398,-401.58407"
     id="path3007"
     style="fill:none;stroke:#000000;stroke-width:1px;stroke-linecap:butt;stroke-linejoin:miter;stroke-opacity:1" />
  <path
     d="m 70.392612,412.37018 -0.576989,19.61762 94.049147,0 -0.57699,-19.61762 z"
     id="path3009"
     style="fill:none;stroke:#000000;stroke-width:1px;stroke-linecap:butt;stroke-linejoin:miter;stroke-opacity:1" />
  <path
     d="m 66.353691,422.17899 225.602549,1.73097"
     id="path3011"
     style="fill:none;stroke:#000000;stroke-width:1px;stroke-linecap:butt;stroke-linejoin:miter;stroke-opacity:1" />
  <path
     d="m 286.18636,413.52416 -0.57699,20.1946 -94.04915,-0.57699 0.57699,-20.77159 z"
     id="path3013"
     style="fill:none;stroke:#000000;stroke-width:1px;stroke-linecap:butt;stroke-linejoin:miter;stroke-opacity:1" />
  <path
     d="m 90.298719,440.93112 173.962071,0.28849 0,0"
     id="path3015"
     style="fill:none;stroke:#000000;stroke-width:1px;stroke-linecap:butt;stroke-linejoin:miter;stroke-opacity:1" />
  <path
     d="m 90.587213,443.52757 174.539057,0.57699"
     id="path3017"
     style="fill:none;stroke:#000000;stroke-width:1px;stroke-linecap:butt;stroke-linejoin:miter;stroke-opacity:1" />
  <path
     d="M 90.587213,457.0868 253.5865,457.95228"
     id="path3019"
     style="fill:none;stroke:#000000;stroke-width:1px;stroke-linecap:butt;stroke-linejoin:miter;stroke-opacity:1" />
  <path
     d="m 90.875708,460.26024 162.999282,0.28849"
     id="path3021"
     style="fill:none;stroke:#000000;stroke-width:1px;stroke-linecap:butt;stroke-linejoin:miter;stroke-opacity:1" />
  <path
     d="m 144.82414,514.20868 65.77671,1.15397"
     id="path3023"
     style="fill:none;stroke:#000000;stroke-width:1px;stroke-linecap:butt;stroke-linejoin:miter;stroke-opacity:1" />
  <path
     d="m 205.98494,511.32373 0,21.92557"
     id="path3025"
     style="fill:none;stroke:#000000;stroke-width:1px;stroke-linecap:butt;stroke-linejoin:miter;stroke-opacity:1" />
  <path
     d="m 149.72855,510.74674 -0.2885,22.21407"
     id="path3027"
     style="fill:none;stroke:#000000;stroke-width:1px;stroke-linecap:butt;stroke-linejoin:miter;stroke-opacity:1" />
  <path
     d="m 135.88082,546.23154 83.66335,0.57699 0,34.33083 -84.24034,-0.57699 z"
     id="path3029"
     style="fill:none;stroke:#000000;stroke-width:1px;stroke-linecap:butt;stroke-linejoin:miter;stroke-opacity:1" />
  <path
     d="m 132.13039,577.10043 90.87571,0.86549"
     id="path3031"
     style="fill:none;stroke:#000000;stroke-width:1px;stroke-linecap:butt;stroke-linejoin:miter;stroke-opacity:1" />
  <path
     d="m 159.24886,451.31692 -0.2885,-243.4892"
     id="path3033"
     style="fill:none;stroke:#000000;stroke-width:1;stroke-linecap:butt;stroke-linejoin:miter;stroke-miterlimit:4;stroke-opacity:1;stroke-dasharray:4, 4;stroke-dashoffset:0" />
  <path
     d="m 163.86477,236.96564 -0.2885,176.55852"
     id="path3035"
     style="fill:none;stroke:#000000;stroke-width:1;stroke-linecap:butt;stroke-linejoin:miter;stroke-miterlimit:4;stroke-opacity:1;stroke-dasharray:4, 4;stroke-dashoffset:0" />
  <path
     d="m 192.13721,412.37018 -0.28849,-174.82755 0,-119.14815"
     id="path3037"
     style="fill:none;stroke:#000000;stroke-width:1;stroke-linecap:butt;stroke-linejoin:miter;stroke-miterlimit:4;stroke-opacity:1;stroke-dasharray:4, 4;stroke-dashoffset:0" />
  <path
     d="m 196.46463,150.70584 0.28849,310.99687"
     id="path3039"
     style="fill:none;stroke:#000000;stroke-width:1;stroke-linecap:butt;stroke-linejoin:miter;stroke-miterlimit:4;stroke-opacity:1;stroke-dasharray:4, 4;stroke-dashoffset:0" />
  <path
     d="m 199.06107,151.28283 0,299.4571"
     id="path3041"
     style="fill:none;stroke:#000000;stroke-width:1;stroke-linecap:butt;stroke-linejoin:miter;stroke-miterlimit:4;stroke-opacity:1;stroke-dasharray:4, 4;stroke-dashoffset:0" />
  <path
     d="m 215.79374,443.81606 0.57699,-205.98493"
     id="path3043"
     style="fill:none;stroke:#000000;stroke-width:1;stroke-linecap:butt;stroke-linejoin:miter;stroke-miterlimit:4;stroke-opacity:1;stroke-dasharray:4, 4;stroke-dashoffset:0" />
  <path
     d="m 235.69985,237.83113 -1.44247,206.56192"
     id="path3045"
     style="fill:none;stroke:#000000;stroke-width:1;stroke-linecap:butt;stroke-linejoin:miter;stroke-miterlimit:4;stroke-opacity:1;stroke-dasharray:4, 4;stroke-dashoffset:0" />
  <path
     d="m 253.298,460.54873 0.57699,-265.70326"
     id="path3047"
     style="fill:none;stroke:#000000;stroke-width:1;stroke-linecap:butt;stroke-linejoin:miter;stroke-miterlimit:4;stroke-opacity:1;stroke-dasharray:4, 4;stroke-dashoffset:0" />
  <path
     d="m 287.91732,120.70244 -1.44247,293.6872"
     id="path3049"
     style="fill:none;stroke:#000000;stroke-width:1;stroke-linecap:butt;stroke-linejoin:miter;stroke-miterlimit:4;stroke-opacity:1;stroke-dasharray:4, 4;stroke-dashoffset:0" />
  <path
     d="m 305.22698,290.91408 1.44247,-169.92315"
     id="path3051"
     style="fill:none;stroke:#000000;stroke-width:1;stroke-linecap:butt;stroke-linejoin:miter;stroke-miterlimit:4;stroke-opacity:1;stroke-dasharray:4, 4;stroke-dashoffset:0" />
  <path
     d="m 219.25568,581.13936 0.28849,187.5213"
     id="path3053"
     style="fill:none;stroke:#000000;stroke-width:1;stroke-linecap:butt;stroke-linejoin:miter;stroke-miterlimit:4;stroke-opacity:1;stroke-dasharray:4, 4;stroke-dashoffset:0" />
  <path
     d="m 205.69644,533.53779 0.2885,236.85383"
     id="path3055"
     style="fill:none;stroke:#000000;stroke-width:1;stroke-linecap:butt;stroke-linejoin:miter;stroke-miterlimit:4;stroke-opacity:1;stroke-dasharray:4, 4;stroke-dashoffset:0" />
  <path
     d="m 200.50355,761.4483 0.28849,-214.92826"
     id="path3057"
     style="fill:none;stroke:#000000;stroke-width:1;stroke-linecap:butt;stroke-linejoin:miter;stroke-miterlimit:4;stroke-opacity:1;stroke-dasharray:4, 4;stroke-dashoffset:0" />
  <path
     d="M 182.90539,547.38552 181.17443,725.9635"
     id="path3059"
     style="fill:none;stroke:#000000;stroke-width:1;stroke-linecap:butt;stroke-linejoin:miter;stroke-miterlimit:4;stroke-opacity:1;stroke-dasharray:4, 4;stroke-dashoffset:0" />
  <path
     d="m 173.67357,725.9635 1.15398,-178.86647"
     id="path3061"
     style="fill:none;stroke:#000000;stroke-width:1;stroke-linecap:butt;stroke-linejoin:miter;stroke-miterlimit:4;stroke-opacity:1;stroke-dasharray:4, 4;stroke-dashoffset:0" />
  <path
     d="m 154.05596,546.23154 0.2885,213.77429"
     id="path3063"
     style="fill:none;stroke:#000000;stroke-width:1;stroke-linecap:butt;stroke-linejoin:miter;stroke-miterlimit:4;stroke-opacity:1;stroke-dasharray:4, 4;stroke-dashoffset:0" />
  <path
     d="m 149.15156,770.10313 0.28849,-236.56534"
     id="path3065"
     style="fill:none;stroke:#000000;stroke-width:1;stroke-linecap:butt;stroke-linejoin:miter;stroke-miterlimit:4;stroke-opacity:1;stroke-dasharray:4, 4;stroke-dashoffset:0" />
  <path
     d="m 135.30383,580.56237 0,190.11775"
     id="path3067"
     style="fill:none;stroke:#000000;stroke-width:1;stroke-linecap:butt;stroke-linejoin:miter;stroke-miterlimit:4;stroke-opacity:1;stroke-dasharray:4, 4;stroke-dashoffset:0" />
  <path
     d="m 210.60085,515.07416 190.69474,2.01946"
     id="path3069"
     style="fill:none;stroke:#000000;stroke-width:1;stroke-linecap:butt;stroke-linejoin:miter;stroke-miterlimit:4;stroke-opacity:1;stroke-dasharray:4, 4;stroke-dashoffset:0" />
  <path
     d="m 147.99758,540.17316 299.45709,1.73097"
     id="path3071"
     style="fill:none;stroke:#000000;stroke-width:1;stroke-linecap:butt;stroke-linejoin:miter;stroke-miterlimit:4;stroke-opacity:1;stroke-dasharray:4, 4;stroke-dashoffset:0" />
  <path
     d="m 342.15425,534.11478 82.22088,0.86549"
     id="path3073"
     style="fill:none;stroke:#000000;stroke-width:1;stroke-linecap:butt;stroke-linejoin:miter;stroke-miterlimit:4;stroke-opacity:1;stroke-dasharray:4, 4;stroke-dashoffset:0" />
  <path
     d="m 220.40965,546.52004 251.90909,2.88494"
     id="path3075"
     style="fill:none;stroke:#000000;stroke-width:1.04934108;stroke-linecap:butt;stroke-linejoin:miter;stroke-miterlimit:4;stroke-opacity:1;stroke-dasharray:4.19736433, 4.19736433;stroke-dashoffset:0" />
  <path
     d="m 132.13039,549.69348 340.42329,2.30795"
     id="path3077"
     style="fill:none;stroke:#000000;stroke-width:1;stroke-linecap:butt;stroke-linejoin:miter;stroke-miterlimit:4;stroke-opacity:1;stroke-dasharray:4, 4;stroke-dashoffset:0" />
  <path
     d="m 225.89104,558.92529 222.71761,1.73097"
     id="path3079"
     style="fill:none;stroke:#000000;stroke-width:1;stroke-linecap:butt;stroke-linejoin:miter;stroke-miterlimit:4;stroke-opacity:1;stroke-dasharray:4, 4;stroke-dashoffset:0" />
  <path
     d="m 223.2946,577.67742 201.08053,1.44247"
     id="path3081"
     style="fill:none;stroke:#000000;stroke-width:1;stroke-linecap:butt;stroke-linejoin:miter;stroke-miterlimit:4;stroke-opacity:1;stroke-dasharray:4, 4;stroke-dashoffset:0" />
  <path
     d="m 220.12116,581.42785 203.96548,0.86548"
     id="path3083"
     style="fill:none;stroke:#000000;stroke-width:1;stroke-linecap:butt;stroke-linejoin:miter;stroke-miterlimit:4;stroke-opacity:1;stroke-dasharray:4, 4;stroke-dashoffset:0" />
  <path
     d="m 339.92328,618.35512 59.64134,0.57699"
     id="path3085"
     style="fill:none;stroke:#000000;stroke-width:1.01924479;stroke-linecap:butt;stroke-linejoin:miter;stroke-miterlimit:4;stroke-opacity:1;stroke-dasharray:4.07697916, 4.07697916;stroke-dashoffset:0" />
  <path
     d="m 253.298,460.83723 219.25568,0.86548"
     id="path3087"
     style="fill:none;stroke:#000000;stroke-width:1;stroke-linecap:butt;stroke-linejoin:miter;stroke-miterlimit:4;stroke-opacity:1;stroke-dasharray:4, 4;stroke-dashoffset:0" />
  <path
     d="m 253.00951,457.95228 218.96718,0.57699"
     id="path3089"
     style="fill:none;stroke:#000000;stroke-width:1;stroke-linecap:butt;stroke-linejoin:miter;stroke-miterlimit:4;stroke-opacity:1;stroke-dasharray:4, 4;stroke-dashoffset:0" />
  <path
     d="m 264.54928,444.10456 210.31235,1.73096"
     id="path3091"
     style="fill:none;stroke:#000000;stroke-width:1;stroke-linecap:butt;stroke-linejoin:miter;stroke-miterlimit:4;stroke-opacity:1;stroke-dasharray:4, 4;stroke-dashoffset:0" />
  <path
     d="m 263.6838,441.21961 210.02386,1.73097"
     id="path3093"
     style="fill:none;stroke:#000000;stroke-width:1;stroke-linecap:butt;stroke-linejoin:miter;stroke-miterlimit:4;stroke-opacity:1;stroke-dasharray:4, 4;stroke-dashoffset:0" />
  <path
     d="m 287.62883,432.27629 159.82584,1.73097"
     id="path3095"
     style="fill:none;stroke:#000000;stroke-width:1;stroke-linecap:butt;stroke-linejoin:miter;stroke-miterlimit:4;stroke-opacity:1;stroke-dasharray:4, 4;stroke-dashoffset:0" />
  <path
     d="m 292.24474,423.62146 110.20482,0"
     id="path3097"
     style="fill:none;stroke:#000000;stroke-width:1;stroke-linecap:butt;stroke-linejoin:miter;stroke-miterlimit:4;stroke-opacity:1;stroke-dasharray:4, 4;stroke-dashoffset:0" />
  <path
     d="m 287.05184,413.81266 137.0348,1.44247"
     id="path3099"
     style="fill:none;stroke:#000000;stroke-width:1;stroke-linecap:butt;stroke-linejoin:miter;stroke-miterlimit:4;stroke-opacity:1;stroke-dasharray:4, 4;stroke-dashoffset:0" />
</svg>
