<?xml version="1.0" encoding="UTF-8" standalone="no"?>
<!-- Created with Inkscape (http://www.inkscape.org/) -->

<svg
   xmlns:dc="http://purl.org/dc/elements/1.1/"
   xmlns:cc="http://creativecommons.org/ns#"
   xmlns:rdf="http://www.w3.org/1999/02/22-rdf-syntax-ns#"
   xmlns:svg="http://www.w3.org/2000/svg"
   xmlns="http://www.w3.org/2000/svg"
   xmlns:sodipodi="http://sodipodi.sourceforge.net/DTD/sodipodi-0.dtd"
   xmlns:inkscape="http://www.inkscape.org/namespaces/inkscape"
   id="svg2"
   version="1.1"
   inkscape:version="0.48.1 r9760"
   width="1024"
   height="988"
   sodipodi:docname="steiner_sna.svg">
  <metadata
     id="metadata8">
    <rdf:RDF>
      <cc:Work
         rdf:about="">
        <dc:format>image/svg+xml</dc:format>
        <dc:type
           rdf:resource="http://purl.org/dc/dcmitype/StillImage" />
        <dc:title />
      </cc:Work>
    </rdf:RDF>
  </metadata>
  <defs
     id="defs6" />
  <sodipodi:namedview
     pagecolor="#ffffff"
     bordercolor="#666666"
     borderopacity="1"
     objecttolerance="10"
     gridtolerance="10"
     guidetolerance="10"
     inkscape:pageopacity="0"
     inkscape:pageshadow="2"
     inkscape:window-width="1280"
     inkscape:window-height="749"
     id="namedview4"
     showgrid="false"
     inkscape:zoom="0.90028971"
     inkscape:cx="804.15387"
     inkscape:cy="532.9111"
     inkscape:window-x="0"
     inkscape:window-y="29"
     inkscape:window-maximized="1"
     inkscape:current-layer="svg2" />
  <path
     style="fill:#000000"
     d="m 660.36748,942.51525 c -0.31336,-0.81661 -0.0612,-9.87855 0.56039,-20.13766 0.62158,-10.2591 0.93882,-18.84424 0.70497,-19.07808 -0.23384,-0.23385 -3.21605,0.0809 -6.62712,0.69945 -15.16199,2.7494 -42.47442,-5.94721 -86.7275,-27.61505 -13.16997,-6.44848 -26.69689,-12.34399 -31.25,-13.61985 C 532.25113,861.42543 529,859.98693 529,859.21189 c 0,-3.53363 15.4425,2.0845 43.5,15.82572 12.1,5.926 24.925,11.79281 28.5,13.03736 3.575,1.24455 7.07337,2.70094 7.77417,3.23642 2.76836,2.11535 2.52507,-0.74091 -0.57189,-6.71411 -8.85582,-17.0805 -6.3555,-40.97732 7.02037,-67.09728 4.40816,-8.60811 15.03953,-24.62876 18.01183,-27.14245 1.39334,-1.17834 3.32338,-4.55334 4.28898,-7.5 3.13184,-9.55721 12.11786,-31.18334 16.97918,-40.8628 3.34372,-6.65774 6.61568,-11.38341 11.092,-16.02007 7.28625,-7.54725 6.51013,-4.03849 8.39984,-37.97468 0.56659,-10.175 1.47461,-26.24511 2.01784,-35.71135 C 676.55554,642.82241 677,634.39801 677,633.56776 677,630.7118 647.49711,622.80763 623,619.10052 610.82633,617.2583 572.3024,613 567.80986,613 566.81444,613 566,612.325 566,611.5 c 0,-1.90059 1.97793,-1.89987 20.14319,0.007 34.78403,3.65213 57.64396,7.48672 74.85681,12.55667 17.06956,5.02776 15.71953,5.20989 16.40977,-2.21382 1.15053,-12.37435 3.61823,-60.15557 3.13189,-60.64191 -0.27157,-0.27157 -3.09204,0.45286 -6.26771,1.60986 -7.9896,2.91088 -20.74437,5.83096 -33.77395,7.73222 -6.05,0.88282 -14.825,2.43369 -19.5,3.4464 -4.81095,1.04215 -15.22709,2.12334 -24,2.49118 -14.46308,0.60643 -21.63771,1.37904 -28.27468,3.04481 -1.99574,0.5009 -2.72532,0.30896 -2.72532,-0.71699 0,-2.43295 8.74243,-3.97224 30.17632,-5.31317 11.37198,-0.71145 21.04698,-1.52029 21.5,-1.79742 0.45303,-0.27714 9.14868,-1.92628 19.32368,-3.66475 20.80503,-3.5547 32.29298,-6.25752 39.19022,-9.22047 5.62558,-2.41667 5.09091,0.57273 7.30085,-40.82 0.83688,-15.675 2.66594,-48.525 4.06458,-73 1.39863,-24.475 2.41553,-46.75 2.25977,-49.5 -0.15575,-2.75 0.0117,-5.46237 0.37219,-6.02749 0.36047,-0.56512 0.95782,-8.44012 1.32746,-17.5 l 0.67207,-16.47251 -5.84357,-3.63559 c -3.21396,-1.99957 -8.15315,-4.38066 -10.97596,-5.2913 -2.82282,-0.91065 -5.88865,-2.49137 -6.81297,-3.51273 -1.59133,-1.7584 -1.43826,-2.21093 2.8824,-8.5219 2.50963,-3.66569 4.56296,-7.3151 4.56296,-8.10979 0,-0.79468 1.80842,-2.16847 4.01872,-3.05286 4.45304,-1.78175 7.98128,-5.59132 7.98128,-8.61768 0,-1.28143 0.4913,-1.7836 1.4028,-1.43382 0.77154,0.29607 2.23404,-0.0915 3.25,-0.86121 1.71238,-1.29737 1.71947,-1.40183 0.0972,-1.43132 -0.9625,-0.0175 -1.75,0.4932 -1.75,1.13487 0,0.64166 -0.29724,0.86942 -0.66054,0.50613 -0.8283,-0.82831 2.56515,-4.6728 4.12458,-4.6728 0.6367,0 1.86345,-3.47434 2.73645,-7.75 0.87031,-4.2625 3.07828,-14.05 4.9066,-21.75 l 3.32421,-14 0.0318,-35.5 c 0.0257,-28.67176 -0.30773,-37.90431 -1.73363,-48 -3.59937,-25.48449 -9.55739,-47.74912 -17.81813,-66.58491 -3.08203,-7.02753 -3.89036,-9.83611 -3.06768,-10.65879 2.19507,-2.19507 12.78323,23.99816 18.08686,44.7437 6.83111,26.72037 9.85896,65.51256 8.03946,103 -0.60677,12.50163 -1.43595,17.99805 -4.97826,33 -5.64861,23.92224 -5.71852,28.57772 -0.5862,39.03913 7.61659,15.52521 18.53273,32.49766 32.29548,50.21308 7.06134,9.08937 10.7586,16.46162 11.82626,23.5813 0.91383,6.09384 -0.90032,6.22427 -5.79266,0.41649 -5.16989,-6.13727 -29.61445,-30.24382 -33.72364,-33.25731 -4.65089,-3.94613 -8.61768,-5.03029 -9.67108,-5.29032 -2.82977,-0.38989 -3.17805,1.42575 -3.89357,20.29763 -0.31279,8.25 -2.31704,44.925 -4.4539,81.5 -5.41936,92.75934 -5.43048,93 -4.29683,93 0.54259,0 3.01539,-0.6106 5.49512,-1.35689 l 4.50859,-1.35689 1.86462,3.46239 c 1.02554,1.90431 3.63037,4.9738 5.78852,6.82109 4.11355,3.52105 16.72523,9.29361 21.09435,9.65521 1.40425,0.11622 2.55318,0.78816 2.55318,1.4932 0,1.43864 2.64898,1.77107 3.16667,0.39739 0.18333,-0.48648 3.1572,-1.20698 6.6086,-1.60112 l 6.27526,-0.71662 -2.19909,5.35112 c -1.2095,2.94312 -3.35481,9.73981 -4.76735,15.10376 -1.41254,5.36395 -3.02161,9.60152 -3.57571,9.41682 -0.55411,-0.1847 -1.30214,-2.39586 -1.6623,-4.91368 -0.36016,-2.51782 -0.94117,-5.48002 -1.29113,-6.58266 -0.34997,-1.10264 -0.168,-2.29423 0.40437,-2.64798 0.63428,-0.392 1.04068,0.55143 1.04068,2.41584 0,1.68246 0.45,3.05902 1,3.05902 0.55,0 1,-0.91124 1,-2.02498 0,-1.11374 0.9,-4.58565 2,-7.71534 1.1,-3.1297 2,-6.07745 2,-6.55055 0,-0.4731 -1.9125,-0.7483 -4.25,-0.61155 -10.90716,0.63811 -26.97532,-6.16395 -34.49751,-14.60365 -4.84578,-5.43684 -4.95519,-5.49423 -8.33138,-4.37021 -1.88161,0.62644 -3.93631,1.64237 -4.566,2.25763 -1.25962,1.23075 -3.85511,43.2858 -3.85511,62.46476 l 0,11.34611 8.95078,3.36977 c 4.92293,1.85338 9.17653,3.14403 9.45244,2.86812 0.53679,-0.53679 -0.31193,-2.84618 -7.27444,-19.79383 -4.96575,-12.0873 -7.17593,-22.06696 -5.72962,-25.87104 1.26189,-3.31902 6.82271,-5.9724 9.55402,-4.55876 6.72363,3.47992 15.71089,11.24456 24.38429,21.06705 C 730.27734,619.96404 736,625.86565 736,624.9102 c 0,-0.24114 -0.9,-2.90073 -2,-5.9102 -2.40302,-6.57439 -2.44867,-7.24128 -0.46701,-6.82332 0.91103,0.19214 3.49829,5.21701 6.37696,12.38505 2.66419,6.63395 5.57434,13.4741 6.46701,15.20034 0.89267,1.72624 1.62304,4.64463 1.62304,6.48532 0,2.61494 0.90123,4.21104 4.12175,7.29966 11.14336,10.68701 18.48111,29.71293 17.14447,44.4536 -0.46251,5.10065 -0.83218,5.92458 -2.88986,6.44103 -4.10479,1.03023 -8.7971,-1.76999 -11.84971,-7.07153 -1.54233,-2.67858 -3.52927,-5.70629 -4.41544,-6.72824 -1.89493,-2.18528 -8.7919,-5.80222 -16.72084,-8.76881 -7.23996,-2.70882 -13.05883,-7.92812 -14.40263,-12.91862 -0.56722,-2.1065 -2.73912,-5.99551 -4.82644,-8.64224 -2.08732,-2.64673 -5.42594,-7.36692 -7.41915,-10.48932 -3.85147,-6.03339 -5.49082,-7.06102 -18.9374,-11.87087 -3.68238,-1.31719 -6.91876,-2.17137 -7.19196,-1.89818 -0.63539,0.6354 -4.88834,77.61948 -4.37339,79.16432 0.40564,1.21692 1.83844,-0.0152 7.27584,-6.25694 1.65837,-1.90369 4.23004,-4.24875 5.71481,-5.21125 2.57103,-1.66667 2.74324,-1.66667 3.61645,0 1.90527,3.63652 2.23823,8.33483 1.16301,16.41087 -1.2295,9.2348 -9.49609,35.92435 -11.47981,37.06381 -4.05053,2.32663 -8.27416,21.30057 -8.74275,39.27532 l -0.2607,10 4.59435,7.5 c 10.50159,17.14321 12.55397,24.11601 11.57216,39.3156 -1.23882,19.17859 -8.45338,34.13177 -21.8538,45.29504 -2.41613,2.01277 -2.56539,2.75469 -3.21895,16 -0.37694,7.63915 -0.96034,17.37686 -1.29645,21.63936 -0.57622,7.30746 -1.66811,9.62166 -2.95608,6.26525 z m -0.37647,-43.0124 c 2.46531,-0.78246 2.62482,-2.18035 4.50746,-39.50285 2.20208,-43.65512 3.41561,-65.58769 4.02524,-72.75 0.61385,-7.21176 -0.37543,-7.89843 -3.60172,-2.5 -5.47323,9.15816 -16.30705,22.24564 -20.16296,24.35728 -1.20064,0.65752 -2.63724,0.48994 -4.62882,-0.53994 -3.22857,-1.66956 -4.08416,-3.26735 -4.22989,-7.89913 -0.0548,-1.74251 -0.41077,-4.2854 -0.79099,-5.65085 -0.62927,-2.25985 -1.28569,-1.58681 -7.3148,7.5 -16.04964,24.18932 -22.91894,45.14308 -21.24195,64.79536 0.53162,6.22992 1.45484,9.40395 4.55705,15.66711 2.1397,4.31991 3.89037,8.33014 3.89037,8.9116 0,1.64622 4.88159,3.78043 13.93309,6.09149 14.21757,3.63007 23.04791,4.06221 31.05792,1.51993 z m 12.3955,-9.58785 c 10.70465,-11.90614 16.7258,-33.99185 13.74447,-50.415 -1.72153,-9.48335 -14.22136,-32.41958 -15.50824,-28.45643 -0.37642,1.15924 -4.6795,77.95028 -4.63455,82.70643 0.0221,2.33626 1.81721,1.2603 6.39832,-3.835 z m -25.43153,-86.53057 c 1.70964,-1.43857 6.08518,-6.95107 9.72343,-12.25 3.63825,-5.29894 7.8313,-11.21132 9.31789,-13.13864 3.03767,-3.93822 3.8213,-8.04719 4.1761,-21.89728 0.27177,-10.60875 0.54268,-10.24233 -8.45437,-11.43507 l -4.78197,-0.63394 -3.55193,7.73525 c -10.40757,22.66519 -14.55772,35.19185 -14.44072,43.58734 0.15045,10.79546 2.23911,12.88954 8.01157,8.03234 z m 29.62672,-42.93362 c 2.57841,-4.39973 2.60444,-4.59582 0.79215,-5.9682 -2.67183,-2.02329 -3.04874,-1.85816 -3.74885,1.64239 -0.72972,3.64859 -0.82815,8.875 -0.16715,8.875 0.25181,0 1.65754,-2.04714 3.12385,-4.54919 z m 9.47819,-21.23381 c 3.28564,-10.08268 4.25666,-14.73671 4.68751,-22.467 0.30537,-5.47886 0.15118,-9.74976 -0.35199,-9.74946 -0.49247,2.9e-4 -4.08358,3.48779 -7.98023,7.75 l -7.08481,7.74946 -0.64411,10 c -0.46917,7.28403 -0.27449,11.06659 0.71679,13.92711 1.37051,3.95487 4.20012,6.93618 5.70217,6.00786 0.44582,-0.27553 2.67542,-6.22362 4.95467,-13.21797 z m -14.70104,-5.467 c 0.38593,-4.85827 0.24656,-7.75 -0.37351,-7.75 -2.63259,0 -12.99761,13.32106 -11.51705,14.80163 0.86411,0.8641 9.89837,1.92672 10.65332,1.25305 0.34188,-0.30507 0.89864,-4.04218 1.23724,-8.30468 z m 94.43786,-38.89279 c 0.38262,-7.27691 -2.02375,-17.54168 -6.01104,-25.64102 C 756.18663,661.90551 748.65888,653 746.07827,653 c -1.10921,0 -2.59886,1.8414 -4.12416,5.09798 C 738.54271,665.38146 736.08146,667 728.41716,667 l -6.31312,0 1.05707,3.03232 c 1.13427,3.25376 5.77523,7.2607 9.83889,8.49474 1.375,0.41756 5.65,2.19355 9.5,3.94665 7.01691,3.19515 10.0343,5.96964 15.7866,14.51578 2.0826,3.0941 3.34579,4.0605 5,3.82526 1.94325,-0.27633 2.24961,-1.00345 2.51011,-5.95754 z m -30.85122,-31.82804 c 0.9977,-0.53395 2.5074,-2.67145 3.35488,-4.75 0.84748,-2.07854 2.70159,-5.3291 4.12025,-7.22345 1.41866,-1.89435 2.57938,-4.2019 2.57938,-5.12788 0,-4.1101 -3.85925,-10.07767 -11.91736,-18.42784 -4.77686,-4.95 -10.17096,-10.8 -11.98689,-13 -6.44553,-7.80875 -16.523,-17.56568 -21.32631,-20.64795 -4.18085,-2.68285 -5.21937,-2.96808 -7.32072,-2.01064 -5.03922,2.29603 -2.60256,13.22977 8.72678,39.15859 5.89507,13.49172 10.08692,20.7502 16.60344,28.75 3.36849,4.13523 3.62254,4.25 9.40726,4.25 3.26991,0 6.76159,-0.43687 7.75929,-0.97083 z m -2.28955,-68.2982 c -0.27393,-0.67703 -0.48137,0.11903 -0.46099,1.76903 0.0204,1.65 0.2445,2.20394 0.49804,1.23097 0.25354,-0.97297 0.23687,-2.32297 -0.0371,-3 z M 742.45337,390.75 c -0.84416,-2.78739 -4.19788,-8.58217 -6.51093,-11.25 -5.57085,-6.42532 -23.88996,-33.46474 -29.54063,-43.60263 C 702.75456,329.35382 699.54137,324 699.26139,324 c -1.77609,4.85658 -1.30579,6.30074 -2.85914,24 l -0.58353,6.5 3.20496,1.7691 c 3.50967,1.93505 2.51916,1.28543 5.417,2.7309 2.48136,0 15.62074,11.30052 26.55933,22.84234 5.775,6.09347 10.86782,11.09673 11.31739,11.11835 0.44956,0.0216 0.51075,-0.97319 0.13598,-2.21069 z m -49.0366,-52.5 c 0.33998,-7.0125 0.86293,-15.38421 1.16209,-18.6038 0.32558,-3.5038 0.16338,-5.71177 -0.40402,-5.5 -0.52137,0.19459 -2.48097,2.3788 -4.35465,4.8538 -1.87369,2.475 -5.00874,5.25996 -6.96678,6.18881 -2.16532,1.02717 -4.06198,2.90051 -4.84118,4.78166 -0.7046,1.70106 -2.5706,4.71548 -4.14666,6.69869 -1.57607,1.98322 -2.86557,3.95728 -2.86557,4.38681 0,0.42953 2.85633,1.73149 6.3474,2.89325 3.49106,1.16175 7.85349,3.22344 9.69428,4.58153 1.84078,1.35809 3.88914,2.46925 4.55191,2.46925 0.8447,0 1.38986,-3.81244 1.82318,-12.75 z M 437.639,914.30566 c -0.38189,-0.38188 -0.39087,-3.37663 -0.02,-6.65499 0.67176,-5.93753 0.66507,-5.95797 -1.72233,-5.26728 -1.31818,0.38136 -6.8967,1.60919 -12.3967,2.72851 -16.30871,3.31902 -27.30999,1.34489 -40.64582,-7.29371 C 376.51492,893.71178 369.6351,890.29326 346,879.5057 317.25243,866.38469 295.31656,860.4908 245.69788,852.55576 c -11.44117,-1.82967 -21.07867,-3.60322 -21.41667,-3.94122 -1.71775,-1.71775 1.86237,-1.76382 13.45685,-0.17317 39.58594,5.43082 80.10263,15.05032 98.26194,23.32943 2.475,1.1284 8.1,3.71222 12.5,5.74185 C 360.45911,883.02912 372.07092,888 372.9981,888 c 0.45148,0 0.19195,-2.3625 -0.57674,-5.25 -2.09873,-7.88365 -1.80746,-21.88914 0.63993,-30.7701 2.6661,-9.67461 11.45413,-26.31021 22.03519,-41.71227 4.62194,-6.7278 9.74705,-14.3778 11.38915,-17 1.64209,-2.6222 4.37117,-6.34263 6.06461,-8.26763 4.42831,-5.03384 7.7016,-11.10486 12.97985,-24.07393 2.5553,-6.27857 5.2559,-12.54294 6.00133,-13.92083 0.74543,-1.37788 1.62462,-4.5843 1.95375,-7.12537 0.70171,-5.41757 4.05458,-10.97536 11.86498,-19.66767 4.71731,-5.24996 5.6507,-6.90052 5.65502,-10 0.003,-2.04171 0.28914,-7.99954 0.63621,-13.23963 0.62725,-9.47038 0.61598,-9.53428 -1.88209,-10.67248 -5.83087,-2.65672 -9.52355,-7.16531 -11.67797,-14.25826 -1.15418,-3.79989 -3.56506,-8.83166 -5.35751,-11.18172 C 429.48469,656.61333 420.78043,649.2892 416,646.78799 406.46038,641.79669 395.39834,635.11397 391.31683,631.87659 381.91397,624.41841 358.14798,613.43697 333.5,605.16144 300.45775,594.06755 281.10012,590.5774 245.75,589.34026 231.05686,588.82604 227,588.3937 227,587.34203 c 0,-1.83429 13.73131,-1.77306 39.62184,0.17669 15.97555,1.20308 23.04361,2.23275 34.30118,4.99698 18.76813,4.6084 43.21927,12.77321 61.31394,20.47418 14.49334,6.16826 19.38845,8.82461 33.8767,18.38329 C 409.0031,639.87703 425,648.85931 425,647.59289 c 0,-0.67195 -2.925,-9.83632 -6.5,-20.36528 -3.575,-10.52897 -6.5,-20.23763 -6.5,-21.57481 0,-5.76843 7.04064,-9.05774 12.67169,-5.92009 3.0317,1.68929 11.91111,11.04973 24.14735,25.4555 3.12453,3.67852 5.98264,6.71602 6.35137,6.75 0.85871,0.0791 1.6075,-7.58916 3.16679,-32.43085 l 1.25492,-19.99264 -3.04606,-2.79412 c -1.67533,-1.53676 -4.03594,-3.04568 -5.24579,-3.35315 -1.20984,-0.30746 -8.18484,0.58023 -15.5,1.97265 -51.214,9.74849 -96.06049,11.97827 -166.30027,8.26853 -17.05,-0.90051 -33.43963,-1.74334 -36.4214,-1.87296 -3.26832,-0.14207 -5.58499,-0.7321 -5.83333,-1.48567 -0.56421,-1.71208 14.51108,-1.62552 45.75473,0.26272 62.47732,3.77586 117.5113,0.911 164.38529,-8.55728 l 13.8853,-2.80475 3.88503,2.57099 c 2.13677,1.41405 4.10746,2.34858 4.37931,2.07673 0.27184,-0.27185 3.39151,-44.1002 6.93258,-97.39634 3.54108,-53.29614 6.702,-100.05207 7.02428,-103.90207 l 0.58597,-7 -6.24371,-4 c -3.43404,-2.2 -9.14274,-5.125 -12.686,-6.5 -8.94477,-3.47111 -9.34794,-4.49426 -4.37269,-11.09667 2.23943,-2.97183 4.3654,-6.52833 4.72437,-7.90333 0.42572,-1.63064 2.1041,-3.19549 4.82648,-4.5 3.2828,-1.57306 4.12173,-2.48712 3.92993,-4.2819 -0.20436,-1.91223 0.0474,-2.12603 1.55388,-1.31977 1.09785,0.58755 2.36074,0.60593 3.24386,0.0472 0.79537,-0.5032 2.34612,-0.89328 3.44612,-0.86684 1.94845,0.0468 1.94664,0.0697 -0.0703,0.886 -1.13868,0.46085 -2.81076,1.96797 -3.71574,3.34915 -0.90498,1.38118 -3.45754,3.31073 -5.67234,4.2879 -2.21481,0.97717 -4.31217,2.70403 -4.66081,3.83746 -0.34864,1.13344 -2.21487,4.2318 -4.14716,6.88525 -4.07328,5.59346 -3.65395,6.54879 3.76638,8.58068 2.475,0.67773 6.87446,2.83936 9.77658,4.80363 2.90212,1.96427 5.49398,3.354 5.75969,3.08829 0.77057,-0.77057 2.69068,-27.62006 2.28182,-31.90738 -0.20887,-2.19023 0.0775,-3.94137 0.65548,-4.00799 0.56454,-0.0651 -0.32357,-0.4929 -1.97357,-0.95073 -2.87638,-0.79811 -2.84547,-0.82211 0.75,-0.58248 2.0625,0.13745 3.75,-0.0445 3.75,-0.4044 0,-0.35987 1.12063,-8.58449 2.4903,-18.27692 5.68247,-40.21204 6.04973,-89.99195 0.9087,-123.16716 -3.34697,-21.59813 -9.05186,-41.79523 -16.74948,-59.29844 C 461.60824,113.01233 461.38139,112 463.36344,112 c 1.39958,0 4.596,6.42534 9.25015,18.59439 11.6478,30.45504 16.38459,61.01372 16.33855,105.40561 -0.0317,30.55249 -0.87569,43.80199 -4.54134,71.29201 l -2.77251,20.792 5.40992,10.69741 c 6.36988,12.59558 13.7154,24.00034 24.57455,38.15479 10.93762,14.25674 13.07065,17.78915 14.8371,24.57098 1.74215,6.68858 1.93948,9.49281 0.668,9.49281 -0.47968,0 -6.66718,-6.15065 -13.75,-13.66811 -7.08282,-7.51746 -16.14683,-16.46439 -20.14223,-19.88206 -6.85648,-5.86503 -13.17157,-9.84722 -14.11691,-8.90188 -1.45988,5.14469 -1.0643,9.97812 -1.76842,15.45205 -2.88424,50.63953 -7.6186,93.48401 -10.84107,143 -1.37755,21.175 -2.77472,41.23427 -3.10482,44.57616 l -0.60017,6.07616 5.5955,2.92384 c 3.07753,1.60811 5.59658,3.5129 5.59788,4.23286 0.001,0.71996 0.45238,1.0309 1.00238,0.69098 0.55,-0.33992 1,-0.11115 1,0.50837 0,1.32265 -2.79452,0.59538 -8.21016,-2.13668 C 465.74925,582.84226 463.86913,582 463.61179,582 c -0.70422,0 -1.49025,8.19296 -3.12935,32.61803 l -1.48428,22.11802 4.09747,7.88198 c 2.25361,4.33508 4.45868,8.26413 4.90015,8.73121 0.44148,0.46707 1.1163,-3.58293 1.4996,-9 0.98066,-13.85934 2.57763,-20.73962 4.91848,-21.19043 1.53827,-0.29624 1.75269,0.0587 1.2023,1.99032 -2.08825,7.32879 -2.77603,14.59784 -2.35132,24.85087 0.44763,10.80658 0.80789,12.43461 5.97466,27 3.02407,8.525 5.80992,18.04936 6.19077,21.16524 1.62265,13.27538 -3.91585,18.73737 -11.89547,11.73117 L 470,706.79282 470,719.449 c 0,14.91963 -1.86784,24.49865 -5.991,30.72419 -1.5761,2.37975 -3.77714,7.72858 -4.89119,11.88629 -2.36179,8.81436 -5.29385,15.97463 -8.22986,20.09788 -1.80212,2.53085 -2.1052,4.51987 -2.2363,14.67645 l -0.15165,11.74883 5.9079,9.95868 c 3.24934,5.47727 6.45779,10.87286 7.12989,11.99019 2.14859,3.57192 7.26536,19.78478 7.97771,25.27794 1.12679,8.68906 -1.06536,17.67999 -6.0202,24.69134 -5.56657,7.87699 -12.49808,14.51612 -17.7565,17.00753 -4.1619,1.97188 -4.2435,2.10794 -4.49803,7.5 -0.42004,8.89833 -1.41988,11.47924 -3.60177,9.29734 z m -8.45241,-13.44262 8.6866,-1.9999 0.58947,-5.18157 c 0.76866,-6.75666 4.29615,-60.4687 5.06883,-77.18157 0.33056,-7.15 0.23211,-15.69761 -0.21878,-18.99469 l -0.81981,-5.99469 -8.22442,9.61525 c -9.34047,10.92002 -12.38435,13.31285 -15.8338,12.44709 -5.08794,-1.27699 -5.88503,-8.0077 -2.39402,-20.21514 2.42017,-8.46288 2.51614,-10.06482 0.50291,-8.39398 -3.21363,2.66708 -28.31349,41.25389 -33.67301,51.76658 -7.17287,14.06958 -9.37782,23.12115 -8.57112,35.18542 1.11689,16.70324 3.80355,20.96174 17.17119,27.21721 11.27214,5.27487 20.48352,5.69739 37.71596,1.72999 z m 19.47241,-8.73098 c 4.77841,-3.46146 10.57911,-10.05395 14.1135,-16.03995 2.08755,-3.53557 2.6896,-6.06537 3.0422,-12.78318 0.55359,-10.54739 -1.58736,-19.87808 -7.06919,-30.80893 -4.31325,-8.60068 -10.63432,-18.94535 -11.21832,-18.35922 -0.19686,0.19757 -1.06978,10.93422 -1.93983,23.85922 -0.87005,12.925 -2.02646,30.025 -2.5698,38 -1.49172,21.89484 -1.65789,21.41967 5.64144,16.13206 z m -22.06751,-87.44169 c 3.24968,-3.47029 8.92319,-9.71319 12.6078,-13.8731 l 6.69929,-7.56348 1.25333,-19.19265 c 1.02768,-15.73732 1.01857,-19.33774 -0.0506,-19.99854 -1.83818,-1.13606 -10.27853,1.55747 -12.2306,3.90309 -2.21158,2.65745 -9.62901,21.7648 -10.97487,28.27133 -0.59874,2.89464 -2.13537,9.08798 -3.41472,13.76298 -3.2571,11.90206 -3.98994,17.68196 -2.47356,19.50908 0.68054,0.82001 1.56092,1.49092 1.9564,1.49092 0.39547,0 3.37787,-2.83933 6.62755,-6.30963 z m 29.21142,-42.91137 1.94432,-7.58977 -2.82041,-2.08521 c -1.55122,-1.14687 -3.01389,-1.75195 -3.25036,-1.34462 -0.23648,0.40733 -0.71624,6.3656 -1.06613,13.2406 l -0.63617,12.5 1.94222,-3.56562 c 1.06822,-1.96109 2.81716,-6.98101 3.88653,-11.15538 z m 7.05904,-16.43174 c 1.29442,-2.66431 2.65844,-8.11325 3.19167,-12.75 C 467.18761,722.73666 467.29576,704 466.2187,704 c -0.42972,0 -3.40824,2.65464 -6.61894,5.89919 l -5.83764,5.89919 -0.9718,13.63745 -0.9718,13.63746 2.64163,3.46335 c 3.6132,4.73715 5.66348,4.4469 8.4018,-1.18938 z M 444.75,740.69844 c 3.89363,-0.94857 4.25,-1.30245 4.25,-4.22023 0,-1.75165 0.28576,-6.06334 0.63503,-9.58152 l 0.63502,-6.39669 -3.23488,3 c -8.18561,7.59126 -14.19318,21.49078 -8.18402,18.9351 0.90687,-0.38569 3.56135,-1.16719 5.89885,-1.73666 z M 464.9627,701 c 0.57051,0 1.0373,-0.61673 1.0373,-1.37052 0,-1.69542 -7.52998,-9.12948 -9.24728,-9.12948 -0.87084,0 -1.4173,2.74357 -1.79261,9 -0.29694,4.95 -0.3776,9.34604 -0.17925,9.76898 0.19835,0.42294 2.33701,-1.26456 4.75258,-3.75 C 461.94901,703.03354 464.39218,701 464.9627,701 z m 16.84226,1.98996 c 0.36444,-7.75564 -0.55212,-11.68607 -6.40765,-27.47751 -2.44984,-6.60685 -4.67583,-12.6362 -4.94663,-13.39857 -0.68402,-1.92562 -4.01398,1.16358 -6.18427,5.73713 -0.90214,1.90111 -2.88153,4.16896 -4.39864,5.03967 -3.00864,1.72671 -3.83323,3.6991 -3.85412,9.2188 -0.012,3.18416 0.59486,4.06792 5.15045,7.5 3.126,2.35506 6.18468,5.81541 7.75,8.76777 2.99881,5.65602 8.91241,11.71111 11.0859,11.35111 1.11552,-0.18476 1.57817,-1.91196 1.80496,-6.7384 z M 453,678.56981 l 0,-4.31215 -5.11674,-0.67876 c -2.8142,-0.37332 -5.30179,-0.4937 -5.52798,-0.26752 -0.22618,0.22619 0.028,1.56657 0.56489,2.97864 1.03956,2.73425 7.85116,7.96934 9.24688,7.10674 C 452.62517,683.11362 453,680.9415 453,678.56981 z M 454.17058,660.5 c 0.36882,-5.5 0.91464,-12.81523 1.21294,-16.25606 l 0.54236,-6.25606 -13.89664,-15.84926 c -16.82454,-19.18856 -19.40665,-21.51169 -22.92756,-20.628 -5.37722,1.34959 -5.43161,0.96803 4.35582,30.56207 5.52666,16.71084 7.97825,22.7727 10.10965,24.9974 1.54756,1.6153 3.96611,5.07283 5.37456,7.68341 2.64636,4.90503 5.41212,6.25496 12.05829,5.88548 2.44271,-0.1358 2.51537,-0.36814 3.17058,-10.13898 z m 8.76807,3.35402 c 2.95831,-4.43011 3.80134,-6.46239 3.05417,-7.36268 -0.56763,-0.68394 -2.33753,-3.6308 -3.93313,-6.54859 l -2.90109,-5.30506 -0.5412,3.43116 c -1.26716,8.03369 -1.79985,23.16195 -0.79368,22.5401 0.5658,-0.34968 2.86751,-3.3894 5.11493,-6.75493 z m 57.81286,-268.08561 c -1.34955,-2.94782 -3.78018,-6.91414 -5.40138,-8.81404 -2.9495,-3.45653 -10.84357,-14.0521 -17.47433,-23.45437 -3.84573,-5.45316 -11.22052,-18.08975 -15.17375,-26 l -2.4988,-5 -0.59811,4.5 c -0.32897,2.475 -0.7122,9.9 -0.85163,16.5 -0.1971,9.32979 0.0317,11.94203 1.02807,11.73947 2.85105,-0.57957 13.52217,7.82916 27.70327,21.8299 8.24167,8.13685 15.15035,14.62877 15.35262,14.42649 0.20228,-0.20228 -0.7364,-2.77963 -2.08596,-5.72745 z M 907,904 c 0,-4.4 -0.15586,-8 -0.34636,-8 -0.1905,0 -1.878,0.7875 -3.75,1.75 -2.61735,1.34572 -5.7138,1.72979 -13.40364,1.66253 -12.73458,-0.11138 -22.78411,-2.55121 -41,-9.95399 -7.7,-3.12921 -15.125,-6.04415 -16.5,-6.47765 -1.375,-0.4335 -7,-2.4288 -12.5,-4.43402 -19.30979,-7.04004 -59.32434,-17.49419 -67.22143,-17.56218 -2.42828,-0.0209 -4.66315,-1.55341 -3.94943,-2.70823 0.83582,-1.35239 14.19986,0.9348 33.23537,5.68808 16.48136,4.1155 43.61411,12.91852 62.12615,20.15637 5.74197,2.245 10.64506,3.87671 10.89575,3.62601 0.42844,-0.42844 -3.20773,-6.02458 -11.05101,-17.00771 -5.64,-7.89784 -7.93396,-15.01151 -7.97767,-24.73921 -0.0466,-10.36887 1.47339,-14.11164 11.32596,-27.88873 6.89302,-9.63868 9.29846,-14.1842 17.16649,-32.43916 C 868.73094,774.81207 874.73375,765 876.69693,765 c 1.71353,0 5.57622,-7.85116 10.49562,-21.33301 3.54602,-9.71802 5.15332,-12.55332 12.3872,-21.85119 12.95474,-16.65102 12.04781,-13.01299 12.79254,-51.3158 0.3529,-18.15 0.9298,-42.5625 1.28202,-54.25 0.42696,-14.16807 0.30116,-21.25 -0.37748,-21.25 -1.98044,0 -8.68187,7.933 -10.40313,12.31499 -2.41426,6.14623 -3.78081,17.72181 -3.99713,33.85839 -0.18122,13.51786 -0.15258,13.70989 2.51786,16.88353 5.56406,6.6125 6.9681,10.72642 7.41621,21.72985 0.33075,8.12182 -0.0383,12.26545 -1.75365,19.68861 C 904.65769,709.85839 902.18286,714 898.37776,714 c -6.24102,0 -9.79257,-4.41775 -13.42138,-16.69481 -0.68193,-2.30714 -4.31917,-8.15714 -8.08275,-13 -7.52066,-9.67735 -15.87894,-25.87391 -18.36983,-35.59681 -1.83588,-7.16614 -4.22487,-10.01772 -13.53588,-16.15687 C 827.87338,621.28034 807.06063,613.46382 779.5,607.9641 c -10.71229,-2.13763 -13.57676,-3.22068 -12.18886,-4.60857 1.43758,-1.43758 29.52809,4.85552 45.28706,10.14563 14.07536,4.72495 28.35516,12.22101 42.1518,22.12724 2.18335,1.56769 2.25287,1.53047 2.34689,-1.25643 0.23133,-6.85678 -0.3988,-11.48036 -2.84459,-20.87197 -4.19621,-16.11314 -3.1087,-28.36575 2.79826,-31.52706 1.60208,-0.85741 2.70991,-0.66606 5.25671,0.90795 4.84045,2.99156 6.81395,5.46221 15.27189,19.11911 4.25779,6.875 9.76369,15.7625 12.23532,19.75 2.47164,3.9875 4.80923,7.25 5.19466,7.25 0.73291,0 2.24805,-11.80131 2.34081,-18.23235 0.0296,-2.05279 0.34237,-3.26548 0.69503,-2.69487 0.35266,0.57061 1.41923,-0.99978 2.37017,-3.48977 C 902.01729,600.38787 910.79003,591 913.10815,591 c 0.49052,0 0.88617,-2.8125 0.87923,-6.25 l -0.0126,-6.25 -5.54271,-4.86134 c -3.04849,-2.67373 -5.82117,-4.58288 -6.16151,-4.24254 -0.34033,0.34034 -1.55294,-0.91854 -2.69467,-2.79752 -1.14173,-1.87897 -5.44593,-8.38861 -9.5649,-14.46585 -6.98004,-10.29854 -7.62571,-10.96101 -9.5,-9.74705 -1.10603,0.71637 -7.18597,4.28377 -13.51097,7.92758 -11.9488,6.88364 -20.45778,9.63262 -44,14.215 -20.85347,4.05902 -60.31056,2.33514 -55.49164,-2.42443 0.64764,-0.63966 3.59341,-0.48106 8.49164,0.45718 16.25184,3.11301 38.44856,1.32845 64.77165,-5.20748 11.40784,-2.83253 15.92349,-4.49412 22.50358,-8.28047 12.51284,-7.20022 17.10802,-10.14291 18.41735,-11.79423 0.9965,-1.25677 2.36751,0.28198 8.33838,9.35854 3.93019,5.97444 7.85078,11.65011 8.71241,12.61261 1.66253,1.85716 3.80037,2.4388 2.75663,0.75 -0.33992,-0.55 -0.11115,-1 0.50837,-1 0.68663,0 0.86805,0.81402 0.46466,2.08497 -0.52073,1.64068 0.44214,3.13229 4.51871,7 2.84925,2.70326 5.7555,4.91503 6.45832,4.91503 0.99838,0 1.42774,-7.38166 1.96311,-33.75 0.37688,-18.5625 1.09302,-48.6 1.59142,-66.75 0.0203,-33.07021 1.94632,-81.81137 2.6764,-106.10972 0.82603,-6.5264 1.37058,-14.74748 -1.45323,-20.04663 -1.95795,-2.44365 -8.08772,-6.33428 -9.98866,-6.33991 -2.32197,-0.007 -10.07421,-4.13165 -10.66661,-5.67544 -0.35135,-0.91559 1.04395,-3.57215 3.4893,-6.64337 2.24112,-2.81473 4.32179,-6.35283 4.62371,-7.86245 0.40099,-2.00491 1.4473,-3.04123 3.88174,-3.84467 3.92084,-1.294 9.43276,-7.17922 9.43276,-10.07162 0,-1.11332 0.45,-1.74611 1,-1.40619 0.55,0.33992 1,-0.0976 1,-0.97237 0,-0.87472 0.65039,-1.83998 1.4453,-2.14501 3.30506,-1.26827 10.10335,-23.96623 12.99359,-43.38262 5.24187,-35.21458 4.08031,-67.16767 -4.08961,-112.5 -4.748,-26.34515 -6.25288,-31.16429 -15.74812,-50.430972 -4.10666,-8.332769 -5.30084,-11.6366 -4.40599,-12.189647 0.82089,-0.507341 2.16574,0.956927 4.05954,4.420003 3.90191,7.135193 11.18973,23.211896 13.11714,28.935996 3.82347,11.35508 10.62,51.48838 12.57663,74.26462 3.12482,36.37455 -1.36758,78.493 -11.05093,103.60788 l -2.93331,7.60788 4.93242,10.56293 c 7.87415,16.86274 16.71984,31.21995 30.55088,49.58634 10.0971,13.40804 11.23981,15.26998 13.51317,22.01834 2.14993,6.38196 2.51436,9.30823 1.30931,10.51328 -0.40149,0.40149 -8.16399,-6.87959 -17.25,-16.18019 -9.08601,-9.3006 -18.28428,-18.33272 -20.4406,-20.07139 -4.90702,-3.95661 -14.5572,-8.59067 -15.57497,-7.47919 -0.42008,0.45877 -1.51579,32.33412 -2.4349,70.83412 -0.91911,38.5 -2.09154,84.85 -2.60541,103 -0.51387,18.15 -0.92826,37.5 -0.92086,43 l 0.0134,10 5.52376,3.34365 c 3.03807,1.839 5.36183,3.864 5.16392,4.5 -0.19791,0.63599 -2.50767,2.28135 -5.13281,3.65635 -2.62514,1.375 -5.12859,3.175 -5.56321,4 -0.43462,0.825 -1.07681,17.25 -1.42708,36.5 -0.35027,19.25 -0.92742,42.60804 -1.28255,51.90677 l -0.6457,16.90676 2.40348,-0.74446 c 5.11627,-1.58472 6.13889,-1.18556 8.55226,3.33821 2.00078,3.75042 2.35008,5.83699 2.34366,14 -0.0137,17.33853 -3.46397,30.63091 -9.52385,36.69079 -4.51901,4.519 -5.75028,12.26236 -5.31126,33.40193 l 0.34266,16.5 5.39464,12 c 6.88694,15.31951 8.02608,20.27289 8.06974,35.09004 0.0558,18.93588 -3.66073,30.8947 -12.55717,40.4057 L 910,893.70741 l 0,9.14629 c 0,7.46338 -0.276,9.1463 -1.5,9.1463 -1.20833,0 -1.5,-1.55556 -1.5,-8 z m -6,-9.28635 5.5,-2.22491 0.64055,-11.49437 c 1.13265,-20.32479 1.94624,-90.248 1.13999,-97.97484 l -0.78054,-7.48047 -3.96988,5.48047 c -20.28073,27.99782 -22.98521,30.92297 -27.31858,29.54761 -2.59019,-0.82209 -3.22802,-2.55705 -3.91476,-10.64855 -0.40366,-4.75601 0.0493,-9.42054 1.63307,-16.81775 1.20541,-5.62999 2.02653,-10.73171 1.82471,-11.33716 -0.55767,-1.67301 -4.93239,6.39006 -10.70818,19.73632 -6.39626,14.77998 -10.51025,22.22634 -16.57448,30 -9.36832,12.00913 -11.64998,20.10716 -9.0094,31.97605 1.65702,7.44796 3.37628,10.64776 14.16493,26.36302 3.37009,4.90903 6.29509,9.42621 6.5,10.03819 0.20491,0.61198 3.52539,1.98613 7.37883,3.05368 16.64837,4.61221 25.35379,5.07555 33.49374,1.78271 z m 17.62487,-17.39251 c 1.34918,-2.84837 3.15374,-8.47337 4.01013,-12.5 2.05981,-9.68494 1.33458,-28.79622 -1.41625,-37.32114 C 919.08293,820.88101 913.9433,810 912.95266,810 912.34814,810 911,856.49028 911,877.33701 l 0,10.01162 2.58591,-2.42432 c 1.42225,-1.33337 3.68978,-4.7548 5.03896,-7.60317 z M 882.14194,804.25 c 2.85282,-3.118 13.80608,-17.90977 21.90241,-29.57798 l 5.43167,-7.82798 0.51199,-10.49781 c 0.28159,-5.77379 0.15522,-11.13318 -0.28084,-11.90975 -1.71673,-3.05734 -10.01095,-5.72572 -14.81249,-4.76542 -2.33558,0.46712 -3.19125,1.71642 -5.9501,8.68726 -1.77223,4.47792 -4.23824,10.17241 -5.48002,12.6544 C 880,767.93749 876,787.331 876,797.20374 c 0,4.65461 0.3,8.76293 0.66667,9.12959 1.28668,1.28669 2.9821,0.64158 5.47527,-2.08333 z m 39.34774,-64.61901 c 3.37609,-11.73341 4.44732,-29.05231 2.20388,-35.63099 -1.48566,-4.35655 -4.85774,-5.22182 -7.05876,-1.81127 -2.03911,3.15967 -3.41429,39.85658 -1.66052,44.31127 l 1.18108,3 1.92898,-2.36901 c 1.06094,-1.30296 2.59335,-4.67796 3.40534,-7.5 z M 911,725.78571 c 0,-11.18909 -0.2083,-12.98987 -1.35918,-11.75 C 906.7375,717.16355 894,734.2399 894,735.00436 c 0,0.44438 2.3625,1.12542 5.25,1.51342 2.8875,0.388 5.925,1.09154 6.75,1.56343 0.825,0.47188 2.2875,0.87166 3.25,0.88838 1.57991,0.0274 1.75,-1.25392 1.75,-13.18388 z m -11.31809,-15.56796 c 2.00297,-1.27376 5.39118,-15.2414 6.00397,-24.75093 0.43337,-6.72523 0.17544,-10.42994 -1.00953,-14.5 C 903.19564,665.88097 897.74522,657 896.10466,657 c -0.39727,0 -3.25552,1.52541 -6.35165,3.38981 -5.16633,3.111 -6.1485,3.35345 -11.94118,2.94776 -3.4715,-0.24312 -6.94614,-0.0101 -7.72141,0.51783 -2.18492,1.48787 0.14962,6.15642 8.60468,17.20745 5.62236,7.34859 7.93086,11.39018 9.96985,17.45462 3.39887,10.10905 7.18921,14.13449 11.01696,11.70028 z M 890,656.12608 l 5.5,-3.72016 -0.18133,-5.53257 c -0.27151,-8.28391 -3.07446,-14.92897 -13.1249,-31.11565 -5.00879,-8.06689 -9.98783,-16.37496 -11.06453,-18.46239 -2.52621,-4.89759 -10.06594,-12.45415 -12.04595,-12.07283 -4.8423,0.93254 -5.1522,16.46811 -0.63389,31.77752 1.86759,6.32793 2.514,10.85115 2.52962,17.70078 0.0242,10.59573 1.4376,18.47702 4.10178,22.87144 l 1.86257,3.07222 8.77832,-0.3991 c 8.16993,-0.37144 9.15949,-0.65692 14.27831,-4.11926 z m 32.66836,-70.39849 C 923.28416,584.7312 920.45632,582 918.80887,582 918.36399,582 918,583.30787 918,584.90638 c 0,2.42154 0.33624,2.81845 2.01558,2.37929 1.10857,-0.28989 2.30232,-0.99103 2.65278,-1.55808 z m 47.78336,-206.89845 c -1.46421,-2.93102 -3.89301,-6.67914 -5.39735,-8.32914 -8.07896,-8.86123 -24.44372,-34.1146 -33.15766,-51.16743 -3.70068,-7.24209 -6.99136,-12.90459 -7.31261,-12.58333 -0.32126,0.32125 -0.5841,9.3094 -0.5841,19.97366 l 0,19.38956 4.75,2.08996 c 8.37899,3.68668 15.4282,9.30899 29.74665,23.72535 7.69815,7.75079 14.13628,13.67344 14.30695,13.16144 0.17067,-0.51201 -0.88768,-3.32904 -2.35188,-6.26007 z M 919.64994,339.25 c 0.12317,-2.73395 0.47003,-24.64054 0.40652,-25.67431 -0.0312,-0.50838 -1.06929,10e-4 -2.30679,1.13302 -1.2375,1.13154 -3.7125,2.79654 -5.5,3.7 -1.7875,0.90346 -3.25,2.0306 -3.25,2.50476 0,0.47416 -1.575,3.15175 -3.5,5.95021 -1.925,2.79846 -3.5,5.69073 -3.5,6.42728 0,0.74644 2.882,2.35661 6.51128,3.63785 3.58121,1.26428 6.75776,2.6975 7.05902,3.18494 0.97532,1.5781 3.9988,0.93802 4.07997,-0.86375 z M 474.5,621 c -0.33992,-0.55 -0.0352,-1.6566 0.0261,-2.21218 1.53257,-4.39016 -0.55408,-1.27633 5.08385,-9.86416 1.94672,-2.98301 6.09335,-7.74153 9.21474,-10.57448 l 5.67526,-5.15083 -3,-0.69452 c -11.25992,-2.60673 -14.5,-3.8399 -14.5,-5.51864 0,-1.58682 0.35225,-1.6299 3.75155,-0.45874 3.54901,1.22273 11.15135,2.78755 19.49845,4.01344 4.93295,0.72447 4.96475,3.1416 0.0534,4.06296 -5.22507,0.98023 -16.81682,12.74439 -20.82429,21.13401 -2.98237,6.24358 -3.82363,7.13282 -4.97916,5.26314 z M 0,454.55578 c 0,-0.83302 2.0357177,-3.39105 4.5238172,-5.6845 C 11.111723,442.79876 18.659516,432.31266 27.346657,417.16365 38.292636,398.07558 38.432894,397.44933 38.469469,367.5 c 0.03047,-24.95247 0.03559,-25.01079 2.691842,-30.67712 6.562879,-13.99996 23.371626,-15.91499 28.952472,-3.29856 3.161948,7.14811 2.093814,10.94012 -6.774942,24.05191 -6.324435,9.3502 -7.142982,13.54445 -3.257373,16.69082 1.907982,1.54499 3.310825,1.81396 6.897125,1.32241 6.000485,-0.82246 26.832998,-12.21465 29.538623,-16.1531 1.109469,-1.615 2.796969,-2.99886 3.750004,-3.07525 5.88341,-0.47158 -4.004695,8.5395 -17.504665,15.95209 -13.285549,7.29485 -19.564946,8.40685 -24.417196,4.32395 -6.031852,-5.07547 -5.233059,-10.18832 3.435175,-21.98759 2.77639,-3.77924 5.543385,-8.87888 6.171907,-11.37497 1.019189,-4.04756 0.897267,-5.01128 -1.156576,-9.14196 -1.73394,-3.48729 -3.074103,-4.83332 -5.475524,-5.49952 -4.944896,-1.37179 -9.785365,0.0319 -13.737128,3.98368 -5.50334,5.50334 -6.071681,8.85125 -6.176397,36.38321 -0.110768,29.12319 -0.22031,29.6238 -10.436129,47.69371 C 21.611159,433.24899 17.288726,439.54918 9.7910007,447.56427 2.9568388,454.87001 0,456.98141 0,454.55578 z M 98.468957,354.42754 c -0.332492,-1.06015 -1.474027,-3.85208 -2.536744,-6.20429 -3.854428,-8.53137 -1.583933,-17.22676 5.571187,-21.33615 1.64813,-0.94657 7.61743,-2.68402 13.26511,-3.86099 10.92689,-2.27716 31.97287,-10.22649 46.54194,-17.57949 4.84575,-2.44564 9.00825,-4.44662 9.25,-4.44662 0.24175,0 0.43955,0.61926 0.43955,1.37613 0,3.37352 -37.62223,19.42661 -54.5,23.2547 -6.05,1.37221 -12.34899,3.27877 -13.99776,4.23679 -6.007349,3.4906 -7.06437,10.11615 -2.918992,18.29666 2.330742,4.5995 2.432082,5.24896 1.036742,6.6443 -1.395336,1.39534 -1.605592,1.35809 -2.151033,-0.38104 z"
     id="path2991"
     inkscape:connector-curvature="0"
     sodipodi:nodetypes="sscssssssssssssssssssscsssssssssssssssscscsssssssscsscssscsssssssssssccsssscsssscscssssscsssssssssscssssscsssssssssssssssscssssssscsssssssssssscssssssssssssssssscsssssssssssscsssssssssssssscssssssssssssssssssccscccsscccccscccssssssssssssccssssssssssssssssssscsssssssssssssssssscscsssssssscscsscsssssssscssssssssscsssssssssscsssssscccscscssssscscssssssscssssscsssssscscssscsssssssssssscssscscsssssssccscscscsssssscccssssscsssssssssssscsscssssscsccsssscsssssssssscssssssscsscscsssssssssssscsssssssssssssssssssssssssssssssssssscscssssssssssssssssssccccsssssssssssssssscsssssssssscsssssscssssscssscsssscsscssssssssssssssssscsssscsssssscssssscssssssscsssssssssssscssssssscsssssssssscscsssssccssssssscccscssssssccssssssssssssssssssssssssssssssssss" />
  <path
     style="fill:none;stroke:#000000;stroke-width:3.5;stroke-linecap:butt;stroke-linejoin:miter;stroke-opacity:1;stroke-miterlimit:4;stroke-dasharray:none"
     d="M 74.347227,358.06887 479.21637,324.53181 474.7717,623.53696"
     id="path2993"
     inkscape:connector-curvature="0" />
  <path
     style="fill:none;stroke:#000000;stroke-width:3.5;stroke-linecap:butt;stroke-linejoin:miter;stroke-opacity:1;stroke-miterlimit:4;stroke-dasharray:none"
     d="m 406.48538,330.59272 c 14.62353,25.85309 29.52454,51.58878 71.5188,65.86195"
     id="path2995"
     inkscape:connector-curvature="0"
     sodipodi:nodetypes="cc" />
  <path
     style="fill:none;stroke:#000000;stroke-width:3.5;stroke-linecap:butt;stroke-linejoin:miter;stroke-opacity:1;stroke-miterlimit:4;stroke-dasharray:none"
     d="m 545.88644,320.4912 150.71475,-8.88934 36.76956,300.62139"
     id="path2997"
     inkscape:connector-curvature="0" />
  <path
     style="fill:none;stroke:#000000;stroke-width:3.5;stroke-linecap:butt;stroke-linejoin:miter;stroke-opacity:1;stroke-miterlimit:4;stroke-dasharray:none"
     d="m 606.09153,316.85465 c 28.60539,30.18028 51.07857,64.44872 101.01525,80.40814"
     id="path2999"
     inkscape:connector-curvature="0"
     sodipodi:nodetypes="cc" />
  <path
     style="fill:none;stroke:#000000;stroke-width:3.5;stroke-linecap:butt;stroke-linejoin:miter;stroke-opacity:1;stroke-miterlimit:4;stroke-dasharray:none"
     d="M 791.9596,316.04653 922.4713,303.52064 896.6114,628.78976"
     id="path3001"
     inkscape:connector-curvature="0" />
  <path
     style="fill:none;stroke:#000000;stroke-width:3.5;stroke-linecap:butt;stroke-linejoin:miter;stroke-opacity:1;stroke-miterlimit:4;stroke-dasharray:none"
     d="m 836.81037,311.60186 c 15.95013,26.08503 35.66858,51.88517 79.24647,71.59456"
     id="path3003"
     inkscape:connector-curvature="0"
     sodipodi:nodetypes="cc" />
  <text
     xml:space="preserve"
     style="font-size:40px;font-style:normal;font-weight:normal;line-height:125%;letter-spacing:0px;word-spacing:0px;fill:#000000;fill-opacity:1;stroke:none;font-family:Bitstream Vera Sans"
     x="386.28235"
     y="966.52386"
     id="text3005"
     sodipodi:linespacing="125%"><tspan
       sodipodi:role="line"
       id="tspan3007"
       x="386.28235"
       y="966.52386"
       style="font-style:normal;font-variant:normal;font-weight:normal;font-stretch:normal;font-family:cmr10;-inkscape-font-specification:cmr10">A</tspan></text>
  <text
     xml:space="preserve"
     style="font-size:40px;font-style:normal;font-weight:normal;line-height:125%;letter-spacing:0px;word-spacing:0px;fill:#000000;fill-opacity:1;stroke:none;font-family:Bitstream Vera Sans"
     x="624.28235"
     y="966.52386"
     id="text3005-6"
     sodipodi:linespacing="125%"><tspan
       sodipodi:role="line"
       id="tspan3007-4"
       x="624.28235"
       y="966.52386"
       style="font-style:normal;font-variant:normal;font-weight:normal;font-stretch:normal;font-family:cmr10;-inkscape-font-specification:cmr10">B</tspan></text>
  <text
     xml:space="preserve"
     style="font-size:40px;font-style:normal;font-weight:normal;line-height:125%;letter-spacing:0px;word-spacing:0px;fill:#000000;fill-opacity:1;stroke:none;font-family:Bitstream Vera Sans"
     x="844.28235"
     y="966.52386"
     id="text3005-1"
     sodipodi:linespacing="125%"><tspan
       sodipodi:role="line"
       id="tspan3007-2"
       x="844.28235"
       y="966.52386"
       style="font-style:normal;font-variant:normal;font-weight:normal;font-stretch:normal;font-family:cmr10;-inkscape-font-specification:cmr10">C</tspan></text>
  <text
     xml:space="preserve"
     style="font-size:32px;font-style:normal;font-weight:normal;line-height:125%;letter-spacing:0px;word-spacing:0px;fill:#000000;fill-opacity:1;stroke:none;font-family:Bitstream Vera Sans"
     x="458.28235"
     y="810.52386"
     id="text3005-8"
     sodipodi:linespacing="125%"><tspan
       sodipodi:role="line"
       id="tspan3007-8"
       x="458.28235"
       y="810.52386"
       style="font-style:normal;font-variant:normal;font-weight:normal;font-stretch:normal;font-family:cmr10;-inkscape-font-specification:cmr10;font-size:32px">B</tspan></text>
  <text
     xml:space="preserve"
     style="font-size:32px;font-style:normal;font-weight:normal;line-height:125%;letter-spacing:0px;word-spacing:0px;fill:#000000;fill-opacity:1;stroke:none;font-family:Bitstream Vera Sans"
     x="676.28235"
     y="806.52386"
     id="text3005-8-9"
     sodipodi:linespacing="125%"><tspan
       sodipodi:role="line"
       id="tspan3007-8-2"
       x="676.28235"
       y="806.52386"
       style="font-size:32px;font-style:normal;font-variant:normal;font-weight:normal;font-stretch:normal;font-family:cmr10;-inkscape-font-specification:cmr10">B</tspan></text>
  <text
     xml:space="preserve"
     style="font-size:32px;font-style:normal;font-weight:normal;line-height:125%;letter-spacing:0px;word-spacing:0px;fill:#000000;fill-opacity:1;stroke:none;font-family:Bitstream Vera Sans"
     x="918.28235"
     y="804.52386"
     id="text3005-8-8"
     sodipodi:linespacing="125%"><tspan
       sodipodi:role="line"
       id="tspan3007-8-8"
       x="918.28235"
       y="804.52386"
       style="font-size:32px;font-style:normal;font-variant:normal;font-weight:normal;font-stretch:normal;font-family:cmr10;-inkscape-font-specification:cmr10">B</tspan></text>
  <text
     xml:space="preserve"
     style="font-size:32px;font-style:normal;font-weight:normal;line-height:125%;letter-spacing:0px;word-spacing:0px;fill:#000000;fill-opacity:1;stroke:none;font-family:Bitstream Vera Sans"
     x="478.28235"
     y="646.52386"
     id="text3005-8-86"
     sodipodi:linespacing="125%"><tspan
       sodipodi:role="line"
       id="tspan3007-8-83"
       x="478.28235"
       y="646.52386"
       style="font-size:32px;font-style:normal;font-variant:normal;font-weight:normal;font-stretch:normal;font-family:cmr10;-inkscape-font-specification:cmr10">A</tspan></text>
  <text
     xml:space="preserve"
     style="font-size:32px;font-style:normal;font-weight:normal;line-height:125%;letter-spacing:0px;word-spacing:0px;fill:#000000;fill-opacity:1;stroke:none;font-family:Bitstream Vera Sans"
     x="736.28235"
     y="604.52386"
     id="text3005-8-86-8"
     sodipodi:linespacing="125%"><tspan
       sodipodi:role="line"
       id="tspan3007-8-83-3"
       x="736.28235"
       y="604.52386"
       style="font-size:32px;font-style:normal;font-variant:normal;font-weight:normal;font-stretch:normal;font-family:cmr10;-inkscape-font-specification:cmr10">A</tspan></text>
  <text
     xml:space="preserve"
     style="font-size:32px;font-style:normal;font-weight:normal;line-height:125%;letter-spacing:0px;word-spacing:0px;fill:#000000;fill-opacity:1;stroke:none;font-family:Bitstream Vera Sans"
     x="868.28235"
     y="648.52386"
     id="text3005-8-86-3"
     sodipodi:linespacing="125%"><tspan
       sodipodi:role="line"
       id="tspan3007-8-83-38"
       x="868.28235"
       y="648.52386"
       style="font-size:32px;font-style:normal;font-variant:normal;font-weight:normal;font-stretch:normal;font-family:cmr10;-inkscape-font-specification:cmr10">A</tspan></text>
  <text
     xml:space="preserve"
     style="font-size:32px;font-style:normal;font-weight:normal;line-height:125%;letter-spacing:0px;word-spacing:0px;fill:#000000;fill-opacity:1;stroke:none;font-family:Bitstream Vera Sans"
     x="488.28235"
     y="334.52386"
     id="text3005-8-86-0"
     sodipodi:linespacing="125%"><tspan
       sodipodi:role="line"
       id="tspan3007-8-83-4"
       x="488.28235"
       y="334.52386"
       style="font-size:32px;font-style:normal;font-variant:normal;font-weight:normal;font-stretch:normal;font-family:cmr10;-inkscape-font-specification:cmr10">N</tspan></text>
  <text
     xml:space="preserve"
     style="font-size:32px;font-style:normal;font-weight:normal;line-height:125%;letter-spacing:0px;word-spacing:0px;fill:#000000;fill-opacity:1;stroke:none;font-family:Bitstream Vera Sans"
     x="710.28235"
     y="326.52386"
     id="text3005-8-86-0-7"
     sodipodi:linespacing="125%"><tspan
       sodipodi:role="line"
       id="tspan3007-8-83-4-6"
       x="710.28235"
       y="326.52386"
       style="font-size:32px;font-style:normal;font-variant:normal;font-weight:normal;font-stretch:normal;font-family:cmr10;-inkscape-font-specification:cmr10">N</tspan></text>
  <text
     xml:space="preserve"
     style="font-size:32px;font-style:normal;font-weight:normal;line-height:125%;letter-spacing:0px;word-spacing:0px;fill:#000000;fill-opacity:1;stroke:none;font-family:Bitstream Vera Sans"
     x="938.28235"
     y="318.52386"
     id="text3005-8-86-0-8"
     sodipodi:linespacing="125%"><tspan
       sodipodi:role="line"
       id="tspan3007-8-83-4-9"
       x="938.28235"
       y="318.52386"
       style="font-size:32px;font-style:normal;font-variant:normal;font-weight:normal;font-stretch:normal;font-family:cmr10;-inkscape-font-specification:cmr10">N</tspan></text>
  <text
     xml:space="preserve"
     style="font-size:32px;font-style:normal;font-weight:normal;line-height:125%;letter-spacing:0px;word-spacing:0px;fill:#000000;fill-opacity:1;stroke:none;font-family:Bitstream Vera Sans"
     x="74.282349"
     y="350.52386"
     id="text3005-8-86-0-0"
     sodipodi:linespacing="125%"><tspan
       sodipodi:role="line"
       id="tspan3007-8-83-4-68"
       x="74.282349"
       y="350.52386"
       style="font-size:32px;font-style:normal;font-variant:normal;font-weight:normal;font-stretch:normal;font-family:cmr10;-inkscape-font-specification:cmr10">S</tspan></text>
  <text
     xml:space="preserve"
     style="font-size:40px;font-style:normal;font-weight:normal;line-height:125%;letter-spacing:0px;word-spacing:0px;fill:#000000;fill-opacity:1;stroke:none;font-family:Bitstream Vera Sans"
     x="413.71429"
     y="317.14285"
     id="text3165"
     sodipodi:linespacing="125%"><tspan
       sodipodi:role="line"
       id="tspan3167"
       x="413.71429"
       y="317.14285"
       style="font-size:32px">82°</tspan></text>
  <text
     xml:space="preserve"
     style="font-size:40px;font-style:normal;font-weight:normal;line-height:125%;letter-spacing:0px;word-spacing:0px;fill:#000000;fill-opacity:1;stroke:none;font-family:Bitstream Vera Sans"
     x="632"
     y="309.14285"
     id="text3169"
     sodipodi:linespacing="125%"><tspan
       sodipodi:role="line"
       id="tspan3171"
       x="632"
       y="309.14285"
       style="font-size:32px">91°</tspan></text>
  <text
     xml:space="preserve"
     style="font-size:32px;font-style:normal;font-weight:normal;line-height:125%;letter-spacing:0px;word-spacing:0px;fill:#000000;fill-opacity:1;stroke:none;font-family:Bitstream Vera Sans"
     x="873.14282"
     y="292"
     id="text3173"
     sodipodi:linespacing="125%"><tspan
       sodipodi:role="line"
       id="tspan3175"
       x="873.14282"
       y="292">77°</tspan></text>
</svg>
