<?xml version="1.0" encoding="UTF-8" standalone="no"?>
<!-- Created with Inkscape (http://www.inkscape.org/) -->

<svg
   xmlns:dc="http://purl.org/dc/elements/1.1/"
   xmlns:cc="http://creativecommons.org/ns#"
   xmlns:rdf="http://www.w3.org/1999/02/22-rdf-syntax-ns#"
   xmlns:svg="http://www.w3.org/2000/svg"
   xmlns="http://www.w3.org/2000/svg"
   xmlns:sodipodi="http://sodipodi.sourceforge.net/DTD/sodipodi-0.dtd"
   xmlns:inkscape="http://www.inkscape.org/namespaces/inkscape"
   version="1.1"
   width="997"
   height="1221"
   id="svg2"
   inkscape:version="0.48.1 r9760"
   sodipodi:docname="steiner_interincisale.svg">
  <sodipodi:namedview
     pagecolor="#ffffff"
     bordercolor="#666666"
     borderopacity="1"
     objecttolerance="10"
     gridtolerance="10"
     guidetolerance="10"
     inkscape:pageopacity="0"
     inkscape:pageshadow="2"
     inkscape:window-width="1280"
     inkscape:window-height="749"
     id="namedview13"
     showgrid="false"
     inkscape:zoom="0.22031122"
     inkscape:cx="-252.73921"
     inkscape:cy="1187.6353"
     inkscape:window-x="0"
     inkscape:window-y="29"
     inkscape:window-maximized="1"
     inkscape:current-layer="svg2" />
  <metadata
     id="metadata8">
    <rdf:RDF>
      <cc:Work
         rdf:about="">
        <dc:format>image/svg+xml</dc:format>
        <dc:type
           rdf:resource="http://purl.org/dc/dcmitype/StillImage" />
        <dc:title />
      </cc:Work>
    </rdf:RDF>
  </metadata>
  <defs
     id="defs6" />
  <path
     d="m 502.80899,249.65169 c -4.14931,3.32075 -3.08976,22.84683 -3.37079,38.20224 6.48683,48.07242 24.11091,94.90736 38.20225,142.13483 9.86472,20.90369 16.92817,43.76826 30.89888,61.79776 3.64129,-2.25097 5.67158,-5.08776 14.04494,-5.61798 15.54311,-0.74888 32.04999,2.83922 46.62921,-2.24719 5.28595,-3.31766 11.65237,-5.28473 13.48315,-12.92135 7.23361,-13.58361 15.39595,-25.943 32.58427,-26.40449 l -60.67416,-89.32585 c -24.02818,-34.72858 -41.0966,-52.67186 -57.43123,-68.84541 l -37.46803,-30.89887 c -13.34106,-8.06024 -14.08949,-6.15132 -16.89849,-5.87369 z"
     id="path2987"
     style="fill:none;stroke:#000000;stroke-width:3.5;stroke-linecap:butt;stroke-linejoin:miter;stroke-opacity:1;stroke-miterlimit:4;stroke-dasharray:none" />
  <path
     d="m 568.7931,491.86207 c -0.16703,5.34483 0.86411,10.68965 4.13793,16.03448 6.58317,10.27168 28.29858,20.90366 43.44828,31.37931 5.7551,4.92361 11.27918,8.13924 23.29355,22.04934 4.57648,5.29861 9.75833,10.69587 14.63749,17.77825 6.87823,10.34748 14.21479,20.0533 22.24137,28.7931 6.67374,2.60237 11.29853,8.01372 20,7.75862 3.30085,-1.18695 6.58058,-2.58508 9.65518,-6.03448 2.64662,-6.31699 6.09355,-1.3567 5.34482,-55.51724 -3.31877,-25.74441 -6.72863,-49.34828 -10.68965,-60 -7.63524,-25.61881 -12.91424,-40.71571 -19.82759,-47.58621 -1.44587,-1.71352 -3.42807,-1.95211 -5.51724,-1.89655"
     id="path2989"
     style="fill:none;stroke:#000000;stroke-width:3.5;stroke-linecap:butt;stroke-linejoin:miter;stroke-opacity:1;stroke-miterlimit:4;stroke-dasharray:none" />
  <path
     d="m 443.82979,903.12766 c 3.61795,2.93656 11.88662,4.64826 18.82978,4.46808 1.35181,0.6098 15.54089,-3.04449 32.27207,-23.08537 4.57047,-5.47458 9.39881,-9.75034 12.72793,-13.72314 l 53.61703,-72.34042 c 20.65776,-30.03002 37.68522,-73.66701 56.07464,-90.96985 2.47308,-2.32696 2.38964,-6.45735 3.49982,-9.88122 -10.41179,1.37875 -15.56917,-5.50703 -23.61702,-10.95744 -5.21154,-8.29483 -1.80944,-16.68343 -19.3617,-26.48936 -13.33083,-4.08896 -19.8897,-0.88504 -29.78723,-1.2766 l -9.36171,-5.10638 c -6.42699,3.4944 -13.54117,5.0745 -16.17021,19.14893 l -5.10638,19.57447 C 502.0179,716.95722 499.12949,725.06791 490,741.31915 c -9.71395,22.93647 -20.82223,44.65289 -28.51064,69.3617 l -20.21276,72.02128 c 0.3351,7.55379 -0.16717,16.31711 2.55319,20.42553 z"
     id="path2991"
     style="fill:none;stroke:#000000;stroke-width:3.5;stroke-linecap:butt;stroke-linejoin:miter;stroke-opacity:1;stroke-miterlimit:4;stroke-dasharray:none" />
  <path
     d="m 538.93617,653.76596 0.74468,-7.34043 c -0.0524,-2.2792 0.93907,-3.96187 2.87234,-5.10638 1.87943,-0.34445 4.60993,-1.30625 6.70213,-1.80851 5.02041,0.29241 25.51279,-16.47542 40,-36.48936 8.0724,-12.40383 16.5003,-18.09944 22.66919,-33.98212 1.70779,-4.39695 3.99152,-8.84739 7.64996,-12.72001 1.36463,-0.66325 3.26291,-1.26232 10.10638,-0.85107 1.04574,0.0876 2.12278,0.49228 4.25532,2.23405 0.91062,0.48366 1.92847,1.13583 4.78723,4.68085 0.6359,1.77665 1.20054,3.66018 1.2766,6.27659 1.17462,26.49734 1.84713,52.89425 0.21277,78.82979 -5.69956,49.95426 -12.81119,43.07305 -19.57447,50.21277"
     id="path2993"
     style="fill:none;stroke:#000000;stroke-width:3.5;stroke-linecap:butt;stroke-linejoin:miter;stroke-opacity:1;stroke-miterlimit:4;stroke-dasharray:none" />
  <path
     d="M 282.97872,1221 646.38298,526.10638"
     id="path2995"
     style="fill:none;stroke:#000000;stroke-width:3.5;stroke-linecap:butt;stroke-linejoin:miter;stroke-opacity:1;stroke-miterlimit:4;stroke-dasharray:none" />
  <path
     d="M 795.31915,810.3617 371.06383,-0.27659574"
     id="path2997"
     style="fill:none;stroke:#000000;stroke-width:3.5;stroke-linecap:butt;stroke-linejoin:miter;stroke-opacity:1;stroke-miterlimit:4;stroke-dasharray:none" />
  <path
     d="m 605.53192,448.44681 c -107.07738,40.25631 -57.68415,152.68253 0,155.31915"
     id="path2999"
     style="fill:none;stroke:#000000;stroke-width:3.5;stroke-linecap:butt;stroke-linejoin:miter;stroke-opacity:1;stroke-miterlimit:4;stroke-dasharray:none" />
</svg>
