<?xml version="1.0" encoding="UTF-8" standalone="no"?>
<!-- Created with Inkscape (http://www.inkscape.org/) -->

<svg
   xmlns:dc="http://purl.org/dc/elements/1.1/"
   xmlns:cc="http://creativecommons.org/ns#"
   xmlns:rdf="http://www.w3.org/1999/02/22-rdf-syntax-ns#"
   xmlns:svg="http://www.w3.org/2000/svg"
   xmlns="http://www.w3.org/2000/svg"
   xmlns:sodipodi="http://sodipodi.sourceforge.net/DTD/sodipodi-0.dtd"
   xmlns:inkscape="http://www.inkscape.org/namespaces/inkscape"
   version="1.1"
   width="1009"
   height="1229"
   id="svg2"
   inkscape:version="0.48.1 r9760"
   sodipodi:docname="steiner_incisivo_inferiore.svg">
  <sodipodi:namedview
     pagecolor="#ffffff"
     bordercolor="#666666"
     borderopacity="1"
     objecttolerance="10"
     gridtolerance="10"
     guidetolerance="10"
     inkscape:pageopacity="0"
     inkscape:pageshadow="2"
     inkscape:window-width="1280"
     inkscape:window-height="749"
     id="namedview31"
     showgrid="false"
     inkscape:zoom="0.43775427"
     inkscape:cx="293.01624"
     inkscape:cy="568.80592"
     inkscape:window-x="0"
     inkscape:window-y="29"
     inkscape:window-maximized="1"
     inkscape:current-layer="svg2" />
  <metadata
     id="metadata8">
    <rdf:RDF>
      <cc:Work
         rdf:about="">
        <dc:format>image/svg+xml</dc:format>
        <dc:type
           rdf:resource="http://purl.org/dc/dcmitype/StillImage" />
        <dc:title />
      </cc:Work>
    </rdf:RDF>
  </metadata>
  <defs
     id="defs6">
    <marker
       refX="0"
       refY="0"
       orient="auto"
       id="Arrow1Mend"
       style="overflow:visible">
      <path
         d="M 0,0 5,-5 -12.5,0 5,5 0,0 z"
         transform="matrix(-0.4,0,0,-0.4,-4,0)"
         id="path3787"
         style="fill-rule:evenodd;stroke:#000000;stroke-width:1pt;marker-start:none" />
    </marker>
    <marker
       refX="0"
       refY="0"
       orient="auto"
       id="Arrow1Mstart"
       style="overflow:visible">
      <path
         d="M 0,0 5,-5 -12.5,0 5,5 0,0 z"
         transform="matrix(0.4,0,0,0.4,4,0)"
         id="path3784"
         style="fill-rule:evenodd;stroke:#000000;stroke-width:1pt;marker-start:none" />
    </marker>
  </defs>
  <path
     d="m 458.05728,600.51816 c 4.0818,1.55924 8.42995,3.69049 12.92947,3.97952 5.94952,0.38216 9.86896,-1.57696 12.83754,-1.83706 22.39069,-1.96187 26.14907,3.69689 32.47707,11.8417 3.81151,4.90581 5.36505,8.78329 12.28756,15.90985 3.97865,4.09593 10.32226,5.24639 15.66619,8.07389 l -19.13174,45.25941 c -7.36501,4.84177 -51.37578,80.20935 -77.38359,120.92972 -18.24683,20.48047 -35.29307,38.20404 -43.40335,35.40799 -8.41591,-3.18336 -8.44149,-12.78286 -10.85083,-20.55948 -1.08315,-16.7222 0.81469,-29.18586 2.28438,-42.26115 7.3443,-32.46685 15.50388,-62.89549 25.12825,-89.66218 z"
     id="path2989"
     style="fill:none;stroke:#000000;stroke-width:3.5;stroke-linecap:butt;stroke-linejoin:miter;stroke-opacity:1;stroke-miterlimit:4;stroke-dasharray:none" />
  <path
     d="m 458.16903,600.49463 c -0.97431,-2.43246 -0.1391,-4.74825 0.7643,-6.42796 l 8.93334,-12.93334 c 6.01252,-6.82379 11.64444,-10.22222 17.46666,-15.33333 l 16.70572,-14.16569 c 18.23342,-21.49932 23.43156,-41.62904 38.3219,-62.8982 2.63083,-3.43808 8.84057,-4.59867 14.03905,-6.40278 11.07158,10.18601 10.01367,21.98929 14.4,33.06667 2.91095,27.47697 0.62241,54.71336 -3.43431,81.44379 -2.15527,8.12952 -4.08363,18.30119 -6.69902,22.28954 -8.33836,16.64495 -10.72709,16.88748 -13.86667,19.2 l -0.73068,0.28284"
     id="path2991"
     style="fill:none;stroke:#000000;stroke-width:3.5;stroke-linecap:butt;stroke-linejoin:miter;stroke-opacity:1;stroke-miterlimit:4;stroke-dasharray:none" />
  <path
     d="m 420.49283,689.3361 c -19.69348,25.5288 -37.76646,72.93448 -56.56854,110.49722 l -30.16989,102.2005 c -7.90813,72.65719 -6.89641,94.9173 -4.90261,111.62858 3.47411,19.2877 9.8707,36.5126 21.87317,49.7803 12.49918,9.7224 23.55913,13.5678 34.69538,17.7248 l 45.25483,14.8964 c 51.01724,2.2399 62.20244,-5.1937 79.57308,-11.1251 16.37681,-7.673 30.72602,-17.5087 39.59798,-33.1869 8.23499,-15.5099 10.24196,-36.7865 4.90261,-64.86526 -3.44471,-22.1657 -15.78864,-43.52238 -24.13591,-65.24239 -21.57342,-42.49088 -27.99939,-72.35889 -31.67839,-99.93776 -4.16983,-42.3005 11.07767,-84.49441 24.83154,-127.42615 1.14873,-3.58568 0.0401,-6.42753 1.19,-10.0354"
     id="path2993"
     style="fill:none;stroke:#000000;stroke-width:3.5;stroke-linecap:butt;stroke-linejoin:miter;stroke-opacity:1;stroke-miterlimit:4;stroke-dasharray:none" />
  <path
     d="m 349.59359,1062.3114 c -7.40105,-3.5513 -18.94938,-10.5275 -22.20315,-10.6538 -14.40714,-1.9056 -27.73043,0.3171 -27.92463,0.172 -8.68534,-6.4894 -27.15246,-23.5705 -42.45607,-32.1332 -21.3307,-13.4609 -40.99878,-19.4401 -60.33977,-23.94736"
     id="path2995"
     style="fill:none;stroke:#000000;stroke-width:3.5;stroke-linecap:butt;stroke-linejoin:miter;stroke-opacity:1;stroke-miterlimit:4;stroke-dasharray:none" />
  <path
     d="m 570.11663,542.63502 0,-218.35458"
     id="path2997"
     style="fill:none;stroke:#000000;stroke-width:3.5;stroke-linecap:butt;stroke-linejoin:miter;stroke-opacity:1;stroke-miterlimit:4;stroke-dasharray:none" />
  <path
     d="M 591.14127,384.62022 304.52732,1083.996"
     id="path2999"
     style="fill:none;stroke:#000000;stroke-width:3.5;stroke-linecap:butt;stroke-linejoin:miter;stroke-opacity:1;stroke-miterlimit:4;stroke-dasharray:none" />
  <path
     d="M 499.88508,1220.397 495.67141,34.685028"
     id="path3001"
     style="fill:none;stroke:#000000;stroke-width:3.5;stroke-linecap:butt;stroke-linejoin:miter;stroke-opacity:1;stroke-miterlimit:4;stroke-dasharray:none" />
  <path
     d="m 385.14851,887.16832 c 27.51323,10.52741 53.06755,22.31281 113.67574,20.11139"
     id="path3003"
     style="fill:none;stroke:#000000;stroke-width:3.5;stroke-linecap:butt;stroke-linejoin:miter;stroke-opacity:1;stroke-miterlimit:4;stroke-dasharray:none" />
  <path
     d="m 498.10573,367.86139 70.4685,0"
     id="path3005"
     style="fill:none;stroke:#000000;stroke-width:0.98071396px;stroke-linecap:butt;stroke-linejoin:miter;stroke-opacity:1;marker-start:url(#Arrow1Mstart);marker-end:url(#Arrow1Mend)" />
  <path
     d="m 555.94683,1007.3858 -55.53521,-0.3521"
     id="path5188"
     style="fill:none;stroke:#000000;stroke-width:0.97519517px;stroke-linecap:butt;stroke-linejoin:miter;stroke-opacity:1;marker-start:url(#Arrow1Mstart);marker-end:url(#Arrow1Mend)" />
  <path
     d="m 510.42689,823.99829 a 9.053689,9.053689 0 1 1 -18.10738,0 9.053689,9.053689 0 1 1 18.10738,0 z"
     transform="translate(-2.6155103,-2.2131241)"
     id="path5560"
     style="fill:#000000;fill-opacity:1;fill-rule:nonzero;stroke:none" />
  <text
     x="510.62808"
     y="838.8866"
     id="text5562"
     xml:space="preserve"
     style="font-size:40px;font-style:normal;font-weight:normal;line-height:125%;letter-spacing:0px;word-spacing:0px;fill:#000000;fill-opacity:1;stroke:none;font-family:Bitstream Vera Sans"><tspan
       x="510.62808"
       y="838.8866"
       id="tspan5564"
       style="font-style:normal;font-variant:normal;font-weight:normal;font-stretch:normal;font-family:cmr10;-inkscape-font-specification:cmr10">B</tspan></text>
  <text
     x="478.01477"
     y="27.858185"
     id="text5562-7"
     xml:space="preserve"
     style="font-size:40px;font-style:normal;font-weight:normal;line-height:125%;letter-spacing:0px;word-spacing:0px;fill:#000000;fill-opacity:1;stroke:none;font-family:Bitstream Vera Sans"><tspan
       x="478.01477"
       y="27.858185"
       id="tspan5564-1"
       style="font-style:normal;font-variant:normal;font-weight:normal;font-stretch:normal;font-family:cmr10;-inkscape-font-specification:cmr10">N</tspan></text>
  <text
     x="576.19702"
     y="374.71509"
     id="text5562-3"
     xml:space="preserve"
     style="font-size:40px;font-style:normal;font-weight:normal;line-height:125%;letter-spacing:0px;word-spacing:0px;fill:#000000;fill-opacity:1;stroke:none;font-family:Bitstream Vera Sans"><tspan
       x="576.19702"
       y="374.71509"
       id="tspan5564-8"
       style="font-style:normal;font-variant:normal;font-weight:normal;font-stretch:normal;font-family:cmr10;-inkscape-font-specification:cmr10">4mm</tspan></text>
  <text
     x="565.73492"
     y="1005.8578"
     id="text5562-0"
     xml:space="preserve"
     style="font-size:40px;font-style:normal;font-weight:normal;line-height:125%;letter-spacing:0px;word-spacing:0px;fill:#000000;fill-opacity:1;stroke:none;font-family:Bitstream Vera Sans"><tspan
       x="565.73492"
       y="1005.8578"
       id="tspan5564-9"
       style="font-style:normal;font-variant:normal;font-weight:normal;font-stretch:normal;font-family:cmr10;-inkscape-font-specification:cmr10">4mm</tspan></text>
  <text
     x="389.30865"
     y="949.74396"
     id="text5614"
     xml:space="preserve"
     style="font-size:40px;font-style:normal;font-weight:normal;line-height:125%;letter-spacing:0px;word-spacing:0px;fill:#000000;fill-opacity:1;stroke:none;font-family:Bitstream Vera Sans"><tspan
       x="389.30865"
       y="949.74396"
       id="tspan5616">25°</tspan></text>
</svg>
