<?xml version="1.0" encoding="UTF-8" standalone="no"?>
<!-- Created with Inkscape (http://www.inkscape.org/) -->

<svg
   xmlns:dc="http://purl.org/dc/elements/1.1/"
   xmlns:cc="http://creativecommons.org/ns#"
   xmlns:rdf="http://www.w3.org/1999/02/22-rdf-syntax-ns#"
   xmlns:svg="http://www.w3.org/2000/svg"
   xmlns="http://www.w3.org/2000/svg"
   xmlns:xlink="http://www.w3.org/1999/xlink"
   xmlns:sodipodi="http://sodipodi.sourceforge.net/DTD/sodipodi-0.dtd"
   xmlns:inkscape="http://www.inkscape.org/namespaces/inkscape"
   version="1.1"
   width="2152"
   height="1306"
   id="svg3068"
   inkscape:version="0.48.1 r9760"
   sodipodi:docname="steiner_anb.svg">
  <sodipodi:namedview
     pagecolor="#ffffff"
     bordercolor="#666666"
     borderopacity="1"
     objecttolerance="10"
     gridtolerance="10"
     guidetolerance="10"
     inkscape:pageopacity="0"
     inkscape:pageshadow="2"
     inkscape:window-width="1280"
     inkscape:window-height="749"
     id="namedview55"
     showgrid="false"
     inkscape:zoom="0.29128901"
     inkscape:cx="919.95365"
     inkscape:cy="606.7139"
     inkscape:window-x="0"
     inkscape:window-y="29"
     inkscape:window-maximized="1"
     inkscape:current-layer="svg3068" />
  <metadata
     id="metadata3074">
    <rdf:RDF>
      <cc:Work
         rdf:about="">
        <dc:format>image/svg+xml</dc:format>
        <dc:type
           rdf:resource="http://purl.org/dc/dcmitype/StillImage" />
        <dc:title />
      </cc:Work>
    </rdf:RDF>
  </metadata>
  <defs
     id="defs3072">
    <linearGradient
       id="linearGradient3902">
      <stop
         id="stop3904"
         style="stop-color:#000000;stop-opacity:1"
         offset="0" />
      <stop
         id="stop3906"
         style="stop-color:#000000;stop-opacity:0"
         offset="1" />
    </linearGradient>
    <linearGradient
       id="linearGradient3858">
      <stop
         id="stop3860"
         style="stop-color:#000000;stop-opacity:1"
         offset="0" />
      <stop
         id="stop3862"
         style="stop-color:#000000;stop-opacity:0"
         offset="1" />
    </linearGradient>
    <linearGradient
       x1="600.10059"
       y1="421.63901"
       x2="747.32538"
       y2="421.63901"
       id="linearGradient3864"
       xlink:href="#linearGradient3858"
       gradientUnits="userSpaceOnUse" />
    <linearGradient
       x1="600.10059"
       y1="421.63901"
       x2="747.32538"
       y2="421.63901"
       id="linearGradient3864-1"
       xlink:href="#linearGradient3858-3"
       gradientUnits="userSpaceOnUse" />
    <linearGradient
       id="linearGradient3858-3">
      <stop
         id="stop3860-7"
         style="stop-color:#000000;stop-opacity:1"
         offset="0" />
      <stop
         id="stop3862-7"
         style="stop-color:#000000;stop-opacity:0"
         offset="1" />
    </linearGradient>
    <linearGradient
       x1="600.10059"
       y1="421.63901"
       x2="747.32538"
       y2="421.63901"
       id="linearGradient3881"
       xlink:href="#linearGradient3858-3"
       gradientUnits="userSpaceOnUse"
       gradientTransform="translate(766.36117,38.004109)" />
    <linearGradient
       x1="1910.8502"
       y1="467.7424"
       x2="1915.5869"
       y2="467.7424"
       id="linearGradient3908"
       xlink:href="#linearGradient3902"
       gradientUnits="userSpaceOnUse" />
  </defs>
  <path
     d="m 1858.0423,1268.3633 c -10.5406,-1.1601 -23.8515,-6.9097 -75,-32.396 -46.6716,-23.2556 -97.0934,-46.4041 -109.75,-50.386 -1.2375,-0.3893 -2.25,-1.4013 -2.25,-2.2489 0,-2.1911 2.7151,-1.3502 21.5,6.659 29.7563,12.6871 43.2168,18.9604 89.3629,41.6477 20.5496,10.103 37.7318,18.3691 38.1826,18.3691 0.4508,0 -1.0744,-3.7125 -3.3893,-8.25 -9.8665,-19.339 -12.4397,-47.0722 -5.8202,-62.7286 4.2505,-10.0533 18.1226,-31.6943 23.09,-36.0214 1.6618,-1.4476 16.6347,-19.6885 22.5565,-27.4798 15.4019,-20.264 20.1415,-29.5726 27.5795,-54.1668 2.8034,-9.2694 6.4112,-20.1499 8.0175,-24.179 1.6063,-4.029 2.9205,-8.8116 2.9205,-10.6279 0,-6.4415 9.3615,-20.5465 13.6368,-20.5465 2.2361,0 1.5474,3.9567 -0.8868,5.0951 -9.2111,4.3075 -11.5244,18.3073 -3.0554,18.4908 2.1809,0.047 4.4918,0.4112 5.1353,0.809 0.6436,0.3977 1.1701,0.3345 1.1701,-0.1404 0,-3.2004 14.6164,0.1387 17.8724,4.083 5.6089,6.7943 12.7419,-13.6219 10.3431,-29.6041 -5.056,-33.68633 -7.7362,-36.39903 -15.5101,-15.69803 -4.8225,12.84193 -12.3721,24.05663 -12.3721,18.37843 0,-0.7776 0.375,-1.4138 0.8334,-1.4138 0.4583,0 0.8333,-0.4766 0.8333,-1.059 0,-0.5825 -0.5625,-0.7298 -1.25,-0.3273 -0.6875,0.4024 -0.063,-0.4814 1.3867,-1.9641 1.4502,-1.4827 3.6622,-5.49793 4.9157,-8.92273 5.4525,-14.8981 9.064,-20.3339 13.9904,-21.0569 7.704,-1.1307 -10.6369,-20.42333 -25.8467,-27.18786 -7.5574,-3.36117 -10.1961,-6.36084 -10.1961,-11.591 0,-2.11151 -1.2922,-7.11332 -2.8715,-11.11514 -1.5794,-4.00182 -4.031,-10.65103 -5.4481,-14.77603 -1.4171,-4.125 -4.8805,-14.025 -7.6964,-22 -11.2381,-31.82697 -13.0966,-37.38078 -14.4974,-43.32093 -6.793,-28.80762 8.7258,-29.72353 30.4393,-1.7965 5.3956,6.93959 12.519,15.15115 15.8299,18.24792 3.3109,3.09676 7.25,7.72959 8.7535,10.29517 1.5035,2.56558 2.901,4.49738 3.1055,4.2929 0.7812,-0.78118 -2.377,-19.88072 -3.4677,-20.97141 -2.8202,-2.8202 -0.3629,-8.74715 3.6265,-8.74715 4.5393,0 6.4401,5.07921 3.1939,8.53459 -2.3992,2.55381 -1.6257,10.30511 2.5412,25.46541 1.285,4.675 2.616,10.75 2.9578,13.5 1.2197,9.81255 1.6403,11.5 2.8667,11.5 4.2553,0 15.1897,23.10705 20.2499,42.79302 8.3095,32.32681 1.9558,52.00911 -12.2147,37.83861 -2.4026,-2.4027 -4.3684,-4.0341 -4.3684,-3.6254 0,0.4087 0.9503,6.312 2.1119,13.1184 2.8687,16.81033 2.3177,28.43713 -1.8423,38.87543 -1.644,4.125 -3.268,9.9757 -3.6089,13.0015 -2.0856,18.5126 -20.1338,58.0258 -23.0423,50.4466 -0.3415,-0.89 -0.1738,-1.2914 0.3931,-0.941 0.5437,0.336 0.9885,-0.2549 0.9885,-1.3131 0,-1.0582 1.8062,-4.5723 4.0137,-7.809 7.7427,-11.3526 17.2465,-45.385 12.674,-45.385 -0.6568,0 -2.4594,-1.3405 -4.0058,-2.9789 -4.0442,-4.2848 -17.6819,-7.6058 -17.6819,-4.3058 0,1.2993 -0.9362,1.4679 -5.5228,0.9945 -6.9453,-0.7168 -6.6817,-1.1091 -13.2974,19.7902 -9.1717,28.9741 -9.514,30.8443 -8.9409,48.8439 0.8191,25.7239 11.7475,26.9208 24.6568,2.7004 3.9159,-7.3469 4.0046,-7.3664 3.6215,-0.7943 -0.3069,5.2654 -0.751,27.1556 -0.5985,29.5 0.045,0.6875 1.1512,1.25 2.4589,1.25 5.542,0 6.1915,6.5386 0.894,9 -3.592,1.669 -3.6624,2.0303 -3.4082,17.5 0.1105,6.73 -0.05,7.6031 -1.0125,5.5 -0.7568,-1.6537 -1.179,-11.3775 -1.2474,-28.7251 l -0.1035,-26.225 -3.9437,4.6107 c -4.4651,5.2201 -10.2897,8.2851 -15.8063,8.3174 -7.029,0.041 -8.1791,-2.6576 -9.5567,-22.4265 l -0.6933,-9.9484 -5.9685,8.9484 c -7.5845,11.3714 -13.1644,18.6723 -26.9591,35.2741 -35.684,42.9455 -41.4455,66.9323 -24.4804,101.919 13.9182,28.7032 62.2727,35.9433 85.4253,12.7907 4.3602,-4.3602 5.4827,-4.6651 5.4827,-1.4891 0,8.8046 -32.9487,20.4057 -52,18.3089 z m 96.7821,-286.36403 c 5.3427,-9.9894 -5.0629,-53.37985 -16.9647,-70.74113 -3.6933,-5.38749 -4.7151,-5.32967 -8.8362,0.5 -6.342,8.97137 -13.9316,14.63475 -17.0388,12.7144 -0.7425,-0.45891 0.4955,-1.76133 3.3824,-3.55816 2.5045,-1.55885 6.869,-5.88797 9.6989,-9.62026 l 5.1453,-6.78598 -0.6828,-6.42465 c -0.6753,-6.3543 -5.1419,-15.90539 -13.3156,-28.47301 -1.4674,-2.25629 -2.7121,-4.55234 -2.766,-5.10234 -0.1857,-1.89624 -1.6208,-4.5 -2.4802,-4.5 -0.4739,0 -0.5743,0.74882 -0.2231,1.66404 1.7109,4.4586 -8.4364,-6.27496 -16.2013,-17.13729 -20.5338,-28.72471 -35.7035,-23.7183 -22.6444,7.47325 0.5757,1.375 2.612,7 4.5252,12.5 18.2541,52.47658 20.9984,60.09408 22.0708,61.26313 0.1327,0.14472 1.871,-0.41778 3.8627,-1.25 4.6548,-1.94491 7.6857,-1.93771 7.6857,0.0182 0,1.57023 -0.5474,1.87554 -5.1723,2.88465 -7.2066,1.57241 -6.0712,11.44111 1.6781,14.58632 4.8428,1.96557 9.3622,5.03545 4.8821,3.31626 -1.1908,-0.45694 -1.487,-0.28795 -0.9678,0.55213 0.4224,0.68337 1.6122,0.9364 2.732,0.581 4.4883,-1.42456 14.6903,8.41818 25.6375,24.73474 9.472,14.1176 12.9602,16.4743 15.9925,10.8047 z m -495.7821,271.34563 c -13.8277,-1.3561 -16.6201,-2.7096 -51.95,-25.181 -35.9783,-22.8837 -52.6568,-32.9913 -76.55,-46.3912 -14.0308,-7.8688 -17.9276,-9.8407 -39.7306,-20.1051 -6.4518,-3.0373 -20.1768,-10.1119 -30.5,-15.7212 -10.3231,-5.6094 -21.6944,-11.7736 -25.2694,-13.6984 -3.575,-1.9248 -9.65,-5.1952 -13.5,-7.2677 -12.0466,-6.4845 -42.2031,-22.2714 -62,-32.4569 -40.2059,-20.6859 -50.5581,-26.1322 -67.4999,-35.5118 -21.7649,-12.0498 -37.7139,-21.7459 -54.5,-33.133 -50.90996,-34.53543 -62.37076,-50.43963 -82.05646,-113.87046 -8.5727,-27.62268 -15.11954,-43.60581 -22.92815,-55.97544 -1.38352,-2.19165 -2.5155,-4.66876 -2.5155,-5.50469 0,-3.25413 2.66371,-1.20762 6.1794,4.7476 9.09425,15.40479 14.26105,28.17095 23.93485,59.13855 19.3532,61.95311 36.0051,82.95761 93.57016,118.02784 35.0555,21.3569 47.4024,28.1278 106.8156,58.5768 12.1,6.2012 35.725,18.584 52.5,27.5174 31.8123,16.9414 35.7335,19.0512 53.0207,28.5286 10.459,5.7339 31.9309,16.3987 41.6514,20.6877 12.2379,5.3996 56.8657,31.3094 88.3279,51.2809 35.6641,22.6387 32.2621,22.0141 26.5756,4.8794 -15.8032,-47.6179 -12.6477,-63.9563 19.8744,-102.9046 21.3912,-25.618 35.8216,-48.6138 39.534,-63 2.1527,-8.3423 10.8103,-34.7015 12.4198,-37.814 0.8779,-1.6977 1.6061,-4.7966 1.6182,-6.8864 0.045,-7.7164 9.8028,-21.29963 15.3017,-21.29963 2.5084,0 3.9741,-2.3191 8.5323,-13.5 5.7578,-14.12351 8.2916,-18.25725 11.433,-18.65234 0.666,-0.0838 1.661,-0.2049 2.211,-0.26916 4.3457,-0.50774 -10.4388,-20.15479 -16.65,-22.12615 -1.0175,-0.32293 -1.85,-1.12358 -1.85,-1.77922 0,-0.65564 -0.9471,-1.78353 -2.1046,-2.50644 -1.1576,-0.7229 -1.806,-0.83115 -1.441,-0.24054 1.3025,2.10746 -3.1189,1.03824 -7.6875,-1.85906 -5.2249,-3.31354 -6.7669,-5.586 -6.7669,-9.97259 0,-1.67032 -1.3772,-6.7624 -3.0603,-11.31574 -1.6832,-4.55333 -6.6528,-18.40379 -11.0435,-30.77879 -4.3908,-12.375 -9.0348,-25.425 -10.32,-29 -1.2852,-3.575 -3.0338,-8.525 -3.8857,-11 -7.001,-20.3385 -4.644,-34.10027 5.3286,-31.11241 8.535,2.55713 12.7144,6.50815 27.3902,25.89315 2.6152,3.45441 5.7962,6.96302 7.0689,7.79692 1.4813,0.9706 2.4595,2.76323 2.7185,4.98183 l 0.4046,3.46567 -4.3857,-4.26258 c -2.4122,-2.34442 -7.4711,-8.31258 -11.2419,-13.26258 -24.4712,-32.12298 -34.94,-28.00013 -22.5293,8.87253 5.3691,15.95189 23.1839,65.83506 24.5982,68.87747 1.4635,3.14822 1.5838,3.17853 4.9574,1.25 3.2915,-1.8816 7.6396,-1.8816 8.3616,0 0.3166,0.825 0.2523,1.55743 -0.143,1.62762 -0.3952,0.0702 -1.6375,0.22926 -2.7606,0.35349 -9.2353,1.02152 -9.6662,15.51889 -0.4613,15.51889 1.0369,0 2.1311,0.39775 2.4315,0.88388 0.3005,0.48613 2.6477,1.87164 5.216,3.0789 7.016,3.29791 15.5301,12.07873 23.7919,24.53736 21.7639,32.81919 24.6289,-12.73516 3.3166,-52.73405 -6.8834,-12.91879 -7.6955,-13.06106 -15.3138,-2.68281 -4.723,6.4339 -13.7178,12.23827 -14.7593,9.52415 -0.2763,-0.72002 1.5823,-2.62028 4.3085,-4.40499 2.637,-1.7263 6.8956,-5.93379 9.4636,-9.34999 l 4.6691,-6.21127 -0.6915,-6.45635 c -0.491,-4.58576 -1.6675,-8.18322 -4.0603,-12.41666 -1.853,-3.27816 -3.369,-6.13531 -3.369,-6.34921 0,-0.74052 -6.3351,-10.92746 -8.0341,-12.91896 -0.9384,-1.1 -1.6896,-2.7875 -1.6694,-3.75 0.072,-3.43038 2.644,-1.65371 6.8362,4.72259 5.2675,8.01196 5.2769,8.00035 3.2878,-4.08052 -4.5035,-27.35156 3.2527,-58.65554 20.3894,-82.29211 3.489,-4.81235 4.0247,-7.09996 1.6626,-7.09996 -1.0948,0 -28.4982,-17.94663 -31.246,-20.46323 -6.1423,-5.62529 3.3558,-1.80722 14.6855,5.90331 7.5536,5.1407 16.067,10.52908 18.9188,11.97417 l 5.185,2.62744 -5.3373,7.72916 c -21.8895,31.69926 -26.6513,60.05079 -16.6201,98.95557 1.6179,6.27481 2.9477,12.84083 2.9553,14.59116 0.019,4.4188 1.0082,7.6721 2.3529,7.73775 2.9757,0.14527 11.819,15.73364 16.4524,29.00134 13.4285,38.45169 8.5744,68.38936 -8.3453,51.46966 -5.1659,-5.1659 -5.1748,-5.13049 -2.3117,9.1729 3.4367,17.1689 2.6747,30.61483 -2.2956,40.50673 -1.0241,2.0382 -2.2656,6.5554 -2.7588,10.0382 -2.6922,19.01 -17.8784,54.7559 -23.2624,54.7559 -1.9872,0 -0.2091,-4.7108 4.3664,-11.5682 8.7361,-13.0926 18.4772,-46.4318 13.5665,-46.4318 -0.7065,0 -2.5282,-1.3176 -4.0482,-2.928 -4.0788,-4.3216 -8.8115,-5.5958 -15.3493,-4.1327 -2.9286,0.6554 -7.2729,0.8995 -9.654,0.5424 -5.4701,-0.8203 -4.7036,-2.5148 -17.8762,39.5183 -6.6424,21.1954 -2.9497,49.9562 6.1496,47.8966 5.9419,-1.3449 17,-13.3612 17,-18.473 0,-0.6483 0.7399,-1.7928 1.6442,-2.5433 1.4735,-1.2229 1.5607,-1.1058 0.8396,1.1275 -2.1195,6.5642 -0.9381,30.2122 1.6062,32.1531 4.575,3.4899 4.91,3.9274 4.91,6.4123 0,1.8036 -0.9964,3.0822 -3.5985,4.6174 l -3.5985,2.1232 0.385,12.0931 c 0.3878,12.1795 1.8433,17.3703 6.3351,22.5931 3.4516,4.0133 7.6185,21.744 7.6021,32.3474 -0.02,13.1711 -7.2038,36.22 -9.9625,31.9663 -0.4093,-0.631 -1.4231,-0.2898 -2.6509,0.8922 -1.7145,1.6506 -1.7437,1.8203 -0.212,1.2325 3.2603,-1.2511 -2.1061,6.3367 -6.6684,9.4286 -11.3669,7.7037 -30.9794,13.4044 -41.1314,11.9556 -0.55,-0.079 -2.575,-0.2971 -4.5,-0.4859 z m 27.3314,-6.2093 c 15.5359,-4.6229 25.8351,-14.2651 31.0628,-29.0813 5.2337,-14.8333 3.5321,-36.4738 -3.8958,-49.5461 -5.3067,-9.3392 -5.7813,-12.811 -5.8937,-43.1109 l -0.1047,-28.2198 -4.6666,5.2321 c -4.709,5.2795 -9.3679,7.5986 -15.2652,7.5986 -6.7956,0 -8.4083,-3.5975 -9.3902,-20.947 l -0.678,-11.9808 -5.9044,8.9408 c -7.013,10.6195 -17.7712,24.7892 -29.9501,39.4472 -29.2956,35.2591 -31.2877,55.3598 -10.7965,108.9385 5.0388,13.1751 32.6748,19.5153 55.4824,12.7287 z m -34.8314,-16.0691 c -11.6014,-5.7307 -17.5283,-25.2393 -14.6006,-48.0583 2.5992,-20.2588 5.1885,-29.2455 7.7021,-26.7318 0.2834,0.2834 -0.4984,5.6265 -1.7375,11.8735 -8.9858,45.3057 3.3646,68.5513 32.3982,60.9795 3.7191,-0.97 6.9816,-1.544 7.25,-1.2757 5.3025,5.3026 -21.2193,8.0502 -31.0122,3.2128 z m -5.3173,-81.9454 c -1.2608,-0.7792 5.8725,-19.1351 9.1259,-23.4832 4.1397,-5.5328 3.3396,0.7519 -1.4548,11.4272 -5.8637,13.0564 -5.917,13.1401 -7.6711,12.056 z m 89.8001,-131.325 c 5.315,-8.7399 6.0673,-21.16693 2.417,-39.92563 -4.2631,-21.90766 -6.469,-22.21322 -14.4356,-1.9996 -4.482,11.3721 -8.0692,16.6947 -10.5976,15.7244 -0.8546,-0.3279 -1.8374,0.352 -2.4489,1.6941 -0.5617,1.2329 -2.2784,2.9632 -3.8148,3.845 -8.827,5.06593 -9.1754,17.87383 -0.4862,17.87383 2.4567,0 4.4122,0.5217 4.6852,1.25 0.3273,0.8731 0.9129,0.6719 1.9423,-0.6674 2.6481,-3.4452 15.2915,-0.3789 18.2631,4.4292 1.0838,1.7536 2.4779,1.0608 4.4755,-2.2239 z m 309.0172,229.0511 c -20.3215,-5.5408 -23.7991,-31.646 -10.276,-77.1374 0.6298,-2.1186 3.9444,-1.7722 3.4241,0.3578 -0.1936,0.7923 -1.0231,3.9156 -1.8434,6.9406 -5.3311,19.6606 -5.6438,21.552 -5.7025,34.5 -0.1012,22.3036 5.2016,31.1407 19.8946,33.1546 2.8351,0.3886 4.5032,1.1225 4.5032,1.9813 0,1.582 -4.6001,1.6754 -10,0.2031 z m 67.5232,-3.089 c 0.3619,-1.2375 1.7183,-4.9671 3.0143,-8.2879 5.1056,-13.0825 5.4127,-26.9363 0.9192,-41.4621 -1.2761,-4.125 -2.6075,-9.75 -2.9587,-12.5 l -0.6385,-5 1.9969,3 c 10.1481,15.2459 10.5364,49.042 0.7354,64.0003 -2.0552,3.1366 -3.9581,3.2915 -3.0686,0.2497 z M 688.78239,1227.9594 c -6.47887,-2.2293 -14.38159,-6.7761 -20.02783,-11.5232 -2.23069,-1.8754 -5.45443,-3.451 -7.84221,-3.8328 -7.34874,-1.1751 -27.14975,-11.1305 -42.46349,-21.3494 -54.44272,-36.33 -83.89386,-54.0284 -116.90657,-70.2543 -16.66188,-8.1893 -24.7539,-11.6467 -44.5,-19.0128 -18.97413,-7.0782 -40.51649,-17.8327 -62,-30.952 -10.09058,-6.1619 -28.00401,-17.5856 -48,-30.6103 -7.975,-5.1947 -18.325,-11.2613 -23,-13.4815 -4.675,-2.2203 -14.575,-7.3503 -22,-11.4001 -14.24412,-7.7692 -29.83384,-14.9001 -35.10688,-16.05833 -6.25968,-1.3749 -46.47513,-40.1795 -58.76335,-56.70187 -17.37461,-23.36135 -18.7921,-28.1386 -30.55493,-102.97628 -8.76235,-55.748 -8.87256,-56.94035 -5.32484,-57.61315 1.51014,-0.28639 1.75,0.49598 1.75,5.70822 0,5.42481 1.17531,13.75553 8.05666,57.10655 12.58006,79.25163 15.86975,86.68544 55.09506,124.50003 23.00453,22.1771 26.86777,25.2856 34.762,27.9706 11.20536,3.81123 60.96405,29.86783 78.08628,40.89053 63.55674,40.916 73.4052,46.3221 113.3052,62.1964 48.84401,19.4326 77.29805,35.1964 149.62826,82.895 20.45967,13.4923 38.04777,22.9988 46.45375,25.1085 3.66652,0.9203 3.35017,-0.4761 -1.89491,-8.3639 -9.4942,-14.278 -13.36966,-46.4803 -7.18437,-59.6971 5.33013,-11.3895 21.18875,-36.0489 44.69579,-69.5 18.9383,-26.9497 21.41284,-32.7923 25.46616,-60.1278 2.7925,-18.83253 3.82653,-21.56993 10.71633,-28.36923 7.24062,-7.1454 13.47244,-16.1596 21.2425,-30.7267 5.74584,-10.77213 10.07495,-15.77633 13.64802,-15.77633 1.0578,0 1.92327,-0.35834 1.92327,-0.79631 0,-1.1449 -16.93193,-20.20369 -17.94907,-20.20369 -1.54296,0 -21.96817,-20.16267 -22.64529,-22.35421 -0.36464,-1.18018 -3.4859,-9.34579 -6.93614,-18.14579 -3.45024,-8.8 -9.4365,-24.1 -13.30279,-34 -23.31082,-59.68955 -7.89118,-73.48457 29.62086,-26.5 2.85425,3.575 8.28626,10.55 12.07115,15.5 7.68225,10.04712 12.03604,14.50538 10.74222,11 -1.66747,-4.51771 -3.56085,-14.48831 -4.18816,-22.0549 -0.62283,-7.51262 -0.86118,-8.1659 -3.54029,-9.70349 -3.77169,-2.16466 -3.64679,-4.91229 0.37722,-8.29827 2.74603,-2.31064 3.42844,-3.79519 4.40285,-9.57821 2.2931,-13.60937 19.87404,-44.85203 27.93101,-49.63554 9.58673,-5.69173 9.53823,-6.1066 -0.96747,-8.27622 -7.09464,-1.46518 -26.18649,-6.60329 -29.1161,-7.8359 -23.66398,-9.95646 -37.17978,-19.63635 -45.60232,-32.65995 -2.442,-3.77601 -4.61366,-6.15346 -5.27443,-5.77423 -0.61779,0.35455 -2.42681,1.54854 -4.02004,2.6533 -18.36308,12.73306 -43.09589,21.5447 -97.10321,34.59527 -43.88541,10.60466 -60.4178,13.32778 -112.5,18.53034 -51.09729,5.10417 -65.46294,6.66741 -65.97473,7.1792 -2.42369,2.42369 27.40842,9.56374 49.47473,11.84132 3.3,0.34061 7.59152,0.84468 9.53671,1.12015 3.31695,0.46973 3.68589,0.23355 5.9376,-3.80101 5.7468,-10.29697 15.31673,-8.78691 18.84003,2.9728 1.93876,6.47102 8.1449,6.80756 13.77203,0.74683 7.05226,-7.59566 15.41363,-5.6867 15.41363,3.51904 0,3.45341 0.99864,3.99346 11.01354,5.95599 l 6.51354,1.2764 3.63646,-3.63646 c 5.0978,-5.0978 11.83646,-4.17502 11.83646,1.62085 0,4.81697 23.97584,9.90626 28.31031,6.00936 4.23586,-3.80826 10.68969,-3.08536 10.68969,1.19737 0,2.09414 0.59042,2.26601 12.01876,3.49868 13.71047,1.47883 14.98124,1.78632 14.98124,3.62506 0,1.33932 -1.11982,1.4405 -8.25,0.74543 -4.5375,-0.44233 -10.5,-0.81075 -13.25,-0.81872 l -5,-0.0145 -0.6867,10 c -0.37769,5.5 -1.8682,14.95 -3.31225,21 -7.061,29.58281 -7.39045,32.86512 -5.04027,50.21562 0.80343,5.93141 1.59093,12.22044 1.75,13.97562 0.73023,8.05733 19.76887,-20.6242 34.40035,-51.8238 12.05684,-25.70953 14.37896,-29.94359 25.11184,-45.78805 4.1398,-6.1114 12.90037,21.91023 10.6048,33.92061 -3.08459,16.13854 -7.33477,49.03219 -8.39862,65 -1.32847,19.93944 -1.47418,20.32566 -11.3886,30.18618 -12.78169,12.71221 -25.61256,19.14181 -29.8143,14.94007 -2.34282,-2.34282 -2.61737,-0.97895 -0.58706,2.91629 1.59894,3.06764 1.99278,5.23224 1.63308,8.9757 l -0.47401,4.93316 4.60087,-3.35612 c 2.53048,-1.84587 8.20087,-5.19458 12.60087,-7.44159 4.4,-2.247 10.31546,-5.4608 13.14548,-7.14177 l 5.14547,-3.05631 4.06662,4.61992 c 2.23665,2.54096 5.88254,8.3199 8.102,12.84209 l 4.03537,8.22216 -2.88184,8.43011 c -1.58502,4.63656 -6.35358,17.65515 -10.5968,28.93015 -4.24322,11.275 -9.26923,25.45003 -11.16892,31.50003 -10.15113,32.3286 -26.07225,63.0026 -33.70199,64.931 -11.00073,2.7805 -11.23416,-5.0149 -2.13898,-71.431 0.79084,-5.775 1.91073,-18.15003 2.48865,-27.50003 0.57792,-9.35 1.32358,-19.58754 1.65702,-22.75004 1.19947,-11.37633 -2.67626,-4.6765 -7.54434,13.04164 -1.10186,4.0104 -2.46593,11.6604 -3.03125,17 -0.56533,5.3396 -1.54438,14.65223 -2.17568,20.69473 -2.47231,23.6641 -11.14384,41.1816 -24.76335,50.0248 -2.5506,1.6562 -6.61748,4.4687 -9.0375,6.25 -11.11064,8.1786 -19.81005,2.2986 -12.99238,-8.7815 12.43245,-20.2054 19.80396,-54.8804 13.49976,-63.50203 -1.85845,-2.5415 -8.03373,3.3428 -19.8906,18.95343 -29.04664,38.2424 -48.90397,40.7339 -32.43005,4.069 23.40411,-52.08903 23.11085,-51.19103 22.37048,-68.50007 -0.78888,-18.4429 3.10458,-30.89313 10.62788,-33.98514 18.77052,-7.71453 17.85471,-6.55534 9.90203,-12.53348 l -6.31292,-4.7455 -11.21753,0.69078 c -16.21238,0.99837 -17.02384,0.50765 -18.62083,-11.26061 -1.51785,-11.1851 0.20563,-18.9568 6.85319,-30.90318 13.92203,-25.01938 17.11101,-34.86912 17.11101,-52.85046 0,-6.19723 0.48018,-14.72006 1.06707,-18.93964 1.25866,-9.04945 1.77401,-8.25075 -6.54861,-10.14915 -8.20209,-1.87091 -7.31241,-3.05917 -10.01231,13.3726 -2.50732,15.25979 -5.15837,26.74265 -6.8808,29.80379 -0.7412,1.31728 -1.12535,9.68065 -1.12535,24.5 0,21.80899 -0.0721,22.62285 -2.34793,26.5 -4.32808,7.37343 -19.171,17.67542 -31.56723,21.90979 -4.46498,1.52518 3.98453,7.59021 10.57431,7.59021 3.4088,0 7.84155,0.81779 10.84085,2 3.15311,1.24284 7.43205,2 11.30262,2 8.65143,0 12.47186,2.17566 15.91528,9.06345 4.77319,9.54768 3.62933,13.2043 -7.84465,25.0772 -8.29463,8.58301 -9.82739,11.54472 -10.79525,20.85935 -5.22134,50.24986 -18.1551,77.05106 -42.69664,88.47546 -10.90256,5.0752 -11.75018,2.8484 -4.52933,-11.8996 12.51943,-25.5698 18.49309,-55.03293 12.5981,-62.13593 -1.87902,-2.2641 -2.28498,-1.9761 -11.01091,7.8101 -30.73679,34.47163 -44.5535,45.73573 -49.73922,40.55003 -4.02199,-4.022 5.35304,-27.30343 19.17332,-47.61393 10.18094,-14.96201 13.05101,-24.05278 15.68653,-49.68613 2.16983,-21.1039 13.74872,-39.06258 21.92687,-34.00821 0.5573,0.34443 1.01328,0.16866 1.01328,-0.39062 0,-1.48819 -8.66541,-6.32041 -11.27055,-6.28497 -1.2262,0.0167 -3.87437,0.15285 -5.88483,0.30258 -5.28557,0.39364 -10.67841,-3.59558 -16.30767,-12.06321 -7.38531,-11.10908 -6.66667,-15.85643 4.48814,-29.64885 7.57357,-9.36437 18.97491,-37.47003 18.97491,-46.7754 0,-1.61526 2.05837,-8.08161 4.57415,-14.36966 5.53301,-13.82948 5.54098,-13.79817 -3.74,-14.69674 -22.18547,-2.14796 -51.46986,-8.76447 -56.08676,-12.67222 l -3.24739,-2.74861 2,-2.00062 c 2.2551,-2.25579 11.24104,-3.52748 50.5,-7.14676 60.64351,-5.59072 89.96807,-10.04678 128,-19.45042 62.42426,-15.4348 77.66235,-20.92765 101.88856,-36.72759 4.0637,-2.65029 7.47997,-4.8187 7.59171,-4.8187 0.11173,0 0.76759,1.9125 1.45746,4.25 2.7976,9.4792 26.38062,31.75 33.62075,31.75 0.24823,0 2.81162,1.16369 5.69642,2.58597 5.6237,2.77263 23.45206,8.18999 35.83819,10.88986 15.30478,3.33608 16.67068,5.96782 6.33583,12.20753 -6.29363,3.7998 -12.42892,9.5006 -12.42892,11.54874 0,0.4442 -1.04933,2.4862 -2.33185,4.53777 -19.31227,30.89281 -21.43686,50.66708 -9.73758,90.63107 2.23818,7.64551 4.06943,14.74625 4.06943,15.77942 0,1.03316 1.80128,4.15726 4.00284,6.94245 16.79838,21.25155 24.8004,71.71158 12.31619,77.66488 l -3.3647,1.60451 -6.11807,-5.9461 c -3.40214,-3.30652 -5.80366,-5.05826 -5.40981,-3.9461 5.52471,15.60094 4.49674,36.62773 -2.51347,51.41243 -3.67745,7.7558 -3.88838,8.38733 -8.90041,26.64593 -2.12247,7.7321 -5.72761,18.5321 -8.01141,24.0001 -10.61483,25.4141 -11.44357,34.0001 -6.46134,66.9416 8.28544,54.7815 7.64357,65.3633 -5.33788,88 -16.99982,29.6438 -30.53359,37.6521 -51.46184,30.4512 z m 23.25699,-3.6968 c 6.58082,-2.3539 14.11661,-10.0753 20.61836,-21.1261 3.11562,-5.2956 6.91999,-11.6533 8.45414,-14.1283 7.02529,-11.3337 7.69442,-35.9252 1.91827,-70.5 -2.12645,-12.7285 -3.391,-24.39 -3.83102,-35.3292 l -0.65684,-16.3293 -6.13414,8.8594 c -14.0327,20.2671 -27.77702,15.6882 -23.72448,-7.9038 0.83377,-4.8538 1.35734,-9.3009 1.16349,-9.8825 -0.70244,-2.1073 -40.46,55.9163 -51.58445,75.2842 -8.05253,14.0197 -9.23394,26.8883 -4.2966,46.8012 3.12777,12.6147 4.0058,14.8974 7.71745,20.0638 1.8612,2.5906 3.86243,6.0827 4.44719,7.7601 2.00206,5.7431 17.03432,15.5009 27.07722,17.5764 7.19868,1.4877 12.34407,1.1746 18.83141,-1.1459 z m -15.99709,-18.2685 c -9.75643,-1.3336 -14.60906,-4.9172 -23.29033,-17.1996 -7.32353,-10.3613 -12.20601,-26.7863 -7.9625,-26.7863 1.63664,0 2.07973,0.8978 2.59109,5.25 1.90138,16.1829 17.29258,34.4599 29.80723,35.396 8.92197,0.6674 10.85451,1.1789 10.85451,2.8731 0,1.6355 -2.68592,1.74 -12,0.4668 z m -31,-55.0385 c 0,-14.4399 22.52662,-62.5119 26.33421,-56.1974 0.24873,0.4125 -1.55031,4.125 -3.99787,8.25 -8.61929,14.5265 -14.92545,30.0318 -17.38693,42.75 -1.08309,5.5963 -4.94941,9.6563 -4.94941,5.1974 z m 58.66593,-70.1974 c 1.68205,-1.7875 4.9087,-6.0207 7.17035,-9.4071 2.26165,-3.3864 5.18761,-7.0031 6.50214,-8.0371 4.54171,-3.5726 14.22288,-27.247 19.41528,-47.4783 l 3.57246,-13.9195 -4.37129,-4.45403 c -4.78137,-4.8719 -6.07034,-5.1557 -13.3638,-2.9432 -2.69991,0.819 -7.28209,1.4892 -10.18261,1.4892 -6.22011,0 -5.60406,-1.2072 -8.42005,16.50003 -2.73986,17.2285 -4.38503,24.0786 -7.44425,30.9961 -1.49683,3.3846 -2.54416,7.6059 -2.54416,10.2545 0,2.4759 -0.72094,8.7311 -1.60209,13.9005 -2.60789,15.2994 3.03,21.8534 11.26802,13.0989 z m -106.05702,-2.5153 c 4.43,-2.935 21.66086,-37.706 26.38062,-53.2347 4.11517,-13.5396 6.96538,-21.6564 17.02108,-48.47253 10.89477,-29.05381 10.8943,-32.71898 -0.006,-45.66106 l -2.83532,-3.36647 -2.83475,1.76492 c -1.55911,0.97071 -7.63094,4.25058 -13.49296,7.2886 -6.89293,3.5723 -12.04076,7.02356 -14.57171,9.76932 l -3.91349,4.24563 -1.15036,14.46576 c -0.63269,7.9562 -1.41643,18.7408 -1.74164,23.9658 -0.66834,10.738 -1.15221,15.06273 -5.37043,48.00003 -5.41071,42.2486 -5.16235,46.321 2.51476,41.2347 z m 19.07859,-102.88063 c -1.41552,-1.4155 -0.61453,-3.3541 1.38582,-3.3541 1.39797,0 1.96801,0.543 1.75,1.6671 -0.35694,1.8405 -2.064,2.7589 -3.13582,1.687 z m -61.09043,85.69153 c 18.31464,-12.6959 24.78904,-26.5164 27.42656,-58.5456 1.91249,-23.22483 5.10009,-36.43543 12.4759,-51.70505 8.21078,-16.99816 2.89279,-29.00199 -11.37882,-25.6844 -10.24975,2.38267 -13.66445,0.8561 -18.14219,-8.11061 -3.78651,-7.58249 -6.58982,-7.81004 -21.72105,-1.76311 -16.15295,6.45523 -18.79374,11.61556 -17.67079,34.53024 l 0.67298,13.73287 -3.54112,10.00003 c -1.94762,5.5 -6.53093,16.525 -10.18514,24.5 -12.60641,27.51243 -14.5334,32.54413 -14.5334,37.94903 0,11.0237 10.30717,3.1212 30.7034,-23.5403 18.99529,-24.83023 25.21212,-27.56933 28.40283,-12.51403 2.57873,12.16763 -2.38323,33.91943 -12.30664,53.94873 -8.32023,16.7935 -6.24218,18.321 9.79748,7.2022 z m 15.90293,-93.68753 c -1.65,-0.8589 -5.925,-3.2675 -9.5,-5.35234 -5.63074,-3.2837 -7.56986,-3.86178 -14.5,-4.32269 -9.04539,-0.60159 -14.5,-2.21199 -14.5,-4.28093 0,-1.7658 0.46511,-1.75401 8.11504,0.20581 3.48362,0.89247 8.20862,1.39021 10.61846,1.11859 3.85395,-0.4344 5.2614,0.0632 12.52383,4.42809 4.50006,2.70462 9.2081,5.17503 10.4623,5.48982 1.36843,0.34345 2.28037,1.32885 2.28037,2.46395 0,2.2722 -1.48538,2.3397 -5.5,0.2497 z m -104.58041,71.27603 c 18.43822,-14.0648 27.00195,-33.1158 31.52628,-70.13413 0.87387,-7.15003 1.83114,-14.48763 2.12727,-16.30581 0.53715,-3.29799 0.53028,-3.30425 -2.91515,-2.65788 -5.71759,1.07263 -14.07263,-1.2474 -19.68853,-5.46711 -4.02531,-3.02456 -6.22517,-3.91557 -10.86461,-4.40048 -3.19954,-0.33442 -9.08278,-1.78594 -13.07387,-3.22561 -8.47423,-3.05683 -8.40677,-3.09946 -9.88996,6.24978 -1.76148,11.10334 -5.84277,20.71671 -13.69768,32.26451 -13.32227,19.5855 -23.0549,44.04263 -17.52664,44.04263 2.99703,0 17.53882,-13.9127 37.78582,-36.15103 14.30438,-15.7113 14.66488,-16.0073 17.98918,-14.7714 10.6127,3.9455 7.19053,33.46793 -7.57083,65.31223 -5.80651,12.5263 -4.8645,13.3782 5.79872,5.2443 z m 278.36864,-47.38413 c 6.11669,-13.7314 7.56294,-34.5067 3.23705,-46.50003 -2.79669,-7.7537 -5.06501,-6.01672 -14.03836,10.75 -6.88842,12.87103 -13.30066,22.05163 -20.54205,29.41073 -8.11507,8.247 -6.63112,9.4122 7.75711,6.0914 10.10836,-2.3331 10.87913,-2.1905 15.73511,2.9118 4.03551,4.2402 4.90746,3.9443 7.85114,-2.6639 z M 520.65698,945.15846 c 20.9653,-6.44736 25.16472,-40.91373 4.71637,-38.70917 -3.80791,0.41053 -6.32209,0.063 -9.54838,-1.31998 -5.92885,-2.5414 -11.8374,-3.43106 -14.94361,-2.25009 -2.28902,0.87029 -3.04135,0.49851 -6.85533,-3.38765 -12.81292,-13.05542 -24.87912,-3.35271 -26.63752,21.41986 l -0.6203,8.73877 3.60959,1.71286 c 4.71393,2.2369 18.1077,5.64508 22.18457,5.64508 2.28134,0 4.26142,1.00089 6.89642,3.48602 5.13556,4.84345 14.15923,6.82896 21.19819,4.6643 z m 265.49328,-1.90032 c 9.45549,-24.56613 -14.7742,-91.58671 -25.48758,-70.5 -1.32731,2.6125 -4.11702,6.49976 -6.19935,8.63836 l -3.78606,3.88836 -9.71125,-0.63642 c -10.6415,-0.69738 -11.14461,-0.45465 -10.20421,4.92308 0.58128,3.32413 10.5124,14.06786 19.38083,20.96666 3.08019,2.3961 11.78033,11.35707 19.33363,19.91325 14.75426,16.71324 15.07543,16.95992 16.67399,12.80671 z M 636.11373,920.95963 c 19.70099,-13.37869 22.58556,-17.85284 23.91483,-37.09342 1.21379,-17.56904 3.01714,-32.51337 6.68014,-55.35807 2.90631,-18.12553 2.7657,-27.07372 -0.54606,-34.75 -3.92532,-9.09846 -5.75011,-6.33057 -31.85363,48.31643 -7.32843,15.34186 -13.31769,24.95227 -22.62902,36.31072 -3.10074,3.78244 -5.68538,7.83244 -5.74366,9 -0.29585,5.92707 0.67942,8.80887 5.66186,16.72999 2.97768,4.73392 6.26999,10.51913 7.31624,12.85602 3.86908,8.64187 8.69779,9.76159 17.1993,3.98833 z M 636.54229,874.13 c -2.72864,-0.58347 -4.42961,-3.64817 -2,-3.60346 5.17347,0.0952 11.5,1.75442 11.5,3.01604 0,1.56024 -3.84019,1.79769 -9.5,0.58742 z m -32.21452,47.25249 c 2.35625,-0.32296 6.04314,-0.10151 8.19308,0.49212 5.92238,1.63525 5.21555,-1.17003 -3.99784,-15.86647 -2.93081,-4.675 -5.63673,-9.7375 -6.01314,-11.25 -0.95266,-3.82792 -1.64612,-3.47623 -4.22349,2.14192 -1.23432,2.69055 -4.23846,7.10999 -6.67586,9.82097 l -4.43165,4.92906 2.48344,4.42902 c 3.07156,5.47789 5.22014,7.18351 8.13067,6.4544 1.23788,-0.3101 4.17853,-0.82806 6.53479,-1.15102 z m -14.7378,-17.87001 c 8.05329,-8.28624 9.66591,-17.50794 6.86287,-39.24518 -1.8033,-13.98439 -1.17785,-21.86955 3.09417,-39.00869 4.85262,-19.46851 7.46138,-37.47158 5.77401,-39.8465 -2.6865,-3.78114 -5.95137,-2.47954 -10.17941,4.0582 -4.76622,7.3699 -16.93767,22.53783 -18.08541,22.53783 -1.50102,0 -2.64527,-2.554 -2.91213,-6.5 -0.14878,-2.2 -0.90089,-6.7 -1.67136,-10 -0.77047,-3.3 -1.40751,-7.71708 -1.41564,-9.81574 -0.0252,-6.50058 -1.25127,-7.68426 -7.95961,-7.68426 l -5.87447,0 -1.10477,6.75 c -0.60762,3.7125 -1.28345,13.275 -1.50183,21.25 -0.49689,18.14555 -2.13772,23.50657 -14.68645,47.98442 -15.33335,29.9096 -13.63184,44.49142 4.89063,41.91245 10.37334,-1.44432 13.24042,-0.80405 20.35795,4.54629 3.33406,2.50626 6.35485,4.5767 6.71285,4.60097 0.35801,0.0243 2.90092,0.6689 5.65092,1.43251 7.1688,1.99059 7.2418,1.97258 12.04768,-2.9723 z m -3.90417,-45.13449 c -2.46854,-1.33544 -3.97327,-1.37917 -11.07949,-0.32194 -7.69944,1.14549 -8.5986,1.08285 -14.12228,-0.98382 -3.95117,-1.47833 -7.5262,-2.10102 -10.82588,-1.88565 -5.97442,0.38995 -7.27755,-1.47493 -2.20131,-3.15024 2.89881,-0.95669 4.62429,-0.84132 9.80179,0.65536 4.73314,1.36822 8.92946,1.74489 17.00607,1.52649 10.95047,-0.29611 17.44437,1.2896 16.52887,4.03611 -0.58802,1.76406 -2.01185,1.79854 -5.10777,0.12369 z m -81.64351,24.44813 c 9.25369,-4.50974 18.48468,-13.88545 19.54439,-19.8508 0.94924,-5.34341 0.84187,-15.53317 -0.1811,-17.18838 -1.62199,-2.62443 -0.2553,-21.19743 2.15447,-29.2788 4.59051,-15.39464 9.37855,-42.05855 7.81267,-43.50762 -0.45674,-0.42267 -3.80334,-1.07277 -7.4369,-1.44466 l -6.60646,-0.67617 -4.65103,7.46227 -4.65103,7.46227 -0.18642,10.60195 c -0.34386,19.55495 -3.37153,15.00831 -4.09408,-6.14804 -0.77642,-22.73407 -0.11094,-21.35089 -10.94845,-22.75577 -4.29853,-0.55722 -4.83447,-0.39804 -5.70828,1.69541 -0.53039,1.2707 -2.78312,6.67492 -5.00606,12.00937 -2.22295,5.33446 -4.04172,11.0411 -4.04172,12.68143 0,9.93898 -11.7366,39.19351 -19.54437,48.71607 -10.67928,13.02475 -11.41258,17.40387 -4.54932,27.16759 5.75938,8.19334 9.03943,10.18821 15.66058,9.52452 5.02711,-0.5039 8.11228,0.6191 17.82201,6.48723 2.78794,1.68491 6.71621,0.88967 14.6111,-2.95787 z m 8.5,-38.05351 c -2.2,-0.5057 -7.67697,-0.639 -12.17104,-0.29621 -7.65128,0.58361 -8.59831,0.42952 -14.88831,-2.4225 -3.69451,-1.67517 -7.27494,-3.04576 -7.95652,-3.04576 -0.68158,0 -1.79502,-0.66968 -2.47431,-1.48817 -2.39357,-2.88407 1.48984,-2.6899 9.45085,0.47255 6.86026,2.72518 8.82194,3.06462 16.90023,2.9243 10.656,-0.1851 16.6391,0.76548 16.6391,2.64359 0,1.98681 -1.08749,2.22649 -5.5,1.2122 z m 227.05858,36.31518 c 10.00669,1.41712 11.3813,0.6447 17.52412,-9.84708 1.69621,-2.89708 4.39651,-5.94614 6.00066,-6.77568 3.4267,-1.77201 3.3361,-1.20619 1.30944,-8.17766 -1.10689,-3.80756 -2.66332,-6.45586 -4.99984,-8.50735 -1.86594,-1.63833 -6.86298,-7.54472 -11.10453,-13.12533 -48.97647,-64.43842 -62.82668,-59.72563 -34.83555,11.85345 14.39486,36.81062 13.85692,35.71291 16.9289,34.54495 1.48926,-0.56622 5.02804,-0.55284 9.1768,0.0347 z M 583.257,799.75814 c 12.25542,-15.07263 12.55752,-16.80965 3.20515,-18.42896 -13.21536,-2.28817 -13.97691,-1.7791 -11.48748,7.67896 0.50667,1.925 1.43607,6.0875 2.06532,9.25 1.36873,6.87899 1.76556,6.97473 6.21701,1.5 z m 21.78529,-20.75 c 0,-0.55 -0.45,-1 -1,-1 -0.55,0 -1,0.45 -1,1 0,0.55 0.45,1 1,1 0.55,0 1,-0.45 1,-1 z m -92.71561,-3.90429 c 2.425,-4.1052 2.15454,-5.09571 -1.39138,-5.09571 -2.42232,0 -2.97323,0.34857 -2.5,1.58179 0.33385,0.86998 0.60699,2.66998 0.60699,4 0,3.22847 1.19459,3.05167 3.28439,-0.48608 z m 53.71561,-3.09571 c 0,-2.09129 -0.77523,-2.40722 -3.41821,-1.39301 -2.52911,0.97051 -1.87353,3.39301 0.91821,3.39301 1.83333,0 2.5,-0.53333 2.5,-2 z m -33,-5.06574 c 0,-5.52226 -3.00858,-7.21428 -6.68555,-3.75995 -3.32353,3.1223 -2.8949,4.64424 1.43555,5.09722 2.0625,0.21575 4.0875,0.46791 4.5,0.56037 0.4125,0.0924 0.75,-0.76148 0.75,-1.89764 z m -29,-3.48392 c 0,-5.66199 -5.8523,-10.04481 -9.08663,-6.80503 -3.41087,3.41661 -2.92713,6.73807 1.08663,7.46101 6.24011,1.12393 8,0.97962 8,-0.65598 z m 250,-40.84335 c 0,-0.21616 -0.69837,-0.661 -1.55194,-0.98855 -0.88992,-0.34149 -1.29132,-0.17385 -0.94098,0.39301 0.58726,0.95021 2.49292,1.40545 2.49292,0.59554 z M 1839.0423,1161.5047 c 0,-0.5314 11.6592,-22.1105 12.6268,-23.37 0.1578,-0.2055 0.9831,-0.1064 1.834,0.2201 1.6394,0.6291 1.2584,1.4845 -7.6359,17.1473 -2.8258,4.9762 -6.8249,8.4935 -6.8249,6.0026 z m -458.8958,-58.3923 c -3.9108,-3.9108 -2.3094,-23.6731 4.384,-54.1042 5.4886,-24.9534 6.3729,-31.8443 6.7079,-52.27113 0.2457,-14.974 0.061,-18.4331 -0.9139,-17.1001 -3.3311,4.5554 -10.2344,28.02313 -13.6408,46.37123 -6.2223,33.5162 -29.2724,65.4111 -45.1229,62.4375 -4.6782,-0.8776 -4.6289,-1.4199 1.9483,-21.4243 11.5048,-34.9922 11.5344,-63.867 0.042,-41.0132 -8.7659,17.4319 -28.2965,41.3003 -37.734,46.1149 l -4.1697,2.1272 -2.3885,-2.7768 c -4.0605,-4.7206 -1.2592,-15.8066 12.2219,-48.3681 10.2112,-24.66343 12.9093,-40.05693 10.091,-57.57173 -1.0886,-6.76477 -1.2642,-10.1907 -0.5586,-10.89632 1.3003,-1.30036 1.3514,-2.94639 0.067,-2.15244 -4.3939,2.71558 -13.8985,20.41566 -14.5109,27.02326 -2.2977,24.78863 -12.6167,55.87173 -23.3904,70.45723 -18.0645,24.4556 -35.0672,29.0507 -26.0598,7.0428 15.458,-37.7688 16.8861,-64.84303 2.5284,-47.9337 -23.4427,27.6088 -37.8731,39.5758 -46.1105,38.2391 l -3.6462,-0.5917 0.5672,-7.9291 c 0.9874,-13.8019 5.77,-27.4219 14.955,-42.58893 4.1502,-6.8531 12.41,-23.3135 16.0426,-31.97029 l 2.633,-6.27455 -1.523,-9.46468 c -2.6059,-16.1944 -1.9848,-19.50587 5.9049,-31.48167 4.7556,-7.21855 8.5725,-10.00454 13.7066,-10.00454 1.2094,0 1.9114,-0.28744 1.5601,-0.63875 -0.3513,-0.35131 -5.7414,-0.56392 -11.978,-0.47248 -24.1057,0.35345 -28.9646,-19.31986 -12.1149,-49.05206 6.0113,-10.60719 10.3004,-20.28228 11.9576,-26.97283 0.8669,-3.50014 2.8771,-10.44328 4.4671,-15.42921 1.59,-4.98593 3.1789,-10.86607 3.5308,-13.06699 l 0.6399,-4.00166 -16.3486,-2.68439 c -19.3576,-3.17848 -32.6843,-4.64053 -42.5156,-4.6643 -34.7226,-0.084 -12.5846,-14.59256 28.1671,-18.45989 30.1207,-2.85845 72.3525,-10.08315 108.5,-18.56137 6.875,-1.6125 20.375,-4.76154 30,-6.99788 9.625,-2.23634 22.9,-5.80612 29.5,-7.93286 6.6,-2.12673 18.7416,-5.98447 26.9814,-8.57274 24.2032,-7.60274 37.3986,-13.91987 50.7314,-24.28706 8.0163,-6.23323 9.953,-5.72691 20.0516,5.24207 4.2704,4.63849 12.0125,11.62662 17.2047,15.52917 8.1776,6.14645 11.2136,10.02323 7.8494,10.02323 -1.7756,0 -17.4855,-13.04306 -25.5062,-21.17631 -10.9876,-11.14179 -11.6607,-11.36217 -18.4725,-6.04791 -16.5544,12.91495 -59.5009,29.21927 -106.167,40.30553 -65.082,15.46126 -103.9395,22.66078 -139.6728,25.87862 -10.627,0.95698 -35.617,6.06676 -39.4099,8.05827 -3.1245,1.64054 3.0996,2.92314 19.0777,3.93131 9.0565,0.57144 22.9612,2.16277 30.8993,3.53628 19.4501,3.36543 20.2341,3.33573 21.738,-0.82343 6.9339,-19.17537 17.8631,-18.83392 20.0096,0.62513 1.0334,9.36824 3.4403,9.13896 9.169,-0.87341 10.691,-18.68547 18.6594,-16.66215 20.851,5.29441 l 0.6653,6.66495 5,1.29399 c 11.3519,2.93785 15.2735,1.83099 17.4498,-4.92511 2.7505,-8.53893 12.8746,-5.65994 14.5289,4.13158 l 0.644,3.81186 7.7115,1.65712 c 10.5179,2.26019 10.8451,2.20614 13.0724,-2.15978 5.4471,-10.67725 14.3348,-7.55135 16.5968,5.83728 0.8088,4.78715 1.9157,5.7312 8.0958,6.90503 6.4331,1.22189 9.6845,2.50653 11.3143,4.47041 0.7323,0.8823 2.1763,1.60418 3.2089,1.60418 1.0327,0 1.8776,0.675 1.8776,1.5 0,2.33878 -4.8297,1.82108 -8.015,-0.85914 -1.7212,-1.44836 -4.7737,-2.62048 -7.9065,-3.03606 -2.8066,-0.3723 -5.7724,-0.93384 -6.5907,-1.24785 -1.133,-0.43478 -1.4925,0.22963 -1.5075,2.78606 -0.04,6.86187 -2.8248,18.78718 -7.8295,33.53059 -5.7628,16.97643 -6.7396,26.65079 -3.5794,35.45067 5.1867,14.44311 2.5765,27.07422 -7.0608,34.16791 -7.4168,5.45918 -7.4218,5.47151 -3.9027,9.65364 4.0235,4.78173 5.97,5.39791 19.3733,6.13298 l 12.4811,0.6845 3.8065,4.28938 c 2.4012,2.70577 4.4387,6.44088 5.5188,10.11696 2.1245,7.22994 2.8929,7.26575 11.2124,0.52253 17.157,-13.90639 16.8489,-13.85958 25.9512,-3.94217 14.6589,15.97173 15.5667,21.45873 6.8247,41.25003 -3.0368,6.87503 -7.8822,19.02503 -10.7676,27.00003 -12.3149,34.038 -19.8187,50.3706 -30.7821,67 -10.0857,15.298 -15.2843,18.9419 -20.122,14.1042 z m 10.6736,-6.8542 c 12.4736,-14.9467 21.5132,-33.7874 38.6635,-80.584 4.1868,-11.4243 7.5355,-19.56463 11.7921,-28.66603 5.1273,-10.963 3.3511,-17.2877 -8.538,-30.40244 -7.1137,-7.84707 -6.9394,-7.83955 -15.6954,-0.67705 -4.4498,3.64 -11.116,8.34311 -16.0402,11.31669 -3.996,2.413 -5.9874,12.8301 -5.9766,31.2628 0.01,16.17593 -1.1602,25.27793 -6.0624,47.17623 -10.0867,45.0576 -9.3893,64.0499 1.857,50.5738 z m 18.4722,-91.3425 c -5.976,-1.8932 -8.7056,-4.9075 -4.4442,-4.9075 3.5746,0 14.1942,4.1836 14.1942,5.5918 0,1.8602 -2.2078,1.7052 -9.75,-0.6843 z m -68.6958,76.9939 c 16.6732,-10.446 27.4999,-30.1995 33.3792,-60.9014 4.7584,-24.84843 11.0303,-42.33333 18.055,-50.33403 4.8162,-5.4854 3.8967,-13.91825 -2.3216,-21.29223 -2.6328,-3.12208 -2.6519,-3.12676 -14.4824,-3.54856 -13.3403,-0.47563 -18.0711,-2.29805 -22.4154,-8.63499 -2.9812,-4.34859 -12.6987,-5.20748 -22.0029,-1.94474 -6.7952,2.3829 -6.378,1.93255 -12.082,13.04154 l -4.5119,8.78706 1.2547,8.48632 c 1.6852,11.3977 4.8701,13.4396 20.963,13.4396 7.4481,0 7.5531,0.037 14.048,4.9529 7.1404,5.4046 10.413,6.4129 19.1212,5.8911 6.8298,-0.4092 8.3021,1.2818 2.6027,2.9894 -8.4105,2.5198 -16.5389,0.3762 -25.0646,-6.61 -4.3246,-3.5436 -4.7917,-3.68 -14.5327,-4.2433 -5.5355,-0.3201 -11.0863,-1.1424 -12.3352,-1.8273 -3.0322,-1.663 -4.2293,-0.7238 -4.2293,3.3182 0,9.2498 -5.2882,27.60423 -13.4058,46.52903 -2.0053,4.675 -4.7256,11.875 -6.045,16 -1.3195,4.125 -3.1079,9.173 -3.9742,11.2179 -12.2767,28.9791 20.1417,0.01 38.8454,-34.7179 7.3908,-13.7209 11.6775,-14.9354 13.2377,-3.7506 1.9389,13.8996 0.083,25.5673 -8.0939,50.8801 -5.8153,18.0025 -5.7038,18.3452 3.99,12.2719 z m -86.6223,-16.8667 c 14.2582,-7.274 29.301,-35.9761 35.9789,-68.64893 4.3709,-21.3853 4.2968,-22.4838 -1.6608,-24.6178 -4.4902,-1.6084 -6.2084,-2.851 -13.9932,-10.11921 -3.15,-2.94096 -3.5381,-3.03155 -13.5,-3.15114 -13.2522,-0.1591 -24.158,-3.52726 -21.1197,-6.52259 0.4757,-0.46889 3.3312,0.004 6.3629,1.05449 3.9731,1.37622 8.3295,1.91419 15.6918,1.93777 l 10.1918,0.0326 5.8082,5.12999 c 13.6675,12.07159 14.9767,11.99669 24.1218,-1.37999 3.8542,-5.6375 7.9921,-10.84396 9.1954,-11.56991 4.4625,-2.69228 -1.1566,-19.73597 -7.1961,-21.82719 -5.3448,-1.85064 -16.4875,-3.59095 -18.6327,-2.9101 -1.3685,0.43436 -2.5502,-0.0813 -3.8297,-1.67105 -3.6986,-4.59551 -7.4828,-6.77175 -11.7753,-6.77175 -2.2852,0 -6.7465,-0.675 -9.9139,-1.5 -10.7109,-2.78984 -12.2673,-2.28482 -17.7606,5.76285 -7.4703,10.94402 -8.1148,14.61772 -5.4338,30.97229 l 1.4319,8.73514 -2.7999,6.7649 c -4.7427,11.4588 -6.7429,15.4914 -15.9686,32.1942 -31.0414,56.19933 -15.7856,60.51813 29.201,8.26663 10.007,-11.62303 9.9021,-11.56913 12.0511,-6.19823 4.856,12.13623 2.7626,25.95303 -8.4577,55.82493 -5.1751,13.7775 -5.1575,13.8672 2.0072,10.2121 z m 65.4768,-126.85819 c 1.0341,-1.99984 3.2294,-3.52621 7.5257,-5.23269 7.0467,-2.79895 7.2471,-3.4064 2.6074,-7.9034 l -3.4583,-3.35186 -6.7847,1.94026 c -8.0786,2.31026 -8.3695,3.0208 -4.6085,11.25613 3.258,7.13408 2.871,6.86409 4.7184,3.29156 z m 30.0913,-9.05224 c 14.3932,-6.59118 18.8949,-15.85905 15.4669,-31.84303 -1.3675,-6.37639 -8.4771,-9.5615 -21.9669,-9.84121 -6.9797,-0.14473 -10.2886,-0.82404 -18.5,-3.79809 -13.8482,-5.01558 -15.1819,-4.9005 -20.91,1.80429 -16.0175,18.74869 -6.9889,41.47082 13.9155,35.02072 10.3456,-3.19218 9.4243,-3.39222 16.0246,3.47928 5.0367,5.24362 6.9308,6.43422 10.9699,6.89557 0.55,0.0628 2.8,-0.71007 5,-1.71753 z m -52.5,-9.7563 c 0,-0.34758 -0.9541,-2.17569 -2.1202,-4.06246 -1.3413,-2.17033 -2.3108,-5.80519 -2.639,-9.89497 -0.2854,-3.55546 -0.84,-6.66291 -1.2324,-6.90544 -0.7927,-0.48988 -15.0209,11.181 -14.987,12.29329 0.085,2.7952 10.2963,7.37538 20.2286,9.07333 0.4125,0.0705 0.75,-0.15616 0.75,-0.50375 z m -23.848,-11.61925 c 1.4586,-1.23683 5.7493,-4.81422 9.5349,-7.94976 20.0354,-16.5952 13.4352,-36.73001 -10.8528,-33.10755 -9.1551,1.36547 -9.5218,1.34088 -19.1259,-1.28242 -17.137,-4.68084 -22.2438,-3.12731 -26.2809,7.99489 -7.3507,20.25082 -2.2927,28.82561 17.1005,28.99038 l 12.4384,0.10568 3.7502,3.75 c 4.5325,4.53216 9.2391,5.0572 13.4356,1.49878 z m 89.0999,-28.99878 c 0.5146,-9.07609 1.9968,-14.7726 8.0011,-30.75 6.9397,-18.46647 6.324,-29.77137 -1.753,-32.18711 -7.6988,-2.30263 -7.1397,-2.63577 -14.8694,8.86001 -12.1698,18.09938 -12.2941,18.09376 -15.1085,-0.68233 -2.3717,-15.823 -2.4514,-15.99057 -7.6059,-15.99057 -5.105,0 -4.8486,-0.75045 -9.7829,28.62688 -2.4607,14.64969 -5.0184,26.53974 -6.6202,30.77517 -2.7616,7.30193 -2.7089,9.59795 0.2203,9.59795 0.9878,0 6.4651,1.60352 12.1718,3.56339 8.8557,3.04138 11.4904,3.52823 17.9852,3.32338 6.1607,-0.19431 8.3712,0.166 11.6096,1.89241 2.2,1.17284 4.2762,2.15232 4.6137,2.17662 0.3376,0.0243 0.8498,-4.1183 1.1382,-9.2058 z m -59.9436,2.67854 c 3.1412,-3.14121 5.3777,-6.68134 7.1484,-11.31517 3.8658,-10.11677 4.2704,-11.85775 8.1375,-35.01941 1.9657,-11.77332 3.9861,-22.49011 4.4899,-23.8151 1.4793,-3.89094 1.2934,-4.00551 -7.3341,-4.52069 -4.5375,-0.27095 -8.9684,-0.79903 -9.8465,-1.1735 -1.3802,-0.5886 -1.6873,0.71468 -2.266,9.61723 -0.488,7.50825 -1.7807,14.21291 -4.7715,24.74871 l -4.102,14.45062 1.2566,9.54938 c 0.6911,5.25217 1.4576,12.36189 1.7033,15.79939 0.5323,7.44743 -0.019,7.28177 5.5844,1.67854 z m -19.7029,-18.87172 8.1054,0.0568 -0.4617,-4.09616 c -0.3284,-2.91316 0.7523,-8.27253 3.7417,-18.55683 3.6346,-12.50371 4.2241,-15.87079 4.3563,-24.88079 l 0.1529,-10.42014 -5,-1.31057 c -9.586,-2.51263 -13.1601,-1.92296 -14.5523,2.40085 -2.1697,6.73871 -9.084,24.73286 -9.7824,25.45836 -2.987,3.10255 -3.2771,-1.54369 -0.5224,-8.36665 5.0485,-12.50421 2.7567,-22.24877 -5.6057,-23.83465 -8.184,-1.55208 -8.8009,-1.40656 -9.5079,2.24294 -0.3463,1.7875 -2.1232,8.2 -3.9487,14.25 -1.8255,6.05 -3.8384,13.18291 -4.473,15.8509 -0.6346,2.668 -3.6185,10.01663 -6.6307,16.3303 -3.0123,6.31368 -5.4769,11.6722 -5.4769,11.90784 0,0.23564 2.3625,0.18808 5.25,-0.10568 3.9252,-0.39934 7.2687,0.092 13.25,1.94694 6.8678,2.12991 9.0615,2.38118 15.5,1.77537 4.125,-0.38812 11.1474,-0.6801 15.6054,-0.64885 z m 68.359,-40.50387 c 3.3088,-4.92087 5.6829,-9.15254 5.2758,-9.4037 -0.8632,-0.53252 -11.9882,-2.64925 -13.9239,-2.64925 -1.8078,0 -1.0635,11.64551 1.2622,19.75 0.6096,2.12414 1.1862,1.52323 7.3859,-7.69705 z m 23.4163,-11.80295 c -1.4416,-6.03046 -3.6685,-8.70151 -6.1483,-7.37435 -4.0953,2.19171 -4.6297,7.04727 -0.9517,8.64639 5.5075,2.39455 7.8751,1.97038 7.1,-1.27204 z m -98.396,-8 c 0.01,-0.6875 -0.7078,-1.25 -1.5917,-1.25 -1.0545,0 -1.3983,0.5438 -1,1.58179 0.3339,0.86998 0.6139,2.10748 0.6223,2.75 0.02,1.55842 1.9495,-1.46032 1.9694,-3.08179 z m 60.8062,0.61521 c 0.1713,-0.89913 -0.8377,-2.92413 -2.242,-4.5 -2.866,-3.21601 -5.5489,-1.64338 -5.5489,3.2526 0,3.40352 7.1619,4.55022 7.7909,1.2474 z m -38.0814,-9.7902 c -1.2202,-14.55515 -5.2401,-15.83117 -12.2412,-3.88568 -4.6167,7.87721 -4.5147,8.30194 2.2817,9.50363 11.2021,1.98067 10.6239,2.3068 9.9595,-5.61795 z m -29.7095,-0.63219 c 0,-14.20484 -5.6038,-16.55274 -11.2092,-4.6965 -3.0961,6.54858 -2.3274,7.24233 8.9592,8.08558 1.9432,0.14517 2.25,-0.31701 2.25,-3.38908 z m 122.8203,150.83559 c -0.9045,-1.52812 -4.6553,-6.15341 -8.3352,-10.27841 -13.9649,-15.65417 -14.5912,-22.68339 -3.2335,-36.28712 8.4825,-10.15982 18.4832,-28.2842 28.2585,-51.21288 13.6583,-32.03655 16.4201,-36.5 22.5847,-36.5 4.6673,0 7.3872,3.06023 8.3346,9.37748 0.8086,5.39257 -7.1332,85.0657 -9.9876,100.19547 -1.9898,10.54754 -33.6829,31.35986 -37.6215,24.70546 z m 16.759,-8.61673 c 13.4269,-9.02243 16.9025,-13.2036 17.6998,-21.29324 0.3182,-3.22764 1.7243,-14.86844 3.1247,-25.86844 7.4792,-58.74645 7.9752,-74.22557 2.4131,-75.29674 -3.9969,-0.76974 -6.711,3.95663 -20.5564,35.79674 -11.2181,25.79828 -18.7996,39.46934 -28.2828,51 -10.0816,12.25832 -9.3541,17.65635 4.4319,32.88435 4.1747,4.61139 7.5904,8.77389 7.5904,9.25 0,2.01191 3.2779,0.44949 13.5793,-6.47267 z m 3.4207,-41.66168 c -0.825,-0.53316 -3.1875,-0.97627 -5.25,-0.98469 -3.1581,-0.0129 -3.75,-0.35244 -3.75,-2.15123 0,-1.95463 0.3801,-2.08383 4.4781,-1.52213 5.0079,0.68641 8.5219,2.50015 8.5219,4.3986 0,1.49274 -1.9008,1.61604 -4,0.25945 z m 511.0789,-54.41667 c -0.043,-1.05416 0.193,-1.64479 0.5253,-1.3125 0.3323,0.33229 0.3678,1.1948 0.079,1.91667 -0.3192,0.79773 -0.5562,0.56078 -0.6042,-0.60417 z m 0.9211,-5.02431 c 0,-1.40746 -0.5625,-2.56591 -1.25,-2.57433 -0.9184,-0.0113 -0.8895,-0.24374 0.1088,-0.87626 0.9796,-0.62068 1.1688,-1.98568 0.6779,-4.89115 -0.5323,-3.15069 -0.1496,-5.19633 1.7534,-9.37374 1.3389,-2.93895 2.7806,-6.46854 3.2038,-7.84354 1.3754,-4.46896 8.5361,-18.06904 13.2313,-25.12995 2.5213,-3.79171 4.402,-7.07617 4.1794,-7.2988 -0.3666,-0.3666 -4.0934,-2.14181 -27.6546,-13.17296 -8.0023,-3.74662 -9.3108,-5.6899 -3.5071,-5.20866 2.9864,0.24764 4.02,0.89129 5.1141,3.18469 0.9313,1.95211 1.6139,2.48184 2.1273,1.65105 0.5491,-0.88839 4.742,0.6455 15.3158,5.60292 l 14.5597,6.8262 -4.4013,6.02276 c -11.2982,15.46079 -21.4206,39.86321 -21.4515,51.71373 0,1.48004 -0.457,2.9691 -1.007,3.30902 -0.5672,0.35052 -1,-0.48962 -1,-1.94098 z M 1733.6205,760.189 c -10.0172,-1.73906 -4.5452,-3.00157 13.1184,-3.02669 39.6728,-0.0564 78.7544,-11.21446 107.257,-30.62258 10.4988,-7.14885 12.9014,-7.2619 19.0612,-0.89687 8.1376,8.4088 28.6809,24.15848 34.2961,26.2934 2.3298,0.88579 4.1957,6.07188 2.1846,6.07188 -2.0445,0 -28.1876,-19.8016 -36.5168,-27.65888 -7.7251,-7.28746 -8.2134,-7.40249 -13.9094,-3.27635 -30.999,22.45554 -92.8622,38.78076 -125.4911,33.11609 z M 1380.5423,604.03912 c -29.1024,-6.21614 -52.9504,-34.00024 -59.0102,-68.74987 -4.9048,-28.12592 0.2557,-64.42132 16.5328,-116.28111 3.0133,-9.60038 4.5496,-16 3.841,-16 -0.2126,0 -5.1063,2.06587 -10.875,4.59082 -5.7687,2.52496 -24.2136,9.2273 -40.9886,14.89411 -16.775,5.6668 -33.3509,11.50932 -36.8353,12.98336 -9.4349,3.99137 -55.7656,12.81892 -92.1647,17.56048 -31.4094,4.09158 -81.5833,7.25697 -107.4999,6.78202 -22.9894,-0.42132 -27.7249,13.55307 -8.6691,25.58245 5.1379,3.24343 6.7979,5.37791 5.3267,6.84914 -1.6313,1.63127 -1.4376,2.75762 0.4741,2.75762 4.3885,0 -0.9683,13.83557 -8.3891,21.66733 -18.6974,19.73293 -39.7706,25.16792 -54.42626,14.03717 -6.9514,-5.27949 -7.9585,-10.69203 -8.5531,-45.96908 l -0.4849,-28.76459 -2.4961,-1.9634 c -4.8483,-3.81366 -9.9564,2.1175 -13.7972,16.02007 -3.7022,13.40149 -5.3751,17.73586 -8.026,20.79514 -3.5918,4.14509 -5.3597,1.59324 -2.1614,-3.11979 1.333,-1.96424 3.6801,-8.21343 5.2159,-13.8871 5.9911,-22.13339 14.0949,-29.97356 22.2668,-21.54236 l 3.1726,3.27339 -0.03,25.47661 c -0.046,38.46652 1.4436,44.84874 11.5774,49.60858 25.25056,11.86014 68.83306,-28.8469 46.62536,-43.54903 -23.6502,-15.65707 -13.3624,-31.07867 20.7389,-31.08808 64.4387,-0.0178 162.783,-12.89827 193.8913,-25.39462 5.9094,-2.37383 20.1944,-7.36254 31.7444,-11.08601 43.2305,-13.93658 56.9319,-20.19221 57.9939,-26.47813 0.7449,-4.40931 4.5061,-6.1088 4.5061,-2.0361 0,2.66046 0.7583,2.53913 6.3689,-1.01902 4.3719,-2.77254 6.6311,-3.12795 6.6311,-1.04317 0,0.45088 -3.367,3.01182 -7.4822,5.69099 l -7.4821,4.8712 -3.5179,10.75531 c -1.9348,5.91541 -3.5178,11.60413 -3.5178,12.64159 0,1.17805 -0.9387,2.12187 -2.5,2.51374 -1.375,0.34511 -2.5,1.11704 -2.5,1.7154 0,0.59837 0.7292,0.8081 1.6205,0.46609 1.2068,-0.46307 1.4857,-0.17122 1.0924,1.14301 -20.3007,67.83988 -20.2075,111.05381 0.3049,141.29969 20.4802,30.19829 51.7553,39.48489 75.0999,22.29958 6.3526,-4.6765 11.7551,-4.90074 5.8823,-0.24415 -13.194,10.46161 -26.9526,14.6208 -39.5,11.94072 z M 150.26815,569.78029 c -0.89886,-1.08307 -0.85681,-1.85475 0.18201,-3.3403 6.97354,-9.97233 15.62749,-32.18938 23.53934,-60.43185 15.40164,-54.97836 20.94294,-69.24181 29.2739,-75.35171 7.25134,-5.31811 9.45092,2.56949 6.74174,24.17563 -5.38513,42.94724 -1.10413,58.74257 16.2614,59.99868 9.15439,0.66217 17.99375,-2.125 25.27575,-7.96979 3.3,-2.6487 9.21791,-7.28995 13.15091,-10.3139 7.81082,-6.00546 11.34909,-11.53859 11.34909,-17.74765 0,-3.77209 2.57175,-6.07083 3.64956,-3.26212 2.20378,5.74296 -2.92516,15.72069 -11.64956,22.66277 -3.025,2.40703 -8.96612,7.16174 -13.2025,10.56604 -19.04115,15.30124 -42.04358,12.79469 -48.25189,-5.25795 -2.60819,-7.58414 -3.06799,-24.42617 -1.16029,-42.5 2.71609,-25.73251 2.77638,-26.78203 1.58082,-27.52092 -3.02548,-1.86986 -8.84576,7.42471 -14.59494,23.30705 -3.3057,9.13215 -5.54871,16.67842 -16.27224,54.74544 -8.8581,31.44504 -22.54393,62.25197 -25.8731,58.24058 z m 462.53796,-1.8541 c -11.11684,-2.62153 -23.81706,-10.11189 -32.34515,-19.07658 -5.35574,-5.62992 -11.41867,-13.19898 -11.41867,-14.25525 0,-0.34428 -1.07618,-2.33075 -2.39152,-4.41437 -15.12039,-23.95226 -16.44012,-62.79339 -3.8689,-113.8659 3.95329,-16.06084 5.0468,-19.27833 6.6988,-19.71034 2.88354,-0.75406 2.89443,-0.91443 -0.81533,12.0071 -8.71029,30.33896 -13.05444,66.91632 -10.11087,85.13251 9.27533,57.39995 56.26379,88.88649 91.96618,61.6257 6.3188,-4.82476 8.66609,-2.74018 2.78329,2.47178 -9.98763,8.8487 -27.37741,13.17935 -40.49783,10.08535 z M 1989.5423,515.14276 c -4.95,-2.58661 -14.625,-8.1086 -21.5,-12.27109 -6.875,-4.16249 -20.825,-12.42737 -31,-18.36641 -17.6709,-10.31433 -24.1663,-14.49712 -22.5124,-14.49712 0.4165,0 0.1397,-0.74454 -0.6152,-1.65453 -1.8035,-2.17429 1.775,-0.37 16.1276,8.13153 5.775,3.42072 15.675,9.28749 22,13.03727 27.7083,16.42685 42.087,24.48573 43.6878,24.48573 2.1504,0 -8.3179,-14.35271 -23.7283,-32.53289 -5.1129,-6.03191 -12.6953,-15.24211 -16.8497,-20.46711 -4.1544,-5.225 -9.9665,-11.71723 -12.9157,-14.42718 -5.5047,-5.05808 -14.7071,-16.45617 -21.8577,-27.07282 -4.9546,-7.35628 -9.4228,-12.5 -10.8582,-12.5 -0.592,0 -1.6302,-1.5315 -2.3071,-3.40333 -2.1342,-5.90213 -13.6584,-9.28336 -12.5375,-3.67852 0.7733,3.86615 -3.2861,6.08185 -11.1426,6.08185 -4.6636,0 -6.2301,0.48632 -9.2996,2.88699 -2.0303,1.58784 -5.0133,3.30346 -6.6289,3.8125 -2.2839,0.71957 -3.26,1.91293 -4.3869,5.36301 -1.8835,5.76659 -1.5775,5.63108 -5.6693,2.51013 -6.7009,-5.11103 -9.7488,-1.53247 -7.2156,8.47186 0.7564,2.98761 11.6898,12.08872 17.3478,14.44066 2.1238,0.88283 5.4365,2.85881 7.3615,4.39108 1.925,1.53226 5.525,3.47324 8,4.31328 2.475,0.84004 8.5311,3.84105 13.458,6.66892 4.927,2.82786 9.6745,5.14157 10.55,5.14157 2.1165,0 3.992,1.97329 3.992,4.2 0,0.99 -0.1303,1.8 -0.2894,1.8 -0.6161,0 -14.4853,-7.37379 -19.7106,-10.47945 -3.025,-1.79791 -7.8096,-4.01913 -10.6324,-4.93604 -2.8228,-0.91691 -5.8736,-2.4862 -6.7796,-3.4873 -0.906,-1.00111 -3.5464,-2.65279 -5.8676,-3.67041 -10.2721,-4.5033 -20.3296,-13.85591 -21.5764,-20.06417 -1.7643,-8.785 -1.5333,-11.24557 1.106,-11.78083 1.2375,-0.25097 3.4048,-0.69735 4.8162,-0.99197 1.5125,-0.31571 3.4894,0.111 4.8146,1.03926 2.5858,1.81115 2.5315,1.84139 3.8144,-2.12548 0.7779,-2.40538 1.6822,-3.11229 4.5845,-3.58406 4.1941,-0.68172 6.5722,-2.39983 7.8031,-5.63742 0.8329,-2.1906 1.2076,-2.26911 7.8729,-1.64963 7.9382,0.73778 10.0443,-0.2238 10.0443,-4.58597 0,-4.63878 3.4304,-5.59653 10.9601,-3.05998 8.3815,2.82354 8.2389,3.09968 9.1403,-17.70141 2.3926,-55.21268 -0.7701,-117.60959 -10.5067,-207.28514 -2.3946,-22.05464 -2.4019,-22.99999 -0.1759,-22.99999 1.3844,0 1.9588,4.07747 5.5515,39.40856 8.1768,80.41177 11.8108,167.2065 8.4449,201.70059 -0.5204,5.33328 -0.313,7.11567 1.0743,9.23288 1.407,2.14745 1.5203,3.1939 0.6241,5.76474 -1.0459,3.00036 -0.7361,3.63927 6.9184,14.26712 12.0137,16.68029 15.2231,20.68693 20.5811,25.69347 2.6883,2.51206 8.696,9.26206 13.3504,15 4.6544,5.73795 13.0121,15.83263 18.5727,22.43263 30.9165,36.69561 34.3887,45.30707 13.9648,34.63462 z m -982.2999,-8.33462 c -1.6587,-1.6586 -1.5073,-7.30014 0.2347,-8.74579 4.7652,-3.95479 12.415,3.80716 8.4549,8.57885 -1.4,1.68691 -7.0609,1.79566 -8.6896,0.16694 z m 584.7999,-6.18741 c -7.1361,-3.56973 -76.4625,-43.74174 -77.8069,-45.08614 -1.9741,-1.9741 1.0496,-3.59452 3.5671,-1.91164 1.5069,1.00731 9.3499,5.66856 17.4289,10.35833 8.079,4.68977 23.5865,13.70186 34.4611,20.02686 21.3042,12.39113 27.3498,15.46556 27.3498,13.90841 0,-1.69352 -19.6569,-27.17017 -27.3199,-35.40841 -1.0232,-1.1 -6.1357,-7.26907 -11.3612,-13.70904 -5.2254,-6.43998 -12.9863,-15.21498 -17.2463,-19.5 -4.2601,-4.28503 -12.2702,-13.86596 -17.8004,-21.29096 -17.2621,-23.17649 -28.8166,-32.72763 -28.0922,-23.22138 0.2454,3.22066 -0.8224,5.37225 -2.5054,5.0484 -4.5022,-0.86634 -19.1924,2.52621 -18.1615,4.19421 0.2477,0.40082 -0.6746,0.72877 -2.0496,0.72877 -3.4973,0 -4.0842,-1.56352 -1.0237,-2.72712 1.6275,-0.61876 2.5602,-1.74003 2.5602,-3.07772 0,-1.99078 0.3445,-2.06745 6.3843,-1.42065 8.3116,0.8901 10.6157,0.14412 10.6157,-3.43691 0,-6.02626 3.8325,-6.95381 13.7964,-3.33908 6.9431,2.51881 6.6619,4.27453 7.0554,-44.04786 0.4397,-53.99697 -1.3004,-89.70517 -7.3438,-150.70066 -4.6474,-46.90607 -5.1981,-50.65568 -10.5754,-71.99999 -6.8045,-27.009852 -9.0285,-33.545702 -16.5996,-48.783132 -6.3307,-12.740964 -7.0147,-15.07617 -4.0868,-13.95263 8.7877,3.372148 27.6787,64.843872 31.7256,103.235762 9.0389,85.75042 11.5033,128.13744 10.785,185.49999 -0.4153,33.15825 -0.2578,40.98973 0.8686,43.20156 1.0816,2.12386 1.1268,3.24816 0.2112,5.25767 -1.0297,2.26001 -0.7777,3.10547 2.1759,7.29844 9.8074,13.92311 20.576,27.51635 25.2301,31.84813 2.8916,2.69132 8.1431,8.49351 11.6701,12.89375 3.527,4.40025 11.2657,13.69172 17.1972,20.64772 33.3815,39.14748 38.1436,49.09661 18.8901,39.46532 z M 232.24229,489.80814 c -3.47989,-3.47989 -0.70678,-9.8 4.3,-9.8 3.92545,0 5.5,1.57455 5.5,5.5 0,3.92545 -1.57455,5.5 -5.5,5.5 -1.705,0 -3.64,-0.54 -4.3,-1.2 z m 608.18057,-7.69208 c -1.58431,-0.95101 -4.78671,-2.48315 -7.11643,-3.40476 -2.32973,-0.92161 -12.45473,-6.46324 -22.5,-12.31474 -24.06971,-14.02091 -36.42818,-20.46437 -46.76414,-24.38187 -21.29261,-8.07027 -25.01503,-9.77816 -33,-15.14083 -16.5286,-11.10053 -44.00441,-42.39129 -39.79236,-45.31743 0.1608,-0.11171 1.75629,-0.78597 3.54555,-1.49834 2.27466,-0.90564 3.48703,-2.19768 4.03063,-4.29548 0.64389,-2.48487 1.71695,-3.34464 6.24681,-5.00512 6.79498,-2.49079 8.57036,-4.00429 9.36647,-7.98485 0.85839,-4.29197 3.35254,-6.7645 6.82363,-6.7645 1.60091,0 3.83547,-0.4949 4.96569,-1.09977 1.46416,-0.78359 1.86156,-0.78689 1.38232,-0.0115 -0.41929,0.67842 -0.0881,0.86402 0.87932,0.49278 0.85357,-0.32755 1.5521,-0.88489 1.55229,-1.23855 1.9e-4,-0.35365 1.58147,-0.72964 3.51395,-0.83553 3.65388,-0.20021 6.40496,-2.0497 5.79057,-3.89288 -0.19572,-0.58715 0.78565,-2.29925 2.18082,-3.80466 6.71677,-7.24751 8.3266,-77.06321 3.46824,-150.41153 -1.95326,-29.48903 -18.76374,-110.704882 -30.88186,-149.198356 -1.12545,-3.575 -2.05207,-6.6125 -2.05917,-6.75 -0.28018,-5.429352 4.27882,1.743378 7.30942,11.5 7.55856,24.333804 13.81923,52.117246 25.06889,111.249996 7.17107,37.69405 9.43943,123.5787 4.50876,170.71087 -0.92674,8.85868 -0.85842,10.51037 0.51592,12.47251 2.83841,4.0524 -4.02156,14.60518 -7.24861,11.15061 -1.78387,-1.90964 -7.83762,-1.65667 -9.95514,0.41601 -0.9923,0.97128 -3.45008,1.80168 -5.52334,1.86613 -4.51832,0.14047 -7.2112,2.37795 -10.063,8.36124 -1.54245,3.23616 -2.96455,4.72858 -5.12992,5.38356 -5.52081,1.66994 -7.65688,3.04973 -9.12929,5.89706 -0.80454,1.5558 -2.55757,3.32753 -3.89563,3.9372 -3.20034,1.45817 -2.45931,4.70926 2.46277,10.80481 1.99853,2.475 4.92762,6.3 6.50909,8.5 1.58148,2.2 4.10289,5.125 5.60313,6.5 16.9031,15.49195 26.32402,21.30525 45.95405,28.35651 13.91986,5.00013 26.46627,11.26881 50.60004,25.28175 19.122,11.10294 29.39996,16.26903 29.39996,14.77754 0,-5.93022 -18.60812,-26.95505 -40,-45.19497 -16.28068,-13.88181 -21.14289,-18.9611 -33.71563,-35.22083 -5.31605,-6.875 -11.37666,-14.47231 -13.46802,-16.88291 -4.9,-5.64797 -7.18295,-10.15049 -5.83178,-11.50166 1.53186,-1.53186 1.28709,-5.93365 -0.29616,-5.3261 -0.97228,0.37309 -1.17598,-0.31066 -0.78742,-2.64301 0.49006,-2.9416 0.55281,-2.98365 0.96425,-0.64632 l 0.44008,2.5 0.66631,-2.5 c 0.50568,-1.89734 0.93329,-0.73875 1.77381,4.80612 0.97363,6.42296 1.64012,7.93396 5.51361,12.5 2.42335,2.85664 8.1693,10.14388 12.76878,16.19388 11.28,14.83733 17.84266,21.90994 29.03577,31.29195 22.5298,18.88437 37.73479,35.16495 45.90187,49.14892 5.55506,9.51158 4.93771,13.08234 -1.5849,9.16705 z m -92.38057,-48.10792 c 0,-0.55 -0.47656,-1 -1.05902,-1 -0.58246,0 -0.7809,0.45 -0.44098,1 0.33992,0.55 0.81648,1 1.05902,1 0.24254,0 0.44098,-0.45 0.44098,-1 z m -474.735,37.28926 c -14.69699,-14.64608 -17.56561,-20.11012 -14.4036,-27.43534 4.11296,-9.52819 2.03504,-9.21827 62.6386,-9.34241 53.99486,-0.11059 59.16081,-0.41335 87.5,-5.12796 33.31737,-5.54281 108.59167,-31.74585 154.57584,-53.80798 l 13.07585,-6.27348 1.67415,-5.96665 c 0.92079,-3.28166 1.67416,-6.69807 1.67416,-7.59203 0,-2.03683 1.87072,-3.27269 3.09726,-2.04615 0.56399,0.56399 0.52822,3.00457 -0.0919,6.27472 -1.24828,6.58218 -1.47383,6.40287 4.34423,3.4536 4.51901,-2.29076 6.65046,-2.43721 6.65046,-0.45695 0,0.46783 -3.375,2.7029 -7.5,4.96684 -4.125,2.26393 -7.5,4.67256 -7.5,5.3525 0,4.64834 -6.80638,21.71203 -8.66052,21.71203 -1.73058,0 -1.77863,0.36118 1.33611,-10.044 3.39152,-11.32981 4.13616,-11.13311 -12.77256,-3.37393 -45.81786,21.02518 -112.12892,44.19563 -143.90308,50.28267 -32.56615,6.23877 -92.69822,9.10259 -124.77572,5.94251 -30.10269,-2.96554 -37.2694,6.80423 -19.20515,26.18072 3.83948,4.11839 6.98087,7.80433 6.98087,8.19099 0,2.00487 -2.25568,1.58103 -4.735,-0.8897 z M 1504.5423,451.86055 c -2.2,-1.13255 -7.3898,-4.02316 -11.5329,-6.42356 -4.1431,-2.40041 -9.5122,-5.06271 -11.9313,-5.91623 -2.4192,-0.85352 -5.808,-2.62693 -7.5307,-3.94091 -1.7227,-1.31398 -4.8097,-3.08999 -6.8601,-3.94668 -3.4546,-1.44341 -7.657,-4.5787 -16.2519,-12.12503 -8.3688,-7.34777 -5.3826,-19.78153 4.448,-18.52038 4.8869,0.62693 5.6757,0.29366 5.2773,-2.22962 -0.065,-0.4125 0.7592,-0.75 1.8319,-0.75 1.0727,0 2.409,-0.7875 2.9696,-1.75 0.7939,-1.36304 1.0182,-1.41832 1.0143,-0.25 0,0.825 -0.6482,2.625 -1.4342,4 -0.786,1.375 -1.4451,3.48594 -1.4646,4.69098 -0.055,3.41345 -1.7205,3.65098 -5.482,0.78194 -8.1048,-6.18182 -11.012,5.28769 -3.3609,13.25925 3.2789,3.41615 12.808,10.26783 14.2802,10.26783 0.4211,0 3.2995,1.5192 6.3965,3.37601 3.0969,1.8568 7.3434,3.92498 9.4365,4.59594 2.0932,0.67096 6.6994,2.9779 10.2361,5.12653 3.5367,2.14863 8.3492,4.64446 10.6943,5.54628 2.3451,0.90183 5.1639,2.53762 6.2639,3.63509 1.1,1.09747 1.4375,1.68191 0.75,1.29876 -0.6875,-0.38316 -1.25,-0.22009 -1.25,0.36237 0,1.56181 -2.0033,1.2263 -6.5,-1.08857 z"
     id="path3080"
     style="fill:#000000" />
  <path
     d="m 234.54545,484.18182 509.09091,-135.45455 10,455.45455"
     id="path3082"
     style="fill:none;stroke:#000000;stroke-width:3.5;stroke-linecap:butt;stroke-linejoin:miter;stroke-opacity:1;stroke-miterlimit:4;stroke-dasharray:none" />
  <path
     d="m 1009.675,501.81442 504.2821,-115.51837 -2.2215,737.54035 0,0 0,0 0,0"
     id="path3084"
     style="fill:none;stroke:#000000;stroke-width:3.5;stroke-linecap:butt;stroke-linejoin:miter;stroke-opacity:1;stroke-miterlimit:4;stroke-dasharray:none" />
  <path
     d="m 1910.4961,1139.387 1.1108,-739.76191 12.2183,449.8552"
     id="path3086"
     style="fill:none;stroke:#000000;stroke-width:3.5;stroke-linecap:butt;stroke-linejoin:miter;stroke-opacity:1;stroke-miterlimit:4;stroke-dasharray:none" />
  <path
     d="m 600.6006,386.75933 143.24324,-38.39554 2.98156,143.3505 C 643.19425,507.66143 606.00054,462.65439 600.6006,386.75933 z"
     id="path3088"
     style="fill:url(#linearGradient3864);fill-opacity:1;fill-rule:nonzero;stroke:#000000;stroke-width:3.5;stroke-linecap:butt;stroke-linejoin:miter;stroke-opacity:1;stroke-miterlimit:4;stroke-dasharray:none" />
  <path
     d="m 1367.6514,419.93585 146.6915,-34.60243 -0.6686,144.62888 c -103.6311,15.94714 -140.6229,-34.13139 -146.0229,-110.02645 z"
     id="path3088-2"
     style="fill:url(#linearGradient3881);fill-opacity:1;fill-rule:nonzero;stroke:#000000;stroke-width:3.5;stroke-linecap:butt;stroke-linejoin:miter;stroke-opacity:1;stroke-miterlimit:4;stroke-dasharray:none" />
  <path
     d="m 1911.3502,533.18635 0.8449,-132.0644 2.8918,132.0644 c -1.2455,1.52222 -2.4911,1.61448 -3.7367,0 z"
     id="path3900"
     style="fill:url(#linearGradient3908);fill-opacity:1;stroke:#000000;stroke-width:1px;stroke-linecap:butt;stroke-linejoin:miter;stroke-opacity:1" />
  <text
     x="377.77777"
     y="1203.7778"
     id="text3910"
     xml:space="preserve"
     style="font-size:40px;font-style:normal;font-weight:normal;line-height:125%;letter-spacing:0px;word-spacing:0px;fill:#000000;fill-opacity:1;stroke:none;font-family:Bitstream Vera Sans"><tspan
       x="377.77777"
       y="1203.7778"
       id="tspan3912"
       style="font-style:normal;font-variant:normal;font-weight:normal;font-stretch:normal;font-family:cmr10;-inkscape-font-specification:cmr10">A</tspan></text>
  <text
     x="1151.6862"
     y="1215.8719"
     id="text3910-4"
     xml:space="preserve"
     style="font-size:40px;font-style:normal;font-weight:normal;line-height:125%;letter-spacing:0px;word-spacing:0px;fill:#000000;fill-opacity:1;stroke:none;font-family:Bitstream Vera Sans"><tspan
       x="1151.6862"
       y="1215.8719"
       id="tspan3912-5"
       style="font-style:normal;font-variant:normal;font-weight:normal;font-stretch:normal;font-family:cmr10;-inkscape-font-specification:cmr10">B</tspan></text>
  <text
     x="1713.9084"
     y="1269.2053"
     id="text3910-8"
     xml:space="preserve"
     style="font-size:40px;font-style:normal;font-weight:normal;line-height:125%;letter-spacing:0px;word-spacing:0px;fill:#000000;fill-opacity:1;stroke:none;font-family:Bitstream Vera Sans"><tspan
       x="1713.9084"
       y="1269.2053"
       id="tspan3912-57"
       style="font-style:normal;font-variant:normal;font-weight:normal;font-stretch:normal;font-family:cmr10;-inkscape-font-specification:cmr10">C</tspan></text>
  <text
     x="1925.2023"
     y="1150.5752"
     id="text3910-3"
     xml:space="preserve"
     style="font-size:40px;font-style:normal;font-weight:normal;line-height:125%;letter-spacing:0px;word-spacing:0px;fill:#000000;fill-opacity:1;stroke:none;font-family:Bitstream Vera Sans"><tspan
       x="1925.2023"
       y="1150.5752"
       id="tspan3912-3"
       style="font-style:normal;font-variant:normal;font-weight:normal;font-stretch:normal;font-family:cmr10;-inkscape-font-specification:cmr10">B</tspan></text>
  <text
     x="1938.3529"
     y="860.31641"
     id="text3910-89"
     xml:space="preserve"
     style="font-size:40px;font-style:normal;font-weight:normal;line-height:125%;letter-spacing:0px;word-spacing:0px;fill:#000000;fill-opacity:1;stroke:none;font-family:Bitstream Vera Sans"><tspan
       x="1938.3529"
       y="860.31641"
       id="tspan3912-55"
       style="font-style:normal;font-variant:normal;font-weight:normal;font-stretch:normal;font-family:cmr10;-inkscape-font-specification:cmr10">A</tspan></text>
  <text
     x="1928.2769"
     y="403.05612"
     id="text3910-38"
     xml:space="preserve"
     style="font-size:40px;font-style:normal;font-weight:normal;line-height:125%;letter-spacing:0px;word-spacing:0px;fill:#000000;fill-opacity:1;stroke:none;font-family:Bitstream Vera Sans"><tspan
       x="1928.2769"
       y="403.05612"
       id="tspan3912-6"
       style="font-style:normal;font-variant:normal;font-weight:normal;font-stretch:normal;font-family:cmr10;-inkscape-font-specification:cmr10">N</tspan></text>
  <text
     x="1529.464"
     y="391.42752"
     id="text3910-0"
     xml:space="preserve"
     style="font-size:40px;font-style:normal;font-weight:normal;line-height:125%;letter-spacing:0px;word-spacing:0px;fill:#000000;fill-opacity:1;stroke:none;font-family:Bitstream Vera Sans"><tspan
       x="1529.464"
       y="391.42752"
       id="tspan3912-33"
       style="font-style:normal;font-variant:normal;font-weight:normal;font-stretch:normal;font-family:cmr10;-inkscape-font-specification:cmr10">N</tspan></text>
  <text
     x="1524.6847"
     y="1130.91"
     id="text3910-6"
     xml:space="preserve"
     style="font-size:40px;font-style:normal;font-weight:normal;line-height:125%;letter-spacing:0px;word-spacing:0px;fill:#000000;fill-opacity:1;stroke:none;font-family:Bitstream Vera Sans"><tspan
       x="1524.6847"
       y="1130.91"
       id="tspan3912-1"
       style="font-style:normal;font-variant:normal;font-weight:normal;font-stretch:normal;font-family:cmr10;-inkscape-font-specification:cmr10">B</tspan></text>
  <text
     x="993.23871"
     y="484.24335"
     id="text3910-87"
     xml:space="preserve"
     style="font-size:40px;font-style:normal;font-weight:normal;line-height:125%;letter-spacing:0px;word-spacing:0px;fill:#000000;fill-opacity:1;stroke:none;font-family:Bitstream Vera Sans"><tspan
       x="993.23871"
       y="484.24335"
       id="tspan3912-0"
       style="font-style:normal;font-variant:normal;font-weight:normal;font-stretch:normal;font-family:cmr10;-inkscape-font-specification:cmr10">S</tspan></text>
  <text
     x="218.35286"
     y="464.76086"
     id="text3910-5"
     xml:space="preserve"
     style="font-size:40px;font-style:normal;font-weight:normal;line-height:125%;letter-spacing:0px;word-spacing:0px;fill:#000000;fill-opacity:1;stroke:none;font-family:Bitstream Vera Sans"><tspan
       x="218.35286"
       y="464.76086"
       id="tspan3912-11"
       style="font-style:normal;font-variant:normal;font-weight:normal;font-stretch:normal;font-family:cmr10;-inkscape-font-specification:cmr10">S</tspan></text>
  <text
     x="756.13062"
     y="360.31641"
     id="text3910-03"
     xml:space="preserve"
     style="font-size:40px;font-style:normal;font-weight:normal;line-height:125%;letter-spacing:0px;word-spacing:0px;fill:#000000;fill-opacity:1;stroke:none;font-family:Bitstream Vera Sans"><tspan
       x="756.13062"
       y="360.31641"
       id="tspan3912-00"
       style="font-style:normal;font-variant:normal;font-weight:normal;font-stretch:normal;font-family:cmr10;-inkscape-font-specification:cmr10">N</tspan></text>
  <text
     x="769.46399"
     y="820.31641"
     id="text3910-45"
     xml:space="preserve"
     style="font-size:40px;font-style:normal;font-weight:normal;line-height:125%;letter-spacing:0px;word-spacing:0px;fill:#000000;fill-opacity:1;stroke:none;font-family:Bitstream Vera Sans"><tspan
       x="769.46399"
       y="820.31641"
       id="tspan3912-4"
       style="font-style:normal;font-variant:normal;font-weight:normal;font-stretch:normal;font-family:cmr10;-inkscape-font-specification:cmr10">A</tspan></text>
  <text
     x="647.82751"
     y="310.44153"
     id="text4025"
     xml:space="preserve"
     style="font-size:40px;font-style:normal;font-weight:normal;line-height:125%;letter-spacing:0px;word-spacing:0px;fill:#000000;fill-opacity:1;stroke:none;font-family:Bitstream Vera Sans"><tspan
       x="647.82751"
       y="310.44153"
       id="tspan4027">82</tspan></text>
  <text
     x="1402.3813"
     y="310.41339"
     id="text4025-9"
     xml:space="preserve"
     style="font-size:40px;font-style:normal;font-weight:normal;line-height:125%;letter-spacing:0px;word-spacing:0px;fill:#000000;fill-opacity:1;stroke:none;font-family:Bitstream Vera Sans"><tspan
       x="1402.3813"
       y="310.41339"
       id="tspan4027-4">80</tspan></text>
  <text
     x="1844.2448"
     y="310.14386"
     id="text4025-9-9"
     xml:space="preserve"
     style="font-size:40px;font-style:normal;font-weight:normal;line-height:125%;letter-spacing:0px;word-spacing:0px;fill:#000000;fill-opacity:1;stroke:none;font-family:Bitstream Vera Sans"><tspan
       x="1844.2448"
       y="310.14386"
       id="tspan4027-4-8">2</tspan></text>
</svg>
