<?xml version="1.0" encoding="UTF-8" standalone="no"?>
<!-- Created with Inkscape (http://www.inkscape.org/) -->

<svg
   xmlns:dc="http://purl.org/dc/elements/1.1/"
   xmlns:cc="http://creativecommons.org/ns#"
   xmlns:rdf="http://www.w3.org/1999/02/22-rdf-syntax-ns#"
   xmlns:svg="http://www.w3.org/2000/svg"
   xmlns="http://www.w3.org/2000/svg"
   xmlns:sodipodi="http://sodipodi.sourceforge.net/DTD/sodipodi-0.dtd"
   xmlns:inkscape="http://www.inkscape.org/namespaces/inkscape"
   version="1.1"
   width="1014"
   height="984"
   id="svg2"
   inkscape:version="0.48.1 r9760"
   sodipodi:docname="steiner_snb.svg">
  <sodipodi:namedview
     pagecolor="#ffffff"
     bordercolor="#666666"
     borderopacity="1"
     objecttolerance="10"
     gridtolerance="10"
     guidetolerance="10"
     inkscape:pageopacity="0"
     inkscape:pageshadow="2"
     inkscape:window-width="640"
     inkscape:window-height="480"
     id="namedview45"
     showgrid="false"
     inkscape:zoom="0.27337398"
     inkscape:cx="507"
     inkscape:cy="492"
     inkscape:window-x="0"
     inkscape:window-y="0"
     inkscape:window-maximized="0"
     inkscape:current-layer="svg2" />
  <metadata
     id="metadata8">
    <rdf:RDF>
      <cc:Work
         rdf:about="">
        <dc:format>image/svg+xml</dc:format>
        <dc:type
           rdf:resource="http://purl.org/dc/dcmitype/StillImage" />
        <dc:title />
      </cc:Work>
    </rdf:RDF>
  </metadata>
  <defs
     id="defs6" />
  <path
     d="m 568.06776,919.96901 c -16.28566,-3.40592 -43.16338,-13.94616 -68.60225,-26.90273 -16.79711,-8.55512 -26.75595,-12.83475 -34.73877,-14.92833 -3.75762,-0.98548 -3.78926,-0.96813 -7.63406,4.18624 -5.19117,6.95933 -8.82945,10.25089 -13.47623,12.19198 -3.6014,1.50441 -3.83752,1.50232 -3.25,-0.0287 0.34845,-0.90809 0.63355,-2.0908 0.63355,-2.62827 0,-0.53748 0.39473,-0.73328 0.87718,-0.43511 3.12398,1.93073 17.76135,-15.65607 20.30517,-24.39666 2.01567,-6.92582 1.4947,-20.24568 -1.13532,-29.02743 -3.12824,-10.44532 -9.76383,-22.93399 -13.23408,-24.90749 -3.11572,-1.77189 -3.52751,-2.88108 -1.37609,-3.70665 0.79027,-0.30326 1.19212,-1.18914 0.89301,-1.96862 C 447.03075,806.63776 447.19464,806 447.69405,806 c 1.20338,0 9.54548,13.93433 12.87146,21.5 3.68052,8.37214 6.43449,19.76158 6.43449,26.61074 0,6.35415 -1.70023,15.84329 -3.10678,17.33926 -1.69034,1.7978 -0.88701,3.30124 2.08113,3.89487 3.22759,0.64552 18.89859,6.55282 20.52565,7.73729 2.03994,1.48505 37.09079,18.72567 39.5,19.42905 1.375,0.40144 5.13627,1.82687 8.35837,3.16763 3.22211,1.34076 6.12093,2.17519 6.44184,1.85429 0.3209,-0.32091 -0.96536,-3.60322 -2.85837,-7.29402 -3.40434,-6.63743 -3.44175,-6.85234 -3.43331,-19.72483 0.01,-15.28219 1.67605,-21.81437 9.69553,-38.01428 8.46449,-17.09887 25.44853,-40.3028 30.72538,-41.9776 0.95974,-0.30461 3.24346,-3.58427 5.07493,-7.28812 4.63524,-9.37402 11.89949,-21.7149 20.74005,-35.23428 5.92037,-9.05369 8.90505,-12.56361 14.03089,-16.5 3.58097,-2.75 7.00896,-5.17666 7.61777,-5.39258 0.60881,-0.21593 2.42685,-1.31776 4.04009,-2.44853 2.61715,-1.83443 2.85956,-1.86412 2.25,-0.27562 -0.37574,0.97917 -0.68317,2.36225 -0.68317,3.07352 0,0.71126 -1.2375,1.54424 -2.75,1.85106 -3.06518,0.62179 -16.61604,11.59769 -17.65221,14.2979 -0.91636,2.38801 -0.12927,2.9039 8.15221,5.34334 5.202,1.53233 7.28258,2.61798 7.36535,3.84326 0.0634,0.93921 0.18737,2.38265 0.2754,3.20765 0.088,0.825 -0.22823,2.33145 -0.7028,3.34766 -0.83699,1.79229 -0.90222,1.79144 -2.17679,-0.0283 -0.72267,-1.03176 -1.47082,-2.96551 -1.66255,-4.29723 -0.29146,-2.02437 -1.39042,-2.7274 -6.70361,-4.28844 -3.49525,-1.02692 -6.91162,-1.65353 -7.59194,-1.39247 -1.65127,0.63366 -11.12886,15.98417 -18.74492,30.36048 -5.71663,10.79089 -6.19014,12.18363 -6.6104,19.44334 -0.52703,9.10427 0.65657,10.46526 6.40775,7.36804 4.79892,-2.58439 27.73812,-27.08019 32.13939,-34.32029 l 2.24487,-3.69283 0.005,4.19098 c 0.003,2.30504 -0.37712,4.42722 -0.8443,4.71596 -0.46719,0.28873 -1.66661,6.16529 -2.66539,13.05902 C 615.48642,806.35968 614.28508,812 613.81557,812 c -0.46952,0 -0.58364,1.07591 -0.25359,2.39091 0.33004,1.31499 0.11361,2.69155 -0.48095,3.05901 -0.59457,0.36746 -1.08103,1.72975 -1.08103,3.02731 0,3.22175 -1.02134,5.62761 -2.10478,4.95801 C 609.40285,825.13094 609,823.3666 609,821.51449 c 0,-3.44665 3.16571,-20.42649 4.89673,-26.26449 0.53001,-1.7875 0.5887,-3.25 0.13042,-3.25 -0.45829,0 -3.01438,2.34106 -5.6802,5.20236 C 605.68113,800.06366 600.8,805.2891 597.5,808.81445 591.10665,815.64438 584.12237,821 581.60878,821 578.14662,821 576,816.90922 576,810.31144 576,806.84015 575.66104,804 575.24675,804 c -0.41428,0 -1.88542,1.2375 -3.26919,2.75 -15.43032,16.86579 -28.44748,39.66749 -32.98453,57.77781 -1.75046,6.98726 -2.12447,10.82235 -1.79438,18.39965 0.38702,8.88415 0.73083,10.20586 4.78083,18.37922 2.4001,4.84367 5.09727,9.19921 5.99372,9.67897 5.29937,2.83614 21.1389,6.34221 29.0268,6.42507 9.7889,0.10282 12.66633,-0.51956 15.7699,-3.41098 2.31282,-2.15471 2.59365,-1.52379 1.33546,3.00026 -0.47216,1.69773 -1.48312,2.57113 -3.15032,2.72165 -10.37698,0.93687 -19.13763,1.03155 -22.88728,0.24736 z m 278.55771,-2.48571 c -3.781,-0.77172 -9.856,-2.37597 -13.5,-3.56501 -6.30493,-2.05729 -9.81346,-3.56497 -27.12547,-11.65632 -30.59522,-14.29971 -57.37727,-24.23639 -80.25297,-29.77545 -5.51105,-1.33443 -10.25864,-2.6648 -10.55022,-2.95638 -3.0602,-3.0602 15.47578,0.87809 36.30319,7.71324 14.6795,4.81753 38.10873,14.20564 53.397,21.39623 6.26835,2.94821 12.0174,5.36039 12.77568,5.36039 1.70975,0 0.10298,-3.33353 -6.49002,-13.46464 -6.83662,-10.50546 -9.50747,-19.12637 -8.98832,-29.0123 0.58577,-11.15465 3.98818,-17.22642 17.46577,-31.16852 5.77109,-5.97 14.10345,-15.27028 18.51636,-20.6673 4.41291,-5.39702 9.01656,-10.19033 10.23035,-10.65181 1.49691,-0.56913 3.90009,-4.32163 7.47007,-11.66433 C 862.75756,773.21904 870.78315,760 872.49454,760 c 0.74817,0 2.25027,-1.13142 3.33802,-2.51427 1.08775,-1.38284 4.94541,-5.70558 8.57258,-9.60608 5.84517,-6.28564 6.59486,-6.80487 6.59486,-4.56752 0,3.2271 -0.98687,5.81402 -1.98309,5.19832 -1.10306,-0.68173 -10.23893,9.32349 -9.77747,10.70787 0.21086,0.63257 2.60574,1.89481 5.32197,2.80497 3.56012,1.19295 4.95692,2.18824 5.00427,3.56578 0.11043,3.21294 -0.77293,3.7856 -2.45877,1.59395 -0.8838,-1.14898 -3.77036,-2.66047 -6.41457,-3.35886 -6.63342,-1.75204 -8.85031,-0.25582 -14.33638,9.67584 -9.70349,17.56663 -15.60779,32.37928 -16.95529,42.53728 -0.61793,4.65819 -0.52205,4.96272 1.56254,4.96272 2.17998,0 13.2466,-10.48639 29.14724,-27.61905 l 6.60711,-7.11904 -0.10878,11.26456 c -0.0598,6.1955 -0.44628,11.06001 -0.85878,10.81002 -0.4125,-0.24999 -0.78336,1.48453 -0.82412,3.85449 -0.0408,2.36996 -0.40452,6.33402 -0.80834,8.80902 l -0.73421,4.5 -0.75164,-4.0847 c -0.41339,-2.24658 -0.23147,-8.91591 0.40428,-14.82072 0.63575,-5.90482 0.90438,-10.98756 0.59696,-11.29499 -0.30743,-0.30742 -6.7631,5.74753 -14.34594,13.45546 -7.58285,7.70793 -14.83197,14.33191 -16.10916,14.71997 -1.2772,0.38806 -3.47706,0.41571 -4.8886,0.0614 -2.53394,-0.63598 -2.55814,-0.73326 -1.91198,-7.68564 0.35994,-3.87283 1.12576,-7.92219 1.70182,-8.99857 0.57607,-1.07639 0.90644,-2.57176 0.73416,-3.32305 -0.17228,-0.75128 -4.2439,3.2098 -9.04805,8.80241 -4.80415,5.59262 -13.25234,14.89339 -18.77374,20.66839 -12.07016,12.62453 -15.12,18.11653 -15.7308,28.32725 -0.56408,9.42979 1.80885,16.88627 9.02982,28.37441 3.04165,4.83909 6.55244,10.91973 7.80177,13.51253 2.56645,5.3263 4.43355,6.34554 17.9426,9.7947 15.36055,3.9219 25.92597,2.54715 33.21517,-4.3219 l 2.75,-2.59149 0,3.49609 c 0,2.23761 -0.44996,3.42359 -1.25,3.29469 -0.6875,-0.11076 -3.725,0.96195 -6.75,2.3838 -7.12819,3.35049 -12.88305,3.94637 -21.37453,2.21322 z M 596.07029,913.75 c 0.11724,-2.08521 1.36847,-4.25 2.45645,-4.25 1.62859,0 7.78244,-7.51756 10.76141,-13.14616 6.94119,-13.11499 12.07524,-37.88017 9.86397,-47.58097 C 617.76987,842.70896 613.95503,833 612.95466,833 c -0.87191,0 0.045,-4.88173 1.03137,-5.49137 0.41098,-0.254 2.41273,3.74689 4.44834,8.89085 6.18773,15.63631 5.8337,27.59872 -1.45493,49.16134 -3.67423,10.86981 -8.15348,18.68935 -14.14264,24.68918 -4.73335,4.74177 -6.89933,5.86213 -6.76651,3.5 z m -200.28857,-8.09751 c -2.59505,-0.72996 -7.09505,-2.88779 -10,-4.79517 -6.02164,-3.9538 -6.72915,-4.29274 -36.39763,-17.43694 C 317.38002,869.24142 300.12163,863.57331 271.82578,857.94815 258.93096,855.38469 224.79403,850 221.43747,850 c -2.18392,0 -4.40809,-2.36272 -3.28314,-3.48766 0.46223,-0.46223 33.0661,4.54156 49.34567,7.57319 23.20966,4.32218 50.50693,12.27043 66.68695,19.41748 4.57218,2.01963 9.66305,4.26462 11.31305,4.98888 1.65,0.72425 9.075,3.99559 16.5,7.26965 7.425,3.27405 14.5125,6.27241 15.75,6.66303 2.29316,0.72383 2.96912,-0.26091 1.35541,-1.97457 -1.85267,-1.96742 -6.20496,-16.02104 -7.21864,-23.3091 -2.94578,-21.17937 6.98146,-45.46681 32.96114,-80.6409 6.38603,-8.6461 10.07053,-15.38843 13.74697,-25.15584 1.28904,-3.42467 3.48253,-8.58733 4.87442,-11.47257 1.39188,-2.88524 2.5307,-6.4398 2.5307,-7.89902 0,-5.6447 5.88213,-14.70184 16.58138,-25.53154 C 448.31162,710.64092 453,706.59391 453,707.44769 c 2.0728,-1.49465 1.61746,-1.70161 4.31574,-3.33169 10.17587,-0.20297 10.08699,-0.36803 9.30001,17.27295 -0.7232,16.21102 -2.12398,22.75845 -6.18048,28.88822 -1.38517,2.09314 -2.96654,6.37456 -3.51416,9.51427 C 455.49604,767.96195 452.0286,777 450.31906,777 c -0.7904,0 -1.1468,-0.46971 -0.79199,-1.0438 0.35481,-0.5741 0.10127,-1.6991 -0.56342,-2.5 -0.94751,-1.14168 -0.94092,-1.4562 0.0305,-1.4562 0.77835,0 1.06349,-0.91826 0.7669,-2.46974 -0.25966,-1.35835 -0.0871,-2.2318 0.38343,-1.94098 C 450.61501,767.88009 451,767.16492 451,766 c 0,-1.16492 0.39257,-1.87541 0.87238,-1.57887 0.47981,0.29653 1.14986,-1.13941 1.48899,-3.19099 0.93388,-5.64938 0.77808,-6.89681 -0.86137,-6.89681 -2.69347,-2.22382 -1.81362,-1.15171 -0.96701,-4.14802 -0.17593,-1.53969 1.60537,0.79229 3.02001,0.81469 2.76256,0 5.7541,-4.93812 7.3691,-12.16414 1.54081,-6.89403 1.62729,-30.87829 0.11471,-31.81311 -1.74481,-1.61846 -7.17953,1.48032 -8.73402,3.53995 -3.08574,1.69476 -7.39031,6.03024 -10.95086,9.95405 -7.66752,8.48987 -12.33153,15.80108 -12.34377,19.34983 -0.007,2.06729 0.33961,2.28775 2.74184,1.74324 8.93105,-2.02439 9.07424,-2.00948 12.13086,1.26264 1.60686,1.72015 3.41602,3.12754 4.02035,3.12754 1.20941,0 1.34114,2.53395 0.27196,5.23136 -0.55856,1.40918 -1.24332,0.89563 -3.67972,-2.75965 -3.65877,-5.48918 -5.66604,-6.11431 -12.04084,-3.74992 -5.47544,2.03082 -6.02865,2.83835 -11.49408,16.77821 -3.08705,7.87368 -10.10873,34.00597 -11.33318,42.17823 -0.47039,3.13942 -0.22346,4.5808 0.99316,5.79743 1.49226,1.49226 1.78574,1.47828 3.74363,-0.17823 6.04966,-5.11845 29.30339,-27.86112 30.35242,-29.68535 0.66802,-1.16164 1.25924,-1.88708 1.31384,-1.61208 0.54478,2.74387 0.65986,7.69353 0.19633,8.44436 -0.32065,0.51939 -0.51136,3.44439 -0.4238,6.5 0.0876,3.0556 -0.38498,6.90564 -1.05009,8.55564 l -1.20929,3 -0.71314,-4 c -0.39224,-2.2 -0.73908,-6.01293 -0.77078,-8.47318 L 443,787.55364 l -6.75,6.5432 C 423.86663,806.10081 414.77123,814 413.33281,814 c -0.78304,0 -2.57663,-1.15291 -3.98574,-2.56202 -2.31662,-2.31662 -2.49945,-3.06278 -1.90881,-7.79015 0.35927,-2.87548 1.48776,-8.47257 2.50776,-12.43798 1.02,-3.96542 1.44832,-7.20985 0.95181,-7.20985 -2.25379,0 -20.95015,28.95716 -27.44038,42.5 -6.64742,13.87084 -8.80565,22.32486 -8.67986,34 0.21616,20.06359 10.6969,39.12723 23.39037,42.54523 5.67496,1.5281 11.27507,0.67781 26.52272,-4.02709 6.97072,-2.15093 13.02232,-3.69552 13.448,-3.43243 1.2537,0.77483 -0.21558,3.41429 -1.9006,3.41429 -0.85137,0 -6.35929,1.55541 -12.23983,3.45646 -12.5739,4.06487 -21.52386,5.07861 -28.21653,3.19603 z m 483.3986,-2.33858 c 0.11173,-2.30235 0.67547,-4.10235 1.25274,-4 1.59808,0.28333 5.2563,-7.92816 7.26786,-16.31391 3.04064,-12.67581 1.84176,-44 -1.68403,-44 -1.17491,0 -1.96724,-3.91265 -0.92301,-4.55802 0.49837,-0.30801 0.90612,-1.95846 0.90612,-3.66766 0,-4.13288 0.80015,-3.1191 2.66161,3.37224 4.41772,15.40559 5.35995,30.66169 2.80841,45.47245 -1.5424,8.95307 -6.21087,20.33306 -10.41216,25.38099 l -2.0807,2.5 z M 889.52762,787 c 0.6148,-3.78298 1.24253,-11.45025 1.38404,-16.90499 0.0858,-3.30786 0.1438,-3.35479 2.03279,-1.64528 1.06945,0.96784 2.08195,3.14043 2.25,4.82798 0.45905,4.60967 2.27649,4.3516 5.84112,-0.82941 6.721,-9.76864 12.47028,-28.03048 11.78965,-37.4483 -0.30856,-4.26945 -0.4921,-4.51608 -3.58247,-4.8139 -2.78438,-0.26833 -4.10934,0.49887 -9.12679,5.2847 -5.80166,5.53385 -5.8753,5.56845 -6.36788,2.99167 -0.38244,-2.0006 -0.004,-2.79601 1.62679,-3.41993 1.16882,-0.44716 3.02407,-1.81073 4.12277,-3.03016 2.66472,-2.95752 6.29081,-4.74704 10.47002,-5.16708 2.83767,-0.28521 3.65896,0.0898 4.71921,2.1547 5.36622,10.45113 -6.92038,46.27483 -17.36829,50.64025 -1.82522,0.76262 -3.32089,1.71805 -3.3237,2.12317 -0.003,0.40512 -1.13709,2.53658 -2.5206,4.73658 l -2.51547,4 z M 622.93277,774.7785 c 0.4189,-3.11758 1.18826,-4.53084 2.94212,-5.40448 3.59676,-1.79161 13.57357,-23.63572 15.79154,-34.57539 0.97029,-4.78575 1.45371,-9.01183 1.07426,-9.39127 -0.64053,-0.64054 -9.32483,5.73596 -10.97538,8.05873 -0.40408,0.56865 -0.74158,-0.005 -0.75,-1.27511 -1.40357,-1.76278 -0.87203,-1.39295 1.58204,-4.03346 1.90192,-1.13261 3.90821,-2.92474 5.74754,-4.15752 2.44484,-1.65 4.89425,-3 5.44315,-3 2.97159,0 2.8851,9.06405 -0.18632,19.52659 C 639.63369,754.04334 626.12822,779 622.78156,779 c -0.22881,0 -0.16076,-1.89967 0.15121,-4.2215 z m 257.21692,-52.306 c -2.10445,-1.77077 -3.77558,-4.83958 -5.58169,-10.25 -2.89838,-8.68247 -3.60962,-9.90496 -12.18796,-20.94879 -3.36597,-4.33338 -6.4588,-8.9465 -6.87295,-10.25138 -0.41415,-1.30487 -2.25403,-5.50461 -4.08862,-9.33275 -1.83459,-3.82815 -3.88062,-9.39563 -4.54675,-12.37219 -1.64234,-7.33875 -1.72948,-7.42055 -30.92963,-29.03446 -21.34175,-15.79713 -37.67627,-24.58434 -52.69209,-28.34588 -2.99471,-0.75019 -5.25,-1.87831 -5.25,-2.6261 0,-1.65354 -0.73216,-1.74807 9.55922,1.23425 17.23944,4.99579 31.68338,13.59439 65.94078,39.2551 l 12,8.98867 0.2949,-5.78612 c 0.19053,-3.73814 -0.58567,-9.27544 -2.19298,-15.64448 -3.45676,-13.69757 -4.00809,-19.08488 -2.63164,-25.71519 2.07069,-9.9745 7.67934,-10.99788 15.27602,-2.78733 1.87176,2.02301 5.8884,7.94554 8.92587,13.16117 8.77369,15.0653 17.79972,29.45931 18.65683,29.75247 0.74532,0.25491 5.74204,-32.96033 6.73488,-44.76949 l 0.46241,-5.5 -6.21646,-4.5 c -5.62902,-4.07476 -15.01557,-13.97141 -17.55485,-18.50885 -0.90133,-1.61059 -1.62921,-1.27915 -7.34162,3.34298 -17.30929,14.0056 -41.48008,20.33154 -68.91336,18.03589 -14.78476,-1.2372 -35.92354,-5.61753 -38.43333,-7.96407 -2.16733,-2.02633 0.82827,-1.87179 10.57534,0.5456 22.99954,5.70416 43.57193,6.68474 61.35799,2.92462 13.23101,-2.79714 28.14706,-10.16082 36.6037,-18.07032 2.53204,-2.36822 5.03668,-4.30585 5.56586,-4.30585 0.52919,0 1.91661,1.6875 3.08315,3.75 3.01129,5.32407 11.67614,14.76096 16.77356,18.26808 2.38375,1.64005 4.54042,2.98192 4.79261,2.98192 0.70249,0 1.23659,-3.48646 7.20008,-47 7.07978,-51.6587 8.34757,-60.82838 14.44806,-104.5 2.76586,-19.8 5.02977,-36.1125 5.03091,-36.25 C 917.99907,400.1125 918.9,400 920,400 c 2.38607,0 2.39411,0.16491 0.53576,11 -2.06019,8.80738 -2.12289,15.27093 -2.93397,17.73548 -0.67282,2.18955 -9.30663,62.66355 -13.60082,95.26452 -1.05047,7.975 -3.53137,26.15155 -5.51312,40.39233 -1.98175,14.24079 -3.23972,26.22271 -2.79551,26.6265 0.44422,0.40379 2.83267,1.86515 5.30767,3.24747 11.32082,6.32281 16.8203,10.03832 16.41599,11.09081 -0.24147,0.62859 -2.84423,2.40172 -5.7839,3.94029 -2.93968,1.53858 -5.93554,3.90108 -6.65746,5.25 -0.72192,1.34893 -1.68655,2.50885 -2.14361,2.5776 -1.8628,0.2802 -2.40334,0.4693 -4.00504,1.40111 -3.00642,1.74903 -8.67379,12.50956 -10.25875,19.4781 -0.91851,4.0384 -1.52562,11.23618 -1.48928,17.6567 0.0514,9.0725 0.36088,11.16506 1.8991,12.83909 1.01076,1.1 2.80484,3.87411 3.98685,6.16469 1.18201,2.29058 2.77592,4.40523 3.54202,4.69921 2.28239,0.87583 1.23253,27.25392 -1.41834,35.6361 -1.13059,3.575 -1.95031,6.71171 -1.8216,6.97047 0.4421,0.88878 -4.76767,3.00006 -7.43925,3.01479 -1.47031,0.008 -4.02497,-1.12263 -5.67705,-2.51276 z m 9.29298,-3.7225 c 2.96535,-7.18876 4.79824,-18.82799 4.37127,-27.75843 -0.35007,-7.32205 -0.9304,-9.83059 -3.36844,-14.56037 -4.50107,-8.73207 -5.72855,-9.15506 -13.07945,-4.50719 -4.14713,2.62217 -6.54397,3.57729 -7.48363,2.98216 -1.77598,-1.1248 -8.97236,-1.13537 -10.73931,-0.0158 -0.96034,0.6085 -1.14753,1.84609 -0.6405,4.23469 0.77311,3.64205 2.47977,6.18011 11.82943,17.59214 1.93778,2.36521 4.85066,8.07421 6.63296,13 3.5777,9.88779 5.28209,12.28278 8.74101,12.28278 1.76156,0 2.75104,-0.86061 3.73666,-3.25 z m -23.26652,-47.38938 c 5.34884,0.55907 6.28223,0.3422 11.08231,-2.57491 6.42536,-3.90482 6.71006,-4.29856 6.71436,-9.28571 0.008,-8.8787 -5.4778,-21.2946 -17.00961,-38.5 -2.02749,-3.025 -4.88123,-7.86252 -6.34164,-10.75005 C 857.54074,604.15858 850.11218,596 847.64667,596 c -4.59343,0 -5.22139,14.50752 -1.27497,29.45483 1.94807,7.37842 2.6283,12.39518 2.6283,19.38398 0,5.18603 0.42954,11.05636 0.95453,13.04517 0.525,1.98881 1.19067,4.74102 1.47927,6.11602 0.28861,1.375 1.43634,3.97712 2.55052,5.78248 1.79815,2.91362 2.2688,3.15242 4.18842,2.12507 1.35791,-0.72673 4.33602,-0.93025 8.00341,-0.54693 z m 40.565,-62.49859 c 10.50018,-4.3128 4.59743,-5.30658 -2.86087,-8.55279 -2.28873,-2.56605 -6.38303,-5.2984 -8.48826,-5.3055 -0.99258,-0.003 -1.58913,3.37847 -4.05655,22.99626 l -0.56598,4.5 5.3564,-5.31458 c 2.94603,-2.92302 7.7229,-6.66855 10.61526,-8.32339 z m -225.32561,109.7167 c -2.07484,-0.90338 -3.79331,-2.85096 -5.25,-5.94996 C 674.97449,710.09494 674,707.56819 674,707.01378 c 0,-2.3233 -7.81709,-9.37308 -15.61829,-14.08523 C 649.15684,687.35647 645,682.08609 645,675.96214 c -0.61086,-2.04364 -1.46787,-2.73573 -3.62749,-5.68708 -2.25339,-9.1391 -6.48821,-17.68451 -11.22356,-22.6479 -10.37965,-10.87951 -30.9803,-24.39022 -60.39895,-39.61199 -16.05934,-8.30941 -20.13565,-11.02892 -16.5,-11.00797 0.6875,0.004 7.325,3.04938 14.75,6.76759 20.64238,10.33708 40.72952,22.45937 53.36239,32.20341 3.22431,2.48699 6.93681,5.34683 8.25,6.35521 2.88437,2.21486 2.88195,2.27674 0.32588,-8.33341 -4.57338,-18.98397 -5.89929,-29.81952 -4.35336,-35.57648 0.63367,-2.35975 5.25489,-5.42352 8.18055,-5.42352 3.59785,0 19.52503,17.01926 19.03238,20.33738 -0.47224,3.18055 -2.18472,2.94478 -3.71459,-0.51142 -0.77356,-1.74761 -4.40116,-6.31789 -8.06133,-10.15619 -5.83961,-6.12381 -6.97822,-6.89756 -9.29458,-6.31618 -5.2653,1.3215 -4.81267,11.0275 1.80945,38.80072 1.98545,8.32697 4.19836,16.08623 4.91759,17.24281 0.71923,1.15659 1.60812,3.39348 1.97532,4.97088 1.09508,2.96474 1.90952,4.93926 3.05655,7.07933 2.57507,7.31217 4.85766,8.34605 12.61885,9.13108 l 6.6051,0.66809 2.80022,-3.87325 c 1.54011,-2.13029 4.19282,-5.12521 5.89489,-6.65539 2.90524,-2.61182 3.07835,-3.16277 2.82771,-9 -0.14685,-3.41982 -0.75,-6.38141 -1.34034,-6.58131 -0.59034,-0.19989 -4.6143,-5.82489 -8.94212,-12.5 -4.32782,-6.6751 -8.53146,-12.89334 -9.34143,-13.81832 -0.95581,-1.09153 -1.23339,-2.57067 -0.7909,-4.21453 0.63313,-2.35206 0.99743,-2.01802 5.10607,4.68177 2.43336,3.96799 6.91145,10.71849 9.95131,15.00112 l 5.527,7.78658 1.84271,-4.69117 c 1.20051,-3.05626 2.54514,-11.86882 3.85823,-25.28659 l 2.01553,-20.59541 -2.80954,-1.97152 c -1.54525,-1.08434 -5.98096,-5.162 -9.85714,-9.06147 -6.51073,-6.54985 -7.34868,-7.07742 -11,-6.92543 -2.17382,0.0905 -8.4524,1.55274 -13.9524,3.24945 -18.89516,5.82901 -34.62678,6.44448 -70,2.73862 -21.4987,-2.25231 -23.6419,-2.61086 -23.19441,-3.88033 0.45914,-1.3025 1.64594,-1.25509 21.69441,0.86671 7.975,0.84402 21.925,1.80314 31,2.13137 19.41793,0.70232 28.69987,-0.57148 45,-6.17553 14.72637,-5.06299 14.42913,-5.0202 15.68751,-2.25836 1.54549,3.39197 10.54806,12.96477 14.17791,15.07593 3.04912,1.7734 3.08108,1.76892 3.56761,-0.5 0.49228,-2.2958 1.76116,-14.7403 5.58647,-54.78944 3.93172,-41.16313 6.97571,-72.79313 11.45223,-119 1.52536,-24.3895 3.46318,-46.49743 3.51296,-53.25 0.0109,-2.67347 -0.4153,-3.75 -1.48469,-3.75 -0.825,0 -1.5,-0.41767 -1.5,-0.92815 0,-0.51048 -2.5875,-1.87201 -5.75,-3.02562 -7.57813,-2.76433 -10.0417,-4.06103 -10.63047,-5.59534 -0.2676,-0.69735 1.3131,-3.67159 3.51266,-6.6094 2.19956,-2.93782 4.2343,-6.46649 4.52163,-7.84149 0.37736,-1.80579 1.84748,-3.08951 5.29426,-4.62297 3.26028,-1.45049 5.19321,-3.07495 6.10209,-5.12825 0.73165,-1.6529 2.21088,-3.55522 3.28718,-4.22738 1.8382,-1.14798 1.92102,-1.001 1.3654,2.42291 -0.64345,3.96509 -3.09547,6.47402 -8.93036,9.13761 -2.05019,0.9359 -4.01964,2.65034 -4.37656,3.80986 -0.35692,1.15952 -2.22719,4.27552 -4.15617,6.92444 -2.01015,2.76041 -3.12998,5.18428 -2.62344,5.67848 1.33722,1.30466 11.19819,5.0053 13.33747,5.0053 3.63279,1.51332 1.69592,0.8871 4.01898,1.47694 1.05707,-4.85022 0.65153,-2.92899 2.134,-11.97694 0.34907,-2.2 1.38873,-8.44165 2.31034,-13.87033 0.92161,-5.42869 1.43267,-10.11332 1.13568,-10.41031 -0.29698,-0.29698 0.29643,-1.1258 1.31868,-1.84182 3.87999,-2.71765 9.36543,-18.02952 12.08628,-33.73724 1.49916,-8.65473 4.25548,-55.56376 5.56096,-94.6403 0.72358,-21.6587 -0.89568,-54.93406 -3.5767,-73.5 C 723.64267,97.577885 719.30563,79.911593 715.44456,70.740641 712.09082,62.774704 711.4434,60 712.93845,60 c 2.72611,0 9.86624,20.153697 13.50228,38.111464 4.76412,23.529176 5.8834,37.549186 5.89889,73.888536 0.0138,32.39934 -2.27413,86.61017 -4.37727,103.71598 -1.47112,11.96531 -5.36258,26.32718 -9.41834,34.75945 -1.9492,4.05257 -3.54401,8.02289 -3.54401,8.82294 0,2.69696 11.5949,24.34156 19.45469,36.31675 4.29029,6.53668 11.11171,16.24626 15.15871,21.57683 8.71088,11.47366 11.24882,16.08584 13.00223,23.62877 1.88459,8.10723 0.23454,8.18319 -6.98741,0.32167 C 743.80128,388.26807 727.44608,372.34248 722.79821,369.17474 718.95738,366.55704 709.87367,362 708.49655,362 c -0.78553,0 -1.65412,7.47723 -4.99505,43 -1.9398,20.625 -4.63857,48.75 -5.99728,62.5 -12.29208,124.39444 -12.27321,124.16614 -10.41511,125.99699 0.77599,0.7646 4.94988,3.13258 9.27532,5.26217 l 7.86443,3.87199 -7.99886,7.22256 -7.99887,7.22256 -5.2749,14.54442 c -4.68613,12.92099 -5.29299,15.4989 -5.43697,23.09577 -0.16147,8.51927 -0.14597,8.57538 4.12965,14.95145 8.09099,12.06578 11.44388,30.69732 7.88814,43.83328 -1.90623,7.04219 -2.60536,7.47929 -8.12151,5.07754 z m 5.59929,-7.13171 c 2.83674,-10.13184 -0.71608,-28.78113 -7.56256,-39.69702 -4.36929,-6.96629 -6.42726,-7.33398 -9.9363,-1.7753 -3.93345,6.23099 -6.43512,7.41223 -14.04644,6.63242 C 649.18936,675.9637 649,676.01178 649,678.24964 c 0,3.98068 3.60042,8.14532 10.36362,11.98771 10.86534,6.17295 16.16381,11.59857 18.57598,19.02179 2.61838,8.05779 7.12741,9.14483 9.07523,2.18788 z m 3.84987,-100.25065 c 3.92442,-3.74199 7.1353,-7.10789 7.1353,-7.47977 0,-0.87238 -10.131,-6.69487 -11.67041,-6.70722 -0.71975,-0.006 -1.40455,2.58964 -1.77852,6.74062 -0.33446,3.7125 -0.82559,8.4375 -1.09141,10.5 -0.26581,2.0625 -0.31386,3.75 -0.10678,3.75 0.20709,0 3.58741,-3.06163 7.51182,-6.80363 z M 758,396.96788 c 0,-2.74968 -3.49172,-8.55768 -11.7194,-19.49363 C 732.50726,359.16721 724.20582,345.86656 715.40184,328 c -2.01689,-4.09302 -3.40087,-5.94454 -3.7374,-5 -0.78501,2.20326 -3.4089,33.29801 -2.92543,34.6682 0.2267,0.64252 3.65273,2.76939 7.61339,4.72639 9.09529,4.49407 17.46861,11.40843 30.1476,24.89471 9.71002,10.32828 11.5,11.83475 11.5,9.67858 z m -286.12905,308.0228 c -2.33883,-2.26977 -5.00395,-5.80543 -5.92248,-7.85703 -1.91793,-4.28385 -6.65684,-9.75861 -7.61639,-8.79906 -1.1409,1.1409 -3.2365,-1.41857 -2.58541,-3.1577 0.54696,-1.46097 0.41054,-1.50017 -1.05944,-0.30445 -0.92798,0.75485 -1.68723,0.95069 -1.68723,0.43522 0,-0.51548 -1.47534,-1.64078 -3.27854,-2.50066 -6.36459,-3.03506 -9.6272,-6.67148 -11.34386,-12.64356 -3.94893,-13.73786 -9.59272,-19.37115 -32.67831,-32.61748 -6.49038,-3.72414 -14.36538,-8.68972 -17.5,-11.03462 -18.68347,-13.97652 -78.19364,-34.98106 -108.9919,-38.46947 -8.02194,-0.90862 -39.21953,-2.76645 -50.45739,-3.00476 C 227.7875,585.0167 227,584.325 227,583.5 c 0,-1.81314 2.62664,-1.86309 26.5,-0.50388 31.08675,1.76989 37.01801,2.75134 64,10.59011 29.45392,8.5569 61.34742,21.82772 71.5,29.75099 2.475,1.93154 9.45,6.43068 15.5,9.99808 6.05,3.56741 12.4937,7.42636 14.31934,8.57545 3.84142,2.41785 5.18066,2.6178 5.18066,0.77345 0,-0.72369 -2.7,-9.28251 -6,-19.01959 C 409.88269,599.71343 410.11257,595 419.39801,595 c 3.99883,0 4.70475,0.46686 11.71856,7.75 4.10487,4.2625 11.4688,12.37768 16.3643,18.03374 5.2532,6.06934 9.43739,10.07787 10.21001,9.78139 1.5937,-0.61157 1.89017,7.95772 0.30912,8.93487 -0.55,0.33992 -1,-0.26152 -1,-1.33653 0,-1.6937 -26.91076,-33.30987 -32.7563,-38.4838 -1.33957,-1.18568 -3.22235,-1.70865 -5.40016,-1.5 -2.92245,0.27999 -3.38154,0.70993 -3.64523,3.41389 -0.43764,4.48758 14.40739,48.07919 17.48822,51.35316 1.32145,1.40431 3.75651,4.89988 5.41123,7.76794 3.25225,5.63699 5.4399,6.64258 14.66329,6.74023 3.19548,0.0338 4.12894,0.3894 3.73275,1.42186 -0.29057,0.75721 -0.0458,1.95811 0.54389,2.66867 0.8757,1.05515 0.28324,1.05904 -3.23274,0.0212 -2.36772,-0.69888 -5.99245,-1.53399 -8.05495,-1.85579 -3.17306,-0.49509 -3.75,-0.30533 -3.75,1.23336 0,2.43514 5.59462,7.77975 9.6962,9.2629 1.81709,0.65707 3.3038,1.62927 3.3038,2.16045 0,0.53117 0.26303,0.70274 0.58452,0.38126 0.32148,-0.32149 1.33398,0.0223 2.25,0.76396 0.91601,0.74166 3.08132,2.50544 4.81179,3.9195 1.73047,1.41405 4.03156,4.36025 5.11353,6.5471 2.69435,5.44578 8.81611,12.02062 11.19224,12.02062 2.70941,0 3.55754,-5.25253 2.15168,-13.32555 -1.60841,-9.23618 -10.54389,-34.10735 -12.38685,-34.47777 -0.93993,-0.18891 -2.6857,1.75313 -4.62862,5.149 -3.54327,6.193 -5.6116,7.58009 -6.46424,4.33512 -0.31516,-1.19944 -0.1345,-2.3308 0.40147,-2.51413 0.53596,-0.18334 0.97448,-0.99739 0.97448,-1.80902 0,-0.81163 0.43084,-1.20941 0.95741,-0.88397 0.52658,0.32544 1.62191,-0.69328 2.43407,-2.26382 0.81215,-1.57054 2.17592,-3.43587 3.03058,-4.14518 1.39046,-1.15398 1.32236,-1.61971 -0.64735,-4.42716 -1.2107,-1.72564 -2.76455,-3.58752 -3.453,-4.13752 -1.18422,-0.94607 -1.43275,-8.48597 -0.28003,-8.49552 0.29793,-0.002 1.75554,2.47052 3.23914,5.49552 1.4836,3.025 3.15234,5.5 3.70831,5.5 0.59736,0 1.01087,-3.28976 1.01087,-8.04216 0,-4.42319 0.64379,-11.28569 1.43065,-15.25 0.78686,-3.96431 1.73542,-15.34062 2.1079,-25.28068 l 0.67725,-18.07284 -3.26984,-1.58363 c -1.79842,-0.871 -3.83914,-1.36518 -4.53494,-1.09817 -0.87533,0.3359 -1.1068,-0.23207 -0.75131,-1.84353 0.30471,-1.38124 0.17328,-1.86659 -0.32296,-1.1927 -0.57649,0.78285 -2.84576,-0.38356 -7.29569,-3.75 C 453.48864,571.19883 450.05912,569 449.4199,569 c -0.63922,0 -7.99004,1.3425 -16.33516,2.98334 -16.09533,3.1647 -36.90623,6.04186 -59.08474,8.16861 -16.95669,1.62602 -79.27203,1.62019 -102,-0.01 -9.075,-0.65073 -23.1375,-1.46894 -31.25,-1.81824 -12.08699,-0.52043 -14.75,-0.90296 -14.75,-2.11878 0,-1.27827 2.24974,-1.39066 16.25,-0.8118 8.9375,0.36954 23.9,1.19166 33.25,1.82694 22.56103,1.53288 79.22191,1.47273 98,-0.10403 26.8892,-2.25784 71.5433,-9.17111 75.65608,-11.71295 0.5137,-0.31749 3.31781,1.26183 6.23134,3.5096 2.91353,2.24777 5.81826,4.08686 6.45495,4.08686 0.6367,0 1.15763,0.84138 1.15763,1.86974 0,1.13757 0.68527,1.84553 1.75,1.80793 0.9625,-0.034 2.9894,0.54773 4.50423,1.29271 1.51482,0.74498 3.03046,1.07826 3.36808,0.74064 0.33762,-0.33762 1.00349,-10.19822 1.47971,-21.91244 3.40136,-83.66819 4.92418,-129.14462 5.11742,-134.29858 0.25162,-7.45305 0.0712,-13.85286 0.49438,-19.56617 0.72686,-9.00261 0.93465,-17.39383 0.95325,-22.20246 0.01,-7.43812 1.07921,-23.59834 1.83479,-27.73137 0.70075,-2.01586 0.87083,-1.20961 0.85025,-4.47535 0.1816,-1.63413 0.55462,-1.68408 0.67833,-6.02465 0.23535,-8.25713 0.92295,-15.78672 1.49376,-16.35753 0.26169,-0.26169 0.4758,4.24085 0.4758,10.00565 l 0,10.48146 3.64445,1.73791 c 6.13687,2.92647 14.29035,9.83065 27.23268,23.05998 6.80742,6.95838 12.58252,12.44621 12.83356,12.19518 1.13984,-1.13985 -4.22298,-10.36029 -11.79339,-20.2767 -10.1345,-13.27509 -19.17929,-27.09054 -25.85331,-39.48962 -4.75085,-8.82619 -5.04357,-9.15802 -5.1661,-5.85633 -0.0814,2.19288 -0.3165,2.75308 -0.62957,1.5 -0.27483,-1.1 -1.01013,-2.33061 -1.634,-2.73469 -0.76808,-0.49747 -0.66615,-0.73963 0.31568,-0.75 1.036,-0.0109 1.14242,-0.32289 0.37274,-1.09257 -0.70402,-0.70402 -0.78127,-2.34977 -0.22295,-4.75 1.83403,-7.88463 5.98457,-40.05604 6.90321,-53.50776 1.28347,-18.79417 1.25561,-60.17233 -0.0529,-78.47759 -1.33091,-18.61935 -5.0708,-43.05227 -8.90187,-58.15652 -2.93454,-11.56933 -8.497,-28.087624 -11.33753,-33.667608 C 469.15676,81.345791 468.71226,79 470.31554,79 c 3.97347,0 15.4247,34.18662 20.09775,60 7.29594,40.30199 7.90155,99.45295 1.51097,147.57988 l -3.06469,23.07989 3.89892,8.42011 c 5.27931,11.40123 13.00461,23.66142 25.6326,40.67944 11.6648,15.71999 13.71371,19.2511 15.66628,26.9994 2.12876,8.44746 0.24723,8.77417 -6.73862,1.17011 -21.85239,-23.78621 -40.49277,-39.74864 -41.74134,-35.74459 -0.22566,0.72367 -0.6801,9.19076 -1.00988,18.81576 -0.32978,9.625 -1.48181,39.325 -2.56007,66 -3.62066,89.57132 -4.03166,100.41107 -4.66982,123.16379 l -0.63567,22.6638 6.41579,1.98163 c 3.52869,1.0899 9.44574,2.30612 13.14902,2.70271 4.79865,0.51389 6.73322,1.12759 6.73322,2.13595 0,1.4621 -0.56279,1.75965 -5.29295,2.79843 -3.90406,0.85736 -14.58359,11.96332 -18.3752,19.10891 -5.45349,10.27752 -6.73553,16.33459 -6.76143,31.94478 l -0.0232,14 4.31915,11.5 c 9.93722,26.45842 10.74094,39.9974 2.42255,40.80876 -2.57134,0.2508 -3.9637,-0.46586 -7.41794,-3.81808 z m 15.44356,-109.28749 c 3.25886,-3.18825 5.75876,-5.94885 5.55534,-6.13467 -0.87586,-0.80008 -15.84818,-4.25686 -16.3339,-3.77114 -0.29477,0.29477 -0.51482,5.52345 -0.48899,11.61929 l 0.0469,11.08333 2.6477,-3.5 c 1.45624,-1.925 5.31404,-6.10857 8.5729,-9.29681 z M 4.6215912,423.19674 c -0.3193905,-0.51679 5.4851138,-5.52936 12.8988988,-11.13905 14.066164,-10.64326 19.862845,-17.13296 24.734292,-27.69138 2.129969,-4.61652 2.248932,-6.14958 2.31758,-29.86631 0.04699,-16.23339 0.505446,-26.75332 1.307401,-30 2.611129,-10.57104 11.27511,-18.12226 19.751543,-17.21474 5.428259,0.58116 8.953784,3.22175 11.480675,8.59892 3.179408,6.76571 1.375961,13.0964 -6.961468,24.43705 -5.254153,7.14675 -6.61329,11.32354 -4.656499,14.30998 2.555832,3.90069 4.700244,4.46921 10.832652,2.87192 7.026196,-1.83009 27.229264,-13.69698 27.938934,-16.4108 0.49781,-1.9036 4.7344,-2.69065 4.7344,-0.87953 0,3.88251 -24.24239,18.78799 -33.939193,20.86758 -5.989192,1.28445 -10.163494,-0.44449 -12.64118,-5.23581 -2.669562,-5.16236 -1.753082,-7.51958 8.58643,-22.08459 2.654609,-3.73949 3.453556,-5.96596 3.784978,-10.54782 0.370438,-5.12126 0.11441,-6.17108 -2.165886,-8.88106 -6.756526,-8.02967 -19.65816,-2.90512 -23.179197,9.20682 -1.138186,3.91522 -1.441957,10.44988 -1.325808,28.5205 0.119379,18.57298 -0.170956,24.53486 -1.397915,28.70557 -3.533501,12.01117 -11.248215,21.5564 -26.910572,33.29581 -13.196788,9.89139 -14.3099652,10.56097 -15.1900658,9.13694 z M 976,416.36809 c -3.90325,-4.80082 -17.71305,-18.11216 -24.84553,-23.94873 -2.91475,-2.38516 -12.7756,-14.47815 -16.43132,-20.15078 -1.56711,-2.4317 -3.78944,-4.4981 -5.22505,-4.85841 -2.6797,-0.67257 -2.93474,-1.17341 -1.63838,-3.21744 0.65219,-1.02832 1.6001,-0.81494 4.44236,1 1.9873,1.269 3.63704,2.75727 3.6661,3.30727 0.0755,1.42862 7.72182,11.41455 13.12155,17.13644 8.68025,9.19813 28.91024,27.55128 28.88831,26.20819 -0.0421,-2.5747 -3.74564,-9.51677 -8.22185,-15.41117 -10.22705,-13.46729 -17.90035,-28.56851 -33.5024,-65.93346 -2.19741,-5.26252 -3.46039,-7.07932 -5.08835,-7.31955 C 929.10427,322.87628 927.98399,320 929.92669,320 c 4.03341,0 20.12382,-53.68305 28.47434,-95 9.04128,-44.73474 8.59035,-51.69252 -7.42067,-114.5 C 943.84249,82.499799 941.83828,76.611393 934.41519,61.83113 929.66369,52.370328 929.27383,51 931.33371,51 c 1.3908,0 12.36225,21.92428 15.18616,30.346557 2.08782,6.2269 15.8133,61.657573 17.86629,72.153443 2.75571,14.0885 3.67973,27.71368 2.59512,38.26659 -3.12378,30.39331 -17.41925,89.18395 -28.92183,118.94207 l -3.17294,8.20867 3.95826,9.79133 c 12.49525,30.90882 20.18953,46.68405 29.508,60.49889 10.91617,16.18347 11.54447,17.30035 13.10709,23.29964 2.93777,11.27886 1.43513,12.34143 -5.45986,3.8609 z m -56.58977,-20.74144 c -0.3374,-0.87923 0.39996,-8.63942 1.63856,-17.24488 l 2.25201,-15.64627 -2.31848,-1.74883 c -1.27516,-0.96186 -6.49643,-4.11306 -11.60283,-7.00267 -10.3833,-5.87571 -13.75149,-8.85101 -12.80676,-11.31294 0.3461,-0.90192 3.05882,-3.0299 6.02827,-4.72885 2.96945,-1.69894 5.399,-3.71057 5.399,-4.47029 0,-1.48468 3.48337,-2.31489 11.41476,-2.72055 4.43858,-0.22702 5.06835,-0.56405 6.5,-3.47866 1.8366,-3.73901 3.26203,-4.28845 2.65328,-1.02271 -0.23068,1.2375 -0.45286,3.5426 -0.49373,5.12244 -0.0575,2.22056 -0.3656,2.6307 -1.35785,1.80721 -0.81367,-0.67529 -1.82036,-0.72572 -2.75,-0.13776 -0.80655,0.51012 -4.03813,0.93438 -7.18128,0.9428 -4.50664,0.0121 -5.92209,0.40262 -6.69527,1.84732 -0.53926,1.0076 -3.03009,2.91933 -5.53519,4.24828 -2.50509,1.32895 -4.55472,2.95793 -4.55472,3.61995 0,0.66202 1.9125,2.50458 4.25,4.09457 5.41152,3.68096 18.67192,10.6166 19.23038,10.05814 0.23335,-0.23335 1.08028,-4.90823 1.88205,-10.38861 L 926.82021,337.5 926.32878,349 c -0.27029,6.325 -0.68227,13.3 -0.91552,15.5 -1.05795,9.9784 -1.39113,13.56295 -2.02112,21.74424 -0.41417,5.37863 -1.19201,9.1747 -2.0209,9.86263 -1.02461,0.85034 -1.4946,0.73525 -1.96101,-0.48022 z M 475.5,343.92915 c -2.75,-2.09685 -7.86749,-4.7937 -11.37219,-5.993 -3.50471,-1.1993 -7.23048,-3.03882 -8.27949,-4.08783 -1.87639,-1.87639 -1.8339,-2.01014 2.62219,-8.2548 2.49122,-3.49112 4.52949,-7.07027 4.52949,-7.95366 0,-0.92291 2.12699,-2.684 5,-4.13986 3.46744,-1.75708 5,-3.14155 5,-4.51685 0,-1.64269 0.64378,-1.96604 3.75,-1.88347 2.63083,0.0699 3.15311,0.29376 1.75,0.75 -1.1,0.35768 -2.14949,1.32378 -2.33219,2.14689 -0.52264,2.3546 -2.23191,3.99549 -6.35091,6.09684 -2.0993,1.07098 -3.8169,2.44685 -3.8169,3.05748 0,0.61064 -1.575,3.30254 -3.5,5.98199 -1.925,2.67946 -3.5,5.51338 -3.5,6.29759 0,1.11962 9.22509,5.56953 11.54617,5.56953 0.25913,0 2.36812,1.37416 4.68665,3.05369 3.90729,2.83043 4.30802,2.92716 5.481,1.323 0.69603,-0.95188 1.59463,-1.40157 1.99689,-0.99932 0.40225,0.40226 0.22251,1.04587 -0.39944,1.43025 -0.62194,0.38439 -1.28391,1.87678 -1.47104,3.31643 L 480.5,347.7416 z m -369.25,-5.66243 c -0.6875,-0.23836 -1.25,-1.12885 -1.25,-1.97885 0,-0.85001 -1.575,-3.28881 -3.5,-5.41955 -1.925,-2.13074 -3.5,-4.34934 -3.5,-4.93022 -1.355799,-3.01973 -1.345564,-1.96599 -0.01854,-6.86925 2.03999,-7.57593 7.13368,-10.46304 24.58456,-13.93456 10.71547,-2.13164 37.95581,-12.53477 49.02189,-18.72153 5.51321,-3.0823 7.41209,-3.43008 7.41209,-1.35753 0,1.14816 -14.65809,8.46516 -28.13071,14.04225 -12.29916,5.09132 -19.52686,7.29723 -33.87897,10.33993 C 105.13219,311.95138 101,315.43002 101,322.89871 c 0,1.84113 1.33989,4.21988 4,7.10129 2.2,2.38303 3.99311,4.8204 3.98469,5.41639 -0.0261,1.84664 -1.42479,3.30449 -2.73469,2.85033 z m 373.25,-32.2746 -3,-0.60212 3.26898,-0.52459 c 1.89371,-0.3039 3.67502,-0.0353 4.23412,0.63833 1.09561,1.32013 0.15127,1.42254 -4.5031,0.48838 z"
     id="path2987"
     style="fill:#000000" />
  <path
     d="m 80.91891,339.88548 404.84353,-34.11044 -47.8044,605.77141 0,0 0,0 0,0"
     id="path2989"
     style="fill:none;stroke:#000000;stroke-width:3.5;stroke-linecap:butt;stroke-linejoin:miter;stroke-miterlimit:4;stroke-opacity:1;stroke-dasharray:none" />
  <path
     d="m 396.12919,312.9955 c 12.93646,32.69478 39.60303,62.33119 82.41279,82.41279"
     id="path3759"
     style="fill:none;stroke:#000000;stroke-width:3.5;stroke-linecap:butt;stroke-linejoin:miter;stroke-miterlimit:4;stroke-opacity:1;stroke-dasharray:none" />
  <path
     d="M 560.45682,327.18743 709.34761,317.47716 590.83253,935.19967"
     id="path3761"
     style="fill:none;stroke:#000000;stroke-width:3.5;stroke-linecap:butt;stroke-linejoin:miter;stroke-miterlimit:4;stroke-opacity:1;stroke-dasharray:none" />
  <path
     d="m 599.04891,324.44864 c 23.54294,35.23192 52.94416,63.30373 94.3639,76.68623"
     id="path3763"
     style="fill:none;stroke:#000000;stroke-width:3.5;stroke-linecap:butt;stroke-linejoin:miter;stroke-miterlimit:4;stroke-opacity:1;stroke-dasharray:none" />
  <path
     d="m 770.34802,320.21596 159.59699,2.24083 -56.02078,624.19602"
     id="path3765"
     style="fill:none;stroke:#000000;stroke-width:3.5;stroke-linecap:butt;stroke-linejoin:miter;stroke-miterlimit:4;stroke-opacity:1;stroke-dasharray:none" />
  <path
     d="M 922.72456,398.89404 C 887.97676,385.15987 858.1799,359.83476 837.32398,320.9629"
     id="path3767"
     style="fill:none;stroke:#000000;stroke-width:3.5;stroke-linecap:butt;stroke-linejoin:miter;stroke-miterlimit:4;stroke-opacity:1;stroke-dasharray:none" />
  <text
     x="378.94946"
     y="960.59576"
     id="text3769"
     xml:space="preserve"
     style="font-size:40px;font-style:normal;font-variant:normal;font-weight:normal;font-stretch:normal;line-height:125%;letter-spacing:0px;word-spacing:0px;fill:#000000;fill-opacity:1;stroke:none;font-family:cmr10;-inkscape-font-specification:cmr10"><tspan
       x="378.94946"
       y="960.59576"
       id="tspan3771">A</tspan></text>
  <text
     x="552.24042"
     y="964.57941"
     id="text3773"
     xml:space="preserve"
     style="font-size:40px;font-style:normal;font-weight:normal;line-height:125%;letter-spacing:0px;word-spacing:0px;fill:#000000;fill-opacity:1;stroke:none;font-family:Bitstream Vera Sans"><tspan
       x="552.24042"
       y="964.57941"
       id="tspan3775"
       style="font-style:normal;font-variant:normal;font-weight:normal;font-stretch:normal;font-family:cmr10;-inkscape-font-specification:cmr10">B</tspan></text>
  <text
     x="813.17279"
     y="964.57947"
     id="text3777"
     xml:space="preserve"
     style="font-size:40px;font-style:normal;font-variant:normal;font-weight:normal;font-stretch:normal;line-height:125%;letter-spacing:0px;word-spacing:0px;fill:#000000;fill-opacity:1;stroke:none;font-family:cmr10;-inkscape-font-specification:cmr10"><tspan
       x="813.17279"
       y="964.57947"
       id="tspan3779">C</tspan></text>
  <text
     x="453.1459"
     y="803.73755"
     id="text3781"
     xml:space="preserve"
     style="font-size:40px;font-style:normal;font-weight:normal;line-height:125%;letter-spacing:0px;word-spacing:0px;fill:#000000;fill-opacity:1;stroke:none;font-family:Bitstream Vera Sans"><tspan
       x="453.1459"
       y="803.73755"
       id="tspan3783"
       style="font-size:32px;font-style:normal;font-variant:normal;font-weight:normal;font-stretch:normal;font-family:cmr10;-inkscape-font-specification:cmr10">B</tspan></text>
  <text
     x="622.45319"
     y="826.14587"
     id="text3785"
     xml:space="preserve"
     style="font-size:40px;font-style:normal;font-weight:normal;line-height:125%;letter-spacing:0px;word-spacing:0px;fill:#000000;fill-opacity:1;stroke:none;font-family:Bitstream Vera Sans"><tspan
       x="622.45319"
       y="826.14587"
       id="tspan3787"
       style="font-size:32px;font-style:normal;font-variant:normal;font-weight:normal;font-stretch:normal;font-family:cmr10;-inkscape-font-specification:cmr10">B</tspan></text>
  <text
     x="894.3407"
     y="833.6153"
     id="text3789"
     xml:space="preserve"
     style="font-size:40px;font-style:normal;font-weight:normal;line-height:125%;letter-spacing:0px;word-spacing:0px;fill:#000000;fill-opacity:1;stroke:none;font-family:Bitstream Vera Sans"><tspan
       x="894.3407"
       y="833.6153"
       id="tspan3791"
       style="font-size:32px;font-style:normal;font-variant:normal;font-weight:normal;font-stretch:normal;font-family:cmr10;-inkscape-font-specification:cmr10">B</tspan></text>
  <text
     x="906.29181"
     y="660.82233"
     id="text3793"
     xml:space="preserve"
     style="font-size:40px;font-style:normal;font-weight:normal;line-height:125%;letter-spacing:0px;word-spacing:0px;fill:#000000;fill-opacity:1;stroke:none;font-family:Bitstream Vera Sans"><tspan
       x="906.29181"
       y="660.82233"
       id="tspan3795"
       style="font-size:32px;font-style:normal;font-variant:normal;font-weight:normal;font-stretch:normal;font-family:cmr10;-inkscape-font-specification:cmr10">A</tspan></text>
  <text
     x="682.20868"
     y="654.34882"
     id="text3797"
     xml:space="preserve"
     style="font-size:32px;font-style:normal;font-variant:normal;font-weight:normal;font-stretch:normal;line-height:125%;letter-spacing:0px;word-spacing:0px;fill:#000000;fill-opacity:1;stroke:none;font-family:cmr10;-inkscape-font-specification:cmr10"><tspan
       x="682.20868"
       y="654.34882"
       id="tspan3799">A</tspan></text>
  <text
     x="477.0481"
     y="641.89978"
     id="text3801"
     xml:space="preserve"
     style="font-size:32px;font-style:normal;font-variant:normal;font-weight:normal;font-stretch:normal;line-height:125%;letter-spacing:0px;word-spacing:0px;fill:#000000;fill-opacity:1;stroke:none;font-family:cmr10;-inkscape-font-specification:cmr10"><tspan
       x="477.0481"
       y="641.89978"
       id="tspan3803">A</tspan></text>
  <text
     x="504.93399"
     y="316.23227"
     id="text3805"
     xml:space="preserve"
     style="font-size:32px;font-style:normal;font-variant:normal;font-weight:normal;font-stretch:normal;line-height:125%;letter-spacing:0px;word-spacing:0px;fill:#000000;fill-opacity:1;stroke:none;font-family:cmr10;-inkscape-font-specification:cmr10"><tspan
       x="504.93399"
       y="316.23227"
       id="tspan3807">N</tspan></text>
  <text
     x="723.53955"
     y="329.17926"
     id="text3809"
     xml:space="preserve"
     style="font-size:32px;font-style:normal;font-variant:normal;font-weight:normal;font-stretch:normal;line-height:125%;letter-spacing:0px;word-spacing:0px;fill:#000000;fill-opacity:1;stroke:none;font-family:cmr10;-inkscape-font-specification:cmr10"><tspan
       x="723.53955"
       y="329.17926"
       id="tspan3811">N</tspan></text>
  <text
     x="945.13281"
     y="336.15076"
     id="text3813"
     xml:space="preserve"
     style="font-size:32px;font-style:normal;font-variant:normal;font-weight:normal;font-stretch:normal;line-height:125%;letter-spacing:0px;word-spacing:0px;fill:#000000;fill-opacity:1;stroke:none;font-family:cmr10;-inkscape-font-specification:cmr10"><tspan
       x="945.13281"
       y="336.15076"
       id="tspan3815">N</tspan></text>
  <text
     x="422.27222"
     y="299.7995"
     id="text3817"
     xml:space="preserve"
     style="font-size:32px;font-style:normal;font-weight:normal;line-height:125%;letter-spacing:0px;word-spacing:0px;fill:#000000;fill-opacity:1;stroke:none;font-family:Bitstream Vera Sans"><tspan
       x="422.27222"
       y="299.7995"
       id="tspan3819">80°</tspan></text>
  <text
     x="660.79626"
     y="309.2608"
     id="text3821"
     xml:space="preserve"
     style="font-size:32px;font-style:normal;font-weight:normal;line-height:125%;letter-spacing:0px;word-spacing:0px;fill:#000000;fill-opacity:1;stroke:none;font-family:Bitstream Vera Sans"><tspan
       x="660.79626"
       y="309.2608"
       id="tspan3823">77°</tspan></text>
  <text
     x="883.88348"
     y="310.25671"
     id="text3825"
     xml:space="preserve"
     style="font-size:32px;font-style:normal;font-weight:normal;line-height:125%;letter-spacing:0px;word-spacing:0px;fill:#000000;fill-opacity:1;stroke:none;font-family:Bitstream Vera Sans"><tspan
       x="883.88348"
       y="310.25671"
       id="tspan3827">86°</tspan></text>
  <text
     x="79.176041"
     y="333.16299"
     id="text3829"
     xml:space="preserve"
     style="font-size:32px;font-style:normal;font-variant:normal;font-weight:normal;font-stretch:normal;line-height:125%;letter-spacing:0px;word-spacing:0px;fill:#000000;fill-opacity:1;stroke:none;font-family:cmr10;-inkscape-font-specification:cmr10"><tspan
       x="79.176041"
       y="333.16299"
       id="tspan3831">S</tspan></text>
</svg>
