<?xml version="1.0" encoding="UTF-8" standalone="no"?>
<!-- Created with Inkscape (http://www.inkscape.org/) -->

<svg
   xmlns:dc="http://purl.org/dc/elements/1.1/"
   xmlns:cc="http://creativecommons.org/ns#"
   xmlns:rdf="http://www.w3.org/1999/02/22-rdf-syntax-ns#"
   xmlns:svg="http://www.w3.org/2000/svg"
   xmlns="http://www.w3.org/2000/svg"
   xmlns:sodipodi="http://sodipodi.sourceforge.net/DTD/sodipodi-0.dtd"
   xmlns:inkscape="http://www.inkscape.org/namespaces/inkscape"
   version="1.1"
   width="1419"
   height="1006"
   id="svg2"
   inkscape:version="0.48.1 r9760"
   sodipodi:docname="steiner_linea_s.svg">
  <sodipodi:namedview
     pagecolor="#ffffff"
     bordercolor="#666666"
     borderopacity="1"
     objecttolerance="10"
     gridtolerance="10"
     guidetolerance="10"
     inkscape:pageopacity="0"
     inkscape:pageshadow="2"
     inkscape:window-width="1280"
     inkscape:window-height="749"
     id="namedview16"
     showgrid="false"
     inkscape:zoom="0.37815452"
     inkscape:cx="588.82861"
     inkscape:cy="576.84461"
     inkscape:window-x="0"
     inkscape:window-y="29"
     inkscape:window-maximized="1"
     inkscape:current-layer="svg2" />
  <metadata
     id="metadata8">
    <rdf:RDF>
      <cc:Work
         rdf:about="">
        <dc:format>image/svg+xml</dc:format>
        <dc:type
           rdf:resource="http://purl.org/dc/dcmitype/StillImage" />
        <dc:title />
      </cc:Work>
    </rdf:RDF>
  </metadata>
  <defs
     id="defs6" />
  <path
     d="m 311.886,967.29244 c -1.94347,-1.94346 -1.10202,-2.41178 28.65817,-15.9503 17.68126,-8.04356 26.42155,-10.82516 49.86449,-15.86935 11.72087,-2.52197 23.56067,-5.30721 26.31067,-6.18942 13.70876,-4.39783 26.12557,-13.04326 35.3095,-24.58486 4.78866,-6.01798 11.1879,-17.70185 11.18971,-20.43038 4.3e-4,-0.65504 0.40798,-1.44265 0.90566,-1.75023 1.02545,-0.63376 0.39963,6.45928 -0.94631,10.72546 -0.55267,1.75179 -0.52244,2.56425 0.0815,2.19098 1.42836,-0.88277 1.16821,0.36357 -0.75569,3.62048 -0.94358,1.59736 -2.18588,2.90429 -2.76067,2.90429 -0.57478,0 -3.02699,2.48375 -5.44934,5.51945 -12.89249,16.15688 -27.1967,23.65831 -57.07438,29.93101 -30.44045,6.39086 -37.95118,8.87874 -65.24214,21.61105 -10.5375,4.91617 -19.21882,8.93849 -19.29181,8.93849 -0.073,0 -0.4327,-0.3 -0.79936,-0.66667 z m 140.83333,-14.33333 c -0.33992,-0.55 -0.14148,-1 0.44098,-1 0.58246,0 1.05902,0.45 1.05902,1 0,0.55 -0.19844,1 -0.44098,1 -0.24254,0 -0.7191,-0.45 -1.05902,-1 z m 2.57895,-2.41667 c -0.0434,-1.05416 0.19293,-1.64479 0.52522,-1.3125 0.33229,0.33229 0.36781,1.1948 0.0789,1.91667 -0.31922,0.79773 -0.55618,0.56078 -0.60416,-0.60417 z m 270.42102,-6.21598 c -6.4706,-0.85383 -15.6322,-1.28263 -22.25,-1.04141 -8.8697,0.32332 -11.25,0.13023 -11.25,-0.91262 0,-2.22432 6.6611,-2.75005 22.9429,-1.81078 24.0296,1.38622 52.8832,0.81881 62.3475,-1.22609 15.9281,-3.44145 36.7981,-19.56272 55.9282,-43.20216 8.6217,-10.65408 23.0167,-41.51287 21.3685,-45.80801 -0.3338,-0.8699 0.1909,-1.36628 1.4443,-1.36628 1.282,0 1.9686,-0.67698 1.9686,-1.94098 0,-1.06754 0.4357,-2.21022 0.9681,-2.53929 0.5324,-0.32906 0.9127,-2.07097 0.845,-3.87091 -0.068,-1.79994 0.3831,-4.14476 1.0016,-5.21072 1.0813,-1.86368 1.1257,-1.85409 1.1549,0.24985 0.079,5.66689 -6.0644,26.39039 -10.5967,35.74675 -1.3495,2.78591 -2.6406,6.1903 -2.8691,7.5653 -0.2285,1.375 -0.7925,4.075 -1.2535,6 -0.7149,2.98583 -0.9502,3.20899 -1.6014,1.51907 -0.6661,-1.72867 -1.1555,-1.34663 -3.843,3 -3.805,6.15381 -11.7854,16.39295 -17.7869,22.82112 -9.9434,10.65019 -29.4394,24.57989 -39.519,28.23587 -12.0152,4.35808 -40.7238,6.20287 -59,3.79129 z m 363.1428,-31.8561 c -0.3911,-1.01907 2.3909,-2.53744 10.1594,-5.54488 17.1714,-6.64764 44.9371,-16.57747 69.7315,-24.93807 12.6685,-4.27177 25.0435,-8.78616 27.5,-10.03197 9.0976,-4.61379 19.8701,-15.78004 21.504,-22.29004 1.0997,-4.3816 2.6925,-4.42899 1.8395,-0.0547 -0.4128,2.11663 -0.7629,4.63593 -0.7781,5.59843 -0.015,0.9625 -0.3811,1.75 -0.8133,1.75 -0.4321,0 -0.7857,1.125 -0.7857,2.5 0,1.70788 -0.5545,2.50533 -1.75,2.51683 -0.9625,0.009 -3.4062,1.69675 -5.4303,3.75 -6.3396,6.43057 -13.677,9.97522 -37.8615,18.2906 -22.0419,7.57868 -61.224,21.64115 -76.1176,27.3186 -5.4257,2.06829 -6.7592,2.2786 -7.1979,1.13522 z m -695.64277,-4.43622 c -1.925,-0.40552 -6.65,-1.87874 -10.5,-3.27383 -3.85,-1.39509 -9.25,-2.85134 -12,-3.23612 -16.47534,-2.30522 -33.86991,-7.03666 -52.5,-14.28035 -11.94388,-4.64398 -55.18015,-25.52655 -70,-33.80911 -20.07026,-11.21693 -55.93612,-28.32716 -71.25,-33.99065 -4.60882,-1.70447 -5.68425,-2.78954 -3.87377,-3.90848 2.77252,-1.71351 47.16166,18.32407 73.62377,33.2343 29.33468,16.52879 66.57809,33.68077 89.5,41.21806 8.38386,2.75682 30.35862,7.94171 33.75,7.96322 2.26667,0.0144 1.31351,-1.90077 -3.7029,-7.44006 -5.83161,-6.43947 -7.26147,-9.09278 -9.02824,-16.75328 -1.79095,-7.76534 -0.78668,-17.99863 2.97346,-30.29873 1.9964,-6.53061 3.24332,-13.12245 3.59407,-19 1.10429,-18.50508 5.01477,-29.34351 15.81258,-43.82672 5.26601,-7.06337 7.0287,-10.45662 9.56987,-18.42247 3.99651,-12.52791 6.50005,-16.87242 11.91465,-20.67605 2.65499,-1.86506 6.6166,-6.43014 10.04664,-11.57703 3.29018,-4.93701 7.23885,-9.52621 9.42359,-10.95221 3.17972,-2.07544 3.66341,-2.8476 3.13204,-5 -0.81821,-3.31437 -4.52494,-7.16093 -12.17047,-12.62961 -6.90106,-4.93617 -10.03149,-8.74693 -10.94743,-13.32659 -0.50882,-2.5441 -1.29399,-3.26161 -4.51963,-4.13019 -4.07216,-1.09652 -9.2068,-5.21332 -30.33625,-24.32272 -17.04268,-15.41334 -28.48084,-23.2444 -39.7675,-27.22656 l -3.89802,-1.3753 0.40806,24.73272 c 0.39539,23.9649 0.49315,24.96557 3.14917,32.23273 2.27629,6.2282 2.68644,8.78551 2.41871,15.08081 -0.31068,7.30527 -0.20606,7.7134 2.87828,11.22862 5.97851,6.81371 5.76128,9.01031 -3.18346,32.19057 -2.26791,5.87727 -2.82577,9.32566 -3.47815,21.5 -0.61288,11.43725 -1.30071,16.00012 -3.25637,21.60204 -4.24569,12.16158 -14.022,24.39457 -18.21094,22.78713 -1.89123,-0.72574 -1.88905,-0.22662 -0.0605,-13.88917 1.69849,-12.6911 1.92108,-25.23276 0.51353,-28.9349 -0.746,-1.96213 -1.67636,-2.5651 -3.95785,-2.5651 -3.66329,0 -6.02244,3.74969 -11.63943,18.5 -4.09445,10.7521 -7.70243,15.5 -11.77859,15.5 -2.28603,0 -2.56496,-0.48018 -3.19138,-5.49389 -0.37753,-3.02164 -0.37839,-7.63414 -0.002,-10.25 0.68051,-4.72822 5.23623,-22.94847 6.07885,-24.31184 1.72124,-2.78503 2.19019,-14.83264 0.92246,-23.69867 -1.71228,-11.97514 -1.80152,-18.36336 -0.32533,-23.29043 1.00834,-3.36555 0.8822,-4.12708 -1.15832,-6.99272 -1.712,-2.40428 -2.40215,-5.01356 -2.73471,-10.33916 -0.42598,-6.82164 -0.26863,-7.45458 3.71587,-14.94664 4.94152,-9.29153 5.22149,-12.74786 2.54737,-31.44723 l -1.75476,-12.27058 2.21038,-6.06219 c 1.21571,-3.3342 2.04874,-6.22383 1.85118,-6.4214 -1.22091,-1.2209 -16.54205,-2.64051 -37.40309,-3.46565 -13.25198,-0.52416 -24.83948,-1.2389 -25.75,-1.5883 -0.91053,-0.3494 -1.6555,-1.25639 -1.6555,-2.01553 0,-1.09484 1.49924,-1.27215 7.25,-0.85744 3.9875,0.28755 16.7,0.93977 28.25,1.44938 11.55,0.50961 23.475,1.3734 26.5,1.91954 3.025,0.54614 7.525,1.21976 10,1.49693 16.33239,1.82904 22.50266,2.7572 23.43596,3.52532 0.58522,0.48164 3.53904,1.33332 6.56404,1.89263 7.33387,1.35597 10.13309,2.48918 19,7.69173 7.20373,4.22671 17.26227,11.77749 24.90861,18.69848 28.19222,25.51788 33.09648,29.30145 33.08887,25.52766 -10e-4,-0.6875 -1.82733,-6.425 -4.05765,-12.75 -5.44193,-15.43286 -8.93696,-30.16338 -8.93854,-37.67327 -10e-4,-5.18349 0.4138,-6.66658 2.5876,-9.25 3.07662,-3.65636 6.2788,-3.94769 9.08703,-0.82673 1.11349,1.2375 6.4576,8.50301 11.87578,16.14558 5.41819,7.64257 10.0182,13.39472 10.22226,12.78255 0.20405,-0.61217 -0.42181,-4.84018 -1.39082,-9.39558 -0.969,-4.5554 -1.78912,-12.33255 -1.82248,-17.28255 -0.0822,-12.19485 0.0559,-12.42746 15.93934,-26.84492 4.56873,-4.14706 4.10085,-5.03797 -3.22253,-6.13618 -19.5372,-2.92978 -40.35125,-14.5131 -52.94374,-29.46393 -3.18957,-3.78692 -6.08025,-6.71163 -6.42373,-6.49935 -0.34347,0.21228 -0.88812,2.61179 -1.21031,5.33224 -1.55581,13.13632 -10.31921,31.58248 -17.01449,35.81393 -14.78108,9.34171 -30.29934,13.32407 -70.1852,18.01121 -15.67105,1.84157 -17.59338,1.90348 -47.25,1.52185 -15.45112,-0.19883 -18.24994,-0.46489 -18.24994,-1.73485 0,-1.29319 3.43482,-1.5 24.91334,-1.5 38.36983,0 75.79536,-4.8015 95.08666,-12.19913 11.08533,-4.25089 16.67408,-8.38963 20.41122,-15.1155 4.34425,-7.81851 7.22829,-16.42891 8.65073,-25.82699 1.03974,-6.86956 3.02293,-11.86074 4.7111,-11.85659 0.39982,9.8e-4 2.04084,2.08141 3.6467,4.62318 6.33549,10.02781 19.0918,21.07088 31.68054,27.42566 5.1674,2.60849 35.12104,10.94937 39.32123,10.94937 0.86816,0 1.57848,0.62686 1.57848,1.39301 0,1.52902 -2.10129,2.60699 -5.08179,2.60699 -1.05501,0 -1.91821,0.41036 -1.91821,0.91191 0,0.50156 -3.32318,3.70679 -7.38484,7.12274 -4.06166,3.41595 -8.33666,7.90436 -9.5,9.97424 -2.84974,5.07043 -2.76514,13.07947 0.31184,29.52194 1.33485,7.13305 2.71551,14.99417 3.06812,17.46917 1.03018,7.23084 5.59835,20.25645 8.20075,23.38353 6.08691,7.31409 9.25888,18.45634 9.28521,32.61647 0.0243,13.06266 -2.42315,16.78068 -9.55597,14.51685 -1.94385,-0.61694 -2.18294,0.005 -3.78597,9.84292 -2.16965,13.31582 -5.58461,23.36628 -10.55907,31.07611 -2.15194,3.33527 -4.62013,8.49089 -5.48486,11.45694 -4.99272,17.1252 -1.71344,45.31492 8.0122,68.87522 3.17557,7.69279 3.61613,9.80303 3.702,17.73196 0.18415,17.00329 -7.57503,34.91908 -17.30941,39.96707 -3.40925,1.76795 -9.77166,2.4987 -14,1.60796 z m 13.66856,-5.62095 c 7.21007,-4.22538 13.00735,-17.91654 14.013,-33.0938 0.58939,-8.89515 0.50521,-9.38768 -3.14613,-18.40624 -7.31913,-18.07773 -11.9242,-42.23343 -10.79279,-56.61318 0.26653,-3.38753 0.29805,-6.7188 0.07,-7.40283 -0.22801,-0.68403 -3.84223,3.43759 -8.03161,9.15914 -4.18937,5.72156 -10.14038,12.87375 -13.22446,15.89376 -5.52778,5.41295 -5.64612,5.46912 -8.33202,3.95545 -2.49001,-1.40329 -2.72429,-2.04822 -2.72106,-7.49093 0.002,-3.2755 0.36932,-8.20545 0.81641,-10.95545 0.72708,-4.47218 0.66284,-4.78887 -0.6085,-3 -3.10457,4.36836 -5.84173,14.20784 -6.79167,24.41452 -0.54185,5.82201 -2.61737,17.25573 -4.61226,25.40827 -5.8171,23.77283 -4.64168,32.85476 5.73397,44.30389 3.21729,3.55014 6.11129,7.2793 6.43113,8.28702 0.79353,2.5002 15.56195,7.88425 21.93953,7.99839 3.57292,0.0639 6.09655,-0.6062 9.25642,-2.45801 z M 387.3204,805.19156 c 2.96941,-3.22112 8.96819,-11.00366 13.33063,-17.29452 4.36243,-6.29086 8.52493,-12.03257 9.25,-12.75936 0.72506,-0.72678 1.3183,-2.09229 1.3183,-3.03445 0,-1.81036 -10.41173,-11.16912 -12.35853,-11.10868 -3.12737,0.0971 -6.10583,3.14538 -8.37544,8.57181 -1.35555,3.24101 -3.48033,7.24275 -4.72173,8.89275 -2.30329,3.0614 -4.41299,10.21664 -6.89485,23.38457 -2.43005,12.89303 -0.90466,13.49727 8.45162,3.34788 z m -75.55622,-4.81892 c 6.3348,-9.36476 9.43822,-21.49868 9.44936,-36.9456 0.003,-4.41764 0.64221,-10.48554 1.42006,-13.48421 0.77784,-2.99868 1.24766,-5.72172 1.04403,-6.0512 -0.20364,-0.32948 -1.63114,-0.414 -3.17223,-0.18781 -1.54109,0.22618 -5.79373,-0.28259 -9.45031,-1.13061 -4.85363,-1.12563 -9.33573,-1.37813 -16.60358,-0.93535 l -9.95525,0.6065 -0.61028,8.10737 c -0.33566,4.45906 -2.00998,12.83238 -3.72072,18.60738 -3.47955,11.74604 -5.03998,26.20581 -2.96631,27.48741 1.64325,1.01558 2.25814,-0.0629 7.11928,-12.48741 5.29451,-13.5321 7.74949,-17.87024 11.09068,-19.59804 6.97246,-3.6056 11.89109,0.56516 12.62454,10.705 0.37368,5.16606 -1.079,21.8673 -2.54652,29.27697 -0.89151,4.50138 1.62191,2.91162 6.27725,-3.9704 z m 108.43239,-43.08225 c 4.0936,-10.94113 7.72615,-33.96122 5.68167,-36.00571 -1.66123,-1.66122 -6.05734,2.3437 -11.56693,10.53764 -3.79572,5.64505 -7.60245,10.01904 -10.29134,11.82492 -6.45087,4.33245 -11.58752,14.72107 -7.05064,14.25957 3.94471,-0.40126 5.38939,0.27612 10.93072,5.12521 l 5.7971,5.07291 2.17085,-2.52377 c 1.19398,-1.38807 3.14183,-5.11892 4.32857,-8.29077 z m -94.2163,-18.16237 c 1.80535,-1.14607 5.23906,-11.46471 5.23906,-15.74393 0,-2.77172 -0.7811,-4.40608 -3.31842,-6.9434 l -3.31843,-3.31843 -7.26799,1.38486 c -6.25541,1.19191 -7.57124,1.18616 -9.44459,-0.0413 -6.40562,-4.19712 -22.58143,-4.31706 -24.85642,-0.1843 -1.33529,2.42569 -1.34786,15.47943 -0.0194,20.12933 1.14175,3.99635 5.553,5.12792 14.22523,3.64905 5.19493,-0.88589 7.5039,-0.82446 11.5,0.30597 5.55139,1.57039 15.30906,2.00125 17.26094,0.76216 z m 111.91567,-17.91891 c 1.20227,-5.87634 0.67759,-17.31883 -1.115,-24.31596 -1.88759,-7.36799 -5.98785,-14.93404 -8.09318,-14.93404 -0.79599,0 -3.97965,2.29335 -7.0748,5.09633 -5.89279,5.33654 -5.70617,5.29139 -13.75232,3.32691 -2.70546,-0.66054 -2.79529,-0.57947 -1.6758,1.51232 0.6506,1.21564 3.26098,3.63995 5.80086,5.38735 10.61869,7.30551 15.02561,12.71288 16.70702,20.49982 0.47744,2.21112 1.77282,3.96625 3.87204,5.24626 4.23119,2.58001 4.44617,2.50666 5.33118,-1.81899 z m -119.24685,-10.596 c 4.22045,-0.98796 5.04418,-1.58277 5.72503,-4.13403 0.92682,-3.47294 0.27879,-9.07591 -1.82407,-15.77119 -1.91855,-6.10847 -4.44268,-6.89936 -12.00967,-3.76301 -7.09729,2.94166 -11.98622,2.36686 -19.98931,-2.35018 -3.39255,-1.99958 -6.45205,-3.63559 -6.7989,-3.63559 -0.34684,0 -1.49874,1.9125 -2.55977,4.25 -2.53843,5.59228 -2.61624,15.08193 -0.16121,19.65961 l 1.81186,3.3784 10.43814,0.106 c 7.64195,0.0776 11.24179,0.54637 13.43814,1.74991 3.5735,1.95819 5.40848,2.03664 11.92976,0.51008 z m 102.32024,-27.62799 c 2.8875,-2.69375 5.25,-5.52278 5.25,-6.28672 0,-0.76394 -1.125,-4.69662 -2.5,-8.73929 -1.375,-4.04267 -2.5,-8.34834 -2.5,-9.56816 0,-1.21983 -0.63933,-2.46319 -1.42072,-2.76305 -0.7814,-0.29985 -6.85118,-8.1932 -13.4884,-17.54079 -6.63722,-9.34759 -12.48686,-17.25469 -12.9992,-17.57134 -1.39209,-0.86035 -5.09168,4.35015 -5.09168,7.17111 0,5.55996 4.4324,23.57343 9.15813,37.21902 2.77202,8.00427 5.51207,15.98676 6.089,17.73888 0.81081,2.46246 1.86667,3.40383 4.65091,4.14665 6.12552,1.63424 7.43622,1.24606 12.85196,-3.80631 z m -112.6092,0.99595 c 2.39756,-1.08792 5.71587,-1.98792 7.37403,-2 l 3.01482,-0.022 -0.35956,-24.75 c -0.19777,-13.6125 -0.76397,-25.17453 -1.25824,-25.69341 -1.16894,-1.22714 -6.35833,3.69328 -9.43228,8.94341 -1.51193,2.58229 -2.73571,7.01263 -3.45285,12.5 -1.88632,14.4337 -2.04664,15 -4.24642,15 -1.66822,0 -1.886,-0.44272 -1.32238,-2.68835 0.3711,-1.47859 1.09951,-6.42667 1.61868,-10.99574 0.81941,-7.21132 0.69009,-9.02969 -0.98011,-13.7817 -2.27464,-6.47175 -7.03966,-13.89958 -9.18129,-14.31202 -1.90699,-0.36722 -5.9152,8.90103 -5.9152,13.67785 0,1.84874 0.72778,7.91504 1.61728,13.48067 1.03436,6.47195 1.40281,12.69205 1.02224,17.25711 l -0.59504,7.13777 6.72776,4.1061 c 7.65102,4.66959 9.29115,4.898 15.36856,2.14031 z m 0.75421,-51.42695 c 2.78944,-2.5244 2.67433,-4.59501 -0.25544,-4.59501 -1.29823,0 -4.4581,-0.28752 -7.02193,-0.63893 -4.27696,-0.58622 -4.60398,-0.48311 -3.96433,1.25 2.26297,6.13134 7.00995,7.81362 11.2417,3.98394 z M 844.6782,897.89258 c -0.3625,-0.58659 -0.4447,-1.281 -0.1825,-1.54313 0.2621,-0.26213 0.743,0.21781 1.0687,1.06653 0.6762,1.76211 0.1,2.07206 -0.8862,0.4766 z M 741.7193,882.33177 c -3.7481,-0.90862 -7.9936,-2.76182 -12.5,-5.45635 -10.3762,-6.20435 -25.7157,-11.35228 -55,-18.45801 -10.175,-2.46893 -23,-5.86925 -28.5,-7.55627 -12.8921,-3.95443 -26.5,-11.5606 -26.5,-14.81232 0,-1.87731 1.7268,-1.22585 8.7189,3.28927 8.873,5.72982 19.0155,9.00637 55.9597,18.07784 9.9982,2.45502 23.5478,6.50655 30.1102,9.00342 6.5625,2.49687 12.1176,4.53976 12.3448,4.53976 0.2271,0 0.4225,-10.6875 0.4341,-23.75 0.023,-25.607 0.8427,-32.18965 5.9477,-47.75 3.7288,-11.36574 7.8268,-19.50907 13.0353,-25.90303 4.9196,-6.03932 15.2877,-13.97087 20.6014,-15.75993 1.8413,-0.61997 3.9395,-1.59114 4.6625,-2.15814 0.723,-0.567 8.1321,-10.46711 16.4648,-22.00025 8.4306,-11.6687 16.4965,-21.80177 18.1855,-22.84616 1.6693,-1.03225 5.2799,-2.65434 8.0234,-3.60465 3.6228,-1.25488 7.2615,-3.89827 13.2931,-9.657 l 8.3048,-7.92916 2.0762,2.07624 c 3.7238,3.72385 2.6213,12.71913 -2.915,23.78208 -4.3281,8.6489 -8.2641,13.72922 -12.8165,16.54274 -1.9212,1.18734 -4.435,4.02596 -5.5863,6.30803 -3.2507,6.44336 -10.125,13.94203 -21.1978,23.12314 -16.5331,13.70856 -19.6148,15.43227 -23.2877,13.02572 -2.0481,-1.34197 -2.3591,-2.34254 -2.3591,-7.59007 0,-5.7953 -0.093,-6.01739 -2.25,-5.39039 -3.9126,1.13719 -12.671,7.59916 -17.3435,12.79613 -5.2326,5.81989 -11.4167,18.18323 -14.3932,28.77509 -3.7753,13.43417 -5.0011,25.20678 -5.0074,48.08818 -0.01,24.29948 -0.2587,23.41374 7.5093,26.38038 7.8701,3.00562 27.0836,0.76994 36.9848,-4.30355 6.9485,-3.56043 16.9715,-13.54788 18.408,-18.34266 2.3844,-7.9583 2.407,-17.73246 0.083,-35.84929 -2.6862,-20.94022 -2.4285,-24.52339 3.1944,-44.41845 3.7191,-13.1589 5.6453,-17.14779 7.4224,-15.37065 0.2868,0.28678 -1.5326,7.66434 -4.0431,16.39456 -5.188,18.04104 -5.6011,23.85833 -3.0416,42.83109 2.1234,15.7396 2.0956,30.11167 -0.071,36.68644 -2.1544,6.53814 -12.2391,16.88116 -20.5453,21.07149 -7.9193,3.99521 -28.2474,7.60788 -34.4067,6.11473 z m 38.0179,-113.04339 c 5.9788,-4.00986 21.7654,-17.7382 26.6679,-23.19096 7.2142,-8.02398 8.1939,-10.59428 7.3738,-19.34606 l -0.708,-7.55544 -4.004,-1.80553 -4.0039,-1.80553 -2.5018,3.1967 c -3.7652,4.811 -24.305,33.17389 -26.9233,37.17755 -2.0239,3.09482 -2.9491,8.53737 -2.5074,14.75 0.1384,1.94675 2.2688,1.48862 6.6067,-1.42073 z m 44.2001,-43.63915 c 7.1941,-7.80462 14.6441,-27.11222 11.267,-29.19943 -0.6233,-0.38518 -3.8274,1.89627 -7.298,5.19644 -4.2884,4.07774 -8.1049,6.63416 -12.437,8.33066 -6.5487,2.56456 -7.4505,3.4664 -4.4263,4.42626 4.1091,1.30415 6.1763,4.4599 6.1763,9.42824 0,7.56717 1.1353,7.87437 6.718,1.81783 z M 466.21933,876.94166 c 0,-1.10959 0.92504,-6.28704 2.05565,-11.50544 1.13061,-5.2184 1.81067,-9.88439 1.51125,-10.36886 -0.29942,-0.48448 0.35053,-1.1149 1.44435,-1.40094 1.70121,-0.44488 1.98875,-1.37219 1.98875,-6.41369 0,-3.25059 0.53815,-6.43177 1.2,-7.09362 0.93333,-0.93333 0.93333,-1.2 0,-1.2 -0.66,0 -1.2,-0.45 -1.2,-1 0,-0.55 0.61875,-1 1.375,-1 1.42863,0 3.03363,-5.52981 2.06152,-7.10271 -0.305,-0.49351 -1.161,-0.89729 -1.90222,-0.89729 -1.80778,0 -6.92092,-12.62487 -9.06123,-22.3731 -3.37811,-15.3859 -0.16904,-36.0894 6.70751,-43.27392 1.66326,-1.73775 4.95546,-3.69111 7.35178,-4.36204 2.38681,-0.66827 4.59892,-1.89066 4.9158,-2.71644 0.35351,-0.92124 1.34428,-1.30053 2.56399,-0.98157 2.14367,0.56058 2.45692,-0.53402 2.08706,-7.29293 -0.13531,-2.47278 0.0858,-3.09054 0.75336,-2.10485 0.76714,1.13271 1.03616,1.03865 1.43015,-0.5 0.28389,-1.10866 0.53342,-0.49078 0.60128,1.48883 0.0638,1.86119 -0.4252,5.19034 -1.08666,7.39811 -1.23489,4.12167 -1.78193,4.49453 -13.88899,9.46644 -5.03692,2.06848 -9.02331,14.96004 -9.04525,29.25147 -0.0161,10.49767 2.92346,22.69847 7.77601,32.27453 2.28162,4.50254 2.54472,5.99153 2.0661,11.69253 -0.30165,3.59312 -2.15873,13.04289 -4.12684,20.9995 -1.9681,7.95661 -3.57837,15.94411 -3.57837,17.75 0,2.61677 -0.40608,3.28344 -2,3.28344 -1.3391,0 -2,-0.66667 -2,-2.01745 z m 755.07897,-29.39922 c -0.043,-1.05416 0.193,-1.64479 0.5253,-1.3125 0.3323,0.33229 0.3678,1.1948 0.079,1.91667 -0.3192,0.79773 -0.5562,0.56078 -0.6042,-0.60417 z m -83.5789,-6.98751 c -5.6693,-1.80053 -12.4836,-5.49763 -24,-13.02107 -9.7676,-6.38101 -13.4963,-7.97711 -34,-14.55398 -5.5,-1.76421 -17.65,-6.28313 -27,-10.04205 -9.35,-3.75892 -20.0375,-7.85237 -23.75,-9.09655 -4.1465,-1.38964 -6.75,-2.81563 -6.75,-3.69716 0,-2.27499 3.9639,-1.05273 29.7766,9.18151 23.7103,9.40069 35.879,13.63348 39.1945,13.63348 1.6635,0 1.6541,-0.37131 -0.1718,-6.75 -3.2916,-11.49914 -0.9887,-26.41896 5.8915,-38.17009 2.6784,-4.57449 34.7743,-52.23453 39.9549,-59.32991 1.5059,-2.0625 3.3266,-3.75 4.0461,-3.75 1.9529,0 1.6094,1.28175 -1.5009,5.59996 -7.9157,10.98985 -38.7221,57.51479 -40.8049,61.62494 -5.695,11.23861 -6.9318,25.02418 -3.2511,36.23654 2.0909,6.36927 2.2611,6.56496 8.25,9.48523 3.3633,1.63999 9.9401,5.53316 14.6151,8.65149 11.6628,7.77936 19.4005,11.26533 26.6986,12.02812 5.2761,0.55146 6.6355,0.33034 9.7312,-1.58287 11.502,-7.10864 14.518,-23.97522 8.5014,-47.54341 -2.3967,-9.38844 -3.1753,-14.93801 -3.5777,-25.5 -0.6289,-16.50752 -0.6526,-16.60433 -3.5684,-14.56202 -3.2263,2.25978 -4.534,1.94823 -6.3201,-1.50568 -1.3168,-2.54647 -1.5977,-7.26141 -1.6529,-27.75 -0.081,-29.93744 1.1072,-37.93359 6.5859,-44.33416 3.4663,-4.04957 6.4513,-11.38503 10.5186,-25.84814 1.16,-4.125 2.7783,-7.99961 3.5962,-8.61024 2.0165,-1.50542 2.0249,-1.46991 -2.5128,-10.63127 -3.6848,-7.4393 -4,-8.72189 -4,-16.27459 l 0,-8.19885 -15.9144,-11.62975 c -8.7529,-6.39636 -26.4154,-19.72737 -39.25,-29.62448 -20.0136,-15.43307 -25.3998,-19.04601 -37.8356,-25.37954 -7.975,-4.06164 -17.7625,-8.64086 -21.75,-10.17603 -4.0119,-1.54455 -7.25,-3.39062 -7.25,-4.13324 0,-1.81027 0.3942,-1.74732 8.4752,1.35345 14.7311,5.65242 35.8735,17.16301 46.5248,25.32952 18.9583,14.53559 60.4415,45.65264 63.2812,47.46798 1.5297,0.97788 2.9694,1.58974 3.1995,1.35971 0.23,-0.23004 0.8909,-8.74617 1.4686,-18.92473 0.9905,-17.45112 2.5415,-26.98963 5.3449,-32.86923 0.9231,-1.936 2.103,-2.63258 4.8482,-2.86224 4.9634,-0.41522 6.9142,2.31113 10.952,15.30605 1.7794,5.72649 3.5529,10.21544 3.9412,9.97545 0.3884,-0.23999 0.9857,-1.83442 1.3274,-3.54317 0.8795,-4.39708 8.3209,-19.96945 10.8076,-22.61637 2.8874,-3.07354 1.8816,-4.67066 -3.8697,-6.14466 -13.9688,-3.58011 -32.0034,-19.99521 -41.8557,-38.09713 -1.5197,-2.79215 -3.173,-5.07664 -3.674,-5.07664 -0.5009,0 -2.8928,1.36359 -5.3151,3.0302 -12.1333,8.34794 -23.3609,11.40868 -62.9561,17.1624 -10.2481,1.48918 -21.2874,0.29989 -30.6186,-3.29857 -4.3348,-1.67167 -7.8814,-3.43014 -7.8814,-3.9077 0,-1.92471 1.9445,-1.77625 7.8202,0.59703 10.1204,4.08781 19.8123,5.02566 32.1798,3.11393 5.775,-0.89267 15.225,-2.35202 21,-3.24298 19.6955,-3.03862 32.6155,-7.66575 40.3387,-14.44685 5.6286,-4.94192 7.7109,-4.20662 12.0147,4.24254 4.2866,8.41554 13.0607,19.38755 20.7601,25.96061 7.0625,6.02935 18.4466,11.67401 25.3587,12.5738 l 5.4971,0.71559 -5.4752,8 c -6.7536,9.86794 -11.2599,21.13047 -12.1087,30.26338 -0.8855,9.52756 1.3429,33.22901 3.924,41.73662 2.619,8.63238 2.6846,20.07295 0.1718,29.996 -2.4674,9.74427 -5.2907,14.29383 -10.5776,17.04529 -2.4083,1.2533 -2.6428,1.98944 -3.2348,10.15498 -0.7341,10.12669 -2.6383,17.18036 -8.9905,33.30373 -11.8799,30.15364 -13.3652,52.17579 -5.5645,82.5 2.6378,10.25402 3.0061,13.16399 2.5308,20 -0.3058,4.4 -1.2489,10.29678 -2.0957,13.10395 -1.6816,5.57443 -7.9864,13.5367 -12.6137,15.92958 -3.4256,1.77142 -11.9578,1.8019 -17.4352,0.0623 z m 19.5803,-95.88178 c 1.9616,-1.68313 2.8693,-3.84632 3.7854,-9.02103 1.2686,-7.16681 4.4276,-16.91983 10.5953,-32.71184 l 3.7177,-9.51883 -7.4908,-7.86431 c -6.5332,-6.8589 -7.8185,-7.78207 -10.0535,-7.22111 -2.9349,0.73661 -3.8833,3.44894 -5.5753,15.94544 -1.3298,9.82163 -1.3915,46.6732 -0.084,50.11254 1.1791,3.10112 1.7781,3.13388 5.1051,0.27914 z m 20.2036,-61.79262 c 1.4723,-8.01309 0.2846,-23.73334 -2.3694,-31.35998 -1.328,-3.8162 -2.9072,-7.09294 -3.5094,-7.28164 -0.6132,-0.19214 -2.0813,3.08058 -3.3369,7.43856 -1.233,4.2799 -3.1382,10.25664 -4.2337,13.28164 -1.0955,3.025 -2.211,6.19973 -2.4788,7.05495 -0.549,1.75302 12.4747,16.16826 14.1138,15.62189 0.5511,-0.1837 1.3676,-2.32364 1.8144,-4.75542 z m 8.6629,-21.86824 c 3.0874,-3.08735 4.7671,-7.05972 6.4688,-15.29806 2.2053,-10.67668 1.7652,-23.90768 -0.8834,-26.55625 -0.3535,-0.35347 -2.8216,0.58218 -5.4848,2.07923 -6.1295,3.44554 -7.8547,3.4121 -14.395,-0.27899 -2.9245,-1.65049 -5.5766,-2.74162 -5.8934,-2.42473 -1.0389,1.03889 2.9601,11.01357 10.1935,25.42562 0.9661,1.925 2.5229,6.425 3.4595,10 2.3113,8.82223 2.3816,9 3.5566,9 0.5673,0 1.9075,-0.87607 2.9782,-1.94682 z m -0.6182,-43.14742 c 2.5692,-1.70183 4.6714,-3.82849 4.6714,-4.72591 0,-6.75076 -3.3694,-34.17686 -4.4449,-36.17985 -0.7382,-1.375 -2.7404,-7.19179 -4.4491,-12.9262 -1.7088,-5.73441 -3.7921,-11.47191 -4.6295,-12.75 -5.2477,-8.00898 -9.0293,4.91326 -10.4346,35.65655 -0.4907,10.73581 -0.5846,21.31965 -0.2085,23.51965 0.6206,3.63046 1.2373,4.29765 6.6752,7.22188 3.2953,1.77204 6.4767,3.23454 7.07,3.25 0.5932,0.0155 3.1807,-1.36429 5.75,-3.06612 z m 36.3017,216.84424 c -0.3317,-1.2375 -0.6091,-3.94226 -0.6166,-6.01059 -0.022,-5.94807 -3.6514,-20.95522 -9.007,-37.23941 -8.5815,-26.09266 -9.466,-30.33478 -9.4875,-45.5 -0.018,-12.63711 0.1998,-14.18891 3.4071,-24.27806 3.0792,-9.68612 3.8946,-11.20578 8.0484,-15 2.5422,-2.32207 6.6798,-5.41325 9.1946,-6.86929 2.5148,-1.45604 5.8381,-4.30692 7.3853,-6.33529 2.428,-3.18328 2.8711,-4.8052 3.2383,-11.85265 0.5723,-10.98304 -0.779,-15.31852 -7.0346,-22.56941 -4.1321,-4.78952 -5.6415,-5.91173 -7.3684,-5.47832 -2.5427,0.63818 -4.2793,-1.43953 -2.268,-2.71347 0.7579,-0.48009 2.9531,-0.88013 4.8781,-0.88899 5.1493,-0.0237 15.3442,-5.26294 20.4365,-10.50256 6.1775,-6.35616 6.5906,-9.97538 2.6268,-23.01196 -1.7465,-5.7441 -3.0453,-12.27931 -3.0519,-15.35566 -0.016,-7.39213 2.5595,-16.73061 6.1803,-22.41116 4.0613,-6.3716 14.3961,-15.70181 21.7111,-19.60068 5.6317,-3.00165 24.6839,-8.506 26.1995,-7.56927 0.3905,0.24132 0.4652,1.37459 0.1661,2.51838 -0.4002,1.53051 -1.0969,1.93499 -2.6385,1.53185 -2.7529,-0.7199 -12.7378,1.83949 -19.5832,5.01968 -6.813,3.16518 -16.3759,11.06554 -21.2987,17.59587 -7.5972,10.07791 -9.121,22.99667 -4.3949,37.25887 3.0249,9.12864 3.3451,15.23851 1.0518,20.0713 -2.2983,4.84326 -9.385,10.97772 -16.3635,14.16469 -3.3228,1.51746 -6.0414,3.18391 -6.0414,3.70322 0,0.51931 1.7983,3.07686 3.9962,5.68345 4.969,5.89296 5.741,7.90952 6.5824,17.19476 1.2068,13.31762 -1.8384,18.71918 -16.0307,28.43527 -8.0343,5.5003 -10.2476,9.09288 -13.7135,22.25943 -1.6594,6.3039 -2.2258,11.21283 -2.1923,19 0.053,12.21697 1.5893,19.26924 9.8064,45 8.3646,26.19289 11.8818,46 8.1681,46 -0.7608,0 -1.6547,-1.0125 -1.9863,-2.25 z m -360.6858,-10 c -0.5932,-2.67676 -0.4311,-38.27567 0.1861,-40.84588 2.0674,-8.60993 12.667,-18.36263 27.8693,-25.64251 5.225,-2.50208 10.5176,-5.46771 11.7613,-6.59029 5.8531,-5.28316 4.9477,-15.99069 -2.6064,-30.82642 l -4.9163,-9.65511 4.9963,-4.84489 c 6.0637,-5.88 9.742,-13.18452 9.7554,-19.37239 0.012,-5.31786 -1.7105,-8.13954 -7.008,-11.48373 -4.3379,-2.73836 -14.4044,-15.44154 -18.2494,-23.02933 -7.9411,-15.67101 -4.9285,-31.44401 8.8477,-46.32362 3.5855,-3.87269 9.3043,-9.13489 12.7084,-11.69378 6.0895,-4.57758 6.1987,-4.61459 6.777,-2.29729 0.4926,1.9738 0.01,2.61814 -2.9891,3.97853 -5.6953,2.5847 -18.2752,15.88678 -22.0413,23.30673 -6.6471,13.09569 -5.0664,25.48597 5.1118,40.06998 6.6305,9.50056 7.826,10.82441 12.3983,13.72878 6.8832,4.37225 7.8661,6.0764 7.8661,13.63829 0,7.66444 -2.4903,13.00823 -9.7145,20.84551 l -3.9993,4.33878 4.0796,8.22432 c 6.3453,12.79165 7.7875,21.12101 4.8493,28.00644 -2.226,5.21635 -4.5996,7.15873 -14.6269,11.96941 -11.0165,5.28529 -19.1815,11.25965 -24.0429,17.59227 -3.0741,4.00437 -3.4738,5.25704 -3.8115,11.94549 -0.2981,5.90295 -0.1073,7.30512 0.9085,6.67731 0.9672,-0.59776 1.0763,-0.32038 0.4403,1.11936 -0.465,1.05272 -1.0366,7.65154 -1.2703,14.66404 -0.3352,10.05768 -0.7205,12.75 -1.8245,12.75 -0.7698,0 -1.4245,-0.1125 -1.455,-0.25 z m 5.6804,-30.54775 c -0.2711,-0.43876 -0.08,-1.45126 0.4257,-2.25 0.7173,-1.13385 0.9221,-0.95896 0.934,0.79775 0.016,2.31303 -0.4923,2.85568 -1.3597,1.45225 z m -387.06068,-2.90912 c -0.54268,-1.4252 -0.42782,-1.54006 0.5598,-0.5598 0.68342,0.67834 0.99067,1.48524 0.68278,1.79313 -0.30789,0.30789 -0.86705,-0.24711 -1.24258,-1.23333 z m 8.04049,-53.88066 c -0.33263,-0.86683 -0.60478,-2.4542 -0.60478,-3.5275 0,-1.0733 -1.08018,-4.074 -2.40039,-6.66821 -2.16872,-4.26153 -3.60613,-5.94276 -10.51628,-12.30009 -2.85286,-2.62463 -2.76035,-5.91385 0.16667,-5.92605 4.72268,-0.0197 20.75,-11.40119 20.75,-14.73521 0,-2.60878 1.08801,-0.71078 1.51171,2.63715 0.2163,1.70909 -0.0619,3.10744 -0.61824,3.10744 -0.55633,0 -0.73339,0.45 -0.39347,1 0.33992,0.55 0.20388,1 -0.30231,1 -0.50619,0 -0.81969,1.0125 -0.69667,2.25 0.12303,1.2375 0.0293,1.4625 -0.20822,0.5 -0.60342,-2.44495 -1.84923,-2.19894 -6.10144,1.20485 -2.03025,1.62517 -5.37886,3.65621 -7.44136,4.51342 -2.0625,0.85721 -3.75,1.76826 -3.75,2.02455 0,0.2563 1.9822,2.29312 4.4049,4.52628 5.35349,4.93468 7.86348,9.92348 8.1674,16.23331 0.23082,4.79204 -0.84893,7.07503 -1.96752,4.16006 z M 843.7193,693.10355 c -1.65,-1.01645 -5.8628,-5.08311 -9.3618,-9.03703 -4.8825,-5.51723 -7.7941,-7.83835 -12.521,-9.98161 -5.9011,-2.67571 -11.6172,-7.8668 -11.6172,-10.5503 0,-1.78062 -10.8401,-11.92869 -15.029,-14.06955 -1.909,-0.97566 -7.071,-5.20952 -11.471,-9.40858 -18.6367,-17.78559 -40.7986,-27.71752 -82.75,-37.08454 -8.1185,-1.81273 -9.75,-2.49268 -9.75,-4.06353 0,-1.06814 0.5423,-1.70304 1.25,-1.46356 0.6875,0.23264 8.225,2.05161 16.75,4.04216 36.5394,8.53179 59.0568,19.13814 77,36.26916 4.125,3.93828 7.6514,6.71593 7.8364,6.17256 0.185,-0.54338 -2.0928,-5.37133 -5.0619,-10.72879 -7.1177,-12.84321 -9.5143,-18.14435 -11.2966,-24.98712 -1.9048,-7.31311 -1.8624,-8.59577 0.3509,-10.59872 4.5858,-4.15011 10.3167,-1.69648 27.1129,11.60816 4.6429,3.67775 8.6092,6.51934 8.8139,6.31465 1.0156,-1.01558 6.1689,-30.05338 5.4594,-30.76283 -0.4521,-0.45215 -3.4721,-1.51233 -6.7111,-2.35597 -10.8719,-2.83177 -20.0215,-10.07796 -28.3163,-22.42555 -3.1281,-4.65661 -5.9432,-8.82569 -6.2556,-9.26463 -0.3125,-0.43894 -6.1128,1.94202 -12.8896,5.29103 -22.8066,11.27058 -39.4329,15.54947 -62.5327,16.09307 -11.1909,0.26336 -13.0323,0.0873 -13.294,-1.27135 -0.2617,-1.3593 1.8081,-1.6629 14.9903,-2.19869 23.3992,-0.95107 37.5465,-4.70113 59.9034,-15.87871 7.4852,-3.74229 13.9068,-6.80417 14.2702,-6.80417 0.3635,0 2.9287,3.47413 5.7007,7.72029 10.9961,16.84435 18.1288,22.74113 31.4088,25.96635 l 7.963,1.9339 -0.2851,4.43973 c -0.1569,2.44185 -1.177,8.26473 -2.2671,12.93973 -3.3191,14.23449 -3.4922,18.91362 -0.89,24.05131 4.0166,7.92995 11.0793,18.29419 17.1492,25.16556 4.3056,4.87419 7.2906,9.69706 10.8808,17.58015 5.4539,11.97534 7.1172,18.61282 6.262,24.98903 -0.5462,4.07229 -0.6868,4.21382 -4.1835,4.21021 -1.9901,-0.002 -4.9684,-0.83538 -6.6184,-1.85182 z m 7.326,-5.14106 c 0.4878,-5.00085 -1.3992,-11.21931 -6.8037,-22.42075 -4.6873,-9.71504 -11.3124,-18.58263 -13.8834,-18.58263 -1.5803,0 -5.0881,7.66592 -5.1169,11.18261 -0.023,2.75693 -0.4975,3.0584 -6.8294,4.33481 -2.632,0.53056 -3.2447,1.09573 -3,2.7671 0.2195,1.49954 2.462,3.15899 7.8393,5.80114 6.0527,2.97399 8.8861,5.21391 14.4275,11.40545 9.2072,10.28737 12.7581,11.75175 13.3666,5.51227 z m -31.2395,-29.00338 c 0.735,0 1.8373,-1.9125 2.4495,-4.25 0.6122,-2.3375 2.2344,-5.97289 3.6048,-8.07863 l 2.4917,-3.82864 -3.9162,-6.17136 c -2.1538,-3.39426 -4.9961,-8.07073 -6.3162,-10.39217 -1.5587,-2.74109 -6.607,-7.59661 -14.4001,-13.85021 -17.19,-13.79414 -23.5297,-16.41613 -23.4789,-9.71037 0.034,4.52912 4.4333,15.68645 10.2795,26.0724 3.0058,5.33994 6.4632,11.73398 7.683,14.20898 1.2199,2.475 4.9851,7.33923 8.3672,10.80941 5.3923,5.53274 6.5031,6.24054 9.0242,5.75 1.5813,-0.30768 3.4764,-0.55941 4.2115,-0.55941 z m -319.66607,33.5 c -0.0479,-1.1 -0.19783,-2.99163 -0.3332,-4.20362 -0.13537,-1.21199 0.0947,-1.99296 0.51134,-1.73548 0.41661,0.25748 1.05197,-0.45977 1.41193,-1.59387 0.45601,-1.43679 -0.20438,-3.1425 -2.17801,-5.62545 -5.66512,-7.12711 -7.53496,-9.96386 -10.8464,-16.45519 -4.08942,-8.01635 -7.32908,-20.19926 -7.69348,-28.93172 -0.23623,-5.6611 0.17322,-7.37675 3.33039,-13.95467 4.55637,-9.49316 9.90151,-15.49805 20.50019,-23.03051 4.61971,-3.28322 8.6479,-5.96949 8.95152,-5.96949 0.30362,0 0.41103,1.4625 0.23868,3.25 -0.20186,2.09357 -0.84709,3.24358 -1.81336,3.23195 -2.42388,-0.0292 -12.14988,6.87212 -16.81036,11.92815 -2.36925,2.57032 -5.88865,7.91704 -7.8209,11.88161 -3.27334,6.71619 -3.47327,7.67299 -2.92868,14.01525 1.23256,14.35435 6.82907,28.7662 15.02279,38.68595 5.55054,6.71977 6.19156,11.24627 2.45943,17.36686 -1.5755,2.58378 -1.93023,2.78583 -2.00188,1.14023 z m -3.9204,-4.5 c 0,-0.55 0.45,-1 1,-1 0.55,0 1,0.45 1,1 0,0.55 -0.45,1 -1,1 -0.55,0 -1,-0.45 -1,-1 z m 770.61037,-24.5 c 0.8225,-3.67693 1.3948,-4.47511 1.3744,-1.91667 -0.01,1.05417 -0.4721,2.59167 -1.0304,3.41667 -0.7413,1.09546 -0.8341,0.69092 -0.344,-1.5 z m -761.53142,-7.91667 c -0.0434,-1.05416 0.19293,-1.64479 0.52522,-1.3125 0.33229,0.33229 0.36781,1.1948 0.0789,1.91667 -0.31922,0.79773 -0.55618,0.56078 -0.60416,-0.60417 z m 6.37993,-54.64986 c -0.36253,-0.58659 -0.44468,-1.281 -0.18255,-1.54313 0.26212,-0.26213 0.74306,0.21781 1.06875,1.06653 0.67618,1.76211 0.0999,2.07206 -0.8862,0.4766 z m 4.54112,-8.1199 c 0,-2.40593 2.14026,-4.36371 11.27695,-10.31546 17.60384,-11.46734 25.79996,-22.78438 27.28079,-37.66876 1.04229,-10.47648 -4.41124,-21.80819 -16.99564,-35.31463 -3.06717,-3.2919 -5.83905,-6.81194 -6.15973,-7.82232 -0.33734,-1.06288 -1.17711,-1.60908 -1.99271,-1.29611 -0.77531,0.29752 -1.40966,-0.009 -1.40966,-0.68068 0,-0.67189 -4.99699,-6.62026 -11.10443,-13.21861 -30.77266,-33.24617 -36.46658,-40.40337 -54.75135,-68.82197 -10.72796,-16.67363 -14.81069,-25.51754 -18.71237,-40.53429 -3.48923,-13.42933 -4.4117,-23.63115 -4.4434,-49.14074 -0.0529,-42.59713 -5.68515,-76.86672 -19.4735,-118.48785 -12.66724,-38.23702 -34.91651,-81.96352 -61.13862,-120.155778 -7.05877,-10.281037 -8.1146,-12.328702 -6.88374,-13.350223 1.21792,-1.010782 3.47434,1.864705 13.90445,17.719213 32.55567,49.486948 53.1687,94.037308 65.59778,141.774638 8.68209,33.34597 10.95581,51.09441 11.9781,93.5 0.94208,39.07848 2.07773,46.63197 9.77258,65 5.14082,12.27143 27.62743,46.13666 41.05071,61.82311 12.70638,14.84868 33.53127,36.7466 36.41226,38.28846 1.56296,0.83647 1.69184,1.30363 0.692,2.50836 -0.99089,1.19395 -0.88586,1.8094 0.54276,3.18026 1.67968,1.61179 1.73253,1.57085 1.02044,-0.79048 -0.44124,-1.4632 2.10864,1.01143 6.18246,6 18.49682,22.65013 21.71265,30.34302 18.69738,44.72769 -2.16572,10.33176 -5.58233,16.28529 -13.85602,24.14449 -4.10695,3.9012 -11.40925,9.63939 -16.22734,12.75154 -4.81808,3.11214 -9.32265,6.09787 -10.01015,6.63495 -0.87262,0.68169 -1.25,0.54438 -1.25,-0.45481 z m 399.18721,-5.06357 c 0.1831,-1.31706 1.4506,-2.74724 3.0568,-3.44921 5.4689,-2.39002 22.5381,-14.28851 25.7566,-17.95419 1.8135,-2.06543 4.4677,-6.25087 5.8983,-9.30097 2.4015,-5.12001 2.6011,-6.58771 2.6011,-19.12347 0,-15.54919 0.5439,-14.29335 -11.8752,-27.42216 -3.6419,-3.85 -6.6292,-7.45 -6.6385,-8 -0.01,-0.55 -0.4531,-0.325 -0.9863,0.5 -0.5331,0.825 -0.9762,0.9926 -0.9847,0.37244 -0.01,-0.62015 0.6897,-1.71263 1.5513,-2.42772 1.3445,-1.11582 2.3016,-0.51296 6.75,4.25178 15.7086,16.8255 15.3822,16.27463 16.2135,27.36259 1.2081,16.11436 -2.6943,28.75425 -11.5595,37.44091 -3.8037,3.72711 -27.8745,20 -29.584,20 -0.2817,0 -0.3715,-1.0125 -0.1994,-2.25 z m 5.8918,-32.16667 c -0.043,-1.05416 0.1929,-1.64479 0.5252,-1.3125 0.3323,0.33229 0.3678,1.1948 0.079,1.91667 -0.3192,0.79773 -0.5562,0.56078 -0.6042,-0.60417 z m 377.49486,-2.46385 c -0.989,-1.60031 1.3411,-2.83979 9.4262,-5.01412 14.5104,-3.90229 21.9827,-9.14556 27.5122,-19.30517 4.1387,-7.60401 4.5431,-16.8287 1.1769,-26.84232 -2.5412,-7.55941 -13.976,-29.8938 -15.9229,-31.10054 -0.5983,-0.37081 -0.7447,-1.80676 -0.3462,-3.39464 0.4506,-1.79513 1.0311,-2.41162 1.6696,-1.77307 2.0691,2.06906 14.0725,25.18679 17.0018,32.74416 8.8967,22.95272 -0.8631,43.13249 -24.5914,50.84646 -11.2732,3.66487 -15.4166,4.6637 -15.9262,3.83924 z m -776.57387,-1.06046 c 0,-0.58246 0.45,-1.05902 1,-1.05902 0.55,0 1,0.19844 1,0.44098 0,0.24254 -0.45,0.7191 -1,1.05902 -0.55,0.33992 -1,0.14148 -1,-0.44098 z m 734.45897,-9.12555 c -0.3626,-0.58659 -0.5016,-1.19932 -0.309,-1.36162 1.0598,-0.89319 24.9268,-13.33451 28.3266,-14.76598 6.8906,-2.90134 16.5235,-2.06994 16.5235,1.42612 0,1.51383 -0.4134,1.80038 -1.75,1.21316 -0.9625,-0.42286 -3.4761,-0.97195 -5.5857,-1.2202 -4.4562,-0.52439 -7.2804,0.59731 -23.9011,9.49319 -6.4553,3.45502 -11.9412,6.28186 -12.191,6.28186 -0.2498,0 -0.7508,-0.47994 -1.1133,-1.06653 z M 328.21933,511.65175 c -6.75362,-2.12871 -17.07359,-14.84361 -21.05619,-25.94264 -0.74007,-2.0625 -1.81769,-3.74918 -2.3947,-3.74819 -2.80837,0.005 -39.10567,-4.22637 -39.48244,-4.60252 -0.23834,-0.23794 0.0768,-0.94272 0.70022,-1.56618 0.84475,-0.84475 5.4139,-0.70888 17.93333,0.53324 9.23988,0.91675 17.81228,1.65935 19.04978,1.65023 2.20741,-0.0163 2.25,-0.24371 2.25,-12.01658 0,-10.76891 -0.17953,-11.99811 -1.75,-11.9816 -0.9625,0.0101 -6.7,1.59897 -12.75,3.53078 -10.74523,3.43104 -28.22913,7.45082 -32.40708,7.45082 -3.70185,0 -2.36797,-2.86199 1.65708,-3.55546 15.59239,-2.68638 43.88473,-10.66631 46.23947,-13.04195 0.49205,-0.49643 1.19025,-3.15259 1.55156,-5.90259 0.75871,-5.77485 3.96685,-15.86176 11.77116,-37.01051 3.04655,-8.25578 6.58101,-18.94328 7.85435,-23.75 2.39119,-9.02647 2.5095,-9.23234 4.55783,-7.931 1.5765,1.00158 -2.75776,16.77807 -9.25602,33.69151 -8.33769,21.70103 -13.0913,38.5 -10.89436,38.5 0.31569,0 9.18288,-4.6125 19.70486,-10.25 10.52198,-5.6375 19.48869,-10.4 19.92601,-10.58333 0.43733,-0.18334 0.79514,0.50419 0.79514,1.52784 0,1.39417 -4.70481,4.36343 -18.75,11.83334 -10.3125,5.48468 -19.9875,10.32252 -21.5,10.75074 -1.5125,0.42823 -2.77919,1.32823 -2.81487,2 -0.69943,13.17003 -0.79746,26.45364 -0.20123,27.26876 0.42136,0.57605 5.4911,2.52533 11.2661,4.33174 11.54206,3.61034 23.026,7.83089 31.47737,11.56848 3.08883,1.36603 5.73604,2.01613 6.06201,1.48872 0.86353,-1.39723 3.46062,-1.13043 3.46062,0.3555 0,1.48086 -6.91719,8.31395 -11.80001,11.65655 -3.41129,2.33525 -12.18959,5.09606 -15.69999,4.9377 -1.1,-0.0496 -3.575,-0.58665 -5.5,-1.1934 z m 14.72829,-4.22358 c 4.24051,-1.7718 10.27171,-6.15727 10.27171,-7.46887 0,-1.48142 -11.69712,-6.54777 -25,-10.8282 -19.06645,-6.13495 -17.32147,-5.91211 -16.48532,-2.10515 0.39453,1.79626 1.11703,3.75356 1.60558,4.34954 0.48854,0.59599 2.34884,3.31865 4.134,6.05036 1.78516,2.73171 5.19322,6.44421 7.57348,8.25 3.54162,2.68687 5.22768,3.28326 9.28212,3.28326 2.72491,0 6.6032,-0.68892 8.61843,-1.53094 z m 184.27171,1.58996 c 0,-0.58246 0.45,-1.05902 1,-1.05902 0.55,0 1,0.19844 1,0.44098 0,0.24254 -0.45,0.7191 -1,1.05902 -0.55,0.33992 -1,0.14148 -1,-0.44098 z m 403.03181,-8.63744 c -0.018,-0.59312 -3.8955,-5.31812 -8.6178,-10.5 -8.9239,-9.79234 -34.94284,-41.84229 -44.63254,-54.97825 -22.3713,-30.32759 -33.487,-53.82663 -37.3424,-78.94333 -1.7447,-11.36653 -2.0001,-38.08135 -0.4801,-50.23003 2.6139,-20.89095 -6.9192,-70.3068 -24.007,-124.44417 -9.7242,-30.80793 -26.8629,-78.35354 -33.3477,-92.511728 -1.4323,-3.12726 -2.6043,-6.164755 -2.6043,-6.749997 0,-2.32924 2.8617,-0.872969 4.2956,2.185923 4.9023,10.458594 12.3876,29.730372 18.1578,46.750002 3.6362,10.725 7.691,22.425 9.0108,26 13.8436,37.50005 27.0366,88.99469 31.0003,121 1.8982,15.32671 2.0064,20.94185 0.6265,32.5 -3.4752,29.10691 1.4966,61.11737 12.9323,83.26454 5.6378,10.91856 14.3701,25.08895 22.228,36.07084 13.5478,18.93373 52.99254,66.38929 54.09794,65.08464 0.1957,-0.23101 0.7819,-1.21521 1.3027,-2.18712 0.7309,-1.36411 0.9355,-0.8714 0.8975,2.16054 -0.027,2.16019 -0.2299,3.74988 -0.4505,3.53264 -0.2206,-0.21725 -0.9938,0.38551 -1.7182,1.33946 -0.7244,0.95395 -1.3314,1.24917 -1.3489,0.65604 z M 743.1082,491.46398 c -8.6531,-4.5076 -19.5434,-19.81591 -21.4941,-30.21395 l -0.6173,-3.29092 -16.4621,0 c -15.1398,0 -16.4349,-0.14056 -16.125,-1.75 0.4024,-2.08967 -0.5363,-1.96908 16.5596,-2.12704 l 13.75,-0.12705 0.017,-13.99795 c 0.02,-16.46983 0.8138,-15.79833 -12.2814,-10.39054 -13.9443,5.75844 -17.5247,7.075 -21.0568,7.74298 -2.7568,0.52135 -3.2665,0.34355 -2.9989,-1.0461 0.1994,-1.03529 2.0393,-2.12284 4.8213,-2.84979 2.4744,-0.64657 9.9642,-3.48835 16.6441,-6.31505 6.6799,-2.8267 12.8771,-5.13946 13.7715,-5.13946 2.1883,0 3.3441,-3.16661 4.1061,-11.25 0.4588,-4.86657 1.0326,-6.75 2.0567,-6.75 1.0694,0 1.4204,1.48276 1.4204,6 0,3.3 0.1877,6 0.417,6 0.4176,0 7.7866,-3.84816 21.2922,-11.11892 7.8063,-4.20253 9.2908,-4.60628 9.2908,-2.52682 0,0.74485 -6.8625,4.95978 -15.25,9.36652 -11.583,6.08567 -15.6063,8.7056 -16.7319,10.89574 -2.0606,4.00944 -2.7251,28.16862 -0.8408,30.56729 0.9364,1.19197 4.6818,2.16081 12.8227,3.31685 16.0478,2.27885 27.2416,5.65779 25.271,7.62832 -0.7395,0.73955 -3.5519,0.43415 -9.4128,-1.02215 -4.597,-1.14225 -12.5581,-2.69116 -17.6914,-3.44203 l -9.3332,-1.3652 0.674,3.6002 c 1.993,10.64705 13.8347,25.62442 22.254,28.14692 8.8559,2.65328 20.4341,-4.16475 21.8231,-12.85085 0.7859,-4.91477 3.4153,-5.88558 3.4153,-1.26097 0,4.29305 -1.4072,7.31851 -5.1407,11.05194 -7.129,7.12905 -16.6508,8.85187 -24.9704,4.51803 z m 574.1174,-26.3004 c 0,-0.71254 -2.767,-5.88754 -6.1412,-11.5 -15.2439,-25.35539 -35.515,-71.50864 -41.9432,-95.49628 -3.9805,-14.85367 -5.0179,-21.77898 -4.986,-33.28598 0.042,-15.2972 1.5408,-22.47836 9.9043,-47.46063 14.5864,-43.571 17.4207,-58.66914 17.3573,-92.46158 -0.057,-30.22083 -5.1506,-71.5311 -12.1187,-98.279868 -13.2,-50.670657 -15.1681,-59.030709 -14.1395,-60.059374 0.665,-0.664964 1.3725,-0.706292 1.8962,-0.11076 1.1976,1.361887 19.2122,72.396035 20.7829,81.950002 5.3839,32.74779 7.7094,60.56295 7.0647,84.5 -0.7995,29.68362 -3.9025,44.80659 -17.6463,86 -8.6815,26.02075 -9.4447,29.68503 -9.4772,45.5 -0.032,15.73466 1.5686,23.9007 8.9197,45.5 6.8124,20.01608 14.1302,37.32403 24.7803,58.60963 9.9929,19.97203 15.9325,29.99103 17.5718,29.64037 1.6038,-0.34307 1.4652,1.95293 -0.3251,5.38569 -0.8217,1.57537 -1.4967,2.28132 -1.5,1.56878 z M 73.641452,461.86433 c -7.38444,-1.72908 -14.494,-11.95577 -12.30825,-17.70472 0.49635,-1.30549 2.87607,-4.93849 5.28827,-8.07332 10.00144,-12.99763 7.01642,-23.28378 -4.36445,-15.03953 -2.84307,2.05952 -4.59554,2.7545 -5.2629,2.08714 -0.55029,-0.55029 -0.69238,-1.49911 -0.31577,-2.10849 1.03993,-1.68263 10.79628,-7.04625 12.83644,-7.05692 3.28526,-0.0172 6.70454,4.51162 6.70454,8.88007 0,5.47825 -1.16283,8.09081 -6.97824,15.67819 -2.76197,3.60355 -5.02176,7.18474 -5.02176,7.9582 0,2.56947 3.12807,7.94738 5.76233,9.90684 3.6003,2.67804 12.14654,3.25961 17.51355,1.19178 2.32326,-0.89511 5.91162,-3.23014 7.97412,-5.18895 5.449798,-5.17581 5.190338,-8.58567 -1.22535,-16.10406 -5.77001,-6.76173 -6.92972,-10.30119 -4.56014,-13.91763 2.1103,-3.22072 3.04887,-3.564 21.535488,-7.87651 44.4159,-10.36123 63.75193,-19.98612 101.5,-50.52362 8.34225,-6.74872 27.52045,-20.19828 36.22916,-25.40728 16.7723,-10.03215 36.23513,-17.42144 57.94851,-22.00084 19.65795,-4.14591 28.52201,-8.04096 37.67213,-16.55389 8.70291,-8.09686 12.51925,-18.55764 13.33491,-36.55168 0.29918,-6.6 1.6e-4,-17.625 -0.66448,-24.5 -0.66465,-6.875 -1.55667,-23.75 -1.98228,-37.5 -0.72233,-23.33595 -0.95482,-25.55827 -3.49277,-33.38729 -2.1999,-6.7862 -2.46373,-8.54703 -1.38206,-9.22407 0.96687,-0.60518 1.82157,0.29066 3.08809,3.2367 3.98417,9.26754 4.98915,16.86957 5.80017,43.87466 0.43772,14.575 1.31038,31.45 1.93924,37.5 2.74614,26.41946 -2.13502,47.6719 -13.39488,58.32101 -10.24536,9.68963 -18.51923,13.32427 -42.59574,18.71192 -35.87963,8.02886 -56.28336,19.09261 -102,55.30863 -18.40535,14.58043 -31.60213,22.36737 -50.18326,29.61129 -13.45574,5.24577 -31.59385,10.64134 -47.09694,14.00998 -17.005408,3.69508 -17.124038,4.0647 -5.969798,18.60164 4.483558,5.84326 4.371738,9.68814 -0.43654,15.01033 -6.68189,7.39605 -16.99517,10.91346 -25.89134,8.83042 z m 869.577888,-9.8462 c 0,-1.06754 0.385,-2.17893 0.8556,-2.46974 0.4705,-0.29082 0.6431,0.58263 0.3834,1.94098 -0.564,2.95046 -1.239,3.23851 -1.239,0.52876 z m -477.3914,-2.94566 c -3.03433,-3.16715 -17.33929,-10.45923 -30.01128,-15.2985 -20.11642,-7.6822 -33.60821,-15.35448 -44.43937,-25.271 -3.47801,-3.18432 -8.25865,-6.27126 -12.40796,-8.01204 -3.7125,-1.55752 -6.75,-3.22847 -6.75,-3.71322 0,-3.83401 14.03177,1.9372 21,8.63722 9.1104,8.75973 23.34734,17.13775 40.51888,23.84415 4.93962,1.92919 11.62456,4.69497 14.85542,6.14618 3.23087,1.45122 6.04839,2.46449 6.26116,2.25172 0.21277,-0.21277 -2.88067,-3.24917 -6.8743,-6.74757 -21.53437,-18.86394 -36.0543,-35.06438 -43.1936,-48.19275 -3.69148,-6.78821 -6.56756,-15.49412 -6.56756,-19.88003 0,-3.76377 -1.81328,-4.59077 -3.80619,-1.73593 -2.62869,3.76561 -6.3413,6.85841 -8.23284,6.85841 -0.96085,0 -1.99202,0.63854 -2.29151,1.41899 -0.29948,0.78044 -3.16013,2.94677 -6.35699,4.81406 -3.19686,1.8673 -6.35061,4.47231 -7.00833,5.78892 -1.56827,3.13929 -4.77109,4.32525 -6.39537,2.3681 -1.01691,-1.22529 -0.89385,-1.58121 0.68989,-1.99537 1.06016,-0.27724 2.67351,-1.80381 3.58523,-3.3924 0.91172,-1.58858 3.8539,-4.00123 6.53817,-5.36146 2.77869,-1.40807 5.3875,-3.58588 6.05778,-5.05699 0.87099,-1.91161 1.92983,-2.58385 4.06982,-2.58385 2.18465,0 3.47472,-0.85543 5.27144,-3.49543 1.30839,-1.92249 3.77658,-4.16284 5.48486,-4.97857 8.94805,-4.2728 13.94791,-41.09229 9.98438,-73.526 -0.90736,-7.425 -4.3487,-27.04211 -7.64742,-43.59359 -6.19242,-31.07077 -7.76801,-36.17058 -18.19925,-58.90641 -5.39307,-11.75468 -20.84678,-41.90173 -22.33894,-43.57874 -0.7726,-0.86831 -1.40473,-1.93923 -1.40473,-2.37983 0,-0.79912 -12.44156,-22.60817 -20.66351,-36.221467 -2.38507,-3.949011 -4.33649,-7.388371 -4.33649,-7.643011 0,-0.25464 0.65631,-0.71483 1.45846,-1.02264 1.6795,-0.64449 5.19723,4.79157 20.28409,31.345688 13.18266,23.20256 20.82071,37.75699 28.07638,53.5 13.26668,28.78541 13.92963,30.83164 20.24887,62.5 8.66707,43.43431 9.3357,48.52262 9.32976,71 -0.006,21.37275 -0.85451,27.00746 -6.57502,43.64445 l -3.14426,9.14445 1.75132,7.35555 c 2.10025,8.82104 6.47852,17.17693 14.46855,27.6131 6.78825,8.86646 23.76417,25.75128 35.85185,35.65946 4.5375,3.71935 8.25,7.27043 8.25,7.89128 0,0.62085 2.30372,3.46152 5.11938,6.31259 2.82031,2.85579 4.81472,5.67673 4.44098,6.28145 -1.03722,1.67826 -1.94369,1.35077 -4.95175,-1.78897 z m 477.3914,-1.72101 c 0,-0.82763 1.9418,-1.29565 2.3869,-0.57533 0.2889,0.46731 -0.13,0.84965 -0.9309,0.84965 -0.8008,0 -1.456,-0.12345 -1.456,-0.27432 z M 848.6658,427.45911 c -2.5678,-3.13369 -4.4408,-4.5 -6.1688,-4.5 -6.3774,0 -60.4047,-26.14088 -72.6336,-35.14349 -6.4241,-4.72927 -6.8172,-5.24059 -6.2417,-8.11832 1.148,-5.74023 5.3043,-9.72075 14.5448,-13.92977 8.813,-4.01429 10.9188,-5.99285 12.011,-11.2852 0.5174,-2.50694 1.3383,-3.18125 5.2014,-4.27235 l 4.5872,-1.29558 0.626,-5.72765 c 1.6712,-15.28918 3.6504,-39.55689 4.6,-56.40076 2.5821,-45.80399 -4.5968,-89.55871 -20.9727,-127.82688 -3.0868,-7.21329 -8.9349,-24.12499 -14.5238,-42 -1.4618,-4.675 -4.1761,-11.79174 -6.0319,-15.81496 -3.1755,-6.884008 -3.2521,-7.296398 -1.3004,-6.999998 2.5699,0.3903 8.9914,14.951348 13.81,31.314958 3.82,12.97257 6.4546,20.43123 12.0066,33.99135 20.6988,50.55466 25.2078,96.31396 16.9934,172.45507 l -1.8938,17.55358 6.7199,13.41512 c 7.2132,14.39984 16.6168,29.32574 25.5693,40.58488 3.0613,3.85 7.9981,10.6 10.9708,15 2.9726,4.4 6.356,8.84764 7.5187,9.88365 1.1627,1.036 1.873,2.2735 1.5785,2.75 -1.1534,1.86636 -3.4412,0.67383 -6.9709,-3.63365 z m -6.4465,-9.06357 c 0,-0.30997 -3.7217,-5.37247 -8.2706,-11.25 -10.4131,-13.45485 -18.6884,-26.35075 -26.7499,-41.68643 -3.4695,-6.6 -6.427,-12.15532 -6.5723,-12.34516 -0.1453,-0.18984 -1.5945,-0.053 -3.2205,0.30416 -2.3144,0.50833 -3.3063,1.56566 -4.568,4.86946 -1.8098,4.73892 -6.8496,8.59106 -14.6135,11.16981 -5.2322,1.73788 -9.5346,5.67385 -10.5073,9.61261 -0.5621,2.276 -0.026,3.05816 4.1786,6.09797 2.653,1.9179 9.3235,6.0079 14.8235,9.08889 8.9528,5.01516 16.7382,8.73942 44,21.04795 7.4297,3.35443 11.5,4.44838 11.5,3.09074 z m 301.0001,0.6795 c -11.5177,-1.82314 -21.9942,-11.01628 -27.4826,-24.11593 -1.037,-2.475 -2.2129,-4.88783 -2.6132,-5.36185 -0.9338,-1.1057 -19.6237,-3.58817 -27.2275,-3.61648 -4.9147,-0.0183 -5.7727,-0.28448 -5.499,-1.70597 0.2704,-1.40422 1.4051,-1.64361 6.8233,-1.43961 3.5745,0.13459 9.424,0.65861 12.999,1.1645 12.5028,1.76923 11.6248,2.39768 12.2809,-8.79059 0.3145,-5.3625 1.1069,-11.23547 1.761,-13.05105 0.6542,-1.81557 0.9115,-3.57884 0.572,-3.91836 -0.3395,-0.33952 -6.579,1.24564 -13.8656,3.52259 -13.4268,4.19569 -27.572,8.19682 -28.9782,8.19682 -0.4236,0 -0.7701,-0.61358 -0.7701,-1.3635 0,-0.87104 3.5214,-2.35161 9.75,-4.09931 12.0694,-3.38662 33.3373,-10.27032 34.938,-11.30825 0.8726,-0.56581 21.312,-58.99422 21.312,-60.92282 0,-0.16836 0.675,-0.30612 1.5,-0.30612 0.825,0 1.5042,0.5625 1.5093,1.25 0.01,0.6875 -4.1293,13.50312 -9.1875,28.47915 -5.0583,14.97603 -8.9336,27.49241 -8.6118,27.81418 0.7148,0.71484 12.6572,-5.22799 22.4414,-11.1674 7.5607,-4.58962 9.3566,-5.19092 9.3363,-3.12593 -0.013,1.35635 -9.798,7.34349 -24.9229,15.25 -9.5541,4.9944 -9.5662,5.0056 -10.8268,10 -2.0878,8.27182 -3.124,17.75837 -2.3992,21.96338 l 0.6832,3.96338 7.9806,1.81943 c 9.8766,2.25169 21.0201,5.68437 33.7474,10.39564 10.9488,4.05292 11.6898,5.18387 7.4852,11.42313 -5.1139,7.58855 -12.7555,10.63067 -22.7352,9.05097 z m 14.6551,-5.41629 c 3.0381,-2.0301 6.3449,-6.45365 6.3449,-8.48779 0,-0.89703 -2.603,-2.06252 -14.796,-6.62497 -8.5621,-3.20383 -30.1763,-8.44069 -30.7834,-7.45846 -1.0119,1.63733 4.2572,11.11042 8.7268,15.6895 5.109,5.23417 8.6308,7.19035 15.8526,8.80511 6.5052,1.45453 10.3562,0.94911 14.6551,-1.92339 z m 106.0154,-15.94964 c -1.9049,-2.3375 -5.0853,-7.2129 -7.0676,-10.83423 -2.6549,-4.8501 -4.9868,-7.55013 -8.8536,-10.25159 -2.8871,-2.01705 -6.9845,-5.23986 -9.1053,-7.1618 -2.1207,-1.92194 -7.9707,-5.81016 -13,-8.64049 -13.7221,-7.72249 -19.8762,-12.17997 -25.45,-18.4336 -6.359,-7.13462 -5.8918,-9.69897 2.4381,-13.3837 3.36,-1.48629 4.3679,-2.47139 4.3679,-4.26912 0,-1.68905 0.8493,-2.65755 3.0631,-3.49317 1.9107,-0.72122 3.4855,-2.27548 4.1861,-4.13146 0.769,-2.03747 1.9983,-3.15034 3.8999,-3.53066 2.1097,-0.42194 2.9766,-1.3441 3.6079,-3.83778 0.5912,-2.33541 1.828,-3.77193 4.287,-4.97916 5.2765,-2.59057 5.956,-3.52999 5.956,-8.23461 0,-7.27199 3.2174,-21.5666 13.8577,-61.56863 7.3683,-27.70059 9.0437,-47.28987 7.3125,-85.5 -0.7594,-16.76401 -1.6241,-25.08986 -3.633,-34.98263 -3.6975,-18.208397 -10.6406,-46.164871 -16.1473,-65.017372 -5.7763,-19.775212 -6.1029,-21.5 -4.0708,-21.5 0.8504,0 1.7826,0.7875 2.0716,1.75 8.6495,28.808067 17.2382,62.526294 21.4601,84.250002 2.5494,13.11802 3.1707,19.49557 4.0431,41.5 1.3771,34.73595 -0.2877,52.48956 -7.4551,79.5 -13.3248,50.21481 -15.9678,64.72134 -13.0984,71.89269 0.8541,2.13452 2.0566,7.86937 2.6724,12.74413 1.9181,15.18475 4.0131,27.42442 4.9944,29.17919 0.5179,0.9262 3.1781,7.38282 5.9114,14.34806 6.2396,15.90006 10.7198,24.8245 15.9685,31.80902 2.2621,3.0102 4.1129,5.8227 4.1129,6.25 0,2.09916 -3.2352,0.32393 -6.3295,-3.47309 z m -19.4786,-39.3895 c -4.9551,-13.00199 -6.259,-18.54557 -8.1996,-34.8605 -1.0572,-8.88718 -2.5555,-15.25451 -3.9503,-16.78716 -1.4967,-1.64462 -6.0066,1.26674 -7.5004,4.84179 -0.8332,1.99409 -2.4049,3.85838 -3.4928,4.14286 -1.0879,0.28448 -2.9053,2.08905 -4.0388,4.01015 -1.1335,1.9211 -2.8619,3.70239 -3.841,3.95843 -0.9791,0.25603 -2.2556,1.72498 -2.8366,3.26432 -0.7579,2.00781 -2.3672,3.2994 -5.6944,4.57007 -6.3951,2.44232 -6.2498,4.91225 0.6913,11.74978 4.7398,4.66901 9.1638,7.59647 25.6707,16.98687 2.475,1.40797 7.4134,4.89041 10.9742,7.73876 3.5608,2.84835 6.6193,4.74374 6.7965,4.21198 0.1773,-0.53177 -1.8832,-6.75407 -4.5788,-13.82735 z"
     id="path2987"
     style="fill:#000000" />
  <path
     d="m 454.3829,953.64312 84.14498,-503"
     id="path2989"
     style="fill:none;stroke:#000000;stroke-width:3.5;stroke-linecap:butt;stroke-linejoin:miter;stroke-miterlimit:4;stroke-opacity:1;stroke-dasharray:14,14;stroke-dashoffset:0" />
  <path
     d="M 830.30108,962.92197 945.15803,446.97395"
     id="path2991"
     style="fill:none;stroke:#000000;stroke-width:3.5;stroke-linecap:butt;stroke-linejoin:miter;stroke-miterlimit:4;stroke-opacity:1;stroke-dasharray:14,14;stroke-dashoffset:0" />
  <path
     d="M 1326.1961,437.57762 1193.0125,952.68446"
     id="path2993"
     style="fill:none;stroke:#000000;stroke-width:3.5;stroke-linecap:butt;stroke-linejoin:miter;stroke-miterlimit:4;stroke-opacity:1;stroke-dasharray:14,14;stroke-dashoffset:0" />
  <text
     x="487.87878"
     y="916.10101"
     id="text3763"
     xml:space="preserve"
     style="font-size:40px;font-style:normal;font-weight:normal;line-height:125%;letter-spacing:0px;word-spacing:0px;fill:#000000;fill-opacity:1;stroke:none;font-family:Bitstream Vera Sans"><tspan
       x="487.87878"
       y="916.10101"
       id="tspan3765"
       style="font-size:32px;font-style:normal;font-variant:normal;font-weight:normal;font-stretch:normal;font-family:cmr10;-inkscape-font-specification:cmr10">A</tspan></text>
  <text
     x="873.87878"
     y="916.10101"
     id="text3763-1"
     xml:space="preserve"
     style="font-size:40px;font-style:normal;font-weight:normal;line-height:125%;letter-spacing:0px;word-spacing:0px;fill:#000000;fill-opacity:1;stroke:none;font-family:Bitstream Vera Sans"><tspan
       x="873.87878"
       y="916.10101"
       id="tspan3765-5"
       style="font-size:32px;font-style:normal;font-variant:normal;font-weight:normal;font-stretch:normal;font-family:cmr10;-inkscape-font-specification:cmr10">B</tspan></text>
  <text
     x="1267.8788"
     y="916.10101"
     id="text3763-5"
     xml:space="preserve"
     style="font-size:40px;font-style:normal;font-weight:normal;line-height:125%;letter-spacing:0px;word-spacing:0px;fill:#000000;fill-opacity:1;stroke:none;font-family:Bitstream Vera Sans"><tspan
       x="1267.8788"
       y="916.10101"
       id="tspan3765-4"
       style="font-size:32px;font-style:normal;font-variant:normal;font-weight:normal;font-stretch:normal;font-family:cmr10;-inkscape-font-specification:cmr10">C</tspan></text>
</svg>
