<?xml version="1.0" encoding="UTF-8" standalone="no"?>
<!-- Created with Inkscape (http://www.inkscape.org/) -->

<svg
   xmlns:dc="http://purl.org/dc/elements/1.1/"
   xmlns:cc="http://creativecommons.org/ns#"
   xmlns:rdf="http://www.w3.org/1999/02/22-rdf-syntax-ns#"
   xmlns:svg="http://www.w3.org/2000/svg"
   xmlns="http://www.w3.org/2000/svg"
   version="1.1"
   width="374.7619"
   height="373.27982"
   id="svg4458">
  <defs
     id="defs4460" />
  <metadata
     id="metadata4463">
    <rdf:RDF>
      <cc:Work
         rdf:about="">
        <dc:format>image/svg+xml</dc:format>
        <dc:type
           rdf:resource="http://purl.org/dc/dcmitype/StillImage" />
        <dc:title></dc:title>
      </cc:Work>
    </rdf:RDF>
  </metadata>
  <g
     transform="translate(-116.09523,-174.17174)"
     id="layer1">
    <path
       d="m 285.82143,547.22449 c -7.13541,0.688 -8.1924,0.031 -8.12564,-5.0476 0.0681,-5.1807 0.36656,-5.3409 2.64922,-1.4218 1.41486,2.4291 4.21961,4.4166 6.23278,4.4166 2.01317,0 3.6603,-1.5212 3.6603,-3.3806 0,-1.8593 -2.83928,-4.6742 -6.30952,-6.2554 -3.64753,-1.6619 -6.30953,-4.9898 -6.30953,-7.8877 0,-2.7571 2.08782,-6.1303 4.63959,-7.496 2.55177,-1.3657 7.09463,-1.841 10.09524,-1.0563 3.29082,0.8605 5.45565,3.4237 5.45565,6.4595 0,4.7756 -0.23719,4.74 -4.63888,-0.6959 -2.62816,-3.2456 -5.91,-4.9432 -7.57143,-3.9164 -1.6129,0.9969 -2.93255,3.2667 -2.93255,5.0441 0,1.7774 2.91684,4.5606 6.48186,6.185 4.64975,2.1186 6.25481,4.5515 5.67857,8.6075 -0.61452,4.3255 -2.73076,5.84 -9.00566,6.445 z m 32.80952,0 c -6.11049,0.5892 -8.20238,-0.2208 -8.20238,-3.1762 0,-3.3185 0.81484,-3.4581 4.98463,-0.854 3.95151,2.4678 5.62969,2.4679 8.09702,5e-4 2.46733,-2.4673 1.44821,-3.7405 -4.91716,-6.1432 -4.41626,-1.6669 -8.59213,-4.4968 -9.27972,-6.2887 -0.68759,-1.7918 -0.63014,-4.8736 0.12768,-6.8484 0.7578,-1.9748 2.88405,-4.1686 4.72498,-4.875 1.84093,-0.7064 5.72812,-0.6618 8.6382,0.099 2.91007,0.761 5.29104,3.1308 5.29104,5.2662 0,3.3077 -0.72371,3.2276 -4.88859,-0.5416 -2.68872,-2.4333 -6.09586,-3.678 -7.57143,-2.766 -1.47556,0.9119 -2.68284,3.1835 -2.68284,5.0479 0,1.8645 3.49008,4.6066 7.75575,6.0936 6.04668,2.1078 7.57609,3.9697 6.94047,8.4492 -0.62802,4.426 -2.69918,5.9273 -9.01765,6.5365 z m -52.63418,-2.0528 c -2.51067,0 -2.93287,-2.1355 -1.62168,-8.2023 0.975,-4.5114 1.79839,-11.3382 1.82977,-15.1708 0.0389,-4.7517 1.12622,-6.5581 3.41822,-5.6786 1.84865,0.7094 4.68793,1.3072 6.30952,1.3285 1.8883,0.025 1.71527,0.8199 -0.48125,2.2116 -1.88628,1.1952 -4.02148,7.4242 -4.74489,13.8423 -0.83863,7.4403 -2.54544,11.6693 -4.70969,11.6693 z m 75.34847,0 c -3.26106,0 -4.58529,-2.3649 -5.06114,-9.0245 -0.35446,-4.9607 -1.81406,-11.2048 -3.24356,-13.8759 -1.4295,-2.671 -2.08416,-4.8564 -1.4548,-4.8564 0.62936,0 2.65681,-0.5736 4.50546,-1.2747 2.41584,-0.9161 3.53247,1.7041 3.9702,9.3162 0.33496,5.8249 1.75461,11.7364 3.15476,13.1365 1.40016,1.4002 2.54574,3.4544 2.54574,4.5648 0,1.1105 -1.9875,2.0168 -4.41666,2.014 z m 15.59125,-4.0899 c -2.8766,0.8947 -5.99981,0.8571 -6.94048,-0.083 -0.94066,-0.9407 -1.7103,-2.5505 -1.7103,-3.5773 0,-1.0268 2.27143,-1.2729 5.04762,-0.5469 3.27911,0.8575 5.04762,0.078 5.04762,-2.2264 0,-1.9506 -2.14025,-7.7444 -4.75611,-12.8753 l -4.75611,-9.3288 9.06097,-2.5019 c 6.27967,-1.7339 9.57548,-1.6694 10.73711,0.2102 0.92187,1.4917 3.81146,2.2699 6.42133,1.7294 2.99458,-0.6202 4.55457,-2.8637 4.22847,-6.0812 -0.33173,-3.273 2.0883,-6.6373 6.75911,-9.3964 6.88675,-4.0681 7.35277,-4.0598 8.71436,0.1542 0.79119,2.4487 4.19541,7.8594 7.56497,12.0237 l 6.12647,7.5714 2.2862,-6.0836 c 1.82799,-4.8643 2.59533,-5.2779 3.82877,-2.0636 1.09624,2.8567 -1.51684,5.8267 -9.03085,10.2642 -5.81539,3.4343 -11.42882,5.7156 -12.47428,5.0694 -1.04549,-0.6461 -1.90088,-2.1371 -1.90088,-3.3134 0,-1.1762 2.27142,-1.5446 5.04762,-0.8186 2.77619,0.726 5.04761,0.3155 5.04761,-0.9123 0,-1.2277 -2.90018,-6.5003 -6.44487,-11.7168 -3.54863,-5.2222 -7.66166,-8.7325 -9.15247,-7.8111 -1.68962,1.0443 -2.20316,7.2365 -1.36589,16.4701 0.73794,8.1382 0.53649,14.7967 -0.44767,14.7967 -0.98416,0 -5.64213,-3.975 -10.351,-8.8334 -4.70887,-4.8583 -10.04239,-8.8333 -11.85223,-8.8333 -1.80985,0 -3.29063,1.5341 -3.29063,3.4091 0,1.875 1.24682,6.9857 2.7707,11.3571 1.52389,4.3715 3.79532,7.9481 5.04763,7.9481 1.25229,0 2.27691,-1.1357 2.27691,-2.5238 0,-1.3881 1.13571,-2.5238 2.52381,-2.5238 1.38809,0 2.52381,1.1638 2.52381,2.5862 0,1.4225 -2.55536,3.5423 -5.67857,4.7106 -3.12322,1.1684 -8.03216,2.8564 -10.90875,3.7511 z m 23.0458,-21.1431 c 0.61212,0 1.11295,-1.1357 1.11295,-2.5238 0,-1.3881 -1.20275,-2.5238 -2.67277,-2.5238 -1.47002,0 -1.97084,1.1357 -1.11295,2.5238 0.8579,1.3881 2.06064,2.5238 2.67277,2.5238 z m -133.27991,20.0197 c -1.73512,-0.094 -5.71012,-1.4033 -8.83334,-2.9095 -3.12321,-1.5063 -5.67857,-4.2017 -5.67857,-5.9898 0,-1.7881 1.13572,-3.953 2.52381,-4.8109 1.3881,-0.8579 2.52381,0.6572 2.52381,3.3668 0,2.7096 1.97755,5.6854 4.39457,6.6129 2.91957,1.1203 5.92657,-0.2057 8.95901,-3.9505 2.51045,-3.1003 4.22396,-8.5645 3.80782,-12.1426 -0.54218,-4.6617 -2.466,-6.7473 -6.78754,-7.3583 -5.09661,-0.7206 -5.80936,0 -4.60081,4.616 1.0867,4.1556 0.51573,5.1179 -2.3779,4.0075 -2.09439,-0.8037 -4.32291,-1.4613 -4.95227,-1.4613 -0.62935,0 0.0713,-2.2714 1.55712,-5.0476 1.54624,-2.8892 5.28441,-5.0476 8.74186,-5.0476 3.32225,0 7.82515,1.7846 10.00644,3.9659 2.18129,2.1813 3.96599,6.7242 3.96599,10.0953 0,3.3711 -2.27143,8.4007 -5.04762,11.1768 -2.77619,2.7762 -6.46726,4.9708 -8.20238,4.8769 z m -23.55556,-9.9631 c -1.27242,-0.021 -4.01706,-1.1396 -6.09921,-2.4852 -2.08214,-1.3456 -2.57642,-2.4639 -1.09839,-2.4852 1.47803,-0.02 4.60124,-4.0521 6.94048,-8.9576 2.33923,-4.9054 4.25315,-10.6239 4.25315,-12.7078 0,-3.1458 0.96266,-3.2737 5.67185,-0.7534 3.60806,1.931 4.50184,3.4255 2.45634,4.1073 -1.76854,0.5895 -5.40793,5.3693 -8.08753,10.6218 -2.67961,5.2525 -4.16353,10.2584 -3.2976,11.1243 0.86592,0.8659 0.53333,1.557 -0.73909,1.5358 z m -15.73647,-7.5328 c -1.30005,0 -3.77757,-1.7036 -5.50559,-3.7857 -1.90317,-2.2932 -2.10616,-3.7857 -0.51487,-3.7857 1.44485,0 5.07088,-3.9543 8.05785,-8.7873 2.98697,-4.833 4.65499,-10.0427 3.70672,-11.577 -0.94828,-1.5344 -3.86739,-2.2293 -6.48692,-1.5443 -2.61953,0.6851 -4.76278,0.2832 -4.76278,-0.893 0,-1.1763 1.14346,-2.8453 2.54103,-3.7091 1.39757,-0.8637 5.90817,0.8272 10.02355,3.7576 l 7.48252,5.328 -7.45383,10.2897 c -4.09961,5.6594 -6.83961,11.2836 -6.08889,12.4983 0.75072,1.2147 0.30126,2.2085 -0.99879,2.2085 z m 215.89714,-16.9725 c -1.76899,0.6788 -6.38549,-3.1747 -10.25893,-8.5633 -3.87342,-5.3886 -8.2437,-9.7975 -9.71175,-9.7975 -1.67328,0 -1.50383,-1.4042 0.45416,-3.7634 2.67237,-3.22 4.17693,-2.3089 10.42011,6.3095 4.01323,5.5401 8.42536,10.0729 9.80475,10.0729 1.37938,0 2.50798,1.0142 2.50798,2.2538 0,1.2396 -1.44735,2.8092 -3.21632,3.488 z m -231.46854,-11.7337 c -6.40645,6.8581 -10.58349,9.5662 -12.22432,7.9254 -1.64084,-1.6409 0.448,-5.0744 6.11308,-10.0484 4.73309,-4.1557 8.60562,-9.1418 8.60562,-11.0801 0,-1.9384 -1.41965,-3.6588 -3.15476,-3.8233 -1.73512,-0.1645 -4.68838,-0.089 -6.5628,0.1688 -1.87442,0.2574 -2.65917,-0.7438 -1.74391,-2.2247 0.91527,-1.481 3.1027,-2.6927 4.86096,-2.6927 1.75825,0 5.59107,2.5554 8.51737,5.6786 l 5.32054,5.6786 -9.73178,10.4178 z m 158.76531,4.5096 c -0.78382,0.7838 -3.24021,0.018 -5.45866,-1.7035 -2.21844,-1.7208 -6.46392,-7.5458 -9.43438,-12.9446 l -5.40086,-9.8158 7.09482,-7.8508 c 3.90215,-4.318 8.51446,-10.3908 10.24958,-13.4952 1.73512,-3.1044 3.15476,-6.1465 3.15476,-6.7602 0,-0.6137 -6.53035,-1.0014 -14.5119,-0.8615 -7.98155,0.1398 -11.95655,0.7056 -8.83334,1.2571 3.12322,0.5516 5.67858,1.9952 5.67858,3.2081 0,1.2128 -5.5855,2.078 -12.41221,1.9225 -7.79416,-0.1775 -14.82174,1.296 -18.8885,3.9607 -3.56196,2.3339 -7.19772,7.1178 -8.07946,10.6309 -0.88174,3.5132 -2.88728,5.96 -4.45674,5.4375 -1.56947,-0.5225 -3.23807,-2.9332 -3.70802,-5.3571 -0.46995,-2.424 -0.20675,-6.9878 0.58487,-10.1419 0.79163,-3.1541 5.78003,-8.7429 11.08535,-12.4194 7.41009,-5.1352 12.6859,-6.6847 22.76036,-6.6847 l 13.11435,0 0,-10.3653 c 0,-8.841 -0.64948,-10.1136 -4.41667,-8.654 -2.42917,0.9412 -9.24345,2.6196 -15.14286,3.7299 -5.8994,1.1103 -16.12083,1.0249 -22.71429,-0.1897 -6.59345,-1.2146 -16.52131,-5.3742 -22.06192,-9.2434 -5.5406,-3.8693 -12.62013,-11.5307 -15.73229,-17.0254 -3.11216,-5.4946 -5.66641,-11.1259 -5.67611,-12.514 -0.01,-1.3881 2.76363,2.1157 6.16296,7.7863 3.39933,5.6706 10.4868,13.2679 15.74994,16.8828 5.26313,3.615 14.96397,7.912 21.55742,9.549 9.19899,2.2839 14.77721,2.2852 23.9762,0.01 6.59345,-1.6338 16.30773,-5.7999 21.58729,-9.258 5.27956,-3.4581 12.94564,-11.5643 17.03572,-18.0137 4.09008,-6.4494 7.43651,-10.8907 7.43651,-9.8696 0,1.0211 -2.16742,6.0702 -4.81648,11.2203 -2.64907,5.15 -8.32764,12.6994 -12.61905,16.7764 -6.33636,6.0197 -7.80257,9.4301 -7.80257,18.1486 0,5.9048 1.06681,11.3954 2.37069,12.2012 1.30388,0.8059 7.03248,0.7197 12.73023,-0.1913 8.12947,-1.2999 11.20543,-3.2923 14.28895,-9.2551 2.73644,-5.2918 4.52246,-6.6391 5.88285,-4.4379 1.38567,2.2421 2.45526,2.3489 3.67981,0.3675 0.94949,-1.5363 3.9805,-2.7933 6.73562,-2.7933 3.37075,0 4.76675,-1.4447 4.26774,-4.4167 -0.53071,-3.1606 0.87329,-4.3596 4.93697,-4.2162 3.12322,0.1102 5.67858,-0.6746 5.67858,-1.7439 0,-1.0694 -1.14347,-2.651 -2.54103,-3.5148 -1.39758,-0.8637 -5.83181,0.7728 -9.85388,3.6368 -4.0221,2.8639 -8.55718,5.2072 -10.07803,5.2072 -1.52085,0 -2.76516,-1.1511 -2.76516,-2.5581 0,-1.4069 1.32447,-4.6789 2.94329,-7.271 2.40443,-3.8501 1.94235,-5.9854 -2.52381,-11.6632 -3.00692,-3.8227 -5.4671,-8.6322 -5.4671,-10.6879 0,-2.0557 1.86363,-9.5686 4.14142,-16.6954 2.27776,-7.1267 5.22951,-15.1099 6.55941,-17.7403 2.00062,-3.957 1.66617,-4.4941 -1.93748,-3.1113 -2.39553,0.9193 -5.91513,0.377 -7.82134,-1.205 -1.9062,-1.582 -3.46582,-3.9495 -3.46582,-5.2612 0,-1.3117 2.20226,-1.6859 4.89392,-0.8316 3.35689,1.0654 5.73483,-0.018 7.57143,-3.4497 1.47262,-2.7517 2.53537,-9.3366 2.3616,-14.6332 l -0.31588,-9.6302 -1.74042,10.6793 c -0.9572,5.8736 -2.46965,11.4086 -3.36095,12.2999 -0.89131,0.8913 -3.37313,0.948 -5.51513,0.1261 -2.32505,-0.8922 -3.89457,-4.5777 -3.89457,-9.1451 0,-6.8632 -0.8005,-7.6507 -7.77727,-7.6507 l -7.77727,0 5.25346,8.5003 c 2.8894,4.6751 5.25346,9.3884 5.25346,10.4739 0,1.0855 -3.29855,-2.5799 -7.33011,-8.1453 -4.03156,-5.5654 -11.12977,-12.4644 -15.77381,-15.3311 -4.64403,-2.8667 -13.83834,-6.5685 -20.43179,-8.226 -9.23905,-2.3227 -14.73715,-2.3313 -23.9762,-0.038 -6.59345,1.6369 -16.355,5.9761 -21.69233,9.6424 -5.33733,3.6664 -13.08322,12.3994 -17.21309,19.4066 -4.12987,7.0073 -6.83554,10.3455 -6.01259,7.4183 0.89889,-3.1974 0.0103,-6.5554 -2.22532,-8.4109 -2.04687,-1.6988 -5.87516,-2.4052 -8.50731,-1.5698 -2.63215,0.8355 -6.13632,4.4832 -7.78704,8.1061 -1.65071,3.623 -3.61865,5.9698 -4.3732,5.2153 -0.75454,-0.7545 -0.0521,-3.8379 1.56088,-6.8518 1.61302,-3.014 2.52394,-5.8888 2.02425,-6.3885 -0.49969,-0.4997 -2.32529,-0.033 -4.0569,1.0373 -1.73161,1.0702 -3.78095,7.5388 -4.5541,14.3747 -1.40506,12.423 -1.39809,12.4372 14.80579,30.0955 8.91634,9.7167 17.38331,19.9381 18.8155,22.7143 1.83288,3.5529 1.61564,11.0265 -0.73362,25.2381 l -3.3376,20.1905 1.36922,-19.7356 c 1.14573,-16.5143 0.64962,-20.5307 -3.03949,-24.6071 -2.42478,-2.6794 -5.36839,-4.8716 -6.54135,-4.8716 -1.17296,0 -2.13265,2.2714 -2.13265,5.0476 0,2.7762 0.99375,5.0476 2.20833,5.0476 1.21459,0 2.9295,3.6058 3.81092,8.0129 1.21341,6.0671 0.3707,9.3242 -3.47024,13.4127 -2.79005,2.9698 -5.07282,7.8819 -5.07282,10.9157 0,3.0337 1.18526,5.2319 2.6339,4.8849 1.44865,-0.347 4.86953,5.6109 7.60197,13.2398 3.01248,8.4109 3.96259,14.206 2.41371,14.7223 -1.40489,0.4683 -2.55434,1.6533 -2.55434,2.6334 0,0.9802 3.10653,1.7373 6.9034,1.6826 4.3772,-0.063 7.00719,1.2858 7.18702,3.6862 0.156,2.0821 0.4566,5.2054 0.66803,6.9405 0.21141,1.7351 3.45084,3.1547 7.19869,3.1547 4.92091,0 6.04938,0.765 4.06139,2.7529 -1.988,1.988 -6.68014,1.4621 -16.88705,-1.8928 -13.89878,-4.5684 -14.10899,-4.7815 -12.62379,-12.7951 1.13361,-6.1166 -0.13107,-10.9501 -5.0701,-19.378 -3.8654,-6.5958 -6.58045,-15.061 -6.58045,-20.5171 0,-8.3118 -0.59712,-9.1601 -5.67857,-8.0674 -3.12321,0.6716 -8.47961,0.4686 -11.9031,-0.4511 -5.30207,-1.4243 -6.89167,-0.3636 -10.72619,7.1576 -2.47592,4.8564 -4.50166,10.2932 -4.50166,12.0818 0,1.7887 -1.11682,3.2521 -2.48181,3.2521 -1.44099,0 -2.07535,-5.7523 -1.51261,-13.7163 0.53305,-7.544 1.71689,-14.9261 2.63075,-16.4048 0.91386,-1.4786 3.97076,-2.6884 6.79311,-2.6884 2.82235,0 7.82114,-2.1157 11.10842,-4.7014 l 5.97688,-4.7015 -5.74146,-5.3938 c -3.15781,-2.9666 -6.93475,-5.3938 -8.39321,-5.3938 -1.45845,0 -5.57931,-2.3028 -9.15744,-5.1174 -4.71533,-3.7091 -6.94028,-8.3973 -8.08484,-17.0357 -0.86853,-6.5551 -2.57401,-14.1898 -3.78997,-16.9659 -1.21596,-2.7762 -2.97995,-13.5109 -3.91997,-23.8547 -1.42176,-15.6448 -2.71837,-19.601 -7.71135,-23.5284 -3.30122,-2.5968 -5.92535,-7.1943 -5.83141,-10.2168 l 0.17081,-5.4954 2.7139,5.6231 c 1.49264,3.0926 4.9085,6.3196 7.59081,7.1709 2.6823,0.8513 5.43788,0.9869 6.1235,0.3013 0.68561,-0.6856 -0.14707,-3.4782 -1.85041,-6.2057 -1.93502,-3.0984 -2.29383,-6.7416 -0.95632,-9.71 1.8618,-4.1321 2.26618,-3.8274 3.10419,2.3391 0.54405,4.0034 2.2577,6.6678 3.93621,6.12 1.63498,-0.5336 4.32823,-4.8599 5.985,-9.6139 l 3.01232,-8.64381 0.14244,7.64081 c 0.0783,4.2024 -1.6369,10.1812 -3.81167,13.2861 -2.17477,3.1049 -5.51872,8.6611 -7.43101,12.347 -2.42597,4.6761 -2.72965,8.0979 -1.0047,11.321 1.35971,2.5407 3.79509,4.6193 5.41197,4.6193 2.18783,0 2.16511,-0.7746 -0.0888,-3.0285 -1.66571,-1.6657 -3.02857,-5.1929 -3.02857,-7.8381 0,-2.6452 2.83928,-8.1837 6.30952,-12.3079 3.47024,-4.1241 6.30953,-8.8417 6.30953,-10.4834 0,-1.6417 2.12909,-4.3146 4.73131,-5.9397 3.34391,-2.0883 4.36098,-4.892 3.46842,-9.56117 -0.84715,-4.43156 0.16283,-7.64891 3.06802,-9.77323 3.97307,-2.90518 3.99451,-3.44601 0.25951,-6.54579 -3.46735,-2.87764 -3.85007,-2.80221 -2.57965,0.50846 0.82046,2.13807 0.1063,4.74365 -1.587,5.79017 -1.815,1.12173 -4.5201,-0.0684 -6.59022,-2.89948 -1.93132,-2.64123 -4.21974,-4.23438 -5.08539,-3.54034 -0.86564,0.69405 -1.97899,0.0466 -2.4741,-1.43873 -0.49512,-1.48534 1.40073,-5.35364 4.213,-8.59622 4.90384,-5.65417 5.44882,-5.73359 13.30894,-1.93944 4.50765,2.17589 12.65233,4.90847 18.09929,6.07242 5.44696,1.16394 10.36838,3.5359 10.93651,5.27102 0.56812,1.73512 -0.88839,3.15476 -3.23669,3.15476 -3.28176,0 -3.90714,1.44429 -2.70292,6.24229 1.20667,4.80776 0.72186,5.91809 -2.10963,4.83155 -2.61434,-1.00322 -3.58797,0.29207 -3.37041,4.4839 0.16826,3.24203 1.37978,7.31433 2.69226,9.04943 1.75789,2.3239 0.68257,3.1547 -4.08328,3.1547 -3.55828,0 -7.17151,1.1357 -8.0294,2.5238 -0.85789,1.3881 -3.54714,2.5239 -5.9761,2.5239 -2.42896,0 -6.62086,1.6344 -9.31534,3.632 -4.24622,3.148 -4.46078,4.3491 -1.6102,9.0137 2.85939,4.6791 2.44746,6.8175 -3.15477,16.3769 -3.54397,6.0474 -6.44359,11.9955 -6.44359,13.2182 0,1.2226 1.72099,4.4275 3.82442,7.122 3.637,4.6589 3.74824,4.5627 2.26978,-1.9635 -1.07779,-4.7575 0.16006,-9.6369 4.03568,-15.9078 4.00174,-6.4749 5.1561,-11.2164 4.06228,-16.6855 -1.06643,-5.3321 -0.61683,-7.3365 1.48823,-6.6348 1.65896,0.553 3.95272,4.6192 5.09725,9.0361 1.14453,4.4169 3.14425,8.0307 4.44382,8.0307 1.29957,0 3.57848,-2.2714 5.06425,-5.0476 1.48577,-2.7762 3.84695,-5.0476 5.24706,-5.0476 1.4001,0 2.21964,1.4197 1.82118,3.1548 -0.39845,1.7351 0.40355,3.7226 1.78223,4.4166 1.37867,0.6941 2.86959,-1.2934 3.31316,-4.4166 0.44357,-3.1232 1.68719,-5.6786 2.7636,-5.6786 1.07642,0 4.01274,2.2714 6.52515,5.0476 2.51242,2.7762 5.96497,5.0476 7.67233,5.0476 1.70736,0 4.79535,-2.5808 6.86221,-5.7353 2.06685,-3.1544 9.84063,-9.0459 17.27507,-13.0922 10.77269,-5.8633 16.66753,-7.357 29.03362,-7.357 l 15.51648,0 6.65775,-22.24105 c 6.12713,-20.46844 7.17421,-22.24107 13.13761,-22.24107 4.28567,0 5.98189,1.06825 5.00926,3.15476 -0.80883,1.73512 -2.14419,5.03726 -2.96746,7.33809 -0.82328,2.30083 -3.94723,4.97657 -6.9421,5.94609 -3.95563,1.28053 -4.40961,2.05082 -1.65952,2.81576 2.95703,0.8225 3.59746,4.37596 2.92573,16.23362 -0.50044,8.834 0.32856,16.6128 1.9829,18.6061 2.25514,2.7173 4.78089,2.8487 12.21712,0.6358 5.15583,-1.5344 10.14712,-3.9103 11.09174,-5.28 0.99047,-1.436 3.95279,0.1237 6.998,3.6846 l 5.28049,6.1747 -0.68847,-7.5714 c -0.52757,-5.802 -1.86809,-7.4903 -5.73609,-7.2242 -2.77619,0.1909 -9.02261,1.0296 -13.88095,1.8636 -7.4531,1.2795 -7.05875,0.9175 2.52381,-2.3164 6.24643,-2.108 13.34464,-3.3369 15.77381,-2.7308 2.42917,0.606 4.41667,0.6938 4.41667,0.195 0,-0.4988 -1.27415,-3.7033 -2.83146,-7.1212 -1.5573,-3.4179 -4.91856,-6.7602 -7.46944,-7.42727 -4.42672,-1.15761 -4.39276,-1.71342 0.74545,-12.202 2.96089,-6.04403 5.19913,-13.5445 4.9739,-16.66771 -0.26699,-3.70226 1.0015,-5.67857 3.64484,-5.67857 2.22988,0 8.46359,4.40924 13.85268,9.79832 8.12445,8.12446 9.79831,11.5275 9.79831,19.92045 0,7.04355 1.2559,10.60408 4.12926,11.70668 3.7838,1.452 3.7631,1.9891 -0.24733,6.4205 -2.40709,2.6598 -3.63035,6.0433 -2.7184,7.5188 0.91203,1.4756 0.59322,2.6829 -0.70838,2.6829 -1.30163,0 -3.77418,-3.3983 -5.49456,-7.5517 -1.72041,-4.1534 -2.58355,-10.3998 -1.9181,-13.88094 0.66546,-3.48111 0.32636,-6.3293 -0.75358,-6.3293 -1.07994,0 -2.626,1.41965 -3.43574,3.15477 -1.17776,2.5238 -1.76667,2.5238 -2.94443,0 -0.80974,-1.73512 -3.08116,-3.15477 -5.04762,-3.15477 -2.08456,0 -3.5754,2.50816 -3.5754,6.01517 0,3.89267 1.78113,6.48097 5.04762,7.33517 3.01999,0.7897 5.04762,3.4425 5.04762,6.6039 0,2.9061 -1.13572,5.2839 -2.52381,5.2839 -1.3881,0 -2.52381,2.346 -2.52381,5.2135 0,2.8674 1.17566,7.4103 2.61259,10.0952 1.43694,2.685 3.70836,4.8817 5.04762,4.8817 1.33926,0 2.43503,-2.2714 2.43503,-5.0476 0,-2.7762 1.01421,-5.0476 2.25378,-5.0476 1.2396,0 2.90751,1.7036 3.70652,3.7857 0.79899,2.0821 2.5408,3.7857 3.87067,3.7857 1.32987,0 2.79822,-1.9744 3.26295,-4.3877 0.76681,-3.9816 1.33023,-3.9024 6.08905,0.8564 5.1143,5.1143 5.38593,5.1292 10.9768,0.602 3.15302,-2.5532 8.83806,-4.6421 12.63344,-4.6421 3.79535,0 8.95627,2.2714 11.46869,5.0476 2.51243,2.7762 3.32333,5.0476 1.802,5.0476 -1.5213,0 -3.46791,-1.1357 -4.32581,-2.5238 -0.85789,-1.3881 -2.62849,-2.5238 -3.93467,-2.5238 -1.31801,0 -2.37485,10.717 -2.37485,24.0826 0,13.2454 -1.8076,32.8365 -4.0169,43.5357 -2.20929,10.6992 -5.51977,23.0516 -7.35662,27.4497 -1.83688,4.3981 -2.75179,8.5845 -2.03313,9.3031 0.71862,0.7187 4.31306,0.2368 7.98757,-1.0708 6.41949,-2.2843 6.48342,-2.2211 1.63336,1.6153 -3.28683,2.5999 -8.17441,3.5926 -14.0112,2.8458 -7.79772,-0.9976 -9.50586,-0.2019 -13.13262,6.1173 -2.29296,3.9953 -5.35757,7.2642 -6.81022,7.2642 -1.45266,0 -2.77556,-1.4197 -2.93979,-3.1548 -0.1643,-1.7351 -1.06361,0.2524 -1.99858,4.4167 -0.93497,4.1642 -0.63521,8.3085 0.66614,9.2094 1.30135,0.9009 -1.15005,3.4562 -5.44754,5.6786 -4.2975,2.2223 -11.59232,4.0405 -16.21071,4.0405 -4.61842,0 -10.92124,1.768 -14.0063,3.9288 -3.08505,2.1609 -5.69884,5.852 -5.80843,8.2024 -0.11046,2.3696 -0.74355,2.9366 -1.42092,1.2727 -0.67192,-1.6504 0.64498,-5.8497 2.92645,-9.3317 2.28147,-3.482 9.73517,-9.916 16.56378,-14.2979 6.82862,-4.3819 12.41566,-8.863 12.41566,-9.9578 0,-1.0949 -1.71703,-2.6496 -3.81562,-3.4549 -2.0986,-0.8053 -6.51668,-0.2335 -9.81795,1.2707 -3.3013,1.5041 -7.53045,5.7326 -9.39812,9.3965 -1.86767,3.6639 -5.61317,9.7849 -8.32333,13.6022 -2.71016,3.8172 -6.41756,6.9405 -8.23865,6.9405 -1.8211,0 -3.3111,1.1357 -3.3111,2.5238 0,1.3881 0.88207,2.5238 1.96015,2.5238 1.07808,0 1.89846,4.6277 1.82305,10.2838 -0.0892,6.6878 1.20377,11.0343 3.6974,12.4298 2.10898,1.1802 3.19319,2.7872 2.40938,3.571 z m -49.00902,-50.3987 c 2.77619,-0.9616 8.45476,-2.6274 12.61904,-3.7017 6.92605,-1.7867 7.03362,-1.9676 1.26191,-2.1221 -3.47024,-0.093 -9.14881,1.5728 -12.61905,3.7017 -4.18892,2.5697 -4.61304,3.2829 -1.2619,2.1221 z M 225.732,426.55269 c 2.16406,0 3.93466,-1.1357 3.93466,-2.5238 0,-1.3881 -1.06869,-2.5238 -2.37486,-2.5238 -1.30618,0 -3.07677,1.1357 -3.93466,2.5238 -0.85789,1.3881 0.21079,2.5238 2.37486,2.5238 z m 169.55321,0 c 0.52409,0 0.95289,-1.0142 0.95289,-2.2538 0,-1.2395 -1.86422,-2.9691 -4.14269,-3.8434 -3.46388,-1.3293 -3.62,-0.9599 -0.95289,2.2537 1.7544,2.114 3.61862,3.8435 4.14269,3.8435 z m 1.79415,-25.3275 c 1.15676,0.049 1.63702,-1.3302 1.06727,-3.0653 -0.56973,-1.7351 -4.35544,-3.4559 -8.41269,-3.8239 l -7.3768,-0.6691 6.30953,3.7344 c 3.47023,2.054 7.25595,3.7747 8.41269,3.8239 z m -167.26375,-4.9582 c 1.30617,0 2.37486,-1.2588 2.37486,-2.7974 0,-1.5386 -5.39464,-7.773 -11.98809,-13.8541 -6.59346,-6.0811 -13.92398,-11.0687 -16.29005,-11.0835 -3.69539,-0.023 -3.51746,0.8195 1.26191,5.9757 3.06012,3.3014 7.622,9.0034 10.1375,12.671 2.51552,3.6676 5.56026,6.0586 6.76609,5.3134 1.20584,-0.7453 2.90579,-0.2008 3.77767,1.2099 0.87189,1.4108 2.65393,2.565 3.96011,2.565 z m 165.94049,-10.1339 c 1.81704,0.021 2.60179,-1.097 1.7439,-2.4851 -0.85789,-1.3881 -4.04814,-2.5064 -7.08943,-2.4852 -4.49549,0.031 -4.82164,0.4962 -1.7439,2.4852 2.08214,1.3456 5.27239,2.4639 7.08943,2.4851 z m 5.48631,-32.2279 c 2.43416,-8.7241 5.14574,-16.5819 6.02574,-17.4619 0.88001,-0.88 -0.24935,-3.6436 -2.50988,-6.1414 -3.59418,-3.9715 -4.73966,-4.1003 -9.12859,-1.0261 -2.76026,1.9333 -6.78905,2.8358 -8.95281,2.0055 -3.06948,-1.1778 -3.49757,-0.4427 -1.94775,3.3452 1.09253,2.6701 2.58945,7.1262 3.32651,9.9024 0.73702,2.7762 2.15515,6.1834 3.15135,7.5715 0.99623,1.388 2.66595,5.9309 3.71051,10.0952 1.79834,7.1693 2.13426,6.729 6.32492,-8.2904 z m -192.56547,1.7331 c 1.82768,-4.3467 3.32305,-10.0442 3.32305,-12.661 0,-2.6169 -1.10007,-4.7579 -2.4446,-4.7579 -1.34453,0 -1.83021,1.6011 -1.07929,3.5579 0.75091,1.9569 -0.37515,6.9236 -2.50237,11.0372 -2.12721,4.1136 -3.1369,8.21 -2.24375,9.1031 0.89315,0.8932 3.11928,-1.9325 4.94696,-6.2793 z m -12.46803,-30.8664 c 0.60193,-2.5378 0.42617,-5.2825 -0.39058,-6.0992 -0.81675,-0.8168 -2.19316,-0.7769 -3.0587,0.089 -0.86553,0.8655 -0.68977,3.6101 0.39059,6.0992 1.87689,4.3242 2.01295,4.3202 3.05869,-0.089 z m 134.65029,-19.362 c 1.25601,0 2.28366,-5.3 2.28366,-11.7778 0,-6.4778 -0.4116,-11.30454 -0.91467,-10.72617 -0.50306,0.57837 -1.5307,5.87837 -2.28365,11.77777 -0.75294,5.8994 -0.34135,10.7262 0.91466,10.7262 z m 59.22297,-32.80953 c 3.15433,0 3.29526,-0.97689 0.81928,-5.67857 -1.64474,-3.12321 -4.24005,-6.51296 -5.76736,-7.53278 -1.52733,-1.01982 -3.65791,-1.8716 -4.73462,-1.89286 -1.0767,-0.0213 -0.19577,3.3685 1.95767,7.53279 2.15344,4.16428 5.62971,7.57142 7.72503,7.57142 z m 41.51874,224.61903 c -0.94161,0 -2.46917,-0.7571 -3.39455,-1.6825 -0.92541,-0.9254 -1.68255,-2.5227 -1.68255,-3.5495 0,-1.0268 2.14325,-1.3064 4.76278,-0.6214 2.61954,0.685 5.58701,-0.088 6.59439,-1.7181 1.00738,-1.6299 0.75262,-4.0425 -0.56609,-5.3612 -1.51439,-1.5144 -4.86545,-1.4595 -9.09629,0.1491 -3.68421,1.4008 -8.41201,1.8893 -10.50622,1.0857 -2.09418,-0.8037 -3.80762,-3.649 -3.80762,-6.3229 0,-2.674 3.93715,-8.7989 8.74922,-13.6109 5.98347,-5.9835 11.07617,-8.7493 16.11041,-8.7493 5.23864,0 7.74178,1.4555 8.68117,5.0477 0.726,2.7762 3.12988,5.0476 5.34197,5.0476 2.2121,0 4.022,-1.6271 4.022,-3.6156 0,-1.9887 -1.9875,-4.292 -4.41667,-5.1186 -2.42917,-0.8266 -6.88379,-3.5691 -9.89919,-6.0944 l -5.48252,-4.5916 6.8799,-13.6394 6.87988,-13.6395 9.95979,5.653 c 5.47785,3.1091 11.3794,5.1342 13.11452,4.5002 1.73512,-0.6341 3.13737,-0.3367 3.11612,0.6608 -0.0202,0.9975 -1.015,3.3545 -2.20833,5.2379 -1.51252,2.387 -2.6926,2.5781 -3.89603,0.6309 -0.94948,-1.5363 -3.36288,-2.7932 -5.3631,-2.7932 -2.00022,0 -3.63675,1.7035 -3.63675,3.7857 0,2.0821 -1.06869,3.7857 -2.37486,3.7857 -1.30617,0 -3.07678,-1.1357 -3.93467,-2.5238 -0.85789,-1.3881 -0.35707,-2.5238 1.11295,-2.5238 1.47002,0 2.67277,-1.5711 2.67277,-3.4914 0,-1.9202 -2.23194,-4.075 -4.95982,-4.7884 -3.37239,-0.8819 -5.44396,0.2284 -6.47244,3.4688 -0.83192,2.6212 -0.80441,5.9117 0.0611,7.3122 0.86557,1.4005 -0.19685,2.5464 -2.36089,2.5464 -2.16407,0 -3.93467,0.8625 -3.93467,1.9167 0,1.0542 2.55535,3.527 5.67857,5.4952 3.12321,1.9682 8.23953,4.9204 11.36958,6.5605 l 5.69102,2.9819 -5.24324,6.6657 c -2.88371,3.6661 -6.97064,6.6657 -9.08198,6.6657 -2.11135,0 -4.4328,-2.2714 -5.1588,-5.0476 -0.92694,-3.5446 -3.44252,-5.0476 -8.44809,-5.0476 -3.92049,0 -7.78154,1.0572 -8.58015,2.3494 -0.79863,1.2922 -0.0126,3.2556 1.7439,4.3631 2.13308,1.3441 0.67792,2.4595 -4.3755,3.354 -4.42588,0.7834 -7.57143,2.9027 -7.57143,5.1011 0,2.3435 1.90242,3.4612 5.04762,2.9658 2.77619,-0.4374 7.17027,-1.0052 9.76462,-1.2619 2.59435,-0.2567 5.95374,1.4543 7.46533,3.8022 2.12739,3.3044 1.68605,5.4427 -1.95341,9.4642 -2.58594,2.8575 -5.47212,5.1954 -6.41373,5.1954 z m -257.15584,-19.092 c -6.9512,13.0263 -7.82843,13.797 -10.34699,9.091 -1.77973,-3.3254 -1.85182,-5.1419 -0.20408,-5.1419 1.40129,0 4.3097,-3.4071 6.46314,-7.5714 2.15343,-4.1643 3.48779,-7.5715 2.96523,-7.5715 -0.52256,0 -4.52673,1.2469 -8.89815,2.7708 -4.37142,1.5238 -7.97329,4.0792 -8.00416,5.6785 -0.0309,1.5993 -2.27704,0.069 -4.9915,-3.4016 -2.71446,-3.4703 -4.96063,-7.576 -4.9915,-9.124 -0.0309,-1.5479 2.28912,-5.7958 5.15551,-9.4399 2.8664,-3.644 4.50294,-7.7722 3.63677,-9.1737 -0.90629,-1.4664 1.22145,-2.5482 5.01205,-2.5482 l 6.58691,0 -7.01425,9.1962 -7.01424,9.1962 8.14771,-4.2134 c 4.48124,-2.3173 8.1651,-5.6038 8.18636,-7.3033 0.0247,-1.9738 0.92233,-1.7225 2.48516,0.6958 1.34559,2.0821 2.46391,4.7045 2.48516,5.8275 0.0212,1.123 -1.00987,1.3938 -2.29141,0.6017 -1.28153,-0.792 -6.39224,0.9568 -11.35714,3.8861 -4.9649,2.9294 -9.02709,6.3496 -9.02709,7.6006 0,1.251 1.56079,2.2745 3.46841,2.2745 1.90762,0 8.33121,-1.7156 14.27464,-3.8126 5.94343,-2.097 11.27026,-3.3486 11.83741,-2.7815 0.56714,0.5671 -2.38663,7.436 -6.56395,15.2641 z m 128.74806,1.4253 c -2.7739,0 -5.71677,-2.1214 -6.53971,-4.7143 -0.82294,-2.5928 -0.15287,-7.9875 1.48905,-11.9881 2.60831,-6.3552 3.12544,-6.6364 4.09496,-2.2262 0.61031,2.7762 2.13513,6.1266 3.38849,7.4453 1.43081,1.5053 3.40587,1.2705 5.30741,-0.631 1.66572,-1.6657 3.93714,-3.0286 5.04762,-3.0286 1.11048,0 2.01905,2.2315 2.01905,4.9589 0,2.7273 -2.19677,6.1345 -4.8817,7.5714 -2.68494,1.4369 -7.15126,2.6126 -9.92517,2.6126 z m -51.61194,-22.2411 c -0.80567,2.0133 -1.4037,1.4153 -1.5248,-1.5248 -0.10959,-2.6605 0.48691,-4.1511 1.32555,-3.3125 0.83864,0.8387 0.9283,3.0155 0.19926,4.8373 z m 215.79679,-8.623 c -1.64838,0.5494 -2.99703,-0.1098 -2.99703,-1.4651 0,-1.3553 1.79847,-3.1542 3.99661,-3.9977 2.45796,-0.9433 3.61177,-0.3792 2.99702,1.465 -0.54976,1.6494 -2.34825,3.4483 -3.9966,3.9978 z m -322.46926,-2.2382 c -4.27996,0.161 -8.53889,-0.4644 -9.46428,-1.3898 -0.9254,-0.9254 -1.68254,-2.8182 -1.68254,-4.2063 0,-1.3881 0.74209,-1.7818 1.64908,-0.8747 0.907,0.907 5.73379,-0.8313 10.7262,-3.8629 4.9924,-3.0315 9.80681,-6.577 10.69868,-7.8789 0.89187,-1.3019 2.99268,0.1948 4.66846,3.3261 1.75775,3.2844 1.93672,5.007 0.42301,4.0715 -1.44314,-0.8919 -6.22351,0.5674 -10.62305,3.2429 -6.78005,4.1232 -7.28398,5.0486 -3.30649,6.072 2.89225,0.7441 1.70708,1.3196 -3.08907,1.5001 z m 335.18131,-23.33 c -1.21559,1.9133 -5.5989,-0.3762 -13.08232,-6.8331 -6.18982,-5.3407 -10.73268,-10.1856 -10.09524,-10.7665 0.63741,-0.5809 7.52971,-1.5612 15.31619,-2.1785 12.03211,-0.9538 13.99955,-0.5193 13.10678,2.8947 -0.80568,3.0809 -3.51655,3.7862 -11.63343,3.0266 -10.54283,-0.9867 -10.56522,-0.9707 -5.90273,4.2226 2.57413,2.8672 6.80394,5.5604 9.39955,5.985 2.8279,0.4626 3.98666,1.9251 2.8912,3.6492 z m -351.67502,-1.0064 c -0.85865,1.3207 -2.79823,-1.1473 -4.31017,-5.4844 -1.51195,-4.3372 -2.10755,-9.5574 -1.32357,-11.6004 0.78399,-2.043 4.06667,-3.7146 7.29486,-3.7146 3.65287,0 6.47443,1.9062 7.47148,5.0476 0.88113,2.7762 2.37731,5.0302 3.32484,5.009 0.94753,-0.021 3.39638,-1.097 5.44188,-2.3906 2.45282,-1.5512 4.37311,-1.3232 5.63993,0.6696 1.05645,1.6618 1.93821,3.9403 1.95947,5.0633 0.0212,1.123 -1.11928,1.3262 -2.53451,0.4515 -1.41523,-0.8746 -6.80987,-0.2092 -11.98809,1.4787 -5.17822,1.688 -10.11748,4.1496 -10.97612,5.4703 z m 2.82308,-8.1804 c 2.80423,0 5.04762,-1.6825 5.04762,-3.7857 0,-2.1032 -2.24339,-3.7857 -5.04762,-3.7857 -2.80424,0 -5.04762,1.6825 -5.04762,3.7857 0,2.1032 2.24338,3.7857 5.04762,3.7857 z m 172.81849,-5.0476 c -0.72841,0 -2.36569,-2.7389 -3.63841,-6.0864 -1.78624,-4.6981 -6.37712,-7.3687 -20.12801,-11.7085 -11.50364,-3.6306 -17.81397,-6.9442 -17.81397,-9.3543 0,-2.0526 3.12791,-7.2891 6.95091,-11.6367 4.25544,-4.8393 9.38239,-7.9159 13.22108,-7.9339 3.98738,-0.019 6.58475,-1.6627 7.13423,-4.516 0.71292,-3.7019 -0.38565,-4.2301 -6.28061,-3.0196 -6.5921,1.3535 -6.4615,1.1151 1.68867,-3.083 7.89663,-4.0676 8.86225,-5.6846 9.10604,-15.2487 0.14999,-5.8842 -0.54863,-10.6986 -1.55249,-10.6986 -1.00387,0 -4.82848,2.3624 -8.49914,5.2497 -3.67066,2.8874 -6.17019,6.0648 -5.55451,7.061 0.61569,0.9962 0.0982,3.4606 -1.15003,5.4765 -1.96125,3.1674 -3.2149,3.0925 -9.2313,-0.5521 -3.82902,-2.3195 -7.3207,-5.2939 -7.75929,-6.6096 -0.43859,-1.3158 2.04847,-1.8483 5.5268,-1.1834 4.94138,0.9446 9.47867,-1.6025 20.75034,-11.6488 7.93435,-7.0718 15.00387,-12.28 15.71004,-11.5738 0.70617,0.7062 1.35103,7.2189 1.43303,14.4727 0.12389,10.9609 0.89516,13.1295 4.56575,12.8382 2.42917,-0.1928 4.41667,0.5644 4.41667,1.6826 0,1.1182 -1.37894,2.4927 -3.06431,3.0545 -1.68536,0.5618 0.58606,2.6372 5.04762,4.6121 4.46156,1.9749 8.11193,4.4135 8.11193,5.4192 0,1.0057 -1.70357,1.1748 -3.78572,0.3758 -2.68101,-1.0288 -3.78571,0.2217 -3.78571,4.2855 0,3.1561 0.68463,5.0537 1.52141,4.2169 0.83677,-0.8368 4.24392,-0.4863 7.57143,0.7788 5.43718,2.0672 6.08029,1.6035 6.34889,-4.5778 0.16438,-3.7829 0.29519,-7.4459 0.2907,-8.1399 -0.005,-0.6941 -0.6968,-3.5445 -1.53845,-6.3343 -1.18419,-3.9252 0.17667,-5.8279 6.01725,-8.4132 4.15114,-1.8375 8.5194,-2.962 9.70724,-2.4991 1.18784,0.463 -0.12165,3.1133 -2.90999,5.8895 -2.78833,2.7761 -4.26032,3.6279 -3.27109,1.8928 0.98923,-1.7351 0.71737,-3.1548 -0.60414,-3.1548 -1.32151,0 -2.86152,1.4197 -3.42226,3.1548 -0.56073,1.7351 -0.0151,11.315 1.21245,21.2885 1.84197,14.9653 2.92725,17.867 6.21114,16.6069 2.63131,-1.0098 3.36103,-0.5268 2.1543,1.4257 -1.00368,1.624 -4.88106,2.9278 -8.6164,2.8973 -3.73534,-0.031 -11.49977,-2.1933 -17.25429,-4.8063 -5.75452,-2.613 -11.43309,-3.7993 -12.61905,-2.6363 -1.18596,1.163 -6.13129,1.2917 -10.98962,0.2861 -4.85833,-1.0056 -8.26548,-2.9019 -7.57143,-4.2141 0.69405,-1.3122 -0.82691,-2.7881 -3.37991,-3.2797 -2.553,-0.4917 -7.37979,1.6782 -10.72619,4.822 -3.34641,3.1438 -6.04984,6.9376 -6.00763,8.4308 0.0422,1.4932 1.23436,0.7273 2.64922,-1.7018 1.49442,-2.5658 5.42848,-4.3497 9.38754,-4.2567 6.5941,0.1548 6.63095,0.2339 1.1365,2.4424 -3.12322,1.2554 -5.67858,2.8718 -5.67858,3.5919 0,0.7202 4.14938,3.0431 9.22084,5.1621 5.07147,2.119 9.78295,3.2906 10.46997,2.6036 0.68703,-0.687 3.35193,1.1754 5.92202,4.1387 2.57009,2.9634 4.67289,7.4856 4.67289,10.0494 0,2.5638 -0.59597,4.6614 -1.32437,4.6614 z m 2.58627,-37.8571 c 2.08215,-1.7281 3.78572,-4.1029 3.78572,-5.2775 0,-1.1745 -1.70357,-1.4818 -3.78572,-0.6828 -2.39722,0.9199 -3.78571,-0.035 -3.78571,-2.603 0,-2.2307 1.70357,-4.0558 3.78571,-4.0558 2.08215,0 3.78572,-1.5143 3.78572,-3.3651 0,-1.8507 -1.70357,-3.365 -3.78572,-3.365 -2.08214,0 -3.78571,0.9464 -3.78571,2.1031 0,1.1568 -1.9875,2.1206 -4.41667,2.1419 -3.81124,0.033 -3.89773,0.4056 -0.63095,2.7159 2.8489,2.0148 3.00504,2.9941 0.63095,3.9574 -1.73512,0.704 -3.15476,2.3212 -3.15476,3.5936 0,1.2724 1.70357,2.3135 3.78572,2.3135 2.08214,0 3.78571,1.2747 3.78571,2.8328 0,1.9572 1.17013,1.8617 3.78571,-0.309 z m 19.55953,2.4851 c 2.42917,0.021 4.41667,-1.1327 4.41667,-2.5643 0,-1.4317 -1.70358,-3.2568 -3.78572,-4.0558 -2.08214,-0.799 -5.74139,-0.7022 -8.13165,0.215 -3.72291,1.4286 -3.81336,2.0045 -0.63095,4.0171 2.04324,1.2922 5.70248,2.3668 8.13165,2.388 z m -53.7799,-30.247 c 1.30617,0 3.06873,-1.1227 3.91679,-2.4949 0.88419,-1.4307 -0.12886,-1.8538 -2.37486,-0.9919 -2.15424,0.8266 -3.91679,1.9493 -3.91679,2.4949 0,0.5455 1.06868,0.9919 2.37486,0.9919 z m -124.63068,58.0476 c -0.61213,0 -1.77431,-1.0701 -2.58264,-2.378 -0.80832,-1.3079 -6.56789,-3.1425 -12.79903,-4.0769 -6.23114,-0.9344 -11.88348,-2.5956 -12.56076,-3.6914 -0.67727,-1.0959 3.94538,-5.0263 10.27255,-8.7343 6.32718,-3.7079 11.06675,-8.0749 10.53237,-9.7044 -0.53438,-1.6294 -4.64939,-3.3241 -9.14448,-3.7658 -4.49508,-0.4417 -9.80226,0.5491 -11.79373,2.2019 -2.95183,2.4498 -3.62085,2.0153 -3.62085,-2.3516 0,-2.9462 0.85179,-5.3623 1.89286,-5.3692 1.04107,-0.01 5.3,-2.9022 9.46428,-6.4339 l 7.57143,-6.4215 -9.46428,0.8796 c -8.07379,0.7503 -9.46429,0.1382 -9.46429,-4.1661 0,-3.9243 0.67302,-4.3725 3.02857,-2.017 1.66572,1.6657 7.91214,3.0286 13.88095,3.0286 5.96881,0 10.85239,1.1357 10.85239,2.5238 0,1.3881 -0.85179,2.5294 -1.89286,2.5363 -1.04107,0.01 -5.3,2.9022 -9.46429,6.434 l -7.57143,6.4214 9.46429,-0.8795 c 7.23182,-0.6721 9.47241,0.043 9.49875,3.0303 0.0189,2.1504 0.72368,6.4821 1.56607,9.626 1.21566,4.5369 0.69232,5.394 -2.537,4.1548 -2.48368,-0.9531 -4.67149,0.01 -5.61624,2.4718 -0.8512,2.2182 -2.33464,3.5467 -3.29654,2.9522 -0.96189,-0.5945 -3.39825,-0.037 -5.41411,1.2377 -2.74695,1.7378 -1.7683,2.4411 3.90621,2.8073 4.16429,0.2687 9.55893,0.4798 11.9881,0.4692 2.6039,-0.011 4.41666,1.8756 4.41666,4.5976 0,2.5394 -0.50083,4.6171 -1.11295,4.6171 z m 339.82912,-8.3356 c -1.2668,1.9927 -3.18709,2.2207 -5.6399,0.6696 -2.04552,-1.2936 -7.97804,-2.3693 -13.1834,-2.3906 -7.95161,-0.032 -9.46429,-0.8948 -9.46429,-5.3953 0,-4.2528 0.71344,-4.7645 3.46219,-2.4833 1.90419,1.5804 8.71848,3.1021 15.14286,3.3817 6.42436,0.2796 11.66328,1.1132 11.64203,1.8524 -0.0202,0.7392 -0.90302,2.7036 -1.95949,4.3655 z m 0.73623,-11.8549 c -0.69405,0 -1.26191,-1.0764 -1.26191,-2.3919 0,-1.3156 -5.9625,-2.7352 -13.25,-3.1548 l -13.25,-0.7628 11.35714,-8.4709 11.35715,-8.4709 -10.72619,0.9662 c -9.32689,0.8401 -10.7262,0.3154 -10.7262,-4.022 0,-3.8797 0.67303,-4.3151 3.02858,-1.9596 1.66571,1.6658 7.27725,3.0286 12.47009,3.0286 5.19284,0 10.15652,-1.1568 11.03038,-2.5708 0.87387,-1.4139 -2.18233,-4.3094 -6.79152,-6.4344 -7.48574,-3.4512 -7.63944,-3.7104 -1.43991,-2.4287 4.62998,0.9572 7.01269,0.3686 7.1574,-1.768 0.11938,-1.7616 1.18251,0.016 2.36267,3.9512 1.18013,3.9347 1.5377,8.7385 0.79454,10.6751 -0.74313,1.9366 -5.21348,5.9081 -9.93407,8.8256 -4.72061,2.9175 -8.58292,5.904 -8.58292,6.6367 0,0.7327 3.975,0.8682 8.83334,0.301 7.20429,-0.8411 8.83333,-0.1938 8.83333,3.5096 0,2.4974 -0.56786,4.5408 -1.2619,4.5408 z m -350.80954,-39.5984 c -2.77619,0.7108 -6.75119,0.6948 -8.83333,-0.035 -2.08215,-0.7302 -5.20536,-3.1177 -6.94048,-5.3055 -1.73512,-2.1877 -3.15476,-6.5738 -3.15476,-9.7467 0,-3.3378 2.60684,-7.477 6.18595,-9.8221 3.63185,-2.3797 8.3149,-3.3775 11.3422,-2.4167 2.83594,0.9001 6.86655,3.3468 8.95691,5.4372 2.09036,2.0903 3.80065,5.7739 3.80065,8.1856 0,2.4117 -1.41964,6.1909 -3.15476,8.3982 -1.73512,2.2073 -5.42619,4.5948 -8.20238,5.3055 z m -1.93984,-5.8302 c 5.17685,0 8.97077,-1.4671 9.87283,-3.8178 0.80578,-2.0998 0.16759,-5.3812 -1.41819,-7.292 -1.58578,-1.9107 -5.57956,-3.9895 -8.87508,-4.6194 -3.29551,-0.63 -7.80369,-0.1315 -10.01816,1.1078 -2.21448,1.2393 -4.02632,3.6732 -4.02632,5.4088 0,1.7355 1.36286,4.5184 3.02857,6.1841 1.66571,1.6657 6.81207,3.0285 11.43635,3.0285 z m 331.59488,7.5715 c -2.77619,0 -5.54832,-0.8518 -6.16027,-1.8929 -0.61197,-1.0411 4.99957,-5.4869 12.4701,-9.8796 11.40176,-6.7043 13.58276,-7.2923 13.58276,-3.6618 0,2.6556 -3.42481,5.5635 -8.87255,7.5334 -4.87992,1.7646 -8.22003,4.2642 -7.42248,5.5546 0.79753,1.2904 -0.82137,2.3463 -3.59756,2.3463 z m -8.42256,-27.3641 c -0.4476,1.3428 -1.64194,1.6133 -2.65409,0.6012 -1.01217,-1.0122 -1.84028,-3.4216 -1.84028,-5.3543 0,-1.9327 0.85178,-3.0372 1.89285,-2.4544 1.04107,0.5829 5.3,-0.4346 9.46429,-2.261 l 7.57143,-3.3207 -10.72619,-0.1138 c -5.89941,-0.063 -10.72619,-1.1722 -10.72619,-2.4658 0,-1.2936 3.47253,-4.8246 7.71675,-7.8468 4.24419,-3.0221 7.13198,-6.0795 6.41726,-6.7942 -0.71469,-0.71471 -5.23584,1.0231 -10.04701,3.8617 -7.47787,4.4121 -8.95879,4.6107 -10.203,1.3684 -0.80048,-2.0861 -1.45543,-4.1615 -1.45543,-4.6121 0,-0.4505 2.13877,-0.2599 4.75281,0.4237 2.61404,0.6836 8.32976,-0.6068 12.70158,-2.86755 4.37179,-2.26076 7.37818,-5.03364 6.68085,-6.16197 -0.69736,-1.12833 -7.20346,-1.11322 -14.45802,0.0336 -7.25457,1.14679 -13.67234,1.60285 -14.26172,1.01346 -0.58939,-0.58938 2.47242,-5.54634 6.80406,-11.01546 4.33162,-5.46912 7.91179,-11.484 7.95593,-13.36638 0.0538,-2.28847 1.27508,-1.84437 3.68608,1.34024 3.23262,4.26985 2.96313,5.26831 -2.60407,9.64746 -3.41545,2.68659 -6.20988,5.93798 -6.20988,7.22533 0,1.28735 2.61214,2.34063 5.80476,2.34063 3.19262,0 7.0619,-1.25712 8.59837,-2.79361 2.04226,-2.04227 3.97525,-0.9902 7.18717,3.91181 4.34146,6.6259 4.29348,6.80865 -4.04584,15.41264 l -8.43939,8.7073 11.85221,0 c 7.95553,0 11.85224,1.0635 11.85224,3.2347 0,1.7791 -5.05209,4.7264 -11.22686,6.5496 -6.17478,1.8232 -11.59307,4.4136 -12.04067,5.7564 z m -307.35153,-2.9216 c -1.34558,2.0821 -2.4639,2.5478 -2.48516,1.0349 -0.0213,-1.513 -4.86543,-4.2062 -10.76484,-5.985 -5.8994,-1.7788 -11.49139,-3.3802 -12.42665,-3.5587 -0.93525,-0.1785 -0.13829,-4.0156 1.77103,-8.5269 2.26847,-5.36 5.21945,-8.2024 8.51552,-8.2024 2.77423,0 6.12722,1.9355 7.4511,4.3011 2.06174,3.6842 3.3838,3.8562 9.21556,1.199 5.75928,-2.6241 6.31109,-3.7015 3.58075,-6.9913 -1.77528,-2.13911 -6.28971,-5.47265 -10.03208,-7.40791 -3.74238,-1.93525 -7.51616,-2.8068 -8.3862,-1.93676 -0.87004,0.87003 -1.58188,0.39594 -1.58188,-1.05354 0,-1.44947 1.52414,-3.90034 3.38697,-5.44635 1.86284,-1.54602 3.85034,-2.41607 4.41667,-1.93345 0.56633,0.48261 4.85427,1.60678 9.52875,2.49815 l 8.49907,1.62067 -6.74598,-8.84443 c -3.71028,-4.86444 -6.06067,-9.95327 -5.22308,-11.30852 0.88124,-1.42587 5.70423,0.17545 11.44676,3.80056 5.45812,3.44557 11.08215,6.26467 12.49783,6.26467 1.41568,0 2.57396,0.94642 2.57396,2.10317 0,1.15675 -0.72359,2.82676 -1.60797,3.71115 -0.88439,0.88438 -4.92478,-0.7538 -8.97865,-3.64041 -4.05386,-2.88661 -7.88904,-4.73 -8.52261,-4.09644 -0.63356,0.63357 1.1354,4.05982 3.93103,7.61389 2.79563,3.55406 5.08296,7.23441 5.08296,8.17855 0,0.94414 -4.82678,1.04238 -10.72619,0.21831 l -10.72619,-1.49832 8.83333,4.34952 c 4.85834,2.39224 9.15979,4.52346 9.55878,4.73605 0.399,0.21258 -0.60967,3.31684 -2.24149,6.89824 -1.79902,3.9484 -5.81013,7.1362 -10.18973,8.0981 -3.97253,0.8725 -7.22279,2.6319 -7.22279,3.9097 0,1.2778 1.41964,2.4577 3.15476,2.6221 1.73512,0.1644 4.00654,0.1644 5.04762,0 1.04107,-0.1644 1.87546,0.5529 1.85421,1.594 -0.0213,1.0411 -1.13958,3.5964 -2.48517,5.6786 z m -11.61898,-12.6096 c 1.69515,-1.6952 1.58741,-3.4791 -0.32566,-5.3922 -1.57241,-1.5724 -4.92277,-2.0592 -7.44524,-1.0817 -4.37172,1.6942 -4.35649,1.9464 0.32567,5.3922 3.28687,2.419 5.75009,2.7768 7.44523,1.0817 z m 99.47032,9.7421 c -0.42895,-0.1891 -3.33526,-0.8359 -6.45848,-1.4375 -3.12321,-0.6015 -5.67857,-2.0441 -5.67857,-3.2057 0,-1.1616 2.28913,-1.5134 5.08695,-0.7817 2.79782,0.7316 5.70414,2.3289 6.45847,3.5494 0.75434,1.2205 1.02057,2.0645 0.59163,1.8755 z m 197.95688,-44.74352 c -1.07873,4.16294 -2.80817,6.72214 -3.84318,5.68712 -1.03505,-1.03502 -1.17418,-5.65414 -0.30925,-10.2647 0.97889,-5.2179 0.56107,-8.38285 -1.10664,-8.38285 -1.4736,0 -3.6728,1.77533 -4.8871,3.94519 -1.9421,3.47033 -2.58075,3.49588 -5.30591,0.21225 -2.5363,-3.05605 -2.1788,-4.02471 1.97158,-5.34199 2.7883,-0.88497 7.97478,-5.06159 11.52548,-9.28137 l 6.45585,-7.67233 4.9848,5.91436 c 2.74164,3.25291 4.71319,8.1858 4.38121,10.96199 -0.36638,3.06365 -2.82472,5.36318 -6.25458,5.85048 -3.84563,0.54638 -6.27755,3.22097 -7.61226,8.37185 z m 4.42989,-12.96043 c 3.36507,0 5.04762,-1.68254 5.04762,-5.04762 0,-2.77619 -0.90857,-5.04762 -2.01905,-5.04762 -1.11048,0 -3.38191,1.36286 -5.04762,3.02857 -1.66571,1.66571 -3.02857,3.93714 -3.02857,5.04762 0,1.11048 2.27143,2.01905 5.04762,2.01905 z M 182.95385,257.476 c -2.5871,2.14709 -3.76338,2.24283 -3.76338,0.30631 0,-1.54935 -4.53281,-6.10055 -10.0729,-10.11377 -8.61846,-6.24318 -9.5295,-7.74776 -6.30952,-10.4201 2.58709,-2.14709 3.76337,-2.24284 3.76337,-0.30632 0,1.54936 4.53281,6.10055 10.0729,10.11378 8.61846,6.24318 9.5295,7.74775 6.30953,10.4201 z m 17.55978,-16.84377 c -5.59157,4.46162 -8.70411,5.7218 -8.70411,3.52405 0,-1.88162 -3.18536,-6.47289 -7.07858,-10.20283 -3.89322,-3.72994 -7.86822,-6.78171 -8.83333,-6.78171 -0.96512,0 -1.75476,1.7706 -1.75476,3.93466 0,2.23555 -1.20728,3.18853 -2.79571,2.20682 -1.7704,-1.09416 0.52816,-5.0517 6.26746,-10.79101 7.11811,-7.1181 9.72217,-8.40417 12.13381,-5.99253 2.41164,2.41164 1.87902,3.07063 -2.48175,3.07063 -3.05381,0 -5.55238,0.91293 -5.55238,2.02872 0,1.1158 3.79546,5.70743 8.43436,10.20363 6.92771,6.7146 8.94724,7.5569 11.30557,4.71529 2.01815,-2.43172 2.13669,-6.02079 0.39898,-12.07982 -1.35973,-4.74111 -2.47224,-11.28131 -2.47224,-14.53378 0,-5.9042 0.0168,-5.90122 10.59243,1.8762 5.82584,4.28437 12.1488,7.78976 14.05103,7.78976 2.39154,0 2.95109,-1.75196 1.81365,-5.67857 -0.90473,-3.12321 -3.85454,-8.80179 -6.55516,-12.61905 -4.17668,-5.90365 -4.31836,-6.94047 -0.94839,-6.94047 2.17899,0 8.42612,2.27751 13.88249,5.06115 9.06345,4.62383 9.78489,4.67835 8.34917,0.63095 -0.86433,-2.43661 -3.17188,-6.29991 -5.12789,-8.58512 -2.82934,-3.30553 -2.8922,-4.37631 -0.3075,-5.23788 2.03752,-0.67917 4.90707,3.62565 7.69617,11.54558 2.44601,6.94569 3.94122,13.1346 3.32269,13.75313 -0.61853,0.61853 -5.29123,-1.33377 -10.38377,-4.33845 -5.09255,-3.00468 -9.72642,-4.9958 -10.2975,-4.42473 -0.57107,0.57108 0.32222,4.02437 1.9851,7.67399 1.66287,3.64961 4.26075,6.68327 5.77306,6.74145 1.51231,0.0582 -1.19177,2.20431 -6.00906,4.76917 -8.07781,4.30085 -8.99777,4.34167 -11.83384,0.52516 -2.84341,-3.82638 -3.40324,-3.81494 -7.42925,0.15178 -3.28383,3.23548 -3.6637,5.12191 -1.54538,7.67433 2.17905,2.62559 0.85736,4.94136 -5.89537,10.3295 z m 6.83304,-20.0137 c 1.72377,-1.06535 1.68022,-2.47703 -0.13232,-4.28958 -1.48591,-1.48591 -3.40216,-2.00114 -4.25834,-1.14496 -0.85618,0.85618 -0.79664,2.78649 0.13232,4.28958 0.92896,1.50309 2.84521,2.01832 4.25834,1.14496 z m 128.2683,24.95779 c -0.92208,1.09991 -2.93393,0.48474 -4.47077,-1.36704 -2.0534,-2.4742 -1.92331,-6.68474 0.49065,-15.88078 l 3.28491,-12.5139 1.18587,13.88095 c 0.65223,7.63452 0.43143,14.78087 -0.49066,15.88077 z m 80.0421,-0.73791 c -4.29502,0 -8.12137,-2.19438 -10.70683,-6.14028 -3.30221,-5.03979 -3.47108,-7.18836 -0.94227,-11.9881 1.69456,-3.2163 4.33063,-6.68221 5.85794,-7.70202 1.52733,-1.01982 5.86021,-1.8716 9.62864,-1.89286 4.2192,-0.0237 7.85545,1.83694 9.46428,4.84305 1.43693,2.68494 2.6126,7.05177 2.6126,9.70408 0,2.65231 -2.07692,6.70197 -4.61539,8.99925 -2.53848,2.29729 -7.62299,4.17688 -11.29897,4.17688 z m -1.51484,-2.52381 c 2.44408,0 6.82826,-3.03137 9.74263,-6.73637 2.91435,-3.70501 4.91669,-7.8828 4.44963,-9.28398 -0.46705,-1.40119 -2.71807,-3.72645 -5.00224,-5.16727 -3.2034,-2.02065 -5.62168,-1.23992 -10.57597,3.41439 -3.53263,3.31873 -6.42295,7.91822 -6.42295,10.2211 0,2.30288 0.75715,4.94419 1.68255,5.86959 0.92538,0.9254 3.68224,1.68254 6.12635,1.68254 z m -15.10649,-20.17432 c -3.44195,7.68784 -5.11733,9.13207 -8.4379,7.27378 -3.69103,-2.06561 -3.46497,-3.05049 2.07134,-9.02427 3.41799,-3.68808 6.87238,-9.32661 7.67639,-12.53007 1.25345,-4.9942 2.20172,-5.4285 6.65218,-3.04668 4.83224,2.58614 4.88478,2.94878 0.76149,5.25629 -2.43586,1.36318 -6.36144,6.7951 -8.7235,12.07095 z m -18.40554,-0.11493 c -0.43828,-0.0543 -4.58364,-1.74332 -9.21193,-3.75331 -7.29057,-3.16617 -7.93358,-4.136 -4.8119,-7.25769 1.98175,-1.98174 5.06961,-7.14346 6.86191,-11.47047 1.79231,-4.32702 2.53106,-8.59502 1.64162,-9.48445 -0.88942,-0.88942 -5.67365,3.122 -10.63161,8.91426 -4.95796,5.79226 -10.06169,10.53138 -11.34162,10.53138 -1.27993,0 -2.32715,-6.24642 -2.32715,-13.88095 0,-7.63452 -1.13571,-13.88095 -2.52381,-13.88095 -1.38809,0 -2.52381,1.35278 -2.52381,3.00618 0,1.6534 -1.61071,0.8034 -3.57936,-1.88889 -1.96865,-2.69229 -4.23658,-4.23786 -5.03984,-3.4346 -0.80326,0.80326 -1.7479,7.11266 -2.09921,14.02089 -0.5936,11.67294 -1.05636,12.48175 -6.54937,11.44698 -3.84217,-0.72378 -4.85002,-1.76893 -2.87993,-2.98652 1.6669,-1.03019 3.6226,-7.12426 4.34601,-13.54237 0.96274,-8.5414 2.41118,-11.66552 5.40374,-11.65522 2.24864,0.008 8.095,1.12716 12.99192,2.4876 8.54789,2.37473 8.86489,2.87815 7.93729,12.60497 -0.5314,5.5723 0.005,10.09577 1.19176,10.05214 1.18687,-0.0436 4.20616,-2.89311 6.70954,-6.3322 2.50339,-3.43909 3.81996,-7.4367 2.92575,-8.88358 -0.89421,-1.44688 2.73613,-0.76569 8.06746,1.51377 5.33132,2.27945 10.95911,4.67166 12.5062,5.31602 1.5471,0.64435 4.10768,4.01327 5.69019,7.48647 2.00892,4.40913 2.09463,7.77725 0.284,11.16046 -1.42628,2.66505 -4.76399,6.00729 -7.41712,7.4272 -2.65311,1.41991 -5.18244,2.5372 -5.62073,2.48287 z m -1.69633,-4.94885 c 2.51286,0 6.37928,-2.76312 8.59208,-6.14028 3.12966,-4.77644 3.40314,-7.29902 1.2313,-11.35714 -1.53559,-2.86928 -3.86466,-5.21686 -5.17571,-5.21686 -1.31104,0 -4.62957,4.40223 -7.37449,9.78273 -2.74492,5.38051 -4.2823,10.49122 -3.41638,11.35714 0.86592,0.86593 3.63037,1.57441 6.1432,1.57441 z m -124.77852,-7.57143 c -3.26459,0 -3.11462,-1.83868 1.04222,-12.7786 2.67052,-7.02823 4.27908,-13.71124 3.57459,-14.85113 -0.7045,-1.1399 3.75077,-3.33953 9.90058,-4.88807 6.14982,-1.54854 11.81429,-2.81553 12.58771,-2.81553 0.77342,0 1.40621,1.93071 1.40621,4.29048 0,3.171 -0.73875,3.55172 -2.83135,1.45912 -1.55724,-1.55724 -4.39652,-2.23073 -6.30952,-1.49664 -1.913,0.73408 -3.47817,3.48462 -3.47817,6.1123 0,2.62768 0.90857,4.7776 2.01904,4.7776 1.11048,0 3.38191,-1.36286 5.04762,-3.02857 2.35556,-2.35556 3.02857,-1.81232 3.02857,2.4446 0,3.82815 -1.13783,5.03654 -3.78571,4.02045 -2.6269,-1.00803 -3.78572,0.17503 -3.78572,3.86493 0,3.58993 1.59923,5.31764 4.92222,5.31764 2.70721,0 6.07982,-1.9875 7.49468,-4.41667 2.35983,-4.05159 2.57881,-4.0639 2.64922,-0.14896 0.0422,2.34725 -0.77504,4.75344 -1.81611,5.3471 -1.04108,0.59366 -5.99864,1.81913 -11.01682,2.72327 -8.70641,1.56867 -9.06833,1.35283 -7.90817,-4.71614 0.67216,-3.51616 0.0363,-6.36003 -1.42195,-6.36003 -1.45077,0 -4.3742,1.73643 -6.49651,3.85875 -2.12231,2.12231 -3.21764,5.52945 -2.43406,7.57143 0.86653,2.25815 -0.0692,3.71267 -2.38857,3.71267 z m 8.32084,-16.40476 c 1.38809,-0.85789 2.50641,-4.04813 2.48516,-7.08942 -0.0314,-4.4955 -0.49618,-4.82164 -2.48516,-1.74391 -1.34559,2.08214 -2.46391,5.27238 -2.48517,7.08942 -0.0213,1.81704 1.09707,2.6018 2.48517,1.74391 z m 44.96353,11.06438 c -0.43827,-0.16102 -2.78437,-0.81215 -5.21353,-1.44696 -2.42917,-0.63481 -4.41667,-2.95052 -4.41667,-5.14602 0,-3.49109 0.61321,-3.43687 4.88859,0.4323 2.68872,2.43326 6.09586,3.67797 7.57143,2.76602 1.47556,-0.91195 2.68284,-3.11234 2.68284,-4.88975 0,-1.77741 -2.91684,-4.56065 -6.48186,-6.18499 -4.64975,-2.11856 -6.25481,-4.55149 -5.67857,-8.60749 0.61452,-4.32549 2.73076,-5.84 9.00567,-6.44501 7.1362,-0.68806 8.19194,-0.0319 8.12211,5.04762 -0.0741,5.39163 -0.33687,5.50044 -3.43299,1.42181 -1.844,-2.42917 -4.58014,-4.41667 -6.08031,-4.41667 -1.50017,0 -3.3996,1.08735 -4.22096,2.41632 -0.82135,1.32898 1.95091,4.19744 6.16058,6.37434 4.53058,2.34286 7.65395,5.95512 7.65395,8.85202 0,2.69171 -2.19677,6.06968 -4.8817,7.50662 -2.68494,1.43693 -5.2403,2.48086 -5.67858,2.31984 z m 15.76563,-22.89474 c -1.89285,0.63096 -2.83928,-0.31547 -2.20833,-2.20833 0.60729,-1.82187 2.59479,-3.80937 4.41667,-4.41667 1.89286,-0.63095 2.83928,0.31548 2.20833,2.20834 -0.60729,1.82187 -2.59479,3.80937 -4.41667,4.41666 z"
       id="path3084"
       style="fill:#000000" />
  </g>
</svg>
